g combined_tat_scrap-mesh
v 0.6760677 4.5760202 -2.2218757
v 0.7118293 4.579287 -2.2022402
v 0.6178718 4.34477 -2.023973
v 0.58272535 4.343038 -2.0447755
v 0.5611187 4.3282995 -2.075553
v 0.6550762 4.5628166 -2.25382
v 0.6566209 4.33303 -2.0189939
v 0.75242376 4.5721536 -2.2007623
v 0.6550762 4.5628166 -2.25382
v 0.5611187 4.3282995 -2.075553
v 0.5581268 4.304446 -2.10851
v 0.65392965 4.543569 -2.2902782
v 0.57783234 4.2787113 -2.1319788
v 0.6760956 4.523976 -2.3184152
v 0.709766 4.5080605 -2.336528
v 0.6088885 4.256271 -2.1451318
v 0.61635876 4.2370667 -2.1664584
v 0.71877396 4.4926944 -2.3607724
v 0.6178718 4.34477 -2.023973
v 0.5611187 4.3282995 -2.075553
v 0.58272535 4.343038 -2.0447755
v 0.6566209 4.33303 -2.0189939
v 0.5581268 4.304446 -2.10851
v 0.6858463 4.3100586 -2.0338106
v 0.57783234 4.2787113 -2.1319788
v 0.7037211 4.2837925 -2.0589435
v 0.6088885 4.256271 -2.1451318
v 0.61635876 4.2370667 -2.1664584
v 0.7294988 4.2699013 -2.0636313
v 0.6226319 4.2308226 -2.1713667
v 0.735772 4.263657 -2.0685399
v 0.7118293 4.579287 -2.2022402
v 0.6760677 4.5760202 -2.2218757
v 0.6550762 4.5628166 -2.25382
v 0.65392965 4.543569 -2.2902782
v 0.75242376 4.5721536 -2.2007623
v 0.7841096 4.555323 -2.220247
v 0.6760956 4.523976 -2.3184152
v 0.709766 4.5080605 -2.336528
v 0.80459857 4.535582 -2.2503397
v 0.831914 4.5255294 -2.2579453
v 0.71877396 4.4926944 -2.3607724
v 0.6858463 4.3100586 -2.0338106
v 0.7841096 4.555323 -2.220247
v 0.80459857 4.535582 -2.2503397
v 0.7037211 4.2837925 -2.0589435
v 0.75242376 4.5721536 -2.2007623
v 0.6566209 4.33303 -2.0189939
v 0.7294988 4.2699013 -2.0636313
v 0.831914 4.5255294 -2.2579453
v 0.7727805 4.321233 -2.0830097
v 0.8542488 4.5489707 -2.2592225
v 0.8582291 4.5288587 -2.2379403
v 0.80151033 4.357762 -2.103198
v 0.88000315 4.4961176 -2.1914163
v 0.90225464 4.5093446 -2.213197
v 0.7294988 4.2699013 -2.0636313
v 0.831914 4.5255294 -2.2579453
v 0.88000315 4.4961176 -2.1914163
v 0.88659 4.489561 -2.1965702
v 0.8080972 4.3512053 -2.108352
v 0.80151033 4.357762 -2.103198
v 0.7790537 4.3149886 -2.087918
v 0.7727805 4.321233 -2.0830097
v 0.90225464 4.5093446 -2.213197
v 0.9088415 4.502788 -2.218351
v 0.735772 4.263657 -2.0685399
v 0.7294988 4.2699013 -2.0636313
v 0.8645023 4.522614 -2.2428486
v 0.9088415 4.502788 -2.218351
v 0.90225464 4.5093446 -2.213197
v 0.8582291 4.5288587 -2.2379403
v 0.6226319 4.2308226 -2.1713667
v 0.6234403 4.2698274 -2.2293468
v 0.6171671 4.276072 -2.2244384
v 0.61635876 4.2370667 -2.1664584
v 0.623928 4.3062253 -2.2645931
v 0.63051486 4.299669 -2.269747
v 0.6621444 4.4328923 -2.3894165
v 0.6687313 4.426336 -2.3945704
v 0.6843921 4.43765 -2.422341
v 0.67780524 4.4442067 -2.4171872
v 0.6226319 4.2308226 -2.1713667
v 0.735772 4.263657 -2.0685399
v 0.7790537 4.3149886 -2.087918
v 0.6234403 4.2698274 -2.2293468
v 0.63051486 4.299669 -2.269747
v 0.8080972 4.3512053 -2.108352
v 0.6687313 4.426336 -2.3945704
v 0.88659 4.489561 -2.1965702
v 0.8645023 4.522614 -2.2428486
v 0.9088415 4.502788 -2.218351
v 0.7037628 4.4759655 -2.3889363
v 0.7184037 4.5010786 -2.3938253
v 0.8608357 4.542414 -2.2643764
v 0.6843921 4.43765 -2.422341
v 0.6171671 4.276072 -2.2244384
v 0.623928 4.3062253 -2.2645931
v 0.6974897 4.4822097 -2.384028
v 0.71181685 4.507635 -2.3886714
v 0.6621444 4.4328923 -2.3894165
v 0.67780524 4.4442067 -2.4171872
v 0.71877396 4.4926944 -2.3607724
v 0.61635876 4.2370667 -2.1664584
v 0.8542488 4.5489707 -2.2592225
v 0.71181685 4.507635 -2.3886714
v 0.7184037 4.5010786 -2.3938253
v 0.8608357 4.542414 -2.2643764
v 0.8608357 4.542414 -2.2643764
v 0.8645023 4.522614 -2.2428486
v 0.8582291 4.5288587 -2.2379403
v 0.8542488 4.5489707 -2.2592225
v 0.6974897 4.4822097 -2.384028
v 0.7037628 4.4759655 -2.3889363
v 0.7184037 4.5010786 -2.3938253
v 0.71181685 4.507635 -2.3886714
v 0.67780524 4.4442067 -2.4171872
v 0.6843921 4.43765 -2.422341
v 0.7037628 4.4759655 -2.3889363
v 0.6974897 4.4822097 -2.384028
v 0.71877396 4.4926944 -2.3607724
v 0.71181685 4.507635 -2.3886714
v 0.8542488 4.5489707 -2.2592225
v 0.831914 4.5255294 -2.2579453
v -0.80197895 4.806837 0.3988893
v -0.84168446 4.730941 0.21311639
v -0.81735146 4.7102594 0.23499377
v -0.7826306 4.776628 0.38294467
v -0.80312324 4.6902614 0.27763614
v -0.7781998 4.737902 0.36180875
v -0.76709837 4.8367143 0.44227347
v -0.8328634 4.8229947 0.3988893
v -0.8725689 4.747098 0.21311639
v -0.8282102 4.8686852 0.4422735
v -0.8306149 4.891286 0.46081373
v -0.74748975 4.8477983 0.46081373
v -0.8690413 4.821834 0.3829447
v -0.771459 4.6172004 0.45970055
v -0.7736935 4.6129293 0.43782312
v -0.78079784 4.7409353 0.37070805
v -0.77857625 4.6179943 0.46822903
v -0.8690413 4.821834 0.3829447
v -0.8725689 4.747098 0.21311639
v -0.8328634 4.8229947 0.3988893
v -0.9037622 4.755466 0.23499379
v -0.9030518 4.803219 0.36180878
v -0.8282102 4.8686852 0.4422735
v -0.92797524 4.7555785 0.27763617
v -1.0082839 4.7356563 0.43782318
v -1.0060494 4.739928 0.4597006
v -0.89940727 4.802986 0.37070808
v -1.0013386 4.734534 0.4682291
v -0.75375825 4.8406157 0.4608137
v -0.8326122 4.881869 0.4608137
v -0.8306149 4.891286 0.46081373
v -0.74748975 4.8477983 0.46081373
v -1.0060494 4.739928 0.4597006
v -1.0013386 4.734534 0.4682291
v -1.0042607 4.728948 0.43782318
v -1.0082839 4.7356563 0.43782318
v -0.92759657 4.749103 0.28060257
v -0.92797524 4.7555785 0.27763617
v -0.90404063 4.7493343 0.24018502
v -0.9037622 4.755466 0.23499379
v -0.874662 4.7414975 0.21422878
v -0.8725689 4.747098 0.21311639
v -0.8326122 4.881869 0.4608137
v -0.83033365 4.861427 0.44338587
v -0.8282102 4.8686852 0.4422735
v -0.8306149 4.891286 0.46081373
v -0.76709837 4.8367143 0.44227347
v -0.7721789 4.8310027 0.44338587
v -0.75375825 4.8406157 0.4608137
v -0.74748975 4.8477983 0.46081373
v -0.75375825 4.8406157 0.4608137
v -0.7721789 4.8310027 0.44338587
v -0.83033365 4.861427 0.44338587
v -0.8326122 4.881869 0.4608137
v -0.78079784 4.7409353 0.37070805
v -0.89940727 4.802986 0.37070808
v -0.78149825 4.612409 0.43782312
v -0.77857625 4.6179943 0.46822903
v -0.771459 4.6172004 0.45970055
v -0.7736935 4.6129293 0.43782312
v -0.8089871 4.687052 0.28060254
v -0.80312324 4.6902614 0.27763614
v -0.82190114 4.7063627 0.24018501
v -0.81735146 4.7102594 0.23499377
v -0.84542036 4.7261996 0.21422878
v -0.84168446 4.730941 0.21311639
v -0.874662 4.7414975 0.21422878
v -0.8725689 4.747098 0.21311639
v -0.78079784 4.7409353 0.37070805
v -0.7721789 4.8310027 0.44338587
v -0.76709837 4.8367143 0.44227347
v -0.7781998 4.737902 0.36180875
v -0.8282102 4.8686852 0.4422735
v -0.83033365 4.861427 0.44338587
v -0.89940727 4.802986 0.37070808
v -0.9030518 4.803219 0.36180878
v -0.78149825 4.612409 0.43782312
v -0.8089871 4.687052 0.28060254
v -0.78079784 4.7409353 0.37070805
v -0.78149825 4.612409 0.43782312
v -0.78079784 4.7409353 0.37070805
v -0.77857625 4.6179943 0.46822903
v -0.78079784 4.7409353 0.37070805
v -0.8089871 4.687052 0.28060254
v -0.82190114 4.7063627 0.24018501
v -0.84542036 4.7261996 0.21422878
v -0.89940727 4.802986 0.37070808
v -0.874662 4.7414975 0.21422878
v -0.90404063 4.7493343 0.24018502
v -0.92759657 4.749103 0.28060257
v -0.89940727 4.802986 0.37070808
v -0.92759657 4.749103 0.28060257
v -1.0042607 4.728948 0.43782318
v -0.89940727 4.802986 0.37070808
v -1.0042607 4.728948 0.43782318
v -1.0013386 4.734534 0.4682291
v 0.76798624 4.7640443 0.77437466
v 0.8994426 4.7281504 0.9564997
v 0.8998141 4.6883216 0.9466119
v 0.7702006 4.7237124 0.76704
v 0.8998141 4.6883216 0.9466119
v 0.8994426 4.7281504 0.9564997
v 0.8676552 4.7333136 0.9795762
v 0.87657815 4.6884365 0.963406
v 0.8438363 4.7059436 0.99048924
v 0.818546 4.736166 1.0147
v 0.84127384 4.7571974 1.0024402
v 0.8310272 4.7954454 1.0182593
v 0.8027685 4.7756066 1.0338613
v 0.7991995 4.8196936 1.0451262
v 0.8057864 4.8478208 1.0459154
v 0.8368103 4.8343935 1.0226462
v 0.73701787 4.7689843 0.7985859
v 0.76798624 4.7640443 0.77437466
v 0.7702006 4.7237124 0.76704
v 0.74696463 4.7238274 0.78383416
v 0.7142227 4.7413344 0.8109174
v 0.6889324 4.771557 0.8351281
v 0.71166027 4.792588 0.8228683
v 0.70038986 4.831116 0.837269
v 0.67315495 4.8109975 0.85428935
v 0.66958594 4.8550844 0.86555433
v 0.67617285 4.8832116 0.86634344
v 0.70535386 4.8702874 0.8405211
v 0.8676552 4.7333136 0.9795762
v 0.8994426 4.7281504 0.9564997
v 0.76798624 4.7640443 0.77437466
v 0.73701787 4.7689843 0.7985859
v 0.84127384 4.7571974 1.0024402
v 0.8676552 4.7333136 0.9795762
v 0.73701787 4.7689843 0.7985859
v 0.71166027 4.792588 0.8228683
v 0.70038986 4.831116 0.837269
v 0.8310272 4.7954454 1.0182593
v 0.70535386 4.8702874 0.8405211
v 0.8368103 4.8343935 1.0226462
v 0.8368103 4.8343935 1.0226462
v 0.70535386 4.8702874 0.8405211
v 0.67617285 4.8832116 0.86634344
v 0.8057864 4.8478208 1.0459154
v 0.76760715 4.7240615 0.7512808
v 0.91278255 4.684421 0.9524126
v 0.9149848 4.7288604 0.9595813
v 0.7698095 4.7685003 0.75844944
v 0.8998141 4.6883216 0.9466119
v 0.87657815 4.6884365 0.963406
v 0.8839496 4.686424 0.9736187
v 0.91278255 4.684421 0.9524126
v 0.8512077 4.703931 1.0007019
v 0.8438363 4.7059436 0.99048924
v 0.82591736 4.7341533 1.0249126
v 0.818546 4.736166 1.0147
v 0.8101399 4.773594 1.0440738
v 0.8027685 4.7756066 1.0338613
v 0.7991995 4.8196936 1.0451262
v 0.8065709 4.817681 1.0553389
v 0.8057864 4.8478208 1.0459154
v 0.8133636 4.8530655 1.0574096
v 0.7387742 4.7260637 0.7724868
v 0.74696463 4.7238274 0.78383416
v 0.7702006 4.7237124 0.76704
v 0.76760715 4.7240615 0.7512808
v 0.7142227 4.7413344 0.8109174
v 0.70603234 4.743571 0.79957
v 0.68074197 4.773793 0.8237807
v 0.6889324 4.771557 0.8351281
v 0.66496456 4.813234 0.842942
v 0.67315495 4.8109975 0.85428935
v 0.6613955 4.857321 0.854207
v 0.66958594 4.8550844 0.86555433
v 0.67617285 4.8832116 0.86634344
v 0.6681883 4.8927054 0.85627776
v 0.7383799 4.7780766 0.78302234
v 0.7387742 4.7260637 0.7724868
v 0.76760715 4.7240615 0.7512808
v 0.7698095 4.7685003 0.75844944
v 0.70603234 4.743571 0.79957
v 0.71241593 4.803103 0.8066953
v 0.68074197 4.773793 0.8237807
v 0.66496456 4.813234 0.842942
v 0.70080054 4.8418226 0.8227102
v 0.6613955 4.857321 0.854207
v 0.6681883 4.8927054 0.85627776
v 0.70289594 4.8820057 0.8291173
v 0.8835553 4.7384367 0.9841542
v 0.9149848 4.7288604 0.9595813
v 0.91278255 4.684421 0.9524126
v 0.8839496 4.686424 0.9736187
v 0.8512077 4.703931 1.0007019
v 0.8575913 4.763463 1.0078272
v 0.82591736 4.7341533 1.0249126
v 0.8101399 4.773594 1.0440738
v 0.8459759 4.802182 1.0238421
v 0.8065709 4.817681 1.0553389
v 0.8133636 4.8530655 1.0574096
v 0.84807134 4.8423657 1.0302491
v 0.8835553 4.7384367 0.9841542
v 0.7383799 4.7780766 0.78302234
v 0.7698095 4.7685003 0.75844944
v 0.9149848 4.7288604 0.9595813
v 0.71241593 4.803103 0.8066953
v 0.8575913 4.763463 1.0078272
v 0.70080054 4.8418226 0.8227102
v 0.8459759 4.802182 1.0238421
v 0.70289594 4.8820057 0.8291173
v 0.84807134 4.8423657 1.0302491
v 0.8133636 4.8530655 1.0574096
v 0.8057864 4.8478208 1.0459154
v 0.67617285 4.8832116 0.86634344
v 0.6681883 4.8927054 0.85627776
v 0.84807134 4.8423657 1.0302491
v 0.8133636 4.8530655 1.0574096
v 0.6681883 4.8927054 0.85627776
v 0.70289594 4.8820057 0.8291173
v 0.6926417 4.7686386 0.82833564
v 0.68804336 4.7764387 0.83319193
v 0.8207283 4.740209 1.0170192
v 0.8253266 4.7324085 1.0121628
v 0.7153651 4.801721 0.8184541
v 0.8480501 4.7654915 1.0022813
v 0.8207283 4.740209 1.0170192
v 0.68804336 4.7764387 0.83319193
v 0.6926417 4.7686386 0.82833564
v 0.8253266 4.7324085 1.0121628
v 0.85264844 4.7576914 0.99742496
v 0.71996343 4.793921 0.8135978
v 0.91278255 4.684421 0.9524126
v 0.76760715 4.7240615 0.7512808
v 0.7702006 4.7237124 0.76704
v 0.8998141 4.6883216 0.9466119
v 0.8809147 4.70047 0.9122029
v 0.8621815 4.7030883 0.9262404
v 0.84697217 4.7421484 0.94580156
v 0.8790013 4.737209 0.92259467
v 0.82968146 4.7208195 0.95319325
v 0.8043911 4.751042 0.97740394
v 0.82059073 4.766032 0.9686656
v 0.8103441 4.8042803 0.9844847
v 0.7886137 4.7904825 0.9965652
v 0.7846443 4.8346148 1.008128
v 0.7894318 4.85692 1.0090685
v 0.816369 4.843452 0.9887411
v 0.87505984 4.702584 0.9040131
v 0.873268 4.7387743 0.9146515
v 0.84103405 4.7437696 0.93757474
v 0.85648525 4.7049336 0.91788316
v 0.82374334 4.7224407 0.9449664
v 0.79845303 4.752663 0.9691771
v 0.8146527 4.7676535 0.9604387
v 0.80440605 4.805902 0.97625786
v 0.78267556 4.792104 0.98833835
v 0.77910656 4.8361907 0.99960333
v 0.7836523 4.858272 1.0006741
v 0.8106357 4.8450174 0.98079795
v 0.85648525 4.7049336 0.91788316
v 0.8621815 4.7030883 0.9262404
v 0.8809147 4.70047 0.9122029
v 0.87505984 4.702584 0.9040131
v 0.82374334 4.7224407 0.9449664
v 0.82968146 4.7208195 0.95319325
v 0.79845303 4.752663 0.9691771
v 0.8043911 4.751042 0.97740394
v 0.78267556 4.792104 0.98833835
v 0.7886137 4.7904825 0.9965652
v 0.77910656 4.8361907 0.99960333
v 0.7846443 4.8346148 1.008128
v 0.7836523 4.858272 1.0006741
v 0.7894318 4.85692 1.0090685
v 0.84078157 4.711428 0.8566008
v 0.8220484 4.714047 0.8706384
v 0.8070438 4.753051 0.8904832
v 0.83907294 4.7481112 0.8672763
v 0.78954834 4.7317777 0.8975912
v 0.764258 4.762 0.9218019
v 0.7804576 4.7769904 0.9130635
v 0.7704158 4.8151827 0.9291663
v 0.74848056 4.8014407 0.94096315
v 0.7445112 4.845573 0.952526
v 0.7492987 4.867878 0.9534664
v 0.7764406 4.8543544 0.93342274
v 0.83513147 4.713486 0.84869474
v 0.8331349 4.749733 0.8590495
v 0.80110574 4.754672 0.8822564
v 0.8165569 4.715836 0.8625648
v 0.783815 4.733343 0.889648
v 0.7585247 4.7635655 0.9138588
v 0.77472436 4.778556 0.9051204
v 0.7644777 4.8168044 0.9209395
v 0.74274725 4.803006 0.93302
v 0.73917824 4.847093 0.944285
v 0.7437239 4.8691745 0.94535583
v 0.77050257 4.8559756 0.92519593
v 0.8165569 4.715836 0.8625648
v 0.8220484 4.714047 0.8706384
v 0.84078157 4.711428 0.8566008
v 0.83513147 4.713486 0.84869474
v 0.783815 4.733343 0.889648
v 0.78954834 4.7317777 0.8975912
v 0.7585247 4.7635655 0.9138588
v 0.764258 4.762 0.9218019
v 0.74274725 4.803006 0.93302
v 0.74848056 4.8014407 0.94096315
v 0.73917824 4.847093 0.944285
v 0.7445112 4.845573 0.952526
v 0.7437239 4.8691745 0.94535583
v 0.7492987 4.867878 0.9534664
v 0.8045389 4.721324 0.8063888
v 0.78580576 4.7239428 0.82042634
v 0.7705964 4.763003 0.83998746
v 0.80283034 4.7580075 0.8170643
v 0.7533057 4.741674 0.84737915
v 0.72801536 4.771896 0.87158984
v 0.744215 4.7868867 0.8628515
v 0.7339684 4.8251348 0.8786706
v 0.7122379 4.811337 0.8907511
v 0.7082685 4.8554688 0.90231395
v 0.713056 4.8777742 0.9032544
v 0.740198 4.8642507 0.8832107
v 0.79868406 4.7234383 0.798199
v 0.7968923 4.759629 0.8088374
v 0.7648631 4.7645683 0.8320443
v 0.78010947 4.725788 0.81206906
v 0.7473676 4.743295 0.8391523
v 0.7220773 4.7735176 0.863363
v 0.7382769 4.788508 0.8546246
v 0.72823507 4.8267 0.8707274
v 0.70629984 4.8129582 0.88252425
v 0.70273083 4.857045 0.89378923
v 0.7072765 4.8791265 0.8948601
v 0.73425996 4.865872 0.8749839
v 0.78010947 4.725788 0.81206906
v 0.78580576 4.7239428 0.82042634
v 0.8045389 4.721324 0.8063888
v 0.79868406 4.7234383 0.798199
v 0.7473676 4.743295 0.8391523
v 0.7533057 4.741674 0.84737915
v 0.7220773 4.7735176 0.863363
v 0.72801536 4.771896 0.87158984
v 0.70629984 4.8129582 0.88252425
v 0.7122379 4.811337 0.8907511
v 0.70273083 4.857045 0.89378923
v 0.7082685 4.8554688 0.90231395
v 0.7072765 4.8791265 0.8948601
v 0.713056 4.8777742 0.9032544
v 0.1427281 4.5278044 0.5652282
v 0.18773805 4.529405 0.59214765
v 0.013690983 4.2935185 0.85897404
v -0.030179517 4.293462 0.8303078
v -0.059066772 4.2724037 0.7928484
v 0.11498029 4.50829 0.526022
v 0.06014442 4.2725964 0.87077874
v 0.23760976 4.513116 0.59871185
v 0.11498029 4.50829 0.526022
v -0.059066772 4.2724037 0.7928484
v -0.06612549 4.2359514 0.7560187
v 0.111339845 4.4764705 0.48395184
v -0.04527347 4.1949244 0.73335034
v 0.13674955 4.4416203 0.45429617
v 0.17699568 4.4113793 0.43742892
v -0.009869904 4.15812 0.72390705
v -0.00328994 4.1280403 0.70160717
v 0.1864242 4.3851604 0.410762
v 0.013690983 4.2935185 0.85897404
v -0.059066772 4.2724037 0.7928484
v -0.030179517 4.293462 0.8303078
v 0.06014442 4.2725964 0.87077874
v -0.06612549 4.2359514 0.7560187
v 0.09320096 4.235111 0.8592024
v -0.04527347 4.1949244 0.73335034
v 0.11170596 4.193403 0.8344009
v -0.009869904 4.15812 0.72390705
v -0.00328994 4.1280403 0.70160717
v 0.14175616 4.1701345 0.83343184
v 0.0036214157 4.1179743 0.6972168
v 0.14866751 4.1600685 0.8290415
v 0.18773805 4.529405 0.59214765
v 0.1427281 4.5278044 0.5652282
v 0.11498029 4.50829 0.526022
v 0.111339845 4.4764705 0.48395184
v 0.23760976 4.513116 0.59871185
v 0.27522397 4.4818077 0.5801482
v 0.13674955 4.4416203 0.45429617
v 0.17699568 4.4113793 0.43742892
v 0.29857153 4.4466624 0.54792273
v 0.3314703 4.4272547 0.5425867
v 0.1864242 4.3851604 0.410762
v 0.09320096 4.235111 0.8592024
v 0.27522397 4.4818077 0.5801482
v 0.29857153 4.4466624 0.54792273
v 0.11170596 4.193403 0.8344009
v 0.23760976 4.513116 0.59871185
v 0.06014442 4.2725964 0.87077874
v 0.14175616 4.1701345 0.83343184
v 0.3314703 4.4272547 0.5425867
v 0.20769876 4.221764 0.8016119
v 0.36448932 4.452007 0.53781617
v 0.364522 4.4308076 0.5692146
v 0.2522979 4.2574944 0.77072835
v 0.3833859 4.3960013 0.636528
v 0.41519037 4.403514 0.6080141
v 0.14175616 4.1701345 0.83343184
v 0.3314703 4.4272547 0.5425867
v 0.3833859 4.3960013 0.636528
v 0.39064282 4.3854322 0.63191813
v 0.25955483 4.2469254 0.76611847
v 0.2522979 4.2574944 0.77072835
v 0.21461011 4.2116985 0.7972216
v 0.20769876 4.221764 0.8016119
v 0.41519037 4.403514 0.6080141
v 0.4224473 4.392945 0.6034042
v 0.14866751 4.1600685 0.8290415
v 0.14175616 4.1701345 0.83343184
v 0.37143338 4.420742 0.5648242
v 0.4224473 4.392945 0.6034042
v 0.41519037 4.403514 0.6080141
v 0.364522 4.4308076 0.5692146
v 0.0036214157 4.1179743 0.6972168
v 0.015113046 4.153802 0.61590934
v 0.008201695 4.163868 0.62029964
v -0.00328994 4.1280403 0.70160717
v 0.024636554 4.1914244 0.56381905
v 0.031893473 4.1808553 0.55920917
v 0.10409 4.314946 0.38269082
v 0.11134692 4.304377 0.37808096
v 0.1347021 4.3094378 0.34188798
v 0.12744518 4.320007 0.34649783
v 0.0036214157 4.1179743 0.6972168
v 0.14866751 4.1600685 0.8290415
v 0.21461011 4.2116985 0.7972216
v 0.015113046 4.153802 0.61590934
v 0.031893473 4.1808553 0.55920917
v 0.25955483 4.2469254 0.76611847
v 0.11134692 4.304377 0.37808096
v 0.39064282 4.3854322 0.63191813
v 0.37143338 4.420742 0.5648242
v 0.4224473 4.392945 0.6034042
v 0.16536464 4.360938 0.3775393
v 0.18914773 4.3884454 0.36725223
v 0.3717462 4.441438 0.5332063
v 0.1347021 4.3094378 0.34188798
v 0.008201695 4.163868 0.62029964
v 0.024636554 4.1914244 0.56381905
v 0.15845329 4.371004 0.38192967
v 0.1818908 4.3990145 0.3718621
v 0.10409 4.314946 0.38269082
v 0.12744518 4.320007 0.34649783
v 0.1864242 4.3851604 0.410762
v -0.00328994 4.1280403 0.70160717
v 0.36448932 4.452007 0.53781617
v 0.1818908 4.3990145 0.3718621
v 0.18914773 4.3884454 0.36725223
v 0.3717462 4.441438 0.5332063
v 0.3717462 4.441438 0.5332063
v 0.37143338 4.420742 0.5648242
v 0.364522 4.4308076 0.5692146
v 0.36448932 4.452007 0.53781617
v 0.15845329 4.371004 0.38192967
v 0.16536464 4.360938 0.3775393
v 0.18914773 4.3884454 0.36725223
v 0.1818908 4.3990145 0.3718621
v 0.12744518 4.320007 0.34649783
v 0.1347021 4.3094378 0.34188798
v 0.16536464 4.360938 0.3775393
v 0.15845329 4.371004 0.38192967
v 0.1864242 4.3851604 0.410762
v 0.1818908 4.3990145 0.3718621
v 0.36448932 4.452007 0.53781617
v 0.3314703 4.4272547 0.5425867
vt 0.3631541 0.4256243
vt 0.41000676 0.4256243
vt 0.402198 0.054707486
vt 0.35534534 0.054707486
vt 0.3045883 0.054707486
vt 0.3045883 0.42952868
vt 0.452955 0.054707486
vt 0.4568594 0.42952868
vt 0.3045883 0.42952868
vt 0.3045883 0.054707486
vt 0.25773564 0.054707486
vt 0.25773564 0.4334331
vt 0.21088299 0.054707486
vt 0.21088299 0.44514623
vt 0.16793473 0.452955
vt 0.16012596 0.054707486
vt 0.12889084 0.054707486
vt 0.13279523 0.46076378
vt 0.12498646 0.9839517
vt 0.058611874 0.9839517
vt 0.089846976 0.9917605
vt 0.14841278 0.956621
vt 0.03128116 0.956621
vt 0.15231717 0.9253859
vt 0.027376773 0.9253859
vt 0.14450839 0.8902464
vt 0.03518555 0.8902464
vt 0.023472385 0.8668201
vt 0.15622155 0.8668201
vt 0.023472385 0.8590113
vt 0.15622155 0.8590113
vt 0.6091305 0.9878561
vt 0.64427 0.9995693
vt 0.6833139 0.9878561
vt 0.7106446 0.9605254
vt 0.5817998 0.9605254
vt 0.573991 0.9214815
vt 0.71845335 0.9214815
vt 0.7106446 0.88243765
vt 0.5817998 0.88243765
vt 0.57008666 0.8590113
vt 0.72235775 0.8590113
vt 0.49980766 0.054707486
vt 0.49980766 0.44124186
vt 0.5466603 0.44905064
vt 0.5466603 0.054707486
vt 0.4568594 0.42952868
vt 0.452955 0.054707486
vt 0.5817998 0.054707486
vt 0.5817998 0.4568594
vt 0.6169393 0.13279523
vt 0.6052261 0.4841901
vt 0.62084365 0.452955
vt 0.6364612 0.19136105
vt 0.66769636 0.402198
vt 0.6833139 0.4334331
vt 0.5817998 0.054707486
vt 0.5817998 0.4568594
vt 0.66769636 0.402198
vt 0.6794095 0.39829358
vt 0.6481744 0.18745667
vt 0.6364612 0.19136105
vt 0.62865245 0.12889084
vt 0.6169393 0.13279523
vt 0.6833139 0.4334331
vt 0.69112265 0.44124186
vt 0.59351295 0.054707486
vt 0.5817998 0.054707486
vt 0.63255686 0.46466818
vt 0.69112265 0.44124186
vt 0.6833139 0.4334331
vt 0.62084365 0.452955
vt 0.11717769 0.054707486
vt 0.0820382 0.13669962
vt 0.09375136 0.140604
vt 0.12889084 0.054707486
vt 0.07422942 0.19526544
vt 0.06251626 0.19526544
vt 0.042994324 0.40610236
vt 0.03128116 0.40610236
vt 0.019567998 0.44905064
vt 0.03128116 0.44124186
vt 0.7457841 0.41000676
vt 0.9019596 0.41000676
vt 0.9331947 0.34753656
vt 0.714549 0.34753656
vt 0.69893146 0.2967795
vt 0.94881225 0.2967795
vt 0.6755051 0.11717769
vt 0.97614294 0.11717769
vt 0.9331947 0.07032503
vt 0.9878561 0.08594259
vt 0.714549 0.07032503
vt 0.72626215 0.042994324
vt 0.9214815 0.042994324
vt 0.66379195 0.08594259
vt 0.09375136 0.140604
vt 0.07422942 0.19526544
vt 0.09375136 0.46076378
vt 0.10936891 0.4841901
vt 0.042994324 0.40610236
vt 0.03128116 0.44124186
vt 0.13279523 0.46076378
vt 0.12889084 0.054707486
vt 0.6052261 0.4841901
vt 0.10936891 0.4841901
vt 0.10156014 0.5115208
vt 0.6052261 0.5115208
vt 0.6052261 0.5115208
vt 0.63255686 0.46466818
vt 0.62084365 0.452955
vt 0.6052261 0.4841901
vt 0.09375136 0.46076378
vt 0.0820382 0.46857256
vt 0.10156014 0.5115208
vt 0.10936891 0.4841901
vt 0.03128116 0.44124186
vt 0.019567998 0.44905064
vt 0.0820382 0.46857256
vt 0.09375136 0.46076378
vt 0.72235775 0.8590113
vt 0.7418797 0.835585
vt 0.5505647 0.835585
vt 0.57008666 0.8590113
vt 0.369647 0.6458788
vt 0.36186582 0.9337824
vt 0.4124435 0.91043884
vt 0.4124435 0.6770035
vt 0.46302113 0.86375177
vt 0.45523995 0.72369057
vt 0.38520935 0.56417644
vt 0.31128818 0.6458788
vt 0.31517878 0.9337824
vt 0.29183525 0.56417644
vt 0.2723823 0.5252706
vt 0.4046623 0.5252706
vt 0.2646011 0.6770035
vt 0.65366 0.6770035
vt 0.65366 0.70423764
vt 0.45523995 0.7120188
vt 0.6653318 0.6653318
vt 0.2646011 0.6770035
vt 0.31517878 0.9337824
vt 0.31128818 0.6458788
vt 0.2646011 0.91043884
vt 0.22569522 0.72369057
vt 0.29183525 0.56417644
vt 0.21402346 0.86375177
vt 0.023384616 0.70423764
vt 0.019494027 0.6770035
vt 0.22180463 0.7120188
vt 0.011712849 0.6653318
vt 0.40855289 0.5174894
vt 0.26849172 0.5174894
vt 0.2723823 0.5252706
vt 0.4046623 0.5252706
vt 0.019494027 0.6770035
vt 0.011712849 0.6653318
vt 0.019494027 0.7159094
vt 0.023384616 0.70423764
vt 0.20624228 0.86764234
vt 0.21402346 0.86375177
vt 0.25681993 0.9143294
vt 0.2646011 0.91043884
vt 0.31128818 0.94156355
vt 0.31517878 0.9337824
vt 0.26849172 0.5174894
vt 0.28405407 0.56417644
vt 0.29183525 0.56417644
vt 0.2723823 0.5252706
vt 0.38520935 0.56417644
vt 0.39688113 0.56417644
vt 0.40855289 0.5174894
vt 0.4046623 0.5252706
vt 0.6847847 0.7976118
vt 0.7081282 0.78594
vt 0.7081282 0.7198
vt 0.6847847 0.7081282
vt 0.8209553 0.8209553
vt 0.8209553 0.6847847
vt 0.66144115 0.7159094
vt 0.6653318 0.6653318
vt 0.65366 0.6770035
vt 0.65366 0.70423764
vt 0.4746929 0.86764234
vt 0.46302113 0.86375177
vt 0.42022467 0.9143294
vt 0.4124435 0.91043884
vt 0.36575642 0.94156355
vt 0.36186582 0.9337824
vt 0.31128818 0.94156355
vt 0.31517878 0.9337824
vt 0.45523995 0.7120188
vt 0.39688113 0.56417644
vt 0.38520935 0.56417644
vt 0.45523995 0.72369057
vt 0.29183525 0.56417644
vt 0.28405407 0.56417644
vt 0.22180463 0.7120188
vt 0.22569522 0.72369057
vt 0.8053929 0.9649071
vt 0.92989177 0.83651763
vt 0.8209553 0.8209553
vt 0.8053929 0.9649071
vt 0.8209553 0.8209553
vt 0.77815884 0.9687977
vt 0.8209553 0.8209553
vt 0.92989177 0.83651763
vt 0.9610165 0.80150235
vt 0.98436004 0.76648706
vt 0.8209553 0.6847847
vt 0.98436004 0.73536235
vt 0.9610165 0.70034707
vt 0.9260012 0.66922235
vt 0.8209553 0.6847847
vt 0.9260012 0.66922235
vt 0.8053929 0.54083294
vt 0.8209553 0.6847847
vt 0.8053929 0.54083294
vt 0.7742682 0.5369423
vt 0.8016762 0.478595
vt 0.8016762 0.9495929
vt 0.8873122 0.9495929
vt 0.8873122 0.478595
vt 0.050415084 0.47470245
vt 0.11658835 0.47470245
vt 0.11658835 0.4007441
vt 0.050415084 0.42799193
vt 0.050415084 0.3734963
vt 0.050415084 0.30732304
vt 0.11658835 0.30732304
vt 0.11658835 0.19054669
vt 0.050415084 0.22557959
vt 0.050415084 0.15162125
vt 0.050415084 0.10491071
vt 0.11658835 0.10491071
vt 0.6537595 0.3657112
vt 0.6537595 0.45523974
vt 0.7199328 0.45523974
vt 0.7199328 0.40463665
vt 0.7199328 0.32678574
vt 0.7199328 0.25671995
vt 0.6537595 0.25671995
vt 0.6537595 0.17497651
vt 0.7199328 0.19833179
vt 0.7199328 0.1477287
vt 0.7199328 0.09323308
vt 0.6537595 0.09323308
vt 0.09323308 0.5058428
vt 0.0075970925 0.5058428
vt 0.0075970925 0.9807333
vt 0.09323308 0.9807333
vt 0.18665415 0.5058428
vt 0.09323308 0.5058428
vt 0.09323308 0.9807333
vt 0.18665415 0.9807333
vt 0.27618268 0.9807333
vt 0.27618268 0.5058428
vt 0.36181867 0.9807333
vt 0.36181867 0.5058428
vt 0.43966955 0.05430763
vt 0.43966955 0.46302482
vt 0.5136279 0.46302482
vt 0.5136279 0.05430763
vt 0.90288234 0.44745463
vt 0.90288234 0.96905565
vt 0.99630344 0.96905565
vt 0.99630344 0.44745463
vt 0.050415084 0.47470245
vt 0.050415084 0.42799193
vt 0.027059816 0.42799193
vt 0.027059816 0.47470245
vt 0.027059816 0.3734963
vt 0.050415084 0.3734963
vt 0.027059816 0.30732304
vt 0.050415084 0.30732304
vt 0.027059816 0.22557959
vt 0.050415084 0.22557959
vt 0.050415084 0.15162125
vt 0.027059816 0.15162125
vt 0.050415084 0.10491071
vt 0.027059816 0.10491071
vt 0.7393955 0.40463665
vt 0.7199328 0.40463665
vt 0.7199328 0.45523974
vt 0.7393955 0.45523974
vt 0.7199328 0.32678574
vt 0.7393955 0.32678574
vt 0.7393955 0.25671995
vt 0.7199328 0.25671995
vt 0.7393955 0.19833179
vt 0.7199328 0.19833179
vt 0.7393955 0.1477287
vt 0.7199328 0.1477287
vt 0.7199328 0.09323308
vt 0.7393955 0.09323308
vt 0.8094613 0.34235594
vt 0.7393955 0.40463665
vt 0.7393955 0.45523974
vt 0.8094613 0.41631427
vt 0.7393955 0.32678574
vt 0.8094613 0.2683976
vt 0.7393955 0.25671995
vt 0.7393955 0.19833179
vt 0.8094613 0.19833179
vt 0.7393955 0.1477287
vt 0.7393955 0.09323308
vt 0.8094613 0.13605107
vt 0.8873122 0.32678574
vt 0.84838676 0.37738883
vt 0.8912047 0.435777
vt 0.9340227 0.39685157
vt 0.96516305 0.33457085
vt 0.90677494 0.2606125
vt 0.97684073 0.2606125
vt 0.96516305 0.19054669
vt 0.8873122 0.19833179
vt 0.9340227 0.12826598
vt 0.8912047 0.08934053
vt 0.84838676 0.1477287
vt 0.35014102 0.07377035
vt 0.35014102 0.4708099
vt 0.41242173 0.4708099
vt 0.41242173 0.07377035
vt 0.28396776 0.4708099
vt 0.28396776 0.07377035
vt 0.21390197 0.4708099
vt 0.21390197 0.07377035
vt 0.15162125 0.4708099
vt 0.15162125 0.07377035
vt 0.52919805 0.042629994
vt 0.5136279 0.05430763
vt 0.5136279 0.46302482
vt 0.52919805 0.49805772
vt 0.6109415 0.042629994
vt 0.52919805 0.042629994
vt 0.52919805 0.49805772
vt 0.6109415 0.49805772
vt 0.69268495 0.96516305
vt 0.71214765 0.96516305
vt 0.71214765 0.5175204
vt 0.69268495 0.5175204
vt 0.7899986 0.96516305
vt 0.7899986 0.5175204
vt 0.71214765 0.5175204
vt 0.71214765 0.96516305
vt 0.69268495 0.96516305
vt 0.69268495 0.5175204
vt 0.6148341 0.5175204
vt 0.6148341 0.96516305
vt 0.90288234 0.96905565
vt 0.90288234 0.44745463
vt 0.8873122 0.478595
vt 0.8873122 0.9495929
vt 0.5681235 0.52919805
vt 0.53309065 0.564231
vt 0.5486608 0.6615446
vt 0.60315645 0.5992639
vt 0.4863801 0.64986694
vt 0.47470245 0.7471806
vt 0.5253055 0.7471806
vt 0.5486608 0.83281654
vt 0.4863801 0.8444942
vt 0.53309065 0.9301302
vt 0.5681235 0.9612705
vt 0.60315645 0.89509726
vt 0.47470245 0.9729482
vt 0.5136279 0.8989898
vt 0.45134717 0.83281654
vt 0.435777 0.9340227
vt 0.38906646 0.8444942
vt 0.36960375 0.7393955
vt 0.42799193 0.7393955
vt 0.45134717 0.6459744
vt 0.38906646 0.6342968
vt 0.43966955 0.5447683
vt 0.47470245 0.5058428
vt 0.5136279 0.57980114
vt 0.5486608 0.0075970925
vt 0.5486608 0.034844905
vt 0.60315645 0.034844905
vt 0.60315645 0.0075970925
vt 0.43966955 0.0075970925
vt 0.43966955 0.034844905
vt 0.3228932 0.0075970925
vt 0.3228932 0.034844905
vt 0.20611687 0.0075970925
vt 0.20611687 0.034844905
vt 0.09712562 0.0075970925
vt 0.09712562 0.034844905
vt 0.042629994 0.0075970925
vt 0.042629994 0.034844905
vt 0.5681235 0.52919805
vt 0.53309065 0.564231
vt 0.5486608 0.6615446
vt 0.60315645 0.5992639
vt 0.4863801 0.64986694
vt 0.47470245 0.7471806
vt 0.5253055 0.7471806
vt 0.5486608 0.83281654
vt 0.4863801 0.8444942
vt 0.53309065 0.9301302
vt 0.5681235 0.9612705
vt 0.60315645 0.89509726
vt 0.47470245 0.9729482
vt 0.5136279 0.8989898
vt 0.45134717 0.83281654
vt 0.435777 0.9340227
vt 0.38906646 0.8444942
vt 0.36960375 0.7393955
vt 0.42799193 0.7393955
vt 0.45134717 0.6459744
vt 0.38906646 0.6342968
vt 0.43966955 0.5447683
vt 0.47470245 0.5058428
vt 0.5136279 0.57980114
vt 0.5486608 0.0075970925
vt 0.5486608 0.034844905
vt 0.60315645 0.034844905
vt 0.60315645 0.0075970925
vt 0.43966955 0.0075970925
vt 0.43966955 0.034844905
vt 0.3228932 0.0075970925
vt 0.3228932 0.034844905
vt 0.20611687 0.0075970925
vt 0.20611687 0.034844905
vt 0.09712562 0.0075970925
vt 0.09712562 0.034844905
vt 0.042629994 0.0075970925
vt 0.042629994 0.034844905
vt 0.5681235 0.52919805
vt 0.53309065 0.564231
vt 0.5486608 0.6615446
vt 0.60315645 0.5992639
vt 0.4863801 0.64986694
vt 0.47470245 0.7471806
vt 0.5253055 0.7471806
vt 0.5486608 0.83281654
vt 0.4863801 0.8444942
vt 0.53309065 0.9301302
vt 0.5681235 0.9612705
vt 0.60315645 0.89509726
vt 0.47470245 0.9729482
vt 0.5136279 0.8989898
vt 0.45134717 0.83281654
vt 0.435777 0.9340227
vt 0.38906646 0.8444942
vt 0.36960375 0.7393955
vt 0.42799193 0.7393955
vt 0.45134717 0.6459744
vt 0.38906646 0.6342968
vt 0.43966955 0.5447683
vt 0.47470245 0.5058428
vt 0.5136279 0.57980114
vt 0.5486608 0.0075970925
vt 0.5486608 0.034844905
vt 0.60315645 0.034844905
vt 0.60315645 0.0075970925
vt 0.43966955 0.0075970925
vt 0.43966955 0.034844905
vt 0.3228932 0.0075970925
vt 0.3228932 0.034844905
vt 0.20611687 0.0075970925
vt 0.20611687 0.034844905
vt 0.09712562 0.0075970925
vt 0.09712562 0.034844905
vt 0.042629994 0.0075970925
vt 0.042629994 0.034844905
vt 0.3631541 0.4256243
vt 0.41000676 0.4256243
vt 0.402198 0.054707486
vt 0.35534534 0.054707486
vt 0.3045883 0.054707486
vt 0.3045883 0.42952868
vt 0.452955 0.054707486
vt 0.4568594 0.42952868
vt 0.3045883 0.42952868
vt 0.3045883 0.054707486
vt 0.25773564 0.054707486
vt 0.25773564 0.4334331
vt 0.21088299 0.054707486
vt 0.21088299 0.44514623
vt 0.16793473 0.452955
vt 0.16012596 0.054707486
vt 0.12889084 0.054707486
vt 0.13279523 0.46076378
vt 0.12498646 0.9839517
vt 0.058611874 0.9839517
vt 0.089846976 0.9917605
vt 0.14841278 0.956621
vt 0.03128116 0.956621
vt 0.15231717 0.9253859
vt 0.027376773 0.9253859
vt 0.14450839 0.8902464
vt 0.03518555 0.8902464
vt 0.023472385 0.8668201
vt 0.15622155 0.8668201
vt 0.023472385 0.8590113
vt 0.15622155 0.8590113
vt 0.6091305 0.9878561
vt 0.64427 0.9995693
vt 0.6833139 0.9878561
vt 0.7106446 0.9605254
vt 0.5817998 0.9605254
vt 0.573991 0.9214815
vt 0.71845335 0.9214815
vt 0.7106446 0.88243765
vt 0.5817998 0.88243765
vt 0.57008666 0.8590113
vt 0.72235775 0.8590113
vt 0.49980766 0.054707486
vt 0.49980766 0.44124186
vt 0.5466603 0.44905064
vt 0.5466603 0.054707486
vt 0.4568594 0.42952868
vt 0.452955 0.054707486
vt 0.5817998 0.054707486
vt 0.5817998 0.4568594
vt 0.6169393 0.13279523
vt 0.6052261 0.4841901
vt 0.62084365 0.452955
vt 0.6364612 0.19136105
vt 0.66769636 0.402198
vt 0.6833139 0.4334331
vt 0.5817998 0.054707486
vt 0.5817998 0.4568594
vt 0.66769636 0.402198
vt 0.6794095 0.39829358
vt 0.6481744 0.18745667
vt 0.6364612 0.19136105
vt 0.62865245 0.12889084
vt 0.6169393 0.13279523
vt 0.6833139 0.4334331
vt 0.69112265 0.44124186
vt 0.59351295 0.054707486
vt 0.5817998 0.054707486
vt 0.63255686 0.46466818
vt 0.69112265 0.44124186
vt 0.6833139 0.4334331
vt 0.62084365 0.452955
vt 0.11717769 0.054707486
vt 0.0820382 0.13669962
vt 0.09375136 0.140604
vt 0.12889084 0.054707486
vt 0.07422942 0.19526544
vt 0.06251626 0.19526544
vt 0.042994324 0.40610236
vt 0.03128116 0.40610236
vt 0.019567998 0.44905064
vt 0.03128116 0.44124186
vt 0.7457841 0.41000676
vt 0.9019596 0.41000676
vt 0.9331947 0.34753656
vt 0.714549 0.34753656
vt 0.69893146 0.2967795
vt 0.94881225 0.2967795
vt 0.6755051 0.11717769
vt 0.97614294 0.11717769
vt 0.9331947 0.07032503
vt 0.9878561 0.08594259
vt 0.714549 0.07032503
vt 0.72626215 0.042994324
vt 0.9214815 0.042994324
vt 0.66379195 0.08594259
vt 0.09375136 0.140604
vt 0.07422942 0.19526544
vt 0.09375136 0.46076378
vt 0.10936891 0.4841901
vt 0.042994324 0.40610236
vt 0.03128116 0.44124186
vt 0.13279523 0.46076378
vt 0.12889084 0.054707486
vt 0.6052261 0.4841901
vt 0.10936891 0.4841901
vt 0.10156014 0.5115208
vt 0.6052261 0.5115208
vt 0.6052261 0.5115208
vt 0.63255686 0.46466818
vt 0.62084365 0.452955
vt 0.6052261 0.4841901
vt 0.09375136 0.46076378
vt 0.0820382 0.46857256
vt 0.10156014 0.5115208
vt 0.10936891 0.4841901
vt 0.03128116 0.44124186
vt 0.019567998 0.44905064
vt 0.0820382 0.46857256
vt 0.09375136 0.46076378
vt 0.72235775 0.8590113
vt 0.7418797 0.835585
vt 0.5505647 0.835585
vt 0.57008666 0.8590113
vn -0.62631464 0.62551546 0.4652531
vn -0.14406808 0.64748895 0.74833316
vn -0.17864458 0.65237683 0.73653954
vn -0.62631464 0.62551546 0.4652531
vn -0.89069134 0.44573182 0.0893981
vn -0.9020534 0.42751193 0.059440568
vn 0.3956427 0.4646131 0.7922131
vn 0.3956427 0.4646131 0.7922131
vn -0.9020534 0.42751193 0.059440568
vn -0.89069134 0.44573182 0.0893981
vn -0.9136052 0.08465275 -0.39769268
vn -0.9136052 0.08465275 -0.39769268
vn -0.7186179 -0.1979141 -0.666647
vn -0.7186179 -0.1979141 -0.666647
vn -0.72826344 -0.2219892 -0.6483464
vn -0.72826344 -0.2219892 -0.6483464
vn -0.9542887 0.18005848 -0.23856235
vn -0.84591395 0.48559856 0.22050774
vn -0.31531638 -0.76169837 0.5660311
vn -0.31531638 -0.76169837 0.5660311
vn -0.31531638 -0.76169837 0.5660311
vn -0.31531638 -0.76169837 0.5660311
vn -0.31531638 -0.76169837 0.5660311
vn -0.31531638 -0.76169837 0.5660311
vn -0.31531638 -0.76169837 0.5660311
vn -0.31531638 -0.76169837 0.5660311
vn -0.31531638 -0.76169837 0.5660311
vn -0.31531638 -0.76169837 0.5660311
vn -0.31531638 -0.76169837 0.5660311
vn -0.31531638 -0.76169837 0.5660311
vn -0.31531638 -0.76169837 0.5660311
vn 0.1281198 0.8849608 -0.44769374
vn 0.1281198 0.8849608 -0.44769374
vn 0.1281198 0.8849608 -0.44769374
vn 0.1281198 0.8849608 -0.44769374
vn 0.1281198 0.8849608 -0.44769374
vn 0.1281198 0.8849608 -0.44769374
vn 0.1281198 0.8849608 -0.44769374
vn 0.1281198 0.8849608 -0.44769374
vn 0.1281198 0.8849608 -0.44769374
vn 0.1281198 0.8849608 -0.44769374
vn 0.1281198 0.8849608 -0.44769374
vn 0.72826344 0.2219892 0.6483464
vn 0.72826344 0.2219892 0.6483464
vn 0.7186179 0.1979141 0.666647
vn 0.7186179 0.1979141 0.666647
vn 0.3956427 0.4646131 0.7922131
vn 0.3956427 0.4646131 0.7922131
vn 0.2171435 0.520023 0.82609004
vn -0.3176212 0.63891584 0.70064497
vn -0.5403241 0.6243582 0.56411594
vn -0.5403241 0.6243582 0.56411594
vn -0.33827877 0.66362935 0.6672058
vn -0.34792545 0.6395512 0.6855086
vn -0.3678372 0.66352236 0.6514859
vn 0.06908706 0.8311774 0.5516984
vn 0.2171435 0.520023 0.82609004
vn -0.3176212 0.63891584 0.70064497
vn 0.673286 0.10060506 0.7325057
vn 0.673286 0.10060506 0.7325057
vn 0.7583771 -0.039480276 0.65061927
vn 0.7583771 -0.039480276 0.65061927
vn 0.56375176 -0.07984111 0.82207626
vn 0.56375176 -0.07984111 0.82207626
vn 0.673286 0.10060506 0.7325057
vn 0.673286 0.10060506 0.7325057
vn 0.52379984 -0.13492179 0.84108853
vn 0.52379984 -0.13492179 0.84108853
vn 0.593203 0.7131597 -0.3735151
vn 0.593203 0.7131597 -0.3735151
vn 0.593203 0.7131597 -0.3735151
vn 0.593203 0.7131597 -0.3735151
vn -0.78396636 -0.5144521 -0.34747055
vn -0.784489 -0.47111765 -0.403268
vn -0.784489 -0.47111765 -0.403268
vn -0.78396636 -0.5144521 -0.34747055
vn -0.642748 -0.44610453 -0.62278867
vn -0.642748 -0.44610453 -0.62278867
vn -0.7592339 -0.31513038 -0.5694355
vn -0.7592339 -0.31513038 -0.5694355
vn -0.7592339 -0.31513038 -0.5694355
vn -0.7592339 -0.31513038 -0.5694355
vn 0.58217466 -0.678469 -0.44805408
vn 0.58217466 -0.678469 -0.44805408
vn 0.570645 -0.7006728 -0.4282779
vn 0.570645 -0.7006728 -0.4282779
vn 0.59307355 -0.6556373 -0.46733668
vn 0.59307355 -0.6556373 -0.46733668
vn 0.62631464 -0.62551546 -0.4652531
vn 0.6033454 -0.6321814 -0.48612866
vn 0.6627703 -0.4218891 -0.618664
vn -0.06908706 -0.8311774 -0.5516984
vn 0.68573946 -0.41522315 -0.5977885
vn 0.6517815 -0.47831193 -0.58855635
vn 0.6517815 -0.47831193 -0.58855635
vn 0.7807754 -0.5845365 0.2206964
vn -0.7011088 0.57769644 0.4179872
vn -0.8302797 0.4995659 0.24712251
vn -0.820633 0.523644 0.22881965
vn -0.7011088 0.57769644 0.4179872
vn -0.804253 0.53686893 0.25485086
vn -0.7807754 0.5845365 -0.2206964
vn -0.84591395 0.48559856 0.22050774
vn -0.9542887 0.18005848 -0.23856235
vn 0.29235 0.75503325 -0.586904
vn 0.29235 0.75503325 -0.586904
vn 0.29235 0.75503325 -0.586904
vn 0.29235 0.75503325 -0.586904
vn 0.78396636 0.5144521 0.34747055
vn 0.78396636 0.5144521 0.34747055
vn 0.78396636 0.5144521 0.34747055
vn 0.78396636 0.5144521 0.34747055
vn -0.52379984 0.13492179 -0.84108853
vn -0.52379984 0.13492179 -0.84108853
vn -0.52379984 0.13492179 -0.84108853
vn -0.52379984 0.13492179 -0.84108853
vn 0.11084842 0.57317424 -0.8119014
vn 0.11084842 0.57317424 -0.8119014
vn 0.11084842 0.57317424 -0.8119014
vn 0.11084842 0.57317424 -0.8119014
vn -0.84591395 0.48559856 0.22050774
vn -0.7011088 0.57769644 0.4179872
vn -0.5403241 0.6243582 0.56411594
vn -0.3176212 0.63891584 0.70064497
vn 0.4177344 0.67313594 -0.6102344
vn 0.5454487 0.7206509 -0.4279579
vn 0.7898653 0.46695152 -0.39757898
vn 0.69959956 0.4910186 -0.51909643
vn 0.94559705 0.10926857 -0.30644178
vn 0.97426724 0.16407095 -0.15454477
vn 0.3547371 0.6182539 -0.70137274
vn 0.30987248 0.7291043 -0.6102343
vn 0.27584743 0.8606743 -0.42795777
vn 0.30079582 0.64621836 -0.7013727
vn 0.3280667 0.63281 -0.70137274
vn 0.3280667 0.63281 -0.70137274
vn -0.0015546326 0.85471433 -0.5190963
vn 0.9575232 0.197601 0.2100077
vn 0.9709486 -0.104416974 -0.21530434
vn 0.842081 0.37015218 0.3922842
vn 0.842081 0.37015218 0.3922842
vn -0.0015546326 0.85471433 -0.5190963
vn 0.27584743 0.8606743 -0.42795777
vn 0.30987248 0.7291043 -0.6102343
vn -0.0730527 0.9146554 -0.39757878
vn -0.42875087 0.89010596 -0.15454447
vn 0.30079582 0.64621836 -0.7013727
vn -0.45780432 0.834571 -0.30644152
vn -0.65053064 0.7283228 -0.21530405
vn -0.3914193 0.8959283 0.21000794
vn -0.18279204 0.90149873 0.39228442
vn -0.18279204 0.90149873 0.39228442
vn 0.0050458866 0.015361089 0.9998693
vn 0.0050458866 0.015361089 0.9998693
vn 0.0050458866 0.015361089 0.9998693
vn 0.0050458866 0.015361089 0.9998693
vn -0.8473139 -0.49979445 0.17962359
vn -0.8473139 -0.49979445 0.17962359
vn -0.88460076 -0.43999538 -0.15454924
vn -0.8870461 -0.44466949 -0.1241699
vn -0.8260258 -0.32803002 -0.45834246
vn -0.8260258 -0.32803002 -0.45834246
vn -0.76571566 -0.27828455 -0.5798597
vn -0.70757866 -0.298229 -0.6406183
vn -0.40241614 -0.23920521 -0.88365275
vn -0.40241614 -0.23920521 -0.88365275
vn -0.88979554 0.27097255 -0.36720264
vn -0.88979554 0.27097255 -0.36720264
vn -0.88979554 0.27097255 -0.36720264
vn -0.88979554 0.27097255 -0.36720264
vn 0.71322215 -0.5970562 -0.3672031
vn 0.71322215 -0.5970562 -0.3672031
vn 0.71322215 -0.5970562 -0.3672031
vn 0.71322215 -0.5970562 -0.3672031
vn -0.33516204 -0.6349399 0.69607306
vn -0.32090575 -0.60768926 0.72645247
vn -0.32090575 -0.60768926 0.72645247
vn -0.33516204 -0.6349399 0.69607306
vn -0.77866066 -0.4341013 0.45303816
vn 0.08112513 -0.88779235 0.45303798
vn 0.13652384 -0.9785069 -0.15454948
vn 0.10229292 -0.9784026 0.17962344
vn 0.10229292 -0.9784026 0.17962344
vn 0.13409008 -0.983159 -0.12417013
vn 0.1947693 -0.86717176 -0.45834267
vn 0.1947693 -0.86717176 -0.45834267
vn 0.20111656 -0.78950274 -0.57985985
vn 0.15179615 -0.75270563 -0.6406185
vn 0.026783507 -0.46737608 -0.8836528
vn 0.026783507 -0.46737608 -0.8836528
vn -0.40241614 -0.23920521 -0.88365275
vn -0.40241614 -0.23920521 -0.88365275
vn 0.70759475 -0.54227716 0.45303994
vn 0.70759475 -0.54227716 0.45303994
vn 0.70759475 -0.54227716 0.45303994
vn 0.70759475 -0.54227716 0.45303994
vn -0.83765763 0.3050967 0.45304042
vn -0.83765763 0.3050967 0.45304042
vn -0.83765763 0.3050967 0.45304042
vn -0.83765763 0.3050967 0.45304042
vn -0.9707722 0.116186984 0.21000473
vn -0.96264577 0.0006481656 0.2707631
vn -0.77866066 -0.4341013 0.45303816
vn -0.9707722 0.116186984 0.21000473
vn -0.77866066 -0.4341013 0.45303816
vn -0.9707722 0.116186984 0.21000473
vn -0.77866066 -0.4341013 0.45303816
vn -0.96264577 0.0006481656 0.2707631
vn -0.8521531 -0.3779725 0.36190012
vn -0.5482908 -0.7801869 0.3011406
vn 0.08112513 -0.88779235 0.45303798
vn -0.3043424 -0.90370905 0.30114052
vn 0.20722885 -0.908892 0.3619
vn 0.5956715 -0.7562162 0.27076295
vn 0.08112513 -0.88779235 0.45303798
vn 0.5956715 -0.7562162 0.27076295
vn 0.63799536 -0.7408509 0.2100043
vn 0.08112513 -0.88779235 0.45303798
vn 0.63799536 -0.7408509 0.2100043
vn 0.63799536 -0.7408509 0.2100043
vn -0.82481414 -0.13767608 0.54838586
vn -0.82481414 -0.13767608 0.54838586
vn -0.82481414 -0.13767608 0.54838586
vn -0.82481414 -0.13767608 0.54838586
vn -0.5849583 0.16983204 -0.79308313
vn -0.5849583 0.16983204 -0.79308313
vn -0.5849583 0.16983204 -0.79308313
vn -0.5849583 0.16983204 -0.79308313
vn -0.5707526 0.1457349 -0.8080859
vn -0.5707526 0.1457349 -0.8080859
vn -0.5707526 0.1457349 -0.8080859
vn -0.5707526 0.1457349 -0.8080859
vn -0.5849583 0.16983204 -0.79308313
vn -0.5707526 0.1457349 -0.8080859
vn -0.5707526 0.1457349 -0.8080859
vn -0.5707526 0.1457349 -0.8080859
vn 0.5707526 -0.1457349 0.8080859
vn 0.5707526 -0.1457349 0.8080859
vn 0.5707526 -0.1457349 0.8080859
vn 0.5707526 -0.1457349 0.8080859
vn 0.5849583 -0.16983204 0.79308313
vn 0.5849583 -0.16983204 0.79308313
vn 0.5849583 -0.16983204 0.79308313
vn 0.5849583 -0.16983204 0.79308313
vn 0.5707526 -0.1457349 0.8080859
vn 0.5849583 -0.16983204 0.79308313
vn 0.5849583 -0.16983204 0.79308313
vn 0.5849583 -0.16983204 0.79308313
vn -0.3829536 -0.9207072 0.07513054
vn -0.20234689 -0.9770645 -0.06633713
vn -0.20234689 -0.9770645 -0.06633713
vn -0.3829536 -0.9207072 0.07513054
vn -0.6843273 -0.64087784 0.34780985
vn -0.3829536 -0.9207072 0.07513054
vn -0.3829536 -0.9207072 0.07513054
vn -0.6843273 -0.64087784 0.34780985
vn -0.82338643 -0.17360225 0.54027486
vn -0.82338643 -0.17360225 0.54027486
vn -0.81326985 0.059242412 0.578863
vn -0.81326985 0.059242412 0.578863
vn -0.3559662 -0.9329815 0.053232156
vn -0.3559662 -0.9329815 0.053232156
vn -0.3559662 -0.9329815 0.053232156
vn -0.3559662 -0.9329815 0.053232156
vn 0.805896 0.06766276 -0.58817804
vn 0.805896 0.06766276 -0.58817804
vn 0.805896 0.06766276 -0.58817804
vn 0.805896 0.06766276 -0.58817804
vn -0.16318858 -0.9713492 -0.17277198
vn -0.29856497 -0.9543592 0.0075871935
vn -0.29856497 -0.9543592 0.0075871935
vn -0.16318858 -0.9713492 -0.17277198
vn -0.52476656 -0.8284519 0.19567214
vn -0.52476656 -0.8284519 0.19567214
vn -0.6843273 -0.64087784 0.34780985
vn -0.6843273 -0.64087784 0.34780985
vn -0.79470927 -0.37054873 0.4807606
vn -0.79470927 -0.37054873 0.4807606
vn -0.8242429 -0.06265314 0.56275946
vn -0.8242429 -0.06265314 0.56275946
vn -0.8242429 -0.06265314 0.56275946
vn -0.8220588 -0.023384877 0.5689222
vn -0.28021806 -0.95936877 0.033005774
vn -0.28021806 -0.95936877 0.033005774
vn -0.091876544 -0.9933084 -0.06997804
vn -0.091876544 -0.9933084 -0.06997804
vn -0.52476656 -0.8284519 0.19567214
vn -0.52476656 -0.8284519 0.19567214
vn -0.6843273 -0.64087784 0.34780985
vn -0.6843273 -0.64087784 0.34780985
vn -0.79470927 -0.37054873 0.4807606
vn -0.79470927 -0.37054873 0.4807606
vn -0.805896 -0.06766276 0.58817804
vn -0.805896 -0.06766276 0.58817804
vn -0.805896 -0.06766276 0.58817804
vn -0.80010504 0.0121903205 0.5997361
vn -0.5707526 0.1457349 -0.8080859
vn -0.5707526 0.1457349 -0.8080859
vn -0.5707526 0.1457349 -0.8080859
vn -0.5707526 0.1457349 -0.8080859
vn -0.5707526 0.1457349 -0.8080859
vn -0.5707526 0.1457349 -0.8080859
vn -0.5707526 0.1457349 -0.8080859
vn -0.5707526 0.1457349 -0.8080859
vn -0.5707526 0.1457349 -0.8080859
vn -0.5707526 0.1457349 -0.8080859
vn -0.5707526 0.1457349 -0.8080859
vn -0.5707526 0.1457349 -0.8080859
vn 0.5849583 -0.16983204 0.79308313
vn 0.5849583 -0.16983204 0.79308313
vn 0.5849583 -0.16983204 0.79308313
vn 0.5849583 -0.16983204 0.79308313
vn 0.5849583 -0.16983204 0.79308313
vn 0.5849583 -0.16983204 0.79308313
vn 0.5849583 -0.16983204 0.79308313
vn 0.5849583 -0.16983204 0.79308313
vn 0.5849583 -0.16983204 0.79308313
vn 0.5849583 -0.16983204 0.79308313
vn 0.5849583 -0.16983204 0.79308313
vn 0.5849583 -0.16983204 0.79308313
vn 0.41551045 0.8983267 -0.14268921
vn 0.41551045 0.8983267 -0.14268921
vn 0.28021806 0.95936877 -0.033005774
vn 0.28021806 0.95936877 -0.033005774
vn 0.68018794 0.62178737 -0.38823313
vn 0.68018794 0.62178737 -0.38823313
vn 0.7991132 0.24762228 -0.5478149
vn 0.7991132 0.24762228 -0.5478149
vn 0.805896 0.06766276 -0.58817804
vn 0.805896 0.06766276 -0.58817804
vn -0.8220588 -0.023384877 0.5689222
vn -0.8242429 -0.06265314 0.56275946
vn -0.805896 -0.06766276 0.58817804
vn -0.80010504 0.0121903205 0.5997361
vn 0.28021806 0.95936877 -0.033005774
vn 0.28021806 0.95936877 -0.033005774
vn 0.28021806 0.95936877 -0.033005774
vn 0.28021806 0.95936877 -0.033005774
vn -0.6843273 -0.64087784 0.34780985
vn -0.6843273 -0.64087784 0.34780985
vn -0.6843273 -0.64087784 0.34780985
vn -0.6843273 -0.64087784 0.34780985
vn -0.45665246 0.76156384 0.45987937
vn -0.45665246 0.76156384 0.45987937
vn -0.45665246 0.76156384 0.45987937
vn -0.45665246 0.76156384 0.45987937
vn 0.43830785 -0.75655484 -0.48529473
vn 0.43830785 -0.75655484 -0.48529473
vn 0.43830785 -0.75655484 -0.48529473
vn 0.43830785 -0.75655484 -0.48529473
vn -0.32786468 -0.94422466 0.030732827
vn -0.32786468 -0.94422466 0.030732827
vn -0.32786468 -0.94422466 0.030732827
vn -0.32786468 -0.94422466 0.030732827
vn 0.5849583 -0.16983204 0.79308313
vn 0.5849583 -0.16983204 0.79308313
vn 0.5849583 -0.16983204 0.79308313
vn 0.5849583 -0.16983204 0.79308313
vn 0.5849583 -0.16983204 0.79308313
vn 0.5849583 -0.16983204 0.79308313
vn 0.5849583 -0.16983204 0.79308313
vn 0.5707526 -0.1457349 0.8080859
vn 0.5707526 -0.1457349 0.8080859
vn 0.5707526 -0.1457349 0.8080859
vn 0.5707526 -0.1457349 0.8080859
vn 0.5707526 -0.1457349 0.8080859
vn -0.5849583 0.16983204 -0.79308313
vn -0.5849583 0.16983204 -0.79308313
vn -0.5849583 0.16983204 -0.79308313
vn -0.5849583 0.16983204 -0.79308313
vn -0.5849583 0.16983204 -0.79308313
vn -0.5707526 0.1457349 -0.8080859
vn -0.5707526 0.1457349 -0.8080859
vn -0.5707526 0.1457349 -0.8080859
vn -0.5707526 0.1457349 -0.8080859
vn -0.5707526 0.1457349 -0.8080859
vn -0.5707526 0.1457349 -0.8080859
vn -0.5707526 0.1457349 -0.8080859
vn -0.32786468 -0.94422466 0.030732827
vn -0.32786468 -0.94422466 0.030732827
vn -0.20234689 -0.9770645 -0.06633713
vn -0.20234689 -0.9770645 -0.06633713
vn -0.52476656 -0.8284519 0.19567214
vn -0.52476656 -0.8284519 0.19567214
vn -0.6843273 -0.64087784 0.34780985
vn -0.6843273 -0.64087784 0.34780985
vn -0.79470927 -0.37054873 0.4807606
vn -0.79470927 -0.37054873 0.4807606
vn -0.82512754 -0.10071895 0.5558958
vn -0.82512754 -0.10071895 0.5558958
vn -0.7973577 0.14846121 0.5849615
vn -0.7973577 0.14846121 0.5849615
vn 0.5849583 -0.16983204 0.79308313
vn 0.5849583 -0.16983204 0.79308313
vn 0.5849583 -0.16983204 0.79308313
vn 0.5849583 -0.16983204 0.79308313
vn 0.5849583 -0.16983204 0.79308313
vn 0.5849583 -0.16983204 0.79308313
vn 0.5849583 -0.16983204 0.79308313
vn 0.5707526 -0.1457349 0.8080859
vn 0.5707526 -0.1457349 0.8080859
vn 0.5707526 -0.1457349 0.8080859
vn 0.5707526 -0.1457349 0.8080859
vn 0.5707526 -0.1457349 0.8080859
vn -0.5849583 0.16983204 -0.79308313
vn -0.5849583 0.16983204 -0.79308313
vn -0.5849583 0.16983204 -0.79308313
vn -0.5849583 0.16983204 -0.79308313
vn -0.5849583 0.16983204 -0.79308313
vn -0.5707526 0.1457349 -0.8080859
vn -0.5707526 0.1457349 -0.8080859
vn -0.5707526 0.1457349 -0.8080859
vn -0.5707526 0.1457349 -0.8080859
vn -0.5707526 0.1457349 -0.8080859
vn -0.5707526 0.1457349 -0.8080859
vn -0.5707526 0.1457349 -0.8080859
vn -0.32786468 -0.94422466 0.030732827
vn -0.32786468 -0.94422466 0.030732827
vn -0.20234689 -0.9770645 -0.06633713
vn -0.20234689 -0.9770645 -0.06633713
vn -0.52476656 -0.8284519 0.19567214
vn -0.52476656 -0.8284519 0.19567214
vn -0.6843273 -0.64087784 0.34780985
vn -0.6843273 -0.64087784 0.34780985
vn -0.79470927 -0.37054873 0.4807606
vn -0.79470927 -0.37054873 0.4807606
vn -0.82512754 -0.10071895 0.5558958
vn -0.82512754 -0.10071895 0.5558958
vn -0.7973577 0.14846121 0.5849615
vn -0.7973577 0.14846121 0.5849615
vn 0.5849583 -0.16983204 0.79308313
vn 0.5849583 -0.16983204 0.79308313
vn 0.5849583 -0.16983204 0.79308313
vn 0.5849583 -0.16983204 0.79308313
vn 0.5849583 -0.16983204 0.79308313
vn 0.5849583 -0.16983204 0.79308313
vn 0.5849583 -0.16983204 0.79308313
vn 0.5707526 -0.1457349 0.8080859
vn 0.5707526 -0.1457349 0.8080859
vn 0.5707526 -0.1457349 0.8080859
vn 0.5707526 -0.1457349 0.8080859
vn 0.5707526 -0.1457349 0.8080859
vn -0.5849583 0.16983204 -0.79308313
vn -0.5849583 0.16983204 -0.79308313
vn -0.5849583 0.16983204 -0.79308313
vn -0.5849583 0.16983204 -0.79308313
vn -0.5849583 0.16983204 -0.79308313
vn -0.5707526 0.1457349 -0.8080859
vn -0.5707526 0.1457349 -0.8080859
vn -0.5707526 0.1457349 -0.8080859
vn -0.5707526 0.1457349 -0.8080859
vn -0.5707526 0.1457349 -0.8080859
vn -0.5707526 0.1457349 -0.8080859
vn -0.5707526 0.1457349 -0.8080859
vn -0.32786468 -0.94422466 0.030732827
vn -0.32786468 -0.94422466 0.030732827
vn -0.20234689 -0.9770645 -0.06633713
vn -0.20234689 -0.9770645 -0.06633713
vn -0.52476656 -0.8284519 0.19567214
vn -0.52476656 -0.8284519 0.19567214
vn -0.6843273 -0.64087784 0.34780985
vn -0.6843273 -0.64087784 0.34780985
vn -0.79470927 -0.37054873 0.4807606
vn -0.79470927 -0.37054873 0.4807606
vn -0.82512754 -0.10071895 0.5558958
vn -0.82512754 -0.10071895 0.5558958
vn -0.7973577 0.14846121 0.5849615
vn -0.7973577 0.14846121 0.5849615
vn -0.53703254 0.78167135 0.3171529
vn -0.06769039 0.7801343 0.6219393
vn -0.1006347 0.78799593 0.60740024
vn -0.53703254 0.78167135 0.3171529
vn -0.81268185 0.58135086 -0.039741542
vn -0.82567614 0.5601573 -0.066953614
vn 0.4348853 0.5296038 0.728282
vn 0.4348853 0.5296038 0.728282
vn -0.82567614 0.5601573 -0.066953614
vn -0.81268185 0.58135086 -0.039741542
vn -0.87436277 0.14964338 -0.4616239
vn -0.87436277 0.14964338 -0.4616239
vn -0.7164722 -0.20050722 -0.66818
vn -0.7164722 -0.20050722 -0.66818
vn -0.7304092 -0.21939611 -0.6468135
vn -0.7304092 -0.21939611 -0.6468135
vn -0.9052841 0.27584082 -0.3230673
vn -0.76692986 0.63599956 0.0855757
vn -0.45049962 -0.59833294 0.6626068
vn -0.45049962 -0.59833294 0.6626068
vn -0.45049962 -0.59833294 0.6626068
vn -0.45049962 -0.59833294 0.6626068
vn -0.45049962 -0.59833294 0.6626068
vn -0.45049962 -0.59833294 0.6626068
vn -0.45049962 -0.59833294 0.6626068
vn -0.45049962 -0.59833294 0.6626068
vn -0.45049962 -0.59833294 0.6626068
vn -0.45049962 -0.59833294 0.6626068
vn -0.45049962 -0.59833294 0.6626068
vn -0.45049962 -0.59833294 0.6626068
vn -0.45049962 -0.59833294 0.6626068
vn 0.28077096 0.7663739 -0.5777879
vn 0.28077096 0.7663739 -0.5777879
vn 0.28077096 0.7663739 -0.5777879
vn 0.28077096 0.7663739 -0.5777879
vn 0.28077096 0.7663739 -0.5777879
vn 0.28077096 0.7663739 -0.5777879
vn 0.28077096 0.7663739 -0.5777879
vn 0.28077096 0.7663739 -0.5777879
vn 0.28077096 0.7663739 -0.5777879
vn 0.28077096 0.7663739 -0.5777879
vn 0.28077096 0.7663739 -0.5777879
vn 0.7304092 0.21939611 0.6468135
vn 0.7304092 0.21939611 0.6468135
vn 0.7164722 0.20050722 0.66818
vn 0.7164722 0.20050722 0.66818
vn 0.4348853 0.5296038 0.728282
vn 0.4348853 0.5296038 0.728282
vn 0.26614836 0.6158053 0.7415853
vn -0.23863678 0.78931695 0.56571317
vn -0.45586282 0.78473765 0.41997147
vn -0.45586282 0.78473765 0.41997147
vn -0.25397083 0.8107227 0.5274728
vn -0.26790962 0.7918315 0.5488419
vn -0.28260273 0.81230384 0.5101943
vn 0.17843668 0.89382887 0.41137603
vn 0.26614836 0.6158053 0.7415853
vn -0.23863678 0.78931695 0.56571317
vn 0.6541658 0.12371134 0.7461652
vn 0.6541658 0.12371134 0.7461652
vn 0.71917987 -0.039356694 0.6937084
vn 0.71917987 -0.039356694 0.6937084
vn 0.51464593 -0.020497961 0.85715777
vn 0.51464593 -0.020497961 0.85715777
vn 0.6541658 0.12371134 0.7461652
vn 0.6541658 0.12371134 0.7461652
vn 0.46592247 -0.064978465 0.88243645
vn 0.46592247 -0.064978465 0.88243645
vn 0.71033454 0.54286796 -0.44801688
vn 0.71033454 0.54286796 -0.44801688
vn 0.71033454 0.54286796 -0.44801688
vn 0.71033454 0.54286796 -0.44801688
vn -0.8418437 -0.4445088 -0.30612266
vn -0.83359486 -0.41177455 -0.36818656
vn -0.83359486 -0.41177455 -0.36818656
vn -0.8418437 -0.4445088 -0.30612266
vn -0.68194526 -0.44598097 -0.5796996
vn -0.68194526 -0.44598097 -0.5796996
vn -0.77835405 -0.29202408 -0.5557759
vn -0.77835405 -0.29202408 -0.5557759
vn -0.77835405 -0.29202408 -0.5557759
vn -0.77835405 -0.29202408 -0.5557759
vn 0.48457244 -0.8237703 -0.29426533
vn 0.48457244 -0.8237703 -0.29426533
vn 0.46901545 -0.8403049 -0.27186826
vn 0.46901545 -0.8403049 -0.27186826
vn 0.4995873 -0.8064462 -0.31631804
vn 0.4995873 -0.8064462 -0.31631804
vn 0.53703254 -0.78167135 -0.3171529
vn 0.5140633 -0.7883373 -0.33802843
vn 0.6103206 -0.6149927 -0.49929234
vn -0.17843668 -0.89382887 -0.41137603
vn 0.63328993 -0.60832673 -0.47841677
vn 0.58957994 -0.6631694 -0.46108767
vn 0.58957994 -0.6631694 -0.46108767
vn 0.6714261 -0.64718795 0.36101905
vn -0.61664766 0.73807585 0.27384266
vn -0.75026417 0.65184605 0.110455506
vn -0.7363254 0.6707374 0.08908636
vn -0.61664766 0.73807585 0.27384266
vn -0.71901876 0.68565035 0.113559015
vn -0.6714261 0.64718795 -0.36101905
vn -0.76692986 0.63599956 0.0855757
vn -0.9052841 0.27584082 -0.3230673
vn 0.42753327 0.5916678 -0.68347967
vn 0.42753327 0.5916678 -0.68347967
vn 0.42753327 0.5916678 -0.68347967
vn 0.42753327 0.5916678 -0.68347967
vn 0.8418437 0.4445088 0.30612266
vn 0.8418437 0.4445088 0.30612266
vn 0.8418437 0.4445088 0.30612266
vn 0.8418437 0.4445088 0.30612266
vn -0.46592247 0.064978465 -0.88243645
vn -0.46592247 0.064978465 -0.88243645
vn -0.46592247 0.064978465 -0.88243645
vn -0.46592247 0.064978465 -0.88243645
vn 0.22798002 0.40288258 -0.88640326
vn 0.22798002 0.40288258 -0.88640326
vn 0.22798002 0.40288258 -0.88640326
vn 0.22798002 0.40288258 -0.88640326
vn -0.76692986 0.63599956 0.0855757
vn -0.61664766 0.73807585 0.27384266
vn -0.45586282 0.78473765 0.41997147
vn -0.23863678 0.78931695 0.56571317
g combined_tat_scrap-mesh_0
f 3/3/3 2/2/2 1/1/1
f 4/4/4 3/3/3 1/1/1
f 5/5/5 4/4/4 1/1/1
f 6/6/6 5/5/5 1/1/1
f 3/3/3 7/7/7 2/2/2
f 7/7/7 8/8/8 2/2/2
f 11/11/11 10/10/10 9/9/9
f 12/12/12 11/11/11 9/9/9
f 13/13/13 11/11/11 12/12/12
f 14/14/14 13/13/13 12/12/12
f 14/14/14 15/15/15 13/13/13
f 15/15/15 16/16/16 13/13/13
f 16/16/16 15/15/15 17/17/17
f 15/15/15 18/18/18 17/17/17
f 21/21/21 20/20/20 19/19/19
f 19/19/19 20/20/20 22/22/22
f 20/20/20 23/23/23 22/22/22
f 22/22/22 23/23/23 24/24/24
f 23/23/23 25/25/25 24/24/24
f 24/24/24 25/25/25 26/26/26
f 25/25/25 27/27/27 26/26/26
f 26/26/26 27/27/27 28/28/28
f 29/29/29 26/26/26 28/28/28
f 29/29/29 28/28/28 30/30/30
f 31/31/31 29/29/29 30/30/30
f 34/34/34 33/33/33 32/32/32
f 35/35/35 34/34/34 32/32/32
f 36/36/36 35/35/35 32/32/32
f 36/36/36 37/37/37 35/35/35
f 37/37/37 38/38/38 35/35/35
f 39/39/39 38/38/38 37/37/37
f 40/40/40 39/39/39 37/37/37
f 40/40/40 41/41/41 39/39/39
f 41/41/41 42/42/42 39/39/39
f 45/45/45 44/44/44 43/43/43
f 46/46/46 45/45/45 43/43/43
f 43/43/43 44/44/44 47/47/47
f 48/48/48 43/43/43 47/47/47
f 46/46/46 49/49/49 45/45/45
f 49/49/49 50/50/50 45/45/45
f 53/53/53 52/52/52 51/51/51
f 54/54/54 53/53/53 51/51/51
f 53/53/53 54/54/54 55/55/55
f 53/53/53 55/55/55 56/56/56
f 57/57/57 51/51/51 52/52/52
f 58/58/58 57/57/57 52/52/52
f 61/61/61 60/60/60 59/59/59
f 62/62/62 61/61/61 59/59/59
f 63/63/63 61/61/61 62/62/62
f 64/64/64 63/63/63 62/62/62
f 59/59/59 60/60/60 65/65/65
f 60/60/60 66/66/66 65/65/65
f 63/63/63 64/64/64 67/67/67
f 64/64/64 68/68/68 67/67/67
f 71/71/71 70/70/70 69/69/69
f 72/72/72 71/71/71 69/69/69
f 75/75/75 74/74/74 73/73/73
f 76/76/76 75/75/75 73/73/73
f 75/75/75 77/77/77 74/74/74
f 77/77/77 78/78/78 74/74/74
f 77/77/77 79/79/79 78/78/78
f 79/79/79 80/80/80 78/78/78
f 81/81/81 80/80/80 79/79/79
f 82/82/82 81/81/81 79/79/79
f 85/85/85 84/84/84 83/83/83
f 86/86/86 85/85/85 83/83/83
f 86/86/86 87/87/87 85/85/85
f 87/87/87 88/88/88 85/85/85
f 87/87/87 89/89/89 88/88/88
f 89/89/89 90/90/90 88/88/88
f 90/90/90 89/89/89 91/91/91
f 92/92/92 90/90/90 91/91/91
f 89/89/89 93/93/93 91/91/91
f 91/91/91 93/93/93 94/94/94
f 95/95/95 91/91/91 94/94/94
f 93/93/93 89/89/89 96/96/96
f 99/99/99 98/98/98 97/97/97
f 100/100/100 99/99/99 97/97/97
f 98/98/98 99/99/99 101/101/101
f 99/99/99 102/102/102 101/101/101
f 103/103/103 100/100/100 97/97/97
f 104/104/104 103/103/103 97/97/97
f 107/107/107 106/106/106 105/105/105
f 108/108/108 107/107/107 105/105/105
f 111/111/111 110/110/110 109/109/109
f 112/112/112 111/111/111 109/109/109
f 115/115/115 114/114/114 113/113/113
f 116/116/116 115/115/115 113/113/113
f 119/119/119 118/118/118 117/117/117
f 120/120/120 119/119/119 117/117/117
f 123/123/123 122/122/122 121/121/121
f 124/124/124 123/123/123 121/121/121
f 127/127/127 126/126/126 125/125/125
f 128/128/128 127/127/127 125/125/125
f 129/129/129 127/127/127 128/128/128
f 130/130/130 129/129/129 128/128/128
f 125/125/125 131/131/131 128/128/128
f 128/128/128 131/131/131 130/130/130
f 132/132/132 125/125/125 126/126/126
f 125/125/125 132/132/132 131/131/131
f 133/133/133 132/132/132 126/126/126
f 132/132/132 134/134/134 131/131/131
f 134/134/134 135/135/135 131/131/131
f 135/135/135 136/136/136 131/131/131
f 132/132/132 137/137/137 134/134/134
f 130/130/130 138/138/138 129/129/129
f 138/138/138 139/139/139 129/129/129
f 130/130/130 140/140/140 138/138/138
f 140/140/140 141/141/141 138/138/138
f 144/144/144 143/143/143 142/142/142
f 143/143/143 145/145/145 142/142/142
f 142/142/142 145/145/145 146/146/146
f 142/142/142 146/146/146 147/147/147
f 145/145/145 148/148/148 146/146/146
f 148/148/148 149/149/149 146/146/146
f 149/149/149 150/150/150 146/146/146
f 146/146/146 150/150/150 151/151/151
f 150/150/150 152/152/152 151/151/151
f 155/155/155 154/154/154 153/153/153
f 156/156/156 155/155/155 153/153/153
f 159/159/159 158/158/158 157/157/157
f 160/160/160 159/159/159 157/157/157
f 161/161/161 159/159/159 160/160/160
f 162/162/162 161/161/161 160/160/160
f 163/163/163 161/161/161 162/162/162
f 164/164/164 163/163/163 162/162/162
f 165/165/165 163/163/163 164/164/164
f 166/166/166 165/165/165 164/164/164
f 169/169/169 168/168/168 167/167/167
f 170/170/170 169/169/169 167/167/167
f 173/173/173 172/172/172 171/171/171
f 174/174/174 173/173/173 171/171/171
f 177/177/177 176/176/176 175/175/175
f 178/178/178 177/177/177 175/175/175
f 176/176/176 177/177/177 179/179/179
f 177/177/177 180/180/180 179/179/179
f 183/183/183 182/182/182 181/181/181
f 184/184/184 183/183/183 181/181/181
f 184/184/184 181/181/181 185/185/185
f 186/186/186 184/184/184 185/185/185
f 186/186/186 185/185/185 187/187/187
f 188/188/188 186/186/186 187/187/187
f 188/188/188 187/187/187 189/189/189
f 190/190/190 188/188/188 189/189/189
f 189/189/189 191/191/191 190/190/190
f 191/191/191 192/192/192 190/190/190
f 195/195/195 194/194/194 193/193/193
f 196/196/196 195/195/195 193/193/193
f 199/199/199 198/198/198 197/197/197
f 200/200/200 199/199/199 197/197/197
f 203/203/203 202/202/202 201/201/201
f 206/206/206 205/205/205 204/204/204
f 209/209/209 208/208/208 207/207/207
f 210/210/210 209/209/209 207/207/207
f 207/207/207 211/211/211 210/210/210
f 211/211/211 212/212/212 210/210/210
f 211/211/211 213/213/213 212/212/212
f 211/211/211 214/214/214 213/213/213
f 217/217/217 216/216/216 215/215/215
f 220/220/220 219/219/219 218/218/218
f 223/223/223 222/222/222 221/221/221
f 224/224/224 223/223/223 221/221/221
f 227/227/227 226/226/226 225/225/225
f 228/228/228 227/227/227 225/225/225
f 228/228/228 229/229/229 227/227/227
f 229/229/229 230/230/230 227/227/227
f 230/230/230 231/231/231 227/227/227
f 232/232/232 231/231/231 230/230/230
f 233/233/233 232/232/232 230/230/230
f 234/234/234 232/232/232 233/233/233
f 234/234/234 235/235/235 232/232/232
f 235/235/235 236/236/236 232/232/232
f 239/239/239 238/238/238 237/237/237
f 240/240/240 239/239/239 237/237/237
f 240/240/240 237/237/237 241/241/241
f 241/241/241 237/237/237 242/242/242
f 237/237/237 243/243/243 242/242/242
f 242/242/242 243/243/243 244/244/244
f 245/245/245 242/242/242 244/244/244
f 246/246/246 245/245/245 244/244/244
f 246/246/246 244/244/244 247/247/247
f 244/244/244 248/248/248 247/247/247
f 251/251/251 250/250/250 249/249/249
f 252/252/252 251/251/251 249/249/249
f 255/255/255 254/254/254 253/253/253
f 256/256/256 255/255/255 253/253/253
f 257/257/257 256/256/256 253/253/253
f 258/258/258 257/257/257 253/253/253
f 259/259/259 257/257/257 258/258/258
f 260/260/260 259/259/259 258/258/258
f 263/263/263 262/262/262 261/261/261
f 264/264/264 263/263/263 261/261/261
f 267/267/267 266/266/266 265/265/265
f 268/268/268 267/267/267 265/265/265
f 271/271/271 270/270/270 269/269/269
f 272/272/272 271/271/271 269/269/269
f 271/271/271 273/273/273 270/270/270
f 273/273/273 274/274/274 270/270/270
f 273/273/273 275/275/275 274/274/274
f 275/275/275 276/276/276 274/274/274
f 276/276/276 275/275/275 277/277/277
f 278/278/278 276/276/276 277/277/277
f 279/279/279 278/278/278 277/277/277
f 280/280/280 279/279/279 277/277/277
f 281/281/281 279/279/279 280/280/280
f 282/282/282 281/281/281 280/280/280
f 285/285/285 284/284/284 283/283/283
f 286/286/286 285/285/285 283/283/283
f 284/284/284 287/287/287 283/283/283
f 287/287/287 288/288/288 283/283/283
f 288/288/288 287/287/287 289/289/289
f 287/287/287 290/290/290 289/289/289
f 289/289/289 290/290/290 291/291/291
f 290/290/290 292/292/292 291/291/291
f 291/291/291 292/292/292 293/293/293
f 292/292/292 294/294/294 293/293/293
f 293/293/293 294/294/294 295/295/295
f 296/296/296 293/293/293 295/295/295
f 299/299/299 298/298/298 297/297/297
f 300/300/300 299/299/299 297/297/297
f 298/298/298 301/301/301 297/297/297
f 297/297/297 301/301/301 302/302/302
f 301/301/301 303/303/303 302/302/302
f 302/302/302 303/303/303 304/304/304
f 305/305/305 302/302/302 304/304/304
f 305/305/305 304/304/304 306/306/306
f 305/305/305 306/306/306 307/307/307
f 308/308/308 305/305/305 307/307/307
f 311/311/311 310/310/310 309/309/309
f 312/312/312 311/311/311 309/309/309
f 313/313/313 312/312/312 309/309/309
f 313/313/313 309/309/309 314/314/314
f 315/315/315 313/313/313 314/314/314
f 316/316/316 315/315/315 314/314/314
f 317/317/317 316/316/316 314/314/314
f 318/318/318 316/316/316 317/317/317
f 319/319/319 318/318/318 317/317/317
f 320/320/320 319/319/319 317/317/317
f 323/323/323 322/322/322 321/321/321
f 324/324/324 323/323/323 321/321/321
f 321/321/321 322/322/322 325/325/325
f 326/326/326 321/321/321 325/325/325
f 326/326/326 325/325/325 327/327/327
f 328/328/328 326/326/326 327/327/327
f 327/327/327 329/329/329 328/328/328
f 329/329/329 330/330/330 328/328/328
f 333/333/333 332/332/332 331/331/331
f 334/334/334 333/333/333 331/331/331
f 337/337/337 336/336/336 335/335/335
f 338/338/338 337/337/337 335/335/335
f 341/341/341 340/340/340 339/339/339
f 342/342/342 341/341/341 339/339/339
f 345/345/345 344/344/344 343/343/343
f 346/346/346 345/345/345 343/343/343
f 349/349/349 348/348/348 347/347/347
f 350/350/350 349/349/349 347/347/347
f 353/353/353 352/352/352 351/351/351
f 354/354/354 353/353/353 351/351/351
f 357/357/357 356/356/356 355/355/355
f 358/358/358 357/357/357 355/355/355
f 359/359/359 356/356/356 357/357/357
f 360/360/360 359/359/359 357/357/357
f 361/361/361 360/360/360 357/357/357
f 361/361/361 362/362/362 360/360/360
f 362/362/362 363/363/363 360/360/360
f 362/362/362 364/364/364 363/363/363
f 365/365/365 364/364/364 362/362/362
f 366/366/366 365/365/365 362/362/362
f 369/369/369 368/368/368 367/367/367
f 370/370/370 369/369/369 367/367/367
f 370/370/370 371/371/371 369/369/369
f 371/371/371 372/372/372 369/369/369
f 372/372/372 373/373/373 369/369/369
f 374/374/374 373/373/373 372/372/372
f 375/375/375 374/374/374 372/372/372
f 376/376/376 374/374/374 375/375/375
f 376/376/376 377/377/377 374/374/374
f 377/377/377 378/378/378 374/374/374
f 381/381/381 380/380/380 379/379/379
f 382/382/382 381/381/381 379/379/379
f 379/379/379 380/380/380 383/383/383
f 380/380/380 384/384/384 383/383/383
f 383/383/383 384/384/384 385/385/385
f 384/384/384 386/386/386 385/385/385
f 385/385/385 386/386/386 387/387/387
f 386/386/386 388/388/388 387/387/387
f 387/387/387 388/388/388 389/389/389
f 388/388/388 390/390/390 389/389/389
f 389/389/389 390/390/390 391/391/391
f 390/390/390 392/392/392 391/391/391
f 395/395/395 394/394/394 393/393/393
f 396/396/396 395/395/395 393/393/393
f 397/397/397 394/394/394 395/395/395
f 398/398/398 397/397/397 395/395/395
f 399/399/399 398/398/398 395/395/395
f 399/399/399 400/400/400 398/398/398
f 400/400/400 401/401/401 398/398/398
f 400/400/400 402/402/402 401/401/401
f 403/403/403 402/402/402 400/400/400
f 404/404/404 403/403/403 400/400/400
f 407/407/407 406/406/406 405/405/405
f 408/408/408 407/407/407 405/405/405
f 408/408/408 409/409/409 407/407/407
f 409/409/409 410/410/410 407/407/407
f 410/410/410 411/411/411 407/407/407
f 412/412/412 411/411/411 410/410/410
f 413/413/413 412/412/412 410/410/410
f 414/414/414 412/412/412 413/413/413
f 414/414/414 415/415/415 412/412/412
f 415/415/415 416/416/416 412/412/412
f 419/419/419 418/418/418 417/417/417
f 420/420/420 419/419/419 417/417/417
f 417/417/417 418/418/418 421/421/421
f 418/418/418 422/422/422 421/421/421
f 421/421/421 422/422/422 423/423/423
f 422/422/422 424/424/424 423/423/423
f 423/423/423 424/424/424 425/425/425
f 424/424/424 426/426/426 425/425/425
f 425/425/425 426/426/426 427/427/427
f 426/426/426 428/428/428 427/427/427
f 427/427/427 428/428/428 429/429/429
f 428/428/428 430/430/430 429/429/429
f 433/433/433 432/432/432 431/431/431
f 434/434/434 433/433/433 431/431/431
f 435/435/435 432/432/432 433/433/433
f 436/436/436 435/435/435 433/433/433
f 437/437/437 436/436/436 433/433/433
f 437/437/437 438/438/438 436/436/436
f 438/438/438 439/439/439 436/436/436
f 438/438/438 440/440/440 439/439/439
f 441/441/441 440/440/440 438/438/438
f 442/442/442 441/441/441 438/438/438
f 445/445/445 444/444/444 443/443/443
f 446/446/446 445/445/445 443/443/443
f 446/446/446 447/447/447 445/445/445
f 447/447/447 448/448/448 445/445/445
f 448/448/448 449/449/449 445/445/445
f 450/450/450 449/449/449 448/448/448
f 451/451/451 450/450/450 448/448/448
f 452/452/452 450/450/450 451/451/451
f 452/452/452 453/453/453 450/450/450
f 453/453/453 454/454/454 450/450/450
f 457/457/457 456/456/456 455/455/455
f 458/458/458 457/457/457 455/455/455
f 455/455/455 456/456/456 459/459/459
f 456/456/456 460/460/460 459/459/459
f 459/459/459 460/460/460 461/461/461
f 460/460/460 462/462/462 461/461/461
f 461/461/461 462/462/462 463/463/463
f 462/462/462 464/464/464 463/463/463
f 463/463/463 464/464/464 465/465/465
f 464/464/464 466/466/466 465/465/465
f 465/465/465 466/466/466 467/467/467
f 466/466/466 468/468/468 467/467/467
f 471/471/471 470/470/470 469/469/469
f 472/472/472 471/471/471 469/469/469
f 473/473/473 472/472/472 469/469/469
f 474/474/474 473/473/473 469/469/469
f 471/471/471 475/475/475 470/470/470
f 475/475/475 476/476/476 470/470/470
f 479/479/479 478/478/478 477/477/477
f 480/480/480 479/479/479 477/477/477
f 481/481/481 479/479/479 480/480/480
f 482/482/482 481/481/481 480/480/480
f 482/482/482 483/483/483 481/481/481
f 483/483/483 484/484/484 481/481/481
f 484/484/484 483/483/483 485/485/485
f 483/483/483 486/486/486 485/485/485
f 489/489/489 488/488/488 487/487/487
f 487/487/487 488/488/488 490/490/490
f 488/488/488 491/491/491 490/490/490
f 490/490/490 491/491/491 492/492/492
f 491/491/491 493/493/493 492/492/492
f 492/492/492 493/493/493 494/494/494
f 493/493/493 495/495/495 494/494/494
f 494/494/494 495/495/495 496/496/496
f 497/497/497 494/494/494 496/496/496
f 497/497/497 496/496/496 498/498/498
f 499/499/499 497/497/497 498/498/498
f 502/502/502 501/501/501 500/500/500
f 503/503/503 502/502/502 500/500/500
f 504/504/504 503/503/503 500/500/500
f 504/504/504 505/505/505 503/503/503
f 505/505/505 506/506/506 503/503/503
f 507/507/507 506/506/506 505/505/505
f 508/508/508 507/507/507 505/505/505
f 508/508/508 509/509/509 507/507/507
f 509/509/509 510/510/510 507/507/507
f 513/513/513 512/512/512 511/511/511
f 514/514/514 513/513/513 511/511/511
f 511/511/511 512/512/512 515/515/515
f 516/516/516 511/511/511 515/515/515
f 514/514/514 517/517/517 513/513/513
f 517/517/517 518/518/518 513/513/513
f 521/521/521 520/520/520 519/519/519
f 522/522/522 521/521/521 519/519/519
f 521/521/521 522/522/522 523/523/523
f 521/521/521 523/523/523 524/524/524
f 525/525/525 519/519/519 520/520/520
f 526/526/526 525/525/525 520/520/520
f 529/529/529 528/528/528 527/527/527
f 530/530/530 529/529/529 527/527/527
f 531/531/531 529/529/529 530/530/530
f 532/532/532 531/531/531 530/530/530
f 527/527/527 528/528/528 533/533/533
f 528/528/528 534/534/534 533/533/533
f 531/531/531 532/532/532 535/535/535
f 532/532/532 536/536/536 535/535/535
f 539/539/539 538/538/538 537/537/537
f 540/540/540 539/539/539 537/537/537
f 543/543/543 542/542/542 541/541/541
f 544/544/544 543/543/543 541/541/541
f 543/543/543 545/545/545 542/542/542
f 545/545/545 546/546/546 542/542/542
f 545/545/545 547/547/547 546/546/546
f 547/547/547 548/548/548 546/546/546
f 549/549/549 548/548/548 547/547/547
f 550/550/550 549/549/549 547/547/547
f 553/553/553 552/552/552 551/551/551
f 554/554/554 553/553/553 551/551/551
f 554/554/554 555/555/555 553/553/553
f 555/555/555 556/556/556 553/553/553
f 555/555/555 557/557/557 556/556/556
f 557/557/557 558/558/558 556/556/556
f 558/558/558 557/557/557 559/559/559
f 560/560/560 558/558/558 559/559/559
f 557/557/557 561/561/561 559/559/559
f 559/559/559 561/561/561 562/562/562
f 563/563/563 559/559/559 562/562/562
f 561/561/561 557/557/557 564/564/564
f 567/567/567 566/566/566 565/565/565
f 568/568/568 567/567/567 565/565/565
f 566/566/566 567/567/567 569/569/569
f 567/567/567 570/570/570 569/569/569
f 571/571/571 568/568/568 565/565/565
f 572/572/572 571/571/571 565/565/565
f 575/575/575 574/574/574 573/573/573
f 576/576/576 575/575/575 573/573/573
f 579/579/579 578/578/578 577/577/577
f 580/580/580 579/579/579 577/577/577
f 583/583/583 582/582/582 581/581/581
f 584/584/584 583/583/583 581/581/581
f 587/587/587 586/586/586 585/585/585
f 588/588/588 587/587/587 585/585/585
f 591/591/591 590/590/590 589/589/589
f 592/592/592 591/591/591 589/589/589
