g jak_rockwall_02b_mesh
v 6.769554 12.927874 5.854212
v 6.6607285 15.104383 4.1855526
v 7.096031 14.378881 6.434614
v 6.769554 12.927874 5.854212
v 7.096031 14.378881 6.434614
v 7.241132 12.819048 6.108137
v 10.759825 12.311195 6.3620644
v 6.152876 11.041563 5.8904877
v 6.443078 11.984718 6.54344
v 10.759825 12.311195 6.3620644
v 6.443078 11.984718 6.54344
v 7.241132 12.819048 6.108137
v 6.116601 12.093544 5.455185
v 6.769554 12.927874 5.854212
v 7.241132 12.819048 6.108137
v 11.086302 12.528847 6.869917
v 10.759825 12.311195 6.3620644
v 7.241132 12.819048 6.108137
v -4.475754 1.9002151 0.95706177
v -3.0610218 2.262968 1.4649143
v -2.9159222 1.7188396 0.8119602
v -2.9159222 1.7188396 0.8119602
v -3.0610218 2.262968 1.4649143
v -0.6668587 1.9002151 3.8228016
v 10.904926 2.8796463 7.7042465
v 14.56872 3.4600487 5.9267616
v 15.0402975 1.6825657 5.8904877
v 0.022369385 5.1649837 2.8433704
v 2.5616322 5.128708 4.6208553
v 2.7067327 4.802231 4.43948
v 12.609859 8.57485 5.455185
v 11.521605 8.538576 6.2532387
v 11.521605 8.937603 6.2532387
v 12.646135 12.927874 6.6522655
v 12.718685 13.689653 5.491459
v 12.392208 13.653376 6.869917
v 11.485329 15.612238 5.2012577
v 12.355934 15.213209 6.5797157
v 13.008886 13.617102 5.9267616
v 16.16483 15.4308605 5.854212
v 16.309929 13.834753 5.9993114
v 15.947178 14.92301 6.7248154
v 8.111736 2.625719 6.7248154
v 9.453918 3.7865257 6.2895145
v 8.438213 2.7708206 7.595421
v -11.331766 1.2835369 1.1747112
v -10.751362 1.7551155 1.0658875
v -9.989584 1.6825657 1.247263
v -11.331766 1.2835369 1.1747112
v -9.989584 1.6825657 1.247263
v -10.787638 1.5011883 1.6462898
v 6.769554 16.410292 2.7345448
v 6.6607285 15.575964 0.12273216
v 7.096031 17.46227 1.57374
v 6.769554 16.410292 2.7345448
v 7.096031 17.46227 1.57374
v 7.241132 16.627943 2.9159222
v 10.759825 16.664217 3.4963245
v 6.152876 15.793615 4.5120296
v 6.443078 16.736769 3.8590755
v 10.759825 16.664217 3.4963245
v 6.443078 16.736769 3.8590755
v 7.241132 16.627943 2.9159222
v 6.116601 15.757338 3.3874989
v 6.769554 16.410292 2.7345448
v 7.241132 16.627943 2.9159222
v 11.086302 17.24462 3.4600487
v 10.759825 16.664217 3.4963245
v 7.241132 16.627943 2.9159222
v 5.5361977 15.539686 6.54344
v 7.168582 15.902437 4.366928
v 8.111736 14.16123 5.817936
v 5.9715004 16.482843 4.43948
v 3.2145863 16.33774 3.8590755
v 2.634183 15.467138 5.418909
v 1.7273026 16.04754 2.661995
v 1.2920017 13.580828 2.7345448
v 1.7273026 16.04754 2.661995
v 2.634183 15.467138 5.418909
v 2.8155584 13.54455 5.128708
v 1.8361282 10.388611 3.4600487
v 2.634183 11.404316 5.2012577
v 5.3185472 13.109249 6.2532387
v 2.8881092 10.279785 4.9473324
v 5.028345 11.29549 6.2532387
v 5.1734457 10.062134 5.491459
v 2.634183 15.467138 5.418909
v 5.3185472 13.109249 6.2532387
v 2.8155584 13.54455 5.128708
v 5.5361977 15.539686 6.54344
v 8.111736 14.16123 5.817936
v 7.204857 12.383745 5.8904877
v 5.028345 11.29549 6.2532387
v 6.515628 10.279785 4.43948
v 5.1734457 10.062134 5.491459
v 5.9352255 9.808207 4.657131
v 1.8361282 10.388611 3.4600487
v 2.8881092 10.279785 4.9473324
v 5.1734457 10.062134 5.491459
v 5.9352255 9.808207 4.657131
v 10.578449 9.554281 5.5277348
v 11.231403 10.352335 5.418909
v 10.941201 9.626831 5.3463593
v 10.433349 10.569986 5.854212
v 9.81667 9.917032 5.1649837
v 11.521605 12.2749195 6.144413
v 10.759825 12.311195 6.3620644
v 7.894085 9.808207 5.056158
v 6.152876 11.041563 5.8904877
v 6.479353 10.134684 5.3100834
v 6.479353 10.134684 5.3100834
v 6.479353 9.953308 4.2581024
v 5.9715004 11.077839 5.3100834
v 6.152876 11.041563 5.8904877
v 6.443078 11.984718 6.54344
v 6.116601 12.093544 5.455185
v 7.241132 12.819048 6.108137
v 7.096031 14.378881 6.434614
v 11.086302 12.528847 6.869917
v 7.241132 12.819048 6.108137
v 11.521605 14.415155 6.216963
v 11.884356 12.746498 6.5797157
v 13.66184 13.290625 5.8904877
v 11.811806 15.358313 5.455185
v 8.873515 15.793615 5.2012577
v 6.6607285 15.104383 4.1855526
v 10.360798 9.33663 4.113003
v 10.941201 9.626831 5.3463593
v 10.796101 9.445456 4.1855526
v 10.578449 9.554281 5.5277348
v 9.81667 9.917032 5.1649837
v 7.930361 9.082703 4.2218285
v 7.894085 9.808207 5.056158
v 6.479353 9.953308 4.2581024
v 6.479353 10.134684 5.3100834
v 10.759825 12.311195 6.3620644
v 11.086302 12.528847 6.869917
v 11.884356 12.746498 6.5797157
v 11.521605 12.2749195 6.144413
v 15.511875 7.559145 7.196394
v 13.407914 7.7405224 7.268944
v 15.403049 9.082703 7.9944477
v 12.9363365 8.538576 7.7767963
v 13.045162 10.606262 8.030724
v 15.004023 10.5337105 7.958172
v 15.185398 11.658241 8.175823
v 11.485329 10.678812 7.3052197
v 11.267677 9.155254 6.9787426
v 13.262814 12.311195 7.595421
v 15.656976 12.819048 7.232668
v 13.589291 13.653376 6.0355873
v 11.63043 12.420021 7.0512924
v 11.775531 13.798479 5.8904877
v 10.759825 12.673946 5.6728363
v 10.832376 11.839619 5.854212
v 10.72355 10.497437 5.382633
v 10.687275 9.445456 5.2738094
v 11.848082 8.792501 5.3100834
v 10.687275 9.445456 5.2738094
v 11.267677 9.155254 6.9787426
v 12.029457 8.683676 6.6159897
v 12.9363365 8.538576 7.7767963
v 12.791236 7.559145 5.6365604
v 12.754961 7.849346 6.869917
v 13.407914 7.7405224 7.268944
v 13.806941 7.232668 5.817936
v 15.511875 7.559145 7.196394
v 15.294224 7.0150185 6.0355873
v -0.70313454 9.808207 0.15900612
v -0.6668587 11.730793 -0.53022194
v 0.42139626 12.238646 2.8070965
v 0.31257057 9.40918 3.4600487
v 1.908678 12.20237 3.6777
v -0.88451004 6.833641 0.013906479
v -0.0864563 6.833641 3.5325985
v 0.022369385 5.1649837 2.8433704
v -0.6668587 11.730793 -0.53022194
v -0.70313454 14.16123 -0.16746902
v 0.6753235 15.104383 1.9002151
v 0.42139626 12.238646 2.8070965
v 1.908678 12.20237 3.6777
v 1.908678 15.539686 3.2423973
v 0.31257057 9.40918 3.4600487
v 1.908678 12.20237 3.6777
v 1.8361282 10.388611 3.4600487
v -0.0864563 6.833641 3.5325985
v 1.2557259 6.833641 3.351223
v 0.022369385 5.1649837 2.8433704
v -6.144413 14.233782 0.15900612
v -6.6522655 14.814184 -1.6184769
v -4.43948 13.725927 -1.183176
v -9.518005 15.140661 -2.0175037
v -9.518005 14.451433 0.013906479
v -12.565123 13.290625 -0.9655247
v -9.590555 8.357199 -0.31257057
v -12.746498 8.611126 -1.0380745
v -12.492571 10.787638 0.15900612
v -9.626831 8.937603 0.15900612
v -6.869917 8.7562275 0.6668587
v -9.663107 10.932737 1.1747112
v -6.47089 10.352335 1.2109871
v -3.8953514 9.445456 -1.2920017
v -6.071863 10.932737 1.7913895
v -9.663107 10.932737 1.1747112
v -12.492571 10.787638 0.15900612
v -12.565123 13.290625 -0.9655247
v -9.518005 14.451433 0.013906479
v -6.071863 10.932737 1.7913895
v -6.144413 14.233782 0.15900612
v -3.0972977 12.927874 0.23155785
v -4.43948 13.725927 -1.183176
v -2.589445 14.270056 -0.24002075
v -5.128708 12.601397 -0.78414726
v -3.4237747 9.155254 -0.20374489
v -4.729681 9.808207 -0.6390476
v -4.330654 8.611126 -1.183176
v -1.7188396 11.041563 0.8482361
v -1.4649143 12.782772 0.7394104
v -1.5374641 9.518005 0.59430885
v -2.8433704 8.466024 -0.45767212
v -2.661995 8.103273 -1.7273026
v -2.0090408 9.155254 -0.16746902
v -1.1384373 9.227804 -1.0017986
v -1.5374641 9.518005 0.59430885
v -0.70313454 9.808207 0.15900612
v -2.0090408 9.155254 -0.16746902
v -3.4237747 9.155254 -0.20374489
v -2.661995 8.103273 -1.7273026
v -2.8433704 8.466024 -0.45767212
v -0.70313454 9.808207 0.15900612
v -1.5374641 9.518005 0.59430885
v -0.013906479 10.751362 -0.24002075
v -1.7188396 11.041563 0.8482361
v -0.19528198 12.093544 0.19528198
v -1.4649143 12.782772 0.7394104
v 0.05864525 12.927874 0.19528198
v -0.70313454 14.16123 -0.16746902
v -2.589445 14.270056 -0.24002075
v -3.0972977 12.927874 0.23155785
v -12.383745 12.819048 0.95706177
v -14.01613 13.762201 -0.42139626
v -12.565123 13.290625 -0.9655247
v -15.721064 13.653376 1.4286385
v -14.632807 12.782772 2.661995
v -16.519117 13.3269005 2.299244
v -16.95442 11.29549 2.7708206
v -16.519117 13.3269005 2.299244
v -14.632807 12.782772 2.661995
v -14.632807 11.186665 2.5531693
v -16.700495 10.062134 2.8070965
v -12.710222 10.751362 0.9933357
v -12.383745 12.819048 0.95706177
v -15.0681095 9.40918 2.7708206
v -12.093544 12.093544 -0.31257057
v -12.565123 13.290625 -0.9655247
v -12.2749195 9.844482 -0.3851204
v -12.855324 9.300354 1.2109871
v -12.746498 8.611126 -1.0380745
v -15.4308605 8.7562275 2.5531693
v -16.990694 8.865053 2.589445
v -14.30633 8.066998 0.70313454
v -14.415155 7.9944477 0.6305847
v -4.6208553 10.932737 -0.6753235
v -6.144413 14.233782 0.15900612
v -4.43948 13.725927 -1.183176
v -6.071863 10.932737 1.7913895
v -3.8953514 9.445456 -1.2920017
v -0.59430885 0.15900612 3.5325985
v 2.235155 2.4443436 6.797367
v 2.3077068 0.15900612 6.761091
v -0.6668587 1.9002151 3.8228016
v -2.9159222 0.15900612 1.2109871
v -2.9159222 1.7188396 0.8119602
v 2.3439808 3.8590755 5.128708
v -0.52175903 3.7502499 3.6414242
v -3.0610218 2.262968 1.4649143
v 2.7067327 4.802231 4.43948
v -2.7708206 4.004177 0.8119602
v 0.022369385 5.1649837 2.8433704
v -0.88451004 6.833641 0.013906479
v 8.438213 2.7708206 7.595421
v 10.72355 0.12273216 7.160118
v 8.909791 0.12273216 7.4503193
v 10.904926 2.8796463 7.7042465
v 15.0402975 1.6825657 5.8904877
v 14.49617 0.013906479 5.9630375
v -5.128708 4.9473324 -0.89297295
v -4.1855526 6.2532387 -1.0743504
v -0.88451004 6.833641 0.013906479
v -2.7708206 4.004177 0.8119602
v -5.854212 2.0090408 -0.34884644
v -4.475754 1.9002151 0.95706177
v -3.0610218 2.262968 1.4649143
v 0.022369385 5.1649837 2.8433704
v 2.4890823 6.833641 5.092432
v 2.5616322 5.128708 4.6208553
v 1.2557259 6.833641 3.351223
v 1.8361282 10.388611 3.4600487
v 3.6136131 10.388611 4.729681
v 12.138283 4.9110565 6.2532387
v 14.822647 5.2738094 5.9993114
v 11.993181 4.6208553 5.491459
v 9.453918 4.8747807 5.9267616
v -4.1855526 6.2532387 -1.0743504
v -3.8953514 9.445456 -1.2920017
v -0.70313454 9.808207 0.15900612
v -0.88451004 6.833641 0.013906479
v 3.4322367 7.7042465 6.3257885
v 3.6136131 10.388611 4.729681
v 9.453918 10.388611 4.729681
v 9.453918 7.595421 5.455185
v 14.56872 10.279785 6.9424667
v 15.221674 7.885622 6.108137
v 14.822647 5.2738094 5.9993114
v 12.138283 4.9110565 6.2532387
v 9.453918 5.3100834 6.2532387
v 5.1734457 5.491459 6.0355873
v 9.453918 4.8747807 5.9267616
v 5.391097 3.6777 5.9993114
v 3.9400892 3.7502499 6.3620644
v 3.9038143 4.1492767 6.797367
v 9.453918 3.7865257 6.2895145
v -6.180689 0.15900612 -0.13119507
v -7.6316967 0.15900612 1.7551155
v -7.7042465 1.5011883 1.610014
v -6.108137 1.5374641 -0.78414726
v -7.3414936 5.781662 1.1021614
v -7.0875683 6.507166 0.19528198
v -4.1855526 6.2532387 -1.0743504
v -10.316059 6.2895145 0.77568436
v -10.316059 6.3257885 -0.49394608
v -12.166094 6.216963 -0.5664978
v -12.311195 5.8904877 0.6305847
v -16.374018 5.8904877 3.3874989
v -4.1855526 6.2532387 -1.0743504
v -6.869917 8.7562275 0.6668587
v -3.8953514 9.445456 -1.2920017
v -7.0875683 6.507166 0.19528198
v -9.590555 8.357199 -0.31257057
v -10.316059 6.3257885 -0.49394608
v -7.6316967 4.366928 0.52175903
v -7.6316967 4.765955 1.3560886
v -5.128708 4.9473324 -0.89297295
v -10.243509 5.1649837 0.70313454
v -7.6316967 0.15900612 1.7551155
v -9.989584 1.6825657 1.247263
v -7.7042465 1.5011883 1.610014
v -9.554281 0.15900612 2.2266922
v -10.787638 1.5011883 1.6462898
v -11.005289 0.15900612 1.8639412
v -11.331766 1.2835369 1.1747112
v -11.585691 0.15900612 1.2835369
v -12.020994 1.936491 1.1384373
v -15.612238 2.1178665 2.988472
v -11.9121685 2.5531693 1.7188396
v -10.751362 1.7551155 1.0658875
v -9.989584 1.6825657 1.247263
v -16.990694 8.865053 2.589445
v -12.746498 8.611126 -1.0380745
v -12.166094 6.216963 -0.5664978
v -16.374018 5.8904877 3.3874989
v -11.9121685 2.5531693 1.7188396
v -15.612238 2.1178665 2.988472
v -15.68479 4.076727 2.8796463
v -12.492571 4.6208553 0.34038353
v -16.374018 5.8904877 3.3874989
v -12.311195 5.8904877 0.6305847
v -10.243509 5.1649837 0.70313454
v -12.492571 4.6208553 0.34038353
v -10.316059 6.2895145 0.77568436
v -7.6316967 4.765955 1.3560886
v -7.3414936 5.781662 1.1021614
v 2.4890823 6.833641 5.092432
v 3.6136131 10.388611 4.729681
v 3.4322367 7.7042465 6.3257885
v 2.5616322 5.128708 4.6208553
v 2.7430086 4.8747807 5.781662
v 3.9038143 4.1492767 6.797367
v 3.323411 3.9316273 5.745386
v 3.9400892 3.7502499 6.3620644
v 3.323411 3.9316273 5.745386
v 2.996935 4.5120296 5.1649837
v 2.7430086 4.8747807 5.781662
v 2.5616322 5.128708 4.6208553
v 2.7067327 4.802231 4.43948
v 2.3439808 3.8590755 5.128708
v 2.7067327 4.802231 4.43948
v 2.996935 4.5120296 5.1649837
v 3.323411 3.9316273 5.745386
v 2.235155 2.4443436 6.797367
v 3.9400892 3.7502499 6.3620644
v 4.411667 2.1904182 7.4503193
v 2.3077068 0.15900612 6.761091
v 4.048915 0.15900612 6.797367
v 8.438213 0.12273216 6.6522655
v 5.391097 3.6777 5.9993114
v 8.111736 2.625719 6.7248154
v 9.453918 3.7865257 6.2895145
v 3.9038143 4.1492767 6.797367
v 3.4322367 7.7042465 6.3257885
v 5.1734457 5.491459 6.0355873
v 9.453918 3.7865257 6.2895145
v 9.453918 4.8747807 5.9267616
v 11.993181 4.6208553 5.491459
v 14.56872 3.4600487 5.9267616
v 14.822647 5.2738094 5.9993114
v 10.904926 2.8796463 7.7042465
v 8.438213 2.7708206 7.595421
v -10.316059 6.3257885 -0.49394608
v -12.166094 6.216963 -0.5664978
v -12.746498 8.611126 -1.0380745
v -9.590555 8.357199 -0.31257057
v -10.134684 2.1178665 1.7188396
v -11.9121685 2.5531693 1.7188396
v -12.492571 4.6208553 0.34038353
v -10.243509 5.1649837 0.70313454
v -7.559145 2.1178665 1.7913895
v -7.6316967 4.366928 0.52175903
v -5.854212 2.0090408 -0.34884644
v -5.128708 4.9473324 -0.89297295
v -9.989584 1.6825657 1.247263
v -7.559145 2.1178665 1.7913895
v -7.7042465 1.5011883 1.610014
v -10.134684 2.1178665 1.7188396
v -11.9121685 2.5531693 1.7188396
v -6.108137 1.5374641 -0.78414726
v -5.854212 2.0090408 -0.34884644
v -4.475754 1.9002151 0.95706177
v -6.180689 0.15900612 -0.13119507
v -4.729681 0.15900612 1.3560886
v -7.7042465 1.5011883 1.610014
v -7.559145 2.1178665 1.7913895
v -5.854212 2.0090408 -0.34884644
v -6.108137 1.5374641 -0.78414726
v 10.86865 6.9424667 5.5640106
v 10.215697 7.522871 5.7091103
v 11.231403 7.813072 5.781662
v 10.288248 6.6522655 5.455185
v 9.635294 7.595421 5.2738094
v 9.7803955 8.57485 5.854212
v 9.925496 7.6679707 5.8904877
v 9.635294 7.595421 5.2738094
v 9.127441 8.7562275 5.092432
v 8.547039 9.33663 4.6208553
v 9.490193 9.082703 5.817936
v 9.490193 9.26408 6.144413
v 8.438213 9.917032 4.657131
v 9.453918 9.880758 6.2532387
v 11.63043 9.191528 6.761091
v 11.70298 9.663107 6.869917
v 13.190263 8.973877 5.6365604
v 11.63043 9.191528 6.761091
v 11.70298 9.663107 6.869917
v 13.444189 9.699381 5.6728363
v 11.521605 8.538576 6.2532387
v 9.490193 9.082703 5.817936
v 11.521605 8.937603 6.2532387
v 9.7803955 8.57485 5.854212
v 9.925496 7.6679707 5.8904877
v 12.609859 8.57485 5.455185
v 11.521605 8.937603 6.2532387
v 13.190263 8.973877 5.6365604
v 11.63043 9.191528 6.761091
v 9.490193 9.26408 6.144413
v 9.490193 9.082703 5.817936
v 11.956906 8.212099 5.3100834
v 11.521605 8.538576 6.2532387
v 12.609859 8.57485 5.455185
v 11.231403 8.030724 5.9630375
v 9.925496 7.6679707 5.8904877
v 11.231403 7.813072 5.781662
v 10.86865 6.9424667 5.5640106
v 10.215697 7.522871 5.7091103
v 9.635294 7.595421 5.2738094
v 9.453918 9.880758 6.2532387
v 8.438213 9.917032 4.657131
v 13.444189 9.699381 5.6728363
v 11.70298 9.663107 6.869917
v 10.106872 14.378881 5.5277348
v 7.894085 14.669085 5.418909
v 8.873515 16.700495 5.2738094
v 7.821535 16.95442 5.092432
v 7.168582 16.301466 4.9110565
v 7.096031 14.632807 5.056158
v 6.6244535 15.974989 3.351223
v 7.168582 16.301466 4.9110565
v 7.096031 14.632807 5.056158
v 7.4225082 17.389723 3.5325985
v 7.821535 16.95442 5.092432
v 7.4225082 17.389723 3.5325985
v 9.0911665 17.280897 3.9679012
v 7.821535 16.95442 5.092432
v 8.873515 16.700495 5.2738094
v 10.977476 15.249487 4.2218285
v 10.106872 14.378881 5.5277348
v 16.019728 16.700495 5.6365604
v 17.833487 15.757338 5.418909
v 17.216808 15.249487 7.595421
v 15.693251 15.249487 7.6316967
v 14.641271 15.539686 7.6316967
v 14.423619 16.410292 5.6002846
v 13.262814 15.394587 6.180689
v 15.7295265 13.907305 5.854212
v 17.216808 15.249487 7.595421
v 16.890333 14.124956 6.47089
v 15.693251 15.249487 7.6316967
v 14.641271 15.539686 7.6316967
v 13.262814 15.394587 6.180689
v 13.045162 14.487707 5.6365604
v 14.858922 14.777906 6.6522655
v 13.008886 14.233782 6.6885414
v 14.459894 14.088678 7.4503193
v 12.392208 13.653376 6.869917
v 15.112848 14.16123 7.7767963
v 16.38248 14.451433 6.5797157
v 16.16483 13.508276 7.4140453
v 16.16483 13.508276 7.4140453
v 15.656976 12.565123 7.0875683
v 15.112848 14.16123 7.7767963
v 14.49617 12.746498 7.160118
v 14.459894 14.088678 7.4503193
v 12.392208 13.653376 6.869917
v 12.646135 12.927874 6.6522655
v 13.045162 14.487707 5.6365604
v 13.008886 14.233782 6.6885414
v 12.718685 13.689653 5.491459
v 12.392208 13.653376 6.869917
v 1.908678 1.1384373 5.8904877
v 1.3645515 0.88451004 6.0355873
v 1.545927 1.936491 6.2895145
v 2.3439808 2.1541424 6.216963
v 1.5822029 2.4806194 6.6885414
v 2.7430086 2.4443436 5.9630375
v 1.6184769 2.7708206 6.6522655
v 1.3645515 0.88451004 6.0355873
v 1.0017986 0.8119602 5.7091103
v 0.89297295 1.57374 5.781662
v 1.545927 1.936491 6.2895145
v 0.7478733 1.6825657 5.8904877
v 1.5822029 2.4806194 6.6885414
v 0.42139626 2.262968 5.817936
v 0.20374489 2.6982708 5.6728363
v 1.6184769 2.7708206 6.6522655
v 1.4733772 3.024746 7.0512924
v 0.20374489 2.6982708 5.6728363
v 0.13119507 3.5688744 5.7091103
v 1.4733772 3.4600487 7.160118
v 3.1420355 2.8796463 6.3257885
v 1.4733772 3.4600487 7.160118
v 3.7587137 3.4237747 6.3620644
v 1.4733772 3.024746 7.0512924
v 3.0694847 2.6982708 6.2895145
v 1.6184769 2.7708206 6.6522655
v 2.7430086 2.4443436 5.9630375
v 0.20374489 2.6982708 5.6728363
v 0.20374489 2.6982708 5.6728363
v 0.3851204 2.9159222 3.6414242
v 0.60277176 3.4963245 3.4237747
v 0.13119507 3.5688744 5.7091103
v 0.42139626 2.262968 5.817936
v 0.3851204 2.9159222 3.6414242
v 0.20374489 2.6982708 5.6728363
v 0.60277176 2.3717937 4.113003
v 0.856699 1.57374 4.5845795
v 0.7478733 1.6825657 5.8904877
v 0.89297295 1.57374 5.781662
v 1.0017986 0.8119602 5.7091103
v 0.9292488 0.8482361 5.3100834
v 0.13119507 3.5688744 5.7091103
v 0.60277176 3.4963245 3.4237747
v 3.7587137 3.4237747 6.3620644
v 1.4733772 3.4600487 7.160118
v 16.309929 13.834753 5.9993114
v 13.952042 15.176935 6.9424667
v 15.947178 14.92301 6.7248154
v 13.843216 13.508276 6.108137
v 12.355934 15.213209 6.5797157
v 13.008886 13.617102 5.9267616
v 16.16483 15.4308605 5.854212
v 15.947178 14.92301 6.7248154
v 15.7295265 15.68479 5.817936
v 13.952042 15.176935 6.9424667
v 13.335363 15.974989 5.6728363
v 12.355934 15.213209 6.5797157
v 11.485329 15.612238 5.2012577
v -5.128708 4.9473324 -0.89297295
v -7.6316967 4.765955 1.3560886
v -7.3414936 5.781662 1.1021614
v -4.1855526 6.2532387 -1.0743504
v -11.585691 0.15900612 1.2835369
v -14.959284 0.15900612 3.2423973
v -15.612238 2.1178665 2.988472
v -12.020994 1.936491 1.1384373
v -11.331766 1.2835369 1.1747112
v -10.751362 1.7551155 1.0658875
v 8.438213 0.12273216 6.6522655
v 8.111736 2.625719 6.7248154
v 8.438213 2.7708206 7.595421
v 8.909791 0.12273216 7.4503193
v -4.729681 0.15900612 1.3560886
v -4.475754 1.9002151 0.95706177
v -2.9159222 1.7188396 0.8119602
v -2.9159222 0.15900612 1.2109871
v 7.132306 18.62308 -0.6753235
v 9.381368 16.301466 -0.89297295
v 9.163717 16.990694 2.0453167
v 8.365663 16.80932 -2.235155
v 5.2097216 16.845594 -4.1214657
v 3.8675394 18.187777 -2.960659
v 3.3959618 15.938715 -5.2459965
v 0.71159744 16.228914 2.262968
v -0.41293335 13.834753 0.30410767
v 1.183176 16.845594 1.0658875
v 2.8155584 17.317171 -1.0017986
v 1.2557259 15.394587 -2.996935
v 3.8675394 18.187777 -2.960659
v 3.3959618 15.938715 -5.2459965
v -0.41293335 13.834753 0.30410767
v 0.71159744 16.228914 2.262968
v 3.1783104 16.156366 4.2218285
v 3.8675394 15.140661 4.5845795
v 3.8675394 15.140661 4.5845795
v 3.1783104 16.156366 4.2218285
v 4.9195194 14.959284 4.403204
v 3.7587137 17.24462 3.1698475
v 0.71159744 16.228914 2.262968
v 6.9872055 16.773043 3.314949
v 1.183176 16.845594 1.0658875
v 5.3185472 17.7162 1.5011883
v 9.163717 16.990694 2.0453167
v 2.8155584 17.317171 -1.0017986
v 7.132306 18.62308 -0.6753235
v 3.8675394 18.187777 -2.960659
v 10.578449 14.92301 5.781662
v 11.231403 15.104383 5.019882
v 10.941201 14.814184 5.6728363
v 10.433349 15.612238 4.9473324
v 9.81667 14.7053585 5.3463593
v 11.521605 16.446566 3.4237747
v 10.759825 16.664217 3.4963245
v 7.894085 14.596533 5.382633
v 6.152876 15.793615 4.5120296
v 6.479353 14.959284 5.2012577
v 6.479353 14.959284 5.2012577
v 6.479353 13.907305 4.9836063
v 5.9715004 15.285761 4.2581024
v 6.152876 15.793615 4.5120296
v 6.443078 16.736769 3.8590755
v 6.116601 15.757338 3.3874989
v 7.241132 16.627943 2.9159222
v 7.096031 17.46227 1.57374
v 11.086302 17.24462 3.4600487
v 7.241132 16.627943 2.9159222
v 11.521605 17.24462 1.4649143
v 11.884356 17.026972 3.1335716
v 13.66184 16.555391 2.4080677
v 11.811806 16.845594 0.30410767
v 8.873515 16.80932 -0.20374489
v 6.6607285 15.575964 0.12273216
v 10.360798 13.54455 5.491459
v 10.941201 14.814184 5.6728363
v 10.796101 13.653376 5.418909
v 10.578449 14.92301 5.781662
v 9.81667 14.7053585 5.3463593
v 7.930361 13.54455 5.781662
v 7.894085 14.596533 5.382633
v 6.479353 13.907305 4.9836063
v 6.479353 14.959284 5.2012577
v 10.759825 16.664217 3.4963245
v 11.086302 17.24462 3.4600487
v 11.884356 17.026972 3.1335716
v 11.521605 16.446566 3.4237747
v -5.745386 17.09952 -4.1577406
v -6.3620644 16.011263 -5.6450233
v -3.713976 15.721064 -4.4842176
v -9.844482 15.866163 -6.152876
v -9.844482 17.135794 -4.4479427
v -13.54455 15.648512 -4.048915
v -9.953308 13.363176 0.3766575
v -13.762201 12.927874 -0.24002075
v -13.435726 15.140661 -1.3645515
v -9.989584 14.088678 0.15900612
v -6.6522655 14.415155 0.6305847
v -10.025858 16.083815 -0.89297295
v -6.144413 15.757338 -0.34884644
v -3.024746 13.181799 -1.0743504
v -5.6365604 16.555391 -0.53022194
v -10.025858 16.083815 -0.89297295
v -13.435726 15.140661 -1.3645515
v -13.54455 15.648512 -4.048915
v -9.844482 17.135794 -4.4479427
v -5.6365604 16.555391 -0.53022194
v -5.745386 17.09952 -4.1577406
v -14.487707 16.120089 -3.0694847
v -15.612238 14.451433 -4.738144
v -14.01613 14.814184 -4.774419
v -17.679922 14.560259 -3.1783104
v -16.95442 15.793615 -1.6184769
v -18.477976 14.560259 -2.1988811
v -18.0064 13.871027 0.34038353
v -18.477976 14.560259 -2.1988811
v -16.95442 15.793615 -1.6184769
v -16.083815 15.176935 -0.022369385
v -17.208345 13.689653 1.610014
v -13.689653 15.213209 -0.8204231
v -14.487707 16.120089 -3.0694847
v -15.612238 14.487707 2.0453167
v -13.3269005 15.176935 -3.1420355
v -14.01613 14.814184 -4.774419
v -12.311195 14.233782 -0.8204231
v -13.181799 14.777906 0.88451004
v -11.694517 13.072975 0.15900612
v -15.4308605 13.834753 2.661995
v -16.700495 12.891598 2.7708206
v -13.435726 13.072975 2.0453167
v -13.435726 12.927874 2.0815926
v -3.9316273 14.560259 -1.9449539
v -5.745386 17.09952 -4.1577406
v -3.713976 15.721064 -4.4842176
v -5.6365604 16.555391 -0.53022194
v -3.024746 13.181799 -1.0743504
v 16.418755 17.788748 2.1904182
v 15.838352 16.700495 0.6668587
v 18.48644 16.410292 1.8276653
v 12.355934 16.555391 0.19528198
v 12.319658 17.825026 1.9002151
v 8.655865 16.33774 2.299244
v 12.247108 14.052404 6.7248154
v 8.438213 13.617102 6.108137
v 8.728415 15.829889 4.9836063
v 12.210833 14.777906 6.507166
v 15.54815 15.104383 6.9787426
v 12.174558 16.773043 5.455185
v 16.019728 16.446566 5.9630375
v 18.087414 13.871027 5.2738094
v 16.52758 17.24462 5.817936
v 12.174558 16.773043 5.455185
v 8.728415 15.829889 4.9836063
v 8.655865 16.33774 2.299244
v 12.319658 17.825026 1.9002151
v 16.52758 17.24462 5.817936
v 16.418755 17.788748 2.1904182
v 18.26879 15.249487 4.403204
v 16.418755 17.788748 2.1904182
v 18.48644 16.410292 1.8276653
v 16.52758 17.24462 5.817936
v 18.087414 13.871027 5.2738094
v -3.024746 16.446566 -1.3282757
v -4.6208553 13.689653 -0.6390476
v -6.0355873 14.959284 -3.0332098
v -3.1335716 14.16123 0.12273216
v 0.53022194 14.487707 0.15900612
v 0.9655247 16.265192 -1.0743504
v 2.7430086 13.798479 0.013906479
v 1.0743504 15.974989 -7.495058
v 3.287136 13.54455 -7.0234804
v 1.2557259 16.265192 -6.116601
v 0.9292488 16.011263 -3.4322367
v 3.4322367 14.124956 -3.0332098
v 0.9655247 16.265192 -1.0743504
v 2.7430086 13.798479 0.013906479
v 3.287136 13.54455 -7.0234804
v 1.0743504 15.974989 -7.495058
v -1.9727669 15.757338 -7.9666357
v -2.6982708 14.7053585 -8.184287
v -2.6982708 14.7053585 -8.184287
v -1.9727669 15.757338 -7.9666357
v -3.4600487 14.270056 -7.567609
v -2.0453167 16.519117 -6.515628
v 1.0743504 15.974989 -7.495058
v -4.8385067 15.394587 -5.2097216
v 1.2557259 16.265192 -6.116601
v -2.5531693 16.33774 -4.2302914
v -6.0355873 14.959284 -3.0332098
v 0.9292488 16.011263 -3.4322367
v -3.024746 16.446566 -1.3282757
v 0.9655247 16.265192 -1.0743504
vt 0.88464266 0.9237267
vt 0.93545187 0.63841355
vt 0.8377419 0.7752075
vt 0.88464266 0.9237267
vt 0.8377419 0.7752075
vt 0.8494671 0.94326866
vt 0.25539044 0.7752075
vt 0.0795125 0.6696807
vt 0.091237694 0.7322151
vt 0.25539044 0.7752075
vt 0.091237694 0.7322151
vt 0.10296289 0.7869327
vt 0.052153703 0.7361235
vt 0.075604096 0.7947495
vt 0.10296289 0.7869327
vt 0.69313115 0.93545187
vt 0.68531436 0.99016947
vt 0.8494671 0.94326866
vt 0.57587916 0.11859649
vt 0.67749757 0.14204688
vt 0.70094794 0.12250489
vt 0.0052529145 0.091237694
vt 0.009161313 0.11859649
vt 0.27493244 0.0951461
vt 0.4547188 0.10296289
vt 0.20067286 0.20848967
vt 0.20067286 0.0638789
vt 0.27884084 0.31010804
vt 0.5563372 0.29447442
vt 0.5407036 0.26320723
vt 0.4508104 0.4508104
vt 0.53288674 0.4508104
vt 0.52897835 0.4820776
vt 0.4390852 0.9002763
vt 0.3960928 0.9276351
vt 0.41172642 0.9198183
vt 0.23975685 0.7752075
vt 0.13813849 0.76348233
vt 0.13423008 0.70094794
vt 0.009161313 0.7908411
vt 0.016978111 0.7283067
vt 0.040428508 0.7752075
vt 0.62277997 0.12641329
vt 0.4898944 0.22803167
vt 0.59151274 0.11077969
vt 0.388276 0.9667191
vt 0.42736 0.99407786
vt 0.47816917 0.99016947
vt 0.388276 0.9667191
vt 0.47816917 0.99016947
vt 0.4234516 0.9745359
vt 0.88464266 0.9237267
vt 0.93545187 0.63841355
vt 0.8377419 0.7752075
vt 0.88464266 0.9237267
vt 0.8377419 0.7752075
vt 0.8494671 0.94326866
vt 0.25539044 0.7752075
vt 0.0795125 0.6696807
vt 0.091237694 0.7322151
vt 0.25539044 0.7752075
vt 0.091237694 0.7322151
vt 0.10296289 0.7869327
vt 0.052153703 0.7361235
vt 0.075604096 0.7947495
vt 0.10296289 0.7869327
vt 0.69313115 0.93545187
vt 0.68531436 0.99016947
vt 0.8494671 0.94326866
vt 0.34528363 0.76348233
vt 0.4312684 0.94326866
vt 0.505528 0.7243983
vt 0.34137523 0.95499384
vt 0.16940567 0.8963679
vt 0.19676447 0.75175714
vt 0.048245307 0.8338335
vt 0.03261171 0.58760434
vt 0.048245307 0.8338335
vt 0.19676447 0.75175714
vt 0.20067286 0.59542114
vt 0.0677873 0.3648256
vt 0.20458126 0.4195432
vt 0.35310042 0.57587916
vt 0.19285607 0.34137523
vt 0.34137523 0.42736
vt 0.34137523 0.3022912
vt 0.19676447 0.75175714
vt 0.35310042 0.57587916
vt 0.20067286 0.59542114
vt 0.34528363 0.76348233
vt 0.505528 0.7243983
vt 0.47426078 0.52116156
vt 0.34137523 0.42736
vt 0.4351768 0.24757366
vt 0.34137523 0.3022912
vt 0.38045922 0.22021486
vt 0.075604096 0.27884084
vt 0.19285607 0.34137523
vt 0.34137523 0.3022912
vt 0.38045922 0.22021486
vt 0.25148204 0.5524288
vt 0.3022912 0.63059676
vt 0.27493244 0.5563372
vt 0.24757366 0.65404713
vt 0.21630646 0.5602456
vt 0.29838282 0.7673907
vt 0.25539044 0.7752075
vt 0.13032168 0.57978755
vt 0.0795125 0.6696807
vt 0.075604096 0.59542114
vt 0.075604096 0.59542114
vt 0.0677873 0.57197076
vt 0.056062102 0.6696807
vt 0.0795125 0.6696807
vt 0.091237694 0.7322151
vt 0.052153703 0.7361235
vt 0.10296289 0.7869327
vt 0.8377419 0.7752075
vt 0.69313115 0.93545187
vt 0.8494671 0.94326866
vt 0.67749757 0.7830243
vt 0.63450515 0.9041847
vt 0.49771118 0.8338335
vt 0.6618639 0.56806237
vt 0.7986579 0.59542114
vt 0.93545187 0.63841355
vt 0.22803167 0.49771118
vt 0.27493244 0.5563372
vt 0.25929883 0.51334476
vt 0.25148204 0.5524288
vt 0.21630646 0.5602456
vt 0.12250489 0.544612
vt 0.13032168 0.57978755
vt 0.0677873 0.57197076
vt 0.075604096 0.59542114
vt 0.68531436 0.99016947
vt 0.69313115 0.93545187
vt 0.63450515 0.9041847
vt 0.63059676 0.9745359
vt 0.95108545 0.466444
vt 0.8064747 0.4938028
vt 0.93936026 0.61887157
vt 0.75175714 0.57197076
vt 0.7243983 0.7439403
vt 0.94326866 0.75566554
vt 0.94717705 0.8611923
vt 0.61887157 0.7322151
vt 0.6071464 0.6110548
vt 0.75175714 0.88073426
vt 0.93154347 0.95499384
vt 0.8299251 0.99407786
vt 0.6032379 0.8572839
vt 0.5407036 0.95499384
vt 0.52506995 0.88464266
vt 0.5367952 0.8142915
vt 0.505528 0.69313115
vt 0.49771118 0.59932953
vt 0.56415397 0.5367952
vt 0.49771118 0.59932953
vt 0.6071464 0.6110548
vt 0.65013874 0.5563372
vt 0.75175714 0.57197076
vt 0.69703954 0.4312684
vt 0.7439403 0.4938028
vt 0.8064747 0.4938028
vt 0.7869327 0.4000012
vt 0.95108545 0.466444
vt 0.95108545 0.41172642
vt 0.11468809 0.7204899
vt 0.091237694 0.8260167
vt 0.27102405 0.8221083
vt 0.26320723 0.68140596
vt 0.34919202 0.8181999
vt 0.0716957 0.58369595
vt 0.24366526 0.5563372
vt 0.21630646 0.47816917
vt 0.51725316 0.65013874
vt 0.5524288 0.8260167
vt 0.67749757 0.88855106
vt 0.69703954 0.64232194
vt 0.75566554 0.6579555
vt 0.7673907 0.9159099
vt 0.26320723 0.68140596
vt 0.34919202 0.8181999
vt 0.3374668 0.7283067
vt 0.24366526 0.5563372
vt 0.30619964 0.5485204
vt 0.21630646 0.47816917
vt 0.51725316 0.9080931
vt 0.4938028 0.9706275
vt 0.68140596 0.93936026
vt 0.26711562 0.99407786
vt 0.28274924 0.9237267
vt 0.052153703 0.9041847
vt 0.23975685 0.51334476
vt 0.028703308 0.53288674
vt 0.0716957 0.70876473
vt 0.25148204 0.56415397
vt 0.47816917 0.5524288
vt 0.27884084 0.7165815
vt 0.4938028 0.67749757
vt 0.76348233 0.61887157
vt 0.49771118 0.7204899
vt 0.27884084 0.7165815
vt 0.0716957 0.70876473
vt 0.052153703 0.9041847
vt 0.28274924 0.9237267
vt 0.49771118 0.7204899
vt 0.51725316 0.9080931
vt 0.69703954 0.9276351
vt 0.8181999 0.9745359
vt 0.74784875 0.99798626
vt 0.8260167 0.9120015
vt 0.69703954 0.7204899
vt 0.7947495 0.75175714
vt 0.7869327 0.6618639
vt 0.6071464 0.8260167
vt 0.59542114 0.9120015
vt 0.59932953 0.74784875
vt 0.69313115 0.6657723
vt 0.68922275 0.6149632
vt 0.62668836 0.70876473
vt 0.57197076 0.69703954
vt 0.59932953 0.74784875
vt 0.52506995 0.7361235
vt 0.62668836 0.70876473
vt 0.69703954 0.7204899
vt 0.68922275 0.6149632
vt 0.69313115 0.6657723
vt 0.52506995 0.7361235
vt 0.59932953 0.74784875
vt 0.52897835 0.8025663
vt 0.6071464 0.8260167
vt 0.5524288 0.88464266
vt 0.59542114 0.9120015
vt 0.544612 0.9276351
vt 0.5563372 0.9784443
vt 0.74784875 0.99798626
vt 0.69703954 0.9276351
vt 0.16940567 0.87682587
vt 0.16549727 0.99016947
vt 0.0795125 0.98626107
vt 0.32574162 0.95890224
vt 0.31010804 0.8729175
vt 0.4039096 0.93545187
vt 0.41172642 0.8103831
vt 0.4039096 0.93545187
vt 0.31010804 0.8729175
vt 0.31401643 0.7869327
vt 0.3960928 0.6696807
vt 0.16940567 0.76348233
vt 0.16940567 0.87682587
vt 0.34137523 0.6696807
vt 0.0795125 0.8690091
vt 0.0795125 0.98626107
vt 0.048245307 0.75175714
vt 0.16940567 0.65404713
vt 0.02088651 0.58369595
vt 0.34137523 0.59542114
vt 0.35310042 0.57197076
vt 0.16940567 0.5524288
vt 0.16940567 0.5367952
vt 0.68922275 0.7361235
vt 0.51725316 0.9080931
vt 0.68140596 0.93936026
vt 0.49771118 0.7204899
vt 0.76348233 0.61887157
vt 0.26320723 0.0052529145
vt 0.6032379 0.12250489
vt 0.59932953 0.0052529145
vt 0.27493244 0.0951461
vt 0.009161313 0.009161313
vt 0.0052529145 0.091237694
vt 0.6071464 0.22412327
vt 0.28274924 0.18503927
vt 0.009161313 0.11859649
vt 0.5407036 0.26320723
vt 0.009161313 0.22021486
vt 0.27884084 0.31010804
vt 0.009161313 0.4195432
vt 0.59151274 0.11077969
vt 0.4312684 0.0013445154
vt 0.52116156 0.0013445154
vt 0.4547188 0.10296289
vt 0.20067286 0.0638789
vt 0.20067286 0.0052529145
vt 0.28274924 0.3726424
vt 0.23194006 0.4586272
vt 0.028703308 0.4820776
vt 0.12641329 0.29056603
vt 0.31792483 0.18503927
vt 0.21239807 0.16158888
vt 0.13813849 0.18113087
vt 0.27884084 0.31010804
vt 0.6110548 0.407818
vt 0.5563372 0.29447442
vt 0.3726424 0.4000012
vt 0.3960928 0.58760434
vt 0.59932953 0.58760434
vt 0.3374668 0.29447442
vt 0.20067286 0.29056603
vt 0.34528363 0.25929883
vt 0.4898944 0.27102405
vt 0.7752075 0.38436761
vt 0.74784875 0.57587916
vt 0.99016947 0.58760434
vt 0.99016947 0.4195432
vt 0.93936026 0.4312684
vt 0.98626107 0.57587916
vt 0.4898944 0.57587916
vt 0.52897835 0.4234516
vt 0.20067286 0.57587916
vt 0.20067286 0.407818
vt 0.20067286 0.29056603
vt 0.3374668 0.29447442
vt 0.505528 0.30619964
vt 0.7908411 0.31401643
vt 0.4898944 0.27102405
vt 0.7712991 0.20067286
vt 0.8690091 0.20458126
vt 0.8729175 0.23584846
vt 0.4898944 0.22803167
vt 0.7673907 0.9120015
vt 0.62668836 0.9002763
vt 0.6149632 0.9745359
vt 0.7908411 0.98626107
vt 0.41172642 0.3609172
vt 0.4625356 0.41172642
vt 0.7752075 0.38436761
vt 0.18894768 0.3648256
vt 0.19676447 0.4351768
vt 0.009161313 0.4508104
vt 0.009161313 0.4195432
vt 0.3022912 0.4195432
vt 0.7752075 0.38436761
vt 0.4390852 0.544612
vt 0.74784875 0.57587916
vt 0.4625356 0.41172642
vt 0.24757366 0.5485204
vt 0.19676447 0.4351768
vt 0.42736 0.26711562
vt 0.38436761 0.3022912
vt 0.70485634 0.31010804
vt 0.17722248 0.29838282
vt 0.62668836 0.9002763
vt 0.47816917 0.99016947
vt 0.6149632 0.9745359
vt 0.49771118 0.8963679
vt 0.4234516 0.9745359
vt 0.407818 0.9041847
vt 0.388276 0.9667191
vt 0.37655082 0.9120015
vt 0.009161313 0.083420895
vt 0.28274924 0.09905449
vt 0.009161313 0.11859649
vt 0.052153703 0.0716957
vt 0.083420895 0.075604096
vt 0.25929883 0.17331408
vt 0.56415397 0.16549727
vt 0.57197076 0.03261171
vt 0.25929883 0.0013445154
vt 0.009161313 0.11859649
vt 0.28274924 0.09905449
vt 0.3022912 0.22021486
vt 0.013069713 0.30619964
vt 0.3022912 0.4195432
vt 0.009161313 0.4195432
vt 0.17722248 0.29838282
vt 0.0052529145 0.26320723
vt 0.18894768 0.3648256
vt 0.38436761 0.3022912
vt 0.41172642 0.3609172
vt 0.9784443 0.3960928
vt 0.98626107 0.57587916
vt 0.93936026 0.4312684
vt 0.99407786 0.27884084
vt 0.94326866 0.28274924
vt 0.8729175 0.23584846
vt 0.9159099 0.21630646
vt 0.8690091 0.20458126
vt 0.9159099 0.21630646
vt 0.95499384 0.24366526
vt 0.94326866 0.28274924
vt 0.99407786 0.27884084
vt 0.99798626 0.25148204
vt 0.98626107 0.20458126
vt 0.99798626 0.25148204
vt 0.95499384 0.24366526
vt 0.9159099 0.21630646
vt 0.98626107 0.11468809
vt 0.8690091 0.20458126
vt 0.8416503 0.10687129
vt 0.98626107 0.0052529145
vt 0.8690091 0.0052529145
vt 0.58760434 0.0013445154
vt 0.7712991 0.20067286
vt 0.62277997 0.12641329
vt 0.4898944 0.22803167
vt 0.8729175 0.23584846
vt 0.93936026 0.4312684
vt 0.7908411 0.31401643
vt 0.4898944 0.22803167
vt 0.4898944 0.27102405
vt 0.34528363 0.25929883
vt 0.20067286 0.20848967
vt 0.20067286 0.29056603
vt 0.4547188 0.10296289
vt 0.59151274 0.11077969
vt 0.6735891 0.016978111
vt 0.57197076 0.03261171
vt 0.56415397 0.16549727
vt 0.7322151 0.11859649
vt 0.34919202 0.0052529145
vt 0.25929883 0.03261171
vt 0.23194006 0.11077969
vt 0.34137523 0.13423008
vt 0.4508104 0.0052529145
vt 0.466444 0.0951461
vt 0.58369595 0.0013445154
vt 0.61887157 0.14204688
vt 0.68531436 0.083420895
vt 0.7322151 0.10687129
vt 0.7283067 0.083420895
vt 0.68922275 0.10687129
vt 0.65013874 0.11859649
vt 0.38045922 0.11468809
vt 0.4234516 0.13813849
vt 0.57587916 0.11859649
vt 0.4000012 0.028703308
vt 0.56806237 0.013069713
vt 0.7283067 0.083420895
vt 0.7322151 0.10687129
vt 0.7830243 0.10687129
vt 0.7673907 0.11077969
vt 0.5407036 0.28274924
vt 0.62668836 0.34137523
vt 0.51725316 0.34528363
vt 0.63841355 0.27102405
vt 0.7204899 0.3609172
vt 0.62277997 0.4508104
vt 0.63059676 0.368734
vt 0.7204899 0.3609172
vt 0.70485634 0.4390852
vt 0.7908411 0.4898944
vt 0.65013874 0.485986
vt 0.63450515 0.5016196
vt 0.76348233 0.57587916
vt 0.63450515 0.53288674
vt 0.52897835 0.505528
vt 0.52897835 0.53288674
vt 0.4312684 0.49771118
vt 0.52897835 0.505528
vt 0.52897835 0.53288674
vt 0.41172642 0.52897835
vt 0.53288674 0.4508104
vt 0.65013874 0.485986
vt 0.52897835 0.4820776
vt 0.62277997 0.4508104
vt 0.63059676 0.368734
vt 0.4508104 0.4508104
vt 0.52897835 0.4820776
vt 0.4312684 0.49771118
vt 0.52897835 0.505528
vt 0.63450515 0.5016196
vt 0.65013874 0.485986
vt 0.4625356 0.3960928
vt 0.53288674 0.4508104
vt 0.4508104 0.4508104
vt 0.544612 0.38436761
vt 0.63059676 0.368734
vt 0.51725316 0.34528363
vt 0.5407036 0.28274924
vt 0.62668836 0.34137523
vt 0.7204899 0.3609172
vt 0.69313115 0.52116156
vt 0.7712991 0.57587916
vt 0.4547188 0.57197076
vt 0.5524288 0.505528
vt 0.016978111 0.7283067
vt 0.091237694 0.69703954
vt 0.040428508 0.7752075
vt 0.091237694 0.7673907
vt 0.13813849 0.76348233
vt 0.13423008 0.70094794
vt 0.23975685 0.7752075
vt 0.13813849 0.76348233
vt 0.13423008 0.70094794
vt 0.18503927 0.8181999
vt 0.091237694 0.7673907
vt 0.18503927 0.8181999
vt 0.0052529145 0.8142915
vt 0.091237694 0.7673907
vt 0.040428508 0.7752075
vt 0.009161313 0.7908411
vt 0.016978111 0.7283067
vt 0.59542114 0.9667191
vt 0.4234516 0.95890224
vt 0.4312684 0.94326866
vt 0.56415397 0.93545187
vt 0.61887157 0.93936026
vt 0.65404713 0.9628107
vt 0.70094794 0.93154347
vt 0.57587916 0.88464266
vt 0.4312684 0.94326866
vt 0.4390852 0.9002763
vt 0.56415397 0.93545187
vt 0.61887157 0.93936026
vt 0.70094794 0.93154347
vt 0.4234516 0.95890224
vt 0.58369595 0.9745359
vt 0.4312684 0.94326866
vt 0.56415397 0.94326866
vt 0.41172642 0.9198183
vt 0.62277997 0.94717705
vt 0.67749757 0.9628107
vt 0.69703954 0.9276351
vt 0.69703954 0.9276351
vt 0.6696807 0.8924595
vt 0.62277997 0.94717705
vt 0.57587916 0.88464266
vt 0.56415397 0.94326866
vt 0.41172642 0.9198183
vt 0.4390852 0.9002763
vt 0.4234516 0.95890224
vt 0.4312684 0.94326866
vt 0.3960928 0.9276351
vt 0.41172642 0.9198183
vt 0.44299358 0.28665763
vt 0.53288674 0.26711562
vt 0.52897835 0.3570088
vt 0.4351768 0.3648256
vt 0.51725316 0.446902
vt 0.42736 0.446902
vt 0.52897835 0.4820776
vt 0.53288674 0.26711562
vt 0.65404713 0.27102405
vt 0.6657723 0.34137523
vt 0.52897835 0.3570088
vt 0.65404713 0.3609172
vt 0.51725316 0.446902
vt 0.64623034 0.446902
vt 0.65404713 0.4938028
vt 0.52897835 0.4820776
vt 0.52897835 0.505528
vt 0.65404713 0.4938028
vt 0.65404713 0.53288674
vt 0.52897835 0.53288674
vt 0.4312684 0.5016196
vt 0.52897835 0.53288674
vt 0.42736 0.53288674
vt 0.52897835 0.505528
vt 0.4312684 0.485986
vt 0.52897835 0.4820776
vt 0.42736 0.446902
vt 0.65404713 0.4938028
vt 0.65404713 0.4938028
vt 0.7986579 0.485986
vt 0.7986579 0.53288674
vt 0.65404713 0.53288674
vt 0.64623034 0.446902
vt 0.7986579 0.485986
vt 0.65404713 0.4938028
vt 0.7947495 0.446902
vt 0.75957394 0.3609172
vt 0.65404713 0.3609172
vt 0.6657723 0.34137523
vt 0.65404713 0.27102405
vt 0.74784875 0.28274924
vt 0.58760434 0.16940567
vt 0.6579555 0.20848967
vt 0.3960928 0.23194006
vt 0.47035238 0.16940567
vt 0.016978111 0.7283067
vt 0.091237694 0.7673907
vt 0.040428508 0.7752075
vt 0.091237694 0.69703954
vt 0.13813849 0.76348233
vt 0.13423008 0.70094794
vt 0.009161313 0.7908411
vt 0.040428508 0.7752075
vt 0.016978111 0.8064747
vt 0.091237694 0.7673907
vt 0.11859649 0.8221083
vt 0.13813849 0.76348233
vt 0.23975685 0.7752075
vt 0.70485634 0.31010804
vt 0.38436761 0.3022912
vt 0.41172642 0.3609172
vt 0.7752075 0.38436761
vt 0.37655082 0.9120015
vt 0.12250489 0.9002763
vt 0.083420895 0.99798626
vt 0.34528363 0.99798626
vt 0.388276 0.9667191
vt 0.42736 0.99407786
vt 0.58760434 0.0013445154
vt 0.62277997 0.12641329
vt 0.59151274 0.11077969
vt 0.52116156 0.0013445154
vt 0.56806237 0.013069713
vt 0.57587916 0.11859649
vt 0.70094794 0.12250489
vt 0.7126731 0.028703308
vt 0.34528363 0.76348233
vt 0.4312684 0.94326866
vt 0.505528 0.7243983
vt 0.34137523 0.95499384
vt 0.16940567 0.8963679
vt 0.19676447 0.75175714
vt 0.048245307 0.8338335
vt 0.19285607 0.34137523
vt 0.0677873 0.3648256
vt 0.20458126 0.4195432
vt 0.20067286 0.59542114
vt 0.03261171 0.58760434
vt 0.19676447 0.75175714
vt 0.048245307 0.8338335
vt 0.075604096 0.27884084
vt 0.19285607 0.34137523
vt 0.34137523 0.3022912
vt 0.38045922 0.22021486
vt 0.38045922 0.22021486
vt 0.34137523 0.3022912
vt 0.4351768 0.24757366
vt 0.34137523 0.42736
vt 0.19285607 0.34137523
vt 0.47426078 0.52116156
vt 0.20458126 0.4195432
vt 0.35310042 0.57587916
vt 0.505528 0.7243983
vt 0.20067286 0.59542114
vt 0.34528363 0.76348233
vt 0.19676447 0.75175714
vt 0.25148204 0.5524288
vt 0.3022912 0.63059676
vt 0.27493244 0.5563372
vt 0.24757366 0.65404713
vt 0.21630646 0.5602456
vt 0.29838282 0.7673907
vt 0.25539044 0.7752075
vt 0.13032168 0.57978755
vt 0.0795125 0.6696807
vt 0.075604096 0.59542114
vt 0.075604096 0.59542114
vt 0.0677873 0.57197076
vt 0.056062102 0.6696807
vt 0.0795125 0.6696807
vt 0.091237694 0.7322151
vt 0.052153703 0.7361235
vt 0.10296289 0.7869327
vt 0.8377419 0.7752075
vt 0.69313115 0.93545187
vt 0.8494671 0.94326866
vt 0.67749757 0.7830243
vt 0.63450515 0.9041847
vt 0.49771118 0.8338335
vt 0.6618639 0.56806237
vt 0.7986579 0.59542114
vt 0.93545187 0.63841355
vt 0.22803167 0.49771118
vt 0.27493244 0.5563372
vt 0.25929883 0.51334476
vt 0.25148204 0.5524288
vt 0.21630646 0.5602456
vt 0.12250489 0.544612
vt 0.13032168 0.57978755
vt 0.0677873 0.57197076
vt 0.075604096 0.59542114
vt 0.68531436 0.99016947
vt 0.69313115 0.93545187
vt 0.63450515 0.9041847
vt 0.63059676 0.9745359
vt 0.51725316 0.9080931
vt 0.4938028 0.9706275
vt 0.68140596 0.93936026
vt 0.26711562 0.99407786
vt 0.28274924 0.9237267
vt 0.052153703 0.9041847
vt 0.23975685 0.51334476
vt 0.028703308 0.53288674
vt 0.0716957 0.70876473
vt 0.25148204 0.56415397
vt 0.47816917 0.5524288
vt 0.27884084 0.7165815
vt 0.4938028 0.67749757
vt 0.76348233 0.61887157
vt 0.49771118 0.7204899
vt 0.27884084 0.7165815
vt 0.0716957 0.70876473
vt 0.052153703 0.9041847
vt 0.28274924 0.9237267
vt 0.49771118 0.7204899
vt 0.51725316 0.9080931
vt 0.16940567 0.87682587
vt 0.16549727 0.99016947
vt 0.0795125 0.98626107
vt 0.32574162 0.95890224
vt 0.31010804 0.8729175
vt 0.4039096 0.93545187
vt 0.41172642 0.8103831
vt 0.4039096 0.93545187
vt 0.31010804 0.8729175
vt 0.31401643 0.7869327
vt 0.3960928 0.6696807
vt 0.16940567 0.76348233
vt 0.16940567 0.87682587
vt 0.34137523 0.6696807
vt 0.0795125 0.8690091
vt 0.0795125 0.98626107
vt 0.048245307 0.75175714
vt 0.16940567 0.65404713
vt 0.02088651 0.58369595
vt 0.34137523 0.59542114
vt 0.35310042 0.57197076
vt 0.16940567 0.5524288
vt 0.16940567 0.5367952
vt 0.68922275 0.7361235
vt 0.51725316 0.9080931
vt 0.68140596 0.93936026
vt 0.49771118 0.7204899
vt 0.76348233 0.61887157
vt 0.51725316 0.9080931
vt 0.4938028 0.9706275
vt 0.68140596 0.93936026
vt 0.26711562 0.99407786
vt 0.28274924 0.9237267
vt 0.052153703 0.9041847
vt 0.23975685 0.51334476
vt 0.028703308 0.53288674
vt 0.0716957 0.70876473
vt 0.25148204 0.56415397
vt 0.47816917 0.5524288
vt 0.27884084 0.7165815
vt 0.4938028 0.67749757
vt 0.76348233 0.61887157
vt 0.49771118 0.7204899
vt 0.27884084 0.7165815
vt 0.0716957 0.70876473
vt 0.052153703 0.9041847
vt 0.28274924 0.9237267
vt 0.49771118 0.7204899
vt 0.51725316 0.9080931
vt 0.68922275 0.7361235
vt 0.51725316 0.9080931
vt 0.68140596 0.93936026
vt 0.49771118 0.7204899
vt 0.76348233 0.61887157
vt 0.34528363 0.76348233
vt 0.4312684 0.94326866
vt 0.505528 0.7243983
vt 0.34137523 0.95499384
vt 0.16940567 0.8963679
vt 0.19676447 0.75175714
vt 0.048245307 0.8338335
vt 0.19285607 0.34137523
vt 0.0677873 0.3648256
vt 0.20458126 0.4195432
vt 0.20067286 0.59542114
vt 0.03261171 0.58760434
vt 0.19676447 0.75175714
vt 0.048245307 0.8338335
vt 0.075604096 0.27884084
vt 0.19285607 0.34137523
vt 0.34137523 0.3022912
vt 0.38045922 0.22021486
vt 0.38045922 0.22021486
vt 0.34137523 0.3022912
vt 0.4351768 0.24757366
vt 0.34137523 0.42736
vt 0.19285607 0.34137523
vt 0.47426078 0.52116156
vt 0.20458126 0.4195432
vt 0.35310042 0.57587916
vt 0.505528 0.7243983
vt 0.20067286 0.59542114
vt 0.34528363 0.76348233
vt 0.19676447 0.75175714
vn -0.84166896 0.337461 0.42156073
vn -0.936208 0.053843975 0.34729722
vn -0.936208 0.053843975 0.34729722
vn -0.84166896 0.337461 0.42156073
vn -0.936208 0.053843975 0.34729722
vn -0.84166896 0.27443504 0.46505782
vn 0.10372096 -0.7024679 0.70411706
vn -0.652591 -0.35582495 0.66896456
vn -0.55805194 0.022331 0.8295055
vn 0.009181976 0.46351302 0.88604254
vn 0.009181976 0.46351302 0.88604254
vn 0.009181976 0.46351302 0.88604254
vn -0.87318194 0.27443504 0.40278867
vn -0.84166896 0.337461 0.42156073
vn -0.84166896 0.27443504 0.46505782
vn 0.135234 -0.89154595 0.43227026
vn 0.10372096 -0.7024679 0.70411706
vn -0.84166896 0.27443504 0.46505782
vn -0.55805194 0.21140897 0.80242395
vn -0.55805194 -0.22977298 0.79735965
vn -0.52653897 -0.51338995 0.67763376
vn -0.52653897 -0.51338995 0.67763376
vn -0.55805194 -0.22977298 0.79735965
vn -0.71561694 0.116870046 0.6886463
vn 0.16674697 0.68410397 0.71006846
vn 0.10372096 0.40048707 0.91041315
vn 0.29279894 0.58956504 0.75278276
vn -0.68410397 -0.040694952 0.72824836
vn -0.810156 -0.29279894 0.5078544
vn -0.71561694 -0.607929 0.3439691
vn 0.41885096 -0.57641596 0.701647
vn 0.16674697 -0.41885096 0.89261377
vn 0.040694952 -0.67095494 0.7403806
vn -0.936208 -0.26128596 -0.2350408
vn -0.936208 -0.26128596 -0.2350408
vn -0.936208 -0.26128596 -0.2350408
vn -0.810156 -0.48187697 0.3338291
vn -0.810156 -0.48187697 0.3338291
vn -0.810156 -0.48187697 0.3338291
vn 0.95457196 0.08535707 0.28549352
vn 0.95457196 0.08535707 0.28549352
vn 0.95457196 0.08535707 0.28549352
vn -0.621078 0.778643 0.0893151
vn 0.040694952 0.55805194 0.82880753
vn -0.40048707 0.84166896 0.3622202
vn -0.27443504 0.90469503 0.3259023
vn -0.27443504 0.90469503 0.3259023
vn -0.27443504 0.90469503 0.3259023
vn -0.27443504 0.90469503 0.3259023
vn -0.27443504 0.90469503 0.3259023
vn -0.27443504 0.90469503 0.3259023
vn -0.84166896 0.52653897 -0.11979184
vn -0.93035257 0.36666626 -0
vn -0.93035257 0.36666626 -0
vn -0.84166896 0.52653897 -0.11979184
vn -0.93035257 0.36666626 -0
vn -0.84166896 0.52653897 -0.11979184
vn 0.10372096 0.43200004 0.89588946
vn -0.652591 0.495026 0.57364994
vn -0.55805194 0.778643 0.28686774
vn 0.009181976 0.99923396 -0.03804209
vn 0.009181976 0.99923396 -0.03804209
vn 0.009181976 0.99923396 -0.03804209
vn -0.87318194 0.46351302 -0.150695
vn -0.84166896 0.52653897 -0.11979184
vn -0.84166896 0.52653897 -0.11979184
vn 0.135234 0.116870046 0.9838969
vn 0.10372096 0.43200004 0.89588946
vn -0.84166896 0.52653897 -0.11979184
vn 0.16674697 0.87318194 0.45798334
vn 0.48187697 0.74713004 0.45781144
vn 0.48187697 0.74713004 0.45781144
vn 0.16674697 0.87318194 0.45798334
vn -0.30594802 0.87318194 0.37940624
vn -0.24292207 0.90469503 0.35002255
vn -0.43200004 0.84166896 0.3239897
vn -0.90469503 0.022331 0.42547414
vn -0.90469503 0.022331 0.42547414
vn -0.71561694 -0.040694952 0.69730645
vn -0.68410397 -0.009181976 0.7293267
vn -0.87318194 -0.07220799 0.48201588
vn -0.652591 -0.135234 0.7455446
vn -0.08535707 -0.135234 0.98713017
vn -0.55805194 -0.35582495 0.74964434
vn -0.022331 -0.29279894 0.95591325
vn 0.26128596 -0.45036393 0.85375756
vn -0.71561694 -0.040694952 0.69730645
vn -0.08535707 -0.135234 0.98713017
vn -0.68410397 -0.009181976 0.7293267
vn -0.14838302 -0.10372096 0.9834757
vn 0.19825995 -0.10372096 0.9746461
vn 0.26128596 -0.26128596 0.92922515
vn -0.022331 -0.29279894 0.95591325
vn 0.48187697 -0.41885096 0.76964825
vn 0.26128596 -0.45036393 0.85375756
vn 0.607929 -0.45036393 0.65390724
vn -0.14838302 -0.98608494 0.074959524
vn -0.14838302 -0.98608494 0.074959524
vn -0.14838302 -0.98608494 0.074959524
vn -0.14838302 -0.98608494 0.074959524
vn -0.022331 -0.73398095 0.67880285
vn 0.38733798 -0.29279894 0.8742071
vn 0.38733798 -0.7024679 0.597083
vn 0.10372096 -0.41885096 0.9021119
vn -0.179896 -0.73398095 0.6549117
vn 0.32431197 -0.67095494 0.66681427
vn 0.10372096 -0.7024679 0.70411706
vn -0.08535707 -0.7654939 0.6377564
vn -0.652591 -0.35582495 0.66896456
vn -0.495026 -0.67095494 0.55205864
vn -0.495026 -0.67095494 0.55205864
vn -0.52653897 -0.79700696 0.2958659
vn -0.936208 -0.22977298 0.26593027
vn -0.652591 -0.35582495 0.66896456
vn -0.55805194 0.022331 0.8295055
vn -0.87318194 0.27443504 0.40278867
vn -0.84166896 0.27443504 0.46505782
vn -0.179896 0.52653897 0.8308996
vn 0.07220799 0.14838302 0.9862903
vn -0.053843975 0.08535707 0.99489444
vn 0.16674697 0.40048707 0.9010025
vn 0.29279894 0.27443504 0.91594446
vn 0.32431197 0.36897397 0.8710224
vn 0.16674697 0.58956504 0.79032177
vn -0.116870046 0.71561694 0.6886464
vn -0.43200004 0.84166896 0.3239897
vn 0.009181976 -0.95457196 0.29783905
vn 0.38733798 -0.7024679 0.597083
vn 0.22693598 -0.97390974 -0
vn -0.022331 -0.73398095 0.67880285
vn -0.179896 -0.73398095 0.6549117
vn -0.08535707 -0.8600329 0.50304824
vn -0.08535707 -0.7654939 0.6377564
vn -0.52653897 -0.79700696 0.2958659
vn -0.495026 -0.67095494 0.55205864
vn 0.10372096 -0.7024679 0.70411706
vn 0.135234 -0.89154595 0.43227026
vn 0.26128596 -0.8600329 0.4382614
vn 0.32431197 -0.67095494 0.66681427
vn -0.053843975 -0.73398095 0.67703235
vn -0.21140897 -0.7654939 0.6077214
vn 0.009181976 -0.26128596 0.96521777
vn -0.337461 -0.41885096 0.84302074
vn -0.24292207 0.053843975 0.9685503
vn 0.040694952 -0.07220799 0.9965591
vn -0.053843975 0.337461 0.93979836
vn -0.68410397 0.053843975 0.72739434
vn -0.74713004 -0.45036393 0.4888446
vn -0.21140897 0.52653897 0.82344574
vn -0.022331 0.71561694 0.6981359
vn -0.08535707 0.71561694 0.6932579
vn -0.52653897 0.40048707 0.74991125
vn -0.30594802 0.621078 0.72156626
vn -0.778643 0.30594802 0.5478238
vn -0.87318194 0.022331 0.48688257
vn -0.936208 -0.009181976 0.35132638
vn -0.87318194 -0.41885096 0.24923317
vn -0.6487565 -0.76099604 -0
vn -0.87318194 -0.41885096 0.24923317
vn -0.74713004 -0.45036393 0.4888446
vn -0.621078 -0.7654939 0.16817
vn -0.337461 -0.41885096 0.84302074
vn -0.58956504 -0.79700696 0.13112193
vn -0.55805194 -0.73398095 0.38710457
vn -0.21140897 -0.7654939 0.6077214
vn -0.21140897 -0.9230589 0.3213541
vn -0.053843975 -0.73398095 0.67703235
vn -0.179896 -0.89154595 0.41567206
vn -0.967721 0.116870046 0.22328788
vn -0.936208 0.08535707 0.3409233
vn -0.71561694 0.14838302 0.68255025
vn -0.58956504 0.08535707 0.80319816
vn -0.46351302 0.179896 0.8676365
vn -0.967721 0.022331 0.25103268
vn -0.55805194 -0.135234 0.81871223
vn -0.778643 -0.29279894 0.55496293
vn -0.936208 0.08535707 0.3409233
vn -0.90469503 0.08535707 0.41742194
vn -0.810156 0.116870046 0.57444644
vn -0.71561694 0.14838302 0.68255025
vn -0.46351302 0.179896 0.8676365
vn -0.74713004 0.08535707 0.6591744
vn -0.58956504 0.08535707 0.80319816
vn -0.46351302 0.179896 0.8676365
vn -0.21140897 0.08535707 0.9736634
vn -0.55805194 -0.135234 0.81871223
vn 0.10372096 -0.135234 0.9853698
vn -0.778643 -0.29279894 0.55496293
vn 0.22977298 0.936208 0.26593024
vn 0.16674697 0.936208 0.3093703
vn 0.41885096 0.90469503 0.07804332
vn -0.14838302 0.936208 0.31858593
vn -0.179896 0.936208 0.30191383
vn -0.43200004 0.87318194 0.22567509
vn -0.24292207 -0.5449029 0.8025395
vn -0.27443504 -0.48187697 0.8321538
vn -0.27443504 -0.45036393 0.84962213
vn -0.21140897 -0.48187697 0.8503533
vn 0.16674697 -0.45036393 0.8771361
vn -0.21140897 -0.41885096 0.88310254
vn 0.135234 -0.607929 0.78239
vn 0.51338995 -0.51338995 0.68764925
vn 0.10372096 -0.7024679 0.70411706
vn -0.24292207 0.36897397 0.8971327
vn -0.36897397 0.337461 0.8660129
vn -0.36897397 0.337461 0.8660129
vn -0.21140897 0.36897397 0.90507704
vn -0.08535707 0.36897397 0.92551196
vn -0.08535707 0.36897397 0.92551196
vn -0.40048707 0.24292207 0.8835151
vn -0.46351302 0.495026 0.7349183
vn -0.27443504 0.46351302 0.8425207
vn -0.43200004 0.21140897 0.8767452
vn -0.36897397 -0.38733798 0.84488314
vn -0.46351302 -0.19825995 0.8636253
vn -0.40048707 -0.7024679 0.5883442
vn 0.009181976 -0.07220799 0.99734735
vn 0.040694952 0.24292207 0.96919185
vn 0.19825995 -0.57641596 0.7927406
vn 0.07220799 -0.79700696 0.59963816
vn 0.16674697 -0.9230589 0.34663764
vn 0.26128596 -0.8600329 0.4382614
vn 0.41885096 -0.8600329 0.29138845
vn 0.19825995 -0.57641596 0.7927406
vn 0.51338995 -0.32431197 0.794514
vn 0.26128596 -0.8600329 0.4382614
vn -0.36897397 -0.38733798 0.84488314
vn 0.16674697 -0.9230589 0.34663764
vn 0.07220799 -0.79700696 0.59963816
vn 0.51338995 -0.32431197 0.794514
vn 0.19825995 -0.57641596 0.7927406
vn 0.51338995 -0.135234 0.8474329
vn 0.009181976 -0.07220799 0.99734735
vn 0.41885096 -0.10372096 0.9021119
vn 0.040694952 0.24292207 0.96919185
vn 0.32431197 0.179896 0.9286868
vn 0.135234 0.495026 0.8582896
vn -0.27443504 0.46351302 0.8425207
vn -0.40048707 0.24292207 0.8835151
vn 0.29279894 0.90469503 0.3095088
vn 0.29279894 0.90469503 0.3095088
vn 0.35582495 0.90469503 0.23434053
vn 0.22977298 0.87318194 0.42983446
vn 0.22977298 0.90469503 0.35879138
vn 0.16674697 0.87318194 0.45798334
vn 0.040694952 0.08535707 0.99551904
vn -0.022331 0.08535707 0.9961001
vn 0.29279894 0.022331 0.95591325
vn 0.35582495 0.022331 0.93428576
vn 0.040694952 -0.040694952 0.9983426
vn 0.82851994 -0.10372096 0.5502696
vn 0.8600329 0.022331 0.50974965
vn 0.32431197 -0.26128596 0.90914875
vn 0.98608494 0.08535707 0.14265567
vn 0.9230589 0.36897397 -0.108721755
vn 0.95457196 -0.19825995 0.22245309
vn 0.73398095 -0.41885096 0.53463614
vn 0.79700696 -0.5449029 0.26050085
vn 0.135234 -0.7024679 0.6987493
vn -0.022331 -0.51338995 0.85786486
vn 0.32431197 -0.8600329 0.39391005
vn 0.19825995 -0.95457196 0.2224531
vn 0.79700696 0.21140897 0.56576157
vn 0.7654939 0.21140897 0.6077214
vn 0.7654939 0.21140897 0.6077214
vn 0.79700696 0.21140897 0.56576157
vn 0.82851994 0.21140897 0.51851803
vn -0.74713004 -0.040694952 0.6634309
vn -0.495026 0.24292207 0.83422905
vn -0.46351302 -0.10372096 0.8799986
vn -0.71561694 0.116870046 0.6886463
vn -0.74713004 0.022331 0.66430265
vn -0.52653897 -0.51338995 0.67763376
vn -0.495026 0.55805194 0.66597843
vn -0.58956504 0.46351302 0.6614898
vn -0.55805194 -0.22977298 0.79735965
vn -0.46351302 0.58956504 0.6614898
vn -0.55805194 0.40048707 0.7267655
vn -0.52653897 0.58956504 0.6125111
vn -0.46351302 0.30594802 0.8315957
vn 0.040694952 -0.135234 0.9899776
vn 0.19825995 -0.135234 0.9707753
vn 0.040694952 -0.135234 0.9899776
vn 0.19825995 -0.135234 0.9707753
vn 0.32431197 -0.16674697 0.93113756
vn 0.32431197 -0.16674697 0.93113756
vn -0.43200004 0.40048707 0.80807555
vn -0.36897397 0.30594802 0.87764114
vn -0.46351302 0.30594802 0.8315957
vn -0.55805194 0.40048707 0.7267655
vn -0.652591 0.022331 0.75738126
vn -0.55805194 0.21140897 0.80242395
vn -0.55805194 -0.22977298 0.79735965
vn -0.68410397 -0.040694952 0.72824836
vn -0.810156 0.116870046 0.57444644
vn -0.810156 -0.29279894 0.5078544
vn -0.74713004 0.053843975 0.6624934
vn -0.652591 0.21140897 0.72762024
vn -0.652591 0.27443504 0.7062651
vn 0.07220799 -0.41885096 0.9051795
vn -0.08535707 -0.040694952 0.99551904
vn 0.07220799 -0.22977298 0.97056186
vn 0.040694952 -0.26128596 0.9644033
vn -0.36897397 0.30594802 0.87764114
vn -0.36897397 0.053843975 0.9278788
vn -0.36897397 0.053843975 0.9278788
vn -0.46351302 0.30594802 0.8315957
vn 0.135234 0.24292207 0.9605731
vn 0.07220799 0.36897397 0.9266306
vn -0.08535707 0.179896 0.9799753
vn -0.022331 0.24292207 0.9697888
vn -0.24292207 -0.040694952 0.96919185
vn -0.179896 -0.040694952 0.9828435
vn -0.08535707 -0.040694952 0.99551904
vn 0.07220799 -0.41885096 0.9051795
vn 0.009181976 -0.22977298 0.9732009
vn 0.10372096 0.116870046 0.98771626
vn 0.040694952 -0.26128596 0.9644033
vn 0.009181976 -0.82851994 0.5598843
vn -0.337461 -0.7654939 0.54784954
vn -0.495026 -0.57641596 0.65014917
vn 0.009181976 -0.82851994 0.5598843
vn 0.79700696 0.14838302 0.5854591
vn 0.79700696 0.14838302 0.5854591
vn 0.79700696 -0.19825995 0.57050234
vn 0.79700696 -0.22977298 0.55855554
vn 0.10372096 0.87318194 0.47623026
vn 0.19825995 0.84166896 0.5022812
vn 0.32431197 0.71561694 0.61863893
vn -0.053843975 0.967721 0.24620502
vn -0.08535707 0.967721 0.23712918
vn -0.022331 0.967721 0.2510327
vn 0.07220799 0.967721 0.24145828
vn 0.19825995 0.936208 0.29018533
vn 0.48187697 -0.10372096 0.8700785
vn 0.16674697 -0.10372096 0.9805291
vn 0.48187697 -0.10372096 0.8700785
vn 0.10372096 -0.10372096 0.9891835
vn -0.21140897 -0.040694952 0.97655016
vn -0.21140897 -0.009181976 0.9773546
vn 0.135234 -0.89154595 0.43227026
vn 0.26128596 -0.73398095 0.6268984
vn 0.607929 -0.26128596 0.74976796
vn -0.24292207 -0.8600329 0.44870064
vn 0.040694952 0.36897397 0.9285484
vn 0.009181976 0.36897397 0.9293944
vn 0.040694952 0.36897397 0.9285484
vn 0.009181976 0.36897397 0.9293944
vn -0.30594802 0.337461 0.89023364
vn -0.40048707 0.337461 0.851898
vn -0.71561694 0.24292207 0.65489024
vn -0.71561694 0.24292207 0.65489024
vn 0.10372096 -0.67095494 0.73420805
vn 0.32431197 -0.63944197 0.6970909
vn 0.10372096 -0.7024679 0.70411706
vn -0.179896 -0.73398095 0.6549117
vn -0.14838302 -0.63944197 0.7543848
vn 0.63944197 0.30594802 0.7053437
vn 0.63944197 0.30594802 0.7053437
vn 0.63944197 0.30594802 0.7053437
vn 0.63944197 0.30594802 0.7053437
vn 0.135234 0.40048707 0.90626806
vn 0.41885096 0.36897397 0.82971203
vn 0.51338995 0.14838302 0.8452297
vn 0.26128596 0.14838302 0.9537883
vn 0.607929 -0.10372096 0.7871876
vn 0.22977298 -0.135234 0.96380293
vn -0.08535707 0.179896 0.9799753
vn 0.26128596 0.14838302 0.9537883
vn -0.116870046 -0.009181976 0.9931048
vn -0.14838302 0.08535707 0.9852394
vn -0.14838302 0.08535707 0.9852394
vn -0.810156 0.116870046 0.57444644
vn -0.652591 0.27443504 0.7062651
vn -0.84166896 0.179896 0.5091471
vn -0.810156 -0.29279894 0.5078544
vn -0.87318194 -0.22977298 0.42983449
vn -0.495026 -0.57641596 0.65014917
vn -0.778643 -0.51338995 0.36075732
vn -0.337461 -0.7654939 0.54784954
vn -0.778643 -0.51338995 0.36075732
vn -0.84166896 -0.51338995 0.16740412
vn -0.87318194 -0.22977298 0.42983449
vn -0.810156 -0.29279894 0.5078544
vn -0.71561694 -0.607929 0.3439691
vn -0.495026 0.55805194 0.66597843
vn -0.46351302 0.58956504 0.6614898
vn -0.58956504 0.52653897 0.61251104
vn -0.40048707 0.621078 0.6737004
vn -0.495026 0.24292207 0.83422905
vn -0.116870046 0.621078 0.77498615
vn -0.022331 0.24292207 0.9697888
vn -0.46351302 -0.10372096 0.8799986
vn -0.053843975 -0.16674697 0.9845285
vn 0.10372096 -0.16674697 0.9805291
vn 0.10372096 0.621078 0.77685523
vn 0.040694952 0.24292207 0.96919185
vn -0.08535707 0.43200004 0.89782524
vn 0.22977298 0.27443504 0.9337504
vn 0.135234 0.24292207 0.9605731
vn 0.10372096 0.116870046 0.98771626
vn 0.040694952 0.55805194 0.82880753
vn 0.040694952 -0.26128596 0.9644033
vn 0.07220799 -0.22977298 0.97056186
vn 0.10372096 0.40048707 0.91041315
vn -0.08535707 -0.040694952 0.99551904
vn 0.16674697 0.68410397 0.71006846
vn -0.40048707 0.84166896 0.3622202
vn -0.21140897 -0.009181976 0.9773546
vn -0.14838302 0.053843975 0.98746306
vn -0.14838302 0.053843975 0.98746306
vn -0.21140897 -0.040694952 0.97655016
vn 0.009181976 0.40048707 0.9162564
vn 0.135234 0.40048707 0.90626806
vn 0.26128596 0.14838302 0.9537883
vn -0.08535707 0.179896 0.9799753
vn 0.51338995 0.022331 0.85786486
vn 0.38733798 0.30594802 0.8696925
vn 0.7024679 -0.19825995 0.6835436
vn 0.607929 0.179896 0.77334327
vn -0.14838302 -0.63944197 0.7543848
vn -0.08535707 -0.51338995 0.85389984
vn -0.08535707 -0.51338995 0.85389984
vn -0.14838302 -0.63944197 0.7543848
vn 0.10372096 -0.7024679 0.70411706
vn -0.71561694 0.116870046 0.6886463
vn -0.652591 0.022331 0.75738126
vn -0.55805194 0.21140897 0.80242395
vn -0.71561694 0.27443504 0.6423222
vn -0.71561694 0.27443504 0.6423222
vn 0.79700696 -0.19825995 0.57050234
vn 0.51338995 0.022331 0.85786486
vn 0.7024679 -0.19825995 0.6835436
vn 0.79700696 -0.22977298 0.55855554
vn 0.07220799 -0.29279894 0.95344365
vn -0.14838302 -0.57641596 0.80357146
vn 0.45036393 -0.48187697 0.7516428
vn -0.24292207 -0.26128596 0.9341941
vn -0.71561694 -0.38733798 0.58125865
vn -0.495026 -0.16674697 0.85272783
vn -0.40048707 -0.57641596 0.7122884
vn -0.71561694 -0.38733798 0.58125865
vn -0.778643 -0.32431197 0.5371563
vn -0.810156 -0.19825995 0.5516705
vn -0.58956504 -0.5449029 0.59623307
vn -0.52653897 -0.48187697 0.7003937
vn -0.84166896 -0.10372096 0.529939
vn -0.58956504 -0.16674697 0.79032177
vn -0.14838302 -0.63944197 0.7543848
vn -0.27443504 -0.16674697 0.94703794
vn 0.5449029 -0.26128596 0.79674995
vn 0.5449029 -0.26128596 0.79674995
vn 0.5449029 -0.26128596 0.79674995
vn 0.5449029 -0.26128596 0.79674995
vn 0.16674697 -0.41885096 0.89261377
vn -0.58956504 -0.5449029 0.59623307
vn 0.040694952 -0.67095494 0.7403806
vn -0.495026 -0.16674697 0.85272783
vn -0.40048707 -0.57641596 0.7122884
vn 0.41885096 -0.57641596 0.701647
vn 0.040694952 -0.67095494 0.7403806
vn 0.35582495 -0.607929 0.7097964
vn -0.14838302 -0.63944197 0.7543848
vn -0.52653897 -0.48187697 0.7003937
vn -0.58956504 -0.5449029 0.59623307
vn 0.51338995 -0.67095494 0.53502357
vn 0.16674697 -0.41885096 0.89261377
vn 0.41885096 -0.57641596 0.701647
vn 0.22977298 -0.51338995 0.8268223
vn -0.40048707 -0.57641596 0.7122884
vn 0.45036393 -0.48187697 0.7516428
vn 0.07220799 -0.29279894 0.95344365
vn -0.14838302 -0.57641596 0.80357146
vn -0.71561694 -0.38733798 0.58125865
vn 0.04069242 0.9991718 -0
vn 0.04069242 0.9991718 -0
vn 0.04069242 0.9991718 -0
vn 0.04069242 0.9991718 -0
vn -0.022331 0.08535707 0.9961001
vn -0.24292207 0.08535707 0.96628314
vn -0.08535707 0.116870046 0.9894724
vn -0.46351302 0.36897397 0.805614
vn -0.74713004 0.27443504 0.6053777
vn -0.68410397 0.08535707 0.72437274
vn -0.90469503 0.30594802 0.29651764
vn -0.74713004 0.27443504 0.6053777
vn -0.68410397 0.08535707 0.72437274
vn -0.810156 0.52653897 0.25768977
vn -0.46351302 0.36897397 0.805614
vn -0.022331 0.967721 0.2510327
vn 0.32431197 0.87318194 0.36383384
vn 0.07220799 0.936208 0.34394848
vn 0.45036393 0.74713004 0.48884457
vn 0.63944197 0.495026 0.58827144
vn 0.63944197 0.40048707 0.6562957
vn 0.135234 0.87318194 0.46825746
vn 0.26128596 0.84166896 0.4725707
vn 0.26128596 0.84166896 0.4725707
vn 0.135234 0.87318194 0.46825746
vn -0.14838302 0.87318194 0.46425828
vn -0.21140897 0.87318194 0.43915775
vn -0.495026 0.778643 0.38557017
vn -0.21140897 -0.7654939 0.6077214
vn -0.08535707 -0.73398095 0.6737849
vn -0.08535707 -0.73398095 0.6737849
vn -0.14838302 -0.7654939 0.62610024
vn -0.337461 -0.7654939 0.54784954
vn -0.43200004 -0.7654939 0.4768595
vn -0.27443504 0.936208 0.21954487
vn -0.08535707 0.87318194 0.47986192
vn -0.30594802 0.778643 0.5478238
vn -0.30594802 0.778643 0.5478238
vn -0.337461 0.58956504 0.73384815
vn 0.10372096 0.810156 0.5769656
vn 0.38733798 0.71561694 0.58125865
vn 0.5449029 0.46351302 0.6987392
vn 0.10372096 -0.35582495 0.92877907
vn -0.053843975 -0.35582495 0.9330002
vn -0.08535707 -0.32431197 0.9420912
vn -0.179896 -0.29279894 0.9390986
vn -0.179896 -0.26128596 0.94834965
vn -0.27443504 -0.29279894 0.91594446
vn -0.27443504 -0.35582495 0.8933499
vn -0.93035257 0.36666626 -0
vn -0.80856484 0.5884071 -0
vn -0.84166896 0.52653897 -0.11979184
vn -0.71561694 0.68410397 -0.14104663
vn 0.26128596 -0.32431197 0.90914875
vn 0.26128596 -0.32431197 0.90914875
vn 0.32431197 -0.32431197 0.8886189
vn 0.35582495 -0.32431197 0.8764761
vn 0.32431197 -0.48187697 0.8140125
vn 0.32431197 -0.5449029 0.7732416
vn 0.07220799 -0.7654939 0.63937867
vn -0.58956504 -0.135234 0.79631954
vn -0.58956504 -0.135234 0.79631954
vn -0.43200004 -0.41885096 0.79871136
vn -0.46351302 -0.32431197 0.82460743
vn -0.337461 -0.5449029 0.7675942
vn -0.52653897 -0.10372096 0.8438001
vn -0.52653897 -0.135234 0.8393262
vn -0.58956504 0.022331 0.80741215
vn -0.58956504 0.022331 0.80741215
vn -0.71561694 -0.07220799 0.6947506
vn -0.71561694 -0.07220799 0.6947506
vn -0.71561694 -0.07220799 0.6947506
vn -0.71561694 -0.07220799 0.6947506
vn 0.26128596 -0.48187697 0.83637565
vn 0.32431197 -0.32431197 0.8886189
vn 0.32431197 -0.32431197 0.8886189
vn 0.135234 -0.607929 0.78239
vn 0.22977298 -0.67095494 0.70499915
vn 0.07220799 -0.7654939 0.63937867
vn 0.32431197 -0.5449029 0.7732416
vn -0.24292207 -0.8600329 0.44870064
vn -0.967721 -0.22977298 -0.10353962
vn -0.9973993 -0.072075404 -0
vn -0.9963713 0.085112534 -0
vn -0.9963713 0.085112534 -0
vn -0.8952109 -0.44564268 -0
vn -0.9973993 -0.072075404 -0
vn -0.967721 -0.22977298 -0.10353962
vn -0.87318194 -0.45036393 -0.18634813
vn -0.9347617 -0.35527524 -0
vn -0.8394366 -0.5434577 -0
vn -0.87318194 -0.48187697 0.073129185
vn -0.9946559 -0.10324576 -0
vn -0.9946559 -0.10324576 -0
vn 0.04069242 0.9991718 -0
vn 0.04069242 0.9991718 -0
vn 0.04069242 0.9991718 -0
vn 0.04069242 0.9991718 -0
vn 0.07220799 -0.48187697 0.87325865
vn -0.08535707 -0.48187697 0.87207156
vn 0.07220799 -0.48187697 0.87325865
vn -0.08535707 -0.48187697 0.87207156
vn -0.21140897 -0.45036393 0.8674552
vn -0.21140897 -0.45036393 0.8674552
vn 0.41885096 0.74713004 0.5161013
vn 0.19825995 0.810156 0.5516705
vn 0.22977298 0.810156 0.53930664
vn 0.040694952 0.84166896 0.5384583
vn -0.08535707 0.84166896 0.533205
vn -0.179896 0.84166896 0.5091471
vn -0.27443504 0.87318194 0.40278867
vn 0.607929 -0.26128596 0.74976796
vn 0.26128596 -0.73398095 0.6268984
vn 0.607929 -0.19825995 0.76884025
vn 0.607929 -0.19825995 0.76884025
vn 0.38733798 0.21140897 0.8973714
vn 0.48187697 0.24292207 0.84189284
vn 0.48187697 0.24292207 0.84189284
vn 0.32431197 0.179896 0.9286868
vn 0.07220799 0.08535707 0.9937304
vn 0.07220799 0.116870046 0.99051875
vn -0.90469503 -0.16674697 0.3920744
vn -0.90469503 -0.16674697 0.3920744
vn -0.90469503 -0.16674697 0.3920744
vn -0.90469503 -0.16674697 0.3920744
vn 0.10372096 0.21140897 0.9718787
vn 0.10372096 0.21140897 0.9718787
vn 0.10372096 0.21140897 0.9718787
vn 0.10372096 0.21140897 0.9718787
vn 0.5449029 0.74713004 -0.38062775
vn 0.7024679 0.68410397 -0.19631767
vn 0.7024679 0.68410397 -0.19631767
vn 0.5449029 0.74713004 -0.38062775
vn 0.22977298 0.74713004 -0.6236995
vn 0.22977298 0.74713004 -0.6236995
vn 0.10372096 0.71561694 -0.6907491
vn -0.652591 0.71561694 0.24903288
vn -0.778643 0.58956504 -0.21477465
vn -0.621078 0.778643 0.0893151
vn -0.52653897 0.84166896 -0.11979197
vn -0.71561694 0.621078 -0.31961617
vn -0.5526002 0.8334465 -0
vn -0.68410397 0.652591 -0.32577097
vn -0.621078 -0.26128596 0.7389126
vn -0.621078 -0.26128596 0.7389126
vn -0.621078 -0.26128596 0.7389126
vn -0.621078 -0.26128596 0.7389126
vn 0.26128596 0.495026 0.82866096
vn 0.009181976 0.71561694 0.6984326
vn 0.16674697 0.621078 0.7658052
vn -0.116870046 0.87318194 0.47317514
vn -0.652591 0.71561694 0.24903288
vn 0.10372096 0.810156 0.5769656
vn -0.621078 0.778643 0.0893151
vn -0.08535707 0.936208 0.3409233
vn 0.10372096 0.90469503 0.4132419
vn -0.52653897 0.84166896 -0.11979197
vn -0.116870046 0.936208 0.33144525
vn -0.5526002 0.8334465 -0
vn -0.022331 0.36897397 0.92917144
vn 0.38733798 0.71561694 0.58125865
vn 0.38733798 0.337461 0.85795647
vn 0.10372096 0.71561694 0.6907491
vn -0.179896 0.337461 0.92399
vn 0.32431197 0.40048707 0.85699
vn 0.10372096 0.43200004 0.89588946
vn -0.08535707 0.337461 0.9374616
vn -0.652591 0.495026 0.57364994
vn -0.495026 0.27443504 0.8243996
vn -0.495026 0.27443504 0.8243996
vn -0.52653897 0.053843975 0.8484442
vn -0.936208 0.116870046 0.33144522
vn -0.652591 0.495026 0.57364994
vn -0.55805194 0.778643 0.28686774
vn -0.87318194 0.46351302 -0.150695
vn -0.84166896 0.52653897 -0.11979184
vn -0.179896 0.967721 -0.17650354
vn 0.07220799 0.967721 0.24145828
vn -0.053843975 0.967721 0.24620502
vn 0.16674697 0.967721 -0.18897493
vn 0.28959987 0.95714784 -0
vn 0.32431197 0.936208 -0.13541158
vn 0.16674697 0.936208 -0.3093703
vn -0.116870046 0.87318194 -0.47317514
vn -0.43200004 0.621078 -0.6539404
vn 0.009181976 -0.009181976 0.9999157
vn 0.38733798 0.337461 0.85795647
vn 0.22977298 -0.22977298 0.9457318
vn -0.022331 0.36897397 0.92917144
vn -0.179896 0.337461 0.92399
vn -0.08535707 0.179896 0.9799753
vn -0.08535707 0.337461 0.9374616
vn -0.52653897 0.053843975 0.8484442
vn -0.495026 0.27443504 0.8243996
vn 0.10372096 0.43200004 0.89588946
vn 0.135234 0.116870046 0.9838969
vn 0.26128596 0.116870046 0.9581603
vn 0.32431197 0.40048707 0.85699
vn 0.19825995 0.74713004 -0.63442075
vn 0.135234 0.778643 -0.61272085
vn 0.35582495 0.68410397 -0.6367027
vn -0.14838302 0.778643 -0.60967004
vn -0.14838302 0.778643 -0.60967004
vn -0.36897397 0.74713004 -0.5528607
vn -0.179896 0.337461 0.92399
vn -0.21140897 0.43200004 0.8767452
vn -0.24292207 0.43200004 0.8685418
vn -0.179896 0.43200004 0.8837496
vn 0.135234 0.495026 0.8582896
vn -0.179896 0.46351302 0.8676365
vn 0.135234 0.30594802 0.94239455
vn 0.41885096 0.27443504 0.8655919
vn 0.10372096 0.14838302 0.9834757
vn -0.179896 0.967721 0.17650354
vn -0.30594802 0.936208 0.17294602
vn -0.30594802 0.936208 0.17294602
vn -0.179896 0.967721 0.17650354
vn -0.08535707 0.967721 0.23712918
vn -0.08535707 0.967721 0.23712918
vn -0.30594802 0.778643 -0.5478238
vn -0.30594802 0.778643 -0.5478238
vn -0.21140897 0.74713004 -0.63016105
vn -0.40048707 0.778643 -0.48303744
vn -0.40048707 0.778643 -0.48303744
vn -0.495026 0.778643 -0.38557017
vn -0.52653897 0.74713004 0.4056519
vn -0.55805194 0.71561694 0.4200838
vn -0.27443504 0.87318194 0.40278867
vn -0.21140897 0.90469503 0.3699096
vn -0.46351302 0.71561694 0.52254
vn 0.38733798 0.90469503 0.1774716
vn 0.41885096 0.90469503 0.07804332
vn -0.116870046 0.778643 0.6164872
vn 0.607929 0.778643 -0.15536228
vn 0.57641596 0.71561694 -0.3945086
vn 0.6681599 0.74401766 -0
vn 0.48187697 0.74713004 0.45781144
vn 0.73398095 0.55805194 0.3871046
vn 0.040694952 0.36897397 0.9285484
vn -0.27443504 0.43200004 0.859105
vn 0.51338995 0.179896 0.8390877
vn 0.51338995 -0.040694952 0.85719
vn 0.76099604 0.6487565 -0
vn 0.7024679 0.68410397 0.19631767
vn 0.7024679 0.68410397 0.19631767
vn 0.73398095 0.652591 0.18814074
vn 0.79700696 0.58956504 0.13112193
vn 0.19825995 0.74713004 -0.63442075
vn 0.135234 0.778643 -0.61272085
vn 0.35582495 0.68410397 -0.6367027
vn -0.14838302 0.778643 -0.60967004
vn -0.14838302 0.778643 -0.60967004
vn -0.36897397 0.74713004 -0.5528607
vn -0.179896 0.337461 0.92399
vn -0.21140897 0.43200004 0.8767452
vn -0.24292207 0.43200004 0.8685418
vn -0.179896 0.43200004 0.8837496
vn 0.19825995 0.46351302 0.8636253
vn -0.179896 0.46351302 0.8676365
vn 0.16674697 0.27443504 0.94703794
vn 0.67095494 0.24292207 0.70057714
vn 0.48187697 0.40048707 0.7793617
vn -0.179896 0.967721 0.17650354
vn -0.30594802 0.936208 0.17294602
vn -0.30594802 0.936208 0.17294602
vn -0.179896 0.967721 0.17650354
vn -0.08535707 0.967721 0.23712918
vn -0.08535707 0.967721 0.23712918
vn 0.7654939 0.495026 0.41105756
vn 0.7024679 0.68410397 0.19631767
vn 0.7024679 0.68410397 0.19631767
vn 0.48187697 0.40048707 0.7793617
vn 0.67095494 0.24292207 0.70057714
vn -0.30594802 0.55805194 0.77134544
vn -0.58956504 0.495026 0.63824946
vn -0.58956504 0.495026 0.63824946
vn -0.337461 0.55805194 0.75808847
vn 0.07220799 0.55805194 0.82665837
vn 0.040694952 0.55805194 0.82880753
vn 0.22977298 0.52653897 0.8185115
vn 0.38733798 0.87318194 -0.29584214
vn 0.7315248 0.68181473 -0
vn 0.44564268 0.8952109 -0
vn 0.41885096 0.90469503 0.07804332
vn 0.70052004 0.71363264 -0
vn 0.44564268 0.8952109 -0
vn 0.70052004 0.71363264 -0
vn 0.16674697 0.022331 -0.9857468
vn 0.16674697 0.022331 -0.9857468
vn 0.16674697 0.022331 -0.9857468
vn 0.16674697 0.022331 -0.9857468
vn -0.68410397 0.55805194 -0.4696592
vn -0.43200004 0.810156 -0.3962616
vn -0.58956504 0.71561694 -0.3745737
vn -0.24292207 0.936208 -0.25397527
vn 0.38733798 0.87318194 -0.29584214
vn -0.43200004 0.87318194 -0.22567509
vn 0.44564268 0.8952109 -0
vn -0.179896 0.967721 -0.17650354
vn -0.40048707 0.90469503 -0.1453857
vn 0.41885096 0.90469503 0.07804332
vn -0.1468861 0.98915344 -0
vn 0.44564268 0.8952109 -0
g jak_rockwall_02b_mesh_0
f 3/3/3 2/2/2 1/1/1
f 6/6/6 5/5/5 4/4/4
f 9/9/9 8/8/8 7/7/7
f 12/12/12 11/11/11 10/10/10
f 15/15/15 14/14/14 13/13/13
f 18/18/18 17/17/17 16/16/16
f 21/21/21 20/20/20 19/19/19
f 24/24/24 23/23/23 22/22/22
f 27/27/27 26/26/26 25/25/25
f 30/30/30 29/29/29 28/28/28
f 33/33/33 32/32/32 31/31/31
f 36/36/36 35/35/35 34/34/34
f 39/39/39 38/38/38 37/37/37
f 42/42/42 41/41/41 40/40/40
f 45/45/45 44/44/44 43/43/43
f 48/48/48 47/47/47 46/46/46
f 51/51/51 50/50/50 49/49/49
f 54/54/54 53/53/53 52/52/52
f 57/57/57 56/56/56 55/55/55
f 60/60/60 59/59/59 58/58/58
f 63/63/63 62/62/62 61/61/61
f 66/66/66 65/65/65 64/64/64
f 69/69/69 68/68/68 67/67/67
f 72/72/72 71/71/71 70/70/70
f 71/71/71 73/73/73 70/70/70
f 70/70/70 73/73/73 74/74/74
f 75/75/75 70/70/70 74/74/74
f 75/75/75 74/74/74 76/76/76
f 79/79/79 78/78/78 77/77/77
f 80/80/80 79/79/79 77/77/77
f 80/80/80 77/77/77 81/81/81
f 82/82/82 80/80/80 81/81/81
f 80/80/80 82/82/82 83/83/83
f 82/82/82 81/81/81 84/84/84
f 82/82/82 85/85/85 83/83/83
f 82/82/82 84/84/84 85/85/85
f 84/84/84 86/86/86 85/85/85
f 89/89/89 88/88/88 87/87/87
f 88/88/88 90/90/90 87/87/87
f 91/91/91 90/90/90 88/88/88
f 92/92/92 91/91/91 88/88/88
f 92/92/92 88/88/88 93/93/93
f 94/94/94 92/92/92 93/93/93
f 94/94/94 93/93/93 95/95/95
f 94/94/94 95/95/95 96/96/96
f 99/99/99 98/98/98 97/97/97
f 100/100/100 99/99/99 97/97/97
f 103/103/103 102/102/102 101/101/101
f 102/102/102 104/104/104 101/101/101
f 105/105/105 101/101/101 104/104/104
f 102/102/102 106/106/106 104/104/104
f 106/106/106 107/107/107 104/104/104
f 108/108/108 105/105/105 104/104/104
f 109/109/109 104/104/104 107/107/107
f 109/109/109 108/108/108 104/104/104
f 109/109/109 110/110/110 108/108/108
f 113/113/113 112/112/112 111/111/111
f 114/114/114 113/113/113 111/111/111
f 114/114/114 115/115/115 113/113/113
f 115/115/115 116/116/116 113/113/113
f 115/115/115 117/117/117 116/116/116
f 120/120/120 119/119/119 118/118/118
f 119/119/119 121/121/121 118/118/118
f 122/122/122 121/121/121 119/119/119
f 122/122/122 123/123/123 121/121/121
f 123/123/123 124/124/124 121/121/121
f 121/121/121 124/124/124 125/125/125
f 118/118/118 121/121/121 125/125/125
f 118/118/118 125/125/125 126/126/126
f 129/129/129 128/128/128 127/127/127
f 128/128/128 130/130/130 127/127/127
f 130/130/130 131/131/131 127/127/127
f 127/127/127 131/131/131 132/132/132
f 131/131/131 133/133/133 132/132/132
f 132/132/132 133/133/133 134/134/134
f 133/133/133 135/135/135 134/134/134
f 138/138/138 137/137/137 136/136/136
f 139/139/139 138/138/138 136/136/136
f 142/142/142 141/141/141 140/140/140
f 142/142/142 143/143/143 141/141/141
f 142/142/142 144/144/144 143/143/143
f 142/142/142 145/145/145 144/144/144
f 146/146/146 144/144/144 145/145/145
f 147/147/147 143/143/143 144/144/144
f 147/147/147 148/148/148 143/143/143
f 146/146/146 149/149/149 144/144/144
f 150/150/150 149/149/149 146/146/146
f 150/150/150 151/151/151 149/149/149
f 144/144/144 149/149/149 152/152/152
f 152/152/152 149/149/149 151/151/151
f 147/147/147 144/144/144 152/152/152
f 152/152/152 151/151/151 153/153/153
f 152/152/152 153/153/153 154/154/154
f 152/152/152 154/154/154 155/155/155
f 147/147/147 152/152/152 155/155/155
f 147/147/147 155/155/155 156/156/156
f 148/148/148 147/147/147 156/156/156
f 148/148/148 156/156/156 157/157/157
f 160/160/160 159/159/159 158/158/158
f 160/160/160 158/158/158 161/161/161
f 161/161/161 162/162/162 160/160/160
f 163/163/163 161/161/161 158/158/158
f 164/164/164 162/162/162 161/161/161
f 163/163/163 164/164/164 161/161/161
f 162/162/162 164/164/164 165/165/165
f 163/163/163 165/165/165 164/164/164
f 163/163/163 166/166/166 165/165/165
f 167/167/167 165/165/165 166/166/166
f 167/167/167 166/166/166 168/168/168
f 171/171/171 170/170/170 169/169/169
f 172/172/172 171/171/171 169/169/169
f 173/173/173 171/171/171 172/172/172
f 172/172/172 169/169/169 174/174/174
f 175/175/175 172/172/172 174/174/174
f 176/176/176 175/175/175 174/174/174
f 179/179/179 178/178/178 177/177/177
f 180/180/180 179/179/179 177/177/177
f 181/181/181 179/179/179 180/180/180
f 182/182/182 179/179/179 181/181/181
f 185/185/185 184/184/184 183/183/183
f 185/185/185 183/183/183 186/186/186
f 187/187/187 185/185/185 186/186/186
f 187/187/187 186/186/186 188/188/188
f 191/191/191 190/190/190 189/189/189
f 190/190/190 192/192/192 189/189/189
f 192/192/192 193/193/193 189/189/189
f 192/192/192 194/194/194 193/193/193
f 197/197/197 196/196/196 195/195/195
f 198/198/198 197/197/197 195/195/195
f 198/198/198 195/195/195 199/199/199
f 198/198/198 200/200/200 197/197/197
f 200/200/200 198/198/198 199/199/199
f 201/201/201 200/200/200 199/199/199
f 201/201/201 199/199/199 202/202/202
f 201/201/201 203/203/203 200/200/200
f 203/203/203 201/201/201 202/202/202
f 206/206/206 205/205/205 204/204/204
f 207/207/207 206/206/206 204/204/204
f 207/207/207 204/204/204 208/208/208
f 209/209/209 207/207/207 208/208/208
f 212/212/212 211/211/211 210/210/210
f 210/210/210 211/211/211 213/213/213
f 214/214/214 210/210/210 213/213/213
f 215/215/215 214/214/214 213/213/213
f 214/214/214 215/215/215 216/216/216
f 217/217/217 210/210/210 214/214/214
f 217/217/217 218/218/218 210/210/210
f 219/219/219 217/217/217 214/214/214
f 214/214/214 216/216/216 220/220/220
f 220/220/220 216/216/216 221/221/221
f 214/214/214 220/220/220 222/222/222
f 225/225/225 224/224/224 223/223/223
f 223/223/223 224/224/224 226/226/226
f 227/227/227 226/226/226 224/224/224
f 226/226/226 228/228/228 223/223/223
f 229/229/229 228/228/228 226/226/226
f 232/232/232 231/231/231 230/230/230
f 233/233/233 231/231/231 232/232/232
f 234/234/234 233/233/233 232/232/232
f 235/235/235 233/233/233 234/234/234
f 236/236/236 235/235/235 234/234/234
f 237/237/237 235/235/235 236/236/236
f 238/238/238 235/235/235 237/237/237
f 239/239/239 235/235/235 238/238/238
f 242/242/242 241/241/241 240/240/240
f 240/240/240 241/241/241 243/243/243
f 244/244/244 240/240/240 243/243/243
f 244/244/244 243/243/243 245/245/245
f 248/248/248 247/247/247 246/246/246
f 249/249/249 248/248/248 246/246/246
f 249/249/249 246/246/246 250/250/250
f 249/249/249 251/251/251 248/248/248
f 251/251/251 252/252/252 248/248/248
f 253/253/253 249/249/249 250/250/250
f 249/249/249 253/253/253 251/251/251
f 254/254/254 252/252/252 251/251/251
f 255/255/255 252/252/252 254/254/254
f 256/256/256 254/254/254 251/251/251
f 256/256/256 251/251/251 257/257/257
f 253/253/253 257/257/257 251/251/251
f 258/258/258 256/256/256 257/257/257
f 259/259/259 253/253/253 250/250/250
f 253/253/253 259/259/259 257/257/257
f 260/260/260 259/259/259 250/250/250
f 258/258/258 257/257/257 261/261/261
f 259/259/259 261/261/261 257/257/257
f 261/261/261 259/259/259 260/260/260
f 258/258/258 261/261/261 262/262/262
f 262/262/262 261/261/261 260/260/260
f 265/265/265 264/264/264 263/263/263
f 264/264/264 266/266/266 263/263/263
f 263/263/263 266/266/266 267/267/267
f 270/270/270 269/269/269 268/268/268
f 269/269/269 271/271/271 268/268/268
f 268/268/268 271/271/271 272/272/272
f 271/271/271 273/273/273 272/272/272
f 269/269/269 274/274/274 271/271/271
f 274/274/274 275/275/275 271/271/271
f 271/271/271 275/275/275 276/276/276
f 274/274/274 277/277/277 275/275/275
f 275/275/275 278/278/278 276/276/276
f 277/277/277 279/279/279 275/275/275
f 275/275/275 279/279/279 278/278/278
f 279/279/279 280/280/280 278/278/278
f 283/283/283 282/282/282 281/281/281
f 282/282/282 284/284/284 281/281/281
f 285/285/285 284/284/284 282/282/282
f 286/286/286 285/285/285 282/282/282
f 289/289/289 288/288/288 287/287/287
f 290/290/290 289/289/289 287/287/287
f 290/290/290 287/287/287 291/291/291
f 292/292/292 290/290/290 291/291/291
f 293/293/293 290/290/290 292/292/292
f 296/296/296 295/295/295 294/294/294
f 295/295/295 297/297/297 294/294/294
f 295/295/295 298/298/298 297/297/297
f 295/295/295 299/299/299 298/298/298
f 302/302/302 301/301/301 300/300/300
f 302/302/302 300/300/300 303/303/303
f 306/306/306 305/305/305 304/304/304
f 307/307/307 306/306/306 304/304/304
f 310/310/310 309/309/309 308/308/308
f 311/311/311 310/310/310 308/308/308
f 312/312/312 310/310/310 311/311/311
f 313/313/313 312/312/312 311/311/311
f 311/311/311 314/314/314 313/313/313
f 311/311/311 315/315/315 314/314/314
f 316/316/316 311/311/311 308/308/308
f 315/315/315 311/311/311 316/316/316
f 317/317/317 316/316/316 308/308/308
f 315/315/315 316/316/316 318/318/318
f 318/318/318 316/316/316 317/317/317
f 321/321/321 320/320/320 319/319/319
f 322/322/322 321/321/321 319/319/319
f 325/325/325 324/324/324 323/323/323
f 326/326/326 325/325/325 323/323/323
f 329/329/329 328/328/328 327/327/327
f 327/327/327 328/328/328 330/330/330
f 328/328/328 331/331/331 330/330/330
f 331/331/331 332/332/332 330/330/330
f 332/332/332 333/333/333 330/330/330
f 332/332/332 334/334/334 333/333/333
f 337/337/337 336/336/336 335/335/335
f 336/336/336 338/338/338 335/335/335
f 336/336/336 339/339/339 338/338/338
f 339/339/339 340/340/340 338/338/338
f 343/343/343 342/342/342 341/341/341
f 342/342/342 344/344/344 341/341/341
f 347/347/347 346/346/346 345/345/345
f 346/346/346 348/348/348 345/345/345
f 346/346/346 349/349/349 348/348/348
f 349/349/349 350/350/350 348/348/348
f 349/349/349 351/351/351 350/350/350
f 351/351/351 352/352/352 350/350/350
f 355/355/355 354/354/354 353/353/353
f 356/356/356 355/355/355 353/353/353
f 357/357/357 355/355/355 356/356/356
f 360/360/360 359/359/359 358/358/358
f 361/361/361 360/360/360 358/358/358
f 364/364/364 363/363/363 362/362/362
f 365/365/365 364/364/364 362/362/362
f 366/366/366 364/364/364 365/365/365
f 367/367/367 366/366/366 365/365/365
f 367/367/367 369/369/369 368/368/368
f 370/370/370 367/367/367 368/368/368
f 370/370/370 368/368/368 371/371/371
f 372/372/372 370/370/370 371/371/371
f 375/375/375 374/374/374 373/373/373
f 375/375/375 373/373/373 376/376/376
f 377/377/377 375/375/375 376/376/376
f 378/378/378 375/375/375 377/377/377
f 377/377/377 379/379/379 378/378/378
f 380/380/380 378/378/378 379/379/379
f 383/383/383 382/382/382 381/381/381
f 383/383/383 384/384/384 382/382/382
f 384/384/384 385/385/385 382/382/382
f 388/388/388 387/387/387 386/386/386
f 388/388/388 386/386/386 389/389/389
f 389/389/389 386/386/386 390/390/390
f 391/391/391 389/389/389 390/390/390
f 392/392/392 391/391/391 390/390/390
f 392/392/392 390/390/390 393/393/393
f 394/394/394 392/392/392 393/393/393
f 394/394/394 395/395/395 392/392/392
f 396/396/396 391/391/391 392/392/392
f 395/395/395 397/397/397 392/392/392
f 397/397/397 396/396/396 392/392/392
f 398/398/398 396/396/396 397/397/397
f 401/401/401 400/400/400 399/399/399
f 402/402/402 401/401/401 399/399/399
f 401/401/401 402/402/402 403/403/403
f 404/404/404 403/403/403 402/402/402
f 405/405/405 404/404/404 402/402/402
f 405/405/405 406/406/406 404/404/404
f 405/405/405 402/402/402 407/407/407
f 407/407/407 402/402/402 408/408/408
f 411/411/411 410/410/410 409/409/409
f 412/412/412 411/411/411 409/409/409
f 415/415/415 414/414/414 413/413/413
f 416/416/416 415/415/415 413/413/413
f 416/416/416 413/413/413 417/417/417
f 418/418/418 416/416/416 417/417/417
f 418/418/418 417/417/417 419/419/419
f 420/420/420 418/418/418 419/419/419
f 423/423/423 422/422/422 421/421/421
f 422/422/422 424/424/424 421/421/421
f 421/421/421 424/424/424 425/425/425
f 428/428/428 427/427/427 426/426/426
f 428/428/428 426/426/426 429/429/429
f 430/430/430 428/428/428 429/429/429
f 433/433/433 432/432/432 431/431/431
f 434/434/434 433/433/433 431/431/431
f 437/437/437 436/436/436 435/435/435
f 436/436/436 438/438/438 435/435/435
f 436/436/436 439/439/439 438/438/438
f 442/442/442 441/441/441 440/440/440
f 443/443/443 442/442/442 440/440/440
f 444/444/444 443/443/443 440/440/440
f 445/445/445 444/444/444 440/440/440
f 446/446/446 444/444/444 445/445/445
f 447/447/447 444/444/444 446/446/446
f 448/448/448 447/447/447 446/446/446
f 448/448/448 446/446/446 449/449/449
f 450/450/450 448/448/448 449/449/449
f 453/453/453 452/452/452 451/451/451
f 454/454/454 453/453/453 451/451/451
f 457/457/457 456/456/456 455/455/455
f 456/456/456 458/458/458 455/455/455
f 458/458/458 459/459/459 455/455/455
f 462/462/462 461/461/461 460/460/460
f 463/463/463 461/461/461 462/462/462
f 463/463/463 464/464/464 461/461/461
f 464/464/464 465/465/465 461/461/461
f 468/468/468 467/467/467 466/466/466
f 467/467/467 469/469/469 466/466/466
f 470/470/470 469/469/469 467/467/467
f 469/469/469 471/471/471 466/466/466
f 469/469/469 470/470/470 471/471/471
f 466/466/466 471/471/471 472/472/472
f 470/470/470 473/473/473 471/471/471
f 470/470/470 474/474/474 473/473/473
f 477/477/477 476/476/476 475/475/475
f 478/478/478 477/477/477 475/475/475
f 481/481/481 480/480/480 479/479/479
f 481/481/481 482/482/482 480/480/480
f 483/483/483 480/480/480 482/482/482
f 483/483/483 484/484/484 480/480/480
f 487/487/487 486/486/486 485/485/485
f 488/488/488 485/485/485 486/486/486
f 486/486/486 489/489/489 488/488/488
f 492/492/492 491/491/491 490/490/490
f 492/492/492 493/493/493 491/491/491
f 494/494/494 491/491/491 493/493/493
f 494/494/494 493/493/493 495/495/495
f 498/498/498 497/497/497 496/496/496
f 499/499/499 498/498/498 496/496/496
f 500/500/500 499/499/499 496/496/496
f 501/501/501 500/500/500 496/496/496
f 501/501/501 502/502/502 500/500/500
f 505/505/505 504/504/504 503/503/503
f 504/504/504 506/506/506 503/503/503
f 503/503/503 506/506/506 507/507/507
f 503/503/503 507/507/507 508/508/508
f 511/511/511 510/510/510 509/509/509
f 511/511/511 512/512/512 510/510/510
f 511/511/511 513/513/513 512/512/512
f 514/514/514 510/510/510 512/512/512
f 514/514/514 515/515/515 510/510/510
f 516/516/516 515/515/515 514/514/514
f 519/519/519 518/518/518 517/517/517
f 518/518/518 519/519/519 520/520/520
f 519/519/519 521/521/521 520/520/520
f 520/520/520 521/521/521 522/522/522
f 520/520/520 522/522/522 523/523/523
f 526/526/526 525/525/525 524/524/524
f 526/526/526 527/527/527 525/525/525
f 530/530/530 529/529/529 528/528/528
f 531/531/531 530/530/530 528/528/528
f 532/532/532 530/530/530 531/531/531
f 533/533/533 532/532/532 531/531/531
f 534/534/534 532/532/532 533/533/533
f 537/537/537 536/536/536 535/535/535
f 538/538/538 537/537/537 535/535/535
f 539/539/539 537/537/537 538/538/538
f 539/539/539 538/538/538 540/540/540
f 541/541/541 539/539/539 540/540/540
f 542/542/542 541/541/541 540/540/540
f 543/543/543 542/542/542 540/540/540
f 546/546/546 545/545/545 544/544/544
f 547/547/547 546/546/546 544/544/544
f 550/550/550 549/549/549 548/548/548
f 549/549/549 551/551/551 548/548/548
f 548/548/548 551/551/551 552/552/552
f 551/551/551 553/553/553 552/552/552
f 552/552/552 553/553/553 554/554/554
f 551/551/551 555/555/555 553/553/553
f 558/558/558 557/557/557 556/556/556
f 559/559/559 558/558/558 556/556/556
f 562/562/562 561/561/561 560/560/560
f 561/561/561 563/563/563 560/560/560
f 563/563/563 564/564/564 560/560/560
f 564/564/564 565/565/565 560/560/560
f 565/565/565 564/564/564 566/566/566
f 566/566/566 564/564/564 567/567/567
f 564/564/564 568/568/568 567/567/567
f 571/571/571 570/570/570 569/569/569
f 572/572/572 571/571/571 569/569/569
f 575/575/575 574/574/574 573/573/573
f 574/574/574 576/576/576 573/573/573
f 574/574/574 577/577/577 576/576/576
f 577/577/577 578/578/578 576/576/576
f 581/581/581 580/580/580 579/579/579
f 582/582/582 580/580/580 581/581/581
f 583/583/583 582/582/582 581/581/581
f 584/584/584 582/582/582 583/583/583
f 583/583/583 585/585/585 584/584/584
f 588/588/588 587/587/587 586/586/586
f 589/589/589 588/588/588 586/586/586
f 592/592/592 591/591/591 590/590/590
f 593/593/593 592/592/592 590/590/590
f 594/594/594 593/593/593 590/590/590
f 594/594/594 595/595/595 593/593/593
f 598/598/598 597/597/597 596/596/596
f 599/599/599 598/598/598 596/596/596
f 602/602/602 601/601/601 600/600/600
f 603/603/603 602/602/602 600/600/600
f 606/606/606 605/605/605 604/604/604
f 605/605/605 607/607/607 604/604/604
f 604/604/604 607/607/607 608/608/608
f 609/609/609 604/604/604 608/608/608
f 609/609/609 608/608/608 610/610/610
f 613/613/613 612/612/612 611/611/611
f 613/613/613 614/614/614 612/612/612
f 614/614/614 615/615/615 612/612/612
f 614/614/614 616/616/616 615/615/615
f 616/616/616 617/617/617 615/615/615
f 620/620/620 619/619/619 618/618/618
f 621/621/621 620/620/620 618/618/618
f 624/624/624 623/623/623 622/622/622
f 624/624/624 625/625/625 623/623/623
f 626/626/626 623/623/623 625/625/625
f 624/624/624 627/627/627 625/625/625
f 628/628/628 626/626/626 625/625/625
f 627/627/627 629/629/629 625/625/625
f 628/628/628 625/625/625 629/629/629
f 627/627/627 630/630/630 629/629/629
f 631/631/631 628/628/628 629/629/629
f 630/630/630 632/632/632 629/629/629
f 631/631/631 629/629/629 633/633/633
f 629/629/629 632/632/632 633/633/633
f 636/636/636 635/635/635 634/634/634
f 635/635/635 637/637/637 634/634/634
f 638/638/638 634/634/634 637/637/637
f 635/635/635 639/639/639 637/637/637
f 639/639/639 640/640/640 637/637/637
f 641/641/641 638/638/638 637/637/637
f 642/642/642 637/637/637 640/640/640
f 642/642/642 641/641/641 637/637/637
f 642/642/642 643/643/643 641/641/641
f 646/646/646 645/645/645 644/644/644
f 647/647/647 646/646/646 644/644/644
f 647/647/647 648/648/648 646/646/646
f 648/648/648 649/649/649 646/646/646
f 648/648/648 650/650/650 649/649/649
f 653/653/653 652/652/652 651/651/651
f 652/652/652 654/654/654 651/651/651
f 655/655/655 654/654/654 652/652/652
f 655/655/655 656/656/656 654/654/654
f 656/656/656 657/657/657 654/654/654
f 654/654/654 657/657/657 658/658/658
f 651/651/651 654/654/654 658/658/658
f 651/651/651 658/658/658 659/659/659
f 662/662/662 661/661/661 660/660/660
f 661/661/661 663/663/663 660/660/660
f 663/663/663 664/664/664 660/660/660
f 660/660/660 664/664/664 665/665/665
f 664/664/664 666/666/666 665/665/665
f 665/665/665 666/666/666 667/667/667
f 666/666/666 668/668/668 667/667/667
f 671/671/671 670/670/670 669/669/669
f 672/672/672 671/671/671 669/669/669
f 675/675/675 674/674/674 673/673/673
f 674/674/674 676/676/676 673/673/673
f 676/676/676 677/677/677 673/673/673
f 676/676/676 678/678/678 677/677/677
f 681/681/681 680/680/680 679/679/679
f 682/682/682 681/681/681 679/679/679
f 682/682/682 679/679/679 683/683/683
f 682/682/682 684/684/684 681/681/681
f 684/684/684 682/682/682 683/683/683
f 685/685/685 684/684/684 683/683/683
f 685/685/685 683/683/683 686/686/686
f 685/685/685 687/687/687 684/684/684
f 687/687/687 685/685/685 686/686/686
f 690/690/690 689/689/689 688/688/688
f 691/691/691 690/690/690 688/688/688
f 691/691/691 688/688/688 692/692/692
f 693/693/693 691/691/691 692/692/692
f 696/696/696 695/695/695 694/694/694
f 694/694/694 695/695/695 697/697/697
f 698/698/698 694/694/694 697/697/697
f 698/698/698 697/697/697 699/699/699
f 702/702/702 701/701/701 700/700/700
f 703/703/703 702/702/702 700/700/700
f 703/703/703 700/700/700 704/704/704
f 703/703/703 705/705/705 702/702/702
f 705/705/705 706/706/706 702/702/702
f 707/707/707 703/703/703 704/704/704
f 703/703/703 707/707/707 705/705/705
f 708/708/708 706/706/706 705/705/705
f 709/709/709 706/706/706 708/708/708
f 710/710/710 708/708/708 705/705/705
f 710/710/710 705/705/705 711/711/711
f 707/707/707 711/711/711 705/705/705
f 712/712/712 710/710/710 711/711/711
f 713/713/713 707/707/707 704/704/704
f 707/707/707 713/713/713 711/711/711
f 714/714/714 713/713/713 704/704/704
f 712/712/712 711/711/711 715/715/715
f 713/713/713 715/715/715 711/711/711
f 715/715/715 713/713/713 714/714/714
f 712/712/712 715/715/715 716/716/716
f 716/716/716 715/715/715 714/714/714
f 719/719/719 718/718/718 717/717/717
f 718/718/718 720/720/720 717/717/717
f 717/717/717 720/720/720 721/721/721
f 724/724/724 723/723/723 722/722/722
f 723/723/723 725/725/725 722/722/722
f 725/725/725 726/726/726 722/722/722
f 725/725/725 727/727/727 726/726/726
f 730/730/730 729/729/729 728/728/728
f 731/731/731 730/730/730 728/728/728
f 731/731/731 728/728/728 732/732/732
f 731/731/731 733/733/733 730/730/730
f 733/733/733 731/731/731 732/732/732
f 734/734/734 733/733/733 732/732/732
f 734/734/734 732/732/732 735/735/735
f 734/734/734 736/736/736 733/733/733
f 736/736/736 734/734/734 735/735/735
f 739/739/739 738/738/738 737/737/737
f 740/740/740 739/739/739 737/737/737
f 740/740/740 737/737/737 741/741/741
f 742/742/742 740/740/740 741/741/741
f 745/745/745 744/744/744 743/743/743
f 744/744/744 746/746/746 743/743/743
f 743/743/743 746/746/746 747/747/747
f 750/750/750 749/749/749 748/748/748
f 749/749/749 751/751/751 748/748/748
f 748/748/748 751/751/751 752/752/752
f 753/753/753 748/748/748 752/752/752
f 753/753/753 752/752/752 754/754/754
f 757/757/757 756/756/756 755/755/755
f 757/757/757 758/758/758 756/756/756
f 758/758/758 759/759/759 756/756/756
f 758/758/758 760/760/760 759/759/759
f 760/760/760 761/761/761 759/759/759
f 764/764/764 763/763/763 762/762/762
f 765/765/765 764/764/764 762/762/762
f 768/768/768 767/767/767 766/766/766
f 768/768/768 769/769/769 767/767/767
f 770/770/770 767/767/767 769/769/769
f 768/768/768 771/771/771 769/769/769
f 772/772/772 770/770/770 769/769/769
f 771/771/771 773/773/773 769/769/769
f 772/772/772 769/769/769 773/773/773
f 771/771/771 774/774/774 773/773/773
f 775/775/775 772/772/772 773/773/773
f 774/774/774 776/776/776 773/773/773
f 775/775/775 773/773/773 777/777/777
f 773/773/773 776/776/776 777/777/777
