g ship_x_wing_dst_02_mesh
v 5.147808 1.5081253 3.3739395
v 5.7219048 2.1719246 4.0556793
v 6.0268936 1.9028168 4.0915604
v 5.5066185 1.1851959 3.4098206
v 5.1657486 1.5440063 3.320118
v 5.56044 1.2031364 3.355999
v 6.080715 1.9207573 4.037739
v 5.7398453 2.2257462 4.0018578
v 5.7398453 2.2257462 4.0018578
v 6.080715 1.9207573 4.037739
v 6.0268936 1.9028168 4.0915604
v 5.7219048 2.1719246 4.0556793
v 5.5066185 1.1851959 3.4098206
v 6.0268936 1.9028168 4.0915604
v 6.1345367 1.5978279 4.3427277
v 5.632202 0.844326 3.696869
v 5.56044 1.2031364 3.355999
v 5.6860237 0.808445 3.6789284
v 6.1883583 1.5798874 4.324787
v 6.080715 1.9207573 4.037739
v 6.080715 1.9207573 4.037739
v 6.1883583 1.5798874 4.324787
v 6.1345367 1.5978279 4.3427277
v 6.0268936 1.9028168 4.0915604
v 5.632202 0.844326 3.696869
v 6.1345367 1.5978279 4.3427277
v 5.973072 1.4543037 4.6835976
v 5.4348564 0.6649208 4.0915604
v 5.6860237 0.808445 3.6789284
v 5.4707375 0.61109924 4.1274414
v 6.008953 1.4004822 4.701538
v 6.1883583 1.5798874 4.324787
v 6.1883583 1.5798874 4.324787
v 6.008953 1.4004822 4.701538
v 5.973072 1.4543037 4.6835976
v 6.1345367 1.5978279 4.3427277
v 5.6860237 0.808445 3.6789284
v 4.1610794 -0.5370941 1.8848763
v 4.286663 -0.91384506 2.2078056
v 5.56044 1.2031364 3.355999
v 3.766388 -0.19622421 1.8489952
v 5.1657486 1.5440063 3.320118
v 3.353756 -0.088581085 2.1360435
v 4.735176 1.6516495 3.6071663
v 3.1384697 -0.28592682 2.566616
v 4.51989 1.4543037 4.037739
v 5.4707375 0.61109924 4.1274414
v 5.6860237 0.808445 3.6789284
v 4.286663 -0.91384506 2.2078056
v 4.071377 -1.1111908 2.6383781
v 5.040165 0.7187424 4.4144897
v 3.6587448 -1.0214882 2.9254265
v 4.6454735 1.0596123 4.3786087
v 3.2640533 -0.6806183 2.8895454
v 4.51989 1.4543037 4.037739
v 3.1384697 -0.28592682 2.566616
v 3.766388 -0.19622421 1.8489952
v 4.286663 -0.91384506 2.2078056
v 4.1610794 -0.5370941 1.8848763
v 4.071377 -1.1111908 2.6383781
v 3.353756 -0.088581085 2.1360435
v 3.6587448 -1.0214882 2.9254265
v 3.1384697 -0.28592682 2.566616
v 3.2640533 -0.6806183 2.8895454
v 5.183689 1.0954933 5.311516
v 5.2733917 1.0416718 4.8809433
v 4.9504623 1.0596123 5.185932
v 5.076046 1.1851959 4.8450623
v 4.771057 1.1493149 5.11417
v 4.806938 1.2748985 4.809181
v 4.8248787 1.256958 4.5400734
v 5.2016296 0.9340286 4.558014
v 4.6454735 1.0596123 4.3786087
v 5.040165 0.7187424 4.4144897
v 5.183689 1.0954933 5.311516
v 4.968403 1.1134338 5.185932
v 5.1657486 1.1313744 5.275635
v 4.9504623 1.0596123 5.185932
v 4.806938 1.1851959 5.11417
v 4.771057 1.1493149 5.11417
v 5.2016296 0.96990967 4.5041924
v 4.699295 1.0596123 4.324787
v 5.040165 0.7546234 4.360668
v 4.8607597 1.2748985 4.4683113
v 5.2913322 1.0954933 4.8809433
v 5.111927 1.221077 4.8450623
v 4.8607597 1.292839 4.809181
v 4.968403 1.1134338 5.185932
v 5.1657486 1.1313744 5.275635
v 4.806938 1.1851959 5.11417
v 4.806938 1.1851959 5.11417
v 4.771057 1.1493149 5.11417
v 4.806938 1.2748985 4.809181
v 4.8607597 1.292839 4.809181
v 4.8248787 1.256958 4.5400734
v 4.8607597 1.2748985 4.4683113
v 5.2913322 1.0954933 4.8809433
v 5.183689 1.0954933 5.311516
v 5.1657486 1.1313744 5.275635
v 5.2733917 1.0416718 4.8809433
v 5.2016296 0.96990967 4.5041924
v 5.2016296 0.9340286 4.558014
v 4.8607597 1.9386978 4.522133
v 4.771057 2.0642815 4.7194786
v 4.896641 1.7234116 5.006527
v 4.968403 1.5978279 4.8271217
v 4.968403 1.4363632 4.6477165
v 4.842819 1.7951736 4.3427277
v 4.51989 1.4543037 4.037739
v 4.8248787 1.256958 4.5400734
v 4.6454735 1.0596123 4.3786087
v 4.896641 1.7234116 5.006527
v 4.771057 2.0642815 4.7194786
v 4.8248787 2.0642815 4.737419
v 4.932522 1.7592926 4.9885864
v 5.0222244 1.6157684 4.7912407
v 4.932522 1.7592926 4.9885864
v 4.8248787 2.0642815 4.737419
v 4.9145813 1.9207573 4.522133
v 5.004284 1.4363632 4.593895
v 4.896641 1.7413521 4.3068466
v 4.8607597 1.2748985 4.4683113
v 4.699295 1.0596123 4.324787
v 4.5737114 1.4184227 4.0197983
v 4.8248787 2.0642815 4.737419
v 4.771057 2.0642815 4.7194786
v 4.8607597 1.9386978 4.522133
v 4.9145813 1.9207573 4.522133
v 4.896641 1.7413521 4.3068466
v 4.842819 1.7951736 4.3427277
v 5.0222244 1.6157684 4.7912407
v 4.896641 1.7234116 5.006527
v 4.932522 1.7592926 4.9885864
v 4.968403 1.5978279 4.8271217
v 5.004284 1.4363632 4.593895
v 4.968403 1.4363632 4.6477165
v 4.896641 1.7413521 4.3068466
v 5.2375107 2.1001625 4.6118355
v 5.3989754 2.2436867 4.2709656
v 4.771057 1.5978279 3.6251068
v 4.5737114 1.4184227 4.0197983
v 4.735176 1.6516495 3.6071663
v 5.3630943 2.3154488 4.253025
v 5.1657486 2.1360435 4.629776
v 4.842819 1.7951736 4.3427277
v 4.51989 1.4543037 4.037739
v 5.1657486 2.1360435 4.629776
v 5.3630943 2.3154488 4.253025
v 5.3989754 2.2436867 4.2709656
v 5.2375107 2.1001625 4.6118355
v 4.771057 1.5978279 3.6251068
v 5.3989754 2.2436867 4.2709656
v 5.7219048 2.1719246 4.0556793
v 5.147808 1.5081253 3.3739395
v 4.735176 1.6516495 3.6071663
v 5.1657486 1.5440063 3.320118
v 5.7398453 2.2257462 4.0018578
v 5.3630943 2.3154488 4.253025
v 5.3630943 2.3154488 4.253025
v 5.7398453 2.2257462 4.0018578
v 5.7219048 2.1719246 4.0556793
v 5.3989754 2.2436867 4.2709656
v 5.4348564 0.6649208 4.0915604
v 5.2016296 0.96990967 4.5041924
v 5.040165 0.7546234 4.360668
v 5.632202 1.5260658 4.898884
v 5.973072 1.4543037 4.6835976
v 5.4707375 0.61109924 4.1274414
v 5.632202 1.4901848 4.9527054
v 6.008953 1.4004822 4.701538
v 5.2016296 0.9340286 4.558014
v 5.040165 0.7187424 4.4144897
v 6.008953 1.4004822 4.701538
v 5.632202 1.4901848 4.9527054
v 5.632202 1.5260658 4.898884
v 5.973072 1.4543037 4.6835976
v 5.632202 1.5260658 4.898884
v 5.632202 1.4901848 4.9527054
v 5.2016296 0.9340286 4.558014
v 5.2016296 0.96990967 4.5041924
v 4.968403 1.4363632 4.6477165
v 5.004284 1.4363632 4.593895
v 4.8607597 1.2748985 4.4683113
v 4.8248787 1.256958 4.5400734
v -2.7280807 0.5931587 6.1906013
v -2.2975082 0.70080185 5.2038727
v -2.8536644 1.0416718 5.6523857
v -2.153984 0.2343483 5.7420883
v -0.3240509 -0.55503464 3.6251068
v -2.2795677 0.5931587 6.7467575
v -0.18052673 -1.0214882 4.1633224
v -1.7234116 0.2343483 6.2982445
v -1.7772331 1.0416718 6.997925
v 0.2679863 -1.0214882 4.7194786
v -1.221077 0.6828613 6.5673523
v 0.7523804 -0.57297516 4.9885864
v -0.96990967 1.3287201 6.3700066
v 1.0035477 0.072883606 4.7912407
v -2.8536644 1.0416718 5.6523857
v -2.5845566 1.6516495 5.526802
v -2.7998428 1.0775528 5.7062073
v -2.602497 1.6875305 5.45504
v -2.118103 2.082222 5.760029
v -2.118103 2.1360435 5.7062073
v -1.7234116 2.082222 6.2623634
v -1.66959 2.1360435 6.280304
v -1.6516495 1.8489952 6.5314713
v -1.5978279 1.9028168 6.549412
v -1.4543037 1.7772331 6.8544006
v -1.4004822 1.8131142 6.8902817
v -2.7280807 0.5931587 6.1906013
v -2.8536644 1.0416718 5.6523857
v -2.7998428 1.0775528 5.7062073
v -2.6742592 0.6469803 6.1906013
v -2.2795677 0.5931587 6.7467575
v -2.2616272 0.6469803 6.7108765
v -1.7772331 1.0416718 6.997925
v -1.8131142 1.0775528 6.9441032
v -2.118103 2.082222 5.760029
v -1.7234116 2.082222 6.2623634
v -1.1851959 1.6875305 5.831791
v -1.5619469 1.6875305 5.3294563
v -2.5845566 1.6516495 5.526802
v -2.118103 2.082222 5.760029
v -1.5619469 1.6875305 5.3294563
v -1.9925194 1.292839 5.11417
v -2.7998428 1.0775528 5.7062073
v -2.5845566 1.6516495 5.526802
v -1.9925194 1.292839 5.11417
v -2.2078056 0.7366829 5.275635
v -2.6742592 0.6469803 6.1906013
v -2.7998428 1.0775528 5.7062073
v -2.2078056 0.7366829 5.275635
v -2.1001625 0.34199142 5.7420883
v -2.2616272 0.6469803 6.7108765
v -2.6742592 0.6469803 6.1906013
v -2.1001625 0.34199142 5.7420883
v -1.705471 0.34199142 6.244423
v -1.8131142 1.0775528 6.9441032
v -2.2616272 0.6469803 6.7108765
v -1.705471 0.34199142 6.244423
v -1.2748985 0.7366829 6.459709
v -1.6516495 1.8489952 6.5314713
v -1.4543037 1.7772331 6.8544006
v -1.0596123 1.292839 6.2982445
v -1.7234116 2.082222 6.2623634
v -1.1851959 1.6875305 5.831791
v -1.0596123 1.292839 6.2982445
v -1.5619469 1.6875305 5.3294563
v -1.1851959 1.6875305 5.831791
v -1.2748985 0.7366829 6.459709
v -1.705471 0.34199142 6.244423
v -1.9925194 1.292839 5.11417
v -2.1001625 0.34199142 5.7420883
v -2.2078056 0.7366829 5.275635
v 1.0035477 0.072883606 4.7912407
v 0.2679863 -1.0214882 4.7194786
v 0.7523804 -0.57297516 4.9885864
v 0.8600235 0.53933716 4.253025
v 0.42945147 0.53933716 3.696869
v -0.18052673 -1.0214882 4.1633224
v -0.072883606 0.072883606 3.427761
v -0.3240509 -0.55503464 3.6251068
v -1.633709 1.1851959 5.634445
v -2.153984 1.256958 6.0291367
v -1.7413521 0.9878502 5.634445
v -2.082222 1.4004822 6.0291367
v -1.4901848 1.221077 5.79591
v -1.9745789 1.4363632 6.13678
v -1.4543037 1.0775528 5.939434
v -1.9386978 1.3107796 6.2623634
v -1.7413521 0.9878502 5.634445
v -2.153984 1.256958 6.0291367
v -2.1360435 1.1493149 6.13678
v -1.705471 0.844326 5.79591
v -2.01046 1.1851959 6.2623634
v -1.5619469 0.8981476 5.939434
v -1.9386978 1.3107796 6.2623634
v -1.4543037 1.0775528 5.939434
v -2.01046 1.1851959 6.2623634
v -1.9745789 1.4363632 6.13678
v -1.9386978 1.3107796 6.2623634
v -2.082222 1.4004822 6.0291367
v -2.1360435 1.1493149 6.13678
v -2.153984 1.256958 6.0291367
v -2.082222 1.1851959 6.1547203
v -2.118103 1.292839 6.047077
v -2.2616272 1.3825417 6.1547203
v -2.2436867 1.2748985 6.280304
v -1.9745789 1.292839 6.2264824
v -2.1360435 1.3646011 6.3341255
v -2.01046 1.3825417 6.1008987
v -2.153984 1.4722443 6.2264824
v -2.118103 1.292839 6.047077
v -2.2616272 1.3825417 6.1547203
v -2.153984 1.4722443 6.2264824
v -2.1360435 1.3646011 6.3341255
v -2.2436867 1.2748985 6.280304
v -2.2616272 1.3825417 6.1547203
v -1.5978279 1.0237312 5.8138504
v -2.118103 1.3287201 6.208542
v -1.5798874 1.8310547 6.5314713
v -1.0954933 1.5081253 6.1008987
v -1.1134338 1.5260658 6.082958
v -1.5978279 1.8489952 6.49559
v -2.1360435 1.3466606 6.1906013
v -1.6157684 1.0416718 5.7779694
v -2.1360435 1.3466606 6.1906013
v -1.5978279 1.8489952 6.49559
v -1.5798874 1.8310547 6.5314713
v -2.118103 1.3287201 6.208542
v -1.7592926 1.5978279 5.2038727
v -1.4184227 0.52139664 6.4058876
v -1.9386978 0.8263855 6.800579
v -2.2616272 1.8848763 5.598564
v -1.9925194 0.77256393 6.7826385
v -1.4722443 0.4855156 6.387947
v -1.7951736 1.5619469 5.1679916
v -2.3154488 1.8489952 5.5806236
v -1.9386978 0.8263855 6.800579
v -1.9925194 0.77256393 6.7826385
v -2.3154488 1.8489952 5.5806236
v -2.2616272 1.8848763 5.598564
v -2.2975082 0.70080185 5.2038727
v -0.3240509 -0.55503464 3.6251068
v -0.072883606 0.072883606 3.427761
v -2.046341 1.3287201 5.006527
v -2.8536644 1.0416718 5.6523857
v 0.42945147 0.53933716 3.696869
v -2.602497 1.6875305 5.45504
v -1.5619469 1.7951736 5.275635
v -2.118103 2.1360435 5.7062073
v 0.8600235 0.53933716 4.253025
v -1.1134338 1.7772331 5.831791
v -1.66959 2.1360435 6.280304
v -0.96990967 1.3287201 6.3700066
v 1.0035477 0.072883606 4.7912407
v -1.5978279 1.9028168 6.549412
v -1.4004822 1.8131142 6.8902817
v -1.4543037 1.7772331 6.8544006
v -1.4004822 1.8131142 6.8902817
v -0.96990967 1.3287201 6.3700066
v -1.0596123 1.292839 6.2982445
v -1.2748985 0.7366829 6.459709
v -1.221077 0.6828613 6.5673523
v -1.7772331 1.0416718 6.997925
v -1.8131142 1.0775528 6.9441032
v -1.3287201 1.6157684 7.1235085
v -1.221077 1.5260658 6.6749954
v -1.5440063 1.3646011 7.0876274
v -1.3466606 1.2031364 6.764698
v -0.96990967 1.3287201 6.3700066
v -1.4901848 0.88020706 6.83646
v -1.6875305 1.0596123 7.105568
v -1.221077 0.6828613 6.5673523
v -1.3287201 1.6157684 7.1235085
v -1.5798874 1.3825417 7.033806
v -1.3825417 1.633709 7.069687
v -1.5440063 1.3646011 7.0876274
v -1.705471 1.1134338 7.0517464
v -1.6875305 1.0596123 7.105568
v -1.3825417 1.633709 7.069687
v -1.5798874 1.3825417 7.033806
v -1.292839 1.4901848 6.6032333
v -1.4184227 1.2031364 6.692936
v -1.5260658 0.9160881 6.764698
v -1.705471 1.1134338 7.0517464
v -1.2748985 0.7366829 6.459709
v -1.0596123 1.292839 6.2982445
v -1.3287201 1.6157684 7.1235085
v -1.3825417 1.633709 7.069687
v -1.292839 1.4901848 6.6032333
v -1.221077 1.5260658 6.6749954
v -0.96990967 1.3287201 6.3700066
v -1.0596123 1.292839 6.2982445
v -1.705471 1.1134338 7.0517464
v -1.6875305 1.0596123 7.105568
v -1.4901848 0.88020706 6.83646
v -1.5260658 0.9160881 6.764698
v -1.2748985 0.7366829 6.459709
v -1.221077 0.6828613 6.5673523
v 0.39357042 0.43169403 7.5002584
v 1.3444176 0.8263855 8.092297
v 1.4161797 0.6828613 8.181999
v -1.8310547 -1.2367744 6.3341255
v -1.66959 -1.6135254 6.5673523
v 1.4161797 0.6828613 8.181999
v 1.3444176 0.8263855 8.092297
v 3.6408043 -0.052700043 4.9527054
v 3.7125664 -0.19622421 5.0244675
v 0.46533203 -2.0979195 3.1765938
v 0.64473724 -2.492611 3.427761
v 3.7125664 -0.19622421 5.0244675
v 2.6899567 -0.42945147 4.360668
v 3.6408043 -0.052700043 4.9527054
v 0.39357042 0.43169403 7.5002584
v -1.8310547 -1.2367744 6.3341255
v 0.46533203 -2.0979195 3.1765938
v 2.6899567 -0.42945147 4.360668
v 1.3444176 0.8263855 8.092297
v 3.6408043 -0.052700043 4.9527054
v 0.64473724 -2.492611 3.427761
v -1.66959 -1.6135254 6.5673523
v 1.4161797 0.6828613 8.181999
v 3.7125664 -0.19622421 5.0244675
v 6.24218 3.1407127 9.294312
v 0.6267967 0.054943085 8.21788
v 0.5370941 0.25228882 8.092297
v 6.1524773 3.355999 9.186668
v 6.24218 3.1407127 9.294312
v 7.7491837 2.5845566 7.2311516
v 2.9590645 -1.0214882 4.7194786
v 0.6267967 0.054943085 8.21788
v 0.57297516 -0.21416473 7.8052483
v 0.6267967 0.054943085 8.21788
v 0.57297516 -0.21416473 7.8052483
v 0.48327255 -0.016819 7.697605
v 0.5370941 0.25228882 8.092297
v 2.8514214 -0.82414246 4.593895
v 7.659481 2.7819023 7.1235085
v 6.1524773 3.355999 9.186668
v 0.5370941 0.25228882 8.092297
v 0.48327255 -0.016819 7.697605
v 7.659481 2.7819023 7.1235085
v 2.8514214 -0.82414246 4.593895
v 2.9590645 -1.0214882 4.7194786
v 7.7491837 2.5845566 7.2311516
v 7.659481 2.7819023 7.1235085
v 7.7491837 2.5845566 7.2311516
v 6.24218 3.1407127 9.294312
v 6.1524773 3.355999 9.186668
v 2.9590645 -1.0214882 4.7194786
v 2.8514214 -0.82414246 4.593895
v 0.48327255 -0.016819 7.697605
v 0.57297516 -0.21416473 7.8052483
v 6.2601204 3.1048317 9.330193
v 6.349823 2.8895454 9.455776
v 0.7523804 -0.23210526 8.397285
v 0.66267776 -0.03475952 8.271702
v 6.2601204 3.1048317 9.330193
v 2.9949455 -1.1111908 4.7733
v 7.767124 2.530735 7.2670326
v 0.66267776 -0.03475952 8.271702
v 0.6088562 -0.30386734 7.85907
v 0.66267776 -0.03475952 8.271702
v 0.7523804 -0.23210526 8.397285
v 0.6985588 -0.5012131 7.9846535
v 0.6088562 -0.30386734 7.85907
v 3.0846481 -1.326477 4.8809433
v 6.349823 2.8895454 9.455776
v 7.8747673 2.3333893 7.3926163
v 0.7523804 -0.23210526 8.397285
v 0.6985588 -0.5012131 7.9846535
v 7.8747673 2.3333893 7.3926163
v 7.767124 2.530735 7.2670326
v 2.9949455 -1.1111908 4.7733
v 3.0846481 -1.326477 4.8809433
v 7.8747673 2.3333893 7.3926163
v 6.349823 2.8895454 9.455776
v 6.2601204 3.1048317 9.330193
v 7.767124 2.530735 7.2670326
v 2.9949455 -1.1111908 4.7733
v 0.6088562 -0.30386734 7.85907
v 0.6985588 -0.5012131 7.9846535
v 3.0846481 -1.326477 4.8809433
v 5.0581055 3.696869 9.563419
v 5.2733917 3.6071663 9.976051
v 5.3630943 3.5174637 9.778706
v 4.968403 3.7865715 9.742825
v 5.0939865 4.07362 9.384014
v 5.0222244 4.1633224 9.58136
v 5.4707375 4.288906 9.455776
v 5.381035 4.3786087 9.653122
v 5.3630943 3.5174637 9.778706
v 5.2733917 3.6071663 9.976051
v 5.6501427 3.804512 10.029873
v 5.7219048 3.7148094 9.832527
v 5.6860237 4.1992035 9.868408
v 5.7757263 4.109501 9.671062
v 5.381035 4.3786087 9.653122
v 5.4707375 4.288906 9.455776
v 5.0939865 4.07362 9.384014
v 5.0581055 3.696869 9.563419
v 5.3630943 3.5174637 9.778706
v 5.7219048 3.7148094 9.832527
v 5.7757263 4.109501 9.671062
v 5.4707375 4.288906 9.455776
v 5.381035 4.3786087 9.653122
v 5.6860237 4.1992035 9.868408
v 5.6501427 3.804512 10.029873
v 5.0222244 4.1633224 9.58136
v 4.968403 3.7865715 9.742825
v 5.2733917 3.6071663 9.976051
v 6.5471687 1.9566383 6.011196
v 5.56044 3.2304153 9.312252
v 6.8880386 1.7592926 6.244423
v 5.21957 3.427761 9.061085
v 6.6009903 2.3872108 5.831791
v 5.2733917 3.8583336 8.88168
v 6.995682 2.6204376 5.8856125
v 5.6860237 4.0915604 8.953442
v 6.8880386 1.7592926 6.244423
v 5.56044 3.2304153 9.312252
v 5.973072 3.4636421 9.384014
v 7.3006706 1.9925194 6.316185
v 6.0268936 3.8942146 9.204609
v 7.354492 2.423092 6.13678
v 5.6860237 4.0915604 8.953442
v 6.995682 2.6204376 5.8856125
v 6.6009903 2.3872108 5.831791
v 6.5471687 1.9566383 6.011196
v 6.8880386 1.7592926 6.244423
v 7.3006706 1.9925194 6.316185
v 7.354492 2.423092 6.13678
v 6.995682 2.6204376 5.8856125
v 5.6860237 4.0915604 8.953442
v 6.0268936 3.8942146 9.204609
v 5.973072 3.4636421 9.384014
v 5.2733917 3.8583336 8.88168
v 5.21957 3.427761 9.061085
v 5.56044 3.2304153 9.312252
v 7.8209457 0.808445 3.427761
v 5.381035 3.6251068 9.724884
v 8.036232 0.6828613 3.5892258
v 5.1657486 3.7506905 9.563419
v 7.856827 1.0775528 3.320118
v 5.2016296 4.0197983 9.455776
v 8.107994 1.221077 3.355999
v 5.452797 4.1633224 9.509598
v 8.036232 0.6828613 3.5892258
v 5.381035 3.6251068 9.724884
v 5.632202 3.768631 9.760765
v 8.287399 0.8263855 3.6251068
v 5.668083 4.037739 9.653122
v 8.32328 1.0954933 3.5174637
v 5.452797 4.1633224 9.509598
v 8.107994 1.221077 3.355999
v 8.107994 1.221077 3.355999
v 7.856827 1.0775528 3.320118
v 7.8209457 0.808445 3.427761
v 8.32328 1.0954933 3.5174637
v 8.287399 0.8263855 3.6251068
v 8.036232 0.6828613 3.5892258
v -0.6469803 -0.55503464 -0.447392
v -0.70080185 -0.052700043 0.072883606
v -2.5486755 2.1001625 -2.1696815
v -2.5127945 1.6157684 -2.6899567
v -1.0596123 -1.1111908 -0.66267776
v -0.6469803 -0.55503464 -0.447392
v -2.5127945 1.6157684 -2.6899567
v -2.907486 1.0596123 -2.8873024
v -1.66959 -1.3982391 -0.42945147
v -1.0596123 -1.1111908 -0.66267776
v -2.907486 1.0596123 -2.8873024
v -3.5174637 0.77256393 -2.6720161
v -2.1360435 -1.254715 0.09082413
v -1.66959 -1.3982391 -0.42945147
v -3.5174637 0.77256393 -2.6720161
v -3.9839172 0.8981476 -2.151741
v -2.189865 -0.7703209 0.61109924
v -2.1360435 -1.254715 0.09082413
v -3.9839172 0.8981476 -2.151741
v -4.037739 1.4004822 -1.6314659
v -1.7772331 -0.21416473 0.808445
v -2.189865 -0.7703209 0.61109924
v -4.037739 1.4004822 -1.6314659
v -3.6430473 1.9566383 -1.4161797
v -1.1672554 0.072883606 0.5931587
v -1.7772331 -0.21416473 0.808445
v -3.6430473 1.9566383 -1.4161797
v -3.015129 2.2436867 -1.6494064
v -0.70080185 -0.052700043 0.072883606
v -1.1672554 0.072883606 0.5931587
v -3.015129 2.2436867 -1.6494064
v -2.5486755 2.1001625 -2.1696815
v -2.566616 1.5978279 -2.636135
v -2.6204376 2.0642815 -2.1696815
v -2.2436867 1.5619469 -1.6852875
v -2.189865 1.1313744 -2.1338005
v -2.943367 1.0954933 -2.8334808
v -2.566616 1.5978279 -2.636135
v -2.189865 1.1313744 -2.1338005
v -2.5486755 0.6469803 -2.3132057
v -3.4995232 0.8263855 -2.636135
v -2.943367 1.0954933 -2.8334808
v -2.5486755 0.6469803 -2.3132057
v -3.0868912 0.37787247 -2.11586
v -3.9300957 0.95196915 -2.151741
v -3.4995232 0.8263855 -2.636135
v -3.0868912 0.37787247 -2.11586
v -3.4815826 0.5034561 -1.6494064
v -3.9659767 1.4004822 -1.667347
v -3.9300957 0.95196915 -2.151741
v -3.4815826 0.5034561 -1.6494064
v -3.5354042 0.9340286 -1.2008934
v -3.6071663 1.9207573 -1.4879417
v -3.9659767 1.4004822 -1.667347
v -3.5354042 0.9340286 -1.2008934
v -3.1765938 1.4184227 -1.0214882
v -3.0330696 2.189865 -1.6852875
v -3.6071663 1.9207573 -1.4879417
v -3.1765938 1.4184227 -1.0214882
v -2.6383781 1.66959 -1.2188339
v -2.6204376 2.0642815 -2.1696815
v -3.0330696 2.189865 -1.6852875
v -2.6383781 1.66959 -1.2188339
v -2.2436867 1.5619469 -1.6852875
v -2.6383781 1.66959 -1.2188339
v -2.189865 1.1313744 -2.1338005
v -2.2436867 1.5619469 -1.6852875
v -3.1765938 1.4184227 -1.0214882
v -3.5354042 0.9340286 -1.2008934
v -2.5486755 0.6469803 -2.3132057
v -3.4815826 0.5034561 -1.6494064
v -3.0868912 0.37787247 -2.11586
v -1.1672554 0.072883606 0.5931587
v -2.189865 -0.7703209 0.61109924
v -1.7772331 -0.21416473 0.808445
v -0.70080185 -0.052700043 0.072883606
v -0.6469803 -0.55503464 -0.447392
v -2.1360435 -1.254715 0.09082413
v -1.0596123 -1.1111908 -0.66267776
v -1.66959 -1.3982391 -0.42945147
v -2.6742592 1.1851959 -1.667347
v -3.0510101 1.5081253 -2.044098
v -3.0689507 1.3825417 -2.151741
v -2.6921997 1.0237312 -1.8108711
v -2.6921997 1.0237312 -1.8108711
v -3.0689507 1.3825417 -2.151741
v -3.1945343 1.292839 -2.1338005
v -2.8536644 0.8981476 -1.7929306
v -2.8536644 0.8981476 -1.7929306
v -3.1945343 1.292839 -2.1338005
v -3.3021774 1.3107796 -2.0082169
v -2.9971886 0.9160881 -1.6314659
v -2.9971886 0.9160881 -1.6314659
v -3.3021774 1.3107796 -2.0082169
v -3.284237 1.4363632 -1.9005737
v -2.979248 1.0775528 -1.4879417
v -2.979248 1.0775528 -1.4879417
v -3.284237 1.4363632 -1.9005737
v -3.1586533 1.5440063 -1.9185143
v -2.7998428 1.221077 -1.5238228
v -2.7998428 1.221077 -1.5238228
v -3.1586533 1.5440063 -1.9185143
v -3.0510101 1.5081253 -2.044098
v -2.6742592 1.1851959 -1.667347
v -3.284237 1.4363632 -1.9005737
v -3.0510101 1.5081253 -2.044098
v -3.1586533 1.5440063 -1.9185143
v -3.0689507 1.3825417 -2.151741
v -3.3021774 1.3107796 -2.0082169
v -3.1945343 1.292839 -2.1338005
v -3.1765938 1.4901848 -1.9543953
v -3.2662964 1.3646011 -1.9902763
v -3.3739395 1.4722443 -2.11586
v -3.284237 1.5978279 -2.079979
v -3.2662964 1.3646011 -1.9902763
v -3.1586533 1.3287201 -2.11586
v -3.2662964 1.4543037 -2.2414436
v -3.3739395 1.4722443 -2.11586
v -3.1586533 1.3287201 -2.11586
v -3.0689507 1.4543037 -2.0620384
v -3.1765938 1.5798874 -2.187622
v -3.2662964 1.4543037 -2.2414436
v -3.0689507 1.4543037 -2.0620384
v -3.1765938 1.4901848 -1.9543953
v -3.284237 1.5978279 -2.079979
v -3.1765938 1.5798874 -2.187622
v -3.1765938 1.5798874 -2.187622
v -3.284237 1.5978279 -2.079979
v -3.3739395 1.4722443 -2.11586
v -3.2662964 1.4543037 -2.2414436
v -2.8536644 1.0596123 -1.6494064
v -3.2304153 1.4722443 -2.079979
v -2.8177834 2.118103 -1.8646927
v -2.4410324 1.66959 -1.4341202
v -2.423092 1.66959 -1.4520607
v -2.7998428 2.118103 -1.8826332
v -3.2124748 1.4722443 -2.0979195
v -2.8357239 1.0596123 -1.667347
v -3.2124748 1.4722443 -2.0979195
v -2.7998428 2.118103 -1.8826332
v -2.8177834 2.118103 -1.8646927
v -3.2304153 1.4722443 -2.079979
v -2.2795677 0.9340286 -2.2593842
v -3.355999 1.221077 -1.0394287
v -3.73275 1.633709 -1.4879417
v -2.6563187 1.3466606 -2.7078972
v -3.768631 1.5798874 -1.5058823
v -3.39188 1.1672554 -1.0573692
v -2.3154488 0.88020706 -2.2773247
v -2.6921997 1.292839 -2.7258377
v -3.73275 1.633709 -1.4879417
v -3.768631 1.5798874 -1.5058823
v -2.6921997 1.292839 -2.7258377
v -2.6563187 1.3466606 -2.7078972
v 4.771057 1.5978279 3.6251068
v 5.0939865 1.1313744 3.8583336
v 4.5737114 1.4184227 4.0197983
v 5.147808 1.5081253 3.3739395
v 4.699295 1.0596123 4.324787
v 5.5066185 1.1851959 3.4098206
v 5.040165 0.7546234 4.360668
v 5.632202 0.844326 3.696869
v 5.4348564 0.6649208 4.0915604
v -3.015129 2.2436867 -1.6494064
v -3.6430473 1.9566383 -1.4161797
v -3.6071663 1.9207573 -1.4879417
v -3.0330696 2.189865 -1.6852875
v -3.9659767 1.4004822 -1.667347
v -2.5486755 2.1001625 -2.1696815
v -4.037739 1.4004822 -1.6314659
v -2.6204376 2.0642815 -2.1696815
v -3.9300957 0.95196915 -2.151741
v -2.5127945 1.6157684 -2.6899567
v -3.9839172 0.8981476 -2.151741
v -2.566616 1.5978279 -2.636135
v -3.4995232 0.8263855 -2.636135
v -2.907486 1.0596123 -2.8873024
v -3.5174637 0.77256393 -2.6720161
v -2.943367 1.0954933 -2.8334808
vt 0.02065945 0.10200532
vt 0.02065945 0.005165
vt 0.06326919 0.005165
vt 0.06326919 0.10200532
vt 0.02065945 0.10200532
vt 0.06326919 0.10200532
vt 0.06326919 0.005165
vt 0.02065945 0.005165
vt 0.02065945 0.005165
vt 0.06326919 0.005165
vt 0.06326919 0.005165
vt 0.02065945 0.005165
vt 0.02065945 0.005165
vt 0.02065945 0.10200532
vt 0.06326919 0.10200532
vt 0.06326919 0.005165
vt 0.02065945 0.005165
vt 0.06326919 0.005165
vt 0.06326919 0.10200532
vt 0.02065945 0.10200532
vt 0.02065945 0.10200532
vt 0.06326919 0.10200532
vt 0.06326919 0.10200532
vt 0.02065945 0.10200532
vt 0.06326919 0.10200532
vt 0.06326919 0.005165
vt 0.02065945 0.005165
vt 0.02065945 0.10200532
vt 0.06326919 0.10200532
vt 0.02065945 0.10200532
vt 0.02065945 0.005165
vt 0.06326919 0.005165
vt 0.06326919 0.005165
vt 0.02065945 0.005165
vt 0.02065945 0.005165
vt 0.06326919 0.005165
vt 0.41189432 0.7682666
vt 0.3770318 0.98906255
vt 0.41189432 0.98906255
vt 0.3770318 0.7682666
vt 0.34216928 0.98906255
vt 0.34216928 0.7682666
vt 0.3073068 0.98906255
vt 0.3073068 0.7682666
vt 0.27244428 0.98906255
vt 0.27244428 0.7682666
vt 0.3770318 0.7682666
vt 0.41189432 0.7682666
vt 0.41189432 0.98906255
vt 0.3770318 0.98906255
vt 0.34216928 0.7682666
vt 0.34216928 0.98906255
vt 0.3073068 0.7682666
vt 0.3073068 0.98906255
vt 0.27244428 0.7682666
vt 0.27244428 0.98906255
vt 0.27244428 0.57458603
vt 0.3073068 0.5784596
vt 0.2879387 0.58233327
vt 0.315054 0.55909157
vt 0.26857066 0.55909157
vt 0.3073068 0.5435971
vt 0.27244428 0.5435971
vt 0.29181233 0.53584987
vt 0.06326919 0.10200532
vt 0.06326919 0.071016416
vt 0.043901123 0.10200532
vt 0.043901123 0.071016416
vt 0.02065945 0.10200532
vt 0.02065945 0.071016416
vt 0.02065945 0.04002751
vt 0.06326919 0.04002751
vt 0.02065945 0.005165
vt 0.06326919 0.005165
vt 0.06326919 0.10200532
vt 0.043901123 0.10200532
vt 0.06326919 0.10200532
vt 0.043901123 0.10200532
vt 0.02065945 0.10200532
vt 0.02065945 0.10200532
vt 0.06326919 0.04002751
vt 0.02065945 0.005165
vt 0.06326919 0.005165
vt 0.02065945 0.04002751
vt 0.06326919 0.071016416
vt 0.043901123 0.071016416
vt 0.02065945 0.071016416
vt 0.043901123 0.10200532
vt 0.06326919 0.10200532
vt 0.02065945 0.10200532
vt 0.06326919 0.03228029
vt 0.06326919 0.028406674
vt 0.043901123 0.028406674
vt 0.043901123 0.03228029
vt 0.02065945 0.028406674
vt 0.02065945 0.03228029
vt 0.043901123 0.02065945
vt 0.02065945 0.016785838
vt 0.02065945 0.02065945
vt 0.043901123 0.016785838
vt 0.06326919 0.02065945
vt 0.06326919 0.016785838
vt 0.02065945 0.07876364
vt 0.02065945 0.10200532
vt 0.06326919 0.10200532
vt 0.06326919 0.07876364
vt 0.06326919 0.05164835
vt 0.02065945 0.05164835
vt 0.02065945 0.005165
vt 0.06326919 0.03228029
vt 0.06326919 0.005165
vt 0.03228029 0.090384476
vt 0.06326919 0.090384476
vt 0.059395574 0.08651087
vt 0.03228029 0.08651087
vt 0.06326919 0.07876364
vt 0.06326919 0.10200532
vt 0.02065945 0.10200532
vt 0.02065945 0.07876364
vt 0.06326919 0.05164835
vt 0.02065945 0.05164835
vt 0.06326919 0.03228029
vt 0.06326919 0.005165
vt 0.02065945 0.005165
vt 0.02065945 0.009038612
vt 0.02065945 0.016785838
vt 0.043901123 0.016785838
vt 0.043901123 0.009038612
vt 0.0671428 0.009038612
vt 0.0671428 0.016785838
vt 0.05164835 0.012912225
vt 0.0671428 0.016785838
vt 0.0671428 0.012912225
vt 0.05164835 0.016785838
vt 0.04002751 0.012912225
vt 0.04002751 0.016785838
vt 0.02065945 0.05164835
vt 0.02065945 0.10200532
vt 0.06326919 0.10200532
vt 0.06326919 0.005165
vt 0.02065945 0.005165
vt 0.06326919 0.005165
vt 0.06326919 0.10200532
vt 0.02065945 0.10200532
vt 0.02065945 0.05164835
vt 0.02065945 0.005165
vt 0.02065945 0.10200532
vt 0.06326919 0.10200532
vt 0.06326919 0.10200532
vt 0.02065945 0.10200532
vt 0.06326919 0.10200532
vt 0.06326919 0.005165
vt 0.02065945 0.005165
vt 0.02065945 0.10200532
vt 0.06326919 0.10200532
vt 0.02065945 0.10200532
vt 0.02065945 0.005165
vt 0.06326919 0.005165
vt 0.06326919 0.005165
vt 0.02065945 0.005165
vt 0.02065945 0.005165
vt 0.06326919 0.005165
vt 0.02065945 0.10200532
vt 0.06326919 0.074890025
vt 0.06326919 0.10200532
vt 0.06326919 0.005165
vt 0.02065945 0.005165
vt 0.02065945 0.10200532
vt 0.06326919 0.005165
vt 0.02065945 0.005165
vt 0.06326919 0.074890025
vt 0.06326919 0.10200532
vt 0.02065945 0.005165
vt 0.06326919 0.005165
vt 0.06326919 0.005165
vt 0.02065945 0.005165
vt 0.02065945 0.009038612
vt 0.02065945 0.012912225
vt 0.0671428 0.012912225
vt 0.0671428 0.009038612
vt 0.04002751 0.016785838
vt 0.04002751 0.012912225
vt 0.02065945 0.012912225
vt 0.02065945 0.016785838
vt 0.73340416 0.60944855
vt 0.7915083 0.55909157
vt 0.73340416 0.55909157
vt 0.7915083 0.60944855
vt 0.98906255 0.55909157
vt 0.73340416 0.6598055
vt 0.98906255 0.60944855
vt 0.7915083 0.6598055
vt 0.73340416 0.71016246
vt 0.98906255 0.6598055
vt 0.7915083 0.71016246
vt 0.98906255 0.71016246
vt 0.7915083 0.76051944
vt 0.98906255 0.76051944
vt 0.73340416 0.55909157
vt 0.73340416 0.60944855
vt 0.73340416 0.55909157
vt 0.73340416 0.60944855
vt 0.73340416 0.6598055
vt 0.73340416 0.6598055
vt 0.73340416 0.71016246
vt 0.73340416 0.71016246
vt 0.73340416 0.73340416
vt 0.73340416 0.73340416
vt 0.73340416 0.7566458
vt 0.73340416 0.7566458
vt 0.73340416 0.60944855
vt 0.73340416 0.55909157
vt 0.73340416 0.55909157
vt 0.73340416 0.60944855
vt 0.73340416 0.6598055
vt 0.73340416 0.6598055
vt 0.73340416 0.71016246
vt 0.73340416 0.71016246
vt 0.73340416 0.6598055
vt 0.73340416 0.71016246
vt 0.67529994 0.71016246
vt 0.67529994 0.6598055
vt 0.73340416 0.60944855
vt 0.73340416 0.6598055
vt 0.67529994 0.6598055
vt 0.67529994 0.60944855
vt 0.73340416 0.55909157
vt 0.73340416 0.60944855
vt 0.67529994 0.60944855
vt 0.67529994 0.55909157
vt 0.73340416 0.60944855
vt 0.73340416 0.55909157
vt 0.67529994 0.55909157
vt 0.67529994 0.60944855
vt 0.73340416 0.60944855
vt 0.73340416 0.55909157
vt 0.67529994 0.55909157
vt 0.67529994 0.60944855
vt 0.73340416 0.71016246
vt 0.73340416 0.6598055
vt 0.67529994 0.6598055
vt 0.67529994 0.71016246
vt 0.73340416 0.73340416
vt 0.73340416 0.76051944
vt 0.67529994 0.76051944
vt 0.73340416 0.71016246
vt 0.67529994 0.71016246
vt 0.6017013 0.16010949
vt 0.67529994 0.1329942
vt 0.6443111 0.16010949
vt 0.57458603 0.1329942
vt 0.57458603 0.090384476
vt 0.67529994 0.090384476
vt 0.6017013 0.06326919
vt 0.6443111 0.06326919
vt 0.77214026 0.6598055
vt 0.7915083 0.6210694
vt 0.7915083 0.6443111
vt 0.7527722 0.6598055
vt 0.73340416 0.6404374
vt 0.77601385 0.6055749
vt 0.73340416 0.6210694
vt 0.7527722 0.6017013
vt 0.86123335 0.5009874
vt 0.8728542 0.48161936
vt 0.86123335 0.48161936
vt 0.8728542 0.5009874
vt 0.86123335 0.5164818
vt 0.8728542 0.5164818
vt 0.86123335 0.53584987
vt 0.8728542 0.53584987
vt 0.86123335 0.48161936
vt 0.8728542 0.48161936
vt 0.8728542 0.5009874
vt 0.86123335 0.5009874
vt 0.8728542 0.5164818
vt 0.86123335 0.5164818
vt 0.8728542 0.53584987
vt 0.86123335 0.53584987
vt 0.8806014 0.51260823
vt 0.8806014 0.4971138
vt 0.884475 0.504861
vt 0.8728542 0.4971138
vt 0.8728542 0.51260823
vt 0.8689806 0.504861
vt 0.30343318 0.67142636
vt 0.30343318 0.65205824
vt 0.34991652 0.65205824
vt 0.34991652 0.67142636
vt 0.30343318 0.6907944
vt 0.34991652 0.6907944
vt 0.30343318 0.71016246
vt 0.34991652 0.71016246
vt 0.30343318 0.7295305
vt 0.34991652 0.7295305
vt 0.30343318 0.6443111
vt 0.30343318 0.6017013
vt 0.3460429 0.6017013
vt 0.3460429 0.6443111
vt 0.86123335 0.49324018
vt 0.884475 0.49324018
vt 0.884475 0.5319763
vt 0.86123335 0.5319763
vt 0.86123335 0.5319763
vt 0.884475 0.5319763
vt 0.884475 0.49324018
vt 0.86123335 0.49324018
vt 0.88834864 0.49324018
vt 0.88834864 0.5319763
vt 0.884475 0.5319763
vt 0.884475 0.49324018
vt 0.86123335 0.48549297
vt 0.86123335 0.5397235
vt 0.8806014 0.5397235
vt 0.8806014 0.48549297
vt 0.8806014 0.5397235
vt 0.86123335 0.5397235
vt 0.86123335 0.48549297
vt 0.8806014 0.48549297
vt 0.884475 0.5397235
vt 0.8806014 0.5397235
vt 0.8806014 0.48549297
vt 0.884475 0.48549297
vt 0.7915083 0.55909157
vt 0.98906255 0.55909157
vt 0.98906255 0.60944855
vt 0.7915083 0.60944855
vt 0.73340416 0.55909157
vt 0.98906255 0.6598055
vt 0.73340416 0.60944855
vt 0.7915083 0.6598055
vt 0.73340416 0.6598055
vt 0.98906255 0.71016246
vt 0.7915083 0.71016246
vt 0.73340416 0.71016246
vt 0.7915083 0.76051944
vt 0.98906255 0.76051944
vt 0.73340416 0.73340416
vt 0.73340416 0.76051944
vt 0.7295305 0.694668
vt 0.7295305 0.6907944
vt 0.7062889 0.6907944
vt 0.7062889 0.694668
vt 0.7024152 0.6907944
vt 0.7024152 0.694668
vt 0.7295305 0.694668
vt 0.7295305 0.6907944
vt 0.73340416 0.7566458
vt 0.76051944 0.76051944
vt 0.73340416 0.73340416
vt 0.76051944 0.73340416
vt 0.7915083 0.76051944
vt 0.76051944 0.71016246
vt 0.73340416 0.71016246
vt 0.7915083 0.71016246
vt 0.73340416 0.7566458
vt 0.73340416 0.73340416
vt 0.73340416 0.7527722
vt 0.73340416 0.73340416
vt 0.73340416 0.71016246
vt 0.73340416 0.71016246
vt 0.73340416 0.7062889
vt 0.73340416 0.6830472
vt 0.7062889 0.71016246
vt 0.7062889 0.6830472
vt 0.7062889 0.6598055
vt 0.73340416 0.6598055
vt 0.67529994 0.6598055
vt 0.67529994 0.71016246
vt 0.6791735 0.6907944
vt 0.6791735 0.694668
vt 0.6907944 0.694668
vt 0.6907944 0.6907944
vt 0.7062889 0.6907944
vt 0.7062889 0.694668
vt 0.6791735 0.6907944
vt 0.6791735 0.694668
vt 0.6907944 0.694668
vt 0.6907944 0.6907944
vt 0.7024152 0.6907944
vt 0.7024152 0.694668
vt 0.4699985 0.73727775
vt 0.44675684 0.79925555
vt 0.43126237 0.79925555
vt 0.4699985 0.5784596
vt 0.43126237 0.5784596
vt 0.24920258 0.21821368
vt 0.26082343 0.21821368
vt 0.26082343 0.009038612
vt 0.24920258 0.009038612
vt 0.4699985 0.5784596
vt 0.43126237 0.5784596
vt 0.43126237 0.79925555
vt 0.4699985 0.73727775
vt 0.44675684 0.79925555
vt 0.32280123 0.21821368
vt 0.48161936 0.21821368
vt 0.48161936 0.009038612
vt 0.32280123 0.009038612
vt 0.26082343 0.21821368
vt 0.26082343 0.009038612
vt 0.08263725 0.009038612
vt 0.08263725 0.15623589
vt 0.23758174 0.15623589
vt 0.23758174 0.009038612
vt 0.86123335 0.39252627
vt 0.9696945 0.39252627
vt 0.9696945 0.38090542
vt 0.86123335 0.38090542
vt 0.7295305 0.42351517
vt 0.7295305 0.48549297
vt 0.5784596 0.48549297
vt 0.58233327 0.38477904
vt 0.57458603 0.39252627
vt 0.435136 0.77214026
vt 0.435136 0.79925555
vt 0.45063046 0.79925555
vt 0.45063046 0.77214026
vt 0.9735681 0.53584987
vt 0.9735681 0.16785672
vt 0.82249725 0.16785672
vt 0.7295305 0.52422905
vt 0.74889857 0.5435971
vt 0.9735681 0.16785672
vt 0.9735681 0.53584987
vt 0.98906255 0.53584987
vt 0.98906255 0.16785672
vt 0.9735681 0.16785672
vt 0.9735681 0.15236227
vt 0.82249725 0.15236227
vt 0.82249725 0.16785672
vt 0.435136 0.4699985
vt 0.45063046 0.4699985
vt 0.45063046 0.6791735
vt 0.435136 0.6791735
vt 0.86123335 0.39252627
vt 0.86123335 0.38090542
vt 0.9696945 0.38090542
vt 0.9696945 0.39252627
vt 0.7295305 0.42351517
vt 0.5784596 0.48549297
vt 0.7295305 0.48549297
vt 0.58233327 0.38477904
vt 0.57458603 0.39252627
vt 0.435136 0.77214026
vt 0.45063046 0.77214026
vt 0.45063046 0.79925555
vt 0.435136 0.79925555
vt 0.9735681 0.53584987
vt 0.82249725 0.16785672
vt 0.9735681 0.16785672
vt 0.7295305 0.52422905
vt 0.74889857 0.5435971
vt 0.9735681 0.16785672
vt 0.98906255 0.16785672
vt 0.98906255 0.53584987
vt 0.9735681 0.53584987
vt 0.9735681 0.16785672
vt 0.82249725 0.16785672
vt 0.82249725 0.15236227
vt 0.9735681 0.15236227
vt 0.435136 0.4699985
vt 0.435136 0.6791735
vt 0.45063046 0.6791735
vt 0.45063046 0.4699985
vt 0.435136 0.29181233
vt 0.45450407 0.2569498
vt 0.435136 0.2569498
vt 0.45450407 0.29181233
vt 0.435136 0.32280123
vt 0.45450407 0.32280123
vt 0.435136 0.34991652
vt 0.45450407 0.34991652
vt 0.435136 0.2569498
vt 0.45450407 0.2569498
vt 0.45450407 0.29181233
vt 0.435136 0.29181233
vt 0.45450407 0.32280123
vt 0.435136 0.32280123
vt 0.45450407 0.34991652
vt 0.435136 0.34991652
vt 0.77601385 0.65205824
vt 0.78763473 0.6288166
vt 0.77601385 0.60944855
vt 0.74889857 0.60944855
vt 0.73727775 0.6288166
vt 0.74889857 0.65205824
vt 0.86510694 0.14848866
vt 0.88834864 0.10587893
vt 0.86510694 0.06326919
vt 0.8186236 0.14848866
vt 0.7915083 0.10587893
vt 0.81475 0.06326919
vt 0.24532898 0.2879387
vt 0.48936656 0.2569498
vt 0.24532898 0.2569498
vt 0.48936656 0.2879387
vt 0.24532898 0.32280123
vt 0.48936656 0.32280123
vt 0.24532898 0.35379013
vt 0.48936656 0.35379013
vt 0.24532898 0.2569498
vt 0.48936656 0.2569498
vt 0.48936656 0.2879387
vt 0.24532898 0.2879387
vt 0.48936656 0.32280123
vt 0.24532898 0.32280123
vt 0.48936656 0.35379013
vt 0.24532898 0.35379013
vt 0.9077167 0.4390096
vt 0.9193375 0.42351517
vt 0.9077167 0.4041471
vt 0.88834864 0.4041471
vt 0.8806014 0.42351517
vt 0.88834864 0.4390096
vt 0.9077167 0.4390096
vt 0.9193375 0.42351517
vt 0.9077167 0.4080207
vt 0.88834864 0.4390096
vt 0.8806014 0.42351517
vt 0.88834864 0.4080207
vt 0.98906255 0.04002751
vt 0.57458603 0.05552196
vt 0.98906255 0.05552196
vt 0.57458603 0.04002751
vt 0.98906255 0.02065945
vt 0.57458603 0.02065945
vt 0.98906255 0.005165
vt 0.57458603 0.005165
vt 0.98906255 0.05552196
vt 0.57458603 0.05552196
vt 0.57458603 0.04002751
vt 0.98906255 0.04002751
vt 0.57458603 0.02065945
vt 0.98906255 0.02065945
vt 0.57458603 0.005165
vt 0.98906255 0.005165
vt 0.79538196 0.6598055
vt 0.81475 0.6636791
vt 0.8302444 0.64818466
vt 0.7915083 0.6404374
vt 0.80312914 0.62494296
vt 0.82249725 0.6288166
vt 0.98906255 0.6598055
vt 0.98906255 0.71016246
vt 0.73340416 0.71016246
vt 0.73340416 0.6598055
vt 0.98906255 0.60944855
vt 0.98906255 0.6598055
vt 0.73340416 0.6598055
vt 0.73340416 0.60944855
vt 0.98906255 0.55909157
vt 0.98906255 0.60944855
vt 0.73340416 0.60944855
vt 0.73340416 0.55909157
vt 0.98906255 0.60944855
vt 0.98906255 0.55909157
vt 0.73340416 0.55909157
vt 0.73340416 0.60944855
vt 0.98906255 0.6598055
vt 0.98906255 0.60944855
vt 0.73340416 0.60944855
vt 0.73340416 0.6598055
vt 0.98906255 0.71016246
vt 0.98906255 0.6598055
vt 0.73340416 0.6598055
vt 0.73340416 0.71016246
vt 0.98906255 0.76051944
vt 0.98906255 0.71016246
vt 0.73340416 0.71016246
vt 0.73340416 0.76051944
vt 0.98906255 0.71016246
vt 0.98906255 0.76051944
vt 0.73340416 0.76051944
vt 0.73340416 0.71016246
vt 0.73340416 0.6598055
vt 0.73340416 0.71016246
vt 0.67529994 0.71016246
vt 0.67529994 0.6598055
vt 0.73340416 0.60944855
vt 0.73340416 0.6598055
vt 0.67529994 0.6598055
vt 0.67529994 0.60944855
vt 0.73340416 0.55909157
vt 0.73340416 0.60944855
vt 0.67529994 0.60944855
vt 0.67529994 0.55909157
vt 0.73340416 0.60944855
vt 0.73340416 0.55909157
vt 0.67529994 0.55909157
vt 0.67529994 0.60944855
vt 0.73340416 0.71016246
vt 0.73340416 0.6598055
vt 0.67529994 0.6598055
vt 0.67529994 0.71016246
vt 0.73340416 0.71016246
vt 0.73340416 0.6598055
vt 0.67529994 0.6598055
vt 0.67529994 0.71016246
vt 0.73340416 0.71016246
vt 0.73340416 0.6598055
vt 0.67529994 0.6598055
vt 0.67529994 0.71016246
vt 0.73340416 0.71016246
vt 0.73340416 0.76051944
vt 0.67529994 0.76051944
vt 0.67529994 0.71016246
vt 0.6017013 0.16010949
vt 0.67529994 0.1329942
vt 0.6443111 0.16010949
vt 0.57458603 0.1329942
vt 0.57458603 0.090384476
vt 0.67529994 0.090384476
vt 0.6017013 0.06326919
vt 0.6443111 0.06326919
vt 0.77214026 0.6598055
vt 0.7915083 0.6210694
vt 0.7915083 0.6443111
vt 0.7527722 0.6598055
vt 0.73340416 0.6404374
vt 0.77601385 0.6055749
vt 0.73340416 0.6210694
vt 0.7527722 0.6017013
vt 0.86123335 0.5164818
vt 0.8728542 0.5164818
vt 0.8728542 0.5009874
vt 0.86123335 0.5009874
vt 0.86123335 0.5009874
vt 0.8728542 0.5009874
vt 0.8728542 0.48161936
vt 0.86123335 0.48161936
vt 0.86123335 0.48161936
vt 0.8728542 0.48161936
vt 0.8728542 0.5009874
vt 0.86123335 0.5009874
vt 0.86123335 0.5009874
vt 0.8728542 0.5009874
vt 0.8728542 0.5164818
vt 0.86123335 0.5164818
vt 0.86123335 0.5164818
vt 0.8728542 0.5164818
vt 0.8728542 0.53584987
vt 0.86123335 0.53584987
vt 0.86123335 0.53584987
vt 0.8728542 0.53584987
vt 0.8728542 0.5164818
vt 0.86123335 0.5164818
vt 0.8806014 0.51260823
vt 0.8806014 0.4971138
vt 0.884475 0.504861
vt 0.8728542 0.4971138
vt 0.8728542 0.51260823
vt 0.8689806 0.504861
vt 0.30343318 0.6907944
vt 0.30343318 0.67142636
vt 0.34991652 0.67142636
vt 0.34991652 0.6907944
vt 0.30343318 0.67142636
vt 0.30343318 0.65205824
vt 0.34991652 0.65205824
vt 0.34991652 0.67142636
vt 0.30343318 0.7295305
vt 0.30343318 0.71016246
vt 0.34991652 0.71016246
vt 0.34991652 0.7295305
vt 0.30343318 0.71016246
vt 0.30343318 0.6907944
vt 0.34991652 0.6907944
vt 0.34991652 0.71016246
vt 0.30343318 0.6443111
vt 0.30343318 0.6017013
vt 0.3460429 0.6017013
vt 0.3460429 0.6443111
vt 0.86123335 0.49324018
vt 0.884475 0.49324018
vt 0.884475 0.5319763
vt 0.86123335 0.5319763
vt 0.86123335 0.5319763
vt 0.884475 0.5319763
vt 0.884475 0.49324018
vt 0.86123335 0.49324018
vt 0.88834864 0.49324018
vt 0.88834864 0.5319763
vt 0.884475 0.5319763
vt 0.884475 0.49324018
vt 0.86123335 0.48549297
vt 0.86123335 0.5397235
vt 0.8806014 0.5397235
vt 0.8806014 0.48549297
vt 0.8806014 0.5397235
vt 0.86123335 0.5397235
vt 0.86123335 0.48549297
vt 0.8806014 0.48549297
vt 0.884475 0.5397235
vt 0.8806014 0.5397235
vt 0.8806014 0.48549297
vt 0.884475 0.48549297
vt 0.78763473 0.09425809
vt 0.73727775 0.11362615
vt 0.78763473 0.1329942
vt 0.76051944 0.06326919
vt 0.7566458 0.16010949
vt 0.7179097 0.06326919
vt 0.7179097 0.16010949
vt 0.6907944 0.090384476
vt 0.68692076 0.1329942
vt 0.73340416 0.76051944
vt 0.73340416 0.71016246
vt 0.73340416 0.71016246
vt 0.73340416 0.76051944
vt 0.73340416 0.6598055
vt 0.73340416 0.71016246
vt 0.73340416 0.6598055
vt 0.73340416 0.71016246
vt 0.73340416 0.60944855
vt 0.73340416 0.6598055
vt 0.73340416 0.60944855
vt 0.73340416 0.6598055
vt 0.73340416 0.55909157
vt 0.73340416 0.60944855
vt 0.73340416 0.55909157
vt 0.73340416 0.60944855
vn -0.45115 -0.43177313 0.7810478
vn -0.45115 -0.43177313 0.7810478
vn -0.45115 -0.43177313 0.7810478
vn -0.45115 -0.43177313 0.7810478
vn 0.43177313 0.41961712 -0.7984319
vn 0.43177313 0.41961712 -0.7984319
vn 0.43177313 0.41961712 -0.7984319
vn 0.43177313 0.41961712 -0.7984319
vn 0.49483907 0.6088149 0.6200635
vn 0.49483907 0.6088149 0.6200635
vn 0.49483907 0.6088149 0.6200635
vn 0.49483907 0.6088149 0.6200635
vn -0.8610787 0.13582033 0.48999625
vn -0.8610787 0.13582033 0.48999625
vn -0.8610787 0.13582033 0.48999625
vn -0.8610787 0.13582033 0.48999625
vn 0.84170175 -0.1479764 -0.5192698
vn 0.84170175 -0.1479764 -0.5192698
vn 0.84170175 -0.1479764 -0.5192698
vn 0.84170175 -0.1479764 -0.5192698
vn 0.46330607 0.6718808 0.5778613
vn 0.46330607 0.6718808 0.5778613
vn 0.46330607 0.6718808 0.5778613
vn 0.46330607 0.6718808 0.5778613
vn -0.79504484 0.6065507 -0
vn -0.79504484 0.6065507 -0
vn -0.79504484 0.6065507 -0
vn -0.79504484 0.6065507 -0
vn 0.7786358 -0.62097096 0.09011848
vn 0.7786358 -0.62097096 0.09011848
vn 0.7786358 -0.62097096 0.09011848
vn 0.7786358 -0.62097096 0.09011848
vn 0.46330607 0.7034138 0.53903294
vn 0.46330607 0.7034138 0.53903294
vn 0.46330607 0.7034138 0.53903294
vn 0.46330607 0.7034138 0.53903294
vn 0.84170175 -0.46330607 -0.27728266
vn 0.6525039 0.10428733 -0.750575
vn 0.84170175 -0.46330607 -0.27728266
vn 0.6525039 0.10428733 -0.750575
vn 0.08491045 0.6088149 -0.7887552
vn 0.08491045 0.6088149 -0.7887552
vn -0.5457489 0.7349468 -0.40250638
vn -0.5457489 0.7349468 -0.40250638
vn -0.8610787 0.45115 0.23453608
vn -0.8610787 0.45115 0.23453608
vn 0.5263721 -0.74710286 0.40591842
vn 0.84170175 -0.46330607 -0.27728266
vn 0.84170175 -0.46330607 -0.27728266
vn 0.5263721 -0.74710286 0.40591842
vn -0.10428733 -0.62097096 0.776865
vn -0.10428733 -0.62097096 0.776865
vn -0.6718808 -0.116443455 0.73144865
vn -0.6718808 -0.116443455 0.73144865
vn -0.8610787 0.45115 0.23453608
vn -0.8610787 0.45115 0.23453608
vn -0.514216 -0.6525039 -0.55661523
vn -0.514216 -0.6525039 -0.55661523
vn -0.514216 -0.6525039 -0.55661523
vn -0.514216 -0.6525039 -0.55661523
vn -0.514216 -0.6525039 -0.55661523
vn -0.514216 -0.6525039 -0.55661523
vn -0.514216 -0.6525039 -0.55661523
vn -0.514216 -0.6525039 -0.55661523
vn 0.08465923 -0.99640983 -0
vn -0.514216 -0.84170175 0.16468167
vn -0.13582033 -0.96783364 -0.21178028
vn -0.45115 -0.8732347 -0.1841869
vn -0.23041922 -0.8732347 -0.4293811
vn -0.29348522 -0.93630064 -0.19289257
vn -0.41961712 -0.49483907 0.7609571
vn -0.482683 -0.46330607 0.74321234
vn -0.3565511 -0.33717424 0.87131214
vn -0.3565511 -0.33717424 0.87131214
vn -0.45115 0.29348522 0.8428108
vn -0.3565511 0.29348522 0.8869823
vn -0.45115 0.29348522 0.8428108
vn -0.3565511 0.29348522 0.8869823
vn -0.23041922 0.26195222 0.9371702
vn -0.23041922 0.26195222 0.9371702
vn 0.49483907 0.482683 -0.72260046
vn 0.36870718 0.3250181 -0.87087214
vn 0.36870718 0.3250181 -0.87087214
vn 0.46330607 0.514216 -0.7217544
vn 0.52156353 0.8532125 -0
vn 0.43177313 0.89261156 0.12967889
vn 0.2741083 0.95567757 0.10744795
vn 0.1479764 0.9872106 0.05931512
vn -0.10428733 0.9872106 -0.120579764
vn 0.2741083 0.89261156 0.35792357
vn -0.5772819 0.7980127 0.1729779
vn -0.5772819 0.7980127 0.1729779
vn -0.45108423 0.89248145 -0
vn -0.45108423 0.89248145 -0
vn -0.29348522 0.95567757 -0.023384033
vn -0.29348522 0.95567757 -0.023384033
vn 0.9993666 0.009688437 0.034242578
vn 0.96783364 0.13582033 0.21178028
vn 0.96783364 0.13582033 0.21178028
vn 0.9993666 -0.021844506 0.02809337
vn 0.96783364 -0.17950934 -0.17627944
vn 0.96783364 -0.17950934 -0.17627944
vn -0.95567757 -0.2741083 0.107447915
vn -0.91763616 -0.39742142 -0
vn -0.91763616 -0.39742142 -0
vn -0.95567757 -0.2741083 0.107447915
vn -0.89261156 0.10428733 0.43859866
vn -0.89261156 0.10428733 0.43859866
vn -0.7664797 0.23041922 0.59951305
vn -0.7664797 0.23041922 0.59951305
vn -0.7664797 0.23041922 0.59951305
vn -0.13582033 0.6088149 0.7815992
vn -0.13582033 0.6088149 0.7815992
vn -0.13582033 0.6088149 0.7815992
vn -0.13582033 0.6088149 0.7815992
vn 0.96526897 0.26125807 -0
vn 0.9047677 0.3880841 0.17545976
vn 0.9047677 0.3880841 0.17545976
vn 0.96526897 0.26125807 -0
vn 0.93630064 0.04122144 -0.34877205
vn 0.9047677 -0.08491045 -0.41735554
vn 0.7786358 -0.24257529 -0.5786912
vn 0.7786358 -0.24257529 -0.5786912
vn 0.7786358 -0.24257529 -0.5786912
vn 0.2741083 0.8610787 -0.42826176
vn 0.2741083 0.8610787 -0.42826176
vn 0.2741083 0.7980127 -0.53669393
vn 0.2741083 0.7664797 -0.5808387
vn 0.2741083 0.7349468 -0.6202563
vn 0.2741083 0.7349468 -0.6202563
vn 0.68403685 -0.49483907 0.5359364
vn 0.68403685 -0.40024018 0.6098372
vn 0.68403685 -0.40024018 0.6098372
vn 0.68403685 -0.46330607 0.5634191
vn 0.68403685 -0.557905 0.46993145
vn 0.68403685 -0.557905 0.46993145
vn 0.70710677 -0.70710677 -0
vn 0.70710677 -0.70710677 -0
vn 0.70710677 -0.70710677 -0
vn 0.70710677 -0.70710677 -0
vn 0.70710677 -0.70710677 -0
vn -0.7034138 0.7034138 -0.102069326
vn -0.7034138 0.7034138 -0.102069326
vn -0.7034138 0.7034138 -0.102069326
vn -0.7034138 0.7034138 -0.102069326
vn -0.7034138 0.7034138 -0.102069326
vn 0.58943796 0.5772819 0.56507385
vn 0.58943796 0.5772819 0.56507385
vn 0.58943796 0.5772819 0.56507385
vn 0.58943796 0.5772819 0.56507385
vn 0.21104234 -0.7786358 0.5909208
vn 0.21104234 -0.7786358 0.5909208
vn 0.21104234 -0.7786358 0.5909208
vn 0.21104234 -0.7786358 0.5909208
vn -0.19888622 0.7664797 -0.61069894
vn -0.19888622 0.7664797 -0.61069894
vn -0.19888622 0.7664797 -0.61069894
vn -0.19888622 0.7664797 -0.61069894
vn 0.5263721 0.5772819 0.624242
vn 0.5263721 0.5772819 0.624242
vn 0.5263721 0.5772819 0.624242
vn 0.5263721 0.5772819 0.624242
vn -0.29348522 0.6718808 -0.6800313
vn -0.29348522 0.6718808 -0.6800313
vn -0.29348522 0.6718808 -0.6800313
vn -0.29348522 0.6718808 -0.6800313
vn -0.29348522 0.6718808 -0.6800313
vn 0.2741083 -0.68403685 0.6759869
vn 0.2741083 -0.68403685 0.6759869
vn 0.2741083 -0.68403685 0.6759869
vn 0.2741083 -0.68403685 0.6759869
vn 0.2741083 -0.68403685 0.6759869
vn 0.49483907 0.7034138 0.5102385
vn 0.49483907 0.7034138 0.5102385
vn 0.49483907 0.7034138 0.5102385
vn 0.49483907 0.7034138 0.5102385
vn -0.8610787 0.45115 0.23453608
vn -0.8610787 0.45115 0.23453608
vn -0.8610787 0.45115 0.23453608
vn -0.8610787 0.45115 0.23453608
vn 0.5263721 -0.74710286 0.40591842
vn 0.5263721 -0.74710286 0.40591842
vn 0.5263721 -0.74710286 0.40591842
vn 0.5263721 -0.74710286 0.40591842
vn -0.54403687 -0.8390613 -0
vn -0.7034138 -0.33717424 -0.6257177
vn -0.7034138 -0.33717424 -0.6257177
vn -0.54403687 -0.8390613 -0
vn -0.7034138 -0.33717424 -0.6257177
vn -0.07275444 -0.84170175 0.5350187
vn -0.54403687 -0.8390613 -0
vn -0.07275444 -0.84170175 0.5350187
vn 0.43177313 -0.33717424 0.8365916
vn -0.07275444 -0.84170175 0.5350187
vn 0.43177313 -0.36870718 0.82318103
vn 0.43177313 -0.33717424 0.8365916
vn 0.71556985 0.3565511 0.6006922
vn 0.71556985 0.3565511 0.6006922
vn -0.7034138 0.45115 0.54924744
vn -0.7034138 0.45115 0.54924744
vn -0.7034138 0.45115 0.54924744
vn -0.7034138 0.45115 0.54924744
vn -0.7034138 0.45115 0.54924744
vn -0.7034138 0.45115 0.54924744
vn -0.7034138 0.45115 0.54924744
vn -0.7034138 0.45115 0.54924744
vn -0.7034138 0.45115 0.54924744
vn -0.7034138 0.45115 0.54924744
vn -0.7034138 0.45115 0.54924744
vn -0.7034138 0.45115 0.54924744
vn -0.7034138 0.45115 0.54924744
vn -0.7034138 0.45115 0.54924744
vn -0.7034138 0.45115 0.54924744
vn -0.7034138 0.45115 0.54924744
vn -0.7034138 0.45115 0.54924744
vn -0.7034138 0.45115 0.54924744
vn -0.7034138 0.45115 0.54924744
vn -0.7034138 0.45115 0.54924744
vn -0.13582033 -0.81016874 0.5702451
vn -0.60075015 -0.79943675 -0
vn -0.60075015 -0.79943675 -0
vn -0.13582033 -0.81016874 0.5702451
vn 0.40024018 -0.30564123 0.86393934
vn -0.13582033 -0.81016874 0.5702451
vn -0.13582033 -0.81016874 0.5702451
vn 0.40024018 -0.30564123 0.86393934
vn 0.68403685 0.3565511 0.6363685
vn 0.40024018 -0.30564123 0.86393934
vn 0.40024018 -0.30564123 0.86393934
vn 0.68403685 0.3565511 0.6363685
vn 0.52156353 0.8532125 -0
vn 0.68403685 0.3565511 0.6363685
vn 0.68403685 0.3565511 0.6363685
vn 0.52156353 0.8532125 -0
vn 0.05337751 0.8610787 -0.50566226
vn 0.52156353 0.8532125 -0
vn 0.52156353 0.8532125 -0
vn 0.05337751 0.8610787 -0.50566226
vn -0.482683 0.3565511 -0.7999303
vn 0.05337751 0.8610787 -0.50566226
vn 0.05337751 0.8610787 -0.50566226
vn -0.482683 0.3565511 -0.7999303
vn -0.7349468 -0.6525039 -0.18463989
vn -0.7349468 -0.30564123 -0.6053401
vn -0.7349468 -0.30564123 -0.6053401
vn -0.60075015 -0.79943675 -0
vn -0.60075015 -0.79943675 -0
vn -0.7034138 0.45115 0.54924744
vn -0.7034138 0.45115 0.54924744
vn -0.7034138 0.45115 0.54924744
vn -0.7034138 0.45115 0.54924744
vn -0.7034138 0.45115 0.54924744
vn -0.7034138 0.45115 0.54924744
vn -0.7034138 0.45115 0.54924744
vn -0.7034138 0.45115 0.54924744
vn 0.71556985 -0.43177313 -0.5491191
vn 0.71556985 -0.43177313 -0.5491191
vn 0.71556985 -0.43177313 -0.5491191
vn 0.71556985 -0.43177313 -0.5491191
vn 0.71556985 -0.43177313 -0.5491191
vn 0.71556985 -0.43177313 -0.5491191
vn 0.71556985 -0.43177313 -0.5491191
vn 0.71556985 -0.43177313 -0.5491191
vn -0.23041922 0.7034138 -0.67239577
vn -0.7349468 -0.1479764 -0.6617826
vn -0.7349468 -0.1479764 -0.6617826
vn -0.23041922 0.7034138 -0.67239577
vn 0.43177313 0.89261156 0.12967889
vn 0.43177313 0.89261156 0.12967889
vn 0.62097096 0.23041922 0.74920094
vn 0.62097096 0.23041922 0.74920094
vn -0.7349468 -0.1479764 -0.6617826
vn -0.7349468 -0.1479764 -0.6617826
vn -0.54403687 -0.8390613 -0
vn -0.54403687 -0.8390613 -0
vn 0.116443455 -0.6525039 0.7487854
vn 0.116443455 -0.6525039 0.7487854
vn 0.62097096 0.23041922 0.74920094
vn 0.62097096 0.23041922 0.74920094
vn -0.7034138 0.41961712 0.573699
vn -0.7034138 0.41961712 0.573699
vn -0.7034138 0.41961712 0.573699
vn -0.7034138 0.41961712 0.573699
vn -0.7034138 0.41961712 0.573699
vn -0.7034138 0.41961712 0.573699
vn -0.3250181 -0.9047677 0.27524287
vn -0.6088149 0.009688437 -0.7932532
vn -0.6088149 0.009688437 -0.7932532
vn -0.3250181 -0.9047677 0.27524287
vn 0.62097096 -0.021844506 0.7835291
vn 0.62097096 -0.021844506 0.7835291
vn 0.33717424 0.92414457 -0.17963956
vn 0.33717424 0.92414457 -0.17963956
vn -0.6088149 0.009688437 -0.7932532
vn -0.6088149 0.009688437 -0.7932532
vn -0.7349468 0.41961712 0.53270507
vn -0.7349468 0.41961712 0.53270507
vn -0.7349468 0.41961712 0.53270507
vn -0.7349468 0.41961712 0.53270507
vn 0.17950934 -0.6525039 0.7362167
vn 0.17950934 -0.6525039 0.7362167
vn 0.17950934 -0.6525039 0.7362167
vn 0.17950934 -0.6525039 0.7362167
vn -0.19888622 0.6403479 -0.7418887
vn -0.19888622 0.6403479 -0.7418887
vn -0.19888622 0.6403479 -0.7418887
vn -0.19888622 0.6403479 -0.7418887
vn -0.7349468 0.41961712 0.53270507
vn -0.7349468 0.41961712 0.53270507
vn -0.7349468 0.41961712 0.53270507
vn -0.7349468 0.41961712 0.53270507
vn 0.6525039 0.6403479 0.4052076
vn 0.6525039 0.6403479 0.4052076
vn 0.6525039 0.6403479 0.4052076
vn 0.6525039 0.6403479 0.4052076
vn -0.6718808 -0.6525039 -0.35044956
vn -0.6718808 -0.6525039 -0.35044956
vn -0.6718808 -0.6525039 -0.35044956
vn -0.6718808 -0.6525039 -0.35044956
vn -0.7349468 0.41961712 0.53270507
vn -0.7349468 0.41961712 0.53270507
vn -0.7349468 0.41961712 0.53270507
vn -0.7349468 0.41961712 0.53270507
vn -0.7034138 -0.33717424 -0.6257177
vn -0.7034138 -0.33717424 -0.6257177
vn -0.45115 0.3565511 -0.81812894
vn -0.45115 0.3565511 -0.81812894
vn -0.7034138 -0.33717424 -0.6257177
vn 0.08491045 0.8295457 -0.5519458
vn -0.45115 0.3565511 -0.81812894
vn 0.08491045 0.8295457 -0.5519458
vn 0.08491045 0.8295457 -0.5519458
vn 0.557905 0.8295457 0.02441162
vn 0.557905 0.8295457 0.02441162
vn 0.557905 0.8295457 0.02441162
vn 0.71556985 0.3565511 0.6006922
vn 0.71556985 0.3565511 0.6006922
vn 0.68403685 0.6718808 0.28402427
vn 0.71556985 0.3565511 0.6006922
vn -0.13582033 -0.7786358 0.6126003
vn -0.13582033 -0.7786358 0.6126003
vn -0.13582033 -0.7786358 0.6126003
vn -0.13582033 -0.7786358 0.6126003
vn 0.557905 0.8295457 0.02441162
vn 0.557905 0.8295457 0.02441162
vn 0.557905 0.8295457 0.02441162
vn 0.557905 0.8295457 0.02441162
vn 0.71556985 0.3565511 0.6006922
vn 0.7786358 -0.2741083 0.5644386
vn 0.7786358 -0.33717424 0.52918786
vn 0.74710286 -0.17950934 0.6400107
vn 0.71556985 0.3565511 0.6006922
vn 0.74710286 -0.1479764 0.648028
vn 0.43177313 -0.33717424 0.8365916
vn 0.43177313 -0.36870718 0.82318103
vn -0.7034138 0.45115 0.54924744
vn -0.7034138 0.41961712 0.573699
vn -0.7034138 0.45115 0.54924744
vn -0.7034138 0.41961712 0.573699
vn -0.7034138 0.45115 0.54924744
vn -0.7034138 0.45115 0.54924744
vn -0.7349468 -0.30564123 -0.6053401
vn -0.7980127 0.3565511 -0.48584676
vn -0.7980127 0.23041922 -0.55685073
vn -0.7664797 0.16735333 -0.6200821
vn -0.7664797 0.19888622 -0.61069894
vn -0.482683 0.3565511 -0.7999303
vn -0.482683 0.3565511 -0.7999303
vn -0.7349468 -0.30564123 -0.6053401
vn -0.009688437 0.95567757 -0.2942559
vn -0.009688437 0.95567757 -0.2942559
vn 0.021844506 0.89261156 -0.45029706
vn 0.021844506 0.92414457 -0.3814179
vn 0.05337751 0.8610787 -0.50566226
vn 0.05337751 0.8610787 -0.50566226
vn -0.7614507 -0.64822274 -0
vn -0.7614507 -0.64822274 -0
vn -0.66868323 -0.7435473 -0
vn -0.66868323 -0.7435473 -0
vn -0.6088149 -0.7786358 -0.15189059
vn -0.6088149 -0.7786358 -0.15189059
vn -0.5772819 0.23041922 0.7833598
vn -0.5772819 0.23041922 0.7833598
vn -0.5772819 0.23041922 0.7833598
vn -0.5772819 0.23041922 0.7833598
vn -0.5772819 0.23041922 0.7833598
vn 0.74710286 0.5457489 0.37946734
vn 0.74710286 0.5457489 0.37946734
vn 0.74710286 0.5457489 0.37946734
vn 0.74710286 0.5457489 0.37946734
vn 0.58943796 -0.21104234 -0.77975893
vn 0.58943796 -0.21104234 -0.77975893
vn 0.58943796 -0.21104234 -0.77975893
vn 0.58943796 -0.21104234 -0.77975893
vn 0.58943796 -0.21104234 -0.77975893
vn -0.29348522 0.8295457 -0.47510037
vn -0.3565511 0.7980127 -0.48584673
vn -0.3565511 0.7980127 -0.48584673
vn -0.29348522 0.8295457 -0.47510037
vn -0.13582033 0.92414457 -0.35708493
vn -0.13582033 0.92414457 -0.35708493
vn 0.33717424 -0.81016874 0.47952077
vn 0.33717424 -0.81016874 0.47952077
vn 0.33717424 -0.81016874 0.47952077
vn 0.33717424 -0.81016874 0.47952077
vn -0.3565511 0.3565511 0.8635639
vn -0.3565511 0.3565511 0.8635639
vn -0.3565511 0.3565511 0.8635639
vn -0.3565511 0.3565511 0.8635639
vn 0.33717424 -0.81016874 0.47952077
vn 0.33717424 -0.81016874 0.47952077
vn 0.33717424 -0.81016874 0.47952077
vn 0.33717424 -0.81016874 0.47952077
vn 0.33717424 -0.81016874 0.47952077
vn -0.92414457 -0.24257529 0.29515088
vn -0.92414457 -0.24257529 0.29515088
vn -0.92414457 -0.24257529 0.29515088
vn -0.92414457 -0.24257529 0.29515088
vn -0.3565511 0.7980127 -0.48584673
vn -0.3565511 0.7980127 -0.48584673
vn -0.3565511 0.7980127 -0.48584673
vn -0.3565511 0.7980127 -0.48584673
vn -0.3565511 0.7980127 -0.48584673
vn 0.58943796 -0.21104234 -0.77975893
vn 0.58943796 -0.21104234 -0.77975893
vn 0.58943796 -0.21104234 -0.77975893
vn 0.58943796 -0.21104234 -0.77975893
vn 0.74710286 0.5457489 0.37946734
vn 0.74710286 0.5457489 0.37946734
vn 0.74710286 0.5457489 0.37946734
vn 0.74710286 0.5457489 0.37946734
vn -0.7034138 -0.58943796 -0.3972052
vn -0.7034138 -0.58943796 -0.3972052
vn -0.7034138 -0.58943796 -0.3972052
vn -0.7034138 -0.58943796 -0.3972052
vn -0.3565511 0.3565511 0.8635639
vn -0.3565511 0.3565511 0.8635639
vn -0.3565511 0.3565511 0.8635639
vn -0.3565511 0.3565511 0.8635639
vn -0.3565511 0.7980127 -0.48584673
vn -0.3565511 0.7980127 -0.48584673
vn -0.3565511 0.7980127 -0.48584673
vn -0.3565511 0.7980127 -0.48584673
vn -0.3565511 0.7980127 -0.48584673
vn -0.92414457 -0.24257529 0.29515088
vn -0.92414457 -0.24257529 0.29515088
vn -0.92414457 -0.24257529 0.29515088
vn -0.92414457 -0.24257529 0.29515088
vn 0.36870718 -0.81016874 0.45572102
vn 0.36870718 -0.81016874 0.45572102
vn 0.36870718 -0.81016874 0.45572102
vn 0.36870718 -0.81016874 0.45572102
vn 0.36870718 -0.81016874 0.45572102
vn 0.58943796 -0.21104234 -0.77975893
vn 0.58943796 -0.21104234 -0.77975893
vn 0.58943796 -0.21104234 -0.77975893
vn 0.58943796 -0.21104234 -0.77975893
vn 0.71556985 0.5772819 0.39332607
vn 0.71556985 0.5772819 0.39332607
vn 0.71556985 0.5772819 0.39332607
vn 0.71556985 0.5772819 0.39332607
vn -0.7349468 -0.557905 -0.3854805
vn -0.7349468 -0.557905 -0.3854805
vn -0.7349468 -0.557905 -0.3854805
vn -0.7349468 -0.557905 -0.3854805
vn -0.8610787 -0.49483907 -0.116952084
vn -0.13582033 -0.9047677 0.4036685
vn -0.13582033 -0.9047677 0.4036685
vn -0.8610787 -0.49483907 -0.116952084
vn -0.7349468 0.41961712 -0.53270507
vn -0.7349468 0.41961712 -0.53270507
vn 0.116443455 0.92414457 -0.36386496
vn 0.116443455 0.92414457 -0.36386496
vn -0.13582033 -0.9047677 0.4036685
vn -0.13582033 -0.9047677 0.4036685
vn 0.74710286 -0.43177313 0.50538033
vn 0.74710286 -0.43177313 0.50538033
vn 0.8732347 0.482683 0.06691992
vn 0.8732347 0.482683 0.06691992
vn 0.116443455 0.92414457 -0.36386496
vn 0.116443455 0.92414457 -0.36386496
vn 0.36870718 -0.40024018 -0.83896536
vn 0.36870718 -0.40024018 -0.83896536
vn 0.36870718 -0.40024018 -0.83896536
vn 0.36870718 -0.40024018 -0.83896536
vn 0.36870718 -0.40024018 -0.83896536
vn 0.36870718 -0.40024018 -0.83896536
vn -0.3565511 0.3880841 0.84986
vn -0.3565511 0.3880841 0.84986
vn -0.3565511 0.3880841 0.84986
vn -0.3565511 0.3880841 0.84986
vn -0.3565511 0.3880841 0.84986
vn -0.3565511 0.3880841 0.84986
vn -0.8610787 -0.49483907 -0.116952084
vn -0.10428733 -0.9047677 0.41294017
vn -0.10428733 -0.9047677 0.41294017
vn -0.8610787 -0.49483907 -0.116952084
vn -0.7349468 0.41961712 -0.53270507
vn -0.7349468 0.41961712 -0.53270507
vn 0.116443455 0.92414457 -0.36386496
vn 0.116443455 0.92414457 -0.36386496
vn -0.10428733 -0.9047677 0.41294017
vn -0.10428733 -0.9047677 0.41294017
vn 0.74710286 -0.43177313 0.50538033
vn 0.74710286 -0.43177313 0.50538033
vn 0.8732347 0.482683 0.06691992
vn 0.8732347 0.482683 0.06691992
vn 0.116443455 0.92414457 -0.36386496
vn 0.116443455 0.92414457 -0.36386496
vn 0.36870718 -0.40024018 -0.83896536
vn 0.36870718 -0.40024018 -0.83896536
vn 0.36870718 -0.40024018 -0.83896536
vn 0.36870718 -0.40024018 -0.83896536
vn 0.36870718 -0.40024018 -0.83896536
vn 0.36870718 -0.40024018 -0.83896536
vn -0.3565511 0.3880841 0.84986
vn -0.3565511 0.3880841 0.84986
vn -0.3565511 0.3880841 0.84986
vn -0.3565511 0.3880841 0.84986
vn -0.3565511 0.3880841 0.84986
vn -0.3565511 0.3880841 0.84986
vn -0.8610787 -0.49483907 -0.116952084
vn -0.13582033 -0.9047677 0.4036685
vn -0.13582033 -0.9047677 0.4036685
vn -0.8610787 -0.49483907 -0.116952084
vn -0.7349468 0.41961712 -0.53270507
vn -0.7349468 0.41961712 -0.53270507
vn 0.1479764 0.92414457 -0.35222122
vn 0.1479764 0.92414457 -0.35222122
vn -0.13582033 -0.9047677 0.4036685
vn -0.13582033 -0.9047677 0.4036685
vn 0.74710286 -0.43177313 0.50538033
vn 0.74710286 -0.43177313 0.50538033
vn 0.8732347 0.482683 0.06691992
vn 0.8732347 0.482683 0.06691992
vn 0.1479764 0.92414457 -0.35222122
vn 0.1479764 0.92414457 -0.35222122
vn 0.36870718 -0.40024018 -0.83896536
vn 0.36870718 -0.40024018 -0.83896536
vn 0.36870718 -0.40024018 -0.83896536
vn 0.36870718 -0.40024018 -0.83896536
vn 0.36870718 -0.40024018 -0.83896536
vn 0.36870718 -0.40024018 -0.83896536
vn 0.84170175 0.41961712 -0.33979353
vn 0.84170175 0.41961712 -0.33979353
vn 0.84170175 0.41961712 -0.33979353
vn 0.84170175 0.41961712 -0.33979353
vn 0.6525039 -0.21104234 -0.7278048
vn 0.6525039 -0.21104234 -0.7278048
vn 0.6525039 -0.21104234 -0.7278048
vn 0.6525039 -0.21104234 -0.7278048
vn 0.05337751 -0.68403685 -0.72749186
vn 0.05337751 -0.68403685 -0.72749186
vn 0.05337751 -0.68403685 -0.72749186
vn 0.05337751 -0.68403685 -0.72749186
vn -0.5457489 -0.7786358 -0.30965212
vn -0.5457489 -0.7786358 -0.30965212
vn -0.5457489 -0.7786358 -0.30965212
vn -0.5457489 -0.7786358 -0.30965212
vn -0.8610787 -0.40024018 0.31361008
vn -0.8610787 -0.40024018 0.31361008
vn -0.8610787 -0.40024018 0.31361008
vn -0.8610787 -0.40024018 0.31361008
vn -0.6403479 0.19888622 0.7418887
vn -0.6403479 0.19888622 0.7418887
vn -0.6403479 0.19888622 0.7418887
vn -0.6403479 0.19888622 0.7418887
vn -0.07275444 0.7034138 0.7070473
vn -0.07275444 0.7034138 0.7070473
vn -0.07275444 0.7034138 0.7070473
vn -0.07275444 0.7034138 0.7070473
vn 0.557905 0.7664797 0.31819946
vn 0.557905 0.7664797 0.31819946
vn 0.557905 0.7664797 0.31819946
vn 0.557905 0.7664797 0.31819946
vn -0.89261156 -0.36870718 0.25942177
vn -0.89261156 -0.36870718 0.25942177
vn -0.89261156 -0.36870718 0.25942177
vn -0.89261156 -0.36870718 0.25942177
vn -0.6718808 0.23041922 0.7039057
vn -0.6718808 0.23041922 0.7039057
vn -0.6718808 0.23041922 0.7039057
vn -0.6718808 0.23041922 0.7039057
vn -0.10428733 0.7034138 0.70308834
vn -0.10428733 0.7034138 0.70308834
vn -0.10428733 0.7034138 0.70308834
vn -0.10428733 0.7034138 0.70308834
vn 0.5263721 0.7980127 0.293442
vn 0.5263721 0.7980127 0.293442
vn 0.5263721 0.7980127 0.293442
vn 0.5263721 0.7980127 0.293442
vn 0.84170175 0.45115 -0.29665107
vn 0.84170175 0.45115 -0.29665107
vn 0.84170175 0.45115 -0.29665107
vn 0.84170175 0.45115 -0.29665107
vn 0.62097096 -0.17950934 -0.7630016
vn 0.62097096 -0.17950934 -0.7630016
vn 0.62097096 -0.17950934 -0.7630016
vn 0.62097096 -0.17950934 -0.7630016
vn 0.05337751 -0.6525039 -0.7559031
vn 0.05337751 -0.6525039 -0.7559031
vn 0.05337751 -0.6525039 -0.7559031
vn 0.05337751 -0.6525039 -0.7559031
vn -0.5772819 -0.74710286 -0.3295192
vn -0.5772819 -0.74710286 -0.3295192
vn -0.5772819 -0.74710286 -0.3295192
vn -0.5772819 -0.74710286 -0.3295192
vn -0.514216 0.6088149 -0.6040913
vn -0.514216 0.6088149 -0.6040913
vn -0.514216 0.6088149 -0.6040913
vn -0.514216 0.6088149 -0.6040913
vn -0.514216 0.6088149 -0.6040913
vn -0.514216 0.6088149 -0.6040913
vn -0.514216 0.6088149 -0.6040913
vn -0.514216 0.6088149 -0.6040913
vn 0.5263721 -0.58943796 0.61277676
vn 0.5263721 -0.58943796 0.61277676
vn 0.5263721 -0.58943796 0.61277676
vn 0.5263721 -0.58943796 0.61277676
vn 0.5263721 -0.58943796 0.61277676
vn 0.5263721 -0.58943796 0.61277676
vn 0.5263721 -0.58943796 0.61277676
vn 0.5263721 -0.58943796 0.61277676
vn 0.7786358 0.3250181 -0.5367397
vn 0.7786358 0.3250181 -0.5367397
vn 0.7786358 0.3250181 -0.5367397
vn 0.7786358 0.3250181 -0.5367397
vn 0.2741083 -0.49483907 -0.8246205
vn 0.2741083 -0.49483907 -0.8246205
vn 0.2741083 -0.49483907 -0.8246205
vn 0.2741083 -0.49483907 -0.8246205
vn -0.5457489 -0.74710286 -0.37946734
vn -0.5457489 -0.74710286 -0.37946734
vn -0.5457489 -0.74710286 -0.37946734
vn -0.5457489 -0.74710286 -0.37946734
vn -0.8610787 -0.24257529 0.44687885
vn -0.8610787 -0.24257529 0.44687885
vn -0.8610787 -0.24257529 0.44687885
vn -0.8610787 -0.24257529 0.44687885
vn -0.3565511 0.5772819 0.7345862
vn -0.3565511 0.5772819 0.7345862
vn -0.3565511 0.5772819 0.7345862
vn -0.3565511 0.5772819 0.7345862
vn 0.46330607 0.8295457 0.3117714
vn 0.46330607 0.8295457 0.3117714
vn 0.46330607 0.8295457 0.3117714
vn 0.46330607 0.8295457 0.3117714
vn -0.5457489 0.5772819 -0.6073745
vn -0.5457489 0.5772819 -0.6073745
vn -0.5457489 0.5772819 -0.6073745
vn -0.5457489 0.5772819 -0.6073745
vn -0.5457489 0.5772819 -0.6073745
vn -0.5457489 0.5772819 -0.6073745
vn -0.6403479 0.16735333 0.7496315
vn -0.6403479 0.16735333 0.7496315
vn -0.6403479 0.16735333 0.7496315
vn -0.6403479 0.16735333 0.7496315
vn -0.5457489 -0.81016874 -0.21397376
vn -0.5457489 -0.81016874 -0.21397376
vn -0.5457489 -0.81016874 -0.21397376
vn -0.5457489 -0.81016874 -0.21397376
vn 0.6525039 -0.17950934 -0.7362167
vn 0.6525039 -0.17950934 -0.7362167
vn 0.6525039 -0.17950934 -0.7362167
vn 0.6525039 -0.17950934 -0.7362167
vn 0.5263721 0.7980127 0.293442
vn 0.5263721 0.7980127 0.293442
vn 0.5263721 0.7980127 0.293442
vn 0.5263721 0.7980127 0.293442
vn -0.5457489 0.5772819 -0.6073745
vn -0.5457489 0.5772819 -0.6073745
vn -0.5457489 0.5772819 -0.6073745
vn -0.5457489 0.5772819 -0.6073745
vn -0.6403479 0.16735333 0.7496315
vn -0.6403479 0.16735333 0.7496315
vn -0.6403479 0.16735333 0.7496315
vn -0.6403479 0.16735333 0.7496315
vn 0.6525039 -0.17950934 -0.7362167
vn 0.6525039 -0.17950934 -0.7362167
vn 0.6525039 -0.17950934 -0.7362167
vn 0.6525039 -0.17950934 -0.7362167
vn -0.5457489 0.5772819 -0.6073745
vn -0.5457489 0.5772819 -0.6073745
vn -0.5457489 0.5772819 -0.6073745
vn -0.5457489 0.5772819 -0.6073745
vn 0.5263721 0.7980127 0.293442
vn 0.5263721 0.7980127 0.293442
vn 0.5263721 0.7980127 0.293442
vn 0.5263721 0.7980127 0.293442
vn -0.5457489 -0.81016874 -0.21397376
vn -0.5457489 -0.81016874 -0.21397376
vn -0.5457489 -0.81016874 -0.21397376
vn -0.5457489 -0.81016874 -0.21397376
vn -0.5457489 0.5772819 -0.6073745
vn -0.5457489 0.5772819 -0.6073745
vn -0.5457489 0.5772819 -0.6073745
vn -0.5457489 0.5772819 -0.6073745
vn 0.5263721 0.6403479 0.55936307
vn 0.5263721 0.6403479 0.55936307
vn 0.5263721 0.6403479 0.55936307
vn 0.5263721 0.6403479 0.55936307
vn 0.5263721 0.6403479 0.55936307
vn 0.5263721 0.6403479 0.55936307
vn 0.5263721 0.6403479 0.55936307
vn 0.5263721 0.6403479 0.55936307
vn 0.5263721 0.6403479 0.55936307
vn -0.514216 0.6088149 -0.6040913
vn -0.514216 0.6088149 -0.6040913
vn -0.514216 0.6088149 -0.6040913
vn -0.514216 0.6088149 -0.6040913
vn -0.514216 0.6088149 -0.6040913
vn -0.514216 0.6088149 -0.6040913
vn -0.514216 0.6088149 -0.6040913
vn -0.514216 0.6088149 -0.6040913
vn -0.514216 0.6088149 -0.6040913
vn -0.514216 0.6088149 -0.6040913
vn -0.514216 0.6088149 -0.6040913
vn -0.514216 0.6088149 -0.6040913
vn -0.514216 0.6088149 -0.6040913
vn -0.514216 0.6088149 -0.6040913
vn -0.514216 0.6088149 -0.6040913
vn -0.514216 0.6088149 -0.6040913
g ship_x_wing_dst_02_mesh_0
f 3/3/3 2/2/2 1/1/1
f 4/4/4 3/3/3 1/1/1
f 7/7/7 6/6/6 5/5/5
f 8/8/8 7/7/7 5/5/5
f 11/11/11 10/10/10 9/9/9
f 12/12/12 11/11/11 9/9/9
f 15/15/15 14/14/14 13/13/13
f 16/16/16 15/15/15 13/13/13
f 19/19/19 18/18/18 17/17/17
f 20/20/20 19/19/19 17/17/17
f 23/23/23 22/22/22 21/21/21
f 24/24/24 23/23/23 21/21/21
f 27/27/27 26/26/26 25/25/25
f 28/28/28 27/27/27 25/25/25
f 31/31/31 30/30/30 29/29/29
f 32/32/32 31/31/31 29/29/29
f 35/35/35 34/34/34 33/33/33
f 36/36/36 35/35/35 33/33/33
f 39/39/39 38/38/38 37/37/37
f 38/38/38 40/40/40 37/37/37
f 38/38/38 41/41/41 40/40/40
f 41/41/41 42/42/42 40/40/40
f 41/41/41 43/43/43 42/42/42
f 43/43/43 44/44/44 42/42/42
f 43/43/43 45/45/45 44/44/44
f 45/45/45 46/46/46 44/44/44
f 49/49/49 48/48/48 47/47/47
f 50/50/50 49/49/49 47/47/47
f 50/50/50 47/47/47 51/51/51
f 52/52/52 50/50/50 51/51/51
f 52/52/52 51/51/51 53/53/53
f 54/54/54 52/52/52 53/53/53
f 54/54/54 53/53/53 55/55/55
f 56/56/56 54/54/54 55/55/55
f 59/59/59 58/58/58 57/57/57
f 58/58/58 60/60/60 57/57/57
f 57/57/57 60/60/60 61/61/61
f 60/60/60 62/62/62 61/61/61
f 61/61/61 62/62/62 63/63/63
f 62/62/62 64/64/64 63/63/63
f 67/67/67 66/66/66 65/65/65
f 67/67/67 68/68/68 66/66/66
f 69/69/69 68/68/68 67/67/67
f 69/69/69 70/70/70 68/68/68
f 70/70/70 71/71/71 68/68/68
f 68/68/68 71/71/71 66/66/66
f 66/66/66 71/71/71 72/72/72
f 72/72/72 71/71/71 73/73/73
f 74/74/74 72/72/72 73/73/73
f 77/77/77 76/76/76 75/75/75
f 76/76/76 78/78/78 75/75/75
f 76/76/76 79/79/79 78/78/78
f 79/79/79 80/80/80 78/78/78
f 83/83/83 82/82/82 81/81/81
f 82/82/82 84/84/84 81/81/81
f 84/84/84 85/85/85 81/81/81
f 84/84/84 86/86/86 85/85/85
f 84/84/84 87/87/87 86/86/86
f 88/88/88 85/85/85 86/86/86
f 87/87/87 88/88/88 86/86/86
f 88/88/88 89/89/89 85/85/85
f 87/87/87 90/90/90 88/88/88
f 93/93/93 92/92/92 91/91/91
f 94/94/94 93/93/93 91/91/91
f 93/93/93 94/94/94 95/95/95
f 94/94/94 96/96/96 95/95/95
f 99/99/99 98/98/98 97/97/97
f 98/98/98 100/100/100 97/97/97
f 97/97/97 100/100/100 101/101/101
f 100/100/100 102/102/102 101/101/101
f 105/105/105 104/104/104 103/103/103
f 106/106/106 105/105/105 103/103/103
f 106/106/106 103/103/103 107/107/107
f 103/103/103 108/108/108 107/107/107
f 107/107/107 108/108/108 109/109/109
f 110/110/110 107/107/107 109/109/109
f 110/110/110 109/109/109 111/111/111
f 114/114/114 113/113/113 112/112/112
f 115/115/115 114/114/114 112/112/112
f 118/118/118 117/117/117 116/116/116
f 119/119/119 118/118/118 116/116/116
f 119/119/119 116/116/116 120/120/120
f 121/121/121 119/119/119 120/120/120
f 121/121/121 120/120/120 122/122/122
f 121/121/121 122/122/122 123/123/123
f 124/124/124 121/121/121 123/123/123
f 127/127/127 126/126/126 125/125/125
f 128/128/128 127/127/127 125/125/125
f 128/128/128 129/129/129 127/127/127
f 129/129/129 130/130/130 127/127/127
f 133/133/133 132/132/132 131/131/131
f 132/132/132 134/134/134 131/131/131
f 131/131/131 134/134/134 135/135/135
f 134/134/134 136/136/136 135/135/135
f 139/139/139 138/138/138 137/137/137
f 140/140/140 139/139/139 137/137/137
f 140/140/140 137/137/137 141/141/141
f 144/144/144 143/143/143 142/142/142
f 145/145/145 144/144/144 142/142/142
f 145/145/145 142/142/142 146/146/146
f 149/149/149 148/148/148 147/147/147
f 150/150/150 149/149/149 147/147/147
f 153/153/153 152/152/152 151/151/151
f 154/154/154 153/153/153 151/151/151
f 157/157/157 156/156/156 155/155/155
f 158/158/158 157/157/157 155/155/155
f 161/161/161 160/160/160 159/159/159
f 162/162/162 161/161/161 159/159/159
f 165/165/165 164/164/164 163/163/163
f 164/164/164 166/166/166 163/163/163
f 166/166/166 167/167/167 163/163/163
f 170/170/170 169/169/169 168/168/168
f 169/169/169 171/171/171 168/168/168
f 171/171/171 172/172/172 168/168/168
f 175/175/175 174/174/174 173/173/173
f 176/176/176 175/175/175 173/173/173
f 179/179/179 178/178/178 177/177/177
f 180/180/180 179/179/179 177/177/177
f 183/183/183 182/182/182 181/181/181
f 184/184/184 183/183/183 181/181/181
f 187/187/187 186/186/186 185/185/185
f 186/186/186 188/188/188 185/185/185
f 186/186/186 189/189/189 188/188/188
f 185/185/185 188/188/188 190/190/190
f 189/189/189 191/191/191 188/188/188
f 188/188/188 192/192/192 190/190/190
f 188/188/188 191/191/191 192/192/192
f 190/190/190 192/192/192 193/193/193
f 191/191/191 194/194/194 192/192/192
f 192/192/192 195/195/195 193/193/193
f 192/192/192 194/194/194 195/195/195
f 194/194/194 196/196/196 195/195/195
f 195/195/195 196/196/196 197/197/197
f 196/196/196 198/198/198 197/197/197
f 201/201/201 200/200/200 199/199/199
f 200/200/200 202/202/202 199/199/199
f 200/200/200 203/203/203 202/202/202
f 203/203/203 204/204/204 202/202/202
f 203/203/203 205/205/205 204/204/204
f 205/205/205 206/206/206 204/204/204
f 205/205/205 207/207/207 206/206/206
f 207/207/207 208/208/208 206/206/206
f 207/207/207 209/209/209 208/208/208
f 209/209/209 210/210/210 208/208/208
f 213/213/213 212/212/212 211/211/211
f 214/214/214 213/213/213 211/211/211
f 214/214/214 211/211/211 215/215/215
f 216/216/216 214/214/214 215/215/215
f 216/216/216 215/215/215 217/217/217
f 218/218/218 216/216/216 217/217/217
f 221/221/221 220/220/220 219/219/219
f 222/222/222 221/221/221 219/219/219
f 225/225/225 224/224/224 223/223/223
f 226/226/226 225/225/225 223/223/223
f 229/229/229 228/228/228 227/227/227
f 230/230/230 229/229/229 227/227/227
f 233/233/233 232/232/232 231/231/231
f 234/234/234 233/233/233 231/231/231
f 237/237/237 236/236/236 235/235/235
f 238/238/238 237/237/237 235/235/235
f 241/241/241 240/240/240 239/239/239
f 242/242/242 241/241/241 239/239/239
f 245/245/245 244/244/244 243/243/243
f 245/245/245 243/243/243 246/246/246
f 247/247/247 245/245/245 246/246/246
f 250/250/250 249/249/249 248/248/248
f 249/249/249 251/251/251 248/248/248
f 252/252/252 251/251/251 249/249/249
f 253/253/253 252/252/252 249/249/249
f 254/254/254 252/252/252 253/253/253
f 255/255/255 254/254/254 253/253/253
f 258/258/258 257/257/257 256/256/256
f 257/257/257 259/259/259 256/256/256
f 260/260/260 259/259/259 257/257/257
f 261/261/261 260/260/260 257/257/257
f 262/262/262 260/260/260 261/261/261
f 263/263/263 262/262/262 261/261/261
f 266/266/266 265/265/265 264/264/264
f 265/265/265 267/267/267 264/264/264
f 264/264/264 267/267/267 268/268/268
f 267/267/267 269/269/269 268/268/268
f 268/268/268 269/269/269 270/270/270
f 269/269/269 271/271/271 270/270/270
f 274/274/274 273/273/273 272/272/272
f 275/275/275 274/274/274 272/272/272
f 276/276/276 274/274/274 275/275/275
f 277/277/277 276/276/276 275/275/275
f 278/278/278 276/276/276 277/277/277
f 279/279/279 278/278/278 277/277/277
f 282/282/282 281/281/281 280/280/280
f 281/281/281 283/283/283 280/280/280
f 284/284/284 280/280/280 283/283/283
f 285/285/285 284/284/284 283/283/283
f 288/288/288 287/287/287 286/286/286
f 289/289/289 288/288/288 286/286/286
f 289/289/289 286/286/286 290/290/290
f 291/291/291 289/289/289 290/290/290
f 291/291/291 290/290/290 292/292/292
f 293/293/293 291/291/291 292/292/292
f 293/293/293 292/292/292 294/294/294
f 295/295/295 293/293/293 294/294/294
f 298/298/298 297/297/297 296/296/296
f 299/299/299 298/298/298 296/296/296
f 302/302/302 301/301/301 300/300/300
f 303/303/303 302/302/302 300/300/300
f 306/306/306 305/305/305 304/304/304
f 307/307/307 306/306/306 304/304/304
f 310/310/310 309/309/309 308/308/308
f 311/311/311 310/310/310 308/308/308
f 314/314/314 313/313/313 312/312/312
f 315/315/315 314/314/314 312/312/312
f 318/318/318 317/317/317 316/316/316
f 319/319/319 318/318/318 316/316/316
f 322/322/322 321/321/321 320/320/320
f 323/323/323 322/322/322 320/320/320
f 326/326/326 325/325/325 324/324/324
f 327/327/327 326/326/326 324/324/324
f 327/327/327 324/324/324 328/328/328
f 329/329/329 326/326/326 327/327/327
f 330/330/330 327/327/327 328/328/328
f 331/331/331 329/329/329 327/327/327
f 331/331/331 327/327/327 330/330/330
f 332/332/332 331/331/331 330/330/330
f 333/333/333 329/329/329 331/331/331
f 334/334/334 331/331/331 332/332/332
f 334/334/334 333/333/333 331/331/331
f 335/335/335 334/334/334 332/332/332
f 334/334/334 336/336/336 333/333/333
f 334/334/334 335/335/335 336/336/336
f 336/336/336 337/337/337 333/333/333
f 335/335/335 338/338/338 336/336/336
f 338/338/338 339/339/339 336/336/336
f 342/342/342 341/341/341 340/340/340
f 343/343/343 342/342/342 340/340/340
f 346/346/346 345/345/345 344/344/344
f 347/347/347 346/346/346 344/344/344
f 350/350/350 349/349/349 348/348/348
f 350/350/350 351/351/351 349/349/349
f 349/349/349 351/351/351 352/352/352
f 351/351/351 350/350/350 353/353/353
f 352/352/352 351/351/351 353/353/353
f 350/350/350 354/354/354 353/353/353
f 352/352/352 353/353/353 355/355/355
f 358/358/358 357/357/357 356/356/356
f 357/357/357 359/359/359 356/356/356
f 357/357/357 360/360/360 359/359/359
f 360/360/360 361/361/361 359/359/359
f 364/364/364 363/363/363 362/362/362
f 364/364/364 365/365/365 363/363/363
f 365/365/365 366/366/366 363/363/363
f 366/366/366 367/367/367 363/363/363
f 365/365/365 368/368/368 366/366/366
f 364/364/364 368/368/368 365/365/365
f 368/368/368 364/364/364 369/369/369
f 372/372/372 371/371/371 370/370/370
f 373/373/373 372/372/372 370/370/370
f 373/373/373 374/374/374 372/372/372
f 374/374/374 375/375/375 372/372/372
f 378/378/378 377/377/377 376/376/376
f 379/379/379 378/378/378 376/376/376
f 379/379/379 380/380/380 378/378/378
f 380/380/380 381/381/381 378/378/378
f 384/384/384 383/383/383 382/382/382
f 382/382/382 385/385/385 384/384/384
f 385/385/385 386/386/386 384/384/384
f 389/389/389 388/388/388 387/387/387
f 390/390/390 389/389/389 387/387/387
f 393/393/393 392/392/392 391/391/391
f 394/394/394 393/393/393 391/391/391
f 394/394/394 395/395/395 393/393/393
f 398/398/398 397/397/397 396/396/396
f 399/399/399 398/398/398 396/396/396
f 399/399/399 396/396/396 400/400/400
f 401/401/401 399/399/399 400/400/400
f 404/404/404 403/403/403 402/402/402
f 405/405/405 404/404/404 402/402/402
f 408/408/408 407/407/407 406/406/406
f 409/409/409 408/408/408 406/406/406
f 412/412/412 411/411/411 410/410/410
f 413/413/413 412/412/412 410/410/410
f 413/413/413 414/414/414 412/412/412
f 417/417/417 416/416/416 415/415/415
f 418/418/418 417/417/417 415/415/415
f 421/421/421 420/420/420 419/419/419
f 422/422/422 421/421/421 419/419/419
f 419/419/419 423/423/423 422/422/422
f 426/426/426 425/425/425 424/424/424
f 427/427/427 426/426/426 424/424/424
f 430/430/430 429/429/429 428/428/428
f 431/431/431 430/430/430 428/428/428
f 434/434/434 433/433/433 432/432/432
f 435/435/435 434/434/434 432/432/432
f 438/438/438 437/437/437 436/436/436
f 439/439/439 438/438/438 436/436/436
f 442/442/442 441/441/441 440/440/440
f 441/441/441 443/443/443 440/440/440
f 444/444/444 443/443/443 441/441/441
f 447/447/447 446/446/446 445/445/445
f 448/448/448 447/447/447 445/445/445
f 451/451/451 450/450/450 449/449/449
f 450/450/450 452/452/452 449/449/449
f 453/453/453 449/449/449 452/452/452
f 456/456/456 455/455/455 454/454/454
f 457/457/457 456/456/456 454/454/454
f 460/460/460 459/459/459 458/458/458
f 461/461/461 460/460/460 458/458/458
f 464/464/464 463/463/463 462/462/462
f 465/465/465 464/464/464 462/462/462
f 468/468/468 467/467/467 466/466/466
f 467/467/467 469/469/469 466/466/466
f 466/466/466 469/469/469 470/470/470
f 469/469/469 471/471/471 470/470/470
f 470/470/470 471/471/471 472/472/472
f 471/471/471 473/473/473 472/472/472
f 476/476/476 475/475/475 474/474/474
f 477/477/477 476/476/476 474/474/474
f 478/478/478 476/476/476 477/477/477
f 479/479/479 478/478/478 477/477/477
f 480/480/480 478/478/478 479/479/479
f 481/481/481 480/480/480 479/479/479
f 484/484/484 483/483/483 482/482/482
f 485/485/485 484/484/484 482/482/482
f 485/485/485 482/482/482 486/486/486
f 482/482/482 487/487/487 486/486/486
f 490/490/490 489/489/489 488/488/488
f 491/491/491 490/490/490 488/488/488
f 491/491/491 492/492/492 490/490/490
f 492/492/492 493/493/493 490/490/490
f 496/496/496 495/495/495 494/494/494
f 495/495/495 497/497/497 494/494/494
f 494/494/494 497/497/497 498/498/498
f 497/497/497 499/499/499 498/498/498
f 498/498/498 499/499/499 500/500/500
f 499/499/499 501/501/501 500/500/500
f 504/504/504 503/503/503 502/502/502
f 505/505/505 504/504/504 502/502/502
f 506/506/506 504/504/504 505/505/505
f 507/507/507 506/506/506 505/505/505
f 508/508/508 506/506/506 507/507/507
f 509/509/509 508/508/508 507/507/507
f 512/512/512 511/511/511 510/510/510
f 513/513/513 512/512/512 510/510/510
f 513/513/513 510/510/510 514/514/514
f 510/510/510 515/515/515 514/514/514
f 518/518/518 517/517/517 516/516/516
f 519/519/519 518/518/518 516/516/516
f 519/519/519 520/520/520 518/518/518
f 520/520/520 521/521/521 518/518/518
f 524/524/524 523/523/523 522/522/522
f 523/523/523 525/525/525 522/522/522
f 522/522/522 525/525/525 526/526/526
f 525/525/525 527/527/527 526/526/526
f 526/526/526 527/527/527 528/528/528
f 527/527/527 529/529/529 528/528/528
f 532/532/532 531/531/531 530/530/530
f 533/533/533 532/532/532 530/530/530
f 534/534/534 532/532/532 533/533/533
f 535/535/535 534/534/534 533/533/533
f 536/536/536 534/534/534 535/535/535
f 537/537/537 536/536/536 535/535/535
f 540/540/540 539/539/539 538/538/538
f 541/541/541 540/540/540 538/538/538
f 541/541/541 542/542/542 540/540/540
f 542/542/542 543/543/543 540/540/540
f 546/546/546 545/545/545 544/544/544
f 547/547/547 546/546/546 544/544/544
f 550/550/550 549/549/549 548/548/548
f 551/551/551 550/550/550 548/548/548
f 554/554/554 553/553/553 552/552/552
f 555/555/555 554/554/554 552/552/552
f 558/558/558 557/557/557 556/556/556
f 559/559/559 558/558/558 556/556/556
f 562/562/562 561/561/561 560/560/560
f 563/563/563 562/562/562 560/560/560
f 566/566/566 565/565/565 564/564/564
f 567/567/567 566/566/566 564/564/564
f 570/570/570 569/569/569 568/568/568
f 571/571/571 570/570/570 568/568/568
f 574/574/574 573/573/573 572/572/572
f 575/575/575 574/574/574 572/572/572
f 578/578/578 577/577/577 576/576/576
f 579/579/579 578/578/578 576/576/576
f 582/582/582 581/581/581 580/580/580
f 583/583/583 582/582/582 580/580/580
f 586/586/586 585/585/585 584/584/584
f 587/587/587 586/586/586 584/584/584
f 590/590/590 589/589/589 588/588/588
f 591/591/591 590/590/590 588/588/588
f 594/594/594 593/593/593 592/592/592
f 595/595/595 594/594/594 592/592/592
f 598/598/598 597/597/597 596/596/596
f 599/599/599 598/598/598 596/596/596
f 602/602/602 601/601/601 600/600/600
f 603/603/603 602/602/602 600/600/600
f 606/606/606 605/605/605 604/604/604
f 607/607/607 606/606/606 604/604/604
f 610/610/610 609/609/609 608/608/608
f 609/609/609 611/611/611 608/608/608
f 612/612/612 611/611/611 609/609/609
f 613/613/613 612/612/612 609/609/609
f 614/614/614 612/612/612 613/613/613
f 615/615/615 614/614/614 613/613/613
f 618/618/618 617/617/617 616/616/616
f 617/617/617 619/619/619 616/616/616
f 620/620/620 619/619/619 617/617/617
f 621/621/621 620/620/620 617/617/617
f 622/622/622 620/620/620 621/621/621
f 623/623/623 622/622/622 621/621/621
f 626/626/626 625/625/625 624/624/624
f 627/627/627 626/626/626 624/624/624
f 630/630/630 629/629/629 628/628/628
f 631/631/631 630/630/630 628/628/628
f 634/634/634 633/633/633 632/632/632
f 635/635/635 634/634/634 632/632/632
f 638/638/638 637/637/637 636/636/636
f 639/639/639 638/638/638 636/636/636
f 642/642/642 641/641/641 640/640/640
f 643/643/643 642/642/642 640/640/640
f 646/646/646 645/645/645 644/644/644
f 647/647/647 646/646/646 644/644/644
f 650/650/650 649/649/649 648/648/648
f 649/649/649 651/651/651 648/648/648
f 652/652/652 648/648/648 651/651/651
f 653/653/653 652/652/652 651/651/651
f 656/656/656 655/655/655 654/654/654
f 657/657/657 656/656/656 654/654/654
f 660/660/660 659/659/659 658/658/658
f 661/661/661 660/660/660 658/658/658
f 664/664/664 663/663/663 662/662/662
f 665/665/665 664/664/664 662/662/662
f 668/668/668 667/667/667 666/666/666
f 669/669/669 668/668/668 666/666/666
f 672/672/672 671/671/671 670/670/670
f 673/673/673 672/672/672 670/670/670
f 676/676/676 675/675/675 674/674/674
f 677/677/677 676/676/676 674/674/674
f 680/680/680 679/679/679 678/678/678
f 681/681/681 680/680/680 678/678/678
f 684/684/684 683/683/683 682/682/682
f 685/685/685 684/684/684 682/682/682
f 688/688/688 687/687/687 686/686/686
f 689/689/689 688/688/688 686/686/686
f 692/692/692 691/691/691 690/690/690
f 693/693/693 692/692/692 690/690/690
f 696/696/696 695/695/695 694/694/694
f 697/697/697 696/696/696 694/694/694
f 700/700/700 699/699/699 698/698/698
f 698/698/698 699/699/699 701/701/701
f 702/702/702 699/699/699 700/700/700
f 701/701/701 699/699/699 703/703/703
f 704/704/704 699/699/699 702/702/702
f 703/703/703 699/699/699 705/705/705
f 706/706/706 699/699/699 704/704/704
f 705/705/705 699/699/699 706/706/706
f 709/709/709 708/708/708 707/707/707
f 710/710/710 709/709/709 707/707/707
f 709/709/709 711/711/711 708/708/708
f 710/710/710 707/707/707 712/712/712
f 711/711/711 713/713/713 708/708/708
f 714/714/714 710/710/710 712/712/712
f 711/711/711 715/715/715 713/713/713
f 714/714/714 712/712/712 716/716/716
f 715/715/715 717/717/717 713/713/713
f 718/718/718 714/714/714 716/716/716
f 715/715/715 719/719/719 717/717/717
f 718/718/718 716/716/716 720/720/720
f 719/719/719 721/721/721 717/717/717
f 722/722/722 718/718/718 720/720/720
f 722/722/722 720/720/720 721/721/721
f 719/719/719 722/722/722 721/721/721
