g env_asteroid_03_mesh
v -0.052140445 0.08982697 -0.092610024
v -0.08468789 0.07012719 -0.09046875
v -0.073124975 0.06455988 -0.15085283
v 0.10374468 0.13693511 0.0020345151
v 0.07419503 0.17719117 0.00032149255
v 0.07291026 0.1797607 -0.021091297
v 0.10331643 0.13864812 0.02730161
v 0.07419503 0.17719117 0.00032149255
v 0.078477584 0.1797607 0.028586373
v 0.11016852 0.1399329 0.05899255
v 0.06263212 0.18104547 0.057279527
v 0.095179565 0.14164594 0.086400926
v 0.040791065 0.18661278 0.06798592
v 0.07076898 0.14421546 0.101818144
v 0.049784437 0.14421546 0.1108115
v 0.040791065 0.18661278 0.06798592
v 0.014239207 0.16391522 0.10353115
v -0.0054605603 0.17719117 0.09539428
v 0.014667466 0.20074522 0.05899255
v -0.027729869 0.18661278 0.07655102
v -0.0046040565 0.23200792 0.039721027
v -0.04186231 0.19260836 0.049999177
v -0.026016846 0.23843175 0.018736497
v -0.060705572 0.17633465 0.037579745
v -0.046573117 0.22601232 0.0024627745
v 0.00139153 0.25170767 -0.0031045526
v -0.020877779 0.23157966 -0.018950015
v 0.023660839 0.24870989 0.013169169
v 0.011669666 0.24656862 -0.018950015
v -0.011027887 0.19774744 -0.043788865
v 0.020234793 0.19346488 -0.0395063
v 0.035651997 0.19218013 -0.03265421
v 0.029228166 0.23800349 -0.013382688
v 0.05235398 0.19003883 -0.014667466
v 0.04764317 0.21059513 0.010599628
v 0.07419503 0.17719117 0.00032149255
v 0.078477584 0.1797607 0.028586373
v 0.036080256 0.21787548 0.02687335
v 0.014667466 0.20074522 0.05899255
v 0.040791065 0.18661278 0.06798592
v -0.12751347 0.049570918 0.008030102
v -0.13008302 -0.004389316 0.023447305
v -0.16048917 0.038864523 -0.033938974
v -0.05085568 -0.06691468 0.09196824
v -0.07055545 -0.059634328 0.06370336
v -0.05856429 -0.03265421 0.13522208
v -0.08468789 0.07012719 -0.09046875
v -0.10995498 0.0067453235 -0.094323054
v -0.08554441 0.023447305 -0.100746885
v -0.020877779 0.23157966 -0.018950015
v -0.046573117 0.17462161 -0.036080256
v -0.011027887 0.19774744 -0.043788865
v -0.028158128 0.1797607 -0.055351764
v 0.00139153 0.18489978 -0.063916884
v -0.052140445 0.08982697 -0.092610024
v -0.018308237 0.09667906 -0.10331643
v -0.072268486 0.10610068 -0.053210482
v -0.11338103 0.0816901 -0.06948421
v -0.08468789 0.07012719 -0.09046875
v -0.11766359 0.057279527 -0.0763363
v -0.10995498 0.0067453235 -0.094323054
v -0.14293069 0.032012433 -0.08233189
v -0.12708524 -0.026658624 -0.079334095
v -0.020877779 0.23157966 -0.018950015
v -0.065416396 0.18018895 -0.0052458346
v -0.046573117 0.22601232 0.0024627745
v -0.060705572 0.17633465 0.037579745
v -0.072268486 0.10610068 -0.053210482
v -0.09710732 0.11166802 -0.012954444
v -0.09924859 0.11723533 0.015310451
v -0.10952672 0.093681276 -0.035651997
v -0.11338103 0.0816901 -0.06948421
v -0.12494394 0.087257445 -0.0061023384
v -0.12751347 0.049570918 0.008030102
v -0.018308237 0.09667906 -0.10331643
v -0.052140445 0.08982697 -0.092610024
v -0.073124975 0.06455988 -0.15085283
v -0.019164756 0.059420794 -0.17355038
v -0.019164756 0.059420794 -0.17355038
v -0.073124975 0.06455988 -0.15085283
v -0.0816901 -0.003532812 -0.16712655
v -0.030299395 -0.00139153 -0.18639806
v -0.079977095 -0.057064787 -0.14014643
v -0.040577546 -0.03265421 -0.17226562
v -0.05856429 -0.06819944 -0.12430096
v -0.07055545 -0.08447316 -0.08875573
v -0.087685674 -0.06691468 -0.09946212
v -0.09153998 -0.03736502 -0.1315813
v -0.08982697 -0.041647583 -0.1054577
v -0.0816901 -0.003532812 -0.16712655
v -0.08468789 -0.0039610714 -0.15342236
v -0.073124975 0.06455988 -0.15085283
v -0.079548836 0.045716614 -0.13543561
v -0.08554441 0.023447305 -0.100746885
v -0.08468789 0.07012719 -0.09046875
v -0.0671294 -0.12430096 -0.06777119
v -0.07055545 -0.08447316 -0.08875573
v -0.09710732 -0.06734293 -0.0686277
v -0.080833584 -0.13672039 -0.049356192
v -0.09068349 -0.14185944 -0.01595223
v -0.115950584 -0.07034072 -0.024945602
v -0.087685674 -0.13329433 0.02687335
v -0.14849803 -0.03993456 -0.031369448
v -0.1253722 -0.07804933 0.006317079
v -0.13008302 -0.004389316 0.023447305
v -0.16048917 0.038864523 -0.033938974
v -0.14849803 -0.03993456 -0.031369448
v -0.1506393 0.02044952 -0.06091909
v -0.12708524 -0.026658624 -0.079334095
v -0.14293069 0.032012433 -0.08233189
v -0.05856429 -0.06819944 -0.12430096
v -0.07055545 -0.08447316 -0.08875573
v -0.021734282 -0.1016034 -0.072482005
v -0.014025673 -0.079762354 -0.09732084
v 0.0061023384 -0.12729874 -0.045501888
v 0.02580212 -0.10460119 -0.09175351
v 0.04036282 -0.11959015 -0.02580212
v 0.06220386 -0.094323054 -0.048927933
v 0.07076898 -0.09560782 0.005032301
v 0.100746885 -0.08276014 -0.024945602
v 0.10759898 -0.07719281 0.020877779
v 0.12858352 -0.065201655 -0.009100139
v -0.07055545 -0.08447316 -0.08875573
v -0.0671294 -0.12430096 -0.06777119
v -0.04143405 -0.14442898 -0.041647583
v -0.021734282 -0.1016034 -0.072482005
v -0.0054605603 -0.1559919 -0.02965641
v 0.0061023384 -0.12729874 -0.045501888
v 0.026230365 -0.1452855 -0.006530598
v 0.07076898 -0.09560782 0.005032301
v 0.09989037 -0.10331643 0.052996963
v 0.10759898 -0.07719281 0.020877779
v 0.057921305 -0.11916189 0.021306023
v 0.04036282 -0.11959015 -0.02580212
v 0.07419503 -0.10588596 0.07740754
v 0.026230365 -0.1452855 -0.006530598
v 0.0061023384 -0.12729874 -0.045501888
v 0.034367234 -0.124729216 0.048286155
v 0.026658624 -0.09046875 0.09196824
v 0.003532812 -0.1559919 0.024732083
v -0.0054605603 -0.1559919 -0.02965641
v -0.004175797 -0.108455494 0.06841418
v 0.0018197894 -0.08276014 0.09924859
v -0.027729869 -0.093894795 0.08297488
v -0.023447305 -0.14057468 0.055138245
v -0.046144873 -0.117877126 0.07612279
v -0.027729869 -0.16883957 0.0020345151
v -0.04143405 -0.14442898 -0.041647583
v -0.048286155 -0.15642014 0.031155914
v -0.06798592 -0.13372259 0.05856429
v -0.05599475 -0.16027445 -0.02323258
v -0.0671294 -0.12430096 -0.06777119
v -0.080833584 -0.13672039 -0.049356192
v -0.073124975 -0.15213759 0.0011780113
v -0.087685674 -0.13329433 0.02687335
v -0.09068349 -0.14185944 -0.01595223
v 0.12858352 -0.065201655 -0.009100139
v 0.10759898 -0.07719281 0.020877779
v 0.14271596 -0.033510715 0.032868937
v 0.15085283 -0.03308247 -0.014667466
v 0.14871155 0.004175797 0.032868937
v 0.16027445 0.00032149255 -0.03008467
v 0.14828329 0.054709986 0.020877779
v 0.15727666 0.053853467 -0.016808748
v 0.123444445 0.09796384 0.02044952
v 0.13115305 0.094537795 -0.005674094
v 0.10331643 0.13864812 0.02730161
v 0.10374468 0.13693511 0.0020345151
v 0.10759898 -0.07719281 0.020877779
v 0.12430096 -0.07291026 0.066272885
v 0.14271596 -0.033510715 0.032868937
v 0.09989037 -0.10331643 0.052996963
v 0.07419503 -0.10588596 0.07740754
v 0.026658624 -0.09046875 0.09196824
v 0.0018197894 -0.08276014 0.09924859
v 0.024945602 -0.03308247 0.13565034
v 0.079334095 -0.025373861 0.13907638
v 0.086614445 0.0067453235 0.13008302
v 0.11145329 -0.020234793 0.12108964
v 0.08104712 -0.02965641 0.12879825
v 0.064345144 -0.05363874 0.115522325
v 0.07419503 -0.10588596 0.07740754
v 0.09175351 -0.072053745 0.094109535
v 0.10717072 -0.048499674 0.087257445
v 0.086614445 0.0067453235 0.13008302
v 0.024945602 -0.03308247 0.13565034
v 0.05492352 0.029442891 0.16348699
v 0.09132526 0.038864523 0.14293069
v 0.05192572 0.080405325 0.14764151
v 0.10588596 0.006317079 0.10353115
v 0.08918398 0.08383137 0.13393733
v 0.11959015 0.08211836 0.107813716
v 0.060062587 0.108241975 0.14550021
v 0.079762354 0.11038324 0.11894837
v 0.049784437 0.14421546 0.1108115
v 0.07076898 0.14421546 0.101818144
v 0.10717072 0.11252454 0.09710732
v 0.095179565 0.14164594 0.086400926
v 0.12944004 0.10652894 0.062418595
v 0.11016852 0.1399329 0.05899255
v 0.14357248 0.029014632 0.086400926
v 0.13415085 0.002891034 0.08554441
v 0.12558573 -0.020234793 0.08468789
v 0.14442898 0.041005805 0.07826406
v 0.13372259 -0.028799906 0.061133817
v 0.14657027 0.07055545 0.05856429
v 0.14571375 0.038436264 0.059420794
v 0.12430096 -0.07291026 0.066272885
v 0.14271596 -0.033510715 0.032868937
v 0.10717072 -0.048499674 0.087257445
v 0.07419503 -0.10588596 0.07740754
v 0.123444445 0.09796384 0.02044952
v 0.10331643 0.13864812 0.02730161
v 0.14828329 0.054709986 0.020877779
v 0.14657027 0.07055545 0.05856429
v 0.14571375 0.038436264 0.059420794
v 0.14314422 0.031155914 0.04229057
v 0.14871155 0.004175797 0.032868937
v 0.07291026 0.1797607 -0.021091297
v 0.07419503 0.17719117 0.00032149255
v 0.05235398 0.19003883 -0.014667466
v 0.06263212 0.18618453 -0.048499674
v 0.035651997 0.19218013 -0.03265421
v 0.048499674 0.18918231 -0.06134735
v 0.020234793 0.19346488 -0.0395063
v 0.016808748 0.19303662 -0.065201655
v -0.011027887 0.19774744 -0.043788865
v 0.00139153 0.18489978 -0.063916884
v 0.014239207 0.16391522 0.10353115
v 0.049784437 0.14421546 0.1108115
v 0.060062587 0.108241975 0.14550021
v 0.02323258 0.10567242 0.121946156
v -0.026016846 0.09196824 0.14036116
v 0.05192572 0.080405325 0.14764151
v -0.007173583 0.05856429 0.15535012
v 0.05492352 0.029442891 0.16348699
v 0.011669666 0.0046040565 0.1707673
v -0.04186231 0.19260836 0.049999177
v -0.027729869 0.18661278 0.07655102
v -0.07012719 0.11338103 0.08340314
v -0.060705572 0.17633465 0.037579745
v -0.09924859 0.11723533 0.015310451
v -0.121946156 0.047857895 0.09068349
v -0.12751347 0.049570918 0.008030102
v -0.12751347 0.049570918 0.008030102
v -0.121946156 0.047857895 0.09068349
v -0.100961626 -0.004389316 0.050427422
v -0.100533366 0.019593 0.11295277
v -0.05856429 -0.03265421 0.13522208
v -0.07055545 -0.059634328 0.06370336
v 0.05492352 0.029442891 0.16348699
v 0.024945602 -0.03308247 0.13565034
v 0.011669666 0.0046040565 0.1707673
v -0.022162542 -0.055780023 0.10995498
v -0.05856429 -0.03265421 0.13522208
v -0.05085568 -0.06691468 0.09196824
v -0.022162542 -0.055780023 0.10995498
v 0.024945602 -0.03308247 0.13565034
v 0.0018197894 -0.08276014 0.09924859
v -0.027729869 -0.093894795 0.08297488
v -0.05085568 -0.06691468 0.09196824
v -0.046144873 -0.117877126 0.07612279
v -0.07055545 -0.059634328 0.06370336
v -0.06798592 -0.13372259 0.05856429
v -0.06798592 -0.13372259 0.05856429
v -0.087685674 -0.13329433 0.02687335
v -0.1253722 -0.07804933 0.006317079
v -0.100961626 -0.004389316 0.050427422
v -0.13008302 -0.004389316 0.023447305
v -0.12751347 0.049570918 0.008030102
v 0.016808748 0.19303662 -0.065201655
v 0.00139153 0.18489978 -0.063916884
v -0.018308237 0.09667906 -0.10331643
v 0.027086884 0.14421546 -0.10502945
v -0.0033192784 0.059420794 -0.16155922
v 0.055780023 0.057279527 -0.14871155
v 0.006958857 -0.0022480488 -0.146142
v 0.06348863 -0.0018197894 -0.14742678
v -0.019164756 -0.043788865 -0.13543561
v 0.03222595 -0.055351764 -0.12558573
v -0.014025673 -0.079762354 -0.09732084
v -0.05856429 -0.06819944 -0.12430096
v 0.035223737 0.14806977 -0.09346654
v 0.052782238 0.15320882 -0.08019061
v 0.045930132 0.12751347 -0.101175144
v 0.048499674 0.18918231 -0.06134735
v 0.064773396 0.15620664 -0.06948421
v 0.06263212 0.18618453 -0.048499674
v 0.08361665 0.14121768 -0.06648642
v 0.055780023 0.057279527 -0.14871155
v 0.057493046 0.11766359 -0.09903386
v 0.087042704 0.052996963 -0.1016034
v 0.07291026 0.1797607 -0.021091297
v 0.094751306 0.12879825 -0.05363874
v 0.06348863 -0.0018197894 -0.14742678
v 0.086614445 0.0011780113 -0.101175144
v 0.10674247 0.115522325 -0.0395063
v 0.10374468 0.13693511 0.0020345151
v 0.09346654 -0.058349565 -0.08147538
v 0.13115305 0.094537795 -0.005674094
v 0.065201655 -0.080618866 -0.10674247
v 0.02580212 -0.10460119 -0.09175351
v 0.11316631 0.10395941 -0.042504087
v 0.06220386 -0.094323054 -0.048927933
v 0.12558573 0.054281726 -0.06263212
v 0.15727666 0.053853467 -0.016808748
v 0.12644224 -0.049784437 -0.05449526
v 0.100746885 -0.08276014 -0.024945602
v 0.15085283 -0.03308247 -0.014667466
v 0.12858352 -0.065201655 -0.009100139
v 0.16027445 0.00032149255 -0.03008467
v 0.12944004 -0.00010676682 -0.06648642
v 0.086614445 0.0011780113 -0.101175144
v 0.087042704 0.052996963 -0.1016034
v 0.09346654 0.10310289 -0.08190363
v 0.079762354 0.10353115 -0.09004049
v 0.057493046 0.11766359 -0.09903386
v -0.018308237 0.09667906 -0.10331643
v -0.019164756 0.059420794 -0.17355038
v -0.0033192784 0.059420794 -0.16155922
v -0.030299395 -0.00139153 -0.18639806
v 0.006958857 -0.0022480488 -0.146142
v -0.040577546 -0.03265421 -0.17226562
v -0.019164756 -0.043788865 -0.13543561
v -0.05856429 -0.06819944 -0.12430096
v -0.07055545 -0.08447316 -0.08875573
v -0.087685674 -0.06691468 -0.09946212
v -0.09710732 -0.06734293 -0.0686277
v -0.12708524 -0.026658624 -0.079334095
v -0.14849803 -0.03993456 -0.031369448
v -0.0054605603 0.17719117 0.09539428
v 0.014239207 0.16391522 0.10353115
v -0.026016846 0.09196824 0.14036116
v -0.027729869 0.18661278 0.07655102
v -0.07012719 0.11338103 0.08340314
v -0.05813603 0.053425223 0.14293069
v -0.007173583 0.05856429 0.15535012
v 0.011669666 0.0046040565 0.1707673
v -0.05856429 -0.03265421 0.13522208
v -0.100961626 0.057279527 0.11894837
v -0.121946156 0.047857895 0.09068349
v -0.100533366 0.019593 0.11295277
v 0.065201655 -0.080618866 -0.10674247
v -0.014025673 -0.079762354 -0.09732084
v 0.02580212 -0.10460119 -0.09175351
v 0.03222595 -0.055351764 -0.12558573
v 0.06348863 -0.0018197894 -0.14742678
v 0.10588596 0.006317079 0.10353115
v 0.12558573 -0.020234793 0.08468789
v 0.11145329 -0.020234793 0.12108964
v 0.086614445 0.0067453235 0.13008302
v 0.11102503 -0.036508515 0.10010511
v 0.12558573 -0.020234793 0.08468789
v 0.10717072 -0.048499674 0.087257445
v 0.11145329 -0.020234793 0.12108964
v -0.10995498 0.0067453235 -0.094323054
v -0.12708524 -0.026658624 -0.079334095
v -0.100961626 -0.017665252 -0.09218177
v -0.100961626 -0.038649783 -0.09689259
v -0.087685674 -0.06691468 -0.09946212
v -0.08982697 -0.041647583 -0.1054577
v 0.11145329 -0.020234793 0.12108964
v 0.08019061 -0.029228166 0.086400926
v 0.08104712 -0.02965641 0.12879825
v 0.11102503 -0.036508515 0.10010511
v 0.064345144 -0.05363874 0.115522325
v 0.10717072 -0.048499674 0.087257445
v 0.09175351 -0.072053745 0.094109535
v 0.10674247 0.115522325 -0.0395063
v 0.057493046 0.11423755 -0.054067
v 0.11316631 0.10395941 -0.042504087
v 0.094751306 0.12879825 -0.05363874
v 0.09346654 0.10310289 -0.08190363
v 0.08361665 0.14121768 -0.06648642
v 0.079762354 0.10353115 -0.09004049
v 0.064773396 0.15620664 -0.06948421
v 0.057493046 0.11766359 -0.09903386
v 0.052782238 0.15320882 -0.08019061
v 0.045930132 0.12751347 -0.101175144
v 0.035223737 0.14806977 -0.09346654
v 0.14871155 0.004175797 0.032868937
v 0.1123098 0.030727655 0.047429636
v 0.14314422 0.031155914 0.04229057
v 0.14271596 -0.033510715 0.032868937
v 0.14571375 0.038436264 0.059420794
v 0.13372259 -0.028799906 0.061133817
v 0.14442898 0.041005805 0.07826406
v 0.13415085 0.002891034 0.08554441
v 0.14357248 0.029014632 0.086400926
v -0.08126184 0.046573117 -0.018950015
v -0.16048917 0.038864523 -0.033938974
v -0.1506393 0.02044952 -0.06091909
v -0.14293069 0.032012433 -0.08233189
v -0.12751347 0.049570918 0.008030102
v -0.11766359 0.057279527 -0.0763363
v -0.12494394 0.087257445 -0.0061023384
v -0.11338103 0.0816901 -0.06948421
v -0.10952672 0.093681276 -0.035651997
v -0.10995498 0.0067453235 -0.094323054
v -0.100961626 -0.017665252 -0.09218177
v -0.05599475 -0.009956643 -0.0763363
v -0.08554441 0.023447305 -0.100746885
v -0.100961626 -0.038649783 -0.09689259
v -0.079548836 0.045716614 -0.13543561
v -0.08982697 -0.041647583 -0.1054577
v -0.08468789 -0.0039610714 -0.15342236
v -0.09153998 -0.03736502 -0.1315813
vt 0.46289414 0.29884708
vt 0.4043059 0.26369414
vt 0.37696475 0.35743532
vt 0.11136471 0.50585884
vt 0.24416472 0.59178823
vt 0.27931768 0.49804708
vt 0.06449412 0.5800706
vt 0.24416472 0.59178823
vt 0.18948238 0.666
vt 0.013717649 0.6777177
vt 0.17385884 0.767553
vt 0.0098117655 0.7792706
vt 0.21291767 0.83395296
vt 0.03324706 0.86910594
vt 0.06058824 0.9433177
vt 0.21291767 0.83395296
vt 0.19338825 0.9901883
vt 0.27541178 0.9901883
vt 0.30275297 0.85738826
vt 0.36915296 0.9784706
vt 0.4043059 0.81832945
vt 0.45898828 0.95112944
vt 0.4746118 0.8066118
vt 0.52148235 0.9862824
vt 0.54882354 0.81832945
vt 0.4511765 0.7402118
vt 0.52538824 0.7245883
vt 0.4043059 0.7402118
vt 0.4511765 0.7089647
vt 0.5332 0.6230353
vt 0.4550824 0.58788234
vt 0.4082118 0.5839765
vt 0.41602355 0.6933412
vt 0.33400002 0.5996
vt 0.32228237 0.6894353
vt 0.24416472 0.59178823
vt 0.18948238 0.666
vt 0.32618827 0.7441177
vt 0.30275297 0.85738826
vt 0.21291767 0.83395296
vt 0.3652471 0.07230588
vt 0.26760003 0.029341178
vt 0.33400002 0.13089412
vt 0.7089647 0.83395296
vt 0.77536476 0.84567064
vt 0.701153 0.7402118
vt 0.4043059 0.26369414
vt 0.29103532 0.24807061
vt 0.3183765 0.27541178
vt 0.7402118 0.19729413
vt 0.6269412 0.2051059
vt 0.6855294 0.2519765
vt 0.6425647 0.24807061
vt 0.6699059 0.2949412
vt 0.46289414 0.29884708
vt 0.50195295 0.35352945
vt 0.48632944 0.21682355
vt 0.4121177 0.2051059
vt 0.4043059 0.26369414
vt 0.37305886 0.21291767
vt 0.29103532 0.24807061
vt 0.32228237 0.19729413
vt 0.23635297 0.20901178
vt 0.7402118 0.19729413
vt 0.6269412 0.1387059
vt 0.7206824 0.1387059
vt 0.6425647 0.06058824
vt 0.48632944 0.21682355
vt 0.49023533 0.12698825
vt 0.50976473 0.08011765
vt 0.44727063 0.15432942
vt 0.4121177 0.2051059
vt 0.43555298 0.09964706
vt 0.3652471 0.07230588
vt 0.50195295 0.35352945
vt 0.46289414 0.29884708
vt 0.37696475 0.35743532
vt 0.39649415 0.44727063
vt 0.39649415 0.44727063
vt 0.37696475 0.35743532
vt 0.27541178 0.37305886
vt 0.28322354 0.45898828
vt 0.18948238 0.3418118
vt 0.22072943 0.4316471
vt 0.14261177 0.34571767
vt 0.11136471 0.27541178
vt 0.15823531 0.27541178
vt 0.21682355 0.31447062
vt 0.2051059 0.27931768
vt 0.27541178 0.37305886
vt 0.27541178 0.34962356
vt 0.37696475 0.35743532
vt 0.34962356 0.33009416
vt 0.3183765 0.27541178
vt 0.4043059 0.26369414
vt 0.03324706 0.23635297
vt 0.11136471 0.27541178
vt 0.15042354 0.21682355
vt 0.01762353 0.19338825
vt 0.0098117655 0.12698825
vt 0.14651766 0.13480002
vt 0.013717649 0.04496471
vt 0.22072943 0.12698825
vt 0.14261177 0.07230588
vt 0.26760003 0.029341178
vt 0.33400002 0.13089412
vt 0.22072943 0.12698825
vt 0.30275297 0.16604708
vt 0.23635297 0.20901178
vt 0.32228237 0.19729413
vt 0.99409413 0.47851768
vt 0.9198824 0.46289414
vt 0.92378825 0.35352945
vt 0.9901883 0.37305886
vt 0.88863534 0.2715059
vt 0.99409413 0.28322354
vt 0.8925412 0.19338825
vt 0.97065884 0.17385884
vt 0.8964471 0.09964706
vt 0.9784706 0.084023535
vt 0.9198824 0.01762353
vt 0.99409413 0.01762353
vt 0.9198824 0.46289414
vt 0.84567064 0.41602355
vt 0.81832945 0.3379059
vt 0.92378825 0.35352945
vt 0.82614124 0.2715059
vt 0.88863534 0.2715059
vt 0.8300471 0.2051059
vt 0.8964471 0.09964706
vt 0.84176475 0.0059058825
vt 0.9198824 0.01762353
vt 0.83785886 0.11136471
vt 0.8925412 0.19338825
vt 0.77536476 0.013717649
vt 0.8300471 0.2051059
vt 0.88863534 0.2715059
vt 0.7636471 0.11527059
vt 0.6816236 0.04496471
vt 0.7636471 0.2051059
vt 0.82614124 0.2715059
vt 0.6738118 0.12698825
vt 0.6308471 0.06058824
vt 0.6152235 0.12698825
vt 0.6894353 0.20120002
vt 0.6152235 0.18948238
vt 0.7597412 0.2715059
vt 0.81832945 0.3379059
vt 0.6972471 0.26760003
vt 0.6230353 0.25978824
vt 0.767553 0.33400002
vt 0.84567064 0.41602355
vt 0.79098827 0.4121177
vt 0.7128706 0.3379059
vt 0.6425647 0.33400002
vt 0.7206824 0.39258826
vt 0.052776475 0.90425885
vt 0.021529414 0.82223535
vt 0.15432942 0.8300471
vt 0.1387059 0.9394118
vt 0.23635297 0.84176475
vt 0.21291767 0.9901883
vt 0.34962356 0.87691766
vt 0.34571767 0.966753
vt 0.46680003 0.86910594
vt 0.45898828 0.93160003
vt 0.56835294 0.83785886
vt 0.57225883 0.8925412
vt 0.021529414 0.82223535
vt 0.08792941 0.7363059
vt 0.15432942 0.8300471
vt 0.0098117655 0.72849417
vt 0.0098117655 0.6581883
vt 0.0098117655 0.5527294
vt 0.0059058825 0.49804708
vt 0.1387059 0.49023533
vt 0.18557648 0.5839765
vt 0.24807061 0.59178823
vt 0.20120002 0.6425647
vt 0.16995296 0.5956941
vt 0.11136471 0.5839765
vt 0.0098117655 0.6581883
vt 0.08792941 0.6542824
vt 0.13480002 0.6855294
vt 0.24807061 0.59178823
vt 0.1387059 0.49023533
vt 0.29884708 0.49414122
vt 0.32228237 0.5839765
vt 0.41602355 0.50585884
vt 0.24807061 0.6581883
vt 0.41602355 0.59178823
vt 0.4082118 0.6777177
vt 0.47851768 0.52929413
vt 0.48632944 0.6035059
vt 0.5332 0.56835294
vt 0.5332 0.6191294
vt 0.48242357 0.6816236
vt 0.54101175 0.6894353
vt 0.46289414 0.77145886
vt 0.54882354 0.7636471
vt 0.29884708 0.7363059
vt 0.24416472 0.7245883
vt 0.19729413 0.7128706
vt 0.32228237 0.75192946
vt 0.16995296 0.7636471
vt 0.3886824 0.79489416
vt 0.3183765 0.79098827
vt 0.08792941 0.7363059
vt 0.15432942 0.8300471
vt 0.13480002 0.6855294
vt 0.0098117655 0.6581883
vt 0.46680003 0.86910594
vt 0.56835294 0.83785886
vt 0.34962356 0.87691766
vt 0.3886824 0.79489416
vt 0.3183765 0.79098827
vt 0.29884708 0.82223535
vt 0.23635297 0.84176475
vt 0.27931768 0.49804708
vt 0.24416472 0.59178823
vt 0.33400002 0.5996
vt 0.36915296 0.50195295
vt 0.4082118 0.5839765
vt 0.42383534 0.49804708
vt 0.4550824 0.58788234
vt 0.49804708 0.5332
vt 0.5332 0.6230353
vt 0.52538824 0.5605412
vt 0.7324 0.37696475
vt 0.6542824 0.36915296
vt 0.5761647 0.43555298
vt 0.6542824 0.45898828
vt 0.7089647 0.5371059
vt 0.57225883 0.49414122
vt 0.6542824 0.5761647
vt 0.52929413 0.5956941
vt 0.5956941 0.6503765
vt 0.8964471 0.3808706
vt 0.83785886 0.37696475
vt 0.83785886 0.52929413
vt 0.92769414 0.41992944
vt 0.9628471 0.5527294
vt 0.83395296 0.6542824
vt 0.9628471 0.6816236
vt 0.9628471 0.6816236
vt 0.83395296 0.6542824
vt 0.86910594 0.77145886
vt 0.7870824 0.6816236
vt 0.701153 0.7402118
vt 0.77536476 0.84567064
vt 0.52929413 0.5956941
vt 0.5605412 0.7363059
vt 0.5956941 0.6503765
vt 0.6464706 0.79880005
vt 0.701153 0.7402118
vt 0.7089647 0.83395296
vt 0.6464706 0.79880005
vt 0.5605412 0.7363059
vt 0.6035059 0.85348237
vt 0.6620941 0.88472944
vt 0.7089647 0.83395296
vt 0.6972471 0.93160003
vt 0.77536476 0.84567064
vt 0.7402118 0.97456473
vt 0.7402118 0.97456473
vt 0.8066118 0.99409413
vt 0.90816474 0.9159765
vt 0.86910594 0.77145886
vt 0.9159765 0.7792706
vt 0.9628471 0.6816236
vt 0.8027059 0.99409413
vt 0.83395296 0.99409413
vt 0.93160003 0.84957653
vt 0.81832945 0.88472944
vt 0.92378825 0.7167765
vt 0.81442356 0.7128706
vt 0.88863534 0.5996
vt 0.79098827 0.6191294
vt 0.90816474 0.49804708
vt 0.8066118 0.5136706
vt 0.85348237 0.4121177
vt 0.9550353 0.41992944
vt 0.79880005 0.8925412
vt 0.7597412 0.90425885
vt 0.7870824 0.85348237
vt 0.74802357 0.97456473
vt 0.7324 0.91207063
vt 0.7128706 0.97456473
vt 0.701153 0.88472944
vt 0.81442356 0.7128706
vt 0.767553 0.83395296
vt 0.7206824 0.7206824
vt 0.6620941 0.9823765
vt 0.666 0.86910594
vt 0.79098827 0.6191294
vt 0.7089647 0.6308471
vt 0.6308471 0.85348237
vt 0.5800706 0.9198824
vt 0.6699059 0.52929413
vt 0.5527294 0.83395296
vt 0.7324 0.49023533
vt 0.7636471 0.4121177
vt 0.6269412 0.8300471
vt 0.6542824 0.4277412
vt 0.6269412 0.7363059
vt 0.52929413 0.74802357
vt 0.5996 0.5527294
vt 0.5761647 0.46680003
vt 0.52148235 0.5800706
vt 0.52538824 0.50976473
vt 0.52929413 0.6503765
vt 0.6152235 0.6386588
vt 0.7089647 0.6308471
vt 0.7206824 0.7206824
vt 0.701153 0.81051767
vt 0.72849417 0.81051767
vt 0.767553 0.83395296
vt 0.93160003 0.84957653
vt 0.9589412 0.7128706
vt 0.92378825 0.7167765
vt 0.9901883 0.5996
vt 0.88863534 0.5996
vt 0.9862824 0.5332
vt 0.90816474 0.49804708
vt 0.9550353 0.41992944
vt 0.11136471 0.27541178
vt 0.15823531 0.27541178
vt 0.15042354 0.21682355
vt 0.23635297 0.20901178
vt 0.22072943 0.12698825
vt 0.7792706 0.37305886
vt 0.7324 0.37696475
vt 0.7089647 0.5371059
vt 0.83785886 0.37696475
vt 0.83785886 0.52929413
vt 0.72849417 0.61131763
vt 0.6542824 0.5761647
vt 0.5956941 0.6503765
vt 0.701153 0.7402118
vt 0.79489416 0.6308471
vt 0.83395296 0.6542824
vt 0.7870824 0.6816236
vt 0.7324 0.49023533
vt 0.85348237 0.4121177
vt 0.7636471 0.4121177
vt 0.8066118 0.5136706
vt 0.79098827 0.6191294
vt 0.24807061 0.6581883
vt 0.19729413 0.7128706
vt 0.20120002 0.6425647
vt 0.24807061 0.59178823
vt 0.16214119 0.6738118
vt 0.19729413 0.7128706
vt 0.13480002 0.6855294
vt 0.20120002 0.6425647
vt 0.29103532 0.24807061
vt 0.23635297 0.20901178
vt 0.24807061 0.2519765
vt 0.21291767 0.25588238
vt 0.15823531 0.27541178
vt 0.2051059 0.27931768
vt 0.20120002 0.6425647
vt 0.14261177 0.6581883
vt 0.16995296 0.5956941
vt 0.16214119 0.6738118
vt 0.11136471 0.5839765
vt 0.13480002 0.6855294
vt 0.08792941 0.6542824
vt 0.6308471 0.85348237
vt 0.7089647 0.86129415
vt 0.6269412 0.8300471
vt 0.666 0.86910594
vt 0.701153 0.81051767
vt 0.701153 0.88472944
vt 0.72849417 0.81051767
vt 0.7324 0.91207063
vt 0.767553 0.83395296
vt 0.7597412 0.90425885
vt 0.7870824 0.85348237
vt 0.79880005 0.8925412
vt 0.23635297 0.84176475
vt 0.30275297 0.7870824
vt 0.29884708 0.82223535
vt 0.15432942 0.8300471
vt 0.3183765 0.79098827
vt 0.16995296 0.7636471
vt 0.32228237 0.75192946
vt 0.24416472 0.7245883
vt 0.29884708 0.7363059
vt 0.36915296 0.11917648
vt 0.33400002 0.13089412
vt 0.30275297 0.16604708
vt 0.32228237 0.19729413
vt 0.3652471 0.07230588
vt 0.37305886 0.21291767
vt 0.43555298 0.09964706
vt 0.4121177 0.2051059
vt 0.44727063 0.15432942
vt 0.29103532 0.24807061
vt 0.24807061 0.2519765
vt 0.25588238 0.2715059
vt 0.3183765 0.27541178
vt 0.21291767 0.25588238
vt 0.34962356 0.33009416
vt 0.2051059 0.27931768
vt 0.27541178 0.34962356
vt 0.21682355 0.31447062
vn -0.5177975 0.83365756 -0.19209586
vn -0.5177975 0.83365756 -0.19209586
vn -0.5177975 0.83365756 -0.19209586
vn 0.7971788 0.60374343 -0
vn 0.7971788 0.60374343 -0
vn 0.7971788 0.60374343 -0
vn 0.83701926 0.5471733 -0
vn 0.83701926 0.5471733 -0
vn 0.7140563 0.67572755 0.18307333
vn 0.6824703 0.7073135 0.18423334
vn 0.5245403 0.7388995 0.42294788
vn 0.55612636 0.7388995 0.3804615
vn 0.39819634 0.7388995 0.5435689
vn 0.39819634 0.7388995 0.5435689
vn 0.27185237 0.7073135 0.6525366
vn 0.20868039 0.7388995 0.6406871
vn 0.24026638 0.7388995 0.6295233
vn 0.14550841 0.7388995 0.657917
vn 0.11392236 0.7388995 0.6641153
vn -0.17035156 0.7073135 0.68606704
vn -0.07559365 0.7388995 0.66956186
vn -0.61255556 0.5809695 0.53595716
vn -0.5177975 0.8020715 0.29760212
vn -0.7073135 0.5177975 0.4812415
vn -0.67572755 0.67572755 0.2945922
vn -0.20193762 0.9600015 -0.19395432
vn -0.39145356 0.7704856 -0.5031064
vn 0.39819634 0.8020715 0.4451078
vn 0.082336366 0.67572755 -0.7325387
vn -0.012421548 0.4862116 -0.8737528
vn 0.33502436 0.39145356 -0.857043
vn 0.6824703 0.42303962 -0.59604675
vn 0.6824703 0.5809695 -0.44351855
vn 0.7772283 0.5177975 -0.3574939
vn 0.7772283 0.61255556 -0.14384659
vn 0.7140563 0.6441415 -0.27423584
vn 0.6824703 0.7073135 0.18423334
vn 0.58771235 0.67572755 0.4449567
vn 0.36661035 0.67572755 0.63952255
vn 0.33502436 0.7704856 0.5423197
vn -0.8020715 0.20193762 0.562052
vn -0.8020715 0.20193762 0.562052
vn -0.8020715 0.20193762 0.562052
vn -0.7073135 -0.58771235 0.3928127
vn -0.7073135 -0.58771235 0.3928127
vn -0.7073135 -0.58771235 0.3928127
vn -0.39145356 0.20193762 -0.8977668
vn -0.39145356 0.20193762 -0.8977668
vn -0.39145356 0.20193762 -0.8977668
vn -0.45462555 0.42303962 -0.7838068
vn -0.7073135 0.42303962 -0.5663436
vn -0.45462555 0.5177975 -0.7247078
vn -0.5177975 0.4862116 -0.70390624
vn -0.32828158 0.45462555 -0.8279776
vn -0.4862116 0.5177975 -0.70390624
vn -0.32828158 0.45462555 -0.8279776
vn -0.61255556 0.5177975 -0.59721136
vn -0.3598675 0.6441415 -0.67496455
vn -0.3598675 0.61255556 -0.70375496
vn -0.3598675 0.2651096 -0.89454585
vn -0.39145356 0.0440076 -0.9191449
vn -0.23352355 0.17035156 -0.95731246
vn -0.45462555 -0.1770944 -0.87289935
vn -0.67572755 0.42303962 -0.6036802
vn -0.83365756 0.45462555 -0.31357726
vn -0.7704856 0.45462555 -0.4468418
vn -0.89194274 0.4521483 -0
vn -0.7073135 0.5177975 -0.4812415
vn -0.8020715 0.5177975 -0.29760212
vn -0.8652435 0.4862116 0.122278206
vn -0.4862116 0.83365756 -0.2619415
vn -0.42303962 0.8652435 -0.26905605
vn -0.83365756 0.45462555 0.31357726
vn -0.7704856 0.2651096 0.5797145
vn -0.17035156 0.89682955 -0.4082611
vn -0.17035156 0.89682955 -0.4082611
vn -0.17035156 0.89682955 -0.4082611
vn -0.17035156 0.89682955 -0.4082611
vn -0.3598675 0.2651096 -0.89454585
vn -0.3598675 0.2651096 -0.89454585
vn -0.39145356 0.012421548 -0.920114
vn -0.3598675 0.07559365 -0.929936
vn -0.5177975 -0.55612636 -0.650084
vn -0.3598675 -0.39819634 -0.84376246
vn -0.012421548 -0.84040034 -0.54182374
vn -0.07559365 -0.84040034 -0.5366683
vn -0.8020715 -0.55612636 -0.21772635
vn -0.9284155 -0.24026638 -0.28340214
vn -0.9600015 -0.27185237 -0.06703272
vn -0.9600015 0.0440076 -0.2765148
vn -0.9600015 0.012421548 -0.27971914
vn -0.9600015 0.13876563 -0.24318963
vn -0.9903495 0.13859239 -0
vn -0.99158746 0.10717958 -0.072573185
vn -0.99158746 0.10717958 -0.072573185
vn -0.67572755 -0.36661035 -0.63952255
vn -0.67572755 -0.36661035 -0.63952255
vn -0.8020715 -0.39819634 -0.44510782
vn -0.83365756 -0.33502436 -0.4390601
vn -0.89682955 -0.39819634 -0.1927082
vn -0.83365756 -0.49295437 -0.24902023
vn -0.8892306 -0.4574591 -0
vn -0.89682955 -0.39819634 0.1927082
vn -0.89682955 -0.42978233 0.10480417
vn -0.89682955 -0.11392236 0.4274558
vn -0.9600015 -0.14550841 0.23921622
vn -0.9844232 -0.17581488 -0
vn -0.89682955 -0.20868039 -0.39006314
vn -0.8652435 -0.27185237 -0.4212481
vn -0.8652435 -0.27185237 -0.4212481
vn -0.012421548 -0.84040034 -0.54182374
vn -0.07559365 -0.84040034 -0.5366683
vn -0.20193762 -0.8088143 -0.55230486
vn -0.13876563 -0.8088143 -0.57145745
vn 0.20868039 -0.8719863 -0.4428231
vn 0.082336366 -0.8719863 -0.48255628
vn 0.49295437 -0.84040034 -0.22521824
vn 0.49295437 -0.84040034 -0.22521824
vn 0.49212724 -0.8705232 -0
vn 0.49212724 -0.8705232 -0
vn 0.46136832 -0.8719863 0.16364326
vn 0.46136832 -0.8719863 0.16364326
vn 0.20868039 -0.55612636 -0.8044725
vn 0.20868039 -0.55612636 -0.8044725
vn 0.1770944 -0.55612636 -0.8120105
vn 0.1770944 -0.55612636 -0.8120105
vn 0.27185237 -0.58771235 -0.76203054
vn 0.20868039 -0.58771235 -0.78169477
vn 0.58771235 -0.55612636 -0.58763736
vn 0.65088433 -0.65088433 -0.39076746
vn 0.46136832 -0.8719863 -0.16364326
vn 0.55612636 -0.6824703 -0.4742971
vn 0.58771235 -0.8088143 -0.02033854
vn 0.6824703 -0.61929834 -0.38820595
vn 0.14550841 -0.9351583 0.32296473
vn 0.58771235 -0.8088143 -0.02033854
vn 0.49295437 -0.6824703 -0.53965753
vn 0.27185237 -0.84040034 0.4688535
vn -0.0440076 -0.7772283 0.62767786
vn 0.33502436 -0.8719863 0.35692924
vn 0.24026638 -0.9351583 -0.2602902
vn 0.11392236 -0.6824703 0.7219806
vn -0.07559365 -0.7456423 0.66204464
vn 0.11392236 -0.61929834 0.776847
vn 0.14550841 -0.7140563 0.68479985
vn 0.11392236 -0.61929834 0.776847
vn 0.050750375 -0.9983303 0.02758681
vn -0.012421548 -0.84040034 -0.54182374
vn -0.20193762 -0.9035723 0.37786004
vn -0.2651096 -0.8088143 0.5249156
vn -0.23352355 -0.9351583 -0.2663563
vn -0.0440076 -0.7772283 -0.62767786
vn -0.20193762 -0.84040034 -0.5029398
vn -0.45462555 -0.8719863 0.1815364
vn -0.5177975 -0.8088143 0.27875653
vn -0.5177975 -0.84040034 -0.16004065
vn 0.7772283 -0.58771235 0.22474506
vn 0.7772283 -0.58771235 0.22474506
vn 0.9035723 -0.39819634 0.15810348
vn 0.9035723 -0.33502436 0.26705003
vn 0.9667443 -0.050750375 0.25065878
vn 0.9667443 -0.050750375 0.25065878
vn 0.9667443 0.20193762 0.15692873
vn 0.9667443 0.17035156 0.19075055
vn 0.8719863 0.4862116 0.05690428
vn 0.84040034 0.4862116 0.23942757
vn 0.8719863 0.4862116 0.05690428
vn 0.8719863 0.4862116 0.05690428
vn 0.8088143 -0.55612636 -0.19116211
vn 0.8088143 -0.58771235 -0.02033854
vn 0.8088143 -0.55612636 -0.19116211
vn 0.7666695 -0.642042 -0
vn 0.55612636 -0.65088433 0.5167911
vn 0.050750375 -0.58771235 0.8074767
vn 0.050750375 -0.61929834 0.78351384
vn 0.019164383 -0.55612636 0.83087677
vn 0.082336366 -0.27185237 0.9588102
vn 0.1770944 0.23352355 0.95608807
vn 0.49295437 0.0440076 0.8689415
vn 0.5245403 -0.7772283 0.34752497
vn 0.1770944 -0.61929834 0.764923
vn 0.14550841 -0.58771235 0.7958778
vn 0.55612636 -0.58771235 0.58763736
vn 0.84040034 -0.49295437 0.22521827
vn 0.49295437 -0.46136832 0.7376552
vn 0.42978233 -0.49295437 0.7564939
vn 0.46136832 -0.24026638 0.8540558
vn 0.58771235 -0.082336366 0.80486953
vn 0.39819634 0.2651096 0.8781552
vn 0.61929834 -0.42978233 0.65708196
vn 0.58771235 0.23352355 0.77463603
vn 0.7456423 0.2651096 0.6113382
vn 0.5245403 0.42303962 0.738847
vn 0.5245403 0.4862116 0.69889605
vn 0.49295437 0.61255556 0.6178767
vn 0.5245403 0.5493836 0.65041155
vn 0.6824703 0.4862116 0.54574037
vn 0.65088433 0.4862116 0.5830505
vn 0.8719863 0.4862116 0.05690428
vn 0.8719863 0.4862116 0.05690428
vn 0.7140563 -0.050750375 0.69824636
vn 0.55612636 -0.24026638 0.7956102
vn 0.7456423 -0.24026638 0.621522
vn 0.9035723 0.20193762 0.37786007
vn 0.84040034 -0.20868039 0.5001797
vn 0.8719863 0.32828158 0.3631405
vn 0.9983303 -0.019164383 0.054491602
vn 0.65088433 -0.30343837 0.69589853
vn 0.9351583 -0.1770944 0.30678412
vn 0.65088433 -0.30343837 0.69589853
vn 0.42978233 -0.39819634 0.81038684
vn 0.8719863 0.45462555 -0.18153633
vn 0.8719863 0.45462555 -0.18153633
vn 0.93328166 0.35914534 -0
vn 0.9035723 0.39145356 -0.17412965
vn 0.9966163 -0.08219501 -0
vn 0.9667443 -0.050750375 0.25065878
vn 0.9351583 0.07559365 0.3460701
vn 0.4574591 0.8892306 -0
vn 0.4574591 0.8892306 -0
vn 0.36661035 0.9284155 0.06034522
vn 0.27185237 0.9600015 -0.06703294
vn 0.17581488 0.9844232 -0
vn 0.14518802 0.9894041 -0
vn 0.050750375 0.99158746 -0.11907457
vn 0.019164383 0.99158746 -0.1280119
vn -0.0440076 0.9600015 -0.27651477
vn -0.0440076 0.9600015 -0.27651477
vn -0.07559365 0.39145356 0.9170876
vn -0.2651096 0.42303962 0.8664608
vn -0.2651096 0.4862116 0.8326555
vn -0.07559365 0.45462555 0.887469
vn 0.20868039 0.42303962 0.8817539
vn -0.13876563 0.42303962 0.8954226
vn -0.012421548 0.3598675 0.9329207
vn 0.019164383 0.29669553 0.9547798
vn 0.019164383 0.29669553 0.9547798
vn -0.7388995 0.4862116 0.46650374
vn -0.7388995 0.4862116 0.46650374
vn -0.83365756 0.4862116 0.26194152
vn -0.8020715 0.42303962 0.42156705
vn -0.83365756 0.4862116 0.26194152
vn -0.83365756 0.5177975 0.19209586
vn -0.83365756 0.5177975 0.19209586
vn -0.89682955 -0.39819634 0.1927082
vn -0.89682955 -0.42978233 0.10480417
vn -0.8652435 -0.46136832 0.1961962
vn -0.83365756 -0.49295437 0.24902023
vn -0.83365756 -0.46136832 0.30356935
vn -0.83365756 -0.46136832 0.30356935
vn 0.42978233 -0.5245403 0.7349453
vn 0.050750375 -0.65088433 0.7574787
vn 0.20868039 -0.65088433 0.72993296
vn -0.012421548 -0.7456423 0.6662306
vn 0.019164383 -0.7456423 0.66607076
vn -0.07559365 -0.7772283 0.6246613
vn -0.20193762 -0.49295437 0.84629613
vn -0.23352355 -0.5245403 0.8187333
vn -0.23352355 -0.5245403 0.8187333
vn -0.17035156 -0.46136832 0.87070066
vn -0.5177975 -0.30343837 0.7998818
vn -0.6441415 -0.20868039 0.7358901
vn -0.7073135 -0.14550841 0.6917622
vn -0.7073135 -0.14550841 0.6917622
vn -0.83365756 -0.082336366 0.5461097
vn -0.7388995 -0.14550841 0.657917
vn -0.67572755 -0.20868039 0.70699704
vn -0.67572755 -0.11392236 0.72829527
vn -0.67572755 -0.019164383 0.7369023
vn -0.67572755 0.23352355 0.69918454
vn -0.32828158 0.4862116 -0.809833
vn -0.45462555 0.45462555 -0.7659186
vn -0.5809695 0.5493836 -0.60054314
vn -0.2651096 0.5493836 -0.792398
vn 0.019164383 0.23352355 -0.97216225
vn 0.14550841 0.13876563 -0.9795772
vn 0.082336366 -0.24026638 -0.9672088
vn 0.082336366 -0.20868039 -0.9745118
vn 0.050750375 -0.5245403 -0.8498717
vn 0.019164383 -0.42978233 -0.9027291
vn 0.082336366 -0.7140563 -0.6952297
vn 0.24026638 -0.6824703 -0.6902944
vn 0.46136832 0.5809695 -0.6705324
vn 0.33502436 0.5493836 -0.7654648
vn 0.58771235 0.5177975 -0.6216751
vn 0.33502436 0.4862116 -0.80706686
vn 0.55612636 0.4862116 -0.67403394
vn 0.8088143 0.4862116 -0.33078355
vn 0.84040034 0.4862116 -0.23942757
vn 0.84040034 0.17035156 -0.51449746
vn 0.7140563 0.45462555 -0.53239006
vn 0.84040034 0.17035156 -0.51449746
vn 0.84040034 0.4862116 -0.23942757
vn 0.84040034 0.4862116 -0.23942757
vn 0.84040034 -0.050750375 -0.5395847
vn 0.84040034 -0.082336366 -0.5356753
vn 0.8088143 0.5177975 -0.27875653
vn 0.84040034 0.5177975 -0.16004065
vn 0.7140563 -0.46136832 -0.5265575
vn 0.7772283 0.4862116 -0.3993926
vn 0.7456423 -0.55612636 -0.36707085
vn 0.58771235 -0.8088143 -0.02033854
vn 0.7772283 0.39145356 -0.4926259
vn 0.55612636 -0.8088143 -0.19116211
vn 0.7772283 0.23352355 -0.58427984
vn 0.8088143 0.29669553 -0.50773144
vn 0.6824703 -0.49295437 -0.53965753
vn 0.55612636 -0.7456423 -0.36707085
vn 0.7772283 -0.42978233 -0.45956862
vn 0.7140563 -0.65088433 -0.25782388
vn 0.8088143 -0.050750375 -0.5858702
vn 0.7140563 -0.050750375 -0.69824636
vn 0.65088433 -0.050750375 -0.7574787
vn 0.7140563 0.13876563 -0.686198
vn 0.7456423 0.2651096 -0.6113382
vn 0.49295437 0.2651096 -0.8286814
vn 0.49295437 0.2651096 -0.8286814
vn 0.33502436 0.83365756 -0.4390601
vn 0.6824703 0.10717958 -0.7230123
vn 0.6824703 0.20193762 -0.70246387
vn 0.6824703 -0.27185237 -0.67847663
vn 0.6824703 -0.27185237 -0.67847663
vn 0.58771235 -0.58771235 -0.5560471
vn 0.55612636 -0.61929834 -0.55425
vn 0.36661035 -0.8088143 -0.45980027
vn -0.6441415 -0.7456423 -0.17058495
vn -0.7073135 -0.6824703 -0.18423326
vn -0.7073135 -0.61929834 -0.34084776
vn -0.67572755 -0.61929834 -0.3998273
vn -0.6441415 -0.58771235 -0.48956704
vn -0.5177975 0.45462555 0.7247077
vn -0.0440076 0.4862116 0.8727323
vn -0.4862116 0.4862116 0.726083
vn -0.5809695 0.45462555 0.6751222
vn -0.5493836 0.5177975 0.65579224
vn -0.45462555 0.20193762 0.8674888
vn -0.3598675 0.0440076 0.931965
vn -0.3598675 0.012421548 0.9329207
vn -0.42303962 -0.019164383 0.90590847
vn -0.5809695 0.32828158 0.7447856
vn -0.8020715 0.42303962 0.42156705
vn -0.5493836 -0.082336366 0.83150375
vn -0.0440076 -0.5245403 -0.8502475
vn -0.10717958 -0.55612636 -0.8241578
vn -0.10717958 -0.55612636 -0.8241578
vn -0.012421548 -0.5245403 -0.851295
vn 0.14550841 -0.46136832 -0.87519515
vn 0.7772283 0.45462555 0.4350078
vn 0.8719863 0.39145356 0.29394543
vn 0.8088143 0.42303962 0.40848127
vn 0.7140563 0.4862116 0.50370806
vn 0.84040034 -0.46136832 0.28437042
vn 0.84040034 -0.46136832 0.28437042
vn 0.84040034 -0.5245403 0.13632593
vn 0.84040034 -0.42978233 0.3301733
vn -0.3598675 -0.20868039 -0.9093667
vn -0.4862116 -0.082336366 -0.86995345
vn -0.42303962 -0.050750375 -0.90468884
vn -0.5809695 -0.11392236 -0.8059132
vn -0.61255556 -0.20868039 -0.7623832
vn -0.6441415 -0.24026638 -0.7261913
vn 0.050750375 -0.9667443 0.25065884
vn 0.58771235 -0.49295437 0.6415529
vn 0.5518525 -0.8339419 -0
vn -0.42303962 -0.6824703 0.59604675
vn 0.9035723 -0.11392236 0.4130118
vn -0.07559365 -0.082336366 0.9937335
vn 0.5245403 0.29669553 0.7980158
vn 0.27185237 0.0440076 -0.9613322
vn 0.58771235 0.5809695 -0.5630885
vn 0.24026638 0.89682955 -0.37144157
vn 0.24026638 -0.58771235 -0.7725712
vn 0.20868039 0.9600015 -0.18668044
vn 0.050750375 -0.46136832 -0.88575596
vn 0.36661035 0.9284155 -0.06034522
vn 0.33502436 -0.36661035 -0.8679605
vn 0.58771235 0.8020715 0.10618602
vn 0.61929834 -0.36661035 -0.69431
vn 0.8088143 0.5809695 -0.09107084
vn 0.9035723 0.13876563 -0.40534076
vn 0.30343837 -0.082336366 0.94928706
vn 0.9667443 -0.11392236 0.22896971
vn 0.14550841 -0.55612636 0.81826085
vn 0.8088143 0.2651096 0.5249156
vn 0.14550841 -0.9667443 0.21031578
vn 0.9351583 0.32828158 0.1330794
vn 0.58771235 -0.7140563 -0.38041785
vn 0.9035723 0.07559365 -0.42171392
vn 0.7456423 -0.30343837 -0.5932476
vn -0.89194274 0.4521483 -0
vn -0.012421548 0.89682955 -0.44220182
vn -0.4521483 0.89194274 -0
vn -0.5809695 0.7073135 0.4027183
vn -0.32828158 0.7388995 -0.5884375
vn -0.8020715 0.39145356 0.4510492
vn -0.61255556 -0.42978233 -0.6633723
vn -0.89682955 -0.24026638 0.37144157
vn -0.9284155 -0.36661035 0.060345344
vn 0.20868039 -0.30343837 -0.9297191
vn 0.30343837 0.10717958 -0.9468039
vn -0.99158746 0.0440076 -0.12172782
vn -0.20193762 -0.6824703 -0.7024638
vn 0.019164383 0.5493836 -0.83535045
vn -0.9600015 -0.11392236 0.25577098
vn -0.64140016 0.76720655 -0
vn -0.9284155 0.13876563 0.34465754
vn -0.83365756 0.45462555 0.31357726
g env_asteroid_03_mesh_0
f 3/3/3 2/2/2 1/1/1
f 6/6/6 5/5/5 4/4/4
f 8/8/8 7/7/7 4/4/4
f 7/7/7 8/8/8 9/9/9
f 7/7/7 9/9/9 10/10/10
f 9/9/9 11/11/11 10/10/10
f 11/11/11 12/12/12 10/10/10
f 11/11/11 13/13/13 12/12/12
f 13/13/13 14/14/14 12/12/12
f 13/13/13 15/15/15 14/14/14
f 17/17/17 15/15/15 16/16/16
f 18/18/18 17/17/17 16/16/16
f 19/19/19 18/18/18 16/16/16
f 20/20/20 18/18/18 19/19/19
f 21/21/21 20/20/20 19/19/19
f 22/22/22 20/20/20 21/21/21
f 23/23/23 22/22/22 21/21/21
f 24/24/24 22/22/22 23/23/23
f 25/25/25 24/24/24 23/23/23
f 25/25/25 23/23/23 26/26/26
f 27/27/27 25/25/25 26/26/26
f 23/23/23 21/21/21 28/28/28
f 26/26/26 23/23/23 28/28/28
f 27/27/27 26/26/26 29/29/29
f 30/30/30 27/27/27 29/29/29
f 30/30/30 29/29/29 31/31/31
f 31/31/31 29/29/29 32/32/32
f 29/29/29 26/26/26 33/33/33
f 29/29/29 33/33/33 32/32/32
f 26/26/26 28/28/28 33/33/33
f 32/32/32 33/33/33 34/34/34
f 33/33/33 35/35/35 34/34/34
f 33/33/33 28/28/28 35/35/35
f 34/34/34 35/35/35 36/36/36
f 35/35/35 37/37/37 36/36/36
f 28/28/28 21/21/21 38/38/38
f 28/28/28 38/38/38 35/35/35
f 35/35/35 38/38/38 37/37/37
f 21/21/21 39/39/39 38/38/38
f 38/38/38 11/11/11 37/37/37
f 38/38/38 39/39/39 11/11/11
f 39/39/39 40/40/40 11/11/11
f 43/43/43 42/42/42 41/41/41
f 46/46/46 45/45/45 44/44/44
f 49/49/49 48/48/48 47/47/47
f 52/52/52 51/51/51 50/50/50
f 52/52/52 53/53/53 51/51/51
f 53/53/53 52/52/52 54/54/54
f 55/55/55 53/53/53 54/54/54
f 56/56/56 55/55/55 54/54/54
f 51/51/51 53/53/53 57/57/57
f 53/53/53 55/55/55 57/57/57
f 58/58/58 57/57/57 55/55/55
f 59/59/59 58/58/58 55/55/55
f 60/60/60 58/58/58 59/59/59
f 61/61/61 60/60/60 59/59/59
f 61/61/61 62/62/62 60/60/60
f 63/63/63 62/62/62 61/61/61
f 51/51/51 65/65/65 64/64/64
f 65/65/65 66/66/66 64/64/64
f 65/65/65 67/67/67 66/66/66
f 51/51/51 68/68/68 65/65/65
f 65/65/65 69/69/69 67/67/67
f 68/68/68 69/69/69 65/65/65
f 69/69/69 70/70/70 67/67/67
f 71/71/71 69/69/69 68/68/68
f 72/72/72 71/71/71 68/68/68
f 71/71/71 73/73/73 69/69/69
f 73/73/73 70/70/70 69/69/69
f 73/73/73 74/74/74 70/70/70
f 77/77/77 76/76/76 75/75/75
f 78/78/78 77/77/77 75/75/75
f 81/81/81 80/80/80 79/79/79
f 82/82/82 81/81/81 79/79/79
f 83/83/83 81/81/81 82/82/82
f 84/84/84 83/83/83 82/82/82
f 85/85/85 83/83/83 84/84/84
f 85/85/85 86/86/86 83/83/83
f 86/86/86 87/87/87 83/83/83
f 83/83/83 87/87/87 88/88/88
f 87/87/87 89/89/89 88/88/88
f 83/83/83 88/88/88 90/90/90
f 88/88/88 91/91/91 90/90/90
f 90/90/90 91/91/91 92/92/92
f 91/91/91 93/93/93 92/92/92
f 93/93/93 94/94/94 92/92/92
f 94/94/94 95/95/95 92/92/92
f 98/98/98 97/97/97 96/96/96
f 99/99/99 98/98/98 96/96/96
f 99/99/99 100/100/100 98/98/98
f 100/100/100 101/101/101 98/98/98
f 100/100/100 102/102/102 101/101/101
f 101/101/101 103/103/103 98/98/98
f 102/102/102 104/104/104 101/101/101
f 104/104/104 103/103/103 101/101/101
f 104/104/104 105/105/105 103/103/103
f 107/107/107 105/105/105 106/106/106
f 107/107/107 106/106/106 108/108/108
f 109/109/109 107/107/107 108/108/108
f 109/109/109 108/108/108 110/110/110
f 113/113/113 112/112/112 111/111/111
f 114/114/114 113/113/113 111/111/111
f 115/115/115 113/113/113 114/114/114
f 116/116/116 115/115/115 114/114/114
f 117/117/117 115/115/115 116/116/116
f 118/118/118 117/117/117 116/116/116
f 119/119/119 117/117/117 118/118/118
f 120/120/120 119/119/119 118/118/118
f 121/121/121 119/119/119 120/120/120
f 122/122/122 121/121/121 120/120/120
f 125/125/125 124/124/124 123/123/123
f 126/126/126 125/125/125 123/123/123
f 127/127/127 125/125/125 126/126/126
f 128/128/128 127/127/127 126/126/126
f 129/129/129 127/127/127 128/128/128
f 132/132/132 131/131/131 130/130/130
f 131/131/131 133/133/133 130/130/130
f 130/130/130 133/133/133 134/134/134
f 131/131/131 135/135/135 133/133/133
f 133/133/133 136/136/136 134/134/134
f 134/134/134 136/136/136 137/137/137
f 135/135/135 138/138/138 133/133/133
f 133/133/133 138/138/138 136/136/136
f 135/135/135 139/139/139 138/138/138
f 138/138/138 140/140/140 136/136/136
f 136/136/136 140/140/140 141/141/141
f 139/139/139 142/142/142 138/138/138
f 138/138/138 142/142/142 140/140/140
f 139/139/139 143/143/143 142/142/142
f 143/143/143 144/144/144 142/142/142
f 142/142/142 144/144/144 145/145/145
f 142/142/142 145/145/145 140/140/140
f 144/144/144 146/146/146 145/145/145
f 140/140/140 147/147/147 141/141/141
f 140/140/140 145/145/145 147/147/147
f 141/141/141 147/147/147 148/148/148
f 145/145/145 146/146/146 149/149/149
f 145/145/145 149/149/149 147/147/147
f 146/146/146 150/150/150 149/149/149
f 147/147/147 151/151/151 148/148/148
f 147/147/147 149/149/149 151/151/151
f 148/148/148 151/151/151 152/152/152
f 151/151/151 153/153/153 152/152/152
f 149/149/149 150/150/150 154/154/154
f 149/149/149 154/154/154 151/151/151
f 151/151/151 154/154/154 153/153/153
f 150/150/150 155/155/155 154/154/154
f 154/154/154 156/156/156 153/153/153
f 154/154/154 155/155/155 156/156/156
f 159/159/159 158/158/158 157/157/157
f 160/160/160 159/159/159 157/157/157
f 161/161/161 159/159/159 160/160/160
f 162/162/162 161/161/161 160/160/160
f 163/163/163 161/161/161 162/162/162
f 164/164/164 163/163/163 162/162/162
f 165/165/165 163/163/163 164/164/164
f 166/166/166 165/165/165 164/164/164
f 167/167/167 165/165/165 166/166/166
f 168/168/168 167/167/167 166/166/166
f 171/171/171 170/170/170 169/169/169
f 170/170/170 172/172/172 169/169/169
f 170/170/170 173/173/173 172/172/172
f 176/176/176 175/175/175 174/174/174
f 177/177/177 176/176/176 174/174/174
f 178/178/178 176/176/176 177/177/177
f 178/178/178 177/177/177 179/179/179
f 180/180/180 179/179/179 177/177/177
f 181/181/181 180/180/180 177/177/177
f 181/181/181 177/177/177 174/174/174
f 181/181/181 174/174/174 182/182/182
f 181/181/181 182/182/182 183/183/183
f 183/183/183 182/182/182 184/184/184
f 187/187/187 186/186/186 185/185/185
f 188/188/188 187/187/187 185/185/185
f 189/189/189 187/187/187 188/188/188
f 188/188/188 185/185/185 190/190/190
f 191/191/191 189/189/189 188/188/188
f 191/191/191 188/188/188 192/192/192
f 193/193/193 189/189/189 191/191/191
f 194/194/194 193/193/193 191/191/191
f 194/194/194 191/191/191 192/192/192
f 195/195/195 193/193/193 194/194/194
f 196/196/196 195/195/195 194/194/194
f 196/196/196 194/194/194 197/197/197
f 197/197/197 194/194/194 192/192/192
f 198/198/198 196/196/196 197/197/197
f 198/198/198 197/197/197 199/199/199
f 197/197/197 192/192/192 199/199/199
f 200/200/200 198/198/198 199/199/199
f 190/190/190 201/201/201 188/188/188
f 188/188/188 201/201/201 192/192/192
f 190/190/190 202/202/202 201/201/201
f 190/190/190 203/203/203 202/202/202
f 192/192/192 201/201/201 204/204/204
f 202/202/202 203/203/203 205/205/205
f 192/192/192 204/204/204 206/206/206
f 192/192/192 206/206/206 199/199/199
f 206/206/206 204/204/204 207/207/207
f 205/205/205 203/203/203 208/208/208
f 205/205/205 208/208/208 209/209/209
f 203/203/203 210/210/210 208/208/208
f 210/210/210 211/211/211 208/208/208
f 200/200/200 199/199/199 212/212/212
f 213/213/213 200/200/200 212/212/212
f 212/212/212 199/199/199 214/214/214
f 199/199/199 215/215/215 214/214/214
f 214/214/214 215/215/215 216/216/216
f 214/214/214 216/216/216 217/217/217
f 214/214/214 217/217/217 218/218/218
f 221/221/221 220/220/220 219/219/219
f 222/222/222 221/221/221 219/219/219
f 223/223/223 221/221/221 222/222/222
f 224/224/224 223/223/223 222/222/222
f 225/225/225 223/223/223 224/224/224
f 226/226/226 225/225/225 224/224/224
f 227/227/227 225/225/225 226/226/226
f 228/228/228 227/227/227 226/226/226
f 231/231/231 230/230/230 229/229/229
f 232/232/232 231/231/231 229/229/229
f 232/232/232 229/229/229 233/233/233
f 234/234/234 231/231/231 232/232/232
f 235/235/235 232/232/232 233/233/233
f 235/235/235 234/234/234 232/232/232
f 236/236/236 234/234/234 235/235/235
f 237/237/237 236/236/236 235/235/235
f 240/240/240 239/239/239 238/238/238
f 241/241/241 240/240/240 238/238/238
f 242/242/242 240/240/240 241/241/241
f 243/243/243 240/240/240 242/242/242
f 244/244/244 243/243/243 242/242/242
f 247/247/247 246/246/246 245/245/245
f 247/247/247 248/248/248 246/246/246
f 249/249/249 248/248/248 247/247/247
f 250/250/250 249/249/249 247/247/247
f 253/253/253 252/252/252 251/251/251
f 254/254/254 252/252/252 253/253/253
f 255/255/255 254/254/254 253/253/253
f 256/256/256 254/254/254 255/255/255
f 259/259/259 258/258/258 257/257/257
f 260/260/260 259/259/259 257/257/257
f 260/260/260 257/257/257 261/261/261
f 262/262/262 260/260/260 261/261/261
f 262/262/262 261/261/261 263/263/263
f 264/264/264 262/262/262 263/263/263
f 263/263/263 266/266/266 265/265/265
f 263/263/263 267/267/267 266/266/266
f 268/268/268 267/267/267 263/263/263
f 268/268/268 269/269/269 267/267/267
f 269/269/269 268/268/268 270/270/270
f 273/273/273 272/272/272 271/271/271
f 274/274/274 273/273/273 271/271/271
f 275/275/275 273/273/273 274/274/274
f 275/275/275 274/274/274 276/276/276
f 277/277/277 275/275/275 276/276/276
f 278/278/278 277/277/277 276/276/276
f 279/279/279 277/277/277 278/278/278
f 280/280/280 279/279/279 278/278/278
f 281/281/281 279/279/279 280/280/280
f 282/282/282 279/279/279 281/281/281
f 283/283/283 274/274/274 271/271/271
f 284/284/284 283/283/283 271/271/271
f 283/283/283 285/285/285 274/274/274
f 284/284/284 271/271/271 286/286/286
f 287/287/287 284/284/284 286/286/286
f 287/287/287 286/286/286 288/288/288
f 289/289/289 287/287/287 288/288/288
f 285/285/285 290/290/290 274/274/274
f 290/290/290 285/285/285 291/291/291
f 290/290/290 291/291/291 292/292/292
f 289/289/289 288/288/288 293/293/293
f 294/294/294 289/289/289 293/293/293
f 295/295/295 290/290/290 292/292/292
f 296/296/296 295/295/295 292/292/292
f 297/297/297 294/294/294 293/293/293
f 297/297/297 293/293/293 298/298/298
f 296/296/296 299/299/299 295/295/295
f 300/300/300 297/297/297 298/298/298
f 299/299/299 301/301/301 295/295/295
f 302/302/302 301/301/301 299/299/299
f 300/300/300 303/303/303 297/297/297
f 304/304/304 302/302/302 299/299/299
f 305/305/305 303/303/303 300/300/300
f 306/306/306 305/305/305 300/300/300
f 304/304/304 299/299/299 307/307/307
f 308/308/308 304/304/304 307/307/307
f 308/308/308 307/307/307 309/309/309
f 310/310/310 308/308/308 309/309/309
f 309/309/309 307/307/307 311/311/311
f 311/311/311 312/312/312 306/306/306
f 307/307/307 312/312/312 311/311/311
f 307/307/307 299/299/299 312/312/312
f 312/312/312 305/305/305 306/306/306
f 299/299/299 313/313/313 312/312/312
f 312/312/312 313/313/313 305/305/305
f 313/313/313 314/314/314 305/305/305
f 305/305/305 314/314/314 303/303/303
f 314/314/314 315/315/315 303/303/303
f 316/316/316 315/315/315 314/314/314
f 316/316/316 314/314/314 317/317/317
f 320/320/320 319/319/319 318/318/318
f 321/321/321 319/319/319 320/320/320
f 322/322/322 321/321/321 320/320/320
f 323/323/323 321/321/321 322/322/322
f 324/324/324 323/323/323 322/322/322
f 323/323/323 324/324/324 325/325/325
f 328/328/328 327/327/327 326/326/326
f 328/328/328 329/329/329 327/327/327
f 328/328/328 330/330/330 329/329/329
f 333/333/333 332/332/332 331/331/331
f 333/333/333 331/331/331 334/334/334
f 335/335/335 333/333/333 334/334/334
f 336/336/336 333/333/333 335/335/335
f 336/336/336 337/337/337 333/333/333
f 338/338/338 337/337/337 336/336/336
f 339/339/339 338/338/338 336/336/336
f 340/340/340 336/336/336 335/335/335
f 339/339/339 336/336/336 340/340/340
f 341/341/341 340/340/340 335/335/335
f 342/342/342 339/339/339 340/340/340
f 342/342/342 340/340/340 341/341/341
f 345/345/345 344/344/344 343/343/343
f 344/344/344 346/346/346 343/343/343
f 343/343/343 346/346/346 347/347/347
f 350/350/350 349/349/349 348/348/348
f 348/348/348 351/351/351 350/350/350
f 354/354/354 353/353/353 352/352/352
f 352/352/352 353/353/353 355/355/355
f 358/358/358 357/357/357 356/356/356
f 358/358/358 359/359/359 357/357/357
f 359/359/359 360/360/360 357/357/357
f 359/359/359 361/361/361 360/360/360
f 364/364/364 363/363/363 362/362/362
f 365/365/365 362/362/362 363/363/363
f 364/364/364 366/366/366 363/363/363
f 365/365/365 363/363/363 367/367/367
f 366/366/366 368/368/368 363/363/363
f 363/363/363 368/368/368 367/367/367
f 371/371/371 370/370/370 369/369/369
f 370/370/370 372/372/372 369/369/369
f 373/373/373 370/370/370 371/371/371
f 370/370/370 374/374/374 372/372/372
f 373/373/373 375/375/375 370/370/370
f 370/370/370 376/376/376 374/374/374
f 375/375/375 377/377/377 370/370/370
f 370/370/370 378/378/378 376/376/376
f 379/379/379 370/370/370 377/377/377
f 380/380/380 378/378/378 370/370/370
f 380/380/380 370/370/370 379/379/379
f 383/383/383 382/382/382 381/381/381
f 381/381/381 382/382/382 384/384/384
f 383/383/383 385/385/385 382/382/382
f 382/382/382 386/386/386 384/384/384
f 385/385/385 387/387/387 382/382/382
f 388/388/388 386/386/386 382/382/382
f 387/387/387 389/389/389 382/382/382
f 388/388/388 382/382/382 389/389/389
f 392/392/392 391/391/391 390/390/390
f 393/393/393 392/392/392 390/390/390
f 390/390/390 391/391/391 394/394/394
f 395/395/395 393/393/393 390/390/390
f 390/390/390 394/394/394 396/396/396
f 395/395/395 390/390/390 397/397/397
f 390/390/390 396/396/396 398/398/398
f 390/390/390 398/398/398 397/397/397
f 401/401/401 400/400/400 399/399/399
f 401/401/401 399/399/399 402/402/402
f 401/401/401 403/403/403 400/400/400
f 404/404/404 401/401/401 402/402/402
f 405/405/405 403/403/403 401/401/401
f 404/404/404 406/406/406 401/401/401
f 407/407/407 405/405/405 401/401/401
f 407/407/407 401/401/401 406/406/406
