g env_asteroid_01_mesh
v 0.0793473 0.09729235 0.08433591
v 0.053002506 0.168121 0.074402615
v 0.0698459 0.17934991 0.046762183
v -0.009188473 -0.17954388 0.07483451
v 0.011541858 -0.09705446 0.106793776
v 0.01370126 -0.19163658 0.073538855
v -0.019553632 -0.09316752 0.111544475
v -0.025599986 -0.15103969 0.080880865
v 0.014996916 -0.020611376 0.12104587
v -0.04330714 -0.076324135 0.1037706
v -0.057991132 -0.1173529 0.09038226
v -0.07569827 -0.06682272 0.10636188
v -0.013075411 -0.020611376 0.11413576
v 0.014565021 0.0083247125 0.1439356
v -0.06274183 -0.020179495 0.12320526
v -0.10161118 -0.020611376 0.09470107
v -0.0057334155 0.029486924 0.13054727
v 0.021475136 0.06274183 0.14436747
v -0.07051568 0.040283963 0.13227479
v -0.105929986 0.040283963 0.105929986
v -0.026463747 0.040283963 0.14048053
v -0.0057334155 0.029486924 0.13054727
v 0.021475136 0.06274183 0.14436747
v -0.010915995 0.073538855 0.12579657
v -0.028623149 0.098588005 0.113272
v -0.05928676 0.091246024 0.124500915
v -0.09686048 0.07094757 0.118886456
v -0.031646326 0.1175908 0.09686048
v -0.06101428 0.10161118 0.1033387
v 0.045660526 -0.16658743 0.07872145
v 0.07416472 -0.062935784 0.07872145
v 0.08064295 -0.11778478 0.072675094
v 0.046524286 -0.077187896 0.086495325
v 0.01370126 -0.19163658 0.073538855
v 0.088848695 -0.00074480474 0.08347215
v 0.011541858 -0.09705446 0.106793776
v 0.055593804 -0.020611376 0.105929986
v 0.08021106 0.03682892 0.07483451
v 0.014996916 -0.020611376 0.12104587
v 0.054730043 0.0005508363 0.1223415
v 0.014565021 0.0083247125 0.1439356
v 0.014565021 0.0083247125 0.1439356
v 0.021475136 0.06274183 0.14436747
v 0.052138746 0.052376643 0.11499952
v 0.054730043 0.0005508363 0.1223415
v 0.08021106 0.03682892 0.07483451
v -0.028623149 0.098588005 0.113272
v 0.021475136 0.06274183 0.14436747
v -0.010915995 0.073538855 0.12579657
v -0.0005508363 0.098588005 0.1037706
v -0.031646326 0.1175908 0.09686048
v 0.052138746 0.052376643 0.11499952
v 0.052138746 0.052376643 0.11499952
v 0.0793473 0.09729235 0.08433591
v 0.08021106 0.03682892 0.07483451
v 0.042205468 0.10161118 0.09470107
v 0.053002506 0.168121 0.074402615
v 0.027089596 0.17848615 0.08131273
v -0.0005508363 0.098588005 0.1037706
v 0.0041998625 0.18410061 0.08519967
v -0.01868987 0.1672572 0.0847678
v -0.031646326 0.1175908 0.09686048
v -0.06101428 0.10161118 0.1033387
v -0.045466557 0.13961677 0.04978536
v -0.031646326 0.1175908 0.09686048
v -0.06533311 0.11543141 0.056695476
v -0.04330714 0.17157604 0.012643531
v -0.085631564 0.14436747 0.02430433
v -0.055831715 0.1625065 -0.024066433
v -0.091246024 0.14652689 -0.023202658
v -0.02344057 0.19532953 -0.025793955
v -0.042875245 0.13400231 -0.060776383
v -0.079153314 0.122773394 -0.061640143
v -0.03855644 0.122773394 -0.0983501
v -0.067924395 0.11111258 -0.09532693
v -0.013075411 0.14652689 -0.10094139
v -0.01696235 0.1625065 -0.062935784
v 0.017156318 0.14955007 -0.09575881
v 0.016724437 0.16941662 -0.059912622
v 0.052570626 0.12925161 -0.07286908
v 0.014996916 0.20958163 -0.025793955
v -0.02344057 0.21001352 0.012643531
v 0.053866267 0.14782254 -0.042205468
v 0.07114154 0.11931832 -0.05904886
v 0.076756015 0.13054727 -0.030544654
v 0.055161923 0.18928318 -0.021475136
v 0.088848695 0.15948336 -0.01413314
v 0.014996916 0.2272888 0.012643531
v -0.012211651 0.19403388 0.0489216
v 0.050411224 0.21001352 0.012643531
v 0.083666116 0.17978178 0.012211651
v 0.010678098 0.21562798 0.050217256
v -0.01868987 0.1672572 0.0847678
v 0.0041998625 0.18410061 0.08519967
v 0.04047793 0.20439906 0.04978536
v 0.0698459 0.17934991 0.046762183
v 0.03270407 0.19101073 0.067924395
v -0.031646326 0.1175908 0.09686048
v -0.012211651 0.19403388 0.0489216
v -0.01868987 0.1672572 0.0847678
v -0.045466557 0.13961677 0.04978536
v -0.02344057 0.21001352 0.012643531
v -0.04330714 0.17157604 0.012643531
v -0.02344057 0.19532953 -0.025793955
v -0.067924395 0.11111258 -0.09532693
v -0.054104194 0.080017105 -0.12944558
v -0.03855644 0.122773394 -0.0983501
v -0.08865474 0.07569827 -0.1173529
v -0.06274183 0.03855644 -0.12167172
v -0.10290684 0.040283963 -0.113897845
v -0.056695476 -0.023634553 -0.10266892
v -0.09470107 -0.020611376 -0.10612398
v -0.047625944 -0.0724372 -0.08668929
v -0.06835629 -0.06682272 -0.07286908
v -0.033373848 -0.11821666 -0.07027778
v -0.053240404 -0.11001091 -0.057753205
v -0.040283963 -0.13506006 -0.03961417
v -0.03855644 0.122773394 -0.0983501
v -0.054104194 0.080017105 -0.12944558
v -0.020849288 0.12061398 -0.12599054
v -0.013075411 0.14652689 -0.10094139
v 0.017156318 0.14955007 -0.09575881
v 0.052570626 0.12925161 -0.07286908
v 0.09316752 0.07181133 -0.083234236
v 0.07114154 0.11931832 -0.05904886
v 0.055161923 0.066196874 -0.11778478
v 0.017156318 0.14955007 -0.09575881
v 0.045660526 0.031646326 -0.116489135
v 0.024066433 0.068788156 -0.12944558
v -0.054104194 0.080017105 -0.12944558
v -0.06274183 0.03855644 -0.12167172
v -0.026895627 0.027327508 -0.14758463
v -0.013075411 -0.030976534 -0.131605
v -0.056695476 -0.023634553 -0.10266892
v -0.021281168 -0.08625741 -0.10007763
v -0.047625944 -0.0724372 -0.08668929
v -0.010052234 -0.11951231 -0.09187187
v -0.033373848 -0.11821666 -0.07027778
v 0.019747615 -0.1173529 -0.09532693
v 0.012405619 -0.09273564 -0.10180516
v 0.014996916 -0.060776383 -0.11821666
v 0.04350111 -0.11692102 -0.081074834
v 0.04047793 -0.09143999 -0.09532693
v 0.046956167 -0.14542523 -0.048683688
v 0.020611376 -0.14197016 -0.060344502
v 0.06423144 -0.11519349 -0.06941402
v -0.010052234 -0.11951231 -0.09187187
v -0.016530469 -0.14024264 -0.057321325
v -0.033373848 -0.11821666 -0.07027778
v -0.040283963 -0.13506006 -0.03961417
v 0.07416472 -0.08625741 -0.09187187
v 0.048683688 -0.06682272 -0.10957903
v 0.077619776 -0.054298162 -0.09230375
v 0.051706865 -0.005927399 -0.12383113
v 0.03875041 -0.005927399 -0.12901372
v 0.019315735 0.031646326 -0.116489135
v 0.082370475 0.006165296 -0.110442795
v 0.045660526 0.031646326 -0.116489135
v 0.09316752 0.07181133 -0.083234236
v -0.013075411 -0.030976534 -0.131605
v -0.021281168 -0.08625741 -0.10007763
v -0.0044377744 -0.04522863 -0.113034084
v 0.005927399 -0.005927399 -0.11908043
v -0.026895627 0.027327508 -0.14758463
v -0.020849288 0.06965192 -0.11692102
v -0.054104194 0.080017105 -0.12944558
v -0.020849288 0.12061398 -0.12599054
v -0.0018464774 0.06101428 -0.12167172
v 0.005927399 -0.005927399 -0.11908043
v 0.00722304 0.09513296 -0.10957903
v 0.017156318 0.14955007 -0.09575881
v 0.019315735 0.031646326 -0.116489135
v 0.03875041 -0.005927399 -0.12901372
v 0.014996916 -0.060776383 -0.11821666
v -0.0044377744 -0.04522863 -0.113034084
v -0.021281168 -0.08625741 -0.10007763
v -0.053240404 -0.11001091 -0.057753205
v -0.06403746 -0.13074124 -0.025793955
v -0.040283963 -0.13506006 -0.03961417
v -0.08519967 -0.07070966 -0.046524286
v -0.06835629 -0.06682272 -0.07286908
v -0.0990199 -0.07891542 -0.022338897
v -0.07569827 -0.13376442 -0.00074480474
v -0.109816924 -0.020611376 -0.06855026
v -0.09470107 -0.020611376 -0.10612398
v -0.09729235 -0.07891542 0.012643531
v -0.07742579 -0.13506006 0.019985512
v -0.10549812 -0.016724437 -0.012405619
v -0.11543141 0.036397025 -0.01326938
v -0.12147774 0.040283963 -0.07200532
v -0.10290684 0.040283963 -0.113897845
v -0.11197634 0.09642859 -0.027089596
v -0.105066225 0.08304025 -0.07200532
v -0.08865474 0.07569827 -0.1173529
v -0.079153314 0.122773394 -0.061640143
v -0.067924395 0.11111258 -0.09532693
v -0.091246024 0.14652689 -0.023202658
v -0.085631564 0.14436747 0.02430433
v -0.124500915 0.12104587 0.004869655
v -0.124500915 0.040283963 0.02430433
v -0.11543141 0.036397025 -0.01326938
v -0.11197634 0.09642859 -0.027089596
v -0.10549812 -0.016724437 -0.012405619
v -0.12061398 -0.020611376 0.029486924
v -0.08304025 -0.07114154 0.06403746
v -0.061446175 -0.13333252 0.051512882
v -0.07569827 -0.06682272 0.10636188
v -0.057991132 -0.1173529 0.09038226
v -0.10161118 -0.020611376 0.09470107
v -0.10161118 -0.020611376 0.07785769
v -0.105929986 0.040283963 0.105929986
v -0.10161118 0.040283963 0.07137947
v -0.09686048 0.07094757 0.118886456
v -0.08519967 0.07958521 0.085631564
v -0.08347215 0.08908661 0.092973545
v -0.06101428 0.10161118 0.1033387
v -0.06533311 0.11543141 0.056695476
v -0.08347215 0.08908661 0.092973545
v -0.08519967 0.07958521 0.085631564
v -0.1037706 0.091246024 0.03682892
v -0.124500915 0.040283963 0.02430433
v -0.10161118 0.040283963 0.07137947
v -0.12061398 -0.020611376 0.029486924
v -0.10161118 -0.020611376 0.07785769
v -0.08304025 -0.07114154 0.06403746
v -0.06403746 -0.13074124 -0.025793955
v -0.051512882 -0.1458571 -0.01413314
v -0.040283963 -0.13506006 -0.03961417
v -0.07569827 -0.13376442 -0.00074480474
v -0.049353495 -0.15665415 0.010915995
v -0.07742579 -0.13506006 0.019985512
v -0.029918805 -0.16788307 0.049353495
v -0.061446175 -0.13333252 0.051512882
v -0.025599986 -0.15103969 0.080880865
v -0.057991132 -0.1173529 0.09038226
v -0.009188473 -0.17954388 0.07483451
v 0.020611376 -0.14197016 -0.060344502
v 0.055593804 -0.16745119 -0.021907017
v 0.046956167 -0.14542523 -0.048683688
v 0.016292557 -0.17781636 -0.025362074
v -0.016530469 -0.14024264 -0.057321325
v 0.053002506 -0.18904528 0.010915995
v -0.011347875 -0.17047437 -0.025362074
v -0.040283963 -0.13506006 -0.03961417
v -0.051512882 -0.1458571 -0.01413314
v 0.014996916 -0.21452631 0.00011895597
v -0.022576809 -0.1933641 0.012643531
v -0.049353495 -0.15665415 0.010915995
v 0.04911557 -0.19509163 0.032078207
v 0.083666116 -0.17090625 0.03855644
v 0.08064295 -0.11778478 0.072675094
v 0.045660526 -0.16658743 0.07872145
v 0.014565021 -0.21366255 0.03855644
v 0.01370126 -0.19163658 0.073538855
v -0.013939172 -0.20502491 0.038988307
v -0.029918805 -0.16788307 0.049353495
v -0.009188473 -0.17954388 0.07483451
v 0.053002506 -0.18904528 0.010915995
v 0.083666116 -0.17090625 0.03855644
v 0.089280576 -0.1436977 0.009188473
v 0.055593804 -0.16745119 -0.021907017
v 0.089280576 -0.13808322 -0.019315735
v 0.046956167 -0.14542523 -0.048683688
v 0.083234236 -0.12858182 -0.03961417
v 0.06423144 -0.11519349 -0.06941402
v 0.083234236 -0.12858182 -0.03961417
v 0.07416472 -0.08625741 -0.09187187
v 0.06423144 -0.11519349 -0.06941402
v 0.07977918 -0.076756015 -0.056457564
v 0.112602204 -0.060344502 -0.03702289
v 0.077619776 -0.054298162 -0.09230375
v 0.1221036 -0.024930194 -0.062503904
v 0.082370475 0.006165296 -0.110442795
v 0.11951231 0.034669504 -0.087121174
v 0.083666116 -0.17090625 0.03855644
v 0.09921387 -0.07502848 0.021281168
v 0.089280576 -0.1436977 0.009188473
v 0.08064295 -0.11778478 0.072675094
v 0.07416472 -0.062935784 0.07872145
v 0.11994419 -0.009814322 0.038988307
v 0.088848695 -0.00074480474 0.08347215
v 0.088848695 -0.00074480474 0.08347215
v 0.084098 0.038124546 0.04157962
v 0.11994419 -0.009814322 0.038988307
v 0.11217032 0.045466557 0.025168106
v 0.12296736 0.016530469 0.012211651
v 0.1173529 0.08692719 -0.0020404607
v 0.08452988 0.105066225 0.013075411
v 0.13419628 0.06922005 -0.028385252
v 0.082370475 0.006165296 -0.110442795
v 0.11951231 0.034669504 -0.087121174
v 0.09316752 0.07181133 -0.083234236
v 0.088848695 0.09081413 -0.04393299
v 0.13419628 0.06922005 -0.028385252
v 0.0935994 0.100315526 -0.016292557
v 0.08452988 0.105066225 0.013075411
v 0.0935994 0.100315526 -0.016292557
v 0.1173529 0.08692719 -0.0020404607
v 0.13419628 0.06922005 -0.028385252
v 0.088848695 0.09081413 -0.04393299
v 0.07114154 0.11931832 -0.05904886
v 0.09316752 0.07181133 -0.083234236
v 0.076756015 0.13054727 -0.030544654
v 0.0935994 0.100315526 -0.016292557
v 0.088848695 0.15948336 -0.01413314
v 0.08452988 0.105066225 0.013075411
v 0.083666116 0.17978178 0.012211651
v 0.0041998625 0.18410061 0.08519967
v 0.03270407 0.19101073 0.067924395
v 0.027089596 0.17848615 0.08131273
v 0.0698459 0.17934991 0.046762183
v 0.053002506 0.168121 0.074402615
v 0.088848695 -0.00074480474 0.08347215
v 0.08021106 0.03682892 0.07483451
v 0.084098 0.038124546 0.04157962
v 0.09662257 0.109816924 0.0489216
v 0.0793473 0.09729235 0.08433591
v 0.08452988 0.105066225 0.013075411
v 0.0698459 0.17934991 0.046762183
v 0.083666116 0.17978178 0.012211651
v 0.089280576 -0.13808322 -0.019315735
v 0.112602204 -0.060344502 -0.03702289
v 0.083234236 -0.12858182 -0.03961417
v 0.089280576 -0.1436977 0.009188473
v 0.09921387 -0.07502848 0.021281168
v 0.1367876 -0.017588198 -0.026225835
v 0.1221036 -0.024930194 -0.062503904
v 0.11951231 0.034669504 -0.087121174
v 0.13419628 0.06922005 -0.028385252
v 0.12814996 -0.020179495 0.012643531
v 0.11994419 -0.009814322 0.038988307
v 0.12296736 0.016530469 0.012211651
v -0.124500915 0.12104587 0.004869655
v -0.085631564 0.14436747 0.02430433
v -0.06533311 0.11543141 0.056695476
v -0.1037706 0.091246024 0.03682892
v -0.124500915 0.040283963 0.02430433
v 0.00722304 0.09513296 -0.10957903
v 0.024066433 0.068788156 -0.12944558
v 0.017156318 0.14955007 -0.09575881
v -0.0018464774 0.06101428 -0.12167172
v 0.019315735 0.031646326 -0.116489135
v 0.024066433 0.068788156 -0.12944558
v -0.0018464774 0.06101428 -0.12167172
v 0.045660526 0.031646326 -0.116489135
vt 0.9486536 0.82738805
vt 0.90171206 0.9447418
vt 0.95647717 0.9838597
vt 0.76479936 0.25235468
vt 0.8039173 0.42447352
vt 0.8117409 0.22497213
vt 0.7413286 0.4362089
vt 0.7295932 0.31494334
vt 0.8078291 0.5848569
vt 0.69438714 0.471415
vt 0.659181 0.3853556
vt 0.62397486 0.49488577
vt 0.7491522 0.5926805
vt 0.8039173 0.63962203
vt 0.659181 0.5926805
vt 0.56920975 0.5848569
vt 0.76088756 0.69047534
vt 0.8117409 0.75697577
vt 0.6474456 0.7139461
vt 0.56529796 0.7100343
vt 0.7256814 0.7139461
vt 0.76088756 0.69047534
vt 0.8117409 0.75697577
vt 0.75697577 0.7804465
vt 0.7295932 0.83129984
vt 0.6709164 0.8117409
vt 0.5926805 0.77653474
vt 0.72176963 0.87824136
vt 0.6630928 0.8508588
vt 0.87824136 0.27973723
vt 0.9369182 0.49879757
vt 0.9525654 0.3853556
vt 0.87824136 0.46750322
vt 0.8117409 0.22497213
vt 0.96430075 0.62788665
vt 0.8039173 0.42447352
vt 0.8899767 0.5887687
vt 0.9525654 0.7022107
vt 0.8078291 0.5848569
vt 0.8821531 0.63571024
vt 0.8039173 0.63962203
vt 0.8039173 0.63962203
vt 0.8117409 0.75697577
vt 0.8821531 0.7374168
vt 0.8821531 0.63571024
vt 0.9525654 0.7022107
vt 0.7295932 0.83129984
vt 0.8117409 0.75697577
vt 0.75697577 0.7804465
vt 0.7843583 0.83129984
vt 0.72176963 0.87824136
vt 0.8821531 0.7374168
vt 0.8821531 0.7374168
vt 0.9486536 0.82738805
vt 0.9525654 0.7022107
vt 0.8704178 0.83521163
vt 0.90171206 0.9447418
vt 0.8508588 0.96430075
vt 0.7843583 0.83129984
vt 0.8078291 0.97603613
vt 0.75697577 0.96821254
vt 0.72176963 0.87824136
vt 0.97603613 0.009823584
vt 0.91344744 0.13108914
vt 0.90953565 0.021558959
vt 0.97212434 0.11153017
vt 0.87432957 0.22497213
vt 0.97603613 0.20150138
vt 0.90171206 0.30320796
vt 0.9799479 0.29929617
vt 0.81565267 0.29538438
vt 0.90562385 0.39709097
vt 0.9799479 0.39709097
vt 0.90171206 0.4792386
vt 0.96821254 0.471415
vt 0.83129984 0.471415
vt 0.82738805 0.38926739
vt 0.76871115 0.46750322
vt 0.75697577 0.3853556
vt 0.6709164 0.46359143
vt 0.76088756 0.2875608
vt 0.8000055 0.23670751
vt 0.659181 0.38926739
vt 0.62006307 0.45185605
vt 0.5965923 0.39317918
vt 0.67873996 0.29929617
vt 0.5887687 0.32276693
vt 0.7452404 0.23279572
vt 0.7921819 0.16238347
vt 0.69047534 0.2406193
vt 0.5965923 0.25626647
vt 0.7452404 0.17020705
vt 0.8117409 0.08023583
vt 0.77262294 0.084147625
vt 0.7022107 0.16238347
vt 0.6005041 0.17803064
vt 0.7413286 0.095883
vt 0.90953565 0.021558959
vt 0.7921819 0.16238347
vt 0.8117409 0.08023583
vt 0.91344744 0.13108914
vt 0.8000055 0.23670751
vt 0.87432957 0.22497213
vt 0.81565267 0.29538438
vt 0.4792386 0.921271
vt 0.42447352 0.81565267
vt 0.40491456 0.9486536
vt 0.5183565 0.8117409
vt 0.45576784 0.7139461
vt 0.55356264 0.72176963
vt 0.44794425 0.55356264
vt 0.5340037 0.56920975
vt 0.42838532 0.42838532
vt 0.4870622 0.42056173
vt 0.38926739 0.31885514
vt 0.44794425 0.31885514
vt 0.41664994 0.23279572
vt 0.40491456 0.9486536
vt 0.42447352 0.81565267
vt 0.32667872 0.90562385
vt 0.30711976 0.9916833
vt 0.22888392 0.9955951
vt 0.11153017 0.9525654
vt 0.037206125 0.7921819
vt 0.04502971 0.9290946
vt 0.16629526 0.76479936
vt 0.22888392 0.9955951
vt 0.18194242 0.69047534
vt 0.24844289 0.77262294
vt 0.42447352 0.81565267
vt 0.45576784 0.7139461
vt 0.36579663 0.68656355
vt 0.3345023 0.55356264
vt 0.44794425 0.55356264
vt 0.35797307 0.41664994
vt 0.42838532 0.42838532
vt 0.32667872 0.3423259
vt 0.38926739 0.31885514
vt 0.26800185 0.35014948
vt 0.27973723 0.40491456
vt 0.27582544 0.4753268
vt 0.20932497 0.3345023
vt 0.21323676 0.39709097
vt 0.19758959 0.17411885
vt 0.26409006 0.19758959
vt 0.15847167 0.31885514
vt 0.32667872 0.3423259
vt 0.3462377 0.25235468
vt 0.38926739 0.31885514
vt 0.41664994 0.23279572
vt 0.13108914 0.40100276
vt 0.20150138 0.45185605
vt 0.115441956 0.471415
vt 0.18194242 0.5926805
vt 0.21323676 0.5965923
vt 0.24844289 0.69438714
vt 0.09979479 0.6161513
vt 0.18194242 0.69047534
vt 0.037206125 0.7921819
vt 0.3345023 0.55356264
vt 0.35797307 0.41664994
vt 0.31494334 0.5144447
vt 0.2875608 0.6083277
vt 0.36579663 0.68656355
vt 0.35014948 0.7882701
vt 0.42447352 0.81565267
vt 0.32667872 0.90562385
vt 0.29929617 0.76871115
vt 0.2875608 0.6083277
vt 0.27191365 0.8547706
vt 0.22888392 0.9955951
vt 0.24844289 0.69438714
vt 0.21323676 0.5965923
vt 0.27582544 0.4753268
vt 0.31494334 0.5144447
vt 0.35797307 0.41664994
vt 0.5105329 0.10370658
vt 0.5848569 0.072412245
vt 0.53791547 0.041117918
vt 0.54965085 0.20541318
vt 0.45576784 0.189766
vt 0.6044159 0.19758959
vt 0.6435338 0.07632404
vt 0.5144447 0.32276693
vt 0.4322971 0.31885514
vt 0.6748282 0.1936778
vt 0.68656355 0.072412245
vt 0.62788665 0.31885514
vt 0.63179845 0.4322971
vt 0.5144447 0.44794425
vt 0.42447352 0.45576784
vt 0.6083277 0.56138617
vt 0.5144447 0.54182726
vt 0.41664994 0.54182726
vt 0.5300919 0.63962203
vt 0.45576784 0.62788665
vt 0.62397486 0.6709164
vt 0.72176963 0.6630928
vt 0.659181 0.5926805
vt 0.7100343 0.4362089
vt 0.63179845 0.4322971
vt 0.6083277 0.56138617
vt 0.62788665 0.31885514
vt 0.7139461 0.31103155
vt 0.7882701 0.19758959
vt 0.75697577 0.064588666
vt 0.87432957 0.19758959
vt 0.8391234 0.08805942
vt 0.8547706 0.30711976
vt 0.81956446 0.30711976
vt 0.8860649 0.42838532
vt 0.81565267 0.4362089
vt 0.921271 0.4870622
vt 0.8547706 0.5222683
vt 0.87432957 0.54182726
vt 0.90562385 0.5965923
vt 0.8039173 0.62006307
vt 0.87432957 0.54182726
vt 0.8547706 0.5222683
vt 0.7413286 0.54573905
vt 0.7100343 0.4362089
vt 0.81565267 0.4362089
vt 0.7139461 0.31103155
vt 0.81956446 0.30711976
vt 0.7882701 0.19758959
vt 0.10370658 0.44403246
vt 0.13891272 0.40882635
vt 0.06850046 0.3736202
vt 0.17411885 0.4792386
vt 0.21323676 0.40491456
vt 0.23670751 0.4870622
vt 0.32276693 0.35406128
vt 0.32667872 0.44403246
vt 0.41664994 0.3462377
vt 0.4401207 0.4362089
vt 0.40100276 0.29538438
vt 0.013735375 0.19758959
vt 0.12717734 0.09979479
vt 0.0489415 0.12717734
vt 0.115441956 0.21323676
vt 0.021558959 0.30320796
vt 0.22497213 0.11153017
vt 0.11153017 0.29147258
vt 0.06850046 0.3736202
vt 0.13891272 0.40882635
vt 0.18585421 0.22106035
vt 0.22106035 0.33059052
vt 0.21323676 0.40491456
vt 0.283649 0.12326554
vt 0.30711976 0.02547075
vt 0.40491456 0.037206125
vt 0.41664994 0.13891272
vt 0.29929617 0.22497213
vt 0.39709097 0.22888392
vt 0.29538438 0.30711976
vt 0.32276693 0.35406128
vt 0.40100276 0.29538438
vt 0.22497213 0.11153017
vt 0.30711976 0.02547075
vt 0.22106035 0.0059117917
vt 0.12717734 0.09979479
vt 0.13891272 0.002
vt 0.0489415 0.12717734
vt 0.084147625 0.013735375
vt 0.013735375 0.041117918
vt 0.83129984 0.33059052
vt 0.9525654 0.41273814
vt 0.8938885 0.27191365
vt 0.87824136 0.4401207
vt 0.82347625 0.4870622
vt 0.95647717 0.4831504
vt 0.87824136 0.56529796
vt 0.9995069 0.6161513
vt 0.9369182 0.68265176
vt 0.6630928 0.24844289
vt 0.7022107 0.45185605
vt 0.7256814 0.30320796
vt 0.5926805 0.36188483
vt 0.58094513 0.471415
vt 0.6709164 0.5965923
vt 0.57312155 0.6122395
vt 0.57312155 0.6122395
vt 0.6670046 0.69829893
vt 0.6709164 0.5965923
vt 0.7022107 0.7139461
vt 0.7256814 0.6513574
vt 0.75697577 0.7960937
vt 0.7295932 0.846947
vt 0.8117409 0.753064
vt 0.9995069 0.6161513
vt 0.9369182 0.68265176
vt 0.9330064 0.77653474
vt 0.8508588 0.81956446
vt 0.8117409 0.753064
vt 0.7921819 0.83521163
vt 0.7295932 0.846947
vt 0.7921819 0.83521163
vt 0.75697577 0.7960937
vt 0.8117409 0.753064
vt 0.8508588 0.81956446
vt 0.8899767 0.90562385
vt 0.9330064 0.77653474
vt 0.83129984 0.921271
vt 0.7921819 0.83521163
vt 0.7921819 0.96038896
vt 0.7295932 0.846947
vt 0.733505 0.9877715
vt 0.8078291 0.97603613
vt 0.8704178 0.9995069
vt 0.8508588 0.96430075
vt 0.95647717 0.9838597
vt 0.90171206 0.9447418
vt 0.57312155 0.6122395
vt 0.5926805 0.7022107
vt 0.6670046 0.69829893
vt 0.6474456 0.8625942
vt 0.56529796 0.8430352
vt 0.7295932 0.846947
vt 0.6552692 0.9916833
vt 0.733505 0.9877715
vt 0.7843583 0.31494334
vt 0.82347625 0.4870622
vt 0.83129984 0.33059052
vt 0.7256814 0.30320796
vt 0.7022107 0.45185605
vt 0.8000055 0.5887687
vt 0.87824136 0.56529796
vt 0.9369182 0.68265176
vt 0.8117409 0.753064
vt 0.72176963 0.57703334
vt 0.6709164 0.5965923
vt 0.7256814 0.6513574
vt 0.659181 0.5926805
vt 0.72176963 0.6630928
vt 0.8039173 0.62006307
vt 0.7413286 0.54573905
vt 0.7100343 0.4362089
vt 0.27191365 0.8547706
vt 0.24844289 0.77262294
vt 0.22888392 0.9955951
vt 0.29929617 0.76871115
vt 0.24844289 0.69438714
vt 0.24844289 0.77262294
vt 0.29929617 0.76871115
vt 0.18194242 0.69047534
vn 0.7397733 0.3662647 0.56443393
vn 0.7397733 0.3662647 0.56443393
vn 0.7397733 0.3662647 0.56443393
vn -0.050253868 -0.36056024 0.93138117
vn -0.018652797 -0.26575696 0.96385956
vn -0.018652797 -0.36056024 0.9325494
vn -0.1450572 -0.26575696 0.9530643
vn -0.3978659 -0.36056024 0.84362257
vn -0.23986042 -0.20255482 0.9494412
vn -0.11345601 -0.2341559 0.96555614
vn -0.018652797 -0.29735804 0.9545838
vn -0.2714615 -0.26575696 0.92503077
vn -0.08185494 -0.20255482 0.9758439
vn -0.4926691 -0.26575696 0.8286437
vn -0.23986042 -0.2341559 0.9421454
vn -0.5242702 -0.20255482 0.8271109
vn -0.5242702 -0.17095369 0.8342156
vn -0.5242702 0.050253868 0.85006785
vn -0.2714615 -0.07615048 0.959432
vn -0.55587125 -0.13935262 0.81950474
vn 0.012948275 -0.044549346 0.99892324
vn 0.2341559 -0.3921613 0.8895957
vn -0.17665827 0.20825934 0.96198744
vn -0.17665827 0.46106803 0.86960226
vn 0.012948275 0.3978659 0.9173522
vn -0.17665827 0.42946696 0.8856354
vn -0.42946696 0.11345601 0.89592737
vn -0.46106803 0.77707887 0.42844453
vn -0.46106803 0.77707887 0.42844453
vn 0.32895917 -0.17095369 0.92874146
vn 0.4553635 -0.20255482 0.86695766
vn 0.29735804 -0.07615048 0.9517244
vn 0.3921613 -0.20255482 0.89731884
vn 0.36056024 -0.20255482 0.91047674
vn 0.67657113 -0.07615048 0.73242927
vn 0.3921613 -0.2341559 0.8895957
vn 0.5501667 -0.26575696 0.7916374
vn 0.7397733 0.018652797 0.67259765
vn 0.42376238 -0.3921613 0.8164772
vn 0.5501667 -0.32895917 0.7675301
vn 0.29735804 -0.5817678 0.7570498
vn 0.5817678 0.018652797 0.81314105
vn 0.5817678 0.018652797 0.81314105
vn 0.67657113 0.050253868 0.7346605
vn 0.64497 0.050253868 0.76255375
vn 0.83457655 0.11345601 0.5390823
vn 0.07615048 0.6506746 0.75552875
vn 0.4553635 0.7454778 0.48673087
vn 0.012948275 0.6506746 0.75924623
vn 0.20255482 0.7138767 0.67033696
vn 0.2341559 0.6506746 0.7223528
vn 0.5817678 0.7454778 0.3252831
vn 0.5501667 0.17665827 0.81615466
vn 0.51856565 0.17665827 0.8365892
vn 0.64497 0.1450572 0.7503147
vn 0.32895917 0.23986042 0.9133744
vn 0.29735804 0.23986042 0.92414564
vn 0.2341559 0.20825934 0.949631
vn 0.10775155 0.23986042 0.9648091
vn 0.10775155 0.20825934 0.97212017
vn -0.11345601 0.23986042 0.9641549
vn -0.11345601 0.23986042 0.9641549
vn -0.46106803 0.77707887 0.42844453
vn -0.3978659 0.7138767 0.5762662
vn -0.46106803 0.77707887 0.42844453
vn -0.46106803 0.7138767 0.52706385
vn -0.4926691 0.80867994 0.32142475
vn -0.42946696 0.80867994 0.40198866
vn -0.5242702 0.77707887 -0.34826607
vn -0.3978659 0.8718821 -0.28552464
vn -0.3978659 0.7454778 -0.5347575
vn -0.4926691 0.7138767 -0.49765167
vn -0.30306256 0.80867994 -0.5041724
vn -0.5242702 0.77707887 -0.34826607
vn -0.33466363 0.8718821 -0.35752183
vn -0.46106803 0.80867994 -0.36531222
vn -0.42946696 0.7138767 -0.5531168
vn 0.29735804 0.840281 -0.45332772
vn 0.26575696 0.7138767 -0.6478837
vn 0.6133689 0.68227565 -0.39784235
vn 0.10775155 0.77707887 -0.62011135
vn -0.45455417 0.89071906 -0
vn 0.5817678 0.5242702 -0.6218416
vn 0.64497 0.6506746 -0.40079457
vn 0.5817678 0.42946696 -0.6907274
vn 0.5501667 0.5874723 -0.59345835
vn 0.6133689 0.4926691 -0.6172971
vn -0.018652797 0.9982865 -0.055463463
vn -0.55587125 0.7454778 0.3677907
vn 0.54777396 0.83662647 -0
vn 0.67657113 0.7138767 -0.18064195
vn -0.11345601 0.8718821 0.476392
vn -0.5874723 0.68227565 0.43517372
vn -0.3662647 0.7454778 0.5568779
vn 0.48696458 0.77707887 0.3987655
vn 0.6133689 0.68227565 0.39784235
vn 0.36056024 0.6506746 0.6682955
vn -0.840281 0.42946696 0.33088663
vn -0.80867994 0.42946696 0.40198863
vn -0.840281 0.42946696 0.33088663
vn -0.840281 0.42946696 0.33088663
vn -0.840281 0.46106803 0.28520888
vn -0.840281 0.46106803 0.28520888
vn -0.8718821 0.46106803 -0.16503902
vn -0.33466363 0.6190734 -0.71045643
vn -0.33466363 0.3978659 -0.8542265
vn -0.33466363 0.6190734 -0.71045643
vn -0.30306256 0.20825934 -0.92993605
vn -0.1450572 -0.17095369 -0.9745426
vn -0.1450572 -0.17095369 -0.9745426
vn -0.1450572 -0.36056024 -0.9213874
vn -0.11345601 -0.29735804 -0.948001
vn -0.3978659 -0.48696458 -0.77753985
vn -0.3662647 -0.48696458 -0.7929159
vn -0.5874723 -0.48696458 -0.6463294
vn -0.5874723 -0.48696458 -0.6463294
vn -0.5874723 -0.64497 -0.4887637
vn -0.6506746 0.5874723 -0.4811433
vn -0.6506746 0.5874723 -0.4811433
vn -0.6190734 0.6190734 -0.48321447
vn -0.3662647 0.68227565 -0.6327323
vn 0.07615048 0.68227565 -0.7271183
vn 0.5501667 0.46106803 -0.6962276
vn 0.6133689 0.46106803 -0.64124477
vn 0.5817678 0.5242702 -0.6218416
vn 0.5817678 0.33466363 -0.741314
vn 0.51856565 0.42946696 -0.73935634
vn 0.5501667 -0.20255482 -0.8101161
vn 0.51856565 0.3978659 -0.7568305
vn -0.5874723 -0.012948275 -0.8091406
vn -0.5874723 -0.2341559 -0.77462715
vn -0.5874723 -0.29735804 -0.75263166
vn -0.5874723 -0.32895917 -0.739366
vn -0.5874723 -0.32895917 -0.739366
vn -0.4926691 -0.36056024 -0.79200596
vn -0.55587125 -0.36056024 -0.7490016
vn -0.3978659 -0.36056024 -0.84362257
vn -0.6190734 -0.42376238 -0.661191
vn 0.10775155 -0.6133689 -0.78241175
vn 0.044549346 -0.3921613 -0.9188171
vn 0.17095369 -0.36056024 -0.91693574
vn 0.32895917 -0.6133689 -0.7180282
vn 0.29735804 -0.42376238 -0.8555721
vn 0.29735804 -0.7397733 -0.603584
vn 0.10775155 -0.8029754 -0.5861912
vn 0.32895917 -0.6133689 -0.7180282
vn -0.11345601 -0.83457655 -0.5390823
vn -0.20825934 -0.8029754 -0.55844295
vn -0.4926691 -0.7081722 -0.50573635
vn -0.5242702 -0.7081722 -0.47289842
vn 0.32895917 -0.42376238 -0.84392613
vn 0.36056024 -0.32895917 -0.87280136
vn 0.48696458 -0.26575696 -0.83200884
vn 0.3921613 -0.07615048 -0.91673917
vn 0.26575696 -0.13935262 -0.9539152
vn 0.044549346 0.23986042 -0.9697847
vn 0.42376238 0.08185494 -0.9020672
vn 0.29735804 0.2714615 -0.9153616
vn 0.32895917 0.2714615 -0.90448576
vn 0.67657113 -0.20255482 -0.70797104
vn 0.64497 -0.4553635 -0.6137245
vn 0.67657113 -0.42376238 -0.6022266
vn 0.7081722 0.050253868 -0.704249
vn 0.7081722 0.2714615 -0.65176743
vn 0.3921613 0.1450572 -0.90838754
vn 0.3921613 0.1450572 -0.90838754
vn 0.42376238 0.018652797 -0.90558136
vn 0.044549346 -0.012948275 -0.99892324
vn -0.23986042 0.018652797 -0.9706282
vn 0.3921613 0.050253868 -0.9185228
vn 0.5817678 0.11345601 -0.805403
vn 0.07615048 0.050253868 -0.99582916
vn -0.2714615 0.018652797 -0.96226853
vn -0.33466363 -0.10775155 -0.936157
vn -0.33466363 -0.10775155 -0.936157
vn -0.3662647 -0.13935262 -0.9200169
vn -0.7138767 -0.4553635 -0.5320001
vn -0.7138767 -0.48696458 -0.50323504
vn -0.46106803 -0.67657113 -0.574167
vn -0.840281 -0.42376238 -0.33816165
vn -0.7138767 -0.5501667 -0.4332397
vn -0.9034833 -0.32895917 -0.27477962
vn -0.8718821 -0.42376238 -0.24545278
vn -0.93508434 -0.29735804 -0.19286126
vn -0.840281 -0.32895917 -0.43094513
vn -0.93508434 -0.32895917 0.13192093
vn -0.9034833 -0.32895917 0.27477962
vn -0.9666854 -0.20255482 0.15649562
vn -0.9982865 -0.044549346 0.037940267
vn -0.9982865 0.018652797 -0.055463333
vn -0.9034833 0.050253868 -0.42566714
vn -0.9034833 0.33466363 -0.2678026
vn -0.9034833 0.3662647 -0.22263901
vn -0.840281 0.3978659 -0.36828056
vn -0.77707887 0.4926691 -0.3916958
vn -0.6190734 0.6506746 -0.43973932
vn -0.7454778 0.5874723 -0.31486365
vn -0.7138767 0.6506746 -0.25884864
vn -0.840281 0.42946696 -0.33088663
vn -0.9666854 -0.10775155 -0.23218298
vn -0.9666854 -0.07615048 -0.24437766
vn -0.9666854 0.018652797 -0.2552869
vn -0.93508434 -0.17095369 -0.3104708
vn -0.9666854 -0.2341559 -0.10339415
vn -0.9034833 -0.36056024 0.23176341
vn -0.9034833 -0.32895917 0.27477962
vn -0.9034833 -0.3921613 0.1729956
vn -0.9034833 -0.36056024 0.23176341
vn -0.9666854 -0.2341559 0.10339415
vn -0.9666854 -0.2341559 0.10339415
vn -0.9666854 0.20825934 -0.14881995
vn -0.9666854 0.1450572 -0.21089746
vn -0.9031564 0.42931157 -0
vn -0.9034833 0.3978659 -0.15943868
vn -0.70710677 0.70710677 -0
vn -0.55587125 0.77707887 0.29522124
vn -0.6190734 0.68227565 0.3889062
vn -0.7454778 0.6506746 0.14451794
vn -0.8718821 0.3662647 0.32507196
vn -0.840281 0.33466363 0.4265303
vn -0.9034833 0.11345601 0.41333485
vn -0.9034833 0.11345601 0.41333485
vn -0.9034833 -0.07615048 0.42180455
vn -0.9034833 -0.10775155 0.4148585
vn -0.840281 -0.3921613 0.37434924
vn -0.4926691 -0.7397733 -0.45827132
vn -0.55587125 -0.77137434 -0.3098205
vn -0.4926691 -0.7397733 -0.45827132
vn -0.55587125 -0.77137434 -0.3098205
vn -0.6447711 -0.76437575 -0
vn -0.6447711 -0.76437575 -0
vn -0.6506746 -0.67657113 0.34478125
vn -0.6506746 -0.7081722 0.27407065
vn -0.6506746 -0.64497 0.4007946
vn -0.6506746 -0.67657113 0.34478125
vn -0.7454778 -0.51856565 0.41875115
vn 0.012948275 -0.7081722 -0.705921
vn 0.32895917 -0.67657113 -0.65881515
vn 0.2341559 -0.7081722 -0.6660804
vn 0.044549346 -0.7081722 -0.7046329
vn -0.33466363 -0.7081722 -0.6216851
vn 0.48696458 -0.77137434 -0.40969145
vn -0.42946696 -0.67657113 -0.5981719
vn -0.55587125 -0.64497 -0.5244243
vn -0.5874723 -0.64497 -0.4887637
vn 0.044549346 -0.8661776 -0.4977466
vn -0.68227565 -0.7081722 -0.18163718
vn -0.7454778 -0.6133689 -0.26084748
vn 0.5501667 -0.7397733 0.38736555
vn 0.5817678 -0.5817678 0.56841224
vn 0.5817678 -0.5501667 0.5990516
vn 0.5501667 -0.6133689 0.5666526
vn 0.13935262 -0.9609809 0.23894896
vn 0.20255482 -0.8029754 0.5605373
vn -0.5874723 -0.77137434 0.24465863
vn -0.840281 -0.48696458 0.23831354
vn -0.46106803 -0.7081722 0.534704
vn 0.7081722 -0.64497 -0.28723827
vn 0.7081722 -0.5817678 -0.40004793
vn 0.7081722 -0.64497 -0.28723827
vn 0.64497 -0.64497 -0.40991145
vn 0.6133689 -0.64497 -0.45584238
vn 0.48696458 -0.64497 -0.5889645
vn 0.48696458 -0.64497 -0.5889645
vn 0.4553635 -0.67657113 -0.5787016
vn 0.83457655 -0.26575696 -0.48255074
vn 0.8661776 -0.3921613 -0.3097512
vn 0.8977787 -0.26575696 -0.35123593
vn 0.8029754 -0.36056024 -0.47458068
vn 0.6133689 -0.4553635 -0.6453082
vn 0.7397733 -0.36056024 -0.5680949
vn 0.67657113 -0.32895917 -0.6588151
vn 0.64497 -0.26575696 -0.7165103
vn 0.64497 -0.26575696 -0.7165103
vn 0.9609809 -0.10775155 0.25476527
vn 0.8661776 -0.20255482 0.45684555
vn 0.99028814 -0.13903058 -0
vn 0.9609809 -0.044549346 0.27300385
vn 0.83457655 -0.2341559 0.49865118
vn 0.8029754 -0.29735804 0.5165353
vn 0.8029754 -0.29735804 0.5165353
vn 0.7397733 0.5242702 0.4217538
vn 0.5501667 0.3978659 0.7341794
vn 0.7397733 0.42946696 0.5179707
vn 0.67657113 0.30306256 0.67112184
vn 0.8977787 0.17665827 0.4034666
vn 0.7081722 0.30306256 0.6376874
vn 0.48696458 0.3978659 0.77753985
vn 0.8977787 0.17665827 0.4034666
vn 0.32895917 0.30306256 -0.894393
vn 0.4553635 0.5242702 -0.71957266
vn 0.67657113 0.55587125 -0.48296857
vn 0.5501667 0.7138767 -0.4332397
vn 0.51856565 0.7138767 -0.47060567
vn 0.48696458 0.77707887 -0.3987655
vn 0.48696458 0.8718821 0.051837213
vn 0.51856565 0.840281 -0.15816921
vn 0.54777396 0.83662647 -0
vn 0.5501667 0.80867994 -0.2082146
vn 0.8661776 0.3662647 -0.3399801
vn 0.8661776 0.42946696 -0.25552773
vn 0.8661776 0.42946696 -0.25552773
vn 0.8661776 0.30306256 -0.397353
vn 0.9894894 0.14460525 -0
vn 0.99258196 0.08185494 0.08989342
vn 0.9609809 0.050253868 0.27201155
vn 0.9609809 0.050253868 0.27201155
vn -0.3662647 0.7454778 0.5568779
vn 0.36056024 0.6506746 0.6682955
vn 0.42376238 0.6190734 0.66119105
vn 0.6133689 0.68227565 0.39784235
vn 0.48696458 0.6190734 0.6161279
vn 0.9609809 0.23986042 0.13777778
vn 0.9609809 -0.044549346 0.27300385
vn 0.99258196 -0.07615048 0.094774276
vn 0.99258196 0.08185494 0.08989342
vn 0.9293798 -0.012948275 0.3688977
vn 0.99258196 0.08185494 -0.08989342
vn 0.9609809 0.20825934 0.18205434
vn 0.98452854 0.17522493 -0
vn 0.9609809 -0.2341559 0.14726423
vn 0.9293798 -0.36056024 0.0790537
vn 0.83457655 -0.36056024 -0.41650727
vn 0.9609809 -0.20255482 0.18838067
vn 0.9293798 -0.32895917 0.16744864
vn 0.99028814 -0.13903058 -0
vn 0.9609809 -0.07615048 -0.2659264
vn 0.9609809 -0.012948275 -0.27631155
vn 0.99258196 0.018652797 -0.12013797
vn 0.9293798 -0.26575696 0.25617653
vn 0.8977787 -0.20255482 0.39110738
vn 0.9609809 0.08185494 0.26422623
vn -0.6506746 0.30306256 0.69625837
vn -0.5874723 0.3662647 0.72161376
vn -0.5874723 0.3662647 0.72161376
vn -0.6506746 0.30306256 0.69625837
vn -0.7454778 0.1450572 0.6505546
vn -0.46106803 0.30306256 -0.83400804
vn -0.3978659 0.3662647 -0.8411616
vn -0.4926691 0.30306256 -0.81573904
vn -0.3662647 0.3978659 -0.84116167
vn -0.050253868 -0.32895917 -0.94300604
vn -0.11345601 -0.29735804 -0.948001
vn -0.20825934 -0.29735804 -0.9317758
vn 0.012948275 -0.32895917 -0.94425535
g env_asteroid_01_mesh_0
f 3/3/3 2/2/2 1/1/1
f 6/6/6 5/5/5 4/4/4
f 5/5/5 7/7/7 4/4/4
f 4/4/4 7/7/7 8/8/8
f 5/5/5 9/9/9 7/7/7
f 7/7/7 10/10/10 8/8/8
f 8/8/8 10/10/10 11/11/11
f 10/10/10 12/12/12 11/11/11
f 9/9/9 13/13/13 7/7/7
f 7/7/7 13/13/13 10/10/10
f 9/9/9 14/14/14 13/13/13
f 10/10/10 15/15/15 12/12/12
f 13/13/13 15/15/15 10/10/10
f 15/15/15 16/16/16 12/12/12
f 14/14/14 17/17/17 13/13/13
f 14/14/14 18/18/18 17/17/17
f 15/15/15 19/19/19 16/16/16
f 19/19/19 20/20/20 16/16/16
f 13/13/13 21/21/21 15/15/15
f 21/21/21 19/19/19 15/15/15
f 22/22/22 21/21/21 13/13/13
f 22/22/22 23/23/23 21/21/21
f 23/23/23 24/24/24 21/21/21
f 24/24/24 25/25/25 21/21/21
f 21/21/21 25/25/25 19/19/19
f 19/19/19 26/26/26 20/20/20
f 25/25/25 26/26/26 19/19/19
f 26/26/26 27/27/27 20/20/20
f 25/25/25 28/28/28 26/26/26
f 26/26/26 28/28/28 27/27/27
f 28/28/28 29/29/29 27/27/27
f 32/32/32 31/31/31 30/30/30
f 31/31/31 33/33/33 30/30/30
f 30/30/30 33/33/33 34/34/34
f 31/31/31 35/35/35 33/33/33
f 33/33/33 36/36/36 34/34/34
f 35/35/35 37/37/37 33/33/33
f 33/33/33 37/37/37 36/36/36
f 35/35/35 38/38/38 37/37/37
f 37/37/37 39/39/39 36/36/36
f 38/38/38 40/40/40 37/37/37
f 37/37/37 40/40/40 39/39/39
f 40/40/40 41/41/41 39/39/39
f 44/44/44 43/43/43 42/42/42
f 45/45/45 44/44/44 42/42/42
f 46/46/46 44/44/44 45/45/45
f 49/49/49 48/48/48 47/47/47
f 48/48/48 50/50/50 47/47/47
f 47/47/47 50/50/50 51/51/51
f 52/52/52 50/50/50 48/48/48
f 55/55/55 54/54/54 53/53/53
f 54/54/54 56/56/56 53/53/53
f 54/54/54 57/57/57 56/56/56
f 57/57/57 58/58/58 56/56/56
f 53/53/53 56/56/56 59/59/59
f 56/56/56 58/58/58 59/59/59
f 58/58/58 60/60/60 59/59/59
f 59/59/59 60/60/60 61/61/61
f 62/62/62 59/59/59 61/61/61
f 65/65/65 64/64/64 63/63/63
f 64/64/64 66/66/66 63/63/63
f 64/64/64 67/67/67 66/66/66
f 67/67/67 68/68/68 66/66/66
f 67/67/67 69/69/69 68/68/68
f 69/69/69 70/70/70 68/68/68
f 71/71/71 69/69/69 67/67/67
f 69/69/69 72/72/72 70/70/70
f 72/72/72 73/73/73 70/70/70
f 72/72/72 74/74/74 73/73/73
f 74/74/74 75/75/75 73/73/73
f 76/76/76 74/74/74 72/72/72
f 77/77/77 72/72/72 69/69/69
f 77/77/77 76/76/76 72/72/72
f 71/71/71 77/77/77 69/69/69
f 78/78/78 76/76/76 77/77/77
f 79/79/79 78/78/78 77/77/77
f 79/79/79 77/77/77 71/71/71
f 80/80/80 78/78/78 79/79/79
f 81/81/81 79/79/79 71/71/71
f 81/81/81 71/71/71 82/82/82
f 83/83/83 80/80/80 79/79/79
f 83/83/83 79/79/79 81/81/81
f 84/84/84 80/80/80 83/83/83
f 85/85/85 84/84/84 83/83/83
f 85/85/85 83/83/83 86/86/86
f 86/86/86 83/83/83 81/81/81
f 87/87/87 85/85/85 86/86/86
f 88/88/88 81/81/81 82/82/82
f 86/86/86 81/81/81 88/88/88
f 88/88/88 82/82/82 89/89/89
f 87/87/87 86/86/86 90/90/90
f 90/90/90 86/86/86 88/88/88
f 91/91/91 87/87/87 90/90/90
f 92/92/92 88/88/88 89/89/89
f 90/90/90 88/88/88 92/92/92
f 92/92/92 89/89/89 93/93/93
f 94/94/94 92/92/92 93/93/93
f 91/91/91 90/90/90 95/95/95
f 95/95/95 90/90/90 92/92/92
f 95/95/95 92/92/92 94/94/94
f 96/96/96 91/91/91 95/95/95
f 97/97/97 95/95/95 94/94/94
f 96/96/96 95/95/95 97/97/97
f 100/100/100 99/99/99 98/98/98
f 99/99/99 101/101/101 98/98/98
f 99/99/99 102/102/102 101/101/101
f 102/102/102 103/103/103 101/101/101
f 102/102/102 104/104/104 103/103/103
f 107/107/107 106/106/106 105/105/105
f 106/106/106 108/108/108 105/105/105
f 106/106/106 109/109/109 108/108/108
f 109/109/109 110/110/110 108/108/108
f 109/109/109 111/111/111 110/110/110
f 111/111/111 112/112/112 110/110/110
f 111/111/111 113/113/113 112/112/112
f 113/113/113 114/114/114 112/112/112
f 113/113/113 115/115/115 114/114/114
f 115/115/115 116/116/116 114/114/114
f 115/115/115 117/117/117 116/116/116
f 120/120/120 119/119/119 118/118/118
f 121/121/121 120/120/120 118/118/118
f 122/122/122 120/120/120 121/121/121
f 125/125/125 124/124/124 123/123/123
f 124/124/124 126/126/126 123/123/123
f 123/123/123 126/126/126 127/127/127
f 124/124/124 128/128/128 126/126/126
f 126/126/126 129/129/129 127/127/127
f 126/126/126 128/128/128 129/129/129
f 132/132/132 131/131/131 130/130/130
f 132/132/132 133/133/133 131/131/131
f 133/133/133 134/134/134 131/131/131
f 133/133/133 135/135/135 134/134/134
f 135/135/135 136/136/136 134/134/134
f 135/135/135 137/137/137 136/136/136
f 137/137/137 138/138/138 136/136/136
f 139/139/139 137/137/137 135/135/135
f 140/140/140 139/139/139 135/135/135
f 141/141/141 140/140/140 135/135/135
f 142/142/142 139/139/139 140/140/140
f 143/143/143 140/140/140 141/141/141
f 143/143/143 142/142/142 140/140/140
f 142/142/142 144/144/144 139/139/139
f 144/144/144 145/145/145 139/139/139
f 146/146/146 144/144/144 142/142/142
f 146/146/146 142/142/142 143/143/143
f 139/139/139 145/145/145 147/147/147
f 145/145/145 148/148/148 147/147/147
f 148/148/148 149/149/149 147/147/147
f 150/150/150 149/149/149 148/148/148
f 151/151/151 146/146/146 143/143/143
f 151/151/151 143/143/143 152/152/152
f 152/152/152 143/143/143 141/141/141
f 153/153/153 151/151/151 152/152/152
f 154/154/154 152/152/152 141/141/141
f 153/153/153 152/152/152 154/154/154
f 155/155/155 154/154/154 141/141/141
f 156/156/156 154/154/154 155/155/155
f 157/157/157 153/153/153 154/154/154
f 158/158/158 154/154/154 156/156/156
f 157/157/157 154/154/154 158/158/158
f 159/159/159 157/157/157 158/158/158
f 162/162/162 161/161/161 160/160/160
f 163/163/163 162/162/162 160/160/160
f 163/163/163 160/160/160 164/164/164
f 163/163/163 164/164/164 165/165/165
f 165/165/165 164/164/164 166/166/166
f 167/167/167 165/165/165 166/166/166
f 168/168/168 165/165/165 167/167/167
f 168/168/168 169/169/169 165/165/165
f 170/170/170 168/168/168 167/167/167
f 171/171/171 170/170/170 167/167/167
f 168/168/168 172/172/172 169/169/169
f 173/173/173 169/169/169 172/172/172
f 173/173/173 174/174/174 169/169/169
f 169/169/169 174/174/174 175/175/175
f 175/175/175 174/174/174 176/176/176
f 179/179/179 178/178/178 177/177/177
f 178/178/178 180/180/180 177/177/177
f 180/180/180 181/181/181 177/177/177
f 182/182/182 180/180/180 178/178/178
f 183/183/183 182/182/182 178/178/178
f 180/180/180 184/184/184 181/181/181
f 184/184/184 185/185/185 181/181/181
f 186/186/186 182/182/182 183/183/183
f 187/187/187 186/186/186 183/183/183
f 182/182/182 188/188/188 180/180/180
f 188/188/188 184/184/184 180/180/180
f 186/186/186 188/188/188 182/182/182
f 188/188/188 189/189/189 184/184/184
f 184/184/184 190/190/190 185/185/185
f 189/189/189 190/190/190 184/184/184
f 190/190/190 191/191/191 185/185/185
f 189/189/189 192/192/192 190/190/190
f 190/190/190 193/193/193 191/191/191
f 192/192/192 193/193/193 190/190/190
f 193/193/193 194/194/194 191/191/191
f 193/193/193 195/195/195 194/194/194
f 195/195/195 196/196/196 194/194/194
f 197/197/197 195/195/195 193/193/193
f 192/192/192 197/197/197 193/193/193
f 198/198/198 197/197/197 192/192/192
f 199/199/199 198/198/198 192/192/192
f 200/200/200 199/199/199 192/192/192
f 200/200/200 202/202/202 201/201/201
f 200/200/200 201/201/201 203/203/203
f 204/204/204 200/200/200 203/203/203
f 186/186/186 204/204/204 203/203/203
f 205/205/205 204/204/204 186/186/186
f 205/205/205 186/186/186 187/187/187
f 206/206/206 205/205/205 187/187/187
f 207/207/207 205/205/205 206/206/206
f 208/208/208 207/207/207 206/206/206
f 207/207/207 209/209/209 205/205/205
f 209/209/209 210/210/210 205/205/205
f 209/209/209 211/211/211 210/210/210
f 211/211/211 212/212/212 210/210/210
f 211/211/211 213/213/213 212/212/212
f 213/213/213 214/214/214 212/212/212
f 213/213/213 215/215/215 214/214/214
f 215/215/215 213/213/213 216/216/216
f 218/218/218 216/216/216 217/217/217
f 218/218/218 217/217/217 219/219/219
f 219/219/219 217/217/217 220/220/220
f 219/219/219 220/220/220 221/221/221
f 222/222/222 219/219/219 221/221/221
f 222/222/222 221/221/221 223/223/223
f 224/224/224 222/222/222 223/223/223
f 225/225/225 224/224/224 223/223/223
f 228/228/228 227/227/227 226/226/226
f 227/227/227 229/229/229 226/226/226
f 227/227/227 230/230/230 229/229/229
f 230/230/230 231/231/231 229/229/229
f 230/230/230 232/232/232 231/231/231
f 232/232/232 233/233/233 231/231/231
f 232/232/232 234/234/234 233/233/233
f 234/234/234 235/235/235 233/233/233
f 236/236/236 234/234/234 232/232/232
f 239/239/239 238/238/238 237/237/237
f 238/238/238 240/240/240 237/237/237
f 237/237/237 240/240/240 241/241/241
f 238/238/238 242/242/242 240/240/240
f 240/240/240 243/243/243 241/241/241
f 241/241/241 243/243/243 244/244/244
f 243/243/243 245/245/245 244/244/244
f 242/242/242 246/246/246 240/240/240
f 240/240/240 246/246/246 243/243/243
f 243/243/243 247/247/247 245/245/245
f 246/246/246 247/247/247 243/243/243
f 247/247/247 248/248/248 245/245/245
f 242/242/242 249/249/249 246/246/246
f 250/250/250 249/249/249 242/242/242
f 250/250/250 251/251/251 249/249/249
f 251/251/251 252/252/252 249/249/249
f 249/249/249 253/253/253 246/246/246
f 249/249/249 252/252/252 253/253/253
f 246/246/246 253/253/253 247/247/247
f 252/252/252 254/254/254 253/253/253
f 247/247/247 255/255/255 248/248/248
f 253/253/253 255/255/255 247/247/247
f 253/253/253 254/254/254 255/255/255
f 255/255/255 256/256/256 248/248/248
f 254/254/254 257/257/257 255/255/255
f 255/255/255 257/257/257 256/256/256
f 260/260/260 259/259/259 258/258/258
f 260/260/260 258/258/258 261/261/261
f 262/262/262 260/260/260 261/261/261
f 262/262/262 261/261/261 263/263/263
f 264/264/264 262/262/262 263/263/263
f 265/265/265 264/264/264 263/263/263
f 268/268/268 267/267/267 266/266/266
f 267/267/267 269/269/269 266/266/266
f 266/266/266 269/269/269 270/270/270
f 267/267/267 271/271/271 269/269/269
f 269/269/269 272/272/272 270/270/270
f 271/271/271 272/272/272 269/269/269
f 271/271/271 273/273/273 272/272/272
f 273/273/273 274/274/274 272/272/272
f 277/277/277 276/276/276 275/275/275
f 276/276/276 278/278/278 275/275/275
f 276/276/276 279/279/279 278/278/278
f 276/276/276 280/280/280 279/279/279
f 280/280/280 281/281/281 279/279/279
f 284/284/284 283/283/283 282/282/282
f 285/285/285 283/283/283 284/284/284
f 285/285/285 284/284/284 286/286/286
f 285/285/285 287/287/287 283/283/283
f 287/287/287 285/285/285 286/286/286
f 287/287/287 288/288/288 283/283/283
f 289/289/289 287/287/287 286/286/286
f 292/292/292 291/291/291 290/290/290
f 292/292/292 293/293/293 291/291/291
f 293/293/293 294/294/294 291/291/291
f 293/293/293 295/295/295 294/294/294
f 298/298/298 297/297/297 296/296/296
f 299/299/299 297/297/297 298/298/298
f 302/302/302 301/301/301 300/300/300
f 301/301/301 303/303/303 300/300/300
f 300/300/300 303/303/303 304/304/304
f 303/303/303 305/305/305 304/304/304
f 304/304/304 305/305/305 306/306/306
f 305/305/305 307/307/307 306/306/306
f 310/310/310 309/309/309 308/308/308
f 311/311/311 309/309/309 310/310/310
f 312/312/312 311/311/311 310/310/310
f 315/315/315 314/314/314 313/313/313
f 315/315/315 316/316/316 314/314/314
f 316/316/316 317/317/317 314/314/314
f 318/318/318 316/316/316 315/315/315
f 316/316/316 319/319/319 317/317/317
f 318/318/318 320/320/320 316/316/316
f 320/320/320 319/319/319 316/316/316
f 323/323/323 322/322/322 321/321/321
f 321/321/321 322/322/322 324/324/324
f 322/322/322 325/325/325 324/324/324
f 322/322/322 326/326/326 325/325/325
f 327/327/327 326/326/326 322/322/322
f 327/327/327 328/328/328 326/326/326
f 328/328/328 329/329/329 326/326/326
f 326/326/326 330/330/330 325/325/325
f 326/326/326 329/329/329 330/330/330
f 330/330/330 331/331/331 325/325/325
f 329/329/329 332/332/332 330/330/330
f 330/330/330 332/332/332 331/331/331
f 335/335/335 334/334/334 333/333/333
f 336/336/336 335/335/335 333/333/333
f 336/336/336 333/333/333 337/337/337
f 340/340/340 339/339/339 338/338/338
f 341/341/341 338/338/338 339/339/339
f 344/344/344 343/343/343 342/342/342
f 345/345/345 342/342/342 343/343/343
