g env_asteroid_02_mesh
v 0.120889194 0.044300064 -0.10934759
v 0.15046456 0.022298872 -0.07760817
v 0.15803874 0.050792217 -0.07075534
v -0.08830245 0.10525419 -0.00042366982
v -0.07099004 0.12761603 0.028069675
v -0.07748218 0.09695865 0.039971963
v -0.15069924 0.03636521 0.007150516
v -0.11282836 0.04177533 -0.04370469
v -0.1384363 0.05187425 -0.0051124394
v -0.10020472 0.08830245 -0.032884434
v -0.09731932 0.050070867 -0.056328326
v -0.07712151 0.061251804 -0.07291939
v -0.06918664 0.11066429 -0.04586874
v -0.030955076 0.08469568 -0.094199225
v -0.028791025 0.12473063 -0.06714858
v 0.015932694 0.11463173 -0.090592474
v 6.298721E-05 0.12148456 -0.07436209
v 0.026392281 0.1268947 -0.07436209
v 0.09528125 0.10525419 -0.066787906
v -0.15069924 0.03636521 0.007150516
v -0.13014077 0.011478618 -0.027474314
v -0.11282836 0.04177533 -0.04370469
v -0.17161842 0.009675235 0.013281986
v -0.1341082 -0.0061944723 -0.053082258
v -0.17378248 -0.011965275 0.0075111836
v -0.17378248 -0.011965275 0.0075111836
v -0.125452 -0.029638365 -0.059935078
v -0.1341082 -0.0061944723 -0.053082258
v -0.16332288 -0.04045862 0.008953884
v -0.12148456 -0.042261988 -0.04045862
v -0.12581266 -0.06354183 -0.04262267
v -0.13663293 -0.07147669 -0.020621479
v -0.12004186 -0.07616547 -0.04947549
v -0.15574871 -0.053803608 0.012560636
v -0.114992395 -0.079411544 0.015085369
v -0.09731932 0.050070867 -0.056328326
v -0.087220415 0.03600453 -0.08410032
v -0.07712151 0.061251804 -0.07291939
v -0.03420116 0.030233726 -0.11475772
v -0.07784285 0.01869212 -0.08626437
v -0.026266307 0.062694505 -0.0859037
v -0.020495504 0.0035437644 -0.13170946
v -0.09263055 -0.00655514 -0.09997003
v 0.0123259425 0.03888993 -0.12197122
v 0.027113631 0.010396585 -0.12521729
v 0.04803279 -0.02567093 -0.13026676
v 0.024588913 0.05800572 -0.1017734
v 0.037933886 0.081088945 -0.0902318
v 0.037212536 0.085777715 -0.0859037
v 0.09528125 0.10525419 -0.066787906
v 0.06498453 0.08541705 -0.08518235
v 0.08626437 0.065940574 -0.10501949
v 0.120889194 0.044300064 -0.10934759
v 0.08842842 0.04249668 -0.11295434
v 0.07616547 0.03203711 -0.13207012
v 0.07616547 0.03203711 -0.13207012
v 0.12629932 0.01797077 -0.12882406
v 0.069673315 0.0053471327 -0.14072633
v 0.13675891 -0.0029483885 -0.13567688
v 0.04803279 -0.02567093 -0.13026676
v 0.13351282 -0.039376587 -0.13315216
v 0.034327134 -0.06931264 -0.12341392
v -0.026626974 -0.070394665 -0.10862624
v -0.020495504 0.0035437644 -0.13170946
v -0.09263055 -0.00655514 -0.09997003
v -0.08613838 -0.034327134 -0.08662505
v -0.07712151 0.061251804 -0.07291939
v -0.026266307 0.062694505 -0.0859037
v -0.030955076 0.08469568 -0.094199225
v 0.037212536 0.085777715 -0.0859037
v 0.015932694 0.11463173 -0.090592474
v 0.09528125 0.10525419 -0.066787906
v 0.034327134 -0.06931264 -0.12341392
v 0.11728244 -0.05596766 -0.122331895
v 0.13351282 -0.039376587 -0.13315216
v 0.039376587 -0.08193627 -0.098888
v -0.026626974 -0.070394665 -0.10862624
v -0.03131576 -0.08518235 -0.080854245
v -0.08613838 -0.034327134 -0.08662505
v -0.06702261 -0.0859037 -0.080132894
v -0.10705756 -0.04334402 -0.070394665
v -0.112106994 -0.05885306 -0.06282048
v -0.09840135 -0.07869019 -0.06354183
v -0.12004186 -0.07616547 -0.04947549
v 0.12629932 0.01797077 -0.12882406
v 0.13675891 -0.0029483885 -0.13567688
v 0.16958036 -0.0112439245 -0.12052852
v 0.15623537 0.010035917 -0.11151164
v 0.120889194 0.044300064 -0.10934759
v 0.18977816 -0.017375395 -0.09708463
v 0.15046456 0.022298872 -0.07760817
v 0.18508938 -0.019900128 -0.06173846
v 0.16489157 0.023741573 -0.04803279
v 0.18400736 -0.02350688 -0.035048485
v 0.15839942 0.03203711 -0.011965275
v 0.1659736 -0.023146212 0.0046257824
v 0.16056347 0.030594409 0.025544956
v 0.15803874 0.06485854 0.027709007
v 0.15082523 0.089023784 0.015085369
v 0.16669495 0.06016977 -0.035048485
v 0.16489157 0.023741573 -0.04803279
v 0.15803874 0.050792217 -0.07075534
v 0.15046456 0.022298872 -0.07760817
v 0.16128482 -0.03829457 -0.11872514
v 0.13675891 -0.0029483885 -0.13567688
v 0.13351282 -0.039376587 -0.13315216
v 0.16958036 -0.0112439245 -0.12052852
v 0.17715453 -0.049836174 -0.09383855
v 0.18977816 -0.017375395 -0.09708463
v 0.16849832 -0.056328326 -0.06101711
v 0.18508938 -0.019900128 -0.06173846
v 0.17246576 -0.05524631 -0.041540638
v 0.18400736 -0.02350688 -0.035048485
v 0.15226793 -0.049114823 -0.0015056878
v 0.1659736 -0.023146212 0.0046257824
v 0.12846337 -0.06570588 -0.10357678
v 0.13351282 -0.039376587 -0.13315216
v 0.11728244 -0.05596766 -0.122331895
v 0.16128482 -0.03829457 -0.11872514
v 0.14216903 -0.079411544 -0.07400142
v 0.17715453 -0.049836174 -0.09383855
v 0.14216903 -0.08626437 -0.050557524
v 0.16849832 -0.056328326 -0.06101711
v 0.13928363 -0.07724749 -0.02494958
v 0.17246576 -0.05524631 -0.041540638
v 0.1309881 -0.07580479 -0.0058337897
v 0.15226793 -0.049114823 -0.0015056878
v 0.09528125 0.10525419 -0.066787906
v 0.120889194 0.044300064 -0.10934759
v 0.15803874 0.050792217 -0.07075534
v 0.13459486 0.09407325 -0.05813171
v 0.13459486 0.09407325 -0.05813171
v 0.15803874 0.050792217 -0.07075534
v 0.16669495 0.06016977 -0.035048485
v 0.1501039 0.10200809 -0.031802416
v 0.15082523 0.089023784 0.015085369
v 0.1659736 -0.023146212 0.0046257824
v 0.15226793 -0.049114823 -0.0015056878
v 0.092035174 -0.08410032 0.061612472
v 0.11836447 -0.04803279 0.07171138
v 0.052000225 -0.07760817 0.090466484
v 0.12990607 -0.028917015 0.049349517
v 0.13170946 -0.009079874 0.04177533
v 0.14397241 0.021577522 0.040693313
v 0.16056347 0.030594409 0.025544956
v 0.154432 0.048267484 0.042857364
v 0.15803874 0.06485854 0.027709007
v 0.1309881 0.08072825 0.048628166
v 0.15082523 0.089023784 0.015085369
v 0.110429615 0.113549694 0.045382082
v 0.112593666 0.07387544 0.061251804
v 0.037933886 -0.024588913 0.09154852
v 0.094920576 -0.015572026 0.07892488
v 0.09239585 0.015446037 0.08794178
v 0.0022270381 -0.06750926 0.108860925
v 0.038655236 0.009675235 0.107418224
v 0.09095315 0.047546133 0.07531814
v 0.0047517717 -0.026752964 0.11535309
v 0.0022270381 0.0064291656 0.11751713
v -0.0053471327 -0.016654044 0.12509133
v -0.017610103 -0.034327134 0.12184523
v -0.03420116 -0.04190132 0.10381149
v -0.034561828 -0.07977222 0.08974515
v -0.056923702 -0.07688682 0.09767999
v -0.056923702 -0.06173846 0.10813959
v -0.07171138 -0.07436209 0.08794178
v -0.07279341 -0.048393473 0.10813959
v -0.10236879 -0.04190132 0.10705756
v -0.058366403 -0.01881811 0.119681194
v -0.064137205 0.0002976805 0.12040253
v -0.09912269 0.008232534 0.10345079
v -0.06990801 0.03347981 0.10994296
v -0.09912269 0.03131576 0.09551595
v -0.09479459 0.05295627 0.08325298
v -0.056923702 0.08072825 0.08144961
v -0.041414663 0.049710184 0.110303625
v -0.0075111836 0.10922159 0.08289231
v -0.002822414 0.07892488 0.10381149
v -0.021938205 0.049349517 0.114992395
v -0.003904432 0.033840477 0.12869807
v 0.046950772 0.05584167 0.12148456
v 0.04370469 0.118238494 0.07892488
v 0.0902318 0.090466484 0.08830245
v 0.110429615 0.113549694 0.045382082
v 0.15226793 -0.049114823 -0.0015056878
v 0.1309881 -0.07580479 -0.0058337897
v 0.072558716 -0.092035174 0.051152885
v 0.092035174 -0.08410032 0.061612472
v 0.052000225 -0.07760817 0.090466484
v 0.003309071 -0.09095315 0.08505635
v 0.0022270381 -0.06750926 0.108860925
v -0.034561828 -0.07977222 0.08974515
v -0.041414663 0.049710184 0.110303625
v -0.021938205 0.049349517 0.114992395
v -0.003904432 0.033840477 0.12869807
v -0.03420116 0.006068483 0.08181028
v 0.0022270381 0.0064291656 0.11751713
v -0.0053471327 -0.016654044 0.12509133
v -0.017610103 -0.034327134 0.12184523
v -0.03420116 -0.04190132 0.10381149
v -0.056923702 -0.06173846 0.10813959
v -0.07279341 -0.048393473 0.10813959
v -0.058366403 -0.01881811 0.119681194
v -0.064137205 0.0002976805 0.12040253
v -0.06990801 0.03347981 0.10994296
v -0.09479459 0.05295627 0.08325298
v -0.11571376 0.048988834 0.076400146
v -0.116435096 0.070268676 0.07459678
v -0.065940574 0.09840135 0.065940574
v -0.056923702 0.08072825 0.08144961
v -0.047185466 0.11282836 0.05800572
v -0.0075111836 0.10922159 0.08289231
v -0.013642669 0.12040253 0.06630124
v 0.033966467 0.1240093 0.06197314
v 0.04370469 0.118238494 0.07892488
v 0.095641926 0.122566596 0.027709007
v 0.110429615 0.113549694 0.045382082
v 0.1501039 0.10200809 -0.031802416
v 0.15082523 0.089023784 0.015085369
v -0.09912269 0.008232534 0.10345079
v -0.10236879 -0.04190132 0.10705756
v -0.14204304 -0.01953946 0.10020472
v -0.13446887 0.019413471 0.10164742
v -0.09912269 0.03131576 0.09551595
v -0.16548695 -0.017375395 0.08144961
v -0.16296221 0.019052804 0.07531814
v -0.17919259 -0.014489993 0.05367762
v -0.17486449 0.012199968 0.05367762
v -0.17378248 -0.011965275 0.0075111836
v -0.17161842 0.009675235 0.013281986
v -0.10236879 -0.04190132 0.10705756
v -0.13915764 -0.03757322 0.098040685
v -0.14204304 -0.01953946 0.10020472
v -0.16188018 -0.04478672 0.06810464
v -0.16548695 -0.017375395 0.08144961
v -0.16909368 -0.046950772 0.032397777
v -0.17919259 -0.014489993 0.05367762
v -0.16332288 -0.04045862 0.008953884
v -0.17378248 -0.011965275 0.0075111836
v -0.116435096 0.070268676 0.07459678
v -0.11571376 0.048988834 0.076400146
v -0.13158347 0.042857364 0.061251804
v -0.12761603 0.06918664 0.0540383
v -0.15178128 0.03600453 0.03564386
v -0.14023967 0.061251804 0.020134822
v -0.15069924 0.03636521 0.007150516
v -0.1384363 0.05187425 -0.0051124394
v -0.15178128 0.03600453 0.03564386
v -0.17161842 0.009675235 0.013281986
v -0.15069924 0.03636521 0.007150516
v -0.17486449 0.012199968 0.05367762
v -0.13158347 0.042857364 0.061251804
v -0.16296221 0.019052804 0.07531814
v -0.11571376 0.048988834 0.076400146
v -0.13446887 0.019413471 0.10164742
v -0.09912269 0.03131576 0.09551595
v -0.09479459 0.05295627 0.08325298
v -0.079646245 -0.08193627 0.07567881
v -0.07171138 -0.07436209 0.08794178
v -0.064137205 -0.0916745 0.070268676
v -0.06702261 -0.0945599 0.029151708
v -0.091909185 -0.08698572 0.062694505
v -0.0035437644 -0.0974453 0.050792217
v -0.09984405 -0.08518235 0.045021415
v -0.0046257824 -0.11764312 -0.0011450201
v 0.08121492 -0.11547907 -0.009801224
v 0.0974453 -0.11728244 -0.04334402
v -0.038529262 -0.111150965 -0.049114823
v 0.092756525 -0.11295434 -0.07364074
v 0.07364074 -0.10069138 -0.098888
v 0.039376587 -0.08193627 -0.098888
v -0.03131576 -0.08518235 -0.080854245
v -0.06702261 -0.0859037 -0.080132894
v -0.09840135 -0.07869019 -0.06354183
v -0.09587662 -0.08914977 -0.0123259425
v -0.114992395 -0.079411544 0.015085369
v -0.12004186 -0.07616547 -0.04947549
v -0.13663293 -0.07147669 -0.020621479
v -0.064137205 -0.0916745 0.070268676
v -0.07171138 -0.07436209 0.08794178
v -0.056923702 -0.07688682 0.09767999
v -0.034561828 -0.07977222 0.08974515
v -0.0035437644 -0.0974453 0.050792217
v 0.003309071 -0.09095315 0.08505635
v 0.072558716 -0.092035174 0.051152885
v 0.08121492 -0.11547907 -0.009801224
v 0.08121492 -0.11547907 -0.009801224
v 0.072558716 -0.092035174 0.051152885
v 0.1309881 -0.07580479 -0.0058337897
v 0.13928363 -0.07724749 -0.02494958
v 0.0974453 -0.11728244 -0.04334402
v 0.14216903 -0.08626437 -0.050557524
v 0.092756525 -0.11295434 -0.07364074
v 0.14216903 -0.079411544 -0.07400142
v 0.07364074 -0.10069138 -0.098888
v 0.12846337 -0.06570588 -0.10357678
v 0.039376587 -0.08193627 -0.098888
v 0.11728244 -0.05596766 -0.122331895
v -0.14023967 0.061251804 0.020134822
v -0.1384363 0.05187425 -0.0051124394
v -0.10020472 0.08830245 -0.032884434
v -0.08830245 0.10525419 -0.00042366982
v -0.12761603 0.06918664 0.0540383
v -0.06918664 0.11066429 -0.04586874
v -0.07748218 0.09695865 0.039971963
v -0.116435096 0.070268676 0.07459678
v -0.065940574 0.09840135 0.065940574
v -0.047185466 0.11282836 0.05800572
v -0.05800572 0.13374753 -0.023146212
v -0.028791025 0.12473063 -0.06714858
v -0.042136014 0.13879697 0.013642669
v -0.07099004 0.12761603 0.028069675
v -0.021216854 0.13915764 0.047185466
v 0.0015056878 0.15142061 -0.0015056878
v -0.015446037 0.14096104 -0.041540638
v 6.298721E-05 0.12148456 -0.07436209
v 0.026392281 0.1268947 -0.07436209
v 0.09780598 0.13158347 -0.06895196
v 0.11944649 0.13194413 -0.04731144
v 0.0887891 0.13591157 0.0064291656
v 0.0112439245 0.14781384 0.026626974
v 0.027474314 0.14096104 0.05295627
v 0.095641926 0.122566596 0.027709007
v 0.09780598 0.13158347 -0.06895196
v 0.026392281 0.1268947 -0.07436209
v 0.09528125 0.10525419 -0.066787906
v 0.11944649 0.13194413 -0.04731144
v 0.13459486 0.09407325 -0.05813171
v 0.1501039 0.10200809 -0.031802416
v 0.0887891 0.13591157 0.0064291656
v 0.095641926 0.122566596 0.027709007
v -0.10236879 -0.04190132 0.10705756
v -0.07171138 -0.07436209 0.08794178
v -0.079646245 -0.08193627 0.07567881
v -0.091909185 -0.08698572 0.062694505
v -0.12581266 -0.051639542 0.08072825
v -0.09984405 -0.08518235 0.045021415
v -0.13771494 -0.059213728 0.05656302
v -0.114992395 -0.079411544 0.015085369
v -0.16909368 -0.046950772 0.032397777
v -0.15574871 -0.053803608 0.012560636
v -0.16332288 -0.04045862 0.008953884
v -0.114992395 -0.079411544 0.015085369
v -0.16188018 -0.04478672 0.06810464
v -0.13771494 -0.059213728 0.05656302
v -0.12581266 -0.051639542 0.08072825
v -0.13915764 -0.03757322 0.098040685
v -0.10236879 -0.04190132 0.10705756
v 0.033966467 0.1240093 0.06197314
v 0.027474314 0.14096104 0.05295627
v 0.095641926 0.122566596 0.027709007
v -0.013642669 0.12040253 0.06630124
v -0.021216854 0.13915764 0.047185466
v -0.047185466 0.11282836 0.05800572
v -0.07748218 0.09695865 0.039971963
v -0.07099004 0.12761603 0.028069675
v -0.003904432 0.033840477 0.12869807
v 0.038655236 0.009675235 0.107418224
v 0.0022270381 0.0064291656 0.11751713
v 0.046950772 0.05584167 0.12148456
v 0.09095315 0.047546133 0.07531814
v 0.0902318 0.090466484 0.08830245
v 0.112593666 0.07387544 0.061251804
v 0.110429615 0.113549694 0.045382082
v 0.1309881 0.08072825 0.048628166
v 0.154432 0.048267484 0.042857364
v 0.14397241 0.021577522 0.040693313
v 0.092035174 0.030594409 0.023380905
v 0.112593666 0.07387544 0.061251804
v 0.09095315 0.047546133 0.07531814
v 0.09239585 0.015446037 0.08794178
v 0.094920576 -0.015572026 0.07892488
v 0.13170946 -0.009079874 0.04177533
v 0.11836447 -0.04803279 0.07171138
v 0.12990607 -0.028917015 0.049349517
v 0.059213728 0.042857364 -0.06750926
v 0.08626437 0.065940574 -0.10501949
v 0.06498453 0.08541705 -0.08518235
v 0.037933886 0.081088945 -0.0902318
v 0.08842842 0.04249668 -0.11295434
v 0.024588913 0.05800572 -0.1017734
v 0.07616547 0.03203711 -0.13207012
v 0.0123259425 0.03888993 -0.12197122
v 0.069673315 0.0053471327 -0.14072633
v 0.027113631 0.010396585 -0.12521729
v 0.04803279 -0.02567093 -0.13026676
v -0.12581266 -0.06354183 -0.04262267
v -0.08794178 0.030594409 -0.014129326
v -0.12148456 -0.042261988 -0.04045862
v -0.12004186 -0.07616547 -0.04947549
v -0.125452 -0.029638365 -0.059935078
v -0.112106994 -0.05885306 -0.06282048
v -0.1341082 -0.0061944723 -0.053082258
v -0.10705756 -0.04334402 -0.070394665
v -0.13014077 0.011478618 -0.027474314
v -0.08613838 -0.034327134 -0.08662505
v -0.11282836 0.04177533 -0.04370469
v -0.09263055 -0.00655514 -0.09997003
v -0.09731932 0.050070867 -0.056328326
v -0.07784285 0.01869212 -0.08626437
v -0.087220415 0.03600453 -0.08410032
vt 0.6230353 0.83785886
vt 0.7324 0.7831765
vt 0.7558353 0.84567064
vt 0.6894353 0.35352945
vt 0.6542824 0.26760003
vt 0.7206824 0.23244707
vt 0.634753 0.85738826
vt 0.50585884 0.83395296
vt 0.5996 0.88472944
vt 0.48242357 0.9394118
vt 0.46289414 0.84176475
vt 0.4043059 0.85348237
vt 0.4082118 0.97456473
vt 0.29884708 0.87691766
vt 0.30275297 0.97065884
vt 0.21291767 0.93160003
vt 0.24025884 0.9589412
vt 0.18948238 0.966753
vt 0.04496471 0.93160003
vt 0.634753 0.85738826
vt 0.56444705 0.7792706
vt 0.50585884 0.83395296
vt 0.6855294 0.8027059
vt 0.54101175 0.7363059
vt 0.6894353 0.7558353
vt 0.6894353 0.7558353
vt 0.52929413 0.6816236
vt 0.54101175 0.7363059
vt 0.6933412 0.6816236
vt 0.5527294 0.6581883
vt 0.56444705 0.6152235
vt 0.6191294 0.6035059
vt 0.54882354 0.5839765
vt 0.701153 0.6464706
vt 0.7089647 0.5839765
vt 0.46289414 0.84176475
vt 0.41992944 0.79880005
vt 0.4043059 0.85348237
vt 0.30665883 0.767553
vt 0.4121177 0.7636471
vt 0.30665883 0.84176475
vt 0.28322354 0.7128706
vt 0.42383534 0.7128706
vt 0.22072943 0.77536476
vt 0.19729413 0.7206824
vt 0.16995296 0.6425647
vt 0.19729413 0.82223535
vt 0.16604708 0.8730118
vt 0.16604708 0.88472944
vt 0.04496471 0.93160003
vt 0.11136471 0.88082355
vt 0.076211765 0.82614124
vt 0.01762353 0.7792706
vt 0.076211765 0.7792706
vt 0.103552945 0.7441177
vt 0.103552945 0.7441177
vt 0.0098117655 0.7128706
vt 0.11917648 0.6933412
vt 0.002 0.666
vt 0.16995296 0.6425647
vt 0.013717649 0.5956941
vt 0.2051059 0.5566353
vt 0.32618827 0.5761647
vt 0.28322354 0.7128706
vt 0.42383534 0.7128706
vt 0.43555298 0.6581883
vt 0.4043059 0.85348237
vt 0.30665883 0.84176475
vt 0.29884708 0.87691766
vt 0.16604708 0.88472944
vt 0.21291767 0.93160003
vt 0.04496471 0.93160003
vt 0.2051059 0.5566353
vt 0.04496471 0.56444705
vt 0.013717649 0.5956941
vt 0.2051059 0.51757646
vt 0.32618827 0.5761647
vt 0.34962356 0.52929413
vt 0.43555298 0.6581883
vt 0.41992944 0.54491764
vt 0.49023533 0.6503765
vt 0.5136706 0.6191294
vt 0.5136706 0.5761647
vt 0.54882354 0.5839765
vt 0.5996 0.7558353
vt 0.61131763 0.6855294
vt 0.6933412 0.6777177
vt 0.6816236 0.7324
vt 0.6230353 0.83785886
vt 0.7441177 0.6777177
vt 0.7324 0.7831765
vt 0.81051767 0.6855294
vt 0.81832945 0.79489416
vt 0.86910594 0.6894353
vt 0.90425885 0.82614124
vt 0.9628471 0.6972471
vt 0.99409413 0.83785886
vt 0.9862824 0.92378825
vt 0.94722354 0.9784706
vt 0.84567064 0.88082355
vt 0.81832945 0.79489416
vt 0.7558353 0.84567064
vt 0.7324 0.7831765
vt 0.6972471 0.6269412
vt 0.61131763 0.6855294
vt 0.6269412 0.5996
vt 0.6933412 0.6777177
vt 0.7558353 0.6191294
vt 0.7441177 0.6777177
vt 0.82223535 0.5996
vt 0.81051767 0.6855294
vt 0.86129415 0.6152235
vt 0.86910594 0.6894353
vt 0.9628471 0.6191294
vt 0.9628471 0.6972471
vt 0.701153 0.52538824
vt 0.6269412 0.5996
vt 0.6425647 0.5332
vt 0.6972471 0.6269412
vt 0.79098827 0.52148235
vt 0.7558353 0.6191294
vt 0.84567064 0.50976473
vt 0.82223535 0.5996
vt 0.91207063 0.5371059
vt 0.86129415 0.6152235
vt 0.966753 0.5332
vt 0.9628471 0.6191294
vt 0.6699059 0.99409413
vt 0.6230353 0.83785886
vt 0.7558353 0.84567064
vt 0.74802357 0.97065884
vt 0.74802357 0.97065884
vt 0.7558353 0.84567064
vt 0.84567064 0.88082355
vt 0.82614124 0.9901883
vt 0.94722354 0.9784706
vt 0.0098117655 0.6542824
vt 0.025435297 0.5956941
vt 0.20901178 0.5527294
vt 0.17385884 0.6230353
vt 0.31056473 0.5761647
vt 0.123082355 0.6620941
vt 0.11136471 0.7245883
vt 0.084023535 0.7597412
vt 0.03324706 0.77536476
vt 0.0684 0.81051767
vt 0.041058827 0.84957653
vt 0.11136471 0.88472944
vt 0.03324706 0.90816474
vt 0.14261177 0.9628471
vt 0.15432942 0.8730118
vt 0.32228237 0.6777177
vt 0.19338825 0.7128706
vt 0.21682355 0.7792706
vt 0.41602355 0.5956941
vt 0.33400002 0.74802357
vt 0.2051059 0.81832945
vt 0.4043059 0.6777177
vt 0.4082118 0.7441177
vt 0.42383534 0.6972471
vt 0.44727063 0.6542824
vt 0.48242357 0.6425647
vt 0.48242357 0.54882354
vt 0.5332 0.56835294
vt 0.5332 0.6035059
vt 0.6035059 0.56835294
vt 0.56444705 0.6308471
vt 0.6269412 0.666
vt 0.5332 0.6972471
vt 0.54101175 0.7363059
vt 0.6230353 0.7636471
vt 0.5605412 0.81442356
vt 0.6230353 0.81832945
vt 0.6035059 0.8730118
vt 0.5136706 0.92769414
vt 0.49414122 0.84176475
vt 0.41602355 0.9823765
vt 0.4082118 0.90035295
vt 0.4511765 0.83785886
vt 0.41992944 0.79880005
vt 0.32228237 0.83395296
vt 0.2949412 0.9784706
vt 0.22072943 0.90035295
vt 0.14261177 0.9628471
vt 0.025435297 0.5956941
vt 0.056682356 0.52929413
vt 0.2285412 0.52148235
vt 0.20901178 0.5527294
vt 0.31056473 0.5761647
vt 0.39649415 0.52929413
vt 0.41602355 0.5956941
vt 0.48242357 0.54882354
vt 0.49414122 0.84176475
vt 0.4511765 0.83785886
vt 0.41992944 0.79880005
vt 0.48632944 0.7441177
vt 0.4082118 0.7441177
vt 0.42383534 0.6972471
vt 0.44727063 0.6542824
vt 0.48242357 0.6425647
vt 0.5332 0.6035059
vt 0.56444705 0.6308471
vt 0.5332 0.6972471
vt 0.54101175 0.7363059
vt 0.5605412 0.81442356
vt 0.87691766 0.07230588
vt 0.92769414 0.17776473
vt 0.87691766 0.22072943
vt 0.7128706 0.15432942
vt 0.7441177 0.037152942
vt 0.6425647 0.15432942
vt 0.56835294 0.037152942
vt 0.5566353 0.09574118
vt 0.41992944 0.056682356
vt 0.4121177 0.0059058825
vt 0.22463532 0.076211765
vt 0.2051059 0.0059058825
vt 0.013717649 0.16214119
vt 0.052776475 0.029341178
vt 0.6269412 0.81832945
vt 0.634753 0.6777177
vt 0.72849417 0.7206824
vt 0.6972471 0.84957653
vt 0.6464706 0.88863534
vt 0.79880005 0.7324
vt 0.8027059 0.82614124
vt 0.87691766 0.7363059
vt 0.86910594 0.8027059
vt 0.998 0.7441177
vt 0.97456473 0.81442356
vt 0.634753 0.6777177
vt 0.7324 0.6620941
vt 0.72849417 0.7206824
vt 0.82223535 0.6503765
vt 0.79880005 0.7324
vt 0.92378825 0.634753
vt 0.87691766 0.7363059
vt 0.9823765 0.6425647
vt 0.998 0.7441177
vt 0.87691766 0.22072943
vt 0.92769414 0.17776473
vt 0.9589412 0.24025884
vt 0.88082355 0.28322354
vt 0.9901883 0.3379059
vt 0.8964471 0.3808706
vt 0.9589412 0.42383534
vt 0.88863534 0.44336474
vt 0.88863534 0.90035295
vt 0.97456473 0.81442356
vt 0.966753 0.9159765
vt 0.86910594 0.8027059
vt 0.7870824 0.9198824
vt 0.8027059 0.82614124
vt 0.7206824 0.9394118
vt 0.6972471 0.84957653
vt 0.6464706 0.88863534
vt 0.666 0.9550353
vt 0.8925412 0.43555298
vt 0.85738826 0.48632944
vt 0.7597412 0.43555298
vt 0.7363059 0.3183765
vt 0.9159765 0.3847765
vt 0.5761647 0.4277412
vt 0.92378825 0.32618827
vt 0.54101175 0.26369414
vt 0.30275297 0.3183765
vt 0.23244707 0.23635297
vt 0.6035059 0.12698825
vt 0.22072943 0.15823531
vt 0.24807061 0.06449412
vt 0.33400002 0.029341178
vt 0.54882354 0.025435297
vt 0.6542824 0.002
vt 0.79489416 0.013717649
vt 0.7870824 0.17385884
vt 0.94722354 0.2285412
vt 0.8300471 0.04496471
vt 0.90425885 0.11136471
vt 0.7597412 0.43555298
vt 0.85738826 0.48632944
vt 0.767553 0.52929413
vt 0.6972471 0.52538824
vt 0.5761647 0.4277412
vt 0.5800706 0.5332
vt 0.35743532 0.48632944
vt 0.30275297 0.3183765
vt 0.30275297 0.3183765
vt 0.35743532 0.48632944
vt 0.1387059 0.3808706
vt 0.103552945 0.32618827
vt 0.23244707 0.23635297
vt 0.08011765 0.24807061
vt 0.22072943 0.15823531
vt 0.06058824 0.1816706
vt 0.24807061 0.06449412
vt 0.0684 0.076211765
vt 0.33400002 0.029341178
vt 0.08011765 0.0059058825
vt 0.8964471 0.3808706
vt 0.88863534 0.44336474
vt 0.7089647 0.46680003
vt 0.6894353 0.35352945
vt 0.88082355 0.28322354
vt 0.58788234 0.46289414
vt 0.7206824 0.23244707
vt 0.87691766 0.22072943
vt 0.7128706 0.15432942
vt 0.6425647 0.15432942
vt 0.5566353 0.37305886
vt 0.44336474 0.46680003
vt 0.5527294 0.26760003
vt 0.6542824 0.26760003
vt 0.5371059 0.16214119
vt 0.4316471 0.25588238
vt 0.4277412 0.37696475
vt 0.35352945 0.4550824
vt 0.29103532 0.41992944
vt 0.1387059 0.3183765
vt 0.11136471 0.23635297
vt 0.23635297 0.1387059
vt 0.43555298 0.17776473
vt 0.4121177 0.09574118
vt 0.22463532 0.076211765
vt 0.1387059 0.3183765
vt 0.29103532 0.41992944
vt 0.10745883 0.3183765
vt 0.11136471 0.23635297
vt 0.0098117655 0.2519765
vt 0.013717649 0.16214119
vt 0.23635297 0.1387059
vt 0.22463532 0.076211765
vt 0.634753 0.6777177
vt 0.6386588 0.5332
vt 0.6972471 0.52148235
vt 0.74802357 0.50585884
vt 0.7363059 0.6191294
vt 0.81051767 0.50195295
vt 0.82223535 0.5956941
vt 0.92378825 0.52538824
vt 0.92378825 0.634753
vt 0.9628471 0.6035059
vt 0.9823765 0.6425647
vt 0.92378825 0.52538824
vt 0.82223535 0.6503765
vt 0.82223535 0.5956941
vt 0.7363059 0.6191294
vt 0.7324 0.6620941
vt 0.634753 0.6777177
vt 0.41992944 0.056682356
vt 0.4121177 0.09574118
vt 0.22463532 0.076211765
vt 0.5566353 0.09574118
vt 0.5371059 0.16214119
vt 0.6425647 0.15432942
vt 0.7206824 0.23244707
vt 0.6542824 0.26760003
vt 0.41992944 0.79880005
vt 0.33400002 0.74802357
vt 0.4082118 0.7441177
vt 0.32228237 0.83395296
vt 0.2051059 0.81832945
vt 0.22072943 0.90035295
vt 0.15432942 0.8730118
vt 0.14261177 0.9628471
vt 0.11136471 0.88472944
vt 0.0684 0.81051767
vt 0.084023535 0.7597412
vt 0.13089412 0.81051767
vt 0.15432942 0.8730118
vt 0.2051059 0.81832945
vt 0.21682355 0.7792706
vt 0.19338825 0.7128706
vt 0.11136471 0.7245883
vt 0.17385884 0.6230353
vt 0.123082355 0.6620941
vt 0.13089412 0.82614124
vt 0.076211765 0.82614124
vt 0.11136471 0.88082355
vt 0.16604708 0.8730118
vt 0.076211765 0.7792706
vt 0.19729413 0.82223535
vt 0.103552945 0.7441177
vt 0.22072943 0.77536476
vt 0.11917648 0.6933412
vt 0.19729413 0.7206824
vt 0.16995296 0.6425647
vt 0.56444705 0.6152235
vt 0.50976473 0.81442356
vt 0.5527294 0.6581883
vt 0.54882354 0.5839765
vt 0.52929413 0.6816236
vt 0.5136706 0.6191294
vt 0.54101175 0.7363059
vt 0.49023533 0.6503765
vt 0.56444705 0.7792706
vt 0.43555298 0.6581883
vt 0.50585884 0.83395296
vt 0.42383534 0.7128706
vt 0.46289414 0.84176475
vt 0.4121177 0.7636471
vt 0.41992944 0.79880005
vn 0.71329415 -0.04734516 -0.6992639
vn 0.71329415 -0.04734516 -0.6992639
vn 0.71329415 -0.04734516 -0.6992639
vn -0.90401053 0.3014853 0.3031032
vn -0.90401053 0.3014853 0.3031032
vn -0.90401053 0.3014853 0.3031032
vn -0.80887496 0.1746378 -0.5614472
vn -0.7454512 0.33319712 -0.577306
vn -0.77716315 0.23806155 -0.5825325
vn -0.6820276 0.39662087 -0.6144349
vn -0.65031564 0.39662087 -0.6479054
vn -0.586892 0.4600445 -0.6662708
vn -0.586892 0.4600445 -0.6662708
vn -0.49175644 0.52346826 -0.69581366
vn -0.4600445 0.52346826 -0.71717507
vn -0.079502225 0.6820276 -0.7269923
vn -0.23806155 0.6186038 -0.74876964
vn 0.2376163 0.7137394 -0.65887374
vn 0.30104 0.65031564 -0.69747007
vn -0.7454512 0.26977336 -0.60952836
vn -0.7137394 0.36490893 -0.59784406
vn -0.7454512 0.26977336 -0.60952836
vn -0.7137394 0.39662087 -0.5772937
vn -0.6820276 0.52346826 -0.51070476
vn -0.6820276 0.52346826 -0.51070476
vn -0.80887496 -0.2376163 -0.5378288
vn -0.77716315 -0.33275187 -0.53412884
vn -0.80887496 -0.2376163 -0.5378288
vn -0.80887496 -0.2376163 -0.5378288
vn -0.7454512 -0.36446375 -0.5580938
vn -0.80887496 -0.015633285 -0.58777285
vn -0.8405868 -0.26932818 -0.4699747
vn -0.8722987 -0.14248073 -0.46775442
vn -0.6752432 -0.73759514 -0
vn -0.52346826 -0.8401416 0.14192636
vn -0.6820276 0.52346826 -0.51070476
vn -0.49175644 0.36490893 -0.7905802
vn -0.39662087 0.586892 -0.705868
vn -0.3014853 0.52346826 -0.7969238
vn -0.49175644 0.33319712 -0.80445963
vn -0.20634973 0.6820276 -0.70161116
vn -0.20634973 0.36490893 -0.90788835
vn -0.49175644 0.4600445 -0.7392798
vn -0.14292598 0.5551801 -0.8193578
vn 0.015633285 0.26977336 -0.9627969
vn 0.110768855 0.20634973 -0.9721883
vn -0.20634973 0.65031564 -0.7311015
vn -0.11121416 0.586892 -0.80199075
vn -0.016078591 0.65031564 -0.759494
vn 0.14248073 0.6820276 -0.7173128
vn 0.015633285 0.6820276 -0.7311593
vn 0.20590442 0.6186038 -0.75824314
vn 0.20590442 0.6186038 -0.75824314
vn 0.04734516 0.65031564 -0.75818735
vn 0.015633285 0.8722987 -0.48872343
vn 0.14248073 0.36490893 -0.92007643
vn 0.14248073 0.39662087 -0.90685785
vn 0.07905704 -0.04734516 -0.9957452
vn -0.016078591 -0.015633285 -0.9997485
vn -0.079502225 -0.1741926 -0.981497
vn -0.047790408 -0.110768855 -0.9926965
vn -0.11121416 -0.1741926 -0.97841114
vn -0.26977336 -0.26932818 -0.9244916
vn -0.26977336 -0.26932818 -0.9244916
vn -0.4283327 -0.30104 -0.8520012
vn -0.4283327 -0.30104 -0.8520012
vn -0.20634973 -0.39617556 -0.89468694
vn 0.015633285 -0.2376163 -0.9712333
vn 0.04734516 -0.2376163 -0.9702046
vn 0.20590442 -0.07905704 -0.97537345
vn 0.1741926 -0.14248073 -0.97434914
vn 0.30104 0.079502225 -0.9502917
vn 0.015633285 -0.8401416 -0.5421418
vn 0.14248073 -0.77671784 -0.6135215
vn 0.14248073 -0.77671784 -0.6135215
vn 0.015633285 -0.8401416 -0.5421418
vn -0.20634973 -0.74500597 -0.634339
vn -0.26977336 -0.68158233 -0.6801969
vn -0.4283327 -0.39617556 -0.8121429
vn -0.39662087 -0.45959932 -0.79464483
vn -0.49175644 -0.26932818 -0.82803255
vn -0.49175644 -0.30104 -0.8170377
vn -0.49175644 -0.30104 -0.8170377
vn -0.52346826 -0.33275187 -0.78438336
vn 0.523023 0.5551801 -0.64670086
vn 0.49131113 0.5551801 -0.67110986
vn 0.6498704 0.6820276 -0.33542034
vn 0.6181586 0.6820276 -0.39079198
vn 0.6498704 0.6820276 -0.33542034
vn 0.74500597 0.65031564 -0.14851166
vn 0.74500597 0.65031564 -0.14851166
vn 0.8401416 0.52346826 -0.14192636
vn 0.8710033 0.49127698 -0
vn 0.93527716 0.3014853 0.18537317
vn 0.966989 0.1746378 0.1855638
vn 0.966989 0.20634973 0.1495061
vn 0.966989 0.1746378 0.1855638
vn 0.966989 0.1746378 -0.1855638
vn 0.9938567 0.110674724 -0
vn 0.99870086 -0.04734516 0.018842837
vn 0.9968815 -0.07891302 -0
vn 0.93527716 -0.04734516 -0.35073498
vn 0.9035653 -0.14248073 -0.4040656
vn 0.5547348 -0.2376163 -0.79737556
vn 0.42788744 -0.14248073 -0.89253104
vn 0.42788744 -0.14248073 -0.89253104
vn 0.5547348 -0.2376163 -0.79737556
vn 0.9035653 -0.39617556 -0.16314016
vn 0.9035653 -0.36446375 -0.22524646
vn 0.9317538 -0.36309075 -0
vn 0.9317538 -0.36309075 -0
vn 0.8718534 -0.42788744 0.23829386
vn 0.8718534 -0.42788744 0.23829386
vn 0.8084297 -0.42788744 0.40417042
vn 0.8084297 -0.42788744 0.40417042
vn 0.36446375 -0.74500597 -0.55868804
vn 0.33275187 -0.74500597 -0.578137
vn 0.33275187 -0.74500597 -0.578137
vn 0.36446375 -0.74500597 -0.55868804
vn 0.5547348 -0.77671784 -0.29829288
vn 0.45959932 -0.77671784 -0.4306714
vn 0.68158233 -0.71329415 0.16326967
vn 0.68158233 -0.71329415 0.16326967
vn 0.68158233 -0.68158233 0.26625368
vn 0.68158233 -0.68158233 0.26625368
vn 0.6498704 -0.6498704 0.394128
vn 0.6498704 -0.6498704 0.394128
vn 0.45959932 0.586892 -0.666578
vn 0.45959932 0.586892 -0.666578
vn 0.45959932 0.586892 -0.666578
vn 0.45959932 0.586892 -0.666578
vn 0.77671784 0.4600445 -0.4301958
vn 0.77671784 0.4600445 -0.4301958
vn 0.8401416 0.4283327 -0.3327059
vn 0.8718534 0.4283327 -0.23749259
vn 0.93160367 0.36347568 -0
vn 0.74500597 -0.49131113 0.45119786
vn 0.74500597 -0.58644676 0.31787786
vn 0.523023 -0.33275187 0.78468025
vn 0.6181586 -0.42788744 0.6593878
vn 0.36446375 -0.110768855 0.9246061
vn 0.74500597 0.26977336 0.6100725
vn 0.71329415 -0.07905704 0.69639176
vn 0.68158233 -0.2376163 0.6920867
vn 0.74500597 -0.20590442 0.63448364
vn 0.8401416 0.11121416 0.53084224
vn 0.74500597 0.39662087 0.5363376
vn 0.6498704 0.4600445 0.60500205
vn 0.68158233 0.49175644 0.54186815
vn 0.6181586 0.4600445 0.63736886
vn 0.45959932 0.36490893 0.80969745
vn 0.39617556 -0.1741926 0.9014998
vn 0.26932818 -0.20590442 0.9407793
vn 0.30104 -0.110768855 0.94715637
vn 0.30104 -0.110768855 0.94715637
vn 0.33275187 -0.2376163 0.9125868
vn 0.26932818 0.36490893 0.8912372
vn 0.42788744 -0.110768855 0.89701873
vn 0.33275187 -0.04734516 0.94182515
vn 0.45959932 -0.1741926 0.87087625
vn 0.04734516 -0.39617556 0.9169533
vn -0.1746378 -0.45959932 0.870787
vn 0.015633285 -0.39617556 0.9180417
vn 0.04734516 -0.49131113 0.86969644
vn 0.04734516 -0.49131113 0.86969644
vn -0.36490893 -0.5547348 0.74773705
vn -0.20634973 -0.49131113 0.8461875
vn -0.3014853 -0.14248073 0.942765
vn -0.33319712 -0.015633285 0.94272757
vn -0.36490893 0.047790408 0.9298158
vn -0.36490893 0.079502225 0.92764264
vn -0.36490893 0.49175644 0.7905802
vn -0.4283327 0.39662087 0.81192553
vn -0.36490893 0.5551801 0.74740654
vn -0.33319712 0.5551801 0.7620727
vn -0.33319712 0.5551801 0.7620727
vn -0.1746378 0.5551801 0.8131892
vn -0.20634973 0.52346826 0.8266806
vn -0.20634973 0.4600445 0.8635849
vn -0.11121416 0.49175644 0.8636012
vn 0.015633285 0.5551801 0.83158326
vn 0.110768855 0.6186038 0.77785575
vn 0.26932818 0.65031564 0.71031815
vn 0.33275187 0.7454512 0.57756275
vn 0.58644676 -0.77671784 0.22975981
vn 0.58644676 -0.77671784 0.22975981
vn 0.39617556 -0.8401416 0.37041467
vn 0.523023 -0.8084297 0.26997837
vn 0.1741926 -0.8401416 0.5136332
vn 0.110768855 -0.8084297 0.5780758
vn 0.110768855 -0.8084297 0.5780758
vn -0.11121416 -0.71329415 0.6919848
vn 0.015633285 -0.30104 0.9534834
vn -0.52346826 -0.39617556 0.7543381
vn -0.5551801 -0.39617556 0.7313139
vn -0.016078591 -0.07905704 0.9967404
vn -0.6820276 -0.04734516 0.7297923
vn -0.7137394 0.33319712 0.616081
vn -0.7137394 0.3014853 0.63220465
vn -0.52346826 0.36490893 0.7699496
vn 0.58644676 -0.04734516 0.80860287
vn 0.71329415 -0.1741926 0.6788729
vn 0.71329415 -0.07905704 0.69639176
vn 0.6181586 -0.015633285 0.785898
vn 0.5547348 -0.07905704 0.8282628
vn -0.1746378 0.4283327 0.8865849
vn -0.33319712 0.047790408 0.9416452
vn -0.20634973 0.39662087 0.89448965
vn -0.1746378 0.49175644 0.85304
vn -0.23806155 0.49175644 0.8375574
vn -0.36490893 0.6186038 0.6958238
vn -0.1746378 0.80887496 0.56144714
vn -0.14292598 0.8405868 0.52248067
vn 0.07905704 0.93572235 0.34376395
vn 0.110768855 0.93572235 0.33489394
vn 0.39617556 0.90401053 0.16065454
vn 0.42788744 0.8722987 0.23665866
vn 0.523023 0.8405868 0.14092836
vn 0.523023 0.8405868 0.14092836
vn -0.079502225 0.079502225 0.9936593
vn -0.11121416 0.047790408 0.9926467
vn -0.33319712 0.079502225 0.9394994
vn -0.33319712 0.079502225 0.9394994
vn 0.04734516 0.33319712 0.94166774
vn -0.7454512 0.14292598 0.6510566
vn -0.7454512 0.14292598 0.6510566
vn -0.9674343 0.14292598 0.20890918
vn -0.9674343 0.14292598 0.20890918
vn -0.98992306 0.14160664 -0
vn -0.98992306 0.14160664 -0
vn -0.23806155 -0.14248073 0.9607424
vn -0.5551801 -0.26932818 0.7869164
vn -0.6186038 -0.30104 0.7257439
vn -0.8405868 -0.36446375 0.4007244
vn -0.80887496 -0.36446375 0.46139732
vn -0.9548398 -0.29712093 -0
vn -0.93572235 -0.33275187 0.11704646
vn -0.93572235 -0.26932818 -0.22778502
vn -0.93572235 -0.26932818 -0.22778502
vn -0.80887496 0.1746378 0.5614472
vn -0.80887496 0.1746378 0.5614472
vn -0.8405868 0.33319712 0.4270756
vn -0.8405868 0.33319712 0.4270756
vn -0.8722987 0.4283327 0.23585181
vn -0.90369254 0.428182 -0
vn -0.90369254 0.428182 -0
vn -0.90369254 0.428182 -0
vn -0.67502373 0.73779607 -0
vn -0.7669192 0.6417437 -0
vn -0.77716315 0.6186038 -0.115528055
vn -0.65031564 0.7454512 0.1462602
vn -0.52346826 0.77716315 0.34928274
vn -0.5551801 0.77716315 0.29629803
vn -0.39662087 0.7454512 0.53571856
vn -0.4283327 0.77716315 0.4610299
vn -0.1746378 0.65031564 0.739318
vn -0.36490893 0.52346826 0.7699496
vn -0.23806155 -0.93527716 0.26188415
vn -0.23806155 -0.74500597 0.6231315
vn -0.14292598 -0.966989 0.2109608
vn -0.23806155 -0.966989 0.09087903
vn -0.23806155 -0.966989 0.09087903
vn -0.047790408 -0.966989 0.25029653
vn -0.2687213 -0.9632179 -0
vn -0.07935461 -0.99684644 -0
vn 0.04734516 -0.966989 0.25038117
vn -0.016078591 -0.99870086 0.048354022
vn -0.23806155 -0.966989 -0.09087903
vn -0.047790408 -0.966989 -0.25029653
vn -0.14292598 -0.8718534 -0.46844828
vn -0.26977336 -0.5547348 -0.78707784
vn -0.079502225 -0.74500597 -0.6623032
vn -0.36490893 -0.8718534 -0.32666963
vn -0.39662087 -0.9035653 -0.16205458
vn -0.33319712 -0.93527716 -0.11931585
vn -0.4283327 -0.9035653 0.01004543
vn -0.3014853 -0.93527716 -0.18537317
vn -0.39662087 -0.9035653 -0.16205458
vn 0.015633285 -0.8718534 0.48951736
vn -0.4600445 -0.71329415 0.5287443
vn 0.015633285 -0.8718534 0.48951736
vn 0.015633285 -0.9035653 0.42816517
vn 0.015633285 -0.966989 0.25433818
vn -0.047790408 -0.966989 0.25029653
vn 0.07905704 -0.93527716 0.3449733
vn 0.07905704 -0.93527716 0.3449733
vn 0.5547348 -0.74500597 0.37045297
vn 0.5547348 -0.74500597 0.37045297
vn 0.5547348 -0.74500597 0.37045297
vn 0.58644676 -0.74500597 0.31787786
vn 0.58644676 -0.8084297 0.05021528
vn 0.58644676 -0.8084297 0.05021528
vn 0.49131113 -0.74500597 -0.45119783
vn 0.49131113 -0.74500597 -0.45119783
vn 0.20590442 -0.58644676 -0.7833796
vn 0.26932818 -0.6181586 -0.738473
vn 0.04734516 -0.49131113 -0.86969644
vn 0.04734516 -0.49131113 -0.86969644
vn -0.6186038 0.77716315 0.115528055
vn -0.7137394 0.6820276 -0.15941915
vn -0.6820276 0.7137394 -0.15941915
vn -0.6186038 0.77716315 -0.115528055
vn -0.49175644 0.8405868 0.2271332
vn -0.5551801 0.77716315 -0.29629803
vn -0.49175644 0.8405868 0.2271332
vn -0.4600445 0.8722987 0.16569254
vn -0.4600445 0.8722987 0.16569254
vn -0.5551801 0.80887496 0.19363984
vn -0.4600445 0.8722987 -0.16569254
vn -0.3014853 0.80887496 -0.50480485
vn -0.33319712 0.93572235 0.115772866
vn -0.52346826 0.8405868 -0.13926548
vn -0.20634973 0.9674343 0.14659704
vn -0.016078591 0.9991461 -0.038060106
vn -0.20634973 0.93572235 -0.286083
vn -0.11121416 0.8405868 -0.53013706
vn -0.047790408 0.93572235 -0.34948498
vn 0.04734516 0.9674343 -0.24865504
vn 0.14117432 0.9899848 -0
vn 0.20590442 0.9674343 0.14722186
vn 0.11018844 0.9939107 -0
vn 0.2376163 0.93572235 0.26069555
vn 0.26932818 0.93572235 0.22778504
vn 0.30104 -0.110768855 -0.94715637
vn 0.07905704 -0.07905704 -0.9937303
vn 0.26932818 0.047790408 -0.96186197
vn 0.68158233 0.7137394 -0.16131212
vn 0.523023 0.4283327 -0.73687047
vn 0.68158233 0.7137394 0.16131212
vn 0.58644676 0.7454512 0.31683227
vn 0.58644676 0.7454512 0.31683227
vn -0.39662087 -0.68158233 0.6149288
vn -0.33319712 -0.68158233 0.65147924
vn -0.39662087 -0.68158233 0.6149288
vn -0.4600445 -0.74500597 0.48303744
vn -0.4600445 -0.74500597 0.48303744
vn -0.52346826 -0.8084297 0.26911408
vn -0.52346826 -0.8084297 0.26911408
vn -0.55131704 -0.8342958 -0
vn -0.49127698 -0.8710033 -0
vn -0.586892 -0.8084297 -0.044711743
vn -0.77716315 -0.523023 -0.3499491
vn -0.49127698 -0.8710033 -0
vn -0.4283327 -0.8718534 0.23749262
vn -0.39662087 -0.8718534 0.28733867
vn -0.26977336 -0.8401416 0.47051504
vn -0.26977336 -0.8401416 0.47051504
vn -0.20634973 -0.8401416 0.5015794
vn 0.1741926 0.586892 0.7907052
vn 0.07905704 0.6186038 0.7817156
vn 0.42788744 0.5551801 0.7132233
vn -0.11121416 0.6186038 0.7777922
vn -0.26977336 0.586892 0.7634004
vn -0.49175644 0.5551801 0.67078364
vn -0.49175644 0.5551801 0.67078364
vn -0.49175644 0.5551801 0.67078364
vn 0.26932818 -0.30104 0.9147881
vn 0.42788744 -0.33275187 0.8403503
vn 0.26932818 -0.30104 0.9147881
vn 0.523023 -0.30104 0.7973844
vn 0.68158233 -0.2376163 0.6920867
vn 0.74500597 -0.07905704 0.6623565
vn 0.77671784 0.047790408 0.628033
vn 0.8084297 0.26977336 0.5231288
vn -0.079502225 -0.33275187 0.93965715
vn -0.23806155 -0.1741926 0.9555018
vn -0.26977336 -0.110768855 0.9565315
vn 0.42788744 -0.04734516 0.90259117
vn 0.68158233 -0.6181586 0.39156798
vn 0.96333265 -0.2683098 -0
vn 0.99870086 0.047790408 0.017683147
vn 0.9035653 0.36490893 0.22452451
vn 0.14248073 0.4600445 0.8763893
vn 0.5547348 0.5551801 0.6197131
vn 0.26932818 0.52346826 0.80835843
vn -0.11121416 0.36490893 -0.924377
vn -0.80887496 -0.015633285 -0.58777285
vn -0.36490893 -0.30104 -0.88103145
vn 0.523023 -0.20590442 -0.82707334
vn -0.6186038 0.65031564 -0.44092956
vn 0.71329415 0.11121416 -0.6919847
vn -0.8405868 0.4600445 -0.2859597
vn 0.68158233 0.36490893 -0.63426095
vn -0.8405868 0.4283327 -0.33157954
vn 0.6498704 0.4283327 -0.62785316
vn -0.3014853 0.6820276 -0.66629195
vn -0.20634973 0.36490893 -0.90788835
vn -0.6186038 -0.110768855 -0.77785575
vn 0.8401416 -0.20590442 -0.50176233
vn -0.8405868 0.39662087 -0.36892515
vn 0.8084297 -0.04734516 -0.5866855
vn -0.93572235 0.3014853 -0.1831128
vn 0.30104 0.49175644 -0.8170377
vn -0.80887496 0.4600445 -0.36616987
vn 0.04734516 0.49175644 -0.86944467
vn -0.9674343 0.20634973 -0.14659697
vn 0.33275187 -0.74500597 -0.578137
vn -0.9991461 0.016078591 0.0380599
vn -0.7137394 -0.68158233 -0.16131212
vn -0.93572235 0.3014853 -0.1831128
vn -0.871301 -0.49074915 -0
g env_asteroid_02_mesh_0
f 3/3/3 2/2/2 1/1/1
f 6/6/6 5/5/5 4/4/4
f 9/9/9 8/8/8 7/7/7
f 10/10/10 8/8/8 9/9/9
f 11/11/11 8/8/8 10/10/10
f 12/12/12 11/11/11 10/10/10
f 13/13/13 12/12/12 10/10/10
f 14/14/14 12/12/12 13/13/13
f 15/15/15 14/14/14 13/13/13
f 16/16/16 14/14/14 15/15/15
f 17/17/17 16/16/16 15/15/15
f 17/17/17 18/18/18 16/16/16
f 16/16/16 18/18/18 19/19/19
f 22/22/22 21/21/21 20/20/20
f 21/21/21 23/23/23 20/20/20
f 21/21/21 24/24/24 23/23/23
f 24/24/24 25/25/25 23/23/23
f 28/28/28 27/27/27 26/26/26
f 27/27/27 29/29/29 26/26/26
f 27/27/27 30/30/30 29/29/29
f 30/30/30 31/31/31 29/29/29
f 31/31/31 32/32/32 29/29/29
f 33/33/33 32/32/32 31/31/31
f 32/32/32 34/34/34 29/29/29
f 35/35/35 34/34/34 32/32/32
f 38/38/38 37/37/37 36/36/36
f 39/39/39 37/37/37 38/38/38
f 39/39/39 40/40/40 37/37/37
f 39/39/39 38/38/38 41/41/41
f 39/39/39 42/42/42 40/40/40
f 42/42/42 43/43/43 40/40/40
f 39/39/39 44/44/44 42/42/42
f 39/39/39 41/41/41 44/44/44
f 44/44/44 45/45/45 42/42/42
f 45/45/45 46/46/46 42/42/42
f 41/41/41 47/47/47 44/44/44
f 48/48/48 47/47/47 41/41/41
f 48/48/48 41/41/41 49/49/49
f 48/48/48 49/49/49 50/50/50
f 51/51/51 48/48/48 50/50/50
f 52/52/52 51/51/51 50/50/50
f 53/53/53 52/52/52 50/50/50
f 54/54/54 52/52/52 53/53/53
f 55/55/55 54/54/54 53/53/53
f 53/53/53 57/57/57 56/56/56
f 58/58/58 56/56/56 57/57/57
f 59/59/59 58/58/58 57/57/57
f 60/60/60 58/58/58 59/59/59
f 59/59/59 61/61/61 60/60/60
f 61/61/61 62/62/62 60/60/60
f 60/60/60 62/62/62 63/63/63
f 64/64/64 60/60/60 63/63/63
f 65/65/65 64/64/64 63/63/63
f 66/66/66 65/65/65 63/63/63
f 69/69/69 68/68/68 67/67/67
f 70/70/70 68/68/68 69/69/69
f 71/71/71 70/70/70 69/69/69
f 70/70/70 71/71/71 72/72/72
f 75/75/75 74/74/74 73/73/73
f 74/74/74 76/76/76 73/73/73
f 73/73/73 76/76/76 77/77/77
f 76/76/76 78/78/78 77/77/77
f 79/79/79 77/77/77 78/78/78
f 80/80/80 79/79/79 78/78/78
f 80/80/80 81/81/81 79/79/79
f 82/82/82 81/81/81 80/80/80
f 83/83/83 82/82/82 80/80/80
f 83/83/83 84/84/84 82/82/82
f 87/87/87 86/86/86 85/85/85
f 88/88/88 87/87/87 85/85/85
f 88/88/88 85/85/85 89/89/89
f 90/90/90 87/87/87 88/88/88
f 91/91/91 88/88/88 89/89/89
f 91/91/91 90/90/90 88/88/88
f 92/92/92 90/90/90 91/91/91
f 93/93/93 92/92/92 91/91/91
f 94/94/94 92/92/92 93/93/93
f 95/95/95 94/94/94 93/93/93
f 96/96/96 94/94/94 95/95/95
f 97/97/97 96/96/96 95/95/95
f 97/97/97 95/95/95 98/98/98
f 98/98/98 95/95/95 99/99/99
f 99/99/99 95/95/95 100/100/100
f 100/100/100 95/95/95 101/101/101
f 100/100/100 101/101/101 102/102/102
f 101/101/101 103/103/103 102/102/102
f 106/106/106 105/105/105 104/104/104
f 105/105/105 107/107/107 104/104/104
f 108/108/108 104/104/104 107/107/107
f 109/109/109 108/108/108 107/107/107
f 110/110/110 108/108/108 109/109/109
f 111/111/111 110/110/110 109/109/109
f 112/112/112 110/110/110 111/111/111
f 113/113/113 112/112/112 111/111/111
f 114/114/114 112/112/112 113/113/113
f 115/115/115 114/114/114 113/113/113
f 118/118/118 117/117/117 116/116/116
f 117/117/117 119/119/119 116/116/116
f 120/120/120 116/116/116 119/119/119
f 121/121/121 120/120/120 119/119/119
f 122/122/122 120/120/120 121/121/121
f 123/123/123 122/122/122 121/121/121
f 124/124/124 122/122/122 123/123/123
f 125/125/125 124/124/124 123/123/123
f 126/126/126 124/124/124 125/125/125
f 127/127/127 126/126/126 125/125/125
f 130/130/130 129/129/129 128/128/128
f 131/131/131 130/130/130 128/128/128
f 134/134/134 133/133/133 132/132/132
f 135/135/135 134/134/134 132/132/132
f 136/136/136 134/134/134 135/135/135
f 139/139/139 138/138/138 137/137/137
f 140/140/140 139/139/139 137/137/137
f 139/139/139 140/140/140 141/141/141
f 140/140/140 137/137/137 142/142/142
f 142/142/142 137/137/137 143/143/143
f 143/143/143 137/137/137 144/144/144
f 144/144/144 137/137/137 145/145/145
f 145/145/145 146/146/146 144/144/144
f 147/147/147 146/146/146 145/145/145
f 148/148/148 146/146/146 147/147/147
f 148/148/148 147/147/147 149/149/149
f 150/150/150 148/148/148 149/149/149
f 151/151/151 148/148/148 150/150/150
f 140/140/140 152/152/152 141/141/141
f 140/140/140 153/153/153 152/152/152
f 153/153/153 154/154/154 152/152/152
f 141/141/141 152/152/152 155/155/155
f 154/154/154 156/156/156 152/152/152
f 157/157/157 156/156/156 154/154/154
f 156/156/156 158/158/158 152/152/152
f 152/152/152 158/158/158 155/155/155
f 159/159/159 158/158/158 156/156/156
f 158/158/158 159/159/159 160/160/160
f 158/158/158 160/160/160 155/155/155
f 160/160/160 161/161/161 155/155/155
f 155/155/155 161/161/161 162/162/162
f 162/162/162 163/163/163 155/155/155
f 164/164/164 163/163/163 162/162/162
f 165/165/165 164/164/164 162/162/162
f 166/166/166 164/164/164 165/165/165
f 167/167/167 166/166/166 165/165/165
f 168/168/168 166/166/166 167/167/167
f 168/168/168 167/167/167 169/169/169
f 168/168/168 169/169/169 170/170/170
f 171/171/171 168/168/168 170/170/170
f 172/172/172 171/171/171 170/170/170
f 172/172/172 173/173/173 171/171/171
f 173/173/173 172/172/172 174/174/174
f 174/174/174 172/172/172 175/175/175
f 172/172/172 176/176/176 175/175/175
f 175/175/175 176/176/176 177/177/177
f 176/176/176 178/178/178 177/177/177
f 176/176/176 179/179/179 178/178/178
f 179/179/179 180/180/180 178/178/178
f 180/180/180 181/181/181 178/178/178
f 178/178/178 181/181/181 177/177/177
f 177/177/177 181/181/181 182/182/182
f 183/183/183 182/182/182 181/181/181
f 184/184/184 182/182/182 183/183/183
f 187/187/187 186/186/186 185/185/185
f 188/188/188 187/187/187 185/185/185
f 189/189/189 187/187/187 188/188/188
f 190/190/190 187/187/187 189/189/189
f 191/191/191 190/190/190 189/189/189
f 191/191/191 192/192/192 190/190/190
f 195/195/195 194/194/194 193/193/193
f 196/196/196 195/195/195 193/193/193
f 196/196/196 197/197/197 195/195/195
f 198/198/198 197/197/197 196/196/196
f 199/199/199 198/198/198 196/196/196
f 200/200/200 199/199/199 196/196/196
f 201/201/201 200/200/200 196/196/196
f 202/202/202 201/201/201 196/196/196
f 203/203/203 202/202/202 196/196/196
f 204/204/204 203/203/203 196/196/196
f 204/204/204 196/196/196 193/193/193
f 205/205/205 204/204/204 193/193/193
f 208/208/208 207/207/207 206/206/206
f 209/209/209 208/208/208 206/206/206
f 210/210/210 209/209/209 206/206/206
f 210/210/210 211/211/211 209/209/209
f 212/212/212 211/211/211 210/210/210
f 212/212/212 213/213/213 211/211/211
f 214/214/214 213/213/213 212/212/212
f 215/215/215 214/214/214 212/212/212
f 216/216/216 214/214/214 215/215/215
f 217/217/217 216/216/216 215/215/215
f 218/218/218 216/216/216 217/217/217
f 219/219/219 218/218/218 217/217/217
f 222/222/222 221/221/221 220/220/220
f 223/223/223 222/222/222 220/220/220
f 223/223/223 220/220/220 224/224/224
f 225/225/225 222/222/222 223/223/223
f 226/226/226 225/225/225 223/223/223
f 227/227/227 225/225/225 226/226/226
f 228/228/228 227/227/227 226/226/226
f 229/229/229 227/227/227 228/228/228
f 230/230/230 229/229/229 228/228/228
f 233/233/233 232/232/232 231/231/231
f 234/234/234 232/232/232 233/233/233
f 235/235/235 234/234/234 233/233/233
f 236/236/236 234/234/234 235/235/235
f 237/237/237 236/236/236 235/235/235
f 238/238/238 236/236/236 237/237/237
f 239/239/239 238/238/238 237/237/237
f 242/242/242 241/241/241 240/240/240
f 243/243/243 242/242/242 240/240/240
f 244/244/244 242/242/242 243/243/243
f 245/245/245 244/244/244 243/243/243
f 246/246/246 244/244/244 245/245/245
f 247/247/247 246/246/246 245/245/245
f 250/250/250 249/249/249 248/248/248
f 249/249/249 251/251/251 248/248/248
f 248/248/248 251/251/251 252/252/252
f 251/251/251 253/253/253 252/252/252
f 252/252/252 253/253/253 254/254/254
f 253/253/253 255/255/255 254/254/254
f 254/254/254 255/255/255 256/256/256
f 254/254/254 256/256/256 257/257/257
f 260/260/260 259/259/259 258/258/258
f 261/261/261 260/260/260 258/258/258
f 262/262/262 261/261/261 258/258/258
f 263/263/263 260/260/260 261/261/261
f 261/261/261 262/262/262 264/264/264
f 265/265/265 263/263/263 261/261/261
f 266/266/266 263/263/263 265/265/265
f 267/267/267 266/266/266 265/265/265
f 265/265/265 261/261/261 268/268/268
f 269/269/269 265/265/265 268/268/268
f 269/269/269 267/267/267 265/265/265
f 269/269/269 268/268/268 270/270/270
f 270/270/270 268/268/268 271/271/271
f 271/271/271 268/268/268 272/272/272
f 272/272/272 268/268/268 273/273/273
f 273/273/273 268/268/268 274/274/274
f 275/275/275 261/261/261 264/264/264
f 261/261/261 275/275/275 268/268/268
f 268/268/268 275/275/275 274/274/274
f 275/275/275 264/264/264 276/276/276
f 274/274/274 275/275/275 277/277/277
f 278/278/278 275/275/275 276/276/276
f 277/277/277 275/275/275 278/278/278
f 281/281/281 280/280/280 279/279/279
f 282/282/282 281/281/281 279/279/279
f 283/283/283 282/282/282 279/279/279
f 284/284/284 282/282/282 283/283/283
f 283/283/283 285/285/285 284/284/284
f 286/286/286 285/285/285 283/283/283
f 289/289/289 288/288/288 287/287/287
f 290/290/290 289/289/289 287/287/287
f 290/290/290 287/287/287 291/291/291
f 292/292/292 290/290/290 291/291/291
f 292/292/292 291/291/291 293/293/293
f 294/294/294 292/292/292 293/293/293
f 294/294/294 293/293/293 295/295/295
f 296/296/296 294/294/294 295/295/295
f 296/296/296 295/295/295 297/297/297
f 298/298/298 296/296/296 297/297/297
f 301/301/301 300/300/300 299/299/299
f 302/302/302 301/301/301 299/299/299
f 302/302/302 299/299/299 303/303/303
f 304/304/304 301/301/301 302/302/302
f 305/305/305 302/302/302 303/303/303
f 305/305/305 303/303/303 306/306/306
f 307/307/307 305/305/305 306/306/306
f 307/307/307 308/308/308 305/305/305
f 309/309/309 304/304/304 302/302/302
f 310/310/310 304/304/304 309/309/309
f 311/311/311 309/309/309 302/302/302
f 312/312/312 311/311/311 302/302/302
f 313/313/313 311/311/311 312/312/312
f 314/314/314 311/311/311 313/313/313
f 315/315/315 310/310/310 309/309/309
f 315/315/315 309/309/309 311/311/311
f 314/314/314 315/315/315 311/311/311
f 316/316/316 310/310/310 315/315/315
f 317/317/317 316/316/316 315/315/315
f 314/314/314 317/317/317 315/315/315
f 318/318/318 317/317/317 314/314/314
f 319/319/319 318/318/318 314/314/314
f 320/320/320 319/319/319 314/314/314
f 321/321/321 314/314/314 313/313/313
f 321/321/321 320/320/320 314/314/314
f 321/321/321 313/313/313 322/322/322
f 320/320/320 321/321/321 322/322/322
f 323/323/323 320/320/320 322/322/322
f 326/326/326 325/325/325 324/324/324
f 327/327/327 326/326/326 324/324/324
f 328/328/328 326/326/326 327/327/327
f 328/328/328 327/327/327 329/329/329
f 329/329/329 327/327/327 330/330/330
f 329/329/329 330/330/330 331/331/331
f 334/334/334 333/333/333 332/332/332
f 335/335/335 334/334/334 332/332/332
f 336/336/336 335/335/335 332/332/332
f 337/337/337 335/335/335 336/336/336
f 338/338/338 337/337/337 336/336/336
f 337/337/337 338/338/338 339/339/339
f 342/342/342 341/341/341 340/340/340
f 341/341/341 343/343/343 340/340/340
f 340/340/340 343/343/343 344/344/344
f 343/343/343 345/345/345 344/344/344
f 344/344/344 345/345/345 346/346/346
f 346/346/346 347/347/347 344/344/344
f 347/347/347 346/346/346 348/348/348
f 351/351/351 350/350/350 349/349/349
f 349/349/349 350/350/350 352/352/352
f 350/350/350 353/353/353 352/352/352
f 353/353/353 354/354/354 352/352/352
f 354/354/354 353/353/353 355/355/355
f 353/353/353 356/356/356 355/355/355
f 359/359/359 358/358/358 357/357/357
f 358/358/358 360/360/360 357/357/357
f 360/360/360 358/358/358 361/361/361
f 361/361/361 362/362/362 360/360/360
f 363/363/363 362/362/362 361/361/361
f 362/362/362 363/363/363 364/364/364
f 367/367/367 366/366/366 365/365/365
f 368/368/368 367/367/367 365/365/365
f 369/369/369 368/368/368 365/365/365
f 370/370/370 368/368/368 369/369/369
f 370/370/370 371/371/371 368/368/368
f 371/371/371 372/372/372 368/368/368
f 368/368/368 373/373/373 367/367/367
f 368/368/368 372/372/372 374/374/374
f 373/373/373 368/368/368 374/374/374
f 375/375/375 373/373/373 374/374/374
f 378/378/378 377/377/377 376/376/376
f 379/379/379 378/378/378 376/376/376
f 377/377/377 380/380/380 376/376/376
f 376/376/376 381/381/381 379/379/379
f 376/376/376 380/380/380 382/382/382
f 383/383/383 381/381/381 376/376/376
f 384/384/384 376/376/376 382/382/382
f 383/383/383 376/376/376 385/385/385
f 386/386/386 376/376/376 384/384/384
f 385/385/385 376/376/376 386/386/386
f 389/389/389 388/388/388 387/387/387
f 387/387/387 388/388/388 390/390/390
f 388/388/388 389/389/389 391/391/391
f 392/392/392 390/390/390 388/388/388
f 388/388/388 391/391/391 393/393/393
f 388/388/388 394/394/394 392/392/392
f 388/388/388 393/393/393 395/395/395
f 396/396/396 394/394/394 388/388/388
f 388/388/388 395/395/395 397/397/397
f 398/398/398 396/396/396 388/388/388
f 399/399/399 388/388/388 397/397/397
f 400/400/400 398/398/398 388/388/388
f 388/388/388 399/399/399 401/401/401
f 388/388/388 401/401/401 400/400/400
