g guild_banner_mesh
v 0.002723813 2.0269303 0.0781278
v -0.8197322 1.3884814 0.0781278
v -0.8197322 2.0269303 0.0781278
v 0.002723813 1.3884814 0.0781278
v 0.8251798 2.0269303 0.0781278
v -0.8197322 0.63572514 0.11158365
v 0.8251798 1.3884814 0.0781278
v 0.002723813 0.63572514 0.11158365
v 0.002723813 6.41942E-05 0.15340346
v 0.8251798 0.63572514 0.11158365
vt 0.50175405 0.992056
vt 0.1002469 0.68320435
vt 0.1002469 0.992056
vt 0.50175405 0.68320435
vt 0.89940053 0.992056
vt 0.1002469 0.31644303
vt 0.89940053 0.68320435
vt 0.50175405 0.31644303
vt 0.50175405 0.0075914115
vt 0.89940053 0.31644303
vn -0.00021497905 -0.046654962 0.998911
vn -0.0050635934 0.029306665 0.9995576
vn -0.00021497905 -0.01594707 0.9998728
vn -0.00021497905 0.03415528 0.99941653
vn -0.00021497905 -0.01594707 0.9998728
vn -0.008296002 0.04708492 0.9988564
vn 0.0046336353 0.029306665 0.9995597
vn -0.00021497905 0.04708492 0.9988909
vn -0.00021497905 0.05516594 0.99847716
vn 0.007866047 0.04708492 0.99885994
g guild_banner_mesh_0
f 3/3/3 2/2/2 1/1/1
f 2/2/2 4/4/4 1/1/1
f 1/1/1 4/4/4 5/5/5
f 4/4/4 2/2/2 6/6/6
f 4/4/4 7/7/7 5/5/5
f 8/8/8 4/4/4 6/6/6
f 7/7/7 4/4/4 8/8/8
f 9/9/9 8/8/8 6/6/6
f 10/10/10 7/7/7 8/8/8
f 10/10/10 8/8/8 9/9/9
