g alignment_border_light
v 1.0831742 0.86796176 -0.16925146
v 1.1354629 0.86796176 -0.20694695
v 1.1408111 0.86796176 -0.20126249
v 1.0953203 0.86796176 -0.16646752
v 0.63319546 0.86796176 -0.5424936
v 0.64139485 0.86796176 -0.5443595
v 0.6387509 0.86796176 -0.540201
v 0.68833524 0.86796176 -0.64129055
v 0.68991196 0.86796176 -0.63002235
v 0.79954123 0.86796176 -0.5927099
v 0.7959547 0.86796176 -0.5857626
v 0.8845267 0.86796176 -0.55130965
v 0.88626355 0.86796176 -0.54300535
v 0.8990254 0.86796176 -0.57270503
v 0.90054363 0.86796176 -0.5635706
v 1.041611 0.86796176 -0.49319574
v 1.0390197 0.86796176 -0.48620504
v 1.1854223 0.86796176 -0.39835855
v 1.1751112 0.86796176 -0.39741316
v 1.1666219 0.86796176 -0.38130105
v 1.1555233 0.86796176 -0.3802766
v 1.2696289 0.86796176 -0.29613927
v 1.2557876 0.86796176 -0.2980156
v 1.1408111 0.86796176 -0.20126249
v 1.1354629 0.86796176 -0.20694695
v 0.6387509 0.86796176 -0.540201
v 0.6360833 0.86796176 -0.5360054
v 0.63319546 0.86796176 -0.5424936
v 0.5907487 0.86796176 -0.4614329
v 0.5885876 0.86796176 -0.4669987
v 0.438878 0.86796176 -0.50490713
v 0.44206536 0.86796176 -0.5104012
v 0.36305094 0.8679619 -0.52377015
v 0.3587955 0.8679619 -0.53145885
v 0.30415928 0.8679619 -0.3436601
v 0.29691812 0.8679619 -0.33967853
v 0.35328674 0.86796176 -0.33255428
v 0.35719 0.86796176 -0.3240804
v 0.36713028 0.86796176 -0.3602431
v 0.3707501 0.86796176 -0.35185003
v 0.49699324 0.86796176 -0.31946865
v 0.48530993 0.86796176 -0.31613982
v 0.48283085 0.86796176 -0.2916456
v 0.4729199 0.86796176 -0.2879198
v 0.637259 0.8679619 -0.21920103
v 0.6497212 0.86796176 -0.22068827
v 1.2447342 0.86796176 0.010000203
v 1.1523463 0.86796176 -0.10926642
v 1.2524735 0.86796176 0.003947196
v 1.1445138 0.86796176 -0.10590087
v 1.0953203 0.86796176 -0.16646752
v 1.0831742 0.86796176 -0.16925146
v 0.88971245 0.86796176 0.6116524
v 0.9814239 0.86796176 0.6245934
v 0.89061505 0.86796176 0.62253284
v 0.99361485 0.86796176 0.6147902
v 0.99646014 0.86796176 0.7043194
v 0.9847075 0.86796176 0.7041324
v 0.99436486 0.86796176 0.7605438
v 0.9797126 0.86796176 0.7678961
v 1.0460331 0.86796176 0.765765
v 1.0446905 0.86796176 0.77656424
v 1.1891845 0.86796176 0.7861547
v 1.1878419 0.86796176 0.7956608
v 1.2420474 0.86796176 0.7937325
v 1.2500618 0.86796176 0.8039609
v 1.2416662 0.86796176 0.72588676
v 1.2529866 0.86796176 0.72591543
v 1.2497739 0.86796176 0.6249317
v 1.2402406 0.8679619 0.61668825
v 1.5141081 0.86796176 0.6222247
v 1.4999882 0.86796176 0.6121952
v 1.472117 0.86796176 0.49420357
v 1.4871278 0.86796176 0.4905742
v 1.4444234 0.86796176 0.38669413
v 1.4568403 0.86796176 0.3821155
v 1.4152777 0.86796176 0.29634228
v 1.4255507 0.86796176 0.2906339
v 1.3756455 0.86796176 0.20487006
v 1.3832111 0.86796176 0.19785963
v 1.330363 0.86796176 0.12673998
v 1.3401775 0.86796176 0.12174148
v 1.2524735 0.86796176 0.003947196
v 1.2447342 0.86796176 0.010000203
v 0.4524527 0.86796176 0.5850014
v 0.44884506 0.86796176 0.63362557
v 0.4451178 0.86796176 0.5927798
v 0.45781812 0.86796176 0.63347626
v 0.45724338 0.86796176 0.6778819
v 0.44700274 0.86796176 0.6772078
v 0.44844362 0.86796176 0.7226322
v 0.43907523 0.86796176 0.72117895
v 0.43618998 0.86796176 0.75572246
v 0.4261265 0.86796176 0.76293594
v 0.48481905 0.86796176 0.76690596
v 0.48691422 0.86796176 0.77721167
v 0.49240956 0.86796176 0.7484526
v 0.49399367 0.86796176 0.76152784
v 0.6849118 0.86796176 0.81071967
v 0.6950228 0.86796176 0.8242641
v 0.69793403 0.86796176 0.7583955
v 0.7092908 0.86796176 0.7592828
v 0.70180875 0.86796176 0.6984219
v 0.7138305 0.86796176 0.6986959
v 0.7148888 0.86796176 0.626047
v 0.7020553 0.86796176 0.614202
v 0.26884955 0.86796176 0.13513681
v 0.27237996 0.86796176 0.14256643
v 0.2615336 0.86796176 0.13814896
v 0.2566928 0.86796176 0.13098015
v 0.22041138 0.86796176 0.217495
v 0.21133415 0.86796176 0.22038293
v 0.23075478 0.86796176 0.22282948
v 0.22201683 0.86796176 0.22531645
v 0.19654506 0.86796176 0.28907624
v 0.18821856 0.86796176 0.29137686
v 0.23639697 0.86796176 0.3144402
v 0.24656568 0.86796176 0.31278127
v 0.11370071 0.86796176 0.49561033
v 0.103501186 0.86796176 0.4984716
v 0.14085226 0.86796176 0.51709276
v 0.13762315 0.86796176 0.5220881
v 0.16581355 0.86796176 0.54703885
v 0.16110912 0.86796176 0.5503217
v 0.18081865 0.86796176 0.5783099
v 0.17631173 0.86796176 0.58124775
v 0.18785056 0.86796176 0.60944855
v 0.1838562 0.86796176 0.61591464
v 0.4451178 0.86796176 0.5927798
v 0.4524527 0.86796176 0.5850014
v 0.30149397 0.8679619 0.08863374
v 0.27237996 0.86796176 0.14256643
v 0.26884955 0.86796176 0.13513681
v 0.29229593 0.8679619 0.09230072
v 0.5130096 0.8679619 -0.03777403
v 0.38475558 0.86796176 -0.10369548
v 0.51083755 0.8679619 -0.049666036
v 0.38289687 0.86796176 -0.09464639
v 0.29188034 0.86796176 -0.1356182
v 0.29501238 0.86796176 -0.123445146
v 0.2773885 0.86796176 -0.102040954
v 0.28394106 0.86796176 -0.091391005
v 0.22866184 0.86796176 -0.1141559
v 0.23540041 0.86796176 -0.10297716
v 0.17765273 0.86796176 0.058354452
v 0.1887926 0.86796176 0.053629115
v 0.29229593 0.8679619 0.09230072
v 0.30149397 0.8679619 0.08863374
v 0.637259 0.8679619 -0.21920103
v 0.6497212 0.86796176 -0.22068827
v 0.5130096 0.8679619 -0.03777403
v 0.51083755 0.8679619 -0.049666036
v 0.7020553 0.86796176 0.614202
v 0.88971245 0.86796176 0.6116524
v 0.89061505 0.86796176 0.62253284
v 0.7148888 0.86796176 0.626047
v 1.2497739 0.86796176 0.6249317
v 1.2402406 0.8679619 0.61668825
v 1.4999882 0.86796176 0.6121952
v 1.5141081 0.86796176 0.6222247
vt 0.12606826 0.45922923
vt 0.27907494 0.08968732
vt 0.27914762 0.08002851
vt 0.11740093 0.44402874
vt 0.2871355 0.9865925
vt 0.27798513 0.9781295
vt 0.28528488 0.9778788
vt 0.12586467 0.998008
vt 0.13183534 0.98995054
vt 0.08637987 0.8252542
vt 0.0956777 0.8253282
vt 0.06580928 0.6866529
vt 0.07230701 0.6790808
vt 0.027501367 0.6868475
vt 0.034042694 0.6796382
vt 0.0052771717 0.44588873
vt 0.012639822 0.4455003
vt 0.0007688798 0.19059044
vt 0.0071808835 0.19884911
vt 0.037376136 0.19928981
vt 0.04338047 0.20770235
vt 0.05521962 0.001992032
vt 0.061386935 0.011396914
vt 0.27914762 0.08002851
vt 0.27907494 0.08968732
vt 0.0025018712 0.51621246
vt 0.01067417 0.5188136
vt 0.0011250005 0.5264874
vt 0.15501072 0.56158054
vt 0.1466799 0.567636
vt 0.1493885 0.83401513
vt 0.13882183 0.8311189
vt 0.15132315 0.96878606
vt 0.14037411 0.97926927
vt 0.4776449 0.98768467
vt 0.48747426 0.99800795
vt 0.47453135 0.9008595
vt 0.48694497 0.8906176
vt 0.4222555 0.8899654
vt 0.43465915 0.880232
vt 0.43499437 0.6627223
vt 0.44376433 0.67344344
vt 0.48760453 0.6699871
vt 0.49628595 0.68167937
vt 0.5385196 0.37733242
vt 0.53240854 0.36423802
vt 0.23054214 0.010147216
vt 0.14565805 0.28879365
vt 0.21577826 0.0019920322
vt 0.15225217 0.29433346
vt 0.11740093 0.44402874
vt 0.12606826 0.45922923
vt 0.6503507 0.48371974
vt 0.48984104 0.43148798
vt 0.65131646 0.47198182
vt 0.4733162 0.43767262
vt 0.50269115 0.28457144
vt 0.5162146 0.28799003
vt 0.53126305 0.1853877
vt 0.55099005 0.17604433
vt 0.43238303 0.14945339
vt 0.43836308 0.13421112
vt 0.18478149 0.054980293
vt 0.19023733 0.042049468
vt 0.09301334 0.021565465
vt 0.08239116 0.001992032
vt 0.058699224 0.1433453
vt 0.045526233 0.14030385
vt 0.010333208 0.32210308
vt 0.024031345 0.3407019
vt 0.13394302 0.001992032
vt 0.13940343 0.015377442
vt 0.09704455 0.1966702
vt 0.07513763 0.1906773
vt 0.05281626 0.35284933
vt 0.03706973 0.3518505
vt 0.025108512 0.48932526
vt 0.012355488 0.49187607
vt 0.013876081 0.6367749
vt 0.0009505491 0.6414176
vt 0.01496438 0.7709767
vt 0.002274524 0.7700058
vt 0.03150317 0.9839976
vt 0.04418793 0.9845688
vt 0.655579 0.58662844
vt 0.6550807 0.46715245
vt 0.66478 0.56746584
vt 0.64175344 0.46759105
vt 0.6425776 0.35847366
vt 0.6590302 0.36004123
vt 0.6636068 0.24840043
vt 0.6779266 0.25189415
vt 0.6932461 0.16118513
vt 0.70919 0.1491209
vt 0.564892 0.13439715
vt 0.5596385 0.1148489
vt 0.54645497 0.17413566
vt 0.5424512 0.15347965
vt 0.056974575 0.02377239
vt 0.047668204 0.0019920322
vt 0.025732217 0.16396183
vt 0.013470693 0.16184764
vt 0.01700591 0.3113752
vt 0.0031187634 0.3107769
vt 0.0014805412 0.48929757
vt 0.01741974 0.5005241
vt 0.15815046 0.973501
vt 0.16721414 0.96074146
vt 0.17564806 0.9861208
vt 0.16657281 0.99800795
vt 0.3529167 0.9534358
vt 0.3651021 0.95962626
vt 0.34656575 0.9277229
vt 0.3597412 0.9365059
vt 0.49441606 0.90023696
vt 0.5067855 0.90859526
vt 0.48390383 0.80331725
vt 0.47027677 0.7912304
vt 0.47768465 0.03081177
vt 0.47368774 0.001992032
vt 0.39665127 0.1064446
vt 0.3830771 0.09387878
vt 0.29155427 0.16688085
vt 0.28401586 0.15071222
vt 0.18772785 0.19610839
vt 0.18114045 0.18072948
vt 0.08857478 0.20098203
vt 0.07090482 0.18528466
vt 0.0019287579 0.998008
vt 0.655579 0.58662844
vt 0.47734565 0.6495466
vt 0.16721414 0.96074146
vt 0.15815046 0.973501
vt 0.48957154 0.6593818
vt 0.02565759 0.4773655
vt 0.08124935 0.7465961
vt 0.016795939 0.49029088
vt 0.09137042 0.74338526
vt 0.14079762 0.9261981
vt 0.14937729 0.9158074
vt 0.20917542 0.90919137
vt 0.21687254 0.89741504
vt 0.24751705 0.998008
vt 0.25518554 0.9848098
vt 0.571441 0.87470394
vt 0.5593317 0.8686744
vt 0.48957154 0.6593818
vt 0.47734565 0.6495466
vt 0.5385196 0.37733242
vt 0.53240854 0.36423802
vt 0.02565759 0.4773655
vt 0.42392367 0.94823754
vt 0.01741974 0.5005241
vt 0.35869715 0.0129190525
vt 0.3645906 0.0019920322
vt 0.0014805412 0.48929757
vt 0.010333208 0.32210308
vt 0.024031345 0.3407019
vt 0.13940343 0.015377442
vt 0.13394302 0.001992032
vn -0 1 -7.616765E-06
vn -0 1 -8.3125383E-07
vn -0 1 -4.0897882E-07
vn -0 1 -8.137407E-06
vn -0 1 -2.299064E-06
vn -0 1 -2.3180496E-06
vn -0 1 0
vn -0 1 -1.6011544E-06
vn -0 1 -1.7509526E-06
vn -0 1 6.092867E-07
vn -0 1 4.6853017E-07
vn -0 1 2.6165394E-06
vn -0 1 2.699096E-06
vn -0 1 -5.531354E-06
vn -0 1 -5.3943745E-06
vn -0 1 -1.2062931E-06
vn -0 1 1.8375788E-07
vn -0 1 5.2377077E-06
vn -0 1 5.2332884E-06
vn -0 1 -6.116512E-07
vn -0 1 -8.053956E-07
vn -0 1 3.8576397E-07
vn -0 1 0
vn -0 1 -4.0897882E-07
vn -0 1 -8.3125383E-07
vn -0 1 0
vn -0 1 2.8582276E-06
vn -0 1 2.8274108E-06
vn -0 1 -3.6586946E-06
vn -0 1 -3.6374397E-06
vn 4.493317E-07 1 -6.623884E-06
vn 2.9598442E-07 1 -6.8215872E-06
vn 2.9678125E-07 1 -4.5027787E-07
vn 2.9677804E-07 1 -4.5025195E-07
vn 3.1043493E-07 1 0
vn 3.0778392E-07 1 0
vn 8.123002E-07 1 -4.571497E-06
vn 8.1526593E-07 1 -4.581853E-06
vn -0 1 -2.7961164E-06
vn -0 1 -2.7989624E-06
vn -0 1 -1.2921589E-06
vn -0 1 -1.821312E-06
vn 1.7435843E-06 1 -7.775584E-06
vn 1.7296065E-06 1 -7.689331E-06
vn 2.936669E-06 1 -7.771874E-06
vn 3.1121015E-06 1 -7.2827725E-06
vn -0 1 0
vn -0 1 -2.1962026E-06
vn -0 1 0
vn -0 1 -4.0413815E-06
vn -0 1 -8.137407E-06
vn -0 1 -7.616765E-06
vn -0 1 0
vn -0 1 0
vn -0 1 0
vn -0 1 0
vn -0 1 0
vn -0 1 0
vn -0 1 -3.147091E-06
vn -0 1 -1.9819277E-06
vn -0 1 -2.120505E-06
vn -0 1 -2.1105461E-06
vn -0 1 -2.0735583E-06
vn -0 1 -2.0640223E-06
vn -0 1 -2.8215602E-06
vn -0 1 -3.0524402E-06
vn 2.1548012E-06 1 5.86964E-07
vn 2.1423582E-06 1 5.8357466E-07
vn 1.2003525E-06 1 1.03833245E-05
vn 1.3378424E-06 1 9.831225E-06
vn 1.078121E-07 1 7.1801255E-06
vn 1.1828703E-07 1 8.006261E-06
vn -0 1 2.340053E-07
vn -0 1 2.2910126E-07
vn -0 1 6.165517E-07
vn -0 1 4.942936E-07
vn -0 1 -1.2136836E-07
vn -0 1 1.13879615E-07
vn -0 1 -3.6138366E-07
vn -0 1 -1.1816869E-06
vn -0 1 -1.1479991E-06
vn -0 1 -1.359344E-06
vn -0 1 0
vn -0 1 0
vn -0 1 1.1325339E-05
vn -0 1 4.7614557E-07
vn -0 1 1.179273E-05
vn -0 1 4.632433E-07
vn -0 1 0
vn -0 1 0
vn -0 1 8.983911E-07
vn -0 1 1.0495954E-06
vn -0 1 -3.3212048E-06
vn -0 1 -4.1534386E-06
vn -0 1 -5.2551677E-06
vn -0 1 -6.244524E-06
vn -0 1 -1.2827566E-07
vn -0 1 0
vn -0 1 -1.3135755E-07
vn -0 1 -1.1741359E-07
vn -0 1 0
vn -0 1 0
vn -0 1 -2.3905017E-07
vn -0 1 -2.4328818E-07
vn -0 1 -4.1537637E-06
vn -0 1 -4.011162E-06
vn -3.3552908E-07 1 4.0425766E-06
vn -3.505595E-07 1 4.0942273E-06
vn -0 1 -1.1946612E-06
vn -0 1 -1.4283802E-06
vn -0 1 -1.5183591E-06
vn -0 1 -1.5283332E-06
vn -0 1 -1.3839364E-06
vn -0 1 -1.3610511E-06
vn -0 1 -9.399297E-07
vn -0 1 -1.0118506E-06
vn -0 1 5.207671E-06
vn -0 1 5.478495E-06
vn -0 1 5.8564137E-06
vn -0 1 5.675916E-06
vn -0 1 4.0818773E-06
vn -0 1 4.470084E-06
vn -0 1 3.3707463E-06
vn -0 1 3.2276894E-06
vn -0 1 8.6621645E-07
vn -0 1 1.2044388E-06
vn -0 1 1.2902214E-05
vn -0 1 1.31414745E-05
vn -0 1 1.179273E-05
vn -0 1 1.1325339E-05
vn -3.9138104E-07 1 1.3086443E-06
vn -3.505595E-07 1 4.0942273E-06
vn -3.3552908E-07 1 4.0425766E-06
vn -3.912791E-07 1 1.2792102E-06
vn 1.6779238E-06 1 6.48845E-07
vn -3.1961687E-07 1 1.8518316E-06
vn 1.92335E-06 1 -2.6842986E-07
vn -3.8013414E-07 1 3.4322804E-06
vn -0 1 -4.894119E-06
vn -0 1 -3.9812567E-06
vn -0 1 5.1222696E-06
vn -0 1 4.917608E-06
vn -0 1 1.4033166E-06
vn -0 1 1.4854787E-06
vn -1.0992456E-07 1 0
vn -1.3697502E-07 1 0
vn -3.912791E-07 1 1.2792102E-06
vn -3.9138104E-07 1 1.3086443E-06
vn 2.936669E-06 1 -7.771874E-06
vn 3.1121015E-06 1 -7.2827725E-06
vn 1.6779238E-06 1 6.48845E-07
vn 1.92335E-06 1 -2.6842986E-07
vn -0 1 -4.011162E-06
vn -0 1 -5.8537394E-06
vn -0 1 -5.85374E-06
vn -0 1 -4.1537637E-06
vn 1.2003525E-06 1 1.03833245E-05
vn 1.3378424E-06 1 9.831225E-06
vn 1.1828703E-07 1 8.006261E-06
vn 1.078121E-07 1 7.1801255E-06
g alignment_border_light_0
f 3/3/3 2/2/2 1/1/1
f 4/4/4 3/3/3 1/1/1
f 7/7/7 6/6/6 5/5/5
f 5/5/5 6/6/6 8/8/8
f 6/6/6 9/9/9 8/8/8
f 8/8/8 9/9/9 10/10/10
f 9/9/9 11/11/11 10/10/10
f 10/10/10 11/11/11 12/12/12
f 11/11/11 13/13/13 12/12/12
f 12/12/12 13/13/13 14/14/14
f 13/13/13 15/15/15 14/14/14
f 14/14/14 15/15/15 16/16/16
f 15/15/15 17/17/17 16/16/16
f 16/16/16 17/17/17 18/18/18
f 17/17/17 19/19/19 18/18/18
f 18/18/18 19/19/19 20/20/20
f 19/19/19 21/21/21 20/20/20
f 20/20/20 21/21/21 22/22/22
f 21/21/21 23/23/23 22/22/22
f 22/22/22 23/23/23 24/24/24
f 23/23/23 25/25/25 24/24/24
f 28/28/28 27/27/27 26/26/26
f 29/29/29 27/27/27 28/28/28
f 30/30/30 29/29/29 28/28/28
f 31/31/31 29/29/29 30/30/30
f 32/32/32 31/31/31 30/30/30
f 33/33/33 31/31/31 32/32/32
f 34/34/34 33/33/33 32/32/32
f 35/35/35 33/33/33 34/34/34
f 36/36/36 35/35/35 34/34/34
f 37/37/37 35/35/35 36/36/36
f 38/38/38 37/37/37 36/36/36
f 39/39/39 37/37/37 38/38/38
f 40/40/40 39/39/39 38/38/38
f 41/41/41 39/39/39 40/40/40
f 42/42/42 41/41/41 40/40/40
f 43/43/43 41/41/41 42/42/42
f 44/44/44 43/43/43 42/42/42
f 44/44/44 45/45/45 43/43/43
f 45/45/45 46/46/46 43/43/43
f 49/49/49 48/48/48 47/47/47
f 48/48/48 50/50/50 47/47/47
f 48/48/48 51/51/51 50/50/50
f 51/51/51 52/52/52 50/50/50
f 55/55/55 54/54/54 53/53/53
f 54/54/54 56/56/56 53/53/53
f 57/57/57 56/56/56 54/54/54
f 58/58/58 57/57/57 54/54/54
f 59/59/59 57/57/57 58/58/58
f 60/60/60 59/59/59 58/58/58
f 61/61/61 59/59/59 60/60/60
f 62/62/62 61/61/61 60/60/60
f 63/63/63 61/61/61 62/62/62
f 64/64/64 63/63/63 62/62/62
f 65/65/65 63/63/63 64/64/64
f 66/66/66 65/65/65 64/64/64
f 67/67/67 65/65/65 66/66/66
f 68/68/68 67/67/67 66/66/66
f 68/68/68 69/69/69 67/67/67
f 69/69/69 70/70/70 67/67/67
f 73/73/73 72/72/72 71/71/71
f 74/74/74 73/73/73 71/71/71
f 75/75/75 73/73/73 74/74/74
f 76/76/76 75/75/75 74/74/74
f 77/77/77 75/75/75 76/76/76
f 78/78/78 77/77/77 76/76/76
f 79/79/79 77/77/77 78/78/78
f 80/80/80 79/79/79 78/78/78
f 81/81/81 79/79/79 80/80/80
f 82/82/82 81/81/81 80/80/80
f 82/82/82 83/83/83 81/81/81
f 83/83/83 84/84/84 81/81/81
f 87/87/87 86/86/86 85/85/85
f 86/86/86 88/88/88 85/85/85
f 89/89/89 88/88/88 86/86/86
f 90/90/90 89/89/89 86/86/86
f 91/91/91 89/89/89 90/90/90
f 92/92/92 91/91/91 90/90/90
f 93/93/93 91/91/91 92/92/92
f 94/94/94 93/93/93 92/92/92
f 95/95/95 93/93/93 94/94/94
f 96/96/96 95/95/95 94/94/94
f 97/97/97 95/95/95 96/96/96
f 98/98/98 97/97/97 96/96/96
f 99/99/99 97/97/97 98/98/98
f 100/100/100 99/99/99 98/98/98
f 101/101/101 99/99/99 100/100/100
f 102/102/102 101/101/101 100/100/100
f 103/103/103 101/101/101 102/102/102
f 104/104/104 103/103/103 102/102/102
f 104/104/104 105/105/105 103/103/103
f 105/105/105 106/106/106 103/103/103
f 109/109/109 108/108/108 107/107/107
f 110/110/110 109/109/109 107/107/107
f 111/111/111 109/109/109 110/110/110
f 112/112/112 111/111/111 110/110/110
f 113/113/113 111/111/111 112/112/112
f 114/114/114 113/113/113 112/112/112
f 115/115/115 113/113/113 114/114/114
f 116/116/116 115/115/115 114/114/114
f 116/116/116 117/117/117 115/115/115
f 117/117/117 118/118/118 115/115/115
f 119/119/119 118/118/118 117/117/117
f 120/120/120 119/119/119 117/117/117
f 121/121/121 119/119/119 120/120/120
f 122/122/122 121/121/121 120/120/120
f 123/123/123 121/121/121 122/122/122
f 124/124/124 123/123/123 122/122/122
f 125/125/125 123/123/123 124/124/124
f 126/126/126 125/125/125 124/124/124
f 127/127/127 125/125/125 126/126/126
f 128/128/128 127/127/127 126/126/126
f 127/127/127 128/128/128 129/129/129
f 130/130/130 127/127/127 129/129/129
f 133/133/133 132/132/132 131/131/131
f 134/134/134 133/133/133 131/131/131
f 137/137/137 136/136/136 135/135/135
f 136/136/136 138/138/138 135/135/135
f 138/138/138 136/136/136 139/139/139
f 140/140/140 138/138/138 139/139/139
f 140/140/140 139/139/139 141/141/141
f 142/142/142 140/140/140 141/141/141
f 142/142/142 141/141/141 143/143/143
f 144/144/144 142/142/142 143/143/143
f 144/144/144 143/143/143 145/145/145
f 146/146/146 144/144/144 145/145/145
f 145/145/145 147/147/147 146/146/146
f 147/147/147 148/148/148 146/146/146
f 151/151/151 150/150/150 149/149/149
f 152/152/152 151/151/151 149/149/149
f 155/155/155 154/154/154 153/153/153
f 156/156/156 155/155/155 153/153/153
f 159/159/159 158/158/158 157/157/157
f 160/160/160 159/159/159 157/157/157
