g env_echobasentrance_stalags_gb
v -9.623589 11.974049 27.795792
v -9.342937 8.290494 27.374813
v -9.939323 12.079292 27.30465
v -9.0272045 15.517277 26.111881
v -8.115087 14.605158 27.129242
v -7.623945 15.517277 26.988918
v -9.939323 12.079292 27.30465
v -10.114731 9.798996 27.725628
v -9.623589 11.974049 27.795792
v 4.829976 10.85144 26.60302
v 3.9178576 6.3960943 26.778427
v 4.794894 10.991766 27.023998
v 4.198509 10.255056 26.287289
v 4.829976 10.85144 26.60302
v 4.3739166 13.166819 26.041718
v 4.794894 10.991766 27.023998
v 5.391279 8.957041 26.743347
v 4.829976 10.85144 26.60302
v -3.7299023 14.920891 26.497776
v -4.045636 13.552713 26.673183
v -4.0105543 15.166462 26.84859
v -4.39645 14.675322 25.410252
v -4.6069393 13.272062 26.041718
v -4.361369 13.061573 25.86631
v -4.6069393 13.272062 26.041718
v -4.39645 14.675322 25.410252
v -4.747265 14.920891 25.690903
v -4.466614 13.587795 26.638103
v -4.7823467 15.13138 26.497776
v -4.5367765 15.236624 26.81351
v -3.7649841 14.710403 25.796146
v -4.15088 12.991411 25.86631
v -3.9053097 13.131737 26.076797
v -4.15088 12.991411 25.86631
v -3.7649841 14.710403 25.796146
v -4.115799 14.605158 25.410252
v -4.080717 12.149456 26.392532
v -4.2210436 11.167173 26.708263
v -4.045636 12.289782 26.532856
v -4.045636 12.289782 26.532856
v -4.2210436 11.167173 26.708263
v -4.15088 12.395025 26.638103
v -4.15088 12.395025 26.638103
v -4.2210436 11.167173 26.708263
v -4.361369 12.430107 26.638103
v -4.431532 12.324863 26.497776
v -4.2210436 11.167173 26.708263
v -4.431532 12.184536 26.357449
v -4.431532 12.184536 26.357449
v -4.2210436 11.167173 26.708263
v -4.2912064 12.079292 26.252205
v -4.2912064 12.079292 26.252205
v -4.2210436 11.167173 26.708263
v -4.1859617 12.04421 26.252205
v -4.361369 12.430107 26.638103
v -4.2210436 11.167173 26.708263
v -4.431532 12.324863 26.497776
v -4.1859617 12.04421 26.252205
v -4.2210436 11.167173 26.708263
v -4.080717 12.149456 26.392532
v -4.361369 13.061573 25.86631
v -4.431532 12.184536 26.357449
v -4.2912064 12.079292 26.252205
v -4.431532 12.184536 26.357449
v -4.361369 13.061573 25.86631
v -4.6069393 13.272062 26.041718
v -4.15088 12.991411 25.86631
v -4.2912064 12.079292 26.252205
v -4.1859617 12.04421 26.252205
v -4.2912064 12.079292 26.252205
v -4.15088 12.991411 25.86631
v -4.361369 13.061573 25.86631
v -4.677102 13.482552 26.462696
v -4.361369 12.430107 26.638103
v -4.431532 12.324863 26.497776
v -4.080717 12.149456 26.392532
v -4.15088 12.991411 25.86631
v -4.1859617 12.04421 26.252205
v -4.15088 12.991411 25.86631
v -4.080717 12.149456 26.392532
v -3.9053097 13.131737 26.076797
v -4.957754 15.341869 27.129242
v -5.4138136 13.517633 27.023998
v -5.3787317 15.657602 27.620384
v -6.0803614 13.622877 27.023998
v -6.6767464 15.657602 27.199406
v -6.255769 15.762846 27.620384
v -5.5190573 12.780922 25.796146
v -5.027917 15.166462 26.111881
v -5.554139 15.061216 25.585659
v -5.34365 10.956686 26.076797
v -5.4839764 8.992123 26.111881
v -5.34365 11.202255 26.322369
v -5.34365 11.202255 26.322369
v -5.4839764 8.992123 26.111881
v -5.5190573 11.377663 26.497776
v -5.5190573 11.377663 26.497776
v -5.4839764 8.992123 26.111881
v -5.7997093 11.4127445 26.497776
v -5.904954 11.06193 26.076797
v -5.4839764 8.992123 26.111881
v -5.7295465 10.85144 25.90139
v -5.7295465 10.85144 25.90139
v -5.4839764 8.992123 26.111881
v -5.554139 10.816359 25.90139
v -5.7997093 11.4127445 26.497776
v -5.4839764 8.992123 26.111881
v -5.9751167 11.272419 26.322369
v -5.34365 11.202255 26.322369
v -5.1331615 12.956329 26.111881
v -5.34365 10.956686 26.076797
v -5.1331615 12.956329 26.111881
v -5.34365 11.202255 26.322369
v -5.0980797 13.23698 26.673183
v -5.9751167 11.272419 26.322369
v -6.2908497 13.166819 26.111881
v -6.3960943 13.44747 26.743347
v -5.9751167 11.272419 26.322369
v -5.904954 11.06193 26.076797
v -5.4839764 8.992123 26.111881
v -5.904954 12.886166 25.796146
v -5.904954 11.06193 26.076797
v -5.7295465 10.85144 25.90139
v -6.3960943 13.44747 26.743347
v -5.7997093 11.4127445 26.497776
v -5.9751167 11.272419 26.322369
v -8.500982 10.85144 27.339733
v -9.342937 8.290494 27.374813
v -8.571145 10.781279 27.901035
v -8.115087 14.605158 27.129242
v -7.939679 14.394669 28.076443
v -7.623945 15.517277 26.988918
v -7.3082123 15.517277 28.28693
v -8.992123 11.202255 26.918755
v -9.342937 8.290494 27.374813
v -8.500982 10.85144 27.339733
v -9.097368 14.289425 26.427612
v -8.115087 14.605158 27.129242
v -9.0272045 15.517277 26.111881
v -9.65867 11.693396 26.88367
v -9.342937 8.290494 27.374813
v -8.992123 11.202255 26.918755
v -9.097368 14.289425 26.427612
v -10.255056 13.693041 26.462696
v -9.0272045 15.517277 26.111881
v -10.676033 15.517277 26.182041
v -10.816359 13.272062 27.164326
v -11.482908 15.517277 27.094162
v -9.939323 12.079292 27.30465
v -10.3603 11.763559 27.409893
v -10.114731 9.798996 27.725628
v -9.939323 12.079292 27.30465
v -9.342937 8.290494 27.374813
v -9.65867 11.693396 26.88367
v -10.255056 13.693041 26.462696
v -11.868803 15.517277 28.006279
v -10.816359 13.272062 27.164326
v -11.482908 15.517277 27.094162
v -10.921604 13.342226 27.760708
v -10.3603 11.763559 27.409893
v -10.395382 11.798641 27.725628
v -10.114731 9.798996 27.725628
v -10.605871 15.517277 28.532501
v -10.921604 13.342226 27.760708
v -11.868803 15.517277 28.006279
v -10.2199745 13.377306 28.146606
v -10.395382 11.798641 27.725628
v -8.781634 15.517277 28.778072
v -10.079649 11.798641 27.901035
v -10.114731 9.798996 27.725628
v -9.623589 11.974049 27.795792
v -8.957041 13.93861 28.427258
v -7.939679 14.394669 28.076443
v -7.3082123 15.517277 28.28693
v -8.571145 10.781279 27.901035
v -8.992123 11.447826 28.076443
v -9.342937 8.290494 27.374813
v 3.7424505 9.483263 26.252205
v 3.9178576 6.3960943 26.778427
v 4.198509 10.255056 26.287289
v 4.3739166 13.166819 26.041718
v 3.2863913 13.728121 25.936474
v 4.44408 15.376951 25.725983
v 2.900495 15.376951 25.620739
v 5.286035 12.535351 26.60302
v 6.1981535 15.376951 26.182041
v 4.829976 10.85144 26.60302
v 5.286035 10.676033 26.673183
v 5.391279 8.957041 26.743347
v 2.4093547 15.376951 26.56794
v 3.2863913 13.728121 25.936474
v 2.900495 15.376951 25.620739
v 3.0057397 13.973692 26.638103
v 3.040821 15.376951 27.620384
v 3.7424505 9.483263 26.252205
v 3.4267173 13.587795 27.409893
v 3.3916357 9.553427 26.60302
v 3.9178576 6.3960943 26.778427
v 3.5319617 9.939323 27.059078
v 6.1981535 15.376951 26.182041
v 5.6017685 12.465189 27.094162
v 7.1102715 15.376951 27.129242
v 5.286035 12.535351 26.60302
v 5.4614425 10.640951 26.918755
v 5.286035 10.676033 26.673183
v 5.391279 8.957041 26.743347
v -3.7649841 14.710403 25.796146
v -3.8702288 13.342226 26.462696
v -3.7299023 14.920891 26.497776
v -3.9053097 13.131737 26.076797
v -4.045636 13.552713 26.673183
v -3.7299023 14.920891 26.497776
v -3.8702288 13.342226 26.462696
v -4.15088 12.395025 26.638103
v -4.045636 12.289782 26.532856
v -4.0105543 15.166462 26.84859
v -4.466614 13.587795 26.638103
v -4.5367765 15.236624 26.81351
v -4.045636 13.552713 26.673183
v -4.747265 14.920891 25.690903
v -4.677102 13.482552 26.462696
v -4.6069393 13.272062 26.041718
v -4.7823467 15.13138 26.497776
v -4.115799 14.605158 25.410252
v -4.361369 13.061573 25.86631
v -4.15088 12.991411 25.86631
v -4.39645 14.675322 25.410252
v -4.7823467 15.13138 26.497776
v -4.466614 13.587795 26.638103
v -4.677102 13.482552 26.462696
v -4.361369 12.430107 26.638103
v -4.045636 12.289782 26.532856
v -3.9053097 13.131737 26.076797
v -4.080717 12.149456 26.392532
v -3.8702288 13.342226 26.462696
v -4.361369 12.430107 26.638103
v -4.045636 13.552713 26.673183
v -4.15088 12.395025 26.638103
v -4.466614 13.587795 26.638103
v -4.6069393 13.272062 26.041718
v -4.431532 12.324863 26.497776
v -4.431532 12.184536 26.357449
v -4.677102 13.482552 26.462696
v -5.027917 15.166462 26.111881
v -5.0980797 13.23698 26.673183
v -4.957754 15.341869 27.129242
v -5.1331615 12.956329 26.111881
v -5.4138136 13.517633 27.023998
v -4.957754 15.341869 27.129242
v -5.0980797 13.23698 26.673183
v -5.5190573 11.377663 26.497776
v -5.34365 11.202255 26.322369
v -5.3787317 15.657602 27.620384
v -6.0803614 13.622877 27.023998
v -6.255769 15.762846 27.620384
v -5.4138136 13.517633 27.023998
v -5.7997093 11.4127445 26.497776
v -5.5190573 11.377663 26.497776
v -6.5715017 15.517277 26.076797
v -6.3960943 13.44747 26.743347
v -6.2908497 13.166819 26.111881
v -6.6767464 15.657602 27.199406
v -6.2908497 13.166819 26.111881
v -6.0101976 15.201544 25.620739
v -6.5715017 15.517277 26.076797
v -5.904954 12.886166 25.796146
v -5.904954 11.06193 26.076797
v -5.554139 15.061216 25.585659
v -5.904954 12.886166 25.796146
v -5.5190573 12.780922 25.796146
v -6.0101976 15.201544 25.620739
v -5.7295465 10.85144 25.90139
v -5.5190573 12.780922 25.796146
v -5.554139 10.816359 25.90139
v -6.6767464 15.657602 27.199406
v -6.0803614 13.622877 27.023998
v -6.3960943 13.44747 26.743347
v -5.7997093 11.4127445 26.497776
v -5.027917 15.166462 26.111881
v -5.5190573 12.780922 25.796146
v -5.1331615 12.956329 26.111881
v -5.34365 10.956686 26.076797
v -5.554139 10.816359 25.90139
v -5.4839764 8.992123 26.111881
v -5.34365 10.956686 26.076797
v -5.5190573 12.780922 25.796146
v 5.4614425 10.640951 26.918755
v 5.391279 8.957041 26.743347
v 5.2509537 10.640951 27.094162
v 5.6017685 12.465189 27.094162
v 4.794894 10.991766 27.023998
v 5.180791 12.395025 27.444977
v 7.1102715 15.376951 27.129242
v 6.233235 15.376951 27.830872
v 4.4791613 15.376951 28.076443
v 4.303754 12.886166 27.760708
v 3.040821 15.376951 27.620384
v 3.4267173 13.587795 27.409893
v 4.023102 10.535707 27.26957
v 3.9178576 6.3960943 26.778427
v 3.5319617 9.939323 27.059078
vt 0.7441805 0.5081621
vt 0.055392023 -5.9604645E-08
vt 0.40460297 0.52502054
vt 0.21193486 0.99946576
vt 0.05298367 0.87182313
vt 0.057800375 0.99946576
vt 0.40460297 0.52502054
vt 0.6213546 0.20711815
vt 0.7441805 0.5081621
vt 1.2234426 0.49612033
vt 0.47926188 -5.9604645E-08
vt 0.7706724 0.5129788
vt 0.32512736 0.4286865
vt 0.22397661 0.49612033
vt 0.28900212 0.7514056
vt 0.7706724 0.5129788
vt 1.0428162 0.2841854
vt 1.2234426 0.49612033
vt 1.0018742 0.8742315
vt 0.9729739 0.66952163
vt 0.9440737 0.90794843
vt 0.17099288 0.8381062
vt 0.13486762 0.6285797
vt 0.13005091 0.5996794
vt 0.13486762 0.6285797
vt 0.17099288 0.8381062
vt 0.185443 0.87182313
vt 0.9633405 0.67674667
vt 1.0090992 0.9031317
vt 0.9151735 0.9199902
vt 0.096333995 0.8429229
vt 0.110784106 0.5924544
vt 0.06743378 0.60931283
vt 0.110784106 0.5924544
vt 0.096333995 0.8429229
vt 0.14690937 0.82606447
vt 1.0259576 0.46240342
vt 0.9585238 0.32031068
vt 0.99946576 0.48407856
vt 0.99946576 0.48407856
vt 0.9585238 0.32031068
vt 0.9777906 0.50093704
vt 0.9777906 0.50093704
vt 0.9585238 0.32031068
vt 0.97538227 0.5033454
vt 1.0042825 0.49130362
vt 0.9585238 0.32031068
vt 1.0452244 0.46962845
vt 1.0452244 0.46962845
vt 0.9585238 0.32031068
vt 1.0596745 0.45277
vt 1.0596745 0.45277
vt 0.9585238 0.32031068
vt 1.0524495 0.44795328
vt 0.97538227 0.5033454
vt 0.9585238 0.32031068
vt 1.0042825 0.49130362
vt 1.0524495 0.44795328
vt 0.9585238 0.32031068
vt 1.0259576 0.46240342
vt 0.13005091 0.5996794
vt 0.045758616 0.46962845
vt 0.060208727 0.45277
vt 0.045758616 0.46962845
vt 0.13005091 0.5996794
vt 0.13486762 0.6285797
vt 0.110784106 0.5924544
vt 0.060208727 0.45277
vt 0.05298367 0.44795328
vt 0.060208727 0.45277
vt 0.110784106 0.5924544
vt 0.13005091 0.5996794
vt 1.0259576 0.6598882
vt 0.97538227 0.5033454
vt 1.0042825 0.49130362
vt 0.026491806 0.46240342
vt 0.110784106 0.5924544
vt 0.05298367 0.44795328
vt 0.110784106 0.5924544
vt 0.026491806 0.46240342
vt 0.06743378 0.60931283
vt 0.7995726 0.93684864
vt 0.7008302 0.66952163
vt 0.7297304 0.9826073
vt 0.6044961 0.67915505
vt 0.58522934 0.98501563
vt 0.6502548 0.99946576
vt 0.30104387 0.55873746
vt 0.1998931 0.90794843
vt 0.2938188 0.8934983
vt 0.2938188 0.28900212
vt 0.32994407 -5.9604645E-08
vt 0.32753572 0.32271904
vt 0.32753572 0.32271904
vt 0.32994407 -5.9604645E-08
vt 0.49371198 0.35161924
vt 0.49371198 0.35161924
vt 0.32994407 -5.9604645E-08
vt 0.49371198 0.35643595
vt 0.38774452 0.30104387
vt 0.32994407 -5.9604645E-08
vt 0.3395775 0.274552
vt 0.3395775 0.274552
vt 0.32994407 -5.9604645E-08
vt 0.31308562 0.26732695
vt 0.49371198 0.35643595
vt 0.32994407 -5.9604645E-08
vt 0.44795328 0.3347608
vt 0.32753572 0.32271904
vt 1.2306676 0.58282095
vt 0.2938188 0.28900212
vt 1.2306676 0.58282095
vt 0.32753572 0.32271904
vt 0.82365614 0.62376297
vt 0.44795328 0.3347608
vt 0.42627814 0.61653787
vt 0.5370623 0.6574799
vt 0.44795328 0.3347608
vt 0.38774452 0.30104387
vt 0.32994407 -5.9604645E-08
vt 0.3492109 0.5731876
vt 0.38774452 0.30104387
vt 0.3395775 0.274552
vt 0.5370623 0.6574799
vt 0.49371198 0.35643595
vt 0.44795328 0.3347608
vt 1.0211408 0.3540276
vt 1.0572662 -5.9604645E-08
vt 0.8959066 0.34680253
vt 1.0524495 0.87182313
vt 0.90794843 0.8429229
vt 1.0572662 0.99946576
vt 0.91035676 0.99946576
vt 0.15895113 0.39978626
vt 0.055392023 -5.9604645E-08
vt 0.01926675 0.3540276
vt 0.20711815 0.82606447
vt 0.05298367 0.87182313
vt 0.21193486 0.99946576
vt 0.26010188 0.46962845
vt 0.055392023 -5.9604645E-08
vt 0.15895113 0.39978626
vt 0.20711815 0.82606447
vt 0.31067726 0.7441805
vt 0.21193486 0.99946576
vt 0.32512736 0.99946576
vt 0.44072825 0.6887884
vt 0.45277 0.99946576
vt 0.40460297 0.52502054
vt 0.49371198 0.47926188
vt 0.6213546 0.20711815
vt 0.40460297 0.52502054
vt 0.055392023 -5.9604645E-08
vt 0.26010188 0.46962845
vt 0.31067726 0.7441805
vt 0.56355417 0.99946576
vt 0.44072825 0.6887884
vt 0.45277 0.99946576
vt 0.55873746 0.6960135
vt 0.49371198 0.47926188
vt 0.58282095 0.48407856
vt 0.6213546 0.20711815
vt 0.66952163 0.99946576
vt 0.55873746 0.6960135
vt 0.56355417 0.99946576
vt 0.67192996 0.70323855
vt 0.58282095 0.48407856
vt 0.8043893 0.99946576
vt 0.6647049 0.4864869
vt 0.6213546 0.20711815
vt 0.7441805 0.5081621
vt 0.8067976 0.7778974
vt 0.90794843 0.8429229
vt 0.91035676 0.99946576
vt 0.8959066 0.34680253
vt 0.8284728 0.4383199
vt 1.0572662 -5.9604645E-08
vt 0.3684777 0.34198582
vt 0.47926188 -5.9604645E-08
vt 0.32512736 0.4286865
vt 0.28900212 0.7514056
vt 0.363661 0.8140227
vt 0.274552 0.99946576
vt 0.35643595 0.99946576
vt 0.11560081 0.6815634
vt 0.113192454 0.99946576
vt 0.22397661 0.49612033
vt 0.09151729 0.47685352
vt 0.043350264 0.2841854
vt 0.4672201 0.99946576
vt 0.363661 0.8140227
vt 0.35643595 0.99946576
vt 0.46240342 0.8429229
vt 0.61412954 0.99946576
vt 0.3684777 0.34198582
vt 0.6069045 0.7995726
vt 0.45036164 0.3492109
vt 0.47926188 -5.9604645E-08
vt 0.55392075 0.39256123
vt 1.1126583 0.99946576
vt 0.9223985 0.67433834
vt 0.96574885 0.99946576
vt 1.1150665 0.6815634
vt 0.9729739 0.4720368
vt 1.0909832 0.47685352
vt 1.0428162 0.2841854
vt 0.096333995 0.8429229
vt 0.0096333455 0.6406214
vt 0.0024082917 0.8742315
vt 0.06743378 0.60931283
vt 0.9729739 0.66952163
vt 1.0018742 0.8742315
vt 1.0090992 0.6406214
vt 0.9777906 0.50093704
vt 0.99946576 0.48407856
vt 0.9440737 0.90794843
vt 0.9633405 0.67674667
vt 0.9151735 0.9199902
vt 0.9729739 0.66952163
vt 0.185443 0.87182313
vt 0.026491806 0.6598882
vt 0.13486762 0.6285797
vt 0.0096333455 0.9031317
vt 0.14690937 0.82606447
vt 0.13005091 0.5996794
vt 0.110784106 0.5924544
vt 0.17099288 0.8381062
vt 1.0090992 0.9031317
vt 0.9633405 0.67674667
vt 1.0259576 0.6598882
vt 0.97538227 0.5033454
vt 0.99946576 0.48407856
vt 1.0668995 0.60931283
vt 1.0259576 0.46240342
vt 1.0090992 0.6406214
vt 0.97538227 0.5033454
vt 0.9729739 0.66952163
vt 0.9777906 0.50093704
vt 0.9633405 0.67674667
vt 0.13486762 0.6285797
vt 0.0024082917 0.49130362
vt 0.045758616 0.46962845
vt 0.026491806 0.6598882
vt 1.1993589 0.90794843
vt 0.82365614 0.62376297
vt 0.7995726 0.93684864
vt 1.2306676 0.58282095
vt 0.7008302 0.66952163
vt 0.7995726 0.93684864
vt 0.82365614 0.62376297
vt 0.49371198 0.35161924
vt 0.32753572 0.32271904
vt 0.7297304 0.9826073
vt 0.6044961 0.67915505
vt 0.6502548 0.99946576
vt 0.7008302 0.66952163
vt 0.49371198 0.35643595
vt 0.49371198 0.35161924
vt 0.43350318 0.9633405
vt 0.5370623 0.6574799
vt 0.42627814 0.61653787
vt 0.58522934 0.98501563
vt 0.42627814 0.61653787
vt 0.34680253 0.9151735
vt 0.43350318 0.9633405
vt 0.3492109 0.5731876
vt 0.38774452 0.30104387
vt 0.2938188 0.8934983
vt 0.3492109 0.5731876
vt 0.30104387 0.55873746
vt 0.34680253 0.9151735
vt 0.3395775 0.274552
vt 0.30104387 0.55873746
vt 0.31308562 0.26732695
vt 0.58522934 0.98501563
vt 0.6044961 0.67915505
vt 0.5370623 0.6574799
vt 0.49371198 0.35643595
vt 0.1998931 0.90794843
vt 0.30104387 0.55873746
vt 0.23120168 0.58282095
vt 0.2938188 0.28900212
vt 0.31308562 0.26732695
vt 0.32994407 -5.9604645E-08
vt 0.2938188 0.28900212
vt 0.30104387 0.55873746
vt 0.9729739 0.4720368
vt 1.0428162 0.2841854
vt 0.87663984 0.46962845
vt 0.9223985 0.67433834
vt 0.7706724 0.5129788
vt 0.8067976 0.66952163
vt 0.96574885 0.99946576
vt 0.8549647 0.99946576
vt 0.73213875 0.99946576
vt 0.7104636 0.720097
vt 0.61412954 0.99946576
vt 0.6069045 0.7995726
vt 0.63821304 0.4575867
vt 0.47926188 -5.9604645E-08
vt 0.55392075 0.39256123
vn -0.33104247 -0.14344442 0.93264925
vn -0.45757228 -0.1750769 0.87176585
vn -0.8371617 -0.111811996 0.5354048
vn 0.3016067 -0.26997423 -0.9144109
vn 0.77609354 -0.33323914 -0.5353788
vn 0.74446106 -0.459769 -0.48413858
vn 0.807726 -0.1750769 -0.5629625
vn 0.807726 -0.1750769 -0.5629625
vn 0.807726 -0.1750769 -0.5629625
vn 0.5862988 -0.14344442 -0.7972938
vn 0.6495637 -0.1750769 -0.739875
vn 0.96588826 -0.20670933 0.15598439
vn 0.3965041 -0.111811996 -0.91119844
vn 0.5862988 -0.14344442 -0.7972938
vn 0.26997423 -0.111811996 -0.9563535
vn -0.96292764 -0.26976022 -0
vn -0.96292764 -0.26976022 -0
vn -0.96292764 -0.26976022 -0
vn 0.74446106 -0.111811996 0.65823686
vn 0.74446106 -0.111811996 0.65823686
vn 0.74446106 -0.111811996 0.65823686
vn -0.6789995 -0.20670933 -0.70443666
vn -0.6789995 -0.20670933 -0.70443666
vn -0.6789995 -0.20670933 -0.70443666
vn -0.7106319 -0.1750769 -0.68143255
vn -0.7106319 -0.1750769 -0.68143255
vn -0.7106319 -0.1750769 -0.68143255
vn -0.74226433 -0.111811996 0.6607131
vn -0.74226433 -0.111811996 0.6607131
vn -0.74226433 -0.111811996 0.6607131
vn 0.71282864 -0.1750769 -0.6791343
vn 0.71282864 -0.1750769 -0.6791343
vn 0.71282864 -0.1750769 -0.6791343
vn 0.74446106 -0.1750769 -0.64430255
vn 0.74446106 -0.1750769 -0.64430255
vn 0.74446106 -0.1750769 -0.64430255
vn 0.99377656 -0.11139231 -0
vn 0.99377656 -0.11139231 -0
vn 0.99377656 -0.11139231 -0
vn 0.77609354 0.014717877 0.630446
vn 0.77609354 0.014717877 0.630446
vn 0.77609354 0.014717877 0.630446
vn -0.0463503 0.07798272 0.99587667
vn -0.0463503 0.07798272 0.99587667
vn -0.0463503 0.07798272 0.99587667
vn -0.96369153 -0.20670933 -0.16902637
vn -0.96369153 -0.20670933 -0.16902637
vn -0.96369153 -0.20670933 -0.16902637
vn -0.77389675 -0.36487162 -0.5176413
vn -0.77389675 -0.36487162 -0.5176413
vn -0.77389675 -0.36487162 -0.5176413
vn -0.0463503 -0.459769 -0.8868281
vn -0.0463503 -0.459769 -0.8868281
vn -0.0463503 -0.459769 -0.8868281
vn -0.74226433 -0.016914606 0.66989374
vn -0.74226433 -0.016914606 0.66989374
vn -0.74226433 -0.016914606 0.66989374
vn 0.77609354 -0.3016067 -0.553816
vn 0.77609354 -0.3016067 -0.553816
vn 0.77609354 -0.3016067 -0.553816
vn -0.77389675 -0.26997423 -0.57288545
vn -0.77389675 -0.26997423 -0.57288545
vn -0.77389675 -0.26997423 -0.57288545
vn -0.7106319 -0.33323914 -0.6196402
vn -0.7106319 -0.33323914 -0.6196402
vn -0.7106319 -0.33323914 -0.6196402
vn -0.014717877 -0.3965041 -0.917915
vn -0.014717877 -0.3965041 -0.917915
vn -0.014717877 -0.3965041 -0.917915
vn -0.07798272 -0.36487162 -0.9277863
vn -0.07798272 -0.36487162 -0.9277863
vn -0.07798272 -0.36487162 -0.9277863
vn -0.7106319 -0.111811996 0.69462246
vn -0.7106319 -0.111811996 0.69462246
vn -0.7106319 -0.111811996 0.69462246
vn 0.77609354 -0.26997423 -0.5699059
vn 0.77609354 -0.26997423 -0.5699059
vn 0.77609354 -0.26997423 -0.5699059
vn 0.71282864 -0.33323914 -0.6171118
vn 0.71282864 -0.33323914 -0.6171118
vn 0.71282864 -0.33323914 -0.6171118
vn 0.6811962 -0.20670933 0.7023126
vn 0.6811962 -0.20670933 0.7023126
vn 0.6811962 -0.20670933 0.7023126
vn -0.6789995 -0.23834181 0.69437236
vn -0.6789995 -0.23834181 0.69437236
vn -0.6789995 -0.23834181 0.69437236
vn 0.71282864 -0.04854709 -0.699656
vn 0.71282864 -0.04854709 -0.699656
vn 0.71282864 -0.04854709 -0.699656
vn 0.9967852 -0.08012039 -0
vn 0.9967852 -0.08012039 -0
vn 0.9967852 -0.08012039 -0
vn 0.71282864 -0.111811996 0.692368
vn 0.71282864 -0.111811996 0.692368
vn 0.71282864 -0.111811996 0.692368
vn -0.0463503 -0.1750769 0.9834631
vn -0.0463503 -0.1750769 0.9834631
vn -0.0463503 -0.1750769 0.9834631
vn -0.74226433 -0.1750769 -0.6468321
vn -0.74226433 -0.1750769 -0.6468321
vn -0.74226433 -0.1750769 -0.6468321
vn -0.0463503 -0.111811996 -0.9926479
vn -0.0463503 -0.111811996 -0.9926479
vn -0.0463503 -0.111811996 -0.9926479
vn -0.6789995 -0.20670933 0.70443666
vn -0.6789995 -0.20670933 0.70443666
vn -0.6789995 -0.20670933 0.70443666
vn 0.99377656 -0.11139231 -0
vn 0.99377656 -0.11139231 -0
vn 0.99377656 -0.11139231 -0
vn 0.99377656 -0.11139231 -0
vn 0.99377656 -0.11139231 -0
vn 0.99377656 -0.11139231 -0
vn -0.9848797 -0.17323977 -0
vn -0.9848797 -0.17323977 -0
vn -0.9848797 -0.17323977 -0
vn -0.96369153 -0.20670933 -0.16902637
vn -0.96369153 -0.20670933 -0.16902637
vn -0.96369153 -0.20670933 -0.16902637
vn -0.7106319 -0.08017951 -0.69898033
vn -0.7106319 -0.08017951 -0.69898033
vn -0.7106319 -0.08017951 -0.69898033
vn -0.64736694 -0.26997423 0.7127622
vn -0.64736694 -0.26997423 0.7127622
vn -0.64736694 -0.26997423 0.7127622
vn 0.90262336 -0.20670933 -0.3775478
vn 0.3965041 -0.33323914 -0.8554158
vn 0.96588826 -0.20670933 0.15598439
vn 0.77609354 -0.33323914 -0.5353788
vn 0.90262336 -0.33323914 -0.27243853
vn 0.74446106 -0.459769 -0.48413858
vn 0.87099093 -0.459769 -0.17316826
vn 0.3016067 -0.14344442 -0.94258004
vn 0.3965041 -0.33323914 -0.8554158
vn 0.90262336 -0.20670933 -0.3775478
vn 0.36487162 -0.20670933 -0.9078216
vn 0.77609354 -0.33323914 -0.5353788
vn 0.3016067 -0.26997423 -0.9144109
vn -0.5208371 -0.20670933 -0.8282511
vn 0.3965041 -0.33323914 -0.8554158
vn 0.3016067 -0.14344442 -0.94258004
vn 0.36487162 -0.20670933 -0.9078216
vn -0.33104247 -0.3016067 -0.8941165
vn 0.3016067 -0.26997423 -0.9144109
vn -0.45757228 -0.20670933 -0.8648115
vn -0.8055293 -0.36487162 -0.46689534
vn -0.8371617 -0.23834181 -0.49229404
vn -0.6157345 -0.3016067 -0.7279453
vn -0.64736694 -0.23834181 -0.7239539
vn -0.6157345 -0.20670933 -0.76035666
vn -0.6157345 -0.3016067 -0.7279453
vn 0.3965041 -0.33323914 -0.8554158
vn -0.5208371 -0.20670933 -0.8282511
vn -0.33104247 -0.3016067 -0.8941165
vn -0.90042657 -0.3016067 -0.3134731
vn -0.8055293 -0.36487162 -0.46689534
vn -0.8371617 -0.23834181 -0.49229404
vn -0.93119097 -0.36453176 -0
vn -0.64736694 -0.23834181 -0.7239539
vn -0.96369153 -0.23834181 -0.12038206
vn -0.6157345 -0.20670933 -0.76035666
vn -0.2677775 -0.23834181 0.9335354
vn -0.45757228 -0.20670933 0.8648115
vn -0.3626749 -0.26997423 0.89195335
vn -0.2677775 -0.23834181 0.9335354
vn -0.4892047 -0.111811996 0.8649722
vn 0.14344442 -0.26997423 0.9521227
vn -0.07798272 -0.111811996 0.99066484
vn -0.10961527 -0.08017951 0.99073493
vn -0.33104247 -0.14344442 0.93264925
vn 0.111811996 -0.20670933 0.9719925
vn 0.36487162 -0.23834181 0.9000344
vn 0.3016067 -0.33323914 0.8933001
vn 0.111811996 -0.20670933 0.9719925
vn -0.17288011 -0.14344442 0.97444147
vn -0.45757228 -0.1750769 0.87176585
vn 0.23834181 -0.14344442 -0.9605295
vn 0.6495637 -0.1750769 -0.739875
vn 0.3965041 -0.111811996 -0.91119844
vn 0.26997423 -0.111811996 -0.9563535
vn 0.016914606 -0.111811996 -0.9935854
vn 0.1750769 -0.1750769 -0.9688633
vn 0.08017951 -0.1750769 -0.9812845
vn 0.61793125 -0.1750769 -0.76649135
vn 0.5230339 -0.3016067 -0.79716307
vn 0.5862988 -0.14344442 -0.7972938
vn 0.49140143 -0.016914606 -0.87076896
vn 0.459769 -0.016914606 -0.88787746
vn -0.93119097 -0.36453176 -0
vn -0.90042657 -0.20670933 -0.38275743
vn -0.8371617 -0.3016067 -0.4562824
vn -0.96292764 -0.26976022 -0
vn -0.64736694 -0.23834181 0.7239539
vn -0.7106319 -0.111811996 -0.69462246
vn -0.7106319 -0.1750769 0.68143255
vn -0.96369153 -0.14344442 -0.22521624
vn -0.64736694 -0.23834181 0.7239539
vn -0.6789995 -0.111811996 0.72557414
vn 0.5230339 -0.3016067 -0.79716307
vn 0.77609354 -0.1750769 -0.60582745
vn 0.6811962 -0.33323914 -0.6518615
vn 0.61793125 -0.1750769 -0.76649135
vn 0.807726 0.014717877 -0.5893743
vn 0.49140143 -0.016914606 -0.87076896
vn 0.459769 -0.016914606 -0.88787746
vn 0.9967852 -0.08012039 -0
vn 0.9967852 -0.08012039 -0
vn 0.9967852 -0.08012039 -0
vn 0.9967852 -0.08012039 -0
vn 0.6811962 -0.08017951 0.727697
vn 0.6811962 -0.08017951 0.727697
vn 0.6811962 -0.08017951 0.727697
vn 0.6811962 -0.08017951 0.727697
vn 0.6811962 -0.08017951 0.727697
vn -0.07798272 -0.111811996 0.99066484
vn -0.07798272 -0.111811996 0.99066484
vn -0.07798272 -0.111811996 0.99066484
vn -0.0463503 -0.111811996 0.9926479
vn -0.99532396 -0.08017951 -0.05386519
vn -0.99532396 -0.08017951 -0.05386519
vn -0.99532396 -0.08017951 -0.05386519
vn -0.99532396 -0.08017951 -0.05386519
vn -0.0463503 -0.26997423 -0.9617513
vn -0.0463503 -0.26997423 -0.9617513
vn -0.0463503 -0.26997423 -0.9617513
vn -0.0463503 -0.26997423 -0.9617513
vn -0.6789995 -0.08017951 0.7297472
vn -0.6789995 -0.08017951 0.7297472
vn -0.6789995 -0.08017951 0.7297472
vn -0.6789995 -0.08017951 0.7297472
vn 0.9849447 -0.17286965 -0
vn 0.9849447 -0.17286965 -0
vn 0.9849447 -0.17286965 -0
vn 0.9849447 -0.17286965 -0
vn -0.07798272 -0.016914606 0.9968112
vn -0.07798272 -0.016914606 0.9968112
vn -0.07798272 -0.016914606 0.9968112
vn -0.0463503 -0.016914606 0.99878204
vn -0.9848797 -0.17323977 -0
vn -0.9848797 -0.17323977 -0
vn -0.9848797 -0.17323977 -0
vn -0.9848797 -0.17323977 -0
vn 0.99752074 -0.04854709 -0.050946552
vn 0.99752074 -0.04854709 -0.050946552
vn 0.99752074 -0.04854709 -0.050946552
vn 0.99752074 -0.04854709 -0.050946552
vn 0.61793125 -0.20670933 0.7585725
vn 0.61793125 -0.20670933 0.7585725
vn 0.61793125 -0.20670933 0.7585725
vn 0.61793125 -0.20670933 0.7585725
vn 0.61793125 -0.20670933 0.7585725
vn -0.0463503 -0.26997423 0.9617513
vn -0.0463503 -0.26997423 0.9617513
vn -0.0463503 -0.26997423 0.9617513
vn -0.0463503 -0.26997423 0.9617513
vn -0.0463503 -0.23834181 0.97007465
vn -0.0463503 -0.23834181 0.97007465
vn -0.9937493 -0.111635104 -0
vn -0.9937493 -0.111635104 -0
vn -0.9937493 -0.111635104 -0
vn -0.9937493 -0.111635104 -0
vn -0.64736694 -0.08017951 -0.7579494
vn -0.64736694 -0.08017951 -0.7579494
vn -0.6789995 -0.08017951 -0.7297472
vn -0.64736694 -0.08017951 -0.7579494
vn -0.64736694 -0.111811996 -0.7539325
vn -0.07798272 -0.08017951 -0.9937253
vn -0.07798272 -0.08017951 -0.9937253
vn -0.07798272 -0.08017951 -0.9937253
vn -0.07798272 -0.08017951 -0.9937253
vn -0.014717877 -0.04854709 -0.9987125
vn -0.014717877 -0.04854709 -0.9987125
vn -0.014717877 -0.04854709 -0.9987125
vn -0.6157345 -0.23834181 0.75104207
vn -0.6157345 -0.23834181 0.75104207
vn -0.6157345 -0.23834181 0.75104207
vn -0.5841021 -0.23834181 0.77589816
vn 0.6495637 -0.04854709 -0.7587556
vn 0.6495637 -0.04854709 -0.7587556
vn 0.6495637 -0.04854709 -0.7587556
vn 0.6495637 -0.08017951 -0.7560676
vn 0.74446106 -0.04854709 -0.66589856
vn 0.74446106 -0.04854709 -0.66589856
vn 0.74446106 -0.04854709 -0.66589856
vn 0.74446106 -0.04854709 -0.66589856
vn 0.6495637 -0.111811996 0.75204057
vn 0.14344442 -0.1750769 0.97404915
vn 0.20670933 -0.1750769 0.9626107
vn 0.6495637 -0.23834181 0.7219835
vn 0.08017951 -0.20670933 0.97511154
vn 0.36487162 -0.23834181 0.9000344
vn 0.5862988 -0.3016067 0.7518558
vn 0.42813653 -0.26997423 0.86244595
vn -0.07798272 -0.14344442 0.9865812
vn -0.07798272 -0.1750769 0.9814616
vn -0.64736694 -0.23834181 0.7239539
vn -0.7106319 -0.1750769 0.68143255
vn 0.016914606 -0.14344442 0.9895138
vn -0.64736694 -0.23834181 0.7239539
vn -0.6789995 -0.111811996 0.72557414
g env_echobasentrance_stalags_gb_0
f 3/3/3 2/2/2 1/1/1
f 6/6/6 5/5/5 4/4/4
f 9/9/9 8/8/8 7/7/7
f 12/12/12 11/11/11 10/10/10
f 14/14/14 11/11/11 13/13/13
f 13/13/13 15/15/15 14/14/14
f 18/18/18 17/17/17 16/16/16
f 21/21/21 20/20/20 19/19/19
f 24/24/24 23/23/23 22/22/22
f 27/27/27 26/26/26 25/25/25
f 30/30/30 29/29/29 28/28/28
f 33/33/33 32/32/32 31/31/31
f 36/36/36 35/35/35 34/34/34
f 39/39/39 38/38/38 37/37/37
f 42/42/42 41/41/41 40/40/40
f 45/45/45 44/44/44 43/43/43
f 48/48/48 47/47/47 46/46/46
f 51/51/51 50/50/50 49/49/49
f 54/54/54 53/53/53 52/52/52
f 57/57/57 56/56/56 55/55/55
f 60/60/60 59/59/59 58/58/58
f 63/63/63 62/62/62 61/61/61
f 66/66/66 65/65/65 64/64/64
f 69/69/69 68/68/68 67/67/67
f 72/72/72 71/71/71 70/70/70
f 75/75/75 74/74/74 73/73/73
f 78/78/78 77/77/77 76/76/76
f 81/81/81 80/80/80 79/79/79
f 84/84/84 83/83/83 82/82/82
f 87/87/87 86/86/86 85/85/85
f 90/90/90 89/89/89 88/88/88
f 93/93/93 92/92/92 91/91/91
f 96/96/96 95/95/95 94/94/94
f 99/99/99 98/98/98 97/97/97
f 102/102/102 101/101/101 100/100/100
f 105/105/105 104/104/104 103/103/103
f 108/108/108 107/107/107 106/106/106
f 111/111/111 110/110/110 109/109/109
f 114/114/114 113/113/113 112/112/112
f 117/117/117 116/116/116 115/115/115
f 119/119/119 118/118/118 116/116/116
f 119/119/119 120/120/120 118/118/118
f 123/123/123 122/122/122 121/121/121
f 126/126/126 125/125/125 124/124/124
f 129/129/129 128/128/128 127/127/127
f 127/127/127 130/130/130 129/129/129
f 131/131/131 129/129/129 130/130/130
f 130/130/130 132/132/132 131/131/131
f 133/133/133 131/131/131 132/132/132
f 136/136/136 135/135/135 134/134/134
f 134/134/134 137/137/137 136/136/136
f 138/138/138 136/136/136 137/137/137
f 137/137/137 139/139/139 138/138/138
f 142/142/142 141/141/141 140/140/140
f 142/142/142 140/140/140 143/143/143
f 144/144/144 143/143/143 140/140/140
f 143/143/143 144/144/144 145/145/145
f 146/146/146 145/145/145 144/144/144
f 144/144/144 147/147/147 146/146/146
f 148/148/148 146/146/146 147/147/147
f 147/147/147 144/144/144 149/149/149
f 147/147/147 149/149/149 150/150/150
f 150/150/150 149/149/149 151/151/151
f 154/154/154 153/153/153 152/152/152
f 154/154/154 152/152/152 155/155/155
f 158/158/158 157/157/157 156/156/156
f 159/159/159 156/156/156 157/157/157
f 157/157/157 160/160/160 159/159/159
f 161/161/161 159/159/159 160/160/160
f 160/160/160 162/162/162 161/161/161
f 165/165/165 164/164/164 163/163/163
f 166/166/166 163/163/163 164/164/164
f 164/164/164 167/167/167 166/166/166
f 163/163/163 166/166/166 168/168/168
f 169/169/169 166/166/166 167/167/167
f 167/167/167 170/170/170 169/169/169
f 171/171/171 169/169/169 170/170/170
f 171/171/171 166/166/166 169/169/169
f 172/172/172 168/168/168 166/166/166
f 166/166/166 171/171/171 172/172/172
f 172/172/172 173/173/173 168/168/168
f 174/174/174 168/168/168 173/173/173
f 173/173/173 172/172/172 175/175/175
f 176/176/176 172/172/172 171/171/171
f 176/176/176 175/175/175 172/172/172
f 171/171/171 177/177/177 176/176/176
f 176/176/176 177/177/177 175/175/175
f 180/180/180 179/179/179 178/178/178
f 180/180/180 178/178/178 181/181/181
f 182/182/182 181/181/181 178/178/178
f 181/181/181 182/182/182 183/183/183
f 184/184/184 183/183/183 182/182/182
f 181/181/181 183/183/183 185/185/185
f 186/186/186 185/185/185 183/183/183
f 185/185/185 187/187/187 181/181/181
f 187/187/187 185/185/185 188/188/188
f 187/187/187 188/188/188 189/189/189
f 192/192/192 191/191/191 190/190/190
f 193/193/193 190/190/190 191/191/191
f 190/190/190 193/193/193 194/194/194
f 191/191/191 195/195/195 193/193/193
f 196/196/196 194/194/194 193/193/193
f 197/197/197 193/193/193 195/195/195
f 193/193/193 197/197/197 196/196/196
f 195/195/195 198/198/198 197/197/197
f 199/199/199 196/196/196 197/197/197
f 197/197/197 198/198/198 199/199/199
f 202/202/202 201/201/201 200/200/200
f 203/203/203 200/200/200 201/201/201
f 201/201/201 204/204/204 203/203/203
f 205/205/205 203/203/203 204/204/204
f 204/204/204 206/206/206 205/205/205
f 209/209/209 208/208/208 207/207/207
f 210/210/210 207/207/207 208/208/208
f 213/213/213 212/212/212 211/211/211
f 211/211/211 214/214/214 213/213/213
f 215/215/215 213/213/213 214/214/214
f 218/218/218 217/217/217 216/216/216
f 219/219/219 216/216/216 217/217/217
f 222/222/222 221/221/221 220/220/220
f 223/223/223 220/220/220 221/221/221
f 226/226/226 225/225/225 224/224/224
f 227/227/227 224/224/224 225/225/225
f 230/230/230 229/229/229 228/228/228
f 229/229/229 230/230/230 231/231/231
f 234/234/234 233/233/233 232/232/232
f 235/235/235 232/232/232 233/233/233
f 238/238/238 237/237/237 236/236/236
f 239/239/239 236/236/236 237/237/237
f 242/242/242 241/241/241 240/240/240
f 243/243/243 240/240/240 241/241/241
f 246/246/246 245/245/245 244/244/244
f 247/247/247 244/244/244 245/245/245
f 250/250/250 249/249/249 248/248/248
f 248/248/248 251/251/251 250/250/250
f 252/252/252 250/250/250 251/251/251
f 255/255/255 254/254/254 253/253/253
f 256/256/256 253/253/253 254/254/254
f 254/254/254 257/257/257 256/256/256
f 258/258/258 256/256/256 257/257/257
f 261/261/261 260/260/260 259/259/259
f 262/262/262 259/259/259 260/260/260
f 265/265/265 264/264/264 263/263/263
f 266/266/266 263/263/263 264/264/264
f 263/263/263 266/266/266 267/267/267
f 270/270/270 269/269/269 268/268/268
f 271/271/271 268/268/268 269/269/269
f 269/269/269 273/273/273 272/272/272
f 274/274/274 272/272/272 273/273/273
f 277/277/277 276/276/276 275/275/275
f 276/276/276 277/277/277 278/278/278
f 281/281/281 280/280/280 279/279/279
f 281/281/281 282/282/282 280/280/280
f 285/285/285 284/284/284 283/283/283
f 283/283/283 286/286/286 285/285/285
f 289/289/289 288/288/288 287/287/287
f 287/287/287 290/290/290 289/289/289
f 289/289/289 291/291/291 288/288/288
f 292/292/292 289/289/289 290/290/290
f 292/292/292 291/291/291 289/289/289
f 290/290/290 293/293/293 292/292/292
f 294/294/294 292/292/292 293/293/293
f 294/294/294 295/295/295 292/292/292
f 296/296/296 292/292/292 295/295/295
f 292/292/292 296/296/296 291/291/291
f 295/295/295 297/297/297 296/296/296
f 298/298/298 296/296/296 297/297/297
f 299/299/299 291/291/291 296/296/296
f 296/296/296 298/298/298 299/299/299
f 299/299/299 300/300/300 291/291/291
f 301/301/301 299/299/299 298/298/298
f 301/301/301 300/300/300 299/299/299
