g env_echobasentrance_gb
v 29.96251 0.042972565 -39.071316
v 37.678207 10.330566 -33.82036
v 25.676012 8.723129 -39.28564
v 25.676012 8.723129 -39.28564
v 30.712646 22.868576 -28.140749
v 20.960865 25.333305 -36.285095
v -36.156715 8.723129 19.439377
v -39.585915 0.042972565 25.97628
v -44.408226 0.042972565 17.939102
v -19.332214 13.652603 27.69088
v -21.475464 9.794754 28.11953
v -22.547089 8.187317 26.190605
v -21.689789 7.4371834 28.655342
v -22.547089 8.187317 26.190605
v -21.904114 5.8297462 28.762505
v -22.547089 8.187317 26.190605
v -21.904114 5.8297462 28.762505
v -23.51155 4.007984 28.655342
v -19.868027 3.6864967 30.69143
v -23.190063 3.5793343 30.369942
v -19.653702 1.7575722 31.655891
v -25.869118 0.042972565 31.012917
v -19.868027 5.8297462 29.726967
v -19.868027 7.758667 30.048454
v -21.689789 7.4371834 28.655342
v -19.332214 11.187866 29.191154
v -21.475464 9.794754 28.11953
v -19.332214 13.652603 27.69088
v -17.939102 7.8658295 29.83413
v -17.83194 5.6154213 29.512642
v -17.40329 10.866379 29.83413
v -17.081802 3.5793343 29.726967
v -15.581528 14.4027405 30.584267
v -16.010178 2.2933846 30.048454
v -16.760315 18.903564 27.476555
v -19.225052 0.042972565 32.191704
v -13.438278 0.042972565 31.548729
v -25.869118 0.042972565 31.012917
v -7.115696 17.188965 31.012917
v -7.2228584 20.725327 29.512642
v -7.115696 16.010178 30.69143
v 2.9575768 19.439377 30.155617
v 1.2429771 16.867477 31.012917
v 1.5644646 15.045715 30.584267
v 7.9942093 18.046265 30.477104
v 8.101372 15.045715 31.012917
v 7.458397 13.331116 30.584267
v 13.030846 16.653152 30.26278
v 11.4234085 10.973541 30.584267
v 12.280708 13.866928 30.477104
v 16.995853 13.438278 30.477104
v 15.495579 9.9019165 31.227242
v 13.138008 9.366104 29.83413
v 13.888145 7.8658295 29.83413
v 16.245716 7.758667 30.905754
v 20.31789 9.473267 30.584267
v 16.995853 13.438278 30.477104
v 19.46059 5.8297462 30.798592
v 16.138554 5.8297462 30.798592
v 14.209633 5.6154213 29.512642
v 15.817066 3.6864967 31.120079
v 13.995308 3.5793343 29.726967
v 13.6738205 2.2933846 30.048454
v 19.996403 3.5793343 30.905754
v 24.390062 4.3294716 30.26278
v 20.31789 9.473267 30.584267
v 15.924229 1.7575722 31.763054
v 15.281254 0.042972565 33.049004
v 12.602196 0.042972565 30.69143
v 20.74654 0.042972565 33.584816
v 20.425053 1.4360847 32.40603
v 24.390062 4.3294716 30.26278
v 26.961962 0.042972565 30.155617
v -14.509903 2.400547 25.761955
v -14.617065 0.042972565 27.155067
v -14.724228 2.2933846 26.297768
v -14.617065 0.042972565 27.155067
v -14.509903 2.400547 25.761955
v -13.545441 0.042972565 26.726418
v -16.760315 2.5077095 27.369392
v -18.474915 0.042972565 27.69088
v -18.046265 1.9718971 27.047905
v -18.474915 0.042972565 27.69088
v -16.760315 2.5077095 27.369392
v -17.081802 0.042972565 29.191154
v -18.046265 1.9718971 27.047905
v -19.332214 0.042972565 28.012367
v -18.474915 2.400547 27.155067
v -19.332214 0.042972565 28.012367
v -18.046265 1.9718971 27.047905
v -18.474915 0.042972565 27.69088
v -14.724228 2.2933846 26.297768
v -17.081802 0.042972565 29.191154
v -16.760315 2.5077095 27.369392
v -17.081802 0.042972565 29.191154
v -14.724228 2.2933846 26.297768
v -14.617065 0.042972565 27.155067
v -14.295578 5.508259 25.869118
v -14.938553 8.830292 27.155067
v -13.974091 9.151779 26.190605
v -14.938553 8.830292 27.155067
v -14.295578 5.508259 25.869118
v -15.045715 5.9369087 26.512093
v -17.188965 5.9369087 27.047905
v -17.939102 9.151779 26.297768
v -17.40329 9.687592 27.905205
v -17.939102 9.151779 26.297768
v -17.188965 5.9369087 27.047905
v -17.83194 5.508259 26.512093
v -15.045715 5.9369087 26.512093
v -16.331665 9.473267 27.583717
v -14.938553 8.830292 27.155067
v -14.509903 2.400547 25.761955
v -15.045715 5.9369087 26.512093
v -14.295578 5.508259 25.869118
v -15.045715 5.9369087 26.512093
v -14.509903 2.400547 25.761955
v -14.724228 2.2933846 26.297768
v -16.760315 2.5077095 27.369392
v -17.188965 5.9369087 27.047905
v -16.224503 5.508259 26.726418
v -17.188965 5.9369087 27.047905
v -16.760315 2.5077095 27.369392
v -18.046265 1.9718971 27.047905
v -18.046265 1.9718971 27.047905
v -17.83194 5.508259 26.512093
v -17.188965 5.9369087 27.047905
v -17.83194 5.508259 26.512093
v -18.046265 1.9718971 27.047905
v -18.474915 2.400547 27.155067
v -14.724228 2.2933846 26.297768
v -16.224503 5.508259 26.726418
v -15.045715 5.9369087 26.512093
v -16.224503 5.508259 26.726418
v -14.724228 2.2933846 26.297768
v -16.760315 2.5077095 27.369392
v -12.795303 14.938553 29.191154
v -12.045166 11.723679 28.226692
v -13.759766 12.045166 29.191154
v -12.045166 11.723679 28.226692
v -12.795303 14.938553 29.191154
v -11.187866 14.938553 29.191154
v -15.68869 12.366653 29.512642
v -18.046265 14.938553 27.369392
v -15.152878 14.938553 28.762505
v -15.68869 12.366653 29.512642
v -17.40329 9.687592 27.905205
v -18.046265 14.938553 27.369392
v -15.68869 12.366653 29.512642
v -16.331665 9.473267 27.583717
v -17.40329 9.687592 27.905205
v -17.40329 9.687592 27.905205
v -19.439377 14.938553 26.40493
v -18.046265 14.938553 27.369392
v -19.439377 14.938553 26.40493
v -17.40329 9.687592 27.905205
v -17.939102 9.151779 26.297768
v -15.152878 14.938553 28.762505
v -13.759766 12.045166 29.191154
v -15.68869 12.366653 29.512642
v -13.759766 12.045166 29.191154
v -15.152878 14.938553 28.762505
v -12.795303 14.938553 29.191154
v -13.116791 0.042972565 25.761955
v -14.509903 2.400547 25.761955
v -13.866928 2.2933846 25.440468
v -14.509903 2.400547 25.761955
v -13.116791 0.042972565 25.761955
v -13.545441 0.042972565 26.726418
v -13.759766 0.042972565 22.975739
v -13.652603 2.5077095 24.154526
v -13.974091 1.9718971 22.975739
v -13.652603 2.5077095 24.154526
v -13.759766 0.042972565 22.975739
v -13.331116 0.042972565 23.9402
v -13.331116 0.042972565 23.9402
v -13.866928 2.2933846 25.440468
v -13.652603 2.5077095 24.154526
v -13.866928 2.2933846 25.440468
v -13.331116 0.042972565 23.9402
v -13.116791 0.042972565 25.761955
v -13.009628 9.794754 25.440468
v -14.295578 5.508259 25.869118
v -13.974091 9.151779 26.190605
v -14.295578 5.508259 25.869118
v -13.009628 9.794754 25.440468
v -13.759766 5.9369087 25.226143
v -13.545441 9.151779 21.904114
v -13.223953 5.9369087 22.975739
v -12.366653 9.687592 22.761414
v -13.223953 5.9369087 22.975739
v -13.545441 9.151779 21.904114
v -13.652603 5.508259 22.011276
v -13.759766 5.9369087 25.226143
v -14.509903 2.400547 25.761955
v -14.295578 5.508259 25.869118
v -14.509903 2.400547 25.761955
v -13.759766 5.9369087 25.226143
v -13.866928 2.2933846 25.440468
v -13.223953 5.9369087 22.975739
v -13.652603 2.5077095 24.154526
v -13.438278 5.508259 24.047363
v -13.652603 2.5077095 24.154526
v -13.223953 5.9369087 22.975739
v -13.974091 1.9718971 22.975739
v -13.652603 5.508259 22.011276
v -13.974091 1.9718971 22.975739
v -13.223953 5.9369087 22.975739
v -13.974091 1.9718971 22.975739
v -13.652603 5.508259 22.011276
v -13.759766 2.400547 22.011276
v -10.759216 14.938553 27.905205
v -12.045166 11.723679 28.226692
v -11.187866 14.938553 29.191154
v -12.045166 11.723679 28.226692
v -10.759216 14.938553 27.905205
v -10.973541 12.045166 26.726418
v -10.437729 12.366653 25.011818
v -12.366653 9.687592 22.761414
v -12.473816 9.794754 23.833038
v -10.437729 12.366653 25.011818
v -10.544891 14.938553 22.761414
v -12.366653 9.687592 22.761414
v -10.437729 12.366653 25.011818
v -10.009079 14.938553 25.869118
v -10.544891 14.938553 22.761414
v -10.009079 14.938553 25.869118
v -10.973541 12.045166 26.726418
v -10.759216 14.938553 27.905205
v -10.973541 12.045166 26.726418
v -10.009079 14.938553 25.869118
v -10.437729 12.366653 25.011818
v -12.045166 11.723679 28.226692
v -14.938553 8.830292 27.155067
v -13.759766 12.045166 29.191154
v -13.759766 12.045166 29.191154
v -16.331665 9.473267 27.583717
v -15.68869 12.366653 29.512642
v -16.331665 9.473267 27.583717
v -13.759766 12.045166 29.191154
v -14.938553 8.830292 27.155067
v -13.009628 9.794754 25.440468
v -12.045166 11.723679 28.226692
v -10.973541 12.045166 26.726418
v -14.938553 8.830292 27.155067
v -13.974091 9.151779 26.190605
v -13.009628 9.794754 25.440468
v -10.437729 12.366653 25.011818
v -13.009628 9.794754 25.440468
v -10.973541 12.045166 26.726418
v -13.009628 9.794754 25.440468
v -10.437729 12.366653 25.011818
v -12.473816 9.794754 23.833038
v 10.030296 2.186222 26.940742
v 8.851509 0.042972565 27.047905
v 9.1729965 2.186222 26.619255
v 8.851509 0.042972565 27.047905
v 10.030296 2.186222 26.940742
v 9.065834 0.042972565 27.69088
v 8.637184 0.042972565 21.582626
v 9.708809 1.8647346 23.51155
v 8.958672 0.042972565 23.9402
v 9.1729965 2.186222 26.619255
v 7.887047 0.042972565 25.97628
v 8.851509 2.2933846 25.440468
v 7.887047 0.042972565 25.97628
v 9.1729965 2.186222 26.619255
v 8.851509 0.042972565 27.047905
v 9.387321 11.080704 27.476555
v 9.065834 8.508804 26.297768
v 7.887047 11.616516 26.619255
v 10.994759 8.508804 27.69088
v 10.566109 11.616516 28.441017
v 9.065834 8.508804 26.297768
v 9.387321 11.080704 27.476555
v 10.030296 8.080154 26.940742
v 7.3512344 11.509354 23.404388
v 8.851509 8.615967 25.226143
v 8.851509 8.508804 23.51155
v 8.851509 8.615967 25.226143
v 7.3512344 11.509354 23.404388
v 7.672722 12.259491 25.440468
v 8.851509 11.080704 21.904114
v 8.851509 8.508804 23.51155
v 8.851509 8.080154 21.904114
v 8.851509 8.508804 23.51155
v 8.851509 11.080704 21.904114
v 7.3512344 11.509354 23.404388
v 7.887047 11.616516 26.619255
v 8.851509 8.615967 25.226143
v 7.672722 12.259491 25.440468
v 8.851509 8.615967 25.226143
v 7.887047 11.616516 26.619255
v 9.065834 8.508804 26.297768
v 10.030296 2.186222 26.940742
v 9.601646 5.508259 26.40493
v 10.458946 4.9724464 27.155067
v 9.601646 5.508259 26.40493
v 10.030296 2.186222 26.940742
v 9.1729965 2.186222 26.619255
v 8.851509 2.2933846 25.440468
v 9.387321 5.4010963 23.725876
v 9.1729965 5.079609 25.226143
v 9.387321 5.4010963 23.725876
v 8.851509 2.2933846 25.440468
v 9.708809 1.8647346 23.51155
v 9.708809 1.8647346 23.51155
v 9.494484 4.9724464 21.689789
v 9.387321 5.4010963 23.725876
v 9.1729965 2.186222 26.619255
v 9.1729965 5.079609 25.226143
v 9.601646 5.508259 26.40493
v 9.1729965 5.079609 25.226143
v 9.1729965 2.186222 26.619255
v 8.851509 2.2933846 25.440468
v 9.387321 11.080704 27.476555
v 5.5294724 13.759766 28.441017
v 6.601097 13.759766 29.512642
v 5.5294724 13.759766 28.441017
v 9.387321 11.080704 27.476555
v 7.887047 11.616516 26.619255
v 7.672722 12.259491 25.440468
v 5.85096 13.759766 23.9402
v 5.5294724 13.759766 26.190605
v 5.85096 13.759766 23.9402
v 7.672722 12.259491 25.440468
v 7.3512344 11.509354 23.404388
v 7.3512344 11.509354 23.404388
v 7.3512344 13.759766 21.582626
v 5.85096 13.759766 23.9402
v 7.3512344 13.759766 21.582626
v 7.3512344 11.509354 23.404388
v 8.851509 11.080704 21.904114
v 7.887047 11.616516 26.619255
v 5.5294724 13.759766 26.190605
v 5.5294724 13.759766 28.441017
v 5.5294724 13.759766 26.190605
v 7.887047 11.616516 26.619255
v 7.672722 12.259491 25.440468
v 10.030296 2.186222 26.940742
v 9.923134 0.042972565 27.798042
v 9.065834 0.042972565 27.69088
v 15.281254 0.042972565 27.905205
v 14.209633 1.8647346 27.476555
v 14.852604 2.186222 27.69088
v 14.209633 1.8647346 27.476555
v 15.281254 0.042972565 27.905205
v 13.566658 0.042972565 28.012367
v 11.637733 0.042972565 28.441017
v 10.566109 2.186222 27.583717
v 12.387871 2.2933846 27.798042
v 10.566109 2.186222 27.583717
v 11.637733 0.042972565 28.441017
v 9.923134 0.042972565 27.798042
v 9.387321 11.080704 27.476555
v 10.994759 8.508804 27.69088
v 10.030296 8.080154 26.940742
v 14.423958 11.509354 29.083992
v 12.709358 8.615967 27.798042
v 12.387871 12.259491 28.655342
v 12.709358 8.615967 27.798042
v 14.423958 11.509354 29.083992
v 14.209633 8.508804 28.012367
v 15.066929 11.080704 27.798042
v 14.209633 8.508804 28.012367
v 14.423958 11.509354 29.083992
v 14.209633 8.508804 28.012367
v 15.066929 11.080704 27.798042
v 15.066929 8.080154 27.798042
v 12.387871 2.2933846 27.798042
v 13.888145 5.4010963 27.583717
v 14.209633 1.8647346 27.476555
v 14.959766 4.9724464 27.26223
v 14.209633 1.8647346 27.476555
v 13.888145 5.4010963 27.583717
v 14.209633 1.8647346 27.476555
v 14.959766 4.9724464 27.26223
v 14.852604 2.186222 27.69088
v 12.602196 5.079609 27.476555
v 10.566109 2.186222 27.583717
v 11.4234085 5.508259 27.476555
v 8.851509 13.759766 30.048454
v 9.387321 11.080704 27.476555
v 6.601097 13.759766 29.512642
v 9.387321 11.080704 27.476555
v 8.851509 13.759766 30.048454
v 10.566109 11.616516 28.441017
v 12.387871 12.259491 28.655342
v 15.174091 13.759766 29.191154
v 14.423958 11.509354 29.083992
v 16.567204 13.759766 28.869667
v 14.423958 11.509354 29.083992
v 15.174091 13.759766 29.191154
v 14.423958 11.509354 29.083992
v 16.567204 13.759766 28.869667
v 15.066929 11.080704 27.798042
v 13.030846 13.759766 29.619804
v 10.566109 11.616516 28.441017
v 8.851509 13.759766 30.048454
v 10.030296 8.080154 26.940742
v 9.601646 5.508259 26.40493
v 9.065834 8.508804 26.297768
v 9.601646 5.508259 26.40493
v 10.030296 8.080154 26.940742
v 10.458946 4.9724464 27.155067
v 9.387321 5.4010963 23.725876
v 8.851509 8.615967 25.226143
v 9.1729965 5.079609 25.226143
v 8.851509 8.080154 21.904114
v 9.387321 5.4010963 23.725876
v 9.494484 4.9724464 21.689789
v 9.601646 5.508259 26.40493
v 8.851509 8.615967 25.226143
v 9.065834 8.508804 26.297768
v 8.851509 8.615967 25.226143
v 9.601646 5.508259 26.40493
v 9.1729965 5.079609 25.226143
v 11.4234085 5.508259 27.476555
v 10.030296 8.080154 26.940742
v 10.994759 8.508804 27.69088
v 13.888145 5.4010963 27.583717
v 12.709358 8.615967 27.798042
v 14.209633 8.508804 28.012367
v 12.709358 8.615967 27.798042
v 13.888145 5.4010963 27.583717
v 12.602196 5.079609 27.476555
v 11.4234085 5.508259 27.476555
v 10.994759 8.508804 27.69088
v 12.709358 8.615967 27.798042
v 12.602196 5.079609 27.476555
v -3.6864967 46.551476 0.042972565
v 1.3501396 47.194443 -9.923134
v 12.602196 43.3366 -1.0286522
v 17.424503 41.300514 -11.209084
v 25.9975 35.406578 -2.100277
v 17.74599 37.335503 8.294479
v 2.5289268 41.622 9.366104
v -3.6864967 46.551476 0.042972565
v 6.9225845 43.76525 -19.246265
v 33.177383 30.048454 -12.387871
v 23.961412 35.192253 -21.389515
v 33.177383 27.905205 7.2228584
v 38.74983 26.083443 -2.9575768
v 41.643215 19.653702 -13.030846
v 41.964703 19.010727 6.258396
v 35.749283 21.153976 -21.389515
v 36.07077 19.653702 15.795853
v 23.639925 28.012367 17.724777
v 24.604387 18.903564 24.261688
v 13.245171 26.297768 25.226143
v 7.9942093 34.54928 17.939102
v -1.3289223 29.083992 25.869118
v -9.044617 37.121178 16.438828
v -17.617615 28.869667 23.404388
v 30.712646 22.868576 -28.140749
v 37.678207 10.330566 -33.82036
v 25.676012 8.723129 -39.28564
v 12.602196 39.264427 -26.961962
v 20.960865 25.333305 -36.285095
v 0.17135239 38.728615 -32.10576
v -4.650959 42.586464 -25.354525
v -13.974091 38.51429 -29.319534
v -16.331665 42.264977 7.0085335
v -3.6864967 46.551476 0.042972565
v -25.226143 34.442116 13.331116
v -30.048454 26.190605 18.68924
v -36.049553 28.869667 8.937454
v -11.938004 45.694176 -15.174091
v -23.190063 38.621452 -20.31789
v -24.261688 35.51374 -27.176287
v -17.724777 45.694176 -4.99366
v -3.6864967 46.551476 0.042972565
v -28.333855 38.728615 -9.708809
v -34.870766 31.334404 -15.709904
v -37.871315 26.726418 -23.104115
v -37.121178 31.227242 -3.1719017
v -42.264977 24.36885 -9.815971
v -41.836327 21.153976 3.5793343
v -37.121178 31.227242 -3.1719017
v -29.191154 37.871315 1.9718971
v -28.333855 38.728615 -9.708809
v -17.724777 45.694176 -4.99366
v -3.6864967 46.551476 0.042972565
v -37.121178 31.227242 -3.1719017
v -41.836327 21.153976 3.5793343
v -42.264977 24.36885 -9.815971
v -49.23053 10.330566 -1.7787895
v -45.265526 10.330566 10.009079
v -39.050102 19.439377 13.652603
v -36.049553 28.869667 8.937454
v -52.23108 0.042972565 4.5437965
v -55.76744 0.042972565 -16.138554
v -44.408226 0.042972565 17.939102
v -36.049553 28.869667 8.937454
v -30.048454 26.190605 18.68924
v -39.050102 19.439377 13.652603
v -29.619804 16.653152 22.332764
v -16.760315 18.903564 27.476555
v -17.617615 28.869667 23.404388
v -7.2228584 20.725327 29.512642
v -1.3289223 29.083992 25.869118
v 2.9575768 19.439377 30.155617
v -19.332214 13.652603 27.69088
v 13.245171 26.297768 25.226143
v 7.9942093 18.046265 30.477104
v 13.030846 16.653152 30.26278
v 24.604387 18.903564 24.261688
v 16.995853 13.438278 30.477104
v 20.31789 9.473267 30.584267
v 30.605484 10.330566 23.082901
v 24.390062 4.3294716 30.26278
v 36.07077 19.653702 15.795853
v 26.961962 0.042972565 30.155617
v 34.35617 0.042972565 29.941292
v 41.536053 10.330566 12.259491
v 39.60713 0.042972565 24.261688
v 53.859734 0.042972565 7.2228584
v -55.76744 0.042972565 -16.138554
v -46.444313 8.723129 -19.88924
v -49.23053 10.330566 -1.7787895
v -42.264977 24.36885 -9.815971
v -37.871315 26.726418 -23.104115
v -44.408226 0.042972565 17.939102
v -45.265526 10.330566 10.009079
v -36.156715 8.723129 19.439377
v -22.547089 8.187317 26.190605
v -30.477104 0.042972565 28.441017
v -39.585915 0.042972565 25.97628
v -23.51155 4.007984 28.655342
v -25.869118 0.042972565 31.012917
v 41.536053 10.330566 12.259491
v 36.07077 19.653702 15.795853
v 41.964703 19.010727 6.258396
v 45.71539 8.723129 1.7575722
v 53.859734 0.042972565 7.2228584
v 52.03797 0.042972565 -4.56501
v 42.28619 16.653152 -3.6005478
v 38.74983 26.083443 -2.9575768
v 41.643215 19.653702 -13.030846
v 44.965252 8.723129 -9.923134
v 48.715935 0.042972565 -15.817066
v 41.750378 10.330566 -19.353428
v 35.749283 21.153976 -21.389515
v 41.85754 0.042972565 -30.926971
v 37.678207 10.330566 -33.82036
v 29.96251 0.042972565 -39.071316
v 13.030846 1.7575722 28.441017
v 12.602196 0.042972565 30.69143
v 12.173546 0.042972565 27.798042
v 13.6738205 2.2933846 30.048454
v 13.6738205 3.7936592 28.655342
v 13.995308 3.5793343 29.726967
v 14.209633 5.6154213 29.512642
v 13.995308 6.044071 28.762505
v 13.888145 7.8658295 29.83413
v 13.459496 8.187317 28.655342
v 13.138008 9.366104 29.83413
v 12.709358 9.366104 28.54818
v 11.4234085 10.973541 30.584267
v 14.53112 2.186222 27.369392
v 12.173546 0.042972565 27.798042
v 13.245171 0.042972565 26.512093
v 13.030846 1.7575722 28.441017
v 13.6738205 3.7936592 28.655342
v 14.852604 3.7936592 27.369392
v 14.959766 5.8297462 27.369392
v 13.995308 6.044071 28.762505
v 14.852604 7.758667 27.476555
v 13.459496 8.187317 28.655342
v 14.745441 10.009079 27.476555
v 13.459496 8.187317 28.655342
v 14.745441 10.009079 27.476555
v 12.709358 9.366104 28.54818
v 10.351784 11.080704 28.333855
v 14.316795 14.617065 26.83358
v 10.030296 14.938553 28.012367
v 6.386772 13.331116 28.333855
v 5.3151474 14.83139 28.012367
v 0.4928398 14.295578 28.333855
v 0.06418991 15.367203 28.012367
v -7.115696 15.581528 28.333855
v -7.115696 16.97464 28.012367
v -13.652603 16.760315 28.012367
v -13.652603 13.759766 28.333855
v -17.40329 14.617065 26.83358
v -17.83194 10.009079 28.11953
v 12.709358 9.366104 28.54818
v 10.887596 10.437729 29.40548
v 11.4234085 10.973541 30.584267
v 7.458397 13.331116 30.584267
v 6.9225845 12.795303 29.40548
v 1.5644646 15.045715 30.584267
v 1.0286522 14.188416 29.40548
v -7.115696 16.010178 30.69143
v -7.115696 14.938553 29.40548
v -14.295578 13.116791 29.40548
v -15.581528 14.4027405 30.584267
v -16.331665 10.759216 27.155067
v 12.709358 9.366104 28.54818
v 10.351784 11.080704 28.333855
v 10.887596 10.437729 29.40548
v 6.9225845 12.795303 29.40548
v 6.386772 13.331116 28.333855
v 1.0286522 14.188416 29.40548
v 0.4928398 14.295578 28.333855
v -7.115696 14.938553 29.40548
v -7.115696 15.581528 28.333855
v -13.652603 13.759766 28.333855
v -14.295578 13.116791 29.40548
v -16.331665 10.759216 27.155067
v -13.438278 0.042972565 31.548729
v -15.474365 1.7575722 26.83358
v -15.152878 0.042972565 27.69088
v -16.010178 2.2933846 30.048454
v -16.760315 3.7936592 26.190605
v -17.081802 3.5793343 29.726967
v -17.83194 5.6154213 29.512642
v -16.97464 6.044071 26.40493
v -17.939102 7.8658295 29.83413
v -17.081802 8.187317 26.619255
v -17.40329 10.866379 29.83413
v -16.331665 10.759216 27.155067
v -15.581528 14.4027405 30.584267
v -15.152878 0.042972565 27.69088
v -17.617615 2.186222 27.798042
v -17.83194 0.042972565 26.40493
v -15.474365 1.7575722 26.83358
v -16.760315 3.7936592 26.190605
v -17.939102 3.7936592 28.226692
v -18.046265 5.8297462 28.333855
v -18.046265 5.8297462 28.333855
v -16.760315 3.7936592 26.190605
v -16.97464 6.044071 26.40493
v -17.939102 7.758667 28.226692
v -17.081802 8.187317 26.619255
v -17.83194 10.009079 28.11953
v -16.331665 10.759216 27.155067
v -13.652603 13.759766 28.333855
v -21.904114 5.8297462 28.762505
v -23.190063 3.5793343 30.369942
v -23.51155 4.007984 28.655342
v -25.869118 0.042972565 31.012917
v -17.40329 9.687592 27.905205
v -16.224503 5.508259 26.726418
v -17.188965 5.9369087 27.047905
v -16.331665 9.473267 27.583717
v -15.045715 5.9369087 26.512093
v -13.545441 0.042972565 21.796951
v -13.974091 1.9718971 22.975739
v -13.759766 2.400547 22.011276
v -13.759766 0.042972565 22.975739
v -12.366653 9.687592 22.761414
v -13.438278 5.508259 24.047363
v -12.473816 9.794754 23.833038
v -13.223953 5.9369087 22.975739
v -12.473816 9.794754 23.833038
v -13.759766 5.9369087 25.226143
v -13.009628 9.794754 25.440468
v -13.438278 5.508259 24.047363
v -13.438278 5.508259 24.047363
v -13.866928 2.2933846 25.440468
v -13.759766 5.9369087 25.226143
v -13.652603 2.5077095 24.154526
v -12.580978 14.938553 20.832489
v -12.366653 9.687592 22.761414
v -10.544891 14.938553 22.761414
v -13.545441 9.151779 21.904114
v 8.851509 2.2933846 25.440468
v 8.958672 0.042972565 23.9402
v 9.708809 1.8647346 23.51155
v 7.887047 0.042972565 25.97628
v 9.708809 1.8647346 23.51155
v 8.637184 0.042972565 21.582626
v 9.065834 2.186222 21.796951
v 9.494484 4.9724464 21.689789
v 9.923134 0.042972565 27.798042
v 10.030296 2.186222 26.940742
v 10.566109 2.186222 27.583717
v 11.4234085 5.508259 27.476555
v 13.566658 0.042972565 28.012367
v 12.387871 2.2933846 27.798042
v 14.209633 1.8647346 27.476555
v 11.637733 0.042972565 28.441017
v 12.709358 8.615967 27.798042
v 10.566109 11.616516 28.441017
v 12.387871 12.259491 28.655342
v 10.994759 8.508804 27.69088
v 11.4234085 5.508259 27.476555
v 10.030296 2.186222 26.940742
v 10.458946 4.9724464 27.155067
v 10.030296 8.080154 26.940742
v 13.888145 5.4010963 27.583717
v 12.387871 2.2933846 27.798042
v 12.602196 5.079609 27.476555
v 10.566109 2.186222 27.583717
v 15.174091 13.759766 29.191154
v 12.387871 12.259491 28.655342
v 13.030846 13.759766 29.619804
v 10.566109 11.616516 28.441017
v 8.851509 8.615967 25.226143
v 9.387321 5.4010963 23.725876
v 8.851509 8.508804 23.51155
v 8.851509 8.080154 21.904114
v 15.066929 8.080154 27.798042
v 13.888145 5.4010963 27.583717
v 14.209633 8.508804 28.012367
v 14.959766 4.9724464 27.26223
vt 0.64919555 0.49988604
vt 0.6271663 0.58800316
vt 0.67367256 0.57576466
vt 0.67367256 0.57576466
vt 0.6516433 0.66877717
vt 0.7005972 0.6467479
vt 0.07398677 0.57576466
vt 0.07398677 0.49988604
vt 0.04950981 0.49988604
vt 0.6075847 0.9992162
vt 0.6075847 0.7495511
vt 0.4631706 0.7495511
vt 0.6075847 0.6247186
vt 0.4631706 0.6247186
vt 0.6075847 0.49988604
vt 0.4631706 0.6247186
vt 0.6075847 0.49988604
vt 0.4631706 0.49988604
vt 0.7495511 0.3750535
vt 0.6075847 0.3750535
vt 0.7495511 0.25022095
vt 0.6075847 0.25022095
vt 0.7495511 0.49988604
vt 0.7495511 0.6247186
vt 0.6075847 0.6247186
vt 0.7495511 0.7495511
vt 0.6075847 0.7495511
vt 0.7495511 0.9992162
vt 0.89396524 0.6247186
vt 0.89396524 0.49988604
vt 0.89396524 0.7495511
vt 0.89396524 0.3750535
vt 0.89396524 0.8743837
vt 0.89396524 0.25022095
vt 0.89396524 0.9992162
vt 0.7495511 0.000555858
vt 0.89396524 0.000555858
vt 0.6075847 0.000555858
vt 0.89396524 0.9380238
vt 0.89396524 0.9992162
vt 0.89396524 0.8743837
vt 0.89396524 0.9992162
vt 0.89396524 0.9380238
vt 0.89396524 0.8743837
vt 0.89396524 0.9992162
vt 0.89396524 0.9380238
vt 0.89396524 0.8743837
vt 0.89396524 0.9992162
vt 0.89396524 0.8743837
vt 0.89396524 0.9380238
vt 0.7495511 0.9992162
vt 0.7495511 0.7495511
vt 0.89396524 0.7495511
vt 0.89396524 0.6247186
vt 0.7495511 0.6247186
vt 0.6075847 0.6247186
vt 0.6075847 0.7495511
vt 0.6075847 0.49988604
vt 0.7495511 0.49988604
vt 0.89396524 0.49988604
vt 0.7495511 0.3750535
vt 0.89396524 0.3750535
vt 0.89396524 0.25022095
vt 0.6075847 0.3750535
vt 0.4631706 0.3750535
vt 0.4631706 0.49988604
vt 0.7495511 0.25022095
vt 0.7495511 0.000555858
vt 0.89396524 0.000555858
vt 0.6075847 0.000555858
vt 0.6075847 0.25022095
vt 0.4631706 0.25022095
vt 0.4631706 0.000555858
vt 0.85480213 0.16210386
vt 0.766685 0.000555858
vt 0.7495511 0.15720847
vt 0.766685 0.000555858
vt 0.85480213 0.16210386
vt 0.8621452 0.000555858
vt 0.63206166 0.16455156
vt 0.59779394 0.000555858
vt 0.58066005 0.1327315
vt 0.59779394 0.000555858
vt 0.63206166 0.16455156
vt 0.67367256 0.000555858
vt 0.58066005 0.1327315
vt 0.59289855 0.000555858
vt 0.5782123 0.16210386
vt 0.59289855 0.000555858
vt 0.58066005 0.1327315
vt 0.59779394 0.000555858
vt 0.7495511 0.15720847
vt 0.67367256 0.000555858
vt 0.63206166 0.16455156
vt 0.67367256 0.000555858
vt 0.7495511 0.15720847
vt 0.766685 0.000555858
vt 0.8572498 0.36526272
vt 0.73976034 0.58800316
vt 0.8596975 0.6124801
vt 0.73976034 0.58800316
vt 0.8572498 0.36526272
vt 0.71773106 0.39953047
vt 0.6026893 0.39463508
vt 0.5512877 0.6124801
vt 0.629614 0.6467479
vt 0.5512877 0.6124801
vt 0.6026893 0.39463508
vt 0.5610785 0.36526272
vt 0.71773106 0.39953047
vt 0.65653867 0.63206166
vt 0.73976034 0.58800316
vt 0.85480213 0.16210386
vt 0.71773106 0.39953047
vt 0.8572498 0.36526272
vt 0.71773106 0.39953047
vt 0.85480213 0.16210386
vt 0.7495511 0.15720847
vt 0.63206166 0.16455156
vt 0.6026893 0.39463508
vt 0.6271663 0.3677104
vt 0.6026893 0.39463508
vt 0.63206166 0.16455156
vt 0.58066005 0.1327315
vt 0.58066005 0.1327315
vt 0.5610785 0.36526272
vt 0.6026893 0.39463508
vt 0.5610785 0.36526272
vt 0.58066005 0.1327315
vt 0.5782123 0.16210386
vt 0.7495511 0.15720847
vt 0.6271663 0.3677104
vt 0.71773106 0.39953047
vt 0.6271663 0.3677104
vt 0.7495511 0.15720847
vt 0.63206166 0.16455156
vt 0.82053435 0.9992162
vt 0.8621452 0.7838189
vt 0.7887143 0.8058482
vt 0.8621452 0.7838189
vt 0.82053435 0.9992162
vt 0.8621452 0.9992162
vt 0.7201788 0.82542974
vt 0.59289855 0.9992162
vt 0.7324173 0.9992162
vt 0.7201788 0.82542974
vt 0.629614 0.6467479
vt 0.59289855 0.9992162
vt 0.7201788 0.82542974
vt 0.65653867 0.63206166
vt 0.629614 0.6467479
vt 0.629614 0.6467479
vt 0.5366015 0.9992162
vt 0.59289855 0.9992162
vt 0.5366015 0.9992162
vt 0.629614 0.6467479
vt 0.5512877 0.6124801
vt 0.7324173 0.9992162
vt 0.7887143 0.8058482
vt 0.7201788 0.82542974
vt 0.7887143 0.8058482
vt 0.7324173 0.9992162
vt 0.82053435 0.9992162
vt 0.9600531 0.000555858
vt 0.85480213 0.16210386
vt 0.99432087 0.15720847
vt 0.85480213 0.16210386
vt 0.9600531 0.000555858
vt 0.8621452 0.000555858
vt 0.19637161 0.000555858
vt 0.14252229 0.16455156
vt 0.20616242 0.1327315
vt 0.14252229 0.16455156
vt 0.19637161 0.000555858
vt 0.13517919 0.000555858
vt 1.1338396 0.000555858
vt 0.99432087 0.15720847
vt 1.1411827 0.16455156
vt 0.99432087 0.15720847
vt 1.1338396 0.000555858
vt 0.9600531 0.000555858
vt 1.0016639 0.6516433
vt 0.8572498 0.36526272
vt 0.8596975 0.6124801
vt 0.8572498 0.36526272
vt 1.0016639 0.6516433
vt 1.0359317 0.39953047
vt 0.19881931 0.6124801
vt 0.16699925 0.39463508
vt 0.14252229 0.6467479
vt 0.16699925 0.39463508
vt 0.19881931 0.6124801
vt 0.201267 0.36526272
vt 1.0359317 0.39953047
vt 0.85480213 0.16210386
vt 0.8572498 0.36526272
vt 0.85480213 0.16210386
vt 1.0359317 0.39953047
vt 0.99432087 0.15720847
vt 0.16699925 0.39463508
vt 0.14252229 0.16455156
vt 0.14252229 0.3677104
vt 0.14252229 0.16455156
vt 0.16699925 0.39463508
vt 0.20616242 0.1327315
vt 0.201267 0.36526272
vt 0.20616242 0.1327315
vt 0.16699925 0.39463508
vt 0.20616242 0.1327315
vt 0.201267 0.36526272
vt 0.20616242 0.16210386
vt 0.9013083 0.9992162
vt 0.8621452 0.7838189
vt 0.8621452 0.9992162
vt 0.8621452 0.7838189
vt 0.9013083 0.9992162
vt 0.94291925 0.8058482
vt 1.0163502 0.82542974
vt 1.1436304 0.6467479
vt 1.1069149 0.65409094
vt 1.0163502 0.82542974
vt 1.0995718 0.9992162
vt 1.1436304 0.6467479
vt 1.0163502 0.82542974
vt 0.9845301 0.9992162
vt 1.0995718 0.9992162
vt 0.9845301 0.9992162
vt 0.94291925 0.8058482
vt 0.9013083 0.9992162
vt 0.94291925 0.8058482
vt 0.9845301 0.9992162
vt 1.0163502 0.82542974
vt 0.8621452 0.7838189
vt 0.73976034 0.58800316
vt 0.7887143 0.8058482
vt 0.7887143 0.8058482
vt 0.65653867 0.63206166
vt 0.7201788 0.82542974
vt 0.65653867 0.63206166
vt 0.7887143 0.8058482
vt 0.73976034 0.58800316
vt 1.0016639 0.6516433
vt 0.8621452 0.7838189
vt 0.94291925 0.8058482
vt 0.73976034 0.58800316
vt 0.8596975 0.6124801
vt 1.0016639 0.6516433
vt 1.0163502 0.82542974
vt 1.0016639 0.6516433
vt 0.94291925 0.8058482
vt 1.0016639 0.6516433
vt 1.0163502 0.82542974
vt 1.1069149 0.65409094
vt 0.6271663 0.16210386
vt 0.5782123 0.000555858
vt 0.54639226 0.15720847
vt 0.5782123 0.000555858
vt 0.6271663 0.16210386
vt 0.6271663 0.000555858
vt 0.33099496 0.000555858
vt 0.33099496 0.1327315
vt 0.3750535 0.000555858
vt 0.54639226 0.15720847
vt 0.47296137 0.000555858
vt 0.41421664 0.16455156
vt 0.47296137 0.000555858
vt 0.54639226 0.15720847
vt 0.5782123 0.000555858
vt 0.6271663 0.8058482
vt 0.50233376 0.6222709
vt 0.52436304 0.8450113
vt 0.7495511 0.6222709
vt 0.72752184 0.8450113
vt 0.50233376 0.6222709
vt 0.6271663 0.8058482
vt 0.6271663 0.58555543
vt 0.3897397 0.8401159
vt 0.39708275 0.629614
vt 0.35547194 0.6173755
vt 0.39708275 0.629614
vt 0.3897397 0.8401159
vt 0.43869364 0.88906986
vt 0.32854727 0.8058482
vt 0.35547194 0.6173755
vt 0.32854727 0.58555543
vt 0.35547194 0.6173755
vt 0.32854727 0.8058482
vt 0.3897397 0.8401159
vt 0.52436304 0.8450113
vt 0.39708275 0.629614
vt 0.43869364 0.88906986
vt 0.39708275 0.629614
vt 0.52436304 0.8450113
vt 0.50233376 0.6222709
vt 0.6271663 0.16210386
vt 0.5219153 0.39953047
vt 0.6761202 0.36526272
vt 0.5219153 0.39953047
vt 0.6271663 0.16210386
vt 0.54639226 0.15720847
vt 0.41421664 0.16455156
vt 0.34812883 0.39463508
vt 0.387292 0.3677104
vt 0.34812883 0.39463508
vt 0.41421664 0.16455156
vt 0.33099496 0.1327315
vt 0.33099496 0.1327315
vt 0.30896568 0.36526272
vt 0.34812883 0.39463508
vt 0.54639226 0.15720847
vt 0.387292 0.3677104
vt 0.5219153 0.39953047
vt 0.387292 0.3677104
vt 0.54639226 0.15720847
vt 0.41421664 0.16455156
vt 0.6271663 0.8058482
vt 0.58066005 0.9992162
vt 0.629614 0.9992162
vt 0.58066005 0.9992162
vt 0.6271663 0.8058482
vt 0.52436304 0.8450113
vt 0.43869364 0.88906986
vt 0.43135053 0.9992162
vt 0.49499065 0.9992162
vt 0.43135053 0.9992162
vt 0.43869364 0.88906986
vt 0.3897397 0.8401159
vt 0.3897397 0.8401159
vt 0.34323344 0.9992162
vt 0.43135053 0.9992162
vt 0.34323344 0.9992162
vt 0.3897397 0.8401159
vt 0.32854727 0.8058482
vt 0.52436304 0.8450113
vt 0.49499065 0.9992162
vt 0.58066005 0.9992162
vt 0.49499065 0.9992162
vt 0.52436304 0.8450113
vt 0.43869364 0.88906986
vt 0.6271663 0.16210386
vt 0.67367256 0.000555858
vt 0.6271663 0.000555858
vt 0.91844225 0.000555858
vt 0.91844225 0.1327315
vt 0.9233376 0.16210386
vt 0.91844225 0.1327315
vt 0.91844225 0.000555858
vt 0.8743837 0.000555858
vt 0.7764758 0.000555858
vt 0.7079403 0.15720847
vt 0.8352205 0.16455156
vt 0.7079403 0.15720847
vt 0.7764758 0.000555858
vt 0.67367256 0.000555858
vt 0.6271663 0.8058482
vt 0.7495511 0.6222709
vt 0.6271663 0.58555543
vt 0.8596975 0.8401159
vt 0.8523544 0.629614
vt 0.8107436 0.88906986
vt 0.8523544 0.629614
vt 0.8596975 0.8401159
vt 0.8915176 0.6173755
vt 0.91844225 0.8058482
vt 0.8915176 0.6173755
vt 0.8596975 0.8401159
vt 0.8915176 0.6173755
vt 0.91844225 0.8058482
vt 0.92089 0.58555543
vt 0.8352205 0.16455156
vt 0.90620375 0.39463508
vt 0.91844225 0.1327315
vt 0.9478146 0.36526272
vt 0.91844225 0.1327315
vt 0.90620375 0.39463508
vt 0.91844225 0.1327315
vt 0.9478146 0.36526272
vt 0.9233376 0.16210386
vt 0.87193596 0.3677104
vt 0.7079403 0.15720847
vt 0.7887143 0.39953047
vt 0.6883587 0.9992162
vt 0.6271663 0.8058482
vt 0.629614 0.9992162
vt 0.6271663 0.8058482
vt 0.6883587 0.9992162
vt 0.72752184 0.8450113
vt 0.8107436 0.88906986
vt 0.8743837 0.9992162
vt 0.8596975 0.8401159
vt 0.90620375 0.9992162
vt 0.8596975 0.8401159
vt 0.8743837 0.9992162
vt 0.8596975 0.8401159
vt 0.90620375 0.9992162
vt 0.91844225 0.8058482
vt 0.8107436 0.9992162
vt 0.72752184 0.8450113
vt 0.6883587 0.9992162
vt 0.6271663 0.58555543
vt 0.5219153 0.39953047
vt 0.50233376 0.6222709
vt 0.5219153 0.39953047
vt 0.6271663 0.58555543
vt 0.6761202 0.36526272
vt 0.34812883 0.39463508
vt 0.39708275 0.629614
vt 0.387292 0.3677104
vt 0.32854727 0.58555543
vt 0.34812883 0.39463508
vt 0.30896568 0.36526272
vt 0.5219153 0.39953047
vt 0.39708275 0.629614
vt 0.50233376 0.6222709
vt 0.39708275 0.629614
vt 0.5219153 0.39953047
vt 0.387292 0.3677104
vt 0.7887143 0.39953047
vt 0.6271663 0.58555543
vt 0.7495511 0.6222709
vt 0.90620375 0.39463508
vt 0.8523544 0.629614
vt 0.8915176 0.6173755
vt 0.8523544 0.629614
vt 0.90620375 0.39463508
vt 0.87193596 0.3677104
vt 0.7887143 0.39953047
vt 0.7495511 0.6222709
vt 0.8523544 0.629614
vt 0.87193596 0.3677104
vt 0.6002416 0.9992162
vt 0.7005972 0.9110992
vt 0.49988604 0.9110992
vt 0.6002416 0.8523544
vt 0.49988604 0.8229821
vt 0.39953047 0.8523544
vt 0.2991749 0.9110992
vt 0.39953047 0.9992162
vt 0.7005972 0.8229821
vt 0.5610785 0.75689423
vt 0.63695705 0.75689423
vt 0.43869364 0.75689423
vt 0.49988604 0.73486495
vt 0.54884 0.66877717
vt 0.4509321 0.66877717
vt 0.6002416 0.6761202
vt 0.39953047 0.6761202
vt 0.36281502 0.75689423
vt 0.34812883 0.66877717
vt 0.2991749 0.73486495
vt 0.2991749 0.8229821
vt 0.23798248 0.75689423
vt 0.19881931 0.8523544
vt 0.16210386 0.75689423
vt 0.6516433 0.66877717
vt 0.6271663 0.58800316
vt 0.67367256 0.57576466
vt 0.7005972 0.73486495
vt 0.7005972 0.6467479
vt 0.7495511 0.66877717
vt 0.7617896 0.75689423
vt 0.8009528 0.6761202
vt 0.10091144 0.9110992
vt 0.19881931 0.9992162
vt 0.10091144 0.8229821
vt 0.10091144 0.73486495
vt 0.03727132 0.75689423
vt 0.8009528 0.8523544
vt 0.83766824 0.75689423
vt 0.8523544 0.66877717
vt 0.8988607 0.9110992
vt 0.8009528 0.9992162
vt 0.8988607 0.8229821
vt 0.8988607 0.73486495
vt 0.8988607 0.6467479
vt 0.9625008 0.75689423
vt 0.9478146 0.66877717
vt 0.000555858 0.6761202
vt -0.038607292 0.75689423
vt 0.000555858 0.8523544
vt -0.099799715 0.8229821
vt -0.099799715 0.9110992
vt 0.000555858 0.9992162
vt -0.038607292 0.75689423
vt 0.000555858 0.6761202
vt -0.050845776 0.66877717
vt -0.026368804 0.58800316
vt 0.027480528 0.58800316
vt 0.051957503 0.66877717
vt 0.03727132 0.75689423
vt 0.000555858 0.49988604
vt -0.050845776 0.49988604
vt 0.04950981 0.49988604
vt 0.03727132 0.75689423
vt 0.10091144 0.73486495
vt 0.051957503 0.66877717
vt 0.10091144 0.6467479
vt 0.14986539 0.66877717
vt 0.16210386 0.75689423
vt 0.19881931 0.6761202
vt 0.23798248 0.75689423
vt 0.25022095 0.66877717
vt 0.13762689 0.6222709
vt 0.2991749 0.73486495
vt 0.27469793 0.65898633
vt 0.2991749 0.6467479
vt 0.34812883 0.66877717
vt 0.31386107 0.61003244
vt 0.32609957 0.57576466
vt 0.3726058 0.58800316
vt 0.33833805 0.5366015
vt 0.39953047 0.6761202
vt 0.35057652 0.49988604
vt 0.3750535 0.49988604
vt 0.42645514 0.58800316
vt 0.39953047 0.49988604
vt 0.4509321 0.49988604
vt 0.9502623 0.49988604
vt 0.9257853 0.57576466
vt 0.9722916 0.58800316
vt 0.9478146 0.66877717
vt 0.8988607 0.6467479
vt 0.04950981 0.49988604
vt 0.027480528 0.58800316
vt 0.07398677 0.57576466
vt 0.12538841 0.57576466
vt 0.10091144 0.49988604
vt 0.07398677 0.49988604
vt 0.13762689 0.5366015
vt 0.14986539 0.49988604
vt 0.42645514 0.58800316
vt 0.39953047 0.6761202
vt 0.4509321 0.66877717
vt 0.47296137 0.57576466
vt 0.4509321 0.49988604
vt 0.49988604 0.49988604
vt 0.49988604 0.6467479
vt 0.49988604 0.73486495
vt 0.54884 0.66877717
vt 0.5268107 0.57576466
vt 0.54884 0.49988604
vt 0.57331693 0.58800316
vt 0.6002416 0.6761202
vt 0.6002416 0.49988604
vt 0.6271663 0.58800316
vt 0.64919555 0.49988604
vt 0.034823626 0.25022095
vt -0.107142806 0.000555858
vt 0.034823626 0.000555858
vt -0.107142806 0.25022095
vt 0.034823626 0.3750535
vt -0.107142806 0.3750535
vt -0.107142806 0.49988604
vt 0.034823626 0.49988604
vt -0.107142806 0.6247186
vt 0.034823626 0.6247186
vt -0.107142806 0.7495511
vt 0.034823626 0.7495511
vt -0.107142806 0.8743837
vt 0.17923775 0.25022095
vt 0.034823626 0.000555858
vt 0.17923775 0.000555858
vt 0.034823626 0.25022095
vt 0.034823626 0.3750535
vt 0.17923775 0.3750535
vt 0.17923775 0.49988604
vt 0.034823626 0.49988604
vt 0.17923775 0.6247186
vt 0.034823626 0.6247186
vt 0.17923775 0.7495511
vt 0.034823626 0.6247186
vt 0.17923775 0.7495511
vt 0.034823626 0.7495511
vt 0.034823626 0.8743837
vt 0.17923775 0.9992162
vt 0.034823626 0.9992162
vt 0.034823626 0.8743837
vt 0.034823626 0.9992162
vt 0.034823626 0.8743837
vt 0.034823626 0.9992162
vt 0.034823626 0.8743837
vt 0.034823626 0.9992162
vt 0.034823626 0.9992162
vt 0.034823626 0.8743837
vt 0.17923775 0.9992162
vt 0.17923775 0.7495511
vt 0.034823626 0.7495511
vt -0.03615959 0.8743837
vt -0.107142806 0.8743837
vt -0.107142806 0.8743837
vt -0.03615959 0.8743837
vt -0.107142806 0.8743837
vt -0.03615959 0.8743837
vt -0.107142806 0.8743837
vt -0.03615959 0.8743837
vt -0.03615959 0.8743837
vt -0.107142806 0.8743837
vt 0.034823626 0.7495511
vt 0.034823626 0.7495511
vt 0.034823626 0.8743837
vt -0.03615959 0.8743837
vt -0.03615959 0.8743837
vt 0.034823626 0.8743837
vt -0.03615959 0.8743837
vt 0.034823626 0.8743837
vt -0.03615959 0.8743837
vt 0.034823626 0.8743837
vt 0.034823626 0.8743837
vt -0.03615959 0.8743837
vt 0.034823626 0.7495511
vt -0.107142806 0.000555858
vt 0.034823626 0.25022095
vt 0.034823626 0.000555858
vt -0.107142806 0.25022095
vt 0.034823626 0.3750535
vt -0.107142806 0.3750535
vt -0.107142806 0.49988604
vt 0.034823626 0.49988604
vt -0.107142806 0.6247186
vt 0.034823626 0.6247186
vt -0.107142806 0.7495511
vt 0.034823626 0.7495511
vt -0.107142806 0.8743837
vt 0.034823626 0.000555858
vt 0.17923775 0.25022095
vt 0.17923775 0.000555858
vt 0.034823626 0.25022095
vt 0.034823626 0.3750535
vt 0.17923775 0.3750535
vt 0.17923775 0.49988604
vt 0.17923775 0.49988604
vt 0.034823626 0.3750535
vt 0.034823626 0.49988604
vt 0.17923775 0.6247186
vt 0.034823626 0.6247186
vt 0.17923775 0.7495511
vt 0.034823626 0.7495511
vt 0.034823626 0.8743837
vt 0.6075847 0.49988604
vt 0.6075847 0.3750535
vt 0.4631706 0.3750535
vt 0.4631706 0.25022095
vt 0.629614 0.6467479
vt 0.6271663 0.3677104
vt 0.6026893 0.39463508
vt 0.65653867 0.63206166
vt 0.71773106 0.39953047
vt 0.19637161 0.000555858
vt 0.20616242 0.1327315
vt 0.20616242 0.16210386
vt 0.19637161 0.000555858
vt 0.14252229 0.6467479
vt 0.14252229 0.3677104
vt 0.10825452 0.65409094
vt 0.16699925 0.39463508
vt 0.10825452 0.65409094
vt 0.034823626 0.39953047
vt 0.00300356 0.6516433
vt 0.14252229 0.3677104
vt 1.1436304 0.3677104
vt 0.99432087 0.15720847
vt 1.0359317 0.39953047
vt 1.1411827 0.16455156
vt 0.18168545 0.9992162
vt 0.14252229 0.6467479
vt 0.098463744 0.9992162
vt 0.19881931 0.6124801
vt 0.41421664 0.16455156
vt 0.3750535 0.000555858
vt 0.33099496 0.1327315
vt 0.47296137 0.000555858
vt 0.33099496 0.1327315
vt 0.33099496 0.000555858
vt 0.32609957 0.16210386
vt 0.30896568 0.36526272
vt 0.67367256 0.000555858
vt 0.6271663 0.16210386
vt 0.7079403 0.15720847
vt 0.7887143 0.39953047
vt 0.8743837 0.000555858
vt 0.8352205 0.16455156
vt 0.91844225 0.1327315
vt 0.7764758 0.000555858
vt 0.8523544 0.629614
vt 0.72752184 0.8450113
vt 0.8107436 0.88906986
vt 0.7495511 0.6222709
vt 0.7887143 0.39953047
vt 0.6271663 0.16210386
vt 0.6761202 0.36526272
vt 0.6271663 0.58555543
vt 0.90620375 0.39463508
vt 0.8352205 0.16455156
vt 0.87193596 0.3677104
vt 0.7079403 0.15720847
vt 0.8743837 0.9992162
vt 0.8107436 0.88906986
vt 0.8107436 0.9992162
vt 0.72752184 0.8450113
vt 0.39708275 0.629614
vt 0.34812883 0.39463508
vt 0.35547194 0.6173755
vt 0.32854727 0.58555543
vt 0.92089 0.58555543
vt 0.90620375 0.39463508
vt 0.8915176 0.6173755
vt 0.9478146 0.36526272
vn 0.45338386 0.08357173 -0.88738877
vn 0.67448324 0.33625668 -0.65726995
vn 0.4217983 0.33625668 -0.84203184
vn 0.4217983 0.33625668 -0.84203184
vn 0.6428976 0.55735606 -0.5253921
vn 0.57972634 0.55735606 -0.59436655
vn -0.55735606 0.39942795 0.7278815
vn -0.43101352 0.6521129 0.62367946
vn -0.71528417 0.4625991 0.523804
vn -0.55735606 0.27308542 0.7840781
vn -0.810041 0.36784226 0.45664608
vn -0.6521129 0.304671 0.6942077
vn -0.7784553 0.20991415 0.5915601
vn -0.6521129 0.304671 0.6942077
vn -0.58894163 0.39942795 0.7025703
vn -0.6521129 0.304671 0.6942077
vn -0.58894163 0.39942795 0.7025703
vn -0.58894163 0.58894163 0.55343974
vn 0.042770803 0.43101352 0.90133125
vn -0.4625991 0.55735606 0.6894608
vn 0.07435644 0.36784226 0.9269106
vn -0.36784226 0.52577037 0.7669795
vn -0.14674288 0.115157306 0.98244864
vn -0.24149984 0.08357173 0.9667955
vn -0.7784553 0.20991415 0.5915601
vn -0.4941848 0.27308542 0.8253519
vn -0.810041 0.36784226 0.45664608
vn -0.55735606 0.27308542 0.7840781
vn 0.57972634 -0.042770803 0.8136879
vn 0.7060689 0.17832857 0.68532157
vn 0.35862702 -0.23228455 0.90411866
vn 0.6428976 0.4941848 0.5852043
vn -0.20991415 -0.011185169 0.9776558
vn 0.54814076 0.6836985 0.48176557
vn -0.36784226 0.33625668 0.86696225
vn 0.07435644 0.36784226 0.9269106
vn 0.57972634 0.71528417 0.3902383
vn -0.36784226 0.52577037 0.7669795
vn -0.08357173 0.115157306 0.98982555
vn -0.14674288 0.39942795 0.9049441
vn 0.042770803 -0.51655513 0.85518503
vn 0.042770803 0.36784226 0.92890406
vn -0.020400465 0.05198604 0.99843943
vn -0.08357173 -0.4849695 0.87052876
vn 0.07435644 0.33625668 0.93883044
vn 0.011185169 -0.011185169 0.9998749
vn -0.20991415 -0.4849695 0.84896445
vn 0.20069891 0.304671 0.93107224
vn -0.24149984 -0.45338386 0.8579749
vn 0.042770803 0.05198604 0.9977315
vn 0.23228455 0.304671 0.92369884
vn -0.115157306 -0.07435644 0.9905604
vn -0.6205272 -0.57972634 0.52807516
vn -0.74686974 -0.26387018 0.6103754
vn -0.14674288 -0.07435644 0.986376
vn 0.29545575 0.20991415 0.93200964
vn 0.23228455 0.304671 0.92369884
vn 0.07435644 0.05198604 0.9958758
vn -0.27308542 0.05198604 0.9605841
vn -0.810041 0.020400465 0.58601826
vn -0.304671 0.24149984 0.9213324
vn -0.7784553 0.27308542 0.56518286
vn -0.74686974 0.39942795 0.5316417
vn 0.042770803 0.33625668 0.94079864
vn 0.4217983 0.27308542 0.86458695
vn 0.29545575 0.20991415 0.93200964
vn -0.24149984 0.52577037 0.8156245
vn -0.304671 0.58894163 0.7485475
vn -0.7784553 0.4625991 0.42427513
vn 0.16911328 0.6521129 0.7390192
vn 0.10594207 0.58894163 0.80120164
vn 0.4217983 0.27308542 0.86458695
vn 0.3270414 0.43101352 0.84099424
vn 0.83241135 0.24149984 0.49876767
vn 0.83241135 0.24149984 0.49876767
vn 0.83241135 0.24149984 0.49876767
vn 0.39021266 0.4625991 0.79607546
vn 0.39021266 0.4625991 0.79607546
vn 0.39021266 0.4625991 0.79607546
vn -0.36784226 0.39942795 0.83973175
vn -0.36784226 0.39942795 0.83973175
vn -0.36784226 0.39942795 0.83973175
vn -0.58894163 0.52577037 0.6137697
vn -0.58894163 0.52577037 0.6137697
vn -0.58894163 0.52577037 0.6137697
vn 0.45338386 0.14674288 0.8791528
vn 0.45338386 0.14674288 0.8791528
vn 0.45338386 0.14674288 0.8791528
vn 0.3270414 0.24149984 0.9136311
vn 0.3270414 0.24149984 0.9136311
vn 0.3270414 0.24149984 0.9136311
vn 0.4217983 0.52577037 0.73868245
vn 0.4217983 0.52577037 0.73868245
vn 0.4217983 0.52577037 0.73868245
vn 0.61131203 0.304671 0.7303925
vn 0.61131203 0.304671 0.7303925
vn 0.61131203 0.304671 0.7303925
vn 0.73765445 -0.10594207 0.666815
vn 0.73765445 -0.10594207 0.666815
vn 0.73765445 -0.10594207 0.666815
vn 0.54814076 -0.20069891 0.8119493
vn 0.54814076 -0.20069891 0.8119493
vn 0.54814076 -0.20069891 0.8119493
vn -0.9363834 -0.13752764 0.32291207
vn -0.9363834 -0.13752764 0.32291207
vn -0.9363834 -0.13752764 0.32291207
vn -0.6205272 0.020400465 0.7839195
vn -0.6205272 0.020400465 0.7839195
vn -0.6205272 0.020400465 0.7839195
vn 0.16911328 -0.23228455 0.9578333
vn 0.16911328 -0.23228455 0.9578333
vn 0.16911328 -0.23228455 0.9578333
vn 0.6428976 -0.07435644 0.76233447
vn 0.6428976 -0.07435644 0.76233447
vn 0.6428976 -0.07435644 0.76233447
vn 0.8955826 0.05198604 0.4418475
vn 0.8955826 0.05198604 0.4418475
vn 0.8955826 0.05198604 0.4418475
vn 0.3270414 0.115157306 0.93796736
vn 0.3270414 0.115157306 0.93796736
vn 0.3270414 0.115157306 0.93796736
vn -0.27308542 0.05198604 0.9605841
vn -0.27308542 0.05198604 0.9605841
vn -0.27308542 0.05198604 0.9605841
vn -0.6836985 0.14674288 0.71485865
vn -0.6836985 0.14674288 0.71485865
vn -0.6836985 0.14674288 0.71485865
vn 0.39021266 0.115157306 0.9134949
vn 0.39021266 0.115157306 0.9134949
vn 0.39021266 0.115157306 0.9134949
vn 0.20069891 -0.042770803 0.9787189
vn 0.20069891 -0.042770803 0.9787189
vn 0.20069891 -0.042770803 0.9787189
vn 0.45338386 0.08357173 0.88738877
vn 0.45338386 0.08357173 0.88738877
vn 0.45338386 0.08357173 0.88738877
vn 0.4849695 -0.16911328 0.85802406
vn 0.4849695 -0.16911328 0.85802406
vn 0.4849695 -0.16911328 0.85802406
vn 0.042770803 -0.29545575 0.9543985
vn 0.042770803 -0.29545575 0.9543985
vn 0.042770803 -0.29545575 0.9543985
vn -0.43101352 0.33625668 0.8373522
vn -0.43101352 0.33625668 0.8373522
vn -0.43101352 0.33625668 0.8373522
vn -0.6836985 -0.011185169 0.7296789
vn -0.6836985 -0.011185169 0.7296789
vn -0.6836985 -0.011185169 0.7296789
vn 0.10594207 -0.57972634 0.8078946
vn 0.10594207 -0.57972634 0.8078946
vn 0.10594207 -0.57972634 0.8078946
vn -0.55735606 0.020400465 0.83002293
vn -0.55735606 0.020400465 0.83002293
vn -0.55735606 0.020400465 0.83002293
vn -0.90479785 -0.23228455 0.35691002
vn -0.90479785 -0.23228455 0.35691002
vn -0.90479785 -0.23228455 0.35691002
vn 0.23228455 0.24149984 0.9421899
vn 0.23228455 0.24149984 0.9421899
vn 0.23228455 0.24149984 0.9421899
vn -0.17832857 0.05198604 0.98259676
vn -0.17832857 0.05198604 0.98259676
vn -0.17832857 0.05198604 0.98259676
vn 0.4849695 0.27308542 0.8308002
vn 0.4849695 0.27308542 0.8308002
vn 0.4849695 0.27308542 0.8308002
vn 0.83241135 0.4625991 0.30511215
vn 0.83241135 0.4625991 0.30511215
vn 0.83241135 0.4625991 0.30511215
vn 0.9587538 0.05198604 -0.27944332
vn 0.9587538 0.05198604 -0.27944332
vn 0.9587538 0.05198604 -0.27944332
vn 0.863997 0.14674288 -0.4816386
vn 0.863997 0.14674288 -0.4816386
vn 0.863997 0.14674288 -0.4816386
vn 0.9587538 0.115157306 0.25986516
vn 0.9587538 0.115157306 0.25986516
vn 0.9587538 0.115157306 0.25986516
vn 0.9587538 0.27308542 -0.07883824
vn 0.9587538 0.27308542 -0.07883824
vn 0.9587538 0.27308542 -0.07883824
vn 0.67448324 -0.10594207 0.7306494
vn 0.67448324 -0.10594207 0.7306494
vn 0.67448324 -0.10594207 0.7306494
vn 0.8008257 -0.16911328 0.5745249
vn 0.8008257 -0.16911328 0.5745249
vn 0.8008257 -0.16911328 0.5745249
vn 0.6428976 -0.16911328 -0.74704975
vn 0.6428976 -0.16911328 -0.74704975
vn 0.6428976 -0.16911328 -0.74704975
vn 0.8955826 -0.042770803 -0.44283453
vn 0.8955826 -0.042770803 -0.44283453
vn 0.8955826 -0.042770803 -0.44283453
vn 0.76924014 -0.07435644 0.6346186
vn 0.76924014 -0.07435644 0.6346186
vn 0.76924014 -0.07435644 0.6346186
vn 0.45338386 0.05198604 0.88979805
vn 0.45338386 0.05198604 0.88979805
vn 0.45338386 0.05198604 0.88979805
vn 0.9587538 -0.011185169 0.28401762
vn 0.9587538 -0.011185169 0.28401762
vn 0.9587538 -0.011185169 0.28401762
vn 0.9587538 -0.16911328 -0.22845529
vn 0.9587538 -0.16911328 -0.22845529
vn 0.9587538 -0.16911328 -0.22845529
vn 0.9271682 -0.16911328 -0.33430505
vn 0.9271682 -0.16911328 -0.33430505
vn 0.9271682 -0.16911328 -0.33430505
vn 0.99033946 -0.011185169 0.13821228
vn 0.99033946 -0.011185169 0.13821228
vn 0.99033946 -0.011185169 0.13821228
vn 0.8955826 -0.3270414 0.30162176
vn 0.8955826 -0.3270414 0.30162176
vn 0.8955826 -0.3270414 0.30162176
vn 0.8008257 -0.26387018 0.5376344
vn 0.8008257 -0.26387018 0.5376344
vn 0.8008257 -0.26387018 0.5376344
vn 0.73765445 -0.67448324 0.030631136
vn 0.73765445 -0.67448324 0.030631136
vn 0.73765445 -0.67448324 0.030631136
vn 0.863997 -0.29545575 -0.40769488
vn 0.863997 -0.29545575 -0.40769488
vn 0.863997 -0.29545575 -0.40769488
vn 0.99033946 -0.07435644 -0.11704214
vn 0.99033946 -0.07435644 -0.11704214
vn 0.99033946 -0.07435644 -0.11704214
vn 0.9271682 -0.16911328 0.33430505
vn 0.9271682 -0.16911328 0.33430505
vn 0.9271682 -0.16911328 0.33430505
vn 0.9587538 -0.20069891 0.2012736
vn 0.9587538 -0.20069891 0.2012736
vn 0.9587538 -0.20069891 0.2012736
vn 0.3270414 -0.57972634 0.7462984
vn 0.3270414 -0.57972634 0.7462984
vn 0.3270414 -0.57972634 0.7462984
vn 0.042770803 -0.57972634 0.8136879
vn 0.042770803 -0.57972634 0.8136879
vn 0.042770803 -0.57972634 0.8136879
vn -0.020400465 -0.51655513 0.8560109
vn -0.020400465 -0.51655513 0.8560109
vn -0.020400465 -0.51655513 0.8560109
vn 0.61131203 -0.73765445 0.28664178
vn 0.61131203 -0.7060689 0.3574414
vn 0.61131203 -0.73765445 0.28664178
vn 0.61131203 -0.7060689 0.3574414
vn 0.61131203 -0.7060689 0.3574414
vn 0.6428976 -0.7060689 0.2968997
vn 0.7060689 -0.7060689 0.054161813
vn 0.7060689 -0.7060689 0.054161813
vn 0.7060689 -0.7060689 0.054161813
vn 0.7060689 -0.67448324 0.21572922
vn 0.7060689 -0.67448324 0.21572922
vn 0.7060689 -0.67448324 0.21572922
vn -0.33625668 0.24149984 0.91027975
vn -0.33625668 0.24149984 0.91027975
vn -0.33625668 0.24149984 0.91027975
vn -0.8732123 0.4625991 0.15330486
vn -0.8732123 0.4625991 0.15330486
vn -0.8732123 0.4625991 0.15330486
vn -0.90479785 0.39942795 0.14764206
vn -0.90479785 0.39942795 0.14764206
vn -0.90479785 0.39942795 0.14764206
vn -0.8416266 0.43101352 0.3254106
vn -0.8416266 0.43101352 0.3254106
vn -0.8416266 0.43101352 0.3254106
vn -0.74686974 0.24149984 0.6195671
vn -0.74686974 0.24149984 0.6195671
vn -0.74686974 0.24149984 0.6195671
vn -0.55735606 -0.26387018 0.7872272
vn -0.55735606 -0.26387018 0.7872272
vn -0.55735606 -0.26387018 0.7872272
vn -0.55735606 -0.26387018 0.7872272
vn -0.55735606 -0.26387018 0.7872272
vn -0.6205272 -0.26387018 0.73845685
vn -0.6205272 -0.26387018 0.73845685
vn -0.6205272 -0.26387018 0.73845685
vn -0.90479785 -0.4217983 0.058541212
vn -0.90479785 -0.4217983 0.058541212
vn -0.90479785 -0.4217983 0.058541212
vn -0.90479785 -0.3270414 0.27273577
vn -0.90479785 -0.3270414 0.27273577
vn -0.90479785 -0.3270414 0.27273577
vn -0.9995547 -0.011185169 0.027664522
vn -0.9995547 -0.011185169 0.027664522
vn -0.9995547 -0.011185169 0.027664522
vn -0.74686974 -0.39021266 -0.5384419
vn -0.74686974 -0.39021266 -0.5384419
vn -0.74686974 -0.39021266 -0.5384419
vn -0.9363834 -0.3270414 0.12739694
vn -0.9363834 -0.3270414 0.12739694
vn -0.9363834 -0.3270414 0.12739694
vn -0.93385273 -0.3576578 -0
vn -0.93385273 -0.3576578 -0
vn -0.93385273 -0.3576578 -0
vn -0.6205272 0.05198604 0.7824599
vn -0.6205272 0.05198604 0.7824599
vn -0.6205272 0.05198604 0.7824599
vn -0.33625668 0.115157306 0.9347033
vn -0.33625668 0.115157306 0.9347033
vn -0.33625668 0.115157306 0.9347033
vn -0.9893948 0.14525132 -0
vn -0.9893948 0.14525132 -0
vn -0.9893948 0.14525132 -0
vn -0.90479785 -0.042770803 -0.42368802
vn -0.90479785 -0.042770803 -0.42368802
vn -0.90479785 -0.042770803 -0.42368802
vn -0.9972446 -0.07418459 -0
vn -0.9972446 -0.07418459 -0
vn -0.9972446 -0.07418459 -0
vn -0.9679691 0.115157306 0.22310217
vn -0.9679691 0.115157306 0.22310217
vn -0.9679691 0.115157306 0.22310217
vn -0.9363834 0.14674288 0.31883
vn -0.9363834 0.14674288 0.31883
vn -0.9363834 0.14674288 0.31883
vn -0.43101352 -0.8008257 0.41581908
vn -0.43101352 -0.8008257 0.41581908
vn -0.43101352 -0.8008257 0.41581908
vn -0.4941848 -0.8008257 0.33831874
vn -0.4941848 -0.8008257 0.33831874
vn -0.4941848 -0.8008257 0.33831874
vn -0.58894163 -0.8008257 -0.10874704
vn -0.58894163 -0.8008257 -0.10874704
vn -0.58894163 -0.8008257 -0.10874704
vn -0.74686974 -0.57972634 0.32573447
vn -0.74686974 -0.57972634 0.32573447
vn -0.74686974 -0.57972634 0.32573447
vn -0.7784553 -0.4217983 -0.46485862
vn -0.7784553 -0.4217983 -0.46485862
vn -0.7784553 -0.4217983 -0.46485862
vn -0.71528417 -0.45338386 -0.5318004
vn -0.71528417 -0.45338386 -0.5318004
vn -0.71528417 -0.45338386 -0.5318004
vn -0.6521129 -0.73765445 0.1749705
vn -0.6521129 -0.73765445 0.1749705
vn -0.6521129 -0.73765445 0.1749705
vn -0.6205272 -0.73765445 -0.26610512
vn -0.6205272 -0.73765445 -0.26610512
vn -0.6205272 -0.73765445 -0.26610512
vn -0.08357173 0.33625668 0.938055
vn -0.08357173 0.33625668 0.938055
vn -0.08357173 0.33625668 0.938055
vn -0.27308542 0.08357173 0.9583528
vn -0.27308542 0.08357173 0.9583528
vn -0.27308542 0.08357173 0.9583528
vn 0.042770803 0.24149984 0.9694578
vn 0.042770803 0.24149984 0.9694578
vn 0.042770803 0.24149984 0.9694578
vn -0.14674288 0.304671 0.9410856
vn -0.14674288 0.304671 0.9410856
vn -0.14674288 0.304671 0.9410856
vn -0.36784226 0.20991415 0.9058853
vn -0.36784226 0.20991415 0.9058853
vn -0.36784226 0.20991415 0.9058853
vn -0.4941848 -0.23228455 0.83775014
vn -0.4941848 -0.23228455 0.83775014
vn -0.4941848 -0.23228455 0.83775014
vn -0.304671 -0.23228455 0.92369884
vn -0.304671 -0.23228455 0.92369884
vn -0.304671 -0.23228455 0.92369884
vn -0.17832857 -0.29545575 0.9385653
vn -0.17832857 -0.29545575 0.9385653
vn -0.17832857 -0.29545575 0.9385653
vn 0.8008257 -0.23228455 0.5520163
vn 0.8008257 -0.23228455 0.5520163
vn 0.8008257 -0.23228455 0.5520163
vn 0.29545575 -0.011185169 0.955291
vn 0.29545575 -0.011185169 0.955291
vn 0.29545575 -0.011185169 0.955291
vn 0.16911328 -0.011185169 0.9855331
vn 0.16911328 -0.011185169 0.9855331
vn 0.16911328 -0.011185169 0.9855331
vn 0.3270414 0.020400465 0.9447898
vn 0.3270414 0.020400465 0.9447898
vn 0.3270414 0.020400465 0.9447898
vn -0.304671 0.14674288 0.9410856
vn -0.304671 0.14674288 0.9410856
vn -0.304671 0.14674288 0.9410856
vn 0.011185169 0.020400465 0.99972934
vn 0.011185169 0.020400465 0.99972934
vn 0.011185169 0.020400465 0.99972934
vn -0.17832857 -0.7060689 0.68532157
vn -0.17832857 -0.7060689 0.68532157
vn -0.17832857 -0.7060689 0.68532157
vn -0.24149984 -0.7060689 0.665691
vn -0.24149984 -0.7060689 0.665691
vn -0.24149984 -0.7060689 0.665691
vn -0.20991415 0.020400465 0.977507
vn -0.20991415 0.020400465 0.977507
vn -0.20991415 0.020400465 0.977507
vn 0.23228455 -0.13752764 0.9628759
vn 0.23228455 -0.13752764 0.9628759
vn 0.23228455 -0.13752764 0.9628759
vn 0.61131203 -0.54814076 0.5708233
vn 0.61131203 -0.54814076 0.5708233
vn 0.61131203 -0.54814076 0.5708233
vn 0.07435644 -0.54814076 0.83307433
vn 0.07435644 -0.54814076 0.83307433
vn 0.07435644 -0.54814076 0.83307433
vn -0.55735606 -0.07435644 0.8269373
vn -0.55735606 -0.07435644 0.8269373
vn -0.55735606 -0.07435644 0.8269373
vn -0.6205272 -0.042770803 0.7830177
vn -0.6205272 -0.042770803 0.7830177
vn -0.6205272 -0.042770803 0.7830177
vn -0.9972446 -0.07418459 -0
vn -0.9972446 -0.07418459 -0
vn -0.9972446 -0.07418459 -0
vn -0.9679691 -0.20069891 -0.15085004
vn -0.9679691 -0.20069891 -0.15085004
vn -0.9679691 -0.20069891 -0.15085004
vn -0.9679691 -0.16911328 0.1855707
vn -0.9679691 -0.16911328 0.1855707
vn -0.9679691 -0.16911328 0.1855707
vn -0.9363834 -0.07435644 0.34301192
vn -0.9363834 -0.07435644 0.34301192
vn -0.9363834 -0.07435644 0.34301192
vn -0.52577037 -0.13752764 0.83943534
vn -0.52577037 -0.13752764 0.83943534
vn -0.52577037 -0.13752764 0.83943534
vn -0.17832857 -0.13752764 0.9743126
vn -0.17832857 -0.13752764 0.9743126
vn -0.17832857 -0.13752764 0.9743126
vn -0.08357173 -0.10594207 0.9908542
vn -0.08357173 -0.10594207 0.9908542
vn -0.08357173 -0.10594207 0.9908542
vn -0.05198604 -0.07435644 0.9958758
vn -0.05198604 -0.07435644 0.9958758
vn -0.020400465 -0.10594207 0.99416304
vn -0.020400465 -0.10594207 0.99416304
vn 0.011185169 0.9679691 0.25082
vn 0.1053989 0.99442995 -0
vn 0.35862702 0.90479785 0.22962473
vn 0.45338386 0.8732123 -0.17872712
vn 0.54814076 0.810041 0.20826727
vn 0.39021266 0.810041 0.43768442
vn 0.13752764 0.8732123 0.4675323
vn 0.011185169 0.9679691 0.25082
vn 0.23228455 0.9363834 -0.26311588
vn 0.67448324 0.71528417 -0.1828685
vn 0.54814076 0.74686974 -0.3764668
vn 0.57972634 0.74686974 0.32573447
vn 0.76924014 0.6205272 0.15236653
vn 0.863997 0.43101352 -0.2602625
vn 0.863997 0.43101352 0.2602625
vn 0.76924014 0.52577037 -0.36309105
vn 0.67448324 0.43101352 0.5994161
vn 0.45338386 0.6836985 0.5718387
vn 0.4849695 0.43101352 0.7609415
vn 0.26387018 0.58894163 0.763885
vn 0.20069891 0.7784553 0.59474975
vn 0.011185169 0.6205272 0.7841051
vn -0.08357173 0.7784553 0.6221118
vn -0.27308542 0.55735606 0.7840781
vn 0.6428976 0.55735606 -0.5253921
vn 0.67448324 0.33625668 -0.65726995
vn 0.4217983 0.33625668 -0.84203184
vn 0.35862702 0.810041 -0.46391833
vn 0.57972634 0.55735606 -0.59436655
vn 0.10594207 0.8416266 -0.52956676
vn -0.05198604 0.90479785 -0.4226563
vn -0.24149984 0.90479785 -0.3507402
vn -0.24149984 0.8732123 0.42329437
vn 0.011185169 0.9679691 0.25082
vn -0.43101352 0.74686974 0.50637233
vn -0.52577037 0.4625991 0.71384007
vn -0.71528417 0.58894163 0.37618655
vn -0.20991415 0.9363834 -0.28128657
vn -0.4625991 0.8416266 -0.27868757
vn -0.4625991 0.8416266 -0.27868757
vn -0.33625668 0.9363834 0.10058564
vn 0.011185169 0.9679691 0.25082
vn -0.5880548 0.8088212 -0
vn -0.6521129 0.71528417 -0.2512316
vn -0.74686974 0.6205272 -0.23902209
vn -0.74686974 0.6521129 0.13013199
vn -0.8416266 0.52577037 -0.12341085
vn -0.8416266 0.4625991 0.27868763
vn -0.74686974 0.6521129 0.13013199
vn -0.55735606 0.810041 0.18217504
vn -0.5880548 0.8088212 -0
vn -0.33625668 0.9363834 0.10058564
vn 0.011185169 0.9679691 0.25082
vn -0.74686974 0.6521129 0.13013199
vn -0.8416266 0.4625991 0.27868763
vn -0.8416266 0.52577037 -0.12341085
vn -0.8732123 0.4625991 0.15330486
vn -0.810041 0.36784226 0.45664608
vn -0.74686974 0.36784226 0.5539654
vn -0.71528417 0.58894163 0.37618655
vn -0.8732123 0.36784226 0.31967545
vn -0.8088212 0.5880548 -0
vn -0.71528417 0.4625991 0.523804
vn -0.71528417 0.58894163 0.37618655
vn -0.52577037 0.4625991 0.71384007
vn -0.74686974 0.36784226 0.5539654
vn -0.4941848 0.20991415 0.8436335
vn -0.36784226 0.33625668 0.86696225
vn -0.27308542 0.55735606 0.7840781
vn -0.14674288 0.39942795 0.9049441
vn 0.011185169 0.6205272 0.7841051
vn 0.042770803 0.36784226 0.92890406
vn -0.55735606 0.27308542 0.7840781
vn 0.26387018 0.58894163 0.763885
vn 0.07435644 0.33625668 0.93883044
vn 0.20069891 0.304671 0.93107224
vn 0.4849695 0.43101352 0.7609415
vn 0.23228455 0.304671 0.92369884
vn 0.29545575 0.20991415 0.93200964
vn 0.54814076 0.39942795 0.73484623
vn 0.4217983 0.27308542 0.86458695
vn 0.67448324 0.43101352 0.5994161
vn 0.3270414 0.43101352 0.84099424
vn 0.3270414 0.58894163 0.7390478
vn 0.76924014 0.43101352 0.4716958
vn 0.61131203 0.55735606 0.561829
vn 0.73765445 0.6521129 0.1749705
vn -0.8088212 0.5880548 -0
vn -0.8416266 0.52577037 -0.12341085
vn -0.8732123 0.4625991 0.15330486
vn -0.8416266 0.52577037 -0.12341085
vn -0.74686974 0.6205272 -0.23902209
vn -0.71528417 0.4625991 0.523804
vn -0.810041 0.36784226 0.45664608
vn -0.55735606 0.39942795 0.7278815
vn -0.6521129 0.304671 0.6942077
vn -0.304671 0.58894163 0.7485475
vn -0.43101352 0.6521129 0.62367946
vn -0.58894163 0.58894163 0.55343974
vn -0.36784226 0.52577037 0.7669795
vn 0.76924014 0.43101352 0.4716958
vn 0.67448324 0.43101352 0.5994161
vn 0.863997 0.43101352 0.2602625
vn 0.8542604 0.5198453 -0
vn 0.73765445 0.6521129 0.1749705
vn 0.8008257 0.58894163 -0.10874704
vn 0.9271682 0.33625668 -0.16519868
vn 0.76924014 0.6205272 0.15236653
vn 0.863997 0.43101352 -0.2602625
vn 0.8955826 0.43101352 -0.11026835
vn 0.83241135 0.4941848 -0.2507444
vn 0.863997 0.36784226 -0.34380415
vn 0.76924014 0.52577037 -0.36309105
vn 0.8008257 0.24149984 -0.5480474
vn 0.67448324 0.33625668 -0.65726995
vn 0.45338386 0.08357173 -0.88738877
vn -0.90479785 0.36784226 0.21455291
vn -0.7784553 0.4625991 0.42427513
vn -0.90479785 0.39942795 0.14764206
vn -0.74686974 0.39942795 0.5316417
vn -0.90479785 0.20991415 0.370509
vn -0.7784553 0.27308542 0.56518286
vn -0.810041 0.020400465 0.58601826
vn -0.9679691 -0.10594207 0.22762263
vn -0.74686974 -0.26387018 0.6103754
vn -0.90479785 -0.39021266 0.1705138
vn -0.6205272 -0.57972634 0.52807516
vn -0.6521129 -0.7060689 0.27607155
vn -0.24149984 -0.45338386 0.8579749
vn -0.6521129 0.36784226 -0.66290337
vn -0.6205272 0.52577037 -0.58181745
vn -0.6205272 0.55735606 -0.55163413
vn -0.58894163 0.43101352 -0.68364835
vn -0.71528417 0.17832857 -0.6756978
vn -0.71528417 0.115157306 -0.68928033
vn -0.810041 0.05198604 -0.58406425
vn -0.7784553 0.020400465 -0.62736845
vn -0.71528417 -0.07435644 -0.69486666
vn -0.55735606 -0.20069891 -0.80565137
vn -0.36784226 -0.23228455 -0.9004088
vn -0.55735606 -0.20069891 -0.80565137
vn -0.36784226 -0.23228455 -0.9004088
vn -0.304671 -0.4217983 -0.85396826
vn -0.17832857 -0.16911328 -0.9693294
vn -0.24149984 -0.13752764 -0.96060604
vn -0.14674288 -0.10594207 -0.98348504
vn -0.020400465 -0.16911328 -0.9853855
vn -0.020400465 -0.20069891 -0.97944057
vn -0.020400465 -0.26387018 -0.9643425
vn -0.05198604 -0.26387018 -0.9631563
vn -0.020400465 -0.20069891 -0.97944057
vn -0.020400465 -0.20069891 -0.97944057
vn 0.16911328 -0.10594207 -0.9798862
vn 0.16911328 -0.10594207 -0.9798862
vn 0.3270414 -0.20069891 -0.92345214
vn -0.58894163 0.24149984 -0.77124935
vn -0.6521129 -0.7060689 0.27607155
vn -0.4625991 -0.863997 0.1987744
vn -0.24149984 -0.45338386 0.8579749
vn -0.20991415 -0.4849695 0.84896445
vn -0.39942795 -0.8955826 0.19593133
vn -0.08357173 -0.4849695 0.87052876
vn -0.14674288 -0.9271682 0.344711
vn 0.042770803 -0.51655513 0.85518503
vn 0.07435644 -0.99033946 0.1170422
vn 0.29545575 -0.83241135 0.4688254
vn -0.20991415 -0.011185169 0.9776558
vn 0.76924014 -0.4849695 0.41602185
vn -0.6521129 -0.7060689 0.27607155
vn -0.4941848 -0.83241135 -0.25074443
vn -0.4625991 -0.863997 0.1987744
vn -0.39942795 -0.8955826 0.19593133
vn -0.304671 -0.8955826 -0.32420266
vn -0.14674288 -0.9271682 0.344711
vn -0.115157306 -0.99033946 -0.07724341
vn 0.07435644 -0.99033946 0.1170422
vn 0.042770803 -0.863997 -0.5016771
vn 0.45338386 -0.863997 -0.21898012
vn 0.29545575 -0.83241135 0.4688254
vn 0.76924014 -0.4849695 0.41602185
vn 0.57972634 0.71528417 0.3902383
vn 0.863997 0.4941848 -0.09638786
vn 0.8955826 -0.07435644 -0.43863752
vn 0.54814076 0.6836985 0.48176557
vn 0.8955826 0.39942795 0.1959313
vn 0.6428976 0.4941848 0.5852043
vn 0.7060689 0.17832857 0.68532157
vn 0.9587538 0.05198604 0.27944332
vn 0.57972634 -0.042770803 0.8136879
vn 0.9587538 -0.10594207 0.26375633
vn 0.35862702 -0.23228455 0.90411866
vn 0.76924014 -0.4849695 0.41602185
vn -0.20991415 -0.011185169 0.9776558
vn -0.020400465 0.020400465 -0.9995838
vn -0.4625991 -0.16911328 -0.87028885
vn 0.39021266 0.43101352 -0.81361014
vn -0.43101352 -0.4849695 -0.7609415
vn -0.7784553 -0.23228455 -0.5831391
vn -0.8732123 -0.042770803 -0.48545954
vn -0.8732123 -0.011185169 -0.48721164
vn -0.8732123 -0.011185169 -0.48721164
vn -0.7784553 -0.23228455 -0.5831391
vn -0.8732123 -0.011185169 -0.48721164
vn -0.90479785 0.020400465 -0.42535245
vn -0.8416266 0.08357173 -0.53355455
vn -0.58894163 0.24149984 -0.77124935
vn -0.6205272 0.58894163 -0.51777774
vn 0.16911328 -0.10594207 -0.9798862
vn -0.58894163 0.39942795 0.7025703
vn -0.4625991 0.55735606 0.6894608
vn -0.58894163 0.58894163 0.55343974
vn -0.36784226 0.52577037 0.7669795
vn 0.23228455 -0.20069891 0.95171624
vn 0.23228455 -0.20069891 0.95171624
vn 0.20069891 -0.20069891 0.9588743
vn 0.23228455 -0.20069891 0.95171624
vn 0.26387018 -0.20069891 0.9434471
vn 0.9587538 0.08357173 0.27167422
vn 0.9587538 0.08357173 0.27167422
vn 0.9587538 0.08357173 0.27167422
vn 0.9587538 0.08357173 0.27167422
vn 0.9587538 -0.20069891 0.2012736
vn 0.9587538 -0.20069891 0.2012736
vn 0.9587538 -0.20069891 0.2012736
vn 0.9587538 -0.20069891 0.2012736
vn 0.9271682 -0.20069891 0.3163528
vn 0.9271682 -0.20069891 0.3163528
vn 0.9271682 -0.20069891 0.3163528
vn 0.9271682 -0.20069891 0.3163528
vn 0.99033946 -0.042770803 0.13190301
vn 0.99033946 -0.042770803 0.13190301
vn 0.99033946 -0.042770803 0.13190301
vn 0.99033946 -0.042770803 0.13190301
vn 0.67448324 -0.23228455 -0.70079684
vn 0.67448324 -0.23228455 -0.70079684
vn 0.67448324 -0.23228455 -0.70079684
vn 0.6428976 -0.23228455 -0.7298812
vn -0.8732123 0.24149984 -0.4232944
vn -0.8732123 0.24149984 -0.4232944
vn -0.8732123 0.24149984 -0.4232944
vn -0.8416266 0.24149984 -0.4830554
vn -0.9363834 0.115157306 0.33154917
vn -0.9363834 0.115157306 0.33154917
vn -0.9363834 0.115157306 0.33154917
vn -0.90479785 0.14674288 0.39975917
vn -0.74686974 0.27308542 0.60630846
vn -0.74686974 0.27308542 0.60630846
vn -0.74686974 0.27308542 0.60630846
vn -0.74686974 0.24149984 0.6195671
vn 0.23228455 0.17832857 0.9561604
vn 0.23228455 0.17832857 0.9561604
vn 0.23228455 0.17832857 0.9561604
vn 0.23228455 0.17832857 0.9561604
vn -0.020400465 -0.23228455 0.9724339
vn -0.020400465 -0.23228455 0.9724339
vn -0.020400465 -0.23228455 0.9724339
vn -0.05198604 -0.26387018 0.9631563
vn -0.304671 -0.011185169 0.952392
vn -0.304671 -0.011185169 0.952392
vn -0.304671 -0.011185169 0.952392
vn -0.304671 0.020400465 0.95223916
vn -0.17832857 0.14674288 0.9729673
vn -0.17832857 0.14674288 0.9729673
vn -0.17832857 0.14674288 0.9729673
vn -0.14674288 0.14674288 0.9782295
vn 0.16911328 -0.61131203 0.7731095
vn 0.16911328 -0.61131203 0.7731095
vn 0.16911328 -0.61131203 0.7731095
vn 0.13752764 -0.61131203 0.77934825
vn -0.9859877 -0.1668179 -0
vn -0.9859877 -0.1668179 -0
vn -0.9859877 -0.1668179 -0
vn -0.9859877 -0.1668179 -0
vn 0.20069891 -0.16911328 0.9649459
vn 0.20069891 -0.16911328 0.9649459
vn 0.20069891 -0.16911328 0.9649459
vn 0.23228455 -0.20069891 0.95171624
g env_echobasentrance_gb_0
f 3/3/3 2/2/2 1/1/1
f 6/6/6 5/5/5 4/4/4
f 9/9/9 8/8/8 7/7/7
f 12/12/12 11/11/11 10/10/10
f 14/14/14 13/13/13 11/11/11
f 13/13/13 14/14/14 15/15/15
f 18/18/18 17/17/17 16/16/16
f 20/20/20 19/19/19 17/17/17
f 19/19/19 20/20/20 21/21/21
f 22/22/22 21/21/21 20/20/20
f 23/23/23 17/17/17 19/19/19
f 23/23/23 24/24/24 17/17/17
f 25/25/25 17/17/17 24/24/24
f 24/24/24 26/26/26 25/25/25
f 27/27/27 25/25/25 26/26/26
f 27/27/27 26/26/26 28/28/28
f 24/24/24 23/23/23 29/29/29
f 24/24/24 29/29/29 26/26/26
f 30/30/30 29/29/29 23/23/23
f 23/23/23 19/19/19 30/30/30
f 31/31/31 26/26/26 29/29/29
f 32/32/32 30/30/30 19/19/19
f 26/26/26 31/31/31 33/33/33
f 28/28/28 26/26/26 33/33/33
f 32/32/32 19/19/19 34/34/34
f 21/21/21 34/34/34 19/19/19
f 35/35/35 28/28/28 33/33/33
f 21/21/21 36/36/36 34/34/34
f 37/37/37 34/34/34 36/36/36
f 38/38/38 36/36/36 21/21/21
f 33/33/33 39/39/39 35/35/35
f 40/40/40 35/35/35 39/39/39
f 41/41/41 39/39/39 33/33/33
f 40/40/40 39/39/39 42/42/42
f 39/39/39 41/41/41 43/43/43
f 43/43/43 42/42/42 39/39/39
f 44/44/44 43/43/43 41/41/41
f 42/42/42 43/43/43 45/45/45
f 43/43/43 44/44/44 46/46/46
f 46/46/46 45/45/45 43/43/43
f 47/47/47 46/46/46 44/44/44
f 45/45/45 46/46/46 48/48/48
f 47/47/47 49/49/49 46/46/46
f 50/50/50 48/48/48 46/46/46
f 50/50/50 46/46/46 49/49/49
f 48/48/48 50/50/50 51/51/51
f 50/50/50 52/52/52 51/51/51
f 49/49/49 52/52/52 50/50/50
f 53/53/53 52/52/52 49/49/49
f 53/53/53 54/54/54 52/52/52
f 55/55/55 52/52/52 54/54/54
f 55/55/55 56/56/56 52/52/52
f 57/57/57 52/52/52 56/56/56
f 56/56/56 55/55/55 58/58/58
f 55/55/55 54/54/54 59/59/59
f 59/59/59 58/58/58 55/55/55
f 60/60/60 59/59/59 54/54/54
f 59/59/59 60/60/60 61/61/61
f 59/59/59 61/61/61 58/58/58
f 62/62/62 61/61/61 60/60/60
f 62/62/62 63/63/63 61/61/61
f 64/64/64 58/58/58 61/61/61
f 64/64/64 65/65/65 58/58/58
f 66/66/66 58/58/58 65/65/65
f 67/67/67 61/61/61 63/63/63
f 61/61/61 67/67/67 64/64/64
f 67/67/67 63/63/63 68/68/68
f 69/69/69 68/68/68 63/63/63
f 68/68/68 70/70/70 67/67/67
f 71/71/71 64/64/64 67/67/67
f 71/71/71 67/67/67 70/70/70
f 64/64/64 71/71/71 72/72/72
f 70/70/70 73/73/73 71/71/71
f 72/72/72 71/71/71 73/73/73
f 76/76/76 75/75/75 74/74/74
f 79/79/79 78/78/78 77/77/77
f 82/82/82 81/81/81 80/80/80
f 85/85/85 84/84/84 83/83/83
f 88/88/88 87/87/87 86/86/86
f 91/91/91 90/90/90 89/89/89
f 94/94/94 93/93/93 92/92/92
f 97/97/97 96/96/96 95/95/95
f 100/100/100 99/99/99 98/98/98
f 103/103/103 102/102/102 101/101/101
f 106/106/106 105/105/105 104/104/104
f 109/109/109 108/108/108 107/107/107
f 112/112/112 111/111/111 110/110/110
f 115/115/115 114/114/114 113/113/113
f 118/118/118 117/117/117 116/116/116
f 121/121/121 120/120/120 119/119/119
f 124/124/124 123/123/123 122/122/122
f 127/127/127 126/126/126 125/125/125
f 130/130/130 129/129/129 128/128/128
f 133/133/133 132/132/132 131/131/131
f 136/136/136 135/135/135 134/134/134
f 139/139/139 138/138/138 137/137/137
f 142/142/142 141/141/141 140/140/140
f 145/145/145 144/144/144 143/143/143
f 148/148/148 147/147/147 146/146/146
f 151/151/151 150/150/150 149/149/149
f 154/154/154 153/153/153 152/152/152
f 157/157/157 156/156/156 155/155/155
f 160/160/160 159/159/159 158/158/158
f 163/163/163 162/162/162 161/161/161
f 166/166/166 165/165/165 164/164/164
f 169/169/169 168/168/168 167/167/167
f 172/172/172 171/171/171 170/170/170
f 175/175/175 174/174/174 173/173/173
f 178/178/178 177/177/177 176/176/176
f 181/181/181 180/180/180 179/179/179
f 184/184/184 183/183/183 182/182/182
f 187/187/187 186/186/186 185/185/185
f 190/190/190 189/189/189 188/188/188
f 193/193/193 192/192/192 191/191/191
f 196/196/196 195/195/195 194/194/194
f 199/199/199 198/198/198 197/197/197
f 202/202/202 201/201/201 200/200/200
f 205/205/205 204/204/204 203/203/203
f 208/208/208 207/207/207 206/206/206
f 211/211/211 210/210/210 209/209/209
f 214/214/214 213/213/213 212/212/212
f 217/217/217 216/216/216 215/215/215
f 220/220/220 219/219/219 218/218/218
f 223/223/223 222/222/222 221/221/221
f 226/226/226 225/225/225 224/224/224
f 229/229/229 228/228/228 227/227/227
f 232/232/232 231/231/231 230/230/230
f 235/235/235 234/234/234 233/233/233
f 238/238/238 237/237/237 236/236/236
f 241/241/241 240/240/240 239/239/239
f 244/244/244 243/243/243 242/242/242
f 246/246/246 243/243/243 245/245/245
f 246/246/246 247/247/247 243/243/243
f 250/250/250 249/249/249 248/248/248
f 253/253/253 252/252/252 251/251/251
f 256/256/256 255/255/255 254/254/254
f 259/259/259 258/258/258 257/257/257
f 262/262/262 261/261/261 260/260/260
f 265/265/265 264/264/264 263/263/263
f 268/268/268 267/267/267 266/266/266
f 271/271/271 270/270/270 269/269/269
f 273/273/273 269/269/269 272/272/272
f 276/276/276 275/275/275 274/274/274
f 279/279/279 278/278/278 277/277/277
f 282/282/282 281/281/281 280/280/280
f 285/285/285 284/284/284 283/283/283
f 288/288/288 287/287/287 286/286/286
f 291/291/291 290/290/290 289/289/289
f 294/294/294 293/293/293 292/292/292
f 297/297/297 296/296/296 295/295/295
f 300/300/300 299/299/299 298/298/298
f 303/303/303 302/302/302 301/301/301
f 306/306/306 305/305/305 304/304/304
f 309/309/309 308/308/308 307/307/307
f 312/312/312 311/311/311 310/310/310
f 315/315/315 314/314/314 313/313/313
f 318/318/318 317/317/317 316/316/316
f 321/321/321 320/320/320 319/319/319
f 324/324/324 323/323/323 322/322/322
f 327/327/327 326/326/326 325/325/325
f 330/330/330 329/329/329 328/328/328
f 333/333/333 332/332/332 331/331/331
f 336/336/336 335/335/335 334/334/334
f 339/339/339 338/338/338 337/337/337
f 342/342/342 341/341/341 340/340/340
f 345/345/345 344/344/344 343/343/343
f 348/348/348 347/347/347 346/346/346
f 351/351/351 350/350/350 349/349/349
f 354/354/354 353/353/353 352/352/352
f 357/357/357 356/356/356 355/355/355
f 360/360/360 359/359/359 358/358/358
f 363/363/363 362/362/362 361/361/361
f 366/366/366 365/365/365 364/364/364
f 369/369/369 368/368/368 367/367/367
f 372/372/372 371/371/371 370/370/370
f 375/375/375 374/374/374 373/373/373
f 378/378/378 377/377/377 376/376/376
f 381/381/381 380/380/380 379/379/379
f 384/384/384 383/383/383 382/382/382
f 387/387/387 386/386/386 385/385/385
f 390/390/390 389/389/389 388/388/388
f 393/393/393 392/392/392 391/391/391
f 396/396/396 395/395/395 394/394/394
f 399/399/399 398/398/398 397/397/397
f 402/402/402 401/401/401 400/400/400
f 405/405/405 404/404/404 403/403/403
f 408/408/408 407/407/407 406/406/406
f 411/411/411 410/410/410 409/409/409
f 414/414/414 413/413/413 412/412/412
f 417/417/417 416/416/416 415/415/415
f 420/420/420 419/419/419 418/418/418
f 423/423/423 422/422/422 421/421/421
f 426/426/426 425/425/425 424/424/424
f 428/428/428 427/427/427 424/424/424
f 430/430/430 429/429/429 427/427/427
f 433/433/433 432/432/432 431/431/431
f 434/434/434 432/432/432 433/433/433
f 435/435/435 434/434/434 433/433/433
f 436/436/436 435/435/435 433/433/433
f 436/436/436 433/433/433 437/437/437
f 437/437/437 433/433/433 438/438/438
f 434/434/434 439/439/439 432/432/432
f 434/434/434 435/435/435 440/440/440
f 439/439/439 434/434/434 441/441/441
f 434/434/434 440/440/440 441/441/441
f 435/435/435 436/436/436 442/442/442
f 443/443/443 440/440/440 435/435/435
f 442/442/442 443/443/443 435/435/435
f 444/444/444 440/440/440 443/443/443
f 445/445/445 443/443/443 442/442/442
f 444/444/444 446/446/446 440/440/440
f 441/441/441 440/440/440 446/446/446
f 447/447/447 445/445/445 442/442/442
f 442/442/442 448/448/448 447/447/447
f 436/436/436 448/448/448 442/442/442
f 449/449/449 447/447/447 448/448/448
f 449/449/449 448/448/448 450/450/450
f 436/436/436 451/451/451 448/448/448
f 450/450/450 448/448/448 451/451/451
f 452/452/452 450/450/450 451/451/451
f 451/451/451 436/436/436 437/437/437
f 451/451/451 453/453/453 452/452/452
f 453/453/453 451/451/451 437/437/437
f 453/453/453 454/454/454 452/452/452
f 446/446/446 455/455/455 441/441/441
f 455/455/455 446/446/446 456/456/456
f 455/455/455 456/456/456 457/457/457
f 455/455/455 458/458/458 441/441/441
f 455/455/455 459/459/459 458/458/458
f 459/459/459 460/460/460 458/458/458
f 441/441/441 458/458/458 439/439/439
f 460/460/460 461/461/461 458/458/458
f 458/458/458 461/461/461 439/439/439
f 460/460/460 462/462/462 461/461/461
f 453/453/453 437/437/437 463/463/463
f 463/463/463 437/437/437 464/464/464
f 453/453/453 465/465/465 454/454/454
f 465/465/465 453/453/453 463/463/463
f 466/466/466 454/454/454 465/465/465
f 467/467/467 466/466/466 465/465/465
f 468/468/468 439/439/439 461/461/461
f 439/439/439 468/468/468 432/432/432
f 469/469/469 461/461/461 462/462/462
f 468/468/468 461/461/461 469/469/469
f 462/462/462 470/470/470 469/469/469
f 468/468/468 471/471/471 432/432/432
f 432/432/432 471/471/471 472/472/472
f 468/468/468 473/473/473 471/471/471
f 473/473/473 468/468/468 469/469/469
f 470/470/470 474/474/474 469/469/469
f 469/469/469 474/474/474 473/473/473
f 470/470/470 475/475/475 474/474/474
f 474/474/474 476/476/476 473/473/473
f 475/475/475 477/477/477 474/474/474
f 477/477/477 476/476/476 474/474/474
f 467/467/467 479/479/479 478/478/478
f 480/480/480 479/479/479 467/467/467
f 465/465/465 480/480/480 467/467/467
f 480/480/480 481/481/481 479/479/479
f 480/480/480 465/465/465 463/463/463
f 481/481/481 480/480/480 482/482/482
f 480/480/480 463/463/463 482/482/482
f 482/482/482 463/463/463 483/483/483
f 486/486/486 485/485/485 484/484/484
f 485/485/485 486/486/486 487/487/487
f 487/487/487 488/488/488 485/485/485
f 489/489/489 485/485/485 488/488/488
f 485/485/485 489/489/489 490/490/490
f 491/491/491 488/488/488 487/487/487
f 492/492/492 491/491/491 487/487/487
f 491/491/491 493/493/493 488/488/488
f 496/496/496 495/495/495 494/494/494
f 496/496/496 497/497/497 495/495/495
f 497/497/497 498/498/498 495/495/495
f 498/498/498 499/499/499 495/495/495
f 498/498/498 500/500/500 499/499/499
f 501/501/501 499/499/499 500/500/500
f 500/500/500 502/502/502 501/501/501
f 498/498/498 497/497/497 503/503/503
f 502/502/502 504/504/504 501/501/501
f 502/502/502 505/505/505 504/504/504
f 505/505/505 506/506/506 504/504/504
f 506/506/506 507/507/507 504/504/504
f 507/507/507 506/506/506 508/508/508
f 507/507/507 508/508/508 509/509/509
f 507/507/507 509/509/509 510/510/510
f 510/510/510 509/509/509 511/511/511
f 512/512/512 507/507/507 510/510/510
f 510/510/510 511/511/511 513/513/513
f 513/513/513 514/514/514 510/510/510
f 510/510/510 515/515/515 512/512/512
f 516/516/516 510/510/510 514/514/514
f 516/516/516 515/515/515 510/510/510
f 516/516/516 517/517/517 515/515/515
f 520/520/520 519/519/519 518/518/518
f 521/521/521 519/519/519 520/520/520
f 521/521/521 522/522/522 519/519/519
f 525/525/525 524/524/524 523/523/523
f 496/496/496 524/524/524 525/525/525
f 497/497/497 496/496/496 525/525/525
f 525/525/525 526/526/526 497/497/497
f 503/503/503 497/497/497 526/526/526
f 527/527/527 526/526/526 525/525/525
f 527/527/527 525/525/525 528/528/528
f 526/526/526 527/527/527 529/529/529
f 530/530/530 529/529/529 527/527/527
f 533/533/533 532/532/532 531/531/531
f 533/533/533 531/531/531 534/534/534
f 534/534/534 531/531/531 535/535/535
f 535/535/535 536/536/536 534/534/534
f 537/537/537 533/533/533 534/534/534
f 533/533/533 537/537/537 538/538/538
f 537/537/537 539/539/539 538/538/538
f 536/536/536 540/540/540 534/534/534
f 534/534/534 540/540/540 537/537/537
f 539/539/539 537/537/537 540/540/540
f 536/536/536 541/541/541 540/540/540
f 539/539/539 540/540/540 542/542/542
f 542/542/542 540/540/540 541/541/541
f 543/543/543 539/539/539 542/542/542
f 541/541/541 544/544/544 542/542/542
f 542/542/542 545/545/545 543/543/543
f 544/544/544 545/545/545 542/542/542
f 544/544/544 546/546/546 545/545/545
f 549/549/549 548/548/548 547/547/547
f 550/550/550 547/547/547 548/548/548
f 547/547/547 550/550/550 551/551/551
f 552/552/552 551/551/551 550/550/550
f 552/552/552 553/553/553 551/551/551
f 554/554/554 551/551/551 553/553/553
f 553/553/553 555/555/555 554/554/554
f 556/556/556 554/554/554 555/555/555
f 555/555/555 557/557/557 556/556/556
f 558/558/558 556/556/556 557/557/557
f 557/557/557 559/559/559 558/558/558
f 562/562/562 561/561/561 560/560/560
f 563/563/563 560/560/560 561/561/561
f 563/563/563 564/564/564 560/560/560
f 565/565/565 560/560/560 564/564/564
f 565/565/565 564/564/564 566/566/566
f 567/567/567 566/566/566 564/564/564
f 566/566/566 567/567/567 568/568/568
f 569/569/569 568/568/568 567/567/567
f 568/568/568 569/569/569 570/570/570
f 573/573/573 572/572/572 571/571/571
f 572/572/572 573/573/573 574/574/574
f 575/575/575 572/572/572 574/574/574
f 576/576/576 575/575/575 574/574/574
f 574/574/574 577/577/577 576/576/576
f 578/578/578 576/576/576 577/577/577
f 577/577/577 579/579/579 578/578/578
f 580/580/580 578/578/578 579/579/579
f 579/579/579 581/581/581 580/580/580
f 582/582/582 580/580/580 581/581/581
f 582/582/582 581/581/581 583/583/583
f 584/584/584 583/583/583 581/581/581
f 585/585/585 583/583/583 584/584/584
f 586/586/586 585/585/585 584/584/584
f 589/589/589 588/588/588 587/587/587
f 589/589/589 590/590/590 588/588/588
f 591/591/591 588/588/588 590/590/590
f 590/590/590 592/592/592 591/591/591
f 593/593/593 591/591/591 592/592/592
f 592/592/592 594/594/594 593/593/593
f 595/595/595 593/593/593 594/594/594
f 595/595/595 594/594/594 596/596/596
f 597/597/597 596/596/596 594/594/594
f 596/596/596 597/597/597 598/598/598
f 601/601/601 600/600/600 599/599/599
f 601/601/601 602/602/602 600/600/600
f 603/603/603 600/600/600 602/602/602
f 602/602/602 604/604/604 603/603/603
f 605/605/605 603/603/603 604/604/604
f 604/604/604 606/606/606 605/605/605
f 607/607/607 605/605/605 606/606/606
f 607/607/607 606/606/606 608/608/608
f 609/609/609 608/608/608 606/606/606
f 608/608/608 609/609/609 610/610/610
f 613/613/613 612/612/612 611/611/611
f 614/614/614 611/611/611 612/612/612
f 612/612/612 615/615/615 614/614/614
f 616/616/616 614/614/614 615/615/615
f 616/616/616 615/615/615 617/617/617
f 618/618/618 617/617/617 615/615/615
f 617/617/617 618/618/618 619/619/619
f 620/620/620 619/619/619 618/618/618
f 619/619/619 620/620/620 621/621/621
f 622/622/622 621/621/621 620/620/620
f 623/623/623 621/621/621 622/622/622
f 626/626/626 625/625/625 624/624/624
f 627/627/627 624/624/624 625/625/625
f 627/627/627 625/625/625 628/628/628
f 629/629/629 628/628/628 625/625/625
f 629/629/629 630/630/630 628/628/628
f 633/633/633 632/632/632 631/631/631
f 631/631/631 634/634/634 633/633/633
f 635/635/635 633/633/633 634/634/634
f 634/634/634 636/636/636 635/635/635
f 637/637/637 635/635/635 636/636/636
f 637/637/637 636/636/636 638/638/638
f 641/641/641 640/640/640 639/639/639
f 640/640/640 641/641/641 642/642/642
f 645/645/645 644/644/644 643/643/643
f 646/646/646 643/643/643 644/644/644
f 644/644/644 647/647/647 646/646/646
f 650/650/650 649/649/649 648/648/648
f 651/651/651 648/648/648 649/649/649
f 654/654/654 653/653/653 652/652/652
f 655/655/655 652/652/652 653/653/653
f 658/658/658 657/657/657 656/656/656
f 659/659/659 656/656/656 657/657/657
f 662/662/662 661/661/661 660/660/660
f 663/663/663 660/660/660 661/661/661
f 666/666/666 665/665/665 664/664/664
f 667/667/667 664/664/664 665/665/665
f 670/670/670 669/669/669 668/668/668
f 671/671/671 668/668/668 669/669/669
f 674/674/674 673/673/673 672/672/672
f 674/674/674 672/672/672 675/675/675
f 678/678/678 677/677/677 676/676/676
f 678/678/678 679/679/679 677/677/677
f 682/682/682 681/681/681 680/680/680
f 683/683/683 680/680/680 681/681/681
f 686/686/686 685/685/685 684/684/684
f 687/687/687 684/684/684 685/685/685
f 690/690/690 689/689/689 688/688/688
f 690/690/690 688/688/688 691/691/691
f 694/694/694 693/693/693 692/692/692
f 693/693/693 694/694/694 695/695/695
f 698/698/698 697/697/697 696/696/696
f 697/697/697 698/698/698 699/699/699
f 702/702/702 701/701/701 700/700/700
f 702/702/702 703/703/703 701/701/701
f 706/706/706 705/705/705 704/704/704
f 707/707/707 704/704/704 705/705/705
