g env_echobasentrance_door_gb
v 0.7703266 2.1832027 21.310823
v 5.0365353 -0.020223618 21.310823
v 0.7703266 -0.020223618 21.310823
v 5.0365353 2.1832027 21.310823
v 25.148664 -0.020223618 21.310823
v 2.8799896 2.276966 21.310823
v 5.0365353 4.386631 21.310823
v 25.148664 2.1832027 21.310823
v 2.8799896 4.2928677 21.310823
v 0.7703266 4.386631 21.310823
v 25.148664 4.386631 21.310823
v 0.7703266 6.5900574 21.310823
v 5.0365353 6.5900574 21.310823
v 25.148664 6.5900574 21.310823
v 5.0365353 8.746603 21.310823
v 25.148664 8.746603 21.310823
v 0.7703266 8.746603 21.310823
v -1.2924557 6.636938 21.310823
v -1.2924557 8.69972 21.310823
v 0.7703266 10.950029 21.310823
v 5.0365353 10.950029 21.310823
v 25.148664 10.950029 21.310823
v 5.0365353 13.153456 21.310823
v 2.8799896 11.043791 21.310823
v 2.8799896 13.059694 21.310823
v 0.7703266 13.153456 21.310823
v 25.148664 13.153456 21.310823
v 0.7703266 15.356882 21.310823
v 5.0365353 15.356882 21.310823
v 25.148664 15.356882 21.310823
v 5.0365353 17.51343 21.310823
v 25.148664 17.51343 21.310823
v 5.0365353 19.716856 21.310823
v 25.148664 19.716856 21.310823
v 0.7703266 19.716856 21.310823
v 0.7703266 17.51343 21.310823
v -1.2924557 15.403765 21.310823
v -1.2924557 17.466547 21.310823
v -6.965109 -0.020223618 21.310823
v -2.7926617 2.1832027 21.310823
v -2.7926617 -0.020223618 21.310823
v -6.965109 2.1832027 21.310823
v -22.81103 2.1832027 21.310823
v -22.81103 -0.020223618 21.310823
v -22.81103 4.386631 21.310823
v -6.965109 4.386631 21.310823
v -22.81103 6.5900574 21.310823
v -2.7926617 4.386631 21.310823
v -0.68299866 4.2928677 21.310823
v -0.68299866 2.276966 21.310823
v -2.7926617 6.5900574 21.310823
v -6.965109 6.5900574 21.310823
v -22.81103 8.746603 21.310823
v -6.965109 8.746603 21.310823
v -4.9023266 6.636938 21.310823
v -4.9023266 8.69972 21.310823
v -2.7926617 8.746603 21.310823
v -22.81103 10.950029 21.310823
v -2.7926617 10.950029 21.310823
v -6.965109 10.950029 21.310823
v -22.81103 13.153456 21.310823
v -6.965109 13.153456 21.310823
v -22.81103 15.356882 21.310823
v -2.7926617 13.153456 21.310823
v -0.68299866 13.059694 21.310823
v -0.68299866 11.043791 21.310823
v -2.7926617 15.356882 21.310823
v -6.965109 15.356882 21.310823
v -22.81103 17.51343 21.310823
v -6.965109 17.51343 21.310823
v -4.9023266 15.403765 21.310823
v -22.81103 19.716856 21.310823
v -4.9023266 17.466547 21.310823
v -6.965109 19.716856 21.310823
v -2.7926617 17.51343 21.310823
v -2.7926617 19.716856 21.310823
v 5.0365353 -0.020223618 20.513838
v 0.7703266 2.1832027 20.513838
v 0.7703266 -0.020223618 20.513838
v 5.0365353 2.1832027 20.513838
v 25.148664 -0.020223618 20.513838
v 2.8799896 2.276966 20.513838
v 5.0365353 4.386631 20.513838
v 25.148664 2.1832027 20.513838
v 2.8799896 4.2928677 20.513838
v 0.7703266 4.386631 20.513838
v 25.148664 4.386631 20.513838
v 0.7703266 6.5900574 20.513838
v 5.0365353 6.5900574 20.513838
v 25.148664 6.5900574 20.513838
v 5.0365353 8.746603 20.513838
v 25.148664 8.746603 20.513838
v 0.7703266 8.746603 20.513838
v -1.2924557 6.636938 20.513838
v -1.2924557 8.69972 20.513838
v 0.7703266 10.950029 20.513838
v 5.0365353 10.950029 20.513838
v 25.148664 10.950029 20.513838
v 5.0365353 13.153456 20.513838
v 2.8799896 11.043791 20.513838
v 2.8799896 13.059694 20.513838
v 0.7703266 13.153456 20.513838
v 25.148664 13.153456 20.513838
v 0.7703266 15.356882 20.513838
v 5.0365353 15.356882 20.513838
v 25.148664 15.356882 20.513838
v 5.0365353 17.51343 20.513838
v 25.148664 17.51343 20.513838
v 5.0365353 19.716856 20.513838
v 25.148664 19.716856 20.513838
v 0.7703266 19.716856 20.513838
v 0.7703266 17.51343 20.513838
v -1.2924557 15.403765 20.513838
v -1.2924557 17.466547 20.513838
v -2.7926617 2.1832027 20.513838
v -6.965109 -0.020223618 20.513838
v -2.7926617 -0.020223618 20.513838
v -6.965109 2.1832027 20.513838
v -22.81103 2.1832027 20.513838
v -22.81103 -0.020223618 20.513838
v -22.81103 4.386631 20.513838
v -6.965109 4.386631 20.513838
v -22.81103 6.5900574 20.513838
v -2.7926617 4.386631 20.513838
v -0.68299866 4.2928677 20.513838
v -0.68299866 2.276966 20.513838
v -2.7926617 6.5900574 20.513838
v -6.965109 6.5900574 20.513838
v -22.81103 8.746603 20.513838
v -6.965109 8.746603 20.513838
v -4.9023266 6.636938 20.513838
v -4.9023266 8.69972 20.513838
v -2.7926617 8.746603 20.513838
v -22.81103 10.950029 20.513838
v -2.7926617 10.950029 20.513838
v -6.965109 10.950029 20.513838
v -22.81103 13.153456 20.513838
v -6.965109 13.153456 20.513838
v -22.81103 15.356882 20.513838
v -2.7926617 13.153456 20.513838
v -0.68299866 13.059694 20.513838
v -0.68299866 11.043791 20.513838
v -2.7926617 15.356882 20.513838
v -6.965109 15.356882 20.513838
v -22.81103 17.51343 20.513838
v -6.965109 17.51343 20.513838
v -4.9023266 15.403765 20.513838
v -22.81103 19.716856 20.513838
v -4.9023266 17.466547 20.513838
v -6.965109 19.716856 20.513838
v -2.7926617 17.51343 20.513838
v -2.7926617 19.716856 20.513838
v 0.7703266 2.1832027 20.513838
v 0.7703266 -0.020223618 21.310823
v 0.7703266 -0.020223618 20.513838
v 0.7703266 2.1832027 21.310823
v 5.0365353 -0.020223618 21.310823
v 0.7703266 -0.020223618 20.513838
v 0.7703266 -0.020223618 21.310823
v 5.0365353 -0.020223618 20.513838
v 25.148664 -0.020223618 21.310823
v 25.148664 -0.020223618 20.513838
v 0.7703266 6.5900574 20.513838
v 0.7703266 4.386631 21.310823
v 0.7703266 4.386631 20.513838
v 0.7703266 6.5900574 21.310823
v 2.8799896 2.276966 20.513838
v 0.7703266 2.1832027 21.310823
v 0.7703266 2.1832027 20.513838
v 2.8799896 2.276966 21.310823
v 0.7703266 4.386631 20.513838
v 2.8799896 4.2928677 21.310823
v 2.8799896 4.2928677 20.513838
v 0.7703266 4.386631 21.310823
v 2.8799896 4.2928677 20.513838
v 2.8799896 2.276966 21.310823
v 2.8799896 2.276966 20.513838
v 2.8799896 4.2928677 21.310823
v 0.7703266 8.746603 20.513838
v -1.2924557 8.69972 21.310823
v -1.2924557 8.69972 20.513838
v 0.7703266 8.746603 21.310823
v -1.2924557 8.69972 20.513838
v -1.2924557 6.636938 21.310823
v -1.2924557 6.636938 20.513838
v -1.2924557 8.69972 21.310823
v -1.2924557 6.636938 20.513838
v 0.7703266 6.5900574 21.310823
v 0.7703266 6.5900574 20.513838
v -1.2924557 6.636938 21.310823
v 0.7703266 10.950029 20.513838
v 0.7703266 8.746603 21.310823
v 0.7703266 8.746603 20.513838
v 0.7703266 10.950029 21.310823
v 2.8799896 11.043791 20.513838
v 0.7703266 10.950029 21.310823
v 0.7703266 10.950029 20.513838
v 2.8799896 11.043791 21.310823
v 2.8799896 13.059694 20.513838
v 2.8799896 11.043791 21.310823
v 2.8799896 11.043791 20.513838
v 2.8799896 13.059694 21.310823
v 0.7703266 13.153456 20.513838
v 2.8799896 13.059694 21.310823
v 2.8799896 13.059694 20.513838
v 0.7703266 13.153456 21.310823
v 0.7703266 15.356882 20.513838
v 0.7703266 13.153456 21.310823
v 0.7703266 13.153456 20.513838
v 0.7703266 15.356882 21.310823
v 0.7703266 17.51343 20.513838
v -1.2924557 17.466547 21.310823
v -1.2924557 17.466547 20.513838
v 0.7703266 17.51343 21.310823
v -1.2924557 17.466547 20.513838
v -1.2924557 15.403765 21.310823
v -1.2924557 15.403765 20.513838
v -1.2924557 17.466547 21.310823
v -1.2924557 15.403765 20.513838
v 0.7703266 15.356882 21.310823
v 0.7703266 15.356882 20.513838
v -1.2924557 15.403765 21.310823
v 0.7703266 19.716856 20.513838
v 0.7703266 17.51343 21.310823
v 0.7703266 17.51343 20.513838
v 0.7703266 19.716856 21.310823
v 5.0365353 19.716856 20.513838
v 0.7703266 19.716856 21.310823
v 0.7703266 19.716856 20.513838
v 5.0365353 19.716856 21.310823
v 25.148664 19.716856 20.513838
v 25.148664 19.716856 21.310823
v 25.148664 2.1832027 21.310823
v 25.148664 -0.020223618 20.513838
v 25.148664 -0.020223618 21.310823
v 25.148664 2.1832027 20.513838
v 25.148664 4.386631 21.310823
v 25.148664 4.386631 20.513838
v 25.148664 6.5900574 21.310823
v 25.148664 6.5900574 20.513838
v 25.148664 8.746603 21.310823
v 25.148664 8.746603 20.513838
v 25.148664 10.950029 21.310823
v 25.148664 10.950029 20.513838
v 25.148664 13.153456 21.310823
v 25.148664 13.153456 20.513838
v 25.148664 15.356882 21.310823
v 25.148664 15.356882 20.513838
v 25.148664 17.51343 21.310823
v 25.148664 17.51343 20.513838
v 25.148664 19.716856 21.310823
v 25.148664 19.716856 20.513838
v -6.965109 -0.020223618 20.513838
v -2.7926617 -0.020223618 21.310823
v -2.7926617 -0.020223618 20.513838
v -6.965109 -0.020223618 21.310823
v -22.81103 -0.020223618 20.513838
v -22.81103 -0.020223618 21.310823
v -2.7926617 -0.020223618 20.513838
v -2.7926617 2.1832027 21.310823
v -2.7926617 2.1832027 20.513838
v -2.7926617 -0.020223618 21.310823
v -0.68299866 2.276966 20.513838
v -0.68299866 4.2928677 21.310823
v -0.68299866 4.2928677 20.513838
v -0.68299866 2.276966 21.310823
v -0.68299866 4.2928677 20.513838
v -2.7926617 4.386631 21.310823
v -2.7926617 4.386631 20.513838
v -0.68299866 4.2928677 21.310823
v -2.7926617 2.1832027 20.513838
v -0.68299866 2.276966 21.310823
v -0.68299866 2.276966 20.513838
v -2.7926617 2.1832027 21.310823
v -2.7926617 4.386631 20.513838
v -2.7926617 6.5900574 21.310823
v -2.7926617 6.5900574 20.513838
v -2.7926617 4.386631 21.310823
v -4.9023266 8.69972 20.513838
v -2.7926617 8.746603 21.310823
v -2.7926617 8.746603 20.513838
v -4.9023266 8.69972 21.310823
v -4.9023266 6.636938 20.513838
v -4.9023266 8.69972 21.310823
v -4.9023266 8.69972 20.513838
v -4.9023266 6.636938 21.310823
v -2.7926617 6.5900574 20.513838
v -4.9023266 6.636938 21.310823
v -4.9023266 6.636938 20.513838
v -2.7926617 6.5900574 21.310823
v -2.7926617 8.746603 20.513838
v -2.7926617 10.950029 21.310823
v -2.7926617 10.950029 20.513838
v -2.7926617 8.746603 21.310823
v -0.68299866 11.043791 20.513838
v -0.68299866 13.059694 21.310823
v -0.68299866 13.059694 20.513838
v -0.68299866 11.043791 21.310823
v -0.68299866 13.059694 20.513838
v -2.7926617 13.153456 21.310823
v -2.7926617 13.153456 20.513838
v -0.68299866 13.059694 21.310823
v -2.7926617 10.950029 20.513838
v -0.68299866 11.043791 21.310823
v -0.68299866 11.043791 20.513838
v -2.7926617 10.950029 21.310823
v -2.7926617 13.153456 20.513838
v -2.7926617 15.356882 21.310823
v -2.7926617 15.356882 20.513838
v -2.7926617 13.153456 21.310823
v -22.81103 2.1832027 20.513838
v -22.81103 -0.020223618 21.310823
v -22.81103 -0.020223618 20.513838
v -22.81103 2.1832027 21.310823
v -22.81103 4.386631 20.513838
v -22.81103 4.386631 21.310823
v -22.81103 6.5900574 20.513838
v -22.81103 6.5900574 21.310823
v -22.81103 8.746603 20.513838
v -22.81103 8.746603 21.310823
v -22.81103 10.950029 20.513838
v -22.81103 10.950029 21.310823
v -22.81103 13.153456 20.513838
v -22.81103 13.153456 21.310823
v -22.81103 15.356882 20.513838
v -22.81103 15.356882 21.310823
v -22.81103 17.51343 20.513838
v -22.81103 17.51343 21.310823
v -22.81103 19.716856 20.513838
v -22.81103 19.716856 21.310823
v -4.9023266 17.466547 20.513838
v -2.7926617 17.51343 21.310823
v -2.7926617 17.51343 20.513838
v -4.9023266 17.466547 21.310823
v -4.9023266 15.403765 20.513838
v -4.9023266 17.466547 21.310823
v -4.9023266 17.466547 20.513838
v -4.9023266 15.403765 21.310823
v -2.7926617 15.356882 20.513838
v -4.9023266 15.403765 21.310823
v -4.9023266 15.403765 20.513838
v -2.7926617 15.356882 21.310823
v -2.7926617 17.51343 20.513838
v -2.7926617 19.716856 21.310823
v -2.7926617 19.716856 20.513838
v -2.7926617 17.51343 21.310823
v -6.965109 19.716856 21.310823
v -2.7926617 19.716856 20.513838
v -2.7926617 19.716856 21.310823
v -6.965109 19.716856 20.513838
v -22.81103 19.716856 21.310823
v -22.81103 19.716856 20.513838
vt 0.077691495 0.10961753
vt 0.24086916 -0.00034999847
vt 0.077691495 -0.00034999847
vt 0.24086916 0.10961753
vt 1 -0.00034999847
vt 0.1592803 0.11671221
vt 0.24086916 0.22313237
vt 1 0.10961753
vt 0.1592803 0.21958506
vt 0.077691495 0.22313237
vt 1 0.22313237
vt 0.077691495 0.33309996
vt 0.24086916 0.33309996
vt 1 0.33309996
vt 0.24086916 0.44306755
vt 1 0.44306755
vt 0.077691495 0.44306755
vt -0.00034999847 0.33664727
vt -0.00034999847 0.43952024
vt 0.077691495 0.55658245
vt 0.24086916 0.55658245
vt 1 0.55658245
vt 0.24086916 0.6665499
vt 0.1592803 0.56012976
vt 0.1592803 0.6630026
vt 0.077691495 0.6665499
vt 1 0.6665499
vt 0.077691495 0.7765175
vt 0.24086916 0.7765175
vt 1 0.7765175
vt 0.24086916 0.8900324
vt 1 0.8900324
vt 0.24086916 1
vt 1 1
vt 0.077691495 1
vt 0.077691495 0.8900324
vt -0.00034999847 0.7800648
vt -0.00034999847 0.8864851
vt -0.21319044 -0.00034999847
vt -0.05710745 0.10961753
vt -0.05710745 -0.00034999847
vt -0.21319044 0.10961753
vt -0.812691 0.10961753
vt -0.812691 -0.00034999847
vt -0.812691 0.22313237
vt -0.21319044 0.22313237
vt -0.812691 0.33309996
vt -0.05710745 0.22313237
vt 0.024481356 0.21958506
vt 0.024481356 0.11671221
vt -0.05710745 0.33309996
vt -0.21319044 0.33309996
vt -0.812691 0.44306755
vt -0.21319044 0.44306755
vt -0.13514894 0.33664727
vt -0.13514894 0.43952024
vt -0.05710745 0.44306755
vt -0.812691 0.55658245
vt -0.05710745 0.55658245
vt -0.21319044 0.55658245
vt -0.812691 0.6665499
vt -0.21319044 0.6665499
vt -0.812691 0.7765175
vt -0.05710745 0.6665499
vt 0.024481356 0.6630026
vt 0.024481356 0.56012976
vt -0.05710745 0.7765175
vt -0.21319044 0.7765175
vt -0.812691 0.8900324
vt -0.21319044 0.8900324
vt -0.13514894 0.7800648
vt -0.812691 1
vt -0.13514894 0.8864851
vt -0.21319044 1
vt -0.05710745 0.8900324
vt -0.05710745 1
vt 0.24086916 -0.00034999847
vt 0.077691495 0.10961753
vt 0.077691495 -0.00034999847
vt 0.24086916 0.10961753
vt 1 -0.00034999847
vt 0.1592803 0.11671221
vt 0.24086916 0.22313237
vt 1 0.10961753
vt 0.1592803 0.21958506
vt 0.077691495 0.22313237
vt 1 0.22313237
vt 0.077691495 0.33309996
vt 0.24086916 0.33309996
vt 1 0.33309996
vt 0.24086916 0.44306755
vt 1 0.44306755
vt 0.077691495 0.44306755
vt -0.00034999847 0.33664727
vt -0.00034999847 0.43952024
vt 0.077691495 0.55658245
vt 0.24086916 0.55658245
vt 1 0.55658245
vt 0.24086916 0.6665499
vt 0.1592803 0.56012976
vt 0.1592803 0.6630026
vt 0.077691495 0.6665499
vt 1 0.6665499
vt 0.077691495 0.7765175
vt 0.24086916 0.7765175
vt 1 0.7765175
vt 0.24086916 0.8900324
vt 1 0.8900324
vt 0.24086916 1
vt 1 1
vt 0.077691495 1
vt 0.077691495 0.8900324
vt -0.00034999847 0.7800648
vt -0.00034999847 0.8864851
vt -0.05710745 0.10961753
vt -0.21319044 -0.00034999847
vt -0.05710745 -0.00034999847
vt -0.21319044 0.10961753
vt -0.812691 0.10961753
vt -0.812691 -0.00034999847
vt -0.812691 0.22313237
vt -0.21319044 0.22313237
vt -0.812691 0.33309996
vt -0.05710745 0.22313237
vt 0.024481356 0.21958506
vt 0.024481356 0.11671221
vt -0.05710745 0.33309996
vt -0.21319044 0.33309996
vt -0.812691 0.44306755
vt -0.21319044 0.44306755
vt -0.13514894 0.33664727
vt -0.13514894 0.43952024
vt -0.05710745 0.44306755
vt -0.812691 0.55658245
vt -0.05710745 0.55658245
vt -0.21319044 0.55658245
vt -0.812691 0.6665499
vt -0.21319044 0.6665499
vt -0.812691 0.7765175
vt -0.05710745 0.6665499
vt 0.024481356 0.6630026
vt 0.024481356 0.56012976
vt -0.05710745 0.7765175
vt -0.21319044 0.7765175
vt -0.812691 0.8900324
vt -0.21319044 0.8900324
vt -0.13514894 0.7800648
vt -0.812691 1
vt -0.13514894 0.8864851
vt -0.21319044 1
vt -0.05710745 0.8900324
vt -0.05710745 1
vt 0.077691495 0.10961753
vt 0.077691495 -0.00034999847
vt 0.077691495 -0.00034999847
vt 0.077691495 0.10961753
vt 0.24086916 -0.00034999847
vt 0.077691495 -0.00034999847
vt 0.077691495 -0.00034999847
vt 0.24086916 -0.00034999847
vt 1 -0.00034999847
vt 1 -0.00034999847
vt 0.077691495 0.33309996
vt 0.077691495 0.22313237
vt 0.077691495 0.22313237
vt 0.077691495 0.33309996
vt 0.1592803 0.11671221
vt 0.077691495 0.10961753
vt 0.077691495 0.10961753
vt 0.1592803 0.11671221
vt 0.077691495 0.22313237
vt 0.1592803 0.21958506
vt 0.1592803 0.21958506
vt 0.077691495 0.22313237
vt 0.1592803 0.21958506
vt 0.1592803 0.11671221
vt 0.1592803 0.11671221
vt 0.1592803 0.21958506
vt 0.077691495 0.44306755
vt -0.00034999847 0.43952024
vt -0.00034999847 0.43952024
vt 0.077691495 0.44306755
vt -0.00034999847 0.43952024
vt -0.00034999847 0.33664727
vt -0.00034999847 0.33664727
vt -0.00034999847 0.43952024
vt -0.00034999847 0.33664727
vt 0.077691495 0.33309996
vt 0.077691495 0.33309996
vt -0.00034999847 0.33664727
vt 0.077691495 0.55658245
vt 0.077691495 0.44306755
vt 0.077691495 0.44306755
vt 0.077691495 0.55658245
vt 0.1592803 0.56012976
vt 0.077691495 0.55658245
vt 0.077691495 0.55658245
vt 0.1592803 0.56012976
vt 0.1592803 0.6630026
vt 0.1592803 0.56012976
vt 0.1592803 0.56012976
vt 0.1592803 0.6630026
vt 0.077691495 0.6665499
vt 0.1592803 0.6630026
vt 0.1592803 0.6630026
vt 0.077691495 0.6665499
vt 0.077691495 0.7765175
vt 0.077691495 0.6665499
vt 0.077691495 0.6665499
vt 0.077691495 0.7765175
vt 0.077691495 0.8900324
vt -0.00034999847 0.8864851
vt -0.00034999847 0.8864851
vt 0.077691495 0.8900324
vt -0.00034999847 0.8864851
vt -0.00034999847 0.7800648
vt -0.00034999847 0.7800648
vt -0.00034999847 0.8864851
vt -0.00034999847 0.7800648
vt 0.077691495 0.7765175
vt 0.077691495 0.7765175
vt -0.00034999847 0.7800648
vt 0.077691495 1
vt 0.077691495 0.8900324
vt 0.077691495 0.8900324
vt 0.077691495 1
vt 0.24086916 1
vt 0.077691495 1
vt 0.077691495 1
vt 0.24086916 1
vt 1 1
vt 1 1
vt 1 0.10961753
vt 1 -0.00034999847
vt 1 -0.00034999847
vt 1 0.10961753
vt 1 0.22313237
vt 1 0.22313237
vt 1 0.33309996
vt 1 0.33309996
vt 1 0.44306755
vt 1 0.44306755
vt 1 0.55658245
vt 1 0.55658245
vt 1 0.6665499
vt 1 0.6665499
vt 1 0.7765175
vt 1 0.7765175
vt 1 0.8900324
vt 1 0.8900324
vt 1 1
vt 1 1
vt -0.21319044 -0.00034999847
vt -0.05710745 -0.00034999847
vt -0.05710745 -0.00034999847
vt -0.21319044 -0.00034999847
vt -0.812691 -0.00034999847
vt -0.812691 -0.00034999847
vt -0.05710745 -0.00034999847
vt -0.05710745 0.10961753
vt -0.05710745 0.10961753
vt -0.05710745 -0.00034999847
vt 0.024481356 0.11671221
vt 0.024481356 0.21958506
vt 0.024481356 0.21958506
vt 0.024481356 0.11671221
vt 0.024481356 0.21958506
vt -0.05710745 0.22313237
vt -0.05710745 0.22313237
vt 0.024481356 0.21958506
vt -0.05710745 0.10961753
vt 0.024481356 0.11671221
vt 0.024481356 0.11671221
vt -0.05710745 0.10961753
vt -0.05710745 0.22313237
vt -0.05710745 0.33309996
vt -0.05710745 0.33309996
vt -0.05710745 0.22313237
vt -0.13514894 0.43952024
vt -0.05710745 0.44306755
vt -0.05710745 0.44306755
vt -0.13514894 0.43952024
vt -0.13514894 0.33664727
vt -0.13514894 0.43952024
vt -0.13514894 0.43952024
vt -0.13514894 0.33664727
vt -0.05710745 0.33309996
vt -0.13514894 0.33664727
vt -0.13514894 0.33664727
vt -0.05710745 0.33309996
vt -0.05710745 0.44306755
vt -0.05710745 0.55658245
vt -0.05710745 0.55658245
vt -0.05710745 0.44306755
vt 0.024481356 0.56012976
vt 0.024481356 0.6630026
vt 0.024481356 0.6630026
vt 0.024481356 0.56012976
vt 0.024481356 0.6630026
vt -0.05710745 0.6665499
vt -0.05710745 0.6665499
vt 0.024481356 0.6630026
vt -0.05710745 0.55658245
vt 0.024481356 0.56012976
vt 0.024481356 0.56012976
vt -0.05710745 0.55658245
vt -0.05710745 0.6665499
vt -0.05710745 0.7765175
vt -0.05710745 0.7765175
vt -0.05710745 0.6665499
vt -0.812691 0.10961753
vt -0.812691 -0.00034999847
vt -0.812691 -0.00034999847
vt -0.812691 0.10961753
vt -0.812691 0.22313237
vt -0.812691 0.22313237
vt -0.812691 0.33309996
vt -0.812691 0.33309996
vt -0.812691 0.44306755
vt -0.812691 0.44306755
vt -0.812691 0.55658245
vt -0.812691 0.55658245
vt -0.812691 0.6665499
vt -0.812691 0.6665499
vt -0.812691 0.7765175
vt -0.812691 0.7765175
vt -0.812691 0.8900324
vt -0.812691 0.8900324
vt -0.812691 1
vt -0.812691 1
vt -0.13514894 0.8864851
vt -0.05710745 0.8900324
vt -0.05710745 0.8900324
vt -0.13514894 0.8864851
vt -0.13514894 0.7800648
vt -0.13514894 0.8864851
vt -0.13514894 0.8864851
vt -0.13514894 0.7800648
vt -0.05710745 0.7765175
vt -0.13514894 0.7800648
vt -0.13514894 0.7800648
vt -0.05710745 0.7765175
vt -0.05710745 0.8900324
vt -0.05710745 1
vt -0.05710745 1
vt -0.05710745 0.8900324
vt -0.21319044 1
vt -0.05710745 1
vt -0.05710745 1
vt -0.21319044 1
vt -0.812691 1
vt -0.812691 1
vn -0.015871048 0.015871048 0.99974805
vn -0.015871048 0.015871048 0.99974805
vn -0.015871048 0.015871048 0.99974805
vn -0.015871048 0.015871048 0.99974805
vn -0.015871048 0.015871048 0.99974805
vn -0.015871048 0.015871048 0.99974805
vn -0.015871048 0.015871048 0.99974805
vn -0.015871048 0.015871048 0.99974805
vn -0.015871048 0.015871048 0.99974805
vn -0.015871048 0.015871048 0.99974805
vn -0.015871048 0.015871048 0.99974805
vn -0.015871048 0.015871048 0.99974805
vn -0.015871048 0.015871048 0.99974805
vn -0.015871048 0.015871048 0.99974805
vn -0.015871048 0.015871048 0.99974805
vn -0.015871048 0.015871048 0.99974805
vn -0.015871048 0.015871048 0.99974805
vn -0.015871048 0.015871048 0.99974805
vn -0.015871048 0.015871048 0.99974805
vn -0.015871048 0.015871048 0.99974805
vn -0.015871048 0.015871048 0.99974805
vn -0.015871048 0.015871048 0.99974805
vn -0.015871048 0.015871048 0.99974805
vn -0.015871048 0.015871048 0.99974805
vn -0.015871048 0.015871048 0.99974805
vn -0.015871048 0.015871048 0.99974805
vn -0.015871048 0.015871048 0.99974805
vn -0.015871048 0.015871048 0.99974805
vn -0.015871048 0.015871048 0.99974805
vn -0.015871048 0.015871048 0.99974805
vn -0.015871048 0.015871048 0.99974805
vn -0.015871048 0.015871048 0.99974805
vn -0.015871048 0.015871048 0.99974805
vn -0.015871048 0.015871048 0.99974805
vn -0.015871048 0.015871048 0.99974805
vn -0.015871048 0.015871048 0.99974805
vn -0.015871048 0.015871048 0.99974805
vn -0.015871048 0.015871048 0.99974805
vn -0.015871048 0.015871048 0.99974805
vn -0.015871048 0.015871048 0.99974805
vn -0.015871048 0.015871048 0.99974805
vn -0.015871048 0.015871048 0.99974805
vn -0.015871048 0.015871048 0.99974805
vn -0.015871048 0.015871048 0.99974805
vn -0.015871048 0.015871048 0.99974805
vn -0.015871048 0.015871048 0.99974805
vn -0.015871048 0.015871048 0.99974805
vn -0.015871048 0.015871048 0.99974805
vn -0.015871048 0.015871048 0.99974805
vn -0.015871048 0.015871048 0.99974805
vn -0.015871048 0.015871048 0.99974805
vn -0.015871048 0.015871048 0.99974805
vn -0.015871048 0.015871048 0.99974805
vn -0.015871048 0.015871048 0.99974805
vn -0.015871048 0.015871048 0.99974805
vn -0.015871048 0.015871048 0.99974805
vn -0.015871048 0.015871048 0.99974805
vn -0.015871048 0.015871048 0.99974805
vn -0.015871048 0.015871048 0.99974805
vn -0.015871048 0.015871048 0.99974805
vn -0.015871048 0.015871048 0.99974805
vn -0.015871048 0.015871048 0.99974805
vn -0.015871048 0.015871048 0.99974805
vn -0.015871048 0.015871048 0.99974805
vn -0.015871048 0.015871048 0.99974805
vn -0.015871048 0.015871048 0.99974805
vn -0.015871048 0.015871048 0.99974805
vn -0.015871048 0.015871048 0.99974805
vn -0.015871048 0.015871048 0.99974805
vn -0.015871048 0.015871048 0.99974805
vn -0.015871048 -0.015870988 0.99974805
vn -0.015871048 0.015871048 0.99974805
vn -0.015871048 0.015871048 0.99974805
vn -0.015871048 0.015871048 0.99974805
vn -0.015871048 0.015871048 0.99974805
vn -0.015871048 0.015871048 0.99974805
vn -0.015871048 0.015871048 -0.99974805
vn -0.015871048 0.015871048 -0.99974805
vn -0.015871048 0.015871048 -0.99974805
vn -0.015871048 0.015871048 -0.99974805
vn -0.015871048 0.015871048 -0.99974805
vn -0.015871048 0.015871048 -0.99974805
vn -0.015871048 0.015871048 -0.99974805
vn -0.015871048 0.015871048 -0.99974805
vn -0.015871048 0.015871048 -0.99974805
vn -0.015871048 0.015871048 -0.99974805
vn -0.015871048 0.015871048 -0.99974805
vn -0.015871048 0.015871048 -0.99974805
vn -0.015871048 0.015871048 -0.99974805
vn -0.015871048 0.015871048 -0.99974805
vn -0.015871048 0.015871048 -0.99974805
vn -0.015871048 0.015871048 -0.99974805
vn -0.015871048 0.015871048 -0.99974805
vn -0.015871048 0.015871048 -0.99974805
vn -0.015871048 0.015871048 -0.99974805
vn -0.015871048 0.015871048 -0.99974805
vn -0.015871048 0.015871048 -0.99974805
vn -0.015871048 0.015871048 -0.99974805
vn -0.015871048 0.015871048 -0.99974805
vn -0.015871048 0.015871048 -0.99974805
vn -0.015871048 0.015871048 -0.99974805
vn -0.015871048 0.015871048 -0.99974805
vn -0.015871048 0.015871048 -0.99974805
vn -0.015871048 0.015871048 -0.99974805
vn -0.015871048 0.015871048 -0.99974805
vn -0.015871048 0.015871048 -0.99974805
vn -0.015871048 0.015871048 -0.99974805
vn -0.015871048 0.015871048 -0.99974805
vn -0.015871048 0.015871048 -0.99974805
vn -0.015871048 0.015871048 -0.99974805
vn -0.015871048 0.015871048 -0.99974805
vn -0.015871048 0.015871048 -0.99974805
vn -0.015871048 0.015871048 -0.99974805
vn -0.015871048 0.015871048 -0.99974805
vn -0.015871048 0.015871048 -0.99974805
vn -0.015871048 0.015871048 -0.99974805
vn -0.015871048 0.015871048 -0.99974805
vn -0.015871048 0.015871048 -0.99974805
vn -0.015871048 0.015871048 -0.99974805
vn -0.015871048 0.015871048 -0.99974805
vn -0.015871048 0.015871048 -0.99974805
vn -0.015871048 0.015871048 -0.99974805
vn -0.015871048 0.015871048 -0.99974805
vn -0.015871048 0.015871048 -0.99974805
vn -0.015871048 0.015871048 -0.99974805
vn -0.015871048 0.015871048 -0.99974805
vn -0.015871048 0.015871048 -0.99974805
vn -0.015871048 0.015871048 -0.99974805
vn -0.015871048 0.015871048 -0.99974805
vn -0.015871048 0.015871048 -0.99974805
vn -0.015871048 0.015871048 -0.99974805
vn -0.015871048 -0.015870988 -0.99974805
vn -0.015871048 0.015871048 -0.99974805
vn -0.015871048 0.015871048 -0.99974805
vn -0.015871048 0.015871048 -0.99974805
vn -0.015871048 0.015871048 -0.99974805
vn -0.015871048 0.015871048 -0.99974805
vn -0.015871048 0.015871048 -0.99974805
vn -0.015871048 0.015871048 -0.99974805
vn -0.015871048 0.015871048 -0.99974805
vn -0.015871048 0.015871048 -0.99974805
vn -0.015871048 0.015871048 -0.99974805
vn -0.015871048 0.015871048 -0.99974805
vn -0.015871048 0.015871048 -0.99974805
vn -0.015871048 0.015871048 -0.99974805
vn -0.015871048 0.015871048 -0.99974805
vn -0.015871048 0.015871048 -0.99974805
vn -0.015871048 0.015871048 -0.99974805
vn -0.015871048 -0.015870988 -0.99974805
vn -0.015871048 0.015871048 -0.99974805
vn -0.015871048 0.015871048 -0.99974805
vn -0.015871048 0.015871048 -0.99974805
vn -0.999874 0.015871048 -0.00034391563
vn -0.999874 0.015871048 -0.00034391563
vn -0.999874 0.015871048 -0.00034391563
vn -0.999874 0.015871048 -0.00034391563
vn -0.015871048 -0.999874 -0.00034526698
vn -0.015871048 -0.999874 -0.00034526698
vn -0.015871048 -0.999874 -0.00034526698
vn -0.015871048 -0.999874 -0.00034526698
vn -0.015871048 -0.999874 -0.00034526698
vn -0.015871048 -0.999874 -0.00034526698
vn -0.999874 0.015871048 -0.00034391563
vn -0.999874 0.015871048 -0.00034391563
vn -0.999874 0.015871048 -0.00034391563
vn -0.999874 0.015871048 -0.00034391563
vn -0.04756513 0.99886817 -0
vn -0.04756513 0.99886817 -0
vn -0.04756513 0.99886817 -0
vn -0.04756513 0.99886817 -0
vn -0.04756513 -0.99886817 -0
vn -0.04756513 -0.99886817 -0
vn -0.04756513 -0.99886817 -0
vn -0.04756513 -0.99886817 -0
vn -0.999874 0.015871048 -0.00034391563
vn -0.999874 0.015871048 -0.00034391563
vn -0.999874 0.015871048 -0.00034391563
vn -0.999874 0.015871048 -0.00034391563
vn -0.04756513 0.99886817 -0
vn -0.04756513 0.99886817 -0
vn -0.04756513 0.99886817 -0
vn -0.04756513 0.99886817 -0
vn -0.999874 0.015871048 -0.00034391563
vn -0.999874 0.015871048 -0.00034391563
vn -0.999874 0.015871048 -0.00034391563
vn -0.999874 0.015871048 -0.00034391563
vn -0.04756513 -0.99886817 -0
vn -0.04756513 -0.99886817 -0
vn -0.04756513 -0.99886817 -0
vn -0.04756513 -0.99886817 -0
vn -0.999874 0.015871048 -0.00034391563
vn -0.999874 0.015871048 -0.00034391563
vn -0.999874 0.015871048 -0.00034391563
vn -0.999874 0.015871048 -0.00034391563
vn -0.04756513 0.99886817 -0
vn -0.04756513 0.99886817 -0
vn -0.04756513 0.99886817 -0
vn -0.04756513 0.99886817 -0
vn -0.999874 0.015871048 -0.00034391563
vn -0.999874 0.015871048 -0.00034391563
vn -0.999874 0.015871048 -0.00034391563
vn -0.999874 0.015871048 -0.00034391563
vn -0.04756513 -0.99886817 -0
vn -0.04756513 -0.99886817 -0
vn -0.04756513 -0.99886817 -0
vn -0.04756513 -0.99886817 -0
vn -0.999874 0.015871048 -0.00034391563
vn -0.999874 0.015871048 -0.00034391563
vn -0.999874 0.015871048 -0.00034391563
vn -0.999874 0.015871048 -0.00034391563
vn -0.04756513 0.99886817 -0
vn -0.04756513 0.99886817 -0
vn -0.04756513 0.99886817 -0
vn -0.04756513 0.99886817 -0
vn -0.999874 0.015871048 -0.00034391563
vn -0.999874 0.015871048 -0.00034391563
vn -0.999874 0.015871048 -0.00034391563
vn -0.999874 0.015871048 -0.00034391563
vn -0.04756513 -0.99886817 -0
vn -0.04756513 -0.99886817 -0
vn -0.04756513 -0.99886817 -0
vn -0.04756513 -0.99886817 -0
vn -0.999874 0.015871048 -0.00034391563
vn -0.999874 0.015871048 -0.00034391563
vn -0.999874 0.015871048 -0.00034391563
vn -0.999874 0.015871048 -0.00034391563
vn -0.015871048 0.999874 -0.00034526698
vn -0.015871048 0.999874 -0.00034526698
vn -0.015871048 0.999874 -0.00034526698
vn -0.015871048 0.999874 -0.00034526698
vn -0.015871048 0.999874 -0.00034526698
vn -0.015871048 0.999874 -0.00034526698
vn 0.999874 0.015871048 -0.00034391563
vn 0.999874 0.015871048 -0.00034391563
vn 0.999874 0.015871048 -0.00034391563
vn 0.999874 0.015871048 -0.00034391563
vn 0.999874 0.015871048 -0.00034391563
vn 0.999874 0.015871048 -0.00034391563
vn 0.999874 0.015871048 -0.00034391563
vn 0.999874 0.015871048 -0.00034391563
vn 0.999874 0.015871048 -0.00034391563
vn 0.999874 0.015871048 -0.00034391563
vn 0.999874 0.015871048 -0.00034391563
vn 0.999874 0.015871048 -0.00034391563
vn 0.999874 0.015871048 -0.00034391563
vn 0.999874 0.015871048 -0.00034391563
vn 0.999874 0.015871048 -0.00034391563
vn 0.999874 0.015871048 -0.00034391563
vn 0.999874 0.015871048 -0.00034391563
vn 0.999874 0.015871048 -0.00034391563
vn 0.999874 0.015871048 -0.00034391563
vn 0.999874 0.015871048 -0.00034391563
vn -0.015871048 -0.999874 -0.00034526698
vn -0.015871048 -0.999874 -0.00034526698
vn -0.015871048 -0.999874 -0.00034526698
vn -0.015871048 -0.999874 -0.00034526698
vn -0.015871048 -0.999874 -0.00034526698
vn -0.015871048 -0.999874 -0.00034526698
vn 0.999874 0.015871048 -0.00034391563
vn 0.999874 0.015871048 -0.00034391563
vn 0.999874 0.015871048 -0.00034391563
vn 0.999874 0.015871048 -0.00034391563
vn 0.999874 0.015871048 -0.00034391563
vn 0.999874 0.015871048 -0.00034391563
vn 0.999874 0.015871048 -0.00034391563
vn 0.999874 0.015871048 -0.00034391563
vn 0.04756513 0.99886817 -0
vn 0.04756513 0.99886817 -0
vn 0.04756513 0.99886817 -0
vn 0.04756513 0.99886817 -0
vn 0.04756513 -0.99886817 -0
vn 0.04756513 -0.99886817 -0
vn 0.04756513 -0.99886817 -0
vn 0.04756513 -0.99886817 -0
vn 0.999874 0.015871048 -0.00034391563
vn 0.999874 0.015871048 -0.00034391563
vn 0.999874 0.015871048 -0.00034391563
vn 0.999874 0.015871048 -0.00034391563
vn 0.04756513 -0.99886817 -0
vn 0.04756513 -0.99886817 -0
vn 0.04756513 -0.99886817 -0
vn 0.04756513 -0.99886817 -0
vn 0.999874 0.015871048 -0.00034391563
vn 0.999874 0.015871048 -0.00034391563
vn 0.999874 0.015871048 -0.00034391563
vn 0.999874 0.015871048 -0.00034391563
vn 0.04756513 0.99886817 -0
vn 0.04756513 0.99886817 -0
vn 0.04756513 0.99886817 -0
vn 0.04756513 0.99886817 -0
vn 0.999874 0.015871048 -0.00034391563
vn 0.999874 0.015871048 -0.00034391563
vn 0.999874 0.015871048 -0.00034391563
vn 0.999874 0.015871048 -0.00034391563
vn 0.999874 0.015871048 -0.00034391563
vn 0.999874 0.015871048 -0.00034391563
vn 0.999874 0.015871048 -0.00034391563
vn 0.999874 0.015871048 -0.00034391563
vn 0.04756513 0.99886817 -0
vn 0.04756513 0.99886817 -0
vn 0.04756513 0.99886817 -0
vn 0.04756513 0.99886817 -0
vn 0.04756513 -0.99886817 -0
vn 0.04756513 -0.99886817 -0
vn 0.04756513 -0.99886817 -0
vn 0.04756513 -0.99886817 -0
vn 0.999874 0.015871048 -0.00034391563
vn 0.999874 0.015871048 -0.00034391563
vn 0.999874 0.015871048 -0.00034391563
vn 0.999874 0.015871048 -0.00034391563
vn -0.999874 0.015871048 -0.00034391563
vn -0.999874 0.015871048 -0.00034391563
vn -0.999874 0.015871048 -0.00034391563
vn -0.999874 0.015871048 -0.00034391563
vn -0.999874 0.015871048 -0.00034391563
vn -0.999874 0.015871048 -0.00034391563
vn -0.999874 0.015871048 -0.00034391563
vn -0.999874 0.015871048 -0.00034391563
vn -0.999874 0.015871048 -0.00034391563
vn -0.999874 0.015871048 -0.00034391563
vn -0.999874 0.015871048 -0.00034391563
vn -0.999874 0.015871048 -0.00034391563
vn -0.999874 0.015871048 -0.00034391563
vn -0.999874 0.015871048 -0.00034391563
vn -0.999874 0.015871048 -0.00034391563
vn -0.999874 0.015871048 -0.00034391563
vn -0.999874 0.015871048 -0.00034391563
vn -0.999874 0.015871048 -0.00034391563
vn -0.999874 0.015871048 -0.00034391563
vn -0.999874 0.015871048 -0.00034391563
vn 0.04756513 -0.99886817 -0
vn 0.04756513 -0.99886817 -0
vn 0.04756513 -0.99886817 -0
vn 0.04756513 -0.99886817 -0
vn 0.999874 0.015871048 -0.00034391563
vn 0.999874 0.015871048 -0.00034391563
vn 0.999874 0.015871048 -0.00034391563
vn 0.999874 0.015871048 -0.00034391563
vn 0.04756513 0.99886817 -0
vn 0.04756513 0.99886817 -0
vn 0.04756513 0.99886817 -0
vn 0.04756513 0.99886817 -0
vn 0.999874 0.015871048 -0.00034391563
vn 0.999874 0.015871048 -0.00034391563
vn 0.999874 0.015871048 -0.00034391563
vn 0.999874 0.015871048 -0.00034391563
vn -0.015871048 0.999874 -0.00034526698
vn -0.015871048 0.999874 -0.00034526698
vn -0.015871048 0.999874 -0.00034526698
vn -0.015871048 0.999874 -0.00034526698
vn -0.015871048 0.999874 -0.00034526698
vn -0.015871048 0.999874 -0.00034526698
g env_echobasentrance_door_gb_0
f 3/3/3 2/2/2 1/1/1
f 4/4/4 1/1/1 2/2/2
f 2/2/2 5/5/5 4/4/4
f 1/1/1 4/4/4 6/6/6
f 4/4/4 7/7/7 6/6/6
f 8/8/8 4/4/4 5/5/5
f 4/4/4 8/8/8 7/7/7
f 6/6/6 7/7/7 9/9/9
f 9/9/9 7/7/7 10/10/10
f 11/11/11 7/7/7 8/8/8
f 10/10/10 7/7/7 12/12/12
f 7/7/7 11/11/11 13/13/13
f 13/13/13 12/12/12 7/7/7
f 14/14/14 13/13/13 11/11/11
f 13/13/13 14/14/14 15/15/15
f 13/13/13 15/15/15 12/12/12
f 16/16/16 15/15/15 14/14/14
f 17/17/17 12/12/12 15/15/15
f 18/18/18 12/12/12 17/17/17
f 19/19/19 18/18/18 17/17/17
f 17/17/17 15/15/15 20/20/20
f 15/15/15 16/16/16 21/21/21
f 21/21/21 20/20/20 15/15/15
f 22/22/22 21/21/21 16/16/16
f 21/21/21 22/22/22 23/23/23
f 20/20/20 21/21/21 24/24/24
f 21/21/21 23/23/23 24/24/24
f 24/24/24 23/23/23 25/25/25
f 25/25/25 23/23/23 26/26/26
f 27/27/27 23/23/23 22/22/22
f 26/26/26 23/23/23 28/28/28
f 23/23/23 27/27/27 29/29/29
f 29/29/29 28/28/28 23/23/23
f 30/30/30 29/29/29 27/27/27
f 29/29/29 30/30/30 31/31/31
f 29/29/29 31/31/31 28/28/28
f 32/32/32 31/31/31 30/30/30
f 31/31/31 32/32/32 33/33/33
f 34/34/34 33/33/33 32/32/32
f 33/33/33 35/35/35 31/31/31
f 36/36/36 31/31/31 35/35/35
f 36/36/36 28/28/28 31/31/31
f 37/37/37 28/28/28 36/36/36
f 38/38/38 37/37/37 36/36/36
f 41/41/41 40/40/40 39/39/39
f 42/42/42 39/39/39 40/40/40
f 42/42/42 43/43/43 39/39/39
f 44/44/44 39/39/39 43/43/43
f 43/43/43 42/42/42 45/45/45
f 46/46/46 45/45/45 42/42/42
f 45/45/45 46/46/46 47/47/47
f 40/40/40 48/48/48 42/42/42
f 46/46/46 42/42/42 48/48/48
f 48/48/48 40/40/40 49/49/49
f 50/50/50 49/49/49 40/40/40
f 48/48/48 51/51/51 46/46/46
f 52/52/52 47/47/47 46/46/46
f 52/52/52 46/46/46 51/51/51
f 47/47/47 52/52/52 53/53/53
f 54/54/54 53/53/53 52/52/52
f 55/55/55 52/52/52 51/51/51
f 52/52/52 55/55/55 54/54/54
f 56/56/56 54/54/54 55/55/55
f 57/57/57 54/54/54 56/56/56
f 53/53/53 54/54/54 58/58/58
f 57/57/57 59/59/59 54/54/54
f 60/60/60 58/58/58 54/54/54
f 60/60/60 54/54/54 59/59/59
f 58/58/58 60/60/60 61/61/61
f 62/62/62 61/61/61 60/60/60
f 61/61/61 62/62/62 63/63/63
f 59/59/59 64/64/64 60/60/60
f 62/62/62 60/60/60 64/64/64
f 64/64/64 59/59/59 65/65/65
f 66/66/66 65/65/65 59/59/59
f 64/64/64 67/67/67 62/62/62
f 68/68/68 63/63/63 62/62/62
f 68/68/68 62/62/62 67/67/67
f 63/63/63 68/68/68 69/69/69
f 70/70/70 69/69/69 68/68/68
f 71/71/71 68/68/68 67/67/67
f 68/68/68 71/71/71 70/70/70
f 69/69/69 70/70/70 72/72/72
f 73/73/73 70/70/70 71/71/71
f 74/74/74 72/72/72 70/70/70
f 75/75/75 70/70/70 73/73/73
f 74/74/74 70/70/70 76/76/76
f 75/75/75 76/76/76 70/70/70
f 79/79/79 78/78/78 77/77/77
f 80/80/80 77/77/77 78/78/78
f 77/77/77 80/80/80 81/81/81
f 78/78/78 82/82/82 80/80/80
f 82/82/82 83/83/83 80/80/80
f 84/84/84 81/81/81 80/80/80
f 80/80/80 83/83/83 84/84/84
f 82/82/82 85/85/85 83/83/83
f 85/85/85 86/86/86 83/83/83
f 87/87/87 84/84/84 83/83/83
f 86/86/86 88/88/88 83/83/83
f 83/83/83 89/89/89 87/87/87
f 89/89/89 83/83/83 88/88/88
f 90/90/90 87/87/87 89/89/89
f 89/89/89 91/91/91 90/90/90
f 89/89/89 88/88/88 91/91/91
f 92/92/92 90/90/90 91/91/91
f 93/93/93 91/91/91 88/88/88
f 94/94/94 93/93/93 88/88/88
f 95/95/95 93/93/93 94/94/94
f 93/93/93 96/96/96 91/91/91
f 91/91/91 97/97/97 92/92/92
f 97/97/97 91/91/91 96/96/96
f 98/98/98 92/92/92 97/97/97
f 97/97/97 99/99/99 98/98/98
f 96/96/96 100/100/100 97/97/97
f 100/100/100 99/99/99 97/97/97
f 100/100/100 101/101/101 99/99/99
f 101/101/101 102/102/102 99/99/99
f 103/103/103 98/98/98 99/99/99
f 102/102/102 104/104/104 99/99/99
f 99/99/99 105/105/105 103/103/103
f 105/105/105 99/99/99 104/104/104
f 106/106/106 103/103/103 105/105/105
f 105/105/105 107/107/107 106/106/106
f 105/105/105 104/104/104 107/107/107
f 108/108/108 106/106/106 107/107/107
f 107/107/107 109/109/109 108/108/108
f 110/110/110 108/108/108 109/109/109
f 109/109/109 107/107/107 111/111/111
f 112/112/112 111/111/111 107/107/107
f 112/112/112 107/107/107 104/104/104
f 113/113/113 112/112/112 104/104/104
f 114/114/114 112/112/112 113/113/113
f 117/117/117 116/116/116 115/115/115
f 118/118/118 115/115/115 116/116/116
f 118/118/118 116/116/116 119/119/119
f 120/120/120 119/119/119 116/116/116
f 119/119/119 121/121/121 118/118/118
f 122/122/122 118/118/118 121/121/121
f 121/121/121 123/123/123 122/122/122
f 115/115/115 118/118/118 124/124/124
f 122/122/122 124/124/124 118/118/118
f 124/124/124 125/125/125 115/115/115
f 126/126/126 115/115/115 125/125/125
f 124/124/124 122/122/122 127/127/127
f 128/128/128 122/122/122 123/123/123
f 128/128/128 127/127/127 122/122/122
f 123/123/123 129/129/129 128/128/128
f 130/130/130 128/128/128 129/129/129
f 131/131/131 127/127/127 128/128/128
f 128/128/128 130/130/130 131/131/131
f 132/132/132 131/131/131 130/130/130
f 133/133/133 132/132/132 130/130/130
f 129/129/129 134/134/134 130/130/130
f 133/133/133 130/130/130 135/135/135
f 136/136/136 130/130/130 134/134/134
f 136/136/136 135/135/135 130/130/130
f 134/134/134 137/137/137 136/136/136
f 138/138/138 136/136/136 137/137/137
f 137/137/137 139/139/139 138/138/138
f 135/135/135 136/136/136 140/140/140
f 138/138/138 140/140/140 136/136/136
f 140/140/140 141/141/141 135/135/135
f 142/142/142 135/135/135 141/141/141
f 140/140/140 138/138/138 143/143/143
f 144/144/144 138/138/138 139/139/139
f 144/144/144 143/143/143 138/138/138
f 139/139/139 145/145/145 144/144/144
f 146/146/146 144/144/144 145/145/145
f 147/147/147 143/143/143 144/144/144
f 144/144/144 146/146/146 147/147/147
f 145/145/145 148/148/148 146/146/146
f 149/149/149 147/147/147 146/146/146
f 150/150/150 146/146/146 148/148/148
f 151/151/151 149/149/149 146/146/146
f 150/150/150 152/152/152 146/146/146
f 151/151/151 146/146/146 152/152/152
f 155/155/155 154/154/154 153/153/153
f 156/156/156 153/153/153 154/154/154
f 159/159/159 158/158/158 157/157/157
f 160/160/160 157/157/157 158/158/158
f 157/157/157 160/160/160 161/161/161
f 162/162/162 161/161/161 160/160/160
f 165/165/165 164/164/164 163/163/163
f 166/166/166 163/163/163 164/164/164
f 169/169/169 168/168/168 167/167/167
f 170/170/170 167/167/167 168/168/168
f 173/173/173 172/172/172 171/171/171
f 174/174/174 171/171/171 172/172/172
f 177/177/177 176/176/176 175/175/175
f 178/178/178 175/175/175 176/176/176
f 181/181/181 180/180/180 179/179/179
f 182/182/182 179/179/179 180/180/180
f 185/185/185 184/184/184 183/183/183
f 186/186/186 183/183/183 184/184/184
f 189/189/189 188/188/188 187/187/187
f 190/190/190 187/187/187 188/188/188
f 193/193/193 192/192/192 191/191/191
f 194/194/194 191/191/191 192/192/192
f 197/197/197 196/196/196 195/195/195
f 198/198/198 195/195/195 196/196/196
f 201/201/201 200/200/200 199/199/199
f 202/202/202 199/199/199 200/200/200
f 205/205/205 204/204/204 203/203/203
f 206/206/206 203/203/203 204/204/204
f 209/209/209 208/208/208 207/207/207
f 210/210/210 207/207/207 208/208/208
f 213/213/213 212/212/212 211/211/211
f 214/214/214 211/211/211 212/212/212
f 217/217/217 216/216/216 215/215/215
f 218/218/218 215/215/215 216/216/216
f 221/221/221 220/220/220 219/219/219
f 222/222/222 219/219/219 220/220/220
f 225/225/225 224/224/224 223/223/223
f 226/226/226 223/223/223 224/224/224
f 229/229/229 228/228/228 227/227/227
f 230/230/230 227/227/227 228/228/228
f 227/227/227 230/230/230 231/231/231
f 232/232/232 231/231/231 230/230/230
f 235/235/235 234/234/234 233/233/233
f 236/236/236 233/233/233 234/234/234
f 233/233/233 236/236/236 237/237/237
f 238/238/238 237/237/237 236/236/236
f 237/237/237 238/238/238 239/239/239
f 240/240/240 239/239/239 238/238/238
f 239/239/239 240/240/240 241/241/241
f 242/242/242 241/241/241 240/240/240
f 241/241/241 242/242/242 243/243/243
f 244/244/244 243/243/243 242/242/242
f 243/243/243 244/244/244 245/245/245
f 246/246/246 245/245/245 244/244/244
f 245/245/245 246/246/246 247/247/247
f 248/248/248 247/247/247 246/246/246
f 247/247/247 248/248/248 249/249/249
f 250/250/250 249/249/249 248/248/248
f 249/249/249 250/250/250 251/251/251
f 252/252/252 251/251/251 250/250/250
f 255/255/255 254/254/254 253/253/253
f 256/256/256 253/253/253 254/254/254
f 253/253/253 256/256/256 257/257/257
f 258/258/258 257/257/257 256/256/256
f 261/261/261 260/260/260 259/259/259
f 262/262/262 259/259/259 260/260/260
f 265/265/265 264/264/264 263/263/263
f 266/266/266 263/263/263 264/264/264
f 269/269/269 268/268/268 267/267/267
f 270/270/270 267/267/267 268/268/268
f 273/273/273 272/272/272 271/271/271
f 274/274/274 271/271/271 272/272/272
f 277/277/277 276/276/276 275/275/275
f 278/278/278 275/275/275 276/276/276
f 281/281/281 280/280/280 279/279/279
f 282/282/282 279/279/279 280/280/280
f 285/285/285 284/284/284 283/283/283
f 286/286/286 283/283/283 284/284/284
f 289/289/289 288/288/288 287/287/287
f 290/290/290 287/287/287 288/288/288
f 293/293/293 292/292/292 291/291/291
f 294/294/294 291/291/291 292/292/292
f 297/297/297 296/296/296 295/295/295
f 298/298/298 295/295/295 296/296/296
f 301/301/301 300/300/300 299/299/299
f 302/302/302 299/299/299 300/300/300
f 305/305/305 304/304/304 303/303/303
f 306/306/306 303/303/303 304/304/304
f 309/309/309 308/308/308 307/307/307
f 310/310/310 307/307/307 308/308/308
f 313/313/313 312/312/312 311/311/311
f 314/314/314 311/311/311 312/312/312
f 311/311/311 314/314/314 315/315/315
f 316/316/316 315/315/315 314/314/314
f 315/315/315 316/316/316 317/317/317
f 318/318/318 317/317/317 316/316/316
f 317/317/317 318/318/318 319/319/319
f 320/320/320 319/319/319 318/318/318
f 319/319/319 320/320/320 321/321/321
f 322/322/322 321/321/321 320/320/320
f 321/321/321 322/322/322 323/323/323
f 324/324/324 323/323/323 322/322/322
f 323/323/323 324/324/324 325/325/325
f 326/326/326 325/325/325 324/324/324
f 325/325/325 326/326/326 327/327/327
f 328/328/328 327/327/327 326/326/326
f 327/327/327 328/328/328 329/329/329
f 330/330/330 329/329/329 328/328/328
f 333/333/333 332/332/332 331/331/331
f 334/334/334 331/331/331 332/332/332
f 337/337/337 336/336/336 335/335/335
f 338/338/338 335/335/335 336/336/336
f 341/341/341 340/340/340 339/339/339
f 342/342/342 339/339/339 340/340/340
f 345/345/345 344/344/344 343/343/343
f 346/346/346 343/343/343 344/344/344
f 349/349/349 348/348/348 347/347/347
f 350/350/350 347/347/347 348/348/348
f 347/347/347 350/350/350 351/351/351
f 352/352/352 351/351/351 350/350/350
