g geo_landing_platform_mesh
v -0.005781308 0.025899582 -0.01451344
v -0.005781308 0.023605391 -0.01451344
v -0.005781308 0.023605391 -0.02121953
v -0.005781308 0.025899582 -0.021043055
v 0.006042592 0.07513641 -0.01451344
v 0.006042592 0.06737146 -0.015925247
v 0.006042592 0.06737146 -0.02121953
v 0.006042592 0.07672469 -0.01857239
v 0.006042592 0.085372016 -0.0113368705
v 0.006042592 0.08678383 -0.014336966
v 0.006042592 0.09243105 -0.00674849
v 0.006042592 0.0950782 -0.008689731
v 0.006042592 0.096313536 -4.2401254E-05
v 0.006042592 0.099843055 -4.2401254E-05
v 0.006042592 0.0950782 0.008604921
v 0.006042592 0.09243105 0.0066636875
v 0.006042592 0.08678383 0.014252156
v 0.006042592 0.085372016 0.011252068
v 0.006042592 0.07672469 0.018664062
v 0.006042592 0.07513641 0.014428638
v 0.006042592 0.06737146 0.021134727
v 0.006042592 0.06737146 0.016016923
v 0.0007483065 0.031899765 -0.02121953
v 0.006042592 0.06737146 -0.02121953
v 0.006042592 0.06737146 -0.015925247
v 0.0007483065 0.031899765 -0.014689915
v -0.000663504 0.030135006 -0.014689915
v -0.000663504 0.030135006 -0.02121953
v -0.005781308 0.025899582 -0.021043055
v -0.005781308 0.025899582 -0.01451344
v -0.000663504 0.030135006 -0.02121953
v 0.00092478096 0.023605391 -0.02121953
v 0.0007483065 0.031899765 -0.02121953
v -0.005781308 0.025899582 -0.021043055
v -0.005781308 0.023605391 -0.02121953
v 0.006042592 0.09243105 -0.00674849
v 0.006042592 0.096313536 -4.2401254E-05
v 0.008513257 0.096313536 -4.2401254E-05
v 0.008513257 0.09243105 -0.00674849
v 0.006042592 0.085372016 -0.0113368705
v 0.008513257 0.085372016 -0.0113368705
v 0.006042592 0.07513641 -0.01451344
v 0.008513257 0.07513641 -0.01451344
v 0.006042592 0.06737146 -0.015925247
v 0.008513257 0.06737146 -0.015925247
v 0.011866301 0.025899582 -0.014689915
v 0.0007483065 0.031899765 -0.014689915
v -0.000663504 0.030135006 -0.014689915
v -0.005781308 0.025899582 -0.01451344
v -0.0075460672 0.025899582 -0.01221925
v -0.005781308 0.025899582 -0.01451344
v 0.011866301 0.025899582 -0.014689915
v 0.011866301 0.025899582 -4.2401254E-05
v -0.009310827 0.025899582 -0.01221925
v -0.0737246 0.025899582 -4.2401254E-05
v -0.0737246 0.025899582 -0.006042592
v -0.07513641 0.025899582 -0.01221925
v -0.07513641 0.025899582 -0.006042592
v -0.009310827 0.025899582 0.012134448
v -0.0737246 0.025899582 0.0061342567
v -0.07513641 0.025899582 0.012310922
v -0.07513641 0.025899582 0.0061342567
v -0.0075460672 0.025899582 0.012134448
v 0.011866301 0.025899582 0.014605112
v -0.005781308 0.025899582 0.014428638
v -0.07513641 0.02484072 -0.006042592
v -0.07513641 0.025899582 -0.01221925
v -0.07513641 0.025899582 -0.006042592
v -0.07513641 0.025017202 -0.01221925
v -0.07513641 0.023605391 -0.01221925
v -0.07513641 0.02484072 -4.2401254E-05
v -0.07513641 0.023605391 -4.2401254E-05
v -0.07513641 0.023605391 0.012310922
v -0.07513641 0.02484072 0.0061342567
v -0.07513641 0.025017202 0.012310922
v -0.07513641 0.025899582 0.012310922
v -0.07513641 0.025899582 0.0061342567
v -0.0075460672 0.025899582 -0.01221925
v -0.009310827 0.023605391 -0.01221925
v -0.0075460672 0.023605391 -0.01221925
v -0.009310827 0.025017202 -0.01221925
v -0.009310827 0.025899582 -0.01221925
v -0.07513641 0.025017202 -0.01221925
v -0.07513641 0.025899582 -0.01221925
v -0.005781308 0.025899582 -0.01451344
v -0.0075460672 0.025899582 -0.01221925
v -0.0075460672 0.023605391 -0.01221925
v -0.005781308 0.023605391 -0.01451344
v -0.0737246 0.025899582 -0.006042592
v -0.0737246 0.02484072 -4.2401254E-05
v -0.0737246 0.02484072 -0.006042592
v -0.0737246 0.025899582 -4.2401254E-05
v -0.0737246 0.025899582 0.0061342567
v -0.0737246 0.02484072 0.0061342567
v -0.0737246 0.02484072 -0.006042592
v -0.07513641 0.02484072 -4.2401254E-05
v -0.07513641 0.02484072 -0.006042592
v -0.0737246 0.02484072 -4.2401254E-05
v -0.0737246 0.02484072 0.0061342567
v -0.07513641 0.02484072 0.0061342567
v -0.0737246 0.025899582 -0.006042592
v -0.0737246 0.02484072 -0.006042592
v -0.07513641 0.02484072 -0.006042592
v -0.07513641 0.025899582 -0.006042592
v -0.0737246 0.025017202 -0.01310163
v -0.0737246 0.023605391 -0.01310163
v -0.009310827 0.023605391 -0.01310163
v -0.009310827 0.025017202 -0.01310163
v -0.07513641 0.023605391 -0.01221925
v -0.0737246 0.023605391 -0.01310163
v -0.0737246 0.025017202 -0.01310163
v -0.07513641 0.025017202 -0.01221925
v -0.009310827 0.023605391 -0.01221925
v -0.009310827 0.025017202 -0.01221925
v -0.009310827 0.025017202 -0.01310163
v -0.009310827 0.023605391 -0.01310163
v -0.009310827 0.025017202 -0.01221925
v -0.07513641 0.025017202 -0.01221925
v -0.0737246 0.025017202 -0.01310163
v -0.009310827 0.025017202 -0.01310163
v -0.005781308 0.025899582 0.014428638
v -0.005781308 0.025899582 0.021134727
v -0.005781308 0.023605391 0.021134727
v -0.005781308 0.023605391 0.014605112
v 0.0007483065 0.031899765 0.021134727
v 0.006042592 0.06737146 0.016016923
v 0.006042592 0.06737146 0.021134727
v 0.0007483065 0.031899765 0.014781587
v -0.000663504 0.030135006 0.014605112
v -0.000663504 0.030135006 0.021134727
v -0.005781308 0.025899582 0.021134727
v -0.005781308 0.025899582 0.014428638
v -0.000663504 0.030135006 0.021134727
v 0.0007483065 0.031899765 0.021134727
v 0.00092478096 0.023605391 0.021134727
v -0.005781308 0.025899582 0.021134727
v -0.005781308 0.023605391 0.021134727
v 0.006042592 0.09243105 0.0066636875
v 0.008513257 0.096313536 -4.2401254E-05
v 0.006042592 0.096313536 -4.2401254E-05
v 0.008513257 0.09243105 0.0066636875
v 0.006042592 0.085372016 0.011252068
v 0.008513257 0.085372016 0.011252068
v 0.006042592 0.07513641 0.014428638
v 0.008513257 0.07513641 0.014428638
v 0.006042592 0.06737146 0.016016923
v 0.008513257 0.06737146 0.016016923
v 0.011866301 0.025899582 0.014605112
v 0.0007483065 0.031899765 0.014781587
v -0.000663504 0.030135006 0.014605112
v -0.005781308 0.025899582 0.014428638
v -0.0075460672 0.025899582 0.012134448
v -0.0075460672 0.023605391 0.012134448
v -0.009310827 0.023605391 0.012134448
v -0.009310827 0.025017202 0.012134448
v -0.009310827 0.025899582 0.012134448
v -0.07513641 0.025017202 0.012310922
v -0.07513641 0.025899582 0.012310922
v -0.005781308 0.025899582 0.014428638
v -0.005781308 0.023605391 0.014605112
v -0.0075460672 0.023605391 0.012134448
v -0.0075460672 0.025899582 0.012134448
v -0.0737246 0.025899582 0.0061342567
v -0.07513641 0.025899582 0.0061342567
v -0.07513641 0.02484072 0.0061342567
v -0.0737246 0.02484072 0.0061342567
v -0.0737246 0.025017202 0.013193302
v -0.009310827 0.025017202 0.013193302
v -0.009310827 0.023605391 0.013193302
v -0.0737246 0.023605391 0.013193302
v -0.07513641 0.023605391 0.012310922
v -0.07513641 0.025017202 0.012310922
v -0.0737246 0.025017202 0.013193302
v -0.0737246 0.023605391 0.013193302
v -0.009310827 0.023605391 0.012134448
v -0.009310827 0.023605391 0.013193302
v -0.009310827 0.025017202 0.013193302
v -0.009310827 0.025017202 0.012134448
v -0.009310827 0.025017202 0.012134448
v -0.009310827 0.025017202 0.013193302
v -0.0737246 0.025017202 0.013193302
v -0.07513641 0.025017202 0.012310922
v -0.005781308 0.025017202 -0.022101913
v -0.005781308 0.025017202 -0.018748865
v -0.009310827 0.025017202 -0.01539582
v -0.013899207 0.025017202 -0.02086658
v -0.026781961 0.025017202 -0.0150428675
v -0.026781961 0.025017202 -0.01310163
v -0.009310827 0.025017202 -0.01310163
v -0.005781308 0.025017202 -0.022101913
v -0.013899207 0.025017202 -0.02086658
v -0.013899207 0.022899486 -0.02086658
v -0.005781308 0.022899486 -0.022101913
v -0.026781961 0.022899486 -0.01310163
v -0.026781961 0.022899486 -0.0150428675
v -0.026781961 0.025017202 -0.0150428675
v -0.026781961 0.025017202 -0.01310163
v -0.013899207 0.025017202 -0.02086658
v -0.026781961 0.025017202 -0.0150428675
v -0.026781961 0.022899486 -0.0150428675
v -0.013899207 0.022899486 -0.02086658
v -0.005781308 0.025017202 -0.018748865
v -0.005781308 0.025017202 -0.022101913
v -0.005781308 0.022899486 -0.022101913
v -0.005781308 0.022899486 -0.018748865
v -0.009310827 0.025017202 -0.01539582
v -0.005781308 0.025017202 -0.018748865
v -0.005781308 0.022899486 -0.018748865
v -0.009310827 0.022899486 -0.01539582
v -0.009310827 0.025017202 -0.01310163
v -0.009310827 0.025017202 -0.01539582
v -0.009310827 0.022899486 -0.01539582
v -0.009310827 0.022899486 -0.01310163
v -0.005781308 0.025017202 0.022017106
v -0.009310827 0.025017202 0.015487492
v -0.005781308 0.025017202 0.018840536
v -0.013899207 0.025017202 0.020958252
v -0.026781961 0.025017202 0.015134536
v -0.026781961 0.025017202 0.013193302
v -0.009310827 0.025017202 0.013193302
v -0.005781308 0.025017202 0.022017106
v -0.005781308 0.022899486 0.022017106
v -0.013899207 0.022899486 0.020958252
v -0.013899207 0.025017202 0.020958252
v -0.026781961 0.022899486 0.013193302
v -0.026781961 0.025017202 0.013193302
v -0.026781961 0.025017202 0.015134536
v -0.026781961 0.022899486 0.015134536
v -0.013899207 0.025017202 0.020958252
v -0.013899207 0.022899486 0.020958252
v -0.026781961 0.022899486 0.015134536
v -0.026781961 0.025017202 0.015134536
v -0.005781308 0.025017202 0.018840536
v -0.005781308 0.022899486 0.018840536
v -0.005781308 0.022899486 0.022017106
v -0.005781308 0.025017202 0.022017106
v -0.009310827 0.025017202 0.015487492
v -0.009310827 0.022899486 0.015487492
v -0.005781308 0.022899486 0.018840536
v -0.005781308 0.025017202 0.018840536
v -0.009310827 0.025017202 0.013193302
v -0.009310827 0.022899486 0.013193302
v -0.009310827 0.022899486 0.015487492
v -0.009310827 0.025017202 0.015487492
v 0.007630877 0.025899582 0.013193302
v 0.011866301 0.025899582 0.013193302
v 0.011866301 0.033664525 0.012487397
v 0.007630877 0.033664525 0.012487397
v 0.011866301 0.04160595 0.010369688
v 0.007630877 0.04160595 0.010369688
v 0.011866301 0.04884147 0.0066636875
v 0.007630877 0.04884147 0.0066636875
v 0.011866301 0.053253368 0.0024282634
v 0.007630877 0.053253368 0.0024282634
v 0.008689731 0.056253463 0.015663967
v 0.007630877 0.04337071 0.015311018
v 0.007630877 0.051665083 0.013546258
v 0.007630877 0.059959456 0.009310827
v 0.008689731 0.064900786 0.013016827
v 0.008689731 0.0707245 0.010016732
v 0.008689731 0.07513641 0.0050754026
v 0.007630877 0.06437136 0.003840074
v 0.008689731 0.0707245 0.010016732
v 0.008689731 0.07513641 0.0050754026
v 0.007630877 0.07637173 0.005251877
v 0.007630877 0.071606874 0.010899112
v 0.008689731 0.064900786 0.013016827
v 0.007630877 0.064900786 0.014075682
v 0.007630877 0.058194697 0.015663967
v 0.008689731 0.056253463 0.015663967
v 0.007630877 0.04337071 0.015311018
v 0.008689731 0.040370613 0.015134536
v 0.008689731 0.051665083 0.012487397
v 0.007630877 0.051665083 0.013546258
v 0.007630877 0.059959456 0.009310827
v 0.008689731 0.05925356 0.008604921
v 0.007630877 0.06437136 0.003840074
v 0.008689731 0.063488975 0.003663592
v 0.007630877 0.071606874 0.010899112
v 0.007630877 0.07637173 0.005251877
v 0.007630877 0.09243105 0.0066636875
v 0.007630877 0.085372016 0.011252068
v 0.007630877 0.07513641 0.014428638
v 0.007630877 0.064900786 0.014075682
v 0.007630877 0.06737146 0.016016923
v 0.007630877 0.058194697 0.015663967
v 0.007630877 0.04884147 0.0066636875
v 0.007630877 0.053253368 0.0024282634
v 0.008689731 0.063488975 0.003663592
v 0.008689731 0.05925356 0.008604921
v 0.008689731 0.051665083 0.012487397
v 0.007630877 0.04160595 0.010369688
v 0.008689731 0.040370613 0.015134536
v 0.007630877 0.033664525 0.012487397
v 0.007630877 0.025899582 0.013193302
v 0.007630877 0.025899582 0.014605112
v 0.007630877 0.053253368 0.0024282634
v 0.011866301 0.053253368 0.0024282634
v 0.011866301 0.06401841 0.003840074
v 0.008689731 0.063488975 0.003663592
v 0.007630877 0.06437136 0.003840074
v 0.011866301 0.075842306 0.005251877
v 0.008689731 0.07513641 0.0050754026
v 0.007630877 0.07637173 0.005251877
v 0.011866301 0.09243105 0.0066636875
v 0.007630877 0.09243105 0.0066636875
v 0.007630877 0.09243105 0.0066636875
v 0.010278016 0.09260753 0.0075460672
v 0.010278016 0.07531288 0.0059577823
v 0.007630877 0.07513641 0.0050754026
v 0.010278016 0.053429842 0.0033106431
v 0.007630877 0.053253368 0.0024282634
v 0.006395541 0.09437229 0.0033106431
v 0.0062190667 0.07513641 0.0026047379
v 0.006042592 0.07513641 -4.2401254E-05
v 0.0074543953 0.053253368 0.0011929274
v 0.006042592 0.096313536 -4.2401254E-05
v 0.007630877 0.053253368 -4.2401254E-05
v 0.0074543953 0.053253368 -0.0012777373
v 0.006395541 0.09437229 -0.0033954456
v 0.0062190667 0.07513641 -0.002513066
v 0.007630877 0.053253368 -0.002513066
v 0.007630877 0.07513641 -0.005160205
v 0.010278016 0.053429842 -0.0033954456
v 0.007630877 0.09243105 -0.00674849
v 0.010278016 0.07531288 -0.006042592
v 0.010278016 0.09260753 -0.0074543953
v -0.00083997846 0.023605391 0.017428726
v -0.00083997846 0.023605391 0.021134727
v -0.00083997846 -4.2401254E-05 0.021134727
v -0.00083997846 -4.2401254E-05 0.017428726
v 0.00092478096 0.023605391 0.016546346
v 0.00092478096 -4.2401254E-05 0.016546346
v 0.00092478096 0.023605391 0.003840074
v 0.00092478096 -4.2401254E-05 0.003840074
v 4.2401254E-05 0.023605391 0.0031341687
v 4.2401254E-05 -4.2401254E-05 0.0031341687
v 4.2401254E-05 0.023605391 -4.2401254E-05
v 4.2401254E-05 -4.2401254E-05 -4.2401254E-05
v 4.2401254E-05 0.023605391 -0.0032189712
v 4.2401254E-05 -4.2401254E-05 -0.0032189712
v 0.00092478096 0.023605391 -0.0039248765
v 0.00092478096 -4.2401254E-05 -0.0039248765
v 0.00092478096 0.023605391 -0.016454678
v 0.00092478096 -4.2401254E-05 -0.016454678
v -0.00083997846 0.023605391 -0.017337058
v -0.00083997846 -4.2401254E-05 -0.017337058
v -0.00083997846 -4.2401254E-05 -0.02121953
v -0.00083997846 0.023605391 -0.02121953
v 0.011866301 0.025899582 0.013193302
v 0.011866301 0.025899582 -4.2401254E-05
v 0.011866301 0.033664525 0.012487397
v 0.011866301 0.04160595 0.010369688
v 0.011866301 0.04884147 0.0066636875
v 0.011866301 0.053253368 0.0024282634
v 0.011866301 0.053253368 -4.2401254E-05
v 0.011866301 0.053253368 -0.002513066
v 0.011866301 0.04884147 -0.00674849
v 0.011866301 0.04160595 -0.010454491
v 0.011866301 0.033664525 -0.012572207
v 0.011866301 0.025899582 -0.01310163
v 0.007630877 0.025899582 -0.01310163
v 0.011866301 0.033664525 -0.012572207
v 0.011866301 0.025899582 -0.01310163
v 0.007630877 0.033664525 -0.012572207
v 0.011866301 0.04160595 -0.010454491
v 0.007630877 0.04160595 -0.010454491
v 0.011866301 0.04884147 -0.00674849
v 0.007630877 0.04884147 -0.00674849
v 0.011866301 0.053253368 -0.002513066
v 0.007630877 0.053253368 -0.002513066
v 0.008689731 0.056253463 -0.015572298
v 0.007630877 0.051665083 -0.013454583
v 0.007630877 0.04337071 -0.015219346
v 0.007630877 0.059959456 -0.009395637
v 0.008689731 0.064900786 -0.01310163
v 0.008689731 0.0707245 -0.00992506
v 0.008689731 0.07513641 -0.005160205
v 0.007630877 0.06437136 -0.0039248765
v 0.008689731 0.0707245 -0.00992506
v 0.007630877 0.07637173 -0.005336687
v 0.008689731 0.07513641 -0.005160205
v 0.007630877 0.071606874 -0.01080744
v 0.008689731 0.064900786 -0.01310163
v 0.007630877 0.064900786 -0.014160488
v 0.007630877 0.058194697 -0.015748773
v 0.008689731 0.056253463 -0.015572298
v 0.007630877 0.04337071 -0.015219346
v 0.008689731 0.051665083 -0.012395725
v 0.008689731 0.040370613 -0.0150428675
v 0.007630877 0.051665083 -0.013454583
v 0.007630877 0.059959456 -0.009395637
v 0.008689731 0.05925356 -0.008513257
v 0.007630877 0.06437136 -0.0039248765
v 0.008689731 0.063488975 -0.003748402
v 0.007630877 0.071606874 -0.01080744
v 0.007630877 0.09243105 -0.00674849
v 0.007630877 0.07637173 -0.005336687
v 0.007630877 0.085372016 -0.0113368705
v 0.007630877 0.07513641 -0.01451344
v 0.007630877 0.064900786 -0.014160488
v 0.007630877 0.06737146 -0.015925247
v 0.007630877 0.058194697 -0.015748773
v 0.007630877 0.04884147 -0.00674849
v 0.008689731 0.063488975 -0.003748402
v 0.007630877 0.053253368 -0.002513066
v 0.008689731 0.05925356 -0.008513257
v 0.008689731 0.051665083 -0.012395725
v 0.007630877 0.04160595 -0.010454491
v 0.008689731 0.040370613 -0.0150428675
v 0.007630877 0.033664525 -0.012572207
v 0.007630877 0.025899582 -0.01310163
v 0.007630877 0.025899582 -0.014689915
v 0.007630877 0.053253368 -0.002513066
v 0.011866301 0.06401841 -0.003748402
v 0.011866301 0.053253368 -0.002513066
v 0.008689731 0.063488975 -0.003748402
v 0.007630877 0.06437136 -0.0039248765
v 0.011866301 0.075842306 -0.005160205
v 0.008689731 0.07513641 -0.005160205
v 0.007630877 0.07637173 -0.005336687
v 0.011866301 0.09243105 -0.00674849
v 0.007630877 0.09243105 -0.00674849
v -0.0004870221 0.061724216 0.025546625
v 0.00057183206 0.0574888 0.024487771
v -0.0004870221 0.060312405 0.023781866
v -0.0004870221 0.054841653 0.023428917
v -0.0004870221 0.042841285 0.02713491
v 0.00057183206 0.0574888 0.024487771
v -0.0004870221 0.061724216 0.025546625
v 0.0018071607 0.056606412 0.025546625
v -0.0004870221 0.042841285 0.02713491
v -0.00083997846 -0.00904268 0.021134727
v 0.012042776 -0.00904268 0.021134727
v -0.002251789 0.011075586 0.021134727
v 0.012042776 0.025899582 0.021134727
v -0.0050754026 0.019193485 0.021134727
v -0.0004870221 0.025899582 0.021134727
v -0.0004870221 0.034193955 0.021134727
v 0.0007483065 0.039664716 0.021134727
v -0.0004870221 0.04248833 0.021134727
v 0.0003953576 0.054841653 0.021134727
v 0.012042776 0.06737146 0.021134727
v -0.0004870221 0.06737146 0.021134727
v 0.012042776 0.07672469 0.018664062
v -0.0004870221 0.07566583 0.01901701
v 0.0012777373 0.07866593 0.017781682
v -0.0010164529 0.085724965 0.014781587
v 0.012042776 0.08678383 0.014252156
v -0.0004870221 0.08678383 0.014252156
v 0.012042776 0.0950782 0.008604921
v -0.0004870221 0.0950782 0.008604921
v 0.0007483065 0.0957841 0.007369593
v -0.0004870221 0.099843055 -4.2401254E-05
v 0.012042776 0.099843055 -4.2401254E-05
v -0.0004870221 0.0950782 -0.008689731
v 0.012042776 0.0950782 -0.008689731
v -0.0004870221 0.08872506 -0.012925155
v 0.012042776 0.08678383 -0.014336966
v -0.0010164529 0.08678383 -0.014336966
v -0.0004870221 0.07672469 -0.01857239
v 0.012042776 0.07672469 -0.01857239
v -0.0010164529 0.0737246 -0.01945477
v -0.0004870221 0.06737146 -0.02121953
v 0.012042776 0.06737146 -0.02121953
v 0.00057183206 0.064900786 -0.02121953
v -0.0004870221 0.0626066 -0.02121953
v 0.012042776 0.025899582 -0.02121953
v 0.00057183206 0.04019414 -0.02121953
v -0.0004870221 0.034193955 -0.02121953
v -0.0004870221 0.025899582 -0.02121953
v -0.0050754026 0.019193485 -0.02121953
v -0.0027812123 0.008075498 -0.02121953
v 0.012042776 -0.00904268 -0.02121953
v -0.00083997846 -0.00904268 -0.02121953
v -0.002251789 0.010193206 0.026429005
v -0.00083997846 -0.00904268 0.026429005
v -0.00083997846 -0.00904268 0.021134727
v -0.002251789 0.011075586 0.021134727
v -0.0050754026 0.019193485 0.026429005
v -0.0050754026 0.019193485 0.021134727
v -0.0004870221 0.025899582 0.025546625
v -0.0004870221 0.025899582 0.021134727
v -0.0004870221 0.034546904 0.02713491
v -0.0004870221 0.034193955 0.021134727
v 0.0007483065 0.039664716 0.02713491
v 0.0007483065 0.039664716 0.021134727
v -0.0004870221 0.042841285 0.02713491
v -0.0004870221 0.04248833 0.021134727
v -0.0004870221 0.054841653 0.023428917
v 0.0003953576 0.054841653 0.021134727
v -0.0004870221 0.060312405 0.023781866
v -0.0004870221 0.06737146 0.021134727
v -0.0004870221 0.061724216 0.025546625
v 0.0007483065 0.065430224 0.024487771
v -0.0004870221 0.06895974 0.025546625
v -0.0004870221 0.07566583 0.01901701
v -0.0004870221 0.07831298 0.022899486
v 0.0012777373 0.07866593 0.017781682
v 0.0012777373 0.081136584 0.02166415
v -0.0010164529 0.08872506 0.017958157
v -0.0010164529 0.085724965 0.014781587
v -0.0004870221 0.090313345 0.017252252
v -0.0004870221 0.08678383 0.014252156
v -0.0004870221 0.0950782 0.008604921
v -0.00031054765 0.09931362 0.012134448
v 0.00057183206 0.10054895 0.008604921
v 0.0007483065 0.0957841 0.007369593
v -0.0004870221 0.10496086 -4.2401254E-05
v -0.0004870221 0.099843055 -4.2401254E-05
v -0.0004870221 0.099490106 -0.010454491
v -0.0004870221 0.0950782 -0.008689731
v -0.0004870221 0.092784 -0.016984105
v -0.0004870221 0.08872506 -0.012925155
v -0.0010164529 0.08943096 -0.01680763
v -0.0010164529 0.08678383 -0.014336966
v -0.0004870221 0.079371825 -0.022454862
v -0.0004870221 0.07672469 -0.01857239
v -0.0011929274 0.075842306 -0.024749052
v -0.0010164529 0.0737246 -0.01945477
v -0.0004870221 0.06895974 -0.025454957
v -0.0004870221 0.06737146 -0.02121953
v 0.00057183206 0.065430224 -0.0243961
v 0.00057183206 0.064900786 -0.02121953
v -0.0004870221 0.0626066 -0.02121953
v -0.0004870221 0.0574888 -0.025454957
v 0.00057183206 0.04019414 -0.02121953
v 0.00057183206 0.040017664 -0.02669029
v -0.0004870221 0.034546904 -0.027749144
v -0.0004870221 0.034193955 -0.02121953
v -0.0004870221 0.025899582 -0.02121953
v -0.0004870221 0.025899582 -0.025454957
v -0.0050754026 0.019193485 -0.02121953
v -0.0050754026 0.019193485 -0.025454957
v -0.0027812123 0.008075498 -0.02121953
v -0.0026047379 0.007369593 -0.025454957
v -0.00083997846 -0.00904268 -0.025454957
v -0.00083997846 -0.00904268 -0.02121953
v -0.00083997846 -0.00904268 0.026429005
v 0.07557416 0.024664246 0.02713491
v 0.07557416 -0.00904268 0.025546625
v -0.002251789 0.010193206 0.026429005
v -0.0050754026 0.019193485 0.026429005
v -0.0004870221 0.025899582 0.025546625
v -0.0004870221 0.034546904 0.02713491
v 0.0007483065 0.039664716 0.02713491
v -0.0004870221 0.042841285 0.02713491
v 0.0018071607 0.056606412 0.025546625
v 0.07557416 0.06895974 0.025546625
v -0.0004870221 0.061724216 0.025546625
v 0.0007483065 0.065430224 0.024487771
v -0.0004870221 0.06895974 0.025546625
v 0.07557416 0.079371825 0.022546537
v -0.0004870221 0.07831298 0.022899486
v 0.0012777373 0.081136584 0.02166415
v 0.07557416 0.090313345 0.017252252
v -0.0010164529 0.08872506 0.017958157
v -0.0004870221 0.090313345 0.017252252
v -0.00031054765 0.09931362 0.012134448
v 0.07557416 0.099490106 0.010546163
v 0.00057183206 0.10054895 0.008604921
v 0.07557416 0.10496086 -4.2401254E-05
v -0.0004870221 0.10496086 -4.2401254E-05
v -0.0004870221 0.099490106 -0.010454491
v 0.07557416 0.099490106 -0.010454491
v 0.07557416 0.090313345 -0.01716058
v -0.0004870221 0.092784 -0.016984105
v -0.0010164529 0.08943096 -0.01680763
v 0.07557416 0.079371825 -0.022454862
v -0.0004870221 0.079371825 -0.022454862
v -0.0011929274 0.075842306 -0.024749052
v -0.0004870221 0.06895974 -0.025454957
v 0.07557416 0.06895974 -0.025454957
v 0.00057183206 0.065430224 -0.0243961
v -0.0004870221 0.0574888 -0.025454957
v 0.07557416 0.024664246 -0.025454957
v 0.00057183206 0.040017664 -0.02669029
v -0.0004870221 0.034546904 -0.027749144
v -0.0004870221 0.025899582 -0.025454957
v -0.0050754026 0.019193485 -0.025454957
v 0.07557416 -0.00904268 -0.025454957
v -0.0026047379 0.007369593 -0.025454957
v -0.00083997846 -0.00904268 -0.025454957
vt 0.24237719 0.2810865
vt 0.24237719 0.29657024
vt 0.19592601 0.29657024
vt 0.19592601 0.2810865
vt 0.67205065 0.056572467
vt 0.67205065 0.02173408
vt 0.69527626 0.017863149
vt 0.69527626 0.060443398
vt 0.67205065 0.11463644
vt 0.69527626 0.11463644
vt 0.67205065 0.16882949
vt 0.69527626 0.17270042
vt 0.67205065 0.22302254
vt 0.69527626 0.2307644
vt 0.69527626 0.17270042
vt 0.67205065 0.16882949
vt 0.69527626 0.11463644
vt 0.67205065 0.11463644
vt 0.69527626 0.060443398
vt 0.67205065 0.056572467
vt 0.69527626 0.017863149
vt 0.67205065 0.02173408
vt 0.2926993 0.31979585
vt 0.7843077 0.31979585
vt 0.7843077 0.39334354
vt 0.2926993 0.40495634
vt 0.25399 0.40495634
vt 0.25786093 0.3159249
vt 0.16495857 0.3159249
vt 0.16495857 0.40882728
vt 0.23850627 0.1339911
vt 0.2307644 0.10302365
vt 0.2307644 0.14173298
vt 0.26173186 0.11463644
vt 0.26173186 0.10302365
vt 0.1456039 0.31205398
vt 0.12624924 0.34302142
vt 0.11850738 0.33527955
vt 0.13786204 0.3043121
vt 0.16495857 0.2810865
vt 0.1572167 0.27334467
vt 0.18818416 0.23850627
vt 0.18044229 0.2307644
vt 0.20366788 0.20366788
vt 0.19205509 0.19979694
vt 0.18044229 0.017863149
vt 0.22689347 0.04495967
vt 0.23463534 0.033346877
vt 0.25786093 0.017863149
vt 0.8501135 0.2307644
vt 0.823017 0.21140975
vt 0.823017 0.013992216
vt 0.9894671 0.013992216
vt 0.8501135 0.25399
vt 0.9894671 0.97011244
vt 0.9197903 0.97011244
vt 0.8501135 0.9855962
vt 0.9197903 0.9855962
vt 0.8501135 0.25399
vt 0.9197903 0.97011244
vt 0.8501135 0.9855962
vt 0.9197903 0.9855962
vt 0.8501135 0.2307644
vt 0.823017 0.013992216
vt 0.823017 0.21140975
vt 0.41656914 0.18431322
vt 0.3739889 0.17657135
vt 0.41656914 0.17657135
vt 0.38560167 0.18431322
vt 0.3894726 0.18431322
vt 0.4591494 0.18431322
vt 0.4591494 0.19205509
vt 0.3894726 0.18431322
vt 0.41656914 0.18431322
vt 0.38560167 0.18431322
vt 0.3739889 0.17657135
vt 0.41656914 0.17657135
vt 0.26173186 0.2810865
vt 0.27334467 0.29657024
vt 0.26173186 0.29657024
vt 0.27334467 0.28495744
vt 0.27334467 0.2810865
vt 0.70688903 0.28495744
vt 0.70688903 0.2810865
vt 0.24237719 0.2810865
vt 0.26173186 0.2810865
vt 0.26173186 0.29657024
vt 0.24237719 0.29657024
vt 0.92366123 0.041088738
vt 0.88495195 0.033346877
vt 0.92366123 0.033346877
vt 0.88495195 0.041088738
vt 0.92366123 0.041088738
vt 0.92366123 0.033346877
vt 0.94688684 0.4010854
vt 0.9584996 0.35463423
vt 0.9584996 0.4010854
vt 0.94688684 0.35463423
vt 0.94688684 0.4010854
vt 0.9584996 0.4010854
vt 0.8578554 0.1456039
vt 0.8578554 0.1339911
vt 0.8733391 0.13012017
vt 0.8733391 0.14173298
vt 0.61785764 0.2810865
vt 0.61785764 0.28495744
vt 0.38560167 0.28495744
vt 0.38560167 0.2810865
vt 0.5520518 0.2926993
vt 0.5443099 0.2926993
vt 0.5443099 0.28495744
vt 0.5520518 0.28495744
vt 0.02173408 0.08366899
vt 0.037217807 0.08366899
vt 0.037217807 0.09141085
vt 0.02173408 0.09528179
vt 0.8578554 0.2772156
vt 0.8578554 0.6875344
vt 0.8501135 0.6797925
vt 0.8501135 0.2772156
vt 0.24237719 0.2810865
vt 0.19592601 0.2810865
vt 0.19592601 0.29657024
vt 0.24237719 0.29657024
vt 0.2926993 0.31979585
vt 0.7843077 0.39334354
vt 0.7843077 0.31979585
vt 0.2926993 0.40495634
vt 0.25399 0.40495634
vt 0.25786093 0.3159249
vt 0.16495857 0.3159249
vt 0.16495857 0.40882728
vt 0.23850627 0.1339911
vt 0.2307644 0.14173298
vt 0.2307644 0.10302365
vt 0.26173186 0.11463644
vt 0.26173186 0.10302365
vt 0.1456039 0.31205398
vt 0.11850738 0.33527955
vt 0.12624924 0.34302142
vt 0.13786204 0.3043121
vt 0.16495857 0.2810865
vt 0.1572167 0.27334467
vt 0.18818416 0.23850627
vt 0.18044229 0.2307644
vt 0.20366788 0.20366788
vt 0.19205509 0.19979694
vt 0.18044229 0.017863149
vt 0.22689347 0.04495967
vt 0.23463534 0.033346877
vt 0.25786093 0.017863149
vt 0.26173186 0.2810865
vt 0.26173186 0.29657024
vt 0.27334467 0.29657024
vt 0.27334467 0.28495744
vt 0.27334467 0.2810865
vt 0.70688903 0.28495744
vt 0.70688903 0.2810865
vt 0.24237719 0.2810865
vt 0.24237719 0.29657024
vt 0.26173186 0.29657024
vt 0.26173186 0.2810865
vt 0.8578554 0.1456039
vt 0.8733391 0.14173298
vt 0.8733391 0.13012017
vt 0.8578554 0.1339911
vt 0.61785764 0.2810865
vt 0.38560167 0.2810865
vt 0.38560167 0.28495744
vt 0.61785764 0.28495744
vt 0.5520518 0.2926993
vt 0.5520518 0.28495744
vt 0.5443099 0.28495744
vt 0.5443099 0.2926993
vt 0.02173408 0.08366899
vt 0.02173408 0.09528179
vt 0.037217807 0.09141085
vt 0.037217807 0.08366899
vt 0.8578554 0.2772156
vt 0.8501135 0.2772156
vt 0.8501135 0.6797925
vt 0.8578554 0.6875344
vt 0.51334244 0.010121284
vt 0.5520518 0.010121284
vt 0.5907611 0.052701537
vt 0.5249553 0.10689458
vt 0.594632 0.25786093
vt 0.6139867 0.25786093
vt 0.61785764 0.052701537
vt 0.11850738 0.44366565
vt 0.18044229 0.44366565
vt 0.18044229 0.4591494
vt 0.11850738 0.4591494
vt 0.29657024 0.4591494
vt 0.2810865 0.4591494
vt 0.2810865 0.44366565
vt 0.29657024 0.44366565
vt 0.45140752 0.45140752
vt 0.5481809 0.45140752
vt 0.5481809 0.47463313
vt 0.45140752 0.47463313
vt 0.09528179 0.44366565
vt 0.11850738 0.44366565
vt 0.11850738 0.4591494
vt 0.09528179 0.4591494
vt 0.060443398 0.44366565
vt 0.09528179 0.44366565
vt 0.09528179 0.4591494
vt 0.060443398 0.4591494
vt 0.04495967 0.44366565
vt 0.060443398 0.44366565
vt 0.060443398 0.4591494
vt 0.04495967 0.4591494
vt 0.51334244 0.010121284
vt 0.5907611 0.052701537
vt 0.5520518 0.010121284
vt 0.5249553 0.10689458
vt 0.594632 0.25786093
vt 0.6139867 0.25786093
vt 0.61785764 0.052701537
vt 0.11850738 0.44366565
vt 0.11850738 0.4591494
vt 0.18044229 0.4591494
vt 0.18044229 0.44366565
vt 0.29657024 0.4591494
vt 0.29657024 0.44366565
vt 0.2810865 0.44366565
vt 0.2810865 0.4591494
vt 0.45140752 0.45140752
vt 0.45140752 0.47463313
vt 0.5481809 0.47463313
vt 0.5481809 0.45140752
vt 0.09528179 0.44366565
vt 0.09528179 0.4591494
vt 0.11850738 0.4591494
vt 0.11850738 0.44366565
vt 0.060443398 0.44366565
vt 0.060443398 0.4591494
vt 0.09528179 0.4591494
vt 0.09528179 0.44366565
vt 0.04495967 0.44366565
vt 0.04495967 0.4591494
vt 0.060443398 0.4591494
vt 0.060443398 0.44366565
vt 0.36624703 0.42044008
vt 0.36624703 0.47850403
vt 0.47463313 0.47850403
vt 0.47463313 0.42044008
vt 0.58689016 0.47850403
vt 0.58689016 0.42044008
vt 0.6991472 0.47850403
vt 0.6991472 0.42044008
vt 0.7843077 0.47850403
vt 0.7843077 0.42044008
vt 0.8114042 0.6759216
vt 0.82688797 0.55979365
vt 0.7997914 0.6294704
vt 0.74946934 0.6991472
vt 0.77656585 0.74946934
vt 0.7417275 0.7959205
vt 0.69527626 0.83075887
vt 0.69527626 0.7339856
vt 0.7417275 0.7959205
vt 0.69527626 0.83075887
vt 0.6991472 0.8462426
vt 0.75334024 0.80753326
vt 0.77656585 0.74946934
vt 0.7920496 0.75334024
vt 0.81527513 0.69527626
vt 0.8114042 0.6759216
vt 0.82688797 0.55979365
vt 0.82688797 0.53269714
vt 0.7843077 0.6255995
vt 0.7997914 0.6294704
vt 0.74946934 0.6991472
vt 0.7417275 0.6875344
vt 0.69527626 0.7339856
vt 0.69140536 0.71850187
vt 0.75334024 0.80753326
vt 0.6991472 0.8462426
vt 0.69140536 0.9894671
vt 0.7417275 0.9314031
vt 0.78043675 0.8423717
vt 0.7920496 0.75334024
vt 0.80366236 0.77656585
vt 0.81527513 0.69527626
vt 0.7378565 0.594632
vt 0.69527626 0.6255995
vt 0.69140536 0.71850187
vt 0.7417275 0.6875344
vt 0.7843077 0.6255995
vt 0.78043675 0.53269714
vt 0.82688797 0.53269714
vt 0.8114042 0.46689126
vt 0.82688797 0.39721447
vt 0.8423717 0.4010854
vt 0.92366123 0.3623761
vt 0.9197903 0.3623761
vt 0.9197903 0.3739889
vt 0.92366123 0.3739889
vt 0.92366123 0.37785983
vt 0.9197903 0.3894726
vt 0.92366123 0.3894726
vt 0.92366123 0.3894726
vt 0.9197903 0.40882728
vt 0.92366123 0.40882728
vt 0.75334024 0.037217807
vt 0.7339856 0.037217807
vt 0.7417275 0.15334576
vt 0.7610821 0.15334576
vt 0.7610821 0.30044118
vt 0.78043675 0.30044118
vt 0.77656585 0.025605012
vt 0.78043675 0.15334576
vt 0.7997914 0.15334576
vt 0.7881786 0.30044118
vt 0.7997914 0.010121284
vt 0.7997914 0.30044118
vt 0.7881786 0.30044118
vt 0.77656585 0.025605012
vt 0.78043675 0.15334576
vt 0.78043675 0.30044118
vt 0.7610821 0.15334576
vt 0.7610821 0.30044118
vt 0.75334024 0.037217807
vt 0.7417275 0.15334576
vt 0.7339856 0.037217807
vt 0.27334467 0.17270042
vt 0.27334467 0.20753881
vt 0.4978587 0.20753881
vt 0.4978587 0.17270042
vt 0.27334467 0.16495857
vt 0.4978587 0.16495857
vt 0.27334467 0.04495967
vt 0.4978587 0.04495967
vt 0.27334467 0.037217807
vt 0.4978587 0.037217807
vt 0.27334467 0.006250352
vt 0.4978587 0.006250352
vt 0.27334467 0.037217807
vt 0.4978587 0.037217807
vt 0.27334467 0.04495967
vt 0.4978587 0.04495967
vt 0.27334467 0.16495857
vt 0.4978587 0.16495857
vt 0.27334467 0.17270042
vt 0.4978587 0.17270042
vt 0.4978587 0.20753881
vt 0.27334467 0.20753881
vt 0.16495857 0.010121284
vt 0.006250352 0.010121284
vt 0.1572167 0.09915272
vt 0.13012017 0.19205509
vt 0.08753992 0.2810865
vt 0.037217807 0.33140862
vt 0.006250352 0.33140862
vt 0.037217807 0.33140862
vt 0.08753992 0.2810865
vt 0.13012017 0.19205509
vt 0.1572167 0.09915272
vt 0.16495857 0.010121284
vt 0.36624703 0.42044008
vt 0.47463313 0.47850403
vt 0.36624703 0.47850403
vt 0.47463313 0.42044008
vt 0.58689016 0.47850403
vt 0.58689016 0.42044008
vt 0.6991472 0.47850403
vt 0.6991472 0.42044008
vt 0.7843077 0.47850403
vt 0.7843077 0.42044008
vt 0.8114042 0.6759216
vt 0.7997914 0.6294704
vt 0.82688797 0.55979365
vt 0.74946934 0.6991472
vt 0.77656585 0.74946934
vt 0.7417275 0.7959205
vt 0.69527626 0.83075887
vt 0.69527626 0.7339856
vt 0.7417275 0.7959205
vt 0.6991472 0.8462426
vt 0.69527626 0.83075887
vt 0.75334024 0.80753326
vt 0.77656585 0.74946934
vt 0.7920496 0.75334024
vt 0.81527513 0.69527626
vt 0.8114042 0.6759216
vt 0.82688797 0.55979365
vt 0.7843077 0.6255995
vt 0.82688797 0.53269714
vt 0.7997914 0.6294704
vt 0.74946934 0.6991472
vt 0.7417275 0.6875344
vt 0.69527626 0.7339856
vt 0.69140536 0.71850187
vt 0.75334024 0.80753326
vt 0.69140536 0.9894671
vt 0.6991472 0.8462426
vt 0.7417275 0.9314031
vt 0.78043675 0.8423717
vt 0.7920496 0.75334024
vt 0.80366236 0.77656585
vt 0.81527513 0.69527626
vt 0.7378565 0.594632
vt 0.69140536 0.71850187
vt 0.69527626 0.6255995
vt 0.7417275 0.6875344
vt 0.7843077 0.6255995
vt 0.78043675 0.53269714
vt 0.82688797 0.53269714
vt 0.8114042 0.46689126
vt 0.82688797 0.39721447
vt 0.8423717 0.4010854
vt 0.92366123 0.3623761
vt 0.9197903 0.3739889
vt 0.9197903 0.3623761
vt 0.92366123 0.3739889
vt 0.92366123 0.37785983
vt 0.9197903 0.3894726
vt 0.92366123 0.3894726
vt 0.92366123 0.3894726
vt 0.9197903 0.40882728
vt 0.92366123 0.40882728
vt 0.3159249 0.5443099
vt 0.3391505 0.540439
vt 0.31979585 0.53269714
vt 0.35463423 0.5249553
vt 0.424311 0.53269714
vt 0.3159249 0.58301926
vt 0.2926993 0.58301926
vt 0.31979585 0.598503
vt 0.39334354 0.58301926
vt 0.64108324 0.9894671
vt 0.66817975 0.9894671
vt 0.64108324 0.95075774
vt 0.66817975 0.9314031
vt 0.64108324 0.94301593
vt 0.6488251 0.9314031
vt 0.6488251 0.91591936
vt 0.6488251 0.9043066
vt 0.6488251 0.9004356
vt 0.6488251 0.881081
vt 0.66817975 0.8578554
vt 0.6488251 0.8578554
vt 0.66817975 0.8423717
vt 0.6488251 0.8423717
vt 0.6488251 0.83850074
vt 0.6488251 0.82688797
vt 0.66817975 0.823017
vt 0.6488251 0.823017
vt 0.66817975 0.80753326
vt 0.6488251 0.80753326
vt 0.6488251 0.80366236
vt 0.6488251 0.7920496
vt 0.66817975 0.7920496
vt 0.6488251 0.80753326
vt 0.66817975 0.80753326
vt 0.6488251 0.8191461
vt 0.66817975 0.823017
vt 0.6488251 0.823017
vt 0.6488251 0.8423717
vt 0.66817975 0.8423717
vt 0.6488251 0.8462426
vt 0.6488251 0.8578554
vt 0.66817975 0.8578554
vt 0.6488251 0.86172634
vt 0.6488251 0.86559725
vt 0.66817975 0.9314031
vt 0.6488251 0.9043066
vt 0.6488251 0.91591936
vt 0.6488251 0.9314031
vt 0.64108324 0.94301593
vt 0.64108324 0.9584996
vt 0.66817975 0.9894671
vt 0.64108324 0.9894671
vt 0.61785764 0.5249553
vt 0.7417275 0.5249553
vt 0.7417275 0.4978587
vt 0.61011577 0.50172967
vt 0.5752774 0.5249553
vt 0.5752774 0.50172967
vt 0.5249553 0.5249553
vt 0.5249553 0.50172967
vt 0.47463313 0.5249553
vt 0.47463313 0.50172967
vt 0.43979472 0.5288262
vt 0.43592378 0.5056006
vt 0.424311 0.53269714
vt 0.424311 0.5056006
vt 0.35463423 0.5249553
vt 0.3507633 0.51334244
vt 0.31979585 0.53269714
vt 0.27334467 0.5210843
vt 0.3159249 0.5443099
vt 0.2926993 0.5443099
vt 0.27334467 0.5481809
vt 0.21528068 0.5249553
vt 0.21140975 0.5520518
vt 0.20366788 0.5249553
vt 0.19979694 0.5520518
vt 0.14947483 0.5481809
vt 0.1572167 0.5249553
vt 0.13786204 0.5481809
vt 0.14947483 0.5249553
vt 0.09141085 0.51334244
vt 0.0720562 0.53656805
vt 0.064314336 0.53269714
vt 0.08366899 0.50947154
vt 0.013992216 0.4978587
vt 0.041088738 0.48237497
vt 0.0720562 0.53656805
vt 0.09141085 0.51334244
vt 0.12624924 0.5481809
vt 0.13786204 0.5210843
vt 0.13786204 0.5481809
vt 0.14947483 0.5249553
vt 0.21140975 0.5520518
vt 0.21528068 0.5249553
vt 0.23463534 0.5481809
vt 0.23463534 0.5210843
vt 0.27334467 0.5481809
vt 0.27334467 0.5210843
vt 0.2926993 0.5443099
vt 0.28882837 0.5172134
vt 0.3043121 0.5172134
vt 0.3391505 0.540439
vt 0.43979472 0.5056006
vt 0.43979472 0.5288262
vt 0.47463313 0.5249553
vt 0.47463313 0.50172967
vt 0.5249553 0.50172967
vt 0.5249553 0.5249553
vt 0.5752774 0.50172967
vt 0.5752774 0.5249553
vt 0.6294704 0.50172967
vt 0.6372123 0.5249553
vt 0.7417275 0.5249553
vt 0.7417275 0.4978587
vt 0.6759216 0.55979365
vt 0.49398777 0.99333805
vt 0.6759216 0.99333805
vt 0.55979365 0.55979365
vt 0.5210843 0.55979365
vt 0.4862459 0.58301926
vt 0.43979472 0.58301926
vt 0.40882728 0.58301926
vt 0.39334354 0.58301926
vt 0.31979585 0.598503
vt 0.25399 0.99333805
vt 0.2926993 0.58301926
vt 0.27334467 0.58301926
vt 0.25399 0.58301926
vt 0.19592601 0.99333805
vt 0.19592601 0.58301926
vt 0.18431322 0.58301926
vt 0.13012017 0.99333805
vt 0.14173298 0.58301926
vt 0.13012017 0.58301926
vt 0.06818526 0.58301926
vt 0.06818526 0.99333805
vt 0.060443398 0.58301926
vt 0.006250352 0.99333805
vt 0.006250352 0.58301926
vt 0.06818526 0.58301926
vt 0.06818526 0.99333805
vt 0.13012017 0.99333805
vt 0.11850738 0.58301926
vt 0.13012017 0.58301926
vt 0.19592601 0.99333805
vt 0.19592601 0.58301926
vt 0.2191516 0.58301926
vt 0.25399 0.58301926
vt 0.25399 0.99333805
vt 0.27334467 0.58301926
vt 0.3159249 0.58301926
vt 0.49398777 0.99333805
vt 0.40882728 0.58301926
vt 0.43979472 0.58301926
vt 0.4862459 0.58301926
vt 0.5210843 0.55979365
vt 0.6759216 0.99333805
vt 0.5791483 0.55979365
vt 0.6759216 0.55979365
vn -0.999874 0.015871048 -0.00034391563
vn -0.999874 0.015871048 -0.00034391563
vn -0.999874 0.015871048 -0.00034391563
vn -0.999874 0.015871048 -0.00034391563
vn -0.999874 0.015871048 -0.00034391563
vn -0.9938838 0.110431515 -0
vn -0.9938838 0.110431515 -0
vn -0.999874 0.015871048 -0.00034391563
vn -0.999874 0.015871048 -0.00034391563
vn -0.999874 0.015871048 -0.00034391563
vn -0.999874 0.015871048 -0.00034391563
vn -0.999874 0.015871048 -0.00034391563
vn -0.999874 0.015871048 -0.00034391563
vn -0.999874 0.015871048 -0.00034391563
vn -0.999874 0.015871048 -0.00034391563
vn -0.999874 0.015871048 -0.00034391563
vn -0.999874 0.015871048 -0.00034391563
vn -0.999874 0.015871048 -0.00034391563
vn -0.999874 0.015871048 -0.00034391563
vn -0.999874 0.015871048 -0.00034391563
vn -0.9938838 0.110431515 -0
vn -0.9938838 0.110431515 -0
vn -0.968132 0.17458117 -0.17956011
vn -0.9938838 0.110431515 -0
vn -0.9938838 0.110431515 -0
vn -0.968132 0.17458117 -0.17956011
vn -0.6750134 0.7378054 -0
vn -0.6750134 0.7378054 -0
vn -0.6189697 0.7776798 -0.10995764
vn -0.6189697 0.7776798 -0.10995764
vn -0.015871048 0.015871048 -0.99974805
vn -0.015871048 0.015871048 -0.99974805
vn -0.015871048 0.015871048 -0.99974805
vn -0.015871048 0.015871048 -0.99974805
vn -0.015871048 0.015871048 -0.99974805
vn -0.015871048 -0.7141957 0.6997661
vn -0.015871048 -0.87290585 0.4876305
vn -0.015871048 -0.87290585 0.4876305
vn -0.015871048 -0.7141957 0.6997661
vn -0.015871048 -0.4285174 0.90339416
vn -0.015871048 -0.4285174 0.90339416
vn -0.015871048 -0.26980728 0.9627835
vn -0.015871048 -0.26980728 0.9627835
vn 0.015870988 0.015871048 0.99974805
vn 0.015870988 0.015871048 0.99974805
vn 0.015870988 0.047613025 0.9987398
vn 0.015870988 0.047613025 0.9987398
vn 0.015870988 0.015871048 0.99974805
vn 0.015870988 0.015871048 0.99974805
vn -0.015871048 0.999874 -0.00034526698
vn -0.015871048 0.999874 -0.00034526698
vn -0.015871048 0.999874 -0.00034526698
vn -0.015871048 0.999874 -0.00034526698
vn -0.015871048 0.999874 -0.00034526698
vn -0.015871048 0.999874 -0.00034526698
vn -0.015871048 0.999874 -0.00034526698
vn -0.015871048 0.999874 -0.00034526698
vn 0.015870988 0.999874 -0.00034526698
vn -0.015871048 0.999874 -0.00034526698
vn -0.015871048 0.999874 -0.00034526698
vn -0.015871048 0.999874 -0.00034526698
vn 0.015870988 0.999874 -0.00034526698
vn -0.015871048 0.999874 -0.00034526698
vn -0.015871048 0.999874 -0.00034526698
vn -0.015871048 0.999874 -0.00034526698
vn -0.999874 0.015871048 -0.00034391563
vn -0.999874 0.015871048 -0.00034391563
vn -0.999874 0.015871048 -0.00034391563
vn -0.999874 0.015871048 -0.00034391563
vn -0.999874 0.015871048 -0.00034391563
vn -0.999874 0.015871048 -0.00034391563
vn -0.999874 0.015871048 -0.00034391563
vn -0.999874 0.015871048 -0.00034391563
vn -0.999874 0.015871048 -0.00034391563
vn -0.999874 0.015871048 -0.00034391563
vn -0.999874 0.015871048 -0.00034391563
vn -0.999874 0.015871048 -0.00034391563
vn 0.015870988 0.015871048 -0.99974805
vn 0.015870988 0.015871048 -0.99974805
vn 0.015870988 0.015871048 -0.99974805
vn 0.015870988 0.015871048 -0.99974805
vn 0.015870988 0.015871048 -0.99974805
vn 0.015870988 0.015871048 -0.99974805
vn 0.015870988 0.015871048 -0.99974805
vn -0.7776798 0.015871048 -0.6284602
vn -0.7776798 0.015871048 -0.6284602
vn -0.7776798 0.015871048 -0.6284602
vn -0.7776798 0.015871048 -0.6284602
vn -0.999874 0.015871048 -0.00034391563
vn -0.999874 0.015871048 -0.00034391563
vn -0.999874 0.015871048 -0.00034391563
vn -0.999874 0.015871048 -0.00034391563
vn -0.999874 0.015871048 -0.00034391563
vn -0.999874 0.015871048 -0.00034391563
vn 0.015870988 0.999874 -0.00034526698
vn 0.015870988 0.999874 -0.00034526698
vn 0.015870988 0.999874 -0.00034526698
vn 0.015870988 0.999874 -0.00034526698
vn 0.015870988 0.999874 -0.00034526698
vn 0.015870988 0.999874 -0.00034526698
vn -0.015871048 0.015871048 0.99974805
vn -0.015871048 0.015871048 0.99974805
vn -0.015871048 0.015871048 0.99974805
vn -0.015871048 0.015871048 0.99974805
vn 0.015870988 0.015871048 -0.99974805
vn 0.015870988 0.015871048 -0.99974805
vn 0.015870988 0.015871048 -0.99974805
vn 0.015870988 0.015871048 -0.99974805
vn -0.5554856 0.015871048 -0.8313747
vn -0.5554856 0.015871048 -0.8313747
vn -0.5554856 0.015871048 -0.8313747
vn -0.5554856 0.015871048 -0.8313747
vn 0.999874 0.015871048 -0.00034391563
vn 0.999874 0.015871048 -0.00034391563
vn 0.999874 0.015871048 -0.00034391563
vn 0.999874 0.015871048 -0.00034391563
vn -0.015871048 0.999874 -0.00034526698
vn -0.015871048 0.999874 -0.00034526698
vn -0.015871048 0.999874 -0.00034526698
vn -0.015871048 0.999874 -0.00034526698
vn -0.999874 0.015871048 -0.00034391563
vn -0.999874 0.015871048 -0.00034391563
vn -0.999874 0.015871048 -0.00034391563
vn -0.999874 0.015871048 -0.00034391563
vn -0.968132 0.17458117 -0.17956011
vn -0.9938838 0.110431515 -0
vn -0.9938838 0.110431515 -0
vn -0.968132 0.17458117 -0.17956011
vn -0.6750134 0.7378054 -0
vn -0.6750134 0.7378054 -0
vn -0.6189697 0.7776798 -0.10995764
vn -0.6189697 0.7776798 -0.10995764
vn -0.015871048 0.015871048 0.99974805
vn -0.015871048 0.015871048 0.99974805
vn -0.015871048 0.015871048 0.99974805
vn -0.015871048 0.015871048 0.99974805
vn -0.015871048 0.015871048 0.99974805
vn -0.015871048 -0.7141957 -0.6997661
vn -0.015871048 -0.87290585 -0.4876305
vn -0.015871048 -0.87290585 -0.4876305
vn -0.015871048 -0.7141957 -0.6997661
vn -0.015871048 -0.4285174 -0.90339416
vn -0.015871048 -0.4285174 -0.90339416
vn -0.015871048 -0.26980728 -0.9627835
vn -0.015871048 -0.26980728 -0.9627835
vn 0.015870988 0.015871048 -0.99974805
vn 0.015870988 0.015871048 -0.99974805
vn 0.015870988 0.047613025 -0.9987398
vn 0.015870988 0.047613025 -0.9987398
vn 0.015870988 0.015871048 -0.99974805
vn 0.015870988 0.015871048 -0.99974805
vn 0.015870988 0.015871048 0.99974805
vn 0.015870988 0.015871048 0.99974805
vn 0.015870988 0.015871048 0.99974805
vn 0.015870988 0.015871048 0.99974805
vn 0.015870988 0.015871048 0.99974805
vn 0.015870988 0.015871048 0.99974805
vn 0.015870988 0.015871048 0.99974805
vn -0.7776798 0.015871048 0.6284602
vn -0.7776798 0.015871048 0.6284602
vn -0.7776798 0.015871048 0.6284602
vn -0.7776798 0.015871048 0.6284602
vn -0.015871048 0.015871048 -0.99974805
vn -0.015871048 0.015871048 -0.99974805
vn -0.015871048 0.015871048 -0.99974805
vn -0.015871048 0.015871048 -0.99974805
vn 0.015870988 0.015871048 0.99974805
vn 0.015870988 0.015871048 0.99974805
vn 0.015870988 0.015871048 0.99974805
vn 0.015870988 0.015871048 0.99974805
vn -0.5554856 0.015871048 0.8313747
vn -0.5554856 0.015871048 0.8313747
vn -0.5554856 0.015871048 0.8313747
vn -0.5554856 0.015871048 0.8313747
vn 0.999874 0.015871048 -0.00034391563
vn 0.999874 0.015871048 -0.00034391563
vn 0.999874 0.015871048 -0.00034391563
vn 0.999874 0.015871048 -0.00034391563
vn -0.015871048 0.999874 -0.00034526698
vn -0.015871048 0.999874 -0.00034526698
vn -0.015871048 0.999874 -0.00034526698
vn -0.015871048 0.999874 -0.00034526698
vn -0.015871048 0.999874 -0.00034526698
vn -0.015871048 0.999874 -0.00034526698
vn -0.015871048 0.999874 -0.00034526698
vn -0.015871048 0.999874 -0.00034526698
vn -0.015871048 0.999874 -0.00034526698
vn -0.015871048 0.999874 -0.00034526698
vn -0.015871048 0.999874 -0.00034526698
vn -0.1428392 0.015871048 -0.98961866
vn -0.1428392 0.015871048 -0.98961866
vn -0.1428392 0.015871048 -0.98961866
vn -0.1428392 0.015871048 -0.98961866
vn -0.999874 0.015871048 -0.00034391563
vn -0.999874 0.015871048 -0.00034391563
vn -0.999874 0.015871048 -0.00034391563
vn -0.999874 0.015871048 -0.00034391563
vn -0.39677536 0.015871048 -0.9177785
vn -0.39677536 0.015871048 -0.9177785
vn -0.39677536 0.015871048 -0.9177785
vn -0.39677536 0.015871048 -0.9177785
vn 0.999874 0.015871048 -0.00034391563
vn 0.999874 0.015871048 -0.00034391563
vn 0.999874 0.015871048 -0.00034391563
vn 0.999874 0.015871048 -0.00034391563
vn 0.68245363 0.015871048 0.7307566
vn 0.68245363 0.015871048 0.7307566
vn 0.68245363 0.015871048 0.7307566
vn 0.68245363 0.015871048 0.7307566
vn 0.999874 0.015871048 -0.00034391563
vn 0.999874 0.015871048 -0.00034391563
vn 0.999874 0.015871048 -0.00034391563
vn 0.999874 0.015871048 -0.00034391563
vn -0.015871048 0.999874 -0.00034526698
vn -0.015871048 0.999874 -0.00034526698
vn -0.015871048 0.999874 -0.00034526698
vn -0.015871048 0.999874 -0.00034526698
vn -0.015871048 0.999874 -0.00034526698
vn -0.015871048 0.999874 -0.00034526698
vn -0.015871048 0.999874 -0.00034526698
vn -0.1428392 0.015871048 0.98961866
vn -0.1428392 0.015871048 0.98961866
vn -0.1428392 0.015871048 0.98961866
vn -0.1428392 0.015871048 0.98961866
vn -0.999874 0.015871048 -0.00034391563
vn -0.999874 0.015871048 -0.00034391563
vn -0.999874 0.015871048 -0.00034391563
vn -0.999874 0.015871048 -0.00034391563
vn -0.39677536 0.015871048 0.9177785
vn -0.39677536 0.015871048 0.9177785
vn -0.39677536 0.015871048 0.9177785
vn -0.39677536 0.015871048 0.9177785
vn 0.999874 0.015871048 -0.00034391563
vn 0.999874 0.015871048 -0.00034391563
vn 0.999874 0.015871048 -0.00034391563
vn 0.999874 0.015871048 -0.00034391563
vn 0.68245363 0.015871048 -0.7307566
vn 0.68245363 0.015871048 -0.7307566
vn 0.68245363 0.015871048 -0.7307566
vn 0.68245363 0.015871048 -0.7307566
vn 0.999874 0.015871048 -0.00034391563
vn 0.999874 0.015871048 -0.00034391563
vn 0.999874 0.015871048 -0.00034391563
vn 0.999874 0.015871048 -0.00034391563
vn -0.015871048 -0.07935506 -0.9967201
vn -0.015871048 -0.07935506 -0.9967201
vn -0.015871048 -0.17458117 -0.98451483
vn -0.015871048 -0.17458117 -0.98451483
vn -0.015871048 -0.36503333 -0.93085915
vn -0.015871048 -0.36503333 -0.93085915
vn -0.015871048 -0.55548555 -0.8313747
vn -0.015871048 -0.55548555 -0.8313747
vn -0.015871048 -0.68245363 -0.7307566
vn -0.015871048 -0.68245363 -0.7307566
vn -0.968132 0.07935512 0.23753564
vn -0.9363899 0.07935512 0.34187227
vn -0.968132 0.07935512 0.23753564
vn -0.968132 0.07935512 0.23753564
vn -0.968132 0.07935512 0.23753564
vn -0.9968654 0.079116344 -0
vn -0.9968654 0.079116344 -0
vn -0.9968654 0.079116344 -0
vn -0.7141957 -0.4285174 -0.55344135
vn -0.7141957 -0.5237435 -0.46434602
vn -0.7141957 -0.5237435 -0.46434602
vn -0.7141957 -0.4285174 -0.55344135
vn -0.65071166 -0.26980728 -0.7097734
vn -0.65071166 -0.26980728 -0.7097734
vn -0.5872276 -0.2063232 -0.78268415
vn -0.5872276 -0.2063232 -0.78268415
vn -0.6189697 -0.17458117 -0.76576626
vn -0.6189697 -0.17458117 -0.76576626
vn -0.65071166 -0.26980728 -0.7097734
vn -0.65071166 -0.23806524 -0.72104037
vn -0.65071166 -0.46025944 -0.6039334
vn -0.65071166 -0.4285174 -0.62685496
vn -0.65071166 -0.5872276 -0.48139182
vn -0.65071166 -0.5872276 -0.48139182
vn -0.999874 0.015871048 -0.00034391563
vn -0.999874 0.015871048 -0.00034391563
vn -0.999874 0.015871048 -0.00034391563
vn -0.999874 0.015871048 -0.00034391563
vn -0.999874 0.015871048 -0.00034391563
vn -0.999874 0.015871048 -0.00034391563
vn -0.999874 0.015871048 -0.00034391563
vn -0.999874 0.015871048 -0.00034391563
vn -0.9968654 0.079116344 -0
vn -0.9968654 0.079116344 -0
vn -0.9968654 0.079116344 -0
vn -0.9968654 0.079116344 -0
vn -0.968132 0.07935512 0.23753564
vn -0.968132 0.047613025 0.24587277
vn -0.968132 0.047613025 0.24587277
vn -0.968132 0.047613025 0.24587277
vn -0.968132 0.047613025 0.24587277
vn -0.968132 0.047613025 0.24587277
vn 0.015870988 0.1110971 -0.9936828
vn 0.015870988 0.1110971 -0.9936828
vn 0.015870988 0.1110971 -0.9936828
vn 0.015870988 0.1110971 -0.9936828
vn -0.015871048 0.1110971 -0.9936828
vn -0.015871048 0.1110971 -0.9936828
vn -0.015871048 0.1110971 -0.9936828
vn -0.015871048 0.07935512 -0.9967201
vn -0.015871048 0.07935512 -0.9967201
vn -0.015871048 0.07935512 -0.9967201
vn -0.7141957 -0.047613025 0.6983248
vn -0.30154932 -0.07935506 0.9501425
vn -0.30154932 -0.1110971 0.94695586
vn -0.65071166 -0.07935506 0.75516695
vn -0.30154932 -0.1110971 0.94695586
vn -0.65071166 -0.1110971 0.7511536
vn -0.968132 -0.015870988 0.24993704
vn -0.968132 -0.015870988 0.24993704
vn -0.999874 -0.015870988 -0.00034665503
vn -0.968132 -0.047613025 0.24587277
vn -0.999874 0.015871048 -0.00034391563
vn -0.99886817 -0.04756513 -0
vn -0.968132 -0.047613025 -0.24587277
vn -0.968132 -0.015870988 -0.24993704
vn -0.968132 -0.015870988 -0.24993704
vn -0.65071166 -0.1110971 -0.7511536
vn -0.65071166 -0.07935506 -0.75516695
vn -0.30154932 -0.1110971 -0.94695586
vn -0.7141957 -0.047613025 -0.6983248
vn -0.30154932 -0.1110971 -0.94695586
vn -0.30154932 -0.07935506 -0.9501425
vn -0.9363899 0.015871048 -0.35060233
vn -0.999874 0.015871048 -0.00034391563
vn -0.999874 0.015871048 -0.00034391563
vn -0.9363899 0.015871048 -0.35060233
vn -0.999874 0.015871048 -0.00034391563
vn -0.999874 0.015871048 -0.00034391563
vn -0.999874 0.015871048 -0.00034391563
vn -0.999874 0.015871048 -0.00034391563
vn -0.968132 0.015871048 0.24993704
vn -0.968132 0.015871048 0.24993704
vn -0.999874 0.015871048 -0.00034391563
vn -0.999874 0.015871048 -0.00034391563
vn -0.968132 0.015871048 -0.24993704
vn -0.968132 0.015871048 -0.24993704
vn -0.999874 0.015871048 -0.00034391563
vn -0.999874 0.015871048 -0.00034391563
vn -0.999874 0.015871048 -0.00034391563
vn -0.999874 0.015871048 -0.00034391563
vn -0.9363899 0.015871048 0.35060233
vn -0.9363899 0.015871048 0.35060233
vn -0.999874 0.015871048 -0.00034391563
vn -0.999874 0.015871048 -0.00034391563
vn -0.999874 0.015871048 -0.00034391563
vn -0.999874 0.015871048 -0.00034391563
vn -0.999874 0.015871048 -0.00034391563
vn -0.999874 0.015871048 -0.00034391563
vn -0.999874 0.015871048 -0.00034391563
vn -0.999874 0.015871048 -0.00034391563
vn -0.999874 0.015871048 -0.00034391563
vn -0.999874 0.015871048 -0.00034391563
vn -0.999874 0.015871048 -0.00034391563
vn -0.999874 0.015871048 -0.00034391563
vn -0.999874 0.015871048 -0.00034391563
vn -0.999874 0.015871048 -0.00034391563
vn -0.015871048 -0.07935506 0.9967201
vn -0.015871048 -0.17458117 0.98451483
vn -0.015871048 -0.07935506 0.9967201
vn -0.015871048 -0.17458117 0.98451483
vn -0.015871048 -0.36503333 0.93085915
vn -0.015871048 -0.36503333 0.93085915
vn -0.015871048 -0.55548555 0.8313747
vn -0.015871048 -0.55548555 0.8313747
vn -0.015871048 -0.68245363 0.7307566
vn -0.015871048 -0.68245363 0.7307566
vn -0.968132 0.07935512 -0.23753564
vn -0.968132 0.07935512 -0.23753564
vn -0.9363899 0.07935512 -0.34187227
vn -0.968132 0.07935512 -0.23753564
vn -0.968132 0.07935512 -0.23753564
vn -0.9968654 0.079116344 -0
vn -0.9968654 0.079116344 -0
vn -0.9968654 0.079116344 -0
vn -0.7141957 -0.4285174 0.55344135
vn -0.7141957 -0.5237435 0.46434602
vn -0.7141957 -0.5237435 0.46434602
vn -0.7141957 -0.4285174 0.55344135
vn -0.65071166 -0.26980728 0.7097734
vn -0.65071166 -0.26980728 0.7097734
vn -0.5872276 -0.2063232 0.78268415
vn -0.5872276 -0.2063232 0.78268415
vn -0.6189697 -0.17458117 0.76576626
vn -0.65071166 -0.26980728 0.7097734
vn -0.6189697 -0.17458117 0.76576626
vn -0.65071166 -0.23806524 0.72104037
vn -0.65071166 -0.46025944 0.6039334
vn -0.65071166 -0.4285174 0.62685496
vn -0.65071166 -0.5872276 0.48139182
vn -0.65071166 -0.5872276 0.48139182
vn -0.999874 0.015871048 -0.00034391563
vn -0.999874 0.015871048 -0.00034391563
vn -0.999874 0.015871048 -0.00034391563
vn -0.999874 0.015871048 -0.00034391563
vn -0.999874 0.015871048 -0.00034391563
vn -0.999874 0.015871048 -0.00034391563
vn -0.999874 0.015871048 -0.00034391563
vn -0.999874 0.015871048 -0.00034391563
vn -0.9968654 0.079116344 -0
vn -0.9968654 0.079116344 -0
vn -0.9968654 0.079116344 -0
vn -0.9968654 0.079116344 -0
vn -0.968132 0.07935512 -0.23753564
vn -0.968132 0.047613025 -0.24587277
vn -0.968132 0.047613025 -0.24587277
vn -0.968132 0.047613025 -0.24587277
vn -0.968132 0.047613025 -0.24587277
vn -0.968132 0.047613025 -0.24587277
vn 0.015870988 0.1110971 0.9936828
vn 0.015870988 0.1110971 0.9936828
vn 0.015870988 0.1110971 0.9936828
vn 0.015870988 0.1110971 0.9936828
vn -0.015871048 0.1110971 0.9936828
vn -0.015871048 0.1110971 0.9936828
vn -0.015871048 0.1110971 0.9936828
vn -0.015871048 0.07935512 0.9967201
vn -0.015871048 0.07935512 0.9967201
vn -0.015871048 0.07935512 0.9967201
vn -0.9363899 -0.26980728 0.22445028
vn -0.8094218 0.015871048 0.58701324
vn -0.90464795 -0.23806524 0.3534643
vn -0.87290585 0.1428392 0.46651083
vn -0.87290585 0.1428392 0.46651083
vn -0.6189697 0.015871048 0.78525454
vn -0.68245375 -0.33329135 0.65051806
vn -0.5554856 0.1428392 0.8191659
vn -0.5237435 0.17458117 0.833795
vn -0.015871048 0.015871048 -0.99974805
vn -0.015871048 0.015871048 -0.99974805
vn -0.015871048 0.015871048 -0.99974805
vn -0.015871048 0.015871048 -0.99974805
vn -0.015871048 0.015871048 -0.99974805
vn -0.015871048 0.015871048 -0.99974805
vn -0.015871048 0.015871048 -0.99974805
vn -0.015871048 0.015871048 -0.99974805
vn -0.015871048 0.015871048 -0.99974805
vn -0.015871048 0.015871048 -0.99974805
vn -0.015871048 -0.07935506 -0.9967201
vn -0.015871048 -0.14283913 -0.98961866
vn -0.015871048 -0.33329135 -0.94269025
vn -0.015871048 -0.26980728 -0.9627835
vn 0.015870988 -0.39677536 -0.9177785
vn -0.015871048 -0.39677536 -0.9177785
vn -0.015871048 -0.49200147 -0.8704497
vn -0.015871048 -0.55548555 -0.8313747
vn -0.015871048 -0.7141957 -0.6997661
vn -0.015871048 -0.5872276 -0.80926627
vn -0.015871048 -0.87290585 -0.4876305
vn -0.999874 0.015871048 -0.00034391563
vn -0.999874 0.015871048 -0.00034391563
vn -0.015871048 -0.7459377 0.66582656
vn -0.015871048 -0.7459377 0.66582656
vn -0.015871048 -0.55548555 0.8313747
vn -0.015871048 -0.46025944 0.8876426
vn -0.015871048 -0.4285174 0.90339416
vn -0.015871048 -0.39677536 0.9177785
vn -0.015871048 -0.33329135 0.94269025
vn -0.015871048 -0.26980728 0.9627835
vn -0.015871048 -0.23806524 0.97111946
vn -0.015871048 -0.07935506 0.9967201
vn -0.015871048 0.015871048 0.99974805
vn -0.015871048 0.015871048 0.99974805
vn -0.015871048 0.015871048 0.99974805
vn -0.015871048 0.015871048 0.99974805
vn -0.015871048 0.015871048 0.99974805
vn -0.015871048 0.015871048 0.99974805
vn -0.015871048 0.015871048 0.99974805
vn -0.015871048 0.015871048 0.99974805
vn -0.015871048 0.015871048 0.99974805
vn -0.015871048 0.015871048 0.99974805
vn -0.98994946 -0.14142135 -0
vn -0.9968654 -0.079116285 -0
vn -0.9968654 -0.079116285 -0
vn -0.9850967 -0.172001 -0
vn -0.9968654 0.079116344 -0
vn -0.9968654 0.079116344 -0
vn -0.96329135 0.2684583 -0
vn -0.96329135 0.2684583 -0
vn -0.9938838 0.110431515 -0
vn -0.9938838 0.110431515 -0
vn -0.999874 0.015871048 -0.00034391563
vn -0.999874 -0.015870988 -0.00034665503
vn -0.9938838 -0.110431515 -0
vn -0.9938838 -0.110431515 -0
vn -0.999874 0.015871048 -0.00034391563
vn -0.999874 0.015871048 -0.00034391563
vn -0.99886817 -0.04756513 -0
vn -0.999874 -0.015870988 -0.00034665503
vn -0.9968654 0.079116344 -0
vn -0.90464795 0.1110971 0.41142374
vn -0.99886817 -0.04756513 -0
vn -0.9968654 0.079116344 -0
vn -0.968132 0.1428392 -0.20571189
vn -0.999874 0.015871048 -0.00034391563
vn -0.99886817 -0.04756513 -0
vn -0.9938838 -0.110431515 -0
vn -0.968132 -0.17458117 0.17956011
vn -0.999874 0.015871048 -0.00034391563
vn -0.99886817 0.04756513 -0
vn -0.999874 0.015871048 -0.00034391563
vn -0.99886817 0.04756513 -0
vn -0.999874 0.015871048 -0.00034391563
vn -0.999874 -0.015870988 -0.00034665503
vn -0.999874 0.015871048 -0.00034391563
vn -0.999874 0.015871048 -0.00034391563
vn -0.999874 -0.015870988 -0.00034665503
vn -0.999874 -0.015870988 -0.00034665503
vn -0.999874 0.015871048 -0.00034391563
vn -0.99886817 0.04756513 -0
vn -0.999874 0.015871048 -0.00034391563
vn -0.999874 -0.015870988 -0.00034665503
vn -0.999874 0.015871048 -0.00034391563
vn -0.999874 0.015871048 -0.00034391563
vn -0.999874 -0.015870988 -0.00034665503
vn -0.999874 -0.015870988 -0.00034665503
vn -0.98994946 -0.14142135 -0
vn -0.9850967 -0.172001 -0
vn -0.99886817 -0.04756513 -0
vn -0.999874 0.015871048 -0.00034391563
vn -0.9938838 0.110431515 -0
vn -0.999874 -0.015870988 -0.00034665503
vn -0.99886817 0.04756513 -0
vn -0.99886817 0.04756513 -0
vn -0.9968654 0.079116344 -0
vn -0.9968654 0.079116344 -0
vn -0.96329135 0.2684583 -0
vn -0.968132 0.23806524 -0.07775189
vn -0.9938838 0.110431515 -0
vn -0.9938838 0.110431515 -0
vn -0.98994946 -0.14142135 -0
vn -0.98994946 -0.14142135 -0
vn -0.9938838 -0.110431515 -0
vn -0.9938838 -0.110431515 -0
vn 0.015870988 -0.047613025 0.9987398
vn 0.015870988 -0.015870988 0.99974805
vn 0.015870988 -0.047613025 0.9987398
vn 0.015870988 -0.015870988 0.99974805
vn -0.015871048 0.047613025 0.9987398
vn -0.015871048 -0.015870988 0.99974805
vn -0.015871048 -0.1110971 0.9936828
vn -0.015871048 -0.015870988 0.99974805
vn 0.015870988 0.1110971 0.9936828
vn 0.015870988 0.047613025 0.9987398
vn -0.015871048 0.1110971 0.9936828
vn -0.015871048 0.1110971 0.9936828
vn -0.015871048 0.015871048 0.99974805
vn -0.015871048 0.20632327 0.97835517
vn -0.015871048 0.3650334 0.93085915
vn -0.015871048 0.30154932 0.9533185
vn -0.015871048 0.42851746 0.9033941
vn 0.015870988 0.49200153 0.87044966
vn -0.015871048 0.42851746 0.9033941
vn 0.015870988 0.5237435 0.85172814
vn 0.015870988 0.6189697 0.78525454
vn 0.015870988 0.7459378 0.66582644
vn 0.015870988 0.90464795 0.42586404
vn -0.999874 0.015871048 -0.00034391563
vn -0.999874 0.015871048 -0.00034391563
vn 0.015870988 0.7776798 -0.6284602
vn 0.015870988 0.7776798 -0.6284602
vn 0.015870988 0.5554856 -0.8313747
vn 0.015870988 0.5554856 -0.8313747
vn -0.015871048 0.39677536 -0.9177785
vn 0.015870988 0.3650334 -0.93085915
vn -0.015871048 0.46025944 -0.8876426
vn 0.015870988 0.26980734 -0.9627835
vn 0.015870988 0.1428392 -0.98961866
vn 0.015870988 0.07935512 -0.9967201
vn -0.015871048 -0.015870988 -0.99974805
vn 0.015870988 0.015871048 -0.99974805
vn 0.015870988 0.015871048 -0.99974805
vn 0.015870988 0.047613025 -0.9987398
vn 0.015870988 -0.07935506 -0.9967201
vn -0.015871048 -0.14283913 -0.98961866
vn -0.015871048 0.015871048 -0.99974805
vn -0.015871048 0.015871048 -0.99974805
vn -0.015871048 0.015871048 -0.99974805
vn -0.015871048 0.015871048 -0.99974805
g geo_landing_platform_mesh_0
f 3/3/3 2/2/2 1/1/1
f 4/4/4 3/3/3 1/1/1
f 7/7/7 6/6/6 5/5/5
f 8/8/8 7/7/7 5/5/5
f 5/5/5 9/9/9 8/8/8
f 9/9/9 10/10/10 8/8/8
f 9/9/9 11/11/11 10/10/10
f 11/11/11 12/12/12 10/10/10
f 11/11/11 13/13/13 12/12/12
f 13/13/13 14/14/14 12/12/12
f 14/14/14 13/13/13 15/15/15
f 13/13/13 16/16/16 15/15/15
f 15/15/15 16/16/16 17/17/17
f 16/16/16 18/18/18 17/17/17
f 17/17/17 18/18/18 19/19/19
f 18/18/18 20/20/20 19/19/19
f 21/21/21 19/19/19 20/20/20
f 22/22/22 21/21/21 20/20/20
f 25/25/25 24/24/24 23/23/23
f 26/26/26 25/25/25 23/23/23
f 27/27/27 26/26/26 23/23/23
f 28/28/28 27/27/27 23/23/23
f 28/28/28 29/29/29 27/27/27
f 29/29/29 30/30/30 27/27/27
f 33/33/33 32/32/32 31/31/31
f 31/31/31 32/32/32 34/34/34
f 32/32/32 35/35/35 34/34/34
f 38/38/38 37/37/37 36/36/36
f 39/39/39 38/38/38 36/36/36
f 39/39/39 36/36/36 40/40/40
f 41/41/41 39/39/39 40/40/40
f 41/41/41 40/40/40 42/42/42
f 43/43/43 41/41/41 42/42/42
f 43/43/43 42/42/42 44/44/44
f 45/45/45 43/43/43 44/44/44
f 46/46/46 45/45/45 44/44/44
f 47/47/47 46/46/46 44/44/44
f 46/46/46 47/47/47 48/48/48
f 49/49/49 46/46/46 48/48/48
f 52/52/52 51/51/51 50/50/50
f 53/53/53 52/52/52 50/50/50
f 54/54/54 53/53/53 50/50/50
f 55/55/55 53/53/53 54/54/54
f 56/56/56 55/55/55 54/54/54
f 57/57/57 56/56/56 54/54/54
f 58/58/58 56/56/56 57/57/57
f 53/53/53 55/55/55 59/59/59
f 55/55/55 60/60/60 59/59/59
f 60/60/60 61/61/61 59/59/59
f 60/60/60 62/62/62 61/61/61
f 53/53/53 59/59/59 63/63/63
f 64/64/64 53/53/53 63/63/63
f 65/65/65 64/64/64 63/63/63
f 68/68/68 67/67/67 66/66/66
f 67/67/67 69/69/69 66/66/66
f 66/66/66 69/69/69 70/70/70
f 71/71/71 66/66/66 70/70/70
f 72/72/72 71/71/71 70/70/70
f 71/71/71 72/72/72 73/73/73
f 74/74/74 71/71/71 73/73/73
f 75/75/75 74/74/74 73/73/73
f 75/75/75 76/76/76 74/74/74
f 76/76/76 77/77/77 74/74/74
f 80/80/80 79/79/79 78/78/78
f 79/79/79 81/81/81 78/78/78
f 81/81/81 82/82/82 78/78/78
f 82/82/82 81/81/81 83/83/83
f 84/84/84 82/82/82 83/83/83
f 87/87/87 86/86/86 85/85/85
f 88/88/88 87/87/87 85/85/85
f 91/91/91 90/90/90 89/89/89
f 90/90/90 92/92/92 89/89/89
f 92/92/92 90/90/90 93/93/93
f 90/90/90 94/94/94 93/93/93
f 97/97/97 96/96/96 95/95/95
f 96/96/96 98/98/98 95/95/95
f 98/98/98 96/96/96 99/99/99
f 96/96/96 100/100/100 99/99/99
f 103/103/103 102/102/102 101/101/101
f 104/104/104 103/103/103 101/101/101
f 107/107/107 106/106/106 105/105/105
f 108/108/108 107/107/107 105/105/105
f 111/111/111 110/110/110 109/109/109
f 112/112/112 111/111/111 109/109/109
f 115/115/115 114/114/114 113/113/113
f 116/116/116 115/115/115 113/113/113
f 119/119/119 118/118/118 117/117/117
f 120/120/120 119/119/119 117/117/117
f 123/123/123 122/122/122 121/121/121
f 124/124/124 123/123/123 121/121/121
f 127/127/127 126/126/126 125/125/125
f 126/126/126 128/128/128 125/125/125
f 128/128/128 129/129/129 125/125/125
f 129/129/129 130/130/130 125/125/125
f 131/131/131 130/130/130 129/129/129
f 132/132/132 131/131/131 129/129/129
f 135/135/135 134/134/134 133/133/133
f 135/135/135 133/133/133 136/136/136
f 137/137/137 135/135/135 136/136/136
f 140/140/140 139/139/139 138/138/138
f 139/139/139 141/141/141 138/138/138
f 138/138/138 141/141/141 142/142/142
f 141/141/141 143/143/143 142/142/142
f 142/142/142 143/143/143 144/144/144
f 143/143/143 145/145/145 144/144/144
f 144/144/144 145/145/145 146/146/146
f 145/145/145 147/147/147 146/146/146
f 147/147/147 148/148/148 146/146/146
f 148/148/148 149/149/149 146/146/146
f 149/149/149 148/148/148 150/150/150
f 148/148/148 151/151/151 150/150/150
f 154/154/154 153/153/153 152/152/152
f 155/155/155 154/154/154 152/152/152
f 156/156/156 155/155/155 152/152/152
f 155/155/155 156/156/156 157/157/157
f 156/156/156 158/158/158 157/157/157
f 161/161/161 160/160/160 159/159/159
f 162/162/162 161/161/161 159/159/159
f 165/165/165 164/164/164 163/163/163
f 166/166/166 165/165/165 163/163/163
f 169/169/169 168/168/168 167/167/167
f 170/170/170 169/169/169 167/167/167
f 173/173/173 172/172/172 171/171/171
f 174/174/174 173/173/173 171/171/171
f 177/177/177 176/176/176 175/175/175
f 178/178/178 177/177/177 175/175/175
f 181/181/181 180/180/180 179/179/179
f 182/182/182 181/181/181 179/179/179
f 185/185/185 184/184/184 183/183/183
f 186/186/186 185/185/185 183/183/183
f 186/186/186 187/187/187 185/185/185
f 187/187/187 188/188/188 185/185/185
f 185/185/185 188/188/188 189/189/189
f 192/192/192 191/191/191 190/190/190
f 193/193/193 192/192/192 190/190/190
f 196/196/196 195/195/195 194/194/194
f 197/197/197 196/196/196 194/194/194
f 200/200/200 199/199/199 198/198/198
f 201/201/201 200/200/200 198/198/198
f 204/204/204 203/203/203 202/202/202
f 205/205/205 204/204/204 202/202/202
f 208/208/208 207/207/207 206/206/206
f 209/209/209 208/208/208 206/206/206
f 212/212/212 211/211/211 210/210/210
f 213/213/213 212/212/212 210/210/210
f 216/216/216 215/215/215 214/214/214
f 215/215/215 217/217/217 214/214/214
f 218/218/218 217/217/217 215/215/215
f 219/219/219 218/218/218 215/215/215
f 219/219/219 215/215/215 220/220/220
f 223/223/223 222/222/222 221/221/221
f 224/224/224 223/223/223 221/221/221
f 227/227/227 226/226/226 225/225/225
f 228/228/228 227/227/227 225/225/225
f 231/231/231 230/230/230 229/229/229
f 232/232/232 231/231/231 229/229/229
f 235/235/235 234/234/234 233/233/233
f 236/236/236 235/235/235 233/233/233
f 239/239/239 238/238/238 237/237/237
f 240/240/240 239/239/239 237/237/237
f 243/243/243 242/242/242 241/241/241
f 244/244/244 243/243/243 241/241/241
f 247/247/247 246/246/246 245/245/245
f 248/248/248 247/247/247 245/245/245
f 249/249/249 247/247/247 248/248/248
f 250/250/250 249/249/249 248/248/248
f 251/251/251 249/249/249 250/250/250
f 252/252/252 251/251/251 250/250/250
f 253/253/253 251/251/251 252/252/252
f 254/254/254 253/253/253 252/252/252
f 257/257/257 256/256/256 255/255/255
f 258/258/258 257/257/257 255/255/255
f 259/259/259 258/258/258 255/255/255
f 259/259/259 260/260/260 258/258/258
f 260/260/260 261/261/261 258/258/258
f 261/261/261 262/262/262 258/258/258
f 265/265/265 264/264/264 263/263/263
f 266/266/266 265/265/265 263/263/263
f 266/266/266 263/263/263 267/267/267
f 268/268/268 266/266/266 267/267/267
f 268/268/268 267/267/267 269/269/269
f 267/267/267 270/270/270 269/269/269
f 273/273/273 272/272/272 271/271/271
f 274/274/274 273/273/273 271/271/271
f 274/274/274 275/275/275 273/273/273
f 275/275/275 276/276/276 273/273/273
f 275/275/275 277/277/277 276/276/276
f 277/277/277 278/278/278 276/276/276
f 281/281/281 280/280/280 279/279/279
f 282/282/282 281/281/281 279/279/279
f 282/282/282 279/279/279 283/283/283
f 279/279/279 284/284/284 283/283/283
f 284/284/284 285/285/285 283/283/283
f 284/284/284 286/286/286 285/285/285
f 289/289/289 288/288/288 287/287/287
f 290/290/290 289/289/289 287/287/287
f 291/291/291 290/290/290 287/287/287
f 291/291/291 287/287/287 292/292/292
f 291/291/291 292/292/292 293/293/293
f 292/292/292 294/294/294 293/293/293
f 294/294/294 295/295/295 293/293/293
f 295/295/295 296/296/296 293/293/293
f 299/299/299 298/298/298 297/297/297
f 300/300/300 299/299/299 297/297/297
f 300/300/300 301/301/301 299/299/299
f 302/302/302 299/299/299 301/301/301
f 303/303/303 302/302/302 301/301/301
f 302/302/302 303/303/303 304/304/304
f 305/305/305 302/302/302 304/304/304
f 306/306/306 305/305/305 304/304/304
f 309/309/309 308/308/308 307/307/307
f 310/310/310 309/309/309 307/307/307
f 311/311/311 309/309/309 310/310/310
f 312/312/312 311/311/311 310/310/310
f 310/310/310 307/307/307 313/313/313
f 310/310/310 314/314/314 312/312/312
f 314/314/314 310/310/310 313/313/313
f 314/314/314 313/313/313 315/315/315
f 314/314/314 316/316/316 312/312/312
f 314/314/314 315/315/315 316/316/316
f 313/313/313 317/317/317 315/315/315
f 315/315/315 318/318/318 316/316/316
f 318/318/318 315/315/315 319/319/319
f 317/317/317 320/320/320 315/315/315
f 315/315/315 321/321/321 319/319/319
f 320/320/320 321/321/321 315/315/315
f 319/319/319 321/321/321 322/322/322
f 323/323/323 321/321/321 320/320/320
f 321/321/321 323/323/323 322/322/322
f 324/324/324 322/322/322 323/323/323
f 325/325/325 323/323/323 320/320/320
f 326/326/326 324/324/324 323/323/323
f 326/326/326 323/323/323 325/325/325
f 327/327/327 326/326/326 325/325/325
f 330/330/330 329/329/329 328/328/328
f 331/331/331 330/330/330 328/328/328
f 331/331/331 328/328/328 332/332/332
f 333/333/333 331/331/331 332/332/332
f 333/333/333 332/332/332 334/334/334
f 335/335/335 333/333/333 334/334/334
f 335/335/335 334/334/334 336/336/336
f 337/337/337 335/335/335 336/336/336
f 337/337/337 336/336/336 338/338/338
f 339/339/339 337/337/337 338/338/338
f 339/339/339 338/338/338 340/340/340
f 341/341/341 339/339/339 340/340/340
f 341/341/341 340/340/340 342/342/342
f 343/343/343 341/341/341 342/342/342
f 343/343/343 342/342/342 344/344/344
f 345/345/345 343/343/343 344/344/344
f 345/345/345 344/344/344 346/346/346
f 347/347/347 345/345/345 346/346/346
f 347/347/347 346/346/346 348/348/348
f 346/346/346 349/349/349 348/348/348
f 352/352/352 351/351/351 350/350/350
f 352/352/352 353/353/353 351/351/351
f 353/353/353 354/354/354 351/351/351
f 354/354/354 355/355/355 351/351/351
f 355/355/355 356/356/356 351/351/351
f 356/356/356 357/357/357 351/351/351
f 357/357/357 358/358/358 351/351/351
f 358/358/358 359/359/359 351/351/351
f 359/359/359 360/360/360 351/351/351
f 351/351/351 360/360/360 361/361/361
f 364/364/364 363/363/363 362/362/362
f 363/363/363 365/365/365 362/362/362
f 363/363/363 366/366/366 365/365/365
f 366/366/366 367/367/367 365/365/365
f 366/366/366 368/368/368 367/367/367
f 368/368/368 369/369/369 367/367/367
f 368/368/368 370/370/370 369/369/369
f 370/370/370 371/371/371 369/369/369
f 374/374/374 373/373/373 372/372/372
f 373/373/373 375/375/375 372/372/372
f 375/375/375 376/376/376 372/372/372
f 377/377/377 376/376/376 375/375/375
f 378/378/378 377/377/377 375/375/375
f 379/379/379 378/378/378 375/375/375
f 382/382/382 381/381/381 380/380/380
f 381/381/381 383/383/383 380/380/380
f 380/380/380 383/383/383 384/384/384
f 383/383/383 385/385/385 384/384/384
f 384/384/384 385/385/385 386/386/386
f 387/387/387 384/384/384 386/386/386
f 390/390/390 389/389/389 388/388/388
f 389/389/389 391/391/391 388/388/388
f 392/392/392 391/391/391 389/389/389
f 393/393/393 392/392/392 389/389/389
f 394/394/394 392/392/392 393/393/393
f 395/395/395 394/394/394 393/393/393
f 398/398/398 397/397/397 396/396/396
f 397/397/397 399/399/399 396/396/396
f 396/396/396 399/399/399 400/400/400
f 401/401/401 396/396/396 400/400/400
f 402/402/402 401/401/401 400/400/400
f 403/403/403 401/401/401 402/402/402
f 406/406/406 405/405/405 404/404/404
f 405/405/405 407/407/407 404/404/404
f 407/407/407 408/408/408 404/404/404
f 404/404/404 408/408/408 409/409/409
f 409/409/409 408/408/408 410/410/410
f 411/411/411 409/409/409 410/410/410
f 412/412/412 411/411/411 410/410/410
f 413/413/413 412/412/412 410/410/410
f 416/416/416 415/415/415 414/414/414
f 415/415/415 417/417/417 414/414/414
f 418/418/418 417/417/417 415/415/415
f 415/415/415 419/419/419 418/418/418
f 419/419/419 420/420/420 418/418/418
f 420/420/420 419/419/419 421/421/421
f 419/419/419 422/422/422 421/421/421
f 422/422/422 423/423/423 421/421/421
f 426/426/426 425/425/425 424/424/424
f 426/426/426 427/427/427 425/425/425
f 427/427/427 428/428/428 425/425/425
f 431/431/431 430/430/430 429/429/429
f 431/431/431 429/429/429 432/432/432
f 435/435/435 434/434/434 433/433/433
f 435/435/435 436/436/436 434/434/434
f 435/435/435 437/437/437 436/436/436
f 437/437/437 438/438/438 436/436/436
f 439/439/439 436/436/436 438/438/438
f 439/439/439 440/440/440 436/436/436
f 440/440/440 441/441/441 436/436/436
f 441/441/441 442/442/442 436/436/436
f 442/442/442 443/443/443 436/436/436
f 442/442/442 444/444/444 443/443/443
f 445/445/445 443/443/443 444/444/444
f 446/446/446 445/445/445 444/444/444
f 447/447/447 445/445/445 446/446/446
f 447/447/447 448/448/448 445/445/445
f 448/448/448 449/449/449 445/445/445
f 448/448/448 450/450/450 449/449/449
f 451/451/451 449/449/449 450/450/450
f 452/452/452 451/451/451 450/450/450
f 453/453/453 451/451/451 452/452/452
f 453/453/453 454/454/454 451/451/451
f 454/454/454 455/455/455 451/451/451
f 455/455/455 454/454/454 456/456/456
f 457/457/457 455/455/455 456/456/456
f 457/457/457 456/456/456 458/458/458
f 459/459/459 457/457/457 458/458/458
f 459/459/459 458/458/458 460/460/460
f 459/459/459 460/460/460 461/461/461
f 462/462/462 459/459/459 461/461/461
f 462/462/462 461/461/461 463/463/463
f 462/462/462 463/463/463 464/464/464
f 465/465/465 462/462/462 464/464/464
f 465/465/465 464/464/464 466/466/466
f 465/465/465 466/466/466 467/467/467
f 465/465/465 467/467/467 468/468/468
f 467/467/467 469/469/469 468/468/468
f 469/469/469 470/470/470 468/468/468
f 468/468/468 470/470/470 471/471/471
f 471/471/471 472/472/472 468/468/468
f 468/468/468 472/472/472 473/473/473
f 474/474/474 468/468/468 473/473/473
f 474/474/474 473/473/473 475/475/475
f 478/478/478 477/477/477 476/476/476
f 479/479/479 478/478/478 476/476/476
f 479/479/479 476/476/476 480/480/480
f 481/481/481 479/479/479 480/480/480
f 481/481/481 480/480/480 482/482/482
f 483/483/483 481/481/481 482/482/482
f 483/483/483 482/482/482 484/484/484
f 485/485/485 483/483/483 484/484/484
f 485/485/485 484/484/484 486/486/486
f 487/487/487 485/485/485 486/486/486
f 487/487/487 486/486/486 488/488/488
f 489/489/489 487/487/487 488/488/488
f 489/489/489 488/488/488 490/490/490
f 491/491/491 489/489/489 490/490/490
f 491/491/491 490/490/490 492/492/492
f 491/491/491 492/492/492 493/493/493
f 492/492/492 494/494/494 493/493/493
f 494/494/494 495/495/495 493/493/493
f 495/495/495 496/496/496 493/493/493
f 497/497/497 493/493/493 496/496/496
f 498/498/498 497/497/497 496/496/496
f 499/499/499 497/497/497 498/498/498
f 500/500/500 499/499/499 498/498/498
f 500/500/500 501/501/501 499/499/499
f 501/501/501 502/502/502 499/499/499
f 501/501/501 503/503/503 502/502/502
f 503/503/503 504/504/504 502/502/502
f 505/505/505 504/504/504 503/503/503
f 506/506/506 505/505/505 503/503/503
f 507/507/507 505/505/505 506/506/506
f 507/507/507 508/508/508 505/505/505
f 507/507/507 509/509/509 508/508/508
f 509/509/509 510/510/510 508/508/508
f 510/510/510 509/509/509 511/511/511
f 512/512/512 510/510/510 511/511/511
f 512/512/512 511/511/511 513/513/513
f 514/514/514 512/512/512 513/513/513
f 514/514/514 513/513/513 515/515/515
f 516/516/516 514/514/514 515/515/515
f 516/516/516 515/515/515 517/517/517
f 518/518/518 516/516/516 517/517/517
f 518/518/518 517/517/517 519/519/519
f 520/520/520 518/518/518 519/519/519
f 520/520/520 519/519/519 521/521/521
f 522/522/522 520/520/520 521/521/521
f 521/521/521 523/523/523 522/522/522
f 523/523/523 524/524/524 522/522/522
f 524/524/524 523/523/523 525/525/525
f 523/523/523 526/526/526 525/525/525
f 526/526/526 527/527/527 525/525/525
f 526/526/526 528/528/528 527/527/527
f 528/528/528 529/529/529 527/527/527
f 529/529/529 530/530/530 527/527/527
f 531/531/531 530/530/530 529/529/529
f 532/532/532 531/531/531 529/529/529
f 533/533/533 531/531/531 532/532/532
f 534/534/534 533/533/533 532/532/532
f 535/535/535 533/533/533 534/534/534
f 536/536/536 535/535/535 534/534/534
f 536/536/536 537/537/537 535/535/535
f 537/537/537 538/538/538 535/535/535
f 541/541/541 540/540/540 539/539/539
f 540/540/540 542/542/542 539/539/539
f 540/540/540 543/543/543 542/542/542
f 540/540/540 544/544/544 543/543/543
f 540/540/540 545/545/545 544/544/544
f 540/540/540 546/546/546 545/545/545
f 540/540/540 547/547/547 546/546/546
f 540/540/540 548/548/548 547/547/547
f 540/540/540 549/549/549 548/548/548
f 549/549/549 550/550/550 548/548/548
f 549/549/549 551/551/551 550/550/550
f 549/549/549 552/552/552 551/551/551
f 549/549/549 553/553/553 552/552/552
f 553/553/553 554/554/554 552/552/552
f 555/555/555 554/554/554 553/553/553
f 555/555/555 553/553/553 556/556/556
f 557/557/557 555/555/555 556/556/556
f 557/557/557 556/556/556 558/558/558
f 558/558/558 556/556/556 559/559/559
f 556/556/556 560/560/560 559/559/559
f 560/560/560 561/561/561 559/559/559
f 560/560/560 562/562/562 561/561/561
f 562/562/562 563/563/563 561/561/561
f 563/563/563 562/562/562 564/564/564
f 562/562/562 565/565/565 564/564/564
f 565/565/565 566/566/566 564/564/564
f 566/566/566 567/567/567 564/564/564
f 566/566/566 568/568/568 567/567/567
f 566/566/566 569/569/569 568/568/568
f 569/569/569 570/570/570 568/568/568
f 571/571/571 570/570/570 569/569/569
f 571/571/571 569/569/569 572/572/572
f 569/569/569 573/573/573 572/572/572
f 572/572/572 573/573/573 574/574/574
f 573/573/573 575/575/575 574/574/574
f 573/573/573 576/576/576 575/575/575
f 576/576/576 577/577/577 575/575/575
f 576/576/576 578/578/578 577/577/577
f 578/578/578 576/576/576 579/579/579
f 579/579/579 576/576/576 580/580/580
f 580/580/580 576/576/576 581/581/581
f 582/582/582 580/580/580 581/581/581
f 582/582/582 581/581/581 583/583/583
