g geo_pillar_02_mesh
v -1.1700113 14.880027 -0.75015885
v -1.0932045 14.841624 -0.69255376
v -1.4004319 13.862336 -0.8653691
v -1.0932045 14.841624 0.6899688
v -1.1700113 14.880027 0.7283721
v -1.4196334 13.843135 0.8435824
v 0.69255376 14.841624 -1.0957894
v 0.8461674 13.862336 -1.4222184
v 0.75015885 14.880027 -1.1725963
v 0.8653691 13.843135 1.4004319
v 0.69255376 14.841624 1.0932045
v 0.73095715 14.880027 1.1700113
v -0.53635526 15.3792715 1.0548012
v -0.86278415 15.398473 0.86278415
v -0.7283721 15.916919 0.7283721
v -0.229128 15.897717 1.0163977
v -0.44034672 17.04982 0.44034672
v 0.0012924671 17.04982 0.61316204
v 0.0012924671 16.05133 1.0548012
v 0.23171294 15.897717 1.0163977
v 0.0012924671 17.875492 0.20992625
v -0.13311946 17.875492 0.13311946
v 0.0012924671 18.009903 -0.0012924671
v 0.1357044 17.875492 0.13311946
v 0.44293165 17.04982 0.44034672
v 0.73095715 15.916919 0.7283721
v 0.5389402 15.3792715 1.0548012
v 0.8461674 15.398473 0.86278415
v 0.73095715 14.880027 1.1700113
v 0.98057926 14.860826 0.97799444
v 1.0573862 15.3792715 0.5555568
v 1.1725963 14.880027 0.7283721
v -1.5540454 13.919942 0.97799444
v -1.2468181 14.918429 0.8051791
v -1.0548012 14.918429 1.0548012
v -0.97799444 13.919942 1.5540454
v -0.8051791 14.918429 1.2468181
v -1.3236251 13.420697 1.131608
v -1.131608 13.420697 1.3236251
v -0.86278415 15.398473 -0.8653691
v -0.5171535 15.3792715 -1.0765878
v -0.229128 15.897717 -1.0189826
v -0.7283721 15.916919 -0.73095715
v -0.44034672 17.04982 -0.44293165
v 0.0012924671 16.05133 -1.0573862
v 0.0012924671 17.04982 -0.615747
v -0.13311946 17.875492 -0.1357044
v 0.44293165 17.04982 -0.44293165
v 0.23171294 15.897717 -1.0189826
v 0.73095715 15.916919 -0.73095715
v 0.8461674 15.398473 -0.8653691
v 0.1357044 17.875492 -0.1357044
v 0.51973844 15.3792715 -1.0765878
v 0.0012924671 17.875492 -0.21251118
v 0.0012924671 18.009903 -0.0012924671
v 0.98057926 14.860826 -0.98057926
v 0.75015885 14.880027 -1.1725963
v 1.1533946 14.880027 -0.75015885
v 1.0765878 15.3792715 -0.5389402
v -0.97799444 13.919942 -1.5374286
v -0.8051791 14.918429 -1.2494031
v -1.0548012 14.918429 -1.0573862
v -1.5540454 13.919942 -0.98057926
v -1.2468181 14.918429 -0.80776393
v -1.131608 13.420697 -1.3262099
v -1.3236251 13.420697 -1.134193
v -0.97799444 14.860826 0.97799444
v -1.1700113 14.880027 0.7283721
v -1.0548012 15.3792715 0.5555568
v -0.86278415 15.398473 0.86278415
v -0.74757385 14.880027 1.1700113
v -0.53635526 15.3792715 1.0548012
v -1.0163977 15.897717 0.229128
v -0.7283721 15.916919 0.7283721
v -0.44034672 17.04982 0.44034672
v -1.0548012 16.05133 -0.0012924671
v -0.61316204 17.04982 -0.0012924671
v -0.13311946 17.875492 0.13311946
v -1.0163977 15.897717 -0.23171294
v -0.20992625 17.875492 -0.0012924671
v 0.0012924671 18.009903 -0.0012924671
v -0.13311946 17.875492 -0.1357044
v -0.44034672 17.04982 -0.44293165
v -0.7283721 15.916919 -0.73095715
v -1.0740027 15.3792715 -0.5389402
v -0.86278415 15.398473 -0.8653691
v -1.1700113 14.880027 -0.75015885
v -0.97799444 14.860826 -0.98057926
v -0.5171535 15.3792715 -1.0765878
v -0.74757385 14.880027 -1.1725963
v -0.97799444 14.860826 0.97799444
v -1.2468181 14.918429 0.8051791
v -1.1700113 14.880027 0.7283721
v -1.0548012 14.918429 1.0548012
v -0.74757385 14.880027 1.1700113
v -0.8051791 14.918429 1.2468181
v -1.1700113 14.880027 0.7283721
v -1.2468181 14.918429 0.8051791
v -1.5540454 13.919942 0.97799444
v -1.4196334 13.843135 0.8435824
v -0.86278415 13.843135 1.4004319
v -0.97799444 13.919942 1.5540454
v -0.8051791 14.918429 1.2468181
v -0.74757385 14.880027 1.1700113
v -0.6899688 14.841624 1.0932045
v -1.189213 13.382294 0.99719596
v -1.3236251 13.420697 1.131608
v -1.131608 13.420697 1.3236251
v -1.0163977 13.382294 1.1700113
v -1.0163977 13.382294 1.1700113
v -1.131608 13.420697 1.3236251
v -0.97799444 13.919942 1.5540454
v -0.86278415 13.843135 1.4004319
v -1.4196334 13.843135 0.8435824
v -1.5540454 13.919942 0.97799444
v -1.3236251 13.420697 1.131608
v -1.189213 13.382294 0.99719596
v -0.97799444 14.860826 -0.98057926
v -0.8051791 14.918429 -1.2494031
v -0.74757385 14.880027 -1.1725963
v -1.0548012 14.918429 -1.0573862
v -1.1700113 14.880027 -0.75015885
v -1.2468181 14.918429 -0.80776393
v -0.74757385 14.880027 -1.1725963
v -0.8051791 14.918429 -1.2494031
v -0.97799444 13.919942 -1.5374286
v -0.8435824 13.862336 -1.4222184
v -0.6899688 14.841624 -1.0957894
v -1.4004319 13.862336 -0.8653691
v -1.5540454 13.919942 -0.98057926
v -1.2468181 14.918429 -0.80776393
v -1.1700113 14.880027 -0.75015885
v -0.99719596 13.382294 -1.191798
v -1.131608 13.420697 -1.3262099
v -1.3236251 13.420697 -1.134193
v -1.1700113 13.382294 -1.0189826
v -1.1700113 13.382294 -1.0189826
v -1.3236251 13.420697 -1.134193
v -1.5540454 13.919942 -0.98057926
v -1.4004319 13.862336 -0.8653691
v -0.8435824 13.862336 -1.4222184
v -0.97799444 13.919942 -1.5374286
v -1.131608 13.420697 -1.3262099
v -0.99719596 13.382294 -1.191798
v -0.97799444 16.012928 -0.0012924671
v -0.9587927 15.859313 0.19072449
v 0.0012924671 16.416164 -0.0012924671
v -0.19072449 15.859313 0.93959093
v 0.0012924671 16.012928 0.97799444
v 0.19330955 15.859313 0.93959093
v 0.94217587 15.859313 0.19072449
v 0.96137756 16.012928 -0.0012924671
v -0.9587927 15.859313 -0.19330955
v -0.97799444 16.012928 -0.0012924671
v 0.0012924671 16.416164 -0.0012924671
v -0.19072449 15.859313 -0.94217587
v 0.0012924671 16.012928 -0.98057926
v 0.19330955 15.859313 -0.94217587
v 0.94217587 15.859313 -0.19330955
v 0.96137756 16.012928 -0.0012924671
v -0.99719596 15.360068 0.49795175
v -0.19072449 15.859313 0.93959093
v -0.9587927 15.859313 0.19072449
v -0.49795175 15.360068 0.97799444
v -1.0932045 14.841624 0.6899688
v -0.6899688 14.841624 1.0932045
v -0.47875 15.360068 -0.999781
v -0.9587927 15.859313 -0.19330955
v -0.19072449 15.859313 -0.94217587
v -0.99719596 15.360068 -0.48133504
v -0.6899688 14.841624 -1.0957894
v -1.0932045 14.841624 -0.69255376
v -0.53635526 15.3792715 1.0548012
v -0.6899688 14.841624 1.0932045
v -0.74757385 14.880027 1.1700113
v -0.49795175 15.360068 0.97799444
v -0.229128 15.897717 1.0163977
v -0.19072449 15.859313 0.93959093
v 0.0012924671 16.05133 1.0548012
v -0.19072449 15.859313 0.93959093
v -0.229128 15.897717 1.0163977
v 0.0012924671 16.012928 0.97799444
v 0.19330955 15.859313 0.93959093
v 0.23171294 15.897717 1.0163977
v -0.9587927 15.859313 0.19072449
v -1.0163977 15.897717 0.229128
v -1.0548012 15.3792715 0.5555568
v -0.99719596 15.360068 0.49795175
v -1.1700113 14.880027 0.7283721
v -1.0932045 14.841624 0.6899688
v -0.9587927 15.859313 -0.19330955
v -1.0163977 15.897717 -0.23171294
v -1.0548012 16.05133 -0.0012924671
v -0.97799444 16.012928 -0.0012924671
v -0.97799444 16.012928 -0.0012924671
v -1.0548012 16.05133 -0.0012924671
v -1.0163977 15.897717 0.229128
v -0.9587927 15.859313 0.19072449
v -0.99719596 15.360068 -0.48133504
v -1.0163977 15.897717 -0.23171294
v -0.9587927 15.859313 -0.19330955
v -1.0740027 15.3792715 -0.5389402
v -1.0932045 14.841624 -0.69255376
v -1.1700113 14.880027 -0.75015885
v -0.47875 15.360068 -0.999781
v -0.74757385 14.880027 -1.1725963
v -0.6899688 14.841624 -1.0957894
v -0.5171535 15.3792715 -1.0765878
v -0.19072449 15.859313 -0.94217587
v -0.229128 15.897717 -1.0189826
v 0.0012924671 16.012928 -0.98057926
v -0.229128 15.897717 -1.0189826
v -0.19072449 15.859313 -0.94217587
v 0.0012924671 16.05133 -1.0573862
v 0.23171294 15.897717 -1.0189826
v 0.19330955 15.859313 -0.94217587
v -0.6899688 14.841624 -1.0957894
v -1.4004319 13.862336 -0.8653691
v -1.0932045 14.841624 -0.69255376
v -0.8435824 13.862336 -1.4222184
v -0.99719596 13.382294 -1.191798
v -1.1700113 13.382294 -1.0189826
v -1.0932045 14.841624 0.6899688
v -0.86278415 13.843135 1.4004319
v -0.6899688 14.841624 1.0932045
v -1.4196334 13.843135 0.8435824
v -1.189213 13.382294 0.99719596
v -1.0163977 13.382294 1.1700113
v 1.0765878 15.3792715 -0.5389402
v 0.73095715 15.916919 -0.73095715
v 0.8461674 15.398473 -0.8653691
v 1.0189826 15.897717 -0.23171294
v 0.44293165 17.04982 -0.44293165
v 0.615747 17.04982 -0.0012924671
v 1.0573862 16.05133 -0.0012924671
v 0.21251118 17.875492 -0.0012924671
v 0.1357044 17.875492 -0.1357044
v 0.0012924671 18.009903 -0.0012924671
v 0.1357044 17.875492 0.13311946
v 0.44293165 17.04982 0.44034672
v 1.0189826 15.897717 0.229128
v 0.73095715 15.916919 0.7283721
v 0.8461674 15.398473 0.86278415
v 1.0573862 15.3792715 0.5555568
v 1.5566304 13.919942 0.97799444
v 1.0573862 14.918429 1.0548012
v 1.2494031 14.918429 0.8051791
v 0.98057926 13.919942 1.5540454
v 0.80776393 14.918429 1.2468181
v 1.3262099 13.420697 1.131608
v 1.134193 13.420697 1.3236251
v 0.98057926 13.919942 -1.5374286
v 1.0573862 14.918429 -1.0573862
v 0.80776393 14.918429 -1.2494031
v 1.5374286 13.919942 -0.98057926
v 1.2494031 14.918429 -0.80776393
v 1.134193 13.420697 -1.3262099
v 1.3262099 13.420697 -1.134193
v 0.98057926 14.860826 0.97799444
v 1.1725963 14.880027 0.7283721
v 1.2494031 14.918429 0.8051791
v 1.0573862 14.918429 1.0548012
v 0.73095715 14.880027 1.1700113
v 0.80776393 14.918429 1.2468181
v 1.1725963 14.880027 0.7283721
v 1.5566304 13.919942 0.97799444
v 1.2494031 14.918429 0.8051791
v 1.4222184 13.843135 0.8435824
v 1.0957894 14.841624 0.6899688
v 0.8653691 13.843135 1.4004319
v 0.73095715 14.880027 1.1700113
v 0.80776393 14.918429 1.2468181
v 0.98057926 13.919942 1.5540454
v 1.191798 13.382294 0.99719596
v 1.0189826 13.382294 1.1700113
v 1.134193 13.420697 1.3236251
v 1.3262099 13.420697 1.131608
v 1.0189826 13.382294 1.1700113
v 0.8653691 13.843135 1.4004319
v 0.98057926 13.919942 1.5540454
v 1.134193 13.420697 1.3236251
v 1.4222184 13.843135 0.8435824
v 1.191798 13.382294 0.99719596
v 1.3262099 13.420697 1.131608
v 1.5566304 13.919942 0.97799444
v 0.98057926 14.860826 -0.98057926
v 0.75015885 14.880027 -1.1725963
v 0.80776393 14.918429 -1.2494031
v 1.0573862 14.918429 -1.0573862
v 1.1533946 14.880027 -0.75015885
v 1.2494031 14.918429 -0.80776393
v 0.75015885 14.880027 -1.1725963
v 0.8461674 13.862336 -1.4222184
v 0.98057926 13.919942 -1.5374286
v 0.80776393 14.918429 -1.2494031
v 1.4030167 13.862336 -0.8653691
v 1.2494031 14.918429 -0.80776393
v 1.5374286 13.919942 -0.98057926
v 1.1533946 14.880027 -0.75015885
v 1.0957894 14.841624 -0.69255376
v 0.999781 13.382294 -1.191798
v 1.1725963 13.382294 -1.0189826
v 1.3262099 13.420697 -1.134193
v 1.134193 13.420697 -1.3262099
v 1.1725963 13.382294 -1.0189826
v 1.4030167 13.862336 -0.8653691
v 1.5374286 13.919942 -0.98057926
v 1.3262099 13.420697 -1.134193
v 0.8461674 13.862336 -1.4222184
v 0.999781 13.382294 -1.191798
v 1.134193 13.420697 -1.3262099
v 0.98057926 13.919942 -1.5374286
v 0.98057926 15.360068 0.49795175
v 0.94217587 15.859313 0.19072449
v 0.19330955 15.859313 0.93959093
v 0.48133504 15.360068 0.97799444
v 1.0957894 14.841624 0.6899688
v 0.69255376 14.841624 1.0932045
v 0.48133504 15.360068 -0.999781
v 0.19330955 15.859313 -0.94217587
v 0.94217587 15.859313 -0.19330955
v 0.999781 15.360068 -0.48133504
v 0.69255376 14.841624 -1.0957894
v 1.0957894 14.841624 -0.69255376
v 0.5389402 15.3792715 1.0548012
v 0.73095715 14.880027 1.1700113
v 0.69255376 14.841624 1.0932045
v 0.48133504 15.360068 0.97799444
v 0.23171294 15.897717 1.0163977
v 0.19330955 15.859313 0.93959093
v 0.94217587 15.859313 0.19072449
v 1.0573862 15.3792715 0.5555568
v 1.0189826 15.897717 0.229128
v 0.98057926 15.360068 0.49795175
v 1.1725963 14.880027 0.7283721
v 1.0957894 14.841624 0.6899688
v 0.94217587 15.859313 -0.19330955
v 0.96137756 16.012928 -0.0012924671
v 1.0573862 16.05133 -0.0012924671
v 1.0189826 15.897717 -0.23171294
v 0.96137756 16.012928 -0.0012924671
v 0.94217587 15.859313 0.19072449
v 1.0189826 15.897717 0.229128
v 1.0573862 16.05133 -0.0012924671
v 0.999781 15.360068 -0.48133504
v 0.94217587 15.859313 -0.19330955
v 1.0189826 15.897717 -0.23171294
v 1.0765878 15.3792715 -0.5389402
v 1.0957894 14.841624 -0.69255376
v 1.1533946 14.880027 -0.75015885
v 0.48133504 15.360068 -0.999781
v 0.69255376 14.841624 -1.0957894
v 0.75015885 14.880027 -1.1725963
v 0.51973844 15.3792715 -1.0765878
v 0.19330955 15.859313 -0.94217587
v 0.23171294 15.897717 -1.0189826
v 0.69255376 14.841624 -1.0957894
v 1.0957894 14.841624 -0.69255376
v 1.4030167 13.862336 -0.8653691
v 0.8461674 13.862336 -1.4222184
v 0.999781 13.382294 -1.191798
v 1.1725963 13.382294 -1.0189826
v 1.0957894 14.841624 0.6899688
v 0.69255376 14.841624 1.0932045
v 0.8653691 13.843135 1.4004319
v 1.4222184 13.843135 0.8435824
v 1.191798 13.382294 0.99719596
v 1.0189826 13.382294 1.1700113
v 0.5581418 -0.0012924671 -0.40452826
v 0.30851972 0.82438064 -0.8461674
v 0.21251118 -0.0012924671 -0.65415037
v 0.75015885 0.82438064 -0.51973844
v 0.3469231 1.650054 -1.0573862
v 0.9037725 1.650054 -0.65415037
v 0.3853265 2.28371 -1.1725963
v 0.999781 2.28371 -0.71175545
v -0.20992625 -0.0012924671 -0.65415037
v -0.6899688 0.82438064 -0.51973844
v -0.5555568 -0.0012924671 -0.40452826
v -0.24832964 0.82438064 -0.8461674
v 0.21251118 -0.0012924671 -0.65415037
v -0.9011874 1.650054 -0.65415037
v 0.30851972 0.82438064 -0.8461674
v -0.34433818 1.650054 -1.0573862
v -0.99719596 2.28371 -0.71175545
v 0.3469231 1.650054 -1.0573862
v -0.3827417 2.28371 -1.1725963
v 0.3853265 2.28371 -1.1725963
v -0.5555568 -0.0012924671 0.4019432
v -0.24832964 0.82438064 0.8435824
v -0.20992625 -0.0012924671 0.6515653
v -0.6899688 0.82438064 0.5171535
v -0.6899688 -0.0012924671 -0.0012924671
v -0.34433818 1.650054 1.0548012
v -0.86278415 0.82438064 -0.0012924671
v -0.5555568 -0.0012924671 -0.40452826
v -0.6899688 0.82438064 -0.51973844
v -0.9011874 1.650054 0.6515653
v -0.3827417 2.28371 1.1700113
v -0.99719596 2.28371 0.7283721
v -1.1124063 1.650054 -0.0012924671
v -0.9011874 1.650054 -0.65415037
v -1.2276165 2.28371 -0.0012924671
v -0.99719596 2.28371 -0.71175545
v 0.21251118 -0.0012924671 0.6515653
v 0.75015885 0.82438064 0.5171535
v 0.5581418 -0.0012924671 0.4019432
v 0.30851972 0.82438064 0.8435824
v -0.20992625 -0.0012924671 0.6515653
v 0.9037725 1.650054 0.6515653
v -0.24832964 0.82438064 0.8435824
v 0.3469231 1.650054 1.0548012
v 0.999781 2.28371 0.7283721
v -0.34433818 1.650054 1.0548012
v 0.3853265 2.28371 1.1700113
v -0.3827417 2.28371 1.1700113
v 0.69255376 -0.0012924671 -0.0012924671
v 0.75015885 0.82438064 -0.51973844
v 0.5581418 -0.0012924671 -0.40452826
v 0.92297417 0.82438064 -0.0012924671
v 0.5581418 -0.0012924671 0.4019432
v 0.9037725 1.650054 -0.65415037
v 0.75015885 0.82438064 0.5171535
v 1.1149912 1.650054 -0.0012924671
v 0.999781 2.28371 -0.71175545
v 0.9037725 1.650054 0.6515653
v 1.2302015 2.28371 -0.0012924671
v 0.999781 2.28371 0.7283721
v -0.49795175 13.190277 1.5540454
v 0.5005367 13.843135 1.5540454
v 0.5005367 13.190277 1.5540454
v -0.49795175 13.843135 1.5540454
v -1.3044233 13.190277 0.9587927
v -1.3236251 13.843135 0.9587927
v -1.6308522 13.190277 -0.0012924671
v -1.3236251 13.843135 0.9587927
v -1.3044233 13.190277 0.9587927
v -1.6308522 13.843135 -0.0012924671
v -1.3044233 13.190277 -0.96137756
v -1.3236251 13.843135 -0.96137756
v -0.49795175 13.190277 -1.5374286
v -0.49795175 13.843135 -1.5566304
v 0.5005367 13.190277 -1.5374286
v 0.5005367 13.843135 -1.5566304
v -0.49795175 13.843135 -1.5566304
v -0.49795175 13.190277 -1.5374286
v -0.4019432 11.404519 1.2660198
v 0.5005367 13.190277 1.5540454
v 0.40452826 11.404519 1.2660198
v -0.49795175 13.190277 1.5540454
v -1.0740027 11.404519 0.78597736
v -1.3044233 13.190277 0.9587927
v -1.3236251 11.404519 -0.0012924671
v -1.3044233 13.190277 0.9587927
v -1.0740027 11.404519 0.78597736
v -1.6308522 13.190277 -0.0012924671
v -1.0740027 11.404519 -0.78856224
v -1.3044233 13.190277 -0.96137756
v -0.4019432 11.404519 -1.2686048
v -0.49795175 13.190277 -1.5374286
v 0.40452826 11.404519 -1.2686048
v 0.5005367 13.190277 -1.5374286
v -0.49795175 13.190277 -1.5374286
v -0.4019432 11.404519 -1.2686048
v -0.44034672 2.3605168 1.3428266
v 0.44293165 3.397409 1.3428266
v 0.44293165 2.3605168 1.3428266
v -0.44034672 3.397409 1.3428266
v -1.131608 2.3605168 0.82438064
v -1.131608 3.397409 0.82438064
v -1.4004319 2.3605168 -0.0012924671
v -1.131608 3.397409 0.82438064
v -1.131608 2.3605168 0.82438064
v -1.4004319 3.397409 -0.0012924671
v -1.131608 2.3605168 -0.8269657
v -1.131608 3.397409 -0.8269657
v -0.44034672 2.3605168 -1.3262099
v -0.44034672 3.397409 -1.3262099
v 0.44293165 2.3605168 -1.3262099
v 0.44293165 3.397409 -1.3262099
v -0.44034672 3.397409 -1.3262099
v -0.44034672 2.3605168 -1.3262099
v -1.0740027 3.512619 0.78597736
v -1.0740027 11.404519 0.78597736
v -0.4019432 11.404519 1.2660198
v -0.42114496 3.512619 1.2660198
v 0.40452826 11.404519 1.2660198
v 0.40452826 3.512619 1.2660198
v 1.0765878 11.404519 0.78597736
v 1.0765878 3.512619 0.78597736
v -1.3236251 3.512619 -0.0012924671
v -1.0740027 11.404519 0.78597736
v -1.0740027 3.512619 0.78597736
v -1.3236251 11.404519 -0.0012924671
v -1.0740027 3.512619 -0.78856224
v -1.0740027 11.404519 -0.78856224
v -0.42114496 3.512619 -1.2686048
v -0.4019432 11.404519 -1.2686048
v 0.40452826 3.512619 -1.2686048
v 0.40452826 11.404519 -1.2686048
v -0.4019432 11.404519 -1.2686048
v -0.42114496 3.512619 -1.2686048
v 1.0765878 3.512619 -0.78856224
v 1.0765878 11.404519 -0.78856224
v 0.40452826 11.404519 -1.2686048
v 0.40452826 3.512619 -1.2686048
v 1.3262099 3.512619 -0.0012924671
v 1.0765878 11.404519 -0.78856224
v 1.0765878 3.512619 -0.78856224
v 1.3262099 11.404519 -0.0012924671
v 1.0765878 3.512619 0.78597736
v 1.0765878 11.404519 0.78597736
v -0.3827417 2.28371 1.1700113
v 0.44293165 2.3605168 1.3428266
v 0.3853265 2.28371 1.1700113
v -0.44034672 2.3605168 1.3428266
v -0.99719596 2.28371 0.7283721
v -1.131608 2.3605168 0.82438064
v -1.2276165 2.28371 -0.0012924671
v -1.4004319 2.3605168 -0.0012924671
v -0.99719596 2.28371 -0.71175545
v -1.131608 2.3605168 -0.8269657
v -0.3827417 2.28371 -1.1725963
v -0.44034672 2.3605168 -1.3262099
v 0.3853265 2.28371 -1.1725963
v 0.44293165 2.3605168 -1.3262099
v 0.40452826 3.512619 1.2660198
v 0.44293165 3.397409 1.3428266
v -0.44034672 3.397409 1.3428266
v -0.42114496 3.512619 1.2660198
v -1.131608 3.397409 0.82438064
v -1.0740027 3.512619 0.78597736
v -1.0740027 3.512619 0.78597736
v -1.131608 3.397409 0.82438064
v -1.4004319 3.397409 -0.0012924671
v -1.3236251 3.512619 -0.0012924671
v -1.131608 3.397409 -0.8269657
v -1.0740027 3.512619 -0.78856224
v -0.44034672 3.397409 -1.3262099
v -0.42114496 3.512619 -1.2686048
v -0.42114496 3.512619 -1.2686048
v -0.44034672 3.397409 -1.3262099
v 0.44293165 3.397409 -1.3262099
v 0.40452826 3.512619 -1.2686048
v 0.5005367 13.843135 -1.5566304
v 0.44293165 13.843135 -1.3454117
v -0.44034672 13.843135 -1.3454117
v -0.49795175 13.843135 -1.5566304
v -1.1508098 13.843135 -0.8461674
v -1.3236251 13.843135 -0.96137756
v -1.4196334 13.843135 -0.0012924671
v -1.6308522 13.843135 -0.0012924671
v -1.1508098 13.843135 0.8435824
v -1.3236251 13.843135 0.9587927
v -0.44034672 13.843135 1.3620284
v -0.49795175 13.843135 1.5540454
v 0.44293165 13.843135 1.3620284
v 0.5005367 13.843135 1.5540454
v 0.44293165 13.843135 -1.3454117
v 0.0012924671 12.09578 -0.0012924671
v -0.44034672 13.843135 -1.3454117
v -1.1508098 13.843135 -0.8461674
v -1.4196334 13.843135 -0.0012924671
v -1.1508098 13.843135 0.8435824
v -0.44034672 13.843135 1.3620284
v 0.44293165 13.843135 1.3620284
v 0.44293165 13.843135 -1.3454117
v 1.1533946 13.843135 -0.8461674
v 1.4222184 13.843135 -0.0012924671
v 1.1533946 13.843135 0.8435824
v 0.44293165 13.843135 1.3620284
v 1.134193 2.3605168 0.82438064
v 0.44293165 2.3605168 1.3428266
v 0.44293165 3.397409 1.3428266
v 1.134193 3.397409 0.82438064
v 1.4030167 2.3605168 -0.0012924671
v 1.134193 2.3605168 0.82438064
v 1.134193 3.397409 0.82438064
v 1.4030167 3.397409 -0.0012924671
v 1.134193 2.3605168 -0.8269657
v 1.134193 3.397409 -0.8269657
v 0.44293165 2.3605168 -1.3262099
v 1.134193 2.3605168 -0.8269657
v 1.134193 3.397409 -0.8269657
v 0.44293165 3.397409 -1.3262099
v 0.999781 2.28371 0.7283721
v 0.3853265 2.28371 1.1700113
v 0.44293165 2.3605168 1.3428266
v 1.134193 2.3605168 0.82438064
v 1.2302015 2.28371 -0.0012924671
v 1.4030167 2.3605168 -0.0012924671
v 0.999781 2.28371 -0.71175545
v 1.134193 2.3605168 -0.8269657
v 0.3853265 2.28371 -1.1725963
v 0.44293165 2.3605168 -1.3262099
v 0.40452826 3.512619 1.2660198
v 1.0765878 3.512619 0.78597736
v 1.134193 3.397409 0.82438064
v 0.44293165 3.397409 1.3428266
v 1.0765878 3.512619 0.78597736
v 1.4030167 3.397409 -0.0012924671
v 1.134193 3.397409 0.82438064
v 1.3262099 3.512619 -0.0012924671
v 1.134193 3.397409 -0.8269657
v 1.0765878 3.512619 -0.78856224
v 1.0765878 3.512619 -0.78856224
v 0.40452826 3.512619 -1.2686048
v 0.44293165 3.397409 -1.3262099
v 1.134193 3.397409 -0.8269657
v 1.3070083 13.190277 0.9587927
v 0.5005367 13.190277 1.5540454
v 0.5005367 13.843135 1.5540454
v 1.3262099 13.843135 0.9587927
v 1.6334372 13.190277 -0.0012924671
v 1.3070083 13.190277 0.9587927
v 1.3262099 13.843135 0.9587927
v 1.6334372 13.843135 -0.0012924671
v 1.3070083 13.190277 -0.96137756
v 1.3262099 13.843135 -0.96137756
v 0.5005367 13.190277 -1.5374286
v 1.3070083 13.190277 -0.96137756
v 1.3262099 13.843135 -0.96137756
v 0.5005367 13.843135 -1.5566304
v 1.0765878 11.404519 0.78597736
v 0.40452826 11.404519 1.2660198
v 0.5005367 13.190277 1.5540454
v 1.3070083 13.190277 0.9587927
v 1.3262099 11.404519 -0.0012924671
v 1.0765878 11.404519 0.78597736
v 1.3070083 13.190277 0.9587927
v 1.6334372 13.190277 -0.0012924671
v 1.0765878 11.404519 -0.78856224
v 1.3070083 13.190277 -0.96137756
v 0.40452826 11.404519 -1.2686048
v 1.0765878 11.404519 -0.78856224
v 1.3070083 13.190277 -0.96137756
v 0.5005367 13.190277 -1.5374286
v 0.5005367 13.843135 -1.5566304
v 1.1533946 13.843135 -0.8461674
v 0.44293165 13.843135 -1.3454117
v 1.3262099 13.843135 -0.96137756
v 1.4222184 13.843135 -0.0012924671
v 1.6334372 13.843135 -0.0012924671
v 1.1533946 13.843135 0.8435824
v 1.3262099 13.843135 0.9587927
v 0.44293165 13.843135 1.3620284
v 0.5005367 13.843135 1.5540454
vt 0.13228047 0.91043484
vt 0.13228047 0.9182164
vt 0.21787745 0.9182164
vt 0.6225177 0.7003332
vt 0.6225177 0.6925516
vt 0.5369207 0.69644237
vt 0.6108454 0.7586947
vt 0.6925516 0.7509132
vt 0.6108454 0.7664763
vt 0.1128266 0.96101487
vt 0.19453281 0.9726872
vt 0.19453281 0.98046875
vt 0.976578 0.56026536
vt 0.94934255 0.54859304
vt 0.9337795 0.59139156
vt 0.98046875 0.6108454
vt 0.9065441 0.68477005
vt 0.94156104 0.70422393
vt 0.99214107 0.63029927
vt 0.98046875 0.6108454
vt 0.89098096 0.7664763
vt 0.88319945 0.7586947
vt 0.87152714 0.77425784
vt 0.88319945 0.7586947
vt 0.9065441 0.68477005
vt 0.9337795 0.59139156
vt 0.976578 0.56026536
vt 0.94934255 0.54859304
vt 0.9843595 0.5135761
vt 0.96101487 0.5057946
vt 0.9182164 0.5408115
vt 0.93767023 0.5019038
vt 0.8014932 0.43965143
vt 0.79371166 0.35405445
vt 0.7664763 0.35794523
vt 0.73535013 0.43965143
vt 0.7392409 0.35405445
vt 0.7781486 0.48244992
vt 0.75480396 0.48244992
vt 0.78593016 0.54859304
vt 0.75480396 0.56026536
vt 0.75480396 0.6108454
vt 0.8014932 0.59139156
vt 0.8287286 0.68477005
vt 0.74702245 0.63029927
vt 0.7976025 0.70422393
vt 0.8598548 0.7586947
vt 0.8287286 0.68477005
vt 0.75480396 0.6108454
vt 0.8014932 0.59139156
vt 0.78593016 0.54859304
vt 0.8598548 0.7586947
vt 0.75480396 0.56026536
vt 0.8481825 0.7664763
vt 0.87152714 0.77425784
vt 0.77425784 0.5057946
vt 0.7509132 0.5174669
vt 0.7976025 0.5019038
vt 0.8209471 0.5408115
vt 0.9026533 0.52135766
vt 0.8948718 0.43576068
vt 0.8676364 0.43576068
vt 0.8365102 0.52135766
vt 0.84429175 0.43576068
vt 0.87930864 0.56026536
vt 0.85596406 0.56026536
vt 0.96101487 0.5057946
vt 0.93767023 0.5019038
vt 0.9182164 0.5408115
vt 0.94934255 0.54859304
vt 0.9843595 0.5135761
vt 0.976578 0.56026536
vt 0.89098096 0.57971925
vt 0.9337795 0.59139156
vt 0.9065441 0.68477005
vt 0.8676364 0.59139156
vt 0.8676364 0.6808793
vt 0.88319945 0.7586947
vt 0.8481825 0.57971925
vt 0.87152714 0.75480396
vt 0.87152714 0.77425784
vt 0.8598548 0.7586947
vt 0.8287286 0.68477005
vt 0.8014932 0.59139156
vt 0.8209471 0.5408115
vt 0.78593016 0.54859304
vt 0.7976025 0.5019038
vt 0.77425784 0.5057946
vt 0.75480396 0.56026536
vt 0.7509132 0.5174669
vt 0.77425784 0.74702245
vt 0.7664763 0.77425784
vt 0.7781486 0.770367
vt 0.7664763 0.74702245
vt 0.7781486 0.719787
vt 0.7664763 0.719787
vt 0.6225177 0.6925516
vt 0.6225177 0.6808793
vt 0.5369207 0.6808793
vt 0.5369207 0.69644237
vt 0.1128266 0.96101487
vt 0.10893583 0.98046875
vt 0.19064204 0.98825026
vt 0.19453281 0.98046875
vt 0.19453281 0.9726872
vt 0.054465022 0.9337795
vt 0.05057425 0.94934255
vt 0.07002811 0.9571241
vt 0.07391888 0.94156104
vt 0.07391888 0.94156104
vt 0.07002811 0.9571241
vt 0.10893583 0.98046875
vt 0.1128266 0.96101487
vt 0.5369207 0.69644237
vt 0.5369207 0.6808793
vt 0.49412224 0.6925516
vt 0.49801302 0.7081147
vt 0.976578 0.7392409
vt 0.9726872 0.7664763
vt 0.98046875 0.7664763
vt 0.96879643 0.7392409
vt 0.98046875 0.71589625
vt 0.9726872 0.71589625
vt 0.6108454 0.7664763
vt 0.6108454 0.77425784
vt 0.69644237 0.7664763
vt 0.6925516 0.7509132
vt 0.6108454 0.7586947
vt 0.21787745 0.9182164
vt 0.21787745 0.8987625
vt 0.13228047 0.8987625
vt 0.13228047 0.91043484
vt 0.276239 0.93767023
vt 0.2801298 0.92210716
vt 0.25678515 0.9182164
vt 0.25678515 0.9337795
vt 0.25678515 0.9337795
vt 0.25678515 0.9182164
vt 0.21787745 0.8987625
vt 0.21787745 0.9182164
vt 0.6925516 0.7509132
vt 0.69644237 0.7664763
vt 0.73535013 0.74702245
vt 0.7314593 0.7314593
vt 0.85596406 0.2918021
vt 0.84429175 0.2918021
vt 0.85596406 0.34238213
vt 0.805384 0.32681903
vt 0.805384 0.33849135
vt 0.805384 0.32681903
vt 0.84429175 0.2918021
vt 0.85596406 0.2918021
vt 0.43965143 0.94934255
vt 0.45132375 0.9571241
vt 0.49023148 0.92210716
vt 0.43965143 0.8987625
vt 0.44743297 0.8870902
vt 0.43965143 0.8987625
vt 0.43965143 0.94934255
vt 0.45132375 0.9571241
vt 0.8170563 0.276239
vt 0.805384 0.32681903
vt 0.84429175 0.2918021
vt 0.79371166 0.29958364
vt 0.7976025 0.26067594
vt 0.7781486 0.2801298
vt 0.41241604 0.9065441
vt 0.43965143 0.94934255
vt 0.43965143 0.8987625
vt 0.41241604 0.9454518
vt 0.38518062 0.9143256
vt 0.38518062 0.94156104
vt 0.2373313 0.98046875
vt 0.19453281 0.9726872
vt 0.19453281 0.98046875
vt 0.2373313 0.9726872
vt 0.28402054 0.96879643
vt 0.2801298 0.96101487
vt 0.30347443 0.96101487
vt 0.2801298 0.96101487
vt 0.28402054 0.96879643
vt 0.29958364 0.95323336
vt 0.2801298 0.96101487
vt 0.28402054 0.96879643
vt 0.7120055 0.69644237
vt 0.7120055 0.68866086
vt 0.6653162 0.6925516
vt 0.6653162 0.7003332
vt 0.6225177 0.6925516
vt 0.6225177 0.7003332
vt 0.038901933 0.9143256
vt 0.038901933 0.9065441
vt 0.015557302 0.9026533
vt 0.019448074 0.91043484
vt 0.7314593 0.7003332
vt 0.73535013 0.6925516
vt 0.7120055 0.68866086
vt 0.7120055 0.69644237
vt 0.0855912 0.9182164
vt 0.038901933 0.9065441
vt 0.038901933 0.9143256
vt 0.0855912 0.91043484
vt 0.13228047 0.9182164
vt 0.13228047 0.91043484
vt 0.5641561 0.75480396
vt 0.6108454 0.7664763
vt 0.6108454 0.7586947
vt 0.5641561 0.7625855
vt 0.52135766 0.74702245
vt 0.5174669 0.75480396
vt 0.5019038 0.74313164
vt 0.5174669 0.75480396
vt 0.52135766 0.74702245
vt 0.49801302 0.74702245
vt 0.5174669 0.75480396
vt 0.52135766 0.74702245
vt 0.38518062 0.9143256
vt 0.33070982 0.94934255
vt 0.38518062 0.94156104
vt 0.33070982 0.9065441
vt 0.30736518 0.92210716
vt 0.30736518 0.9337795
vt 0.7976025 0.26067594
vt 0.74313164 0.24511285
vt 0.7781486 0.2801298
vt 0.770367 0.21787745
vt 0.74313164 0.2100959
vt 0.73535013 0.21787745
vt 0.8209471 0.5408115
vt 0.8014932 0.59139156
vt 0.78593016 0.54859304
vt 0.8481825 0.57971925
vt 0.8287286 0.68477005
vt 0.8676364 0.6808793
vt 0.8676364 0.59139156
vt 0.87152714 0.75480396
vt 0.8598548 0.7586947
vt 0.87152714 0.77425784
vt 0.88319945 0.7586947
vt 0.9065441 0.68477005
vt 0.89098096 0.57971925
vt 0.9337795 0.59139156
vt 0.94934255 0.54859304
vt 0.9182164 0.5408115
vt 0.8014932 0.43965143
vt 0.7664763 0.35794523
vt 0.79371166 0.35405445
vt 0.73535013 0.43965143
vt 0.7392409 0.35405445
vt 0.7781486 0.48244992
vt 0.75480396 0.48244992
vt 0.9026533 0.52135766
vt 0.8676364 0.43576068
vt 0.8948718 0.43576068
vt 0.8365102 0.52135766
vt 0.84429175 0.43576068
vt 0.87930864 0.56026536
vt 0.85596406 0.56026536
vt 0.77425784 0.74702245
vt 0.7781486 0.770367
vt 0.7664763 0.77425784
vt 0.7664763 0.74702245
vt 0.7781486 0.719787
vt 0.7664763 0.719787
vt 0.6225177 0.6925516
vt 0.5369207 0.6808793
vt 0.6225177 0.6808793
vt 0.5369207 0.69644237
vt 0.6225177 0.7003332
vt 0.1128266 0.96101487
vt 0.19453281 0.98046875
vt 0.19064204 0.98825026
vt 0.10893583 0.98046875
vt 0.054465022 0.9337795
vt 0.07391888 0.94156104
vt 0.07002811 0.9571241
vt 0.05057425 0.94934255
vt 0.07391888 0.94156104
vt 0.1128266 0.96101487
vt 0.10893583 0.98046875
vt 0.07002811 0.9571241
vt 0.5369207 0.69644237
vt 0.49801302 0.7081147
vt 0.49412224 0.6925516
vt 0.5369207 0.6808793
vt 0.976578 0.7392409
vt 0.98046875 0.7664763
vt 0.9726872 0.7664763
vt 0.96879643 0.7392409
vt 0.98046875 0.71589625
vt 0.9726872 0.71589625
vt 0.6108454 0.7664763
vt 0.6925516 0.7509132
vt 0.69644237 0.7664763
vt 0.6108454 0.77425784
vt 0.21787745 0.9182164
vt 0.13228047 0.8987625
vt 0.21787745 0.8987625
vt 0.13228047 0.91043484
vt 0.13228047 0.9182164
vt 0.276239 0.93767023
vt 0.25678515 0.9337795
vt 0.25678515 0.9182164
vt 0.2801298 0.92210716
vt 0.25678515 0.9337795
vt 0.21787745 0.9182164
vt 0.21787745 0.8987625
vt 0.25678515 0.9182164
vt 0.6925516 0.7509132
vt 0.7314593 0.7314593
vt 0.73535013 0.74702245
vt 0.69644237 0.7664763
vt 0.8170563 0.276239
vt 0.84429175 0.2918021
vt 0.805384 0.32681903
vt 0.79371166 0.29958364
vt 0.7976025 0.26067594
vt 0.7781486 0.2801298
vt 0.41241604 0.9065441
vt 0.43965143 0.8987625
vt 0.43965143 0.94934255
vt 0.41241604 0.9454518
vt 0.38518062 0.9143256
vt 0.38518062 0.94156104
vt 0.2373313 0.98046875
vt 0.19453281 0.98046875
vt 0.19453281 0.9726872
vt 0.2373313 0.9726872
vt 0.28402054 0.96879643
vt 0.2801298 0.96101487
vt 0.7120055 0.69644237
vt 0.6653162 0.6925516
vt 0.7120055 0.68866086
vt 0.6653162 0.7003332
vt 0.6225177 0.6925516
vt 0.6225177 0.7003332
vt 0.038901933 0.9143256
vt 0.019448074 0.91043484
vt 0.015557302 0.9026533
vt 0.038901933 0.9065441
vt 0.7314593 0.7003332
vt 0.7120055 0.69644237
vt 0.7120055 0.68866086
vt 0.73535013 0.6925516
vt 0.0855912 0.9182164
vt 0.038901933 0.9143256
vt 0.038901933 0.9065441
vt 0.0855912 0.91043484
vt 0.13228047 0.9182164
vt 0.13228047 0.91043484
vt 0.5641561 0.75480396
vt 0.6108454 0.7586947
vt 0.6108454 0.7664763
vt 0.5641561 0.7625855
vt 0.52135766 0.74702245
vt 0.5174669 0.75480396
vt 0.38518062 0.9143256
vt 0.38518062 0.94156104
vt 0.33070982 0.94934255
vt 0.33070982 0.9065441
vt 0.30736518 0.92210716
vt 0.30736518 0.9337795
vt 0.7976025 0.26067594
vt 0.7781486 0.2801298
vt 0.74313164 0.24511285
vt 0.770367 0.21787745
vt 0.74313164 0.2100959
vt 0.73535013 0.21787745
vt 0.94156104 0.79371166
vt 0.98825026 0.87930864
vt 0.98825026 0.79371166
vt 0.94156104 0.87930864
vt 0.98825026 0.94156104
vt 0.94156104 0.94156104
vt 0.98825026 0.98825026
vt 0.94156104 0.98825026
vt 0.5563746 0.79371166
vt 0.60695463 0.87930864
vt 0.60695463 0.79371166
vt 0.5563746 0.87930864
vt 0.5057946 0.79371166
vt 0.60695463 0.94156104
vt 0.5057946 0.87930864
vt 0.5563746 0.94156104
vt 0.60695463 0.98825026
vt 0.5057946 0.94156104
vt 0.5563746 0.98825026
vt 0.5057946 0.98825026
vt 0.7003332 0.79371166
vt 0.7509132 0.87930864
vt 0.7509132 0.79371166
vt 0.7003332 0.87930864
vt 0.6536439 0.79371166
vt 0.7509132 0.94156104
vt 0.6536439 0.87930864
vt 0.60695463 0.79371166
vt 0.60695463 0.87930864
vt 0.7003332 0.94156104
vt 0.7509132 0.98825026
vt 0.7003332 0.98825026
vt 0.6536439 0.94156104
vt 0.60695463 0.94156104
vt 0.6536439 0.98825026
vt 0.60695463 0.98825026
vt 0.8014932 0.79371166
vt 0.8481825 0.87930864
vt 0.8481825 0.79371166
vt 0.8014932 0.87930864
vt 0.7509132 0.79371166
vt 0.8481825 0.94156104
vt 0.7509132 0.87930864
vt 0.8014932 0.94156104
vt 0.8481825 0.98825026
vt 0.7509132 0.94156104
vt 0.8014932 0.98825026
vt 0.7509132 0.98825026
vt 0.8987625 0.79371166
vt 0.94156104 0.87930864
vt 0.94156104 0.79371166
vt 0.8987625 0.87930864
vt 0.8481825 0.79371166
vt 0.94156104 0.94156104
vt 0.8481825 0.87930864
vt 0.8987625 0.94156104
vt 0.94156104 0.98825026
vt 0.8481825 0.94156104
vt 0.8987625 0.98825026
vt 0.8481825 0.98825026
vt 0.39685294 0.805384
vt 0.47855917 0.85207325
vt 0.47855917 0.7976025
vt 0.40074372 0.8598548
vt 0.3190375 0.8092748
vt 0.32292828 0.86374557
vt 0.24511285 0.8092748
vt 0.32292828 0.86374557
vt 0.3190375 0.8092748
vt 0.24511285 0.86374557
vt 0.16729741 0.8092748
vt 0.16729741 0.86374557
vt 0.08948197 0.805384
vt 0.08948197 0.8598548
vt 0.011666529 0.7976025
vt 0.0077757575 0.85207325
vt 0.08948197 0.8598548
vt 0.08948197 0.805384
vt 0.38128984 0.6614254
vt 0.47855917 0.7976025
vt 0.45132375 0.65753466
vt 0.39685294 0.805384
vt 0.31514674 0.6614254
vt 0.3190375 0.8092748
vt 0.24511285 0.6614254
vt 0.3190375 0.8092748
vt 0.31514674 0.6614254
vt 0.24511285 0.8092748
vt 0.17507896 0.6614254
vt 0.16729741 0.8092748
vt 0.10893583 0.6614254
vt 0.08948197 0.805384
vt 0.038901933 0.65753466
vt 0.011666529 0.7976025
vt 0.08948197 0.805384
vt 0.10893583 0.6614254
vt 0.89098096 0.077809654
vt 0.976578 0.011666529
vt 0.89098096 0.011666529
vt 0.976578 0.077809654
vt 0.89098096 0.14395277
vt 0.976578 0.14395277
vt 0.89098096 0.21398668
vt 0.976578 0.14395277
vt 0.89098096 0.14395277
vt 0.976578 0.21398668
vt 0.89098096 0.2801298
vt 0.976578 0.2801298
vt 0.89098096 0.34627292
vt 0.976578 0.34627292
vt 0.89098096 0.4163068
vt 0.976578 0.4163068
vt 0.976578 0.34627292
vt 0.89098096 0.34627292
vt 0.31125596 0.0077757575
vt 0.31514674 0.6614254
vt 0.38128984 0.6614254
vt 0.3773991 0.0077757575
vt 0.45132375 0.65753466
vt 0.44743297 0.0077757575
vt 0.5174669 0.65753466
vt 0.5135761 0.0077757575
vt 0.24511285 0.0077757575
vt 0.31514674 0.6614254
vt 0.31125596 0.0077757575
vt 0.24511285 0.6614254
vt 0.17507896 0.0077757575
vt 0.17507896 0.6614254
vt 0.10893583 0.011666529
vt 0.10893583 0.6614254
vt 0.042792708 0.011666529
vt 0.038901933 0.65753466
vt 0.10893583 0.6614254
vt 0.10893583 0.011666529
vt 0.6497531 0.0077757575
vt 0.6497531 0.65753466
vt 0.719787 0.65753466
vt 0.71589625 0.0077757575
vt 0.58361 0.0077757575
vt 0.6497531 0.65753466
vt 0.6497531 0.0077757575
vt 0.58361 0.65753466
vt 0.5135761 0.0077757575
vt 0.5174669 0.65753466
vt 0.8754179 0.077809654
vt 0.89098096 0.011666529
vt 0.8754179 0.011666529
vt 0.89098096 0.077809654
vt 0.8754179 0.14395277
vt 0.89098096 0.14395277
vt 0.8754179 0.2100959
vt 0.89098096 0.21398668
vt 0.8754179 0.2801298
vt 0.89098096 0.2801298
vt 0.8754179 0.34627292
vt 0.89098096 0.34627292
vt 0.8754179 0.4163068
vt 0.89098096 0.4163068
vt 0.99214107 0.011666529
vt 0.976578 0.011666529
vt 0.976578 0.077809654
vt 0.99214107 0.077809654
vt 0.976578 0.14395277
vt 0.99214107 0.14395277
vt 0.99214107 0.14395277
vt 0.976578 0.14395277
vt 0.976578 0.21398668
vt 0.99214107 0.2100959
vt 0.976578 0.2801298
vt 0.99214107 0.2801298
vt 0.976578 0.34627292
vt 0.99214107 0.34627292
vt 0.99214107 0.34627292
vt 0.976578 0.34627292
vt 0.976578 0.4163068
vt 0.99214107 0.4163068
vt 0.0077757575 0.85207325
vt 0.015557302 0.87152714
vt 0.08948197 0.8754179
vt 0.08948197 0.8598548
vt 0.16729741 0.87930864
vt 0.16729741 0.86374557
vt 0.24511285 0.87930864
vt 0.24511285 0.86374557
vt 0.32292828 0.87930864
vt 0.32292828 0.86374557
vt 0.40074372 0.8754179
vt 0.40074372 0.8598548
vt 0.47466838 0.8676364
vt 0.47855917 0.85207325
vt 0.770367 0.011666529
vt 0.73535013 0.12060814
vt 0.8092748 0.03112039
vt 0.8365102 0.066137336
vt 0.85207325 0.10893583
vt 0.8481825 0.15173432
vt 0.82483786 0.19453281
vt 0.79371166 0.22176822
vt 0.8092748 0.03112039
vt 0.8365102 0.066137336
vt 0.85207325 0.10893583
vt 0.8481825 0.15173432
vt 0.82483786 0.19453281
vt 0.89098096 0.14395277
vt 0.89098096 0.077809654
vt 0.976578 0.077809654
vt 0.976578 0.14395277
vt 0.89098096 0.21398668
vt 0.89098096 0.14395277
vt 0.976578 0.14395277
vt 0.976578 0.21398668
vt 0.89098096 0.2801298
vt 0.976578 0.2801298
vt 0.89098096 0.34627292
vt 0.89098096 0.2801298
vt 0.976578 0.2801298
vt 0.976578 0.34627292
vt 0.8754179 0.14395277
vt 0.8754179 0.077809654
vt 0.89098096 0.077809654
vt 0.89098096 0.14395277
vt 0.8754179 0.2100959
vt 0.89098096 0.21398668
vt 0.8754179 0.2801298
vt 0.89098096 0.2801298
vt 0.8754179 0.34627292
vt 0.89098096 0.34627292
vt 0.99214107 0.077809654
vt 0.99214107 0.14395277
vt 0.976578 0.14395277
vt 0.976578 0.077809654
vt 0.99214107 0.14395277
vt 0.976578 0.21398668
vt 0.976578 0.14395277
vt 0.99214107 0.2100959
vt 0.976578 0.2801298
vt 0.99214107 0.2801298
vt 0.99214107 0.2801298
vt 0.99214107 0.34627292
vt 0.976578 0.34627292
vt 0.976578 0.2801298
vt 0.3190375 0.8092748
vt 0.39685294 0.805384
vt 0.40074372 0.8598548
vt 0.32292828 0.86374557
vt 0.24511285 0.8092748
vt 0.3190375 0.8092748
vt 0.32292828 0.86374557
vt 0.24511285 0.86374557
vt 0.16729741 0.8092748
vt 0.16729741 0.86374557
vt 0.08948197 0.805384
vt 0.16729741 0.8092748
vt 0.16729741 0.86374557
vt 0.08948197 0.8598548
vt 0.31514674 0.6614254
vt 0.38128984 0.6614254
vt 0.39685294 0.805384
vt 0.3190375 0.8092748
vt 0.24511285 0.6614254
vt 0.31514674 0.6614254
vt 0.3190375 0.8092748
vt 0.24511285 0.8092748
vt 0.17507896 0.6614254
vt 0.16729741 0.8092748
vt 0.10893583 0.6614254
vt 0.17507896 0.6614254
vt 0.16729741 0.8092748
vt 0.08948197 0.805384
vt 0.08948197 0.8598548
vt 0.16729741 0.87930864
vt 0.08948197 0.8754179
vt 0.16729741 0.86374557
vt 0.24511285 0.87930864
vt 0.24511285 0.86374557
vt 0.32292828 0.87930864
vt 0.32292828 0.86374557
vt 0.40074372 0.8754179
vt 0.40074372 0.8598548
vn -0.5872276 0.047613025 0.8080203
vn -0.5554856 0.015871048 0.8313747
vn -0.5872276 0.047613025 0.8080203
vn -0.5554856 0.047613025 -0.83016187
vn -0.6189697 0.07935512 -0.78139573
vn -0.6189697 0.07935512 -0.78139573
vn -0.8411639 0.047613025 -0.5386802
vn -0.7776798 0.07935512 -0.623632
vn -0.7776798 0.07935512 -0.623632
vn -0.8094218 0.047613025 0.5852943
vn -0.8411639 0.015871048 0.5405474
vn -0.8094218 0.047613025 0.5852943
vn -0.5237435 0.3332913 0.7839704
vn -0.65071166 0.3332913 0.68226916
vn -0.65071166 0.3332913 0.68226916
vn -0.42851746 0.3332913 0.83981526
vn -0.65071166 0.39677536 0.647413
vn -0.015871048 0.42851746 0.9033941
vn -0.015871048 0.39677536 0.9177785
vn 0.4285174 0.3332913 0.8398153
vn -0.015871048 0.68245375 0.73075646
vn -0.5237435 0.68245375 0.5098525
vn -0.015871048 0.999874 -0.00034526698
vn 0.5237435 0.68245375 0.5098525
vn 0.65071166 0.39677536 0.647413
vn 0.65071166 0.3332913 0.68226916
vn 0.5237435 0.3332913 0.7839704
vn 0.65071166 0.3332913 0.68226916
vn 0.5237435 0.3332913 0.7839704
vn 0.65071166 0.3332913 0.68226916
vn 0.7776798 0.3332913 0.53303945
vn 0.7776798 0.3332913 0.53303945
vn -0.7141957 0.17458117 0.6778244
vn -0.7459378 0.3332913 0.5766226
vn -0.68245375 0.30154932 0.6658265
vn -0.65071166 0.17458117 0.7389829
vn -0.5872276 0.3332913 0.73761827
vn -0.7141957 -0.1110971 0.691073
vn -0.7141957 -0.1110971 0.691073
vn -0.65071166 0.3332913 -0.68226916
vn -0.5237435 0.3332913 -0.7839704
vn -0.42851746 0.3332913 -0.83981526
vn -0.65071166 0.3332913 -0.68226916
vn -0.65071166 0.39677536 -0.647413
vn -0.015871048 0.39677536 -0.9177785
vn -0.015871048 0.42851746 -0.9033941
vn -0.5237435 0.68245375 -0.5098525
vn 0.65071166 0.39677536 -0.647413
vn 0.4285174 0.3332913 -0.8398153
vn 0.65071166 0.3332913 -0.68226916
vn 0.65071166 0.3332913 -0.68226916
vn 0.5237435 0.68245375 -0.5098525
vn 0.5237435 0.3332913 -0.7839704
vn -0.015871048 0.68245375 -0.73075646
vn -0.015871048 0.999874 -0.00034526698
vn 0.65071166 0.3332913 -0.68226916
vn 0.5237435 0.3332913 -0.7839704
vn 0.7776798 0.3332913 -0.53303945
vn 0.7776798 0.3332913 -0.53303945
vn -0.65071166 0.17458117 -0.7389829
vn -0.5872276 0.3332913 -0.73761827
vn -0.68245375 0.30154932 -0.6658265
vn -0.7141957 0.17458117 -0.6778244
vn -0.7459378 0.3332913 -0.5766226
vn -0.7141957 -0.1110971 -0.691073
vn -0.7141957 -0.1110971 -0.691073
vn -0.65071166 0.3332913 0.68226916
vn -0.7776798 0.3332913 0.53303945
vn -0.7776798 0.3332913 0.53303945
vn -0.65071166 0.3332913 0.68226916
vn -0.5237435 0.3332913 0.7839704
vn -0.5237435 0.3332913 0.7839704
vn -0.8094218 0.3332913 0.48348042
vn -0.65071166 0.3332913 0.68226916
vn -0.65071166 0.39677536 0.647413
vn -0.90464795 0.39677536 -0.15550363
vn -0.9037378 0.42808634 -0
vn -0.5237435 0.68245375 0.5098525
vn -0.8094218 0.3650334 -0.4599859
vn -0.7378054 0.6750134 -0
vn -0.015871048 0.999874 -0.00034526698
vn -0.5237435 0.68245375 -0.5098525
vn -0.65071166 0.39677536 -0.647413
vn -0.65071166 0.3332913 -0.68226916
vn -0.7776798 0.3332913 -0.53303945
vn -0.65071166 0.3332913 -0.68226916
vn -0.7776798 0.3332913 -0.53303945
vn -0.65071166 0.3332913 -0.68226916
vn -0.5237435 0.3332913 -0.7839704
vn -0.5237435 0.3332913 -0.7839704
vn 0.26980728 0.9363899 -0.22445023
vn 0.33329135 0.9363899 -0.10995791
vn 0.33329135 0.9363899 -0.10995791
vn 0.26980728 0.9363899 -0.22445023
vn 0.2063232 0.9363899 -0.28390953
vn 0.2063232 0.9363899 -0.28390953
vn -0.6189697 0.07935512 -0.78139573
vn -0.68245375 0.07935512 -0.72660834
vn -0.68245375 0.07935512 -0.72660834
vn -0.6189697 0.07935512 -0.78139573
vn 0.8094218 0.047613025 0.5852943
vn 0.8094218 0.047613025 0.5852943
vn 0.8094218 0.047613025 0.5852943
vn 0.8094218 0.047613025 0.5852943
vn 0.8411638 0.015871048 0.5405475
vn -0.1428392 -0.96813196 0.2057122
vn -0.1428392 -0.96813196 0.2057122
vn -0.1428392 -0.96813196 0.2057122
vn -0.1428392 -0.96813196 0.2057122
vn 0.5872276 -0.49200147 0.64272726
vn 0.5872276 -0.49200147 0.64272726
vn 0.5872276 -0.49200147 0.64272726
vn 0.5872276 -0.49200147 0.64272726
vn -0.7459378 -0.49200147 -0.4489001
vn -0.7459378 -0.49200147 -0.4489001
vn -0.7459378 -0.49200147 -0.4489001
vn -0.7459378 -0.49200147 -0.4489001
vn 0.26980728 0.9363899 0.22445023
vn 0.2063232 0.9363899 0.28390953
vn 0.2063232 0.9363899 0.28390953
vn 0.26980728 0.9363899 0.22445023
vn 0.33329135 0.9363899 0.10995791
vn 0.33329135 0.9363899 0.10995791
vn 0.7776798 0.07935512 -0.623632
vn 0.7459377 0.07935512 -0.6612713
vn 0.7459377 0.07935512 -0.6612713
vn 0.7776798 0.07935512 -0.623632
vn 0.8411638 0.047613025 -0.5386803
vn -0.5872276 0.047613025 0.8080203
vn -0.6189697 0.047613025 0.78397036
vn -0.6189697 0.047613025 0.78397036
vn -0.5872276 0.047613025 0.8080203
vn -0.1428392 -0.96813196 -0.2057122
vn -0.1428392 -0.96813196 -0.2057122
vn -0.1428392 -0.96813196 -0.2057122
vn -0.1428392 -0.96813196 -0.2057122
vn -0.65071166 -0.49200147 0.5783674
vn -0.65071166 -0.49200147 0.5783674
vn -0.65071166 -0.49200147 0.5783674
vn -0.65071166 -0.49200147 0.5783674
vn 0.49200147 -0.49200147 -0.7182403
vn 0.49200147 -0.49200147 -0.7182403
vn 0.49200147 -0.49200147 -0.7182403
vn 0.49200147 -0.49200147 -0.7182403
vn 0.36320817 -0.931708 -0
vn 0.46025944 -0.68245363 -0.56781894
vn -0.015871048 -0.999874 -0.00034526698
vn 0.5872276 -0.68245363 -0.435225
vn -0.015871048 -0.9363899 -0.35060233
vn -0.5872276 -0.68245363 -0.435225
vn -0.46025944 -0.68245363 -0.56781894
vn -0.36320823 -0.931708 -0
vn 0.46025944 -0.68245363 0.56781894
vn 0.36320817 -0.931708 -0
vn -0.015871048 -0.999874 -0.00034526698
vn 0.5872276 -0.68245363 0.435225
vn -0.015871048 -0.9363899 0.35060233
vn -0.5872276 -0.68245363 0.435225
vn -0.46025944 -0.68245363 0.56781894
vn -0.36320823 -0.931708 -0
vn 0.65071166 -0.39677536 -0.647413
vn 0.5872276 -0.68245363 -0.435225
vn 0.46025944 -0.68245363 -0.56781894
vn 0.65071166 -0.39677536 -0.647413
vn 0.65071166 -0.39677536 -0.647413
vn 0.65071166 -0.39677536 -0.647413
vn 0.65071166 -0.39677536 0.647413
vn 0.46025944 -0.68245363 0.56781894
vn 0.5872276 -0.68245363 0.435225
vn 0.65071166 -0.39677536 0.647413
vn 0.65071166 -0.39677536 0.647413
vn 0.65071166 -0.39677536 0.647413
vn 0.7459377 -0.26980728 0.6089179
vn 0.7776798 -0.17458117 0.6039334
vn 0.7776798 -0.17458117 0.6039334
vn 0.7459377 -0.26980728 0.6089179
vn 0.6189696 -0.55548555 0.55525887
vn 0.6189696 -0.55548555 0.55525887
vn -0.015871048 -0.8411638 0.5405475
vn 0.6189696 -0.55548555 0.55525887
vn 0.6189696 -0.55548555 0.55525887
vn -0.015871048 -0.8411638 0.5405475
vn -0.6189697 -0.55548555 0.5552588
vn -0.6189697 -0.55548555 0.5552588
vn -0.5554856 -0.55548555 -0.6187662
vn -0.5554856 -0.55548555 -0.6187662
vn -0.6189697 -0.26980728 -0.73761815
vn -0.6189697 -0.26980728 -0.73761815
vn -0.6189697 -0.17458117 -0.76576626
vn -0.6189697 -0.17458117 -0.76576626
vn -0.5554856 -0.55548555 0.6187662
vn -0.5554856 -0.55548555 0.6187662
vn -0.55106163 -0.8344646 -0
vn -0.55106163 -0.8344646 -0
vn -0.55106163 -0.8344646 -0
vn -0.55106163 -0.8344646 -0
vn -0.5554856 -0.55548555 -0.6187662
vn -0.5554856 -0.55548555 -0.6187662
vn -0.6189697 -0.26980728 0.73761815
vn -0.5554856 -0.55548555 0.6187662
vn -0.5554856 -0.55548555 0.6187662
vn -0.6189697 -0.26980728 0.73761815
vn -0.6189697 -0.2063232 0.7578306
vn -0.6189697 -0.2063232 0.7578306
vn 0.7459377 -0.30154932 -0.59383917
vn 0.7459377 -0.23806524 -0.62201434
vn 0.7459377 -0.23806524 -0.62201434
vn 0.7459377 -0.30154932 -0.59383917
vn 0.6189696 -0.55548555 -0.55525887
vn 0.6189696 -0.55548555 -0.55525887
vn -0.015871048 -0.8411638 -0.5405475
vn 0.6189696 -0.55548555 -0.55525887
vn 0.6189696 -0.55548555 -0.55525887
vn -0.015871048 -0.8411638 -0.5405475
vn -0.6189697 -0.55548555 -0.5552588
vn -0.6189697 -0.55548555 -0.5552588
vn 0.68245363 -0.33329135 0.6505182
vn 0.7141957 -0.1110971 0.691073
vn 0.68245363 -0.33329135 0.6505182
vn 0.7141957 -0.1110971 0.691073
vn 0.7141957 0.1110971 0.691073
vn 0.7141957 0.1110971 0.691073
vn 0.68245363 -0.33329135 -0.6505182
vn 0.7141957 -0.1110971 -0.691073
vn 0.68245363 -0.33329135 -0.6505182
vn 0.7141957 -0.1110971 -0.691073
vn 0.7141957 0.1110971 -0.691073
vn 0.7141957 0.1110971 -0.691073
vn 0.7776798 0.3332913 -0.53303945
vn 0.65071166 0.3332913 -0.68226916
vn 0.65071166 0.3332913 -0.68226916
vn 0.8094218 0.3650334 -0.4599859
vn 0.65071166 0.39677536 -0.647413
vn 0.90373784 0.4280864 -0
vn 0.9046479 0.39677536 -0.15550402
vn 0.73780537 0.67501354 -0
vn 0.5237435 0.68245375 -0.5098525
vn -0.015871048 0.999874 -0.00034526698
vn 0.5237435 0.68245375 0.5098525
vn 0.65071166 0.39677536 0.647413
vn 0.8094218 0.3332913 0.48348042
vn 0.65071166 0.3332913 0.68226916
vn 0.65071166 0.3332913 0.68226916
vn 0.7776798 0.3332913 0.53303945
vn 0.7141957 0.17458117 0.6778244
vn 0.68245363 0.30154932 0.6658266
vn 0.7459377 0.3332913 0.5766228
vn 0.65071166 0.17458117 0.7389829
vn 0.5872276 0.3332913 0.73761827
vn 0.7141957 -0.1110971 0.691073
vn 0.7141957 -0.1110971 0.691073
vn 0.65071166 0.17458117 -0.7389829
vn 0.68245363 0.30154932 -0.6658266
vn 0.5872276 0.3332913 -0.73761827
vn 0.7141957 0.17458117 -0.6778244
vn 0.7459377 0.3332913 -0.5766228
vn 0.7141957 -0.1110971 -0.691073
vn 0.7141957 -0.1110971 -0.691073
vn -0.26980734 0.9363899 -0.22445023
vn -0.3332913 0.9363899 -0.10995819
vn -0.3332913 0.9363899 -0.10995819
vn -0.26980734 0.9363899 -0.22445023
vn -0.20632327 0.9363899 -0.28390953
vn -0.20632327 0.9363899 -0.28390953
vn 0.6189696 0.07935512 -0.7813958
vn 0.68245363 0.07935512 -0.72660846
vn 0.68245363 0.07935512 -0.72660846
vn 0.6189696 0.07935512 -0.7813958
vn 0.55548555 0.047613025 -0.8301619
vn -0.8094218 0.047613025 0.5852943
vn -0.8094218 0.047613025 0.5852943
vn -0.8094218 0.047613025 0.5852943
vn -0.8094218 0.047613025 0.5852943
vn 0.14283913 -0.96813196 0.2057122
vn 0.14283913 -0.96813196 0.2057122
vn 0.14283913 -0.96813196 0.2057122
vn 0.14283913 -0.96813196 0.2057122
vn -0.5872276 -0.49200147 0.64272726
vn -0.5872276 -0.49200147 0.64272726
vn -0.5872276 -0.49200147 0.64272726
vn -0.5872276 -0.49200147 0.64272726
vn 0.7459377 -0.49200147 -0.4489003
vn 0.7459377 -0.49200147 -0.4489003
vn 0.7459377 -0.49200147 -0.4489003
vn 0.7459377 -0.49200147 -0.4489003
vn -0.26980734 0.9363899 0.22445023
vn -0.20632327 0.9363899 0.28390953
vn -0.20632327 0.9363899 0.28390953
vn -0.26980734 0.9363899 0.22445023
vn -0.3332913 0.9363899 0.10995819
vn -0.3332913 0.9363899 0.10995819
vn -0.7776798 0.07935512 -0.623632
vn -0.7776798 0.07935512 -0.623632
vn -0.7459378 0.07935512 -0.66127115
vn -0.7459378 0.07935512 -0.66127115
vn 0.5872276 0.047613025 0.8080203
vn 0.6189696 0.047613025 0.7839704
vn 0.6189696 0.047613025 0.7839704
vn 0.5872276 0.047613025 0.8080203
vn 0.55548555 0.015871048 0.8313747
vn 0.14283913 -0.96813196 -0.2057122
vn 0.14283913 -0.96813196 -0.2057122
vn 0.14283913 -0.96813196 -0.2057122
vn 0.14283913 -0.96813196 -0.2057122
vn 0.65071166 -0.49200147 0.5783674
vn 0.65071166 -0.49200147 0.5783674
vn 0.65071166 -0.49200147 0.5783674
vn 0.65071166 -0.49200147 0.5783674
vn -0.49200153 -0.49200147 -0.71824026
vn -0.49200153 -0.49200147 -0.71824026
vn -0.49200153 -0.49200147 -0.71824026
vn -0.49200153 -0.49200147 -0.71824026
vn -0.65071166 -0.39677536 -0.647413
vn -0.46025944 -0.68245363 -0.56781894
vn -0.5872276 -0.68245363 -0.435225
vn -0.65071166 -0.39677536 -0.647413
vn -0.65071166 -0.39677536 -0.647413
vn -0.65071166 -0.39677536 -0.647413
vn -0.65071166 -0.39677536 0.647413
vn -0.5872276 -0.68245363 0.435225
vn -0.46025944 -0.68245363 0.56781894
vn -0.65071166 -0.39677536 0.647413
vn -0.65071166 -0.39677536 0.647413
vn -0.65071166 -0.39677536 0.647413
vn -0.7459378 -0.26980728 0.6089177
vn -0.7776798 -0.17458117 0.6039334
vn -0.7776798 -0.17458117 0.6039334
vn -0.7459378 -0.26980728 0.6089177
vn -0.6189697 -0.55548555 0.5552588
vn -0.6189697 -0.55548555 0.5552588
vn 0.55548555 -0.55548555 -0.6187662
vn 0.6189696 -0.26980728 -0.7376182
vn 0.55548555 -0.55548555 -0.6187662
vn 0.6189696 -0.26980728 -0.7376182
vn 0.6189696 -0.17458117 -0.76576626
vn 0.6189696 -0.17458117 -0.76576626
vn 0.55548555 -0.55548555 0.6187662
vn 0.5510616 -0.8344646 -0
vn 0.5510616 -0.8344646 -0
vn 0.55548555 -0.55548555 0.6187662
vn 0.5510616 -0.8344646 -0
vn 0.55548555 -0.55548555 -0.6187662
vn 0.55548555 -0.55548555 -0.6187662
vn 0.5510616 -0.8344646 -0
vn 0.6189696 -0.26980728 0.7376182
vn 0.55548555 -0.55548555 0.6187662
vn 0.55548555 -0.55548555 0.6187662
vn 0.6189696 -0.26980728 0.7376182
vn 0.6189696 -0.2063232 0.7578307
vn 0.6189696 -0.2063232 0.7578307
vn -0.7459378 -0.30154932 -0.593839
vn -0.7459378 -0.23806524 -0.6220142
vn -0.7459378 -0.23806524 -0.6220142
vn -0.7459378 -0.30154932 -0.593839
vn -0.6189697 -0.55548555 -0.5552588
vn -0.6189697 -0.55548555 -0.5552588
vn -0.68245375 -0.33329135 0.65051806
vn -0.68245375 -0.33329135 0.65051806
vn -0.7141957 -0.1110971 0.691073
vn -0.7141957 -0.1110971 0.691073
vn -0.7141957 0.1110971 0.691073
vn -0.7141957 0.1110971 0.691073
vn -0.68245375 -0.33329135 -0.65051806
vn -0.68245375 -0.33329135 -0.65051806
vn -0.7141957 -0.1110971 -0.691073
vn -0.7141957 -0.1110971 -0.691073
vn -0.7141957 0.1110971 -0.691073
vn -0.7141957 0.1110971 -0.691073
vn 0.7776798 -0.26980728 -0.5678188
vn 0.30154932 -0.26980728 -0.9144791
vn 0.30154932 -0.23806524 -0.9232513
vn 0.7776798 -0.26980728 -0.5678188
vn 0.30154932 -0.2063232 -0.93085915
vn 0.7776798 -0.2063232 -0.5938391
vn 0.30154932 -0.17458117 -0.937331
vn 0.8094218 -0.17458117 -0.5606762
vn -0.30154932 -0.23806524 -0.9232513
vn -0.7776798 -0.26980728 -0.5678188
vn -0.7776798 -0.2063232 -0.5938391
vn -0.30154932 -0.26980728 -0.9144791
vn 0.30154932 -0.23806524 -0.9232513
vn -0.7776798 -0.23806524 -0.5818411
vn 0.30154932 -0.26980728 -0.9144791
vn -0.30154932 -0.23806524 -0.9232513
vn -0.8094218 -0.17458117 -0.5606762
vn 0.30154932 -0.2063232 -0.93085915
vn -0.30154932 -0.17458117 -0.937331
vn 0.30154932 -0.17458117 -0.937331
vn -0.7776798 -0.2063232 0.5938391
vn -0.30154932 -0.26980728 0.9144791
vn -0.30154932 -0.23806524 0.9232513
vn -0.7776798 -0.26980728 0.5678188
vn -0.968132 -0.2063232 -0.14195476
vn -0.30154932 -0.23806524 0.9232513
vn -0.96329135 -0.26845825 -0
vn -0.7776798 -0.2063232 -0.5938391
vn -0.7776798 -0.26980728 -0.5678188
vn -0.7776798 -0.23806524 0.5818411
vn -0.30154932 -0.17458117 0.937331
vn -0.8094218 -0.17458117 0.5606762
vn -0.968132 -0.23806524 -0.07775189
vn -0.7776798 -0.23806524 -0.5818411
vn -0.9850967 -0.172001 -0
vn -0.8094218 -0.17458117 -0.5606762
vn 0.30154932 -0.23806524 0.9232513
vn 0.7776798 -0.26980728 0.5678188
vn 0.7776798 -0.26980728 0.5678188
vn 0.30154932 -0.26980728 0.9144791
vn -0.30154932 -0.23806524 0.9232513
vn 0.7776798 -0.2063232 0.5938391
vn -0.30154932 -0.26980728 0.9144791
vn 0.30154932 -0.2063232 0.93085915
vn 0.8094218 -0.17458117 0.5606762
vn -0.30154932 -0.23806524 0.9232513
vn 0.30154932 -0.17458117 0.937331
vn -0.30154932 -0.17458117 0.937331
vn 0.9632913 -0.26845825 -0
vn 0.7776798 -0.26980728 -0.5678188
vn 0.7776798 -0.26980728 -0.5678188
vn 0.9632913 -0.26845825 -0
vn 0.7776798 -0.26980728 0.5678188
vn 0.7776798 -0.2063232 -0.5938391
vn 0.7776798 -0.26980728 0.5678188
vn 0.96813196 -0.2063232 -0.14195518
vn 0.8094218 -0.17458117 -0.5606762
vn 0.7776798 -0.2063232 0.5938391
vn 0.9850967 -0.172001 -0
vn 0.8094218 -0.17458117 0.5606762
vn -0.30154932 -0.015870988 0.9533185
vn 0.30154932 -0.015870988 0.9533185
vn 0.30154932 -0.015870988 0.9533185
vn -0.30154932 -0.015870988 0.9533185
vn -0.8094218 -0.015870988 0.58701324
vn -0.8094218 -0.015870988 0.58701324
vn -0.999874 -0.015870988 -0.00034665503
vn -0.8094218 -0.015870988 0.58701324
vn -0.8094218 -0.015870988 0.58701324
vn -0.999874 -0.015870988 -0.00034665503
vn -0.8094218 -0.015870988 -0.58701324
vn -0.8094218 -0.015870988 -0.58701324
vn -0.30154932 -0.015870988 -0.9533185
vn -0.30154932 -0.015870988 -0.9533185
vn 0.30154932 -0.015870988 -0.9533185
vn 0.30154932 -0.015870988 -0.9533185
vn -0.30154932 -0.015870988 -0.9533185
vn -0.30154932 -0.015870988 -0.9533185
vn -0.30154932 -0.17458117 0.937331
vn 0.30154932 -0.17458117 0.937331
vn 0.30154932 -0.17458117 0.937331
vn -0.30154932 -0.17458117 0.937331
vn -0.8094218 -0.17458117 0.5606762
vn -0.8094218 -0.17458117 0.5606762
vn -0.9850967 -0.172001 -0
vn -0.8094218 -0.17458117 0.5606762
vn -0.8094218 -0.17458117 0.5606762
vn -0.9850967 -0.172001 -0
vn -0.8094218 -0.17458117 -0.5606762
vn -0.8094218 -0.17458117 -0.5606762
vn -0.30154932 -0.17458117 -0.937331
vn -0.30154932 -0.17458117 -0.937331
vn 0.30154932 -0.17458117 -0.937331
vn 0.30154932 -0.17458117 -0.937331
vn -0.30154932 -0.17458117 -0.937331
vn -0.30154932 -0.17458117 -0.937331
vn -0.30154932 0.015871048 0.9533185
vn 0.30154932 0.015871048 0.9533185
vn 0.30154932 0.015871048 0.9533185
vn -0.30154932 0.015871048 0.9533185
vn -0.8094218 0.015871048 0.58701324
vn -0.8094218 0.015871048 0.58701324
vn -0.999874 0.015871048 -0.00034391563
vn -0.8094218 0.015871048 0.58701324
vn -0.8094218 0.015871048 0.58701324
vn -0.999874 0.015871048 -0.00034391563
vn -0.8094218 0.015871048 -0.58701324
vn -0.8094218 0.015871048 -0.58701324
vn -0.30154932 0.015871048 -0.9533185
vn -0.30154932 0.015871048 -0.9533185
vn 0.30154932 0.015871048 -0.9533185
vn 0.30154932 0.015871048 -0.9533185
vn -0.30154932 0.015871048 -0.9533185
vn -0.30154932 0.015871048 -0.9533185
vn -0.8094218 0.015871048 0.58701324
vn -0.8094218 0.015871048 0.58701324
vn -0.30154932 0.015871048 0.9533185
vn -0.30154932 0.015871048 0.9533185
vn 0.30154932 0.015871048 0.9533185
vn 0.30154932 0.015871048 0.9533185
vn 0.8094218 0.015871048 0.58701324
vn 0.8094218 0.015871048 0.58701324
vn -0.999874 0.015871048 -0.00034391563
vn -0.8094218 0.015871048 0.58701324
vn -0.8094218 0.015871048 0.58701324
vn -0.999874 0.015871048 -0.00034391563
vn -0.8094218 0.015871048 -0.58701324
vn -0.8094218 0.015871048 -0.58701324
vn -0.30154932 0.015871048 -0.9533185
vn -0.30154932 0.015871048 -0.9533185
vn 0.30154932 0.015871048 -0.9533185
vn 0.30154932 0.015871048 -0.9533185
vn -0.30154932 0.015871048 -0.9533185
vn -0.30154932 0.015871048 -0.9533185
vn 0.8094218 0.015871048 -0.58701324
vn 0.8094218 0.015871048 -0.58701324
vn 0.30154932 0.015871048 -0.9533185
vn 0.30154932 0.015871048 -0.9533185
vn 0.999874 0.015871048 -0.00034391563
vn 0.8094218 0.015871048 -0.58701324
vn 0.8094218 0.015871048 -0.58701324
vn 0.999874 0.015871048 -0.00034391563
vn 0.8094218 0.015871048 0.58701324
vn 0.8094218 0.015871048 0.58701324
vn -0.1428392 -0.9046479 0.4015086
vn 0.14283913 -0.9046479 0.4015086
vn 0.14283913 -0.9046479 0.4015086
vn -0.1428392 -0.9046479 0.4015086
vn -0.3650334 -0.9046479 0.21991542
vn -0.3650334 -0.9046479 0.21991542
vn -0.4280864 -0.90373784 -0
vn -0.4280864 -0.90373784 -0
vn -0.3650334 -0.9046479 -0.21991542
vn -0.3650334 -0.9046479 -0.21991542
vn -0.1428392 -0.9046479 -0.4015086
vn -0.1428392 -0.9046479 -0.4015086
vn 0.14283913 -0.9046479 -0.4015086
vn 0.14283913 -0.9046479 -0.4015086
vn 0.26980728 0.49200153 0.82773095
vn 0.26980728 0.49200153 0.82773095
vn -0.26980734 0.49200153 0.82773095
vn -0.26980734 0.49200153 0.82773095
vn -0.7141957 0.49200153 0.49785438
vn -0.7141957 0.49200153 0.49785438
vn -0.7141957 0.49200153 0.49785438
vn -0.7141957 0.49200153 0.49785438
vn -0.87115216 0.49101308 -0
vn -0.87115216 0.49101308 -0
vn -0.7141957 0.49200153 -0.49785438
vn -0.7141957 0.49200153 -0.49785438
vn -0.26980734 0.49200153 -0.82773095
vn -0.26980734 0.49200153 -0.82773095
vn -0.26980734 0.49200153 -0.82773095
vn -0.26980734 0.49200153 -0.82773095
vn 0.26980728 0.49200153 -0.82773095
vn 0.26980728 0.49200153 -0.82773095
vn -0.015871048 0.999874 -0.00034526698
vn -0.015871048 0.999874 -0.00034526698
vn -0.015871048 0.999874 -0.00034526698
vn -0.015871048 0.999874 -0.00034526698
vn -0.015871048 0.999874 -0.00034526698
vn -0.015871048 0.999874 -0.00034526698
vn -0.015871048 0.999874 -0.00034526698
vn -0.015871048 0.999874 -0.00034526698
vn -0.015871048 0.999874 -0.00034526698
vn -0.015871048 0.999874 -0.00034526698
vn -0.015871048 0.999874 -0.00034526698
vn -0.015871048 0.999874 -0.00034526698
vn -0.015871048 0.999874 -0.00034526698
vn -0.015871048 0.999874 -0.00034526698
vn -0.23806524 0.6189697 0.7484661
vn -0.015871048 0.999874 -0.00034526698
vn 0.23806524 0.6189697 0.7484661
vn 0.6189696 0.6189697 0.48348024
vn 0.7776798 0.6189697 -0.10995764
vn 0.6189696 0.6189697 -0.48348024
vn 0.23806524 0.6189697 -0.7484661
vn -0.23806524 0.6189697 -0.7484661
vn -0.23806524 0.6189697 0.7484661
vn -0.6189697 0.6189697 0.4834802
vn -0.7776798 0.6189697 -0.10995764
vn -0.6189697 0.6189697 -0.4834802
vn -0.23806524 0.6189697 -0.7484661
vn 0.8094218 0.015871048 0.58701324
vn 0.30154932 0.015871048 0.9533185
vn 0.30154932 0.015871048 0.9533185
vn 0.8094218 0.015871048 0.58701324
vn 0.999874 0.015871048 -0.00034391563
vn 0.8094218 0.015871048 0.58701324
vn 0.8094218 0.015871048 0.58701324
vn 0.999874 0.015871048 -0.00034391563
vn 0.8094218 0.015871048 -0.58701324
vn 0.8094218 0.015871048 -0.58701324
vn 0.30154932 0.015871048 -0.9533185
vn 0.8094218 0.015871048 -0.58701324
vn 0.8094218 0.015871048 -0.58701324
vn 0.30154932 0.015871048 -0.9533185
vn 0.36503333 -0.9046479 0.21991555
vn 0.14283913 -0.9046479 0.4015086
vn 0.14283913 -0.9046479 0.4015086
vn 0.36503333 -0.9046479 0.21991555
vn 0.42808634 -0.90373784 -0
vn 0.42808634 -0.90373784 -0
vn 0.36503333 -0.9046479 -0.21991555
vn 0.36503333 -0.9046479 -0.21991555
vn 0.14283913 -0.9046479 -0.4015086
vn 0.14283913 -0.9046479 -0.4015086
vn 0.26980728 0.49200153 0.82773095
vn 0.7141957 0.49200153 0.49785438
vn 0.7141957 0.49200153 0.49785438
vn 0.26980728 0.49200153 0.82773095
vn 0.7141957 0.49200153 0.49785438
vn 0.87115216 0.49101308 -0
vn 0.7141957 0.49200153 0.49785438
vn 0.87115216 0.49101308 -0
vn 0.7141957 0.49200153 -0.49785438
vn 0.7141957 0.49200153 -0.49785438
vn 0.7141957 0.49200153 -0.49785438
vn 0.26980728 0.49200153 -0.82773095
vn 0.26980728 0.49200153 -0.82773095
vn 0.7141957 0.49200153 -0.49785438
vn 0.8094218 -0.015870988 0.58701324
vn 0.30154932 -0.015870988 0.9533185
vn 0.30154932 -0.015870988 0.9533185
vn 0.8094218 -0.015870988 0.58701324
vn 0.999874 -0.015870988 -0.00034665503
vn 0.8094218 -0.015870988 0.58701324
vn 0.8094218 -0.015870988 0.58701324
vn 0.999874 -0.015870988 -0.00034665503
vn 0.8094218 -0.015870988 -0.58701324
vn 0.8094218 -0.015870988 -0.58701324
vn 0.30154932 -0.015870988 -0.9533185
vn 0.8094218 -0.015870988 -0.58701324
vn 0.8094218 -0.015870988 -0.58701324
vn 0.30154932 -0.015870988 -0.9533185
vn 0.8094218 -0.17458117 0.5606762
vn 0.30154932 -0.17458117 0.937331
vn 0.30154932 -0.17458117 0.937331
vn 0.8094218 -0.17458117 0.5606762
vn 0.9850967 -0.172001 -0
vn 0.8094218 -0.17458117 0.5606762
vn 0.8094218 -0.17458117 0.5606762
vn 0.9850967 -0.172001 -0
vn 0.8094218 -0.17458117 -0.5606762
vn 0.8094218 -0.17458117 -0.5606762
vn 0.30154932 -0.17458117 -0.937331
vn 0.8094218 -0.17458117 -0.5606762
vn 0.8094218 -0.17458117 -0.5606762
vn 0.30154932 -0.17458117 -0.937331
vn -0.015871048 0.999874 -0.00034526698
vn -0.015871048 0.999874 -0.00034526698
vn -0.015871048 0.999874 -0.00034526698
vn -0.015871048 0.999874 -0.00034526698
vn -0.015871048 0.999874 -0.00034526698
vn -0.015871048 0.999874 -0.00034526698
vn -0.015871048 0.999874 -0.00034526698
vn -0.015871048 0.999874 -0.00034526698
vn -0.015871048 0.999874 -0.00034526698
vn -0.015871048 0.999874 -0.00034526698
g geo_pillar_02_mesh_0
f 3/3/3 2/2/2 1/1/1
f 6/6/6 5/5/5 4/4/4
f 9/9/9 8/8/8 7/7/7
f 12/12/12 11/11/11 10/10/10
f 15/15/15 14/14/14 13/13/13
f 16/16/16 15/15/15 13/13/13
f 17/17/17 15/15/15 16/16/16
f 18/18/18 17/17/17 16/16/16
f 19/19/19 18/18/18 16/16/16
f 18/18/18 19/19/19 20/20/20
f 18/18/18 21/21/21 17/17/17
f 21/21/21 22/22/22 17/17/17
f 21/21/21 23/23/23 22/22/22
f 23/23/23 21/21/21 24/24/24
f 24/24/24 21/21/21 25/25/25
f 21/21/21 18/18/18 25/25/25
f 25/25/25 18/18/18 20/20/20
f 26/26/26 25/25/25 20/20/20
f 26/26/26 20/20/20 27/27/27
f 28/28/28 26/26/26 27/27/27
f 28/28/28 27/27/27 29/29/29
f 30/30/30 28/28/28 29/29/29
f 31/31/31 28/28/28 30/30/30
f 32/32/32 31/31/31 30/30/30
f 35/35/35 34/34/34 33/33/33
f 35/35/35 33/33/33 36/36/36
f 36/36/36 37/37/37 35/35/35
f 36/36/36 33/33/33 38/38/38
f 39/39/39 36/36/36 38/38/38
f 42/42/42 41/41/41 40/40/40
f 43/43/43 42/42/42 40/40/40
f 44/44/44 42/42/42 43/43/43
f 42/42/42 44/44/44 45/45/45
f 44/44/44 46/46/46 45/45/45
f 44/44/44 47/47/47 46/46/46
f 46/46/46 48/48/48 45/45/45
f 48/48/48 49/49/49 45/45/45
f 49/49/49 48/48/48 50/50/50
f 49/49/49 50/50/50 51/51/51
f 52/52/52 48/48/48 46/46/46
f 53/53/53 49/49/49 51/51/51
f 47/47/47 54/54/54 46/46/46
f 54/54/54 52/52/52 46/46/46
f 47/47/47 55/55/55 54/54/54
f 55/55/55 52/52/52 54/54/54
f 53/53/53 51/51/51 56/56/56
f 57/57/57 53/53/53 56/56/56
f 56/56/56 51/51/51 58/58/58
f 51/51/51 59/59/59 58/58/58
f 62/62/62 61/61/61 60/60/60
f 62/62/62 60/60/60 63/63/63
f 63/63/63 64/64/64 62/62/62
f 63/63/63 60/60/60 65/65/65
f 66/66/66 63/63/63 65/65/65
f 69/69/69 68/68/68 67/67/67
f 70/70/70 69/69/69 67/67/67
f 70/70/70 67/67/67 71/71/71
f 72/72/72 70/70/70 71/71/71
f 73/73/73 69/69/69 70/70/70
f 74/74/74 73/73/73 70/70/70
f 75/75/75 73/73/73 74/74/74
f 73/73/73 75/75/75 76/76/76
f 75/75/75 77/77/77 76/76/76
f 75/75/75 78/78/78 77/77/77
f 76/76/76 77/77/77 79/79/79
f 78/78/78 80/80/80 77/77/77
f 78/78/78 81/81/81 80/80/80
f 80/80/80 81/81/81 82/82/82
f 80/80/80 82/82/82 83/83/83
f 77/77/77 80/80/80 83/83/83
f 77/77/77 83/83/83 79/79/79
f 83/83/83 84/84/84 79/79/79
f 79/79/79 84/84/84 85/85/85
f 84/84/84 86/86/86 85/85/85
f 85/85/85 86/86/86 87/87/87
f 86/86/86 88/88/88 87/87/87
f 86/86/86 89/89/89 88/88/88
f 89/89/89 90/90/90 88/88/88
f 93/93/93 92/92/92 91/91/91
f 92/92/92 94/94/94 91/91/91
f 91/91/91 94/94/94 95/95/95
f 94/94/94 96/96/96 95/95/95
f 99/99/99 98/98/98 97/97/97
f 100/100/100 99/99/99 97/97/97
f 103/103/103 102/102/102 101/101/101
f 104/104/104 103/103/103 101/101/101
f 105/105/105 104/104/104 101/101/101
f 108/108/108 107/107/107 106/106/106
f 109/109/109 108/108/108 106/106/106
f 112/112/112 111/111/111 110/110/110
f 113/113/113 112/112/112 110/110/110
f 116/116/116 115/115/115 114/114/114
f 117/117/117 116/116/116 114/114/114
f 120/120/120 119/119/119 118/118/118
f 119/119/119 121/121/121 118/118/118
f 118/118/118 121/121/121 122/122/122
f 121/121/121 123/123/123 122/122/122
f 126/126/126 125/125/125 124/124/124
f 127/127/127 126/126/126 124/124/124
f 127/127/127 124/124/124 128/128/128
f 131/131/131 130/130/130 129/129/129
f 132/132/132 131/131/131 129/129/129
f 135/135/135 134/134/134 133/133/133
f 136/136/136 135/135/135 133/133/133
f 139/139/139 138/138/138 137/137/137
f 140/140/140 139/139/139 137/137/137
f 143/143/143 142/142/142 141/141/141
f 144/144/144 143/143/143 141/141/141
f 147/147/147 146/146/146 145/145/145
f 146/146/146 147/147/147 148/148/148
f 147/147/147 149/149/149 148/148/148
f 149/149/149 147/147/147 150/150/150
f 147/147/147 151/151/151 150/150/150
f 151/151/151 147/147/147 152/152/152
f 155/155/155 154/154/154 153/153/153
f 156/156/156 155/155/155 153/153/153
f 155/155/155 156/156/156 157/157/157
f 158/158/158 155/155/155 157/157/157
f 155/155/155 158/158/158 159/159/159
f 160/160/160 155/155/155 159/159/159
f 163/163/163 162/162/162 161/161/161
f 162/162/162 164/164/164 161/161/161
f 161/161/161 164/164/164 165/165/165
f 164/164/164 166/166/166 165/165/165
f 169/169/169 168/168/168 167/167/167
f 168/168/168 170/170/170 167/167/167
f 167/167/167 170/170/170 171/171/171
f 170/170/170 172/172/172 171/171/171
f 175/175/175 174/174/174 173/173/173
f 174/174/174 176/176/176 173/173/173
f 173/173/173 176/176/176 177/177/177
f 176/176/176 178/178/178 177/177/177
f 181/181/181 180/180/180 179/179/179
f 180/180/180 182/182/182 179/179/179
f 182/182/182 183/183/183 179/179/179
f 183/183/183 184/184/184 179/179/179
f 187/187/187 186/186/186 185/185/185
f 188/188/188 187/187/187 185/185/185
f 189/189/189 187/187/187 188/188/188
f 190/190/190 189/189/189 188/188/188
f 193/193/193 192/192/192 191/191/191
f 194/194/194 193/193/193 191/191/191
f 197/197/197 196/196/196 195/195/195
f 198/198/198 197/197/197 195/195/195
f 201/201/201 200/200/200 199/199/199
f 200/200/200 202/202/202 199/199/199
f 199/199/199 202/202/202 203/203/203
f 202/202/202 204/204/204 203/203/203
f 207/207/207 206/206/206 205/205/205
f 206/206/206 208/208/208 205/205/205
f 205/205/205 208/208/208 209/209/209
f 208/208/208 210/210/210 209/209/209
f 213/213/213 212/212/212 211/211/211
f 212/212/212 214/214/214 211/211/211
f 214/214/214 215/215/215 211/211/211
f 215/215/215 216/216/216 211/211/211
f 219/219/219 218/218/218 217/217/217
f 218/218/218 220/220/220 217/217/217
f 220/220/220 218/218/218 221/221/221
f 218/218/218 222/222/222 221/221/221
f 225/225/225 224/224/224 223/223/223
f 224/224/224 226/226/226 223/223/223
f 226/226/226 224/224/224 227/227/227
f 224/224/224 228/228/228 227/227/227
f 231/231/231 230/230/230 229/229/229
f 230/230/230 232/232/232 229/229/229
f 230/230/230 233/233/233 232/232/232
f 233/233/233 234/234/234 232/232/232
f 234/234/234 235/235/235 232/232/232
f 236/236/236 234/234/234 233/233/233
f 237/237/237 236/236/236 233/233/233
f 238/238/238 236/236/236 237/237/237
f 238/238/238 239/239/239 236/236/236
f 236/236/236 239/239/239 234/234/234
f 239/239/239 240/240/240 234/234/234
f 234/234/234 240/240/240 235/235/235
f 240/240/240 241/241/241 235/235/235
f 241/241/241 240/240/240 242/242/242
f 241/241/241 242/242/242 243/243/243
f 244/244/244 241/241/241 243/243/243
f 247/247/247 246/246/246 245/245/245
f 245/245/245 246/246/246 248/248/248
f 249/249/249 248/248/248 246/246/246
f 245/245/245 248/248/248 250/250/250
f 248/248/248 251/251/251 250/250/250
f 254/254/254 253/253/253 252/252/252
f 252/252/252 253/253/253 255/255/255
f 256/256/256 255/255/255 253/253/253
f 252/252/252 255/255/255 257/257/257
f 255/255/255 258/258/258 257/257/257
f 261/261/261 260/260/260 259/259/259
f 262/262/262 261/261/261 259/259/259
f 262/262/262 259/259/259 263/263/263
f 264/264/264 262/262/262 263/263/263
f 267/267/267 266/266/266 265/265/265
f 266/266/266 268/268/268 265/265/265
f 265/265/265 268/268/268 269/269/269
f 272/272/272 271/271/271 270/270/270
f 273/273/273 272/272/272 270/270/270
f 276/276/276 275/275/275 274/274/274
f 277/277/277 276/276/276 274/274/274
f 280/280/280 279/279/279 278/278/278
f 281/281/281 280/280/280 278/278/278
f 284/284/284 283/283/283 282/282/282
f 285/285/285 284/284/284 282/282/282
f 288/288/288 287/287/287 286/286/286
f 289/289/289 288/288/288 286/286/286
f 289/289/289 286/286/286 290/290/290
f 291/291/291 289/289/289 290/290/290
f 294/294/294 293/293/293 292/292/292
f 295/295/295 294/294/294 292/292/292
f 298/298/298 297/297/297 296/296/296
f 297/297/297 299/299/299 296/296/296
f 300/300/300 296/296/296 299/299/299
f 303/303/303 302/302/302 301/301/301
f 304/304/304 303/303/303 301/301/301
f 307/307/307 306/306/306 305/305/305
f 308/308/308 307/307/307 305/305/305
f 311/311/311 310/310/310 309/309/309
f 312/312/312 311/311/311 309/309/309
f 315/315/315 314/314/314 313/313/313
f 316/316/316 315/315/315 313/313/313
f 316/316/316 313/313/313 317/317/317
f 318/318/318 316/316/316 317/317/317
f 321/321/321 320/320/320 319/319/319
f 322/322/322 321/321/321 319/319/319
f 322/322/322 319/319/319 323/323/323
f 324/324/324 322/322/322 323/323/323
f 327/327/327 326/326/326 325/325/325
f 328/328/328 327/327/327 325/325/325
f 328/328/328 325/325/325 329/329/329
f 330/330/330 328/328/328 329/329/329
f 333/333/333 332/332/332 331/331/331
f 332/332/332 334/334/334 331/331/331
f 332/332/332 335/335/335 334/334/334
f 335/335/335 336/336/336 334/334/334
f 339/339/339 338/338/338 337/337/337
f 340/340/340 339/339/339 337/337/337
f 343/343/343 342/342/342 341/341/341
f 344/344/344 343/343/343 341/341/341
f 347/347/347 346/346/346 345/345/345
f 348/348/348 347/347/347 345/345/345
f 348/348/348 345/345/345 349/349/349
f 350/350/350 348/348/348 349/349/349
f 353/353/353 352/352/352 351/351/351
f 354/354/354 353/353/353 351/351/351
f 354/354/354 351/351/351 355/355/355
f 356/356/356 354/354/354 355/355/355
f 359/359/359 358/358/358 357/357/357
f 360/360/360 359/359/359 357/357/357
f 359/359/359 360/360/360 361/361/361
f 362/362/362 359/359/359 361/361/361
f 365/365/365 364/364/364 363/363/363
f 366/366/366 365/365/365 363/363/363
f 365/365/365 366/366/366 367/367/367
f 368/368/368 365/365/365 367/367/367
f 371/371/371 370/370/370 369/369/369
f 370/370/370 372/372/372 369/369/369
f 370/370/370 373/373/373 372/372/372
f 373/373/373 374/374/374 372/372/372
f 373/373/373 375/375/375 374/374/374
f 375/375/375 376/376/376 374/374/374
f 379/379/379 378/378/378 377/377/377
f 378/378/378 380/380/380 377/377/377
f 377/377/377 380/380/380 381/381/381
f 378/378/378 382/382/382 380/380/380
f 380/380/380 383/383/383 381/381/381
f 382/382/382 384/384/384 380/380/380
f 380/380/380 384/384/384 383/383/383
f 382/382/382 385/385/385 384/384/384
f 384/384/384 386/386/386 383/383/383
f 385/385/385 387/387/387 384/384/384
f 384/384/384 387/387/387 386/386/386
f 387/387/387 388/388/388 386/386/386
f 391/391/391 390/390/390 389/389/389
f 390/390/390 392/392/392 389/389/389
f 389/389/389 392/392/392 393/393/393
f 390/390/390 394/394/394 392/392/392
f 392/392/392 395/395/395 393/393/393
f 393/393/393 395/395/395 396/396/396
f 395/395/395 397/397/397 396/396/396
f 394/394/394 398/398/398 392/392/392
f 392/392/392 398/398/398 395/395/395
f 394/394/394 399/399/399 398/398/398
f 399/399/399 400/400/400 398/398/398
f 395/395/395 401/401/401 397/397/397
f 398/398/398 401/401/401 395/395/395
f 398/398/398 400/400/400 401/401/401
f 401/401/401 402/402/402 397/397/397
f 400/400/400 403/403/403 401/401/401
f 401/401/401 403/403/403 402/402/402
f 403/403/403 404/404/404 402/402/402
f 407/407/407 406/406/406 405/405/405
f 406/406/406 408/408/408 405/405/405
f 405/405/405 408/408/408 409/409/409
f 406/406/406 410/410/410 408/408/408
f 408/408/408 411/411/411 409/409/409
f 410/410/410 412/412/412 408/408/408
f 408/408/408 412/412/412 411/411/411
f 410/410/410 413/413/413 412/412/412
f 412/412/412 414/414/414 411/411/411
f 413/413/413 415/415/415 412/412/412
f 412/412/412 415/415/415 414/414/414
f 415/415/415 416/416/416 414/414/414
f 419/419/419 418/418/418 417/417/417
f 418/418/418 420/420/420 417/417/417
f 417/417/417 420/420/420 421/421/421
f 418/418/418 422/422/422 420/420/420
f 420/420/420 423/423/423 421/421/421
f 422/422/422 424/424/424 420/420/420
f 420/420/420 424/424/424 423/423/423
f 422/422/422 425/425/425 424/424/424
f 424/424/424 426/426/426 423/423/423
f 425/425/425 427/427/427 424/424/424
f 424/424/424 427/427/427 426/426/426
f 427/427/427 428/428/428 426/426/426
f 431/431/431 430/430/430 429/429/429
f 430/430/430 432/432/432 429/429/429
f 429/429/429 432/432/432 433/433/433
f 432/432/432 434/434/434 433/433/433
f 437/437/437 436/436/436 435/435/435
f 436/436/436 438/438/438 435/435/435
f 435/435/435 438/438/438 439/439/439
f 438/438/438 440/440/440 439/439/439
f 439/439/439 440/440/440 441/441/441
f 440/440/440 442/442/442 441/441/441
f 445/445/445 444/444/444 443/443/443
f 446/446/446 445/445/445 443/443/443
f 449/449/449 448/448/448 447/447/447
f 448/448/448 450/450/450 447/447/447
f 447/447/447 450/450/450 451/451/451
f 450/450/450 452/452/452 451/451/451
f 455/455/455 454/454/454 453/453/453
f 454/454/454 456/456/456 453/453/453
f 453/453/453 456/456/456 457/457/457
f 456/456/456 458/458/458 457/457/457
f 457/457/457 458/458/458 459/459/459
f 458/458/458 460/460/460 459/459/459
f 463/463/463 462/462/462 461/461/461
f 464/464/464 463/463/463 461/461/461
f 467/467/467 466/466/466 465/465/465
f 466/466/466 468/468/468 465/465/465
f 465/465/465 468/468/468 469/469/469
f 468/468/468 470/470/470 469/469/469
f 473/473/473 472/472/472 471/471/471
f 472/472/472 474/474/474 471/471/471
f 471/471/471 474/474/474 475/475/475
f 474/474/474 476/476/476 475/475/475
f 475/475/475 476/476/476 477/477/477
f 476/476/476 478/478/478 477/477/477
f 481/481/481 480/480/480 479/479/479
f 482/482/482 481/481/481 479/479/479
f 485/485/485 484/484/484 483/483/483
f 486/486/486 485/485/485 483/483/483
f 487/487/487 485/485/485 486/486/486
f 488/488/488 487/487/487 486/486/486
f 489/489/489 487/487/487 488/488/488
f 490/490/490 489/489/489 488/488/488
f 493/493/493 492/492/492 491/491/491
f 492/492/492 494/494/494 491/491/491
f 491/491/491 494/494/494 495/495/495
f 494/494/494 496/496/496 495/495/495
f 495/495/495 496/496/496 497/497/497
f 496/496/496 498/498/498 497/497/497
f 501/501/501 500/500/500 499/499/499
f 502/502/502 501/501/501 499/499/499
f 505/505/505 504/504/504 503/503/503
f 506/506/506 505/505/505 503/503/503
f 509/509/509 508/508/508 507/507/507
f 508/508/508 510/510/510 507/507/507
f 507/507/507 510/510/510 511/511/511
f 510/510/510 512/512/512 511/511/511
f 515/515/515 514/514/514 513/513/513
f 514/514/514 516/516/516 513/513/513
f 513/513/513 516/516/516 517/517/517
f 516/516/516 518/518/518 517/517/517
f 517/517/517 518/518/518 519/519/519
f 518/518/518 520/520/520 519/519/519
f 519/519/519 520/520/520 521/521/521
f 520/520/520 522/522/522 521/521/521
f 521/521/521 522/522/522 523/523/523
f 522/522/522 524/524/524 523/523/523
f 523/523/523 524/524/524 525/525/525
f 524/524/524 526/526/526 525/525/525
f 529/529/529 528/528/528 527/527/527
f 530/530/530 529/529/529 527/527/527
f 531/531/531 529/529/529 530/530/530
f 532/532/532 531/531/531 530/530/530
f 535/535/535 534/534/534 533/533/533
f 536/536/536 535/535/535 533/533/533
f 537/537/537 535/535/535 536/536/536
f 538/538/538 537/537/537 536/536/536
f 539/539/539 537/537/537 538/538/538
f 540/540/540 539/539/539 538/538/538
f 543/543/543 542/542/542 541/541/541
f 544/544/544 543/543/543 541/541/541
f 547/547/547 546/546/546 545/545/545
f 548/548/548 547/547/547 545/545/545
f 549/549/549 547/547/547 548/548/548
f 550/550/550 549/549/549 548/548/548
f 551/551/551 549/549/549 550/550/550
f 552/552/552 551/551/551 550/550/550
f 553/553/553 551/551/551 552/552/552
f 554/554/554 553/553/553 552/552/552
f 555/555/555 553/553/553 554/554/554
f 556/556/556 555/555/555 554/554/554
f 557/557/557 555/555/555 556/556/556
f 558/558/558 557/557/557 556/556/556
f 561/561/561 560/560/560 559/559/559
f 562/562/562 560/560/560 561/561/561
f 563/563/563 560/560/560 562/562/562
f 564/564/564 560/560/560 563/563/563
f 565/565/565 560/560/560 564/564/564
f 566/566/566 560/560/560 565/565/565
f 560/560/560 568/568/568 567/567/567
f 560/560/560 569/569/569 568/568/568
f 560/560/560 570/570/570 569/569/569
f 560/560/560 571/571/571 570/570/570
f 574/574/574 573/573/573 572/572/572
f 575/575/575 574/574/574 572/572/572
f 578/578/578 577/577/577 576/576/576
f 579/579/579 578/578/578 576/576/576
f 579/579/579 576/576/576 580/580/580
f 581/581/581 579/579/579 580/580/580
f 584/584/584 583/583/583 582/582/582
f 585/585/585 584/584/584 582/582/582
f 588/588/588 587/587/587 586/586/586
f 589/589/589 588/588/588 586/586/586
f 589/589/589 586/586/586 590/590/590
f 591/591/591 589/589/589 590/590/590
f 591/591/591 590/590/590 592/592/592
f 593/593/593 591/591/591 592/592/592
f 593/593/593 592/592/592 594/594/594
f 595/595/595 593/593/593 594/594/594
f 598/598/598 597/597/597 596/596/596
f 599/599/599 598/598/598 596/596/596
f 602/602/602 601/601/601 600/600/600
f 601/601/601 603/603/603 600/600/600
f 601/601/601 604/604/604 603/603/603
f 604/604/604 605/605/605 603/603/603
f 608/608/608 607/607/607 606/606/606
f 609/609/609 608/608/608 606/606/606
f 612/612/612 611/611/611 610/610/610
f 613/613/613 612/612/612 610/610/610
f 616/616/616 615/615/615 614/614/614
f 617/617/617 616/616/616 614/614/614
f 617/617/617 614/614/614 618/618/618
f 619/619/619 617/617/617 618/618/618
f 622/622/622 621/621/621 620/620/620
f 623/623/623 622/622/622 620/620/620
f 626/626/626 625/625/625 624/624/624
f 627/627/627 626/626/626 624/624/624
f 630/630/630 629/629/629 628/628/628
f 631/631/631 630/630/630 628/628/628
f 631/631/631 628/628/628 632/632/632
f 633/633/633 631/631/631 632/632/632
f 636/636/636 635/635/635 634/634/634
f 637/637/637 636/636/636 634/634/634
f 640/640/640 639/639/639 638/638/638
f 639/639/639 641/641/641 638/638/638
f 639/639/639 642/642/642 641/641/641
f 642/642/642 643/643/643 641/641/641
f 642/642/642 644/644/644 643/643/643
f 644/644/644 645/645/645 643/643/643
f 644/644/644 646/646/646 645/645/645
f 646/646/646 647/647/647 645/645/645
