g home_prop_hothturret_01_mesh
v -1.5026288 3.3532956 0.10651171
v -1.8814204 3.3532956 0.07404387
v -1.2537088 3.4019973 0.0686326
v -1.8814204 3.2667148 0.07404387
v -1.5026288 3.2667148 0.10651171
v -1.2537088 3.218013 0.07404387
v -1.2699428 3.180134 -0.0017143488
v -1.8976543 3.2775376 0.05780995
v -1.8976543 3.3424733 0.05780995
v -1.5026288 3.3532956 -0.10452926
v -1.2537088 3.4019973 -0.07206142
v -1.8814204 3.3532956 -0.07747269
v -1.8814204 3.2667148 -0.07747269
v -1.5026288 3.2667148 -0.10452926
v -1.8976543 3.3424733 -0.061238766
v -1.8976543 3.2775376 -0.061238766
v -1.2537088 3.218013 -0.07206142
v -1.2699428 3.180134 -0.0017143488
v -1.8976543 3.374941 -0.0017143488
v -1.8814204 3.3532956 0.07404387
v -1.8976543 3.3424733 0.05780995
v -1.8814204 3.391175 -0.0017143488
v -1.8976543 3.3424733 -0.061238766
v -1.8814204 3.3532956 -0.07747269
v -1.2537088 3.4019973 -0.07206142
v -1.2699428 3.4398768 -0.0017143488
v -1.2537088 3.4019973 0.0686326
v -1.8976543 3.2450697 -0.0017143488
v -1.8814204 3.2667148 -0.07747269
v -1.8976543 3.2775376 -0.061238766
v -1.8814204 3.2288358 -0.0017143488
v -1.2699428 3.180134 -0.0017143488
v -1.8976543 3.2775376 0.05780995
v -1.8814204 3.2667148 0.07404387
v -1.1725392 3.407409 0.49612594
v -1.2537088 3.272126 0.47989202
v -1.2537088 3.4019973 0.47989202
v -1.1725392 3.272126 0.49612594
v -1.3944027 3.3857634 0.1714474
v -1.4972177 3.3532956 0.13897955
v -1.5026288 3.3532956 0.10651171
v -1.2537088 3.4019973 0.0686326
v -1.2969992 3.4019973 0.32837534
v -1.3565235 3.3857634 0.2904961
v -1.1725392 3.407409 0.49612594
v -1.2537088 3.4019973 0.47989202
v -1.2537088 3.272126 0.47989202
v -1.2969992 3.4019973 0.32837534
v -1.2537088 3.4019973 0.47989202
v -1.2969992 3.2450697 0.32837534
v -1.3565235 3.3857634 0.2904961
v -1.3565235 3.250481 0.2904961
v -1.3944027 3.3857634 0.1714474
v -1.3944027 3.239658 0.1714474
v -1.3944027 3.239658 0.1714474
v -1.4972177 3.3532956 0.13897955
v -1.3944027 3.3857634 0.1714474
v -1.4972177 3.2667148 0.13356829
v -1.2969992 3.2450697 0.32837534
v -1.3944027 3.239658 0.1714474
v -1.3565235 3.250481 0.2904961
v -1.2537088 3.218013 0.07404387
v -1.1725392 3.272126 0.49612594
v -1.2537088 3.272126 0.47989202
v -1.5026288 3.2667148 0.10651171
v -1.4972177 3.2667148 0.13356829
v -1.4972177 3.2667148 0.13356829
v -1.5026288 3.3532956 0.10651171
v -1.4972177 3.3532956 0.13897955
v -1.5026288 3.2667148 0.10651171
v -2.8771007 3.3424733 -0.061238766
v -1.8976543 3.2775376 -0.061238766
v -1.8976543 3.3424733 -0.061238766
v -2.8771007 3.2775376 -0.061238766
v -1.8976543 3.374941 -0.0017143488
v -2.8771007 3.3424733 -0.061238766
v -1.8976543 3.3424733 -0.061238766
v -2.8771007 3.374941 -0.0017143488
v -1.8976543 3.3424733 0.05780995
v -2.8771007 3.3424733 0.05780995
v -2.8771007 3.2775376 0.05780995
v -1.8976543 3.3424733 0.05780995
v -1.8976543 3.2775376 0.05780995
v -2.8771007 3.3424733 0.05780995
v -1.8976543 3.2450697 -0.0017143488
v -2.8771007 3.2775376 0.05780995
v -1.8976543 3.2775376 0.05780995
v -2.8771007 3.2450697 -0.0017143488
v -1.8976543 3.2775376 -0.061238766
v -2.8771007 3.2775376 -0.061238766
v -2.8771007 3.374941 -0.0017143488
v -3.2071903 3.391175 -0.07747269
v -2.8771007 3.3424733 -0.061238766
v -3.2071903 3.4236429 -0.0017143488
v -3.4344652 3.391175 -0.07747269
v -2.8771007 3.3424733 0.05780995
v -3.4344652 3.4236429 -0.0017143488
v -3.2071903 3.391175 0.07945526
v -3.4344652 3.391175 0.07945526
v -2.8771007 3.2450697 -0.0017143488
v -3.2071903 3.234247 0.07945526
v -2.8771007 3.2775376 0.05780995
v -3.2071903 3.196368 -0.0017143488
v -3.4344652 3.234247 0.07945526
v -3.4344652 3.196368 -0.0017143488
v -2.8771007 3.2775376 -0.061238766
v -3.2071903 3.196368 -0.0017143488
v -2.8771007 3.2450697 -0.0017143488
v -3.2071903 3.234247 -0.07747269
v -3.4344652 3.196368 -0.0017143488
v -3.4344652 3.234247 -0.07747269
v -3.4344652 3.3100054 -0.10994053
v -3.2071903 3.391175 -0.07747269
v -3.4344652 3.391175 -0.07747269
v -3.2071903 3.3100054 -0.10994053
v -2.8771007 3.3424733 -0.061238766
v -3.4344652 3.234247 -0.07747269
v -2.8771007 3.2775376 -0.061238766
v -3.2071903 3.234247 -0.07747269
v -3.4344652 3.3100054 0.1119231
v -3.2071903 3.234247 0.07945526
v -3.4344652 3.234247 0.07945526
v -3.2071903 3.3100054 0.1119231
v -2.8771007 3.2775376 0.05780995
v -3.4344652 3.391175 0.07945526
v -2.8771007 3.3424733 0.05780995
v -3.2071903 3.391175 0.07945526
v -1.1725392 3.407409 -0.49414337
v -1.2537088 3.272126 -0.47790945
v -1.1725392 3.272126 -0.49414337
v -1.2537088 3.4019973 -0.47790945
v -1.2969992 3.4019973 -0.33180416
v -1.2537088 3.4019973 -0.47790945
v -1.1725392 3.407409 -0.49414337
v -1.2537088 3.4019973 -0.07206142
v -1.3944027 3.3857634 -0.17487621
v -1.3565235 3.3857634 -0.28851366
v -1.5026288 3.3532956 -0.10452926
v -1.4972177 3.3532956 -0.1369971
v -1.2969992 3.4019973 -0.33180416
v -1.2537088 3.272126 -0.47790945
v -1.2537088 3.4019973 -0.47790945
v -1.2969992 3.2450697 -0.33180416
v -1.3565235 3.3857634 -0.28851366
v -1.3565235 3.250481 -0.28851366
v -1.3944027 3.3857634 -0.17487621
v -1.3944027 3.239658 -0.17487621
v -1.3944027 3.239658 -0.17487621
v -1.4972177 3.3532956 -0.1369971
v -1.4972177 3.2667148 -0.1369971
v -1.3944027 3.3857634 -0.17487621
v -1.2969992 3.2450697 -0.33180416
v -1.3565235 3.250481 -0.28851366
v -1.3944027 3.239658 -0.17487621
v -1.2537088 3.218013 -0.07206142
v -1.1725392 3.272126 -0.49414337
v -1.2537088 3.272126 -0.47790945
v -1.5026288 3.2667148 -0.10452926
v -1.4972177 3.2667148 -0.1369971
v -1.4972177 3.2667148 -0.1369971
v -1.5026288 3.3532956 -0.10452926
v -1.5026288 3.2667148 -0.10452926
v -1.4972177 3.3532956 -0.1369971
v -3.4344652 3.391175 -0.07747269
v -3.4344652 3.4236429 -0.0017143488
v -3.4344652 3.391175 0.07945526
v -3.4344652 3.3100054 -0.10994053
v -3.4344652 3.3100054 0.1119231
v -3.4344652 3.234247 0.07945526
v -3.4344652 3.234247 -0.07747269
v -3.4344652 3.196368 -0.0017143488
v 1.4465333 0.31214142 -0.59695816
v 0.9054026 0.63681984 -0.9054026
v 1.105621 0.31214142 -1.105621
v 1.1813793 0.63681984 -0.48873198
v 1.2787828 0.63681984 -0.0017143488
v 1.565582 0.31214142 -0.0017143488
v 0.48873198 0.63681984 -1.1813793
v 1.105621 0.31214142 -1.105621
v 0.9054026 0.63681984 -0.9054026
v 0.59695816 0.31214142 -1.4465333
v -1.1076035 -0.0017143488 -1.105621
v -1.4485159 0.31214142 -0.59695816
v -1.4485159 -0.0017143488 -0.59695816
v -1.1076035 0.31214142 -1.105621
v -0.5989406 -0.0017143488 -1.4465333
v -0.5989406 0.31214142 -1.4465333
v -0.9019737 0.63681984 -0.9054026
v 0.0017143488 -0.0017143488 -1.565582
v -0.49071455 0.63681984 -1.1813793
v 0.0017143488 0.31214142 -1.565582
v 0.59695816 -0.0017143488 -1.4465333
v 0.0017143488 0.63681984 -1.2787828
v 0.59695816 0.31214142 -1.4465333
v 0.48873198 0.63681984 -1.1813793
v 1.105621 -0.0017143488 -1.105621
v 1.105621 0.31214142 -1.105621
v 1.4465333 -0.0017143488 -0.59695816
v 1.4465333 0.31214142 -0.59695816
v -1.4485159 -0.0017143488 -0.59695816
v -1.5675645 0.31214142 -0.0017143488
v -1.5675645 -0.0017143488 -0.0017143488
v -1.4485159 0.31214142 -0.59695816
v -1.2753539 0.63681984 -0.0017143488
v -1.1779504 0.63681984 -0.48873198
v -1.1076035 0.31214142 -1.105621
v -0.9019737 0.63681984 -0.9054026
v -1.1076035 -0.0017143488 1.1076035
v -0.5989406 0.31214142 1.4485159
v -0.5989406 -0.0017143488 1.4485159
v -1.1076035 0.31214142 1.1076035
v -1.4485159 -0.0017143488 0.5989406
v -1.4485159 0.31214142 0.5989406
v -0.9019737 0.63681984 0.9019737
v -1.5675645 -0.0017143488 -0.0017143488
v -1.1779504 0.63681984 0.49071455
v -1.5675645 0.31214142 -0.0017143488
v -1.2753539 0.63681984 -0.0017143488
v 1.105621 -0.0017143488 1.1076035
v 1.4465333 0.31214142 0.5989406
v 1.4465333 -0.0017143488 0.5989406
v 1.105621 0.31214142 1.1076035
v 0.59695816 -0.0017143488 1.4485159
v 0.59695816 0.31214142 1.4485159
v 0.9054026 0.63681984 0.9019737
v 0.0017143488 -0.0017143488 1.5675645
v 0.48873198 0.63681984 1.1779504
v 0.0017143488 0.31214142 1.5675645
v -0.5989406 -0.0017143488 1.4485159
v 0.0017143488 0.63681984 1.2753539
v -0.5989406 0.31214142 1.4485159
v -0.49071455 0.63681984 1.1779504
v -1.1076035 0.31214142 1.1076035
v -0.9019737 0.63681984 0.9019737
v 1.4465333 -0.0017143488 0.5989406
v 1.565582 0.31214142 -0.0017143488
v 1.565582 -0.0017143488 -0.0017143488
v 1.4465333 0.31214142 0.5989406
v 1.2787828 0.63681984 -0.0017143488
v 1.1813793 0.63681984 0.49071455
v 1.105621 0.31214142 1.1076035
v 0.9054026 0.63681984 0.9019737
v 1.565582 -0.0017143488 -0.0017143488
v 1.4465333 0.31214142 -0.59695816
v 1.4465333 -0.0017143488 -0.59695816
v 1.565582 0.31214142 -0.0017143488
v -0.77210236 0.6476424 -0.77553123
v -0.8424494 3.006972 -0.34803808
v -1.0102 0.6476424 -0.41838503
v -0.6476424 3.006972 -0.6456599
v -0.42036748 0.6476424 -1.0136287
v -0.6476424 3.006972 -0.6456599
v -0.77210236 0.6476424 -0.77553123
v -0.35002053 3.006972 -0.8404669
v 0.0017143488 0.6476424 -1.0947983
v 0.0017143488 3.006972 -0.9108139
v 0.41838503 0.6476424 -1.0136287
v 0.34803808 3.006972 -0.8404669
v 0.77553123 0.6476424 -0.77553123
v 0.34803808 3.006972 -0.8404669
v 0.41838503 0.6476424 -1.0136287
v 0.6456599 3.006972 -0.6456599
v 1.0136287 0.6476424 -0.41838503
v 0.8404669 3.006972 -0.34803808
v 1.0947983 0.6476424 -0.0017143488
v 0.8404669 3.006972 -0.34803808
v 1.0136287 0.6476424 -0.41838503
v 0.9108139 3.006972 -0.0017143488
v 1.0136287 0.6476424 0.42036748
v 0.9108139 3.006972 -0.0017143488
v 1.0947983 0.6476424 -0.0017143488
v 0.8404669 3.006972 0.35002053
v 0.77553123 0.6476424 0.77210236
v 0.6456599 3.006972 0.6476424
v 0.41838503 0.6476424 1.0102
v 0.34803808 3.006972 0.8424494
v 0.0017143488 0.6476424 1.0967808
v 0.34803808 3.006972 0.8424494
v 0.41838503 0.6476424 1.0102
v 0.0017143488 3.006972 0.9127965
v -0.42036748 0.6476424 1.0102
v -0.35002053 3.006972 0.8424494
v -0.77210236 0.6476424 0.77210236
v -0.6476424 3.006972 0.6476424
v -1.0102 0.6476424 0.42036748
v -0.6476424 3.006972 0.6476424
v -0.77210236 0.6476424 0.77210236
v -0.8424494 3.006972 0.35002053
v -1.0102 0.6476424 0.42036748
v -0.9127965 3.006972 -0.0017143488
v -0.8424494 3.006972 0.35002053
v -1.0967808 0.6476424 -0.0017143488
v -1.0102 0.6476424 -0.41838503
v -0.8424494 3.006972 -0.34803808
v -0.49612594 3.1584885 -1.1976132
v -0.91820765 3.466933 -0.91622525
v -0.91820765 3.1584885 -0.91622525
v -0.49612594 3.466933 -1.1976132
v 0.0017143488 3.1584885 -1.2950168
v 0.0017143488 3.466933 -1.300428
v 0.49414337 3.1584885 -1.1976132
v 0.49414337 3.466933 -1.1976132
v 0.91622525 3.1584885 -0.91622525
v 0.91622525 3.466933 -0.91622525
v 1.1976132 3.1584885 -0.49414337
v 0.91622525 3.466933 -0.91622525
v 0.91622525 3.1584885 -0.91622525
v 1.1976132 3.466933 -0.49414337
v 1.2950168 3.1584885 -0.0017143488
v 1.1976132 3.466933 -0.49414337
v 1.1976132 3.1584885 -0.49414337
v 1.300428 3.466933 -0.0017143488
v 1.1976132 3.1584885 0.49612594
v 1.1976132 3.466933 0.49612594
v 0.91622525 3.1584885 0.91820765
v 0.91622525 3.466933 0.91820765
v 0.49414337 3.1584885 1.1995957
v 0.91622525 3.466933 0.91820765
v 0.91622525 3.1584885 0.91820765
v 0.49414337 3.466933 1.1995957
v 0.0017143488 3.1584885 1.2969992
v 0.49414337 3.466933 1.1995957
v 0.49414337 3.1584885 1.1995957
v 0.0017143488 3.466933 1.2969992
v -0.49612594 3.1584885 1.1995957
v -0.49612594 3.466933 1.1995957
v -0.91820765 3.1584885 0.91820765
v -0.91820765 3.466933 0.91820765
v -1.1995957 3.466933 -0.49414337
v -0.91820765 3.1584885 -0.91622525
v -0.91820765 3.466933 -0.91622525
v -1.1995957 3.1584885 -0.49414337
v -1.2969992 3.466933 -0.0017143488
v -1.1995957 3.1584885 -0.49414337
v -1.1995957 3.466933 -0.49414337
v -1.2969992 3.1584885 -0.0017143488
v -1.1995957 3.466933 0.49612594
v -1.1995957 3.1584885 0.49612594
v -0.91820765 3.466933 0.91820765
v -1.1995957 3.1584885 0.49612594
v -1.1995957 3.466933 0.49612594
v -0.91820765 3.1584885 0.91820765
v -0.15521348 3.7807891 -0.20734406
v -0.041576028 3.86737 -0.38050592
v -0.15521348 3.86737 -0.20734406
v -0.041576028 3.7807891 -0.38050592
v 0.1369971 3.86737 -0.49414337
v 0.1369971 3.7807891 -0.49414337
v 0.3426267 3.86737 -0.542845
v 0.3426267 3.7807891 -0.542845
v 0.5482564 3.86737 -0.49414337
v 0.5482564 3.7807891 -0.49414337
v 0.72682947 3.86737 -0.38050592
v 0.72682947 3.7807891 -0.38050592
v 0.8404669 3.86737 -0.20734406
v 0.8404669 3.7807891 -0.20734406
v 0.1369971 3.7807891 0.49612594
v -0.041576028 3.86737 0.38248837
v 0.1369971 3.86737 0.49612594
v -0.041576028 3.7807891 0.38248837
v -0.15521348 3.86737 0.20391524
v -0.15521348 3.7807891 0.20391524
v -0.19850397 3.86737 -0.0017143488
v -0.19850397 3.7807891 -0.0017143488
v -0.15521348 3.86737 -0.20734406
v -0.15521348 3.7807891 -0.20734406
v 0.8404669 3.7807891 0.20391524
v 0.72682947 3.86737 0.38248837
v 0.8404669 3.86737 0.20391524
v 0.72682947 3.7807891 0.38248837
v 0.5482564 3.86737 0.49612594
v 0.5482564 3.7807891 0.49612594
v 0.3426267 3.86737 0.5394163
v 0.3426267 3.7807891 0.5394163
v 0.1369971 3.86737 0.49612594
v 0.1369971 3.7807891 0.49612594
v 0.8404669 3.7807891 -0.20734406
v 0.8837574 3.86737 -0.0017143488
v 0.8404669 3.86737 -0.20734406
v 0.8837574 3.7807891 -0.0017143488
v 0.8404669 3.86737 0.20391524
v 0.8404669 3.7807891 0.20391524
v 0.6943617 3.677974 -0.34803808
v 0.5320225 3.7753775 -0.45626414
v 0.5320225 3.677974 -0.45626414
v 0.6943617 3.7753775 -0.34803808
v 0.7971765 3.677974 -0.18569887
v 0.7971765 3.7753775 -0.18569887
v 0.8404669 3.677974 -0.0017143488
v 0.8404669 3.7753775 -0.0017143488
v 0.7971765 3.677974 0.18768132
v 0.7971765 3.7753775 0.18768132
v 0.6943617 3.677974 0.35002053
v 0.6943617 3.7753775 0.35002053
v 0.5320225 3.677974 0.45283532
v 0.5320225 3.7753775 0.45283532
v -0.009108186 3.677974 -0.34803808
v -0.1119231 3.7753775 -0.18569887
v -0.1119231 3.677974 -0.18569887
v -0.009108186 3.7753775 -0.34803808
v 0.15323102 3.677974 -0.45626414
v 0.15323102 3.7753775 -0.45626414
v 0.3426267 3.677974 -0.49414337
v 0.3426267 3.7753775 -0.49414337
v 0.5320225 3.677974 -0.45626414
v 0.5320225 3.7753775 -0.45626414
v -0.009108186 3.677974 0.35002053
v 0.15323102 3.7753775 0.45283532
v 0.15323102 3.677974 0.45283532
v -0.009108186 3.7753775 0.35002053
v -0.1119231 3.677974 0.18768132
v -0.1119231 3.7753775 0.18768132
v -0.14980221 3.677974 -0.0017143488
v -0.14980221 3.7753775 -0.0017143488
v -0.1119231 3.677974 -0.18569887
v -0.1119231 3.7753775 -0.18569887
v 0.3426267 3.677974 0.49612594
v 0.5320225 3.7753775 0.45283532
v 0.5320225 3.677974 0.45283532
v 0.3426267 3.7753775 0.49612594
v 0.15323102 3.677974 0.45283532
v 0.15323102 3.7753775 0.45283532
v 0.629426 3.9323056 0.28508484
v 0.72682947 3.86737 0.38248837
v 0.5482564 3.86737 0.49612594
v 0.8404669 3.86737 0.20391524
v 0.3426267 3.9323056 0.40954494
v 0.3426267 3.86737 0.5394163
v 0.1369971 3.86737 0.49612594
v 0.7484747 3.9323056 -0.0017143488
v 0.8837574 3.86737 -0.0017143488
v 0.8404669 3.86737 -0.20734406
v 0.0558275 3.9323056 0.28508484
v -0.041576028 3.86737 0.38248837
v -0.15521348 3.86737 0.20391524
v 0.629426 3.9323056 -0.28851366
v 0.72682947 3.86737 -0.38050592
v 0.5482564 3.86737 -0.49414337
v -0.063221335 3.9323056 -0.0017143488
v -0.19850397 3.86737 -0.0017143488
v -0.15521348 3.86737 -0.20734406
v 0.3426267 3.9323056 -0.40756238
v 0.3426267 3.86737 -0.542845
v 0.1369971 3.86737 -0.49414337
v 0.0558275 3.9323056 -0.28851366
v -0.041576028 3.86737 -0.38050592
v 0.5103773 3.9539506 -0.16405356
v 0.3426267 3.9539506 -0.23440063
v 0.3426267 3.9701846 -0.0017143488
v 0.5753129 3.9539506 -0.0017143488
v 0.17487621 3.9539506 -0.16405356
v 0.5103773 3.9539506 0.16603613
v 0.10994053 3.9539506 -0.0017143488
v 0.3426267 3.9539506 0.23638308
v 0.17487621 3.9539506 0.16603613
v -1.1995957 3.1584885 0.49612594
v -0.6476424 3.006972 0.6476424
v -0.8424494 3.006972 0.35002053
v -0.91820765 3.1584885 0.91820765
v -1.2969992 3.1584885 -0.0017143488
v -0.35002053 3.006972 0.8424494
v -0.9127965 3.006972 -0.0017143488
v -0.49612594 3.1584885 1.1995957
v -1.1995957 3.1584885 -0.49414337
v 0.0017143488 3.006972 0.9127965
v -0.8424494 3.006972 -0.34803808
v 0.0017143488 3.1584885 1.2969992
v -0.91820765 3.1584885 -0.91622525
v 0.34803808 3.006972 0.8424494
v -0.6476424 3.006972 -0.6456599
v 0.49414337 3.1584885 1.1995957
v -0.49612594 3.1584885 -1.1976132
v 0.6456599 3.006972 0.6476424
v -0.35002053 3.006972 -0.8404669
v 0.91622525 3.1584885 0.91820765
v 0.0017143488 3.1584885 -1.2950168
v 0.8404669 3.006972 0.35002053
v 0.0017143488 3.006972 -0.9108139
v 1.1976132 3.1584885 0.49612594
v 0.49414337 3.1584885 -1.1976132
v 0.9108139 3.006972 -0.0017143488
v 0.34803808 3.006972 -0.8404669
v 1.2950168 3.1584885 -0.0017143488
v 0.91622525 3.1584885 -0.91622525
v 0.8404669 3.006972 -0.34803808
v 0.6456599 3.006972 -0.6456599
v 1.1976132 3.1584885 -0.49414337
v -0.91820765 3.466933 0.91820765
v -0.32837534 3.677974 0.7883363
v -0.49612594 3.466933 1.1995957
v -0.604352 3.677974 0.604352
v -1.1995957 3.466933 0.49612594
v 0.0017143488 3.677974 0.85327196
v 0.0017143488 3.466933 1.2969992
v -0.7883363 3.677974 0.32837534
v -1.2969992 3.466933 -0.0017143488
v 0.32639277 3.677974 0.7883363
v 0.49414337 3.466933 1.1995957
v -0.85327196 3.677974 -0.0017143488
v -1.1995957 3.466933 -0.49414337
v 0.6023694 3.677974 0.604352
v 0.91622525 3.466933 0.91820765
v -0.7883363 3.677974 -0.32639277
v -0.91820765 3.466933 -0.91622525
v 0.79176515 3.677974 0.32837534
v 1.1976132 3.466933 0.49612594
v -0.604352 3.677974 -0.6023694
v -0.49612594 3.466933 -1.1976132
v 0.85670084 3.677974 -0.0017143488
v 1.300428 3.466933 -0.0017143488
v -0.32837534 3.677974 -0.79176515
v 0.0017143488 3.466933 -1.300428
v 0.79176515 3.677974 -0.32639277
v 1.1976132 3.466933 -0.49414337
v 0.0017143488 3.677974 -0.85670084
v 0.49414337 3.466933 -1.1976132
v 0.6023694 3.677974 -0.6023694
v 0.91622525 3.466933 -0.91622525
v 0.32639277 3.677974 -0.79176515
v 0.8404669 3.677974 -0.0017143488
v 0.7971765 3.677974 0.18768132
v 0.7971765 3.677974 -0.18569887
v 0.6943617 3.677974 -0.34803808
v 0.6943617 3.677974 0.35002053
v 0.5320225 3.677974 -0.45626414
v 0.3426267 3.677974 -0.49414337
v 0.5320225 3.677974 0.45283532
v 0.15323102 3.677974 -0.45626414
v 0.3426267 3.677974 0.49612594
v -0.009108186 3.677974 -0.34803808
v 0.15323102 3.677974 0.45283532
v -0.1119231 3.677974 -0.18569887
v -0.009108186 3.677974 0.35002053
v -0.14980221 3.677974 -0.0017143488
v -0.1119231 3.677974 0.18768132
v -0.9019737 0.63681984 -0.9054026
v -1.0102 0.6476424 -0.41838503
v -1.1779504 0.63681984 -0.48873198
v -0.77210236 0.6476424 -0.77553123
v -1.0967808 0.6476424 -0.0017143488
v -0.49071455 0.63681984 -1.1813793
v -1.2753539 0.63681984 -0.0017143488
v -0.42036748 0.6476424 -1.0136287
v -1.0102 0.6476424 0.42036748
v 0.0017143488 0.63681984 -1.2787828
v -1.1779504 0.63681984 0.49071455
v 0.0017143488 0.6476424 -1.0947983
v -0.77210236 0.6476424 0.77210236
v 0.48873198 0.63681984 -1.1813793
v -0.9019737 0.63681984 0.9019737
v 0.41838503 0.6476424 -1.0136287
v -0.42036748 0.6476424 1.0102
v 0.9054026 0.63681984 -0.9054026
v -0.49071455 0.63681984 1.1779504
v 0.77553123 0.6476424 -0.77553123
v 0.0017143488 0.6476424 1.0967808
v 1.1813793 0.63681984 -0.48873198
v 0.0017143488 0.63681984 1.2753539
v 1.0136287 0.6476424 -0.41838503
v 0.41838503 0.6476424 1.0102
v 1.2787828 0.63681984 -0.0017143488
v 0.48873198 0.63681984 1.1779504
v 1.0947983 0.6476424 -0.0017143488
v 0.77553123 0.6476424 0.77210236
v 1.1813793 0.63681984 0.49071455
v 0.9054026 0.63681984 0.9019737
v 1.0136287 0.6476424 0.42036748
v 0.5320225 3.7753775 -0.45626414
v 0.72682947 3.7807891 -0.38050592
v 0.5482564 3.7807891 -0.49414337
v 0.6943617 3.7753775 -0.34803808
v 0.3426267 3.7753775 -0.49414337
v 0.8404669 3.7807891 -0.20734406
v 0.3426267 3.7807891 -0.542845
v 0.7971765 3.7753775 -0.18569887
v 0.15323102 3.7753775 -0.45626414
v 0.8837574 3.7807891 -0.0017143488
v 0.1369971 3.7807891 -0.49414337
v 0.8404669 3.7753775 -0.0017143488
v -0.009108186 3.7753775 -0.34803808
v 0.8404669 3.7807891 0.20391524
v -0.041576028 3.7807891 -0.38050592
v 0.7971765 3.7753775 0.18768132
v -0.1119231 3.7753775 -0.18569887
v 0.72682947 3.7807891 0.38248837
v -0.15521348 3.7807891 -0.20734406
v 0.6943617 3.7753775 0.35002053
v -0.14980221 3.7753775 -0.0017143488
v 0.5482564 3.7807891 0.49612594
v -0.19850397 3.7807891 -0.0017143488
v 0.5320225 3.7753775 0.45283532
v -0.1119231 3.7753775 0.18768132
v 0.3426267 3.7807891 0.5394163
v -0.15521348 3.7807891 0.20391524
v 0.3426267 3.7753775 0.49612594
v -0.009108186 3.7753775 0.35002053
v 0.1369971 3.7807891 0.49612594
v -0.041576028 3.7807891 0.38248837
v 0.15323102 3.7753775 0.45283532
vt 0.8872231 0.44268036
vt 0.89502215 0.5284693
vt 0.89502215 0.38808736
vt 0.8794241 0.5323688
vt 0.8677256 0.44657984
vt 0.8404292 0.39198688
vt 0.8248311 0.39978588
vt 0.8794241 0.53626835
vt 0.89502215 0.53626835
vt 0.8872231 0.44268036
vt 0.89502215 0.38808736
vt 0.89502215 0.5284693
vt 0.8794241 0.5323688
vt 0.8677256 0.44657984
vt 0.89502215 0.53626835
vt 0.8794241 0.53626835
vt 0.8404292 0.39198688
vt 0.8248311 0.39978588
vt 0.91451955 0.5323688
vt 0.89502215 0.5284693
vt 0.89502215 0.53626835
vt 0.91451955 0.5284693
vt 0.89502215 0.53626835
vt 0.89502215 0.5284693
vt 0.89502215 0.38808736
vt 0.91451955 0.38808736
vt 0.89502215 0.38808736
vt 0.86382616 0.5401678
vt 0.8794241 0.5323688
vt 0.8794241 0.53626835
vt 0.8599266 0.53626835
vt 0.8248311 0.39978588
vt 0.8794241 0.53626835
vt 0.8794241 0.5323688
vt 0.8794241 0.3451929
vt 0.8599266 0.3724894
vt 0.86382616 0.3451929
vt 0.8794241 0.37638888
vt 0.95741403 0.3373939
vt 0.93401706 0.3256954
vt 0.93401706 0.31789643
vt 0.98861 0.31789643
vt 0.9730121 0.37638888
vt 0.9613136 0.3646904
vt 0.99640906 0.41538388
vt 0.97691154 0.41148436
vt 0.8599266 0.3724894
vt 0.8248311 0.3451929
vt 0.86382616 0.3451929
vt 0.8248311 0.3802884
vt 0.81313264 0.3490924
vt 0.8092332 0.3802884
vt 0.7858362 0.3490924
vt 0.7858362 0.3802884
vt 0.7858362 0.3802884
vt 0.7585397 0.3529919
vt 0.7858362 0.3490924
vt 0.7546402 0.37638888
vt 0.9730121 0.26330343
vt 0.9535146 0.2983989
vt 0.9613136 0.27110243
vt 0.98861 0.31789643
vt 0.9925096 0.22040896
vt 0.97691154 0.22820796
vt 0.93401706 0.31789643
vt 0.93401706 0.31009743
vt 0.7546402 0.37638888
vt 0.75074065 0.3568914
vt 0.7585397 0.3529919
vt 0.75074065 0.37638888
vt 0.9808111 0.42318285
vt 0.96521306 0.6415547
vt 0.9808111 0.6415547
vt 0.96521306 0.42318285
vt 0.99640906 0.6415547
vt 0.9808111 0.42318285
vt 0.9808111 0.6415547
vt 0.99640906 0.42318285
vt 0.9808111 0.6415547
vt 0.9808111 0.42318285
vt 0.96521306 0.42318285
vt 0.9808111 0.6415547
vt 0.96521306 0.6415547
vt 0.9808111 0.42318285
vt 0.9496151 0.6415547
vt 0.96521306 0.42318285
vt 0.96521306 0.6415547
vt 0.9496151 0.42318285
vt 0.96521306 0.6415547
vt 0.96521306 0.42318285
vt 0.84432864 0.58696175
vt 0.90282106 0.58696175
vt 0.8482281 0.57526326
vt 0.8989216 0.59866023
vt 0.9418161 0.5947608
vt 0.8404292 0.59866023
vt 0.93791664 0.6103587
vt 0.89502215 0.6142583
vt 0.93401706 0.6220572
vt 0.8287307 0.61815774
vt 0.8872231 0.63765526
vt 0.8365296 0.6103587
vt 0.8794241 0.6532532
vt 0.9223186 0.6532532
vt 0.9184191 0.66885126
vt 0.8482281 0.5635648
vt 0.90672064 0.54406726
vt 0.8482281 0.54796684
vt 0.90672064 0.55576575
vt 0.9496151 0.54796684
vt 0.94571555 0.5635648
vt 0.9418161 0.5791627
vt 0.90282106 0.58696175
vt 0.9418161 0.5947608
vt 0.90282106 0.5713638
vt 0.8482281 0.57526326
vt 0.94571555 0.5635648
vt 0.8482281 0.5635648
vt 0.90672064 0.55576575
vt 0.9301176 0.63765526
vt 0.8872231 0.63765526
vt 0.9223186 0.6532532
vt 0.8911226 0.6259568
vt 0.8365296 0.6103587
vt 0.93401706 0.6220572
vt 0.8404292 0.59866023
vt 0.89502215 0.6142583
vt 0.8794241 0.3451929
vt 0.8599266 0.3724894
vt 0.8794241 0.37638888
vt 0.86382616 0.3451929
vt 0.9730121 0.37638888
vt 0.97691154 0.41148436
vt 0.99640906 0.41538388
vt 0.98861 0.31789643
vt 0.95741403 0.3373939
vt 0.9613136 0.3646904
vt 0.93401706 0.31789643
vt 0.93401706 0.3256954
vt 0.8248311 0.3451929
vt 0.8599266 0.3724894
vt 0.86382616 0.3451929
vt 0.8248311 0.3802884
vt 0.81313264 0.3490924
vt 0.8092332 0.3802884
vt 0.7858362 0.3490924
vt 0.7858362 0.3802884
vt 0.7858362 0.3802884
vt 0.7585397 0.3529919
vt 0.7546402 0.37638888
vt 0.7858362 0.3490924
vt 0.9730121 0.26330343
vt 0.9613136 0.27110243
vt 0.9535146 0.2983989
vt 0.98861 0.31789643
vt 0.9925096 0.22040896
vt 0.97691154 0.22820796
vt 0.93401706 0.31789643
vt 0.93401706 0.31009743
vt 0.7546402 0.37638888
vt 0.75074065 0.3568914
vt 0.75074065 0.37638888
vt 0.7585397 0.3529919
vt 0.83263016 0.3256954
vt 0.8482281 0.3412934
vt 0.8677256 0.3412934
vt 0.83263016 0.3061979
vt 0.88332367 0.3256954
vt 0.88332367 0.3061979
vt 0.8482281 0.2905999
vt 0.8677256 0.2905999
vt 0.9613136 0.1463185
vt 0.88332367 0.21650946
vt 0.96521306 0.22430846
vt 0.88332367 0.1541175
vt 0.8989216 0.052730553
vt 0.94571555 0.07612754
vt 0.87552464 0.27890143
vt 0.96521306 0.22430846
vt 0.88332367 0.21650946
vt 0.9496151 0.29449943
vt 0.41928336 0.158017
vt 0.45827833 0.08002704
vt 0.41928336 0.083926536
vt 0.45827833 0.158017
vt 0.41928336 0.23600696
vt 0.45827833 0.23600696
vt 0.51677084 0.158017
vt 0.41928336 0.3139969
vt 0.51677084 0.22430846
vt 0.45827833 0.3139969
vt 0.41928336 0.39198688
vt 0.51677084 0.31789643
vt 0.45827833 0.39198688
vt 0.51677084 0.38418788
vt 0.41928336 0.46997684
vt 0.45827833 0.46997684
vt 0.41928336 0.54796684
vt 0.45827833 0.54796684
vt 0.41928336 0.083926536
vt 0.45827833 0.005936576
vt 0.41928336 0.005936576
vt 0.45827833 0.08002704
vt 0.51677084 0.005936576
vt 0.51677084 0.068328544
vt 0.45827833 0.158017
vt 0.51677084 0.158017
vt 0.41928336 0.46997684
vt 0.45827833 0.39198688
vt 0.41928336 0.39198688
vt 0.45827833 0.46997684
vt 0.41928336 0.54796684
vt 0.45827833 0.54796684
vt 0.51677084 0.46997684
vt 0.41928336 0.6220572
vt 0.51677084 0.54796684
vt 0.45827833 0.6220572
vt 0.51677084 0.6220572
vt 0.41928336 0.158017
vt 0.45827833 0.083926536
vt 0.41928336 0.083926536
vt 0.45827833 0.158017
vt 0.41928336 0.23600696
vt 0.45827833 0.23600696
vt 0.51677084 0.158017
vt 0.41928336 0.3139969
vt 0.51677084 0.22430846
vt 0.45827833 0.3139969
vt 0.41928336 0.39198688
vt 0.51677084 0.3139969
vt 0.45827833 0.39198688
vt 0.51677084 0.3802884
vt 0.45827833 0.46997684
vt 0.51677084 0.46997684
vt 0.41928336 0.083926536
vt 0.45827833 0.005936576
vt 0.41928336 0.005936576
vt 0.45827833 0.083926536
vt 0.51677084 0.005936576
vt 0.51677084 0.072228044
vt 0.45827833 0.158017
vt 0.51677084 0.158017
vt 0.41928336 0.6220572
vt 0.45827833 0.54796684
vt 0.41928336 0.54796684
vt 0.45827833 0.6220572
vt 0.009836074 0.44657984
vt 0.3490924 0.38418788
vt 0.009836074 0.38418788
vt 0.3490924 0.44657984
vt 0.009836074 0.072228044
vt 0.3490924 0.005936576
vt 0.009836074 0.005936576
vt 0.3490924 0.072228044
vt 0.009836074 0.13072051
vt 0.3490924 0.13072051
vt 0.009836074 0.19311248
vt 0.3490924 0.19311248
vt 0.009836074 0.51287127
vt 0.3490924 0.45437884
vt 0.009836074 0.45437884
vt 0.3490924 0.51287127
vt 0.009836074 0.57526326
vt 0.3490924 0.57526326
vt 0.009836074 0.6337558
vt 0.3490924 0.57526326
vt 0.009836074 0.57526326
vt 0.3490924 0.6337558
vt 0.009836074 0.13072051
vt 0.3490924 0.19311248
vt 0.009836074 0.19311248
vt 0.3490924 0.13072051
vt 0.009836074 0.068328544
vt 0.3490924 0.068328544
vt 0.009836074 0.005936576
vt 0.3490924 0.005936576
vt 0.009836074 0.28280094
vt 0.3490924 0.19701198
vt 0.009836074 0.19701198
vt 0.3490924 0.28280094
vt 0.009836074 0.3646904
vt 0.3490924 0.3646904
vt 0.009836074 0.44657984
vt 0.3490924 0.44657984
vt 0.009836074 0.25940394
vt 0.3490924 0.19701198
vt 0.009836074 0.19701198
vt 0.3490924 0.25940394
vt 0.009836074 0.25940394
vt 0.3490924 0.3217959
vt 0.3490924 0.25940394
vt 0.009836074 0.3217959
vt 0.009836074 0.38418788
vt 0.3490924 0.38418788
vt 0.41148436 0.23600696
vt 0.3646904 0.3139969
vt 0.41148436 0.3139969
vt 0.3646904 0.23600696
vt 0.41148436 0.158017
vt 0.3646904 0.158017
vt 0.41148436 0.083926536
vt 0.3646904 0.083926536
vt 0.41148436 0.005936576
vt 0.3646904 0.005936576
vt 0.41148436 0.39198688
vt 0.3646904 0.3139969
vt 0.41148436 0.3139969
vt 0.3646904 0.39198688
vt 0.41148436 0.46997684
vt 0.3646904 0.39198688
vt 0.41148436 0.39198688
vt 0.3646904 0.46997684
vt 0.41148436 0.54406726
vt 0.3646904 0.54406726
vt 0.41148436 0.6220572
vt 0.3646904 0.6220572
vt 0.41148436 0.23600696
vt 0.3646904 0.3139969
vt 0.41148436 0.3139969
vt 0.3646904 0.23600696
vt 0.41148436 0.158017
vt 0.3646904 0.23600696
vt 0.41148436 0.23600696
vt 0.3646904 0.158017
vt 0.41148436 0.083926536
vt 0.3646904 0.083926536
vt 0.41148436 0.005936576
vt 0.3646904 0.005936576
vt 0.3646904 0.54406726
vt 0.41148436 0.6220572
vt 0.3646904 0.6220572
vt 0.41148436 0.54406726
vt 0.3646904 0.46997684
vt 0.41148436 0.54406726
vt 0.3646904 0.54406726
vt 0.41148436 0.46997684
vt 0.3646904 0.39198688
vt 0.41148436 0.39198688
vt 0.3646904 0.3139969
vt 0.41148436 0.39198688
vt 0.3646904 0.39198688
vt 0.41148436 0.3139969
vt 0.5401678 0.39978588
vt 0.52456975 0.3568914
vt 0.52456975 0.39978588
vt 0.5401678 0.3568914
vt 0.52456975 0.3139969
vt 0.5401678 0.3139969
vt 0.52456975 0.27110243
vt 0.5401678 0.27110243
vt 0.52456975 0.3139969
vt 0.5401678 0.3139969
vt 0.52456975 0.3568914
vt 0.5401678 0.3568914
vt 0.52456975 0.39978588
vt 0.5401678 0.39978588
vt 0.5401678 0.3139969
vt 0.52456975 0.3568914
vt 0.52456975 0.3139969
vt 0.5401678 0.3568914
vt 0.52456975 0.39978588
vt 0.5401678 0.39978588
vt 0.52456975 0.44268036
vt 0.5401678 0.44268036
vt 0.52456975 0.39978588
vt 0.5401678 0.39978588
vt 0.5401678 0.39978588
vt 0.52456975 0.3568914
vt 0.52456975 0.39978588
vt 0.5401678 0.3568914
vt 0.52456975 0.3139969
vt 0.5401678 0.3139969
vt 0.52456975 0.27110243
vt 0.5401678 0.27110243
vt 0.52456975 0.3139969
vt 0.5401678 0.3139969
vt 0.5401678 0.39978588
vt 0.52456975 0.44268036
vt 0.52456975 0.39978588
vt 0.5401678 0.44268036
vt 0.52456975 0.39978588
vt 0.5401678 0.39978588
vt 0.9730121 0.08002704
vt 0.99640906 0.11902202
vt 0.9730121 0.11902202
vt 0.99640906 0.08002704
vt 0.9730121 0.041032057
vt 0.99640906 0.041032057
vt 0.9730121 0.0020370781
vt 0.99640906 0.0020370781
vt 0.9730121 0.041032057
vt 0.99640906 0.041032057
vt 0.9730121 0.08002704
vt 0.99640906 0.08002704
vt 0.9730121 0.11902202
vt 0.99640906 0.11902202
vt 0.9730121 0.08002704
vt 0.99640906 0.041032057
vt 0.9730121 0.041032057
vt 0.99640906 0.08002704
vt 0.9730121 0.11902202
vt 0.99640906 0.11902202
vt 0.9730121 0.158017
vt 0.99640906 0.158017
vt 0.9730121 0.11902202
vt 0.99640906 0.11902202
vt 0.9730121 0.08002704
vt 0.99640906 0.11902202
vt 0.9730121 0.11902202
vt 0.99640906 0.08002704
vt 0.9730121 0.041032057
vt 0.99640906 0.041032057
vt 0.9730121 0.0020370781
vt 0.99640906 0.0020370781
vt 0.9730121 0.041032057
vt 0.99640906 0.041032057
vt 0.9730121 0.158017
vt 0.99640906 0.11902202
vt 0.9730121 0.11902202
vt 0.99640906 0.158017
vt 0.9730121 0.11902202
vt 0.99640906 0.11902202
vt 0.73124325 0.5635648
vt 0.7351427 0.57526326
vt 0.75074065 0.56746423
vt 0.7156452 0.57526326
vt 0.7546402 0.54796684
vt 0.7663387 0.55576575
vt 0.77023816 0.53626835
vt 0.70784616 0.5596653
vt 0.70004725 0.5713638
vt 0.68834877 0.55576575
vt 0.7585397 0.5206703
vt 0.77023816 0.5206703
vt 0.76243913 0.5011728
vt 0.6922482 0.53626835
vt 0.68054974 0.5401678
vt 0.68054974 0.5206703
vt 0.74294174 0.5011728
vt 0.75074065 0.48947433
vt 0.7351427 0.4855748
vt 0.6961477 0.51287127
vt 0.6844492 0.50507236
vt 0.70004725 0.4933738
vt 0.71954465 0.49727333
vt 0.7156452 0.4855748
vt 0.70784616 0.5323688
vt 0.70784616 0.5206703
vt 0.7273437 0.5284693
vt 0.7156452 0.54796684
vt 0.71954465 0.5089718
vt 0.73124325 0.54796684
vt 0.7351427 0.51287127
vt 0.74294174 0.5401678
vt 0.74294174 0.52456975
vt 0.5830623 0.10342403
vt 0.64935374 0.10342403
vt 0.6220572 0.12682101
vt 0.6220572 0.064429045
vt 0.5635648 0.1541175
vt 0.6844492 0.087826036
vt 0.60645926 0.1619165
vt 0.6727507 0.044931557
vt 0.5635648 0.20871048
vt 0.71954465 0.087826036
vt 0.60645926 0.20091148
vt 0.7273437 0.044931557
vt 0.5830623 0.25940394
vt 0.7546402 0.10342403
vt 0.6220572 0.23600696
vt 0.7780372 0.064429045
vt 0.6220572 0.2983989
vt 0.78193665 0.12682101
vt 0.64935374 0.25940394
vt 0.8170321 0.10342403
vt 0.6727507 0.31789643
vt 0.79363513 0.1619165
vt 0.68054974 0.27500194
vt 0.8404292 0.1541175
vt 0.7273437 0.31789643
vt 0.79363513 0.20091148
vt 0.71954465 0.27500194
vt 0.8404292 0.20871048
vt 0.7780372 0.2983989
vt 0.78193665 0.23600696
vt 0.7546402 0.25940394
vt 0.8170321 0.25940394
vt 0.5947608 0.38808736
vt 0.6649517 0.42318285
vt 0.6532532 0.3646904
vt 0.6259568 0.43488136
vt 0.5518663 0.43098184
vt 0.7039467 0.42318285
vt 0.7156452 0.3646904
vt 0.59866023 0.46607733
vt 0.5284693 0.48947433
vt 0.74294174 0.43488136
vt 0.7741376 0.38808736
vt 0.5830623 0.5011728
vt 0.5284693 0.5518663
vt 0.77023816 0.46607733
vt 0.8170321 0.43098184
vt 0.5830623 0.5401678
vt 0.5518663 0.6103587
vt 0.7858362 0.5011728
vt 0.8404292 0.48947433
vt 0.59866023 0.5791627
vt 0.5947608 0.6532532
vt 0.7858362 0.5401678
vt 0.8404292 0.5518663
vt 0.6259568 0.60645926
vt 0.6532532 0.67665017
vt 0.77023816 0.5791627
vt 0.8170321 0.6103587
vt 0.6649517 0.6220572
vt 0.7156452 0.67665017
vt 0.74294174 0.60645926
vt 0.7741376 0.6532532
vt 0.7039467 0.6220572
vt 0.78193665 0.5401678
vt 0.78193665 0.51677084
vt 0.7741376 0.5635648
vt 0.7585397 0.5791627
vt 0.7741376 0.49727333
vt 0.7351427 0.58696175
vt 0.71174574 0.58696175
vt 0.7585397 0.48167533
vt 0.6922482 0.5791627
vt 0.7351427 0.46997684
vt 0.67665017 0.5635648
vt 0.71174574 0.46997684
vt 0.6649517 0.5401678
vt 0.6922482 0.48167533
vt 0.6649517 0.51677084
vt 0.67665017 0.49727333
vt 0.7351427 0.009836074
vt 0.7858362 0.05663005
vt 0.7975347 0.03323306
vt 0.73124325 0.03323306
vt 0.8287307 0.09562503
vt 0.6649517 0.009836074
vt 0.8482281 0.083926536
vt 0.6727507 0.03323306
vt 0.8482281 0.150218
vt 0.6025598 0.03323306
vt 0.87552464 0.1463185
vt 0.61815774 0.05663005
vt 0.8482281 0.21260996
vt 0.55576575 0.083926536
vt 0.87552464 0.21650946
vt 0.57526326 0.09562503
vt 0.8287307 0.26720294
vt 0.5284693 0.1463185
vt 0.8482281 0.27890143
vt 0.5518663 0.150218
vt 0.7858362 0.3061979
vt 0.5284693 0.21650946
vt 0.7975347 0.3295949
vt 0.5518663 0.21260996
vt 0.73124325 0.3295949
vt 0.55576575 0.27890143
vt 0.7351427 0.3529919
vt 0.57526326 0.26720294
vt 0.6727507 0.3295949
vt 0.6025598 0.3295949
vt 0.6649517 0.3529919
vt 0.61815774 0.3061979
vt 0.7156452 0.47777584
vt 0.73904216 0.47387633
vt 0.7156452 0.47387633
vt 0.7351427 0.47777584
vt 0.6961477 0.4855748
vt 0.7585397 0.4855748
vt 0.6961477 0.48167533
vt 0.7546402 0.48947433
vt 0.6844492 0.5011728
vt 0.7741376 0.5011728
vt 0.68054974 0.49727333
vt 0.77023816 0.5011728
vt 0.67665017 0.5206703
vt 0.78193665 0.5206703
vt 0.66885126 0.51677084
vt 0.7741376 0.5206703
vt 0.67665017 0.5401678
vt 0.78193665 0.5401678
vt 0.66885126 0.5401678
vt 0.7741376 0.5401678
vt 0.68054974 0.55576575
vt 0.77023816 0.5635648
vt 0.67665017 0.5596653
vt 0.7663387 0.5596653
vt 0.6961477 0.5713638
vt 0.7546402 0.5791627
vt 0.6922482 0.57526326
vt 0.7546402 0.5713638
vt 0.7156452 0.5791627
vt 0.7351427 0.5830623
vt 0.71174574 0.5830623
vt 0.7351427 0.5791627
vn -0.07935512 0.5237435 0.8481719
vn -0.39677536 0.46025944 0.79418546
vn -0.07935512 0.87290585 0.48139188
vn -0.39677536 -0.46025944 0.79418546
vn -0.07935512 -0.5237435 0.8481719
vn -0.047613025 -0.8411638 0.5386803
vn -0.079116344 -0.9968654 -0
vn -0.49200153 -0.46025944 0.7389829
vn -0.49200153 0.46025944 0.7389829
vn -0.07935512 0.5237435 -0.8481719
vn -0.07935512 0.87290585 -0.48139188
vn -0.39677536 0.46025944 -0.79418546
vn -0.39677536 -0.46025944 -0.79418546
vn -0.07935512 -0.5237435 -0.8481719
vn -0.46025944 0.46025944 -0.7591591
vn -0.46025944 -0.46025944 -0.7591591
vn -0.047613025 -0.8411638 -0.5386803
vn -0.079116344 -0.9968654 -0
vn -0.4534572 0.891278 -0
vn -0.39677536 0.46025944 0.79418546
vn -0.49200153 0.46025944 0.7389829
vn -0.39677536 0.90464795 0.15550359
vn -0.46025944 0.46025944 -0.7591591
vn -0.39677536 0.46025944 -0.79418546
vn -0.07935512 0.87290585 -0.48139188
vn -0.079116344 0.9968654 -0
vn -0.07935512 0.87290585 0.48139188
vn -0.4534572 -0.89127797 -0
vn -0.39677536 -0.46025944 -0.79418546
vn -0.46025944 -0.46025944 -0.7591591
vn -0.39677536 -0.9046479 0.15550397
vn -0.079116344 -0.9968654 -0
vn -0.49200153 -0.46025944 0.7389829
vn -0.39677536 -0.46025944 0.79418546
vn -0.20632327 -0.015870988 0.97835517
vn -0.20632327 -0.015870988 0.97835517
vn -0.20632327 -0.015870988 0.97835517
vn -0.20632327 -0.015870988 0.97835517
vn -0.20632327 0.968132 -0.1419547
vn -0.2684583 0.96329135 -0
vn -0.2684583 0.96329135 -0
vn -0.14142141 0.98994946 -0
vn -0.110431515 0.9938838 -0
vn -0.39677536 0.90464795 0.15550359
vn -0.079116344 0.9968654 -0
vn -0.110431515 0.9938838 -0
vn -0.968132 -0.015870988 0.24993704
vn -0.8411639 -0.015870988 0.5405474
vn -0.968132 -0.015870988 0.24993704
vn -0.8094218 -0.015870988 0.58701324
vn -0.7776798 -0.015870988 0.6284602
vn -0.8094218 0.015871048 0.58701324
vn -0.9363899 0.015871048 0.35060233
vn -0.9363899 0.015871048 0.35060233
vn -0.3332913 -0.015870988 0.9426903
vn -0.3332913 -0.015870988 0.9426903
vn -0.3332913 0.015871048 0.9426903
vn -0.3332913 -0.015870988 0.9426903
vn 0.015870988 -0.999874 -0.00034526698
vn -0.172001 -0.9850967 -0
vn -0.30154932 -0.9363899 0.17956024
vn -0.079116344 -0.9968654 -0
vn 0.015870988 -0.999874 -0.00034526698
vn -0.047613025 -0.96813196 0.245873
vn -0.23806524 -0.96813196 -0.07775256
vn -0.2684583 -0.9632913 -0
vn -0.999874 -0.015870988 -0.00034665503
vn -0.999874 -0.015870988 -0.00034665503
vn -0.999874 -0.015870988 -0.00034665503
vn -0.999874 -0.015870988 -0.00034665503
vn 0.07935506 0.5237435 -0.8481719
vn -0.46025944 -0.46025944 -0.7591591
vn -0.46025944 0.46025944 -0.7591591
vn 0.07935506 -0.5237435 -0.8481719
vn -0.4534572 0.891278 -0
vn 0.07935506 0.5237435 -0.8481719
vn -0.46025944 0.46025944 -0.7591591
vn 0.079116285 0.9968654 -0
vn -0.49200153 0.46025944 0.7389829
vn 0.07935506 0.5237435 0.8481719
vn 0.07935506 -0.5237435 0.8481719
vn -0.49200153 0.46025944 0.7389829
vn -0.49200153 -0.46025944 0.7389829
vn 0.07935506 0.5237435 0.8481719
vn -0.4534572 -0.89127797 -0
vn 0.07935506 -0.5237435 0.8481719
vn -0.49200153 -0.46025944 0.7389829
vn 0.079116285 -0.9968654 -0
vn -0.46025944 -0.46025944 -0.7591591
vn 0.07935506 -0.5237435 -0.8481719
vn 0.079116285 0.9968654 -0
vn 0.047613025 0.7141957 -0.6983248
vn 0.07935506 0.5237435 -0.8481719
vn 0.079116285 0.9968654 -0
vn -0.015871048 0.7141957 -0.6997661
vn 0.07935506 0.5237435 0.8481719
vn -0.015871048 0.999874 -0.00034526698
vn 0.07935506 0.7141957 0.69543314
vn -0.015871048 0.7141957 0.6997661
vn 0.079116285 -0.9968654 -0
vn 0.047613025 -0.7141957 0.6983248
vn 0.07935506 -0.5237435 0.8481719
vn 0.079116285 -0.9968654 -0
vn -0.015871048 -0.7141957 0.6997661
vn -0.015871048 -0.999874 -0.00034526698
vn 0.07935506 -0.5237435 -0.8481719
vn 0.079116285 -0.9968654 -0
vn 0.079116285 -0.9968654 -0
vn 0.07935506 -0.7141957 -0.69543314
vn -0.015871048 -0.999874 -0.00034526698
vn -0.015871048 -0.7141957 -0.6997661
vn -0.015871048 0.015871048 -0.99974805
vn 0.047613025 0.7141957 -0.6983248
vn -0.015871048 0.7141957 -0.6997661
vn 0.047613025 0.015871048 -0.9987398
vn 0.07935506 0.5237435 -0.8481719
vn -0.015871048 -0.7141957 -0.6997661
vn 0.07935506 -0.5237435 -0.8481719
vn 0.07935506 -0.7141957 -0.69543314
vn -0.015871048 0.015871048 0.99974805
vn 0.047613025 -0.7141957 0.6983248
vn -0.015871048 -0.7141957 0.6997661
vn 0.047613025 0.015871048 0.9987398
vn 0.07935506 -0.5237435 0.8481719
vn -0.015871048 0.7141957 0.6997661
vn 0.07935506 0.5237435 0.8481719
vn 0.07935506 0.7141957 0.69543314
vn -0.20632327 -0.015870988 -0.97835517
vn -0.20632327 -0.015870988 -0.97835517
vn -0.20632327 -0.015870988 -0.97835517
vn -0.20632327 -0.015870988 -0.97835517
vn -0.110431515 0.9938838 -0
vn -0.110431515 0.9938838 -0
vn -0.079116344 0.9968654 -0
vn -0.14142141 0.98994946 -0
vn -0.20632327 0.968132 0.1419547
vn -0.39677536 0.90464795 -0.15550359
vn -0.2684583 0.96329135 -0
vn -0.2684583 0.96329135 -0
vn -0.8411639 -0.015870988 -0.5405474
vn -0.968132 -0.015870988 -0.24993704
vn -0.968132 -0.015870988 -0.24993704
vn -0.8094218 -0.015870988 -0.58701324
vn -0.7776798 -0.015870988 -0.6284602
vn -0.8094218 0.015871048 -0.58701324
vn -0.9363899 0.015871048 -0.35060233
vn -0.9363899 0.015871048 -0.35060233
vn -0.3332913 -0.015870988 -0.9426903
vn -0.3332913 -0.015870988 -0.9426903
vn -0.3332913 -0.015870988 -0.9426903
vn -0.3332913 0.015871048 -0.9426903
vn 0.015870988 -0.999874 -0.00034526698
vn -0.30154932 -0.9363899 -0.17956024
vn -0.172001 -0.9850967 -0
vn -0.079116344 -0.9968654 -0
vn 0.015870988 -0.999874 -0.00034526698
vn -0.047613025 -0.96813196 -0.245873
vn -0.23806524 -0.96813196 0.07775256
vn -0.2684583 -0.9632913 -0
vn -0.999874 -0.015870988 -0.00034665503
vn -0.999874 -0.015870988 -0.00034665503
vn -0.999874 -0.015870988 -0.00034665503
vn -0.999874 -0.015870988 -0.00034665503
vn -0.999874 0.015871048 -0.00034391563
vn -0.999874 0.015871048 -0.00034391563
vn -0.999874 0.015871048 -0.00034391563
vn -0.999874 0.015871048 -0.00034391563
vn -0.999874 0.015871048 -0.00034391563
vn -0.999874 0.015871048 -0.00034391563
vn -0.999874 0.015871048 -0.00034391563
vn -0.999874 0.015871048 -0.00034391563
vn 0.87290585 0.3332913 -0.35630366
vn 0.5237435 0.65071166 -0.54978824
vn 0.65071166 0.3332913 -0.68226916
vn 0.68245363 0.65071166 -0.33291352
vn 0.7459377 0.65071166 -0.14195523
vn 0.9363899 0.3332913 -0.10995822
vn 0.30154932 0.65071166 -0.69688046
vn 0.65071166 0.3332913 -0.68226916
vn 0.5237435 0.65071166 -0.54978824
vn 0.36503333 0.3332913 -0.8692914
vn -0.7141957 0.015871048 -0.6997661
vn -0.87290585 0.3332913 -0.35630366
vn -0.9363899 0.015871048 -0.35060233
vn -0.65071166 0.3332913 -0.68226916
vn -0.39677536 0.015871048 -0.9177785
vn -0.3650334 0.3332913 -0.86929137
vn -0.5237435 0.65071166 -0.54978824
vn -0.015871048 0.015871048 -0.99974805
vn -0.30154932 0.65071166 -0.69688046
vn -0.015871048 0.3332913 -0.9426903
vn 0.39677536 0.015871048 -0.9177785
vn -0.015871048 0.65071166 -0.759159
vn 0.36503333 0.3332913 -0.8692914
vn 0.30154932 0.65071166 -0.69688046
vn 0.7141957 0.015871048 -0.6997661
vn 0.65071166 0.3332913 -0.68226916
vn 0.9363899 0.015871048 -0.35060233
vn 0.87290585 0.3332913 -0.35630366
vn -0.9363899 0.015871048 -0.35060233
vn -0.9363899 0.3332913 -0.10995822
vn -0.999874 0.015871048 -0.00034391563
vn -0.87290585 0.3332913 -0.35630366
vn -0.7459378 0.65071166 -0.1419546
vn -0.68245375 0.65071166 -0.33291325
vn -0.65071166 0.3332913 -0.68226916
vn -0.5237435 0.65071166 -0.54978824
vn -0.7141957 0.015871048 0.6997661
vn -0.3650334 0.3332913 0.86929137
vn -0.39677536 0.015871048 0.9177785
vn -0.65071166 0.3332913 0.68226916
vn -0.9363899 0.015871048 0.35060233
vn -0.87290585 0.3332913 0.35630366
vn -0.5237435 0.65071166 0.54978824
vn -0.999874 0.015871048 -0.00034391563
vn -0.68245375 0.65071166 0.33291325
vn -0.9363899 0.3332913 -0.10995822
vn -0.7459378 0.65071166 -0.1419546
vn 0.7141957 0.015871048 0.6997661
vn 0.87290585 0.3332913 0.35630366
vn 0.9363899 0.015871048 0.35060233
vn 0.65071166 0.3332913 0.68226916
vn 0.39677536 0.015871048 0.9177785
vn 0.36503333 0.3332913 0.8692914
vn 0.5237435 0.65071166 0.54978824
vn -0.015871048 0.015871048 0.99974805
vn 0.30154932 0.65071166 0.69688046
vn -0.015871048 0.3332913 0.9426903
vn -0.39677536 0.015871048 0.9177785
vn -0.015871048 0.65071166 0.759159
vn -0.3650334 0.3332913 0.86929137
vn -0.30154932 0.65071166 0.69688046
vn -0.65071166 0.3332913 0.68226916
vn -0.5237435 0.65071166 0.54978824
vn 0.9363899 0.015871048 0.35060233
vn 0.9363899 0.3332913 -0.10995822
vn 0.999874 0.015871048 -0.00034391563
vn 0.87290585 0.3332913 0.35630366
vn 0.7459377 0.65071166 -0.14195523
vn 0.68245363 0.65071166 0.33291352
vn 0.65071166 0.3332913 0.68226916
vn 0.5237435 0.65071166 0.54978824
vn 0.999874 0.015871048 -0.00034391563
vn 0.87290585 0.3332913 -0.35630366
vn 0.9363899 0.015871048 -0.35060233
vn 0.9363899 0.3332913 -0.10995822
vn -0.7141957 0.07935512 -0.69543314
vn -0.9363899 0.07935512 -0.34187227
vn -0.9363899 0.07935512 -0.34187227
vn -0.7141957 0.07935512 -0.69543314
vn -0.39677536 0.07935512 -0.91447914
vn -0.7141957 0.07935512 -0.69543314
vn -0.7141957 0.07935512 -0.69543314
vn -0.39677536 0.07935512 -0.91447914
vn -0.015871048 0.07935512 -0.9967201
vn -0.015871048 0.07935512 -0.9967201
vn 0.39677536 0.07935512 -0.91447914
vn 0.39677536 0.07935512 -0.91447914
vn 0.7141957 0.07935512 -0.69543314
vn 0.39677536 0.07935512 -0.91447914
vn 0.39677536 0.07935512 -0.91447914
vn 0.7141957 0.07935512 -0.69543314
vn 0.9363899 0.07935512 -0.34187227
vn 0.9363899 0.07935512 -0.34187227
vn 0.9968654 0.079116344 -0
vn 0.9363899 0.07935512 -0.34187227
vn 0.9363899 0.07935512 -0.34187227
vn 0.9968654 0.079116344 -0
vn 0.9363899 0.07935512 0.34187227
vn 0.9968654 0.079116344 -0
vn 0.9968654 0.079116344 -0
vn 0.9363899 0.07935512 0.34187227
vn 0.7141957 0.07935512 0.69543314
vn 0.7141957 0.07935512 0.69543314
vn 0.39677536 0.07935512 0.91447914
vn 0.39677536 0.07935512 0.91447914
vn -0.015871048 0.07935512 0.9967201
vn 0.39677536 0.07935512 0.91447914
vn 0.39677536 0.07935512 0.91447914
vn -0.015871048 0.07935512 0.9967201
vn -0.39677536 0.07935512 0.91447914
vn -0.39677536 0.07935512 0.91447914
vn -0.7141957 0.07935512 0.69543314
vn -0.7141957 0.07935512 0.69543314
vn -0.9363899 0.07935512 0.34187227
vn -0.7141957 0.07935512 0.69543314
vn -0.7141957 0.07935512 0.69543314
vn -0.9363899 0.07935512 0.34187227
vn -0.9363899 0.07935512 0.34187227
vn -0.9968654 0.079116344 -0
vn -0.9363899 0.07935512 0.34187227
vn -0.9968654 0.079116344 -0
vn -0.9363899 0.07935512 -0.34187227
vn -0.9363899 0.07935512 -0.34187227
vn -0.39677536 -0.015870988 -0.9177785
vn -0.7141957 -0.015870988 -0.6997661
vn -0.7141957 -0.015870988 -0.6997661
vn -0.39677536 -0.015870988 -0.9177785
vn -0.015871048 -0.015870988 -0.99974805
vn -0.015871048 -0.015870988 -0.99974805
vn 0.39677536 -0.015870988 -0.9177785
vn 0.39677536 -0.015870988 -0.9177785
vn 0.7141957 -0.015870988 -0.6997661
vn 0.7141957 -0.015870988 -0.6997661
vn 0.9363899 -0.015870988 -0.35060233
vn 0.7141957 -0.015870988 -0.6997661
vn 0.7141957 -0.015870988 -0.6997661
vn 0.9363899 -0.015870988 -0.35060233
vn 0.999874 -0.015870988 -0.00034665503
vn 0.9363899 -0.015870988 -0.35060233
vn 0.9363899 -0.015870988 -0.35060233
vn 0.999874 -0.015870988 -0.00034665503
vn 0.9363899 -0.015870988 0.35060233
vn 0.9363899 -0.015870988 0.35060233
vn 0.7141957 -0.015870988 0.6997661
vn 0.7141957 -0.015870988 0.6997661
vn 0.39677536 -0.015870988 0.9177785
vn 0.7141957 -0.015870988 0.6997661
vn 0.7141957 -0.015870988 0.6997661
vn 0.39677536 -0.015870988 0.9177785
vn -0.015871048 -0.015870988 0.99974805
vn 0.39677536 -0.015870988 0.9177785
vn 0.39677536 -0.015870988 0.9177785
vn -0.015871048 -0.015870988 0.99974805
vn -0.39677536 -0.015870988 0.9177785
vn -0.39677536 -0.015870988 0.9177785
vn -0.7141957 -0.015870988 0.6997661
vn -0.7141957 -0.015870988 0.6997661
vn -0.9363899 -0.015870988 -0.35060233
vn -0.7141957 -0.015870988 -0.6997661
vn -0.7141957 -0.015870988 -0.6997661
vn -0.9363899 -0.015870988 -0.35060233
vn -0.999874 -0.015870988 -0.00034665503
vn -0.9363899 -0.015870988 -0.35060233
vn -0.9363899 -0.015870988 -0.35060233
vn -0.999874 -0.015870988 -0.00034665503
vn -0.9363899 -0.015870988 0.35060233
vn -0.9363899 -0.015870988 0.35060233
vn -0.7141957 -0.015870988 0.6997661
vn -0.9363899 -0.015870988 0.35060233
vn -0.9363899 -0.015870988 0.35060233
vn -0.7141957 -0.015870988 0.6997661
vn -0.9363899 -0.015870988 -0.35060233
vn -0.7141957 -0.015870988 -0.6997661
vn -0.9363899 0.015871048 -0.35060233
vn -0.7141957 -0.015870988 -0.6997661
vn -0.39677536 0.015871048 -0.9177785
vn -0.39677536 0.015871048 -0.9177785
vn -0.015871048 0.015871048 -0.99974805
vn -0.015871048 0.015871048 -0.99974805
vn 0.39677536 0.015871048 -0.9177785
vn 0.39677536 0.015871048 -0.9177785
vn 0.7141957 -0.015870988 -0.6997661
vn 0.7141957 -0.015870988 -0.6997661
vn 0.9363899 -0.015870988 -0.35060233
vn 0.9363899 0.015871048 -0.35060233
vn -0.39677536 0.015871048 0.9177785
vn -0.7141957 -0.015870988 0.6997661
vn -0.39677536 0.015871048 0.9177785
vn -0.7141957 -0.015870988 0.6997661
vn -0.9363899 -0.015870988 0.35060233
vn -0.9363899 0.015871048 0.35060233
vn -0.999874 0.015871048 -0.00034391563
vn -0.999874 0.015871048 -0.00034391563
vn -0.9363899 0.015871048 -0.35060233
vn -0.9363899 -0.015870988 -0.35060233
vn 0.9363899 -0.015870988 0.35060233
vn 0.7141957 -0.015870988 0.6997661
vn 0.9363899 0.015871048 0.35060233
vn 0.7141957 -0.015870988 0.6997661
vn 0.39677536 0.015871048 0.9177785
vn 0.39677536 0.015871048 0.9177785
vn -0.015871048 0.015871048 0.99974805
vn -0.015871048 0.015871048 0.99974805
vn -0.39677536 0.015871048 0.9177785
vn -0.39677536 0.015871048 0.9177785
vn 0.9363899 0.015871048 -0.35060233
vn 0.999874 0.015871048 -0.00034391563
vn 0.9363899 -0.015870988 -0.35060233
vn 0.999874 0.015871048 -0.00034391563
vn 0.9363899 0.015871048 0.35060233
vn 0.9363899 -0.015870988 0.35060233
vn 0.7141957 0.015871048 -0.6997661
vn 0.39677536 0.015871048 -0.9177785
vn 0.39677536 0.015871048 -0.9177785
vn 0.7141957 0.015871048 -0.6997661
vn 0.9363899 0.015871048 -0.35060233
vn 0.9363899 0.015871048 -0.35060233
vn 0.999874 0.015871048 -0.00034391563
vn 0.999874 0.015871048 -0.00034391563
vn 0.9363899 0.015871048 0.35060233
vn 0.9363899 0.015871048 0.35060233
vn 0.7141957 0.015871048 0.6997661
vn 0.7141957 0.015871048 0.6997661
vn 0.39677536 0.015871048 0.9177785
vn 0.39677536 0.015871048 0.9177785
vn -0.7141957 0.015871048 -0.6997661
vn -0.9363899 0.015871048 -0.35060233
vn -0.9363899 0.015871048 -0.35060233
vn -0.7141957 0.015871048 -0.6997661
vn -0.39677536 0.015871048 -0.9177785
vn -0.39677536 0.015871048 -0.9177785
vn -0.015871048 0.015871048 -0.99974805
vn -0.015871048 0.015871048 -0.99974805
vn 0.39677536 0.015871048 -0.9177785
vn 0.39677536 0.015871048 -0.9177785
vn -0.7141957 0.015871048 0.6997661
vn -0.39677536 0.015871048 0.9177785
vn -0.39677536 0.015871048 0.9177785
vn -0.7141957 0.015871048 0.6997661
vn -0.9363899 0.015871048 0.35060233
vn -0.9363899 0.015871048 0.35060233
vn -0.999874 0.015871048 -0.00034391563
vn -0.999874 0.015871048 -0.00034391563
vn -0.9363899 0.015871048 -0.35060233
vn -0.9363899 0.015871048 -0.35060233
vn -0.015871048 0.015871048 0.99974805
vn 0.39677536 0.015871048 0.9177785
vn 0.39677536 0.015871048 0.9177785
vn -0.015871048 0.015871048 0.99974805
vn -0.39677536 0.015871048 0.9177785
vn -0.39677536 0.015871048 0.9177785
vn 0.2063232 0.968132 0.1419547
vn 0.30154932 0.90464795 0.3011313
vn 0.14283913 0.9363899 0.32057896
vn 0.36320817 0.931708 -0
vn -0.015871048 0.968132 0.24993704
vn -0.015871048 0.90464795 0.42586404
vn -0.1428392 0.9363899 0.32057896
vn 0.29738364 0.95475805 -0
vn 0.42808628 0.9037378 -0
vn 0.36320817 0.931708 -0
vn -0.20632327 0.968132 0.1419547
vn -0.30154932 0.90464795 0.3011313
vn -0.36320823 0.931708 -0
vn 0.2063232 0.968132 -0.1419547
vn 0.30154932 0.90464795 -0.3011313
vn 0.14283913 0.9363899 -0.32057896
vn -0.29738364 0.95475805 -0
vn -0.42808634 0.9037378 -0
vn -0.36320823 0.931708 -0
vn -0.015871048 0.968132 -0.24993704
vn -0.015871048 0.90464795 -0.42586404
vn -0.1428392 0.9363899 -0.32057896
vn -0.20632327 0.968132 -0.1419547
vn -0.30154932 0.90464795 -0.3011313
vn 0.079116285 0.9968654 -0
vn -0.015871048 0.999874 -0.00034526698
vn 0.015870988 0.999874 -0.00034526698
vn 0.110431515 0.9938838 -0
vn -0.079116344 0.9968654 -0
vn 0.079116285 0.9968654 -0
vn -0.110431515 0.9938838 -0
vn -0.015871048 0.999874 -0.00034526698
vn -0.079116344 0.9968654 -0
vn -0.3332913 -0.9363899 0.10995819
vn -0.26980734 -0.9363899 0.22445023
vn -0.3332913 -0.9363899 0.10995819
vn -0.26980734 -0.9363899 0.22445023
vn -0.36320823 -0.931708 -0
vn -0.1428392 -0.9363899 0.32057896
vn -0.36320823 -0.931708 -0
vn -0.1428392 -0.9363899 0.32057896
vn -0.3332913 -0.9363899 -0.10995819
vn -0.015871048 -0.9363899 0.35060233
vn -0.3332913 -0.9363899 -0.10995819
vn -0.015871048 -0.9363899 0.35060233
vn -0.26980734 -0.9363899 -0.22445023
vn 0.14283913 -0.9363899 0.32057896
vn -0.26980734 -0.9363899 -0.22445023
vn 0.14283913 -0.9363899 0.32057896
vn -0.1428392 -0.9363899 -0.32057896
vn 0.26980728 -0.9363899 0.22445023
vn -0.1428392 -0.9363899 -0.32057896
vn 0.26980728 -0.9363899 0.22445023
vn -0.015871048 -0.9363899 -0.35060233
vn 0.33329135 -0.9363899 0.10995791
vn -0.015871048 -0.9363899 -0.35060233
vn 0.33329135 -0.9363899 0.10995791
vn 0.14283913 -0.9363899 -0.32057896
vn 0.36320817 -0.931708 -0
vn 0.14283913 -0.9363899 -0.32057896
vn 0.36320817 -0.931708 -0
vn 0.26980728 -0.9363899 -0.22445023
vn 0.33329135 -0.9363899 -0.10995791
vn 0.26980728 -0.9363899 -0.22445023
vn 0.33329135 -0.9363899 -0.10995791
vn -0.30154932 0.90464795 0.3011313
vn -0.07935512 0.968132 0.23753566
vn -0.17458117 0.90464795 0.3887589
vn -0.17458117 0.968132 0.17956008
vn -0.39677536 0.90464795 0.15550359
vn 0.015870988 0.968132 0.24993704
vn 0.015870988 0.90464795 0.42586404
vn -0.23806524 0.968132 0.07775179
vn -0.42808634 0.9037378 -0
vn 0.07935506 0.968132 0.23753566
vn 0.17458117 0.90464795 0.3887589
vn -0.23806524 0.968132 -0.07775179
vn -0.39677536 0.90464795 -0.15550359
vn 0.17458117 0.968132 0.17956008
vn 0.30154932 0.90464795 0.3011313
vn -0.23806524 0.968132 -0.07775179
vn -0.30154932 0.90464795 -0.3011313
vn 0.23806524 0.968132 0.07775179
vn 0.39677536 0.90464795 0.15550359
vn -0.17458117 0.968132 -0.17956008
vn -0.17458117 0.90464795 -0.3887589
vn 0.23806524 0.968132 -0.07775179
vn 0.42808628 0.9037378 -0
vn -0.07935512 0.968132 -0.23753566
vn -0.015871048 0.90464795 -0.42586404
vn 0.23806524 0.968132 -0.07775179
vn 0.39677536 0.90464795 -0.15550359
vn -0.015871048 0.968132 -0.24993704
vn 0.17458117 0.90464795 -0.3887589
vn 0.17458117 0.968132 -0.17956008
vn 0.30154932 0.90464795 -0.3011313
vn 0.07935506 0.968132 -0.23753566
vn 0.015870988 0.999874 -0.00034526698
vn -0.015871048 0.999874 -0.00034526698
vn -0.015871048 0.999874 -0.00034526698
vn -0.015871048 0.999874 -0.00034526698
vn 0.015870988 0.999874 -0.00034526698
vn -0.015871048 0.999874 -0.00034526698
vn -0.015871048 0.999874 -0.00034526698
vn -0.015871048 0.999874 -0.00034526698
vn 0.015870988 0.999874 -0.00034526698
vn 0.015870988 0.999874 -0.00034526698
vn -0.015871048 0.999874 -0.00034526698
vn -0.015871048 0.999874 -0.00034526698
vn -0.015871048 0.999874 -0.00034526698
vn -0.015871048 0.999874 -0.00034526698
vn -0.015871048 0.999874 -0.00034526698
vn -0.015871048 0.999874 -0.00034526698
vn -0.015871048 0.999874 -0.00034526698
vn -0.04756513 0.99886817 -0
vn -0.04756513 0.99886817 -0
vn -0.015871048 0.999874 -0.00034526698
vn -0.04756513 0.99886817 -0
vn -0.015871048 0.999874 -0.00034526698
vn -0.04756513 0.99886817 -0
vn -0.015871048 0.999874 -0.00034526698
vn -0.04756513 0.99886817 -0
vn -0.015871048 0.999874 -0.00034526698
vn -0.04756513 0.99886817 -0
vn -0.015871048 0.999874 -0.00034526698
vn -0.015871048 0.999874 -0.00034526698
vn 0.015870988 0.999874 -0.00034526698
vn -0.015871048 0.999874 -0.00034526698
vn 0.015870988 0.999874 -0.00034526698
vn -0.015871048 0.999874 -0.00034526698
vn 0.015870988 0.999874 -0.00034526698
vn -0.015871048 0.999874 -0.00034526698
vn 0.015870988 0.999874 -0.00034526698
vn 0.015870988 0.999874 -0.00034526698
vn 0.04756513 0.99886817 -0
vn 0.015870988 0.999874 -0.00034526698
vn 0.04756513 0.99886817 -0
vn 0.015870988 0.999874 -0.00034526698
vn 0.04756513 0.99886817 -0
vn 0.015870988 0.999874 -0.00034526698
vn 0.04756513 0.99886817 -0
vn 0.015870988 0.999874 -0.00034526698
vn 0.04756513 0.99886817 -0
vn 0.015870988 0.999874 -0.00034526698
vn 0.04756513 0.99886817 -0
vn 0.04756513 -0.99886817 -0
vn 0.079116285 -0.9968654 -0
vn 0.04756513 -0.99886817 -0
vn 0.079116285 -0.9968654 -0
vn 0.015870988 -0.999874 -0.00034526698
vn 0.110431515 -0.9938838 -0
vn 0.015870988 -0.999874 -0.00034526698
vn 0.110431515 -0.9938838 -0
vn -0.04756513 -0.99886817 -0
vn 0.110431515 -0.9938838 -0
vn -0.04756513 -0.99886817 -0
vn 0.110431515 -0.9938838 -0
vn -0.079116344 -0.9968654 -0
vn 0.110431515 -0.9938838 -0
vn -0.079116344 -0.9968654 -0
vn 0.110431515 -0.9938838 -0
vn -0.110431515 -0.9938838 -0
vn 0.079116285 -0.9968654 -0
vn -0.110431515 -0.9938838 -0
vn 0.079116285 -0.9968654 -0
vn -0.110431515 -0.9938838 -0
vn 0.04756513 -0.99886817 -0
vn -0.110431515 -0.9938838 -0
vn 0.04756513 -0.99886817 -0
vn -0.110431515 -0.9938838 -0
vn -0.015871048 -0.999874 -0.00034526698
vn -0.110431515 -0.9938838 -0
vn -0.015871048 -0.999874 -0.00034526698
vn -0.079116344 -0.9968654 -0
vn -0.04756513 -0.99886817 -0
vn -0.079116344 -0.9968654 -0
vn -0.04756513 -0.99886817 -0
g home_prop_hothturret_01_mesh_0
f 3/3/3 2/2/2 1/1/1
f 2/2/2 4/4/4 1/1/1
f 5/5/5 1/1/1 4/4/4
f 6/6/6 5/5/5 4/4/4
f 6/6/6 4/4/4 7/7/7
f 4/4/4 2/2/2 8/8/8
f 9/9/9 8/8/8 2/2/2
f 12/12/12 11/11/11 10/10/10
f 12/12/12 10/10/10 13/13/13
f 14/14/14 13/13/13 10/10/10
f 12/12/12 13/13/13 15/15/15
f 16/16/16 15/15/15 13/13/13
f 13/13/13 14/14/14 17/17/17
f 17/17/17 18/18/18 13/13/13
f 21/21/21 20/20/20 19/19/19
f 22/22/22 19/19/19 20/20/20
f 19/19/19 22/22/22 23/23/23
f 24/24/24 23/23/23 22/22/22
f 24/24/24 22/22/22 25/25/25
f 26/26/26 25/25/25 22/22/22
f 22/22/22 20/20/20 26/26/26
f 27/27/27 26/26/26 20/20/20
f 30/30/30 29/29/29 28/28/28
f 31/31/31 28/28/28 29/29/29
f 31/31/31 29/29/29 32/32/32
f 28/28/28 31/31/31 33/33/33
f 31/31/31 32/32/32 34/34/34
f 34/34/34 33/33/33 31/31/31
f 37/37/37 36/36/36 35/35/35
f 38/38/38 35/35/35 36/36/36
f 41/41/41 40/40/40 39/39/39
f 42/42/42 41/41/41 39/39/39
f 42/42/42 39/39/39 43/43/43
f 44/44/44 43/43/43 39/39/39
f 45/45/45 42/42/42 43/43/43
f 46/46/46 45/45/45 43/43/43
f 49/49/49 48/48/48 47/47/47
f 50/50/50 47/47/47 48/48/48
f 48/48/48 51/51/51 50/50/50
f 52/52/52 50/50/50 51/51/51
f 51/51/51 53/53/53 52/52/52
f 54/54/54 52/52/52 53/53/53
f 57/57/57 56/56/56 55/55/55
f 58/58/58 55/55/55 56/56/56
f 61/61/61 60/60/60 59/59/59
f 60/60/60 62/62/62 59/59/59
f 62/62/62 63/63/63 59/59/59
f 64/64/64 59/59/59 63/63/63
f 60/60/60 65/65/65 62/62/62
f 60/60/60 66/66/66 65/65/65
f 69/69/69 68/68/68 67/67/67
f 70/70/70 67/67/67 68/68/68
f 73/73/73 72/72/72 71/71/71
f 74/74/74 71/71/71 72/72/72
f 77/77/77 76/76/76 75/75/75
f 78/78/78 75/75/75 76/76/76
f 75/75/75 78/78/78 79/79/79
f 80/80/80 79/79/79 78/78/78
f 83/83/83 82/82/82 81/81/81
f 84/84/84 81/81/81 82/82/82
f 87/87/87 86/86/86 85/85/85
f 88/88/88 85/85/85 86/86/86
f 85/85/85 88/88/88 89/89/89
f 90/90/90 89/89/89 88/88/88
f 93/93/93 92/92/92 91/91/91
f 94/94/94 91/91/91 92/92/92
f 92/92/92 95/95/95 94/94/94
f 91/91/91 94/94/94 96/96/96
f 97/97/97 94/94/94 95/95/95
f 98/98/98 96/96/96 94/94/94
f 94/94/94 97/97/97 98/98/98
f 99/99/99 98/98/98 97/97/97
f 102/102/102 101/101/101 100/100/100
f 103/103/103 100/100/100 101/101/101
f 101/101/101 104/104/104 103/103/103
f 105/105/105 103/103/103 104/104/104
f 108/108/108 107/107/107 106/106/106
f 109/109/109 106/106/106 107/107/107
f 107/107/107 110/110/110 109/109/109
f 111/111/111 109/109/109 110/110/110
f 114/114/114 113/113/113 112/112/112
f 115/115/115 112/112/112 113/113/113
f 115/115/115 113/113/113 116/116/116
f 112/112/112 115/115/115 117/117/117
f 116/116/116 118/118/118 115/115/115
f 119/119/119 117/117/117 115/115/115
f 118/118/118 119/119/119 115/115/115
f 122/122/122 121/121/121 120/120/120
f 123/123/123 120/120/120 121/121/121
f 123/123/123 121/121/121 124/124/124
f 120/120/120 123/123/123 125/125/125
f 124/124/124 126/126/126 123/123/123
f 127/127/127 125/125/125 123/123/123
f 126/126/126 127/127/127 123/123/123
f 130/130/130 129/129/129 128/128/128
f 131/131/131 128/128/128 129/129/129
f 134/134/134 133/133/133 132/132/132
f 135/135/135 134/134/134 132/132/132
f 136/136/136 135/135/135 132/132/132
f 132/132/132 137/137/137 136/136/136
f 136/136/136 138/138/138 135/135/135
f 136/136/136 139/139/139 138/138/138
f 142/142/142 141/141/141 140/140/140
f 143/143/143 140/140/140 141/141/141
f 140/140/140 143/143/143 144/144/144
f 145/145/145 144/144/144 143/143/143
f 144/144/144 145/145/145 146/146/146
f 147/147/147 146/146/146 145/145/145
f 150/150/150 149/149/149 148/148/148
f 151/151/151 148/148/148 149/149/149
f 154/154/154 153/153/153 152/152/152
f 155/155/155 154/154/154 152/152/152
f 156/156/156 155/155/155 152/152/152
f 152/152/152 157/157/157 156/156/156
f 155/155/155 158/158/158 154/154/154
f 158/158/158 159/159/159 154/154/154
f 162/162/162 161/161/161 160/160/160
f 163/163/163 160/160/160 161/161/161
f 166/166/166 165/165/165 164/164/164
f 164/164/164 167/167/167 166/166/166
f 168/168/168 166/166/166 167/167/167
f 168/168/168 167/167/167 169/169/169
f 170/170/170 169/169/169 167/167/167
f 170/170/170 171/171/171 169/169/169
f 174/174/174 173/173/173 172/172/172
f 175/175/175 172/172/172 173/173/173
f 175/175/175 176/176/176 172/172/172
f 177/177/177 172/172/172 176/176/176
f 180/180/180 179/179/179 178/178/178
f 181/181/181 178/178/178 179/179/179
f 184/184/184 183/183/183 182/182/182
f 185/185/185 182/182/182 183/183/183
f 182/182/182 185/185/185 186/186/186
f 187/187/187 186/186/186 185/185/185
f 185/185/185 188/188/188 187/187/187
f 186/186/186 187/187/187 189/189/189
f 190/190/190 187/187/187 188/188/188
f 191/191/191 189/189/189 187/187/187
f 187/187/187 190/190/190 191/191/191
f 189/189/189 191/191/191 192/192/192
f 193/193/193 191/191/191 190/190/190
f 194/194/194 192/192/192 191/191/191
f 191/191/191 193/193/193 194/194/194
f 195/195/195 194/194/194 193/193/193
f 192/192/192 194/194/194 196/196/196
f 197/197/197 196/196/196 194/194/194
f 196/196/196 197/197/197 198/198/198
f 199/199/199 198/198/198 197/197/197
f 202/202/202 201/201/201 200/200/200
f 203/203/203 200/200/200 201/201/201
f 201/201/201 204/204/204 203/203/203
f 205/205/205 203/203/203 204/204/204
f 203/203/203 205/205/205 206/206/206
f 207/207/207 206/206/206 205/205/205
f 210/210/210 209/209/209 208/208/208
f 211/211/211 208/208/208 209/209/209
f 208/208/208 211/211/211 212/212/212
f 213/213/213 212/212/212 211/211/211
f 211/211/211 214/214/214 213/213/213
f 212/212/212 213/213/213 215/215/215
f 216/216/216 213/213/213 214/214/214
f 217/217/217 215/215/215 213/213/213
f 213/213/213 216/216/216 217/217/217
f 218/218/218 217/217/217 216/216/216
f 221/221/221 220/220/220 219/219/219
f 222/222/222 219/219/219 220/220/220
f 219/219/219 222/222/222 223/223/223
f 224/224/224 223/223/223 222/222/222
f 222/222/222 225/225/225 224/224/224
f 223/223/223 224/224/224 226/226/226
f 227/227/227 224/224/224 225/225/225
f 228/228/228 226/226/226 224/224/224
f 224/224/224 227/227/227 228/228/228
f 226/226/226 228/228/228 229/229/229
f 230/230/230 228/228/228 227/227/227
f 231/231/231 229/229/229 228/228/228
f 228/228/228 230/230/230 231/231/231
f 232/232/232 231/231/231 230/230/230
f 231/231/231 232/232/232 233/233/233
f 234/234/234 233/233/233 232/232/232
f 237/237/237 236/236/236 235/235/235
f 238/238/238 235/235/235 236/236/236
f 236/236/236 239/239/239 238/238/238
f 240/240/240 238/238/238 239/239/239
f 238/238/238 240/240/240 241/241/241
f 242/242/242 241/241/241 240/240/240
f 245/245/245 244/244/244 243/243/243
f 246/246/246 243/243/243 244/244/244
f 249/249/249 248/248/248 247/247/247
f 250/250/250 247/247/247 248/248/248
f 253/253/253 252/252/252 251/251/251
f 254/254/254 251/251/251 252/252/252
f 251/251/251 254/254/254 255/255/255
f 256/256/256 255/255/255 254/254/254
f 255/255/255 256/256/256 257/257/257
f 258/258/258 257/257/257 256/256/256
f 261/261/261 260/260/260 259/259/259
f 262/262/262 259/259/259 260/260/260
f 259/259/259 262/262/262 263/263/263
f 264/264/264 263/263/263 262/262/262
f 267/267/267 266/266/266 265/265/265
f 268/268/268 265/265/265 266/266/266
f 271/271/271 270/270/270 269/269/269
f 272/272/272 269/269/269 270/270/270
f 269/269/269 272/272/272 273/273/273
f 274/274/274 273/273/273 272/272/272
f 273/273/273 274/274/274 275/275/275
f 276/276/276 275/275/275 274/274/274
f 279/279/279 278/278/278 277/277/277
f 280/280/280 277/277/277 278/278/278
f 277/277/277 280/280/280 281/281/281
f 282/282/282 281/281/281 280/280/280
f 281/281/281 282/282/282 283/283/283
f 284/284/284 283/283/283 282/282/282
f 287/287/287 286/286/286 285/285/285
f 288/288/288 285/285/285 286/286/286
f 291/291/291 290/290/290 289/289/289
f 292/292/292 289/289/289 290/290/290
f 292/292/292 290/290/290 293/293/293
f 294/294/294 293/293/293 290/290/290
f 297/297/297 296/296/296 295/295/295
f 298/298/298 295/295/295 296/296/296
f 295/295/295 298/298/298 299/299/299
f 300/300/300 299/299/299 298/298/298
f 299/299/299 300/300/300 301/301/301
f 302/302/302 301/301/301 300/300/300
f 301/301/301 302/302/302 303/303/303
f 304/304/304 303/303/303 302/302/302
f 307/307/307 306/306/306 305/305/305
f 308/308/308 305/305/305 306/306/306
f 311/311/311 310/310/310 309/309/309
f 312/312/312 309/309/309 310/310/310
f 309/309/309 312/312/312 313/313/313
f 314/314/314 313/313/313 312/312/312
f 313/313/313 314/314/314 315/315/315
f 316/316/316 315/315/315 314/314/314
f 319/319/319 318/318/318 317/317/317
f 320/320/320 317/317/317 318/318/318
f 323/323/323 322/322/322 321/321/321
f 324/324/324 321/321/321 322/322/322
f 321/321/321 324/324/324 325/325/325
f 326/326/326 325/325/325 324/324/324
f 325/325/325 326/326/326 327/327/327
f 328/328/328 327/327/327 326/326/326
f 331/331/331 330/330/330 329/329/329
f 332/332/332 329/329/329 330/330/330
f 335/335/335 334/334/334 333/333/333
f 336/336/336 333/333/333 334/334/334
f 333/333/333 336/336/336 337/337/337
f 338/338/338 337/337/337 336/336/336
f 341/341/341 340/340/340 339/339/339
f 342/342/342 339/339/339 340/340/340
f 345/345/345 344/344/344 343/343/343
f 346/346/346 343/343/343 344/344/344
f 344/344/344 347/347/347 346/346/346
f 348/348/348 346/346/346 347/347/347
f 347/347/347 349/349/349 348/348/348
f 350/350/350 348/348/348 349/349/349
f 349/349/349 351/351/351 350/350/350
f 352/352/352 350/350/350 351/351/351
f 351/351/351 353/353/353 352/352/352
f 354/354/354 352/352/352 353/353/353
f 353/353/353 355/355/355 354/354/354
f 356/356/356 354/354/354 355/355/355
f 359/359/359 358/358/358 357/357/357
f 360/360/360 357/357/357 358/358/358
f 358/358/358 361/361/361 360/360/360
f 362/362/362 360/360/360 361/361/361
f 361/361/361 363/363/363 362/362/362
f 364/364/364 362/362/362 363/363/363
f 363/363/363 365/365/365 364/364/364
f 366/366/366 364/364/364 365/365/365
f 369/369/369 368/368/368 367/367/367
f 370/370/370 367/367/367 368/368/368
f 368/368/368 371/371/371 370/370/370
f 372/372/372 370/370/370 371/371/371
f 371/371/371 373/373/373 372/372/372
f 374/374/374 372/372/372 373/373/373
f 373/373/373 375/375/375 374/374/374
f 376/376/376 374/374/374 375/375/375
f 379/379/379 378/378/378 377/377/377
f 380/380/380 377/377/377 378/378/378
f 378/378/378 381/381/381 380/380/380
f 382/382/382 380/380/380 381/381/381
f 385/385/385 384/384/384 383/383/383
f 386/386/386 383/383/383 384/384/384
f 383/383/383 386/386/386 387/387/387
f 388/388/388 387/387/387 386/386/386
f 387/387/387 388/388/388 389/389/389
f 390/390/390 389/389/389 388/388/388
f 389/389/389 390/390/390 391/391/391
f 392/392/392 391/391/391 390/390/390
f 391/391/391 392/392/392 393/393/393
f 394/394/394 393/393/393 392/392/392
f 393/393/393 394/394/394 395/395/395
f 396/396/396 395/395/395 394/394/394
f 399/399/399 398/398/398 397/397/397
f 400/400/400 397/397/397 398/398/398
f 397/397/397 400/400/400 401/401/401
f 402/402/402 401/401/401 400/400/400
f 401/401/401 402/402/402 403/403/403
f 404/404/404 403/403/403 402/402/402
f 403/403/403 404/404/404 405/405/405
f 406/406/406 405/405/405 404/404/404
f 409/409/409 408/408/408 407/407/407
f 410/410/410 407/407/407 408/408/408
f 407/407/407 410/410/410 411/411/411
f 412/412/412 411/411/411 410/410/410
f 411/411/411 412/412/412 413/413/413
f 414/414/414 413/413/413 412/412/412
f 413/413/413 414/414/414 415/415/415
f 416/416/416 415/415/415 414/414/414
f 419/419/419 418/418/418 417/417/417
f 420/420/420 417/417/417 418/418/418
f 417/417/417 420/420/420 421/421/421
f 422/422/422 421/421/421 420/420/420
f 425/425/425 424/424/424 423/423/423
f 424/424/424 426/426/426 423/423/423
f 425/425/425 423/423/423 427/427/427
f 428/428/428 425/425/425 427/427/427
f 429/429/429 428/428/428 427/427/427
f 426/426/426 430/430/430 423/423/423
f 426/426/426 431/431/431 430/430/430
f 431/431/431 432/432/432 430/430/430
f 429/429/429 427/427/427 433/433/433
f 434/434/434 429/429/429 433/433/433
f 435/435/435 434/434/434 433/433/433
f 432/432/432 436/436/436 430/430/430
f 432/432/432 437/437/437 436/436/436
f 437/437/437 438/438/438 436/436/436
f 435/435/435 433/433/433 439/439/439
f 440/440/440 435/435/435 439/439/439
f 441/441/441 440/440/440 439/439/439
f 438/438/438 442/442/442 436/436/436
f 438/438/438 443/443/443 442/442/442
f 443/443/443 444/444/444 442/442/442
f 441/441/441 439/439/439 445/445/445
f 444/444/444 445/445/445 442/442/442
f 446/446/446 441/441/441 445/445/445
f 444/444/444 446/446/446 445/445/445
f 436/436/436 447/447/447 430/430/430
f 442/442/442 448/448/448 436/436/436
f 447/447/447 436/436/436 448/448/448
f 447/447/447 448/448/448 449/449/449
f 450/450/450 430/430/430 447/447/447
f 450/450/450 447/447/447 449/449/449
f 430/430/430 450/450/450 423/423/423
f 448/448/448 442/442/442 451/451/451
f 445/445/445 451/451/451 442/442/442
f 448/448/448 451/451/451 449/449/449
f 452/452/452 423/423/423 450/450/450
f 452/452/452 450/450/450 449/449/449
f 423/423/423 452/452/452 427/427/427
f 451/451/451 445/445/445 453/453/453
f 451/451/451 453/453/453 449/449/449
f 439/439/439 453/453/453 445/445/445
f 454/454/454 427/427/427 452/452/452
f 454/454/454 452/452/452 449/449/449
f 427/427/427 454/454/454 433/433/433
f 453/453/453 455/455/455 449/449/449
f 453/453/453 439/439/439 455/455/455
f 433/433/433 455/455/455 439/439/439
f 455/455/455 454/454/454 449/449/449
f 455/455/455 433/433/433 454/454/454
f 458/458/458 457/457/457 456/456/456
f 459/459/459 456/456/456 457/457/457
f 456/456/456 460/460/460 458/458/458
f 457/457/457 461/461/461 459/459/459
f 462/462/462 458/458/458 460/460/460
f 463/463/463 459/459/459 461/461/461
f 460/460/460 464/464/464 462/462/462
f 461/461/461 465/465/465 463/463/463
f 466/466/466 462/462/462 464/464/464
f 467/467/467 463/463/463 465/465/465
f 464/464/464 468/468/468 466/466/466
f 465/465/465 469/469/469 467/467/467
f 470/470/470 466/466/466 468/468/468
f 471/471/471 467/467/467 469/469/469
f 468/468/468 472/472/472 470/470/470
f 469/469/469 473/473/473 471/471/471
f 474/474/474 470/470/470 472/472/472
f 475/475/475 471/471/471 473/473/473
f 472/472/472 476/476/476 474/474/474
f 473/473/473 477/477/477 475/475/475
f 478/478/478 474/474/474 476/476/476
f 479/479/479 475/475/475 477/477/477
f 476/476/476 480/480/480 478/478/478
f 477/477/477 481/481/481 479/479/479
f 482/482/482 478/478/478 480/480/480
f 483/483/483 479/479/479 481/481/481
f 480/480/480 484/484/484 482/482/482
f 481/481/481 485/485/485 483/483/483
f 486/486/486 482/482/482 484/484/484
f 487/487/487 483/483/483 485/485/485
f 484/484/484 487/487/487 486/486/486
f 485/485/485 486/486/486 487/487/487
f 490/490/490 489/489/489 488/488/488
f 491/491/491 488/488/488 489/489/489
f 488/488/488 491/491/491 492/492/492
f 489/489/489 490/490/490 493/493/493
f 494/494/494 493/493/493 490/490/490
f 495/495/495 492/492/492 491/491/491
f 492/492/492 495/495/495 496/496/496
f 493/493/493 494/494/494 497/497/497
f 498/498/498 497/497/497 494/494/494
f 499/499/499 496/496/496 495/495/495
f 496/496/496 499/499/499 500/500/500
f 497/497/497 498/498/498 501/501/501
f 502/502/502 501/501/501 498/498/498
f 503/503/503 500/500/500 499/499/499
f 500/500/500 503/503/503 504/504/504
f 501/501/501 502/502/502 505/505/505
f 506/506/506 505/505/505 502/502/502
f 507/507/507 504/504/504 503/503/503
f 504/504/504 507/507/507 508/508/508
f 505/505/505 506/506/506 509/509/509
f 510/510/510 509/509/509 506/506/506
f 511/511/511 508/508/508 507/507/507
f 508/508/508 511/511/511 512/512/512
f 509/509/509 510/510/510 513/513/513
f 514/514/514 513/513/513 510/510/510
f 515/515/515 512/512/512 511/511/511
f 512/512/512 515/515/515 516/516/516
f 513/513/513 514/514/514 517/517/517
f 518/518/518 517/517/517 514/514/514
f 516/516/516 519/519/519 518/518/518
f 519/519/519 516/516/516 515/515/515
f 517/517/517 518/518/518 519/519/519
f 509/509/509 520/520/520 505/505/505
f 521/521/521 505/505/505 520/520/520
f 520/520/520 509/509/509 522/522/522
f 513/513/513 522/522/522 509/509/509
f 505/505/505 521/521/521 501/501/501
f 522/522/522 513/513/513 523/523/523
f 517/517/517 523/523/523 513/513/513
f 524/524/524 501/501/501 521/521/521
f 523/523/523 517/517/517 525/525/525
f 519/519/519 525/525/525 517/517/517
f 501/501/501 524/524/524 497/497/497
f 525/525/525 519/519/519 526/526/526
f 527/527/527 497/497/497 524/524/524
f 515/515/515 526/526/526 519/519/519
f 497/497/497 527/527/527 493/493/493
f 526/526/526 515/515/515 528/528/528
f 529/529/529 493/493/493 527/527/527
f 511/511/511 528/528/528 515/515/515
f 493/493/493 529/529/529 489/489/489
f 528/528/528 511/511/511 530/530/530
f 531/531/531 489/489/489 529/529/529
f 507/507/507 530/530/530 511/511/511
f 489/489/489 531/531/531 491/491/491
f 530/530/530 507/507/507 532/532/532
f 533/533/533 491/491/491 531/531/531
f 503/503/503 532/532/532 507/507/507
f 491/491/491 533/533/533 495/495/495
f 532/532/532 503/503/503 534/534/534
f 535/535/535 495/495/495 533/533/533
f 499/499/499 534/534/534 503/503/503
f 495/495/495 535/535/535 499/499/499
f 534/534/534 499/499/499 535/535/535
f 538/538/538 537/537/537 536/536/536
f 539/539/539 536/536/536 537/537/537
f 537/537/537 538/538/538 540/540/540
f 536/536/536 539/539/539 541/541/541
f 542/542/542 540/540/540 538/538/538
f 543/543/543 541/541/541 539/539/539
f 540/540/540 542/542/542 544/544/544
f 541/541/541 543/543/543 545/545/545
f 546/546/546 544/544/544 542/542/542
f 547/547/547 545/545/545 543/543/543
f 544/544/544 546/546/546 548/548/548
f 545/545/545 547/547/547 549/549/549
f 550/550/550 548/548/548 546/546/546
f 551/551/551 549/549/549 547/547/547
f 548/548/548 550/550/550 552/552/552
f 549/549/549 551/551/551 553/553/553
f 554/554/554 552/552/552 550/550/550
f 555/555/555 553/553/553 551/551/551
f 552/552/552 554/554/554 556/556/556
f 553/553/553 555/555/555 557/557/557
f 558/558/558 556/556/556 554/554/554
f 559/559/559 557/557/557 555/555/555
f 556/556/556 558/558/558 560/560/560
f 557/557/557 559/559/559 561/561/561
f 562/562/562 560/560/560 558/558/558
f 563/563/563 561/561/561 559/559/559
f 560/560/560 562/562/562 564/564/564
f 561/561/561 563/563/563 565/565/565
f 566/566/566 564/564/564 562/562/562
f 567/567/567 565/565/565 563/563/563
f 564/564/564 566/566/566 567/567/567
f 565/565/565 567/567/567 566/566/566
f 570/570/570 569/569/569 568/568/568
f 571/571/571 568/568/568 569/569/569
f 568/568/568 572/572/572 570/570/570
f 569/569/569 573/573/573 571/571/571
f 574/574/574 570/570/570 572/572/572
f 575/575/575 571/571/571 573/573/573
f 572/572/572 576/576/576 574/574/574
f 573/573/573 577/577/577 575/575/575
f 578/578/578 574/574/574 576/576/576
f 579/579/579 575/575/575 577/577/577
f 576/576/576 580/580/580 578/578/578
f 577/577/577 581/581/581 579/579/579
f 582/582/582 578/578/578 580/580/580
f 583/583/583 579/579/579 581/581/581
f 580/580/580 584/584/584 582/582/582
f 581/581/581 585/585/585 583/583/583
f 586/586/586 582/582/582 584/584/584
f 587/587/587 583/583/583 585/585/585
f 584/584/584 588/588/588 586/586/586
f 585/585/585 589/589/589 587/587/587
f 590/590/590 586/586/586 588/588/588
f 591/591/591 587/587/587 589/589/589
f 588/588/588 592/592/592 590/590/590
f 589/589/589 593/593/593 591/591/591
f 594/594/594 590/590/590 592/592/592
f 595/595/595 591/591/591 593/593/593
f 592/592/592 596/596/596 594/594/594
f 593/593/593 597/597/597 595/595/595
f 598/598/598 594/594/594 596/596/596
f 599/599/599 595/595/595 597/597/597
f 596/596/596 599/599/599 598/598/598
f 597/597/597 598/598/598 599/599/599
