g home_prop_tiefighter_mesh
v 1.5548611 -1.6183577 -1.7030191
v 0.7082443 -1.1103878 -2.7401247
v 0.89873314 -2.041666 -1.7030191
v -0.011380196 -2.1474934 -1.9146738
v -0.26536465 -1.3220415 -2.7401247
v -0.92149353 -2.041666 -1.7030191
v -1.0908165 -0.7717409 -2.7401247
v -1.5776215 -1.6183577 -1.7030191
v 1.2585459 -0.28493595 -2.7401247
v 0.7082443 -1.1103878 -2.7401247
v 1.5548611 -1.6183577 -1.7030191
v 2.041666 -0.89873314 -1.7030191
v 2.210989 -0.052116394 -1.7030191
v 2.041666 0.8156662 -1.7030191
v 1.0680571 0.688673 -2.7401247
v 1.5548611 1.5352907 -1.7030191
v 1.1527185 -2.4014778 1.492959
v 1.2585459 -1.3008766 2.5723963
v 1.8723431 -1.9146738 1.492959
v 0.6659136 -1.6818542 2.5723963
v -0.011380196 -2.528471 1.7681103
v -0.011380196 -1.8088465 2.5723963
v -1.175478 -2.4014778 1.492959
v -0.688673 -1.6818542 2.5723963
v -1.2601395 -1.3008766 2.5723963
v -1.8951025 -1.9146738 1.492959
v 1.8723431 -1.9146738 1.492959
v 1.5971918 -2.528471 0.13837242
v 1.1527185 -2.4014778 1.492959
v 2.1263275 -2.189824 0.13837242
v 0.89873314 -2.041666 -1.7030191
v 1.5548611 -1.6183577 -1.7030191
v 2.041666 -0.89873314 -1.7030191
v 2.7824554 -1.1950493 0.13837242
v 2.210989 -0.052116394 -1.7030191
v 2.4438095 -1.0680571 1.492959
v 1.2585459 -1.3008766 2.5723963
v 1.6395226 -0.7294102 2.5723963
v 3.0152755 -0.052116394 0.13837242
v 2.6554632 -0.052116394 1.492959
v 1.7665157 -0.052116394 2.5723963
v 1.6395226 0.6463423 2.5723963
v 2.4438095 0.98498917 1.492959
v 1.2585459 1.2178087 2.5723963
v 1.8723431 1.8316059 1.492959
v 2.7824554 1.1119823 0.13837242
v 2.041666 0.8156662 -1.7030191
v 2.1263275 2.1067572 0.13837242
v 1.2585459 2.3395767 1.3448019
v 1.5548611 1.5352907 -1.7030191
v 1.1527185 2.762885 0.13837242
v 1.0045605 1.8951025 -1.7030191
v 1.2585459 2.3395767 1.3448019
v 1.8723431 1.8316059 1.492959
v 1.2585459 1.2178087 2.5723963
v 0.6659136 1.5987864 2.5723963
v -0.011380196 2.5088997 1.5776215
v -0.011380196 1.7257795 2.5723963
v -0.688673 1.5987864 2.5723963
v -1.2389746 2.4030724 1.2813053
v -1.2601395 1.2178087 2.5723963
v -1.8951025 1.8316059 1.492959
v -1.8951025 -1.9146738 1.492959
v -1.175478 -2.4014778 1.492959
v -1.6199522 -2.528471 0.13837242
v -2.149088 -2.189824 0.13837242
v -0.92149353 -2.041666 -1.7030191
v -1.5776215 -1.6183577 -1.7030191
v -2.0644255 -0.89873314 -1.7030191
v -2.8052158 -1.1950493 0.13837242
v -2.2337494 -0.052116394 -1.7030191
v -2.466569 -1.0680571 1.492959
v -1.2601395 -1.3008766 2.5723963
v -1.6411171 -0.7294102 2.5723963
v -3.0380354 -0.052116394 0.13837242
v -2.6782236 -0.052116394 1.492959
v -1.7892752 -0.052116394 2.5723963
v -1.6411171 0.6463423 2.5723963
v -2.466569 0.98498917 1.492959
v -1.2601395 1.2178087 2.5723963
v -1.8951025 1.8316059 1.492959
v -2.8052158 1.1119823 0.13837242
v -2.0644255 0.8156662 -1.7030191
v -2.149088 2.1067572 0.13837242
v -1.2389746 2.4030724 1.2813053
v -1.5776215 1.5352907 -1.7030191
v -1.175478 2.762885 0.13837242
v -0.9638243 1.9585991 -1.6183577
v 0.7082443 -1.1103878 -2.7401247
v 1.2585459 -0.28493595 -2.7401247
v 1.0680571 0.688673 -2.7401247
v 0.24260521 1.2389746 -2.7401247
v -0.26536465 -1.3220415 -2.7401247
v -0.7310047 1.0273199 -2.7401247
v -1.0908165 -0.7717409 -2.7401247
v -1.2813053 0.20186901 -2.7401247
v -1.0908165 -0.7717409 -2.7401247
v -2.0644255 -0.89873314 -1.7030191
v -1.5776215 -1.6183577 -1.7030191
v -1.2813053 0.20186901 -2.7401247
v -2.2337494 -0.052116394 -1.7030191
v -2.0644255 0.8156662 -1.7030191
v -1.5776215 1.5352907 -1.7030191
v -0.7310047 1.0273199 -2.7401247
v -0.7310047 1.0273199 -2.7401247
v -0.9638243 1.9585991 -1.6183577
v -1.5776215 1.5352907 -1.7030191
v -0.011380196 2.127922 -1.7453499
v 0.24260521 1.2389746 -2.7401247
v 1.0045605 1.8951025 -1.7030191
v 1.0680571 0.688673 -2.7401247
v 1.5548611 1.5352907 -1.7030191
v -0.011380196 2.127922 -1.7453499
v -1.175478 2.762885 0.13837242
v -0.9638243 1.9585991 -1.6183577
v -0.011380196 2.9745388 0.13837242
v -1.2389746 2.4030724 1.2813053
v -0.011380196 2.5088997 1.5776215
v 1.2585459 2.3395767 1.3448019
v 1.1527185 2.762885 0.13837242
v 1.0045605 1.8951025 -1.7030191
v -7.0382996 -0.62358284 1.1543131
v -6.487999 -0.53892136 1.006155
v -6.487999 -0.8564024 0.4770193
v -7.0382996 -1.2162142 0.13837242
v -5.7683754 -0.89873314 0.13837242
v -5.7683754 -0.7294102 0.4770193
v -7.0382996 -0.62358284 -0.87756824
v -7.0382996 -1.2162142 0.13837242
v -6.487999 -0.8564024 -0.20027447
v -6.487999 -0.53892136 -0.75057507
v -6.487999 -0.53892136 -0.75057507
v -6.487999 0.45585346 -0.75057507
v -7.0382996 0.5405159 -0.87756824
v -7.0382996 -0.62358284 -0.87756824
v -7.0382996 0.5405159 -0.87756824
v -6.487999 0.45585346 -0.75057507
v -6.487999 0.77333546 -0.20027447
v -7.0382996 1.1331472 0.13837242
v -6.487999 0.77333546 0.4770193
v -5.7683754 0.8156662 0.13837242
v -5.7683754 0.6463423 0.4770193
v -7.0382996 1.1331472 0.13837242
v -7.0382996 0.5405159 1.1543131
v -6.487999 0.45585346 1.006155
v -7.0382996 -0.62358284 1.1543131
v -7.0382996 0.5405159 1.1543131
v -6.487999 0.45585346 1.006155
v -6.487999 -0.53892136 1.006155
v -6.487999 -0.53892136 1.006155
v -6.487999 0.45585346 1.006155
v -6.487999 0.77333546 0.4770193
v -6.487999 -0.8564024 0.4770193
v -5.069916 -0.89873314 0.13837242
v -5.069916 0.6463423 -0.20027447
v -5.069916 -0.7294102 -0.20027447
v -5.069916 0.8156662 0.13837242
v -5.069916 -0.7294102 0.4770193
v -5.069916 0.6463423 0.4770193
v -7.0382996 1.1331472 0.13837242
v -6.487999 0.77333546 -0.20027447
v -5.7683754 0.6463423 -0.20027447
v -5.7683754 0.8156662 0.13837242
v -6.487999 -0.8564024 -0.20027447
v -6.487999 0.77333546 -0.20027447
v -6.487999 0.45585346 -0.75057507
v -6.487999 -0.53892136 -0.75057507
v -5.7683754 -0.7294102 -0.20027447
v -6.487999 0.77333546 -0.20027447
v -6.487999 -0.8564024 -0.20027447
v -5.7683754 0.6463423 -0.20027447
v -5.069916 -0.7294102 -0.20027447
v -5.069916 0.6463423 -0.20027447
v -6.487999 -0.8564024 0.4770193
v -6.487999 0.77333546 0.4770193
v -5.7683754 0.6463423 0.4770193
v -5.7683754 -0.7294102 0.4770193
v -5.069916 0.6463423 0.4770193
v -5.069916 -0.7294102 0.4770193
v -7.0382996 -1.2162142 0.13837242
v -5.7683754 -0.89873314 0.13837242
v -5.7683754 -0.7294102 -0.20027447
v -6.487999 -0.8564024 -0.20027447
v -5.7683754 0.8156662 0.13837242
v -5.7683754 0.6463423 -0.20027447
v -5.069916 0.6463423 -0.20027447
v -5.069916 0.8156662 0.13837242
v -5.7683754 -0.7294102 -0.20027447
v -5.7683754 -0.89873314 0.13837242
v -5.069916 -0.89873314 0.13837242
v -5.069916 -0.7294102 -0.20027447
v -5.7683754 0.6463423 0.4770193
v -5.7683754 0.8156662 0.13837242
v -5.069916 0.8156662 0.13837242
v -5.069916 0.6463423 0.4770193
v -5.7683754 -0.89873314 0.13837242
v -5.7683754 -0.7294102 0.4770193
v -5.069916 -0.7294102 0.4770193
v -5.069916 -0.89873314 0.13837242
v -7.0382996 -0.052116394 -9.491895
v -7.0382996 10.78458 -6.2747507
v -7.440443 10.78458 -6.2747507
v -7.440443 -0.052116394 -9.491895
v -7.0382996 10.78458 -6.2747507
v -7.0382996 10.78458 6.5303307
v -7.440443 10.78458 6.5303307
v -7.440443 10.78458 -6.2747507
v -7.440443 10.78458 6.5303307
v -7.0382996 10.78458 6.5303307
v -7.0382996 -0.052116394 9.7686405
v -7.440443 -0.052116394 9.7686405
v -7.0382996 -0.052116394 9.7686405
v -7.0382996 -10.867647 6.5303307
v -7.440443 -10.867647 6.5303307
v -7.440443 -0.052116394 9.7686405
v -7.0382996 -10.867647 6.5303307
v -7.0382996 -10.867647 -6.2747507
v -7.440443 -10.867647 -6.2747507
v -7.440443 -10.867647 6.5303307
v -7.0382996 -10.867647 -6.2747507
v -7.0382996 -0.052116394 -9.491895
v -7.440443 -0.052116394 -9.491895
v -7.440443 -10.867647 -6.2747507
v -7.0382996 10.78458 6.5303307
v -7.0382996 10.78458 -6.2747507
v -7.0382996 -0.052116394 -9.491895
v -7.0382996 -0.052116394 9.7686405
v -7.0382996 -10.867647 -6.2747507
v -7.0382996 -10.867647 6.5303307
v -7.440443 -0.052116394 -9.491895
v -7.440443 10.78458 -6.2747507
v -7.440443 10.78458 6.5303307
v -7.440443 -0.052116394 9.7686405
v -7.440443 -10.867647 6.5303307
v -7.440443 -10.867647 -6.2747507
v -2.149088 -1.9358387 0.39235783
v -3.1226969 -1.7453499 0.39235783
v -3.1226969 1.662283 0.39235783
v -2.149088 1.8527718 0.39235783
v -2.149088 1.8527718 0.39235783
v -3.1226969 1.662283 0.39235783
v -3.1226969 1.662283 -0.13677788
v -2.149088 1.8527718 -0.13677788
v -2.149088 1.8527718 -0.13677788
v -3.1226969 1.662283 -0.13677788
v -3.1226969 -1.7453499 -0.13677788
v -2.149088 -1.9358387 -0.13677788
v -2.149088 -1.9358387 -0.13677788
v -3.1226969 -1.7453499 -0.13677788
v -3.1226969 -1.7453499 0.39235783
v -2.149088 -1.9358387 0.39235783
v -3.1226969 -1.7453499 0.39235783
v -3.1226969 -1.7453499 -0.13677788
v -3.1226969 1.662283 -0.13677788
v -3.1226969 1.662283 0.39235783
v -3.1226969 1.5141249 0.011380196
v -3.1226969 1.5141249 0.24419975
v -5.218073 0.9003277 0.24419975
v -5.218073 0.9003277 0.011380196
v -5.345066 -0.052116394 0.011380196
v -3.1226969 1.5141249 0.011380196
v -5.218073 0.9003277 0.011380196
v -3.1226969 -1.5971918 0.011380196
v -5.218073 -0.9833946 0.011380196
v -3.1226969 -1.5971918 0.24419975
v -3.1226969 -1.5971918 0.011380196
v -5.218073 -0.9833946 0.011380196
v -5.218073 -0.9833946 0.24419975
v -5.218073 -0.9833946 0.24419975
v -5.218073 -0.9833946 0.011380196
v -5.345066 -0.052116394 0.011380196
v -5.345066 -0.052116394 0.24419975
v -5.345066 -0.052116394 0.24419975
v -5.345066 -0.052116394 0.011380196
v -5.218073 0.9003277 0.011380196
v -5.218073 0.9003277 0.24419975
v -3.1226969 1.5141249 0.24419975
v -5.345066 -0.052116394 0.24419975
v -5.218073 0.9003277 0.24419975
v -3.1226969 -1.5971918 0.24419975
v -5.218073 -0.9833946 0.24419975
v 6.888548 -0.62358284 1.1543131
v 6.338247 -0.8564024 0.4770193
v 6.338247 -0.53892136 1.006155
v 6.888548 -1.2162142 0.13837242
v 5.6186223 -0.89873314 0.13837242
v 5.6186223 -0.7294102 0.4770193
v 6.888548 -0.62358284 -0.87756824
v 6.338247 -0.53892136 -0.75057507
v 6.338247 -0.8564024 -0.20027447
v 6.888548 -1.2162142 0.13837242
v 6.338247 -0.53892136 -0.75057507
v 6.888548 -0.62358284 -0.87756824
v 6.888548 0.5405159 -0.87756824
v 6.338247 0.45585346 -0.75057507
v 6.888548 0.5405159 -0.87756824
v 6.888548 1.1331472 0.13837242
v 6.338247 0.77333546 -0.20027447
v 6.338247 0.45585346 -0.75057507
v 6.338247 0.77333546 0.4770193
v 5.6186223 0.6463423 0.4770193
v 5.6186223 0.8156662 0.13837242
v 6.888548 1.1331472 0.13837242
v 6.888548 0.5405159 1.1543131
v 6.338247 0.45585346 1.006155
v 6.888548 -0.62358284 1.1543131
v 6.338247 -0.53892136 1.006155
v 6.338247 0.45585346 1.006155
v 6.888548 0.5405159 1.1543131
v 6.338247 -0.53892136 1.006155
v 6.338247 -0.8564024 0.4770193
v 6.338247 0.77333546 0.4770193
v 6.338247 0.45585346 1.006155
v 4.9201636 -0.89873314 0.13837242
v 4.9201636 -0.7294102 -0.20027447
v 4.9201636 0.6463423 -0.20027447
v 4.9201636 0.8156662 0.13837242
v 4.9201636 -0.7294102 0.4770193
v 4.9201636 0.6463423 0.4770193
v 6.888548 1.1331472 0.13837242
v 5.6186223 0.8156662 0.13837242
v 5.6186223 0.6463423 -0.20027447
v 6.338247 0.77333546 -0.20027447
v 6.338247 -0.8564024 -0.20027447
v 6.338247 -0.53892136 -0.75057507
v 6.338247 0.45585346 -0.75057507
v 6.338247 0.77333546 -0.20027447
v 5.6186223 -0.7294102 -0.20027447
v 6.338247 -0.8564024 -0.20027447
v 6.338247 0.77333546 -0.20027447
v 5.6186223 0.6463423 -0.20027447
v 4.9201636 -0.7294102 -0.20027447
v 4.9201636 0.6463423 -0.20027447
v 6.338247 -0.8564024 0.4770193
v 5.6186223 0.6463423 0.4770193
v 6.338247 0.77333546 0.4770193
v 5.6186223 -0.7294102 0.4770193
v 4.9201636 0.6463423 0.4770193
v 4.9201636 -0.7294102 0.4770193
v 6.888548 -1.2162142 0.13837242
v 6.338247 -0.8564024 -0.20027447
v 5.6186223 -0.7294102 -0.20027447
v 5.6186223 -0.89873314 0.13837242
v 5.6186223 0.8156662 0.13837242
v 4.9201636 0.8156662 0.13837242
v 4.9201636 0.6463423 -0.20027447
v 5.6186223 0.6463423 -0.20027447
v 5.6186223 -0.7294102 -0.20027447
v 4.9201636 -0.7294102 -0.20027447
v 4.9201636 -0.89873314 0.13837242
v 5.6186223 -0.89873314 0.13837242
v 5.6186223 0.6463423 0.4770193
v 4.9201636 0.6463423 0.4770193
v 4.9201636 0.8156662 0.13837242
v 5.6186223 0.8156662 0.13837242
v 5.6186223 -0.89873314 0.13837242
v 4.9201636 -0.89873314 0.13837242
v 4.9201636 -0.7294102 0.4770193
v 5.6186223 -0.7294102 0.4770193
v 6.549901 -0.052116394 -9.491895
v 6.952044 -0.052116394 -9.491895
v 6.952044 10.78458 -6.2747507
v 6.549901 10.78458 -6.2747507
v 6.549901 10.78458 -6.2747507
v 6.952044 10.78458 -6.2747507
v 6.952044 10.78458 6.5303307
v 6.549901 10.78458 6.5303307
v 6.952044 10.78458 6.5303307
v 6.952044 -0.052116394 9.7686405
v 6.549901 -0.052116394 9.7686405
v 6.549901 10.78458 6.5303307
v 6.549901 -0.052116394 9.7686405
v 6.952044 -0.052116394 9.7686405
v 6.952044 -10.867647 6.5303307
v 6.549901 -10.867647 6.5303307
v 6.549901 -10.867647 6.5303307
v 6.952044 -10.867647 6.5303307
v 6.952044 -10.867647 -6.2747507
v 6.549901 -10.867647 -6.2747507
v 6.549901 -10.867647 -6.2747507
v 6.952044 -10.867647 -6.2747507
v 6.952044 -0.052116394 -9.491895
v 6.549901 -0.052116394 -9.491895
v 6.549901 10.78458 6.5303307
v 6.549901 -0.052116394 -9.491895
v 6.549901 10.78458 -6.2747507
v 6.549901 -0.052116394 9.7686405
v 6.549901 -10.867647 -6.2747507
v 6.549901 -10.867647 6.5303307
v 6.952044 -0.052116394 -9.491895
v 6.952044 10.78458 6.5303307
v 6.952044 10.78458 -6.2747507
v 6.952044 -0.052116394 9.7686405
v 6.952044 -10.867647 6.5303307
v 6.952044 -10.867647 -6.2747507
v 1.9993353 -1.9358387 0.39235783
v 1.9993353 1.8527718 0.39235783
v 2.9729447 1.662283 0.39235783
v 2.9729447 -1.7453499 0.39235783
v 1.9993353 1.8527718 0.39235783
v 1.9993353 1.8527718 -0.13677788
v 2.9729447 1.662283 -0.13677788
v 2.9729447 1.662283 0.39235783
v 1.9993353 1.8527718 -0.13677788
v 1.9993353 -1.9358387 -0.13677788
v 2.9729447 -1.7453499 -0.13677788
v 2.9729447 1.662283 -0.13677788
v 1.9993353 -1.9358387 -0.13677788
v 1.9993353 -1.9358387 0.39235783
v 2.9729447 -1.7453499 0.39235783
v 2.9729447 -1.7453499 -0.13677788
v 2.9729447 -1.7453499 0.39235783
v 2.9729447 1.662283 0.39235783
v 2.9729447 1.662283 -0.13677788
v 2.9729447 -1.7453499 -0.13677788
v 2.9729447 1.5141249 0.011380196
v 5.068321 0.9003277 0.011380196
v 5.068321 0.9003277 0.24419975
v 2.9729447 1.5141249 0.24419975
v 5.195314 -0.052116394 0.011380196
v 5.068321 0.9003277 0.011380196
v 2.9729447 1.5141249 0.011380196
v 2.9729447 -1.5971918 0.011380196
v 5.068321 -0.9833946 0.011380196
v 2.9729447 -1.5971918 0.24419975
v 5.068321 -0.9833946 0.24419975
v 5.068321 -0.9833946 0.011380196
v 2.9729447 -1.5971918 0.011380196
v 5.068321 -0.9833946 0.24419975
v 5.195314 -0.052116394 0.24419975
v 5.195314 -0.052116394 0.011380196
v 5.068321 -0.9833946 0.011380196
v 5.195314 -0.052116394 0.24419975
v 5.068321 0.9003277 0.24419975
v 5.068321 0.9003277 0.011380196
v 5.195314 -0.052116394 0.011380196
v 2.9729447 1.5141249 0.24419975
v 5.068321 0.9003277 0.24419975
v 5.195314 -0.052116394 0.24419975
v 2.9729447 -1.5971918 0.24419975
v 5.068321 -0.9833946 0.24419975
v 1.5971918 -2.528471 0.13837242
v 0.7929058 -2.9517794 0.13837242
v 1.1527185 -2.4014778 1.492959
v 0.89873314 -2.041666 -1.7030191
v -0.011380196 -2.1474934 -1.9146738
v -0.011380196 -3.0576062 0.13837242
v -0.011380196 -2.528471 1.7681103
v -0.92149353 -2.041666 -1.7030191
v -1.175478 -2.4014778 1.492959
v -0.8156662 -2.9517794 0.13837242
v -1.6199522 -2.528471 0.13837242
v 0.9410639 -0.052116394 2.9745388
v -0.011380196 -0.052116394 3.1226969
v 0.6659136 0.6251774 2.9745388
v 0.6659136 -0.7082443 2.9745388
v -0.011380196 0.92149353 2.9745388
v -0.011380196 -1.0045605 2.9745388
v -0.688673 0.6251774 2.9745388
v -0.688673 -0.7082443 2.9745388
v -0.9638243 -0.052116394 2.9745388
v 0.6659136 0.6251774 2.9745388
v 0.6659136 1.5987864 2.5723963
v 1.2585459 1.2178087 2.5723963
v 1.6395226 0.6463423 2.5723963
v 1.7665157 -0.052116394 2.5723963
v 0.9410639 -0.052116394 2.9745388
v -0.011380196 0.92149353 2.9745388
v -0.011380196 1.7257795 2.5723963
v -0.688673 1.5987864 2.5723963
v 0.6659136 -0.7082443 2.9745388
v -0.688673 0.6251774 2.9745388
v 1.6395226 -0.7294102 2.5723963
v 1.2585459 -1.3008766 2.5723963
v 0.6659136 -1.6818542 2.5723963
v -1.2601395 1.2178087 2.5723963
v -1.6411171 0.6463423 2.5723963
v -0.011380196 -1.0045605 2.9745388
v -0.011380196 -1.8088465 2.5723963
v -0.688673 -1.6818542 2.5723963
v -1.7892752 -0.052116394 2.5723963
v -0.9638243 -0.052116394 2.9745388
v -0.688673 -0.7082443 2.9745388
v -1.2601395 -1.3008766 2.5723963
v -1.6411171 -0.7294102 2.5723963
vt 0.50173336 0.14755107
vt 0.47838068 0.1864722
vt 0.52508605 0.18258008
vt 0.5328703 0.22150122
vt 0.49005702 0.23706967
vt 0.52508605 0.26431444
vt 0.46281222 0.2798829
vt 0.50173336 0.3032356
vt 0.43556744 0.15922742
vt 0.47838068 0.1864722
vt 0.50173336 0.14755107
vt 0.46670434 0.12419839
vt 0.4238911 0.11641417
vt 0.38496995 0.12419839
vt 0.38886207 0.17090374
vt 0.34994093 0.14755107
vt 0.27209866 0.042464018
vt 0.31491193 0.10862994
vt 0.25653023 0.093061484
vt 0.33048037 0.06970881
vt 0.31491193 0.0035428843
vt 0.35383305 0.0385719
vt 0.27209866 0.042464018
vt 0.33048037 0.06970881
vt 0.31491193 0.10862994
vt 0.25653023 0.093061484
vt 0.25653023 0.093061484
vt 0.1864722 0.054140355
vt 0.27209866 0.042464018
vt 0.1864722 0.08527726
vt 0.08138515 0.050248243
vt 0.08527726 0.104737826
vt 0.093061484 0.15144318
vt 0.1864722 0.13976684
vt 0.0969536 0.19036432
vt 0.24874601 0.14365895
vt 0.31491193 0.10862994
vt 0.3110198 0.15533529
vt 0.1864722 0.19036432
vt 0.24874601 0.19036432
vt 0.3032356 0.19036432
vt 0.3110198 0.22539334
vt 0.25263813 0.23706967
vt 0.31880403 0.26431444
vt 0.26042235 0.28766713
vt 0.1864722 0.24096179
vt 0.093061484 0.22928545
vt 0.1864722 0.29545134
vt 0.27209866 0.31880403
vt 0.08138515 0.27209866
vt 0.1864722 0.30712768
vt 0.06581669 0.30712768
vt 0.27209866 0.31880403
vt 0.26042235 0.28766713
vt 0.31880403 0.26431444
vt 0.33826458 0.3032356
vt 0.34994093 0.35383305
vt 0.3655094 0.3343725
vt 0.33826458 0.3032356
vt 0.27209866 0.31880403
vt 0.31880403 0.26431444
vt 0.26042235 0.28766713
vt 0.25653023 0.093061484
vt 0.27209866 0.042464018
vt 0.1864722 0.054140355
vt 0.1864722 0.08527726
vt 0.08138515 0.050248243
vt 0.08527726 0.104737826
vt 0.093061484 0.15144318
vt 0.1864722 0.13976684
vt 0.0969536 0.19036432
vt 0.24874601 0.14365895
vt 0.31491193 0.10862994
vt 0.3110198 0.15533529
vt 0.1864722 0.19036432
vt 0.24874601 0.19036432
vt 0.3032356 0.19036432
vt 0.3110198 0.22539334
vt 0.25263813 0.23706967
vt 0.31880403 0.26431444
vt 0.26042235 0.28766713
vt 0.1864722 0.24096179
vt 0.093061484 0.22928545
vt 0.1864722 0.29545134
vt 0.27209866 0.31880403
vt 0.08138515 0.27209866
vt 0.1864722 0.30712768
vt 0.06581669 0.30712768
vt 0.47838068 0.1864722
vt 0.43556744 0.15922742
vt 0.38886207 0.17090374
vt 0.36161727 0.20982487
vt 0.49005702 0.23706967
vt 0.3694015 0.26042235
vt 0.46281222 0.2798829
vt 0.41221476 0.29155925
vt 0.46281222 0.2798829
vt 0.46670434 0.32658827
vt 0.50173336 0.3032356
vt 0.41221476 0.29155925
vt 0.4238911 0.3343725
vt 0.38107786 0.32658827
vt 0.34604883 0.29934347
vt 0.3694015 0.26042235
vt 0.3694015 0.26042235
vt 0.32269615 0.26431444
vt 0.34604883 0.29934347
vt 0.31880403 0.22150122
vt 0.36161727 0.20982487
vt 0.32658827 0.18258008
vt 0.38886207 0.17090374
vt 0.34994093 0.14755107
vt 0.12419839 0.5445466
vt 0.213717 0.626281
vt 0.19425642 0.556223
vt 0.12419839 0.626281
vt 0.19425642 0.69244695
vt 0.12419839 0.7080154
vt 0.054140355 0.696339
vt 0.03467979 0.626281
vt 0.050248243 0.5445466
vt 0.81699455 0.22150122
vt 0.84034723 0.22539334
vt 0.84034723 0.24874601
vt 0.81699455 0.26431444
vt 0.8714841 0.26431444
vt 0.8714841 0.24874601
vt 0.81699455 0.30712768
vt 0.81699455 0.26431444
vt 0.84034723 0.2798829
vt 0.84034723 0.3032356
vt 0.85591567 0.1864722
vt 0.84034723 0.22539334
vt 0.81699455 0.22150122
vt 0.8364551 0.17479587
vt 0.81699455 0.22150122
vt 0.84034723 0.22539334
vt 0.84034723 0.24874601
vt 0.81699455 0.26431444
vt 0.84034723 0.2798829
vt 0.8714841 0.26431444
vt 0.8714841 0.2798829
vt 0.81699455 0.26431444
vt 0.81699455 0.30712768
vt 0.84034723 0.3032356
vt 0.8364551 0.35383305
vt 0.81699455 0.30712768
vt 0.84034723 0.3032356
vt 0.85591567 0.3421567
vt 0.5445466 0.2448539
vt 0.5445466 0.20204066
vt 0.5678993 0.1864722
vt 0.5678993 0.25653023
vt 0.64184946 0.1864722
vt 0.626281 0.25263813
vt 0.626281 0.19425642
vt 0.64184946 0.26042235
vt 0.6574179 0.19425642
vt 0.6574179 0.25263813
vt 0.81699455 0.26431444
vt 0.84034723 0.24874601
vt 0.8714841 0.24874601
vt 0.8714841 0.26431444
vt 0.5678993 0.1864722
vt 0.5678993 0.25653023
vt 0.5445466 0.2448539
vt 0.5445466 0.20204066
vt 0.5990362 0.19425642
vt 0.5678993 0.25653023
vt 0.5678993 0.1864722
vt 0.5990362 0.25263813
vt 0.626281 0.19425642
vt 0.626281 0.25263813
vt 0.5678993 0.25653023
vt 0.5678993 0.1864722
vt 0.5990362 0.19425642
vt 0.5990362 0.25263813
vt 0.626281 0.19425642
vt 0.626281 0.25263813
vt 0.81699455 0.26431444
vt 0.8714841 0.26431444
vt 0.8714841 0.2798829
vt 0.84034723 0.2798829
vt 0.8714841 0.26431444
vt 0.8714841 0.24874601
vt 0.90262103 0.24874601
vt 0.90262103 0.26431444
vt 0.8714841 0.2798829
vt 0.8714841 0.26431444
vt 0.90262103 0.26431444
vt 0.90262103 0.2798829
vt 0.8714841 0.2798829
vt 0.8714841 0.26431444
vt 0.90262103 0.26431444
vt 0.90262103 0.2798829
vt 0.8714841 0.26431444
vt 0.8714841 0.24874601
vt 0.90262103 0.24874601
vt 0.90262103 0.26431444
vt 0.47838068 0.0074349977
vt 0.8247788 0.0074349977
vt 0.8247788 0.023003452
vt 0.47838068 0.023003452
vt 0.44335166 0.0074349977
vt 0.85591567 0.0074349977
vt 0.85591567 0.023003452
vt 0.44335166 0.023003452
vt 0.47838068 0.023003452
vt 0.47838068 0.0074349977
vt 0.82867086 0.0074349977
vt 0.82867086 0.023003452
vt 0.47838068 0.0074349977
vt 0.8247788 0.0074349977
vt 0.8247788 0.023003452
vt 0.47838068 0.023003452
vt 0.44335166 0.0074349977
vt 0.85591567 0.0074349977
vt 0.85591567 0.023003452
vt 0.44335166 0.023003452
vt 0.47838068 0.0074349977
vt 0.82867086 0.0074349977
vt 0.82867086 0.023003452
vt 0.47838068 0.023003452
vt 0.3694015 0.3655094
vt 0.3694015 0.7741813
vt 0.7157996 0.87926835
vt 0.7157996 0.26042235
vt 0.3694015 0.7741813
vt 0.3694015 0.3655094
vt 0.7157996 0.26042235
vt 0.3694015 0.3655094
vt 0.3694015 0.7741813
vt 0.7157996 0.87926835
vt 0.3694015 0.7741813
vt 0.3694015 0.3655094
vt 0.0035428843 0.10084571
vt 0.04635613 0.10862994
vt 0.04635613 0.25653023
vt 0.0035428843 0.26431444
vt 0.7235838 0.9454343
vt 0.6846627 0.9454343
vt 0.6846627 0.9220816
vt 0.7235838 0.9220816
vt 0.0035428843 0.10084571
vt 0.04635613 0.10862994
vt 0.04635613 0.25653023
vt 0.0035428843 0.26431444
vt 0.49784124 0.9220816
vt 0.5367624 0.9220816
vt 0.5367624 0.9454343
vt 0.49784124 0.9454343
vt 0.5367624 0.9454343
vt 0.5367624 0.9220816
vt 0.6846627 0.9220816
vt 0.6846627 0.9454343
vt 0.13976684 0.023003452
vt 0.13976684 0.01132711
vt 0.22928545 0.01132711
vt 0.22928545 0.023003452
vt 0.70023113 0.12419839
vt 0.76639706 0.030787677
vt 0.73915225 0.11641417
vt 0.6340652 0.030787677
vt 0.66131 0.11641417
vt 0.13976684 0.01132711
vt 0.13976684 0.023003452
vt 0.22928545 0.023003452
vt 0.22928545 0.01132711
vt 0.73915225 0.11641417
vt 0.7430444 0.1280905
vt 0.70023113 0.13198262
vt 0.70023113 0.12419839
vt 0.70023113 0.12419839
vt 0.70023113 0.13198262
vt 0.6574179 0.1280905
vt 0.66131 0.11641417
vt 0.6340652 0.030787677
vt 0.70023113 0.12419839
vt 0.66131 0.11641417
vt 0.76639706 0.030787677
vt 0.73915225 0.11641417
vt 0.81699455 0.22150122
vt 0.84034723 0.24874601
vt 0.84034723 0.22539334
vt 0.81699455 0.26431444
vt 0.8714841 0.26431444
vt 0.8714841 0.24874601
vt 0.81699455 0.30712768
vt 0.84034723 0.3032356
vt 0.84034723 0.2798829
vt 0.81699455 0.26431444
vt 0.85591567 0.1864722
vt 0.8364551 0.17479587
vt 0.81699455 0.22150122
vt 0.84034723 0.22539334
vt 0.81699455 0.22150122
vt 0.81699455 0.26431444
vt 0.84034723 0.24874601
vt 0.84034723 0.22539334
vt 0.84034723 0.2798829
vt 0.8714841 0.2798829
vt 0.8714841 0.26431444
vt 0.81699455 0.26431444
vt 0.81699455 0.30712768
vt 0.84034723 0.3032356
vt 0.8364551 0.35383305
vt 0.85591567 0.3421567
vt 0.84034723 0.3032356
vt 0.81699455 0.30712768
vt 0.5445466 0.2448539
vt 0.5678993 0.25653023
vt 0.5678993 0.1864722
vt 0.5445466 0.20204066
vt 0.64184946 0.1864722
vt 0.626281 0.19425642
vt 0.626281 0.25263813
vt 0.64184946 0.26042235
vt 0.6574179 0.19425642
vt 0.6574179 0.25263813
vt 0.81699455 0.26431444
vt 0.8714841 0.26431444
vt 0.8714841 0.24874601
vt 0.84034723 0.24874601
vt 0.5678993 0.1864722
vt 0.5445466 0.20204066
vt 0.5445466 0.2448539
vt 0.5678993 0.25653023
vt 0.5990362 0.19425642
vt 0.5678993 0.1864722
vt 0.5678993 0.25653023
vt 0.5990362 0.25263813
vt 0.626281 0.19425642
vt 0.626281 0.25263813
vt 0.5678993 0.25653023
vt 0.5990362 0.19425642
vt 0.5678993 0.1864722
vt 0.5990362 0.25263813
vt 0.626281 0.19425642
vt 0.626281 0.25263813
vt 0.81699455 0.26431444
vt 0.84034723 0.2798829
vt 0.8714841 0.2798829
vt 0.8714841 0.26431444
vt 0.8714841 0.26431444
vt 0.90262103 0.26431444
vt 0.90262103 0.24874601
vt 0.8714841 0.24874601
vt 0.8714841 0.2798829
vt 0.90262103 0.2798829
vt 0.90262103 0.26431444
vt 0.8714841 0.26431444
vt 0.8714841 0.2798829
vt 0.90262103 0.2798829
vt 0.90262103 0.26431444
vt 0.8714841 0.26431444
vt 0.8714841 0.26431444
vt 0.90262103 0.26431444
vt 0.90262103 0.24874601
vt 0.8714841 0.24874601
vt 0.47838068 0.0074349977
vt 0.47838068 0.023003452
vt 0.8247788 0.023003452
vt 0.8247788 0.0074349977
vt 0.44335166 0.0074349977
vt 0.44335166 0.023003452
vt 0.85591567 0.023003452
vt 0.85591567 0.0074349977
vt 0.47838068 0.023003452
vt 0.82867086 0.023003452
vt 0.82867086 0.0074349977
vt 0.47838068 0.0074349977
vt 0.47838068 0.0074349977
vt 0.47838068 0.023003452
vt 0.8247788 0.023003452
vt 0.8247788 0.0074349977
vt 0.44335166 0.0074349977
vt 0.44335166 0.023003452
vt 0.85591567 0.023003452
vt 0.85591567 0.0074349977
vt 0.47838068 0.0074349977
vt 0.47838068 0.023003452
vt 0.82867086 0.023003452
vt 0.82867086 0.0074349977
vt 0.3694015 0.3655094
vt 0.7157996 0.87926835
vt 0.3694015 0.7741813
vt 0.7157996 0.26042235
vt 0.3694015 0.7741813
vt 0.3694015 0.3655094
vt 0.7157996 0.26042235
vt 0.3694015 0.7741813
vt 0.3694015 0.3655094
vt 0.7157996 0.87926835
vt 0.3694015 0.7741813
vt 0.3694015 0.3655094
vt 0.0035428843 0.10084571
vt 0.0035428843 0.26431444
vt 0.04635613 0.25653023
vt 0.04635613 0.10862994
vt 0.7235838 0.9454343
vt 0.7235838 0.9220816
vt 0.6846627 0.9220816
vt 0.6846627 0.9454343
vt 0.0035428843 0.10084571
vt 0.0035428843 0.26431444
vt 0.04635613 0.25653023
vt 0.04635613 0.10862994
vt 0.49784124 0.9220816
vt 0.49784124 0.9454343
vt 0.5367624 0.9454343
vt 0.5367624 0.9220816
vt 0.5367624 0.9454343
vt 0.6846627 0.9454343
vt 0.6846627 0.9220816
vt 0.5367624 0.9220816
vt 0.13976684 0.023003452
vt 0.22928545 0.023003452
vt 0.22928545 0.01132711
vt 0.13976684 0.01132711
vt 0.70023113 0.12419839
vt 0.73915225 0.11641417
vt 0.76639706 0.030787677
vt 0.6340652 0.030787677
vt 0.66131 0.11641417
vt 0.13976684 0.01132711
vt 0.22928545 0.01132711
vt 0.22928545 0.023003452
vt 0.13976684 0.023003452
vt 0.73915225 0.11641417
vt 0.70023113 0.12419839
vt 0.70023113 0.13198262
vt 0.7430444 0.1280905
vt 0.70023113 0.12419839
vt 0.66131 0.11641417
vt 0.6574179 0.1280905
vt 0.70023113 0.13198262
vt 0.6340652 0.030787677
vt 0.66131 0.11641417
vt 0.70023113 0.12419839
vt 0.76639706 0.030787677
vt 0.73915225 0.11641417
vt 0.6340652 0.10084571
vt 0.5990362 0.093061484
vt 0.6107125 0.15144318
vt 0.6107125 0.050248243
vt 0.56400716 0.026895564
vt 0.56400716 0.10084571
vt 0.56400716 0.17479587
vt 0.51730186 0.050248243
vt 0.51730186 0.15144318
vt 0.52897817 0.093061484
vt 0.49394912 0.10084571
vt 0.1280905 0.4277832
vt 0.0969536 0.4277832
vt 0.120306276 0.45113587
vt 0.120306276 0.4044305
vt 0.0969536 0.46281222
vt 0.0969536 0.3966463
vt 0.07360092 0.45113587
vt 0.07360092 0.4044305
vt 0.06192458 0.4277832
vt 0.1280905 0.46281222
vt 0.1280905 0.5056255
vt 0.15533529 0.4861649
vt 0.17090374 0.4589201
vt 0.17868797 0.4277832
vt 0.14365895 0.4277832
vt 0.0969536 0.47448856
vt 0.0969536 0.5095176
vt 0.06192458 0.5056255
vt 0.13198262 0.39275417
vt 0.06192458 0.46281222
vt 0.17479587 0.3966463
vt 0.15533529 0.3694015
vt 0.1280905 0.34994093
vt 0.03467979 0.4861649
vt 0.019111337 0.46281222
vt 0.0969536 0.38107786
vt 0.0969536 0.3421567
vt 0.06192458 0.34994093
vt 0.01132711 0.4277832
vt 0.04635613 0.4277832
vt 0.06192458 0.39275417
vt 0.03467979 0.3694015
vt 0.015219224 0.3966463
vn 0.5872276 -0.5872276 -0.5570705
vn 0.39677536 -0.5872276 -0.705502
vn 0.33329135 -0.7776798 -0.5330394
vn 0.015870988 -0.8094218 -0.58701324
vn -0.1428392 -0.68245363 -0.7168361
vn -0.3332913 -0.7776798 -0.53303945
vn -0.5872276 -0.39677536 -0.705502
vn -0.5872276 -0.5872276 -0.5570705
vn 0.7141957 -0.14283913 -0.68521637
vn 0.39677536 -0.5872276 -0.705502
vn 0.5872276 -0.5872276 -0.5570705
vn 0.7776798 -0.33329135 -0.5330394
vn 0.8411638 0.015871048 -0.5405475
vn 0.7776798 0.30154932 -0.55161774
vn 0.5872276 0.39677536 -0.705502
vn 0.5872276 0.5872276 -0.5570705
vn 0.36503333 -0.8094218 0.45998594
vn 0.4285174 -0.46025944 0.7775179
vn 0.6189696 -0.6189696 0.4834803
vn 0.23806524 -0.5872276 0.7736205
vn 0.015870988 -0.87290585 0.4876305
vn -0.015871048 -0.65071166 0.759159
vn -0.3650334 -0.8094218 0.45998588
vn -0.23806524 -0.5872276 0.7736205
vn -0.42851746 -0.46025944 0.77751786
vn -0.6189697 -0.6189696 0.48348024
vn 0.6189696 -0.6189696 0.4834803
vn 0.5237435 -0.8411638 -0.13467072
vn 0.36503333 -0.8094218 0.45998594
vn 0.70710677 -0.70710677 -0
vn 0.33329135 -0.7776798 -0.5330394
vn 0.5872276 -0.5872276 -0.5570705
vn 0.7776798 -0.33329135 -0.5330394
vn 0.9207517 -0.390149 -0
vn 0.8411638 0.015871048 -0.5405475
vn 0.8411638 -0.33329135 0.42586422
vn 0.4285174 -0.46025944 0.7775179
vn 0.5872276 -0.23806524 0.7736205
vn 0.999874 0.015871048 -0.00034391563
vn 0.9046479 0.015871048 0.4258642
vn 0.6189696 0.015871048 0.78525454
vn 0.5872276 0.23806524 0.7736205
vn 0.8411638 0.3332913 0.42586425
vn 0.4285174 0.46025944 0.7775179
vn 0.6189696 0.6189697 0.48348024
vn 0.9207517 0.390149 -0
vn 0.7776798 0.30154932 -0.55161774
vn 0.70710677 0.70710677 -0
vn 0.36503333 0.8411639 0.39899123
vn 0.5872276 0.5872276 -0.5570705
vn 0.36320817 0.931708 -0
vn 0.36503333 0.7776798 -0.51182497
vn 0.36503333 0.8411639 0.39899123
vn 0.6189696 0.6189697 0.48348024
vn 0.4285174 0.46025944 0.7775179
vn 0.23806524 0.6189697 0.7484661
vn 0.015870988 0.87290585 0.4876305
vn 0.015870988 0.65071166 0.759159
vn -0.23806524 0.6189697 0.7484661
vn -0.3650334 0.8411639 0.39899114
vn -0.42851746 0.46025944 0.77751786
vn -0.6189697 0.6189697 0.4834802
vn -0.6189697 -0.6189696 0.48348024
vn -0.3650334 -0.8094218 0.45998588
vn -0.5237435 -0.8411638 -0.13467072
vn -0.70710677 -0.70710677 -0
vn -0.3332913 -0.7776798 -0.53303945
vn -0.5872276 -0.5872276 -0.5570705
vn -0.7776798 -0.30154932 -0.55161774
vn -0.9207517 -0.390149 -0
vn -0.8411639 -0.015870988 -0.5405474
vn -0.8411639 -0.33329135 0.42586407
vn -0.42851746 -0.46025944 0.77751786
vn -0.5872276 -0.23806524 0.7736205
vn -0.999874 0.015871048 -0.00034391563
vn -0.90464795 0.015871048 0.42586404
vn -0.6189697 0.015871048 0.78525454
vn -0.5872276 0.23806524 0.7736205
vn -0.8411639 0.3332913 0.42586413
vn -0.42851746 0.46025944 0.77751786
vn -0.6189697 0.6189697 0.4834802
vn -0.9207517 0.390149 -0
vn -0.7776798 0.3332913 -0.53303945
vn -0.70710677 0.70710677 -0
vn -0.3650334 0.8411639 0.39899114
vn -0.5872276 0.5872276 -0.5570705
vn -0.36320823 0.931708 -0
vn -0.3332913 0.7776798 -0.53303945
vn -0.015871048 0.015871048 -0.99974805
vn -0.015871048 0.015871048 -0.99974805
vn -0.015871048 0.015871048 -0.99974805
vn -0.015871048 0.015871048 -0.99974805
vn -0.015871048 0.015871048 -0.99974805
vn -0.015871048 0.015871048 -0.99974805
vn -0.015871048 0.015871048 -0.99974805
vn -0.015871048 0.015871048 -0.99974805
vn -0.5872276 -0.39677536 -0.705502
vn -0.7776798 -0.30154932 -0.55161774
vn -0.5872276 -0.5872276 -0.5570705
vn -0.7141957 0.1428392 -0.68521637
vn -0.8411639 -0.015870988 -0.5405474
vn -0.7776798 0.3332913 -0.53303945
vn -0.5872276 0.5872276 -0.5570705
vn -0.39677536 0.5872276 -0.705502
vn -0.39677536 0.5872276 -0.705502
vn -0.3332913 0.7776798 -0.53303945
vn -0.5872276 0.5872276 -0.5570705
vn -0.015871048 0.8411639 -0.5405474
vn 0.14283913 0.7141957 -0.68521637
vn 0.36503333 0.7776798 -0.51182497
vn 0.5872276 0.39677536 -0.705502
vn 0.5872276 0.5872276 -0.5570705
vn -0.015871048 0.8411639 -0.5405474
vn -0.36320823 0.931708 -0
vn -0.3332913 0.7776798 -0.53303945
vn 0.015870988 0.999874 -0.00034526698
vn -0.3650334 0.8411639 0.39899114
vn 0.015870988 0.87290585 0.4876305
vn 0.36503333 0.8411639 0.39899123
vn 0.36320817 0.931708 -0
vn 0.36503333 0.7776798 -0.51182497
vn 0.23806524 -0.8411638 0.48555985
vn 0.23806524 -0.8411638 0.48555985
vn 0.23806524 -0.8411638 0.48555985
vn 0.23806524 -0.8411638 0.48555985
vn 0.17458117 -0.8411638 0.511825
vn 0.17458117 -0.8411638 0.511825
vn 0.23806524 -0.8411638 -0.48555985
vn 0.23806524 -0.8411638 -0.48555985
vn 0.23806524 -0.8411638 -0.48555985
vn 0.23806524 -0.8411638 -0.48555985
vn 0.23806524 0.015871048 -0.97111946
vn 0.23806524 0.015871048 -0.97111946
vn 0.23806524 0.015871048 -0.97111946
vn 0.23806524 0.015871048 -0.97111946
vn 0.23806524 0.8411639 -0.48555973
vn 0.23806524 0.8411639 -0.48555973
vn 0.23806524 0.8411639 -0.48555973
vn 0.23806524 0.8411639 -0.48555973
vn 0.17458117 0.8411639 0.5118249
vn 0.17458117 0.8411639 0.5118249
vn 0.17458117 0.8411639 0.5118249
vn 0.17458117 0.8411639 0.5118249
vn 0.23806524 0.8411639 0.48555973
vn 0.23806524 0.8411639 0.48555973
vn 0.23806524 0.015871048 0.97111946
vn 0.23806524 0.015871048 0.97111946
vn 0.23806524 0.015871048 0.97111946
vn 0.23806524 0.015871048 0.97111946
vn 0.999874 0.015871048 -0.00034391563
vn 0.999874 0.015871048 -0.00034391563
vn 0.999874 0.015871048 -0.00034391563
vn 0.999874 0.015871048 -0.00034391563
vn 0.999874 0.015871048 -0.00034391563
vn 0.999874 0.015871048 -0.00034391563
vn 0.999874 0.015871048 -0.00034391563
vn 0.999874 0.015871048 -0.00034391563
vn 0.999874 0.015871048 -0.00034391563
vn 0.999874 0.015871048 -0.00034391563
vn 0.17458117 0.8411639 -0.5118249
vn 0.17458117 0.8411639 -0.5118249
vn 0.17458117 0.8411639 -0.5118249
vn 0.17458117 0.8411639 -0.5118249
vn 0.999874 0.015871048 -0.00034391563
vn 0.999874 0.015871048 -0.00034391563
vn 0.999874 0.015871048 -0.00034391563
vn 0.999874 0.015871048 -0.00034391563
vn -0.015871048 0.015871048 -0.99974805
vn -0.015871048 0.015871048 -0.99974805
vn -0.015871048 0.015871048 -0.99974805
vn -0.015871048 0.015871048 -0.99974805
vn -0.015871048 0.015871048 -0.99974805
vn -0.015871048 0.015871048 -0.99974805
vn -0.015871048 0.015871048 0.99974805
vn -0.015871048 0.015871048 0.99974805
vn -0.015871048 0.015871048 0.99974805
vn -0.015871048 0.015871048 0.99974805
vn -0.015871048 0.015871048 0.99974805
vn -0.015871048 0.015871048 0.99974805
vn 0.17458117 -0.8411638 -0.511825
vn 0.17458117 -0.8411638 -0.511825
vn 0.17458117 -0.8411638 -0.511825
vn 0.17458117 -0.8411638 -0.511825
vn -0.015871048 0.90464795 -0.42586404
vn -0.015871048 0.90464795 -0.42586404
vn -0.015871048 0.90464795 -0.42586404
vn -0.015871048 0.90464795 -0.42586404
vn -0.015871048 -0.9046479 -0.4258642
vn -0.015871048 -0.9046479 -0.4258642
vn -0.015871048 -0.9046479 -0.4258642
vn -0.015871048 -0.9046479 -0.4258642
vn -0.015871048 0.90464795 0.42586404
vn -0.015871048 0.90464795 0.42586404
vn -0.015871048 0.90464795 0.42586404
vn -0.015871048 0.90464795 0.42586404
vn -0.015871048 -0.9046479 0.4258642
vn -0.015871048 -0.9046479 0.4258642
vn -0.015871048 -0.9046479 0.4258642
vn -0.015871048 -0.9046479 0.4258642
vn -0.015871048 0.30154932 -0.9533185
vn -0.015871048 0.30154932 -0.9533185
vn -0.015871048 0.30154932 -0.9533185
vn -0.015871048 0.30154932 -0.9533185
vn -0.015871048 0.999874 -0.00034526698
vn -0.015871048 0.999874 -0.00034526698
vn -0.015871048 0.999874 -0.00034526698
vn -0.015871048 0.999874 -0.00034526698
vn -0.015871048 0.30154932 0.9533185
vn -0.015871048 0.30154932 0.9533185
vn -0.015871048 0.30154932 0.9533185
vn -0.015871048 0.30154932 0.9533185
vn -0.015871048 -0.30154932 0.9533185
vn -0.015871048 -0.30154932 0.9533185
vn -0.015871048 -0.30154932 0.9533185
vn -0.015871048 -0.30154932 0.9533185
vn -0.015871048 -0.999874 -0.00034526698
vn -0.015871048 -0.999874 -0.00034526698
vn -0.015871048 -0.999874 -0.00034526698
vn -0.015871048 -0.999874 -0.00034526698
vn -0.015871048 -0.30154932 -0.9533185
vn -0.015871048 -0.30154932 -0.9533185
vn -0.015871048 -0.30154932 -0.9533185
vn -0.015871048 -0.30154932 -0.9533185
vn 0.999874 0.015871048 -0.00034391563
vn 0.999874 0.015871048 -0.00034391563
vn 0.999874 0.015871048 -0.00034391563
vn 0.999874 0.015871048 -0.00034391563
vn 0.999874 0.015871048 -0.00034391563
vn 0.999874 0.015871048 -0.00034391563
vn -0.999874 0.015871048 -0.00034391563
vn -0.999874 0.015871048 -0.00034391563
vn -0.999874 0.015871048 -0.00034391563
vn -0.999874 0.015871048 -0.00034391563
vn -0.999874 0.015871048 -0.00034391563
vn -0.999874 0.015871048 -0.00034391563
vn -0.015871048 0.015871048 0.99974805
vn -0.015871048 0.015871048 0.99974805
vn -0.015871048 0.015871048 0.99974805
vn -0.015871048 0.015871048 0.99974805
vn -0.20632327 0.968132 -0.1419547
vn -0.20632327 0.968132 -0.1419547
vn -0.20632327 0.968132 -0.1419547
vn -0.20632327 0.968132 -0.1419547
vn -0.015871048 0.015871048 -0.99974805
vn -0.015871048 0.015871048 -0.99974805
vn -0.015871048 0.015871048 -0.99974805
vn -0.015871048 0.015871048 -0.99974805
vn -0.20632327 -0.96813196 -0.14195512
vn -0.20632327 -0.96813196 -0.14195512
vn -0.20632327 -0.96813196 -0.14195512
vn -0.20632327 -0.96813196 -0.14195512
vn -0.999874 0.015871048 -0.00034391563
vn -0.999874 0.015871048 -0.00034391563
vn -0.999874 0.015871048 -0.00034391563
vn -0.999874 0.015871048 -0.00034391563
vn -0.2684583 0.96329135 -0
vn -0.2684583 0.96329135 -0
vn -0.2684583 0.96329135 -0
vn -0.2684583 0.96329135 -0
vn -0.015871048 0.015871048 -0.99974805
vn -0.015871048 0.015871048 -0.99974805
vn -0.015871048 0.015871048 -0.99974805
vn -0.015871048 0.015871048 -0.99974805
vn -0.015871048 0.015871048 -0.99974805
vn -0.2684583 -0.9632913 -0
vn -0.2684583 -0.9632913 -0
vn -0.2684583 -0.9632913 -0
vn -0.2684583 -0.9632913 -0
vn -0.9938838 -0.110431515 -0
vn -0.9938838 -0.110431515 -0
vn -0.9938838 -0.110431515 -0
vn -0.9938838 -0.110431515 -0
vn -0.9938838 0.110431515 -0
vn -0.9938838 0.110431515 -0
vn -0.9938838 0.110431515 -0
vn -0.9938838 0.110431515 -0
vn -0.015871048 0.015871048 0.99974805
vn -0.015871048 0.015871048 0.99974805
vn -0.015871048 0.015871048 0.99974805
vn -0.015871048 0.015871048 0.99974805
vn -0.015871048 0.015871048 0.99974805
vn -0.23806524 -0.8411638 0.48555985
vn -0.23806524 -0.8411638 0.48555985
vn -0.23806524 -0.8411638 0.48555985
vn -0.23806524 -0.8411638 0.48555985
vn -0.17458117 -0.8411638 0.511825
vn -0.17458117 -0.8411638 0.511825
vn -0.23806524 -0.8411638 -0.48555985
vn -0.23806524 -0.8411638 -0.48555985
vn -0.23806524 -0.8411638 -0.48555985
vn -0.23806524 -0.8411638 -0.48555985
vn -0.23806524 0.015871048 -0.97111946
vn -0.23806524 0.015871048 -0.97111946
vn -0.23806524 0.015871048 -0.97111946
vn -0.23806524 0.015871048 -0.97111946
vn -0.23806524 0.8411639 -0.48555973
vn -0.23806524 0.8411639 -0.48555973
vn -0.23806524 0.8411639 -0.48555973
vn -0.23806524 0.8411639 -0.48555973
vn -0.17458117 0.8411639 0.5118249
vn -0.17458117 0.8411639 0.5118249
vn -0.17458117 0.8411639 0.5118249
vn -0.17458117 0.8411639 0.5118249
vn -0.23806524 0.8411639 0.48555973
vn -0.23806524 0.8411639 0.48555973
vn -0.23806524 0.015871048 0.97111946
vn -0.23806524 0.015871048 0.97111946
vn -0.23806524 0.015871048 0.97111946
vn -0.23806524 0.015871048 0.97111946
vn -0.999874 0.015871048 -0.00034391563
vn -0.999874 0.015871048 -0.00034391563
vn -0.999874 0.015871048 -0.00034391563
vn -0.999874 0.015871048 -0.00034391563
vn -0.999874 0.015871048 -0.00034391563
vn -0.999874 0.015871048 -0.00034391563
vn -0.999874 0.015871048 -0.00034391563
vn -0.999874 0.015871048 -0.00034391563
vn -0.999874 0.015871048 -0.00034391563
vn -0.999874 0.015871048 -0.00034391563
vn -0.17458117 0.8411639 -0.5118249
vn -0.17458117 0.8411639 -0.5118249
vn -0.17458117 0.8411639 -0.5118249
vn -0.17458117 0.8411639 -0.5118249
vn -0.999874 0.015871048 -0.00034391563
vn -0.999874 0.015871048 -0.00034391563
vn -0.999874 0.015871048 -0.00034391563
vn -0.999874 0.015871048 -0.00034391563
vn -0.015871048 0.015871048 -0.99974805
vn -0.015871048 0.015871048 -0.99974805
vn -0.015871048 0.015871048 -0.99974805
vn -0.015871048 0.015871048 -0.99974805
vn -0.015871048 0.015871048 -0.99974805
vn -0.015871048 0.015871048 -0.99974805
vn -0.015871048 0.015871048 0.99974805
vn -0.015871048 0.015871048 0.99974805
vn -0.015871048 0.015871048 0.99974805
vn -0.015871048 0.015871048 0.99974805
vn -0.015871048 0.015871048 0.99974805
vn -0.015871048 0.015871048 0.99974805
vn -0.17458117 -0.8411638 -0.511825
vn -0.17458117 -0.8411638 -0.511825
vn -0.17458117 -0.8411638 -0.511825
vn -0.17458117 -0.8411638 -0.511825
vn -0.015871048 0.90464795 -0.42586404
vn -0.015871048 0.90464795 -0.42586404
vn -0.015871048 0.90464795 -0.42586404
vn -0.015871048 0.90464795 -0.42586404
vn -0.015871048 -0.9046479 -0.4258642
vn -0.015871048 -0.9046479 -0.4258642
vn -0.015871048 -0.9046479 -0.4258642
vn -0.015871048 -0.9046479 -0.4258642
vn -0.015871048 0.90464795 0.42586404
vn -0.015871048 0.90464795 0.42586404
vn -0.015871048 0.90464795 0.42586404
vn -0.015871048 0.90464795 0.42586404
vn -0.015871048 -0.9046479 0.4258642
vn -0.015871048 -0.9046479 0.4258642
vn -0.015871048 -0.9046479 0.4258642
vn -0.015871048 -0.9046479 0.4258642
vn -0.015871048 0.30154932 -0.9533185
vn -0.015871048 0.30154932 -0.9533185
vn -0.015871048 0.30154932 -0.9533185
vn -0.015871048 0.30154932 -0.9533185
vn -0.015871048 0.999874 -0.00034526698
vn -0.015871048 0.999874 -0.00034526698
vn -0.015871048 0.999874 -0.00034526698
vn -0.015871048 0.999874 -0.00034526698
vn -0.015871048 0.30154932 0.9533185
vn -0.015871048 0.30154932 0.9533185
vn -0.015871048 0.30154932 0.9533185
vn -0.015871048 0.30154932 0.9533185
vn -0.015871048 -0.30154932 0.9533185
vn -0.015871048 -0.30154932 0.9533185
vn -0.015871048 -0.30154932 0.9533185
vn -0.015871048 -0.30154932 0.9533185
vn -0.015871048 -0.999874 -0.00034526698
vn -0.015871048 -0.999874 -0.00034526698
vn -0.015871048 -0.999874 -0.00034526698
vn -0.015871048 -0.999874 -0.00034526698
vn -0.015871048 -0.30154932 -0.9533185
vn -0.015871048 -0.30154932 -0.9533185
vn -0.015871048 -0.30154932 -0.9533185
vn -0.015871048 -0.30154932 -0.9533185
vn -0.999874 0.015871048 -0.00034391563
vn -0.999874 0.015871048 -0.00034391563
vn -0.999874 0.015871048 -0.00034391563
vn -0.999874 0.015871048 -0.00034391563
vn -0.999874 0.015871048 -0.00034391563
vn -0.999874 0.015871048 -0.00034391563
vn 0.999874 0.015871048 -0.00034391563
vn 0.999874 0.015871048 -0.00034391563
vn 0.999874 0.015871048 -0.00034391563
vn 0.999874 0.015871048 -0.00034391563
vn 0.999874 0.015871048 -0.00034391563
vn 0.999874 0.015871048 -0.00034391563
vn -0.015871048 0.015871048 0.99974805
vn -0.015871048 0.015871048 0.99974805
vn -0.015871048 0.015871048 0.99974805
vn -0.015871048 0.015871048 0.99974805
vn 0.2063232 0.968132 -0.1419547
vn 0.2063232 0.968132 -0.1419547
vn 0.2063232 0.968132 -0.1419547
vn 0.2063232 0.968132 -0.1419547
vn -0.015871048 0.015871048 -0.99974805
vn -0.015871048 0.015871048 -0.99974805
vn -0.015871048 0.015871048 -0.99974805
vn -0.015871048 0.015871048 -0.99974805
vn 0.2063232 -0.96813196 -0.14195512
vn 0.2063232 -0.96813196 -0.14195512
vn 0.2063232 -0.96813196 -0.14195512
vn 0.2063232 -0.96813196 -0.14195512
vn 0.999874 0.015871048 -0.00034391563
vn 0.999874 0.015871048 -0.00034391563
vn 0.999874 0.015871048 -0.00034391563
vn 0.999874 0.015871048 -0.00034391563
vn 0.26845825 0.96329135 -0
vn 0.26845825 0.96329135 -0
vn 0.26845825 0.96329135 -0
vn 0.26845825 0.96329135 -0
vn -0.015871048 0.015871048 -0.99974805
vn -0.015871048 0.015871048 -0.99974805
vn -0.015871048 0.015871048 -0.99974805
vn -0.015871048 0.015871048 -0.99974805
vn -0.015871048 0.015871048 -0.99974805
vn 0.26845825 -0.9632913 -0
vn 0.26845825 -0.9632913 -0
vn 0.26845825 -0.9632913 -0
vn 0.26845825 -0.9632913 -0
vn 0.9938838 -0.110431515 -0
vn 0.9938838 -0.110431515 -0
vn 0.9938838 -0.110431515 -0
vn 0.9938838 -0.110431515 -0
vn 0.9938838 0.110431515 -0
vn 0.9938838 0.110431515 -0
vn 0.9938838 0.110431515 -0
vn 0.9938838 0.110431515 -0
vn -0.015871048 0.015871048 0.99974805
vn -0.015871048 0.015871048 0.99974805
vn -0.015871048 0.015871048 0.99974805
vn -0.015871048 0.015871048 0.99974805
vn -0.015871048 0.015871048 0.99974805
vn 0.5237435 -0.8411638 -0.13467072
vn 0.29738364 -0.954758 -0
vn 0.36503333 -0.8094218 0.45998594
vn 0.33329135 -0.7776798 -0.5330394
vn 0.015870988 -0.8094218 -0.58701324
vn 0.015870988 -0.999874 -0.00034526698
vn 0.015870988 -0.87290585 0.4876305
vn -0.3332913 -0.7776798 -0.53303945
vn -0.3650334 -0.8094218 0.45998588
vn -0.29738364 -0.954758 -0
vn -0.5237435 -0.8411638 -0.13467072
vn 0.33329135 0.015871048 0.94269025
vn -0.015871048 0.015871048 0.99974805
vn 0.23806524 0.20632327 0.9490815
vn 0.23806524 -0.2063232 0.9490815
vn -0.015871048 0.3332913 0.9426903
vn -0.015871048 -0.33329135 0.94269025
vn -0.23806524 0.20632327 0.9490815
vn -0.23806524 -0.2063232 0.9490815
vn -0.3332913 0.015871048 0.9426903
vn 0.23806524 0.20632327 0.9490815
vn 0.23806524 0.6189697 0.7484661
vn 0.4285174 0.46025944 0.7775179
vn 0.5872276 0.23806524 0.7736205
vn 0.6189696 0.015871048 0.78525454
vn 0.33329135 0.015871048 0.94269025
vn -0.015871048 0.3332913 0.9426903
vn 0.015870988 0.65071166 0.759159
vn -0.23806524 0.6189697 0.7484661
vn 0.23806524 -0.2063232 0.9490815
vn -0.23806524 0.20632327 0.9490815
vn 0.5872276 -0.23806524 0.7736205
vn 0.4285174 -0.46025944 0.7775179
vn 0.23806524 -0.5872276 0.7736205
vn -0.42851746 0.46025944 0.77751786
vn -0.5872276 0.23806524 0.7736205
vn -0.015871048 -0.33329135 0.94269025
vn -0.015871048 -0.65071166 0.759159
vn -0.23806524 -0.5872276 0.7736205
vn -0.6189697 0.015871048 0.78525454
vn -0.3332913 0.015871048 0.9426903
vn -0.23806524 -0.2063232 0.9490815
vn -0.42851746 -0.46025944 0.77751786
vn -0.5872276 -0.23806524 0.7736205
g home_prop_tiefighter_mesh_0
f 3/3/3 2/2/2 1/1/1
f 3/3/3 4/4/4 2/2/2
f 4/4/4 5/5/5 2/2/2
f 4/4/4 6/6/6 5/5/5
f 5/5/5 6/6/6 7/7/7
f 6/6/6 8/8/8 7/7/7
f 11/11/11 10/10/10 9/9/9
f 12/12/12 11/11/11 9/9/9
f 13/13/13 12/12/12 9/9/9
f 14/14/14 13/13/13 9/9/9
f 15/15/15 14/14/14 9/9/9
f 16/16/16 14/14/14 15/15/15
f 19/19/19 18/18/18 17/17/17
f 18/18/18 20/20/20 17/17/17
f 21/21/21 17/17/17 20/20/20
f 22/22/22 21/21/21 20/20/20
f 23/23/23 21/21/21 22/22/22
f 24/24/24 23/23/23 22/22/22
f 24/24/24 25/25/25 23/23/23
f 25/25/25 26/26/26 23/23/23
f 29/29/29 28/28/28 27/27/27
f 28/28/28 30/30/30 27/27/27
f 28/28/28 31/31/31 30/30/30
f 31/31/31 32/32/32 30/30/30
f 30/30/30 32/32/32 33/33/33
f 34/34/34 30/30/30 33/33/33
f 27/27/27 30/30/30 34/34/34
f 34/34/34 33/33/33 35/35/35
f 36/36/36 27/27/27 34/34/34
f 37/37/37 27/27/27 36/36/36
f 38/38/38 37/37/37 36/36/36
f 39/39/39 34/34/34 35/35/35
f 36/36/36 34/34/34 39/39/39
f 38/38/38 36/36/36 40/40/40
f 40/40/40 36/36/36 39/39/39
f 41/41/41 38/38/38 40/40/40
f 42/42/42 41/41/41 40/40/40
f 43/43/43 42/42/42 40/40/40
f 43/43/43 40/40/40 39/39/39
f 44/44/44 42/42/42 43/43/43
f 45/45/45 44/44/44 43/43/43
f 46/46/46 39/39/39 35/35/35
f 46/46/46 43/43/43 39/39/39
f 45/45/45 43/43/43 46/46/46
f 47/47/47 46/46/46 35/35/35
f 48/48/48 45/45/45 46/46/46
f 48/48/48 46/46/46 47/47/47
f 45/45/45 48/48/48 49/49/49
f 50/50/50 48/48/48 47/47/47
f 48/48/48 51/51/51 49/49/49
f 48/48/48 50/50/50 51/51/51
f 50/50/50 52/52/52 51/51/51
f 55/55/55 54/54/54 53/53/53
f 56/56/56 55/55/55 53/53/53
f 56/56/56 53/53/53 57/57/57
f 58/58/58 56/56/56 57/57/57
f 59/59/59 58/58/58 57/57/57
f 60/60/60 59/59/59 57/57/57
f 61/61/61 59/59/59 60/60/60
f 62/62/62 61/61/61 60/60/60
f 65/65/65 64/64/64 63/63/63
f 66/66/66 65/65/65 63/63/63
f 67/67/67 65/65/65 66/66/66
f 68/68/68 67/67/67 66/66/66
f 68/68/68 66/66/66 69/69/69
f 66/66/66 70/70/70 69/69/69
f 66/66/66 63/63/63 70/70/70
f 69/69/69 70/70/70 71/71/71
f 63/63/63 72/72/72 70/70/70
f 63/63/63 73/73/73 72/72/72
f 73/73/73 74/74/74 72/72/72
f 70/70/70 75/75/75 71/71/71
f 70/70/70 72/72/72 75/75/75
f 72/72/72 74/74/74 76/76/76
f 72/72/72 76/76/76 75/75/75
f 74/74/74 77/77/77 76/76/76
f 77/77/77 78/78/78 76/76/76
f 78/78/78 79/79/79 76/76/76
f 76/76/76 79/79/79 75/75/75
f 78/78/78 80/80/80 79/79/79
f 80/80/80 81/81/81 79/79/79
f 75/75/75 82/82/82 71/71/71
f 79/79/79 82/82/82 75/75/75
f 79/79/79 81/81/81 82/82/82
f 82/82/82 83/83/83 71/71/71
f 81/81/81 84/84/84 82/82/82
f 82/82/82 84/84/84 83/83/83
f 84/84/84 81/81/81 85/85/85
f 84/84/84 86/86/86 83/83/83
f 87/87/87 84/84/84 85/85/85
f 86/86/86 84/84/84 87/87/87
f 88/88/88 86/86/86 87/87/87
f 91/91/91 90/90/90 89/89/89
f 89/89/89 92/92/92 91/91/91
f 89/89/89 93/93/93 92/92/92
f 93/93/93 94/94/94 92/92/92
f 93/93/93 95/95/95 94/94/94
f 95/95/95 96/96/96 94/94/94
f 99/99/99 98/98/98 97/97/97
f 97/97/97 98/98/98 100/100/100
f 98/98/98 101/101/101 100/100/100
f 101/101/101 102/102/102 100/100/100
f 102/102/102 103/103/103 100/100/100
f 103/103/103 104/104/104 100/100/100
f 107/107/107 106/106/106 105/105/105
f 106/106/106 108/108/108 105/105/105
f 108/108/108 109/109/109 105/105/105
f 108/108/108 110/110/110 109/109/109
f 109/109/109 110/110/110 111/111/111
f 110/110/110 112/112/112 111/111/111
f 115/115/115 114/114/114 113/113/113
f 114/114/114 116/116/116 113/113/113
f 114/114/114 117/117/117 116/116/116
f 117/117/117 118/118/118 116/116/116
f 118/118/118 119/119/119 116/116/116
f 119/119/119 120/120/120 116/116/116
f 116/116/116 120/120/120 113/113/113
f 120/120/120 121/121/121 113/113/113
f 124/124/124 123/123/123 122/122/122
f 125/125/125 124/124/124 122/122/122
f 125/125/125 126/126/126 124/124/124
f 126/126/126 127/127/127 124/124/124
f 130/130/130 129/129/129 128/128/128
f 131/131/131 130/130/130 128/128/128
f 134/134/134 133/133/133 132/132/132
f 135/135/135 134/134/134 132/132/132
f 138/138/138 137/137/137 136/136/136
f 139/139/139 138/138/138 136/136/136
f 142/142/142 141/141/141 140/140/140
f 141/141/141 143/143/143 140/140/140
f 140/140/140 143/143/143 144/144/144
f 145/145/145 140/140/140 144/144/144
f 148/148/148 147/147/147 146/146/146
f 149/149/149 148/148/148 146/146/146
f 152/152/152 151/151/151 150/150/150
f 153/153/153 152/152/152 150/150/150
f 156/156/156 155/155/155 154/154/154
f 155/155/155 157/157/157 154/154/154
f 154/154/154 157/157/157 158/158/158
f 157/157/157 159/159/159 158/158/158
f 162/162/162 161/161/161 160/160/160
f 163/163/163 162/162/162 160/160/160
f 166/166/166 165/165/165 164/164/164
f 167/167/167 166/166/166 164/164/164
f 170/170/170 169/169/169 168/168/168
f 169/169/169 171/171/171 168/168/168
f 172/172/172 168/168/168 171/171/171
f 173/173/173 172/172/172 171/171/171
f 176/176/176 175/175/175 174/174/174
f 177/177/177 176/176/176 174/174/174
f 178/178/178 176/176/176 177/177/177
f 179/179/179 178/178/178 177/177/177
f 182/182/182 181/181/181 180/180/180
f 183/183/183 182/182/182 180/180/180
f 186/186/186 185/185/185 184/184/184
f 187/187/187 186/186/186 184/184/184
f 190/190/190 189/189/189 188/188/188
f 191/191/191 190/190/190 188/188/188
f 194/194/194 193/193/193 192/192/192
f 195/195/195 194/194/194 192/192/192
f 198/198/198 197/197/197 196/196/196
f 199/199/199 198/198/198 196/196/196
f 202/202/202 201/201/201 200/200/200
f 203/203/203 202/202/202 200/200/200
f 206/206/206 205/205/205 204/204/204
f 207/207/207 206/206/206 204/204/204
f 210/210/210 209/209/209 208/208/208
f 211/211/211 210/210/210 208/208/208
f 214/214/214 213/213/213 212/212/212
f 215/215/215 214/214/214 212/212/212
f 218/218/218 217/217/217 216/216/216
f 219/219/219 218/218/218 216/216/216
f 222/222/222 221/221/221 220/220/220
f 223/223/223 222/222/222 220/220/220
f 226/226/226 225/225/225 224/224/224
f 227/227/227 226/226/226 224/224/224
f 226/226/226 227/227/227 228/228/228
f 227/227/227 229/229/229 228/228/228
f 232/232/232 231/231/231 230/230/230
f 233/233/233 232/232/232 230/230/230
f 234/234/234 233/233/233 230/230/230
f 235/235/235 234/234/234 230/230/230
f 238/238/238 237/237/237 236/236/236
f 239/239/239 238/238/238 236/236/236
f 242/242/242 241/241/241 240/240/240
f 243/243/243 242/242/242 240/240/240
f 246/246/246 245/245/245 244/244/244
f 247/247/247 246/246/246 244/244/244
f 250/250/250 249/249/249 248/248/248
f 251/251/251 250/250/250 248/248/248
f 254/254/254 253/253/253 252/252/252
f 255/255/255 254/254/254 252/252/252
f 258/258/258 257/257/257 256/256/256
f 259/259/259 258/258/258 256/256/256
f 262/262/262 261/261/261 260/260/260
f 261/261/261 263/263/263 260/260/260
f 263/263/263 264/264/264 260/260/260
f 267/267/267 266/266/266 265/265/265
f 268/268/268 267/267/267 265/265/265
f 271/271/271 270/270/270 269/269/269
f 272/272/272 271/271/271 269/269/269
f 275/275/275 274/274/274 273/273/273
f 276/276/276 275/275/275 273/273/273
f 279/279/279 278/278/278 277/277/277
f 278/278/278 280/280/280 277/277/277
f 281/281/281 280/280/280 278/278/278
f 284/284/284 283/283/283 282/282/282
f 283/283/283 285/285/285 282/282/282
f 286/286/286 285/285/285 283/283/283
f 287/287/287 286/286/286 283/283/283
f 290/290/290 289/289/289 288/288/288
f 291/291/291 290/290/290 288/288/288
f 294/294/294 293/293/293 292/292/292
f 295/295/295 294/294/294 292/292/292
f 298/298/298 297/297/297 296/296/296
f 299/299/299 298/298/298 296/296/296
f 302/302/302 301/301/301 300/300/300
f 303/303/303 302/302/302 300/300/300
f 303/303/303 300/300/300 304/304/304
f 300/300/300 305/305/305 304/304/304
f 308/308/308 307/307/307 306/306/306
f 309/309/309 308/308/308 306/306/306
f 312/312/312 311/311/311 310/310/310
f 313/313/313 312/312/312 310/310/310
f 316/316/316 315/315/315 314/314/314
f 317/317/317 316/316/316 314/314/314
f 317/317/317 314/314/314 318/318/318
f 319/319/319 317/317/317 318/318/318
f 322/322/322 321/321/321 320/320/320
f 323/323/323 322/322/322 320/320/320
f 326/326/326 325/325/325 324/324/324
f 327/327/327 326/326/326 324/324/324
f 330/330/330 329/329/329 328/328/328
f 331/331/331 330/330/330 328/328/328
f 328/328/328 332/332/332 331/331/331
f 332/332/332 333/333/333 331/331/331
f 336/336/336 335/335/335 334/334/334
f 335/335/335 337/337/337 334/334/334
f 335/335/335 338/338/338 337/337/337
f 338/338/338 339/339/339 337/337/337
f 342/342/342 341/341/341 340/340/340
f 343/343/343 342/342/342 340/340/340
f 346/346/346 345/345/345 344/344/344
f 347/347/347 346/346/346 344/344/344
f 350/350/350 349/349/349 348/348/348
f 351/351/351 350/350/350 348/348/348
f 354/354/354 353/353/353 352/352/352
f 355/355/355 354/354/354 352/352/352
f 358/358/358 357/357/357 356/356/356
f 359/359/359 358/358/358 356/356/356
f 362/362/362 361/361/361 360/360/360
f 363/363/363 362/362/362 360/360/360
f 366/366/366 365/365/365 364/364/364
f 367/367/367 366/366/366 364/364/364
f 370/370/370 369/369/369 368/368/368
f 371/371/371 370/370/370 368/368/368
f 374/374/374 373/373/373 372/372/372
f 375/375/375 374/374/374 372/372/372
f 378/378/378 377/377/377 376/376/376
f 379/379/379 378/378/378 376/376/376
f 382/382/382 381/381/381 380/380/380
f 383/383/383 382/382/382 380/380/380
f 386/386/386 385/385/385 384/384/384
f 385/385/385 387/387/387 384/384/384
f 387/387/387 385/385/385 388/388/388
f 389/389/389 387/387/387 388/388/388
f 392/392/392 391/391/391 390/390/390
f 391/391/391 393/393/393 390/390/390
f 393/393/393 394/394/394 390/390/390
f 394/394/394 395/395/395 390/390/390
f 398/398/398 397/397/397 396/396/396
f 399/399/399 398/398/398 396/396/396
f 402/402/402 401/401/401 400/400/400
f 403/403/403 402/402/402 400/400/400
f 406/406/406 405/405/405 404/404/404
f 407/407/407 406/406/406 404/404/404
f 410/410/410 409/409/409 408/408/408
f 411/411/411 410/410/410 408/408/408
f 414/414/414 413/413/413 412/412/412
f 415/415/415 414/414/414 412/412/412
f 418/418/418 417/417/417 416/416/416
f 419/419/419 418/418/418 416/416/416
f 422/422/422 421/421/421 420/420/420
f 423/423/423 422/422/422 420/420/420
f 424/424/424 423/423/423 420/420/420
f 427/427/427 426/426/426 425/425/425
f 428/428/428 427/427/427 425/425/425
f 431/431/431 430/430/430 429/429/429
f 432/432/432 431/431/431 429/429/429
f 435/435/435 434/434/434 433/433/433
f 436/436/436 435/435/435 433/433/433
f 439/439/439 438/438/438 437/437/437
f 440/440/440 439/439/439 437/437/437
f 440/440/440 441/441/441 439/439/439
f 444/444/444 443/443/443 442/442/442
f 442/442/442 443/443/443 445/445/445
f 445/445/445 443/443/443 446/446/446
f 443/443/443 444/444/444 447/447/447
f 443/443/443 447/447/447 446/446/446
f 444/444/444 448/448/448 447/447/447
f 446/446/446 447/447/447 449/449/449
f 448/448/448 450/450/450 447/447/447
f 447/447/447 451/451/451 449/449/449
f 450/450/450 451/451/451 447/447/447
f 449/449/449 451/451/451 452/452/452
f 452/452/452 451/451/451 450/450/450
f 455/455/455 454/454/454 453/453/453
f 453/453/453 454/454/454 456/456/456
f 457/457/457 454/454/454 455/455/455
f 456/456/456 454/454/454 458/458/458
f 459/459/459 454/454/454 457/457/457
f 458/458/458 454/454/454 460/460/460
f 461/461/461 454/454/454 459/459/459
f 460/460/460 454/454/454 461/461/461
f 464/464/464 463/463/463 462/462/462
f 465/465/465 464/464/464 462/462/462
f 466/466/466 465/465/465 462/462/462
f 467/467/467 466/466/466 462/462/462
f 463/463/463 468/468/468 462/462/462
f 463/463/463 469/469/469 468/468/468
f 469/469/469 470/470/470 468/468/468
f 466/466/466 467/467/467 471/471/471
f 468/468/468 470/470/470 472/472/472
f 473/473/473 466/466/466 471/471/471
f 474/474/474 473/473/473 471/471/471
f 475/475/475 474/474/474 471/471/471
f 470/470/470 476/476/476 472/472/472
f 476/476/476 477/477/477 472/472/472
f 478/478/478 475/475/475 471/471/471
f 479/479/479 475/475/475 478/478/478
f 480/480/480 479/479/479 478/478/478
f 477/477/477 481/481/481 472/472/472
f 481/481/481 482/482/482 472/472/472
f 480/480/480 478/478/478 483/483/483
f 482/482/482 481/481/481 483/483/483
f 484/484/484 480/480/480 483/483/483
f 481/481/481 485/485/485 483/483/483
f 485/485/485 484/484/484 483/483/483
