g hoth_ion_cannon_mesh
v -1.7037582 3.933432 -0.36931634
v -1.979671 3.933432 -0.22017431
v -1.8454432 3.791747 -0.22017431
v -1.8454432 4.0676603 -0.35440207
v -2.1511846 4.201888 -0.16797447
v -1.5322449 4.1049457 -0.36931634
v -2.039328 4.3062873 -0.27983117
v -1.6739302 4.2391734 -0.35440207
v -1.3980172 4.2391734 -0.22017431
v -1.9125571 4.4405155 -0.27983117
v -1.5397022 4.373401 -0.22017431
v -1.8007007 4.5449147 -0.16797447
v -1.8976431 3.7395477 0.010995865
v -1.979671 3.933432 0.23470902
v -1.8454432 3.791747 0.24216604
v -2.0318708 3.8812327 0.010995865
v -1.8454432 3.791747 -0.22017431
v -2.1511846 4.201888 0.18250918
v -1.979671 3.933432 -0.22017431
v -2.18847 4.1571455 0.010995865
v -2.1511846 4.201888 -0.16797447
v -1.5322449 4.1049457 0.38385105
v -1.5397022 4.373401 0.23470902
v -1.3980172 4.2391734 0.24216604
v -1.6739302 4.2391734 0.37639403
v -1.8007007 4.5449147 0.18250918
v -1.7037582 3.933432 0.38385105
v -1.9125571 4.4405155 0.29436588
v -1.8454432 4.0676603 0.37639403
v -1.8454432 3.791747 0.24216604
v -2.039328 4.3062873 0.29436588
v -1.979671 3.933432 0.23470902
v -2.1511846 4.201888 0.18250918
v -1.3383603 4.2913733 0.010995865
v -1.5397022 4.373401 -0.22017431
v -1.3980172 4.2391734 -0.22017431
v -1.4875023 4.425601 0.010995865
v -1.3980172 4.2391734 0.24216604
v -1.8007007 4.5449147 -0.16797447
v -1.5397022 4.373401 0.23470902
v -1.7634153 4.5822 0.010995865
v -1.8007007 4.5449147 0.18250918
v -1.7634153 4.5822 0.010995865
v -1.8007007 4.5449147 0.18250918
v -1.9125571 4.4405155 0.29436588
v -1.8007007 4.5449147 -0.16797447
v -1.9125571 4.4405155 -0.27983117
v -2.039328 4.3062873 0.29436588
v -2.039328 4.3062873 -0.27983117
v -2.1511846 4.201888 0.18250918
v -2.1511846 4.201888 -0.16797447
v -2.18847 4.1571455 0.010995865
v -1.979671 4.373401 -0.23508859
v -2.4494686 4.5971146 -0.16051745
v -2.0989847 4.2466307 -0.16051745
v -2.330155 4.723885 -0.23508859
v -1.8529005 4.492715 -0.16051745
v -2.2033844 4.843199 -0.16051745
v -2.4569259 5.0370836 -0.12323189
v -2.546411 4.940141 -0.17543173
v -2.6433535 4.850656 -0.12323189
v -2.1511846 4.194431 0.010995865
v -2.4494686 4.5971146 0.18996644
v -2.0989847 4.2466307 0.18996644
v -2.5016685 4.5449147 0.010995865
v -2.0989847 4.2466307 -0.16051745
v -2.4494686 4.5971146 -0.16051745
v -2.6433535 4.850656 -0.12323189
v -2.6806388 4.8059134 0.010995865
v -2.6433535 4.850656 0.14522386
v -1.979671 4.373401 0.25708032
v -2.2033844 4.843199 0.18996644
v -1.8529005 4.492715 0.18996644
v -2.330155 4.723885 0.25708032
v -2.0989847 4.2466307 0.18996644
v -2.4494686 4.5971146 0.18996644
v -2.6433535 4.850656 0.14522386
v -2.546411 4.940141 0.20488071
v -2.4569259 5.0370836 0.14522386
v -1.8007007 4.5449147 0.010995865
v -2.2033844 4.843199 -0.16051745
v -1.8529005 4.492715 -0.16051745
v -2.1511846 4.8953986 0.010995865
v -1.8529005 4.492715 0.18996644
v -2.2033844 4.843199 0.18996644
v -2.4569259 5.0370836 0.14522386
v -2.4121833 5.074369 0.010995865
v -2.4569259 5.0370836 -0.12323189
v -2.4569259 5.0370836 -0.12323189
v -2.546411 5.059455 -0.071032286
v -2.6060677 4.9997983 -0.10831785
v -2.546411 4.940141 -0.17543173
v -2.6657248 4.940141 -0.071032286
v -2.6433535 4.850656 -0.12323189
v -2.6433535 4.850656 -0.12323189
v -2.6657248 4.940141 -0.071032286
v -2.688096 4.91777 0.010995865
v -2.6806388 4.8059134 0.010995865
v -2.6657248 4.940141 0.10048103
v -2.6433535 4.850656 0.14522386
v -2.6433535 4.850656 0.14522386
v -2.6657248 4.940141 0.10048103
v -2.6060677 4.9997983 0.13030958
v -2.546411 4.940141 0.20488071
v -2.546411 5.059455 0.10048103
v -2.4569259 5.0370836 0.14522386
v -2.4569259 5.0370836 0.14522386
v -2.546411 5.059455 0.10048103
v -2.5240397 5.081826 0.010995865
v -2.4121833 5.074369 0.010995865
v -2.546411 5.059455 -0.071032286
v -2.4569259 5.0370836 -0.12323189
v -2.546411 5.059455 -0.071032286
v -2.7477527 5.208597 -0.03374672
v -2.7775812 5.1713114 -0.05611801
v -2.6060677 4.9997983 -0.10831785
v -2.814867 5.141483 -0.03374672
v -2.6657248 4.940141 -0.071032286
v -2.6657248 4.940141 -0.071032286
v -2.814867 5.141483 -0.03374672
v -2.829781 5.126569 0.010995865
v -2.688096 4.91777 0.010995865
v -2.814867 5.141483 0.063195705
v -2.6657248 4.940141 0.10048103
v -2.6657248 4.940141 0.10048103
v -2.814867 5.141483 0.063195705
v -2.7775812 5.1713114 0.085567
v -2.6060677 4.9997983 0.13030958
v -2.7477527 5.208597 0.063195705
v -2.546411 5.059455 0.10048103
v -2.546411 5.059455 0.10048103
v -2.7477527 5.208597 0.063195705
v -2.7328386 5.223511 0.010995865
v -2.5240397 5.081826 0.010995865
v -2.7477527 5.208597 -0.03374672
v -2.546411 5.059455 -0.071032286
v -2.7328386 5.223511 0.010995865
v -2.7477527 5.208597 0.063195705
v -2.7775812 5.1713114 0.085567
v -2.7477527 5.208597 -0.03374672
v -2.7775812 5.1713114 -0.05611801
v -2.814867 5.141483 0.063195705
v -2.814867 5.141483 -0.03374672
v -2.829781 5.126569 0.010995865
v -0.9356768 4.6344 -0.041203737
v -1.5098736 4.462887 0.063195705
v -1.4875023 4.4330583 -0.2872882
v -0.92076254 4.626943 -0.30965948
v -0.890934 4.5225434 -0.5706582
v -1.457674 4.3137445 -0.6377721
v -0.92076254 4.626943 -0.30965948
v -0.92821956 4.6120286 -0.03374672
v -0.9356768 4.6344 -0.041203737
v -0.9133055 4.5971146 -0.30220246
v -0.890934 4.5225434 -0.5706582
v -0.883477 4.500172 -0.56320107
v -1.457674 4.3137445 -0.6377721
v -1.4502168 4.2913733 -0.63031495
v -0.883477 4.500172 -0.56320107
v -0.890934 4.5225434 -0.5706582
v -1.5098736 4.462887 0.063195705
v -1.5024166 4.4330583 0.07065272
v -1.4800453 4.410687 -0.27983117
v -1.4875023 4.4330583 -0.2872882
v -1.457674 4.3137445 -0.6377721
v -1.4502168 4.2913733 -0.63031495
v -0.9356768 4.6344 -0.041203737
v -0.92821956 4.6120286 -0.03374672
v -1.5024166 4.4330583 0.07065272
v -1.5098736 4.462887 0.063195705
v -1.4800453 4.410687 -0.27983117
v -1.5024166 4.4330583 0.07065272
v -0.92821956 4.6120286 -0.03374672
v -0.9133055 4.5971146 -0.30220246
v -1.4502168 4.2913733 -0.63031495
v -0.883477 4.500172 -0.56320107
v -2.0766134 3.9558034 0.17505217
v -2.181013 3.6575193 -0.25000262
v -2.0840707 3.9408894 -0.36931634
v -2.091528 3.829033 0.21233773
v -2.18847 3.5531201 0.02591014
v -2.2033844 3.4263492 -0.2872882
v -2.181013 3.5158343 0.07810974
v -2.233213 3.254836 -0.09340358
v -2.2257557 3.26975 0.10793829
v -2.0840707 3.9408894 -0.36931634
v -2.0616994 3.933432 -0.36931634
v -2.0616994 3.9558034 0.17505217
v -2.0766134 3.9558034 0.17505217
v -2.233213 3.254836 -0.09340358
v -2.2108412 3.254836 -0.09340358
v -2.181013 3.4188924 -0.2872882
v -2.2033844 3.4263492 -0.2872882
v -2.2033844 3.4263492 -0.2872882
v -2.181013 3.4188924 -0.2872882
v -2.1586418 3.6500626 -0.2425456
v -2.181013 3.6575193 -0.25000262
v -2.181013 3.6575193 -0.25000262
v -2.1586418 3.6500626 -0.2425456
v -2.0616994 3.933432 -0.36931634
v -2.0840707 3.9408894 -0.36931634
v -2.18847 3.5531201 0.02591014
v -2.1735559 3.5531201 0.02591014
v -2.1660986 3.5158343 0.07810974
v -2.181013 3.5158343 0.07810974
v -2.0766134 3.9558034 0.17505217
v -2.0616994 3.9558034 0.17505217
v -2.0691566 3.8215756 0.21233773
v -2.091528 3.829033 0.21233773
v -2.1735559 3.5531201 0.02591014
v -2.18847 3.5531201 0.02591014
v -2.2257557 3.26975 0.10793829
v -2.2033844 3.2622929 0.10793829
v -2.2108412 3.254836 -0.09340358
v -2.233213 3.254836 -0.09340358
v -2.181013 3.5158343 0.07810974
v -2.1660986 3.5158343 0.07810974
v -2.2033844 3.2622929 0.10793829
v -2.2257557 3.26975 0.10793829
v -2.0616994 3.9558034 0.17505217
v -2.0616994 3.933432 -0.36931634
v -2.0691566 3.8215756 0.21233773
v -2.1586418 3.6500626 -0.2425456
v -2.1735559 3.5531201 0.02591014
v -2.181013 3.4188924 -0.2872882
v -2.2108412 3.254836 -0.09340358
v -2.1660986 3.5158343 0.07810974
v -2.2033844 3.2622929 0.10793829
v -1.3532746 4.1646023 0.8387344
v -1.882729 4.201888 0.4882505
v -1.6217303 4.3808584 0.33910847
v -1.5546162 4.037832 0.9655051
v -1.7485008 3.8364902 1.032619
v -2.1362705 3.9483466 0.5851929
v -1.5546162 4.037832 0.9655051
v -1.3532746 4.1646023 0.8387344
v -1.3383603 4.142231 0.8312774
v -1.5471592 4.0154605 0.95059085
v -1.7485008 3.8364902 1.032619
v -1.7335868 3.8141189 1.017705
v -2.1362705 3.9483466 0.5851929
v -1.7485008 3.8364902 1.032619
v -1.7335868 3.8141189 1.017705
v -2.1288133 3.9259753 0.57027864
v -1.6217303 4.3808584 0.33910847
v -1.8752718 4.179517 0.47333622
v -1.6068158 4.358487 0.3241942
v -1.882729 4.201888 0.4882505
v -2.1362705 3.9483466 0.5851929
v -2.1288133 3.9259753 0.57027864
v -1.3532746 4.1646023 0.8387344
v -1.6217303 4.3808584 0.33910847
v -1.6068158 4.358487 0.3241942
v -1.3383603 4.142231 0.8312774
v -1.8752718 4.179517 0.47333622
v -1.3383603 4.142231 0.8312774
v -1.6068158 4.358487 0.3241942
v -1.5471592 4.0154605 0.95059085
v -2.1288133 3.9259753 0.57027864
v -1.7335868 3.8141189 1.017705
v -2.0094995 4.8208275 0.040824413
v -2.0169568 4.8879414 0.02591014
v -1.9423857 4.8208275 0.063195705
v -1.8976431 4.8804846 0.033367157
v -1.9722142 4.925227 0.010995865
v -1.8081579 4.6642284 0.063195705
v -1.6963015 4.708971 0.033367157
v -1.6366444 4.5822 0.033367157
v -1.7186728 4.492715 0.05573845
v -1.8379865 4.604572 0.05573845
v -1.5471592 4.5822 0.02591014
v -1.5397022 4.6344 0.018453121
v -1.6441016 4.723885 0.018453121
v -2.0169568 4.8879414 -0.041203737
v -2.0094995 4.8208275 -0.05611801
v -1.9423857 4.8208275 -0.0784893
v -1.8976431 4.8804846 -0.048660994
v -1.9722142 4.925227 -0.026289701
v -1.6963015 4.708971 -0.048660994
v -1.8081579 4.6642284 -0.0784893
v -1.5471592 4.5822 -0.048660994
v -1.6441016 4.723885 -0.03374672
v -1.5397022 4.6344 -0.03374672
v -1.6366444 4.5822 -0.05611801
v -1.8379865 4.604572 -0.071032286
v -1.7186728 4.492715 -0.071032286
v -1.7186728 4.492715 -0.071032286
v -1.7186728 4.492715 0.05573845
v -1.6366444 4.5822 0.033367157
v -1.6366444 4.5822 -0.05611801
v -1.5471592 4.5822 -0.048660994
v -1.5471592 4.5822 0.02591014
v -1.8976431 4.8804846 0.033367157
v -1.9722142 4.925227 0.010995865
v -1.9722142 4.925227 -0.026289701
v -1.8976431 4.8804846 -0.048660994
v -1.6963015 4.708971 0.033367157
v -1.6963015 4.708971 -0.048660994
v -2.0094995 4.8208275 -0.05611801
v -2.0169568 4.8879414 -0.041203737
v -2.0169568 4.8879414 0.02591014
v -2.0094995 4.8208275 0.040824413
v -2.0169568 4.8879414 -0.041203737
v -1.9722142 4.925227 -0.026289701
v -1.9722142 4.925227 0.010995865
v -2.0169568 4.8879414 0.02591014
v -1.5471592 4.5822 0.02591014
v -1.5397022 4.6344 0.018453121
v -1.5397022 4.6344 -0.03374672
v -1.5471592 4.5822 -0.048660994
v -1.6963015 4.708971 -0.048660994
v -1.6441016 4.723885 -0.03374672
v -1.6441016 4.723885 0.018453121
v -1.6963015 4.708971 0.033367157
v -1.6441016 4.723885 0.018453121
v -1.6441016 4.723885 -0.03374672
v -1.5397022 4.6344 -0.03374672
v -1.5397022 4.6344 0.018453121
v -2.0094995 4.8208275 0.040824413
v -1.9423857 4.8208275 0.063195705
v -1.9423857 4.8208275 -0.0784893
v -2.0094995 4.8208275 -0.05611801
v -1.9423857 4.8208275 0.063195705
v -1.8081579 4.6642284 0.063195705
v -1.8081579 4.6642284 -0.0784893
v -1.9423857 4.8208275 -0.0784893
v -1.8081579 4.6642284 0.063195705
v -1.8379865 4.604572 0.05573845
v -1.8379865 4.604572 -0.071032286
v -1.8081579 4.6642284 -0.0784893
v -1.8379865 4.604572 0.05573845
v -1.7186728 4.492715 0.05573845
v -1.7186728 4.492715 -0.071032286
v -1.8379865 4.604572 -0.071032286
v 0.33203077 4.6120286 -0.86894226
v -0.07065272 4.6716857 -0.74962866
v -0.4136796 4.336116 -1.3461969
v -0.05573845 4.2242594 -1.5624529
v -2.2108412 2.0691566 0.8685627
v -1.9274716 2.814867 1.3458173
v -1.8156147 2.4643831 1.5620735
v -2.263041 2.4792972 0.7492492
v -1.979671 3.1578937 1.0922759
v -2.2555842 2.881981 0.6075642
v -1.964757 3.4710917 0.7939918
v -2.1586418 3.2772074 0.4360509
v -1.8529005 3.8141189 0.39876533
v -1.9498429 3.7097192 0.21979475
v -2.233213 3.2026362 0.003538847
v -1.9871283 3.6798906 0.003538847
v -2.3525262 2.7850385 0.003538847
v -2.3823547 2.3599834 0.003538847
v -2.3525262 1.9349284 0.003538847
v -2.233213 1.4949596 0.003538847
v -2.0766134 1.6441016 0.9655051
v -2.0020423 1.0475333 0.003538847
v -1.8379865 1.2115896 1.032619
v -1.7037582 0.66722107 0.003538847
v -1.5322449 0.8387344 1.0549903
v -1.1593897 0.54045033 1.032619
v -1.3309033 0.36893678 0.003538847
v -0.6224785 3.6575193 1.9498429
v -0.4136796 4.336116 1.3458173
v -0.05573845 4.2242594 1.5620735
v -0.89839125 3.843947 1.6739302
v -0.7492492 4.3883157 1.0922759
v -1.1444757 3.9930892 1.3607316
v -1.1444757 3.9930892 -1.3611112
v -1.6739302 3.761919 -0.988256
v -1.5844448 3.5531201 -1.3611112
v -1.3532746 4.0825744 -0.988256
v -0.7492492 4.3883157 -1.0926554
v -1.0699046 4.3659444 -0.79437125
v -1.5471592 4.112403 -0.49608707
v -1.4054742 4.2615447 -0.3991449
v -1.7112155 3.9558034 -0.49608707
v -1.8529005 3.8141189 -0.3991449
v -1.964757 3.4710917 -0.79437125
v -1.5844448 3.5531201 -1.3611112
v -1.6739302 3.761919 -0.988256
v -1.964757 3.4710917 -0.79437125
v -1.979671 3.1578937 -1.0926554
v -1.979671 3.1578937 1.0922759
v -1.964757 3.4710917 0.7939918
v -1.6739302 3.761919 0.9878764
v -1.5844448 3.5531201 1.3607316
v -1.5844448 3.5531201 1.3607316
v -1.3532746 4.0825744 0.9878764
v -1.1444757 3.9930892 1.3607316
v -1.6739302 3.761919 0.9878764
v -1.5471592 4.112403 0.4957075
v -1.7112155 3.9558034 0.4957075
v -1.964757 3.4710917 0.7939918
v -1.8529005 3.8141189 0.39876533
v -1.308532 4.358487 -0.22017431
v -1.2712464 4.395773 0.003538847
v -1.308532 4.358487 0.21979475
v -1.4054742 4.2615447 0.39876533
v -1.4054742 4.2615447 -0.3991449
v -1.5471592 4.112403 0.4957075
v -1.5471592 4.112403 -0.49608707
v -1.7112155 3.9558034 0.4957075
v -1.7112155 3.9558034 -0.49608707
v -1.8529005 3.8141189 0.39876533
v -1.8529005 3.8141189 -0.3991449
v -1.9498429 3.7097192 0.21979475
v -1.9498429 3.7097192 -0.22017431
v -1.9871283 3.6798906 0.003538847
v 0.7570858 4.485258 -0.9658847
v 0.33203077 4.6120286 -0.86894226
v -0.05573845 4.2242594 -1.5624529
v 0.32457376 4.045289 -1.7414234
v 1.1970549 4.2391734 -1.0329986
v 0.7272574 3.776833 -1.8607371
v 1.56991 3.9408894 -1.0553699
v 1.0926554 3.463635 -1.9054797
v 1.3983966 3.0982366 -1.8607371
v 1.8681941 3.5680342 -1.0329986
v 1.6743095 2.6955533 -1.7414234
v 2.1068215 3.128065 -0.9658847
v 1.85328 2.3152409 -1.5624529
v 2.2410493 2.70301 -0.86894226
v -0.30928016 3.4188924 2.1660986
v -0.6224785 3.6575193 1.9498429
v -0.05573845 4.2242594 1.5620735
v 0.32457376 4.045289 1.741044
v 0.33203077 4.6120286 0.8685627
v 0.05611801 3.0982366 2.3152409
v 0.7570858 4.485258 0.9655051
v 0.7272574 3.776833 1.8603578
v 1.1970549 4.2391734 1.032619
v 0.3991449 2.770124 2.3748975
v 1.0926554 3.463635 1.9051003
v 1.56991 3.9408894 1.0549903
v 1.8681941 3.5680342 1.032619
v 1.3983966 3.0982366 1.8603578
v 0.7272574 2.4270973 2.3152409
v 2.1068215 3.128065 0.9655051
v 1.6743095 2.6955533 1.741044
v 2.2410493 2.70301 0.8685627
v 1.0404557 2.0616994 2.1660986
v 1.85328 2.3152409 1.5620735
v 1.28654 1.7485008 1.9498429
v 1.9502223 1.9498429 1.3309033
v 1.4729676 1.4725881 1.6590157
v 1.9949648 1.599359 1.0475333
v 1.6146526 1.2190466 1.308532
v -2.0766134 1.6441016 0.9655051
v -2.2108412 2.0691566 0.8685627
v -1.8156147 2.4643831 1.5620735
v -1.6441016 2.0840707 1.741044
v -1.8379865 1.2115896 1.032619
v -1.3681886 1.681387 1.8603578
v -1.5322449 0.8387344 1.0549903
v -1.2563322 3.0311227 1.9498429
v -1.0102477 2.7179246 2.1660986
v -1.4427598 3.3070354 1.6739302
v -1.9274716 2.814867 1.3458173
v -1.5844448 3.5531201 1.3607316
v -1.979671 3.1578937 1.0922759
v -1.1444757 3.9930892 1.3607316
v -0.89839125 3.843947 1.6739302
v -0.6224785 3.6575193 1.9498429
v -0.30928016 3.4188924 2.1660986
v -0.6970494 2.3525262 2.3152409
v 0.05611801 3.0982366 2.3152409
v -1.0549903 1.315989 1.9051003
v -0.36893678 2.0020423 2.3748975
v 0.3991449 2.770124 2.3748975
v 0.7272574 2.4270973 2.3152409
v -0.018453121 1.6739302 2.3152409
v 1.0404557 2.0616994 2.1660986
v -0.6970494 1.0027907 1.8603578
v -1.1593897 0.54045033 1.032619
v 0.33948803 1.3607316 2.1660986
v 1.28654 1.7485008 1.9498429
v -0.28690863 0.73433495 1.741044
v -0.7268779 0.29436588 0.9655051
v 0.6601434 1.1221044 1.9498429
v 1.4729676 1.4725881 1.6590157
v 0.09340358 0.5553644 1.5620735
v -0.3018229 0.16013789 0.8685627
v 0.93605626 0.9356768 1.6590157
v 1.6146526 1.2190466 1.308532
v 0.4513445 0.45096493 1.3309033
v 1.1895977 0.7939918 1.308532
v 0.8092855 0.4136796 1.0475333
v -1.4427598 3.3070354 -1.6743095
v -1.5844448 3.5531201 -1.3611112
v -1.979671 3.1578937 -1.0926554
v -1.9274716 2.814867 -1.3461969
v -1.2563322 3.0311227 -1.9427652
v -1.8156147 2.4643831 -1.5624529
v -1.0102477 2.7179246 -2.1664782
v -1.6441016 2.0840707 -1.7414234
v -2.2108412 2.0691566 -0.86894226
v -0.6970494 2.3525262 -2.3156204
v -2.0766134 1.6441016 -0.9658847
v -1.3681886 1.681387 -1.8607371
v -1.8379865 1.2115896 -1.0329986
v -0.36893678 2.0020423 -2.3752773
v -1.0549903 1.315989 -1.9054797
v -1.5322449 0.8387344 -1.0553699
v -1.1593897 0.54045033 -1.0329986
v -0.6970494 1.0027907 -1.8607371
v -0.018453121 1.6739302 -2.3156204
v -0.7268779 0.29436588 -0.9658847
v -0.28690863 0.73433495 -1.7414234
v -0.3018229 0.16013789 -0.86894226
v 0.33948803 1.3607316 -2.1664782
v 0.09340358 0.5553644 -1.5624529
v 0.6601434 1.1221044 -1.9427652
v 0.4513445 0.45096493 -1.3312827
v 0.93605626 0.9356768 -1.6593952
v 0.8092855 0.4136796 -1.0479127
v 1.1895977 0.7939918 -1.3089114
v -0.4136796 4.336116 -1.3461969
v -0.7492492 4.3883157 -1.0926554
v -1.1444757 3.9930892 -1.3611112
v -0.89839125 3.843947 -1.6743095
v -1.5844448 3.5531201 -1.3611112
v -0.05573845 4.2242594 -1.5624529
v -1.4427598 3.3070354 -1.6743095
v -0.6224785 3.6575193 -1.9427652
v 0.32457376 4.045289 -1.7414234
v -1.2563322 3.0311227 -1.9427652
v -0.30928016 3.4188924 -2.1664782
v 0.7272574 3.776833 -1.8607371
v -1.0102477 2.7179246 -2.1664782
v 0.05611801 3.0982366 -2.3156204
v -0.6970494 2.3525262 -2.3156204
v 1.0926554 3.463635 -1.9054797
v 0.3991449 2.770124 -2.3752773
v -0.36893678 2.0020423 -2.3752773
v -0.018453121 1.6739302 -2.3156204
v 0.7272574 2.4270973 -2.3156204
v 1.3983966 3.0982366 -1.8607371
v 0.33948803 1.3607316 -2.1664782
v 1.0404557 2.0616994 -2.1664782
v 1.6743095 2.6955533 -1.7414234
v 0.6601434 1.1221044 -1.9427652
v 1.28654 1.7485008 -1.9427652
v 1.85328 2.3152409 -1.5624529
v 0.93605626 0.9356768 -1.6593952
v 1.4729676 1.4725881 -1.6593952
v 1.1895977 0.7939918 -1.3089114
v 1.6146526 1.2190466 -1.3089114
v -0.07065272 4.6716857 -0.74962866
v -0.7492492 4.3883157 -1.0926554
v -0.4136796 4.336116 -1.3461969
v -0.48079348 4.6642284 -0.60794365
v -1.0699046 4.3659444 -0.79437125
v -0.8685627 4.567286 -0.43643034
v -1.4054742 4.2615447 -0.3991449
v -1.308532 4.358487 -0.22017431
v -0.8014488 4.6344 0.003538847
v -1.2712464 4.395773 0.003538847
v -0.38385105 4.761171 0.003538847
v 0.048660994 4.7909994 0.003538847
v -0.8685627 4.567286 0.4360509
v -1.308532 4.358487 0.21979475
v -0.48079348 4.6642284 0.6075642
v -1.0699046 4.3659444 0.7939918
v -1.4054742 4.2615447 0.39876533
v -1.3532746 4.0825744 0.9878764
v -1.5471592 4.112403 0.4957075
v -1.1444757 3.9930892 1.3607316
v -0.7492492 4.3883157 1.0922759
v -0.4136796 4.336116 1.3458173
v -0.07065272 4.6716857 0.7492492
v -0.05573845 4.2242594 1.5620735
v 0.33203077 4.6120286 0.8685627
v 0.47371578 4.7537136 0.003538847
v 0.7570858 4.485258 0.9655051
v 0.33203077 4.6120286 -0.86894226
v 0.91368496 4.641857 0.003538847
v 1.1970549 4.2391734 1.032619
v 0.7570858 4.485258 -0.9658847
v 1.3611112 4.4032297 0.003538847
v 1.1970549 4.2391734 -1.0329986
v 1.56991 3.9408894 1.0549903
v 1.7414234 4.112403 0.003538847
v 1.56991 3.9408894 -1.0553699
v 1.8681941 3.5680342 -1.0329986
v 2.0322504 3.7320905 0.003538847
v 1.8681941 3.5680342 1.032619
v -1.964757 3.4710917 -0.79437125
v -1.8529005 3.8141189 -0.3991449
v -1.9498429 3.7097192 -0.22017431
v -2.1586418 3.2772074 -0.43643034
v -1.9871283 3.6798906 0.003538847
v -1.979671 3.1578937 -1.0926554
v -2.233213 3.2026362 0.003538847
v -2.2555842 2.881981 -0.60794365
v -1.9274716 2.814867 -1.3461969
v -2.3525262 2.7850385 0.003538847
v -2.263041 2.4792972 -0.74962866
v -1.8156147 2.4643831 -1.5624529
v -2.3823547 2.3599834 0.003538847
v -2.2108412 2.0691566 -0.86894226
v -2.3525262 1.9349284 0.003538847
v -2.0766134 1.6441016 -0.9658847
v -2.233213 1.4949596 0.003538847
v -1.8379865 1.2115896 -1.0329986
v -2.0020423 1.0475333 0.003538847
v -1.5322449 0.8387344 -1.0553699
v -1.7037582 0.66722107 0.003538847
v -1.3309033 0.36893678 0.003538847
v -1.1593897 0.54045033 -1.0329986
v 2.0322504 3.7320905 0.003538847
v 1.8681941 3.5680342 -1.0329986
v 2.1068215 3.128065 -0.9658847
v 2.2634206 3.2846642 0.003538847
v 1.8681941 3.5680342 1.032619
v 2.2410493 2.70301 -0.86894226
v 2.1068215 3.128065 0.9655051
v 2.3827343 2.844695 0.003538847
v 2.2857919 2.2854123 -0.7347144
v 2.2410493 2.70301 0.8685627
v 2.4051056 2.404726 0.003538847
v 2.2857919 2.2854123 0.73433495
v 1.85328 2.3152409 1.5620735
v 1.9502223 1.9498429 1.3309033
v 2.2559636 1.8603578 0.5851929
v 1.9949648 1.599359 1.0475333
v 2.3529058 1.9572997 0.003538847
v 2.2559636 1.8603578 -0.58557236
v 1.9949648 1.599359 -1.0479127
v 1.9502223 1.9498429 -1.3312827
v 2.1217356 1.4278455 0.39130807
v 2.1813924 1.4875023 0.003538847
v 2.1217356 1.4278455 -0.39168763
v 1.9427652 1.2488751 -0.69742894
v 1.6668524 0.74179196 0.003538847
v 1.6892236 0.9953337 -0.86894226
v 1.6146526 1.2190466 -1.3089114
v 1.9427652 1.2488751 0.6970494
v 1.6146526 1.2190466 1.308532
v 1.6892236 0.9953337 0.8685627
v -1.3309033 0.36893678 0.003538847
v -1.1593897 0.54045033 1.032619
v -0.7268779 0.29436588 0.9655051
v -0.883477 0.1377666 0.003538847
v -0.3018229 0.16013789 0.8685627
v -0.4435079 0.018453121 0.003538847
v 0.11577487 0.11539531 0.73433495
v -0.003538847 0.003538847 0.003538847
v 0.4513445 0.45096493 1.3309033
v 0.09340358 0.5553644 1.5620735
v 0.8092855 0.4136796 1.0475333
v 0.5408298 0.14522386 0.5851929
v 1.1523123 0.45842218 0.6970494
v 0.4513445 0.05573845 0.003538847
v 0.98079884 0.28690863 0.39130807
v 0.91368496 0.227252 0.003538847
v -1.1593897 0.54045033 -1.0329986
v -1.3309033 0.36893678 0.003538847
v -0.883477 0.1377666 0.003538847
v -0.7268779 0.29436588 -0.9658847
v -0.4435079 0.018453121 0.003538847
v -0.3018229 0.16013789 -0.86894226
v -0.003538847 0.003538847 0.003538847
v 0.11577487 0.11539531 -0.7347144
v 0.09340358 0.5553644 -1.5624529
v 0.4513445 0.05573845 0.003538847
v 0.4513445 0.45096493 -1.3312827
v 0.5408298 0.14522386 -0.58557236
v 0.91368496 0.227252 0.003538847
v 0.8092855 0.4136796 -1.0479127
v 0.98079884 0.28690863 -0.39168763
v 1.1523123 0.45842218 -0.69742894
v 2.2410493 2.70301 -0.86894226
v 1.85328 2.3152409 -1.5624529
v 1.9502223 1.9498429 -1.3312827
v 2.2857919 2.2854123 -0.7347144
v 1.85328 2.3152409 -1.5624529
v 1.28654 1.7485008 -1.9427652
v 1.4729676 1.4725881 -1.6593952
v 1.9502223 1.9498429 -1.3312827
v 1.6146526 1.2190466 -1.3089114
v 1.9949648 1.599359 -1.0479127
v 1.1895977 0.7939918 -1.3089114
v 0.8092855 0.4136796 -1.0479127
v 1.1523123 0.45842218 -0.69742894
v 1.4058537 0.71196365 -0.86894226
v 1.6668524 0.74179196 0.003538847
v 1.6146526 1.2190466 -1.3089114
v 1.6892236 0.9953337 -0.86894226
v 0.98079884 0.28690863 -0.39168763
v 0.91368496 0.227252 0.003538847
v 0.98079884 0.28690863 0.39130807
v 1.1523123 0.45842218 0.6970494
v 1.4058537 0.71196365 0.8685627
v 0.8092855 0.4136796 1.0475333
v 1.6892236 0.9953337 0.8685627
v 1.1895977 0.7939918 1.308532
v 1.6146526 1.2190466 1.308532
vt 0.6762447 0.894636
vt 0.64504594 0.9258347
vt 0.6411461 0.8985358
vt 0.6762447 0.9219349
vt 0.6528456 0.9726328
vt 0.7113433 0.894636
vt 0.68014455 0.968733
vt 0.7113433 0.9219349
vt 0.7464419 0.8985358
vt 0.7074435 0.968733
vt 0.742542 0.9258347
vt 0.73474234 0.9726328
vt 0.6060475 0.90633553
vt 0.64504594 0.9258347
vt 0.6411461 0.8985358
vt 0.6099473 0.9336344
vt 0.6411461 0.8985358
vt 0.6528456 0.9726328
vt 0.64504594 0.9258347
vt 0.6255467 0.9765327
vt 0.6528456 0.9726328
vt 0.7113433 0.894636
vt 0.742542 0.9258347
vt 0.7464419 0.8985358
vt 0.7113433 0.9219349
vt 0.73474234 0.9726328
vt 0.6762447 0.894636
vt 0.7074435 0.968733
vt 0.6762447 0.9219349
vt 0.6411461 0.8985358
vt 0.68014455 0.968733
vt 0.64504594 0.9258347
vt 0.6528456 0.9726328
vt 0.7815405 0.90633553
vt 0.742542 0.9258347
vt 0.7464419 0.8985358
vt 0.77764064 0.9336344
vt 0.7464419 0.8985358
vt 0.73474234 0.9726328
vt 0.742542 0.9258347
vt 0.7581414 0.9765327
vt 0.73474234 0.9726328
vt 0.5670491 0.9141352
vt 0.54754984 0.91023535
vt 0.5319505 0.91803503
vt 0.58264846 0.9297346
vt 0.58264846 0.9492338
vt 0.5202509 0.9336344
vt 0.5709489 0.96483314
vt 0.5241508 0.95313364
vt 0.5553495 0.9726328
vt 0.5358503 0.968733
vt 0.96483314 0.8010397
vt 0.98823225 0.86343724
vt 0.98823225 0.8010397
vt 0.9609333 0.86343724
vt 0.9375343 0.8010397
vt 0.9375343 0.86343724
vt 0.9336344 0.90633553
vt 0.95313364 0.91023535
vt 0.9765327 0.91803503
vt 0.82053894 0.8010397
vt 0.843938 0.86343724
vt 0.843938 0.8010397
vt 0.82053894 0.86343724
vt 0.7971399 0.8010397
vt 0.7971399 0.86343724
vt 0.8088394 0.9141352
vt 0.8283386 0.91023535
vt 0.8517377 0.90633553
vt 0.86733705 0.8010397
vt 0.8907361 0.86343724
vt 0.8907361 0.8010397
vt 0.86733705 0.86343724
vt 0.843938 0.8010397
vt 0.843938 0.86343724
vt 0.8517377 0.90633553
vt 0.8712369 0.90243566
vt 0.8907361 0.90243566
vt 0.9141352 0.8010397
vt 0.9375343 0.86343724
vt 0.9375343 0.8010397
vt 0.9141352 0.86343724
vt 0.8907361 0.8010397
vt 0.8907361 0.86343724
vt 0.8907361 0.90243566
vt 0.91023535 0.90243566
vt 0.9336344 0.90633553
vt 0.9336344 0.90633553
vt 0.9258347 0.9219349
vt 0.94533396 0.9297346
vt 0.95313364 0.91023535
vt 0.9609333 0.9375343
vt 0.9765327 0.91803503
vt 0.8088394 0.9141352
vt 0.82053894 0.9336344
vt 0.8361383 0.9258347
vt 0.8283386 0.91023535
vt 0.85563755 0.9219349
vt 0.8517377 0.90633553
vt 0.8517377 0.90633553
vt 0.85563755 0.9219349
vt 0.8712369 0.91803503
vt 0.8712369 0.90243566
vt 0.8907361 0.91803503
vt 0.8907361 0.90243566
vt 0.8907361 0.90243566
vt 0.8907361 0.91803503
vt 0.91023535 0.9219349
vt 0.91023535 0.90243566
vt 0.9258347 0.9219349
vt 0.9336344 0.90633553
vt 0.9258347 0.9219349
vt 0.9141352 0.9726328
vt 0.9258347 0.9765327
vt 0.94533396 0.9297346
vt 0.9336344 0.9843324
vt 0.9609333 0.9375343
vt 0.82053894 0.9336344
vt 0.843938 0.98043257
vt 0.85563755 0.9765327
vt 0.8361383 0.9258347
vt 0.86733705 0.9726328
vt 0.85563755 0.9219349
vt 0.85563755 0.9219349
vt 0.86733705 0.9726328
vt 0.8790366 0.9726328
vt 0.8712369 0.91803503
vt 0.8907361 0.968733
vt 0.8907361 0.91803503
vt 0.8907361 0.91803503
vt 0.8907361 0.968733
vt 0.90243566 0.9726328
vt 0.91023535 0.9219349
vt 0.9141352 0.9726328
vt 0.9258347 0.9219349
vt 0.96483314 0.7620413
vt 0.9765327 0.7581414
vt 0.98043257 0.7464419
vt 0.95313364 0.7581414
vt 0.9492338 0.7464419
vt 0.9765327 0.7386422
vt 0.95703346 0.73474234
vt 0.968733 0.73084253
vt 0.43055454 0.95703346
vt 0.50075173 0.968733
vt 0.50075173 0.9258347
vt 0.4266547 0.9258347
vt 0.4266547 0.894636
vt 0.4968519 0.8829364
vt 0.4266547 0.9258347
vt 0.4266547 0.95703346
vt 0.43055454 0.95703346
vt 0.4266547 0.9258347
vt 0.4266547 0.894636
vt 0.4266547 0.8907361
vt 0.4968519 0.8829364
vt 0.4968519 0.8790366
vt 0.4266547 0.8907361
vt 0.4266547 0.894636
vt 0.50075173 0.968733
vt 0.50465155 0.968733
vt 0.50075173 0.9258347
vt 0.50075173 0.9258347
vt 0.4968519 0.8829364
vt 0.50075173 0.8829364
vt 0.43055454 0.95703346
vt 0.43055454 0.9609333
vt 0.50075173 0.9726328
vt 0.50075173 0.968733
vt 0.3759567 0.5592494
vt 0.40715548 0.5592494
vt 0.3915561 0.50465155
vt 0.36815703 0.50465155
vt 0.34085813 0.5592494
vt 0.34085813 0.50465155
vt 0.8517377 0.5319505
vt 0.8010397 0.49295205
vt 0.7893402 0.5280506
vt 0.85563755 0.5163511
vt 0.8361383 0.48125252
vt 0.7971399 0.46565315
vt 0.8400382 0.47735268
vt 0.82053894 0.4461539
vt 0.843938 0.4461539
vt 0.7893402 0.5280506
vt 0.7893402 0.5319505
vt 0.8517377 0.5319505
vt 0.8517377 0.5319505
vt 0.82053894 0.4461539
vt 0.82053894 0.44225407
vt 0.7971399 0.46565315
vt 0.7971399 0.46565315
vt 0.7971399 0.46565315
vt 0.7971399 0.46565315
vt 0.8010397 0.49295205
vt 0.8010397 0.49295205
vt 0.8010397 0.49295205
vt 0.8010397 0.49295205
vt 0.7854403 0.5280506
vt 0.7893402 0.5280506
vt 0.8361383 0.48125252
vt 0.8361383 0.48125252
vt 0.843938 0.47735268
vt 0.8400382 0.47735268
vt 0.8517377 0.5319505
vt 0.85563755 0.5319505
vt 0.85953736 0.5163511
vt 0.85563755 0.5163511
vt 0.8361383 0.48125252
vt 0.8361383 0.48125252
vt 0.843938 0.4461539
vt 0.843938 0.4461539
vt 0.82053894 0.44225407
vt 0.82053894 0.4461539
vt 0.8400382 0.47735268
vt 0.843938 0.47735268
vt 0.84783787 0.4461539
vt 0.843938 0.4461539
vt 0.09126809 0.86343724
vt 0.08346841 0.81273925
vt 0.07956856 0.86733705
vt 0.056169495 0.8283386
vt 0.048369806 0.85563755
vt 0.032770433 0.8283386
vt 0.021070898 0.84783787
vt 0.048369806 0.85953736
vt 0.024970742 0.86733705
vt 0.095167935 0.38375643
vt 0.06396919 0.4617533
vt 0.11076731 0.4617533
vt 0.06006934 0.38375643
vt 0.024970742 0.38765627
vt 0.017171055 0.4617533
vt 0.06006934 0.38375643
vt 0.095167935 0.38375643
vt 0.095167935 0.38375643
vt 0.06006934 0.37985656
vt 0.024970742 0.38765627
vt 0.024970742 0.38375643
vt 0.017171055 0.4617533
vt 0.024970742 0.38765627
vt 0.021070898 0.38375643
vt 0.013271211 0.4617533
vt 0.11076731 0.4617533
vt 0.06396919 0.4617533
vt 0.11076731 0.46565315
vt 0.06396919 0.4617533
vt 0.017171055 0.4617533
vt 0.017171055 0.46565315
vt 0.095167935 0.38375643
vt 0.11076731 0.4617533
vt 0.11076731 0.4617533
vt 0.099067785 0.38375643
vt 0.33305845 0.036670275
vt 0.2862603 0.06006934
vt 0.3369583 0.06786903
vt 0.28236046 0.040570118
vt 0.33305845 0.009371366
vt 0.28236046 0.017171055
vt 0.5670491 0.43055454
vt 0.5787486 0.41495517
vt 0.5787486 0.4461539
vt 0.5982478 0.44225407
vt 0.59434795 0.418855
vt 0.58264846 0.50465155
vt 0.6138472 0.51245123
vt 0.6099473 0.54754984
vt 0.5787486 0.5592494
vt 0.5631492 0.5163511
vt 0.63334644 0.5631492
vt 0.6411461 0.55144966
vt 0.62944657 0.5163511
vt 0.5787486 0.41495517
vt 0.5670491 0.43055454
vt 0.5787486 0.4461539
vt 0.5982478 0.44225407
vt 0.59434795 0.418855
vt 0.6138472 0.51245123
vt 0.58264846 0.50465155
vt 0.63334644 0.5631492
vt 0.62944657 0.5163511
vt 0.6411461 0.55144966
vt 0.6099473 0.54754984
vt 0.5631492 0.5163511
vt 0.5787486 0.5592494
vt 0.29795983 0.82443875
vt 0.29795983 0.8517377
vt 0.32525876 0.84783787
vt 0.32525876 0.8283386
vt 0.34475797 0.8283386
vt 0.34475797 0.84783787
vt 0.45395362 0.84783787
vt 0.47345284 0.8400382
vt 0.47345284 0.83223844
vt 0.45395362 0.8283386
vt 0.3993558 0.84783787
vt 0.3993558 0.8283386
vt 0.19266406 0.8283386
vt 0.17706467 0.83223844
vt 0.17706467 0.843938
vt 0.19266406 0.84783787
vt 0.48515236 0.83223844
vt 0.47345284 0.83223844
vt 0.47345284 0.8400382
vt 0.48515236 0.843938
vt 0.34475797 0.84783787
vt 0.3564575 0.843938
vt 0.3564575 0.83223844
vt 0.34475797 0.8283386
vt 0.3993558 0.8283386
vt 0.38765627 0.83223844
vt 0.38765627 0.843938
vt 0.3993558 0.84783787
vt 0.38765627 0.843938
vt 0.38765627 0.83223844
vt 0.3564575 0.83223844
vt 0.3564575 0.843938
vt 0.19266406 0.84783787
vt 0.20436358 0.8517377
vt 0.20436358 0.82443875
vt 0.19266406 0.8283386
vt 0.20436358 0.8517377
vt 0.24726187 0.8517377
vt 0.24726187 0.82443875
vt 0.20436358 0.82443875
vt 0.24726187 0.8517377
vt 0.26286125 0.8517377
vt 0.26286125 0.82443875
vt 0.24726187 0.82443875
vt 0.26286125 0.8517377
vt 0.29795983 0.8517377
vt 0.29795983 0.82443875
vt 0.26286125 0.82443875
vt 0.06396919 0.894636
vt 0.024970742 0.90243566
vt 0.024970742 0.9765327
vt 0.06396919 0.9843324
vt 0.7386422 0.7074435
vt 0.7971399 0.76984096
vt 0.81663907 0.73474234
vt 0.73084253 0.7464419
vt 0.77764064 0.80493957
vt 0.72304285 0.7815405
vt 0.7542416 0.8400382
vt 0.71524316 0.82443875
vt 0.72694266 0.8790366
vt 0.7074435 0.8712369
vt 0.6762447 0.82053894
vt 0.68404436 0.8712369
vt 0.668445 0.7815405
vt 0.6606453 0.742542
vt 0.6567455 0.7035436
vt 0.6528456 0.6606453
vt 0.7464419 0.6645452
vt 0.6528456 0.6138472
vt 0.7503417 0.617747
vt 0.6528456 0.5709489
vt 0.7542416 0.5748488
vt 0.7542416 0.5280506
vt 0.6567455 0.5241508
vt 0.5748488 0.8907361
vt 0.53975016 0.81273925
vt 0.51245123 0.8400382
vt 0.59434795 0.85953736
vt 0.5709489 0.7893402
vt 0.6138472 0.82443875
vt 0.6957439 0.10296763
vt 0.6567455 0.06006934
vt 0.6411461 0.095167935
vt 0.6957439 0.06396919
vt 0.7503417 0.09126809
vt 0.73474234 0.056169495
vt 0.69184405 0.017171055
vt 0.7113433 0.013271211
vt 0.67234486 0.017171055
vt 0.6567455 0.005471522
vt 0.6216469 0.040570118
vt 0.6411461 0.095167935
vt 0.6567455 0.06006934
vt 0.6216469 0.040570118
vt 0.59434795 0.06786903
vt 0.12636669 0.43055454
vt 0.14196607 0.47345284
vt 0.18486436 0.46565315
vt 0.1887642 0.42275485
vt 0.1887642 0.42275485
vt 0.22776265 0.47735268
vt 0.24726187 0.43445438
vt 0.18486436 0.46565315
vt 0.20826343 0.5241508
vt 0.18486436 0.5202509
vt 0.14196607 0.47345284
vt 0.1614653 0.5241508
vt 0.29016015 0.48515236
vt 0.27066094 0.48125252
vt 0.2511617 0.48515236
vt 0.23556234 0.4968519
vt 0.30575952 0.4968519
vt 0.22776265 0.5163511
vt 0.31745908 0.5163511
vt 0.22776265 0.53975016
vt 0.31745908 0.53975016
vt 0.23556234 0.5553495
vt 0.30575952 0.5553495
vt 0.2511617 0.5709489
vt 0.29016015 0.5709489
vt 0.27066094 0.5748488
vt 0.11076731 0.8907361
vt 0.06396919 0.894636
vt 0.06396919 0.9843324
vt 0.11076731 0.98823225
vt 0.15756544 0.8868363
vt 0.1614653 0.99213207
vt 0.20436358 0.8868363
vt 0.20826343 0.99213207
vt 0.25506157 0.98823225
vt 0.25506157 0.8868363
vt 0.30185968 0.98823225
vt 0.30185968 0.8907361
vt 0.34865782 0.98043257
vt 0.34865782 0.894636
vt 0.81663907 0.29406
vt 0.82443875 0.3291586
vt 0.90243566 0.3291586
vt 0.90243566 0.29016015
vt 0.9765327 0.33305845
vt 0.81273925 0.2511617
vt 0.9843324 0.29406
vt 0.90243566 0.24726187
vt 0.99213207 0.2511617
vt 0.81273925 0.20826343
vt 0.90243566 0.20826343
vt 0.99213207 0.20826343
vt 0.99213207 0.16926499
vt 0.90243566 0.16926499
vt 0.81273925 0.16536514
vt 0.9843324 0.12246685
vt 0.90243566 0.12636669
vt 0.9765327 0.08736825
vt 0.82053894 0.12246685
vt 0.90243566 0.09126809
vt 0.82443875 0.08346841
vt 0.8985358 0.052269652
vt 0.8361383 0.048369806
vt 0.894636 0.013271211
vt 0.843938 0.013271211
vt 0.013271211 0.3135592
vt 0.021070898 0.3564575
vt 0.10686747 0.34865782
vt 0.10686747 0.30575952
vt 0.009371366 0.2667611
vt 0.10296763 0.26286125
vt 0.005471522 0.21996295
vt 0.19266406 0.34475797
vt 0.19266406 0.30575952
vt 0.1887642 0.38375643
vt 0.11466716 0.3915561
vt 0.1887642 0.42275485
vt 0.12636669 0.43055454
vt 0.24726187 0.43445438
vt 0.2589614 0.39545596
vt 0.27066094 0.3564575
vt 0.28236046 0.3135592
vt 0.19266406 0.26286125
vt 0.29016015 0.2667611
vt 0.10296763 0.21996295
vt 0.1965639 0.2238628
vt 0.29016015 0.2238628
vt 0.29016015 0.17706467
vt 0.1965639 0.18096451
vt 0.28236046 0.13026655
vt 0.10296763 0.18096451
vt 0.009371366 0.17706467
vt 0.19266406 0.13806623
vt 0.27456078 0.08736825
vt 0.10686747 0.13416639
vt 0.013271211 0.12636669
vt 0.19266406 0.099067785
vt 0.26286125 0.048369806
vt 0.11076731 0.095167935
vt 0.024970742 0.08346841
vt 0.1887642 0.056169495
vt 0.24726187 0.005471522
vt 0.118567005 0.052269652
vt 0.1887642 0.013271211
vt 0.13026655 0.009371366
vt 0.34085813 0.44225407
vt 0.3564575 0.47735268
vt 0.41495517 0.46565315
vt 0.41105533 0.4266547
vt 0.32525876 0.40325564
vt 0.40715548 0.38765627
vt 0.3135592 0.3564575
vt 0.40325564 0.34865782
vt 0.48515236 0.3915561
vt 0.30575952 0.30965936
vt 0.4890522 0.34865782
vt 0.3993558 0.30575952
vt 0.49295205 0.30575952
vt 0.30185968 0.2589614
vt 0.3993558 0.26286125
vt 0.4968519 0.2667611
vt 0.4968519 0.2238628
vt 0.40325564 0.21996295
vt 0.30575952 0.21216327
vt 0.4968519 0.18096451
vt 0.40715548 0.17706467
vt 0.49295205 0.14196607
vt 0.31745908 0.1614653
vt 0.41105533 0.13806623
vt 0.33305845 0.118567005
vt 0.418855 0.099067785
vt 0.35255766 0.07956856
vt 0.4266547 0.06006934
vt 0.37205687 0.044469964
vt 0.76594114 0.13026655
vt 0.7503417 0.09126809
vt 0.6957439 0.10296763
vt 0.6996438 0.14196607
vt 0.6411461 0.095167935
vt 0.77764064 0.16536514
vt 0.62944657 0.13416639
vt 0.6996438 0.17706467
vt 0.7893402 0.20826343
vt 0.6216469 0.17316483
vt 0.6996438 0.21606311
vt 0.7971399 0.2511617
vt 0.6138472 0.21216327
vt 0.7035436 0.2589614
vt 0.6099473 0.2589614
vt 0.8010397 0.29795983
vt 0.7035436 0.30185968
vt 0.6060475 0.30185968
vt 0.6099473 0.34475797
vt 0.7035436 0.34085813
vt 0.7971399 0.34085813
vt 0.617747 0.3915561
vt 0.7074435 0.38375643
vt 0.79324 0.38765627
vt 0.6255467 0.43055454
vt 0.7074435 0.4266547
vt 0.7854403 0.4266547
vt 0.63334644 0.469553
vt 0.7035436 0.46565315
vt 0.64504594 0.5085514
vt 0.6996438 0.50465155
vt 0.5085514 0.6138472
vt 0.5787486 0.58264846
vt 0.55144966 0.5553495
vt 0.54754984 0.62944657
vt 0.6060475 0.6138472
vt 0.58264846 0.64504594
vt 0.6411461 0.6489458
vt 0.6255467 0.668445
vt 0.5748488 0.68404436
vt 0.6216469 0.68794423
vt 0.5358503 0.68404436
vt 0.4968519 0.68404436
vt 0.5787486 0.72694266
vt 0.6255467 0.7113433
vt 0.54365 0.7386422
vt 0.60214764 0.7620413
vt 0.63724625 0.72694266
vt 0.63334644 0.7854403
vt 0.6528456 0.7386422
vt 0.6138472 0.82443875
vt 0.5709489 0.7893402
vt 0.53975016 0.81273925
vt 0.50465155 0.7542416
vt 0.51245123 0.8400382
vt 0.469553 0.76594114
vt 0.45785347 0.68404436
vt 0.4266547 0.7737408
vt 0.469553 0.60214764
vt 0.418855 0.68404436
vt 0.37985656 0.77764064
vt 0.4266547 0.59434795
vt 0.3759567 0.68404436
vt 0.37985656 0.58654827
vt 0.33305845 0.7815405
vt 0.33305845 0.68404436
vt 0.3369583 0.58264846
vt 0.29016015 0.58264846
vt 0.29016015 0.68014455
vt 0.2862603 0.77764064
vt 0.4266547 0.50465155
vt 0.44225407 0.5553495
vt 0.4617533 0.55144966
vt 0.469553 0.50465155
vt 0.48125252 0.5592494
vt 0.41495517 0.46565315
vt 0.5085514 0.5163511
vt 0.47345284 0.46565315
vt 0.41105533 0.4266547
vt 0.5280506 0.48125252
vt 0.48125252 0.4266547
vt 0.40715548 0.38765627
vt 0.54754984 0.4461539
vt 0.48515236 0.3915561
vt 0.5670491 0.40715548
vt 0.4890522 0.34865782
vt 0.5787486 0.3642572
vt 0.49295205 0.30575952
vt 0.59044814 0.31745908
vt 0.4968519 0.2667611
vt 0.59434795 0.2667611
vt 0.59434795 0.21996295
vt 0.4968519 0.2238628
vt 0.29016015 0.68014455
vt 0.29016015 0.58264846
vt 0.24336202 0.59044814
vt 0.24726187 0.68014455
vt 0.2862603 0.77764064
vt 0.20046374 0.5982478
vt 0.23946218 0.76984096
vt 0.20826343 0.68014455
vt 0.15756544 0.6099473
vt 0.1965639 0.7620413
vt 0.16926499 0.68014455
vt 0.15756544 0.7464419
vt 0.1536656 0.83223844
vt 0.12246685 0.8088394
vt 0.118567005 0.73084253
vt 0.08736825 0.77764064
vt 0.13026655 0.68014455
vt 0.118567005 0.6255467
vt 0.08736825 0.58264846
vt 0.11466716 0.55144966
vt 0.07956856 0.71524316
vt 0.08346841 0.68014455
vt 0.075668715 0.64504594
vt 0.056169495 0.6138472
vt 0.0015716781 0.68014455
vt 0.024970742 0.5982478
vt 0.040570118 0.5553495
vt 0.056169495 0.7464419
vt 0.040570118 0.80493957
vt 0.024970742 0.7620413
vt 0.7737408 0.5787486
vt 0.76594114 0.67234486
vt 0.8088394 0.67234486
vt 0.81663907 0.58654827
vt 0.8517377 0.67234486
vt 0.85563755 0.59044814
vt 0.8907361 0.6645452
vt 0.894636 0.5982478
vt 0.9141352 0.73084253
vt 0.87513673 0.7503417
vt 0.9492338 0.7113433
vt 0.9297346 0.6606453
vt 0.98823225 0.68794423
vt 0.9336344 0.6060475
vt 0.9765327 0.6528456
vt 0.9765327 0.617747
vt 0.4968519 0.2238628
vt 0.59434795 0.21996295
vt 0.58654827 0.16926499
vt 0.4968519 0.18096451
vt 0.5709489 0.12636669
vt 0.49295205 0.14196607
vt 0.5553495 0.08736825
vt 0.4890522 0.10296763
vt 0.41105533 0.13806623
vt 0.5358503 0.048369806
vt 0.418855 0.099067785
vt 0.48515236 0.06006934
vt 0.51245123 0.005471522
vt 0.4266547 0.06006934
vt 0.47735268 0.017171055
vt 0.44225407 0.013271211
vt 0.34865782 0.894636
vt 0.34865782 0.98043257
vt 0.3915561 0.9726328
vt 0.3915561 0.8985358
vt 0.14196607 0.5202509
vt 0.07176887 0.47735268
vt 0.056169495 0.5163511
vt 0.11466716 0.55144966
vt 0.040570118 0.5553495
vt 0.08736825 0.58264846
vt 0.9336344 0.34475797
vt 0.8829364 0.3642572
vt 0.91023535 0.3993558
vt 0.9414341 0.38765627
vt 0.9609333 0.46565315
vt 0.98823225 0.34475797
vt 0.9765327 0.38765627
vt 0.8868363 0.43055454
vt 0.8790366 0.46565315
vt 0.8868363 0.50075173
vt 0.91023535 0.5280506
vt 0.9414341 0.54365
vt 0.8829364 0.5631492
vt 0.9765327 0.54365
vt 0.9336344 0.58654827
vt 0.9843324 0.58654827
vn -0.23802483 -0.17460835 -0.95543504
vn -0.68239903 -0.42853647 -0.5921892
vn -0.618917 -0.5237595 -0.5853356
vn -0.3332479 -0.07938534 -0.9394912
vn -0.7458811 -0.36505443 -0.55713254
vn 0.17460835 0.23802483 -0.95543504
vn -0.39672983 -0.015903294 -0.9177977
vn 0.07938534 0.3332479 -0.9394912
vn 0.5237595 0.618917 -0.5853356
vn 0.015903294 0.39672983 -0.9177976
vn 0.42853647 0.68239903 -0.5921892
vn 0.36505443 0.7458811 -0.55713254
vn -0.73777455 -0.6750473 -0
vn -0.68239903 -0.42853647 0.5921892
vn -0.618917 -0.5237595 0.5853356
vn -0.809363 -0.58724153 -0.008883499
vn -0.618917 -0.5237595 -0.5853356
vn -0.7458811 -0.36505443 0.55713254
vn -0.68239903 -0.42853647 -0.5921892
vn -0.87113035 -0.49105194 -0
vn -0.7458811 -0.36505443 -0.55713254
vn 0.17460835 0.23802483 0.95543504
vn 0.42853647 0.68239903 0.5921892
vn 0.5237595 0.618917 0.5853356
vn 0.07938534 0.3332479 0.9394912
vn 0.36505443 0.7458811 0.55713254
vn -0.23802483 -0.17460835 0.95543504
vn 0.015903294 0.39672983 0.9177976
vn -0.3332479 -0.07938534 0.9394912
vn -0.618917 -0.5237595 0.5853356
vn -0.39672983 -0.015903294 0.9177977
vn -0.68239903 -0.42853647 0.5921892
vn -0.7458811 -0.36505443 0.55713254
vn 0.6750473 0.73777455 -0
vn 0.42853647 0.68239903 -0.5921892
vn 0.5237595 0.618917 -0.5853356
vn 0.58724153 0.809363 -0.008883499
vn 0.5237595 0.618917 0.5853356
vn 0.36505443 0.7458811 -0.55713254
vn 0.42853647 0.68239903 0.5921892
vn 0.49105194 0.87113035 -0
vn 0.36505443 0.7458811 0.55713254
vn -0.7071067 0.7071067 -0
vn -0.7071067 0.7071067 -0
vn -0.7071067 0.7071067 -0
vn -0.7071067 0.7071067 -0
vn -0.7071067 0.7071067 -0
vn -0.7071067 0.7071067 -0
vn -0.7071067 0.7071067 -0
vn -0.7071067 0.7071067 -0
vn -0.7071067 0.7071067 -0
vn -0.7071067 0.7071067 -0
vn -0.01583767 0.01583767 -0.9997491
vn -0.55543494 -0.4602775 -0.69255805
vn -0.4919529 -0.49201852 -0.7182619
vn -0.047578692 0.047578692 -0.9977337
vn 0.49201852 0.4919529 -0.7182619
vn 0.4602775 0.55543494 -0.692558
vn 0.36505443 0.618917 -0.6954689
vn -0.11106074 0.11106074 -0.9875885
vn -0.618917 -0.36505443 -0.6954689
vn -0.7070743 -0.7071392 -0
vn -0.55543494 -0.4602775 0.69255805
vn -0.4919529 -0.49201852 0.7182619
vn -0.7458811 -0.6507236 -0.14219782
vn -0.4919529 -0.49201852 -0.7182619
vn -0.55543494 -0.4602775 -0.69255805
vn -0.618917 -0.36505443 -0.6954689
vn -0.809363 -0.5555005 -0.19065867
vn -0.618917 -0.36505443 0.6954689
vn -0.01583767 0.01583767 0.9997491
vn 0.4602775 0.55543494 0.692558
vn 0.49201852 0.4919529 0.7182619
vn -0.047578692 0.047578692 0.9977337
vn -0.4919529 -0.49201852 0.7182619
vn -0.55543494 -0.4602775 0.69255805
vn -0.618917 -0.36505443 0.6954689
vn -0.11106074 0.11106074 0.9875885
vn 0.36505443 0.618917 0.6954689
vn 0.7071392 0.7070743 -0
vn 0.4602775 0.55543494 -0.692558
vn 0.49201852 0.4919529 -0.7182619
vn 0.6507236 0.7458811 -0.14219782
vn 0.49201852 0.4919529 0.7182619
vn 0.4602775 0.55543494 0.692558
vn 0.36505443 0.618917 0.6954689
vn 0.5555005 0.809363 -0.19065867
vn 0.36505443 0.618917 -0.6954689
vn -0.079319715 0.84110403 -0.5350256
vn -0.079319715 0.84110403 -0.5350256
vn -0.46021187 0.46021187 -0.7592167
vn -0.46021187 0.46021187 -0.7592167
vn -0.84110403 0.079319715 -0.5350256
vn -0.84110403 0.079319715 -0.5350256
vn -0.84110403 0.079319715 -0.5350256
vn -0.84110403 0.079319715 -0.5350256
vn -0.9968626 -0.079151385 -0
vn -0.9968626 -0.079151385 -0
vn -0.84110403 0.079319715 0.5350256
vn -0.84110403 0.079319715 0.5350256
vn -0.84110403 0.079319715 0.5350256
vn -0.84110403 0.079319715 0.5350256
vn -0.46021187 0.46021187 0.7592167
vn -0.46021187 0.46021187 0.7592167
vn -0.079319715 0.84110403 0.5350256
vn -0.079319715 0.84110403 0.5350256
vn -0.079319715 0.84110403 0.5350256
vn -0.079319715 0.84110403 0.5350256
vn 0.079151385 0.9968626 -0
vn 0.079151385 0.9968626 -0
vn -0.079319715 0.84110403 -0.5350256
vn -0.079319715 0.84110403 -0.5350256
vn 0.36505443 0.618917 -0.6954689
vn 0.36505443 0.618917 -0.6954689
vn -0.14280176 0.14280176 -0.9793954
vn -0.14280176 0.14280176 -0.9793954
vn -0.618917 -0.36505443 -0.6954689
vn -0.618917 -0.36505443 -0.6954689
vn -0.618917 -0.36505443 -0.6954689
vn -0.618917 -0.36505443 -0.6954689
vn -0.8344399 -0.5510992 -0
vn -0.8344399 -0.5510992 -0
vn -0.618917 -0.36505443 0.6954689
vn -0.618917 -0.36505443 0.6954689
vn -0.618917 -0.36505443 0.6954689
vn -0.618917 -0.36505443 0.6954689
vn -0.14280176 0.14280176 0.9793954
vn -0.14280176 0.14280176 0.9793954
vn 0.36505443 0.618917 0.6954689
vn 0.36505443 0.618917 0.6954689
vn 0.36505443 0.618917 0.6954689
vn 0.36505443 0.618917 0.6954689
vn 0.5510992 0.8344399 -0
vn 0.5510992 0.8344399 -0
vn 0.36505443 0.618917 -0.6954689
vn 0.36505443 0.618917 -0.6954689
vn -0.7071067 0.7071067 -0
vn -0.7071067 0.7071067 -0
vn -0.7071067 0.7071067 -0
vn -0.7071067 0.7071067 -0
vn -0.7071067 0.7071067 -0
vn -0.7071067 0.7071067 -0
vn -0.7071067 0.7071067 -0
vn -0.7071067 0.7071067 -0
vn -0.30150688 0.9363271 -0.1799588
vn -0.30150688 0.9363271 -0.1799588
vn -0.30150688 0.9363271 -0.1799588
vn -0.30150688 0.9363271 -0.1799588
vn -0.30150688 0.9045861 -0.30135962
vn -0.30150688 0.9045861 -0.30135962
vn 0.93639266 0.3332479 0.11006638
vn 0.93639266 0.3332479 0.11006638
vn 0.93639266 0.3332479 0.11006638
vn 0.93639266 0.3332479 0.11006638
vn 0.93639266 0.3332479 -0.11006638
vn 0.93639266 0.3332479 -0.11006638
vn 0.17460835 -0.17460835 -0.9690324
vn 0.17460835 -0.17460835 -0.9690324
vn 0.17460835 -0.17460835 -0.9690324
vn 0.17460835 -0.17460835 -0.9690324
vn -0.9363271 -0.3333134 -0.1104252
vn -0.9363271 -0.3333134 -0.1104252
vn -0.9363271 -0.3333134 -0.1104252
vn -0.9363271 -0.3333134 -0.1104252
vn -0.9363271 -0.3333134 0.1104252
vn -0.9363271 -0.3333134 0.1104252
vn 0.1111263 0.26976585 0.9564922
vn 0.1111263 0.26976585 0.9564922
vn 0.1111263 0.26976585 0.9564922
vn 0.1111263 0.26976585 0.9564922
vn 0.30157244 -0.93639266 0.17950712
vn 0.30157244 -0.93639266 0.17950712
vn 0.30157244 -0.93639266 0.17950712
vn 0.30157244 -0.93639266 0.17950712
vn 0.30157244 -0.90465164 0.30109707
vn 0.30157244 -0.90465164 0.30109707
vn -0.9680681 0.23802483 0.07866561
vn -0.9632973 0.2684364 -0
vn -0.9363271 0.3332479 -0.11062275
vn -0.9680681 0.17454278 0.17994142
vn -0.9680681 0.20628381 0.1424468
vn -0.98995346 0.14139408 -0
vn -0.98995346 0.14139408 -0
vn -0.9851012 0.17197514 -0
vn -0.98995346 0.14139408 -0
vn 0.30157244 0.9363271 -0.1798488
vn 0.30157244 0.9363271 -0.1798488
vn 0.30157244 0.9363271 -0.1798488
vn 0.30157244 0.9363271 -0.1798488
vn -0.14280176 -0.74594665 -0.6505161
vn -0.14280176 -0.74594665 -0.6505161
vn -0.14280176 -0.74594665 -0.6505161
vn -0.14280176 -0.74594665 -0.6505161
vn 0.07938534 0.14280176 -0.9865625
vn 0.07938534 0.14280176 -0.9865625
vn 0.07938534 0.14280176 -0.9865625
vn 0.07938534 0.14280176 -0.9865625
vn -0.047578692 -0.36505443 -0.92976964
vn -0.047578692 -0.36505443 -0.92976964
vn -0.047578692 -0.36505443 -0.92976964
vn -0.047578692 -0.36505443 -0.92976964
vn 0.1111263 0.809363 0.5766996
vn 0.1111263 0.809363 0.5766996
vn 0.1111263 0.809363 0.5766996
vn 0.1111263 0.809363 0.5766996
vn 0.1111263 0.30150688 0.946966
vn 0.1111263 0.30150688 0.946966
vn -0.01583767 -0.36505443 0.93085146
vn -0.01583767 -0.3333134 0.94268304
vn -0.079319715 -0.5555005 0.82772434
vn -0.079319715 -0.5555005 0.82772434
vn -0.20628381 -0.9681337 0.14200047
vn -0.20628381 -0.9681337 0.14200047
vn -0.20628381 -0.9681337 0.14200047
vn -0.20628381 -0.9681337 0.14200047
vn 0.047644317 0.11106074 0.9926709
vn 0.047644317 0.11106074 0.9926709
vn 0.047644317 0.11106074 0.9926709
vn 0.047644317 0.11106074 0.9926709
vn 0.99686307 -0.07914623 -0
vn 0.93639266 -0.3333134 -0.109867826
vn 0.9681337 -0.2380904 -0.07765373
vn 0.9632852 -0.2684801 -0
vn 0.9681337 -0.20634937 -0.14190516
vn 0.9938806 -0.11046012 -0
vn 0.98994565 -0.1414486 -0
vn 0.9938806 -0.11046012 -0
vn 0.98994565 -0.1414486 -0
vn -0.26976585 0.84110403 0.46879673
vn -0.36498892 0.7458811 0.55717546
vn -0.26976585 0.84110403 0.46879673
vn -0.36498892 0.7458811 0.55717546
vn -0.46021187 0.68239903 0.56792307
vn -0.46021187 0.68239903 0.56792307
vn 0.58724153 -0.2380904 0.7736022
vn 0.58724153 -0.2380904 0.7736022
vn 0.58724153 -0.2380904 0.7736022
vn 0.58724153 -0.2380904 0.7736022
vn 0.5555005 -0.26983142 0.7865178
vn 0.5555005 -0.26983142 0.7865178
vn -0.650658 -0.61898255 0.4398918
vn -0.650658 -0.61898255 0.4398918
vn -0.650658 -0.61898255 0.4398918
vn -0.650658 -0.61898255 0.4398918
vn -0.58717597 0.23802483 -0.7736721
vn -0.58717597 0.23802483 -0.7736721
vn -0.58717597 0.23802483 -0.7736721
vn -0.58717597 0.23802483 -0.7736721
vn -0.55543494 0.26976585 -0.7865865
vn -0.55543494 0.26976585 -0.7865865
vn 0.80942863 0.55543494 -0.19057095
vn 0.80942863 0.55543494 -0.19057095
vn 0.80942863 0.55543494 -0.19057095
vn 0.80942863 0.55543494 -0.19057095
vn 0.36505443 -0.74594665 -0.55704474
vn 0.26983142 -0.84116966 -0.46864128
vn 0.26983142 -0.84116966 -0.46864128
vn 0.36505443 -0.74594665 -0.55704474
vn 0.4602775 -0.6824646 -0.56779104
vn 0.4602775 -0.6824646 -0.56779104
vn -0.30150688 0.23802483 0.9232756
vn -0.047578692 0.42847085 0.9023021
vn 0.17460835 0.26976585 0.94696265
vn 0.17460835 0.30150688 0.9373396
vn -0.01583767 0.46021187 0.88766783
vn 0.17460835 0.14280176 0.97422767
vn 0.20634937 0.17454278 0.9627849
vn 0.14286733 0.079319715 0.9865583
vn 0.1111263 0.01583767 0.99368006
vn 0.1111263 0.01583767 0.99368006
vn 0.17460835 0.14280176 0.97422767
vn 0.14286733 0.17454278 0.9742298
vn 0.14286733 0.17454278 0.9742298
vn -0.047578692 0.42847085 -0.9023021
vn -0.30150688 0.23802483 -0.9232756
vn 0.17460835 0.26976585 -0.94696265
vn 0.17460835 0.30150688 -0.9373396
vn -0.01583767 0.46021187 -0.88766783
vn 0.20634937 0.17454278 -0.9627849
vn 0.17460835 0.14280176 -0.97422767
vn 0.17460835 0.14280176 -0.97422767
vn 0.14286733 0.17454278 -0.9742298
vn 0.14286733 0.17454278 -0.9742298
vn 0.14286733 0.079319715 -0.9865583
vn 0.1111263 0.01583767 -0.99368006
vn 0.1111263 0.01583767 -0.99368006
vn 0.7669342 -0.6417258 -0
vn 0.7669342 -0.6417258 -0
vn 0.5237595 -0.84116966 -0.13457198
vn 0.5237595 -0.84116966 -0.13457198
vn -0.07908121 -0.99686813 -0
vn -0.07908121 -0.99686813 -0
vn 0.61898255 0.7776221 -0.11029267
vn 0.49105194 0.87113035 -0
vn 0.49105194 0.87113035 -0
vn 0.61898255 0.7776221 -0.11029267
vn 0.64175755 0.7669076 -0
vn 0.64175755 0.7669076 -0
vn -0.4280469 -0.90375656 -0
vn -0.99387974 -0.11046726 -0
vn -0.99387974 -0.11046726 -0
vn -0.4280469 -0.90375656 -0
vn -0.64171946 0.7669394 -0
vn -0.64171946 0.7669394 -0
vn -0.64171946 0.7669394 -0
vn -0.64171946 0.7669394 -0
vn 0.99686307 -0.07914623 -0
vn 0.99686307 -0.07914623 -0
vn 0.99686307 -0.07914623 -0
vn 0.99686307 -0.07914623 -0
vn -0.2684364 0.9632973 -0
vn -0.2684364 0.9632973 -0
vn -0.2684364 0.9632973 -0
vn -0.2684364 0.9632973 -0
vn 0.64175755 0.7669076 -0
vn 0.64175755 0.7669076 -0
vn 0.64175755 0.7669076 -0
vn 0.64175755 0.7669076 -0
vn -0.4280469 -0.90375656 -0
vn -0.015837668 -0.9998746 -0
vn -0.015837668 -0.9998746 -0
vn -0.4280469 -0.90375656 -0
vn -0.73777455 -0.6750473 -0
vn -0.73777455 -0.6750473 -0
vn -0.73777455 -0.6750473 -0
vn -0.73777455 -0.6750473 -0
vn -0.87284505 0.46021187 -0.16231625
vn -0.87284505 0.46021187 -0.16231625
vn -0.87284505 0.46021187 -0.16231625
vn -0.87284505 0.46021187 -0.16231625
vn -0.6749796 -0.7378363 -0
vn -0.6749796 -0.7378363 -0
vn -0.6749796 -0.7378363 -0
vn -0.6749796 -0.7378363 -0
vn 0.14286733 0.9363271 -0.32074988
vn -0.01583767 0.9363271 -0.35077164
vn -0.17454278 0.809363 -0.560773
vn -0.047578692 0.7776221 -0.6269291
vn -0.9363271 -0.14286733 0.32074988
vn -0.809363 0.17454278 0.560773
vn -0.7776221 0.047578692 0.6269291
vn -0.9363271 0.01583767 0.3507716
vn -0.84110403 0.30150688 0.44904077
vn -0.9363271 0.20628381 0.2841453
vn -0.84110403 0.46021187 0.28416374
vn -0.9045861 0.36498892 0.22024326
vn -0.809363 0.5236939 0.26584998
vn -0.8711583 0.49100223 -0
vn -0.9363271 0.3332479 -0.11062275
vn -0.8912844 0.4534446 -0
vn -0.98995346 0.14139408 -0
vn -0.99980915 -0.015903294 -0.011346091
vn -0.9680681 -0.17460835 -0.1798778
vn -0.9316926 -0.36324754 -0
vn -0.87284505 -0.30157244 0.3836608
vn -0.8344399 -0.5510992 -0
vn -0.7776221 -0.4602775 0.42830884
vn -0.7070743 -0.7071392 -0
vn -0.650658 -0.6507236 0.39141157
vn -0.46021187 -0.7776876 0.42826045
vn -0.55102396 -0.83448946 -0
vn -0.26976585 0.5236939 0.80806625
vn -0.17454278 0.809363 0.560773
vn -0.047578692 0.7776221 0.6269291
vn -0.36498892 0.618917 0.6955033
vn -0.30150688 0.84110403 0.44904077
vn -0.4919529 0.650658 0.5784691
vn -0.4919529 0.650658 -0.5784691
vn -0.71414006 0.58717597 -0.38108844
vn -0.650658 0.4919529 -0.5784691
vn -0.58717597 0.71414006 -0.38108844
vn -0.30150688 0.84110403 -0.44904077
vn -0.46021187 0.84110403 -0.28416374
vn -0.618917 0.71414006 -0.32702562
vn -0.5236939 0.809363 -0.26584998
vn -0.71414006 0.618917 -0.32702562
vn -0.809363 0.5236939 -0.26584998
vn -0.84110403 0.46021187 -0.28416374
vn -0.650658 0.4919529 -0.5784691
vn -0.71414006 0.58717597 -0.38108844
vn -0.84110403 0.46021187 -0.28416374
vn -0.84110403 0.30150688 -0.44904077
vn -0.84110403 0.30150688 0.44904077
vn -0.84110403 0.46021187 0.28416374
vn -0.71414006 0.58717597 0.38108844
vn -0.650658 0.4919529 0.5784691
vn -0.650658 0.4919529 0.5784691
vn -0.58717597 0.71414006 0.38108844
vn -0.4919529 0.650658 0.5784691
vn -0.71414006 0.58717597 0.38108844
vn -0.618917 0.71414006 0.32702562
vn -0.71414006 0.618917 0.32702562
vn -0.84110403 0.46021187 0.28416374
vn -0.809363 0.5236939 0.26584998
vn -0.7071067 0.7071067 -0
vn -0.7071067 0.7071067 -0
vn -0.7071067 0.7071067 -0
vn -0.7071067 0.7071067 -0
vn -0.7071067 0.7071067 -0
vn -0.7071067 0.7071067 -0
vn -0.7071067 0.7071067 -0
vn -0.7071067 0.7071067 -0
vn -0.7071067 0.7071067 -0
vn -0.7071067 0.7071067 -0
vn -0.7071067 0.7071067 -0
vn -0.7071067 0.7071067 -0
vn -0.7071067 0.7071067 -0
vn -0.7071067 0.7071067 -0
vn 0.30157244 0.87284505 -0.38366076
vn 0.14286733 0.9363271 -0.32074988
vn -0.047578692 0.7776221 -0.6269291
vn 0.14286733 0.68239903 -0.71688247
vn 0.4602775 0.7776221 -0.4283088
vn 0.26983142 0.58717597 -0.7631615
vn 0.6507236 0.650658 -0.3914115
vn 0.42853647 0.42847085 -0.7954679
vn 0.58724153 0.26976585 -0.7631342
vn 0.7776876 0.46021187 -0.42826045
vn 0.6824646 0.14280176 -0.7168331
vn 0.8729107 0.30150688 -0.383563
vn 0.7776876 -0.047644317 -0.62684286
vn 0.93639266 0.11106074 -0.33291784
vn -0.14280176 0.42847085 0.89219975
vn -0.26976585 0.5236939 0.80806625
vn -0.047578692 0.7776221 0.6269291
vn 0.14286733 0.68239903 0.71688247
vn 0.14286733 0.9363271 0.32074988
vn 0.015903294 0.30150688 0.95333135
vn 0.30157244 0.87284505 0.38366076
vn 0.26983142 0.58717597 0.7631615
vn 0.4602775 0.7776221 0.4283088
vn 0.14286733 0.14280176 0.9793858
vn 0.42853647 0.42847085 0.7954679
vn 0.6507236 0.650658 0.3914115
vn 0.7776876 0.46021187 0.42826045
vn 0.58724153 0.26976585 0.7631342
vn 0.30157244 0.01583767 0.95331174
vn 0.8729107 0.30150688 0.383563
vn 0.6824646 0.14280176 0.7168331
vn 0.93639266 0.11106074 0.33291784
vn 0.42853647 -0.14286733 0.89215773
vn 0.7776876 -0.047644317 0.62684286
vn 0.5237595 -0.26983142 0.8080019
vn 0.80942863 -0.20634937 0.5497683
vn 0.61898255 -0.39679545 0.67780083
vn 0.84116966 -0.36505443 0.39895976
vn 0.6824646 -0.49201852 0.5405181
vn -0.87284505 -0.30157244 0.3836608
vn -0.9363271 -0.14286733 0.32074988
vn -0.7776221 0.047578692 0.6269291
vn -0.68239903 -0.14286733 0.71688247
vn -0.7776221 -0.4602775 0.42830884
vn -0.58717597 -0.26983142 0.7631615
vn -0.650658 -0.6507236 0.39141157
vn -0.5236939 0.26976585 0.80806625
vn -0.42847085 0.14280176 0.89219975
vn -0.618917 0.36498892 0.6955033
vn -0.809363 0.17454278 0.560773
vn -0.650658 0.4919529 0.5784691
vn -0.84110403 0.30150688 0.44904077
vn -0.4919529 0.650658 0.5784691
vn -0.36498892 0.618917 0.6955033
vn -0.26976585 0.5236939 0.80806625
vn -0.14280176 0.42847085 0.89219975
vn -0.30150688 -0.015903294 0.95333135
vn 0.015903294 0.30150688 0.95333135
vn -0.42847085 -0.42853647 0.7954679
vn -0.14280176 -0.14286733 0.9793858
vn 0.14286733 0.14280176 0.9793858
vn 0.30157244 0.01583767 0.95331174
vn -0.01583767 -0.30157244 0.95331174
vn 0.42853647 -0.14286733 0.89215773
vn -0.26976585 -0.58724153 0.7631342
vn -0.46021187 -0.7776876 0.42826045
vn 0.14286733 -0.42853647 0.89215773
vn 0.5237595 -0.26983142 0.8080019
vn -0.14280176 -0.6824646 0.7168331
vn -0.30150688 -0.8729107 0.383563
vn 0.26983142 -0.5237595 0.8080019
vn 0.61898255 -0.39679545 0.67780083
vn 0.047644317 -0.7776876 0.62684286
vn -0.11106074 -0.93639266 0.33291787
vn 0.39679545 -0.61898255 0.67780083
vn 0.6824646 -0.49201852 0.5405181
vn 0.20634937 -0.80942863 0.5497683
vn 0.49201852 -0.6824646 0.5405181
vn 0.36505443 -0.84116966 0.3989598
vn -0.618917 0.36498892 -0.6955033
vn -0.650658 0.4919529 -0.5784691
vn -0.84110403 0.30150688 -0.44904077
vn -0.809363 0.17454278 -0.560773
vn -0.5236939 0.26976585 -0.80806625
vn -0.7776221 0.047578692 -0.6269291
vn -0.42847085 0.14280176 -0.89219975
vn -0.68239903 -0.14286733 -0.71688247
vn -0.9363271 -0.14286733 -0.32074988
vn -0.30150688 -0.015903294 -0.95333135
vn -0.87284505 -0.30157244 -0.3836608
vn -0.58717597 -0.26983142 -0.7631615
vn -0.7776221 -0.4602775 -0.42830884
vn -0.14280176 -0.14286733 -0.9793858
vn -0.42847085 -0.42853647 -0.7954679
vn -0.650658 -0.6507236 -0.39141157
vn -0.46021187 -0.7776876 -0.42826045
vn -0.26976585 -0.58724153 -0.7631342
vn -0.01583767 -0.30157244 -0.95331174
vn -0.30150688 -0.8729107 -0.383563
vn -0.14280176 -0.6824646 -0.7168331
vn -0.11106074 -0.93639266 -0.33291787
vn 0.14286733 -0.42853647 -0.89215773
vn 0.047644317 -0.7776876 -0.62684286
vn 0.26983142 -0.5237595 -0.8080019
vn 0.20634937 -0.80942863 -0.5497683
vn 0.39679545 -0.61898255 -0.67780083
vn 0.36505443 -0.84116966 -0.3989598
vn 0.49201852 -0.6824646 -0.5405181
vn -0.17454278 0.809363 -0.560773
vn -0.30150688 0.84110403 -0.44904077
vn -0.4919529 0.650658 -0.5784691
vn -0.36498892 0.618917 -0.6955033
vn -0.650658 0.4919529 -0.5784691
vn -0.047578692 0.7776221 -0.6269291
vn -0.618917 0.36498892 -0.6955033
vn -0.26976585 0.5236939 -0.80806625
vn 0.14286733 0.68239903 -0.71688247
vn -0.5236939 0.26976585 -0.80806625
vn -0.14280176 0.42847085 -0.89219975
vn 0.26983142 0.58717597 -0.7631615
vn -0.42847085 0.14280176 -0.89219975
vn 0.015903294 0.30150688 -0.95333135
vn -0.30150688 -0.015903294 -0.95333135
vn 0.42853647 0.42847085 -0.7954679
vn 0.14286733 0.14280176 -0.9793858
vn -0.14280176 -0.14286733 -0.9793858
vn -0.01583767 -0.30157244 -0.95331174
vn 0.30157244 0.01583767 -0.95331174
vn 0.58724153 0.26976585 -0.7631342
vn 0.14286733 -0.42853647 -0.89215773
vn 0.42853647 -0.14286733 -0.89215773
vn 0.6824646 0.14280176 -0.7168331
vn 0.26983142 -0.5237595 -0.8080019
vn 0.5237595 -0.26983142 -0.8080019
vn 0.7776876 -0.047644317 -0.62684286
vn 0.39679545 -0.61898255 -0.67780083
vn 0.61898255 -0.39679545 -0.67780083
vn 0.49201852 -0.6824646 -0.5405181
vn 0.6824646 -0.49201852 -0.5405181
vn -0.01583767 0.9363271 -0.35077164
vn -0.30150688 0.84110403 -0.44904077
vn -0.17454278 0.809363 -0.560773
vn -0.20628381 0.9363271 -0.2841453
vn -0.46021187 0.84110403 -0.28416374
vn -0.36498892 0.9045861 -0.22024326
vn -0.5236939 0.809363 -0.26584998
vn -0.49100223 0.8711583 -0
vn -0.3332479 0.9363271 -0.110622644
vn -0.4534446 0.8912844 -0
vn -0.14139408 0.98995346 -0
vn 0.015903294 0.99980915 -0.011346631
vn -0.36498892 0.9045861 0.22024326
vn -0.49100223 0.8711583 -0
vn -0.20628381 0.9363271 0.2841453
vn -0.46021187 0.84110403 0.28416374
vn -0.5236939 0.809363 0.26584998
vn -0.58717597 0.71414006 0.38108844
vn -0.618917 0.71414006 0.32702562
vn -0.4919529 0.650658 0.5784691
vn -0.30150688 0.84110403 0.44904077
vn -0.17454278 0.809363 0.560773
vn -0.01583767 0.9363271 0.35077164
vn -0.047578692 0.7776221 0.6269291
vn 0.14286733 0.9363271 0.32074988
vn 0.17460835 0.9680681 -0.1798778
vn 0.30157244 0.87284505 0.38366076
vn 0.14286733 0.9363271 -0.32074988
vn 0.36324754 0.9316926 -0
vn 0.4602775 0.7776221 0.4283088
vn 0.30157244 0.87284505 -0.38366076
vn 0.5510992 0.8344399 -0
vn 0.4602775 0.7776221 -0.4283088
vn 0.6507236 0.650658 0.3914115
vn 0.7071392 0.7070743 -0
vn 0.6507236 0.650658 -0.3914115
vn 0.7776876 0.46021187 -0.42826045
vn 0.83448946 0.55102396 -0
vn 0.7776876 0.46021187 0.42826045
vn -0.84110403 0.46021187 -0.28416374
vn -0.809363 0.5236939 -0.26584998
vn -0.8711583 0.49100223 -0
vn -0.9045861 0.36498892 -0.22024326
vn -0.8912844 0.4534446 -0
vn -0.84110403 0.30150688 -0.44904077
vn -0.9363271 0.3332479 -0.11062275
vn -0.9363271 0.20628381 -0.2841453
vn -0.809363 0.17454278 -0.560773
vn -0.98995346 0.14139408 -0
vn -0.9363271 0.01583767 -0.3507716
vn -0.7776221 0.047578692 -0.6269291
vn -0.99980915 -0.015903294 -0.011346091
vn -0.9363271 -0.14286733 -0.32074988
vn -0.9680681 -0.17460835 -0.1798778
vn -0.87284505 -0.30157244 -0.3836608
vn -0.9316926 -0.36324754 -0
vn -0.7776221 -0.4602775 -0.42830884
vn -0.8344399 -0.5510992 -0
vn -0.650658 -0.6507236 -0.39141157
vn -0.7070743 -0.7071392 -0
vn -0.55102396 -0.83448946 -0
vn -0.46021187 -0.7776876 -0.42826045
vn 0.83448946 0.55102396 -0
vn 0.7776876 0.46021187 -0.42826045
vn 0.8729107 0.30150688 -0.383563
vn 0.93172324 0.36316887 -0
vn 0.7776876 0.46021187 0.42826045
vn 0.93639266 0.11106074 -0.33291784
vn 0.8729107 0.30150688 0.383563
vn 0.98510325 0.17196421 -0
vn 0.93639266 -0.07938534 -0.34185776
vn 0.93639266 0.11106074 0.33291784
vn 0.9998735 -0.015903275 -0
vn 0.93639266 -0.07938534 0.34185776
vn 0.7776876 -0.047644317 0.62684286
vn 0.80942863 -0.20634937 0.5497683
vn 0.93639266 -0.2380904 0.2578405
vn 0.84116966 -0.36505443 0.39895976
vn 0.9681337 -0.20634937 -0.14190516
vn 0.93639266 -0.2380904 -0.2578405
vn 0.84116966 -0.36505443 -0.39895976
vn 0.80942863 -0.20634937 -0.5497683
vn 0.8729107 -0.4602775 0.16177638
vn 0.90373117 -0.42810044 -0
vn 0.8729107 -0.4602775 -0.16177638
vn 0.80942863 -0.5237595 -0.26552075
vn 0.7071067 -0.7071067 -0
vn 0.7142056 -0.61898255 -0.32675818
vn 0.6824646 -0.49201852 -0.5405181
vn 0.80942863 -0.5237595 0.26552075
vn 0.6824646 -0.49201852 0.5405181
vn 0.7142056 -0.61898255 0.32675818
vn -0.55102396 -0.83448946 -0
vn -0.46021187 -0.7776876 0.42826045
vn -0.30150688 -0.8729107 0.383563
vn -0.36316887 -0.93172324 -0
vn -0.11106074 -0.93639266 0.33291787
vn -0.17196421 -0.98510325 -0
vn 0.07938534 -0.93639266 0.34185773
vn 0.015903275 -0.9998735 -0
vn 0.20634937 -0.80942863 0.5497683
vn 0.047644317 -0.7776876 0.62684286
vn 0.36505443 -0.84116966 0.3989598
vn 0.2380904 -0.93639266 0.25784048
vn 0.5237595 -0.80942863 0.26552075
vn 0.20634937 -0.9681337 -0.14190514
vn 0.4602775 -0.8729107 0.16177627
vn 0.42810044 -0.90373117 -0
vn -0.46021187 -0.7776876 -0.42826045
vn -0.55102396 -0.83448946 -0
vn -0.36316887 -0.93172324 -0
vn -0.30150688 -0.8729107 -0.383563
vn -0.17196421 -0.98510325 -0
vn -0.11106074 -0.93639266 -0.33291787
vn 0.015903275 -0.9998735 -0
vn 0.07938534 -0.93639266 -0.34185773
vn 0.047644317 -0.7776876 -0.62684286
vn 0.20634937 -0.9681337 -0.14190514
vn 0.20634937 -0.80942863 -0.5497683
vn 0.2380904 -0.93639266 -0.25784048
vn 0.42810044 -0.90373117 -0
vn 0.36505443 -0.84116966 -0.3989598
vn 0.4602775 -0.8729107 -0.16177627
vn 0.5237595 -0.80942863 -0.26552075
vn 0.93639266 0.11106074 -0.33291784
vn 0.7776876 -0.047644317 -0.62684286
vn 0.80942863 -0.20634937 -0.5497683
vn 0.93639266 -0.07938534 -0.34185776
vn 0.7776876 -0.047644317 -0.62684286
vn 0.5237595 -0.26983142 -0.8080019
vn 0.61898255 -0.39679545 -0.67780083
vn 0.80942863 -0.20634937 -0.5497683
vn 0.6824646 -0.49201852 -0.5405181
vn 0.84116966 -0.36505443 -0.39895976
vn 0.49201852 -0.6824646 -0.5405181
vn 0.36505443 -0.84116966 -0.3989598
vn 0.5237595 -0.80942863 -0.26552075
vn 0.61898255 -0.7142056 -0.3267582
vn 0.7071067 -0.7071067 -0
vn 0.6824646 -0.49201852 -0.5405181
vn 0.7142056 -0.61898255 -0.32675818
vn 0.4602775 -0.8729107 -0.16177627
vn 0.42810044 -0.90373117 -0
vn 0.4602775 -0.8729107 0.16177627
vn 0.5237595 -0.80942863 0.26552075
vn 0.61898255 -0.7142056 0.3267582
vn 0.36505443 -0.84116966 0.3989598
vn 0.7142056 -0.61898255 0.32675818
vn 0.49201852 -0.6824646 0.5405181
vn 0.6824646 -0.49201852 0.5405181
g hoth_ion_cannon_mesh_0
f 3/3/3 2/2/2 1/1/1
f 2/2/2 4/4/4 1/1/1
f 2/2/2 5/5/5 4/4/4
f 1/1/1 4/4/4 6/6/6
f 5/5/5 7/7/7 4/4/4
f 4/4/4 8/8/8 6/6/6
f 4/4/4 7/7/7 8/8/8
f 6/6/6 8/8/8 9/9/9
f 7/7/7 10/10/10 8/8/8
f 8/8/8 11/11/11 9/9/9
f 8/8/8 10/10/10 11/11/11
f 10/10/10 12/12/12 11/11/11
f 15/15/15 14/14/14 13/13/13
f 14/14/14 16/16/16 13/13/13
f 13/13/13 16/16/16 17/17/17
f 14/14/14 18/18/18 16/16/16
f 16/16/16 19/19/19 17/17/17
f 18/18/18 20/20/20 16/16/16
f 16/16/16 20/20/20 19/19/19
f 20/20/20 21/21/21 19/19/19
f 24/24/24 23/23/23 22/22/22
f 23/23/23 25/25/25 22/22/22
f 23/23/23 26/26/26 25/25/25
f 22/22/22 25/25/25 27/27/27
f 26/26/26 28/28/28 25/25/25
f 25/25/25 29/29/29 27/27/27
f 25/25/25 28/28/28 29/29/29
f 27/27/27 29/29/29 30/30/30
f 28/28/28 31/31/31 29/29/29
f 29/29/29 32/32/32 30/30/30
f 29/29/29 31/31/31 32/32/32
f 31/31/31 33/33/33 32/32/32
f 36/36/36 35/35/35 34/34/34
f 35/35/35 37/37/37 34/34/34
f 34/34/34 37/37/37 38/38/38
f 35/35/35 39/39/39 37/37/37
f 37/37/37 40/40/40 38/38/38
f 39/39/39 41/41/41 37/37/37
f 37/37/37 41/41/41 40/40/40
f 41/41/41 42/42/42 40/40/40
f 45/45/45 44/44/44 43/43/43
f 46/46/46 45/45/45 43/43/43
f 46/46/46 47/47/47 45/45/45
f 47/47/47 48/48/48 45/45/45
f 47/47/47 49/49/49 48/48/48
f 49/49/49 50/50/50 48/48/48
f 49/49/49 51/51/51 50/50/50
f 51/51/51 52/52/52 50/50/50
f 55/55/55 54/54/54 53/53/53
f 54/54/54 56/56/56 53/53/53
f 53/53/53 56/56/56 57/57/57
f 56/56/56 58/58/58 57/57/57
f 59/59/59 58/58/58 56/56/56
f 60/60/60 59/59/59 56/56/56
f 60/60/60 56/56/56 54/54/54
f 61/61/61 60/60/60 54/54/54
f 64/64/64 63/63/63 62/62/62
f 63/63/63 65/65/65 62/62/62
f 62/62/62 65/65/65 66/66/66
f 65/65/65 67/67/67 66/66/66
f 68/68/68 67/67/67 65/65/65
f 69/69/69 68/68/68 65/65/65
f 69/69/69 65/65/65 63/63/63
f 70/70/70 69/69/69 63/63/63
f 73/73/73 72/72/72 71/71/71
f 72/72/72 74/74/74 71/71/71
f 71/71/71 74/74/74 75/75/75
f 74/74/74 76/76/76 75/75/75
f 77/77/77 76/76/76 74/74/74
f 78/78/78 77/77/77 74/74/74
f 78/78/78 74/74/74 72/72/72
f 79/79/79 78/78/78 72/72/72
f 82/82/82 81/81/81 80/80/80
f 81/81/81 83/83/83 80/80/80
f 80/80/80 83/83/83 84/84/84
f 83/83/83 85/85/85 84/84/84
f 86/86/86 85/85/85 83/83/83
f 87/87/87 86/86/86 83/83/83
f 87/87/87 83/83/83 81/81/81
f 88/88/88 87/87/87 81/81/81
f 91/91/91 90/90/90 89/89/89
f 92/92/92 91/91/91 89/89/89
f 93/93/93 91/91/91 92/92/92
f 94/94/94 93/93/93 92/92/92
f 97/97/97 96/96/96 95/95/95
f 98/98/98 97/97/97 95/95/95
f 99/99/99 97/97/97 98/98/98
f 100/100/100 99/99/99 98/98/98
f 103/103/103 102/102/102 101/101/101
f 104/104/104 103/103/103 101/101/101
f 105/105/105 103/103/103 104/104/104
f 106/106/106 105/105/105 104/104/104
f 109/109/109 108/108/108 107/107/107
f 110/110/110 109/109/109 107/107/107
f 111/111/111 109/109/109 110/110/110
f 112/112/112 111/111/111 110/110/110
f 115/115/115 114/114/114 113/113/113
f 116/116/116 115/115/115 113/113/113
f 117/117/117 115/115/115 116/116/116
f 118/118/118 117/117/117 116/116/116
f 121/121/121 120/120/120 119/119/119
f 122/122/122 121/121/121 119/119/119
f 123/123/123 121/121/121 122/122/122
f 124/124/124 123/123/123 122/122/122
f 127/127/127 126/126/126 125/125/125
f 128/128/128 127/127/127 125/125/125
f 129/129/129 127/127/127 128/128/128
f 130/130/130 129/129/129 128/128/128
f 133/133/133 132/132/132 131/131/131
f 134/134/134 133/133/133 131/131/131
f 135/135/135 133/133/133 134/134/134
f 136/136/136 135/135/135 134/134/134
f 139/139/139 138/138/138 137/137/137
f 140/140/140 139/139/139 137/137/137
f 140/140/140 141/141/141 139/139/139
f 141/141/141 142/142/142 139/139/139
f 141/141/141 143/143/143 142/142/142
f 143/143/143 144/144/144 142/142/142
f 147/147/147 146/146/146 145/145/145
f 148/148/148 147/147/147 145/145/145
f 148/148/148 149/149/149 147/147/147
f 149/149/149 150/150/150 147/147/147
f 153/153/153 152/152/152 151/151/151
f 152/152/152 154/154/154 151/151/151
f 151/151/151 154/154/154 155/155/155
f 154/154/154 156/156/156 155/155/155
f 159/159/159 158/158/158 157/157/157
f 160/160/160 159/159/159 157/157/157
f 163/163/163 162/162/162 161/161/161
f 164/164/164 163/163/163 161/161/161
f 164/164/164 165/165/165 163/163/163
f 165/165/165 166/166/166 163/163/163
f 169/169/169 168/168/168 167/167/167
f 170/170/170 169/169/169 167/167/167
f 173/173/173 172/172/172 171/171/171
f 174/174/174 173/173/173 171/171/171
f 174/174/174 171/171/171 175/175/175
f 176/176/176 174/174/174 175/175/175
f 179/179/179 178/178/178 177/177/177
f 178/178/178 180/180/180 177/177/177
f 178/178/178 181/181/181 180/180/180
f 178/178/178 182/182/182 181/181/181
f 182/182/182 183/183/183 181/181/181
f 182/182/182 184/184/184 183/183/183
f 184/184/184 185/185/185 183/183/183
f 188/188/188 187/187/187 186/186/186
f 189/189/189 188/188/188 186/186/186
f 192/192/192 191/191/191 190/190/190
f 193/193/193 192/192/192 190/190/190
f 196/196/196 195/195/195 194/194/194
f 197/197/197 196/196/196 194/194/194
f 200/200/200 199/199/199 198/198/198
f 201/201/201 200/200/200 198/198/198
f 204/204/204 203/203/203 202/202/202
f 205/205/205 204/204/204 202/202/202
f 208/208/208 207/207/207 206/206/206
f 209/209/209 208/208/208 206/206/206
f 210/210/210 208/208/208 209/209/209
f 211/211/211 210/210/210 209/209/209
f 214/214/214 213/213/213 212/212/212
f 215/215/215 214/214/214 212/212/212
f 218/218/218 217/217/217 216/216/216
f 219/219/219 218/218/218 216/216/216
f 222/222/222 221/221/221 220/220/220
f 222/222/222 223/223/223 221/221/221
f 224/224/224 223/223/223 222/222/222
f 224/224/224 225/225/225 223/223/223
f 224/224/224 226/226/226 225/225/225
f 227/227/227 226/226/226 224/224/224
f 228/228/228 226/226/226 227/227/227
f 231/231/231 230/230/230 229/229/229
f 230/230/230 232/232/232 229/229/229
f 233/233/233 232/232/232 230/230/230
f 234/234/234 233/233/233 230/230/230
f 237/237/237 236/236/236 235/235/235
f 238/238/238 237/237/237 235/235/235
f 238/238/238 235/235/235 239/239/239
f 240/240/240 238/238/238 239/239/239
f 243/243/243 242/242/242 241/241/241
f 244/244/244 243/243/243 241/241/241
f 247/247/247 246/246/246 245/245/245
f 246/246/246 248/248/248 245/245/245
f 249/249/249 248/248/248 246/246/246
f 250/250/250 249/249/249 246/246/246
f 253/253/253 252/252/252 251/251/251
f 254/254/254 253/253/253 251/251/251
f 257/257/257 256/256/256 255/255/255
f 256/256/256 258/258/258 255/255/255
f 255/255/255 258/258/258 259/259/259
f 258/258/258 260/260/260 259/259/259
f 263/263/263 262/262/262 261/261/261
f 263/263/263 264/264/264 262/262/262
f 264/264/264 265/265/265 262/262/262
f 263/263/263 266/266/266 264/264/264
f 266/266/266 267/267/267 264/264/264
f 266/266/266 268/268/268 267/267/267
f 268/268/268 266/266/266 269/269/269
f 266/266/266 270/270/270 269/269/269
f 268/268/268 271/271/271 267/267/267
f 271/271/271 272/272/272 267/267/267
f 272/272/272 273/273/273 267/267/267
f 276/276/276 275/275/275 274/274/274
f 277/277/277 276/276/276 274/274/274
f 278/278/278 277/277/277 274/274/274
f 277/277/277 279/279/279 276/276/276
f 279/279/279 280/280/280 276/276/276
f 279/279/279 281/281/281 280/280/280
f 279/279/279 282/282/282 281/281/281
f 282/282/282 283/283/283 281/281/281
f 281/281/281 284/284/284 280/280/280
f 280/280/280 284/284/284 285/285/285
f 284/284/284 286/286/286 285/285/285
f 289/289/289 288/288/288 287/287/287
f 290/290/290 289/289/289 287/287/287
f 290/290/290 291/291/291 289/289/289
f 291/291/291 292/292/292 289/289/289
f 295/295/295 294/294/294 293/293/293
f 296/296/296 295/295/295 293/293/293
f 296/296/296 293/293/293 297/297/297
f 298/298/298 296/296/296 297/297/297
f 301/301/301 300/300/300 299/299/299
f 302/302/302 301/301/301 299/299/299
f 305/305/305 304/304/304 303/303/303
f 306/306/306 305/305/305 303/303/303
f 309/309/309 308/308/308 307/307/307
f 310/310/310 309/309/309 307/307/307
f 313/313/313 312/312/312 311/311/311
f 314/314/314 313/313/313 311/311/311
f 317/317/317 316/316/316 315/315/315
f 318/318/318 317/317/317 315/315/315
f 321/321/321 320/320/320 319/319/319
f 322/322/322 321/321/321 319/319/319
f 325/325/325 324/324/324 323/323/323
f 326/326/326 325/325/325 323/323/323
f 329/329/329 328/328/328 327/327/327
f 330/330/330 329/329/329 327/327/327
f 333/333/333 332/332/332 331/331/331
f 334/334/334 333/333/333 331/331/331
f 337/337/337 336/336/336 335/335/335
f 338/338/338 337/337/337 335/335/335
f 341/341/341 340/340/340 339/339/339
f 340/340/340 342/342/342 339/339/339
f 340/340/340 343/343/343 342/342/342
f 343/343/343 344/344/344 342/342/342
f 343/343/343 345/345/345 344/344/344
f 345/345/345 346/346/346 344/344/344
f 345/345/345 347/347/347 346/346/346
f 347/347/347 348/348/348 346/346/346
f 346/346/346 348/348/348 349/349/349
f 348/348/348 350/350/350 349/349/349
f 346/346/346 349/349/349 351/351/351
f 344/344/344 346/346/346 351/351/351
f 344/344/344 351/351/351 352/352/352
f 342/342/342 344/344/344 352/352/352
f 342/342/342 352/352/352 353/353/353
f 339/339/339 342/342/342 353/353/353
f 339/339/339 353/353/353 354/354/354
f 355/355/355 339/339/339 354/354/354
f 355/355/355 354/354/354 356/356/356
f 357/357/357 355/355/355 356/356/356
f 357/357/357 356/356/356 358/358/358
f 359/359/359 357/357/357 358/358/358
f 360/360/360 359/359/359 358/358/358
f 361/361/361 360/360/360 358/358/358
f 364/364/364 363/363/363 362/362/362
f 363/363/363 365/365/365 362/362/362
f 363/363/363 366/366/366 365/365/365
f 366/366/366 367/367/367 365/365/365
f 370/370/370 369/369/369 368/368/368
f 369/369/369 371/371/371 368/368/368
f 368/368/368 371/371/371 372/372/372
f 371/371/371 373/373/373 372/372/372
f 371/371/371 374/374/374 373/373/373
f 374/374/374 375/375/375 373/373/373
f 376/376/376 374/374/374 371/371/371
f 369/369/369 376/376/376 371/371/371
f 377/377/377 376/376/376 369/369/369
f 378/378/378 377/377/377 369/369/369
f 381/381/381 380/380/380 379/379/379
f 382/382/382 381/381/381 379/379/379
f 385/385/385 384/384/384 383/383/383
f 386/386/386 385/385/385 383/383/383
f 389/389/389 388/388/388 387/387/387
f 388/388/388 390/390/390 387/387/387
f 388/388/388 391/391/391 390/390/390
f 391/391/391 392/392/392 390/390/390
f 390/390/390 392/392/392 393/393/393
f 392/392/392 394/394/394 393/393/393
f 397/397/397 396/396/396 395/395/395
f 398/398/398 397/397/397 395/395/395
f 398/398/398 395/395/395 399/399/399
f 400/400/400 398/398/398 399/399/399
f 400/400/400 399/399/399 401/401/401
f 402/402/402 400/400/400 401/401/401
f 402/402/402 401/401/401 403/403/403
f 404/404/404 402/402/402 403/403/403
f 404/404/404 403/403/403 405/405/405
f 406/406/406 404/404/404 405/405/405
f 406/406/406 405/405/405 407/407/407
f 408/408/408 406/406/406 407/407/407
f 411/411/411 410/410/410 409/409/409
f 412/412/412 411/411/411 409/409/409
f 412/412/412 409/409/409 413/413/413
f 414/414/414 412/412/412 413/413/413
f 414/414/414 413/413/413 415/415/415
f 416/416/416 414/414/414 415/415/415
f 417/417/417 416/416/416 415/415/415
f 418/418/418 417/417/417 415/415/415
f 419/419/419 417/417/417 418/418/418
f 420/420/420 419/419/419 418/418/418
f 421/421/421 419/419/419 420/420/420
f 422/422/422 421/421/421 420/420/420
f 425/425/425 424/424/424 423/423/423
f 426/426/426 425/425/425 423/423/423
f 427/427/427 425/425/425 426/426/426
f 426/426/426 423/423/423 428/428/428
f 429/429/429 427/427/427 426/426/426
f 430/430/430 426/426/426 428/428/428
f 429/429/429 426/426/426 430/430/430
f 431/431/431 429/429/429 430/430/430
f 430/430/430 428/428/428 432/432/432
f 431/431/431 430/430/430 433/433/433
f 433/433/433 430/430/430 432/432/432
f 434/434/434 431/431/431 433/433/433
f 435/435/435 434/434/434 433/433/433
f 436/436/436 433/433/433 432/432/432
f 436/436/436 435/435/435 433/433/433
f 437/437/437 436/436/436 432/432/432
f 438/438/438 435/435/435 436/436/436
f 439/439/439 436/436/436 437/437/437
f 439/439/439 438/438/438 436/436/436
f 440/440/440 438/438/438 439/439/439
f 441/441/441 439/439/439 437/437/437
f 442/442/442 440/440/440 439/439/439
f 442/442/442 439/439/439 441/441/441
f 443/443/443 442/442/442 441/441/441
f 444/444/444 442/442/442 443/443/443
f 445/445/445 444/444/444 443/443/443
f 446/446/446 444/444/444 445/445/445
f 447/447/447 446/446/446 445/445/445
f 450/450/450 449/449/449 448/448/448
f 451/451/451 450/450/450 448/448/448
f 451/451/451 448/448/448 452/452/452
f 453/453/453 451/451/451 452/452/452
f 453/453/453 452/452/452 454/454/454
f 455/455/455 450/450/450 451/451/451
f 456/456/456 451/451/451 453/453/453
f 456/456/456 455/455/455 451/451/451
f 455/455/455 457/457/457 450/450/450
f 457/457/457 458/458/458 450/450/450
f 457/457/457 459/459/459 458/458/458
f 459/459/459 460/460/460 458/458/458
f 461/461/461 459/459/459 457/457/457
f 462/462/462 461/461/461 457/457/457
f 462/462/462 457/457/457 455/455/455
f 463/463/463 462/462/462 455/455/455
f 463/463/463 455/455/455 456/456/456
f 464/464/464 463/463/463 456/456/456
f 464/464/464 456/456/456 465/465/465
f 465/465/465 456/456/456 453/453/453
f 466/466/466 464/464/464 465/465/465
f 465/465/465 453/453/453 467/467/467
f 467/467/467 453/453/453 454/454/454
f 466/466/466 465/465/465 468/468/468
f 468/468/468 465/465/465 467/467/467
f 469/469/469 466/466/466 468/468/468
f 470/470/470 469/469/469 468/468/468
f 471/471/471 470/470/470 468/468/468
f 471/471/471 468/468/468 467/467/467
f 472/472/472 470/470/470 471/471/471
f 473/473/473 467/467/467 454/454/454
f 473/473/473 471/471/471 467/467/467
f 474/474/474 473/473/473 454/454/454
f 475/475/475 472/472/472 471/471/471
f 475/475/475 471/471/471 473/473/473
f 476/476/476 472/472/472 475/475/475
f 477/477/477 473/473/473 474/474/474
f 477/477/477 475/475/475 473/473/473
f 478/478/478 477/477/477 474/474/474
f 479/479/479 476/476/476 475/475/475
f 479/479/479 475/475/475 477/477/477
f 480/480/480 476/476/476 479/479/479
f 481/481/481 477/477/477 478/478/478
f 481/481/481 479/479/479 477/477/477
f 482/482/482 481/481/481 478/478/478
f 483/483/483 480/480/480 479/479/479
f 483/483/483 479/479/479 481/481/481
f 484/484/484 480/480/480 483/483/483
f 485/485/485 483/483/483 481/481/481
f 486/486/486 484/484/484 483/483/483
f 486/486/486 483/483/483 485/485/485
f 487/487/487 486/486/486 485/485/485
f 490/490/490 489/489/489 488/488/488
f 491/491/491 490/490/490 488/488/488
f 491/491/491 488/488/488 492/492/492
f 493/493/493 491/491/491 492/492/492
f 493/493/493 492/492/492 494/494/494
f 495/495/495 493/493/493 494/494/494
f 496/496/496 493/493/493 495/495/495
f 495/495/495 494/494/494 497/497/497
f 498/498/498 496/496/496 495/495/495
f 499/499/499 495/495/495 497/497/497
f 498/498/498 495/495/495 499/499/499
f 500/500/500 498/498/498 499/499/499
f 499/499/499 497/497/497 501/501/501
f 500/500/500 499/499/499 502/502/502
f 502/502/502 499/499/499 501/501/501
f 503/503/503 500/500/500 502/502/502
f 504/504/504 503/503/503 502/502/502
f 505/505/505 502/502/502 501/501/501
f 505/505/505 504/504/504 502/502/502
f 506/506/506 505/505/505 501/501/501
f 507/507/507 504/504/504 505/505/505
f 508/508/508 505/505/505 506/506/506
f 508/508/508 507/507/507 505/505/505
f 509/509/509 507/507/507 508/508/508
f 510/510/510 508/508/508 506/506/506
f 511/511/511 509/509/509 508/508/508
f 511/511/511 508/508/508 510/510/510
f 512/512/512 511/511/511 510/510/510
f 513/513/513 511/511/511 512/512/512
f 514/514/514 513/513/513 512/512/512
f 515/515/515 513/513/513 514/514/514
f 516/516/516 515/515/515 514/514/514
f 519/519/519 518/518/518 517/517/517
f 520/520/520 519/519/519 517/517/517
f 521/521/521 519/519/519 520/520/520
f 520/520/520 517/517/517 522/522/522
f 523/523/523 521/521/521 520/520/520
f 524/524/524 520/520/520 522/522/522
f 523/523/523 520/520/520 524/524/524
f 524/524/524 522/522/522 525/525/525
f 526/526/526 523/523/523 524/524/524
f 527/527/527 524/524/524 525/525/525
f 526/526/526 524/524/524 527/527/527
f 527/527/527 525/525/525 528/528/528
f 529/529/529 526/526/526 527/527/527
f 530/530/530 527/527/527 528/528/528
f 529/529/529 527/527/527 530/530/530
f 531/531/531 529/529/529 530/530/530
f 530/530/530 528/528/528 532/532/532
f 531/531/531 530/530/530 533/533/533
f 533/533/533 530/530/530 532/532/532
f 534/534/534 531/531/531 533/533/533
f 535/535/535 534/534/534 533/533/533
f 536/536/536 533/533/533 532/532/532
f 536/536/536 535/535/535 533/533/533
f 537/537/537 536/536/536 532/532/532
f 538/538/538 535/535/535 536/536/536
f 539/539/539 536/536/536 537/537/537
f 539/539/539 538/538/538 536/536/536
f 540/540/540 539/539/539 537/537/537
f 541/541/541 538/538/538 539/539/539
f 542/542/542 539/539/539 540/540/540
f 542/542/542 541/541/541 539/539/539
f 543/543/543 542/542/542 540/540/540
f 544/544/544 541/541/541 542/542/542
f 545/545/545 544/544/544 542/542/542
f 546/546/546 544/544/544 545/545/545
f 547/547/547 546/546/546 545/545/545
f 550/550/550 549/549/549 548/548/548
f 549/549/549 551/551/551 548/548/548
f 549/549/549 552/552/552 551/551/551
f 552/552/552 553/553/553 551/551/551
f 552/552/552 554/554/554 553/553/553
f 554/554/554 555/555/555 553/553/553
f 553/553/553 555/555/555 556/556/556
f 555/555/555 557/557/557 556/556/556
f 551/551/551 553/553/553 558/558/558
f 553/553/553 556/556/556 558/558/558
f 548/548/548 551/551/551 559/559/559
f 551/551/551 558/558/558 559/559/559
f 556/556/556 557/557/557 560/560/560
f 557/557/557 561/561/561 560/560/560
f 558/558/558 556/556/556 562/562/562
f 556/556/556 560/560/560 562/562/562
f 560/560/560 561/561/561 563/563/563
f 561/561/561 564/564/564 563/563/563
f 563/563/563 564/564/564 565/565/565
f 564/564/564 566/566/566 565/565/565
f 563/563/563 565/565/565 567/567/567
f 568/568/568 563/563/563 567/567/567
f 560/560/560 563/563/563 568/568/568
f 562/562/562 560/560/560 568/568/568
f 562/562/562 568/568/568 569/569/569
f 558/558/558 562/562/562 570/570/570
f 570/570/570 562/562/562 569/569/569
f 559/559/559 558/558/558 570/570/570
f 570/570/570 569/569/569 571/571/571
f 572/572/572 570/570/570 571/571/571
f 559/559/559 570/570/570 572/572/572
f 573/573/573 559/559/559 572/572/572
f 548/548/548 559/559/559 573/573/573
f 573/573/573 572/572/572 574/574/574
f 575/575/575 548/548/548 573/573/573
f 576/576/576 573/573/573 574/574/574
f 575/575/575 573/573/573 576/576/576
f 576/576/576 574/574/574 577/577/577
f 578/578/578 575/575/575 576/576/576
f 579/579/579 576/576/576 577/577/577
f 578/578/578 576/576/576 579/579/579
f 580/580/580 578/578/578 579/579/579
f 579/579/579 577/577/577 581/581/581
f 580/580/580 579/579/579 582/582/582
f 582/582/582 579/579/579 581/581/581
f 583/583/583 580/580/580 582/582/582
f 584/584/584 583/583/583 582/582/582
f 585/585/585 584/584/584 582/582/582
f 585/585/585 582/582/582 581/581/581
f 586/586/586 585/585/585 581/581/581
f 589/589/589 588/588/588 587/587/587
f 590/590/590 589/589/589 587/587/587
f 591/591/591 589/589/589 590/590/590
f 590/590/590 587/587/587 592/592/592
f 593/593/593 591/591/591 590/590/590
f 594/594/594 590/590/590 592/592/592
f 593/593/593 590/590/590 594/594/594
f 594/594/594 592/592/592 595/595/595
f 596/596/596 593/593/593 594/594/594
f 597/597/597 594/594/594 595/595/595
f 596/596/596 594/594/594 597/597/597
f 597/597/597 595/595/595 598/598/598
f 599/599/599 596/596/596 597/597/597
f 600/600/600 597/597/597 598/598/598
f 599/599/599 597/597/597 600/600/600
f 601/601/601 599/599/599 600/600/600
f 601/601/601 600/600/600 602/602/602
f 603/603/603 601/601/601 602/602/602
f 603/603/603 602/602/602 604/604/604
f 605/605/605 603/603/603 604/604/604
f 605/605/605 604/604/604 606/606/606
f 607/607/607 605/605/605 606/606/606
f 608/608/608 607/607/607 606/606/606
f 609/609/609 608/608/608 606/606/606
f 612/612/612 611/611/611 610/610/610
f 613/613/613 612/612/612 610/610/610
f 613/613/613 610/610/610 614/614/614
f 615/615/615 612/612/612 613/613/613
f 616/616/616 613/613/613 614/614/614
f 617/617/617 615/615/615 613/613/613
f 617/617/617 613/613/613 616/616/616
f 618/618/618 615/615/615 617/617/617
f 619/619/619 617/617/617 616/616/616
f 620/620/620 617/617/617 619/619/619
f 620/620/620 618/618/618 617/617/617
f 621/621/621 620/620/620 619/619/619
f 621/621/621 619/619/619 622/622/622
f 623/623/623 621/621/621 622/622/622
f 624/624/624 621/621/621 623/623/623
f 625/625/625 624/624/624 623/623/623
f 626/626/626 620/620/620 621/621/621
f 624/624/624 626/626/626 621/621/621
f 627/627/627 618/618/618 620/620/620
f 626/626/626 627/627/627 620/620/620
f 627/627/627 628/628/628 618/618/618
f 628/628/628 629/629/629 618/618/618
f 630/630/630 624/624/624 625/625/625
f 631/631/631 626/626/626 624/624/624
f 630/630/630 631/631/631 624/624/624
f 632/632/632 627/627/627 626/626/626
f 631/631/631 632/632/632 626/626/626
f 633/633/633 628/628/628 627/627/627
f 632/632/632 633/633/633 627/627/627
f 634/634/634 632/632/632 631/631/631
f 634/634/634 631/631/631 630/630/630
f 634/634/634 633/633/633 632/632/632
f 633/633/633 635/635/635 628/628/628
f 634/634/634 635/635/635 633/633/633
f 635/635/635 636/636/636 628/628/628
f 637/637/637 630/630/630 625/625/625
f 634/634/634 630/630/630 637/637/637
f 637/637/637 625/625/625 638/638/638
f 634/634/634 637/637/637 639/639/639
f 639/639/639 637/637/637 638/638/638
f 642/642/642 641/641/641 640/640/640
f 643/643/643 642/642/642 640/640/640
f 644/644/644 642/642/642 643/643/643
f 645/645/645 644/644/644 643/643/643
f 646/646/646 644/644/644 645/645/645
f 647/647/647 646/646/646 645/645/645
f 646/646/646 648/648/648 644/644/644
f 648/648/648 649/649/649 644/644/644
f 650/650/650 648/648/648 646/646/646
f 651/651/651 646/646/646 647/647/647
f 651/651/651 650/650/650 646/646/646
f 652/652/652 650/650/650 651/651/651
f 653/653/653 651/651/651 647/647/647
f 654/654/654 652/652/652 651/651/651
f 654/654/654 651/651/651 653/653/653
f 655/655/655 654/654/654 653/653/653
f 658/658/658 657/657/657 656/656/656
f 659/659/659 658/658/658 656/656/656
f 660/660/660 658/658/658 659/659/659
f 661/661/661 660/660/660 659/659/659
f 662/662/662 660/660/660 661/661/661
f 663/663/663 662/662/662 661/661/661
f 663/663/663 661/661/661 664/664/664
f 665/665/665 662/662/662 663/663/663
f 666/666/666 663/663/663 664/664/664
f 667/667/667 665/665/665 663/663/663
f 667/667/667 663/663/663 666/666/666
f 668/668/668 665/665/665 667/667/667
f 669/669/669 667/667/667 666/666/666
f 670/670/670 668/668/668 667/667/667
f 670/670/670 667/667/667 669/669/669
f 671/671/671 670/670/670 669/669/669
f 674/674/674 673/673/673 672/672/672
f 675/675/675 674/674/674 672/672/672
f 678/678/678 677/677/677 676/676/676
f 679/679/679 678/678/678 676/676/676
f 680/680/680 678/678/678 679/679/679
f 681/681/681 680/680/680 679/679/679
f 684/684/684 683/683/683 682/682/682
f 685/685/685 684/684/684 682/682/682
f 686/686/686 684/684/684 685/685/685
f 685/685/685 682/682/682 687/687/687
f 688/688/688 685/685/685 687/687/687
f 686/686/686 685/685/685 688/688/688
f 686/686/686 689/689/689 684/684/684
f 686/686/686 690/690/690 689/689/689
f 686/686/686 691/691/691 690/690/690
f 686/686/686 692/692/692 691/691/691
f 686/686/686 693/693/693 692/692/692
f 692/692/692 693/693/693 694/694/694
f 686/686/686 695/695/695 693/693/693
f 693/693/693 696/696/696 694/694/694
f 693/693/693 695/695/695 696/696/696
f 695/695/695 697/697/697 696/696/696
