g p1_c2_def
v 0.014202647 4.596263E-05 -0.04702041
v -0.004458435 4.596263E-05 -0.04251601
v 0.005009994 4.596263E-05 -0.04702041
v -0.004458435 4.596263E-05 0.011628702
v 0.014202647 4.596263E-05 0.027623918
v 0.002895683 4.596263E-05 0.037276197
v -0.010433659 4.596263E-05 0.045457657
v -0.014202647 4.596263E-05 0.027531993
v -0.014202647 4.596263E-05 0.04702041
vt 0.850934 0.51648295
vt 0.75627804 0.49439657
vt 0.80360603 0.51648295
vt 0.75627804 0.22304948
vt 0.850934 0.14416951
vt 0.7941404 0.09684153
vt 0.72788125 0.055823945
vt 0.70895004 0.14416951
vt 0.70895004 0.046358347
vn -0 1 -0
vn -0 1 -0
vn -0 1 -0
vn -0 1 -0
vn -0 1 -0
vn -0 1 -0
vn -0 1 -0
vn -0 1 -0
vn -0 1 -0
g p1_c2_def_0
f 3/3/3 2/2/2 1/1/1
f 2/2/2 4/4/4 1/1/1
f 4/4/4 5/5/5 1/1/1
f 4/4/4 6/6/6 5/5/5
f 6/6/6 4/4/4 7/7/7
f 4/4/4 8/8/8 7/7/7
f 7/7/7 8/8/8 9/9/9
