g p2_c2_atk
v -0.011932354 4.910305E-05 0.05023374
v 0.002111487 4.910305E-05 0.04551972
v -0.005647 4.910305E-05 0.04876061
v -0.011932354 4.910305E-05 0.0003437288
v 0.002111487 4.910305E-05 0.02479769
v 0.011932354 4.910305E-05 0.008887883
v -0.011932354 4.910305E-05 -0.046796437
v 0.011932354 4.910305E-05 -0.05023374
v -0.006039832 4.910305E-05 -0.05023374
vt 0.6232019 0.016639795
vt 0.69439465 0.039421473
vt 0.6545267 0.025182925
vt 0.6232019 0.26723826
vt 0.69439465 0.14478673
vt 0.7428057 0.2245226
vt 0.6232019 0.50359815
vt 0.7428057 0.52068436
vt 0.65167904 0.52068436
vn -0 1 -0
vn -0 1 -0
vn -0 1 -0
vn -0 1 -0
vn -0 1 -0
vn -0 1 -0
vn -0 1 -0
vn -0 1 -0
vn -0 1 -0
g p2_c2_atk_0
f 3/3/3 2/2/2 1/1/1
f 2/2/2 4/4/4 1/1/1
f 2/2/2 5/5/5 4/4/4
f 5/5/5 6/6/6 4/4/4
f 6/6/6 7/7/7 4/4/4
f 6/6/6 8/8/8 7/7/7
f 8/8/8 9/9/9 7/7/7
