g p3_c1_def
v 0.014015909 3.1784177E-05 -0.032513097
v -0.0064517707 3.1784177E-05 -0.025076084
v 0.007977309 3.1784177E-05 -0.03105112
v 0.014015909 3.1784177E-05 0.023359854
v -0.0061339475 3.1784177E-05 -0.01312601
v -0.014015913 3.1784177E-05 -0.02049946
v 0.0030192994 3.1784177E-05 0.023359854
v -0.0061339475 3.1784177E-05 0.032513097
vt 0.3762525 0.9832567
vt 0.27361894 0.94513565
vt 0.34692863 0.97739196
vt 0.3762525 0.7046799
vt 0.27361894 0.8864879
vt 0.23549789 0.9216766
vt 0.32053712 0.7046799
vt 0.27361894 0.6577617
vn -0 1 -0
vn -0 1 -0
vn -0 1 -0
vn -0 1 -0
vn -0 1 -0
vn -0 1 -0
vn -0 1 -0
vn -0 1 -0
g p3_c1_def_0
f 3/3/3 2/2/2 1/1/1
f 2/2/2 4/4/4 1/1/1
f 2/2/2 5/5/5 4/4/4
f 2/2/2 6/6/6 5/5/5
f 5/5/5 7/7/7 4/4/4
f 5/5/5 8/8/8 7/7/7
