g p3_c2_atk
v 0.0046535563 3.1657517E-05 -0.026560098
v 0.0046535563 3.1657517E-05 0.006616283
v -0.0094654 3.1657517E-05 -0.026560098
v -0.015860084 3.1657517E-05 -0.032384958
v -0.018772513 3.1657517E-05 -0.032384958
v -0.018772513 3.1657517E-05 0.02675004
v -0.013960674 3.1657517E-05 0.032384958
v 0.008768946 3.1657517E-05 0.032384958
v 0.008768946 3.1657517E-05 0.018772513
v 0.018772513 3.1657517E-05 0.006616283
vt 0.4928256 0.65955764
vt 0.4928256 0.4928256
vt 0.4228236 0.65955764
vt 0.3910045 0.6888312
vt 0.37573135 0.6888312
vt 0.37573135 0.39227727
vt 0.39991385 0.36427647
vt 0.5131898 0.36427647
vt 0.5131898 0.43173295
vt 0.5641004 0.4928256
vn -0 1 -0
vn -0 1 -0
vn -0 1 -0
vn -0 1 -0
vn -0 1 -0
vn -0 1 -0
vn -0 1 -0
vn -0 1 -0
vn -0 1 -0
vn -0 1 -0
g p3_c2_atk_0
f 3/3/3 2/2/2 1/1/1
f 3/3/3 4/4/4 2/2/2
f 2/2/2 4/4/4 5/5/5
f 2/2/2 5/5/5 6/6/6
f 7/7/7 2/2/2 6/6/6
f 7/7/7 8/8/8 2/2/2
f 8/8/8 9/9/9 2/2/2
f 9/9/9 10/10/10 2/2/2
