g p3_c3_def
v -0.0030173436 3.549829E-05 -0.03631462
v 0.009549005 3.549829E-05 -0.03631462
v -0.010045983 3.549829E-05 -0.030279934
v 0.010045979 3.549829E-05 -0.035746653
v 0.010045979 3.549829E-05 -0.005644208
v -0.010045983 3.549829E-05 -0.006283175
v -0.0021653883 3.549829E-05 0.00756111
v -0.0021653883 3.549829E-05 0.03226783
v 0.0040822886 3.549829E-05 0.034894697
v 0.010045979 3.549829E-05 0.03631462
vt 0.3096257 0.38098586
vt 0.37384984 0.38098586
vt 0.2753728 0.35101458
vt 0.37527704 0.37813145
vt 0.37527704 0.22684789
vt 0.2753728 0.2297023
vt 0.3139073 0.16119651
vt 0.3139073 0.037029788
vt 0.34530577 0.024184953
vt 0.37527704 0.017048934
vn -0 1 -0
vn -0 1 -0
vn -0 1 -0
vn -0 1 -0
vn -0 1 -0
vn -0 1 -0
vn -0 1 -0
vn -0 1 -0
vn -0 1 -0
vn -0 1 -0
g p3_c3_def_0
f 3/3/3 2/2/2 1/1/1
f 4/4/4 2/2/2 3/3/3
f 3/3/3 5/5/5 4/4/4
f 3/3/3 6/6/6 5/5/5
f 6/6/6 7/7/7 5/5/5
f 7/7/7 8/8/8 5/5/5
f 8/8/8 9/9/9 5/5/5
f 9/9/9 10/10/10 5/5/5
