g p4_c2_def
v 0.01495381 2.8813258E-05 -0.029475428
v -0.013455547 2.8813258E-05 -0.014377555
v 0.009248888 2.8813258E-05 -0.029475428
v 0.01495381 2.8813258E-05 0.014780935
v -0.014953811 2.8813258E-05 0.0023914576
v -0.01368605 2.8813258E-05 0.01800796
v -0.012821667 2.8813258E-05 0.02169599
v 0.0023914576 2.8813258E-05 0.02169599
v 0.010055644 2.8813258E-05 0.029475428
v 0.01495381 2.8813258E-05 0.029475428
vt 0.15004921 0.6596987
vt 0.007761279 0.5846742
vt 0.12159163 0.6596987
vt 0.15004921 0.43721214
vt 1.1920929E-07 0.4993014
vt 0.0051742257 0.4216898
vt 0.010348332 0.40358043
vt 0.08795993 0.40358043
vt 0.12417868 0.36477464
vt 0.15004921 0.36477464
vn -0 1 -0
vn -0 1 -0
vn -0 1 -0
vn -0 1 -0
vn -0 1 -0
vn -0 1 -0
vn -0 1 -0
vn -0 1 -0
vn -0 1 -0
vn -0 1 -0
g p4_c2_def_0
f 3/3/3 2/2/2 1/1/1
f 2/2/2 4/4/4 1/1/1
f 2/2/2 5/5/5 4/4/4
f 5/5/5 6/6/6 4/4/4
f 6/6/6 7/7/7 4/4/4
f 7/7/7 8/8/8 4/4/4
f 8/8/8 9/9/9 4/4/4
f 9/9/9 10/10/10 4/4/4
