g p4_c1_atk
v 0.0043469276 2.6030466E-05 -0.026628183
v 0.011062539 2.6030466E-05 -0.020381102
v 0.00023426488 2.6030466E-05 -0.02412935
v -0.011062542 2.6030466E-05 -0.014446375
v 0.011062539 2.6030466E-05 0.026628183
v -0.0036701616 2.6030466E-05 0.021942874
v -0.011062542 2.6030466E-05 0.021942874
v 0.00465928 2.6030466E-05 0.026628183
vt 0.22790879 0.9175879
vt 0.26103747 0.8874709
vt 0.2068269 0.9055411
vt 0.14960462 0.8573539
vt 0.26103747 0.6495467
vt 0.185745 0.67364025
vt 0.14960462 0.67364025
vt 0.22790879 0.6495467
vn -0 1 -0
vn -0 1 -0
vn -0 1 -0
vn -0 1 -0
vn -0 1 -0
vn -0 1 -0
vn -0 1 -0
vn -0 1 -0
g p4_c1_atk_0
f 3/3/3 2/2/2 1/1/1
f 2/2/2 3/3/3 4/4/4
f 5/5/5 2/2/2 4/4/4
f 6/6/6 5/5/5 4/4/4
f 4/4/4 7/7/7 6/6/6
f 6/6/6 8/8/8 5/5/5
