g p4_c2_atk
v 0.011035278 2.8813258E-05 -0.024807766
v 0.011035278 2.8813258E-05 0.0026795827
v 0.0046964753 2.8813258E-05 -0.024807766
v -0.011035278 2.8813258E-05 -0.029475428
v -0.0037168413 2.8813258E-05 -0.029475428
v -0.011035278 2.8813258E-05 0.029475428
v 0.011035278 2.8813258E-05 0.029475428
vt 0.25962466 0.63569427
vt 0.25962466 0.4976687
vt 0.22761872 0.63569427
vt 0.14960429 0.6596987
vt 0.18561095 0.6596987
vt 0.14960429 0.36364388
vt 0.25962466 0.36364388
vn -0 1 -0
vn -0 1 -0
vn -0 1 -0
vn -0 1 -0
vn -0 1 -0
vn -0 1 -0
vn -0 1 -0
g p4_c2_atk_0
f 3/3/3 2/2/2 1/1/1
f 2/2/2 3/3/3 4/4/4
f 3/3/3 5/5/5 4/4/4
f 2/2/2 4/4/4 6/6/6
f 7/7/7 2/2/2 6/6/6
