g phase3_conflict2_wall
v -0.015580505 -1.0050833E-05 -0.031837404
v -0.015580505 0.015822846 -0.031837404
v -0.0014439896 0.015822846 -0.031837404
v -0.0014439896 -1.0050833E-05 -0.031837404
v -0.0014439896 -1.0050833E-05 -0.031837404
v -0.0014439896 0.015822846 -0.031837404
v -0.0014439896 0.015822846 0.0013632104
v -0.0014439896 -1.0050833E-05 0.0013632104
v -0.021962132 -1.0050833E-05 -0.03765357
v -0.021962132 0.015822846 -0.03765357
v -0.015580505 0.015822846 -0.031837404
v -0.015580505 -1.0050833E-05 -0.031837404
v -0.035856303 -1.0050833E-05 -0.03765357
v -0.035856303 0.015822846 -0.03765357
v -0.021962132 0.015822846 -0.03765357
v -0.021962132 -1.0050833E-05 -0.03765357
v -0.044984456 -1.0050833E-05 -0.02852542
v -0.044984456 0.015822846 -0.02852542
v -0.035856303 0.015822846 -0.03765357
v -0.035856303 -1.0050833E-05 -0.03765357
v -0.044984456 -1.0050833E-05 0.026970495
v -0.044984456 0.015822846 0.026970495
v -0.044984456 0.015822846 -0.02852542
v -0.044984456 -1.0050833E-05 -0.02852542
v -0.037875805 -1.0050833E-05 0.020911992
v -0.037875805 0.015822846 0.020911992
v -0.044984456 0.015822846 0.026970495
v -0.044984456 -1.0050833E-05 0.026970495
v -0.025354896 -1.0050833E-05 0.020911992
v -0.025354896 0.015822846 0.020911992
v -0.037875805 0.015822846 0.020911992
v -0.037875805 -1.0050833E-05 0.020911992
v -0.020104188 -1.0050833E-05 0.02713206
v -0.020104188 0.015822846 0.02713206
v -0.025354896 0.015822846 0.020911992
v -0.025354896 -1.0050833E-05 0.020911992
v 0.002675794 -1.0050833E-05 0.02713206
v 0.002675794 0.015822846 0.02713206
v -0.020104188 0.015822846 0.02713206
v -0.020104188 -1.0050833E-05 0.02713206
v 0.002675794 -1.0050833E-05 0.013561003
v 0.002675794 0.015822846 0.013561003
v 0.002675794 0.015822846 0.02713206
v 0.002675794 -1.0050833E-05 0.02713206
v 0.012692524 -1.0050833E-05 0.0013632104
v 0.012692524 0.015822846 0.0013632104
v 0.002675794 0.015822846 0.013561003
v 0.002675794 -1.0050833E-05 0.013561003
v -0.0014439896 -1.0050833E-05 0.0013632104
v -0.0014439896 0.015822846 0.0013632104
v 0.012692524 0.015822846 0.0013632104
v 0.012692524 -1.0050833E-05 0.0013632104
vt 0 0
vt 0 1
vt 1 1
vt 1 0
vt 0 0
vt 0 1
vt 1 1
vt 1 0
vt 0 0
vt 0 1
vt 1 1
vt 1 0
vt 0 0
vt 0 1
vt 1 1
vt 1 0
vt 0 0
vt 0 1
vt 1 1
vt 1 0
vt 0 0
vt 0 1
vt 1 1
vt 1 0
vt 0 0
vt 0 1
vt 1 1
vt 1 0
vt 0 0
vt 0 1
vt 1 1
vt 1 0
vt 0 0
vt 0 1
vt 1 1
vt 1 0
vt 0 0
vt 0 1
vt 1 1
vt 1 0
vt 0 0
vt 0 1
vt 1 1
vt 1 0
vt 0 0
vt 0 1
vt 1 1
vt 1 0
vt 0 0
vt 0 1
vt 1 1
vt 1 0
vn 0.015870988 0.015871048 0.99974805
vn 0.015870988 0.015871048 0.99974805
vn 0.015870988 0.015871048 0.99974805
vn 0.015870988 0.015871048 0.99974805
vn -0.999874 0.015871048 -0.00034391563
vn -0.999874 0.015871048 -0.00034391563
vn -0.999874 0.015871048 -0.00034391563
vn -0.999874 0.015871048 -0.00034391563
vn -0.68245375 0.015871048 0.73075646
vn -0.68245375 0.015871048 0.73075646
vn -0.68245375 0.015871048 0.73075646
vn -0.68245375 0.015871048 0.73075646
vn -0.015871048 0.015871048 0.99974805
vn -0.015871048 0.015871048 0.99974805
vn -0.015871048 0.015871048 0.99974805
vn -0.015871048 0.015871048 0.99974805
vn 0.7141957 0.015871048 0.6997661
vn 0.7141957 0.015871048 0.6997661
vn 0.7141957 0.015871048 0.6997661
vn 0.7141957 0.015871048 0.6997661
vn 0.999874 0.015871048 -0.00034391563
vn 0.999874 0.015871048 -0.00034391563
vn 0.999874 0.015871048 -0.00034391563
vn 0.999874 0.015871048 -0.00034391563
vn -0.65071166 0.015871048 -0.759159
vn -0.65071166 0.015871048 -0.759159
vn -0.65071166 0.015871048 -0.759159
vn -0.65071166 0.015871048 -0.759159
vn -0.015871048 0.015871048 -0.99974805
vn -0.015871048 0.015871048 -0.99974805
vn -0.015871048 0.015871048 -0.99974805
vn -0.015871048 0.015871048 -0.99974805
vn 0.7459377 0.015871048 -0.66582656
vn 0.7459377 0.015871048 -0.66582656
vn 0.7459377 0.015871048 -0.66582656
vn 0.7459377 0.015871048 -0.66582656
vn 0.015870988 0.015871048 -0.99974805
vn 0.015870988 0.015871048 -0.99974805
vn 0.015870988 0.015871048 -0.99974805
vn 0.015870988 0.015871048 -0.99974805
vn -0.999874 0.015871048 -0.00034391563
vn -0.999874 0.015871048 -0.00034391563
vn -0.999874 0.015871048 -0.00034391563
vn -0.999874 0.015871048 -0.00034391563
vn -0.7776798 0.015871048 -0.6284602
vn -0.7776798 0.015871048 -0.6284602
vn -0.7776798 0.015871048 -0.6284602
vn -0.7776798 0.015871048 -0.6284602
vn -0.015871048 0.015871048 0.99974805
vn -0.015871048 0.015871048 0.99974805
vn -0.015871048 0.015871048 0.99974805
vn -0.015871048 0.015871048 0.99974805
g phase3_conflict2_wall_0
f 3/3/3 2/2/2 1/1/1
f 4/4/4 3/3/3 1/1/1
f 7/7/7 6/6/6 5/5/5
f 8/8/8 7/7/7 5/5/5
f 11/11/11 10/10/10 9/9/9
f 12/12/12 11/11/11 9/9/9
f 15/15/15 14/14/14 13/13/13
f 16/16/16 15/15/15 13/13/13
f 19/19/19 18/18/18 17/17/17
f 20/20/20 19/19/19 17/17/17
f 23/23/23 22/22/22 21/21/21
f 24/24/24 23/23/23 21/21/21
f 27/27/27 26/26/26 25/25/25
f 28/28/28 27/27/27 25/25/25
f 31/31/31 30/30/30 29/29/29
f 32/32/32 31/31/31 29/29/29
f 35/35/35 34/34/34 33/33/33
f 36/36/36 35/35/35 33/33/33
f 39/39/39 38/38/38 37/37/37
f 40/40/40 39/39/39 37/37/37
f 43/43/43 42/42/42 41/41/41
f 44/44/44 43/43/43 41/41/41
f 47/47/47 46/46/46 45/45/45
f 48/48/48 47/47/47 45/45/45
f 51/51/51 50/50/50 49/49/49
f 52/52/52 51/51/51 49/49/49
