g phase3_conflict2_border
v -1.2667985 -0.0018372536 0.13912249
v -1.0553594 -0.0018372536 0.23074579
v -0.15321827 -0.0018372536 1.3090863
v -0.26598597 -0.0018372536 1.3513741
v 0.14984465 -0.0018372536 0.13912249
v -0.15321827 -0.0018372536 2.6059136
v 0.2344203 -0.0018372536 0.23074579
v -0.26598597 -0.0018372536 2.7116337
v 0.14984465 -0.0018372536 -3.1804745
v 1.9541266 -0.0018372536 2.6059136
v 0.2344203 -0.0018372536 -3.0677068
v 2.0034626 -0.0018372536 2.7116337
v 1.552392 -0.0018372536 -3.1804745
v 2.482725 -0.0018372536 1.9786439
v 1.6017277 -0.0018372536 -3.0677068
v 2.5391088 -0.0018372536 2.0914116
v 2.1937578 -0.0018372536 -3.7654564
v 3.8359363 -0.0018372536 1.9715962
v 2.2360456 -0.0018372536 -3.652689
v 3.7936482 -0.0018372536 2.0914116
v 3.582209 -0.0018372536 -3.7654564
v 4.3856783 -0.0018372536 2.4367623
v 3.5399213 -0.0018372536 -3.652689
v 4.498446 -0.0018372536 2.6975374
v 4.498446 -0.0018372536 -2.8492196
v 4.3856783 -0.0018372536 -2.7998838
vt 0.563846 0.49404907
vt 0.5524837 0.4891795
vt 0.5086577 0.43399122
vt 0.5135273 0.43236804
vt 0.49242586 0.49404907
vt 0.5086577 0.36906385
vt 0.4891795 0.4891795
vt 0.5135273 0.3641943
vt 0.49242586 0.65961385
vt 0.40152752 0.36906385
vt 0.4891795 0.65474427
vt 0.39990437 0.3641943
vt 0.42262894 0.65961385
vt 0.3755566 0.40152752
vt 0.41938257 0.65474427
vt 0.3739334 0.3950348
vt 0.39016524 0.6888312
vt 0.30900604 0.40152752
vt 0.38854206 0.6823385
vt 0.31062922 0.3950348
vt 0.32036832 0.6888312
vt 0.2797887 0.37717977
vt 0.3236147 0.68396163
vt 0.27491915 0.3658175
vt 0.27491915 0.643382
vt 0.2797887 0.64013565
vn -0 1 -0
vn -0 1 -0
vn -0 1 -0
vn -0 1 -0
vn -0 1 -0
vn -0 1 -0
vn -0 1 -0
vn -0 1 -0
vn -0 1 -0
vn -0 1 -0
vn -0 1 -0
vn -0 1 -0
vn -0 1 -0
vn -0 1 -0
vn -0 1 -0
vn -0 1 -0
vn -0 1 -0
vn -0 1 -0
vn -0 1 -0
vn -0 1 -0
vn -0 1 -0
vn -0 1 -0
vn -0 1 -0
vn -0 1 -0
vn -0 1 -0
vn -0 1 -0
g phase3_conflict2_border_0
f 3/3/3 2/2/2 1/1/1
f 4/4/4 3/3/3 1/1/1
f 1/1/1 2/2/2 5/5/5
f 6/6/6 3/3/3 4/4/4
f 2/2/2 7/7/7 5/5/5
f 8/8/8 6/6/6 4/4/4
f 5/5/5 7/7/7 9/9/9
f 10/10/10 6/6/6 8/8/8
f 7/7/7 11/11/11 9/9/9
f 12/12/12 10/10/10 8/8/8
f 9/9/9 11/11/11 13/13/13
f 14/14/14 10/10/10 12/12/12
f 11/11/11 15/15/15 13/13/13
f 16/16/16 14/14/14 12/12/12
f 13/13/13 15/15/15 17/17/17
f 18/18/18 14/14/14 16/16/16
f 15/15/15 19/19/19 17/17/17
f 20/20/20 18/18/18 16/16/16
f 17/17/17 19/19/19 21/21/21
f 22/22/22 18/18/18 20/20/20
f 19/19/19 23/23/23 21/21/21
f 24/24/24 22/22/22 20/20/20
f 21/21/21 23/23/23 25/25/25
f 26/26/26 22/22/22 24/24/24
f 23/23/23 26/26/26 25/25/25
f 25/25/25 26/26/26 24/24/24
