g phase3_conflict3_base
v -0.1538887 0.004717827 -9.97483
v -1.556097 0.004717827 -9.87041
v -0.1538887 0.004717827 -3.4709692
v -3.0925598 0.004717827 -9.497482
v -1.556097 0.004717827 -3.4709692
v -4.5395193 0.004717827 -8.900798
v -2.1975327 0.004717827 -4.0527368
v -5.2853746 0.004717827 -8.438367
v -4.494768 0.004717827 -7.707429
v -3.5848246 0.004717827 -4.0527368
v -4.494768 0.004717827 -3.1427927
vt 0.49332353 0.9999809
vt 0.42137218 0.993985
vt 0.49332353 0.6732019
vt 0.34642288 0.97599715
vt 0.42137218 0.6732019
vt 0.27447152 0.9460174
vt 0.39139247 0.7031816
vt 0.23549789 0.9220336
vt 0.27447152 0.886058
vt 0.31944114 0.7031816
vt 0.27447152 0.65821207
vn -0 1 -0
vn -0 1 -0
vn -0 1 -0
vn -0 1 -0
vn -0 1 -0
vn -0 1 -0
vn -0 1 -0
vn -0 1 -0
vn -0 1 -0
vn -0 1 -0
vn -0 1 -0
g phase3_conflict3_base_0
f 2/2/2 3/3/3 1/1/1
f 2/2/2 4/4/4 3/3/3
f 4/4/4 5/5/5 3/3/3
f 4/4/4 6/6/6 5/5/5
f 6/6/6 7/7/7 5/5/5
f 6/6/6 9/9/9 7/7/7
f 6/6/6 8/8/8 9/9/9
f 9/9/9 10/10/10 7/7/7
f 9/9/9 11/11/11 10/10/10
