g phase3_conflict2_base
v 0.14984465 -0.0018372536 -3.1804745
v 1.552392 -0.0018372536 -3.1804745
v 0.14984465 -0.0018372536 0.13912249
v 2.1937578 -0.0018372536 -3.7654564
v 3.582209 -0.0018372536 -3.7654564
v 4.498446 -0.0018372536 -2.8492196
v 4.498446 -0.0018372536 2.6975374
v 3.7936482 -0.0018372536 2.0914116
v 2.5391088 -0.0018372536 2.0914116
v 2.0034626 -0.0018372536 2.7116337
v -0.26598597 -0.0018372536 2.7116337
v -0.26598597 -0.0018372536 1.3513741
v -1.2667985 -0.0018372536 0.13912249
vt 0.49242586 0.65961385
vt 0.42262894 0.65961385
vt 0.49242586 0.49404907
vt 0.39016524 0.6888312
vt 0.32036832 0.6888312
vt 0.27491915 0.643382
vt 0.27491915 0.3658175
vt 0.31062922 0.3950348
vt 0.3739334 0.3950348
vt 0.39990437 0.3641943
vt 0.5135273 0.3641943
vt 0.5135273 0.43236804
vt 0.563846 0.49404907
vn -0 1 -0
vn -0 1 -0
vn -0 1 -0
vn -0 1 -0
vn -0 1 -0
vn -0 1 -0
vn -0 1 -0
vn -0 1 -0
vn -0 1 -0
vn -0 1 -0
vn -0 1 -0
vn -0 1 -0
vn -0 1 -0
g phase3_conflict2_base_0
f 3/3/3 2/2/2 1/1/1
f 4/4/4 2/2/2 3/3/3
f 5/5/5 4/4/4 3/3/3
f 6/6/6 5/5/5 3/3/3
f 7/7/7 6/6/6 3/3/3
f 8/8/8 7/7/7 3/3/3
f 9/9/9 8/8/8 3/3/3
f 10/10/10 9/9/9 3/3/3
f 11/11/11 10/10/10 3/3/3
f 12/12/12 11/11/11 3/3/3
f 13/13/13 12/12/12 3/3/3
