g phase3_conflict3_border
v -4.365567 -1.4815258E-09 3.0403059
v -3.741915 -1.4815258E-09 2.5140991
v -2.5920556 -1.4815258E-09 2.5140991
v -4.3460784 -1.4815258E-09 5.3400245
v -2.0658488 -1.4815258E-09 3.128007
v -0.3508045 -1.4815258E-09 3.128007
v -3.5567682 -1.4815258E-09 6.7237535
v -3.5567682 -1.4815258E-09 9.140407
v -3.0403059 -1.4815258E-09 9.345042
v -1.5396421 -1.4815258E-09 9.705592
v -0.3508045 -1.4815258E-09 9.803038
v -4.5019913 -1.4815258E-09 2.9818385
v -3.7906377 -1.4815258E-09 2.377675
v -2.5335882 -1.4815258E-09 2.377675
v -4.5019913 -1.4815258E-09 5.388747
v -2.0073814 -1.4815258E-09 3.0013275
v -0.22412512 -1.4815258E-09 3.0013275
v -3.7126813 -1.4815258E-09 6.7627316
v -3.7126813 -1.4815258E-09 9.237852
v -3.0890286 -1.4815258E-09 9.500956
v -1.5591313 -1.4815258E-09 9.861505
v -0.22412512 -1.4815258E-09 9.968696
vt 0.2821683 0.3472852
vt 0.31281155 0.37409806
vt 0.37026766 0.37409806
vt 0.2821683 0.232373
vt 0.3970805 0.3434548
vt 0.48326465 0.3434548
vt 0.32238758 0.16342567
vt 0.32238758 0.042767838
vt 0.3472852 0.031276617
vt 0.42389336 0.014039785
vt 0.48326465 0.0082941735
vt 0.27450746 0.3511156
vt 0.31089634 0.38175887
vt 0.37409806 0.38175887
vt 0.27450746 0.2304578
vt 0.3989957 0.34920043
vt 0.48901027 0.34920043
vt 0.31472674 0.16151047
vt 0.31472674 0.03702223
vt 0.34537 0.023615802
vt 0.42197815 0.0063789696
vt 0.48901027 0.00063335896
vn -0 1 -0
vn -0 1 -0
vn -0 1 -0
vn -0 1 -0
vn -0 1 -0
vn -0 1 -0
vn -0 1 -0
vn -0 1 -0
vn -0 1 -0
vn -0 1 -0
vn -0 1 -0
vn -0 1 -0
vn -0 1 -0
vn -0 1 -0
vn -0 1 -0
vn -0 1 -0
vn -0 1 -0
vn -0 1 -0
vn -0 1 -0
vn -0 1 -0
vn -0 1 -0
vn -0 1 -0
g phase3_conflict3_border_0
f 10/10/10 21/21/21 22/22/22
f 11/11/11 10/10/10 22/22/22
f 10/10/10 9/9/9 21/21/21
f 11/11/11 22/22/22 17/17/17
f 9/9/9 20/20/20 21/21/21
f 6/6/6 11/11/11 17/17/17
f 9/9/9 8/8/8 20/20/20
f 6/6/6 17/17/17 16/16/16
f 8/8/8 19/19/19 20/20/20
f 5/5/5 6/6/6 16/16/16
f 8/8/8 7/7/7 19/19/19
f 5/5/5 16/16/16 14/14/14
f 7/7/7 18/18/18 19/19/19
f 3/3/3 5/5/5 14/14/14
f 7/7/7 4/4/4 18/18/18
f 3/3/3 14/14/14 13/13/13
f 4/4/4 15/15/15 18/18/18
f 2/2/2 3/3/3 13/13/13
f 4/4/4 1/1/1 15/15/15
f 2/2/2 13/13/13 12/12/12
f 1/1/1 12/12/12 15/15/15
f 1/1/1 2/2/2 12/12/12
