g phase4_conflict1_border
v -5.475456 -0.00452137 -8.153778
v -5.7936487 -0.00452137 -7.977004
v -4.9097815 -0.00452137 -7.658812
v -6.960354 -0.00452137 -6.9693956
v -7.9679623 -0.00452137 -5.785013
v -4.9097815 -0.00452137 -3.1334114
v -8.78112 -0.00452137 -4.4768896
v -6.2355824 -0.00452137 -3.5930223
v -5.3870697 -0.00452137 -3.1334114
v -9.382151 -0.00452137 -3.0450244
v -7.596738 -0.00452137 -3.5930223
v -9.541246 -0.00452137 -2.3202534
v -5.864358 -0.00452137 -8.083068
v -5.457779 -0.00452137 -8.330551
v -4.7860403 -0.00452137 -7.711844
v -7.0664177 -0.00452137 -7.057782
v -8.074026 -0.00452137 -5.8733997
v -4.7860403 -0.00452137 -3.0096698
v -8.904861 -0.00452137 -4.5299215
v -5.4224243 -0.00452137 -3.0096698
v -6.270937 -0.00452137 -3.4692807
v -9.505892 -0.00452137 -3.080379
v -7.5613832 -0.00452137 -3.4692807
v -9.753374 -0.00452137 -2.0197387
vt 0.22482932 0.91048265
vt 0.21061888 0.8998248
vt 0.25325018 0.8820618
vt 0.15022455 0.8500883
vt 0.10048805 0.78969395
vt 0.25325018 0.6582475
vt 0.06140936 0.725747
vt 0.18930325 0.6795631
vt 0.22838193 0.6582475
vt 0.029435894 0.65114224
vt 0.118251085 0.6795631
vt 0.022330679 0.6156162
vt 0.20706628 0.9033774
vt 0.22838193 0.9175878
vt 0.2603554 0.8856144
vt 0.14667195 0.8536409
vt 0.09693544 0.79324657
vt 0.2603554 0.65114224
vt 0.05430415 0.725747
vt 0.22838193 0.65114224
vt 0.18575063 0.6724579
vt 0.025883285 0.65469486
vt 0.12180369 0.6724579
vt 0.011672854 0.60140574
vn -0 1 -0
vn -0 1 -0
vn -0 1 -0
vn -0 1 -0
vn -0 1 -0
vn -0 1 -0
vn -0 1 -0
vn -0 1 -0
vn -0 1 -0
vn -0 1 -0
vn -0 1 -0
vn -0 1 -0
vn -0 1 -0
vn -0 1 -0
vn -0 1 -0
vn -0 1 -0
vn -0 1 -0
vn -0 1 -0
vn -0 1 -0
vn -0 1 -0
vn -0 1 -0
vn -0 1 -0
vn -0 1 -0
vn -0 1 -0
g phase4_conflict1_border_0
f 10/10/10 22/22/22 24/24/24
f 12/12/12 10/10/10 24/24/24
f 10/10/10 7/7/7 22/22/22
f 12/12/12 24/24/24 23/23/23
f 7/7/7 19/19/19 22/22/22
f 11/11/11 12/12/12 23/23/23
f 7/7/7 5/5/5 19/19/19
f 11/11/11 23/23/23 21/21/21
f 5/5/5 17/17/17 19/19/19
f 8/8/8 11/11/11 21/21/21
f 5/5/5 4/4/4 17/17/17
f 8/8/8 21/21/21 20/20/20
f 4/4/4 16/16/16 17/17/17
f 9/9/9 8/8/8 20/20/20
f 4/4/4 2/2/2 16/16/16
f 9/9/9 20/20/20 18/18/18
f 2/2/2 13/13/13 16/16/16
f 6/6/6 9/9/9 18/18/18
f 2/2/2 1/1/1 13/13/13
f 6/6/6 18/18/18 15/15/15
f 1/1/1 14/14/14 13/13/13
f 3/3/3 6/6/6 15/15/15
f 3/3/3 15/15/15 14/14/14
f 1/1/1 3/3/3 14/14/14
