g phase4_conflict1_base
v -5.457779 -0.00452137 -8.330551
v -5.864358 -0.00452137 -8.083068
v -4.7860403 -0.00452137 -7.711844
v -7.0664177 -0.00452137 -7.057782
v -8.074026 -0.00452137 -5.8733997
v -4.7860403 -0.00452137 -3.0096698
v -8.904861 -0.00452137 -4.5299215
v -6.270937 -0.00452137 -3.4692807
v -5.4224243 -0.00452137 -3.0096698
v -9.505892 -0.00452137 -3.080379
v -7.5613832 -0.00452137 -3.4692807
v -9.753374 -0.00452137 -2.0197387
vt 0.22838193 0.9175878
vt 0.20706628 0.9033774
vt 0.2603554 0.8856144
vt 0.14667195 0.8536409
vt 0.09693544 0.79324657
vt 0.2603554 0.65114224
vt 0.05430415 0.725747
vt 0.18575063 0.6724579
vt 0.22838193 0.65114224
vt 0.025883285 0.65469486
vt 0.12180369 0.6724579
vt 0.011672854 0.60140574
vn -0 1 -0
vn -0 1 -0
vn -0 1 -0
vn -0 1 -0
vn -0 1 -0
vn -0 1 -0
vn -0 1 -0
vn -0 1 -0
vn -0 1 -0
vn -0 1 -0
vn -0 1 -0
vn -0 1 -0
g phase4_conflict1_base_0
f 2/2/2 3/3/3 1/1/1
f 2/2/2 4/4/4 3/3/3
f 4/4/4 5/5/5 3/3/3
f 5/5/5 6/6/6 3/3/3
f 6/6/6 5/5/5 7/7/7
f 7/7/7 8/8/8 6/6/6
f 8/8/8 9/9/9 6/6/6
f 7/7/7 10/10/10 8/8/8
f 10/10/10 11/11/11 8/8/8
f 10/10/10 12/12/12 11/11/11
