g phase4_conflict2_base
v -4.7851887 -0.004032135 -2.720499
v -5.4289017 -0.004032135 -2.720499
v -4.7851887 -0.004032135 0.034590483
v -6.265728 -0.004032135 -3.1839721
v -7.5660267 -0.004032135 -3.1839721
v -9.831895 -0.004032135 -1.6776848
v -9.986386 -0.004032135 -0.004032135
v -9.857644 -0.004032135 1.5666263
v -9.780398 -0.004032135 1.9271052
v -8.261236 -0.004032135 1.9271052
v -7.488782 -0.004032135 2.7124345
v -4.7851887 -0.004032135 2.7124345
vt 0.26129252 0.63641524
vt 0.2276608 0.63641524
vt 0.26129252 0.4993014
vt 0.18626796 0.6596987
vt 0.12159163 0.6596987
vt 0.007761279 0.5846742
vt 1.1920929E-07 0.4993014
vt 0.0051742257 0.4216898
vt 0.010348332 0.40358043
vt 0.08795993 0.40358043
vt 0.12417868 0.36477464
vt 0.26129252 0.36477464
vn -0 1 -0
vn -0 1 -0
vn -0 1 -0
vn -0 1 -0
vn -0 1 -0
vn -0 1 -0
vn -0 1 -0
vn -0 1 -0
vn -0 1 -0
vn -0 1 -0
vn -0 1 -0
vn -0 1 -0
g phase4_conflict2_base_0
f 2/2/2 3/3/3 1/1/1
f 2/2/2 4/4/4 3/3/3
f 4/4/4 5/5/5 3/3/3
f 5/5/5 6/6/6 3/3/3
f 6/6/6 7/7/7 3/3/3
f 7/7/7 8/8/8 3/3/3
f 8/8/8 9/9/9 3/3/3
f 9/9/9 10/10/10 3/3/3
f 10/10/10 11/11/11 3/3/3
f 11/11/11 12/12/12 3/3/3
