g phase1_conflict2_border
v 1.1812556 -0.0045962334 -4.04017
v 0.32633877 -0.0045962334 -4.527381
v -0.95143986 -0.0045962334 -4.527381
v -1.7603931 -0.0045962334 -4.141289
v 2.6153092 -0.0045962334 -2.8175476
v 2.7440062 -0.0045962334 -4.04017
v 2.256796 -0.0045962334 -1.3283379
v 1.6684661 -0.0045962334 0.096523285
v -1.7603931 -0.0045962334 1.2088337
v 0.8687053 -0.0045962334 1.4110723
v -0.13329363 -0.0045962334 2.578539
v -1.3007603 -0.0045962334 3.5713458
v -2.6153097 -0.0045962334 4.380299
v -2.7440066 -0.0045962334 2.8083553
v -2.7440066 -0.0045962334 4.435455
v 0.37230206 -0.0045962334 -4.702041
v 1.2272189 -0.0045962334 -4.2148304
v -0.9882102 -0.0045962334 -4.702041
v -1.9350533 -0.0045962334 -4.251601
v 2.909474 -0.0045962334 -4.2148304
v 2.7991624 -0.0045962334 -2.7899694
v 2.431456 -0.0045962334 -1.2639894
v 1.8339338 -0.0045962334 0.17925692
v -1.9350533 -0.0045962334 1.1628709
v 1.0157878 -0.0045962334 1.5121913
v -0.00459671 -0.0045962334 2.7072363
v -1.1904488 -0.0045962334 3.7276206
v -2.5325756 -0.0045962334 4.5457664
v -2.9094744 -0.0045962334 2.7531996
v -2.9094744 -0.0045962334 4.702041
vt 0.9139853 0.4839116
vt 0.869108 0.51009
vt 0.8055319 0.51009
vt 0.76439446 0.48765138
vt 0.98504096 0.42407525
vt 0.9925205 0.4839116
vt 0.9663421 0.34927982
vt 0.93642396 0.27822417
vt 0.76439446 0.2221276
vt 0.8990262 0.2109083
vt 0.84666944 0.15107194
vt 0.7905728 0.102454916
vt 0.72325695 0.061317433
vt 0.7157774 0.13985263
vt 0.7157774 0.061317433
vt 0.8728478 0.51756954
vt 0.9139853 0.4951309
vt 0.8055319 0.51756954
vt 0.7569149 0.4951309
vt 1 0.4951309
vt 0.9925205 0.42033547
vt 0.9775614 0.34554005
vt 0.9476432 0.2744844
vt 0.7569149 0.2221276
vt 0.90650576 0.20716852
vt 0.854149 0.14733218
vt 0.7943126 0.094975375
vt 0.7269967 0.053837888
vt 0.70829785 0.1435924
vt 0.70829785 0.046358347
vn -0 1 -0
vn -0 1 -0
vn -0 1 -0
vn -0 1 -0
vn -0 1 -0
vn -0 1 -0
vn -0 1 -0
vn -0 1 -0
vn -0 1 -0
vn -0 1 -0
vn -0 1 -0
vn -0 1 -0
vn -0 1 -0
vn -0 1 -0
vn -0 1 -0
vn -0 1 -0
vn -0 1 -0
vn -0 1 -0
vn -0 1 -0
vn -0 1 -0
vn -0 1 -0
vn -0 1 -0
vn -0 1 -0
vn -0 1 -0
vn -0 1 -0
vn -0 1 -0
vn -0 1 -0
vn -0 1 -0
vn -0 1 -0
vn -0 1 -0
g phase1_conflict2_border_0
f 15/15/15 30/30/30 28/28/28
f 13/13/13 15/15/15 28/28/28
f 15/15/15 14/14/14 30/30/30
f 13/13/13 28/28/28 27/27/27
f 14/14/14 29/29/29 30/30/30
f 12/12/12 13/13/13 27/27/27
f 14/14/14 9/9/9 29/29/29
f 12/12/12 27/27/27 26/26/26
f 9/9/9 24/24/24 29/29/29
f 11/11/11 12/12/12 26/26/26
f 9/9/9 4/4/4 24/24/24
f 11/11/11 26/26/26 25/25/25
f 4/4/4 19/19/19 24/24/24
f 10/10/10 11/11/11 25/25/25
f 4/4/4 3/3/3 19/19/19
f 10/10/10 25/25/25 23/23/23
f 3/3/3 18/18/18 19/19/19
f 8/8/8 10/10/10 23/23/23
f 3/3/3 2/2/2 18/18/18
f 8/8/8 23/23/23 22/22/22
f 2/2/2 16/16/16 18/18/18
f 7/7/7 8/8/8 22/22/22
f 2/2/2 1/1/1 16/16/16
f 7/7/7 22/22/22 21/21/21
f 1/1/1 17/17/17 16/16/16
f 5/5/5 7/7/7 21/21/21
f 1/1/1 6/6/6 17/17/17
f 5/5/5 21/21/21 20/20/20
f 6/6/6 20/20/20 17/17/17
f 6/6/6 5/5/5 20/20/20
