g phase3_conflict1_wall
v -0.01556097 4.7177076E-05 -0.09870409
v -0.01556097 0.015859313 -0.09870409
v -0.0015388876 0.015859313 -0.09974829
v -0.0015388876 4.7177076E-05 -0.09974829
v -0.0015388876 4.7177076E-05 -0.09974829
v -0.0015388876 0.015859313 -0.09974829
v -0.0015388876 0.015859313 -0.034709692
v -0.0015388876 4.7177076E-05 -0.034709692
v -0.030925594 4.7177076E-05 -0.094974816
v -0.030925594 0.015859313 -0.094974816
v -0.01556097 0.015859313 -0.09870409
v -0.01556097 4.7177076E-05 -0.09870409
v -0.0015388876 4.7177076E-05 -0.034709692
v -0.0015388876 0.015859313 -0.034709692
v -0.01556097 0.015859313 -0.034709692
v -0.01556097 4.7177076E-05 -0.034709692
v -0.045395188 4.7177076E-05 -0.08900797
v -0.045395188 0.015859313 -0.08900797
v -0.030925594 0.015859313 -0.094974816
v -0.030925594 4.7177076E-05 -0.094974816
v -0.01556097 4.7177076E-05 -0.034709692
v -0.01556097 0.015859313 -0.034709692
v -0.021975324 0.015859313 -0.040527366
v -0.021975324 4.7177076E-05 -0.040527366
v -0.05285374 4.7177076E-05 -0.08438367
v -0.05285374 0.015859313 -0.08438367
v -0.045395188 0.015859313 -0.08900797
v -0.045395188 4.7177076E-05 -0.08900797
v -0.044947676 4.7177076E-05 -0.07707428
v -0.044947676 0.015859313 -0.07707428
v -0.05285374 0.015859313 -0.08438367
v -0.05285374 4.7177076E-05 -0.08438367
v -0.021975324 4.7177076E-05 -0.040527366
v -0.021975324 0.015859313 -0.040527366
v -0.035848238 0.015859313 -0.040527366
v -0.035848238 4.7177076E-05 -0.040527366
v -0.044947676 4.7177076E-05 -0.031427927
v -0.044947676 0.015859313 -0.031427927
v -0.044947676 0.015859313 -0.07707428
v -0.044947676 4.7177076E-05 -0.07707428
v -0.035848238 4.7177076E-05 -0.040527366
v -0.035848238 0.015859313 -0.040527366
v -0.044947676 0.015859313 -0.031427927
v -0.044947676 4.7177076E-05 -0.031427927
vt 0 0
vt 0 1
vt 1 1
vt 1 0
vt 0 0
vt 0 1
vt 1 1
vt 1 0
vt 0 0
vt 0 1
vt 1 1
vt 1 0
vt 0 0
vt 0 1
vt 1 1
vt 1 0
vt 0 0
vt 0 1
vt 1 1
vt 1 0
vt 0 0
vt 0 1
vt 1 1
vt 1 0
vt 0 0
vt 0 1
vt 1 1
vt 1 0
vt 0 0
vt 0 1
vt 1 1
vt 1 0
vt 0 0
vt 0 1
vt 1 1
vt 1 0
vt 0 0
vt 0 1
vt 1 1
vt 1 0
vt 0 0
vt 0 1
vt 1 1
vt 1 0
vn 0.07935506 0.015871048 0.9967201
vn 0.07935506 0.015871048 0.9967201
vn 0.07935506 0.015871048 0.9967201
vn 0.07935506 0.015871048 0.9967201
vn -0.999874 0.015871048 -0.00034391563
vn -0.999874 0.015871048 -0.00034391563
vn -0.999874 0.015871048 -0.00034391563
vn -0.999874 0.015871048 -0.00034391563
vn 0.23806524 0.015871048 0.97111946
vn 0.23806524 0.015871048 0.97111946
vn 0.23806524 0.015871048 0.97111946
vn 0.23806524 0.015871048 0.97111946
vn -0.015871048 0.015871048 -0.99974805
vn -0.015871048 0.015871048 -0.99974805
vn -0.015871048 0.015871048 -0.99974805
vn -0.015871048 0.015871048 -0.99974805
vn 0.39677536 0.015871048 0.9177785
vn 0.39677536 0.015871048 0.9177785
vn 0.39677536 0.015871048 0.9177785
vn 0.39677536 0.015871048 0.9177785
vn 0.68245363 0.015871048 -0.7307566
vn 0.68245363 0.015871048 -0.7307566
vn 0.68245363 0.015871048 -0.7307566
vn 0.68245363 0.015871048 -0.7307566
vn 0.5237435 0.015871048 0.85172814
vn 0.5237435 0.015871048 0.85172814
vn 0.5237435 0.015871048 0.85172814
vn 0.5237435 0.015871048 0.85172814
vn 0.68245363 0.015871048 -0.7307566
vn 0.68245363 0.015871048 -0.7307566
vn 0.68245363 0.015871048 -0.7307566
vn 0.68245363 0.015871048 -0.7307566
vn -0.015871048 0.015871048 -0.99974805
vn -0.015871048 0.015871048 -0.99974805
vn -0.015871048 0.015871048 -0.99974805
vn -0.015871048 0.015871048 -0.99974805
vn 0.999874 0.015871048 -0.00034391563
vn 0.999874 0.015871048 -0.00034391563
vn 0.999874 0.015871048 -0.00034391563
vn 0.999874 0.015871048 -0.00034391563
vn -0.7141957 0.015871048 -0.6997661
vn -0.7141957 0.015871048 -0.6997661
vn -0.7141957 0.015871048 -0.6997661
vn -0.7141957 0.015871048 -0.6997661
g phase3_conflict1_wall_0
f 3/3/3 2/2/2 1/1/1
f 4/4/4 3/3/3 1/1/1
f 7/7/7 6/6/6 5/5/5
f 8/8/8 7/7/7 5/5/5
f 11/11/11 10/10/10 9/9/9
f 12/12/12 11/11/11 9/9/9
f 15/15/15 14/14/14 13/13/13
f 16/16/16 15/15/15 13/13/13
f 19/19/19 18/18/18 17/17/17
f 20/20/20 19/19/19 17/17/17
f 23/23/23 22/22/22 21/21/21
f 24/24/24 23/23/23 21/21/21
f 27/27/27 26/26/26 25/25/25
f 28/28/28 27/27/27 25/25/25
f 31/31/31 30/30/30 29/29/29
f 32/32/32 31/31/31 29/29/29
f 35/35/35 34/34/34 33/33/33
f 36/36/36 35/35/35 33/33/33
f 39/39/39 38/38/38 37/37/37
f 40/40/40 39/39/39 37/37/37
f 43/43/43 42/42/42 41/41/41
f 44/44/44 43/43/43 41/41/41
