g phase4_conflict3_base
v -9.705406 0 2.2200048
v -9.496688 0 3.0833402
v -8.253864 0 2.2200048
v -8.8989935 0 4.5348816
v -7.485401 0 2.9979553
v -8.083095 0 5.872577
v -4.791036 0 2.9979553
v -7.058477 0 7.058477
v -4.791036 0 5.3887296
v -5.872577 0 8.083095
v -3.9941113 0 6.764374
v -4.5348816 0 8.8989935
v -3.9941113 0 9.1172
vt 0.014075875 0.38888857
vt 0.024364851 0.34479293
vt 0.0860987 0.38888857
vt 0.055231776 0.2727701
vt 0.12578475 0.3492025
vt 0.09491783 0.2066267
vt 0.2610113 0.3492025
vt 0.1463627 0.1463627
vt 0.2610113 0.23014437
vt 0.2066267 0.09491783
vt 0.30069733 0.16106124
vt 0.2727701 0.053761926
vt 0.30069733 0.043472946
vn -0 1 -0
vn -0 1 -0
vn -0 1 -0
vn -0 1 -0
vn -0 1 -0
vn -0 1 -0
vn -0 1 -0
vn -0 1 -0
vn -0 1 -0
vn -0 1 -0
vn -0 1 -0
vn -0 1 -0
vn -0 1 -0
g phase4_conflict3_base_0
f 2/2/2 3/3/3 1/1/1
f 2/2/2 4/4/4 3/3/3
f 4/4/4 5/5/5 3/3/3
f 4/4/4 6/6/6 5/5/5
f 6/6/6 7/7/7 5/5/5
f 6/6/6 8/8/8 7/7/7
f 8/8/8 9/9/9 7/7/7
f 8/8/8 10/10/10 9/9/9
f 10/10/10 11/11/11 9/9/9
f 12/12/12 11/11/11 10/10/10
f 12/12/12 13/13/13 11/11/11
