g phase1_conflict2_wall
v -0.074325934 -4.7907466E-05 -0.003478994
v -0.08290365 -4.7907466E-05 0.001364893
v -0.08290365 0.015795639 0.001364893
v -0.074325934 0.015795639 -0.003478994
v -0.060702506 -4.7907466E-05 -0.003478994
v -0.074325934 -4.7907466E-05 -0.003478994
v -0.074325934 0.015795639 -0.003478994
v -0.060702506 0.015795639 -0.003478994
v -0.051317476 -4.7907466E-05 0.0009612355
v -0.060702506 -4.7907466E-05 -0.003478994
v -0.060702506 0.015795639 -0.003478994
v -0.051317476 0.015795639 0.0009612355
v -0.099756345 -4.7907466E-05 0.001364893
v -0.09864628 -4.7907466E-05 0.015593811
v -0.09864628 0.015795639 0.015593811
v -0.099756345 0.015795639 0.001364893
v -0.08290365 -4.7907466E-05 0.001364893
v -0.099756345 -4.7907466E-05 0.001364893
v -0.099756345 0.015795639 0.001364893
v -0.08290365 0.015795639 0.001364893
v -0.09864628 -4.7907466E-05 0.015593811
v -0.09501337 -4.7907466E-05 0.030831872
v -0.09501337 0.015795639 0.030831872
v -0.09864628 0.015795639 0.015593811
v -0.09501337 -4.7907466E-05 0.030831872
v -0.08895851 -4.7907466E-05 0.045363534
v -0.08895851 0.015795639 0.045363534
v -0.09501337 0.015795639 0.030831872
v -0.051317476 -4.7907466E-05 0.055152223
v -0.051317476 -4.7907466E-05 0.0009612355
v -0.051317476 0.015795639 0.0009612355
v -0.051317476 0.015795639 0.055152223
v -0.08895851 -4.7907466E-05 0.045363534
v -0.080784455 -4.7907466E-05 0.058684222
v -0.080784455 0.015795639 0.058684222
v -0.08895851 0.015795639 0.045363534
v -0.080784455 -4.7907466E-05 0.058684222
v -0.070592105 -4.7907466E-05 0.070592105
v -0.070592105 0.015795639 0.070592105
v -0.080784455 0.015795639 0.058684222
v -0.070592105 -4.7907466E-05 0.070592105
v -0.058684222 -4.7907466E-05 0.080784455
v -0.058684222 0.015795639 0.080784455
v -0.070592105 0.015795639 0.070592105
v -0.058684222 -4.7907466E-05 0.080784455
v -0.045363534 -4.7907466E-05 0.08895851
v -0.045363534 0.015795639 0.08895851
v -0.058684222 0.015795639 0.080784455
v -0.041528787 -4.7907466E-05 0.07109668
v -0.051317476 -4.7907466E-05 0.055152223
v -0.051317476 0.015795639 0.055152223
v -0.041528787 0.015795639 0.07109668
v -0.045363534 -4.7907466E-05 0.08895851
v -0.041528787 -4.7907466E-05 0.09057314
v -0.041528787 0.015795639 0.09057314
v -0.045363534 0.015795639 0.08895851
v -0.041528787 -4.7907466E-05 0.09057314
v -0.041528787 -4.7907466E-05 0.07109668
v -0.041528787 0.015795639 0.07109668
v -0.041528787 0.015795639 0.09057314
vt 0 0
vt 1 0
vt 1 1
vt 0 1
vt 0 0
vt 1 0
vt 1 1
vt 0 1
vt 0 0
vt 1 0
vt 1 1
vt 0 1
vt 0 0
vt 1 0
vt 1 1
vt 0 1
vt 0 0
vt 1 0
vt 1 1
vt 0 1
vt 0 0
vt 1 0
vt 1 1
vt 0 1
vt 0 0
vt 1 0
vt 1 1
vt 0 1
vt 0 0
vt 1 0
vt 1 1
vt 0 1
vt 0 0
vt 1 0
vt 1 1
vt 0 1
vt 0 0
vt 1 0
vt 1 1
vt 0 1
vt 0 0
vt 1 0
vt 1 1
vt 0 1
vt 0 0
vt 1 0
vt 1 1
vt 0 1
vt 0 0
vt 1 0
vt 1 1
vt 0 1
vt 0 0
vt 1 0
vt 1 1
vt 0 1
vt 0 0
vt 1 0
vt 1 1
vt 0 1
vn 0.20453048 -0.014357567 0.97875494
vn 0.17283499 -0.014357567 0.9848462
vn 0.17283499 -0.014357567 0.9848462
vn 0.20453048 -0.014357567 0.97875494
vn -0.17581522 -0.014357567 0.9843185
vn 0.20453048 -0.014357567 0.97875494
vn 0.20453048 -0.014357567 0.97875494
vn -0.17581522 -0.014357567 0.9843185
vn -0.4293791 -0.014357567 0.90301025
vn -0.17581522 -0.014357567 0.9843185
vn -0.17581522 -0.014357567 0.9843185
vn -0.4293791 -0.014357567 0.90301025
vn 0.99691737 -0.014357567 -0.07713397
vn 0.99691737 -0.014357567 -0.07713397
vn 0.99691737 -0.014357567 -0.07713397
vn 0.99691737 -0.014357567 -0.07713397
vn 0.17283499 -0.014357567 0.9848462
vn 0.014357567 -0.014357567 0.9997939
vn 0.014357567 -0.014357567 0.9997939
vn 0.17283499 -0.014357567 0.9848462
vn 0.99691737 -0.014357567 -0.07713397
vn 0.9652219 -0.014357567 -0.26103753
vn 0.9652219 -0.014357567 -0.26103753
vn 0.99691737 -0.014357567 -0.07713397
vn 0.9652219 -0.014357567 -0.26103753
vn 0.9018309 -0.014357567 -0.4318505
vn 0.9018309 -0.014357567 -0.4318505
vn 0.9652219 -0.014357567 -0.26103753
vn -0.999897 -0.014357558 -0
vn -0.999897 -0.014357558 -0
vn -0.999897 -0.014357558 -0
vn -0.999897 -0.014357558 -0
vn 0.9018309 -0.014357567 -0.4318505
vn 0.8067445 -0.014357567 -0.59072596
vn 0.8067445 -0.014357567 -0.59072596
vn 0.9018309 -0.014357567 -0.4318505
vn 0.8067445 -0.014357567 -0.59072596
vn 0.7116581 -0.014357567 -0.7023792
vn 0.7116581 -0.014357567 -0.7023792
vn 0.8067445 -0.014357567 -0.59072596
vn 0.7116581 -0.014357567 -0.7023792
vn 0.5848762 -0.014357567 -0.8109955
vn 0.5848762 -0.014357567 -0.8109955
vn 0.7116581 -0.014357567 -0.7023792
vn 0.5848762 -0.014357567 -0.8109955
vn 0.48978972 -0.014357567 -0.8717224
vn 0.48978972 -0.014357567 -0.8717224
vn 0.5848762 -0.014357567 -0.8109955
vn -0.8414203 -0.014357567 0.5401905
vn -0.8414203 -0.014357567 0.5401905
vn -0.8414203 -0.014357567 0.5401905
vn -0.8414203 -0.014357567 0.5401905
vn 0.48978972 -0.014357567 -0.8717224
vn 0.39470333 -0.014357567 -0.91869646
vn 0.39470333 -0.014357567 -0.91869646
vn 0.48978972 -0.014357567 -0.8717224
vn -0.999897 -0.014357558 -0
vn -0.999897 -0.014357558 -0
vn -0.999897 -0.014357558 -0
vn -0.999897 -0.014357558 -0
g phase1_conflict2_wall_0
f 3/3/3 2/2/2 1/1/1
f 4/4/4 3/3/3 1/1/1
f 7/7/7 6/6/6 5/5/5
f 8/8/8 7/7/7 5/5/5
f 11/11/11 10/10/10 9/9/9
f 12/12/12 11/11/11 9/9/9
f 15/15/15 14/14/14 13/13/13
f 16/16/16 15/15/15 13/13/13
f 19/19/19 18/18/18 17/17/17
f 20/20/20 19/19/19 17/17/17
f 23/23/23 22/22/22 21/21/21
f 24/24/24 23/23/23 21/21/21
f 27/27/27 26/26/26 25/25/25
f 28/28/28 27/27/27 25/25/25
f 31/31/31 30/30/30 29/29/29
f 32/32/32 31/31/31 29/29/29
f 35/35/35 34/34/34 33/33/33
f 36/36/36 35/35/35 33/33/33
f 39/39/39 38/38/38 37/37/37
f 40/40/40 39/39/39 37/37/37
f 43/43/43 42/42/42 41/41/41
f 44/44/44 43/43/43 41/41/41
f 47/47/47 46/46/46 45/45/45
f 48/48/48 47/47/47 45/45/45
f 51/51/51 50/50/50 49/49/49
f 52/52/52 51/51/51 49/49/49
f 55/55/55 54/54/54 53/53/53
f 56/56/56 55/55/55 53/53/53
f 59/59/59 58/58/58 57/57/57
f 60/60/60 59/59/59 57/57/57
