g phase4_conflict1_wall
v -0.05864358 -4.5210123E-05 -0.08083068
v -0.05864358 0.015864402 -0.08083068
v -0.054577783 0.015864402 -0.08330551
v -0.054577783 -4.5210123E-05 -0.08330551
v -0.054577783 -4.5210123E-05 -0.08330551
v -0.054577783 0.015864402 -0.08330551
v -0.0478604 0.015864402 -0.077118434
v -0.0478604 -4.5210123E-05 -0.077118434
v -0.07066417 -4.5210123E-05 -0.070577815
v -0.07066417 0.015864402 -0.070577815
v -0.05864358 0.015864402 -0.08083068
v -0.05864358 -4.5210123E-05 -0.08083068
v -0.08074026 -4.5210123E-05 -0.058734
v -0.08074026 0.015864402 -0.058734
v -0.07066417 0.015864402 -0.070577815
v -0.07066417 -4.5210123E-05 -0.070577815
v -0.0478604 -4.5210123E-05 -0.077118434
v -0.0478604 0.015864402 -0.077118434
v -0.0478604 0.015864402 -0.030096699
v -0.0478604 -4.5210123E-05 -0.030096699
v -0.08904861 -4.5210123E-05 -0.045299217
v -0.08904861 0.015864402 -0.045299217
v -0.08074026 0.015864402 -0.058734
v -0.08074026 -4.5210123E-05 -0.058734
v -0.054224238 -4.5210123E-05 -0.030096699
v -0.054224238 0.015864402 -0.030096699
v -0.06270936 0.015864402 -0.03469281
v -0.06270936 -4.5210123E-05 -0.03469281
v -0.0478604 -4.5210123E-05 -0.030096699
v -0.0478604 0.015864402 -0.030096699
v -0.054224238 0.015864402 -0.030096699
v -0.054224238 -4.5210123E-05 -0.030096699
v -0.0950589 -4.5210123E-05 -0.030803792
v -0.0950589 0.015864402 -0.030803792
v -0.08904861 0.015864402 -0.045299217
v -0.08904861 -4.5210123E-05 -0.045299217
v -0.06270936 -4.5210123E-05 -0.03469281
v -0.06270936 0.015864402 -0.03469281
v -0.07561383 0.015864402 -0.03469281
v -0.07561383 -4.5210123E-05 -0.03469281
v -0.09753373 -4.5210123E-05 -0.020197384
v -0.09753373 0.015864402 -0.020197384
v -0.0950589 0.015864402 -0.030803792
v -0.0950589 -4.5210123E-05 -0.030803792
v -0.07561383 -4.5210123E-05 -0.03469281
v -0.07561383 0.015864402 -0.03469281
v -0.09753373 0.015864402 -0.020197384
v -0.09753373 -4.5210123E-05 -0.020197384
vt 0 0
vt 0 1
vt 1 1
vt 1 0
vt 0 0
vt 0 1
vt 1 1
vt 1 0
vt 0 0
vt 0 1
vt 1 1
vt 1 0
vt 0 0
vt 0 1
vt 1 1
vt 1 0
vt 0 0
vt 0 1
vt 1 1
vt 1 0
vt 0 0
vt 0 1
vt 1 1
vt 1 0
vt 0 0
vt 0 1
vt 1 1
vt 1 0
vt 0 0
vt 0 1
vt 1 1
vt 1 0
vt 0 0
vt 0 1
vt 1 1
vt 1 0
vt 0 0
vt 0 1
vt 1 1
vt 1 0
vt 0 0
vt 0 1
vt 1 1
vt 1 0
vt 0 0
vt 0 1
vt 1 1
vt 1 0
vn 0.5340659 -0.0018395782 0.84544086
vn 0.5340659 -0.0018395782 0.84544086
vn 0.5340659 -0.0018395782 0.84544086
vn 0.5340659 -0.0018395782 0.84544086
vn -0.68692386 -0.0018395782 0.72672707
vn -0.68692386 -0.0018395782 0.72672707
vn -0.68692386 -0.0018395782 0.72672707
vn -0.68692386 -0.0018395782 0.72672707
vn 0.6592956 -0.0018395782 0.7518816
vn 0.6592956 -0.0018395782 0.7518816
vn 0.6592956 -0.0018395782 0.7518816
vn 0.6592956 -0.0018395782 0.7518816
vn 0.75321794 -0.0018395782 0.6577684
vn 0.75321794 -0.0018395782 0.6577684
vn 0.75321794 -0.0018395782 0.6577684
vn 0.75321794 -0.0018395782 0.6577684
vn -0.9999982 -0.0018395782 -0.00043844132
vn -0.9999982 -0.0018395782 -0.00043844132
vn -0.9999982 -0.0018395782 -0.00043844132
vn -0.9999982 -0.0018395782 -0.00043844132
vn 0.8471402 -0.0018395782 0.5313663
vn 0.8471402 -0.0018395782 0.5313663
vn 0.8471402 -0.0018395782 0.5313663
vn 0.8471402 -0.0018395782 0.5313663
vn 0.50275844 -0.0018395782 -0.864425
vn 0.50275844 -0.0018395782 -0.864425
vn 0.50275844 -0.0018395782 -0.864425
vn 0.50275844 -0.0018395782 -0.864425
vn 0.0018395782 -0.0018395782 -0.9999966
vn 0.0018395782 -0.0018395782 -0.9999966
vn 0.0018395782 -0.0018395782 -0.9999966
vn 0.0018395782 -0.0018395782 -0.9999966
vn 0.90975505 -0.0018395782 0.4151414
vn 0.90975505 -0.0018395782 0.4151414
vn 0.90975505 -0.0018395782 0.4151414
vn 0.90975505 -0.0018395782 0.4151414
vn 0.0018395782 -0.0018395782 -0.9999966
vn 0.0018395782 -0.0018395782 -0.9999966
vn 0.0018395782 -0.0018395782 -0.9999966
vn 0.0018395782 -0.0018395782 -0.9999966
vn 0.9723699 -0.0018395782 0.23343818
vn 0.9723699 -0.0018395782 0.23343818
vn 0.9723699 -0.0018395782 0.23343818
vn 0.9723699 -0.0018395782 0.23343818
vn -0.56169415 -0.0018395782 -0.8273429
vn -0.56169415 -0.0018395782 -0.8273429
vn -0.56169415 -0.0018395782 -0.8273429
vn -0.56169415 -0.0018395782 -0.8273429
g phase4_conflict1_wall_0
f 3/3/3 2/2/2 1/1/1
f 4/4/4 3/3/3 1/1/1
f 7/7/7 6/6/6 5/5/5
f 8/8/8 7/7/7 5/5/5
f 11/11/11 10/10/10 9/9/9
f 12/12/12 11/11/11 9/9/9
f 15/15/15 14/14/14 13/13/13
f 16/16/16 15/15/15 13/13/13
f 19/19/19 18/18/18 17/17/17
f 20/20/20 19/19/19 17/17/17
f 23/23/23 22/22/22 21/21/21
f 24/24/24 23/23/23 21/21/21
f 27/27/27 26/26/26 25/25/25
f 28/28/28 27/27/27 25/25/25
f 31/31/31 30/30/30 29/29/29
f 32/32/32 31/31/31 29/29/29
f 35/35/35 34/34/34 33/33/33
f 36/36/36 35/35/35 33/33/33
f 39/39/39 38/38/38 37/37/37
f 40/40/40 39/39/39 37/37/37
f 43/43/43 42/42/42 41/41/41
f 44/44/44 43/43/43 41/41/41
f 47/47/47 46/46/46 45/45/45
f 48/48/48 47/47/47 45/45/45
