g phase3_conflict1_border
v -0.2583084 0.004717827 -9.855493
v -1.5411797 0.004717827 -9.7361555
v -0.2583084 0.004717827 -3.5903063
v -3.0478086 0.004717827 -9.378145
v -1.5113459 0.004717827 -3.5903063
v -4.479851 0.004717827 -8.781461
v -2.1527815 0.004717827 -4.1720734
v -5.0914526 0.004717827 -8.42345
v -4.3903484 0.004717827 -7.75218
v -3.6295757 0.004717827 -4.1720734
v -4.3903484 0.004717827 -3.4113007
v -1.556097 0.004717827 -9.87041
v -0.1538887 0.004717827 -9.97483
v -0.1538887 0.004717827 -3.4709692
v -3.0925598 0.004717827 -9.497482
v -1.556097 0.004717827 -3.4709692
v -4.5395193 0.004717827 -8.900798
v -2.1975327 0.004717827 -4.0527368
v -5.2853746 0.004717827 -8.438367
v -4.494768 0.004717827 -7.707429
v -3.5848246 0.004717827 -4.0527368
v -4.494768 0.004717827 -3.1427927
vt 0.4873276 0.993985
vt 0.42437017 0.987989
vt 0.4873276 0.67919785
vt 0.34642288 0.9700012
vt 0.42437017 0.67919785
vt 0.27746952 0.94002146
vt 0.39139247 0.7091776
vt 0.24449182 0.9220336
vt 0.28046748 0.8890559
vt 0.31944114 0.7091776
vt 0.28046748 0.6702039
vt 0.42137218 0.993985
vt 0.49332353 0.9999809
vt 0.49332353 0.6732019
vt 0.34642288 0.97599715
vt 0.42137218 0.6732019
vt 0.27447152 0.9460174
vt 0.39139247 0.7031816
vt 0.23549789 0.9220336
vt 0.27447152 0.886058
vt 0.31944114 0.7031816
vt 0.27447152 0.65821207
vn -0 1 -0
vn -0 1 -0
vn -0 1 -0
vn -0 1 -0
vn -0 1 -0
vn -0 1 -0
vn -0 1 -0
vn -0 1 -0
vn -0 1 -0
vn -0 1 -0
vn -0 1 -0
vn -0 1 -0
vn -0 1 -0
vn -0 1 -0
vn -0 1 -0
vn -0 1 -0
vn -0 1 -0
vn -0 1 -0
vn -0 1 -0
vn -0 1 -0
vn -0 1 -0
vn -0 1 -0
g phase3_conflict1_border_0
f 9/9/9 20/20/20 22/22/22
f 11/11/11 9/9/9 22/22/22
f 9/9/9 8/8/8 20/20/20
f 11/11/11 22/22/22 21/21/21
f 8/8/8 19/19/19 20/20/20
f 10/10/10 11/11/11 21/21/21
f 8/8/8 6/6/6 19/19/19
f 10/10/10 21/21/21 18/18/18
f 6/6/6 17/17/17 19/19/19
f 7/7/7 10/10/10 18/18/18
f 6/6/6 4/4/4 17/17/17
f 7/7/7 18/18/18 16/16/16
f 4/4/4 15/15/15 17/17/17
f 5/5/5 7/7/7 16/16/16
f 4/4/4 2/2/2 15/15/15
f 5/5/5 16/16/16 14/14/14
f 2/2/2 12/12/12 15/15/15
f 3/3/3 5/5/5 14/14/14
f 2/2/2 1/1/1 12/12/12
f 3/3/3 14/14/14 13/13/13
f 1/1/1 13/13/13 12/12/12
f 1/1/1 3/3/3 13/13/13
