g phase4_conflict3_wall
v 0.09502982 -7.481873E-05 0.030840762
v 0.09705406 -7.481873E-05 0.022191763
v 0.09705406 0.015751012 0.022191763
v 0.09502982 0.015751012 0.030840762
v 0.09705406 -7.481873E-05 0.022191763
v 0.08251637 -7.481873E-05 0.022191763
v 0.08251637 0.015751012 0.022191763
v 0.09705406 0.015751012 0.022191763
v 0.088957116 -7.481873E-05 0.045378454
v 0.09502982 -7.481873E-05 0.030840762
v 0.09502982 0.015751012 0.030840762
v 0.088957116 0.015751012 0.045378454
v 0.08251637 -7.481873E-05 0.022191763
v 0.0749715 -7.481873E-05 0.02992066
v 0.0749715 0.015751012 0.02992066
v 0.08251637 0.015751012 0.022191763
v 0.08086018 -7.481873E-05 0.058627985
v 0.088957116 -7.481873E-05 0.045378454
v 0.088957116 0.015751012 0.045378454
v 0.08086018 0.015751012 0.058627985
v 0.0749715 -7.481873E-05 0.02992066
v 0.047920365 -7.481873E-05 0.02992066
v 0.047920365 0.015751012 0.02992066
v 0.0749715 0.015751012 0.02992066
v 0.07055499 -7.481873E-05 0.07058937
v 0.08086018 -7.481873E-05 0.058627985
v 0.08086018 0.015751012 0.058627985
v 0.07055499 0.015751012 0.07058937
v 0.047920365 -7.481873E-05 0.02992066
v 0.047920365 -7.481873E-05 0.05384343
v 0.047920365 0.015751012 0.05384343
v 0.047920365 0.015751012 0.02992066
v 0.058777623 -7.481873E-05 0.08071054
v 0.07055499 -7.481873E-05 0.07058937
v 0.07055499 0.015751012 0.07058937
v 0.058777623 0.015751012 0.08071054
v 0.047920365 -7.481873E-05 0.05384343
v 0.040007446 -7.481873E-05 0.067645036
v 0.040007446 0.015751012 0.067645036
v 0.047920365 0.015751012 0.05384343
v 0.045344066 -7.481873E-05 0.0889915
v 0.058777623 -7.481873E-05 0.08071054
v 0.058777623 0.015751012 0.08071054
v 0.045344066 0.015751012 0.0889915
v 0.040007446 -7.481873E-05 0.09119976
v 0.045344066 -7.481873E-05 0.0889915
v 0.045344066 0.015751012 0.0889915
v 0.040007446 0.015751012 0.09119976
v 0.040007446 -7.481873E-05 0.067645036
v 0.040007446 -7.481873E-05 0.09119976
v 0.040007446 0.015751012 0.09119976
v 0.040007446 0.015751012 0.067645036
vt 0 0
vt 1 0
vt 1 1
vt 0 1
vt 0 0
vt 1 0
vt 1 1
vt 0 1
vt 0 0
vt 1 0
vt 1 1
vt 0 1
vt 0 0
vt 1 0
vt 1 1
vt 0 1
vt 0 0
vt 1 0
vt 1 1
vt 0 1
vt 0 0
vt 1 0
vt 1 1
vt 0 1
vt 0 0
vt 1 0
vt 1 1
vt 0 1
vt 0 0
vt 1 0
vt 1 1
vt 0 1
vt 0 0
vt 1 0
vt 1 1
vt 0 1
vt 0 0
vt 1 0
vt 1 1
vt 0 1
vt 0 0
vt 1 0
vt 1 1
vt 0 1
vt 0 0
vt 1 0
vt 1 1
vt 0 1
vt 0 0
vt 1 0
vt 1 1
vt 0 1
vn -0.9723698 0.0018393993 -0.23343869
vn -0.9723698 0.0018393993 -0.23343869
vn -0.9723698 0.0018393993 -0.23343869
vn -0.9723698 0.0018393993 -0.23343869
vn -0.0018393993 0.0018393993 0.9999966
vn -0.0018393993 0.0018393993 0.9999966
vn -0.0018393993 0.0018393993 0.9999966
vn -0.0018393993 0.0018393993 0.9999966
vn -0.9097549 0.0018393993 -0.41514176
vn -0.9097549 0.0018393993 -0.41514176
vn -0.9097549 0.0018393993 -0.41514176
vn -0.9097549 0.0018393993 -0.41514176
vn 0.71823144 0.0018393993 0.69580185
vn 0.71823144 0.0018393993 0.69580185
vn 0.71823144 0.0018393993 0.69580185
vn 0.71823144 0.0018393993 0.69580185
vn -0.8471401 0.0018393993 -0.53136647
vn -0.8471401 0.0018393993 -0.53136647
vn -0.8471401 0.0018393993 -0.53136647
vn -0.8471401 0.0018393993 -0.53136647
vn -0.0018393993 0.0018393993 0.9999966
vn -0.0018393993 0.0018393993 0.9999966
vn -0.0018393993 0.0018393993 0.9999966
vn -0.0018393993 0.0018393993 0.9999966
vn -0.7532177 0.0018393993 -0.6577687
vn -0.7532177 0.0018393993 -0.6577687
vn -0.7532177 0.0018393993 -0.6577687
vn -0.7532177 0.0018393993 -0.6577687
vn 0.99999833 0.0018393993 -0
vn 0.99999833 0.0018393993 -0
vn 0.99999833 0.0018393993 -0
vn 0.99999833 0.0018393993 -0
vn -0.65929544 0.0018393993 -0.7518817
vn -0.65929544 0.0018393993 -0.7518817
vn -0.65929544 0.0018393993 -0.7518817
vn -0.65929544 0.0018393993 -0.7518817
vn 0.8747686 0.0018393993 0.48453742
vn 0.8747686 0.0018393993 0.48453742
vn 0.8747686 0.0018393993 0.48453742
vn 0.8747686 0.0018393993 0.48453742
vn -0.5340657 0.0018393993 -0.8454409
vn -0.5340657 0.0018393993 -0.8454409
vn -0.5340657 0.0018393993 -0.8454409
vn -0.5340657 0.0018393993 -0.8454409
vn -0.37752855 0.0018393993 -0.9259961
vn -0.37752855 0.0018393993 -0.9259961
vn -0.37752855 0.0018393993 -0.9259961
vn -0.37752855 0.0018393993 -0.9259961
vn 0.99999833 0.0018393993 -0
vn 0.99999833 0.0018393993 -0
vn 0.99999833 0.0018393993 -0
vn 0.99999833 0.0018393993 -0
g phase4_conflict3_wall_0
f 3/3/3 2/2/2 1/1/1
f 4/4/4 3/3/3 1/1/1
f 7/7/7 6/6/6 5/5/5
f 8/8/8 7/7/7 5/5/5
f 11/11/11 10/10/10 9/9/9
f 12/12/12 11/11/11 9/9/9
f 15/15/15 14/14/14 13/13/13
f 16/16/16 15/15/15 13/13/13
f 19/19/19 18/18/18 17/17/17
f 20/20/20 19/19/19 17/17/17
f 23/23/23 22/22/22 21/21/21
f 24/24/24 23/23/23 21/21/21
f 27/27/27 26/26/26 25/25/25
f 28/28/28 27/27/27 25/25/25
f 31/31/31 30/30/30 29/29/29
f 32/32/32 31/31/31 29/29/29
f 35/35/35 34/34/34 33/33/33
f 36/36/36 35/35/35 33/33/33
f 39/39/39 38/38/38 37/37/37
f 40/40/40 39/39/39 37/37/37
f 43/43/43 42/42/42 41/41/41
f 44/44/44 43/43/43 41/41/41
f 47/47/47 46/46/46 45/45/45
f 48/48/48 47/47/47 45/45/45
f 51/51/51 50/50/50 49/49/49
f 52/52/52 51/51/51 49/49/49
