g phase2_conflict1_border
v 2.0964518 0 -0.29252815
v 3.01304 0 -0.82882977
v 4.3684206 0 -0.82882977
v 3.685855 0 -1.5796518
v 0.29252815 0 -0.29252815
v 3.676104 0 -4.7194543
v 4.7097034 0 -6.33811
v 4.7097034 0 -8.6295805
v 4.46593 0 -8.766094
v 3.0422926 0 -9.360901
v 0.29252815 0 -4.095394
v 1.5406485 0 -9.721685
v 0.29252815 0 -9.809444
v 3.0422926 0 -0.6825657
v 2.1354556 0 -0.1560154
v 4.6804504 0 -0.6825657
v 3.8126168 0 -1.6284065
v 0.14626408 0 -0.1560154
v 3.8126168 0 -4.6804504
v 4.8462167 0 -6.2991066
v 4.8462167 0 -8.707588
v 4.5341864 0 -8.902607
v 3.0812964 0 -9.497415
v 0.14626408 0 -4.095394
v 1.5601501 0 -9.8679495
v 0.14626408 0 -9.97521
vt 0.6059075 0.51511174
vt 0.6503395 0.5421573
vt 0.71988523 0.5421573
vt 0.68511236 0.57886195
vt 0.51511174 0.51511174
vt 0.68511236 0.73727167
vt 0.7353398 0.8184083
vt 0.7353398 0.932386
vt 0.72374886 0.9401133
vt 0.65227133 0.9690907
vt 0.51511174 0.7044306
vt 0.5769301 0.98647714
vt 0.51511174 0.9922726
vt 0.65227133 0.53442997
vt 0.60783935 0.5073844
vt 0.7353398 0.53442997
vt 0.69090784 0.5827256
vt 0.5073844 0.5073844
vt 0.69090784 0.7353398
vt 0.74306715 0.81647646
vt 0.74306715 0.9362496
vt 0.7276125 0.9459088
vt 0.6542032 0.97681797
vt 0.5073844 0.7044306
vt 0.57886195 0.9942044
vt 0.5073844 0.9999999
vn -0 1 -0
vn -0 1 -0
vn -0 1 -0
vn -0 1 -0
vn -0 1 -0
vn -0 1 -0
vn -0 1 -0
vn -0 1 -0
vn -0 1 -0
vn -0 1 -0
vn -0 1 -0
vn -0 1 -0
vn -0 1 -0
vn -0 1 -0
vn -0 1 -0
vn -0 1 -0
vn -0 1 -0
vn -0 1 -0
vn -0 1 -0
vn -0 1 -0
vn -0 1 -0
vn -0 1 -0
vn -0 1 -0
vn -0 1 -0
vn -0 1 -0
vn -0 1 -0
g phase2_conflict1_border_0
f 12/12/12 25/25/25 26/26/26
f 13/13/13 12/12/12 26/26/26
f 12/12/12 10/10/10 25/25/25
f 13/13/13 26/26/26 24/24/24
f 10/10/10 23/23/23 25/25/25
f 11/11/11 13/13/13 24/24/24
f 10/10/10 9/9/9 23/23/23
f 11/11/11 24/24/24 18/18/18
f 9/9/9 22/22/22 23/23/23
f 5/5/5 11/11/11 18/18/18
f 9/9/9 8/8/8 22/22/22
f 5/5/5 18/18/18 15/15/15
f 8/8/8 21/21/21 22/22/22
f 1/1/1 5/5/5 15/15/15
f 8/8/8 7/7/7 21/21/21
f 1/1/1 15/15/15 14/14/14
f 7/7/7 20/20/20 21/21/21
f 2/2/2 1/1/1 14/14/14
f 7/7/7 6/6/6 20/20/20
f 2/2/2 14/14/14 16/16/16
f 6/6/6 19/19/19 20/20/20
f 3/3/3 2/2/2 16/16/16
f 6/6/6 4/4/4 19/19/19
f 3/3/3 16/16/16 17/17/17
f 4/4/4 17/17/17 19/19/19
f 4/4/4 3/3/3 17/17/17
