g phase3_conflict3_wall
v -0.045019917 -1.3418537E-19 0.029818386
v -0.045019917 0.015786204 0.029818386
v -0.03790638 0.015786204 0.023776751
v -0.03790638 -1.3418537E-19 0.023776751
v -0.03790638 -1.3418537E-19 0.023776751
v -0.03790638 0.015786204 0.023776751
v -0.025335884 0.015786204 0.023776751
v -0.025335884 -1.3418537E-19 0.023776751
v -0.045019917 -1.3418537E-19 0.053887475
v -0.045019917 0.015786204 0.053887475
v -0.045019917 0.015786204 0.029818386
v -0.045019917 -1.3418537E-19 0.029818386
v -0.025335884 -1.3418537E-19 0.023776751
v -0.025335884 0.015786204 0.023776751
v -0.020073814 0.015786204 0.030013276
v -0.020073814 -1.3418537E-19 0.030013276
v -0.020073814 -1.3418537E-19 0.030013276
v -0.020073814 0.015786204 0.030013276
v -0.0022412513 0.015786204 0.030013276
v -0.0022412513 -1.3418537E-19 0.030013276
v -0.037126813 -1.3418537E-19 0.06762732
v -0.037126813 0.015786204 0.06762732
v -0.045019917 0.015786204 0.053887475
v -0.045019917 -1.3418537E-19 0.053887475
v -0.037126813 -1.3418537E-19 0.09237853
v -0.037126813 0.015786204 0.09237853
v -0.037126813 0.015786204 0.06762732
v -0.037126813 -1.3418537E-19 0.06762732
v -0.030890288 -1.3418537E-19 0.095009565
v -0.030890288 0.015786204 0.095009565
v -0.037126813 0.015786204 0.09237853
v -0.037126813 -1.3418537E-19 0.09237853
v -0.015591313 -1.3418537E-19 0.09861505
v -0.015591313 0.015786204 0.09861505
v -0.030890288 0.015786204 0.095009565
v -0.030890288 -1.3418537E-19 0.095009565
v -0.0022412513 -1.3418537E-19 0.09968696
v -0.0022412513 0.015786204 0.09968696
v -0.015591313 0.015786204 0.09861505
v -0.015591313 -1.3418537E-19 0.09861505
v -0.0022412513 -1.3418537E-19 0.030013276
v -0.0022412513 0.015786204 0.030013276
v -0.0022412513 0.015786204 0.09968696
v -0.0022412513 -1.3418537E-19 0.09968696
vt 0 0
vt 0 1
vt 1 1
vt 1 0
vt 0 0
vt 0 1
vt 1 1
vt 1 0
vt 0 0
vt 0 1
vt 1 1
vt 1 0
vt 0 0
vt 0 1
vt 1 1
vt 1 0
vt 0 0
vt 0 1
vt 1 1
vt 1 0
vt 0 0
vt 0 1
vt 1 1
vt 1 0
vt 0 0
vt 0 1
vt 1 1
vt 1 0
vt 0 0
vt 0 1
vt 1 1
vt 1 0
vt 0 0
vt 0 1
vt 1 1
vt 1 0
vt 0 0
vt 0 1
vt 1 1
vt 1 0
vt 0 0
vt 0 1
vt 1 1
vt 1 0
vn 0.65071166 0.015871048 0.759159
vn 0.65071166 0.015871048 0.759159
vn 0.65071166 0.015871048 0.759159
vn 0.65071166 0.015871048 0.759159
vn -0.015871048 0.015871048 0.99974805
vn -0.015871048 0.015871048 0.99974805
vn -0.015871048 0.015871048 0.99974805
vn -0.015871048 0.015871048 0.99974805
vn 0.999874 0.015871048 -0.00034391563
vn 0.999874 0.015871048 -0.00034391563
vn 0.999874 0.015871048 -0.00034391563
vn 0.999874 0.015871048 -0.00034391563
vn -0.7459378 0.015871048 0.66582644
vn -0.7459378 0.015871048 0.66582644
vn -0.7459378 0.015871048 0.66582644
vn -0.7459378 0.015871048 0.66582644
vn -0.015871048 0.015871048 0.99974805
vn -0.015871048 0.015871048 0.99974805
vn -0.015871048 0.015871048 0.99974805
vn -0.015871048 0.015871048 0.99974805
vn 0.87290585 0.015871048 -0.4876305
vn 0.87290585 0.015871048 -0.4876305
vn 0.87290585 0.015871048 -0.4876305
vn 0.87290585 0.015871048 -0.4876305
vn 0.999874 0.015871048 -0.00034391563
vn 0.999874 0.015871048 -0.00034391563
vn 0.999874 0.015871048 -0.00034391563
vn 0.999874 0.015871048 -0.00034391563
vn 0.39677536 0.015871048 -0.9177785
vn 0.39677536 0.015871048 -0.9177785
vn 0.39677536 0.015871048 -0.9177785
vn 0.39677536 0.015871048 -0.9177785
vn 0.23806524 0.015871048 -0.97111946
vn 0.23806524 0.015871048 -0.97111946
vn 0.23806524 0.015871048 -0.97111946
vn 0.23806524 0.015871048 -0.97111946
vn 0.07935506 0.015871048 -0.9967201
vn 0.07935506 0.015871048 -0.9967201
vn 0.07935506 0.015871048 -0.9967201
vn 0.07935506 0.015871048 -0.9967201
vn -0.999874 0.015871048 -0.00034391563
vn -0.999874 0.015871048 -0.00034391563
vn -0.999874 0.015871048 -0.00034391563
vn -0.999874 0.015871048 -0.00034391563
g phase3_conflict3_wall_0
f 3/3/3 2/2/2 1/1/1
f 4/4/4 3/3/3 1/1/1
f 7/7/7 6/6/6 5/5/5
f 8/8/8 7/7/7 5/5/5
f 11/11/11 10/10/10 9/9/9
f 12/12/12 11/11/11 9/9/9
f 15/15/15 14/14/14 13/13/13
f 16/16/16 15/15/15 13/13/13
f 19/19/19 18/18/18 17/17/17
f 20/20/20 19/19/19 17/17/17
f 23/23/23 22/22/22 21/21/21
f 24/24/24 23/23/23 21/21/21
f 27/27/27 26/26/26 25/25/25
f 28/28/28 27/27/27 25/25/25
f 31/31/31 30/30/30 29/29/29
f 32/32/32 31/31/31 29/29/29
f 35/35/35 34/34/34 33/33/33
f 36/36/36 35/35/35 33/33/33
f 39/39/39 38/38/38 37/37/37
f 40/40/40 39/39/39 37/37/37
f 43/43/43 42/42/42 41/41/41
f 44/44/44 43/43/43 41/41/41
