g phase4_conflict3_border
v 4.000745 -0.007481575 9.119976
v 4.111158 -0.007481575 8.935955
v 4.4792004 -0.007481575 8.788738
v 4.5344067 -0.007481575 8.899151
v 4.000745 -0.007481575 6.7645035
v 5.785752 -0.007481575 7.979044
v 4.111158 -0.007481575 6.8013077
v 5.877763 -0.007481575 8.071054
v 4.7920365 -0.007481575 5.384343
v 6.9634886 -0.007481575 6.9669266
v 4.9024496 -0.007481575 5.4211473
v 7.055499 -0.007481575 7.058937
v 4.7920365 -0.007481575 2.9920654
v 7.975606 -0.007481575 5.7891903
v 4.9024496 -0.007481575 3.102479
v 8.086019 -0.007481575 5.8627987
v 7.4971504 -0.007481575 2.9920654
v 8.785299 -0.007481575 4.4826384
v 7.5339546 -0.007481575 3.102479
v 8.895712 -0.007481575 4.5378447
v 8.251637 -0.007481575 2.2191763
v 9.374167 -0.007481575 3.0472717
v 8.306844 -0.007481575 2.329589
v 9.502983 -0.007481575 3.084076
v 9.705406 -0.007481575 2.2191763
v 9.558189 -0.007481575 2.329589
vt 0.30069733 0.043472946
vt 0.29334807 0.05229207
vt 0.27570984 0.05964134
vt 0.2727701 0.053761926
vt 0.30069733 0.16106124
vt 0.20956641 0.10079724
vt 0.29334807 0.15959139
vt 0.2066267 0.09491783
vt 0.2610113 0.23014437
vt 0.15077226 0.15077226
vt 0.25366202 0.2286745
vt 0.1463627 0.1463627
vt 0.2610113 0.3492025
vt 0.10079724 0.20956641
vt 0.25366202 0.34479293
vt 0.09491783 0.2066267
vt 0.12578475 0.3492025
vt 0.05964134 0.27570984
vt 0.122845046 0.34479293
vt 0.055231776 0.2727701
vt 0.0860987 0.38888857
vt 0.030244265 0.34773266
vt 0.08462885 0.38300914
vt 0.024364851 0.34479293
vt 0.014075875 0.38888857
vt 0.021425143 0.38300914
vn -0 1 -0
vn -0 1 -0
vn -0 1 -0
vn -0 1 -0
vn -0 1 -0
vn -0 1 -0
vn -0 1 -0
vn -0 1 -0
vn -0 1 -0
vn -0 1 -0
vn -0 1 -0
vn -0 1 -0
vn -0 1 -0
vn -0 1 -0
vn -0 1 -0
vn -0 1 -0
vn -0 1 -0
vn -0 1 -0
vn -0 1 -0
vn -0 1 -0
vn -0 1 -0
vn -0 1 -0
vn -0 1 -0
vn -0 1 -0
vn -0 1 -0
vn -0 1 -0
g phase4_conflict3_border_0
f 3/3/3 2/2/2 1/1/1
f 4/4/4 3/3/3 1/1/1
f 1/1/1 2/2/2 5/5/5
f 6/6/6 3/3/3 4/4/4
f 2/2/2 7/7/7 5/5/5
f 8/8/8 6/6/6 4/4/4
f 5/5/5 7/7/7 9/9/9
f 10/10/10 6/6/6 8/8/8
f 7/7/7 11/11/11 9/9/9
f 12/12/12 10/10/10 8/8/8
f 9/9/9 11/11/11 13/13/13
f 14/14/14 10/10/10 12/12/12
f 11/11/11 15/15/15 13/13/13
f 16/16/16 14/14/14 12/12/12
f 13/13/13 15/15/15 17/17/17
f 18/18/18 14/14/14 16/16/16
f 15/15/15 19/19/19 17/17/17
f 20/20/20 18/18/18 16/16/16
f 17/17/17 19/19/19 21/21/21
f 22/22/22 18/18/18 20/20/20
f 19/19/19 23/23/23 21/21/21
f 24/24/24 22/22/22 20/20/20
f 21/21/21 23/23/23 25/25/25
f 26/26/26 22/22/22 24/24/24
f 25/25/25 26/26/26 24/24/24
f 23/23/23 26/26/26 25/25/25
