g phase1_conflict2_base
v 5.1386127 -0.003929138 0.107694626
v 8.30128 -0.003929138 0.14490223
v 7.4268956 -0.003929138 -0.33879948
v 6.068809 -0.003929138 -0.33879948
v 9.86401 -0.003929138 1.5588007
v 9.975634 -0.003929138 0.14490223
v 9.491932 -0.003929138 3.084323
v 8.8966055 -0.003929138 4.535429
v 5.1386127 -0.003929138 5.5214367
v 8.078033 -0.003929138 5.8749113
v 7.054817 -0.003929138 7.065563
v 5.864166 -0.003929138 8.070175
v 4.524683 -0.003929138 8.888748
v 4.1526046 -0.003929138 7.10277
v 4.1526046 -0.003929138 9.056183
vt 0.7569149 0.4951309
vt 0.9139853 0.4951309
vt 0.8728478 0.51756954
vt 0.8055319 0.51756954
vt 0.9925205 0.42033547
vt 1 0.4951309
vt 0.9775614 0.34554005
vt 0.9476432 0.2744844
vt 0.7569149 0.2221276
vt 0.90650576 0.20716852
vt 0.854149 0.14733218
vt 0.7943126 0.094975375
vt 0.7269967 0.053837888
vt 0.70829785 0.1435924
vt 0.70829785 0.046358347
vn -0 1 -0
vn -0 1 -0
vn -0 1 -0
vn -0 1 -0
vn -0 1 -0
vn -0 1 -0
vn -0 1 -0
vn -0 1 -0
vn -0 1 -0
vn -0 1 -0
vn -0 1 -0
vn -0 1 -0
vn -0 1 -0
vn -0 1 -0
vn -0 1 -0
g phase1_conflict2_base_0
f 3/3/3 4/4/4 1/1/1
f 2/2/2 3/3/3 1/1/1
f 2/2/2 1/1/1 5/5/5
f 6/6/6 2/2/2 5/5/5
f 5/5/5 1/1/1 7/7/7
f 7/7/7 1/1/1 8/8/8
f 1/1/1 9/9/9 8/8/8
f 8/8/8 9/9/9 10/10/10
f 10/10/10 9/9/9 11/11/11
f 11/11/11 9/9/9 12/12/12
f 12/12/12 9/9/9 13/13/13
f 9/9/9 14/14/14 13/13/13
f 13/13/13 14/14/14 15/15/15
