g phase2_conflict1_base
v 3.8126168 0 -1.6284065
v 2.1354556 0 -0.1560154
v 3.0422926 0 -0.6825657
v 4.6804504 0 -0.6825657
v 0.14626408 0 -0.1560154
v 3.8126168 0 -4.6804504
v 4.8462167 0 -6.2991066
v 4.8462167 0 -8.707588
v 4.5341864 0 -8.902607
v 3.0812964 0 -9.497415
v 0.14626408 0 -4.095394
v 1.5601501 0 -9.8679495
v 0.14626408 0 -9.97521
vt 0.69090784 0.5827256
vt 0.60783935 0.5073844
vt 0.65227133 0.53442997
vt 0.7353398 0.53442997
vt 0.5073844 0.5073844
vt 0.69090784 0.7353398
vt 0.74306715 0.81647646
vt 0.74306715 0.9362496
vt 0.7276125 0.9459088
vt 0.6542032 0.97681797
vt 0.5073844 0.7044306
vt 0.57886195 0.9942044
vt 0.5073844 0.9999999
vn -0 1 -0
vn -0 1 -0
vn -0 1 -0
vn -0 1 -0
vn -0 1 -0
vn -0 1 -0
vn -0 1 -0
vn -0 1 -0
vn -0 1 -0
vn -0 1 -0
vn -0 1 -0
vn -0 1 -0
vn -0 1 -0
g phase2_conflict1_base_0
f 3/3/3 4/4/4 1/1/1
f 2/2/2 3/3/3 1/1/1
f 1/1/1 5/5/5 2/2/2
f 1/1/1 6/6/6 5/5/5
f 6/6/6 7/7/7 5/5/5
f 7/7/7 8/8/8 5/5/5
f 8/8/8 9/9/9 5/5/5
f 9/9/9 10/10/10 5/5/5
f 10/10/10 11/11/11 5/5/5
f 10/10/10 12/12/12 11/11/11
f 12/12/12 13/13/13 11/11/11
