g planet_6L
v 0.00606781 -0.046277236 -0.007309971
v -0.0005140686 -0.047311094 1.9073486E-08
v 0.008472061 -0.046277236 -0.0040008733
v 0.0123621365 -0.043220825 -0.014300441
v 0.01706543 -0.043220825 -0.0078269
v 0.018093567 -0.03827545 -0.020665912
v 0.024890518 -0.03827545 -0.011310825
v 0.023011856 -0.031657256 -0.026128177
v 0.031605225 -0.031657256 -0.014300403
v 0.02690193 -0.023655547 -0.03044859
v 0.036916275 -0.023655547 -0.01666502
v 0.02959381 -0.014619904 -0.03343817
v 0.040591277 -0.014619904 -0.018301295
v 0.030969772 -0.0049452973 -0.034966372
v 0.04246994 -0.0049452973 -0.019137744
v 0.030969772 0.0049452973 -0.034966372
v 0.04246994 0.0049452973 -0.019137744
v 0.02959381 0.014619979 -0.03343817
v 0.040591277 0.014619979 -0.018301295
v 0.02690193 0.023655547 -0.03044859
v 0.036916275 0.023655547 -0.01666502
v 0.023011856 0.031657256 -0.026128177
v 0.031605225 0.031657256 -0.014300403
v 0.018093567 0.03827553 -0.020665912
v 0.024890518 0.03827553 -0.011310825
v 0.0123621365 0.043220825 -0.014300441
v 0.01706543 0.043220825 -0.0078269
v 0.00606781 0.046277236 -0.007309971
v 0.008472061 0.046277236 -0.0040008733
v -0.0005140686 0.047311094 1.9073486E-08
v 0.0025256346 0.046277236 -0.009355068
v -0.0005140686 0.047311094 1.9073486E-08
v 0.0054323575 0.043220825 -0.018301295
v 0.0080793 0.03827553 -0.026447657
v 0.010350646 0.031657256 -0.03343817
v -0.001542282 0.046277236 -0.009782619
v -0.0005140686 0.047311094 1.9073486E-08
v -0.0025255585 0.043220825 -0.019137744
v 0.012147141 0.023655547 -0.038967226
v -0.003420868 0.03827553 -0.027656421
v -0.0054323575 0.046277236 -0.008518658
v -0.0005140686 0.047311094 1.9073486E-08
v -0.010135651 0.043220825 -0.016665058
v -0.004189148 0.031657256 -0.034966372
v 0.013390274 0.014619979 -0.042793255
v -0.008471984 0.046277236 -0.0057817646
v -0.0005140686 0.047311094 1.9073486E-08
v -0.014418411 0.03827553 -0.024083043
v -0.0047969054 0.023655547 -0.040748157
v 0.014025726 0.0049452973 -0.04474901
v -0.016082153 0.043220825 -0.011310825
v -0.018093567 0.031657256 -0.03044859
v -0.0052173613 0.014619979 -0.04474901
v 0.014025726 -0.0049452973 -0.04474901
v -0.010135727 0.046277236 -0.0020451546
v -0.0005140686 0.047311094 1.9073486E-08
v -0.02301178 0.03827553 -0.016345577
v -0.021000367 0.023655547 -0.0354833
v -0.0054323575 0.0049452973 -0.04679411
v 0.013390274 -0.014619904 -0.042793255
v -0.0193367 0.043220825 -0.0040008733
v -0.028958282 0.031657256 -0.020665912
v -0.02301178 0.014619979 -0.038967226
v -0.0054323575 -0.0049452973 -0.04679411
v 0.012147141 -0.023655547 -0.038967226
v -0.010135727 0.046277236 0.0020451546
v -0.0005140686 0.047311094 1.9073486E-08
v -0.033661574 0.023655547 -0.02408308
v -0.02404007 0.0049452973 -0.040748157
v -0.0052173613 -0.014619904 -0.04474901
v 0.010350646 -0.031657256 -0.03343817
v -0.03691612 0.014619979 -0.026447657
v -0.02404007 -0.0049452973 -0.040748157
v -0.0047969054 -0.023655547 -0.040748157
v 0.0080793 -0.03827545 -0.026447657
v -0.038579863 0.0049452973 -0.027656421
v -0.02301178 -0.014619904 -0.038967226
v -0.004189148 -0.031657256 -0.034966372
v 0.0054323575 -0.043220825 -0.018301295
v -0.038579863 -0.0049452973 -0.027656421
v -0.021000367 -0.023655547 -0.0354833
v -0.003420868 -0.03827545 -0.027656421
v 0.0025256346 -0.046277236 -0.009355068
v -0.0005140686 -0.047311094 1.9073486E-08
v -0.0025255585 -0.043220825 -0.019137744
v -0.018093567 -0.031657256 -0.03044859
v -0.03691612 -0.014619904 -0.026447657
v -0.001542282 -0.046277236 -0.009782619
v -0.0005140686 -0.047311094 1.9073486E-08
v -0.014418411 -0.03827545 -0.024083043
v -0.033661574 -0.023655547 -0.02408308
v -0.010135651 -0.043220825 -0.016665058
v -0.028958282 -0.031657256 -0.020665912
v -0.0054323575 -0.046277236 -0.008518658
v -0.0005140686 -0.047311094 1.9073486E-08
v -0.02301178 -0.03827545 -0.016345577
v -0.016082153 -0.043220825 -0.011310825
v -0.008471984 -0.046277236 -0.0057817646
v -0.0005140686 -0.047311094 1.9073486E-08
v -0.04452629 -0.014619904 -0.009355068
v -0.040591277 -0.023655547 -0.008518658
v -0.034904707 -0.031657256 -0.007309971
v -0.027715148 -0.03827545 -0.0057817646
v -0.0193367 -0.043220825 -0.0040008733
v -0.04653778 -0.0049452973 -0.009782619
v -0.010135727 -0.046277236 -0.0020451546
v -0.0005140686 -0.047311094 1.9073486E-08
v -0.04653778 0.0049452973 -0.009782619
v -0.04452629 0.014619979 -0.009355068
v -0.040591277 0.023655547 -0.008518658
v -0.034904707 0.031657256 -0.007309971
v -0.027715148 0.03827553 -0.0057817646
v -0.0193367 0.043220825 0.0040008733
v -0.027715148 0.03827553 0.0057817646
v -0.034904707 0.031657256 0.007309971
v -0.040591277 0.023655547 0.008518658
v -0.04452629 0.014619979 0.009355068
v -0.008471984 0.046277236 0.0057817646
v -0.0005140686 0.047311094 1.9073486E-08
v -0.016082153 0.043220825 0.011310825
v -0.02301178 0.03827553 0.016345577
v -0.028958282 0.031657256 0.020665912
v -0.0054323575 0.046277236 0.008518658
v -0.0005140686 0.047311094 1.9073486E-08
v -0.010135727 0.043220825 0.016665058
v -0.04653778 0.0049452973 0.009782619
v -0.033661574 0.023655547 0.024083043
v -0.014418411 0.03827553 0.02408308
v -0.001542282 0.046277236 0.009782619
v -0.0005140686 0.047311094 1.9073486E-08
v -0.0025255585 0.043220825 0.019137744
v -0.018093567 0.031657256 0.03044859
v -0.036916196 0.014619979 0.026447657
v -0.04653778 -0.0049452973 0.009782619
v 0.0025256346 0.046277236 0.009355068
v -0.0005140686 0.047311094 1.9073486E-08
v -0.003420868 0.03827553 0.027656421
v -0.021000367 0.023655547 0.0354833
v -0.038579863 0.0049452973 0.027656421
v -0.04452629 -0.014619904 0.009355068
v 0.0054323575 0.043220825 0.018301295
v -0.004189224 0.031657256 0.034966372
v -0.02301178 0.014619979 0.038967226
v -0.038579863 -0.0049452973 0.027656421
v -0.040591277 -0.023655547 0.008518658
v 0.00606781 0.046277236 0.007309971
v -0.0005140686 0.047311094 1.9073486E-08
v -0.0047969054 0.023655547 0.040748157
v -0.02404007 0.0049452973 0.040748157
v -0.036916196 -0.014619904 0.026447657
v -0.034904707 -0.031657256 0.007309971
v -0.0052174376 0.014619979 0.04474901
v -0.02404007 -0.0049452973 0.040748157
v -0.033661574 -0.023655547 0.024083043
v -0.027715148 -0.03827545 0.0057817646
v -0.0054323575 0.0049452973 0.04679411
v -0.02301178 -0.014619904 0.038967226
v -0.028958282 -0.031657256 0.020665912
v -0.0193367 -0.043220825 0.0040008733
v -0.0054323575 -0.0049452973 0.04679411
v -0.021000367 -0.023655547 0.0354833
v -0.02301178 -0.03827545 0.016345577
v -0.010135727 -0.046277236 0.0020451546
v -0.0005140686 -0.047311094 1.9073486E-08
v -0.016082153 -0.043220825 0.011310825
v -0.018093567 -0.031657256 0.03044859
v -0.0052174376 -0.014619904 0.04474901
v -0.008471984 -0.046277236 0.0057817646
v -0.0005140686 -0.047311094 1.9073486E-08
v -0.014418411 -0.03827545 0.02408308
v -0.0047969054 -0.023655547 0.040748157
v -0.010135727 -0.043220825 0.016665058
v -0.004189224 -0.031657256 0.034966372
v -0.0054323575 -0.046277236 0.008518658
v -0.0005140686 -0.047311094 1.9073486E-08
v -0.003420868 -0.03827545 0.027656421
v -0.0025255585 -0.043220825 0.019137744
v -0.001542282 -0.046277236 0.009782619
v -0.0005140686 -0.047311094 1.9073486E-08
v 0.013390274 -0.014619904 0.042793255
v 0.012147141 -0.023655547 0.038967267
v 0.010350646 -0.031657256 0.03343817
v 0.0080793 -0.03827545 0.026447657
v 0.0054323575 -0.043220825 0.018301295
v 0.014025726 -0.0049452973 0.04474901
v 0.0025256346 -0.046277236 0.009355068
v -0.0005140686 -0.047311094 1.9073486E-08
v 0.014025726 0.0049452973 0.04474901
v 0.013390274 0.014619979 0.042793255
v 0.012147141 0.023655547 0.038967267
v 0.010350646 0.031657256 0.03343817
v 0.0080793 0.03827553 0.026447657
v 0.0123621365 0.043220825 0.014300441
v 0.018093567 0.03827553 0.020665912
v 0.023011856 0.031657256 0.026128216
v 0.02690193 0.023655547 0.03044859
v 0.02959381 0.014619979 0.03343817
v 0.008472061 0.046277236 0.0040008733
v -0.0005140686 0.047311094 1.9073486E-08
v 0.01706543 0.043220825 0.0078269
v 0.024890518 0.03827553 0.011310825
v 0.031605225 0.031657256 0.014300441
v 0.009322433 0.046277236 1.9073486E-08
v -0.0005140686 0.047311094 1.9073486E-08
v 0.018729018 0.043220825 1.9073486E-08
v 0.008472061 0.046277236 -0.0040008733
v -0.0005140686 0.047311094 1.9073486E-08
v 0.01706543 0.043220825 -0.0078269
v 0.027294615 0.03827553 1.9073486E-08
v 0.024890518 0.03827553 -0.011310825
v 0.03464485 0.031657256 1.9073486E-08
v 0.031605225 0.031657256 -0.014300403
v 0.036916275 0.023655547 0.016665058
v 0.04045845 0.023655547 1.9073486E-08
v 0.036916275 0.023655547 -0.01666502
v 0.04059135 0.014619979 0.018301295
v 0.04448143 0.014619979 1.9073486E-08
v 0.040591277 0.014619979 -0.018301295
v 0.030969772 0.0049452973 0.034966372
v 0.04246994 0.0049452973 0.019137744
v 0.04653778 0.0049452973 1.9073486E-08
v 0.04246994 0.0049452973 -0.019137744
v 0.030969772 -0.0049452973 0.034966372
v 0.04246994 -0.0049452973 0.019137744
v 0.04653778 -0.0049452973 1.9073486E-08
v 0.04246994 -0.0049452973 -0.019137744
v 0.02959381 -0.014619904 0.03343817
v 0.04059135 -0.014619904 0.018301295
v 0.04448143 -0.014619904 1.9073486E-08
v 0.040591277 -0.014619904 -0.018301295
v 0.02690193 -0.023655547 0.03044859
v 0.036916275 -0.023655547 0.016665058
v 0.04045845 -0.023655547 1.9073486E-08
v 0.036916275 -0.023655547 -0.01666502
v 0.023011856 -0.031657256 0.026128216
v 0.031605225 -0.031657256 0.014300441
v 0.03464485 -0.031657256 1.9073486E-08
v 0.031605225 -0.031657256 -0.014300403
v 0.018093567 -0.03827545 0.020665912
v 0.024890518 -0.03827545 0.011310825
v 0.027294615 -0.03827545 1.9073486E-08
v 0.024890518 -0.03827545 -0.011310825
v 0.0123621365 -0.043220825 0.014300441
v 0.01706543 -0.043220825 0.0078269
v 0.018729018 -0.043220825 1.9073486E-08
v 0.01706543 -0.043220825 -0.0078269
v 0.00606781 -0.046277236 0.007309971
v -0.0005140686 -0.047311094 1.9073486E-08
v 0.008472061 -0.046277236 0.0040008733
v -0.0005140686 -0.047311094 1.9073486E-08
v 0.009322433 -0.046277236 1.9073486E-08
v -0.0005140686 -0.047311094 1.9073486E-08
v 0.008472061 -0.046277236 -0.0040008733
v -0.0005140686 -0.047311094 1.9073486E-08
vt 0.06666667 0.06666667
vt 0.033333335 0
vt 0 0.06666667
vt 0.06666667 0.13333334
vt 0 0.13333334
vt 0.06666667 0.20000002
vt 0 0.20000002
vt 0.06666667 0.26666668
vt 0 0.26666668
vt 0.06666667 0.33333334
vt 0 0.33333334
vt 0.06666667 0.4
vt 0 0.4
vt 0.06666667 0.46666667
vt 0 0.46666667
vt 0.06666667 0.53333336
vt 0 0.53333336
vt 0.06666667 0.6
vt 0 0.6
vt 0.06666667 0.6666667
vt 0 0.6666667
vt 0.06666667 0.73333335
vt 0 0.73333335
vt 0.06666667 0.8
vt 0 0.8
vt 0.06666667 0.8666667
vt 0 0.8666667
vt 0.06666667 0.93333334
vt 0 0.93333334
vt 0.033333335 1
vt 0.13333334 0.93333334
vt 0.10000001 1
vt 0.13333334 0.8666667
vt 0.13333334 0.8
vt 0.13333334 0.73333335
vt 0.20000002 0.93333334
vt 0.16666667 1
vt 0.20000002 0.8666667
vt 0.13333334 0.6666667
vt 0.20000002 0.8
vt 0.26666668 0.93333334
vt 0.23333335 1
vt 0.26666668 0.8666667
vt 0.20000002 0.73333335
vt 0.13333334 0.6
vt 0.33333334 0.93333334
vt 0.3 1
vt 0.26666668 0.8
vt 0.20000002 0.6666667
vt 0.13333334 0.53333336
vt 0.33333334 0.8666667
vt 0.26666668 0.73333335
vt 0.20000002 0.6
vt 0.13333334 0.46666667
vt 0.4 0.93333334
vt 0.36666667 1
vt 0.33333334 0.8
vt 0.26666668 0.6666667
vt 0.20000002 0.53333336
vt 0.13333334 0.4
vt 0.4 0.8666667
vt 0.33333334 0.73333335
vt 0.26666668 0.6
vt 0.20000002 0.46666667
vt 0.13333334 0.33333334
vt 0.46666667 0.93333334
vt 0.43333337 1
vt 0.33333334 0.6666667
vt 0.26666668 0.53333336
vt 0.20000002 0.4
vt 0.13333334 0.26666668
vt 0.33333334 0.6
vt 0.26666668 0.46666667
vt 0.20000002 0.33333334
vt 0.13333334 0.20000002
vt 0.33333334 0.53333336
vt 0.26666668 0.4
vt 0.20000002 0.26666668
vt 0.13333334 0.13333334
vt 0.33333334 0.46666667
vt 0.26666668 0.33333334
vt 0.20000002 0.20000002
vt 0.13333334 0.06666667
vt 0.10000001 0
vt 0.20000002 0.13333334
vt 0.26666668 0.26666668
vt 0.33333334 0.4
vt 0.20000002 0.06666667
vt 0.16666667 0
vt 0.26666668 0.20000002
vt 0.33333334 0.33333334
vt 0.26666668 0.13333334
vt 0.33333334 0.26666668
vt 0.26666668 0.06666667
vt 0.23333335 0
vt 0.33333334 0.20000002
vt 0.33333334 0.13333334
vt 0.33333334 0.06666667
vt 0.3 0
vt 0.4 0.4
vt 0.4 0.33333334
vt 0.4 0.26666668
vt 0.4 0.20000002
vt 0.4 0.13333334
vt 0.4 0.46666667
vt 0.4 0.06666667
vt 0.36666667 0
vt 0.4 0.53333336
vt 0.4 0.6
vt 0.4 0.6666667
vt 0.4 0.73333335
vt 0.4 0.8
vt 0.46666667 0.8666667
vt 0.46666667 0.8
vt 0.46666667 0.73333335
vt 0.46666667 0.6666667
vt 0.46666667 0.6
vt 0.53333336 0.93333334
vt 0.50000006 1
vt 0.53333336 0.8666667
vt 0.53333336 0.8
vt 0.53333336 0.73333335
vt 0.6 0.93333334
vt 0.5666667 1
vt 0.6 0.8666667
vt 0.46666667 0.53333336
vt 0.53333336 0.6666667
vt 0.6 0.8
vt 0.6666667 0.93333334
vt 0.6333334 1
vt 0.6666667 0.8666667
vt 0.6 0.73333335
vt 0.53333336 0.6
vt 0.46666667 0.46666667
vt 0.73333335 0.93333334
vt 0.70000005 1
vt 0.6666667 0.8
vt 0.6 0.6666667
vt 0.53333336 0.53333336
vt 0.46666667 0.4
vt 0.73333335 0.8666667
vt 0.6666667 0.73333335
vt 0.6 0.6
vt 0.53333336 0.46666667
vt 0.46666667 0.33333334
vt 0.8 0.93333334
vt 0.7666667 1
vt 0.6666667 0.6666667
vt 0.6 0.53333336
vt 0.53333336 0.4
vt 0.46666667 0.26666668
vt 0.6666667 0.6
vt 0.6 0.46666667
vt 0.53333336 0.33333334
vt 0.46666667 0.20000002
vt 0.6666667 0.53333336
vt 0.6 0.4
vt 0.53333336 0.26666668
vt 0.46666667 0.13333334
vt 0.6666667 0.46666667
vt 0.6 0.33333334
vt 0.53333336 0.20000002
vt 0.46666667 0.06666667
vt 0.43333337 0
vt 0.53333336 0.13333334
vt 0.6 0.26666668
vt 0.6666667 0.4
vt 0.53333336 0.06666667
vt 0.50000006 0
vt 0.6 0.20000002
vt 0.6666667 0.33333334
vt 0.6 0.13333334
vt 0.6666667 0.26666668
vt 0.6 0.06666667
vt 0.5666667 0
vt 0.6666667 0.20000002
vt 0.6666667 0.13333334
vt 0.6666667 0.06666667
vt 0.6333334 0
vt 0.73333335 0.4
vt 0.73333335 0.33333334
vt 0.73333335 0.26666668
vt 0.73333335 0.20000002
vt 0.73333335 0.13333334
vt 0.73333335 0.46666667
vt 0.73333335 0.06666667
vt 0.70000005 0
vt 0.73333335 0.53333336
vt 0.73333335 0.6
vt 0.73333335 0.6666667
vt 0.73333335 0.73333335
vt 0.73333335 0.8
vt 0.8 0.8666667
vt 0.8 0.8
vt 0.8 0.73333335
vt 0.8 0.6666667
vt 0.8 0.6
vt 0.8666667 0.93333334
vt 0.83333343 1
vt 0.8666667 0.8666667
vt 0.8666667 0.8
vt 0.8666667 0.73333335
vt 0.93333334 0.93333334
vt 0.9000001 1
vt 0.93333334 0.8666667
vt 1 0.93333334
vt 0.96666676 1
vt 1 0.8666667
vt 0.93333334 0.8
vt 1 0.8
vt 0.93333334 0.73333335
vt 1 0.73333335
vt 0.8666667 0.6666667
vt 0.93333334 0.6666667
vt 1 0.6666667
vt 0.8666667 0.6
vt 0.93333334 0.6
vt 1 0.6
vt 0.8 0.53333336
vt 0.8666667 0.53333336
vt 0.93333334 0.53333336
vt 1 0.53333336
vt 0.8 0.46666667
vt 0.8666667 0.46666667
vt 0.93333334 0.46666667
vt 1 0.46666667
vt 0.8 0.4
vt 0.8666667 0.4
vt 0.93333334 0.4
vt 1 0.4
vt 0.8 0.33333334
vt 0.8666667 0.33333334
vt 0.93333334 0.33333334
vt 1 0.33333334
vt 0.8 0.26666668
vt 0.8666667 0.26666668
vt 0.93333334 0.26666668
vt 1 0.26666668
vt 0.8 0.20000002
vt 0.8666667 0.20000002
vt 0.93333334 0.20000002
vt 1 0.20000002
vt 0.8 0.13333334
vt 0.8666667 0.13333334
vt 0.93333334 0.13333334
vt 1 0.13333334
vt 0.8 0.06666667
vt 0.7666667 0
vt 0.8666667 0.06666667
vt 0.83333343 0
vt 0.93333334 0.06666667
vt 0.9000001 0
vt 1 0.06666667
vt 0.96666676 0
vn 0.17914517 -0.96349514 -0.19895762
vn -1.2801495E-07 -1 1.4646918E-06
vn 0.24458376 -0.96349406 -0.108894244
vn 0.29430795 -0.8980787 -0.3268601
vn 0.4018122 -0.8980777 -0.1788947
vn 0.4073162 -0.7933804 -0.45237285
vn 0.55609983 -0.7933799 -0.24759106
vn 0.50575054 -0.654766 -0.56169194
vn 0.6904866 -0.65476614 -0.30742395
vn 0.5838939 -0.4884061 -0.648481
vn 0.7971766 -0.48840463 -0.3549231
vn 0.63799775 -0.3014814 -0.7085675
vn 0.87104154 -0.3014773 -0.3878119
vn 0.6656466 -0.10191759 -0.73927486
vn 0.9087892 -0.101915084 -0.40461767
vn 0.6656466 0.101917386 -0.7392749
vn 0.90878904 0.10191474 -0.40461826
vn 0.63799757 0.30147985 -0.7085682
vn 0.8710414 0.30147645 -0.38781285
vn 0.58389294 0.48840487 -0.64848256
vn 0.7971759 0.4884049 -0.35492423
vn 0.50575143 0.6547633 -0.5616942
vn 0.6904887 0.6547629 -0.30742612
vn 0.40731698 0.79338044 -0.45237193
vn 0.5561003 0.79337925 -0.24759212
vn 0.29430455 0.8980807 -0.32685766
vn 0.4018064 0.8980804 -0.17889427
vn 0.17914441 0.9634951 -0.19895877
vn 0.244583 0.9634946 -0.10889184
vn 1.8558414E-07 1 1.2753229E-06
vn 0.08273197 0.9634951 -0.25462282
vn 1.8558414E-07 1 1.2753229E-06
vn 0.13591497 0.89808077 -0.4183036
vn 0.18810798 0.79338276 -0.57892936
vn 0.23356685 0.6547644 -0.71883935
vn -0.027984792 0.96349573 -0.2662572
vn 1.8558414E-07 1 1.2753229E-06
vn -0.045974266 0.898081 -0.4374208
vn 0.2696538 0.48840377 -0.8299087
vn -0.06362906 0.7933808 -0.6053909
vn -0.13386348 0.96349436 -0.23186022
vn 1.8558414E-07 1 1.2753229E-06
vn -0.21991628 0.8980806 -0.38090438
vn -0.07900537 0.65476394 -0.75169307
vn 0.2946398 0.301478 -0.90680677
vn -0.21659729 0.9634945 -0.1573656
vn 1.8558414E-07 1 1.2753229E-06
vn -0.3043629 0.79337925 -0.52717423
vn -0.09121258 0.48840418 -0.86783737
vn 0.3074076 0.101914965 -0.9461046
vn -0.3558323 0.8980807 -0.25852364
vn -0.3779169 0.654763 -0.6545719
vn -0.09966391 0.30147874 -0.94824976
vn 0.30740726 -0.10191513 -0.9461047
vn -0.26188043 0.96349394 -0.05566102
vn 1.8558414E-07 1 1.2753229E-06
vn -0.49246892 0.793381 -0.35780013
vn -0.4363103 0.48840445 -0.75570786
vn -0.103984304 0.10191546 -0.9893435
vn 0.2946386 -0.30147883 -0.9068068
vn -0.43022093 0.8980801 -0.09144423
vn -0.61148477 0.65476084 -0.4442686
vn -0.47673783 0.30148172 -0.8257299
vn -0.103984274 -0.101915404 -0.9893435
vn 0.2696536 -0.48840296 -0.8299092
vn -0.26188043 0.9634938 0.05566108
vn 1.8558414E-07 1 1.2753229E-06
vn -0.7059644 0.48840287 -0.5129102
vn -0.4973977 0.10191913 -0.86151505
vn -0.09966438 -0.3014794 -0.9482495
vn 0.23356706 -0.6547659 -0.7188379
vn -0.77137524 0.30148277 -0.5604358
vn -0.49739644 -0.10191897 -0.86151564
vn -0.091212995 -0.48840287 -0.867838
vn 0.18810768 -0.7933837 -0.57892805
vn -0.80480397 0.101919815 -0.58472466
vn -0.47673717 -0.30148125 -0.82573044
vn -0.07900475 -0.65476453 -0.7516924
vn 0.13591638 -0.8980801 -0.41830486
vn -0.804805 -0.101920016 -0.5847232
vn -0.43631044 -0.48840246 -0.7557091
vn -0.06362891 -0.793384 -0.6053868
vn 0.08273181 -0.9634946 -0.25462443
vn -1.2801495E-07 -1 1.4646918E-06
vn -0.045975186 -0.89807975 -0.43742326
vn -0.37791556 -0.654764 -0.65457153
vn -0.7713754 -0.30148226 -0.56043595
vn -0.027984748 -0.96349436 -0.26626185
vn -1.2801495E-07 -1 1.4646918E-06
vn -0.30436242 -0.7933796 -0.52717394
vn -0.70596415 -0.48840055 -0.51291275
vn -0.21991813 -0.89807653 -0.3809126
vn -0.61148334 -0.65476394 -0.4442661
vn -0.13386469 -0.9634945 -0.2318589
vn -1.2801495E-07 -1 1.4646918E-06
vn -0.49246714 -0.79338145 -0.35780162
vn -0.35583466 -0.89807636 -0.25853536
vn -0.21659823 -0.9634936 -0.15736987
vn -1.2801495E-07 -1 1.4646918E-06
vn -0.9326364 -0.30148104 -0.1982387
vn -0.8535498 -0.48840195 -0.18142848
vn -0.7393178 -0.6547629 -0.15714546
vn -0.5954209 -0.7933832 -0.12655866
vn -0.43022376 -0.89807826 -0.09144835
vn -0.97305435 -0.10191723 -0.20682897
vn -0.26188034 -0.9634936 -0.055666346
vn -1.2801495E-07 -1 1.4646918E-06
vn -0.9730541 0.10191689 -0.20682995
vn -0.9326364 0.3014809 -0.19823907
vn -0.853549 0.48840386 -0.1814273
vn -0.73931944 0.6547607 -0.15714695
vn -0.5954232 0.79338115 -0.12656046
vn -0.43021905 0.89808106 0.091444075
vn -0.595423 0.7933813 0.1265608
vn -0.7393195 0.6547607 0.1571469
vn -0.8535488 0.4884038 0.18142788
vn -0.9326364 0.30148122 0.19823879
vn -0.21659736 0.96349394 0.15736908
vn 1.8558414E-07 1 1.2753229E-06
vn -0.35583106 0.8980812 0.25852376
vn -0.492469 0.7933805 0.35780108
vn -0.6114846 0.65476185 0.44426742
vn -0.13386558 0.96349263 0.23186654
vn 1.8558414E-07 1 1.2753229E-06
vn -0.21991791 0.8980806 0.38090327
vn -0.97305423 0.10191741 0.20682909
vn -0.70596296 0.48840427 0.5129108
vn -0.30436257 0.7933797 0.5271735
vn -0.027985545 0.96349496 0.26625994
vn 1.8558414E-07 1 1.2753229E-06
vn -0.0459752 0.89808166 0.43741935
vn -0.37791783 0.6547642 0.65457016
vn -0.77137405 0.30148324 0.5604373
vn -0.97305423 -0.10191782 0.2068289
vn 0.08273408 0.9634951 0.254622
vn 1.8558414E-07 1 1.2753229E-06
vn -0.063627966 0.7933813 0.6053904
vn -0.43631002 0.48840612 0.755707
vn -0.80480355 0.1019199 0.5847252
vn -0.93263644 -0.3014816 0.1982374
vn 0.13591558 0.8980806 0.4183041
vn -0.07900572 0.6547642 0.7516927
vn -0.47673532 0.30148107 0.8257315
vn -0.80480385 -0.10192031 0.5847247
vn -0.8535496 -0.4884028 0.18142703
vn 0.17914411 0.96349525 0.19895782
vn 1.8558414E-07 1 1.2753229E-06
vn -0.09121308 0.48840538 0.86783665
vn -0.49739605 0.101918004 0.8615161
vn -0.7713755 -0.30148405 0.5604348
vn -0.7393174 -0.6547634 0.15714562
vn -0.09966521 0.30147827 0.9482499
vn -0.4973953 -0.10191789 0.86151654
vn -0.70596415 -0.4884034 0.51290995
vn -0.5954222 -0.79338205 0.1265593
vn -0.10398374 0.10191505 0.98934364
vn -0.47673687 -0.30148077 0.8257308
vn -0.6114838 -0.6547636 0.4442659
vn -0.43022287 -0.8980787 0.09144884
vn -0.103983775 -0.10191492 0.98934364
vn -0.43631214 -0.48840466 0.75570667
vn -0.49247026 -0.79338056 0.35779923
vn -0.2618796 -0.9634936 0.055670135
vn -1.2801495E-07 -1 1.4646918E-06
vn -0.35583478 -0.8980776 0.2585307
vn -0.3779174 -0.6547644 0.6545701
vn -0.09966569 -0.30147833 0.94824976
vn -0.21659684 -0.9634942 0.15736848
vn -1.2801495E-07 -1 1.4646918E-06
vn -0.30436242 -0.79337984 0.5271736
vn -0.09121384 -0.488405 0.8678367
vn -0.21991946 -0.89807695 0.38091105
vn -0.07900595 -0.65476626 0.75169086
vn -0.1338658 -0.96349525 0.23185529
vn -1.2801495E-07 -1 1.4646918E-06
vn -0.06362778 -0.7933824 0.6053891
vn -0.045975357 -0.898078 0.4374269
vn -0.027985394 -0.96349436 0.26626188
vn -1.2801495E-07 -1 1.4646918E-06
vn 0.29463938 -0.30147904 0.9068065
vn 0.26965305 -0.4884034 0.8299092
vn 0.23356585 -0.65476614 0.7188382
vn 0.18810719 -0.79338306 0.5789292
vn 0.13591696 -0.8980793 0.41830635
vn 0.3074077 -0.101915136 0.94610447
vn 0.08273392 -0.9634947 0.25462317
vn -1.2801495E-07 -1 1.4646918E-06
vn 0.307407 0.101914525 0.94610494
vn 0.29463816 0.3014773 0.9068074
vn 0.26965204 0.48840457 0.8299089
vn 0.23356612 0.6547641 0.7188399
vn 0.18810761 0.79338115 0.5789316
vn 0.2943045 0.89807993 0.32685983
vn 0.4073179 0.79337937 0.45237288
vn 0.505752 0.6547625 0.5616947
vn 0.58389306 0.48840547 0.648482
vn 0.63799655 0.30148092 0.7085687
vn 0.24458246 0.9634947 0.10889189
vn 1.8558414E-07 1 1.2753229E-06
vn 0.40180585 0.8980807 0.17889415
vn 0.5561001 0.79337984 0.24759063
vn 0.69048965 0.65476197 0.30742598
vn 0.26772958 0.96349406 0
vn 1.8558414E-07 1 1.2753229E-06
vn 0.4398314 0.8980803 -2.8116474E-06
vn 0.244583 0.9634946 -0.10889184
vn 1.8558414E-07 1 1.2753229E-06
vn 0.4018064 0.8980804 -0.17889427
vn 0.6087273 0.79337955 -1.6213198E-06
vn 0.5561003 0.79337925 -0.24759212
vn 0.755835 0.65476215 7.616446E-07
vn 0.6904887 0.6547629 -0.30742612
vn 0.79717577 0.4884052 0.3549241
vn 0.872617 0.48840517 5.426026E-07
vn 0.7971759 0.4884049 -0.35492423
vn 0.87104124 0.30147922 0.3878111
vn 0.95347446 0.301474 -8.679861E-07
vn 0.8710414 0.30147645 -0.38781285
vn 0.665646 0.1019171 0.7392755
vn 0.9087888 0.10191591 0.4046183
vn 0.99479336 0.10191206 -7.8511545E-07
vn 0.90878904 0.10191474 -0.40461826
vn 0.6656466 -0.101917654 0.73927486
vn 0.90878874 -0.101916246 0.40461835
vn 0.99479336 -0.101912454 -5.165255E-07
vn 0.9087892 -0.101915084 -0.40461767
vn 0.6379973 -0.30148178 0.7085677
vn 0.8710409 -0.30147943 0.3878116
vn 0.95347434 -0.30147418 -1.0890267E-06
vn 0.87104154 -0.3014773 -0.3878119
vn 0.5838939 -0.4884044 0.6484821
vn 0.7971766 -0.48840418 0.35492367
vn 0.87261796 -0.48840335 -5.9568123E-07
vn 0.7971766 -0.48840463 -0.3549231
vn 0.50575066 -0.65476584 0.561692
vn 0.6904876 -0.6547652 0.30742395
vn 0.75583297 -0.6547644 7.684763E-07
vn 0.6904866 -0.65476614 -0.30742395
vn 0.40731704 -0.79338145 0.45237014
vn 0.55609924 -0.7933811 0.24758844
vn 0.60872597 -0.79338056 -3.6789754E-07
vn 0.55609983 -0.7933799 -0.24759106
vn 0.29430807 -0.89807886 0.32685947
vn 0.4018114 -0.89807874 0.1788911
vn 0.43983698 -0.8980776 -2.5499523E-06
vn 0.4018122 -0.8980777 -0.1788947
vn 0.17914413 -0.963496 0.19895424
vn -1.2801495E-07 -1 1.4646918E-06
vn 0.24458228 -0.9634947 0.1088918
vn -1.2801495E-07 -1 1.4646918E-06
vn 0.26772958 -0.96349406 0
vn -1.2801495E-07 -1 1.4646918E-06
vn 0.24458376 -0.96349406 -0.108894244
vn -1.2801495E-07 -1 1.4646918E-06
g planet_6L_0
f 3/3/3 2/2/2 1/1/1
f 1/1/1 4/4/4 3/3/3
f 4/4/4 5/5/5 3/3/3
f 4/4/4 6/6/6 5/5/5
f 6/6/6 7/7/7 5/5/5
f 6/6/6 8/8/8 7/7/7
f 8/8/8 9/9/9 7/7/7
f 8/8/8 10/10/10 9/9/9
f 10/10/10 11/11/11 9/9/9
f 10/10/10 12/12/12 11/11/11
f 12/12/12 13/13/13 11/11/11
f 12/12/12 14/14/14 13/13/13
f 14/14/14 15/15/15 13/13/13
f 14/14/14 16/16/16 15/15/15
f 16/16/16 17/17/17 15/15/15
f 16/16/16 18/18/18 17/17/17
f 18/18/18 19/19/19 17/17/17
f 18/18/18 20/20/20 19/19/19
f 20/20/20 21/21/21 19/19/19
f 20/20/20 22/22/22 21/21/21
f 22/22/22 23/23/23 21/21/21
f 22/22/22 24/24/24 23/23/23
f 24/24/24 25/25/25 23/23/23
f 24/24/24 26/26/26 25/25/25
f 26/26/26 27/27/27 25/25/25
f 26/26/26 28/28/28 27/27/27
f 28/28/28 29/29/29 27/27/27
f 28/28/28 30/30/30 29/29/29
f 31/31/31 28/28/28 26/26/26
f 31/31/31 32/32/32 28/28/28
f 33/33/33 26/26/26 24/24/24
f 33/33/33 31/31/31 26/26/26
f 34/34/34 24/24/24 22/22/22
f 34/34/34 33/33/33 24/24/24
f 35/35/35 22/22/22 20/20/20
f 35/35/35 34/34/34 22/22/22
f 36/36/36 31/31/31 33/33/33
f 36/36/36 37/37/37 31/31/31
f 38/38/38 33/33/33 34/34/34
f 38/38/38 36/36/36 33/33/33
f 39/39/39 35/35/35 20/20/20
f 39/39/39 20/20/20 18/18/18
f 40/40/40 34/34/34 35/35/35
f 40/40/40 38/38/38 34/34/34
f 41/41/41 36/36/36 38/38/38
f 41/41/41 42/42/42 36/36/36
f 43/43/43 41/41/41 38/38/38
f 43/43/43 38/38/38 40/40/40
f 44/44/44 40/40/40 35/35/35
f 44/44/44 35/35/35 39/39/39
f 45/45/45 39/39/39 18/18/18
f 45/45/45 18/18/18 16/16/16
f 46/46/46 41/41/41 43/43/43
f 46/46/46 47/47/47 41/41/41
f 48/48/48 43/43/43 40/40/40
f 48/48/48 40/40/40 44/44/44
f 49/49/49 44/44/44 39/39/39
f 49/49/49 39/39/39 45/45/45
f 50/50/50 45/45/45 16/16/16
f 50/50/50 16/16/16 14/14/14
f 51/51/51 46/46/46 43/43/43
f 51/51/51 43/43/43 48/48/48
f 52/52/52 48/48/48 44/44/44
f 52/52/52 44/44/44 49/49/49
f 53/53/53 49/49/49 45/45/45
f 53/53/53 45/45/45 50/50/50
f 54/54/54 50/50/50 14/14/14
f 54/54/54 14/14/14 12/12/12
f 55/55/55 46/46/46 51/51/51
f 55/55/55 56/56/56 46/46/46
f 57/57/57 51/51/51 48/48/48
f 57/57/57 48/48/48 52/52/52
f 58/58/58 52/52/52 49/49/49
f 58/58/58 49/49/49 53/53/53
f 59/59/59 53/53/53 50/50/50
f 59/59/59 50/50/50 54/54/54
f 60/60/60 54/54/54 12/12/12
f 60/60/60 12/12/12 10/10/10
f 61/61/61 55/55/55 51/51/51
f 61/61/61 51/51/51 57/57/57
f 62/62/62 57/57/57 52/52/52
f 62/62/62 52/52/52 58/58/58
f 63/63/63 58/58/58 53/53/53
f 63/63/63 53/53/53 59/59/59
f 64/64/64 59/59/59 54/54/54
f 64/64/64 54/54/54 60/60/60
f 65/65/65 60/60/60 10/10/10
f 65/65/65 10/10/10 8/8/8
f 66/66/66 55/55/55 61/61/61
f 66/66/66 67/67/67 55/55/55
f 68/68/68 62/62/62 58/58/58
f 68/68/68 58/58/58 63/63/63
f 69/69/69 63/63/63 59/59/59
f 69/69/69 59/59/59 64/64/64
f 70/70/70 64/64/64 60/60/60
f 70/70/70 60/60/60 65/65/65
f 71/71/71 65/65/65 8/8/8
f 71/71/71 8/8/8 6/6/6
f 72/72/72 68/68/68 63/63/63
f 72/72/72 63/63/63 69/69/69
f 73/73/73 69/69/69 64/64/64
f 73/73/73 64/64/64 70/70/70
f 74/74/74 70/70/70 65/65/65
f 74/74/74 65/65/65 71/71/71
f 75/75/75 71/71/71 6/6/6
f 75/75/75 6/6/6 4/4/4
f 76/76/76 72/72/72 69/69/69
f 76/76/76 69/69/69 73/73/73
f 77/77/77 73/73/73 70/70/70
f 77/77/77 70/70/70 74/74/74
f 78/78/78 74/74/74 71/71/71
f 78/78/78 71/71/71 75/75/75
f 79/79/79 75/75/75 4/4/4
f 79/79/79 4/4/4 1/1/1
f 80/80/80 76/76/76 73/73/73
f 80/80/80 73/73/73 77/77/77
f 81/81/81 77/77/77 74/74/74
f 81/81/81 74/74/74 78/78/78
f 82/82/82 78/78/78 75/75/75
f 82/82/82 75/75/75 79/79/79
f 83/83/83 79/79/79 1/1/1
f 1/1/1 84/84/84 83/83/83
f 85/85/85 79/79/79 83/83/83
f 85/85/85 82/82/82 79/79/79
f 86/86/86 78/78/78 82/82/82
f 86/86/86 81/81/81 78/78/78
f 87/87/87 77/77/77 81/81/81
f 87/87/87 80/80/80 77/77/77
f 88/88/88 85/85/85 83/83/83
f 83/83/83 89/89/89 88/88/88
f 90/90/90 82/82/82 85/85/85
f 90/90/90 86/86/86 82/82/82
f 91/91/91 81/81/81 86/86/86
f 91/91/91 87/87/87 81/81/81
f 92/92/92 85/85/85 88/88/88
f 92/92/92 90/90/90 85/85/85
f 93/93/93 86/86/86 90/90/90
f 93/93/93 91/91/91 86/86/86
f 94/94/94 92/92/92 88/88/88
f 88/88/88 95/95/95 94/94/94
f 96/96/96 90/90/90 92/92/92
f 96/96/96 93/93/93 90/90/90
f 97/97/97 92/92/92 94/94/94
f 97/97/97 96/96/96 92/92/92
f 98/98/98 97/97/97 94/94/94
f 94/94/94 99/99/99 98/98/98
f 100/100/100 87/87/87 91/91/91
f 101/101/101 91/91/91 93/93/93
f 101/101/101 100/100/100 91/91/91
f 102/102/102 93/93/93 96/96/96
f 102/102/102 101/101/101 93/93/93
f 103/103/103 96/96/96 97/97/97
f 103/103/103 102/102/102 96/96/96
f 104/104/104 97/97/97 98/98/98
f 104/104/104 103/103/103 97/97/97
f 100/100/100 105/105/105 87/87/87
f 105/105/105 80/80/80 87/87/87
f 106/106/106 104/104/104 98/98/98
f 98/98/98 107/107/107 106/106/106
f 105/105/105 108/108/108 80/80/80
f 108/108/108 76/76/76 80/80/80
f 108/108/108 109/109/109 76/76/76
f 109/109/109 72/72/72 76/76/76
f 109/109/109 110/110/110 72/72/72
f 110/110/110 68/68/68 72/72/72
f 110/110/110 111/111/111 68/68/68
f 111/111/111 62/62/62 68/68/68
f 111/111/111 112/112/112 62/62/62
f 112/112/112 57/57/57 62/62/62
f 112/112/112 61/61/61 57/57/57
f 113/113/113 61/61/61 112/112/112
f 113/113/113 66/66/66 61/61/61
f 114/114/114 112/112/112 111/111/111
f 114/114/114 113/113/113 112/112/112
f 115/115/115 111/111/111 110/110/110
f 115/115/115 114/114/114 111/111/111
f 116/116/116 110/110/110 109/109/109
f 116/116/116 115/115/115 110/110/110
f 117/117/117 109/109/109 108/108/108
f 117/117/117 116/116/116 109/109/109
f 118/118/118 66/66/66 113/113/113
f 118/118/118 119/119/119 66/66/66
f 120/120/120 113/113/113 114/114/114
f 120/120/120 118/118/118 113/113/113
f 121/121/121 114/114/114 115/115/115
f 121/121/121 120/120/120 114/114/114
f 122/122/122 115/115/115 116/116/116
f 122/122/122 121/121/121 115/115/115
f 123/123/123 118/118/118 120/120/120
f 123/123/123 124/124/124 118/118/118
f 125/125/125 120/120/120 121/121/121
f 125/125/125 123/123/123 120/120/120
f 126/126/126 117/117/117 108/108/108
f 126/126/126 108/108/108 105/105/105
f 127/127/127 116/116/116 117/117/117
f 127/127/127 122/122/122 116/116/116
f 128/128/128 121/121/121 122/122/122
f 128/128/128 125/125/125 121/121/121
f 129/129/129 123/123/123 125/125/125
f 129/129/129 130/130/130 123/123/123
f 131/131/131 129/129/129 125/125/125
f 131/131/131 125/125/125 128/128/128
f 132/132/132 128/128/128 122/122/122
f 132/132/132 122/122/122 127/127/127
f 133/133/133 127/127/127 117/117/117
f 133/133/133 117/117/117 126/126/126
f 134/134/134 126/126/126 105/105/105
f 134/134/134 105/105/105 100/100/100
f 135/135/135 129/129/129 131/131/131
f 135/135/135 136/136/136 129/129/129
f 137/137/137 131/131/131 128/128/128
f 137/137/137 128/128/128 132/132/132
f 138/138/138 132/132/132 127/127/127
f 138/138/138 127/127/127 133/133/133
f 139/139/139 133/133/133 126/126/126
f 139/139/139 126/126/126 134/134/134
f 140/140/140 134/134/134 100/100/100
f 140/140/140 100/100/100 101/101/101
f 141/141/141 135/135/135 131/131/131
f 141/141/141 131/131/131 137/137/137
f 142/142/142 137/137/137 132/132/132
f 142/142/142 132/132/132 138/138/138
f 143/143/143 138/138/138 133/133/133
f 143/143/143 133/133/133 139/139/139
f 144/144/144 139/139/139 134/134/134
f 144/144/144 134/134/134 140/140/140
f 145/145/145 140/140/140 101/101/101
f 145/145/145 101/101/101 102/102/102
f 146/146/146 135/135/135 141/141/141
f 146/146/146 147/147/147 135/135/135
f 148/148/148 142/142/142 138/138/138
f 148/148/148 138/138/138 143/143/143
f 149/149/149 143/143/143 139/139/139
f 149/149/149 139/139/139 144/144/144
f 150/150/150 144/144/144 140/140/140
f 150/150/150 140/140/140 145/145/145
f 151/151/151 145/145/145 102/102/102
f 151/151/151 102/102/102 103/103/103
f 152/152/152 148/148/148 143/143/143
f 152/152/152 143/143/143 149/149/149
f 153/153/153 149/149/149 144/144/144
f 153/153/153 144/144/144 150/150/150
f 154/154/154 150/150/150 145/145/145
f 154/154/154 145/145/145 151/151/151
f 155/155/155 151/151/151 103/103/103
f 155/155/155 103/103/103 104/104/104
f 156/156/156 152/152/152 149/149/149
f 156/156/156 149/149/149 153/153/153
f 157/157/157 153/153/153 150/150/150
f 157/157/157 150/150/150 154/154/154
f 158/158/158 154/154/154 151/151/151
f 158/158/158 151/151/151 155/155/155
f 159/159/159 155/155/155 104/104/104
f 159/159/159 104/104/104 106/106/106
f 160/160/160 156/156/156 153/153/153
f 160/160/160 153/153/153 157/157/157
f 161/161/161 157/157/157 154/154/154
f 161/161/161 154/154/154 158/158/158
f 162/162/162 158/158/158 155/155/155
f 162/162/162 155/155/155 159/159/159
f 163/163/163 159/159/159 106/106/106
f 106/106/106 164/164/164 163/163/163
f 165/165/165 159/159/159 163/163/163
f 165/165/165 162/162/162 159/159/159
f 166/166/166 158/158/158 162/162/162
f 166/166/166 161/161/161 158/158/158
f 167/167/167 157/157/157 161/161/161
f 167/167/167 160/160/160 157/157/157
f 168/168/168 165/165/165 163/163/163
f 163/163/163 169/169/169 168/168/168
f 170/170/170 162/162/162 165/165/165
f 170/170/170 166/166/166 162/162/162
f 171/171/171 161/161/161 166/166/166
f 171/171/171 167/167/167 161/161/161
f 172/172/172 165/165/165 168/168/168
f 172/172/172 170/170/170 165/165/165
f 173/173/173 166/166/166 170/170/170
f 173/173/173 171/171/171 166/166/166
f 174/174/174 172/172/172 168/168/168
f 168/168/168 175/175/175 174/174/174
f 176/176/176 170/170/170 172/172/172
f 176/176/176 173/173/173 170/170/170
f 177/177/177 172/172/172 174/174/174
f 177/177/177 176/176/176 172/172/172
f 178/178/178 177/177/177 174/174/174
f 174/174/174 179/179/179 178/178/178
f 180/180/180 167/167/167 171/171/171
f 181/181/181 171/171/171 173/173/173
f 181/181/181 180/180/180 171/171/171
f 182/182/182 173/173/173 176/176/176
f 182/182/182 181/181/181 173/173/173
f 183/183/183 176/176/176 177/177/177
f 183/183/183 182/182/182 176/176/176
f 184/184/184 177/177/177 178/178/178
f 184/184/184 183/183/183 177/177/177
f 180/180/180 185/185/185 167/167/167
f 185/185/185 160/160/160 167/167/167
f 186/186/186 184/184/184 178/178/178
f 178/178/178 187/187/187 186/186/186
f 185/185/185 188/188/188 160/160/160
f 188/188/188 156/156/156 160/160/160
f 188/188/188 189/189/189 156/156/156
f 189/189/189 152/152/152 156/156/156
f 189/189/189 190/190/190 152/152/152
f 190/190/190 148/148/148 152/152/152
f 190/190/190 191/191/191 148/148/148
f 191/191/191 142/142/142 148/148/148
f 191/191/191 192/192/192 142/142/142
f 192/192/192 137/137/137 142/142/142
f 192/192/192 141/141/141 137/137/137
f 193/193/193 141/141/141 192/192/192
f 193/193/193 146/146/146 141/141/141
f 194/194/194 192/192/192 191/191/191
f 194/194/194 193/193/193 192/192/192
f 195/195/195 191/191/191 190/190/190
f 195/195/195 194/194/194 191/191/191
f 196/196/196 190/190/190 189/189/189
f 196/196/196 195/195/195 190/190/190
f 197/197/197 189/189/189 188/188/188
f 197/197/197 196/196/196 189/189/189
f 198/198/198 146/146/146 193/193/193
f 198/198/198 199/199/199 146/146/146
f 200/200/200 193/193/193 194/194/194
f 200/200/200 198/198/198 193/193/193
f 201/201/201 194/194/194 195/195/195
f 201/201/201 200/200/200 194/194/194
f 202/202/202 195/195/195 196/196/196
f 202/202/202 201/201/201 195/195/195
f 203/203/203 198/198/198 200/200/200
f 203/203/203 204/204/204 198/198/198
f 205/205/205 200/200/200 201/201/201
f 205/205/205 203/203/203 200/200/200
f 206/206/206 203/203/203 205/205/205
f 206/206/206 207/207/207 203/203/203
f 208/208/208 206/206/206 205/205/205
f 209/209/209 205/205/205 201/201/201
f 208/208/208 205/205/205 209/209/209
f 209/209/209 201/201/201 202/202/202
f 210/210/210 208/208/208 209/209/209
f 210/210/210 209/209/209 211/211/211
f 211/211/211 209/209/209 202/202/202
f 212/212/212 210/210/210 211/211/211
f 213/213/213 202/202/202 196/196/196
f 211/211/211 202/202/202 213/213/213
f 213/213/213 196/196/196 197/197/197
f 212/212/212 211/211/211 214/214/214
f 214/214/214 211/211/211 213/213/213
f 215/215/215 212/212/212 214/214/214
f 216/216/216 213/213/213 197/197/197
f 214/214/214 213/213/213 216/216/216
f 215/215/215 214/214/214 217/217/217
f 217/217/217 214/214/214 216/216/216
f 218/218/218 215/215/215 217/217/217
f 216/216/216 197/197/197 219/219/219
f 219/219/219 197/197/197 188/188/188
f 219/219/219 188/188/188 185/185/185
f 217/217/217 216/216/216 220/220/220
f 220/220/220 216/216/216 219/219/219
f 218/218/218 217/217/217 221/221/221
f 221/221/221 217/217/217 220/220/220
f 222/222/222 218/218/218 221/221/221
f 223/223/223 219/219/219 185/185/185
f 220/220/220 219/219/219 223/223/223
f 223/223/223 185/185/185 180/180/180
f 221/221/221 220/220/220 224/224/224
f 224/224/224 220/220/220 223/223/223
f 222/222/222 221/221/221 225/225/225
f 225/225/225 221/221/221 224/224/224
f 226/226/226 222/222/222 225/225/225
f 227/227/227 223/223/223 180/180/180
f 224/224/224 223/223/223 227/227/227
f 227/227/227 180/180/180 181/181/181
f 225/225/225 224/224/224 228/228/228
f 228/228/228 224/224/224 227/227/227
f 226/226/226 225/225/225 229/229/229
f 229/229/229 225/225/225 228/228/228
f 230/230/230 226/226/226 229/229/229
f 231/231/231 227/227/227 181/181/181
f 228/228/228 227/227/227 231/231/231
f 231/231/231 181/181/181 182/182/182
f 229/229/229 228/228/228 232/232/232
f 232/232/232 228/228/228 231/231/231
f 230/230/230 229/229/229 233/233/233
f 233/233/233 229/229/229 232/232/232
f 234/234/234 230/230/230 233/233/233
f 235/235/235 231/231/231 182/182/182
f 232/232/232 231/231/231 235/235/235
f 235/235/235 182/182/182 183/183/183
f 233/233/233 232/232/232 236/236/236
f 236/236/236 232/232/232 235/235/235
f 234/234/234 233/233/233 237/237/237
f 237/237/237 233/233/233 236/236/236
f 238/238/238 234/234/234 237/237/237
f 239/239/239 235/235/235 183/183/183
f 236/236/236 235/235/235 239/239/239
f 239/239/239 183/183/183 184/184/184
f 237/237/237 236/236/236 240/240/240
f 240/240/240 236/236/236 239/239/239
f 238/238/238 237/237/237 241/241/241
f 241/241/241 237/237/237 240/240/240
f 242/242/242 238/238/238 241/241/241
f 243/243/243 239/239/239 184/184/184
f 240/240/240 239/239/239 243/243/243
f 243/243/243 184/184/184 186/186/186
f 241/241/241 240/240/240 244/244/244
f 244/244/244 240/240/240 243/243/243
f 242/242/242 241/241/241 245/245/245
f 245/245/245 241/241/241 244/244/244
f 246/246/246 242/242/242 245/245/245
f 247/247/247 243/243/243 186/186/186
f 244/244/244 243/243/243 247/247/247
f 186/186/186 248/248/248 247/247/247
f 249/249/249 244/244/244 247/247/247
f 245/245/245 244/244/244 249/249/249
f 247/247/247 250/250/250 249/249/249
f 246/246/246 245/245/245 251/251/251
f 251/251/251 245/245/245 249/249/249
f 249/249/249 252/252/252 251/251/251
f 253/253/253 246/246/246 251/251/251
f 251/251/251 254/254/254 253/253/253
