g planet_3M
v 0.0060678185 -0.046277236 -0.0073099574
v -0.00051410316 -0.047311094 3.5762786E-09
v 0.008472012 -0.046277236 -0.004000865
v 0.012362073 -0.043220825 -0.014300433
v 0.017065385 -0.043220825 -0.007826882
v 0.01809358 -0.03827545 -0.020665912
v 0.024890447 -0.03827545 -0.011310821
v 0.023011846 -0.031657256 -0.026128186
v 0.031605214 -0.031657256 -0.014300428
v 0.026901912 -0.023655547 -0.03044855
v 0.03691621 -0.023655547 -0.016665036
v 0.029593768 -0.014619904 -0.033438146
v 0.040591326 -0.014619904 -0.018301297
v 0.030969761 -0.0049452973 -0.034966346
v 0.04246993 -0.0049452973 -0.019137712
v 0.030969761 0.0049452973 -0.034966346
v 0.04246993 0.0049452973 -0.019137712
v 0.029593768 0.014619979 -0.033438146
v 0.040591326 0.014619979 -0.018301297
v 0.026901912 0.023655547 -0.03044855
v 0.03691621 0.023655547 -0.016665036
v 0.023011846 0.031657256 -0.026128186
v 0.031605214 0.031657256 -0.014300428
v 0.01809358 0.03827553 -0.020665912
v 0.024890447 0.03827553 -0.011310821
v 0.012362073 0.043220825 -0.014300433
v 0.017065385 0.043220825 -0.007826882
v 0.0060678185 0.046277236 -0.0073099574
v 0.008472012 0.046277236 -0.004000865
v -0.00051410316 0.047311094 3.5762786E-09
v 0.0025255524 0.046277236 -0.009355089
v -0.00051410316 0.047311094 3.5762786E-09
v 0.0054323613 0.043220825 -0.018301306
v 0.008079279 0.03827553 -0.026447676
v 0.010350621 0.031657256 -0.033438146
v -0.001542288 0.046277236 -0.00978263
v -0.00051410316 0.047311094 3.5762786E-09
v -0.0025255547 0.043220825 -0.019137722
v 0.0121471295 0.023655547 -0.038967226
v -0.0034209024 0.03827553 -0.027656402
v -0.0054323636 0.046277236 -0.008518673
v -0.00051410316 0.047311094 3.5762786E-09
v -0.010135666 0.043220825 -0.016665049
v -0.004189211 0.031657256 -0.034966365
v 0.013390282 0.014619979 -0.042793244
v -0.00847201 0.046277236 -0.0057817614
v -0.00051410316 0.047311094 3.5762786E-09
v -0.014418464 0.03827553 -0.02408308
v -0.0047968924 0.023655547 -0.04074812
v 0.014025739 0.0049452973 -0.04474898
v -0.016082121 0.043220825 -0.011310831
v -0.018093573 0.031657256 -0.03044856
v -0.0052173957 0.014619979 -0.04474899
v 0.014025739 -0.0049452973 -0.04474898
v -0.010135666 0.046277236 -0.002045127
v -0.00051410316 0.047311094 3.5762786E-09
v -0.023011832 0.03827553 -0.016345568
v -0.02100038 0.023655547 -0.035483293
v -0.0054323543 0.0049452973 -0.046794128
v 0.013390282 -0.014619904 -0.042793244
v -0.019336725 0.043220825 -0.00400087
v -0.028958296 0.031657256 -0.020665921
v -0.023011832 0.014619979 -0.038967237
v -0.0054323543 -0.0049452973 -0.046794128
v 0.0121471295 -0.023655547 -0.038967226
v -0.010135666 0.046277236 0.0020451294
v -0.00051410316 0.047311094 3.5762786E-09
v -0.033661608 0.023655547 -0.02408308
v -0.024040036 0.0049452973 -0.040748127
v -0.0052173957 -0.014619904 -0.04474899
v 0.010350621 -0.031657256 -0.033438146
v -0.03691621 0.014619979 -0.026447676
v -0.024040036 -0.0049452973 -0.040748127
v -0.0047968924 -0.023655547 -0.04074812
v 0.008079279 -0.03827545 -0.026447676
v -0.03857987 0.0049452973 -0.027656402
v -0.023011832 -0.014619904 -0.038967237
v -0.004189211 -0.031657256 -0.034966365
v 0.0054323613 -0.043220825 -0.018301306
v -0.03857987 -0.0049452973 -0.027656402
v -0.02100038 -0.023655547 -0.035483293
v -0.0034209024 -0.03827545 -0.027656402
v 0.0025255524 -0.046277236 -0.009355089
v -0.00051410316 -0.047311094 3.5762786E-09
v -0.0025255547 -0.043220825 -0.019137722
v -0.018093573 -0.031657256 -0.03044856
v -0.03691621 -0.014619904 -0.026447676
v -0.001542288 -0.046277236 -0.00978263
v -0.00051410316 -0.047311094 3.5762786E-09
v -0.014418464 -0.03827545 -0.02408308
v -0.033661608 -0.023655547 -0.02408308
v -0.010135666 -0.043220825 -0.016665049
v -0.028958296 -0.031657256 -0.020665921
v -0.0054323636 -0.046277236 -0.008518673
v -0.00051410316 -0.047311094 3.5762786E-09
v -0.023011832 -0.03827545 -0.016345568
v -0.016082121 -0.043220825 -0.011310831
v -0.00847201 -0.046277236 -0.0057817614
v -0.00051410316 -0.047311094 3.5762786E-09
v -0.04452633 -0.014619904 -0.009355093
v -0.04059133 -0.023655547 -0.008518678
v -0.03490476 -0.031657256 -0.0073099625
v -0.027715154 -0.03827545 -0.0057817614
v -0.019336725 -0.043220825 -0.00400087
v -0.046537783 -0.0049452973 -0.009782635
v -0.010135666 -0.046277236 -0.002045127
v -0.00051410316 -0.047311094 3.5762786E-09
v -0.046537783 0.0049452973 -0.009782635
v -0.04452633 0.014619979 -0.009355093
v -0.04059133 0.023655547 -0.008518678
v -0.03490476 0.031657256 -0.0073099625
v -0.027715154 0.03827553 -0.0057817614
v -0.019336725 0.043220825 0.0040008724
v -0.027715154 0.03827553 0.0057817637
v -0.03490476 0.031657256 0.0073099597
v -0.04059133 0.023655547 0.008518675
v -0.04452633 0.014619979 0.009355086
v -0.00847201 0.046277236 0.0057817637
v -0.00051410316 0.047311094 3.5762786E-09
v -0.016082121 0.043220825 0.0113108335
v -0.02301184 0.03827553 0.016345572
v -0.028958306 0.031657256 0.020665927
v -0.0054323636 0.046277236 0.00851868
v -0.00051410316 0.047311094 3.5762786E-09
v -0.010135666 0.043220825 0.016665053
v -0.046537783 0.0049452973 0.009782633
v -0.03366162 0.023655547 0.02408308
v -0.014418464 0.03827553 0.02408308
v -0.0015422975 0.046277236 0.0097826375
v -0.00051410316 0.047311094 3.5762786E-09
v -0.0025255547 0.043220825 0.019137729
v -0.018093582 0.031657256 0.030448565
v -0.036916222 0.014619979 0.026447687
v -0.046537783 -0.0049452973 0.009782633
v 0.0025255524 0.046277236 0.009355095
v -0.00051410316 0.047311094 3.5762786E-09
v -0.003420912 0.03827553 0.027656406
v -0.021000389 0.023655547 0.035483297
v -0.038579877 0.0049452973 0.027656402
v -0.04452633 -0.014619904 0.009355086
v 0.0054323566 0.043220825 0.018301323
v -0.004189211 0.031657256 0.03496637
v -0.02301184 0.014619979 0.03896724
v -0.038579877 -0.0049452973 0.027656402
v -0.04059133 -0.023655547 0.008518675
v 0.0060678185 0.046277236 0.007309965
v -0.00051410316 0.047311094 3.5762786E-09
v -0.0047969017 0.023655547 0.040748127
v -0.024040045 0.0049452973 0.040748127
v -0.036916222 -0.014619904 0.026447687
v -0.03490476 -0.031657256 0.0073099597
v -0.0052174055 0.014619979 0.044749007
v -0.024040045 -0.0049452973 0.040748127
v -0.03366162 -0.023655547 0.02408308
v -0.027715154 -0.03827545 0.0057817637
v -0.0054323636 0.0049452973 0.046794128
v -0.02301184 -0.014619904 0.03896724
v -0.028958306 -0.031657256 0.020665927
v -0.019336725 -0.043220825 0.0040008724
v -0.0054323636 -0.0049452973 0.046794128
v -0.021000389 -0.023655547 0.035483297
v -0.02301184 -0.03827545 0.016345572
v -0.010135666 -0.046277236 0.0020451294
v -0.00051410316 -0.047311094 3.5762786E-09
v -0.016082121 -0.043220825 0.0113108335
v -0.018093582 -0.031657256 0.030448565
v -0.0052174055 -0.014619904 0.044749007
v -0.00847201 -0.046277236 0.0057817637
v -0.00051410316 -0.047311094 3.5762786E-09
v -0.014418464 -0.03827545 0.02408308
v -0.0047969017 -0.023655547 0.040748127
v -0.010135666 -0.043220825 0.016665053
v -0.004189211 -0.031657256 0.03496637
v -0.0054323636 -0.046277236 0.00851868
v -0.00051410316 -0.047311094 3.5762786E-09
v -0.003420912 -0.03827545 0.027656406
v -0.0025255547 -0.043220825 0.019137729
v -0.0015422975 -0.046277236 0.0097826375
v -0.00051410316 -0.047311094 3.5762786E-09
v 0.013390273 -0.014619904 0.042793263
v 0.01214712 -0.023655547 0.038967244
v 0.010350617 -0.031657256 0.033438172
v 0.008079275 -0.03827545 0.026447691
v 0.0054323566 -0.043220825 0.018301323
v 0.014025729 -0.0049452973 0.044749007
v 0.0025255524 -0.046277236 0.009355095
v -0.00051410316 -0.047311094 3.5762786E-09
v 0.014025729 0.0049452973 0.044749007
v 0.013390273 0.014619979 0.042793263
v 0.01214712 0.023655547 0.038967244
v 0.010350617 0.031657256 0.033438172
v 0.008079275 0.03827553 0.026447691
v 0.012362073 0.043220825 0.014300445
v 0.01809358 0.03827553 0.02066593
v 0.02301184 0.031657256 0.02612821
v 0.026901912 0.023655547 0.030448565
v 0.029593762 0.014619979 0.033438172
v 0.008472012 0.046277236 0.004000877
v -0.00051410316 0.047311094 3.5762786E-09
v 0.017065385 0.043220825 0.0078268945
v 0.024890456 0.03827553 0.011310838
v 0.031605218 0.031657256 0.014300445
v 0.009322427 0.046277236 3.5762786E-09
v -0.00051410316 0.047311094 3.5762786E-09
v 0.018729046 0.043220825 3.5762786E-09
v 0.008472012 0.046277236 -0.004000865
v -0.00051410316 0.047311094 3.5762786E-09
v 0.017065385 0.043220825 -0.007826882
v 0.027294649 0.03827553 3.5762786E-09
v 0.024890447 0.03827553 -0.011310821
v 0.034644876 0.031657256 3.5762786E-09
v 0.031605214 0.031657256 -0.014300428
v 0.03691622 0.023655547 0.016665056
v 0.04045848 0.023655547 3.5762786E-09
v 0.03691621 0.023655547 -0.016665036
v 0.04059133 0.014619979 0.018301323
v 0.0444814 0.014619979 3.5762786E-09
v 0.040591326 0.014619979 -0.018301297
v 0.030969758 0.0049452973 0.03496637
v 0.042469934 0.0049452973 0.019137729
v 0.046537783 0.0049452973 3.5762786E-09
v 0.04246993 0.0049452973 -0.019137712
v 0.030969758 -0.0049452973 0.03496637
v 0.042469934 -0.0049452973 0.019137729
v 0.046537783 -0.0049452973 3.5762786E-09
v 0.04246993 -0.0049452973 -0.019137712
v 0.029593762 -0.014619904 0.033438172
v 0.04059133 -0.014619904 0.018301323
v 0.0444814 -0.014619904 3.5762786E-09
v 0.040591326 -0.014619904 -0.018301297
v 0.026901912 -0.023655547 0.030448565
v 0.03691622 -0.023655547 0.016665056
v 0.04045848 -0.023655547 3.5762786E-09
v 0.03691621 -0.023655547 -0.016665036
v 0.02301184 -0.031657256 0.02612821
v 0.031605218 -0.031657256 0.014300445
v 0.034644876 -0.031657256 3.5762786E-09
v 0.031605214 -0.031657256 -0.014300428
v 0.01809358 -0.03827545 0.02066593
v 0.024890456 -0.03827545 0.011310838
v 0.027294649 -0.03827545 3.5762786E-09
v 0.024890447 -0.03827545 -0.011310821
v 0.012362073 -0.043220825 0.014300445
v 0.017065385 -0.043220825 0.0078268945
v 0.018729046 -0.043220825 3.5762786E-09
v 0.017065385 -0.043220825 -0.007826882
v 0.0060678185 -0.046277236 0.007309965
v -0.00051410316 -0.047311094 3.5762786E-09
v 0.008472012 -0.046277236 0.004000877
v -0.00051410316 -0.047311094 3.5762786E-09
v 0.009322427 -0.046277236 3.5762786E-09
v -0.00051410316 -0.047311094 3.5762786E-09
v 0.008472012 -0.046277236 -0.004000865
v -0.00051410316 -0.047311094 3.5762786E-09
vt 0.06666667 0.06666667
vt 0.033333335 0
vt 0 0.06666667
vt 0.06666667 0.13333334
vt 0 0.13333334
vt 0.06666667 0.20000002
vt 0 0.20000002
vt 0.06666667 0.26666668
vt 0 0.26666668
vt 0.06666667 0.33333334
vt 0 0.33333334
vt 0.06666667 0.4
vt 0 0.4
vt 0.06666667 0.46666667
vt 0 0.46666667
vt 0.06666667 0.53333336
vt 0 0.53333336
vt 0.06666667 0.6
vt 0 0.6
vt 0.06666667 0.6666667
vt 0 0.6666667
vt 0.06666667 0.73333335
vt 0 0.73333335
vt 0.06666667 0.8
vt 0 0.8
vt 0.06666667 0.8666667
vt 0 0.8666667
vt 0.06666667 0.93333334
vt 0 0.93333334
vt 0.033333335 1
vt 0.13333334 0.93333334
vt 0.10000001 1
vt 0.13333334 0.8666667
vt 0.13333334 0.8
vt 0.13333334 0.73333335
vt 0.20000002 0.93333334
vt 0.16666667 1
vt 0.20000002 0.8666667
vt 0.13333334 0.6666667
vt 0.20000002 0.8
vt 0.26666668 0.93333334
vt 0.23333335 1
vt 0.26666668 0.8666667
vt 0.20000002 0.73333335
vt 0.13333334 0.6
vt 0.33333334 0.93333334
vt 0.3 1
vt 0.26666668 0.8
vt 0.20000002 0.6666667
vt 0.13333334 0.53333336
vt 0.33333334 0.8666667
vt 0.26666668 0.73333335
vt 0.20000002 0.6
vt 0.13333334 0.46666667
vt 0.4 0.93333334
vt 0.36666667 1
vt 0.33333334 0.8
vt 0.26666668 0.6666667
vt 0.20000002 0.53333336
vt 0.13333334 0.4
vt 0.4 0.8666667
vt 0.33333334 0.73333335
vt 0.26666668 0.6
vt 0.20000002 0.46666667
vt 0.13333334 0.33333334
vt 0.46666667 0.93333334
vt 0.43333337 1
vt 0.33333334 0.6666667
vt 0.26666668 0.53333336
vt 0.20000002 0.4
vt 0.13333334 0.26666668
vt 0.33333334 0.6
vt 0.26666668 0.46666667
vt 0.20000002 0.33333334
vt 0.13333334 0.20000002
vt 0.33333334 0.53333336
vt 0.26666668 0.4
vt 0.20000002 0.26666668
vt 0.13333334 0.13333334
vt 0.33333334 0.46666667
vt 0.26666668 0.33333334
vt 0.20000002 0.20000002
vt 0.13333334 0.06666667
vt 0.10000001 0
vt 0.20000002 0.13333334
vt 0.26666668 0.26666668
vt 0.33333334 0.4
vt 0.20000002 0.06666667
vt 0.16666667 0
vt 0.26666668 0.20000002
vt 0.33333334 0.33333334
vt 0.26666668 0.13333334
vt 0.33333334 0.26666668
vt 0.26666668 0.06666667
vt 0.23333335 0
vt 0.33333334 0.20000002
vt 0.33333334 0.13333334
vt 0.33333334 0.06666667
vt 0.3 0
vt 0.4 0.4
vt 0.4 0.33333334
vt 0.4 0.26666668
vt 0.4 0.20000002
vt 0.4 0.13333334
vt 0.4 0.46666667
vt 0.4 0.06666667
vt 0.36666667 0
vt 0.4 0.53333336
vt 0.4 0.6
vt 0.4 0.6666667
vt 0.4 0.73333335
vt 0.4 0.8
vt 0.46666667 0.8666667
vt 0.46666667 0.8
vt 0.46666667 0.73333335
vt 0.46666667 0.6666667
vt 0.46666667 0.6
vt 0.53333336 0.93333334
vt 0.50000006 1
vt 0.53333336 0.8666667
vt 0.53333336 0.8
vt 0.53333336 0.73333335
vt 0.6 0.93333334
vt 0.5666667 1
vt 0.6 0.8666667
vt 0.46666667 0.53333336
vt 0.53333336 0.6666667
vt 0.6 0.8
vt 0.6666667 0.93333334
vt 0.6333334 1
vt 0.6666667 0.8666667
vt 0.6 0.73333335
vt 0.53333336 0.6
vt 0.46666667 0.46666667
vt 0.73333335 0.93333334
vt 0.70000005 1
vt 0.6666667 0.8
vt 0.6 0.6666667
vt 0.53333336 0.53333336
vt 0.46666667 0.4
vt 0.73333335 0.8666667
vt 0.6666667 0.73333335
vt 0.6 0.6
vt 0.53333336 0.46666667
vt 0.46666667 0.33333334
vt 0.8 0.93333334
vt 0.7666667 1
vt 0.6666667 0.6666667
vt 0.6 0.53333336
vt 0.53333336 0.4
vt 0.46666667 0.26666668
vt 0.6666667 0.6
vt 0.6 0.46666667
vt 0.53333336 0.33333334
vt 0.46666667 0.20000002
vt 0.6666667 0.53333336
vt 0.6 0.4
vt 0.53333336 0.26666668
vt 0.46666667 0.13333334
vt 0.6666667 0.46666667
vt 0.6 0.33333334
vt 0.53333336 0.20000002
vt 0.46666667 0.06666667
vt 0.43333337 0
vt 0.53333336 0.13333334
vt 0.6 0.26666668
vt 0.6666667 0.4
vt 0.53333336 0.06666667
vt 0.50000006 0
vt 0.6 0.20000002
vt 0.6666667 0.33333334
vt 0.6 0.13333334
vt 0.6666667 0.26666668
vt 0.6 0.06666667
vt 0.5666667 0
vt 0.6666667 0.20000002
vt 0.6666667 0.13333334
vt 0.6666667 0.06666667
vt 0.6333334 0
vt 0.73333335 0.4
vt 0.73333335 0.33333334
vt 0.73333335 0.26666668
vt 0.73333335 0.20000002
vt 0.73333335 0.13333334
vt 0.73333335 0.46666667
vt 0.73333335 0.06666667
vt 0.70000005 0
vt 0.73333335 0.53333336
vt 0.73333335 0.6
vt 0.73333335 0.6666667
vt 0.73333335 0.73333335
vt 0.73333335 0.8
vt 0.8 0.8666667
vt 0.8 0.8
vt 0.8 0.73333335
vt 0.8 0.6666667
vt 0.8 0.6
vt 0.8666667 0.93333334
vt 0.83333343 1
vt 0.8666667 0.8666667
vt 0.8666667 0.8
vt 0.8666667 0.73333335
vt 0.93333334 0.93333334
vt 0.9000001 1
vt 0.93333334 0.8666667
vt 1 0.93333334
vt 0.96666676 1
vt 1 0.8666667
vt 0.93333334 0.8
vt 1 0.8
vt 0.93333334 0.73333335
vt 1 0.73333335
vt 0.8666667 0.6666667
vt 0.93333334 0.6666667
vt 1 0.6666667
vt 0.8666667 0.6
vt 0.93333334 0.6
vt 1 0.6
vt 0.8 0.53333336
vt 0.8666667 0.53333336
vt 0.93333334 0.53333336
vt 1 0.53333336
vt 0.8 0.46666667
vt 0.8666667 0.46666667
vt 0.93333334 0.46666667
vt 1 0.46666667
vt 0.8 0.4
vt 0.8666667 0.4
vt 0.93333334 0.4
vt 1 0.4
vt 0.8 0.33333334
vt 0.8666667 0.33333334
vt 0.93333334 0.33333334
vt 1 0.33333334
vt 0.8 0.26666668
vt 0.8666667 0.26666668
vt 0.93333334 0.26666668
vt 1 0.26666668
vt 0.8 0.20000002
vt 0.8666667 0.20000002
vt 0.93333334 0.20000002
vt 1 0.20000002
vt 0.8 0.13333334
vt 0.8666667 0.13333334
vt 0.93333334 0.13333334
vt 1 0.13333334
vt 0.8 0.06666667
vt 0.7666667 0
vt 0.8666667 0.06666667
vt 0.83333343 0
vt 0.93333334 0.06666667
vt 0.9000001 0
vt 1 0.06666667
vt 0.96666676 0
vn 0.17914647 -0.96349436 -0.19896
vn -0 -1 -3.178603E-07
vn 0.24458323 -0.9634942 -0.108894356
vn 0.29430774 -0.89807826 -0.3268614
vn 0.4018101 -0.8980784 -0.17889643
vn 0.4073158 -0.7933814 -0.45237133
vn 0.5560968 -0.79338145 -0.24759285
vn 0.5057505 -0.65476364 -0.56169474
vn 0.6904875 -0.654764 -0.30742636
vn 0.58389515 -0.48840323 -0.64848185
vn 0.7971759 -0.488404 -0.35492542
vn 0.63799715 -0.3014787 -0.7085691
vn 0.87104017 -0.30147898 -0.38781363
vn 0.66564655 -0.10191527 -0.7392753
vn 0.9087883 -0.10191525 -0.40461954
vn 0.66564775 0.10191514 -0.73927414
vn 0.90878874 0.10191488 -0.40461886
vn 0.637997 0.3014782 -0.7085695
vn 0.87104 0.30147865 -0.38781446
vn 0.58389294 0.48840448 -0.6484829
vn 0.7971743 0.48840538 -0.35492724
vn 0.50575143 0.6547622 -0.5616956
vn 0.69048893 0.6547626 -0.3074262
vn 0.40731645 0.79338014 -0.45237288
vn 0.5560981 0.7933807 -0.24759273
vn 0.29430497 0.89807993 -0.3268593
vn 0.4018059 0.89807975 -0.1788989
vn 0.17914647 0.96349406 -0.19896157
vn 0.24458311 0.9634938 -0.10889752
vn -0 1 -1.2507049E-06
vn 0.08273327 0.96349484 -0.2546228
vn -0 1 -1.2507049E-06
vn 0.1359159 0.89808077 -0.4183034
vn 0.18810672 0.79338074 -0.5789325
vn 0.23356633 0.6547632 -0.71884066
vn -0.027985327 0.96349496 -0.2662596
vn -0 1 -1.2507049E-06
vn -0.04597481 0.8980802 -0.43742234
vn 0.26965308 0.48840484 -0.82990843
vn -0.06362905 0.7933819 -0.6053895
vn -0.1338649 0.96349514 -0.23185626
vn -0 1 -1.2507049E-06
vn -0.21991616 0.8980815 -0.3809024
vn -0.07900614 0.6547639 -0.7516929
vn 0.29463935 0.30147853 -0.90680677
vn -0.21659827 0.96349496 -0.15736158
vn -0 1 -1.2507049E-06
vn -0.30436328 0.7933826 -0.5271689
vn -0.091213055 0.48840538 -0.86783665
vn 0.30740896 0.10191517 -0.94610417
vn -0.35583177 0.89808154 -0.2585211
vn -0.37791723 0.6547626 -0.65457195
vn -0.09966459 0.30147904 -0.94824964
vn 0.30740872 -0.1019153 -0.94610417
vn -0.2618794 0.9634942 -0.055660613
vn -0 1 -1.2507049E-06
vn -0.49246946 0.7933817 -0.3577978
vn -0.4363084 0.48840505 -0.7557086
vn -0.103983626 0.10191515 -0.98934364
vn 0.2946405 -0.30147952 -0.90680593
vn -0.43022013 0.89808047 -0.09144447
vn -0.61148274 0.6547622 -0.44426936
vn -0.47673663 0.3014796 -0.82573134
vn -0.10398428 -0.1019157 -0.9893435
vn 0.269654 -0.48840317 -0.82990897
vn -0.26187944 0.9634942 0.055660706
vn -0 1 -1.2507049E-06
vn -0.70596117 0.48840535 -0.51291233
vn -0.49739665 0.1019152 -0.861516
vn -0.09966559 -0.3014803 -0.9482491
vn 0.23356548 -0.6547643 -0.71883994
vn -0.77137583 0.30147934 -0.56043696
vn -0.49739617 -0.10191561 -0.86151624
vn -0.09121319 -0.48840415 -0.86783725
vn 0.18810692 -0.79338276 -0.5789297
vn -0.8048045 0.10191492 -0.58472466
vn -0.47673577 -0.30147934 -0.82573193
vn -0.079005525 -0.6547646 -0.7516924
vn 0.13591692 -0.8980778 -0.41830942
vn -0.8048037 -0.10191518 -0.5847257
vn -0.43630925 -0.48840332 -0.75570923
vn -0.06362876 -0.79338217 -0.60538924
vn 0.082733266 -0.96349525 -0.2546215
vn -0 -1 -3.178603E-07
vn -0.045975015 -0.89807856 -0.43742567
vn -0.37791708 -0.6547647 -0.65457
vn -0.7713751 -0.30147913 -0.5604381
vn -0.027985277 -0.9634954 -0.26625812
vn -0 -1 -3.178603E-07
vn -0.30436215 -0.7933817 -0.5271709
vn -0.7059624 -0.48840377 -0.51291203
vn -0.2199178 -0.8980779 -0.38090974
vn -0.61148244 -0.6547651 -0.4442654
vn -0.13386482 -0.9634955 -0.23185499
vn -0 -1 -3.178603E-07
vn -0.49246833 -0.79338205 -0.3577985
vn -0.35583436 -0.89807713 -0.25853312
vn -0.21659823 -0.96349394 -0.15736802
vn -0 -1 -3.178603E-07
vn -0.9326371 -0.30147925 -0.19823796
vn -0.85354877 -0.4884043 -0.1814268
vn -0.73931634 -0.6547646 -0.15714535
vn -0.59542215 -0.79338187 -0.12656087
vn -0.43022406 -0.8980782 -0.091448314
vn -0.97305447 -0.101915136 -0.20682937
vn -0.2618794 -0.96349394 -0.055664666
vn -0 -1 -3.178603E-07
vn -0.97305447 0.101914756 -0.20682944
vn -0.932637 0.30147895 -0.19823904
vn -0.8535475 0.48840594 -0.18142831
vn -0.73931754 0.65476274 -0.15714763
vn -0.5954233 0.793381 -0.1265613
vn -0.43022004 0.89808047 0.09144444
vn -0.59542316 0.7933811 0.12656125
vn -0.7393173 0.65476316 0.15714675
vn -0.85354763 0.48840597 0.18142778
vn -0.932637 0.30147898 0.19823906
vn -0.21659827 0.9634946 0.15736406
vn -0 1 -1.2507049E-06
vn -0.35583153 0.89808106 0.25852352
vn -0.49246943 0.7933817 0.35779795
vn -0.6114827 0.65476346 0.44426766
vn -0.13386497 0.9634942 0.23186018
vn -0 1 -1.2507049E-06
vn -0.2199161 0.8980803 0.3809051
vn -0.97305435 0.10191507 0.20682955
vn -0.7059613 0.48840582 0.5129119
vn -0.30436343 0.79338163 0.52717024
vn -0.027985612 0.9634955 0.26625788
vn -0 1 -1.2507049E-06
vn -0.045974936 0.8980795 0.4374236
vn -0.37791753 0.6547625 0.65457195
vn -0.7713756 0.30147904 0.5604373
vn -0.9730546 -0.10191545 0.2068286
vn 0.08273328 0.9634966 0.25461632
vn -0 1 -1.2507049E-06
vn -0.063629 0.7933799 0.6053921
vn -0.43630788 0.48840532 0.75570875
vn -0.8048045 0.10191545 0.5847246
vn -0.932637 -0.30147922 0.19823824
vn 0.13591559 0.8980806 0.41830397
vn -0.0790061 0.654763 0.7516938
vn -0.47673708 0.30147922 0.82573116
vn -0.8048044 -0.10191578 0.58472484
vn -0.85354865 -0.4884041 0.18142782
vn 0.17914651 0.9634947 0.1989584
vn -0 1 -1.2507049E-06
vn -0.091213144 0.48840535 0.86783653
vn -0.4973975 0.10191548 0.86151546
vn -0.77137524 -0.30147913 0.56043786
vn -0.7393163 -0.6547648 0.15714525
vn -0.09966518 0.30147895 0.9482495
vn -0.49739662 -0.10191546 0.8615161
vn -0.705962 -0.48840353 0.51291287
vn -0.5954221 -0.79338187 0.12656106
vn -0.10398462 0.10191508 0.9893435
vn -0.47673634 -0.30147886 0.82573175
vn -0.6114819 -0.6547649 0.44426668
vn -0.43022412 -0.89807826 0.09144694
vn -0.10398445 -0.101915136 0.9893435
vn -0.4363085 -0.4884031 0.75570977
vn -0.4924681 -0.79338175 0.35779968
vn -0.26187927 -0.96349406 0.055664618
vn -0 -1 -3.178603E-07
vn -0.35583448 -0.8980778 0.25853065
vn -0.37791649 -0.65476465 0.6545704
vn -0.099665225 -0.3014797 0.94824934
vn -0.21659808 -0.96349394 0.15736803
vn -0 -1 -3.178603E-07
vn -0.30436233 -0.7933822 0.5271701
vn -0.09121322 -0.4884033 0.86783785
vn -0.21991783 -0.8980778 0.38091
vn -0.07900602 -0.6547638 0.75169295
vn -0.13386515 -0.96349525 0.23185533
vn -0 -1 -3.178603E-07
vn -0.063629515 -0.79338336 0.6053876
vn -0.045975536 -0.8980785 0.43742576
vn -0.0279857 -0.9634955 0.26625782
vn -0 -1 -3.178603E-07
vn 0.29463917 -0.30147877 0.90680665
vn 0.2696526 -0.48840278 0.8299098
vn 0.23356523 -0.6547639 0.7188405
vn 0.18810649 -0.7933829 0.57892954
vn 0.13591692 -0.898079 0.4183072
vn 0.30740833 -0.10191526 0.9461043
vn 0.082733065 -0.9634947 0.25462356
vn -0 -1 -3.178603E-07
vn 0.30740777 0.10191483 0.9461046
vn 0.2946388 0.30147865 0.9068068
vn 0.26965323 0.48840556 0.8299079
vn 0.23356606 0.65476376 0.71884024
vn 0.1881065 0.7933804 0.57893306
vn 0.2943046 0.8980801 0.3268591
vn 0.40731654 0.79338056 0.45237204
vn 0.505752 0.65476286 0.56169444
vn 0.5838941 0.4884054 0.6484812
vn 0.6379973 0.30147868 0.70856905
vn 0.24458343 0.96349436 0.1088924
vn -0 1 -1.2507049E-06
vn 0.401806 0.8980802 0.17889665
vn 0.5560982 0.79338056 0.24759251
vn 0.69048935 0.6547629 0.30742484
vn 0.26772967 0.96349406 -5.151673E-06
vn -0 1 -1.2507049E-06
vn 0.43983164 0.8980802 -2.1125338E-06
vn 0.24458311 0.9634938 -0.10889752
vn -0 1 -1.2507049E-06
vn 0.4018059 0.89807975 -0.1788989
vn 0.60872555 0.79338086 0
vn 0.5560981 0.7933807 -0.24759273
vn 0.7558345 0.65476274 -7.001668E-07
vn 0.69048893 0.6547626 -0.3074262
vn 0.79717493 0.48840594 0.354925
vn 0.8726166 0.48840597 -1.0970019E-06
vn 0.7971743 0.48840538 -0.35492724
vn 0.8710406 0.30147883 0.3878127
vn 0.9534728 0.30147895 -7.493775E-07
vn 0.87104 0.30147865 -0.38781446
vn 0.66564715 0.10191484 0.73927486
vn 0.90878874 0.10191467 0.40461895
vn 0.9947931 0.10191469 -2.3760096E-07
vn 0.90878874 0.10191488 -0.40461886
vn 0.6656467 -0.10191529 0.73927516
vn 0.9087886 -0.10191504 0.4046192
vn 0.9947931 -0.101915106 0
vn 0.9087883 -0.10191525 -0.40461954
vn 0.63799644 -0.30147818 0.70857
vn 0.8710407 -0.30147895 0.38781255
vn 0.9534728 -0.3014792 0
vn 0.87104017 -0.30147898 -0.38781363
vn 0.5838942 -0.48840335 0.6484826
vn 0.7971757 -0.48840407 0.35492587
vn 0.8726176 -0.4884041 0
vn 0.7971759 -0.488404 -0.35492542
vn 0.50575125 -0.6547645 0.5616932
vn 0.6904877 -0.6547639 0.30742636
vn 0.75583315 -0.65476435 6.3869066E-07
vn 0.6904875 -0.654764 -0.30742636
vn 0.40731633 -0.79338247 0.45236892
vn 0.5560969 -0.79338145 0.24759264
vn 0.6087243 -0.79338175 2.4255519E-06
vn 0.5560968 -0.79338145 -0.24759285
vn 0.29430783 -0.89807874 0.32686004
vn 0.4018098 -0.8980781 0.17889875
vn 0.43983582 -0.8980782 2.6868754E-06
vn 0.4018101 -0.8980784 -0.17889643
vn 0.17914625 -0.9634937 0.19896324
vn -0 -1 -3.178603E-07
vn 0.2445833 -0.9634942 0.10889489
vn -0 -1 -3.178603E-07
vn 0.26772967 -0.96349406 0
vn -0 -1 -3.178603E-07
vn 0.24458323 -0.9634942 -0.108894356
vn -0 -1 -3.178603E-07
g planet_3M_0
f 3/3/3 2/2/2 1/1/1
f 1/1/1 4/4/4 3/3/3
f 4/4/4 5/5/5 3/3/3
f 4/4/4 6/6/6 5/5/5
f 6/6/6 7/7/7 5/5/5
f 6/6/6 8/8/8 7/7/7
f 8/8/8 9/9/9 7/7/7
f 8/8/8 10/10/10 9/9/9
f 10/10/10 11/11/11 9/9/9
f 10/10/10 12/12/12 11/11/11
f 12/12/12 13/13/13 11/11/11
f 12/12/12 14/14/14 13/13/13
f 14/14/14 15/15/15 13/13/13
f 14/14/14 16/16/16 15/15/15
f 16/16/16 17/17/17 15/15/15
f 16/16/16 18/18/18 17/17/17
f 18/18/18 19/19/19 17/17/17
f 18/18/18 20/20/20 19/19/19
f 20/20/20 21/21/21 19/19/19
f 20/20/20 22/22/22 21/21/21
f 22/22/22 23/23/23 21/21/21
f 22/22/22 24/24/24 23/23/23
f 24/24/24 25/25/25 23/23/23
f 24/24/24 26/26/26 25/25/25
f 26/26/26 27/27/27 25/25/25
f 26/26/26 28/28/28 27/27/27
f 28/28/28 29/29/29 27/27/27
f 28/28/28 30/30/30 29/29/29
f 31/31/31 28/28/28 26/26/26
f 31/31/31 32/32/32 28/28/28
f 33/33/33 26/26/26 24/24/24
f 33/33/33 31/31/31 26/26/26
f 34/34/34 24/24/24 22/22/22
f 34/34/34 33/33/33 24/24/24
f 35/35/35 22/22/22 20/20/20
f 35/35/35 34/34/34 22/22/22
f 36/36/36 31/31/31 33/33/33
f 36/36/36 37/37/37 31/31/31
f 38/38/38 33/33/33 34/34/34
f 38/38/38 36/36/36 33/33/33
f 39/39/39 35/35/35 20/20/20
f 39/39/39 20/20/20 18/18/18
f 40/40/40 34/34/34 35/35/35
f 40/40/40 38/38/38 34/34/34
f 41/41/41 36/36/36 38/38/38
f 41/41/41 42/42/42 36/36/36
f 43/43/43 41/41/41 38/38/38
f 43/43/43 38/38/38 40/40/40
f 44/44/44 40/40/40 35/35/35
f 44/44/44 35/35/35 39/39/39
f 45/45/45 39/39/39 18/18/18
f 45/45/45 18/18/18 16/16/16
f 46/46/46 41/41/41 43/43/43
f 46/46/46 47/47/47 41/41/41
f 48/48/48 43/43/43 40/40/40
f 48/48/48 40/40/40 44/44/44
f 49/49/49 44/44/44 39/39/39
f 49/49/49 39/39/39 45/45/45
f 50/50/50 45/45/45 16/16/16
f 50/50/50 16/16/16 14/14/14
f 51/51/51 46/46/46 43/43/43
f 51/51/51 43/43/43 48/48/48
f 52/52/52 48/48/48 44/44/44
f 52/52/52 44/44/44 49/49/49
f 53/53/53 49/49/49 45/45/45
f 53/53/53 45/45/45 50/50/50
f 54/54/54 50/50/50 14/14/14
f 54/54/54 14/14/14 12/12/12
f 55/55/55 46/46/46 51/51/51
f 55/55/55 56/56/56 46/46/46
f 57/57/57 51/51/51 48/48/48
f 57/57/57 48/48/48 52/52/52
f 58/58/58 52/52/52 49/49/49
f 58/58/58 49/49/49 53/53/53
f 59/59/59 53/53/53 50/50/50
f 59/59/59 50/50/50 54/54/54
f 60/60/60 54/54/54 12/12/12
f 60/60/60 12/12/12 10/10/10
f 61/61/61 55/55/55 51/51/51
f 61/61/61 51/51/51 57/57/57
f 62/62/62 57/57/57 52/52/52
f 62/62/62 52/52/52 58/58/58
f 63/63/63 58/58/58 53/53/53
f 63/63/63 53/53/53 59/59/59
f 64/64/64 59/59/59 54/54/54
f 64/64/64 54/54/54 60/60/60
f 65/65/65 60/60/60 10/10/10
f 65/65/65 10/10/10 8/8/8
f 66/66/66 55/55/55 61/61/61
f 66/66/66 67/67/67 55/55/55
f 68/68/68 62/62/62 58/58/58
f 68/68/68 58/58/58 63/63/63
f 69/69/69 63/63/63 59/59/59
f 69/69/69 59/59/59 64/64/64
f 70/70/70 64/64/64 60/60/60
f 70/70/70 60/60/60 65/65/65
f 71/71/71 65/65/65 8/8/8
f 71/71/71 8/8/8 6/6/6
f 72/72/72 68/68/68 63/63/63
f 72/72/72 63/63/63 69/69/69
f 73/73/73 69/69/69 64/64/64
f 73/73/73 64/64/64 70/70/70
f 74/74/74 70/70/70 65/65/65
f 74/74/74 65/65/65 71/71/71
f 75/75/75 71/71/71 6/6/6
f 75/75/75 6/6/6 4/4/4
f 76/76/76 72/72/72 69/69/69
f 76/76/76 69/69/69 73/73/73
f 77/77/77 73/73/73 70/70/70
f 77/77/77 70/70/70 74/74/74
f 78/78/78 74/74/74 71/71/71
f 78/78/78 71/71/71 75/75/75
f 79/79/79 75/75/75 4/4/4
f 79/79/79 4/4/4 1/1/1
f 80/80/80 76/76/76 73/73/73
f 80/80/80 73/73/73 77/77/77
f 81/81/81 77/77/77 74/74/74
f 81/81/81 74/74/74 78/78/78
f 82/82/82 78/78/78 75/75/75
f 82/82/82 75/75/75 79/79/79
f 83/83/83 79/79/79 1/1/1
f 1/1/1 84/84/84 83/83/83
f 85/85/85 79/79/79 83/83/83
f 85/85/85 82/82/82 79/79/79
f 86/86/86 78/78/78 82/82/82
f 86/86/86 81/81/81 78/78/78
f 87/87/87 77/77/77 81/81/81
f 87/87/87 80/80/80 77/77/77
f 88/88/88 85/85/85 83/83/83
f 83/83/83 89/89/89 88/88/88
f 90/90/90 82/82/82 85/85/85
f 90/90/90 86/86/86 82/82/82
f 91/91/91 81/81/81 86/86/86
f 91/91/91 87/87/87 81/81/81
f 92/92/92 85/85/85 88/88/88
f 92/92/92 90/90/90 85/85/85
f 93/93/93 86/86/86 90/90/90
f 93/93/93 91/91/91 86/86/86
f 94/94/94 92/92/92 88/88/88
f 88/88/88 95/95/95 94/94/94
f 96/96/96 90/90/90 92/92/92
f 96/96/96 93/93/93 90/90/90
f 97/97/97 92/92/92 94/94/94
f 97/97/97 96/96/96 92/92/92
f 98/98/98 97/97/97 94/94/94
f 94/94/94 99/99/99 98/98/98
f 100/100/100 87/87/87 91/91/91
f 101/101/101 91/91/91 93/93/93
f 101/101/101 100/100/100 91/91/91
f 102/102/102 93/93/93 96/96/96
f 102/102/102 101/101/101 93/93/93
f 103/103/103 96/96/96 97/97/97
f 103/103/103 102/102/102 96/96/96
f 104/104/104 97/97/97 98/98/98
f 104/104/104 103/103/103 97/97/97
f 100/100/100 105/105/105 87/87/87
f 105/105/105 80/80/80 87/87/87
f 106/106/106 104/104/104 98/98/98
f 98/98/98 107/107/107 106/106/106
f 105/105/105 108/108/108 80/80/80
f 108/108/108 76/76/76 80/80/80
f 108/108/108 109/109/109 76/76/76
f 109/109/109 72/72/72 76/76/76
f 109/109/109 110/110/110 72/72/72
f 110/110/110 68/68/68 72/72/72
f 110/110/110 111/111/111 68/68/68
f 111/111/111 62/62/62 68/68/68
f 111/111/111 112/112/112 62/62/62
f 112/112/112 57/57/57 62/62/62
f 112/112/112 61/61/61 57/57/57
f 113/113/113 61/61/61 112/112/112
f 113/113/113 66/66/66 61/61/61
f 114/114/114 112/112/112 111/111/111
f 114/114/114 113/113/113 112/112/112
f 115/115/115 111/111/111 110/110/110
f 115/115/115 114/114/114 111/111/111
f 116/116/116 110/110/110 109/109/109
f 116/116/116 115/115/115 110/110/110
f 117/117/117 109/109/109 108/108/108
f 117/117/117 116/116/116 109/109/109
f 118/118/118 66/66/66 113/113/113
f 118/118/118 119/119/119 66/66/66
f 120/120/120 113/113/113 114/114/114
f 120/120/120 118/118/118 113/113/113
f 121/121/121 114/114/114 115/115/115
f 121/121/121 120/120/120 114/114/114
f 122/122/122 115/115/115 116/116/116
f 122/122/122 121/121/121 115/115/115
f 123/123/123 118/118/118 120/120/120
f 123/123/123 124/124/124 118/118/118
f 125/125/125 120/120/120 121/121/121
f 125/125/125 123/123/123 120/120/120
f 126/126/126 117/117/117 108/108/108
f 126/126/126 108/108/108 105/105/105
f 127/127/127 116/116/116 117/117/117
f 127/127/127 122/122/122 116/116/116
f 128/128/128 121/121/121 122/122/122
f 128/128/128 125/125/125 121/121/121
f 129/129/129 123/123/123 125/125/125
f 129/129/129 130/130/130 123/123/123
f 131/131/131 129/129/129 125/125/125
f 131/131/131 125/125/125 128/128/128
f 132/132/132 128/128/128 122/122/122
f 132/132/132 122/122/122 127/127/127
f 133/133/133 127/127/127 117/117/117
f 133/133/133 117/117/117 126/126/126
f 134/134/134 126/126/126 105/105/105
f 134/134/134 105/105/105 100/100/100
f 135/135/135 129/129/129 131/131/131
f 135/135/135 136/136/136 129/129/129
f 137/137/137 131/131/131 128/128/128
f 137/137/137 128/128/128 132/132/132
f 138/138/138 132/132/132 127/127/127
f 138/138/138 127/127/127 133/133/133
f 139/139/139 133/133/133 126/126/126
f 139/139/139 126/126/126 134/134/134
f 140/140/140 134/134/134 100/100/100
f 140/140/140 100/100/100 101/101/101
f 141/141/141 135/135/135 131/131/131
f 141/141/141 131/131/131 137/137/137
f 142/142/142 137/137/137 132/132/132
f 142/142/142 132/132/132 138/138/138
f 143/143/143 138/138/138 133/133/133
f 143/143/143 133/133/133 139/139/139
f 144/144/144 139/139/139 134/134/134
f 144/144/144 134/134/134 140/140/140
f 145/145/145 140/140/140 101/101/101
f 145/145/145 101/101/101 102/102/102
f 146/146/146 135/135/135 141/141/141
f 146/146/146 147/147/147 135/135/135
f 148/148/148 142/142/142 138/138/138
f 148/148/148 138/138/138 143/143/143
f 149/149/149 143/143/143 139/139/139
f 149/149/149 139/139/139 144/144/144
f 150/150/150 144/144/144 140/140/140
f 150/150/150 140/140/140 145/145/145
f 151/151/151 145/145/145 102/102/102
f 151/151/151 102/102/102 103/103/103
f 152/152/152 148/148/148 143/143/143
f 152/152/152 143/143/143 149/149/149
f 153/153/153 149/149/149 144/144/144
f 153/153/153 144/144/144 150/150/150
f 154/154/154 150/150/150 145/145/145
f 154/154/154 145/145/145 151/151/151
f 155/155/155 151/151/151 103/103/103
f 155/155/155 103/103/103 104/104/104
f 156/156/156 152/152/152 149/149/149
f 156/156/156 149/149/149 153/153/153
f 157/157/157 153/153/153 150/150/150
f 157/157/157 150/150/150 154/154/154
f 158/158/158 154/154/154 151/151/151
f 158/158/158 151/151/151 155/155/155
f 159/159/159 155/155/155 104/104/104
f 159/159/159 104/104/104 106/106/106
f 160/160/160 156/156/156 153/153/153
f 160/160/160 153/153/153 157/157/157
f 161/161/161 157/157/157 154/154/154
f 161/161/161 154/154/154 158/158/158
f 162/162/162 158/158/158 155/155/155
f 162/162/162 155/155/155 159/159/159
f 163/163/163 159/159/159 106/106/106
f 106/106/106 164/164/164 163/163/163
f 165/165/165 159/159/159 163/163/163
f 165/165/165 162/162/162 159/159/159
f 166/166/166 158/158/158 162/162/162
f 166/166/166 161/161/161 158/158/158
f 167/167/167 157/157/157 161/161/161
f 167/167/167 160/160/160 157/157/157
f 168/168/168 165/165/165 163/163/163
f 163/163/163 169/169/169 168/168/168
f 170/170/170 162/162/162 165/165/165
f 170/170/170 166/166/166 162/162/162
f 171/171/171 161/161/161 166/166/166
f 171/171/171 167/167/167 161/161/161
f 172/172/172 165/165/165 168/168/168
f 172/172/172 170/170/170 165/165/165
f 173/173/173 166/166/166 170/170/170
f 173/173/173 171/171/171 166/166/166
f 174/174/174 172/172/172 168/168/168
f 168/168/168 175/175/175 174/174/174
f 176/176/176 170/170/170 172/172/172
f 176/176/176 173/173/173 170/170/170
f 177/177/177 172/172/172 174/174/174
f 177/177/177 176/176/176 172/172/172
f 178/178/178 177/177/177 174/174/174
f 174/174/174 179/179/179 178/178/178
f 180/180/180 167/167/167 171/171/171
f 181/181/181 171/171/171 173/173/173
f 181/181/181 180/180/180 171/171/171
f 182/182/182 173/173/173 176/176/176
f 182/182/182 181/181/181 173/173/173
f 183/183/183 176/176/176 177/177/177
f 183/183/183 182/182/182 176/176/176
f 184/184/184 177/177/177 178/178/178
f 184/184/184 183/183/183 177/177/177
f 180/180/180 185/185/185 167/167/167
f 185/185/185 160/160/160 167/167/167
f 186/186/186 184/184/184 178/178/178
f 178/178/178 187/187/187 186/186/186
f 185/185/185 188/188/188 160/160/160
f 188/188/188 156/156/156 160/160/160
f 188/188/188 189/189/189 156/156/156
f 189/189/189 152/152/152 156/156/156
f 189/189/189 190/190/190 152/152/152
f 190/190/190 148/148/148 152/152/152
f 190/190/190 191/191/191 148/148/148
f 191/191/191 142/142/142 148/148/148
f 191/191/191 192/192/192 142/142/142
f 192/192/192 137/137/137 142/142/142
f 192/192/192 141/141/141 137/137/137
f 193/193/193 141/141/141 192/192/192
f 193/193/193 146/146/146 141/141/141
f 194/194/194 192/192/192 191/191/191
f 194/194/194 193/193/193 192/192/192
f 195/195/195 191/191/191 190/190/190
f 195/195/195 194/194/194 191/191/191
f 196/196/196 190/190/190 189/189/189
f 196/196/196 195/195/195 190/190/190
f 197/197/197 189/189/189 188/188/188
f 197/197/197 196/196/196 189/189/189
f 198/198/198 146/146/146 193/193/193
f 198/198/198 199/199/199 146/146/146
f 200/200/200 193/193/193 194/194/194
f 200/200/200 198/198/198 193/193/193
f 201/201/201 194/194/194 195/195/195
f 201/201/201 200/200/200 194/194/194
f 202/202/202 195/195/195 196/196/196
f 202/202/202 201/201/201 195/195/195
f 203/203/203 198/198/198 200/200/200
f 203/203/203 204/204/204 198/198/198
f 205/205/205 200/200/200 201/201/201
f 205/205/205 203/203/203 200/200/200
f 206/206/206 203/203/203 205/205/205
f 206/206/206 207/207/207 203/203/203
f 208/208/208 206/206/206 205/205/205
f 209/209/209 205/205/205 201/201/201
f 208/208/208 205/205/205 209/209/209
f 209/209/209 201/201/201 202/202/202
f 210/210/210 208/208/208 209/209/209
f 210/210/210 209/209/209 211/211/211
f 211/211/211 209/209/209 202/202/202
f 212/212/212 210/210/210 211/211/211
f 213/213/213 202/202/202 196/196/196
f 211/211/211 202/202/202 213/213/213
f 213/213/213 196/196/196 197/197/197
f 212/212/212 211/211/211 214/214/214
f 214/214/214 211/211/211 213/213/213
f 215/215/215 212/212/212 214/214/214
f 216/216/216 213/213/213 197/197/197
f 214/214/214 213/213/213 216/216/216
f 215/215/215 214/214/214 217/217/217
f 217/217/217 214/214/214 216/216/216
f 218/218/218 215/215/215 217/217/217
f 216/216/216 197/197/197 219/219/219
f 219/219/219 197/197/197 188/188/188
f 219/219/219 188/188/188 185/185/185
f 217/217/217 216/216/216 220/220/220
f 220/220/220 216/216/216 219/219/219
f 218/218/218 217/217/217 221/221/221
f 221/221/221 217/217/217 220/220/220
f 222/222/222 218/218/218 221/221/221
f 223/223/223 219/219/219 185/185/185
f 220/220/220 219/219/219 223/223/223
f 223/223/223 185/185/185 180/180/180
f 221/221/221 220/220/220 224/224/224
f 224/224/224 220/220/220 223/223/223
f 222/222/222 221/221/221 225/225/225
f 225/225/225 221/221/221 224/224/224
f 226/226/226 222/222/222 225/225/225
f 227/227/227 223/223/223 180/180/180
f 224/224/224 223/223/223 227/227/227
f 227/227/227 180/180/180 181/181/181
f 225/225/225 224/224/224 228/228/228
f 228/228/228 224/224/224 227/227/227
f 226/226/226 225/225/225 229/229/229
f 229/229/229 225/225/225 228/228/228
f 230/230/230 226/226/226 229/229/229
f 231/231/231 227/227/227 181/181/181
f 228/228/228 227/227/227 231/231/231
f 231/231/231 181/181/181 182/182/182
f 229/229/229 228/228/228 232/232/232
f 232/232/232 228/228/228 231/231/231
f 230/230/230 229/229/229 233/233/233
f 233/233/233 229/229/229 232/232/232
f 234/234/234 230/230/230 233/233/233
f 235/235/235 231/231/231 182/182/182
f 232/232/232 231/231/231 235/235/235
f 235/235/235 182/182/182 183/183/183
f 233/233/233 232/232/232 236/236/236
f 236/236/236 232/232/232 235/235/235
f 234/234/234 233/233/233 237/237/237
f 237/237/237 233/233/233 236/236/236
f 238/238/238 234/234/234 237/237/237
f 239/239/239 235/235/235 183/183/183
f 236/236/236 235/235/235 239/239/239
f 239/239/239 183/183/183 184/184/184
f 237/237/237 236/236/236 240/240/240
f 240/240/240 236/236/236 239/239/239
f 238/238/238 237/237/237 241/241/241
f 241/241/241 237/237/237 240/240/240
f 242/242/242 238/238/238 241/241/241
f 243/243/243 239/239/239 184/184/184
f 240/240/240 239/239/239 243/243/243
f 243/243/243 184/184/184 186/186/186
f 241/241/241 240/240/240 244/244/244
f 244/244/244 240/240/240 243/243/243
f 242/242/242 241/241/241 245/245/245
f 245/245/245 241/241/241 244/244/244
f 246/246/246 242/242/242 245/245/245
f 247/247/247 243/243/243 186/186/186
f 244/244/244 243/243/243 247/247/247
f 186/186/186 248/248/248 247/247/247
f 249/249/249 244/244/244 247/247/247
f 245/245/245 244/244/244 249/249/249
f 247/247/247 250/250/250 249/249/249
f 246/246/246 245/245/245 251/251/251
f 251/251/251 245/245/245 249/249/249
f 249/249/249 252/252/252 251/251/251
f 253/253/253 246/246/246 251/251/251
f 251/251/251 254/254/254 253/253/253
