g planet_2L
v 0.00728384 -0.055551298 -0.008774891
v -0.0006171226 -0.05679237 1.9073486E-08
v 0.010169811 -0.055551298 -0.0048026466
v 0.014839496 -0.0518824 -0.01716629
v 0.020485325 -0.0518824 -0.009395408
v 0.021719608 -0.045946043 -0.024807433
v 0.029878596 -0.045946043 -0.013577556
v 0.0276235 -0.038001478 -0.031364363
v 0.037939012 -0.038001478 -0.01716627
v 0.03229315 -0.028396148 -0.03655054
v 0.044314366 -0.028396148 -0.02000475
v 0.035524424 -0.01754982 -0.040139273
v 0.048725985 -0.01754982 -0.021968955
v 0.037176225 -0.0059363553 -0.041973725
v 0.050981045 -0.0059363553 -0.022972966
v 0.037176225 0.0059363553 -0.041973725
v 0.050981045 0.0059363553 -0.022972966
v 0.035524424 0.01754982 -0.040139273
v 0.048725985 0.01754982 -0.021968955
v 0.03229315 0.028396225 -0.03655054
v 0.044314366 0.028396225 -0.02000475
v 0.0276235 0.038001478 -0.031364363
v 0.037939012 0.038001478 -0.01716627
v 0.021719608 0.045946043 -0.024807433
v 0.029878596 0.045946043 -0.013577556
v 0.014839496 0.0518824 -0.01716629
v 0.020485325 0.0518824 -0.009395408
v 0.00728384 0.055551298 -0.008774891
v 0.010169811 0.055551298 -0.0048026466
v -0.0006171226 0.05679237 1.9073486E-08
v 0.0030316734 0.055551298 -0.011229877
v -0.0006171226 0.05679237 1.9073486E-08
v 0.006521015 0.0518824 -0.021968955
v 0.009698391 0.045946043 -0.031747892
v 0.012424908 0.038001478 -0.040139273
v -0.0018513679 0.055551298 -0.011743107
v -0.0006171226 0.05679237 1.9073486E-08
v -0.0030316734 0.0518824 -0.022972984
v 0.01458147 0.028396225 -0.046776406
v -0.0041064643 0.045946043 -0.033198833
v -0.006521015 0.055551298 -0.010225849
v -0.0006171226 0.05679237 1.9073486E-08
v -0.012166881 0.0518824 -0.020004768
v -0.0050287438 0.038001478 -0.041973725
v 0.016073741 0.01754982 -0.05136917
v -0.010169811 0.055551298 -0.006940441
v -0.0006171226 0.05679237 1.9073486E-08
v -0.017307948 0.045946043 -0.028909415
v -0.00575819 0.028396225 -0.048914183
v 0.016836528 0.0059363553 -0.05371685
v -0.019305019 0.0518824 -0.013577556
v -0.02171957 0.038001478 -0.03655056
v -0.006262989 0.01754982 -0.05371685
v 0.016836528 -0.0059363553 -0.05371685
v -0.012166881 0.055551298 -0.0024550057
v -0.0006171226 0.05679237 1.9073486E-08
v -0.0276235 0.045946043 -0.019621277
v -0.02520891 0.028396225 -0.04259426
v -0.006521015 0.0059363553 -0.056171816
v 0.016073741 -0.01754982 -0.05136917
v -0.02321188 0.0518824 -0.0048026466
v -0.034761637 0.038001478 -0.024807453
v -0.0276235 0.01754982 -0.046776406
v -0.006521015 -0.0059363553 -0.056171816
v 0.01458147 -0.028396148 -0.046776406
v -0.012166881 0.055551298 0.0024550057
v -0.0006171226 0.05679237 1.9073486E-08
v -0.040407468 0.028396225 -0.028909415
v -0.028857708 0.0059363553 -0.048914183
v -0.006262989 -0.01754982 -0.05371685
v 0.012424908 -0.038001478 -0.040139273
v -0.044314325 0.01754982 -0.031747892
v -0.028857708 -0.0059363553 -0.048914183
v -0.00575819 -0.028396148 -0.048914183
v 0.009698391 -0.045946043 -0.031747892
v -0.046311397 0.0059363553 -0.033198833
v -0.0276235 -0.01754982 -0.046776406
v -0.0050287438 -0.038001478 -0.041973725
v 0.006521015 -0.0518824 -0.021968955
v -0.046311397 -0.0059363553 -0.033198833
v -0.02520891 -0.028396148 -0.04259426
v -0.0041064643 -0.045946043 -0.033198833
v 0.0030316734 -0.055551298 -0.011229877
v -0.0006171226 -0.05679237 1.9073486E-08
v -0.0030316734 -0.0518824 -0.022972984
v -0.02171957 -0.038001478 -0.03655056
v -0.044314325 -0.01754982 -0.031747892
v -0.0018513679 -0.055551298 -0.011743107
v -0.0006171226 -0.05679237 1.9073486E-08
v -0.017307948 -0.045946043 -0.028909415
v -0.040407468 -0.028396148 -0.028909415
v -0.012166881 -0.0518824 -0.020004768
v -0.034761637 -0.038001478 -0.024807453
v -0.006521015 -0.055551298 -0.010225849
v -0.0006171226 -0.05679237 1.9073486E-08
v -0.0276235 -0.045946043 -0.019621277
v -0.019305019 -0.0518824 -0.013577556
v -0.010169811 -0.055551298 -0.006940441
v -0.0006171226 -0.05679237 1.9073486E-08
v -0.05344957 -0.01754982 -0.011229877
v -0.048725948 -0.028396148 -0.010225868
v -0.041899815 -0.038001478 -0.00877491
v -0.033269327 -0.045946043 -0.006940441
v -0.02321188 -0.0518824 -0.0048026466
v -0.05586412 -0.0059363553 -0.011743107
v -0.012166881 -0.055551298 -0.0024550057
v -0.0006171226 -0.05679237 1.9073486E-08
v -0.05586412 0.0059363553 -0.011743107
v -0.05344957 0.01754982 -0.011229877
v -0.048725948 0.028396225 -0.010225868
v -0.041899815 0.038001478 -0.00877491
v -0.033269327 0.045946043 -0.006940441
v -0.02321188 0.0518824 0.0048026466
v -0.033269327 0.045946043 0.006940441
v -0.041899815 0.038001478 0.008774891
v -0.048725948 0.028396225 0.010225849
v -0.05344957 0.01754982 0.011229877
v -0.010169811 0.055551298 0.006940441
v -0.0006171226 0.05679237 1.9073486E-08
v -0.019305019 0.0518824 0.013577556
v -0.0276235 0.045946043 0.019621296
v -0.034761637 0.038001478 0.024807414
v -0.006521015 0.055551298 0.010225849
v -0.0006171226 0.05679237 1.9073486E-08
v -0.012166881 0.0518824 0.020004787
v -0.05586412 0.0059363553 0.011743107
v -0.040407505 0.028396225 0.028909396
v -0.017307948 0.045946043 0.028909396
v -0.0018513679 0.055551298 0.011743107
v -0.0006171226 0.05679237 1.9073486E-08
v -0.0030316734 0.0518824 0.022973003
v -0.02171957 0.038001478 0.036550578
v -0.044314366 0.01754982 0.031747874
v -0.05586412 -0.0059363553 0.011743107
v 0.0030316734 0.055551298 0.011229877
v -0.0006171226 0.05679237 1.9073486E-08
v -0.0041064643 0.045946043 0.033198833
v -0.02520891 0.028396225 0.04259428
v -0.046311397 0.0059363553 0.033198833
v -0.05344957 -0.01754982 0.011229877
v 0.006521015 0.0518824 0.021968937
v -0.0050287438 0.038001478 0.041973744
v -0.0276235 0.01754982 0.046776406
v -0.046311397 -0.0059363553 0.033198833
v -0.048725948 -0.028396148 0.010225849
v 0.00728384 0.055551298 0.008774929
v -0.0006171226 0.05679237 1.9073486E-08
v -0.00575819 0.028396225 0.0489142
v -0.028857745 0.0059363553 0.0489142
v -0.044314366 -0.01754982 0.031747874
v -0.041899815 -0.038001478 0.008774891
v -0.006262989 0.01754982 0.05371687
v -0.028857745 -0.0059363553 0.0489142
v -0.040407505 -0.028396148 0.028909396
v -0.033269327 -0.045946043 0.006940441
v -0.006521015 0.0059363553 0.056171816
v -0.0276235 -0.01754982 0.046776406
v -0.034761637 -0.038001478 0.024807414
v -0.02321188 -0.0518824 0.0048026466
v -0.006521015 -0.0059363553 0.056171816
v -0.02520891 -0.028396148 0.04259428
v -0.0276235 -0.045946043 0.019621296
v -0.012166881 -0.055551298 0.0024550057
v -0.0006171226 -0.05679237 1.9073486E-08
v -0.019305019 -0.0518824 0.013577556
v -0.02171957 -0.038001478 0.036550578
v -0.006262989 -0.01754982 0.05371687
v -0.010169811 -0.055551298 0.006940441
v -0.0006171226 -0.05679237 1.9073486E-08
v -0.017307948 -0.045946043 0.028909396
v -0.00575819 -0.028396148 0.0489142
v -0.012166881 -0.0518824 0.020004787
v -0.0050287438 -0.038001478 0.041973744
v -0.006521015 -0.055551298 0.010225849
v -0.0006171226 -0.05679237 1.9073486E-08
v -0.0041064643 -0.045946043 0.033198833
v -0.0030316734 -0.0518824 0.022973003
v -0.0018513679 -0.055551298 0.011743107
v -0.0006171226 -0.05679237 1.9073486E-08
v 0.016073704 -0.01754982 0.05136915
v 0.014581432 -0.028396148 0.046776406
v 0.012424908 -0.038001478 0.04013929
v 0.009698391 -0.045946043 0.031747874
v 0.006521015 -0.0518824 0.021968937
v 0.016836528 -0.0059363553 0.05371687
v 0.0030316734 -0.055551298 0.011229877
v -0.0006171226 -0.05679237 1.9073486E-08
v 0.016836528 0.0059363553 0.05371687
v 0.016073704 0.01754982 0.05136915
v 0.014581432 0.028396225 0.046776406
v 0.012424908 0.038001478 0.04013929
v 0.009698391 0.045946043 0.031747874
v 0.014839496 0.0518824 0.017166309
v 0.021719608 0.045946043 0.024807453
v 0.0276235 0.038001478 0.03136438
v 0.03229315 0.028396225 0.036550578
v 0.035524424 0.01754982 0.04013929
v 0.010169849 0.055551298 0.0048026466
v -0.0006171226 0.05679237 1.9073486E-08
v 0.020485325 0.0518824 0.009395427
v 0.029878596 0.045946043 0.013577556
v 0.037939012 0.038001478 0.017166309
v 0.011190662 0.055551298 1.9073486E-08
v -0.0006171226 0.05679237 1.9073486E-08
v 0.022482395 0.0518824 1.9073486E-08
v 0.010169811 0.055551298 -0.0048026466
v -0.0006171226 0.05679237 1.9073486E-08
v 0.020485325 0.0518824 -0.009395408
v 0.032764606 0.045946043 1.9073486E-08
v 0.029878596 0.045946043 -0.013577556
v 0.04158785 0.038001478 1.9073486E-08
v 0.037939012 0.038001478 -0.01716627
v 0.044314366 0.028396225 0.020004787
v 0.04856653 0.028396225 1.9073486E-08
v 0.044314366 0.028396225 -0.02000475
v 0.048725985 0.01754982 0.021968937
v 0.053395595 0.01754982 1.9073486E-08
v 0.048725985 0.01754982 -0.021968955
v 0.037176225 0.0059363553 0.041973744
v 0.050981045 0.0059363553 0.022973003
v 0.05586412 0.0059363553 1.9073486E-08
v 0.050981045 0.0059363553 -0.022972966
v 0.037176225 -0.0059363553 0.041973744
v 0.050981045 -0.0059363553 0.022973003
v 0.05586412 -0.0059363553 1.9073486E-08
v 0.050981045 -0.0059363553 -0.022972966
v 0.035524424 -0.01754982 0.04013929
v 0.048725985 -0.01754982 0.021968937
v 0.053395595 -0.01754982 1.9073486E-08
v 0.048725985 -0.01754982 -0.021968955
v 0.03229315 -0.028396148 0.036550578
v 0.044314366 -0.028396148 0.020004787
v 0.04856653 -0.028396148 1.9073486E-08
v 0.044314366 -0.028396148 -0.02000475
v 0.0276235 -0.038001478 0.03136438
v 0.037939012 -0.038001478 0.017166309
v 0.04158785 -0.038001478 1.9073486E-08
v 0.037939012 -0.038001478 -0.01716627
v 0.021719608 -0.045946043 0.024807453
v 0.029878596 -0.045946043 0.013577556
v 0.032764606 -0.045946043 1.9073486E-08
v 0.029878596 -0.045946043 -0.013577556
v 0.014839496 -0.0518824 0.017166309
v 0.020485325 -0.0518824 0.009395427
v 0.022482395 -0.0518824 1.9073486E-08
v 0.020485325 -0.0518824 -0.009395408
v 0.00728384 -0.055551298 0.008774929
v -0.0006171226 -0.05679237 1.9073486E-08
v 0.010169849 -0.055551298 0.0048026466
v -0.0006171226 -0.05679237 1.9073486E-08
v 0.011190662 -0.055551298 1.9073486E-08
v -0.0006171226 -0.05679237 1.9073486E-08
v 0.010169811 -0.055551298 -0.0048026466
v -0.0006171226 -0.05679237 1.9073486E-08
vt 0.06666667 0.06666667
vt 0.033333335 0
vt 0 0.06666667
vt 0.06666667 0.13333334
vt 0 0.13333334
vt 0.06666667 0.20000002
vt 0 0.20000002
vt 0.06666667 0.26666668
vt 0 0.26666668
vt 0.06666667 0.33333334
vt 0 0.33333334
vt 0.06666667 0.4
vt 0 0.4
vt 0.06666667 0.46666667
vt 0 0.46666667
vt 0.06666667 0.53333336
vt 0 0.53333336
vt 0.06666667 0.6
vt 0 0.6
vt 0.06666667 0.6666667
vt 0 0.6666667
vt 0.06666667 0.73333335
vt 0 0.73333335
vt 0.06666667 0.8
vt 0 0.8
vt 0.06666667 0.8666667
vt 0 0.8666667
vt 0.06666667 0.93333334
vt 0 0.93333334
vt 0.033333335 1
vt 0.13333334 0.93333334
vt 0.10000001 1
vt 0.13333334 0.8666667
vt 0.13333334 0.8
vt 0.13333334 0.73333335
vt 0.20000002 0.93333334
vt 0.16666667 1
vt 0.20000002 0.8666667
vt 0.13333334 0.6666667
vt 0.20000002 0.8
vt 0.26666668 0.93333334
vt 0.23333335 1
vt 0.26666668 0.8666667
vt 0.20000002 0.73333335
vt 0.13333334 0.6
vt 0.33333334 0.93333334
vt 0.3 1
vt 0.26666668 0.8
vt 0.20000002 0.6666667
vt 0.13333334 0.53333336
vt 0.33333334 0.8666667
vt 0.26666668 0.73333335
vt 0.20000002 0.6
vt 0.13333334 0.46666667
vt 0.4 0.93333334
vt 0.36666667 1
vt 0.33333334 0.8
vt 0.26666668 0.6666667
vt 0.20000002 0.53333336
vt 0.13333334 0.4
vt 0.4 0.8666667
vt 0.33333334 0.73333335
vt 0.26666668 0.6
vt 0.20000002 0.46666667
vt 0.13333334 0.33333334
vt 0.46666667 0.93333334
vt 0.43333337 1
vt 0.33333334 0.6666667
vt 0.26666668 0.53333336
vt 0.20000002 0.4
vt 0.13333334 0.26666668
vt 0.33333334 0.6
vt 0.26666668 0.46666667
vt 0.20000002 0.33333334
vt 0.13333334 0.20000002
vt 0.33333334 0.53333336
vt 0.26666668 0.4
vt 0.20000002 0.26666668
vt 0.13333334 0.13333334
vt 0.33333334 0.46666667
vt 0.26666668 0.33333334
vt 0.20000002 0.20000002
vt 0.13333334 0.06666667
vt 0.10000001 0
vt 0.20000002 0.13333334
vt 0.26666668 0.26666668
vt 0.33333334 0.4
vt 0.20000002 0.06666667
vt 0.16666667 0
vt 0.26666668 0.20000002
vt 0.33333334 0.33333334
vt 0.26666668 0.13333334
vt 0.33333334 0.26666668
vt 0.26666668 0.06666667
vt 0.23333335 0
vt 0.33333334 0.20000002
vt 0.33333334 0.13333334
vt 0.33333334 0.06666667
vt 0.3 0
vt 0.4 0.4
vt 0.4 0.33333334
vt 0.4 0.26666668
vt 0.4 0.20000002
vt 0.4 0.13333334
vt 0.4 0.46666667
vt 0.4 0.06666667
vt 0.36666667 0
vt 0.4 0.53333336
vt 0.4 0.6
vt 0.4 0.6666667
vt 0.4 0.73333335
vt 0.4 0.8
vt 0.46666667 0.8666667
vt 0.46666667 0.8
vt 0.46666667 0.73333335
vt 0.46666667 0.6666667
vt 0.46666667 0.6
vt 0.53333336 0.93333334
vt 0.50000006 1
vt 0.53333336 0.8666667
vt 0.53333336 0.8
vt 0.53333336 0.73333335
vt 0.6 0.93333334
vt 0.5666667 1
vt 0.6 0.8666667
vt 0.46666667 0.53333336
vt 0.53333336 0.6666667
vt 0.6 0.8
vt 0.6666667 0.93333334
vt 0.6333334 1
vt 0.6666667 0.8666667
vt 0.6 0.73333335
vt 0.53333336 0.6
vt 0.46666667 0.46666667
vt 0.73333335 0.93333334
vt 0.70000005 1
vt 0.6666667 0.8
vt 0.6 0.6666667
vt 0.53333336 0.53333336
vt 0.46666667 0.4
vt 0.73333335 0.8666667
vt 0.6666667 0.73333335
vt 0.6 0.6
vt 0.53333336 0.46666667
vt 0.46666667 0.33333334
vt 0.8 0.93333334
vt 0.7666667 1
vt 0.6666667 0.6666667
vt 0.6 0.53333336
vt 0.53333336 0.4
vt 0.46666667 0.26666668
vt 0.6666667 0.6
vt 0.6 0.46666667
vt 0.53333336 0.33333334
vt 0.46666667 0.20000002
vt 0.6666667 0.53333336
vt 0.6 0.4
vt 0.53333336 0.26666668
vt 0.46666667 0.13333334
vt 0.6666667 0.46666667
vt 0.6 0.33333334
vt 0.53333336 0.20000002
vt 0.46666667 0.06666667
vt 0.43333337 0
vt 0.53333336 0.13333334
vt 0.6 0.26666668
vt 0.6666667 0.4
vt 0.53333336 0.06666667
vt 0.50000006 0
vt 0.6 0.20000002
vt 0.6666667 0.33333334
vt 0.6 0.13333334
vt 0.6666667 0.26666668
vt 0.6 0.06666667
vt 0.5666667 0
vt 0.6666667 0.20000002
vt 0.6666667 0.13333334
vt 0.6666667 0.06666667
vt 0.6333334 0
vt 0.73333335 0.4
vt 0.73333335 0.33333334
vt 0.73333335 0.26666668
vt 0.73333335 0.20000002
vt 0.73333335 0.13333334
vt 0.73333335 0.46666667
vt 0.73333335 0.06666667
vt 0.70000005 0
vt 0.73333335 0.53333336
vt 0.73333335 0.6
vt 0.73333335 0.6666667
vt 0.73333335 0.73333335
vt 0.73333335 0.8
vt 0.8 0.8666667
vt 0.8 0.8
vt 0.8 0.73333335
vt 0.8 0.6666667
vt 0.8 0.6
vt 0.8666667 0.93333334
vt 0.83333343 1
vt 0.8666667 0.8666667
vt 0.8666667 0.8
vt 0.8666667 0.73333335
vt 0.93333334 0.93333334
vt 0.9000001 1
vt 0.93333334 0.8666667
vt 1 0.93333334
vt 0.96666676 1
vt 1 0.8666667
vt 0.93333334 0.8
vt 1 0.8
vt 0.93333334 0.73333335
vt 1 0.73333335
vt 0.8666667 0.6666667
vt 0.93333334 0.6666667
vt 1 0.6666667
vt 0.8666667 0.6
vt 0.93333334 0.6
vt 1 0.6
vt 0.8 0.53333336
vt 0.8666667 0.53333336
vt 0.93333334 0.53333336
vt 1 0.53333336
vt 0.8 0.46666667
vt 0.8666667 0.46666667
vt 0.93333334 0.46666667
vt 1 0.46666667
vt 0.8 0.4
vt 0.8666667 0.4
vt 0.93333334 0.4
vt 1 0.4
vt 0.8 0.33333334
vt 0.8666667 0.33333334
vt 0.93333334 0.33333334
vt 1 0.33333334
vt 0.8 0.26666668
vt 0.8666667 0.26666668
vt 0.93333334 0.26666668
vt 1 0.26666668
vt 0.8 0.20000002
vt 0.8666667 0.20000002
vt 0.93333334 0.20000002
vt 1 0.20000002
vt 0.8 0.13333334
vt 0.8666667 0.13333334
vt 0.93333334 0.13333334
vt 1 0.13333334
vt 0.8 0.06666667
vt 0.7666667 0
vt 0.8666667 0.06666667
vt 0.83333343 0
vt 0.93333334 0.06666667
vt 0.9000001 0
vt 1 0.06666667
vt 0.96666676 0
vn 0.17914574 -0.9634942 -0.19896178
vn -0 -1 0
vn 0.24458286 -0.96349394 -0.108896814
vn 0.29430428 -0.8980812 -0.32685658
vn 0.40180567 -0.8980806 -0.178895
vn 0.40731645 -0.7933814 -0.45237073
vn 0.55609846 -0.7933811 -0.2475903
vn 0.50575274 -0.65476185 -0.56169486
vn 0.69049025 -0.65476114 -0.30742657
vn 0.583895 -0.48840505 -0.6484806
vn 0.7971753 -0.48840448 -0.35492614
vn 0.63799727 -0.30147976 -0.70856863
vn 0.8710409 -0.30147853 -0.3878125
vn 0.6656466 -0.10191558 -0.73927516
vn 0.90878904 -0.101914294 -0.4046184
vn 0.6656463 0.10191551 -0.7392755
vn 0.9087886 0.1019143 -0.40461925
vn 0.6379978 0.301479 -0.70856833
vn 0.87104106 0.30147776 -0.38781258
vn 0.5838962 0.4884049 -0.6484797
vn 0.7971758 0.48840407 -0.35492557
vn 0.5057519 0.6547634 -0.5616938
vn 0.69048834 0.6547629 -0.30742714
vn 0.40731645 0.7933824 -0.45236918
vn 0.5560977 0.79338133 -0.24759111
vn 0.29430428 0.8980823 -0.3268534
vn 0.40180534 0.89808047 -0.17889623
vn 0.17914619 0.9634947 -0.19895892
vn 0.24458273 0.96349394 -0.10889759
vn -0 1 -3.5404523E-07
vn 0.082732454 0.9634947 -0.2546237
vn -0 1 -3.5404523E-07
vn 0.13591541 0.8980826 -0.41829976
vn 0.18810645 0.7933828 -0.57892984
vn 0.23356539 0.654765 -0.71883935
vn -0.027985519 0.96349293 -0.26626697
vn -0 1 -3.5404523E-07
vn -0.0459751 0.8980815 -0.43741983
vn 0.26965442 0.4884056 -0.8299076
vn -0.063629106 0.7933825 -0.6053887
vn -0.13386443 0.9634936 -0.23186268
vn -0 1 -3.5404523E-07
vn -0.21991572 0.8980807 -0.38090453
vn -0.07900579 0.65476304 -0.7516937
vn 0.2946398 0.30147934 -0.90680623
vn -0.21659641 0.9634938 -0.15737067
vn -0 1 -3.5404523E-07
vn -0.30436224 0.79338306 -0.52716875
vn -0.09121232 0.4884047 -0.867837
vn 0.3074078 0.10191553 -0.94610447
vn -0.35583013 0.89807993 -0.25852907
vn -0.3779164 0.65476245 -0.6545726
vn -0.09966514 0.30147937 -0.94824946
vn 0.307408 -0.101915576 -0.9461044
vn -0.2618779 0.9634943 -0.055667292
vn -0 1 -3.5404523E-07
vn -0.4924682 0.7933827 -0.35779756
vn -0.43630812 0.48840392 -0.7557095
vn -0.10398443 0.1019146 -0.9893435
vn 0.29463983 -0.30148003 -0.90680593
vn -0.43022048 0.89807993 -0.09144781
vn -0.61148286 0.65476286 -0.44426817
vn -0.47673732 0.3014789 -0.82573116
vn -0.10398439 -0.10191433 -0.98934364
vn 0.26965407 -0.48840612 -0.82990724
vn -0.26187757 0.9634943 0.055667344
vn -0 1 -3.5404523E-07
vn -0.705962 0.48840323 -0.51291317
vn -0.49739695 0.101914264 -0.861516
vn -0.099665344 -0.30147934 -0.94824946
vn 0.23356557 -0.6547633 -0.7188409
vn -0.77137536 0.30147868 -0.5604379
vn -0.49739638 -0.10191405 -0.86151636
vn -0.09121329 -0.48840594 -0.8678363
vn 0.18810631 -0.7933816 -0.57893157
vn -0.8048047 0.10191439 -0.58472466
vn -0.4767359 -0.30147883 -0.82573205
vn -0.079006724 -0.6547623 -0.75169426
vn 0.1359151 -0.89808077 -0.41830358
vn -0.8048046 -0.10191443 -0.5847248
vn -0.43630767 -0.48840475 -0.75570923
vn -0.063629076 -0.7933814 -0.60539025
vn 0.08273195 -0.96349317 -0.25463
vn -0 -1 0
vn -0.045975186 -0.8980806 -0.4374214
vn -0.37791738 -0.65476197 -0.65457255
vn -0.77137536 -0.30147955 -0.56043744
vn -0.02798547 -0.9634925 -0.2662686
vn -0 -1 0
vn -0.3043621 -0.793383 -0.527169
vn -0.70596194 -0.48840436 -0.51291233
vn -0.21991563 -0.89808124 -0.38090318
vn -0.611483 -0.65476114 -0.4442705
vn -0.13386442 -0.9634934 -0.2318639
vn -0 -1 0
vn -0.49246758 -0.793382 -0.3577999
vn -0.35583046 -0.89808077 -0.2585259
vn -0.21659668 -0.96349484 -0.1573641
vn -0 -1 0
vn -0.9326364 -0.30148122 -0.1982382
vn -0.853548 -0.48840547 -0.18142775
vn -0.73931795 -0.6547619 -0.1571489
vn -0.59542125 -0.79338217 -0.12656315
vn -0.43022045 -0.8980802 -0.09144633
vn -0.97305435 -0.101915374 -0.20682962
vn -0.26187775 -0.9634946 -0.055660877
vn -0 -1 0
vn -0.97305447 0.10191534 -0.20682937
vn -0.93263656 0.3014803 -0.19823869
vn -0.8535483 0.48840454 -0.18142818
vn -0.7393168 0.65476376 -0.15714642
vn -0.59542155 0.7933824 -0.12656072
vn -0.43022 0.8980804 0.09144601
vn -0.5954214 0.79338247 0.12656102
vn -0.73931694 0.65476346 0.15714699
vn -0.8535482 0.48840487 0.18142806
vn -0.93263644 0.3014809 0.19823815
vn -0.21659665 0.96349406 0.15736902
vn -0 1 -3.5404523E-07
vn -0.35583007 0.89808 0.25852892
vn -0.4924689 0.793382 0.357798
vn -0.6114837 0.6547637 0.44426575
vn -0.13386519 0.9634937 0.23186162
vn -0 1 -3.5404523E-07
vn -0.21991631 0.8980802 0.38090527
vn -0.97305447 0.1019157 0.20682873
vn -0.7059613 0.48840433 0.5129131
vn -0.3043634 0.7933836 0.5271673
vn -0.027984662 0.96349275 0.26626804
vn -0 1 -3.5404523E-07
vn -0.0459752 0.89808166 0.4374192
vn -0.3779175 0.65476495 0.65456957
vn -0.77137446 0.3014806 0.5604381
vn -0.97305447 -0.101915725 0.20682876
vn 0.08273185 0.9634937 0.25462767
vn -0 1 -3.5404523E-07
vn -0.063629076 0.7933834 0.60538757
vn -0.43630734 0.48840454 0.75570947
vn -0.80480486 0.10191583 0.5847241
vn -0.9326364 -0.30148175 0.19823779
vn 0.13591553 0.8980815 0.41830215
vn -0.07900564 0.654763 0.7516938
vn -0.4767357 0.30147946 0.82573193
vn -0.8048047 -0.10191546 0.5847244
vn -0.8535483 -0.4884049 0.18142734
vn 0.17914526 0.9634942 0.19896232
vn -0 1 -3.5404523E-07
vn -0.09121271 0.48840386 0.86783755
vn -0.4973972 0.1019156 0.86151564
vn -0.77137506 -0.3014812 0.56043696
vn -0.73931885 -0.6547613 0.15714726
vn -0.09966509 0.30147898 0.94824964
vn -0.4973968 -0.10191505 0.86151594
vn -0.705962 -0.48840466 0.512912
vn -0.5954214 -0.7933824 0.1265611
vn -0.10398429 0.10191517 0.9893435
vn -0.4767353 -0.3014798 0.82573205
vn -0.61148465 -0.6547605 0.44426915
vn -0.43021986 -0.89808047 0.09144599
vn -0.10398413 -0.10191486 0.9893435
vn -0.43630692 -0.4884049 0.7557095
vn -0.4924688 -0.79338145 0.35779932
vn -0.26187733 -0.9634945 0.055664506
vn -0 -1 0
vn -0.35583028 -0.89808047 0.2585272
vn -0.3779172 -0.65476197 0.65457267
vn -0.09966496 -0.30147955 0.94824946
vn -0.21659663 -0.96349406 0.157369
vn -0 -1 0
vn -0.3043629 -0.7933825 0.5271692
vn -0.0912129 -0.4884049 0.8678369
vn -0.21991637 -0.89808047 0.38090435
vn -0.07900578 -0.6547618 0.75169474
vn -0.13386509 -0.96349317 0.2318643
vn -0 -1 0
vn -0.063628905 -0.79338247 0.6053888
vn -0.045975145 -0.8980807 0.43742117
vn -0.027984727 -0.96349216 0.26626974
vn -0 -1 0
vn 0.29463935 -0.30148047 0.90680605
vn 0.26965338 -0.48840427 0.82990855
vn 0.23356518 -0.6547613 0.71884274
vn 0.188106 -0.79338115 0.57893217
vn 0.13591528 -0.89808077 0.41830352
vn 0.30740792 -0.10191627 0.9461044
vn 0.08273187 -0.9634928 0.2546311
vn -0 -1 0
vn 0.30740786 0.10191643 0.9461043
vn 0.29463953 0.30147964 0.90680623
vn 0.2696532 0.48840395 0.82990885
vn 0.23356456 0.6547633 0.7188412
vn 0.18810625 0.79338247 0.5789304
vn 0.29430425 0.8980809 0.3268574
vn 0.40731722 0.79338133 0.45237002
vn 0.50575083 0.6547639 0.56169426
vn 0.58389467 0.48840424 0.64848155
vn 0.63799673 0.30147922 0.7085692
vn 0.24458359 0.9634942 0.108894184
vn -0 1 -3.5404523E-07
vn 0.4018057 0.8980802 0.17889681
vn 0.55609775 0.7933811 0.24759172
vn 0.6904878 0.65476376 0.30742627
vn 0.26772833 0.9634945 -3.6508468E-06
vn -0 1 -3.5404523E-07
vn 0.43983138 0.8980804 -1.4665809E-06
vn 0.24458273 0.96349394 -0.10889759
vn -0 1 -3.5404523E-07
vn 0.40180534 0.89808047 -0.17889623
vn 0.6087238 0.7933822 0
vn 0.5560977 0.79338133 -0.24759111
vn 0.75583357 0.65476376 0
vn 0.69048834 0.6547629 -0.30742714
vn 0.79717517 0.4884046 0.35492632
vn 0.87261736 0.48840448 3.6427522E-07
vn 0.7971758 0.48840407 -0.35492557
vn 0.8710408 0.3014782 0.38781297
vn 0.95347327 0.3014778 0
vn 0.87104106 0.30147776 -0.38781258
vn 0.6656458 0.1019167 0.73927575
vn 0.90878844 0.101914786 0.40461954
vn 0.99479324 0.10191359 -3.2261119E-07
vn 0.9087886 0.1019143 -0.40461925
vn 0.66564655 -0.1019168 0.73927504
vn 0.9087886 -0.10191487 0.40461904
vn 0.99479324 -0.10191359 1.4696732E-07
vn 0.90878904 -0.101914294 -0.4046184
vn 0.63799673 -0.30148026 0.7085688
vn 0.8710409 -0.30147913 0.38781196
vn 0.9534729 -0.30147853 -1.7584513E-07
vn 0.8710409 -0.30147853 -0.3878125
vn 0.5838944 -0.4884038 0.6484822
vn 0.7971753 -0.48840448 0.35492623
vn 0.8726172 -0.48840478 0
vn 0.7971753 -0.48840448 -0.35492614
vn 0.50575197 -0.6547614 0.5616962
vn 0.6904894 -0.6547618 0.30742702
vn 0.75583535 -0.6547616 4.740486E-07
vn 0.69049025 -0.65476114 -0.30742657
vn 0.40731627 -0.7933808 0.4523719
vn 0.55609787 -0.7933817 0.24758987
vn 0.60872394 -0.79338205 0
vn 0.55609846 -0.7933811 -0.2475903
vn 0.294304 -0.89808124 0.32685637
vn 0.40180582 -0.8980806 0.17889495
vn 0.43983117 -0.89808047 0
vn 0.40180567 -0.8980806 -0.178895
vn 0.1791453 -0.9634945 0.19896059
vn -0 -1 0
vn 0.24458349 -0.9634938 0.108896926
vn -0 -1 0
vn 0.26772863 -0.96349436 0
vn -0 -1 0
vn 0.24458286 -0.96349394 -0.108896814
vn -0 -1 0
g planet_2L_0
f 3/3/3 2/2/2 1/1/1
f 1/1/1 4/4/4 3/3/3
f 4/4/4 5/5/5 3/3/3
f 4/4/4 6/6/6 5/5/5
f 6/6/6 7/7/7 5/5/5
f 6/6/6 8/8/8 7/7/7
f 8/8/8 9/9/9 7/7/7
f 8/8/8 10/10/10 9/9/9
f 10/10/10 11/11/11 9/9/9
f 10/10/10 12/12/12 11/11/11
f 12/12/12 13/13/13 11/11/11
f 12/12/12 14/14/14 13/13/13
f 14/14/14 15/15/15 13/13/13
f 14/14/14 16/16/16 15/15/15
f 16/16/16 17/17/17 15/15/15
f 16/16/16 18/18/18 17/17/17
f 18/18/18 19/19/19 17/17/17
f 18/18/18 20/20/20 19/19/19
f 20/20/20 21/21/21 19/19/19
f 20/20/20 22/22/22 21/21/21
f 22/22/22 23/23/23 21/21/21
f 22/22/22 24/24/24 23/23/23
f 24/24/24 25/25/25 23/23/23
f 24/24/24 26/26/26 25/25/25
f 26/26/26 27/27/27 25/25/25
f 26/26/26 28/28/28 27/27/27
f 28/28/28 29/29/29 27/27/27
f 28/28/28 30/30/30 29/29/29
f 31/31/31 28/28/28 26/26/26
f 31/31/31 32/32/32 28/28/28
f 33/33/33 26/26/26 24/24/24
f 33/33/33 31/31/31 26/26/26
f 34/34/34 24/24/24 22/22/22
f 34/34/34 33/33/33 24/24/24
f 35/35/35 22/22/22 20/20/20
f 35/35/35 34/34/34 22/22/22
f 36/36/36 31/31/31 33/33/33
f 36/36/36 37/37/37 31/31/31
f 38/38/38 33/33/33 34/34/34
f 38/38/38 36/36/36 33/33/33
f 39/39/39 35/35/35 20/20/20
f 39/39/39 20/20/20 18/18/18
f 40/40/40 34/34/34 35/35/35
f 40/40/40 38/38/38 34/34/34
f 41/41/41 36/36/36 38/38/38
f 41/41/41 42/42/42 36/36/36
f 43/43/43 41/41/41 38/38/38
f 43/43/43 38/38/38 40/40/40
f 44/44/44 40/40/40 35/35/35
f 44/44/44 35/35/35 39/39/39
f 45/45/45 39/39/39 18/18/18
f 45/45/45 18/18/18 16/16/16
f 46/46/46 41/41/41 43/43/43
f 46/46/46 47/47/47 41/41/41
f 48/48/48 43/43/43 40/40/40
f 48/48/48 40/40/40 44/44/44
f 49/49/49 44/44/44 39/39/39
f 49/49/49 39/39/39 45/45/45
f 50/50/50 45/45/45 16/16/16
f 50/50/50 16/16/16 14/14/14
f 51/51/51 46/46/46 43/43/43
f 51/51/51 43/43/43 48/48/48
f 52/52/52 48/48/48 44/44/44
f 52/52/52 44/44/44 49/49/49
f 53/53/53 49/49/49 45/45/45
f 53/53/53 45/45/45 50/50/50
f 54/54/54 50/50/50 14/14/14
f 54/54/54 14/14/14 12/12/12
f 55/55/55 46/46/46 51/51/51
f 55/55/55 56/56/56 46/46/46
f 57/57/57 51/51/51 48/48/48
f 57/57/57 48/48/48 52/52/52
f 58/58/58 52/52/52 49/49/49
f 58/58/58 49/49/49 53/53/53
f 59/59/59 53/53/53 50/50/50
f 59/59/59 50/50/50 54/54/54
f 60/60/60 54/54/54 12/12/12
f 60/60/60 12/12/12 10/10/10
f 61/61/61 55/55/55 51/51/51
f 61/61/61 51/51/51 57/57/57
f 62/62/62 57/57/57 52/52/52
f 62/62/62 52/52/52 58/58/58
f 63/63/63 58/58/58 53/53/53
f 63/63/63 53/53/53 59/59/59
f 64/64/64 59/59/59 54/54/54
f 64/64/64 54/54/54 60/60/60
f 65/65/65 60/60/60 10/10/10
f 65/65/65 10/10/10 8/8/8
f 66/66/66 55/55/55 61/61/61
f 66/66/66 67/67/67 55/55/55
f 68/68/68 62/62/62 58/58/58
f 68/68/68 58/58/58 63/63/63
f 69/69/69 63/63/63 59/59/59
f 69/69/69 59/59/59 64/64/64
f 70/70/70 64/64/64 60/60/60
f 70/70/70 60/60/60 65/65/65
f 71/71/71 65/65/65 8/8/8
f 71/71/71 8/8/8 6/6/6
f 72/72/72 68/68/68 63/63/63
f 72/72/72 63/63/63 69/69/69
f 73/73/73 69/69/69 64/64/64
f 73/73/73 64/64/64 70/70/70
f 74/74/74 70/70/70 65/65/65
f 74/74/74 65/65/65 71/71/71
f 75/75/75 71/71/71 6/6/6
f 75/75/75 6/6/6 4/4/4
f 76/76/76 72/72/72 69/69/69
f 76/76/76 69/69/69 73/73/73
f 77/77/77 73/73/73 70/70/70
f 77/77/77 70/70/70 74/74/74
f 78/78/78 74/74/74 71/71/71
f 78/78/78 71/71/71 75/75/75
f 79/79/79 75/75/75 4/4/4
f 79/79/79 4/4/4 1/1/1
f 80/80/80 76/76/76 73/73/73
f 80/80/80 73/73/73 77/77/77
f 81/81/81 77/77/77 74/74/74
f 81/81/81 74/74/74 78/78/78
f 82/82/82 78/78/78 75/75/75
f 82/82/82 75/75/75 79/79/79
f 83/83/83 79/79/79 1/1/1
f 1/1/1 84/84/84 83/83/83
f 85/85/85 79/79/79 83/83/83
f 85/85/85 82/82/82 79/79/79
f 86/86/86 78/78/78 82/82/82
f 86/86/86 81/81/81 78/78/78
f 87/87/87 77/77/77 81/81/81
f 87/87/87 80/80/80 77/77/77
f 88/88/88 85/85/85 83/83/83
f 83/83/83 89/89/89 88/88/88
f 90/90/90 82/82/82 85/85/85
f 90/90/90 86/86/86 82/82/82
f 91/91/91 81/81/81 86/86/86
f 91/91/91 87/87/87 81/81/81
f 92/92/92 85/85/85 88/88/88
f 92/92/92 90/90/90 85/85/85
f 93/93/93 86/86/86 90/90/90
f 93/93/93 91/91/91 86/86/86
f 94/94/94 92/92/92 88/88/88
f 88/88/88 95/95/95 94/94/94
f 96/96/96 90/90/90 92/92/92
f 96/96/96 93/93/93 90/90/90
f 97/97/97 92/92/92 94/94/94
f 97/97/97 96/96/96 92/92/92
f 98/98/98 97/97/97 94/94/94
f 94/94/94 99/99/99 98/98/98
f 100/100/100 87/87/87 91/91/91
f 101/101/101 91/91/91 93/93/93
f 101/101/101 100/100/100 91/91/91
f 102/102/102 93/93/93 96/96/96
f 102/102/102 101/101/101 93/93/93
f 103/103/103 96/96/96 97/97/97
f 103/103/103 102/102/102 96/96/96
f 104/104/104 97/97/97 98/98/98
f 104/104/104 103/103/103 97/97/97
f 100/100/100 105/105/105 87/87/87
f 105/105/105 80/80/80 87/87/87
f 106/106/106 104/104/104 98/98/98
f 98/98/98 107/107/107 106/106/106
f 105/105/105 108/108/108 80/80/80
f 108/108/108 76/76/76 80/80/80
f 108/108/108 109/109/109 76/76/76
f 109/109/109 72/72/72 76/76/76
f 109/109/109 110/110/110 72/72/72
f 110/110/110 68/68/68 72/72/72
f 110/110/110 111/111/111 68/68/68
f 111/111/111 62/62/62 68/68/68
f 111/111/111 112/112/112 62/62/62
f 112/112/112 57/57/57 62/62/62
f 112/112/112 61/61/61 57/57/57
f 113/113/113 61/61/61 112/112/112
f 113/113/113 66/66/66 61/61/61
f 114/114/114 112/112/112 111/111/111
f 114/114/114 113/113/113 112/112/112
f 115/115/115 111/111/111 110/110/110
f 115/115/115 114/114/114 111/111/111
f 116/116/116 110/110/110 109/109/109
f 116/116/116 115/115/115 110/110/110
f 117/117/117 109/109/109 108/108/108
f 117/117/117 116/116/116 109/109/109
f 118/118/118 66/66/66 113/113/113
f 118/118/118 119/119/119 66/66/66
f 120/120/120 113/113/113 114/114/114
f 120/120/120 118/118/118 113/113/113
f 121/121/121 114/114/114 115/115/115
f 121/121/121 120/120/120 114/114/114
f 122/122/122 115/115/115 116/116/116
f 122/122/122 121/121/121 115/115/115
f 123/123/123 118/118/118 120/120/120
f 123/123/123 124/124/124 118/118/118
f 125/125/125 120/120/120 121/121/121
f 125/125/125 123/123/123 120/120/120
f 126/126/126 117/117/117 108/108/108
f 126/126/126 108/108/108 105/105/105
f 127/127/127 116/116/116 117/117/117
f 127/127/127 122/122/122 116/116/116
f 128/128/128 121/121/121 122/122/122
f 128/128/128 125/125/125 121/121/121
f 129/129/129 123/123/123 125/125/125
f 129/129/129 130/130/130 123/123/123
f 131/131/131 129/129/129 125/125/125
f 131/131/131 125/125/125 128/128/128
f 132/132/132 128/128/128 122/122/122
f 132/132/132 122/122/122 127/127/127
f 133/133/133 127/127/127 117/117/117
f 133/133/133 117/117/117 126/126/126
f 134/134/134 126/126/126 105/105/105
f 134/134/134 105/105/105 100/100/100
f 135/135/135 129/129/129 131/131/131
f 135/135/135 136/136/136 129/129/129
f 137/137/137 131/131/131 128/128/128
f 137/137/137 128/128/128 132/132/132
f 138/138/138 132/132/132 127/127/127
f 138/138/138 127/127/127 133/133/133
f 139/139/139 133/133/133 126/126/126
f 139/139/139 126/126/126 134/134/134
f 140/140/140 134/134/134 100/100/100
f 140/140/140 100/100/100 101/101/101
f 141/141/141 135/135/135 131/131/131
f 141/141/141 131/131/131 137/137/137
f 142/142/142 137/137/137 132/132/132
f 142/142/142 132/132/132 138/138/138
f 143/143/143 138/138/138 133/133/133
f 143/143/143 133/133/133 139/139/139
f 144/144/144 139/139/139 134/134/134
f 144/144/144 134/134/134 140/140/140
f 145/145/145 140/140/140 101/101/101
f 145/145/145 101/101/101 102/102/102
f 146/146/146 135/135/135 141/141/141
f 146/146/146 147/147/147 135/135/135
f 148/148/148 142/142/142 138/138/138
f 148/148/148 138/138/138 143/143/143
f 149/149/149 143/143/143 139/139/139
f 149/149/149 139/139/139 144/144/144
f 150/150/150 144/144/144 140/140/140
f 150/150/150 140/140/140 145/145/145
f 151/151/151 145/145/145 102/102/102
f 151/151/151 102/102/102 103/103/103
f 152/152/152 148/148/148 143/143/143
f 152/152/152 143/143/143 149/149/149
f 153/153/153 149/149/149 144/144/144
f 153/153/153 144/144/144 150/150/150
f 154/154/154 150/150/150 145/145/145
f 154/154/154 145/145/145 151/151/151
f 155/155/155 151/151/151 103/103/103
f 155/155/155 103/103/103 104/104/104
f 156/156/156 152/152/152 149/149/149
f 156/156/156 149/149/149 153/153/153
f 157/157/157 153/153/153 150/150/150
f 157/157/157 150/150/150 154/154/154
f 158/158/158 154/154/154 151/151/151
f 158/158/158 151/151/151 155/155/155
f 159/159/159 155/155/155 104/104/104
f 159/159/159 104/104/104 106/106/106
f 160/160/160 156/156/156 153/153/153
f 160/160/160 153/153/153 157/157/157
f 161/161/161 157/157/157 154/154/154
f 161/161/161 154/154/154 158/158/158
f 162/162/162 158/158/158 155/155/155
f 162/162/162 155/155/155 159/159/159
f 163/163/163 159/159/159 106/106/106
f 106/106/106 164/164/164 163/163/163
f 165/165/165 159/159/159 163/163/163
f 165/165/165 162/162/162 159/159/159
f 166/166/166 158/158/158 162/162/162
f 166/166/166 161/161/161 158/158/158
f 167/167/167 157/157/157 161/161/161
f 167/167/167 160/160/160 157/157/157
f 168/168/168 165/165/165 163/163/163
f 163/163/163 169/169/169 168/168/168
f 170/170/170 162/162/162 165/165/165
f 170/170/170 166/166/166 162/162/162
f 171/171/171 161/161/161 166/166/166
f 171/171/171 167/167/167 161/161/161
f 172/172/172 165/165/165 168/168/168
f 172/172/172 170/170/170 165/165/165
f 173/173/173 166/166/166 170/170/170
f 173/173/173 171/171/171 166/166/166
f 174/174/174 172/172/172 168/168/168
f 168/168/168 175/175/175 174/174/174
f 176/176/176 170/170/170 172/172/172
f 176/176/176 173/173/173 170/170/170
f 177/177/177 172/172/172 174/174/174
f 177/177/177 176/176/176 172/172/172
f 178/178/178 177/177/177 174/174/174
f 174/174/174 179/179/179 178/178/178
f 180/180/180 167/167/167 171/171/171
f 181/181/181 171/171/171 173/173/173
f 181/181/181 180/180/180 171/171/171
f 182/182/182 173/173/173 176/176/176
f 182/182/182 181/181/181 173/173/173
f 183/183/183 176/176/176 177/177/177
f 183/183/183 182/182/182 176/176/176
f 184/184/184 177/177/177 178/178/178
f 184/184/184 183/183/183 177/177/177
f 180/180/180 185/185/185 167/167/167
f 185/185/185 160/160/160 167/167/167
f 186/186/186 184/184/184 178/178/178
f 178/178/178 187/187/187 186/186/186
f 185/185/185 188/188/188 160/160/160
f 188/188/188 156/156/156 160/160/160
f 188/188/188 189/189/189 156/156/156
f 189/189/189 152/152/152 156/156/156
f 189/189/189 190/190/190 152/152/152
f 190/190/190 148/148/148 152/152/152
f 190/190/190 191/191/191 148/148/148
f 191/191/191 142/142/142 148/148/148
f 191/191/191 192/192/192 142/142/142
f 192/192/192 137/137/137 142/142/142
f 192/192/192 141/141/141 137/137/137
f 193/193/193 141/141/141 192/192/192
f 193/193/193 146/146/146 141/141/141
f 194/194/194 192/192/192 191/191/191
f 194/194/194 193/193/193 192/192/192
f 195/195/195 191/191/191 190/190/190
f 195/195/195 194/194/194 191/191/191
f 196/196/196 190/190/190 189/189/189
f 196/196/196 195/195/195 190/190/190
f 197/197/197 189/189/189 188/188/188
f 197/197/197 196/196/196 189/189/189
f 198/198/198 146/146/146 193/193/193
f 198/198/198 199/199/199 146/146/146
f 200/200/200 193/193/193 194/194/194
f 200/200/200 198/198/198 193/193/193
f 201/201/201 194/194/194 195/195/195
f 201/201/201 200/200/200 194/194/194
f 202/202/202 195/195/195 196/196/196
f 202/202/202 201/201/201 195/195/195
f 203/203/203 198/198/198 200/200/200
f 203/203/203 204/204/204 198/198/198
f 205/205/205 200/200/200 201/201/201
f 205/205/205 203/203/203 200/200/200
f 206/206/206 203/203/203 205/205/205
f 206/206/206 207/207/207 203/203/203
f 208/208/208 206/206/206 205/205/205
f 209/209/209 205/205/205 201/201/201
f 208/208/208 205/205/205 209/209/209
f 209/209/209 201/201/201 202/202/202
f 210/210/210 208/208/208 209/209/209
f 210/210/210 209/209/209 211/211/211
f 211/211/211 209/209/209 202/202/202
f 212/212/212 210/210/210 211/211/211
f 213/213/213 202/202/202 196/196/196
f 211/211/211 202/202/202 213/213/213
f 213/213/213 196/196/196 197/197/197
f 212/212/212 211/211/211 214/214/214
f 214/214/214 211/211/211 213/213/213
f 215/215/215 212/212/212 214/214/214
f 216/216/216 213/213/213 197/197/197
f 214/214/214 213/213/213 216/216/216
f 215/215/215 214/214/214 217/217/217
f 217/217/217 214/214/214 216/216/216
f 218/218/218 215/215/215 217/217/217
f 216/216/216 197/197/197 219/219/219
f 219/219/219 197/197/197 188/188/188
f 219/219/219 188/188/188 185/185/185
f 217/217/217 216/216/216 220/220/220
f 220/220/220 216/216/216 219/219/219
f 218/218/218 217/217/217 221/221/221
f 221/221/221 217/217/217 220/220/220
f 222/222/222 218/218/218 221/221/221
f 223/223/223 219/219/219 185/185/185
f 220/220/220 219/219/219 223/223/223
f 223/223/223 185/185/185 180/180/180
f 221/221/221 220/220/220 224/224/224
f 224/224/224 220/220/220 223/223/223
f 222/222/222 221/221/221 225/225/225
f 225/225/225 221/221/221 224/224/224
f 226/226/226 222/222/222 225/225/225
f 227/227/227 223/223/223 180/180/180
f 224/224/224 223/223/223 227/227/227
f 227/227/227 180/180/180 181/181/181
f 225/225/225 224/224/224 228/228/228
f 228/228/228 224/224/224 227/227/227
f 226/226/226 225/225/225 229/229/229
f 229/229/229 225/225/225 228/228/228
f 230/230/230 226/226/226 229/229/229
f 231/231/231 227/227/227 181/181/181
f 228/228/228 227/227/227 231/231/231
f 231/231/231 181/181/181 182/182/182
f 229/229/229 228/228/228 232/232/232
f 232/232/232 228/228/228 231/231/231
f 230/230/230 229/229/229 233/233/233
f 233/233/233 229/229/229 232/232/232
f 234/234/234 230/230/230 233/233/233
f 235/235/235 231/231/231 182/182/182
f 232/232/232 231/231/231 235/235/235
f 235/235/235 182/182/182 183/183/183
f 233/233/233 232/232/232 236/236/236
f 236/236/236 232/232/232 235/235/235
f 234/234/234 233/233/233 237/237/237
f 237/237/237 233/233/233 236/236/236
f 238/238/238 234/234/234 237/237/237
f 239/239/239 235/235/235 183/183/183
f 236/236/236 235/235/235 239/239/239
f 239/239/239 183/183/183 184/184/184
f 237/237/237 236/236/236 240/240/240
f 240/240/240 236/236/236 239/239/239
f 238/238/238 237/237/237 241/241/241
f 241/241/241 237/237/237 240/240/240
f 242/242/242 238/238/238 241/241/241
f 243/243/243 239/239/239 184/184/184
f 240/240/240 239/239/239 243/243/243
f 243/243/243 184/184/184 186/186/186
f 241/241/241 240/240/240 244/244/244
f 244/244/244 240/240/240 243/243/243
f 242/242/242 241/241/241 245/245/245
f 245/245/245 241/241/241 244/244/244
f 246/246/246 242/242/242 245/245/245
f 247/247/247 243/243/243 186/186/186
f 244/244/244 243/243/243 247/247/247
f 186/186/186 248/248/248 247/247/247
f 249/249/249 244/244/244 247/247/247
f 245/245/245 244/244/244 249/249/249
f 247/247/247 250/250/250 249/249/249
f 246/246/246 245/245/245 251/251/251
f 251/251/251 245/245/245 249/249/249
f 249/249/249 252/252/252 251/251/251
f 253/253/253 246/246/246 251/251/251
f 251/251/251 254/254/254 253/253/253
