g planet_4M
v 0.0058940887 -0.04495235 -0.007100668
v -0.00049938203 -0.04595661 -9.536743E-09
v 0.008229447 -0.04495235 -0.0038863276
v 0.012008152 -0.04198345 -0.0138910385
v 0.016576804 -0.04198345 -0.0076028155
v 0.01757557 -0.037179757 -0.020074282
v 0.024177857 -0.037179757 -0.010987024
v 0.022353038 -0.030751 -0.025380181
v 0.030700378 -0.030751 -0.01389102
v 0.026131725 -0.022978324 -0.029576844
v 0.035859335 -0.022978324 -0.016187925
v 0.028746529 -0.014201392 -0.03248086
v 0.039429225 -0.014201392 -0.017777357
v 0.030083103 -0.004803734 -0.03396529
v 0.041254044 -0.004803734 -0.018589811
v 0.030083103 0.004803734 -0.03396529
v 0.041254044 0.004803734 -0.018589811
v 0.028746529 0.014201316 -0.03248086
v 0.039429225 0.014201316 -0.017777357
v 0.026131725 0.022978248 -0.029576844
v 0.035859335 0.022978248 -0.016187925
v 0.022353038 0.030750923 -0.025380181
v 0.030700378 0.030750923 -0.01389102
v 0.01757557 0.03717968 -0.020074282
v 0.024177857 0.03717968 -0.010987024
v 0.012008152 0.041983373 -0.0138910385
v 0.016576804 0.041983373 -0.0076028155
v 0.0058940887 0.04495235 -0.007100668
v 0.008229447 0.04495235 -0.0038863276
v -0.00049938203 0.04595661 -9.536743E-09
v 0.0024532317 0.04495235 -0.009087266
v -0.00049938203 0.04595661 -9.536743E-09
v 0.0052768323 0.041983373 -0.017777376
v 0.007847977 0.03717968 -0.025690526
v 0.010054302 0.030750923 -0.03248086
v -0.0014981651 0.04495235 -0.009502573
v -0.00049938203 0.04595661 -9.536743E-09
v -0.00245327 0.041983373 -0.01858983
v 0.011799354 0.022978248 -0.037851647
v -0.0033229827 0.03717968 -0.026864633
v -0.0052768323 0.04495235 -0.008274812
v -0.00049938203 0.04595661 -9.536743E-09
v -0.009845505 0.041983373 -0.016187944
v -0.00406929 0.030750923 -0.033965312
v 0.013006915 0.014201316 -0.041568134
v -0.008229485 0.04495235 -0.0056162355
v -0.00049938203 0.04595661 -9.536743E-09
v -0.014005699 0.03717968 -0.023393601
v -0.0046595763 0.022978248 -0.039581537
v 0.013624191 0.004803734 -0.04346787
v -0.015621719 0.041983373 -0.010987024
v -0.017575588 0.030750923 -0.029576844
v -0.005068054 0.014201316 -0.043467894
v 0.013624191 -0.004803734 -0.04346787
v -0.009845505 0.04495235 -0.0019865704
v -0.00049938203 0.04595661 -9.536743E-09
v -0.022353038 0.03717968 -0.015877618
v -0.02039917 0.022978248 -0.03446744
v -0.0052768323 0.004803734 -0.045454454
v 0.013006915 -0.014201392 -0.041568134
v -0.018783148 0.041983373 -0.0038863276
v -0.028129254 0.030750923 -0.020074282
v -0.022353038 0.014201316 -0.037851647
v -0.0052768323 -0.004803734 -0.045454454
v 0.011799354 -0.022978324 -0.037851647
v -0.009845505 0.04495235 0.0019865704
v -0.00049938203 0.04595661 -9.536743E-09
v -0.032697923 0.022978248 -0.023393622
v -0.023351802 0.004803734 -0.039581556
v -0.005068054 -0.014201392 -0.043467894
v 0.010054302 -0.030751 -0.03248086
v -0.035859354 0.014201316 -0.025690526
v -0.023351802 -0.004803734 -0.039581556
v -0.0046595763 -0.022978324 -0.039581537
v 0.007847977 -0.037179757 -0.025690526
v -0.037475355 0.004803734 -0.026864633
v -0.022353038 -0.014201392 -0.037851647
v -0.00406929 -0.030751 -0.033965312
v 0.0052768323 -0.04198345 -0.017777376
v -0.037475355 -0.004803734 -0.026864633
v -0.02039917 -0.022978324 -0.03446744
v -0.0033229827 -0.037179757 -0.026864633
v 0.0024532317 -0.04495235 -0.009087266
v -0.00049938203 -0.04595661 -9.536743E-09
v -0.00245327 -0.04198345 -0.01858983
v -0.017575588 -0.030751 -0.029576844
v -0.035859354 -0.014201392 -0.025690526
v -0.0014981651 -0.04495235 -0.009502573
v -0.00049938203 -0.04595661 -9.536743E-09
v -0.014005699 -0.037179757 -0.023393601
v -0.032697923 -0.022978324 -0.023393622
v -0.009845505 -0.04198345 -0.016187944
v -0.028129254 -0.030751 -0.020074282
v -0.0052768323 -0.04495235 -0.008274812
v -0.00049938203 -0.04595661 -9.536743E-09
v -0.022353038 -0.037179757 -0.015877618
v -0.015621719 -0.04198345 -0.010987024
v -0.008229485 -0.04495235 -0.0056162355
v -0.00049938203 -0.04595661 -9.536743E-09
v -0.04325159 -0.014201392 -0.009087266
v -0.039429244 -0.022978324 -0.008274812
v -0.03390547 -0.030751 -0.007100706
v -0.02692171 -0.037179757 -0.0056162355
v -0.018783148 -0.04198345 -0.0038863276
v -0.04520546 -0.004803734 -0.009502573
v -0.009845505 -0.04495235 -0.0019865704
v -0.00049938203 -0.04595661 -9.536743E-09
v -0.04520546 0.004803734 -0.009502573
v -0.04325159 0.014201316 -0.009087266
v -0.039429244 0.022978248 -0.008274812
v -0.03390547 0.030750923 -0.007100706
v -0.02692171 0.03717968 -0.0056162355
v -0.018783148 0.041983373 0.0038863276
v -0.02692171 0.03717968 0.0056162355
v -0.03390547 0.030750923 0.007100668
v -0.039429244 0.022978248 0.008274794
v -0.043251608 0.014201316 0.009087248
v -0.008229485 0.04495235 0.0056162355
v -0.00049938203 0.04595661 -9.536743E-09
v -0.015621719 0.041983373 0.010987005
v -0.022353038 0.03717968 0.015877599
v -0.028129254 0.030750923 0.020074282
v -0.0052768323 0.04495235 0.008274794
v -0.00049938203 0.04595661 -9.536743E-09
v -0.009845505 0.041983373 0.016187925
v -0.04520546 0.004803734 0.009502553
v -0.032697923 0.022978248 0.023393601
v -0.014005699 0.03717968 0.023393601
v -0.0014981651 0.04495235 0.009502553
v -0.00049938203 0.04595661 -9.536743E-09
v -0.00245327 0.041983373 0.01858983
v -0.017575607 0.030750923 0.029576844
v -0.035859354 0.014201316 0.025690507
v -0.04520546 -0.004803734 0.009502553
v 0.0024532317 0.04495235 0.009087266
v -0.00049938203 0.04595661 -9.536743E-09
v -0.0033229827 0.03717968 0.026864633
v -0.020399189 0.022978248 0.03446744
v -0.037475374 0.004803734 0.026864614
v -0.043251608 -0.014201392 0.009087248
v 0.0052768323 0.041983373 0.017777357
v -0.00406929 0.030750923 0.033965312
v -0.022353038 0.014201316 0.037851647
v -0.037475374 -0.004803734 0.026864614
v -0.039429244 -0.022978324 0.008274794
v 0.0058940887 0.04495235 0.007100687
v -0.00049938203 0.04595661 -9.536743E-09
v -0.0046595954 0.022978248 0.039581537
v -0.023351822 0.004803734 0.039581537
v -0.035859354 -0.014201392 0.025690507
v -0.03390547 -0.030751 0.007100668
v -0.005068054 0.014201316 0.043467894
v -0.023351822 -0.004803734 0.039581537
v -0.032697923 -0.022978324 0.023393601
v -0.02692171 -0.037179757 0.0056162355
v -0.0052768323 0.004803734 0.045454454
v -0.022353038 -0.014201392 0.037851647
v -0.028129254 -0.030751 0.020074282
v -0.018783148 -0.04198345 0.0038863276
v -0.0052768323 -0.004803734 0.045454454
v -0.020399189 -0.022978324 0.03446744
v -0.022353038 -0.037179757 0.015877599
v -0.009845505 -0.04495235 0.0019865704
v -0.00049938203 -0.04595661 -9.536743E-09
v -0.015621719 -0.04198345 0.010987005
v -0.017575607 -0.030751 0.029576844
v -0.005068054 -0.014201392 0.043467894
v -0.008229485 -0.04495235 0.0056162355
v -0.00049938203 -0.04595661 -9.536743E-09
v -0.014005699 -0.037179757 0.023393601
v -0.0046595954 -0.022978324 0.039581537
v -0.009845505 -0.04198345 0.016187925
v -0.00406929 -0.030751 0.033965312
v -0.0052768323 -0.04495235 0.008274794
v -0.00049938203 -0.04595661 -9.536743E-09
v -0.0033229827 -0.037179757 0.026864633
v -0.00245327 -0.04198345 0.01858983
v -0.0014981651 -0.04495235 0.009502553
v -0.00049938203 -0.04595661 -9.536743E-09
v 0.013006915 -0.014201392 0.041568134
v 0.011799354 -0.022978324 0.037851647
v 0.010054283 -0.030751 0.03248086
v 0.007847957 -0.037179757 0.025690507
v 0.0052768323 -0.04198345 0.017777357
v 0.013624191 -0.004803734 0.043467894
v 0.0024532317 -0.04495235 0.009087266
v -0.00049938203 -0.04595661 -9.536743E-09
v 0.013624191 0.004803734 0.043467894
v 0.013006915 0.014201316 0.041568134
v 0.011799354 0.022978248 0.037851647
v 0.010054283 0.030750923 0.03248086
v 0.007847957 0.03717968 0.025690507
v 0.012008152 0.041983373 0.0138910385
v 0.01757557 0.03717968 0.020074282
v 0.022353038 0.030750923 0.025380181
v 0.026131725 0.022978248 0.029576844
v 0.028746508 0.014201316 0.03248086
v 0.008229447 0.04495235 0.0038863276
v -0.00049938203 0.04595661 -9.536743E-09
v 0.016576825 0.041983373 0.0076027964
v 0.024177857 0.03717968 0.010987024
v 0.030700378 0.030750923 0.0138910385
v 0.009055519 0.04495235 -9.536743E-09
v -0.00049938203 0.04595661 -9.536743E-09
v 0.018192844 0.041983373 -9.536743E-09
v 0.008229447 0.04495235 -0.0038863276
v -0.00049938203 0.04595661 -9.536743E-09
v 0.016576804 0.041983373 -0.0076028155
v 0.026513213 0.03717968 -9.536743E-09
v 0.024177857 0.03717968 -0.010987024
v 0.03365303 0.030750923 -9.536743E-09
v 0.030700378 0.030750923 -0.01389102
v 0.035859335 0.022978248 0.016187944
v 0.039300174 0.022978248 -9.536743E-09
v 0.035859335 0.022978248 -0.016187925
v 0.039429244 0.014201316 0.017777357
v 0.04320791 0.014201316 -9.536743E-09
v 0.039429225 0.014201316 -0.017777357
v 0.030083103 0.004803734 0.033965312
v 0.041254062 0.004803734 0.01858983
v 0.04520546 0.004803734 -9.536743E-09
v 0.041254044 0.004803734 -0.018589811
v 0.030083103 -0.004803734 0.033965312
v 0.041254062 -0.004803734 0.01858983
v 0.04520546 -0.004803734 -9.536743E-09
v 0.041254044 -0.004803734 -0.018589811
v 0.028746508 -0.014201392 0.03248086
v 0.039429244 -0.014201392 0.017777357
v 0.04320791 -0.014201392 -9.536743E-09
v 0.039429225 -0.014201392 -0.017777357
v 0.026131725 -0.022978324 0.029576844
v 0.035859335 -0.022978324 0.016187944
v 0.039300174 -0.022978324 -9.536743E-09
v 0.035859335 -0.022978324 -0.016187925
v 0.022353038 -0.030751 0.025380181
v 0.030700378 -0.030751 0.0138910385
v 0.03365303 -0.030751 -9.536743E-09
v 0.030700378 -0.030751 -0.01389102
v 0.01757557 -0.037179757 0.020074282
v 0.024177857 -0.037179757 0.010987024
v 0.026513213 -0.037179757 -9.536743E-09
v 0.024177857 -0.037179757 -0.010987024
v 0.012008152 -0.04198345 0.0138910385
v 0.016576825 -0.04198345 0.0076027964
v 0.018192844 -0.04198345 -9.536743E-09
v 0.016576804 -0.04198345 -0.0076028155
v 0.0058940887 -0.04495235 0.007100687
v -0.00049938203 -0.04595661 -9.536743E-09
v 0.008229447 -0.04495235 0.0038863276
v -0.00049938203 -0.04595661 -9.536743E-09
v 0.009055519 -0.04495235 -9.536743E-09
v -0.00049938203 -0.04595661 -9.536743E-09
v 0.008229447 -0.04495235 -0.0038863276
v -0.00049938203 -0.04595661 -9.536743E-09
vt 0.06666667 0.06666667
vt 0.033333335 0
vt 0 0.06666667
vt 0.06666667 0.13333334
vt 0 0.13333334
vt 0.06666667 0.20000002
vt 0 0.20000002
vt 0.06666667 0.26666668
vt 0 0.26666668
vt 0.06666667 0.33333334
vt 0 0.33333334
vt 0.06666667 0.4
vt 0 0.4
vt 0.06666667 0.46666667
vt 0 0.46666667
vt 0.06666667 0.53333336
vt 0 0.53333336
vt 0.06666667 0.6
vt 0 0.6
vt 0.06666667 0.6666667
vt 0 0.6666667
vt 0.06666667 0.73333335
vt 0 0.73333335
vt 0.06666667 0.8
vt 0 0.8
vt 0.06666667 0.8666667
vt 0 0.8666667
vt 0.06666667 0.93333334
vt 0 0.93333334
vt 0.033333335 1
vt 0.13333334 0.93333334
vt 0.10000001 1
vt 0.13333334 0.8666667
vt 0.13333334 0.8
vt 0.13333334 0.73333335
vt 0.20000002 0.93333334
vt 0.16666667 1
vt 0.20000002 0.8666667
vt 0.13333334 0.6666667
vt 0.20000002 0.8
vt 0.26666668 0.93333334
vt 0.23333335 1
vt 0.26666668 0.8666667
vt 0.20000002 0.73333335
vt 0.13333334 0.6
vt 0.33333334 0.93333334
vt 0.3 1
vt 0.26666668 0.8
vt 0.20000002 0.6666667
vt 0.13333334 0.53333336
vt 0.33333334 0.8666667
vt 0.26666668 0.73333335
vt 0.20000002 0.6
vt 0.13333334 0.46666667
vt 0.4 0.93333334
vt 0.36666667 1
vt 0.33333334 0.8
vt 0.26666668 0.6666667
vt 0.20000002 0.53333336
vt 0.13333334 0.4
vt 0.4 0.8666667
vt 0.33333334 0.73333335
vt 0.26666668 0.6
vt 0.20000002 0.46666667
vt 0.13333334 0.33333334
vt 0.46666667 0.93333334
vt 0.43333337 1
vt 0.33333334 0.6666667
vt 0.26666668 0.53333336
vt 0.20000002 0.4
vt 0.13333334 0.26666668
vt 0.33333334 0.6
vt 0.26666668 0.46666667
vt 0.20000002 0.33333334
vt 0.13333334 0.20000002
vt 0.33333334 0.53333336
vt 0.26666668 0.4
vt 0.20000002 0.26666668
vt 0.13333334 0.13333334
vt 0.33333334 0.46666667
vt 0.26666668 0.33333334
vt 0.20000002 0.20000002
vt 0.13333334 0.06666667
vt 0.10000001 0
vt 0.20000002 0.13333334
vt 0.26666668 0.26666668
vt 0.33333334 0.4
vt 0.20000002 0.06666667
vt 0.16666667 0
vt 0.26666668 0.20000002
vt 0.33333334 0.33333334
vt 0.26666668 0.13333334
vt 0.33333334 0.26666668
vt 0.26666668 0.06666667
vt 0.23333335 0
vt 0.33333334 0.20000002
vt 0.33333334 0.13333334
vt 0.33333334 0.06666667
vt 0.3 0
vt 0.4 0.4
vt 0.4 0.33333334
vt 0.4 0.26666668
vt 0.4 0.20000002
vt 0.4 0.13333334
vt 0.4 0.46666667
vt 0.4 0.06666667
vt 0.36666667 0
vt 0.4 0.53333336
vt 0.4 0.6
vt 0.4 0.6666667
vt 0.4 0.73333335
vt 0.4 0.8
vt 0.46666667 0.8666667
vt 0.46666667 0.8
vt 0.46666667 0.73333335
vt 0.46666667 0.6666667
vt 0.46666667 0.6
vt 0.53333336 0.93333334
vt 0.50000006 1
vt 0.53333336 0.8666667
vt 0.53333336 0.8
vt 0.53333336 0.73333335
vt 0.6 0.93333334
vt 0.5666667 1
vt 0.6 0.8666667
vt 0.46666667 0.53333336
vt 0.53333336 0.6666667
vt 0.6 0.8
vt 0.6666667 0.93333334
vt 0.6333334 1
vt 0.6666667 0.8666667
vt 0.6 0.73333335
vt 0.53333336 0.6
vt 0.46666667 0.46666667
vt 0.73333335 0.93333334
vt 0.70000005 1
vt 0.6666667 0.8
vt 0.6 0.6666667
vt 0.53333336 0.53333336
vt 0.46666667 0.4
vt 0.73333335 0.8666667
vt 0.6666667 0.73333335
vt 0.6 0.6
vt 0.53333336 0.46666667
vt 0.46666667 0.33333334
vt 0.8 0.93333334
vt 0.7666667 1
vt 0.6666667 0.6666667
vt 0.6 0.53333336
vt 0.53333336 0.4
vt 0.46666667 0.26666668
vt 0.6666667 0.6
vt 0.6 0.46666667
vt 0.53333336 0.33333334
vt 0.46666667 0.20000002
vt 0.6666667 0.53333336
vt 0.6 0.4
vt 0.53333336 0.26666668
vt 0.46666667 0.13333334
vt 0.6666667 0.46666667
vt 0.6 0.33333334
vt 0.53333336 0.20000002
vt 0.46666667 0.06666667
vt 0.43333337 0
vt 0.53333336 0.13333334
vt 0.6 0.26666668
vt 0.6666667 0.4
vt 0.53333336 0.06666667
vt 0.50000006 0
vt 0.6 0.20000002
vt 0.6666667 0.33333334
vt 0.6 0.13333334
vt 0.6666667 0.26666668
vt 0.6 0.06666667
vt 0.5666667 0
vt 0.6666667 0.20000002
vt 0.6666667 0.13333334
vt 0.6666667 0.06666667
vt 0.6333334 0
vt 0.73333335 0.4
vt 0.73333335 0.33333334
vt 0.73333335 0.26666668
vt 0.73333335 0.20000002
vt 0.73333335 0.13333334
vt 0.73333335 0.46666667
vt 0.73333335 0.06666667
vt 0.70000005 0
vt 0.73333335 0.53333336
vt 0.73333335 0.6
vt 0.73333335 0.6666667
vt 0.73333335 0.73333335
vt 0.73333335 0.8
vt 0.8 0.8666667
vt 0.8 0.8
vt 0.8 0.73333335
vt 0.8 0.6666667
vt 0.8 0.6
vt 0.8666667 0.93333334
vt 0.83333343 1
vt 0.8666667 0.8666667
vt 0.8666667 0.8
vt 0.8666667 0.73333335
vt 0.93333334 0.93333334
vt 0.9000001 1
vt 0.93333334 0.8666667
vt 1 0.93333334
vt 0.96666676 1
vt 1 0.8666667
vt 0.93333334 0.8
vt 1 0.8
vt 0.93333334 0.73333335
vt 1 0.73333335
vt 0.8666667 0.6666667
vt 0.93333334 0.6666667
vt 1 0.6666667
vt 0.8666667 0.6
vt 0.93333334 0.6
vt 1 0.6
vt 0.8 0.53333336
vt 0.8666667 0.53333336
vt 0.93333334 0.53333336
vt 1 0.53333336
vt 0.8 0.46666667
vt 0.8666667 0.46666667
vt 0.93333334 0.46666667
vt 1 0.46666667
vt 0.8 0.4
vt 0.8666667 0.4
vt 0.93333334 0.4
vt 1 0.4
vt 0.8 0.33333334
vt 0.8666667 0.33333334
vt 0.93333334 0.33333334
vt 1 0.33333334
vt 0.8 0.26666668
vt 0.8666667 0.26666668
vt 0.93333334 0.26666668
vt 1 0.26666668
vt 0.8 0.20000002
vt 0.8666667 0.20000002
vt 0.93333334 0.20000002
vt 1 0.20000002
vt 0.8 0.13333334
vt 0.8666667 0.13333334
vt 0.93333334 0.13333334
vt 1 0.13333334
vt 0.8 0.06666667
vt 0.7666667 0
vt 0.8666667 0.06666667
vt 0.83333343 0
vt 0.93333334 0.06666667
vt 0.9000001 0
vt 1 0.06666667
vt 0.96666676 0
vn 0.1791455 -0.9634934 -0.19896565
vn -0 -1 1.9517988E-06
vn 0.244582 -0.96349436 -0.108895764
vn 0.29430383 -0.898081 -0.32685742
vn 0.40180415 -0.89808077 -0.17889723
vn 0.40731654 -0.79338306 -0.45236775
vn 0.55609614 -0.79338217 -0.24759202
vn 0.50575376 -0.6547614 -0.56169456
vn 0.6904895 -0.65476185 -0.3074268
vn 0.58389646 -0.4884032 -0.6484807
vn 0.7971769 -0.48840305 -0.35492465
vn 0.6379991 -0.30147856 -0.70856744
vn 0.8710412 -0.3014782 -0.3878121
vn 0.6656474 -0.1019145 -0.7392746
vn 0.90878844 -0.10191477 -0.40461951
vn 0.6656467 0.101914786 -0.73927516
vn 0.9087886 0.10191515 -0.40461886
vn 0.6379982 0.30147955 -0.70856786
vn 0.8710407 0.30147967 -0.3878121
vn 0.58389544 0.48840302 -0.64848167
vn 0.7971761 0.48840323 -0.35492587
vn 0.5057524 0.65476096 -0.56169623
vn 0.69048935 0.6547622 -0.30742645
vn 0.40731615 0.79338247 -0.4523692
vn 0.55609614 0.7933825 -0.24759094
vn 0.29430556 0.8980798 -0.32685912
vn 0.40180615 0.8980804 -0.17889483
vn 0.17914994 0.96349186 -0.19896922
vn 0.24458759 0.9634933 -0.10889238
vn -0 1 -2.7297071E-06
vn 0.082734965 0.9634904 -0.2546392
vn -0 1 -2.7297071E-06
vn 0.13591538 0.89807886 -0.4183078
vn 0.18810563 0.79338086 -0.5789327
vn 0.2335659 0.6547614 -0.7188425
vn -0.02798597 0.96349263 -0.26626828
vn -0 1 -2.7297071E-06
vn -0.04597534 0.8980798 -0.43742305
vn 0.26965383 0.48840457 -0.82990825
vn -0.06362939 0.79338086 -0.60539085
vn -0.13386753 0.96349263 -0.23186515
vn -0 1 -2.7297071E-06
vn -0.21991628 0.898081 -0.38090348
vn -0.07900651 0.65476143 -0.7516951
vn 0.29463992 0.30148026 -0.9068059
vn -0.21660236 0.9634924 -0.15737176
vn -0 1 -2.7297071E-06
vn -0.30436203 0.7933827 -0.5271695
vn -0.09121398 0.48840538 -0.8678365
vn 0.30740866 0.10191464 -0.9461043
vn -0.35583088 0.89807993 -0.258528
vn -0.37791786 0.6547628 -0.6545715
vn -0.09966609 0.3014806 -0.948249
vn 0.30740917 -0.10191442 -0.94610417
vn -0.26188448 0.96349263 -0.05566416
vn -0 1 -2.7297071E-06
vn -0.49246678 0.7933827 -0.35779947
vn -0.4363086 0.48840487 -0.7557085
vn -0.1039842 0.101914585 -0.98934364
vn 0.2946406 -0.30147973 -0.9068059
vn -0.43022048 0.89807993 -0.09144828
vn -0.6114831 0.65476245 -0.44426858
vn -0.47673517 0.30148032 -0.82573193
vn -0.10398436 -0.10191448 -0.98934364
vn 0.26965317 -0.4884034 -0.8299092
vn -0.26188424 0.96349275 0.05566416
vn -0 1 -2.7297071E-06
vn -0.7059618 0.488404 -0.51291275
vn -0.4973962 0.10191488 -0.86151624
vn -0.099666 -0.30147937 -0.94824934
vn 0.23356555 -0.65476066 -0.7188432
vn -0.77137536 0.30148026 -0.5604372
vn -0.49739745 -0.10191504 -0.86151564
vn -0.09121349 -0.48840415 -0.86783725
vn 0.18810621 -0.7933838 -0.5789284
vn -0.8048047 0.101914786 -0.58472466
vn -0.4767364 -0.30147937 -0.8257315
vn -0.0790064 -0.65476143 -0.751695
vn 0.13591479 -0.89808124 -0.4183028
vn -0.80480486 -0.101914674 -0.5847243
vn -0.4363085 -0.48840433 -0.755709
vn -0.06362953 -0.7933829 -0.6053882
vn 0.082733065 -0.9634937 -0.25462717
vn -0 -1 1.9517988E-06
vn -0.045975138 -0.8980809 -0.43742093
vn -0.37791798 -0.6547627 -0.6545715
vn -0.7713767 -0.30147928 -0.5604357
vn -0.027985355 -0.9634937 -0.26626438
vn -0 -1 1.9517988E-06
vn -0.30436227 -0.79338247 -0.5271697
vn -0.70596254 -0.48840454 -0.5129113
vn -0.21991503 -0.89808124 -0.38090345
vn -0.6114831 -0.65476274 -0.44426814
vn -0.13386472 -0.96349484 -0.23185746
vn -0 -1 1.9517988E-06
vn -0.4924674 -0.7933833 -0.3577972
vn -0.35582972 -0.89808196 -0.2585226
vn -0.21659783 -0.9634951 -0.15736122
vn -0 -1 1.9517988E-06
vn -0.9326373 -0.30147856 -0.19823828
vn -0.85354865 -0.48840454 -0.18142681
vn -0.739318 -0.65476257 -0.1571462
vn -0.59542125 -0.79338276 -0.12655975
vn -0.43021852 -0.89808124 -0.091444746
vn -0.97305447 -0.101914056 -0.20682994
vn -0.26187876 -0.9634943 -0.05566302
vn -0 -1 1.9517988E-06
vn -0.9730546 0.10191438 -0.20682889
vn -0.9326372 0.30147964 -0.19823709
vn -0.8535486 0.4884042 -0.18142803
vn -0.73931783 0.65476215 -0.15714839
vn -0.59542114 0.7933825 -0.12656142
vn -0.4302209 0.89807975 0.091448456
vn -0.5954218 0.79338205 0.12656075
vn -0.7393181 0.654762 0.1571481
vn -0.85354865 0.48840404 0.18142834
vn -0.9326373 0.30147946 0.19823653
vn -0.2166019 0.9634924 0.15737194
vn -0 1 -2.7297071E-06
vn -0.3558315 0.89807963 0.25852826
vn -0.4924678 0.7933829 0.35779735
vn -0.61148316 0.65476227 0.44426873
vn -0.13386783 0.96349305 0.23186332
vn -0 1 -2.7297071E-06
vn -0.21991706 0.8980815 0.38090166
vn -0.97305465 0.10191446 0.20682858
vn -0.70596224 0.488403 0.51291317
vn -0.30436197 0.7933836 0.52716815
vn -0.027986297 0.9634936 0.26626462
vn -0 1 -2.7297071E-06
vn -0.045975044 0.8980812 0.43742022
vn -0.37791744 0.65476245 0.6545721
vn -0.77137613 0.30147988 0.56043637
vn -0.97305465 -0.10191407 0.20682886
vn 0.08273496 0.96349174 0.2546344
vn -0 1 -2.7297071E-06
vn -0.06362887 0.7933832 0.6053878
vn -0.43630952 0.48840362 0.7557089
vn -0.804805 0.10191474 0.5847241
vn -0.93263763 -0.30147853 0.19823694
vn 0.13591585 0.8980802 0.41830462
vn -0.079006456 0.6547615 0.7516951
vn -0.4767357 0.30148008 0.82573175
vn -0.80480546 -0.10191437 0.58472353
vn -0.85354877 -0.48840436 0.1814267
vn 0.17914982 0.96349275 0.19896512
vn -0 1 -2.7297071E-06
vn -0.09121365 0.4884047 0.8678369
vn -0.49739626 0.10191479 0.86151624
vn -0.77137697 -0.30147865 0.5604357
vn -0.7393183 -0.65476215 0.15714642
vn -0.09966531 0.30148178 0.9482487
vn -0.4973968 -0.10191448 0.861516
vn -0.70596296 -0.48840338 0.51291156
vn -0.5954217 -0.79338205 0.12656161
vn -0.103984706 0.101915 0.9893435
vn -0.4767356 -0.3014787 0.82573223
vn -0.6114835 -0.654762 0.44426855
vn -0.4302187 -0.898081 0.091446266
vn -0.10398498 -0.10191436 0.9893435
vn -0.43630895 -0.4884038 0.755709
vn -0.4924673 -0.79338247 0.35779914
vn -0.26187858 -0.9634943 0.055663098
vn -0 -1 1.9517988E-06
vn -0.35582998 -0.89808184 0.2585227
vn -0.3779179 -0.6547627 0.6545716
vn -0.09966558 -0.3014791 0.9482495
vn -0.2165976 -0.96349514 0.1573614
vn -0 -1 1.9517988E-06
vn -0.30436188 -0.79338336 0.52716863
vn -0.09121413 -0.48840502 0.86783665
vn -0.21991588 -0.89808184 0.38090166
vn -0.07900702 -0.6547635 0.75169325
vn -0.13386498 -0.9634947 0.23185802
vn -0 -1 1.9517988E-06
vn -0.063628756 -0.79338217 0.60538924
vn -0.04597475 -0.8980802 0.43742236
vn -0.027985612 -0.96349305 0.26626655
vn -0 -1 1.9517988E-06
vn 0.29463974 -0.30148032 0.90680593
vn 0.26965392 -0.48840445 0.82990843
vn 0.23356576 -0.6547617 0.71884227
vn 0.18810563 -0.79338145 0.5789319
vn 0.135915 -0.8980804 0.41830444
vn 0.307408 -0.10191506 0.94610447
vn 0.08273304 -0.9634934 0.25462845
vn -0 -1 1.9517988E-06
vn 0.30740774 0.10191561 0.94610447
vn 0.29463884 0.30148143 0.9068059
vn 0.2696535 0.48840356 0.8299091
vn 0.23356597 0.6547617 0.71884227
vn 0.18810576 0.7933828 0.57893
vn 0.2943045 0.89808136 0.326856
vn 0.4073145 0.79338306 0.45236963
vn 0.5057527 0.65476125 0.5616957
vn 0.5838953 0.48840302 0.64848197
vn 0.6379957 0.30148056 0.70856965
vn 0.24458797 0.9634937 0.10888729
vn -0 1 -2.7297071E-06
vn 0.40180662 0.89808047 0.17889333
vn 0.556096 0.79338276 0.24759042
vn 0.69048995 0.65476155 0.30742612
vn 0.26773435 0.96349275 -4.2432257E-06
vn -0 1 -2.7297071E-06
vn 0.4398319 0.8980801 0
vn 0.24458759 0.9634933 -0.10889238
vn -0 1 -2.7297071E-06
vn 0.40180615 0.8980804 -0.17889483
vn 0.60872334 0.7933826 0
vn 0.55609614 0.7933825 -0.24759094
vn 0.7558347 0.6547624 7.565248E-07
vn 0.69048935 0.6547622 -0.30742645
vn 0.7971764 0.48840323 0.35492533
vn 0.8726178 0.48840386 0
vn 0.7971761 0.48840323 -0.35492587
vn 0.87104005 0.30148083 0.3878125
vn 0.9534725 0.30147997 -5.2566054E-07
vn 0.8710407 0.30147967 -0.3878121
vn 0.6656454 0.10191614 0.7392762
vn 0.90878844 0.10191593 0.40461928
vn 0.994793 0.1019153 -5.4742225E-07
vn 0.9087886 0.10191515 -0.40461886
vn 0.6656472 -0.10191602 0.7392746
vn 0.9087892 -0.10191564 0.4046175
vn 0.9947931 -0.101914905 -1.3192823E-06
vn 0.90878844 -0.10191477 -0.40461951
vn 0.6379988 -0.30148026 0.70856696
vn 0.8710412 -0.3014796 0.38781103
vn 0.95347303 -0.3014782 -2.8568394E-07
vn 0.8710412 -0.3014782 -0.3878121
vn 0.58389634 -0.4884033 0.6484808
vn 0.79717666 -0.488403 0.35492513
vn 0.872618 -0.48840332 1.5001473E-07
vn 0.7971769 -0.48840305 -0.35492465
vn 0.5057524 -0.6547613 0.5616958
vn 0.6904898 -0.6547619 0.3074257
vn 0.7558347 -0.6547624 -7.2394715E-07
vn 0.6904895 -0.65476185 -0.3074268
vn 0.40731478 -0.7933831 0.45236924
vn 0.5560962 -0.7933828 0.24758995
vn 0.6087235 -0.79338247 -1.5686777E-06
vn 0.55609614 -0.79338217 -0.24759202
vn 0.29430312 -0.89808196 0.3268553
vn 0.40180472 -0.8980812 0.17889422
vn 0.43983018 -0.898081 -6.095077E-07
vn 0.40180415 -0.89808077 -0.17889723
vn 0.17914572 -0.9634942 0.19896156
vn -0 -1 1.9517988E-06
vn 0.2445823 -0.96349406 0.10889775
vn -0 -1 1.9517988E-06
vn 0.26772878 -0.9634943 5.4768934E-06
vn -0 -1 1.9517988E-06
vn 0.244582 -0.96349436 -0.108895764
vn -0 -1 1.9517988E-06
g planet_4M_0
f 3/3/3 2/2/2 1/1/1
f 1/1/1 4/4/4 3/3/3
f 4/4/4 5/5/5 3/3/3
f 4/4/4 6/6/6 5/5/5
f 6/6/6 7/7/7 5/5/5
f 6/6/6 8/8/8 7/7/7
f 8/8/8 9/9/9 7/7/7
f 8/8/8 10/10/10 9/9/9
f 10/10/10 11/11/11 9/9/9
f 10/10/10 12/12/12 11/11/11
f 12/12/12 13/13/13 11/11/11
f 12/12/12 14/14/14 13/13/13
f 14/14/14 15/15/15 13/13/13
f 14/14/14 16/16/16 15/15/15
f 16/16/16 17/17/17 15/15/15
f 16/16/16 18/18/18 17/17/17
f 18/18/18 19/19/19 17/17/17
f 18/18/18 20/20/20 19/19/19
f 20/20/20 21/21/21 19/19/19
f 20/20/20 22/22/22 21/21/21
f 22/22/22 23/23/23 21/21/21
f 22/22/22 24/24/24 23/23/23
f 24/24/24 25/25/25 23/23/23
f 24/24/24 26/26/26 25/25/25
f 26/26/26 27/27/27 25/25/25
f 26/26/26 28/28/28 27/27/27
f 28/28/28 29/29/29 27/27/27
f 28/28/28 30/30/30 29/29/29
f 31/31/31 28/28/28 26/26/26
f 31/31/31 32/32/32 28/28/28
f 33/33/33 26/26/26 24/24/24
f 33/33/33 31/31/31 26/26/26
f 34/34/34 24/24/24 22/22/22
f 34/34/34 33/33/33 24/24/24
f 35/35/35 22/22/22 20/20/20
f 35/35/35 34/34/34 22/22/22
f 36/36/36 31/31/31 33/33/33
f 36/36/36 37/37/37 31/31/31
f 38/38/38 33/33/33 34/34/34
f 38/38/38 36/36/36 33/33/33
f 39/39/39 35/35/35 20/20/20
f 39/39/39 20/20/20 18/18/18
f 40/40/40 34/34/34 35/35/35
f 40/40/40 38/38/38 34/34/34
f 41/41/41 36/36/36 38/38/38
f 41/41/41 42/42/42 36/36/36
f 43/43/43 41/41/41 38/38/38
f 43/43/43 38/38/38 40/40/40
f 44/44/44 40/40/40 35/35/35
f 44/44/44 35/35/35 39/39/39
f 45/45/45 39/39/39 18/18/18
f 45/45/45 18/18/18 16/16/16
f 46/46/46 41/41/41 43/43/43
f 46/46/46 47/47/47 41/41/41
f 48/48/48 43/43/43 40/40/40
f 48/48/48 40/40/40 44/44/44
f 49/49/49 44/44/44 39/39/39
f 49/49/49 39/39/39 45/45/45
f 50/50/50 45/45/45 16/16/16
f 50/50/50 16/16/16 14/14/14
f 51/51/51 46/46/46 43/43/43
f 51/51/51 43/43/43 48/48/48
f 52/52/52 48/48/48 44/44/44
f 52/52/52 44/44/44 49/49/49
f 53/53/53 49/49/49 45/45/45
f 53/53/53 45/45/45 50/50/50
f 54/54/54 50/50/50 14/14/14
f 54/54/54 14/14/14 12/12/12
f 55/55/55 46/46/46 51/51/51
f 55/55/55 56/56/56 46/46/46
f 57/57/57 51/51/51 48/48/48
f 57/57/57 48/48/48 52/52/52
f 58/58/58 52/52/52 49/49/49
f 58/58/58 49/49/49 53/53/53
f 59/59/59 53/53/53 50/50/50
f 59/59/59 50/50/50 54/54/54
f 60/60/60 54/54/54 12/12/12
f 60/60/60 12/12/12 10/10/10
f 61/61/61 55/55/55 51/51/51
f 61/61/61 51/51/51 57/57/57
f 62/62/62 57/57/57 52/52/52
f 62/62/62 52/52/52 58/58/58
f 63/63/63 58/58/58 53/53/53
f 63/63/63 53/53/53 59/59/59
f 64/64/64 59/59/59 54/54/54
f 64/64/64 54/54/54 60/60/60
f 65/65/65 60/60/60 10/10/10
f 65/65/65 10/10/10 8/8/8
f 66/66/66 55/55/55 61/61/61
f 66/66/66 67/67/67 55/55/55
f 68/68/68 62/62/62 58/58/58
f 68/68/68 58/58/58 63/63/63
f 69/69/69 63/63/63 59/59/59
f 69/69/69 59/59/59 64/64/64
f 70/70/70 64/64/64 60/60/60
f 70/70/70 60/60/60 65/65/65
f 71/71/71 65/65/65 8/8/8
f 71/71/71 8/8/8 6/6/6
f 72/72/72 68/68/68 63/63/63
f 72/72/72 63/63/63 69/69/69
f 73/73/73 69/69/69 64/64/64
f 73/73/73 64/64/64 70/70/70
f 74/74/74 70/70/70 65/65/65
f 74/74/74 65/65/65 71/71/71
f 75/75/75 71/71/71 6/6/6
f 75/75/75 6/6/6 4/4/4
f 76/76/76 72/72/72 69/69/69
f 76/76/76 69/69/69 73/73/73
f 77/77/77 73/73/73 70/70/70
f 77/77/77 70/70/70 74/74/74
f 78/78/78 74/74/74 71/71/71
f 78/78/78 71/71/71 75/75/75
f 79/79/79 75/75/75 4/4/4
f 79/79/79 4/4/4 1/1/1
f 80/80/80 76/76/76 73/73/73
f 80/80/80 73/73/73 77/77/77
f 81/81/81 77/77/77 74/74/74
f 81/81/81 74/74/74 78/78/78
f 82/82/82 78/78/78 75/75/75
f 82/82/82 75/75/75 79/79/79
f 83/83/83 79/79/79 1/1/1
f 1/1/1 84/84/84 83/83/83
f 85/85/85 79/79/79 83/83/83
f 85/85/85 82/82/82 79/79/79
f 86/86/86 78/78/78 82/82/82
f 86/86/86 81/81/81 78/78/78
f 87/87/87 77/77/77 81/81/81
f 87/87/87 80/80/80 77/77/77
f 88/88/88 85/85/85 83/83/83
f 83/83/83 89/89/89 88/88/88
f 90/90/90 82/82/82 85/85/85
f 90/90/90 86/86/86 82/82/82
f 91/91/91 81/81/81 86/86/86
f 91/91/91 87/87/87 81/81/81
f 92/92/92 85/85/85 88/88/88
f 92/92/92 90/90/90 85/85/85
f 93/93/93 86/86/86 90/90/90
f 93/93/93 91/91/91 86/86/86
f 94/94/94 92/92/92 88/88/88
f 88/88/88 95/95/95 94/94/94
f 96/96/96 90/90/90 92/92/92
f 96/96/96 93/93/93 90/90/90
f 97/97/97 92/92/92 94/94/94
f 97/97/97 96/96/96 92/92/92
f 98/98/98 97/97/97 94/94/94
f 94/94/94 99/99/99 98/98/98
f 100/100/100 87/87/87 91/91/91
f 101/101/101 91/91/91 93/93/93
f 101/101/101 100/100/100 91/91/91
f 102/102/102 93/93/93 96/96/96
f 102/102/102 101/101/101 93/93/93
f 103/103/103 96/96/96 97/97/97
f 103/103/103 102/102/102 96/96/96
f 104/104/104 97/97/97 98/98/98
f 104/104/104 103/103/103 97/97/97
f 100/100/100 105/105/105 87/87/87
f 105/105/105 80/80/80 87/87/87
f 106/106/106 104/104/104 98/98/98
f 98/98/98 107/107/107 106/106/106
f 105/105/105 108/108/108 80/80/80
f 108/108/108 76/76/76 80/80/80
f 108/108/108 109/109/109 76/76/76
f 109/109/109 72/72/72 76/76/76
f 109/109/109 110/110/110 72/72/72
f 110/110/110 68/68/68 72/72/72
f 110/110/110 111/111/111 68/68/68
f 111/111/111 62/62/62 68/68/68
f 111/111/111 112/112/112 62/62/62
f 112/112/112 57/57/57 62/62/62
f 112/112/112 61/61/61 57/57/57
f 113/113/113 61/61/61 112/112/112
f 113/113/113 66/66/66 61/61/61
f 114/114/114 112/112/112 111/111/111
f 114/114/114 113/113/113 112/112/112
f 115/115/115 111/111/111 110/110/110
f 115/115/115 114/114/114 111/111/111
f 116/116/116 110/110/110 109/109/109
f 116/116/116 115/115/115 110/110/110
f 117/117/117 109/109/109 108/108/108
f 117/117/117 116/116/116 109/109/109
f 118/118/118 66/66/66 113/113/113
f 118/118/118 119/119/119 66/66/66
f 120/120/120 113/113/113 114/114/114
f 120/120/120 118/118/118 113/113/113
f 121/121/121 114/114/114 115/115/115
f 121/121/121 120/120/120 114/114/114
f 122/122/122 115/115/115 116/116/116
f 122/122/122 121/121/121 115/115/115
f 123/123/123 118/118/118 120/120/120
f 123/123/123 124/124/124 118/118/118
f 125/125/125 120/120/120 121/121/121
f 125/125/125 123/123/123 120/120/120
f 126/126/126 117/117/117 108/108/108
f 126/126/126 108/108/108 105/105/105
f 127/127/127 116/116/116 117/117/117
f 127/127/127 122/122/122 116/116/116
f 128/128/128 121/121/121 122/122/122
f 128/128/128 125/125/125 121/121/121
f 129/129/129 123/123/123 125/125/125
f 129/129/129 130/130/130 123/123/123
f 131/131/131 129/129/129 125/125/125
f 131/131/131 125/125/125 128/128/128
f 132/132/132 128/128/128 122/122/122
f 132/132/132 122/122/122 127/127/127
f 133/133/133 127/127/127 117/117/117
f 133/133/133 117/117/117 126/126/126
f 134/134/134 126/126/126 105/105/105
f 134/134/134 105/105/105 100/100/100
f 135/135/135 129/129/129 131/131/131
f 135/135/135 136/136/136 129/129/129
f 137/137/137 131/131/131 128/128/128
f 137/137/137 128/128/128 132/132/132
f 138/138/138 132/132/132 127/127/127
f 138/138/138 127/127/127 133/133/133
f 139/139/139 133/133/133 126/126/126
f 139/139/139 126/126/126 134/134/134
f 140/140/140 134/134/134 100/100/100
f 140/140/140 100/100/100 101/101/101
f 141/141/141 135/135/135 131/131/131
f 141/141/141 131/131/131 137/137/137
f 142/142/142 137/137/137 132/132/132
f 142/142/142 132/132/132 138/138/138
f 143/143/143 138/138/138 133/133/133
f 143/143/143 133/133/133 139/139/139
f 144/144/144 139/139/139 134/134/134
f 144/144/144 134/134/134 140/140/140
f 145/145/145 140/140/140 101/101/101
f 145/145/145 101/101/101 102/102/102
f 146/146/146 135/135/135 141/141/141
f 146/146/146 147/147/147 135/135/135
f 148/148/148 142/142/142 138/138/138
f 148/148/148 138/138/138 143/143/143
f 149/149/149 143/143/143 139/139/139
f 149/149/149 139/139/139 144/144/144
f 150/150/150 144/144/144 140/140/140
f 150/150/150 140/140/140 145/145/145
f 151/151/151 145/145/145 102/102/102
f 151/151/151 102/102/102 103/103/103
f 152/152/152 148/148/148 143/143/143
f 152/152/152 143/143/143 149/149/149
f 153/153/153 149/149/149 144/144/144
f 153/153/153 144/144/144 150/150/150
f 154/154/154 150/150/150 145/145/145
f 154/154/154 145/145/145 151/151/151
f 155/155/155 151/151/151 103/103/103
f 155/155/155 103/103/103 104/104/104
f 156/156/156 152/152/152 149/149/149
f 156/156/156 149/149/149 153/153/153
f 157/157/157 153/153/153 150/150/150
f 157/157/157 150/150/150 154/154/154
f 158/158/158 154/154/154 151/151/151
f 158/158/158 151/151/151 155/155/155
f 159/159/159 155/155/155 104/104/104
f 159/159/159 104/104/104 106/106/106
f 160/160/160 156/156/156 153/153/153
f 160/160/160 153/153/153 157/157/157
f 161/161/161 157/157/157 154/154/154
f 161/161/161 154/154/154 158/158/158
f 162/162/162 158/158/158 155/155/155
f 162/162/162 155/155/155 159/159/159
f 163/163/163 159/159/159 106/106/106
f 106/106/106 164/164/164 163/163/163
f 165/165/165 159/159/159 163/163/163
f 165/165/165 162/162/162 159/159/159
f 166/166/166 158/158/158 162/162/162
f 166/166/166 161/161/161 158/158/158
f 167/167/167 157/157/157 161/161/161
f 167/167/167 160/160/160 157/157/157
f 168/168/168 165/165/165 163/163/163
f 163/163/163 169/169/169 168/168/168
f 170/170/170 162/162/162 165/165/165
f 170/170/170 166/166/166 162/162/162
f 171/171/171 161/161/161 166/166/166
f 171/171/171 167/167/167 161/161/161
f 172/172/172 165/165/165 168/168/168
f 172/172/172 170/170/170 165/165/165
f 173/173/173 166/166/166 170/170/170
f 173/173/173 171/171/171 166/166/166
f 174/174/174 172/172/172 168/168/168
f 168/168/168 175/175/175 174/174/174
f 176/176/176 170/170/170 172/172/172
f 176/176/176 173/173/173 170/170/170
f 177/177/177 172/172/172 174/174/174
f 177/177/177 176/176/176 172/172/172
f 178/178/178 177/177/177 174/174/174
f 174/174/174 179/179/179 178/178/178
f 180/180/180 167/167/167 171/171/171
f 181/181/181 171/171/171 173/173/173
f 181/181/181 180/180/180 171/171/171
f 182/182/182 173/173/173 176/176/176
f 182/182/182 181/181/181 173/173/173
f 183/183/183 176/176/176 177/177/177
f 183/183/183 182/182/182 176/176/176
f 184/184/184 177/177/177 178/178/178
f 184/184/184 183/183/183 177/177/177
f 180/180/180 185/185/185 167/167/167
f 185/185/185 160/160/160 167/167/167
f 186/186/186 184/184/184 178/178/178
f 178/178/178 187/187/187 186/186/186
f 185/185/185 188/188/188 160/160/160
f 188/188/188 156/156/156 160/160/160
f 188/188/188 189/189/189 156/156/156
f 189/189/189 152/152/152 156/156/156
f 189/189/189 190/190/190 152/152/152
f 190/190/190 148/148/148 152/152/152
f 190/190/190 191/191/191 148/148/148
f 191/191/191 142/142/142 148/148/148
f 191/191/191 192/192/192 142/142/142
f 192/192/192 137/137/137 142/142/142
f 192/192/192 141/141/141 137/137/137
f 193/193/193 141/141/141 192/192/192
f 193/193/193 146/146/146 141/141/141
f 194/194/194 192/192/192 191/191/191
f 194/194/194 193/193/193 192/192/192
f 195/195/195 191/191/191 190/190/190
f 195/195/195 194/194/194 191/191/191
f 196/196/196 190/190/190 189/189/189
f 196/196/196 195/195/195 190/190/190
f 197/197/197 189/189/189 188/188/188
f 197/197/197 196/196/196 189/189/189
f 198/198/198 146/146/146 193/193/193
f 198/198/198 199/199/199 146/146/146
f 200/200/200 193/193/193 194/194/194
f 200/200/200 198/198/198 193/193/193
f 201/201/201 194/194/194 195/195/195
f 201/201/201 200/200/200 194/194/194
f 202/202/202 195/195/195 196/196/196
f 202/202/202 201/201/201 195/195/195
f 203/203/203 198/198/198 200/200/200
f 203/203/203 204/204/204 198/198/198
f 205/205/205 200/200/200 201/201/201
f 205/205/205 203/203/203 200/200/200
f 206/206/206 203/203/203 205/205/205
f 206/206/206 207/207/207 203/203/203
f 208/208/208 206/206/206 205/205/205
f 209/209/209 205/205/205 201/201/201
f 208/208/208 205/205/205 209/209/209
f 209/209/209 201/201/201 202/202/202
f 210/210/210 208/208/208 209/209/209
f 210/210/210 209/209/209 211/211/211
f 211/211/211 209/209/209 202/202/202
f 212/212/212 210/210/210 211/211/211
f 213/213/213 202/202/202 196/196/196
f 211/211/211 202/202/202 213/213/213
f 213/213/213 196/196/196 197/197/197
f 212/212/212 211/211/211 214/214/214
f 214/214/214 211/211/211 213/213/213
f 215/215/215 212/212/212 214/214/214
f 216/216/216 213/213/213 197/197/197
f 214/214/214 213/213/213 216/216/216
f 215/215/215 214/214/214 217/217/217
f 217/217/217 214/214/214 216/216/216
f 218/218/218 215/215/215 217/217/217
f 216/216/216 197/197/197 219/219/219
f 219/219/219 197/197/197 188/188/188
f 219/219/219 188/188/188 185/185/185
f 217/217/217 216/216/216 220/220/220
f 220/220/220 216/216/216 219/219/219
f 218/218/218 217/217/217 221/221/221
f 221/221/221 217/217/217 220/220/220
f 222/222/222 218/218/218 221/221/221
f 223/223/223 219/219/219 185/185/185
f 220/220/220 219/219/219 223/223/223
f 223/223/223 185/185/185 180/180/180
f 221/221/221 220/220/220 224/224/224
f 224/224/224 220/220/220 223/223/223
f 222/222/222 221/221/221 225/225/225
f 225/225/225 221/221/221 224/224/224
f 226/226/226 222/222/222 225/225/225
f 227/227/227 223/223/223 180/180/180
f 224/224/224 223/223/223 227/227/227
f 227/227/227 180/180/180 181/181/181
f 225/225/225 224/224/224 228/228/228
f 228/228/228 224/224/224 227/227/227
f 226/226/226 225/225/225 229/229/229
f 229/229/229 225/225/225 228/228/228
f 230/230/230 226/226/226 229/229/229
f 231/231/231 227/227/227 181/181/181
f 228/228/228 227/227/227 231/231/231
f 231/231/231 181/181/181 182/182/182
f 229/229/229 228/228/228 232/232/232
f 232/232/232 228/228/228 231/231/231
f 230/230/230 229/229/229 233/233/233
f 233/233/233 229/229/229 232/232/232
f 234/234/234 230/230/230 233/233/233
f 235/235/235 231/231/231 182/182/182
f 232/232/232 231/231/231 235/235/235
f 235/235/235 182/182/182 183/183/183
f 233/233/233 232/232/232 236/236/236
f 236/236/236 232/232/232 235/235/235
f 234/234/234 233/233/233 237/237/237
f 237/237/237 233/233/233 236/236/236
f 238/238/238 234/234/234 237/237/237
f 239/239/239 235/235/235 183/183/183
f 236/236/236 235/235/235 239/239/239
f 239/239/239 183/183/183 184/184/184
f 237/237/237 236/236/236 240/240/240
f 240/240/240 236/236/236 239/239/239
f 238/238/238 237/237/237 241/241/241
f 241/241/241 237/237/237 240/240/240
f 242/242/242 238/238/238 241/241/241
f 243/243/243 239/239/239 184/184/184
f 240/240/240 239/239/239 243/243/243
f 243/243/243 184/184/184 186/186/186
f 241/241/241 240/240/240 244/244/244
f 244/244/244 240/240/240 243/243/243
f 242/242/242 241/241/241 245/245/245
f 245/245/245 241/241/241 244/244/244
f 246/246/246 242/242/242 245/245/245
f 247/247/247 243/243/243 186/186/186
f 244/244/244 243/243/243 247/247/247
f 186/186/186 248/248/248 247/247/247
f 249/249/249 244/244/244 247/247/247
f 245/245/245 244/244/244 249/249/249
f 247/247/247 250/250/250 249/249/249
f 246/246/246 245/245/245 251/251/251
f 251/251/251 245/245/245 249/249/249
f 249/249/249 252/252/252 251/251/251
f 253/253/253 246/246/246 251/251/251
f 251/251/251 254/254/254 253/253/253
