g planet_1M
v 0.0065889633 -0.050251845 -0.007937784
v -0.0005582577 -0.05137451 -9.536743E-09
v 0.009199644 -0.050251845 -0.0043444918
v 0.013423828 -0.046932906 -0.01552865
v 0.018531078 -0.046932906 -0.008499117
v 0.019647585 -0.04156288 -0.022440843
v 0.027028214 -0.04156288 -0.012282266
v 0.024988264 -0.03437622 -0.028372278
v 0.03431967 -0.03437622 -0.01552865
v 0.029212434 -0.025687255 -0.033063706
v 0.040086832 -0.025687255 -0.018096322
v 0.032135487 -0.015875624 -0.03631005
v 0.044077594 -0.015875624 -0.019873133
v 0.033629663 -0.0053700255 -0.037969504
v 0.046117544 -0.0053700255 -0.02078141
v 0.033629663 0.005370102 -0.037969504
v 0.046117544 0.005370102 -0.02078141
v 0.032135487 0.015875624 -0.03631005
v 0.044077594 0.015875624 -0.019873133
v 0.029212434 0.025687255 -0.033063706
v 0.040086832 0.025687255 -0.018096322
v 0.024988264 0.03437622 -0.028372278
v 0.03431967 0.03437622 -0.01552865
v 0.019647585 0.04156288 -0.022440843
v 0.027028214 0.04156288 -0.012282266
v 0.013423828 0.046932906 -0.01552865
v 0.018531078 0.046932906 -0.008499117
v 0.0065889633 0.050251845 -0.007937784
v 0.009199644 0.050251845 -0.0043444918
v -0.0005582577 0.05137451 -9.536743E-09
v 0.0027424644 0.050251845 -0.010158548
v -0.0005582577 0.05137451 -9.536743E-09
v 0.0058989287 0.046932906 -0.019873133
v 0.008773182 0.04156288 -0.028719187
v 0.011239607 0.03437622 -0.03631005
v -0.0016747606 0.050251845 -0.010622835
v -0.0005582577 0.05137451 -9.536743E-09
v -0.0027424681 0.046932906 -0.02078141
v 0.013190408 0.025687255 -0.042314023
v -0.0037147147 0.04156288 -0.030031709
v -0.005898932 0.050251845 -0.0092503065
v -0.0005582577 0.05137451 -9.536743E-09
v -0.011006193 0.046932906 -0.018096361
v -0.0045490093 0.03437622 -0.037969504
v 0.014540319 0.015875624 -0.04646863
v -0.009199653 0.050251845 -0.006278353
v -0.0005582577 0.05137451 -9.536743E-09
v -0.01565683 0.04156288 -0.026151475
v -0.005208888 0.025687255 -0.044247847
v 0.015230367 0.005370102 -0.048592348
v -0.017463382 0.046932906 -0.012282266
v -0.019647587 0.03437622 -0.033063706
v -0.0056655128 0.015875624 -0.048592366
v 0.015230367 -0.0053700255 -0.048592348
v -0.011006198 0.050251845 -0.0022207736
v -0.0005582577 0.05137451 -9.536743E-09
v -0.024988264 0.04156288 -0.017749453
v -0.022804048 0.025687255 -0.038530834
v -0.005898925 0.005370102 -0.05081313
v 0.014540319 -0.015875624 -0.04646863
v -0.020997511 0.046932906 -0.0043444918
v -0.031445444 0.03437622 -0.022440843
v -0.024988262 0.015875624 -0.042314023
v -0.005898925 -0.0053700255 -0.05081313
v 0.013190408 -0.025687255 -0.042314023
v -0.011006198 0.050251845 0.0022207927
v -0.0005582577 0.05137451 -9.536743E-09
v -0.03655271 0.025687255 -0.026151475
v -0.026104765 0.005370102 -0.044247847
v -0.0056655128 -0.015875624 -0.048592366
v 0.011239607 -0.03437622 -0.03631005
v -0.04008684 0.015875624 -0.028719187
v -0.026104765 -0.0053700255 -0.044247847
v -0.005208888 -0.025687255 -0.044247847
v 0.008773182 -0.04156288 -0.028719187
v -0.041893385 0.005370102 -0.030031746
v -0.024988262 -0.015875624 -0.042314023
v -0.0045490093 -0.03437622 -0.037969504
v 0.0058989287 -0.046932906 -0.019873133
v -0.041893385 -0.0053700255 -0.030031746
v -0.022804048 -0.025687255 -0.038530834
v -0.0037147147 -0.04156288 -0.030031709
v 0.0027424644 -0.050251845 -0.010158548
v -0.0005582577 -0.05137451 -9.536743E-09
v -0.0027424681 -0.046932906 -0.02078141
v -0.019647587 -0.03437622 -0.033063706
v -0.04008684 -0.015875624 -0.028719187
v -0.0016747606 -0.050251845 -0.010622835
v -0.0005582577 -0.05137451 -9.536743E-09
v -0.01565683 -0.04156288 -0.026151475
v -0.03655271 -0.025687255 -0.026151475
v -0.011006193 -0.046932906 -0.018096361
v -0.031445444 -0.03437622 -0.022440843
v -0.005898932 -0.050251845 -0.0092503065
v -0.0005582577 -0.05137451 -9.536743E-09
v -0.024988264 -0.04156288 -0.017749453
v -0.017463382 -0.046932906 -0.012282266
v -0.009199653 -0.050251845 -0.006278353
v -0.0005582577 -0.05137451 -9.536743E-09
v -0.048350573 -0.015875624 -0.010158548
v -0.044077605 -0.025687255 -0.0092503065
v -0.037902635 -0.03437622 -0.007937784
v -0.030095534 -0.04156288 -0.006278353
v -0.020997511 -0.046932906 -0.0043444918
v -0.05053478 -0.0053700255 -0.010622835
v -0.011006198 -0.050251845 -0.0022207736
v -0.0005582577 -0.05137451 -9.536743E-09
v -0.05053478 0.005370102 -0.010622835
v -0.048350573 0.015875624 -0.010158548
v -0.044077605 0.025687255 -0.0092503065
v -0.037902635 0.03437622 -0.007937784
v -0.030095534 0.04156288 -0.006278353
v -0.020997511 0.046932906 0.004344511
v -0.030095534 0.04156288 0.0062783337
v -0.037902635 0.03437622 0.007937803
v -0.044077605 0.025687255 0.009250326
v -0.04835058 0.015875624 0.010158567
v -0.009199654 0.050251845 0.0062783337
v -0.0005582577 0.05137451 -9.536743E-09
v -0.01746338 0.046932906 0.012282286
v -0.02498827 0.04156288 0.017749432
v -0.03144545 0.03437622 0.022440862
v -0.0058989343 0.050251845 0.009250326
v -0.0005582577 0.05137451 -9.536743E-09
v -0.011006199 0.046932906 0.01809638
v -0.05053478 0.005370102 0.010622854
v -0.036552716 0.025687255 0.026151495
v -0.015656838 0.04156288 0.026151495
v -0.0016747635 0.050251845 0.010622854
v -0.0005582577 0.05137451 -9.536743E-09
v -0.0027424728 0.046932906 0.020781431
v -0.019647595 0.03437622 0.033063725
v -0.04008685 0.015875624 0.028719205
v -0.05053478 -0.0053700255 0.010622854
v 0.002742462 0.050251845 0.010158567
v -0.0005582577 0.05137451 -9.536743E-09
v -0.003714722 0.04156288 0.030031728
v -0.02280406 0.025687255 0.038530875
v -0.04189339 0.005370102 0.030031728
v -0.04835058 -0.015875624 0.010158567
v 0.0058989236 0.046932906 0.019873152
v -0.004549018 0.03437622 0.03796954
v -0.024988273 0.015875624 0.042314023
v -0.04189339 -0.0053700255 0.030031728
v -0.044077605 -0.025687255 0.009250326
v 0.0065889633 0.050251845 0.007937803
v -0.0005582577 0.05137451 -9.536743E-09
v -0.005208899 0.025687255 0.044247884
v -0.026104776 0.005370102 0.044247884
v -0.04008685 -0.015875624 0.028719205
v -0.037902635 -0.03437622 0.007937803
v -0.005665524 0.015875624 0.048592366
v -0.026104776 -0.0053700255 0.044247884
v -0.036552716 -0.025687255 0.026151495
v -0.030095534 -0.04156288 0.0062783337
v -0.0058989367 0.005370102 0.05081313
v -0.024988273 -0.015875624 0.042314023
v -0.03144545 -0.03437622 0.022440862
v -0.020997511 -0.046932906 0.004344511
v -0.0058989367 -0.0053700255 0.05081313
v -0.02280406 -0.025687255 0.038530875
v -0.02498827 -0.04156288 0.017749432
v -0.011006198 -0.050251845 0.0022207927
v -0.0005582577 -0.05137451 -9.536743E-09
v -0.01746338 -0.046932906 0.012282286
v -0.019647595 -0.03437622 0.033063725
v -0.005665524 -0.015875624 0.048592366
v -0.009199654 -0.050251845 0.0062783337
v -0.0005582577 -0.05137451 -9.536743E-09
v -0.015656838 -0.04156288 0.026151495
v -0.005208899 -0.025687255 0.044247884
v -0.011006199 -0.046932906 0.01809638
v -0.004549018 -0.03437622 0.03796954
v -0.0058989343 -0.050251845 0.009250326
v -0.0005582577 -0.05137451 -9.536743E-09
v -0.003714722 -0.04156288 0.030031728
v -0.0027424728 -0.046932906 0.020781431
v -0.0016747635 -0.050251845 0.010622854
v -0.0005582577 -0.05137451 -9.536743E-09
v 0.014540319 -0.015875624 0.04646865
v 0.0131904 -0.025687255 0.04231406
v 0.0112396 -0.03437622 0.03631011
v 0.008773177 -0.04156288 0.028719205
v 0.0058989236 -0.046932906 0.019873152
v 0.015230358 -0.0053700255 0.048592366
v 0.002742462 -0.050251845 0.010158567
v -0.0005582577 -0.05137451 -9.536743E-09
v 0.015230358 0.005370102 0.048592366
v 0.014540319 0.015875624 0.04646865
v 0.0131904 0.025687255 0.04231406
v 0.0112396 0.03437622 0.03631011
v 0.008773177 0.04156288 0.028719205
v 0.013423814 0.046932906 0.015528669
v 0.019647585 0.04156288 0.022440862
v 0.024988262 0.03437622 0.028372297
v 0.029212432 0.025687255 0.033063725
v 0.032135483 0.015875624 0.03631011
v 0.009199645 0.050251845 0.004344511
v -0.0005582577 0.05137451 -9.536743E-09
v 0.01853108 0.046932906 0.008499136
v 0.027028222 0.04156288 0.012282286
v 0.0343197 0.03437622 0.015528669
v 0.010123097 0.050251845 -9.536743E-09
v -0.0005582577 0.05137451 -9.536743E-09
v 0.020337624 0.046932906 -9.536743E-09
v 0.009199644 0.050251845 -0.0043444918
v -0.0005582577 0.05137451 -9.536743E-09
v 0.018531078 0.046932906 -0.008499117
v 0.029638903 0.04156288 -9.536743E-09
v 0.027028214 0.04156288 -0.012282266
v 0.037620418 0.03437622 -9.536743E-09
v 0.03431967 0.03437622 -0.01552865
v 0.04008684 0.025687255 0.01809638
v 0.043933343 0.025687255 -9.536743E-09
v 0.040086832 0.025687255 -0.018096322
v 0.044077594 0.015875624 0.019873152
v 0.04830177 0.015875624 -9.536743E-09
v 0.044077594 0.015875624 -0.019873133
v 0.033629682 0.005370102 0.03796954
v 0.04611755 0.005370102 0.020781431
v 0.05053478 0.005370102 -9.536743E-09
v 0.046117544 0.005370102 -0.02078141
v 0.033629682 -0.0053700255 0.03796954
v 0.04611755 -0.0053700255 0.020781431
v 0.05053478 -0.0053700255 -9.536743E-09
v 0.046117544 -0.0053700255 -0.02078141
v 0.032135483 -0.015875624 0.03631011
v 0.044077594 -0.015875624 0.019873152
v 0.04830177 -0.015875624 -9.536743E-09
v 0.044077594 -0.015875624 -0.019873133
v 0.029212432 -0.025687255 0.033063725
v 0.04008684 -0.025687255 0.01809638
v 0.043933343 -0.025687255 -9.536743E-09
v 0.040086832 -0.025687255 -0.018096322
v 0.024988262 -0.03437622 0.028372297
v 0.0343197 -0.03437622 0.015528669
v 0.037620418 -0.03437622 -9.536743E-09
v 0.03431967 -0.03437622 -0.01552865
v 0.019647585 -0.04156288 0.022440862
v 0.027028222 -0.04156288 0.012282286
v 0.029638903 -0.04156288 -9.536743E-09
v 0.027028214 -0.04156288 -0.012282266
v 0.013423814 -0.046932906 0.015528669
v 0.01853108 -0.046932906 0.008499136
v 0.020337624 -0.046932906 -9.536743E-09
v 0.018531078 -0.046932906 -0.008499117
v 0.0065889633 -0.050251845 0.007937803
v -0.0005582577 -0.05137451 -9.536743E-09
v 0.009199645 -0.050251845 0.004344511
v -0.0005582577 -0.05137451 -9.536743E-09
v 0.010123097 -0.050251845 -9.536743E-09
v -0.0005582577 -0.05137451 -9.536743E-09
v 0.009199644 -0.050251845 -0.0043444918
v -0.0005582577 -0.05137451 -9.536743E-09
vt 0.06666667 0.06666667
vt 0.033333335 0
vt 0 0.06666667
vt 0.06666667 0.13333334
vt 0 0.13333334
vt 0.06666667 0.20000002
vt 0 0.20000002
vt 0.06666667 0.26666668
vt 0 0.26666668
vt 0.06666667 0.33333334
vt 0 0.33333334
vt 0.06666667 0.4
vt 0 0.4
vt 0.06666667 0.46666667
vt 0 0.46666667
vt 0.06666667 0.53333336
vt 0 0.53333336
vt 0.06666667 0.6
vt 0 0.6
vt 0.06666667 0.6666667
vt 0 0.6666667
vt 0.06666667 0.73333335
vt 0 0.73333335
vt 0.06666667 0.8
vt 0 0.8
vt 0.06666667 0.8666667
vt 0 0.8666667
vt 0.06666667 0.93333334
vt 0 0.93333334
vt 0.033333335 1
vt 0.13333334 0.93333334
vt 0.10000001 1
vt 0.13333334 0.8666667
vt 0.13333334 0.8
vt 0.13333334 0.73333335
vt 0.20000002 0.93333334
vt 0.16666667 1
vt 0.20000002 0.8666667
vt 0.13333334 0.6666667
vt 0.20000002 0.8
vt 0.26666668 0.93333334
vt 0.23333335 1
vt 0.26666668 0.8666667
vt 0.20000002 0.73333335
vt 0.13333334 0.6
vt 0.33333334 0.93333334
vt 0.3 1
vt 0.26666668 0.8
vt 0.20000002 0.6666667
vt 0.13333334 0.53333336
vt 0.33333334 0.8666667
vt 0.26666668 0.73333335
vt 0.20000002 0.6
vt 0.13333334 0.46666667
vt 0.4 0.93333334
vt 0.36666667 1
vt 0.33333334 0.8
vt 0.26666668 0.6666667
vt 0.20000002 0.53333336
vt 0.13333334 0.4
vt 0.4 0.8666667
vt 0.33333334 0.73333335
vt 0.26666668 0.6
vt 0.20000002 0.46666667
vt 0.13333334 0.33333334
vt 0.46666667 0.93333334
vt 0.43333337 1
vt 0.33333334 0.6666667
vt 0.26666668 0.53333336
vt 0.20000002 0.4
vt 0.13333334 0.26666668
vt 0.33333334 0.6
vt 0.26666668 0.46666667
vt 0.20000002 0.33333334
vt 0.13333334 0.20000002
vt 0.33333334 0.53333336
vt 0.26666668 0.4
vt 0.20000002 0.26666668
vt 0.13333334 0.13333334
vt 0.33333334 0.46666667
vt 0.26666668 0.33333334
vt 0.20000002 0.20000002
vt 0.13333334 0.06666667
vt 0.10000001 0
vt 0.20000002 0.13333334
vt 0.26666668 0.26666668
vt 0.33333334 0.4
vt 0.20000002 0.06666667
vt 0.16666667 0
vt 0.26666668 0.20000002
vt 0.33333334 0.33333334
vt 0.26666668 0.13333334
vt 0.33333334 0.26666668
vt 0.26666668 0.06666667
vt 0.23333335 0
vt 0.33333334 0.20000002
vt 0.33333334 0.13333334
vt 0.33333334 0.06666667
vt 0.3 0
vt 0.4 0.4
vt 0.4 0.33333334
vt 0.4 0.26666668
vt 0.4 0.20000002
vt 0.4 0.13333334
vt 0.4 0.46666667
vt 0.4 0.06666667
vt 0.36666667 0
vt 0.4 0.53333336
vt 0.4 0.6
vt 0.4 0.6666667
vt 0.4 0.73333335
vt 0.4 0.8
vt 0.46666667 0.8666667
vt 0.46666667 0.8
vt 0.46666667 0.73333335
vt 0.46666667 0.6666667
vt 0.46666667 0.6
vt 0.53333336 0.93333334
vt 0.50000006 1
vt 0.53333336 0.8666667
vt 0.53333336 0.8
vt 0.53333336 0.73333335
vt 0.6 0.93333334
vt 0.5666667 1
vt 0.6 0.8666667
vt 0.46666667 0.53333336
vt 0.53333336 0.6666667
vt 0.6 0.8
vt 0.6666667 0.93333334
vt 0.6333334 1
vt 0.6666667 0.8666667
vt 0.6 0.73333335
vt 0.53333336 0.6
vt 0.46666667 0.46666667
vt 0.73333335 0.93333334
vt 0.70000005 1
vt 0.6666667 0.8
vt 0.6 0.6666667
vt 0.53333336 0.53333336
vt 0.46666667 0.4
vt 0.73333335 0.8666667
vt 0.6666667 0.73333335
vt 0.6 0.6
vt 0.53333336 0.46666667
vt 0.46666667 0.33333334
vt 0.8 0.93333334
vt 0.7666667 1
vt 0.6666667 0.6666667
vt 0.6 0.53333336
vt 0.53333336 0.4
vt 0.46666667 0.26666668
vt 0.6666667 0.6
vt 0.6 0.46666667
vt 0.53333336 0.33333334
vt 0.46666667 0.20000002
vt 0.6666667 0.53333336
vt 0.6 0.4
vt 0.53333336 0.26666668
vt 0.46666667 0.13333334
vt 0.6666667 0.46666667
vt 0.6 0.33333334
vt 0.53333336 0.20000002
vt 0.46666667 0.06666667
vt 0.43333337 0
vt 0.53333336 0.13333334
vt 0.6 0.26666668
vt 0.6666667 0.4
vt 0.53333336 0.06666667
vt 0.50000006 0
vt 0.6 0.20000002
vt 0.6666667 0.33333334
vt 0.6 0.13333334
vt 0.6666667 0.26666668
vt 0.6 0.06666667
vt 0.5666667 0
vt 0.6666667 0.20000002
vt 0.6666667 0.13333334
vt 0.6666667 0.06666667
vt 0.6333334 0
vt 0.73333335 0.4
vt 0.73333335 0.33333334
vt 0.73333335 0.26666668
vt 0.73333335 0.20000002
vt 0.73333335 0.13333334
vt 0.73333335 0.46666667
vt 0.73333335 0.06666667
vt 0.70000005 0
vt 0.73333335 0.53333336
vt 0.73333335 0.6
vt 0.73333335 0.6666667
vt 0.73333335 0.73333335
vt 0.73333335 0.8
vt 0.8 0.8666667
vt 0.8 0.8
vt 0.8 0.73333335
vt 0.8 0.6666667
vt 0.8 0.6
vt 0.8666667 0.93333334
vt 0.83333343 1
vt 0.8666667 0.8666667
vt 0.8666667 0.8
vt 0.8666667 0.73333335
vt 0.93333334 0.93333334
vt 0.9000001 1
vt 0.93333334 0.8666667
vt 1 0.93333334
vt 0.96666676 1
vt 1 0.8666667
vt 0.93333334 0.8
vt 1 0.8
vt 0.93333334 0.73333335
vt 1 0.73333335
vt 0.8666667 0.6666667
vt 0.93333334 0.6666667
vt 1 0.6666667
vt 0.8666667 0.6
vt 0.93333334 0.6
vt 1 0.6
vt 0.8 0.53333336
vt 0.8666667 0.53333336
vt 0.93333334 0.53333336
vt 1 0.53333336
vt 0.8 0.46666667
vt 0.8666667 0.46666667
vt 0.93333334 0.46666667
vt 1 0.46666667
vt 0.8 0.4
vt 0.8666667 0.4
vt 0.93333334 0.4
vt 1 0.4
vt 0.8 0.33333334
vt 0.8666667 0.33333334
vt 0.93333334 0.33333334
vt 1 0.33333334
vt 0.8 0.26666668
vt 0.8666667 0.26666668
vt 0.93333334 0.26666668
vt 1 0.26666668
vt 0.8 0.20000002
vt 0.8666667 0.20000002
vt 0.93333334 0.20000002
vt 1 0.20000002
vt 0.8 0.13333334
vt 0.8666667 0.13333334
vt 0.93333334 0.13333334
vt 1 0.13333334
vt 0.8 0.06666667
vt 0.7666667 0
vt 0.8666667 0.06666667
vt 0.83333343 0
vt 0.93333334 0.06666667
vt 0.9000001 0
vt 1 0.06666667
vt 0.96666676 0
vn 0.1791473 -0.96349275 -0.19896734
vn -0 -1 -3.9077186E-06
vn 0.24458456 -0.96349305 -0.10890189
vn 0.29430547 -0.89808 -0.32685855
vn 0.40180644 -0.8980803 -0.17889455
vn 0.40731645 -0.7933824 -0.45236897
vn 0.55609727 -0.79338187 -0.24759048
vn 0.5057523 -0.6547642 -0.5616925
vn 0.69048864 -0.65476316 -0.30742574
vn 0.5838953 -0.48840475 -0.6484807
vn 0.79717517 -0.48840532 -0.35492522
vn 0.63799846 -0.30147848 -0.70856804
vn 0.8710405 -0.30147916 -0.3878126
vn 0.66564626 -0.10191497 -0.73927563
vn 0.9087886 -0.10191518 -0.404619
vn 0.6656463 0.101915434 -0.7392755
vn 0.9087883 0.101915404 -0.40461951
vn 0.63799864 0.30148026 -0.70856714
vn 0.87104034 0.30148047 -0.38781208
vn 0.5838941 0.48840368 -0.64848244
vn 0.79717493 0.4884051 -0.35492605
vn 0.50575113 0.65476257 -0.56169546
vn 0.6904883 0.6547631 -0.30742675
vn 0.40731668 0.7933825 -0.4523686
vn 0.5560972 0.7933817 -0.24759112
vn 0.29430524 0.89807963 -0.32685998
vn 0.40180597 0.8980793 -0.17890123
vn 0.17914759 0.9634943 -0.19895989
vn 0.24458472 0.9634937 -0.10889518
vn -0 1 1.9930457E-07
vn 0.0827337 0.9634946 -0.25462377
vn -0 1 1.9930457E-07
vn 0.13591547 0.8980812 -0.41830277
vn 0.18810609 0.7933823 -0.5789307
vn 0.23356567 0.6547629 -0.71884114
vn -0.027985606 0.96349406 -0.2662631
vn -0 1 1.9930457E-07
vn -0.045974683 0.8980795 -0.43742365
vn 0.26965362 0.48840433 -0.8299085
vn -0.063629225 0.79338175 -0.6053897
vn -0.13386628 0.9634942 -0.23185925
vn -0 1 1.9930457E-07
vn -0.21991596 0.8980798 -0.38090643
vn -0.07900627 0.6547628 -0.75169384
vn 0.29463947 0.3014796 -0.90680623
vn -0.21659951 0.9634942 -0.15736493
vn -0 1 1.9930457E-07
vn -0.30436167 0.79338217 -0.5271705
vn -0.091213465 0.4884058 -0.8678363
vn 0.3074078 0.10191496 -0.94610447
vn -0.35583162 0.89808 -0.25852665
vn -0.37791643 0.6547622 -0.6545728
vn -0.09966488 0.3014799 -0.94824934
vn 0.30740777 -0.10191452 -0.9461046
vn -0.26188016 0.9634935 -0.055669464
vn -0 1 1.9930457E-07
vn -0.49246758 0.7933811 -0.35780177
vn -0.43630874 0.4884054 -0.75570816
vn -0.103983976 0.101914436 -0.98934364
vn 0.29463986 -0.3014789 -0.90680635
vn -0.4302197 0.8980803 -0.0914477
vn -0.6114831 0.65476215 -0.444269
vn -0.47673663 0.3014806 -0.8257309
vn -0.10398465 -0.10191433 -0.9893435
vn 0.26965412 -0.48840445 -0.82990825
vn -0.26188058 0.9634938 0.05566178
vn -0 1 1.9930457E-07
vn -0.70596284 0.4884049 -0.51291037
vn -0.49739638 0.10191474 -0.86151624
vn -0.09966551 -0.30147937 -0.94824946
vn 0.23356573 -0.65476304 -0.7188411
vn -0.77137524 0.3014806 -0.56043696
vn -0.49739674 -0.10191463 -0.861516
vn -0.091213204 -0.48840374 -0.8678374
vn 0.18810624 -0.79338247 -0.5789303
vn -0.8048043 0.10191534 -0.5847251
vn -0.47673625 -0.3014794 -0.8257317
vn -0.079006076 -0.6547612 -0.7516953
vn 0.1359157 -0.89808136 -0.4183024
vn -0.80480486 -0.10191495 -0.5847243
vn -0.43630785 -0.4884041 -0.75570947
vn -0.06362934 -0.7933832 -0.60538787
vn 0.0827336 -0.9634934 -0.25462836
vn -0 -1 -3.9077186E-06
vn -0.045974955 -0.898082 -0.4374184
vn -0.37791598 -0.6547611 -0.65457416
vn -0.771376 -0.30147937 -0.56043667
vn -0.027985634 -0.9634937 -0.26626417
vn -0 -1 -3.9077186E-06
vn -0.30436158 -0.7933823 -0.52717036
vn -0.7059621 -0.48840433 -0.512912
vn -0.21991637 -0.89808106 -0.38090298
vn -0.6114827 -0.6547617 -0.4442703
vn -0.13386622 -0.9634934 -0.23186304
vn -0 -1 -3.9077186E-06
vn -0.4924681 -0.7933819 -0.35779917
vn -0.3558321 -0.89808077 -0.25852352
vn -0.21659936 -0.9634936 -0.15736826
vn -0 -1 -3.9077186E-06
vn -0.9326371 -0.30147904 -0.1982383
vn -0.8535483 -0.48840466 -0.18142802
vn -0.73931754 -0.65476274 -0.15714768
vn -0.595422 -0.7933822 -0.1265597
vn -0.43021986 -0.8980807 -0.091443695
vn -0.97305435 -0.1019149 -0.20682995
vn -0.26188034 -0.96349406 -0.055658307
vn -0 -1 -3.9077186E-06
vn -0.97305435 0.101915255 -0.20682941
vn -0.93263686 0.30148017 -0.19823763
vn -0.8535484 0.48840472 -0.18142758
vn -0.7393175 0.65476257 -0.1571486
vn -0.59542173 0.79338187 -0.12656322
vn -0.43021974 0.8980807 0.09144393
vn -0.5954217 0.7933823 0.1265602
vn -0.7393171 0.6547633 0.15714715
vn -0.85354817 0.4884054 0.1814269
vn -0.932637 0.30148035 0.19823715
vn -0.2165992 0.9634934 0.15737018
vn -0 1 1.9930457E-07
vn -0.3558314 0.89808047 0.25852564
vn -0.49246758 0.7933822 0.3577994
vn -0.6114818 0.6547625 0.4442704
vn -0.13386695 0.96349514 0.23185489
vn -0 1 1.9930457E-07
vn -0.21991709 0.8980815 0.38090166
vn -0.97305447 0.101915106 0.2068293
vn -0.7059621 0.48840493 0.51291144
vn -0.3043622 0.7933823 0.52716994
vn -0.027985053 0.96349436 0.26626176
vn -0 1 1.9930457E-07
vn -0.04597449 0.89808196 0.4374189
vn -0.37791678 0.65476197 0.65457284
vn -0.77137595 0.30148032 0.56043625
vn -0.97305435 -0.10191469 0.20682971
vn 0.082734 0.9634934 0.25462854
vn -0 1 1.9930457E-07
vn -0.063629314 0.7933827 0.6053886
vn -0.4363101 0.48840454 0.7557079
vn -0.804805 0.10191512 0.58472395
vn -0.9326371 -0.30147904 0.19823802
vn 0.13591565 0.89808124 0.4183025
vn -0.07900702 0.65476316 0.7516934
vn -0.476737 0.3014798 0.8257311
vn -0.8048046 -0.101914674 0.5847247
vn -0.85354817 -0.4884053 0.18142736
vn 0.17914654 0.9634945 0.19895975
vn -0 1 1.9930457E-07
vn -0.09121402 0.48840365 0.8678374
vn -0.49739584 0.101915054 0.8615164
vn -0.7713758 -0.30147898 0.5604372
vn -0.739317 -0.65476316 0.15714815
vn -0.09966467 0.3014791 0.94824964
vn -0.49739707 -0.101915166 0.86151576
vn -0.7059628 -0.48840532 0.51291025
vn -0.59542155 -0.7933822 0.12656175
vn -0.10398342 0.10191485 0.98934364
vn -0.4767377 -0.30147934 0.8257308
vn -0.61148196 -0.654763 0.44426936
vn -0.43021962 -0.8980807 0.091445655
vn -0.10398362 -0.10191486 0.98934364
vn -0.43631053 -0.48840475 0.75570756
vn -0.49246737 -0.7933816 0.3578011
vn -0.26188052 -0.9634935 0.055666197
vn -0 -1 -3.9077186E-06
vn -0.35583124 -0.89808 0.2585273
vn -0.37791783 -0.6547632 0.6545711
vn -0.09966508 -0.30147833 0.94824976
vn -0.2165993 -0.96349394 0.15736607
vn -0 -1 -3.9077186E-06
vn -0.3043621 -0.79338104 0.52717197
vn -0.091214 -0.48840442 0.867837
vn -0.21991655 -0.89807945 0.38090688
vn -0.07900691 -0.6547646 0.7516923
vn -0.13386661 -0.9634935 0.23186195
vn -0 -1 -3.9077186E-06
vn -0.063629426 -0.793383 0.6053881
vn -0.045974486 -0.89807945 0.43742388
vn -0.027985074 -0.96349275 0.26626807
vn -0 -1 -3.9077186E-06
vn 0.2946382 -0.30147794 0.90680724
vn 0.26965305 -0.48840433 0.8299087
vn 0.23356515 -0.65476364 0.7188406
vn 0.18810597 -0.79338336 0.5789291
vn 0.13591553 -0.89807916 0.41830713
vn 0.30740634 -0.10191442 0.946105
vn 0.082733996 -0.96349263 0.2546313
vn -0 -1 -3.9077186E-06
vn 0.3074072 0.101914786 0.9461048
vn 0.29463813 0.30147937 0.9068068
vn 0.26965258 0.48840377 0.8299092
vn 0.23356514 0.65476376 0.7188406
vn 0.18810582 0.7933828 0.57893
vn 0.29430407 0.89808136 0.3268563
vn 0.40731573 0.7933826 0.45236933
vn 0.50575185 0.6547632 0.5616942
vn 0.5838954 0.48840517 0.6484802
vn 0.63799775 0.30148017 0.708568
vn 0.24458504 0.9634936 0.10889487
vn -0 1 1.9930457E-07
vn 0.40180618 0.89807993 0.17889744
vn 0.5560969 0.7933817 0.24759172
vn 0.6904891 0.6547631 0.30742505
vn 0.26773173 0.9634935 4.365168E-06
vn -0 1 1.9930457E-07
vn 0.43983185 0.8980802 1.7902813E-06
vn 0.24458472 0.9634937 -0.10889518
vn -0 1 1.9930457E-07
vn 0.40180597 0.8980793 -0.17890123
vn 0.60872424 0.7933819 0
vn 0.5560972 0.7933817 -0.24759112
vn 0.7558342 0.65476304 -1.2455091E-06
vn 0.6904883 0.6547631 -0.30742675
vn 0.79717577 0.4884051 0.35492432
vn 0.872617 0.48840517 -9.053222E-07
vn 0.79717493 0.4884051 -0.35492605
vn 0.8710409 0.30147997 0.3878112
vn 0.9534725 0.30148005 0
vn 0.87104034 0.30148047 -0.38781208
vn 0.665646 0.101915166 0.73927575
vn 0.9087891 0.10191524 0.4046179
vn 0.9947931 0.10191512 0
vn 0.9087883 0.101915404 -0.40461951
vn 0.66564655 -0.10191503 0.73927534
vn 0.90878934 -0.101914994 0.40461743
vn 0.9947931 -0.10191482 -4.2490493E-07
vn 0.9087886 -0.10191518 -0.404619
vn 0.63799787 -0.30147892 0.70856845
vn 0.87104106 -0.30147877 0.38781184
vn 0.9534728 -0.3014791 0
vn 0.8710405 -0.30147916 -0.3878126
vn 0.58389413 -0.48840407 0.64848226
vn 0.79717517 -0.48840454 0.3549263
vn 0.872617 -0.48840517 5.051798E-07
vn 0.79717517 -0.48840532 -0.35492522
vn 0.5057514 -0.6547626 0.56169516
vn 0.690489 -0.65476316 0.3074251
vn 0.7558343 -0.654763 -1.0543379E-06
vn 0.69048864 -0.65476316 -0.30742574
vn 0.40731603 -0.7933828 0.45236862
vn 0.5560975 -0.7933825 0.24758793
vn 0.6087241 -0.7933819 -1.5890316E-06
vn 0.55609727 -0.79338187 -0.24759048
vn 0.29430386 -0.89808047 0.32685894
vn 0.40180653 -0.8980806 0.17889306
vn 0.43983182 -0.8980802 0
vn 0.40180644 -0.8980803 -0.17889455
vn 0.17914627 -0.9634934 0.19896506
vn -0 -1 -3.9077186E-06
vn 0.24458496 -0.9634934 0.10889819
vn -0 -1 -3.9077186E-06
vn 0.26773173 -0.9634935 0
vn -0 -1 -3.9077186E-06
vn 0.24458456 -0.96349305 -0.10890189
vn -0 -1 -3.9077186E-06
g planet_1M_0
f 3/3/3 2/2/2 1/1/1
f 1/1/1 4/4/4 3/3/3
f 4/4/4 5/5/5 3/3/3
f 4/4/4 6/6/6 5/5/5
f 6/6/6 7/7/7 5/5/5
f 6/6/6 8/8/8 7/7/7
f 8/8/8 9/9/9 7/7/7
f 8/8/8 10/10/10 9/9/9
f 10/10/10 11/11/11 9/9/9
f 10/10/10 12/12/12 11/11/11
f 12/12/12 13/13/13 11/11/11
f 12/12/12 14/14/14 13/13/13
f 14/14/14 15/15/15 13/13/13
f 14/14/14 16/16/16 15/15/15
f 16/16/16 17/17/17 15/15/15
f 16/16/16 18/18/18 17/17/17
f 18/18/18 19/19/19 17/17/17
f 18/18/18 20/20/20 19/19/19
f 20/20/20 21/21/21 19/19/19
f 20/20/20 22/22/22 21/21/21
f 22/22/22 23/23/23 21/21/21
f 22/22/22 24/24/24 23/23/23
f 24/24/24 25/25/25 23/23/23
f 24/24/24 26/26/26 25/25/25
f 26/26/26 27/27/27 25/25/25
f 26/26/26 28/28/28 27/27/27
f 28/28/28 29/29/29 27/27/27
f 28/28/28 30/30/30 29/29/29
f 31/31/31 28/28/28 26/26/26
f 31/31/31 32/32/32 28/28/28
f 33/33/33 26/26/26 24/24/24
f 33/33/33 31/31/31 26/26/26
f 34/34/34 24/24/24 22/22/22
f 34/34/34 33/33/33 24/24/24
f 35/35/35 22/22/22 20/20/20
f 35/35/35 34/34/34 22/22/22
f 36/36/36 31/31/31 33/33/33
f 36/36/36 37/37/37 31/31/31
f 38/38/38 33/33/33 34/34/34
f 38/38/38 36/36/36 33/33/33
f 39/39/39 35/35/35 20/20/20
f 39/39/39 20/20/20 18/18/18
f 40/40/40 34/34/34 35/35/35
f 40/40/40 38/38/38 34/34/34
f 41/41/41 36/36/36 38/38/38
f 41/41/41 42/42/42 36/36/36
f 43/43/43 41/41/41 38/38/38
f 43/43/43 38/38/38 40/40/40
f 44/44/44 40/40/40 35/35/35
f 44/44/44 35/35/35 39/39/39
f 45/45/45 39/39/39 18/18/18
f 45/45/45 18/18/18 16/16/16
f 46/46/46 41/41/41 43/43/43
f 46/46/46 47/47/47 41/41/41
f 48/48/48 43/43/43 40/40/40
f 48/48/48 40/40/40 44/44/44
f 49/49/49 44/44/44 39/39/39
f 49/49/49 39/39/39 45/45/45
f 50/50/50 45/45/45 16/16/16
f 50/50/50 16/16/16 14/14/14
f 51/51/51 46/46/46 43/43/43
f 51/51/51 43/43/43 48/48/48
f 52/52/52 48/48/48 44/44/44
f 52/52/52 44/44/44 49/49/49
f 53/53/53 49/49/49 45/45/45
f 53/53/53 45/45/45 50/50/50
f 54/54/54 50/50/50 14/14/14
f 54/54/54 14/14/14 12/12/12
f 55/55/55 46/46/46 51/51/51
f 55/55/55 56/56/56 46/46/46
f 57/57/57 51/51/51 48/48/48
f 57/57/57 48/48/48 52/52/52
f 58/58/58 52/52/52 49/49/49
f 58/58/58 49/49/49 53/53/53
f 59/59/59 53/53/53 50/50/50
f 59/59/59 50/50/50 54/54/54
f 60/60/60 54/54/54 12/12/12
f 60/60/60 12/12/12 10/10/10
f 61/61/61 55/55/55 51/51/51
f 61/61/61 51/51/51 57/57/57
f 62/62/62 57/57/57 52/52/52
f 62/62/62 52/52/52 58/58/58
f 63/63/63 58/58/58 53/53/53
f 63/63/63 53/53/53 59/59/59
f 64/64/64 59/59/59 54/54/54
f 64/64/64 54/54/54 60/60/60
f 65/65/65 60/60/60 10/10/10
f 65/65/65 10/10/10 8/8/8
f 66/66/66 55/55/55 61/61/61
f 66/66/66 67/67/67 55/55/55
f 68/68/68 62/62/62 58/58/58
f 68/68/68 58/58/58 63/63/63
f 69/69/69 63/63/63 59/59/59
f 69/69/69 59/59/59 64/64/64
f 70/70/70 64/64/64 60/60/60
f 70/70/70 60/60/60 65/65/65
f 71/71/71 65/65/65 8/8/8
f 71/71/71 8/8/8 6/6/6
f 72/72/72 68/68/68 63/63/63
f 72/72/72 63/63/63 69/69/69
f 73/73/73 69/69/69 64/64/64
f 73/73/73 64/64/64 70/70/70
f 74/74/74 70/70/70 65/65/65
f 74/74/74 65/65/65 71/71/71
f 75/75/75 71/71/71 6/6/6
f 75/75/75 6/6/6 4/4/4
f 76/76/76 72/72/72 69/69/69
f 76/76/76 69/69/69 73/73/73
f 77/77/77 73/73/73 70/70/70
f 77/77/77 70/70/70 74/74/74
f 78/78/78 74/74/74 71/71/71
f 78/78/78 71/71/71 75/75/75
f 79/79/79 75/75/75 4/4/4
f 79/79/79 4/4/4 1/1/1
f 80/80/80 76/76/76 73/73/73
f 80/80/80 73/73/73 77/77/77
f 81/81/81 77/77/77 74/74/74
f 81/81/81 74/74/74 78/78/78
f 82/82/82 78/78/78 75/75/75
f 82/82/82 75/75/75 79/79/79
f 83/83/83 79/79/79 1/1/1
f 1/1/1 84/84/84 83/83/83
f 85/85/85 79/79/79 83/83/83
f 85/85/85 82/82/82 79/79/79
f 86/86/86 78/78/78 82/82/82
f 86/86/86 81/81/81 78/78/78
f 87/87/87 77/77/77 81/81/81
f 87/87/87 80/80/80 77/77/77
f 88/88/88 85/85/85 83/83/83
f 83/83/83 89/89/89 88/88/88
f 90/90/90 82/82/82 85/85/85
f 90/90/90 86/86/86 82/82/82
f 91/91/91 81/81/81 86/86/86
f 91/91/91 87/87/87 81/81/81
f 92/92/92 85/85/85 88/88/88
f 92/92/92 90/90/90 85/85/85
f 93/93/93 86/86/86 90/90/90
f 93/93/93 91/91/91 86/86/86
f 94/94/94 92/92/92 88/88/88
f 88/88/88 95/95/95 94/94/94
f 96/96/96 90/90/90 92/92/92
f 96/96/96 93/93/93 90/90/90
f 97/97/97 92/92/92 94/94/94
f 97/97/97 96/96/96 92/92/92
f 98/98/98 97/97/97 94/94/94
f 94/94/94 99/99/99 98/98/98
f 100/100/100 87/87/87 91/91/91
f 101/101/101 91/91/91 93/93/93
f 101/101/101 100/100/100 91/91/91
f 102/102/102 93/93/93 96/96/96
f 102/102/102 101/101/101 93/93/93
f 103/103/103 96/96/96 97/97/97
f 103/103/103 102/102/102 96/96/96
f 104/104/104 97/97/97 98/98/98
f 104/104/104 103/103/103 97/97/97
f 100/100/100 105/105/105 87/87/87
f 105/105/105 80/80/80 87/87/87
f 106/106/106 104/104/104 98/98/98
f 98/98/98 107/107/107 106/106/106
f 105/105/105 108/108/108 80/80/80
f 108/108/108 76/76/76 80/80/80
f 108/108/108 109/109/109 76/76/76
f 109/109/109 72/72/72 76/76/76
f 109/109/109 110/110/110 72/72/72
f 110/110/110 68/68/68 72/72/72
f 110/110/110 111/111/111 68/68/68
f 111/111/111 62/62/62 68/68/68
f 111/111/111 112/112/112 62/62/62
f 112/112/112 57/57/57 62/62/62
f 112/112/112 61/61/61 57/57/57
f 113/113/113 61/61/61 112/112/112
f 113/113/113 66/66/66 61/61/61
f 114/114/114 112/112/112 111/111/111
f 114/114/114 113/113/113 112/112/112
f 115/115/115 111/111/111 110/110/110
f 115/115/115 114/114/114 111/111/111
f 116/116/116 110/110/110 109/109/109
f 116/116/116 115/115/115 110/110/110
f 117/117/117 109/109/109 108/108/108
f 117/117/117 116/116/116 109/109/109
f 118/118/118 66/66/66 113/113/113
f 118/118/118 119/119/119 66/66/66
f 120/120/120 113/113/113 114/114/114
f 120/120/120 118/118/118 113/113/113
f 121/121/121 114/114/114 115/115/115
f 121/121/121 120/120/120 114/114/114
f 122/122/122 115/115/115 116/116/116
f 122/122/122 121/121/121 115/115/115
f 123/123/123 118/118/118 120/120/120
f 123/123/123 124/124/124 118/118/118
f 125/125/125 120/120/120 121/121/121
f 125/125/125 123/123/123 120/120/120
f 126/126/126 117/117/117 108/108/108
f 126/126/126 108/108/108 105/105/105
f 127/127/127 116/116/116 117/117/117
f 127/127/127 122/122/122 116/116/116
f 128/128/128 121/121/121 122/122/122
f 128/128/128 125/125/125 121/121/121
f 129/129/129 123/123/123 125/125/125
f 129/129/129 130/130/130 123/123/123
f 131/131/131 129/129/129 125/125/125
f 131/131/131 125/125/125 128/128/128
f 132/132/132 128/128/128 122/122/122
f 132/132/132 122/122/122 127/127/127
f 133/133/133 127/127/127 117/117/117
f 133/133/133 117/117/117 126/126/126
f 134/134/134 126/126/126 105/105/105
f 134/134/134 105/105/105 100/100/100
f 135/135/135 129/129/129 131/131/131
f 135/135/135 136/136/136 129/129/129
f 137/137/137 131/131/131 128/128/128
f 137/137/137 128/128/128 132/132/132
f 138/138/138 132/132/132 127/127/127
f 138/138/138 127/127/127 133/133/133
f 139/139/139 133/133/133 126/126/126
f 139/139/139 126/126/126 134/134/134
f 140/140/140 134/134/134 100/100/100
f 140/140/140 100/100/100 101/101/101
f 141/141/141 135/135/135 131/131/131
f 141/141/141 131/131/131 137/137/137
f 142/142/142 137/137/137 132/132/132
f 142/142/142 132/132/132 138/138/138
f 143/143/143 138/138/138 133/133/133
f 143/143/143 133/133/133 139/139/139
f 144/144/144 139/139/139 134/134/134
f 144/144/144 134/134/134 140/140/140
f 145/145/145 140/140/140 101/101/101
f 145/145/145 101/101/101 102/102/102
f 146/146/146 135/135/135 141/141/141
f 146/146/146 147/147/147 135/135/135
f 148/148/148 142/142/142 138/138/138
f 148/148/148 138/138/138 143/143/143
f 149/149/149 143/143/143 139/139/139
f 149/149/149 139/139/139 144/144/144
f 150/150/150 144/144/144 140/140/140
f 150/150/150 140/140/140 145/145/145
f 151/151/151 145/145/145 102/102/102
f 151/151/151 102/102/102 103/103/103
f 152/152/152 148/148/148 143/143/143
f 152/152/152 143/143/143 149/149/149
f 153/153/153 149/149/149 144/144/144
f 153/153/153 144/144/144 150/150/150
f 154/154/154 150/150/150 145/145/145
f 154/154/154 145/145/145 151/151/151
f 155/155/155 151/151/151 103/103/103
f 155/155/155 103/103/103 104/104/104
f 156/156/156 152/152/152 149/149/149
f 156/156/156 149/149/149 153/153/153
f 157/157/157 153/153/153 150/150/150
f 157/157/157 150/150/150 154/154/154
f 158/158/158 154/154/154 151/151/151
f 158/158/158 151/151/151 155/155/155
f 159/159/159 155/155/155 104/104/104
f 159/159/159 104/104/104 106/106/106
f 160/160/160 156/156/156 153/153/153
f 160/160/160 153/153/153 157/157/157
f 161/161/161 157/157/157 154/154/154
f 161/161/161 154/154/154 158/158/158
f 162/162/162 158/158/158 155/155/155
f 162/162/162 155/155/155 159/159/159
f 163/163/163 159/159/159 106/106/106
f 106/106/106 164/164/164 163/163/163
f 165/165/165 159/159/159 163/163/163
f 165/165/165 162/162/162 159/159/159
f 166/166/166 158/158/158 162/162/162
f 166/166/166 161/161/161 158/158/158
f 167/167/167 157/157/157 161/161/161
f 167/167/167 160/160/160 157/157/157
f 168/168/168 165/165/165 163/163/163
f 163/163/163 169/169/169 168/168/168
f 170/170/170 162/162/162 165/165/165
f 170/170/170 166/166/166 162/162/162
f 171/171/171 161/161/161 166/166/166
f 171/171/171 167/167/167 161/161/161
f 172/172/172 165/165/165 168/168/168
f 172/172/172 170/170/170 165/165/165
f 173/173/173 166/166/166 170/170/170
f 173/173/173 171/171/171 166/166/166
f 174/174/174 172/172/172 168/168/168
f 168/168/168 175/175/175 174/174/174
f 176/176/176 170/170/170 172/172/172
f 176/176/176 173/173/173 170/170/170
f 177/177/177 172/172/172 174/174/174
f 177/177/177 176/176/176 172/172/172
f 178/178/178 177/177/177 174/174/174
f 174/174/174 179/179/179 178/178/178
f 180/180/180 167/167/167 171/171/171
f 181/181/181 171/171/171 173/173/173
f 181/181/181 180/180/180 171/171/171
f 182/182/182 173/173/173 176/176/176
f 182/182/182 181/181/181 173/173/173
f 183/183/183 176/176/176 177/177/177
f 183/183/183 182/182/182 176/176/176
f 184/184/184 177/177/177 178/178/178
f 184/184/184 183/183/183 177/177/177
f 180/180/180 185/185/185 167/167/167
f 185/185/185 160/160/160 167/167/167
f 186/186/186 184/184/184 178/178/178
f 178/178/178 187/187/187 186/186/186
f 185/185/185 188/188/188 160/160/160
f 188/188/188 156/156/156 160/160/160
f 188/188/188 189/189/189 156/156/156
f 189/189/189 152/152/152 156/156/156
f 189/189/189 190/190/190 152/152/152
f 190/190/190 148/148/148 152/152/152
f 190/190/190 191/191/191 148/148/148
f 191/191/191 142/142/142 148/148/148
f 191/191/191 192/192/192 142/142/142
f 192/192/192 137/137/137 142/142/142
f 192/192/192 141/141/141 137/137/137
f 193/193/193 141/141/141 192/192/192
f 193/193/193 146/146/146 141/141/141
f 194/194/194 192/192/192 191/191/191
f 194/194/194 193/193/193 192/192/192
f 195/195/195 191/191/191 190/190/190
f 195/195/195 194/194/194 191/191/191
f 196/196/196 190/190/190 189/189/189
f 196/196/196 195/195/195 190/190/190
f 197/197/197 189/189/189 188/188/188
f 197/197/197 196/196/196 189/189/189
f 198/198/198 146/146/146 193/193/193
f 198/198/198 199/199/199 146/146/146
f 200/200/200 193/193/193 194/194/194
f 200/200/200 198/198/198 193/193/193
f 201/201/201 194/194/194 195/195/195
f 201/201/201 200/200/200 194/194/194
f 202/202/202 195/195/195 196/196/196
f 202/202/202 201/201/201 195/195/195
f 203/203/203 198/198/198 200/200/200
f 203/203/203 204/204/204 198/198/198
f 205/205/205 200/200/200 201/201/201
f 205/205/205 203/203/203 200/200/200
f 206/206/206 203/203/203 205/205/205
f 206/206/206 207/207/207 203/203/203
f 208/208/208 206/206/206 205/205/205
f 209/209/209 205/205/205 201/201/201
f 208/208/208 205/205/205 209/209/209
f 209/209/209 201/201/201 202/202/202
f 210/210/210 208/208/208 209/209/209
f 210/210/210 209/209/209 211/211/211
f 211/211/211 209/209/209 202/202/202
f 212/212/212 210/210/210 211/211/211
f 213/213/213 202/202/202 196/196/196
f 211/211/211 202/202/202 213/213/213
f 213/213/213 196/196/196 197/197/197
f 212/212/212 211/211/211 214/214/214
f 214/214/214 211/211/211 213/213/213
f 215/215/215 212/212/212 214/214/214
f 216/216/216 213/213/213 197/197/197
f 214/214/214 213/213/213 216/216/216
f 215/215/215 214/214/214 217/217/217
f 217/217/217 214/214/214 216/216/216
f 218/218/218 215/215/215 217/217/217
f 216/216/216 197/197/197 219/219/219
f 219/219/219 197/197/197 188/188/188
f 219/219/219 188/188/188 185/185/185
f 217/217/217 216/216/216 220/220/220
f 220/220/220 216/216/216 219/219/219
f 218/218/218 217/217/217 221/221/221
f 221/221/221 217/217/217 220/220/220
f 222/222/222 218/218/218 221/221/221
f 223/223/223 219/219/219 185/185/185
f 220/220/220 219/219/219 223/223/223
f 223/223/223 185/185/185 180/180/180
f 221/221/221 220/220/220 224/224/224
f 224/224/224 220/220/220 223/223/223
f 222/222/222 221/221/221 225/225/225
f 225/225/225 221/221/221 224/224/224
f 226/226/226 222/222/222 225/225/225
f 227/227/227 223/223/223 180/180/180
f 224/224/224 223/223/223 227/227/227
f 227/227/227 180/180/180 181/181/181
f 225/225/225 224/224/224 228/228/228
f 228/228/228 224/224/224 227/227/227
f 226/226/226 225/225/225 229/229/229
f 229/229/229 225/225/225 228/228/228
f 230/230/230 226/226/226 229/229/229
f 231/231/231 227/227/227 181/181/181
f 228/228/228 227/227/227 231/231/231
f 231/231/231 181/181/181 182/182/182
f 229/229/229 228/228/228 232/232/232
f 232/232/232 228/228/228 231/231/231
f 230/230/230 229/229/229 233/233/233
f 233/233/233 229/229/229 232/232/232
f 234/234/234 230/230/230 233/233/233
f 235/235/235 231/231/231 182/182/182
f 232/232/232 231/231/231 235/235/235
f 235/235/235 182/182/182 183/183/183
f 233/233/233 232/232/232 236/236/236
f 236/236/236 232/232/232 235/235/235
f 234/234/234 233/233/233 237/237/237
f 237/237/237 233/233/233 236/236/236
f 238/238/238 234/234/234 237/237/237
f 239/239/239 235/235/235 183/183/183
f 236/236/236 235/235/235 239/239/239
f 239/239/239 183/183/183 184/184/184
f 237/237/237 236/236/236 240/240/240
f 240/240/240 236/236/236 239/239/239
f 238/238/238 237/237/237 241/241/241
f 241/241/241 237/237/237 240/240/240
f 242/242/242 238/238/238 241/241/241
f 243/243/243 239/239/239 184/184/184
f 240/240/240 239/239/239 243/243/243
f 243/243/243 184/184/184 186/186/186
f 241/241/241 240/240/240 244/244/244
f 244/244/244 240/240/240 243/243/243
f 242/242/242 241/241/241 245/245/245
f 245/245/245 241/241/241 244/244/244
f 246/246/246 242/242/242 245/245/245
f 247/247/247 243/243/243 186/186/186
f 244/244/244 243/243/243 247/247/247
f 186/186/186 248/248/248 247/247/247
f 249/249/249 244/244/244 247/247/247
f 245/245/245 244/244/244 249/249/249
f 247/247/247 250/250/250 249/249/249
f 246/246/246 245/245/245 251/251/251
f 251/251/251 245/245/245 249/249/249
f 249/249/249 252/252/252 251/251/251
f 253/253/253 246/246/246 251/251/251
f 251/251/251 254/254/254 253/253/253
