g planet_ring_04
v -3.7885447 -9.094947E-13 -48.13804
v -6.167844 -9.094947E-13 -78.369934
v 6.1678467 -9.094947E-13 -78.369934
v 3.7885456 -9.094947E-13 -48.13804
v -6.167844 -9.094947E-13 -78.369934
v -11.272351 1.8189894E-12 -46.952736
v -18.351667 0 -76.4402
v 18.351664 0 -76.4402
v 11.272351 1.8189894E-12 -46.952736
v 3.7885456 -9.094947E-13 -48.13804
v 6.1678467 -9.094947E-13 -78.369934
v 30.083603 -9.094947E-13 -72.62825
v 11.272351 1.8189894E-12 -46.952736
v 18.478592 -1.364242E-12 -44.611275
v 41.074787 -9.094947E-13 -67.02798
v 25.22983 -4.5474735E-12 -41.171337
v 18.478592 -1.364242E-12 -44.611275
v 30.083603 -9.094947E-13 -72.62825
v 51.05459 -9.094947E-13 -59.77723
v 31.359825 1.364242E-12 -36.71765
v 25.22983 -4.5474735E-12 -41.171337
v 41.074787 -9.094947E-13 -67.02798
v 59.777237 0 -51.05458
v 36.71765 9.094947E-13 -31.359825
v 31.359825 1.364242E-12 -36.71765
v 51.05459 -9.094947E-13 -59.77723
v 67.02798 9.094947E-13 -41.07479
v 36.71765 9.094947E-13 -31.359825
v 41.171337 -6.82121E-13 -25.229837
v 72.62824 9.094947E-13 -30.08361
v 41.171337 -6.82121E-13 -25.229837
v 67.02798 9.094947E-13 -41.07479
v 44.611263 0 -18.478598
v 76.44019 2.2737368E-13 -18.35167
v 46.952736 1.1368684E-13 -11.272353
v 72.62824 9.094947E-13 -30.08361
v 78.369934 1.1368684E-13 -6.167847
v 48.13804 -1.1368684E-13 -3.7885475
v 46.952736 1.1368684E-13 -11.272353
v 76.44019 2.2737368E-13 -18.35167
v 78.369934 -5.684342E-14 6.1678457
v 48.13804 5.684342E-14 3.7885463
v 48.13804 -1.1368684E-13 -3.7885475
v 78.369934 1.1368684E-13 -6.167847
v 76.44019 -2.2737368E-13 18.35167
v 46.952736 -1.1368684E-13 11.272353
v 48.13804 5.684342E-14 3.7885463
v 78.369934 -5.684342E-14 6.1678457
v 72.62824 -9.094947E-13 30.08361
v 46.952736 -1.1368684E-13 11.272353
v 44.611263 2.2737368E-13 18.478598
v 67.02798 -9.094947E-13 41.07479
v 41.171337 6.82121E-13 25.229837
v 44.611263 2.2737368E-13 18.478598
v 72.62824 -9.094947E-13 30.08361
v 59.777237 0 51.05458
v 36.71765 -9.094947E-13 31.359825
v 41.171337 6.82121E-13 25.229837
v 67.02798 -9.094947E-13 41.07479
v 51.05459 9.094947E-13 59.77723
v 31.359825 -1.364242E-12 36.71765
v 36.71765 -9.094947E-13 31.359825
v 59.777237 0 51.05458
v 41.074787 9.094947E-13 67.02798
v 25.22983 4.5474735E-12 41.171337
v 31.359825 -1.364242E-12 36.71765
v 51.05459 9.094947E-13 59.77723
v 30.083603 9.094947E-13 72.62825
v 25.22983 4.5474735E-12 41.171337
v 41.074787 9.094947E-13 67.02798
v 18.478592 1.364242E-12 44.611275
v 18.351664 0 76.4402
v 11.272351 -1.8189894E-12 46.952736
v 30.083603 9.094947E-13 72.62825
v 6.1678467 9.094947E-13 78.369934
v 3.7885456 9.094947E-13 48.13804
v 11.272351 -1.8189894E-12 46.952736
v 18.351664 0 76.4402
v -6.167844 9.094947E-13 78.369934
v -3.7885447 9.094947E-13 48.13804
v 3.7885456 9.094947E-13 48.13804
v 6.1678467 9.094947E-13 78.369934
v -18.351667 0 76.4402
v -11.272351 -1.8189894E-12 46.952736
v -3.7885447 9.094947E-13 48.13804
v -6.167844 9.094947E-13 78.369934
v -30.08361 9.094947E-13 72.62825
v -11.272351 -1.8189894E-12 46.952736
v -18.478594 1.364242E-12 44.611275
v -41.074787 9.094947E-13 67.02798
v -18.478594 1.364242E-12 44.611275
v -30.08361 9.094947E-13 72.62825
v -25.22983 4.5474735E-12 41.171337
v -51.054573 9.094947E-13 59.77723
v -31.359825 -1.364242E-12 36.71765
v -41.074787 9.094947E-13 67.02798
v -59.77723 0 51.05458
v -36.71765 -9.094947E-13 31.359825
v -31.359825 -1.364242E-12 36.71765
v -51.054573 9.094947E-13 59.77723
v -67.027985 -9.094947E-13 41.07479
v -41.171337 6.82121E-13 25.229837
v -36.71765 -9.094947E-13 31.359825
v -59.77723 0 51.05458
v -72.62824 -9.094947E-13 30.08361
v -41.171337 6.82121E-13 25.229837
v -67.027985 -9.094947E-13 41.07479
v -44.611263 2.2737368E-13 18.478598
v -76.4402 -2.2737368E-13 18.35167
v -46.952736 -1.1368684E-13 11.272353
v -72.62824 -9.094947E-13 30.08361
v -78.369934 -5.684342E-14 6.1678457
v -48.13804 5.684342E-14 3.7885463
v -46.952736 -1.1368684E-13 11.272353
v -76.4402 -2.2737368E-13 18.35167
v -78.369934 1.1368684E-13 -6.167847
v -48.13804 -1.1368684E-13 -3.7885475
v -48.13804 5.684342E-14 3.7885463
v -78.369934 -5.684342E-14 6.1678457
v -76.4402 2.2737368E-13 -18.35167
v -46.952736 1.1368684E-13 -11.272353
v -48.13804 -1.1368684E-13 -3.7885475
v -78.369934 1.1368684E-13 -6.167847
v -72.62824 9.094947E-13 -30.08361
v -46.952736 1.1368684E-13 -11.272353
v -44.611263 0 -18.478598
v -67.027985 9.094947E-13 -41.07479
v -41.171337 -6.82121E-13 -25.229837
v -44.611263 0 -18.478598
v -72.62824 9.094947E-13 -30.08361
v -59.77723 0 -51.05458
v -41.171337 -6.82121E-13 -25.229837
v -36.71765 9.094947E-13 -31.359825
v -51.054573 -9.094947E-13 -59.77723
v -31.359825 1.364242E-12 -36.71765
v -36.71765 9.094947E-13 -31.359825
v -59.77723 0 -51.05458
v -41.074787 -9.094947E-13 -67.02798
v -25.22983 -4.5474735E-12 -41.171337
v -31.359825 1.364242E-12 -36.71765
v -51.054573 -9.094947E-13 -59.77723
v -30.08361 -9.094947E-13 -72.62825
v -18.478594 -1.364242E-12 -44.611275
v -25.22983 -4.5474735E-12 -41.171337
v -41.074787 -9.094947E-13 -67.02798
v -18.351667 0 -76.4402
v -11.272351 1.8189894E-12 -46.952736
v -18.478594 -1.364242E-12 -44.611275
v -30.08361 -9.094947E-13 -72.62825
vt 0 0.5
vt 1 0.5
vt 1 0
vt 0 0
vt 1 0.5
vt 0 1
vt 1 1
vt 1 0.5
vt 0 0.5
vt 0 1
vt 1 1
vt 1 0
vt 0 0.5
vt 0 0
vt 1 0.5
vt 0 0.5
vt 0 1
vt 1 1
vt 1 0
vt 0 0
vt 0 0.5
vt 1 0.5
vt 1 0.5
vt 0 0.5
vt 0 1
vt 1 1
vt 1 0
vt 0 0.5
vt 0 0
vt 1 0.5
vt 0 1
vt 1 1
vt 0 0.5
vt 1 0
vt 0 0
vt 1 0.5
vt 1 0.5
vt 0 0.5
vt 0 1
vt 1 1
vt 1 0
vt 0 0
vt 0 0.5
vt 1 0.5
vt 1 0.5
vt 0 0.5
vt 0 1
vt 1 1
vt 1 0
vt 0 0.5
vt 0 0
vt 1 0.5
vt 0 0.5
vt 0 1
vt 1 1
vt 1 0
vt 0 0
vt 0 0.5
vt 1 0.5
vt 1 0.5
vt 0 0.5
vt 0 1
vt 1 1
vt 1 0
vt 0 0
vt 0 0.5
vt 1 0.5
vt 1 0.5
vt 0 1
vt 1 1
vt 0 0.5
vt 1 0
vt 0 0
vt 1 0.5
vt 1 0.5
vt 0 0.5
vt 0 1
vt 1 1
vt 1 0
vt 0 0
vt 0 0.5
vt 1 0.5
vt 1 0.5
vt 0 0.5
vt 0 1
vt 1 1
vt 1 0
vt 0 0.5
vt 0 0
vt 1 0.5
vt 0 1
vt 1 1
vt 0 0.5
vt 1 0
vt 0 0
vt 1 0.5
vt 1 0.5
vt 0 0.5
vt 0 1
vt 1 1
vt 1 0
vt 0 0
vt 0 0.5
vt 1 0.5
vt 1 0.5
vt 0 1
vt 1 1
vt 0 0.5
vt 1 0
vt 0 0
vt 1 0.5
vt 1 0.5
vt 0 0.5
vt 0 1
vt 1 1
vt 1 0
vt 0 0
vt 0 0.5
vt 1 0.5
vt 1 0.5
vt 0 0.5
vt 0 1
vt 1 1
vt 1 0
vt 0 0.5
vt 0 0
vt 1 0.5
vt 0 0.5
vt 0 1
vt 1 1
vt 1 0
vt 0 0.5
vt 0 0
vt 1 0.5
vt 0 0.5
vt 0 1
vt 1 1
vt 1 0
vt 0 0
vt 0 0.5
vt 1 0.5
vt 1 0.5
vt 0 0.5
vt 0 1
vt 1 1
vt 1 0
vt 0 0
vt 0 0.5
vt 1 0.5
vn -0 1 0
vn -0 1 0
vn -0 1 0
vn -0 1 0
vn -0 1 0
vn -0 1 0
vn -0 1 0
vn -0 1 0
vn -0 1 0
vn -0 1 0
vn -0 1 0
vn -0 1 0
vn -0 1 0
vn -0 1 0
vn -0 1 0
vn -0 1 0
vn -0 1 0
vn -0 1 0
vn -0 1 0
vn -0 1 0
vn -0 1 0
vn -0 1 0
vn -0 1 0
vn -0 1 0
vn -0 1 0
vn -0 1 0
vn -0 1 0
vn -0 1 0
vn -0 1 0
vn -0 1 0
vn -0 1 0
vn -0 1 0
vn -0 1 0
vn -0 1 0
vn -0 1 0
vn -0 1 0
vn -0 1 0
vn -0 1 0
vn -0 1 0
vn -0 1 0
vn -0 1 0
vn -0 1 0
vn -0 1 0
vn -0 1 0
vn -0 1 0
vn -0 1 0
vn -0 1 0
vn -0 1 0
vn -0 1 0
vn -0 1 0
vn -0 1 0
vn -0 1 0
vn -0 1 0
vn -0 1 0
vn -0 1 0
vn -0 1 0
vn -0 1 0
vn -0 1 0
vn -0 1 0
vn -0 1 0
vn -0 1 0
vn -0 1 0
vn -0 1 0
vn -0 1 0
vn -0 1 0
vn -0 1 0
vn -0 1 0
vn -0 1 0
vn -0 1 0
vn -0 1 0
vn -0 1 0
vn -0 1 0
vn -0 1 0
vn -0 1 0
vn -0 1 0
vn -0 1 0
vn -0 1 0
vn -0 1 0
vn -0 1 0
vn -0 1 0
vn -0 1 0
vn -0 1 0
vn -0 1 0
vn -0 1 0
vn -0 1 0
vn -0 1 0
vn -0 1 0
vn -0 1 0
vn -0 1 0
vn -0 1 0
vn -0 1 0
vn -0 1 0
vn -0 1 0
vn -0 1 0
vn -0 1 0
vn -0 1 0
vn -0 1 0
vn -0 1 0
vn -0 1 0
vn -0 1 0
vn -0 1 0
vn -0 1 0
vn -0 1 0
vn -0 1 0
vn -0 1 0
vn -0 1 0
vn -0 1 0
vn -0 1 0
vn -0 1 0
vn -0 1 0
vn -0 1 0
vn -0 1 0
vn -0 1 0
vn -0 1 0
vn -0 1 0
vn -0 1 0
vn -0 1 0
vn -0 1 0
vn -0 1 0
vn -0 1 0
vn -0 1 0
vn -0 1 0
vn -0 1 0
vn -0 1 0
vn -0 1 0
vn -0 1 0
vn -0 1 0
vn -0 1 0
vn -0 1 0
vn -0 1 0
vn -0 1 0
vn -0 1 0
vn -0 1 0
vn -0 1 0
vn -0 1 0
vn -0 1 0
vn -0 1 0
vn -0 1 0
vn -0 1 0
vn -0 1 0
vn -0 1 0
vn -0 1 0
vn -0 1 0
vn -0 1 0
vn -0 1 0
vn -0 1 0
vn -0 1 0
vn -0 1 0
vn -0 1 0
g planet_ring_04_0
f 3/3/3 2/2/2 1/1/1
f 4/4/4 3/3/3 1/1/1
f 6/6/6 1/1/1 5/5/5
f 7/7/7 6/6/6 5/5/5
f 10/10/10 9/9/9 8/8/8
f 11/11/11 10/10/10 8/8/8
f 8/8/8 13/13/13 12/12/12
f 13/13/13 14/14/14 12/12/12
f 17/17/17 16/16/16 15/15/15
f 18/18/18 17/17/17 15/15/15
f 21/21/21 20/20/20 19/19/19
f 22/22/22 21/21/21 19/19/19
f 25/25/25 24/24/24 23/23/23
f 26/26/26 25/25/25 23/23/23
f 23/23/23 28/28/28 27/27/27
f 28/28/28 29/29/29 27/27/27
f 32/32/32 31/31/31 30/30/30
f 31/31/31 33/33/33 30/30/30
f 33/33/33 35/35/35 34/34/34
f 36/36/36 33/33/33 34/34/34
f 39/39/39 38/38/38 37/37/37
f 40/40/40 39/39/39 37/37/37
f 43/43/43 42/42/42 41/41/41
f 44/44/44 43/43/43 41/41/41
f 47/47/47 46/46/46 45/45/45
f 48/48/48 47/47/47 45/45/45
f 45/45/45 50/50/50 49/49/49
f 50/50/50 51/51/51 49/49/49
f 54/54/54 53/53/53 52/52/52
f 55/55/55 54/54/54 52/52/52
f 58/58/58 57/57/57 56/56/56
f 59/59/59 58/58/58 56/56/56
f 62/62/62 61/61/61 60/60/60
f 63/63/63 62/62/62 60/60/60
f 66/66/66 65/65/65 64/64/64
f 67/67/67 66/66/66 64/64/64
f 70/70/70 69/69/69 68/68/68
f 69/69/69 71/71/71 68/68/68
f 71/71/71 73/73/73 72/72/72
f 74/74/74 71/71/71 72/72/72
f 77/77/77 76/76/76 75/75/75
f 78/78/78 77/77/77 75/75/75
f 81/81/81 80/80/80 79/79/79
f 82/82/82 81/81/81 79/79/79
f 85/85/85 84/84/84 83/83/83
f 86/86/86 85/85/85 83/83/83
f 83/83/83 88/88/88 87/87/87
f 88/88/88 89/89/89 87/87/87
f 92/92/92 91/91/91 90/90/90
f 91/91/91 93/93/93 90/90/90
f 93/93/93 95/95/95 94/94/94
f 96/96/96 93/93/93 94/94/94
f 99/99/99 98/98/98 97/97/97
f 100/100/100 99/99/99 97/97/97
f 103/103/103 102/102/102 101/101/101
f 104/104/104 103/103/103 101/101/101
f 107/107/107 106/106/106 105/105/105
f 106/106/106 108/108/108 105/105/105
f 108/108/108 110/110/110 109/109/109
f 111/111/111 108/108/108 109/109/109
f 114/114/114 113/113/113 112/112/112
f 115/115/115 114/114/114 112/112/112
f 118/118/118 117/117/117 116/116/116
f 119/119/119 118/118/118 116/116/116
f 122/122/122 121/121/121 120/120/120
f 123/123/123 122/122/122 120/120/120
f 120/120/120 125/125/125 124/124/124
f 125/125/125 126/126/126 124/124/124
f 129/129/129 128/128/128 127/127/127
f 130/130/130 129/129/129 127/127/127
f 127/127/127 132/132/132 131/131/131
f 132/132/132 133/133/133 131/131/131
f 136/136/136 135/135/135 134/134/134
f 137/137/137 136/136/136 134/134/134
f 140/140/140 139/139/139 138/138/138
f 141/141/141 140/140/140 138/138/138
f 144/144/144 143/143/143 142/142/142
f 145/145/145 144/144/144 142/142/142
f 148/148/148 147/147/147 146/146/146
f 149/149/149 148/148/148 146/146/146
