g planet_6M
v 0.0058940887 -0.04495235 -0.0071006203
v -0.00049938203 -0.04595661 -1.9073486E-08
v 0.008229447 -0.04495235 -0.0038863563
v 0.012008171 -0.04198345 -0.013891086
v 0.016576767 -0.04198345 -0.0076027866
v 0.01757557 -0.037179757 -0.020074328
v 0.024177857 -0.037179757 -0.010986958
v 0.02235302 -0.030751 -0.02538019
v 0.030700378 -0.030751 -0.013891086
v 0.026131706 -0.022978324 -0.029576892
v 0.035859335 -0.022978324 -0.016187992
v 0.02874649 -0.014201392 -0.03248087
v 0.039429206 -0.014201392 -0.017777348
v 0.030083122 -0.004803734 -0.033965245
v 0.041254044 -0.004803734 -0.018589802
v 0.030083122 0.004803734 -0.033965245
v 0.041254044 0.004803734 -0.018589802
v 0.02874649 0.014201316 -0.03248087
v 0.039429206 0.014201316 -0.017777348
v 0.026131706 0.022978248 -0.029576892
v 0.035859335 0.022978248 -0.016187992
v 0.02235302 0.030750923 -0.02538019
v 0.030700378 0.030750923 -0.013891086
v 0.01757557 0.03717968 -0.020074328
v 0.024177857 0.03717968 -0.010986958
v 0.012008171 0.041983373 -0.013891086
v 0.016576767 0.041983373 -0.0076027866
v 0.0058940887 0.04495235 -0.0071006203
v 0.008229447 0.04495235 -0.0038863563
v -0.00049938203 0.04595661 -1.9073486E-08
v 0.0024532317 0.04495235 -0.009087238
v -0.00049938203 0.04595661 -1.9073486E-08
v 0.0052768323 0.041983373 -0.017777424
v 0.007847939 0.03717968 -0.025690556
v 0.010054283 0.030750923 -0.03248087
v -0.0014981842 0.04495235 -0.009502582
v -0.00049938203 0.04595661 -1.9073486E-08
v -0.00245327 0.041983373 -0.018589802
v 0.011799354 0.022978248 -0.03785158
v -0.0033229827 0.03717968 -0.026864642
v -0.0052768323 0.04495235 -0.00827486
v -0.00049938203 0.04595661 -1.9073486E-08
v -0.009845505 0.041983373 -0.016187992
v -0.00406929 0.030750923 -0.03396532
v 0.013006897 0.014201316 -0.04156809
v -0.008229485 0.04495235 -0.0056162453
v -0.00049938203 0.04595661 -1.9073486E-08
v -0.014005699 0.03717968 -0.02339365
v -0.0046595763 0.022978248 -0.039581545
v 0.013624153 0.004803734 -0.04346781
v -0.015621719 0.041983373 -0.010986958
v -0.01757557 0.030750923 -0.029576892
v -0.005068054 0.014201316 -0.043467883
v 0.013624153 -0.004803734 -0.04346781
v -0.009845505 0.04495235 -0.0019865609
v -0.00049938203 0.04595661 -1.9073486E-08
v -0.022353057 0.03717968 -0.015877552
v -0.02039917 0.022978248 -0.034467485
v -0.0052768323 0.004803734 -0.045454424
v 0.013006897 -0.014201392 -0.04156809
v -0.018783187 0.041983373 -0.0038863563
v -0.028129272 0.030750923 -0.020074328
v -0.022353057 0.014201316 -0.03785158
v -0.0052768323 -0.004803734 -0.045454424
v 0.011799354 -0.022978324 -0.03785158
v -0.009845505 0.04495235 0.0019865988
v -0.00049938203 0.04595661 -1.9073486E-08
v -0.032697905 0.022978248 -0.02339365
v -0.023351783 0.004803734 -0.039581545
v -0.005068054 -0.014201392 -0.043467883
v 0.010054283 -0.030751 -0.03248087
v -0.035859372 0.014201316 -0.025690556
v -0.023351783 -0.004803734 -0.039581545
v -0.0046595763 -0.022978324 -0.039581545
v 0.007847939 -0.037179757 -0.025690556
v -0.037475396 0.004803734 -0.026864642
v -0.022353057 -0.014201392 -0.03785158
v -0.00406929 -0.030751 -0.03396532
v 0.0052768323 -0.04198345 -0.017777424
v -0.037475396 -0.004803734 -0.026864642
v -0.02039917 -0.022978324 -0.034467485
v -0.0033229827 -0.037179757 -0.026864642
v 0.0024532317 -0.04495235 -0.009087238
v -0.00049938203 -0.04595661 -1.9073486E-08
v -0.00245327 -0.04198345 -0.018589802
v -0.01757557 -0.030751 -0.029576892
v -0.035859372 -0.014201392 -0.025690556
v -0.0014981842 -0.04495235 -0.009502582
v -0.00049938203 -0.04595661 -1.9073486E-08
v -0.014005699 -0.037179757 -0.02339365
v -0.032697905 -0.022978324 -0.02339365
v -0.009845505 -0.04198345 -0.016187992
v -0.028129272 -0.030751 -0.020074328
v -0.0052768323 -0.04495235 -0.00827486
v -0.00049938203 -0.04595661 -1.9073486E-08
v -0.022353057 -0.037179757 -0.015877552
v -0.015621719 -0.04198345 -0.010986958
v -0.008229485 -0.04495235 -0.0056162453
v -0.00049938203 -0.04595661 -1.9073486E-08
v -0.043251608 -0.014201392 -0.009087238
v -0.039429244 -0.022978324 -0.00827486
v -0.033905488 -0.030751 -0.007100696
v -0.026921691 -0.037179757 -0.0056162453
v -0.018783187 -0.04198345 -0.0038863563
v -0.04520546 -0.004803734 -0.009502582
v -0.009845505 -0.04495235 -0.0019865609
v -0.00049938203 -0.04595661 -1.9073486E-08
v -0.04520546 0.004803734 -0.009502582
v -0.043251608 0.014201316 -0.009087238
v -0.039429244 0.022978248 -0.00827486
v -0.033905488 0.030750923 -0.007100696
v -0.026921691 0.03717968 -0.0056162453
v -0.018783187 0.041983373 0.003886318
v -0.026921691 0.03717968 0.0056162453
v -0.033905488 0.030750923 0.007100696
v -0.039429244 0.022978248 0.008274784
v -0.043251608 0.014201316 0.009087238
v -0.008229485 0.04495235 0.0056162453
v -0.00049938203 0.04595661 -1.9073486E-08
v -0.015621719 0.041983373 0.010987033
v -0.022353057 0.03717968 0.01587759
v -0.028129272 0.030750923 0.020074252
v -0.0052768323 0.04495235 0.008274784
v -0.00049938203 0.04595661 -1.9073486E-08
v -0.009845505 0.041983373 0.016187916
v -0.04520546 0.004803734 0.009502544
v -0.032697905 0.022978248 0.023393573
v -0.014005699 0.03717968 0.023393573
v -0.0014981842 0.04495235 0.009502544
v -0.00049938203 0.04595661 -1.9073486E-08
v -0.00245327 0.041983373 0.01858984
v -0.017575607 0.030750923 0.029576855
v -0.035859372 0.014201316 0.02569048
v -0.04520546 -0.004803734 0.009502544
v 0.0024532317 0.04495235 0.009087238
v -0.00049938203 0.04595661 -1.9073486E-08
v -0.0033229827 0.03717968 0.026864642
v -0.02039917 0.022978248 0.034467448
v -0.037475396 0.004803734 0.026864642
v -0.043251608 -0.014201392 0.009087238
v 0.0052768323 0.041983373 0.017777348
v -0.00406929 0.030750923 0.03396532
v -0.022353057 0.014201316 0.037851658
v -0.037475396 -0.004803734 0.026864642
v -0.039429244 -0.022978324 0.008274784
v 0.0058940887 0.04495235 0.007100696
v -0.00049938203 0.04595661 -1.9073486E-08
v -0.0046595763 0.022978248 0.039581545
v -0.023351822 0.004803734 0.039581545
v -0.035859372 -0.014201392 0.02569048
v -0.033905488 -0.030751 0.007100696
v -0.005068054 0.014201316 0.043467883
v -0.023351822 -0.004803734 0.039581545
v -0.032697905 -0.022978324 0.023393573
v -0.026921691 -0.037179757 0.0056162453
v -0.0052768323 0.004803734 0.045454424
v -0.022353057 -0.014201392 0.037851658
v -0.028129272 -0.030751 0.020074252
v -0.018783187 -0.04198345 0.003886318
v -0.0052768323 -0.004803734 0.045454424
v -0.02039917 -0.022978324 0.034467448
v -0.022353057 -0.037179757 0.01587759
v -0.009845505 -0.04495235 0.0019865988
v -0.00049938203 -0.04595661 -1.9073486E-08
v -0.015621719 -0.04198345 0.010987033
v -0.017575607 -0.030751 0.029576855
v -0.005068054 -0.014201392 0.043467883
v -0.008229485 -0.04495235 0.0056162453
v -0.00049938203 -0.04595661 -1.9073486E-08
v -0.014005699 -0.037179757 0.023393573
v -0.0046595763 -0.022978324 0.039581545
v -0.009845505 -0.04198345 0.016187916
v -0.00406929 -0.030751 0.03396532
v -0.0052768323 -0.04495235 0.008274784
v -0.00049938203 -0.04595661 -1.9073486E-08
v -0.0033229827 -0.037179757 0.026864642
v -0.00245327 -0.04198345 0.01858984
v -0.0014981842 -0.04495235 0.009502544
v -0.00049938203 -0.04595661 -1.9073486E-08
v 0.013006897 -0.014201392 0.041568127
v 0.011799354 -0.022978324 0.037851658
v 0.010054245 -0.030751 0.03248087
v 0.007847939 -0.037179757 0.025690516
v 0.0052768323 -0.04198345 0.017777348
v 0.013624153 -0.004803734 0.043467883
v 0.0024532317 -0.04495235 0.009087238
v -0.00049938203 -0.04595661 -1.9073486E-08
v 0.013624153 0.004803734 0.043467883
v 0.013006897 0.014201316 0.041568127
v 0.011799354 0.022978248 0.037851658
v 0.010054245 0.030750923 0.03248087
v 0.007847939 0.03717968 0.025690516
v 0.012008171 0.041983373 0.01389101
v 0.01757557 0.03717968 0.020074252
v 0.02235302 0.030750923 0.02538019
v 0.026131706 0.022978248 0.029576855
v 0.02874649 0.014201316 0.03248087
v 0.008229447 0.04495235 0.003886318
v -0.00049938203 0.04595661 -1.9073486E-08
v 0.016576804 0.041983373 0.007602825
v 0.024177857 0.03717968 0.010987033
v 0.030700378 0.030750923 0.01389101
v 0.00905548 0.04495235 -1.9073486E-08
v -0.00049938203 0.04595661 -1.9073486E-08
v 0.018192826 0.041983373 -1.9073486E-08
v 0.008229447 0.04495235 -0.0038863563
v -0.00049938203 0.04595661 -1.9073486E-08
v 0.016576767 0.041983373 -0.0076027866
v 0.026513213 0.03717968 -1.9073486E-08
v 0.024177857 0.03717968 -0.010986958
v 0.03365303 0.030750923 -1.9073486E-08
v 0.030700378 0.030750923 -0.013891086
v 0.035859335 0.022978248 0.016187953
v 0.039300192 0.022978248 -1.9073486E-08
v 0.035859335 0.022978248 -0.016187992
v 0.039429244 0.014201316 0.017777348
v 0.04320789 0.014201316 -1.9073486E-08
v 0.039429206 0.014201316 -0.017777348
v 0.030083122 0.004803734 0.03396532
v 0.041254044 0.004803734 0.01858984
v 0.04520546 0.004803734 -1.9073486E-08
v 0.041254044 0.004803734 -0.018589802
v 0.030083122 -0.004803734 0.03396532
v 0.041254044 -0.004803734 0.01858984
v 0.04520546 -0.004803734 -1.9073486E-08
v 0.041254044 -0.004803734 -0.018589802
v 0.02874649 -0.014201392 0.03248087
v 0.039429244 -0.014201392 0.017777348
v 0.04320789 -0.014201392 -1.9073486E-08
v 0.039429206 -0.014201392 -0.017777348
v 0.026131706 -0.022978324 0.029576855
v 0.035859335 -0.022978324 0.016187953
v 0.039300192 -0.022978324 -1.9073486E-08
v 0.035859335 -0.022978324 -0.016187992
v 0.02235302 -0.030751 0.02538019
v 0.030700378 -0.030751 0.01389101
v 0.03365303 -0.030751 -1.9073486E-08
v 0.030700378 -0.030751 -0.013891086
v 0.01757557 -0.037179757 0.020074252
v 0.024177857 -0.037179757 0.010987033
v 0.026513213 -0.037179757 -1.9073486E-08
v 0.024177857 -0.037179757 -0.010986958
v 0.012008171 -0.04198345 0.01389101
v 0.016576804 -0.04198345 0.007602825
v 0.018192826 -0.04198345 -1.9073486E-08
v 0.016576767 -0.04198345 -0.0076027866
v 0.0058940887 -0.04495235 0.007100696
v -0.00049938203 -0.04595661 -1.9073486E-08
v 0.008229447 -0.04495235 0.003886318
v -0.00049938203 -0.04595661 -1.9073486E-08
v 0.00905548 -0.04495235 -1.9073486E-08
v -0.00049938203 -0.04595661 -1.9073486E-08
v 0.008229447 -0.04495235 -0.0038863563
v -0.00049938203 -0.04595661 -1.9073486E-08
vt 0.06666667 0.06666667
vt 0.033333335 0
vt 0 0.06666667
vt 0.06666667 0.13333334
vt 0 0.13333334
vt 0.06666667 0.20000002
vt 0 0.20000002
vt 0.06666667 0.26666668
vt 0 0.26666668
vt 0.06666667 0.33333334
vt 0 0.33333334
vt 0.06666667 0.4
vt 0 0.4
vt 0.06666667 0.46666667
vt 0 0.46666667
vt 0.06666667 0.53333336
vt 0 0.53333336
vt 0.06666667 0.6
vt 0 0.6
vt 0.06666667 0.6666667
vt 0 0.6666667
vt 0.06666667 0.73333335
vt 0 0.73333335
vt 0.06666667 0.8
vt 0 0.8
vt 0.06666667 0.8666667
vt 0 0.8666667
vt 0.06666667 0.93333334
vt 0 0.93333334
vt 0.033333335 1
vt 0.13333334 0.93333334
vt 0.10000001 1
vt 0.13333334 0.8666667
vt 0.13333334 0.8
vt 0.13333334 0.73333335
vt 0.20000002 0.93333334
vt 0.16666667 1
vt 0.20000002 0.8666667
vt 0.13333334 0.6666667
vt 0.20000002 0.8
vt 0.26666668 0.93333334
vt 0.23333335 1
vt 0.26666668 0.8666667
vt 0.20000002 0.73333335
vt 0.13333334 0.6
vt 0.33333334 0.93333334
vt 0.3 1
vt 0.26666668 0.8
vt 0.20000002 0.6666667
vt 0.13333334 0.53333336
vt 0.33333334 0.8666667
vt 0.26666668 0.73333335
vt 0.20000002 0.6
vt 0.13333334 0.46666667
vt 0.4 0.93333334
vt 0.36666667 1
vt 0.33333334 0.8
vt 0.26666668 0.6666667
vt 0.20000002 0.53333336
vt 0.13333334 0.4
vt 0.4 0.8666667
vt 0.33333334 0.73333335
vt 0.26666668 0.6
vt 0.20000002 0.46666667
vt 0.13333334 0.33333334
vt 0.46666667 0.93333334
vt 0.43333337 1
vt 0.33333334 0.6666667
vt 0.26666668 0.53333336
vt 0.20000002 0.4
vt 0.13333334 0.26666668
vt 0.33333334 0.6
vt 0.26666668 0.46666667
vt 0.20000002 0.33333334
vt 0.13333334 0.20000002
vt 0.33333334 0.53333336
vt 0.26666668 0.4
vt 0.20000002 0.26666668
vt 0.13333334 0.13333334
vt 0.33333334 0.46666667
vt 0.26666668 0.33333334
vt 0.20000002 0.20000002
vt 0.13333334 0.06666667
vt 0.10000001 0
vt 0.20000002 0.13333334
vt 0.26666668 0.26666668
vt 0.33333334 0.4
vt 0.20000002 0.06666667
vt 0.16666667 0
vt 0.26666668 0.20000002
vt 0.33333334 0.33333334
vt 0.26666668 0.13333334
vt 0.33333334 0.26666668
vt 0.26666668 0.06666667
vt 0.23333335 0
vt 0.33333334 0.20000002
vt 0.33333334 0.13333334
vt 0.33333334 0.06666667
vt 0.3 0
vt 0.4 0.4
vt 0.4 0.33333334
vt 0.4 0.26666668
vt 0.4 0.20000002
vt 0.4 0.13333334
vt 0.4 0.46666667
vt 0.4 0.06666667
vt 0.36666667 0
vt 0.4 0.53333336
vt 0.4 0.6
vt 0.4 0.6666667
vt 0.4 0.73333335
vt 0.4 0.8
vt 0.46666667 0.8666667
vt 0.46666667 0.8
vt 0.46666667 0.73333335
vt 0.46666667 0.6666667
vt 0.46666667 0.6
vt 0.53333336 0.93333334
vt 0.50000006 1
vt 0.53333336 0.8666667
vt 0.53333336 0.8
vt 0.53333336 0.73333335
vt 0.6 0.93333334
vt 0.5666667 1
vt 0.6 0.8666667
vt 0.46666667 0.53333336
vt 0.53333336 0.6666667
vt 0.6 0.8
vt 0.6666667 0.93333334
vt 0.6333334 1
vt 0.6666667 0.8666667
vt 0.6 0.73333335
vt 0.53333336 0.6
vt 0.46666667 0.46666667
vt 0.73333335 0.93333334
vt 0.70000005 1
vt 0.6666667 0.8
vt 0.6 0.6666667
vt 0.53333336 0.53333336
vt 0.46666667 0.4
vt 0.73333335 0.8666667
vt 0.6666667 0.73333335
vt 0.6 0.6
vt 0.53333336 0.46666667
vt 0.46666667 0.33333334
vt 0.8 0.93333334
vt 0.7666667 1
vt 0.6666667 0.6666667
vt 0.6 0.53333336
vt 0.53333336 0.4
vt 0.46666667 0.26666668
vt 0.6666667 0.6
vt 0.6 0.46666667
vt 0.53333336 0.33333334
vt 0.46666667 0.20000002
vt 0.6666667 0.53333336
vt 0.6 0.4
vt 0.53333336 0.26666668
vt 0.46666667 0.13333334
vt 0.6666667 0.46666667
vt 0.6 0.33333334
vt 0.53333336 0.20000002
vt 0.46666667 0.06666667
vt 0.43333337 0
vt 0.53333336 0.13333334
vt 0.6 0.26666668
vt 0.6666667 0.4
vt 0.53333336 0.06666667
vt 0.50000006 0
vt 0.6 0.20000002
vt 0.6666667 0.33333334
vt 0.6 0.13333334
vt 0.6666667 0.26666668
vt 0.6 0.06666667
vt 0.5666667 0
vt 0.6666667 0.20000002
vt 0.6666667 0.13333334
vt 0.6666667 0.06666667
vt 0.6333334 0
vt 0.73333335 0.4
vt 0.73333335 0.33333334
vt 0.73333335 0.26666668
vt 0.73333335 0.20000002
vt 0.73333335 0.13333334
vt 0.73333335 0.46666667
vt 0.73333335 0.06666667
vt 0.70000005 0
vt 0.73333335 0.53333336
vt 0.73333335 0.6
vt 0.73333335 0.6666667
vt 0.73333335 0.73333335
vt 0.73333335 0.8
vt 0.8 0.8666667
vt 0.8 0.8
vt 0.8 0.73333335
vt 0.8 0.6666667
vt 0.8 0.6
vt 0.8666667 0.93333334
vt 0.83333343 1
vt 0.8666667 0.8666667
vt 0.8666667 0.8
vt 0.8666667 0.73333335
vt 0.93333334 0.93333334
vt 0.9000001 1
vt 0.93333334 0.8666667
vt 1 0.93333334
vt 0.96666676 1
vt 1 0.8666667
vt 0.93333334 0.8
vt 1 0.8
vt 0.93333334 0.73333335
vt 1 0.73333335
vt 0.8666667 0.6666667
vt 0.93333334 0.6666667
vt 1 0.6666667
vt 0.8666667 0.6
vt 0.93333334 0.6
vt 1 0.6
vt 0.8 0.53333336
vt 0.8666667 0.53333336
vt 0.93333334 0.53333336
vt 1 0.53333336
vt 0.8 0.46666667
vt 0.8666667 0.46666667
vt 0.93333334 0.46666667
vt 1 0.46666667
vt 0.8 0.4
vt 0.8666667 0.4
vt 0.93333334 0.4
vt 1 0.4
vt 0.8 0.33333334
vt 0.8666667 0.33333334
vt 0.93333334 0.33333334
vt 1 0.33333334
vt 0.8 0.26666668
vt 0.8666667 0.26666668
vt 0.93333334 0.26666668
vt 1 0.26666668
vt 0.8 0.20000002
vt 0.8666667 0.20000002
vt 0.93333334 0.20000002
vt 1 0.20000002
vt 0.8 0.13333334
vt 0.8666667 0.13333334
vt 0.93333334 0.13333334
vt 1 0.13333334
vt 0.8 0.06666667
vt 0.7666667 0
vt 0.8666667 0.06666667
vt 0.83333343 0
vt 0.93333334 0.06666667
vt 0.9000001 0
vt 1 0.06666667
vt 0.96666676 0
vn 0.17914611 -0.96349484 -0.19895862
vn -0 -1 6.223667E-07
vn 0.24458401 -0.9634937 -0.108896844
vn 0.29430503 -0.89807993 -0.32685918
vn 0.4018046 -0.8980806 -0.17889747
vn 0.4073156 -0.79338145 -0.45237133
vn 0.55609626 -0.7933826 -0.24759035
vn 0.5057526 -0.6547623 -0.5616945
vn 0.6904896 -0.6547619 -0.30742636
vn 0.5838962 -0.48840252 -0.6484815
vn 0.7971771 -0.4884021 -0.35492554
vn 0.6379982 -0.30147636 -0.70856917
vn 0.8710414 -0.30147755 -0.38781193
vn 0.6656465 -0.10191358 -0.73927563
vn 0.90878814 -0.10191455 -0.40462017
vn 0.66564685 0.10191418 -0.7392751
vn 0.90878856 0.10191492 -0.40461934
vn 0.63799775 0.3014773 -0.70856917
vn 0.87104136 0.30147874 -0.38781136
vn 0.5838943 0.488401 -0.6484843
vn 0.79717636 0.48840216 -0.3549269
vn 0.50575185 0.654762 -0.56169546
vn 0.69048893 0.6547624 -0.30742684
vn 0.4073163 0.7933838 -0.4523665
vn 0.5560962 0.7933835 -0.24758777
vn 0.29430673 0.8980806 -0.32685608
vn 0.40180644 0.89807993 -0.17889668
vn 0.17914957 0.9634924 -0.1989669
vn 0.24458922 0.963492 -0.10890015
vn 1.2844744E-07 1 -1.2031913E-07
vn 0.082735226 0.96349317 -0.25462884
vn 1.2844744E-07 1 -1.2031913E-07
vn 0.13591486 0.8980795 -0.4183064
vn 0.18810418 0.7933811 -0.5789329
vn 0.23356555 0.6547607 -0.71884316
vn -0.027984405 0.9634934 -0.26626578
vn 1.2844744E-07 1 -1.2031913E-07
vn -0.04597382 0.8980801 -0.4374225
vn 0.26965418 0.48840198 -0.8299096
vn -0.06362898 0.7933811 -0.60539067
vn -0.13386688 0.9634928 -0.23186445
vn 1.2844744E-07 1 -1.2031913E-07
vn -0.21991615 0.89808047 -0.38090467
vn -0.079005696 0.65475947 -0.7516969
vn 0.29463953 0.301478 -0.9068068
vn -0.2166016 0.96349263 -0.15737109
vn 1.2844744E-07 1 -1.2031913E-07
vn -0.30436185 0.7933832 -0.5271687
vn -0.09121305 0.48840174 -0.86783874
vn 0.30740923 0.10191374 -0.94610417
vn -0.3558318 0.898079 -0.2585303
vn -0.37791803 0.6547624 -0.65457183
vn -0.099666454 0.301479 -0.94824946
vn 0.30740866 -0.10191303 -0.94610447
vn -0.26188314 0.96349305 -0.055663675
vn 1.2844744E-07 1 -1.2031913E-07
vn -0.4924677 0.7933824 -0.35779876
vn -0.43630934 0.4884012 -0.7557105
vn -0.10398471 0.10191494 -0.9893435
vn 0.29463938 -0.30147722 -0.9068071
vn -0.43022108 0.8980795 -0.09144877
vn -0.6114834 0.6547634 -0.44426674
vn -0.4767361 0.30147898 -0.82573193
vn -0.10398435 -0.101914555 -0.98934364
vn 0.2696547 -0.48840344 -0.8299087
vn -0.26188403 0.96349275 0.05566395
vn 1.2844744E-07 1 -1.2031913E-07
vn -0.70596194 0.48840353 -0.5129131
vn -0.49739534 0.10191633 -0.8615166
vn -0.09966593 -0.30147815 -0.94824976
vn 0.2335654 -0.6547595 -0.7188443
vn -0.7713745 0.30147976 -0.5604385
vn -0.49739617 -0.10191615 -0.8615162
vn -0.09121311 -0.48840347 -0.86783767
vn 0.18810402 -0.7933808 -0.5789333
vn -0.80480486 0.101915106 -0.58472437
vn -0.4767381 -0.30147865 -0.82573086
vn -0.07900605 -0.65476084 -0.7516957
vn 0.13591373 -0.89808106 -0.41830343
vn -0.8048043 -0.10191476 -0.5847251
vn -0.43631062 -0.4884028 -0.7557088
vn -0.063628994 -0.79338247 -0.6053888
vn 0.08273272 -0.9634947 -0.2546236
vn -0 -1 6.223667E-07
vn -0.04597358 -0.89808124 -0.43742013
vn -0.3779182 -0.65476304 -0.65457094
vn -0.7713754 -0.3014788 -0.5604378
vn -0.027984275 -0.96349305 -0.2662669
vn -0 -1 6.223667E-07
vn -0.304362 -0.7933838 -0.5271679
vn -0.7059621 -0.48840356 -0.5129127
vn -0.2199148 -0.8980815 -0.3809031
vn -0.6114826 -0.6547623 -0.44426948
vn -0.1338631 -0.9634943 -0.23186074
vn -0 -1 6.223667E-07
vn -0.49246824 -0.79338306 -0.35779655
vn -0.35583025 -0.89808124 -0.25852424
vn -0.21659686 -0.9634945 -0.15736611
vn -0 -1 6.223667E-07
vn -0.9326372 -0.30147877 -0.19823827
vn -0.8535484 -0.48840415 -0.18142907
vn -0.73931754 -0.65476286 -0.15714704
vn -0.59542125 -0.7933827 -0.12655993
vn -0.43021956 -0.8980804 -0.091447465
vn -0.97305447 -0.101913966 -0.20682958
vn -0.2618785 -0.96349406 -0.055668138
vn -0 -1 6.223667E-07
vn -0.97305477 0.10191446 -0.20682827
vn -0.932637 0.30148017 -0.1982372
vn -0.85354847 0.48840418 -0.18142854
vn -0.73931754 0.6547631 -0.15714611
vn -0.59542084 0.79338276 -0.12656154
vn -0.43022093 0.89808 0.09144522
vn -0.59542066 0.7933833 0.12655921
vn -0.73931795 0.6547626 0.15714638
vn -0.85354877 0.48840398 0.1814278
vn -0.9326368 0.3014805 0.19823743
vn -0.21660185 0.9634924 0.15737231
vn 1.2844744E-07 1 -1.2031913E-07
vn -0.35583112 0.89807975 0.25852877
vn -0.49246737 0.7933831 0.35779762
vn -0.61148447 0.65476245 0.44426683
vn -0.13386638 0.96349305 0.2318642
vn 1.2844744E-07 1 -1.2031913E-07
vn -0.21991695 0.8980802 0.38090464
vn -0.9730549 0.1019148 0.20682754
vn -0.7059622 0.48840386 0.51291233
vn -0.30436277 0.7933829 0.5271686
vn -0.027986085 0.96349406 0.26626313
vn 1.2844744E-07 1 -1.2031913E-07
vn -0.045975138 0.89808184 0.43741903
vn -0.37791938 0.65476274 0.65457064
vn -0.7713758 0.30148134 0.56043595
vn -0.9730546 -0.1019144 0.20682885
vn 0.08273373 0.96349275 0.2546307
vn 1.2844744E-07 1 -1.2031913E-07
vn -0.06362858 0.7933844 0.60538626
vn -0.43630987 0.48840427 0.75570816
vn -0.80480564 0.10191518 0.5847233
vn -0.932637 -0.3014793 0.19823848
vn 0.13591668 0.89808077 0.41830325
vn -0.07900561 0.654763 0.7516938
vn -0.4767355 0.30148086 0.8257315
vn -0.80480516 -0.10191459 0.5847239
vn -0.8535488 -0.48840395 0.18142779
vn 0.17914991 0.9634925 0.19896626
vn 1.2844744E-07 1 -1.2031913E-07
vn -0.091213256 0.4884047 0.867837
vn -0.49739552 0.10191533 0.8615167
vn -0.77137655 -0.30148035 0.5604354
vn -0.73931795 -0.6547624 0.15714708
vn -0.09966514 0.30148014 0.9482492
vn -0.49739468 -0.10191477 0.86151725
vn -0.70596284 -0.48840424 0.5129112
vn -0.5954208 -0.7933832 0.12655911
vn -0.10398411 0.10191478 0.98934364
vn -0.47673523 -0.30147925 0.8257323
vn -0.6114838 -0.65476125 0.44426945
vn -0.43021908 -0.8980809 0.09144543
vn -0.103983626 -0.10191385 0.98934376
vn -0.43631068 -0.48840487 0.7557074
vn -0.49246714 -0.79338306 0.3577981
vn -0.261878 -0.9634942 0.055668388
vn -0 -1 6.223667E-07
vn -0.3558297 -0.89808154 0.25852418
vn -0.37791997 -0.6547627 0.65457034
vn -0.09966437 -0.30147704 0.9482503
vn -0.21659702 -0.9634943 0.15736721
vn -0 -1 6.223667E-07
vn -0.30436307 -0.793383 0.52716845
vn -0.09121308 -0.488405 0.8678367
vn -0.21991608 -0.8980812 0.38090312
vn -0.07900562 -0.6547632 0.75169355
vn -0.13386378 -0.9634946 0.23185918
vn -0 -1 6.223667E-07
vn -0.06362826 -0.7933823 0.6053891
vn -0.045974895 -0.89808077 0.43742096
vn -0.02798599 -0.96349406 0.266263
vn -0 -1 6.223667E-07
vn 0.2946392 -0.30147842 0.90680677
vn 0.26965433 -0.48840514 0.82990783
vn 0.23356584 -0.65476274 0.7188412
vn 0.18810672 -0.79338 0.57893336
vn 0.13591598 -0.89807975 0.4183058
vn 0.30740756 -0.10191479 0.9461046
vn 0.082732484 -0.9634951 0.25462234
vn -0 -1 6.223667E-07
vn 0.30740753 0.10191573 0.94610447
vn 0.2946383 0.30147997 0.9068065
vn 0.2696528 0.48840353 0.8299092
vn 0.23356508 0.65476286 0.7188413
vn 0.18810712 0.7933829 0.5789295
vn 0.29430586 0.89807993 0.32685843
vn 0.40731403 0.7933819 0.452372
vn 0.5057505 0.6547627 0.56169593
vn 0.583895 0.4884028 0.64848226
vn 0.63799703 0.30147934 0.70856893
vn 0.24458902 0.96349263 0.1088957
vn 1.2844744E-07 1 -1.2031913E-07
vn 0.40180722 0.89807993 0.17889482
vn 0.5560962 0.7933827 0.24759036
vn 0.6904896 0.6547622 0.30742574
vn 0.26773497 0.96349263 0
vn 1.2844744E-07 1 -1.2031913E-07
vn 0.43983123 0.89808047 -2.932248E-06
vn 0.24458922 0.963492 -0.10890015
vn 1.2844744E-07 1 -1.2031913E-07
vn 0.40180644 0.89807993 -0.17889668
vn 0.60872257 0.7933832 -1.5845447E-06
vn 0.5560962 0.7933835 -0.24758777
vn 0.75583506 0.65476215 0
vn 0.69048893 0.6547624 -0.30742684
vn 0.7971769 0.48840266 0.35492504
vn 0.87261814 0.48840314 -6.4068695E-07
vn 0.79717636 0.48840216 -0.3549269
vn 0.8710414 0.30147988 0.38781023
vn 0.95347226 0.30148062 -1.0541777E-06
vn 0.87104136 0.30147874 -0.38781136
vn 0.6656461 0.10191607 0.73927563
vn 0.90878856 0.10191605 0.40461913
vn 0.994793 0.10191596 -4.81732E-07
vn 0.90878856 0.10191492 -0.40461934
vn 0.6656463 -0.10191551 0.73927546
vn 0.9087886 -0.10191556 0.40461877
vn 0.994793 -0.1019156 -7.8828566E-07
vn 0.90878814 -0.10191455 -0.40462017
vn 0.6379978 -0.30147916 0.7085684
vn 0.8710418 -0.30147925 0.38780984
vn 0.9534727 -0.30147943 -1.3769965E-06
vn 0.8710414 -0.30147755 -0.38781193
vn 0.5838958 -0.48840454 0.64848024
vn 0.79717684 -0.48840305 0.35492474
vn 0.8726184 -0.48840263 -6.875669E-07
vn 0.7971771 -0.4884021 -0.35492554
vn 0.50575113 -0.65476394 0.5616938
vn 0.6904896 -0.6547623 0.30742544
vn 0.7558355 -0.6547616 0
vn 0.6904896 -0.6547619 -0.30742636
vn 0.40731394 -0.7933822 0.45237148
vn 0.55609614 -0.79338276 0.24759005
vn 0.60872257 -0.7933832 0
vn 0.55609626 -0.7933826 -0.24759035
vn 0.29430372 -0.8980804 0.32685912
vn 0.40180457 -0.8980812 0.17889461
vn 0.43982932 -0.89808136 0
vn 0.4018046 -0.8980806 -0.17889747
vn 0.17914572 -0.9634946 0.19895977
vn -0 -1 6.223667E-07
vn 0.24458209 -0.9634942 0.10889767
vn -0 -1 6.223667E-07
vn 0.26772973 -0.96349406 0
vn -0 -1 6.223667E-07
vn 0.24458401 -0.9634937 -0.108896844
vn -0 -1 6.223667E-07
g planet_6M_0
f 3/3/3 2/2/2 1/1/1
f 1/1/1 4/4/4 3/3/3
f 4/4/4 5/5/5 3/3/3
f 4/4/4 6/6/6 5/5/5
f 6/6/6 7/7/7 5/5/5
f 6/6/6 8/8/8 7/7/7
f 8/8/8 9/9/9 7/7/7
f 8/8/8 10/10/10 9/9/9
f 10/10/10 11/11/11 9/9/9
f 10/10/10 12/12/12 11/11/11
f 12/12/12 13/13/13 11/11/11
f 12/12/12 14/14/14 13/13/13
f 14/14/14 15/15/15 13/13/13
f 14/14/14 16/16/16 15/15/15
f 16/16/16 17/17/17 15/15/15
f 16/16/16 18/18/18 17/17/17
f 18/18/18 19/19/19 17/17/17
f 18/18/18 20/20/20 19/19/19
f 20/20/20 21/21/21 19/19/19
f 20/20/20 22/22/22 21/21/21
f 22/22/22 23/23/23 21/21/21
f 22/22/22 24/24/24 23/23/23
f 24/24/24 25/25/25 23/23/23
f 24/24/24 26/26/26 25/25/25
f 26/26/26 27/27/27 25/25/25
f 26/26/26 28/28/28 27/27/27
f 28/28/28 29/29/29 27/27/27
f 28/28/28 30/30/30 29/29/29
f 31/31/31 28/28/28 26/26/26
f 31/31/31 32/32/32 28/28/28
f 33/33/33 26/26/26 24/24/24
f 33/33/33 31/31/31 26/26/26
f 34/34/34 24/24/24 22/22/22
f 34/34/34 33/33/33 24/24/24
f 35/35/35 22/22/22 20/20/20
f 35/35/35 34/34/34 22/22/22
f 36/36/36 31/31/31 33/33/33
f 36/36/36 37/37/37 31/31/31
f 38/38/38 33/33/33 34/34/34
f 38/38/38 36/36/36 33/33/33
f 39/39/39 35/35/35 20/20/20
f 39/39/39 20/20/20 18/18/18
f 40/40/40 34/34/34 35/35/35
f 40/40/40 38/38/38 34/34/34
f 41/41/41 36/36/36 38/38/38
f 41/41/41 42/42/42 36/36/36
f 43/43/43 41/41/41 38/38/38
f 43/43/43 38/38/38 40/40/40
f 44/44/44 40/40/40 35/35/35
f 44/44/44 35/35/35 39/39/39
f 45/45/45 39/39/39 18/18/18
f 45/45/45 18/18/18 16/16/16
f 46/46/46 41/41/41 43/43/43
f 46/46/46 47/47/47 41/41/41
f 48/48/48 43/43/43 40/40/40
f 48/48/48 40/40/40 44/44/44
f 49/49/49 44/44/44 39/39/39
f 49/49/49 39/39/39 45/45/45
f 50/50/50 45/45/45 16/16/16
f 50/50/50 16/16/16 14/14/14
f 51/51/51 46/46/46 43/43/43
f 51/51/51 43/43/43 48/48/48
f 52/52/52 48/48/48 44/44/44
f 52/52/52 44/44/44 49/49/49
f 53/53/53 49/49/49 45/45/45
f 53/53/53 45/45/45 50/50/50
f 54/54/54 50/50/50 14/14/14
f 54/54/54 14/14/14 12/12/12
f 55/55/55 46/46/46 51/51/51
f 55/55/55 56/56/56 46/46/46
f 57/57/57 51/51/51 48/48/48
f 57/57/57 48/48/48 52/52/52
f 58/58/58 52/52/52 49/49/49
f 58/58/58 49/49/49 53/53/53
f 59/59/59 53/53/53 50/50/50
f 59/59/59 50/50/50 54/54/54
f 60/60/60 54/54/54 12/12/12
f 60/60/60 12/12/12 10/10/10
f 61/61/61 55/55/55 51/51/51
f 61/61/61 51/51/51 57/57/57
f 62/62/62 57/57/57 52/52/52
f 62/62/62 52/52/52 58/58/58
f 63/63/63 58/58/58 53/53/53
f 63/63/63 53/53/53 59/59/59
f 64/64/64 59/59/59 54/54/54
f 64/64/64 54/54/54 60/60/60
f 65/65/65 60/60/60 10/10/10
f 65/65/65 10/10/10 8/8/8
f 66/66/66 55/55/55 61/61/61
f 66/66/66 67/67/67 55/55/55
f 68/68/68 62/62/62 58/58/58
f 68/68/68 58/58/58 63/63/63
f 69/69/69 63/63/63 59/59/59
f 69/69/69 59/59/59 64/64/64
f 70/70/70 64/64/64 60/60/60
f 70/70/70 60/60/60 65/65/65
f 71/71/71 65/65/65 8/8/8
f 71/71/71 8/8/8 6/6/6
f 72/72/72 68/68/68 63/63/63
f 72/72/72 63/63/63 69/69/69
f 73/73/73 69/69/69 64/64/64
f 73/73/73 64/64/64 70/70/70
f 74/74/74 70/70/70 65/65/65
f 74/74/74 65/65/65 71/71/71
f 75/75/75 71/71/71 6/6/6
f 75/75/75 6/6/6 4/4/4
f 76/76/76 72/72/72 69/69/69
f 76/76/76 69/69/69 73/73/73
f 77/77/77 73/73/73 70/70/70
f 77/77/77 70/70/70 74/74/74
f 78/78/78 74/74/74 71/71/71
f 78/78/78 71/71/71 75/75/75
f 79/79/79 75/75/75 4/4/4
f 79/79/79 4/4/4 1/1/1
f 80/80/80 76/76/76 73/73/73
f 80/80/80 73/73/73 77/77/77
f 81/81/81 77/77/77 74/74/74
f 81/81/81 74/74/74 78/78/78
f 82/82/82 78/78/78 75/75/75
f 82/82/82 75/75/75 79/79/79
f 83/83/83 79/79/79 1/1/1
f 1/1/1 84/84/84 83/83/83
f 85/85/85 79/79/79 83/83/83
f 85/85/85 82/82/82 79/79/79
f 86/86/86 78/78/78 82/82/82
f 86/86/86 81/81/81 78/78/78
f 87/87/87 77/77/77 81/81/81
f 87/87/87 80/80/80 77/77/77
f 88/88/88 85/85/85 83/83/83
f 83/83/83 89/89/89 88/88/88
f 90/90/90 82/82/82 85/85/85
f 90/90/90 86/86/86 82/82/82
f 91/91/91 81/81/81 86/86/86
f 91/91/91 87/87/87 81/81/81
f 92/92/92 85/85/85 88/88/88
f 92/92/92 90/90/90 85/85/85
f 93/93/93 86/86/86 90/90/90
f 93/93/93 91/91/91 86/86/86
f 94/94/94 92/92/92 88/88/88
f 88/88/88 95/95/95 94/94/94
f 96/96/96 90/90/90 92/92/92
f 96/96/96 93/93/93 90/90/90
f 97/97/97 92/92/92 94/94/94
f 97/97/97 96/96/96 92/92/92
f 98/98/98 97/97/97 94/94/94
f 94/94/94 99/99/99 98/98/98
f 100/100/100 87/87/87 91/91/91
f 101/101/101 91/91/91 93/93/93
f 101/101/101 100/100/100 91/91/91
f 102/102/102 93/93/93 96/96/96
f 102/102/102 101/101/101 93/93/93
f 103/103/103 96/96/96 97/97/97
f 103/103/103 102/102/102 96/96/96
f 104/104/104 97/97/97 98/98/98
f 104/104/104 103/103/103 97/97/97
f 100/100/100 105/105/105 87/87/87
f 105/105/105 80/80/80 87/87/87
f 106/106/106 104/104/104 98/98/98
f 98/98/98 107/107/107 106/106/106
f 105/105/105 108/108/108 80/80/80
f 108/108/108 76/76/76 80/80/80
f 108/108/108 109/109/109 76/76/76
f 109/109/109 72/72/72 76/76/76
f 109/109/109 110/110/110 72/72/72
f 110/110/110 68/68/68 72/72/72
f 110/110/110 111/111/111 68/68/68
f 111/111/111 62/62/62 68/68/68
f 111/111/111 112/112/112 62/62/62
f 112/112/112 57/57/57 62/62/62
f 112/112/112 61/61/61 57/57/57
f 113/113/113 61/61/61 112/112/112
f 113/113/113 66/66/66 61/61/61
f 114/114/114 112/112/112 111/111/111
f 114/114/114 113/113/113 112/112/112
f 115/115/115 111/111/111 110/110/110
f 115/115/115 114/114/114 111/111/111
f 116/116/116 110/110/110 109/109/109
f 116/116/116 115/115/115 110/110/110
f 117/117/117 109/109/109 108/108/108
f 117/117/117 116/116/116 109/109/109
f 118/118/118 66/66/66 113/113/113
f 118/118/118 119/119/119 66/66/66
f 120/120/120 113/113/113 114/114/114
f 120/120/120 118/118/118 113/113/113
f 121/121/121 114/114/114 115/115/115
f 121/121/121 120/120/120 114/114/114
f 122/122/122 115/115/115 116/116/116
f 122/122/122 121/121/121 115/115/115
f 123/123/123 118/118/118 120/120/120
f 123/123/123 124/124/124 118/118/118
f 125/125/125 120/120/120 121/121/121
f 125/125/125 123/123/123 120/120/120
f 126/126/126 117/117/117 108/108/108
f 126/126/126 108/108/108 105/105/105
f 127/127/127 116/116/116 117/117/117
f 127/127/127 122/122/122 116/116/116
f 128/128/128 121/121/121 122/122/122
f 128/128/128 125/125/125 121/121/121
f 129/129/129 123/123/123 125/125/125
f 129/129/129 130/130/130 123/123/123
f 131/131/131 129/129/129 125/125/125
f 131/131/131 125/125/125 128/128/128
f 132/132/132 128/128/128 122/122/122
f 132/132/132 122/122/122 127/127/127
f 133/133/133 127/127/127 117/117/117
f 133/133/133 117/117/117 126/126/126
f 134/134/134 126/126/126 105/105/105
f 134/134/134 105/105/105 100/100/100
f 135/135/135 129/129/129 131/131/131
f 135/135/135 136/136/136 129/129/129
f 137/137/137 131/131/131 128/128/128
f 137/137/137 128/128/128 132/132/132
f 138/138/138 132/132/132 127/127/127
f 138/138/138 127/127/127 133/133/133
f 139/139/139 133/133/133 126/126/126
f 139/139/139 126/126/126 134/134/134
f 140/140/140 134/134/134 100/100/100
f 140/140/140 100/100/100 101/101/101
f 141/141/141 135/135/135 131/131/131
f 141/141/141 131/131/131 137/137/137
f 142/142/142 137/137/137 132/132/132
f 142/142/142 132/132/132 138/138/138
f 143/143/143 138/138/138 133/133/133
f 143/143/143 133/133/133 139/139/139
f 144/144/144 139/139/139 134/134/134
f 144/144/144 134/134/134 140/140/140
f 145/145/145 140/140/140 101/101/101
f 145/145/145 101/101/101 102/102/102
f 146/146/146 135/135/135 141/141/141
f 146/146/146 147/147/147 135/135/135
f 148/148/148 142/142/142 138/138/138
f 148/148/148 138/138/138 143/143/143
f 149/149/149 143/143/143 139/139/139
f 149/149/149 139/139/139 144/144/144
f 150/150/150 144/144/144 140/140/140
f 150/150/150 140/140/140 145/145/145
f 151/151/151 145/145/145 102/102/102
f 151/151/151 102/102/102 103/103/103
f 152/152/152 148/148/148 143/143/143
f 152/152/152 143/143/143 149/149/149
f 153/153/153 149/149/149 144/144/144
f 153/153/153 144/144/144 150/150/150
f 154/154/154 150/150/150 145/145/145
f 154/154/154 145/145/145 151/151/151
f 155/155/155 151/151/151 103/103/103
f 155/155/155 103/103/103 104/104/104
f 156/156/156 152/152/152 149/149/149
f 156/156/156 149/149/149 153/153/153
f 157/157/157 153/153/153 150/150/150
f 157/157/157 150/150/150 154/154/154
f 158/158/158 154/154/154 151/151/151
f 158/158/158 151/151/151 155/155/155
f 159/159/159 155/155/155 104/104/104
f 159/159/159 104/104/104 106/106/106
f 160/160/160 156/156/156 153/153/153
f 160/160/160 153/153/153 157/157/157
f 161/161/161 157/157/157 154/154/154
f 161/161/161 154/154/154 158/158/158
f 162/162/162 158/158/158 155/155/155
f 162/162/162 155/155/155 159/159/159
f 163/163/163 159/159/159 106/106/106
f 106/106/106 164/164/164 163/163/163
f 165/165/165 159/159/159 163/163/163
f 165/165/165 162/162/162 159/159/159
f 166/166/166 158/158/158 162/162/162
f 166/166/166 161/161/161 158/158/158
f 167/167/167 157/157/157 161/161/161
f 167/167/167 160/160/160 157/157/157
f 168/168/168 165/165/165 163/163/163
f 163/163/163 169/169/169 168/168/168
f 170/170/170 162/162/162 165/165/165
f 170/170/170 166/166/166 162/162/162
f 171/171/171 161/161/161 166/166/166
f 171/171/171 167/167/167 161/161/161
f 172/172/172 165/165/165 168/168/168
f 172/172/172 170/170/170 165/165/165
f 173/173/173 166/166/166 170/170/170
f 173/173/173 171/171/171 166/166/166
f 174/174/174 172/172/172 168/168/168
f 168/168/168 175/175/175 174/174/174
f 176/176/176 170/170/170 172/172/172
f 176/176/176 173/173/173 170/170/170
f 177/177/177 172/172/172 174/174/174
f 177/177/177 176/176/176 172/172/172
f 178/178/178 177/177/177 174/174/174
f 174/174/174 179/179/179 178/178/178
f 180/180/180 167/167/167 171/171/171
f 181/181/181 171/171/171 173/173/173
f 181/181/181 180/180/180 171/171/171
f 182/182/182 173/173/173 176/176/176
f 182/182/182 181/181/181 173/173/173
f 183/183/183 176/176/176 177/177/177
f 183/183/183 182/182/182 176/176/176
f 184/184/184 177/177/177 178/178/178
f 184/184/184 183/183/183 177/177/177
f 180/180/180 185/185/185 167/167/167
f 185/185/185 160/160/160 167/167/167
f 186/186/186 184/184/184 178/178/178
f 178/178/178 187/187/187 186/186/186
f 185/185/185 188/188/188 160/160/160
f 188/188/188 156/156/156 160/160/160
f 188/188/188 189/189/189 156/156/156
f 189/189/189 152/152/152 156/156/156
f 189/189/189 190/190/190 152/152/152
f 190/190/190 148/148/148 152/152/152
f 190/190/190 191/191/191 148/148/148
f 191/191/191 142/142/142 148/148/148
f 191/191/191 192/192/192 142/142/142
f 192/192/192 137/137/137 142/142/142
f 192/192/192 141/141/141 137/137/137
f 193/193/193 141/141/141 192/192/192
f 193/193/193 146/146/146 141/141/141
f 194/194/194 192/192/192 191/191/191
f 194/194/194 193/193/193 192/192/192
f 195/195/195 191/191/191 190/190/190
f 195/195/195 194/194/194 191/191/191
f 196/196/196 190/190/190 189/189/189
f 196/196/196 195/195/195 190/190/190
f 197/197/197 189/189/189 188/188/188
f 197/197/197 196/196/196 189/189/189
f 198/198/198 146/146/146 193/193/193
f 198/198/198 199/199/199 146/146/146
f 200/200/200 193/193/193 194/194/194
f 200/200/200 198/198/198 193/193/193
f 201/201/201 194/194/194 195/195/195
f 201/201/201 200/200/200 194/194/194
f 202/202/202 195/195/195 196/196/196
f 202/202/202 201/201/201 195/195/195
f 203/203/203 198/198/198 200/200/200
f 203/203/203 204/204/204 198/198/198
f 205/205/205 200/200/200 201/201/201
f 205/205/205 203/203/203 200/200/200
f 206/206/206 203/203/203 205/205/205
f 206/206/206 207/207/207 203/203/203
f 208/208/208 206/206/206 205/205/205
f 209/209/209 205/205/205 201/201/201
f 208/208/208 205/205/205 209/209/209
f 209/209/209 201/201/201 202/202/202
f 210/210/210 208/208/208 209/209/209
f 210/210/210 209/209/209 211/211/211
f 211/211/211 209/209/209 202/202/202
f 212/212/212 210/210/210 211/211/211
f 213/213/213 202/202/202 196/196/196
f 211/211/211 202/202/202 213/213/213
f 213/213/213 196/196/196 197/197/197
f 212/212/212 211/211/211 214/214/214
f 214/214/214 211/211/211 213/213/213
f 215/215/215 212/212/212 214/214/214
f 216/216/216 213/213/213 197/197/197
f 214/214/214 213/213/213 216/216/216
f 215/215/215 214/214/214 217/217/217
f 217/217/217 214/214/214 216/216/216
f 218/218/218 215/215/215 217/217/217
f 216/216/216 197/197/197 219/219/219
f 219/219/219 197/197/197 188/188/188
f 219/219/219 188/188/188 185/185/185
f 217/217/217 216/216/216 220/220/220
f 220/220/220 216/216/216 219/219/219
f 218/218/218 217/217/217 221/221/221
f 221/221/221 217/217/217 220/220/220
f 222/222/222 218/218/218 221/221/221
f 223/223/223 219/219/219 185/185/185
f 220/220/220 219/219/219 223/223/223
f 223/223/223 185/185/185 180/180/180
f 221/221/221 220/220/220 224/224/224
f 224/224/224 220/220/220 223/223/223
f 222/222/222 221/221/221 225/225/225
f 225/225/225 221/221/221 224/224/224
f 226/226/226 222/222/222 225/225/225
f 227/227/227 223/223/223 180/180/180
f 224/224/224 223/223/223 227/227/227
f 227/227/227 180/180/180 181/181/181
f 225/225/225 224/224/224 228/228/228
f 228/228/228 224/224/224 227/227/227
f 226/226/226 225/225/225 229/229/229
f 229/229/229 225/225/225 228/228/228
f 230/230/230 226/226/226 229/229/229
f 231/231/231 227/227/227 181/181/181
f 228/228/228 227/227/227 231/231/231
f 231/231/231 181/181/181 182/182/182
f 229/229/229 228/228/228 232/232/232
f 232/232/232 228/228/228 231/231/231
f 230/230/230 229/229/229 233/233/233
f 233/233/233 229/229/229 232/232/232
f 234/234/234 230/230/230 233/233/233
f 235/235/235 231/231/231 182/182/182
f 232/232/232 231/231/231 235/235/235
f 235/235/235 182/182/182 183/183/183
f 233/233/233 232/232/232 236/236/236
f 236/236/236 232/232/232 235/235/235
f 234/234/234 233/233/233 237/237/237
f 237/237/237 233/233/233 236/236/236
f 238/238/238 234/234/234 237/237/237
f 239/239/239 235/235/235 183/183/183
f 236/236/236 235/235/235 239/239/239
f 239/239/239 183/183/183 184/184/184
f 237/237/237 236/236/236 240/240/240
f 240/240/240 236/236/236 239/239/239
f 238/238/238 237/237/237 241/241/241
f 241/241/241 237/237/237 240/240/240
f 242/242/242 238/238/238 241/241/241
f 243/243/243 239/239/239 184/184/184
f 240/240/240 239/239/239 243/243/243
f 243/243/243 184/184/184 186/186/186
f 241/241/241 240/240/240 244/244/244
f 244/244/244 240/240/240 243/243/243
f 242/242/242 241/241/241 245/245/245
f 245/245/245 241/241/241 244/244/244
f 246/246/246 242/242/242 245/245/245
f 247/247/247 243/243/243 186/186/186
f 244/244/244 243/243/243 247/247/247
f 186/186/186 248/248/248 247/247/247
f 249/249/249 244/244/244 247/247/247
f 245/245/245 244/244/244 249/249/249
f 247/247/247 250/250/250 249/249/249
f 246/246/246 245/245/245 251/251/251
f 251/251/251 245/245/245 249/249/249
f 249/249/249 252/252/252 251/251/251
f 253/253/253 246/246/246 251/251/251
f 251/251/251 254/254/254 253/253/253
