g q
v 0.33908576 0.045553803 0.36608684
v 0.37988088 0.0018447638 0.37191463
v 0.32743 0.0018447638 0.3733716
v 0.34928453 0.0018447638 0.4374783
v 0.36239725 0.0018447638 0.40688193
v 0.3696821 0.04263991 0.42436552
v 0.3696821 0.04263991 0.42436552
v 0.36239725 0.0018447638 0.40688193
v 0.3929936 0.03972596 0.41270983
v 0.14676595 0.2757548 0.2772118
v 0.14822292 0.30052328 0.27866876
v 0.18173319 0.3048941 0.2539003
v 0.10888481 0.30052328 0.2539003
v 0.121997535 0.3282056 0.22913182
v 0.1321963 0.32529175 0.2597282
v 0.17590535 0.33549047 0.23350275
v 0.1584217 0.35151708 0.20582032
v 0.19047505 0.32529175 0.21019119
v 0.1321963 0.32529175 0.2597282
v 0.121997535 0.3282056 0.22913182
v 0.15405083 0.32966256 0.24661541
v 0.20650166 0.00038778782 0.28449655
v 0.21670043 0.0018447638 0.2815827
v 0.22107136 0.00038778782 0.2932384
v 0.22252834 0.00038778782 0.21019119
v 0.24001193 0.00038778782 0.22476089
v 0.22252834 0.03244108 0.22913182
v 0.22252834 0.03244108 0.22913182
v 0.24001193 0.00038778782 0.22476089
v 0.22835618 0.03244108 0.25098634
v 0.24438286 0.00038778782 0.29032445
v 0.21670043 0.0018447638 0.2815827
v 0.235641 0.03244108 0.27284086
v 0.22107136 0.00038778782 0.2932384
v 0.21670043 0.0018447638 0.2815827
v 0.24438286 0.00038778782 0.29032445
v 0.23127013 0.0018447638 0.3048941
v 0.235641 0.026613235 0.30926502
v 0.2268992 0.00038778782 0.3282056
v 0.26332343 0.0018447638 0.29615235
v 0.2647804 0.0018447638 0.3282056
v 0.25458163 0.030984163 0.30780804
v 0.25458163 0.030984163 0.30780804
v 0.2647804 0.0018447638 0.3282056
v 0.24438286 0.029527187 0.33111954
v 0.24001193 0.00038778782 0.34277534
v 0.235641 0.026613235 0.30926502
v 0.24438286 0.029527187 0.33111954
v 0.2268992 0.00038778782 0.3282056
v 0.235641 0.026613235 0.30926502
v 0.24001193 0.00038778782 0.34277534
v 0.17736232 0.27138388 0.2815827
v 0.18173319 0.3048941 0.2539003
v 0.20358771 0.28303957 0.264099
v 0.18173319 0.3048941 0.2539003
v 0.17736232 0.27138388 0.2815827
v 0.14676595 0.2757548 0.2772118
v 0.51683587 0.00038778782 0.30052328
v 0.54160434 0.055752575 0.2815827
v 0.5197498 0.00038778782 0.32383478
v 0.5925982 0.044096828 0.27429783
v 0.61299574 0.00038778782 0.28012574
v 0.61299574 0.00038778782 0.30926502
v 0.5197498 0.00038778782 0.32383478
v 0.54160434 0.055752575 0.2815827
v 0.53140557 0.04701078 0.30926502
v 0.47312683 0.06740832 0.2932384
v 0.46875593 0.04992473 0.310722
v 0.44107354 0.05720955 0.30198026
v -0.53072417 0.00038778782 0.30052328
v -0.5059557 0.058666527 0.30926502
v -0.5482079 0.00038778782 0.31509292
v -0.4724455 0.051381707 0.3500601
v -0.46370363 0.0018447638 0.3733716
v -0.48992908 0.0018447638 0.38794136
v -0.5482079 0.00038778782 0.31509292
v -0.5059557 0.058666527 0.30926502
v -0.5336381 0.048467755 0.31509292
v 0.19193196 0.12423009 0.08197802
v 0.21087259 0.09363377 0.084891975
v 0.22835618 0.00038778782 0.09363377
v 0.053520024 0.00038778782 0.09363377
v 0.06808972 0.17231005 0.077607095
v 0.1555078 0.15336949 0.08052105
v -0.044096828 0.1781379 0.077607095
v -0.14171374 0.00038778782 0.09363377
v -0.15628338 0.17231005 0.077607095
v -0.28012574 0.12423009 0.08197802
v -0.24370146 0.15336949 0.08052105
v -0.3165499 0.00038778782 0.09363377
v -0.2990663 0.09363377 0.084891975
v 0.2778931 0.00038778782 0.3398614
v 0.22835618 0.00038778782 0.09363377
v 0.21087259 0.09363377 0.084891975
v 0.25312465 0.10528952 0.32966256
v 0.19193196 0.12423009 0.08197802
v 0.2502107 0.033898056 0.36025894
v 0.25312465 0.0018447638 0.35880196
v 0.23418409 0.15191251 0.310722
v 0.1555078 0.15336949 0.08052105
v 0.19047505 0.1985355 0.30198026
v 0.06808972 0.17231005 0.077607095
v 0.06808972 0.21893305 0.29615235
v -0.044096828 0.22476089 0.29469538
v -0.044096828 0.1781379 0.077607095
v -0.15628338 0.21893305 0.29615235
v -0.15628338 0.17231005 0.077607095
v -0.24370146 0.15336949 0.08052105
v -0.28012574 0.1985355 0.30198026
v -0.3223778 0.15191251 0.310722
v -0.28012574 0.12423009 0.08197802
v -0.34131837 0.10528952 0.32966256
v -0.2990663 0.09363377 0.084891975
v -0.3165499 0.00038778782 0.09363377
v -0.36608684 0.00038778782 0.3398614
v -0.33840442 0.033898056 0.36025894
v -0.34277534 0.0018447638 0.35880196
v -0.36608684 0.00038778782 0.3398614
v -0.3165499 0.00038778782 0.09363377
v -0.34277534 0.0018447638 0.35880196
v -0.14171374 0.00038778782 0.09363377
v -0.14171374 0.0018447638 0.35880196
v 0.053520024 0.00038778782 0.09363377
v 0.053520024 0.0018447638 0.35880196
v 0.22835618 0.00038778782 0.09363377
v 0.25312465 0.0018447638 0.35880196
v 0.2778931 0.00038778782 0.3398614
v -0.34277534 0.0018447638 0.35880196
v -0.33694744 0.0018447638 0.38357043
v -0.33840442 0.033898056 0.36025894
v -0.35880196 0.041182935 0.38211346
v -0.35880196 0.0018447638 0.40105402
v -0.36025894 0.114031315 0.34714627
v -0.34131837 0.10528952 0.32966256
v -0.3223778 0.15191251 0.310722
v -0.35297406 0.1606543 0.32092083
v -0.28012574 0.1985355 0.30198026
v -0.3791995 0.03972596 0.38794136
v -0.38648438 0.0018447638 0.402511
v -0.40105402 0.0018447638 0.38211346
v -0.4083389 0.10383254 0.33694744
v -0.4199946 0.0018447638 0.35443103
v -0.38357043 0.10966039 0.35297406
v -0.49575698 0.09363377 0.31946385
v -0.5059557 0.00038778782 0.3267486
v -0.6268841 -0.0010691881 0.16211128
v -0.5686054 0.16502523 0.14025676
v -0.71575916 -0.0010691881 -0.0010691881
v -0.44039214 0.18687975 0.2815827
v -0.3908553 0.17231005 0.30343723
v -0.3631729 0.23495972 0.28886747
v -0.30926502 0.20873427 0.31363595
v -0.28449655 0.22184694 0.310722
v -0.15628338 0.21893305 0.29615235
v -0.28449655 0.24952936 0.2990663
v -0.15628338 0.24224448 0.3048941
v -0.044096828 0.22476089 0.29469538
v -0.044096828 0.24807239 0.30343723
v 0.06808972 0.21893305 0.29615235
v -0.15628338 0.26264203 0.2932384
v -0.34131837 0.40105402 0.13879979
v -0.10091859 0.43602133 0.14025676
v -0.3456893 0.44767702 -0.0010691881
v -0.4724455 0.35880196 0.13297188
v 0.06808972 0.24224448 0.3048941
v 0.19047505 0.1985355 0.30198026
v -0.044096828 0.26846993 0.29178143
v -0.5234394 0.30780804 0.13297188
v -0.50886965 0.43019342 -0.0010691881
v 0.06808972 0.26264203 0.2932384
v 0.19630289 0.22184694 0.310722
v 0.19630289 0.24952936 0.2990663
v 0.22107136 0.20873427 0.31363595
v 0.23418409 0.15191251 0.310722
v 0.1321963 0.42436552 0.14171374
v -0.5977447 0.31509292 -0.0010691881
v -0.54966474 0.38065648 -0.0010691881
v -0.5234394 0.30780804 -0.13656718
v -0.63999677 0.21456212 -0.0010691881
v -0.5686054 0.16502523 -0.14385206
v -0.6268841 -0.0010691881 -0.1642496
v -0.49575698 0.09363377 -0.3230591
v -0.5059557 0.00038778782 -0.33034396
v -0.44039214 0.18687975 -0.28517795
v -0.4724455 0.35880196 -0.13656718
v -0.3631729 0.23495972 -0.2924628
v -0.34131837 0.40105402 -0.14239508
v -0.10091859 0.43602133 -0.14385206
v -0.28449655 0.24952936 -0.30266157
v -0.15628338 0.26264203 -0.2968337
v -0.044096828 0.26846993 -0.29537672
v 0.06808972 0.26264203 -0.2968337
v -0.15774035 0.48118734 -0.0010691881
v -0.044096828 0.48701513 -0.0010691881
v 0.1321963 0.42436552 -0.14385206
v 0.19630289 0.24952936 -0.30266157
v 0.1321963 0.47390246 -0.0010691881
v 0.31723124 0.43019342 -0.0010691881
v 0.30994642 0.3850274 -0.13948113
v 0.2735222 0.23495972 -0.2924628
v 0.39590752 0.36754382 -0.18173319
v 0.36385423 0.16502523 -0.2968337
v 0.30994642 0.3850274 0.13588583
v 0.2735222 0.23495972 0.28886747
v 0.36385423 0.16502523 0.29469538
v 0.39590752 0.36754382 0.17959487
v 0.2589525 0.1606543 0.32092083
v 0.29391974 0.10383254 0.34423232
v 0.26332343 0.114031315 0.34860325
v 0.25312465 0.10528952 0.32966256
v 0.2502107 0.033898056 0.36025894
v 0.27060825 0.03244108 0.37628555
v 0.24729675 0.0018447638 0.38357043
v 0.25312465 0.0018447638 0.35880196
v 0.26915127 0.0018447638 0.3923123
v 0.29974762 0.0018447638 0.37774253
v 0.30411854 0.0018447638 0.35443103
v 0.32597306 0.07323623 0.34131837
v 0.374053 0.09654772 0.3267486
v 0.40027842 0.0018447638 0.35151708
v 0.43961656 0.0018447638 0.34860325
v 0.40902025 0.10237557 0.32383478
v 0.41921902 0.10528952 0.29032445
v 0.55471706 0.17376703 0.24515843
v 0.44107354 0.05720955 0.30198026
v 0.45418626 0.00038778782 0.31509292
v 0.47312683 0.06740832 0.2932384
v 0.6159097 0.00038778782 0.28303957
v 0.4935244 0.00038778782 0.30780804
v 0.77471924 0.00038778782 -0.0010691881
v 0.4935244 0.29032445 0.22330391
v 0.5853134 0.3340335 -0.0010691881
v 0.65816176 0.22039002 -0.0010691881
v 0.55471706 0.17376703 -0.24875373
v 0.6159097 0.00038778782 -0.28663492
v 0.47312683 0.06740832 -0.29537672
v 0.4935244 0.00038778782 -0.31140336
v 0.41921902 0.10528952 -0.2924628
v 0.4935244 0.29032445 -0.22544223
v 0.47749773 0.40396798 -0.0010691881
v 0.40027842 0.0018447638 0.35151708
v 0.37988088 0.0018447638 0.37191463
v 0.33908576 0.045553803 0.36608684
v 0.32597306 0.07323623 0.34131837
v 0.32597306 0.07323623 0.34131837
v 0.33908576 0.045553803 0.36608684
v 0.32743 0.0018447638 0.3733716
v 0.30411854 0.0018447638 0.35443103
v 0.420676 0.029527187 0.43602133
v 0.3929936 0.03972596 0.41270983
v 0.41484812 0.03535503 0.39959705
v 0.38570875 0.03972596 0.4549619
v 0.3696821 0.04263991 0.42436552
v 0.38716573 0.0033017397 0.4724455
v 0.34928453 0.0018447638 0.4374783
v 0.3696821 0.04263991 0.42436552
v 0.38570875 0.03972596 0.4549619
v 0.44398746 0.0018447638 0.45641887
v 0.420676 0.029527187 0.43602133
v 0.41484812 0.03535503 0.39959705
v 0.4337887 0.0018447638 0.3908553
v 0.38716573 0.0033017397 0.4724455
v 0.38570875 0.03972596 0.4549619
v 0.420676 0.029527187 0.43602133
v 0.44398746 0.0018447638 0.45641887
v 0.36239725 0.0018447638 0.40688193
v 0.3827948 0.0018447638 0.38357043
v 0.41484812 0.03535503 0.39959705
v 0.3929936 0.03972596 0.41270983
v 0.3827948 0.0018447638 0.38357043
v 0.41776204 0.0018447638 0.3791995
v 0.4337887 0.0018447638 0.3908553
v 0.41484812 0.03535503 0.39959705
v 0.18173319 0.3048941 0.2539003
v 0.15405083 0.32966256 0.24661541
v 0.17590535 0.33549047 0.23350275
v 0.14822292 0.30052328 0.27866876
v 0.1321963 0.32529175 0.2597282
v 0.14676595 0.2757548 0.2772118
v 0.10888481 0.30052328 0.2539003
v 0.1321963 0.32529175 0.2597282
v 0.14822292 0.30052328 0.27866876
v 0.20358771 0.28303957 0.264099
v 0.18173319 0.3048941 0.2539003
v 0.17590535 0.33549047 0.23350275
v 0.19047505 0.32529175 0.21019119
v 0.121997535 0.3282056 0.22913182
v 0.1584217 0.35151708 0.20582032
v 0.17590535 0.33549047 0.23350275
v 0.15405083 0.32966256 0.24661541
v 0.21670043 0.0018447638 0.2815827
v 0.22835618 0.03244108 0.25098634
v 0.235641 0.03244108 0.27284086
v 0.20358771 0.0018447638 0.2407875
v 0.22252834 0.03244108 0.22913182
v 0.19630289 0.00038778782 0.2407875
v 0.22252834 0.00038778782 0.21019119
v 0.22252834 0.03244108 0.22913182
v 0.20358771 0.0018447638 0.2407875
v 0.19630289 0.00038778782 0.2407875
v 0.20358771 0.0018447638 0.2407875
v 0.21670043 0.0018447638 0.2815827
v 0.20650166 0.00038778782 0.28449655
v 0.24001193 0.00038778782 0.22476089
v 0.25312465 0.00038778782 0.24515843
v 0.235641 0.03244108 0.27284086
v 0.22835618 0.03244108 0.25098634
v 0.25312465 0.00038778782 0.24515843
v 0.25312465 0.00038778782 0.2772118
v 0.24438286 0.00038778782 0.29032445
v 0.235641 0.03244108 0.27284086
v 0.24292588 0.0018447638 0.2932384
v 0.26332343 0.0018447638 0.29615235
v 0.25458163 0.030984163 0.30780804
v 0.24001193 0.028070211 0.30198026
v 0.24438286 0.029527187 0.33111954
v 0.235641 0.026613235 0.30926502
v 0.24001193 0.028070211 0.30198026
v 0.25458163 0.030984163 0.30780804
v 0.2647804 0.0018447638 0.3282056
v 0.24875373 0.00038778782 0.3456893
v 0.24001193 0.00038778782 0.34277534
v 0.24438286 0.029527187 0.33111954
v 0.23127013 0.0018447638 0.3048941
v 0.24292588 0.0018447638 0.2932384
v 0.24001193 0.028070211 0.30198026
v 0.235641 0.026613235 0.30926502
v 0.5678297 0.00038778782 0.35880196
v 0.5678297 0.030984163 0.3267486
v 0.5925982 0.044096828 0.27429783
v 0.61299574 0.00038778782 0.30926502
v 0.5707437 0.06595135 0.26555598
v 0.53140557 0.04701078 0.30926502
v 0.54160434 0.055752575 0.2815827
v 0.5678297 0.030984163 0.3267486
v 0.5925982 0.044096828 0.27429783
v 0.5197498 0.00038778782 0.32383478
v 0.53140557 0.04701078 0.30926502
v 0.5678297 0.030984163 0.3267486
v 0.5678297 0.00038778782 0.35880196
v 0.4935244 0.00038778782 0.30780804
v 0.4789547 0.00038778782 0.33840442
v 0.46875593 0.04992473 0.310722
v 0.47312683 0.06740832 0.2932384
v 0.44107354 0.05720955 0.30198026
v 0.46875593 0.04992473 0.310722
v 0.4789547 0.00038778782 0.33840442
v 0.45418626 0.00038778782 0.31509292
v -0.55549264 0.0018447638 0.3733716
v -0.5278102 0.033898056 0.35734499
v -0.4724455 0.051381707 0.3500601
v -0.48992908 0.0018447638 0.38794136
v -0.4782734 0.07177925 0.3267486
v -0.5336381 0.048467755 0.31509292
v -0.5059557 0.058666527 0.30926502
v -0.5278102 0.033898056 0.35734499
v -0.4724455 0.051381707 0.3500601
v -0.5482079 0.00038778782 0.31509292
v -0.5336381 0.048467755 0.31509292
v -0.5278102 0.033898056 0.35734499
v -0.55549264 0.0018447638 0.3733716
vt 0.7988961 0.59941995
vt 0.83342075 0.60709214
vt 0.8104043 0.5764035
vt 0.16594313 0.9139784
vt 0.18512353 0.95617527
vt 0.20430392 0.9254866
vt 0.20430392 0.9254866
vt 0.18512353 0.95617527
vt 0.22732039 0.93699485
vt 0.3270584 0.89096195
vt 0.3462388 0.9101423
vt 0.38843566 0.89096195
vt 0.3270584 0.96001136
vt 0.37309134 0.9791917
vt 0.3615831 0.94466704
vt 0.4152882 0.9254866
vt 0.4344686 0.9638474
vt 0.44597685 0.9139784
vt 0.3615831 0.94466704
vt 0.37309134 0.9791917
vt 0.38843566 0.93699485
vt 0.19663176 0.77971566
vt 0.21197608 0.7720435
vt 0.20046784 0.7566992
vt 0.28102547 0.82958466
vt 0.2925337 0.79506
vt 0.25800902 0.8027321
vt 0.25800902 0.8027321
vt 0.2925337 0.79506
vt 0.25033686 0.78355175
vt 0.22732039 0.7336827
vt 0.21197608 0.7720435
vt 0.23499255 0.76820743
vt 0.20046784 0.7566992
vt 0.21197608 0.7720435
vt 0.22732039 0.7336827
vt 0.9178145 0.7413549
vt 0.93699485 0.7336827
vt 0.9254866 0.70683014
vt 0.9638474 0.76437134
vt 0.9830278 0.72217447
vt 0.9523392 0.7413549
vt 0.9523392 0.7413549
vt 0.9830278 0.72217447
vt 0.9523392 0.71833843
vt 0.9523392 0.6914859
vt 0.93699485 0.7336827
vt 0.9523392 0.71833843
vt 0.9254866 0.70683014
vt 0.93699485 0.7336827
vt 0.9523392 0.6914859
vt 0.3462388 0.8602733
vt 0.38843566 0.89096195
vt 0.38843566 0.8526012
vt 0.38843566 0.89096195
vt 0.3462388 0.8602733
vt 0.3270584 0.89096195
vt 0.9676835 0.649289
vt 0.9676835 0.5802396
vt 0.94083095 0.65312505
vt 0.9101423 0.5342066
vt 0.8526012 0.5303706
vt 0.8487651 0.5648953
vt 0.94083095 0.65312505
vt 0.9676835 0.5802396
vt 0.94850314 0.60325605
vt 0.83342075 0.72217447
vt 0.844929 0.70683014
vt 0.8257486 0.6953219
vt 0.5802396 0.41145214
vt 0.5764035 0.34240273
vt 0.55338705 0.4191243
vt 0.5150263 0.30020586
vt 0.45748508 0.30020586
vt 0.45748508 0.33473057
vt 0.55338705 0.4191243
vt 0.5764035 0.34240273
vt 0.55722314 0.36925527
vt 0.11223804 0.55338705
vt 0.085385494 0.5380427
vt 0.0125 0.5226984
vt 0.0125 0.67230546
vt 0.15059882 0.66079724
vt 0.1352545 0.5840757
vt 0.15827098 0.7566992
vt 0.0125 0.83725685
vt 0.15059882 0.8487651
vt 0.11223804 0.95617527
vt 0.1352545 0.9254866
vt 0.0125 0.9868639
vt 0.085385494 0.9715196
vt 0.9868639 0.4920098
vt 0.9868639 0.2963698
vt 0.93699485 0.2963698
vt 0.94466704 0.50735414
vt 0.9178145 0.2963698
vt 0.9791917 0.5226984
vt 0.9868639 0.5188623
vt 0.9178145 0.49968195
vt 0.89479804 0.2963698
vt 0.88712585 0.50351804
vt 0.844929 0.2963698
vt 0.83342075 0.49968195
vt 0.77971566 0.49584585
vt 0.78355175 0.2963698
vt 0.72984666 0.49968195
vt 0.72217447 0.2963698
vt 0.6914859 0.2963698
vt 0.6914859 0.50351804
vt 0.66463333 0.49968195
vt 0.66463333 0.2963698
vt 0.6377808 0.50735414
vt 0.6454529 0.2963698
vt 0.5955839 0.2963698
vt 0.5955839 0.4920098
vt 0.60325605 0.5226984
vt 0.5955839 0.5188623
vt 0.44214076 0.03168039
vt 0.48433763 0.28102547
vt 0.46132115 0.0125
vt 0.6416168 0.28102547
vt 0.6339447 0.0125
vt 0.8219125 0.28102547
vt 0.7988961 0.0125
vt 0.9791917 0.28102547
vt 0.9715196 0.0125
vt 0.99069995 0.03168039
vt 0.3999439 0.08154941
vt 0.39610782 0.07004118
vt 0.38843566 0.08922157
vt 0.37309134 0.08154941
vt 0.3845996 0.06236902
vt 0.3462388 0.14676274
vt 0.3615831 0.1544349
vt 0.35774705 0.20814
vt 0.33473057 0.19663176
vt 0.36925527 0.26951724
vt 0.3615831 0.07387725
vt 0.36925527 0.05086078
vt 0.3462388 0.039352547
vt 0.31555018 0.116074115
vt 0.31938624 0.024008235
vt 0.33473057 0.13141842
vt 0.25417292 0.085385494
vt 0.26184508 0.020172156
vt 0.1352545 0.020172156
vt 0.123746276 0.16594313
vt 0.016336078 0.020172156
vt 0.26184508 0.18895961
vt 0.30404195 0.19663176
vt 0.2963698 0.26568115
vt 0.34240273 0.26184508
vt 0.35391095 0.28869763
vt 0.43063253 0.3654192
vt 0.34240273 0.3117141
vt 0.4191243 0.3845996
vt 0.4881737 0.45748508
vt 0.4728294 0.4728294
vt 0.54955095 0.5265345
vt 0.40377998 0.40377998
vt 0.19663176 0.4383047
vt 0.30787802 0.5802396
vt 0.10840196 0.50351804
vt 0.13909058 0.35391095
vt 0.5342066 0.5418788
vt 0.62243646 0.5879117
vt 0.46132115 0.4920098
vt 0.12758236 0.2963698
vt 0.03168039 0.40377998
vt 0.5226984 0.55338705
vt 0.61092824 0.60325605
vt 0.5955839 0.61860037
vt 0.6339447 0.61092824
vt 0.66846937 0.5917478
vt 0.43063253 0.7029941
vt 0.016336078 0.28486156
vt 0.024008235 0.35391095
vt 0.12758236 0.2963698
vt 0.024008235 0.20046784
vt 0.123746276 0.16594313
vt 0.1352545 0.020172156
vt 0.25417292 0.085385494
vt 0.26184508 0.020172156
vt 0.26184508 0.18895961
vt 0.13909058 0.35391095
vt 0.2963698 0.26568115
vt 0.19663176 0.4383047
vt 0.30787802 0.5802396
vt 0.34240273 0.3117141
vt 0.40377998 0.40377998
vt 0.46132115 0.4920098
vt 0.5226984 0.55338705
vt 0.19663176 0.62243646
vt 0.25417292 0.6876498
vt 0.43063253 0.7029941
vt 0.5955839 0.61860037
vt 0.35391095 0.78355175
vt 0.46132115 0.8756176
vt 0.5342066 0.7912239
vt 0.6377808 0.66079724
vt 0.59941995 0.81424034
vt 0.72217447 0.6838137
vt 0.5342066 0.7912239
vt 0.6377808 0.66079724
vt 0.72217447 0.6838137
vt 0.59941995 0.81424034
vt 0.6799776 0.61092824
vt 0.7336827 0.60325605
vt 0.71450233 0.5879117
vt 0.7029941 0.5764035
vt 0.749027 0.5380427
vt 0.76437134 0.54571486
vt 0.76437134 0.5226984
vt 0.745191 0.5226984
vt 0.77587956 0.5303706
vt 0.7873878 0.54955095
vt 0.79506 0.5648953
vt 0.76820743 0.60709214
vt 0.7720435 0.649289
vt 0.8410929 0.6301086
vt 0.8564372 0.65312505
vt 0.78355175 0.67230546
vt 0.7873878 0.699158
vt 0.7912239 0.8257486
vt 0.8257486 0.6953219
vt 0.8641094 0.67614156
vt 0.83342075 0.72217447
vt 0.9254866 0.8065682
vt 0.88328975 0.71833843
vt 0.9715196 0.9715196
vt 0.6953219 0.8257486
vt 0.66846937 0.9753557
vt 0.77971566 0.9753557
vt 0.7912239 0.8257486
vt 0.9254866 0.8065682
vt 0.83342075 0.72217447
vt 0.88328975 0.71833843
vt 0.7873878 0.699158
vt 0.6953219 0.8257486
vt 0.5648953 0.94850314
vt 0.8410929 0.6301086
vt 0.83342075 0.60709214
vt 0.7988961 0.59941995
vt 0.76820743 0.60709214
vt 0.76820743 0.60709214
vt 0.7988961 0.59941995
vt 0.8104043 0.5764035
vt 0.79506 0.5648953
vt 0.25800902 0.9024702
vt 0.22732039 0.93699485
vt 0.25033686 0.94466704
vt 0.21197608 0.88712585
vt 0.20430392 0.9254866
vt 0.20814 0.8602733
vt 0.16594313 0.9139784
vt 0.20430392 0.9254866
vt 0.21197608 0.88712585
vt 0.28102547 0.8756176
vt 0.25800902 0.9024702
vt 0.25033686 0.94466704
vt 0.28102547 0.96001136
vt 0.20814 0.8602733
vt 0.21197608 0.88712585
vt 0.25800902 0.9024702
vt 0.28102547 0.8756176
vt 0.18512353 0.95617527
vt 0.21964823 0.9791917
vt 0.25033686 0.94466704
vt 0.22732039 0.93699485
vt 0.21964823 0.9791917
vt 0.26184508 0.9753557
vt 0.28102547 0.96001136
vt 0.25033686 0.94466704
vt 0.38843566 0.89096195
vt 0.38843566 0.93699485
vt 0.4152882 0.9254866
vt 0.3462388 0.9101423
vt 0.3615831 0.94466704
vt 0.3270584 0.89096195
vt 0.3270584 0.96001136
vt 0.3615831 0.94466704
vt 0.3462388 0.9101423
vt 0.38843566 0.8526012
vt 0.38843566 0.89096195
vt 0.4152882 0.9254866
vt 0.44597685 0.9139784
vt 0.37309134 0.9791917
vt 0.4344686 0.9638474
vt 0.4152882 0.9254866
vt 0.38843566 0.93699485
vt 0.21197608 0.7720435
vt 0.25033686 0.78355175
vt 0.23499255 0.76820743
vt 0.23499255 0.81424034
vt 0.25800902 0.8027321
vt 0.22732039 0.82958466
vt 0.28102547 0.82958466
vt 0.25800902 0.8027321
vt 0.23499255 0.81424034
vt 0.22732039 0.82958466
vt 0.23499255 0.81424034
vt 0.21197608 0.7720435
vt 0.19663176 0.77971566
vt 0.2925337 0.79506
vt 0.28102547 0.76053524
vt 0.23499255 0.76820743
vt 0.25033686 0.78355175
vt 0.28102547 0.76053524
vt 0.24650079 0.7375188
vt 0.22732039 0.7336827
vt 0.23499255 0.76820743
vt 0.9293227 0.76053524
vt 0.9638474 0.76437134
vt 0.9523392 0.7413549
vt 0.93699485 0.7413549
vt 0.9523392 0.71833843
vt 0.93699485 0.7336827
vt 0.93699485 0.7413549
vt 0.9523392 0.7413549
vt 0.9830278 0.72217447
vt 0.9676835 0.6953219
vt 0.9523392 0.6914859
vt 0.9523392 0.71833843
vt 0.9178145 0.7413549
vt 0.9293227 0.76053524
vt 0.93699485 0.7413549
vt 0.93699485 0.7336827
vt 0.8717815 0.6377808
vt 0.8986341 0.60325605
vt 0.9101423 0.5342066
vt 0.8487651 0.5648953
vt 0.9523392 0.5342066
vt 0.94850314 0.60325605
vt 0.9676835 0.5802396
vt 0.8986341 0.60325605
vt 0.9101423 0.5342066
vt 0.94083095 0.65312505
vt 0.94850314 0.60325605
vt 0.8986341 0.60325605
vt 0.8717815 0.6377808
vt 0.88328975 0.71833843
vt 0.88328975 0.6914859
vt 0.844929 0.70683014
vt 0.83342075 0.72217447
vt 0.8257486 0.6953219
vt 0.844929 0.70683014
vt 0.88328975 0.6914859
vt 0.8641094 0.67614156
vt 0.4881737 0.40761605
vt 0.5111902 0.36925527
vt 0.5150263 0.30020586
vt 0.45748508 0.33473057
vt 0.55722314 0.30020586
vt 0.55722314 0.36925527
vt 0.5764035 0.34240273
vt 0.5111902 0.36925527
vt 0.5150263 0.30020586
vt 0.55338705 0.4191243
vt 0.55722314 0.36925527
vt 0.5111902 0.36925527
vt 0.4881737 0.40761605
vn 0.011767149 0.14631069 0.9891687
vn 0.011767149 0.14631069 0.9891687
vn 0.011767149 0.14631069 0.9891687
vn -0.87346876 0.30438852 -0.37999994
vn -0.87346876 0.30438852 -0.37999994
vn -0.87346876 0.30438852 -0.37999994
vn -0.39923525 0.43085086 -0.8093076
vn -0.39923525 0.43085086 -0.8093076
vn -0.39923525 0.43085086 -0.8093076
vn 0.5808474 -0.07499826 0.8105502
vn 0.5808474 -0.07499826 0.8105502
vn 0.5808474 -0.07499826 0.8105502
vn -0.74700654 0.5889287 0.3084546
vn -0.74700654 0.5889287 0.3084546
vn -0.74700654 0.5889287 0.3084546
vn 0.61246294 0.77862203 0.13651697
vn 0.61246294 0.77862203 0.13651697
vn 0.61246294 0.77862203 0.13651697
vn -0.11469519 0.9683155 0.22183357
vn -0.11469519 0.9683155 0.22183357
vn -0.11469519 0.9683155 0.22183357
vn -0.11469519 0.9683155 0.22183357
vn -0.11469519 0.9683155 0.22183357
vn -0.11469519 0.9683155 0.22183357
vn 0.5808474 0.43085086 -0.69064015
vn 0.5808474 0.43085086 -0.69064015
vn 0.5808474 0.43085086 -0.69064015
vn 0.83377194 0.5256976 -0.1687199
vn 0.83377194 0.5256976 -0.1687199
vn 0.83377194 0.5256976 -0.1687199
vn -0.27277303 0.43085086 0.86021066
vn -0.27277303 0.43085086 0.86021066
vn -0.27277303 0.43085086 0.86021066
vn 0.011767144 0.99993074 -0
vn 0.011767144 0.99993074 -0
vn 0.011767144 0.99993074 -0
vn -0.9683155 0.1779263 -0.17523511
vn -0.9683155 0.1779263 -0.17523511
vn -0.9683155 0.1779263 -0.17523511
vn 0.9532524 0.3021753 -0
vn 0.9532524 0.3021753 -0
vn 0.9532524 0.3021753 -0
vn 0.77054083 0.5256976 0.36042872
vn 0.77054083 0.5256976 0.36042872
vn 0.77054083 0.5256976 0.36042872
vn -0.87346876 0.33600414 0.3523543
vn -0.87346876 0.33600414 0.3523543
vn -0.87346876 0.33600414 0.3523543
vn -0.6205442 0.5889287 0.517772
vn -0.6205442 0.5889287 0.517772
vn -0.6205442 0.5889287 0.517772
vn 0.2646917 0.5889287 0.76361066
vn 0.2646917 0.5889287 0.76361066
vn 0.2646917 0.5889287 0.76361066
vn -0.019848466 0.6205442 0.7839202
vn -0.019848466 0.6205442 0.7839202
vn -0.019848466 0.6205442 0.7839202
vn -0.9029154 0.42981836 -0
vn -0.9029154 0.42981836 -0
vn -0.9029154 0.42981836 -0
vn 0.89700305 0.43085086 -0.09875752
vn 0.89700305 0.43085086 -0.09875752
vn 0.89700305 0.43085086 -0.09875752
vn -0.9367 0.14631069 -0.318098
vn -0.9367 0.14631069 -0.318098
vn -0.9367 0.14631069 -0.318098
vn -0.019848466 0.7153909 0.6984424
vn -0.019848466 0.7153909 0.6984424
vn -0.019848466 0.7153909 0.6984424
vn -0.5889287 0.36761963 -0.7197352
vn -0.5889287 0.36761963 -0.7197352
vn -0.5889287 0.36761963 -0.7197352
vn 0.4543851 0.43085086 0.7796805
vn 0.4543851 0.43085086 0.7796805
vn 0.4543851 0.43085086 0.7796805
vn -0.24115741 0.08307958 -0.9669234
vn -0.24115741 0.08307958 -0.9669234
vn -0.24115741 0.08307958 -0.9669234
vn 0.011767149 0.08307958 0.99647343
vn -0.019848466 0.08307958 0.9963452
vn 0.011767149 0.08307958 0.99647343
vn 0.011767149 0.08307958 0.99647343
vn 0.011767149 0.08307958 0.99647343
vn 0.011767149 0.08307958 0.99647343
vn 0.011767149 0.08307958 0.99647343
vn 0.011767149 0.08307958 0.99647343
vn 0.011767149 0.08307958 0.99647343
vn 0.011767149 0.08307958 0.99647343
vn 0.011767149 0.08307958 0.99647343
vn 0.011767149 0.08307958 0.99647343
vn 0.011767149 0.08307958 0.99647343
vn -0.9367 -0.20146054 -0.2863683
vn -0.9683155 -0.16984499 0.18307866
vn -0.9050844 -0.35953838 0.22705597
vn -0.9367 -0.106613874 0.33350658
vn -0.74700654 -0.6440785 0.16475485
vn -0.99348587 0.11395591 -0
vn -0.81023765 -0.07499826 -0.5812833
vn -0.74700654 -0.2330761 0.6226209
vn -0.43085086 -0.8653875 0.255875
vn -0.39923525 -0.5808474 0.70938534
vn -0.11469519 -0.9602342 0.25454912
vn -0.11469519 -0.77054083 0.6269863
vn 0.011767149 -0.77054083 0.637282
vn 0.011767149 -0.9918498 0.12686835
vn 0.106613874 -0.7389252 0.6652992
vn 0.13822943 -0.9602342 0.24257542
vn 0.42276955 -0.8653875 0.2690175
vn 0.391154 -0.5808474 0.71387315
vn 0.70730966 -0.2330761 0.6673744
vn 0.7389252 -0.6440785 0.19786969
vn 0.89700305 -0.043382704 0.43989027
vn 0.92861867 -0.35953838 0.09164888
vn 0.9602342 -0.16984499 0.22159179
vn 0.92861867 -0.20146054 -0.31157824
vn 0.9918498 0.11469519 -0.055489216
vn 0.83377194 -0.07499826 -0.5469914
vn -0.019845925 0.99980307 -0
vn 0.011767144 0.99993074 -0
vn 0.011767144 0.99993074 -0
vn 0.011767144 0.99993074 -0
vn 0.011767144 0.99993074 -0
vn 0.011767144 0.99993074 -0
vn 0.011767144 0.99993074 -0
vn 0.011767144 0.99993074 -0
vn 0.011767144 0.99993074 -0
vn 0.011767144 0.99993074 -0
vn 0.83377194 -0.07499826 -0.5469914
vn 0.8653875 0.24115741 0.43925798
vn 0.9918498 0.11469519 -0.055489216
vn 0.48600066 0.39923525 0.777441
vn 0.32792282 0.36761963 0.8702427
vn 0.42276955 0.36761963 0.8283247
vn 0.89700305 -0.043382704 0.43989027
vn 0.70730966 -0.2330761 0.6673744
vn -0.019848466 0.36761963 0.9297644
vn 0.391154 -0.5808474 0.71387315
vn -0.24115741 0.39923525 0.88456446
vn -0.39923525 0.39923525 0.825362
vn -0.74700654 0.27277303 0.60628057
vn -0.39923525 0.39923525 0.825362
vn -0.5889287 0.1779263 0.788356
vn -0.27277303 0.5256976 0.8057524
vn -0.5573131 0.33600414 0.7592782
vn -0.5889287 0.11469519 0.80000496
vn -0.81023765 0.30438852 0.5008619
vn -0.77862203 0.33600414 0.5299519
vn -0.9308765 0.36533412 -0
vn -0.46246636 0.49408197 0.7362119
vn -0.27277303 0.39923525 0.875332
vn -0.27277303 0.5256976 0.8057524
vn 0.043382704 0.14631069 0.988287
vn 0.043382704 0.08307958 0.99559814
vn 0.106613874 -0.7389252 0.6652992
vn -0.11469519 0.5573131 0.82234246
vn 0.011767149 0.05146396 0.99860555
vn 0.011767149 -0.77054083 0.637282
vn 0.011767149 0.08307958 0.99647343
vn -0.11469519 -0.77054083 0.6269863
vn -0.019848466 0.5889287 0.8079412
vn -0.2095418 0.84185326 0.4973684
vn -0.05146396 0.84185326 0.5372472
vn -0.1779263 0.9683155 -0.17523515
vn -0.39923525 0.7153909 0.5734344
vn -0.019848466 0.08307958 0.9963452
vn -0.39923525 -0.5808474 0.70938534
vn 0.011767149 0.5889287 0.8080993
vn -0.6837754 0.43085086 0.58891314
vn -0.46246636 0.87346876 -0.15224062
vn 0.011767149 0.5889287 0.8080993
vn -0.05146396 0.08307958 0.99521315
vn 0.106613874 0.5573131 0.82342917
vn -0.019848466 0.14631069 0.98903954
vn -0.74700654 -0.2330761 0.6226209
vn 0.106613874 0.84185326 0.5290714
vn -0.87346876 0.46246636 -0.15224057
vn -0.77862203 0.6205442 -0.09312709
vn -0.6837754 0.43085086 -0.58891314
vn -0.9308765 0.36533412 -0
vn -0.77862203 0.33600414 -0.5299519
vn -0.81023765 0.30438852 -0.5008619
vn -0.77862203 0.36761963 -0.5085308
vn -0.81023765 0.14631069 -0.5675457
vn -0.5889287 0.5256976 -0.61384445
vn -0.39923525 0.7153909 -0.5734344
vn -0.30438852 0.6205442 -0.72268426
vn -0.2095418 0.84185326 -0.4973684
vn -0.05146396 0.84185326 -0.5372472
vn -0.11469519 0.6837754 -0.72062206
vn -0.05146396 0.6837754 -0.7278755
vn 0.011767149 0.6837754 -0.7295977
vn 0.043382704 0.6837754 -0.7284017
vn -0.11395591 0.99348587 -0
vn 0.011767144 0.99993074 -0
vn 0.106613874 0.84185326 -0.5290714
vn 0.13822943 0.6837754 -0.71648014
vn 0.13693672 0.99057984 -0
vn 0.16984499 0.9683155 -0.18307862
vn 0.07499826 0.87346876 -0.48106924
vn 0.20146054 0.5889287 -0.7826727
vn 0.13822943 0.81023765 -0.56956786
vn 0.20146054 0.33600414 -0.9200624
vn 0.07499826 0.87346876 0.48106924
vn 0.20146054 0.5256976 0.82647187
vn 0.2330761 0.39923525 0.8867281
vn 0.13822943 0.81023765 0.56956786
vn -0.08307958 0.30438852 0.94891804
vn 0.2646917 0.36761963 0.8915123
vn -0.30438852 0.36761963 0.8787511
vn -0.9367 -0.106613874 0.33350658
vn -0.99348587 0.11395591 -0
vn -0.11469519 0.39923525 0.9096462
vn -0.77862203 0.36761963 0.5085308
vn -0.81023765 -0.07499826 -0.5812833
vn 0.011767149 0.46246636 0.8865588
vn 0.70730966 0.30438852 0.63801306
vn 0.92861867 0.11469519 0.3528631
vn 0.20146054 0.14631069 0.9685075
vn 0.106613874 0.33600414 0.935807
vn 0.07499826 0.27277303 0.95915073
vn 0.5492318 0.33600414 0.76514417
vn 0.5176163 0.46246636 0.7198599
vn 0.5176163 0.39923525 0.7567593
vn 0.5492318 0.39923525 0.734136
vn 0.5492318 0.39923525 0.734136
vn 0.8653875 0.30438852 0.3980604
vn 0.16984499 0.30438852 0.93728346
vn 0.5808474 0.36761963 0.72627276
vn 0.20146054 0.27277303 0.94074893
vn 0.8888237 0.45824933 -0
vn 0.42276955 0.5889287 0.688788
vn 0.70730966 0.6837754 -0.17934394
vn 0.8653875 0.49408197 -0.08359116
vn 0.5492318 0.39923525 -0.734136
vn 0.5808474 0.36761963 -0.72627276
vn 0.16984499 0.27277303 -0.94696754
vn 0.20146054 0.27277303 -0.94074893
vn 0.20146054 0.2095418 -0.9568207
vn 0.42276955 0.5889287 -0.688788
vn 0.391154 0.9050844 -0.16679576
vn 0.5808474 0.6521598 0.48713845
vn 0.5808474 0.6521598 0.48713845
vn 0.5808474 0.6521598 0.48713845
vn 0.5808474 0.6521598 0.48713845
vn -0.6205442 0.30438852 0.72268426
vn -0.6205442 0.30438852 0.72268426
vn -0.6205442 0.30438852 0.72268426
vn -0.6205442 0.30438852 0.72268426
vn 0.26367894 0.9646105 -0
vn 0.2330761 0.9683155 0.089669764
vn 0.2330761 0.9683155 0.089669764
vn 0.2330761 0.9683155 0.089669764
vn 0.16745818 0.9858792 -0
vn -0.6837754 0.39923525 0.61078835
vn -0.6837754 0.39923525 0.61078835
vn -0.6837754 0.39923525 0.61078835
vn -0.6837754 0.39923525 0.61078835
vn 0.8313754 0.5557112 -0
vn 0.8313754 0.5557112 -0
vn 0.8313754 0.5557112 -0
vn 0.8313754 0.5557112 -0
vn 0.35953838 0.5573131 0.7484212
vn 0.35953838 0.5573131 0.7484212
vn 0.35953838 0.5573131 0.7484212
vn 0.35953838 0.5573131 0.7484212
vn -0.49408197 0.5889287 -0.639567
vn -0.49408197 0.5889287 -0.639567
vn -0.49408197 0.5889287 -0.639567
vn -0.49408197 0.5889287 -0.639567
vn 0.106613874 0.5256976 -0.84396416
vn 0.106613874 0.5256976 -0.84396416
vn 0.106613874 0.5256976 -0.84396416
vn 0.106613874 0.5256976 -0.84396416
vn 0.391154 0.6205442 0.67964953
vn 0.32792282 0.6205442 0.7123142
vn 0.32792282 0.5889287 0.7386675
vn 0.35953838 0.6521598 0.66739774
vn 0.2646917 0.6837754 0.67999226
vn -0.5256976 0.11469519 0.842904
vn -0.5256976 0.11469519 0.842904
vn -0.5256976 0.11469519 0.842904
vn -0.5256976 0.11469519 0.842904
vn 0.6756941 0.6205442 0.39794773
vn 0.6756941 0.6205442 0.39794773
vn 0.6756941 0.6205442 0.39794773
vn 0.6756941 0.6205442 0.39794773
vn -0.14631069 0.87346876 0.46437645
vn -0.14631069 0.87346876 0.46437645
vn -0.14631069 0.87346876 0.46437645
vn -0.14631069 0.87346876 0.46437645
vn -0.77862203 0.5889287 0.21658885
vn -0.77862203 0.5889287 0.21658885
vn -0.77862203 0.5573131 0.2883572
vn -0.77862203 0.5889287 0.21658885
vn -0.77862203 0.5889287 0.21658885
vn -0.74700654 0.43085086 -0.506309
vn -0.74700654 0.43085086 -0.506309
vn -0.74700654 0.43085086 -0.506309
vn -0.74700654 0.43085086 -0.506309
vn -0.2095418 0.9683155 0.13585784
vn -0.2095418 0.9683155 0.13585784
vn -0.2095418 0.9683155 0.13585784
vn -0.2095418 0.9683155 0.13585784
vn 0.70730966 0.6205442 -0.3385823
vn 0.70730966 0.6205442 -0.3385823
vn 0.70730966 0.6205442 -0.3385823
vn 0.70730966 0.6205442 -0.3385823
vn 0.83377194 0.5256976 0.1687199
vn 0.83377194 0.5256976 0.1687199
vn 0.83377194 0.5256976 0.1687199
vn 0.83377194 0.5256976 0.1687199
vn 0.16984499 0.36761963 -0.914335
vn 0.16984499 0.36761963 -0.914335
vn 0.16984499 0.36761963 -0.914335
vn 0.16984499 0.36761963 -0.914335
vn -0.24115741 0.9683155 0.06487069
vn -0.29988113 0.95397663 -0
vn -0.24115741 0.9683155 0.06487069
vn -0.2095418 0.9683155 0.13585784
vn 0.4543851 0.49408197 0.7412268
vn 0.4543851 0.49408197 0.7412268
vn 0.4543851 0.49408197 0.7412268
vn 0.4543851 0.49408197 0.7412268
vn -0.74700654 0.1779263 -0.640565
vn -0.74700654 0.1779263 -0.640565
vn -0.74700654 0.1779263 -0.640565
vn -0.74700654 0.1779263 -0.640565
vn 0.61246294 0.6205442 0.48970813
vn 0.61246294 0.6205442 0.48970813
vn 0.61246294 0.6205442 0.48970813
vn 0.61246294 0.6205442 0.48970813
vn 0.32792282 0.84185326 0.42866033
vn 0.07499826 0.87346876 0.48106924
vn -0.2095418 0.9367 0.28050917
vn 0.29630727 0.81023765 0.5056847
vn 0.5808474 0.6837754 0.44166446
vn -0.36761963 0.5256976 0.76713616
vn -0.36761963 0.5256976 0.76713616
vn -0.36761963 0.5256976 0.76713616
vn -0.36761963 0.5256976 0.76713616
vn 0.8021563 0.36761963 0.4705327
vn 0.8021563 0.36761963 0.4705327
vn 0.8021563 0.36761963 0.4705327
vn 0.8021563 0.36761963 0.4705327
vn -0.49408197 0.2095418 0.84378624
vn -0.49408197 0.2095418 0.84378624
vn -0.49408197 0.2095418 0.84378624
vn -0.49408197 0.2095418 0.84378624
vn -0.14631069 0.5889287 0.7948309
vn -0.14631069 0.5889287 0.7948309
vn -0.14631069 0.5889287 0.7948309
vn -0.14631069 0.5889287 0.7948309
vn -0.30438852 0.84185326 0.44568002
vn -0.43085086 0.87346876 0.22675946
vn -0.36533412 0.9308765 -0
vn -0.33600414 0.81023765 0.48022518
vn -0.14631069 0.7153909 0.6832342
vn -0.87346876 0.46246636 0.15224057
vn -0.87346876 0.46246636 0.15224057
vn -0.87346876 0.46246636 0.15224057
vn -0.87346876 0.46246636 0.15224057
g q_0
f 3/3/3 2/2/2 1/1/1
f 6/6/6 5/5/5 4/4/4
f 9/9/9 8/8/8 7/7/7
f 12/12/12 11/11/11 10/10/10
f 15/15/15 14/14/14 13/13/13
f 18/18/18 17/17/17 16/16/16
f 21/21/21 20/20/20 19/19/19
f 24/24/24 23/23/23 22/22/22
f 27/27/27 26/26/26 25/25/25
f 30/30/30 29/29/29 28/28/28
f 33/33/33 32/32/32 31/31/31
f 36/36/36 35/35/35 34/34/34
f 39/39/39 38/38/38 37/37/37
f 42/42/42 41/41/41 40/40/40
f 45/45/45 44/44/44 43/43/43
f 48/48/48 47/47/47 46/46/46
f 51/51/51 50/50/50 49/49/49
f 54/54/54 53/53/53 52/52/52
f 57/57/57 56/56/56 55/55/55
f 60/60/60 59/59/59 58/58/58
f 63/63/63 62/62/62 61/61/61
f 66/66/66 65/65/65 64/64/64
f 69/69/69 68/68/68 67/67/67
f 72/72/72 71/71/71 70/70/70
f 75/75/75 74/74/74 73/73/73
f 78/78/78 77/77/77 76/76/76
f 81/81/81 80/80/80 79/79/79
f 82/82/82 81/81/81 79/79/79
f 83/83/83 82/82/82 79/79/79
f 84/84/84 83/83/83 79/79/79
f 85/85/85 82/82/82 83/83/83
f 86/86/86 82/82/82 85/85/85
f 87/87/87 86/86/86 85/85/85
f 88/88/88 86/86/86 87/87/87
f 89/89/89 88/88/88 87/87/87
f 90/90/90 86/86/86 88/88/88
f 91/91/91 90/90/90 88/88/88
f 94/94/94 93/93/93 92/92/92
f 95/95/95 94/94/94 92/92/92
f 96/96/96 94/94/94 95/95/95
f 92/92/92 97/97/97 95/95/95
f 98/98/98 97/97/97 92/92/92
f 99/99/99 96/96/96 95/95/95
f 100/100/100 96/96/96 99/99/99
f 101/101/101 100/100/100 99/99/99
f 102/102/102 100/100/100 101/101/101
f 103/103/103 102/102/102 101/101/101
f 102/102/102 103/103/103 104/104/104
f 105/105/105 102/102/102 104/104/104
f 105/105/105 104/104/104 106/106/106
f 107/107/107 105/105/105 106/106/106
f 108/108/108 107/107/107 106/106/106
f 109/109/109 108/108/108 106/106/106
f 108/108/108 109/109/109 110/110/110
f 111/111/111 108/108/108 110/110/110
f 111/111/111 110/110/110 112/112/112
f 113/113/113 111/111/111 112/112/112
f 114/114/114 113/113/113 112/112/112
f 115/115/115 114/114/114 112/112/112
f 112/112/112 116/116/116 115/115/115
f 115/115/115 116/116/116 117/117/117
f 120/120/120 119/119/119 118/118/118
f 121/121/121 119/119/119 120/120/120
f 122/122/122 121/121/121 120/120/120
f 123/123/123 121/121/121 122/122/122
f 124/124/124 123/123/123 122/122/122
f 125/125/125 123/123/123 124/124/124
f 126/126/126 125/125/125 124/124/124
f 127/127/127 125/125/125 126/126/126
f 130/130/130 129/129/129 128/128/128
f 130/130/130 131/131/131 129/129/129
f 131/131/131 132/132/132 129/129/129
f 131/131/131 130/130/130 133/133/133
f 130/130/130 134/134/134 133/133/133
f 133/133/133 134/134/134 135/135/135
f 136/136/136 133/133/133 135/135/135
f 136/136/136 135/135/135 137/137/137
f 131/131/131 138/138/138 132/132/132
f 139/139/139 132/132/132 138/138/138
f 140/140/140 139/139/139 138/138/138
f 140/140/140 138/138/138 141/141/141
f 142/142/142 140/140/140 141/141/141
f 133/133/133 143/143/143 131/131/131
f 143/143/143 138/138/138 131/131/131
f 143/143/143 133/133/133 136/136/136
f 138/138/138 143/143/143 141/141/141
f 141/141/141 143/143/143 136/136/136
f 141/141/141 144/144/144 142/142/142
f 144/144/144 145/145/145 142/142/142
f 145/145/145 144/144/144 146/146/146
f 144/144/144 147/147/147 146/146/146
f 146/146/146 147/147/147 148/148/148
f 149/149/149 144/144/144 141/141/141
f 147/147/147 144/144/144 149/149/149
f 150/150/150 141/141/141 136/136/136
f 150/150/150 149/149/149 141/141/141
f 151/151/151 150/150/150 136/136/136
f 149/149/149 150/150/150 151/151/151
f 152/152/152 151/151/151 136/136/136
f 152/152/152 136/136/136 137/137/137
f 153/153/153 152/152/152 137/137/137
f 153/153/153 137/137/137 154/154/154
f 153/153/153 155/155/155 152/152/152
f 155/155/155 151/151/151 152/152/152
f 156/156/156 153/153/153 154/154/154
f 155/155/155 153/153/153 156/156/156
f 156/156/156 154/154/154 157/157/157
f 158/158/158 156/156/156 157/157/157
f 158/158/158 157/157/157 159/159/159
f 160/160/160 155/155/155 156/156/156
f 156/156/156 158/158/158 160/160/160
f 155/155/155 161/161/161 151/151/151
f 161/161/161 155/155/155 160/160/160
f 162/162/162 161/161/161 160/160/160
f 161/161/161 162/162/162 163/163/163
f 151/151/151 161/161/161 164/164/164
f 164/164/164 161/161/161 163/163/163
f 149/149/149 151/151/151 164/164/164
f 165/165/165 158/158/158 159/159/159
f 165/165/165 159/159/159 166/166/166
f 158/158/158 167/167/167 160/160/160
f 160/160/160 167/167/167 162/162/162
f 158/158/158 165/165/165 167/167/167
f 149/149/149 164/164/164 168/168/168
f 168/168/168 147/147/147 149/149/149
f 169/169/169 164/164/164 163/163/163
f 168/168/168 164/164/164 169/169/169
f 167/167/167 170/170/170 162/162/162
f 165/165/165 170/170/170 167/167/167
f 171/171/171 165/165/165 166/166/166
f 172/172/172 170/170/170 165/165/165
f 171/171/171 172/172/172 165/165/165
f 171/171/171 166/166/166 173/173/173
f 172/172/172 171/171/171 173/173/173
f 173/173/173 166/166/166 174/174/174
f 170/170/170 175/175/175 162/162/162
f 170/170/170 172/172/172 175/175/175
f 147/147/147 168/168/168 176/176/176
f 177/177/177 168/168/168 169/169/169
f 168/168/168 177/177/177 176/176/176
f 178/178/178 177/177/177 169/169/169
f 177/177/177 178/178/178 176/176/176
f 179/179/179 147/147/147 176/176/176
f 147/147/147 179/179/179 148/148/148
f 180/180/180 179/179/179 176/176/176
f 179/179/179 180/180/180 148/148/148
f 178/178/178 180/180/180 176/176/176
f 180/180/180 181/181/181 148/148/148
f 180/180/180 182/182/182 181/181/181
f 182/182/182 183/183/183 181/181/181
f 182/182/182 180/180/180 184/184/184
f 180/180/180 178/178/178 184/184/184
f 185/185/185 178/178/178 169/169/169
f 185/185/185 184/184/184 178/178/178
f 186/186/186 184/184/184 185/185/185
f 185/185/185 169/169/169 163/163/163
f 187/187/187 186/186/186 185/185/185
f 187/187/187 185/185/185 163/163/163
f 188/188/188 187/187/187 163/163/163
f 187/187/187 189/189/189 186/186/186
f 189/189/189 187/187/187 190/190/190
f 187/187/187 188/188/188 190/190/190
f 191/191/191 190/190/190 188/188/188
f 192/192/192 191/191/191 188/188/188
f 193/193/193 188/188/188 163/163/163
f 162/162/162 193/193/193 163/163/163
f 193/193/193 162/162/162 194/194/194
f 188/188/188 193/193/193 194/194/194
f 162/162/162 175/175/175 194/194/194
f 195/195/195 192/192/192 188/188/188
f 195/195/195 188/188/188 194/194/194
f 196/196/196 192/192/192 195/195/195
f 175/175/175 197/197/197 194/194/194
f 197/197/197 195/195/195 194/194/194
f 197/197/197 175/175/175 198/198/198
f 195/195/195 197/197/197 198/198/198
f 196/196/196 195/195/195 199/199/199
f 199/199/199 195/195/195 198/198/198
f 200/200/200 196/196/196 199/199/199
f 200/200/200 199/199/199 201/201/201
f 201/201/201 199/199/199 198/198/198
f 200/200/200 201/201/201 202/202/202
f 175/175/175 203/203/203 198/198/198
f 175/175/175 172/172/172 203/203/203
f 172/172/172 204/204/204 203/203/203
f 204/204/204 172/172/172 173/173/173
f 204/204/204 173/173/173 205/205/205
f 206/206/206 204/204/204 205/205/205
f 203/203/203 204/204/204 206/206/206
f 203/203/203 206/206/206 198/198/198
f 173/173/173 207/207/207 205/205/205
f 207/207/207 208/208/208 205/205/205
f 207/207/207 173/173/173 174/174/174
f 207/207/207 174/174/174 209/209/209
f 208/208/208 207/207/207 209/209/209
f 209/209/209 174/174/174 210/210/210
f 209/209/209 210/210/210 211/211/211
f 212/212/212 209/209/209 211/211/211
f 208/208/208 209/209/209 212/212/212
f 212/212/212 211/211/211 213/213/213
f 213/213/213 211/211/211 214/214/214
f 215/215/215 212/212/212 213/213/213
f 212/212/212 215/215/215 216/216/216
f 216/216/216 208/208/208 212/212/212
f 208/208/208 216/216/216 217/217/217
f 217/217/217 218/218/218 208/208/208
f 208/208/208 218/218/218 219/219/219
f 208/208/208 219/219/219 205/205/205
f 219/219/219 218/218/218 220/220/220
f 219/219/219 220/220/220 221/221/221
f 219/219/219 222/222/222 205/205/205
f 222/222/222 219/219/219 221/221/221
f 223/223/223 222/222/222 221/221/221
f 205/205/205 222/222/222 223/223/223
f 223/223/223 224/224/224 205/205/205
f 225/225/225 223/223/223 221/221/221
f 226/226/226 225/225/225 221/221/221
f 223/223/223 225/225/225 227/227/227
f 224/224/224 223/223/223 227/227/227
f 228/228/228 224/224/224 227/227/227
f 229/229/229 228/228/228 227/227/227
f 224/224/224 228/228/228 230/230/230
f 224/224/224 231/231/231 205/205/205
f 231/231/231 224/224/224 232/232/232
f 205/205/205 231/231/231 206/206/206
f 206/206/206 231/231/231 232/232/232
f 233/233/233 224/224/224 230/230/230
f 224/224/224 233/233/233 232/232/232
f 234/234/234 233/233/233 230/230/230
f 233/233/233 234/234/234 232/232/232
f 235/235/235 234/234/234 230/230/230
f 234/234/234 235/235/235 236/236/236
f 235/235/235 237/237/237 236/236/236
f 238/238/238 234/234/234 236/236/236
f 234/234/234 238/238/238 202/202/202
f 239/239/239 234/234/234 202/202/202
f 234/234/234 239/239/239 232/232/232
f 239/239/239 202/202/202 201/201/201
f 239/239/239 201/201/201 232/232/232
f 240/240/240 206/206/206 232/232/232
f 201/201/201 240/240/240 232/232/232
f 206/206/206 240/240/240 198/198/198
f 240/240/240 201/201/201 198/198/198
f 243/243/243 242/242/242 241/241/241
f 244/244/244 243/243/243 241/241/241
f 247/247/247 246/246/246 245/245/245
f 248/248/248 247/247/247 245/245/245
f 251/251/251 250/250/250 249/249/249
f 250/250/250 252/252/252 249/249/249
f 253/253/253 252/252/252 250/250/250
f 256/256/256 255/255/255 254/254/254
f 257/257/257 256/256/256 254/254/254
f 260/260/260 259/259/259 258/258/258
f 261/261/261 260/260/260 258/258/258
f 264/264/264 263/263/263 262/262/262
f 265/265/265 264/264/264 262/262/262
f 268/268/268 267/267/267 266/266/266
f 269/269/269 268/268/268 266/266/266
f 272/272/272 271/271/271 270/270/270
f 273/273/273 272/272/272 270/270/270
f 276/276/276 275/275/275 274/274/274
f 275/275/275 277/277/277 274/274/274
f 278/278/278 277/277/277 275/275/275
f 281/281/281 280/280/280 279/279/279
f 282/282/282 281/281/281 279/279/279
f 285/285/285 284/284/284 283/283/283
f 286/286/286 285/285/285 283/283/283
f 289/289/289 288/288/288 287/287/287
f 290/290/290 289/289/289 287/287/287
f 293/293/293 292/292/292 291/291/291
f 292/292/292 294/294/294 291/291/291
f 295/295/295 294/294/294 292/292/292
f 298/298/298 297/297/297 296/296/296
f 299/299/299 298/298/298 296/296/296
f 302/302/302 301/301/301 300/300/300
f 303/303/303 302/302/302 300/300/300
f 306/306/306 305/305/305 304/304/304
f 307/307/307 306/306/306 304/304/304
f 310/310/310 309/309/309 308/308/308
f 311/311/311 310/310/310 308/308/308
f 314/314/314 313/313/313 312/312/312
f 315/315/315 314/314/314 312/312/312
f 318/318/318 317/317/317 316/316/316
f 319/319/319 318/318/318 316/316/316
f 322/322/322 321/321/321 320/320/320
f 323/323/323 322/322/322 320/320/320
f 326/326/326 325/325/325 324/324/324
f 327/327/327 326/326/326 324/324/324
f 330/330/330 329/329/329 328/328/328
f 331/331/331 330/330/330 328/328/328
f 334/334/334 333/333/333 332/332/332
f 332/332/332 333/333/333 335/335/335
f 336/336/336 332/332/332 335/335/335
f 339/339/339 338/338/338 337/337/337
f 340/340/340 339/339/339 337/337/337
f 343/343/343 342/342/342 341/341/341
f 344/344/344 343/343/343 341/341/341
f 347/347/347 346/346/346 345/345/345
f 348/348/348 347/347/347 345/345/345
f 351/351/351 350/350/350 349/349/349
f 352/352/352 351/351/351 349/349/349
f 355/355/355 354/354/354 353/353/353
f 353/353/353 354/354/354 356/356/356
f 357/357/357 353/353/353 356/356/356
f 360/360/360 359/359/359 358/358/358
f 361/361/361 360/360/360 358/358/358
