g sector_fill_5M
v -0 3.8146972E-08 0.107231215
v 0.120969735 3.8146972E-08 0.08747902
v 0.11780255 3.8146972E-08 0.115009874
v 1.8209456E-17 -3.8146972E-08 0.08110043
v -0.11780255 3.8146972E-08 0.11500992
v -0.120969735 3.8146972E-08 0.08747902
v -0 3.8146972E-08 -0.11500992
v 0.1035344 3.8146972E-08 -0.11305401
v -0.1035344 3.8146972E-08 -0.11305401
v 0.20076284 3.8146972E-08 0.09445255
v -0.23277327 3.8146972E-08 -0.10029907
v 0.23277327 3.8146972E-08 -0.10029907
v 0.29691783 3.8146972E-08 0.11353149
v 0.35879523 3.8146972E-08 -0.07824875
v -0.20076284 3.8146972E-08 0.09445255
v -0.35879523 3.8146972E-08 -0.07824875
v -0.29691783 3.8146972E-08 0.11353149
vt 0.30910936 0.5000001
vt 0.28169316 0.6679061
vt 0.31990615 0.6635101
vt 0.2728398 0.50000006
vt 0.31990632 0.33649004
vt 0.28169316 0.332094
vt 0.0006385356 0.5
vt 0.003353087 0.6437058
vt 0.0033532884 0.35629424
vt 0.29137242 0.77865905
vt 0.021057181 0.17691062
vt 0.021057181 0.8230894
vt 0.31785417 0.91212213
vt 0.051662996 0.998008
vt 0.29137242 0.22134118
vt 0.051663198 0.001992032
vt 0.31785396 0.087878
vn -2.3440691E-07 1 0
vn -2.3440691E-07 1 0
vn -2.3440688E-07 1 0
vn -2.3440688E-07 1 0
vn 2.3440676E-07 1 1.4834219E-06
vn 2.3440674E-07 1 1.4834219E-06
vn -3.475412E-07 1 -2.7461536E-07
vn -3.4754117E-07 1 -2.7461536E-07
vn 3.4754117E-07 1 0
vn -0 1 -2.7923187E-07
vn -0 1 0
vn -0 1 -2.8760743E-07
vn -0 1 -5.441066E-07
vn -0 1 -5.4410657E-07
vn -0 1 0
vn -0 1 0
vn -0 1 0
g sector_fill_5M_0
f 3/3/3 2/2/2 1/1/1
f 2/2/2 4/4/4 1/1/1
f 1/1/1 4/4/4 5/5/5
f 4/4/4 6/6/6 5/5/5
f 4/4/4 2/2/2 7/7/7
f 2/2/2 8/8/8 7/7/7
f 7/7/7 9/9/9 4/4/4
f 9/9/9 6/6/6 4/4/4
f 2/2/2 10/10/10 8/8/8
f 9/9/9 11/11/11 6/6/6
f 10/10/10 12/12/12 8/8/8
f 10/10/10 13/13/13 12/12/12
f 13/13/13 14/14/14 12/12/12
f 11/11/11 15/15/15 6/6/6
f 11/11/11 16/16/16 15/15/15
f 16/16/16 17/17/17 15/15/15
