g sector_4LB_lines_upper
v 0.1735097 0 -0.015636625
v 0.18630947 0 0.08842007
v 0.16817233 0 -0.013410101
v 0.1918079 0 0.08732968
v 0.14700794 0 -0.11949942
v 0.18943462 0 0.18828353
v 0.14147067 0 -0.120623425
v 0.19502063 0 0.18831336
v 0.11899196 0 -0.19583976
v 0.18752323 0 0.26093405
v 0.11384227 0 -0.19592021
v 0.19209576 0 0.26635885
v 0.08393856 0 -0.26635885
v 0.13127063 0 0.25324592
v 0.08084247 0 -0.25899497
v 0.12987599 0 0.2580587
v 0.03854847 0 -0.25164482
v -0.01188076 0 0.2341494
v 0.04498371 0 -0.24879241
v -0.013275413 0 0.23896217
v 0.052598074 0 -0.2204246
v -0.07229854 0 0.22547859
v 0.058909263 0 -0.21753368
v -0.078253366 0 0.23029403
v -0.07459225 0 -0.18262969
v -0.0679697 0 0.16672462
v -0.077912554 0 -0.17544062
v -0.073258474 0 0.1665303
v -0.08775783 0 -0.21238185
v -0.0711533 0 0.08150159
v -0.09083927 0 -0.20526999
v -0.07654201 0 0.08699132
v -0.15172565 0 -0.19000885
v -0.16201007 0 0.07891785
v -0.1450677 0 -0.18693736
v -0.16735096 0 0.08493081
v -0.10992374 0 -0.08219424
v -0.17244305 0 0.011430635
v -0.10395961 0 -0.0789321
v -0.17750973 0 0.013322649
v -0.19502063 0 -0.06495303
v -0.1888271 0 -0.060935773
vt 0.65139955 0.51345915
vt 0.63181484 0.32230294
vt 0.6409541 0.5116584
vt 0.64208466 0.3220079
vt 0.64642155 0.70985925
vt 0.59665406 0.14258677
vt 0.63698596 0.714127
vt 0.6066233 0.14025433
vt 0.62750864 0.8576988
vt 0.5635967 0.01355097
vt 0.6183398 0.8599438
vt 0.56955373 0.0019920322
vt 0.59364575 0.998008
vt 0.46621865 0.050239995
vt 0.585109 0.986113
vt 0.46176296 0.042209316
vt 0.5065371 0.9902357
vt 0.21821997 0.14276946
vt 0.516872 0.98251325
vt 0.2137643 0.13473877
vt 0.51890355 0.9287175
vt 0.11380015 0.18291378
vt 0.5290011 0.9209768
vt 0.10119504 0.17673892
vt 0.27621284 0.9130782
vt 0.14550719 0.2861321
vt 0.26734674 0.90158707
vt 0.13613623 0.28863722
vt 0.26482695 0.97161245
vt 0.17459022 0.43971193
vt 0.2564192 0.960162
vt 0.16272154 0.43210122
vt 0.14139764 0.9577346
vt 0.013296885 0.48139888
vt 0.15204121 0.9495298
vt 0.0013001987 0.47283375
vt 0.1721023 0.74803054
vt 0.02219 0.60624516
vt 0.18142831 0.7397682
vt 0.012364644 0.6049317
vt 0.01301231 0.75194323
vt 0.022440173 0.74223804
vn -0 1 0
vn -0 1 0
vn -0 1 0
vn -0 1 0
vn -0 1 0
vn -0 1 -4.002556E-07
vn -0 1 0
vn -0 1 -4.0335172E-07
vn -0 1 2.8063512E-06
vn -0 1 -9.522984E-06
vn -0 1 4.8806323E-06
vn -0 1 -9.539243E-06
vn -0 1 4.8624224E-06
vn -0 1 -6.9131825E-06
vn -0 1 4.874645E-06
vn -0 1 -5.2772466E-06
vn -0 1 0
vn -0 1 0
vn -0 1 0
vn -0 1 0
vn -0 1 1.3809288E-05
vn -0 1 1.1446058E-06
vn -0 1 1.3829256E-05
vn -0 1 1.1433033E-06
vn -0 1 1.3360131E-05
vn -0 1 9.89412E-07
vn -0 1 1.335381E-05
vn -0 1 9.631237E-07
vn -0 1 1.1604817E-05
vn -0 1 0
vn -0 1 1.1572135E-05
vn -0 1 0
vn -0 1 6.8806494E-06
vn -0 1 -8.1245287E-07
vn -0 1 6.910568E-06
vn -0 1 -8.1382024E-07
vn -0 1 0
vn -0 1 1.2549258E-06
vn -0 1 0
vn -0 1 6.328618E-07
vn -0 1 1.8552386E-06
vn -0 1 1.8598555E-06
g sector_4LB_lines_upper_0
f 3/3/3 2/2/2 1/1/1
f 2/2/2 4/4/4 1/1/1
f 3/3/3 1/1/1 5/5/5
f 2/2/2 6/6/6 4/4/4
f 7/7/7 3/3/3 5/5/5
f 6/6/6 8/8/8 4/4/4
f 7/7/7 5/5/5 9/9/9
f 6/6/6 10/10/10 8/8/8
f 11/11/11 7/7/7 9/9/9
f 10/10/10 12/12/12 8/8/8
f 11/11/11 9/9/9 13/13/13
f 10/10/10 14/14/14 12/12/12
f 15/15/15 11/11/11 13/13/13
f 14/14/14 16/16/16 12/12/12
f 15/15/15 13/13/13 17/17/17
f 14/14/14 18/18/18 16/16/16
f 19/19/19 15/15/15 17/17/17
f 18/18/18 20/20/20 16/16/16
f 19/19/19 17/17/17 21/21/21
f 18/18/18 22/22/22 20/20/20
f 23/23/23 19/19/19 21/21/21
f 22/22/22 24/24/24 20/20/20
f 23/23/23 21/21/21 25/25/25
f 22/22/22 26/26/26 24/24/24
f 27/27/27 23/23/23 25/25/25
f 26/26/26 28/28/28 24/24/24
f 27/27/27 25/25/25 29/29/29
f 26/26/26 30/30/30 28/28/28
f 31/31/31 27/27/27 29/29/29
f 30/30/30 32/32/32 28/28/28
f 31/31/31 29/29/29 33/33/33
f 30/30/30 34/34/34 32/32/32
f 35/35/35 31/31/31 33/33/33
f 34/34/34 36/36/36 32/32/32
f 35/35/35 33/33/33 37/37/37
f 34/34/34 38/38/38 36/36/36
f 39/39/39 35/35/35 37/37/37
f 38/38/38 40/40/40 36/36/36
f 39/39/39 37/37/37 41/41/41
f 38/38/38 42/42/42 40/40/40
f 42/42/42 39/39/39 41/41/41
f 42/42/42 41/41/41 40/40/40
