g sector_6D_lines_upper
v -0.18939885 -3.8146972E-08 0.20027402
v -0.31821668 -3.8146972E-08 0.10539724
v -0.31063053 -3.8146972E-08 0.10524368
v -0.18405072 -3.8146972E-08 0.19655064
v -0.20823805 -3.8146972E-08 0.020369606
v -0.14390813 -3.8146972E-08 0.235069
v -0.21520971 -3.8146972E-08 0.02023548
v -0.1440302 -3.8146972E-08 0.22808915
v -0.22696859 -3.8146972E-08 0.003597641
v -0.106433466 -3.8146972E-08 0.20427045
v -0.23401006 -3.8146972E-08 0.0031779478
v -0.11368215 -3.8146972E-08 0.20429464
v -0.08760748 -3.8146972E-08 -0.08741329
v -0.14834562 -3.8146972E-08 0.1704247
v -0.090198725 -3.8146972E-08 -0.09165924
v -0.15512013 -3.8146972E-08 0.17029968
v 0.05086855 -3.8146972E-08 -0.16477886
v -0.030225353 3.8146972E-08 0.08369842
v 0.052386798 -3.8146972E-08 -0.17116852
v -0.029600428 3.8146972E-08 0.077073246
v 0.06514864 -3.8146972E-08 -0.14326939
v 0.0064404486 3.8146972E-08 0.12310556
v 0.06688547 -3.8146972E-08 -0.14977314
v 0.006985569 3.8146972E-08 0.116540335
v 0.15545747 -3.8146972E-08 -0.18602668
v 0.062144563 3.8146972E-08 0.08025257
v 0.15187097 -3.8146972E-08 -0.19117339
v 0.060600985 3.8146972E-08 0.07471157
v 0.260869 -3.8146972E-08 -0.2286735
v 0.15712908 -3.8146972E-08 0.026980285
v 0.26307696 -3.8146972E-08 -0.235069
v 0.15312211 -3.8146972E-08 0.022160415
v 0.31001732 -3.8146972E-08 -0.14282298
v 0.25335053 -3.8146972E-08 -0.016313247
v 0.31821668 -3.8146972E-08 -0.14095707
v 0.24525842 -3.8146972E-08 -0.017992515
v 0.19682328 -3.8146972E-08 -0.09564693
v 0.20421433 -3.8146972E-08 -0.09391224
vt 0.27914762 0.08002851
vt 0.05521962 0.001992032
vt 0.061386935 0.011396914
vt 0.27907494 0.08968732
vt 0.04338047 0.20770235
vt 0.35980317 0.10650549
vt 0.037376136 0.19928981
vt 0.35116604 0.1122034
vt 0.0071808835 0.19884911
vt 0.35353646 0.17812976
vt 0.0007688798 0.19059044
vt 0.34749365 0.1692459
vt 0.012639822 0.4455003
vt 0.27703944 0.15523344
vt 0.0052771717 0.44588873
vt 0.27121142 0.14705436
vt 0.034042694 0.6796382
vt 0.26994365 0.37232223
vt 0.027501367 0.6868475
vt 0.262366 0.37863645
vt 0.07230701 0.6790808
vt 0.34884608 0.38414446
vt 0.06580928 0.6866529
vt 0.34127486 0.3903109
vt 0.0956777 0.8253282
vt 0.34311056 0.4881578
vt 0.08637987 0.8252542
vt 0.335042 0.49091217
vt 0.13183534 0.98995054
vt 0.35754058 0.64893126
vt 0.12586467 0.998008
vt 0.34829018 0.6480693
vt 0.27798513 0.9781295
vt 0.38520873 0.80285776
vt 0.2871355 0.9865925
vt 0.37637636 0.79436964
vt 0.24084616 0.8001966
vt 0.249159 0.80778116
vn -0 1 1.1525585E-05
vn -0 1 1.245244E-05
vn -0 1 1.2489933E-05
vn -0 1 9.199127E-06
vn -0 1 1.043453E-05
vn -0 1 0
vn -0 1 1.0433279E-05
vn -0 1 0
vn -0 1 1.6926773E-06
vn -0 1 6.708759E-06
vn -0 1 1.7925611E-06
vn -0 1 6.6801467E-06
vn -0 1 0
vn -2.7907623E-07 1 -3.3195502E-06
vn -0 1 0
vn -2.775968E-07 1 -3.2333255E-06
vn -0 1 0
vn -2.703599E-07 1 -6.4083206E-06
vn -0 1 0
vn -2.7003213E-07 1 -6.4005526E-06
vn -0 1 0
vn -0 1 4.9491236E-06
vn -0 1 0
vn -0 1 4.9536698E-06
vn -0 1 5.6263943E-06
vn 3.438721E-07 1 3.8986177E-06
vn -0 1 4.4757744E-06
vn 4.5889507E-07 1 2.3026903E-06
vn -0 1 4.9157793E-06
vn 2.8780957E-07 1 0
vn -0 1 4.9174096E-06
vn 3.7853334E-07 1 0
vn -0 1 -5.5004693E-06
vn -0 1 0
vn -0 1 -4.5193065E-06
vn -0 1 0
vn -0 1 -5.0048043E-06
vn -0 1 -5.769922E-06
g sector_6D_lines_upper_0
f 3/3/3 2/2/2 1/1/1
f 4/4/4 3/3/3 1/1/1
f 3/3/3 5/5/5 2/2/2
f 4/4/4 1/1/1 6/6/6
f 5/5/5 7/7/7 2/2/2
f 8/8/8 4/4/4 6/6/6
f 5/5/5 9/9/9 7/7/7
f 8/8/8 6/6/6 10/10/10
f 9/9/9 11/11/11 7/7/7
f 12/12/12 8/8/8 10/10/10
f 9/9/9 13/13/13 11/11/11
f 12/12/12 10/10/10 14/14/14
f 13/13/13 15/15/15 11/11/11
f 16/16/16 12/12/12 14/14/14
f 13/13/13 17/17/17 15/15/15
f 16/16/16 14/14/14 18/18/18
f 17/17/17 19/19/19 15/15/15
f 20/20/20 16/16/16 18/18/18
f 17/17/17 21/21/21 19/19/19
f 20/20/20 18/18/18 22/22/22
f 21/21/21 23/23/23 19/19/19
f 24/24/24 20/20/20 22/22/22
f 21/21/21 25/25/25 23/23/23
f 24/24/24 22/22/22 26/26/26
f 25/25/25 27/27/27 23/23/23
f 28/28/28 24/24/24 26/26/26
f 25/25/25 29/29/29 27/27/27
f 28/28/28 26/26/26 30/30/30
f 29/29/29 31/31/31 27/27/27
f 32/32/32 28/28/28 30/30/30
f 29/29/29 33/33/33 31/31/31
f 32/32/32 30/30/30 34/34/34
f 33/33/33 35/35/35 31/31/31
f 36/36/36 32/32/32 34/34/34
f 33/33/33 37/37/37 35/35/35
f 36/36/36 34/34/34 38/38/38
f 37/37/37 38/38/38 35/35/35
f 37/37/37 36/36/36 38/38/38
