g sector_1D_lines_upper
v -0.11072041 3.8146972E-08 -0.019888649
v -0.07502404 -3.8146972E-08 -0.0662822
v -0.06835084 -3.8146972E-08 -0.06352333
v -0.10701142 3.8146972E-08 -0.014886169
v -0.019099474 -3.8146972E-08 -0.11173328
v -0.14000691 -3.8146972E-08 0.030371321
v -0.024453439 -3.8146972E-08 -0.114830054
v -0.1356701 -3.8146972E-08 0.03425926
v 0.03651158 -3.8146972E-08 -0.14421234
v -0.1600468 -3.8146972E-08 0.082012445
v 0.037912454 -3.8146972E-08 -0.15073723
v -0.15459912 -3.8146972E-08 0.08467041
v 0.1619004 -3.8146972E-08 0.03043293
v -0.17080829 -3.8146972E-08 0.12760243
v 0.17080829 -3.8146972E-08 0.033294182
v -0.16220085 -3.8146972E-08 0.1231242
v 0.13345723 -3.8146972E-08 0.05191536
v 0.09045329 -3.8146972E-08 0.15073723
v 0.13668634 -3.8146972E-08 0.056910705
v 0.08645892 -3.8146972E-08 0.14427112
v 0.10849593 -3.8146972E-08 0.08186146
v 0.09799775 -3.8146972E-08 0.11607036
v 0.11320037 -3.8146972E-08 0.08514431
v 0.09349084 -3.8146972E-08 0.11313248
vt 0.4859113 0.8928848
vt 0.6471391 0.8083671
vt 0.64225966 0.7864479
vt 0.4725722 0.8788452
vt 0.8163073 0.6613784
vt 0.31627038 0.95569724
vt 0.822928 0.6794372
vt 0.30668154 0.9403309
vt 0.9455697 0.5084066
vt 0.14734788 0.9894447
vt 0.96630764 0.5076078
vt 0.14212158 0.97133374
vt 0.47768465 0.03081177
vt 0.0019287579 0.998008
vt 0.47368774 0.001992032
vt 0.02025454 0.9740373
vt 0.39665127 0.106444605
vt 0.07090482 0.18528466
vt 0.3830771 0.09387878
vt 0.08857478 0.20098203
vt 0.29155427 0.16688085
vt 0.18114045 0.18072948
vt 0.28401586 0.15071222
vt 0.18772785 0.19610839
vn 1.3728852E-07 1 -3.4919087E-06
vn 4.4417146E-07 1 -4.5782717E-06
vn 2.7947277E-07 1 -2.880649E-06
vn -2.4305245E-07 1 -8.4546963E-07
vn -0 1 -9.793535E-06
vn -6.2513465E-07 1 2.812634E-06
vn -0 1 -5.426735E-06
vn -4.382816E-07 1 1.9719362E-06
vn -0 1 -4.040527E-06
vn -0 1 0
vn -0 1 -4.035876E-06
vn -0 1 0
vn -0 1 0
vn -0 1 0
vn -0 1 0
vn -0 1 0
vn -0 1 2.7634044E-06
vn -0 1 0
vn -0 1 3.5568016E-06
vn -0 1 0
vn -0 1 3.8522826E-06
vn -0 1 0
vn -0 1 3.6887886E-06
vn -0 1 0
g sector_1D_lines_upper_0
f 3/3/3 2/2/2 1/1/1
f 4/4/4 3/3/3 1/1/1
f 3/3/3 5/5/5 2/2/2
f 4/4/4 1/1/1 6/6/6
f 5/5/5 7/7/7 2/2/2
f 8/8/8 4/4/4 6/6/6
f 5/5/5 9/9/9 7/7/7
f 8/8/8 6/6/6 10/10/10
f 9/9/9 11/11/11 7/7/7
f 12/12/12 8/8/8 10/10/10
f 9/9/9 13/13/13 11/11/11
f 12/12/12 10/10/10 14/14/14
f 13/13/13 15/15/15 11/11/11
f 16/16/16 12/12/12 14/14/14
f 13/13/13 17/17/17 15/15/15
f 16/16/16 14/14/14 18/18/18
f 17/17/17 19/19/19 15/15/15
f 20/20/20 16/16/16 18/18/18
f 17/17/17 21/21/21 19/19/19
f 20/20/20 18/18/18 22/22/22
f 21/21/21 23/23/23 19/19/19
f 24/24/24 20/20/20 22/22/22
f 24/24/24 22/22/22 23/23/23
f 21/21/21 24/24/24 23/23/23
