g sector_fill_5MB
v -0.15429048 -3.8146972E-08 -0.08022131
v -0.16668054 -3.8146972E-08 -0.10844133
v -0.052120566 -3.8146972E-08 -0.14415163
v -0.038560465 -3.8146972E-08 -0.11638204
v 0.02674927 3.8146972E-08 0.072080255
v 0.021711485 -3.8146972E-08 -0.13198015
v 0.11786653 -3.8146972E-08 -0.15105909
v -0.06612611 -3.8146972E-08 0.10400297
v -0.31862944 -3.8146972E-08 -0.011502585
v -0.19220804 -3.8146972E-08 0.15803239
v 0.18025409 -3.8146972E-08 0.046786617
v 0.20082687 -3.8146972E-08 -0.13050127
v 0.19765963 -3.8146972E-08 -0.15803239
v 0.31862944 -3.8146972E-08 0.03756798
v 0.31862944 -3.8146972E-08 -0.13827997
vt 0.34855652 0.7307403
vt 0.39462152 0.7412378
vt 0.4152754 0.55845046
vt 0.36955005 0.54606134
vt 0.06695055 0.50220335
vt 0.37561467 0.45081556
vt 0.37654954 0.30054268
vt 0.045732375 0.6512505
vt 0.29259476 0.99800795
vt 0.000828893 0.856678
vt 0.06066795 0.26379576
vt 0.32162517 0.18158898
vt 0.3639879 0.17840092
vt 0.034556884 0.052810866
vt 0.29929152 0.001992032
vn -0 1 1.4474175E-06
vn -0 1 1.4474176E-06
vn -0 1 1.4474175E-06
vn -0 1 1.4474175E-06
vn -3.8129895E-07 1 -2.7682387E-07
vn 2.6398146E-07 1 1.4766806E-07
vn 2.0781332E-07 1 1.16248295E-07
vn -0 1 0
vn -0 1 0
vn -0 1 0
vn -0 1 0
vn -0 1 0
vn -0 1 0
vn -0 1 0
vn -0 1 0
g sector_fill_5MB_0
f 3/3/3 2/2/2 1/1/1
f 4/4/4 3/3/3 1/1/1
f 4/4/4 1/1/1 5/5/5
f 6/6/6 4/4/4 5/5/5
f 7/7/7 6/6/6 5/5/5
f 1/1/1 8/8/8 5/5/5
f 8/8/8 1/1/1 9/9/9
f 10/10/10 8/8/8 9/9/9
f 11/11/11 7/7/7 5/5/5
f 11/11/11 12/12/12 7/7/7
f 12/12/12 13/13/13 7/7/7
f 12/12/12 11/11/11 14/14/14
f 15/15/15 12/12/12 14/14/14
