g sector_fill_2M
v 0.21133417 0 0.05437935
v 0.22201683 0 0.05931292
v 0.18821856 0 0.12537338
v 0.13579759 0 0.10971872
v 0.10182048 0 0.056919865
v 0.092969015 0 0.09813375
v 0.25669283 0 -0.035023436
v 0.17765287 0 -0.107649066
v 0.26884952 0 -0.030866751
v 0.2922959 0 -0.073702775
v 0.09884919 0 -0.11915715
v 2.1356012E-17 0 -0.12537338
v 2.4915348E-17 0 0.051808972
v -0.09884919 0 -0.11915715
v -0.10182048 0 0.056919865
v -0.17765287 0 -0.10764907
v -0.21133417 0 0.05437935
v -0.092969015 0 0.09813375
v -0.13579759 0 0.10971872
v -0.22201683 0 0.05931292
v -0.18821856 0 0.12537338
v -0.25669283 0 -0.035023436
v -0.2922959 0 -0.0737028
v -0.26884952 0 -0.030866751
vt 0.3071137 0.86006683
vt 0.3155193 0.8782678
vt 0.4280716 0.8206831
vt 0.40139973 0.7313693
vt 0.31144196 0.67347974
vt 0.38166156 0.65839875
vt 0.15479076 0.93734807
vt 0.031052627 0.80268145
vt 0.16187292 0.9580605
vt 0.08888965 0.998008
vt 0.011445488 0.6684173
vt 0.0008544346 0.5000001
vt 0.30273414 0.49999997
vt 0.011445488 0.33158275
vt 0.31144196 0.3265203
vt 0.031052627 0.19731857
vt 0.3071136 0.13993306
vt 0.38166144 0.34160128
vt 0.40139973 0.26863086
vt 0.31551918 0.12173206
vt 0.42807174 0.17931692
vt 0.15479088 0.06265182
vt 0.08888965 0.0019920322
vt 0.16187292 0.04193947
vn -0 1 -3.0789207E-07
vn -0 1 -3.0789207E-07
vn -0 1 -3.0789207E-07
vn -0 1 -3.0789207E-07
vn -0 1 0
vn -0 1 7.889559E-07
vn -0 1 0
vn -0 1 0
vn -0 1 0
vn -0 1 0
vn -0 1 0
vn -0 1 0
vn -0 1 0
vn -0 1 0
vn -0 1 0
vn -0 1 0
vn -0 1 -1.2315679E-06
vn -0 1 0
vn -0 1 -1.2315679E-06
vn -0 1 -1.2315679E-06
vn -0 1 -1.231568E-06
vn -0 1 0
vn -0 1 -2.4370718E-07
vn -0 1 -2.437072E-07
g sector_fill_2M_0
f 3/3/3 2/2/2 1/1/1
f 4/4/4 3/3/3 1/1/1
f 1/1/1 5/5/5 4/4/4
f 5/5/5 6/6/6 4/4/4
f 1/1/1 7/7/7 5/5/5
f 7/7/7 8/8/8 5/5/5
f 7/7/7 9/9/9 8/8/8
f 9/9/9 10/10/10 8/8/8
f 8/8/8 11/11/11 5/5/5
f 5/5/5 11/11/11 12/12/12
f 13/13/13 5/5/5 12/12/12
f 12/12/12 14/14/14 13/13/13
f 14/14/14 15/15/15 13/13/13
f 15/15/15 14/14/14 16/16/16
f 15/15/15 16/16/16 17/17/17
f 18/18/18 15/15/15 17/17/17
f 19/19/19 18/18/18 17/17/17
f 17/17/17 20/20/20 19/19/19
f 20/20/20 21/21/21 19/19/19
f 16/16/16 22/22/22 17/17/17
f 16/16/16 23/23/23 22/22/22
f 23/23/23 24/24/24 22/22/22
