g sector_1DXtra_lines_upper
v -0.13980766 0 -0.085078254
v 0.12145393 0 -0.061943453
v 0.11410751 0 -0.05752184
v -0.13374111 0 -0.07667112
v 0.11299476 0 -0.03858038
v -0.14353493 0 -0.044232424
v 0.119326115 0 -0.03875574
v -0.13663815 0 -0.043994732
v 0.116343975 0 -0.010961094
v -0.14169262 0 -0.0006501198
v 0.122897506 0 -0.010919513
v -0.13474289 0 -0.0017236519
v 0.12306684 0 0.012908382
v -0.1337651 0 0.043321133
v 0.12927555 0 0.012013607
v -0.12784863 0 0.04100645
v 0.13259478 0 0.029587917
v -0.12081638 0 0.085078254
v 0.14353493 0 0.033312816
v -0.117087625 0 0.07555952
vt 0.0011963948 0.019964924
vt 0.11368421 0.93215024
vt 0.12828444 0.90588963
vt 0.031369932 0.040198203
vt 0.19448584 0.8997114
vt 0.14379485 0.001992032
vt 0.19463427 0.9219057
vt 0.14545794 0.026116824
vt 0.29161555 0.9081142
vt 0.29664758 0.003194913
vt 0.2925505 0.9310605
vt 0.29372495 0.027663063
vt 0.37601927 0.92878366
vt 0.4515954 0.02566212
vt 0.3736334 0.95063514
vt 0.44420165 0.04666118
vt 0.43558067 0.96014285
vt 0.5993937 0.065980926
vt 0.4499434 0.99800795
vt 0.56650704 0.08018595
vn -0 1 0
vn -0 1 -4.5890573E-07
vn -0 1 -2.7869822E-07
vn -0 1 0
vn -0 1 -1.797109E-06
vn -0 1 0
vn -0 1 -1.8041588E-06
vn -0 1 0
vn -0 1 0
vn -0 1 0
vn -0 1 0
vn -0 1 0
vn -0 1 2.1035346E-06
vn -0 1 1.5311915E-06
vn -0 1 2.9946737E-06
vn -0 1 1.2699506E-06
vn -0 1 3.4839638E-07
vn -0 1 2.499943E-07
vn -0 1 4.632967E-07
vn -0 1 4.0727124E-07
g sector_1DXtra_lines_upper_0
f 3/3/3 2/2/2 1/1/1
f 4/4/4 3/3/3 1/1/1
f 3/3/3 5/5/5 2/2/2
f 4/4/4 1/1/1 6/6/6
f 5/5/5 7/7/7 2/2/2
f 8/8/8 4/4/4 6/6/6
f 5/5/5 9/9/9 7/7/7
f 8/8/8 6/6/6 10/10/10
f 9/9/9 11/11/11 7/7/7
f 12/12/12 8/8/8 10/10/10
f 9/9/9 13/13/13 11/11/11
f 12/12/12 10/10/10 14/14/14
f 13/13/13 15/15/15 11/11/11
f 16/16/16 12/12/12 14/14/14
f 13/13/13 17/17/17 15/15/15
f 16/16/16 14/14/14 18/18/18
f 17/17/17 19/19/19 15/15/15
f 20/20/20 16/16/16 18/18/18
f 20/20/20 18/18/18 19/19/19
f 17/17/17 20/20/20 19/19/19
