g sector_1M_extrude
v 0.084698275 -0.03999996 -0.08853502
v 0.084698305 0.040000036 -0.08853487
v 0.09310713 0.040000036 -0.12768808
v 0.09310713 -0.03999996 -0.12768812
v 0.09310713 -0.03999996 -0.12768812
v 0.09310713 0.040000036 -0.12768808
v 1.2623657E-08 0.040000036 -0.13254339
v 4.768372E-08 -0.03999996 -0.13254343
v 4.768372E-08 -0.03999996 -0.13254343
v 1.2623657E-08 0.040000036 -0.13254339
v -0.09310704 0.03999996 -0.12768812
v -0.09310703 -0.040000036 -0.12768812
v -0.09310703 -0.040000036 -0.12768812
v -0.09310704 0.03999996 -0.12768812
v -0.084698185 0.03999996 -0.088535115
v -0.08469818 -0.040000036 -0.08853502
v 0.1017594 -0.040000036 0.13254319
v 0.1017594 0.03999996 0.13254339
v 0.22457705 0.03999996 -0.040747203
v 0.22457702 -0.040000036 -0.040747337
v 0.22457702 -0.040000036 -0.040747337
v 0.22457705 0.03999996 -0.040747203
v 0.17880763 0.03999996 -0.06265759
v 0.1788076 -0.040000036 -0.06265739
v 0.12900785 0.03999996 -0.07752943
v 0.12900774 -0.040000036 -0.07752931
v 0.084698305 0.040000036 -0.08853487
v 0.084698275 -0.03999996 -0.08853502
v 0.075067446 -0.040000036 0.12017267
v 0.1017594 0.03999996 0.13254339
v 0.1017594 -0.040000036 0.13254319
v 0.07506734 0.03999996 0.120172895
v 0.05247226 -0.040000036 0.11411611
v 0.052472204 0.03999996 0.11411634
v 0.027257342 -0.040000036 0.10920828
v 0.02725728 0.03999996 0.10920873
v 4.7683713E-08 -0.040000036 0.10658048
v 3.3432876E-08 0.03999996 0.10658094
v -0.027257247 -0.040000036 0.10920828
v -0.027257249 0.03999996 0.10920835
v -0.052472167 -0.040000036 0.11411611
v -0.05247214 0.03999996 0.11411619
v -0.07506735 -0.040000036 0.12017267
v -0.075067244 0.03999996 0.12017298
v -0.1017593 -0.040000036 0.13254319
v -0.10175933 0.03999996 0.13254343
v -0.22457695 -0.040000036 -0.040747337
v -0.22457705 0.03999996 -0.040747337
v -0.10175933 0.03999996 0.13254343
v -0.1017593 -0.040000036 0.13254319
v -0.17880753 -0.040000036 -0.06265739
v -0.22457705 0.03999996 -0.040747337
v -0.22457695 -0.040000036 -0.040747337
v -0.1788076 0.03999996 -0.0626576
v -0.12900764 -0.040000036 -0.07752931
v -0.12900771 0.03999996 -0.07752954
v -0.08469818 -0.040000036 -0.08853502
v -0.084698185 0.03999996 -0.088535115
vt 0.11201972 0.0025464166
vt 0.1120196 0.9926963
vt 0.07877725 0.9926963
vt 0.07877749 0.0025464166
vt 0.07877749 0.0025464166
vt 0.07877725 0.9926963
vt 0.001383841 0.9926963
vt 0.001383841 0.0025464166
vt 0.9973999 0.0025464166
vt 0.9973999 0.9926963
vt 0.9200065 0.9926963
vt 0.9200063 0.0025464166
vt 0.9200063 0.0025464166
vt 0.9200065 0.9926963
vt 0.8867644 0.9926963
vt 0.88676417 0.0025464166
vt 0.41149747 0.0025464166
vt 0.41149753 0.9926963
vt 0.23518378 0.9926963
vt 0.23518378 0.0025464166
vt 0.23518378 0.0025464166
vt 0.23518378 0.9926963
vt 0.19306141 0.9926963
vt 0.19306165 0.0025464166
vt 0.14991862 0.9926963
vt 0.14991862 0.0025464166
vt 0.1120196 0.9926963
vt 0.11201972 0.0025464166
vt 0.43591845 0.0025464166
vt 0.41149753 0.9926963
vt 0.41149747 0.0025464166
vt 0.4359185 0.9926963
vt 0.45533687 0.0025464166
vt 0.455337 0.9926963
vt 0.4766606 0.0025464166
vt 0.4766606 0.9926963
vt 0.49939185 0.0025464166
vt 0.49939188 0.9926963
vt 0.5221231 0.0025464166
vt 0.52212304 0.9926963
vt 0.5434469 0.0025464166
vt 0.5434468 0.9926963
vt 0.5628653 0.0025464166
vt 0.5628652 0.9926963
vt 0.58728623 0.0025464166
vt 0.58728623 0.9926963
vt 0.7636 0.0025464166
vt 0.7636001 0.9926963
vt 0.58728623 0.9926963
vt 0.58728623 0.0025464166
vt 0.8057221 0.0025464166
vt 0.7636001 0.9926963
vt 0.7636 0.0025464166
vt 0.8057225 0.9926963
vt 0.84886515 0.0025464166
vt 0.8488654 0.9926963
vt 0.88676417 0.0025464166
vt 0.8867644 0.9926963
vn 0.97770566 -3.7159012E-07 0.20997983
vn 0.97770566 -3.7159012E-07 0.20997982
vn 0.97770566 -3.715901E-07 0.20997983
vn 0.97770566 -3.7159012E-07 0.20997982
vn 0.052076776 4.8897584E-07 -0.9986431
vn 0.052076776 4.8897584E-07 -0.9986431
vn 1.05962165E-07 3.568504E-07 -1
vn 1.0596213E-07 3.5685042E-07 -1
vn 1.0596213E-07 3.5685042E-07 -1
vn 1.05962165E-07 3.568504E-07 -1
vn -0.052076608 2.2375642E-07 -0.9986431
vn -0.052076608 2.2375643E-07 -0.9986431
vn -0.97770554 0 0.20998044
vn -0.97770554 0 0.20998044
vn -0.97770554 0 0.20998044
vn -0.97770554 0 0.20998044
vn 0.815869 -1.5517484E-06 0.5782368
vn 0.815869 -1.5517484E-06 0.5782369
vn 0.815869 -1.5517483E-06 0.5782368
vn 0.815869 -1.5517483E-06 0.5782369
vn 0.43178418 -6.0122596E-07 -0.901977
vn 0.43178415 -6.012261E-07 -0.901977
vn 0.35918918 -1.364432E-06 -0.93326485
vn 0.35918918 -1.3644313E-06 -0.93326473
vn 0.26513165 -1.1044245E-06 -0.96421224
vn 0.26513165 -1.1044244E-06 -0.96421224
vn 0.24105522 0 -0.9705113
vn 0.24105522 0 -0.97051144
vn -0.3501968 -2.8410634E-06 0.9366761
vn -0.42049086 -2.6678251E-06 0.9072967
vn -0.42049086 -2.6678256E-06 0.9072967
vn -0.3501968 -2.8410634E-06 0.9366761
vn -0.2235272 -3.7270365E-06 0.9746977
vn -0.22352722 -3.7270365E-06 0.9746977
vn -0.14215125 -5.0747235E-06 0.9898449
vn -0.14215125 -5.0747235E-06 0.9898449
vn -3.5151088E-06 -4.547592E-06 1
vn -3.4872644E-06 -4.547592E-06 1
vn 0.1421499 -2.1771596E-06 0.98984516
vn 0.1421499 -2.1771589E-06 0.98984516
vn 0.22353193 -1.7059094E-06 0.9746966
vn 0.22353192 -1.7059091E-06 0.9746966
vn 0.35019812 -2.9380897E-06 0.93667567
vn 0.35019815 -2.9380897E-06 0.93667567
vn 0.4204894 -3.2506794E-06 0.90729743
vn 0.4204894 -3.2506798E-06 0.90729743
vn -0.81586903 -1.7959961E-06 0.57823676
vn -0.815869 -1.7959961E-06 0.5782369
vn -0.815869 -1.795996E-06 0.57823676
vn -0.81586903 -1.7959959E-06 0.57823676
vn -0.3591888 -2.3864943E-06 -0.9332649
vn -0.4317829 -1.8470614E-06 -0.9019776
vn -0.43178287 -1.8470612E-06 -0.9019776
vn -0.35918888 -2.3864943E-06 -0.9332649
vn -0.2651327 -2.5121685E-06 -0.96421194
vn -0.2651327 -2.5121685E-06 -0.96421194
vn -0.24105652 -2.0706034E-06 -0.970511
vn -0.24105655 -2.0706034E-06 -0.970511
g sector_1M_extrude_0
f 3/3/3 2/2/2 1/1/1
f 4/4/4 3/3/3 1/1/1
f 7/7/7 6/6/6 5/5/5
f 8/8/8 7/7/7 5/5/5
f 11/11/11 10/10/10 9/9/9
f 12/12/12 11/11/11 9/9/9
f 15/15/15 14/14/14 13/13/13
f 16/16/16 15/15/15 13/13/13
f 19/19/19 18/18/18 17/17/17
f 20/20/20 19/19/19 17/17/17
f 23/23/23 22/22/22 21/21/21
f 24/24/24 23/23/23 21/21/21
f 25/25/25 23/23/23 24/24/24
f 26/26/26 25/25/25 24/24/24
f 27/27/27 25/25/25 26/26/26
f 28/28/28 27/27/27 26/26/26
f 31/31/31 30/30/30 29/29/29
f 30/30/30 32/32/32 29/29/29
f 29/29/29 32/32/32 33/33/33
f 32/32/32 34/34/34 33/33/33
f 33/33/33 34/34/34 35/35/35
f 34/34/34 36/36/36 35/35/35
f 35/35/35 36/36/36 37/37/37
f 36/36/36 38/38/38 37/37/37
f 37/37/37 38/38/38 39/39/39
f 38/38/38 40/40/40 39/39/39
f 39/39/39 40/40/40 41/41/41
f 40/40/40 42/42/42 41/41/41
f 41/41/41 42/42/42 43/43/43
f 42/42/42 44/44/44 43/43/43
f 43/43/43 44/44/44 45/45/45
f 44/44/44 46/46/46 45/45/45
f 49/49/49 48/48/48 47/47/47
f 50/50/50 49/49/49 47/47/47
f 53/53/53 52/52/52 51/51/51
f 52/52/52 54/54/54 51/51/51
f 51/51/51 54/54/54 55/55/55
f 54/54/54 56/56/56 55/55/55
f 55/55/55 56/56/56 57/57/57
f 56/56/56 58/58/58 57/57/57
