g sector_4DB_lines_upper
v 0.073258474 -3.8146972E-08 0.16653034
v 0.06888401 -3.8146972E-08 0.22294177
v 0.06565006 -3.8146972E-08 0.16671741
v 0.078253366 -3.8146972E-08 0.23029406
v 0.07654201 -3.8146972E-08 0.086991355
v 0.011932792 -3.8146972E-08 0.23013003
v 0.06849537 -3.8146972E-08 0.081706285
v 0.013275413 -3.8146972E-08 0.2389622
v 0.16735096 -3.8146972E-08 0.084930845
v -0.1312186 -3.8146972E-08 0.25051975
v 0.16215236 -3.8146972E-08 0.07824143
v -0.12987599 -3.8146972E-08 0.25805873
v 0.17750973 -3.8146972E-08 0.013322687
v -0.18408152 -3.8146972E-08 0.2572256
v 0.17155643 -3.8146972E-08 0.013606958
v -0.19209576 -3.8146972E-08 0.2663589
v 0.19502063 -3.8146972E-08 -0.06495307
v -0.18764415 -3.8146972E-08 0.18828471
v 0.18819056 -3.8146972E-08 -0.05990283
v -0.19502063 -3.8146972E-08 0.18831341
v 0.10992374 3.8146972E-08 -0.0821942
v -0.1838464 -3.8146972E-08 0.08837945
v 0.10053135 3.8146972E-08 -0.0783797
v -0.1918079 -3.8146972E-08 0.08732972
v 0.15172565 3.8146972E-08 -0.1900088
v -0.16661578 -3.8146972E-08 -0.01349307
v 0.14304958 3.8146972E-08 -0.18705185
v -0.1735097 -3.8146972E-08 -0.015636588
v 0.08775783 -3.8146972E-08 -0.2123819
v -0.1415163 -3.8146972E-08 -0.11649504
v 0.090724446 -3.8146972E-08 -0.20553516
v -0.14700794 -3.8146972E-08 -0.119499385
v 0.07459225 -3.8146972E-08 -0.18262969
v -0.113962516 -3.8146972E-08 -0.19303314
v 0.07807117 -3.8146972E-08 -0.17467491
v -0.11899196 -3.8146972E-08 -0.19583972
v -0.052598074 -3.8146972E-08 -0.2204246
v -0.08095783 -3.8146972E-08 -0.25926957
v -0.060364492 -3.8146972E-08 -0.2166077
v -0.08393856 -3.8146972E-08 -0.2663589
v -0.03854847 -3.8146972E-08 -0.25164482
v -0.046434287 -3.8146972E-08 -0.24889877
vt 0.5162146 0.28799003
vt 0.53126305 0.1853877
vt 0.50269115 0.28457144
vt 0.55099005 0.17604433
vt 0.48984104 0.43148798
vt 0.43238303 0.14945339
vt 0.4733162 0.43767262
vt 0.43836308 0.13421112
vt 0.65131646 0.47198182
vt 0.18478149 0.054980293
vt 0.63931286 0.48183104
vt 0.19023733 0.042049468
vt 0.64044654 0.6040912
vt 0.09301334 0.021565465
vt 0.62992096 0.6011699
vt 0.08239116 0.001992032
vt 0.64001495 0.75109863
vt 0.058699224 0.1433453
vt 0.6298542 0.7393032
vt 0.045526233 0.14030385
vt 0.48092487 0.7474197
vt 0.024989013 0.32345414
vt 0.46568334 0.7367944
vt 0.010333208 0.32210308
vt 0.51193666 0.9570712
vt 0.014491041 0.51252437
vt 0.49762776 0.94826895
vt 0.001300033 0.5135611
vt 0.38853213 0.9711301
vt 0.017599959 0.70680326
vt 0.39661002 0.960095
vt 0.0065664207 0.709947
vt 0.37706065 0.9126145
vt 0.035823233 0.8547757
vt 0.3865035 0.8998065
vt 0.025695968 0.8577534
vt 0.13440162 0.92860997
vt 0.06796533 0.9865448
vt 0.12206728 0.9186394
vt 0.059763815 0.99800795
vt 0.14685804 0.99010783
vt 0.13387622 0.98200285
vn -0 1 1.644236E-07
vn -0 1 3.655064E-07
vn -0 1 1.7069438E-07
vn -0 1 3.771834E-07
vn -0 1 5.343031E-06
vn -0 1 0
vn -0 1 3.509035E-06
vn -0 1 0
vn -0 1 6.606764E-06
vn -0 1 0
vn -0 1 6.053301E-06
vn -0 1 0
vn -0 1 0
vn -0 1 1.8266502E-07
vn -0 1 0
vn -0 1 1.8861739E-07
vn 3.7454183E-07 1 6.7601136E-06
vn -0 1 4.229143E-07
vn 3.4065204E-07 1 6.148437E-06
vn -0 1 4.2300533E-07
vn 2.6256967E-07 1 4.739126E-06
vn -0 1 2.4861984E-07
vn 2.0244191E-07 1 3.6538781E-06
vn -0 1 2.3985126E-07
vn -2.5986103E-07 1 0
vn -0 1 -9.544159E-07
vn -3.3676062E-07 1 0
vn -0 1 -1.0822902E-06
vn -6.9700224E-07 1 0
vn -0 1 -1.4128495E-06
vn -6.9437556E-07 1 0
vn -0 1 -1.1421637E-06
vn -0 1 1.1474355E-05
vn -0 1 -3.0774763E-06
vn -0 1 1.1666871E-05
vn -0 1 -3.5324147E-06
vn -0 1 1.1361721E-05
vn -0 1 -4.572377E-06
vn -0 1 1.1539278E-05
vn -0 1 -4.5583297E-06
vn -0 1 0
vn -0 1 0
g sector_4DB_lines_upper_0
f 3/3/3 2/2/2 1/1/1
f 2/2/2 4/4/4 1/1/1
f 3/3/3 1/1/1 5/5/5
f 2/2/2 6/6/6 4/4/4
f 7/7/7 3/3/3 5/5/5
f 6/6/6 8/8/8 4/4/4
f 7/7/7 5/5/5 9/9/9
f 6/6/6 10/10/10 8/8/8
f 11/11/11 7/7/7 9/9/9
f 10/10/10 12/12/12 8/8/8
f 11/11/11 9/9/9 13/13/13
f 10/10/10 14/14/14 12/12/12
f 15/15/15 11/11/11 13/13/13
f 14/14/14 16/16/16 12/12/12
f 15/15/15 13/13/13 17/17/17
f 14/14/14 18/18/18 16/16/16
f 19/19/19 15/15/15 17/17/17
f 18/18/18 20/20/20 16/16/16
f 19/19/19 17/17/17 21/21/21
f 18/18/18 22/22/22 20/20/20
f 23/23/23 19/19/19 21/21/21
f 22/22/22 24/24/24 20/20/20
f 23/23/23 21/21/21 25/25/25
f 22/22/22 26/26/26 24/24/24
f 27/27/27 23/23/23 25/25/25
f 26/26/26 28/28/28 24/24/24
f 27/27/27 25/25/25 29/29/29
f 26/26/26 30/30/30 28/28/28
f 31/31/31 27/27/27 29/29/29
f 30/30/30 32/32/32 28/28/28
f 31/31/31 29/29/29 33/33/33
f 30/30/30 34/34/34 32/32/32
f 35/35/35 31/31/31 33/33/33
f 34/34/34 36/36/36 32/32/32
f 35/35/35 33/33/33 37/37/37
f 34/34/34 38/38/38 36/36/36
f 39/39/39 35/35/35 37/37/37
f 38/38/38 40/40/40 36/36/36
f 39/39/39 37/37/37 41/41/41
f 38/38/38 42/42/42 40/40/40
f 42/42/42 41/41/41 40/40/40
f 42/42/42 39/39/39 41/41/41
