g sector_1DXtra_extrude
v -0.13461646 -0.04 -0.043438643
v -0.1327212 0.04 -0.0011675644
v -0.1327212 -0.04 -0.0011675644
v -0.13461646 0.04 -0.043438643
v -0.13171943 -0.04 -0.076115035
v -0.13171938 0.04 -0.07611561
v -0.12582694 -0.04 0.04156254
v -0.11506595 0.04 0.07611561
v -0.11506595 -0.04 0.07611561
v -0.12582694 0.04 0.04156254
v -0.1327212 -0.04 -0.0011675644
v -0.1327212 0.04 -0.0011675644
v -0.11506595 -0.04 0.07611561
v -0.11506595 0.04 0.07611561
v 0.13461646 0.04 0.030144004
v 0.13461646 -0.04 0.030144004
v 0.13461646 -0.04 0.030144004
v 0.13461646 0.04 0.030144004
v 0.12508853 0.04 0.013464469
v 0.12508853 -0.04 0.013464469
v 0.11836566 0.04 -0.010405006
v 0.11836566 -0.04 -0.010405006
v 0.115016446 0.04 -0.03802429
v 0.115016446 -0.04 -0.03802429
v 0.116129234 0.04 -0.056966323
v 0.1161292 -0.04 -0.05696575
v 0.1161292 -0.04 -0.05696575
v 0.116129234 0.04 -0.056966323
v -0.13171938 0.04 -0.07611561
v -0.13171943 -0.04 -0.076115035
vt 0.94104475 0.0025464166
vt 0.99739987 0.9926963
vt 0.99739987 0.0025464166
vt 0.9410458 0.9926963
vt 0.8973549 0.0025464166
vt 0.8973554 0.9926963
vt 0.0590289 0.0025464166
vt 0.107227065 0.9926963
vt 0.10722742 0.0025464166
vt 0.059028603 0.9926963
vt 0.0013838187 0.0025464166
vt 0.0013838187 0.9926963
vt 0.10722742 0.0025464166
vt 0.107227065 0.9926963
vt 0.44534826 0.9926963
vt 0.44534865 0.0025464166
vt 0.44534865 0.0025464166
vt 0.44534826 0.9926963
vt 0.47093123 0.9926963
vt 0.47093162 0.0025464166
vt 0.5039579 0.9926963
vt 0.5039583 0.0025464166
vt 0.5410113 0.9926963
vt 0.54101163 0.0025464166
vt 0.56628215 0.9926963
vt 0.56628174 0.0025464166
vt 0.56628174 0.0025464166
vt 0.56628215 0.9926963
vt 0.8973554 0.9926963
vt 0.8973549 0.0025464166
vn -0.9999107 0 -0.013365425
vn -0.99469626 0 0.1028562
vn -0.99469626 0 0.1028562
vn -0.9999107 0 -0.013365425
vn -0.99609286 -2.0687291E-07 -0.088311784
vn -0.99609286 -2.0687291E-07 -0.0883118
vn -0.9748845 0 0.22271128
vn -0.9547693 0 0.2973475
vn -0.9547693 0 0.2973475
vn -0.9748845 0 0.22271128
vn -0.99469626 0 0.1028562
vn -0.99469626 0 0.1028562
vn 0.18107669 0 0.983469
vn 0.18107669 0 0.983469
vn 0.18107669 0 0.983469
vn 0.18107669 0 0.983469
vn 0.86831564 0 -0.49601212
vn 0.86831564 0 -0.49601212
vn 0.9282302 0 -0.37200624
vn 0.9282302 0 -0.37200624
vn 0.9813991 0 -0.19197841
vn 0.9813991 0 -0.19197841
vn 0.99884844 0 -0.04797714
vn 0.99884844 0 -0.04797714
vn 0.99827886 0 0.058645647
vn 0.99827886 0 0.058645647
vn 0.07703237 -7.158611E-06 -0.99702865
vn 0.07703237 -7.1586114E-06 -0.99702865
vn 0.07703237 -7.158611E-06 -0.99702865
vn 0.07703237 -7.1586114E-06 -0.99702865
g sector_1DXtra_extrude_0
f 3/3/3 2/2/2 1/1/1
f 2/2/2 4/4/4 1/1/1
f 1/1/1 4/4/4 5/5/5
f 4/4/4 6/6/6 5/5/5
f 9/9/9 8/8/8 7/7/7
f 8/8/8 10/10/10 7/7/7
f 7/7/7 10/10/10 11/11/11
f 10/10/10 12/12/12 11/11/11
f 15/15/15 14/14/14 13/13/13
f 16/16/16 15/15/15 13/13/13
f 19/19/19 18/18/18 17/17/17
f 20/20/20 19/19/19 17/17/17
f 21/21/21 19/19/19 20/20/20
f 22/22/22 21/21/21 20/20/20
f 23/23/23 21/21/21 22/22/22
f 24/24/24 23/23/23 22/22/22
f 25/25/25 23/23/23 24/24/24
f 26/26/26 25/25/25 24/24/24
f 29/29/29 28/28/28 27/27/27
f 30/30/30 29/29/29 27/27/27
