g sector_5MB_lines_upper
v 0.19765963 -3.8146972E-08 -0.15803239
v 0.19474037 -3.8146972E-08 -0.12397619
v 0.19173148 -3.8146972E-08 -0.15013075
v 0.20082687 -3.8146972E-08 -0.13050127
v 0.11786653 -3.8146972E-08 -0.15105909
v 0.31207716 -3.8146972E-08 -0.13063902
v 0.11838375 -3.8146972E-08 -0.14509904
v 0.31862944 -3.8146972E-08 -0.13827997
v 0.021711485 -3.8146972E-08 -0.13198015
v 0.31339362 -3.8146972E-08 0.03162701
v 0.023390867 -3.8146972E-08 -0.12735021
v 0.31862944 -3.8146972E-08 0.03756798
v -0.038560465 -3.8146972E-08 -0.11638204
v 0.17998311 -3.8146972E-08 0.041291032
v -0.04253652 -3.8146972E-08 -0.110562935
v 0.18025409 -3.8146972E-08 0.046786617
v -0.052120566 -3.8146972E-08 -0.14415163
v 0.026325246 3.8146972E-08 0.06578107
v -0.055501685 -3.8146972E-08 -0.13694403
v 0.02674927 3.8146972E-08 0.072080255
v -0.16668054 -3.8146972E-08 -0.10844133
v -0.066386506 -3.8146972E-08 0.09852804
v -0.1583465 -3.8146972E-08 -0.10301925
v -0.06612611 -3.8146972E-08 0.10400297
v -0.15429048 -3.8146972E-08 -0.08022131
v -0.18969892 -3.8146972E-08 0.15013078
v -0.14657594 -3.8146972E-08 -0.07621022
v -0.19220804 -3.8146972E-08 0.15803239
v -0.31862944 -3.8146972E-08 -0.011502585
v -0.30763462 -3.8146972E-08 -0.009351249
vt 0.051330574 0.8214626
vt 0.10178796 0.8073301
vt 0.06153651 0.8102753
vt 0.09370056 0.81836224
vt 0.0390221 0.6992931
vt 0.1252969 0.9859555
vt 0.048146363 0.69836813
vt 0.11566203 0.9980081
vt 0.040268388 0.54902
vt 0.37006155 0.9415501
vt 0.047721617 0.55022573
vt 0.38050604 0.94773734
vt 0.046530332 0.45378548
vt 0.3464776 0.73785836
vt 0.054157812 0.4461336
vt 0.354832 0.7366953
vt 0.0008301414 0.44130132
vt 0.33943483 0.49943352
vt 0.010718907 0.43414852
vt 0.34904325 0.49827138
vt 0.021863328 0.25855422
vt 0.36225086 0.3504391
vt 0.032412004 0.26955605
vt 0.37057108 0.3492661
vt 0.06790743 0.2691474
vt 0.40471748 0.14996672
vt 0.07615391 0.27961954
vt 0.4159008 0.14392886
vt 0.12442387 0.0019920322
vt 0.13080715 0.017936243
vn -0 1 -2.5313994E-07
vn -0 1 -6.3507655E-06
vn -0 1 -2.8202513E-07
vn -0 1 -6.5328745E-06
vn -0 1 0
vn -0 1 -3.3503159E-06
vn -0 1 0
vn -0 1 -3.6440626E-06
vn -0 1 -4.0188056E-06
vn -0 1 0
vn -0 1 -3.2780067E-06
vn -0 1 0
vn -0 1 -5.0804456E-06
vn 2.5137993E-07 1 6.8201134E-06
vn -0 1 -3.3195931E-06
vn 2.7188554E-07 1 7.376444E-06
vn -0 1 8.4374386E-07
vn -0 1 5.509595E-06
vn -0 1 7.731389E-07
vn -0 1 2.8696804E-06
vn -0 1 0
vn -4.2153647E-07 1 -5.7283123E-06
vn -0 1 0
vn -2.6149272E-07 1 -3.553457E-06
vn -0 1 0
vn -0 1 0
vn -0 1 0
vn -0 1 0
vn -0 1 0
vn -0 1 0
g sector_5MB_lines_upper_0
f 3/3/3 2/2/2 1/1/1
f 2/2/2 4/4/4 1/1/1
f 3/3/3 1/1/1 5/5/5
f 2/2/2 6/6/6 4/4/4
f 7/7/7 3/3/3 5/5/5
f 6/6/6 8/8/8 4/4/4
f 7/7/7 5/5/5 9/9/9
f 6/6/6 10/10/10 8/8/8
f 11/11/11 7/7/7 9/9/9
f 10/10/10 12/12/12 8/8/8
f 11/11/11 9/9/9 13/13/13
f 10/10/10 14/14/14 12/12/12
f 15/15/15 11/11/11 13/13/13
f 14/14/14 16/16/16 12/12/12
f 15/15/15 13/13/13 17/17/17
f 14/14/14 18/18/18 16/16/16
f 19/19/19 15/15/15 17/17/17
f 18/18/18 20/20/20 16/16/16
f 19/19/19 17/17/17 21/21/21
f 18/18/18 22/22/22 20/20/20
f 23/23/23 19/19/19 21/21/21
f 22/22/22 24/24/24 20/20/20
f 23/23/23 21/21/21 25/25/25
f 22/22/22 26/26/26 24/24/24
f 27/27/27 23/23/23 25/25/25
f 26/26/26 28/28/28 24/24/24
f 27/27/27 25/25/25 29/29/29
f 26/26/26 30/30/30 28/28/28
f 30/30/30 29/29/29 28/28/28
f 30/30/30 27/27/27 29/29/29
