g sector_2DB_lines_upper
v 0.13024624 3.8146972E-08 -0.074295975
v 0.11948471 -3.8146972E-08 -0.028705997
v 0.11413929 -3.8146972E-08 -0.029689768
v 0.1247895 3.8146972E-08 -0.076110974
v 0.11033271 -3.8146972E-08 0.011990489
v 0.15028633 -3.8146972E-08 -0.12593736
v 0.11575744 -3.8146972E-08 0.012139759
v 0.14398094 -3.8146972E-08 -0.12415502
v 0.11090747 -3.8146972E-08 0.05639612
v 0.08220981 -3.8146972E-08 -0.15004304
v 0.11759975 -3.8146972E-08 0.055722065
v 0.08572048 -3.8146972E-08 -0.14451979
v 0.11970722 -3.8146972E-08 0.10114641
v 0.07561096 3.8146972E-08 -0.13464949
v 0.12552726 -3.8146972E-08 0.099693164
v 0.079704165 3.8146972E-08 -0.12865198
v 0.13196087 -3.8146972E-08 0.13657533
v -0.022158965 -3.8146972E-08 -0.16307057
v 0.13847598 -3.8146972E-08 0.14145014
v -0.02832016 -3.8146972E-08 -0.15957418
v 0.07978344 -3.8146972E-08 0.14775881
v -0.015185928 -3.8146972E-08 -0.17808911
v 0.07768829 -3.8146972E-08 0.15572588
v -0.022152632 -3.8146972E-08 -0.17645356
v 0.07219295 -3.8146972E-08 0.1316269
v -0.093881376 -3.8146972E-08 -0.20277834
v 0.070608824 -3.8146972E-08 0.14004205
v -0.09098938 -3.8146972E-08 -0.19740453
v -0.12668067 -3.8146972E-08 0.19389398
v -0.12740478 -3.8146972E-08 -0.12351869
v -0.1304203 -3.8146972E-08 0.20277834
v -0.12159263 -3.8146972E-08 -0.1216176
v -0.1397029 -3.8146972E-08 0.13690972
v -0.14424004 -3.8146972E-08 -0.052291468
v -0.14468834 -3.8146972E-08 0.13779703
v -0.13818344 -3.8146972E-08 -0.051261194
v -0.14357765 -3.8146972E-08 0.076936126
v -0.15028633 -3.8146972E-08 0.0045612524
v -0.14922798 -3.8146972E-08 0.0772101
v -0.14436203 -3.8146972E-08 0.004841022
vt 0.6918262 0.6793431
vt 0.66478 0.56746584
vt 0.6516587 0.56995386
vt 0.67844236 0.68387514
vt 0.64175344 0.46759105
vt 0.7417511 0.8059666
vt 0.6550807 0.46715245
vt 0.72623444 0.80167073
vt 0.6425776 0.35847366
vt 0.57479846 0.8660988
vt 0.6590302 0.36004123
vt 0.58335143 0.852481
vt 0.6636068 0.24840043
vt 0.5583804 0.82836246
vt 0.6779266 0.25189415
vt 0.5683584 0.8135717
vt 0.6932461 0.16118513
vt 0.31852475 0.8994913
vt 0.70919 0.1491209
vt 0.30333963 0.8909819
vt 0.564892 0.13439715
vt 0.3358572 0.93630135
vt 0.5596385 0.1148489
vt 0.31871757 0.9323749
vt 0.54645497 0.17413566
vt 0.14282039 0.99800795
vt 0.5424512 0.15347965
vt 0.14985518 0.9847656
vt 0.056974575 0.02377239
vt 0.059399642 0.8037018
vt 0.047668204 0.0019920322
vt 0.07365558 0.7989536
vt 0.025732217 0.16396183
vt 0.01709003 0.6289112
vt 0.013470693 0.16184764
vt 0.031958144 0.62629956
vt 0.01700591 0.3113752
vt 0.0014805412 0.48929757
vt 0.0031187634 0.3107769
vt 0.016033536 0.48853168
vn -1.919775E-07 1 0
vn -2.1634054E-07 1 7.926354E-07
vn -2.2203974E-07 1 7.687207E-07
vn -1.8696888E-07 1 0
vn -0 1 1.1612119E-06
vn -0 1 0
vn -0 1 1.163996E-06
vn -0 1 0
vn -0 1 3.4550192E-07
vn 1.5990285E-06 1 -2.7759247E-06
vn -0 1 3.4257585E-07
vn 1.1316055E-06 1 -1.964475E-06
vn -0 1 0
vn -0 1 -1.1232236E-05
vn -0 1 0
vn 3.7938963E-07 1 -1.0985117E-05
vn -0 1 0
vn -5.901599E-07 1 -9.945879E-06
vn -0 1 0
vn -6.067016E-07 1 -1.0224652E-05
vn -0 1 0
vn -0 1 0
vn -0 1 0
vn -0 1 0
vn -0 1 -7.5591392E-06
vn -0 1 0
vn -0 1 -7.296547E-06
vn -0 1 0
vn -0 1 -5.881162E-06
vn -0 1 1.6980173E-06
vn -0 1 -6.488719E-06
vn -0 1 1.7068107E-06
vn -0 1 1.7346732E-06
vn -0 1 1.4534693E-06
vn -0 1 1.7566613E-06
vn -0 1 1.4571865E-06
vn -0 1 0
vn -0 1 -1.0024369E-06
vn -0 1 0
vn -0 1 -1.0024739E-06
g sector_2DB_lines_upper_0
f 3/3/3 2/2/2 1/1/1
f 4/4/4 3/3/3 1/1/1
f 3/3/3 5/5/5 2/2/2
f 4/4/4 1/1/1 6/6/6
f 5/5/5 7/7/7 2/2/2
f 8/8/8 4/4/4 6/6/6
f 5/5/5 9/9/9 7/7/7
f 8/8/8 6/6/6 10/10/10
f 9/9/9 11/11/11 7/7/7
f 12/12/12 8/8/8 10/10/10
f 9/9/9 13/13/13 11/11/11
f 12/12/12 10/10/10 14/14/14
f 13/13/13 15/15/15 11/11/11
f 16/16/16 12/12/12 14/14/14
f 13/13/13 17/17/17 15/15/15
f 16/16/16 14/14/14 18/18/18
f 17/17/17 19/19/19 15/15/15
f 20/20/20 16/16/16 18/18/18
f 17/17/17 21/21/21 19/19/19
f 20/20/20 18/18/18 22/22/22
f 21/21/21 23/23/23 19/19/19
f 24/24/24 20/20/20 22/22/22
f 21/21/21 25/25/25 23/23/23
f 24/24/24 22/22/22 26/26/26
f 25/25/25 27/27/27 23/23/23
f 28/28/28 24/24/24 26/26/26
f 25/25/25 29/29/29 27/27/27
f 28/28/28 26/26/26 30/30/30
f 29/29/29 31/31/31 27/27/27
f 32/32/32 28/28/28 30/30/30
f 29/29/29 33/33/33 31/31/31
f 32/32/32 30/30/30 34/34/34
f 33/33/33 35/35/35 31/31/31
f 36/36/36 32/32/32 34/34/34
f 33/33/33 37/37/37 35/35/35
f 36/36/36 34/34/34 38/38/38
f 37/37/37 39/39/39 35/35/35
f 40/40/40 36/36/36 38/38/38
f 40/40/40 38/38/38 39/39/39
f 37/37/37 40/40/40 39/39/39
