g sector_4L_extrude
v -0.07141929 -0.03999996 -0.24027996
v -0.115990065 0.040000036 -0.26938123
v -0.115990065 -0.03999996 -0.26938123
v -0.07141929 0.040000036 -0.24027996
v -0.029026335 -0.03999996 -0.21177562
v -0.029026335 0.040000036 -0.21177562
v -0.115990065 -0.03999996 -0.26938123
v -0.115990065 0.040000036 -0.26938123
v -0.13479003 0.040000036 -0.2479924
v -0.13479003 -0.03999996 -0.2479924
v -0.045244675 -0.03999996 -0.19051868
v -0.045244675 0.040000036 -0.19051868
v -0.029026335 0.040000036 -0.21177562
v -0.029026335 -0.03999996 -0.21177562
v -0.13479003 -0.03999996 -0.2479924
v -0.13479003 0.040000036 -0.2479924
v -0.18811668 0.040000036 -0.27581668
v -0.18811668 -0.03999996 -0.27581668
v -0.18811668 -0.03999996 -0.27581668
v -0.18811668 0.040000036 -0.27581668
v -0.3056095 0.040000036 -0.11834251
v -0.30560935 -0.03999996 -0.118342705
v -0.30560935 -0.03999996 -0.118342705
v -0.3056095 0.040000036 -0.11834251
v -0.19119075 0.040000036 -0.03966178
v -0.1911906 -0.03999996 -0.039661974
v 0.26775864 -0.03999996 0.13441797
v 0.26775864 0.040000036 0.13441797
v 0.29154068 0.040000036 0.123641096
v 0.29154068 -0.03999996 0.123641096
v 0.29154068 -0.03999996 0.123641096
v 0.29154068 0.040000036 0.123641096
v 0.2314785 0.040000036 0.03379633
v 0.23147865 -0.03999996 0.033796195
v 0.1590889 0.040000036 -0.046529252
v 0.15908904 -0.03999996 -0.046529386
v 0.15908904 -0.03999996 -0.046529386
v 0.1590889 0.040000036 -0.046529252
v 0.13874748 0.040000036 -0.036753185
v 0.13874748 -0.03999996 -0.036753185
v 0.1638771 -0.03999996 0.27581668
v 0.16387717 0.040000036 0.27581656
v 0.27415487 0.040000036 0.24556899
v 0.27415487 -0.03999996 0.24556899
v 0.27415487 -0.03999996 0.24556899
v 0.27415487 0.040000036 0.24556899
v 0.25988746 0.040000036 0.2144165
v 0.25988746 -0.03999996 0.2144165
v 0.15029205 -0.040000036 0.24620017
v 0.15029189 0.03999996 0.2461993
v 0.16387717 0.040000036 0.27581656
v 0.1638771 -0.03999996 0.27581668
v 0.052287214 -0.03999996 -0.11743665
v -0.045244675 0.040000036 -0.19051868
v -0.045244675 -0.03999996 -0.19051868
v 0.052287214 0.040000036 -0.11743665
v 0.13874748 -0.03999996 -0.036753185
v 0.13874748 0.040000036 -0.036753185
v -0.09774063 -0.03999996 0.030725708
v -0.09774063 0.040000036 0.030725708
v 0.006301422 0.040000036 0.14629404
v 0.006301422 -0.03999996 0.14629404
v 0.057949904 0.040000036 0.22570911
v 0.057949673 -0.03999996 0.22570923
v 0.08381142 0.040000036 0.2713893
v 0.08381142 -0.03999996 0.27139017
v 0.3056095 -0.03999996 0.20036739
v 0.3056095 0.040000036 0.20036739
v 0.26775864 0.040000036 0.13441797
v 0.26775864 -0.03999996 0.13441797
v 0.25988746 -0.03999996 0.2144165
v 0.25988746 0.040000036 0.2144165
v 0.3056095 0.040000036 0.20036739
v 0.3056095 -0.03999996 0.20036739
v 0.08381142 -0.03999996 0.27139017
v 0.08381142 0.040000036 0.2713893
v 0.15029189 0.03999996 0.2461993
v 0.15029205 -0.040000036 0.24620017
v -0.21112274 -0.03999996 -0.018062605
v -0.21112274 0.040000036 -0.018062605
v -0.12836441 0.040000036 0.051762447
v -0.12836441 -0.03999996 0.051762447
v -0.12836441 -0.03999996 0.051762447
v -0.12836441 0.040000036 0.051762447
v -0.09774063 0.040000036 0.030725708
v -0.09774063 -0.03999996 0.030725708
v -0.1911906 -0.03999996 -0.039661974
v -0.19119075 0.040000036 -0.03966178
v -0.21112274 0.040000036 -0.018062605
v -0.21112274 -0.03999996 -0.018062605
vt 0.07521335 0.0025464296
vt 0.047509708 0.9926963
vt 0.04750959 0.0025464296
vt 0.07521347 0.9926963
vt 0.1018006 0.0025464296
vt 0.10180072 0.9926963
vt 0.04750959 0.0025464296
vt 0.047509708 0.9926963
vt 0.032688893 0.9926963
vt 0.032688774 0.0025464296
vt 0.115716256 0.0025464296
vt 0.115716375 0.9926963
vt 0.10180072 0.9926963
vt 0.1018006 0.0025464296
vt 0.032688774 0.0025464296
vt 0.032688893 0.9926963
vt 0.0013838187 0.9926963
vt 0.0013838187 0.0025464296
vt 0.99739987 0.0025464296
vt 0.99739987 0.9926963
vt 0.8951432 0.9926963
vt 0.89514345 0.0025464296
vt 0.89514345 0.0025464296
vt 0.8951432 0.9926963
vt 0.8228726 0.9926963
vt 0.82287294 0.0025464296
vt 0.37855375 0.0025464296
vt 0.37855375 0.9926963
vt 0.36496478 0.9926963
vt 0.36496478 0.0025464296
vt 0.36496478 0.0025464296
vt 0.36496478 0.9926963
vt 0.30871835 0.9926963
vt 0.3087183 0.0025464296
vt 0.25244084 0.9926963
vt 0.25244078 0.0025464296
vt 0.25244078 0.0025464296
vt 0.25244084 0.9926963
vt 0.24069485 0.9926963
vt 0.24069473 0.0025464296
vt 0.5203703 0.0025464296
vt 0.52037024 0.9926963
vt 0.46085605 0.9926963
vt 0.46085602 0.0025464296
vt 0.46085602 0.0025464296
vt 0.46085605 0.9926963
vt 0.44302312 0.9926963
vt 0.4430231 0.0025464296
vt 0.5373286 0.0025464296
vt 0.53732896 0.9926963
vt 0.52037024 0.9926963
vt 0.5203703 0.0025464296
vt 0.17914638 0.0025464296
vt 0.115716375 0.9926963
vt 0.115716256 0.0025464296
vt 0.1791465 0.9926963
vt 0.24069473 0.0025464296
vt 0.24069485 0.9926963
vt 0.73188525 0.0025464296
vt 0.73188514 0.9926963
vt 0.65095365 0.9926963
vt 0.65095377 0.0025464296
vt 0.6016496 0.9926963
vt 0.6016497 0.0025464296
vt 0.5743295 0.9926963
vt 0.5743292 0.0025464296
vt 0.41812885 0.0025464296
vt 0.4181288 0.9926963
vt 0.37855375 0.9926963
vt 0.37855375 0.0025464296
vt 0.4430231 0.0025464296
vt 0.44302312 0.9926963
vt 0.4181288 0.9926963
vt 0.41812885 0.0025464296
vt 0.5743292 0.0025464296
vt 0.5743295 0.9926963
vt 0.53732896 0.9926963
vt 0.5373286 0.0025464296
vt 0.80757636 0.0025464296
vt 0.80757624 0.9926963
vt 0.7512216 0.9926963
vt 0.7512217 0.0025464296
vt 0.7512217 0.0025464296
vt 0.7512216 0.9926963
vt 0.73188514 0.9926963
vt 0.73188525 0.0025464296
vt 0.82287294 0.0025464296
vt 0.8228726 0.9926963
vt 0.80757624 0.9926963
vt 0.80757636 0.0025464296
vn 0.55224055 0 -0.8336848
vn 0.54670745 0 -0.8373237
vn 0.54670745 0 -0.8373237
vn 0.55224055 0 -0.8336848
vn 0.55798006 0 -0.8298543
vn 0.55798006 0 -0.8298543
vn -0.7510998 0 -0.66018873
vn -0.7510998 0 -0.66018873
vn -0.7510998 0 -0.66018873
vn -0.7510998 0 -0.66018873
vn 0.79502475 0 0.6065771
vn 0.79502475 0 0.6065771
vn 0.79502475 0 0.6065771
vn 0.79502475 0 0.6065771
vn 0.4625883 0 -0.88657314
vn 0.4625883 0 -0.88657314
vn 0.4625883 0 -0.88657314
vn 0.4625883 0 -0.88657314
vn -0.8014948 0 -0.5980017
vn -0.8014948 0 -0.5980017
vn -0.8014949 0 -0.5980018
vn -0.8014949 0 -0.5980018
vn -0.5666159 -3.2156872E-06 0.82398206
vn -0.5666159 -3.2156875E-06 0.823982
vn -0.5666159 -3.2156872E-06 0.82398206
vn -0.5666159 -3.2156875E-06 0.823982
vn 0.41275024 0 0.91084427
vn 0.41275024 0 0.91084427
vn 0.41275024 0 0.91084427
vn 0.41275024 0 0.91084427
vn 0.83134264 2.1178648E-06 -0.55576026
vn 0.83134264 2.1178648E-06 -0.55576026
vn 0.7891344 2.1644105E-06 -0.61422056
vn 0.7891344 2.1644105E-06 -0.61422056
vn 0.74285 2.1996868E-06 -0.6694579
vn 0.74285 2.1996868E-06 -0.6694579
vn -0.43317115 1.4751308E-07 -0.9013117
vn -0.4331711 1.4751308E-07 -0.9013117
vn -0.43317106 1.4751306E-07 -0.9013117
vn -0.43317106 1.4751306E-07 -0.9013117
vn 0.2645162 3.0185296E-07 0.9643813
vn 0.2645162 3.0185294E-07 0.9643813
vn 0.2645162 3.0185294E-07 0.9643813
vn 0.2645162 3.0185294E-07 0.9643813
vn 0.9091844 0 -0.41639373
vn 0.9091844 0 -0.41639373
vn 0.9091844 0 -0.41639373
vn 0.9091844 0 -0.41639373
vn -0.90893996 7.108387E-07 0.41692695
vn -0.90893996 7.108387E-07 0.41692695
vn -0.90893996 7.108387E-07 0.41692692
vn -0.90893996 7.108389E-07 0.41692698
vn 0.64126354 0 -0.7673208
vn 0.5996488 0 -0.8002633
vn 0.5996488 0 -0.8002633
vn 0.64126354 0 -0.7673208
vn 0.68226045 0 -0.73110926
vn 0.68226045 0 -0.73110926
vn -0.7431965 0 0.6690732
vn -0.7431965 0 0.6690732
vn -0.78144777 6.1153634E-07 0.6239707
vn -0.78144777 6.1153634E-07 0.6239707
vn -0.8500528 2.4254E-06 0.52669746
vn -0.8500528 2.4254E-06 0.5266975
vn -0.8702188 3.892683E-06 0.4926654
vn -0.8702188 3.8926833E-06 0.4926654
vn 0.867304 0 -0.49777868
vn 0.867304 0 -0.49777868
vn 0.867304 0 -0.49777868
vn 0.867304 0 -0.49777868
vn 0.29371893 0 0.9558919
vn 0.29371893 0 0.9558919
vn 0.29371893 0 0.9558919
vn 0.29371893 0 0.9558919
vn 0.3543257 1.0260845E-05 0.9351221
vn 0.3543257 1.02608465E-05 0.9351221
vn 0.35432568 1.0260845E-05 0.9351221
vn 0.35432568 1.02608465E-05 0.9351221
vn -0.64485854 0 0.7643019
vn -0.64485854 0 0.7643019
vn -0.64485854 0 0.7643019
vn -0.64485854 0 0.7643019
vn 0.56621605 0 0.82425684
vn 0.56621605 0 0.82425684
vn 0.56621605 0 0.82425684
vn 0.56621605 0 0.82425684
vn -0.73490036 1.6140878E-07 -0.6781752
vn -0.73490036 1.6140875E-07 -0.6781752
vn -0.73490036 1.6140875E-07 -0.6781751
vn -0.73490036 1.6140875E-07 -0.6781751
g sector_4L_extrude_0
f 3/3/3 2/2/2 1/1/1
f 2/2/2 4/4/4 1/1/1
f 1/1/1 4/4/4 5/5/5
f 4/4/4 6/6/6 5/5/5
f 9/9/9 8/8/8 7/7/7
f 10/10/10 9/9/9 7/7/7
f 13/13/13 12/12/12 11/11/11
f 14/14/14 13/13/13 11/11/11
f 17/17/17 16/16/16 15/15/15
f 18/18/18 17/17/17 15/15/15
f 21/21/21 20/20/20 19/19/19
f 22/22/22 21/21/21 19/19/19
f 25/25/25 24/24/24 23/23/23
f 26/26/26 25/25/25 23/23/23
f 29/29/29 28/28/28 27/27/27
f 30/30/30 29/29/29 27/27/27
f 33/33/33 32/32/32 31/31/31
f 34/34/34 33/33/33 31/31/31
f 35/35/35 33/33/33 34/34/34
f 36/36/36 35/35/35 34/34/34
f 39/39/39 38/38/38 37/37/37
f 40/40/40 39/39/39 37/37/37
f 43/43/43 42/42/42 41/41/41
f 44/44/44 43/43/43 41/41/41
f 47/47/47 46/46/46 45/45/45
f 48/48/48 47/47/47 45/45/45
f 51/51/51 50/50/50 49/49/49
f 52/52/52 51/51/51 49/49/49
f 55/55/55 54/54/54 53/53/53
f 54/54/54 56/56/56 53/53/53
f 53/53/53 56/56/56 57/57/57
f 56/56/56 58/58/58 57/57/57
f 61/61/61 60/60/60 59/59/59
f 62/62/62 61/61/61 59/59/59
f 63/63/63 61/61/61 62/62/62
f 64/64/64 63/63/63 62/62/62
f 65/65/65 63/63/63 64/64/64
f 66/66/66 65/65/65 64/64/64
f 69/69/69 68/68/68 67/67/67
f 70/70/70 69/69/69 67/67/67
f 73/73/73 72/72/72 71/71/71
f 74/74/74 73/73/73 71/71/71
f 77/77/77 76/76/76 75/75/75
f 78/78/78 77/77/77 75/75/75
f 81/81/81 80/80/80 79/79/79
f 82/82/82 81/81/81 79/79/79
f 85/85/85 84/84/84 83/83/83
f 86/86/86 85/85/85 83/83/83
f 89/89/89 88/88/88 87/87/87
f 90/90/90 89/89/89 87/87/87
