g sector_6LB_extrude
v -0.0001730156 -0.040000036 -0.10028716
v -0.00017316818 0.03999996 -0.100286625
v -0.15206967 0.03999996 -0.14498946
v -0.15206942 -0.040000036 -0.14499041
v -0.22969438 0.03999996 -0.16283672
v -0.22969426 -0.040000036 -0.16283713
v -0.22432126 -0.040000036 -0.00014544486
v -0.22432111 0.03999996 -0.00014567375
v -0.09877199 0.03999996 0.039782684
v -0.098772064 -0.040000036 0.039782953
v -0.22969426 -0.040000036 -0.16283713
v -0.22969438 0.03999996 -0.16283672
v -0.2872446 0.03999996 0.015446863
v -0.28724474 -0.040000036 0.015447435
v -0.28724474 -0.040000036 0.015447435
v -0.2872446 0.03999996 0.015446863
v -0.2381513 0.03999996 0.028027352
v -0.23815152 -0.040000036 0.028027887
v -0.23815152 -0.040000036 0.028027887
v -0.2381513 0.03999996 0.028027352
v -0.22432111 0.03999996 -0.00014567375
v -0.22432126 -0.040000036 -0.00014544486
v 0.09582994 -0.040000036 -0.05509154
v 0.09582994 0.03999996 -0.05509154
v 0.14517824 0.03999996 -0.13259898
v 0.14517824 -0.040000036 -0.13259898
v 0.14517824 -0.040000036 -0.13259898
v 0.14517824 0.03999996 -0.13259898
v 0.04371828 0.03999996 -0.17497616
v 0.04371828 -0.040000036 -0.17497616
v 0.04371828 -0.040000036 -0.17497616
v 0.04371828 0.03999996 -0.17497616
v -0.00017316818 0.03999996 -0.100286625
v -0.0001730156 -0.040000036 -0.10028716
v -0.098772064 -0.040000036 0.039782953
v -0.09877199 0.03999996 0.039782684
v -0.110513665 0.03999996 0.06823901
v -0.110513665 -0.040000036 0.06823901
v -0.110513665 -0.040000036 0.06823901
v -0.110513665 0.03999996 0.06823901
v 0.048650607 0.040000036 0.13651384
v 0.048650607 -0.03999996 0.13651384
v 0.09373857 0.040000036 0.1621465
v 0.09373857 -0.03999996 0.1621465
v 0.16363695 -0.040000036 0.17497616
v 0.16363703 0.03999996 0.17497616
v 0.28724474 0.03999996 0.04015107
v 0.28724474 -0.040000036 0.04015107
v 0.28724474 -0.040000036 0.04015107
v 0.28724474 0.03999996 0.04015107
v 0.1975673 0.03999996 -0.009490995
v 0.1975673 -0.040000036 -0.009490995
v 0.09582994 0.03999996 -0.05509154
v 0.09582994 -0.040000036 -0.05509154
v 0.11344141 -0.03999996 0.14220029
v 0.11344148 0.040000036 0.14220029
v 0.16363703 0.03999996 0.17497616
v 0.16363695 -0.040000036 0.17497616
v 0.09373857 -0.03999996 0.1621465
v 0.09373857 0.040000036 0.1621465
v 0.11344148 0.040000036 0.14220029
v 0.11344141 -0.03999996 0.14220029
vt 0.855318 0.0025464166
vt 0.85531825 0.9926963
vt 0.9498479 0.9926963
vt 0.9498475 0.0025464166
vt 0.99739987 0.9926963
vt 0.99739987 0.0025464166
vt 0.16222325 0.0025464166
vt 0.16222313 0.9926963
vt 0.2408767 0.9926963
vt 0.24087688 0.0025464166
vt 0.0013838187 0.0025464166
vt 0.0013838187 0.9926963
vt 0.11322985 0.9926963
vt 0.11322985 0.0025464166
vt 0.11322985 0.0025464166
vt 0.11322985 0.9926963
vt 0.14348611 0.9926963
vt 0.14348611 0.0025464166
vt 0.14348611 0.0025464166
vt 0.14348611 0.9926963
vt 0.16222313 0.9926963
vt 0.16222325 0.0025464166
vt 0.68309855 0.0025464166
vt 0.6830985 0.9926963
vt 0.7379543 0.9926963
vt 0.7379543 0.0025464166
vt 0.7379543 0.0025464166
vt 0.7379543 0.9926963
vt 0.80359834 0.9926963
vt 0.80359834 0.0025464166
vt 0.80359834 0.0025464166
vt 0.80359834 0.9926963
vt 0.85531825 0.9926963
vt 0.855318 0.0025464166
vt 0.24087688 0.0025464166
vt 0.2408767 0.9926963
vt 0.2592549 0.9926963
vt 0.2592549 0.0025464166
vt 0.2592549 0.0025464166
vt 0.2592549 0.9926963
vt 0.36265123 0.9926963
vt 0.3626513 0.0025464166
vt 0.39361513 0.9926963
vt 0.3936152 0.0025464166
vt 0.44614348 0.0025464166
vt 0.44614345 0.9926963
vt 0.55534387 0.9926963
vt 0.5553439 0.0025464166
vt 0.5553439 0.0025464166
vt 0.55534387 0.9926963
vt 0.616538 0.9926963
vt 0.616538 0.0025464166
vt 0.6830985 0.9926963
vt 0.68309855 0.0025464166
vt 0.41035336 0.0025464166
vt 0.41035336 0.9926963
vt 0.44614345 0.9926963
vt 0.44614348 0.0025464166
vt 0.3936152 0.0025464166
vt 0.39361513 0.9926963
vt 0.41035336 0.9926963
vt 0.41035336 0.0025464166
vn 0.28232682 9.575458E-06 -0.9593183
vn 0.28232682 9.575458E-06 -0.9593183
vn 0.26293477 9.346532E-06 -0.96481365
vn 0.26293477 9.346532E-06 -0.96481365
vn 0.22406758 8.8801635E-06 -0.97457355
vn 0.22406758 8.8801635E-06 -0.97457355
vn -0.30307224 3.430857E-06 0.95296764
vn -0.30307218 3.4308564E-06 0.95296764
vn -0.30307224 3.4308566E-06 0.95296764
vn -0.3030722 3.4308566E-06 0.95296764
vn -0.95164716 3.98057E-07 -0.3071931
vn -0.95164716 3.9805698E-07 -0.3071931
vn -0.9516473 3.9805704E-07 -0.3071931
vn -0.9516473 3.98057E-07 -0.3071931
vn -0.2482353 7.1849045E-06 0.9686998
vn -0.24823533 7.184904E-06 0.9686998
vn -0.24823533 7.184904E-06 0.9686998
vn -0.2482353 7.184904E-06 0.9686998
vn 0.8976707 -1.2027853E-07 0.4406669
vn 0.8976707 -1.202785E-07 0.4406669
vn 0.8976707 -1.202785E-07 0.44066697
vn 0.8976707 -1.2027851E-07 0.4406669
vn 0.8435364 0 0.5370721
vn 0.8435364 0 0.5370721
vn 0.8435364 0 0.5370721
vn 0.8435364 0 0.5370721
vn 0.38540703 0 -0.92274666
vn 0.38540703 0 -0.92274666
vn 0.38540703 0 -0.92274666
vn 0.38540703 0 -0.92274666
vn -0.86215353 8.806768E-07 -0.50664717
vn -0.86215353 8.806768E-07 -0.50664717
vn -0.86215353 8.806767E-07 -0.50664717
vn -0.86215353 8.806767E-07 -0.50664717
vn -0.9243991 -9.2342253E-07 -0.38142684
vn -0.9243991 -9.234225E-07 -0.38142678
vn -0.9243991 -9.234225E-07 -0.38142678
vn -0.9243991 -9.234225E-07 -0.38142678
vn -0.39421967 0 0.9190162
vn -0.39421967 0 0.9190162
vn -0.41772735 0 0.9085724
vn -0.41772735 0 0.9085724
vn -0.49422053 0 0.8693366
vn -0.49422053 0 0.8693366
vn 0.7371049 0 0.6757783
vn 0.73710495 0 0.6757784
vn 0.73710483 0 0.67577845
vn 0.73710483 0 0.67577845
vn 0.4843099 0 -0.8748966
vn 0.4843099 0 -0.8748966
vn 0.44547364 0 -0.895295
vn 0.44547364 0 -0.895295
vn 0.4090122 0 -0.912529
vn 0.4090122 0 -0.912529
vn -0.5467317 9.544901E-07 0.83730793
vn -0.5467317 9.544901E-07 0.83730793
vn -0.5467317 9.544901E-07 0.83730793
vn -0.5467317 9.544901E-07 0.83730793
vn 0.7114329 -6.8030477E-07 0.70275414
vn 0.7114329 -6.8030477E-07 0.70275414
vn 0.71143275 -6.8030477E-07 0.70275414
vn 0.7114329 -6.8030477E-07 0.70275414
g sector_6LB_extrude_0
f 3/3/3 2/2/2 1/1/1
f 4/4/4 3/3/3 1/1/1
f 5/5/5 3/3/3 4/4/4
f 6/6/6 5/5/5 4/4/4
f 9/9/9 8/8/8 7/7/7
f 10/10/10 9/9/9 7/7/7
f 13/13/13 12/12/12 11/11/11
f 14/14/14 13/13/13 11/11/11
f 17/17/17 16/16/16 15/15/15
f 18/18/18 17/17/17 15/15/15
f 21/21/21 20/20/20 19/19/19
f 22/22/22 21/21/21 19/19/19
f 25/25/25 24/24/24 23/23/23
f 26/26/26 25/25/25 23/23/23
f 29/29/29 28/28/28 27/27/27
f 30/30/30 29/29/29 27/27/27
f 33/33/33 32/32/32 31/31/31
f 34/34/34 33/33/33 31/31/31
f 37/37/37 36/36/36 35/35/35
f 38/38/38 37/37/37 35/35/35
f 41/41/41 40/40/40 39/39/39
f 42/42/42 41/41/41 39/39/39
f 43/43/43 41/41/41 42/42/42
f 44/44/44 43/43/43 42/42/42
f 47/47/47 46/46/46 45/45/45
f 48/48/48 47/47/47 45/45/45
f 51/51/51 50/50/50 49/49/49
f 52/52/52 51/51/51 49/49/49
f 53/53/53 51/51/51 52/52/52
f 54/54/54 53/53/53 52/52/52
f 57/57/57 56/56/56 55/55/55
f 58/58/58 57/57/57 55/55/55
f 61/61/61 60/60/60 59/59/59
f 62/62/62 61/61/61 59/59/59
