g sector_fill_1D
v -0.17080829 -3.8146972E-08 0.12760243
v 0.09799775 -3.8146972E-08 0.11607036
v 0.09045329 -3.8146972E-08 0.15073723
v -0.1600468 -3.8146972E-08 0.082012445
v 0.11320037 -3.8146972E-08 0.08514431
v -0.14000691 -3.8146972E-08 0.030371321
v -0.11072041 3.8146972E-08 -0.019888649
v 0.13668634 -3.8146972E-08 0.056910705
v -0.07502404 -3.8146972E-08 -0.0662822
v -0.024453439 -3.8146972E-08 -0.114830054
v 0.17080829 -3.8146972E-08 0.033294182
v 0.037912454 -3.8146972E-08 -0.15073723
vt 0.98610145 0.0019920322
vt 0.7880744 0.8236061
vt 0.8994941 0.8213051
vt 0.8390668 0.007607183
vt 0.6835572 0.85177445
vt 0.66777176 0.038165152
vt 0.49514535 0.098060094
vt 0.582332 0.9071033
vt 0.33056232 0.18005024
vt 0.15034835 0.30658752
vt 0.48891002 0.9980081
vt 0.0019682667 0.4771241
vn -0 1 -9.2856635E-07
vn -0 1 -9.2856646E-07
vn -0 1 -9.285663E-07
vn -0 1 -9.2856646E-07
vn -0 1 9.4224873E-07
vn -0 1 9.422487E-07
vn 5.021173E-07 1 2.6527303E-07
vn -0 1 -4.710431E-07
vn 5.021173E-07 1 2.6527306E-07
vn -0 1 -4.710431E-07
vn -0 1 -4.710431E-07
vn -0 1 -4.7104314E-07
g sector_fill_1D_0
f 3/3/3 2/2/2 1/1/1
f 2/2/2 4/4/4 1/1/1
f 2/2/2 5/5/5 4/4/4
f 5/5/5 6/6/6 4/4/4
f 5/5/5 7/7/7 6/6/6
f 5/5/5 8/8/8 7/7/7
f 8/8/8 9/9/9 7/7/7
f 8/8/8 10/10/10 9/9/9
f 10/10/10 8/8/8 11/11/11
f 12/12/12 10/10/10 11/11/11
