g sector_1LXtra_lines_upper
v 0.12081638 0 0.085078254
v -0.13287213 0 0.03047758
v 0.11572708 0 0.07655645
v -0.14353493 0 0.033312816
v 0.1337651 0 0.043321133
v -0.12087545 0 0.012476635
v 0.1265554 0 0.040161874
v -0.12927555 0 0.012013607
v 0.14169262 0 -0.0006501198
v -0.11672519 0 -0.008283329
v 0.1337942 0 -0.0021154212
v -0.122897506 0 -0.010919513
v 0.14353493 0 -0.044232424
v -0.1132702 0 -0.038516443
v 0.13639595 0 -0.043907985
v -0.119326115 0 -0.03875574
v 0.13980766 0 -0.085078254
v -0.11422304 0 -0.055908564
v 0.1337532 0 -0.07782766
v -0.12145393 0 -0.061943453
vt 0.0011950277 0.06727713
vt 0.16437347 0.96100754
vt 0.030455854 0.08602276
vt 0.15328014 0.998008
vt 0.14873846 0.026555708
vt 0.22868258 0.9210063
vt 0.15900113 0.052131783
vt 0.22937953 0.95045155
vt 0.30347785 0.0036483088
vt 0.30178383 0.9087653
vt 0.30773723 0.03144816
vt 0.31033015 0.93065375
vt 0.45618737 0.001992032
vt 0.40795794 0.8999985
vt 0.45426735 0.026937695
vt 0.40812966 0.9212161
vt 0.59870887 0.019524498
vt 0.46871325 0.9052444
vt 0.5726715 0.03991381
vt 0.48903623 0.9312107
vn -0 1 -1.2030799E-05
vn -0 1 -1.4369207E-05
vn -0 1 -1.200482E-05
vn -0 1 -1.3734891E-05
vn -0 1 2.6205637E-06
vn -0 1 -1.7034465E-06
vn -0 1 2.0615623E-06
vn -0 1 -2.7309145E-06
vn -0 1 5.4445917E-07
vn -0 1 -9.198057E-07
vn -0 1 5.978145E-07
vn -0 1 -1.2191372E-06
vn -0 1 6.48508E-07
vn -0 1 -6.218595E-07
vn -0 1 6.700783E-07
vn -0 1 -5.881819E-07
vn -0 1 0
vn -0 1 1.0245174E-07
vn -0 1 0
vn -0 1 1.03966464E-07
g sector_1LXtra_lines_upper_0
f 3/3/3 2/2/2 1/1/1
f 2/2/2 4/4/4 1/1/1
f 3/3/3 1/1/1 5/5/5
f 2/2/2 6/6/6 4/4/4
f 7/7/7 3/3/3 5/5/5
f 6/6/6 8/8/8 4/4/4
f 7/7/7 5/5/5 9/9/9
f 6/6/6 10/10/10 8/8/8
f 11/11/11 7/7/7 9/9/9
f 10/10/10 12/12/12 8/8/8
f 11/11/11 9/9/9 13/13/13
f 10/10/10 14/14/14 12/12/12
f 15/15/15 11/11/11 13/13/13
f 14/14/14 16/16/16 12/12/12
f 15/15/15 13/13/13 17/17/17
f 14/14/14 18/18/18 16/16/16
f 19/19/19 15/15/15 17/17/17
f 18/18/18 20/20/20 16/16/16
f 19/19/19 17/17/17 20/20/20
f 18/18/18 19/19/19 20/20/20
