g sector_fill_2DB
v 0.07768829 -3.8146972E-08 0.15572588
v 0.12552726 -3.8146972E-08 0.099693164
v 0.13847598 -3.8146972E-08 0.14145014
v 0.070608824 -3.8146972E-08 0.14004205
v -0.1304203 -3.8146972E-08 0.20277834
v -0.14468834 -3.8146972E-08 0.13779703
v 0.11759975 -3.8146972E-08 0.055722065
v -0.14922798 -3.8146972E-08 0.0772101
v 0.11575744 -3.8146972E-08 0.012139759
v -0.15028633 -3.8146972E-08 0.0045612524
v 0.11948471 -3.8146972E-08 -0.028705997
v -0.14424004 -3.8146972E-08 -0.052291468
v 0.13024624 3.8146972E-08 -0.074295975
v -0.12740478 -3.8146972E-08 -0.12351869
v -0.022158965 -3.8146972E-08 -0.16307057
v -0.093881376 -3.8146972E-08 -0.20277834
v -0.015185928 -3.8146972E-08 -0.17808911
v 0.07561096 3.8146972E-08 -0.13464949
v 0.15028633 -3.8146972E-08 -0.12593736
v 0.08220981 -3.8146972E-08 -0.15004304
vt 0.56211805 0.11872832
vt 0.679258 0.25658834
vt 0.71129376 0.1541319
vt 0.5446446 0.15719722
vt 0.05139972 0.0019920322
vt 0.015990606 0.16146529
vt 0.6595386 0.36450848
vt 0.004493187 0.31020355
vt 0.65476286 0.4715101
vt 0.0014745442 0.48858026
vt 0.6636788 0.57182395
vt 0.01599203 0.6282109
vt 0.6898387 0.68382835
vt 0.056917388 0.8032003
vt 0.3151095 0.9009241
vt 0.13877237 0.9980081
vt 0.33214435 0.9378411
vt 0.55533826 0.83170444
vt 0.7387466 0.8107446
vt 0.5714522 0.8695399
vn -0 1 -5.914037E-07
vn -0 1 -5.914036E-07
vn -0 1 -5.914036E-07
vn -0 1 -5.914036E-07
vn -0 1 7.371863E-07
vn -0 1 -1.3409571E-07
vn -0 1 -8.8632856E-07
vn -0 1 -8.863286E-07
vn -0 1 -8.8632856E-07
vn -0 1 -8.8632873E-07
vn -2.2994963E-07 1 -1.4551827E-06
vn -2.2994963E-07 1 -1.4551827E-06
vn -1.3479183E-07 1 1.0905509E-06
vn -1.3479183E-07 1 1.0905509E-06
vn -0 1 5.0710514E-06
vn -0 1 5.071052E-06
vn -0 1 5.071052E-06
vn -1.0590245E-06 1 0
vn 1.2302017E-06 1 -1.1652513E-06
vn 1.2302017E-06 1 -1.1652513E-06
g sector_fill_2DB_0
f 3/3/3 2/2/2 1/1/1
f 2/2/2 4/4/4 1/1/1
f 4/4/4 2/2/2 5/5/5
f 2/2/2 6/6/6 5/5/5
f 2/2/2 7/7/7 6/6/6
f 7/7/7 8/8/8 6/6/6
f 7/7/7 9/9/9 8/8/8
f 9/9/9 10/10/10 8/8/8
f 9/9/9 11/11/11 10/10/10
f 11/11/11 12/12/12 10/10/10
f 12/12/12 11/11/11 13/13/13
f 14/14/14 12/12/12 13/13/13
f 14/14/14 13/13/13 15/15/15
f 16/16/16 14/14/14 15/15/15
f 16/16/16 15/15/15 17/17/17
f 18/18/18 15/15/15 13/13/13
f 13/13/13 19/19/19 18/18/18
f 19/19/19 20/20/20 18/18/18
