g sector_fill_Xtra_1D
v 0.12927555 0 0.012013607
v 0.14353493 0 0.033312816
v -0.12081638 0 0.085078254
v -0.1337651 0 0.043321133
v 0.122897506 0 -0.010919513
v -0.14169262 0 -0.0006501198
v 0.119326115 0 -0.03875574
v -0.14353493 0 -0.044232424
v 0.12145393 0 -0.061943453
v -0.13980766 0 -0.085078254
vt 0.37393215 0.95065355
vt 0.45026284 0.998008
vt 0.5994604 0.0658567
vt 0.45163777 0.025576575
vt 0.29283595 0.93109953
vt 0.29666993 0.0031513772
vt 0.19490889 0.921972
vt 0.14380312 0.001992032
vt 0.113954045 0.93224084
vt 0.0011965277 0.020006632
vn -0 1 2.107381E-06
vn -0 1 3.4370833E-06
vn -0 1 3.4370835E-06
vn -0 1 1.6869953E-06
vn -0 1 -9.512523E-07
vn -0 1 -9.512523E-07
vn -0 1 0
vn -0 1 0
vn -0 1 1.2214649E-06
vn -0 1 1.2214649E-06
g sector_fill_Xtra_1D_0
f 3/3/3 2/2/2 1/1/1
f 4/4/4 3/3/3 1/1/1
f 4/4/4 1/1/1 5/5/5
f 6/6/6 4/4/4 5/5/5
f 6/6/6 5/5/5 7/7/7
f 8/8/8 6/6/6 7/7/7
f 8/8/8 7/7/7 9/9/9
f 10/10/10 8/8/8 9/9/9
