g sector_5L_lines_upper
v 0.09004402 -3.8146972E-08 -0.05473563
v 0.14327507 -3.8146972E-08 0.0084011555
v 0.0869281 -3.8146972E-08 -0.05152566
v 0.14706993 -3.8146972E-08 0.002465458
v 0.05256935 -3.8146972E-08 -0.08553418
v 0.24040015 -3.8146972E-08 0.114345804
v 0.04536842 -3.8146972E-08 -0.08556516
v 0.24719718 -3.8146972E-08 0.11567913
v 0.094481505 -3.8146972E-08 -0.11937993
v 0.059156645 -3.8146972E-08 0.20071258
v 0.08752632 -3.8146972E-08 -0.11921996
v 0.057372358 -3.8146972E-08 0.20955196
v -0.023638763 -3.8146972E-08 -0.20610614
v -0.016521683 -3.8146972E-08 0.11344938
v -0.022839049 -3.8146972E-08 -0.1976281
v -0.018174972 -3.8146972E-08 0.12222184
v -0.060304563 3.8146972E-08 -0.16669899
v -0.038464963 -3.8146972E-08 0.124345854
v -0.05960701 3.8146972E-08 -0.15829767
v -0.039690398 -3.8146972E-08 0.13356194
v -0.11600891 3.8146972E-08 -0.20955196
v -0.119144894 -3.8146972E-08 0.05322114
v -0.115279995 3.8146972E-08 -0.20118462
v -0.123554304 -3.8146972E-08 0.05552105
v -0.24719718 -3.8146972E-08 -0.06624049
v -0.20912552 -3.8146972E-08 -0.014849653
v -0.2399038 -3.8146972E-08 -0.06718266
v -0.21695502 -3.8146972E-08 -0.013860883
v -0.19945952 3.8146972E-08 -0.03546732
v -0.19194068 3.8146972E-08 -0.036671273
vt 0.4622186 0.44304064
vt 0.4195378 0.2876644
vt 0.4536132 0.4445027
vt 0.43327636 0.28812346
vt 0.4703184 0.5373383
vt 0.35654283 0.014394725
vt 0.46240893 0.54895097
vt 0.36191183 0.001992032
vt 0.5710651 0.5073578
vt 0.01734264 0.21035422
vt 0.56312025 0.51836425
vt 0.00115759 0.2034529
vt 0.5799525 0.79314333
vt 0.07400505 0.42849073
vt 0.5672045 0.78248656
vt 0.05807239 0.42145273
vt 0.47606245 0.80854106
vt 0.03223038 0.45172936
vt 0.46332496 0.7981334
vt 0.016057342 0.4435131
vt 0.48339504 0.94547415
vt 0.057415366 0.66006994
vt 0.47074687 0.9350536
vt 0.04884356 0.6646177
vt 0.107960075 0.998008
vt 0.06740976 0.87998956
vt 0.117536485 0.9873224
vt 0.057165854 0.89148575
vt 0.111244895 0.88723654
vt 0.12149141 0.8764777
vn -0 1 -4.4758663E-06
vn -0 1 -7.2830007E-06
vn -0 1 -4.377651E-06
vn -0 1 -7.1413956E-06
vn -0 1 0
vn -0 1 -3.0899098E-06
vn -0 1 0
vn -0 1 -3.0875055E-06
vn -0 1 0
vn -0 1 0
vn -0 1 0
vn -0 1 0
vn 5.924232E-07 1 0
vn -0 1 0
vn 5.94784E-07 1 0
vn -0 1 0
vn 8.3009627E-07 1 -3.9342535E-06
vn -0 1 0
vn 8.317828E-07 1 -3.928036E-06
vn -0 1 0
vn -1.9302804E-07 1 6.239117E-06
vn -0 1 0
vn -1.9281647E-07 1 6.224612E-06
vn -0 1 0
vn -2.7885608E-07 1 6.992326E-06
vn 1.16154354E-07 1 2.118903E-06
vn -2.788536E-07 1 6.995228E-06
vn 1.16342356E-07 1 2.1223325E-06
vn -0 1 -3.582593E-06
vn -0 1 -3.4535142E-06
g sector_5L_lines_upper_0
f 3/3/3 2/2/2 1/1/1
f 2/2/2 4/4/4 1/1/1
f 3/3/3 1/1/1 5/5/5
f 2/2/2 6/6/6 4/4/4
f 7/7/7 3/3/3 5/5/5
f 6/6/6 8/8/8 4/4/4
f 7/7/7 5/5/5 9/9/9
f 6/6/6 10/10/10 8/8/8
f 11/11/11 7/7/7 9/9/9
f 10/10/10 12/12/12 8/8/8
f 11/11/11 9/9/9 13/13/13
f 10/10/10 14/14/14 12/12/12
f 15/15/15 11/11/11 13/13/13
f 14/14/14 16/16/16 12/12/12
f 15/15/15 13/13/13 17/17/17
f 14/14/14 18/18/18 16/16/16
f 19/19/19 15/15/15 17/17/17
f 18/18/18 20/20/20 16/16/16
f 19/19/19 17/17/17 21/21/21
f 18/18/18 22/22/22 20/20/20
f 23/23/23 19/19/19 21/21/21
f 22/22/22 24/24/24 20/20/20
f 23/23/23 21/21/21 25/25/25
f 22/22/22 26/26/26 24/24/24
f 27/27/27 23/23/23 25/25/25
f 26/26/26 28/28/28 24/24/24
f 27/27/27 25/25/25 29/29/29
f 26/26/26 30/30/30 28/28/28
f 30/30/30 27/27/27 29/29/29
f 30/30/30 29/29/29 28/28/28
