g sector_6MB_extrude
v 0.09830894 -0.03999996 -0.112939104
v 0.09830904 0.040000036 -0.11293926
v -0.07265285 0.040000036 -0.08647579
v -0.07265281 -0.03999996 -0.08647579
v -0.17513278 0.03999996 -0.060279045
v -0.1751329 -0.040000036 -0.060279578
v -0.3373334 0.03999996 -0.012113876
v -0.33733356 -0.040000036 -0.0121144485
v -0.28654477 -0.040000036 0.076102026
v -0.24326682 0.03999996 0.15004383
v -0.24326682 -0.040000036 0.15004383
v -0.28654477 0.03999996 0.076102026
v -0.33733356 -0.040000036 -0.0121144485
v -0.3373334 0.03999996 -0.012113876
v -0.24326682 -0.040000036 0.15004383
v -0.24326682 0.03999996 0.15004383
v -0.10144165 0.03999996 0.10768913
v -0.10144161 -0.040000036 0.10768913
v -0.016170537 0.040000036 0.08646751
v -0.016170384 -0.03999996 0.086468354
v 0.108980194 0.03999996 0.06457577
v 0.10898023 -0.040000036 0.06457588
v 0.23733348 0.03999996 0.050638463
v 0.23733339 -0.040000036 0.050637282
v 0.33720198 0.03999996 0.04899376
v 0.33720198 -0.040000036 0.0489933
v 0.25457227 -0.040000036 -0.12589198
v 0.25457224 0.03999996 -0.12589267
v 0.25344425 0.03999996 -0.15004383
v 0.25344425 -0.040000036 -0.15004383
v 0.25344425 -0.040000036 -0.15004383
v 0.25344425 0.03999996 -0.15004383
v 0.09480543 0.03999996 -0.13676617
v 0.09480534 -0.040000036 -0.13676602
v 0.09480534 -0.040000036 -0.13676602
v 0.09480543 0.03999996 -0.13676617
v 0.09830904 0.040000036 -0.11293926
v 0.09830894 -0.03999996 -0.112939104
v 0.33720198 -0.040000036 0.0489933
v 0.33720198 0.03999996 0.04899376
v 0.33733353 0.03999996 -0.12830257
v 0.33733356 -0.040000036 -0.12830189
v 0.33733356 -0.040000036 -0.12830189
v 0.33733353 0.03999996 -0.12830257
v 0.25457224 0.03999996 -0.12589267
v 0.25457227 -0.040000036 -0.12589198
vt 0.26463538 0.0025464166
vt 0.26463538 0.9926963
vt 0.16297334 0.9926963
vt 0.16297346 0.0025464166
vt 0.10081464 0.9926963
vt 0.10081476 0.0025464166
vt 0.001383841 0.9926963
vt 0.001383841 0.0025464166
vt 0.9375818 0.0025464166
vt 0.88723457 0.9926963
vt 0.88723445 0.0025464166
vt 0.937582 0.9926963
vt 0.9973999 0.0025464166
vt 0.9973999 0.9926963
vt 0.88723445 0.0025464166
vt 0.88723457 0.9926963
vt 0.800254 0.9926963
vt 0.80025387 0.0025464166
vt 0.748616 0.9926963
vt 0.74861586 0.0025464166
vt 0.6739546 0.9926963
vt 0.6739544 0.0025464166
vt 0.59808457 0.9926963
vt 0.5980844 0.0025464166
vt 0.53938895 0.9926963
vt 0.5393888 0.0025464166
vt 0.38654608 0.0025464166
vt 0.3865456 0.9926963
vt 0.3723377 0.9926963
vt 0.37233782 0.0025464166
vt 0.37233782 0.0025464166
vt 0.3723377 0.9926963
vt 0.2787878 0.9926963
vt 0.2787878 0.0025464166
vt 0.2787878 0.0025464166
vt 0.2787878 0.9926963
vt 0.26463538 0.9926963
vt 0.26463538 0.0025464166
vt 0.5393888 0.0025464166
vt 0.53938895 0.9926963
vt 0.4352008 0.9926963
vt 0.4352013 0.0025464166
vt 0.4352013 0.0025464166
vt 0.4352008 0.9926963
vt 0.3865456 0.9926963
vt 0.38654608 0.0025464166
vn -0.15296955 -8.7810577E-07 -0.98823094
vn -0.15296957 -8.781058E-07 -0.98823094
vn -0.18910676 7.2162885E-07 -0.9819565
vn -0.18910675 7.216286E-07 -0.9819565
vn -0.27047673 5.7527513E-06 -0.96272653
vn -0.27047676 5.752752E-06 -0.96272653
vn -0.28466302 7.2619846E-06 -0.95862764
vn -0.284663 7.2619846E-06 -0.95862764
vn -0.86499643 -1.1572423E-06 0.50177807
vn -0.86304027 0 0.5051351
vn -0.86304027 0 0.5051351
vn -0.86499643 -1.1572423E-06 0.50177807
vn -0.86663276 -2.1312537E-06 0.49894655
vn -0.8666328 -2.1312535E-06 0.49894655
vn 0.28615242 0 0.9581841
vn 0.28615242 0 0.9581841
vn 0.26958635 1.9815336E-06 0.9629762
vn 0.26958638 1.9815338E-06 0.9629762
vn 0.2007199 5.7194784E-06 0.97964865
vn 0.20071991 5.7194784E-06 0.97964865
vn 0.13994837 -3.8102993E-07 0.99015874
vn 0.13994832 -3.8103417E-07 0.99015874
vn 0.06811845 -8.233827E-06 0.99767727
vn 0.06811846 -8.2338265E-06 0.99767727
vn 0.016462669 -1.0259649E-05 0.99986446
vn 0.016462669 -1.0259649E-05 0.99986446
vn 0.998911 -1.2513465E-07 -0.04665487
vn 0.998911 -1.2513465E-07 -0.04665486
vn 0.998911 -1.2513465E-07 -0.04665486
vn 0.998911 -1.2513465E-07 -0.04665486
vn -0.08340633 -8.985993E-07 -0.99651563
vn -0.08340633 -8.985993E-07 -0.99651563
vn -0.08340632 -8.985993E-07 -0.99651563
vn -0.08340633 -8.985995E-07 -0.99651563
vn -0.9893611 1.4935925E-06 0.14547986
vn -0.9893611 1.4935925E-06 0.14547984
vn -0.9893611 1.4935925E-06 0.14547986
vn -0.9893611 1.4935925E-06 0.14547984
vn 0.99999976 0 0.0007420539
vn 0.99999976 0 0.00074205385
vn 0.99999976 0 0.0007420539
vn 0.99999976 0 0.00074205385
vn -0.029107224 -8.587176E-06 -0.9995763
vn -0.029107224 -8.587176E-06 -0.9995763
vn -0.029107224 -8.587176E-06 -0.9995763
vn -0.029107224 -8.587176E-06 -0.9995763
g sector_6MB_extrude_0
f 3/3/3 2/2/2 1/1/1
f 4/4/4 3/3/3 1/1/1
f 5/5/5 3/3/3 4/4/4
f 6/6/6 5/5/5 4/4/4
f 7/7/7 5/5/5 6/6/6
f 8/8/8 7/7/7 6/6/6
f 11/11/11 10/10/10 9/9/9
f 10/10/10 12/12/12 9/9/9
f 9/9/9 12/12/12 13/13/13
f 12/12/12 14/14/14 13/13/13
f 17/17/17 16/16/16 15/15/15
f 18/18/18 17/17/17 15/15/15
f 19/19/19 17/17/17 18/18/18
f 20/20/20 19/19/19 18/18/18
f 21/21/21 19/19/19 20/20/20
f 22/22/22 21/21/21 20/20/20
f 23/23/23 21/21/21 22/22/22
f 24/24/24 23/23/23 22/22/22
f 25/25/25 23/23/23 24/24/24
f 26/26/26 25/25/25 24/24/24
f 29/29/29 28/28/28 27/27/27
f 30/30/30 29/29/29 27/27/27
f 33/33/33 32/32/32 31/31/31
f 34/34/34 33/33/33 31/31/31
f 37/37/37 36/36/36 35/35/35
f 38/38/38 37/37/37 35/35/35
f 41/41/41 40/40/40 39/39/39
f 42/42/42 41/41/41 39/39/39
f 45/45/45 44/44/44 43/43/43
f 46/46/46 45/45/45 43/43/43
