g sector_6MB_lines_upper
v 0.3441675 -3.8146972E-08 -0.13288881
v 0.3441675 -3.8146972E-08 0.05378168
v 0.33770534 -3.8146972E-08 0.048659913
v 0.33783695 -3.8146972E-08 -0.12863527
v 0.23783678 -3.8146972E-08 0.050303895
v 0.25889504 -3.8146972E-08 -0.13060945
v 0.24063317 -3.8146972E-08 0.05573763
v 0.25507563 -3.8146972E-08 -0.12622537
v 0.109483615 -3.8146972E-08 0.0642425
v 0.25759122 -3.8146972E-08 -0.155003
v 0.11139428 -3.8146972E-08 0.06849256
v 0.25394762 -3.8146972E-08 -0.15037721
v -0.015667006 3.8146972E-08 0.08613496
v 0.08985625 -3.8146972E-08 -0.14103074
v -0.014627769 3.8146972E-08 0.090542845
v 0.09530871 -3.8146972E-08 -0.1370994
v -0.10093823 -3.8146972E-08 0.10735574
v 0.093202904 3.8146972E-08 -0.11693376
v -0.09789773 -3.8146972E-08 0.11160047
v 0.09881232 3.8146972E-08 -0.113272496
v -0.24276344 -3.8146972E-08 0.14971045
v -0.074070744 3.8146972E-08 -0.09166879
v -0.24442 -3.8146972E-08 0.155003
v -0.07214943 3.8146972E-08 -0.08680917
v -0.28604138 -3.8146972E-08 0.07576864
v -0.17802757 -3.8146972E-08 -0.06510721
v -0.28902778 -3.8146972E-08 0.07950811
v -0.17462951 -3.8146972E-08 -0.06061296
v -0.33683017 -3.8146972E-08 -0.012447834
v -0.3441675 -3.8146972E-08 -0.014603824
vt 0.0951171 0.9980081
vt 0.35474804 0.9370219
vt 0.34551322 0.92970735
vt 0.0989649 0.9878136
vt 0.31517214 0.7902679
vt 0.070428394 0.87866205
vt 0.32364324 0.792382
vt 0.075278185 0.87191767
vt 0.29262507 0.6071939
vt 0.036074635 0.8848182
vt 0.29916048 0.6084628
vt 0.04131802 0.87823915
vt 0.28218687 0.4259756
vt 0.00070808 0.6469589
vt 0.2886571 0.42598093
vt 0.007957351 0.6532581
vt 0.28384325 0.30044305
vt 0.035316773 0.643741
vt 0.2907404 0.30328515
vt 0.042241678 0.65034676
vt 0.29641733 0.08934773
vt 0.015807435 0.40283406
vt 0.3032373 0.08531457
vt 0.023194145 0.40391865
vt 0.17943616 0.053311713
vt 0.018787421 0.24956776
vt 0.18366154 0.047936354
vt 0.026148416 0.2528256
vt 0.04014717 0.011492811
vt 0.034751363 0.0019920322
vn -0 1 0
vn -0 1 5.9072654E-06
vn -0 1 7.594506E-06
vn -0 1 0
vn -0 1 7.237403E-06
vn -0 1 2.1747515E-07
vn -0 1 1.3113779E-05
vn -0 1 2.0062159E-07
vn 3.2120062E-07 1 0
vn -0 1 1.0536453E-07
vn 2.1796055E-07 1 0
vn -0 1 1.2297859E-07
vn -0 1 0
vn 3.9041208E-07 1 -5.1419937E-07
vn -0 1 0
vn 3.3759227E-07 1 -4.4463204E-07
vn -2.1279989E-07 1 0
vn 2.9475882E-07 1 -3.8821753E-07
vn -3.8204217E-07 1 0
vn 3.503818E-07 1 -4.6147673E-07
vn -0 1 0
vn -2.9717614E-07 1 0
vn -0 1 0
vn -2.2749262E-07 1 0
vn -0 1 -4.109647E-06
vn -1.8966256E-07 1 -1.0632339E-05
vn -0 1 -2.749413E-06
vn -3.391155E-07 1 -7.1453223E-06
vn -0 1 -1.1694652E-05
vn -0 1 -1.0951541E-05
g sector_6MB_lines_upper_0
f 3/3/3 2/2/2 1/1/1
f 4/4/4 3/3/3 1/1/1
f 3/3/3 5/5/5 2/2/2
f 4/4/4 1/1/1 6/6/6
f 5/5/5 7/7/7 2/2/2
f 8/8/8 4/4/4 6/6/6
f 5/5/5 9/9/9 7/7/7
f 8/8/8 6/6/6 10/10/10
f 9/9/9 11/11/11 7/7/7
f 12/12/12 8/8/8 10/10/10
f 9/9/9 13/13/13 11/11/11
f 12/12/12 10/10/10 14/14/14
f 13/13/13 15/15/15 11/11/11
f 16/16/16 12/12/12 14/14/14
f 13/13/13 17/17/17 15/15/15
f 16/16/16 14/14/14 18/18/18
f 17/17/17 19/19/19 15/15/15
f 20/20/20 16/16/16 18/18/18
f 17/17/17 21/21/21 19/19/19
f 20/20/20 18/18/18 22/22/22
f 21/21/21 23/23/23 19/19/19
f 24/24/24 20/20/20 22/22/22
f 21/21/21 25/25/25 23/23/23
f 24/24/24 22/22/22 26/26/26
f 25/25/25 27/27/27 23/23/23
f 28/28/28 24/24/24 26/26/26
f 25/25/25 29/29/29 27/27/27
f 28/28/28 26/26/26 30/30/30
f 29/29/29 30/30/30 27/27/27
f 29/29/29 28/28/28 30/30/30
