g sector_3DB_lines_upper
v -0.073984794 3.8146972E-08 -0.115341
v -0.07135967 3.8146972E-08 -0.11114932
v -0.18121852 -3.8146972E-08 -0.036118582
v 0.052097168 -3.8146972E-08 -0.16937044
v -0.18935803 -3.8146972E-08 -0.037628412
v 0.05395588 -3.8146972E-08 -0.16418222
v -0.16169262 -3.8146972E-08 -0.01621261
v 0.1449724 -3.8146972E-08 -0.20129316
v -0.16864051 -3.8146972E-08 -0.016630625
v 0.14338231 -3.8146972E-08 -0.19448242
v -0.25131243 -3.8146972E-08 0.059665
v 0.15946424 -3.8146972E-08 -0.1677159
v -0.2592 -3.8146972E-08 0.05974544
v 0.15702449 -3.8146972E-08 -0.16083355
v -0.097115666 -3.8146972E-08 0.1747245
v 0.20819092 -3.8146972E-08 -0.17983085
v -0.09726219 -3.8146972E-08 0.18022123
v 0.20515521 -3.8146972E-08 -0.17251298
v -0.068063505 -3.8146972E-08 0.19632125
v 0.2592 -3.8146972E-08 -0.007320504
v -0.06731334 -3.8146972E-08 0.20129316
v 0.25290126 -3.8146972E-08 -0.01042232
v -0.009352722 -3.8146972E-08 0.14442322
v 0.14455685 3.8146972E-08 0.026625771
v -0.003430023 -3.8146972E-08 0.14568812
v 0.14365713 3.8146972E-08 0.021280665
v -0.030653533 -3.8146972E-08 0.11987991
v 0.041735876 3.8146972E-08 0.07472959
v -0.025128517 -3.8146972E-08 0.120904215
v 0.03969555 3.8146972E-08 0.0716159
vt 0.016795939 0.49029088
vt 0.026285006 0.48941818
vt 0.012960104 0.23344623
vt 0.08124935 0.7465961
vt 0.001140601 0.22273669
vt 0.09137042 0.74338526
vt 0.0662674 0.24011984
vt 0.14079762 0.9261981
vt 0.057512604 0.22996119
vt 0.14937729 0.9158074
vt 0.07787676 0.014172764
vt 0.20917542 0.90919137
vt 0.06878837 0.0019920322
vt 0.21687254 0.89741504
vt 0.4342737 0.11608693
vt 0.24751705 0.998008
vt 0.44252568 0.10944293
vt 0.25518554 0.9848098
vt 0.50129735 0.13538381
vt 0.571441 0.87470394
vt 0.50979227 0.1307268
vt 0.5593317 0.8686744
vt 0.49033618 0.28596136
vt 0.48957154 0.6593818
vt 0.4991914 0.29355997
vt 0.48033002 0.6642455
vt 0.42784983 0.28198373
vt 0.4432036 0.44564173
vt 0.43587196 0.2892539
vt 0.43604937 0.44615155
vn -0 1 -4.644004E-06
vn 1.1166896E-07 1 -4.6190676E-06
vn -2.480673E-07 1 -5.0666104E-06
vn 2.7996975E-07 1 -4.0045456E-06
vn -2.595786E-07 1 -5.0392528E-06
vn 2.8685793E-07 1 -4.013651E-06
vn -0 1 6.4874966E-06
vn -0 1 -3.060274E-06
vn -0 1 6.376885E-06
vn -0 1 -2.6848152E-06
vn -0 1 7.651348E-06
vn -0 1 -1.1595868E-06
vn -0 1 7.698009E-06
vn -0 1 -1.3267068E-06
vn -0 1 5.5738424E-06
vn -0 1 -3.0758056E-07
vn -0 1 2.2244728E-06
vn -0 1 -1.1204501E-07
vn -0 1 -2.244787E-06
vn 2.050934E-07 1 1.3615509E-06
vn -0 1 -1.5524367E-06
vn 2.231626E-07 1 1.4435276E-06
vn -0 1 1.7131644E-06
vn 2.6020248E-07 1 2.5601846E-06
vn -0 1 1.5363854E-06
vn 3.28885E-07 1 2.6432383E-06
vn -3.7539226E-07 1 -3.7581465E-06
vn -1.8186478E-07 1 -7.813063E-07
vn -3.5629694E-07 1 -3.4005054E-06
vn -1.986304E-07 1 -1.0603428E-06
g sector_3DB_lines_upper_0
f 3/3/3 2/2/2 1/1/1
f 1/1/1 2/2/2 4/4/4
f 5/5/5 3/3/3 1/1/1
f 2/2/2 6/6/6 4/4/4
f 7/7/7 3/3/3 5/5/5
f 4/4/4 6/6/6 8/8/8
f 9/9/9 7/7/7 5/5/5
f 6/6/6 10/10/10 8/8/8
f 11/11/11 7/7/7 9/9/9
f 8/8/8 10/10/10 12/12/12
f 13/13/13 11/11/11 9/9/9
f 10/10/10 14/14/14 12/12/12
f 15/15/15 11/11/11 13/13/13
f 12/12/12 14/14/14 16/16/16
f 17/17/17 15/15/15 13/13/13
f 14/14/14 18/18/18 16/16/16
f 19/19/19 15/15/15 17/17/17
f 16/16/16 18/18/18 20/20/20
f 21/21/21 19/19/19 17/17/17
f 18/18/18 22/22/22 20/20/20
f 23/23/23 19/19/19 21/21/21
f 20/20/20 22/22/22 24/24/24
f 25/25/25 23/23/23 21/21/21
f 22/22/22 26/26/26 24/24/24
f 27/27/27 23/23/23 25/25/25
f 24/24/24 26/26/26 28/28/28
f 29/29/29 27/27/27 25/25/25
f 26/26/26 30/30/30 28/28/28
f 30/30/30 27/27/27 29/29/29
f 28/28/28 30/30/30 29/29/29
