g sector_1L_lines_upper
v 0.07502404 -3.8146972E-08 -0.0662822
v 0.11072041 3.8146972E-08 -0.019888649
v 0.10624654 3.8146972E-08 -0.012811279
v 0.06875161 -3.8146972E-08 -0.06216297
v 0.13464482 -3.8146972E-08 0.035871886
v 0.024453439 -3.8146972E-08 -0.114830054
v 0.14000691 -3.8146972E-08 0.030371321
v 0.020047445 -3.8146972E-08 -0.10907818
v 0.15403126 -3.8146972E-08 0.08577286
v -0.037912454 -3.8146972E-08 -0.15073723
v 0.1600468 -3.8146972E-08 0.082012445
v -0.035930566 -3.8146972E-08 -0.14150605
v 0.16254131 -3.8146972E-08 0.120393485
v -0.17080829 -3.8146972E-08 0.033294182
v 0.17080829 -3.8146972E-08 0.12760243
v -0.15944174 -3.8146972E-08 0.031788636
v -0.08362925 -3.8146972E-08 0.14114365
v -0.13668634 -3.8146972E-08 0.056910705
v -0.09045329 -3.8146972E-08 0.15073723
v -0.132894 -3.8146972E-08 0.050539777
v -0.09001189 -3.8146972E-08 0.11269523
v -0.11320037 -3.8146972E-08 0.08514431
v -0.09799775 -3.8146972E-08 0.11607036
v -0.10732079 -3.8146972E-08 0.081196174
vt 0.31773707 0.8042548
vt 0.47777355 0.88967
vt 0.49712124 0.87238073
vt 0.3271244 0.78297883
vt 0.66042894 0.9343194
vt 0.14351922 0.6744755
vt 0.6463545 0.9535183
vt 0.15885013 0.6580706
vt 0.82285655 0.96809053
vt 0.0019147315 0.502187
vt 0.8144347 0.9883981
vt 0.03114282 0.5035304
vt 0.93302363 0.97642106
vt 0.49655077 0.001992032
vt 0.95928043 0.998008
vt 0.49775404 0.0375038
vt 0.8707255 0.21338207
vt 0.58616334 0.094227456
vt 0.896564 0.18762426
vt 0.5686268 0.10907283
vt 0.78051084 0.20840201
vt 0.68445635 0.15159507
vt 0.78674865 0.18226881
vt 0.6753913 0.17158285
vn -4.9038755E-07 1 -3.503834E-06
vn -2.1996662E-07 1 -4.339615E-06
vn 3.2505721E-07 1 -2.5873028E-06
vn -4.0332762E-07 1 -2.8817879E-06
vn 4.7568136E-07 1 0
vn -0 1 0
vn 7.2631974E-07 1 0
vn -0 1 0
vn -0 1 0
vn -0 1 0
vn -0 1 0
vn -0 1 0
vn -0 1 1.0010294E-05
vn -0 1 0
vn -0 1 1.0364019E-05
vn -0 1 0
vn -0 1 1.0047708E-05
vn -0 1 -3.1196496E-06
vn -0 1 1.01051755E-05
vn -0 1 -2.370572E-06
vn -0 1 -2.824624E-06
vn -0 1 -5.6002436E-06
vn -0 1 -2.645558E-06
vn -0 1 -5.6005556E-06
g sector_1L_lines_upper_0
f 3/3/3 2/2/2 1/1/1
f 4/4/4 3/3/3 1/1/1
f 3/3/3 5/5/5 2/2/2
f 4/4/4 1/1/1 6/6/6
f 5/5/5 7/7/7 2/2/2
f 8/8/8 4/4/4 6/6/6
f 5/5/5 9/9/9 7/7/7
f 8/8/8 6/6/6 10/10/10
f 9/9/9 11/11/11 7/7/7
f 12/12/12 8/8/8 10/10/10
f 9/9/9 13/13/13 11/11/11
f 12/12/12 10/10/10 14/14/14
f 13/13/13 15/15/15 11/11/11
f 16/16/16 12/12/12 14/14/14
f 13/13/13 17/17/17 15/15/15
f 16/16/16 14/14/14 18/18/18
f 17/17/17 19/19/19 15/15/15
f 20/20/20 16/16/16 18/18/18
f 17/17/17 21/21/21 19/19/19
f 20/20/20 18/18/18 22/22/22
f 21/21/21 23/23/23 19/19/19
f 24/24/24 20/20/20 22/22/22
f 24/24/24 22/22/22 23/23/23
f 21/21/21 24/24/24 23/23/23
