g sector_fill_6L
v 0.14390813 3.8146972E-08 0.235069
v 0.106433466 3.8146972E-08 0.20427045
v 0.14834562 3.8146972E-08 0.1704247
v 0.18939885 3.8146972E-08 0.20027402
v 0.21520971 3.8146972E-08 0.02023548
v 0.31821668 3.8146972E-08 0.10539724
v 0.030225353 1.14440915E-07 0.08369842
v 0.07477781 -3.8146972E-08 -0.06945087
v 0.23401006 3.8146972E-08 0.0031779478
v 0.090198725 3.8146972E-08 -0.09165924
v -0.06688547 3.8146972E-08 -0.14977314
v -0.052386798 3.8146972E-08 -0.17116852
v -0.12096483 -1.14440915E-07 -0.03873943
v -0.15187097 3.8146972E-08 -0.19117339
v -0.018256625 -3.8146972E-08 0.033725396
v -0.062144563 1.14440915E-07 0.08025261
v -0.0064404486 1.14440915E-07 0.12310556
v -0.15712908 3.8146972E-08 0.026980285
v -0.25335053 3.8146972E-08 -0.016313285
v -0.20421433 3.8146972E-08 -0.09391227
v -0.31821668 3.8146972E-08 -0.14095707
v -0.26307696 3.8146972E-08 -0.235069
vt 0.019431442 0.10937041
vt 0.026384288 0.18088533
vt 0.10260832 0.15726726
vt 0.09977646 0.08213406
vt 0.34253246 0.19898288
vt 0.32279906 0.0019920322
vt 0.1117921 0.37413916
vt 0.33694202 0.445742
vt 0.3790307 0.18993661
vt 0.37698674 0.4451037
vt 0.3188171 0.6862869
vt 0.35710096 0.686112
vt 0.13760747 0.66116303
vt 0.29959697 0.8249917
vt 0.13324535 0.47501925
vt 0.039791998 0.49060082
vt 0.033057302 0.386714
vt 0.026921818 0.65140355
vt 0.0007565483 0.8054916
vt 0.13676067 0.8090999
vt 0.100533865 0.98815507
vt 0.26180464 0.9980081
vn -0 1 1.1418041E-06
vn -0 1 1.1418041E-06
vn -0 1 1.1418041E-06
vn -0 1 1.1418042E-06
vn -9.770017E-07 1 -6.985147E-07
vn -0 1 0
vn -0 1 -2.2288314E-06
vn -9.770018E-07 1 -6.985147E-07
vn -9.770018E-07 1 -6.985148E-07
vn -9.770018E-07 1 -6.985148E-07
vn 3.761553E-07 1 5.387036E-07
vn -5.1626057E-07 1 -1.4213766E-06
vn 3.7615533E-07 1 5.3870355E-07
vn -0 1 -2.3087287E-07
vn 6.586195E-07 1 -2.2706565E-06
vn 6.586194E-07 1 -2.270656E-06
vn -0 1 -2.2288311E-06
vn 1.0812622E-06 1 0
vn 1.0812622E-06 1 0
vn -0 1 -2.3087287E-07
vn -0 1 -2.308729E-07
vn -0 1 -2.3087287E-07
g sector_fill_6L_0
f 3/3/3 2/2/2 1/1/1
f 4/4/4 3/3/3 1/1/1
f 5/5/5 3/3/3 4/4/4
f 6/6/6 5/5/5 4/4/4
f 5/5/5 7/7/7 3/3/3
f 5/5/5 8/8/8 7/7/7
f 5/5/5 9/9/9 8/8/8
f 9/9/9 10/10/10 8/8/8
f 8/8/8 10/10/10 11/11/11
f 10/10/10 12/12/12 11/11/11
f 8/8/8 11/11/11 13/13/13
f 13/13/13 11/11/11 14/14/14
f 8/8/8 15/15/15 7/7/7
f 15/15/15 8/8/8 13/13/13
f 15/15/15 16/16/16 7/7/7
f 16/16/16 17/17/17 7/7/7
f 16/16/16 15/15/15 18/18/18
f 15/15/15 13/13/13 18/18/18
f 19/19/19 18/18/18 13/13/13
f 20/20/20 19/19/19 13/13/13
f 20/20/20 13/13/13 14/14/14
f 21/21/21 20/20/20 14/14/14
f 22/22/22 21/21/21 14/14/14
