g sector_fill_4D
v 0.1303183 -3.8146972E-08 0.057534732
v 0.2001603 -3.8146972E-08 -0.03983912
v 0.2208778 -3.8146972E-08 -0.018841334
v 0.10062279 -3.8146972E-08 0.038158417
v -0.05535095 -3.8146972E-08 -0.12409648
v -0.13921493 -3.8146972E-08 -0.046055626
v 0.038049698 -3.8146972E-08 -0.19347854
v 0.0010293579 -3.8146972E-08 0.14937338
v 0.1379499 -3.8146972E-08 -0.2585235
v 0.31553343 3.8146972E-08 -0.117551684
v 0.18911205 3.8146972E-08 -0.28708667
v 0.06829163 -3.8146972E-08 -0.24585803
v 0.020554122 -3.8146972E-08 -0.21508512
v 0.11864662 -3.8146972E-08 -0.27831832
v -0.2070504 -3.8146972E-08 0.041607454
v -0.27894995 -3.8146972E-08 0.13689071
v -0.04950302 -3.8146972E-08 0.22725025
v -0.23627785 -3.8146972E-08 0.029934224
v -0.16073051 -3.8146972E-08 -0.0573958
v -0.30223578 -3.8146972E-08 0.12531199
v -0.27014336 -3.8146972E-08 0.21807148
v -0.31553343 -3.8146972E-08 0.20335738
v -0.14383705 -3.8146972E-08 0.25733456
v -0.07986915 -3.8146972E-08 0.27970755
v -0.28419295 -3.8146972E-08 0.24929166
v -0.15700264 -3.8146972E-08 0.28708667
vt 0.014392926 0.39927813
vt 0.04198531 0.23436959
vt 0.00082732574 0.23453909
vt 0.06278194 0.4095851
vt 0.3767698 0.40420404
vt 0.38209993 0.56395817
vt 0.35349002 0.24353716
vt 0.05077531 0.617544
vt 0.31952408 0.08070889
vt 0.0053235493 0.04376997
vt 0.2974319 0.0019920322
vt 0.37554336 0.1620776
vt 0.3920797 0.23958142
vt 0.35810024 0.08032418
vt 0.36213893 0.717326
vt 0.33863926 0.8822125
vt 0.023467163 0.7441655
vt 0.4024474 0.7347502
vt 0.4144902 0.5740817
vt 0.37300748 0.8938525
vt 0.24966997 0.95338786
vt 0.3088916 0.98380774
vt 0.0865384 0.86708426
vt 0.0014590726 0.8258244
vt 0.23261291 0.998008
vt 0.070063576 0.9093854
vn -0 1 0
vn -0 1 0
vn -0 1 0
vn -0 1 0
vn -0 1 -4.528365E-07
vn -0 1 -2.0045304E-06
vn -0 1 -2.524475E-06
vn -0 1 4.0279284E-07
vn -0 1 3.1878687E-07
vn -6.9938756E-07 1 2.8824425E-07
vn -6.9938756E-07 1 2.8824425E-07
vn -0 1 -2.2368492E-06
vn -0 1 -2.524475E-06
vn -0 1 3.7598084E-06
vn -0 1 0
vn -0 1 0
vn -0 1 -2.440941E-07
vn -0 1 0
vn -0 1 -2.0045302E-06
vn -0 1 0
vn -0 1 -2.955543E-06
vn -0 1 0
vn -0 1 -2.9555429E-06
vn -0 1 3.025309E-06
vn -0 1 -2.9555436E-06
vn -0 1 -2.955543E-06
g sector_fill_4D_0
f 3/3/3 2/2/2 1/1/1
f 2/2/2 4/4/4 1/1/1
f 4/4/4 2/2/2 5/5/5
f 6/6/6 4/4/4 5/5/5
f 2/2/2 7/7/7 5/5/5
f 4/4/4 6/6/6 8/8/8
f 2/2/2 9/9/9 7/7/7
f 2/2/2 10/10/10 9/9/9
f 10/10/10 11/11/11 9/9/9
f 9/9/9 12/12/12 7/7/7
f 12/12/12 13/13/13 7/7/7
f 9/9/9 14/14/14 12/12/12
f 6/6/6 15/15/15 8/8/8
f 15/15/15 16/16/16 8/8/8
f 16/16/16 17/17/17 8/8/8
f 18/18/18 15/15/15 6/6/6
f 15/15/15 18/18/18 16/16/16
f 19/19/19 18/18/18 6/6/6
f 18/18/18 20/20/20 16/16/16
f 17/17/17 16/16/16 21/21/21
f 21/21/21 16/16/16 22/22/22
f 23/23/23 17/17/17 21/21/21
f 17/17/17 23/23/23 24/24/24
f 23/23/23 21/21/21 25/25/25
f 26/26/26 23/23/23 25/25/25
