g sector_3LXtra_lines_upper
v -0.14484218 0 0.07212292
v -0.12406826 0 0.009095802
v -0.13633335 0 0.06708996
v -0.13057415 0 0.007141685
v 0.04191395 0 0.12711559
v -0.11937214 0 -0.052841835
v 0.044047203 0 0.120160714
v -0.1260345 0 -0.053445168
v 0.11688686 0 0.12960818
v -0.118084446 0 -0.11923965
v 0.11054203 0 0.121271856
v -0.12497616 0 -0.12609401
v 0.12958752 0 0.07689174
v 0.050731923 0 -0.12335628
v 0.122480884 0 0.07419063
v 0.050750084 0 -0.12960818
v 0.13984737 0 0.015755042
v 0.13465397 0 -0.12051342
v 0.13296115 0 0.014108924
v 0.1415588 0 -0.12754768
v 0.14484218 0 -0.048008688
v 0.13786854 0 -0.048257712
vt 0.056820564 0.9270375
vt 0.28294203 0.90104663
vt 0.07963568 0.9019548
vt 0.2849859 0.9242555
vt 0.0018491258 0.26157412
vt 0.49423546 0.9282997
vt 0.026690524 0.25924045
vt 0.49163377 0.9510959
vt 0.045558497 0.008029526
vt 0.71814173 0.9700992
vt 0.06915036 0.035131034
vt 0.73637617 0.9980081
vt 0.23144105 0.0019920322
vt 0.8492398 0.4059519
vt 0.23557657 0.027737584
vt 0.87025076 0.41023389
vt 0.44390932 0.010001779
vt 0.8979893 0.12210637
vt 0.44465458 0.03427416
vt 0.92641205 0.10380146
vt 0.66154367 0.037520252
vt 0.65753573 0.06111577
vn -0 1 4.1713588E-07
vn -0 1 5.8031844E-07
vn -0 1 4.160525E-07
vn -0 1 3.2969845E-07
vn -0 1 0
vn -0 1 -9.690791E-07
vn -0 1 0
vn -0 1 -9.710544E-07
vn -0 1 0
vn -0 1 7.252188E-06
vn -0 1 0
vn -0 1 7.25171E-06
vn -0 1 8.070986E-07
vn -0 1 1.0578508E-05
vn -0 1 9.778801E-07
vn -0 1 1.0578528E-05
vn -0 1 9.2173633E-07
vn -0 1 5.408969E-06
vn -0 1 8.012797E-07
vn -0 1 5.417871E-06
vn -0 1 0
vn -0 1 0
g sector_3LXtra_lines_upper_0
f 3/3/3 2/2/2 1/1/1
f 2/2/2 4/4/4 1/1/1
f 3/3/3 1/1/1 5/5/5
f 2/2/2 6/6/6 4/4/4
f 7/7/7 3/3/3 5/5/5
f 6/6/6 8/8/8 4/4/4
f 7/7/7 5/5/5 9/9/9
f 6/6/6 10/10/10 8/8/8
f 11/11/11 7/7/7 9/9/9
f 10/10/10 12/12/12 8/8/8
f 11/11/11 9/9/9 13/13/13
f 10/10/10 14/14/14 12/12/12
f 15/15/15 11/11/11 13/13/13
f 14/14/14 16/16/16 12/12/12
f 15/15/15 13/13/13 17/17/17
f 14/14/14 18/18/18 16/16/16
f 19/19/19 15/15/15 17/17/17
f 18/18/18 20/20/20 16/16/16
f 19/19/19 17/17/17 21/21/21
f 18/18/18 22/22/22 20/20/20
f 22/22/22 19/19/19 21/21/21
f 22/22/22 21/21/21 20/20/20
