g sector_6DB_lines_upper
v -0.095328234 -3.8146972E-08 0.16959499
v -0.113582626 -3.8146972E-08 0.14231077
v -0.093952045 -3.8146972E-08 0.16251573
v -0.11463144 -3.8146972E-08 0.1498001
v -0.044166163 -3.8146972E-08 0.14103188
v -0.163807 -3.8146972E-08 0.17510721
v -0.04763872 -3.8146972E-08 0.1369062
v -0.16498636 -3.8146972E-08 0.18226066
v 0.12017294 -3.8146972E-08 0.072313115
v -0.2869784 -3.8146972E-08 0.040135574
v 0.112334386 -3.8146972E-08 0.06917763
v -0.2961747 -3.8146972E-08 0.038949203
v 0.107782915 -3.8146972E-08 0.044093113
v -0.20257829 -3.8146972E-08 -0.008381194
v 0.10047552 -3.8146972E-08 0.040764272
v -0.20119013 -3.8146972E-08 -0.014323196
v 0.22234273 -3.8146972E-08 0.008382874
v -0.096920714 -3.8146972E-08 -0.055346336
v 0.22596258 -3.8146972E-08 -1.0185241E-05
v -0.104968734 -3.8146972E-08 -0.05761684
v 0.23590283 -3.8146972E-08 0.036152497
v -0.14671853 -3.8146972E-08 -0.13287036
v 0.23980612 -3.8146972E-08 0.027678642
v -0.15410486 -3.8146972E-08 -0.13521579
v 0.2961747 3.8146972E-08 0.02055439
v -0.042990435 -3.8146972E-08 -0.17577243
v 0.28893358 3.8146972E-08 0.016572837
v -0.04010252 -3.8146972E-08 -0.18226066
v 0.23429735 3.8146972E-08 -0.17122592
v 0.0023441124 -3.8146972E-08 -0.101199985
v 0.2300419 3.8146972E-08 -0.16353722
v 0.004505253 -3.8146972E-08 -0.106765784
v 0.1510275 -3.8146972E-08 -0.1501683
v 0.15421483 -3.8146972E-08 -0.14467423
vt 0.5636252 0.27942562
vt 0.51008165 0.2609971
vt 0.55242455 0.2848385
vt 0.52211034 0.25594956
vt 0.5385196 0.37733242
vt 0.54266036 0.16278979
vt 0.5301095 0.37335783
vt 0.5540714 0.1576725
vt 0.49628595 0.68167937
vt 0.26331145 0.01680709
vt 0.48760453 0.6699871
vt 0.25728276 0.001992032
vt 0.44376433 0.67344344
vt 0.21956536 0.17893551
vt 0.43499437 0.6627223
vt 0.2102667 0.18386754
vt 0.43465915 0.880232
vt 0.18776885 0.3758337
vt 0.4222555 0.8899654
vt 0.18043779 0.3634112
vt 0.48694497 0.8906176
vt 0.03654407 0.32692283
vt 0.47453135 0.9008595
vt 0.029379457 0.31563693
vt 0.48747426 0.99800795
vt 0.01067417 0.5188136
vt 0.4776449 0.98768467
vt 0.0011250005 0.5264874
vt 0.14037411 0.97926927
vt 0.15501072 0.56158054
vt 0.15132315 0.96878606
vt 0.1466799 0.567636
vt 0.13882183 0.8311189
vt 0.1493885 0.83401513
vn -0 1 0
vn -0 1 0
vn -0 1 0
vn -0 1 0
vn -0 1 0
vn -0 1 0
vn -0 1 0
vn -0 1 0
vn -0 1 0
vn -0 1 -3.8234284E-06
vn -0 1 0
vn -0 1 -3.5359838E-06
vn -0 1 6.430053E-06
vn -0 1 -8.2161105E-06
vn -0 1 6.4199357E-06
vn -0 1 -3.00552E-06
vn -0 1 6.909142E-06
vn -0 1 0
vn -0 1 6.890111E-06
vn -0 1 0
vn -8.1526656E-07 1 -9.163701E-06
vn -0 1 -5.715826E-06
vn -8.1230064E-07 1 -9.117741E-06
vn -0 1 -5.723557E-06
vn -3.0778438E-07 1 -3.9537576E-06
vn -0 1 -6.086511E-06
vn -3.1043544E-07 1 -3.987812E-06
vn -0 1 -5.2681503E-06
vn -2.9677832E-07 1 0
vn -0 1 -9.3519475E-06
vn -2.967815E-07 1 0
vn -0 1 -9.321637E-06
vn -2.9598448E-07 1 -1.0050787E-05
vn -4.4933174E-07 1 -7.794192E-06
g sector_6DB_lines_upper_0
f 3/3/3 2/2/2 1/1/1
f 2/2/2 4/4/4 1/1/1
f 3/3/3 1/1/1 5/5/5
f 2/2/2 6/6/6 4/4/4
f 7/7/7 3/3/3 5/5/5
f 6/6/6 8/8/8 4/4/4
f 7/7/7 5/5/5 9/9/9
f 6/6/6 10/10/10 8/8/8
f 11/11/11 7/7/7 9/9/9
f 10/10/10 12/12/12 8/8/8
f 11/11/11 9/9/9 13/13/13
f 10/10/10 14/14/14 12/12/12
f 15/15/15 11/11/11 13/13/13
f 14/14/14 16/16/16 12/12/12
f 15/15/15 13/13/13 17/17/17
f 14/14/14 18/18/18 16/16/16
f 19/19/19 15/15/15 17/17/17
f 18/18/18 20/20/20 16/16/16
f 19/19/19 17/17/17 21/21/21
f 18/18/18 22/22/22 20/20/20
f 23/23/23 19/19/19 21/21/21
f 22/22/22 24/24/24 20/20/20
f 23/23/23 21/21/21 25/25/25
f 22/22/22 26/26/26 24/24/24
f 27/27/27 23/23/23 25/25/25
f 26/26/26 28/28/28 24/24/24
f 27/27/27 25/25/25 29/29/29
f 26/26/26 30/30/30 28/28/28
f 31/31/31 27/27/27 29/29/29
f 30/30/30 32/32/32 28/28/28
f 31/31/31 29/29/29 33/33/33
f 30/30/30 34/34/34 32/32/32
f 34/34/34 33/33/33 32/32/32
f 34/34/34 31/31/31 33/33/33
