g sector_fill_6M
v 0.17802757 -3.8146972E-08 -0.06510721
v 0.3441675 -3.8146972E-08 -0.014603824
v 0.24442 -3.8146972E-08 0.155003
v 0.09789773 -3.8146972E-08 0.11160047
v 0.074070744 -3.8146972E-08 -0.09166879
v 0.014627769 -3.8146972E-08 0.090542845
v -0.093202904 3.8146972E-08 -0.11693376
v -0.11139428 -3.8146972E-08 0.06849256
v -0.25889504 3.8146972E-08 -0.13060945
v -0.08985625 -3.8146972E-08 -0.14103074
v -0.25759122 -3.8146972E-08 -0.155003
v -0.24063317 -3.8146972E-08 0.05573763
v -0.3441675 -3.8146972E-08 -0.13288881
v -0.3441675 -3.8146972E-08 0.05378168
vt 0.32734022 0.24915999
vt 0.30812892 0.001992032
vt 0.040954504 0.08878343
vt 0.05631178 0.30641553
vt 0.33233604 0.40226465
vt 0.06000899 0.42898595
vt 0.3160145 0.64323634
vt 0.051916678 0.6114604
vt 0.28402412 0.8784324
vt 0.35063773 0.6459958
vt 0.31843153 0.8841311
vt 0.029875502 0.7955554
vt 0.26092687 0.9980081
vt 0.00069987576 0.94048935
vn -0 1 0
vn -0 1 0
vn -0 1 0
vn -0 1 0
vn 2.1918103E-07 1 -4.379206E-07
vn 2.1918102E-07 1 -4.3792062E-07
vn 2.1918099E-07 1 -4.3792056E-07
vn 2.1918102E-07 1 -4.379206E-07
vn 2.5887118E-07 1 -6.6478406E-06
vn 2.5887118E-07 1 -6.6478406E-06
vn 2.588712E-07 1 -6.6478406E-06
vn -0 1 8.9065327E-07
vn -4.0912198E-07 1 3.4703262E-07
vn -4.0912198E-07 1 3.470326E-07
g sector_fill_6M_0
f 3/3/3 2/2/2 1/1/1
f 4/4/4 3/3/3 1/1/1
f 1/1/1 5/5/5 4/4/4
f 5/5/5 6/6/6 4/4/4
f 6/6/6 5/5/5 7/7/7
f 8/8/8 6/6/6 7/7/7
f 8/8/8 7/7/7 9/9/9
f 7/7/7 10/10/10 9/9/9
f 10/10/10 11/11/11 9/9/9
f 12/12/12 8/8/8 9/9/9
f 12/12/12 9/9/9 13/13/13
f 14/14/14 12/12/12 13/13/13
