g sector_fill_3L
v -0.22193801 3.8146972E-08 -0.09907748
v -0.16003929 3.8146972E-08 -0.08895051
v -0.19228645 3.8146972E-08 -0.0696124
v -0.19198917 3.8146972E-08 -0.12014941
v -0.030051345 -3.8146972E-08 -0.24062517
v -0.107996255 -3.8146972E-08 -0.018751439
v 0.09923759 -3.8146972E-08 -0.14878654
v -0.00035583496 -3.8146972E-08 -0.26000145
v 0.14976998 -3.8146972E-08 -0.07090968
v -0.06762039 -3.8146972E-08 0.05266183
v 0.1801361 -3.8146972E-08 -0.018452367
v -0.034096908 -3.8146972E-08 0.13192151
v 0.1368412 -3.8146972E-08 0.10660336
v 0.22193801 -3.8146972E-08 0.08936215
v -0.017261581 -3.8146972E-08 0.20314872
v 0.15435219 -3.8146972E-08 0.18487911
v -0.011215286 -3.8146972E-08 0.26000145
v 0.16451102 -3.8146972E-08 0.25648728
vt 0.087808855 0.99800813
vt 0.17212443 0.91107213
vt 0.099872746 0.91820055
vt 0.15849306 0.99621266
vt 0.5482139 0.9966403
vt 0.17202693 0.74234056
vt 0.6429771 0.7054614
vt 0.6165534 0.9925074
vt 0.6317019 0.5265643
vt 0.15244275 0.5851532
vt 0.61841315 0.4102865
vt 0.113204636 0.42368653
vt 0.40736994 0.26622066
vt 0.5591487 0.1950202
vt 0.057336323 0.29387885
vt 0.34443772 0.12470693
vt 0.0012833874 0.19877411
vt 0.27777967 0.0019920322
vn -0 1 0
vn -0 1 0
vn -0 1 0
vn -0 1 0
vn -0 1 2.3329972E-06
vn -0 1 5.6483196E-07
vn -0 1 5.6483196E-07
vn -0 1 2.332997E-06
vn -0 1 5.6483196E-07
vn -0 1 5.6483196E-07
vn -0 1 2.8857065E-07
vn -0 1 -1.1579513E-07
vn -0 1 -1.1579512E-07
vn -0 1 0
vn -0 1 4.0714886E-07
vn -0 1 4.0714886E-07
vn -0 1 4.0714886E-07
vn -0 1 4.0714886E-07
g sector_fill_3L_0
f 3/3/3 2/2/2 1/1/1
f 2/2/2 4/4/4 1/1/1
f 5/5/5 4/4/4 2/2/2
f 2/2/2 6/6/6 5/5/5
f 6/6/6 7/7/7 5/5/5
f 7/7/7 8/8/8 5/5/5
f 7/7/7 6/6/6 9/9/9
f 6/6/6 10/10/10 9/9/9
f 10/10/10 11/11/11 9/9/9
f 11/11/11 10/10/10 12/12/12
f 13/13/13 11/11/11 12/12/12
f 11/11/11 13/13/13 14/14/14
f 13/13/13 12/12/12 15/15/15
f 16/16/16 13/13/13 15/15/15
f 15/15/15 17/17/17 16/16/16
f 17/17/17 18/18/18 16/16/16
