g sector_fill_1M
v 0.09296891 7.6293944E-08 -0.09400479
v 3.6447595E-15 7.6293944E-08 -0.14032942
v 0.101820335 7.6293944E-08 -0.13521859
v 2.840584E-15 -7.6293944E-08 -0.097805545
v -0.09296891 0 -0.09400479
v -0.101820335 0 -0.13521859
v 0.03019712 0 0.115766324
v -0 0 0.113000244
v 0.05500652 0 0.12093249
v -0.03019712 0 0.115766324
v 0.13579759 0 -0.08241984
v -0.13579759 0 -0.08241984
v 0.07723831 0 0.1273078
v -0.05500652 0 0.12093249
v 0.18821849 0 -0.06676518
v 0.103500985 0 0.14032942
v 0.23639682 0 -0.04370196
v -0.18821849 0 -0.06676518
v -0.07723831 0 0.1273078
v -0.23639682 0 -0.04370196
v -0.103500985 0 0.14032942
vt 0.49484533 0.30414626
vt 0.5924356 0.5
vt 0.5816688 0.28549916
vt 0.5028522 0.5
vt 0.49484533 0.69585377
vt 0.5816688 0.7145009
vt 0.05292865 0.43638507
vt 0.05875584 0.5
vt 0.042045303 0.38412005
vt 0.05292865 0.56361496
vt 0.4704399 0.21392073
vt 0.47043982 0.7860793
vt 0.02861485 0.3372852
vt 0.042045303 0.61587995
vt 0.43746072 0.103487715
vt 0.0011826591 0.28195834
vt 0.38887456 0.0019920322
vt 0.43746072 0.8965126
vt 0.028614698 0.66271484
vt 0.38887408 0.998008
vt 0.0011825062 0.7180414
vn -8.625439E-07 1 1.4895636E-06
vn -8.6254397E-07 1 1.4895636E-06
vn -8.625439E-07 1 1.4895636E-06
vn -8.6254397E-07 1 1.4895635E-06
vn -0 1 0
vn -0 1 0
vn -1.229099E-06 1 -4.675859E-07
vn -1.2290989E-06 1 -4.675859E-07
vn 5.129167E-07 1 1.4250296E-07
vn 6.0495387E-07 1 -2.3379295E-07
vn 4.386521E-07 1 2.2616364E-07
vn -0 1 2.0161515E-07
vn -0 1 1.6519785E-07
vn -0 1 1.7477367E-07
vn -0 1 1.6519785E-07
vn -0 1 1.6519785E-07
vn -0 1 1.6519787E-07
vn -0 1 3.303957E-07
vn -0 1 3.303957E-07
vn -0 1 3.303957E-07
vn -0 1 3.303957E-07
g sector_fill_1M_0
f 3/3/3 2/2/2 1/1/1
f 2/2/2 4/4/4 1/1/1
f 4/4/4 2/2/2 5/5/5
f 2/2/2 6/6/6 5/5/5
f 7/7/7 1/1/1 4/4/4
f 8/8/8 7/7/7 4/4/4
f 4/4/4 5/5/5 8/8/8
f 7/7/7 9/9/9 1/1/1
f 5/5/5 10/10/10 8/8/8
f 9/9/9 11/11/11 1/1/1
f 5/5/5 12/12/12 10/10/10
f 9/9/9 13/13/13 11/11/11
f 12/12/12 14/14/14 10/10/10
f 13/13/13 15/15/15 11/11/11
f 15/15/15 13/13/13 16/16/16
f 17/17/17 15/15/15 16/16/16
f 12/12/12 18/18/18 14/14/14
f 18/18/18 19/19/19 14/14/14
f 19/19/19 18/18/18 20/20/20
f 21/21/21 19/19/19 20/20/20
