g sector_2D_extrude
v 0.19272879 -0.040163193 -0.072435915
v 0.19272879 0.039836805 -0.072435915
v 0.20472778 0.039836805 -0.07777045
v 0.20472766 -0.040163193 -0.07777039
v 0.20472766 -0.040163193 -0.07777039
v 0.20472778 0.039836805 -0.07777045
v 0.16360556 0.039836805 -0.15711649
v 0.16360544 -0.040163193 -0.15711643
v 0.16360544 -0.040163193 -0.15711643
v 0.16360556 0.039836805 -0.15711649
v 0.15110369 0.039836805 -0.15269901
v 0.15110359 -0.040163193 -0.15269895
v -0.010632038 -0.040163193 -0.08334911
v -0.010632229 0.039836805 -0.08334896
v -0.07471685 0.039836805 -0.027398685
v -0.074716926 -0.040163193 -0.027398666
v 0.030504933 -0.040163193 -0.1497435
v -0.031290073 0.039836805 -0.10730709
v -0.031289652 -0.040163193 -0.1073069
v 0.030504704 0.039836805 -0.14974385
v 0.12843871 -0.040163193 -0.19624387
v 0.12843882 0.039836805 -0.19624393
v -0.031289652 -0.040163193 -0.1073069
v -0.031290073 0.039836805 -0.10730709
v -0.010632229 0.039836805 -0.08334896
v -0.010632038 -0.040163193 -0.08334911
v 0.15110359 -0.040163193 -0.15269895
v 0.15110369 0.039836805 -0.15269901
v 0.12843882 0.039836805 -0.19624393
v 0.12843871 -0.040163193 -0.19624387
v 0.18148841 -0.040163193 0.0147925895
v 0.22693832 0.039836805 -0.0061895037
v 0.22693849 -0.040163193 -0.006189141
v 0.18148851 0.039836805 0.014792685
v 0.1192761 -0.040163193 0.051861107
v 0.11927637 0.039836805 0.051861566
v 0.06990625 -0.040163193 0.10013088
v 0.071465895 0.039797135 0.10099224
v 0.03484968 -0.039761655 0.14497791
v 0.037705515 0.040163193 0.14691554
v 0.005555134 -0.040163193 0.19516765
v 0.0068513295 0.03980133 0.19624393
v 0.22693849 -0.040163193 -0.006189141
v 0.22693832 0.039836805 -0.0061895037
v 0.19272879 0.039836805 -0.072435915
v 0.19272879 -0.040163193 -0.072435915
v -0.19084348 -0.040163115 0.05430629
v -0.22693841 0.039836805 0.12049343
v -0.22693849 -0.040163193 0.12049335
v -0.1908434 0.039836884 0.05430637
v -0.14232439 -0.040163115 -0.011197228
v -0.14232439 0.039836884 -0.011197228
v -0.22693849 -0.040163193 0.12049335
v -0.22693841 0.039836805 0.12049343
v -0.14983355 0.039836805 0.14483276
v -0.14983357 -0.040163193 0.14483272
v -0.11039282 -0.040163115 0.0070405146
v -0.11039274 0.039836884 0.0070404955
v -0.14232439 0.039836884 -0.011197228
v -0.14232439 -0.040163115 -0.011197228
v -0.15608945 -0.040163193 0.15983684
v -0.15608941 0.039836805 0.15983687
v -0.06896853 0.039836805 0.18514022
v -0.068968445 -0.040163193 0.18514027
v -0.068968445 -0.040163193 0.18514027
v -0.06896853 0.039836805 0.18514022
v -0.06258982 0.039836805 0.17026024
v -0.06258974 -0.040163193 0.17026028
v -0.14983357 -0.040163193 0.14483272
v -0.14983355 0.039836805 0.14483276
v -0.15608941 0.039836805 0.15983687
v -0.15608945 -0.040163193 0.15983684
v -0.06258974 -0.040163193 0.17026028
v -0.06258982 0.039836805 0.17026024
v 0.0068513295 0.03980133 0.19624393
v 0.005555134 -0.040163193 0.19516765
v -0.074716926 -0.040163193 -0.027398666
v -0.07471685 0.039836805 -0.027398685
v -0.11039274 0.039836884 0.0070404955
v -0.11039282 -0.040163115 0.0070405146
vt 0.34038717 0.0025464296
vt 0.3401144 0.9926963
vt 0.3305474 0.9926963
vt 0.33082026 0.0025464296
vt 0.33082026 0.0025464296
vt 0.3305474 0.9926963
vt 0.26543686 0.9926963
vt 0.26570973 0.0025464296
vt 0.26570973 0.0025464296
vt 0.26543686 0.9926963
vt 0.2557766 0.9926963
vt 0.25604954 0.0025464296
vt 0.06363735 0.0025464296
vt 0.06336383 0.9926963
vt 0.0013838187 0.9926963
vt 0.0013838187 0.0025464296
vt 0.1412994 0.0025464296
vt 0.086411394 0.9926963
vt 0.08668456 0.0025464296
vt 0.14102641 0.9926963
vt 0.22028437 0.0025464296
vt 0.2200115 0.9926963
vt 0.08668456 0.0025464296
vt 0.086411394 0.9926963
vt 0.06336383 0.9926963
vt 0.06363735 0.0025464296
vt 0.25604954 0.0025464296
vt 0.2557766 0.9926963
vt 0.2200115 0.9926963
vt 0.22028437 0.0025464296
vt 0.43117845 0.0025464296
vt 0.39443415 0.9926963
vt 0.39470726 0.0025464296
vt 0.43090534 0.9926963
vt 0.4839396 0.0025464296
vt 0.48366648 0.9926963
vt 0.5342437 0.0025464296
vt 0.5336123 0.9926963
vt 0.57571256 0.0025464296
vt 0.5751351 0.9926963
vt 0.6180525 0.0025464296
vt 0.6175256 0.9926963
vt 0.39470726 0.0025464296
vt 0.39443415 0.9926963
vt 0.3401144 0.9926963
vt 0.34038717 0.0025464296
vt 0.8744678 0.0025464296
vt 0.8201758 0.9926963
vt 0.81954485 0.0025464296
vt 0.87509876 0.9926963
vt 0.9338539 0.0025464296
vt 0.9344849 0.9926963
vt 0.81954485 0.0025464296
vt 0.8201758 0.9926963
vt 0.7612708 0.9926963
vt 0.76063985 0.0025464296
vt 0.9606438 0.0025464296
vt 0.9612748 0.9926963
vt 0.9344849 0.9926963
vt 0.9338539 0.0025464296
vt 0.7487969 0.0025464296
vt 0.74942786 0.9926963
vt 0.6833354 0.9926963
vt 0.6827043 0.0025464296
vt 0.6827043 0.0025464296
vt 0.6833354 0.9926963
vt 0.671541 0.9926963
vt 0.6709099 0.0025464296
vt 0.76063985 0.0025464296
vt 0.7612708 0.9926963
vt 0.74942786 0.9926963
vt 0.7487969 0.0025464296
vt 0.6709099 0.0025464296
vt 0.671541 0.9926963
vt 0.6175256 0.9926963
vt 0.6180525 0.0025464296
vt 0.99739987 0.0025464296
vt 0.99739987 0.9926963
vt 0.9612748 0.9926963
vt 0.9606438 0.0025464296
vn 0.4062433 1.8156481E-07 0.91376495
vn 0.4062433 1.8156481E-07 0.91376495
vn 0.40624335 1.8156483E-07 0.91376495
vn 0.40624326 1.815648E-07 0.91376495
vn 0.88784677 -1.6743297E-06 -0.46013921
vn 0.88784677 -1.6743297E-06 -0.4601392
vn 0.88784677 -1.6743297E-06 -0.46013921
vn 0.88784677 -1.6743297E-06 -0.4601392
vn -0.33315855 -2.5606604E-07 -0.94287074
vn -0.33315855 -2.5606604E-07 -0.94287074
vn -0.33315858 -2.560661E-07 -0.94287086
vn -0.33315855 -2.5606604E-07 -0.94287074
vn -0.65768015 1.6088782E-07 -0.7532973
vn -0.6576801 1.6088781E-07 -0.7532974
vn -0.67144394 2.7330293E-07 -0.7410554
vn -0.67144394 2.73303E-07 -0.74105537
vn -0.48647332 -3.7982843E-06 -0.8736954
vn -0.56610113 -5.196234E-06 -0.8243358
vn -0.56610113 -5.1962343E-06 -0.8243358
vn -0.48647338 -3.7982852E-06 -0.8736954
vn -0.42891827 -2.8121733E-06 -0.9033433
vn -0.42891833 -2.8121735E-06 -0.9033433
vn -0.7573427 -2.6015455E-06 0.6530176
vn -0.75734264 -2.601546E-06 0.6530177
vn -0.7573427 -2.6015462E-06 0.6530177
vn -0.75734264 -2.6015452E-06 0.6530177
vn 0.8870373 -1.2954625E-06 -0.46169773
vn 0.8870373 -1.2954627E-06 -0.4616978
vn 0.8870373 -1.2954625E-06 -0.46169773
vn 0.8870373 -1.2954627E-06 -0.4616978
vn 0.4745986 -1.7416112E-06 0.8802024
vn 0.4191414 1.7930826E-06 0.907921
vn 0.4191414 1.7930823E-06 0.907921
vn 0.4745986 -1.7416089E-06 0.8802024
vn 0.61209273 -0.005258979 0.7907685
vn 0.6120746 -0.0052579907 0.7907825
vn 0.7497147 -0.020665525 0.66143835
vn 0.749633 -0.02064547 0.6615316
vn 0.8273615 -0.03230323 0.56073993
vn 0.8273648 -0.0323032 0.5607352
vn 0.8554984 -0.03195811 0.5168183
vn 0.85549843 -0.03195811 0.5168182
vn 0.8885233 -1.6047525E-07 -0.4588314
vn 0.8885233 -1.6047525E-07 -0.4588314
vn 0.8885233 -1.6047524E-07 -0.4588314
vn 0.8885233 -1.6047524E-07 -0.4588314
vn -0.8413068 1.1390929E-06 -0.5405578
vn -0.8779347 1.3530987E-06 -0.47878045
vn -0.8779347 1.3530986E-06 -0.4787805
vn -0.8413068 1.1390927E-06 -0.54055786
vn -0.8035695 9.359414E-07 -0.59521097
vn -0.8035695 9.359414E-07 -0.59521097
vn -0.30102384 -5.7948563E-07 0.9536166
vn -0.30102384 -5.794856E-07 0.9536166
vn -0.3010238 -5.794855E-07 0.9536166
vn -0.3010238 -5.794856E-07 0.9536166
vn 0.49595654 0 -0.86834735
vn 0.49595648 0 -0.86834735
vn 0.49595654 0 -0.86834735
vn 0.49595654 0 -0.86834735
vn -0.27891433 0 0.960316
vn -0.27891433 0 0.960316
vn -0.27891433 0 0.960316
vn -0.27891433 0 0.960316
vn 0.91910994 1.5068457E-06 0.39400122
vn 0.9191098 1.5068456E-06 0.39400128
vn 0.91910994 1.5068457E-06 0.39400122
vn 0.9191098 1.5068456E-06 0.39400128
vn -0.9229861 2.3391645E-07 -0.38483337
vn -0.9229861 2.3391647E-07 -0.38483343
vn -0.9229861 2.3391645E-07 -0.38483337
vn -0.9229861 2.3391647E-07 -0.38483343
vn -0.34691313 -0.0034991724 0.9378907
vn -0.34691313 -0.0034991726 0.9378907
vn -0.34691313 -0.0034991724 0.9378907
vn -0.34691313 -0.0034991724 0.9378907
vn -0.67144394 2.73303E-07 -0.74105537
vn -0.67144394 2.7330293E-07 -0.7410554
vn -0.69452673 4.659499E-07 -0.7194669
vn -0.69452673 4.6594982E-07 -0.7194669
g sector_2D_extrude_0
f 3/3/3 2/2/2 1/1/1
f 4/4/4 3/3/3 1/1/1
f 7/7/7 6/6/6 5/5/5
f 8/8/8 7/7/7 5/5/5
f 11/11/11 10/10/10 9/9/9
f 12/12/12 11/11/11 9/9/9
f 15/15/15 14/14/14 13/13/13
f 16/16/16 15/15/15 13/13/13
f 19/19/19 18/18/18 17/17/17
f 18/18/18 20/20/20 17/17/17
f 17/17/17 20/20/20 21/21/21
f 20/20/20 22/22/22 21/21/21
f 25/25/25 24/24/24 23/23/23
f 26/26/26 25/25/25 23/23/23
f 29/29/29 28/28/28 27/27/27
f 30/30/30 29/29/29 27/27/27
f 33/33/33 32/32/32 31/31/31
f 32/32/32 34/34/34 31/31/31
f 31/31/31 34/34/34 35/35/35
f 34/34/34 36/36/36 35/35/35
f 35/35/35 36/36/36 37/37/37
f 36/36/36 38/38/38 37/37/37
f 37/37/37 38/38/38 39/39/39
f 38/38/38 40/40/40 39/39/39
f 39/39/39 40/40/40 41/41/41
f 40/40/40 42/42/42 41/41/41
f 45/45/45 44/44/44 43/43/43
f 46/46/46 45/45/45 43/43/43
f 49/49/49 48/48/48 47/47/47
f 48/48/48 50/50/50 47/47/47
f 47/47/47 50/50/50 51/51/51
f 50/50/50 52/52/52 51/51/51
f 55/55/55 54/54/54 53/53/53
f 56/56/56 55/55/55 53/53/53
f 59/59/59 58/58/58 57/57/57
f 60/60/60 59/59/59 57/57/57
f 63/63/63 62/62/62 61/61/61
f 64/64/64 63/63/63 61/61/61
f 67/67/67 66/66/66 65/65/65
f 68/68/68 67/67/67 65/65/65
f 71/71/71 70/70/70 69/69/69
f 72/72/72 71/71/71 69/69/69
f 75/75/75 74/74/74 73/73/73
f 76/76/76 75/75/75 73/73/73
f 79/79/79 78/78/78 77/77/77
f 80/80/80 79/79/79 77/77/77
