g sector_fill_1L
v -0.09045329 -3.8146972E-08 0.15073723
v 0.1600468 -3.8146972E-08 0.082012445
v 0.17080829 -3.8146972E-08 0.12760243
v -0.09799775 -3.8146972E-08 0.11607036
v 0.14000691 -3.8146972E-08 0.030371321
v -0.11320037 -3.8146972E-08 0.08514431
v 0.11072041 3.8146972E-08 -0.019888649
v 0.07502404 -3.8146972E-08 -0.0662822
v -0.13668634 -3.8146972E-08 0.056910705
v 0.024453439 -3.8146972E-08 -0.114830054
v -0.037912454 -3.8146972E-08 -0.15073723
v -0.17080829 -3.8146972E-08 0.033294182
vt 0.08857568 0.8213053
vt 0.14900298 0.0076068435
vt 0.0019682662 0.0019920322
vt 0.19999501 0.82360643
vt 0.3202981 0.03816505
vt 0.3045122 0.85177433
vt 0.49292412 0.09806001
vt 0.6575067 0.1800505
vt 0.40573785 0.9071037
vt 0.8377212 0.3065876
vt 0.98610127 0.47712436
vt 0.4991599 0.9980081
vn -0 1 1.1428509E-06
vn -0 1 1.1428508E-06
vn -0 1 1.1428508E-06
vn -0 1 1.1428508E-06
vn -0 1 1.3460696E-07
vn -0 1 1.3460698E-07
vn -5.0211725E-07 1 3.9790956E-07
vn -5.0211725E-07 1 3.9790956E-07
vn -0 1 -9.420862E-07
vn -0 1 -9.420862E-07
vn -0 1 -9.420863E-07
vn -0 1 -9.420862E-07
g sector_fill_1L_0
f 3/3/3 2/2/2 1/1/1
f 2/2/2 4/4/4 1/1/1
f 2/2/2 5/5/5 4/4/4
f 5/5/5 6/6/6 4/4/4
f 5/5/5 7/7/7 6/6/6
f 7/7/7 8/8/8 6/6/6
f 8/8/8 9/9/9 6/6/6
f 8/8/8 10/10/10 9/9/9
f 9/9/9 10/10/10 11/11/11
f 12/12/12 9/9/9 11/11/11
