g sector_3D_lines_upper
v -0.22193801 -3.8146972E-08 0.08936215
v -0.17624412 -3.8146972E-08 -0.015938176
v -0.21660918 -3.8146972E-08 0.08580556
v -0.1801361 -3.8146972E-08 -0.018452367
v -0.1368412 -3.8146972E-08 0.10660336
v -0.14559387 -3.8146972E-08 -0.067862555
v -0.13152923 -3.8146972E-08 0.10438279
v -0.14976998 -3.8146972E-08 -0.07090968
v -0.15435219 -3.8146972E-08 0.18487911
v -0.09509941 -3.8146972E-08 -0.14525518
v -0.15006675 -3.8146972E-08 0.18592495
v -0.09923759 -3.8146972E-08 -0.14878654
v -0.16451102 -3.8146972E-08 0.25648728
v 0.0009344482 -3.8146972E-08 -0.25438756
v -0.1597512 -3.8146972E-08 0.25305474
v 0.00035583496 -3.8146972E-08 -0.26000145
v 0.011215286 -3.8146972E-08 0.26000145
v 0.029784622 -3.8146972E-08 -0.2356296
v 0.006563339 -3.8146972E-08 0.25575426
v 0.030051345 -3.8146972E-08 -0.24062519
v 0.017261581 -3.8146972E-08 0.20314872
v 0.18949088 3.8146972E-08 -0.11735143
v 0.013080673 -3.8146972E-08 0.20216995
v 0.19198917 3.8146972E-08 -0.12014941
v 0.034096908 -3.8146972E-08 0.13192151
v 0.2159372 3.8146972E-08 -0.09876116
v 0.030169448 -3.8146972E-08 0.13011543
v 0.22193801 3.8146972E-08 -0.09907748
v 0.06762039 -3.8146972E-08 0.05266183
v 0.19173092 3.8146972E-08 -0.07418011
v 0.06313965 -3.8146972E-08 0.0500916
v 0.19228645 3.8146972E-08 -0.0696124
v 0.107996255 -3.8146972E-08 -0.018751439
v 0.15919681 3.8146972E-08 -0.094906874
v 0.10493408 -3.8146972E-08 -0.021922179
v 0.16003929 3.8146972E-08 -0.08895051
vt 0.08363738 0.1959672
vt 0.033914637 0.4120862
vt 0.087843396 0.2076082
vt 0.024980195 0.41153157
vt 0.23571397 0.26675576
vt 0.022017743 0.52796674
vt 0.24142599 0.2763003
vt 0.012030372 0.52791476
vt 0.2982604 0.12497479
vt 0.011764892 0.7062021
vt 0.30612254 0.12826358
vt 0.0012810966 0.7069465
vt 0.3645906 0.0019920322
vt 0.035912834 0.98601186
vt 0.36805424 0.012787595
vt 0.028574862 0.99407655
vt 0.6418293 0.19806202
vt 0.10228004 0.98993534
vt 0.6297259 0.19933012
vt 0.09696551 0.9980081
vt 0.5860277 0.2933874
vt 0.4862302 0.9892045
vt 0.5784049 0.2901142
vt 0.4869055 0.99641985
vt 0.5305144 0.4234349
vt 0.54866767 0.9906317
vt 0.52233696 0.42173862
vt 0.5576346 0.9980056
vt 0.49173492 0.58510983
vt 0.5392243 0.9246534
vt 0.48182085 0.5839671
vt 0.5453266 0.9181889
vt 0.47260776 0.7424443
vt 0.46487162 0.91956604
vt 0.4642105 0.74386203
vt 0.47301254 0.91127163
vn -0 1 0
vn -0 1 0
vn -0 1 0
vn -0 1 0
vn -0 1 1.9818829E-06
vn -0 1 -3.7523105E-06
vn -0 1 2.5779134E-06
vn -0 1 -4.0414993E-06
vn -0 1 1.2560018E-06
vn -0 1 -2.6562652E-06
vn -0 1 1.0165746E-06
vn -0 1 -2.4443136E-06
vn -0 1 -9.2147565E-07
vn -0 1 0
vn -0 1 -7.597667E-07
vn -0 1 0
vn -0 1 -4.985918E-07
vn -3.433912E-07 1 0
vn -0 1 -3.8704576E-07
vn -2.6641516E-07 1 0
vn -0 1 -6.913653E-07
vn -3.289071E-07 1 0
vn -0 1 -6.3884136E-07
vn -3.1707094E-07 1 0
vn -0 1 0
vn -0 1 -5.488417E-06
vn -0 1 0
vn -0 1 -5.806115E-06
vn -0 1 0
vn -0 1 -1.516059E-05
vn -0 1 0
vn -0 1 -1.5144329E-05
vn -3.886245E-07 1 0
vn -6.2680414E-07 1 -6.0803013E-06
vn -5.1803886E-07 1 0
vn -6.552147E-07 1 -5.471682E-06
g sector_3D_lines_upper_0
f 3/3/3 2/2/2 1/1/1
f 2/2/2 4/4/4 1/1/1
f 3/3/3 1/1/1 5/5/5
f 2/2/2 6/6/6 4/4/4
f 7/7/7 3/3/3 5/5/5
f 6/6/6 8/8/8 4/4/4
f 7/7/7 5/5/5 9/9/9
f 6/6/6 10/10/10 8/8/8
f 11/11/11 7/7/7 9/9/9
f 10/10/10 12/12/12 8/8/8
f 11/11/11 9/9/9 13/13/13
f 10/10/10 14/14/14 12/12/12
f 15/15/15 11/11/11 13/13/13
f 14/14/14 16/16/16 12/12/12
f 15/15/15 13/13/13 17/17/17
f 14/14/14 18/18/18 16/16/16
f 19/19/19 15/15/15 17/17/17
f 18/18/18 20/20/20 16/16/16
f 19/19/19 17/17/17 21/21/21
f 18/18/18 22/22/22 20/20/20
f 23/23/23 19/19/19 21/21/21
f 22/22/22 24/24/24 20/20/20
f 23/23/23 21/21/21 25/25/25
f 22/22/22 26/26/26 24/24/24
f 27/27/27 23/23/23 25/25/25
f 26/26/26 28/28/28 24/24/24
f 27/27/27 25/25/25 29/29/29
f 26/26/26 30/30/30 28/28/28
f 31/31/31 27/27/27 29/29/29
f 30/30/30 32/32/32 28/28/28
f 31/31/31 29/29/29 33/33/33
f 30/30/30 34/34/34 32/32/32
f 35/35/35 31/31/31 33/33/33
f 34/34/34 36/36/36 32/32/32
f 35/35/35 33/33/33 36/36/36
f 34/34/34 35/35/35 36/36/36
