g sector_4M_lines_upper
v -0.021711485 6.641388E-05 -0.13198015
v 0.0431455 -6.641388E-05 -0.10642809
v -0.024151823 -6.641388E-05 -0.124750875
v 0.038560465 6.641388E-05 -0.11638204
v -0.11786653 6.641388E-05 -0.15105909
v 0.056460697 -6.641388E-05 -0.1340885
v -0.11941234 -6.641388E-05 -0.14366426
v 0.052120566 6.641388E-05 -0.14415163
v -0.19765963 6.641388E-05 -0.15803239
v 0.15670744 -6.641388E-05 -0.10389812
v -0.1907299 -6.641388E-05 -0.14954221
v 0.16668054 6.641388E-05 -0.10844133
v -0.20082687 6.641388E-05 -0.13050127
v 0.14411516 -6.641388E-05 -0.07615108
v -0.19380741 -6.641388E-05 -0.12208513
v 0.15429048 6.641388E-05 -0.08022131
v -0.31862944 6.641388E-05 -0.13827997
v 0.30805856 -6.641388E-05 -0.008611121
v -0.31113976 -6.641388E-05 -0.13027944
v 0.31862944 6.641388E-05 -0.011502585
v -0.31862944 6.641388E-05 0.03756798
v 0.1893631 -6.641388E-05 0.1474489
v -0.3106267 -6.641388E-05 0.030080646
v 0.19220804 6.641388E-05 0.15803239
v -0.18025409 6.641388E-05 0.046786617
v 0.070068255 -6.641388E-05 0.09643473
v -0.17899749 -6.641388E-05 0.038964257
v 0.06612611 6.641388E-05 0.10400297
v -0.02674927 6.641388E-05 0.072080255
v -0.024067823 -6.641388E-05 0.064577535
vt 0.37609783 0.5490917
vt 0.35624796 0.44408935
vt 0.3645091 0.55069005
vt 0.36992136 0.45385328
vt 0.37720886 0.6993641
vt 0.40172395 0.4319831
vt 0.36562774 0.69956774
vt 0.41563213 0.44140914
vt 0.3647909 0.82152045
vt 0.3850573 0.27235946
vt 0.35399508 0.80864644
vt 0.39476487 0.25864622
vt 0.32242376 0.8183837
vt 0.3396577 0.28334996
vt 0.31176516 0.80539554
vt 0.34871075 0.26919588
vt 0.30029976 0.998008
vt 0.2850397 0.017081104
vt 0.29040286 0.9844305
vt 0.2924305 0.0019920322
vt 0.035502736 0.9474999
vt 0.015950663 0.15099242
vt 0.0490771 0.93759865
vt 0.00082960515 0.14366788
vt 0.061365254 0.7364818
vt 0.05850572 0.34528118
vt 0.073506996 0.7368365
vt 0.045975436 0.34904388
vt 0.067368716 0.49806625
vt 0.079438366 0.4961834
vn -0.0037942787 0.99985373 0.016674206
vn 0.014257363 0.9998745 0.006911235
vn -0.0037438856 0.99985266 0.016749281
vn 0.014257365 0.9998745 0.006911235
vn -0.002597634 0.99984825 0.017224638
vn -0.004988772 0.9998553 0.01626556
vn -0.002516936 0.9998485 0.017223926
vn -0.004988772 0.9998553 0.01626556
vn -0.0014642603 0.99985075 0.017214593
vn -0.016291704 0.99984086 -0.007273187
vn -0.0014642602 0.99985075 0.01721459
vn -0.016291706 0.99984086 -0.007273188
vn -0.0011693027 0.9998511 0.017216045
vn -0.016291706 0.99984086 -0.007273188
vn -0.0011693027 0.9998511 0.017216045
vn -0.016291708 0.99984086 -0.007273188
vn 0.01714581 0.999853 -2.6070013E-05
vn -0.013829416 0.99985015 -0.010406567
vn 0.01714581 0.999853 -2.6070013E-05
vn -0.0138294175 0.99985015 -0.010406568
vn 0.017145813 0.999853 -2.6070016E-05
vn -0.013829417 0.99985015 -0.010406567
vn 0.017145813 0.999853 -2.607001E-05
vn -0.013829416 0.99985015 -0.010406567
vn 0.0019640177 0.9998596 -0.016643574
vn 0.0057732854 0.9998758 -0.014670246
vn 0.0020094027 0.99985945 -0.016642569
vn 0.0057114917 0.99987495 -0.014745533
vn 0.0036613091 0.9998629 -0.016149562
vn 0.0038088923 0.9998636 -0.016072838
g sector_4M_lines_upper_0
f 3/3/3 2/2/2 1/1/1
f 2/2/2 4/4/4 1/1/1
f 3/3/3 1/1/1 5/5/5
f 2/2/2 6/6/6 4/4/4
f 7/7/7 3/3/3 5/5/5
f 6/6/6 8/8/8 4/4/4
f 7/7/7 5/5/5 9/9/9
f 6/6/6 10/10/10 8/8/8
f 11/11/11 7/7/7 9/9/9
f 10/10/10 12/12/12 8/8/8
f 11/11/11 9/9/9 13/13/13
f 10/10/10 14/14/14 12/12/12
f 15/15/15 11/11/11 13/13/13
f 14/14/14 16/16/16 12/12/12
f 15/15/15 13/13/13 17/17/17
f 14/14/14 18/18/18 16/16/16
f 19/19/19 15/15/15 17/17/17
f 18/18/18 20/20/20 16/16/16
f 19/19/19 17/17/17 21/21/21
f 18/18/18 22/22/22 20/20/20
f 23/23/23 19/19/19 21/21/21
f 22/22/22 24/24/24 20/20/20
f 23/23/23 21/21/21 25/25/25
f 22/22/22 26/26/26 24/24/24
f 27/27/27 23/23/23 25/25/25
f 26/26/26 28/28/28 24/24/24
f 27/27/27 25/25/25 29/29/29
f 26/26/26 30/30/30 28/28/28
f 30/30/30 29/29/29 28/28/28
f 30/30/30 27/27/27 29/29/29
