g sector_1D_extrude
v -0.16205062 -0.040000036 0.123094805
v -0.16205059 0.03999996 0.12309412
v 0.08660921 0.03999996 0.14424105
v 0.086609155 -0.040000036 0.14424174
v 0.086609155 -0.040000036 0.14424174
v 0.08660921 0.03999996 0.14424105
v 0.0936412 0.03999996 0.11310316
v 0.09364107 -0.040000036 0.113103084
v 0.108646296 0.03999996 0.08183214
v 0.10864616 -0.040000036 0.081832066
v 0.13360746 0.03999996 0.051885966
v 0.13360746 -0.040000036 0.051885966
v 0.16205062 0.03999996 0.030403538
v 0.16205062 -0.040000036 0.030403538
v -0.15444888 -0.040000036 0.08464102
v -0.16205059 0.03999996 0.12309412
v -0.16205062 -0.040000036 0.123094805
v -0.1544488 0.03999996 0.084641054
v -0.13551986 -0.040000036 0.03422987
v -0.13551986 0.03999996 0.034229945
v -0.10686119 -0.03999996 -0.014915561
v -0.106861226 0.040000036 -0.014915561
v 0.16205062 -0.040000036 0.030403538
v 0.16205062 0.03999996 0.030403538
v 0.03666212 0.03999996 -0.1442412
v 0.036661815 -0.040000036 -0.14424174
v 0.036661815 -0.040000036 -0.14424174
v 0.03666212 0.03999996 -0.1442412
v -0.018948937 0.03999996 -0.111762136
v -0.01894924 -0.040000036 -0.11176267
v -0.068200566 0.03999996 -0.06355276
v -0.0682006 -0.040000036 -0.06355272
v -0.106861226 0.040000036 -0.014915561
v -0.10686119 -0.03999996 -0.014915561
vt 0.8403951 0.0025464166
vt 0.8403946 0.9926963
vt 0.5790733 0.9926963
vt 0.5790738 0.0025464166
vt 0.5790738 0.0025464166
vt 0.5790733 0.9926963
vt 0.5456465 0.9926963
vt 0.5456462 0.0025464166
vt 0.50932676 0.9926963
vt 0.50932646 0.0025464166
vt 0.4685039 0.9926963
vt 0.4685036 0.0025464166
vt 0.43117946 0.9926963
vt 0.43117917 0.0025464166
vt 0.8814409 0.0025464166
vt 0.8403946 0.9926963
vt 0.8403951 0.0025464166
vt 0.88143957 0.9926963
vt 0.937827 0.0025464166
vt 0.9378258 0.9926963
vt 0.9973999 0.0025464166
vt 0.9973999 0.9926963
vt 0.43117917 0.0025464166
vt 0.43117946 0.9926963
vt 0.20604926 0.9926963
vt 0.20604831 0.0025464166
vt 0.20604831 0.0025464166
vt 0.20604926 0.9926963
vt 0.13861257 0.9926963
vt 0.13861161 0.0025464166
vt 0.06644446 0.9926963
vt 0.066443264 0.0025464166
vt 0.001383841 0.9926963
vt 0.001383841 0.0025464166
vn -0.084737726 8.592914E-06 0.99640334
vn -0.08473773 8.592915E-06 0.99640334
vn -0.08473773 8.592915E-06 0.99640334
vn -0.08473773 8.592915E-06 0.99640334
vn 0.9754361 -1.2981316E-07 0.22028264
vn 0.9754361 -1.2981316E-07 0.22028263
vn 0.9429418 -1.2271307E-06 0.33295774
vn 0.9429418 -1.2271312E-06 0.33295777
vn 0.83734703 -1.5866477E-06 0.54667175
vn 0.83734703 -1.5866478E-06 0.5466717
vn 0.69365644 -5.2498115E-07 0.720306
vn 0.69365644 -5.2498115E-07 0.720306
vn 0.6026909 0 0.7979747
vn 0.6026909 0 0.7979747
vn -0.95820713 9.827315E-07 -0.2860752
vn -0.9810145 6.215251E-07 -0.19393432
vn -0.9810145 6.215251E-07 -0.19393432
vn -0.95820713 9.827314E-07 -0.2860752
vn -0.9022273 7.780131E-07 -0.431261
vn -0.9022273 7.7801315E-07 -0.43126097
vn -0.8236733 0 -0.5670646
vn -0.8236733 0 -0.5670645
vn 0.8123183 5.322938E-07 -0.58321446
vn 0.8123183 5.322938E-07 -0.58321446
vn 0.8123182 5.3229377E-07 -0.5832144
vn 0.8123183 5.322938E-07 -0.58321446
vn -0.50432605 7.632481E-06 -0.86351335
vn -0.50432605 7.6324795E-06 -0.86351335
vn -0.60983056 5.6332024E-06 -0.7925318
vn -0.6098304 5.633204E-06 -0.79253197
vn -0.74043643 1.8772683E-06 -0.67212635
vn -0.74043643 1.8772681E-06 -0.67212635
vn -0.8236733 0 -0.5670645
vn -0.8236733 0 -0.5670646
g sector_1D_extrude_0
f 3/3/3 2/2/2 1/1/1
f 4/4/4 3/3/3 1/1/1
f 7/7/7 6/6/6 5/5/5
f 8/8/8 7/7/7 5/5/5
f 9/9/9 7/7/7 8/8/8
f 10/10/10 9/9/9 8/8/8
f 11/11/11 9/9/9 10/10/10
f 12/12/12 11/11/11 10/10/10
f 13/13/13 11/11/11 12/12/12
f 14/14/14 13/13/13 12/12/12
f 17/17/17 16/16/16 15/15/15
f 16/16/16 18/18/18 15/15/15
f 15/15/15 18/18/18 19/19/19
f 18/18/18 20/20/20 19/19/19
f 19/19/19 20/20/20 21/21/21
f 20/20/20 22/22/22 21/21/21
f 25/25/25 24/24/24 23/23/23
f 26/26/26 25/25/25 23/23/23
f 29/29/29 28/28/28 27/27/27
f 30/30/30 29/29/29 27/27/27
f 31/31/31 29/29/29 30/30/30
f 32/32/32 31/31/31 30/30/30
f 33/33/33 31/31/31 32/32/32
f 34/34/34 33/33/33 32/32/32
