g sector_4D_lines_upper
v -0.04950302 -3.8146972E-08 0.22725025
v -0.07986915 -3.8146972E-08 0.27970755
v -0.08343308 -3.8146972E-08 0.27008772
v -0.056072462 -3.8146972E-08 0.22301763
v -0.14772728 -3.8146972E-08 0.24835604
v 0.0010293579 -3.8146972E-08 0.14937338
v -0.14383705 -3.8146972E-08 0.25733456
v -0.0035910034 -3.8146972E-08 0.1438776
v -0.16119446 -3.8146972E-08 0.27801067
v 0.10062279 -3.8146972E-08 0.038158417
v -0.15700264 -3.8146972E-08 0.28708667
v 0.09930122 -3.8146972E-08 0.030695295
v -0.2751458 -3.8146972E-08 0.24564193
v 0.1303183 -3.8146972E-08 0.057534732
v -0.28419295 -3.8146972E-08 0.24929166
v 0.12966423 -3.8146972E-08 0.049764965
v -0.26201904 -3.8146972E-08 0.2144704
v 0.2208778 -3.8146972E-08 -0.018841334
v -0.27014336 -3.8146972E-08 0.21807148
v 0.2118463 -3.8146972E-08 -0.019254712
v -0.30764776 -3.8146972E-08 0.20023443
v 0.2001603 -3.8146972E-08 -0.03983912
v -0.31553343 -3.8146972E-08 0.20335738
v 0.19170165 -3.8146972E-08 -0.040685024
v -0.2701531 -3.8146972E-08 0.13413961
v 0.31553343 3.8146972E-08 -0.117551684
v -0.27894995 -3.8146972E-08 0.13689071
v 0.30647686 3.8146972E-08 -0.119093664
v -0.2937957 -3.8146972E-08 0.123137414
v 0.18911205 3.8146972E-08 -0.28708667
v -0.30223578 -3.8146972E-08 0.12531199
v 0.18702026 3.8146972E-08 -0.28101188
v -0.22976851 -3.8146972E-08 0.033311006
v 0.1379499 -3.8146972E-08 -0.2585235
v -0.23627785 -3.8146972E-08 0.029934224
v 0.13642876 -3.8146972E-08 -0.25252706
v -0.1601258 -3.8146972E-08 -0.048198853
v 0.11864662 -3.8146972E-08 -0.27831832
v -0.16073051 -3.8146972E-08 -0.0573958
v 0.11748726 -3.8146972E-08 -0.27156505
v -0.13778374 -3.8146972E-08 -0.036752317
v 0.06829163 -3.8146972E-08 -0.24585803
v -0.13921493 -3.8146972E-08 -0.046055626
v 0.07274887 -3.8146972E-08 -0.24244277
v -0.050972138 -3.8146972E-08 -0.119270705
v 0.020554122 -3.8146972E-08 -0.21508512
v -0.05535095 -3.8146972E-08 -0.12409648
v 0.029335402 -3.8146972E-08 -0.213679
v 0.047193907 -3.8146972E-08 -0.19232376
v 0.038049698 -3.8146972E-08 -0.19347854
vt 0.3864689 0.24960208
vt 0.4061821 0.16748211
vt 0.39334664 0.17377219
vt 0.375772 0.24756719
vt 0.30756712 0.13397537
vt 0.36270705 0.37675023
vt 0.32011613 0.12864609
vt 0.35276502 0.37786224
vt 0.3224458 0.09110413
vt 0.35646543 0.58466685
vt 0.33539298 0.08596602
vt 0.34796485 0.59093267
vt 0.17631784 0.014364219
vt 0.4050521 0.59361887
vt 0.1706883 0.001992032
vt 0.39693096 0.6008353
vt 0.15963882 0.058440056
vt 0.4231432 0.75768715
vt 0.15489434 0.04700315
vt 0.41362795 0.7494322
vt 0.09990174 0.028998671
vt 0.38206384 0.7589931
vt 0.09493905 0.01827363
vt 0.37271163 0.7517249
vt 0.07429038 0.13173229
vt 0.42392367 0.94823754
vt 0.0680507 0.12050772
vt 0.4132994 0.941098
vt 0.039855924 0.12013785
vt 0.13349438 0.998008
vt 0.0334228 0.10983793
vt 0.13721569 0.98986626
vt 0.018244231 0.2723085
vt 0.1092678 0.92004275
vt 0.00842986 0.26946726
vt 0.11349001 0.91252804
vt 0.010287877 0.4214749
vt 0.07077139 0.92149216
vt 0.00084615505 0.4301796
vt 0.07608558 0.91356075
vt 0.043836005 0.43137196
vt 0.051101852 0.8403675
vt 0.033457715 0.43939036
vt 0.058881376 0.84119946
vt 0.052245114 0.5980426
vt 0.0324547 0.7634597
vt 0.043190345 0.5987101
vt 0.042670585 0.77047217
vt 0.081206694 0.76605994
vt 0.07086574 0.7584453
vn -0 1 2.6431503E-06
vn -0 1 -6.3168745E-06
vn -0 1 -6.305447E-06
vn -0 1 2.6949822E-06
vn -0 1 -8.092982E-06
vn -0 1 5.337567E-06
vn -0 1 -8.090416E-06
vn -0 1 5.56824E-06
vn -0 1 0
vn -0 1 5.0554136E-06
vn -0 1 0
vn -0 1 5.1678335E-06
vn -0 1 -1.3654354E-06
vn -0 1 6.742792E-06
vn -0 1 -1.5761025E-06
vn -0 1 6.648123E-06
vn -0 1 2.9123748E-06
vn -0 1 6.950729E-06
vn -0 1 3.130285E-06
vn -0 1 6.9657385E-06
vn -0 1 0
vn -0 1 6.1423993E-06
vn -0 1 0
vn -0 1 6.115586E-06
vn -0 1 -5.1162106E-06
vn -0 1 3.016412E-06
vn -0 1 -5.093259E-06
vn -0 1 3.0153283E-06
vn -0 1 0
vn -2.4794485E-07 1 0
vn -0 1 0
vn -3.4414444E-07 1 0
vn -0 1 4.562097E-06
vn -1.1799674E-06 1 0
vn -0 1 3.6210572E-06
vn -1.0371607E-06 1 0
vn -0 1 6.584E-06
vn -0 1 0
vn -0 1 6.060089E-06
vn -0 1 0
vn -0 1 -5.962722E-06
vn -0 1 0
vn -0 1 -5.9203835E-06
vn -0 1 0
vn -0 1 -3.722439E-06
vn -0 1 0
vn -0 1 -3.907644E-06
vn -0 1 0
vn -0 1 0
vn -0 1 0
g sector_4D_lines_upper_0
f 3/3/3 2/2/2 1/1/1
f 4/4/4 3/3/3 1/1/1
f 3/3/3 5/5/5 2/2/2
f 4/4/4 1/1/1 6/6/6
f 5/5/5 7/7/7 2/2/2
f 8/8/8 4/4/4 6/6/6
f 5/5/5 9/9/9 7/7/7
f 8/8/8 6/6/6 10/10/10
f 9/9/9 11/11/11 7/7/7
f 12/12/12 8/8/8 10/10/10
f 9/9/9 13/13/13 11/11/11
f 12/12/12 10/10/10 14/14/14
f 13/13/13 15/15/15 11/11/11
f 16/16/16 12/12/12 14/14/14
f 13/13/13 17/17/17 15/15/15
f 16/16/16 14/14/14 18/18/18
f 17/17/17 19/19/19 15/15/15
f 20/20/20 16/16/16 18/18/18
f 17/17/17 21/21/21 19/19/19
f 20/20/20 18/18/18 22/22/22
f 21/21/21 23/23/23 19/19/19
f 24/24/24 20/20/20 22/22/22
f 21/21/21 25/25/25 23/23/23
f 24/24/24 22/22/22 26/26/26
f 25/25/25 27/27/27 23/23/23
f 28/28/28 24/24/24 26/26/26
f 25/25/25 29/29/29 27/27/27
f 28/28/28 26/26/26 30/30/30
f 29/29/29 31/31/31 27/27/27
f 32/32/32 28/28/28 30/30/30
f 29/29/29 33/33/33 31/31/31
f 32/32/32 30/30/30 34/34/34
f 33/33/33 35/35/35 31/31/31
f 36/36/36 32/32/32 34/34/34
f 33/33/33 37/37/37 35/35/35
f 36/36/36 34/34/34 38/38/38
f 37/37/37 39/39/39 35/35/35
f 40/40/40 36/36/36 38/38/38
f 37/37/37 41/41/41 39/39/39
f 40/40/40 38/38/38 42/42/42
f 41/41/41 43/43/43 39/39/39
f 44/44/44 40/40/40 42/42/42
f 41/41/41 45/45/45 43/43/43
f 44/44/44 42/42/42 46/46/46
f 45/45/45 47/47/47 43/43/43
f 48/48/48 44/44/44 46/46/46
f 45/45/45 49/49/49 47/47/47
f 48/48/48 46/46/46 50/50/50
f 49/49/49 50/50/50 47/47/47
f 49/49/49 48/48/48 50/50/50
