g sector_fill_2LB
v -0.13847598 0 0.14145014
v -0.070608824 0 0.14004205
v -0.07768829 0 0.15572588
v -0.12552726 0 0.099693164
v 0.14468834 0 0.13779703
v 0.1304203 0 0.20277834
v 0.14922798 0 0.0772101
v -0.11759975 0 0.055722065
v 0.15028633 0 0.0045612524
v -0.11575744 0 0.012139759
v 0.14424004 0 -0.052291468
v -0.11948471 0 -0.028705997
v 0.12740478 0 -0.12351869
v -0.13024624 0 -0.074295975
v 0.093881376 0 -0.20277834
v 0.022158965 0 -0.16307057
v 0.015185928 0 -0.17808911
v -0.07561096 0 -0.13464949
v -0.08220981 0 -0.15004304
v -0.15028633 0 -0.12593736
vt 0.71129364 0.84586847
vt 0.54464406 0.8428033
vt 0.5621179 0.8812724
vt 0.6792578 0.74341303
vt 0.015990255 0.8385354
vt 0.051399555 0.998008
vt 0.0044931886 0.6897964
vt 0.6595385 0.63549215
vt 0.0014745446 0.5114203
vt 0.65476274 0.5284908
vt 0.015992036 0.3717889
vt 0.663679 0.4281762
vt 0.056917764 0.19680019
vt 0.68983895 0.31617254
vt 0.13877277 0.001992032
vt 0.31510994 0.099075995
vt 0.33214444 0.06215916
vt 0.55533844 0.1682962
vt 0.5714524 0.13046056
vt 0.7387468 0.18925625
vn -0 1 -1.1828076E-06
vn -0 1 -1.1828076E-06
vn -0 1 -1.1828076E-06
vn -0 1 -1.1828078E-06
vn -0 1 1.0727658E-07
vn -0 1 5.3613564E-07
vn -0 1 -1.02174E-06
vn -0 1 -1.0217399E-06
vn -0 1 -1.0217401E-06
vn -0 1 -1.0217401E-06
vn -0 1 -9.701216E-07
vn -0 1 -9.701216E-07
vn -0 1 2.7263766E-07
vn -0 1 2.7263766E-07
vn -0 1 9.015203E-06
vn -0 1 9.015203E-06
vn -0 1 9.0152025E-06
vn -0 1 0
vn -0 1 -5.8262566E-07
vn -0 1 -5.8262566E-07
g sector_fill_2LB_0
f 3/3/3 2/2/2 1/1/1
f 2/2/2 4/4/4 1/1/1
f 5/5/5 4/4/4 2/2/2
f 6/6/6 5/5/5 2/2/2
f 5/5/5 7/7/7 4/4/4
f 7/7/7 8/8/8 4/4/4
f 7/7/7 9/9/9 8/8/8
f 9/9/9 10/10/10 8/8/8
f 9/9/9 11/11/11 10/10/10
f 11/11/11 12/12/12 10/10/10
f 12/12/12 11/11/11 13/13/13
f 14/14/14 12/12/12 13/13/13
f 14/14/14 13/13/13 15/15/15
f 16/16/16 14/14/14 15/15/15
f 17/17/17 16/16/16 15/15/15
f 16/16/16 18/18/18 14/14/14
f 18/18/18 19/19/19 14/14/14
f 19/19/19 20/20/20 14/14/14
