g sector_3LXtra_extrude
v 0.04327961 -0.04 0.12120292
v 0.10977443 0.04 0.122314066
v 0.10977443 -0.04 0.122314066
v 0.043279685 0.04 0.12120262
v -0.13710093 -0.04 0.06813217
v -0.13710086 0.04 0.068131864
v 0.10977443 -0.04 0.122314066
v 0.10977443 0.04 0.122314066
v 0.121713296 0.04 0.07523285
v 0.121713296 -0.04 0.07523285
v 0.13219357 0.04 0.015151138
v 0.13219357 -0.04 0.015151138
v 0.13219357 -0.04 0.015151138
v 0.13219357 0.04 0.015151138
v 0.13710093 0.04 -0.0472155
v 0.13710093 -0.04 -0.0472155
v 0.13388637 0.04 -0.11947121
v 0.13388637 -0.04 -0.11947121
v 0.13388637 -0.04 -0.11947121
v 0.13388637 0.04 -0.11947121
v 0.04996433 0.04 -0.12231365
v 0.04996433 -0.04 -0.122314066
v -0.11885204 0.04 -0.11819702
v -0.11885204 -0.04 -0.11819744
v -0.11885204 -0.04 -0.11819744
v -0.11885204 0.04 -0.11819702
v -0.12013973 0.04 -0.05179962
v -0.12013973 -0.04 -0.05179962
v -0.12483585 0.04 0.010138015
v -0.12483585 -0.04 0.010138015
v -0.13710086 0.04 0.068131864
v -0.13710093 -0.04 0.06813217
vt 0.18801647 0.0025464166
vt 0.11752087 0.9926963
vt 0.11752051 0.0025464166
vt 0.18801683 0.9926963
vt 0.38732827 0.0025464166
vt 0.38732862 0.9926963
vt 0.11752051 0.0025464166
vt 0.11752087 0.9926963
vt 0.06603414 0.9926963
vt 0.06603366 0.0025464166
vt 0.001383841 0.9926963
vt 0.001383841 0.0025464166
vt 0.9973999 0.0025464166
vt 0.9973999 0.9926963
vt 0.931085 0.9926963
vt 0.93108535 0.0025464166
vt 0.8544164 0.9926963
vt 0.85441685 0.0025464166
vt 0.85441685 0.0025464166
vt 0.8544164 0.9926963
vt 0.765406 0.9926963
vt 0.76540637 0.0025464166
vt 0.5864033 0.9926963
vt 0.58640367 0.0025464166
vt 0.58640367 0.0025464166
vt 0.5864033 0.9926963
vt 0.5160072 0.9926963
vt 0.5160071 0.0025464166
vt 0.4501633 0.9926963
vt 0.45016325 0.0025464166
vt 0.38732862 0.9926963
vt 0.38732827 0.0025464166
vn -0.21436933 3.3165268E-06 0.9767527
vn -0.01671022 1.9086833E-06 0.9998604
vn -0.01671022 1.9086833E-06 0.9998604
vn -0.21436927 3.316526E-06 0.9767527
vn -0.2822528 3.7831035E-06 0.95934
vn -0.2822528 3.783103E-06 0.95934
vn 0.9693205 0 0.24580032
vn 0.9693205 0 0.24580032
vn 0.97880954 0 0.20477283
vn 0.97880954 0 0.20477283
vn 0.9921963 0 0.124685764
vn 0.9921963 0 0.124685764
vn 0.9921963 0 0.124685764
vn 0.9921963 0 0.124685764
vn 0.99992096 0 0.012573521
vn 0.99992096 0 0.012573521
vn 0.9990119 0 -0.04444483
vn 0.9990119 0 -0.04444483
vn 0.033852927 2.612179E-06 -0.99942684
vn 0.033852927 2.612179E-06 -0.99942684
vn -0.0050405497 4.3705695E-06 -0.99998736
vn -0.00504055 4.3705695E-06 -0.99998736
vn -0.024377784 5.24248E-06 -0.99970275
vn -0.024377784 5.2424807E-06 -0.99970275
vn -0.99981207 -4.3378265E-07 -0.019389957
vn -0.99981207 -4.3378265E-07 -0.019389953
vn -0.9989147 -2.2422748E-07 -0.046575785
vn -0.9989147 -2.2422748E-07 -0.046575785
vn -0.9901472 3.1493872E-07 -0.14003026
vn -0.9901472 3.1493872E-07 -0.14003026
vn -0.97835964 6.435399E-07 -0.20691164
vn -0.97835964 6.4354E-07 -0.20691161
g sector_3LXtra_extrude_0
f 3/3/3 2/2/2 1/1/1
f 2/2/2 4/4/4 1/1/1
f 1/1/1 4/4/4 5/5/5
f 4/4/4 6/6/6 5/5/5
f 9/9/9 8/8/8 7/7/7
f 10/10/10 9/9/9 7/7/7
f 11/11/11 9/9/9 10/10/10
f 12/12/12 11/11/11 10/10/10
f 15/15/15 14/14/14 13/13/13
f 16/16/16 15/15/15 13/13/13
f 17/17/17 15/15/15 16/16/16
f 18/18/18 17/17/17 16/16/16
f 21/21/21 20/20/20 19/19/19
f 22/22/22 21/21/21 19/19/19
f 23/23/23 21/21/21 22/22/22
f 24/24/24 23/23/23 22/22/22
f 27/27/27 26/26/26 25/25/25
f 28/28/28 27/27/27 25/25/25
f 29/29/29 27/27/27 28/28/28
f 30/30/30 29/29/29 28/28/28
f 31/31/31 29/29/29 30/30/30
f 32/32/32 31/31/31 30/30/30
