g sector_6D_extrude
v -0.18374412 -0.040000036 0.19684295
v -0.14372405 0.03999996 0.22838138
v -0.14372359 -0.040000036 0.2283815
v -0.18374427 0.03999996 0.19684322
v -0.31032392 -0.040000036 0.105536014
v -0.31032392 0.03999996 0.105536014
v -0.14372359 -0.040000036 0.2283815
v -0.14372405 0.03999996 0.22838138
v -0.11337585 0.03999996 0.20458664
v -0.113375545 -0.040000036 0.20458698
v -0.113375545 -0.040000036 0.20458698
v -0.11337585 0.03999996 0.20458664
v -0.15481392 0.03999996 0.17059155
v -0.15481353 -0.040000036 0.170592
v 0.2611756 -0.040000036 -0.22838119
v 0.26117545 0.03999996 -0.2283815
v 0.15576392 0.03999996 -0.18573467
v 0.15576407 -0.040000036 -0.18573436
v 0.06545524 0.03999996 -0.14297706
v 0.06545524 -0.040000036 -0.14297706
v 0.19712989 -0.040000036 -0.0953546
v 0.19712974 0.03999996 -0.09535498
v 0.31032377 0.03999996 -0.14253104
v 0.31032392 -0.040000036 -0.14253066
v 0.31032392 -0.040000036 -0.14253066
v 0.31032377 0.03999996 -0.14253104
v 0.26117545 0.03999996 -0.2283815
v 0.2611756 -0.040000036 -0.22838119
v 0.15342872 -0.040000036 0.022452746
v 0.24556503 0.03999996 -0.017700186
v 0.24556503 -0.040000036 -0.017700186
v 0.15342857 0.03999996 0.02245244
v 0.06090759 -0.03999996 0.0750039
v 0.06090759 0.040000036 0.075003825
v 0.007292175 -0.03999996 0.116832666
v 0.007292099 0.040000036 0.11683308
v 0.24556503 -0.040000036 -0.017700186
v 0.24556503 0.03999996 -0.017700186
v 0.19712974 0.03999996 -0.09535498
v 0.19712989 -0.040000036 -0.0953546
v -0.029293822 -0.03999996 0.07736558
v -0.029294433 0.040000036 0.077365346
v 0.007292099 0.040000036 0.11683308
v 0.007292175 -0.03999996 0.116832666
v -0.087300874 -0.040000036 -0.08712096
v -0.22666168 0.03999996 0.0038904285
v -0.22666198 -0.040000036 0.0038899707
v -0.08730057 0.03999996 -0.0871205
v 0.051175155 -0.040000036 -0.16448654
v 0.051175155 0.03999996 -0.16448654
v -0.22666198 -0.040000036 0.0038899707
v -0.22666168 0.03999996 0.0038904285
v -0.20793144 0.03999996 0.020661935
v -0.20793144 -0.040000036 0.020661935
v 0.06545524 -0.040000036 -0.14297706
v 0.06545524 0.03999996 -0.14297706
v 0.051175155 0.03999996 -0.16448654
v 0.051175155 -0.040000036 -0.16448654
v -0.20793144 -0.040000036 0.020661935
v -0.20793144 0.03999996 0.020661935
v -0.31032392 0.03999996 0.105536014
v -0.31032392 -0.040000036 0.105536014
v -0.15481353 -0.040000036 0.170592
v -0.15481392 0.03999996 0.17059155
v -0.029294433 0.040000036 0.077365346
v -0.029293822 -0.03999996 0.07736558
vt 0.08679787 0.0025464166
vt 0.114682354 0.9926963
vt 0.11468301 0.0025464166
vt 0.08679745 0.9926963
vt 0.0013838187 0.0025464166
vt 0.0013838187 0.9926963
vt 0.11468301 0.0025464166
vt 0.114682354 0.9926963
vt 0.13578698 0.9926963
vt 0.13578752 0.0025464166
vt 0.13578752 0.0025464166
vt 0.13578698 0.9926963
vt 0.1651192 0.9926963
vt 0.16511968 0.0025464166
vt 0.6019191 0.0025464166
vt 0.60191935 0.9926963
vt 0.66414917 0.9926963
vt 0.664149 0.0025464166
vt 0.718831 0.9926963
vt 0.71883076 0.0025464166
vt 0.48067093 0.0025464166
vt 0.48067117 0.9926963
vt 0.5477825 0.9926963
vt 0.54778224 0.0025464166
vt 0.54778224 0.0025464166
vt 0.5477825 0.9926963
vt 0.60191935 0.9926963
vt 0.6019191 0.0025464166
vt 0.37558228 0.0025464166
vt 0.43058497 0.9926963
vt 0.4305849 0.0025464166
vt 0.37558234 0.9926963
vt 0.3173517 0.0025464166
vt 0.31735176 0.9926963
vt 0.28013703 0.0025464166
vt 0.28013685 0.9926963
vt 0.4305849 0.0025464166
vt 0.43058497 0.9926963
vt 0.48067117 0.9926963
vt 0.48067093 0.0025464166
vt 0.2506856 0.0025464166
vt 0.25068495 0.9926963
vt 0.28013685 0.9926963
vt 0.28013703 0.0025464166
vt 0.8197678 0.0025464166
vt 0.9108575 0.9926963
vt 0.9108574 0.0025464166
vt 0.8197679 0.9926963
vt 0.73296005 0.0025464166
vt 0.7329603 0.9926963
vt 0.9108574 0.0025464166
vt 0.9108575 0.9926963
vt 0.9246165 0.9926963
vt 0.92461663 0.0025464166
vt 0.71883076 0.0025464166
vt 0.718831 0.9926963
vt 0.7329603 0.9926963
vt 0.73296005 0.0025464166
vt 0.92461663 0.0025464166
vt 0.9246165 0.9926963
vt 0.99739987 0.9926963
vt 0.99739987 0.0025464166
vt 0.16511968 0.0025464166
vt 0.1651192 0.9926963
vt 0.25068495 0.9926963
vt 0.2506856 0.0025464166
vn -0.5934727 -1.521567E-06 0.80485404
vn -0.6189589 -3.1865613E-06 0.78542334
vn -0.6189589 -3.1865616E-06 0.78542334
vn -0.59347284 -1.5215675E-06 0.80485404
vn -0.58502036 -9.776574E-07 0.8110186
vn -0.58502036 -9.776574E-07 0.8110186
vn 0.6170144 5.175979E-06 0.7869518
vn 0.61701447 5.1759794E-06 0.7869519
vn 0.61701447 5.175979E-06 0.7869519
vn 0.61701447 5.1759785E-06 0.7869519
vn 0.63425636 -8.375989E-07 -0.7731228
vn 0.6342563 -8.3759886E-07 -0.7731228
vn 0.63425624 -8.37599E-07 -0.77312285
vn 0.63425624 -8.375989E-07 -0.77312285
vn -0.3750436 -4.342898E-06 -0.92700714
vn -0.3750436 -4.342898E-06 -0.92700714
vn -0.39994067 -3.2780574E-06 -0.91654104
vn -0.3999407 -3.2780576E-06 -0.91654104
vn -0.4279195 -2.0633236E-06 -0.9038169
vn -0.4279195 -2.0633236E-06 -0.9038169
vn 0.38469756 5.3888575E-06 0.92304265
vn 0.38469756 5.3888575E-06 0.92304265
vn 0.38469756 5.3888575E-06 0.92304265
vn 0.38469756 5.3888575E-06 0.92304265
vn 0.8678469 -1.4752427E-06 -0.4968317
vn 0.86784697 -1.4752426E-06 -0.4968317
vn 0.86784697 -1.4752426E-06 -0.4968317
vn 0.86784697 -1.4752425E-06 -0.4968317
vn 0.44866604 2.4184246E-06 0.89369947
vn 0.39950812 1.8328583E-06 0.9167296
vn 0.39950812 1.8328583E-06 0.9167296
vn 0.44866604 2.4184249E-06 0.89369947
vn 0.542527 1.4059409E-06 0.84003836
vn 0.542527 1.4059412E-06 0.84003836
vn 0.6151137 -1.0426554E-06 0.78843844
vn 0.6151137 -1.0426555E-06 0.7884385
vn 0.84848356 -8.3361635E-07 -0.5292218
vn 0.84848356 -8.3361635E-07 -0.5292218
vn 0.84848356 -8.3361647E-07 -0.52922183
vn 0.84848356 -8.3361647E-07 -0.5292218
vn -0.7333679 -4.5535558E-06 0.6798319
vn -0.7333679 -4.553556E-06 0.6798319
vn -0.7333679 -4.5535553E-06 0.67983186
vn -0.7333679 -4.553556E-06 0.6798319
vn -0.51828057 5.1837587E-06 -0.8552107
vn -0.5467871 6.909233E-06 -0.83727175
vn -0.5467871 6.909231E-06 -0.83727175
vn -0.51828057 5.183758E-06 -0.8552107
vn -0.48773572 3.3668496E-06 -0.8729914
vn -0.48773572 3.3668496E-06 -0.8729914
vn -0.66708094 -1.148712E-06 0.7449852
vn -0.66708094 -1.1487122E-06 0.7449852
vn -0.667081 -1.1487122E-06 0.74498516
vn -0.667081 -1.1487122E-06 0.74498516
vn 0.8331137 0 -0.55310184
vn 0.8331137 0 -0.55310184
vn 0.8331137 0 -0.55310184
vn 0.8331137 0 -0.55310184
vn -0.638172 0 -0.7698939
vn -0.638172 0 -0.7698939
vn -0.638172 0 -0.7698939
vn -0.638172 0 -0.7698939
vn 0.59625494 7.3144815E-06 0.80279505
vn 0.596255 7.3144824E-06 0.8027952
vn 0.59625494 7.3144824E-06 0.80279505
vn 0.59625506 7.3144815E-06 0.80279505
g sector_6D_extrude_0
f 3/3/3 2/2/2 1/1/1
f 2/2/2 4/4/4 1/1/1
f 1/1/1 4/4/4 5/5/5
f 4/4/4 6/6/6 5/5/5
f 9/9/9 8/8/8 7/7/7
f 10/10/10 9/9/9 7/7/7
f 13/13/13 12/12/12 11/11/11
f 14/14/14 13/13/13 11/11/11
f 17/17/17 16/16/16 15/15/15
f 18/18/18 17/17/17 15/15/15
f 19/19/19 17/17/17 18/18/18
f 20/20/20 19/19/19 18/18/18
f 23/23/23 22/22/22 21/21/21
f 24/24/24 23/23/23 21/21/21
f 27/27/27 26/26/26 25/25/25
f 28/28/28 27/27/27 25/25/25
f 31/31/31 30/30/30 29/29/29
f 30/30/30 32/32/32 29/29/29
f 29/29/29 32/32/32 33/33/33
f 32/32/32 34/34/34 33/33/33
f 33/33/33 34/34/34 35/35/35
f 34/34/34 36/36/36 35/35/35
f 39/39/39 38/38/38 37/37/37
f 40/40/40 39/39/39 37/37/37
f 43/43/43 42/42/42 41/41/41
f 44/44/44 43/43/43 41/41/41
f 47/47/47 46/46/46 45/45/45
f 46/46/46 48/48/48 45/45/45
f 45/45/45 48/48/48 49/49/49
f 48/48/48 50/50/50 49/49/49
f 53/53/53 52/52/52 51/51/51
f 54/54/54 53/53/53 51/51/51
f 57/57/57 56/56/56 55/55/55
f 58/58/58 57/57/57 55/55/55
f 61/61/61 60/60/60 59/59/59
f 62/62/62 61/61/61 59/59/59
f 65/65/65 64/64/64 63/63/63
f 66/66/66 65/65/65 63/63/63
