g sector_5L_extrude
v -0.016769752 -0.040000036 0.11368541
v -0.0167696 0.03999996 0.11368528
v 0.058908574 0.03999996 0.20094813
v 0.058908574 -0.040000036 0.2009486
v 0.058908574 -0.040000036 0.2009486
v 0.058908574 0.03999996 0.20094813
v 0.24015193 0.03999996 0.11458149
v 0.24015209 -0.040000036 0.11458183
v 0.24015209 -0.040000036 0.11458183
v 0.24015193 0.03999996 0.11458149
v 0.143027 0.03999996 0.008637181
v 0.143027 -0.040000036 0.008637181
v 0.08668003 0.03999996 -0.051289633
v 0.08668003 -0.040000036 -0.051289633
v 0.045120582 0.03999996 -0.0853288
v 0.04512035 -0.040000036 -0.08532913
v 0.08727825 -0.040000036 -0.11898393
v 0.08727848 0.03999996 -0.11898361
v -0.023087196 0.03999996 -0.19739223
v -0.02308712 -0.040000036 -0.19739206
v -0.02308712 -0.040000036 -0.19739206
v -0.023087196 0.03999996 -0.19739223
v -0.059855156 0.040000036 -0.15806183
v -0.059855077 -0.03999996 -0.15806165
v 0.04512035 -0.040000036 -0.08532913
v 0.045120582 0.03999996 -0.0853288
v 0.08727848 0.03999996 -0.11898361
v 0.08727825 -0.040000036 -0.11898393
v -0.059855077 -0.03999996 -0.15806165
v -0.059855156 0.040000036 -0.15806183
v -0.11552807 0.040000036 -0.2009486
v -0.11552807 -0.03999996 -0.2009486
v -0.11552807 -0.03999996 -0.2009486
v -0.11552807 0.040000036 -0.2009486
v -0.24015209 0.03999996 -0.06694635
v -0.24015185 -0.040000036 -0.06694664
v -0.24015185 -0.040000036 -0.06694664
v -0.24015209 0.03999996 -0.06694635
v -0.19218905 0.040000036 -0.03643487
v -0.19218875 -0.03999996 -0.03643525
v -0.11939296 -0.040000036 0.053457163
v -0.038713034 0.03999996 0.12458188
v -0.038713034 -0.040000036 0.12458188
v -0.11939296 0.03999996 0.053457163
v -0.20937358 -0.040000036 -0.014613628
v -0.20937365 0.03999996 -0.014613532
v -0.038713034 -0.040000036 0.12458188
v -0.038713034 0.03999996 0.12458188
v -0.0167696 0.03999996 0.11368528
v -0.016769752 -0.040000036 0.11368541
v -0.19218875 -0.03999996 -0.03643525
v -0.19218905 0.040000036 -0.03643487
v -0.20937365 0.03999996 -0.014613532
v -0.20937358 -0.040000036 -0.014613628
vt 0.3603747 0.0025464166
vt 0.3603751 0.9926963
vt 0.44128466 0.9926963
vt 0.44128457 0.0025464166
vt 0.44128457 0.0025464166
vt 0.44128466 0.9926963
vt 0.5819177 0.9926963
vt 0.5819177 0.0025464166
vt 0.5819177 0.0025464166
vt 0.5819177 0.9926963
vt 0.6825942 0.9926963
vt 0.6825944 0.0025464166
vt 0.74021274 0.9926963
vt 0.740213 0.0025464166
vt 0.7778421 0.9926963
vt 0.7778426 0.0025464166
vt 0.8156287 0.0025464166
vt 0.8156281 0.9926963
vt 0.9104597 0.9926963
vt 0.91045994 0.0025464166
vt 0.91045994 0.0025464166
vt 0.9104597 0.9926963
vt 0.9481732 0.9926963
vt 0.94817334 0.0025464166
vt 0.7778426 0.0025464166
vt 0.7778421 0.9926963
vt 0.8156281 0.9926963
vt 0.8156287 0.0025464166
vt 0.94817334 0.0025464166
vt 0.9481732 0.9926963
vt 0.99739987 0.9926963
vt 0.99739987 0.0025464166
vt 0.0013838187 0.0025464166
vt 0.0013838187 0.9926963
vt 0.12956771 0.9926963
vt 0.12956724 0.0025464166
vt 0.12956724 0.0025464166
vt 0.12956771 0.9926963
vt 0.16938624 0.9926963
vt 0.16938576 0.0025464166
vt 0.26787463 0.0025464166
vt 0.34321356 0.9926963
vt 0.34321332 0.0025464166
vt 0.2678748 0.9926963
vt 0.18884197 0.0025464166
vt 0.1888422 0.9926963
vt 0.34321332 0.0025464166
vt 0.34321356 0.9926963
vt 0.3603751 0.9926963
vt 0.3603747 0.0025464166
vt 0.16938576 0.0025464166
vt 0.16938624 0.9926963
vt 0.1888422 0.9926963
vt 0.18884197 0.0025464166
vn -0.7554736 3.42919E-06 0.6551791
vn -0.7554737 3.42919E-06 0.655179
vn -0.7554737 3.4291904E-06 0.655179
vn -0.7554736 3.4291907E-06 0.6551791
vn 0.4301787 5.1317593E-06 0.90274376
vn 0.4301787 5.1317593E-06 0.90274376
vn 0.4301787 5.1317593E-06 0.90274376
vn 0.4301787 5.1317593E-06 0.90274376
vn 0.73712224 -7.755667E-07 -0.67575943
vn 0.73712224 -7.7556666E-07 -0.67575943
vn 0.73400897 -4.932739E-07 -0.67913985
vn 0.73400897 -4.932739E-07 -0.67913985
vn 0.69243944 2.8110625E-07 -0.721476
vn 0.69243944 2.8110625E-07 -0.721476
vn 0.63364005 7.1010373E-07 -0.7736281
vn 0.63364 7.1010356E-07 -0.773628
vn 0.5791614 0 -0.81521285
vn 0.5791614 0 -0.81521285
vn 0.5791614 0 -0.81521285
vn 0.5791614 0 -0.81521285
vn -0.7305031 -3.019792E-06 -0.68290937
vn -0.73050314 -3.019792E-06 -0.6829093
vn -0.7305031 -3.019792E-06 -0.68290937
vn -0.73050314 -3.019792E-06 -0.6829093
vn 0.6238865 -4.5039E-06 0.78151494
vn 0.6238865 -4.503901E-06 0.78151494
vn 0.6238865 -4.5039E-06 0.78151494
vn 0.6238865 -4.503901E-06 0.78151494
vn 0.61026067 -6.480623E-07 -0.79220074
vn 0.61026067 -6.480623E-07 -0.79220074
vn 0.61026067 -6.4806216E-07 -0.79220074
vn 0.61026067 -6.4806216E-07 -0.79220074
vn -0.7322665 0 -0.6810183
vn -0.7322665 0 -0.6810182
vn -0.7322665 0 -0.6810183
vn -0.73226637 0 -0.6810183
vn -0.53674364 -5.5338187E-06 0.8437454
vn -0.53674364 -5.5338187E-06 0.8437454
vn -0.53674364 -5.5338196E-06 0.8437454
vn -0.5367437 -5.533819E-06 0.84374535
vn -0.6320513 -5.404828E-07 0.7749265
vn -0.6612898 0 0.7501305
vn -0.6612898 0 0.7501305
vn -0.6320513 -5.404828E-07 0.7749265
vn -0.60331446 -1.0549645E-06 0.7975033
vn -0.6033145 -1.0549644E-06 0.7975034
vn 0.4447582 3.8925631E-07 0.8956507
vn 0.4447582 3.8925631E-07 0.8956507
vn 0.44475824 3.8925631E-07 0.8956507
vn 0.44475824 3.8925631E-07 0.8956507
vn -0.7856309 -4.5742348E-07 -0.61869556
vn -0.7856309 -4.574235E-07 -0.61869556
vn -0.78563094 -4.574235E-07 -0.6186955
vn -0.7856309 -4.5742357E-07 -0.61869556
g sector_5L_extrude_0
f 3/3/3 2/2/2 1/1/1
f 4/4/4 3/3/3 1/1/1
f 7/7/7 6/6/6 5/5/5
f 8/8/8 7/7/7 5/5/5
f 11/11/11 10/10/10 9/9/9
f 12/12/12 11/11/11 9/9/9
f 13/13/13 11/11/11 12/12/12
f 14/14/14 13/13/13 12/12/12
f 15/15/15 13/13/13 14/14/14
f 16/16/16 15/15/15 14/14/14
f 19/19/19 18/18/18 17/17/17
f 20/20/20 19/19/19 17/17/17
f 23/23/23 22/22/22 21/21/21
f 24/24/24 23/23/23 21/21/21
f 27/27/27 26/26/26 25/25/25
f 28/28/28 27/27/27 25/25/25
f 31/31/31 30/30/30 29/29/29
f 32/32/32 31/31/31 29/29/29
f 35/35/35 34/34/34 33/33/33
f 36/36/36 35/35/35 33/33/33
f 39/39/39 38/38/38 37/37/37
f 40/40/40 39/39/39 37/37/37
f 43/43/43 42/42/42 41/41/41
f 42/42/42 44/44/44 41/41/41
f 41/41/41 44/44/44 45/45/45
f 44/44/44 46/46/46 45/45/45
f 49/49/49 48/48/48 47/47/47
f 50/50/50 49/49/49 47/47/47
f 53/53/53 52/52/52 51/51/51
f 54/54/54 53/53/53 51/51/51
