g sector_fill_2D
v 0.15450159 -3.8146972E-08 -0.158788
v 0.16665836 -3.8146972E-08 -0.16294464
v 0.212017 -3.8146972E-08 -0.073541865
v 0.20133431 -3.8146972E-08 -0.06860836
v 0.056130543 3.8146972E-08 -0.11623716
v 0.13105516 -3.8146972E-08 -0.20162408
v 0.028234234 -3.8146972E-08 -0.15352026
v 0.18695423 -3.8146972E-08 0.020515366
v 0.23513258 -3.8146972E-08 -0.0025479507
v -0.016931629 -3.8146972E-08 -0.08256172
v -0.03863012 -3.8146972E-08 -0.10734563
v 0.124588296 -3.8146972E-08 0.056422595
v -0.08081491 -3.8146972E-08 -0.026956635
v 0.07401766 -3.8146972E-08 0.104970455
v -0.11046652 3.8146972E-08 0.0025084305
v -0.15159059 3.8146972E-08 0.06733248
v -0.14271368 3.8146972E-08 -0.01682972
v -0.19475672 3.8146972E-08 0.053369388
v 0.038321245 -3.8146972E-08 0.15136395
v -0.1564372 -3.8146972E-08 0.14947164
v -0.23513258 -3.8146972E-08 0.124782614
v -0.059041653 -3.8146972E-08 0.17751813
v 0.00903471 -3.8146972E-08 0.20162408
v -0.1634102 -3.8146972E-08 0.16448995
v -0.065640315 -3.8146972E-08 0.19291124
vt 0.39832976 0.026534611
vt 0.39002687 0.0019920322
vt 0.19135125 0.03941843
vt 0.19660054 0.062559955
vt 0.45127156 0.23609279
vt 0.49562958 0.01134128
vt 0.5451667 0.23484
vt 0.07182501 0.19513087
vt 0.049450547 0.08976331
vt 0.48728046 0.39428356
vt 0.55357605 0.39849287
vt 0.091114566 0.3389686
vt 0.4769504 0.56476724
vt 0.07569557 0.47949567
vt 0.46631193 0.64839274
vt 0.41326186 0.7938329
vt 0.5368731 0.67615926
vt 0.48865685 0.84566164
vt 0.045431353 0.5935983
vt 0.28792834 0.902577
vt 0.4241543 0.99800795
vt 0.12334214 0.78138363
vt 0.0011049423 0.7022094
vt 0.27249646 0.93218917
vt 0.10685075 0.81085825
vn -0 1 -6.178151E-07
vn -0 1 -6.178151E-07
vn -0 1 -6.178151E-07
vn -0 1 -6.178151E-07
vn -8.5626226E-07 1 -4.82683E-07
vn -0 1 -2.9380848E-07
vn -8.562623E-07 1 -4.8268305E-07
vn -2.794013E-07 1 0
vn -0 1 0
vn -0 1 0
vn -8.5626226E-07 1 -4.8268305E-07
vn -0 1 0
vn -0 1 0
vn -0 1 0
vn -0 1 0
vn -2.882615E-07 1 5.9662653E-07
vn -0 1 0
vn -2.8826148E-07 1 5.966264E-07
vn -0 1 0
vn -2.882615E-07 1 5.966265E-07
vn -2.8826153E-07 1 5.9662653E-07
vn -0 1 2.2768796E-07
vn -0 1 0
vn -0 1 2.2768795E-07
vn -0 1 2.2768795E-07
g sector_fill_2D_0
f 3/3/3 2/2/2 1/1/1
f 4/4/4 3/3/3 1/1/1
f 1/1/1 5/5/5 4/4/4
f 1/1/1 6/6/6 5/5/5
f 6/6/6 7/7/7 5/5/5
f 5/5/5 8/8/8 4/4/4
f 8/8/8 9/9/9 4/4/4
f 10/10/10 5/5/5 7/7/7
f 8/8/8 5/5/5 10/10/10
f 11/11/11 10/10/10 7/7/7
f 12/12/12 8/8/8 10/10/10
f 10/10/10 13/13/13 12/12/12
f 13/13/13 14/14/14 12/12/12
f 13/13/13 15/15/15 14/14/14
f 14/14/14 15/15/15 16/16/16
f 15/15/15 17/17/17 16/16/16
f 17/17/17 18/18/18 16/16/16
f 19/19/19 14/14/14 16/16/16
f 20/20/20 16/16/16 18/18/18
f 19/19/19 16/16/16 20/20/20
f 21/21/21 20/20/20 18/18/18
f 22/22/22 19/19/19 20/20/20
f 22/22/22 23/23/23 19/19/19
f 22/22/22 20/20/20 24/24/24
f 25/25/25 22/22/22 24/24/24
