g sector_fill_Xtra_4LB
v 0.14331204 -3.8146972E-08 0.032908592
v 0.08443516 -3.8146972E-08 -0.034094732
v 0.14665508 3.8146972E-08 -0.025794562
v 0.07413288 3.8146972E-08 0.024127463
v 0.070625186 3.8146972E-08 0.061859395
v 0.14271961 3.8146972E-08 0.059766043
v -0.075423926 3.8146972E-08 0.05176647
v -0.068090245 3.8146972E-08 0.014063224
v -0.14665508 3.8146972E-08 0.05199375
v -0.05871647 -3.8146972E-08 -0.05319126
v -0.13395435 3.8146972E-08 -0.0007226181
v -0.123694494 3.8146972E-08 -0.061859395
vt 0.14904201 0.007617617
vt 0.3623591 0.2289288
vt 0.3515998 0.012879568
vt 0.15946779 0.24770392
vt 0.028884847 0.2489887
vt 0.056636572 0.001992032
vt 0.021891663 0.7534437
vt 0.15346763 0.739011
vt 0.0007951079 0.998008
vt 0.38711277 0.7260007
vt 0.18546097 0.96942514
vt 0.39834905 0.9516269
vn -0 1 1.5653089E-06
vn -0 1 1.5653092E-06
vn -0 1 1.5653092E-06
vn -0 1 1.5653089E-06
vn 5.941768E-07 1 -3.167735E-06
vn 5.9417687E-07 1 -3.1677355E-06
vn -0 1 -1.528352E-06
vn 1.223029E-07 1 -9.226998E-07
vn -0 1 -2.405278E-07
vn 1.223029E-07 1 -9.226999E-07
vn 6.7121664E-07 1 -7.0726463E-07
vn 6.7121664E-07 1 -7.072647E-07
g sector_fill_Xtra_4LB_0
f 3/3/3 2/2/2 1/1/1
f 2/2/2 4/4/4 1/1/1
f 1/1/1 4/4/4 5/5/5
f 6/6/6 1/1/1 5/5/5
f 5/5/5 4/4/4 7/7/7
f 4/4/4 2/2/2 8/8/8
f 4/4/4 8/8/8 7/7/7
f 7/7/7 8/8/8 9/9/9
f 2/2/2 10/10/10 8/8/8
f 8/8/8 11/11/11 9/9/9
f 8/8/8 10/10/10 11/11/11
f 10/10/10 12/12/12 11/11/11
