g sector_fill_6LB
v -0.22234273 -3.8146972E-08 0.008382874
v -0.23590283 -3.8146972E-08 0.036152497
v -0.2961747 -3.8146972E-08 0.02055439
v -0.23429735 -3.8146972E-08 -0.17122589
v -0.1510275 -3.8146972E-08 -0.1501683
v -0.107782915 -3.8146972E-08 0.044093113
v -0.004505253 -3.8146972E-08 -0.106765784
v 0.044166163 3.8146972E-08 0.14103188
v -0.12017294 -3.8146972E-08 0.072313115
v 0.104968734 -3.8146972E-08 -0.05761684
v 0.15410486 -3.8146972E-08 -0.13521579
v 0.04010252 -3.8146972E-08 -0.18226066
v 0.11463144 3.8146972E-08 0.1498001
v 0.095328234 3.8146972E-08 0.16959499
v 0.20119013 -3.8146972E-08 -0.014323196
v 0.16498636 -3.8146972E-08 0.18226066
v 0.2961747 -3.8146972E-08 0.038949203
vt 0.43332446 0.11984329
vt 0.4855441 0.10931086
vt 0.48575705 0.0019920322
vt 0.13894814 0.021739112
vt 0.13783263 0.1697933
vt 0.44303182 0.32646447
vt 0.14646064 0.43307397
vt 0.5385937 0.62209547
vt 0.49549344 0.31807962
vt 0.18079636 0.63706064
vt 0.029981308 0.6852468
vt 0.0011256895 0.47462276
vt 0.5225528 0.743444
vt 0.5639704 0.7198618
vt 0.21113327 0.81639445
vt 0.55478126 0.84156024
vt 0.25865242 0.998008
vn -0 1 -2.5809322E-07
vn -0 1 2.9935617E-07
vn -0 1 2.9935615E-07
vn -0 1 2.9935615E-07
vn -0 1 -2.5809325E-07
vn -0 1 -2.5809325E-07
vn -0 1 -2.5809328E-07
vn -1.3455679E-07 1 4.2334287E-07
vn -3.922363E-07 1 0
vn -0 1 -5.647422E-07
vn -0 1 -5.6474215E-07
vn -0 1 -5.647422E-07
vn 4.734976E-07 1 1.9269031E-07
vn -0 1 -9.480409E-07
vn 4.7349766E-07 1 1.9269034E-07
vn 4.7349764E-07 1 1.9269034E-07
vn 4.7349764E-07 1 1.9269034E-07
g sector_fill_6LB_0
f 3/3/3 2/2/2 1/1/1
f 4/4/4 3/3/3 1/1/1
f 1/1/1 5/5/5 4/4/4
f 5/5/5 1/1/1 6/6/6
f 7/7/7 5/5/5 6/6/6
f 7/7/7 6/6/6 8/8/8
f 6/6/6 9/9/9 8/8/8
f 10/10/10 7/7/7 8/8/8
f 10/10/10 11/11/11 7/7/7
f 11/11/11 12/12/12 7/7/7
f 10/10/10 8/8/8 13/13/13
f 8/8/8 14/14/14 13/13/13
f 10/10/10 13/13/13 15/15/15
f 15/15/15 13/13/13 16/16/16
f 17/17/17 15/15/15 16/16/16
