g sector_6LB_lines_upper
v 0.095328234 3.8146972E-08 0.16959499
v 0.04856035 3.8146972E-08 0.13676026
v 0.093648314 3.8146972E-08 0.16239291
v 0.044166163 3.8146972E-08 0.14103188
v 0.11463144 3.8146972E-08 0.1498001
v -0.11060392 -3.8146972E-08 0.06848543
v 0.11335115 3.8146972E-08 0.14244671
v -0.12017294 -3.8146972E-08 0.072313115
v 0.16498636 -3.8146972E-08 0.18226066
v -0.09886232 -3.8146972E-08 0.040029373
v 0.1635467 -3.8146972E-08 0.17522256
v -0.107782915 -3.8146972E-08 0.044093113
v 0.2961747 -3.8146972E-08 0.038949203
v -0.22441152 -3.8146972E-08 0.000100975034
v 0.28715447 -3.8146972E-08 0.04039749
v -0.22234273 -3.8146972E-08 0.008382874
v 0.20119013 -3.8146972E-08 -0.014323196
v -0.23824178 -3.8146972E-08 0.028274307
v 0.19747706 -3.8146972E-08 -0.009244575
v -0.23590283 -3.8146972E-08 0.036152497
v 0.104968734 -3.8146972E-08 -0.05761684
v -0.28733498 -3.8146972E-08 0.015693855
v 0.095739685 -3.8146972E-08 -0.05484512
v -0.2961747 -3.8146972E-08 0.02055439
v 0.15410486 -3.8146972E-08 -0.13521579
v -0.22978452 -3.8146972E-08 -0.16259071
v 0.14508799 -3.8146972E-08 -0.13235256
v -0.23429735 -3.8146972E-08 -0.17122589
v 0.04010252 -3.8146972E-08 -0.18226066
v -0.15215966 -3.8146972E-08 -0.144744
v 0.043628026 -3.8146972E-08 -0.17472972
v -0.1510275 -3.8146972E-08 -0.1501683
v -0.004505253 -3.8146972E-08 -0.106765784
v -0.00026327133 -3.8146972E-08 -0.10004074
vt 0.0011245145 0.27892286
vt 0.035113905 0.37149754
vt 0.012389239 0.28492266
vt 0.026038911 0.37692878
vt 0.042708002 0.2555217
vt 0.078293845 0.6672511
vt 0.054402556 0.26092225
vt 0.067661166 0.6815094
vt 0.0109355 0.15713118
vt 0.13096346 0.66030645
vt 0.022033455 0.16265748
vt 0.12022507 0.6733785
vt 0.3081898 0.001992032
vt 0.1417982 0.88741297
vt 0.3017689 0.016391719
vt 0.12890537 0.88028514
vt 0.35485098 0.18405241
vt 0.088672586 0.8979664
vt 0.34473258 0.18798934
vt 0.07657296 0.8905673
vt 0.38432148 0.36374408
vt 0.08785178 0.98542464
vt 0.37560079 0.3779043
vt 0.0758205 0.998008
vt 0.5355514 0.31626046
vt 0.41072938 0.9686203
vt 0.5267723 0.33002618
vt 0.42312607 0.9799808
vt 0.56338173 0.52727073
vt 0.41543788 0.83124185
vt 0.55238825 0.51804715
vt 0.42498663 0.83176255
vt 0.41767165 0.56813693
vt 0.40834025 0.55807626
vn -0 1 0
vn -1.8999857E-07 1 0
vn -0 1 0
vn -2.3123157E-07 1 0
vn 1.1439212E-06 1 -6.3588795E-06
vn -2.2946935E-07 1 -5.6346397E-07
vn 1.0633773E-06 1 -5.91115E-06
vn -2.292646E-07 1 -5.661367E-07
vn 3.4307448E-07 1 -1.9070977E-06
vn -0 1 4.884406E-06
vn 4.127184E-07 1 -2.2942374E-06
vn -0 1 4.922129E-06
vn -0 1 3.5644916E-06
vn -0 1 6.1695296E-06
vn -0 1 3.568847E-06
vn -0 1 5.70758E-06
vn -0 1 5.200483E-06
vn -0 1 0
vn -0 1 4.1744242E-06
vn -0 1 0
vn -0 1 0
vn -0 1 3.5027724E-06
vn -0 1 0
vn -0 1 3.5035107E-06
vn -0 1 0
vn -0 1 0
vn -0 1 0
vn -0 1 -1.9242532E-07
vn -0 1 0
vn -0 1 -4.2833403E-06
vn -0 1 0
vn -0 1 -4.673283E-06
vn -0 1 0
vn -0 1 0
g sector_6LB_lines_upper_0
f 3/3/3 2/2/2 1/1/1
f 2/2/2 4/4/4 1/1/1
f 3/3/3 1/1/1 5/5/5
f 2/2/2 6/6/6 4/4/4
f 7/7/7 3/3/3 5/5/5
f 6/6/6 8/8/8 4/4/4
f 7/7/7 5/5/5 9/9/9
f 6/6/6 10/10/10 8/8/8
f 11/11/11 7/7/7 9/9/9
f 10/10/10 12/12/12 8/8/8
f 11/11/11 9/9/9 13/13/13
f 10/10/10 14/14/14 12/12/12
f 15/15/15 11/11/11 13/13/13
f 14/14/14 16/16/16 12/12/12
f 15/15/15 13/13/13 17/17/17
f 14/14/14 18/18/18 16/16/16
f 19/19/19 15/15/15 17/17/17
f 18/18/18 20/20/20 16/16/16
f 19/19/19 17/17/17 21/21/21
f 18/18/18 22/22/22 20/20/20
f 23/23/23 19/19/19 21/21/21
f 22/22/22 24/24/24 20/20/20
f 23/23/23 21/21/21 25/25/25
f 22/22/22 26/26/26 24/24/24
f 27/27/27 23/23/23 25/25/25
f 26/26/26 28/28/28 24/24/24
f 27/27/27 25/25/25 29/29/29
f 26/26/26 30/30/30 28/28/28
f 31/31/31 27/27/27 29/29/29
f 30/30/30 32/32/32 28/28/28
f 31/31/31 29/29/29 33/33/33
f 30/30/30 34/34/34 32/32/32
f 34/34/34 33/33/33 32/32/32
f 34/34/34 31/31/31 33/33/33
