g sector_fill_6DB
v 0.23429735 3.8146972E-08 -0.17122592
v 0.2961747 3.8146972E-08 0.02055439
v 0.23590283 -3.8146972E-08 0.036152497
v 0.22234273 -3.8146972E-08 0.008382874
v 0.1510275 -3.8146972E-08 -0.1501683
v 0.004505253 -3.8146972E-08 -0.106765784
v 0.107782915 -3.8146972E-08 0.044093113
v -0.104968734 -3.8146972E-08 -0.05761684
v -0.04010252 -3.8146972E-08 -0.18226066
v -0.15410486 -3.8146972E-08 -0.13521579
v -0.044166163 -3.8146972E-08 0.14103188
v 0.12017294 -3.8146972E-08 0.072313115
v -0.095328234 -3.8146972E-08 0.16959499
v -0.11463144 -3.8146972E-08 0.1498001
v -0.20119013 -3.8146972E-08 -0.014323196
v -0.2961747 -3.8146972E-08 0.038949203
v -0.16498636 -3.8146972E-08 0.18226066
vt 0.13894823 0.97826105
vt 0.48575732 0.99800795
vt 0.48554423 0.89068913
vt 0.4333245 0.88015693
vt 0.13783273 0.8302067
vt 0.14646061 0.5669262
vt 0.4430321 0.67353594
vt 0.18079656 0.36293936
vt 0.0011256898 0.5253772
vt 0.029981429 0.3147533
vt 0.5385939 0.3779046
vt 0.4954937 0.6819204
vt 0.5639705 0.28013834
vt 0.522553 0.25655612
vt 0.21113347 0.18360566
vt 0.25865236 0.001992032
vt 0.5547814 0.15843983
vn -1.0953929E-06 1 7.9828266E-07
vn -1.0953929E-06 1 7.9828277E-07
vn -1.0953929E-06 1 7.9828266E-07
vn -0 1 -5.1618645E-07
vn -0 1 -5.1618645E-07
vn -0 1 -5.1618645E-07
vn -0 1 -5.1618645E-07
vn -0 1 0
vn -0 1 0
vn -0 1 0
vn -0 1 0
vn -0 1 -5.5596917E-07
vn -0 1 0
vn -0 1 3.8538053E-07
vn -0 1 3.8538053E-07
vn -0 1 3.8538053E-07
vn -0 1 3.8538053E-07
g sector_fill_6DB_0
f 3/3/3 2/2/2 1/1/1
f 4/4/4 3/3/3 1/1/1
f 5/5/5 4/4/4 1/1/1
f 4/4/4 5/5/5 6/6/6
f 7/7/7 4/4/4 6/6/6
f 7/7/7 6/6/6 8/8/8
f 6/6/6 9/9/9 8/8/8
f 9/9/9 10/10/10 8/8/8
f 11/11/11 7/7/7 8/8/8
f 11/11/11 12/12/12 7/7/7
f 13/13/13 11/11/11 8/8/8
f 14/14/14 13/13/13 8/8/8
f 15/15/15 14/14/14 8/8/8
f 14/14/14 15/15/15 16/16/16
f 17/17/17 14/14/14 16/16/16
