g sector_5LB_extrude
v -0.05201187 -0.040000036 0.20472458
v -0.0345755 0.040000036 0.3040648
v -0.0345755 -0.03999996 0.30406487
v -0.05201187 0.03999996 0.20472454
v -0.078734204 -0.040000036 0.10004508
v -0.078734204 0.03999996 0.10004508
v -0.10706367 -0.040000036 0.022751536
v -0.10706367 0.03999996 0.022751536
v -0.1424192 -0.040000036 -0.04843085
v -0.1424192 0.03999996 -0.04843085
v -0.17735717 -0.040000036 -0.108439855
v -0.17735717 0.03999996 -0.108439855
v -0.0345755 -0.03999996 0.30406487
v -0.0345755 0.040000036 0.3040648
v 0.22029679 0.040000036 0.30316794
v 0.22029679 -0.03999996 0.303168
v 0.22029679 -0.03999996 0.303168
v 0.22029679 0.040000036 0.30316794
v 0.18872604 0.03999996 0.17763008
v 0.18872604 -0.040000036 0.17763011
v 0.16417739 0.03999996 0.069763295
v 0.16417755 -0.040000036 0.06976325
v 0.13314514 0.03999996 -0.021014027
v 0.13314514 -0.040000036 -0.021014027
v 0.090003505 0.03999996 -0.112976536
v 0.09000336 -0.040000036 -0.1129765
v 0.047488403 0.03999996 -0.1882178
v 0.047488403 -0.040000036 -0.1882178
v -0.03829788 0.03999996 -0.30406487
v -0.03829788 -0.040000036 -0.30406487
v -0.15432945 -0.040000036 -0.120435685
v -0.15432923 0.03999996 -0.12043586
v -0.17735717 0.03999996 -0.108439855
v -0.17735717 -0.040000036 -0.108439855
v -0.03829788 -0.040000036 -0.30406487
v -0.03829788 0.03999996 -0.30406487
v -0.22029655 0.03999996 -0.215809
v -0.22029679 -0.040000036 -0.21580882
v -0.22029679 -0.040000036 -0.21580882
v -0.22029655 0.03999996 -0.215809
v -0.15432923 0.03999996 -0.12043586
v -0.15432945 -0.040000036 -0.120435685
vt 0.4000979 0.0025464166
vt 0.45893532 0.9926963
vt 0.45893535 0.0025464166
vt 0.4000979 0.9926963
vt 0.33707333 0.0025464166
vt 0.3370734 0.9926963
vt 0.2890499 0.0025464166
vt 0.28904995 0.9926963
vt 0.24268463 0.0025464166
vt 0.24268463 0.9926963
vt 0.20217654 0.0025464166
vt 0.2021766 0.9926963
vt 0.45893535 0.0025464166
vt 0.45893532 0.9926963
vt 0.6076195 0.9926963
vt 0.6076195 0.0025464166
vt 0.6076195 0.0025464166
vt 0.6076195 0.9926963
vt 0.6831341 0.9926963
vt 0.6831341 0.0025464166
vt 0.7476687 0.9926963
vt 0.7476687 0.0025464166
vt 0.80363363 0.9926963
vt 0.80363363 0.0025464166
vt 0.86289114 0.9926963
vt 0.86289126 0.0025464166
vt 0.9133068 0.9926963
vt 0.9133068 0.0025464166
vt 0.99739987 0.9926963
vt 0.99739987 0.0025464166
vt 0.18702957 0.0025464166
vt 0.18702945 0.9926963
vt 0.2021766 0.9926963
vt 0.20217654 0.0025464166
vt 0.0013838187 0.0025464166
vt 0.0013838187 0.9926963
vt 0.119380094 0.9926963
vt 0.11938021 0.0025464166
vt 0.11938021 0.0025464166
vt 0.119380094 0.9926963
vt 0.18702945 0.9926963
vt 0.18702957 0.0025464166
vn -0.97736824 0 0.21154483
vn -0.98494315 2.0314688E-07 0.17287886
vn -0.98494315 2.0314687E-07 0.17287885
vn -0.97736824 0 0.21154478
vn -0.95715797 0 0.28956625
vn -0.95715797 0 0.28956625
vn -0.91902745 0 0.3941935
vn -0.91902745 0 0.3941935
vn -0.8814453 0 0.47228613
vn -0.8814453 0 0.47228613
vn -0.8642003 0 0.5031479
vn -0.8642003 0 0.5031479
vn 0.0035190424 4.780697E-07 0.9999938
vn 0.0035190424 4.780697E-07 0.9999938
vn 0.0035190424 4.780697E-07 0.9999938
vn 0.0035190424 4.780697E-07 0.9999938
vn 0.96980304 3.3396097E-07 -0.24388975
vn 0.96980304 3.3396103E-07 -0.24388975
vn 0.9722907 -2.1275599E-07 -0.23377539
vn 0.9722907 -2.1275585E-07 -0.23377544
vn 0.9630136 0 -0.2694527
vn 0.9630136 0 -0.26945263
vn 0.9265797 -3.548829E-07 -0.37609842
vn 0.9265797 -3.548829E-07 -0.37609842
vn 0.8900093 -1.4697106E-06 -0.45594227
vn 0.8900093 -1.4697108E-06 -0.4559424
vn 0.83022285 -5.366708E-07 -0.5574317
vn 0.83022285 -5.366708E-07 -0.5574317
vn 0.80364454 0 -0.5951095
vn 0.80364454 0 -0.5951095
vn -0.46200243 2.5322487E-07 -0.8868787
vn -0.46200243 2.5322487E-07 -0.8868787
vn -0.46200243 2.5322487E-07 -0.8868787
vn -0.46200243 2.5322487E-07 -0.8868787
vn -0.43632972 -3.7719062E-07 -0.89978683
vn -0.43632972 -3.7719062E-07 -0.89978683
vn -0.43632978 -3.7719067E-07 -0.89978683
vn -0.43632978 -3.7719067E-07 -0.89978683
vn -0.8224352 3.6918052E-06 0.56885886
vn -0.8224352 3.6918052E-06 0.56885886
vn -0.8224352 3.6918052E-06 0.56885874
vn -0.8224352 3.6918057E-06 0.56885874
g sector_5LB_extrude_0
f 3/3/3 2/2/2 1/1/1
f 2/2/2 4/4/4 1/1/1
f 1/1/1 4/4/4 5/5/5
f 4/4/4 6/6/6 5/5/5
f 5/5/5 6/6/6 7/7/7
f 6/6/6 8/8/8 7/7/7
f 7/7/7 8/8/8 9/9/9
f 8/8/8 10/10/10 9/9/9
f 9/9/9 10/10/10 11/11/11
f 10/10/10 12/12/12 11/11/11
f 15/15/15 14/14/14 13/13/13
f 16/16/16 15/15/15 13/13/13
f 19/19/19 18/18/18 17/17/17
f 20/20/20 19/19/19 17/17/17
f 21/21/21 19/19/19 20/20/20
f 22/22/22 21/21/21 20/20/20
f 23/23/23 21/21/21 22/22/22
f 24/24/24 23/23/23 22/22/22
f 25/25/25 23/23/23 24/24/24
f 26/26/26 25/25/25 24/24/24
f 27/27/27 25/25/25 26/26/26
f 28/28/28 27/27/27 26/26/26
f 29/29/29 27/27/27 28/28/28
f 30/30/30 29/29/29 28/28/28
f 33/33/33 32/32/32 31/31/31
f 34/34/34 33/33/33 31/31/31
f 37/37/37 36/36/36 35/35/35
f 38/38/38 37/37/37 35/35/35
f 41/41/41 40/40/40 39/39/39
f 42/42/42 41/41/41 39/39/39
