g sector_fill_6MB
v -0.09789773 -3.8146972E-08 0.11160047
v -0.24442 -3.8146972E-08 0.155003
v -0.28902778 -3.8146972E-08 0.07950811
v -0.17802757 -3.8146972E-08 -0.06510721
v -0.3441675 -3.8146972E-08 -0.014603824
v -0.014627769 3.8146972E-08 0.090542845
v -0.074070744 3.8146972E-08 -0.09166879
v 0.11139428 -3.8146972E-08 0.06849256
v 0.093202904 3.8146972E-08 -0.11693376
v 0.24063317 -3.8146972E-08 0.05573763
v 0.25889504 -3.8146972E-08 -0.13060945
v 0.3441675 -3.8146972E-08 0.05378168
v 0.3441675 -3.8146972E-08 -0.13288881
v 0.25759122 -3.8146972E-08 -0.155003
v 0.08985625 -3.8146972E-08 -0.14103074
vt 0.29087332 0.3033823
vt 0.303459 0.08542228
vt 0.18390158 0.047996096
vt 0.018949134 0.24955505
vt 0.035013977 0.001992032
vt 0.2887401 0.42607424
vt 0.015906602 0.40281633
vt 0.29916856 0.60855585
vt 0.035316832 0.64372534
vt 0.32357547 0.79248047
vt 0.07033161 0.878655
vt 0.35462037 0.9371296
vt 0.094971 0.998008
vt 0.035976127 0.8847968
vt 0.0007078251 0.6469291
vn -7.416382E-07 1 3.3060937E-07
vn -0 1 0
vn -0 1 0
vn -7.416382E-07 1 3.3060934E-07
vn -0 1 0
vn 2.8393222E-07 1 0
vn 2.8393222E-07 1 0
vn 2.8393222E-07 1 0
vn 2.8393222E-07 1 0
vn 2.7707944E-07 1 4.4532658E-07
vn -0 1 -3.370736E-06
vn -0 1 3.4703265E-07
vn -0 1 3.4703262E-07
vn -0 1 -3.370736E-06
vn -0 1 -3.3707363E-06
g sector_fill_6MB_0
f 3/3/3 2/2/2 1/1/1
f 4/4/4 3/3/3 1/1/1
f 5/5/5 3/3/3 4/4/4
f 1/1/1 6/6/6 4/4/4
f 6/6/6 7/7/7 4/4/4
f 7/7/7 6/6/6 8/8/8
f 9/9/9 7/7/7 8/8/8
f 9/9/9 8/8/8 10/10/10
f 11/11/11 9/9/9 10/10/10
f 11/11/11 10/10/10 12/12/12
f 13/13/13 11/11/11 12/12/12
f 11/11/11 14/14/14 9/9/9
f 14/14/14 15/15/15 9/9/9
