g sector_2DB_extrude
v 0.07997398 -0.040000036 0.14951408
v 0.07997398 0.03999996 0.14951408
v 0.13215141 0.03999996 0.13833061
v 0.13215141 -0.040000036 0.13833061
v 0.13215141 -0.040000036 0.13833061
v 0.13215141 0.03999996 0.13833061
v 0.11989772 0.03999996 0.10290168
v 0.11989776 -0.040000036 0.10290168
v 0.111097984 0.03999996 0.058151398
v 0.11109802 -0.040000036 0.058151398
v 0.11052326 0.03999996 0.013745765
v 0.11052326 -0.040000036 0.013745765
v 0.11432979 0.03999996 -0.027934417
v 0.11432983 -0.040000036 -0.027934493
v 0.12497997 0.040000036 -0.0743557
v 0.12498005 -0.03999996 -0.0743557
v 0.14417113 0.03999996 -0.12239899
v 0.14417148 -0.040000036 -0.12239975
v 0.0723835 -0.040000036 0.13338219
v 0.0723835 0.03999996 0.13338219
v 0.07997398 0.03999996 0.14951408
v 0.07997398 -0.040000036 0.14951408
v -0.02196209 -0.040000036 -0.1746983
v -0.02196209 0.03999996 -0.1746983
v -0.09079876 0.03999996 -0.19564922
v -0.09079883 -0.040000036 -0.19564925
v -0.028129615 -0.040000036 -0.1578189
v -0.028129654 0.03999996 -0.1578189
v -0.02196209 0.03999996 -0.1746983
v -0.02196209 -0.040000036 -0.1746983
v -0.09079883 -0.040000036 -0.19564925
v -0.09079876 0.03999996 -0.19564922
v -0.12140201 0.03999996 -0.11986229
v -0.12140209 -0.040000036 -0.119862325
v -0.13799289 0.03999996 -0.04950592
v -0.13799289 -0.040000036 -0.04950592
v -0.14417148 0.03999996 0.006596298
v -0.14417148 -0.040000036 0.006596298
v -0.14417148 -0.040000036 0.006596298
v -0.14417148 0.03999996 0.006596298
v -0.14338711 0.03999996 0.07869141
v -0.14338711 -0.040000036 0.07869141
v -0.13951236 0.03999996 0.138665
v -0.13951236 -0.040000036 0.138665
v -0.12649013 0.03999996 0.19564925
v -0.12649013 -0.040000036 0.19564925
v -0.12649013 -0.040000036 0.19564925
v -0.12649013 0.03999996 0.19564925
v 0.0723835 0.03999996 0.13338219
v 0.0723835 -0.040000036 0.13338219
v 0.079894714 -0.03999996 -0.12689671
v 0.0798949 0.040000036 -0.12689681
v -0.028129654 0.03999996 -0.1578189
v -0.028129615 -0.040000036 -0.1578189
v 0.14417148 -0.040000036 -0.12239975
v 0.14417113 0.03999996 -0.12239899
v 0.085910946 0.03999996 -0.14276378
v 0.08591102 -0.040000036 -0.14276451
v 0.08591102 -0.040000036 -0.14276451
v 0.085910946 0.03999996 -0.14276378
v 0.0798949 0.040000036 -0.12689681
v 0.079894714 -0.03999996 -0.12689671
vt 0.6599364 0.0025464166
vt 0.65993595 0.9926963
vt 0.61673844 0.9926963
vt 0.6167389 0.0025464166
vt 0.6167389 0.0025464166
vt 0.61673844 0.9926963
vt 0.5863914 0.9926963
vt 0.58639187 0.0025464166
vt 0.5494718 0.9926963
vt 0.5494723 0.0025464166
vt 0.51352197 0.9926963
vt 0.51352245 0.0025464166
vt 0.47964096 0.9926963
vt 0.47964138 0.0025464166
vt 0.4410861 0.9926963
vt 0.4410866 0.0025464166
vt 0.39920646 0.9926963
vt 0.39920628 0.0025464166
vt 0.67436874 0.0025464166
vt 0.67436826 0.9926963
vt 0.65993595 0.9926963
vt 0.6599364 0.0025464166
vt 0.23000151 0.0025464166
vt 0.23000246 0.9926963
vt 0.17175466 0.9926963
vt 0.17175359 0.0025464166
vt 0.2445491 0.0025464166
vt 0.24455005 0.9926963
vt 0.23000246 0.9926963
vt 0.23000151 0.0025464166
vt 0.17175359 0.0025464166
vt 0.17175466 0.9926963
vt 0.10559124 0.9926963
vt 0.105590165 0.0025464166
vt 0.047074854 0.9926963
vt 0.0470739 0.0025464166
vt 0.001383841 0.9926963
vt 0.001383841 0.0025464166
vt 0.9973999 0.0025464166
vt 0.9973999 0.9926963
vt 0.9390342 0.9926963
vt 0.9390347 0.0025464166
vt 0.8903837 0.9926963
vt 0.8903842 0.0025464166
vt 0.84306514 0.9926963
vt 0.8430656 0.0025464166
vt 0.8430656 0.0025464166
vt 0.84306514 0.9926963
vt 0.67436826 0.9926963
vt 0.67436874 0.0025464166
vt 0.33550817 0.0025464166
vt 0.33550924 0.9926963
vt 0.24455005 0.9926963
vt 0.2445491 0.0025464166
vt 0.39920628 0.0025464166
vt 0.39920646 0.9926963
vt 0.34924597 0.9926963
vt 0.3492456 0.0025464166
vt 0.3492456 0.0025464166
vt 0.34924597 0.9926963
vt 0.33550924 0.9926963
vt 0.33550817 0.0025464166
vn 0.20957556 0 0.9777925
vn 0.20957556 0 0.9777925
vn 0.20957556 0 0.9777925
vn 0.20957556 0 0.9777925
vn 0.94507 0 -0.32686797
vn 0.94507 0 -0.32686797
vn 0.9672121 2.3008592E-07 -0.2539701
vn 0.9672121 2.300859E-07 -0.25397012
vn 0.9945174 4.2552216E-07 -0.104570635
vn 0.9945174 4.2552224E-07 -0.104570635
vn 0.99929607 4.4281512E-07 0.037515353
vn 0.99929607 4.4281512E-07 0.037515353
vn 0.9868029 7.4278256E-07 0.1619265
vn 0.9868029 7.4278273E-07 0.16192652
vn 0.95355237 8.619367E-07 0.3012274
vn 0.95355237 8.6193677E-07 0.30122745
vn 0.92865103 7.373547E-07 0.37095457
vn 0.92865103 7.373547E-07 0.37095457
vn -0.90484023 0 0.4257512
vn -0.90484023 0 0.4257512
vn -0.90484023 0 0.4257512
vn -0.90484023 0 0.4257512
vn 0.29117018 0 -0.95667124
vn 0.29117018 0 -0.95667124
vn 0.2911702 0 -0.95667124
vn 0.2911702 0 -0.95667124
vn 0.9392636 5.306777E-07 0.3431968
vn 0.9392636 5.306777E-07 0.3431968
vn 0.9392636 5.306777E-07 0.3431968
vn 0.9392636 5.306777E-07 0.3431968
vn -0.9272546 2.242679E-06 -0.37443143
vn -0.9272546 2.2426789E-06 -0.37443143
vn -0.95161134 1.050125E-06 -0.30730423
vn -0.95161134 1.0501251E-06 -0.30730423
vn -0.984174 -1.7143097E-07 -0.17720503
vn -0.984174 -1.7143097E-07 -0.17720503
vn -0.9991159 0 -0.04204021
vn -0.9991159 0 -0.04204021
vn -0.9991159 0 -0.04204021
vn -0.9991159 0 -0.04204021
vn -0.9993783 0 0.035256065
vn -0.9993783 0 0.035256065
vn -0.98972476 0 0.14298615
vn -0.98972476 0 0.14298615
vn -0.9748686 0 0.22278021
vn -0.9748686 0 0.22278021
vn 0.29879552 0 0.95431715
vn 0.29879552 0 0.95431715
vn 0.29879552 0 0.95431715
vn 0.29879552 0 0.95431715
vn 0.27519873 -9.561326E-07 -0.9613874
vn 0.2751987 -9.561325E-07 -0.9613874
vn 0.2751987 -9.561325E-07 -0.9613874
vn 0.27519873 -9.561323E-07 -0.9613874
vn 0.3299701 9.63893E-06 -0.9439914
vn 0.32997006 9.638929E-06 -0.9439914
vn 0.32997006 9.638929E-06 -0.9439914
vn 0.3299701 9.63893E-06 -0.9439914
vn -0.9350461 1.7208337E-06 -0.35452607
vn -0.9350461 1.7208336E-06 -0.35452607
vn -0.9350461 1.7208337E-06 -0.35452607
vn -0.9350461 1.7208336E-06 -0.35452604
g sector_2DB_extrude_0
f 3/3/3 2/2/2 1/1/1
f 4/4/4 3/3/3 1/1/1
f 7/7/7 6/6/6 5/5/5
f 8/8/8 7/7/7 5/5/5
f 9/9/9 7/7/7 8/8/8
f 10/10/10 9/9/9 8/8/8
f 11/11/11 9/9/9 10/10/10
f 12/12/12 11/11/11 10/10/10
f 13/13/13 11/11/11 12/12/12
f 14/14/14 13/13/13 12/12/12
f 15/15/15 13/13/13 14/14/14
f 16/16/16 15/15/15 14/14/14
f 17/17/17 15/15/15 16/16/16
f 18/18/18 17/17/17 16/16/16
f 21/21/21 20/20/20 19/19/19
f 22/22/22 21/21/21 19/19/19
f 25/25/25 24/24/24 23/23/23
f 26/26/26 25/25/25 23/23/23
f 29/29/29 28/28/28 27/27/27
f 30/30/30 29/29/29 27/27/27
f 33/33/33 32/32/32 31/31/31
f 34/34/34 33/33/33 31/31/31
f 35/35/35 33/33/33 34/34/34
f 36/36/36 35/35/35 34/34/34
f 37/37/37 35/35/35 36/36/36
f 38/38/38 37/37/37 36/36/36
f 41/41/41 40/40/40 39/39/39
f 42/42/42 41/41/41 39/39/39
f 43/43/43 41/41/41 42/42/42
f 44/44/44 43/43/43 42/42/42
f 45/45/45 43/43/43 44/44/44
f 46/46/46 45/45/45 44/44/44
f 49/49/49 48/48/48 47/47/47
f 50/50/50 49/49/49 47/47/47
f 53/53/53 52/52/52 51/51/51
f 54/54/54 53/53/53 51/51/51
f 57/57/57 56/56/56 55/55/55
f 58/58/58 57/57/57 55/55/55
f 61/61/61 60/60/60 59/59/59
f 62/62/62 61/61/61 59/59/59
