g sector_fill_5L
v 0.14706993 -3.8146972E-08 0.002465458
v 0.24719718 -3.8146972E-08 0.11567913
v 0.057372358 -3.8146972E-08 0.20955196
v -0.018174972 -3.8146972E-08 0.12222184
v 0.09004402 -3.8146972E-08 -0.05473563
v -0.09988686 3.8146972E-08 0.034306813
v 0.05256935 -3.8146972E-08 -0.08553418
v -0.123554304 -3.8146972E-08 0.05552105
v -0.039690398 -3.8146972E-08 0.13356194
v -0.21695502 -3.8146972E-08 -0.013860883
v -0.19945952 3.8146972E-08 -0.03546732
v -0.060304563 3.8146972E-08 -0.16669899
v 0.094481505 -3.8146972E-08 -0.11937993
v -0.023638763 -3.8146972E-08 -0.20610614
v -0.11600891 3.8146972E-08 -0.20955196
v -0.24719718 -3.8146972E-08 -0.06624049
vt 0.43278295 0.28523207
vt 0.35605055 0.0019920322
vt 0.0011753055 0.2096516
vt 0.062167164 0.42539755
vt 0.46468127 0.4387779
vt 0.11752726 0.6517658
vt 0.4746292 0.53243166
vt 0.057857208 0.6675054
vt 0.020808587 0.44818696
vt 0.07068228 0.89304763
vt 0.12440026 0.8877366
vt 0.4857775 0.802134
vt 0.57426053 0.50058573
vt 0.58882797 0.7847333
vt 0.49581584 0.9382206
vt 0.12335115 0.998008
vn -0 1 2.2452545E-07
vn -0 1 2.2452545E-07
vn -0 1 2.2452542E-07
vn -0 1 2.2452548E-07
vn 3.3538151E-07 1 -6.064852E-07
vn -7.8967065E-07 1 4.7356E-07
vn 6.1094863E-07 1 -8.107338E-07
vn -7.8967054E-07 1 4.7355996E-07
vn -7.896706E-07 1 4.735599E-07
vn -1.517621E-06 1 8.7247133E-07
vn -5.499214E-07 1 -2.5271453E-07
vn 6.1094863E-07 1 -8.107338E-07
vn 6.1094863E-07 1 -8.107338E-07
vn 6.109487E-07 1 -8.107338E-07
vn -5.499214E-07 1 -2.5271453E-07
vn -5.499214E-07 1 -2.5271453E-07
g sector_fill_5L_0
f 3/3/3 2/2/2 1/1/1
f 4/4/4 3/3/3 1/1/1
f 1/1/1 5/5/5 4/4/4
f 5/5/5 6/6/6 4/4/4
f 6/6/6 5/5/5 7/7/7
f 6/6/6 8/8/8 4/4/4
f 8/8/8 9/9/9 4/4/4
f 8/8/8 6/6/6 10/10/10
f 6/6/6 11/11/11 10/10/10
f 6/6/6 7/7/7 12/12/12
f 11/11/11 6/6/6 12/12/12
f 12/12/12 7/7/7 13/13/13
f 14/14/14 12/12/12 13/13/13
f 12/12/12 15/15/15 11/11/11
f 15/15/15 16/16/16 11/11/11
