g sector_fill_Xtra_1L
v 0.13980766 0 -0.085078254
v -0.119326115 0 -0.03875574
v -0.12145393 0 -0.061943453
v 0.14353493 0 -0.044232424
v -0.122897506 0 -0.010919513
v 0.14169262 0 -0.0006501198
v -0.12927555 0 0.012013607
v 0.1337651 0 0.043321133
v -0.14353493 0 0.033312816
v 0.12081638 0 0.085078254
vt 0.0011965248 0.97999287
vt 0.19490874 0.07802799
vt 0.113953955 0.06776017
vt 0.14380302 0.99800795
vt 0.2928357 0.0689007
vt 0.29666868 0.99684864
vt 0.37393185 0.049347438
vt 0.4516364 0.97442394
vt 0.45026147 0.001992032
vt 0.59945893 0.9341428
vn -0 1 -8.143099E-07
vn -0 1 -8.6633156E-07
vn -0 1 -8.143099E-07
vn -0 1 -8.653336E-07
vn -0 1 -1.7003525E-07
vn -0 1 -1.7003525E-07
vn -0 1 8.892566E-07
vn -0 1 6.5424365E-07
vn -0 1 1.6326151E-06
vn -0 1 1.6326151E-06
g sector_fill_Xtra_1L_0
f 3/3/3 2/2/2 1/1/1
f 2/2/2 4/4/4 1/1/1
f 2/2/2 5/5/5 4/4/4
f 5/5/5 6/6/6 4/4/4
f 5/5/5 7/7/7 6/6/6
f 7/7/7 8/8/8 6/6/6
f 7/7/7 9/9/9 8/8/8
f 9/9/9 10/10/10 8/8/8
