g sector_1L_extrude
v -0.085178934 -0.040000036 0.14132485
v -0.08517896 0.03999996 0.14132439
v 0.1609916 0.03999996 0.12057422
v 0.16099162 -0.040000036 0.12057468
v 0.16099162 -0.040000036 0.12057468
v 0.1609916 0.03999996 0.12057422
v 0.15248159 0.03999996 0.085954055
v 0.15248159 -0.040000036 0.085954055
v 0.13309525 0.03999996 0.036053084
v 0.13309513 -0.040000036 0.036053084
v 0.10469693 0.040000036 -0.012630119
v 0.104696855 -0.03999996 -0.012630081
v -0.09156157 -0.040000036 0.11287643
v -0.08517896 0.03999996 0.14132439
v -0.085178934 -0.040000036 0.14132485
v -0.09156165 0.03999996 0.11287647
v -0.10887048 -0.040000036 0.08137737
v -0.10887057 0.03999996 0.08137741
v -0.13444367 -0.040000036 0.050720975
v -0.13444388 0.03999996 0.05072128
v -0.16099143 -0.040000036 0.031969834
v -0.16099162 0.03999996 0.03197014
v -0.03748025 -0.040000036 -0.14132485
v -0.03748025 0.03999996 -0.14132485
v -0.16099162 0.03999996 0.03197014
v -0.16099143 -0.040000036 0.031969834
v 0.018497761 -0.040000036 -0.10889698
v -0.03748025 0.03999996 -0.14132485
v -0.03748025 -0.040000036 -0.14132485
v 0.018497877 0.03999996 -0.10889709
v 0.06720193 -0.040000036 -0.06198177
v 0.067202 0.03999996 -0.061981924
v 0.104696855 -0.03999996 -0.012630081
v 0.10469693 0.040000036 -0.012630119
vt 0.41860545 0.0025464166
vt 0.41860563 0.9926963
vt 0.15606207 0.9926963
vt 0.15606195 0.0025464166
vt 0.15606195 0.0025464166
vt 0.15606207 0.9926963
vt 0.11817461 0.9926963
vt 0.1181739 0.0025464166
vt 0.061281264 0.9926963
vt 0.06128055 0.0025464166
vt 0.001383841 0.9926963
vt 0.001383841 0.0025464166
vt 0.44959038 0.0025464166
vt 0.41860563 0.9926963
vt 0.41860545 0.0025464166
vt 0.44959003 0.9926963
vt 0.4877869 0.0025464166
vt 0.4877866 0.9926963
vt 0.53021413 0.0025464166
vt 0.53021365 0.9926963
vt 0.5647555 0.0025464166
vt 0.564755 0.9926963
vt 0.7909125 0.0025464166
vt 0.7909124 0.9926963
vt 0.564755 0.9926963
vt 0.5647555 0.0025464166
vt 0.85966384 0.0025464166
vt 0.7909124 0.9926963
vt 0.7909125 0.0025464166
vt 0.8596637 0.9926963
vt 0.93153167 0.0025464166
vt 0.93153155 0.9926963
vt 0.9973999 0.0025464166
vt 0.9973999 0.9926963
vn 0.08399397 5.736168E-06 0.9964663
vn 0.08399397 5.736167E-06 0.9964663
vn 0.08399397 5.7361667E-06 0.9964663
vn 0.08399397 5.7361667E-06 0.9964663
vn 0.9710923 0 -0.23870422
vn 0.9710923 0 -0.23870417
vn 0.9496141 -6.5472E-07 -0.3134216
vn 0.9496141 -6.5472E-07 -0.3134216
vn 0.89986324 -8.7050114E-07 -0.43617228
vn 0.89986324 -8.7050114E-07 -0.43617225
vn 0.8299476 -1.2132921E-06 -0.5578414
vn 0.8299476 -1.2132923E-06 -0.5578415
vn -0.93000585 -7.3023807E-07 0.3675448
vn -0.975743 0 0.218919
vn -0.975743 0 0.21891901
vn -0.93000585 -7.302379E-07 0.3675448
vn -0.82311124 -2.0944992E-06 0.56788015
vn -0.8231111 -2.0944995E-06 0.5678802
vn -0.6879617 -3.6832282E-06 0.72574705
vn -0.68796176 -3.6832278E-06 0.725747
vn -0.5769204 -4.6368837E-06 0.81680036
vn -0.5769204 -4.6368837E-06 0.8168004
vn -0.814335 0 -0.58039516
vn -0.814335 0 -0.58039516
vn -0.8143349 0 -0.5803952
vn -0.814335 0 -0.5803952
vn 0.6040428 -1.507674E-06 -0.79695183
vn 0.5012614 -9.0713655E-07 -0.86529595
vn 0.5012614 -9.0713655E-07 -0.86529595
vn 0.604043 -1.5076743E-06 -0.79695183
vn 0.74498934 -1.8923066E-06 -0.66707647
vn 0.7449893 -1.8923068E-06 -0.6670765
vn 0.8299476 -1.2132923E-06 -0.5578415
vn 0.8299476 -1.2132921E-06 -0.5578414
g sector_1L_extrude_0
f 3/3/3 2/2/2 1/1/1
f 4/4/4 3/3/3 1/1/1
f 7/7/7 6/6/6 5/5/5
f 8/8/8 7/7/7 5/5/5
f 9/9/9 7/7/7 8/8/8
f 10/10/10 9/9/9 8/8/8
f 11/11/11 9/9/9 10/10/10
f 12/12/12 11/11/11 10/10/10
f 15/15/15 14/14/14 13/13/13
f 14/14/14 16/16/16 13/13/13
f 13/13/13 16/16/16 17/17/17
f 16/16/16 18/18/18 17/17/17
f 17/17/17 18/18/18 19/19/19
f 18/18/18 20/20/20 19/19/19
f 19/19/19 20/20/20 21/21/21
f 20/20/20 22/22/22 21/21/21
f 25/25/25 24/24/24 23/23/23
f 26/26/26 25/25/25 23/23/23
f 29/29/29 28/28/28 27/27/27
f 28/28/28 30/30/30 27/27/27
f 27/27/27 30/30/30 31/31/31
f 30/30/30 32/32/32 31/31/31
f 31/31/31 32/32/32 33/33/33
f 32/32/32 34/34/34 33/33/33
