g sector_6DB_extrude
v 0.09949789 -0.040000036 0.04109706
v 0.09949789 0.03999996 0.041097365
v 0.22498499 0.03999996 0.00032290458
v 0.22498494 -0.040000036 0.0003225994
v 0.15323721 -0.040000036 -0.14434144
v 0.0013664818 0.03999996 -0.100867204
v 0.0013664818 -0.040000036 -0.100867204
v 0.15323728 0.03999996 -0.14434098
v 0.22906427 -0.03999996 -0.16320442
v 0.22906435 0.040000036 -0.16320395
v 0.22498494 -0.040000036 0.0003225994
v 0.22498499 0.03999996 0.00032290458
v 0.23882852 0.03999996 0.028012114
v 0.23882848 -0.040000036 0.028011426
v 0.23882848 -0.040000036 0.028011426
v 0.23882852 0.03999996 0.028012114
v 0.28795603 0.040000036 0.01690627
v 0.28795594 -0.03999996 0.016905623
v 0.28795594 -0.03999996 0.016905623
v 0.28795603 0.040000036 0.01690627
v 0.22906435 0.040000036 -0.16320395
v 0.22906427 -0.03999996 -0.16320442
v 0.0013664818 -0.040000036 -0.100867204
v 0.0013664818 0.03999996 -0.100867204
v -0.04396822 0.03999996 -0.17543998
v -0.043968067 -0.040000036 -0.17543964
v -0.043968067 -0.040000036 -0.17543964
v -0.04396822 0.03999996 -0.17543998
v -0.14769632 0.03999996 -0.13253793
v -0.14769617 -0.040000036 -0.13253759
v -0.14769617 -0.040000036 -0.13253759
v -0.14769632 0.03999996 -0.13253793
v -0.09789835 0.03999996 -0.055013552
v -0.09789835 -0.040000036 -0.055013552
v -0.04861635 -0.040000036 0.13723898
v 0.111356676 0.03999996 0.06951043
v 0.11135675 -0.040000036 0.06951041
v -0.04861635 0.03999996 0.13723898
v -0.09492967 -0.040000036 0.1628485
v -0.094929524 0.03999996 0.16284835
v 0.11135675 -0.040000036 0.06951041
v 0.111356676 0.03999996 0.06951043
v 0.09949789 0.03999996 0.041097365
v 0.09949789 -0.040000036 0.04109706
v -0.28795603 -0.040000036 0.040468358
v -0.28795603 0.03999996 0.040468358
v -0.16478479 0.03999996 0.17543972
v -0.16478464 -0.040000036 0.17543998
v -0.16478464 -0.040000036 0.17543998
v -0.16478479 0.03999996 0.17543972
v -0.11456026 0.03999996 0.14264311
v -0.11456026 -0.040000036 0.14264356
v -0.20355593 -0.040000036 -0.0080484105
v -0.28795603 0.03999996 0.040468358
v -0.28795603 -0.040000036 0.040468358
v -0.20355593 0.03999996 -0.0080484105
v -0.09789835 -0.040000036 -0.055013552
v -0.09789835 0.03999996 -0.055013552
v -0.11456026 -0.040000036 0.14264356
v -0.11456026 0.03999996 0.14264311
v -0.094929524 0.03999996 0.16284835
v -0.09492967 -0.040000036 0.1628485
vt 0.6826494 0.0025464296
vt 0.68264973 0.9926963
vt 0.6040411 0.9926963
vt 0.60404074 0.0025464296
vt 0.39614457 0.0025464296
vt 0.302031 0.9926963
vt 0.30203095 0.0025464296
vt 0.39614463 0.9926963
vt 0.44269663 0.0025464296
vt 0.44269672 0.9926963
vt 0.60404074 0.0025464296
vt 0.6040411 0.9926963
vt 0.58559793 0.9926963
vt 0.5855978 0.0025464296
vt 0.5855978 0.0025464296
vt 0.58559793 0.9926963
vt 0.55559087 0.9926963
vt 0.55559075 0.0025464296
vt 0.55559075 0.0025464296
vt 0.55559087 0.9926963
vt 0.44269672 0.9926963
vt 0.44269663 0.0025464296
vt 0.30203095 0.0025464296
vt 0.302031 0.9926963
vt 0.25003746 0.9926963
vt 0.25003764 0.0025464296
vt 0.25003764 0.0025464296
vt 0.25003746 0.9926963
vt 0.18316248 0.9926963
vt 0.18316266 0.0025464296
vt 0.18316266 0.0025464296
vt 0.18316248 0.9926963
vt 0.12826827 0.9926963
vt 0.12826869 0.0025464296
vt 0.80448884 0.0025464296
vt 0.7009925 0.9926963
vt 0.7009923 0.0025464296
vt 0.80448896 0.9926963
vt 0.83601815 0.0025464296
vt 0.83601815 0.9926963
vt 0.7009923 0.0025464296
vt 0.7009925 0.9926963
vt 0.68264973 0.9926963
vt 0.6826494 0.0025464296
vt 0.99739987 0.0025464296
vt 0.99739987 0.9926963
vt 0.8885383 0.9926963
vt 0.88853806 0.0025464296
vt 0.88853806 0.0025464296
vt 0.8885383 0.9926963
vt 0.8528016 0.9926963
vt 0.8528015 0.0025464296
vt 0.059382834 0.0025464296
vt 0.0013838187 0.9926963
vt 0.0013838187 0.0025464296
vt 0.059382416 0.9926963
vt 0.12826869 0.0025464296
vt 0.12826827 0.9926963
vt 0.8528015 0.0025464296
vt 0.8528016 0.9926963
vt 0.83601815 0.9926963
vt 0.83601815 0.0025464296
vn 0.30902547 -3.6895703E-06 0.95105374
vn 0.30902553 -3.6895713E-06 0.95105374
vn 0.30902553 -3.6895713E-06 0.95105374
vn 0.30902553 -3.6895713E-06 0.95105374
vn -0.2640541 3.8717385E-06 -0.96450794
vn -0.27520305 2.9384194E-06 -0.9613861
vn -0.27520305 2.9384194E-06 -0.9613861
vn -0.2640541 3.871739E-06 -0.96450794
vn -0.2414061 5.757031E-06 -0.9704241
vn -0.2414061 5.757031E-06 -0.9704241
vn -0.8944399 -2.418968E-06 0.44718832
vn -0.8944399 -2.418968E-06 0.44718832
vn -0.8944399 -2.418968E-06 0.44718832
vn -0.8944399 -2.418968E-06 0.44718832
vn 0.22049706 -8.22855E-06 0.9753877
vn 0.22049704 -8.22855E-06 0.9753877
vn 0.22049709 -8.2285505E-06 0.9753877
vn 0.22049704 -8.22855E-06 0.9753877
vn 0.9504806 1.0802621E-06 -0.31078404
vn 0.9504806 1.080262E-06 -0.31078404
vn 0.9504806 1.0802621E-06 -0.31078407
vn 0.9504806 1.080262E-06 -0.31078404
vn 0.85449064 -8.7421427E-07 -0.5194668
vn 0.85449064 -8.7421427E-07 -0.5194668
vn 0.85449064 -8.7421415E-07 -0.5194668
vn 0.85449064 -8.7421427E-07 -0.5194668
vn -0.38220042 -4.5676447E-06 -0.9240794
vn -0.3822004 -4.5676443E-06 -0.9240794
vn -0.38220042 -4.5676447E-06 -0.9240794
vn -0.3822004 -4.5676443E-06 -0.9240794
vn -0.84137154 5.0873115E-07 0.5404572
vn -0.84137154 5.087311E-07 0.5404571
vn -0.84137154 5.087311E-07 0.5404572
vn -0.84137154 5.087311E-07 0.5404572
vn 0.41223368 2.773616E-07 0.91107816
vn 0.38987252 2.1958907E-07 0.92086875
vn 0.38987255 2.195891E-07 0.92086875
vn 0.41223368 2.773616E-07 0.91107816
vn 0.483907 4.6583966E-07 0.8751193
vn 0.483907 4.6583966E-07 0.8751193
vn 0.92284626 6.136234E-07 -0.38516855
vn 0.92284626 6.136234E-07 -0.38516855
vn 0.92284626 6.136234E-07 -0.3851685
vn 0.92284626 6.1362334E-07 -0.38516852
vn -0.73865885 0 0.67407954
vn -0.73865885 0 0.67407954
vn -0.73865885 0 0.67407954
vn -0.73865885 0 0.67407954
vn 0.54675215 3.6431938E-06 0.8372946
vn 0.54675215 3.6431938E-06 0.8372946
vn 0.54675215 3.6431938E-06 0.8372946
vn 0.54675215 3.643194E-06 0.83729446
vn -0.44891694 0 -0.8935735
vn -0.49836856 0 -0.8669653
vn -0.49836856 0 -0.8669653
vn -0.44891694 0 -0.8935735
vn -0.40618336 0 -0.9137916
vn -0.40618336 0 -0.9137916
vn -0.71722835 3.499861E-06 0.6968382
vn -0.7172284 3.4998616E-06 0.6968382
vn -0.7172285 3.499861E-06 0.69683814
vn -0.7172285 3.4998616E-06 0.69683814
g sector_6DB_extrude_0
f 3/3/3 2/2/2 1/1/1
f 4/4/4 3/3/3 1/1/1
f 7/7/7 6/6/6 5/5/5
f 6/6/6 8/8/8 5/5/5
f 5/5/5 8/8/8 9/9/9
f 8/8/8 10/10/10 9/9/9
f 13/13/13 12/12/12 11/11/11
f 14/14/14 13/13/13 11/11/11
f 17/17/17 16/16/16 15/15/15
f 18/18/18 17/17/17 15/15/15
f 21/21/21 20/20/20 19/19/19
f 22/22/22 21/21/21 19/19/19
f 25/25/25 24/24/24 23/23/23
f 26/26/26 25/25/25 23/23/23
f 29/29/29 28/28/28 27/27/27
f 30/30/30 29/29/29 27/27/27
f 33/33/33 32/32/32 31/31/31
f 34/34/34 33/33/33 31/31/31
f 37/37/37 36/36/36 35/35/35
f 36/36/36 38/38/38 35/35/35
f 35/35/35 38/38/38 39/39/39
f 38/38/38 40/40/40 39/39/39
f 43/43/43 42/42/42 41/41/41
f 44/44/44 43/43/43 41/41/41
f 47/47/47 46/46/46 45/45/45
f 48/48/48 47/47/47 45/45/45
f 51/51/51 50/50/50 49/49/49
f 52/52/52 51/51/51 49/49/49
f 55/55/55 54/54/54 53/53/53
f 54/54/54 56/56/56 53/53/53
f 53/53/53 56/56/56 57/57/57
f 56/56/56 58/58/58 57/57/57
f 61/61/61 60/60/60 59/59/59
f 62/62/62 61/61/61 59/59/59
