g sector_4L_lines_upper
v -0.1303183 0 0.057534732
v -0.2208778 0 -0.018841328
v -0.21216682 0 -0.019416299
v -0.1294085 0 0.050408754
v -0.19223468 0 -0.041015666
v -0.10062279 0 0.038158435
v -0.2001603 0 -0.039839115
v -0.098784715 0 0.029372014
v -0.30665344 0 -0.11969639
v -0.0010293579 0 0.14937338
v -0.31553343 0 -0.117551684
v 0.005257339 0 0.14494036
v -0.18916076 0 -0.2771704
v 0.04950302 0 0.22725025
v -0.18911205 0 -0.28708667
v 0.056905594 0 0.22435553
v -0.13583411 0 -0.24934608
v 0.07986915 7.6293944E-08 0.27970755
v -0.1379499 0 -0.25852352
v 0.08276733 0 0.2700365
v -0.117034145 0 -0.2707349
v 0.14383705 0 0.25733456
v -0.11864662 0 -0.27831835
v 0.14924797 -7.6293944E-08 0.24484648
v -0.07246338 0 -0.24163364
v 0.15700264 0 0.28708667
v -0.06829163 0 -0.24585803
v 0.16283302 0 0.274463
v -0.030070418 0 -0.21312933
v 0.28419295 0 0.24929166
v -0.020554122 0 -0.2150851
v 0.2731108 0 0.24421531
v -0.046288755 0 -0.19187236
v 0.27014336 0 0.21807148
v -0.038049698 0 -0.19347854
v 0.2588434 0 0.2130628
v 0.051243134 0 -0.118790336
v 0.31553343 0 0.20335738
v 0.05535095 0 -0.12409648
v 0.30456543 0 0.19901368
v 0.1377034 0 -0.03810688
v 0.27894995 0 0.13689075
v 0.13921493 0 -0.046055634
v 0.26671454 0 0.13306427
v 0.15804496 0 -0.047883082
v 0.30223578 0 0.125312
v 0.16073051 0 -0.057395823
v 0.2904966 0 0.12228741
v 0.23043457 0 0.032442503
v 0.23627785 0 0.029934205
vt 0.019452479 0.5938107
vt 0.0014835016 0.757897
vt 0.010824746 0.75010574
vt 0.027218563 0.6001258
vt 0.05169199 0.7527427
vt 0.0680338 0.584822
vt 0.04256499 0.7591723
vt 0.07833214 0.59192044
vt 0.01186572 0.9420833
vt 0.061636657 0.37690422
vt 0.0008454044 0.9484533
vt 0.07223963 0.3753352
vt 0.2817412 0.98805016
vt 0.03777912 0.24977027
vt 0.29132006 0.9980081
vt 0.048029587 0.24557683
vt 0.30880404 0.90873
vt 0.018003972 0.16766271
vt 0.31548902 0.9200226
vt 0.030222023 0.17463487
vt 0.34832668 0.91224265
vt 0.1040433 0.12876132
vt 0.3539876 0.9214433
vt 0.12150371 0.13616085
vt 0.36532834 0.8400486
vt 0.088734165 0.08609147
vt 0.37359706 0.8403016
vt 0.10674807 0.093224674
vt 0.3807065 0.7705498
vt 0.25338072 0.0019920322
vt 0.3921872 0.7633777
vt 0.24707812 0.01776377
vt 0.34391528 0.76468927
vt 0.26920876 0.046992607
vt 0.35377136 0.75839186
vt 0.26262137 0.062905386
vt 0.37208444 0.5972257
vt 0.3291442 0.01821747
vt 0.3813282 0.59863156
vt 0.32225272 0.033140335
vt 0.3817781 0.43273303
vt 0.3561097 0.12043428
vt 0.39094204 0.43930003
vt 0.34744242 0.13605331
vt 0.41169626 0.42304787
vt 0.3907306 0.10973835
vt 0.42354763 0.43006465
vt 0.38179335 0.12407145
vt 0.40753764 0.27243832
vt 0.41584358 0.2693535
vn -0 1 -1.5234536E-06
vn -0 1 0
vn -0 1 0
vn -0 1 -1.7923871E-06
vn -0 1 0
vn -0 1 -5.6851304E-06
vn -0 1 0
vn -0 1 -5.6224876E-06
vn -0 1 0
vn -0 1 -3.3429997E-06
vn -0 1 0
vn -0 1 -3.2128557E-06
vn -0 1 0
vn 1.221417E-06 1 -2.283756E-06
vn -0 1 0
vn 1.6188422E-06 1 -3.0268452E-06
vn -0 1 0
vn 4.449186E-07 1 -1.4917375E-05
vn -0 1 0
vn 6.928929E-07 1 -1.4340381E-05
vn -0 1 0
vn -3.2930416E-07 1 -1.4325406E-05
vn -0 1 0
vn -2.9091714E-07 1 -1.4161027E-05
vn -0 1 0
vn 4.4300864E-07 1 -9.310962E-06
vn -0 1 0
vn 4.4416555E-07 1 -9.307318E-06
vn -0 1 0
vn -0 1 -8.610159E-06
vn -0 1 0
vn -0 1 -8.620206E-06
vn -0 1 0
vn -0 1 0
vn -0 1 0
vn -0 1 0
vn -0 1 -4.0108453E-06
vn -0 1 0
vn -0 1 -3.8293106E-06
vn -0 1 0
vn -0 1 -6.51853E-06
vn -0 1 -1.8368588E-06
vn -0 1 -6.382066E-06
vn -0 1 -1.803656E-06
vn -0 1 0
vn -0 1 -1.507047E-06
vn -0 1 0
vn -0 1 -1.5323898E-06
vn -0 1 0
vn -0 1 0
g sector_4L_lines_upper_0
f 3/3/3 2/2/2 1/1/1
f 4/4/4 3/3/3 1/1/1
f 3/3/3 5/5/5 2/2/2
f 4/4/4 1/1/1 6/6/6
f 5/5/5 7/7/7 2/2/2
f 8/8/8 4/4/4 6/6/6
f 5/5/5 9/9/9 7/7/7
f 8/8/8 6/6/6 10/10/10
f 9/9/9 11/11/11 7/7/7
f 12/12/12 8/8/8 10/10/10
f 9/9/9 13/13/13 11/11/11
f 12/12/12 10/10/10 14/14/14
f 13/13/13 15/15/15 11/11/11
f 16/16/16 12/12/12 14/14/14
f 13/13/13 17/17/17 15/15/15
f 16/16/16 14/14/14 18/18/18
f 17/17/17 19/19/19 15/15/15
f 20/20/20 16/16/16 18/18/18
f 17/17/17 21/21/21 19/19/19
f 20/20/20 18/18/18 22/22/22
f 21/21/21 23/23/23 19/19/19
f 24/24/24 20/20/20 22/22/22
f 21/21/21 25/25/25 23/23/23
f 24/24/24 22/22/22 26/26/26
f 25/25/25 27/27/27 23/23/23
f 28/28/28 24/24/24 26/26/26
f 25/25/25 29/29/29 27/27/27
f 28/28/28 26/26/26 30/30/30
f 29/29/29 31/31/31 27/27/27
f 32/32/32 28/28/28 30/30/30
f 29/29/29 33/33/33 31/31/31
f 32/32/32 30/30/30 34/34/34
f 33/33/33 35/35/35 31/31/31
f 36/36/36 32/32/32 34/34/34
f 33/33/33 37/37/37 35/35/35
f 36/36/36 34/34/34 38/38/38
f 37/37/37 39/39/39 35/35/35
f 40/40/40 36/36/36 38/38/38
f 37/37/37 41/41/41 39/39/39
f 40/40/40 38/38/38 42/42/42
f 41/41/41 43/43/43 39/39/39
f 44/44/44 40/40/40 42/42/42
f 41/41/41 45/45/45 43/43/43
f 44/44/44 42/42/42 46/46/46
f 45/45/45 47/47/47 43/43/43
f 48/48/48 44/44/44 46/46/46
f 45/45/45 49/49/49 47/47/47
f 48/48/48 46/46/46 50/50/50
f 49/49/49 50/50/50 47/47/47
f 49/49/49 48/48/48 50/50/50
