g sector_6L_lines_upper
v 0.31821668 -3.8146972E-08 0.10539724
v 0.18395308 -3.8146972E-08 0.19301885
v 0.31263646 -3.8146972E-08 0.105240874
v 0.18939885 -3.8146972E-08 0.20027402
v 0.21520971 -3.8146972E-08 0.02023548
v 0.14403234 -3.8146972E-08 0.22796176
v 0.20927152 -3.8146972E-08 0.020372046
v 0.14390813 -3.8146972E-08 0.235069
v 0.23401006 -3.8146972E-08 0.0031779478
v 0.11216329 -3.8146972E-08 0.2042951
v 0.22702092 -3.8146972E-08 0.0036053467
v 0.106433466 -3.8146972E-08 0.20427045
v 0.090198725 -3.8146972E-08 -0.09165924
v 0.15387999 -3.8146972E-08 0.17029741
v 0.08696485 -3.8146972E-08 -0.087183304
v 0.14834562 -3.8146972E-08 0.1704247
v -0.052386798 -3.8146972E-08 -0.17116852
v 0.02958906 3.8146972E-08 0.07695232
v -0.050840855 -3.8146972E-08 -0.16466224
v 0.030225353 3.8146972E-08 0.08369842
v -0.06688547 -3.8146972E-08 -0.14977314
v -0.006995487 3.8146972E-08 0.116420515
v -0.06511698 -3.8146972E-08 -0.14315067
v -0.0064404486 3.8146972E-08 0.12310556
v -0.15187097 -3.8146972E-08 -0.19117339
v -0.059483584 3.8146972E-08 0.07681583
v -0.1533867 -3.8146972E-08 -0.18713649
v -0.062144563 3.8146972E-08 0.08025261
v -0.26307696 -3.8146972E-08 -0.235069
v -0.15537271 -3.8146972E-08 0.023002166
v -0.26082864 -3.8146972E-08 -0.22855681
v -0.15712908 -3.8146972E-08 0.026980285
v -0.31821668 -3.8146972E-08 -0.14095707
v -0.24765703 -3.8146972E-08 -0.018023185
v -0.31257266 -3.8146972E-08 -0.14285706
v -0.25335053 -3.8146972E-08 -0.016313285
v -0.20421433 -3.8146972E-08 -0.09391227
v -0.19865175 -3.8146972E-08 -0.095678635
vt 0.32918042 0.001992032
vt 0.10976513 0.093172744
vt 0.32471088 0.008954072
vt 0.1054319 0.080445826
vt 0.3473985 0.19922897
vt 0.033642467 0.11285775
vt 0.34227133 0.20638458
vt 0.024837866 0.10707333
vt 0.38398418 0.19046085
vt 0.035996392 0.17164075
vt 0.3776231 0.19866014
vt 0.031240588 0.17867593
vt 0.37996432 0.4457331
vt 0.11246203 0.14896755
vt 0.3717836 0.44595346
vt 0.10768347 0.15563652
vt 0.35820356 0.68670166
vt 0.12292039 0.3790961
vt 0.35152972 0.67937464
vt 0.11519314 0.3726823
vt 0.31990048 0.6865803
vt 0.044044387 0.39091703
vt 0.31327027 0.67888373
vt 0.036324 0.38465375
vt 0.29959753 0.82520217
vt 0.04868747 0.48825496
vt 0.29338944 0.8236858
vt 0.04225744 0.48864198
vt 0.26044822 0.998008
vt 0.0344738 0.6505939
vt 0.25435376 0.9898161
vt 0.028136648 0.6494213
vt 0.09917737 0.9869021
vt 0.007615375 0.7978379
vt 0.10621768 0.9815796
vt 0.00076643546 0.80337983
vt 0.13680711 0.8080425
vt 0.14361583 0.8027081
vn -0 1 4.1542644E-06
vn -0 1 0
vn -0 1 4.1179514E-06
vn -0 1 0
vn -0 1 7.72239E-06
vn -0 1 -4.8989214E-06
vn -0 1 7.593129E-06
vn -0 1 -5.069688E-06
vn -0 1 -1.7183752E-06
vn -0 1 -7.87831E-06
vn -0 1 -1.6119593E-06
vn -0 1 -7.796953E-06
vn -0 1 0
vn 3.1814108E-07 1 0
vn -0 1 0
vn 3.1744878E-07 1 0
vn -0 1 -7.8974864E-07
vn 2.88324E-07 1 -3.3918677E-06
vn -0 1 -7.915433E-07
vn 2.8924399E-07 1 -3.366552E-06
vn -0 1 -1.1711528E-05
vn -0 1 0
vn -0 1 -1.1712571E-05
vn -0 1 0
vn -0 1 -5.7610437E-06
vn -3.428921E-07 1 -3.2839255E-06
vn -0 1 -6.2292543E-06
vn -3.714741E-07 1 -4.359649E-06
vn -0 1 0
vn -3.0563012E-07 1 -6.59498E-06
vn -0 1 0
vn -3.2472497E-07 1 -7.0070137E-06
vn -0 1 0
vn -0 1 0
vn -0 1 0
vn -0 1 0
vn -0 1 0
vn -0 1 0
g sector_6L_lines_upper_0
f 3/3/3 2/2/2 1/1/1
f 2/2/2 4/4/4 1/1/1
f 3/3/3 1/1/1 5/5/5
f 2/2/2 6/6/6 4/4/4
f 7/7/7 3/3/3 5/5/5
f 6/6/6 8/8/8 4/4/4
f 7/7/7 5/5/5 9/9/9
f 6/6/6 10/10/10 8/8/8
f 11/11/11 7/7/7 9/9/9
f 10/10/10 12/12/12 8/8/8
f 11/11/11 9/9/9 13/13/13
f 10/10/10 14/14/14 12/12/12
f 15/15/15 11/11/11 13/13/13
f 14/14/14 16/16/16 12/12/12
f 15/15/15 13/13/13 17/17/17
f 14/14/14 18/18/18 16/16/16
f 19/19/19 15/15/15 17/17/17
f 18/18/18 20/20/20 16/16/16
f 19/19/19 17/17/17 21/21/21
f 18/18/18 22/22/22 20/20/20
f 23/23/23 19/19/19 21/21/21
f 22/22/22 24/24/24 20/20/20
f 23/23/23 21/21/21 25/25/25
f 22/22/22 26/26/26 24/24/24
f 27/27/27 23/23/23 25/25/25
f 26/26/26 28/28/28 24/24/24
f 27/27/27 25/25/25 29/29/29
f 26/26/26 30/30/30 28/28/28
f 31/31/31 27/27/27 29/29/29
f 30/30/30 32/32/32 28/28/28
f 31/31/31 29/29/29 33/33/33
f 30/30/30 34/34/34 32/32/32
f 35/35/35 31/31/31 33/33/33
f 34/34/34 36/36/36 32/32/32
f 35/35/35 33/33/33 37/37/37
f 34/34/34 38/38/38 36/36/36
f 38/38/38 35/35/35 37/37/37
f 38/38/38 37/37/37 36/36/36
