g sector_fill_Xtra_5D
v 0.018174972 0 0.12222185
v -0.057372358 0 0.20955196
v -0.24719718 0 0.115679115
v -0.14706993 0 0.002465458
v 0.09988686 0 0.03430682
v -0.09004402 0 -0.05473563
v 0.039690398 0 0.13356195
v 0.123554304 0 0.055521067
v -0.05256935 0 -0.08553416
v 0.19945952 0 -0.0354673
v 0.21695502 0 -0.013860874
v 0.060304563 0 -0.16669899
v 0.24719718 0 -0.06624049
v 0.11600891 0 -0.20955196
v 0.023638763 0 -0.20610614
v -0.094481505 0 -0.11937989
vt 0.52783644 0.42539746
vt 0.588828 0.20965163
vt 0.23395303 0.0019920322
vt 0.15722035 0.2852321
vt 0.47247636 0.6517656
vt 0.12532204 0.43877792
vt 0.56919503 0.44818693
vt 0.53214645 0.66750515
vt 0.115374126 0.53243154
vt 0.46560365 0.88773656
vt 0.5193213 0.8930476
vt 0.1042261 0.8021339
vt 0.46665218 0.998008
vt 0.09418746 0.9382207
vt 0.0011753056 0.78473336
vt 0.015742788 0.5005858
vn -0 1 -2.2452558E-07
vn -0 1 -2.2452555E-07
vn -0 1 -2.2452555E-07
vn -0 1 -2.2452555E-07
vn -0 1 -4.7356062E-07
vn -0 1 -1.061349E-06
vn -0 1 -4.7356062E-07
vn -0 1 -4.7356065E-07
vn -0 1 -4.0536722E-07
vn -0 1 7.581438E-07
vn -0 1 -1.3087052E-06
vn -0 1 -4.0536722E-07
vn -0 1 7.5814387E-07
vn -0 1 7.5814387E-07
vn -0 1 -4.0536725E-07
vn -0 1 -4.0536722E-07
g sector_fill_Xtra_5D_0
f 3/3/3 2/2/2 1/1/1
f 4/4/4 3/3/3 1/1/1
f 1/1/1 5/5/5 4/4/4
f 5/5/5 6/6/6 4/4/4
f 1/1/1 7/7/7 5/5/5
f 7/7/7 8/8/8 5/5/5
f 9/9/9 6/6/6 5/5/5
f 10/10/10 5/5/5 8/8/8
f 9/9/9 5/5/5 10/10/10
f 11/11/11 10/10/10 8/8/8
f 12/12/12 9/9/9 10/10/10
f 10/10/10 13/13/13 12/12/12
f 13/13/13 14/14/14 12/12/12
f 9/9/9 12/12/12 15/15/15
f 16/16/16 9/9/9 15/15/15
