g sector_2D_lines_upper
v 0.038321245 -0.0002007675 0.15136395
v 0.006714382 -0.0002007675 0.19650823
v 0.036008928 0.0002007675 0.1463185
v 0.00903471 -0.0002007675 0.20162408
v 0.07401766 -0.0002007675 0.104970455
v -0.06143049 -0.0002007675 0.17160085
v 0.0710655 -0.0002007675 0.10147146
v -0.059041653 -0.0002007675 0.17751813
v 0.124588296 -0.0002007675 0.056422595
v -0.0678092 -0.0002007675 0.18648084
v 0.12043535 -0.0002007675 0.053201694
v -0.065640315 -0.0002007675 0.19291124
v 0.18695423 -0.0002007675 0.020515366
v -0.1549302 -0.0002007675 0.16117743
v 0.18264766 -0.0002007675 0.016133174
v -0.1634102 -0.0002007675 0.16448995
v 0.23513258 -0.0002007675 -0.0025479507
v -0.14867434 -0.0002007675 0.1461733
v 0.22809774 -0.0002007675 -0.0048485566
v -0.1564372 -0.0002007675 0.14947164
v 0.20133431 -0.0002007675 -0.06860836
v -0.22577924 -0.0002007675 0.121833935
v 0.19388802 -0.0002007675 -0.07109533
v -0.23513258 -0.0002007675 0.124782614
v 0.212017 -0.0002007675 -0.073541865
v -0.18968423 -0.00020069123 0.055646878
v 0.20588692 -0.0002007675 -0.07642981
v -0.19475672 -0.00020069123 0.053369388
v 0.16665836 -0.0002007675 -0.16294464
v -0.14116514 -0.00020069123 -0.009856643
v 0.16476469 -0.0002007675 -0.15577585
v -0.14271368 -0.00020069123 -0.01682972
v 0.15450159 -0.0002007675 -0.158788
v -0.109233566 -0.00020069123 0.008381099
v 0.15226284 -0.0002007675 -0.15135837
v -0.11046652 -0.00020069123 0.0025084305
v 0.13105516 -0.0002007675 -0.20162408
v -0.07355768 -0.0002007675 -0.026058082
v 0.12959796 -0.0002007675 -0.1949033
v -0.08081491 -0.0002007675 -0.026956635
v 0.028234234 -0.0002007675 -0.15352026
v -0.009472789 -0.0002007675 -0.08200853
v 0.03166418 -0.0002007675 -0.14840291
v -0.016931629 -0.0002007675 -0.08256172
v -0.03863012 -0.0002007675 -0.10734563
v -0.030130405 -0.0002007675 -0.105966315
vt 0.5084365 0.40466523
vt 0.5411981 0.29844758
vt 0.49750665 0.40721655
vt 0.5522171 0.29581144
vt 0.47867402 0.51892424
vt 0.41719648 0.2207307
vt 0.46944764 0.51855147
vt 0.4295776 0.21721318
vt 0.46392393 0.6595477
vt 0.43300396 0.1921575
vt 0.4536547 0.65691847
vt 0.44593012 0.18765488
vt 0.48390383 0.80331725
vt 0.2848938 0.0847022
vt 0.47159478 0.8018803
vt 0.2796765 0.06709619
vt 0.5067855 0.90859526
vt 0.26873657 0.11323321
vt 0.49441606 0.90023696
vt 0.26438403 0.096787006
vt 0.3597412 0.9365059
vt 0.13455617 0.020538822
vt 0.34656575 0.9277229
vt 0.12767868 0.001992032
vt 0.3651021 0.95962626
vt 0.07379875 0.15993297
vt 0.3529167 0.9534358
vt 0.063894294 0.15467179
vt 0.16657281 0.99800795
vt 0.029503878 0.31827027
vt 0.17564806 0.9861208
vt 0.01648095 0.32443252
vt 0.15815046 0.973501
vt 0.098066166 0.34656265
vt 0.16721414 0.96074146
vt 0.08718646 0.3518659
vt 0.060907625 0.9891618
vt 0.08735742 0.44600338
vt 0.0698094 0.9785244
vt 0.076945916 0.4355559
vt 0.010294544 0.76586306
vt 0.07753936 0.61731267
vt 0.022689788 0.7649939
vt 0.06742849 0.60611665
vt 0.0011022299 0.6022234
vt 0.013816978 0.614055
vn 0.035078492 0.9990959 0.024018042
vn 0.014944112 0.9998336 0.01046364
vn 0.03603418 0.99905926 0.024126552
vn 0.016982809 0.9997851 0.011891107
vn 0.017943926 0.9997696 0.011776486
vn -0 1 -9.2602437E-07
vn 0.01471127 0.99984515 0.009653296
vn -0 1 -9.915142E-07
vn -0 1 -3.4764194E-06
vn -0 1 -6.8356456E-07
vn -0 1 -4.970126E-06
vn -0 1 -4.8913387E-07
vn -0 1 0
vn -0 1 0
vn -0 1 0
vn -0 1 0
vn -0 1 0
vn -0 1 -1.084947E-05
vn -0 1 0
vn -0 1 -1.1057225E-05
vn -0 1 1.6603921E-06
vn -0 1 -6.7299034E-06
vn -0 1 1.5907374E-06
vn -0 1 -5.8199475E-06
vn -0 1 1.9475358E-06
vn -0 1 0
vn -0 1 1.4251998E-06
vn -0 1 0
vn -0 1 -1.9061931E-06
vn -0 1 1.695648E-05
vn -0 1 -1.3643548E-06
vn -0 1 1.6956481E-05
vn -0 1 -2.2356166E-06
vn -0 1 1.6956481E-05
vn -0 1 -2.713813E-06
vn -0 1 1.6956483E-05
vn -0 1 7.3581837E-06
vn 1.8114311E-07 1 0
vn -0 1 6.7234914E-06
vn 6.1835954E-07 1 0
vn -0 1 5.2596915E-06
vn -0 1 0
vn -0 1 5.669257E-06
vn -0 1 0
vn -0 1 0
vn -0 1 0
g sector_2D_lines_upper_0
f 3/3/3 2/2/2 1/1/1
f 2/2/2 4/4/4 1/1/1
f 3/3/3 1/1/1 5/5/5
f 2/2/2 6/6/6 4/4/4
f 7/7/7 3/3/3 5/5/5
f 6/6/6 8/8/8 4/4/4
f 7/7/7 5/5/5 9/9/9
f 6/6/6 10/10/10 8/8/8
f 11/11/11 7/7/7 9/9/9
f 10/10/10 12/12/12 8/8/8
f 11/11/11 9/9/9 13/13/13
f 10/10/10 14/14/14 12/12/12
f 15/15/15 11/11/11 13/13/13
f 14/14/14 16/16/16 12/12/12
f 15/15/15 13/13/13 17/17/17
f 14/14/14 18/18/18 16/16/16
f 19/19/19 15/15/15 17/17/17
f 18/18/18 20/20/20 16/16/16
f 19/19/19 17/17/17 21/21/21
f 18/18/18 22/22/22 20/20/20
f 23/23/23 19/19/19 21/21/21
f 22/22/22 24/24/24 20/20/20
f 23/23/23 21/21/21 25/25/25
f 22/22/22 26/26/26 24/24/24
f 27/27/27 23/23/23 25/25/25
f 26/26/26 28/28/28 24/24/24
f 27/27/27 25/25/25 29/29/29
f 26/26/26 30/30/30 28/28/28
f 31/31/31 27/27/27 29/29/29
f 30/30/30 32/32/32 28/28/28
f 31/31/31 29/29/29 33/33/33
f 30/30/30 34/34/34 32/32/32
f 35/35/35 31/31/31 33/33/33
f 34/34/34 36/36/36 32/32/32
f 35/35/35 33/33/33 37/37/37
f 34/34/34 38/38/38 36/36/36
f 39/39/39 35/35/35 37/37/37
f 38/38/38 40/40/40 36/36/36
f 39/39/39 37/37/37 41/41/41
f 38/38/38 42/42/42 40/40/40
f 43/43/43 39/39/39 41/41/41
f 42/42/42 44/44/44 40/40/40
f 43/43/43 41/41/41 45/45/45
f 42/42/42 46/46/46 44/44/44
f 46/46/46 43/43/43 45/45/45
f 46/46/46 45/45/45 44/44/44
