g sector_fill_5LB
v 0.19874942 -3.8146972E-08 0.17613485
v 0.2257297 3.8146972E-08 0.30778536
v -0.038604468 3.8146972E-08 0.31049222
v -0.056902733 -3.8146972E-08 0.207526
v 0.16846195 -3.8146972E-08 0.067676134
v -0.083404504 -3.8146972E-08 0.10366326
v 0.13717228 -3.8146972E-08 -0.02380547
v -0.111420475 -3.8146972E-08 0.027322935
v 0.0948328 -3.8146972E-08 -0.11657975
v -0.14647388 -3.8146972E-08 -0.04319626
v 0.0517992 -3.8146972E-08 -0.19269788
v -0.15977177 -3.8146972E-08 -0.12124158
v -0.18305759 -3.8146972E-08 -0.10966288
v -0.035904884 -3.8146972E-08 -0.31049222
v -0.2257297 -3.8146972E-08 -0.21661939
vt 0.40159124 0.1901211
vt 0.34178868 0.001992032
vt 0.00095456914 0.18804859
vt 0.051321458 0.33317775
vt 0.44052538 0.35088828
vt 0.091813825 0.4853382
vt 0.4660022 0.49060827
vt 0.11063137 0.6032988
vt 0.47823912 0.63990813
vt 0.11625278 0.7188421
vt 0.47764406 0.76835144
vt 0.15516241 0.8284358
vt 0.11700664 0.83028704
vt 0.4496599 0.98225504
vt 0.13898571 0.998008
vn -0 1 0
vn -0 1 0
vn -0 1 0
vn -0 1 0
vn -0 1 -5.4699143E-07
vn -0 1 -5.469914E-07
vn -0 1 2.7384007E-07
vn -0 1 2.7384002E-07
vn -0 1 0
vn -0 1 0
vn -0 1 0
vn -0 1 0
vn -0 1 0
vn -0 1 2.2000341E-07
vn -0 1 2.200034E-07
g sector_fill_5LB_0
f 3/3/3 2/2/2 1/1/1
f 4/4/4 3/3/3 1/1/1
f 1/1/1 5/5/5 4/4/4
f 5/5/5 6/6/6 4/4/4
f 5/5/5 7/7/7 6/6/6
f 7/7/7 8/8/8 6/6/6
f 8/8/8 7/7/7 9/9/9
f 10/10/10 8/8/8 9/9/9
f 10/10/10 9/9/9 11/11/11
f 12/12/12 10/10/10 11/11/11
f 10/10/10 12/12/12 13/13/13
f 11/11/11 14/14/14 12/12/12
f 14/14/14 15/15/15 12/12/12
