g sector_fill_4L
v -0.1379499 -3.8146972E-08 -0.25852352
v -0.11864662 -3.8146972E-08 -0.27831835
v -0.06829163 -3.8146972E-08 -0.24585803
v -0.038049698 -3.8146972E-08 -0.19347854
v -0.020554122 -3.8146972E-08 -0.2150851
v -0.2001603 -3.8146972E-08 -0.039839115
v -0.18911205 -3.8146972E-08 -0.28708667
v -0.31553343 -3.8146972E-08 -0.117551684
v -0.10062279 -3.8146972E-08 0.038158435
v 0.05535095 -3.8146972E-08 -0.12409648
v -0.2208778 -3.8146972E-08 -0.018841328
v -0.1303183 -3.8146972E-08 0.057534732
v 0.13921493 -3.8146972E-08 -0.046055634
v 0.2070504 -3.8146972E-08 0.041607447
v -0.0010293579 -3.8146972E-08 0.14937338
v 0.16073051 -3.8146972E-08 -0.057395823
v 0.23627785 -3.8146972E-08 0.029934205
v 0.30223578 -3.8146972E-08 0.125312
v 0.04950302 -3.8146972E-08 0.22725025
v 0.27894995 -3.8146972E-08 0.13689075
v 0.14383705 -3.8146972E-08 0.25733456
v 0.07986915 3.8146972E-08 0.27970755
v 0.27014336 -3.8146972E-08 0.21807148
v 0.31553343 -3.8146972E-08 0.20335738
v 0.15700264 -3.8146972E-08 0.28708667
v 0.28419295 -3.8146972E-08 0.24929166
vt 0.3167221 0.9197296
vt 0.35525188 0.9207353
vt 0.37399343 0.8393485
vt 0.35327545 0.7576192
vt 0.39176083 0.76219237
vt 0.04194949 0.76175934
vt 0.29338503 0.998008
vt 0.0022560304 0.9515686
vt 0.06554673 0.5870625
vt 0.3791189 0.5974958
vt 0.0008373973 0.76092696
vt 0.01704248 0.5965792
vt 0.3870167 0.43799496
vt 0.36954704 0.28446642
vt 0.05690245 0.3791283
vt 0.41953602 0.42840382
vt 0.410094 0.2677097
vt 0.3832476 0.10830005
vt 0.03166277 0.25219965
vt 0.34872794 0.11937414
vt 0.09664784 0.13042562
vt 0.01099305 0.17027184
vt 0.26099846 0.046840355
vt 0.32064795 0.01740631
vt 0.08087181 0.0879035
vt 0.24467815 0.0019920322
vn -0 1 3.187871E-07
vn -0 1 3.7598013E-06
vn -0 1 -2.236852E-06
vn -0 1 -2.524478E-06
vn -0 1 -2.524478E-06
vn -0 1 0
vn -0 1 0
vn -0 1 0
vn -0 1 -2.2641824E-07
vn -0 1 -2.2641824E-07
vn -0 1 -7.8971823E-07
vn -0 1 -7.897182E-07
vn -0 1 -2.0045384E-06
vn -0 1 0
vn -0 1 8.055858E-07
vn -0 1 -2.0045384E-06
vn -0 1 0
vn -0 1 0
vn -0 1 0
vn -0 1 0
vn -0 1 -1.5646992E-06
vn 5.688376E-07 1 1.5126533E-06
vn -0 1 -1.5646995E-06
vn -0 1 0
vn -0 1 -1.5646993E-06
vn -0 1 -1.5646995E-06
g sector_fill_4L_0
f 3/3/3 2/2/2 1/1/1
f 1/1/1 4/4/4 3/3/3
f 4/4/4 5/5/5 3/3/3
f 4/4/4 1/1/1 6/6/6
f 1/1/1 7/7/7 6/6/6
f 7/7/7 8/8/8 6/6/6
f 4/4/4 6/6/6 9/9/9
f 10/10/10 4/4/4 9/9/9
f 9/9/9 6/6/6 11/11/11
f 12/12/12 9/9/9 11/11/11
f 10/10/10 9/9/9 13/13/13
f 14/14/14 13/13/13 9/9/9
f 15/15/15 14/14/14 9/9/9
f 16/16/16 13/13/13 14/14/14
f 17/17/17 16/16/16 14/14/14
f 18/18/18 17/17/17 14/14/14
f 15/15/15 19/19/19 14/14/14
f 20/20/20 18/18/18 14/14/14
f 19/19/19 20/20/20 14/14/14
f 20/20/20 19/19/19 21/21/21
f 21/21/21 19/19/19 22/22/22
f 23/23/23 20/20/20 21/21/21
f 20/20/20 23/23/23 24/24/24
f 23/23/23 21/21/21 25/25/25
f 26/26/26 23/23/23 25/25/25
