g sector_5D_lines_upper
v -0.14706993 0 0.002465458
v -0.09004402 0 -0.05473563
v -0.08614906 0 -0.051264923
v -0.1428154 0 0.0036209677
v -0.045710143 0 -0.08556367
v -0.24719718 0 0.115679115
v -0.05256935 0 -0.08553416
v -0.23468253 0 0.11209098
v -0.086845316 0 -0.11922749
v -0.057372358 0 0.20955196
v -0.094481505 0 -0.11937989
v -0.059071958 0 0.20113198
v 0.022877045 0 -0.19803035
v 0.018174972 0 0.12222185
v 0.023638763 0 -0.20610614
v 0.01660019 0 0.11386562
v 0.05964012 0 -0.1586963
v 0.039690398 0 0.13356195
v 0.060304563 0 -0.16669899
v 0.03852318 0 0.12635054
v 0.11531456 0 -0.20158161
v 0.123554304 0 0.055521067
v 0.11600891 0 -0.20955196
v 0.11941894 0 0.051887196
v 0.23865509 0 -0.06713796
v 0.21695502 0 -0.013860874
v 0.24719718 0 -0.06624049
v 0.20949699 0 -0.0148027325
v 0.19111137 0 -0.036614142
v 0.19945952 0 -0.0354673
vt 0.14565805 0.28879365
vt 0.11740093 0.44402874
vt 0.12730962 0.44641218
vt 0.15225217 0.29433346
vt 0.11732391 0.54951537
vt 0.21577826 0.0019920322
vt 0.10972948 0.5384756
vt 0.22396292 0.02607145
vt 0.017476207 0.5210113
vt 0.5778953 0.20201613
vt 0.008724269 0.50892746
vt 0.56249046 0.20866941
vt 0.013263896 0.7848732
vt 0.52192545 0.4205384
vt 0.0011534838 0.79509276
vt 0.506762 0.42732096
vt 0.11733954 0.80004436
vt 0.5640927 0.44242972
vt 0.10523807 0.8100263
vt 0.55122036 0.44859087
vt 0.1105489 0.9371617
vt 0.5322945 0.6639484
vt 0.09853269 0.9471556
vt 0.5218561 0.66136104
vt 0.4636994 0.98530066
vt 0.5250159 0.89112365
vt 0.47465616 0.998008
vt 0.5151956 0.8802054
vt 0.45971218 0.8750023
vt 0.4708531 0.8871207
vn -0 1 0
vn -0 1 4.655404E-06
vn -0 1 5.4781185E-06
vn -0 1 0
vn -0 1 0
vn -0 1 0
vn -0 1 0
vn -0 1 0
vn -0 1 -3.04479E-06
vn -0 1 2.5766917E-06
vn -0 1 -3.087857E-06
vn -0 1 2.5680374E-06
vn -0 1 0
vn -0 1 6.563807E-06
vn -0 1 0
vn -0 1 6.6045036E-06
vn -0 1 -4.1240955E-06
vn -0 1 -7.698678E-06
vn -0 1 -4.1302997E-06
vn -0 1 -7.5510206E-06
vn -0 1 6.0721623E-06
vn -0 1 -4.4193202E-06
vn -0 1 6.0748825E-06
vn -0 1 -5.3615345E-06
vn -0 1 8.6876325E-06
vn -0 1 2.0154107E-06
vn -0 1 8.853577E-06
vn -0 1 2.0276566E-06
vn -0 1 3.3968945E-06
vn -0 1 3.2737862E-06
g sector_5D_lines_upper_0
f 3/3/3 2/2/2 1/1/1
f 4/4/4 3/3/3 1/1/1
f 3/3/3 5/5/5 2/2/2
f 4/4/4 1/1/1 6/6/6
f 5/5/5 7/7/7 2/2/2
f 8/8/8 4/4/4 6/6/6
f 5/5/5 9/9/9 7/7/7
f 8/8/8 6/6/6 10/10/10
f 9/9/9 11/11/11 7/7/7
f 12/12/12 8/8/8 10/10/10
f 9/9/9 13/13/13 11/11/11
f 12/12/12 10/10/10 14/14/14
f 13/13/13 15/15/15 11/11/11
f 16/16/16 12/12/12 14/14/14
f 13/13/13 17/17/17 15/15/15
f 16/16/16 14/14/14 18/18/18
f 17/17/17 19/19/19 15/15/15
f 20/20/20 16/16/16 18/18/18
f 17/17/17 21/21/21 19/19/19
f 20/20/20 18/18/18 22/22/22
f 21/21/21 23/23/23 19/19/19
f 24/24/24 20/20/20 22/22/22
f 21/21/21 25/25/25 23/23/23
f 24/24/24 22/22/22 26/26/26
f 25/25/25 27/27/27 23/23/23
f 28/28/28 24/24/24 26/26/26
f 25/25/25 29/29/29 27/27/27
f 28/28/28 26/26/26 30/30/30
f 29/29/29 30/30/30 27/27/27
f 29/29/29 28/28/28 30/30/30
