g sector_3MB_extrude
v 0.13649456 -0.039733313 -0.09833605
v -0.0010796641 0.039631307 -0.10809381
v -0.0011021614 -0.039733313 -0.105778135
v 0.13518654 0.03940792 -0.099111386
v 0.28300717 -0.03973339 -0.07430683
v 0.27652165 0.039331015 -0.07031054
v -0.0011021614 -0.039733313 -0.105778135
v -0.0010796641 0.039631307 -0.10809381
v -0.1376327 0.039726906 -0.09972334
v -0.13869889 -0.039733313 -0.096591145
v -0.277784 0.03971317 -0.0697864
v -0.28300717 -0.03973339 -0.072578795
v 0.17289111 -0.03973339 0.10809381
v 0.1681762 0.03961773 0.10201597
v 0.21981525 0.039466515 -0.07066408
v 0.22373044 -0.03973339 -0.063553825
v 0.0984563 -0.039733313 0.09763394
v 0.1681762 0.03961773 0.10201597
v 0.17289111 -0.03973339 0.10809381
v 0.099381 0.03973339 0.08846707
v -0.0011021614 -0.039733313 0.09138899
v -0.0011021614 0.039716758 0.08204386
v -0.10066063 -0.039733313 0.09763394
v -0.10158532 0.03973339 0.08846707
v -0.17509544 -0.03973339 0.10809381
v -0.1701832 0.03958759 0.101942845
v -0.22638924 -0.03973339 -0.0635538
v -0.22178762 0.039582632 -0.069694415
v -0.1701832 0.03958759 0.101942845
v -0.17509544 -0.03973339 0.10809381
v 0.22373044 -0.03973339 -0.063553825
v 0.21981525 0.039466515 -0.07066408
v 0.26940015 0.039419822 -0.058422208
v 0.2734357 -0.039733313 -0.05068063
v 0.2734357 -0.039733313 -0.05068063
v 0.26940015 0.039419822 -0.058422208
v 0.27652165 0.039331015 -0.07031054
v 0.28300717 -0.03973339 -0.07430683
v -0.28300717 -0.03973339 -0.072578795
v -0.277784 0.03971317 -0.0697864
v -0.27194634 0.03971485 -0.059464306
v -0.27547297 -0.039733313 -0.053239252
v -0.27547297 -0.039733313 -0.053239252
v -0.27194634 0.03971485 -0.059464306
v -0.22178762 0.039582632 -0.069694415
v -0.22638924 -0.03973339 -0.0635538
vt 0.0957704 0.0025464166
vt 0.0013838187 0.9926963
vt 0.0013838187 0.0025464166
vt 0.0957704 0.9926963
vt 0.19740888 0.0025464166
vt 0.19740888 0.9926963
vt 0.99739987 0.0025464166
vt 0.99739987 0.9926963
vt 0.90200454 0.9926963
vt 0.90200454 0.0025464166
vt 0.80092734 0.9926963
vt 0.80092734 0.0025464166
vt 0.3802275 0.0025464166
vt 0.3802275 0.9926963
vt 0.25341812 0.9926963
vt 0.25341812 0.0025464166
vt 0.43071967 0.0025464166
vt 0.3802275 0.9926963
vt 0.3802275 0.0025464166
vt 0.42979956 0.9926963
vt 0.5012692 0.0025464166
vt 0.5010097 0.9926963
vt 0.5722247 0.0025464166
vt 0.5722247 0.9926963
vt 0.6249829 0.0025464166
vt 0.6249829 0.9926963
vt 0.75085026 0.0025464166
vt 0.75085026 0.9926963
vt 0.6249829 0.9926963
vt 0.6249829 0.0025464166
vt 0.25341812 0.0025464166
vt 0.25341812 0.9926963
vt 0.21534064 0.9926963
vt 0.21534064 0.0025464166
vt 0.21534064 0.0025464166
vt 0.21534064 0.9926963
vt 0.19740888 0.9926963
vt 0.19740888 0.0025464166
vt 0.80092734 0.0025464166
vt 0.80092734 0.9926963
vt 0.78632087 0.9926963
vt 0.78632087 0.0025464166
vt 0.78632087 0.0025464166
vt 0.78632087 0.9926963
vt 0.75085026 0.9926963
vt 0.75085026 0.0025464166
vn 0.12297348 0.005995682 -0.9923919
vn -0.0021805011 -0.026444947 -0.999648
vn -0.0021613208 -0.026442653 -0.999648
vn 0.1215831 0.0054435735 -0.99256635
vn 0.18045165 0.028905869 -0.98315907
vn 0.18045166 0.028905872 -0.98315907
vn -0.0021613208 -0.026442653 -0.999648
vn -0.0021805011 -0.026444947 -0.999648
vn -0.12626751 -0.013994121 -0.99189746
vn -0.12767725 -0.01354443 -0.99172336
vn -0.18633154 0.0052740127 -0.9824728
vn -0.18633157 0.005274013 -0.9824728
vn 0.95571285 0.075676985 0.2844047
vn 0.95571285 0.075676985 0.2844047
vn 0.95571285 0.07567698 0.28440472
vn 0.95571285 0.07567699 0.28440472
vn -0.105611436 0.10529404 0.9888171
vn -0.1645702 0.09035443 0.9822183
vn -0.1645702 0.09035443 0.9822183
vn -0.105481334 0.10532648 0.9888276
vn -0 0.11606752 0.9932413
vn -0 0.116067514 0.9932413
vn 0.10544893 0.1054182 0.98882127
vn 0.10531321 0.10545173 0.9888321
vn 0.16427976 0.090629 0.9822416
vn 0.16427976 0.09062899 0.9822416
vn -0.9548662 0.07944253 0.28621587
vn -0.9548662 0.07944253 0.28621587
vn -0.9548662 0.07944253 0.28621587
vn -0.9548662 0.07944254 0.28621587
vn -0.24443418 0.07837404 0.9664934
vn -0.2444342 0.07837404 0.9664934
vn -0.24443418 0.078374036 0.9664934
vn -0.24443418 0.078374036 0.9664934
vn 0.9028553 0.07007943 0.42419484
vn 0.90285516 0.07007942 0.42419487
vn 0.9028553 0.070079416 0.42419484
vn 0.9028553 0.070079416 0.42419484
vn -0.9100585 0.058977447 0.4102624
vn -0.9100585 0.058977447 0.41026238
vn -0.9100585 0.058977447 0.4102624
vn -0.9100585 0.058977447 0.4102624
vn 0.20236228 0.06574322 0.9771015
vn 0.20236228 0.06574322 0.9771015
vn 0.2023623 0.065743215 0.9771015
vn 0.2023623 0.065743215 0.9771015
g sector_3MB_extrude_0
f 3/3/3 2/2/2 1/1/1
f 2/2/2 4/4/4 1/1/1
f 1/1/1 4/4/4 5/5/5
f 4/4/4 6/6/6 5/5/5
f 9/9/9 8/8/8 7/7/7
f 10/10/10 9/9/9 7/7/7
f 11/11/11 9/9/9 10/10/10
f 12/12/12 11/11/11 10/10/10
f 15/15/15 14/14/14 13/13/13
f 16/16/16 15/15/15 13/13/13
f 19/19/19 18/18/18 17/17/17
f 18/18/18 20/20/20 17/17/17
f 17/17/17 20/20/20 21/21/21
f 20/20/20 22/22/22 21/21/21
f 21/21/21 22/22/22 23/23/23
f 22/22/22 24/24/24 23/23/23
f 23/23/23 24/24/24 25/25/25
f 24/24/24 26/26/26 25/25/25
f 29/29/29 28/28/28 27/27/27
f 30/30/30 29/29/29 27/27/27
f 33/33/33 32/32/32 31/31/31
f 34/34/34 33/33/33 31/31/31
f 37/37/37 36/36/36 35/35/35
f 38/38/38 37/37/37 35/35/35
f 41/41/41 40/40/40 39/39/39
f 42/42/42 41/41/41 39/39/39
f 45/45/45 44/44/44 43/43/43
f 46/46/46 45/45/45 43/43/43
