g sector_1M_lines_upper
v -0.13579758 -3.8146972E-08 -0.08241984
v -0.12900768 -3.8146972E-08 -0.078298844
v -0.17880756 -3.8146972E-08 -0.06342692
v -0.18821849 -3.8146972E-08 -0.06676518
v -0.09296891 -3.8146972E-08 -0.09400479
v -0.22457698 -3.8146972E-08 -0.041516867
v -0.08469823 -3.8146972E-08 -0.08930455
v -0.23639682 -3.8146972E-08 -0.04370196
v -0.101820335 -3.8146972E-08 -0.13521859
v -0.101759344 -3.8146972E-08 0.13177367
v -0.09310708 -3.8146972E-08 -0.12845765
v -0.103500985 -3.8146972E-08 0.14032942
v 3.6447595E-15 3.8146972E-08 -0.14032942
v -0.07506739 -3.8146972E-08 0.11940314
v 3.4625212E-15 3.8146972E-08 -0.13331296
v -0.07723831 -3.8146972E-08 0.1273078
v 0.101820335 3.8146972E-08 -0.13521859
v -0.052472215 -3.8146972E-08 0.113346584
v 0.09310708 3.8146972E-08 -0.12845765
v -0.05500652 -3.8146972E-08 0.12093249
v 0.09296891 3.8146972E-08 -0.09400479
v -0.027257293 -3.8146972E-08 0.108438745
v 0.08469823 3.8146972E-08 -0.08930455
v -0.03019712 -3.8146972E-08 0.115766324
v 0.13579758 -3.8146972E-08 -0.08241984
v -0 -3.8146972E-08 0.105810955
v 0.12900768 -3.8146972E-08 -0.078298844
v -0 -3.8146972E-08 0.113000244
v 0.18821849 -3.8146972E-08 -0.06676518
v 0.027257293 -3.8146972E-08 0.108438745
v 0.17880756 -3.8146972E-08 -0.06342692
v 0.03019712 -3.8146972E-08 0.115766324
v 0.23639682 -3.8146972E-08 -0.04370196
v 0.052472215 -3.8146972E-08 0.113346584
v 0.22457698 -3.8146972E-08 -0.041516867
v 0.05500652 -3.8146972E-08 0.12093249
v 0.103500985 -3.8146972E-08 0.14032942
v 0.07506739 -3.8146972E-08 0.11940314
v 0.101759344 -3.8146972E-08 0.13177367
v 0.07723831 -3.8146972E-08 0.1273078
vt 0.47043973 0.78607947
vt 0.46175814 0.7717755
vt 0.43042806 0.87668693
vt 0.43746063 0.89651257
vt 0.49484533 0.695854
vt 0.384271 0.9731076
vt 0.48494345 0.6784305
vt 0.38887423 0.998008
vt 0.58166873 0.71450096
vt 0.019206585 0.71437246
vt 0.5674258 0.6961451
vt 0.0011825062 0.7180415
vt 0.5924356 0.50000006
vt 0.0452671 0.6581416
vt 0.57765424 0.50000006
vt 0.028614655 0.66271496
vt 0.58166873 0.28549913
vt 0.058026213 0.61054116
vt 0.5674258 0.303855
vt 0.042045284 0.61588013
vt 0.49484533 0.30414605
vt 0.068365365 0.5574218
vt 0.48494348 0.32156956
vt 0.05292865 0.56361514
vt 0.47043976 0.21392056
vt 0.07390123 0.5
vt 0.4617582 0.22822453
vt 0.05875583 0.50000006
vt 0.4374607 0.10348744
vt 0.06836537 0.44257814
vt 0.43042812 0.12331309
vt 0.052928656 0.43638492
vt 0.38887432 0.001992032
vt 0.05802622 0.38945886
vt 0.38427106 0.026892427
vt 0.04204529 0.38411993
vt 0.0011825247 0.28195855
vt 0.045267113 0.34185848
vt 0.019206604 0.2856276
vt 0.02861467 0.33728507
vn -0 1 2.1295111E-06
vn -0 1 -9.1659314E-07
vn -0 1 4.889375E-06
vn -0 1 7.4193404E-06
vn -0 1 -1.3589873E-06
vn -0 1 8.444797E-06
vn -0 1 -1.2703842E-06
vn -0 1 8.45207E-06
vn -5.360243E-07 1 0
vn -0 1 8.123398E-06
vn -5.328091E-07 1 0
vn -0 1 8.07237E-06
vn -3.79138E-07 1 1.1007511E-06
vn -0 1 -2.341754E-06
vn -3.7913796E-07 1 1.100751E-06
vn -0 1 2.0054363E-06
vn -0 1 1.5562397E-06
vn -0 1 1.2577422E-06
vn -0 1 1.5469043E-06
vn -0 1 -2.4280953E-06
vn 5.993986E-07 1 -2.0384798E-06
vn -0 1 2.6083196E-06
vn 5.603191E-07 1 -1.9055753E-06
vn -0 1 3.457454E-06
vn 2.8706665E-07 1 -9.762779E-07
vn -0 1 9.3245944E-07
vn 8.653707E-07 1 -2.9430178E-06
vn -0 1 9.324595E-07
vn -0 1 3.3708282E-06
vn -0 1 -6.4330334E-07
vn -0 1 1.113386E-06
vn -0 1 -1.3781041E-06
vn -0 1 4.126838E-06
vn -0 1 -2.9943333E-06
vn -0 1 4.127472E-06
vn -0 1 -3.9110273E-06
vn -0 1 4.218709E-06
vn -0 1 -1.5431136E-06
vn -0 1 4.2069714E-06
vn -0 1 2.327248E-06
g sector_1M_lines_upper_0
f 3/3/3 2/2/2 1/1/1
f 4/4/4 3/3/3 1/1/1
f 1/1/1 2/2/2 5/5/5
f 6/6/6 3/3/3 4/4/4
f 2/2/2 7/7/7 5/5/5
f 8/8/8 6/6/6 4/4/4
f 5/5/5 7/7/7 9/9/9
f 10/10/10 6/6/6 8/8/8
f 7/7/7 11/11/11 9/9/9
f 12/12/12 10/10/10 8/8/8
f 9/9/9 11/11/11 13/13/13
f 14/14/14 10/10/10 12/12/12
f 11/11/11 15/15/15 13/13/13
f 16/16/16 14/14/14 12/12/12
f 13/13/13 15/15/15 17/17/17
f 18/18/18 14/14/14 16/16/16
f 15/15/15 19/19/19 17/17/17
f 20/20/20 18/18/18 16/16/16
f 17/17/17 19/19/19 21/21/21
f 22/22/22 18/18/18 20/20/20
f 19/19/19 23/23/23 21/21/21
f 24/24/24 22/22/22 20/20/20
f 21/21/21 23/23/23 25/25/25
f 26/26/26 22/22/22 24/24/24
f 23/23/23 27/27/27 25/25/25
f 28/28/28 26/26/26 24/24/24
f 25/25/25 27/27/27 29/29/29
f 30/30/30 26/26/26 28/28/28
f 27/27/27 31/31/31 29/29/29
f 32/32/32 30/30/30 28/28/28
f 29/29/29 31/31/31 33/33/33
f 34/34/34 30/30/30 32/32/32
f 31/31/31 35/35/35 33/33/33
f 36/36/36 34/34/34 32/32/32
f 33/33/33 35/35/35 37/37/37
f 38/38/38 34/34/34 36/36/36
f 35/35/35 39/39/39 37/37/37
f 40/40/40 38/38/38 36/36/36
f 37/37/37 39/39/39 40/40/40
f 39/39/39 38/38/38 40/40/40
