g sector_3L_extrude
v -0.2146848 -0.03999996 -0.09946433
v -0.21468455 0.040000036 -0.099464595
v -0.19392179 0.040000036 -0.077120885
v -0.19392233 -0.03999996 -0.077121094
v -0.19392233 -0.03999996 -0.077121094
v -0.19392179 0.040000036 -0.077120885
v -0.16125639 0.040000036 -0.09597504
v -0.16125669 -0.03999996 -0.09597554
v -0.18945189 -0.03999996 -0.11700074
v -0.21468455 0.040000036 -0.099464595
v -0.2146848 -0.03999996 -0.09946433
v -0.18945189 0.040000036 -0.11700074
v -0.031104984 -0.040000036 -0.23450297
v -0.031104984 0.03999996 -0.23450297
v -0.0036454962 -0.040000036 -0.254454
v -0.003645649 0.03999996 -0.25445387
v 0.14072065 -0.040000036 -0.070883356
v 0.14072065 0.03999996 -0.070883356
v 0.09148138 0.03999996 -0.1455604
v 0.09148153 -0.040000036 -0.14556053
v -0.003645649 0.03999996 -0.25445387
v -0.0036454962 -0.040000036 -0.254454
v -0.16125669 -0.03999996 -0.09597554
v -0.16125639 0.040000036 -0.09597504
v -0.105674915 0.03999996 -0.024223108
v -0.10567495 -0.040000036 -0.024223108
v -0.06475115 0.03999996 0.048065823
v -0.06475115 -0.040000036 0.048065823
v -0.03005144 0.03999996 0.12843981
v -0.03005144 -0.040000036 0.12843981
v -0.0132628055 0.03999996 0.20087337
v -0.0132628055 -0.040000036 0.20087337
v -0.0070858193 0.03999996 0.2544533
v -0.0070858193 -0.040000036 0.254454
v -0.0070858193 -0.040000036 0.254454
v -0.0070858193 0.03999996 0.2544533
v 0.15777159 0.03999996 0.2519857
v 0.15777159 -0.040000036 0.25198638
v 0.15777159 -0.040000036 0.25198638
v 0.15777159 0.03999996 0.2519857
v 0.14664076 0.03999996 0.18555602
v 0.14664076 -0.040000036 0.18555602
v 0.12940305 0.03999996 0.102517195
v 0.12940305 -0.040000036 0.102517195
v 0.17004819 -0.040000036 -0.01563428
v 0.14072065 0.03999996 -0.070883356
v 0.14072065 -0.040000036 -0.070883356
v 0.17004819 0.03999996 -0.01563428
v 0.2146848 -0.040000036 0.08588465
v 0.2146848 0.03999996 0.08588465
v 0.12940305 -0.040000036 0.102517195
v 0.12940305 0.03999996 0.102517195
v 0.2146848 0.03999996 0.08588465
v 0.2146848 -0.040000036 0.08588465
vt 0.32396245 0.0025464166
vt 0.32396275 0.9926963
vt 0.34380394 0.9926963
vt 0.34380323 0.0025464166
vt 0.34380323 0.0025464166
vt 0.34380394 0.9926963
vt 0.3683383 0.9926963
vt 0.3683378 0.0025464166
vt 0.3039737 0.0025464166
vt 0.32396275 0.9926963
vt 0.32396245 0.0025464166
vt 0.3039743 0.9926963
vt 0.17570719 0.0025464166
vt 0.17570779 0.9926963
vt 0.15362784 0.0025464166
vt 0.15362862 0.9926963
vt 0.0013838187 0.0025464166
vt 0.0013838187 0.9926963
vt 0.059571303 0.9926963
vt 0.05957059 0.0025464166
vt 0.15362862 0.9926963
vt 0.15362784 0.0025464166
vt 0.3683378 0.0025464166
vt 0.3683383 0.9926963
vt 0.4273786 0.9926963
vt 0.42737848 0.0025464166
vt 0.4814149 0.9926963
vt 0.4814148 0.0025464166
vt 0.5383627 0.9926963
vt 0.53836256 0.0025464166
vt 0.58672976 0.9926963
vt 0.58672965 0.0025464166
vt 0.62181437 0.9926963
vt 0.6218147 0.0025464166
vt 0.6218147 0.0025464166
vt 0.62181437 0.9926963
vt 0.7290661 0.9926963
vt 0.72906643 0.0025464166
vt 0.72906643 0.0025464166
vt 0.7290661 0.9926963
vt 0.772881 0.9926963
vt 0.7728818 0.0025464166
vt 0.82804936 0.9926963
vt 0.8280502 0.0025464166
vt 0.95671076 0.0025464166
vt 0.99739987 0.9926963
vt 0.99739987 0.0025464166
vt 0.9567099 0.9926963
vt 0.88457114 0.0025464166
vt 0.8845703 0.9926963
vt 0.8280502 0.0025464166
vt 0.82804936 0.9926963
vt 0.8845703 0.9926963
vt 0.88457114 0.0025464166
vn -0.732547 4.110698E-06 0.68071645
vn -0.73254704 4.110698E-06 0.68071645
vn -0.73254704 4.110697E-06 0.68071645
vn -0.73254704 4.110697E-06 0.6807164
vn 0.49989846 -6.568483E-06 0.8660841
vn 0.49989837 -6.568483E-06 0.8660841
vn 0.49989843 -6.568482E-06 0.8660841
vn 0.49989843 -6.568483E-06 0.8660841
vn -0.5925427 0 -0.805539
vn -0.57069224 -3.1035924E-07 -0.82116395
vn -0.5706922 -3.1035924E-07 -0.82116395
vn -0.5925427 0 -0.80553895
vn -0.5947215 0 -0.80393183
vn -0.5947215 0 -0.80393183
vn -0.5877951 5.049008E-07 -0.80900985
vn -0.58779514 5.049008E-07 -0.8090098
vn 0.8557124 1.5074486E-06 -0.51745164
vn 0.8557124 1.5074486E-06 -0.51745164
vn 0.7860432 2.2666243E-06 -0.6181714
vn 0.7860432 2.2666245E-06 -0.61817145
vn 0.75310695 2.0779805E-06 -0.6578982
vn 0.75310695 2.0779805E-06 -0.6578982
vn -0.7905555 -3.424605E-07 0.61239034
vn -0.7905555 -3.424605E-07 0.61239034
vn -0.8307757 -1.7927123E-07 0.5566073
vn -0.8307757 -1.7927121E-07 0.55660725
vn -0.89608324 0 0.44388598
vn -0.89608324 0 0.44388598
vn -0.94765043 0 0.31930986
vn -0.94765043 0 0.31930986
vn -0.98379564 0 0.17929365
vn -0.98379564 0 0.17929365
vn -0.9934202 0 0.11452613
vn -0.9934202 0 0.11452614
vn 0.014966487 8.585605E-06 0.99988806
vn 0.014966486 8.585606E-06 0.99988806
vn 0.014966487 8.585605E-06 0.99988806
vn 0.014966486 8.585606E-06 0.99988806
vn 0.9862511 -8.0555225E-07 -0.1652535
vn 0.9862511 -8.0555225E-07 -0.16525349
vn 0.9824613 -3.5664436E-07 -0.18646683
vn 0.9824613 -3.5664436E-07 -0.18646683
vn 0.9791262 0 -0.20325293
vn 0.9791262 0 -0.20325293
vn 0.9043938 0 -0.42669865
vn 0.8557124 1.5074486E-06 -0.51745164
vn 0.8557124 1.5074486E-06 -0.51745164
vn 0.9043938 0 -0.42669865
vn 0.9154204 0 -0.40249896
vn 0.9154204 0 -0.40249896
vn 0.19142382 0 0.9815075
vn 0.19142382 0 0.9815075
vn 0.19142382 0 0.9815075
vn 0.19142382 0 0.9815075
g sector_3L_extrude_0
f 3/3/3 2/2/2 1/1/1
f 4/4/4 3/3/3 1/1/1
f 7/7/7 6/6/6 5/5/5
f 8/8/8 7/7/7 5/5/5
f 11/11/11 10/10/10 9/9/9
f 10/10/10 12/12/12 9/9/9
f 9/9/9 12/12/12 13/13/13
f 12/12/12 14/14/14 13/13/13
f 13/13/13 14/14/14 15/15/15
f 14/14/14 16/16/16 15/15/15
f 19/19/19 18/18/18 17/17/17
f 20/20/20 19/19/19 17/17/17
f 21/21/21 19/19/19 20/20/20
f 22/22/22 21/21/21 20/20/20
f 25/25/25 24/24/24 23/23/23
f 26/26/26 25/25/25 23/23/23
f 27/27/27 25/25/25 26/26/26
f 28/28/28 27/27/27 26/26/26
f 29/29/29 27/27/27 28/28/28
f 30/30/30 29/29/29 28/28/28
f 31/31/31 29/29/29 30/30/30
f 32/32/32 31/31/31 30/30/30
f 33/33/33 31/31/31 32/32/32
f 34/34/34 33/33/33 32/32/32
f 37/37/37 36/36/36 35/35/35
f 38/38/38 37/37/37 35/35/35
f 41/41/41 40/40/40 39/39/39
f 42/42/42 41/41/41 39/39/39
f 43/43/43 41/41/41 42/42/42
f 44/44/44 43/43/43 42/42/42
f 47/47/47 46/46/46 45/45/45
f 46/46/46 48/48/48 45/45/45
f 45/45/45 48/48/48 49/49/49
f 48/48/48 50/50/50 49/49/49
f 53/53/53 52/52/52 51/51/51
f 54/54/54 53/53/53 51/51/51
