g sector_fill_4DB
v 0.17750973 0 0.013322687
v 0.16735096 0 0.084930845
v 0.07654201 0 0.086991355
v 0.0903635 7.6293944E-08 0.0054734517
v 0.19502063 0 -0.06495307
v 0.10992374 7.6293944E-08 -0.0821942
v 0.042389717 -7.6293944E-08 -0.09130389
v 0.024147987 -7.6293944E-08 0.0028213977
v -0.11208927 -7.6293944E-08 -0.006886244
v 0.07459225 0 -0.18262969
v 0.15172565 7.6293944E-08 -0.1900088
v 0.08775783 0 -0.2123819
v -0.088408925 -7.6293944E-08 -0.11259482
v -0.052598074 0 -0.2204246
v 0.01204441 -7.6293944E-08 0.087072685
v -0.11899196 0 -0.19583972
v -0.03854847 0 -0.25164482
v -0.08393856 0 -0.2663589
v -0.14700794 0 -0.119499385
v -0.1735097 0 -0.015636588
v -0.1918079 0 0.08732972
v 0.008777961 -7.6293944E-08 0.17176594
v 0.073258474 0 0.16653034
v 0.078253366 0 0.23029406
v 0.013275413 0 0.2389622
v -0.13004817 -7.6293944E-08 0.087251864
v -0.13327724 -7.6293944E-08 0.18330012
v -0.12987599 0 0.25805873
v -0.19502063 0 0.18831341
v -0.19209576 0 0.2663589
vt 0.63882136 0.62138075
vt 0.65369385 0.48950908
vt 0.493332 0.44410464
vt 0.48041037 0.59526306
vt 0.633944 0.76847625
vt 0.47485584 0.7599835
vt 0.35070384 0.7451204
vt 0.36156893 0.56953484
vt 0.11510057 0.52415144
vt 0.36592478 0.9221511
vt 0.49954897 0.970717
vt 0.37563467 0.98105365
vt 0.10857141 0.72281325
vt 0.12261544 0.9308193
vt 0.37879866 0.41431084
vt 0.015977709 0.8566268
vt 0.13322058 0.9927361
vt 0.045827672 0.99800795
vt 0.0013047782 0.70814025
vt 0.0019734812 0.51146054
vt 0.016802622 0.320144
vt 0.41192952 0.26236358
vt 0.52406305 0.3013053
vt 0.5622477 0.19033453
vt 0.45080835 0.1450668
vt 0.12647404 0.34867293
vt 0.16489102 0.17657284
vt 0.20529914 0.045338526
vt 0.057517428 0.13928415
vt 0.09859032 0.0019920322
vn 8.579678E-07 1 0
vn 4.1042725E-07 1 0
vn 4.1042728E-07 1 0
vn 8.5796773E-07 1 0
vn 8.5796785E-07 1 0
vn 8.579677E-07 1 0
vn -1.5796857E-06 1 0
vn -5.7372307E-07 1 0
vn 3.7633282E-07 1 2.291169E-07
vn -1.0328387E-06 1 6.9429404E-07
vn -1.0328387E-06 1 6.9429404E-07
vn -1.0328386E-06 1 6.94294E-07
vn 7.0346954E-07 1 -5.5761603E-07
vn -0 1 2.8028225E-07
vn -3.585424E-07 1 1.5281998E-07
vn -0 1 2.8028225E-07
vn -0 1 2.8028228E-07
vn -0 1 2.8028225E-07
vn 7.034695E-07 1 -5.57616E-07
vn 1.2228992E-06 1 7.4451884E-07
vn 1.2371665E-06 1 0
vn -2.740195E-07 1 8.400437E-07
vn -6.4686554E-07 1 0
vn -6.4686554E-07 1 0
vn -2.628878E-07 1 8.6512415E-07
vn 3.8588635E-07 1 0
vn -0 1 8.1644686E-07
vn 1.16449776E-07 1 7.7392366E-07
vn 5.593452E-07 1 0
vn 5.5934515E-07 1 0
g sector_fill_4DB_0
f 3/3/3 2/2/2 1/1/1
f 4/4/4 3/3/3 1/1/1
f 1/1/1 5/5/5 4/4/4
f 5/5/5 6/6/6 4/4/4
f 4/4/4 6/6/6 7/7/7
f 3/3/3 4/4/4 8/8/8
f 8/8/8 4/4/4 7/7/7
f 8/8/8 7/7/7 9/9/9
f 7/7/7 6/6/6 10/10/10
f 6/6/6 11/11/11 10/10/10
f 11/11/11 12/12/12 10/10/10
f 7/7/7 10/10/10 13/13/13
f 7/7/7 13/13/13 9/9/9
f 10/10/10 14/14/14 13/13/13
f 15/15/15 3/3/3 8/8/8
f 15/15/15 8/8/8 9/9/9
f 14/14/14 16/16/16 13/13/13
f 16/16/16 14/14/14 17/17/17
f 18/18/18 16/16/16 17/17/17
f 16/16/16 19/19/19 13/13/13
f 13/13/13 19/19/19 9/9/9
f 19/19/19 20/20/20 9/9/9
f 9/9/9 20/20/20 21/21/21
f 15/15/15 22/22/22 3/3/3
f 22/22/22 23/23/23 3/3/3
f 24/24/24 23/23/23 22/22/22
f 25/25/25 24/24/24 22/22/22
f 26/26/26 15/15/15 9/9/9
f 26/26/26 9/9/9 21/21/21
f 15/15/15 26/26/26 22/22/22
f 25/25/25 22/22/22 27/27/27
f 26/26/26 27/27/27 22/22/22
f 26/26/26 21/21/21 27/27/27
f 28/28/28 25/25/25 27/27/27
f 21/21/21 29/29/29 27/27/27
f 28/28/28 27/27/27 30/30/30
f 27/27/27 29/29/29 30/30/30
