g sector_3MB_lines_upper
v 0.22866191 0.00040023803 -0.058267906
v 0.17765284 0.00040023803 0.11424249
v 0.17399327 -0.00040023803 0.10642622
v 0.22483261 -0.00040023803 -0.06522142
v 0.17765284 0.00040023803 0.11424249
v 0.099558465 -0.00040016172 0.09596634
v 0.17399327 -0.00040023803 0.10642622
v 0.09884913 0.00040023803 0.10273437
v 9.5967824E-11 -0.00040016172 0.08972139
v -0 0.00040023803 0.09651814
v -0.099558465 -0.00040016172 0.09596634
v -0.09884913 0.00040023803 0.10273437
v -0.17399327 -0.00040023803 0.10642622
v -0.17765284 0.00040023803 0.11424249
v -0.17765284 0.00040023803 0.11424249
v -0.22866191 0.00040023803 -0.058267888
v -0.2252871 -0.00040023803 -0.06522141
v -0.17399327 -0.00040023803 0.10642622
v 0.27738842 0.00040023803 -0.04615299
v 0.22866191 0.00040023803 -0.058267906
v 0.22483261 -0.00040023803 -0.06522142
v 0.2745379 -0.00040016172 -0.05234823
v 0.2918802 0.00040023803 -0.07973021
v 0.27738842 0.00040023803 -0.04615299
v 0.2745379 -0.00040016172 -0.05234823
v 0.28410932 -0.00040023803 -0.075974435
v 0.13837542 0.00040023803 -0.10502383
v 0.2918802 0.00040023803 -0.07973021
v 0.28410932 -0.00040023803 -0.075974435
v 0.13759673 -0.00040016172 -0.10000364
v -0 0.00040023803 -0.11424249
v 1.0161811E-10 -0.00040016172 -0.10744575
v -0.13837542 0.00040023803 -0.10502381
v -0.13759673 -0.00040016172 -0.09825875
v -0.2918802 0.00040023803 -0.07973018
v -0.28190503 -0.00040023803 -0.07424639
v -0.27738842 0.00040023803 -0.046152964
v -0.2918802 0.00040023803 -0.07973018
v -0.28190503 -0.00040023803 -0.07424639
v -0.27437082 -0.00040016172 -0.054906853
v -0.22866191 0.00040023803 -0.058267888
v -0.27738842 0.00040023803 -0.046152964
v -0.27437082 -0.00040016172 -0.054906853
v -0.2252871 -0.00040023803 -0.06522141
vt 0.2950667 0.10981144
vt 0.0007798753 0.19694224
vt 0.014164843 0.2032537
vt 0.3069879 0.11641425
vt 0.0007798753 0.19694224
vt 0.032019492 0.33022627
vt 0.014164843 0.2032537
vt 0.020392034 0.33144742
vt 0.042703427 0.5000581
vt 0.031028444 0.50006026
vt 0.032080486 0.6698935
vt 0.020452606 0.6686765
vt 0.014271689 0.79687285
vt 0.00088883546 0.8031889
vt 0.00088883546 0.8031889
vt 0.2952085 0.8902203
vt 0.30712515 0.8843792
vt 0.014271689 0.79687285
vt 0.27439672 0.026617104
vt 0.2950667 0.10981144
vt 0.3069879 0.11641425
vt 0.2850588 0.03153815
vt 0.3318437 0.0019920322
vt 0.27439672 0.026617104
vt 0.2850588 0.03153815
vt 0.3253412 0.015286711
vt 0.37501183 0.2639063
vt 0.3318437 0.0019920322
vt 0.3253412 0.015286711
vt 0.36634067 0.26524535
vt 0.39071757 0.49999607
vt 0.37904254 0.49999756
vt 0.37506756 0.7360853
vt 0.3634462 0.7347532
vt 0.33199027 0.9980081
vt 0.32256195 0.9809665
vt 0.2745896 0.9733876
vt 0.33199027 0.9980081
vt 0.32256195 0.9809665
vt 0.289585 0.96817535
vt 0.2952085 0.8902203
vt 0.2745896 0.9733876
vt 0.289585 0.96817535
vt 0.30712515 0.8843792
vn -0.13367191 0.99023587 -0.039556958
vn -0.1336719 0.99023587 -0.039556958
vn -0.13367191 0.99023587 -0.039556958
vn -0.1336719 0.99023587 -0.03955695
vn 0.016101833 0.9935436 -0.11230271
vn 0.011250761 0.9933248 -0.1148008
vn 0.016101832 0.9935436 -0.112302706
vn 0.011240119 0.99332434 -0.11480625
vn -0 0.99315345 -0.11681682
vn -0 0.99315345 -0.11681683
vn -0.011250761 0.9933248 -0.11480079
vn -0.011240121 0.99332434 -0.114806265
vn -0.016101832 0.9935436 -0.112302706
vn -0.016101833 0.9935436 -0.11230271
vn 0.13865586 0.98948276 -0.041213088
vn 0.13865587 0.98948276 -0.04121309
vn 0.13865587 0.98948276 -0.041213084
vn 0.13865587 0.98948276 -0.041213084
vn 0.035120137 0.989762 -0.13833918
vn 0.035120137 0.989762 -0.13833919
vn 0.03512014 0.989762 -0.13833919
vn 0.03512014 0.989762 -0.13833919
vn -0.13593915 0.98906577 -0.057179965
vn -0.13593914 0.98906577 -0.05717996
vn -0.13593915 0.98906577 -0.057179976
vn -0.13593915 0.98906577 -0.057179976
vn -0.016734395 0.98937523 0.14441836
vn -0.02552702 0.9875448 0.15525387
vn -0.025527019 0.9875448 0.15525386
vn -0.016272351 0.98946595 0.14384827
vn 0.0003941721 0.99219584 0.12468807
vn 0.00042453757 0.99219996 0.12465565
vn 0.013567287 0.9932759 0.11497415
vn 0.013572354 0.993276 0.114972554
vn 0.018766727 0.99337876 0.11334167
vn 0.018766727 0.99337876 0.11334167
vn 0.11072288 0.99278224 -0.04608613
vn 0.110722855 0.99278224 -0.046086118
vn 0.110722885 0.99278224 -0.046086125
vn 0.11072288 0.99278224 -0.04608613
vn -0.02560666 0.99341667 -0.11165857
vn -0.02560666 0.99341667 -0.11165859
vn -0.025606658 0.99341667 -0.11165856
vn -0.025606662 0.99341667 -0.11165857
g sector_3MB_lines_upper_0
f 3/3/3 2/2/2 1/1/1
f 4/4/4 3/3/3 1/1/1
f 7/7/7 6/6/6 5/5/5
f 6/6/6 8/8/8 5/5/5
f 6/6/6 9/9/9 8/8/8
f 9/9/9 10/10/10 8/8/8
f 9/9/9 11/11/11 10/10/10
f 11/11/11 12/12/12 10/10/10
f 11/11/11 13/13/13 12/12/12
f 13/13/13 14/14/14 12/12/12
f 17/17/17 16/16/16 15/15/15
f 18/18/18 17/17/17 15/15/15
f 21/21/21 20/20/20 19/19/19
f 22/22/22 21/21/21 19/19/19
f 25/25/25 24/24/24 23/23/23
f 26/26/26 25/25/25 23/23/23
f 29/29/29 28/28/28 27/27/27
f 30/30/30 29/29/29 27/27/27
f 30/30/30 27/27/27 31/31/31
f 32/32/32 30/30/30 31/31/31
f 32/32/32 31/31/31 33/33/33
f 34/34/34 32/32/32 33/33/33
f 34/34/34 33/33/33 35/35/35
f 36/36/36 34/34/34 35/35/35
f 39/39/39 38/38/38 37/37/37
f 40/40/40 39/39/39 37/37/37
f 43/43/43 42/42/42 41/41/41
f 44/44/44 43/43/43 41/41/41
