g sector_2L_lines_upper
v -0.00903471 -3.8146972E-08 0.20162414
v -0.03181669 -3.8146972E-08 0.14847377
v -0.0053323936 -3.8146972E-08 0.19152656
v -0.038321245 -3.8146972E-08 0.15136394
v 0.059041653 -3.8146972E-08 0.17751823
v -0.06883547 -3.8146972E-08 0.10064627
v 0.06312868 -3.8146972E-08 0.168185
v -0.07401766 -3.8146972E-08 0.104970425
v 0.065640315 -3.8146972E-08 0.19291134
v -0.11966623 -3.8146972E-08 0.052223768
v 0.070108965 -3.8146972E-08 0.18345515
v -0.124588296 -3.8146972E-08 0.056422565
v 0.1634102 -3.8146972E-08 0.16449009
v -0.18333538 -3.8146972E-08 0.015576772
v 0.15512785 -3.8146972E-08 0.16072555
v -0.18695423 -3.8146972E-08 0.020515336
v 0.1564372 -3.8146972E-08 0.14947166
v -0.2259014 -3.8146972E-08 -0.005665712
v 0.14801379 -3.8146972E-08 0.14574973
v -0.23513258 -3.8146972E-08 -0.0025479794
v 0.23513258 -3.8146972E-08 0.124782585
v -0.19219051 -3.8146972E-08 -0.0717672
v 0.22696401 -3.8146972E-08 0.12155677
v -0.20133431 -3.8146972E-08 -0.06860839
v 0.19475672 3.8146972E-08 0.05336936
v -0.20286243 -3.8146972E-08 -0.07672183
v 0.18737371 3.8146972E-08 0.056235075
v -0.212017 -3.8146972E-08 -0.073541895
v 0.14271368 3.8146972E-08 -0.016829748
v -0.16269046 -3.8146972E-08 -0.15317836
v 0.14069556 3.8146972E-08 -0.0066829394
v -0.16665836 -3.8146972E-08 -0.16294467
v 0.11046652 3.8146972E-08 0.0025084019
v -0.15063559 -3.8146972E-08 -0.1488284
v 0.1091358 3.8146972E-08 0.013449716
v -0.15450159 -3.8146972E-08 -0.15878803
v 0.08081491 -3.8146972E-08 -0.026956663
v -0.127889 -3.8146972E-08 -0.19194691
v 0.073753186 -3.8146972E-08 -0.021478415
v -0.13105516 -3.8146972E-08 -0.20162414
v 0.016931629 3.8146972E-08 -0.082561746
v -0.031442087 3.8146972E-08 -0.14782864
v 0.007093639 3.8146972E-08 -0.08189444
v -0.028234234 3.8146972E-08 -0.15352029
v 0.03863012 3.8146972E-08 -0.10734566
v 0.029408703 3.8146972E-08 -0.106199555
vt 0.0011029444 0.2963417
vt 0.057696894 0.39832187
vt 0.021775117 0.30291304
vt 0.045053758 0.40512168
vt 0.12363254 0.21758679
vt 0.08821727 0.5164241
vt 0.14356136 0.2226006
vt 0.074921526 0.5193442
vt 0.107242964 0.1880508
vt 0.102623776 0.6572819
vt 0.12783924 0.19260806
vt 0.0898492 0.65994215
vt 0.27333415 0.06728648
vt 0.08239679 0.804061
vt 0.2691044 0.08514152
vt 0.070052736 0.8037297
vt 0.28866392 0.096956424
vt 0.06368004 0.8981656
vt 0.28419197 0.11498371
vt 0.04730577 0.90903133
vt 0.42524138 0.001992032
vt 0.21070993 0.9260784
vt 0.4202933 0.019000147
vt 0.19437812 0.9367541
vt 0.48921728 0.15458296
vt 0.20542562 0.9492132
vt 0.47552797 0.16281353
vt 0.18904684 0.95988005
vt 0.53684455 0.32427493
vt 0.37694618 0.97961724
vt 0.5181744 0.31495765
vt 0.38761488 0.99800795
vt 0.46617752 0.35179728
vt 0.38490295 0.9550244
vt 0.44708997 0.3404026
vt 0.39600572 0.97349155
vt 0.47652373 0.4354702
vt 0.4817465 0.97202575
vt 0.45906612 0.43996117
vt 0.49326357 0.98902816
vt 0.48625708 0.60601044
vt 0.53055376 0.7637595
vt 0.4730399 0.62087077
vt 0.5435908 0.7656763
vt 0.55257505 0.6020332
vt 0.53935623 0.6153191
vn -0 1 6.164829E-06
vn -0 1 0
vn -0 1 6.1789337E-06
vn -0 1 0
vn -0 1 8.7164E-06
vn -0 1 0
vn -0 1 8.69308E-06
vn -0 1 0
vn -0 1 7.802113E-06
vn -0 1 0
vn -0 1 7.803317E-06
vn -0 1 0
vn -0 1 7.610901E-06
vn -0 1 -3.5639432E-06
vn -0 1 7.6188085E-06
vn -0 1 -4.4015574E-06
vn -0 1 -6.628628E-07
vn -0 1 -3.679007E-06
vn -0 1 -6.6120725E-07
vn -0 1 -3.6933388E-06
vn -0 1 0
vn -0 1 0
vn -0 1 0
vn -0 1 0
vn -0 1 -2.3045436E-06
vn -0 1 -3.997121E-06
vn -0 1 -2.95662E-06
vn -0 1 -3.994302E-06
vn -0 1 -3.2557111E-06
vn -0 1 -3.8673925E-06
vn -0 1 -3.242972E-06
vn -0 1 -3.874299E-06
vn -8.8793473E-07 1 0
vn -0 1 0
vn -9.0107716E-07 1 0
vn -0 1 0
vn -4.541208E-07 1 0
vn -5.1052393E-07 1 0
vn -2.757323E-07 1 0
vn -5.122664E-07 1 0
vn 2.5913093E-07 1 1.6866292E-06
vn -4.658508E-07 1 0
vn 2.625048E-07 1 1.6157294E-06
vn -4.680257E-07 1 0
vn -0 1 2.1640496E-06
vn -0 1 2.1760072E-06
g sector_2L_lines_upper_0
f 3/3/3 2/2/2 1/1/1
f 2/2/2 4/4/4 1/1/1
f 3/3/3 1/1/1 5/5/5
f 2/2/2 6/6/6 4/4/4
f 7/7/7 3/3/3 5/5/5
f 6/6/6 8/8/8 4/4/4
f 7/7/7 5/5/5 9/9/9
f 6/6/6 10/10/10 8/8/8
f 11/11/11 7/7/7 9/9/9
f 10/10/10 12/12/12 8/8/8
f 11/11/11 9/9/9 13/13/13
f 10/10/10 14/14/14 12/12/12
f 15/15/15 11/11/11 13/13/13
f 14/14/14 16/16/16 12/12/12
f 15/15/15 13/13/13 17/17/17
f 14/14/14 18/18/18 16/16/16
f 19/19/19 15/15/15 17/17/17
f 18/18/18 20/20/20 16/16/16
f 19/19/19 17/17/17 21/21/21
f 18/18/18 22/22/22 20/20/20
f 23/23/23 19/19/19 21/21/21
f 22/22/22 24/24/24 20/20/20
f 23/23/23 21/21/21 25/25/25
f 22/22/22 26/26/26 24/24/24
f 27/27/27 23/23/23 25/25/25
f 26/26/26 28/28/28 24/24/24
f 27/27/27 25/25/25 29/29/29
f 26/26/26 30/30/30 28/28/28
f 31/31/31 27/27/27 29/29/29
f 30/30/30 32/32/32 28/28/28
f 31/31/31 29/29/29 33/33/33
f 30/30/30 34/34/34 32/32/32
f 35/35/35 31/31/31 33/33/33
f 34/34/34 36/36/36 32/32/32
f 35/35/35 33/33/33 37/37/37
f 34/34/34 38/38/38 36/36/36
f 39/39/39 35/35/35 37/37/37
f 38/38/38 40/40/40 36/36/36
f 39/39/39 37/37/37 41/41/41
f 38/38/38 42/42/42 40/40/40
f 43/43/43 39/39/39 41/41/41
f 42/42/42 44/44/44 40/40/40
f 43/43/43 41/41/41 45/45/45
f 42/42/42 46/46/46 44/44/44
f 46/46/46 45/45/45 44/44/44
f 46/46/46 43/43/43 45/45/45
