g sector_5DB_extrude
v -0.1826728 -0.04 0.17843498
v -0.21701561 0.04 0.30028126
v -0.21701561 -0.04 0.30028126
v -0.1826728 0.04 0.17843498
v -0.15769355 -0.04 0.07092556
v -0.15769355 0.04 0.07092556
v -0.21701561 -0.04 0.30028126
v -0.21701561 0.04 0.30028126
v 0.03214203 0.04 0.300085
v 0.03214203 -0.04 0.300085
v 0.03214203 -0.04 0.300085
v 0.03214203 0.04 0.300085
v 0.05125923 0.04 0.20293461
v 0.05125923 -0.04 0.20293461
v 0.05125923 -0.04 0.20293461
v 0.05125923 0.04 0.20293461
v 0.07811485 0.04 0.09776184
v 0.07811485 -0.04 0.09776184
v 0.07811485 -0.04 0.09776184
v 0.07811485 0.04 0.09776184
v 0.106602095 0.04 0.019892583
v 0.106602095 -0.04 0.019892583
v -0.12935218 -0.04 -0.019426303
v -0.12935218 0.04 -0.019426303
v -0.15769355 0.04 0.07092556
v -0.15769355 -0.04 0.07092556
v -0.08759727 -0.04 -0.11089851
v -0.08759727 0.04 -0.11089851
v -0.12935218 0.04 -0.019426303
v -0.12935218 -0.04 -0.019426303
v 0.106602095 -0.04 0.019892583
v 0.106602095 0.04 0.019892583
v 0.14214005 0.04 -0.051690325
v 0.14214005 -0.04 -0.051690325
v -0.042859726 -0.04 -0.19043605
v -0.042859573 0.04 -0.19043599
v -0.08759727 0.04 -0.11089851
v -0.08759727 -0.04 -0.11089851
v 0.14214005 -0.04 -0.051690325
v 0.14214005 0.04 -0.051690325
v 0.17391433 0.04 -0.10779934
v 0.17391433 -0.04 -0.10779934
v 0.17391433 -0.04 -0.10779934
v 0.17391433 0.04 -0.10779934
v 0.1510424 0.04 -0.12004718
v 0.15104255 -0.04 -0.12004709
v 0.15104255 -0.04 -0.12004709
v 0.1510424 0.04 -0.12004718
v 0.2170153 0.04 -0.21541728
v 0.21701561 -0.04 -0.21541741
v 0.21701561 -0.04 -0.21541741
v 0.2170153 0.04 -0.21541728
v 0.039742965 0.04 -0.30028096
v 0.03974304 -0.04 -0.30028126
v 0.03974304 -0.04 -0.30028126
v 0.039742965 0.04 -0.30028096
v -0.042859573 0.04 -0.19043599
v -0.042859726 -0.04 -0.19043605
vt 0.9224978 0.0025464166
vt 0.99739987 0.9926963
vt 0.99739987 0.0025464166
vt 0.9224976 0.9926963
vt 0.85719293 0.0025464166
vt 0.8571927 0.9926963
vt 0.0013838187 0.0025464166
vt 0.0013838187 0.9926963
vt 0.14880392 0.9926963
vt 0.14880374 0.0025464166
vt 0.14880374 0.0025464166
vt 0.14880392 0.9926963
vt 0.20738754 0.9926963
vt 0.20738736 0.0025464166
vt 0.20738736 0.0025464166
vt 0.20738754 0.9926963
vt 0.27161214 0.9926963
vt 0.27161196 0.0025464166
vt 0.27161196 0.0025464166
vt 0.27161214 0.9926963
vt 0.32067156 0.9926963
vt 0.32067138 0.0025464166
vt 0.8011659 0.0025464166
vt 0.80116564 0.9926963
vt 0.8571927 0.9926963
vt 0.85719293 0.0025464166
vt 0.7416722 0.0025464166
vt 0.741672 0.9926963
vt 0.80116564 0.9926963
vt 0.8011659 0.0025464166
vt 0.32067138 0.0025464166
vt 0.32067156 0.9926963
vt 0.36795753 0.9926963
vt 0.36795735 0.0025464166
vt 0.6876784 0.0025464166
vt 0.68767816 0.9926963
vt 0.741672 0.9926963
vt 0.7416722 0.0025464166
vt 0.36795735 0.0025464166
vt 0.36795753 0.9926963
vt 0.40610933 0.9926963
vt 0.40610915 0.0025464166
vt 0.40610915 0.0025464166
vt 0.40610933 0.9926963
vt 0.42146015 0.9926963
vt 0.4214599 0.0025464166
vt 0.4214599 0.0025464166
vt 0.42146015 0.9926963
vt 0.49007356 0.9926963
vt 0.49007347 0.0025464166
vt 0.49007347 0.0025464166
vt 0.49007356 0.9926963
vt 0.60636 0.9926963
vt 0.6063601 0.0025464166
vt 0.6063601 0.0025464166
vt 0.60636 0.9926963
vt 0.68767816 0.9926963
vt 0.6876784 0.0025464166
vn -0.96249944 0 -0.2712839
vn -0.96249944 0 -0.2712839
vn -0.96249944 0 -0.2712839
vn -0.96249944 0 -0.2712839
vn -0.9740539 0 -0.2263163
vn -0.9740539 0 -0.2263163
vn 0.0007875663 0 0.99999976
vn 0.0007875663 0 0.99999976
vn 0.0007875663 0 0.99999976
vn 0.0007875663 0 0.99999976
vn 0.98118365 0 0.19307673
vn 0.98118365 0 0.19307673
vn 0.98118365 0 0.19307673
vn 0.98118365 0 0.19307673
vn 0.96891105 0 0.24740921
vn 0.96891105 0 0.24740921
vn 0.96891105 0 0.24740921
vn 0.96891105 0 0.24740921
vn 0.93912876 0 0.34356546
vn 0.93912876 0 0.34356546
vn 0.93912876 0 0.34356546
vn 0.93912876 0 0.34356546
vn -0.95415944 0 -0.2992988
vn -0.95415944 0 -0.2992988
vn -0.95415944 0 -0.2992988
vn -0.95415944 0 -0.2992988
vn -0.9097035 0 -0.4152583
vn -0.9097035 0 -0.4152583
vn -0.9097035 0 -0.4152583
vn -0.9097035 0 -0.4152583
vn 0.8956924 0 0.44467413
vn 0.8956924 0 0.44467413
vn 0.8956924 0 0.44467413
vn 0.8956924 0 0.44467413
vn -0.8715861 1.1938075E-06 -0.49024254
vn -0.8715861 1.1938076E-06 -0.49024254
vn -0.8715861 1.1938075E-06 -0.4902426
vn -0.8715861 1.1938075E-06 -0.4902426
vn 0.8701606 0 0.49276817
vn 0.8701606 0 0.49276817
vn 0.8701606 0 0.49276817
vn 0.8701606 0 0.49276817
vn 0.47207287 0 -0.88155955
vn 0.47207287 0 -0.88155955
vn 0.47207287 0 -0.88155955
vn 0.4720729 0 -0.8815595
vn 0.8224044 2.4918304E-06 0.5689032
vn 0.8224044 2.4918306E-06 0.5689032
vn 0.8224044 2.4918302E-06 0.5689032
vn 0.8224044 2.4918304E-06 0.5689032
vn 0.43179193 3.4412708E-06 -0.90197325
vn 0.43179193 3.4412706E-06 -0.90197325
vn 0.431792 3.4412708E-06 -0.90197325
vn 0.43179193 3.4412706E-06 -0.90197325
vn -0.79923475 4.607643E-07 -0.60101897
vn -0.79923475 4.607643E-07 -0.60101897
vn -0.7992348 4.6076434E-07 -0.6010189
vn -0.79923475 4.607643E-07 -0.60101897
g sector_5DB_extrude_0
f 3/3/3 2/2/2 1/1/1
f 2/2/2 4/4/4 1/1/1
f 1/1/1 4/4/4 5/5/5
f 4/4/4 6/6/6 5/5/5
f 9/9/9 8/8/8 7/7/7
f 10/10/10 9/9/9 7/7/7
f 13/13/13 12/12/12 11/11/11
f 14/14/14 13/13/13 11/11/11
f 17/17/17 16/16/16 15/15/15
f 18/18/18 17/17/17 15/15/15
f 21/21/21 20/20/20 19/19/19
f 22/22/22 21/21/21 19/19/19
f 25/25/25 24/24/24 23/23/23
f 26/26/26 25/25/25 23/23/23
f 29/29/29 28/28/28 27/27/27
f 30/30/30 29/29/29 27/27/27
f 33/33/33 32/32/32 31/31/31
f 34/34/34 33/33/33 31/31/31
f 37/37/37 36/36/36 35/35/35
f 38/38/38 37/37/37 35/35/35
f 41/41/41 40/40/40 39/39/39
f 42/42/42 41/41/41 39/39/39
f 45/45/45 44/44/44 43/43/43
f 46/46/46 45/45/45 43/43/43
f 49/49/49 48/48/48 47/47/47
f 50/50/50 49/49/49 47/47/47
f 53/53/53 52/52/52 51/51/51
f 54/54/54 53/53/53 51/51/51
f 57/57/57 56/56/56 55/55/55
f 58/58/58 57/57/57 55/55/55
