g sector_6M_lines_upper
v -0.3441675 -3.8146972E-08 0.05378168
v -0.339642 -3.8146972E-08 -0.12824067
v -0.33942991 -3.8146972E-08 0.049132746
v -0.3441675 -3.8146972E-08 -0.13288881
v -0.24063317 -3.8146972E-08 0.05573763
v -0.25437614 3.8146972E-08 -0.12571314
v -0.24008867 -3.8146972E-08 0.05154394
v -0.25889504 3.8146972E-08 -0.13060945
v -0.11139428 -3.8146972E-08 0.06849256
v -0.25333408 -3.8146972E-08 -0.1501211
v -0.11013619 -3.8146972E-08 0.064116724
v -0.25759122 -3.8146972E-08 -0.155003
v 0.014627769 -3.8146972E-08 0.090542845
v -0.0948478 -3.8146972E-08 -0.13703668
v 0.016569106 -3.8146972E-08 0.086201645
v -0.08985625 -3.8146972E-08 -0.14103074
v 0.09789773 -3.8146972E-08 0.11160047
v -0.09850289 3.8146972E-08 -0.11297578
v 0.100358285 -3.8146972E-08 0.10738119
v -0.093202904 3.8146972E-08 -0.11693376
v 0.24442 -3.8146972E-08 0.155003
v 0.072225265 -3.8146972E-08 -0.08752443
v 0.2417326 -3.8146972E-08 0.14818758
v 0.074070744 -3.8146972E-08 -0.09166879
v 0.3441675 -3.8146972E-08 -0.014603824
v 0.17552418 -3.8146972E-08 -0.061111696
v 0.33711848 -3.8146972E-08 -0.01156599
v 0.17802757 -3.8146972E-08 -0.06510721
vt 0.0006996599 0.94058055
vt 0.25585428 0.990269
vt 0.008638344 0.93540597
vt 0.26094213 0.9980081
vt 0.029824255 0.79563874
vt 0.27856186 0.87061995
vt 0.035838302 0.79616976
vt 0.28399774 0.8784262
vt 0.051801465 0.61153936
vt 0.31291026 0.8766761
vt 0.05828898 0.6111316
vt 0.31840658 0.884113
vt 0.059830137 0.42906496
vt 0.3434258 0.6517008
vt 0.066479556 0.42769402
vt 0.35052964 0.64597064
vt 0.0560904 0.30649784
vt 0.30875736 0.6493943
vt 0.06272959 0.30436555
vt 0.3159058 0.64322305
vt 0.04065806 0.08887471
vt 0.32579798 0.40354756
vt 0.049332857 0.094718024
vt 0.33214352 0.40224972
vt 0.30779803 0.0019920322
vt 0.3207543 0.25141007
vt 0.30139434 0.010884711
vt 0.32709467 0.24914923
vn -0 1 4.4107373E-06
vn -2.9398225E-07 1 -1.0164154E-05
vn -0 1 4.405099E-06
vn -2.9383992E-07 1 -1.0159452E-05
vn -0 1 6.2700933E-06
vn -0 1 -2.3855397E-05
vn -0 1 5.682363E-06
vn -0 1 -2.3801513E-05
vn -0 1 0
vn 4.4503747E-07 1 1.13783805E-07
vn -0 1 0
vn 4.4318017E-07 1 1.1330894E-07
vn -0 1 0
vn -3.6321387E-07 1 0
vn -0 1 0
vn -3.6163374E-07 1 0
vn -0 1 0
vn -0 1 -1.3813149E-05
vn -0 1 0
vn -0 1 -1.3789601E-05
vn -0 1 0
vn 2.7107276E-07 1 -1.0706053E-05
vn -0 1 0
vn 2.1830232E-07 1 -8.621879E-06
vn -0 1 0
vn -0 1 0
vn -0 1 0
vn -0 1 0
g sector_6M_lines_upper_0
f 3/3/3 2/2/2 1/1/1
f 2/2/2 4/4/4 1/1/1
f 3/3/3 1/1/1 5/5/5
f 2/2/2 6/6/6 4/4/4
f 7/7/7 3/3/3 5/5/5
f 6/6/6 8/8/8 4/4/4
f 7/7/7 5/5/5 9/9/9
f 6/6/6 10/10/10 8/8/8
f 11/11/11 7/7/7 9/9/9
f 10/10/10 12/12/12 8/8/8
f 11/11/11 9/9/9 13/13/13
f 10/10/10 14/14/14 12/12/12
f 15/15/15 11/11/11 13/13/13
f 14/14/14 16/16/16 12/12/12
f 15/15/15 13/13/13 17/17/17
f 14/14/14 18/18/18 16/16/16
f 19/19/19 15/15/15 17/17/17
f 18/18/18 20/20/20 16/16/16
f 19/19/19 17/17/17 21/21/21
f 18/18/18 22/22/22 20/20/20
f 23/23/23 19/19/19 21/21/21
f 22/22/22 24/24/24 20/20/20
f 23/23/23 21/21/21 25/25/25
f 22/22/22 26/26/26 24/24/24
f 27/27/27 23/23/23 25/25/25
f 26/26/26 28/28/28 24/24/24
f 27/27/27 25/25/25 28/28/28
f 26/26/26 27/27/27 28/28/28
