g sector_3LB_lines_upper
v 0.18935803 -3.8146972E-08 -0.03762842
v 0.15922645 -3.8146972E-08 -0.01633656
v 0.17966716 -3.8146972E-08 -0.035976984
v 0.16864051 -3.8146972E-08 -0.016630631
v 0.073984794 -3.8146972E-08 -0.115341015
v 0.24809848 -3.8146972E-08 0.059566006
v 0.06947345 -3.8146972E-08 -0.11019838
v 0.2592 -3.8146972E-08 0.05974544
v -0.052097168 -3.8146972E-08 -0.16937044
v 0.09457664 3.8146972E-08 0.17446317
v -0.055502128 -3.8146972E-08 -0.1642171
v 0.09726219 3.8146972E-08 0.18022123
v -0.1449724 -3.8146972E-08 -0.20129316
v 0.06769749 3.8146972E-08 0.19384734
v -0.14019349 -3.8146972E-08 -0.19378807
v 0.06731334 3.8146972E-08 0.20129316
v -0.15946424 -3.8146972E-08 -0.1677159
v 0.01192501 3.8146972E-08 0.1437207
v -0.15360083 -3.8146972E-08 -0.15936719
v 0.003430023 3.8146972E-08 0.14568812
v -0.20819092 -3.8146972E-08 -0.17983085
v 0.03363037 3.8146972E-08 0.120126836
v -0.20258522 -3.8146972E-08 -0.17191233
v 0.025128517 3.8146972E-08 0.120904215
v -0.2592 -3.8146972E-08 -0.0073205135
v -0.03703766 -3.8146972E-08 0.06968313
v -0.25054005 -3.8146972E-08 -0.012527714
v -0.041735876 -3.8146972E-08 0.07472959
v -0.14455685 -3.8146972E-08 0.026625771
v -0.1412052 -3.8146972E-08 0.019982448
vt 0.5750998 0.22325592
vt 0.5071208 0.24425316
vt 0.5611771 0.23612157
vt 0.51864386 0.23021379
vt 0.5581357 0.49096677
vt 0.49567738 0.01916692
vt 0.5449708 0.49181104
vt 0.5084619 0.0019920322
vt 0.4923856 0.7471826
vt 0.13951942 0.11860394
vt 0.4805057 0.74632365
vt 0.13387978 0.10772707
vt 0.43191618 0.9266523
vt 0.07828121 0.13687532
vt 0.42606932 0.9105217
vt 0.0664517 0.12870379
vt 0.36356127 0.9092998
vt 0.089272544 0.28106317
vt 0.3577011 0.8905195
vt 0.07627354 0.29172975
vt 0.3247564 0.99800795
vt 0.15085746 0.27564955
vt 0.31925035 0.9801276
vt 0.13966884 0.28772646
vt 0.0011479039 0.87302876
vt 0.14481162 0.44297168
vt 0.019291567 0.865921
vt 0.13157377 0.44421464
vt 0.08413087 0.65791595
vt 0.098224804 0.6606089
vn -0 1 -1.1726153E-06
vn -0 1 -1.5822204E-06
vn -0 1 -1.4716024E-06
vn -0 1 -1.5733447E-06
vn -0 1 0
vn 1.1018774E-07 1 0
vn -0 1 0
vn 1.0785092E-07 1 0
vn -0 1 0
vn 1.5689838E-07 1 0
vn -0 1 0
vn 1.4622292E-07 1 0
vn -0 1 -1.147549E-06
vn -0 1 0
vn -0 1 -8.489212E-07
vn -0 1 0
vn -0 1 -1.1471143E-06
vn -0 1 -2.465443E-06
vn -0 1 -1.4489829E-06
vn -0 1 -1.5951772E-06
vn -0 1 -2.0239122E-06
vn -3.1692596E-07 1 -1.0959582E-05
vn -0 1 -1.8986902E-06
vn -3.2187967E-07 1 -1.0995205E-05
vn -0 1 -1.3774767E-06
vn -1.990518E-07 1 -5.468623E-06
vn -0 1 -1.4668949E-06
vn -1.4077969E-07 1 -3.8676917E-06
vn -0 1 0
vn -0 1 0
g sector_3LB_lines_upper_0
f 3/3/3 2/2/2 1/1/1
f 2/2/2 4/4/4 1/1/1
f 3/3/3 1/1/1 5/5/5
f 2/2/2 6/6/6 4/4/4
f 7/7/7 3/3/3 5/5/5
f 6/6/6 8/8/8 4/4/4
f 7/7/7 5/5/5 9/9/9
f 6/6/6 10/10/10 8/8/8
f 11/11/11 7/7/7 9/9/9
f 10/10/10 12/12/12 8/8/8
f 11/11/11 9/9/9 13/13/13
f 10/10/10 14/14/14 12/12/12
f 15/15/15 11/11/11 13/13/13
f 14/14/14 16/16/16 12/12/12
f 15/15/15 13/13/13 17/17/17
f 14/14/14 18/18/18 16/16/16
f 19/19/19 15/15/15 17/17/17
f 18/18/18 20/20/20 16/16/16
f 19/19/19 17/17/17 21/21/21
f 18/18/18 22/22/22 20/20/20
f 23/23/23 19/19/19 21/21/21
f 22/22/22 24/24/24 20/20/20
f 23/23/23 21/21/21 25/25/25
f 22/22/22 26/26/26 24/24/24
f 27/27/27 23/23/23 25/25/25
f 26/26/26 28/28/28 24/24/24
f 27/27/27 25/25/25 29/29/29
f 26/26/26 30/30/30 28/28/28
f 30/30/30 27/27/27 29/29/29
f 30/30/30 29/29/29 28/28/28
