g sector_4D_extrude
v 0.1302497 -0.040000036 0.051265735
v 0.13024946 0.03999996 0.051266152
v 0.21243177 0.03999996 -0.017753944
v 0.21243177 -0.040000036 -0.017753944
v 0.21243177 -0.040000036 -0.017753944
v 0.21243177 0.03999996 -0.017753944
v 0.19228707 0.03999996 -0.039184242
v 0.19228712 -0.040000036 -0.039184254
v 0.099886686 -0.040000036 0.032196064
v 0.099886455 0.03999996 0.032196485
v 0.13024946 0.03999996 0.051266152
v 0.1302497 -0.040000036 0.051265735
v 0.07333433 -0.040000036 -0.240942
v 0.029921016 0.03999996 -0.21217838
v 0.029920863 -0.040000036 -0.21217823
v 0.07333456 0.03999996 -0.24094173
v 0.11807272 -0.040000036 -0.27006426
v 0.11807295 0.03999996 -0.270064
v 0.029920863 -0.040000036 -0.21217823
v 0.029921016 0.03999996 -0.21217838
v 0.04777952 0.03999996 -0.19082315
v 0.04777937 -0.040000036 -0.190823
v 0.13701421 -0.040000036 -0.2510263
v 0.13701391 0.03999996 -0.25102663
v 0.11807295 0.03999996 -0.270064
v 0.11807272 -0.040000036 -0.27006426
v 0.19228712 -0.040000036 -0.039184254
v 0.19228707 0.03999996 -0.039184242
v 0.30706227 0.040000036 -0.117592886
v 0.30706233 -0.03999996 -0.11759289
v 0.30706233 -0.03999996 -0.11759289
v 0.30706227 0.040000036 -0.117592886
v 0.18760546 0.040000036 -0.27951148
v 0.18760572 -0.03999996 -0.2795111
v 0.18760572 -0.03999996 -0.2795111
v 0.18760546 0.040000036 -0.27951148
v 0.13701391 0.03999996 -0.25102663
v 0.13701421 -0.040000036 -0.2510263
v -0.22918306 -0.040000036 0.034811772
v -0.2932101 0.03999996 0.1246383
v -0.29321024 -0.040000036 0.124638185
v -0.2291829 0.03999996 0.034811888
v -0.15954034 -0.040000036 -0.046698082
v -0.15954034 0.03999996 -0.046698082
v -0.29321024 -0.040000036 0.124638185
v -0.2932101 0.03999996 0.1246383
v -0.26956767 0.03999996 0.13564038
v -0.26956767 -0.040000036 0.13564038
v -0.13719827 -0.040000036 -0.035251547
v -0.13719827 0.03999996 -0.035251547
v -0.15954034 0.03999996 -0.046698082
v -0.15954034 -0.040000036 -0.046698082
v -0.27456033 -0.040000036 0.24714272
v -0.27456024 0.03999996 0.24714272
v -0.16060892 0.03999996 0.27951148
v -0.16060899 -0.040000036 0.27951145
v -0.16060899 -0.040000036 0.27951145
v -0.16060892 0.03999996 0.27951148
v -0.14714189 0.03999996 0.24985725
v -0.14714181 -0.040000036 0.24985683
v -0.26143357 -0.040000036 0.21597117
v -0.26143333 0.03999996 0.21597075
v -0.27456024 0.03999996 0.24714272
v -0.27456033 -0.040000036 0.24714272
v 0.04777937 -0.040000036 -0.190823
v 0.04777952 0.03999996 -0.19082315
v -0.050386675 0.03999996 -0.11776993
v -0.050386675 -0.040000036 -0.11776993
v -0.13719827 0.03999996 -0.035251547
v -0.13719827 -0.040000036 -0.035251547
v -0.0030055428 -0.040000036 0.14537837
v 0.099886455 0.03999996 0.032196485
v 0.099886686 -0.040000036 0.032196064
v -0.0030054664 0.03999996 0.14537843
v -0.055487003 -0.040000036 0.22451839
v -0.055486925 0.03999996 0.22451846
v -0.08284761 -0.040000036 0.2715885
v -0.08284777 0.03999996 0.27158892
v -0.30706233 -0.040000036 0.20173518
v -0.30706215 0.03999996 0.20173477
v -0.26143333 0.03999996 0.21597075
v -0.26143357 -0.040000036 0.21597117
v -0.26956767 -0.040000036 0.13564038
v -0.26956767 0.03999996 0.13564038
v -0.30706215 0.03999996 0.20173477
v -0.30706233 -0.040000036 0.20173518
v -0.14714181 -0.040000036 0.24985683
v -0.14714189 0.03999996 0.24985725
v -0.08284777 0.03999996 0.27158892
v -0.08284761 -0.040000036 0.2715885
vt 0.75007266 0.0025464166
vt 0.7500723 0.9926963
vt 0.8057247 0.9926963
vt 0.8057248 0.0025464166
vt 0.8057248 0.0025464166
vt 0.8057247 0.9926963
vt 0.8209767 0.9926963
vt 0.8209767 0.0025464166
vt 0.7314797 0.0025464166
vt 0.73147935 0.9926963
vt 0.7500723 0.9926963
vt 0.75007266 0.0025464166
vt 0.07309947 0.0025464166
vt 0.100104906 0.9926963
vt 0.100104965 0.0025464166
vt 0.07309953 0.9926963
vt 0.045417584 0.0025464166
vt 0.045417704 0.9926963
vt 0.100104965 0.0025464166
vt 0.100104906 0.9926963
vt 0.11454079 0.9926963
vt 0.11454085 0.0025464166
vt 0.031491317 0.0025464166
vt 0.031491794 0.9926963
vt 0.045417704 0.9926963
vt 0.045417584 0.0025464166
vt 0.8209767 0.0025464166
vt 0.8209767 0.9926963
vt 0.8930573 0.9926963
vt 0.8930573 0.0025464166
vt 0.8930573 0.0025464166
vt 0.8930573 0.9926963
vt 0.99739987 0.9926963
vt 0.99739987 0.0025464166
vt 0.0013838187 0.0025464166
vt 0.0013838187 0.9926963
vt 0.031491794 0.9926963
vt 0.031491317 0.0025464166
vt 0.3087174 0.0025464166
vt 0.36591995 0.9926963
vt 0.36591983 0.0025464166
vt 0.30871746 0.9926963
vt 0.25312236 0.0025464166
vt 0.25312248 0.9926963
vt 0.36591983 0.0025464166
vt 0.36591995 0.9926963
vt 0.37944245 0.9926963
vt 0.3794425 0.0025464166
vt 0.24010459 0.0025464166
vt 0.2401047 0.9926963
vt 0.25312248 0.9926963
vt 0.25312236 0.0025464166
vt 0.4611731 0.0025464166
vt 0.46117306 0.9926963
vt 0.5226016 0.9926963
vt 0.52260154 0.0025464166
vt 0.52260154 0.0025464166
vt 0.5226016 0.9926963
vt 0.5394906 0.9926963
vt 0.53949076 0.0025464166
vt 0.44363388 0.0025464166
vt 0.44363368 0.9926963
vt 0.46117306 0.9926963
vt 0.4611731 0.0025464166
vt 0.11454085 0.0025464166
vt 0.11454079 0.9926963
vt 0.17799506 0.9926963
vt 0.17799494 0.0025464166
vt 0.2401047 0.9926963
vt 0.24010459 0.0025464166
vt 0.6521599 0.0025464166
vt 0.73147935 0.9926963
vt 0.7314797 0.0025464166
vt 0.6521599 0.9926963
vt 0.60291713 0.0025464166
vt 0.60291713 0.9926963
vt 0.5746843 0.0025464166
vt 0.5746841 0.9926963
vt 0.41884768 0.0025464166
vt 0.41884738 0.9926963
vt 0.44363368 0.9926963
vt 0.44363388 0.0025464166
vt 0.3794425 0.0025464166
vt 0.37944245 0.9926963
vt 0.41884738 0.9926963
vt 0.41884768 0.0025464166
vt 0.53949076 0.0025464166
vt 0.5394906 0.9926963
vt 0.5746841 0.9926963
vt 0.5746843 0.0025464166
vn 0.64312005 -1.3497164E-06 0.7657654
vn 0.64312005 -1.3497163E-06 0.76576537
vn 0.64312005 -1.3497163E-06 0.76576537
vn 0.64312005 -1.3497163E-06 0.76576537
vn 0.72862476 0 -0.68491304
vn 0.72862476 0 -0.68491304
vn 0.7286248 0 -0.68491304
vn 0.7286249 0 -0.68491304
vn -0.5318588 -5.821957E-06 0.84683317
vn -0.53185874 -5.821957E-06 0.84683317
vn -0.5318588 -5.821957E-06 0.84683317
vn -0.53185874 -5.821957E-06 0.84683317
vn -0.5488961 3.7583475E-06 -0.83589065
vn -0.55232126 2.4523638E-06 -0.83363134
vn -0.55232126 2.4523636E-06 -0.83363134
vn -0.54889596 3.7583477E-06 -0.83589065
vn -0.54554564 5.03236E-06 -0.8380811
vn -0.5455457 5.0323592E-06 -0.8380811
vn -0.76711637 3.2226549E-06 0.64150786
vn -0.76711637 3.2226549E-06 0.6415079
vn -0.76711637 3.2226549E-06 0.64150786
vn -0.76711637 3.2226549E-06 0.6415079
vn 0.70890015 6.117553E-07 -0.7053089
vn 0.70890015 6.1175524E-07 -0.7053089
vn 0.70890015 6.1175524E-07 -0.7053089
vn 0.70890015 6.117553E-07 -0.70530885
vn 0.5640871 5.5344526E-07 0.8257153
vn 0.5640872 5.534452E-07 0.82571524
vn 0.5640871 5.5344526E-07 0.8257153
vn 0.5640872 5.534452E-07 0.82571524
vn 0.8047037 8.294892E-07 -0.5936766
vn 0.8047037 8.294892E-07 -0.5936767
vn 0.8047037 8.294892E-07 -0.5936767
vn 0.8047038 8.2948924E-07 -0.59367657
vn -0.49061587 -5.6354284E-06 -0.8713759
vn -0.49061587 -5.635428E-06 -0.8713759
vn -0.49061584 -5.6354284E-06 -0.87137604
vn -0.49061587 -5.635428E-06 -0.8713759
vn -0.7884409 1.47363E-06 -0.6151106
vn -0.81430995 2.2114161E-06 -0.5804304
vn -0.81430984 2.2114161E-06 -0.5804304
vn -0.78844094 1.47363E-06 -0.61511046
vn -0.76028347 7.1163146E-07 -0.6495915
vn -0.76028347 7.1163146E-07 -0.6495915
vn -0.42190802 0 0.9066387
vn -0.421908 0 0.9066387
vn -0.42190793 0 0.9066387
vn -0.42190793 0 0.9066387
vn 0.45597166 0 -0.88999426
vn 0.45597166 0 -0.88999426
vn 0.45597166 0 -0.88999426
vn 0.45597166 0 -0.88999426
vn -0.27324745 -6.068503E-07 0.9619438
vn -0.27324745 -6.068503E-07 0.9619438
vn -0.27324745 -6.068503E-07 0.9619438
vn -0.27324745 -6.068503E-07 0.9619438
vn 0.91050726 -4.035796E-07 0.41349307
vn 0.91050726 -4.0357958E-07 0.41349304
vn 0.91050726 -4.035796E-07 0.41349307
vn 0.91050726 -4.035796E-07 0.41349307
vn -0.9216153 9.600163E-07 -0.38810447
vn -0.9216153 9.600165E-07 -0.38810447
vn -0.9216153 9.600166E-07 -0.38810444
vn -0.9216153 9.600165E-07 -0.38810447
vn -0.597007 2.9891885E-07 -0.8022361
vn -0.597007 2.9891885E-07 -0.8022361
vn -0.64365345 1.513334E-07 -0.765317
vn -0.64365345 1.513334E-07 -0.765317
vn -0.6889573 0 -0.7248019
vn -0.6889573 0 -0.7248019
vn 0.7778693 -9.4234144E-07 0.6284261
vn 0.7399427 -3.8949543E-07 0.6726698
vn 0.7399428 -3.8949543E-07 0.6726699
vn 0.7778693 -9.4234144E-07 0.628426
vn 0.84509456 -1.1861874E-06 0.5346169
vn 0.84509456 -1.1861874E-06 0.5346169
vn 0.8645531 0 0.50254154
vn 0.8645531 0 0.50254154
vn -0.29783648 5.528813E-06 0.9546169
vn -0.29783648 5.528813E-06 0.9546169
vn -0.29783648 5.528813E-06 0.9546169
vn -0.29783648 5.528813E-06 0.9546169
vn -0.8697911 0 -0.49342027
vn -0.8697911 0 -0.49342027
vn -0.8697911 0 -0.4934202
vn -0.8697911 0 -0.49342027
vn -0.32020718 -5.35473E-06 0.9473475
vn -0.32020712 -5.35473E-06 0.9473475
vn -0.32020712 -5.3547296E-06 0.9473475
vn -0.32020712 -5.35473E-06 0.9473475
g sector_4D_extrude_0
f 3/3/3 2/2/2 1/1/1
f 4/4/4 3/3/3 1/1/1
f 7/7/7 6/6/6 5/5/5
f 8/8/8 7/7/7 5/5/5
f 11/11/11 10/10/10 9/9/9
f 12/12/12 11/11/11 9/9/9
f 15/15/15 14/14/14 13/13/13
f 14/14/14 16/16/16 13/13/13
f 13/13/13 16/16/16 17/17/17
f 16/16/16 18/18/18 17/17/17
f 21/21/21 20/20/20 19/19/19
f 22/22/22 21/21/21 19/19/19
f 25/25/25 24/24/24 23/23/23
f 26/26/26 25/25/25 23/23/23
f 29/29/29 28/28/28 27/27/27
f 30/30/30 29/29/29 27/27/27
f 33/33/33 32/32/32 31/31/31
f 34/34/34 33/33/33 31/31/31
f 37/37/37 36/36/36 35/35/35
f 38/38/38 37/37/37 35/35/35
f 41/41/41 40/40/40 39/39/39
f 40/40/40 42/42/42 39/39/39
f 39/39/39 42/42/42 43/43/43
f 42/42/42 44/44/44 43/43/43
f 47/47/47 46/46/46 45/45/45
f 48/48/48 47/47/47 45/45/45
f 51/51/51 50/50/50 49/49/49
f 52/52/52 51/51/51 49/49/49
f 55/55/55 54/54/54 53/53/53
f 56/56/56 55/55/55 53/53/53
f 59/59/59 58/58/58 57/57/57
f 60/60/60 59/59/59 57/57/57
f 63/63/63 62/62/62 61/61/61
f 64/64/64 63/63/63 61/61/61
f 67/67/67 66/66/66 65/65/65
f 68/68/68 67/67/67 65/65/65
f 69/69/69 67/67/67 68/68/68
f 70/70/70 69/69/69 68/68/68
f 73/73/73 72/72/72 71/71/71
f 72/72/72 74/74/74 71/71/71
f 71/71/71 74/74/74 75/75/75
f 74/74/74 76/76/76 75/75/75
f 75/75/75 76/76/76 77/77/77
f 76/76/76 78/78/78 77/77/77
f 81/81/81 80/80/80 79/79/79
f 82/82/82 81/81/81 79/79/79
f 85/85/85 84/84/84 83/83/83
f 86/86/86 85/85/85 83/83/83
f 89/89/89 88/88/88 87/87/87
f 90/90/90 89/89/89 87/87/87
