g sector_2M_lines_upper
v -0.26884952 0 -0.030866751
v -0.28124154 0 -0.06901672
v -0.2663419 0 -0.03968222
v -0.2922959 0 -0.0737028
v -0.25669283 0 -0.035023436
v -0.17571248 0 -0.09792076
v -0.25462034 0 -0.04323157
v -0.17765287 0 -0.10764907
v -0.21133417 0 0.05437935
v -0.09791046 0 -0.11173615
v -0.20539613 0 0.056441978
v -0.09884919 0 -0.11915715
v -0.22201683 0 0.05931292
v -0 0 -0.11827209
v -0.21608578 0 0.06136185
v 2.1356012E-17 0 -0.12537338
v -0.18821856 0 0.12537338
v 0.09791046 0 -0.11173615
v -0.1854825 0 0.1189707
v 0.09884919 0 -0.11915715
v -0.13579759 0 0.10971872
v 0.17571248 0 -0.09792075
v -0.1382762 0 0.104802355
v 0.17765287 0 -0.107649066
v -0.092969015 0 0.09813375
v 0.28124154 0 -0.069016695
v -0.09857982 0 0.09471277
v 0.2922959 0 -0.073702775
v -0.10182048 0 0.056919865
v 0.2663419 0 -0.03968222
v -0.10940366 0 0.05108889
v 0.26884952 0 -0.030866751
v 2.4915348E-17 0 0.051808972
v 0.2541191 0 -0.044866547
v -0 0 0.045100424
v 0.25669283 0 -0.035023436
v 0.10182048 0 0.056919865
v 0.20539613 0 0.056441978
v 0.10940366 0 0.05108889
v 0.21133417 0 0.05437935
v 0.092969015 0 0.09813375
v 0.21608578 0 0.06136185
v 0.09857982 0 0.09471277
v 0.22201683 0 0.05931292
v 0.13579759 0 0.10971872
v 0.1854825 0 0.1189707
v 0.1382762 0 0.104802355
v 0.18821856 0 0.12537338
vt 0.26727644 0.9580814
vt 0.33228162 0.9791761
vt 0.2822948 0.9538048
vt 0.3402711 0.998008
vt 0.27435258 0.9373671
vt 0.38147628 0.7993637
vt 0.2883364 0.93383205
vt 0.39805216 0.802665
vt 0.12200775 0.86012954
vt 0.40497676 0.66679937
vt 0.1184906 0.8500134
vt 0.417621 0.66839516
vt 0.11360725 0.8783328
vt 0.41606477 0.49997827
vt 0.11011343 0.86822855
vt 0.4281638 0.49997482
vt 0.0010382434 0.8207802
vt 0.40488118 0.33316356
vt 0.011945675 0.81611544
vt 0.41752452 0.33156055
vt 0.027684772 0.7314587
vt 0.38130486 0.20061278
vt 0.03606238 0.7356794
vt 0.39787883 0.19730203
vt 0.04740212 0.6584826
vt 0.33200723 0.020828526
vt 0.05323346 0.6680405
vt 0.33998585 0.0019920322
vt 0.11762585 0.67354345
vt 0.28203502 0.04622854
vt 0.12756428 0.68646073
vt 0.26701415 0.041960422
vt 0.12628403 0.5000612
vt 0.29087391 0.067050986
vt 0.13771392 0.500058
vt 0.27410215 0.06267074
vt 0.11752652 0.32658404
vt 0.11829022 0.15011366
vt 0.12745753 0.3136611
vt 0.12180158 0.13999553
vt 0.04731142 0.3416851
vt 0.10990261 0.13190325
vt 0.053137287 0.33212385
vt 0.11339065 0.12179703
vt 0.027552288 0.26872027
vt 0.011764718 0.18407261
vt 0.03592748 0.26449484
vt 0.00085461844 0.17941405
vn -0 1 0
vn -0 1 0
vn -0 1 0
vn -0 1 0
vn -0 1 0
vn -0 1 -3.5523658E-06
vn -0 1 0
vn -0 1 -3.6734218E-06
vn -0 1 -1.3264557E-06
vn -0 1 -4.3253913E-06
vn -0 1 -1.3076381E-06
vn -0 1 -4.4014014E-06
vn -0 1 5.8797923E-06
vn -0 1 0
vn -0 1 5.8959345E-06
vn -0 1 0
vn -0 1 4.937611E-06
vn -0 1 -4.325392E-06
vn -0 1 4.9209707E-06
vn -0 1 -4.4014023E-06
vn -0 1 0
vn -0 1 -3.5523658E-06
vn -0 1 0
vn -0 1 -3.6734227E-06
vn -0 1 0
vn -0 1 0
vn -0 1 0
vn -0 1 0
vn -0 1 0
vn -0 1 0
vn -0 1 0
vn -0 1 0
vn -0 1 0
vn -0 1 0
vn -0 1 0
vn -0 1 0
vn -0 1 0
vn -0 1 -1.1606123E-06
vn -0 1 0
vn -0 1 -1.1920363E-06
vn -0 1 0
vn -0 1 5.895977E-06
vn -0 1 0
vn -0 1 5.8798337E-06
vn -0 1 0
vn -0 1 4.920995E-06
vn -0 1 0
vn -0 1 4.937634E-06
g sector_2M_lines_upper_0
f 3/3/3 2/2/2 1/1/1
f 2/2/2 4/4/4 1/1/1
f 3/3/3 1/1/1 5/5/5
f 2/2/2 6/6/6 4/4/4
f 7/7/7 3/3/3 5/5/5
f 6/6/6 8/8/8 4/4/4
f 7/7/7 5/5/5 9/9/9
f 6/6/6 10/10/10 8/8/8
f 11/11/11 7/7/7 9/9/9
f 10/10/10 12/12/12 8/8/8
f 11/11/11 9/9/9 13/13/13
f 10/10/10 14/14/14 12/12/12
f 15/15/15 11/11/11 13/13/13
f 14/14/14 16/16/16 12/12/12
f 15/15/15 13/13/13 17/17/17
f 14/14/14 18/18/18 16/16/16
f 19/19/19 15/15/15 17/17/17
f 18/18/18 20/20/20 16/16/16
f 19/19/19 17/17/17 21/21/21
f 18/18/18 22/22/22 20/20/20
f 23/23/23 19/19/19 21/21/21
f 22/22/22 24/24/24 20/20/20
f 23/23/23 21/21/21 25/25/25
f 22/22/22 26/26/26 24/24/24
f 27/27/27 23/23/23 25/25/25
f 26/26/26 28/28/28 24/24/24
f 27/27/27 25/25/25 29/29/29
f 26/26/26 30/30/30 28/28/28
f 31/31/31 27/27/27 29/29/29
f 30/30/30 32/32/32 28/28/28
f 31/31/31 29/29/29 33/33/33
f 30/30/30 34/34/34 32/32/32
f 35/35/35 31/31/31 33/33/33
f 34/34/34 36/36/36 32/32/32
f 35/35/35 33/33/33 37/37/37
f 34/34/34 38/38/38 36/36/36
f 39/39/39 35/35/35 37/37/37
f 38/38/38 40/40/40 36/36/36
f 39/39/39 37/37/37 41/41/41
f 38/38/38 42/42/42 40/40/40
f 43/43/43 39/39/39 41/41/41
f 42/42/42 44/44/44 40/40/40
f 43/43/43 41/41/41 45/45/45
f 42/42/42 46/46/46 44/44/44
f 47/47/47 43/43/43 45/45/45
f 46/46/46 48/48/48 44/44/44
f 47/47/47 45/45/45 48/48/48
f 46/46/46 47/47/47 48/48/48
