g sector_3L_lines_upper
v 0.1801361 -3.8146972E-08 -0.018452367
v 0.22193801 -3.8146972E-08 0.08936215
v 0.21713074 -3.8146972E-08 0.08673276
v 0.17249413 -3.8146972E-08 -0.014786176
v 0.13184898 -3.8146972E-08 0.103365295
v 0.14976998 -3.8146972E-08 -0.07090968
v 0.1368412 -3.8146972E-08 0.10660336
v 0.14316657 -3.8146972E-08 -0.07003526
v 0.14908668 -3.8146972E-08 0.18640411
v 0.09923759 -3.8146972E-08 -0.14878654
v 0.15435219 -3.8146972E-08 0.18487911
v 0.09392746 -3.8146972E-08 -0.14471243
v 0.16021751 -3.8146972E-08 0.25283447
v -0.00035583496 -3.8146972E-08 -0.26000145
v 0.16451102 -3.8146972E-08 0.25648728
v -0.0011995697 -3.8146972E-08 -0.25360587
v -0.0046398924 -3.8146972E-08 0.25530207
v -0.030051345 -3.8146972E-08 -0.24062517
v -0.011215286 -3.8146972E-08 0.26000145
v -0.028659057 -3.8146972E-08 -0.23365487
v -0.010816879 -3.8146972E-08 0.20172146
v -0.19198917 3.8146972E-08 -0.12014941
v -0.017261581 -3.8146972E-08 0.20314872
v -0.18700595 3.8146972E-08 -0.11615264
v -0.027605513 -3.8146972E-08 0.12928791
v -0.22193801 3.8146972E-08 -0.09907748
v -0.034096908 -3.8146972E-08 0.13192151
v -0.21223888 3.8146972E-08 -0.09861623
v -0.06230522 -3.8146972E-08 0.048913926
v -0.19228645 3.8146972E-08 -0.0696124
v -0.06762039 -3.8146972E-08 0.05266183
v -0.1914764 3.8146972E-08 -0.076272994
v -0.10322902 -3.8146972E-08 -0.023375005
v -0.16003929 3.8146972E-08 -0.08895051
v -0.107996255 -3.8146972E-08 -0.018751439
v -0.15881076 3.8146972E-08 -0.09512744
vt 0.6171873 0.41210037
vt 0.55910325 0.19653417
vt 0.55462396 0.20611803
vt 0.60110456 0.41512278
vt 0.4028806 0.2776414
vt 0.6298402 0.5284381
vt 0.40695256 0.26689887
vt 0.6185629 0.5346197
vt 0.33486116 0.12869802
vt 0.6401388 0.7073774
vt 0.3447991 0.12505727
vt 0.6272196 0.7071013
vt 0.27630708 0.012582033
vt 0.6121517 0.99424845
vt 0.27881777 0.001992032
vt 0.6035331 0.98525727
vt 0.016880443 0.19704862
vt 0.54379684 0.99800795
vt 0.0012777222 0.19724457
vt 0.5380022 0.985568
vt 0.06846789 0.2875049
vt 0.15412043 0.9954546
vt 0.056806125 0.29264477
vt 0.15731172 0.9835414
vt 0.1250725 0.41942775
vt 0.08343438 0.9968642
vt 0.11196012 0.42274323
vt 0.09800467 0.9850674
vt 0.16286759 0.5841691
vt 0.09593205 0.917131
vt 0.15031326 0.5844065
vt 0.10480095 0.92657334
vt 0.18173952 0.7434351
vt 0.16821505 0.9103975
vt 0.16903786 0.74168366
vt 0.17718287 0.9186089
vn -0 1 0
vn -0 1 0
vn -0 1 0
vn -0 1 0
vn -0 1 0
vn -0 1 0
vn -0 1 0
vn -0 1 0
vn -0 1 0
vn -0 1 0
vn -0 1 0
vn -0 1 0
vn -0 1 0
vn -0 1 0
vn -0 1 0
vn -0 1 0
vn -0 1 0
vn 2.6194255E-07 1 0
vn -0 1 0
vn 3.0566613E-07 1 0
vn -0 1 0
vn 2.7102908E-07 1 0
vn -0 1 0
vn 2.9878885E-07 1 0
vn -0 1 -2.948232E-06
vn -0 1 0
vn -0 1 -2.7190754E-06
vn -0 1 0
vn -0 1 -2.4777694E-06
vn -0 1 0
vn -0 1 -2.995324E-06
vn -0 1 0
vn 4.4788436E-07 1 0
vn 5.9517384E-07 1 0
vn 3.4939367E-07 1 0
vn 5.960139E-07 1 0
g sector_3L_lines_upper_0
f 3/3/3 2/2/2 1/1/1
f 4/4/4 3/3/3 1/1/1
f 3/3/3 5/5/5 2/2/2
f 4/4/4 1/1/1 6/6/6
f 5/5/5 7/7/7 2/2/2
f 8/8/8 4/4/4 6/6/6
f 5/5/5 9/9/9 7/7/7
f 8/8/8 6/6/6 10/10/10
f 9/9/9 11/11/11 7/7/7
f 12/12/12 8/8/8 10/10/10
f 9/9/9 13/13/13 11/11/11
f 12/12/12 10/10/10 14/14/14
f 13/13/13 15/15/15 11/11/11
f 16/16/16 12/12/12 14/14/14
f 13/13/13 17/17/17 15/15/15
f 16/16/16 14/14/14 18/18/18
f 17/17/17 19/19/19 15/15/15
f 20/20/20 16/16/16 18/18/18
f 17/17/17 21/21/21 19/19/19
f 20/20/20 18/18/18 22/22/22
f 21/21/21 23/23/23 19/19/19
f 24/24/24 20/20/20 22/22/22
f 21/21/21 25/25/25 23/23/23
f 24/24/24 22/22/22 26/26/26
f 25/25/25 27/27/27 23/23/23
f 28/28/28 24/24/24 26/26/26
f 25/25/25 29/29/29 27/27/27
f 28/28/28 26/26/26 30/30/30
f 29/29/29 31/31/31 27/27/27
f 32/32/32 28/28/28 30/30/30
f 29/29/29 33/33/33 31/31/31
f 32/32/32 30/30/30 34/34/34
f 33/33/33 35/35/35 31/31/31
f 36/36/36 32/32/32 34/34/34
f 36/36/36 34/34/34 35/35/35
f 33/33/33 36/36/36 35/35/35
