g sector_fill_4M
v 0.038560465 0 -0.11638204
v 0.052120566 0 -0.14415163
v 0.16668054 0 -0.10844133
v 0.15429048 0 -0.08022131
v 0.06612611 0 0.10400297
v 0.19220804 0 0.15803239
v 0.31862944 0 -0.011502585
v -0.02674927 0 0.072080255
v -0.021711485 0 -0.13198015
v -0.11786653 0 -0.15105909
v -0.18025409 0 0.046786617
v -0.20082687 0 -0.13050127
v -0.19765963 0 -0.15803239
v -0.31862944 0 -0.13827997
v -0.31862944 0 0.03756798
vt 0.04655413 0.54606134
vt 0.0008288931 0.5584505
vt 0.021482836 0.74123794
vt 0.06754805 0.73074037
vt 0.37037227 0.65125054
vt 0.41527548 0.85667807
vt 0.12350959 0.99800795
vt 0.3491537 0.50220346
vt 0.040489726 0.45081565
vt 0.039555002 0.30054274
vt 0.35543662 0.26379588
vt 0.094479285 0.18158904
vt 0.052116506 0.17840096
vt 0.11681278 0.001992032
vt 0.38154772 0.05281101
vn -0 1 -6.203218E-07
vn -0 1 -6.203218E-07
vn -0 1 -6.203218E-07
vn -0 1 -6.203218E-07
vn -0 1 -3.782806E-07
vn -0 1 -3.782806E-07
vn -0 1 -3.782806E-07
vn -0 1 -2.768239E-07
vn -0 1 3.6982976E-07
vn -0 1 1.3921458E-07
vn -0 1 0
vn -0 1 0
vn -0 1 -2.198714E-07
vn -0 1 0
vn -0 1 0
g sector_fill_4M_0
f 3/3/3 2/2/2 1/1/1
f 4/4/4 3/3/3 1/1/1
f 5/5/5 4/4/4 1/1/1
f 4/4/4 5/5/5 6/6/6
f 7/7/7 4/4/4 6/6/6
f 8/8/8 5/5/5 1/1/1
f 1/1/1 9/9/9 8/8/8
f 8/8/8 9/9/9 10/10/10
f 11/11/11 8/8/8 10/10/10
f 11/11/11 10/10/10 12/12/12
f 10/10/10 13/13/13 12/12/12
f 11/11/11 12/12/12 14/14/14
f 15/15/15 11/11/11 14/14/14
