g sector_fill_5DB
v 0.056902733 0 0.207526
v 0.038604468 0 0.31049222
v -0.2257297 0 0.30778536
v -0.19874942 0 0.17613485
v 0.083404504 0 0.10366326
v -0.16846195 0 0.067676134
v 0.111420475 0 0.027322935
v -0.13717228 0 -0.02380547
v 0.14647388 0 -0.04319626
v -0.0948328 0 -0.11657975
v 0.15977177 0 -0.12124158
v 0.18305759 0 -0.10966288
v -0.0517992 0 -0.19269788
v 0.2257297 0 -0.21661939
v 0.035904884 0 -0.31049222
vt 0.05132135 0.66682214
vt 0.0009545691 0.8119514
vt 0.34178865 0.9980081
vt 0.40159142 0.80987865
vt 0.09181403 0.51466185
vt 0.44052535 0.6491117
vt 0.11063125 0.3967012
vt 0.46600217 0.5093918
vt 0.11625267 0.28115797
vt 0.4782391 0.36009192
vt 0.15516229 0.1715642
vt 0.11700642 0.16971304
vt 0.4776438 0.23164843
vt 0.1389856 0.0019920322
vt 0.44965988 0.017745018
vn -0 1 6.9166464E-07
vn -0 1 6.916647E-07
vn -0 1 6.9166464E-07
vn -0 1 6.916647E-07
vn -0 1 -7.657876E-07
vn -0 1 -7.657876E-07
vn -0 1 -1.3691998E-07
vn -0 1 -1.3691998E-07
vn -0 1 0
vn -0 1 0
vn -0 1 -9.0015203E-07
vn -0 1 -7.7403695E-07
vn -0 1 -9.001521E-07
vn -0 1 4.40007E-07
vn -0 1 4.4000703E-07
g sector_fill_5DB_0
f 3/3/3 2/2/2 1/1/1
f 4/4/4 3/3/3 1/1/1
f 1/1/1 5/5/5 4/4/4
f 5/5/5 6/6/6 4/4/4
f 5/5/5 7/7/7 6/6/6
f 7/7/7 8/8/8 6/6/6
f 8/8/8 7/7/7 9/9/9
f 10/10/10 8/8/8 9/9/9
f 10/10/10 9/9/9 11/11/11
f 12/12/12 11/11/11 9/9/9
f 13/13/13 10/10/10 11/11/11
f 11/11/11 14/14/14 13/13/13
f 14/14/14 15/15/15 13/13/13
