g sector_fill_3DB
v 0.2592 -3.8146972E-08 -0.007320504
v 0.15946424 -3.8146972E-08 -0.1677159
v 0.20819092 -3.8146972E-08 -0.17983085
v 0.14455685 3.8146972E-08 0.026625771
v 0.1449724 -3.8146972E-08 -0.20129316
v 0.052097168 -3.8146972E-08 -0.16937044
v -0.073984794 3.8146972E-08 -0.115341
v 0.041735876 3.8146972E-08 0.07472959
v -0.18935803 -3.8146972E-08 -0.037628412
v -0.16864051 -3.8146972E-08 -0.016630625
v -0.025128517 -3.8146972E-08 0.120904215
v -0.2592 -3.8146972E-08 0.05974544
v -0.09726219 -3.8146972E-08 0.18022123
v -0.06731334 -3.8146972E-08 0.20129316
v -0.003430023 -3.8146972E-08 0.14568812
vt 0.5721217 0.87439245
vt 0.20982872 0.90921146
vt 0.24825647 0.998008
vt 0.49004522 0.6591092
vt 0.14145502 0.92628247
vt 0.08173542 0.7467051
vt 0.017040664 0.49041644
vt 0.44347727 0.4453762
vt 0.0011419596 0.22283322
vt 0.057529617 0.23000808
vt 0.4360034 0.28896984
vt 0.068602204 0.001992032
vt 0.44249645 0.10912375
vt 0.50979316 0.13035046
vt 0.49933705 0.2932197
vn 3.9734087E-07 1 0
vn -0 1 0
vn 3.9734093E-07 1 0
vn -0 1 0
vn -0 1 0
vn -0 1 0
vn 1.9758852E-07 1 -8.9074825E-07
vn 1.9758849E-07 1 -8.9074814E-07
vn -4.8145967E-07 1 7.299393E-07
vn -0 1 2.9265036E-07
vn -0 1 0
vn -0 1 2.9265036E-07
vn -0 1 0
vn -0 1 0
vn -0 1 0
g sector_fill_3DB_0
f 3/3/3 2/2/2 1/1/1
f 2/2/2 4/4/4 1/1/1
f 2/2/2 5/5/5 4/4/4
f 5/5/5 6/6/6 4/4/4
f 4/4/4 6/6/6 7/7/7
f 8/8/8 4/4/4 7/7/7
f 7/7/7 9/9/9 8/8/8
f 9/9/9 10/10/10 8/8/8
f 11/11/11 8/8/8 10/10/10
f 11/11/11 10/10/10 12/12/12
f 13/13/13 11/11/11 12/12/12
f 11/11/11 13/13/13 14/14/14
f 15/15/15 11/11/11 14/14/14
