g sector_fill_2L
v -0.20133431 -3.8146972E-08 -0.06860839
v -0.212017 -3.8146972E-08 -0.073541895
v -0.16665836 -3.8146972E-08 -0.16294467
v -0.15450159 -3.8146972E-08 -0.15878803
v -0.18695423 -3.8146972E-08 0.020515336
v -0.23513258 -3.8146972E-08 -0.0025479794
v -0.056130543 3.8146972E-08 -0.116237186
v -0.124588296 -3.8146972E-08 0.056422565
v -0.028234234 3.8146972E-08 -0.15352029
v -0.13105516 -3.8146972E-08 -0.20162414
v 0.03863012 3.8146972E-08 -0.10734566
v 0.016931629 3.8146972E-08 -0.082561746
v -0.07401766 -3.8146972E-08 0.104970425
v 0.08081491 -3.8146972E-08 -0.026956663
v 0.11046652 3.8146972E-08 0.0025084019
v -0.038321245 -3.8146972E-08 0.15136394
v 0.15159059 3.8146972E-08 0.06733245
v 0.19475672 3.8146972E-08 0.05336936
v 0.14271368 3.8146972E-08 -0.016829748
v 0.23513258 -3.8146972E-08 0.124782585
v 0.1564372 -3.8146972E-08 0.14947166
v 0.059041653 -3.8146972E-08 0.17751823
v -0.00903471 -3.8146972E-08 0.20162414
v 0.065640315 -3.8146972E-08 0.19291134
v 0.1634102 -3.8146972E-08 0.16449009
vt 0.1966007 0.93744004
vt 0.19135126 0.9605814
vt 0.3900266 0.998008
vt 0.3983305 0.9734653
vt 0.07182531 0.8048693
vt 0.049450845 0.9102368
vt 0.45127234 0.7639072
vt 0.091114864 0.66103154
vt 0.5451673 0.76516014
vt 0.4956299 0.988659
vt 0.5535764 0.60150707
vt 0.48728108 0.6057164
vt 0.075695865 0.5205043
vt 0.47695103 0.4352328
vt 0.46631256 0.35160747
vt 0.04543165 0.40640146
vt 0.4132622 0.20616715
vt 0.48865733 0.15433839
vt 0.53687376 0.32384092
vt 0.42415494 0.001992032
vt 0.28792867 0.09742272
vt 0.12334201 0.21861593
vt 0.001104943 0.29779047
vt 0.10685105 0.18914145
vt 0.2724968 0.067810714
vn -0 1 0
vn -0 1 0
vn -0 1 0
vn -0 1 0
vn -1.886112E-07 1 4.3369693E-07
vn -0 1 -1.5404426E-06
vn -0 1 0
vn 2.0562588E-07 1 0
vn -0 1 0
vn -5.884925E-07 1 -2.9380843E-07
vn -0 1 0
vn 2.0562588E-07 1 0
vn 2.0562588E-07 1 0
vn 2.0562588E-07 1 0
vn -0 1 -9.1885033E-07
vn -0 1 0
vn 2.882615E-07 1 0
vn 2.882615E-07 1 0
vn -0 1 -9.1885033E-07
vn 2.882615E-07 1 0
vn 2.8826148E-07 1 0
vn -0 1 -1.8214993E-06
vn -0 1 0
vn -0 1 -1.8214996E-06
vn -0 1 -1.8214996E-06
g sector_fill_2L_0
f 3/3/3 2/2/2 1/1/1
f 4/4/4 3/3/3 1/1/1
f 1/1/1 5/5/5 4/4/4
f 1/1/1 6/6/6 5/5/5
f 5/5/5 7/7/7 4/4/4
f 7/7/7 5/5/5 8/8/8
f 7/7/7 9/9/9 4/4/4
f 9/9/9 10/10/10 4/4/4
f 9/9/9 7/7/7 11/11/11
f 7/7/7 12/12/12 11/11/11
f 12/12/12 7/7/7 8/8/8
f 8/8/8 13/13/13 12/12/12
f 13/13/13 14/14/14 12/12/12
f 13/13/13 15/15/15 14/14/14
f 15/15/15 13/13/13 16/16/16
f 17/17/17 15/15/15 16/16/16
f 17/17/17 18/18/18 15/15/15
f 18/18/18 19/19/19 15/15/15
f 18/18/18 17/17/17 20/20/20
f 17/17/17 21/21/21 20/20/20
f 17/17/17 16/16/16 22/22/22
f 21/21/21 17/17/17 22/22/22
f 23/23/23 22/22/22 16/16/16
f 21/21/21 22/22/22 24/24/24
f 25/25/25 21/21/21 24/24/24
