g sector_fill_6D
v -0.18939885 0 0.20027402
v -0.106433466 0 0.20427045
v -0.14390813 0 0.235069
v -0.14834562 0 0.1704247
v -0.31821668 0 0.10539724
v -0.21520971 0 0.02023548
v -0.030225353 7.6293944E-08 0.08369842
v 0.018256625 -7.6293944E-08 0.033725396
v 0.0064404486 7.6293944E-08 0.12310556
v 0.062144563 7.6293944E-08 0.08025257
v 0.12096483 -7.6293944E-08 -0.03873943
v 0.15712908 0 0.026980285
v 0.20421433 0 -0.09391224
v 0.25335053 0 -0.016313247
v 0.06688547 0 -0.14977314
v 0.15187097 0 -0.19117339
v 0.26307696 0 -0.235069
v 0.31821668 0 -0.14095707
v -0.07477781 -7.6293944E-08 -0.06945083
v 0.052386798 0 -0.17116852
v -0.090198725 0 -0.09165924
v -0.23401006 0 0.0031779478
vt 0.28001088 0.08213406
vt 0.35340306 0.18088533
vt 0.36035603 0.10937041
vt 0.27717924 0.15726726
vt 0.056988314 0.0019920322
vt 0.037254907 0.19898282
vt 0.26799524 0.3741391
vt 0.24654223 0.4750192
vt 0.34672984 0.38671407
vt 0.33999535 0.49060088
vt 0.24217977 0.6611631
vt 0.35286555 0.65140355
vt 0.24302658 0.8090999
vt 0.3790308 0.8054916
vt 0.060970135 0.68628687
vt 0.0801904 0.8249917
vt 0.11798261 0.9980081
vt 0.2792534 0.9881551
vt 0.04284534 0.44574192
vt 0.02268649 0.686112
vt 0.0028004919 0.44510373
vt 0.0007565485 0.18993661
vn -0 1 0
vn -0 1 0
vn -0 1 0
vn -0 1 0
vn -0 1 0
vn 9.770022E-07 1 -3.492575E-07
vn -0 1 -1.4858865E-06
vn -6.2671194E-07 1 -7.5688627E-07
vn -0 1 -1.4858865E-06
vn -6.2671205E-07 1 -7.5688627E-07
vn -1.8807796E-07 1 0
vn -5.4063116E-07 1 3.5775972E-07
vn -0 1 0
vn -5.4063116E-07 1 3.5775975E-07
vn -1.8807798E-07 1 0
vn -0 1 0
vn -0 1 0
vn -0 1 0
vn 9.770022E-07 1 -3.4925753E-07
vn 5.162607E-07 1 7.106876E-07
vn 9.770022E-07 1 -3.4925745E-07
vn 9.770022E-07 1 -3.4925753E-07
g sector_fill_6D_0
f 3/3/3 2/2/2 1/1/1
f 2/2/2 4/4/4 1/1/1
f 1/1/1 4/4/4 5/5/5
f 4/4/4 6/6/6 5/5/5
f 4/4/4 7/7/7 6/6/6
f 7/7/7 8/8/8 6/6/6
f 7/7/7 9/9/9 8/8/8
f 9/9/9 10/10/10 8/8/8
f 11/11/11 8/8/8 10/10/10
f 12/12/12 11/11/11 10/10/10
f 11/11/11 12/12/12 13/13/13
f 12/12/12 14/14/14 13/13/13
f 11/11/11 15/15/15 8/8/8
f 15/15/15 11/11/11 13/13/13
f 16/16/16 15/15/15 13/13/13
f 16/16/16 13/13/13 17/17/17
f 13/13/13 18/18/18 17/17/17
f 15/15/15 19/19/19 8/8/8
f 8/8/8 19/19/19 6/6/6
f 15/15/15 20/20/20 19/19/19
f 20/20/20 21/21/21 19/19/19
f 19/19/19 21/21/21 6/6/6
f 21/21/21 22/22/22 6/6/6
