g sector_fill_3MB
v -0.22866191 0 -0.058267888
v -0.09884913 0 0.10273437
v -0.17765284 0 0.11424249
v -0.13837542 0 -0.10502381
v -0 0 0.09651814
v -0.2918802 0 -0.07973018
v -0.27738842 0 -0.046152964
v -0 0 -0.11424249
v 0.09884913 0 0.10273437
v 0.13837542 0 -0.10502383
v 0.17765284 0 0.11424249
v 0.22866191 0 -0.058267906
v 0.27738842 0 -0.04615299
v 0.2918802 0 -0.07973021
vt 0.29511857 0.8901447
vt 0.020415 0.6686571
vt 0.0007799326 0.80311257
vt 0.37489316 0.73609716
vt 0.031021016 0.5000001
vt 0.3317373 0.9980081
vt 0.2744477 0.97328216
vt 0.39062223 0.49999985
vt 0.020415248 0.331343
vt 0.37489367 0.263903
vt 0.00077968504 0.19688767
vt 0.29511806 0.10985531
vt 0.2744477 0.026717825
vt 0.3317373 0.0019920322
vn -0 1 -3.5090457E-07
vn -0 1 0
vn -0 1 -3.509046E-07
vn -0 1 0
vn -0 1 0
vn -0 1 -9.1025885E-07
vn -0 1 -9.102587E-07
vn -0 1 0
vn -0 1 0
vn -0 1 0
vn -0 1 0
vn -0 1 0
vn -0 1 -3.641035E-06
vn -0 1 -3.6410354E-06
g sector_fill_3MB_0
f 3/3/3 2/2/2 1/1/1
f 2/2/2 4/4/4 1/1/1
f 4/4/4 2/2/2 5/5/5
f 4/4/4 6/6/6 1/1/1
f 6/6/6 7/7/7 1/1/1
f 8/8/8 4/4/4 5/5/5
f 5/5/5 9/9/9 8/8/8
f 9/9/9 10/10/10 8/8/8
f 10/10/10 9/9/9 11/11/11
f 12/12/12 10/10/10 11/11/11
f 12/12/12 13/13/13 10/10/10
f 13/13/13 14/14/14 10/10/10
