g sector_5M_lines_upper
v 0.35879523 0 -0.07824875
v 0.29071712 0 0.105962716
v 0.35130233 0 -0.07303215
v 0.29691783 0 0.11353149
v 0.23277327 0 -0.10029907
v 0.1965702 0 0.08815571
v 0.22791216 0 -0.09361248
v 0.20076284 0 0.09445255
v 0.1035344 0 -0.11305401
v 0.11490798 0 0.08164707
v 0.10137223 0 -0.10551708
v 0.120969735 0 0.08747902
v -0 0 -0.11500992
v 0.11189951 0 0.108801
v -0 0 -0.1073426
v 0.11780255 0 0.115009874
v -0.1035344 0 -0.11305401
v -0 0 0.10154091
v -0.10137223 0 -0.10551708
v -0 0 0.107231215
v -0.23277327 0 -0.10029907
v -0.11189951 0 0.108801
v -0.22791216 0 -0.09361248
v -0.11780255 0 0.11500992
v -0.35879523 0 -0.07824875
v -0.11490798 0 0.08164707
v -0.35130233 0 -0.07303215
v -0.120969735 0 0.08747902
v -0.29691783 0 0.11353149
v -0.1965702 0 0.08815571
v -0.29071712 0 0.105962716
v -0.20076284 0 0.09445255
vt 0.26888162 0.001992032
vt 0.013196062 0.09648449
vt 0.261641 0.012392186
vt 0.002690593 0.08787792
vt 0.29948747 0.17691055
vt 0.037912194 0.22716044
vt 0.2902065 0.1836578
vt 0.02917217 0.22134107
vt 0.31719133 0.35629418
vt 0.046946187 0.34050766
vt 0.3067301 0.35929528
vt 0.038851436 0.33209392
vt 0.31990615 0.5
vt 0.009256516 0.3446834
vt 0.30926394 0.5
vt 0.0006385908 0.33648998
vt 0.31719133 0.6437058
vt 0.019333526 0.49999997
vt 0.3067301 0.6407047
vt 0.011435378 0.49999997
vt 0.2994875 0.8230894
vt 0.009256513 0.65531653
vt 0.29020652 0.81634223
vt 0.0006385353 0.66350996
vt 0.26888165 0.99800795
vt 0.04694618 0.6594923
vt 0.261641 0.9876078
vt 0.038851433 0.667906
vt 0.0026905863 0.9121221
vt 0.037912186 0.77283955
vt 0.013196055 0.9035154
vt 0.029172169 0.77865887
vn -0 1 -2.5527108E-06
vn -0 1 -6.5928903E-06
vn -0 1 -2.816141E-06
vn -0 1 -5.960544E-06
vn -0 1 4.598742E-06
vn -0 1 -3.313098E-06
vn -0 1 8.642587E-06
vn -0 1 -8.281126E-06
vn -0 1 7.94253E-06
vn -0 1 0
vn -0 1 6.147529E-06
vn -0 1 0
vn -0 1 0
vn -0 1 0
vn -0 1 0
vn -0 1 0
vn -0 1 7.942531E-06
vn -0 1 0
vn -0 1 6.1475293E-06
vn -0 1 0
vn -0 1 4.5987426E-06
vn -0 1 0
vn -0 1 8.642588E-06
vn -0 1 0
vn -0 1 -2.5527117E-06
vn -0 1 0
vn -0 1 -2.8161417E-06
vn -0 1 0
vn -0 1 -5.960543E-06
vn -0 1 -3.313098E-06
vn -0 1 -6.5928893E-06
vn -0 1 -8.281125E-06
g sector_5M_lines_upper_0
f 3/3/3 2/2/2 1/1/1
f 2/2/2 4/4/4 1/1/1
f 3/3/3 1/1/1 5/5/5
f 2/2/2 6/6/6 4/4/4
f 7/7/7 3/3/3 5/5/5
f 6/6/6 8/8/8 4/4/4
f 7/7/7 5/5/5 9/9/9
f 6/6/6 10/10/10 8/8/8
f 11/11/11 7/7/7 9/9/9
f 10/10/10 12/12/12 8/8/8
f 11/11/11 9/9/9 13/13/13
f 10/10/10 14/14/14 12/12/12
f 15/15/15 11/11/11 13/13/13
f 14/14/14 16/16/16 12/12/12
f 15/15/15 13/13/13 17/17/17
f 14/14/14 18/18/18 16/16/16
f 19/19/19 15/15/15 17/17/17
f 18/18/18 20/20/20 16/16/16
f 19/19/19 17/17/17 21/21/21
f 18/18/18 22/22/22 20/20/20
f 23/23/23 19/19/19 21/21/21
f 22/22/22 24/24/24 20/20/20
f 23/23/23 21/21/21 25/25/25
f 22/22/22 26/26/26 24/24/24
f 27/27/27 23/23/23 25/25/25
f 26/26/26 28/28/28 24/24/24
f 27/27/27 25/25/25 29/29/29
f 26/26/26 30/30/30 28/28/28
f 31/31/31 27/27/27 29/29/29
f 30/30/30 32/32/32 28/28/28
f 31/31/31 29/29/29 32/32/32
f 30/30/30 31/31/31 32/32/32
