g sector_2L_extrude
v -0.15116684 -0.040000036 -0.14861825
v -0.15116684 0.03999996 -0.14861825
v -0.16322173 0.03999996 -0.1529682
v -0.16322173 -0.040000036 -0.1529682
v -0.16322173 -0.040000036 -0.1529682
v -0.16322173 0.03999996 -0.1529682
v -0.2033937 0.03999996 -0.076511666
v -0.2033937 -0.040000036 -0.076511666
v -0.2033937 -0.040000036 -0.076511666
v -0.2033937 0.03999996 -0.076511666
v -0.19272186 0.03999996 -0.0715571
v -0.19272178 -0.040000036 -0.071557045
v 0.07322192 -0.040000036 -0.021268252
v 0.073221885 0.03999996 -0.021268252
v 0.006562147 0.040000036 -0.08168453
v 0.006562376 -0.03999996 -0.081684284
v 0.028877439 -0.03999996 -0.1059894
v 0.028877173 0.040000036 -0.105989665
v -0.031973504 0.040000036 -0.1476182
v -0.03197335 -0.03999996 -0.14761847
v -0.12842041 0.03999996 -0.19173649
v -0.12842026 -0.040000036 -0.19173676
v 0.006562376 -0.03999996 -0.081684284
v 0.006562147 0.040000036 -0.08168453
v 0.028877173 0.040000036 -0.105989665
v 0.028877439 -0.03999996 -0.1059894
v -0.12842026 -0.040000036 -0.19173676
v -0.12842041 0.03999996 -0.19173649
v -0.15116684 0.03999996 -0.14861825
v -0.15116684 -0.040000036 -0.14861825
v -0.19272178 -0.040000036 -0.071557045
v -0.19272186 0.03999996 -0.0715571
v -0.22643276 0.03999996 -0.005455608
v -0.22643264 -0.040000036 -0.005455551
v -0.22643264 -0.040000036 -0.005455551
v -0.22643276 0.03999996 -0.005455608
v -0.18386665 0.03999996 0.015786933
v -0.18386665 -0.040000036 0.015786933
v -0.120197624 0.03999996 0.05243408
v -0.1201975 -0.040000036 0.052433927
v -0.06936684 0.03999996 0.10085659
v -0.06936673 -0.040000036 0.10085644
v -0.032348033 0.03999996 0.14868397
v -0.032347955 -0.040000036 0.14868392
v -0.005863733 0.03999996 0.19173676
v -0.0058636568 -0.040000036 0.19173671
v 0.22643276 -0.040000036 0.121766925
v 0.22643268 0.03999996 0.121767044
v 0.18684238 0.040000036 0.05644535
v 0.18684246 -0.03999996 0.056445234
v 0.14016409 0.040000036 -0.0064730644
v 0.14016429 -0.03999996 -0.006472778
v 0.14748251 -0.040000036 0.14595988
v 0.14748244 0.03999996 0.14595993
v 0.22643268 0.03999996 0.121767044
v 0.22643276 -0.040000036 0.121766925
v 0.14016429 -0.03999996 -0.006472778
v 0.14016409 0.040000036 -0.0064730644
v 0.10860427 0.040000036 0.013659572
v 0.108604535 -0.03999996 0.013659878
v 0.0695777 -0.040000036 0.1836653
v 0.0695777 0.03999996 0.1836653
v 0.15459651 0.03999996 0.16093574
v 0.15459658 -0.040000036 0.1609357
v 0.15459658 -0.040000036 0.1609357
v 0.15459651 0.03999996 0.16093574
v 0.14748244 0.03999996 0.14595993
v 0.14748251 -0.040000036 0.14595988
v 0.06259742 -0.040000036 0.16839515
v 0.06259742 0.03999996 0.16839515
v 0.0695777 0.03999996 0.1836653
v 0.0695777 -0.040000036 0.1836653
v -0.0058636568 -0.040000036 0.19173671
v -0.005863733 0.03999996 0.19173676
v 0.06259742 0.03999996 0.16839515
v 0.06259742 -0.040000036 0.16839515
v 0.108604535 -0.03999996 0.013659878
v 0.10860427 0.040000036 0.013659572
v 0.073221885 0.03999996 -0.021268252
v 0.07322192 -0.040000036 -0.021268252
vt 0.73942 0.0025464296
vt 0.73942 0.9926963
vt 0.730014 0.9926963
vt 0.730014 0.0025464296
vt 0.730014 0.0025464296
vt 0.730014 0.9926963
vt 0.6666247 0.9926963
vt 0.6666247 0.0025464296
vt 0.6666247 0.0025464296
vt 0.6666247 0.9926963
vt 0.6579892 0.9926963
vt 0.6579891 0.0025464296
vt 0.99739987 0.0025464296
vt 0.99739987 0.9926963
vt 0.9313703 0.9926963
vt 0.9313708 0.0025464296
vt 0.9071539 0.0025464296
vt 0.9071534 0.9926963
vt 0.85304147 0.9926963
vt 0.8530416 0.0025464296
vt 0.77520007 0.9926963
vt 0.7752003 0.0025464296
vt 0.9313708 0.0025464296
vt 0.9313703 0.9926963
vt 0.9071534 0.9926963
vt 0.9071539 0.0025464296
vt 0.7752003 0.0025464296
vt 0.77520007 0.9926963
vt 0.73942 0.9926963
vt 0.73942 0.0025464296
vt 0.6579891 0.0025464296
vt 0.6579892 0.9926963
vt 0.60352945 0.9926963
vt 0.60352933 0.0025464296
vt 0.60352933 0.0025464296
vt 0.60352945 0.9926963
vt 0.56861395 0.9926963
vt 0.56861395 0.0025464296
vt 0.51469636 0.9926963
vt 0.5146963 0.0025464296
vt 0.46317092 0.9926963
vt 0.4631709 0.0025464296
vt 0.4187817 0.9926963
vt 0.41878164 0.0025464296
vt 0.38168317 0.9926963
vt 0.3816831 0.0025464296
vt 0.17890915 0.0025464296
vt 0.17890927 0.9926963
vt 0.12284849 0.9926963
vt 0.12284837 0.0025464296
vt 0.06534908 0.9926963
vt 0.06534932 0.0025464296
vt 0.2395139 0.0025464296
vt 0.23951396 0.9926963
vt 0.17890927 0.9926963
vt 0.17890915 0.0025464296
vt 0.06534932 0.0025464296
vt 0.06534908 0.9926963
vt 0.03787414 0.9926963
vt 0.03787438 0.0025464296
vt 0.31627327 0.0025464296
vt 0.31627327 0.9926963
vt 0.25168255 0.9926963
vt 0.2516825 0.0025464296
vt 0.2516825 0.0025464296
vt 0.25168255 0.9926963
vt 0.23951396 0.9926963
vt 0.2395139 0.0025464296
vt 0.32859617 0.0025464296
vt 0.32859617 0.9926963
vt 0.31627327 0.9926963
vt 0.31627327 0.0025464296
vt 0.3816831 0.0025464296
vt 0.38168317 0.9926963
vt 0.32859617 0.9926963
vt 0.32859617 0.0025464296
vt 0.03787438 0.0025464296
vt 0.03787414 0.9926963
vt 0.0013838187 0.9926963
vt 0.0013838187 0.0025464296
vn 0.3394239 0 -0.9406336
vn 0.3394239 0 -0.9406336
vn 0.3394239 0 -0.9406336
vn 0.3394239 0 -0.9406336
vn -0.8852441 0 -0.4651269
vn -0.8852441 0 -0.4651269
vn -0.8852441 0 -0.4651269
vn -0.8852441 0 -0.4651269
vn -0.42109677 0 0.9070157
vn -0.42109677 0 0.9070157
vn -0.42109683 0 0.9070157
vn -0.42109674 0 0.9070157
vn 0.6827194 0 -0.7306807
vn 0.68271935 0 -0.73068076
vn 0.6715554 0 -0.7409543
vn 0.67155546 0 -0.7409543
vn 0.5646294 1.2332453E-06 -0.8253446
vn 0.5646294 1.2332451E-06 -0.8253446
vn 0.4786301 2.699031E-06 -0.87801665
vn 0.47863004 2.6990315E-06 -0.87801665
vn 0.41598025 3.7018224E-06 -0.90937364
vn 0.41598025 3.7018224E-06 -0.90937364
vn 0.7366202 4.3659693E-06 0.6763066
vn 0.7366202 4.3659693E-06 0.6763066
vn 0.73662025 4.3659697E-06 0.6763066
vn 0.7366202 4.3659693E-06 0.6763066
vn -0.88447297 -1.15080184E-07 -0.4665915
vn -0.88447297 -1.1508019E-07 -0.4665915
vn -0.88447297 -1.15080184E-07 -0.4665915
vn -0.88447297 -1.15080184E-07 -0.4665915
vn -0.89084005 -1.2000462E-06 -0.454317
vn -0.89084005 -1.2000461E-06 -0.454317
vn -0.89084005 -1.2000462E-06 -0.454317
vn -0.89084005 -1.2000461E-06 -0.454317
vn -0.44653204 1.3857816E-07 0.8947677
vn -0.44653204 1.3857816E-07 0.8947677
vn -0.47848994 -7.337747E-07 0.878093
vn -0.47848994 -7.337747E-07 0.878093
vn -0.5963807 -1.822735E-06 0.8027017
vn -0.5963808 -1.8227353E-06 0.80270165
vn -0.7386031 -1.9290997E-06 0.6741405
vn -0.7386031 -1.9291E-06 0.6741405
vn -0.81971073 -1.162982E-06 0.57277775
vn -0.81971073 -1.1629819E-06 0.57277775
vn -0.8517445 -8.345494E-07 0.5239575
vn -0.85174435 -8.345494E-07 0.5239575
vn 0.8551897 1.6914415E-06 -0.51831514
vn 0.8551897 1.6914415E-06 -0.51831514
vn 0.829728 1.3054072E-06 -0.55816793
vn 0.829728 1.3054072E-06 -0.55816793
vn 0.80311674 9.262199E-07 -0.59582186
vn 0.8031166 9.2621985E-07 -0.5958218
vn 0.29298607 -8.583202E-07 0.95611674
vn 0.29298604 -8.583203E-07 0.95611674
vn 0.2929861 -8.5832016E-07 0.95611674
vn 0.29298607 -8.5832033E-07 0.95611674
vn -0.53780943 -4.7174735E-06 -0.84306645
vn -0.53780943 -4.7174735E-06 -0.84306645
vn -0.5378094 -4.7174726E-06 -0.84306645
vn -0.5378094 -4.7174726E-06 -0.84306645
vn 0.25827685 -2.1673264E-07 0.966071
vn 0.25827685 -2.1673264E-07 0.966071
vn 0.25827682 -2.1673263E-07 0.966071
vn 0.25827685 -2.1673264E-07 0.966071
vn 0.90326476 5.314622E-07 -0.4290838
vn 0.90326464 5.3146215E-07 -0.42908382
vn 0.90326476 5.314622E-07 -0.4290838
vn 0.90326464 5.3146215E-07 -0.42908382
vn -0.9094826 0 0.4157422
vn -0.9094826 0 0.4157422
vn -0.9094826 0 0.4157422
vn -0.9094826 0 0.4157422
vn 0.3227059 -1.449103E-07 0.94649935
vn 0.3227059 -1.4491032E-07 0.94649935
vn 0.32270592 -1.4491033E-07 0.94649935
vn 0.32270592 -1.4491033E-07 0.94649935
vn 0.70252085 1.9282915E-07 -0.7116632
vn 0.70252085 1.9282919E-07 -0.7116632
vn 0.68271935 0 -0.73068076
vn 0.6827194 0 -0.7306807
g sector_2L_extrude_0
f 3/3/3 2/2/2 1/1/1
f 4/4/4 3/3/3 1/1/1
f 7/7/7 6/6/6 5/5/5
f 8/8/8 7/7/7 5/5/5
f 11/11/11 10/10/10 9/9/9
f 12/12/12 11/11/11 9/9/9
f 15/15/15 14/14/14 13/13/13
f 16/16/16 15/15/15 13/13/13
f 19/19/19 18/18/18 17/17/17
f 20/20/20 19/19/19 17/17/17
f 21/21/21 19/19/19 20/20/20
f 22/22/22 21/21/21 20/20/20
f 25/25/25 24/24/24 23/23/23
f 26/26/26 25/25/25 23/23/23
f 29/29/29 28/28/28 27/27/27
f 30/30/30 29/29/29 27/27/27
f 33/33/33 32/32/32 31/31/31
f 34/34/34 33/33/33 31/31/31
f 37/37/37 36/36/36 35/35/35
f 38/38/38 37/37/37 35/35/35
f 39/39/39 37/37/37 38/38/38
f 40/40/40 39/39/39 38/38/38
f 41/41/41 39/39/39 40/40/40
f 42/42/42 41/41/41 40/40/40
f 43/43/43 41/41/41 42/42/42
f 44/44/44 43/43/43 42/42/42
f 45/45/45 43/43/43 44/44/44
f 46/46/46 45/45/45 44/44/44
f 49/49/49 48/48/48 47/47/47
f 50/50/50 49/49/49 47/47/47
f 51/51/51 49/49/49 50/50/50
f 52/52/52 51/51/51 50/50/50
f 55/55/55 54/54/54 53/53/53
f 56/56/56 55/55/55 53/53/53
f 59/59/59 58/58/58 57/57/57
f 60/60/60 59/59/59 57/57/57
f 63/63/63 62/62/62 61/61/61
f 64/64/64 63/63/63 61/61/61
f 67/67/67 66/66/66 65/65/65
f 68/68/68 67/67/67 65/65/65
f 71/71/71 70/70/70 69/69/69
f 72/72/72 71/71/71 69/69/69
f 75/75/75 74/74/74 73/73/73
f 76/76/76 75/75/75 73/73/73
f 79/79/79 78/78/78 77/77/77
f 80/80/80 79/79/79 77/77/77
