g sector_4DB_extrude
v 0.17128322 -0.040000036 0.014628925
v 0.18791737 0.03999996 -0.05888086
v 0.18791737 -0.040000036 -0.05888086
v 0.17128322 0.03999996 0.014628925
v 0.16187915 -0.040000036 0.0792634
v 0.16187915 0.03999996 0.0792634
v 0.18791737 -0.040000036 -0.05888086
v 0.18791737 0.03999996 -0.05888086
v 0.10025814 0.040000036 -0.07735773
v 0.10025814 -0.03999996 -0.07735773
v 0.06822216 -0.040000036 0.08272825
v 0.06822216 0.03999996 0.08272825
v 0.16187915 0.03999996 0.0792634
v 0.16187915 -0.040000036 0.0792634
v -0.046707496 -0.040000036 -0.2478768
v -0.046707418 0.03999996 -0.24787678
v -0.08123104 0.03999996 -0.25824758
v -0.08123104 -0.040000036 -0.25824758
v -0.08123104 -0.040000036 -0.25824758
v -0.08123104 0.03999996 -0.25824758
v -0.11423572 0.03999996 -0.19201116
v -0.11423572 -0.040000036 -0.19201116
v -0.14178951 0.03999996 -0.11547308
v -0.14178951 -0.040000036 -0.11547308
v -0.166889 0.03999996 -0.012471103
v -0.166889 -0.040000036 -0.012471103
v -0.1841196 0.03999996 0.08940142
v -0.1841196 -0.040000036 0.08940142
v -0.18791737 0.03999996 0.18930669
v -0.18791737 -0.040000036 0.18930669
v -0.18435474 0.03999996 0.25824758
v -0.18435474 -0.040000036 0.25824758
v -0.0606377 -0.040000036 -0.21558572
v -0.060637627 0.03999996 -0.21558568
v -0.046707418 0.03999996 -0.24787678
v -0.046707496 -0.040000036 -0.2478768
v 0.14277637 -0.03999996 -0.18602987
v 0.14277652 0.040000036 -0.18603052
v 0.090451315 0.03999996 -0.20451386
v 0.09045124 -0.040000036 -0.20451318
v 0.09045124 -0.040000036 -0.20451318
v 0.090451315 0.03999996 -0.20451386
v 0.07779789 0.03999996 -0.17365296
v 0.077797964 -0.040000036 -0.17365293
v 0.10025814 -0.03999996 -0.07735773
v 0.10025814 0.040000036 -0.07735773
v 0.14277652 0.040000036 -0.18603052
v 0.14277637 -0.03999996 -0.18602987
v 0.077797964 -0.040000036 -0.17365293
v 0.07779789 0.03999996 -0.17365296
v -0.060637627 0.03999996 -0.21558568
v -0.0606377 -0.040000036 -0.21558572
v -0.18435474 -0.040000036 0.25824758
v -0.18435474 0.03999996 0.25824758
v -0.13149181 0.03999996 0.25154173
v -0.13149181 -0.040000036 0.25154173
v 0.011659584 0.03999996 0.23115201
v 0.011659584 -0.040000036 0.23115201
v 0.0686108 0.03999996 0.22396375
v 0.0686108 -0.040000036 0.22396375
v 0.0686108 -0.040000036 0.22396375
v 0.0686108 0.03999996 0.22396375
v 0.065376855 0.03999996 0.16773939
v 0.065376855 -0.040000036 0.16773939
v 0.06822216 0.03999996 0.08272825
v 0.06822216 -0.040000036 0.08272825
vt 0.33167404 0.0025464166
vt 0.37647027 0.9926963
vt 0.37647063 0.0025464166
vt 0.33167368 0.9926963
vt 0.2928528 0.0025464166
vt 0.29285243 0.9926963
vt 0.37647063 0.0025464166
vt 0.37647027 0.9926963
vt 0.42971706 0.9926963
vt 0.42971742 0.0025464166
vt 0.2371479 0.0025464166
vt 0.23714754 0.9926963
vt 0.29285243 0.9926963
vt 0.2928528 0.0025464166
vt 0.65876114 0.0025464166
vt 0.6587615 0.9926963
vt 0.6801871 0.9926963
vt 0.6801867 0.0025464166
vt 0.6801867 0.0025464166
vt 0.6801871 0.9926963
vt 0.7241728 0.9926963
vt 0.7241723 0.0025464166
vt 0.77252275 0.9926963
vt 0.7725223 0.0025464166
vt 0.83553535 0.9926963
vt 0.835535 0.0025464166
vt 0.8969453 0.9926963
vt 0.8969448 0.0025464166
vt 0.95636886 0.9926963
vt 0.9563684 0.0025464166
vt 0.99739987 0.9926963
vt 0.99739987 0.0025464166
vt 0.63785857 0.0025464166
vt 0.6378589 0.9926963
vt 0.6587615 0.9926963
vt 0.65876114 0.0025464166
vt 0.49907663 0.0025464166
vt 0.49907666 0.9926963
vt 0.53206044 0.9926963
vt 0.5320604 0.0025464166
vt 0.5320604 0.0025464166
vt 0.53206044 0.9926963
vt 0.5518852 0.9926963
vt 0.5518847 0.0025464166
vt 0.42971742 0.0025464166
vt 0.42971706 0.9926963
vt 0.49907666 0.9926963
vt 0.49907663 0.0025464166
vt 0.5518847 0.0025464166
vt 0.5518852 0.9926963
vt 0.6378589 0.9926963
vt 0.63785857 0.0025464166
vt 0.0013838187 0.0025464166
vt 0.0013838187 0.9926963
vt 0.03305576 0.9926963
vt 0.033056118 0.0025464166
vt 0.11899934 0.9926963
vt 0.1189997 0.0025464166
vt 0.15311792 0.9926963
vt 0.15311828 0.0025464166
vt 0.15311828 0.0025464166
vt 0.15311792 0.9926963
vt 0.18659124 0.9926963
vt 0.1865916 0.0025464166
vt 0.23714754 0.9926963
vt 0.2371479 0.0025464166
vn 0.9826963 0 0.18522413
vn 0.9753407 0 0.2207047
vn 0.9753407 0 0.2207047
vn 0.9826963 0 0.18522413
vn 0.9895806 0 0.14398019
vn 0.9895806 0 0.14398019
vn 0.20624879 0 -0.97849965
vn 0.20624878 0 -0.97849965
vn 0.20624879 0 -0.97849965
vn 0.20624878 0 -0.97849965
vn 0.036969822 0 0.99931633
vn 0.036969822 0 0.99931633
vn 0.036969822 0 0.99931633
vn 0.036969822 0 0.99931633
vn 0.28769678 1.0317702E-07 -0.95772153
vn 0.28769678 1.03177015E-07 -0.95772153
vn 0.2876968 1.0317703E-07 -0.95772153
vn 0.2876968 1.0317703E-07 -0.95772153
vn -0.89504 0 -0.44598597
vn -0.89504 0 -0.44598597
vn -0.92061085 0 -0.3904813
vn -0.92061085 0 -0.3904813
vn -0.959586 0 -0.2814153
vn -0.959586 0 -0.2814153
vn -0.97931516 0 -0.20234099
vn -0.97931516 0 -0.20234099
vn -0.99461335 0 -0.103654094
vn -0.99461335 0 -0.103654094
vn -0.99999905 0 -0.0013926154
vn -0.99999905 0 -0.0013926154
vn -0.9986675 0 0.051607616
vn -0.9986675 0 0.051607616
vn 0.9182037 -1.0620793E-06 0.3961087
vn 0.9182037 -1.0620793E-06 0.3961087
vn 0.9182036 -1.0620793E-06 0.3961087
vn 0.9182036 -1.0620794E-06 0.3961087
vn 0.3330703 -8.304119E-06 -0.942902
vn 0.3330703 -8.304119E-06 -0.942902
vn 0.33307028 -8.304119E-06 -0.942902
vn 0.3330703 -8.304119E-06 -0.942902
vn -0.9252464 -1.5676371E-06 -0.3793665
vn -0.9252464 -1.567637E-06 -0.3793665
vn -0.9252464 -1.567637E-06 -0.37936646
vn -0.9252464 -1.5676371E-06 -0.3793665
vn 0.93125933 0 0.3643572
vn 0.93125933 0 0.3643572
vn 0.9312592 0 0.36435723
vn 0.9312592 0 0.36435717
vn 0.289897 0 -0.95705783
vn 0.28989702 0 -0.95705783
vn 0.28989702 0 -0.95705783
vn 0.289897 0 -0.95705783
vn 0.12584516 0 0.9920499
vn 0.12584516 0 0.9920499
vn 0.13693051 0 0.9905806
vn 0.13693051 0 0.9905806
vn 0.13652863 0 0.99063617
vn 0.13652863 0 0.99063617
vn 0.12522435 0 0.9921285
vn 0.12522435 0 0.9921285
vn 0.9983499 0 -0.057423703
vn 0.9983499 0 -0.057423703
vn 0.9999962 0 -0.002751715
vn 0.9999962 0 -0.002751715
vn 0.9994404 0 0.03345107
vn 0.9994404 0 0.03345107
g sector_4DB_extrude_0
f 3/3/3 2/2/2 1/1/1
f 2/2/2 4/4/4 1/1/1
f 1/1/1 4/4/4 5/5/5
f 4/4/4 6/6/6 5/5/5
f 9/9/9 8/8/8 7/7/7
f 10/10/10 9/9/9 7/7/7
f 13/13/13 12/12/12 11/11/11
f 14/14/14 13/13/13 11/11/11
f 17/17/17 16/16/16 15/15/15
f 18/18/18 17/17/17 15/15/15
f 21/21/21 20/20/20 19/19/19
f 22/22/22 21/21/21 19/19/19
f 23/23/23 21/21/21 22/22/22
f 24/24/24 23/23/23 22/22/22
f 25/25/25 23/23/23 24/24/24
f 26/26/26 25/25/25 24/24/24
f 27/27/27 25/25/25 26/26/26
f 28/28/28 27/27/27 26/26/26
f 29/29/29 27/27/27 28/28/28
f 30/30/30 29/29/29 28/28/28
f 31/31/31 29/29/29 30/30/30
f 32/32/32 31/31/31 30/30/30
f 35/35/35 34/34/34 33/33/33
f 36/36/36 35/35/35 33/33/33
f 39/39/39 38/38/38 37/37/37
f 40/40/40 39/39/39 37/37/37
f 43/43/43 42/42/42 41/41/41
f 44/44/44 43/43/43 41/41/41
f 47/47/47 46/46/46 45/45/45
f 48/48/48 47/47/47 45/45/45
f 51/51/51 50/50/50 49/49/49
f 52/52/52 51/51/51 49/49/49
f 55/55/55 54/54/54 53/53/53
f 56/56/56 55/55/55 53/53/53
f 57/57/57 55/55/55 56/56/56
f 58/58/58 57/57/57 56/56/56
f 59/59/59 57/57/57 58/58/58
f 60/60/60 59/59/59 58/58/58
f 63/63/63 62/62/62 61/61/61
f 64/64/64 63/63/63 61/61/61
f 65/65/65 63/63/63 64/64/64
f 66/66/66 65/65/65 64/64/64
