g sector_6L_extrude
v 0.14400043 -0.040000036 0.2282593
v 0.14400043 0.03999996 0.2282593
v 0.18392093 0.03999996 0.19331604
v 0.18392116 -0.040000036 0.19331639
v 0.31260434 0.03999996 0.10553806
v 0.31260455 -0.040000036 0.105538405
v 0.15384807 -0.040000036 0.17059493
v 0.15384845 0.03999996 0.17059445
v 0.11213139 0.03999996 0.20459263
v 0.11213139 -0.040000036 0.20459263
v 0.11213139 -0.040000036 0.20459263
v 0.11213139 0.03999996 0.20459263
v 0.14400043 0.03999996 0.2282593
v 0.14400043 -0.040000036 0.2282593
v -0.15341862 -0.040000036 -0.18683897
v -0.26086056 0.03999996 -0.2282593
v -0.26086056 -0.040000036 -0.2282593
v -0.15341862 0.03999996 -0.18683897
v -0.06514888 -0.040000036 -0.14285314
v -0.06514881 0.03999996 -0.14285307
v -0.26086056 -0.040000036 -0.2282593
v -0.26086056 0.03999996 -0.2282593
v -0.31260455 0.03999996 -0.14255953
v -0.31260455 -0.040000036 -0.14255953
v -0.31260455 -0.040000036 -0.14255953
v -0.31260455 0.03999996 -0.14255953
v -0.1986835 0.03999996 -0.09538099
v -0.19868366 -0.040000036 -0.0953811
v -0.19868366 -0.040000036 -0.0953811
v -0.1986835 0.03999996 -0.09538099
v -0.24768879 0.03999996 -0.017725544
v -0.24768893 -0.040000036 -0.017725658
v -0.24768893 -0.040000036 -0.017725658
v -0.24768879 0.03999996 -0.017725544
v -0.15540439 0.03999996 0.023299312
v -0.15540463 -0.040000036 0.023299694
v -0.059515417 0.040000036 0.0771132
v -0.059515495 -0.03999996 0.07711336
v -0.0070275497 0.040000036 0.11671829
v -0.007027397 -0.03999996 0.11671804
v -0.007027397 -0.03999996 0.11671804
v -0.0070275497 0.040000036 0.11671829
v 0.029557532 0.040000036 0.077249356
v 0.029557152 -0.03999996 0.07724985
v 0.20923962 -0.040000036 0.020669574
v 0.20923962 0.03999996 0.020669574
v 0.22698902 0.03999996 0.003902874
v 0.22698902 -0.040000036 0.003902874
v 0.22698902 -0.040000036 0.003902874
v 0.22698902 0.03999996 0.003902874
v 0.08693294 0.03999996 -0.08688577
v 0.08693294 -0.040000036 -0.08688577
v -0.050872687 0.03999996 -0.16436464
v -0.05087276 -0.040000036 -0.16436471
v -0.05087276 -0.040000036 -0.16436471
v -0.050872687 0.03999996 -0.16436464
v -0.06514881 0.03999996 -0.14285307
v -0.06514888 -0.040000036 -0.14285314
v 0.31260455 -0.040000036 0.105538405
v 0.31260434 0.03999996 0.10553806
v 0.20923962 0.03999996 0.020669574
v 0.20923962 -0.040000036 0.020669574
v 0.029557152 -0.03999996 0.07724985
v 0.029557532 0.040000036 0.077249356
v 0.15384845 0.03999996 0.17059445
v 0.15384807 -0.040000036 0.17059493
vt 0.5094441 0.0025464166
vt 0.50944376 0.9926963
vt 0.48050946 0.9926963
vt 0.48050988 0.0025464166
vt 0.39555568 0.9926963
vt 0.39555603 0.0025464166
vt 0.5604432 0.0025464166
vt 0.5604432 0.9926963
vt 0.53109294 0.9926963
vt 0.5310933 0.0025464166
vt 0.5310933 0.0025464166
vt 0.53109294 0.9926963
vt 0.50944376 0.9926963
vt 0.5094441 0.0025464166
vt 0.06418413 0.0025464166
vt 0.001383841 0.9926963
vt 0.001383841 0.0025464166
vt 0.06418401 0.9926963
vt 0.117970526 0.0025464166
vt 0.11797041 0.9926963
vt 0.9973999 0.0025464166
vt 0.9973999 0.9926963
vt 0.9428023 0.9926963
vt 0.94280183 0.0025464166
vt 0.94280183 0.0025464166
vt 0.9428023 0.9926963
vt 0.87555504 0.9926963
vt 0.8755547 0.0025464166
vt 0.8755547 0.0025464166
vt 0.87555504 0.9926963
vt 0.8254756 0.9926963
vt 0.8254751 0.0025464166
vt 0.8254751 0.0025464166
vt 0.8254756 0.9926963
vt 0.7703965 0.9926963
vt 0.770396 0.0025464166
vt 0.710428 0.9926963
vt 0.7104275 0.0025464166
vt 0.6745674 0.9926963
vt 0.6745669 0.0025464166
vt 0.6745669 0.0025464166
vt 0.6745674 0.9926963
vt 0.64521676 0.9926963
vt 0.64521676 0.0025464166
vt 0.32261574 0.0025464166
vt 0.32261562 0.9926963
vt 0.3092994 0.9926963
vt 0.30929953 0.0025464166
vt 0.30929953 0.0025464166
vt 0.3092994 0.9926963
vt 0.21827132 0.9926963
vt 0.21827143 0.0025464166
vt 0.13205081 0.9926963
vt 0.13205093 0.0025464166
vt 0.13205093 0.0025464166
vt 0.13205081 0.9926963
vt 0.11797041 0.9926963
vt 0.117970526 0.0025464166
vt 0.39555603 0.0025464166
vt 0.39555568 0.9926963
vt 0.32261562 0.9926963
vt 0.32261574 0.0025464166
vt 0.64521676 0.0025464166
vt 0.64521676 0.9926963
vt 0.5604432 0.9926963
vt 0.5604432 0.0025464166
vn 0.65863854 2.876113E-06 0.75245947
vn 0.65863854 2.876113E-06 0.75245947
vn 0.5884853 5.9032986E-06 0.80850786
vn 0.5884854 5.9032986E-06 0.80850786
vn 0.56350935 6.9234616E-06 0.8261097
vn 0.56350935 6.9234616E-06 0.8261097
vn -0.6317443 -1.2064012E-06 -0.7751768
vn -0.63174427 -1.2064012E-06 -0.7751768
vn -0.6317442 -1.2064011E-06 -0.7751768
vn -0.6317442 -1.2064011E-06 -0.7751768
vn -0.5962025 0 0.8028341
vn -0.5962025 0 0.8028341
vn -0.5962025 0 0.8028341
vn -0.5962025 0 0.8028341
vn 0.39996296 0 -0.9165313
vn 0.359709 0 -0.9330646
vn 0.359709 0 -0.9330646
vn 0.39996296 0 -0.9165313
vn 0.44600433 0 -0.8950308
vn 0.44600433 0 -0.8950308
vn -0.8560611 0 -0.5168746
vn -0.8560611 0 -0.5168746
vn -0.8560611 0 -0.5168746
vn -0.8560611 0 -0.5168746
vn -0.38262007 -3.093742E-07 0.9239058
vn -0.38262007 -3.093742E-07 0.9239058
vn -0.38262007 -3.0937414E-07 0.9239058
vn -0.38262013 -3.0937417E-07 0.9239058
vn -0.84568703 2.5875122E-06 -0.5336792
vn -0.84568703 2.587512E-06 -0.5336792
vn -0.84568703 2.5875122E-06 -0.5336792
vn -0.84568703 2.587512E-06 -0.5336792
vn -0.4062196 2.7916712E-06 0.9137755
vn -0.40621954 2.791671E-06 0.9137755
vn -0.45006675 3.4189113E-06 0.89299494
vn -0.4500667 3.4189104E-06 0.89299494
vn -0.53279704 2.1535893E-06 0.8462431
vn -0.5327971 2.1535898E-06 0.846243
vn -0.6023226 -9.261729E-07 0.7982527
vn -0.6023226 -9.261729E-07 0.7982527
vn 0.733391 -1.8865181E-07 0.6798071
vn 0.733391 -1.8865181E-07 0.6798071
vn 0.733391 -1.8865182E-07 0.6798071
vn 0.733391 -1.8865181E-07 0.6798071
vn 0.6866966 0 0.7269442
vn 0.6866966 0 0.7269442
vn 0.6866966 0 0.7269442
vn 0.6866966 0 0.7269442
vn 0.5439444 0 -0.83912116
vn 0.5439444 0 -0.83912116
vn 0.5180013 0 -0.8553798
vn 0.5180013 0 -0.8553798
vn 0.4900846 0 -0.87167484
vn 0.4900846 0 -0.8716749
vn -0.833209 1.4986571E-06 -0.55295825
vn -0.8332089 1.498657E-06 -0.5529583
vn -0.833209 1.4986571E-06 -0.55295825
vn -0.8332089 1.498657E-06 -0.5529583
vn 0.634569 -6.290623E-07 -0.7728663
vn 0.63456887 -6.290623E-07 -0.7728663
vn 0.63456887 -6.290623E-07 -0.7728663
vn 0.63456887 -6.290623E-07 -0.7728663
vn -0.6005221 7.506515E-06 0.7996082
vn -0.6005221 7.506515E-06 0.7996082
vn -0.6005221 7.506515E-06 0.7996082
vn -0.6005221 7.506515E-06 0.7996082
g sector_6L_extrude_0
f 3/3/3 2/2/2 1/1/1
f 4/4/4 3/3/3 1/1/1
f 5/5/5 3/3/3 4/4/4
f 6/6/6 5/5/5 4/4/4
f 9/9/9 8/8/8 7/7/7
f 10/10/10 9/9/9 7/7/7
f 13/13/13 12/12/12 11/11/11
f 14/14/14 13/13/13 11/11/11
f 17/17/17 16/16/16 15/15/15
f 16/16/16 18/18/18 15/15/15
f 15/15/15 18/18/18 19/19/19
f 18/18/18 20/20/20 19/19/19
f 23/23/23 22/22/22 21/21/21
f 24/24/24 23/23/23 21/21/21
f 27/27/27 26/26/26 25/25/25
f 28/28/28 27/27/27 25/25/25
f 31/31/31 30/30/30 29/29/29
f 32/32/32 31/31/31 29/29/29
f 35/35/35 34/34/34 33/33/33
f 36/36/36 35/35/35 33/33/33
f 37/37/37 35/35/35 36/36/36
f 38/38/38 37/37/37 36/36/36
f 39/39/39 37/37/37 38/38/38
f 40/40/40 39/39/39 38/38/38
f 43/43/43 42/42/42 41/41/41
f 44/44/44 43/43/43 41/41/41
f 47/47/47 46/46/46 45/45/45
f 48/48/48 47/47/47 45/45/45
f 51/51/51 50/50/50 49/49/49
f 52/52/52 51/51/51 49/49/49
f 53/53/53 51/51/51 52/52/52
f 54/54/54 53/53/53 52/52/52
f 57/57/57 56/56/56 55/55/55
f 58/58/58 57/57/57 55/55/55
f 61/61/61 60/60/60 59/59/59
f 62/62/62 61/61/61 59/59/59
f 65/65/65 64/64/64 63/63/63
f 66/66/66 65/65/65 63/63/63
