g tb_09_mesh
v 0.1804117 0.16111669 -0.20566088
v 0.21961437 0.12590072 -0.22625889
v 0.18971403 0.09600037 -0.24486355
v 0.12791997 0.16111669 -0.20831868
v 0.15981369 0.066764474 -0.25881705
v 0.07077709 0.10330936 -0.25748813
v 0.07077709 0.019588381 -0.2827373
v 0.15981369 0.019588381 -0.28473067
v 0.15981369 -0.026923269 -0.28473067
v 0.07542828 0.13520303 -0.23821902
v 0.07542828 0.16111669 -0.20831868
v 0.026923269 0.13520303 -0.24619246
v 0.023600996 0.16111669 -0.22027883
v 0.018285394 0.08271134 -0.26546156
v -0.05347544 0.14184758 -0.24818581
v -0.005634904 0.19633266 -0.21496321
v -0.05347544 0.19633266 -0.2136343
v 0.07077709 -0.026923269 -0.2834018
v 0.15981369 -0.07409936 -0.2634682
v -0.042844206 0.11460504 -0.26745492
v -0.101316005 0.14184758 -0.25748813
v -0.101316005 0.19633266 -0.21296985
v -0.101316005 0.105967164 -0.27144164
v -0.14915654 0.14184758 -0.24752136
v -0.14915654 0.19633266 -0.21695656
v -0.042844206 0.069422305 -0.27675724
v 0.016956478 0.026232898 -0.28074396
v -0.19699708 0.14184758 -0.24087684
v -0.19699708 0.19633266 -0.22360109
v -0.15779445 0.09998709 -0.27409944
v 0.016292036 -0.025594354 -0.2834018
v -0.10264489 0.05613324 -0.27808616
v -0.04616648 0.019588381 -0.2800795
v -0.24550208 0.14184758 -0.25549477
v -0.24550208 0.19633266 -0.20233862
v -0.29334262 0.19633266 -0.1790828
v -0.2940071 0.14184758 -0.24619246
v -0.24616656 0.10330936 -0.27144164
v -0.29533598 0.08802694 -0.28140843
v -0.27673134 0.061448872 -0.2834018
v -0.23619977 0.089355856 -0.2774217
v -0.25746223 0.034870774 -0.28406623
v -0.20895723 0.050153196 -0.28207287
v -0.15912333 0.04882428 -0.27941507
v -0.20895723 -0.017620921 -0.28074396
v -0.25746223 -0.017620921 -0.28207287
v -0.25746223 -0.070112646 -0.27542835
v -0.15845886 -0.0116408765 -0.28074396
v -0.20829275 -0.070112646 -0.2760928
v -0.25746223 -0.12260437 -0.26811936
v -0.11061832 -0.017620921 -0.28207287
v -0.15845886 -0.0694482 -0.2760928
v -0.04616648 -0.026923269 -0.2834018
v -0.10463825 -0.070112646 -0.27409944
v -0.15845886 -0.12260437 -0.26745492
v -0.20829275 -0.12260437 -0.2687838
v -0.20829275 -0.17443162 -0.26944828
v -0.25746223 -0.17509608 -0.26944828
v -0.25746223 -0.22692335 -0.27210608
v -0.04417312 -0.072106004 -0.27011272
v -0.10463825 -0.12326881 -0.26413268
v -0.15845886 -0.17576054 -0.26811936
v -0.20829275 -0.22692335 -0.27210608
v 0.016956478 -0.072106004 -0.26546156
v -0.04350865 -0.12326881 -0.2581526
v -0.20829275 -0.27941507 -0.26280376
v -0.25679776 -0.27941507 -0.26479712
v -0.25679776 -0.33190677 -0.24685691
v -0.15912333 -0.22958115 -0.27210608
v -0.105967164 -0.1777539 -0.26479712
v -0.20829275 -0.33522904 -0.24353464
v -0.25679776 -0.3843985 -0.2428702
v -0.20829275 -0.3843985 -0.2441991
v -0.15912333 -0.2827373 -0.26014596
v -0.15912333 -0.33522904 -0.2428702
v -0.15912333 -0.3843985 -0.24353464
v -0.10928941 -0.2329034 -0.26944828
v -0.11061832 -0.33522904 -0.24220574
v -0.11061832 -0.3843985 -0.24087684
v -0.11061832 -0.28473067 -0.25748813
v -0.06344223 -0.23888348 -0.26479712
v -0.061448872 -0.33522904 -0.2415413
v -0.061448872 -0.3843985 -0.24021238
v -0.062113315 -0.2860596 -0.25350142
v -0.042844206 -0.18572731 -0.25748813
v -0.012943864 -0.33522904 -0.24353464
v -0.012943864 -0.3843985 -0.24087684
v -0.013608307 -0.28672403 -0.2508436
v -0.015601665 -0.23954794 -0.26014596
v 0.018949836 -0.11994657 -0.25217253
v 0.036225587 -0.33522904 -0.24619246
v 0.036225587 -0.3843985 -0.23954794
v 0.035561144 -0.2860596 -0.25150806
v 0.025594354 -0.1777539 -0.25217253
v 0.084730595 -0.33522904 -0.25283697
v 0.084730595 -0.3843985 -0.24951471
v 0.031574428 -0.23489676 -0.2568237
v 0.08273724 -0.17708944 -0.25217253
v 0.07077709 -0.103999704 -0.24951471
v 0.084730595 -0.2860596 -0.25483033
v 0.13390005 -0.33522904 -0.26147485
v 0.13390005 -0.3843985 -0.25483033
v 0.18240505 -0.3843985 -0.2441991
v 0.18240505 -0.33522904 -0.2568237
v 0.08406615 -0.23489676 -0.25748813
v 0.13390005 -0.28672403 -0.2581526
v 0.18240505 -0.28672403 -0.25615925
v 0.13390005 -0.23755458 -0.2568237
v 0.18240505 -0.23755458 -0.2541659
v 0.18240505 -0.18904957 -0.25549477
v 0.13390005 -0.18904957 -0.25483033
v 0.18306951 -0.13988012 -0.2541659
v 0.15981369 -0.12061101 -0.25283697
v 0.07077709 -0.07409936 -0.26213932
vt 0.6136263 0.30598584
vt 0.6385701 0.29212815
vt 0.6607424 0.30321428
vt 0.6136263 0.32538658
vt 0.6801431 0.31430042
vt 0.6551993 0.34478733
vt 0.71340156 0.34478733
vt 0.71340156 0.31430042
vt 0.74666 0.31430042
vt 0.6330271 0.3420158
vt 0.6136263 0.3420158
vt 0.6330271 0.36141655
vt 0.6136263 0.36141655
vt 0.669057 0.36418808
vt 0.62748396 0.3891319
vt 0.5886825 0.37250268
vt 0.5886825 0.3891319
vt 0.74666 0.34478733
vt 0.77991843 0.31430042
vt 0.6468847 0.38636035
vt 0.62748396 0.40576112
vt 0.5886825 0.40576112
vt 0.6524278 0.40576112
vt 0.62748396 0.42239034
vt 0.5886825 0.42239034
vt 0.6773716 0.38636035
vt 0.7078585 0.36418808
vt 0.62748396 0.43901956
vt 0.5886825 0.43901956
vt 0.6579709 0.42516184
vt 0.74666 0.36418808
vt 0.6884577 0.40576112
vt 0.71340156 0.38636035
vt 0.62748396 0.45842028
vt 0.5886825 0.45842028
vt 0.5886825 0.4750495
vt 0.62748396 0.4750495
vt 0.6551993 0.45842028
vt 0.66628546 0.4750495
vt 0.6829147 0.46950644
vt 0.6635139 0.45287722
vt 0.70231545 0.46119183
vt 0.6912293 0.4445626
vt 0.69400084 0.4279334
vt 0.74111694 0.4445626
vt 0.74111694 0.46119183
vt 0.77714694 0.46119183
vt 0.7355739 0.4279334
vt 0.77714694 0.4445626
vt 0.8131769 0.46119183
vt 0.74111694 0.40853265
vt 0.77714694 0.42516184
vt 0.74666 0.38636035
vt 0.77714694 0.40853265
vt 0.8131769 0.42516184
vt 0.8131769 0.4445626
vt 0.85197836 0.4445626
vt 0.85197836 0.46119183
vt 0.88800836 0.46119183
vt 0.77991843 0.38636035
vt 0.8159484 0.40853265
vt 0.85197836 0.4279334
vt 0.88800836 0.4445626
vt 0.77714694 0.36418808
vt 0.8131769 0.38636035
vt 0.9240383 0.4445626
vt 0.9240383 0.46119183
vt 0.9628398 0.46119183
vt 0.89077985 0.4279334
vt 0.85197836 0.40853265
vt 0.96561134 0.4445626
vt 0.9988698 0.46119183
vt 0.9988698 0.4445626
vt 0.92680985 0.4279334
vt 0.96561134 0.4279334
vt 0.9988698 0.4279334
vt 0.89077985 0.40853265
vt 0.96561134 0.40853265
vt 0.9988698 0.40853265
vt 0.92958134 0.40853265
vt 0.8963229 0.39190343
vt 0.96561134 0.39190343
vt 0.9988698 0.39190343
vt 0.92958134 0.39190343
vt 0.8575214 0.38636035
vt 0.96561134 0.3752742
vt 0.9988698 0.3752742
vt 0.92958134 0.3752742
vt 0.8963229 0.3752742
vt 0.8131769 0.36418808
vt 0.96561134 0.358645
vt 0.9988698 0.358645
vt 0.92958134 0.358645
vt 0.85197836 0.36141655
vt 0.96561134 0.33924425
vt 0.9988698 0.33924425
vt 0.8935514 0.358645
vt 0.85197836 0.3420158
vt 0.8020907 0.34478733
vt 0.92958134 0.33924425
vt 0.96561134 0.32261503
vt 0.9988698 0.32261503
vt 0.9988698 0.30598584
vt 0.96561134 0.30598584
vt 0.8935514 0.33924425
vt 0.92958134 0.32261503
vt 0.92958134 0.30598584
vt 0.8963229 0.32261503
vt 0.8963229 0.30598584
vt 0.860293 0.30598584
vt 0.860293 0.32261503
vt 0.82703453 0.30598584
vt 0.8131769 0.31430042
vt 0.77991843 0.34478733
vn -0.03911835 -0.52250975 0.8517355
vn -0.021001339 -0.52250975 0.8523746
vn 0.015232742 -0.48627567 0.87367266
vn -0.0934695 -0.55874383 0.8240563
vn -0.05723542 -0.4500416 0.8911715
vn -0.11158651 -0.3956905 0.91157967
vn -0.0028843284 -0.160169 0.98708534
vn 0.015232742 -0.2507542 0.9679309
vn 0.015232742 0.20217168 0.9792316
vn -0.14782059 -0.6130949 0.7760565
vn -0.05723542 -0.7399142 0.670262
vn -0.11158651 -0.55874383 0.8217991
vn -0.1659376 -0.6130949 0.7723855
vn -0.07535243 -0.2869883 0.95496583
vn -0.0934695 -0.52250975 0.84749454
vn -0.12970352 -0.43192455 0.89253473
vn -0.021001339 -0.57686085 0.8165724
vn -0.0028843284 0.20217168 0.9793458
vn 0.033349752 0.32899094 0.943744
vn -0.07535243 -0.3956905 0.9152874
vn 0.015232742 -0.48627567 0.87367266
vn 0.015232742 -0.59497786 0.80359775
vn -0.0028843284 -0.30510533 0.9523142
vn 0.0877009 -0.52250975 0.8481109
vn -0.03911835 -0.4500416 0.8921504
vn -0.05723542 -0.160169 0.9854288
vn -0.0028843284 -0.142052 0.989855
vn -0.07535243 -0.4500416 0.8898228
vn -0.021001339 -0.4500416 0.89276063
vn 0.015232742 -0.34133938 0.93981665
vn -0.0028843284 0.14782059 0.98901
vn -0.0028843284 -0.0877009 0.9961427
vn 0.015232742 -0.06958383 0.99745977
vn 0.015232742 -0.50439274 0.86334
vn 0.30510533 -0.667446 0.67928386
vn 0.2507542 -0.7036801 0.6647982
vn 0.105817914 -0.649329 0.7531098
vn -0.05723542 -0.41380754 0.9085634
vn -0.07535243 -0.35945642 0.93011457
vn -0.0934695 -0.142052 0.98543626
vn -0.021001339 -0.30510533 0.952087
vn -0.03911835 -0.033349752 0.9986779
vn -0.021001339 -0.06958383 0.997355
vn -0.03911835 -0.051466823 0.9979083
vn -0.021001339 0.05723542 0.9981398
vn -0.03911835 0.07535243 0.9963894
vn -0.0028843284 0.12970352 0.9915486
vn -0.0028843284 0.021001339 0.9997753
vn -0.0028843284 0.11158651 0.9937505
vn -0.0028843284 0.05723542 0.9983565
vn 0.015232742 0.03911835 0.99911845
vn -0.0028843284 0.12970352 0.9915486
vn -0.0028843284 0.0934695 0.9956179
vn -0.021001339 0.18405467 0.9826916
vn -0.03911835 0.07535243 0.9963894
vn -0.0028843284 0.05723542 0.9983565
vn -0.021001339 -0.033349752 0.99922305
vn -0.0028843284 -0.033349752 0.99943954
vn -0.0028843284 0.05723542 0.9983565
vn -0.05723542 0.25652277 0.964842
vn -0.07535243 0.0934695 0.99276656
vn -0.03911835 -0.033349752 0.9986779
vn -0.0028843284 0.05723542 0.9983565
vn -0.07535243 0.32899094 0.9413219
vn -0.0934695 0.11158651 0.98934925
vn -0.021001339 0.25652277 0.96630996
vn -0.021001339 0.23840576 0.9709385
vn -0.03911835 0.20217168 0.97856855
vn -0.03911835 0.05723542 0.99759406
vn -0.0934695 -0.033349752 0.9950634
vn -0.021001339 0.1659376 0.9859126
vn -0.021001339 0.03911835 0.99901384
vn -0.0028843284 0.0028843284 0.99999166
vn -0.03911835 0.27463984 0.9607511
vn -0.021001339 0.14782059 0.98879117
vn -0.021001339 0.0028843284 0.9997753
vn -0.05723542 0.05723542 0.99671876
vn -0.021001339 0.14782059 0.98879117
vn -0.021001339 0.021001339 0.9995588
vn -0.05723542 0.25652277 0.964842
vn -0.0934695 0.07535243 0.99276656
vn -0.0028843284 0.12970352 0.9915486
vn -0.0028843284 0.03911835 0.99923044
vn -0.05723542 0.23840576 0.9694776
vn -0.0934695 -0.051466823 0.994291
vn 0.033349752 0.0934695 0.9950634
vn 0.015232742 0.05723542 0.9982445
vn -0.021001339 0.18405467 0.9826916
vn -0.07535243 0.05723542 0.995513
vn -0.07535243 0.11158651 0.9908938
vn 0.06958383 0.0934695 0.99318755
vn 0.06958383 0.11158651 0.99131554
vn 0.033349752 0.11158651 0.993195
vn -0.03911835 -0.051466823 0.9979083
vn 0.160169 0.05723542 0.9854288
vn 0.160169 0.07535243 0.98420924
vn -0.021001339 0.0028843284 0.9997753
vn 0.015232742 -0.051466823 0.9985585
vn -0.021001339 0.18405467 0.9826916
vn 0.0877009 0.03911835 0.9953785
vn -0.0028843284 0.05723542 0.9983565
vn -0.05723542 0.12970352 0.9898996
vn -0.14782059 0.18405467 0.9717371
vn -0.07535243 0.11158651 0.9908938
vn 0.015232742 -0.015232742 0.99976796
vn 0.015232742 -0.033349752 0.99932766
vn -0.03911835 -0.015232742 0.99911845
vn -0.021001339 -0.015232742 0.9996634
vn -0.05723542 0.0028843284 0.9983565
vn 0.015232742 -0.015232742 0.99976796
vn 0.015232742 -0.051466823 0.9985585
vn 0.033349752 -0.033349752 0.9988872
vn 0.051466823 0.05723542 0.99703324
vn -0.021001339 0.4014591 0.9156361
g tb_09_mesh_0
f 3/3/3 2/2/2 1/1/1
f 1/1/1 4/4/4 3/3/3
f 5/5/5 3/3/3 4/4/4
f 4/4/4 6/6/6 5/5/5
f 5/5/5 6/6/6 7/7/7
f 7/7/7 8/8/8 5/5/5
f 9/9/9 8/8/8 7/7/7
f 10/10/10 6/6/6 4/4/4
f 4/4/4 11/11/11 10/10/10
f 12/12/12 10/10/10 11/11/11
f 6/6/6 10/10/10 12/12/12
f 11/11/11 13/13/13 12/12/12
f 7/7/7 6/6/6 14/14/14
f 12/12/12 14/14/14 6/6/6
f 12/12/12 13/13/13 15/15/15
f 15/15/15 13/13/13 16/16/16
f 16/16/16 17/17/17 15/15/15
f 7/7/7 18/18/18 9/9/9
f 19/19/19 9/9/9 18/18/18
f 14/14/14 12/12/12 20/20/20
f 15/15/15 20/20/20 12/12/12
f 21/21/21 15/15/15 17/17/17
f 17/17/17 22/22/22 21/21/21
f 23/23/23 20/20/20 15/15/15
f 15/15/15 21/21/21 23/23/23
f 24/24/24 21/21/21 22/22/22
f 23/23/23 21/21/21 24/24/24
f 22/22/22 25/25/25 24/24/24
f 20/20/20 26/26/26 14/14/14
f 26/26/26 20/20/20 23/23/23
f 14/14/14 27/27/27 7/7/7
f 27/27/27 14/14/14 26/26/26
f 28/28/28 24/24/24 25/25/25
f 25/25/25 29/29/29 28/28/28
f 24/24/24 30/30/30 23/23/23
f 30/30/30 24/24/24 28/28/28
f 7/7/7 27/27/27 31/31/31
f 31/31/31 18/18/18 7/7/7
f 23/23/23 32/32/32 26/26/26
f 32/32/32 23/23/23 30/30/30
f 26/26/26 33/33/33 27/27/27
f 31/31/31 27/27/27 33/33/33
f 33/33/33 26/26/26 32/32/32
f 34/34/34 28/28/28 29/29/29
f 29/29/29 35/35/35 34/34/34
f 34/34/34 35/35/35 36/36/36
f 36/36/36 37/37/37 34/34/34
f 38/38/38 34/34/34 37/37/37
f 28/28/28 34/34/34 38/38/38
f 37/37/37 39/39/39 38/38/38
f 38/38/38 39/39/39 40/40/40
f 38/38/38 41/41/41 28/28/28
f 40/40/40 41/41/41 38/38/38
f 28/28/28 41/41/41 30/30/30
f 41/41/41 40/40/40 42/42/42
f 30/30/30 41/41/41 43/43/43
f 42/42/42 43/43/43 41/41/41
f 30/30/30 44/44/44 32/32/32
f 43/43/43 44/44/44 30/30/30
f 45/45/45 43/43/43 42/42/42
f 42/42/42 46/46/46 45/45/45
f 45/45/45 46/46/46 47/47/47
f 48/48/48 44/44/44 43/43/43
f 32/32/32 44/44/44 48/48/48
f 43/43/43 45/45/45 48/48/48
f 47/47/47 49/49/49 45/45/45
f 49/49/49 47/47/47 50/50/50
f 48/48/48 51/51/51 32/32/32
f 32/32/32 51/51/51 33/33/33
f 52/52/52 48/48/48 45/45/45
f 45/45/45 49/49/49 52/52/52
f 51/51/51 48/48/48 52/52/52
f 53/53/53 33/33/33 51/51/51
f 33/33/33 53/53/53 31/31/31
f 52/52/52 54/54/54 51/51/51
f 53/53/53 51/51/51 54/54/54
f 55/55/55 52/52/52 49/49/49
f 54/54/54 52/52/52 55/55/55
f 50/50/50 56/56/56 49/49/49
f 49/49/49 56/56/56 55/55/55
f 57/57/57 56/56/56 50/50/50
f 55/55/55 56/56/56 57/57/57
f 50/50/50 58/58/58 57/57/57
f 57/57/57 58/58/58 59/59/59
f 31/31/31 53/53/53 60/60/60
f 54/54/54 60/60/60 53/53/53
f 55/55/55 61/61/61 54/54/54
f 60/60/60 54/54/54 61/61/61
f 57/57/57 62/62/62 55/55/55
f 61/61/61 55/55/55 62/62/62
f 59/59/59 63/63/63 57/57/57
f 62/62/62 57/57/57 63/63/63
f 60/60/60 64/64/64 31/31/31
f 18/18/18 31/31/31 64/64/64
f 61/61/61 65/65/65 60/60/60
f 64/64/64 60/60/60 65/65/65
f 66/66/66 63/63/63 59/59/59
f 59/59/59 67/67/67 66/66/66
f 66/66/66 67/67/67 68/68/68
f 63/63/63 69/69/69 62/62/62
f 69/69/69 63/63/63 66/66/66
f 62/62/62 70/70/70 61/61/61
f 65/65/65 61/61/61 70/70/70
f 70/70/70 62/62/62 69/69/69
f 68/68/68 71/71/71 66/66/66
f 71/71/71 68/68/68 72/72/72
f 72/72/72 73/73/73 71/71/71
f 66/66/66 74/74/74 69/69/69
f 74/74/74 66/66/66 71/71/71
f 75/75/75 71/71/71 73/73/73
f 71/71/71 75/75/75 74/74/74
f 73/73/73 76/76/76 75/75/75
f 77/77/77 69/69/69 74/74/74
f 69/69/69 77/77/77 70/70/70
f 78/78/78 75/75/75 76/76/76
f 76/76/76 79/79/79 78/78/78
f 80/80/80 74/74/74 75/75/75
f 74/74/74 80/80/80 77/77/77
f 75/75/75 78/78/78 80/80/80
f 70/70/70 77/77/77 81/81/81
f 81/81/81 77/77/77 80/80/80
f 82/82/82 78/78/78 79/79/79
f 79/79/79 83/83/83 82/82/82
f 84/84/84 80/80/80 78/78/78
f 80/80/80 84/84/84 81/81/81
f 78/78/78 82/82/82 84/84/84
f 81/81/81 85/85/85 70/70/70
f 70/70/70 85/85/85 65/65/65
f 86/86/86 82/82/82 83/83/83
f 83/83/83 87/87/87 86/86/86
f 88/88/88 84/84/84 82/82/82
f 82/82/82 86/86/86 88/88/88
f 89/89/89 81/81/81 84/84/84
f 84/84/84 88/88/88 89/89/89
f 85/85/85 81/81/81 89/89/89
f 90/90/90 65/65/65 85/85/85
f 65/65/65 90/90/90 64/64/64
f 91/91/91 86/86/86 87/87/87
f 87/87/87 92/92/92 91/91/91
f 93/93/93 88/88/88 86/86/86
f 89/89/89 88/88/88 93/93/93
f 86/86/86 91/91/91 93/93/93
f 94/94/94 85/85/85 89/89/89
f 85/85/85 94/94/94 90/90/90
f 95/95/95 91/91/91 92/92/92
f 92/92/92 96/96/96 95/95/95
f 89/89/89 97/97/97 94/94/94
f 93/93/93 97/97/97 89/89/89
f 90/90/90 94/94/94 98/98/98
f 98/98/98 94/94/94 97/97/97
f 64/64/64 90/90/90 99/99/99
f 98/98/98 99/99/99 90/90/90
f 91/91/91 95/95/95 100/100/100
f 100/100/100 93/93/93 91/91/91
f 101/101/101 95/95/95 96/96/96
f 100/100/100 95/95/95 101/101/101
f 96/96/96 102/102/102 101/101/101
f 101/101/101 102/102/102 103/103/103
f 103/103/103 104/104/104 101/101/101
f 105/105/105 97/97/97 93/93/93
f 97/97/97 105/105/105 98/98/98
f 93/93/93 100/100/100 105/105/105
f 106/106/106 101/101/101 104/104/104
f 101/101/101 106/106/106 100/100/100
f 104/104/104 107/107/107 106/106/106
f 100/100/100 106/106/106 108/108/108
f 108/108/108 106/106/106 107/107/107
f 108/108/108 105/105/105 100/100/100
f 107/107/107 109/109/109 108/108/108
f 108/108/108 109/109/109 110/110/110
f 105/105/105 108/108/108 111/111/111
f 110/110/110 111/111/111 108/108/108
f 111/111/111 98/98/98 105/105/105
f 111/111/111 110/110/110 112/112/112
f 112/112/112 113/113/113 111/111/111
f 98/98/98 111/111/111 113/113/113
f 113/113/113 99/99/99 98/98/98
f 99/99/99 113/113/113 19/19/19
f 19/19/19 114/114/114 99/99/99
f 99/99/99 114/114/114 64/64/64
f 18/18/18 114/114/114 19/19/19
f 64/64/64 114/114/114 18/18/18
