g tb_03_mesh
v 0.20657104 -0.16127765 -0.28693032
v 0.24017583 -0.16127765 -0.28546923
v 0.24017583 -0.21387643 -0.27816385
v 0.24017583 -0.1079483 -0.2883914
v 0.20657104 -0.21387643 -0.27962494
v 0.24017583 -0.26720577 -0.28400815
v 0.20657104 -0.26720577 -0.28473872
v 0.24017583 -0.32053512 -0.28912193
v 0.20657104 -0.32053512 -0.28912193
v 0.24017583 -0.37386444 -0.2752417
v 0.20657104 -0.37386444 -0.2752417
v 0.24017583 -0.42646325 -0.25332552
v 0.13716987 -0.31980455 -0.28693032
v 0.13716987 -0.26647523 -0.2825471
v 0.20657104 -0.42646325 -0.2547866
v 0.24017583 -0.47979257 -0.25405607
v 0.18392435 -0.47979257 -0.2562477
v 0.13570878 -0.37240335 -0.27158898
v 0.12767285 -0.42500216 -0.25405607
v 0.12767285 -0.47979257 -0.25770876
v 0.0721519 -0.47979257 -0.24748123
v 0.07434353 -0.31907403 -0.26720577
v 0.13716987 -0.21241537 -0.28108603
v 0.07361299 -0.3716728 -0.25551715
v 0.0721519 -0.42500216 -0.24163692
v 0.07434353 -0.2657447 -0.2737806
v 0.015900403 -0.42500216 -0.21825966
v 0.015900403 -0.47979257 -0.22702613
v -0.040351063 -0.47979257 -0.20510998
v 0.015900403 -0.3709423 -0.23067883
v 0.016630948 -0.3183435 -0.24602014
v -0.040351063 -0.42500216 -0.20657104
v -0.095872015 -0.47979257 -0.1999962
v -0.040351063 -0.3709423 -0.21241537
v -0.095872015 -0.42500216 -0.20510998
v -0.15212348 -0.47979257 -0.19269082
v -0.15212348 -0.42500216 -0.19561297
v -0.208375 -0.47979257 -0.18757704
v -0.208375 -0.42500216 -0.17734951
v -0.208375 -0.3694812 -0.19853511
v -0.09660259 -0.37021175 -0.22483453
v -0.15285406 -0.3694812 -0.21460697
v -0.208375 -0.3146908 -0.19634351
v -0.040351063 -0.31688243 -0.2321399
v -0.09660259 -0.31542134 -0.2394453
v -0.15285406 -0.3146908 -0.22191235
v -0.20910552 -0.2599004 -0.19707406
v 0.016630948 -0.2642836 -0.2642836
v -0.040351063 -0.262092 -0.2584393
v -0.09660259 -0.2599004 -0.23798421
v -0.15285406 -0.2599004 -0.22702613
v -0.20910552 -0.20510998 -0.20145726
v 0.07434353 -0.21095428 -0.2825471
v 0.016630948 -0.20876268 -0.28181654
v -0.040351063 -0.2058405 -0.26647523
v -0.09660259 -0.2036489 -0.2321399
v -0.15285406 -0.20437944 -0.20145726
v -0.15285406 -0.14958903 -0.20437944
v -0.20910552 -0.14958903 -0.17881057
v -0.20910552 -0.094798625 -0.18392435
v -0.15358457 -0.071421355 -0.18976864
v -0.23832712 -0.06557706 -0.15689442
v 0.13570878 -0.15105009 -0.28912193
v 0.07288244 -0.15031955 -0.28619978
v 0.015900403 -0.14958903 -0.28035545
v -0.03962055 -0.1452058 -0.2679363
v -0.095872015 -0.14301416 -0.24090637
v 0.014439344 -0.09041539 -0.25551715
v -0.03669837 -0.08018783 -0.24163692
v 0.06703815 -0.0867627 -0.2679363
v 0.20657104 -0.094798625 -0.28546923
v -0.09294984 -0.07361299 -0.22191235
v 0.03197226 -0.024666876 -0.23360099
v 0.1284034 -0.06922975 -0.2752417
v 0.23506206 -0.06265491 -0.2825471
v 0.2606309 -0.08530161 -0.28693032
v 0.28035545 -0.06265491 -0.28546923
v 0.28035545 -0.012247711 -0.28035545
v -0.03158459 -0.018092036 -0.22629559
v 0.088223755 0.0016325116 -0.22410399
v 0.17515787 -0.019553125 -0.25916985
v 0.23506206 0.03815946 -0.23360099
v 0.28035545 0.03815946 -0.252595
v 0.28035545 0.08856663 -0.2036489
v 0.22775668 0.13970438 -0.19342136
v 0.28035545 0.13824329 -0.19415188
v 0.25332552 0.16527322 -0.18976864
v 0.22556505 0.19230315 -0.18903813
v 0.1700441 0.19230315 -0.19780457
v 0.13716987 0.052770227 -0.19926566
v 0.11452317 0.13970438 -0.19853511
v 0.11452317 0.19230315 -0.20510998
v 0.06265491 0.06811157 -0.1999962
v 0.05900222 0.13970438 -0.2036489
v 0.05900222 0.19230315 -0.20510998
v -0.0052852035 0.05350074 -0.20949319
v -0.07395586 0.0637283 -0.21606806
v -0.008937895 0.13166842 -0.21022373
v -0.020626515 0.19230315 -0.20072675
v 0.02539742 0.22736898 -0.19853511
v -0.020626515 0.22736898 -0.19415188
v -0.06665048 0.13970438 -0.20657104
v -0.06665048 0.19230315 -0.19780457
v -0.06665048 0.22736898 -0.18903813
v -0.11194387 0.19230315 -0.19561297
v -0.11194387 0.22736898 -0.18465489
v -0.15796784 0.22736898 -0.18246326
v -0.19887802 0.18718937 -0.18903813
v -0.23978814 0.14700976 -0.19342136
v -0.0951415 0.13970438 -0.20510998
v -0.23978814 0.09952471 -0.19561297
v -0.26754865 0.14408758 -0.18392435
v -0.26754865 0.09952471 -0.18903813
v -0.16381213 0.089297146 -0.21022373
v -0.23978814 0.054231316 -0.19269082
v -0.26754865 0.054231316 -0.18538544
v -0.1448181 0.024279207 -0.1999962
v -0.23978814 0.008937895 -0.18027166
v -0.26754865 0.008937895 -0.17515787
v -0.26754865 -0.036355495 -0.1452058
v -0.08199176 -0.00859502 -0.21533751
vt 0.77404416 0.6722728
vt 0.77404416 0.66053
vt 0.8112298 0.66053
vt 0.7368585 0.66053
vt 0.8112298 0.6722728
vt 0.84841555 0.66053
vt 0.84841555 0.6722728
vt 0.8875584 0.66053
vt 0.8875584 0.6722728
vt 0.9247441 0.66053
vt 0.9247441 0.6722728
vt 0.9619298 0.66053
vt 0.8856013 0.69771564
vt 0.84841555 0.69771564
vt 0.9619298 0.6722728
vt 0.99911547 0.66053
vt 0.99911547 0.6801014
vt 0.92278695 0.69771564
vt 0.9599726 0.6996728
vt 0.99911547 0.6996728
vt 0.99911547 0.72120136
vt 0.8856013 0.71924424
vt 0.80927277 0.69771564
vt 0.92278695 0.71924424
vt 0.9599726 0.72120136
vt 0.84841555 0.71924424
vt 0.9599726 0.7407728
vt 0.99911547 0.7407728
vt 0.99911547 0.76034415
vt 0.92278695 0.7407728
vt 0.8856013 0.7407728
vt 0.9599726 0.76034415
vt 0.99911547 0.7799156
vt 0.92278695 0.76034415
vt 0.9599726 0.7799156
vt 0.99911547 0.799487
vt 0.9599726 0.799487
vt 0.99911547 0.8210156
vt 0.9599726 0.8210156
vt 0.9208298 0.8210156
vt 0.9208298 0.7799156
vt 0.9208298 0.799487
vt 0.8836441 0.8210156
vt 0.8836441 0.76034415
vt 0.8836441 0.7799156
vt 0.8816869 0.799487
vt 0.84450126 0.8210156
vt 0.84645844 0.7407728
vt 0.84450126 0.76034415
vt 0.84450126 0.7799156
vt 0.84450126 0.799487
vt 0.8053584 0.8210156
vt 0.80927277 0.71924424
vt 0.8073156 0.7407728
vt 0.8053584 0.76034415
vt 0.8053584 0.7799156
vt 0.8053584 0.799487
vt 0.7662156 0.8014442
vt 0.7662156 0.8210156
vt 0.7270728 0.8210156
vt 0.71141565 0.8014442
vt 0.70750135 0.83080125
vt 0.7662156 0.69771564
vt 0.7662156 0.71924424
vt 0.7662156 0.7407728
vt 0.7623013 0.76034415
vt 0.7623013 0.7799156
vt 0.72511566 0.7407728
vt 0.71728706 0.7583871
vt 0.72120136 0.72120136
vt 0.7270728 0.6722728
vt 0.71337277 0.7799156
vt 0.6781442 0.7349013
vt 0.7094585 0.6996728
vt 0.70554423 0.6624871
vt 0.72120136 0.6527014
vt 0.70554423 0.64682996
vt 0.66835856 0.64682996
vt 0.6722728 0.7564299
vt 0.6585728 0.71532995
vt 0.67423 0.68401563
vt 0.63312995 0.6624871
vt 0.63312995 0.64682996
vt 0.5979014 0.64682996
vt 0.56267285 0.6644442
vt 0.56267285 0.64682996
vt 0.5431015 0.6566157
vt 0.5254872 0.6664014
vt 0.5254872 0.6859728
vt 0.6233443 0.69771564
vt 0.56267285 0.70554423
vt 0.5254872 0.70554423
vt 0.6116014 0.7231585
vt 0.56267285 0.72511566
vt 0.5254872 0.72511566
vt 0.6233443 0.7486013
vt 0.6155157 0.77208704
vt 0.56658715 0.7486013
vt 0.5254872 0.7525156
vt 0.50004435 0.7368585
vt 0.50004435 0.7525156
vt 0.56267285 0.7701299
vt 0.5254872 0.7701299
vt 0.50004435 0.7701299
vt 0.5254872 0.785787
vt 0.50004435 0.785787
vt 0.50004435 0.8014442
vt 0.5274443 0.8171013
vt 0.55680144 0.83080125
vt 0.56267285 0.7799156
vt 0.5900729 0.83080125
vt 0.5587586 0.840587
vt 0.5900729 0.840587
vt 0.5979014 0.8034013
vt 0.6233443 0.83080125
vt 0.6233443 0.840587
vt 0.64291567 0.7975299
vt 0.65465856 0.83080125
vt 0.65465856 0.840587
vt 0.6859728 0.840587
vt 0.6664014 0.77600133
vn -0.019385695 0.079125285 0.99667615
vn -0.04925549 0.09406018 0.99434733
vn -0.034320593 0.019385695 0.9992228
vn 0.040353894 -0.05528882 0.9976546
vn -0.019385695 0.019385695 0.99962413
vn -0.019385695 -0.100093514 0.9947892
vn 0.010484099 -0.100093514 0.9949228
vn -0.004450798 0.079125285 0.9968548
vn 0.010484099 0.079125285 0.99680954
vn -0.004450798 0.31808364 0.9480522
vn 0.025418997 0.31808364 0.94772184
vn -0.04925549 0.16873467 0.98443
vn 0.1598331 0.09406018 0.9826526
vn 0.100093514 -0.040353894 0.99415934
vn -0.019385695 0.16873467 0.98547083
vn -0.034320593 -0.025418997 0.9990876
vn -0.019385695 -0.040353894 0.9989974
vn 0.1448982 0.28821385 0.94653964
vn 0.11502841 0.10899508 0.9873645
vn 0.07022372 -0.07022372 0.9950564
vn 0.27931228 -0.100093514 0.9549691
vn 0.29424718 0.15379977 0.9432732
vn -0.004450798 0.079125285 0.9968548
vn 0.3091821 0.22847426 0.92315
vn 0.3091821 0.06419039 0.948834
vn 0.1598331 0.13886487 0.97732794
vn 0.324117 0.04925549 0.94473386
vn 0.3539868 -0.1598331 0.92149156
vn 0.1897029 -0.025418997 0.9815124
vn 0.3390519 0.24340916 0.90873307
vn 0.27931228 0.25834405 0.9247935
vn 0.12996331 0.079125285 0.9883566
vn 0.100093514 0.06419039 0.99290526
vn 0.05528882 0.25834405 0.96446955
vn 0.05528882 0.18366957 0.98143196
vn 0.11502841 0.06419039 0.9912861
vn 0.2046378 0.16873467 0.96418464
vn 0.2195727 -0.07022372 0.9730655
vn 0.324117 0.079125285 0.9427022
vn 0.27931228 0.15379977 0.9478029
vn -0.004450798 0.30314875 0.9529329
vn 0.2643774 0.21353936 0.94048154
vn 0.3838566 0.034320593 0.9227547
vn 0.040353894 0.36288834 0.93095845
vn 0.1448982 0.16873467 0.9749529
vn 0.3539868 0.079125285 0.9318973
vn 0.45853108 0.06419039 0.88635707
vn 0.12996331 0.30314875 0.9440394
vn 0.1897029 0.25834405 0.947244
vn 0.3091821 -0.025418997 0.9506631
vn 0.3091821 -0.07022372 0.9484066
vn 0.23450759 -0.174768 0.9562752
vn 0.025418997 0.13886487 0.98998505
vn 0.12996331 0.13886487 0.98174644
vn 0.3689217 0.04925549 0.92815447
vn 0.45853108 -0.040353894 0.8877617
vn 0.23450759 -0.174768 0.9562752
vn 0.3987915 -0.07022372 0.9143489
vn 0.4137264 -0.12996331 0.90107715
vn 0.29424718 -0.27931228 0.91400397
vn 0.3390519 -0.08515862 0.93690544
vn 0.4286613 0.12392998 0.89492506
vn 0.040353894 -0.025418997 0.9988621
vn 0.07022372 -0.12996331 0.9890289
vn 0.1448982 -0.1897029 0.9710908
vn 0.324117 -0.1598331 0.93241704
vn 0.45853108 -0.08515862 0.8845888
vn 0.1897029 -0.3539868 0.91580904
vn 0.23450759 -0.3091821 0.92163587
vn 0.1897029 -0.324117 0.9268015
vn 0.05528882 -0.1448982 0.9879006
vn 0.3689217 -0.2195727 0.9031526
vn 0.08515862 -0.3390519 0.93690544
vn 0.1448982 -0.324117 0.9348544
vn 0.12996331 -0.23450759 0.9633876
vn 0.07022372 -0.12996331 0.9890289
vn 0.07022372 -0.11502841 0.9908769
vn 0.324117 -0.3390519 0.88317156
vn 0.11502841 -0.1897029 0.97508013
vn 0.08515862 -0.44359618 0.89217174
vn 0.12996331 -0.45853108 0.87912387
vn 0.2046378 -0.48840088 0.8482853
vn 0.324117 -0.54814047 0.7710319
vn -0.034320593 -0.3987915 0.9163992
vn -0.019385695 -0.1598331 0.9869537
vn 0.010484099 -0.174768 0.9845538
vn -0.034320593 -0.12996331 0.99092466
vn -0.12392998 -0.100093514 0.9872298
vn -0.09406018 0.019385695 0.9953778
vn 0.08515862 -0.3091821 0.94718236
vn -0.06419039 0.04925549 0.9967214
vn -0.09406018 0.09406018 0.99111325
vn -0.079125285 -0.1448982 0.9862777
vn -0.06419039 0.019385695 0.9977494
vn 0.025418997 -0.010484099 0.9996219
vn -0.079125285 -0.1448982 0.9862777
vn 0.05528882 -0.05528882 0.99693847
vn -0.04925549 -0.08515862 0.9951492
vn 0.040353894 -0.1598331 0.9863189
vn 0.07022372 -0.1598331 0.9846431
vn 0.08515862 -0.2046378 0.9751263
vn 0.05528882 -0.1448982 0.9879006
vn 0.07022372 -0.2046378 0.9763155
vn 0.08515862 -0.24944249 0.964638
vn 0.07022372 -0.2195727 0.9730655
vn 0.07022372 -0.27931228 0.95762897
vn 0.07022372 -0.2643774 0.9618592
vn 0.08515862 -0.2046378 0.9751263
vn 0.1598331 -0.07022372 0.9846431
vn 0.040353894 -0.1448982 0.9886233
vn 0.2046378 -0.025418997 0.9785077
vn 0.3091821 -0.07022372 0.9484066
vn 0.24944249 -0.010484099 0.9683329
vn 0.11502841 -0.010484099 0.9933069
vn 0.2046378 0.16873467 0.96418464
vn 0.24944249 0.16873467 0.9535759
vn 0.1897029 0.12392998 0.9739888
vn 0.23450759 0.28821385 0.92840666
vn 0.1598331 0.39275813 0.90564585
vn 0.48840088 0.33301854 0.806575
vn 0.24944249 -0.040353894 0.96754843
g tb_03_mesh_0
f 3/3/3 2/2/2 1/1/1
f 1/1/1 2/2/2 4/4/4
f 1/1/1 5/5/5 3/3/3
f 6/6/6 3/3/3 5/5/5
f 5/5/5 7/7/7 6/6/6
f 8/8/8 6/6/6 7/7/7
f 7/7/7 9/9/9 8/8/8
f 10/10/10 8/8/8 9/9/9
f 9/9/9 11/11/11 10/10/10
f 12/12/12 10/10/10 11/11/11
f 13/13/13 9/9/9 7/7/7
f 11/11/11 9/9/9 13/13/13
f 14/14/14 7/7/7 5/5/5
f 7/7/7 14/14/14 13/13/13
f 11/11/11 15/15/15 12/12/12
f 16/16/16 12/12/12 15/15/15
f 15/15/15 17/17/17 16/16/16
f 13/13/13 18/18/18 11/11/11
f 15/15/15 11/11/11 18/18/18
f 17/17/17 15/15/15 19/19/19
f 18/18/18 19/19/19 15/15/15
f 19/19/19 20/20/20 17/17/17
f 21/21/21 20/20/20 19/19/19
f 18/18/18 13/13/13 22/22/22
f 22/22/22 13/13/13 14/14/14
f 5/5/5 23/23/23 14/14/14
f 23/23/23 5/5/5 1/1/1
f 19/19/19 18/18/18 24/24/24
f 22/22/22 24/24/24 18/18/18
f 19/19/19 25/25/25 21/21/21
f 24/24/24 25/25/25 19/19/19
f 14/14/14 26/26/26 22/22/22
f 26/26/26 14/14/14 23/23/23
f 21/21/21 25/25/25 27/27/27
f 27/27/27 28/28/28 21/21/21
f 29/29/29 28/28/28 27/27/27
f 25/25/25 24/24/24 30/30/30
f 30/30/30 27/27/27 25/25/25
f 24/24/24 22/22/22 31/31/31
f 31/31/31 30/30/30 24/24/24
f 31/31/31 22/22/22 26/26/26
f 27/27/27 32/32/32 29/29/29
f 33/33/33 29/29/29 32/32/32
f 27/27/27 30/30/30 34/34/34
f 34/34/34 32/32/32 27/27/27
f 34/34/34 30/30/30 31/31/31
f 32/32/32 35/35/35 33/33/33
f 35/35/35 32/32/32 34/34/34
f 36/36/36 33/33/33 35/35/35
f 35/35/35 37/37/37 36/36/36
f 38/38/38 36/36/36 37/37/37
f 37/37/37 39/39/39 38/38/38
f 40/40/40 39/39/39 37/37/37
f 34/34/34 41/41/41 35/35/35
f 37/37/37 35/35/35 41/41/41
f 37/37/37 42/42/42 40/40/40
f 41/41/41 42/42/42 37/37/37
f 43/43/43 40/40/40 42/42/42
f 31/31/31 44/44/44 34/34/34
f 41/41/41 34/34/34 44/44/44
f 42/42/42 41/41/41 45/45/45
f 44/44/44 45/45/45 41/41/41
f 42/42/42 46/46/46 43/43/43
f 45/45/45 46/46/46 42/42/42
f 47/47/47 43/43/43 46/46/46
f 44/44/44 31/31/31 48/48/48
f 26/26/26 48/48/48 31/31/31
f 45/45/45 44/44/44 49/49/49
f 48/48/48 49/49/49 44/44/44
f 46/46/46 45/45/45 50/50/50
f 49/49/49 50/50/50 45/45/45
f 46/46/46 51/51/51 47/47/47
f 50/50/50 51/51/51 46/46/46
f 52/52/52 47/47/47 51/51/51
f 48/48/48 26/26/26 53/53/53
f 23/23/23 53/53/53 26/26/26
f 49/49/49 48/48/48 54/54/54
f 53/53/53 54/54/54 48/48/48
f 50/50/50 49/49/49 55/55/55
f 54/54/54 55/55/55 49/49/49
f 51/51/51 50/50/50 56/56/56
f 55/55/55 56/56/56 50/50/50
f 51/51/51 57/57/57 52/52/52
f 56/56/56 57/57/57 51/51/51
f 52/52/52 57/57/57 58/58/58
f 58/58/58 57/57/57 56/56/56
f 58/58/58 59/59/59 52/52/52
f 60/60/60 59/59/59 58/58/58
f 58/58/58 61/61/61 60/60/60
f 62/62/62 60/60/60 61/61/61
f 53/53/53 23/23/23 63/63/63
f 1/1/1 63/63/63 23/23/23
f 54/54/54 53/53/53 64/64/64
f 63/63/63 64/64/64 53/53/53
f 55/55/55 54/54/54 65/65/65
f 64/64/64 65/65/65 54/54/54
f 56/56/56 55/55/55 66/66/66
f 65/65/65 66/66/66 55/55/55
f 56/56/56 67/67/67 58/58/58
f 61/61/61 58/58/58 67/67/67
f 66/66/66 67/67/67 56/56/56
f 68/68/68 65/65/65 64/64/64
f 66/66/66 65/65/65 68/68/68
f 67/67/67 66/66/66 69/69/69
f 68/68/68 69/69/69 66/66/66
f 64/64/64 70/70/70 68/68/68
f 70/70/70 64/64/64 63/63/63
f 63/63/63 1/1/1 71/71/71
f 4/4/4 71/71/71 1/1/1
f 67/67/67 72/72/72 61/61/61
f 69/69/69 72/72/72 67/67/67
f 69/69/69 68/68/68 73/73/73
f 68/68/68 70/70/70 73/73/73
f 63/63/63 74/74/74 70/70/70
f 71/71/71 74/74/74 63/63/63
f 75/75/75 71/71/71 4/4/4
f 4/4/4 76/76/76 75/75/75
f 75/75/75 76/76/76 77/77/77
f 77/77/77 78/78/78 75/75/75
f 72/72/72 69/69/69 79/79/79
f 73/73/73 79/79/79 69/69/69
f 80/80/80 73/73/73 70/70/70
f 70/70/70 74/74/74 80/80/80
f 81/81/81 74/74/74 71/71/71
f 81/81/81 71/71/71 75/75/75
f 80/80/80 74/74/74 81/81/81
f 82/82/82 75/75/75 78/78/78
f 75/75/75 82/82/82 81/81/81
f 78/78/78 83/83/83 82/82/82
f 82/82/82 83/83/83 84/84/84
f 84/84/84 85/85/85 82/82/82
f 85/85/85 84/84/84 86/86/86
f 86/86/86 87/87/87 85/85/85
f 85/85/85 87/87/87 88/88/88
f 88/88/88 89/89/89 85/85/85
f 90/90/90 81/81/81 82/82/82
f 90/90/90 82/82/82 85/85/85
f 81/81/81 90/90/90 80/80/80
f 91/91/91 85/85/85 89/89/89
f 85/85/85 91/91/91 90/90/90
f 89/89/89 92/92/92 91/91/91
f 90/90/90 93/93/93 80/80/80
f 93/93/93 90/90/90 91/91/91
f 94/94/94 91/91/91 92/92/92
f 91/91/91 94/94/94 93/93/93
f 92/92/92 95/95/95 94/94/94
f 80/80/80 93/93/93 96/96/96
f 96/96/96 73/73/73 80/80/80
f 96/96/96 79/79/79 73/73/73
f 79/79/79 96/96/96 97/97/97
f 98/98/98 96/96/96 93/93/93
f 93/93/93 94/94/94 98/98/98
f 97/97/97 96/96/96 98/98/98
f 94/94/94 95/95/95 99/99/99
f 99/99/99 98/98/98 94/94/94
f 99/99/99 95/95/95 100/100/100
f 100/100/100 101/101/101 99/99/99
f 102/102/102 98/98/98 99/99/99
f 98/98/98 102/102/102 97/97/97
f 103/103/103 99/99/99 101/101/101
f 99/99/99 103/103/103 102/102/102
f 101/101/101 104/104/104 103/103/103
f 105/105/105 103/103/103 104/104/104
f 104/104/104 106/106/106 105/105/105
f 105/105/105 106/106/106 107/107/107
f 107/107/107 108/108/108 105/105/105
f 105/105/105 108/108/108 109/109/109
f 110/110/110 102/102/102 103/103/103
f 102/102/102 110/110/110 97/97/97
f 103/103/103 105/105/105 110/110/110
f 109/109/109 111/111/111 105/105/105
f 111/111/111 109/109/109 112/112/112
f 112/112/112 113/113/113 111/111/111
f 114/114/114 110/110/110 105/105/105
f 105/105/105 111/111/111 114/114/114
f 97/97/97 110/110/110 114/114/114
f 115/115/115 111/111/111 113/113/113
f 111/111/111 115/115/115 114/114/114
f 113/113/113 116/116/116 115/115/115
f 114/114/114 117/117/117 97/97/97
f 117/117/117 114/114/114 115/115/115
f 118/118/118 115/115/115 116/116/116
f 117/117/117 115/115/115 118/118/118
f 116/116/116 119/119/119 118/118/118
f 118/118/118 119/119/119 120/120/120
f 120/120/120 62/62/62 118/118/118
f 61/61/61 118/118/118 62/62/62
f 118/118/118 61/61/61 117/117/117
f 121/121/121 97/97/97 117/117/117
f 121/121/121 117/117/117 61/61/61
f 97/97/97 121/121/121 79/79/79
f 61/61/61 72/72/72 121/121/121
f 79/79/79 121/121/121 72/72/72
