g tb_01_mesh
v 0.14529842 -0.6930132 -0.17711014
v 0.14529842 -0.7469548 -0.1840257
v 0.08720744 -0.7469548 -0.16881138
v 0.08720744 -0.6930132 -0.18817508
v 0.027733386 -0.7469548 -0.13423347
v 0.14529842 -0.63768846 -0.19924003
v 0.027733386 -0.6930132 -0.16881138
v -0.0303576 -0.7469548 -0.13285035
v -0.0303576 -0.6930132 -0.16051269
v -0.088448584 -0.7469548 -0.13838279
v 0.027733386 -0.63768846 -0.17987633
v 0.08720744 -0.63768846 -0.20062315
v 0.08720744 -0.58374685 -0.17849326
v 0.14529842 -0.58374685 -0.19370753
v 0.14529842 -0.5284221 -0.18955821
v 0.08720744 -0.5284221 -0.1701945
v 0.14529842 -0.4744805 -0.1978569
v 0.027733386 -0.58374685 -0.17711014
v -0.0303576 -0.63768846 -0.16189581
v -0.088448584 -0.6930132 -0.1439153
v 0.08720744 -0.4744805 -0.1701945
v 0.14529842 -0.4191558 -0.17572701
v 0.08720744 -0.4191558 -0.15912956
v 0.14529842 -0.3652142 -0.17987633
v 0.117636025 -0.3361687 -0.15498024
v 0.08997369 -0.30850634 -0.14114904
v 0.027733386 -0.52980524 -0.1300841
v -0.128559 -0.6930132 -0.1300841
v -0.14792264 -0.7469548 -0.13146722
v -0.1880331 -0.7151431 -0.10933733
v -0.098130405 -0.6335391 -0.1162529
v -0.0303576 -0.58513 -0.15083086
v -0.15345514 -0.6722664 -0.10933733
v -0.07600051 -0.5865131 -0.1162529
v -0.034506977 -0.52980524 -0.107954204
v 0.02635026 -0.4744805 -0.14806461
v -0.19356555 -0.6390716 -0.05677885
v -0.22814351 -0.68194824 -0.077525616
v -0.26825392 -0.65013653 -0.10657108
v -0.15207201 -0.5906625 -0.024967134
v -0.23367596 -0.60725987 -0.051246345
v -0.3083644 -0.6169417 -0.15359712
v -0.1064291 -0.53810394 -0.038798273
v -0.27378643 -0.57544816 -0.12593472
v -0.34847474 -0.58513 -0.18817508
v -0.34847474 -0.5228897 -0.19509065
v -0.26687086 -0.46064934 -0.16881138
v -0.34847474 -0.46064934 -0.19924003
v -0.34847474 -0.39979213 -0.20062315
v -0.20186424 -0.5464027 -0.054012597
v -0.034506977 -0.47586364 -0.1439153
v -0.26687086 -0.39979213 -0.17987633
v -0.34847474 -0.33755183 -0.1840257
v -0.20739675 -0.45373374 -0.1356166
v -0.17005253 -0.503526 -0.058161974
v -0.10089666 -0.4578831 -0.1300841
v -0.21707857 -0.3970259 -0.16051269
v -0.15898758 -0.45373374 -0.1162529
v -0.16452008 -0.3970259 -0.14944774
v -0.1202603 -0.3970259 -0.1701945
v -0.16728628 -0.33755183 -0.1701945
v -0.21846169 -0.33755183 -0.17434388
v -0.26687086 -0.33755183 -0.18817508
v -0.26687086 -0.2753115 -0.18264258
v -0.34847474 -0.2753115 -0.15774643
v -0.21846169 -0.2753115 -0.1840257
v -0.26687086 -0.21307117 -0.16051269
v -0.34847474 -0.21307117 -0.11210358
v -0.34847474 -0.15221399 -0.13699967
v -0.16728628 -0.2753115 -0.17711014
v -0.21846169 -0.21307117 -0.17987633
v -0.26687086 -0.15221399 -0.14114904
v -0.26687086 -0.08997369 -0.15774643
v -0.34847474 -0.08997369 -0.13146722
v -0.34847474 -0.027733386 -0.074759364
v -0.21846169 -0.15221399 -0.16742831
v -0.16728628 -0.21307117 -0.17849326
v -0.11611092 -0.2753115 -0.19094127
v -0.26687086 -0.027733386 -0.117636025
v -0.34847474 0.034506977 -0.04986322
v -0.21846169 -0.08997369 -0.17711014
v -0.16728628 -0.15083086 -0.17434388
v -0.11749405 -0.33893493 -0.17434388
v -0.11611092 -0.21168804 -0.17572701
v -0.062169313 -0.27254528 -0.18817508
v -0.08706546 -0.4053246 -0.16051269
v -0.060786188 -0.35553235 -0.17296076
v -0.06908494 -0.42883763 -0.15083086
v -0.03727317 -0.42192203 -0.15636337
v 0.018051505 -0.41362333 -0.14806461
v 0.0042203665 -0.34031805 -0.15083086
v -0.004078388 -0.2670128 -0.16604519
v 0.054012597 -0.32372063 -0.13146722
v 0.054012597 -0.25594786 -0.16327894
v 0.08997369 -0.25594786 -0.17157763
v 0.08997369 -0.20338935 -0.17987633
v -0.062169313 -0.20892185 -0.18817508
v 0.054012597 -0.20338935 -0.16189581
v 0.08997369 -0.14944774 -0.1840257
v -0.0054614544 -0.2061556 -0.17296076
v -0.11611092 -0.15083086 -0.16327894
v -0.06355244 -0.15083086 -0.1701945
v -0.00684458 -0.15083086 -0.16881138
v 0.054012597 -0.14944774 -0.16466206
v 0.054012597 -0.09688926 -0.17434388
v 0.08997369 -0.09688926 -0.18679196
v -0.0054614544 -0.094123006 -0.17434388
v 0.054012597 -0.044330776 -0.16742831
v 0.08997369 -0.044330776 -0.16881138
v 0.08997369 0.008227706 -0.15912956
v -0.062169313 -0.09273988 -0.1840257
v -0.004078388 -0.03326583 -0.15498024
v 0.054012597 0.020675778 -0.14944774
v 0.091356814 0.06770182 -0.13976592
v 0.0457139 0.11611092 -0.15636337
v 0.11901915 0.044188797 -0.14944774
v 0.11210358 0.09398103 -0.15083086
v 0.14806461 0.081532955 -0.14944774
v 0.14806461 0.14377332 -0.16604519
v 0.11210358 0.14377332 -0.16466206
v 0.14806461 0.2046305 -0.17711014
v 0.11210358 0.2046305 -0.16742831
v 0.14806461 0.26687086 -0.15774643
v 0.008369684 0.03727317 -0.1439153
v 0.04986322 0.20048112 -0.15636337
v 0.11210358 0.26687086 -0.14944774
v 0.05262947 0.26825392 -0.15083086
v 0.11210358 0.3291111 -0.117636025
v 0.14806461 0.3291111 -0.13146722
v 0.14806461 0.39135146 -0.1439153
v 0.11210358 0.41763067 -0.16466206
v -0.009610832 0.20324737 -0.110720456
v -0.02344203 0.1340915 -0.12870097
v -0.055253744 0.055253744 -0.16742831
v 0.05262947 0.33740985 -0.14253217
v -0.008227706 0.269637 -0.14668155
v -0.06631869 0.14792264 -0.094123006
v -0.060786188 -0.027733386 -0.17987633
v 0.054012597 0.41763067 -0.17434388
v 0.11210358 0.47987103 -0.16327894
v -0.06908494 0.21016294 -0.09273988
v -0.11611092 -0.08997369 -0.16327894
v -0.16728628 -0.08997369 -0.17987633
v -0.114727795 -0.02635026 -0.19370753
v -0.16728628 -0.027733386 -0.20200622
v -0.11749405 0.034506977 -0.18540883
v -0.1064291 0.107812226 -0.091356814
v -0.11749405 0.15760446 -0.094123006
v -0.16590321 0.098130405 -0.101038635
v -0.21846169 -0.027733386 -0.16604519
v -0.16590321 0.034506977 -0.17434388
v -0.26687086 0.034506977 -0.11348671
v -0.21846169 0.034506977 -0.14114904
v -0.26687086 0.09536415 -0.06646067
v -0.34847474 0.09536415 -0.044330776
v -0.34847474 0.15760446 -0.10518795
v -0.21846169 0.09674728 -0.08859056
v -0.26687086 0.15760446 -0.10380483
v -0.34847474 0.21984482 -0.1162529
v -0.21846169 0.15760446 -0.09827238
v -0.26687086 0.21984482 -0.117636025
v -0.26687086 0.28208506 -0.12731785
v -0.34847474 0.28208506 -0.15774643
v -0.16590321 0.15898758 -0.09827238
v -0.21846169 0.21984482 -0.12040228
v -0.26687086 0.34432542 -0.1162529
v -0.34847474 0.34432542 -0.1439153
v -0.16728628 0.21846169 -0.12040228
v -0.11749405 0.21984482 -0.11348671
v -0.21569544 0.28208506 -0.124551654
v -0.26687086 0.4051826 -0.08997369
v -0.34847474 0.4051826 -0.10518795
v -0.34847474 0.46742296 -0.016668439
v -0.16452008 0.27655268 -0.13838279
v -0.06631869 0.27102017 -0.15498024
v -0.11611092 0.27240324 -0.16327894
v -0.20739675 0.35953975 -0.09550613
v -0.26687086 0.51583207 -0.02635026
v -0.34847474 0.5296632 -0.048480153
v -0.3069812 0.5642412 -0.02635026
v -0.2641046 0.59881914 -0.024967134
v -0.15345514 0.32634485 -0.13285035
v -0.11749405 0.30974746 -0.16051269
v -0.22399414 0.44252682 -0.03603208
v -0.22537726 0.55041003 -0.037415206
v -0.128559 0.37198782 -0.117636025
v -0.07600051 0.33602667 -0.15359712
v -0.07738364 0.4162476 -0.14114904
v -0.16175383 0.40933204 -0.09550613
v -0.008227706 0.33879292 -0.15221399
v -0.008227706 0.41209817 -0.17157763
v -0.17558503 0.4812541 -0.03603208
v -0.128559 0.4535917 -0.06922692
v -0.10919535 0.4867866 -0.034648955
v -0.06631869 0.4826373 -0.07337624
v -0.00684458 0.47987103 -0.14114904
v -0.1825006 0.584988 -0.04294765
v -0.22261101 0.6333971 -0.024967134
v -0.13132524 0.5407282 -0.041564524
v -0.15898758 0.6057347 -0.04294765
v -0.18111748 0.66797507 -0.02635026
v -0.121643424 0.66797507 -0.038798273
v -0.121643424 0.6057347 -0.058161974
v -0.06355244 0.66797507 -0.08167499
v -0.064935565 0.54349446 -0.027733386
v -0.0054614544 0.54349446 -0.055395722
v -0.06355244 0.6057347 -0.06369442
v -0.0054614544 0.6057347 -0.044330776
v -0.0054614544 0.66797507 -0.13976592
v 0.054012597 0.66797507 -0.18679196
v 0.054012597 0.47987103 -0.15912956
v 0.11210358 0.5421113 -0.11210358
v 0.054012597 0.5421113 -0.07337624
v 0.11210358 0.6057347 -0.1356166
v 0.054012597 0.6057347 -0.094123006
v 0.11210358 0.66797507 -0.21307117
vt 0.9608429 0.82379246
vt 1.0000002 0.82379246
vt 1.0000002 0.8433711
vt 0.9608429 0.8433711
vt 1.0000002 0.86686546
vt 0.92168564 0.82379246
vt 0.9608429 0.86686546
vt 1.0000002 0.8864441
vt 0.9608429 0.8864441
vt 1.0000002 0.9060227
vt 0.92168564 0.86686546
vt 0.92168564 0.8433711
vt 0.88252836 0.8433711
vt 0.88252836 0.82379246
vt 0.8472868 0.82379246
vt 0.8472868 0.8433711
vt 0.80812955 0.82379246
vt 0.8864441 0.86686546
vt 0.92168564 0.8864441
vt 0.9608429 0.9060227
vt 0.80812955 0.8433711
vt 0.7689723 0.82379246
vt 0.7689723 0.8433711
vt 0.729815 0.82379246
vt 0.7102364 0.83553964
vt 0.69065773 0.8433711
vt 0.8472868 0.86686546
vt 0.9608429 0.92168564
vt 1.0000002 0.9295171
vt 0.9765059 0.9412643
vt 0.92168564 0.90993845
vt 0.8864441 0.8864441
vt 0.94518 0.9295171
vt 0.8864441 0.902107
vt 0.8472868 0.8864441
vt 0.80812955 0.86686546
vt 0.92560136 0.94518
vt 0.95301145 0.9569272
vt 0.9295171 0.97259015
vt 0.8903598 0.9295171
vt 0.902107 0.9608429
vt 0.90993845 0.98433733
vt 0.85120255 0.9138542
vt 0.87861264 0.97259015
vt 0.8864441 1.0000002
vt 0.8433711 1.0000002
vt 0.79638237 0.97259015
vt 0.79638237 1.0000002
vt 0.75330937 1.0000002
vt 0.859034 0.9490957
vt 0.80812955 0.8903598
vt 0.75330937 0.97259015
vt 0.7102364 1.0000002
vt 0.79246664 0.9490957
vt 0.8277082 0.93734854
vt 0.79638237 0.90993845
vt 0.75330937 0.95301145
vt 0.79246664 0.9334328
vt 0.75330937 0.9334328
vt 0.75330937 0.9177699
vt 0.7102364 0.93734854
vt 0.7102364 0.95301145
vt 0.7102364 0.97259015
vt 0.6671634 0.97259015
vt 0.6671634 1.0000002
vt 0.6671634 0.95301145
vt 0.6240904 0.97259015
vt 0.6240904 1.0000002
vt 0.5810174 1.0000002
vt 0.6671634 0.93734854
vt 0.6240904 0.95301145
vt 0.5810174 0.97259015
vt 0.5379444 0.97259015
vt 0.5379444 1.0000002
vt 0.49095568 1.0000002
vt 0.5810174 0.95301145
vt 0.6240904 0.9334328
vt 0.6671634 0.9177699
vt 0.49095568 0.97259015
vt 0.44788265 1.0000002
vt 0.5379444 0.95301145
vt 0.5810174 0.9334328
vt 0.7141521 0.9177699
vt 0.6240904 0.9177699
vt 0.6671634 0.8981913
vt 0.7611408 0.9060227
vt 0.72198355 0.8981913
vt 0.77680373 0.902107
vt 0.7689723 0.8903598
vt 0.76505655 0.8707812
vt 0.7141521 0.8746969
vt 0.66324764 0.87861264
vt 0.7024049 0.8551183
vt 0.6554162 0.8551183
vt 0.6554162 0.8433711
vt 0.6162589 0.8433711
vt 0.62017465 0.8981913
vt 0.6162589 0.8551183
vt 0.57710165 0.8433711
vt 0.6162589 0.87861264
vt 0.5810174 0.9177699
vt 0.5810174 0.8981913
vt 0.57710165 0.87861264
vt 0.57710165 0.8551183
vt 0.5418601 0.8551183
vt 0.5418601 0.8433711
vt 0.5379444 0.87861264
vt 0.50270283 0.8551183
vt 0.50270283 0.8433711
vt 0.4674613 0.8433711
vt 0.5379444 0.8981913
vt 0.4948714 0.87861264
vt 0.45962983 0.8551183
vt 0.4243883 0.8433711
vt 0.38914675 0.859034
vt 0.4400512 0.83553964
vt 0.40480965 0.83553964
vt 0.41655684 0.82379246
vt 0.37348384 0.82379246
vt 0.37348384 0.83553964
vt 0.3264951 0.82379246
vt 0.3264951 0.83553964
vt 0.2834221 0.82379246
vt 0.44788265 0.8746969
vt 0.33041084 0.859034
vt 0.2834221 0.83553964
vt 0.2834221 0.859034
vt 0.24034911 0.83553964
vt 0.24034911 0.82379246
vt 0.19727612 0.82379246
vt 0.17769748 0.83553964
vt 0.33041084 0.87861264
vt 0.37739956 0.8864441
vt 0.43221974 0.89427555
vt 0.23251766 0.859034
vt 0.2834221 0.87861264
vt 0.3695681 0.8981913
vt 0.49095568 0.8981913
vt 0.17769748 0.859034
vt 0.13462448 0.83553964
vt 0.32257938 0.902107
vt 0.5379444 0.9177699
vt 0.5379444 0.93734854
vt 0.49095568 0.9177699
vt 0.49095568 0.93734854
vt 0.44788265 0.9177699
vt 0.3969782 0.9138542
vt 0.36173666 0.9177699
vt 0.40480965 0.9334328
vt 0.49095568 0.95301145
vt 0.44788265 0.9334328
vt 0.44788265 0.97259015
vt 0.44788265 0.95301145
vt 0.40480965 0.97259015
vt 0.40480965 1.0000002
vt 0.36173666 1.0000002
vt 0.40480965 0.95301145
vt 0.36173666 0.97259015
vt 0.31866366 1.0000002
vt 0.36173666 0.95301145
vt 0.31866366 0.97259015
vt 0.27559066 0.97259015
vt 0.27559066 1.0000002
vt 0.36173666 0.9334328
vt 0.31866366 0.95301145
vt 0.22860193 0.97259015
vt 0.22860193 1.0000002
vt 0.31866366 0.9334328
vt 0.31866366 0.9177699
vt 0.27559066 0.95301145
vt 0.18552893 0.97259015
vt 0.18552893 1.0000002
vt 0.14245594 1.0000002
vt 0.2795064 0.9334328
vt 0.2834221 0.8981913
vt 0.2795064 0.9177699
vt 0.22077048 0.9490957
vt 0.10721439 0.97259015
vt 0.09938294 1.0000002
vt 0.075888574 0.98433733
vt 0.048478484 0.96867436
vt 0.24034911 0.9295171
vt 0.25601202 0.9177699
vt 0.16203457 0.9569272
vt 0.08372003 0.9569272
vt 0.2090233 0.92168564
vt 0.23643339 0.902107
vt 0.17769748 0.902107
vt 0.18552893 0.9334328
vt 0.23251766 0.87861264
vt 0.1816132 0.87861264
vt 0.13462448 0.93734854
vt 0.15420312 0.92168564
vt 0.13070875 0.9138542
vt 0.13070875 0.8981913
vt 0.13462448 0.87861264
vt 0.060225666 0.9412643
vt 0.024984121 0.9569272
vt 0.09155148 0.92168564
vt 0.044562757 0.9334328
vt 0.0014897585 0.9412643
vt 0.0014897585 0.9177699
vt 0.044562757 0.9177699
vt 0.0014897585 0.8981913
vt 0.087635756 0.8981913
vt 0.09155148 0.87861264
vt 0.044562757 0.8981913
vt 0.044562757 0.87861264
vt 0.0014897585 0.87861264
vt 0.0014897585 0.859034
vt 0.13462448 0.859034
vt 0.09155148 0.83553964
vt 0.09155148 0.859034
vt 0.044562757 0.83553964
vt 0.044562757 0.859034
vt 0.0014897585 0.83553964
vn -0.058900476 0.2247402 0.97263694
vn 0.24908757 -0.106939256 0.96255875
vn 0.29647037 0.2247402 0.9282226
vn 0.106939256 0.3195058 0.9415307
vn 0.17801338 0.5090369 0.8421358
vn 0.012173653 0.03520912 0.99930584
vn 0.2017048 0.36688852 0.90813434
vn -0.0115177035 0.48534548 0.8742466
vn 0.17801338 0.2247402 0.9580204
vn 0.15432203 0.15366608 0.9759977
vn 0.24908757 0.0115177035 0.96841246
vn 0.15432203 -0.08324784 0.98450726
vn 0.15432203 -0.17801338 0.9718518
vn 0.27277896 -0.08324784 0.95846826
vn 0.29647037 0.03520912 0.95439285
vn 0.39123592 -0.13063061 0.91097206
vn 0.39123592 -0.13063061 0.91097206
vn 0.24908757 -0.29647037 0.92198735
vn 0.4149273 -0.106939256 0.9035482
vn 0.34385315 -0.08324784 0.93532604
vn 0.36754453 -0.059556484 0.928097
vn 0.29647037 -0.106939256 0.949036
vn 0.2017048 -0.15432203 0.96721244
vn 0.4149273 -0.13063061 0.90042824
vn 0.39123592 -0.17801338 0.9029096
vn 0.22539619 0.15366608 0.9620724
vn 0.4149273 -0.17801338 0.89227045
vn 0.32016176 -0.22539619 0.9201592
vn 0.24908757 -0.106939256 0.96255875
vn 0.39123592 -0.36754453 0.84370935
vn 0.53338426 -0.39123592 0.7499571
vn 0.46231008 -0.36754453 0.80695754
vn 0.46231008 -0.4860015 0.74166834
vn 0.6281498 -0.39123592 0.6725789
vn 0.53338426 -0.059556484 0.8437738
vn 0.22539619 0.2247402 0.9479918
vn -0.0115177035 -0.5570756 0.8303819
vn -0.20104885 -0.29647037 0.93364054
vn -0.698568 -0.2017048 0.686526
vn 0.17801338 -0.2017048 0.96313363
vn -0.580111 -0.08324784 0.81027216
vn -0.7222594 0.058900476 0.6891096
vn 0.4386187 0.15366608 0.8854379
vn -0.698568 0.27212298 0.66177934
vn -0.6511853 0.058900476 0.7566297
vn -0.5090369 0.17735744 0.8422742
vn -0.46165407 0.27212298 0.8442894
vn -0.36688852 0.03520912 0.9295984
vn -0.27212298 -0.08324784 0.9586547
vn -0.48534548 0.36688852 0.79361993
vn 0.2017048 0.43796277 0.87607294
vn -0.24843162 0.12997466 0.95988977
vn 0.03586507 -0.17801338 0.98337424
vn -0.39057994 0.5090369 0.7670259
vn -0.20104885 0.55641973 0.8062112
vn 0.22539619 0.60380244 0.7646039
vn -0.2958144 0.27212298 0.91566527
vn -0.0115177035 0.6748767 0.73784065
vn 0.059556484 0.41427135 0.90820277
vn 0.059556484 0.3195058 0.9457109
vn 0.03586507 0.17735744 0.9834928
vn -0.20104885 0.15366608 0.9674534
vn -0.08259189 0.058900476 0.99484134
vn 0.13063061 -0.24908757 0.95963067
vn 0.32016176 -0.4149273 0.8516641
vn -0.03520912 -0.03586507 0.9987362
vn 0.29647037 -0.24908757 0.92198735
vn 0.5096929 -0.08324784 0.8563194
vn 0.27277896 0.08259189 0.95852506
vn 0.08324784 0.058900476 0.9947867
vn 0.15432203 -0.13063061 0.97934693
vn 0.24908757 -0.012173653 0.9684045
vn 0.32016176 -0.2017048 0.9256412
vn 0.27277896 -0.4149273 0.8680017
vn 0.39123592 -0.46231008 0.7957411
vn 0.29647037 0.0115177035 0.95497257
vn 0.012173653 -0.08324784 0.99645454
vn 0.059556484 0.03520912 0.99760383
vn 0.5570756 -0.27277896 0.7843841
vn 0.4386187 -0.27277896 0.85627407
vn 0.34385315 0.0115177035 0.9389528
vn -0.0115177035 0.0115177035 0.9998673
vn 0.03586507 0.17735744 0.9834928
vn 0.059556484 -0.15432203 0.986224
vn -0.17735744 0.058900476 0.98238236
vn -0.058900476 0.34319723 0.93741477
vn -0.15366608 0.17735744 0.97207564
vn 0.13063061 0.34319723 0.93013513
vn -0.03520912 0.15366608 0.98749536
vn 0.03586507 0.0115177035 0.9992902
vn -0.27212298 0.03520912 0.9616181
vn -0.24843162 0.15366608 0.956383
vn -0.058900476 0.0115177035 0.9981974
vn 0.059556484 0.27212298 0.9604177
vn 0.22539619 0.3195058 0.9203872
vn 0.39123592 0.058900476 0.91840357
vn -0.03520912 -0.106939256 0.993642
vn 0.15432203 0.0115177035 0.9879535
vn 0.4386187 0.08259189 0.8948699
vn -0.17735744 -0.012173653 0.98407125
vn -0.0115177035 -0.08324784 0.9964623
vn 0.012173653 -0.012173653 0.9998518
vn -0.058900476 0.03520912 0.99764276
vn 0.2017048 0.10628325 0.9736627
vn 0.17801338 -0.012173653 0.98395276
vn 0.27277896 -0.08324784 0.95846826
vn -0.058900476 -0.059556484 0.9964857
vn 0.106939256 -0.22539619 0.9683804
vn 0.059556484 -0.24908757 0.96664804
vn 0.13063061 -0.27277896 0.953167
vn 0.059556484 0.0115177035 0.9981585
vn -0.12997466 -0.2017048 0.9707841
vn 0.08324784 -0.15432203 0.98450726
vn 0.03586507 0.03520912 0.9987362
vn 0.2017048 0.03520912 0.97881335
vn 0.13063061 -0.13063061 0.98278755
vn 0.08324784 0.2247402 0.97085613
vn 0.012173653 0.12997466 0.9914426
vn 0.03586507 0.2247402 0.97375846
vn 0.08324784 0.15366608 0.98460984
vn 0.22539619 -0.106939256 0.9683804
vn 0.17801338 -0.106939256 0.9782
vn 0.22539619 -0.34385315 0.91157097
vn -0.058900476 -0.08324784 0.9947867
vn 0.39123592 -0.03586507 0.91959125
vn 0.08324784 -0.36754453 0.9262725
vn 0.08324784 -0.106939256 0.99077433
vn -0.0115177035 -0.012173653 0.9998596
vn 0.36754453 -0.106939256 0.9238371
vn -0.03520912 0.41427135 0.90947217
vn -0.20104885 0.24843162 0.9475553
vn 0.4149273 0.08259189 0.9060982
vn 0.32016176 -0.34385315 0.8827579
vn -0.12997466 -0.4149273 0.9005231
vn -0.20104885 0.17735744 0.9633918
vn -0.0115177035 0.2958144 0.955176
vn 0.29647037 -0.22539619 0.9280635
vn -0.24843162 -0.012173653 0.9685729
vn -0.0115177035 0.058900476 0.9981974
vn 0.012173653 -0.39123592 0.9202099
vn 0.012173653 0.34319723 0.9391845
vn -0.03520912 0.15366608 0.98749536
vn -0.08259189 0.2247402 0.97091216
vn -0.2247402 0.12997466 0.96571136
vn 0.17801338 -0.03586507 0.98337424
vn -0.0115177035 -0.4860015 0.87388206
vn 0.13063061 -0.4149273 0.90042824
vn -0.08259189 0.10628325 0.9908998
vn 0.08324784 -0.4386187 0.8948091
vn 0.60445845 -0.17801338 0.7764929
vn 0.29647037 -0.5570756 0.77573967
vn 0.5570756 -0.34385315 0.7559311
vn 0.46231008 -0.46231008 0.75666296
vn 0.36754453 0.058900476 0.92813885
vn 0.24908757 0.3195058 0.91426
vn 0.03586507 0.41427135 0.9094465
vn 0.29647037 -0.22539619 0.9280635
vn -0.0115177035 0.3195058 0.9475143
vn -0.08259189 0.2958144 0.95166826
vn -0.0115177035 0.20104885 0.97951347
vn 0.012173653 0.20104885 0.9795056
vn -0.15366608 0.03520912 0.98749536
vn -0.34319723 0.17735744 0.92236656
vn -0.058900476 0.15366608 0.9863658
vn 0.059556484 0.24843162 0.96681684
vn -0.24843162 -0.29647037 0.9221643
vn -0.27212298 -0.32016176 0.907439
vn -0.0115177035 0.39057994 0.92049694
vn -0.17735744 0.5327283 0.82749313
vn 0.106939256 -0.106939256 0.98849785
vn -0.2247402 -0.5570756 0.79947394
vn -0.12997466 -0.6755326 0.72578394
vn 0.08324784 -0.27277896 0.95846826
vn 0.34385315 0.03520912 0.93836313
vn -0.12997466 0.39057994 0.91134727
vn 0.106939256 0.27212298 0.9563018
vn 0.08324784 -0.4149273 0.9060381
vn 0.059556484 -0.106939256 0.9924803
vn -0.2247402 0.20104885 0.9534522
vn -0.15366608 -0.13063061 0.97945005
vn 0.15432203 -0.08324784 0.98450726
vn 0.39123592 -0.36754453 0.84370935
vn 0.2017048 -0.24908757 0.9472437
vn -0.058900476 -0.4149273 0.90794605
vn 0.17801338 -0.012173653 0.98395276
vn 0.39123592 -0.29647037 0.8712289
vn 0.08324784 -0.17801338 0.9805004
vn 0.36754453 -0.4149273 0.83231384
vn 0.39123592 -0.4386187 0.80904144
vn -0.03520912 0.10628325 0.9937123
vn 0.24908757 -0.08324784 0.96489644
vn 0.13063061 -0.24908757 0.95963067
vn 0.24908757 -0.699224 0.67010534
vn 0.17801338 -0.4149273 0.89227045
vn 0.4860015 -0.6281498 0.6076433
vn 0.4386187 -0.5570756 0.70518106
vn 0.106939256 -0.059556484 0.9924803
vn 0.17801338 -0.2017048 0.96313363
vn -0.058900476 0.12997466 0.9897663
vn 0.22539619 -0.106939256 0.9683804
vn 0.17801338 -0.17801338 0.9677926
vn 0.4149273 -0.22539619 0.8814941
vn 0.27277896 0.08259189 0.95852506
vn 0.32016176 0.39057994 0.86310124
vn 0.22539619 0.0115177035 0.9741991
vn 0.29647037 -0.39123592 0.8712289
vn -0.03520912 0.3195058 0.94693
vn 0.17801338 0.2958144 0.93851215
vn 0.4149273 0.7459508 0.52095366
vn 0.29647037 0.79333353 0.531721
vn 0.17801338 -0.5096929 0.8417389
vn 0.46231008 -0.29647037 0.8356882
vn 0.4386187 -0.34385315 0.8302883
vn 0.4860015 0.55641973 0.67394334
vn 0.5096929 0.5327283 0.67558396
vn 0.29647037 0.76964223 0.56546986
g tb_01_mesh_0
f 3/3/3 2/2/2 1/1/1
f 1/1/1 4/4/4 3/3/3
f 5/5/5 3/3/3 4/4/4
f 4/4/4 1/1/1 6/6/6
f 4/4/4 7/7/7 5/5/5
f 8/8/8 5/5/5 7/7/7
f 7/7/7 9/9/9 8/8/8
f 10/10/10 8/8/8 9/9/9
f 11/11/11 7/7/7 4/4/4
f 9/9/9 7/7/7 11/11/11
f 6/6/6 12/12/12 4/4/4
f 4/4/4 12/12/12 11/11/11
f 13/13/13 12/12/12 6/6/6
f 11/11/11 12/12/12 13/13/13
f 6/6/6 14/14/14 13/13/13
f 13/13/13 14/14/14 15/15/15
f 15/15/15 16/16/16 13/13/13
f 16/16/16 15/15/15 17/17/17
f 13/13/13 18/18/18 11/11/11
f 18/18/18 13/13/13 16/16/16
f 11/11/11 19/19/19 9/9/9
f 19/19/19 11/11/11 18/18/18
f 9/9/9 20/20/20 10/10/10
f 20/20/20 9/9/9 19/19/19
f 17/17/17 21/21/21 16/16/16
f 21/21/21 17/17/17 22/22/22
f 22/22/22 23/23/23 21/21/21
f 23/23/23 22/22/22 24/24/24
f 24/24/24 25/25/25 23/23/23
f 23/23/23 25/25/25 26/26/26
f 16/16/16 27/27/27 18/18/18
f 27/27/27 16/16/16 21/21/21
f 10/10/10 20/20/20 28/28/28
f 28/28/28 29/29/29 10/10/10
f 30/30/30 29/29/29 28/28/28
f 28/28/28 20/20/20 31/31/31
f 19/19/19 31/31/31 20/20/20
f 18/18/18 32/32/32 19/19/19
f 32/32/32 18/18/18 27/27/27
f 28/28/28 33/33/33 30/30/30
f 31/31/31 33/33/33 28/28/28
f 19/19/19 32/32/32 34/34/34
f 34/34/34 31/31/31 19/19/19
f 27/27/27 35/35/35 32/32/32
f 34/34/34 32/32/32 35/35/35
f 21/21/21 36/36/36 27/27/27
f 35/35/35 27/27/27 36/36/36
f 30/30/30 33/33/33 37/37/37
f 37/37/37 38/38/38 30/30/30
f 39/39/39 38/38/38 37/37/37
f 33/33/33 31/31/31 40/40/40
f 40/40/40 31/31/31 34/34/34
f 40/40/40 37/37/37 33/33/33
f 37/37/37 41/41/41 39/39/39
f 41/41/41 37/37/37 40/40/40
f 42/42/42 39/39/39 41/41/41
f 35/35/35 43/43/43 34/34/34
f 34/34/34 43/43/43 40/40/40
f 41/41/41 44/44/44 42/42/42
f 45/45/45 42/42/42 44/44/44
f 44/44/44 46/46/46 45/45/45
f 46/46/46 44/44/44 47/47/47
f 47/47/47 48/48/48 46/46/46
f 49/49/49 48/48/48 47/47/47
f 40/40/40 50/50/50 41/41/41
f 44/44/44 41/41/41 50/50/50
f 50/50/50 40/40/40 43/43/43
f 50/50/50 47/47/47 44/44/44
f 43/43/43 35/35/35 51/51/51
f 36/36/36 51/51/51 35/35/35
f 47/47/47 52/52/52 49/49/49
f 53/53/53 49/49/49 52/52/52
f 54/54/54 47/47/47 50/50/50
f 43/43/43 55/55/55 50/50/50
f 50/50/50 55/55/55 54/54/54
f 55/55/55 43/43/43 56/56/56
f 51/51/51 56/56/56 43/43/43
f 57/57/57 52/52/52 47/47/47
f 47/47/47 54/54/54 57/57/57
f 54/54/54 55/55/55 58/58/58
f 56/56/56 58/58/58 55/55/55
f 54/54/54 58/58/58 59/59/59
f 59/59/59 57/57/57 54/54/54
f 60/60/60 59/59/59 58/58/58
f 58/58/58 56/56/56 60/60/60
f 57/57/57 59/59/59 61/61/61
f 61/61/61 59/59/59 60/60/60
f 52/52/52 57/57/57 62/62/62
f 61/61/61 62/62/62 57/57/57
f 52/52/52 63/63/63 53/53/53
f 62/62/62 63/63/63 52/52/52
f 53/53/53 63/63/63 64/64/64
f 64/64/64 65/65/65 53/53/53
f 63/63/63 62/62/62 66/66/66
f 66/66/66 64/64/64 63/63/63
f 65/65/65 64/64/64 67/67/67
f 67/67/67 64/64/64 66/66/66
f 67/67/67 68/68/68 65/65/65
f 69/69/69 68/68/68 67/67/67
f 70/70/70 66/66/66 62/62/62
f 62/62/62 61/61/61 70/70/70
f 66/66/66 71/71/71 67/67/67
f 71/71/71 66/66/66 70/70/70
f 67/67/67 72/72/72 69/69/69
f 72/72/72 67/67/67 71/71/71
f 69/69/69 72/72/72 73/73/73
f 73/73/73 74/74/74 69/69/69
f 75/75/75 74/74/74 73/73/73
f 71/71/71 76/76/76 72/72/72
f 73/73/73 72/72/72 76/76/76
f 70/70/70 77/77/77 71/71/71
f 76/76/76 71/71/71 77/77/77
f 78/78/78 70/70/70 61/61/61
f 77/77/77 70/70/70 78/78/78
f 73/73/73 79/79/79 75/75/75
f 80/80/80 75/75/75 79/79/79
f 76/76/76 81/81/81 73/73/73
f 79/79/79 73/73/73 81/81/81
f 77/77/77 82/82/82 76/76/76
f 81/81/81 76/76/76 82/82/82
f 61/61/61 83/83/83 78/78/78
f 60/60/60 83/83/83 61/61/61
f 78/78/78 84/84/84 77/77/77
f 82/82/82 77/77/77 84/84/84
f 85/85/85 78/78/78 83/83/83
f 84/84/84 78/78/78 85/85/85
f 83/83/83 60/60/60 86/86/86
f 60/60/60 56/56/56 86/86/86
f 86/86/86 87/87/87 83/83/83
f 83/83/83 87/87/87 85/85/85
f 88/88/88 86/86/86 56/56/56
f 87/87/87 86/86/86 88/88/88
f 88/88/88 56/56/56 51/51/51
f 51/51/51 89/89/89 88/88/88
f 88/88/88 89/89/89 87/87/87
f 89/89/89 51/51/51 36/36/36
f 36/36/36 90/90/90 89/89/89
f 90/90/90 36/36/36 21/21/21
f 21/21/21 23/23/23 90/90/90
f 89/89/89 90/90/90 91/91/91
f 91/91/91 87/87/87 89/89/89
f 91/91/91 90/90/90 23/23/23
f 92/92/92 85/85/85 87/87/87
f 87/87/87 91/91/91 92/92/92
f 23/23/23 93/93/93 91/91/91
f 92/92/92 91/91/91 93/93/93
f 26/26/26 93/93/93 23/23/23
f 94/94/94 93/93/93 26/26/26
f 93/93/93 94/94/94 92/92/92
f 26/26/26 95/95/95 94/94/94
f 94/94/94 95/95/95 96/96/96
f 97/97/97 85/85/85 92/92/92
f 85/85/85 97/97/97 84/84/84
f 96/96/96 98/98/98 94/94/94
f 98/98/98 96/96/96 99/99/99
f 100/100/100 92/92/92 94/94/94
f 92/92/92 100/100/100 97/97/97
f 94/94/94 98/98/98 100/100/100
f 101/101/101 84/84/84 97/97/97
f 84/84/84 101/101/101 82/82/82
f 102/102/102 97/97/97 100/100/100
f 97/97/97 102/102/102 101/101/101
f 103/103/103 100/100/100 98/98/98
f 100/100/100 103/103/103 102/102/102
f 99/99/99 104/104/104 98/98/98
f 98/98/98 104/104/104 103/103/103
f 105/105/105 104/104/104 99/99/99
f 103/103/103 104/104/104 105/105/105
f 99/99/99 106/106/106 105/105/105
f 102/102/102 103/103/103 107/107/107
f 105/105/105 107/107/107 103/103/103
f 108/108/108 105/105/105 106/106/106
f 107/107/107 105/105/105 108/108/108
f 106/106/106 109/109/109 108/108/108
f 108/108/108 109/109/109 110/110/110
f 107/107/107 111/111/111 102/102/102
f 101/101/101 102/102/102 111/111/111
f 108/108/108 112/112/112 107/107/107
f 111/111/111 107/107/107 112/112/112
f 110/110/110 113/113/113 108/108/108
f 112/112/112 108/108/108 113/113/113
f 114/114/114 113/113/113 110/110/110
f 113/113/113 114/114/114 115/115/115
f 110/110/110 116/116/116 114/114/114
f 117/117/117 114/114/114 116/116/116
f 115/115/115 114/114/114 117/117/117
f 116/116/116 118/118/118 117/117/117
f 117/117/117 118/118/118 119/119/119
f 119/119/119 120/120/120 117/117/117
f 117/117/117 120/120/120 115/115/115
f 120/120/120 119/119/119 121/121/121
f 121/121/121 122/122/122 120/120/120
f 122/122/122 121/121/121 123/123/123
f 113/113/113 124/124/124 112/112/112
f 115/115/115 124/124/124 113/113/113
f 120/120/120 122/122/122 125/125/125
f 125/125/125 115/115/115 120/120/120
f 123/123/123 126/126/126 122/122/122
f 127/127/127 125/125/125 122/122/122
f 122/122/122 126/126/126 127/127/127
f 128/128/128 126/126/126 123/123/123
f 127/127/127 126/126/126 128/128/128
f 123/123/123 129/129/129 128/128/128
f 128/128/128 129/129/129 130/130/130
f 130/130/130 131/131/131 128/128/128
f 115/115/115 125/125/125 132/132/132
f 132/132/132 125/125/125 127/127/127
f 124/124/124 115/115/115 133/133/133
f 132/132/132 133/133/133 115/115/115
f 112/112/112 124/124/124 134/134/134
f 133/133/133 134/134/134 124/124/124
f 128/128/128 135/135/135 127/127/127
f 135/135/135 128/128/128 131/131/131
f 127/127/127 136/136/136 132/132/132
f 136/136/136 127/127/127 135/135/135
f 137/137/137 133/133/133 132/132/132
f 134/134/134 133/133/133 137/137/137
f 134/134/134 138/138/138 112/112/112
f 112/112/112 138/138/138 111/111/111
f 131/131/131 139/139/139 135/135/135
f 139/139/139 131/131/131 140/140/140
f 141/141/141 132/132/132 136/136/136
f 132/132/132 141/141/141 137/137/137
f 142/142/142 111/111/111 138/138/138
f 111/111/111 142/142/142 101/101/101
f 101/101/101 142/142/142 143/143/143
f 143/143/143 82/82/82 101/101/101
f 82/82/82 143/143/143 81/81/81
f 138/138/138 144/144/144 142/142/142
f 143/143/143 142/142/142 144/144/144
f 81/81/81 143/143/143 145/145/145
f 144/144/144 145/145/145 143/143/143
f 146/146/146 144/144/144 138/138/138
f 145/145/145 144/144/144 146/146/146
f 138/138/138 134/134/134 146/146/146
f 137/137/137 147/147/147 134/134/134
f 147/147/147 146/146/146 134/134/134
f 148/148/148 147/147/147 137/137/137
f 137/137/137 141/141/141 148/148/148
f 146/146/146 147/147/147 149/149/149
f 149/149/149 147/147/147 148/148/148
f 145/145/145 150/150/150 81/81/81
f 81/81/81 150/150/150 79/79/79
f 146/146/146 151/151/151 145/145/145
f 149/149/149 151/151/151 146/146/146
f 152/152/152 79/79/79 150/150/150
f 79/79/79 152/152/152 80/80/80
f 153/153/153 150/150/150 145/145/145
f 145/145/145 151/151/151 153/153/153
f 150/150/150 153/153/153 152/152/152
f 80/80/80 152/152/152 154/154/154
f 154/154/154 152/152/152 153/153/153
f 154/154/154 155/155/155 80/80/80
f 156/156/156 155/155/155 154/154/154
f 157/157/157 153/153/153 151/151/151
f 153/153/153 157/157/157 154/154/154
f 151/151/151 149/149/149 157/157/157
f 154/154/154 158/158/158 156/156/156
f 158/158/158 154/154/154 157/157/157
f 159/159/159 156/156/156 158/158/158
f 160/160/160 157/157/157 149/149/149
f 157/157/157 160/160/160 158/158/158
f 158/158/158 161/161/161 159/159/159
f 161/161/161 158/158/158 160/160/160
f 159/159/159 161/161/161 162/162/162
f 162/162/162 163/163/163 159/159/159
f 149/149/149 164/164/164 160/160/160
f 148/148/148 164/164/164 149/149/149
f 160/160/160 165/165/165 161/161/161
f 162/162/162 161/161/161 165/165/165
f 163/163/163 162/162/162 166/166/166
f 166/166/166 167/167/167 163/163/163
f 160/160/160 164/164/164 168/168/168
f 168/168/168 165/165/165 160/160/160
f 164/164/164 148/148/148 169/169/169
f 169/169/169 168/168/168 164/164/164
f 169/169/169 148/148/148 141/141/141
f 165/165/165 170/170/170 162/162/162
f 166/166/166 162/162/162 170/170/170
f 167/167/167 166/166/166 171/171/171
f 171/171/171 172/172/172 167/167/167
f 173/173/173 172/172/172 171/171/171
f 165/165/165 168/168/168 174/174/174
f 174/174/174 170/170/170 165/165/165
f 169/169/169 141/141/141 175/175/175
f 136/136/136 175/175/175 141/141/141
f 168/168/168 169/169/169 176/176/176
f 176/176/176 174/174/174 168/168/168
f 175/175/175 176/176/176 169/169/169
f 170/170/170 177/177/177 166/166/166
f 171/171/171 166/166/166 177/177/177
f 171/171/171 178/178/178 173/173/173
f 179/179/179 173/173/173 178/178/178
f 178/178/178 180/180/180 179/179/179
f 181/181/181 180/180/180 178/178/178
f 170/170/170 174/174/174 182/182/182
f 182/182/182 177/177/177 170/170/170
f 174/174/174 176/176/176 183/183/183
f 183/183/183 182/182/182 174/174/174
f 183/183/183 176/176/176 175/175/175
f 178/178/178 171/171/171 184/184/184
f 177/177/177 184/184/184 171/171/171
f 178/178/178 185/185/185 181/181/181
f 184/184/184 185/185/185 178/178/178
f 177/177/177 182/182/182 186/186/186
f 186/186/186 182/182/182 183/183/183
f 175/175/175 187/187/187 183/183/183
f 183/183/183 187/187/187 186/186/186
f 188/188/188 186/186/186 187/187/187
f 186/186/186 189/189/189 177/177/177
f 184/184/184 177/177/177 189/189/189
f 189/189/189 186/186/186 188/188/188
f 190/190/190 187/187/187 175/175/175
f 188/188/188 187/187/187 190/190/190
f 175/175/175 136/136/136 190/190/190
f 135/135/135 190/190/190 136/136/136
f 191/191/191 190/190/190 135/135/135
f 190/190/190 191/191/191 188/188/188
f 135/135/135 139/139/139 191/191/191
f 184/184/184 192/192/192 185/185/185
f 189/189/189 192/192/192 184/184/184
f 188/188/188 193/193/193 189/189/189
f 189/189/189 193/193/193 192/192/192
f 194/194/194 193/193/193 188/188/188
f 192/192/192 193/193/193 194/194/194
f 195/195/195 188/188/188 191/191/191
f 188/188/188 195/195/195 194/194/194
f 196/196/196 191/191/191 139/139/139
f 191/191/191 196/196/196 195/195/195
f 197/197/197 185/185/185 192/192/192
f 181/181/181 185/185/185 197/197/197
f 197/197/197 198/198/198 181/181/181
f 194/194/194 199/199/199 192/192/192
f 192/192/192 199/199/199 197/197/197
f 198/198/198 197/197/197 200/200/200
f 200/200/200 197/197/197 199/199/199
f 200/200/200 201/201/201 198/198/198
f 202/202/202 201/201/201 200/200/200
f 200/200/200 203/203/203 202/202/202
f 199/199/199 203/203/203 200/200/200
f 204/204/204 202/202/202 203/203/203
f 205/205/205 199/199/199 194/194/194
f 194/194/194 195/195/195 205/205/205
f 203/203/203 199/199/199 205/205/205
f 195/195/195 196/196/196 206/206/206
f 206/206/206 205/205/205 195/195/195
f 205/205/205 207/207/207 203/203/203
f 203/203/203 207/207/207 204/204/204
f 207/207/207 205/205/205 206/206/206
f 204/204/204 207/207/207 208/208/208
f 206/206/206 208/208/208 207/207/207
f 208/208/208 209/209/209 204/204/204
f 210/210/210 209/209/209 208/208/208
f 206/206/206 196/196/196 211/211/211
f 139/139/139 211/211/211 196/196/196
f 140/140/140 211/211/211 139/139/139
f 211/211/211 140/140/140 212/212/212
f 211/211/211 213/213/213 206/206/206
f 212/212/212 213/213/213 211/211/211
f 208/208/208 206/206/206 213/213/213
f 213/213/213 212/212/212 214/214/214
f 208/208/208 215/215/215 210/210/210
f 213/213/213 215/215/215 208/208/208
f 214/214/214 215/215/215 213/213/213
f 216/216/216 210/210/210 215/215/215
f 215/215/215 214/214/214 216/216/216
