g tb_02_mesh
v 0.23864788 -0.17785046 -0.20292939
v 0.23864788 -0.22952826 -0.19456974
v 0.19152987 -0.22952826 -0.20140946
v 0.19152987 -0.17785046 -0.20368937
v 0.14441186 -0.22952826 -0.2052093
v 0.14441186 -0.17785046 -0.19988951
v 0.09805383 -0.22952826 -0.20368937
v 0.061575368 -0.19608968 -0.19684964
v 0.19152987 -0.141372 -0.19304982
v 0.23864788 -0.12617263 -0.19304982
v 0.21812874 -0.09805383 -0.18545014
v 0.18013036 -0.12541267 -0.18773004
v 0.19760962 -0.06917505 -0.17785046
v 0.057775527 -0.16265109 -0.18924996
v 0.011417478 -0.19608968 -0.19304982
v 0.11249322 -0.13757215 -0.18317023
v 0.15049161 -0.0843744 -0.17557055
v 0.011417478 -0.16265109 -0.18773004
v -0.037980437 -0.19608968 -0.18773004
v -0.037980437 -0.16265109 -0.18241027
v -0.08813831 -0.19608968 -0.18317023
v 0.00989756 -0.10945335 -0.1672109
v 0.056255594 -0.104893535 -0.1672109
v -0.08813831 -0.16265109 -0.1770905
v -0.13753623 -0.19608968 -0.17785046
v 0.10261363 -0.08969417 -0.16949081
v 0.15049161 -0.017497241 -0.16037118
v 0.19760962 -0.017497241 -0.164931
v 0.19760962 0.03418058 -0.16037118
v 0.03345655 -0.044096112 -0.1482117
v 0.09577392 -0.028896749 -0.15429145
v -0.040260315 -0.10641347 -0.16569096
v 0.15049161 0.03418058 -0.15581138
v 0.19760962 0.085858405 -0.15277152
v 0.092734054 0.031900674 -0.15277152
v 0.15049161 0.085858405 -0.15657136
v 0.19760962 0.13753623 -0.16645093
v -0.03646049 -0.043336138 -0.15505141
v 0.031936616 0.02582094 -0.15581138
v -0.03494054 0.0174613 -0.16341107
v -0.09649795 0.013661444 -0.16873084
v -0.09725791 -0.044096112 -0.16417104
v -0.041020304 0.06913909 -0.16113116
v 0.025096923 0.09725791 -0.1672109
v 0.09425399 0.094978005 -0.16645093
v 0.15049161 0.15273556 -0.18773004
v -0.104857594 -0.11097328 -0.16949081
v -0.1519756 -0.16265109 -0.17329064
v -0.14513591 -0.10261363 -0.16189113
v -0.20061356 -0.17405061 -0.16949081
v -0.17629457 -0.23712794 -0.18393019
v 0.104133576 0.166415 -0.20596927
v 0.1816503 0.2089732 -0.18317023
v 0.22572842 0.17629457 -0.17861041
v 0.1314924 0.23253217 -0.20444933
v 0.038776338 0.1854142 -0.22572842
v 0.2097691 0.24697158 -0.15809128
v 0.2546072 0.21429297 -0.16417104
v 0.17101073 0.29028973 -0.1770905
v 0.22800833 0.27129057 -0.17253068
v 0.28272602 0.2530513 -0.1816503
v 0.28272602 0.30092934 -0.18924996
v 0.22800833 0.30092934 -0.18849
v 0.22800833 0.34956726 -0.21052907
v 0.28272602 0.34956726 -0.21584885
v 0.17329064 0.3488073 -0.2052093
v 0.12161283 0.30776903 -0.18089032
v 0.22800833 0.3982052 -0.18317023
v 0.28272602 0.3982052 -0.18393019
v 0.07297489 0.27129057 -0.19380978
v 0.17253068 0.3982052 -0.18545014
v 0.22800833 0.44608316 -0.1314924
v 0.28272602 0.44608316 -0.11097328
v 0.17253068 0.44608316 -0.14517184
v 0.22800833 0.49472114 -0.014457345
v 0.28272602 0.49472114 -0.012937427
v 0.17253068 0.49472114 -0.023576975
v 0.11781299 0.44608316 -0.16645093
v 0.11781299 0.49472114 -0.03345655
v 0.11781299 0.39744523 -0.20292939
v 0.0630953 0.44608316 -0.19760962
v 0.0630953 0.49472114 -0.074494824
v 0.119332924 0.34728733 -0.20292939
v 0.062335342 0.39668527 -0.20900914
v 0.0076176524 0.44608316 -0.19912955
v 0.0076176524 0.49472114 -0.1269326
v 0.062335342 0.34272757 -0.19608968
v 0.005337745 0.3959253 -0.2006495
v -0.047100037 0.44608316 -0.18849
v -0.047100037 0.49472114 -0.16417104
v -0.0007419884 0.33892772 -0.18241027
v -0.051659852 0.3959253 -0.1862101
v -0.10181773 0.44608316 -0.1862101
v -0.10181773 0.49472114 -0.18773004
v -0.15729538 0.44608316 -0.1763305
v -0.15729538 0.49472114 -0.2097691
v -0.21201307 0.49472114 -0.21432891
v -0.21201307 0.44608316 -0.15429145
v -0.15729538 0.3982052 -0.16189113
v -0.21201307 0.3982052 -0.114773124
v -0.104857594 0.39668527 -0.18545014
v -0.15729538 0.34956726 -0.164931
v -0.21201307 0.34956726 -0.13529225
v -0.15729538 0.30092934 -0.1717707
v -0.21201307 0.30092934 -0.17101073
v -0.21201307 0.2530513 -0.16645093
v -0.17705455 0.22417256 -0.14669177
v -0.06153944 0.34044763 -0.1717707
v -0.111697316 0.34500745 -0.17785046
v -0.14513591 0.2203727 -0.14669177
v -0.17705455 0.17173478 -0.1314924
v -0.011381537 0.26977065 -0.19304982
v -0.12537673 0.2872499 -0.16569096
v -0.08053863 0.27357045 -0.16189113
v 0.001537919 0.2234126 -0.20824917
v -0.11017737 0.22645244 -0.15429145
v -0.057739586 0.22797242 -0.17785046
v -0.14513591 0.17173478 -0.14441186
v -0.031140715 0.18161434 -0.19684964
v -0.09649795 0.18313429 -0.15961123
v -0.040260315 0.12309682 -0.16189113
v -0.09649795 0.121576875 -0.15733132
v -0.14513591 0.119297 -0.15581138
v -0.17705455 0.119297 -0.15353148
v -0.09649795 0.066859215 -0.16569096
v -0.14513591 0.06609923 -0.17253068
v -0.17705455 0.06609923 -0.17329064
v -0.14513591 0.013661444 -0.17405061
v -0.17705455 0.013661444 -0.17937039
v -0.14513591 -0.038776338 -0.164931
v -0.17705455 -0.038776338 -0.16341107
v -0.17705455 -0.09197408 -0.15277152
v -0.17933446 -0.14669177 -0.164931
v -0.20517334 -0.1269326 -0.15429145
v -0.23253217 -0.16265109 -0.16341107
v -0.23253217 -0.22040865 -0.17557055
v -0.21505293 -0.2781662 -0.19076991
v -0.23253217 -0.2781662 -0.18924996
vt 0.4793613 0.6728034
vt 0.51542675 0.6728034
vt 0.51542675 0.6891968
vt 0.4793613 0.6891968
vt 0.51542675 0.7055902
vt 0.4793613 0.7055902
vt 0.51542675 0.7219836
vt 0.492476 0.7350983
vt 0.45313185 0.6891968
vt 0.4432958 0.6728034
vt 0.4236237 0.67936075
vt 0.44001713 0.6924755
vt 0.40067297 0.6859181
vt 0.46952525 0.738377
vt 0.492476 0.7547704
vt 0.44985315 0.71870494
vt 0.4137877 0.7023115
vt 0.46952525 0.7547704
vt 0.492476 0.7711638
vt 0.46952525 0.7711638
vt 0.492476 0.7875572
vt 0.4301811 0.7547704
vt 0.4269024 0.738377
vt 0.46952525 0.7875572
vt 0.492476 0.8072293
vt 0.41706637 0.7219836
vt 0.36460748 0.7023115
vt 0.36460748 0.6859181
vt 0.328542 0.6859181
vt 0.38427955 0.7449344
vt 0.37444353 0.7219836
vt 0.4269024 0.7711638
vt 0.328542 0.7023115
vt 0.29247653 0.6859181
vt 0.33182067 0.7252623
vt 0.29247653 0.7023115
vt 0.25641105 0.6859181
vt 0.38427955 0.7711638
vt 0.33509937 0.7449344
vt 0.3416567 0.7711638
vt 0.3449354 0.79083586
vt 0.38427955 0.79083586
vt 0.30559126 0.7711638
vt 0.28591916 0.74821305
vt 0.28591916 0.7252623
vt 0.246575 0.7023115
vt 0.4301811 0.7941146
vt 0.46952525 0.81050795
vt 0.4269024 0.81050795
vt 0.4760826 0.83018005
vt 0.5219841 0.820344
vt 0.23673896 0.71870494
vt 0.20723084 0.6924755
vt 0.2301816 0.6760821
vt 0.18755876 0.71214753
vt 0.22362424 0.7449344
vt 0.17772272 0.6826394
vt 0.20067348 0.66624606
vt 0.14821461 0.6957542
vt 0.16132933 0.6760821
vt 0.17444403 0.65641
vt 0.14165725 0.65641
vt 0.14165725 0.6760821
vt 0.10559176 0.6760821
vt 0.10559176 0.65641
vt 0.10559176 0.6957542
vt 0.13509989 0.71542627
vt 0.072804965 0.6760821
vt 0.072804965 0.65641
vt 0.16132933 0.7318196
vt 0.072804965 0.6957542
vt 0.036739483 0.6760821
vt 0.036739483 0.65641
vt 0.036739483 0.6957542
vt 0.003952682 0.6760821
vt 0.003952682 0.65641
vt 0.003952682 0.6957542
vt 0.036739483 0.71542627
vt 0.003952682 0.71542627
vt 0.072804965 0.71542627
vt 0.036739483 0.7350983
vt 0.003952682 0.7350983
vt 0.10887044 0.71542627
vt 0.072804965 0.7350983
vt 0.036739483 0.7547704
vt 0.003952682 0.7547704
vt 0.11214912 0.7350983
vt 0.072804965 0.7547704
vt 0.036739483 0.7744425
vt 0.003952682 0.7744425
vt 0.11214912 0.7580491
vt 0.072804965 0.7744425
vt 0.036739483 0.7941146
vt 0.003952682 0.7941146
vt 0.036739483 0.8137866
vt 0.003952682 0.8137866
vt 0.003952682 0.8334587
vt 0.036739483 0.8334587
vt 0.072804965 0.8137866
vt 0.072804965 0.8334587
vt 0.072804965 0.7941146
vt 0.10559176 0.8137866
vt 0.10559176 0.8334587
vt 0.14165725 0.8137866
vt 0.14165725 0.8334587
vt 0.17444403 0.8334587
vt 0.19411612 0.820344
vt 0.11214912 0.77772117
vt 0.10887044 0.79739326
vt 0.1973948 0.81050795
vt 0.23346028 0.820344
vt 0.16132933 0.76132774
vt 0.15149328 0.80067194
vt 0.16132933 0.7875572
vt 0.19411612 0.7580491
vt 0.19411612 0.79739326
vt 0.19083744 0.77772117
vt 0.23346028 0.81050795
vt 0.22362424 0.76788515
vt 0.22362424 0.79083586
vt 0.2662471 0.7711638
vt 0.2662471 0.79083586
vt 0.26952577 0.81050795
vt 0.26952577 0.820344
vt 0.30559126 0.79083586
vt 0.30559126 0.81050795
vt 0.30559126 0.820344
vt 0.3449354 0.81050795
vt 0.3449354 0.820344
vt 0.38100088 0.81050795
vt 0.38100088 0.820344
vt 0.41706637 0.820344
vt 0.45641053 0.820344
vt 0.4432958 0.83018005
vt 0.46952525 0.84001607
vt 0.5088694 0.84001607
vt 0.54821354 0.8334587
vt 0.54821354 0.84001607
vn -0.01273036 -0.06372911 0.99788606
vn -0.14016277 0.16564935 0.9761735
vn -0.06370336 0.06370336 0.9959336
vn 0.012756109 -0.14018857 0.9900426
vn 0.012756109 -0.06372911 0.9978857
vn 0.06372911 -0.21664804 0.97416747
vn 0.06372911 -0.114702106 0.99135363
vn 0.08921558 -0.19116157 0.9774957
vn 0.06372911 -0.24213451 0.96814746
vn 0.06372911 -0.19116157 0.97948754
vn 0.08921558 -0.21664804 0.9721647
vn 0.08921558 -0.24213451 0.9661322
vn 0.114702106 -0.21664804 0.969488
vn 0.06372911 -0.2931075 0.95395315
vn 0.06372911 -0.16567504 0.98411906
vn 0.08921558 -0.2931075 0.9519079
vn 0.114702106 -0.21664804 0.969488
vn 0.06372911 -0.24213451 0.96814746
vn 0.08921558 -0.16567504 0.9821366
vn 0.08921558 -0.24213451 0.9661322
vn 0.08921558 -0.16567504 0.9821366
vn 0.012756109 -0.2931075 0.9559944
vn 0.06372911 -0.2931075 0.95395315
vn 0.06372911 -0.16567504 0.98411906
vn 0.08921558 -0.14018857 0.9860972
vn 0.14018857 -0.24213451 0.9600615
vn 0.114702106 -0.14018857 0.98345846
vn 0.08921558 -0.16567504 0.9821366
vn 0.08921558 -0.114702106 0.98938566
vn 0.012756109 -0.08921558 0.9959307
vn 0.114702106 -0.08921558 0.98938566
vn -0.01273036 -0.19116157 0.981476
vn 0.038242638 -0.06372911 0.9972342
vn -0.03821689 0.1146763 0.9926675
vn -0.01273036 0.06370336 0.9978877
vn -0.08918983 0.2166223 0.9721728
vn -0.19113582 0.26759523 0.9443833
vn -0.1146763 -0.038242638 0.99266654
vn -0.06370336 0.08918983 0.9939754
vn -0.08918983 0.03821689 0.99528116
vn -0.08918983 0.03821689 0.99528116
vn -0.06370336 0.01273036 0.9978877
vn -0.01273036 -0.012756109 0.9998376
vn 0.06372911 0.3185683 0.9457552
vn -0.06370336 0.34405476 0.9367861
vn -0.26759523 0.29308182 0.9178757
vn 0.06372911 -0.14018857 0.98807174
vn 0.114702106 -0.16567504 0.9794872
vn 0.16567504 -0.114702106 0.9794872
vn 0.08921558 -0.21664804 0.9721647
vn 0.06372911 -0.21664804 0.97416747
vn -0.2166223 0.3185683 0.92281586
vn -0.34405476 -0.06372911 0.9367843
vn -0.06370336 -0.038242638 0.99723583
vn -0.24210876 -0.114702106 0.96344525
vn 0.06372911 0.14016277 0.9880754
vn -0.1146763 0.06370336 0.9913583
vn 0.114702106 -0.012756109 0.993318
vn -0.1146763 0.16564935 0.9794946
vn 0.16567504 0.36954123 0.9143255
vn 0.24213451 0.19113582 0.95122975
vn 0.08921558 0.36954123 0.9249215
vn 0.06372911 0.44600075 0.8927609
vn 0.06372911 -0.012756109 0.9978857
vn 0.06372911 -0.038242638 0.9972342
vn 0.012756109 0.06370336 0.9978874
vn -0.06370336 0.1146763 0.9913583
vn -0.01273036 -0.62443185 0.7809755
vn -0.03821689 -0.6754049 0.73645616
vn -0.03821689 -0.21664804 0.9755014
vn -0.14016277 -0.522486 0.84104866
vn -0.14016277 -0.8538103 0.50136054
vn -0.14016277 -0.8792968 0.45518303
vn -0.16564935 -0.8028373 0.5727238
vn -0.06370336 -0.9047833 0.4210808
vn -0.01273036 -0.9047833 0.42568192
vn -0.06370336 -0.9302698 0.3613032
vn -0.2166223 -0.77735084 0.59059334
vn -0.1146763 -0.9302698 0.3484932
vn -0.14016277 -0.3440805 0.92841965
vn -0.2166223 -0.5989454 0.770934
vn -0.26759523 -0.8792968 0.3939923
vn 0.038242638 0.26759523 0.9627722
vn -0.03821689 -0.038242638 0.9985374
vn 0.06372911 -0.522486 0.8502629
vn -0.3950277 -0.72637784 0.56243074
vn 0.08921558 0.19113582 0.97750074
vn 0.19116157 0.1146763 0.9748367
vn 0.038242638 -0.31859398 0.94711953
vn -0.36954123 -0.31859398 0.8728901
vn 0.16567504 0.08918983 0.98213893
vn 0.14018857 0.14016277 0.98015386
vn 0.08921558 -0.012756109 0.9959307
vn -0.24210876 0.16564935 0.956004
vn 0.14018857 0.42051417 0.89638996
vn -0.19113582 0.5734332 0.79664385
vn 0.08921558 0.6753791 0.7320544
vn 0.3950535 0.5734332 0.7177096
vn 0.47151294 0.1146763 0.8743711
vn 0.5989454 0.14016277 0.7884281
vn 0.19116157 0.06370336 0.9794892
vn 0.42053998 -0.08921558 0.9028769
vn 0.36956698 -0.36956698 0.85254943
vn 0.06372911 0.03821689 0.9972352
vn 0.012756109 -0.26762104 0.9634398
vn -0.14016277 0.26759523 0.95328236
vn -0.03821689 0.3185683 0.9471292
vn 0.08921558 0.1146763 0.98938864
vn 0.06372911 0.1146763 0.9913566
vn 0.14018857 0.19113582 0.97150105
vn 0.26762104 -0.06372911 0.9614144
vn 0.21664804 -0.16567504 0.96208906
vn -0.03821689 0.24210876 0.9694962
vn 0.21664804 0.06370336 0.97416914
vn 0.26762104 -0.21664804 0.9388518
vn 0.26762104 0.06370336 0.96141607
vn 0.44602644 -0.08921558 0.8905622
vn 0.2931075 -0.06372911 0.95395315
vn 0.42053998 0.19113582 0.88691217
vn 0.3440805 0.06370336 0.93677664
vn 0.19116157 0.2166223 0.9573568
vn 0.06372911 -0.06372911 0.9959303
vn 0.06372911 -0.26762104 0.9614144
vn 0.038242638 -0.3440805 0.938161
vn -0.08918983 -0.114702106 0.989388
vn -0.06370336 -0.16567504 0.9841207
vn -0.03821689 -0.21664804 0.9755014
vn -0.1146763 0.06370336 0.9913583
vn -0.1146763 0.03821689 0.9926675
vn 0.012756109 0.14016277 0.9900463
vn 0.06372911 0.24210876 0.9681539
vn 0.21664804 -0.06372911 0.97416747
vn 0.16567504 -0.24213451 0.95599306
vn 0.16567504 -0.26762104 0.94917375
vn 0.08921558 -0.26762104 0.959385
vn 0.08921558 -0.21664804 0.9721647
vn 0.08921558 -0.21664804 0.9721647
vn 0.114702106 -0.21664804 0.969488
g tb_02_mesh_0
f 3/3/3 2/2/2 1/1/1
f 1/1/1 4/4/4 3/3/3
f 5/5/5 3/3/3 4/4/4
f 4/4/4 6/6/6 5/5/5
f 7/7/7 5/5/5 6/6/6
f 6/6/6 8/8/8 7/7/7
f 9/9/9 4/4/4 1/1/1
f 6/6/6 4/4/4 9/9/9
f 1/1/1 10/10/10 9/9/9
f 9/9/9 10/10/10 11/11/11
f 11/11/11 12/12/12 9/9/9
f 9/9/9 12/12/12 6/6/6
f 12/12/12 11/11/11 13/13/13
f 14/14/14 8/8/8 6/6/6
f 15/15/15 8/8/8 14/14/14
f 6/6/6 12/12/12 16/16/16
f 6/6/6 16/16/16 14/14/14
f 13/13/13 17/17/17 12/12/12
f 16/16/16 12/12/12 17/17/17
f 14/14/14 18/18/18 15/15/15
f 19/19/19 15/15/15 18/18/18
f 18/18/18 20/20/20 19/19/19
f 21/21/21 19/19/19 20/20/20
f 22/22/22 18/18/18 14/14/14
f 20/20/20 18/18/18 22/22/22
f 23/23/23 14/14/14 16/16/16
f 14/14/14 23/23/23 22/22/22
f 20/20/20 24/24/24 21/21/21
f 25/25/25 21/21/21 24/24/24
f 16/16/16 26/26/26 23/23/23
f 17/17/17 26/26/26 16/16/16
f 27/27/27 17/17/17 13/13/13
f 13/13/13 28/28/28 27/27/27
f 27/27/27 28/28/28 29/29/29
f 30/30/30 23/23/23 26/26/26
f 22/22/22 23/23/23 30/30/30
f 31/31/31 26/26/26 17/17/17
f 17/17/17 27/27/27 31/31/31
f 26/26/26 31/31/31 30/30/30
f 22/22/22 32/32/32 20/20/20
f 24/24/24 20/20/20 32/32/32
f 29/29/29 33/33/33 27/27/27
f 33/33/33 29/29/29 34/34/34
f 35/35/35 31/31/31 27/27/27
f 27/27/27 33/33/33 35/35/35
f 34/34/34 36/36/36 33/33/33
f 35/35/35 33/33/33 36/36/36
f 36/36/36 34/34/34 37/37/37
f 22/22/22 30/30/30 38/38/38
f 38/38/38 32/32/32 22/22/22
f 39/39/39 30/30/30 31/31/31
f 31/31/31 35/35/35 39/39/39
f 40/40/40 38/38/38 30/30/30
f 30/30/30 39/39/39 40/40/40
f 38/38/38 40/40/40 41/41/41
f 32/32/32 38/38/38 42/42/42
f 41/41/41 42/42/42 38/38/38
f 43/43/43 40/40/40 39/39/39
f 41/41/41 40/40/40 43/43/43
f 44/44/44 39/39/39 35/35/35
f 39/39/39 44/44/44 43/43/43
f 36/36/36 45/45/45 35/35/35
f 35/35/35 45/45/45 44/44/44
f 37/37/37 46/46/46 36/36/36
f 45/45/45 36/36/36 46/46/46
f 42/42/42 47/47/47 32/32/32
f 32/32/32 47/47/47 24/24/24
f 47/47/47 48/48/48 24/24/24
f 24/24/24 48/48/48 25/25/25
f 49/49/49 47/47/47 42/42/42
f 48/48/48 47/47/47 49/49/49
f 25/25/25 48/48/48 50/50/50
f 50/50/50 51/51/51 25/25/25
f 44/44/44 45/45/45 52/52/52
f 46/46/46 52/52/52 45/45/45
f 53/53/53 46/46/46 37/37/37
f 37/37/37 54/54/54 53/53/53
f 55/55/55 52/52/52 46/46/46
f 46/46/46 53/53/53 55/55/55
f 52/52/52 56/56/56 44/44/44
f 56/56/56 52/52/52 55/55/55
f 57/57/57 53/53/53 54/54/54
f 54/54/54 58/58/58 57/57/57
f 53/53/53 57/57/57 59/59/59
f 59/59/59 55/55/55 53/53/53
f 60/60/60 57/57/57 58/58/58
f 59/59/59 57/57/57 60/60/60
f 58/58/58 61/61/61 60/60/60
f 60/60/60 61/61/61 62/62/62
f 62/62/62 63/63/63 60/60/60
f 60/60/60 63/63/63 59/59/59
f 64/64/64 63/63/63 62/62/62
f 62/62/62 65/65/65 64/64/64
f 66/66/66 59/59/59 63/63/63
f 63/63/63 64/64/64 66/66/66
f 55/55/55 59/59/59 67/67/67
f 67/67/67 59/59/59 66/66/66
f 68/68/68 64/64/64 65/65/65
f 65/65/65 69/69/69 68/68/68
f 67/67/67 70/70/70 55/55/55
f 55/55/55 70/70/70 56/56/56
f 71/71/71 66/66/66 64/64/64
f 64/64/64 68/68/68 71/71/71
f 72/72/72 68/68/68 69/69/69
f 69/69/69 73/73/73 72/72/72
f 68/68/68 72/72/72 74/74/74
f 74/74/74 71/71/71 68/68/68
f 75/75/75 72/72/72 73/73/73
f 74/74/74 72/72/72 75/75/75
f 73/73/73 76/76/76 75/75/75
f 75/75/75 77/77/77 74/74/74
f 78/78/78 74/74/74 77/77/77
f 71/71/71 74/74/74 78/78/78
f 77/77/77 79/79/79 78/78/78
f 66/66/66 71/71/71 80/80/80
f 78/78/78 80/80/80 71/71/71
f 81/81/81 78/78/78 79/79/79
f 79/79/79 82/82/82 81/81/81
f 80/80/80 83/83/83 66/66/66
f 66/66/66 83/83/83 67/67/67
f 84/84/84 80/80/80 78/78/78
f 78/78/78 81/81/81 84/84/84
f 83/83/83 80/80/80 84/84/84
f 85/85/85 81/81/81 82/82/82
f 84/84/84 81/81/81 85/85/85
f 82/82/82 86/86/86 85/85/85
f 67/67/67 83/83/83 87/87/87
f 84/84/84 87/87/87 83/83/83
f 87/87/87 70/70/70 67/67/67
f 85/85/85 88/88/88 84/84/84
f 87/87/87 84/84/84 88/88/88
f 89/89/89 85/85/85 86/86/86
f 88/88/88 85/85/85 89/89/89
f 86/86/86 90/90/90 89/89/89
f 88/88/88 91/91/91 87/87/87
f 70/70/70 87/87/87 91/91/91
f 89/89/89 92/92/92 88/88/88
f 91/91/91 88/88/88 92/92/92
f 93/93/93 89/89/89 90/90/90
f 92/92/92 89/89/89 93/93/93
f 90/90/90 94/94/94 93/93/93
f 95/95/95 93/93/93 94/94/94
f 94/94/94 96/96/96 95/95/95
f 95/95/95 96/96/96 97/97/97
f 97/97/97 98/98/98 95/95/95
f 99/99/99 95/95/95 98/98/98
f 93/93/93 95/95/95 99/99/99
f 98/98/98 100/100/100 99/99/99
f 93/93/93 101/101/101 92/92/92
f 99/99/99 101/101/101 93/93/93
f 102/102/102 99/99/99 100/100/100
f 101/101/101 99/99/99 102/102/102
f 100/100/100 103/103/103 102/102/102
f 104/104/104 102/102/102 103/103/103
f 103/103/103 105/105/105 104/104/104
f 104/104/104 105/105/105 106/106/106
f 106/106/106 107/107/107 104/104/104
f 108/108/108 92/92/92 101/101/101
f 92/92/92 108/108/108 91/91/91
f 102/102/102 109/109/109 101/101/101
f 109/109/109 102/102/102 104/104/104
f 101/101/101 109/109/109 108/108/108
f 104/104/104 107/107/107 110/110/110
f 110/110/110 107/107/107 111/111/111
f 112/112/112 91/91/91 108/108/108
f 91/91/91 112/112/112 70/70/70
f 104/104/104 113/113/113 109/109/109
f 110/110/110 113/113/113 104/104/104
f 114/114/114 108/108/108 109/109/109
f 109/109/109 113/113/113 114/114/114
f 108/108/108 114/114/114 112/112/112
f 70/70/70 112/112/112 115/115/115
f 115/115/115 56/56/56 70/70/70
f 113/113/113 110/110/110 116/116/116
f 116/116/116 114/114/114 113/113/113
f 114/114/114 117/117/117 112/112/112
f 115/115/115 112/112/112 117/117/117
f 117/117/117 114/114/114 116/116/116
f 111/111/111 118/118/118 110/110/110
f 116/116/116 110/110/110 118/118/118
f 119/119/119 56/56/56 115/115/115
f 117/117/117 119/119/119 115/115/115
f 116/116/116 120/120/120 117/117/117
f 120/120/120 119/119/119 117/117/117
f 118/118/118 120/120/120 116/116/116
f 56/56/56 119/119/119 121/121/121
f 121/121/121 119/119/119 120/120/120
f 121/121/121 44/44/44 56/56/56
f 121/121/121 43/43/43 44/44/44
f 120/120/120 122/122/122 121/121/121
f 122/122/122 120/120/120 118/118/118
f 43/43/43 121/121/121 122/122/122
f 123/123/123 118/118/118 111/111/111
f 118/118/118 123/123/123 122/122/122
f 111/111/111 124/124/124 123/123/123
f 122/122/122 125/125/125 43/43/43
f 125/125/125 122/122/122 123/123/123
f 43/43/43 125/125/125 41/41/41
f 126/126/126 123/123/123 124/124/124
f 123/123/123 126/126/126 125/125/125
f 41/41/41 125/125/125 126/126/126
f 124/124/124 127/127/127 126/126/126
f 128/128/128 126/126/126 127/127/127
f 126/126/126 128/128/128 41/41/41
f 127/127/127 129/129/129 128/128/128
f 41/41/41 128/128/128 130/130/130
f 130/130/130 128/128/128 129/129/129
f 130/130/130 42/42/42 41/41/41
f 129/129/129 131/131/131 130/130/130
f 42/42/42 130/130/130 49/49/49
f 130/130/130 131/131/131 132/132/132
f 132/132/132 49/49/49 130/130/130
f 133/133/133 49/49/49 132/132/132
f 49/49/49 133/133/133 48/48/48
f 132/132/132 134/134/134 133/133/133
f 133/133/133 50/50/50 48/48/48
f 50/50/50 133/133/133 134/134/134
f 134/134/134 135/135/135 50/50/50
f 50/50/50 135/135/135 136/136/136
f 136/136/136 51/51/51 50/50/50
f 137/137/137 51/51/51 136/136/136
f 136/136/136 138/138/138 137/137/137
