g tb_05_mesh
v 0.21457823 0.30979106 -0.17818083
v 0.26393062 0.30979106 -0.16892725
v 0.26393062 0.26228938 -0.15782297
v 0.21457823 0.26228938 -0.15658915
v 0.26393062 0.21478769 -0.14980319
v 0.16522582 0.26228938 -0.15535535
v 0.16522582 0.30979106 -0.17941464
v 0.21457823 0.21478769 -0.15165392
v 0.26393062 0.16728601 -0.14671867
v 0.16522582 0.21787223 -0.15103701
v 0.21457823 0.16728601 -0.14548486
v 0.26393062 0.119784296 -0.15535535
v 0.12697771 0.26228938 -0.15350462
v 0.11525652 0.30979106 -0.17386249
v 0.08687888 0.29498532 -0.16399202
v 0.1263608 0.22650889 -0.15473844
v 0.10908747 0.2530358 -0.15535535
v 0.058501244 0.28017965 -0.15905677
v 0.15843987 0.17098743 -0.15412153
v 0.21457823 0.119784296 -0.15288772
v 0.07022244 0.2326779 -0.1615244
v 0.21457823 0.07598406 -0.1615244
v 0.26393062 0.07228261 -0.16029058
v 0.0893465 0.18826076 -0.1627582
v 0.0035966933 0.2326779 -0.16645963
v 0.0035966933 0.28017965 -0.16460893
v 0.15288772 0.110530734 -0.15720606
v 0.083794355 0.1296548 -0.16460893
v 0.013467193 0.18517622 -0.16892725
v -0.051307857 0.2326779 -0.17016107
v -0.051307857 0.28017965 -0.1621413
v 0.019636244 0.13397312 -0.17077796
v -0.0469895 0.18641004 -0.17262869
v -0.10621241 0.2326779 -0.16645963
v -0.10621241 0.28017965 -0.15905677
v -0.039586663 0.13890836 -0.17139487
v -0.04390499 0.06302905 -0.17818083
v 0.02703908 0.08215311 -0.16892725
v 0.09489864 0.067964286 -0.16707654
v -0.103744775 0.18517622 -0.17201178
v -0.095725 0.13705766 -0.17633012
v -0.15803242 0.12533647 -0.17818083
v -0.16111696 0.2326779 -0.16090749
v -0.16111696 0.28017965 -0.15782297
v -0.15988314 0.1839424 -0.16769345
v -0.2154046 0.2326779 -0.15535535
v -0.2154046 0.28017965 -0.15288772
v -0.2154046 0.18517622 -0.16460893
v -0.27030912 0.2326779 -0.15165392
v -0.27030912 0.28017965 -0.1627582
v -0.27030912 0.18517622 -0.16029058
v -0.2154046 0.13705766 -0.17139487
v -0.27030912 0.13705766 -0.16460893
v -0.2154046 0.1080631 -0.17756392
v -0.27030912 0.08955595 -0.17633012
v -0.25056818 0.06302905 -0.18434988
v -0.20676795 0.095725 -0.18188226
v -0.17592266 0.054392368 -0.18928511
v -0.23082724 0.036502123 -0.19113584
v -0.23082724 -0.018402427 -0.20162323
v -0.12410265 0.0691981 -0.18434988
v -0.1666691 -0.07454078 -0.18434988
v -0.23082724 -0.07269007 -0.19360346
v -0.19319603 -0.10538603 -0.18620059
v -0.15556481 -0.138082 -0.19422036
v -0.08708835 0.009975225 -0.18620059
v -0.11484906 -0.029506713 -0.18311606
v -0.11484906 -0.119574845 -0.19422036
v -0.11484906 -0.18373297 -0.22198108
v -0.15556481 -0.18373297 -0.20162323
v -0.11484906 -0.23000085 -0.26269683
v -0.07351643 -0.23000085 -0.27380112
v -0.15556481 -0.23000085 -0.24357277
v -0.11484906 -0.2756518 -0.2818209
v -0.15556481 -0.2756518 -0.27503493
v -0.07351643 -0.18373297 -0.24480657
v -0.07351643 -0.098600075 -0.19483727
v -0.052541673 -0.038143396 -0.17756392
v -0.11484906 -0.3213028 -0.28613922
v -0.15556481 -0.3213028 -0.28305468
v -0.07351643 -0.2756518 -0.2855223
v -0.07351643 -0.3213028 -0.28675613
v -0.045138806 -0.2756518 -0.2855223
v -0.032800704 -0.3213028 -0.2855223
v 0.0035966933 -0.30032802 -0.2836716
v -0.019228786 -0.2608461 -0.2842885
v 0.03999409 -0.27935326 -0.28058708
v 0.011616468 -0.18249917 -0.26146302
v -0.024164021 -0.098600075 -0.21396133
v 0.027655989 -0.23370229 -0.2756518
v 0.09243102 -0.22691633 -0.2577616
v 0.09243102 -0.27935326 -0.2756518
v 0.08441126 -0.17694701 -0.23123467
v 0.03690958 -0.12327628 -0.235553
v 0.018402427 -0.07207316 -0.22013038
v 0.14486796 -0.22691633 -0.235553
v 0.14486796 -0.27935326 -0.2731842
v 0.14301725 -0.1750963 -0.18620059
v 0.08317745 -0.12327628 -0.21704584
v 0.19730489 -0.22691633 -0.21766275
v 0.19730489 -0.27935326 -0.2756518
v 0.08317745 -0.067754835 -0.20347393
v -0.022930205 -0.015934795 -0.17879774
v 0.0060643256 0.029099256 -0.17818083
v 0.024571478 -0.009765744 -0.18249917
v 0.04986459 0.030333072 -0.17139487
v 0.08009292 -0.015317887 -0.18064845
v 0.14178343 -0.12204248 -0.17139487
v 0.14240034 -0.0652872 -0.17262869
v 0.14178343 0.008741409 -0.16645963
v 0.19668798 -0.12204248 -0.14054962
v 0.17139487 0.064879775 -0.16399202
v 0.20347393 -0.0023628771 -0.1621413
v 0.19792178 -0.06590411 -0.14610177
v 0.24974182 -0.018402427 -0.14548486
v 0.30217874 0.03403452 -0.14548486
v 0.30217874 -0.018402427 -0.13006224
v 0.24974182 -0.07022244 -0.12759462
v 0.30217874 -0.07022244 -0.12327628
v 0.30217874 -0.12265937 -0.13376367
v 0.24974182 -0.12265937 -0.12944533
v 0.30217874 -0.1750963 -0.16769345
v 0.19730489 -0.1750963 -0.15905677
v 0.24974182 -0.1750963 -0.15597224
v 0.24974182 -0.22691633 -0.21827966
v 0.30217874 -0.22691633 -0.22568253
v 0.24974182 -0.27935326 -0.27935326
v 0.30217874 -0.27935326 -0.27935326
vt 0.24165392 0.5088701
vt 0.24165392 0.49140498
vt 0.2748376 0.49140498
vt 0.2748376 0.5088701
vt 0.30802134 0.49140498
vt 0.2748376 0.5280817
vt 0.24165392 0.5280817
vt 0.30802134 0.5088701
vt 0.34295154 0.49140498
vt 0.30627483 0.5280817
vt 0.34295154 0.5088701
vt 0.37613526 0.49140498
vt 0.2748376 0.5403073
vt 0.24165392 0.5455468
vt 0.25213298 0.5542794
vt 0.30103528 0.5403073
vt 0.28182366 0.5472933
vt 0.26261204 0.5647584
vt 0.33945853 0.5298282
vt 0.37613526 0.5088701
vt 0.29579577 0.5612654
vt 0.40582594 0.5088701
vt 0.40931898 0.49140498
vt 0.32723296 0.5542794
vt 0.29579577 0.58397007
vt 0.26261204 0.58397007
vt 0.38137478 0.5315747
vt 0.3691492 0.55602586
vt 0.32897946 0.580477
vt 0.29579577 0.6049282
vt 0.26261204 0.6049282
vt 0.3656562 0.5787305
vt 0.32897946 0.6031817
vt 0.29579577 0.6241398
vt 0.26261204 0.6241398
vt 0.3621632 0.59968865
vt 0.416305 0.6014352
vt 0.40233293 0.57698405
vt 0.412812 0.5525329
vt 0.32897946 0.6223933
vt 0.3639097 0.62064683
vt 0.37264222 0.6416049
vt 0.29579577 0.64335144
vt 0.26261204 0.64335144
vt 0.33072597 0.64335144
vt 0.29579577 0.6625631
vt 0.26261204 0.6625631
vt 0.32897946 0.6625631
vt 0.29579577 0.6817747
vt 0.26261204 0.6817747
vt 0.32897946 0.6817747
vt 0.3639097 0.6625631
vt 0.3639097 0.6817747
vt 0.38486782 0.6625631
vt 0.39709342 0.6817747
vt 0.416305 0.6747886
vt 0.39360037 0.65907
vt 0.42154455 0.648591
vt 0.43377012 0.6678026
vt 0.47219336 0.6678026
vt 0.41106546 0.6293794
vt 0.5123631 0.645098
vt 0.5106166 0.6678026
vt 0.5350678 0.6538305
vt 0.5577724 0.6416049
vt 0.45298174 0.61715376
vt 0.48092592 0.62763286
vt 0.54380035 0.6258863
vt 0.58920956 0.6258863
vt 0.58920956 0.6416049
vt 0.6223933 0.6258863
vt 0.6223933 0.6119143
vt 0.6223933 0.6416049
vt 0.6538305 0.6258863
vt 0.6538305 0.6416049
vt 0.58920956 0.6119143
vt 0.5298282 0.6119143
vt 0.48791197 0.6049282
vt 0.6870142 0.6258863
vt 0.6870142 0.6416049
vt 0.6538305 0.6119143
vt 0.6870142 0.6119143
vt 0.6538305 0.6014352
vt 0.6870142 0.5979421
vt 0.67129564 0.58397007
vt 0.64335144 0.5927026
vt 0.65732354 0.5717445
vt 0.58920956 0.58222353
vt 0.5298282 0.59444916
vt 0.6241398 0.57698405
vt 0.62064683 0.5525329
vt 0.65732354 0.5525329
vt 0.5857166 0.55602586
vt 0.5472933 0.573491
vt 0.5106166 0.5787305
vt 0.62064683 0.5350678
vt 0.65732354 0.5350678
vt 0.58397007 0.5350678
vt 0.5472933 0.55602586
vt 0.62064683 0.51585615
vt 0.65732354 0.51585615
vt 0.5088701 0.55602586
vt 0.47219336 0.59444916
vt 0.43900967 0.58397007
vt 0.4669538 0.57698405
vt 0.43900967 0.5682515
vt 0.47044685 0.5577724
vt 0.5455468 0.5350678
vt 0.50537705 0.5350678
vt 0.45472825 0.5350678
vt 0.5455468 0.51585615
vt 0.4145585 0.5245887
vt 0.4617143 0.5141096
vt 0.5071236 0.51585615
vt 0.4739399 0.49664453
vt 0.43551666 0.4791794
vt 0.4739399 0.4791794
vt 0.5106166 0.49664453
vt 0.5106166 0.4791794
vt 0.5472933 0.4791794
vt 0.5472933 0.49664453
vt 0.58397007 0.4791794
vt 0.58397007 0.51585615
vt 0.58397007 0.49664453
vt 0.62064683 0.49664453
vt 0.62064683 0.4791794
vt 0.65732354 0.49664453
vt 0.65732354 0.4791794
vn -0.036943913 0.38284165 0.923075
vn -0.17937243 0.22006625 0.9588516
vn -0.036943913 0.24041319 0.96996737
vn 0.003749907 0.26076013 0.96539634
vn -0.016597033 0.09798473 0.99504954
vn 0.003749907 0.26076013 0.96539634
vn 0.024096847 0.4438824 0.89576095
vn 0.003749907 0.09798473 0.99518085
vn 0.003749907 -0.044443786 0.99900484
vn -0.057290852 0.036943913 0.99767375
vn -0.036943913 -0.044443786 0.99832857
vn 0.024096847 -0.14617836 0.98896474
vn 0.003749907 0.17937243 0.98377407
vn 0.105484545 0.40318853 0.909017
vn 0.044443786 0.301454 0.9524444
vn -0.09798473 -0.044443786 0.99419504
vn -0.09798473 0.016597033 0.99504954
vn -0.057290852 0.016597033 0.99821955
vn -0.11833161 -0.044443786 0.991979
vn -0.016597033 -0.14617836 0.98911905
vn -0.09798473 -0.064790666 0.9930766
vn -0.016597033 -0.085137606 0.99623096
vn -0.09798473 0.036943913 0.99450195
vn -0.11833161 -0.044443786 0.991979
vn -0.07763779 -0.044443786 0.9959905
vn -0.057290852 -0.064790666 0.99625295
vn -0.07763779 -0.105484545 0.9913856
vn -0.09798473 -0.024096847 0.9948961
vn -0.057290852 -0.044443786 0.9973678
vn 0.003749907 -0.105484545 0.99441385
vn 0.044443786 -0.1665253 0.98503506
vn -0.057290852 -0.024096847 0.99806666
vn -0.036943913 -0.024096847 0.9990268
vn 0.085137606 -0.14617836 0.9855879
vn 0.064790666 -0.14617836 0.9871343
vn -0.057290852 -0.044443786 0.9973678
vn -0.07763779 -0.064790666 0.9948741
vn -0.09798473 -0.044443786 0.99419504
vn -0.057290852 -0.085137606 0.99472076
vn 0.044443786 -0.105484545 0.9934273
vn -0.036943913 -0.085137606 0.9956841
vn 0.024096847 -0.14617836 0.98896474
vn 0.085137606 -0.12583148 0.98839164
vn 0.064790666 -0.064790666 0.99579334
vn 0.064790666 -0.14617836 0.9871343
vn 0.085137606 -0.12583148 0.98839164
vn 0.024096847 0.016597033 0.99957186
vn 0.064790666 -0.1665253 0.9839062
vn 0.003749907 -0.044443786 0.99900484
vn -0.17937243 0.22006625 0.9588516
vn 0.085137606 -0.14617836 0.9855879
vn 0.085137606 -0.1665253 0.98235476
vn 0.105484545 -0.1665253 0.9803786
vn 0.105484545 -0.22756606 0.96803236
vn 0.105484545 -0.22756606 0.96803236
vn 0.085137606 -0.20721918 0.9745829
vn 0.064790666 -0.20721918 0.9761467
vn -0.036943913 -0.105484545 0.9937345
vn 0.044443786 -0.18687224 0.9813784
vn -0.15902549 0.016597033 0.987135
vn -0.057290852 -0.105484545 0.99276924
vn -0.036943913 -0.024096847 0.9990268
vn -0.13867855 0.11833161 0.9832425
vn -0.016597033 -0.044443786 0.998874
vn 0.18687224 -0.22756606 0.9556634
vn -0.057290852 0.016597033 0.99821955
vn -0.016597033 -0.024096847 0.99957186
vn 0.1665253 -0.28860685 0.9428549
vn 0.36999455 -0.4717292 0.8003597
vn 0.4106884 -0.36999455 0.83333015
vn 0.28860685 -0.51242304 0.8087822
vn 0.14617836 -0.4106884 0.8999816
vn 0.3089538 -0.5734638 0.7587403
vn 0.1665253 -0.247913 0.95436287
vn 0.12583148 -0.36999455 0.920473
vn 0.3089538 -0.4717292 0.82584447
vn 0.20721918 -0.34964764 0.9136776
vn 0.085137606 -0.14617836 0.9855879
vn 0.085137606 -0.105484545 0.9907697
vn 0.064790666 -0.1665253 0.9839062
vn 0.044443786 -0.14617836 0.98825943
vn 0.003749907 -0.024096847 0.9997026
vn 0.003749907 -0.105484545 0.99441385
vn -0.036943913 -0.003749907 0.9993103
vn -0.057290852 -0.024096847 0.99806666
vn -0.016597033 -0.14617836 0.98911905
vn -0.13867855 -0.1665253 0.9762364
vn -0.07763779 -0.36999455 0.92578423
vn 0.28860685 -0.3903415 0.8742652
vn -0.15902549 -0.26825994 0.9501303
vn -0.301454 -0.4106884 0.86050016
vn -0.13867855 -0.4106884 0.90116775
vn -0.4438824 -0.34964764 0.82505447
vn -0.13867855 -0.3089538 0.94091225
vn 0.085137606 -0.36999455 0.92512465
vn -0.26076013 -0.59381074 0.7611787
vn -0.057290852 -0.63450456 0.7707929
vn -0.4642294 -0.43103534 0.7737568
vn -0.48457628 -0.22756606 0.8446298
vn -0.09798473 -0.7362392 0.66959006
vn 0.044443786 -0.75658613 0.65238196
vn -0.36249477 -0.28860685 0.88617355
vn 0.085137606 -0.18687224 0.97868806
vn -0.057290852 -0.105484545 0.99276924
vn -0.016597033 -0.3293007 0.9440792
vn -0.057290852 -0.14617836 0.98759794
vn -0.15902549 -0.26825994 0.9501303
vn -0.52527016 -0.12583148 0.8415805
vn -0.42353553 -0.064790666 0.90355957
vn -0.13867855 -0.024096847 0.99004424
vn -0.34214777 -0.12583148 0.9311828
vn -0.036943913 -0.085137606 0.9956841
vn -0.13867855 0.15902549 0.97748613
vn -0.3218009 0.13867855 0.9365962
vn -0.26076013 0.26076013 0.9295205
vn -0.19971931 0.22006625 0.954821
vn -0.22006625 0.24041319 0.94539535
vn -0.17937243 0.09798473 0.97888947
vn -0.07763779 -0.024096847 0.9966904
vn 0.044443786 -0.34964764 0.93582654
vn -0.036943913 -0.247913 0.96807766
vn 0.12583148 -0.63450456 0.76260763
vn -0.22006625 -0.53277 0.81714565
vn 0.064790666 -0.6141577 0.7865192
vn 0.064790666 -0.75658613 0.65067625
vn 0.064790666 -0.7362392 0.67361265
vn 0.044443786 -0.75658613 0.65238196
vn 0.003749907 -0.7158923 0.69820064
g tb_05_mesh_0
f 3/3/3 2/2/2 1/1/1
f 1/1/1 4/4/4 3/3/3
f 5/5/5 3/3/3 4/4/4
f 6/6/6 4/4/4 1/1/1
f 1/1/1 7/7/7 6/6/6
f 4/4/4 8/8/8 5/5/5
f 9/9/9 5/5/5 8/8/8
f 10/10/10 8/8/8 4/4/4
f 4/4/4 6/6/6 10/10/10
f 8/8/8 11/11/11 9/9/9
f 11/11/11 8/8/8 10/10/10
f 12/12/12 9/9/9 11/11/11
f 13/13/13 6/6/6 7/7/7
f 7/7/7 14/14/14 13/13/13
f 13/13/13 14/14/14 15/15/15
f 16/16/16 10/10/10 6/6/6
f 6/6/6 13/13/13 16/16/16
f 15/15/15 17/17/17 13/13/13
f 16/16/16 13/13/13 17/17/17
f 17/17/17 15/15/15 18/18/18
f 10/10/10 19/19/19 11/11/11
f 19/19/19 10/10/10 16/16/16
f 11/11/11 20/20/20 12/12/12
f 20/20/20 11/11/11 19/19/19
f 18/18/18 21/21/21 17/17/17
f 16/16/16 17/17/17 21/21/21
f 12/12/12 20/20/20 22/22/22
f 22/22/22 23/23/23 12/12/12
f 16/16/16 24/24/24 19/19/19
f 21/21/21 24/24/24 16/16/16
f 25/25/25 21/21/21 18/18/18
f 18/18/18 26/26/26 25/25/25
f 19/19/19 27/27/27 20/20/20
f 22/22/22 20/20/20 27/27/27
f 19/19/19 24/24/24 28/28/28
f 28/28/28 27/27/27 19/19/19
f 29/29/29 24/24/24 21/21/21
f 21/21/21 25/25/25 29/29/29
f 30/30/30 25/25/25 26/26/26
f 26/26/26 31/31/31 30/30/30
f 32/32/32 28/28/28 24/24/24
f 24/24/24 29/29/29 32/32/32
f 33/33/33 29/29/29 25/25/25
f 25/25/25 30/30/30 33/33/33
f 34/34/34 30/30/30 31/31/31
f 31/31/31 35/35/35 34/34/34
f 36/36/36 32/32/32 29/29/29
f 29/29/29 33/33/33 36/36/36
f 32/32/32 36/36/36 37/37/37
f 28/28/28 32/32/32 38/38/38
f 37/37/37 38/38/38 32/32/32
f 27/27/27 28/28/28 39/39/39
f 38/38/38 39/39/39 28/28/28
f 40/40/40 33/33/33 30/30/30
f 30/30/30 34/34/34 40/40/40
f 41/41/41 36/36/36 33/33/33
f 36/36/36 41/41/41 37/37/37
f 33/33/33 40/40/40 41/41/41
f 42/42/42 41/41/41 40/40/40
f 43/43/43 34/34/34 35/35/35
f 35/35/35 44/44/44 43/43/43
f 45/45/45 40/40/40 34/34/34
f 40/40/40 45/45/45 42/42/42
f 34/34/34 43/43/43 45/45/45
f 46/46/46 43/43/43 44/44/44
f 44/44/44 47/47/47 46/46/46
f 48/48/48 45/45/45 43/43/43
f 43/43/43 46/46/46 48/48/48
f 49/49/49 46/46/46 47/47/47
f 47/47/47 50/50/50 49/49/49
f 46/46/46 49/49/49 51/51/51
f 51/51/51 48/48/48 46/46/46
f 45/45/45 48/48/48 52/52/52
f 52/52/52 48/48/48 51/51/51
f 52/52/52 42/42/42 45/45/45
f 51/51/51 53/53/53 52/52/52
f 54/54/54 52/52/52 53/53/53
f 42/42/42 52/52/52 54/54/54
f 53/53/53 55/55/55 54/54/54
f 54/54/54 55/55/55 56/56/56
f 56/56/56 57/57/57 54/54/54
f 54/54/54 57/57/57 42/42/42
f 42/42/42 57/57/57 58/58/58
f 57/57/57 56/56/56 59/59/59
f 59/59/59 58/58/58 57/57/57
f 58/58/58 59/59/59 60/60/60
f 58/58/58 61/61/61 42/42/42
f 41/41/41 42/42/42 61/61/61
f 61/61/61 37/37/37 41/41/41
f 60/60/60 62/62/62 58/58/58
f 62/62/62 60/60/60 63/63/63
f 63/63/63 64/64/64 62/62/62
f 62/62/62 64/64/64 65/65/65
f 66/66/66 61/61/61 58/58/58
f 66/66/66 37/37/37 61/61/61
f 67/67/67 58/58/58 62/62/62
f 58/58/58 67/67/67 66/66/66
f 65/65/65 68/68/68 62/62/62
f 62/62/62 68/68/68 67/67/67
f 69/69/69 68/68/68 65/65/65
f 65/65/65 70/70/70 69/69/69
f 71/71/71 69/69/69 70/70/70
f 69/69/69 71/71/71 72/72/72
f 70/70/70 73/73/73 71/71/71
f 74/74/74 71/71/71 73/73/73
f 72/72/72 71/71/71 74/74/74
f 73/73/73 75/75/75 74/74/74
f 68/68/68 69/69/69 76/76/76
f 72/72/72 76/76/76 69/69/69
f 68/68/68 77/77/77 67/67/67
f 76/76/76 77/77/77 68/68/68
f 78/78/78 66/66/66 67/67/67
f 67/67/67 77/77/77 78/78/78
f 79/79/79 74/74/74 75/75/75
f 75/75/75 80/80/80 79/79/79
f 81/81/81 74/74/74 79/79/79
f 74/74/74 81/81/81 72/72/72
f 79/79/79 82/82/82 81/81/81
f 83/83/83 81/81/81 82/82/82
f 72/72/72 81/81/81 83/83/83
f 82/82/82 84/84/84 83/83/83
f 83/83/83 84/84/84 85/85/85
f 85/85/85 86/86/86 83/83/83
f 83/83/83 86/86/86 72/72/72
f 86/86/86 85/85/85 87/87/87
f 88/88/88 72/72/72 86/86/86
f 76/76/76 72/72/72 88/88/88
f 89/89/89 77/77/77 76/76/76
f 76/76/76 88/88/88 89/89/89
f 77/77/77 89/89/89 78/78/78
f 87/87/87 90/90/90 86/86/86
f 86/86/86 90/90/90 88/88/88
f 91/91/91 90/90/90 87/87/87
f 87/87/87 92/92/92 91/91/91
f 93/93/93 88/88/88 90/90/90
f 90/90/90 91/91/91 93/93/93
f 89/89/89 88/88/88 94/94/94
f 94/94/94 88/88/88 93/93/93
f 78/78/78 89/89/89 95/95/95
f 94/94/94 95/95/95 89/89/89
f 96/96/96 91/91/91 92/92/92
f 92/92/92 97/97/97 96/96/96
f 98/98/98 93/93/93 91/91/91
f 91/91/91 96/96/96 98/98/98
f 93/93/93 99/99/99 94/94/94
f 99/99/99 93/93/93 98/98/98
f 100/100/100 96/96/96 97/97/97
f 97/97/97 101/101/101 100/100/100
f 94/94/94 99/99/99 102/102/102
f 102/102/102 95/95/95 94/94/94
f 95/95/95 103/103/103 78/78/78
f 66/66/66 78/78/78 103/103/103
f 103/103/103 37/37/37 66/66/66
f 104/104/104 37/37/37 103/103/103
f 38/38/38 37/37/37 104/104/104
f 105/105/105 103/103/103 95/95/95
f 103/103/103 105/105/105 104/104/104
f 104/104/104 106/106/106 38/38/38
f 104/104/104 105/105/105 106/106/106
f 38/38/38 106/106/106 39/39/39
f 107/107/107 105/105/105 95/95/95
f 105/105/105 107/107/107 106/106/106
f 95/95/95 102/102/102 107/107/107
f 39/39/39 106/106/106 107/107/107
f 102/102/102 99/99/99 108/108/108
f 98/98/98 108/108/108 99/99/99
f 107/107/107 102/102/102 109/109/109
f 108/108/108 109/109/109 102/102/102
f 107/107/107 110/110/110 39/39/39
f 109/109/109 110/110/110 107/107/107
f 111/111/111 108/108/108 98/98/98
f 109/109/109 108/108/108 111/111/111
f 39/39/39 110/110/110 112/112/112
f 112/112/112 27/27/27 39/39/39
f 27/27/27 112/112/112 22/22/22
f 113/113/113 22/22/22 112/112/112
f 112/112/112 110/110/110 113/113/113
f 23/23/23 22/22/22 113/113/113
f 110/110/110 109/109/109 114/114/114
f 114/114/114 113/113/113 110/110/110
f 111/111/111 114/114/114 109/109/109
f 113/113/113 115/115/115 23/23/23
f 115/115/115 113/113/113 114/114/114
f 116/116/116 23/23/23 115/115/115
f 115/115/115 117/117/117 116/116/116
f 114/114/114 118/118/118 115/115/115
f 117/117/117 115/115/115 118/118/118
f 118/118/118 114/114/114 111/111/111
f 118/118/118 119/119/119 117/117/117
f 120/120/120 119/119/119 118/118/118
f 118/118/118 121/121/121 120/120/120
f 111/111/111 121/121/121 118/118/118
f 122/122/122 120/120/120 121/121/121
f 121/121/121 111/111/111 123/123/123
f 98/98/98 123/123/123 111/111/111
f 123/123/123 98/98/98 96/96/96
f 96/96/96 100/100/100 123/123/123
f 123/123/123 124/124/124 121/121/121
f 121/121/121 124/124/124 122/122/122
f 124/124/124 123/123/123 100/100/100
f 122/122/122 124/124/124 125/125/125
f 100/100/100 125/125/125 124/124/124
f 125/125/125 100/100/100 101/101/101
f 125/125/125 126/126/126 122/122/122
f 101/101/101 127/127/127 125/125/125
f 126/126/126 125/125/125 127/127/127
f 127/127/127 128/128/128 126/126/126
