g tb_04_mesh
v 0.15746364 0.23343626 -0.11130355
v 0.19953358 0.23343626 -0.09903316
v 0.19953358 0.19136631 -0.13759726
v 0.15746364 0.19136631 -0.1656439
v 0.19953358 0.14988068 -0.1288327
v 0.11480938 0.23285195 -0.10312329
v 0.15746364 0.14988068 -0.15512642
v 0.19953358 0.107810736 -0.1527892
v 0.11480938 0.19136631 -0.17557707
v 0.07273944 0.23285195 -0.122989655
v 0.15746364 0.107810736 -0.15921655
v 0.19953358 0.0663251 -0.19369052
v 0.11480938 0.14929637 -0.16739681
v 0.07273944 0.19136631 -0.18667887
v 0.15746364 0.0663251 -0.19369052
v 0.19953358 0.024255157 -0.19719636
v 0.030669495 0.19136631 -0.19836497
v 0.030085191 0.23285195 -0.14753045
v -0.011984736 0.23285195 -0.16914973
v 0.07273944 0.14929637 -0.18142012
v 0.11480938 0.10664213 -0.17148694
v -0.011984736 0.19078201 -0.2024551
v -0.05463898 0.23226765 -0.18083581
v 0.030085191 0.14929637 -0.19427483
v 0.07157083 0.10605782 -0.1796672
v 0.11364077 0.060482055 -0.20596093
v 0.15687934 0.01256904 -0.19193761
v -0.054054677 0.19078201 -0.20654523
v -0.09670892 0.23226765 -0.16272238
v -0.011984736 0.14929637 -0.20479232
v 0.18375735 -0.0312538 -0.18843178
v 0.11714661 -0.030085191 -0.19836497
v 0.21998423 -0.009634525 -0.1913533
v 0.11539368 0.011984736 -0.20011789
v 0.068065 0.058144808 -0.20712954
v 0.028916582 0.10605782 -0.19427483
v -0.01256904 0.10664213 -0.21063536
v -0.054054677 0.14929637 -0.20888245
v 0.19836497 -0.055210307 -0.18492596
v 0.24043491 -0.0429399 -0.17732999
v 0.24043491 -0.06864931 -0.16739681
v 0.06514348 0.00847891 -0.20479232
v 0.020736322 0.058144808 -0.21180397
v 0.15571073 -0.06864931 -0.19894928
v 0.19836497 -0.06864931 -0.18142012
v 0.24043491 -0.09377441 -0.16038516
v 0.19836497 -0.09377441 -0.16739681
v 0.15571073 -0.09377441 -0.18551026
v 0.11364077 -0.09377441 -0.1913533
v 0.11364077 -0.06864931 -0.20888245
v 0.070986524 -0.09377441 -0.18901609
v 0.070986524 -0.06864931 -0.21121967
v 0.028916582 -0.09377441 -0.18551026
v 0.06631209 -0.033591017 -0.21238828
v 0.024826452 -0.07624528 -0.21005106
v 0.0020385683 -0.0026228726 -0.21297258
v -0.007310301 -0.092021495 -0.18901609
v 0.00028565526 -0.10779773 -0.16856542
v 0.0178148 -0.044692814 -0.22582729
v -0.032435417 -0.1037076 -0.17148694
v -0.027760983 -0.121821046 -0.1650596
v -0.06807801 -0.121821046 -0.16681251
v -0.028345287 -0.06455918 -0.21823132
v -0.06807801 -0.1037076 -0.17265555
v -0.107810736 -0.121821046 -0.16681251
v -0.035941243 -0.035343945 -0.22816451
v -0.06807801 0.011400431 -0.24335644
v -0.011400431 0.065740794 -0.2153098
v -0.069830924 -0.068065 -0.2158941
v -0.107810736 -0.1037076 -0.17674568
v -0.054054677 0.065740794 -0.23459186
v -0.05463898 0.10722643 -0.22407438
v -0.06749371 -0.033006713 -0.23926629
v -0.107810736 -0.03242241 -0.23050173
v -0.10079908 0.06106636 -0.2503681
v -0.14754346 -0.1037076 -0.17265555
v -0.14754346 -0.121821046 -0.1656439
v -0.18786049 -0.121821046 -0.16272238
v -0.107810736 -0.06864931 -0.20654523
v -0.14695916 -0.06864931 -0.20479232
v -0.18786049 -0.1037076 -0.1650596
v -0.22759321 -0.121821046 -0.15629503
v -0.10605782 0.01256904 -0.24277213
v -0.14403763 -0.03592825 -0.21823132
v -0.18493897 -0.068065 -0.19193761
v -0.22408739 -0.06631209 -0.16914973
v -0.22759321 -0.1037076 -0.15220489
v -0.2673259 -0.121821046 -0.15045197
v -0.1790959 -0.03475964 -0.2018708
v -0.15397081 0.007310301 -0.23050173
v -0.2673259 -0.1037076 -0.14344032
v -0.30764297 -0.121821046 -0.15045197
v -0.30764297 -0.1037076 -0.15162058
v -0.34737566 -0.121821046 -0.1650596
v -0.32108197 -0.08617845 -0.17031834
v -0.27725908 -0.06339057 -0.16447529
v -0.29420397 -0.050535858 -0.16739681
v -0.2679102 -0.0148932785 -0.18258873
v -0.24629095 -0.022489235 -0.1896004
v -0.225256 0.02600807 -0.20712954
v -0.2673259 0.02600807 -0.19310622
v -0.2673259 0.0669094 -0.20771384
v -0.21123266 -0.027747974 -0.19544344
v -0.19428784 0.017243475 -0.21881562
v -0.18552327 0.06340358 -0.23167033
v -0.22467169 0.0669094 -0.21706271
v -0.14403763 0.06106636 -0.24744657
v -0.22467169 0.107810736 -0.22524299
v -0.2667416 0.10839504 -0.21180397
v -0.2667416 0.14929637 -0.1650596
v -0.18260175 0.10722643 -0.24919948
v -0.14053178 0.10664213 -0.24569365
v -0.18143311 0.14871207 -0.18726318
v -0.22408739 0.14929637 -0.16272238
v -0.22408739 0.1901977 -0.10253899
v -0.2661573 0.19078201 -0.09903316
v -0.2661573 0.23168334 -0.024242148
v -0.22350308 0.23168334 -0.060469046
v -0.18143311 0.1901977 -0.13993448
v -0.18143311 0.23226765 -0.09728025
v -0.09729323 0.10664213 -0.24043491
v -0.13936317 0.14871207 -0.20479232
v -0.13877887 0.19078201 -0.16973403
v -0.13877887 0.23226765 -0.13292283
v -0.09670892 0.14871207 -0.21121967
v -0.09670892 0.19078201 -0.19953358
vt 0.0024974942 0.50259554
vt 0.0024974942 0.48663497
vt 0.03175855 0.48663497
vt 0.03175855 0.50259554
vt 0.061019607 0.48663497
vt 0.0024974942 0.515896
vt 0.061019607 0.50259554
vt 0.09028067 0.48663497
vt 0.03175855 0.515896
vt 0.0024974942 0.5318566
vt 0.09028067 0.50259554
vt 0.11954172 0.48663497
vt 0.061019607 0.515896
vt 0.03175855 0.5318566
vt 0.11954172 0.50259554
vt 0.14880277 0.48663497
vt 0.03175855 0.5478172
vt 0.0024974942 0.5478172
vt 0.0024974942 0.56111765
vt 0.061019607 0.5318566
vt 0.09294076 0.515896
vt 0.03175855 0.56111765
vt 0.0024974942 0.5770782
vt 0.061019607 0.5478172
vt 0.09294076 0.5318566
vt 0.12486191 0.515896
vt 0.15944317 0.50259554
vt 0.03175855 0.5770782
vt 0.0024974942 0.5903787
vt 0.061019607 0.56111765
vt 0.18870422 0.49195516
vt 0.18870422 0.515896
vt 0.17274365 0.47865468
vt 0.15944317 0.515896
vt 0.12486191 0.5318566
vt 0.09294076 0.5478172
vt 0.09294076 0.56111765
vt 0.061019607 0.5770782
vt 0.20732489 0.48663497
vt 0.19668451 0.4706744
vt 0.21530518 0.4706744
vt 0.16210327 0.5345167
vt 0.12486191 0.55047727
vt 0.21530518 0.50259554
vt 0.21530518 0.48663497
vt 0.23392585 0.4706744
vt 0.23392585 0.48663497
vt 0.23392585 0.50259554
vt 0.23392585 0.515896
vt 0.21530518 0.515896
vt 0.23392585 0.5318566
vt 0.21530518 0.5318566
vt 0.23392585 0.5478172
vt 0.19136432 0.5345167
vt 0.22062537 0.5478172
vt 0.17008355 0.55579746
vt 0.23126575 0.56111765
vt 0.24456623 0.55845755
vt 0.1993446 0.55047727
vt 0.24190614 0.56909794
vt 0.25254652 0.56643784
vt 0.25254652 0.5823984
vt 0.21264508 0.56643784
vt 0.24190614 0.5823984
vt 0.25254652 0.5956989
vt 0.19136432 0.56909794
vt 0.15944317 0.5823984
vt 0.11954172 0.56111765
vt 0.21530518 0.5823984
vt 0.24190614 0.5956989
vt 0.122201815 0.5770782
vt 0.09294076 0.5770782
vt 0.19136432 0.5823984
vt 0.18870422 0.5956989
vt 0.12486191 0.5930388
vt 0.24190614 0.60899943
vt 0.25254652 0.60899943
vt 0.25254652 0.62496
vt 0.21530518 0.5956989
vt 0.21530518 0.60899943
vt 0.24190614 0.62496
vt 0.25254652 0.6382605
vt 0.15944317 0.5956989
vt 0.19136432 0.60899943
vt 0.21530518 0.6222999
vt 0.21264508 0.6382605
vt 0.24190614 0.6382605
vt 0.25254652 0.65156096
vt 0.19136432 0.6222999
vt 0.16210327 0.6116595
vt 0.24190614 0.65156096
vt 0.25254652 0.66752154
vt 0.24190614 0.66752154
vt 0.25254652 0.680822
vt 0.22860566 0.67018163
vt 0.21264508 0.65688115
vt 0.2020047 0.66220134
vt 0.17806384 0.65156096
vt 0.18338403 0.6462408
vt 0.14880277 0.6382605
vt 0.14880277 0.65156096
vt 0.11954172 0.65156096
vt 0.18604413 0.6329403
vt 0.15412298 0.6276201
vt 0.122201815 0.6222999
vt 0.11954172 0.6382605
vt 0.12486191 0.60899943
vt 0.09028067 0.6382605
vt 0.09028067 0.65156096
vt 0.061019607 0.65156096
vt 0.09294076 0.6222999
vt 0.09294076 0.60633934
vt 0.061019607 0.6222999
vt 0.061019607 0.6382605
vt 0.03175855 0.6382605
vt 0.03175855 0.65156096
vt 0.0024974942 0.65156096
vt 0.0024974942 0.6356004
vt 0.03175855 0.6222999
vt 0.0024974942 0.6222999
vt 0.09294076 0.5930388
vt 0.061019607 0.60633934
vt 0.03175855 0.60633934
vt 0.0024974942 0.60633934
vt 0.061019607 0.5903787
vt 0.03175855 0.5903787
vn -0.10024297 -0.75902915 0.6432932
vn -0.20439714 -0.6548749 0.7275717
vn -0.49082118 -0.34241235 0.80115443
vn -0.3345899 -0.34241235 0.87795407
vn -0.54289836 -0.10806543 0.8328164
vn -0.074204445 -0.8371448 0.54192466
vn -0.36062843 0.02212733 0.9324471
vn -0.23043567 -0.49864364 0.8356159
vn -0.23043567 -0.39448944 0.8895378
vn -0.23043567 -0.8111062 0.5375929
vn -0.17835861 -0.39448944 0.9014246
vn -0.02212733 -0.39448944 0.91863406
vn -0.28251284 0.048165858 0.9580535
vn -0.25647432 -0.420528 0.8702742
vn -0.10024297 -0.34241235 0.9341869
vn 0.05598831 0.048165858 0.997269
vn -0.23043567 -0.34241235 0.910853
vn -0.3345899 -0.73299056 0.5922621
vn -0.20439714 -0.6548749 0.7275717
vn -0.28251284 0.048165858 0.9580535
vn -0.23043567 -0.34241235 0.910853
vn -0.1262815 -0.31637383 0.94019175
vn 0.10806543 -0.5507207 0.8276645
vn -0.25647432 0.02212733 0.96629775
vn -0.23043567 -0.23825812 0.94346833
vn -0.1262815 -0.23825812 0.9629569
vn -0.074204445 0.048165858 0.9960792
vn 0.05598831 -0.31637383 0.94698095
vn 0.39448944 -0.5767593 0.71535087
vn -0.17835861 -0.08202684 0.9805406
vn -0.10024297 0.02212733 0.99471694
vn -0.17835861 -0.10806543 0.97801334
vn -0.074204445 0.17835861 0.98116356
vn -0.1262815 0.074204445 0.9892152
vn -0.10024297 -0.18618107 0.9773884
vn -0.28251284 -0.16014248 0.94580173
vn -0.30855137 -0.13410395 0.9417071
vn -0.074204445 -0.2122196 0.97440064
vn -0.25647432 0.17835861 0.9499522
vn -0.25647432 0.30855137 0.91597867
vn -0.28251284 0.28251284 0.9167186
vn -0.1262815 -0.029949784 0.9915422
vn -0.1262815 -0.13410395 0.98288816
vn -0.23043567 0.17835861 0.95660216
vn -0.30855137 0.3345899 0.8904188
vn -0.25647432 0.3345899 0.9067913
vn -0.23043567 0.46478266 0.8549132
vn -0.23043567 0.46478266 0.8549132
vn -0.074204445 0.54289836 0.83651364
vn -0.1262815 0.17835861 0.97582847
vn 0.029949784 0.64705247 0.76185703
vn -0.074204445 0.3345899 0.93943775
vn -0.02212733 0.7772452 0.6288086
vn -0.20439714 -0.08202684 0.9754452
vn -0.10024297 0.62101394 0.7773629
vn -0.23043567 -0.13410395 0.96380264
vn 0.029949784 0.7772452 0.6284846
vn 0.003911197 0.72516817 0.68856066
vn -0.15232009 0.074204445 0.98554164
vn -0.02212733 0.5949754 0.80343926
vn -0.048165858 0.3345899 0.9411321
vn -0.02212733 0.30855137 0.9509503
vn 0.029949784 0.54289836 0.8392642
vn -0.048165858 0.5689369 0.82096946
vn 0.003911197 0.43874413 0.8986035
vn -0.17835861 0.17835861 0.9676655
vn -0.20439714 0.074204445 0.9760715
vn -0.30855137 -0.10806543 0.94504917
vn 0.029949784 0.62101394 0.7832271
vn 0.029949784 0.5949754 0.8031857
vn -0.3345899 -0.13410395 0.9327732
vn -0.28251284 -0.31637383 0.9055905
vn -0.048165858 0.30855137 0.9499874
vn 0.2122196 0.38666707 0.89746946
vn -0.1262815 -0.029949784 0.9915422
vn 0.10806543 0.5168597 0.84922194
vn 0.05598831 0.36062843 0.93102765
vn 0.16014248 0.17835861 0.97084635
vn 0.13410395 0.5689369 0.81137353
vn 0.18618107 0.49082118 0.8511352
vn 0.23825812 0.30855137 0.92088497
vn 0.2122196 -0.16014248 0.964011
vn 0.10806543 0.23043567 0.9670684
vn 0.29033524 0.36062843 0.8863705
vn 0.3684509 0.38666707 0.8454186
vn 0.2642967 0.43874413 0.858866
vn 0.23825812 0.074204445 0.9683629
vn 0.08202684 -0.31637383 0.9450816
vn 0.34241235 0.3345899 0.87795407
vn 0.29033524 0.28251284 0.9142713
vn 0.029949784 0.074204445 0.9967932
vn -0.25647432 -0.003911197 0.96654314
vn -0.30855137 0.28251284 0.9082855
vn -0.43874413 0.30855137 0.84397846
vn -0.38666707 0.43874413 0.8111671
vn 0.003911197 0.36062843 0.93270135
vn -0.02212733 0.17835861 0.9837167
vn 0.31637383 0.25647432 0.91330636
vn 0.2642967 0.30855137 0.9137523
vn 0.31637383 0.23043567 0.92022115
vn 0.29033524 0.28251284 0.9142713
vn 0.2642967 0.20439714 0.9425333
vn 0.2642967 0.4127056 0.8716773
vn 0.34241235 0.25647432 0.9038665
vn 0.3684509 0.25647432 0.8935686
vn 0.29033524 0.23043567 0.92876524
vn 0.18618107 0.15232009 0.9706365
vn 0.34241235 -0.39448944 0.85272026
vn 0.29033524 -0.39448944 0.8718277
vn 0.029949784 -0.8111062 0.5841316
vn 0.2122196 -0.34241235 0.9152686
vn -0.02212733 -0.44656655 0.8944768
vn 0.2642967 -0.75902915 0.59499747
vn 0.13410395 -0.8111062 0.5693179
vn 0.31637383 -0.75902915 0.5690187
vn 0.029949784 -0.8631833 0.50400156
vn 0.31637383 -0.75902915 0.5690187
vn 0.52468216 -0.60279787 0.60111845
vn 0.47260508 -0.6548749 0.5897316
vn 0.49864364 -0.60279787 0.62288785
vn -0.20439714 -0.39448944 0.8958794
vn 0.18618107 -0.6548749 0.7324448
vn 0.44656655 -0.5507207 0.7051844
vn 0.49864364 -0.5767593 0.64707285
vn 0.05598831 -0.44656655 0.89299697
vn 0.31637383 -0.420528 0.8503316
g tb_04_mesh_0
f 3/3/3 2/2/2 1/1/1
f 1/1/1 4/4/4 3/3/3
f 5/5/5 3/3/3 4/4/4
f 4/4/4 1/1/1 6/6/6
f 4/4/4 7/7/7 5/5/5
f 8/8/8 5/5/5 7/7/7
f 6/6/6 9/9/9 4/4/4
f 7/7/7 4/4/4 9/9/9
f 9/9/9 6/6/6 10/10/10
f 7/7/7 11/11/11 8/8/8
f 12/12/12 8/8/8 11/11/11
f 9/9/9 13/13/13 7/7/7
f 11/11/11 7/7/7 13/13/13
f 10/10/10 14/14/14 9/9/9
f 13/13/13 9/9/9 14/14/14
f 11/11/11 15/15/15 12/12/12
f 16/16/16 12/12/12 15/15/15
f 17/17/17 14/14/14 10/10/10
f 10/10/10 18/18/18 17/17/17
f 17/17/17 18/18/18 19/19/19
f 14/14/14 20/20/20 13/13/13
f 20/20/20 14/14/14 17/17/17
f 13/13/13 21/21/21 11/11/11
f 15/15/15 11/11/11 21/21/21
f 21/21/21 13/13/13 20/20/20
f 19/19/19 22/22/22 17/17/17
f 22/22/22 19/19/19 23/23/23
f 17/17/17 24/24/24 20/20/20
f 24/24/24 17/17/17 22/22/22
f 20/20/20 25/25/25 21/21/21
f 25/25/25 20/20/20 24/24/24
f 21/21/21 26/26/26 15/15/15
f 26/26/26 21/21/21 25/25/25
f 15/15/15 27/27/27 16/16/16
f 27/27/27 15/15/15 26/26/26
f 23/23/23 28/28/28 22/22/22
f 28/28/28 23/23/23 29/29/29
f 22/22/22 30/30/30 24/24/24
f 30/30/30 22/22/22 28/28/28
f 16/16/16 27/27/27 31/31/31
f 32/32/32 31/31/31 27/27/27
f 31/31/31 33/33/33 16/16/16
f 26/26/26 34/34/34 27/27/27
f 27/27/27 34/34/34 32/32/32
f 25/25/25 35/35/35 26/26/26
f 34/34/34 26/26/26 35/35/35
f 24/24/24 36/36/36 25/25/25
f 35/35/35 25/25/25 36/36/36
f 24/24/24 30/30/30 37/37/37
f 37/37/37 36/36/36 24/24/24
f 28/28/28 38/38/38 30/30/30
f 37/37/37 30/30/30 38/38/38
f 33/33/33 31/31/31 39/39/39
f 39/39/39 40/40/40 33/33/33
f 41/41/41 40/40/40 39/39/39
f 35/35/35 42/42/42 34/34/34
f 32/32/32 34/34/34 42/42/42
f 36/36/36 43/43/43 35/35/35
f 42/42/42 35/35/35 43/43/43
f 39/39/39 31/31/31 44/44/44
f 44/44/44 31/31/31 32/32/32
f 39/39/39 45/45/45 41/41/41
f 44/44/44 45/45/45 39/39/39
f 46/46/46 41/41/41 45/45/45
f 45/45/45 47/47/47 46/46/46
f 48/48/48 47/47/47 45/45/45
f 45/45/45 44/44/44 48/48/48
f 49/49/49 48/48/48 44/44/44
f 44/44/44 50/50/50 49/49/49
f 32/32/32 50/50/50 44/44/44
f 51/51/51 49/49/49 50/50/50
f 50/50/50 52/52/52 51/51/51
f 52/52/52 50/50/50 32/32/32
f 53/53/53 51/51/51 52/52/52
f 42/42/42 54/54/54 32/32/32
f 32/32/32 54/54/54 52/52/52
f 52/52/52 55/55/55 53/53/53
f 55/55/55 52/52/52 54/54/54
f 54/54/54 42/42/42 56/56/56
f 43/43/43 56/56/56 42/42/42
f 53/53/53 55/55/55 57/57/57
f 57/57/57 58/58/58 53/53/53
f 54/54/54 59/59/59 55/55/55
f 56/56/56 59/59/59 54/54/54
f 58/58/58 57/57/57 60/60/60
f 60/60/60 61/61/61 58/58/58
f 62/62/62 61/61/61 60/60/60
f 63/63/63 57/57/57 55/55/55
f 55/55/55 59/59/59 63/63/63
f 63/63/63 60/60/60 57/57/57
f 60/60/60 64/64/64 62/62/62
f 64/64/64 60/60/60 63/63/63
f 65/65/65 62/62/62 64/64/64
f 66/66/66 63/63/63 59/59/59
f 59/59/59 56/56/56 66/66/66
f 66/66/66 56/56/56 67/67/67
f 56/56/56 43/43/43 68/68/68
f 68/68/68 67/67/67 56/56/56
f 68/68/68 43/43/43 36/36/36
f 36/36/36 37/37/37 68/68/68
f 63/63/63 69/69/69 64/64/64
f 69/69/69 63/63/63 66/66/66
f 64/64/64 70/70/70 65/65/65
f 70/70/70 64/64/64 69/69/69
f 71/71/71 68/68/68 37/37/37
f 68/68/68 71/71/71 67/67/67
f 37/37/37 72/72/72 71/71/71
f 38/38/38 72/72/72 37/37/37
f 66/66/66 73/73/73 69/69/69
f 67/67/67 73/73/73 66/66/66
f 69/69/69 73/73/73 74/74/74
f 74/74/74 73/73/73 67/67/67
f 67/67/67 71/71/71 75/75/75
f 75/75/75 71/71/71 72/72/72
f 65/65/65 70/70/70 76/76/76
f 76/76/76 77/77/77 65/65/65
f 78/78/78 77/77/77 76/76/76
f 69/69/69 79/79/79 70/70/70
f 74/74/74 79/79/79 69/69/69
f 70/70/70 79/79/79 80/80/80
f 80/80/80 76/76/76 70/70/70
f 76/76/76 81/81/81 78/78/78
f 82/82/82 78/78/78 81/81/81
f 75/75/75 83/83/83 67/67/67
f 67/67/67 83/83/83 74/74/74
f 79/79/79 74/74/74 84/84/84
f 84/84/84 80/80/80 79/79/79
f 76/76/76 80/80/80 85/85/85
f 85/85/85 81/81/81 76/76/76
f 81/81/81 85/85/85 86/86/86
f 81/81/81 87/87/87 82/82/82
f 86/86/86 87/87/87 81/81/81
f 88/88/88 82/82/82 87/87/87
f 89/89/89 85/85/85 80/80/80
f 80/80/80 84/84/84 89/89/89
f 86/86/86 85/85/85 89/89/89
f 90/90/90 84/84/84 74/74/74
f 74/74/74 83/83/83 90/90/90
f 90/90/90 89/89/89 84/84/84
f 87/87/87 91/91/91 88/88/88
f 91/91/91 87/87/87 86/86/86
f 92/92/92 88/88/88 91/91/91
f 91/91/91 93/93/93 92/92/92
f 94/94/94 92/92/92 93/93/93
f 93/93/93 95/95/95 94/94/94
f 96/96/96 93/93/93 91/91/91
f 95/95/95 93/93/93 96/96/96
f 86/86/86 96/96/96 91/91/91
f 96/96/96 97/97/97 95/95/95
f 98/98/98 97/97/97 96/96/96
f 99/99/99 96/96/96 86/86/86
f 96/96/96 99/99/99 98/98/98
f 98/98/98 99/99/99 100/100/100
f 100/100/100 101/101/101 98/98/98
f 102/102/102 101/101/101 100/100/100
f 86/86/86 103/103/103 99/99/99
f 100/100/100 99/99/99 103/103/103
f 89/89/89 103/103/103 86/86/86
f 104/104/104 103/103/103 89/89/89
f 103/103/103 104/104/104 100/100/100
f 89/89/89 90/90/90 104/104/104
f 100/100/100 104/104/104 105/105/105
f 105/105/105 104/104/104 90/90/90
f 100/100/100 106/106/106 102/102/102
f 105/105/105 106/106/106 100/100/100
f 90/90/90 107/107/107 105/105/105
f 107/107/107 90/90/90 83/83/83
f 83/83/83 75/75/75 107/107/107
f 102/102/102 106/106/106 108/108/108
f 108/108/108 109/109/109 102/102/102
f 110/110/110 109/109/109 108/108/108
f 106/106/106 105/105/105 111/111/111
f 111/111/111 105/105/105 107/107/107
f 111/111/111 108/108/108 106/106/106
f 112/112/112 107/107/107 75/75/75
f 107/107/107 112/112/112 111/111/111
f 108/108/108 111/111/111 113/113/113
f 113/113/113 111/111/111 112/112/112
f 108/108/108 114/114/114 110/110/110
f 113/113/113 114/114/114 108/108/108
f 110/110/110 114/114/114 115/115/115
f 115/115/115 114/114/114 113/113/113
f 115/115/115 116/116/116 110/110/110
f 117/117/117 116/116/116 115/115/115
f 115/115/115 118/118/118 117/117/117
f 118/118/118 115/115/115 119/119/119
f 113/113/113 119/119/119 115/115/115
f 119/119/119 120/120/120 118/118/118
f 75/75/75 121/121/121 112/112/112
f 72/72/72 121/121/121 75/75/75
f 112/112/112 122/122/122 113/113/113
f 119/119/119 113/113/113 122/122/122
f 122/122/122 112/112/112 121/121/121
f 120/120/120 119/119/119 123/123/123
f 122/122/122 123/123/123 119/119/119
f 123/123/123 124/124/124 120/120/120
f 29/29/29 124/124/124 123/123/123
f 125/125/125 121/121/121 72/72/72
f 121/121/121 125/125/125 122/122/122
f 123/123/123 122/122/122 125/125/125
f 72/72/72 38/38/38 125/125/125
f 123/123/123 126/126/126 29/29/29
f 125/125/125 126/126/126 123/123/123
f 126/126/126 125/125/125 38/38/38
f 29/29/29 126/126/126 28/28/28
f 38/38/38 28/28/28 126/126/126
