g tb_06_mesh
v -0.18705851 0.07639834 -0.28595936
v -0.18760097 0.096469074 -0.28378955
v -0.14366236 0.096469074 -0.28650182
v -0.14366236 0.07639834 -0.28758672
v -0.099723786 0.07639834 -0.28650182
v -0.099723786 0.096469074 -0.28650182
v -0.05578518 0.096469074 -0.28487447
v -0.18271887 0.03408712 -0.28812918
v -0.20550185 0.05849746 -0.28704426
v -0.22448766 0.041139007 -0.28758672
v -0.22448766 -0.0049693882 -0.2854169
v -0.13172844 0.0058796406 -0.2854169
v -0.17675191 -0.051620245 -0.27456787
v -0.22448766 -0.051620245 -0.2767377
v -0.17675191 -0.09827109 -0.27728015
v -0.22448766 -0.09827109 -0.27944994
v -0.17675191 -0.14437948 -0.2854169
v -0.22448766 -0.14437948 -0.28704426
v -0.17675191 -0.19103032 -0.28378955
v -0.22448766 -0.19103032 -0.28487447
v -0.17675191 -0.23768117 -0.2686009
v -0.22448766 -0.23768117 -0.26914337
v -0.17675191 -0.28378955 -0.25124246
v -0.22448766 -0.28378955 -0.25124246
v -0.17675191 -0.3304404 -0.25341225
v -0.22448766 -0.3304404 -0.25341225
v -0.12901616 -0.3304404 -0.25124246
v -0.12901616 -0.28378955 -0.25232735
v -0.08128041 -0.3304404 -0.25015756
v -0.12901616 -0.23768117 -0.26914337
v -0.12901616 -0.19103032 -0.28270465
v -0.08128041 -0.28378955 -0.25232735
v -0.03354466 -0.28378955 -0.2528698
v -0.033002228 -0.3304404 -0.24853021
v 0.014733523 -0.3304404 -0.24907264
v -0.08128041 -0.23713872 -0.26914337
v -0.12901616 -0.14383702 -0.2832471
v -0.08128041 -0.19048788 -0.2810773
v -0.033002228 -0.23713872 -0.2696858
v 0.014733523 -0.28378955 -0.25449717
v -0.12901616 -0.096101284 -0.27511033
v -0.08128041 -0.14220966 -0.28053486
v 0.062469274 -0.28378955 -0.25558206
v 0.062469274 -0.3304404 -0.25015756
v 0.110205024 -0.3304404 -0.2496151
v 0.014733523 -0.23713872 -0.27022827
v -0.033002228 -0.18940297 -0.2799924
v -0.1273888 -0.048907995 -0.27294052
v 0.110205024 -0.28378955 -0.25558206
v 0.15794078 -0.3304404 -0.24853021
v -0.08073798 -0.09121922 -0.27294052
v 0.062469274 -0.23713872 -0.27077073
v 0.015275985 -0.18886052 -0.27890748
v -0.033002228 -0.13787006 -0.27782258
v -0.08182287 -0.036974043 -0.27402544
v 0.15794078 -0.28378955 -0.25449717
v 0.20567653 -0.3304404 -0.24310568
v 0.11074747 -0.23713872 -0.27077073
v 0.06355417 -0.18940297 -0.27782258
v 0.01690334 -0.1351578 -0.27565277
v -0.03408712 -0.08470979 -0.27077073
v -0.088332295 0.018898487 -0.28704426
v 0.20567653 -0.28378955 -0.25232735
v 0.25341225 -0.3304404 -0.24039343
v 0.15956813 -0.23713872 -0.26914337
v -0.018356025 -0.017445773 -0.2767377
v 0.017988235 -0.0532476 -0.2696858
v -0.049818218 0.07639834 -0.284332
v 0.25503963 -0.28378955 -0.24907264
v 0.301148 -0.3304404 -0.24147832
v 0.301148 -0.28378955 -0.24636039
v -0.03354466 0.035172015 -0.28812918
v -0.011846602 0.10026622 -0.28270465
v -0.02269563 0.11708224 -0.2832471
v 0.20893122 -0.23713872 -0.26697356
v 0.25503963 -0.23713872 -0.26480377
v 0.301148 -0.23713872 -0.2620915
v 0.301148 -0.19048788 -0.27185562
v 0.015818417 0.11816713 -0.28053486
v 0.009851456 0.13823783 -0.28053486
v 0.05270514 0.13823783 -0.27728015
v 0.03046462 0.068804026 -0.28650182
v 0.05270514 0.11816713 -0.27944994
v 0.09555882 0.13823783 -0.27619523
v 0.09555882 0.11816713 -0.28053486
v 0.1384125 0.13823783 -0.27782258
v 0.09393147 0.074228555 -0.28595936
v 0.1384125 0.11816713 -0.2810773
v 0.18072374 0.13823783 -0.2799924
v 0.046195716 0.019983381 -0.28595936
v 0.09989844 0.03354466 -0.28704426
v 0.06952116 -0.013648629 -0.27565277
v 0.18072374 0.11816713 -0.2821622
v 0.22357742 0.13823783 -0.2810773
v 0.14492193 0.07585591 -0.28650182
v 0.22357742 0.11816713 -0.28378955
v 0.2664311 0.13823783 -0.28270465
v 0.28378955 0.113285065 -0.28378955
v 0.19753975 0.07585591 -0.28704426
v 0.25503963 0.07368609 -0.28595936
v 0.301148 0.088332295 -0.28487447
v 0.301148 0.04168144 -0.2832471
v 0.25503963 0.04168144 -0.28595936
v 0.301148 -0.004426956 -0.27836505
v 0.15088889 0.03679937 -0.28758672
v 0.20513406 0.037341833 -0.28650182
v 0.110205024 -0.009851456 -0.27565277
v 0.15794078 -0.007139206 -0.27619523
v 0.20838878 -0.00551185 -0.27728015
v 0.25503963 -0.004426956 -0.27782258
v 0.08253999 -0.051077783 -0.2686009
v 0.11671445 -0.05270514 -0.26805845
v 0.25503963 -0.051077783 -0.26914337
v 0.301148 -0.051077783 -0.26914337
v 0.301148 -0.097728625 -0.26805845
v 0.21001613 -0.051620245 -0.26805845
v 0.16119547 -0.052162677 -0.26751602
v 0.08253999 -0.097728625 -0.26914337
v 0.25503963 -0.097728625 -0.26805845
v 0.301148 -0.14437948 -0.27131316
v 0.21055858 -0.097728625 -0.26751602
v 0.16173793 -0.097728625 -0.26805845
v 0.25503963 -0.14437948 -0.27131316
v 0.21055858 -0.14437948 -0.27185562
v 0.25503963 -0.19048788 -0.27239808
v 0.21001613 -0.19048788 -0.27348298
v 0.11671445 -0.097728625 -0.2686009
v 0.16119547 -0.14437948 -0.27239808
v 0.16065302 -0.19048788 -0.27511033
v 0.11400218 -0.14383702 -0.27348298
v 0.11183238 -0.19048788 -0.27619523
v 0.06680888 -0.13949741 -0.27456787
vt 0.7110781 0.64034444
vt 0.6965153 0.6424248
vt 0.6965153 0.62578166
vt 0.7110781 0.62578166
vt 0.7110781 0.6112188
vt 0.6965153 0.6112188
vt 0.6965153 0.5945756
vt 0.74020374 0.64034444
vt 0.7235605 0.648666
vt 0.7360429 0.6549072
vt 0.7693293 0.6549072
vt 0.7610078 0.62162083
vt 0.8005354 0.63826406
vt 0.8005354 0.6549072
vt 0.8338218 0.63826406
vt 0.8338218 0.6549072
vt 0.8671082 0.63826406
vt 0.8671082 0.6549072
vt 0.9003947 0.63826406
vt 0.9003947 0.6549072
vt 0.9316007 0.63826406
vt 0.9316007 0.6549072
vt 0.96488714 0.63826406
vt 0.96488714 0.6549072
vt 0.99817353 0.63826406
vt 0.99817353 0.6549072
vt 0.99817353 0.62162083
vt 0.96488714 0.62162083
vt 0.99817353 0.6028972
vt 0.9316007 0.62162083
vt 0.9003947 0.62162083
vt 0.96488714 0.6028972
vt 0.96488714 0.586254
vt 0.99817353 0.586254
vt 0.99817353 0.5696108
vt 0.9316007 0.6028972
vt 0.8671082 0.62162083
vt 0.89831424 0.6028972
vt 0.9316007 0.586254
vt 0.96488714 0.5696108
vt 0.8317414 0.62162083
vt 0.8650278 0.6028972
vt 0.96488714 0.55296755
vt 0.99817353 0.55296755
vt 0.99817353 0.5363244
vt 0.9316007 0.5696108
vt 0.89831424 0.586254
vt 0.798455 0.61954045
vt 0.96488714 0.5363244
vt 0.99817353 0.51968116
vt 0.829661 0.6028972
vt 0.9316007 0.55296755
vt 0.89831424 0.5696108
vt 0.86294746 0.586254
vt 0.79013336 0.6049776
vt 0.96488714 0.51968116
vt 0.99817353 0.50095755
vt 0.9316007 0.5363244
vt 0.89831424 0.55296755
vt 0.860867 0.5696108
vt 0.8255002 0.586254
vt 0.7506057 0.60705805
vt 0.96488714 0.50095755
vt 0.99817353 0.48431432
vt 0.9316007 0.5176007
vt 0.77765095 0.5820932
vt 0.80261576 0.5675304
vt 0.7110781 0.5924952
vt 0.96488714 0.48431432
vt 0.99817353 0.4676711
vt 0.96488714 0.4676711
vt 0.74020374 0.586254
vt 0.6944349 0.5800128
vt 0.6819525 0.5820932
vt 0.9316007 0.50095755
vt 0.9316007 0.48431432
vt 0.9316007 0.4676711
vt 0.9003947 0.4676711
vt 0.6819525 0.5696108
vt 0.66738963 0.57169116
vt 0.66738963 0.555048
vt 0.7173193 0.5633696
vt 0.6819525 0.555048
vt 0.66738963 0.54048514
vt 0.6819525 0.54048514
vt 0.66738963 0.52592236
vt 0.7131585 0.54048514
vt 0.6819525 0.52592236
vt 0.66738963 0.5113595
vt 0.7506057 0.55920875
vt 0.74020374 0.53840476
vt 0.7755705 0.55088717
vt 0.6819525 0.5113595
vt 0.66738963 0.49471632
vt 0.7110781 0.5238419
vt 0.6819525 0.49471632
vt 0.66738963 0.4801535
vt 0.68403286 0.4739123
vt 0.7110781 0.5051183
vt 0.7131585 0.48431432
vt 0.7027565 0.4676711
vt 0.7360429 0.4676711
vt 0.7360429 0.48431432
vt 0.767249 0.4676711
vt 0.74020374 0.52176154
vt 0.7381233 0.50095755
vt 0.77140975 0.5363244
vt 0.7693293 0.51968116
vt 0.7693293 0.50095755
vt 0.767249 0.48431432
vt 0.8005354 0.54464597
vt 0.80261576 0.53424394
vt 0.8005354 0.48431432
vt 0.8005354 0.4676711
vt 0.8338218 0.4676711
vt 0.8005354 0.50095755
vt 0.80261576 0.5176007
vt 0.8338218 0.54464597
vt 0.8338218 0.48431432
vt 0.8671082 0.4676711
vt 0.8338218 0.50095755
vt 0.8338218 0.5176007
vt 0.8671082 0.48431432
vt 0.8671082 0.50095755
vt 0.9003947 0.48431432
vt 0.9003947 0.50095755
vt 0.8338218 0.53424394
vt 0.8671082 0.5176007
vt 0.9003947 0.5176007
vt 0.8671082 0.53424394
vt 0.9003947 0.53424394
vt 0.86294746 0.55088717
vn 0.028113097 -0.06221421 0.9976668
vn 0.053688943 -0.104840614 0.9930387
vn 0.011062533 -0.04516366 0.99891835
vn -0.0059880167 -0.019587815 0.9997902
vn -0.023038581 -0.0025372654 0.99973136
vn -0.023038581 -0.0025372654 0.99973136
vn -0.048614413 -0.0025372654 0.9988144
vn -0.0059880167 0.040089145 0.9991782
vn 0.0025372654 -0.053688943 0.99855447
vn 0.019587815 0.014513299 0.9997028
vn -0.040089145 0.13386722 0.99018806
vn -0.0059880167 0.13386722 0.99098116
vn -0.031563863 0.06566499 0.99734235
vn -0.040089145 0.06566499 0.9970361
vn -0.040089145 -0.113365896 0.9927442
vn -0.040089145 -0.113365896 0.9927442
vn -0.040089145 -0.07073949 0.99668896
vn -0.031563863 -0.06221421 0.9975636
vn -0.023038581 0.16796835 0.9855231
vn -0.023038581 0.18501891 0.98246485
vn 0.0025372654 0.32994866 0.9439955
vn -0.0059880167 0.33847392 0.9409567
vn 0.0025372654 0.16796835 0.9857891
vn 0.011062533 0.15944307 0.9871451
vn -0.023038581 -0.04516366 0.9987139
vn 0.0025372654 -0.053688943 0.99855447
vn -0.014513299 0.014513299 0.99978936
vn 0.0025372654 0.19354416 0.9810883
vn -0.014513299 0.05713971 0.9982607
vn -0.0059880167 0.3128981 0.9497678
vn -0.031563863 0.1423925 0.98930687
vn 0.0025372654 0.19354416 0.9810883
vn 0.011062533 0.21912001 0.97563523
vn -0.014513299 0.09976609 0.99490505
vn 0.019587815 0.116816655 0.99296033
vn 0.0025372654 0.29584754 0.9552318
vn -0.040089145 -0.079264775 0.99604714
vn -0.023038581 0.116816655 0.99288625
vn 0.011062533 0.27879697 0.9602864
vn 0.028113097 0.2276453 0.9733382
vn -0.040089145 -0.104840614 0.9936807
vn -0.040089145 -0.08779006 0.995332
vn 0.011062533 0.21912001 0.97563523
vn 0.0025372654 0.116816655 0.99315023
vn -0.014513299 0.13386722 0.990893
vn 0.011062533 0.25322115 0.9673452
vn -0.023038581 0.082715526 0.9963069
vn -0.023038581 0.09124081 0.9955623
vn -0.014513299 0.21912001 0.97559
vn -0.06566499 0.13386722 0.9888213
vn -0.031563863 -0.07073949 0.99699533
vn -0.0059880167 0.2276453 0.97372574
vn -0.023038581 0.05713971 0.99810034
vn -0.040089145 -0.08779006 0.995332
vn -0.014513299 0.13386722 0.990893
vn -0.040089145 0.2276453 0.97291857
vn -0.06566499 0.18501891 0.98053867
vn -0.014513299 0.21912001 0.97559
vn -0.023038581 0.040089145 0.99893045
vn -0.023038581 -0.07073949 0.99722874
vn -0.023038581 -0.028113097 0.9993392
vn -0.0059880167 0.09976609 0.9949929
vn -0.05713971 0.25322115 0.96571946
vn -0.014513299 0.19354416 0.9809842
vn -0.031563863 0.21059473 0.9770637
vn -0.023038581 0.17649363 0.98403215
vn -0.031563863 0.06566499 0.99734235
vn -0.023038581 -0.03663838 0.999063
vn -0.048614413 0.24469586 0.9683804
vn -0.023038581 0.1423925 0.9895421
vn -0.05713971 0.21059473 0.9759021
vn 0.0025372654 0.048614413 0.9988144
vn -0.023038581 -0.053688943 0.9982919
vn -0.06566499 -0.0025372654 0.9978385
vn -0.048614413 0.21912001 0.97448605
vn -0.040089145 0.24469586 0.96877074
vn -0.048614413 0.2617464 0.96391153
vn -0.023038581 0.082715526 0.9963069
vn -0.040089145 -0.07073949 0.99668896
vn -0.074190274 -0.011062533 0.9971827
vn -0.031563863 -0.104840614 0.993988
vn -0.0059880167 -0.07073949 0.9974769
vn -0.014513299 -0.13041645 0.9913531
vn 0.028113097 -0.1986187 0.97967356
vn 0.019587815 -0.16451758 0.98617965
vn 0.03663838 -0.16451758 0.98569345
vn 0.0025372654 -0.079264775 0.9968504
vn 0.028113097 -0.13894174 0.9899014
vn 0.028113097 -0.113365896 0.9931555
vn -0.014513299 0.15944307 0.9871004
vn -0.0059880167 0.10829137 0.99410117
vn -0.023038581 0.21912001 0.9754259
vn 0.028113097 -0.104840614 0.9940916
vn 0.03663838 -0.13041645 0.99078214
vn 0.011062533 -0.07073949 0.9974335
vn 0.019587815 -0.09631534 0.99515814
vn 0.0025372654 -0.07073949 0.9974916
vn -0.0059880167 -0.04516366 0.9989616
vn 0.0025372654 -0.04516366 0.9989764
vn -0.023038581 -0.011062533 0.99967337
vn -0.031563863 -0.011062533 0.9994405
vn -0.048614413 0.06566499 0.9966568
vn -0.023038581 0.09124081 0.9955623
vn -0.0059880167 0.16796835 0.98577416
vn -0.0059880167 0.10829137 0.99410117
vn -0.014513299 0.116816655 0.9930475
vn -0.0059880167 0.21059473 0.9775551
vn 0.0025372654 0.21059473 0.9775702
vn 0.0025372654 0.20206945 0.9793679
vn 0.011062533 0.17649363 0.98423964
vn -0.014513299 0.082715526 0.99646753
vn -0.0059880167 0.082715526 0.9965552
vn 0.011062533 0.09976609 0.99494946
vn 0.011062533 0.10829137 0.99405766
vn 0.0025372654 -0.019587815 0.9998049
vn 0.011062533 0.09976609 0.99494946
vn 0.0025372654 0.09124081 0.99582565
vn -0.040089145 -0.07073949 0.99668896
vn 0.0025372654 -0.028113097 0.99960154
vn 0.0025372654 -0.03663838 0.9993254
vn 0.0025372654 -0.03663838 0.9993254
vn -0.0059880167 -0.053688943 0.99853975
vn -0.0059880167 -0.04516366 0.9989616
vn -0.014513299 -0.06221421 0.9979573
vn -0.014513299 0.06566499 0.99773616
vn -0.031563863 0.048614413 0.99831873
vn -0.014513299 -0.06221421 0.9979573
vn -0.023038581 -0.07073949 0.99722874
vn -0.031563863 0.040089145 0.99869746
vn -0.023038581 -0.079264775 0.99658734
vn -0.023038581 0.031563863 0.99923617
vn -0.031563863 -0.079264775 0.99635375
g tb_06_mesh_0
f 3/3/3 2/2/2 1/1/1
f 1/1/1 4/4/4 3/3/3
f 3/3/3 4/4/4 5/5/5
f 5/5/5 6/6/6 3/3/3
f 7/7/7 6/6/6 5/5/5
f 8/8/8 4/4/4 1/1/1
f 1/1/1 9/9/9 8/8/8
f 8/8/8 9/9/9 10/10/10
f 10/10/10 11/11/11 8/8/8
f 12/12/12 4/4/4 8/8/8
f 5/5/5 4/4/4 12/12/12
f 13/13/13 8/8/8 11/11/11
f 8/8/8 13/13/13 12/12/12
f 11/11/11 14/14/14 13/13/13
f 15/15/15 13/13/13 14/14/14
f 14/14/14 16/16/16 15/15/15
f 17/17/17 15/15/15 16/16/16
f 16/16/16 18/18/18 17/17/17
f 19/19/19 17/17/17 18/18/18
f 18/18/18 20/20/20 19/19/19
f 21/21/21 19/19/19 20/20/20
f 20/20/20 22/22/22 21/21/21
f 23/23/23 21/21/21 22/22/22
f 22/22/22 24/24/24 23/23/23
f 25/25/25 23/23/23 24/24/24
f 24/24/24 26/26/26 25/25/25
f 23/23/23 25/25/25 27/27/27
f 27/27/27 28/28/28 23/23/23
f 21/21/21 23/23/23 28/28/28
f 28/28/28 27/27/27 29/29/29
f 19/19/19 21/21/21 30/30/30
f 28/28/28 30/30/30 21/21/21
f 17/17/17 19/19/19 31/31/31
f 30/30/30 31/31/31 19/19/19
f 29/29/29 32/32/32 28/28/28
f 30/30/30 28/28/28 32/32/32
f 33/33/33 32/32/32 29/29/29
f 29/29/29 34/34/34 33/33/33
f 33/33/33 34/34/34 35/35/35
f 32/32/32 36/36/36 30/30/30
f 31/31/31 30/30/30 36/36/36
f 36/36/36 32/32/32 33/33/33
f 31/31/31 37/37/37 17/17/17
f 15/15/15 17/17/17 37/37/37
f 36/36/36 38/38/38 31/31/31
f 37/37/37 31/31/31 38/38/38
f 33/33/33 39/39/39 36/36/36
f 38/38/38 36/36/36 39/39/39
f 35/35/35 40/40/40 33/33/33
f 39/39/39 33/33/33 40/40/40
f 37/37/37 41/41/41 15/15/15
f 13/13/13 15/15/15 41/41/41
f 38/38/38 42/42/42 37/37/37
f 41/41/41 37/37/37 42/42/42
f 43/43/43 40/40/40 35/35/35
f 35/35/35 44/44/44 43/43/43
f 43/43/43 44/44/44 45/45/45
f 40/40/40 46/46/46 39/39/39
f 46/46/46 40/40/40 43/43/43
f 39/39/39 47/47/47 38/38/38
f 42/42/42 38/38/38 47/47/47
f 47/47/47 39/39/39 46/46/46
f 41/41/41 48/48/48 13/13/13
f 13/13/13 48/48/48 12/12/12
f 45/45/45 49/49/49 43/43/43
f 49/49/49 45/45/45 50/50/50
f 42/42/42 51/51/51 41/41/41
f 48/48/48 41/41/41 51/51/51
f 43/43/43 52/52/52 46/46/46
f 52/52/52 43/43/43 49/49/49
f 46/46/46 53/53/53 47/47/47
f 53/53/53 46/46/46 52/52/52
f 47/47/47 54/54/54 42/42/42
f 51/51/51 42/42/42 54/54/54
f 54/54/54 47/47/47 53/53/53
f 12/12/12 48/48/48 55/55/55
f 51/51/51 55/55/55 48/48/48
f 50/50/50 56/56/56 49/49/49
f 56/56/56 50/50/50 57/57/57
f 49/49/49 58/58/58 52/52/52
f 58/58/58 49/49/49 56/56/56
f 52/52/52 59/59/59 53/53/53
f 59/59/59 52/52/52 58/58/58
f 53/53/53 60/60/60 54/54/54
f 60/60/60 53/53/53 59/59/59
f 54/54/54 61/61/61 51/51/51
f 55/55/55 51/51/51 61/61/61
f 61/61/61 54/54/54 60/60/60
f 55/55/55 62/62/62 12/12/12
f 12/12/12 62/62/62 5/5/5
f 57/57/57 63/63/63 56/56/56
f 63/63/63 57/57/57 64/64/64
f 56/56/56 65/65/65 58/58/58
f 65/65/65 56/56/56 63/63/63
f 61/61/61 66/66/66 55/55/55
f 62/62/62 55/55/55 66/66/66
f 60/60/60 67/67/67 61/61/61
f 66/66/66 61/61/61 67/67/67
f 68/68/68 5/5/5 62/62/62
f 5/5/5 68/68/68 7/7/7
f 64/64/64 69/69/69 63/63/63
f 69/69/69 64/64/64 70/70/70
f 70/70/70 71/71/71 69/69/69
f 62/62/62 72/72/72 68/68/68
f 66/66/66 72/72/72 62/62/62
f 7/7/7 68/68/68 73/73/73
f 73/73/73 68/68/68 72/72/72
f 73/73/73 74/74/74 7/7/7
f 75/75/75 63/63/63 69/69/69
f 63/63/63 75/75/75 65/65/65
f 76/76/76 69/69/69 71/71/71
f 69/69/69 76/76/76 75/75/75
f 71/71/71 77/77/77 76/76/76
f 76/76/76 77/77/77 78/78/78
f 74/74/74 73/73/73 79/79/79
f 79/79/79 80/80/80 74/74/74
f 81/81/81 80/80/80 79/79/79
f 72/72/72 82/82/82 73/73/73
f 79/79/79 73/73/73 82/82/82
f 79/79/79 83/83/83 81/81/81
f 82/82/82 83/83/83 79/79/79
f 84/84/84 81/81/81 83/83/83
f 83/83/83 85/85/85 84/84/84
f 86/86/86 84/84/84 85/85/85
f 87/87/87 85/85/85 83/83/83
f 83/83/83 82/82/82 87/87/87
f 85/85/85 88/88/88 86/86/86
f 88/88/88 85/85/85 87/87/87
f 89/89/89 86/86/86 88/88/88
f 90/90/90 82/82/82 72/72/72
f 72/72/72 66/66/66 90/90/90
f 91/91/91 87/87/87 82/82/82
f 82/82/82 90/90/90 91/91/91
f 92/92/92 90/90/90 66/66/66
f 91/91/91 90/90/90 92/92/92
f 66/66/66 67/67/67 92/92/92
f 88/88/88 93/93/93 89/89/89
f 94/94/94 89/89/89 93/93/93
f 87/87/87 95/95/95 88/88/88
f 95/95/95 87/87/87 91/91/91
f 93/93/93 88/88/88 95/95/95
f 93/93/93 96/96/96 94/94/94
f 97/97/97 94/94/94 96/96/96
f 96/96/96 98/98/98 97/97/97
f 95/95/95 99/99/99 93/93/93
f 96/96/96 93/93/93 99/99/99
f 98/98/98 96/96/96 100/100/100
f 99/99/99 100/100/100 96/96/96
f 100/100/100 101/101/101 98/98/98
f 102/102/102 101/101/101 100/100/100
f 100/100/100 103/103/103 102/102/102
f 103/103/103 100/100/100 99/99/99
f 104/104/104 102/102/102 103/103/103
f 91/91/91 105/105/105 95/95/95
f 99/99/99 95/95/95 105/105/105
f 99/99/99 106/106/106 103/103/103
f 105/105/105 106/106/106 99/99/99
f 105/105/105 91/91/91 107/107/107
f 92/92/92 107/107/107 91/91/91
f 106/106/106 105/105/105 108/108/108
f 107/107/107 108/108/108 105/105/105
f 103/103/103 106/106/106 109/109/109
f 108/108/108 109/109/109 106/106/106
f 103/103/103 110/110/110 104/104/104
f 109/109/109 110/110/110 103/103/103
f 107/107/107 92/92/92 111/111/111
f 111/111/111 92/92/92 67/67/67
f 108/108/108 107/107/107 112/112/112
f 111/111/111 112/112/112 107/107/107
f 104/104/104 110/110/110 113/113/113
f 113/113/113 114/114/114 104/104/104
f 115/115/115 114/114/114 113/113/113
f 110/110/110 109/109/109 116/116/116
f 116/116/116 113/113/113 110/110/110
f 109/109/109 108/108/108 117/117/117
f 112/112/112 117/117/117 108/108/108
f 117/117/117 116/116/116 109/109/109
f 67/67/67 118/118/118 111/111/111
f 112/112/112 111/111/111 118/118/118
f 113/113/113 119/119/119 115/115/115
f 120/120/120 115/115/115 119/119/119
f 113/113/113 116/116/116 121/121/121
f 121/121/121 119/119/119 113/113/113
f 116/116/116 117/117/117 122/122/122
f 122/122/122 117/117/117 112/112/112
f 122/122/122 121/121/121 116/116/116
f 119/119/119 123/123/123 120/120/120
f 123/123/123 119/119/119 121/121/121
f 78/78/78 120/120/120 123/123/123
f 121/121/121 124/124/124 123/123/123
f 124/124/124 121/121/121 122/122/122
f 123/123/123 125/125/125 78/78/78
f 125/125/125 123/123/123 124/124/124
f 78/78/78 125/125/125 76/76/76
f 76/76/76 125/125/125 126/126/126
f 124/124/124 126/126/126 125/125/125
f 126/126/126 75/75/75 76/76/76
f 112/112/112 127/127/127 122/122/122
f 118/118/118 127/127/127 112/112/112
f 122/122/122 128/128/128 124/124/124
f 126/126/126 124/124/124 128/128/128
f 128/128/128 122/122/122 127/127/127
f 75/75/75 126/126/126 129/129/129
f 128/128/128 129/129/129 126/126/126
f 129/129/129 65/65/65 75/75/75
f 127/127/127 130/130/130 128/128/128
f 130/130/130 127/127/127 118/118/118
f 129/129/129 128/128/128 130/130/130
f 65/65/65 129/129/129 131/131/131
f 130/130/130 131/131/131 129/129/129
f 131/131/131 58/58/58 65/65/65
f 58/58/58 131/131/131 59/59/59
f 59/59/59 131/131/131 130/130/130
f 118/118/118 132/132/132 130/130/130
f 130/130/130 132/132/132 59/59/59
f 132/132/132 118/118/118 67/67/67
f 59/59/59 132/132/132 60/60/60
f 67/67/67 60/60/60 132/132/132
