g tb_14_mesh
v -0.14590555 -0.23269883 -0.14443897
v -0.19277456 -0.23269883 -0.13835208
v -0.19277456 -0.19800358 -0.11643928
v -0.14590555 -0.19800358 -0.12009141
v -0.19277456 -0.163917 -0.10913502
v -0.16112277 -0.1316565 -0.10791764
v -0.08077586 -0.11887404 -0.10791764
v -0.099036515 -0.23269883 -0.1480911
v -0.12947097 -0.099396005 -0.106091574
v -0.09294963 -0.19800358 -0.12556961
v 0.0062666237 -0.26800278 -0.18400373
v -0.099036515 -0.25887245 -0.18217766
v -0.068602085 -0.2874808 -0.21261209
v -0.038167655 -0.31608918 -0.21869898
v 0.0062666237 -0.31608918 -0.19922096
v -0.08077586 -0.051309586 -0.10670026
v -0.12947097 -0.051309586 -0.10243945
v -0.12947097 -0.0032231808 -0.10365681
v -0.033906817 -0.19800358 -0.13287388
v 0.050700903 -0.26800278 -0.1748734
v 0.050700903 -0.31608918 -0.18948193
v 0.095743865 -0.26800278 -0.17791684
v 0.095743865 -0.31608918 -0.19435143
v 0.05252698 -0.21991637 -0.1590475
v 0.013570875 -0.21139473 -0.14687371
v 0.14017814 -0.26800278 -0.16452569
v 0.14017814 -0.31608918 -0.18096028
v 0.18461242 -0.26800278 -0.1426129
v 0.18461242 -0.31608918 -0.1584388
v 0.14017814 -0.21991637 -0.13956946
v 0.09513518 -0.21991637 -0.15539536
v 0.053135663 -0.17426471 -0.1322652
v 0.016614348 -0.17122127 -0.12739567
v 0.035483688 -0.117047966 -0.11765666
v -0.021124363 -0.1316565 -0.11400452
v -0.019906998 -0.05922255 -0.11461322
v 0.094526485 -0.17122127 -0.12800437
v 0.14017814 -0.17122127 -0.117047966
v 0.095743865 -0.12313487 -0.11765666
v 0.1852211 -0.21991637 -0.11643928
v 0.2290467 -0.26800278 -0.1158306
v 0.2290467 -0.31608918 -0.13469994
v 0.27348098 -0.31608918 -0.12130879
v 0.27348098 -0.26800278 -0.09270042
v 0.23148145 -0.21991637 -0.08478747
v 0.27408966 -0.21991637 -0.04765746
v 0.1852211 -0.17122127 -0.099396005
v 0.23148145 -0.17122127 -0.07504845
v 0.27408966 -0.17182995 -0.043396622
v 0.14017814 -0.12313487 -0.11217846
v 0.23148145 -0.12313487 -0.09026566
v 0.27408966 -0.12313487 -0.07626583
v 0.1858298 -0.12313487 -0.10365681
v 0.095743865 -0.07504845 -0.121917486
v 0.23148145 -0.07504845 -0.10913502
v 0.27408966 -0.07504845 -0.099396005
v 0.1858298 -0.07504845 -0.1158306
v 0.14139552 -0.07504845 -0.12009141
v 0.23148145 -0.026962042 -0.13287388
v 0.27408966 -0.026962042 -0.13043912
v 0.27408966 0.021124363 -0.15417798
v 0.05922255 -0.051309586 -0.12556961
v 0.1420042 -0.026962042 -0.13591732
v 0.1858298 -0.026962042 -0.13469994
v 0.23209015 0.021124363 -0.14930847
v 0.11156978 -0.026962042 -0.1371347
v 0.07748321 -0.018440396 -0.13591732
v 0.04096189 -0.011744827 -0.13287388
v 0.23209015 0.06921077 -0.12496093
v 0.27469835 0.06921077 -0.12556961
v 0.27469835 0.11729717 -0.06409204
v 0.18461242 0.021733046 -0.14687371
v 0.1371347 0.021733046 -0.14687371
v -0.019906998 -0.0062666237 -0.12374355
v 0.03852713 0.030863374 -0.14078683
v 0.09148304 0.011994034 -0.14383027
v 0.23209015 0.117905885 -0.0671355
v 0.27469835 0.16599229 -0.03122285
v 0.18339504 0.071036845 -0.12739567
v -0.08077586 -0.0032231808 -0.11217846
v 0.05983123 0.07529765 -0.13896076
v 0.12983043 0.073471606 -0.13287388
v 0.18217766 0.12094933 -0.07930927
v 0.23209015 0.16599229 -0.039135814
v -0.019906998 0.0412111 -0.13348256
v -0.08077586 0.04425454 -0.121917486
v -0.12947097 0.04425454 -0.11156978
v -0.12947097 0.092340946 -0.12374355
v -0.017472237 0.0892975 -0.13896076
v -0.08077586 0.092340946 -0.13104782
v -0.12947097 0.14042735 -0.13774338
v 0.23209015 0.2140787 -0.06165731
v 0.27469835 0.2140787 -0.05678779
v -0.08077586 0.14042735 -0.136526
v -0.12947097 0.1879051 -0.14078683
v -0.01808092 0.1386013 -0.136526
v 0.05678779 0.13373178 -0.1322652
v 0.06348336 0.18912247 -0.14504765
v 0.23209015 0.2621651 -0.086613536
v 0.27469835 0.2621651 -0.075657144
v 0.18948193 0.2621651 -0.12800437
v 0.18156898 0.17329654 -0.0939178
v -0.08077586 0.1879051 -0.1371347
v -0.12947097 0.23599151 -0.12313487
v -0.08077586 0.23599151 -0.12556961
v -0.032689452 0.23599151 -0.14626503
v -0.032689452 0.1879051 -0.13835208
v 0.016005635 0.23599151 -0.17000389
v 0.1803516 0.22686115 -0.11400452
v 0.12617831 0.12581882 -0.108526334
v 0.12983043 0.17816606 -0.12678699
v 0.13287388 0.25364348 -0.1748734
v 0.14991716 0.2840779 -0.1797429
v 0.10122207 0.27129546 -0.19435143
v 0.1103524 0.30659935 -0.19739488
v 0.06348336 0.30659935 -0.19252537
v 0.06348336 0.27129546 -0.18887325
v 0.016005635 0.27129546 -0.17365602
v 0.016005635 0.30659935 -0.18096028
vt 0.6053387 0.14961147
vt 0.6053387 0.16784057
vt 0.5819013 0.16784057
vt 0.5819013 0.14961147
vt 0.5584639 0.16784057
vt 0.5350265 0.15742394
vt 0.527214 0.12877823
vt 0.6053387 0.13398653
vt 0.5115891 0.14440316
vt 0.5819013 0.13138239
vt 0.63138026 0.09752836
vt 0.62617195 0.13398653
vt 0.644401 0.12356991
vt 0.66523427 0.113153294
vt 0.66523427 0.09752836
vt 0.4777351 0.12877823
vt 0.4777351 0.14440316
vt 0.44388106 0.14440316
vt 0.5819013 0.11054914
vt 0.63138026 0.08190343
vt 0.66523427 0.08190343
vt 0.63138026 0.06367433
vt 0.66523427 0.06367433
vt 0.59752625 0.07929927
vt 0.59231794 0.094924204
vt 0.63138026 0.048049398
vt 0.66523427 0.048049398
vt 0.63138026 0.032424465
vt 0.66523427 0.032424465
vt 0.59752625 0.048049398
vt 0.59752625 0.066278495
vt 0.5662764 0.07929927
vt 0.5636722 0.09232005
vt 0.52460986 0.087111734
vt 0.5350265 0.10534082
vt 0.48294342 0.10534082
vt 0.5636722 0.066278495
vt 0.5636722 0.048049398
vt 0.5298182 0.06367433
vt 0.59752625 0.032424465
vt 0.63138026 0.01679953
vt 0.66523427 0.01679953
vt 0.66523427 0.0011745954
vt 0.63138026 0.0011745954
vt 0.59752625 0.01679953
vt 0.59752625 0.0011745954
vt 0.5636722 0.032424465
vt 0.5636722 0.01679953
vt 0.5636722 0.0011745954
vt 0.5298182 0.048049398
vt 0.5298182 0.01679953
vt 0.5298182 0.0011745954
vt 0.5298182 0.032424465
vt 0.49596417 0.06367433
vt 0.49596417 0.01679953
vt 0.49596417 0.0011745954
vt 0.49596417 0.032424465
vt 0.49596417 0.048049398
vt 0.46211016 0.01679953
vt 0.46211016 0.0011745954
vt 0.42825612 0.0011745954
vt 0.4777351 0.076695114
vt 0.46211016 0.048049398
vt 0.46211016 0.032424465
vt 0.42825612 0.01679953
vt 0.46211016 0.05846602
vt 0.4542977 0.0714868
vt 0.44908938 0.084507585
vt 0.39440212 0.01679953
vt 0.39440212 0.0011745954
vt 0.35794392 0.0011745954
vt 0.42565197 0.032424465
vt 0.42565197 0.050653554
vt 0.44648522 0.10534082
vt 0.42044365 0.084507585
vt 0.43346444 0.066278495
vt 0.35794392 0.01679953
vt 0.3240899 0.0011745954
vt 0.39179796 0.032424465
vt 0.44388106 0.12877823
vt 0.3891938 0.076695114
vt 0.3891938 0.053257708
vt 0.35794392 0.035028618
vt 0.3240899 0.01679953
vt 0.4126312 0.10534082
vt 0.41002706 0.12877823
vt 0.41002706 0.14440316
vt 0.37617302 0.14440316
vt 0.37877718 0.10534082
vt 0.37617302 0.12877823
vt 0.34231898 0.14440316
vt 0.29023588 0.01679953
vt 0.29023588 0.0011745954
vt 0.34231898 0.12877823
vt 0.30846497 0.14440316
vt 0.34492314 0.10534082
vt 0.3475273 0.07929927
vt 0.30846497 0.076695114
vt 0.25638187 0.01679953
vt 0.25638187 0.0011745954
vt 0.25638187 0.032424465
vt 0.3188816 0.035028618
vt 0.30846497 0.12877823
vt 0.27461094 0.14440316
vt 0.27461094 0.12877823
vt 0.27461094 0.11054914
vt 0.30846497 0.11054914
vt 0.27461094 0.09232005
vt 0.2824234 0.035028618
vt 0.3527356 0.053257708
vt 0.31627744 0.053257708
vt 0.2641943 0.050653554
vt 0.24075693 0.04544524
vt 0.25117353 0.06367433
vt 0.22513199 0.05846602
vt 0.22513199 0.076695114
vt 0.25117353 0.076695114
vt 0.25117353 0.09232005
vt 0.22513199 0.09232005
vn 0.07429755 -0.5600537 0.825118
vn 0.09637737 -0.5379739 0.8374339
vn 0.09637737 -0.3834151 0.91853374
vn 0.07429755 -0.3834151 0.92058283
vn 0.09637737 -0.16261685 0.981971
vn 0.052217722 -0.14053702 0.98869747
vn 0.07429755 -0.1184572 0.9901756
vn 0.052217722 -0.6262932 0.77783686
vn 0.030137897 -0.052217722 0.99818087
vn 0.09637737 -0.40549493 0.90900236
vn -0.102341056 -0.4717344 0.87578136
vn -0.058181405 -0.78085196 0.62200093
vn -0.12442088 -0.648373 0.7510871
vn -0.27897966 -0.3834151 0.8804335
vn -0.30105948 -0.2950958 0.90679747
vn 0.1184572 0.03610158 0.99230266
vn 0.09637737 -0.030137897 0.9948885
vn 0.16261685 0.12442088 0.9788131
vn 0.09637737 -0.42757475 0.89882773
vn -0.058181405 -0.2950958 0.9536946
vn -0.058181405 -0.2950958 0.9536946
vn -0.12442088 -0.36133528 0.92409754
vn -0.08026123 -0.31717563 0.9449644
vn 0.008058071 -0.4717344 0.8817039
vn 0.1184572 -0.51589406 0.84842277
vn -0.34521914 -0.36133528 0.86617583
vn -0.34521914 -0.2950958 0.89092207
vn -0.45561826 -0.36133528 0.8135409
vn -0.45561826 -0.2950958 0.8398395
vn -0.34521914 -0.40549493 0.8464027
vn -0.16858053 -0.44965458 0.8771496
vn 0.008058071 -0.3834151 0.92354095
vn 0.09637737 -0.31717563 0.94345695
vn 0.052217722 -0.07429755 0.9958681
vn 0.07429755 -0.14053702 0.98728377
vn 0.1184572 0.08026123 0.98971003
vn -0.1465007 -0.36133528 0.9208552
vn -0.30105948 -0.25093615 0.91999686
vn -0.08026123 -0.052217722 0.99540514
vn -0.45561826 -0.3834151 0.8033709
vn -0.43353844 -0.40549493 0.80474734
vn -0.36729896 -0.33925545 0.8660238
vn -0.34521914 -0.40549493 0.8464027
vn -0.45561826 -0.51589406 0.72544146
vn -0.54393756 -0.36133528 0.75734323
vn -0.61017704 -0.2950958 0.73525673
vn -0.4114586 -0.1184572 0.9036978
vn -0.52185774 0.03610158 0.8522682
vn -0.54393756 0.1465007 0.82623816
vn -0.16858053 0.058181405 0.9839693
vn -0.30105948 0.34521914 0.8889246
vn -0.25689983 0.4776981 0.8401232
vn -0.23482001 0.19066036 0.95315695
vn -0.014021754 0.19066036 0.9815559
vn -0.16858053 0.4114586 0.8957022
vn -0.16858053 0.45561826 0.8740667
vn -0.102341056 0.3231393 0.94080144
vn -0.08026123 0.25689983 0.9630995
vn -0.058181405 0.4114586 0.90956956
vn -0.03610158 0.4997779 0.8654009
vn 0.052217722 -0.052217722 0.9972696
vn 0.07429755 0.19066036 0.9788404
vn -0.03610158 0.27897966 0.95961815
vn -0.014021754 0.3231393 0.9462475
vn 0.07429755 -0.07429755 0.9944646
vn 0.030137897 0.25689983 0.96596795
vn 0.09637737 0.23482001 0.96724916
vn 0.14053702 0.19066036 0.9715441
vn -0.014021754 -0.6262932 0.7794615
vn 0.008058071 -0.67045283 0.74190843
vn -0.03610158 -0.67045283 0.7410733
vn 0.008058071 -0.09637737 0.9953123
vn -0.014021754 -0.030137897 0.99944735
vn 0.16261685 0.16858053 0.97218126
vn 0.09637737 0.08026123 0.9921036
vn 0.07429755 0.102341056 0.9919709
vn -0.12442088 -0.6262932 0.76959485
vn -0.1465007 -0.052217722 0.9878314
vn -0.08026123 -0.5379739 0.83913183
vn 0.18469667 0.1465007 0.97181517
vn -0.058181405 -0.14053702 0.98836446
vn -0.1465007 -0.3834151 0.91188294
vn -0.4114586 -0.2950958 0.8623342
vn -0.3893788 -0.008058071 0.92104244
vn 0.16261685 0.1465007 0.9757527
vn 0.18469667 0.19066036 0.9641243
vn 0.2067765 0.19066036 0.95963126
vn 0.16261685 0.25689983 0.9526585
vn 0.07429755 0.014021754 0.99713755
vn 0.09637737 0.1465007 0.9845044
vn 0.008058071 0.12442088 0.9921968
vn -0.4114586 0.4114586 0.8132673
vn -0.12442088 0.43353844 0.8925043
vn -0.014021754 0.058181405 0.99820757
vn -0.058181405 -0.16261685 0.9849724
vn 0.008058071 0.03610158 0.9993157
vn -0.16858053 0.08026123 0.9824147
vn -0.08026123 0.3893788 0.9175741
vn -0.45561826 0.3893788 0.8004974
vn -0.23482001 0.36729896 0.8999728
vn -0.61017704 0.4114586 0.67704195
vn -0.5880972 0.25689983 0.76690555
vn 0.030137897 -0.07429755 0.99678063
vn -0.014021754 -0.2950958 0.95536476
vn 0.2067765 -0.22885633 0.95124567
vn 0.31717563 0.08026123 0.9449644
vn 0.09637737 0.1465007 0.9845044
vn 0.16261685 0.36729896 0.91577685
vn -0.5880972 0.3893788 0.70889056
vn -0.36729896 -0.030137897 0.9296145
vn -0.36729896 0.3893788 0.8446748
vn -0.4114586 0.4776981 0.7762129
vn -0.4776981 0.34521914 0.8078541
vn -0.08026123 0.30105948 0.9502217
vn -0.12442088 0.102341056 0.9869376
vn 0.2067765 0.102341056 0.973021
vn 0.18469667 0.25689983 0.9486251
vn 0.2950958 0.12442088 0.94733196
vn 0.22885633 0.21274018 0.94992965
g tb_14_mesh_0
f 3/3/3 2/2/2 1/1/1
f 1/1/1 4/4/4 3/3/3
f 5/5/5 3/3/3 4/4/4
f 4/4/4 6/6/6 5/5/5
f 6/6/6 4/4/4 7/7/7
f 4/4/4 1/1/1 8/8/8
f 7/7/7 9/9/9 6/6/6
f 8/8/8 10/10/10 4/4/4
f 7/7/7 4/4/4 10/10/10
f 10/10/10 8/8/8 11/11/11
f 11/11/11 8/8/8 12/12/12
f 12/12/12 13/13/13 11/11/11
f 11/11/11 13/13/13 14/14/14
f 14/14/14 15/15/15 11/11/11
f 9/9/9 7/7/7 16/16/16
f 16/16/16 17/17/17 9/9/9
f 18/18/18 17/17/17 16/16/16
f 7/7/7 10/10/10 19/19/19
f 11/11/11 19/19/19 10/10/10
f 20/20/20 11/11/11 15/15/15
f 15/15/15 21/21/21 20/20/20
f 22/22/22 20/20/20 21/21/21
f 21/21/21 23/23/23 22/22/22
f 11/11/11 20/20/20 24/24/24
f 24/24/24 20/20/20 22/22/22
f 11/11/11 25/25/25 19/19/19
f 24/24/24 25/25/25 11/11/11
f 26/26/26 22/22/22 23/23/23
f 23/23/23 27/27/27 26/26/26
f 28/28/28 26/26/26 27/27/27
f 27/27/27 29/29/29 28/28/28
f 22/22/22 26/26/26 30/30/30
f 30/30/30 26/26/26 28/28/28
f 22/22/22 31/31/31 24/24/24
f 30/30/30 31/31/31 22/22/22
f 25/25/25 24/24/24 32/32/32
f 32/32/32 24/24/24 31/31/31
f 19/19/19 25/25/25 33/33/33
f 32/32/32 33/33/33 25/25/25
f 34/34/34 33/33/33 32/32/32
f 33/33/33 35/35/35 19/19/19
f 35/35/35 33/33/33 34/34/34
f 19/19/19 35/35/35 7/7/7
f 7/7/7 35/35/35 36/36/36
f 36/36/36 35/35/35 34/34/34
f 36/36/36 16/16/16 7/7/7
f 31/31/31 37/37/37 32/32/32
f 34/34/34 32/32/32 37/37/37
f 31/31/31 30/30/30 38/38/38
f 38/38/38 37/37/37 31/31/31
f 37/37/37 39/39/39 34/34/34
f 39/39/39 37/37/37 38/38/38
f 38/38/38 30/30/30 40/40/40
f 28/28/28 40/40/40 30/30/30
f 40/40/40 28/28/28 41/41/41
f 41/41/41 28/28/28 29/29/29
f 29/29/29 42/42/42 41/41/41
f 41/41/41 42/42/42 43/43/43
f 43/43/43 44/44/44 41/41/41
f 45/45/45 41/41/41 44/44/44
f 41/41/41 45/45/45 40/40/40
f 44/44/44 46/46/46 45/45/45
f 40/40/40 47/47/47 38/38/38
f 47/47/47 40/40/40 45/45/45
f 48/48/48 45/45/45 46/46/46
f 45/45/45 48/48/48 47/47/47
f 46/46/46 49/49/49 48/48/48
f 38/38/38 50/50/50 39/39/39
f 50/50/50 38/38/38 47/47/47
f 51/51/51 48/48/48 49/49/49
f 49/49/49 52/52/52 51/51/51
f 53/53/53 47/47/47 48/48/48
f 47/47/47 53/53/53 50/50/50
f 48/48/48 51/51/51 53/53/53
f 54/54/54 39/39/39 50/50/50
f 34/34/34 39/39/39 54/54/54
f 55/55/55 51/51/51 52/52/52
f 52/52/52 56/56/56 55/55/55
f 57/57/57 53/53/53 51/51/51
f 51/51/51 55/55/55 57/57/57
f 58/58/58 50/50/50 53/53/53
f 50/50/50 58/58/58 54/54/54
f 53/53/53 57/57/57 58/58/58
f 59/59/59 55/55/55 56/56/56
f 57/57/57 55/55/55 59/59/59
f 56/56/56 60/60/60 59/59/59
f 59/59/59 60/60/60 61/61/61
f 54/54/54 62/62/62 34/34/34
f 34/34/34 62/62/62 36/36/36
f 63/63/63 58/58/58 57/57/57
f 59/59/59 64/64/64 57/57/57
f 57/57/57 64/64/64 63/63/63
f 61/61/61 65/65/65 59/59/59
f 64/64/64 59/59/59 65/65/65
f 66/66/66 54/54/54 58/58/58
f 58/58/58 63/63/63 66/66/66
f 62/62/62 54/54/54 67/67/67
f 67/67/67 54/54/54 66/66/66
f 36/36/36 62/62/62 68/68/68
f 67/67/67 68/68/68 62/62/62
f 69/69/69 65/65/65 61/61/61
f 61/61/61 70/70/70 69/69/69
f 69/69/69 70/70/70 71/71/71
f 65/65/65 72/72/72 64/64/64
f 63/63/63 64/64/64 72/72/72
f 72/72/72 65/65/65 69/69/69
f 66/66/66 63/63/63 73/73/73
f 72/72/72 73/73/73 63/63/63
f 68/68/68 74/74/74 36/36/36
f 16/16/16 36/36/36 74/74/74
f 75/75/75 68/68/68 67/67/67
f 74/74/74 68/68/68 75/75/75
f 66/66/66 76/76/76 67/67/67
f 73/73/73 76/76/76 66/66/66
f 67/67/67 76/76/76 75/75/75
f 71/71/71 77/77/77 69/69/69
f 77/77/77 71/71/71 78/78/78
f 69/69/69 79/79/79 72/72/72
f 73/73/73 72/72/72 79/79/79
f 79/79/79 69/69/69 77/77/77
f 74/74/74 80/80/80 16/16/16
f 16/16/16 80/80/80 18/18/18
f 81/81/81 76/76/76 73/73/73
f 76/76/76 81/81/81 75/75/75
f 79/79/79 82/82/82 73/73/73
f 73/73/73 82/82/82 81/81/81
f 77/77/77 83/83/83 79/79/79
f 82/82/82 79/79/79 83/83/83
f 78/78/78 84/84/84 77/77/77
f 83/83/83 77/77/77 84/84/84
f 80/80/80 74/74/74 85/85/85
f 75/75/75 85/85/85 74/74/74
f 18/18/18 80/80/80 86/86/86
f 85/85/85 86/86/86 80/80/80
f 86/86/86 87/87/87 18/18/18
f 88/88/88 87/87/87 86/86/86
f 89/89/89 85/85/85 75/75/75
f 86/86/86 85/85/85 89/89/89
f 75/75/75 81/81/81 89/89/89
f 86/86/86 90/90/90 88/88/88
f 89/89/89 90/90/90 86/86/86
f 91/91/91 88/88/88 90/90/90
f 92/92/92 84/84/84 78/78/78
f 78/78/78 93/93/93 92/92/92
f 90/90/90 94/94/94 91/91/91
f 95/95/95 91/91/91 94/94/94
f 90/90/90 89/89/89 96/96/96
f 96/96/96 94/94/94 90/90/90
f 89/89/89 81/81/81 97/97/97
f 97/97/97 96/96/96 89/89/89
f 96/96/96 97/97/97 98/98/98
f 99/99/99 92/92/92 93/93/93
f 93/93/93 100/100/100 99/99/99
f 92/92/92 99/99/99 101/101/101
f 102/102/102 84/84/84 92/92/92
f 84/84/84 102/102/102 83/83/83
f 94/94/94 103/103/103 95/95/95
f 104/104/104 95/95/95 103/103/103
f 103/103/103 105/105/105 104/104/104
f 106/106/106 105/105/105 103/103/103
f 94/94/94 96/96/96 107/107/107
f 107/107/107 103/103/103 94/94/94
f 103/103/103 107/107/107 106/106/106
f 98/98/98 107/107/107 96/96/96
f 108/108/108 106/106/106 107/107/107
f 107/107/107 98/98/98 108/108/108
f 101/101/101 109/109/109 92/92/92
f 92/92/92 109/109/109 102/102/102
f 110/110/110 83/83/83 102/102/102
f 83/83/83 110/110/110 82/82/82
f 81/81/81 82/82/82 110/110/110
f 110/110/110 97/97/97 81/81/81
f 102/102/102 111/111/111 110/110/110
f 97/97/97 110/110/110 111/111/111
f 111/111/111 102/102/102 109/109/109
f 111/111/111 98/98/98 97/97/97
f 112/112/112 109/109/109 101/101/101
f 109/109/109 112/112/112 111/111/111
f 112/112/112 98/98/98 111/111/111
f 101/101/101 113/113/113 112/112/112
f 114/114/114 112/112/112 113/113/113
f 98/98/98 112/112/112 114/114/114
f 113/113/113 115/115/115 114/114/114
f 114/114/114 115/115/115 116/116/116
f 114/114/114 117/117/117 98/98/98
f 116/116/116 117/117/117 114/114/114
f 108/108/108 98/98/98 117/117/117
f 117/117/117 118/118/118 108/108/108
f 118/118/118 117/117/117 116/116/116
f 116/116/116 119/119/119 118/118/118
