g tb_12_mesh
v -0.15349388 -0.30236173 -0.24518123
v -0.19849706 -0.30236173 -0.24200454
v -0.19849706 -0.26053524 -0.25418186
v -0.15349388 -0.26053524 -0.2568291
v -0.19849706 -0.21817933 -0.25735855
v -0.10796127 -0.26053524 -0.25841746
v -0.10796127 -0.30236173 -0.24676958
v -0.06295809 -0.30236173 -0.2361806
v -0.15349388 -0.21817933 -0.2568291
v -0.19849706 -0.17635286 -0.25312296
v -0.06295809 -0.26053524 -0.2557702
v -0.017954916 -0.30236173 -0.21870878
v -0.15349388 -0.17635286 -0.25047573
v -0.19849706 -0.13452639 -0.25365242
v -0.10796127 -0.21817933 -0.2568291
v -0.15349388 -0.13452639 -0.25206408
v -0.19849706 -0.09217046 -0.25524077
v -0.10796127 -0.17635286 -0.25047573
v -0.06295809 -0.21817933 -0.25629967
v -0.017954916 -0.26053524 -0.24518123
v -0.15349388 -0.09217046 -0.2568291
v -0.19849706 -0.05034399 -0.25471133
v -0.10796127 -0.13399693 -0.25365242
v 0.027577698 -0.26053524 -0.23565115
v 0.027577698 -0.30236173 -0.22029713
v 0.07258086 -0.30236173 -0.21976769
v -0.017954916 -0.21817933 -0.25735855
v -0.06295809 -0.1758234 -0.25312296
v -0.108490705 -0.09058212 -0.25947636
v -0.06295809 -0.1334675 -0.25788802
v -0.017425478 -0.1758234 -0.25947636
v 0.027577698 -0.21764988 -0.26582974
v 0.07258086 -0.26053524 -0.22929776
v 0.11811347 -0.26053524 -0.22188547
v 0.11811347 -0.30236173 -0.21870878
v 0.07258086 -0.21712044 -0.268477
v 0.027577698 -0.17476451 -0.268477
v -0.017425478 -0.13187914 -0.26371196
v 0.16311663 -0.26053524 -0.21764988
v 0.16311663 -0.30236173 -0.21817933
v 0.20811981 -0.30236173 -0.2155321
v 0.20811981 -0.25788802 -0.21712044
v 0.11811347 -0.21606153 -0.26371196
v 0.16311663 -0.21394375 -0.25735855
v 0.20811981 -0.21394375 -0.24729903
v 0.20811981 -0.16947003 -0.24676958
v 0.07258086 -0.17317617 -0.27218312
v 0.11811347 -0.17105837 -0.27059478
v 0.16311663 -0.16947003 -0.26159415
v 0.027577698 -0.13029079 -0.268477
v 0.16311663 -0.12552576 -0.26688865
v 0.20811981 -0.12552576 -0.25206408
v 0.20811981 -0.081052035 -0.2610647
v 0.11811347 -0.12605521 -0.27165368
v 0.07258086 -0.12764356 -0.27165368
v 0.16311663 -0.081052035 -0.26900643
v 0.16311663 -0.037107766 -0.26582974
v 0.20811981 -0.037107766 -0.2568291
v 0.20811981 0.007365942 -0.24412233
v 0.11811347 -0.07946369 -0.26900643
v 0.0731103 -0.07999314 -0.26794755
v 0.028107136 -0.08316983 -0.2674181
v -0.017425478 -0.086875975 -0.26582974
v -0.06295809 -0.08899377 -0.26212358
v 0.16311663 0.025896668 -0.25418186
v 0.21659099 0.10690236 -0.2663592
v 0.23565115 0.034897298 -0.21659099
v 0.26371196 0.062428653 -0.22241493
v 0.26371196 0.10690236 -0.25100517
v 0.119172364 -0.02704823 -0.27112424
v 0.21659099 0.15084663 -0.2653003
v 0.26371196 0.15084663 -0.25100517
v 0.0741692 -0.025989354 -0.27324203
v 0.21659099 0.19532034 -0.2372395
v 0.26371196 0.19532034 -0.22929776
v 0.03022492 -0.037637204 -0.27324203
v 0.21659099 0.2392646 -0.15782215
v 0.26371196 0.2392646 -0.16046938
v 0.16947003 0.19532034 -0.23988675
v 0.16947003 0.2392646 -0.1509393
v 0.17158782 0.15243497 -0.27165368
v 0.12234905 0.19532034 -0.23247445
v 0.12234905 0.2392646 -0.14458592
v 0.17370562 0.12543309 -0.27483037
v 0.12552576 0.14978772 -0.27483037
v 0.13770308 0.09790173 -0.27641872
v 0.075228095 0.19532034 -0.2308861
v 0.075228095 0.2392646 -0.13929144
v 0.07734589 0.14766994 -0.27641872
v 0.0784048 0.096842825 -0.27959543
v 0.12552576 0.034897298 -0.26477084
v 0.076287 0.038073987 -0.27483037
v 0.02704823 0.042309582 -0.28224266
v 0.028107136 0.19532034 -0.22241493
v 0.028107136 0.2392646 -0.13293804
v 0.029695481 0.14819938 -0.27535984
v 0.029166043 0.09896064 -0.28277212
v -0.018484384 0.19532034 -0.22082658
v -0.018484384 0.2392646 -0.13240859
v -0.013189882 0.14396378 -0.27694818
v -0.016366571 0.10107842 -0.28541934
v -0.06560534 0.19532034 -0.22082658
v -0.06560534 0.2392646 -0.14193867
v -0.1127263 0.2392646 -0.16788168
v -0.13866931 0.2138511 -0.21923822
v -0.021661073 0.052369118 -0.28541934
v -0.065075904 0.1365515 -0.27853653
v -0.11960915 0.14237544 -0.27588928
v -0.1646123 0.18843752 -0.24306343
v -0.050251305 0.10319623 -0.2859488
v -0.12913921 0.13284537 -0.27959543
v -0.19108477 0.16302395 -0.25735855
v -0.10319623 0.105843455 -0.2848899
v -0.07407653 0.06931147 -0.28700772
v -0.12437418 0.08572441 -0.28700772
v -0.15296444 0.09260723 -0.28647825
v -0.15772948 0.05183968 -0.2848899
v -0.19849706 0.09578395 -0.2859488
v -0.21702778 0.1376104 -0.26900643
v -0.21702778 0.09578395 -0.2859488
v -0.21702778 0.053428024 -0.28436047
v -0.12066805 0.05501637 -0.2859488
v -0.076723784 0.01371935 -0.27906597
v -0.19849706 0.053428024 -0.2848899
v -0.19849706 0.011072099 -0.26794755
v -0.21702778 0.011072099 -0.26582974
v -0.21702778 -0.031283826 -0.25365242
v -0.11643246 0.008424848 -0.2727126
v -0.15667057 0.005248159 -0.268477
v -0.15349388 -0.05034399 -0.25788802
v -0.11113796 -0.043461144 -0.26212358
v -0.06295809 -0.043990612 -0.26582974
v -0.038603455 0.004718691 -0.27588928
v -0.017954916 -0.037637204 -0.268477
vt 0.9995282 0.2868856
vt 0.9995282 0.30377287
vt 0.9691311 0.30377287
vt 0.9691311 0.2868856
vt 0.93873405 0.30377287
vt 0.9691311 0.2699983
vt 0.9995282 0.2699983
vt 0.9995282 0.25311106
vt 0.93873405 0.2868856
vt 0.91171443 0.30377287
vt 0.9691311 0.25311106
vt 0.9995282 0.23960125
vt 0.91171443 0.2868856
vt 0.8813174 0.30377287
vt 0.93873405 0.2699983
vt 0.8813174 0.2868856
vt 0.85092026 0.30377287
vt 0.91171443 0.2699983
vt 0.93873405 0.25311106
vt 0.9691311 0.23960125
vt 0.85092026 0.2868856
vt 0.8205232 0.30377287
vt 0.8813174 0.2699983
vt 0.9691311 0.22271398
vt 0.9995282 0.22271398
vt 0.9995282 0.20582671
vt 0.93873405 0.23960125
vt 0.91171443 0.25311106
vt 0.85092026 0.2699983
vt 0.8813174 0.25311106
vt 0.91171443 0.23960125
vt 0.93873405 0.22271398
vt 0.9691311 0.20582671
vt 0.9691311 0.18893945
vt 0.9995282 0.18893945
vt 0.93873405 0.20582671
vt 0.908337 0.22271398
vt 0.8779399 0.23960125
vt 0.9691311 0.17542964
vt 0.9995282 0.17542964
vt 0.9995282 0.15854236
vt 0.9691311 0.15854236
vt 0.93873405 0.18893945
vt 0.93873405 0.17542964
vt 0.93873405 0.15854236
vt 0.9049595 0.15854236
vt 0.908337 0.20582671
vt 0.908337 0.18893945
vt 0.9049595 0.17542964
vt 0.8779399 0.22271398
vt 0.87456244 0.17542964
vt 0.87456244 0.15854236
vt 0.8441654 0.15854236
vt 0.87456244 0.18893945
vt 0.87456244 0.20582671
vt 0.8441654 0.17542964
vt 0.81376827 0.17542964
vt 0.81376827 0.15854236
vt 0.7799938 0.15854236
vt 0.8407879 0.18893945
vt 0.8441654 0.20582671
vt 0.8441654 0.22271398
vt 0.8475428 0.23960125
vt 0.8475428 0.25311106
vt 0.76648396 0.17542964
vt 0.71244466 0.15516491
vt 0.76310647 0.14841
vt 0.7428418 0.13827765
vt 0.71244466 0.13827765
vt 0.8070134 0.18893945
vt 0.67867017 0.15516491
vt 0.67867017 0.13827765
vt 0.8036359 0.20582671
vt 0.64827305 0.15516491
vt 0.64827305 0.13827765
vt 0.81376827 0.22271398
vt 0.617876 0.15516491
vt 0.617876 0.13827765
vt 0.64827305 0.17205217
vt 0.617876 0.17205217
vt 0.67867017 0.17205217
vt 0.64827305 0.18893945
vt 0.617876 0.18893945
vt 0.69893485 0.16867472
vt 0.6820476 0.18893945
vt 0.71582216 0.18218455
vt 0.64827305 0.20582671
vt 0.617876 0.20582671
vt 0.6820476 0.20582671
vt 0.7191996 0.20582671
vt 0.76310647 0.18893945
vt 0.759729 0.20582671
vt 0.7563516 0.22271398
vt 0.64827305 0.22271398
vt 0.617876 0.22271398
vt 0.6820476 0.22271398
vt 0.71582216 0.22271398
vt 0.64827305 0.23960125
vt 0.617876 0.23960125
vt 0.68542504 0.23622379
vt 0.71582216 0.23622379
vt 0.64827305 0.2564885
vt 0.617876 0.2564885
vt 0.617876 0.27337578
vt 0.63476324 0.28013068
vt 0.74959666 0.23960125
vt 0.68880254 0.2564885
vt 0.68542504 0.27337578
vt 0.65165055 0.29026306
vt 0.71244466 0.2497336
vt 0.69218 0.27675325
vt 0.67191523 0.3003954
vt 0.71244466 0.2699983
vt 0.73608685 0.25986597
vt 0.7259545 0.27675325
vt 0.7191996 0.2868856
vt 0.74959666 0.2868856
vt 0.7191996 0.30377287
vt 0.68880254 0.31052774
vt 0.7191996 0.31052774
vt 0.74959666 0.31052774
vt 0.7462192 0.27337578
vt 0.7766163 0.25986597
vt 0.74959666 0.30377287
vt 0.7799938 0.30377287
vt 0.7799938 0.31052774
vt 0.8070134 0.31052774
vt 0.7799938 0.27337578
vt 0.7833712 0.2868856
vt 0.8205232 0.2868856
vt 0.81714576 0.2699983
vt 0.81714576 0.25311106
vt 0.7833712 0.24635616
vt 0.81376827 0.23960125
vn 0.05456841 0.25850528 0.96446735
vn 0.07865101 0.28258795 0.95601153
vn 0.05456841 0.162175 0.985252
vn 0.030485809 0.13809234 0.98995006
vn 0.006403208 -0.030485809 0.9995147
vn -0.041761994 0.13809234 0.9895385
vn -0.08992714 0.28258795 0.95501685
vn -0.23442274 0.37891823 0.89524686
vn -0.017679393 -0.07865101 0.9967454
vn -0.041761994 -0.05456841 0.9976363
vn -0.13809234 0.23442274 0.96227676
vn -0.162175 0.4511661 0.877581
vn -0.017679393 -0.05456841 0.9983535
vn -0.041761994 0.041761994 0.99825436
vn -0.017679393 -0.10273361 0.9945518
vn 0.006403208 0.065844536 0.99780935
vn 0.006403208 0.017679393 0.9998232
vn 0.030485809 -0.030485809 0.9990702
vn -0.017679393 -0.006403208 0.9998232
vn -0.162175 0.37891823 0.9111094
vn 0.05456841 0.065844536 0.99633664
vn 0.10273361 0.1140098 0.98815364
vn 0.05456841 0.1140098 0.99197984
vn -0.065844536 0.4511661 0.8900077
vn 0.006403208 0.33075315 0.9436956
vn -0.08992714 0.21034008 0.9734835
vn 0.07865101 0.18625754 0.9793478
vn 0.07865101 0.017679393 0.9967454
vn 0.05456841 0.08992714 0.9944523
vn 0.10273361 0.1140098 0.98815364
vn 0.17498136 0.08992714 0.98045635
vn 0.10273361 0.3548357 0.92926717
vn -0.1140098 0.4511661 0.88512766
vn -0.08992714 0.4030009 0.9107708
vn -0.041761994 0.041761994 0.99825436
vn -0.017679393 0.4030009 0.9150288
vn 0.12681621 0.041761994 0.9910467
vn 0.12681621 0.065844536 0.9897384
vn -0.065844536 0.3548357 0.9326072
vn -0.041761994 -0.006403208 0.99910706
vn -0.041761994 0.017679393 0.99897116
vn -0.065844536 0.3548357 0.9326072
vn -0.1140098 0.42708343 0.89699584
vn -0.18625754 0.3548357 0.91618764
vn -0.21034008 0.28258795 0.93589586
vn -0.28258795 0.065844536 0.95697886
vn 0.006403208 0.041761994 0.99910706
vn -0.1140098 0.065844536 0.9912952
vn -0.23442274 0.08992714 0.96796644
vn 0.07865101 -0.006403208 0.9968816
vn -0.18625754 0.1140098 0.9758637
vn -0.3066705 0.162175 0.9378979
vn -0.21034008 0.017679393 0.9774684
vn -0.041761994 -0.006403208 0.99910706
vn 0.030485809 -0.030485809 0.9990702
vn -0.08992714 -0.030485809 0.99548167
vn -0.162175 -0.12681621 0.97857904
vn -0.18625754 -0.17498136 0.9667935
vn -0.37891823 0.017679393 0.92526126
vn -0.017679393 -0.006403208 0.9998232
vn 0.006403208 0.017679393 0.9998232
vn 0.030485809 0.041761994 0.99866235
vn 0.05456841 0.041761994 0.9976363
vn 0.07865101 0.08992714 0.9928379
vn -0.21034008 0.065844536 0.9754084
vn -0.28258795 0.162175 0.9454329
vn -0.61974424 0.33075315 0.7117018
vn -0.3066705 0.4993313 0.8103218
vn -0.28258795 0.28258795 0.91667235
vn -0.1140098 -0.030485809 0.9930118
vn -0.23442274 -0.27131176 0.9335073
vn -0.25850528 -0.24722916 0.93383765
vn -0.041761994 0.065844536 0.9969556
vn -0.1140098 -0.72888106 0.6750809
vn -0.1140098 -0.70479846 0.7001863
vn 0.030485809 0.13809234 0.98995006
vn 0.006403208 -0.8733766 0.4870034
vn 0.030485809 -0.849294 0.52703923
vn 0.030485809 -0.77704626 0.62870485
vn 0.05456841 -0.8974592 0.43770906
vn -0.08992714 -0.3676421 0.92560923
vn 0.05456841 -0.80112886 0.595999
vn 0.05456841 -0.8974592 0.43770906
vn -0.1140098 -0.006403208 0.993459
vn -0.017679393 -0.3676421 0.9297993
vn -0.08992714 0.1140098 0.9894013
vn 0.05456841 -0.80112886 0.595999
vn 0.05456841 -0.8974592 0.43770906
vn -0.017679393 -0.41580734 0.9092809
vn -0.08992714 0.017679393 0.9957914
vn -0.21034008 0.065844536 0.9754084
vn -0.162175 0.041761994 0.9858779
vn -0.065844536 0.065844536 0.99565506
vn 0.05456841 -0.8252114 0.56218183
vn 0.030485809 -0.8974592 0.44004273
vn 0.030485809 -0.4639725 0.8853249
vn -0.041761994 -0.05456841 0.9976363
vn 0.006403208 -0.8252114 0.5647877
vn -0.041761994 -0.8974592 0.439116
vn 0.030485809 -0.4880551 0.87228024
vn -0.041761994 -0.10273361 0.9938318
vn -0.08992714 -0.77704626 0.6229865
vn -0.162175 -0.849294 0.50239325
vn -0.23442274 -0.849294 0.4730176
vn -0.162175 -0.72888106 0.6651554
vn -0.017679393 0.08992714 0.9957914
vn 0.006403208 -0.4639725 0.8858264
vn -0.017679393 -0.4880551 0.87263376
vn -0.017679393 -0.5843855 0.8112835
vn -0.017679393 -0.12681621 0.99176866
vn 0.05456841 -0.31947696 0.94602156
vn 0.05456841 -0.4398899 0.8963923
vn 0.006403208 -0.15089881 0.9885285
vn 0.006403208 0.041761994 0.99910706
vn 0.006403208 -0.05456841 0.9984895
vn 0.030485809 -0.12681621 0.99145764
vn 0.030485809 0.18625754 0.9820279
vn 0.006403208 -0.17498136 0.9845509
vn -0.041761994 -0.3917247 0.9191342
vn 0.006403208 -0.17498136 0.9845509
vn 0.030485809 0.21034008 0.9771528
vn 0.006403208 0.13809234 0.99039865
vn 0.030485809 0.21034008 0.9771528
vn 0.030485809 0.21034008 0.9771528
vn 0.07865101 0.3066705 0.9485606
vn 0.10273361 0.33075315 0.9381088
vn 0.24722916 0.21034008 0.9458513
vn 0.07865101 0.25850528 0.9628027
vn 0.07865101 0.25850528 0.9628027
vn 0.07865101 0.1140098 0.99036145
vn 0.07865101 0.13809234 0.9872915
vn 0.05456841 0.13809234 0.98891497
vn 0.030485809 0.18625754 0.9820279
vn 0.05456841 0.13809234 0.98891497
g tb_12_mesh_0
f 3/3/3 2/2/2 1/1/1
f 1/1/1 4/4/4 3/3/3
f 5/5/5 3/3/3 4/4/4
f 6/6/6 4/4/4 1/1/1
f 1/1/1 7/7/7 6/6/6
f 6/6/6 7/7/7 8/8/8
f 4/4/4 9/9/9 5/5/5
f 9/9/9 4/4/4 6/6/6
f 10/10/10 5/5/5 9/9/9
f 8/8/8 11/11/11 6/6/6
f 11/11/11 8/8/8 12/12/12
f 9/9/9 13/13/13 10/10/10
f 14/14/14 10/10/10 13/13/13
f 6/6/6 15/15/15 9/9/9
f 15/15/15 6/6/6 11/11/11
f 13/13/13 9/9/9 15/15/15
f 13/13/13 16/16/16 14/14/14
f 17/17/17 14/14/14 16/16/16
f 15/15/15 18/18/18 13/13/13
f 16/16/16 13/13/13 18/18/18
f 11/11/11 19/19/19 15/15/15
f 18/18/18 15/15/15 19/19/19
f 12/12/12 20/20/20 11/11/11
f 19/19/19 11/11/11 20/20/20
f 16/16/16 21/21/21 17/17/17
f 22/22/22 17/17/17 21/21/21
f 18/18/18 23/23/23 16/16/16
f 21/21/21 16/16/16 23/23/23
f 24/24/24 20/20/20 12/12/12
f 12/12/12 25/25/25 24/24/24
f 24/24/24 25/25/25 26/26/26
f 20/20/20 27/27/27 19/19/19
f 27/27/27 20/20/20 24/24/24
f 19/19/19 28/28/28 18/18/18
f 23/23/23 18/18/18 28/28/28
f 28/28/28 19/19/19 27/27/27
f 23/23/23 29/29/29 21/21/21
f 28/28/28 30/30/30 23/23/23
f 29/29/29 23/23/23 30/30/30
f 27/27/27 31/31/31 28/28/28
f 30/30/30 28/28/28 31/31/31
f 24/24/24 32/32/32 27/27/27
f 31/31/31 27/27/27 32/32/32
f 26/26/26 33/33/33 24/24/24
f 32/32/32 24/24/24 33/33/33
f 34/34/34 33/33/33 26/26/26
f 26/26/26 35/35/35 34/34/34
f 33/33/33 36/36/36 32/32/32
f 36/36/36 33/33/33 34/34/34
f 32/32/32 37/37/37 31/31/31
f 37/37/37 32/32/32 36/36/36
f 31/31/31 38/38/38 30/30/30
f 38/38/38 31/31/31 37/37/37
f 39/39/39 34/34/34 35/35/35
f 35/35/35 40/40/40 39/39/39
f 39/39/39 40/40/40 41/41/41
f 41/41/41 42/42/42 39/39/39
f 34/34/34 43/43/43 36/36/36
f 43/43/43 34/34/34 39/39/39
f 44/44/44 39/39/39 42/42/42
f 39/39/39 44/44/44 43/43/43
f 42/42/42 45/45/45 44/44/44
f 44/44/44 45/45/45 46/46/46
f 36/36/36 47/47/47 37/37/37
f 47/47/47 36/36/36 43/43/43
f 48/48/48 43/43/43 44/44/44
f 43/43/43 48/48/48 47/47/47
f 46/46/46 49/49/49 44/44/44
f 44/44/44 49/49/49 48/48/48
f 50/50/50 37/37/37 47/47/47
f 37/37/37 50/50/50 38/38/38
f 51/51/51 49/49/49 46/46/46
f 46/46/46 52/52/52 51/51/51
f 51/51/51 52/52/52 53/53/53
f 54/54/54 48/48/48 49/49/49
f 49/49/49 51/51/51 54/54/54
f 55/55/55 47/47/47 48/48/48
f 47/47/47 55/55/55 50/50/50
f 48/48/48 54/54/54 55/55/55
f 53/53/53 56/56/56 51/51/51
f 54/54/54 51/51/51 56/56/56
f 57/57/57 56/56/56 53/53/53
f 53/53/53 58/58/58 57/57/57
f 57/57/57 58/58/58 59/59/59
f 56/56/56 60/60/60 54/54/54
f 60/60/60 56/56/56 57/57/57
f 61/61/61 55/55/55 54/54/54
f 54/54/54 60/60/60 61/61/61
f 62/62/62 50/50/50 55/55/55
f 55/55/55 61/61/61 62/62/62
f 50/50/50 62/62/62 63/63/63
f 63/63/63 38/38/38 50/50/50
f 38/38/38 63/63/63 64/64/64
f 64/64/64 30/30/30 38/38/38
f 30/30/30 64/64/64 29/29/29
f 59/59/59 65/65/65 57/57/57
f 66/66/66 65/65/65 59/59/59
f 59/59/59 67/67/67 66/66/66
f 66/66/66 67/67/67 68/68/68
f 68/68/68 69/69/69 66/66/66
f 70/70/70 57/57/57 65/65/65
f 57/57/57 70/70/70 60/60/60
f 71/71/71 66/66/66 69/69/69
f 69/69/69 72/72/72 71/71/71
f 60/60/60 70/70/70 73/73/73
f 73/73/73 61/61/61 60/60/60
f 74/74/74 71/71/71 72/72/72
f 72/72/72 75/75/75 74/74/74
f 61/61/61 73/73/73 76/76/76
f 76/76/76 62/62/62 61/61/61
f 77/77/77 74/74/74 75/75/75
f 75/75/75 78/78/78 77/77/77
f 79/79/79 74/74/74 77/77/77
f 77/77/77 80/80/80 79/79/79
f 81/81/81 71/71/71 74/74/74
f 74/74/74 79/79/79 81/81/81
f 82/82/82 79/79/79 80/80/80
f 80/80/80 83/83/83 82/82/82
f 71/71/71 81/81/81 84/84/84
f 84/84/84 66/66/66 71/71/71
f 85/85/85 81/81/81 79/79/79
f 84/84/84 81/81/81 85/85/85
f 79/79/79 82/82/82 85/85/85
f 66/66/66 84/84/84 86/86/86
f 85/85/85 86/86/86 84/84/84
f 65/65/65 66/66/66 86/86/86
f 87/87/87 82/82/82 83/83/83
f 83/83/83 88/88/88 87/87/87
f 89/89/89 85/85/85 82/82/82
f 82/82/82 87/87/87 89/89/89
f 90/90/90 86/86/86 85/85/85
f 85/85/85 89/89/89 90/90/90
f 86/86/86 91/91/91 65/65/65
f 91/91/91 86/86/86 90/90/90
f 65/65/65 91/91/91 70/70/70
f 70/70/70 91/91/91 92/92/92
f 90/90/90 92/92/92 91/91/91
f 92/92/92 73/73/73 70/70/70
f 73/73/73 92/92/92 93/93/93
f 93/93/93 92/92/92 90/90/90
f 93/93/93 76/76/76 73/73/73
f 94/94/94 87/87/87 88/88/88
f 88/88/88 95/95/95 94/94/94
f 96/96/96 89/89/89 87/87/87
f 87/87/87 94/94/94 96/96/96
f 97/97/97 90/90/90 89/89/89
f 90/90/90 97/97/97 93/93/93
f 89/89/89 96/96/96 97/97/97
f 98/98/98 94/94/94 95/95/95
f 96/96/96 94/94/94 98/98/98
f 95/95/95 99/99/99 98/98/98
f 97/97/97 96/96/96 100/100/100
f 98/98/98 100/100/100 96/96/96
f 93/93/93 97/97/97 101/101/101
f 100/100/100 101/101/101 97/97/97
f 102/102/102 98/98/98 99/99/99
f 99/99/99 103/103/103 102/102/102
f 102/102/102 103/103/103 104/104/104
f 104/104/104 105/105/105 102/102/102
f 101/101/101 106/106/106 93/93/93
f 76/76/76 93/93/93 106/106/106
f 107/107/107 100/100/100 98/98/98
f 107/107/107 98/98/98 102/102/102
f 108/108/108 102/102/102 105/105/105
f 102/102/102 108/108/108 107/107/107
f 105/105/105 109/109/109 108/108/108
f 110/110/110 101/101/101 100/100/100
f 100/100/100 107/107/107 110/110/110
f 106/106/106 101/101/101 110/110/110
f 111/111/111 108/108/108 109/109/109
f 109/109/109 112/112/112 111/111/111
f 113/113/113 107/107/107 108/108/108
f 110/110/110 107/107/107 113/113/113
f 108/108/108 111/111/111 113/113/113
f 113/113/113 114/114/114 110/110/110
f 110/110/110 114/114/114 106/106/106
f 115/115/115 113/113/113 111/111/111
f 114/114/114 113/113/113 115/115/115
f 116/116/116 111/111/111 112/112/112
f 111/111/111 116/116/116 115/115/115
f 115/115/115 116/116/116 117/117/117
f 112/112/112 118/118/118 116/116/116
f 117/117/117 116/116/116 118/118/118
f 118/118/118 112/112/112 119/119/119
f 119/119/119 120/120/120 118/118/118
f 118/118/118 120/120/120 121/121/121
f 115/115/115 122/122/122 114/114/114
f 117/117/117 122/122/122 115/115/115
f 106/106/106 114/114/114 123/123/123
f 123/123/123 114/114/114 122/122/122
f 121/121/121 124/124/124 118/118/118
f 118/118/118 124/124/124 117/117/117
f 125/125/125 124/124/124 121/121/121
f 117/117/117 124/124/124 125/125/125
f 121/121/121 126/126/126 125/125/125
f 125/125/125 126/126/126 127/127/127
f 127/127/127 22/22/22 125/125/125
f 128/128/128 122/122/122 117/117/117
f 122/122/122 128/128/128 123/123/123
f 125/125/125 129/129/129 117/117/117
f 129/129/129 125/125/125 22/22/22
f 117/117/117 129/129/129 128/128/128
f 22/22/22 130/130/130 129/129/129
f 128/128/128 129/129/129 130/130/130
f 21/21/21 130/130/130 22/22/22
f 130/130/130 21/21/21 29/29/29
f 29/29/29 131/131/131 130/130/130
f 130/130/130 131/131/131 128/128/128
f 131/131/131 29/29/29 64/64/64
f 128/128/128 131/131/131 132/132/132
f 64/64/64 132/132/132 131/131/131
f 132/132/132 123/123/123 128/128/128
f 132/132/132 64/64/64 63/63/63
f 123/123/123 132/132/132 133/133/133
f 123/123/123 133/133/133 106/106/106
f 106/106/106 133/133/133 76/76/76
f 63/63/63 134/134/134 132/132/132
f 133/133/133 132/132/132 134/134/134
f 134/134/134 76/76/76 133/133/133
f 134/134/134 63/63/63 62/62/62
f 62/62/62 76/76/76 134/134/134
