g tb_16_mesh
v 0.17494401 -0.21409935 -0.058482006
v 0.21409935 -0.17143008 -0.07805967
v 0.21409935 -0.21409935 -0.066513866
v 0.21409935 -0.2567686 -0.03990832
v 0.17494401 -0.2567686 -0.02535057
v 0.17494401 -0.17143008 -0.06299992
v 0.21409935 -0.12825881 -0.08558954
v 0.13578868 -0.21409935 -0.05396408
v 0.13578868 -0.2567686 -0.02334261
v 0.17494401 -0.12825881 -0.07504772
v 0.21409935 -0.08558954 -0.066011876
v 0.13578868 -0.17092809 -0.04844217
v 0.096633345 -0.21409935 -0.04794018
v 0.096633345 -0.2567686 -0.029366493
v 0.057478026 -0.21409935 -0.03438641
v 0.057478026 -0.2567686 -0.030370489
v 0.096131355 -0.17092809 -0.03840235
v 0.1347847 -0.12775682 -0.06249793
v 0.17494401 -0.08558954 -0.059485987
v 0.018322691 -0.21409935 -0.020832643
v 0.018322691 -0.2567686 -0.026856542
v 0.056976035 -0.17143008 -0.025852561
v 0.09412339 -0.12725483 -0.029366493
v -0.0057728887 -0.21409935 -0.011796802
v -0.020832628 -0.2567686 -0.01731871
v -0.052960098 -0.23066506 0.0027609468
v 0.010792822 -0.1694221 0.00025099516
v -0.026354551 -0.19753362 0.0072788596
v -0.08558953 -0.2045615 0.026354551
v -0.05848199 -0.17143008 0.036896378
v -0.117717 -0.17795596 0.014306754
v -0.027358532 -0.13629067 0.063501924
v -0.09060946 -0.14482453 0.04041031
v -0.066513866 -0.095127374 0.061493933
v -0.14984444 -0.1518524 -0.027358532
v -0.1227369 -0.11872098 -0.0087848455
v -0.18197188 -0.12574886 -0.058482006
v 0.02535057 -0.13277674 0.02484858
v -0.17444202 -0.056976035 -0.07554971
v -0.21409935 -0.0996453 -0.08659352
v -0.21409935 -0.056976035 -0.088601485
v -0.12022695 -0.06852183 -0.026856542
v -0.17444202 -0.014808744 -0.079565644
v -0.21409935 -0.014808744 -0.090107456
v 0.05446607 -0.12926279 -0.0087848455
v 0.0042669177 -0.10817915 0.07605171
v 0.03940633 -0.08408357 0.06751785
v 0.088601485 -0.07554971 -0.008282855
v -0.17444202 0.027860522 -0.08659352
v -0.21409935 0.027860522 -0.09462538
v 0.1347847 -0.08358157 -0.043422267
v 0.13729465 -0.043924257 -0.0153107345
v -0.17444202 0.0700278 -0.090107456
v -0.21409935 0.0700278 -0.095629364
v -0.17444202 0.112697065 -0.08508755
v -0.21409935 0.112697065 -0.08659352
v -0.21409935 0.15486434 -0.074545726
v -0.1347847 0.07052979 -0.079063654
v -0.13227475 0.027860522 -0.071533784
v -0.17444202 0.15486434 -0.07856166
v -0.21409935 0.19753361 -0.057478026
v -0.17444202 0.19753361 -0.063501924
v -0.13528669 0.19753361 -0.0760517
v -0.1347847 0.112697065 -0.08307958
v -0.1347847 0.15536633 -0.08408357
v -0.095629364 0.15536633 -0.07655369
v -0.095629364 0.19803563 -0.07856166
v -0.05647403 0.19803563 -0.074545726
v -0.095629364 0.112697065 -0.0705298
v -0.05597204 0.15536633 -0.06701586
v -0.016816705 0.19803563 -0.06801984
v -0.016816705 0.15586832 -0.063501924
v 0.022338614 0.19853762 -0.07805967
v -0.09462538 0.07052979 -0.06299992
v -0.05547005 0.113199055 -0.056976035
v 0.02284062 0.15586832 -0.06801984
v 0.06199594 0.19853762 -0.079565644
v -0.05547005 0.07103178 -0.04743819
v -0.05446607 0.031876445 -0.025852561
v -0.014306754 0.112697065 -0.04844217
v 0.06199594 0.15586832 -0.073039755
v 0.10165326 0.19853762 -0.073039755
v -0.014306754 0.0700278 -0.03187646
v 0.029868498 0.113701046 -0.06952581
v 0.04191628 0.062497944 -0.045430228
v -0.09261742 0.029366493 -0.050450146
v -0.08408356 -0.006776884 -0.02284062
v 0.071533784 0.11821899 -0.066513866
v -0.017318696 0.030370474 -0.0022589564
v -0.11872098 -0.019828662 -0.04241827
v -0.0750477 -0.045430228 0.009286851
v -0.049446166 -0.003262937 0.0067768693
v -0.021836638 0.003262937 0.027860522
v -0.03790036 -0.03840235 0.052960098
v 0.020330653 0.018824667 -0.00025099516
v 0.003262937 -0.020832643 0.048944175
v -0.020330638 -0.07504772 0.095629364
v 0.008282855 -0.058983997 0.08558953
v 0.04743819 -0.03940633 0.050450146
v 0.059987977 -0.004768908 -0.00025099516
v 0.0996453 -0.03087248 -0.0027609468
v 0.081573606 0.025852561 -0.03388442
v 0.11520703 -0.0007529855 -0.03187646
v 0.13980462 -0.01681672 -0.027860522
v 0.10516721 0.0765537 -0.050450146
v 0.13277674 0.033382416 -0.044426247
v 0.17494401 -0.04292026 -0.021334633
v 0.21409935 -0.04292026 -0.04743819
v 0.17494401 -0.010792822 -0.029868498
v 0.21409935 -0.00025099516 -0.043924257
v 0.17695197 0.061493933 -0.04241827
v 0.21409935 0.04292026 -0.04894416
v 0.18548584 0.07052979 -0.036896378
v 0.15737432 0.098139316 -0.04844217
v 0.14432254 0.09311941 -0.05647403
v 0.10918313 0.13779664 -0.060489967
v 0.14432254 0.13779664 -0.04944615
v 0.15737432 0.13779664 -0.043422267
v 0.15737432 0.17745396 -0.04944615
v 0.14432254 0.17745396 -0.052458107
v 0.15737432 0.21711129 -0.05647403
v 0.10918313 0.1804659 -0.0705298
v 0.14432254 0.21711129 -0.058482006
v 0.15737432 0.2567686 -0.065007895
v 0.12926279 0.22765312 -0.06751785
vt 0.14040679 0.030975996
vt 0.15461858 0.060820755
vt 0.15461858 0.030975996
vt 0.15461858 0.0011312366
vt 0.14040679 0.0011312366
vt 0.14040679 0.060820755
vt 0.15461858 0.092086695
vt 0.126195 0.030975996
vt 0.126195 0.0011312366
vt 0.14040679 0.092086695
vt 0.15461858 0.121931456
vt 0.126195 0.062241934
vt 0.1119832 0.030975996
vt 0.1119832 0.0011312366
vt 0.09777141 0.030975996
vt 0.09777141 0.0011312366
vt 0.1119832 0.062241934
vt 0.126195 0.092086695
vt 0.14040679 0.121931456
vt 0.0849808 0.030975996
vt 0.0849808 0.0011312366
vt 0.09777141 0.060820755
vt 0.1119832 0.092086695
vt 0.07645372 0.030975996
vt 0.07076901 0.0011312366
vt 0.05939958 0.019606564
vt 0.08213844 0.062241934
vt 0.06792665 0.042345427
vt 0.048030145 0.03808189
vt 0.05655722 0.060820755
vt 0.036660712 0.05655722
vt 0.06792665 0.08640198
vt 0.045187786 0.07929608
vt 0.05371486 0.11482556
vt 0.02529128 0.07503255
vt 0.033818353 0.09777141
vt 0.012500669 0.09350787
vt 0.08640198 0.08782316
vt 0.015343027 0.14182796
vt 0.0011312366 0.1119832
vt 0.0011312366 0.14182796
vt 0.035239533 0.13472207
vt 0.015343027 0.17167272
vt 0.0011312366 0.17167272
vt 0.09777141 0.09066552
vt 0.07929608 0.106298484
vt 0.092086695 0.12335263
vt 0.10914084 0.12903735
vt 0.015343027 0.20151748
vt 0.0011312366 0.20151748
vt 0.126195 0.12335263
vt 0.126195 0.15177621
vt 0.015343027 0.23136224
vt 0.0011312366 0.23136224
vt 0.015343027 0.261207
vt 0.0011312366 0.261207
vt 0.0011312366 0.29105175
vt 0.029554818 0.23136224
vt 0.030975996 0.20151748
vt 0.015343027 0.29247293
vt 0.0011312366 0.3223177
vt 0.015343027 0.3223177
vt 0.029554818 0.3223177
vt 0.029554818 0.261207
vt 0.029554818 0.29247293
vt 0.043766607 0.29247293
vt 0.043766607 0.3223177
vt 0.0579784 0.3223177
vt 0.043766607 0.26262817
vt 0.0579784 0.29247293
vt 0.07219019 0.3223177
vt 0.07219019 0.29247293
vt 0.08640198 0.3223177
vt 0.043766607 0.23278342
vt 0.0579784 0.26262817
vt 0.08640198 0.29247293
vt 0.10061377 0.3223177
vt 0.0579784 0.23278342
vt 0.0579784 0.20435984
vt 0.07219019 0.261207
vt 0.10061377 0.29247293
vt 0.11340438 0.3223177
vt 0.07219019 0.23136224
vt 0.08782316 0.26262817
vt 0.092086695 0.22567752
vt 0.045187786 0.20293866
vt 0.048030145 0.17735744
vt 0.103456125 0.26547053
vt 0.07219019 0.20435984
vt 0.035239533 0.16883036
vt 0.050872505 0.15035504
vt 0.060820755 0.1801998
vt 0.06934783 0.18446334
vt 0.06508429 0.15461858
vt 0.0849808 0.19583276
vt 0.07929608 0.16740918
vt 0.07076901 0.12903735
vt 0.080717266 0.14040679
vt 0.094929054 0.15461858
vt 0.09919259 0.17877862
vt 0.11340438 0.1603033
vt 0.106298484 0.20009631
vt 0.1190891 0.18162097
vt 0.12761617 0.17025155
vt 0.11482556 0.23704696
vt 0.124773815 0.20578101
vt 0.14040679 0.15177621
vt 0.15461858 0.15177621
vt 0.14040679 0.17451508
vt 0.15461858 0.18162097
vt 0.14040679 0.22567752
vt 0.15461858 0.21288691
vt 0.14324914 0.23278342
vt 0.13330089 0.25125876
vt 0.12903735 0.2484164
vt 0.11624674 0.27968234
vt 0.12903735 0.27968234
vt 0.13330089 0.27968234
vt 0.13330089 0.30810592
vt 0.12903735 0.30810592
vt 0.13330089 0.3351083
vt 0.11624674 0.3095271
vt 0.12903735 0.3351083
vt 0.13330089 0.3635319
vt 0.12335263 0.34363538
vn 0.17746308 0.3744617 0.91010183
vn 0.30992505 0.1757688 0.93437237
vn 0.17746308 0.39653867 0.9007019
vn 0.24369407 0.5731546 0.78237265
vn 0.15538609 0.5952317 0.7883872
vn 0.30992505 0.1316148 0.9416071
vn 0.28784806 -0.08915514 0.9535171
vn 0.15538609 0.28615373 0.9455005
vn 0.0008471608 0.5290007 0.84862095
vn 0.26577106 -0.04500115 0.9629853
vn 0.24369407 -0.464464 0.85140264
vn 0.28784806 0.06538385 0.9554415
vn 0.22161707 0.15369183 0.9629458
vn 0.0008471608 0.33030772 0.9438729
vn 0.28784806 -0.0008471608 0.9576757
vn 0.08915514 0.043306828 0.9950758
vn 0.33200204 -0.13330913 0.9338112
vn 0.42031002 -0.06707811 0.90489775
vn 0.19954008 -0.48654097 0.8505655
vn 0.33200204 -0.19954008 0.92193186
vn 0.17746308 -0.15538609 0.9717829
vn 0.42031002 -0.28784806 0.86051315
vn 0.508618 -0.24369407 0.82578504
vn 0.35407904 -0.30992505 0.8823687
vn 0.28784806 -0.22161707 0.9316809
vn 0.35407904 -0.35407904 0.8655958
vn 0.464464 -0.508618 0.72496957
vn 0.39823303 -0.48654097 0.7776171
vn -0.021229863 -0.24369407 0.96961975
vn -0.043306828 -0.48654097 0.87258375
vn -0.5952317 -0.04500115 0.802293
vn 0.06707811 -0.48654097 0.87107885
vn -0.55107766 -0.15538609 0.81985885
vn -0.5952317 0.087460816 0.7987802
vn -0.6835397 0.1316148 0.71794915
vn -0.7276936 0.21992278 0.64968914
vn -0.5952317 0.21992278 0.77287334
vn 0.552772 -0.596926 0.581483
vn -0.50692374 0.15369183 0.8481787
vn -0.44069272 0.1757688 0.8802813
vn -0.30823076 0.06538385 0.94906205
vn -0.6614626 0.28615373 0.6932411
vn -0.39653867 0.15369183 0.90506124
vn -0.2419998 0.087460816 0.9663264
vn 0.64107996 -0.35407904 0.68091446
vn 0.26577106 -0.53069496 0.8048159
vn 0.6631569 -0.24369407 0.70769775
vn 0.61900294 -0.30992505 0.72165215
vn -0.26407677 0.10953784 0.95826143
vn -0.1757688 0.06538385 0.9822577
vn 0.42031002 -0.44238698 0.79223305
vn 0.30992505 -0.1112321 0.9442319
vn -0.21992278 -0.022924125 0.9752479
vn -0.10953784 -0.06707811 0.9917167
vn -0.06538385 -0.13330913 0.9889154
vn -0.021229863 -0.24369407 0.96961975
vn 0.06707811 -0.28784806 0.95532405
vn -0.28615373 0.087460816 0.95418376
vn -0.41861576 0.2419998 0.87532675
vn 0.13330913 -0.19954008 0.9707793
vn 0.1112321 -0.33200204 0.9366974
vn 0.22161707 -0.30992505 0.92457145
vn 0.08915514 -0.15538609 0.9838224
vn -0.1316148 0.043306828 0.99035454
vn -0.021229863 -0.08915514 0.99579144
vn -0.1757688 0.06538385 0.9822577
vn -0.021229863 0.043306828 0.9988362
vn -0.15369183 0.1316148 0.9793142
vn -0.30823076 0.15369183 0.93881446
vn -0.1757688 0.1757688 0.96861273
vn 0.06707811 0.1316148 0.9890288
vn 0.022924125 0.21992278 0.9752479
vn 0.1112321 0.19784582 0.9739017
vn -0.39653867 0.21992278 0.8912862
vn -0.2419998 0.21992278 0.94502383
vn 0.15538609 0.15369183 0.9758248
vn -0.043306828 0.1757688 0.9834784
vn -0.30823076 0.35238475 0.8836395
vn -0.4627697 0.48484665 0.7421374
vn 0.06707811 0.28615373 0.9558329
vn -0.043306828 0.1316148 0.99035454
vn -0.2419998 0.087460816 0.9663264
vn -0.021229863 0.48484665 0.8743414
vn 0.17746308 0.2419998 0.95390934
vn 0.15538609 0.48484665 0.86068517
vn -0.48484665 0.35238475 0.8004678
vn -0.55107766 0.44069272 0.7085925
vn -0.1316148 0.21992278 0.9665979
vn -0.087460816 0.70561665 0.7031755
vn -0.55107766 0.30823076 0.77544
vn -0.6835397 0.41861576 0.59794176
vn -0.6173087 0.48484665 0.6195593
vn -0.21992278 0.6835397 0.6959939
vn -0.50692374 0.55107766 0.66282856
vn 0.26577106 0.6614626 0.7013081
vn 0.08915514 0.6835397 0.72444797
vn -0.19784582 0.043306828 0.97927606
vn 0.24369407 0.35238475 0.9035697
vn 0.57484895 0.44069272 0.68944806
vn 0.39823303 0.6173087 0.67848396
vn 0.48654097 0.2419998 0.8394725
vn 0.24369407 0.44069272 0.86394626
vn 0.22161707 0.44069272 0.86987114
vn 0.15538609 0.39653867 0.9047719
vn 0.022924125 0.2419998 0.97000545
vn 0.0008471608 0.2419998 0.97027594
vn 0.28784806 -0.15538609 0.94498605
vn 0.48654097 -0.15538609 0.85972846
vn 0.19954008 0.19784582 0.9597087
vn 0.30992505 0.043306828 0.9497742
vn -0.15369183 -0.022924125 0.9878529
vn 0.17746308 0.043306828 0.98317415
vn -0.26407677 -0.28784806 0.9205471
vn -0.48484665 -0.13330913 0.86437976
vn -0.21992278 0.043306828 0.97455555
vn -0.21992278 0.10953784 0.96934795
vn -0.3744617 -0.022924125 0.9269589
vn -0.44069272 -0.0008471608 0.89765763
vn -0.26407677 0.1316148 0.95547944
vn -0.30823076 0.1316148 0.9421631
vn -0.15369183 0.1757688 0.9723601
vn -0.28615373 0.1316148 0.94910145
vn -0.26407677 0.1757688 0.94835055
vn -0.26407677 0.2419998 0.9336485
vn -0.3744617 0.21992278 0.9007843
g tb_16_mesh_0
f 3/3/3 2/2/2 1/1/1
f 3/3/3 1/1/1 4/4/4
f 5/5/5 4/4/4 1/1/1
f 6/6/6 1/1/1 2/2/2
f 2/2/2 7/7/7 6/6/6
f 1/1/1 8/8/8 5/5/5
f 1/1/1 6/6/6 8/8/8
f 9/9/9 5/5/5 8/8/8
f 10/10/10 6/6/6 7/7/7
f 7/7/7 11/11/11 10/10/10
f 12/12/12 8/8/8 6/6/6
f 6/6/6 10/10/10 12/12/12
f 8/8/8 13/13/13 9/9/9
f 8/8/8 12/12/12 13/13/13
f 14/14/14 9/9/9 13/13/13
f 13/13/13 15/15/15 14/14/14
f 16/16/16 14/14/14 15/15/15
f 17/17/17 13/13/13 12/12/12
f 13/13/13 17/17/17 15/15/15
f 18/18/18 12/12/12 10/10/10
f 12/12/12 18/18/18 17/17/17
f 19/19/19 10/10/10 11/11/11
f 10/10/10 19/19/19 18/18/18
f 15/15/15 20/20/20 16/16/16
f 21/21/21 16/16/16 20/20/20
f 22/22/22 15/15/15 17/17/17
f 15/15/15 22/22/22 20/20/20
f 23/23/23 17/17/17 18/18/18
f 17/17/17 23/23/23 22/22/22
f 20/20/20 24/24/24 21/21/21
f 25/25/25 21/21/21 24/24/24
f 25/25/25 24/24/24 26/26/26
f 20/20/20 27/27/27 24/24/24
f 27/27/27 20/20/20 22/22/22
f 28/28/28 26/26/26 24/24/24
f 28/28/28 24/24/24 27/27/27
f 26/26/26 28/28/28 29/29/29
f 30/30/30 29/29/29 28/28/28
f 29/29/29 30/30/30 31/31/31
f 27/27/27 32/32/32 28/28/28
f 30/30/30 28/28/28 32/32/32
f 33/33/33 31/31/31 30/30/30
f 30/30/30 32/32/32 33/33/33
f 34/34/34 33/33/33 32/32/32
f 31/31/31 33/33/33 35/35/35
f 36/36/36 35/35/35 33/33/33
f 33/33/33 34/34/34 36/36/36
f 35/35/35 36/36/36 37/37/37
f 27/27/27 22/22/22 38/38/38
f 27/27/27 38/38/38 32/32/32
f 39/39/39 37/37/37 36/36/36
f 37/37/37 39/39/39 40/40/40
f 41/41/41 40/40/40 39/39/39
f 36/36/36 42/42/42 39/39/39
f 42/42/42 36/36/36 34/34/34
f 39/39/39 43/43/43 41/41/41
f 43/43/43 39/39/39 42/42/42
f 44/44/44 41/41/41 43/43/43
f 45/45/45 38/38/38 22/22/22
f 45/45/45 22/22/22 23/23/23
f 46/46/46 32/32/32 38/38/38
f 32/32/32 46/46/46 34/34/34
f 45/45/45 47/47/47 38/38/38
f 46/46/46 38/38/38 47/47/47
f 23/23/23 48/48/48 45/45/45
f 47/47/47 45/45/45 48/48/48
f 43/43/43 49/49/49 44/44/44
f 50/50/50 44/44/44 49/49/49
f 48/48/48 23/23/23 51/51/51
f 18/18/18 51/51/51 23/23/23
f 51/51/51 18/18/18 19/19/19
f 51/51/51 19/19/19 52/52/52
f 51/51/51 52/52/52 48/48/48
f 49/49/49 53/53/53 50/50/50
f 54/54/54 50/50/50 53/53/53
f 53/53/53 55/55/55 54/54/54
f 56/56/56 54/54/54 55/55/55
f 56/56/56 55/55/55 57/57/57
f 53/53/53 49/49/49 58/58/58
f 53/53/53 58/58/58 55/55/55
f 49/49/49 43/43/43 59/59/59
f 59/59/59 58/58/58 49/49/49
f 60/60/60 57/57/57 55/55/55
f 57/57/57 60/60/60 61/61/61
f 62/62/62 61/61/61 60/60/60
f 62/62/62 60/60/60 63/63/63
f 55/55/55 64/64/64 60/60/60
f 64/64/64 55/55/55 58/58/58
f 65/65/65 63/63/63 60/60/60
f 65/65/65 60/60/60 64/64/64
f 65/65/65 66/66/66 63/63/63
f 65/65/65 64/64/64 66/66/66
f 67/67/67 63/63/63 66/66/66
f 67/67/67 66/66/66 68/68/68
f 64/64/64 58/58/58 69/69/69
f 69/69/69 66/66/66 64/64/64
f 70/70/70 68/68/68 66/66/66
f 66/66/66 69/69/69 70/70/70
f 68/68/68 70/70/70 71/71/71
f 72/72/72 71/71/71 70/70/70
f 71/71/71 72/72/72 73/73/73
f 74/74/74 69/69/69 58/58/58
f 58/58/58 59/59/59 74/74/74
f 75/75/75 70/70/70 69/69/69
f 70/70/70 75/75/75 72/72/72
f 76/76/76 73/73/73 72/72/72
f 73/73/73 76/76/76 77/77/77
f 75/75/75 69/69/69 78/78/78
f 74/74/74 78/78/78 69/69/69
f 78/78/78 74/74/74 79/79/79
f 80/80/80 72/72/72 75/75/75
f 75/75/75 78/78/78 80/80/80
f 72/72/72 80/80/80 76/76/76
f 81/81/81 77/77/77 76/76/76
f 77/77/77 81/81/81 82/82/82
f 83/83/83 80/80/80 78/78/78
f 78/78/78 79/79/79 83/83/83
f 84/84/84 76/76/76 80/80/80
f 76/76/76 84/84/84 81/81/81
f 80/80/80 83/83/83 84/84/84
f 85/85/85 84/84/84 83/83/83
f 86/86/86 79/79/79 74/74/74
f 86/86/86 74/74/74 59/59/59
f 86/86/86 59/59/59 87/87/87
f 86/86/86 87/87/87 79/79/79
f 88/88/88 81/81/81 84/84/84
f 84/84/84 85/85/85 88/88/88
f 89/89/89 83/83/83 79/79/79
f 83/83/83 89/89/89 85/85/85
f 90/90/90 87/87/87 59/59/59
f 90/90/90 59/59/59 43/43/43
f 90/90/90 43/43/43 42/42/42
f 90/90/90 42/42/42 91/91/91
f 87/87/87 90/90/90 91/91/91
f 34/34/34 91/91/91 42/42/42
f 92/92/92 79/79/79 87/87/87
f 87/87/87 91/91/91 92/92/92
f 89/89/89 79/79/79 93/93/93
f 92/92/92 93/93/93 79/79/79
f 94/94/94 92/92/92 91/91/91
f 91/91/91 34/34/34 94/94/94
f 92/92/92 94/94/94 93/93/93
f 89/89/89 93/93/93 95/95/95
f 95/95/95 85/85/85 89/89/89
f 96/96/96 95/95/95 93/93/93
f 96/96/96 93/93/93 94/94/94
f 97/97/97 94/94/94 34/34/34
f 97/97/97 34/34/34 46/46/46
f 97/97/97 98/98/98 94/94/94
f 97/97/97 46/46/46 98/98/98
f 96/96/96 94/94/94 98/98/98
f 47/47/47 98/98/98 46/46/46
f 47/47/47 99/99/99 98/98/98
f 96/96/96 98/98/98 99/99/99
f 47/47/47 48/48/48 99/99/99
f 95/95/95 96/96/96 100/100/100
f 99/99/99 100/100/100 96/96/96
f 95/95/95 100/100/100 85/85/85
f 48/48/48 101/101/101 99/99/99
f 100/100/100 99/99/99 101/101/101
f 101/101/101 48/48/48 52/52/52
f 102/102/102 85/85/85 100/100/100
f 101/101/101 103/103/103 100/100/100
f 102/102/102 100/100/100 103/103/103
f 52/52/52 104/104/104 101/101/101
f 103/103/103 101/101/101 104/104/104
f 85/85/85 102/102/102 105/105/105
f 105/105/105 88/88/88 85/85/85
f 103/103/103 106/106/106 102/102/102
f 103/103/103 104/104/104 106/106/106
f 106/106/106 105/105/105 102/102/102
f 52/52/52 107/107/107 104/104/104
f 107/107/107 52/52/52 19/19/19
f 19/19/19 11/11/11 107/107/107
f 108/108/108 107/107/107 11/11/11
f 109/109/109 104/104/104 107/107/107
f 107/107/107 108/108/108 109/109/109
f 109/109/109 106/106/106 104/104/104
f 110/110/110 109/109/109 108/108/108
f 110/110/110 111/111/111 109/109/109
f 106/106/106 109/109/109 111/111/111
f 110/110/110 112/112/112 111/111/111
f 113/113/113 111/111/111 112/112/112
f 113/113/113 114/114/114 111/111/111
f 111/111/111 115/115/115 106/106/106
f 105/105/105 106/106/106 115/115/115
f 115/115/115 111/111/111 114/114/114
f 105/105/105 115/115/115 116/116/116
f 116/116/116 88/88/88 105/105/105
f 88/88/88 116/116/116 81/81/81
f 115/115/115 114/114/114 117/117/117
f 117/117/117 116/116/116 115/115/115
f 118/118/118 117/117/117 114/114/114
f 118/118/118 119/119/119 117/117/117
f 120/120/120 117/117/117 119/119/119
f 117/117/117 120/120/120 116/116/116
f 119/119/119 121/121/121 120/120/120
f 122/122/122 81/81/81 116/116/116
f 122/122/122 116/116/116 120/120/120
f 122/122/122 82/82/82 81/81/81
f 123/123/123 120/120/120 121/121/121
f 123/123/123 122/122/122 120/120/120
f 122/122/122 123/123/123 82/82/82
f 121/121/121 124/124/124 123/123/123
f 125/125/125 82/82/82 123/123/123
f 125/125/125 123/123/123 124/124/124
