g tb_11_mesh
v -0.16589215 0.24665344 -0.17151055
v -0.19161612 0.27297562 -0.18048403
v -0.14914167 0.2885297 -0.18108225
v -0.13717705 0.25682336 -0.1745017
v -0.09470257 0.27297562 -0.17569816
v -0.10666722 0.3046819 -0.1840734
v -0.13717705 0.19939315 -0.14279541
v -0.16589215 0.19939315 -0.14399187
v -0.058210462 0.286735 -0.17928755
v -0.06419277 0.32083416 -0.18706456
v -0.019923627 0.32083416 -0.18945749
v -0.07974678 0.21614361 -0.1517689
v -0.13717705 0.15273106 -0.13501841
v -0.16589215 0.15273106 -0.13621487
v -0.019923627 0.286735 -0.18048403
v 0.024943769 0.32083416 -0.18945749
v -0.050433427 0.24784988 -0.16911761
v 0.024943769 0.286735 -0.17809108
v 0.06921291 0.32083416 -0.18706456
v -0.019325376 0.24246585 -0.16433176
v -0.09051496 0.15452576 -0.12664317
v -0.13717705 0.106069 -0.13142902
v -0.16589215 0.106069 -0.13382193
v -0.16589215 0.059406906 -0.1517689
v -0.028298855 0.19819668 -0.13501841
v 0.06921291 0.286735 -0.17151055
v 0.11348206 0.32083416 -0.18347517
v -0.041459948 0.15153459 -0.12125908
v -0.095899045 0.106069 -0.12724139
v 0.11348206 0.286735 -0.16253707
v 0.1577512 0.32083416 -0.17749286
v -0.05103168 0.104872525 -0.12484847
v 0.1577512 0.286735 -0.15356359
v 0.2026186 0.32083416 -0.16971585
v 0.2026186 0.286735 -0.15296535
v 0.24688774 0.32083416 -0.15715298
v 0.1577512 0.23827821 -0.1386078
v 0.11348206 0.23827821 -0.14877774
v 0.24688774 0.286735 -0.14159895
v 0.2911569 0.32083416 -0.13800956
v 0.2911569 0.27776152 -0.12425023
v 0.2026186 0.23767996 -0.12544669
v 0.24688774 0.23468882 -0.13382193
v 0.2911569 0.23468882 -0.13322371
v 0.2911569 0.19161612 -0.1404025
v 0.1577512 0.19281259 -0.13800956
v 0.06861468 0.23887646 -0.15356359
v 0.2026186 0.19221437 -0.1386078
v 0.24688774 0.19161612 -0.13920602
v 0.2911569 0.14854345 -0.13142902
v 0.112883836 0.19281259 -0.1368131
v 0.023747295 0.23947465 -0.16014414
v 0.1577512 0.14854345 -0.1218573
v 0.20202036 0.14854345 -0.123651996
v 0.24688774 0.14854345 -0.12664317
v 0.2911569 0.10547075 -0.11826791
v 0.06741822 0.19281259 -0.13501841
v 0.019559681 0.19400907 -0.13322371
v 0.20202036 0.10547075 -0.10690151
v 0.24688774 0.10547075 -0.11168736
v 0.2911569 0.062398076 -0.10809797
v 0.24688774 0.062398076 -0.10271388
v 0.2911569 0.019325376 -0.10271388
v 0.112883836 0.14854345 -0.120062605
v 0.06442706 0.14914167 -0.11826791
v 0.012380898 0.14914167 -0.118866146
v 0.1577512 0.10547075 -0.10869621
v 0.24688774 0.019325376 -0.1009192
v 0.2911569 -0.023747295 -0.10271388
v 0.20142213 0.061201602 -0.100320965
v 0.06921291 0.10547075 -0.11826791
v -0.0019766688 0.1042743 -0.123651996
v 0.112883836 0.10547075 -0.112883836
v 0.15535828 0.06060338 -0.10570505
v 0.24688774 -0.023747295 -0.10450858
v 0.2911569 -0.06681998 -0.106303275
v 0.25705767 -0.100320965 -0.10869621
v 0.2008239 0.01753068 -0.10331212
v 0.20142213 -0.00998798 -0.10809797
v 0.17569816 -0.11348206 -0.112883836
v 0.22295848 -0.13322371 -0.10869621
v 0.1463848 0.007958978 -0.11647321
v 0.15834944 -0.047676563 -0.123651996
v 0.11108914 0.061799824 -0.115276754
v 0.17569816 -0.16851938 -0.11108914
v 0.22295848 -0.16851938 -0.114080295
v 0.22295848 -0.20321682 -0.13262548
v 0.17569816 -0.20321682 -0.12783962
v 0.06921291 0.062398076 -0.12425023
v 0.1009192 0.02052185 -0.12604493
v 0.13920602 -0.11108914 -0.11467853
v 0.12843786 -0.16851938 -0.10869621
v 0.12843786 -0.20321682 -0.12245554
v 0.08117755 -0.20321682 -0.12125908
v 0.021354377 0.059406906 -0.13442017
v 0.09194572 -0.023149073 -0.13501841
v 0.06263237 0.021718323 -0.13442017
v 0.08955279 -0.06741822 -0.12783962
v 0.085365176 -0.11707145 -0.11168736
v 0.08117755 -0.16851938 -0.10809797
v 0.03391725 -0.20321682 -0.12245554
v 0.03391725 -0.16851938 -0.10989267
v -0.013343066 -0.20321682 -0.13023254
v 0.035711944 -0.026140213 -0.13980426
v 0.020756155 0.01753068 -0.14399187
v 0.033318996 -0.07818639 -0.123053774
v -0.013343066 -0.16851938 -0.11587499
v -0.06060338 -0.20321682 -0.15117066
v 0.033318996 -0.12245554 -0.109294444
v -0.021120071 -0.039301336 -0.13741133
v -0.01453954 0.058210462 -0.1386078
v -0.019923627 -0.086561635 -0.11826791
v -0.02052185 0.010351896 -0.15117066
v -0.05701399 0.058210462 -0.14279541
v -0.062398076 0.01154837 -0.15416183
v -0.098890215 0.059406906 -0.14578657
v -0.10128313 0.015137762 -0.15655474
v -0.13717705 0.059406906 -0.14937596
v -0.13717705 0.012146592 -0.15715298
v -0.16589215 0.012146592 -0.1595459
v -0.07555917 -0.039301336 -0.13800956
v -0.1042743 -0.014175594 -0.15057243
v -0.13717705 -0.024345517 -0.14877774
v -0.16589215 -0.03451547 -0.14937596
v -0.14016819 -0.065025285 -0.13501841
v -0.11205131 -0.054855347 -0.13442017
v -0.06957686 -0.09314218 -0.118866146
v -0.11205131 -0.101517424 -0.123053774
v -0.14016819 -0.101517424 -0.12724139
v -0.018128932 -0.12903608 -0.11168736
v -0.06778216 -0.1368131 -0.11766969
v -0.11205131 -0.1386078 -0.12783962
v -0.14016819 -0.1386078 -0.13561663
v -0.14016819 -0.17509994 -0.15834944
v -0.10367605 -0.20560974 -0.17330524
v -0.14016819 -0.2121903 -0.19783273
v -0.11982831 -0.22714609 -0.20860091
v -0.10008666 -0.24270011 -0.21278852
v -0.080345035 -0.22295848 -0.18526986
v -0.072568 -0.1745017 -0.13262548
vt 0.28709733 0.3116995
vt 0.26817256 0.3211619
vt 0.2568177 0.3060221
vt 0.27952743 0.30034465
vt 0.26817256 0.28520483
vt 0.24546283 0.2908823
vt 0.31926942 0.30034465
vt 0.31926942 0.3116995
vt 0.2568177 0.27385
vt 0.23410797 0.27574247
vt 0.23410797 0.25871018
vt 0.30791456 0.28141987
vt 0.353334 0.30034465
vt 0.353334 0.3116995
vt 0.2568177 0.25871018
vt 0.23410797 0.24357036
vt 0.28520483 0.27006504
vt 0.2568177 0.24357036
vt 0.23410797 0.22843055
vt 0.28898978 0.25871018
vt 0.35144153 0.28520483
vt 0.3855061 0.30034465
vt 0.3855061 0.3116995
vt 0.41767818 0.3116995
vt 0.3211619 0.26249513
vt 0.2568177 0.22843055
vt 0.23410797 0.21139826
vt 0.353334 0.26628008
vt 0.3855061 0.28709733
vt 0.2568177 0.21139826
vt 0.23410797 0.19625846
vt 0.3855061 0.27006504
vt 0.2568177 0.19625846
vt 0.23410797 0.18111864
vt 0.2568177 0.18111864
vt 0.23410797 0.16408636
vt 0.29277474 0.19625846
vt 0.29277474 0.21139826
vt 0.2568177 0.16408636
vt 0.23410797 0.14894654
vt 0.2643876 0.14894654
vt 0.29277474 0.18111864
vt 0.29466724 0.16408636
vt 0.29466724 0.14894654
vt 0.32494685 0.14894654
vt 0.32494685 0.19625846
vt 0.29277474 0.22843055
vt 0.32494685 0.18111864
vt 0.32494685 0.16408636
vt 0.35522646 0.14894654
vt 0.32494685 0.21139826
vt 0.2908823 0.24357036
vt 0.35522646 0.19625846
vt 0.35522646 0.18111864
vt 0.35522646 0.16408636
vt 0.3855061 0.14894654
vt 0.32494685 0.22843055
vt 0.32305437 0.24546283
vt 0.3855061 0.18111864
vt 0.3855061 0.16408636
vt 0.41578573 0.14894654
vt 0.41578573 0.16408636
vt 0.44606537 0.14894654
vt 0.35522646 0.21329075
vt 0.35522646 0.23032303
vt 0.35522646 0.24735531
vt 0.3855061 0.19625846
vt 0.44606537 0.16408636
vt 0.476345 0.14894654
vt 0.41767818 0.18111864
vt 0.3855061 0.22843055
vt 0.3873986 0.25303274
vt 0.3855061 0.21329075
vt 0.41767818 0.19625846
vt 0.476345 0.16408636
vt 0.5066246 0.14894654
vt 0.5312268 0.1603014
vt 0.4479578 0.18111864
vt 0.4668826 0.18111864
vt 0.5406892 0.19058102
vt 0.55393654 0.17354873
vt 0.45552772 0.20004341
vt 0.49337727 0.19625846
vt 0.41767818 0.21329075
vt 0.5785387 0.19058102
vt 0.5785387 0.17354873
vt 0.6031409 0.17354873
vt 0.6031409 0.19058102
vt 0.41578573 0.22843055
vt 0.44606537 0.21707569
vt 0.5387967 0.20382836
vt 0.5785387 0.20761332
vt 0.6031409 0.20761332
vt 0.6031409 0.22275312
vt 0.41767818 0.24546283
vt 0.476345 0.21896817
vt 0.44417286 0.23032303
vt 0.5085171 0.22086065
vt 0.5425817 0.22275312
vt 0.5785387 0.22275312
vt 0.6031409 0.2397854
vt 0.5785387 0.2397854
vt 0.6031409 0.2568177
vt 0.47823745 0.2397854
vt 0.4479578 0.24546283
vt 0.516087 0.2397854
vt 0.5785387 0.2568177
vt 0.6031409 0.27385
vt 0.54636663 0.2397854
vt 0.4876998 0.26060265
vt 0.41957068 0.2568177
vt 0.5217644 0.25871018
vt 0.45363528 0.26060265
vt 0.41957068 0.27195752
vt 0.45174277 0.27385
vt 0.41767818 0.28709733
vt 0.44985032 0.28898978
vt 0.41767818 0.30034465
vt 0.45174277 0.30034465
vt 0.45174277 0.3116995
vt 0.4876998 0.27952743
vt 0.47066754 0.28898978
vt 0.47823745 0.30034465
vt 0.4839149 0.3116995
vt 0.5066246 0.30223715
vt 0.49905467 0.29277474
vt 0.52554935 0.27763495
vt 0.5312268 0.29277474
vt 0.5312268 0.30223715
vt 0.55204403 0.25871018
vt 0.555829 0.27574247
vt 0.5577215 0.29277474
vt 0.5577215 0.30223715
vt 0.5842161 0.30223715
vt 0.6050334 0.28898978
vt 0.6107108 0.30223715
vt 0.6201732 0.29466724
vt 0.6315281 0.28709733
vt 0.6182807 0.28141987
vt 0.5842161 0.27763495
vn -0.048041344 0.3776433 0.9247041
vn -0.089241564 0.25404257 0.9630671
vn -0.027441204 0.23344243 0.9719834
vn -0.027441204 0.336443 0.9413039
vn -0.027441204 0.29524285 0.95502806
vn -0.027441204 0.23344243 0.9719834
vn -0.027441204 0.3570432 0.9336847
vn -0.027441204 0.336443 0.9413039
vn 0.013759017 0.25404257 0.96709514
vn 0.013759017 0.23344243 0.9722733
vn 0.013759017 0.25404257 0.96709514
vn -0.048041344 0.41884357 0.9067867
vn -0.089241564 0.109841704 0.98993474
vn -0.048041344 0.109841704 0.9927874
vn -0.006841123 0.29524285 0.9553978
vn -0.027441204 0.29524285 0.95502806
vn -0.006841123 0.3982435 0.9172542
vn -0.089241564 0.336443 0.9374657
vn -0.089241564 0.3982435 0.9129283
vn -0.048041344 0.46004385 0.88659555
vn -0.089241564 0.17164207 0.981109
vn -0.089241564 -0.15795988 0.9834046
vn -0.068641484 -0.15795988 0.9850569
vn -0.089241564 -0.2609605 0.9612157
vn -0.068641484 0.41884357 0.90546036
vn -0.13044184 0.3776433 0.9167172
vn -0.13044184 0.501244 0.85541767
vn -0.089241564 0.13044184 0.9874314
vn -0.089241564 -0.17856002 0.9798736
vn -0.17164207 0.41884357 0.8916889
vn -0.15104198 0.56304437 0.8125068
vn -0.048041344 -0.19916016 0.9787887
vn -0.109841704 0.41884357 0.90139055
vn -0.15104198 0.48064393 0.86381
vn -0.15104198 0.43944365 0.88548046
vn -0.29524285 0.3982435 0.8684663
vn -0.21284235 0.17164207 0.9618925
vn -0.13044184 0.23344243 0.9635816
vn -0.23344243 0.31584293 0.91964555
vn -0.336443 0.336443 0.8795523
vn -0.23344243 0.13044184 0.9635816
vn -0.068641484 0.109841704 0.99157614
vn 0.013759017 -0.054959297 0.9983938
vn -0.006841123 -0.17856002 0.98390526
vn 0.013759017 0.027441204 0.9995287
vn -0.048041344 0.17164207 0.98398733
vn -0.089241564 0.3570432 0.92981505
vn 0.034359157 0.048041344 0.99825424
vn 0.034359157 0.068641484 0.99704957
vn 0.07555938 0.25404257 0.9642371
vn 0.013759017 0.31584293 0.9487117
vn -0.068641484 0.41884357 0.90546036
vn 0.013759017 0.31584293 0.9487117
vn 0.054959297 0.336443 0.9400987
vn 0.09615952 0.29524285 0.9505709
vn 0.11675966 0.27464265 0.954431
vn 0.034359157 0.3776433 0.9253135
vn 0.013759017 0.41884357 0.90795416
vn 0.034359157 0.25404257 0.96658254
vn 0.11675966 0.27464265 0.954431
vn 0.13735974 0.17164207 0.9755364
vn 0.07555938 0.13044184 0.98857254
vn 0.07555938 0.048041344 0.99598336
vn -0.006841123 0.25404257 0.96716887
vn 0.013759017 0.17164207 0.98506325
vn -0.027441204 0.109841704 0.9935702
vn -0.068641484 0.17164207 0.98276514
vn -0.006841123 -0.034359157 0.99938613
vn -0.027441204 -0.054959297 0.9981114
vn -0.048041344 0.048041344 0.99768937
vn -0.089241564 -0.07555938 0.9931398
vn -0.048041344 -0.17856002 0.9827555
vn -0.13044184 0.068641484 0.989077
vn -0.17164207 -0.054959297 0.9836252
vn -0.089241564 -0.07555938 0.9931398
vn -0.027441204 -0.07555938 0.99676365
vn -0.027441204 -0.034359157 0.99903274
vn -0.109841704 -0.13735974 0.9844121
vn -0.15104198 -0.17856002 0.9722668
vn -0.089241564 0.048041344 0.99485075
vn -0.027441204 0.006841123 0.9996
vn -0.21284235 -0.15795988 0.9642338
vn -0.17164207 0.006841123 0.9851356
vn -0.21284235 -0.11675966 0.9700852
vn 0.034359157 -0.21976024 0.9749487
vn 0.054959297 -0.30216074 0.95167136
vn 0.07555938 -0.4463616 0.89165694
vn 0.07555938 -0.40516135 0.9111175
vn -0.1922422 -0.15795988 0.9685513
vn -0.23344243 -0.17856002 0.9558352
vn -0.027441204 0.15104198 0.98814636
vn 0.054959297 -0.13735974 0.9889954
vn 0.054959297 -0.3639611 0.9297913
vn -0.006841123 -0.343361 0.9391786
vn -0.13044184 -0.21976024 0.96679384
vn -0.15104198 -0.013759017 0.9884316
vn -0.1922422 -0.13735974 0.9716868
vn -0.048041344 0.23344243 0.9711831
vn 0.013759017 0.1922422 0.98125106
vn -0.006841123 -0.13735974 0.99049765
vn -0.089241564 -0.343361 0.9349541
vn -0.068641484 -0.17856002 0.9815318
vn -0.25404257 -0.3639611 0.8960997
vn -0.048041344 0.15104198 0.9873593
vn -0.15104198 -0.054959297 0.9869984
vn 0.013759017 0.31584293 0.9487117
vn -0.15104198 -0.28156063 0.9475811
vn -0.29524285 -0.59056246 0.75104433
vn -0.006841123 0.109841704 0.9939256
vn -0.027441204 0.29524285 0.95502806
vn -0.089241564 -0.2609605 0.9612157
vn -0.006841123 0.27464265 0.96152204
vn -0.13044184 0.027441204 0.9910761
vn -0.068641484 -0.30216074 0.9507825
vn -0.068641484 0.027441204 0.9972639
vn -0.089241564 -0.30216074 0.94907045
vn -0.048041344 -0.013759017 0.99875057
vn -0.068641484 -0.28156063 0.95708513
vn -0.048041344 0.027441204 0.99846834
vn -0.089241564 0.027441204 0.9956319
vn -0.048041344 0.336443 0.9404776
vn -0.068641484 0.29524285 0.95295334
vn -0.089241564 0.27464265 0.9573961
vn -0.109841704 0.27464265 0.95525193
vn -0.109841704 0.27464265 0.95525193
vn -0.089241564 0.31584293 0.9446053
vn -0.089241564 0.17164207 0.981109
vn -0.15104198 0.048041344 0.9873593
vn -0.17164207 0.006841123 0.9851356
vn -0.068641484 0.006841123 0.99761796
vn -0.17164207 -0.15795988 0.9724133
vn -0.23344243 -0.343361 0.90972954
vn -0.23344243 -0.38456124 0.89309424
vn -0.1922422 -0.59056246 0.7837595
vn -0.29524285 -0.67296296 0.678198
vn -0.27464265 -0.7347633 0.6202373
vn -0.336443 -0.7141632 0.6138217
vn -0.336443 -0.6935631 0.63700575
vn -0.23344243 -0.7347633 0.636889
vn -0.27464265 -0.48756185 0.82876706
g tb_11_mesh_0
f 3/3/3 2/2/2 1/1/1
f 1/1/1 4/4/4 3/3/3
f 3/3/3 4/4/4 5/5/5
f 5/5/5 6/6/6 3/3/3
f 7/7/7 4/4/4 1/1/1
f 1/1/1 8/8/8 7/7/7
f 6/6/6 5/5/5 9/9/9
f 9/9/9 10/10/10 6/6/6
f 11/11/11 10/10/10 9/9/9
f 12/12/12 5/5/5 4/4/4
f 4/4/4 7/7/7 12/12/12
f 13/13/13 7/7/7 8/8/8
f 8/8/8 14/14/14 13/13/13
f 9/9/9 15/15/15 11/11/11
f 16/16/16 11/11/11 15/15/15
f 17/17/17 9/9/9 5/5/5
f 5/5/5 12/12/12 17/17/17
f 15/15/15 9/9/9 17/17/17
f 15/15/15 18/18/18 16/16/16
f 19/19/19 16/16/16 18/18/18
f 17/17/17 20/20/20 15/15/15
f 18/18/18 15/15/15 20/20/20
f 7/7/7 13/13/13 21/21/21
f 21/21/21 12/12/12 7/7/7
f 22/22/22 13/13/13 14/14/14
f 14/14/14 23/23/23 22/22/22
f 22/22/22 23/23/23 24/24/24
f 17/17/17 12/12/12 25/25/25
f 25/25/25 20/20/20 17/17/17
f 18/18/18 26/26/26 19/19/19
f 27/27/27 19/19/19 26/26/26
f 12/12/12 21/21/21 28/28/28
f 28/28/28 25/25/25 12/12/12
f 29/29/29 21/21/21 13/13/13
f 13/13/13 22/22/22 29/29/29
f 26/26/26 30/30/30 27/27/27
f 31/31/31 27/27/27 30/30/30
f 32/32/32 28/28/28 21/21/21
f 21/21/21 29/29/29 32/32/32
f 30/30/30 33/33/33 31/31/31
f 34/34/34 31/31/31 33/33/33
f 33/33/33 35/35/35 34/34/34
f 36/36/36 34/34/34 35/35/35
f 37/37/37 33/33/33 30/30/30
f 35/35/35 33/33/33 37/37/37
f 38/38/38 30/30/30 26/26/26
f 30/30/30 38/38/38 37/37/37
f 35/35/35 39/39/39 36/36/36
f 40/40/40 36/36/36 39/39/39
f 39/39/39 41/41/41 40/40/40
f 37/37/37 42/42/42 35/35/35
f 39/39/39 35/35/35 42/42/42
f 41/41/41 39/39/39 43/43/43
f 42/42/42 43/43/43 39/39/39
f 43/43/43 44/44/44 41/41/41
f 45/45/45 44/44/44 43/43/43
f 42/42/42 37/37/37 46/46/46
f 46/46/46 37/37/37 38/38/38
f 26/26/26 47/47/47 38/38/38
f 47/47/47 26/26/26 18/18/18
f 43/43/43 42/42/42 48/48/48
f 46/46/46 48/48/48 42/42/42
f 43/43/43 49/49/49 45/45/45
f 48/48/48 49/49/49 43/43/43
f 50/50/50 45/45/45 49/49/49
f 38/38/38 51/51/51 46/46/46
f 51/51/51 38/38/38 47/47/47
f 18/18/18 52/52/52 47/47/47
f 20/20/20 52/52/52 18/18/18
f 48/48/48 46/46/46 53/53/53
f 53/53/53 46/46/46 51/51/51
f 49/49/49 48/48/48 54/54/54
f 53/53/53 54/54/54 48/48/48
f 49/49/49 55/55/55 50/50/50
f 54/54/54 55/55/55 49/49/49
f 56/56/56 50/50/50 55/55/55
f 47/47/47 57/57/57 51/51/51
f 57/57/57 47/47/47 52/52/52
f 58/58/58 52/52/52 20/20/20
f 52/52/52 58/58/58 57/57/57
f 20/20/20 25/25/25 58/58/58
f 55/55/55 54/54/54 59/59/59
f 59/59/59 54/54/54 53/53/53
f 55/55/55 60/60/60 56/56/56
f 59/59/59 60/60/60 55/55/55
f 61/61/61 56/56/56 60/60/60
f 60/60/60 62/62/62 61/61/61
f 62/62/62 60/60/60 59/59/59
f 63/63/63 61/61/61 62/62/62
f 51/51/51 64/64/64 53/53/53
f 64/64/64 51/51/51 57/57/57
f 65/65/65 57/57/57 58/58/58
f 57/57/57 65/65/65 64/64/64
f 66/66/66 58/58/58 25/25/25
f 58/58/58 66/66/66 65/65/65
f 25/25/25 28/28/28 66/66/66
f 53/53/53 67/67/67 59/59/59
f 67/67/67 53/53/53 64/64/64
f 62/62/62 68/68/68 63/63/63
f 69/69/69 63/63/63 68/68/68
f 59/59/59 70/70/70 62/62/62
f 70/70/70 59/59/59 67/67/67
f 68/68/68 62/62/62 70/70/70
f 64/64/64 65/65/65 71/71/71
f 71/71/71 65/65/65 66/66/66
f 72/72/72 66/66/66 28/28/28
f 66/66/66 72/72/72 71/71/71
f 28/28/28 32/32/32 72/72/72
f 64/64/64 73/73/73 67/67/67
f 71/71/71 73/73/73 64/64/64
f 67/67/67 74/74/74 70/70/70
f 74/74/74 67/67/67 73/73/73
f 68/68/68 75/75/75 69/69/69
f 76/76/76 69/69/69 75/75/75
f 75/75/75 77/77/77 76/76/76
f 70/70/70 78/78/78 68/68/68
f 78/78/78 70/70/70 74/74/74
f 68/68/68 78/78/78 79/79/79
f 79/79/79 75/75/75 68/68/68
f 77/77/77 75/75/75 80/80/80
f 80/80/80 81/81/81 77/77/77
f 74/74/74 82/82/82 78/78/78
f 79/79/79 78/78/78 82/82/82
f 75/75/75 79/79/79 83/83/83
f 80/80/80 75/75/75 83/83/83
f 82/82/82 83/83/83 79/79/79
f 73/73/73 84/84/84 74/74/74
f 82/82/82 74/74/74 84/84/84
f 81/81/81 80/80/80 85/85/85
f 85/85/85 86/86/86 81/81/81
f 87/87/87 86/86/86 85/85/85
f 85/85/85 88/88/88 87/87/87
f 89/89/89 84/84/84 73/73/73
f 73/73/73 71/71/71 89/89/89
f 84/84/84 90/90/90 82/82/82
f 90/90/90 84/84/84 89/89/89
f 85/85/85 80/80/80 91/91/91
f 83/83/83 91/91/91 80/80/80
f 88/88/88 85/85/85 92/92/92
f 91/91/91 92/92/92 85/85/85
f 92/92/92 93/93/93 88/88/88
f 94/94/94 93/93/93 92/92/92
f 89/89/89 71/71/71 95/95/95
f 95/95/95 71/71/71 72/72/72
f 82/82/82 90/90/90 96/96/96
f 83/83/83 82/82/82 96/96/96
f 89/89/89 97/97/97 90/90/90
f 97/97/97 89/89/89 95/95/95
f 96/96/96 90/90/90 97/97/97
f 91/91/91 83/83/83 98/98/98
f 96/96/96 98/98/98 83/83/83
f 92/92/92 91/91/91 99/99/99
f 98/98/98 99/99/99 91/91/91
f 92/92/92 100/100/100 94/94/94
f 99/99/99 100/100/100 92/92/92
f 101/101/101 94/94/94 100/100/100
f 100/100/100 102/102/102 101/101/101
f 102/102/102 100/100/100 99/99/99
f 103/103/103 101/101/101 102/102/102
f 97/97/97 104/104/104 96/96/96
f 98/98/98 96/96/96 104/104/104
f 95/95/95 105/105/105 97/97/97
f 104/104/104 97/97/97 105/105/105
f 99/99/99 98/98/98 106/106/106
f 104/104/104 106/106/106 98/98/98
f 102/102/102 107/107/107 103/103/103
f 108/108/108 103/103/103 107/107/107
f 99/99/99 109/109/109 102/102/102
f 106/106/106 109/109/109 99/99/99
f 107/107/107 102/102/102 109/109/109
f 106/106/106 104/104/104 110/110/110
f 110/110/110 104/104/104 105/105/105
f 105/105/105 95/95/95 111/111/111
f 72/72/72 111/111/111 95/95/95
f 111/111/111 72/72/72 32/32/32
f 109/109/109 106/106/106 112/112/112
f 110/110/110 112/112/112 106/106/106
f 111/111/111 113/113/113 105/105/105
f 105/105/105 113/113/113 110/110/110
f 32/32/32 114/114/114 111/111/111
f 113/113/113 111/111/111 114/114/114
f 114/114/114 32/32/32 29/29/29
f 110/110/110 113/113/113 115/115/115
f 114/114/114 115/115/115 113/113/113
f 29/29/29 116/116/116 114/114/114
f 116/116/116 29/29/29 22/22/22
f 114/114/114 116/116/116 117/117/117
f 117/117/117 115/115/115 114/114/114
f 22/22/22 118/118/118 116/116/116
f 117/117/117 116/116/116 118/118/118
f 24/24/24 118/118/118 22/22/22
f 119/119/119 118/118/118 24/24/24
f 118/118/118 119/119/119 117/117/117
f 24/24/24 120/120/120 119/119/119
f 115/115/115 121/121/121 110/110/110
f 112/112/112 110/110/110 121/121/121
f 115/115/115 117/117/117 122/122/122
f 122/122/122 117/117/117 119/119/119
f 122/122/122 121/121/121 115/115/115
f 123/123/123 119/119/119 120/120/120
f 119/119/119 123/123/123 122/122/122
f 120/120/120 124/124/124 123/123/123
f 123/123/123 124/124/124 125/125/125
f 122/122/122 123/123/123 126/126/126
f 126/126/126 121/121/121 122/122/122
f 125/125/125 126/126/126 123/123/123
f 121/121/121 127/127/127 112/112/112
f 127/127/127 121/121/121 126/126/126
f 128/128/128 126/126/126 125/125/125
f 126/126/126 128/128/128 127/127/127
f 125/125/125 129/129/129 128/128/128
f 130/130/130 112/112/112 127/127/127
f 112/112/112 130/130/130 109/109/109
f 109/109/109 130/130/130 107/107/107
f 127/127/127 131/131/131 130/130/130
f 131/131/131 127/127/127 128/128/128
f 107/107/107 130/130/130 131/131/131
f 132/132/132 128/128/128 129/129/129
f 128/128/128 132/132/132 131/131/131
f 129/129/129 133/133/133 132/132/132
f 132/132/132 133/133/133 134/134/134
f 134/134/134 135/135/135 132/132/132
f 135/135/135 134/134/134 136/136/136
f 136/136/136 137/137/137 135/135/135
f 135/135/135 137/137/137 138/138/138
f 138/138/138 139/139/139 135/135/135
f 135/135/135 139/139/139 108/108/108
f 107/107/107 140/140/140 108/108/108
f 131/131/131 140/140/140 107/107/107
f 140/140/140 131/131/131 132/132/132
f 108/108/108 140/140/140 135/135/135
f 132/132/132 135/135/135 140/140/140
