g tb_12 _mesh
v 0.21509996 0.20738837 0.012393773
v 0.19912583 0.24980244 -0.0052328706
v 0.2415399 0.23382834 0.006885439
v 0.18700752 0.21785417 0.00523293
v 0.14459342 0.23382834 0.001927942
v 0.1561609 0.2657766 -0.025613666
v 0.18700752 0.16056764 0.017902076
v 0.21509996 0.16056764 0.016800404
v 0.10768767 0.24814996 -0.007436186
v 0.11374682 0.2817507 -0.03718114
v 0.06912941 0.2817507 -0.036630303
v 0.12917012 0.17709258 0.0112921
v 0.18700752 0.11374688 0.011842936
v 0.21509996 0.11374688 0.008537948
v 0.06912941 0.24814996 -0.005783707
v 0.02506283 0.2817507 -0.024511993
v 0.09997602 0.20904085 0.001927942
v 0.02506283 0.24814996 -0.00027537346
v -0.019554585 0.2817507 0.0013771057
v 0.06912941 0.20298171 0.003580451
v 0.14018677 0.11539939 0.01569876
v 0.18700752 0.06692615 0.006334603
v 0.21509996 0.06692615 0.0030296147
v 0.21509996 0.020105422 -0.010741204
v 0.07794273 0.15891513 0.012944579
v -0.019554585 0.24814996 0.0112921
v -0.06362116 0.2817507 0.016249597
v 0.0911627 0.11264524 0.019554585
v 0.14569509 0.06692615 0.011842936
v -0.06362116 0.24814996 0.014597088
v -0.10823858 0.2817507 0.028367907
v 0.101077676 0.06582448 0.019003749
v -0.10823858 0.24814996 0.017902076
v -0.15285596 0.2817507 0.04599452
v -0.15285596 0.24814996 0.030020386
v -0.19692254 0.2817507 0.042689532
v -0.10823858 0.19912589 0.004682094
v -0.06362116 0.19967672 0.006334603
v -0.19692254 0.24814996 0.03993538
v -0.24153998 0.2817507 0.02341041
v -0.24153998 0.23878583 0.02781707
v -0.15285596 0.19912589 0.006885439
v -0.19692254 0.1958209 0.0112921
v -0.24153998 0.1958209 0.012393773
v -0.24153998 0.15230516 0.012944579
v -0.10823858 0.1534068 -0.008537859
v -0.019003749 0.19967672 0.010190427
v -0.15285596 0.1534068 -0.005783707
v -0.19692254 0.15230516 0.004682094
v -0.24153998 0.10934022 0.009639591
v -0.06362116 0.15395764 -0.00027537346
v 0.026164502 0.20022756 0.006334603
v -0.10823858 0.10989106 -0.0013770461
v -0.15285596 0.10934022 -0.0035803616
v -0.19692254 0.10934022 0.0030296147
v -0.24153998 0.066375315 0.009639591
v -0.01735124 0.15395764 0.0057837665
v 0.030020326 0.15450847 0.007987112
v -0.15230516 0.066375315 0.007987112
v -0.19692254 0.066375315 0.007987112
v -0.24153998 0.02341041 0.030020386
v -0.19692254 0.02341041 0.025613725
v -0.24153998 -0.019554496 0.028367907
v -0.06307033 0.10989106 0.0008262694
v -0.015147924 0.10989106 0.004682094
v 0.03718114 0.11044189 0.012393773
v -0.10768774 0.066375315 0.006334603
v -0.19692254 -0.019554496 0.021207064
v -0.24153998 -0.06307025 0.01569876
v -0.15175432 0.022308737 0.020105422
v -0.019554585 0.066375315 0.009088755
v 0.05150278 0.06527364 0.0217579
v -0.06307033 0.066375315 0.004682094
v -0.10603523 0.0217579 0.011842936
v -0.19692254 -0.06307025 0.006885439
v -0.24153998 -0.10603517 0.00027546287
v -0.20738837 -0.1390851 -0.0129445195
v -0.15120348 -0.021207005 0.010741264
v -0.15175432 -0.04929945 0.003580451
v -0.12586519 -0.15230508 -0.025613666
v -0.17323676 -0.17213503 -0.019554496
v -0.09722191 -0.031121999 0.00027546287
v -0.108789384 -0.08730687 -0.005783707
v -0.061417818 0.022859573 0.0041312873
v -0.12586519 -0.2073883 -0.033325315
v -0.17323676 -0.2073883 -0.025613666
v -0.17323676 -0.24264157 -0.023961157
v -0.12586519 -0.24264157 -0.036630303
v -0.019554585 0.02341041 0.0041312873
v -0.051502854 -0.018452853 -0.0024787188
v -0.08951026 -0.15010175 -0.025613666
v -0.078493625 -0.2073883 -0.03828281
v -0.078493625 -0.24264157 -0.039935306
v -0.031672895 -0.24264157 -0.04599446
v 0.027816981 0.020105422 0.011842936
v -0.042138696 -0.062519416 -0.009088695
v -0.012944579 -0.01735118 -0.004131198
v -0.03993538 -0.106585994 -0.015698671
v -0.036079556 -0.1561609 -0.030020326
v -0.031672895 -0.2073883 -0.040486127
v 0.015698671 -0.24264157 -0.04599446
v 0.015698671 -0.2073883 -0.042138636
v 0.06307025 -0.24264157 -0.039935306
v 0.014046192 -0.06527358 -0.01735118
v 0.028918654 -0.021207005 -0.005783707
v 0.016800344 -0.11705181 -0.025613666
v 0.06307025 -0.2073883 -0.040486127
v 0.110441834 -0.24264157 -0.03277448
v 0.016249508 -0.16166922 -0.03497781
v 0.0707819 -0.07849355 -0.02341035
v 0.064171925 0.019554585 0.010190427
v 0.069680244 -0.1253143 -0.02946949
v 0.07023108 -0.028918654 -0.009088695
v 0.10713683 0.019554585 0.0041312873
v 0.11209433 -0.027816981 -0.010741204
v 0.14844926 0.020105422 0.00027546287
v 0.15065257 -0.023961157 -0.011842847
v 0.18700752 0.020105422 -0.005783707
v 0.18700752 -0.026715338 -0.01735118
v 0.21509996 -0.026715338 -0.020105332
v 0.1253143 -0.07849355 -0.026715338
v 0.15395758 -0.05370611 -0.021207005
v 0.18700752 -0.06307025 -0.028367817
v 0.21509996 -0.07353607 -0.033325315
v 0.18976167 -0.10438268 -0.035528645
v 0.16166922 -0.09391686 -0.03387615
v 0.11925514 -0.13192429 -0.033325315
v 0.16166922 -0.1407376 -0.035528645
v 0.18976167 -0.1407376 -0.033325315
v 0.06747691 -0.1682792 -0.03607948
v 0.11705181 -0.17599086 -0.036630303
v 0.16166922 -0.17764336 -0.031672806
v 0.18976167 -0.17764336 -0.030020326
v 0.18976167 -0.21454912 -0.022308677
v 0.1528559 -0.24429406 -0.026715338
v 0.18976167 -0.25090405 -0.02506283
v 0.16993171 -0.26632735 -0.02946949
v 0.14955091 -0.28175065 -0.033325315
v 0.12972096 -0.2619207 -0.031672806
v 0.12200931 -0.21344745 -0.030571163
vt 0.31111205 0.7128854
vt 0.30627137 0.74434954
vt 0.32079333 0.73224795
vt 0.30143076 0.7201463
vt 0.2869088 0.73224795
vt 0.28932914 0.7540308
vt 0.30143076 0.68142116
vt 0.31111205 0.68142116
vt 0.2723869 0.74192923
vt 0.2748072 0.7661324
vt 0.2602853 0.7661324
vt 0.27964786 0.69110245
vt 0.30143076 0.6475367
vt 0.31111205 0.6475367
vt 0.2602853 0.74192923
vt 0.24334304 0.7661324
vt 0.26996657 0.7153057
vt 0.24334304 0.74192923
vt 0.22882111 0.7661324
vt 0.2602853 0.710465
vt 0.2844885 0.649957
vt 0.30143076 0.61365217
vt 0.31111205 0.61365217
vt 0.31111205 0.582188
vt 0.26270562 0.67900085
vt 0.22882111 0.74192923
vt 0.21187887 0.7661324
vt 0.26754627 0.6475367
vt 0.2869088 0.61365217
vt 0.21187887 0.74192923
vt 0.19735694 0.7661324
vt 0.26996657 0.61365217
vt 0.19735694 0.74192923
vt 0.18041469 0.7661324
vt 0.18041469 0.74192923
vt 0.16589276 0.7661324
vt 0.19735694 0.7080447
vt 0.21187887 0.7080447
vt 0.16589276 0.74192923
vt 0.14895052 0.7661324
vt 0.14895052 0.73466825
vt 0.18041469 0.7080447
vt 0.16589276 0.7056244
vt 0.14895052 0.7056244
vt 0.14895052 0.67416024
vt 0.19735694 0.67658055
vt 0.22882111 0.7080447
vt 0.18041469 0.67658055
vt 0.16589276 0.67416024
vt 0.14895052 0.6451163
vt 0.21187887 0.67658055
vt 0.24334304 0.7080447
vt 0.19735694 0.6451163
vt 0.18041469 0.6451163
vt 0.16589276 0.6451163
vt 0.14895052 0.61365217
vt 0.22882111 0.67658055
vt 0.24576336 0.67658055
vt 0.18041469 0.61365217
vt 0.16589276 0.61365217
vt 0.14895052 0.5846083
vt 0.16589276 0.5846083
vt 0.14895052 0.55314416
vt 0.21187887 0.6451163
vt 0.22882111 0.6451163
vt 0.24818368 0.6451163
vt 0.19735694 0.61365217
vt 0.16589276 0.55314416
vt 0.14895052 0.5241003
vt 0.18041469 0.582188
vt 0.22882111 0.61365217
vt 0.25302434 0.61365217
vt 0.21187887 0.61365217
vt 0.19735694 0.582188
vt 0.16589276 0.5241003
vt 0.14895052 0.4926361
vt 0.16105212 0.4684329
vt 0.18041469 0.55314416
vt 0.18041469 0.5313612
vt 0.19009598 0.45875162
vt 0.17315373 0.44665003
vt 0.19977726 0.5458832
vt 0.19735694 0.50473773
vt 0.21187887 0.582188
vt 0.19009598 0.42002648
vt 0.17315373 0.42002648
vt 0.17315373 0.3958233
vt 0.19009598 0.3958233
vt 0.22882111 0.5846083
vt 0.21671951 0.55314416
vt 0.20219758 0.46117195
vt 0.20703822 0.42002648
vt 0.20703822 0.3958233
vt 0.22398047 0.3958233
vt 0.24576336 0.582188
vt 0.21913983 0.5241003
vt 0.23124143 0.55556446
vt 0.22156015 0.4926361
vt 0.22156015 0.4563313
vt 0.22398047 0.42002648
vt 0.24092272 0.3958233
vt 0.24092272 0.42002648
vt 0.25786495 0.3958233
vt 0.24092272 0.52168
vt 0.24576336 0.55314416
vt 0.24092272 0.48537517
vt 0.25786495 0.42002648
vt 0.2748072 0.3958233
vt 0.24092272 0.45391098
vt 0.2602853 0.51199865
vt 0.25786495 0.5797677
vt 0.2602853 0.4781142
vt 0.2602853 0.5458832
vt 0.2723869 0.5797677
vt 0.2748072 0.5483035
vt 0.2869088 0.582188
vt 0.28932914 0.5507238
vt 0.30143076 0.582188
vt 0.30143076 0.5483035
vt 0.31111205 0.5483035
vt 0.27964786 0.51199865
vt 0.28932914 0.5289409
vt 0.30143076 0.52168
vt 0.31111205 0.514419
vt 0.30143076 0.4926361
vt 0.29174948 0.4998971
vt 0.27722752 0.47327355
vt 0.29174948 0.4684329
vt 0.30143076 0.4684329
vt 0.25786495 0.44907033
vt 0.27722752 0.4442297
vt 0.29174948 0.4418094
vt 0.30143076 0.4418094
vt 0.30143076 0.41518584
vt 0.28932914 0.3958233
vt 0.30143076 0.39098263
vt 0.29416978 0.37888104
vt 0.2869088 0.36919975
vt 0.2820682 0.38130134
vt 0.27722752 0.41760617
vn -0.12078127 0.25651845 0.95896304
vn -0.06987986 0.42618987 0.9019307
vn -0.13774845 0.32438698 0.935841
vn -0.052912742 0.25651845 0.9650899
vn -0.035945594 0.4092227 0.91172624
vn -0.018978447 0.6637298 0.74773157
vn -0.018978447 0.035945594 0.9991735
vn 0.048890114 -0.014955848 0.99869215
vn -0.0020112991 0.4940584 0.86942637
vn 0.031922966 0.6637298 0.7472909
vn 0.09979156 0.6637298 0.7412856
vn -0.052912742 0.15471557 0.9865411
vn 0.09979156 -0.116758674 0.98813415
vn 0.09979156 -0.15069297 0.98353106
vn 0.08282441 0.443157 0.89260966
vn 0.26946294 0.5958612 0.756531
vn -0.035945594 0.22258416 0.97425056
vn 0.18462725 0.32438698 0.9277316
vn 0.3203644 0.34135416 0.88365376
vn 0.014955848 0.17168275 0.98503876
vn 0.06585726 -0.014955848 0.99771696
vn 0.13372582 -0.18462725 0.9736684
vn 0.116758674 -0.2015944 0.972485
vn 0.13372582 -0.23552868 0.9626233
vn -0.06987986 0.15471557 0.9854846
vn 0.18462725 0.06987986 0.98032117
vn 0.21856153 0.018978447 0.9756386
vn -0.018978447 0.06987986 0.9973749
vn 0.13372582 -0.16766012 0.9767331
vn 0.08282441 -0.15069297 0.9851049
vn 0.26946294 -0.23552868 0.9337644
vn 0.116758674 -0.15069297 0.9816614
vn 0.18462725 -0.28643012 0.9401439
vn 0.09979156 -0.4052001 0.9087654
vn 0.16766012 -0.3712658 0.91326433
vn -0.15471557 -0.16766012 0.9736289
vn 0.048890114 -0.26946294 0.9617689
vn -0.06987986 -0.15069297 0.98610777
vn -0.035945594 -0.23552868 0.97120243
vn -0.32438698 0.018978447 0.945734
vn -0.17168275 -0.2015944 0.9643053
vn 0.09979156 -0.35429868 0.9297925
vn 0.08282441 -0.28643012 0.9545145
vn 0.014955848 -0.16766012 0.9857314
vn 0.13372582 -0.06585726 0.9888277
vn -0.052912742 -0.048890114 0.9974016
vn 0.014955848 -0.048890114 0.99869215
vn 0.116758674 -0.08282441 0.98970073
vn 0.18462725 -0.08282441 0.9793124
vn 0.15069297 -0.031922966 0.98806506
vn -0.13774845 -0.031922966 0.9899527
vn 0.048890114 0.06987986 0.99635667
vn -0.052912742 0.15471557 0.9865411
vn 0.06585726 0.13774845 0.98827535
vn 0.116758674 0.035945594 0.9925096
vn 0.06585726 0.25651845 0.96429306
vn -0.06987986 -0.031922966 0.9970445
vn -0.06987986 0.06987986 0.99510485
vn 0.031922966 0.25651845 0.966012
vn 0.031922966 0.25651845 0.966012
vn 0.08282441 0.18864986 0.97854555
vn 0.09979156 0.13774845 0.9854273
vn 0.15069297 -0.16766012 0.97425956
vn -0.06987986 0.06987986 0.99510485
vn -0.103814155 0.052912742 0.99318826
vn -0.13774845 0.12078127 0.9830754
vn 0.048890114 0.15471557 0.9867486
vn 0.16766012 -0.2015944 0.96501285
vn 0.16766012 -0.30339724 0.937998
vn 0.15069297 0.018978447 0.98839843
vn -0.13774845 0.0020112991 0.99046516
vn -0.06987986 -0.048890114 0.99635667
vn -0.0020112991 0.035945594 0.9993517
vn 0.15069297 -0.048890114 0.98737097
vn 0.13372582 -0.28643012 0.94872296
vn 0.13372582 -0.28643012 0.94872296
vn 0.116758674 -0.21856153 0.9688128
vn 0.18462725 -0.21856153 0.95819813
vn 0.13372582 -0.18462725 0.9736684
vn 0.06585726 -0.2015944 0.97725254
vn 0.15069297 -0.09979156 0.98353106
vn 0.116758674 -0.15069297 0.9816614
vn 0.08282441 -0.21856153 0.9723019
vn 0.08282441 -0.08282441 0.99311644
vn 0.15069297 -0.116758674 0.9816614
vn 0.15069297 -0.06585726 0.9863845
vn 0.2015944 -0.014955848 0.9793549
vn 0.16766012 -0.08282441 0.9823595
vn -0.08684701 -0.13372582 0.9872056
vn 0.06585726 -0.15069297 0.9863845
vn 0.048890114 -0.23552868 0.9706369
vn 0.08282441 -0.13372582 0.9875513
vn 0.09979156 -0.048890114 0.99380654
vn 0.031922966 -0.13372582 0.9905041
vn -0.06987986 -0.25249583 0.9650713
vn 0.09979156 -0.15069297 0.98353106
vn 0.014955848 -0.21856153 0.97570854
vn 0.09979156 -0.2015944 0.9743723
vn 0.06585726 -0.21856153 0.9735983
vn 0.031922966 -0.16766012 0.9853279
vn -0.052912742 -0.116758674 0.9917498
vn -0.0020112991 -0.116758674 0.9931583
vn -0.12078127 0.0020112991 0.9926771
vn 0.08282441 -0.2015944 0.97596097
vn 0.014955848 -0.3203644 0.9471763
vn 0.08282441 -0.18462725 0.9793124
vn -0.06987986 -0.031922966 0.9970445
vn -0.15471557 -0.014955848 0.98784584
vn 0.031922966 -0.16766012 0.9853279
vn 0.048890114 -0.2015944 0.9782481
vn 0.06585726 -0.30339724 0.95058554
vn 0.048890114 -0.15069297 0.98737097
vn 0.048890114 -0.30339724 0.9516091
vn 0.116758674 -0.28643012 0.95096016
vn 0.048890114 -0.28643012 0.9568529
vn 0.116758674 -0.25249583 0.9605276
vn 0.09979156 -0.26946294 0.9578264
vn 0.15069297 -0.23552868 0.96011347
vn 0.116758674 -0.25249583 0.9605276
vn 0.08282441 -0.23552868 0.96833175
vn 0.08282441 -0.21856153 0.9723019
vn 0.09979156 -0.28643012 0.95289004
vn 0.09979156 -0.25249583 0.96243834
vn 0.09979156 -0.21856153 0.97070724
vn 0.014955848 -0.08282441 0.9964519
vn 0.06585726 -0.15069297 0.9863845
vn 0.048890114 -0.09979156 0.99380654
vn -0.018978447 0.018978447 0.99963975
vn -0.06987986 0.06987986 0.99510485
vn 0.014955848 -0.116758674 0.9930477
vn -0.052912742 0.035945594 0.997952
vn -0.08684701 0.12078127 0.9888728
vn -0.052912742 0.15471557 0.9865411
vn -0.12078127 0.06987986 0.9902165
vn -0.103814155 -0.06585726 0.99241394
vn -0.06987986 -0.116758674 0.9906989
vn -0.06987986 -0.16766012 0.9833651
vn -0.06987986 -0.16766012 0.9833651
vn -0.12078127 -0.116758674 0.98578864
vn -0.12078127 0.06987986 0.9902165
g tb_12 _mesh_0
f 3/3/3 2/2/2 1/1/1
f 4/4/4 1/1/1 2/2/2
f 4/4/4 2/2/2 5/5/5
f 6/6/6 5/5/5 2/2/2
f 4/4/4 7/7/7 1/1/1
f 8/8/8 1/1/1 7/7/7
f 5/5/5 6/6/6 9/9/9
f 10/10/10 9/9/9 6/6/6
f 10/10/10 11/11/11 9/9/9
f 5/5/5 12/12/12 4/4/4
f 7/7/7 4/4/4 12/12/12
f 7/7/7 13/13/13 8/8/8
f 14/14/14 8/8/8 13/13/13
f 15/15/15 9/9/9 11/11/11
f 11/11/11 16/16/16 15/15/15
f 9/9/9 17/17/17 5/5/5
f 12/12/12 5/5/5 17/17/17
f 9/9/9 15/15/15 17/17/17
f 18/18/18 15/15/15 16/16/16
f 16/16/16 19/19/19 18/18/18
f 20/20/20 17/17/17 15/15/15
f 15/15/15 18/18/18 20/20/20
f 13/13/13 7/7/7 21/21/21
f 12/12/12 21/21/21 7/7/7
f 13/13/13 22/22/22 14/14/14
f 23/23/23 14/14/14 22/22/22
f 23/23/23 22/22/22 24/24/24
f 12/12/12 17/17/17 25/25/25
f 20/20/20 25/25/25 17/17/17
f 26/26/26 18/18/18 19/19/19
f 19/19/19 27/27/27 26/26/26
f 21/21/21 12/12/12 28/28/28
f 25/25/25 28/28/28 12/12/12
f 21/21/21 29/29/29 13/13/13
f 22/22/22 13/13/13 29/29/29
f 30/30/30 26/26/26 27/27/27
f 27/27/27 31/31/31 30/30/30
f 28/28/28 32/32/32 21/21/21
f 29/29/29 21/21/21 32/32/32
f 33/33/33 30/30/30 31/31/31
f 31/31/31 34/34/34 33/33/33
f 35/35/35 33/33/33 34/34/34
f 34/34/34 36/36/36 35/35/35
f 33/33/33 37/37/37 30/30/30
f 33/33/33 35/35/35 37/37/37
f 30/30/30 38/38/38 26/26/26
f 38/38/38 30/30/30 37/37/37
f 39/39/39 35/35/35 36/36/36
f 36/36/36 40/40/40 39/39/39
f 41/41/41 39/39/39 40/40/40
f 42/42/42 37/37/37 35/35/35
f 35/35/35 39/39/39 42/42/42
f 39/39/39 41/41/41 43/43/43
f 43/43/43 42/42/42 39/39/39
f 44/44/44 43/43/43 41/41/41
f 44/44/44 45/45/45 43/43/43
f 37/37/37 42/42/42 46/46/46
f 37/37/37 46/46/46 38/38/38
f 47/47/47 26/26/26 38/38/38
f 26/26/26 47/47/47 18/18/18
f 42/42/42 43/43/43 48/48/48
f 48/48/48 46/46/46 42/42/42
f 49/49/49 43/43/43 45/45/45
f 49/49/49 48/48/48 43/43/43
f 45/45/45 50/50/50 49/49/49
f 51/51/51 38/38/38 46/46/46
f 38/38/38 51/51/51 47/47/47
f 52/52/52 18/18/18 47/47/47
f 52/52/52 20/20/20 18/18/18
f 46/46/46 48/48/48 53/53/53
f 46/46/46 53/53/53 51/51/51
f 48/48/48 49/49/49 54/54/54
f 54/54/54 53/53/53 48/48/48
f 55/55/55 49/49/49 50/50/50
f 55/55/55 54/54/54 49/49/49
f 50/50/50 56/56/56 55/55/55
f 57/57/57 47/47/47 51/51/51
f 47/47/47 57/57/57 52/52/52
f 52/52/52 58/58/58 20/20/20
f 58/58/58 52/52/52 57/57/57
f 25/25/25 20/20/20 58/58/58
f 54/54/54 55/55/55 59/59/59
f 54/54/54 59/59/59 53/53/53
f 60/60/60 55/55/55 56/56/56
f 60/60/60 59/59/59 55/55/55
f 56/56/56 61/61/61 60/60/60
f 62/62/62 60/60/60 61/61/61
f 60/60/60 62/62/62 59/59/59
f 61/61/61 63/63/63 62/62/62
f 64/64/64 51/51/51 53/53/53
f 51/51/51 64/64/64 57/57/57
f 57/57/57 65/65/65 58/58/58
f 65/65/65 57/57/57 64/64/64
f 58/58/58 66/66/66 25/25/25
f 66/66/66 58/58/58 65/65/65
f 28/28/28 25/25/25 66/66/66
f 67/67/67 53/53/53 59/59/59
f 53/53/53 67/67/67 64/64/64
f 68/68/68 62/62/62 63/63/63
f 63/63/63 69/69/69 68/68/68
f 70/70/70 59/59/59 62/62/62
f 59/59/59 70/70/70 67/67/67
f 62/62/62 68/68/68 70/70/70
f 65/65/65 64/64/64 71/71/71
f 65/65/65 71/71/71 66/66/66
f 66/66/66 72/72/72 28/28/28
f 72/72/72 66/66/66 71/71/71
f 32/32/32 28/28/28 72/72/72
f 73/73/73 64/64/64 67/67/67
f 73/73/73 71/71/71 64/64/64
f 74/74/74 67/67/67 70/70/70
f 67/67/67 74/74/74 73/73/73
f 75/75/75 68/68/68 69/69/69
f 69/69/69 76/76/76 75/75/75
f 77/77/77 75/75/75 76/76/76
f 78/78/78 70/70/70 68/68/68
f 70/70/70 78/78/78 74/74/74
f 78/78/78 68/68/68 79/79/79
f 75/75/75 79/79/79 68/68/68
f 75/75/75 77/77/77 80/80/80
f 81/81/81 80/80/80 77/77/77
f 82/82/82 74/74/74 78/78/78
f 78/78/78 79/79/79 82/82/82
f 79/79/79 75/75/75 83/83/83
f 75/75/75 80/80/80 83/83/83
f 83/83/83 82/82/82 79/79/79
f 84/84/84 73/73/73 74/74/74
f 74/74/74 82/82/82 84/84/84
f 80/80/80 81/81/81 85/85/85
f 86/86/86 85/85/85 81/81/81
f 86/86/86 87/87/87 85/85/85
f 88/88/88 85/85/85 87/87/87
f 84/84/84 89/89/89 73/73/73
f 71/71/71 73/73/73 89/89/89
f 90/90/90 84/84/84 82/82/82
f 84/84/84 90/90/90 89/89/89
f 80/80/80 85/85/85 91/91/91
f 91/91/91 83/83/83 80/80/80
f 85/85/85 88/88/88 92/92/92
f 92/92/92 91/91/91 85/85/85
f 93/93/93 92/92/92 88/88/88
f 93/93/93 94/94/94 92/92/92
f 71/71/71 89/89/89 95/95/95
f 71/71/71 95/95/95 72/72/72
f 90/90/90 82/82/82 96/96/96
f 82/82/82 83/83/83 96/96/96
f 97/97/97 89/89/89 90/90/90
f 89/89/89 97/97/97 95/95/95
f 90/90/90 96/96/96 97/97/97
f 83/83/83 91/91/91 98/98/98
f 98/98/98 96/96/96 83/83/83
f 91/91/91 92/92/92 99/99/99
f 99/99/99 98/98/98 91/91/91
f 100/100/100 92/92/92 94/94/94
f 100/100/100 99/99/99 92/92/92
f 94/94/94 101/101/101 100/100/100
f 102/102/102 100/100/100 101/101/101
f 100/100/100 102/102/102 99/99/99
f 101/101/101 103/103/103 102/102/102
f 104/104/104 97/97/97 96/96/96
f 96/96/96 98/98/98 104/104/104
f 105/105/105 95/95/95 97/97/97
f 97/97/97 104/104/104 105/105/105
f 98/98/98 99/99/99 106/106/106
f 106/106/106 104/104/104 98/98/98
f 107/107/107 102/102/102 103/103/103
f 103/103/103 108/108/108 107/107/107
f 109/109/109 99/99/99 102/102/102
f 109/109/109 106/106/106 99/99/99
f 102/102/102 107/107/107 109/109/109
f 104/104/104 106/106/106 110/110/110
f 104/104/104 110/110/110 105/105/105
f 95/95/95 105/105/105 111/111/111
f 111/111/111 72/72/72 95/95/95
f 72/72/72 111/111/111 32/32/32
f 106/106/106 109/109/109 112/112/112
f 112/112/112 110/110/110 106/106/106
f 113/113/113 111/111/111 105/105/105
f 113/113/113 105/105/105 110/110/110
f 114/114/114 32/32/32 111/111/111
f 111/111/111 113/113/113 114/114/114
f 32/32/32 114/114/114 29/29/29
f 113/113/113 110/110/110 115/115/115
f 115/115/115 114/114/114 113/113/113
f 116/116/116 29/29/29 114/114/114
f 29/29/29 116/116/116 22/22/22
f 116/116/116 114/114/114 117/117/117
f 115/115/115 117/117/117 114/114/114
f 118/118/118 22/22/22 116/116/116
f 116/116/116 117/117/117 118/118/118
f 118/118/118 24/24/24 22/22/22
f 118/118/118 119/119/119 24/24/24
f 119/119/119 118/118/118 117/117/117
f 120/120/120 24/24/24 119/119/119
f 121/121/121 115/115/115 110/110/110
f 110/110/110 112/112/112 121/121/121
f 117/117/117 115/115/115 122/122/122
f 117/117/117 122/122/122 119/119/119
f 121/121/121 122/122/122 115/115/115
f 119/119/119 123/123/123 120/120/120
f 123/123/123 119/119/119 122/122/122
f 124/124/124 120/120/120 123/123/123
f 124/124/124 123/123/123 125/125/125
f 123/123/123 122/122/122 126/126/126
f 121/121/121 126/126/126 122/122/122
f 126/126/126 125/125/125 123/123/123
f 127/127/127 121/121/121 112/112/112
f 121/121/121 127/127/127 126/126/126
f 126/126/126 128/128/128 125/125/125
f 128/128/128 126/126/126 127/127/127
f 129/129/129 125/125/125 128/128/128
f 112/112/112 130/130/130 127/127/127
f 130/130/130 112/112/112 109/109/109
f 130/130/130 109/109/109 107/107/107
f 131/131/131 127/127/127 130/130/130
f 127/127/127 131/131/131 128/128/128
f 130/130/130 107/107/107 131/131/131
f 128/128/128 132/132/132 129/129/129
f 132/132/132 128/128/128 131/131/131
f 133/133/133 129/129/129 132/132/132
f 133/133/133 132/132/132 134/134/134
f 135/135/135 134/134/134 132/132/132
f 134/134/134 135/135/135 136/136/136
f 137/137/137 136/136/136 135/135/135
f 137/137/137 135/135/135 138/138/138
f 139/139/139 138/138/138 135/135/135
f 139/139/139 135/135/135 108/108/108
f 140/140/140 107/107/107 108/108/108
f 140/140/140 131/131/131 107/107/107
f 131/131/131 140/140/140 132/132/132
f 140/140/140 108/108/108 135/135/135
f 135/135/135 132/132/132 140/140/140
