g tb_10_mesh
v 0.21686214 -0.07107815 -0.16874391
v 0.21686214 -0.10252176 -0.15873912
v 0.18065435 -0.10252176 -0.18303645
v 0.25306994 -0.10252176 -0.12729551
v 0.25306994 -0.07107815 -0.13491821
v 0.18065435 -0.07107815 -0.19065914
v 0.14444657 -0.10252176 -0.197329
v 0.21686214 -0.045351565 -0.1582627
v 0.25306994 -0.03963454 -0.12681909
v 0.24211232 -0.005808845 -0.076318756
v 0.14444657 -0.07107815 -0.20352244
v 0.10871519 -0.10252176 -0.19589974
v 0.2078102 -0.016766474 -0.1034746
v 0.23067828 0.028016835 -0.09871042
v 0.17874868 -0.047257245 -0.17731944
v 0.10871519 -0.07107815 -0.20399885
v 0.07250741 -0.10252176 -0.19589974
v 0.19637616 0.017059237 -0.123484164
v 0.21972066 0.06184256 -0.123960584
v 0.17255524 -0.020101398 -0.12872477
v 0.14301732 -0.04868649 -0.18875347
v 0.07250741 -0.07107815 -0.19971108
v 0.036299616 -0.10252176 -0.19542332
v 0.10776237 -0.04916291 -0.19113556
v 0.13968238 -0.023436323 -0.14968717
v 0.16302688 0.013247877 -0.14492299
v 0.18351287 0.05612552 -0.14158806
v 0.036299616 -0.07107815 -0.19875824
v 9.1820955E-05 -0.10252176 -0.19494691
v 0.07203099 -0.04916291 -0.197329
v 0.10585669 -0.025342003 -0.16493255
v 0.18303645 0.098050326 -0.123484164
v 0.21972066 0.098050326 -0.11014445
v 0.18303645 0.13425812 -0.13682388
v 0.21972066 0.13425812 -0.11824356
v 0.21972066 0.17046592 -0.15635702
v 0.18303645 0.17189518 -0.16588539
v 0.21972066 0.20619729 -0.16112122
v 0.18303645 0.20619729 -0.17255524
v 0.14682865 0.13521096 -0.15206927
v 0.14635223 0.17189518 -0.17779586
v 0.14635223 0.20619729 -0.18160719
v 0.14778149 0.09566826 -0.14397015
v 0.10966803 0.17189518 -0.2001875
v 0.10966803 0.20619729 -0.18732421
v 0.11014445 0.13568738 -0.1792251
v 0.07298383 0.17189518 -0.21257438
v 0.07298383 0.20619729 -0.1868478
v 0.036299616 0.20619729 -0.18351287
v 0.1530221 0.053267032 -0.15397494
v 0.11157371 0.097097516 -0.17017315
v 0.07298383 0.13664022 -0.19065914
v 0.13110685 0.007530868 -0.15111643
v 0.114908636 0.050408512 -0.15873912
v 0.10252176 0.0008610189 -0.15635702
v 0.074413076 0.099956006 -0.17303166
v 0.074889496 0.06613031 -0.14873433
v 0.037252456 0.101385266 -0.17493734
v 0.036299616 0.13711664 -0.20304602
v 0.07203099 -0.025818422 -0.17064957
v 0.084417865 0.030398935 -0.171126
v 0.07060173 -9.1820955E-05 -0.15921554
v 0.047257245 0.028493255 -0.18541855
v 0.036299616 0.17189518 -0.21781498
v -0.0008610189 0.17189518 -0.22210275
v -0.0008610189 0.20619729 -0.17684302
v -0.00038459897 0.13711664 -0.20590453
v -0.037545204 0.17189518 -0.22305559
v -0.037545204 0.20619729 -0.16969675
v 0.03915812 -0.0024739206 -0.16397971
v 0.04011096 0.06422463 -0.16255046
v 9.1820955E-05 0.101385266 -0.18256003
v -0.037545204 0.13711664 -0.2182914
v -0.07422942 0.17189518 -0.22019708
v -0.07422942 0.20619729 -0.16159762
v 0.006761685 0.014677137 -0.17589018
v 0.0019975007 0.06136614 -0.19161198
v -0.037068784 0.100908846 -0.20114034
v -0.07422942 0.13711664 -0.22591409
v -0.110913634 0.17189518 -0.21686214
v -0.110913634 0.20619729 -0.15206927
v -0.036592394 0.06088972 -0.21162155
v -0.036115974 0.016582817 -0.17827228
v -0.07422942 0.101385266 -0.22114992
v -0.110913634 0.13759306 -0.23306037
v -0.14759785 0.17189518 -0.21162155
v -0.14759785 0.20619729 -0.13063043
v -0.18428203 0.20619729 -0.113002956
v -0.18428203 0.17189518 -0.20399885
v -0.14759785 0.13759306 -0.23687172
v -0.18428203 0.13759306 -0.23544246
v -0.14759785 0.103290945 -0.23496604
v -0.18428203 0.103290945 -0.23496604
v -0.110913634 0.102338105 -0.23734814
v -0.14759785 0.06851241 -0.21638572
v -0.18428203 0.06851241 -0.21638572
v -0.14759785 0.034210294 -0.19399408
v -0.18428203 0.034210294 -0.20638095
v -0.18428203 -9.1820955E-05 -0.197329
v -0.111390054 0.06565389 -0.21448006
v -0.07470584 0.06279537 -0.22877261
v -0.114724964 0.025634766 -0.18541855
v -0.12425333 -0.021530658 -0.17970152
v -0.16236681 -0.006761685 -0.18780063
v -0.07565868 0.020394146 -0.18256003
v -0.18237638 -0.037728876 -0.18494213
v -0.20095667 -0.025818422 -0.19399408
v -0.19905102 -0.06345546 -0.17970152
v -0.21763134 -0.05154501 -0.18351287
v -0.07708794 -0.019148558 -0.17350808
v -0.1566498 -0.07346025 -0.1820836
v -0.2119143 -0.083465025 -0.18065435
v -0.23430598 -0.077271596 -0.17731944
v -0.23430598 -0.115385056 -0.1844657
v -0.1804707 -0.10490385 -0.18541855
v -0.2119143 -0.11729072 -0.18589497
v -0.23430598 -0.1530221 -0.18351287
v -0.20286235 -0.14063522 -0.18541855
v -0.17141876 -0.12777193 -0.1868478
v -0.14902708 -0.09204055 -0.18541855
v -0.13997516 -0.115385056 -0.18780063
v -0.108531535 -0.10252176 -0.1897063
v -0.113295734 -0.077748016 -0.18494213
v -0.07232374 -0.07107815 -0.18589497
v -0.07232374 -0.10252176 -0.19256482
v -0.036115974 -0.10252176 -0.19399408
v -0.113295734 -0.05773844 -0.18113077
v -0.07565868 -0.04963933 -0.17827228
v -0.036115974 -0.07107815 -0.19018272
v -0.037068784 -0.04821007 -0.18398929
v 9.1820955E-05 -0.07107815 -0.19494691
v -0.037068784 -0.020577818 -0.17350808
v 9.1820955E-05 -0.04868649 -0.1920884
v 0.036299616 -0.04916291 -0.2025696
v 0.0010446608 -0.022959903 -0.17255524
v 0.036776036 -0.025342003 -0.16779107
vt 0.19784126 0.15929164
vt 0.2202249 0.15929164
vt 0.2202249 0.17172699
vt 0.2202249 0.14685628
vt 0.19784126 0.14685628
vt 0.19784126 0.17172699
vt 0.2202249 0.1854059
vt 0.18043174 0.15929164
vt 0.17670114 0.14685628
vt 0.15183042 0.15058689
vt 0.19784126 0.1854059
vt 0.2202249 0.19784126
vt 0.16053517 0.16302224
vt 0.12820323 0.15431748
vt 0.18167529 0.17297053
vt 0.19784126 0.19784126
vt 0.2202249 0.2102766
vt 0.13690798 0.16675285
vt 0.10457605 0.1580481
vt 0.16302224 0.1754576
vt 0.18291882 0.1854059
vt 0.19784126 0.2102766
vt 0.2202249 0.22395551
vt 0.18291882 0.19784126
vt 0.16426578 0.18664943
vt 0.13939506 0.17794468
vt 0.108306654 0.17048346
vt 0.19784126 0.22395551
vt 0.2202249 0.23639087
vt 0.18291882 0.2102766
vt 0.16550931 0.19908479
vt 0.07846179 0.17172699
vt 0.07846179 0.1580481
vt 0.053591073 0.17172699
vt 0.053591073 0.1580481
vt 0.027476814 0.1580481
vt 0.027476814 0.17172699
vt 0.0026060939 0.1580481
vt 0.0026060939 0.17172699
vt 0.052347533 0.18416235
vt 0.027476814 0.18416235
vt 0.0026060939 0.18416235
vt 0.08094887 0.18416235
vt 0.027476814 0.19784126
vt 0.0026060939 0.19784126
vt 0.052347533 0.19784126
vt 0.027476814 0.2102766
vt 0.0026060939 0.2102766
vt 0.0026060939 0.22395551
vt 0.110793725 0.18167529
vt 0.07970533 0.19659771
vt 0.052347533 0.2102766
vt 0.14312567 0.19038004
vt 0.112037264 0.19535418
vt 0.14809981 0.20032832
vt 0.07721826 0.2102766
vt 0.10208897 0.2102766
vt 0.07721826 0.22271197
vt 0.051103998 0.22395551
vt 0.16675285 0.2102766
vt 0.1269597 0.20654601
vt 0.14809981 0.21152015
vt 0.12820323 0.21898136
vt 0.027476814 0.22395551
vt 0.027476814 0.23639087
vt 0.0026060939 0.23639087
vt 0.051103998 0.23639087
vt 0.027476814 0.25006977
vt 0.0026060939 0.25006977
vt 0.15058689 0.22271197
vt 0.10333251 0.22271197
vt 0.07721826 0.23639087
vt 0.051103998 0.25006977
vt 0.027476814 0.2625051
vt 0.0026060939 0.2625051
vt 0.13815153 0.2339038
vt 0.10457605 0.23514733
vt 0.07721826 0.25006977
vt 0.051103998 0.2625051
vt 0.027476814 0.27618402
vt 0.0026060939 0.27618402
vt 0.10581958 0.24882622
vt 0.13690798 0.24882622
vt 0.07721826 0.2625051
vt 0.051103998 0.27618402
vt 0.027476814 0.28861937
vt 0.0026060939 0.28861937
vt 0.0026060939 0.30229828
vt 0.027476814 0.30229828
vt 0.051103998 0.28861937
vt 0.051103998 0.30229828
vt 0.07597472 0.28861937
vt 0.07597472 0.30229828
vt 0.07597472 0.27618402
vt 0.0996019 0.28861937
vt 0.0996019 0.30229828
vt 0.124472626 0.28861937
vt 0.124472626 0.30229828
vt 0.14809981 0.30229828
vt 0.10208897 0.27618402
vt 0.10457605 0.2625051
vt 0.1306903 0.27742755
vt 0.16302224 0.27991462
vt 0.15307395 0.29359353
vt 0.13317737 0.26374865
vt 0.1754576 0.30105475
vt 0.16675285 0.30727243
vt 0.1928671 0.30727243
vt 0.18416235 0.3134901
vt 0.1617787 0.26374865
vt 0.20032832 0.29235
vt 0.20778954 0.31224656
vt 0.2028154 0.31970778
vt 0.22892965 0.31970778
vt 0.22271197 0.30105475
vt 0.23141672 0.31224656
vt 0.25628746 0.31970778
vt 0.24758269 0.30851597
vt 0.23887794 0.29732412
vt 0.21276368 0.28986293
vt 0.22892965 0.2861323
vt 0.2202249 0.2749405
vt 0.2028154 0.27618402
vt 0.19784126 0.2625051
vt 0.2202249 0.2625051
vt 0.2202249 0.24882622
vt 0.1891365 0.27618402
vt 0.18291882 0.26374865
vt 0.19784126 0.24882622
vt 0.18291882 0.25006977
vt 0.19784126 0.23639087
vt 0.16302224 0.25006977
vt 0.18291882 0.23639087
vt 0.18291882 0.22395551
vt 0.16426578 0.23639087
vt 0.16550931 0.22271197
vn -0.5949411 -0.05890858 0.80160767
vn -0.5949411 0.24286824 0.76619846
vn -0.44405276 0.21772009 0.8691462
vn -0.6703853 0.19257206 0.71658885
vn -0.6703853 -0.033760548 0.74124473
vn -0.4189046 -0.1343528 0.89803576
vn -0.14227587 0.19257206 0.97091377
vn -0.4189046 -0.61216605 0.6706502
vn -0.44405276 -0.61216605 0.6542705
vn -0.544645 -0.3355373 0.7686199
vn -0.16742402 -0.18464893 0.9684389
vn 0.008612454 0.24286824 0.97002107
vn -0.4692008 -0.4361296 0.7678812
vn -0.62008923 0.2931643 0.7276978
vn -0.24286824 -0.71275836 0.6580202
vn 0.033760548 -0.1595009 0.98662037
vn 0.033760548 0.16742402 0.98530674
vn -0.56979305 0.24286824 0.7850802
vn -0.4692008 -0.033760548 0.88244593
vn -0.4692008 -0.3858335 0.7943445
vn -0.117127836 -0.71275836 0.69156104
vn 0.033760548 -0.033760548 0.9988596
vn 0.008612454 0.117127836 0.99307954
vn -0.06683171 -0.63731414 0.76770055
vn -0.2931643 -0.46127766 0.8374232
vn -0.4189046 0.16742402 0.89246184
vn -0.44405276 -0.05890858 0.89406204
vn 0.033760548 0.0919798 0.9951884
vn 0.084056675 -0.008612454 0.9964238
vn -0.117127836 -0.4361296 0.8922287
vn -0.24286824 -0.56187 0.79076993
vn -0.39375657 -0.033760548 0.9185946
vn -0.36860853 -0.033760548 0.92897147
vn -0.31831235 0.4692008 0.823728
vn -0.4189046 0.4189046 0.80562884
vn -0.26801628 0.4189046 0.8675749
vn -0.26801628 0.39375657 0.87927413
vn -0.26801628 0.16742402 0.9487552
vn -0.2931643 0.16742402 0.9412884
vn -0.4692008 0.36860853 0.8024826
vn -0.39375657 0.31831235 0.8623416
vn -0.2931643 -0.008612454 0.9560233
vn -0.4692008 -0.008612454 0.88304955
vn -0.36860853 0.117127836 0.9221761
vn -0.14227587 -0.41098154 0.90047306
vn -0.39375657 0.36860853 0.842071
vn -0.19257206 -0.05890858 0.97951305
vn 0.033760548 -0.587018 0.8088696
vn 0.008612454 -0.71275836 0.7013568
vn -0.24286824 -0.05890858 0.96826893
vn -0.26801628 0.26801628 0.92538345
vn -0.24286824 0.49434882 0.83464617
vn -0.19257206 0.06683171 0.9790044
vn -0.14227587 -0.008612454 0.98978955
vn -0.21772009 -0.033760548 0.9754272
vn -0.06683171 0.4692008 0.88055897
vn -0.0919798 -0.008612454 0.99572366
vn -0.24286824 0.39375657 0.88654995
vn -0.16742402 0.49434882 0.85298795
vn -0.06683171 -0.587018 0.8068106
vn -0.2931643 -0.05890858 0.9542455
vn -0.16742402 0.041683674 0.98500335
vn -0.06683171 -0.033760548 0.9971929
vn -0.117127836 -0.18464893 0.9758001
vn -0.0919798 -0.26009315 0.9611926
vn 0.084056675 -0.8133506 0.57566935
vn -0.19257206 0.44405276 0.8750618
vn -0.01653558 -0.4361296 0.89973193
vn 0.084056675 -0.83849865 0.53838134
vn -0.117127836 0.16742402 0.9789026
vn -0.39375657 -0.05890858 0.9173252
vn -0.2931643 0.16742402 0.9412884
vn -0.24286824 0.26801628 0.93229944
vn 0.033760548 -0.587018 0.8088696
vn 0.10920477 -0.86364675 0.49212658
vn -0.117127836 0.16742402 0.9789026
vn -0.44405276 0.117127836 0.88831204
vn -0.44405276 0.117127836 0.88831204
vn -0.19257206 -0.008612454 0.98124504
vn 0.05890858 -0.71275836 0.6989315
vn 0.1595009 -0.8887948 0.4296549
vn -0.39375657 0.21772009 0.89305866
vn -0.0919798 0.3434605 0.93465215
vn -0.31831235 0.0919798 0.9435131
vn -0.0919798 -0.20979702 0.97340894
vn 0.1343528 -0.7630545 0.6322161
vn 0.20979702 -0.9139429 0.34740987
vn 0.1595009 -0.9139429 0.37318617
vn 0.084056675 -0.8133506 0.57566935
vn 0.008612454 -0.26009315 0.9655451
vn 0.033760548 -0.3606854 0.93207633
vn 0.008612454 0.24286824 0.97002107
vn -0.01653558 0.24286824 0.9699184
vn -0.14227587 0.21772009 0.9655856
vn 0.008612454 0.519497 0.85442895
vn -0.06683171 0.44405276 0.89350474
vn -0.16742402 0.36860853 0.91438335
vn -0.31831235 0.24286824 0.9163472
vn -0.2931643 0.26801628 0.9177265
vn 0.10920477 0.4692008 0.87631327
vn -0.041683674 0.24286824 0.9691633
vn -0.041683674 0.39375657 0.91826916
vn -0.0919798 0.06683171 0.9935156
vn -0.21772009 0.21772009 0.95141786
vn -0.06683171 0.4692008 0.88055897
vn -0.14227587 0.21772009 0.9655856
vn -0.19257206 0.31831235 0.92822045
vn -0.01653558 0.0919798 0.9956236
vn 0.033760548 0.21772009 0.9754272
vn -0.06683171 0.01653558 0.99762726
vn 0.008612454 -0.05890858 0.9982262
vn 0.05890858 -0.084056675 0.99471813
vn 0.1343528 -0.033760548 0.9903583
vn 0.05890858 -0.084056675 0.99471813
vn 0.033760548 -0.084056675 0.9958889
vn 0.033760548 -0.05890858 0.99769235
vn 0.05890858 0.041683674 0.9973927
vn 0.033760548 0.041683674 0.9985603
vn 0.033760548 -0.033760548 0.9988596
vn 0.05890858 -0.10920477 0.9922722
vn 0.084056675 -0.084056675 0.9929093
vn 0.05890858 -0.1595009 0.9854386
vn 0.05890858 -0.18464893 0.9810375
vn 0.084056675 -0.23494506 0.96836734
vn 0.05890858 -0.20979702 0.9759687
vn 0.05890858 -0.1343528 0.98918104
vn 0.008612454 -0.1343528 0.99089617
vn 0.033760548 -0.20979702 0.97716194
vn 0.1343528 -0.1595009 0.9780127
vn 0.1343528 -0.2852412 0.9489925
vn 0.1595009 -0.033760548 0.98662037
vn 0.008612454 -0.1343528 0.99089617
vn 0.1343528 -0.41098154 0.90168923
vn 0.033760548 -0.3606854 0.93207633
vn -0.117127836 -0.2852412 0.9512721
vn -0.01653558 -0.48642573 0.87356544
g tb_10_mesh_0
f 3/3/3 2/2/2 1/1/1
f 1/1/1 2/2/2 4/4/4
f 4/4/4 5/5/5 1/1/1
f 1/1/1 6/6/6 3/3/3
f 7/7/7 3/3/3 6/6/6
f 8/8/8 1/1/1 5/5/5
f 6/6/6 1/1/1 8/8/8
f 5/5/5 9/9/9 8/8/8
f 8/8/8 9/9/9 10/10/10
f 6/6/6 11/11/11 7/7/7
f 12/12/12 7/7/7 11/11/11
f 10/10/10 13/13/13 8/8/8
f 13/13/13 10/10/10 14/14/14
f 8/8/8 15/15/15 6/6/6
f 11/11/11 6/6/6 15/15/15
f 15/15/15 8/8/8 13/13/13
f 11/11/11 16/16/16 12/12/12
f 17/17/17 12/12/12 16/16/16
f 14/14/14 18/18/18 13/13/13
f 18/18/18 14/14/14 19/19/19
f 13/13/13 20/20/20 15/15/15
f 20/20/20 13/13/13 18/18/18
f 15/15/15 21/21/21 11/11/11
f 16/16/16 11/11/11 21/21/21
f 21/21/21 15/15/15 20/20/20
f 16/16/16 22/22/22 17/17/17
f 23/23/23 17/17/17 22/22/22
f 21/21/21 24/24/24 16/16/16
f 22/22/22 16/16/16 24/24/24
f 20/20/20 25/25/25 21/21/21
f 24/24/24 21/21/21 25/25/25
f 18/18/18 26/26/26 20/20/20
f 25/25/25 20/20/20 26/26/26
f 19/19/19 27/27/27 18/18/18
f 26/26/26 18/18/18 27/27/27
f 22/22/22 28/28/28 23/23/23
f 29/29/29 23/23/23 28/28/28
f 24/24/24 30/30/30 22/22/22
f 28/28/28 22/22/22 30/30/30
f 25/25/25 31/31/31 24/24/24
f 30/30/30 24/24/24 31/31/31
f 32/32/32 27/27/27 19/19/19
f 19/19/19 33/33/33 32/32/32
f 34/34/34 32/32/32 33/33/33
f 33/33/33 35/35/35 34/34/34
f 34/34/34 35/35/35 36/36/36
f 36/36/36 37/37/37 34/34/34
f 37/37/37 36/36/36 38/38/38
f 38/38/38 39/39/39 37/37/37
f 32/32/32 34/34/34 40/40/40
f 40/40/40 34/34/34 37/37/37
f 41/41/41 37/37/37 39/39/39
f 37/37/37 41/41/41 40/40/40
f 39/39/39 42/42/42 41/41/41
f 27/27/27 32/32/32 43/43/43
f 40/40/40 43/43/43 32/32/32
f 44/44/44 41/41/41 42/42/42
f 42/42/42 45/45/45 44/44/44
f 46/46/46 40/40/40 41/41/41
f 41/41/41 44/44/44 46/46/46
f 47/47/47 44/44/44 45/45/45
f 45/45/45 48/48/48 47/47/47
f 47/47/47 48/48/48 49/49/49
f 43/43/43 50/50/50 27/27/27
f 27/27/27 50/50/50 26/26/26
f 51/51/51 43/43/43 40/40/40
f 40/40/40 46/46/46 51/51/51
f 52/52/52 46/46/46 44/44/44
f 44/44/44 47/47/47 52/52/52
f 53/53/53 26/26/26 50/50/50
f 26/26/26 53/53/53 25/25/25
f 54/54/54 50/50/50 43/43/43
f 50/50/50 54/54/54 53/53/53
f 43/43/43 51/51/51 54/54/54
f 25/25/25 53/53/53 55/55/55
f 55/55/55 53/53/53 54/54/54
f 55/55/55 31/31/31 25/25/25
f 56/56/56 51/51/51 46/46/46
f 46/46/46 52/52/52 56/56/56
f 57/57/57 54/54/54 51/51/51
f 51/51/51 56/56/56 57/57/57
f 58/58/58 56/56/56 52/52/52
f 57/57/57 56/56/56 58/58/58
f 59/59/59 52/52/52 47/47/47
f 52/52/52 59/59/59 58/58/58
f 60/60/60 31/31/31 55/55/55
f 31/31/31 60/60/60 30/30/30
f 54/54/54 61/61/61 55/55/55
f 54/54/54 57/57/57 61/61/61
f 62/62/62 55/55/55 61/61/61
f 55/55/55 62/62/62 60/60/60
f 63/63/63 61/61/61 57/57/57
f 63/63/63 62/62/62 61/61/61
f 47/47/47 64/64/64 59/59/59
f 49/49/49 64/64/64 47/47/47
f 65/65/65 64/64/64 49/49/49
f 49/49/49 66/66/66 65/65/65
f 67/67/67 59/59/59 64/64/64
f 64/64/64 65/65/65 67/67/67
f 68/68/68 65/65/65 66/66/66
f 66/66/66 69/69/69 68/68/68
f 60/60/60 62/62/62 70/70/70
f 70/70/70 62/62/62 63/63/63
f 57/57/57 71/71/71 63/63/63
f 58/58/58 71/71/71 57/57/57
f 72/72/72 58/58/58 59/59/59
f 59/59/59 67/67/67 72/72/72
f 73/73/73 67/67/67 65/65/65
f 65/65/65 68/68/68 73/73/73
f 74/74/74 68/68/68 69/69/69
f 69/69/69 75/75/75 74/74/74
f 76/76/76 63/63/63 71/71/71
f 76/76/76 70/70/70 63/63/63
f 77/77/77 71/71/71 58/58/58
f 58/58/58 72/72/72 77/77/77
f 71/71/71 77/77/77 76/76/76
f 78/78/78 72/72/72 67/67/67
f 67/67/67 73/73/73 78/78/78
f 79/79/79 73/73/73 68/68/68
f 68/68/68 74/74/74 79/79/79
f 80/80/80 74/74/74 75/75/75
f 75/75/75 81/81/81 80/80/80
f 82/82/82 77/77/77 72/72/72
f 72/72/72 78/78/78 82/82/82
f 83/83/83 76/76/76 77/77/77
f 77/77/77 82/82/82 83/83/83
f 84/84/84 78/78/78 73/73/73
f 73/73/73 79/79/79 84/84/84
f 85/85/85 79/79/79 74/74/74
f 74/74/74 80/80/80 85/85/85
f 86/86/86 80/80/80 81/81/81
f 81/81/81 87/87/87 86/86/86
f 86/86/86 87/87/87 88/88/88
f 88/88/88 89/89/89 86/86/86
f 80/80/80 86/86/86 90/90/90
f 90/90/90 86/86/86 89/89/89
f 90/90/90 85/85/85 80/80/80
f 89/89/89 91/91/91 90/90/90
f 92/92/92 90/90/90 91/91/91
f 85/85/85 90/90/90 92/92/92
f 91/91/91 93/93/93 92/92/92
f 79/79/79 85/85/85 94/94/94
f 92/92/92 94/94/94 85/85/85
f 94/94/94 84/84/84 79/79/79
f 95/95/95 92/92/92 93/93/93
f 94/94/94 92/92/92 95/95/95
f 93/93/93 96/96/96 95/95/95
f 97/97/97 95/95/95 96/96/96
f 96/96/96 98/98/98 97/97/97
f 97/97/97 98/98/98 99/99/99
f 95/95/95 100/100/100 94/94/94
f 84/84/84 94/94/94 100/100/100
f 100/100/100 95/95/95 97/97/97
f 100/100/100 101/101/101 84/84/84
f 78/78/78 84/84/84 101/101/101
f 101/101/101 82/82/82 78/78/78
f 101/101/101 100/100/100 102/102/102
f 97/97/97 102/102/102 100/100/100
f 103/103/103 102/102/102 97/97/97
f 97/97/97 104/104/104 103/103/103
f 99/99/99 104/104/104 97/97/97
f 82/82/82 101/101/101 105/105/105
f 102/102/102 105/105/105 101/101/101
f 105/105/105 102/102/102 103/103/103
f 105/105/105 83/83/83 82/82/82
f 106/106/106 104/104/104 99/99/99
f 103/103/103 104/104/104 106/106/106
f 99/99/99 107/107/107 106/106/106
f 108/108/108 106/106/106 107/107/107
f 107/107/107 109/109/109 108/108/108
f 83/83/83 105/105/105 110/110/110
f 103/103/103 110/110/110 105/105/105
f 106/106/106 108/108/108 111/111/111
f 106/106/106 111/111/111 103/103/103
f 112/112/112 108/108/108 109/109/109
f 109/109/109 113/113/113 112/112/112
f 112/112/112 113/113/113 114/114/114
f 115/115/115 108/108/108 112/112/112
f 111/111/111 108/108/108 115/115/115
f 114/114/114 116/116/116 112/112/112
f 112/112/112 116/116/116 115/115/115
f 116/116/116 114/114/114 117/117/117
f 117/117/117 118/118/118 116/116/116
f 116/116/116 118/118/118 119/119/119
f 119/119/119 115/115/115 116/116/116
f 120/120/120 115/115/115 119/119/119
f 115/115/115 120/120/120 111/111/111
f 119/119/119 121/121/121 120/120/120
f 120/120/120 121/121/121 122/122/122
f 111/111/111 120/120/120 123/123/123
f 122/122/122 123/123/123 120/120/120
f 124/124/124 123/123/123 122/122/122
f 122/122/122 125/125/125 124/124/124
f 124/124/124 125/125/125 126/126/126
f 123/123/123 127/127/127 111/111/111
f 127/127/127 123/123/123 124/124/124
f 103/103/103 111/111/111 127/127/127
f 103/103/103 127/127/127 128/128/128
f 124/124/124 128/128/128 127/127/127
f 128/128/128 110/110/110 103/103/103
f 126/126/126 129/129/129 124/124/124
f 129/129/129 126/126/126 29/29/29
f 130/130/130 128/128/128 124/124/124
f 110/110/110 128/128/128 130/130/130
f 124/124/124 129/129/129 130/130/130
f 29/29/29 131/131/131 129/129/129
f 28/28/28 131/131/131 29/29/29
f 130/130/130 132/132/132 110/110/110
f 110/110/110 132/132/132 83/83/83
f 133/133/133 130/130/130 129/129/129
f 129/129/129 131/131/131 133/133/133
f 132/132/132 130/130/130 133/133/133
f 131/131/131 28/28/28 134/134/134
f 134/134/134 133/133/133 131/131/131
f 30/30/30 134/134/134 28/28/28
f 134/134/134 30/30/30 60/60/60
f 83/83/83 132/132/132 135/135/135
f 133/133/133 135/135/135 132/132/132
f 135/135/135 76/76/76 83/83/83
f 70/70/70 76/76/76 135/135/135
f 60/60/60 136/136/136 134/134/134
f 133/133/133 134/134/134 136/136/136
f 136/136/136 135/135/135 133/133/133
f 135/135/135 136/136/136 70/70/70
f 70/70/70 136/136/136 60/60/60
