g tb_geo_meeple_p1c2_b_mesh
v -0.095077276 1.0985527 0.2731755
v 0.5529014 1.2991536 -0.8131733
v 0.5986922 1.0985531 0.24309984
v -0.14086807 1.2991532 -0.7830976
v -0.18705693 1.0978588 -0.47046152
v 0.64194655 1.6989771 -1.1788801
v 0.67104506 1.0978593 -0.5076612
v -0.21615538 1.6989766 -1.1416804
v 0.29258144 1.2268499 -0.49558645
v 1.491759 1.1943346 -0.37603974
v 0.48654437 1.1307707 0.0028667152
v 1.297796 1.2904139 -0.8744929
v 0.878204 1.201843 -0.6179929
v 2.0389624 1.1899934 -0.6058049
v 1.0365657 1.1250494 -0.21973693
v 1.8806006 1.266787 -1.0040609
v 1.6234455 1.252289 -0.9457953
v 2.7669787 1.280417 -1.1437604
v 1.8537599 1.1816448 -0.5830991
v 2.5366645 1.3510612 -1.5064566
v 0.6388626 1.1819816 -0.5533347
v 1.1806961 1.6618097 -1.1136152
v 1.2039232 1.1819818 -0.5778308
v 0.6156355 1.6618094 -1.0891191
v 0.24914683 1.1142116 0.9409752
v 0.5667198 1.2101245 -0.14565122
v 0.613142 1.1142117 0.9251956
v 0.20272456 1.2101244 -0.1298716
v 0.33407304 1.1851091 0.13804433
v 1.1421175 1.2184663 -0.2701089
v 0.61557114 1.1634302 0.3683361
v 0.8606194 1.2401452 -0.5004007
vt 0 0
vt 1 1
vt 1 0
vt 0 1
vt 0 0
vt 1 1
vt 1 0
vt 0 1
vt 0 0
vt 1 1
vt 1 0
vt 0 1
vt 0 0
vt 1 1
vt 1 0
vt 0 1
vt 0 0
vt 1 1
vt 1 0
vt 0 1
vt 0 0
vt 1 1
vt 1 0
vt 0 1
vt 0 0
vt 1 1
vt 1 0
vt 0 1
vt 0 0
vt 1 1
vt 1 0
vt 0 1
vn 0.008072959 0.9824722 0.18623483
vn 0.008072959 0.9824722 0.18623483
vn 0.008072959 0.9824722 0.18623483
vn 0.008072959 0.9824722 0.18623483
vn 0.028878493 0.74524707 0.6661627
vn 0.028878493 0.74524707 0.6661627
vn 0.028878493 0.74524707 0.6661627
vn 0.028878493 0.74524707 0.6661627
vn 0.008073565 0.9824721 0.18623461
vn 0.008073565 0.9824721 0.18623461
vn 0.008073565 0.9824721 0.18623461
vn 0.008073565 0.9824721 0.18623461
vn 0.008074055 0.9824721 0.1862344
vn 0.008074055 0.9824721 0.1862344
vn 0.008074055 0.9824721 0.1862344
vn 0.008074055 0.9824721 0.1862344
vn 0.008074192 0.9824721 0.18623427
vn 0.008074192 0.9824721 0.18623427
vn 0.008074192 0.9824721 0.18623427
vn 0.008074192 0.9824721 0.18623427
vn 0.028878603 0.7452472 0.6661627
vn 0.028878603 0.7452472 0.6661627
vn 0.028878603 0.7452472 0.6661627
vn 0.028878603 0.7452472 0.6661627
vn 0.0038596352 0.99602026 0.08904344
vn 0.0038596352 0.99602026 0.08904344
vn 0.0038596352 0.99602026 0.08904344
vn 0.0038596352 0.99602026 0.08904344
vn 0.0038601744 0.99602026 0.089043714
vn 0.0038601744 0.99602026 0.089043714
vn 0.0038601744 0.99602026 0.089043714
vn 0.0038601744 0.99602026 0.089043714
g tb_geo_meeple_p1c2_b_mesh_0
f 3/3/3 2/2/2 1/1/1
f 4/4/4 1/1/1 2/2/2
f 7/7/7 6/6/6 5/5/5
f 8/8/8 5/5/5 6/6/6
f 11/11/11 10/10/10 9/9/9
f 12/12/12 9/9/9 10/10/10
f 15/15/15 14/14/14 13/13/13
f 16/16/16 13/13/13 14/14/14
f 19/19/19 18/18/18 17/17/17
f 20/20/20 17/17/17 18/18/18
f 23/23/23 22/22/22 21/21/21
f 24/24/24 21/21/21 22/22/22
f 27/27/27 26/26/26 25/25/25
f 28/28/28 25/25/25 26/26/26
f 31/31/31 30/30/30 29/29/29
f 32/32/32 29/29/29 30/30/30
