g tb_geo_meeple_p2c1_a_mesh
v -0.25726765 2.096204 -0.17958504
v 0.74737483 2.1151865 0.82523566
v -0.25726765 2.0962043 0.82523566
v 0.74737483 2.1151862 -0.17958504
v 0.7375585 2.114929 0.18963534
v 1.0027615 2.11994 0.90503556
v 0.51252353 2.1106772 0.67996025
v 1.2277964 2.1241918 0.41471064
v -0.45676422 2.1025798 -0.37168354
v 0.028288364 2.111745 0.8177691
v -0.45676434 2.1025803 0.8177691
v 0.028288484 2.1117446 -0.37168354
vt 0 0
vt 1 1
vt 1 0
vt 0 1
vt 0 0
vt 1 1
vt 1 0
vt 0 1
vt 0 0
vt 1 1
vt 1 0
vt 0 1
vn -0.018891225 0.99982107 -5.757587E-07
vn -0.018891225 0.99982107 -5.757587E-07
vn -0.018891225 0.99982107 -5.757587E-07
vn -0.018891225 0.99982107 -5.757587E-07
vn -0.018890817 0.99982154 -6.021801E-07
vn -0.018890817 0.99982154 -6.021801E-07
vn -0.018890817 0.99982154 -6.021801E-07
vn -0.018890817 0.99982154 -6.021801E-07
vn -0.018891018 0.99982154 -4.6501358E-07
vn -0.018891018 0.99982154 -4.6501358E-07
vn -0.018891018 0.99982154 -4.6501358E-07
vn -0.018891018 0.99982154 -4.6501358E-07
g tb_geo_meeple_p2c1_a_mesh_0
f 3/3/3 2/2/2 1/1/1
f 4/4/4 1/1/1 2/2/2
f 7/7/7 6/6/6 5/5/5
f 8/8/8 5/5/5 6/6/6
f 11/11/11 10/10/10 9/9/9
f 12/12/12 9/9/9 10/10/10
