g tb_geo_light_section_12_mesh
v -1.2211263 0.035722114 0.23232576
v -1.2052246 0.035722114 0.22943452
v -1.1907685 0.035722114 0.23232576
v -1.2341369 0.035722114 0.24244505
v -1.1763123 0.035722114 0.24244505
v -1.2442561 0.035722114 0.25545558
v -1.1676385 0.035722114 0.25545558
v -1.1647474 0.035722114 0.27135736
v -1.2471474 0.035722114 0.27135736
v -1.2442561 0.035722114 0.2858135
v -1.1676385 0.035722114 0.2858135
v -1.2341369 0.035722114 0.30026966
v -1.1763123 0.035722114 0.30026966
v -1.2211263 0.035722114 0.30894333
v -1.1907685 0.035722114 0.30894333
v -1.2052246 0.035722114 0.31183457
v -1.2746141 0.035722114 0.3841153
v -1.3064176 0.035722114 0.3841153
v -1.2905159 0.035722114 0.3812241
v -1.3194282 0.035722114 0.39423463
v -1.2616036 0.035722114 0.39423463
v -1.3281019 0.035722114 0.40724516
v -1.2529299 0.035722114 0.40724516
v -1.330993 0.035722114 0.42314693
v -1.2500386 0.035722114 0.42314693
v -1.3281019 0.035722114 0.4376031
v -1.2529299 0.035722114 0.4376031
v -1.3194282 0.035722114 0.45205924
v -1.2616036 0.035722114 0.45205924
v -1.3064176 0.035722114 0.4607329
v -1.2746141 0.035722114 0.4607329
v -1.2905159 0.035722114 0.46362415
v -0.9927192 0.17594677 0.23810822
v -0.9869367 0.17594677 0.27280298
v -1.015849 0.17594677 0.21497837
v -1.0621088 0.17594677 0.39134338
v -1.0433158 0.17594677 0.20196784
v -1.034642 0.17594677 0.38845217
v -0.9941648 0.17594677 0.33641002
v -0.99850166 0.17594677 0.35664862
v -0.978263 0.17594677 0.32918194
v -1.1647474 0.17594677 0.27135736
v -1.1676385 0.17594677 0.25545558
v -1.1676385 0.17594677 0.2858135
v -1.1242702 0.17594677 0.19618538
v -1.1763123 0.17594677 0.24244505
v -1.1907685 0.17594677 0.23232576
v -1.1633017 0.17594677 0.160045
v -1.2052246 0.17594677 0.22943452
v -1.2095615 0.17594677 0.14848009
v -1.2211263 0.17594677 0.23232576
v -1.1763123 0.17594677 0.30026966
v -1.2644948 0.17594677 0.15570816
v -1.2341369 0.17594677 0.24244505
v -1.2442561 0.17594677 0.25545558
v -1.2746141 0.17594677 0.3841153
v -1.2471474 0.17594677 0.27135736
v -1.2442561 0.17594677 0.2858135
v -1.2341369 0.17594677 0.30026966
v -1.1907685 0.17594677 0.30894333
v -1.2211263 0.17594677 0.30894333
v -1.2861791 0.17594677 0.16149062
v -1.2616036 0.17594677 0.39423463
v -1.2052246 0.17594677 0.31183457
v -1.2905159 0.17594677 0.3812241
v -1.3064176 0.17594677 0.3841153
v -1.3194282 0.17594677 0.39423463
v -1.2529299 0.17594677 0.40724516
v -1.342558 0.17594677 0.13836078
v -1.3281019 0.17594677 0.40724516
v -1.330993 0.17594677 0.42314693
v -1.3671335 0.17594677 0.55614346
v -1.3281019 0.17594677 0.4376031
v -1.3729159 0.17594677 0.13257831
v -1.455316 0.17594677 0.12535024
v -1.455316 0.17594677 0.58071893
v -1.3194282 0.17594677 0.45205924
v -1.2731684 0.17594677 0.56192595
v -1.3064176 0.17594677 0.4607329
v -1.2905159 0.17594677 0.46362415
v -1.2746141 0.17594677 0.4607329
v -1.2182351 0.17594677 0.5359049
v -1.2514843 0.17594677 0.57493645
v -1.2616036 0.17594677 0.45205924
v -1.211007 0.17594677 0.47085223
v -1.2008878 0.17594677 0.45639607
v -1.2529299 0.17594677 0.4376031
v -1.2500386 0.17594677 0.42314693
v -1.1820947 0.17594677 0.45205924
v -1.1560737 0.17594677 0.45639607
v -1.1112596 0.17594677 0.44338554
v -1.0910211 0.17594677 0.43904868
v -1.2832878 0.08198179 0.1022204
v -1.2832878 -0.0004182607 0.08198179
v -1.2616036 -0.0004182607 0.06897126
v -1.2616036 0.090655476 0.08487302
v -1.203779 0.090655476 0.07475372
v -1.2008878 -0.0004182607 0.058851954
v -1.1531825 -0.0004182607 0.079090565
v -1.1575193 0.08920987 0.09354672
v -1.1011403 -0.0004182607 0.12245901
v -1.203779 0.1108941 0.09354672
v -1.1690842 0.10800287 0.10655725
v -1.109814 0.08920987 0.13691516
v -1.2616036 0.11378533 0.10366602
v -1.0404245 0.08920987 0.13257831
v -1.0389788 -0.0004182607 0.11378533
v -0.9869367 -0.0004182607 0.14414324
v -1.2052246 0.11956778 0.11523093
v -1.2760597 0.10944848 0.11956778
v -1.2616036 0.11956778 0.12679586
v -1.3440037 0.10944848 0.094992325
v -1.342558 0.08198179 0.08631864
v -1.3758072 0.10800287 0.08776425
v -1.3758072 0.08053617 0.077644944
v -1.455316 0.10800287 0.0834274
v -1.455316 0.08053617 0.06752564
v -1.455316 0.14125201 0.10077478
v -1.3758072 0.14125201 0.10511163
v -1.455316 0.17594677 0.12535024
v -1.3729159 0.17594677 0.13257831
v -1.342558 0.14125201 0.1108941
v -1.342558 0.17594677 0.13836078
v -1.2832878 0.14125201 0.13546956
v -1.2861791 0.17594677 0.16149062
v -1.2644948 0.17594677 0.15570816
v -1.2095615 0.17594677 0.14848009
v -1.1589649 0.14125201 0.14125201
v -1.1633017 0.17594677 0.160045
v -1.1184877 0.14125201 0.17594677
v -1.1242702 0.17594677 0.19618538
v -1.1141509 0.10366602 0.15859939
v -1.0490981 0.14125201 0.18462045
v -1.0433158 0.17594677 0.20196784
v -1.0476526 0.10077478 0.15137132
v -1.0071753 0.13980639 0.20919591
v -1.015849 0.17594677 0.21497837
v -0.9927192 0.17594677 0.23810822
v -0.9927192 0.08776425 0.1701643
v -1.0028385 0.10077478 0.1889573
v -0.95224196 0.08776425 0.21642399
v -0.9435683 -0.02065687 0.17739238
v -0.9320034 -0.016320026 0.24967313
v -0.978263 0.13980639 0.24244505
v -0.9869367 0.17594677 0.27280298
v -0.96814376 0.1022204 0.23232576
v -0.94645953 0.08631864 0.24389067
v -0.9479051 -0.017765641 0.2756942
v -0.96814376 0.08487302 0.2771398
v -0.9623613 0.10077478 0.26702052
v -0.97103494 0.13980639 0.2771398
v -0.978263 0.17594677 0.32918194
v -0.97681737 0.14125201 0.34652933
v -0.9941648 0.17594677 0.33641002
v -0.9869367 0.13980639 0.35086617
v -0.96814376 0.08487302 0.2771398
v -0.96958935 0.08487302 0.35809425
v -0.9609157 -0.0062007215 0.3537574
v -0.9479051 -0.017765641 0.2756942
v -1.0071753 -0.0004182607 0.42314693
v -1.0071753 0.08776425 0.42459255
v -0.98549116 0.13980639 0.3624311
v -0.9869367 0.13980639 0.35086617
v -1.0360876 0.08631864 0.4289294
v -1.0360876 -0.0004182607 0.42748377
v -1.0216315 0.13980639 0.40435392
v -1.0490981 0.13980639 0.40579954
v -0.99850166 0.17594677 0.35664862
v -0.9941648 0.17594677 0.33641002
v -1.034642 0.17594677 0.38845217
v -1.0621088 0.17594677 0.39134338
v -1.1112596 0.17594677 0.44338554
v -1.0910211 0.17594677 0.43904868
v -1.0982491 0.11956778 0.44772238
v -1.0664456 0.1210134 0.4578417
v -1.1040316 0.09932917 0.47085223
v -1.0490981 0.13980639 0.40579954
v -1.0621088 0.17594677 0.39134338
v -1.0360876 0.08631864 0.4289294
v -1.072228 0.08776425 0.48675397
v -1.0360876 -0.0004182607 0.42748377
v -1.0649999 -0.0004182607 0.5055469
v -1.1430632 -0.0004182607 0.51566625
v -1.1517369 0.08631864 0.4954277
v -1.1792035 -0.0004182607 0.4910908
v -1.1792035 0.08776425 0.4780803
v -1.1936597 -0.0004182607 0.48819962
v -1.1589649 0.13980639 0.4795259
v -1.1040316 0.09932917 0.47085223
v -1.0982491 0.11956778 0.44772238
v -1.1112596 0.17594677 0.44338554
v -1.1560737 0.17594677 0.45639607
v -1.1792035 0.13980639 0.47085223
v -1.1820947 0.17594677 0.45205924
v -1.1936597 0.13980639 0.47229785
v -1.2008878 0.17594677 0.45639607
v -1.211007 0.17594677 0.47085223
v -1.1936597 0.08631864 0.47374344
v -1.2023333 0.13980639 0.48097154
v -1.2182351 0.17594677 0.5359049
v -1.2023333 0.08631864 0.48241714
v -1.1994421 -0.0004182607 0.49831888
v -1.2066702 0.13980639 0.5373505
v -1.2514843 0.17594677 0.57493645
v -1.2066702 0.08631864 0.5402417
v -1.203779 -0.0004182607 0.55036104
v -1.2500386 -0.0004182607 0.587947
v -1.260158 0.08776425 0.5966207
v -1.2717229 -0.0004182607 0.5763821
v -1.2818422 0.08631864 0.58505577
v -1.260158 0.14125201 0.59806633
v -1.2818422 0.14125201 0.58650136
v -1.2731684 0.17594677 0.56192595
v -1.3671335 0.17594677 0.55614346
v -1.3671335 0.13980639 0.5763821
v -1.455316 0.17594677 0.58071893
v -1.455316 0.13980639 0.59806633
v -1.455316 0.08776425 0.5995119
v -1.3671335 0.08631864 0.5763821
v -1.3772528 -0.0004182607 0.5778277
v -1.455316 -0.0004182607 0.60240316
v -1.3642422 -0.0004182607 0.59083825
v -1.3772528 -0.0004182607 0.5778277
v -1.2775053 -0.0004182607 0.59806633
v -1.2717229 -0.0004182607 0.5763821
v -1.203779 -0.0004182607 0.55036104
v -1.1994421 -0.0004182607 0.49831888
v -1.1936597 -0.0004182607 0.48819962
v -1.1792035 -0.0004182607 0.4910908
v -1.1430632 -0.0004182607 0.51566625
v -1.1401719 -0.013428795 0.5677084
v -1.0649999 -0.0004182607 0.5055469
v -1.2500386 -0.0004182607 0.587947
v -1.0447613 -0.013428795 0.5532522
v -1.0360876 -0.0004182607 0.42748377
v -0.9724806 -0.013428795 0.5200031
v -1.0071753 -0.0004182607 0.42314693
v -0.90453666 -0.013428795 0.48530838
v -0.9609157 -0.0062007215 0.3537574
v -0.8857437 -0.009091951 0.39423463
v -0.9479051 -0.017765641 0.2756942
v -0.88718927 -0.0235481 0.28725913
v -0.9320034 -0.016320026 0.24967313
v -0.88140684 -0.0235481 0.28147665
v -0.92911214 -0.022102484 0.18317485
v -0.9435683 -0.02065687 0.17739238
v -0.86405945 -0.019211255 0.31761703
v -0.88140684 -0.0235481 0.28147665
v -0.9912735 -0.0004182607 0.57493645
v -1.0592175 -0.0004182607 0.6168593
v -0.9536876 -0.0004182607 0.5763821
v -0.90453666 -0.0004182607 0.5995119
v -1.1387264 -0.0004182607 0.60963124
v -0.8177998 0.00825543 0.5763821
v -1.2211263 -0.0076463353 0.6269786
v -1.1979965 -0.0004182607 0.65010846
v -1.2399193 -0.0004182607 0.71516114
v -0.78599626 -0.013428795 0.42459255
v -1.2775053 -0.0004182607 0.59806633
v -1.2717229 -0.0004182607 0.5763821
v -1.3411124 -0.010537566 0.6949225
v -1.2500386 -0.0004182607 0.7700945
v -1.3642422 -0.0004182607 0.59083825
v -1.3772528 -0.0004182607 0.5778277
v -1.455316 -0.0004182607 0.60240316
v -0.7614208 -0.0062007215 0.43471184
v -0.7614208 0.01692912 0.58071893
v -0.79756117 -0.019211255 0.39568025
v -0.8264735 -0.0235481 0.3638767
v -0.8481577 -0.0235481 0.33930126
v -0.8597226 -0.02065687 0.32773635
v -0.86405945 -0.019211255 0.31761703
v -1.2399193 -0.0004182607 0.71516114
v -1.1777579 0.11956778 0.7700945
v -1.2500386 -0.0004182607 0.7700945
v -1.1792035 0.12535024 0.7252804
v -1.1979965 -0.0004182607 0.65010846
v -1.0317508 0.16149062 0.7700945
v -1.1474 0.116676554 0.6833576
v -1.1387264 -0.0004182607 0.60963124
v -1.0939122 0.116676554 0.6717927
v -1.0592175 -0.0004182607 0.6168593
v -1.0259683 0.10944848 0.69203126
v -0.9652525 0.160045 0.7700945
v -0.9724806 0.10366602 0.6602278
v -0.9912735 -0.0004182607 0.57493645
v -0.9536876 -0.0004182607 0.5763821
v -0.92911214 0.10077478 0.6645646
v -0.9088735 0.15570816 0.7700945
v -0.90453666 -0.0004182607 0.5995119
v -0.8857437 0.096437946 0.69203126
v -0.8322559 0.15281692 0.7700945
v -0.8192454 0.08198179 0.66890144
v -0.8177998 0.00825543 0.5763821
v -0.7614208 0.01692912 0.58071893
v -0.7614208 0.042950187 0.6125225
v -0.7614208 0.094992325 0.6717927
v -0.7614208 0.14848009 0.7498559
v -0.76864886 0.160045 0.7700945
v -0.7614208 0.160045 0.7700945
v -1.4379686 -0.0004182607 0.03138527
v -1.455316 -0.0004182607 0.0443958
v -1.455316 -0.0004182607 0.022711579
v -1.380144 -0.0004182607 0.02560281
v -1.3758072 -0.0004182607 0.042950187
v -1.3367755 -0.0004182607 0.041504573
v -1.3266562 -0.0004182607 0.028494038
v -1.2934071 -0.0004182607 0.029939651
v -1.2962984 -0.0004182607 0.06318879
v -1.2616036 -0.0004182607 0.06897126
v -1.2832878 -0.0004182607 0.08198179
v -1.2934071 -0.0004182607 0.029939651
v -1.2558211 -0.0033094902 0.03138527
v -1.2008878 -0.0033094902 0.034276497
v -1.2558211 -0.0033094902 0.03138527
v -1.2008878 -0.0004182607 0.058851954
v -1.1531825 -0.0004182607 0.079090565
v -1.1445087 -0.0004182607 0.07041687
v -1.1011403 -0.0004182607 0.12245901
v -1.1069227 -0.0018638764 0.094992325
v -1.0389788 -0.004755106 0.094992325
v -1.0389788 -0.0004182607 0.11378533
v -1.0389788 -0.004755106 0.094992325
v -1.0028385 -0.009091951 0.094992325
v -0.9869367 -0.0004182607 0.14414324
v -0.98259985 -0.0062007215 0.118122175
v -0.9479051 -0.02065687 0.15570816
v -0.98259985 -0.0062007215 0.118122175
v -0.9479051 -0.02065687 0.15570816
v -0.93489456 -0.02065687 0.1701643
v -0.92911214 -0.022102484 0.18317485
v -1.3758072 0.08053617 0.077644944
v -1.455316 0.08053617 0.06752564
v -1.436523 0.077644944 0.0443958
v -1.455316 -0.0004182607 0.0443958
v -1.4379686 -0.0004182607 0.03138527
v -1.3758072 -0.0004182607 0.042950187
v -1.3758072 0.07619934 0.05740634
v -1.3411124 0.077644944 0.054515105
v -1.3367755 -0.0004182607 0.041504573
v -1.342558 0.08198179 0.08631864
v -1.2962984 -0.0004182607 0.06318879
v -1.3006352 0.07619934 0.07619934
v -1.2832878 0.08198179 0.1022204
v -1.2832878 -0.0004182607 0.08198179
v -1.3194282 0.17594677 0.45205924
v -1.3281019 0.17594677 0.4376031
v -1.3281019 0.035722114 0.4376031
v -1.3194282 0.035722114 0.45205924
v -1.330993 0.035722114 0.42314693
v -1.3064176 0.17594677 0.4607329
v -1.330993 0.17594677 0.42314693
v -1.3064176 0.035722114 0.4607329
v -1.3281019 0.035722114 0.40724516
v -1.2905159 0.17594677 0.46362415
v -1.3281019 0.17594677 0.40724516
v -1.2905159 0.035722114 0.46362415
v -1.3194282 0.035722114 0.39423463
v -1.2746141 0.17594677 0.4607329
v -1.3194282 0.17594677 0.39423463
v -1.2746141 0.035722114 0.4607329
v -1.3064176 0.035722114 0.3841153
v -1.2616036 0.17594677 0.45205924
v -1.3064176 0.17594677 0.3841153
v -1.2616036 0.035722114 0.45205924
v -1.2905159 0.035722114 0.3812241
v -1.2529299 0.17594677 0.4376031
v -1.2905159 0.17594677 0.3812241
v -1.2529299 0.035722114 0.4376031
v -1.2746141 0.035722114 0.3841153
v -1.2500386 0.17594677 0.42314693
v -1.2746141 0.17594677 0.3841153
v -1.2500386 0.035722114 0.42314693
v -1.2616036 0.035722114 0.39423463
v -1.2529299 0.17594677 0.40724516
v -1.2616036 0.17594677 0.39423463
v -1.2529299 0.035722114 0.40724516
v -1.2052246 0.17594677 0.31183457
v -1.2211263 0.035722114 0.30894333
v -1.2052246 0.035722114 0.31183457
v -1.2211263 0.17594677 0.30894333
v -1.1907685 0.17594677 0.30894333
v -1.2341369 0.035722114 0.30026966
v -1.1907685 0.035722114 0.30894333
v -1.2341369 0.17594677 0.30026966
v -1.1763123 0.17594677 0.30026966
v -1.2442561 0.035722114 0.2858135
v -1.1763123 0.035722114 0.30026966
v -1.2442561 0.17594677 0.2858135
v -1.1676385 0.17594677 0.2858135
v -1.2471474 0.035722114 0.27135736
v -1.1676385 0.035722114 0.2858135
v -1.2471474 0.17594677 0.27135736
v -1.1647474 0.17594677 0.27135736
v -1.2442561 0.035722114 0.25545558
v -1.1647474 0.035722114 0.27135736
v -1.2442561 0.17594677 0.25545558
v -1.1676385 0.17594677 0.25545558
v -1.2341369 0.035722114 0.24244505
v -1.1676385 0.035722114 0.25545558
v -1.2341369 0.17594677 0.24244505
v -1.1763123 0.17594677 0.24244505
v -1.2211263 0.035722114 0.23232576
v -1.1763123 0.035722114 0.24244505
v -1.2211263 0.17594677 0.23232576
v -1.1907685 0.17594677 0.23232576
v -1.2052246 0.035722114 0.22943452
v -1.1907685 0.035722114 0.23232576
v -1.2052246 0.17594677 0.22943452
vt 0.07471167 0.31994548
vt 0.076555535 0.31994548
vt 0.076555535 0.31994548
vt 0.07471167 0.31994548
vt 0.0783994 0.31994548
vt 0.0728678 0.3181016
vt 0.0783994 0.3181016
vt 0.0783994 0.3181016
vt 0.0728678 0.3181016
vt 0.0728678 0.31625775
vt 0.0783994 0.31625775
vt 0.07471167 0.31625775
vt 0.0783994 0.31625775
vt 0.07471167 0.31441388
vt 0.076555535 0.31441388
vt 0.076555535 0.31441388
vt 0.05074145 0.25541025
vt 0.048897587 0.25541025
vt 0.05074145 0.25541025
vt 0.048897587 0.25356638
vt 0.05258531 0.25356638
vt 0.04705372 0.25356638
vt 0.05258531 0.25356638
vt 0.04705372 0.25172254
vt 0.05258531 0.25172254
vt 0.04705372 0.24987867
vt 0.05258531 0.24987867
vt 0.048897587 0.24987867
vt 0.05258531 0.24987867
vt 0.048897587 0.2480348
vt 0.05074145 0.2480348
vt 0.05074145 0.2480348
vt 0.124495976 0.32732093
vt 0.12633984 0.31625775
vt 0.12080825 0.33654025
vt 0.11158893 0.27016118
vt 0.11527666 0.34207183
vt 0.11712052 0.2738489
vt 0.124495976 0.2941314
vt 0.124495976 0.28675595
vt 0.12818371 0.2978191
vt 0.09130644 0.3181016
vt 0.08946257 0.3236332
vt 0.08946257 0.31072617
vt 0.09868189 0.3476034
vt 0.08577485 0.3291648
vt 0.08208712 0.3328525
vt 0.08761871 0.36235434
vt 0.076555535 0.33469638
vt 0.07471167 0.36788592
vt 0.06918008 0.3328525
vt 0.08577485 0.30519456
vt 0.05627304 0.36788592
vt 0.065492354 0.3291648
vt 0.061804626 0.3236332
vt 0.054429173 0.2683173
vt 0.061804626 0.3181016
vt 0.061804626 0.31072617
vt 0.065492354 0.30519456
vt 0.08208712 0.30150685
vt 0.07102394 0.30150685
vt 0.05074145 0.36604205
vt 0.059960764 0.26462957
vt 0.076555535 0.30150685
vt 0.05074145 0.2683173
vt 0.04520986 0.2683173
vt 0.041522134 0.26462957
vt 0.06364849 0.259098
vt 0.035990544 0.37710524
vt 0.037834406 0.259098
vt 0.037834406 0.25172254
vt 0.026771229 0.19271892
vt 0.037834406 0.24434708
vt 0.026771229 0.3789491
vt 0.0064887344 0.38448068
vt 0.0064887344 0.17981188
vt 0.039678268 0.2388155
vt 0.05258531 0.19456278
vt 0.04520986 0.23512778
vt 0.05074145 0.23512778
vt 0.05627304 0.23512778
vt 0.06733622 0.2037821
vt 0.0581169 0.19271892
vt 0.059960764 0.2388155
vt 0.0728678 0.22222073
vt 0.0783994 0.22959618
vt 0.06364849 0.24434708
vt 0.065492354 0.25172254
vt 0.083930984 0.23144004
vt 0.09130644 0.2332839
vt 0.102369614 0.24065936
vt 0.10974507 0.24434708
vt 0.0581169 0.4195141
vt 0.061804626 0.45270362
vt 0.06918008 0.45639133
vt 0.06733622 0.41767022
vt 0.08208712 0.41582635
vt 0.08761871 0.4582352
vt 0.104213476 0.4490159
vt 0.09683803 0.41029477
vt 0.12265211 0.43057728
vt 0.08024326 0.4047632
vt 0.09130644 0.39923158
vt 0.11158893 0.3937
vt 0.06364849 0.40660703
vt 0.12818371 0.38448068
vt 0.14109075 0.42688954
vt 0.15584165 0.40291932
vt 0.08024326 0.39554387
vt 0.0581169 0.40291932
vt 0.061804626 0.3973877
vt 0.037834406 0.41213864
vt 0.039678268 0.4232018
vt 0.026771229 0.41582635
vt 0.028615093 0.42688954
vt 0.0064887344 0.4195141
vt 0.0064887344 0.43610886
vt 0.0064887344 0.40291932
vt 0.026771229 0.39923158
vt 0.0064887344 0.38448068
vt 0.026771229 0.3789491
vt 0.037834406 0.39554387
vt 0.035990544 0.37710524
vt 0.054429173 0.38816842
vt 0.05074145 0.36604205
vt 0.05627304 0.36788592
vt 0.07471167 0.36788592
vt 0.09130644 0.3789491
vt 0.08761871 0.36235434
vt 0.104213476 0.36604205
vt 0.09868189 0.3476034
vt 0.10790121 0.38263682
vt 0.11896438 0.35682273
vt 0.11527666 0.34207183
vt 0.124495976 0.37710524
vt 0.12818371 0.3439157
vt 0.12080825 0.33654025
vt 0.124495976 0.32732093
vt 0.14109075 0.36788592
vt 0.13555916 0.3586666
vt 0.1484662 0.3439157
vt 0.17059256 0.38079295
vt 0.17428029 0.33654025
vt 0.1337153 0.3291648
vt 0.12633984 0.31625775
vt 0.14293462 0.33654025
vt 0.15031007 0.3328525
vt 0.17243642 0.3181016
vt 0.15031007 0.31625775
vt 0.14662234 0.32178932
vt 0.13555916 0.31625775
vt 0.12818371 0.2978191
vt 0.13740303 0.29044366
vt 0.124495976 0.2941314
vt 0.13555916 0.28675595
vt 0.15031007 0.31625775
vt 0.1484662 0.28122434
vt 0.17059256 0.27200502
vt 0.17243642 0.3181016
vt 0.15952939 0.23144004
vt 0.14109075 0.25172254
vt 0.1337153 0.2830682
vt 0.13555916 0.28675595
vt 0.13555916 0.24250323
vt 0.15215392 0.22406459
vt 0.12818371 0.26462957
vt 0.12265211 0.259098
vt 0.124495976 0.28675595
vt 0.124495976 0.2941314
vt 0.11712052 0.2738489
vt 0.11158893 0.27016118
vt 0.102369614 0.24065936
vt 0.10974507 0.24434708
vt 0.113432795 0.22406459
vt 0.12080825 0.22959618
vt 0.11527666 0.21300142
vt 0.12265211 0.259098
vt 0.11158893 0.27016118
vt 0.13555916 0.24250323
vt 0.124495976 0.21115755
vt 0.15215392 0.22406459
vt 0.14109075 0.17612416
vt 0.11712052 0.15952939
vt 0.106057346 0.19640665
vt 0.106057346 0.16137324
vt 0.09683803 0.19271892
vt 0.102369614 0.16137324
vt 0.09683803 0.21484527
vt 0.11527666 0.21300142
vt 0.113432795 0.22406459
vt 0.102369614 0.24065936
vt 0.09130644 0.2332839
vt 0.08946257 0.21300142
vt 0.083930984 0.23144004
vt 0.08577485 0.20931369
vt 0.0783994 0.22959618
vt 0.0728678 0.22222073
vt 0.0931503 0.1890312
vt 0.08208712 0.20562597
vt 0.06733622 0.2037821
vt 0.08946257 0.18718733
vt 0.09868189 0.15768552
vt 0.07471167 0.19456278
vt 0.0581169 0.19271892
vt 0.08208712 0.17796801
vt 0.094994165 0.14662234
vt 0.08024326 0.12818371
vt 0.06364849 0.16137324
vt 0.0728678 0.124495976
vt 0.05627304 0.15768552
vt 0.059960764 0.17796801
vt 0.05258531 0.17796801
vt 0.05258531 0.19456278
vt 0.026771229 0.19271892
vt 0.028615093 0.17428029
vt 0.0064887344 0.17981188
vt 0.0064887344 0.16506097
vt 0.0064887344 0.14293462
vt 0.03230282 0.15031007
vt 0.03230282 0.11527666
vt 0.0064887344 0.104213476
vt 0.037834406 0.11158893
vt 0.03230282 0.11527666
vt 0.06733622 0.11896438
vt 0.0728678 0.124495976
vt 0.094994165 0.14662234
vt 0.09868189 0.15768552
vt 0.102369614 0.16137324
vt 0.106057346 0.16137324
vt 0.11712052 0.15952939
vt 0.11896438 0.13924688
vt 0.14109075 0.17612416
vt 0.08024326 0.12818371
vt 0.1484662 0.15768552
vt 0.15215392 0.22406459
vt 0.17059256 0.17612416
vt 0.15952939 0.23144004
vt 0.19087505 0.1982505
vt 0.17059256 0.27200502
vt 0.19271892 0.24987867
vt 0.17243642 0.3181016
vt 0.1890312 0.31441388
vt 0.17428029 0.33654025
vt 0.19087505 0.3181016
vt 0.17428029 0.3789491
vt 0.17059256 0.38079295
vt 0.19640665 0.29597527
vt 0.19087505 0.3181016
vt 0.16690484 0.14293462
vt 0.14662234 0.12080825
vt 0.17796801 0.14293462
vt 0.19456278 0.1337153
vt 0.12080825 0.11527666
vt 0.21853301 0.14662234
vt 0.09130644 0.106057346
vt 0.10052575 0.0931503
vt 0.08946257 0.0581169
vt 0.22406459 0.23512778
vt 0.06733622 0.11896438
vt 0.0728678 0.124495976
vt 0.05258531 0.061804626
vt 0.08761871 0.035990544
vt 0.037834406 0.11158893
vt 0.03230282 0.11527666
vt 0.0064887344 0.104213476
vt 0.23144004 0.22959618
vt 0.2332839 0.14477848
vt 0.21853301 0.24987867
vt 0.20746982 0.2683173
vt 0.20009437 0.2830682
vt 0.1982505 0.29044366
vt 0.19640665 0.29597527
vt 0.08946257 0.0581169
vt 0.12265211 0.008332597
vt 0.08761871 0.035990544
vt 0.12080825 0.035990544
vt 0.10052575 0.0931503
vt 0.16321711 0.008332597
vt 0.12633984 0.061804626
vt 0.12080825 0.11527666
vt 0.14109075 0.06918008
vt 0.14662234 0.12080825
vt 0.16321711 0.054429173
vt 0.18165573 0.008332597
vt 0.17612416 0.07102394
vt 0.16690484 0.14293462
vt 0.17796801 0.14293462
vt 0.1890312 0.07102394
vt 0.19640665 0.008332597
vt 0.19456278 0.1337153
vt 0.20193823 0.061804626
vt 0.22037686 0.008332597
vt 0.22222073 0.0783994
vt 0.21853301 0.14662234
vt 0.2332839 0.14477848
vt 0.23512778 0.12080825
vt 0.2388155 0.07471167
vt 0.24065936 0.02123964
vt 0.2388155 0.008332597
vt 0.24065936 0.008332597
vt 0.012020323 0.47114226
vt 0.0064887344 0.4692984
vt 0.0064887344 0.47667384
vt 0.030458955 0.47482997
vt 0.030458955 0.46745452
vt 0.043365996 0.46745452
vt 0.04705372 0.4729861
vt 0.0581169 0.47482997
vt 0.05627304 0.46007907
vt 0.06918008 0.45639133
vt 0.061804626 0.45270362
vt 0.0581169 0.47482997
vt 0.06918008 0.47482997
vt 0.08946257 0.47114226
vt 0.06918008 0.47482997
vt 0.08761871 0.4582352
vt 0.104213476 0.4490159
vt 0.10790121 0.4545475
vt 0.12265211 0.43057728
vt 0.12080825 0.4434843
vt 0.14109075 0.43795273
vt 0.14109075 0.42688954
vt 0.14109075 0.43795273
vt 0.1539978 0.43610886
vt 0.15584165 0.40291932
vt 0.15952939 0.4195141
vt 0.17059256 0.39554387
vt 0.15952939 0.4195141
vt 0.17059256 0.39554387
vt 0.17428029 0.38632455
vt 0.17428029 0.3789491
vt 0.028615093 0.42688954
vt 0.0064887344 0.43610886
vt 0.0138641875 0.44164044
vt 0.0064887344 0.4692984
vt 0.012020323 0.47114226
vt 0.030458955 0.46745452
vt 0.028615093 0.43610886
vt 0.039678268 0.434265
vt 0.043365996 0.46745452
vt 0.039678268 0.4232018
vt 0.05627304 0.46007907
vt 0.05074145 0.4287334
vt 0.0581169 0.4195141
vt 0.061804626 0.45270362
vt 0.039678268 0.2388155
vt 0.037834406 0.24434708
vt 0.04705372 0.24987867
vt 0.048897587 0.24987867
vt 0.04705372 0.25172254
vt 0.04520986 0.23512778
vt 0.037834406 0.25172254
vt 0.048897587 0.2480348
vt 0.04705372 0.25356638
vt 0.05074145 0.23512778
vt 0.037834406 0.259098
vt 0.05074145 0.2480348
vt 0.048897587 0.25356638
vt 0.05627304 0.23512778
vt 0.041522134 0.26462957
vt 0.05074145 0.2480348
vt 0.048897587 0.25541025
vt 0.059960764 0.2388155
vt 0.04520986 0.2683173
vt 0.05258531 0.24987867
vt 0.05074145 0.25541025
vt 0.06364849 0.24434708
vt 0.05074145 0.2683173
vt 0.05258531 0.24987867
vt 0.05074145 0.25541025
vt 0.065492354 0.25172254
vt 0.054429173 0.2683173
vt 0.05258531 0.25172254
vt 0.05258531 0.25356638
vt 0.06364849 0.259098
vt 0.059960764 0.26462957
vt 0.05258531 0.25356638
vt 0.076555535 0.30150685
vt 0.07471167 0.31441388
vt 0.076555535 0.31441388
vt 0.07102394 0.30150685
vt 0.08208712 0.30150685
vt 0.07471167 0.31625775
vt 0.076555535 0.31441388
vt 0.065492354 0.30519456
vt 0.08577485 0.30519456
vt 0.0728678 0.31625775
vt 0.0783994 0.31625775
vt 0.061804626 0.31072617
vt 0.08946257 0.31072617
vt 0.0728678 0.3181016
vt 0.0783994 0.31625775
vt 0.061804626 0.3181016
vt 0.09130644 0.3181016
vt 0.0728678 0.3181016
vt 0.0783994 0.3181016
vt 0.061804626 0.3236332
vt 0.08946257 0.3236332
vt 0.07471167 0.31994548
vt 0.0783994 0.3181016
vt 0.065492354 0.3291648
vt 0.08577485 0.3291648
vt 0.07471167 0.31994548
vt 0.0783994 0.31994548
vt 0.06918008 0.3328525
vt 0.08208712 0.3328525
vt 0.076555535 0.31994548
vt 0.076555535 0.31994548
vt 0.076555535 0.33469638
vn -0.015871048 0.999874 -0.00034526698
vn -0.015871048 0.999874 -0.00034526698
vn -0.015871048 0.999874 -0.00034526698
vn -0.015871048 0.999874 -0.00034526698
vn -0.015871048 0.999874 -0.00034526698
vn -0.015871048 0.999874 -0.00034526698
vn -0.015871048 0.999874 -0.00034526698
vn -0.015871048 0.999874 -0.00034526698
vn -0.015871048 0.999874 -0.00034526698
vn -0.015871048 0.999874 -0.00034526698
vn -0.015871048 0.999874 -0.00034526698
vn -0.015871048 0.999874 -0.00034526698
vn -0.015871048 0.999874 -0.00034526698
vn -0.015871048 0.999874 -0.00034526698
vn -0.015871048 0.999874 -0.00034526698
vn -0.015871048 0.999874 -0.00034526698
vn -0.015871048 0.999874 -0.00034526698
vn -0.015871048 0.999874 -0.00034526698
vn -0.015871048 0.999874 -0.00034526698
vn -0.015871048 0.999874 -0.00034526698
vn -0.015871048 0.999874 -0.00034526698
vn -0.015871048 0.999874 -0.00034526698
vn -0.015871048 0.999874 -0.00034526698
vn -0.015871048 0.999874 -0.00034526698
vn -0.015871048 0.999874 -0.00034526698
vn -0.015871048 0.999874 -0.00034526698
vn -0.015871048 0.999874 -0.00034526698
vn -0.015871048 0.999874 -0.00034526698
vn -0.015871048 0.999874 -0.00034526698
vn -0.015871048 0.999874 -0.00034526698
vn -0.015871048 0.999874 -0.00034526698
vn -0.015871048 0.999874 -0.00034526698
vn 0.015870988 0.999874 -0.00034526698
vn 0.015870988 0.999874 -0.00034526698
vn 0.015870988 0.999874 -0.00034526698
vn 0.015870988 0.999874 -0.00034526698
vn 0.015870988 0.999874 -0.00034526698
vn 0.015870988 0.999874 -0.00034526698
vn -0.015871048 0.999874 -0.00034526698
vn 0.015870988 0.999874 -0.00034526698
vn 0.015870988 0.999874 -0.00034526698
vn 0.015870988 0.999874 -0.00034526698
vn 0.015870988 0.999874 -0.00034526698
vn 0.015870988 0.999874 -0.00034526698
vn 0.015870988 0.999874 -0.00034526698
vn 0.015870988 0.999874 -0.00034526698
vn 0.015870988 0.999874 -0.00034526698
vn 0.015870988 0.999874 -0.00034526698
vn 0.015870988 0.999874 -0.00034526698
vn 0.015870988 0.999874 -0.00034526698
vn 0.015870988 0.999874 -0.00034526698
vn 0.015870988 0.999874 -0.00034526698
vn 0.015870988 0.999874 -0.00034526698
vn 0.015870988 0.999874 -0.00034526698
vn 0.015870988 0.999874 -0.00034526698
vn 0.015870988 0.999874 -0.00034526698
vn 0.015870988 0.999874 -0.00034526698
vn 0.015870988 0.999874 -0.00034526698
vn 0.015870988 0.999874 -0.00034526698
vn 0.015870988 0.999874 -0.00034526698
vn 0.015870988 0.999874 -0.00034526698
vn 0.015870988 0.999874 -0.00034526698
vn 0.015870988 0.999874 -0.00034526698
vn 0.015870988 0.999874 -0.00034526698
vn 0.015870988 0.999874 -0.00034526698
vn 0.015870988 0.999874 -0.00034526698
vn 0.015870988 0.999874 -0.00034526698
vn 0.015870988 0.999874 -0.00034526698
vn 0.015870988 0.999874 -0.00034526698
vn 0.015870988 0.999874 -0.00034526698
vn -0.015871048 0.999874 -0.00034526698
vn 0.015870988 0.999874 -0.00034526698
vn 0.015870988 0.999874 -0.00034526698
vn 0.015870988 0.999874 -0.00034526698
vn 0.015870988 0.999874 -0.00034526698
vn 0.015870988 0.999874 -0.00034526698
vn 0.015870988 0.999874 -0.00034526698
vn 0.015870988 0.999874 -0.00034526698
vn 0.015870988 0.999874 -0.00034526698
vn 0.015870988 0.999874 -0.00034526698
vn 0.015870988 0.999874 -0.00034526698
vn 0.015870988 0.999874 -0.00034526698
vn 0.015870988 0.999874 -0.00034526698
vn 0.015870988 0.999874 -0.00034526698
vn 0.015870988 0.999874 -0.00034526698
vn 0.015870988 0.999874 -0.00034526698
vn 0.015870988 0.999874 -0.00034526698
vn 0.015870988 0.999874 -0.00034526698
vn 0.015870988 0.999874 -0.00034526698
vn 0.015870988 0.999874 -0.00034526698
vn 0.015870988 0.999874 -0.00034526698
vn -0.015871048 0.999874 -0.00034526698
vn -0.26980734 0.3332913 -0.9033941
vn -0.5872276 0.17458117 -0.7903703
vn -0.30154932 0.17458117 -0.937331
vn -0.30154932 0.30154932 -0.9045087
vn 0.07935506 0.26980734 -0.9596389
vn 0.07935506 0.17458117 -0.9814398
vn 0.5237435 0.17458117 -0.833795
vn 0.5237435 0.30154932 -0.7967187
vn 0.30154932 0.17458117 -0.937331
vn 0.047613025 0.7776798 -0.62685496
vn 0.4285174 0.65071166 -0.626855
vn 0.30154932 0.3650334 -0.8808057
vn -0.23806524 0.7776798 -0.5818411
vn 0.23806524 0.3332913 -0.9122729
vn 0.2063232 0.20632327 -0.9564839
vn 0.6189696 0.23806524 -0.74846613
vn 0.015870988 0.65071166 -0.759159
vn 0.14283913 0.49200153 -0.85879654
vn -0.1110971 0.6189697 -0.77751786
vn 0.26980728 0.39677536 -0.87736726
vn 0.26980728 0.3650334 -0.8910413
vn 0.1110971 0.42851746 -0.8966773
vn 0.1110971 0.39677536 -0.9111678
vn 0.047613025 0.46025944 -0.8865068
vn 0.07935506 0.42851746 -0.90004194
vn 0.047613025 0.5237435 -0.8505444
vn 0.07935506 0.5237435 -0.8481719
vn 0.047613025 0.5872276 -0.8080203
vn 0.07935506 0.5872276 -0.8055225
vn 0.26980728 0.5237435 -0.8080203
vn 0.26980728 0.5872276 -0.76313025
vn 0.23806524 0.5237435 -0.817935
vn 0.2063232 0.5554856 -0.8055225
vn -0.1110971 0.49200153 -0.86347663
vn 0.015870988 0.49200153 -0.87044966
vn 0.46025944 0.49200153 -0.7389829
vn 0.39677536 0.49200153 -0.7749218
vn 0.30154932 0.49200153 -0.8167022
vn 0.30154932 0.49200153 -0.8167022
vn 0.26980728 0.6189697 -0.73761815
vn 0.23806524 0.49200153 -0.83741236
vn 0.23806524 0.42851746 -0.87160635
vn 0.17458117 0.7141957 -0.6778244
vn 0.6189696 0.39677536 -0.6778244
vn 0.5872276 0.30154932 -0.7511536
vn 0.8094218 0.30154932 -0.5038893
vn 0.6189696 0.3650334 -0.69543314
vn 0.5237435 0.65071166 -0.54978824
vn 0.8411638 0.30154932 -0.44890028
vn 0.8411638 0.23806524 -0.48555988
vn 0.96813196 0.17458117 0.17956044
vn 0.8411638 0.3332913 -0.42586425
vn 0.9632913 0.2684583 -0
vn 0.7141957 0.5554856 -0.42586413
vn 0.96813196 0.23806524 0.07775266
vn 0.8411638 0.17458117 0.511825
vn 0.8411638 0.1428392 0.521575
vn 0.9363899 0.30154932 0.1795603
vn 0.96813196 0.20632327 -0.14195509
vn 0.9632913 0.2684583 -0
vn 0.96813196 0.17458117 0.17956044
vn 0.33329135 0.42851746 0.8398152
vn 0.36503333 0.3650334 0.8564469
vn 0.98994946 0.14142141 -0
vn 0.9363899 0.1110971 0.3329134
vn 0.96813196 0.1110971 0.22445038
vn 0.98994946 0.14142141 -0
vn 0.7141957 0.015871048 0.6997661
vn 0.68245363 0.1428392 0.7168361
vn 0.7776798 0.3332913 0.53303945
vn 0.954758 0.29738364 -0
vn 0.14283913 0.1428392 0.9793845
vn 0.14283913 -0.015870988 0.98961866
vn 0.5872276 0.39677536 0.705502
vn 0.07935506 0.39677536 0.91447914
vn 0.7459377 0.39677536 0.53492635
vn 0.954758 0.29738364 -0
vn 0.46025944 0.46025944 0.7591591
vn 0.07935506 0.42851746 0.90004194
vn 0.23806524 0.1428392 0.96068823
vn 0.65071166 0.42851746 0.62685496
vn -0.23806524 0.49200153 0.83741236
vn 0.65071166 0.46025944 0.6039334
vn -0.1110971 0.7776798 0.6187662
vn 0.7776798 0.42851746 0.4599858
vn 0.7459377 0.46025944 0.4813919
vn 0.87290585 0.17458117 0.45558402
vn 0.55548555 0.23806524 0.7967187
vn 0.9046479 0.07935512 0.4187063
vn 0.55548555 0.17458117 0.81299275
vn -0.07935512 0.20632327 0.97526073
vn -0.07935512 0.26980734 0.9596389
vn -0.46025944 0.1428392 0.87621814
vn -0.42851746 0.1428392 0.8921714
vn 0.23806524 0.1428392 0.96068823
vn 0.14283913 0.3650334 0.9199715
vn 0.4285174 0.42851746 0.7954531
vn 0.4285174 0.3650334 0.8265128
vn 0.4285174 0.30154932 0.85172814
vn 0.26980728 0.3650334 0.8910413
vn -0.20632327 0.30154932 0.93085915
vn -0.047613025 0.49200153 0.86929137
vn 0.39677536 0.23806524 0.88650674
vn 0.46025944 0.42851746 0.77751786
vn 0.9046479 0.3332913 0.26557317
vn 0.26980728 0.1110971 0.9564839
vn 0.96813196 0.1428392 0.20571218
vn 0.87290585 0.30154932 0.3835406
vn 0.96813196 0.047613025 0.245873
vn 0.99886817 0.04756513 -0
vn 0.9046479 0.1110971 0.4114239
vn 0.49200147 0.39677536 0.77492183
vn 0.9046479 0.047613025 0.42349166
vn 0.87290585 0.047613025 0.48555985
vn 0.49200147 0.015871048 0.8704497
vn 0.46025944 -0.015870988 0.8876426
vn -0.46025944 -0.14283913 0.87621814
vn -0.17458117 0.047613025 0.98349094
vn 0.49200147 0.1428392 0.85879654
vn -0.17458117 0.26980734 0.94695586
vn -0.1428392 0.5554856 0.8191659
vn 0.07935506 0.5237435 0.8481719
vn 0.1110971 0.23806524 0.96487427
vn 0.23806524 0.49200153 0.83741236
vn 0.26980728 0.20632327 0.9405502
vn 0.26980728 -0.015870988 0.9627835
vn 0.07935506 0.047613025 0.9957087
vn 0.30154932 -0.015870988 0.9533185
vn 0.30154932 -0.015870988 0.9533185
vn -0.1428392 0.1428392 0.9793845
vn -0.7141957 0.07935512 0.69543314
vn 0.015870988 0.17458117 0.98451483
vn 0.96813196 0.07935512 0.2375359
vn 0.14283913 0.968132 0.20571192
vn -0.015871048 0.999874 -0.00034526698
vn -0.015871048 0.999874 -0.00034526698
vn -0.015871048 0.999874 -0.00034526698
vn 0.047613025 0.968132 0.24587277
vn 0.015870988 0.999874 -0.00034526698
vn 0.17458117 0.968132 0.17956008
vn 0.110431515 0.9938838 -0
vn 0.015870988 0.999874 -0.00034526698
vn 0.04756513 0.99886817 -0
vn 0.015870988 0.999874 -0.00034526698
vn 0.079116285 0.9968654 -0
vn -0.015871048 0.999874 -0.00034526698
vn 0.079116285 0.9968654 -0
vn 0.04756513 0.99886817 -0
vn 0.110431515 0.9938838 -0
vn 0.110431515 0.9938838 -0
vn 0.14142135 0.98994946 -0
vn 0.14142135 0.98994946 -0
vn 0.14142135 0.98994946 -0
vn 0.14142135 0.98994946 -0
vn -0.015871048 0.999874 -0.00034526698
vn -0.015871048 0.999874 -0.00034526698
vn -0.1110971 0.968132 -0.2244501
vn -0.047613025 0.968132 -0.24587277
vn 0.1110971 0.968132 -0.2244501
vn -0.079116344 0.9968654 -0
vn -0.07935512 0.968132 -0.23753566
vn -0.1110971 0.968132 -0.2244501
vn -0.04756513 0.99886817 -0
vn -0.1110971 0.968132 -0.2244501
vn -0.110431515 0.9938838 -0
vn -0.110431515 0.9938838 -0
vn 0.015870988 0.999874 -0.00034526698
vn 0.015870988 0.999874 -0.00034526698
vn -0.015871048 0.999874 -0.00034526698
vn -0.110431515 0.9938838 -0
vn 0.015870988 0.999874 -0.00034526698
vn 0.015870988 0.999874 -0.00034526698
vn 0.015870988 0.999874 -0.00034526698
vn -0.110431515 0.9938838 -0
vn -0.110431515 0.9938838 -0
vn -0.015871048 0.999874 -0.00034526698
vn 0.07935506 0.968132 -0.23753566
vn 0.2063232 0.968132 -0.1419547
vn 0.110431515 0.9938838 -0
vn 0.29738364 0.95475805 -0
vn -0.8094218 0.46025944 -0.36468846
vn -0.7378054 0.6750134 -0
vn -0.87115216 0.49101308 -0
vn -0.68245375 0.65071166 -0.33291325
vn -0.5872276 0.46025944 -0.66582656
vn -0.047613025 0.90464795 -0.42349154
vn -0.49200153 0.6189697 -0.61221814
vn -0.1110971 0.49200153 -0.86347663
vn -0.015871048 0.6189697 -0.78525454
vn -0.07935512 0.5554856 -0.82773095
vn -0.07935512 0.7141957 -0.69543314
vn 0.047613025 0.87290585 -0.48555985
vn -0.17458117 0.7141957 -0.6778244
vn -0.20632327 0.65071166 -0.73075646
vn 0.23806524 0.6189697 -0.7484661
vn 0.23806524 0.7141957 -0.65821683
vn 0.1110971 0.8411639 -0.52924544
vn 0.1110971 0.68245375 -0.72243637
vn 0.047613025 0.7776798 -0.62685496
vn -0.047613025 0.8094218 -0.5852943
vn -0.1110971 0.7776798 -0.6187662
vn -0.1428392 0.7459378 -0.65051806
vn -0.1110971 0.7459378 -0.6566842
vn -0.1110971 0.7459378 -0.6566842
vn -0.1110971 0.7776798 -0.6187662
vn -0.1110971 0.8094218 -0.5766228
vn -0.1110971 0.8411639 -0.52924544
vn -0.1110971 0.8411639 -0.52924544
vn 0.015870988 0.999874 -0.00034526698
vn 0.015870988 0.999874 -0.00034526698
vn 0.015870988 0.999874 -0.00034526698
vn 0.015870988 0.999874 -0.00034526698
vn 0.015870988 0.999874 -0.00034526698
vn 0.015870988 0.999874 -0.00034526698
vn 0.015870988 0.999874 -0.00034526698
vn 0.015870988 0.999874 -0.00034526698
vn 0.015870988 0.999874 -0.00034526698
vn 0.079116285 0.9968654 -0
vn 0.110431515 0.9938838 -0
vn 0.04756513 0.99886817 -0
vn 0.04756513 0.99886817 -0
vn 0.015870988 0.999874 -0.00034526698
vn -0.015871048 0.999874 -0.00034526698
vn 0.015870988 0.999874 -0.00034526698
vn 0.04756513 0.99886817 -0
vn 0.04756513 0.99886817 -0
vn 0.079116285 0.9968654 -0
vn 0.04756513 0.99886817 -0
vn 0.015870988 0.999874 -0.00034526698
vn 0.1110971 0.968132 -0.2244501
vn 0.1110971 0.968132 -0.2244501
vn 0.1110971 0.968132 -0.2244501
vn 0.17458117 0.968132 -0.17956008
vn 0.1110971 0.968132 -0.2244501
vn 0.49101302 0.87115216 -0
vn 0.49101302 0.87115216 -0
vn 0.079116285 0.9968654 -0
vn 0.079116285 0.9968654 -0
vn 0.079116285 0.9968654 -0
vn 0.015870988 0.999874 -0.00034526698
vn -0.5237435 0.6189697 -0.5852942
vn -0.07935512 0.42851746 -0.90004194
vn -0.7141957 0.17458117 -0.6778244
vn -0.07935512 0.17458117 -0.9814398
vn 0.1110971 0.17458117 -0.97835517
vn 0.07935506 0.46025944 -0.8842308
vn 0.2063232 0.39677536 -0.8944272
vn 0.23806524 0.17458117 -0.9554299
vn 0.047613025 0.968132 -0.24587277
vn 0.5872276 0.17458117 -0.7903703
vn 0.55548555 0.42851746 -0.7126069
vn 0.7141957 0.42851746 -0.5534413
vn 0.8094218 0.1428392 -0.56959057
vn 0.7141957 0.015871048 -0.6997661
vn 0.9363899 0.015871048 -0.35060233
vn 0.9363899 0.015871048 -0.35060233
vn 0.7141957 0.015871048 -0.6997661
vn 0.999874 0.015871048 -0.00034391563
vn 0.39677536 0.015871048 -0.9177785
vn 0.999874 0.015871048 -0.00034391563
vn 0.39677536 0.015871048 -0.9177785
vn 0.9363899 0.015871048 0.35060233
vn 0.015870988 0.015871048 -0.99974805
vn 0.9363899 0.015871048 0.35060233
vn -0.015871048 0.015871048 -0.99974805
vn 0.7141957 0.015871048 0.6997661
vn -0.39677536 0.015871048 -0.9177785
vn 0.7141957 0.015871048 0.6997661
vn -0.39677536 0.015871048 -0.9177785
vn 0.39677536 0.015871048 0.9177785
vn -0.7141957 0.015871048 -0.6997661
vn 0.39677536 0.015871048 0.9177785
vn -0.7141957 0.015871048 -0.6997661
vn -0.015871048 0.015871048 0.99974805
vn -0.9363899 0.015871048 -0.35060233
vn 0.015870988 0.015871048 0.99974805
vn -0.9363899 0.015871048 -0.35060233
vn -0.39677536 0.015871048 0.9177785
vn -0.999874 0.015871048 -0.00034391563
vn -0.39677536 0.015871048 0.9177785
vn -0.999874 0.015871048 -0.00034391563
vn -0.7141957 0.015871048 0.6997661
vn -0.9363899 0.015871048 0.35060233
vn -0.7141957 0.015871048 0.6997661
vn -0.9363899 0.015871048 0.35060233
vn 0.015870988 0.015871048 -0.99974805
vn 0.39677536 0.015871048 -0.9177785
vn -0.015871048 0.015871048 -0.99974805
vn 0.39677536 0.015871048 -0.9177785
vn -0.39677536 0.015871048 -0.9177785
vn 0.7141957 0.015871048 -0.6997661
vn -0.39677536 0.015871048 -0.9177785
vn 0.7141957 0.015871048 -0.6997661
vn -0.7141957 0.015871048 -0.6997661
vn 0.9363899 0.015871048 -0.35060233
vn -0.7141957 0.015871048 -0.6997661
vn 0.9363899 0.015871048 -0.35060233
vn -0.9363899 0.015871048 -0.35060233
vn 0.999874 0.015871048 -0.00034391563
vn -0.9363899 0.015871048 -0.35060233
vn 0.999874 0.015871048 -0.00034391563
vn -0.999874 0.015871048 -0.00034391563
vn 0.9363899 0.015871048 0.35060233
vn -0.999874 0.015871048 -0.00034391563
vn 0.9363899 0.015871048 0.35060233
vn -0.9363899 0.015871048 0.35060233
vn 0.7141957 0.015871048 0.6997661
vn -0.9363899 0.015871048 0.35060233
vn 0.7141957 0.015871048 0.6997661
vn -0.7141957 0.015871048 0.6997661
vn 0.39677536 0.015871048 0.9177785
vn -0.7141957 0.015871048 0.6997661
vn 0.39677536 0.015871048 0.9177785
vn -0.39677536 0.015871048 0.9177785
vn -0.015871048 0.015871048 0.99974805
vn -0.39677536 0.015871048 0.9177785
vn 0.015870988 0.015871048 0.99974805
g tb_geo_light_section_12_mesh_0
f 3/3/3 2/2/2 1/1/1
f 3/3/3 1/1/1 4/4/4
f 5/5/5 3/3/3 4/4/4
f 5/5/5 4/4/4 6/6/6
f 7/7/7 5/5/5 6/6/6
f 7/7/7 6/6/6 8/8/8
f 6/6/6 9/9/9 8/8/8
f 9/9/9 10/10/10 8/8/8
f 10/10/10 11/11/11 8/8/8
f 10/10/10 12/12/12 11/11/11
f 12/12/12 13/13/13 11/11/11
f 12/12/12 14/14/14 13/13/13
f 14/14/14 15/15/15 13/13/13
f 14/14/14 16/16/16 15/15/15
f 19/19/19 18/18/18 17/17/17
f 18/18/18 20/20/20 17/17/17
f 20/20/20 21/21/21 17/17/17
f 20/20/20 22/22/22 21/21/21
f 22/22/22 23/23/23 21/21/21
f 22/22/22 24/24/24 23/23/23
f 24/24/24 25/25/25 23/23/23
f 24/24/24 26/26/26 25/25/25
f 26/26/26 27/27/27 25/25/25
f 26/26/26 28/28/28 27/27/27
f 28/28/28 29/29/29 27/27/27
f 28/28/28 30/30/30 29/29/29
f 30/30/30 31/31/31 29/29/29
f 30/30/30 32/32/32 31/31/31
f 35/35/35 34/34/34 33/33/33
f 36/36/36 34/34/34 35/35/35
f 36/36/36 35/35/35 37/37/37
f 38/38/38 34/34/34 36/36/36
f 34/34/34 38/38/38 39/39/39
f 39/39/39 38/38/38 40/40/40
f 34/34/34 39/39/39 41/41/41
f 36/36/36 37/37/37 42/42/42
f 42/42/42 37/37/37 43/43/43
f 36/36/36 42/42/42 44/44/44
f 43/43/43 37/37/37 45/45/45
f 43/43/43 45/45/45 46/46/46
f 46/46/46 45/45/45 47/47/47
f 47/47/47 45/45/45 48/48/48
f 47/47/47 48/48/48 49/49/49
f 49/49/49 48/48/48 50/50/50
f 49/49/49 50/50/50 51/51/51
f 36/36/36 44/44/44 52/52/52
f 51/51/51 50/50/50 53/53/53
f 51/51/51 53/53/53 54/54/54
f 54/54/54 53/53/53 55/55/55
f 56/56/56 55/55/55 53/53/53
f 56/56/56 57/57/57 55/55/55
f 56/56/56 58/58/58 57/57/57
f 56/56/56 59/59/59 58/58/58
f 36/36/36 52/52/52 60/60/60
f 56/56/56 61/61/61 59/59/59
f 56/56/56 53/53/53 62/62/62
f 63/63/63 61/61/61 56/56/56
f 63/63/63 64/64/64 61/61/61
f 56/56/56 62/62/62 65/65/65
f 65/65/65 62/62/62 66/66/66
f 67/67/67 66/66/66 62/62/62
f 68/68/68 64/64/64 63/63/63
f 68/68/68 60/60/60 64/64/64
f 69/69/69 67/67/67 62/62/62
f 69/69/69 70/70/70 67/67/67
f 69/69/69 71/71/71 70/70/70
f 69/69/69 72/72/72 71/71/71
f 72/72/72 73/73/73 71/71/71
f 72/72/72 69/69/69 74/74/74
f 72/72/72 74/74/74 75/75/75
f 72/72/72 75/75/75 76/76/76
f 72/72/72 77/77/77 73/73/73
f 78/78/78 77/77/77 72/72/72
f 78/78/78 79/79/79 77/77/77
f 78/78/78 80/80/80 79/79/79
f 78/78/78 81/81/81 80/80/80
f 82/82/82 81/81/81 78/78/78
f 82/82/82 78/78/78 83/83/83
f 82/82/82 84/84/84 81/81/81
f 85/85/85 84/84/84 82/82/82
f 85/85/85 86/86/86 84/84/84
f 86/86/86 87/87/87 84/84/84
f 86/86/86 88/88/88 87/87/87
f 86/86/86 68/68/68 88/88/88
f 86/86/86 60/60/60 68/68/68
f 89/89/89 60/60/60 86/86/86
f 89/89/89 90/90/90 60/60/60
f 91/91/91 60/60/60 90/90/90
f 36/36/36 60/60/60 91/91/91
f 36/36/36 91/91/91 92/92/92
f 95/95/95 94/94/94 93/93/93
f 96/96/96 95/95/95 93/93/93
f 96/96/96 97/97/97 95/95/95
f 97/97/97 98/98/98 95/95/95
f 99/99/99 98/98/98 97/97/97
f 100/100/100 99/99/99 97/97/97
f 101/101/101 99/99/99 100/100/100
f 102/102/102 97/97/97 96/96/96
f 103/103/103 100/100/100 97/97/97
f 102/102/102 103/103/103 97/97/97
f 104/104/104 101/101/101 100/100/100
f 104/104/104 100/100/100 103/103/103
f 105/105/105 102/102/102 96/96/96
f 105/105/105 96/96/96 93/93/93
f 104/104/104 106/106/106 101/101/101
f 106/106/106 107/107/107 101/101/101
f 108/108/108 107/107/107 106/106/106
f 109/109/109 103/103/103 102/102/102
f 109/109/109 102/102/102 105/105/105
f 110/110/110 105/105/105 93/93/93
f 111/111/111 109/109/109 105/105/105
f 110/110/110 111/111/111 105/105/105
f 110/110/110 93/93/93 112/112/112
f 93/93/93 113/113/113 112/112/112
f 112/112/112 113/113/113 114/114/114
f 113/113/113 115/115/115 114/114/114
f 114/114/114 115/115/115 116/116/116
f 115/115/115 117/117/117 116/116/116
f 114/114/114 116/116/116 118/118/118
f 119/119/119 114/114/114 118/118/118
f 112/112/112 114/114/114 119/119/119
f 119/119/119 118/118/118 120/120/120
f 121/121/121 119/119/119 120/120/120
f 122/122/122 112/112/112 119/119/119
f 122/122/122 119/119/119 121/121/121
f 110/110/110 112/112/112 122/122/122
f 123/123/123 122/122/122 121/121/121
f 124/124/124 110/110/110 122/122/122
f 124/124/124 122/122/122 123/123/123
f 110/110/110 124/124/124 111/111/111
f 125/125/125 124/124/124 123/123/123
f 124/124/124 125/125/125 126/126/126
f 111/111/111 124/124/124 126/126/126
f 126/126/126 127/127/127 111/111/111
f 127/127/127 109/109/109 111/111/111
f 128/128/128 109/109/109 127/127/127
f 129/129/129 128/128/128 127/127/127
f 109/109/109 128/128/128 103/103/103
f 130/130/130 128/128/128 129/129/129
f 131/131/131 130/130/130 129/129/129
f 132/132/132 103/103/103 128/128/128
f 130/130/130 132/132/132 128/128/128
f 132/132/132 104/104/104 103/103/103
f 130/130/130 131/131/131 133/133/133
f 130/130/130 133/133/133 132/132/132
f 131/131/131 134/134/134 133/133/133
f 132/132/132 135/135/135 104/104/104
f 133/133/133 135/135/135 132/132/132
f 135/135/135 106/106/106 104/104/104
f 133/133/133 134/134/134 136/136/136
f 134/134/134 137/137/137 136/136/136
f 137/137/137 138/138/138 136/136/136
f 139/139/139 106/106/106 135/135/135
f 139/139/139 108/108/108 106/106/106
f 140/140/140 135/135/135 133/133/133
f 140/140/140 139/139/139 135/135/135
f 136/136/136 140/140/140 133/133/133
f 139/139/139 141/141/141 108/108/108
f 141/141/141 139/139/139 140/140/140
f 141/141/141 142/142/142 108/108/108
f 143/143/143 142/142/142 141/141/141
f 138/138/138 144/144/144 136/136/136
f 138/138/138 145/145/145 144/144/144
f 140/140/140 136/136/136 146/146/146
f 146/146/146 141/141/141 140/140/140
f 136/136/136 144/144/144 146/146/146
f 147/147/147 143/143/143 141/141/141
f 141/141/141 146/146/146 147/147/147
f 143/143/143 147/147/147 148/148/148
f 147/147/147 149/149/149 148/148/148
f 146/146/146 150/150/150 147/147/147
f 149/149/149 147/147/147 150/150/150
f 146/146/146 144/144/144 150/150/150
f 149/149/149 150/150/150 151/151/151
f 144/144/144 151/151/151 150/150/150
f 145/145/145 151/151/151 144/144/144
f 145/145/145 152/152/152 151/151/151
f 152/152/152 153/153/153 151/151/151
f 152/152/152 154/154/154 153/153/153
f 154/154/154 155/155/155 153/153/153
f 151/151/151 153/153/153 156/156/156
f 157/157/157 153/153/153 155/155/155
f 153/153/153 157/157/157 156/156/156
f 156/156/156 157/157/157 158/158/158
f 159/159/159 156/156/156 158/158/158
f 160/160/160 158/158/158 157/157/157
f 161/161/161 160/160/160 157/157/157
f 161/161/161 157/157/157 162/162/162
f 157/157/157 163/163/163 162/162/162
f 161/161/161 164/164/164 160/160/160
f 164/164/164 165/165/165 160/160/160
f 164/164/164 161/161/161 166/166/166
f 166/166/166 161/161/161 162/162/162
f 167/167/167 164/164/164 166/166/166
f 168/168/168 162/162/162 163/163/163
f 166/166/166 162/162/162 168/168/168
f 169/169/169 168/168/168 163/163/163
f 170/170/170 166/166/166 168/168/168
f 167/167/167 166/166/166 170/170/170
f 171/171/171 167/167/167 170/170/170
f 174/174/174 173/173/173 172/172/172
f 174/174/174 175/175/175 173/173/173
f 174/174/174 176/176/176 175/175/175
f 173/173/173 175/175/175 177/177/177
f 178/178/178 173/173/173 177/177/177
f 177/177/177 175/175/175 179/179/179
f 176/176/176 180/180/180 175/175/175
f 175/175/175 180/180/180 179/179/179
f 179/179/179 180/180/180 181/181/181
f 180/180/180 182/182/182 181/181/181
f 183/183/183 182/182/182 180/180/180
f 176/176/176 184/184/184 180/180/180
f 184/184/184 183/183/183 180/180/180
f 185/185/185 183/183/183 184/184/184
f 186/186/186 185/185/185 184/184/184
f 187/187/187 185/185/185 186/186/186
f 186/186/186 184/184/184 188/188/188
f 188/188/188 184/184/184 189/189/189
f 190/190/190 188/188/188 189/189/189
f 188/188/188 190/190/190 191/191/191
f 192/192/192 188/188/188 191/191/191
f 193/193/193 188/188/188 192/192/192
f 193/193/193 186/186/186 188/188/188
f 194/194/194 193/193/193 192/192/192
f 195/195/195 193/193/193 194/194/194
f 193/193/193 195/195/195 186/186/186
f 196/196/196 195/195/195 194/194/194
f 196/196/196 197/197/197 195/195/195
f 198/198/198 187/187/187 186/186/186
f 195/195/195 198/198/198 186/186/186
f 197/197/197 199/199/199 195/195/195
f 195/195/195 199/199/199 198/198/198
f 197/197/197 200/200/200 199/199/199
f 198/198/198 201/201/201 187/187/187
f 199/199/199 201/201/201 198/198/198
f 201/201/201 202/202/202 187/187/187
f 200/200/200 203/203/203 199/199/199
f 199/199/199 203/203/203 201/201/201
f 204/204/204 203/203/203 200/200/200
f 201/201/201 205/205/205 202/202/202
f 203/203/203 205/205/205 201/201/201
f 205/205/205 206/206/206 202/202/202
f 207/207/207 206/206/206 205/205/205
f 208/208/208 207/207/207 205/205/205
f 208/208/208 205/205/205 203/203/203
f 209/209/209 207/207/207 208/208/208
f 210/210/210 209/209/209 208/208/208
f 204/204/204 211/211/211 203/203/203
f 211/211/211 208/208/208 203/203/203
f 212/212/212 211/211/211 204/204/204
f 208/208/208 211/211/211 212/212/212
f 210/210/210 208/208/208 212/212/212
f 213/213/213 212/212/212 204/204/204
f 212/212/212 213/213/213 214/214/214
f 215/215/215 212/212/212 214/214/214
f 212/212/212 215/215/215 210/210/210
f 214/214/214 216/216/216 215/215/215
f 216/216/216 217/217/217 215/215/215
f 217/217/217 218/218/218 215/215/215
f 218/218/218 219/219/219 215/215/215
f 215/215/215 219/219/219 210/210/210
f 219/219/219 218/218/218 220/220/220
f 218/218/218 221/221/221 220/220/220
f 219/219/219 222/222/222 210/210/210
f 219/219/219 223/223/223 222/222/222
f 222/222/222 224/224/224 210/210/210
f 210/210/210 224/224/224 225/225/225
f 228/228/228 227/227/227 226/226/226
f 229/229/229 228/228/228 226/226/226
f 230/230/230 229/229/229 226/226/226
f 230/230/230 226/226/226 231/231/231
f 232/232/232 230/230/230 231/231/231
f 231/231/231 226/226/226 233/233/233
f 231/231/231 234/234/234 232/232/232
f 234/234/234 235/235/235 232/232/232
f 235/235/235 234/234/234 236/236/236
f 237/237/237 235/235/235 236/236/236
f 236/236/236 238/238/238 237/237/237
f 238/238/238 239/239/239 237/237/237
f 238/238/238 240/240/240 239/239/239
f 241/241/241 239/239/239 240/240/240
f 241/241/241 240/240/240 242/242/242
f 243/243/243 241/241/241 242/242/242
f 243/243/243 242/242/242 244/244/244
f 243/243/243 244/244/244 245/245/245
f 245/245/245 246/246/246 243/243/243
f 240/240/240 247/247/247 242/242/242
f 247/247/247 248/248/248 242/242/242
f 236/236/236 234/234/234 249/249/249
f 234/234/234 250/250/250 249/249/249
f 236/236/236 249/249/249 251/251/251
f 236/236/236 251/251/251 252/252/252
f 234/234/234 231/231/231 250/250/250
f 236/236/236 252/252/252 238/238/238
f 231/231/231 253/253/253 250/250/250
f 252/252/252 254/254/254 238/238/238
f 231/231/231 255/255/255 253/253/253
f 255/255/255 256/256/256 253/253/253
f 231/231/231 233/233/233 255/255/255
f 257/257/257 256/256/256 255/255/255
f 238/238/238 254/254/254 258/258/258
f 238/238/238 258/258/258 240/240/240
f 255/255/255 233/233/233 259/259/259
f 233/233/233 260/260/260 259/259/259
f 261/261/261 257/257/257 255/255/255
f 261/261/261 255/255/255 259/259/259
f 257/257/257 261/261/261 262/262/262
f 263/263/263 261/261/261 259/259/259
f 261/261/261 263/263/263 264/264/264
f 264/264/264 265/265/265 261/261/261
f 254/254/254 266/266/266 258/258/258
f 266/266/266 254/254/254 267/267/267
f 268/268/268 258/258/258 266/266/266
f 268/268/268 269/269/269 258/258/258
f 269/269/269 240/240/240 258/258/258
f 269/269/269 270/270/270 240/240/240
f 270/270/270 271/271/271 240/240/240
f 272/272/272 240/240/240 271/271/271
f 275/275/275 274/274/274 273/273/273
f 274/274/274 276/276/276 273/273/273
f 273/273/273 276/276/276 277/277/277
f 278/278/278 276/276/276 274/274/274
f 276/276/276 279/279/279 277/277/277
f 278/278/278 279/279/279 276/276/276
f 280/280/280 277/277/277 279/279/279
f 281/281/281 280/280/280 279/279/279
f 278/278/278 281/281/281 279/279/279
f 280/280/280 281/281/281 282/282/282
f 278/278/278 283/283/283 281/281/281
f 281/281/281 283/283/283 282/282/282
f 283/283/283 278/278/278 284/284/284
f 282/282/282 283/283/283 285/285/285
f 285/285/285 283/283/283 284/284/284
f 286/286/286 282/282/282 285/285/285
f 286/286/286 285/285/285 287/287/287
f 284/284/284 288/288/288 285/285/285
f 285/285/285 288/288/288 287/287/287
f 288/288/288 284/284/284 289/289/289
f 287/287/287 288/288/288 290/290/290
f 291/291/291 288/288/288 289/289/289
f 288/288/288 291/291/291 290/290/290
f 291/291/291 289/289/289 292/292/292
f 290/290/290 291/291/291 293/293/293
f 293/293/293 291/291/291 292/292/292
f 294/294/294 290/290/290 293/293/293
f 295/295/295 294/294/294 293/293/293
f 296/296/296 295/295/295 293/293/293
f 293/293/293 297/297/297 296/296/296
f 292/292/292 297/297/297 293/293/293
f 298/298/298 297/297/297 292/292/292
f 298/298/298 292/292/292 299/299/299
f 300/300/300 298/298/298 299/299/299
f 303/303/303 302/302/302 301/301/301
f 304/304/304 303/303/303 301/301/301
f 305/305/305 304/304/304 301/301/301
f 304/304/304 305/305/305 306/306/306
f 307/307/307 304/304/304 306/306/306
f 307/307/307 306/306/306 308/308/308
f 306/306/306 309/309/309 308/308/308
f 309/309/309 311/311/311 310/310/310
f 312/312/312 309/309/309 310/310/310
f 313/313/313 312/312/312 310/310/310
f 315/315/315 310/310/310 314/314/314
f 310/310/310 316/316/316 314/314/314
f 314/314/314 316/316/316 317/317/317
f 318/318/318 314/314/314 317/317/317
f 318/318/318 317/317/317 319/319/319
f 320/320/320 318/318/318 319/319/319
f 320/320/320 319/319/319 321/321/321
f 319/319/319 322/322/322 321/321/321
f 324/324/324 323/323/323 322/322/322
f 324/324/324 322/322/322 325/325/325
f 326/326/326 324/324/324 325/325/325
f 328/328/328 325/325/325 327/327/327
f 325/325/325 246/246/246 327/327/327
f 330/330/330 329/329/329 246/246/246
f 331/331/331 330/330/330 246/246/246
f 334/334/334 333/333/333 332/332/332
f 333/333/333 334/334/334 335/335/335
f 334/334/334 336/336/336 335/335/335
f 337/337/337 336/336/336 334/334/334
f 338/338/338 334/334/334 332/332/332
f 338/338/338 337/337/337 334/334/334
f 339/339/339 338/338/338 332/332/332
f 338/338/338 339/339/339 337/337/337
f 339/339/339 340/340/340 337/337/337
f 341/341/341 339/339/339 332/332/332
f 342/342/342 340/340/340 339/339/339
f 343/343/343 339/339/339 341/341/341
f 343/343/343 342/342/342 339/339/339
f 344/344/344 343/343/343 341/341/341
f 345/345/345 342/342/342 343/343/343
f 344/344/344 345/345/345 343/343/343
f 348/348/348 347/347/347 346/346/346
f 349/349/349 348/348/348 346/346/346
f 348/348/348 350/350/350 347/347/347
f 349/349/349 346/346/346 351/351/351
f 350/350/350 352/352/352 347/347/347
f 353/353/353 349/349/349 351/351/351
f 350/350/350 354/354/354 352/352/352
f 353/353/353 351/351/351 355/355/355
f 354/354/354 356/356/356 352/352/352
f 357/357/357 353/353/353 355/355/355
f 354/354/354 358/358/358 356/356/356
f 357/357/357 355/355/355 359/359/359
f 358/358/358 360/360/360 356/356/356
f 361/361/361 357/357/357 359/359/359
f 358/358/358 362/362/362 360/360/360
f 361/361/361 359/359/359 363/363/363
f 362/362/362 364/364/364 360/360/360
f 365/365/365 361/361/361 363/363/363
f 362/362/362 366/366/366 364/364/364
f 365/365/365 363/363/363 367/367/367
f 366/366/366 368/368/368 364/364/364
f 369/369/369 365/365/365 367/367/367
f 366/366/366 370/370/370 368/368/368
f 369/369/369 367/367/367 371/371/371
f 370/370/370 372/372/372 368/368/368
f 373/373/373 369/369/369 371/371/371
f 370/370/370 374/374/374 372/372/372
f 373/373/373 371/371/371 375/375/375
f 374/374/374 376/376/376 372/372/372
f 377/377/377 373/373/373 375/375/375
f 377/377/377 375/375/375 376/376/376
f 374/374/374 377/377/377 376/376/376
f 380/380/380 379/379/379 378/378/378
f 379/379/379 381/381/381 378/378/378
f 380/380/380 378/378/378 382/382/382
f 379/379/379 383/383/383 381/381/381
f 384/384/384 380/380/380 382/382/382
f 383/383/383 385/385/385 381/381/381
f 384/384/384 382/382/382 386/386/386
f 383/383/383 387/387/387 385/385/385
f 388/388/388 384/384/384 386/386/386
f 387/387/387 389/389/389 385/385/385
f 388/388/388 386/386/386 390/390/390
f 387/387/387 391/391/391 389/389/389
f 392/392/392 388/388/388 390/390/390
f 391/391/391 393/393/393 389/389/389
f 392/392/392 390/390/390 394/394/394
f 391/391/391 395/395/395 393/393/393
f 396/396/396 392/392/392 394/394/394
f 395/395/395 397/397/397 393/393/393
f 396/396/396 394/394/394 398/398/398
f 395/395/395 399/399/399 397/397/397
f 400/400/400 396/396/396 398/398/398
f 399/399/399 401/401/401 397/397/397
f 400/400/400 398/398/398 402/402/402
f 399/399/399 403/403/403 401/401/401
f 404/404/404 400/400/400 402/402/402
f 403/403/403 405/405/405 401/401/401
f 404/404/404 402/402/402 406/406/406
f 403/403/403 407/407/407 405/405/405
f 408/408/408 404/404/404 406/406/406
f 407/407/407 409/409/409 405/405/405
f 408/408/408 406/406/406 409/409/409
f 407/407/407 408/408/408 409/409/409
