g tb_geo_light_outline_08_mesh
v 0.028426677 0.013538122 -0.10069941
v 0.028426677 0.04967448 -0.10069941
v 0.0074442625 0.04967448 -0.12168181
v 0.0074442625 0.013538122 -0.12168181
v -0.021697968 0.048508793 -0.15082404
v -0.021697968 0.012372434 -0.15082404
v 0.0074442625 0.04967448 -0.12168181
v -0.054337263 0.048508793 -0.18346334
v -0.054337263 0.011206746 -0.18346334
v -0.08697656 0.048508793 -0.21610263
v -0.08697656 0.011206746 -0.21610263
v -0.057834327 0.048508793 -0.17996627
v -0.025195032 0.04967448 -0.14732698
v -0.112621695 0.047343105 -0.2417478
v -0.112621695 0.011206746 -0.2417478
v 0.0039471984 0.04967448 -0.118184745
v 0.028426677 0.04967448 -0.10069941
v -0.09047362 0.048508793 -0.21260557
v -0.14526102 0.048508793 -0.2743871
v -0.14526102 0.012372434 -0.2743871
v -0.028692096 0.04967448 -0.14382991
v 0.00045013428 0.04967448 -0.11468768
v -0.06133139 0.048508793 -0.1764692
v -0.11611879 0.047343105 -0.23825073
v -0.14992377 0.048508793 -0.2732214
v -0.14992377 0.048508793 -0.30003226
v -0.093970686 0.048508793 -0.2091085
v -0.15575221 0.048508793 -0.27089003
v -0.14526102 0.04967448 -0.30003226
v -0.14526102 0.012372434 -0.2743871
v -0.14526102 0.012372434 -0.30003226
v -0.14526102 0.048508793 -0.32218033
v -0.14526102 0.012372434 -0.32218033
v -0.14526102 0.047343105 -0.3385
v -0.14526102 0.011206746 -0.3385
v -0.11961585 0.047343105 -0.23475367
v -0.15575221 0.012372434 -0.27089003
v -0.11961585 0.011206746 -0.23475367
v -0.093970686 0.012372434 -0.2091085
v -0.06133139 0.012372434 -0.1764692
v -0.028692096 0.012372434 -0.14382991
v 0.00045013428 0.013538122 -0.11468768
v 0.019101173 0.04967448 -0.09603664
v 0.019101173 0.013538122 -0.09603664
v 0.023763925 0.04967448 -0.098368034
v 0.023763925 0.04967448 -0.021432549
v 0.019101173 0.04967448 -0.021432549
v 0.019101173 0.013538122 -0.09603664
v 0.019101173 0.013538122 -0.021432549
v 0.019101173 0.04967448 0.076485336
v 0.019101173 0.013538122 0.076485336
v 0.019101173 0.05084017 0.124278605
v 0.023763925 0.04967448 0.124278605
v 0.019101173 0.01470381 0.124278605
v 0.019101173 0.047343105 0.18023166
v 0.019101173 0.011206746 0.18023166
v 0.023763925 0.04967448 0.076485336
v 0.028426677 0.04967448 0.076485336
v 0.028426677 0.04967448 -0.021432549
v 0.028426677 0.013538122 -0.021432549
v 0.028426677 0.013538122 -0.10069941
v 0.028426677 0.013538122 0.076485336
v 0.028426677 0.012372434 0.124278605
v 0.028426677 0.048508793 0.124278605
v 0.028426677 0.00887537 0.19072285
v 0.028426677 0.046177417 0.19072285
v 0.023763925 0.046177417 0.18489441
v -0.01470381 0.053171575 0.18489441
v -0.01470381 0.052005887 0.18023166
v 0.019101173 0.011206746 0.18023166
v -0.01470381 0.015869498 0.18023166
v -0.076485336 0.054337263 0.18023166
v -0.076485336 0.018200874 0.18023166
v -0.076485336 0.05550295 0.18489441
v -0.11728448 0.05550295 0.18023166
v -0.11728448 0.019366562 0.18023166
v -0.01470381 0.054337263 0.19072285
v -0.18139735 0.05666864 0.18023166
v -0.18139735 0.02053228 0.18023166
v -0.01470381 0.018200874 0.19072285
v 0.028426677 0.00887537 0.19072285
v -0.076485336 0.02053228 0.19072285
v -0.076485336 0.05666864 0.19072285
v -0.11728448 0.022863656 0.19072285
v -0.11728448 0.057834327 0.18489441
v -0.11728448 0.060165703 0.19072285
v -0.18139735 0.024029344 0.19072285
v -0.23618475 0.05550295 0.18023166
v -0.23618475 0.019366562 0.18023166
v -0.18139735 0.059000015 0.18489441
v -0.18139735 0.060165703 0.19072285
v -0.23618475 0.024029344 0.19072285
v -0.23618475 0.060165703 0.19072285
v -0.29097214 0.02053228 0.19072285
v -0.29097214 0.054337263 0.18023166
v -0.29097214 0.018200874 0.18023166
v -0.23618475 0.057834327 0.18489441
v -0.29097214 0.057834327 0.19072285
v -0.30962315 0.018200874 0.19072285
v -0.30962315 0.054337263 0.19072285
v -0.29097214 0.05550295 0.18489441
v -0.31195453 0.053171575 0.18489441
v -0.3504223 0.057834327 0.22452787
v -0.3142859 0.052005887 0.18023166
v -0.3142859 0.01470381 0.18023166
v -0.35391936 0.05666864 0.2210308
v -0.3142859 0.01470381 0.18023166
v -0.35391936 0.02053228 0.2210308
v -0.37257037 0.05550295 0.23968181
v -0.37257037 0.019366562 0.23968181
v -0.4052097 0.052005887 0.27115545
v -0.4052097 0.015869498 0.27115545
v -0.3690733 0.057834327 0.24317887
v -0.46232846 0.04384604 0.3294399
v -0.46232846 0.006543994 0.3294399
v -0.5124531 0.031023473 0.37956455
v -0.5124531 -0.0051128864 0.37956455
v -0.4588314 0.046177417 0.33293697
v -0.40171263 0.054337263 0.2746525
v -0.39821556 0.05550295 0.27814957
v -0.36557624 0.059000015 0.24667594
v -0.54276097 0.025195032 0.40987244
v -0.53926396 0.02636072 0.4133695
v -0.54276097 -0.010941327 0.40987244
v -0.55441785 0.025195032 0.42152932
v -0.55441785 -0.010941327 0.42152932
v -0.5089561 0.03335485 0.38306162
v -0.45533434 0.04967448 0.33643404
v -0.34692523 0.060165703 0.22802493
v -0.34692523 0.022863656 0.22802493
v -0.30962315 0.018200874 0.19072285
v -0.36557624 0.021697968 0.24667594
v -0.39821556 0.019366562 0.27814957
v -0.45533434 0.013538122 0.33643404
v -0.50545895 -0.0016158223 0.38655868
v -0.50545895 0.035686225 0.38655868
v -0.53576684 -0.008609951 0.41686657
v -0.53576684 0.028692096 0.41686657
v -0.5497551 -0.009775639 0.43085483
v -0.5497551 0.02636072 0.43085483
v -0.5520865 0.02636072 0.42619208
v -0.6022111 0.018200874 0.42152932
v -0.55441785 -0.010941327 0.42152932
v -0.6022111 -0.017935485 0.42152932
v -0.6569985 0.012372434 0.42152932
v -0.6569985 -0.023763925 0.42152932
v -0.6022111 0.018200874 0.42619208
v -0.6022111 0.018200874 0.43085483
v -0.71062016 0.012372434 0.42152932
v -0.71062016 -0.023763925 0.42152932
v -0.6569985 0.013538122 0.42619208
v -0.6022111 -0.017935485 0.43085483
v -0.5497551 -0.009775639 0.43085483
v -0.6569985 -0.022598237 0.43085483
v -0.6569985 0.013538122 0.43085483
v -0.71062016 -0.022598237 0.43085483
v -0.71062016 0.013538122 0.42619208
v -0.71062016 0.01470381 0.43085483
v -0.75841343 -0.03192374 0.43085483
v -0.75841343 0.004212618 0.43085483
v -0.75608206 0.004212618 0.42619208
v -0.7537507 0.004212618 0.42152932
v -0.7537507 -0.03192374 0.42152932
v -0.7724017 -0.0016158223 0.40870675
v -0.7724017 -0.0016158223 0.40870675
v -0.7700703 -0.00045013428 0.404044
v -0.7910528 -0.008609951 0.38073024
v -0.7945498 -0.009775639 0.3842273
v -0.81320083 -0.015604109 0.35508505
v -0.8178636 -0.0144384205 0.3585821
v -0.8306862 -0.015604109 0.33643404
v -0.83534896 -0.0144384205 0.3387654
v -0.8435087 -0.010941327 0.3212801
v -0.8493372 -0.0132727325 0.32361147
v -0.77473307 -0.00045013428 0.4133695
v -0.7945498 -0.009775639 0.3842273
v -0.7968812 -0.008609951 0.38772437
v -0.8178636 -0.0144384205 0.3585821
v -0.8213607 -0.0132727325 0.3609135
v -0.83534896 -0.0144384205 0.3387654
v -0.8400117 -0.0132727325 0.3410968
v -0.854 -0.010941327 0.32594284
v -0.8493372 0.017035186 0.29796627
v -0.854 0.0030469298 0.29796627
v -0.854 -0.03308943 0.29796627
v -0.854 -0.047077715 0.32594284
v -0.854 -0.030758053 0.26182994
v -0.854 0.005378306 0.26182994
v -0.854 -0.04940909 0.231522
v -0.8493372 0.013538122 0.26182994
v -0.854 -0.0132727325 0.231522
v -0.854 -0.05057478 0.20004842
v -0.8435087 0.022863656 0.29796627
v -0.8435087 -0.047077715 0.3212801
v -0.8435087 -0.0132727325 0.29796627
v -0.8435087 0.02053228 0.26182994
v -0.8435087 -0.015604109 0.26182994
v -0.8435087 -0.0132727325 0.231522
v -0.8435087 -0.04940909 0.231522
v -0.8493372 -0.0132727325 0.231522
v -0.8435087 -0.012107044 0.20004842
v -0.8435087 -0.04940909 0.20004842
v -0.8493372 -0.0132727325 0.20004842
v -0.8435087 -0.009775639 0.11961585
v -0.8435087 -0.045912027 0.11961585
v -0.854 -0.0144384205 0.20004842
v -0.854 -0.047077715 0.11961585
v -0.8493372 -0.010941327 0.11961585
v -0.854 -0.010941327 0.11961585
v -0.854 -0.04474634 0.03335485
v -0.8435087 -0.0062785745 0.03335485
v -0.8435087 -0.042414963 0.03335485
v -0.8493372 -0.0074442625 0.03335485
v -0.854 -0.008609951 0.03335485
v -0.854 -0.04358065 -0.03308943
v -0.854 -0.0074442625 -0.03308943
v -0.854 -0.04358065 -0.04940909
v -0.854 -0.0062785745 -0.04940909
v -0.8435087 -0.0062785745 -0.03308943
v -0.8435087 -0.042414963 -0.03308943
v -0.8493372 -0.0062785745 -0.03308943
v -0.8493372 -0.0062785745 -0.047077715
v -0.8435087 -0.0051128864 -0.045912027
v -0.8435087 -0.042414963 -0.045912027
v -0.82952046 -0.0027815104 -0.065728724
v -0.82602346 -0.0027815104 -0.06223166
v -0.8435087 -0.042414963 -0.045912027
v -0.82602346 -0.03891787 -0.06223166
v -0.78639007 0.004212618 -0.098368034
v -0.78639007 -0.03192374 -0.098368034
v -0.7898871 0.004212618 -0.103030786
v -0.75258505 0.012372434 -0.13100733
v -0.75258505 -0.024929613 -0.13100733
v -0.71878004 0.022863656 -0.16248094
v -0.71878004 -0.0132727325 -0.16248094
v -0.75608206 0.012372434 -0.1345044
v -0.684975 0.036851913 -0.19395454
v -0.684975 0.00071555376 -0.19395454
v -0.72227716 0.025195032 -0.165978
v -0.595217 0.040348977 -0.27788416
v -0.595217 0.004212618 -0.27788416
v -0.5707376 0.0380176 -0.30003226
v -0.5707376 0.0018812418 -0.30003226
v -0.5987141 0.04384604 -0.28138122
v -0.5555836 0.03335485 -0.3151862
v -0.5555836 -0.0027815104 -0.3151862
v -0.68847215 0.040348977 -0.1974516
v -0.69196916 0.042680353 -0.20094867
v -0.72577417 0.02636072 -0.16947506
v -0.5742346 0.041514665 -0.30352932
v -0.5404296 0.025195032 -0.3280088
v -0.5404296 -0.010941327 -0.3280088
v -0.7595792 0.012372434 -0.13800146
v -0.6022111 0.048508793 -0.28604397
v -0.5590806 0.035686225 -0.31868327
v -0.7933842 0.004212618 -0.10652785
v -0.8330176 -0.0027815104 -0.06922579
v -0.8330176 -0.040083557 -0.06922579
v -0.854 -0.04358065 -0.04940909
v -0.7933842 -0.03308943 -0.10652785
v -0.7595792 -0.023763925 -0.13800146
v -0.72577417 -0.009775639 -0.16947506
v -0.69196916 0.006543994 -0.20094867
v -0.6022111 0.012372434 -0.28604397
v -0.5777317 0.00887537 -0.3070264
v -0.5777317 0.046177417 -0.3070264
v -0.5625777 0.00071555376 -0.32218033
v -0.5625777 0.0380176 -0.32218033
v -0.54509234 -0.015604109 -0.3385
v -0.54509234 0.02053228 -0.3385
v -0.54276097 0.02636072 -0.33383724
v -0.5182816 0.02053228 -0.33383724
v -0.5182816 0.019366562 -0.3280088
v -0.5404296 -0.010941327 -0.3280088
v -0.5182816 -0.016769797 -0.3280088
v -0.4868079 0.02053228 -0.3280088
v -0.4868079 -0.015604109 -0.3280088
v -0.4868079 0.021697968 -0.33383724
v -0.45067158 0.022863656 -0.33383724
v -0.45067158 0.021697968 -0.3280088
v -0.45067158 -0.0144384205 -0.3280088
v -0.40637538 0.027526408 -0.3280088
v -0.40637538 -0.009775639 -0.3280088
v -0.5182816 0.02053228 -0.3385
v -0.5182816 -0.015604109 -0.3385
v -0.54509234 -0.015604109 -0.3385
v -0.4868079 -0.0144384205 -0.3385
v -0.4868079 0.021697968 -0.3385
v -0.45067158 -0.0132727325 -0.3385
v -0.45067158 0.022863656 -0.3385
v -0.40637538 -0.008609951 -0.3385
v -0.40637538 0.027526408 -0.3385
v -0.3690733 -0.0051128864 -0.3385
v -0.40637538 0.027526408 -0.33383724
v -0.3690733 0.031023473 -0.33383724
v -0.3690733 0.031023473 -0.3385
v -0.32710853 -0.0027815104 -0.3385
v -0.32710853 0.034520537 -0.3385
v -0.28747508 0.00071555376 -0.3385
v -0.3690733 0.031023473 -0.3280088
v -0.3690733 -0.0051128864 -0.3280088
v -0.32710853 0.034520537 -0.3280088
v -0.32710853 -0.0016158223 -0.3280088
v -0.32710853 0.034520537 -0.33383724
v -0.28747508 0.036851913 -0.3280088
v -0.28747508 0.00071555376 -0.3280088
v -0.28747508 0.036851913 -0.3385
v -0.24784163 0.0030469298 -0.3385
v -0.28747508 0.036851913 -0.33383724
v -0.24784163 0.03918329 -0.3280088
v -0.24784163 0.0030469298 -0.3280088
v -0.24784163 0.03918329 -0.3385
v -0.21753374 0.005378306 -0.3385
v -0.24784163 0.03918329 -0.33383724
v -0.21753374 0.041514665 -0.3280088
v -0.21753374 0.005378306 -0.3280088
v -0.21753374 0.041514665 -0.3385
v -0.1860601 0.006543994 -0.3385
v -0.21753374 0.041514665 -0.33383724
v -0.1860601 0.04384604 -0.3280088
v -0.1860601 0.007709682 -0.3280088
v -0.1860601 0.042680353 -0.3385
v -0.14526102 0.011206746 -0.3385
v -0.1860601 0.04384604 -0.33383724
v -0.14992377 0.047343105 -0.33383724
v -0.15575221 0.047343105 -0.3280088
v -0.15575221 0.011206746 -0.3280088
v -0.14992377 0.048508793 -0.32218033
v -0.15575221 0.047343105 -0.32218033
v -0.15575221 0.011206746 -0.3280088
v -0.15575221 0.011206746 -0.32218033
v -0.15575221 0.048508793 -0.30003226
v -0.15575221 0.012372434 -0.30003226
v -0.15575221 0.012372434 -0.27089003
v -0.8306862 -0.051740468 0.33643404
v -0.8435087 -0.047077715 0.3212801
v -0.8306862 -0.015604109 0.33643404
v -0.81320083 -0.051740468 0.35508505
v -0.81320083 -0.015604109 0.35508505
v -0.7910528 -0.04474634 0.38073024
v -0.7910528 -0.008609951 0.38073024
v -0.7700703 -0.03775218 0.404044
v -0.7700703 -0.00045013428 0.404044
v -0.7537507 -0.03192374 0.42152932
v -0.77473307 -0.03775218 0.4133695
v -0.75841343 -0.03192374 0.43085483
v -0.77473307 -0.00045013428 0.4133695
v -0.7968812 -0.045912027 0.38772437
v -0.7968812 -0.008609951 0.38772437
v -0.8213607 -0.04940909 0.3609135
v -0.8213607 -0.0132727325 0.3609135
v -0.8400117 -0.04940909 0.3410968
v -0.8400117 -0.0132727325 0.3410968
v -0.854 -0.047077715 0.32594284
vt 0.51007164 0.564157
vt 0.51007164 0.564157
vt 0.50205904 0.5781792
vt 0.50205904 0.5781792
vt 0.49204323 0.5982108
vt 0.49204323 0.5982108
vt 0.50205904 0.5781792
vt 0.4820274 0.6182424
vt 0.4820274 0.6182424
vt 0.47000843 0.64027715
vt 0.47000843 0.64027715
vt 0.48002425 0.61623925
vt 0.49204323 0.5962076
vt 0.4619958 0.65630245
vt 0.4619958 0.65630245
vt 0.50205904 0.57617605
vt 0.51007164 0.564157
vt 0.47000843 0.638274
vt 0.44997683 0.6783372
vt 0.44997683 0.6783372
vt 0.49004006 0.5922013
vt 0.5000559 0.57417285
vt 0.4780211 0.6142361
vt 0.45999265 0.6542993
vt 0.44797367 0.6763341
vt 0.44797367 0.6943625
vt 0.46800527 0.6342677
vt 0.4459705 0.67433095
vt 0.44997683 0.6943625
vt 0.44997683 0.6783372
vt 0.44997683 0.6943625
vt 0.44997683 0.7083847
vt 0.44997683 0.7083847
vt 0.44997683 0.7184005
vt 0.44997683 0.7184005
vt 0.45999265 0.6522962
vt 0.4459705 0.67433095
vt 0.45999265 0.6522962
vt 0.46800527 0.6342677
vt 0.4780211 0.6142361
vt 0.49004006 0.5922013
vt 0.5000559 0.57417285
vt 0.50606537 0.5621539
vt 0.50606537 0.5621539
vt 0.5080685 0.564157
vt 0.5080685 0.514078
vt 0.50606537 0.514078
vt 0.50606537 0.5621539
vt 0.50606537 0.514078
vt 0.50606537 0.45198
vt 0.50606537 0.45198
vt 0.50606537 0.4199294
vt 0.5080685 0.4199294
vt 0.50606537 0.4199294
vt 0.50606537 0.3838725
vt 0.50606537 0.3838725
vt 0.5080685 0.45198
vt 0.51007164 0.45198
vt 0.51007164 0.514078
vt 0.51007164 0.514078
vt 0.51007164 0.564157
vt 0.51007164 0.45198
vt 0.51007164 0.4199294
vt 0.51007164 0.4199294
vt 0.51007164 0.377863
vt 0.51007164 0.377863
vt 0.5080685 0.37986618
vt 0.4940464 0.37986618
vt 0.4940464 0.3838725
vt 0.50606537 0.3838725
vt 0.4940464 0.3838725
vt 0.47401476 0.3838725
vt 0.47401476 0.3838725
vt 0.47401476 0.37986618
vt 0.45999265 0.3838725
vt 0.45999265 0.3838725
vt 0.4940464 0.377863
vt 0.43795785 0.3838725
vt 0.43795785 0.3838725
vt 0.4940464 0.377863
vt 0.51007164 0.377863
vt 0.47401476 0.377863
vt 0.47401476 0.377863
vt 0.45999265 0.377863
vt 0.45999265 0.37986618
vt 0.45999265 0.377863
vt 0.43795785 0.377863
vt 0.4199294 0.3838725
vt 0.4199294 0.3838725
vt 0.43795785 0.37986618
vt 0.43795785 0.377863
vt 0.4199294 0.377863
vt 0.4199294 0.377863
vt 0.39989778 0.377863
vt 0.39989778 0.3838725
vt 0.39989778 0.3838725
vt 0.4199294 0.37986618
vt 0.39989778 0.377863
vt 0.3938883 0.377863
vt 0.3938883 0.377863
vt 0.39989778 0.37986618
vt 0.3938883 0.37986618
vt 0.37986618 0.35582823
vt 0.39188516 0.3838725
vt 0.39188516 0.3838725
vt 0.377863 0.3578314
vt 0.39188516 0.3838725
vt 0.377863 0.3578314
vt 0.37185353 0.34581244
vt 0.37185353 0.34581244
vt 0.36183771 0.3257808
vt 0.36183771 0.3257808
vt 0.3738567 0.34380925
vt 0.3418061 0.28772074
vt 0.3418061 0.28772074
vt 0.32377765 0.25567016
vt 0.32377765 0.25567016
vt 0.3418061 0.28571758
vt 0.36183771 0.32177448
vt 0.36384088 0.31977132
vt 0.37585986 0.3418061
vt 0.31376183 0.23563854
vt 0.315765 0.23363538
vt 0.31376183 0.23563854
vt 0.3097555 0.22762589
vt 0.3097555 0.22762589
vt 0.3257808 0.253667
vt 0.34380925 0.2837144
vt 0.38186932 0.3538251
vt 0.38186932 0.3538251
vt 0.3938883 0.377863
vt 0.37585986 0.3418061
vt 0.36384088 0.31977132
vt 0.34380925 0.2837144
vt 0.32778397 0.25166383
vt 0.32778397 0.25166383
vt 0.315765 0.23163222
vt 0.315765 0.23163222
vt 0.3117587 0.2216164
vt 0.3117587 0.2216164
vt 0.3117587 0.22562273
vt 0.29373023 0.22762589
vt 0.3097555 0.22762589
vt 0.29373023 0.22762589
vt 0.27570176 0.22762589
vt 0.27570176 0.22762589
vt 0.29373023 0.22562273
vt 0.29373023 0.2216164
vt 0.25767332 0.22762589
vt 0.25767332 0.22762589
vt 0.27570176 0.22562273
vt 0.29373023 0.2216164
vt 0.3117587 0.2216164
vt 0.27570176 0.2216164
vt 0.27570176 0.2216164
vt 0.25767332 0.2216164
vt 0.25767332 0.22562273
vt 0.25767332 0.2216164
vt 0.23964486 0.2216164
vt 0.23964486 0.2216164
vt 0.24164802 0.22562273
vt 0.24164802 0.22762589
vt 0.24164802 0.22762589
vt 0.23563854 0.23563854
vt 0.23563854 0.23563854
vt 0.23563854 0.23964486
vt 0.22962905 0.253667
vt 0.22762589 0.25166383
vt 0.2216164 0.27169544
vt 0.21961324 0.2696923
vt 0.21560693 0.2837144
vt 0.21360376 0.28171125
vt 0.2116006 0.29172707
vt 0.20959744 0.29172707
vt 0.23363538 0.23363538
vt 0.22762589 0.25166383
vt 0.22762589 0.24966067
vt 0.21961324 0.2696923
vt 0.21961324 0.2676891
vt 0.21360376 0.28171125
vt 0.2116006 0.2797081
vt 0.20759428 0.2897239
vt 0.20959744 0.30775237
vt 0.20759428 0.30775237
vt 0.20759428 0.30775237
vt 0.20759428 0.2897239
vt 0.20759428 0.3317903
vt 0.20759428 0.3317903
vt 0.20759428 0.3518219
vt 0.20959744 0.3317903
vt 0.20759428 0.3518219
vt 0.20759428 0.36985037
vt 0.2116006 0.30775237
vt 0.2116006 0.29172707
vt 0.2116006 0.30775237
vt 0.2116006 0.3317903
vt 0.2116006 0.3317903
vt 0.2116006 0.3518219
vt 0.2116006 0.3518219
vt 0.20959744 0.3518219
vt 0.2116006 0.36985037
vt 0.2116006 0.36985037
vt 0.20959744 0.36985037
vt 0.2116006 0.4239357
vt 0.2116006 0.4239357
vt 0.20759428 0.36985037
vt 0.20759428 0.4239357
vt 0.20959744 0.4239357
vt 0.20759428 0.4239357
vt 0.20759428 0.4780211
vt 0.2116006 0.4780211
vt 0.2116006 0.4780211
vt 0.20959744 0.4780211
vt 0.20759428 0.4780211
vt 0.20759428 0.5220907
vt 0.20759428 0.5220907
vt 0.20759428 0.53210646
vt 0.20759428 0.53210646
vt 0.2116006 0.5220907
vt 0.2116006 0.5220907
vt 0.20959744 0.5220907
vt 0.20959744 0.5301033
vt 0.2116006 0.5301033
vt 0.2116006 0.5301033
vt 0.21560693 0.54212224
vt 0.21761009 0.5401191
vt 0.2116006 0.5301033
vt 0.21761009 0.5401191
vt 0.22962905 0.564157
vt 0.22962905 0.564157
vt 0.22962905 0.5661602
vt 0.24164802 0.5841887
vt 0.24164802 0.5841887
vt 0.253667 0.6042203
vt 0.253667 0.6042203
vt 0.24164802 0.58619183
vt 0.26568598 0.6242519
vt 0.26568598 0.6242519
vt 0.253667 0.60622346
vt 0.2957334 0.6803404
vt 0.2957334 0.6803404
vt 0.30374604 0.6943625
vt 0.30374604 0.6943625
vt 0.2957334 0.6823436
vt 0.3097555 0.7023752
vt 0.3097555 0.7023752
vt 0.2636828 0.62625504
vt 0.2636828 0.63026136
vt 0.25166383 0.61022973
vt 0.30374604 0.6963657
vt 0.315765 0.712391
vt 0.315765 0.712391
vt 0.23964486 0.59019816
vt 0.29373023 0.68434674
vt 0.30775237 0.70638156
vt 0.22762589 0.5681634
vt 0.21560693 0.54412544
vt 0.21560693 0.54412544
vt 0.20759428 0.53210646
vt 0.22762589 0.5681634
vt 0.23964486 0.59019816
vt 0.25166383 0.61022973
vt 0.2636828 0.63026136
vt 0.29373023 0.68434674
vt 0.30174288 0.6983689
vt 0.30174288 0.6983689
vt 0.30775237 0.7083847
vt 0.30775237 0.7083847
vt 0.31376183 0.7184005
vt 0.31376183 0.7184005
vt 0.31376183 0.71439415
vt 0.32177448 0.71439415
vt 0.32177448 0.712391
vt 0.315765 0.712391
vt 0.32177448 0.712391
vt 0.33379346 0.712391
vt 0.33379346 0.712391
vt 0.33379346 0.71439415
vt 0.34581244 0.71439415
vt 0.34581244 0.712391
vt 0.34581244 0.712391
vt 0.36183771 0.712391
vt 0.36183771 0.712391
vt 0.32177448 0.7184005
vt 0.32177448 0.7184005
vt 0.31376183 0.7184005
vt 0.33379346 0.7184005
vt 0.33379346 0.7184005
vt 0.34581244 0.7184005
vt 0.34581244 0.7184005
vt 0.36183771 0.7184005
vt 0.36183771 0.7184005
vt 0.3738567 0.7184005
vt 0.36183771 0.71439415
vt 0.3738567 0.71439415
vt 0.3738567 0.7184005
vt 0.38787884 0.7184005
vt 0.38787884 0.7184005
vt 0.40190095 0.7184005
vt 0.3738567 0.712391
vt 0.3738567 0.712391
vt 0.38787884 0.712391
vt 0.38787884 0.712391
vt 0.38787884 0.71439415
vt 0.40190095 0.712391
vt 0.40190095 0.712391
vt 0.40190095 0.7184005
vt 0.4159231 0.7184005
vt 0.40190095 0.71439415
vt 0.4159231 0.712391
vt 0.4159231 0.712391
vt 0.4159231 0.7184005
vt 0.4259389 0.7184005
vt 0.4159231 0.71439415
vt 0.4259389 0.712391
vt 0.4259389 0.712391
vt 0.4259389 0.7184005
vt 0.4359547 0.7184005
vt 0.4259389 0.71439415
vt 0.4359547 0.712391
vt 0.4359547 0.712391
vt 0.4359547 0.7184005
vt 0.44997683 0.7184005
vt 0.4359547 0.71439415
vt 0.44797367 0.71439415
vt 0.4459705 0.712391
vt 0.4459705 0.712391
vt 0.44797367 0.7083847
vt 0.4459705 0.7083847
vt 0.4459705 0.712391
vt 0.4459705 0.7083847
vt 0.4459705 0.6943625
vt 0.4459705 0.6943625
vt 0.4459705 0.67433095
vt 0.21560693 0.2837144
vt 0.2116006 0.29172707
vt 0.21560693 0.2837144
vt 0.2216164 0.27169544
vt 0.2216164 0.27169544
vt 0.22962905 0.253667
vt 0.22962905 0.253667
vt 0.23563854 0.23964486
vt 0.23563854 0.23964486
vt 0.24164802 0.22762589
vt 0.23363538 0.23363538
vt 0.23964486 0.2216164
vt 0.23363538 0.23363538
vt 0.22762589 0.24966067
vt 0.22762589 0.24966067
vt 0.21961324 0.2676891
vt 0.21961324 0.2676891
vt 0.2116006 0.2797081
vt 0.2116006 0.2797081
vt 0.20759428 0.2897239
vn 0.7141957 0.015871048 -0.6997661
vn 0.7141957 0.015871048 -0.6997661
vn 0.7141957 0.015871048 -0.6997661
vn 0.7141957 0.015871048 -0.6997661
vn 0.015870988 0.999874 -0.00034526698
vn 0.7141957 0.015871048 -0.6997661
vn -0.015871048 0.999874 -0.00034526698
vn 0.015870988 0.999874 -0.00034526698
vn 0.7141957 0.015871048 -0.6997661
vn 0.015870988 0.999874 -0.00034526698
vn 0.7141957 0.015871048 -0.6997661
vn 0.015870988 0.999874 -0.00034526698
vn 0.015870988 0.999874 -0.00034526698
vn -0.015871048 0.999874 -0.00034526698
vn 0.7141957 0.015871048 -0.6997661
vn -0.015871048 0.999874 -0.00034526698
vn -0.015871048 0.999874 -0.00034526698
vn 0.015870988 0.999874 -0.00034526698
vn -0.015871048 0.999874 -0.00034526698
vn 0.7141957 0.015871048 -0.6997661
vn 0.015870988 0.999874 -0.00034526698
vn -0.015871048 0.999874 -0.00034526698
vn 0.015870988 0.999874 -0.00034526698
vn -0.015871048 0.999874 -0.00034526698
vn -0.015871048 0.999874 -0.00034526698
vn -0.04756513 0.99886817 -0
vn 0.015870988 0.999874 -0.00034526698
vn -0.015871048 0.999874 -0.00034526698
vn -0.015871048 0.999874 -0.00034526698
vn 0.999874 0.015871048 -0.00034391563
vn 0.999874 0.015871048 -0.00034391563
vn -0.079116344 0.9968654 -0
vn 0.999874 0.015871048 -0.00034391563
vn -0.079116344 0.9968654 -0
vn 0.999874 0.015871048 -0.00034391563
vn 0.015870988 0.999874 -0.00034526698
vn -0.7141957 0.015871048 0.6997661
vn -0.7141957 0.015871048 0.6997661
vn -0.7141957 0.015871048 0.6997661
vn -0.7141957 0.015871048 0.6997661
vn -0.7141957 0.015871048 0.6997661
vn -0.7141957 0.015871048 0.6997661
vn 0.015870988 0.999874 -0.00034526698
vn -0.7141957 0.015871048 0.6997661
vn -0.015871048 0.999874 -0.00034526698
vn 0.015870988 0.999874 -0.00034526698
vn 0.015870988 0.999874 -0.00034526698
vn -0.999874 0.015871048 -0.00034391563
vn -0.999874 0.015871048 -0.00034391563
vn 0.015870988 0.999874 -0.00034526698
vn -0.999874 0.015871048 -0.00034391563
vn 0.172001 0.9850967 -0
vn 0.14142135 0.98994946 -0
vn -0.999874 0.015871048 -0.00034391563
vn 0.172001 0.9850967 -0
vn -0.999874 0.015871048 -0.00034391563
vn 0.015870988 0.999874 -0.00034526698
vn 0.015870988 0.999874 -0.00034526698
vn -0.015871048 0.999874 -0.00034526698
vn 0.999874 0.015871048 -0.00034391563
vn 0.999874 0.015871048 -0.00034391563
vn 0.999874 0.015871048 -0.00034391563
vn 0.999874 0.015871048 -0.00034391563
vn 0.172001 0.9850967 -0
vn 0.999874 0.015871048 -0.00034391563
vn 0.172001 0.9850967 -0
vn 0.172001 0.9850967 -0
vn 0.1110971 0.968132 -0.2244501
vn 0.07935506 0.968132 -0.23753566
vn -0.015871048 0.015871048 -0.99974805
vn -0.015871048 0.015871048 -0.99974805
vn 0.047613025 0.968132 -0.24587277
vn -0.015871048 0.015871048 -0.99974805
vn 0.047613025 0.968132 -0.24587277
vn 0.015870988 0.9363899 -0.35060233
vn -0.015871048 0.015871048 -0.99974805
vn 0.1110971 0.968132 -0.2244501
vn -0.015871048 0.9363899 -0.35060233
vn -0.015871048 0.015871048 -0.99974805
vn -0.015871048 0.015871048 0.99974805
vn -0.015871048 0.015871048 0.99974805
vn -0.015871048 0.015871048 0.99974805
vn 0.047613025 0.968132 -0.24587277
vn -0.015871048 0.015871048 0.99974805
vn 0.047613025 0.9363899 -0.3477167
vn 0.047613025 0.9363899 -0.3477167
vn -0.015871048 0.015871048 0.99974805
vn -0.015871048 0.90464795 -0.42586404
vn -0.015871048 0.015871048 -0.99974805
vn 0.015870988 0.9363899 -0.35060233
vn 0.015870988 0.9363899 -0.35060233
vn -0.015871048 0.015871048 0.99974805
vn -0.015871048 0.90464795 -0.42586404
vn -0.015871048 0.015871048 0.99974805
vn -0.07935512 0.9363899 -0.34187227
vn -0.015871048 0.015871048 -0.99974805
vn -0.015871048 0.90464795 -0.42586404
vn -0.07935512 0.968132 -0.23753566
vn -0.015871048 0.015871048 0.99974805
vn -0.1428392 0.9363899 -0.32057896
vn -0.07935512 0.9363899 -0.34187227
vn -0.1110971 0.968132 -0.2244501
vn -0.20632327 0.968132 -0.1419547
vn -0.07935512 0.968132 -0.23753566
vn -0.015871048 0.015871048 -0.99974805
vn -0.20632327 0.9363899 -0.28390953
vn -0.7141957 0.015871048 -0.6997661
vn -0.7141957 0.015871048 -0.6997661
vn -0.20632327 0.968132 -0.1419547
vn -0.7141957 0.015871048 -0.6997661
vn -0.30154932 0.9363899 -0.17956024
vn -0.7141957 0.015871048 -0.6997661
vn -0.20632327 0.968132 -0.1419547
vn -0.46025944 0.8411639 -0.28390953
vn -0.7141957 0.015871048 -0.6997661
vn -0.36320823 0.931708 -0
vn -0.7141957 0.015871048 -0.6997661
vn -0.46025944 0.8411639 -0.28390953
vn -0.30154932 0.9363899 -0.17956024
vn -0.30154932 0.9363899 -0.17956024
vn -0.20632327 0.968132 -0.1419547
vn -0.23806524 0.968132 -0.07775179
vn -0.23806524 0.968132 -0.07775179
vn -0.7141957 0.015871048 -0.6997661
vn -0.17458117 0.968132 -0.17956008
vn -0.7141957 0.015871048 -0.6997661
vn -0.3650334 0.90464795 -0.21991515
vn -0.46025944 0.8411639 -0.28390953
vn -0.20632327 0.9363899 -0.28390953
vn 0.7141957 0.015871048 0.6997661
vn 0.7141957 0.015871048 0.6997661
vn 0.7141957 0.015871048 0.6997661
vn 0.7141957 0.015871048 0.6997661
vn 0.7141957 0.015871048 0.6997661
vn 0.7141957 0.015871048 0.6997661
vn -0.39677536 0.90464795 -0.15550359
vn 0.7141957 0.015871048 0.6997661
vn -0.2684583 0.96329135 -0
vn 0.7141957 0.015871048 0.6997661
vn -0.17458117 0.968132 -0.17956008
vn -0.17458117 0.968132 -0.17956008
vn -0.110431515 0.9938838 -0
vn -0.015871048 0.015871048 -0.99974805
vn -0.015871048 0.015871048 -0.99974805
vn -0.04756513 0.99886817 -0
vn -0.015871048 0.015871048 -0.99974805
vn -0.110431515 0.9938838 -0
vn -0.110431515 0.9938838 -0
vn -0.07935512 0.968132 -0.23753566
vn -0.015871048 0.015871048 -0.99974805
vn -0.04756513 0.99886817 -0
vn -0.015871048 0.015871048 0.99974805
vn -0.015871048 0.015871048 0.99974805
vn -0.015871048 0.015871048 0.99974805
vn -0.04756513 0.99886817 -0
vn -0.015871048 0.015871048 0.99974805
vn -0.07935512 0.968132 -0.23753566
vn -0.07935512 0.968132 -0.23753566
vn -0.015871048 0.015871048 0.99974805
vn -0.14142141 0.98994946 -0
vn -0.14142141 0.98994946 -0
vn -0.172001 0.9850967 -0
vn -0.015871048 0.015871048 -0.99974805
vn -0.1428392 0.968132 -0.20571192
vn -0.2684583 0.96329135 -0
vn -0.29738364 0.95475805 -0
vn -0.17458117 0.968132 -0.17956008
vn -0.20632327 0.968132 -0.1419547
vn 0.015870988 0.999874 -0.00034526698
vn 0.015870988 0.999874 -0.00034526698
vn 0.079116285 0.9968654 -0
vn 0.04756513 0.99886817 -0
vn -0.20632327 0.8411639 0.49987403
vn 0.07935506 0.968132 0.23753566
vn -0.1428392 0.968132 -0.20571192
vn -0.015871048 0.968132 -0.24993704
vn -0.047613025 0.968132 -0.24587277
vn 0.1110971 0.968132 -0.2244501
vn 0.1110971 0.968132 -0.2244501
vn 0.2063232 0.968132 -0.1419547
vn 0.2063232 0.968132 -0.1419547
vn 0.33329135 0.9363899 0.10995791
vn -0.8094218 0.5237435 0.26557326
vn -0.87290585 0.39677536 0.28390965
vn -0.999874 0.015871048 -0.00034391563
vn -0.999874 0.015871048 -0.00034391563
vn -0.999874 0.015871048 -0.00034391563
vn -0.8094218 0.5237435 -0.26557326
vn -0.999874 0.015871048 -0.00034391563
vn -0.8094218 0.5237435 -0.26557326
vn -0.047613025 0.968132 -0.24587277
vn -0.999874 0.015871048 -0.00034391563
vn -0.7776798 0.6189697 0.10995764
vn 0.999874 0.015871048 -0.00034391563
vn 0.999874 0.015871048 -0.00034391563
vn -0.8094218 0.5554856 -0.19045253
vn 0.999874 0.015871048 -0.00034391563
vn -0.07935512 0.9363899 -0.34187227
vn 0.999874 0.015871048 -0.00034391563
vn -0.047613025 0.9363899 -0.3477167
vn -0.14142141 0.98994946 -0
vn 0.999874 0.015871048 -0.00034391563
vn -0.14142141 0.98994946 -0
vn -0.172001 0.9850967 -0
vn 0.999874 0.015871048 -0.00034391563
vn -0.172001 0.9850967 -0
vn -0.999874 0.015871048 -0.00034391563
vn -0.14142141 0.98994946 -0
vn -0.14142141 0.98994946 -0
vn -0.999874 0.015871048 -0.00034391563
vn -0.17458117 0.968132 0.17956008
vn 0.999874 0.015871048 -0.00034391563
vn -0.17458117 0.968132 0.17956008
vn -0.17458117 0.968132 0.17956008
vn -0.999874 0.015871048 -0.00034391563
vn -0.14142141 0.98994946 -0
vn -0.999874 0.015871048 -0.00034391563
vn -0.14142141 0.98994946 -0
vn -0.14142141 0.98994946 -0
vn 0.999874 0.015871048 -0.00034391563
vn -0.14142141 0.98994946 -0
vn -0.14142141 0.98994946 -0
vn -0.14142141 0.98994946 -0
vn 0.999874 0.015871048 -0.00034391563
vn -0.14142141 0.98994946 -0
vn -0.14142141 0.98994946 -0
vn 0.68245363 0.015871048 0.7307566
vn 0.68245363 0.015871048 0.7307566
vn -0.14142141 0.98994946 -0
vn 0.68245363 0.015871048 0.7307566
vn -0.172001 0.9850967 -0
vn -0.1110971 0.968132 0.2244501
vn 0.68245363 0.015871048 0.7307566
vn 0.015870988 0.9363899 0.35060233
vn 0.68245363 0.015871048 0.7307566
vn -0.1110971 0.968132 0.2244501
vn 0.23806524 0.8411639 0.48555973
vn 0.68245363 0.015871048 0.7307566
vn 0.015870988 0.90464795 0.42586404
vn 0.4285174 0.7776798 0.45998588
vn 0.68245363 0.015871048 0.7307566
vn 0.49200147 0.7776798 0.3913422
vn 0.68245363 0.015871048 0.7307566
vn 0.4285174 0.7776798 0.45998588
vn 0.49101302 0.87115216 -0
vn 0.68245363 0.015871048 0.7307566
vn 0.23806524 0.8411639 0.48555973
vn 0.23806524 0.8411639 0.48555973
vn -0.015871048 0.90464795 0.42586404
vn 0.5237435 0.7776798 0.3477167
vn 0.36503333 0.90464795 0.21991529
vn 0.68245363 0.015871048 0.7307566
vn -0.1428392 0.968132 0.20571192
vn 0.4285174 0.7776798 0.45998588
vn 0.49101302 0.87115216 -0
vn -0.172001 0.9850967 -0
vn -0.14142141 0.98994946 -0
vn -0.68245375 0.015871048 -0.73075646
vn -0.68245375 0.015871048 -0.73075646
vn -0.68245375 0.015871048 -0.73075646
vn -0.68245375 0.015871048 -0.73075646
vn -0.68245375 0.015871048 -0.73075646
vn -0.68245375 0.015871048 -0.73075646
vn -0.68245375 0.015871048 -0.73075646
vn -0.68245375 0.015871048 -0.73075646
vn 0.5237435 0.7776798 0.3477167
vn -0.68245375 0.015871048 -0.73075646
vn 0.46025944 0.87290585 0.16185382
vn -0.68245375 0.015871048 -0.73075646
vn 0.047613025 0.68245375 -0.7293764
vn 0.23806524 0.87290585 -0.4258642
vn 0.04756513 0.99886817 -0
vn 0.110431515 0.9938838 -0
vn -0.015871048 0.015871048 0.99974805
vn -0.015871048 0.015871048 0.99974805
vn -0.04756513 0.99886817 -0
vn -0.015871048 0.015871048 0.99974805
vn -0.04756513 0.99886817 -0
vn -0.079116344 0.9968654 -0
vn -0.079116344 0.9968654 -0
vn -0.015871048 0.015871048 0.99974805
vn -0.110431515 0.9938838 -0
vn -0.015871048 0.015871048 0.99974805
vn -0.015871048 0.999874 -0.00034526698
vn -0.015871048 0.015871048 -0.99974805
vn -0.015871048 0.015871048 -0.99974805
vn -0.015871048 0.015871048 -0.99974805
vn -0.04756513 0.99886817 -0
vn -0.015871048 0.015871048 -0.99974805
vn -0.079116344 0.9968654 -0
vn -0.015871048 0.015871048 -0.99974805
vn -0.110431515 0.9938838 -0
vn -0.015871048 0.015871048 -0.99974805
vn -0.110431515 0.9938838 -0
vn -0.079116344 0.9968654 -0
vn -0.079116344 0.9968654 -0
vn -0.015871048 0.015871048 -0.99974805
vn -0.079116344 0.9968654 -0
vn -0.015871048 0.015871048 -0.99974805
vn -0.079116344 0.9968654 -0
vn -0.015871048 0.015871048 0.99974805
vn -0.079116344 0.9968654 -0
vn -0.015871048 0.015871048 0.99974805
vn -0.079116344 0.9968654 -0
vn -0.04756513 0.99886817 -0
vn -0.015871048 0.015871048 0.99974805
vn -0.04756513 0.99886817 -0
vn -0.015871048 0.015871048 -0.99974805
vn -0.04756513 0.99886817 -0
vn -0.04756513 0.99886817 -0
vn -0.015871048 0.015871048 0.99974805
vn -0.079116344 0.9968654 -0
vn -0.015871048 0.015871048 -0.99974805
vn -0.079116344 0.9968654 -0
vn -0.079116344 0.9968654 -0
vn -0.015871048 0.015871048 0.99974805
vn -0.04756513 0.99886817 -0
vn -0.015871048 0.015871048 -0.99974805
vn -0.079116344 0.9968654 -0
vn -0.079116344 0.9968654 -0
vn -0.015871048 0.015871048 0.99974805
vn -0.079116344 0.9968654 -0
vn -0.015871048 0.015871048 -0.99974805
vn -0.079116344 0.9968654 -0
vn -0.079116344 0.9968654 -0
vn -0.079116344 0.9968654 -0
vn -0.015871048 0.015871048 0.99974805
vn -0.110431515 0.9938838 -0
vn -0.079116344 0.9968654 -0
vn -0.999874 0.015871048 -0.00034391563
vn -0.999874 0.015871048 -0.00034391563
vn -0.110431515 0.9938838 -0
vn -0.999874 0.015871048 -0.00034391563
vn -0.999874 0.015871048 -0.00034391563
vn 0.7459377 0.015871048 -0.66582656
vn 0.7459377 0.015871048 -0.66582656
vn 0.7459377 0.015871048 -0.66582656
vn 0.7459377 0.015871048 -0.66582656
vn 0.7459377 0.015871048 -0.66582656
vn 0.7459377 0.015871048 -0.66582656
vn 0.7459377 0.015871048 -0.66582656
vn 0.7459377 0.015871048 -0.66582656
vn 0.7459377 0.015871048 -0.66582656
vn 0.7459377 0.015871048 -0.66582656
vn -0.7459378 0.015871048 0.66582644
vn -0.7459378 0.015871048 0.66582644
vn -0.7459378 0.015871048 0.66582644
vn -0.7459378 0.015871048 0.66582644
vn -0.7459378 0.015871048 0.66582644
vn -0.7459378 0.015871048 0.66582644
vn -0.7459378 0.015871048 0.66582644
vn -0.7459378 0.015871048 0.66582644
vn -0.7459378 0.015871048 0.66582644
vn -0.7459378 0.015871048 0.66582644
g tb_geo_light_outline_08_mesh_0
f 3/3/3 2/2/2 1/1/1
f 4/4/4 3/3/3 1/1/1
f 6/6/6 5/5/5 4/4/4
f 5/5/5 7/7/7 4/4/4
f 8/8/8 5/5/5 6/6/6
f 9/9/9 8/8/8 6/6/6
f 10/10/10 8/8/8 9/9/9
f 11/11/11 10/10/10 9/9/9
f 5/5/5 8/8/8 12/12/12
f 8/8/8 10/10/10 12/12/12
f 5/5/5 13/13/13 7/7/7
f 13/13/13 5/5/5 12/12/12
f 14/14/14 10/10/10 11/11/11
f 15/15/15 14/14/14 11/11/11
f 13/13/13 16/16/16 7/7/7
f 17/17/17 7/7/7 16/16/16
f 10/10/10 18/18/18 12/12/12
f 10/10/10 14/14/14 18/18/18
f 19/19/19 14/14/14 15/15/15
f 20/20/20 19/19/19 15/15/15
f 21/21/21 13/13/13 12/12/12
f 22/22/22 16/16/16 13/13/13
f 21/21/21 22/22/22 13/13/13
f 12/12/12 18/18/18 23/23/23
f 23/23/23 21/21/21 12/12/12
f 14/14/14 24/24/24 18/18/18
f 19/19/19 25/25/25 14/14/14
f 25/25/25 24/24/24 14/14/14
f 26/26/26 25/25/25 19/19/19
f 18/18/18 27/27/27 23/23/23
f 27/27/27 18/18/18 24/24/24
f 25/25/25 28/28/28 24/24/24
f 28/28/28 25/25/25 26/26/26
f 29/29/29 26/26/26 19/19/19
f 29/29/29 19/19/19 30/30/30
f 31/31/31 29/29/29 30/30/30
f 32/32/32 29/29/29 31/31/31
f 29/29/29 32/32/32 26/26/26
f 33/33/33 32/32/32 31/31/31
f 34/34/34 32/32/32 33/33/33
f 35/35/35 34/34/34 33/33/33
f 36/36/36 27/27/27 24/24/24
f 28/28/28 36/36/36 24/24/24
f 36/36/36 28/28/28 37/37/37
f 38/38/38 36/36/36 37/37/37
f 27/27/27 36/36/36 38/38/38
f 39/39/39 27/27/27 38/38/38
f 23/23/23 27/27/27 39/39/39
f 40/40/40 23/23/23 39/39/39
f 21/21/21 23/23/23 40/40/40
f 41/41/41 21/21/21 40/40/40
f 22/22/22 21/21/21 41/41/41
f 42/42/42 22/22/22 41/41/41
f 43/43/43 22/22/22 42/42/42
f 44/44/44 43/43/43 42/42/42
f 16/16/16 22/22/22 43/43/43
f 45/45/45 16/16/16 43/43/43
f 46/46/46 45/45/45 43/43/43
f 45/45/45 17/17/17 16/16/16
f 45/45/45 46/46/46 17/17/17
f 47/47/47 46/46/46 43/43/43
f 47/47/47 43/43/43 48/48/48
f 49/49/49 47/47/47 48/48/48
f 50/50/50 47/47/47 49/49/49
f 47/47/47 50/50/50 46/46/46
f 51/51/51 50/50/50 49/49/49
f 52/52/52 50/50/50 51/51/51
f 52/52/52 53/53/53 50/50/50
f 54/54/54 52/52/52 51/51/51
f 55/55/55 52/52/52 54/54/54
f 52/52/52 55/55/55 53/53/53
f 56/56/56 55/55/55 54/54/54
f 50/50/50 57/57/57 46/46/46
f 53/53/53 57/57/57 50/50/50
f 46/46/46 57/57/57 58/58/58
f 57/57/57 53/53/53 58/58/58
f 46/46/46 59/59/59 17/17/17
f 59/59/59 46/46/46 58/58/58
f 17/17/17 59/59/59 60/60/60
f 61/61/61 17/17/17 60/60/60
f 60/60/60 59/59/59 62/62/62
f 59/59/59 58/58/58 62/62/62
f 62/62/62 58/58/58 63/63/63
f 58/58/58 64/64/64 63/63/63
f 53/53/53 64/64/64 58/58/58
f 63/63/63 64/64/64 65/65/65
f 64/64/64 66/66/66 65/65/65
f 64/64/64 53/53/53 66/66/66
f 55/55/55 67/67/67 53/53/53
f 53/53/53 67/67/67 66/66/66
f 68/68/68 67/67/67 55/55/55
f 67/67/67 68/68/68 66/66/66
f 69/69/69 68/68/68 55/55/55
f 69/69/69 55/55/55 70/70/70
f 71/71/71 69/69/69 70/70/70
f 72/72/72 69/69/69 71/71/71
f 73/73/73 72/72/72 71/71/71
f 74/74/74 68/68/68 69/69/69
f 72/72/72 74/74/74 69/69/69
f 75/75/75 72/72/72 73/73/73
f 72/72/72 75/75/75 74/74/74
f 76/76/76 75/75/75 73/73/73
f 68/68/68 77/77/77 66/66/66
f 68/68/68 74/74/74 77/77/77
f 78/78/78 75/75/75 76/76/76
f 79/79/79 78/78/78 76/76/76
f 66/66/66 77/77/77 80/80/80
f 81/81/81 66/66/66 80/80/80
f 80/80/80 77/77/77 82/82/82
f 77/77/77 83/83/83 82/82/82
f 74/74/74 83/83/83 77/77/77
f 82/82/82 83/83/83 84/84/84
f 75/75/75 85/85/85 74/74/74
f 83/83/83 74/74/74 85/85/85
f 75/75/75 78/78/78 85/85/85
f 83/83/83 86/86/86 84/84/84
f 86/86/86 83/83/83 85/85/85
f 84/84/84 86/86/86 87/87/87
f 88/88/88 78/78/78 79/79/79
f 89/89/89 88/88/88 79/79/79
f 78/78/78 90/90/90 85/85/85
f 86/86/86 85/85/85 90/90/90
f 78/78/78 88/88/88 90/90/90
f 86/86/86 91/91/91 87/87/87
f 91/91/91 86/86/86 90/90/90
f 87/87/87 91/91/91 92/92/92
f 91/91/91 93/93/93 92/92/92
f 91/91/91 90/90/90 93/93/93
f 92/92/92 93/93/93 94/94/94
f 95/95/95 88/88/88 89/89/89
f 96/96/96 95/95/95 89/89/89
f 88/88/88 97/97/97 90/90/90
f 90/90/90 97/97/97 93/93/93
f 88/88/88 95/95/95 97/97/97
f 93/93/93 98/98/98 94/94/94
f 94/94/94 98/98/98 99/99/99
f 98/98/98 100/100/100 99/99/99
f 93/93/93 97/97/97 101/101/101
f 98/98/98 93/93/93 101/101/101
f 95/95/95 101/101/101 97/97/97
f 101/101/101 102/102/102 98/98/98
f 101/101/101 95/95/95 102/102/102
f 102/102/102 100/100/100 98/98/98
f 100/100/100 102/102/102 103/103/103
f 104/104/104 95/95/95 96/96/96
f 95/95/95 104/104/104 102/102/102
f 103/103/103 102/102/102 104/104/104
f 105/105/105 104/104/104 96/96/96
f 106/106/106 103/103/103 104/104/104
f 106/106/106 104/104/104 107/107/107
f 108/108/108 106/106/106 107/107/107
f 109/109/109 106/106/106 108/108/108
f 106/106/106 109/109/109 103/103/103
f 110/110/110 109/109/109 108/108/108
f 111/111/111 109/109/109 110/110/110
f 112/112/112 111/111/111 110/110/110
f 109/109/109 113/113/113 103/103/103
f 113/113/113 109/109/109 111/111/111
f 114/114/114 111/111/111 112/112/112
f 115/115/115 114/114/114 112/112/112
f 116/116/116 114/114/114 115/115/115
f 117/117/117 116/116/116 115/115/115
f 111/111/111 114/114/114 118/118/118
f 114/114/114 116/116/116 118/118/118
f 119/119/119 113/113/113 111/111/111
f 119/119/119 111/111/111 118/118/118
f 113/113/113 119/119/119 120/120/120
f 120/120/120 119/119/119 118/118/118
f 113/113/113 121/121/121 103/103/103
f 121/121/121 113/113/113 120/120/120
f 122/122/122 116/116/116 117/117/117
f 122/122/122 123/123/123 116/116/116
f 124/124/124 122/122/122 117/117/117
f 125/125/125 122/122/122 124/124/124
f 123/123/123 122/122/122 125/125/125
f 126/126/126 125/125/125 124/124/124
f 116/116/116 127/127/127 118/118/118
f 123/123/123 127/127/127 116/116/116
f 128/128/128 118/118/118 127/127/127
f 128/128/128 120/120/120 118/118/118
f 121/121/121 129/129/129 103/103/103
f 129/129/129 100/100/100 103/103/103
f 100/100/100 129/129/129 130/130/130
f 131/131/131 100/100/100 130/130/130
f 130/130/130 129/129/129 132/132/132
f 129/129/129 121/121/121 132/132/132
f 132/132/132 121/121/121 133/133/133
f 121/121/121 120/120/120 133/133/133
f 133/133/133 120/120/120 134/134/134
f 120/120/120 128/128/128 134/134/134
f 134/134/134 128/128/128 135/135/135
f 136/136/136 128/128/128 127/127/127
f 128/128/128 136/136/136 135/135/135
f 136/136/136 127/127/127 123/123/123
f 135/135/135 136/136/136 137/137/137
f 136/136/136 138/138/138 137/137/137
f 138/138/138 136/136/136 123/123/123
f 137/137/137 138/138/138 139/139/139
f 138/138/138 140/140/140 139/139/139
f 138/138/138 123/123/123 140/140/140
f 123/123/123 141/141/141 140/140/140
f 141/141/141 123/123/123 125/125/125
f 125/125/125 142/142/142 141/141/141
f 142/142/142 125/125/125 143/143/143
f 144/144/144 142/142/142 143/143/143
f 145/145/145 142/142/142 144/144/144
f 146/146/146 145/145/145 144/144/144
f 142/142/142 147/147/147 141/141/141
f 142/142/142 145/145/145 147/147/147
f 140/140/140 141/141/141 148/148/148
f 141/141/141 147/147/147 148/148/148
f 149/149/149 145/145/145 146/146/146
f 150/150/150 149/149/149 146/146/146
f 145/145/145 151/151/151 147/147/147
f 148/148/148 147/147/147 151/151/151
f 145/145/145 149/149/149 151/151/151
f 140/140/140 148/148/148 152/152/152
f 153/153/153 140/140/140 152/152/152
f 152/152/152 148/148/148 154/154/154
f 148/148/148 155/155/155 154/154/154
f 155/155/155 148/148/148 151/151/151
f 154/154/154 155/155/155 156/156/156
f 155/155/155 151/151/151 157/157/157
f 149/149/149 157/157/157 151/151/151
f 155/155/155 158/158/158 156/156/156
f 158/158/158 155/155/155 157/157/157
f 156/156/156 158/158/158 159/159/159
f 158/158/158 160/160/160 159/159/159
f 158/158/158 157/157/157 161/161/161
f 157/157/157 149/149/149 161/161/161
f 160/160/160 158/158/158 161/161/161
f 149/149/149 162/162/162 161/161/161
f 162/162/162 149/149/149 150/150/150
f 163/163/163 162/162/162 150/150/150
f 160/160/160 161/161/161 164/164/164
f 165/165/165 161/161/161 162/162/162
f 166/166/166 165/165/165 162/162/162
f 166/166/166 167/167/167 165/165/165
f 167/167/167 168/168/168 165/165/165
f 167/167/167 169/169/169 168/168/168
f 169/169/169 170/170/170 168/168/168
f 169/169/169 171/171/171 170/170/170
f 171/171/171 172/172/172 170/170/170
f 171/171/171 173/173/173 172/172/172
f 173/173/173 174/174/174 172/172/172
f 175/175/175 160/160/160 164/164/164
f 175/175/175 164/164/164 176/176/176
f 177/177/177 175/175/175 176/176/176
f 177/177/177 176/176/176 178/178/178
f 179/179/179 177/177/177 178/178/178
f 179/179/179 178/178/178 180/180/180
f 181/181/181 179/179/179 180/180/180
f 181/181/181 180/180/180 182/182/182
f 180/180/180 174/174/174 182/182/182
f 174/174/174 173/173/173 183/183/183
f 184/184/184 182/182/182 174/174/174
f 183/183/183 184/184/184 174/174/174
f 182/182/182 184/184/184 185/185/185
f 186/186/186 182/182/182 185/185/185
f 185/185/185 184/184/184 187/187/187
f 184/184/184 188/188/188 187/187/187
f 187/187/187 188/188/188 189/189/189
f 183/183/183 190/190/190 184/184/184
f 190/190/190 188/188/188 184/184/184
f 188/188/188 191/191/191 189/189/189
f 189/189/189 191/191/191 192/192/192
f 173/173/173 193/193/193 183/183/183
f 183/183/183 193/193/193 190/190/190
f 193/193/193 173/173/173 194/194/194
f 195/195/195 193/193/193 194/194/194
f 196/196/196 193/193/193 195/195/195
f 193/193/193 196/196/196 190/190/190
f 197/197/197 196/196/196 195/195/195
f 198/198/198 196/196/196 197/197/197
f 190/190/190 196/196/196 198/198/198
f 199/199/199 198/198/198 197/197/197
f 190/190/190 200/200/200 188/188/188
f 200/200/200 190/190/190 198/198/198
f 200/200/200 191/191/191 188/188/188
f 201/201/201 198/198/198 199/199/199
f 198/198/198 201/201/201 200/200/200
f 202/202/202 201/201/201 199/199/199
f 200/200/200 203/203/203 191/191/191
f 201/201/201 203/203/203 200/200/200
f 204/204/204 201/201/201 202/202/202
f 205/205/205 204/204/204 202/202/202
f 203/203/203 206/206/206 191/191/191
f 191/191/191 206/206/206 192/192/192
f 192/192/192 206/206/206 207/207/207
f 208/208/208 203/203/203 201/201/201
f 203/203/203 208/208/208 206/206/206
f 204/204/204 208/208/208 201/201/201
f 206/206/206 209/209/209 207/207/207
f 208/208/208 209/209/209 206/206/206
f 207/207/207 209/209/209 210/210/210
f 211/211/211 204/204/204 205/205/205
f 212/212/212 211/211/211 205/205/205
f 213/213/213 208/208/208 204/204/204
f 209/209/209 208/208/208 213/213/213
f 211/211/211 213/213/213 204/204/204
f 209/209/209 214/214/214 210/210/210
f 214/214/214 209/209/209 213/213/213
f 210/210/210 214/214/214 215/215/215
f 214/214/214 216/216/216 215/215/215
f 214/214/214 213/213/213 216/216/216
f 215/215/215 216/216/216 217/217/217
f 216/216/216 218/218/218 217/217/217
f 219/219/219 211/211/211 212/212/212
f 220/220/220 219/219/219 212/212/212
f 213/213/213 211/211/211 221/221/221
f 213/213/213 221/221/221 216/216/216
f 211/211/211 219/219/219 221/221/221
f 221/221/221 222/222/222 216/216/216
f 222/222/222 221/221/221 219/219/219
f 222/222/222 218/218/218 216/216/216
f 223/223/223 219/219/219 220/220/220
f 223/223/223 222/222/222 219/219/219
f 224/224/224 223/223/223 220/220/220
f 225/225/225 222/222/222 223/223/223
f 222/222/222 225/225/225 218/218/218
f 226/226/226 225/225/225 223/223/223
f 226/226/226 223/223/223 227/227/227
f 228/228/228 226/226/226 227/227/227
f 229/229/229 226/226/226 228/228/228
f 230/230/230 229/229/229 228/228/228
f 229/229/229 231/231/231 226/226/226
f 231/231/231 225/225/225 226/226/226
f 232/232/232 229/229/229 230/230/230
f 231/231/231 229/229/229 232/232/232
f 233/233/233 232/232/232 230/230/230
f 234/234/234 232/232/232 233/233/233
f 235/235/235 234/234/234 233/233/233
f 236/236/236 231/231/231 232/232/232
f 236/236/236 232/232/232 234/234/234
f 237/237/237 234/234/234 235/235/235
f 238/238/238 237/237/237 235/235/235
f 239/239/239 236/236/236 234/234/234
f 239/239/239 234/234/234 237/237/237
f 240/240/240 237/237/237 238/238/238
f 241/241/241 240/240/240 238/238/238
f 242/242/242 240/240/240 241/241/241
f 243/243/243 242/242/242 241/241/241
f 240/240/240 244/244/244 237/237/237
f 240/240/240 242/242/242 244/244/244
f 245/245/245 242/242/242 243/243/243
f 246/246/246 245/245/245 243/243/243
f 247/247/247 239/239/239 237/237/237
f 244/244/244 247/247/247 237/237/237
f 247/247/247 248/248/248 239/239/239
f 247/247/247 244/244/244 248/248/248
f 239/239/239 249/249/249 236/236/236
f 248/248/248 249/249/249 239/239/239
f 242/242/242 250/250/250 244/244/244
f 242/242/242 245/245/245 250/250/250
f 251/251/251 245/245/245 246/246/246
f 252/252/252 251/251/251 246/246/246
f 249/249/249 253/253/253 236/236/236
f 231/231/231 236/236/236 253/253/253
f 244/244/244 254/254/254 248/248/248
f 254/254/254 244/244/244 250/250/250
f 245/245/245 255/255/255 250/250/250
f 245/245/245 251/251/251 255/255/255
f 256/256/256 231/231/231 253/253/253
f 225/225/225 231/231/231 256/256/256
f 257/257/257 225/225/225 256/256/256
f 225/225/225 257/257/257 218/218/218
f 218/218/218 257/257/257 258/258/258
f 259/259/259 218/218/218 258/258/258
f 258/258/258 257/257/257 260/260/260
f 257/257/257 256/256/256 260/260/260
f 260/260/260 256/256/256 261/261/261
f 256/256/256 253/253/253 261/261/261
f 261/261/261 253/253/253 262/262/262
f 253/253/253 249/249/249 262/262/262
f 262/262/262 249/249/249 263/263/263
f 249/249/249 248/248/248 263/263/263
f 263/263/263 248/248/248 264/264/264
f 248/248/248 254/254/254 264/264/264
f 264/264/264 254/254/254 265/265/265
f 254/254/254 266/266/266 265/265/265
f 265/265/265 266/266/266 267/267/267
f 266/266/266 254/254/254 250/250/250
f 266/266/266 268/268/268 267/267/267
f 268/268/268 266/266/266 250/250/250
f 267/267/267 268/268/268 269/269/269
f 255/255/255 268/268/268 250/250/250
f 268/268/268 270/270/270 269/269/269
f 255/255/255 271/271/271 268/268/268
f 271/271/271 270/270/270 268/268/268
f 251/251/251 271/271/271 255/255/255
f 272/272/272 271/271/271 251/251/251
f 271/271/271 272/272/272 270/270/270
f 273/273/273 272/272/272 251/251/251
f 273/273/273 251/251/251 274/274/274
f 275/275/275 273/273/273 274/274/274
f 276/276/276 273/273/273 275/275/275
f 277/277/277 276/276/276 275/275/275
f 278/278/278 272/272/272 273/273/273
f 276/276/276 278/278/278 273/273/273
f 278/278/278 276/276/276 279/279/279
f 280/280/280 276/276/276 277/277/277
f 276/276/276 280/280/280 279/279/279
f 281/281/281 280/280/280 277/277/277
f 282/282/282 280/280/280 281/281/281
f 280/280/280 282/282/282 279/279/279
f 283/283/283 282/282/282 281/281/281
f 272/272/272 284/284/284 270/270/270
f 272/272/272 278/278/278 284/284/284
f 270/270/270 284/284/284 285/285/285
f 286/286/286 270/270/270 285/285/285
f 285/285/285 284/284/284 287/287/287
f 278/278/278 288/288/288 284/284/284
f 284/284/284 288/288/288 287/287/287
f 278/278/278 279/279/279 288/288/288
f 287/287/287 288/288/288 289/289/289
f 288/288/288 290/290/290 289/289/289
f 279/279/279 290/290/290 288/288/288
f 289/289/289 290/290/290 291/291/291
f 290/290/290 292/292/292 291/291/291
f 290/290/290 279/279/279 292/292/292
f 291/291/291 292/292/292 293/293/293
f 282/282/282 294/294/294 279/279/279
f 279/279/279 294/294/294 292/292/292
f 295/295/295 294/294/294 282/282/282
f 294/294/294 295/295/295 292/292/292
f 292/292/292 296/296/296 293/293/293
f 295/295/295 296/296/296 292/292/292
f 293/293/293 296/296/296 297/297/297
f 296/296/296 298/298/298 297/297/297
f 298/298/298 296/296/296 295/295/295
f 297/297/297 298/298/298 299/299/299
f 300/300/300 295/295/295 282/282/282
f 300/300/300 282/282/282 283/283/283
f 301/301/301 300/300/300 283/283/283
f 302/302/302 300/300/300 301/301/301
f 300/300/300 302/302/302 295/295/295
f 303/303/303 302/302/302 301/301/301
f 302/302/302 304/304/304 295/295/295
f 304/304/304 298/298/298 295/295/295
f 305/305/305 302/302/302 303/303/303
f 302/302/302 305/305/305 304/304/304
f 306/306/306 305/305/305 303/303/303
f 298/298/298 307/307/307 299/299/299
f 299/299/299 307/307/307 308/308/308
f 304/304/304 309/309/309 298/298/298
f 305/305/305 309/309/309 304/304/304
f 309/309/309 307/307/307 298/298/298
f 310/310/310 305/305/305 306/306/306
f 305/305/305 310/310/310 309/309/309
f 311/311/311 310/310/310 306/306/306
f 307/307/307 312/312/312 308/308/308
f 308/308/308 312/312/312 313/313/313
f 307/307/307 309/309/309 314/314/314
f 310/310/310 314/314/314 309/309/309
f 312/312/312 307/307/307 314/314/314
f 315/315/315 310/310/310 311/311/311
f 310/310/310 315/315/315 314/314/314
f 316/316/316 315/315/315 311/311/311
f 312/312/312 317/317/317 313/313/313
f 312/312/312 314/314/314 317/317/317
f 313/313/313 317/317/317 318/318/318
f 315/315/315 319/319/319 314/314/314
f 314/314/314 319/319/319 317/317/317
f 320/320/320 315/315/315 316/316/316
f 319/319/319 315/315/315 320/320/320
f 321/321/321 320/320/320 316/316/316
f 317/317/317 322/322/322 318/318/318
f 322/322/322 317/317/317 319/319/319
f 318/318/318 322/322/322 323/323/323
f 322/322/322 34/34/34 323/323/323
f 324/324/324 322/322/322 319/319/319
f 324/324/324 319/319/319 320/320/320
f 324/324/324 325/325/325 322/322/322
f 325/325/325 34/34/34 322/322/322
f 324/324/324 320/320/320 325/325/325
f 326/326/326 320/320/320 321/321/321
f 320/320/320 326/326/326 325/325/325
f 327/327/327 326/326/326 321/321/321
f 325/325/325 328/328/328 34/34/34
f 328/328/328 32/32/32 34/34/34
f 32/32/32 328/328/328 26/26/26
f 326/326/326 329/329/329 325/325/325
f 329/329/329 328/328/328 325/325/325
f 328/328/328 329/329/329 26/26/26
f 329/329/329 326/326/326 330/330/330
f 331/331/331 329/329/329 330/330/330
f 329/329/329 332/332/332 26/26/26
f 332/332/332 329/329/329 331/331/331
f 332/332/332 28/28/28 26/26/26
f 333/333/333 332/332/332 331/331/331
f 28/28/28 332/332/332 333/333/333
f 334/334/334 28/28/28 333/333/333
f 336/336/336 173/173/173 335/335/335
f 173/173/173 337/337/337 335/335/335
f 335/335/335 337/337/337 338/338/338
f 337/337/337 339/339/339 338/338/338
f 338/338/338 339/339/339 340/340/340
f 339/339/339 341/341/341 340/340/340
f 340/340/340 341/341/341 342/342/342
f 341/341/341 343/343/343 342/342/342
f 342/342/342 343/343/343 344/344/344
f 343/343/343 162/162/162 344/344/344
f 346/346/346 160/160/160 345/345/345
f 160/160/160 347/347/347 345/345/345
f 345/345/345 347/347/347 348/348/348
f 347/347/347 349/349/349 348/348/348
f 348/348/348 349/349/349 350/350/350
f 349/349/349 351/351/351 350/350/350
f 350/350/350 351/351/351 352/352/352
f 351/351/351 353/353/353 352/352/352
f 352/352/352 353/353/353 354/354/354
f 353/353/353 182/182/182 354/354/354
