g tb_geo_meeple_p3c3_a_mesh
v -2.2266412 2.0239618 -1.8117754
v -0.9106384 1.7941805 -1.2990913
v -2.2266414 1.7941805 -1.2990923
v -0.91063803 2.0239618 -1.8117745
v -1.955982 1.7833097 -1.2776453
v -0.94064623 1.5535281 -0.7649605
v -1.9559822 1.553528 -0.76496136
v -0.9406459 1.7833098 -1.2776445
v -2.231744 1.54309 -0.74208105
v -0.934885 1.4474458 -0.5286797
v -2.2317443 1.4474455 -0.528681
v -0.9348848 1.5430902 -0.7420798
v -2.2151053 1.4617978 -0.49924356
v -1.5766308 1.3673245 -0.031952813
v -2.2151058 1.3673244 -0.03195341
v -1.5766305 1.461798 -0.49924296
v -2.1712813 1.3334665 -0.019984059
v -1.1332827 1.2755468 0.26650363
v -2.1712816 1.2755466 0.26650265
v -1.1332824 1.3334668 -0.019983076
vt 0 0
vt 1 1
vt 1 0
vt 0 1
vt 0 0
vt 1 1
vt 1 0
vt 0 1
vt 0 0
vt 1 1
vt 1 0
vt 0 1
vt 0 0
vt 1 1
vt 1 0
vt 0 1
vt 0 0
vt 1 1
vt 1 0
vt 0 1
vn -3.0473822E-07 0.91253734 0.40899336
vn -3.0473822E-07 0.91253734 0.40899336
vn -3.0473822E-07 0.91253734 0.40899336
vn -3.0473822E-07 0.91253734 0.40899336
vn -4.922904E-07 0.91253734 0.40899345
vn -4.922904E-07 0.91253734 0.40899345
vn -4.922904E-07 0.91253734 0.40899345
vn -4.922904E-07 0.91253734 0.40899345
vn -5.593293E-07 0.91253734 0.40899336
vn -5.593293E-07 0.91253734 0.40899336
vn -5.593293E-07 0.91253734 0.40899336
vn -5.593293E-07 0.91253734 0.40899336
vn -3.627877E-07 0.9801689 0.1981638
vn -3.627877E-07 0.9801689 0.1981638
vn -3.627877E-07 0.9801689 0.1981638
vn -3.627877E-07 0.9801689 0.1981638
vn -3.6278766E-07 0.98016894 0.1981638
vn -3.6278766E-07 0.98016894 0.1981638
vn -3.6278766E-07 0.98016894 0.1981638
vn -3.6278766E-07 0.98016894 0.1981638
g tb_geo_meeple_p3c3_a_mesh_0
f 3/3/3 2/2/2 1/1/1
f 4/4/4 1/1/1 2/2/2
f 7/7/7 6/6/6 5/5/5
f 8/8/8 5/5/5 6/6/6
f 11/11/11 10/10/10 9/9/9
f 12/12/12 9/9/9 10/10/10
f 15/15/15 14/14/14 13/13/13
f 16/16/16 13/13/13 14/14/14
f 19/19/19 18/18/18 17/17/17
f 20/20/20 17/17/17 18/18/18
