g tb_geo_section_05_mesh
v 0.1172586 0.10340458 0.46209958
v 0.120075576 0.10246557 0.44425872
v 0.12383154 0.09213665 0.44895372
v 0.10223472 0.10246557 0.5297071
v 0.10880767 0.07899079 0.5297071
v 0.09660077 0.10246557 0.5550598
v 0.11913658 0.10246557 0.49496433
v 0.12946549 0.07429582 0.4977813
v 0.12477054 0.08744171 0.48463538
v 0.13134348 0.06960085 0.48745236
v 0.1172586 0.10340458 0.46209958
v 0.16233023 0.10809952 0.647081
v 0.10223472 0.10246557 0.5916805
v 0.11819759 0.0639669 0.59543645
v 0.120075576 0.056454957 0.5644498
v 0.09660077 0.10246557 0.5550598
v 0.12758751 0.054576978 0.54003596
v 0.1172586 0.0752348 0.532524
v 0.10880767 0.07899079 0.5297071
v 0.14636736 0.05363798 0.5099882
v 0.12946549 0.07429582 0.4977813
v 0.13791643 0.072417825 0.5005983
v 0.1407334 0.07053983 0.49402532
v 0.13134348 0.06960085 0.48745236
v 0.1407334 0.06866187 0.48087946
v 0.14824533 0.051760003 0.49402532
v 0.15012333 0.041431084 0.44989267
v 0.1416724 0.066783875 0.44989267
v 0.1416724 0.040492088 0.4405028
v 0.13322146 0.06584489 0.44238076
v 0.13228247 0.09025869 0.45458767
v 0.12383154 0.09213665 0.44895372
v 0.12758751 0.09870961 0.46209958
v 0.1172586 0.10340458 0.46209958
v 0.12477054 0.08744171 0.48463538
v 0.13509946 0.083685726 0.47994044
v 0.13134348 0.06960085 0.48745236
v 0.15012333 0.041431084 0.44989267
v 0.1416724 0.040492088 0.4405028
v 0.14918433 0.037675112 0.43486884
v 0.19049999 0.029224187 0.43392983
v 0.19049999 0.031102166 0.43956378
v 0.19049999 0.02828519 0.42829588
v 0.14824533 0.051760003 0.49402532
v 0.19049999 0.034858137 0.45740464
v 0.19049999 0.05363798 0.5099882
v 0.14636736 0.05363798 0.5099882
v 0.19049999 0.054576978 0.5146831
v 0.14542836 0.03673613 0.42078397
v 0.12758751 0.054576978 0.54003596
v 0.19049999 0.055515975 0.5221951
v 0.19049999 0.055515975 0.52782905
v 0.120075576 0.056454957 0.5644498
v 0.11819759 0.0639669 0.59543645
v 0.19049999 0.057393953 0.534402
v 0.19049999 0.07617381 0.6123383
v 0.16233023 0.10809952 0.647081
v 0.19049999 0.09213665 0.63017917
v 0.19049999 0.021712244 0.38791922
v 0.19049999 0.11279449 0.654593
v 0.1651472 0.019834265 0.34942052
v 0.13791643 0.03673613 0.41514996
v 0.13885543 0.03673613 0.40388206
v 0.12852651 0.03673613 0.38228527
v 0.1050517 0.043309063 0.35974947
v 0.07688193 0.04988201 0.3522375
v 0.069369994 0.04988201 0.33533564
v 0.07594294 0.04237008 0.31561682
v 0.1520013 0.17382899 0.77008903
v 0.19049999 0.14378124 0.7137495
v 0.19049999 0.17476797 0.77008903
v -0.02828519 0.10809952 0.68464077
v 0.10223472 0.10246557 0.5916805
v 0.09660077 0.10246557 0.5550598
v -0.034858137 0.15786612 0.77008903
v 0.10223472 0.10246557 0.5297071
v -0.17570698 0.10809952 0.6996646
v -0.17758495 0.16256109 0.77008903
v -0.32125077 0.17101201 0.77008903
v -0.32031175 0.10809952 0.68370175
v -0.39261416 0.10809952 0.67243385
v -0.44613674 0.16537806 0.77008903
v -0.535341 0.10809952 0.66116595
v -0.5775956 0.1606831 0.77008903
v -0.4639776 0.10716054 0.6010704
v -0.43205187 0.10622156 0.525951
v -0.43205187 0.10434356 0.48087946
v -0.42078397 0.10340458 0.42735687
v -0.40857705 0.10340458 0.40388206
v -0.39637014 0.10246557 0.3804073
v -0.38228527 0.10246557 0.35411552
v -0.35129854 0.10246557 0.32406774
v -0.32688472 0.10246557 0.29871497
v -0.2573993 0.10246557 0.26397225
v -0.22641256 0.10246557 0.25927728
v -0.20387673 0.10246557 0.2555213
v -0.18134093 0.10246557 0.25176534
v -0.1475372 0.10246557 0.25833827
v -0.13720828 0.10246557 0.25270432
v -0.11279449 0.10246557 0.26585022
v -0.094014645 0.10246557 0.2573993
v -0.048943028 0.10246557 0.25927728
v -0.07992977 0.10246557 0.2442534
v -0.07147884 0.10246557 0.24143642
v -0.05927193 0.10246557 0.24613139
v -0.039553106 0.10246557 0.26115528
v -0.03391914 0.10246557 0.25833827
v -0.015139297 0.10246557 0.26585022
v -0.008566365 0.10246557 0.27617913
v 0.023359373 0.10246557 0.29871497
v 0.032749295 0.10246557 0.32312873
v 0.044956192 0.10246557 0.31373885
v 0.032749295 0.10246557 0.29871497
v 0.046834186 0.10246557 0.33627465
v 0.04965116 0.10246557 0.35035953
v 0.05528511 0.10246557 0.36726138
v 0.07782093 0.10246557 0.37852928
v 0.100356735 0.10246557 0.3982481
v 0.11350263 0.10246557 0.42360094
v 0.120075576 0.10246557 0.44425872
v 0.1172586 0.10340458 0.46209958
v 0.11913658 0.10246557 0.49496433
v 0.16890317 0.019834265 0.34660354
v 0.19049999 0.021712244 0.3682004
v 0.15951325 0.019834265 0.33627465
v 0.10974666 0.027346209 0.28556907
v 0.07594294 0.03861411 0.290264
v 0.10411271 0.027346209 0.27993512
v 0.09660077 0.029224187 0.27242318
v 0.058102086 0.04237008 0.27524015
v 0.068431005 0.03391914 0.24331442
v 0.038383245 0.04988201 0.27805713
v 0.062797055 0.034858137 0.23768046
v 0.05152914 0.03673613 0.22547355
v 0.001762554 0.056454957 0.25270432
v 0.047773167 0.03673613 0.22265658
v -0.0057493746 0.056454957 0.24237543
v -0.010444343 0.04424806 0.19542581
v 0.021481395 0.035797134 0.19542581
v -0.013261318 0.045187056 0.19542581
v -0.018895268 0.056454957 0.23580247
v -0.015139297 0.045187056 0.19542581
v -0.026407212 0.056454957 0.2329855
v -0.023590237 0.056454957 0.23861945
v -0.017956287 0.045187056 0.19542581
v -0.041431084 0.056454957 0.23486349
v -0.03298016 0.056454957 0.23580247
v -0.024529219 0.045187056 0.19542581
v -0.051760003 0.052698985 0.2198396
v -0.031102166 0.045187056 0.19542581
v -0.06584489 0.052698985 0.21608365
v -0.077112794 0.047065035 0.19542581
v -0.08556372 0.047065035 0.19542581
v -0.08086875 0.052698985 0.21890062
v -0.09025869 0.047065035 0.19542581
v -0.09213665 0.057393953 0.23392448
v -0.09777063 0.047065035 0.19542581
v -0.10903853 0.056454957 0.22829053
v -0.10434356 0.062088907 0.24049744
v -0.10716054 0.047065035 0.19542581
v -0.1362693 0.05833295 0.23486349
v -0.14472023 0.05927193 0.21796161
v -0.11748946 0.050821006 0.19542581
v -0.16350007 0.050821006 0.19542581
v -0.1832189 0.050821006 0.19542581
v -0.18227991 0.056454957 0.21138868
v -0.20199874 0.050821006 0.19542581
v -0.21514463 0.05833295 0.21702263
v -0.19448683 0.05833295 0.22735155
v -0.20575473 0.05927193 0.23016852
v -0.21514463 0.051760003 0.19542581
v -0.23580247 0.05927193 0.21420565
v -0.2686672 0.04988201 0.19542581
v -0.2808741 0.048943028 0.19542581
v -0.25270432 0.060210943 0.22265658
v -0.28650805 0.04800403 0.19542581
v -0.2564603 0.062088907 0.23674145
v -0.2696062 0.06302792 0.23861945
v -0.290264 0.04800403 0.19542581
v -0.29683697 0.047065035 0.19542581
v -0.293081 0.061149925 0.23861945
v -0.30434892 0.046126053 0.19542581
v -0.32031175 0.05927193 0.24988735
v -0.30810487 0.045187056 0.19542581
v -0.3456646 0.050821006 0.2329855
v -0.35974947 0.048943028 0.24800938
v -0.3419086 0.057393953 0.27805713
v -0.3747733 0.04988201 0.26209426
v -0.36726138 0.05927193 0.30247092
v -0.39449218 0.046126053 0.28181309
v -0.39730915 0.048943028 0.28556907
v -0.38228527 0.05833295 0.29965395
v -0.41608897 0.048943028 0.3034099
v -0.40763804 0.060210943 0.33157966
v -0.44144174 0.04237008 0.3297017
v -0.414211 0.062088907 0.34472558
v -0.409516 0.062088907 0.34284762
v -0.4480147 0.041431084 0.33627465
v -0.45646563 0.041431084 0.34472558
v -0.43017384 0.060210943 0.36162743
v -0.46679458 0.03673613 0.35505447
v -0.44331977 0.05833295 0.39261416
v -0.49590334 0.029224187 0.38416323
v -0.49965927 0.026407212 0.38791922
v -0.44613674 0.057393953 0.41984496
v -0.5221951 0.019834265 0.41045502
v -0.5372189 0.019834265 0.44895372
v -0.5118662 0.043309063 0.46585557
v -0.54003596 0.01701729 0.42829588
v -0.5484868 0.01701729 0.4367468
v -0.5569378 0.04424806 0.531585
v -0.60764337 0.007627368 0.4367468
v -0.62736225 0.0066883713 0.4592826
v -0.64989805 0.0029323995 0.4367468
v -0.70717657 0.0038713962 0.4367468
v -0.7137495 0.0038713962 0.4367468
v -0.67243385 0.025468215 0.58322954
v -0.7137495 0.0038713962 0.4367468
v -0.7315904 0.020773262 0.58322954
v -0.71468854 0.0038713962 0.4367468
v -0.75224817 0.004810393 0.4865134
v -0.75224817 -0.004579529 0.4367468
v -0.75224817 0.017956287 0.58135164
v 0.11444162 0.06584489 0.39261416
v 0.12852651 0.062088907 0.417967
v 0.11350263 0.10246557 0.42360094
v 0.100356735 0.10246557 0.3982481
v 0.09096681 0.07429582 0.37007836
v 0.07782093 0.10246557 0.37852928
v 0.068431005 0.06960085 0.35787144
v 0.05528511 0.10246557 0.36726138
v 0.04965116 0.10246557 0.35035953
v 0.061858058 0.06960085 0.3409696
v 0.07688193 0.04988201 0.3522375
v 0.069369994 0.04988201 0.33533564
v 0.04965116 0.10246557 0.35035953
v 0.059041083 0.06584489 0.32500675
v 0.046834186 0.10246557 0.33627465
v 0.069369994 0.04988201 0.33533564
v 0.044956192 0.10246557 0.31373885
v 0.07594294 0.04237008 0.31561682
v 0.05528511 0.06866187 0.30247092
v 0.07594294 0.03861411 0.290264
v 0.032749295 0.10246557 0.29871497
v 0.058102086 0.04237008 0.27524015
v 0.041200235 0.06772286 0.28650805
v 0.023359373 0.10246557 0.29871497
v 0.038383245 0.04988201 0.27805713
v -0.10716054 0.077112794 0.25082636
v -0.094014645 0.10246557 0.2573993
v -0.11279449 0.10246557 0.26585022
v -0.09307566 0.07992977 0.24519241
v -0.10434356 0.062088907 0.24049744
v -0.09213665 0.057393953 0.23392448
v -0.07992977 0.10246557 0.2442534
v -0.094014645 0.10246557 0.2573993
v -0.09307566 0.07992977 0.24519241
v -0.07899079 0.07992977 0.23768046
v -0.07147884 0.10246557 0.24143642
v -0.08086875 0.052698985 0.21890062
v -0.09213665 0.057393953 0.23392448
v -0.06960085 0.07992977 0.23486349
v -0.06584489 0.052698985 0.21608365
v -0.051760003 0.052698985 0.2198396
v -0.056454957 0.08086875 0.24049744
v -0.041431084 0.056454957 0.23486349
v -0.05927193 0.10246557 0.24613139
v -0.046126053 0.082746744 0.24894837
v -0.048943028 0.10246557 0.25927728
v 0.001762554 0.056454957 0.25270432
v 0.038383245 0.04988201 0.27805713
v 0.023359373 0.10246557 0.29871497
v -0.008566365 0.10246557 0.27617913
v -0.015139297 0.10246557 0.26585022
v -0.0057493746 0.056454957 0.24237543
v -0.021712244 0.07053983 0.24237543
v -0.018895268 0.056454957 0.23580247
v -0.023590237 0.056454957 0.23861945
v -0.025468215 0.07053983 0.24519241
v -0.030163184 0.08556372 0.24894837
v -0.03391914 0.10246557 0.25833827
v -0.03673613 0.08462474 0.25082636
v -0.039553106 0.10246557 0.26115528
v -0.048943028 0.10246557 0.25927728
v -0.046126053 0.082746744 0.24894837
v -0.027346209 0.07053983 0.24143642
v -0.025468215 0.07053983 0.24519241
v -0.023590237 0.056454957 0.23861945
v -0.026407212 0.056454957 0.2329855
v -0.03298016 0.056454957 0.23580247
v -0.041431084 0.056454957 0.23486349
v -0.13720828 0.10246557 0.25270432
v -0.1475372 0.10246557 0.25833827
v -0.14659822 0.089319676 0.24988735
v -0.14096427 0.08744171 0.24331442
v -0.1362693 0.05833295 0.23486349
v -0.11185551 0.082746744 0.24143642
v -0.11279449 0.10246557 0.26585022
v -0.10903853 0.056454957 0.22829053
v -0.10716054 0.077112794 0.25082636
v -0.10434356 0.062088907 0.24049744
v -0.4639776 0.10716054 0.6010704
v -0.535341 0.10809952 0.66116595
v -0.47242853 0.09025869 0.5907415
v -0.43205187 0.10622156 0.525951
v -0.44519773 0.07617381 0.525951
v -0.44425872 0.0865027 0.48369643
v -0.45458767 0.06772286 0.48275742
v -0.43862477 0.082746744 0.43299082
v -0.4480147 0.060210943 0.43486884
v -0.44331977 0.05927193 0.43017384
v -0.4358078 0.08086875 0.42829588
v -0.43205187 0.089319676 0.4245399
v -0.43017384 0.08462474 0.4245399
v -0.42172292 0.088380694 0.40106508
v -0.44144174 0.09307566 0.43299082
v -0.44613674 0.09683162 0.47994044
v -0.44425872 0.0865027 0.48369643
v -0.43205187 0.10622156 0.525951
v -0.43205187 0.10434356 0.48087946
v -0.42078397 0.10340458 0.42735687
v -0.4245399 0.094014645 0.39918712
v -0.40857705 0.10340458 0.40388206
v -0.39637014 0.10246557 0.3804073
v -0.41233298 0.089319676 0.37007836
v -0.40857705 0.08462474 0.37195632
v -0.39543113 0.08556372 0.3522375
v -0.38228527 0.10246557 0.35411552
v -0.3907362 0.089319676 0.35035953
v -0.39355317 0.08556372 0.34942052
v -0.3747733 0.09213665 0.33439663
v -0.35129854 0.10246557 0.32406774
v -0.3982481 0.08180776 0.3372136
v -0.39543113 0.082746744 0.34848157
v -0.409516 0.062088907 0.34284762
v -0.40763804 0.060210943 0.33157966
v -0.3869802 0.08462474 0.32406774
v -0.38228527 0.05833295 0.29965395
v -0.3757123 0.08086875 0.30998287
v -0.36726138 0.05927193 0.30247092
v -0.35787144 0.0865027 0.31561682
v -0.33439663 0.08086875 0.28932503
v -0.32688472 0.10246557 0.29871497
v -0.36726138 0.05927193 0.30247092
v -0.30434892 0.08462474 0.27805713
v -0.2573993 0.10246557 0.26397225
v -0.2808741 0.088380694 0.26397225
v -0.26397225 0.08180776 0.25082636
v -0.23861945 0.094014645 0.25458232
v -0.22641256 0.10246557 0.25927728
v -0.25082636 0.08462474 0.24988735
v -0.2564603 0.062088907 0.23674145
v -0.2696062 0.06302792 0.23861945
v -0.28838605 0.07992977 0.24988735
v -0.2808741 0.088380694 0.26397225
v -0.293081 0.061149925 0.23861945
v -0.30434892 0.08462474 0.27805713
v -0.31655583 0.07617381 0.26021627
v -0.32031175 0.05927193 0.24988735
v -0.33439663 0.08086875 0.28932503
v -0.3419086 0.057393953 0.27805713
v -0.3372136 0.07147884 0.28463006
v -0.24894837 0.082746744 0.23486349
v -0.25082636 0.08462474 0.24988735
v -0.2564603 0.062088907 0.23674145
v -0.25270432 0.060210943 0.22265658
v -0.23016852 0.08180776 0.22922954
v -0.23580247 0.05927193 0.21420565
v -0.21514463 0.05833295 0.21702263
v -0.22359559 0.09307566 0.25270432
v -0.21138868 0.08180776 0.23016852
v -0.20575473 0.05927193 0.23016852
v -0.20293775 0.082746744 0.24237543
v -0.2085717 0.09213665 0.24988735
v -0.20387673 0.10246557 0.2555213
v -0.18885288 0.09589264 0.24800938
v -0.20293775 0.082746744 0.24237543
v -0.18134093 0.10246557 0.25176534
v -0.18979186 0.07429582 0.23674145
v -0.20575473 0.05927193 0.23016852
v -0.19448683 0.05833295 0.22735155
v -0.17946294 0.094953656 0.23955843
v -0.18979186 0.07429582 0.23674145
v -0.17946294 0.0752348 0.22829053
v -0.19448683 0.05833295 0.22735155
v -0.18227991 0.056454957 0.21138868
v -0.14472023 0.05927193 0.21796161
v -0.16725603 0.09307566 0.24049744
v -0.15692714 0.08086875 0.2329855
v -0.1362693 0.05833295 0.23486349
v -0.15129319 0.08744171 0.24800938
v -0.14659822 0.089319676 0.24988735
v -0.1475372 0.10246557 0.25833827
v -0.16256109 0.09683162 0.25176534
v -0.71468854 0.16162208 0.77008903
v -0.75224817 0.1606831 0.77008903
v -0.75224817 0.12875736 0.7193835
v -0.73722434 0.099648595 0.67243385
v -0.75224817 0.09683162 0.67149484
v -0.75224817 0.035797134 0.6029484
v -0.6752509 0.10434356 0.6667999
v -0.7315904 0.020773262 0.58322954
v -0.75224817 0.017956287 0.58135164
v -0.67243385 0.025468215 0.58322954
v -0.5869856 0.10622156 0.6517761
v -0.5569378 0.04424806 0.531585
v -0.47242853 0.09025869 0.5907415
v -0.44519773 0.07617381 0.525951
v -0.45458767 0.06772286 0.48275742
v -0.5118662 0.043309063 0.46585557
v -0.4480147 0.060210943 0.43486884
v -0.44613674 0.05833295 0.4254789
v -0.44331977 0.05927193 0.43017384
v -0.44613674 0.057393953 0.41984496
v -0.39543113 0.08556372 0.3522375
v -0.39543113 0.082746744 0.34848157
v -0.39355317 0.08556372 0.34942052
v -0.4020041 0.082746744 0.35035953
v -0.409516 0.062088907 0.34284762
v -0.40857705 0.08462474 0.37195632
v -0.414211 0.062088907 0.34472558
v -0.417967 0.08180776 0.36726138
v -0.43017384 0.060210943 0.36162743
v -0.42172292 0.088380694 0.40106508
v -0.44331977 0.05833295 0.39261416
v -0.43205187 0.08556372 0.3982481
v -0.43017384 0.08462474 0.4245399
v -0.44613674 0.057393953 0.41984496
v -0.4367468 0.08180776 0.42172292
v -0.4358078 0.08086875 0.42829588
v -0.43862477 0.07899079 0.4245399
v -0.44613674 0.05833295 0.4254789
v -0.44331977 0.05927193 0.43017384
v 0.068431005 0.06960085 0.35787144
v 0.095661774 0.072417825 0.36538342
v 0.09096681 0.07429582 0.37007836
v 0.07688193 0.04988201 0.3522375
v 0.1050517 0.043309063 0.35974947
v 0.11444162 0.06584489 0.39261416
v 0.11913658 0.0639669 0.38791922
v 0.12852651 0.03673613 0.38228527
v 0.13040449 0.061149925 0.40669903
v 0.12852651 0.062088907 0.417967
v 0.13885543 0.03673613 0.40388206
v 0.13791643 0.03673613 0.41514996
v 0.12477054 0.09870961 0.4254789
v 0.120075576 0.10246557 0.44425872
v 0.11350263 0.10246557 0.42360094
v 0.12852651 0.062088907 0.417967
v 0.12946549 0.09870961 0.43862477
v 0.12383154 0.09213665 0.44895372
v 0.13228247 0.089319676 0.44331977
v 0.13322146 0.06584489 0.44238076
v 0.13697743 0.060210943 0.42266193
v 0.13791643 0.03673613 0.41514996
v 0.14542836 0.03673613 0.42078397
v 0.14918433 0.037675112 0.43486884
v 0.13979441 0.06490588 0.43768582
v 0.1416724 0.040492088 0.4405028
vt 0.50459874 0.20756644
vt 0.50459874 0.2180995
vt 0.5109186 0.21599288
vt 0.5003855 0.1675408
vt 0.50881195 0.16964741
vt 0.49827895 0.15279453
vt 0.50459874 0.18860693
vt 0.5172385 0.18860693
vt 0.5109186 0.19492677
vt 0.51934505 0.19492677
vt 0.50459874 0.20756644
vt 0.5214517 0.09591599
vt 0.5024922 0.12962177
vt 0.51513183 0.13804823
vt 0.5172385 0.15279453
vt 0.49827895 0.15279453
vt 0.5214517 0.1654342
vt 0.51302516 0.1675408
vt 0.50881195 0.16964741
vt 0.5277715 0.1822871
vt 0.5172385 0.18860693
vt 0.51934505 0.18860693
vt 0.5214517 0.19282015
vt 0.51934505 0.19492677
vt 0.5214517 0.19913998
vt 0.52987814 0.19282015
vt 0.53409135 0.22231272
vt 0.52355826 0.2180995
vt 0.5319847 0.22652595
vt 0.5214517 0.22231272
vt 0.51302516 0.21177967
vt 0.5109186 0.21599288
vt 0.50881195 0.20756644
vt 0.50459874 0.20756644
vt 0.5109186 0.19492677
vt 0.51513183 0.19913998
vt 0.51934505 0.19492677
vt 0.53409135 0.22231272
vt 0.5319847 0.22652595
vt 0.53409135 0.23073918
vt 0.54462445 0.2349524
vt 0.54462445 0.23073918
vt 0.54462445 0.23705901
vt 0.52987814 0.19282015
vt 0.5425178 0.2180995
vt 0.54041123 0.1843937
vt 0.5277715 0.1822871
vt 0.54041123 0.18018048
vt 0.53409135 0.24127224
vt 0.5214517 0.1654342
vt 0.54041123 0.17596726
vt 0.54041123 0.17386064
vt 0.5172385 0.15279453
vt 0.51513183 0.13804823
vt 0.53830457 0.17175403
vt 0.53409135 0.123301946
vt 0.5214517 0.09591599
vt 0.5319847 0.10855566
vt 0.54462445 0.26233837
vt 0.52987814 0.08959615
vt 0.53830457 0.2855111
vt 0.5319847 0.24337885
vt 0.5319847 0.2518053
vt 0.5277715 0.26444498
vt 0.51934505 0.27708465
vt 0.50881195 0.28129786
vt 0.50881195 0.28972432
vt 0.5109186 0.302364
vt 0.5172385 0.0074382722
vt 0.52987814 0.047463905
vt 0.52987814 0.0074382722
vt 0.46246654 0.07063664
vt 0.5024922 0.12962177
vt 0.49827895 0.15279453
vt 0.4603599 0.0074382722
vt 0.5003855 0.1675408
vt 0.41822767 0.06221019
vt 0.41612107 0.0074382722
vt 0.3739888 0.0074382722
vt 0.3739888 0.07063664
vt 0.35081607 0.07695648
vt 0.3360698 0.0074382722
vt 0.3065772 0.08327632
vt 0.29393753 0.0074382722
vt 0.32974994 0.12119534
vt 0.340283 0.1654342
vt 0.340283 0.19282015
vt 0.34449625 0.22231272
vt 0.34870946 0.2349524
vt 0.35081607 0.24969868
vt 0.35502928 0.26444498
vt 0.36556235 0.28129786
vt 0.3718822 0.29604414
vt 0.39294833 0.31711027
vt 0.4034814 0.3213235
vt 0.41190782 0.32343012
vt 0.41822767 0.32553673
vt 0.43086734 0.3213235
vt 0.43297395 0.32553673
vt 0.4414004 0.31711027
vt 0.44772023 0.32343012
vt 0.46246654 0.3213235
vt 0.45404008 0.32764333
vt 0.4561467 0.32764333
vt 0.4603599 0.32764333
vt 0.46457314 0.3213235
vt 0.46667975 0.3213235
vt 0.47299957 0.31711027
vt 0.4751062 0.31079045
vt 0.48142603 0.29815078
vt 0.48353264 0.2855111
vt 0.48774588 0.28972432
vt 0.48563924 0.29815078
vt 0.48774588 0.27919126
vt 0.48774588 0.2707648
vt 0.4898525 0.26023173
vt 0.4961723 0.2539119
vt 0.5003855 0.24337885
vt 0.50459874 0.22863255
vt 0.50459874 0.2180995
vt 0.50459874 0.20756644
vt 0.50459874 0.18860693
vt 0.53830457 0.2876177
vt 0.54462445 0.27497804
vt 0.5361979 0.29393753
vt 0.5214517 0.3213235
vt 0.5109186 0.31711027
vt 0.51934505 0.32553673
vt 0.5172385 0.32974994
vt 0.50459874 0.32553673
vt 0.5067054 0.34660286
vt 0.4961723 0.32553673
vt 0.50459874 0.35081607
vt 0.5024922 0.35713592
vt 0.48563924 0.3381764
vt 0.5003855 0.35924253
vt 0.48353264 0.34449625
vt 0.48142603 0.3739888
vt 0.4919591 0.3760954
vt 0.48142603 0.3739888
vt 0.47931942 0.34870946
vt 0.48142603 0.3739888
vt 0.47721282 0.35081607
vt 0.47721282 0.34660286
vt 0.47931942 0.3739888
vt 0.47089297 0.34870946
vt 0.4751062 0.34870946
vt 0.47721282 0.3739888
vt 0.46667975 0.35713592
vt 0.4751062 0.3739888
vt 0.46246654 0.36134914
vt 0.4582533 0.3739888
vt 0.45404008 0.3739888
vt 0.4561467 0.35924253
vt 0.45193347 0.3739888
vt 0.44982684 0.35081607
vt 0.44982684 0.3739888
vt 0.44561362 0.35292268
vt 0.44561362 0.34660286
vt 0.44772023 0.3739888
vt 0.43508056 0.34870946
vt 0.43297395 0.35924253
vt 0.44350702 0.3739888
vt 0.4266541 0.3718822
vt 0.42033428 0.3718822
vt 0.42033428 0.36134914
vt 0.41401443 0.3718822
vt 0.4076946 0.35713592
vt 0.41612107 0.35292268
vt 0.40980121 0.35292268
vt 0.4076946 0.3718822
vt 0.39926815 0.35924253
vt 0.3908417 0.3697756
vt 0.38662848 0.3718822
vt 0.39294833 0.35292268
vt 0.38662848 0.3718822
vt 0.3908417 0.34449625
vt 0.38662848 0.3423896
vt 0.38452187 0.3718822
vt 0.38241526 0.3718822
vt 0.37820202 0.3423896
vt 0.38030866 0.3718822
vt 0.3697756 0.3360698
vt 0.37820202 0.3718822
vt 0.36345574 0.34660286
vt 0.35713592 0.3381764
vt 0.35924253 0.31921688
vt 0.35292268 0.32974994
vt 0.35292268 0.3044706
vt 0.34449625 0.31711027
vt 0.3423896 0.31289706
vt 0.34660286 0.3044706
vt 0.3360698 0.302364
vt 0.3381764 0.2855111
vt 0.32553673 0.2876177
vt 0.3360698 0.27708465
vt 0.3381764 0.27919126
vt 0.32343012 0.28340447
vt 0.3213235 0.27919126
vt 0.32974994 0.26655158
vt 0.31711027 0.2728714
vt 0.32553673 0.24759208
vt 0.3065772 0.25601852
vt 0.3044706 0.2539119
vt 0.3213235 0.23284578
vt 0.29815078 0.24337885
vt 0.29393753 0.22020611
vt 0.3044706 0.20756644
vt 0.29393753 0.23284578
vt 0.29183093 0.22863255
vt 0.29183093 0.16964741
vt 0.27497804 0.22863255
vt 0.2707648 0.21388628
vt 0.26444498 0.22863255
vt 0.24759208 0.22863255
vt 0.24548545 0.22863255
vt 0.26023173 0.14226146
vt 0.24548545 0.22863255
vt 0.24337885 0.14226146
vt 0.24548545 0.22863255
vt 0.2349524 0.19913998
vt 0.2349524 0.22863255
vt 0.23705901 0.14436807
vt 0.51513183 0.2518053
vt 0.5214517 0.23916562
vt 0.50459874 0.22863255
vt 0.5003855 0.24337885
vt 0.5067054 0.26444498
vt 0.4961723 0.2539119
vt 0.5024922 0.27497804
vt 0.4898525 0.26023173
vt 0.48774588 0.2707648
vt 0.5003855 0.28340447
vt 0.50881195 0.28129786
vt 0.50881195 0.28972432
vt 0.48774588 0.2707648
vt 0.5003855 0.29183093
vt 0.48774588 0.27919126
vt 0.50881195 0.28972432
vt 0.48774588 0.28972432
vt 0.5109186 0.302364
vt 0.49827895 0.3044706
vt 0.5109186 0.31711027
vt 0.48563924 0.29815078
vt 0.50459874 0.32553673
vt 0.4940657 0.31289706
vt 0.48142603 0.29815078
vt 0.4961723 0.32553673
vt 0.44561362 0.3360698
vt 0.44772023 0.32343012
vt 0.4414004 0.31711027
vt 0.44982684 0.3360698
vt 0.44561362 0.34660286
vt 0.44982684 0.35081607
vt 0.45404008 0.32764333
vt 0.44772023 0.32343012
vt 0.44982684 0.3360698
vt 0.45404008 0.340283
vt 0.4561467 0.32764333
vt 0.4561467 0.35924253
vt 0.44982684 0.35081607
vt 0.4582533 0.340283
vt 0.46246654 0.36134914
vt 0.46667975 0.35713592
vt 0.46246654 0.3381764
vt 0.47089297 0.34870946
vt 0.4603599 0.32764333
vt 0.46667975 0.3339632
vt 0.46246654 0.3213235
vt 0.48563924 0.3381764
vt 0.4961723 0.32553673
vt 0.48142603 0.29815078
vt 0.4751062 0.31079045
vt 0.47299957 0.31711027
vt 0.48353264 0.34449625
vt 0.47721282 0.3381764
vt 0.47931942 0.34870946
vt 0.47721282 0.34660286
vt 0.4751062 0.340283
vt 0.47299957 0.33185655
vt 0.46667975 0.3213235
vt 0.46878636 0.33185655
vt 0.46457314 0.3213235
vt 0.46246654 0.3213235
vt 0.46667975 0.3339632
vt 0.4751062 0.340283
vt 0.4751062 0.340283
vt 0.47721282 0.34660286
vt 0.47721282 0.35081607
vt 0.4751062 0.34870946
vt 0.47089297 0.34870946
vt 0.43297395 0.32553673
vt 0.43086734 0.3213235
vt 0.43086734 0.33185655
vt 0.43297395 0.3339632
vt 0.43508056 0.34870946
vt 0.4414004 0.3360698
vt 0.4414004 0.31711027
vt 0.44561362 0.35292268
vt 0.44561362 0.3360698
vt 0.44561362 0.34660286
vt 0.32974994 0.12119534
vt 0.3065772 0.08327632
vt 0.32343012 0.12962177
vt 0.340283 0.1654342
vt 0.32764333 0.16964741
vt 0.33185655 0.19282015
vt 0.32343012 0.19492677
vt 0.33185655 0.22231272
vt 0.32343012 0.22441934
vt 0.32343012 0.22652595
vt 0.33185655 0.22441934
vt 0.3381764 0.22652595
vt 0.3360698 0.22652595
vt 0.3381764 0.23916562
vt 0.3360698 0.22020611
vt 0.3339632 0.19492677
vt 0.33185655 0.19282015
vt 0.340283 0.1654342
vt 0.340283 0.19282015
vt 0.34449625 0.22231272
vt 0.3423896 0.23916562
vt 0.34870946 0.2349524
vt 0.35081607 0.24969868
vt 0.34449625 0.25601852
vt 0.3423896 0.25601852
vt 0.34660286 0.2686582
vt 0.35502928 0.26444498
vt 0.34870946 0.2686582
vt 0.34870946 0.2707648
vt 0.35502928 0.27708465
vt 0.36556235 0.28129786
vt 0.34660286 0.27708465
vt 0.34660286 0.2707648
vt 0.3381764 0.27919126
vt 0.3381764 0.2855111
vt 0.34870946 0.28340447
vt 0.34660286 0.3044706
vt 0.35292268 0.29183093
vt 0.35292268 0.3044706
vt 0.35924253 0.29183093
vt 0.36556235 0.3065772
vt 0.3718822 0.29604414
vt 0.35292268 0.3044706
vt 0.3760954 0.31500366
vt 0.39294833 0.31711027
vt 0.38452187 0.3213235
vt 0.3887351 0.33185655
vt 0.39926815 0.32553673
vt 0.4034814 0.3213235
vt 0.39294833 0.33185655
vt 0.3908417 0.34449625
vt 0.38662848 0.3423896
vt 0.38030866 0.32974994
vt 0.38452187 0.3213235
vt 0.37820202 0.3423896
vt 0.3760954 0.31500366
vt 0.3718822 0.32553673
vt 0.3697756 0.3360698
vt 0.36556235 0.3065772
vt 0.35924253 0.31921688
vt 0.36345574 0.31289706
vt 0.39505494 0.3381764
vt 0.39294833 0.33185655
vt 0.3908417 0.34449625
vt 0.39294833 0.35292268
vt 0.40137476 0.3423896
vt 0.39926815 0.35924253
vt 0.4076946 0.35713592
vt 0.4034814 0.32764333
vt 0.4076946 0.3423896
vt 0.40980121 0.35292268
vt 0.41190782 0.3381764
vt 0.40980121 0.32974994
vt 0.41190782 0.32343012
vt 0.41612107 0.32974994
vt 0.41190782 0.3381764
vt 0.41822767 0.32553673
vt 0.41612107 0.34449625
vt 0.40980121 0.35292268
vt 0.41612107 0.35292268
vt 0.41822767 0.3339632
vt 0.41612107 0.34449625
vt 0.42033428 0.34660286
vt 0.41612107 0.35292268
vt 0.42033428 0.36134914
vt 0.43297395 0.35924253
vt 0.4245475 0.3339632
vt 0.4266541 0.3423896
vt 0.43508056 0.34870946
vt 0.42876074 0.3339632
vt 0.43086734 0.33185655
vt 0.43086734 0.3213235
vt 0.4266541 0.32764333
vt 0.2539119 0.0074382722
vt 0.24337885 0.0074382722
vt 0.24127224 0.04114407
vt 0.24548545 0.07484987
vt 0.24127224 0.07484987
vt 0.23705901 0.12751517
vt 0.26444498 0.07695648
vt 0.24337885 0.14226146
vt 0.23705901 0.14436807
vt 0.26023173 0.14226146
vt 0.28972432 0.08748954
vt 0.29183093 0.16964741
vt 0.32343012 0.12962177
vt 0.32764333 0.16964741
vt 0.32343012 0.19492677
vt 0.3044706 0.20756644
vt 0.32343012 0.22441934
vt 0.3213235 0.23073918
vt 0.32343012 0.22652595
vt 0.3213235 0.23284578
vt 0.34660286 0.2686582
vt 0.34660286 0.2707648
vt 0.34870946 0.2707648
vt 0.34449625 0.2686582
vt 0.3381764 0.27919126
vt 0.3423896 0.25601852
vt 0.3360698 0.27708465
vt 0.3381764 0.26023173
vt 0.32974994 0.26655158
vt 0.3381764 0.23916562
vt 0.32553673 0.24759208
vt 0.3339632 0.24127224
vt 0.3360698 0.22652595
vt 0.3213235 0.23284578
vt 0.33185655 0.22863255
vt 0.33185655 0.22441934
vt 0.33185655 0.22863255
vt 0.3213235 0.23073918
vt 0.32343012 0.22652595
vt 0.5024922 0.27497804
vt 0.50881195 0.26655158
vt 0.5067054 0.26444498
vt 0.50881195 0.28129786
vt 0.51934505 0.27708465
vt 0.51513183 0.2518053
vt 0.5172385 0.25601852
vt 0.5277715 0.26444498
vt 0.5214517 0.24548545
vt 0.5214517 0.23916562
vt 0.5319847 0.2518053
vt 0.5319847 0.24337885
vt 0.50881195 0.22652595
vt 0.50459874 0.2180995
vt 0.50459874 0.22863255
vt 0.5214517 0.23916562
vt 0.50881195 0.22231272
vt 0.5109186 0.21599288
vt 0.51302516 0.22231272
vt 0.5214517 0.22231272
vt 0.52355826 0.2349524
vt 0.5319847 0.24337885
vt 0.53409135 0.24127224
vt 0.53409135 0.23073918
vt 0.52355826 0.22652595
vt 0.5319847 0.22652595
vn 0.92300946 0.37965548 0.06257196
vn 0.92300946 0.37965548 0.06257196
vn 0.92300946 0.37965548 0.06257196
vn 0.86097777 0.28660798 0.4202061
vn 0.86097777 0.31762373 0.39728135
vn 0.95402527 0.28660798 0.08770193
vn 0.86097777 0.31762373 0.39728135
vn 0.8919936 0.31762373 0.32165602
vn 0.92300946 0.3486396 -0.16280034
vn 0.92300946 0.3486396 0.16280034
vn 0.92300946 0.37965548 -0.06257196
vn 0.64386696 0.19356048 -0.74024975
vn 0.86097777 0.3486396 -0.3703616
vn 0.86097777 0.3486396 -0.3703616
vn 0.8919936 0.4416871 -0.0962285
vn 0.8919936 0.41067123 -0.18893535
vn 0.79894614 0.50371873 0.32856122
vn 0.70589864 0.65879786 0.26017773
vn 0.36472452 0.9069246 -0.2108643
vn 0.76793027 0.50371873 0.39566466
vn 0.26997018 0.9628687 -0
vn 0.64386696 0.7208296 0.25659308
vn 0.8262888 0.56324667 -0
vn 0.11659783 0.96895623 -0.21801102
vn 0.92300946 0.37965548 0.06257196
vn 0.92300946 0.37965548 -0.06257196
vn 0.92300946 0.3486396 -0.16280034
vn 0.8919936 0.3486396 -0.28774616
vn 0.67488277 0.2555921 -0.69224703
vn 0.64386696 0.31762373 -0.6960966
vn 0.79894614 0.50371873 -0.32856122
vn 0.51980364 0.5347346 -0.6662305
vn 0.61285114 0.78286123 0.10743269
vn 0.4887878 0.84489286 0.21735345
vn 0.4887878 0.65879786 0.571902
vn 0.70589864 0.5657505 0.42618477
vn 0.58183527 0.31762373 0.7487208
vn 0.20964533 0.96895623 -0.13104463
vn 0.1476137 0.93794036 -0.31381217
vn 0.17862952 0.96895623 -0.17092495
vn 0.11659783 0.96895623 -0.21801102
vn 0.11659783 0.96895623 -0.21801102
vn 0.11581644 0.99327064 -0
vn 0.08558202 0.96895623 -0.23194735
vn 0.08558202 0.96895623 -0.23194735
vn 0.08558202 0.96895623 -0.23194735
vn -0.0074654818 0.9999721 -0.00024414062
vn 0.054566205 0.96895623 -0.24113555
vn 0.20964533 0.96895623 -0.13104463
vn -0.0074654818 0.9999721 -0.00024414062
vn 0.054566205 0.96895623 -0.24113555
vn 0.054566205 0.96895623 -0.24113555
vn -0.10051298 0.96895623 -0.22587824
vn -0.06949711 0.93794036 -0.33976173
vn 0.054566205 0.96895623 -0.24113555
vn -0.0074654818 0.9069246 -0.42122677
vn -0.038481295 0.87590873 -0.4809398
vn -0.0074654818 0.9069246 -0.42122677
vn 0.08527268 0.9963577 -0
vn -0.038481295 0.87590873 -0.4809398
vn 0.08527268 0.9963577 -0
vn 0.24066114 0.96895623 -0.056622207
vn 0.457772 0.87590873 -0.15240966
vn 0.33370864 0.93794036 -0.09437385
vn 0.30269283 0.9069246 -0.29302692
vn 0.30269283 0.93794036 -0.1692481
vn 0.30269283 0.93794036 -0.1692481
vn 0.30269283 0.93794036 -0.1692481
vn -0.06949711 0.87590873 -0.47744536
vn -0.038481295 0.87590873 -0.4809398
vn -0.038481295 0.87590873 -0.4809398
vn -0.038481295 0.96895623 -0.24421923
vn -0.0074654818 0.9999721 -0.00024414062
vn 0.054486662 0.9985145 -0
vn -0.06949711 0.84489286 -0.53040195
vn 0.054486662 0.9985145 -0
vn -0.0074654818 0.96895623 -0.24711964
vn 0.023550332 0.8138771 -0.58055955
vn 0.023550332 0.8138771 -0.58055955
vn 0.023550332 0.96895623 -0.24610816
vn 0.023550332 0.93794036 -0.34599602
vn 0.023550332 0.87590873 -0.48190174
vn -0.0074654818 0.9069246 -0.42122677
vn -0.038481295 0.9069246 -0.4195318
vn -0.0074654818 0.9999721 -0.00024414062
vn 0.02354446 0.9997228 -0
vn 0.02354446 0.9997228 -0
vn -0.0074654818 0.9999721 -0.00024414062
vn -0.0074654818 0.9999721 -0.00024414062
vn -0.0074654818 0.9999721 -0.00024414062
vn -0.0074654818 0.9999721 -0.00024414062
vn -0.0074654818 0.9999721 -0.00024414062
vn -0.0074654818 0.9999721 -0.00024414062
vn -0.0074654818 0.9999721 -0.00024414062
vn -0.0074654818 0.9999721 -0.00024414062
vn -0.0074654818 0.9999721 -0.00024414062
vn -0.0074654818 0.9999721 -0.00024414062
vn 0.02354446 0.9997228 -0
vn -0.0074654818 0.9999721 -0.00024414062
vn -0.0074654818 0.9999721 -0.00024414062
vn -0.0074654818 0.9999721 -0.00024414062
vn -0.0074654818 0.9999721 -0.00024414062
vn -0.0074654818 0.9999721 -0.00024414062
vn -0.0074654818 0.9999721 -0.00024414062
vn -0.0074654818 0.9999721 -0.00024414062
vn -0.0074654818 0.9999721 -0.00024414062
vn -0.0074654818 0.9999721 -0.00024414062
vn -0.0074654818 0.9999721 -0.00024414062
vn 0.02354446 0.9997228 -0
vn 0.02354446 0.9997228 -0
vn 0.02354446 0.9997228 -0
vn -0.0074654818 0.9999721 -0.00024414062
vn -0.0074654818 0.9999721 -0.00024414062
vn -0.0074654818 0.9999721 -0.00024414062
vn 0.02354446 0.9997228 -0
vn 0.02354446 0.9997228 -0
vn 0.02354446 0.9997228 -0
vn 0.02354446 0.9997228 -0
vn -0.0074654818 0.9999721 -0.00024414062
vn -0.0074654818 0.9999721 -0.00024414062
vn -0.37965548 0.9069246 -0.18261833
vn 0.054486662 0.9985145 -0
vn 0.054486662 0.9985145 -0
vn 0.054486662 0.9985145 -0
vn 0.054486662 0.9985145 -0
vn 0.14603527 0.9892794 -0
vn 0.30269283 0.93794036 -0.1692481
vn 0.14603527 0.9892794 -0
vn 0.14603527 0.9892794 -0
vn 0.30269283 0.93794036 -0.1692481
vn 0.17862952 0.96895623 -0.17092495
vn 0.30269283 0.93794036 -0.1692481
vn 0.14603527 0.9892794 -0
vn 0.11581644 0.99327064 -0
vn 0.30269283 0.93794036 -0.1692481
vn 0.11581644 0.99327064 -0
vn 0.24066114 0.93794036 -0.24970001
vn 0.11581644 0.99327064 -0
vn 0.054486662 0.9985145 -0
vn 0.08527268 0.9963577 -0
vn 0.11659783 0.96895623 -0.21801102
vn 0.054486662 0.9985145 -0
vn 0.023550332 0.96895623 -0.24610816
vn -0.0074654818 0.9999721 -0.00024414062
vn 0.054486662 0.9985145 -0
vn -0.0074654818 0.96895623 -0.24711964
vn -0.0074654818 0.9999721 -0.00024414062
vn 0.054486662 0.9985145 -0
vn 0.023550332 0.96895623 -0.24610816
vn 0.054486662 0.9985145 -0
vn 0.023550332 0.96895623 -0.24610816
vn 0.02354446 0.9997228 -0
vn 0.02354446 0.9997228 -0
vn 0.023550332 0.96895623 -0.24610816
vn 0.02354446 0.9997228 -0
vn 0.054566205 0.96895623 -0.24113555
vn 0.02354446 0.9997228 -0
vn 0.023550332 0.96895623 -0.24610816
vn 0.11659783 0.9069246 -0.40483662
vn 0.054486662 0.9985145 -0
vn 0.1476137 0.96895623 -0.19832815
vn 0.054566205 0.93794036 -0.34247681
vn 0.023550332 0.96895623 -0.24610816
vn 0.023550332 0.96895623 -0.24610816
vn -0.0074654818 0.96895623 -0.24711964
vn -0.0074654818 0.93794036 -0.34671623
vn 0.023550332 0.96895623 -0.24610816
vn 0.054566205 0.96895623 -0.24113555
vn 0.02354446 0.9997228 -0
vn 0.02354446 0.9997228 -0
vn -0.0074654818 0.96895623 -0.24711964
vn -0.038481295 0.93794036 -0.34465498
vn -0.038481295 0.96895623 -0.24421923
vn -0.06949711 0.96895623 -0.23726362
vn -0.10051298 0.96895623 -0.22587824
vn -0.06933181 0.99759364 -0
vn -0.13152885 0.96895623 -0.20934187
vn -0.10051298 0.96895623 -0.22587824
vn -0.06933181 0.99759364 -0
vn -0.10051298 0.96895623 -0.22587824
vn -0.13152885 0.93794036 -0.32088634
vn -0.100011826 0.99498624 -0
vn -0.19356048 0.93794036 -0.2877538
vn -0.100011826 0.99498624 -0
vn -0.16254461 0.96895623 -0.18628761
vn -0.19356048 0.96895623 -0.15381227
vn -0.19356048 0.96895623 -0.15381227
vn -0.19356048 0.96895623 -0.15381227
vn -0.22457623 0.93794036 -0.26426008
vn -0.22457623 0.96895623 -0.10338945
vn -0.31762373 0.9069246 -0.27677226
vn -0.3486396 0.9069246 -0.23651242
vn -0.3486396 0.9069246 -0.23651242
vn -0.37965548 0.87590873 -0.29773417
vn -0.34841642 0.9373399 -0
vn -0.41067123 0.84489286 -0.3427903
vn -0.13152885 0.96895623 -0.20934187
vn -0.3486396 0.9069246 -0.23651242
vn -0.37965548 0.9069246 -0.18261833
vn -0.47270298 0.84489286 -0.25041556
vn -0.34841642 0.9373399 -0
vn -0.4416871 0.87590873 -0.19415566
vn -0.41067123 0.9069246 -0.0940046
vn -0.41067123 0.9069246 -0.0940046
vn -0.4416871 0.87590873 -0.19415566
vn -0.3486396 0.9069246 -0.23651242
vn -0.28660798 0.93794036 -0.19525298
vn -0.47270298 0.78286123 -0.4045741
vn -0.2555921 0.93794036 -0.23439394
vn -0.2555921 0.93794036 -0.23439394
vn -0.22457623 0.93794036 -0.26426008
vn -0.13152885 0.96895623 -0.20934187
vn -0.13152885 0.96895623 -0.20934187
vn -0.13152885 0.96895623 -0.20934187
vn -0.10051298 0.96895623 -0.22587824
vn -0.10051298 0.96895623 -0.22587824
vn -0.13152885 0.96895623 -0.20934187
vn -0.10051298 0.96895623 -0.22587824
vn -0.100011826 0.99498624 -0
vn -0.10051298 0.96895623 -0.22587824
vn -0.10051298 0.96895623 -0.22587824
vn -0.10051298 0.96895623 -0.22587824
vn -0.100011826 0.99498624 -0
vn 0.76793027 0.37965548 -0.51589227
vn 0.82996196 0.37965548 -0.40868673
vn 0.82996196 0.37965548 -0.40868673
vn 0.76793027 0.37965548 -0.51589227
vn 0.5508195 0.41067123 -0.72659963
vn 0.51980364 0.41067123 -0.74910164
vn 0.67488277 0.4416871 -0.5911394
vn 0.64386696 0.4416871 -0.6247782
vn 0.86097777 0.41067123 -0.3001107
vn 0.86097777 0.41067123 -0.3001107
vn 0.86097777 0.41067123 -0.3001107
vn 0.86097777 0.41067123 -0.3001107
vn 0.92300946 0.3486396 -0.16280034
vn 0.8919936 0.4416871 -0.0962285
vn 0.92300946 0.31762373 -0.21718353
vn 0.82996196 0.5347346 -0.15881446
vn 0.86097777 0.37965548 -0.33849522
vn 0.79894614 0.59676623 -0.0745325
vn 0.79894614 0.50371873 -0.32856122
vn 0.70589864 0.6277821 -0.32801935
vn 0.58183527 0.41067123 -0.70200914
vn 0.5508195 0.6277821 -0.5499886
vn 0.51980364 0.50371873 -0.68997943
vn 0.023550332 0.3486396 -0.93696094
vn 0.054566205 0.41067123 -0.9101492
vn -0.3486396 0.41067123 -0.84249604
vn -0.3486396 0.41067123 -0.84249604
vn -0.3486396 0.41067123 -0.84249604
vn -0.3486396 0.41067123 -0.84249604
vn -0.31762373 0.4416871 -0.8390636
vn -0.31762373 0.4416871 -0.8390636
vn -0.47270298 0.28660798 -0.8333113
vn -0.6277821 0.31762373 -0.71063685
vn -0.5347346 0.37965548 -0.75493085
vn -0.31762373 0.4416871 -0.8390636
vn 0.054566205 0.28660798 -0.9564927
vn -0.28660798 0.5347346 -0.79493064
vn -0.7208296 0.28660798 -0.63107884
vn 0.054566205 0.50371873 -0.8621426
vn 0.054566205 0.59676623 -0.8005577
vn 0.36472452 0.5657505 -0.73952854
vn 0.457772 0.47270298 -0.75299186
vn 0.5508195 0.50371873 -0.66548127
vn 0.51980364 0.31762373 -0.7930443
vn 0.61285114 0.4416871 -0.65522975
vn 0.67488277 0.3486396 -0.65037197
vn 0.61285114 0.4416871 -0.65522975
vn 0.5508195 0.4416871 -0.708174
vn 0.5508195 0.4416871 -0.708174
vn 0.58183527 0.4416871 -0.6829204
vn 0.67488277 0.4416871 -0.5911394
vn 0.64386696 0.4416871 -0.6247782
vn 0.24066114 0.47270298 -0.8477229
vn 0.08558202 0.47270298 -0.87705624
vn -0.50371873 0.31762373 -0.80335706
vn -0.5347346 0.19356048 -0.82255286
vn 0.11659783 0.50371873 -0.8559629
vn 0.023550332 0.47270298 -0.88090706
vn -0.0074654818 0.47270298 -0.8811902
vn -0.0074654818 0.47270298 -0.8811902
vn 0.1476137 0.47270298 -0.8687705
vn 0.1476137 0.47270298 -0.8687705
vn 0.24066114 0.47270298 -0.8477229
vn 0.86097777 0.31762373 -0.39728135
vn 0.86097777 0.28660798 -0.4202061
vn 0.36472452 0.5347346 -0.76225644
vn 0.054566205 0.50371873 -0.8621426
vn 0.1476137 0.47270298 -0.8687705
vn 0.08558202 0.65879786 -0.74743634
vn -0.41067123 0.47270298 -0.7796801
vn -0.5657505 0.37965548 -0.7319755
vn -0.19356048 0.37965548 -0.9046525
vn -0.10051298 0.3486396 -0.9318517
vn 0.20964533 0.47270298 -0.855921
vn 0.36472452 0.7208296 -0.5893901
vn 0.054566205 0.37965548 -0.9235173
vn 0.8919936 0.31762373 -0.32165602
vn 0.86097777 0.31762373 -0.39728135
vn -0.68981373 0.5347346 -0.4880737
vn -0.50371873 0.6277821 -0.5934282
vn -0.7208296 0.50371873 -0.47610095
vn -0.84489286 0.47270298 -0.25041553
vn -0.87590873 0.47270298 -0.096621946
vn -0.8990476 0.43785086 -0
vn -0.8990476 0.43785086 -0
vn -0.96895623 0.22457623 -0.103389375
vn -0.87590873 0.41067123 -0.25324503
vn -0.75184536 0.2555921 -0.60778385
vn -0.75184536 0.19356048 -0.63028795
vn -0.84489286 0.2555921 -0.46992418
vn -0.8138771 -0.33370864 -0.47564965
vn -0.8138771 -0.4887878 -0.3141505
vn -0.78286123 0.59676623 -0.17606348
vn -0.84489286 0.5347346 -0.014661656
vn -0.96895623 -0.20964533 0.13104458
vn -0.7208296 0.65879786 0.21538351
vn -0.4416871 0.87590873 -0.19415566
vn -0.50371873 0.84489286 -0.18006526
vn -0.7208296 0.59676623 -0.35252622
vn -0.4416871 0.84489286 -0.3017757
vn -0.47270298 0.8138771 -0.33786973
vn -0.68981373 0.5657505 -0.45175594
vn -0.8138771 -0.42675614 -0.39431363
vn -0.75184536 -0.17862952 -0.63468105
vn -0.5657505 0.65879786 -0.49589494
vn -0.59676623 0.65879786 -0.4580998
vn -0.84489286 0.5347346 0.014661656
vn -0.41067123 0.78286123 -0.4674157
vn -0.5657505 0.5347346 -0.6276825
vn -0.68981373 0.68981373 -0.2198046
vn -0.8668758 0.49852407 -0
vn -0.8668758 0.49852407 -0
vn -0.78286123 0.47270298 -0.40457407
vn -0.50371873 0.7208296 -0.47610095
vn -0.3486396 0.4416871 -0.82665765
vn -0.13152885 0.65879786 -0.74073315
vn 0.1476137 0.37965548 -0.91327536
vn -0.41067123 0.59676623 -0.68936145
vn -0.5347346 0.50371873 -0.67847353
vn -0.50371873 0.50371873 -0.7018083
vn -0.59676623 0.50371873 -0.6246099
vn -0.41067123 0.50371873 -0.7600109
vn -0.31762373 0.5347346 -0.78305435
vn -0.41067123 0.50371873 -0.7600109
vn -0.13152885 0.5657505 -0.8140188
vn -0.13152885 0.7208296 -0.6805181
vn -0.13152885 0.5347346 -0.83472097
vn -0.13152885 0.5657505 -0.8140188
vn -0.13152885 0.5347346 -0.83472097
vn -0.038481295 0.5347346 -0.8441434
vn -0.22457623 0.7208296 -0.6557211
vn -0.22457623 0.9069246 -0.3564453
vn -0.22457623 0.5347346 -0.81463146
vn -0.31762373 0.87590873 -0.3631791
vn -0.47270298 0.68981373 -0.54836935
vn -0.5347346 0.5347346 -0.6543071
vn -0.4416871 0.78286123 -0.4382246
vn -0.68981373 0.47270298 -0.54836935
vn -0.59676623 0.59676623 -0.53641415
vn -0.50371873 0.65879786 -0.55879587
vn -0.8138771 0.5347346 -0.22729486
vn -0.9069246 0.31762373 -0.27677226
vn -0.50371873 0.5347346 -0.67847353
vn -0.06949711 0.7208296 -0.68961936
vn -0.10051298 0.5347346 -0.83902085
vn 0.30269283 0.47270298 -0.82760435
vn -0.06949711 0.78286123 -0.6183029
vn 0.36472452 0.59676623 -0.714735
vn 0.79894614 0.22457623 -0.55789834
vn 0.73691446 0.37965548 -0.5593021
vn -0.038481295 0.7208296 -0.69204324
vn -0.13152885 0.50371873 -0.853796
vn -0.3486396 0.50371873 -0.7903909
vn -0.10051298 0.50371873 -0.85800034
vn 0.08558202 0.78286123 -0.6162824
vn -0.10051298 0.50371873 -0.85800034
vn -0.10051298 0.50371873 -0.85800034
vn -0.10051298 0.50371873 -0.85800034
vn -0.16254461 0.6277821 -0.7612285
vn -0.59676623 0.47270298 -0.64839953
vn -0.16254461 0.6277821 -0.7612285
vn -0.59676623 0.5657505 -0.5690312
vn -0.10051298 0.65879786 -0.7455753
vn 0.33370864 0.65879786 -0.67425805
vn 0.24066114 0.68981373 -0.68281716
vn 0.33370864 0.65879786 -0.67425805
vn 0.67488277 0.59676623 -0.4340545
vn 0.51980364 0.6277821 -0.5793909
vn 0.17862952 0.50371873 -0.84519756
vn 0.17862952 0.5347346 -0.8259239
vn 0.30269283 0.68981373 -0.65767324
vn -0.038481295 0.87590873 -0.4809398
vn -0.10051298 0.84489286 -0.5254076
vn -0.10051298 0.8138771 -0.5722772
vn -0.10051298 0.78286123 -0.614024
vn -0.10051298 0.78286123 -0.614024
vn -0.10051298 0.75184536 -0.6516331
vn -0.10051298 0.84489286 -0.5254076
vn -0.10051298 0.75184536 -0.6516331
vn -0.10051298 0.75184536 -0.6516331
vn -0.19356048 0.75184536 -0.63028795
vn -0.10051298 0.84489286 -0.5254076
vn -0.2555921 0.84489286 -0.46992415
vn -0.22457623 0.9069246 -0.3564453
vn -0.28660798 0.93794036 -0.19525298
vn -0.31762373 0.93794036 -0.13922289
vn -0.31762373 0.9069246 -0.27677226
vn -0.3486396 0.9069246 -0.23651242
vn -0.3486396 0.9069246 -0.23651242
vn -0.0074654818 0.96895623 -0.24711964
vn -0.3486396 0.9069246 -0.23651242
vn -0.28660798 0.93794036 -0.19525298
vn -0.31762373 0.50371873 -0.80335706
vn -0.3486396 0.75184536 -0.55962396
vn -0.50371873 0.65879786 -0.55879587
vn -0.31762373 0.41067123 -0.854672
vn -0.22457623 0.96895623 -0.10338945
vn -0.59676623 0.50371873 -0.6246099
vn -0.65879786 0.6277821 -0.4145781
vn -0.75184536 0.50371873 -0.42543626
vn -0.25505662 0.96692616 -0
vn -0.84489286 0.4416871 -0.30177566
vn -0.75184536 0.6277821 -0.20153953
vn -0.34841642 0.9373399 -0
vn -0.9069246 0.37965548 -0.18261833
vn -0.83091897 0.5563934 -0
vn -0.7208296 0.50371873 0.47610095
vn -0.9069246 0.41067123 0.0940046
vn -0.9373399 0.34841642 -0
vn -0.78286123 0.31762373 0.53501725
vn 0.27167702 0.3486396 -0.8970184
vn 0.4887878 0.47270298 -0.7332383
vn 0.27167702 0.93794036 -0.2155445
vn 0.27167702 0.31762373 -0.90846395
vn 0.58183527 0.37965548 -0.71925616
vn 0.36242032 0.9320148 -0
vn 0.70589864 0.50371873 -0.4979704
vn 0.76793027 0.37965548 -0.51589227
vn 0.82996196 0.5347346 -0.15881446
vn 0.82996196 0.5347346 0.15881446
vn 0.8919936 0.37965548 -0.24537554
vn 0.92300946 0.31762373 0.21718353
vn 0.64386696 0.47270298 -0.60165375
vn 0.4887878 0.84489286 0.21735345
vn 0.42675614 0.5657505 -0.7055534
vn 0.42675614 0.22457623 -0.8760392
vn 0.64386696 0.75184536 0.14199963
vn 0.61285114 0.31762373 0.72355276
vn 0.95402527 0.28660798 0.08770193
vn 0.58183527 0.038481295 0.8123958
vn 0.79894614 0.31762373 -0.510686
vn 0.5508195 0.28660798 -0.783871
vn 0.79894614 0.31762373 -0.510686
vn 0.94879794 0.3158834 -0
vn 0.95402527 0.28660798 0.08770193
vn 0.64386696 0.16254461 0.74767274
g tb_geo_section_05_mesh_0
f 3/3/3 2/2/2 1/1/1
f 6/6/6 5/5/5 4/4/4
f 7/7/7 4/4/4 5/5/5
f 8/8/8 7/7/7 5/5/5
f 9/9/9 7/7/7 8/8/8
f 10/10/10 9/9/9 8/8/8
f 9/9/9 11/11/11 7/7/7
f 14/14/14 13/13/13 12/12/12
f 13/13/13 14/14/14 15/15/15
f 16/16/16 13/13/13 15/15/15
f 16/16/16 15/15/15 17/17/17
f 16/16/16 17/17/17 18/18/18
f 16/16/16 18/18/18 19/19/19
f 17/17/17 20/20/20 18/18/18
f 21/21/21 19/19/19 18/18/18
f 20/20/20 22/22/22 18/18/18
f 22/22/22 21/21/21 18/18/18
f 22/22/22 20/20/20 23/23/23
f 22/22/22 23/23/23 21/21/21
f 23/23/23 24/24/24 21/21/21
f 25/25/25 24/24/24 23/23/23
f 20/20/20 26/26/26 23/23/23
f 26/26/26 25/25/25 23/23/23
f 26/26/26 27/27/27 25/25/25
f 27/27/27 28/28/28 25/25/25
f 27/27/27 29/29/29 28/28/28
f 29/29/29 30/30/30 28/28/28
f 28/28/28 30/30/30 31/31/31
f 31/31/31 25/25/25 28/28/28
f 30/30/30 32/32/32 31/31/31
f 31/31/31 32/32/32 33/33/33
f 33/33/33 25/25/25 31/31/31
f 32/32/32 34/34/34 33/33/33
f 33/33/33 34/34/34 35/35/35
f 36/36/36 25/25/25 33/33/33
f 36/36/36 33/33/33 35/35/35
f 25/25/25 36/36/36 37/37/37
f 36/36/36 35/35/35 37/37/37
f 40/40/40 39/39/39 38/38/38
f 40/40/40 38/38/38 41/41/41
f 38/38/38 42/42/42 41/41/41
f 40/40/40 41/41/41 43/43/43
f 38/38/38 44/44/44 42/42/42
f 44/44/44 45/45/45 42/42/42
f 44/44/44 46/46/46 45/45/45
f 44/44/44 47/47/47 46/46/46
f 47/47/47 48/48/48 46/46/46
f 49/49/49 40/40/40 43/43/43
f 48/48/48 47/47/47 50/50/50
f 51/51/51 48/48/48 50/50/50
f 52/52/52 51/51/51 50/50/50
f 53/53/53 52/52/52 50/50/50
f 53/53/53 54/54/54 52/52/52
f 54/54/54 55/55/55 52/52/52
f 56/56/56 55/55/55 54/54/54
f 56/56/56 54/54/54 57/57/57
f 58/58/58 56/56/56 57/57/57
f 49/49/49 43/43/43 59/59/59
f 57/57/57 60/60/60 58/58/58
f 61/61/61 49/49/49 59/59/59
f 61/61/61 62/62/62 49/49/49
f 61/61/61 63/63/63 62/62/62
f 61/61/61 64/64/64 63/63/63
f 61/61/61 65/65/65 64/64/64
f 61/61/61 66/66/66 65/65/65
f 67/67/67 66/66/66 61/61/61
f 68/68/68 67/67/67 61/61/61
f 60/60/60 57/57/57 69/69/69
f 70/70/70 60/60/60 69/69/69
f 69/69/69 71/71/71 70/70/70
f 57/57/57 72/72/72 69/69/69
f 73/73/73 72/72/72 57/57/57
f 73/73/73 74/74/74 72/72/72
f 72/72/72 75/75/75 69/69/69
f 74/74/74 76/76/76 72/72/72
f 72/72/72 77/77/77 75/75/75
f 77/77/77 78/78/78 75/75/75
f 78/78/78 77/77/77 79/79/79
f 77/77/77 80/80/80 79/79/79
f 80/80/80 81/81/81 79/79/79
f 81/81/81 82/82/82 79/79/79
f 81/81/81 83/83/83 82/82/82
f 82/82/82 83/83/83 84/84/84
f 85/85/85 83/83/83 81/81/81
f 86/86/86 85/85/85 81/81/81
f 86/86/86 81/81/81 80/80/80
f 87/87/87 86/86/86 80/80/80
f 88/88/88 87/87/87 80/80/80
f 89/89/89 88/88/88 80/80/80
f 90/90/90 89/89/89 80/80/80
f 91/91/91 90/90/90 80/80/80
f 92/92/92 91/91/91 80/80/80
f 93/93/93 92/92/92 80/80/80
f 94/94/94 93/93/93 80/80/80
f 95/95/95 94/94/94 80/80/80
f 96/96/96 95/95/95 80/80/80
f 80/80/80 77/77/77 96/96/96
f 77/77/77 97/97/97 96/96/96
f 98/98/98 97/97/97 77/77/77
f 99/99/99 98/98/98 77/77/77
f 100/100/100 99/99/99 77/77/77
f 101/101/101 100/100/100 77/77/77
f 77/77/77 72/72/72 101/101/101
f 72/72/72 102/102/102 101/101/101
f 102/102/102 103/103/103 101/101/101
f 102/102/102 104/104/104 103/103/103
f 102/102/102 105/105/105 104/104/104
f 72/72/72 106/106/106 102/102/102
f 107/107/107 106/106/106 72/72/72
f 107/107/107 72/72/72 108/108/108
f 109/109/109 108/108/108 72/72/72
f 110/110/110 109/109/109 72/72/72
f 111/111/111 110/110/110 72/72/72
f 111/111/111 112/112/112 110/110/110
f 112/112/112 113/113/113 110/110/110
f 111/111/111 114/114/114 112/112/112
f 111/111/111 115/115/115 114/114/114
f 115/115/115 111/111/111 72/72/72
f 116/116/116 115/115/115 72/72/72
f 117/117/117 116/116/116 72/72/72
f 118/118/118 117/117/117 72/72/72
f 76/76/76 118/118/118 72/72/72
f 76/76/76 119/119/119 118/118/118
f 76/76/76 120/120/120 119/119/119
f 76/76/76 121/121/121 120/120/120
f 76/76/76 122/122/122 121/121/121
f 59/59/59 124/124/124 123/123/123
f 61/61/61 59/59/59 123/123/123
f 123/123/123 125/125/125 61/61/61
f 61/61/61 125/125/125 126/126/126
f 68/68/68 61/61/61 126/126/126
f 68/68/68 126/126/126 127/127/127
f 126/126/126 128/128/128 127/127/127
f 127/127/127 128/128/128 129/129/129
f 130/130/130 127/127/127 129/129/129
f 130/130/130 129/129/129 131/131/131
f 130/130/130 131/131/131 132/132/132
f 131/131/131 133/133/133 132/132/132
f 132/132/132 133/133/133 134/134/134
f 135/135/135 132/132/132 134/134/134
f 135/135/135 134/134/134 136/136/136
f 137/137/137 135/135/135 136/136/136
f 137/137/137 136/136/136 138/138/138
f 136/136/136 139/139/139 138/138/138
f 138/138/138 140/140/140 137/137/137
f 140/140/140 141/141/141 137/137/137
f 141/141/141 140/140/140 142/142/142
f 143/143/143 141/141/141 142/142/142
f 143/143/143 144/144/144 141/141/141
f 143/143/143 142/142/142 145/145/145
f 146/146/146 143/143/143 145/145/145
f 146/146/146 147/147/147 143/143/143
f 145/145/145 148/148/148 146/146/146
f 148/148/148 149/149/149 146/146/146
f 148/148/148 150/150/150 149/149/149
f 150/150/150 151/151/151 149/149/149
f 150/150/150 152/152/152 151/151/151
f 152/152/152 153/153/153 151/151/151
f 153/153/153 154/154/154 151/151/151
f 153/153/153 155/155/155 154/154/154
f 155/155/155 156/156/156 154/154/154
f 155/155/155 157/157/157 156/156/156
f 157/157/157 158/158/158 156/156/156
f 158/158/158 159/159/159 156/156/156
f 158/158/158 157/157/157 160/160/160
f 161/161/161 158/158/158 160/160/160
f 161/161/161 160/160/160 162/162/162
f 160/160/160 163/163/163 162/162/162
f 163/163/163 164/164/164 162/162/162
f 164/164/164 165/165/165 162/162/162
f 165/165/165 166/166/166 162/162/162
f 166/166/166 165/165/165 167/167/167
f 168/168/168 166/166/166 167/167/167
f 169/169/169 166/166/166 168/168/168
f 170/170/170 169/169/169 168/168/168
f 167/167/167 171/171/171 168/168/168
f 171/171/171 172/172/172 168/168/168
f 171/171/171 173/173/173 172/172/172
f 173/173/173 174/174/174 172/172/172
f 174/174/174 175/175/175 172/172/172
f 174/174/174 176/176/176 175/175/175
f 176/176/176 177/177/177 175/175/175
f 177/177/177 176/176/176 178/178/178
f 176/176/176 179/179/179 178/178/178
f 179/179/179 180/180/180 178/178/178
f 180/180/180 181/181/181 178/178/178
f 180/180/180 182/182/182 181/181/181
f 182/182/182 183/183/183 181/181/181
f 182/182/182 184/184/184 183/183/183
f 184/184/184 185/185/185 183/183/183
f 185/185/185 186/186/186 183/183/183
f 186/186/186 187/187/187 183/183/183
f 187/187/187 186/186/186 188/188/188
f 189/189/189 187/187/187 188/188/188
f 189/189/189 188/188/188 190/190/190
f 189/189/189 190/190/190 191/191/191
f 192/192/192 189/189/189 191/191/191
f 192/192/192 191/191/191 193/193/193
f 194/194/194 192/192/192 193/193/193
f 194/194/194 193/193/193 195/195/195
f 194/194/194 195/195/195 196/196/196
f 194/194/194 196/196/196 197/197/197
f 195/195/195 198/198/198 196/196/196
f 198/198/198 199/199/199 196/196/196
f 199/199/199 200/200/200 196/196/196
f 199/199/199 201/201/201 200/200/200
f 201/201/201 202/202/202 200/200/200
f 201/201/201 203/203/203 202/202/202
f 203/203/203 204/204/204 202/202/202
f 204/204/204 205/205/205 202/202/202
f 204/204/204 206/206/206 205/205/205
f 206/206/206 207/207/207 205/205/205
f 208/208/208 205/205/205 207/207/207
f 206/206/206 209/209/209 207/207/207
f 210/210/210 207/207/207 209/209/209
f 211/211/211 208/208/208 207/207/207
f 210/210/210 212/212/212 207/207/207
f 211/211/211 207/207/207 213/213/213
f 207/207/207 212/212/212 213/213/213
f 213/213/213 212/212/212 214/214/214
f 213/213/213 214/214/214 215/215/215
f 213/213/213 215/215/215 216/216/216
f 217/217/217 211/211/211 213/213/213
f 217/217/217 213/213/213 216/216/216
f 217/217/217 216/216/216 218/218/218
f 219/219/219 217/217/217 218/218/218
f 220/220/220 219/219/219 218/218/218
f 221/221/221 219/219/219 220/220/220
f 220/220/220 222/222/222 221/221/221
f 219/219/219 221/221/221 223/223/223
f 226/226/226 225/225/225 224/224/224
f 227/227/227 226/226/226 224/224/224
f 227/227/227 224/224/224 228/228/228
f 229/229/229 227/227/227 228/228/228
f 229/229/229 228/228/228 230/230/230
f 231/231/231 229/229/229 230/230/230
f 231/231/231 230/230/230 232/232/232
f 230/230/230 233/233/233 232/232/232
f 230/230/230 234/234/234 233/233/233
f 234/234/234 235/235/235 233/233/233
f 233/233/233 237/237/237 236/236/236
f 237/237/237 238/238/238 236/236/236
f 233/233/233 239/239/239 237/237/237
f 238/238/238 237/237/237 240/240/240
f 239/239/239 241/241/241 237/237/237
f 237/237/237 242/242/242 240/240/240
f 242/242/242 237/237/237 241/241/241
f 243/243/243 242/242/242 241/241/241
f 240/240/240 242/242/242 244/244/244
f 243/243/243 245/245/245 242/242/242
f 242/242/242 246/246/246 244/244/244
f 245/245/245 246/246/246 242/242/242
f 246/246/246 247/247/247 244/244/244
f 246/246/246 245/245/245 248/248/248
f 246/246/246 248/248/248 247/247/247
f 251/251/251 250/250/250 249/249/249
f 250/250/250 252/252/252 249/249/249
f 249/249/249 252/252/252 253/253/253
f 252/252/252 254/254/254 253/253/253
f 257/257/257 256/256/256 255/255/255
f 257/257/257 255/255/255 258/258/258
f 255/255/255 259/259/259 258/258/258
f 257/257/257 258/258/258 260/260/260
f 257/257/257 260/260/260 261/261/261
f 258/258/258 262/262/262 260/260/260
f 259/259/259 262/262/262 258/258/258
f 262/262/262 263/263/263 260/260/260
f 264/264/264 263/263/263 262/262/262
f 265/265/265 262/262/262 259/259/259
f 265/265/265 264/264/264 262/262/262
f 266/266/266 264/264/264 265/265/265
f 267/267/267 265/265/265 259/259/259
f 268/268/268 266/266/266 265/265/265
f 268/268/268 265/265/265 267/267/267
f 269/269/269 268/268/268 267/267/267
f 272/272/272 271/271/271 270/270/270
f 273/273/273 272/272/272 270/270/270
f 273/273/273 270/270/270 274/274/274
f 270/270/270 275/275/275 274/274/274
f 275/275/275 276/276/276 274/274/274
f 275/275/275 277/277/277 276/276/276
f 276/276/276 277/277/277 278/278/278
f 279/279/279 276/276/276 278/278/278
f 276/276/276 279/279/279 280/280/280
f 276/276/276 280/280/280 274/274/274
f 280/280/280 281/281/281 274/274/274
f 281/281/281 280/280/280 282/282/282
f 283/283/283 281/281/281 282/282/282
f 283/283/283 282/282/282 284/284/284
f 282/282/282 285/285/285 284/284/284
f 280/280/280 286/286/286 282/282/282
f 287/287/287 286/286/286 280/280/280
f 287/287/287 288/288/288 286/286/286
f 288/288/288 289/289/289 286/286/286
f 290/290/290 286/286/286 289/289/289
f 282/282/282 286/286/286 290/290/290
f 282/282/282 290/290/290 285/285/285
f 290/290/290 291/291/291 285/285/285
f 294/294/294 293/293/293 292/292/292
f 295/295/295 294/294/294 292/292/292
f 295/295/295 296/296/296 294/294/294
f 297/297/297 295/295/295 292/292/292
f 295/295/295 297/297/297 296/296/296
f 297/297/297 292/292/292 298/298/298
f 297/297/297 299/299/299 296/296/296
f 297/297/297 298/298/298 300/300/300
f 301/301/301 299/299/299 297/297/297
f 300/300/300 301/301/301 297/297/297
f 304/304/304 303/303/303 302/302/302
f 302/302/302 305/305/305 304/304/304
f 305/305/305 306/306/306 304/304/304
f 305/305/305 307/307/307 306/306/306
f 307/307/307 308/308/308 306/306/306
f 307/307/307 309/309/309 308/308/308
f 309/309/309 310/310/310 308/308/308
f 311/311/311 310/310/310 309/309/309
f 312/312/312 311/311/311 309/309/309
f 309/309/309 313/313/313 312/312/312
f 313/313/313 314/314/314 312/312/312
f 315/315/315 314/314/314 313/313/313
f 309/309/309 316/316/316 313/313/313
f 316/316/316 309/309/309 317/317/317
f 309/309/309 318/318/318 317/317/317
f 317/317/317 318/318/318 319/319/319
f 317/317/317 319/319/319 320/320/320
f 316/316/316 317/317/317 320/320/320
f 321/321/321 316/316/316 320/320/320
f 316/316/316 321/321/321 313/313/313
f 322/322/322 313/313/313 321/321/321
f 322/322/322 315/315/315 313/313/313
f 322/322/322 321/321/321 323/323/323
f 323/323/323 324/324/324 322/322/322
f 322/322/322 325/325/325 315/315/315
f 324/324/324 325/325/325 322/322/322
f 325/325/325 326/326/326 315/315/315
f 327/327/327 326/326/326 325/325/325
f 325/325/325 324/324/324 328/328/328
f 329/329/329 327/327/327 325/325/325
f 325/325/325 328/328/328 329/329/329
f 327/327/327 329/329/329 330/330/330
f 331/331/331 329/329/329 328/328/328
f 331/331/331 328/328/328 332/332/332
f 333/333/333 330/330/330 329/329/329
f 329/329/329 331/331/331 333/333/333
f 333/333/333 334/334/334 330/330/330
f 334/334/334 333/333/333 335/335/335
f 333/333/333 336/336/336 335/335/335
f 337/337/337 336/336/336 333/333/333
f 331/331/331 337/337/337 333/333/333
f 337/337/337 338/338/338 336/336/336
f 337/337/337 339/339/339 338/338/338
f 339/339/339 337/337/337 331/331/331
f 340/340/340 338/338/338 339/339/339
f 341/341/341 340/340/340 339/339/339
f 341/341/341 339/339/339 331/331/331
f 341/341/341 331/331/331 332/332/332
f 341/341/341 332/332/332 342/342/342
f 332/332/332 343/343/343 342/342/342
f 344/344/344 341/341/341 342/342/342
f 345/345/345 342/342/342 343/343/343
f 343/343/343 346/346/346 345/345/345
f 346/346/346 347/347/347 345/345/345
f 347/347/347 346/346/346 348/348/348
f 349/349/349 348/348/348 346/346/346
f 346/346/346 350/350/350 349/349/349
f 349/349/349 351/351/351 348/348/348
f 351/351/351 352/352/352 348/348/348
f 352/352/352 353/353/353 348/348/348
f 348/348/348 353/353/353 354/354/354
f 354/354/354 355/355/355 348/348/348
f 353/353/353 356/356/356 354/354/354
f 355/355/355 354/354/354 357/357/357
f 354/354/354 356/356/356 358/358/358
f 354/354/354 358/358/358 357/357/357
f 356/356/356 359/359/359 358/358/358
f 357/357/357 358/358/358 360/360/360
f 358/358/358 359/359/359 361/361/361
f 358/358/358 362/362/362 360/360/360
f 362/362/362 358/358/358 361/361/361
f 344/344/344 360/360/360 362/362/362
f 344/344/344 362/362/362 361/361/361
f 364/364/364 349/349/349 363/363/363
f 364/364/364 363/363/363 365/365/365
f 363/363/363 366/366/366 365/365/365
f 363/363/363 367/367/367 366/366/366
f 367/367/367 363/363/363 349/349/349
f 367/367/367 368/368/368 366/366/366
f 369/369/369 368/368/368 367/367/367
f 370/370/370 367/367/367 349/349/349
f 350/350/350 370/370/370 349/349/349
f 371/371/371 369/369/369 367/367/367
f 371/371/371 367/367/367 370/370/370
f 372/372/372 369/369/369 371/371/371
f 373/373/373 372/372/372 371/371/371
f 371/371/371 374/374/374 373/373/373
f 374/374/374 371/371/371 370/370/370
f 374/374/374 370/370/370 350/350/350
f 375/375/375 374/374/374 350/350/350
f 376/376/376 374/374/374 375/375/375
f 377/377/377 374/374/374 376/376/376
f 378/378/378 376/376/376 375/375/375
f 377/377/377 376/376/376 379/379/379
f 377/377/377 379/379/379 380/380/380
f 379/379/379 381/381/381 380/380/380
f 376/376/376 378/378/378 382/382/382
f 376/376/376 382/382/382 383/383/383
f 382/382/382 384/384/384 383/383/383
f 383/383/383 384/384/384 385/385/385
f 384/384/384 386/386/386 385/385/385
f 387/387/387 386/386/386 384/384/384
f 388/388/388 382/382/382 378/378/378
f 382/382/382 388/388/388 384/384/384
f 389/389/389 387/387/387 384/384/384
f 388/388/388 389/389/389 384/384/384
f 390/390/390 387/387/387 389/389/389
f 391/391/391 390/390/390 389/389/389
f 391/391/391 389/389/389 388/388/388
f 392/392/392 390/390/390 391/391/391
f 392/392/392 391/391/391 393/393/393
f 394/394/394 378/378/378 393/393/393
f 394/394/394 388/388/388 378/378/378
f 391/391/391 394/394/394 393/393/393
f 394/394/394 391/391/391 388/388/388
f 397/397/397 396/396/396 395/395/395
f 397/397/397 395/395/395 398/398/398
f 398/398/398 399/399/399 397/397/397
f 400/400/400 399/399/399 398/398/398
f 398/398/398 395/395/395 401/401/401
f 401/401/401 395/395/395 84/84/84
f 402/402/402 400/400/400 398/398/398
f 402/402/402 398/398/398 401/401/401
f 402/402/402 403/403/403 400/400/400
f 404/404/404 402/402/402 401/401/401
f 405/405/405 401/401/401 84/84/84
f 401/401/401 405/405/405 404/404/404
f 83/83/83 405/405/405 84/84/84
f 405/405/405 406/406/406 404/404/404
f 406/406/406 405/405/405 83/83/83
f 407/407/407 406/406/406 83/83/83
f 407/407/407 408/408/408 406/406/406
f 406/406/406 408/408/408 409/409/409
f 410/410/410 406/406/406 409/409/409
f 410/410/410 409/409/409 411/411/411
f 410/410/410 411/411/411 412/412/412
f 411/411/411 413/413/413 412/412/412
f 410/410/410 412/412/412 414/414/414
f 417/417/417 416/416/416 415/415/415
f 416/416/416 418/418/418 415/415/415
f 416/416/416 419/419/419 418/418/418
f 415/415/415 418/418/418 420/420/420
f 419/419/419 421/421/421 418/418/418
f 418/418/418 422/422/422 420/420/420
f 418/418/418 421/421/421 422/422/422
f 421/421/421 423/423/423 422/422/422
f 420/420/420 422/422/422 424/424/424
f 422/422/422 423/423/423 425/425/425
f 422/422/422 426/426/426 424/424/424
f 426/426/426 422/422/422 425/425/425
f 424/424/424 426/426/426 427/427/427
f 426/426/426 425/425/425 428/428/428
f 426/426/426 429/429/429 427/427/427
f 429/429/429 426/426/426 428/428/428
f 427/427/427 429/429/429 430/430/430
f 431/431/431 429/429/429 428/428/428
f 429/429/429 431/431/431 430/430/430
f 432/432/432 431/431/431 428/428/428
f 430/430/430 431/431/431 433/433/433
f 431/431/431 432/432/432 433/433/433
f 436/436/436 435/435/435 434/434/434
f 434/434/434 435/435/435 437/437/437
f 435/435/435 438/438/438 437/437/437
f 436/436/436 439/439/439 435/435/435
f 438/438/438 435/435/435 440/440/440
f 439/439/439 440/440/440 435/435/435
f 441/441/441 438/438/438 440/440/440
f 442/442/442 440/440/440 439/439/439
f 441/441/441 440/440/440 442/442/442
f 443/443/443 442/442/442 439/439/439
f 444/444/444 441/441/441 442/442/442
f 442/442/442 443/443/443 445/445/445
f 444/444/444 442/442/442 445/445/445
f 448/448/448 447/447/447 446/446/446
f 449/449/449 448/448/448 446/446/446
f 447/447/447 450/450/450 446/446/446
f 447/447/447 451/451/451 450/450/450
f 451/451/451 452/452/452 450/450/450
f 446/446/446 450/450/450 452/452/452
f 452/452/452 451/451/451 453/453/453
f 454/454/454 449/449/449 446/446/446
f 454/454/454 446/446/446 452/452/452
f 455/455/455 449/449/449 454/454/454
f 456/456/456 455/455/455 454/454/454
f 456/456/456 454/454/454 457/457/457
f 458/458/458 452/452/452 453/453/453
f 458/458/458 454/454/454 452/452/452
f 454/454/454 458/458/458 457/457/457
f 458/458/458 453/453/453 459/459/459
f 457/457/457 458/458/458 459/459/459
