g tb_geo_section_06_mesh
v 0.022985697 0.1865195 -0.6831246
v 0.022985697 0.1865195 -0.69893634
v 0.0783267 0.18750769 -0.6999246
v 0.14552647 0.18948418 -0.72067744
v 0.14552647 0.14007258 -0.7038775
v 0.13267946 0.14995492 -0.7009128
v 0.104020715 0.15588427 -0.6910305
v 0.0783267 0.18750769 -0.6999246
v 0.0852443 0.14699018 -0.6851011
v 0.07536197 0.158849 -0.6801599
v 0.025950372 0.13710791 -0.66039526
v 0.07635021 0.13710791 -0.67719525
v 0.025950372 0.103507996 -0.66039526
v 0.0704208 0.07682574 -0.67521876
v 0.022985697 0.07188457 -0.6544659
v 0.022985697 0.061013997 -0.6524894
v 0.0506562 0.04223764 -0.63272476
v 0.102044225 0.030378819 -0.61296016
v 0.0783267 0.029390633 -0.5892426
v 0.07239729 0.1805901 -0.6811482
v 0.022985697 0.17960185 -0.676207
v 0.022985697 0.1805901 -0.67818344
v 0.022985697 0.1865195 -0.6831246
v 0.022985697 0.17466068 -0.64063066
v 0.022985697 0.17466068 -0.6396424
v 0.022985697 0.17466068 -0.6396424
v 0.022985697 0.17466068 -0.6396424
v 0.024962127 0.14896667 -0.6386542
v 0.022985697 0.14896667 -0.637666
v 0.022985697 0.1380961 -0.6574306
v 0.022985697 0.13710791 -0.65841883
v 0.022985697 0.13710791 -0.6574306
v 0.022985697 0.13414317 -0.65051293
v 0.022985697 0.13414317 -0.65051293
v 0.025950372 0.103507996 -0.66039526
v 0.022985697 0.12129617 -0.6356895
v 0.024962127 0.10449624 -0.6455718
v 0.022985697 0.105484486 -0.6356895
v 0.022985697 0.06793165 -0.63272476
v 0.022985697 0.06793165 -0.63272476
v 0.022985697 0.07188457 -0.6544659
v 0.022985697 0.061013997 -0.6524894
v 0.022985697 0.061013997 -0.6524894
v 0.0506562 0.04223764 -0.63272476
v 0.022985697 0.06793165 -0.6317366
v 0.041762114 0.049155235 -0.6149366
v 0.022985697 0.059037566 -0.61592484
v 0.022985697 0.04816699 -0.5971484
v 0.022985697 0.04816699 -0.5872661
v 0.05856204 0.047178805 -0.58528966
v 0.0783267 0.029390633 -0.5892426
v 0.022985697 0.047178805 -0.5803485
v 0.04472679 0.04421407 -0.5645368
v 0.022985697 0.04223764 -0.5714544
v 0.022985697 0.03433174 -0.55959564
v 0.04670328 0.029390633 -0.5408192
v 0.022985697 0.029390633 -0.52896047
v 0.031879783 0.03630823 -0.4410078
v 0.022985697 0.031367064 -0.5091958
v 0.0081622 0.031367064 -0.4943723
v -0.006661296 0.03235531 -0.47954884
v -0.014567137 0.033343554 -0.471643
v -0.027414143 0.033343554 -0.45780775
v -0.05607289 0.033343554 -0.429149
v -0.045202315 0.035319984 -0.38764328
v -0.06496698 0.03235531 -0.42025492
v -0.07089633 0.03235531 -0.4133373
v -0.085719824 0.03235531 -0.39851382
v -0.12129617 0.03630823 -0.36194924
v -0.12129617 0.039272904 -0.33724344
v -0.12920201 0.03630823 -0.35305515
v -0.14007258 0.037296474 -0.33329052
v -0.14007258 0.03630823 -0.3421846
v -0.14007258 0.03828472 -0.31154943
v 0.00025635958 0.03433174 -0.25719666
v -0.095602155 0.03630823 -0.2394085
v -0.10251975 0.03630823 -0.2394085
v -0.14007258 0.037296474 -0.2769613
v -0.093625665 0.037296474 -0.2305144
v -0.045202315 0.03630823 -0.18110281
v 0.021009207 0.03828472 -0.13860881
v -0.0017201304 0.03828472 -0.13762057
v 0.021009207 0.03828472 -0.11489123
v 0.025950372 0.03828472 -0.109950125
v 0.107973635 0.03828472 -0.109950125
v 0.08227962 0.03828472 -0.26806718
v 0.12082064 0.03828472 -0.12477356
v 0.12279713 0.03828472 -0.109950125
v 0.23842025 0.03828472 -0.11093831
v 0.25620842 0.039272904 -0.12971473
v 0.2591731 0.039272904 -0.11093831
v 0.30265534 0.037296474 -0.11093831
v 0.3451493 0.030378819 -0.15540874
v 0.20185566 0.03828472 -0.2769613
v 0.1682558 0.041249394 -0.4281608
v 0.1475029 0.035319984 -0.53884274
v 0.2591731 0.03828472 -0.53587806
v 0.04670328 0.029390633 -0.5408192
v 0.0783267 0.029390633 -0.5892426
v 0.102044225 0.030378819 -0.61296016
v 0.115879476 0.031367064 -0.60703075
v 0.15540874 0.037296474 -0.6267954
v 0.18505573 0.043225825 -0.6455718
v 0.15738523 0.037296474 -0.65347767
v 0.19197333 0.045202315 -0.6356895
v 0.23545557 0.04816699 -0.63074833
v 0.24731433 0.04816699 -0.64161885
v 0.28091422 0.037296474 -0.4380431
v 0.32241997 0.039272904 -0.2957377
v 0.41136083 0.03630823 -0.3639257
v 0.4904194 0.031367064 -0.279926
v 0.403455 0.024449468 -0.17616165
v 0.4074079 0.025437653 -0.15540874
v 0.46670184 0.027414143 -0.15540874
v 0.52599573 0.030378819 -0.15540874
v 0.54279566 0.030378819 -0.15540874
v 0.33526698 0.03433174 -0.578372
v 0.3510787 0.03235531 -0.5180899
v 0.31154943 0.043225825 -0.6544659
v 0.30265534 0.03630823 -0.7127716
v 0.3510787 0.033343554 -0.5833132
v 0.3510787 0.03828472 -0.6455718
v 0.3510787 0.035319984 -0.6673129
v 0.3510787 0.03235531 -0.6870775
v 0.3510787 0.033343554 -0.69300693
v 0.32439643 0.035319984 -0.714748
v 0.3510787 0.033343554 -0.7137598
v 0.3510787 0.033343554 -0.7424185
v 0.3293376 0.030378819 -0.77008903
v 0.3510787 0.030378819 -0.77008903
v 0.38171387 0.030378819 -0.48745468
v 0.36194924 0.031367064 -0.45879596
v 0.3945609 0.03235531 -0.47559592
v 0.41234908 0.035319984 -0.4568195
v 0.44693717 0.03828472 -0.42321962
v 0.47757238 0.045202315 -0.39258444
v 0.49931347 0.053108156 -0.37183157
v 0.52105457 0.05211991 -0.34910223
v 0.57244265 0.0540964 -0.2987024
v 0.57244265 0.03235531 -0.22952616
v 0.620866 0.028402388 -0.18011457
v 0.5734309 0.029390633 -0.15540874
v 0.6445836 0.027414143 -0.15540874
v 0.20877331 0.24087226 -0.77008903
v 0.25324374 0.24087226 -0.77008903
v 0.24434966 0.24087226 -0.73550093
v 0.19394982 0.24087226 -0.72463036
v 0.14552647 0.18553126 -0.77008903
v 0.21964383 0.24087226 -0.6910305
v 0.13663238 0.1865195 -0.7434068
v 0.14552647 0.18948418 -0.72067744
v 0.13663238 0.1865195 -0.7434068
v 0.14552647 0.18948418 -0.72067744
v 0.0783267 0.18750769 -0.6999246
v 0.022985697 0.1865195 -0.74538326
v 0.022985697 0.19541359 -0.7088187
v 0.022985697 0.1865195 -0.69893634
v 0.022985697 0.1865195 -0.7641596
v 0.14552647 0.18553126 -0.77008903
v 0.022985697 0.18553126 -0.77008903
v 0.18604398 0.095602155 -0.67126584
v 0.18505573 0.043225825 -0.6455718
v 0.15738523 0.037296474 -0.65347767
v 0.1475029 0.08275515 -0.701901
v 0.14552647 0.14007258 -0.7038775
v 0.19394982 0.14303726 -0.67719525
v 0.18703216 0.16971952 -0.68608934
v 0.14552647 0.18948418 -0.72067744
v 0.19987923 0.18553126 -0.6851011
v 0.21964383 0.24087226 -0.6910305
v 0.22260857 0.19047242 -0.6801599
v 0.26806718 0.18948418 -0.72759503
v 0.24434966 0.24087226 -0.73550093
v 0.25324374 0.24087226 -0.77008903
v 0.23150265 0.17367244 -0.67719525
v 0.28289068 0.18750769 -0.77008903
v 0.27794954 0.13414317 -0.72660685
v 0.2394085 0.14106083 -0.66928935
v 0.29474947 0.1311785 -0.77008903
v 0.2739966 0.11042565 -0.72265387
v 0.24929082 0.10054332 -0.65841883
v 0.27794954 0.09066099 -0.72067744
v 0.24731433 0.04816699 -0.64161885
v 0.30265534 0.03630823 -0.7127716
v 0.28585538 0.09066099 -0.72067744
v 0.2739966 0.11042565 -0.72265387
v 0.27794954 0.09066099 -0.72067744
v 0.30265534 0.03630823 -0.7127716
v 0.3046318 0.083743334 -0.77008903
v 0.32439643 0.035319984 -0.714748
v 0.3293376 0.030378819 -0.77008903
v 0.15738523 0.037296474 -0.65347767
v 0.15540874 0.037296474 -0.6267954
v 0.14552647 0.08473158 -0.6791717
v 0.09018546 0.07979041 -0.6574306
v 0.1475029 0.08275515 -0.701901
v 0.115879476 0.031367064 -0.60703075
v 0.102044225 0.030378819 -0.61296016
v 0.0704208 0.07682574 -0.67521876
v 0.14552647 0.14007258 -0.7038775
v 0.07635021 0.13710791 -0.67719525
v 0.13959706 0.14797843 -0.6910305
v 0.13267946 0.14995492 -0.7009128
v 0.107973635 0.15390784 -0.6801599
v 0.104020715 0.15588427 -0.6910305
v 0.0852443 0.14699018 -0.6851011
v 0.08722079 0.14501375 -0.67126584
v 0.19394982 0.14303726 -0.67719525
v 0.19394982 0.099555075 -0.65644234
v 0.18604398 0.095602155 -0.67126584
v 0.18505573 0.043225825 -0.6455718
v 0.19197333 0.045202315 -0.6356895
v 0.23545557 0.04816699 -0.63074833
v 0.23644376 0.10251975 -0.65051293
v 0.24731433 0.04816699 -0.64161885
v 0.24929082 0.10054332 -0.65841883
v 0.2394085 0.14106083 -0.66928935
v 0.20185566 0.1440255 -0.66336
v 0.22853792 0.14501375 -0.6574306
v 0.23150265 0.17367244 -0.67719525
v 0.19394982 0.17070776 -0.67324233
v 0.18703216 0.16971952 -0.68608934
v 0.19987923 0.18553126 -0.6851011
v 0.20383215 0.17960185 -0.6722541
v 0.22260857 0.19047242 -0.6801599
v 0.22260857 0.18355477 -0.66928935
vt 0.48451495 0.94633037
vt 0.48451495 0.9528655
vt 0.501942 0.95504385
vt 0.5215473 0.9681141
vt 0.52590406 0.93979526
vt 0.51936895 0.9419736
vt 0.51065546 0.93979526
vt 0.501942 0.95504385
vt 0.5062987 0.9310818
vt 0.501942 0.9332601
vt 0.49540684 0.909298
vt 0.5062987 0.9223682
vt 0.49976358 0.8962277
vt 0.51065546 0.8962277
vt 0.501942 0.88751423
vt 0.50412035 0.8831575
vt 0.5084771 0.874444
vt 0.51936895 0.87008727
vt 0.5150122 0.8548386
vt 0.4975852 0.9419736
vt 0.48451495 0.93979526
vt 0.48451495 0.9419736
vt 0.48451495 0.94633037
vt 0.48451495 0.9245466
vt 0.48451495 0.9245466
vt 0.48451495 0.9245466
vt 0.48451495 0.9245466
vt 0.48887172 0.9158331
vt 0.48887172 0.91365474
vt 0.49322847 0.909298
vt 0.49322847 0.909298
vt 0.49322847 0.90711963
vt 0.49322847 0.9049412
vt 0.49322847 0.9049412
vt 0.49976358 0.8962277
vt 0.49322847 0.8962277
vt 0.49540684 0.8940494
vt 0.49540684 0.88969266
vt 0.49976358 0.87880075
vt 0.49976358 0.87880075
vt 0.501942 0.88751423
vt 0.501942 0.8831575
vt 0.50412035 0.8831575
vt 0.5084771 0.874444
vt 0.49976358 0.8766224
vt 0.50412035 0.86790884
vt 0.49976358 0.86790884
vt 0.49976358 0.85919535
vt 0.4975852 0.8548386
vt 0.5084771 0.8526603
vt 0.5150122 0.8548386
vt 0.4975852 0.85048187
vt 0.50412035 0.84394675
vt 0.4975852 0.8461251
vt 0.4975852 0.83741164
vt 0.50412035 0.82869816
vt 0.4975852 0.822163
vt 0.49540684 0.7720604
vt 0.49540684 0.81127113
vt 0.4910501 0.80255765
vt 0.48669335 0.7938441
vt 0.48451495 0.78948736
vt 0.47797984 0.7829523
vt 0.46926636 0.7655253
vt 0.47144473 0.7393848
vt 0.46490958 0.75899017
vt 0.4627312 0.75681174
vt 0.45837447 0.74591994
vt 0.44530421 0.7241362
vt 0.44530421 0.70670915
vt 0.44312584 0.71760106
vt 0.4387691 0.7045308
vt 0.4387691 0.7110659
vt 0.4387691 0.69146055
vt 0.48233658 0.6587849
vt 0.45401773 0.6457147
vt 0.45183936 0.6457147
vt 0.4387691 0.6696768
vt 0.45401773 0.6413579
vt 0.46926636 0.6108607
vt 0.48887172 0.5847202
vt 0.48233658 0.5847202
vt 0.48887172 0.5694716
vt 0.4910501 0.56729317
vt 0.5150122 0.5694716
vt 0.5062987 0.66532004
vt 0.5171906 0.5781851
vt 0.51936895 0.5694716
vt 0.5498662 0.5694716
vt 0.5564013 0.5825418
vt 0.5564013 0.5716499
vt 0.56729317 0.5716499
vt 0.58036345 0.5999688
vt 0.5411527 0.6740335
vt 0.5346176 0.7655253
vt 0.53243923 0.8330549
vt 0.56075805 0.83741164
vt 0.50412035 0.82869816
vt 0.5150122 0.8548386
vt 0.51936895 0.87008727
vt 0.5237257 0.86790884
vt 0.53243923 0.8831575
vt 0.5411527 0.89840615
vt 0.5346176 0.8962277
vt 0.5433311 0.8940494
vt 0.5564013 0.89840615
vt 0.56075805 0.90711963
vt 0.56511486 0.77641714
vt 0.57382834 0.6871038
vt 0.5999688 0.73284966
vt 0.62175256 0.6805687
vt 0.59561205 0.6130391
vt 0.5977904 0.5999688
vt 0.6130391 0.5999688
vt 0.6282877 0.5999688
vt 0.6348228 0.5999688
vt 0.58036345 0.86790884
vt 0.5847202 0.82869816
vt 0.5781851 0.9158331
vt 0.5781851 0.9506871
vt 0.5847202 0.87008727
vt 0.58689857 0.9114764
vt 0.58689857 0.9245466
vt 0.58907694 0.9376168
vt 0.58907694 0.944152
vt 0.5825418 0.9572222
vt 0.58907694 0.9572222
vt 0.58907694 0.97464925
vt 0.58689857 0.9942546
vt 0.5912553 0.9942546
vt 0.5912553 0.81127113
vt 0.58689857 0.7916658
vt 0.59561205 0.80255765
vt 0.5999688 0.7916658
vt 0.60868233 0.7720604
vt 0.6195742 0.752455
vt 0.6261093 0.7393848
vt 0.63046604 0.72631454
vt 0.6457147 0.6936389
vt 0.6435363 0.6478931
vt 0.65660655 0.61521745
vt 0.6435363 0.5999688
vt 0.66314167 0.5977904
vt 0.536796 0.9942546
vt 0.5476878 0.9942546
vt 0.54550946 0.9855411
vt 0.5346176 0.98118436
vt 0.5171906 0.9942546
vt 0.5411527 0.97464925
vt 0.5171906 0.979006
vt 0.5215473 0.9681141
vt 0.5171906 0.979006
vt 0.5215473 0.9681141
vt 0.501942 0.95504385
vt 0.48451495 0.979006
vt 0.48451495 0.9594006
vt 0.48451495 0.9528655
vt 0.48451495 0.9920762
vt 0.5171906 0.9942546
vt 0.48451495 0.9942546
vt 0.53897434 0.9223682
vt 0.5411527 0.89840615
vt 0.5346176 0.8962277
vt 0.52808243 0.9180115
vt 0.52590406 0.93979526
vt 0.536796 0.944152
vt 0.53243923 0.95504385
vt 0.5215473 0.9681141
vt 0.536796 0.96157897
vt 0.5411527 0.97464925
vt 0.5433311 0.96375734
vt 0.55422294 0.98118436
vt 0.54550946 0.9855411
vt 0.5476878 0.9942546
vt 0.5498662 0.9594006
vt 0.5585797 0.9942546
vt 0.5629364 0.97464925
vt 0.55422294 0.9506871
vt 0.56729317 0.9942546
vt 0.56511486 0.9681141
vt 0.5564013 0.9354385
vt 0.5694716 0.96375734
vt 0.56075805 0.90711963
vt 0.5781851 0.9506871
vt 0.5716499 0.9659357
vt 0.56511486 0.9681141
vt 0.5694716 0.96375734
vt 0.5781851 0.9506871
vt 0.5760067 0.9942546
vt 0.5825418 0.9572222
vt 0.58689857 0.9942546
vt 0.5346176 0.8962277
vt 0.53243923 0.8831575
vt 0.52590406 0.9114764
vt 0.5150122 0.89840615
vt 0.52808243 0.9180115
vt 0.5237257 0.86790884
vt 0.51936895 0.87008727
vt 0.51065546 0.8962277
vt 0.52590406 0.93979526
vt 0.5062987 0.9223682
vt 0.5215473 0.9376168
vt 0.51936895 0.9419736
vt 0.51283383 0.9332601
vt 0.51065546 0.93979526
vt 0.5062987 0.9310818
vt 0.51065546 0.92672503
vt 0.536796 0.944152
vt 0.5433311 0.9245466
vt 0.53897434 0.9223682
vt 0.5411527 0.89840615
vt 0.5433311 0.8940494
vt 0.5564013 0.89840615
vt 0.55422294 0.9310818
vt 0.56075805 0.90711963
vt 0.5564013 0.9354385
vt 0.55422294 0.9506871
vt 0.5411527 0.944152
vt 0.5498662 0.94850874
vt 0.5498662 0.9594006
vt 0.536796 0.9528655
vt 0.53243923 0.95504385
vt 0.536796 0.96157897
vt 0.5411527 0.9572222
vt 0.5433311 0.96375734
vt 0.54550946 0.9594006
vn 0.047613025 0.968132 0.24587277
vn -0.015871048 0.999874 -0.00034526698
vn -0.015871048 0.999874 -0.00034526698
vn 0.30154932 0.39677536 0.8669702
vn 0.39677536 0.30154932 0.8669702
vn 0.36503333 0.30154932 0.8808057
vn 0.23806524 0.39677536 0.88650674
vn 0.23806524 0.7459378 0.6220142
vn 0.5237435 -0.1110971 0.8446006
vn 0.68245363 -0.1110971 0.7224365
vn 0.5872276 -0.30154932 0.7511536
vn 0.33329135 0.1110971 0.93625546
vn 0.33329135 0.047613025 0.9416209
vn 0.2063232 0.49200153 0.84579265
vn 0.26980728 0.39677536 0.87736726
vn 0.23806524 0.5237435 0.817935
vn 0.015870988 0.87290585 0.4876305
vn 0.015870988 0.87290585 0.4876305
vn 0.015870988 0.87290585 0.4876305
vn 0.36503333 0.7459378 0.5570704
vn 0.1110971 0.9363899 0.33291337
vn 0.07935506 0.9363899 0.34187227
vn 0.1110971 0.9363899 0.33291337
vn 0.26980728 0.7141957 0.6458549
vn 0.30154932 0.68245375 0.66582644
vn 0.26980728 0.68245375 0.6793091
vn 0.30154932 0.68245375 0.66582644
vn 0.46025944 -0.26980728 0.8457927
vn 0.4285174 -0.30154932 0.85172814
vn 0.55548555 -0.30154932 0.7749218
vn 0.5872276 -0.30154932 0.7511536
vn 0.5872276 -0.2063232 0.78268415
vn 0.68245363 0.07935512 0.72660846
vn 0.9363899 0.26980734 0.2244502
vn 0.999874 -0.015870988 -0.00034665503
vn 0.7776798 0.3650334 0.51182497
vn 0.87290585 0.1110971 0.47507137
vn 0.7776798 0.1110971 0.6187662
vn 0.87290585 0.3332913 0.35630366
vn 0.9046479 0.30154932 0.30113155
vn 0.9850967 0.172001 -0
vn 0.999874 0.015871048 -0.00034391563
vn 0.96813196 0.23806524 -0.07775266
vn 0.6189696 0.7776798 -0.10995791
vn 0.87290585 0.3650334 0.32370666
vn 0.42808628 0.9037378 -0
vn 0.36503333 0.7459378 0.5570704
vn 0.1110971 0.9363899 0.33291337
vn 0.015870988 0.9363899 0.35060233
vn 0.39677536 0.90464795 0.15550359
vn 0.6189696 0.7776798 0.10995791
vn -0.015871048 0.90464795 0.42586404
vn 0.1110971 0.90464795 0.41142374
vn -0.047613025 0.90464795 0.42349154
vn -0.047613025 0.8411639 0.5386802
vn 0.14283913 0.8411639 0.52157485
vn 0.2063232 0.9363899 0.28390953
vn -0.015871048 0.999874 -0.00034526698
vn -0.04756513 0.99886817 -0
vn -0.015871048 0.999874 -0.00034526698
vn -0.015871048 0.999874 -0.00034526698
vn -0.015871048 0.999874 -0.00034526698
vn -0.04756513 0.99886817 -0
vn -0.04756513 0.99886817 -0
vn -0.015871048 0.999874 -0.00034526698
vn -0.04756513 0.99886817 -0
vn -0.04756513 0.99886817 -0
vn -0.04756513 0.99886817 -0
vn -0.015871048 0.999874 -0.00034526698
vn -0.015871048 0.999874 -0.00034526698
vn -0.015871048 0.999874 -0.00034526698
vn -0.015871048 0.999874 -0.00034526698
vn -0.015871048 0.999874 -0.00034526698
vn -0.015871048 0.999874 -0.00034526698
vn -0.015871048 0.999874 -0.00034526698
vn 0.015870988 0.999874 -0.00034526698
vn 0.015870988 0.999874 -0.00034526698
vn -0.015871048 0.999874 -0.00034526698
vn 0.015870988 0.999874 -0.00034526698
vn 0.015870988 0.999874 -0.00034526698
vn -0.015871048 0.999874 -0.00034526698
vn -0.015871048 0.999874 -0.00034526698
vn -0.015871048 0.999874 -0.00034526698
vn -0.015871048 0.999874 -0.00034526698
vn -0.015871048 0.999874 -0.00034526698
vn -0.015871048 0.999874 -0.00034526698
vn -0.015871048 0.999874 -0.00034526698
vn -0.015871048 0.999874 -0.00034526698
vn 0.015870988 0.999874 -0.00034526698
vn 0.015870988 0.999874 -0.00034526698
vn 0.015870988 0.999874 -0.00034526698
vn 0.04756513 0.99886817 -0
vn 0.04756513 0.99886817 -0
vn 0.015870988 0.999874 -0.00034526698
vn -0.015871048 0.999874 -0.00034526698
vn -0.015871048 0.999874 -0.00034526698
vn 0.015870988 0.999874 -0.00034526698
vn -0.04756513 0.99886817 -0
vn -0.04756513 0.99886817 -0
vn -0.04756513 0.99886817 -0
vn -0.14142141 0.98994946 -0
vn -0.172001 0.9850967 -0
vn -0.20632327 0.968132 -0.1419547
vn -0.20632327 0.968132 -0.1419547
vn -0.079116344 0.9968654 -0
vn -0.04756513 0.99886817 -0
vn 0.079116285 0.9968654 -0
vn 0.015870988 0.999874 -0.00034526698
vn 0.04756513 0.99886817 -0
vn -0.015871048 0.999874 -0.00034526698
vn -0.04756513 0.99886817 -0
vn 0.04756513 0.99886817 -0
vn 0.04756513 0.99886817 -0
vn 0.015870988 0.999874 -0.00034526698
vn -0.015871048 0.999874 -0.00034526698
vn -0.015871048 0.999874 -0.00034526698
vn 0.079116285 0.9968654 -0
vn 0.04756513 0.99886817 -0
vn 0.110431515 0.9938838 -0
vn 0.110431515 0.9938838 -0
vn 0.079116285 0.9968654 -0
vn 0.110431515 0.9938838 -0
vn 0.110431515 0.9938838 -0
vn 0.110431515 0.9938838 -0
vn 0.079116285 0.9968654 -0
vn 0.04756513 0.99886817 -0
vn 0.04756513 0.99886817 -0
vn 0.04756513 0.99886817 -0
vn 0.04756513 0.99886817 -0
vn 0.04756513 0.99886817 -0
vn 0.015870988 0.999874 -0.00034526698
vn 0.015870988 0.999874 -0.00034526698
vn -0.015871048 0.999874 -0.00034526698
vn -0.04756513 0.99886817 -0
vn -0.079116344 0.9968654 -0
vn -0.14142141 0.98994946 -0
vn -0.1428392 0.968132 0.20571192
vn -0.17458117 0.968132 0.17956008
vn -0.1428392 0.968132 0.20571192
vn -0.04756513 0.99886817 -0
vn -0.015871048 0.999874 -0.00034526698
vn -0.015871048 0.999874 -0.00034526698
vn -0.015871048 0.999874 -0.00034526698
vn -0.36320823 0.931708 -0
vn 0.015870988 0.999874 -0.00034526698
vn 0.015870988 0.999874 -0.00034526698
vn -0.5237435 0.8411639 0.13467027
vn -0.65071166 0.7459378 -0.1419545
vn -0.42851746 0.87290585 0.2332555
vn -0.6750134 0.7378054 -0
vn -0.65071166 0.65071166 0.39134216
vn -0.015871048 0.999874 -0.00034526698
vn -0.04756513 0.99886817 -0
vn 0.015870988 0.999874 -0.00034526698
vn 0.015870988 0.999874 -0.00034526698
vn 0.110431515 0.9938838 -0
vn 0.015870988 0.7459378 0.66582644
vn -0.015871048 0.999874 -0.00034526698
vn 0.015870988 0.999874 -0.00034526698
vn -0.015871048 0.999874 -0.00034526698
vn -0.5554856 0.26980734 0.7865366
vn -0.5237435 0.49200153 0.69543314
vn -0.5237435 0.49200153 0.69543314
vn -0.5554856 0.26980734 0.7865366
vn -0.5554856 0.17458117 0.8129927
vn -0.5554856 0.1110971 0.8240711
vn -0.5237435 0.26980734 0.8080203
vn -0.5237435 0.30154932 0.7967187
vn -0.49200153 0.26980734 0.82773095
vn 0.36503333 0.3650334 0.8564469
vn 0.5237435 0.26980734 0.8080203
vn 0.8411638 0.30154932 0.44890028
vn 0.8411638 0.42851746 0.32987306
vn 0.8411638 0.46025944 0.28390968
vn 0.7776798 0.23806524 0.5818411
vn 0.9046479 0.30154932 0.30113155
vn 0.87290585 0.17458117 0.45558402
vn 0.8411638 0.23806524 0.48555988
vn 0.9363899 0.20632327 0.2839095
vn 0.87290585 0.23806524 0.4258642
vn 0.8411638 0.30154932 0.44890028
vn 0.8411638 0.30154932 0.44890028
vn 0.8411638 0.30154932 0.44890028
vn 0.8411638 0.30154932 0.44890028
vn 0.8094218 0.3650334 0.4599859
vn 0.015870988 0.1428392 0.98961866
vn 0.047613025 0.1428392 0.9886
vn 0.047613025 0.1428392 0.9886
vn 0.87290585 0.42851746 0.23325558
vn 0.8094218 0.49200153 0.32057902
vn 0.8411638 0.5237435 0.13467072
vn 0.9632913 0.2684583 -0
vn 0.30154932 0.7459378 0.593839
vn 0.6189696 0.49200153 0.6122182
vn -0.07935512 0.5554856 0.82773095
vn 0.96813196 0.1428392 0.20571218
vn 0.047613025 0.7459378 0.66431147
vn -0.5554856 0.49200153 0.67035085
vn -0.6189697 0.23806524 0.7484661
vn 0.96813196 0.1110971 0.22445038
vn -0.65071166 0.1428392 0.7457689
vn 0.68245363 0.3650334 0.63325167
vn 0.26845825 0.96329135 -0
vn 0.30154932 0.46025944 0.83500254
vn -0.015871048 0.999874 -0.00034526698
vn -0.39677536 0.90464795 0.15550359
vn -0.23806524 0.3332913 0.9122729
vn -0.87290585 0.1110971 0.47507137
vn -0.39677536 0.26980734 0.87736726
vn -0.87290585 0.20632327 0.44211546
vn -0.87290585 0.20632327 0.44211546
vn -0.3332913 0.3332913 0.8819489
vn 0.015870988 0.3332913 0.9426903
vn 0.07935506 0.30154932 0.9501425
vn 0.5872276 0.23806524 0.7736205
vn 0.65071166 0.26980734 0.7097734
vn 0.7141957 0.30154932 0.63165855
vn -0.42851746 0.17458117 0.88650674
vn 0.14283913 0.23806524 0.96068823
vn 0.7776798 0.30154932 0.55161774
vn -0.7459378 0.20632327 0.6332515
vn -0.8411639 0.17458117 0.5118249
vn -0.49200153 0.7141957 0.4978544
vn -0.3650334 0.5237435 0.7697034
vn -0.1110971 0.8411639 0.52924544
vn 0.23806524 0.5554856 0.7967187
g tb_geo_section_06_mesh_0
f 3/3/3 2/2/2 1/1/1
f 6/6/6 5/5/5 4/4/4
f 7/7/7 6/6/6 4/4/4
f 7/7/7 4/4/4 8/8/8
f 9/9/9 7/7/7 8/8/8
f 9/9/9 8/8/8 10/10/10
f 9/9/9 10/10/10 11/11/11
f 12/12/12 9/9/9 11/11/11
f 13/13/13 12/12/12 11/11/11
f 13/13/13 14/14/14 12/12/12
f 14/14/14 13/13/13 15/15/15
f 14/14/14 15/15/15 16/16/16
f 17/17/17 14/14/14 16/16/16
f 14/14/14 17/17/17 18/18/18
f 17/17/17 19/19/19 18/18/18
f 8/8/8 20/20/20 10/10/10
f 20/20/20 8/8/8 21/21/21
f 8/8/8 22/22/22 21/21/21
f 8/8/8 23/23/23 22/22/22
f 20/20/20 21/21/21 24/24/24
f 25/25/25 20/20/20 24/24/24
f 20/20/20 25/25/25 10/10/10
f 25/25/25 24/24/24 26/26/26
f 25/25/25 26/26/26 27/27/27
f 25/25/25 28/28/28 10/10/10
f 25/25/25 27/27/27 28/28/28
f 27/27/27 29/29/29 28/28/28
f 29/29/29 30/30/30 28/28/28
f 10/10/10 28/28/28 11/11/11
f 30/30/30 11/11/11 28/28/28
f 30/30/30 31/31/31 11/11/11
f 31/31/31 32/32/32 11/11/11
f 32/32/32 33/33/33 11/11/11
f 35/35/35 11/11/11 34/34/34
f 35/35/35 34/34/34 36/36/36
f 37/37/37 35/35/35 36/36/36
f 36/36/36 38/38/38 37/37/37
f 37/37/37 38/38/38 39/39/39
f 35/35/35 37/37/37 40/40/40
f 35/35/35 40/40/40 41/41/41
f 40/40/40 42/42/42 41/41/41
f 44/44/44 43/43/43 39/39/39
f 44/44/44 39/39/39 45/45/45
f 46/46/46 44/44/44 45/45/45
f 46/46/46 45/45/45 47/47/47
f 47/47/47 48/48/48 46/46/46
f 46/46/46 48/48/48 49/49/49
f 44/44/44 46/46/46 50/50/50
f 50/50/50 46/46/46 49/49/49
f 51/51/51 44/44/44 50/50/50
f 50/50/50 49/49/49 52/52/52
f 51/51/51 50/50/50 53/53/53
f 53/53/53 50/50/50 52/52/52
f 53/53/53 52/52/52 54/54/54
f 54/54/54 55/55/55 53/53/53
f 56/56/56 51/51/51 53/53/53
f 55/55/55 56/56/56 53/53/53
f 55/55/55 57/57/57 56/56/56
f 57/57/57 58/58/58 56/56/56
f 57/57/57 59/59/59 58/58/58
f 58/58/58 59/59/59 60/60/60
f 58/58/58 60/60/60 61/61/61
f 58/58/58 61/61/61 62/62/62
f 58/58/58 62/62/62 63/63/63
f 58/58/58 63/63/63 64/64/64
f 65/65/65 58/58/58 64/64/64
f 65/65/65 64/64/64 66/66/66
f 65/65/65 66/66/66 67/67/67
f 65/65/65 67/67/67 68/68/68
f 65/65/65 68/68/68 69/69/69
f 70/70/70 65/65/65 69/69/69
f 70/70/70 69/69/69 71/71/71
f 70/70/70 71/71/71 72/72/72
f 71/71/71 73/73/73 72/72/72
f 70/70/70 72/72/72 74/74/74
f 65/65/65 70/70/70 75/75/75
f 70/70/70 74/74/74 76/76/76
f 70/70/70 76/76/76 75/75/75
f 74/74/74 77/77/77 76/76/76
f 78/78/78 77/77/77 74/74/74
f 79/79/79 76/76/76 77/77/77
f 76/76/76 79/79/79 80/80/80
f 75/75/75 76/76/76 80/80/80
f 80/80/80 81/81/81 75/75/75
f 80/80/80 82/82/82 81/81/81
f 81/81/81 82/82/82 83/83/83
f 83/83/83 84/84/84 81/81/81
f 81/81/81 84/84/84 85/85/85
f 65/65/65 75/75/75 86/86/86
f 75/75/75 81/81/81 86/86/86
f 58/58/58 65/65/65 86/86/86
f 81/81/81 85/85/85 87/87/87
f 81/81/81 87/87/87 86/86/86
f 87/87/87 85/85/85 88/88/88
f 87/87/87 88/88/88 89/89/89
f 90/90/90 87/87/87 89/89/89
f 90/90/90 89/89/89 91/91/91
f 92/92/92 90/90/90 91/91/91
f 90/90/90 92/92/92 93/93/93
f 87/87/87 90/90/90 94/94/94
f 86/86/86 87/87/87 94/94/94
f 94/94/94 90/90/90 93/93/93
f 58/58/58 86/86/86 95/95/95
f 86/86/86 94/94/94 95/95/95
f 95/95/95 96/96/96 58/58/58
f 96/96/96 95/95/95 97/97/97
f 58/58/58 96/96/96 98/98/98
f 96/96/96 99/99/99 98/98/98
f 96/96/96 100/100/100 99/99/99
f 96/96/96 101/101/101 100/100/100
f 96/96/96 102/102/102 101/101/101
f 102/102/102 96/96/96 103/103/103
f 102/102/102 103/103/103 104/104/104
f 105/105/105 103/103/103 96/96/96
f 105/105/105 96/96/96 97/97/97
f 106/106/106 105/105/105 97/97/97
f 107/107/107 106/106/106 97/97/97
f 95/95/95 94/94/94 108/108/108
f 95/95/95 108/108/108 97/97/97
f 94/94/94 109/109/109 108/108/108
f 108/108/108 109/109/109 110/110/110
f 109/109/109 94/94/94 93/93/93
f 110/110/110 109/109/109 111/111/111
f 109/109/109 112/112/112 111/111/111
f 109/109/109 93/93/93 112/112/112
f 112/112/112 93/93/93 113/113/113
f 112/112/112 113/113/113 114/114/114
f 112/112/112 114/114/114 115/115/115
f 111/111/111 112/112/112 115/115/115
f 116/116/116 111/111/111 115/115/115
f 97/97/97 117/117/117 107/107/107
f 97/97/97 108/108/108 118/118/118
f 97/97/97 118/118/118 117/117/117
f 117/117/117 119/119/119 107/107/107
f 120/120/120 107/107/107 119/119/119
f 118/118/118 121/121/121 117/117/117
f 119/119/119 117/117/117 121/121/121
f 122/122/122 119/119/119 121/121/121
f 119/119/119 122/122/122 123/123/123
f 119/119/119 123/123/123 124/124/124
f 120/120/120 119/119/119 124/124/124
f 120/120/120 124/124/124 125/125/125
f 126/126/126 120/120/120 125/125/125
f 126/126/126 125/125/125 127/127/127
f 126/126/126 127/127/127 128/128/128
f 126/126/126 128/128/128 129/129/129
f 128/128/128 130/130/130 129/129/129
f 118/118/118 132/132/132 131/131/131
f 132/132/132 133/133/133 131/131/131
f 108/108/108 132/132/132 118/118/118
f 132/132/132 134/134/134 133/133/133
f 132/132/132 108/108/108 110/110/110
f 132/132/132 110/110/110 134/134/134
f 110/110/110 135/135/135 134/134/134
f 110/110/110 136/136/136 135/135/135
f 110/110/110 137/137/137 136/136/136
f 110/110/110 111/111/111 137/137/137
f 111/111/111 138/138/138 137/137/137
f 138/138/138 111/111/111 139/139/139
f 140/140/140 139/139/139 111/111/111
f 116/116/116 140/140/140 111/111/111
f 140/140/140 116/116/116 141/141/141
f 116/116/116 142/142/142 141/141/141
f 142/142/142 143/143/143 141/141/141
f 146/146/146 145/145/145 144/144/144
f 147/147/147 146/146/146 144/144/144
f 147/147/147 144/144/144 148/148/148
f 147/147/147 149/149/149 146/146/146
f 150/150/150 147/147/147 148/148/148
f 149/149/149 147/147/147 151/151/151
f 147/147/147 150/150/150 151/151/151
f 154/154/154 153/153/153 152/152/152
f 155/155/155 154/154/154 152/152/152
f 154/154/154 155/155/155 156/156/156
f 154/154/154 156/156/156 157/157/157
f 158/158/158 155/155/155 152/152/152
f 152/152/152 159/159/159 158/158/158
f 159/159/159 160/160/160 158/158/158
f 163/163/163 162/162/162 161/161/161
f 164/164/164 163/163/163 161/161/161
f 165/165/165 164/164/164 161/161/161
f 166/166/166 165/165/165 161/161/161
f 165/165/165 166/166/166 167/167/167
f 168/168/168 165/165/165 167/167/167
f 169/169/169 168/168/168 167/167/167
f 170/170/170 168/168/168 169/169/169
f 170/170/170 169/169/169 171/171/171
f 171/171/171 172/172/172 170/170/170
f 173/173/173 170/170/170 172/172/172
f 173/173/173 172/172/172 174/174/174
f 171/171/171 175/175/175 172/172/172
f 172/172/172 176/176/176 174/174/174
f 172/172/172 175/175/175 177/177/177
f 172/172/172 177/177/177 176/176/176
f 175/175/175 178/178/178 177/177/177
f 177/177/177 179/179/179 176/176/176
f 178/178/178 180/180/180 177/177/177
f 178/178/178 181/181/181 180/180/180
f 181/181/181 182/182/182 180/180/180
f 181/181/181 183/183/183 182/182/182
f 183/183/183 184/184/184 182/182/182
f 177/177/177 185/185/185 179/179/179
f 177/177/177 186/186/186 185/185/185
f 186/186/186 187/187/187 185/185/185
f 187/187/187 188/188/188 185/185/185
f 185/185/185 189/189/189 179/179/179
f 188/188/188 190/190/190 185/185/185
f 185/185/185 190/190/190 189/189/189
f 190/190/190 191/191/191 189/189/189
f 194/194/194 193/193/193 192/192/192
f 194/194/194 195/195/195 193/193/193
f 196/196/196 194/194/194 192/192/192
f 195/195/195 197/197/197 193/193/193
f 197/197/197 195/195/195 198/198/198
f 195/195/195 199/199/199 198/198/198
f 194/194/194 196/196/196 200/200/200
f 201/201/201 199/199/199 195/195/195
f 202/202/202 194/194/194 200/200/200
f 203/203/203 202/202/202 200/200/200
f 202/202/202 204/204/204 194/194/194
f 204/204/204 202/202/202 203/203/203
f 204/204/204 195/195/195 194/194/194
f 205/205/205 204/204/204 203/203/203
f 205/205/205 206/206/206 204/204/204
f 201/201/201 207/207/207 206/206/206
f 207/207/207 201/201/201 195/195/195
f 206/206/206 207/207/207 204/204/204
f 204/204/204 207/207/207 195/195/195
f 210/210/210 209/209/209 208/208/208
f 210/210/210 211/211/211 209/209/209
f 211/211/211 212/212/212 209/209/209
f 209/209/209 212/212/212 213/213/213
f 214/214/214 209/209/209 213/213/213
f 213/213/213 215/215/215 214/214/214
f 215/215/215 216/216/216 214/214/214
f 214/214/214 216/216/216 217/217/217
f 209/209/209 218/218/218 208/208/208
f 209/209/209 214/214/214 218/218/218
f 219/219/219 214/214/214 217/217/217
f 214/214/214 219/219/219 218/218/218
f 219/219/219 217/217/217 220/220/220
f 208/208/208 218/218/218 221/221/221
f 222/222/222 208/208/208 221/221/221
f 222/222/222 221/221/221 223/223/223
f 218/218/218 224/224/224 221/221/221
f 221/221/221 224/224/224 223/223/223
f 219/219/219 224/224/224 218/218/218
f 223/223/223 224/224/224 225/225/225
f 226/226/226 220/220/220 225/225/225
f 226/226/226 219/219/219 220/220/220
f 224/224/224 226/226/226 225/225/225
f 219/219/219 226/226/226 224/224/224
