g tb_geo_wall_10_mesh
v 0.9128994 0.34890258 -0.1158762
v 0.9128994 -0.3337413 -0.1158762
v 0.7022965 -0.3337413 -0.1158762
v 0.7022965 0.34890258 -0.1158762
v 0.9728123 0.34890258 -0.17760468
v 0.9728123 -0.3337413 -0.17760468
v 0.9128994 -0.3337413 -0.1158762
v 0.9128994 0.34890258 -0.1158762
v 0.9728123 0.34890258 -0.4190718
v 0.9728123 -0.3337413 -0.4190718
v 0.9728123 -0.3337413 -0.17760468
v 0.9728123 0.34890258 -0.17760468
v 0.9728123 -0.3337413 -0.4190718
v 0.9728123 0.34890258 -0.4190718
v 1.1198713 0.34890258 -0.56431526
v 1.1198713 -0.3337413 -0.56431526
v 1.4503 0.34890258 -0.56431526
v 1.4503 -0.3337413 -0.56431526
v 1.1198713 -0.3337413 -0.56431526
v 1.1198713 0.34890258 -0.56431526
v 1.4503 0.34890258 0.04389143
v 1.4503 -0.3337413 0.04389143
v 1.4503 -0.3337413 -0.56431526
v 1.4503 0.34890258 -0.56431526
v 1.4503 0.34890258 0.04389143
v 1.3940182 0.34890258 0.08564901
v 1.3940182 -0.3337413 0.08564901
v 1.4503 -0.3337413 0.04389143
v 0.9764434 0.34890258 0.32530057
v 0.9764434 -0.3337413 0.32530057
v 1.1961241 -0.3337413 0.08564901
v 1.1961241 0.34890258 0.08564901
v 0.84027773 0.34890258 0.32530057
v 0.84027773 -0.3337413 0.32530057
v 0.9764434 -0.3337413 0.32530057
v 0.9764434 0.34890258 0.32530057
v 0.76220936 0.34890258 0.40699995
v 0.76220936 -0.3337413 0.40699995
v 0.84027773 -0.3337413 0.32530057
v 0.84027773 0.34890258 0.32530057
v 0.7150053 0.34890258 0.36342692
v 0.7150053 -0.3337413 0.36342692
v 0.76220936 -0.3337413 0.40699995
v 0.76220936 0.34890258 0.40699995
v 0.7150053 0.34890258 -0.103167415
v 0.7150053 -0.3337413 -0.103167415
v 0.7150053 -0.3337413 0.36342692
v 0.7150053 0.34890258 0.36342692
v 0.7150053 -0.3337413 -0.103167415
v 0.7150053 0.34890258 -0.103167415
v 0.7022965 0.34890258 -0.1158762
v 0.7022965 -0.3337413 -0.1158762
v 1.3940182 -0.3337413 0.08564901
v 1.3940182 0.34890258 0.08564901
v 1.1961241 0.34890258 0.08564901
v 1.1961241 -0.3337413 0.08564901
vt 0.5372549 1
vt 0.5372549 0
vt 0.5372549 0
vt 0.5372549 1
vt 0.6 1
vt 0.6 0
vt 0.5372549 0
vt 0.5372549 1
vt 0.8509804 1
vt 0.8509804 0
vt 0.6 0
vt 0.6 1
vt 0.8509804 0
vt 0.8509804 1
vt 1 1
vt 1 0
vt 1 1
vt 1 0
vt 1 0
vt 1 1
vt 0.37254903 1
vt 0.37254903 0
vt 1 0
vt 1 1
vt 0.37254903 1
vt 0.32941177 1
vt 0.32941177 0
vt 0.37254903 0
vt 0.08627451 1
vt 0.08627451 0
vt 0.32941177 0
vt 0.32941177 1
vt 0.08627451 1
vt 0.08627451 0
vt 0.08627451 0
vt 0.08627451 1
vt 0 1
vt 0 0
vt 0.08627451 0
vt 0.08627451 1
vt 0.043137256 1
vt 0.043137256 0
vt 0 0
vt 0 1
vt 0.5254902 1
vt 0.5254902 0
vt 0.043137256 0
vt 0.043137256 1
vt 0.5254902 0
vt 0.5254902 1
vt 0.5372549 1
vt 0.5372549 0
vt 0.32941177 0
vt 0.32941177 1
vt 0.32941177 1
vt 0.32941177 0
vn -0.015871048 0.015871048 0.99974805
vn -0.015871048 0.015871048 0.99974805
vn -0.015871048 0.015871048 0.99974805
vn -0.015871048 0.015871048 0.99974805
vn 0.7141957 0.015871048 0.6997661
vn 0.7141957 0.015871048 0.6997661
vn 0.7141957 0.015871048 0.6997661
vn 0.7141957 0.015871048 0.6997661
vn 0.999874 0.015871048 -0.00034391563
vn 0.999874 0.015871048 -0.00034391563
vn 0.999874 0.015871048 -0.00034391563
vn 0.999874 0.015871048 -0.00034391563
vn 0.7141957 0.015871048 0.6997661
vn 0.7141957 0.015871048 0.6997661
vn 0.7141957 0.015871048 0.6997661
vn 0.7141957 0.015871048 0.6997661
vn -0.015871048 0.015871048 0.99974805
vn -0.015871048 0.015871048 0.99974805
vn -0.015871048 0.015871048 0.99974805
vn -0.015871048 0.015871048 0.99974805
vn -0.999874 0.015871048 -0.00034391563
vn -0.999874 0.015871048 -0.00034391563
vn -0.999874 0.015871048 -0.00034391563
vn -0.999874 0.015871048 -0.00034391563
vn -0.5872276 0.015871048 -0.80926627
vn -0.5872276 0.015871048 -0.80926627
vn -0.5872276 0.015871048 -0.80926627
vn -0.5872276 0.015871048 -0.80926627
vn -0.7459378 0.015871048 -0.66582644
vn -0.7459378 0.015871048 -0.66582644
vn -0.7459378 0.015871048 -0.66582644
vn -0.7459378 0.015871048 -0.66582644
vn -0.015871048 0.015871048 -0.99974805
vn -0.015871048 0.015871048 -0.99974805
vn -0.015871048 0.015871048 -0.99974805
vn -0.015871048 0.015871048 -0.99974805
vn -0.7141957 0.015871048 -0.6997661
vn -0.7141957 0.015871048 -0.6997661
vn -0.7141957 0.015871048 -0.6997661
vn -0.7141957 0.015871048 -0.6997661
vn 0.68245363 0.015871048 -0.7307566
vn 0.68245363 0.015871048 -0.7307566
vn 0.68245363 0.015871048 -0.7307566
vn 0.68245363 0.015871048 -0.7307566
vn 0.999874 0.015871048 -0.00034391563
vn 0.999874 0.015871048 -0.00034391563
vn 0.999874 0.015871048 -0.00034391563
vn 0.999874 0.015871048 -0.00034391563
vn 0.7141957 0.015871048 -0.6997661
vn 0.7141957 0.015871048 -0.6997661
vn 0.7141957 0.015871048 -0.6997661
vn 0.7141957 0.015871048 -0.6997661
vn -0.015871048 0.015871048 -0.99974805
vn -0.015871048 0.015871048 -0.99974805
vn -0.015871048 0.015871048 -0.99974805
vn -0.015871048 0.015871048 -0.99974805
g tb_geo_wall_10_mesh_0
f 3/3/3 2/2/2 1/1/1
f 4/4/4 3/3/3 1/1/1
f 7/7/7 6/6/6 5/5/5
f 8/8/8 7/7/7 5/5/5
f 11/11/11 10/10/10 9/9/9
f 12/12/12 11/11/11 9/9/9
f 15/15/15 14/14/14 13/13/13
f 16/16/16 15/15/15 13/13/13
f 19/19/19 18/18/18 17/17/17
f 20/20/20 19/19/19 17/17/17
f 23/23/23 22/22/22 21/21/21
f 24/24/24 23/23/23 21/21/21
f 27/27/27 26/26/26 25/25/25
f 28/28/28 27/27/27 25/25/25
f 31/31/31 30/30/30 29/29/29
f 32/32/32 31/31/31 29/29/29
f 35/35/35 34/34/34 33/33/33
f 36/36/36 35/35/35 33/33/33
f 39/39/39 38/38/38 37/37/37
f 40/40/40 39/39/39 37/37/37
f 43/43/43 42/42/42 41/41/41
f 44/44/44 43/43/43 41/41/41
f 47/47/47 46/46/46 45/45/45
f 48/48/48 47/47/47 45/45/45
f 51/51/51 50/50/50 49/49/49
f 52/52/52 51/51/51 49/49/49
f 55/55/55 54/54/54 53/53/53
f 56/56/56 55/55/55 53/53/53
