g tb_geo_outline_10_mesh
v 0.9261863 0.065458536 -0.14465237
v 0.9104771 0.057603836 -0.121088505
v 0.9085134 0.057603836 -0.12697947
v 0.9301136 0.065458536 -0.14072502
v 0.9320773 0.06742215 -0.13679779
v 0.9124408 0.057603836 -0.117161274
v 0.9124408 0.020294428 -0.117161274
v 0.9320773 0.030112743 -0.13679779
v 0.9536775 0.07527673 -0.1564343
v 0.9536775 0.03993106 -0.1564343
v 0.9497502 0.07527673 -0.16036165
v 0.973314 0.08509505 -0.17607081
v 0.973314 0.049749255 -0.17607081
v 0.967423 0.08313143 -0.17803442
v 0.94582283 0.07331312 -0.16428888
v 0.94582283 0.037967324 -0.16428888
v 0.9261863 0.028149128 -0.14465237
v 0.96349573 0.045822024 -0.17999816
v 0.96349573 0.0811677 -0.17999816
v 0.967423 0.08705866 -0.22319853
v 0.973314 0.08705866 -0.22319853
v 0.973314 0.049749255 -0.17607081
v 0.973314 0.05171299 -0.22319853
v 0.973314 0.08705866 -0.2742535
v 0.973314 0.049749255 -0.2762171
v 0.973314 0.106695175 -0.28603542
v 0.973314 0.065458536 -0.2958536
v 0.973314 0.13025904 -0.29389
v 0.973314 0.094913244 -0.30567193
v 0.973314 0.1538229 -0.2958536
v 0.973314 0.13025904 -0.3135265
v 0.967423 0.08509505 -0.2742535
v 0.973314 0.106695175 -0.28603542
v 0.967423 0.106695175 -0.28603542
v 0.973314 0.13025904 -0.29389
v 0.967423 0.13025904 -0.29389
v 0.973314 0.1538229 -0.2958536
v 0.967423 0.15578651 -0.29389
v 0.973314 0.1714958 -0.29978096
v 0.967423 0.17345941 -0.29978096
v 0.973314 0.18327773 -0.3135265
v 0.967423 0.18327773 -0.3135265
v 0.96349573 0.08509505 -0.2742535
v 0.967423 0.106695175 -0.28603542
v 0.96349573 0.106695175 -0.28799903
v 0.967423 0.13025904 -0.29389
v 0.96349573 0.13025904 -0.29389
v 0.967423 0.15578651 -0.29389
v 0.96349573 0.15578651 -0.2958536
v 0.967423 0.17345941 -0.29978096
v 0.96349573 0.1714958 -0.30174458
v 0.96349573 0.18327773 -0.3135265
v 0.96349573 0.08705866 -0.22319853
v 0.96349573 0.049749255 -0.22319853
v 0.96349573 0.045822024 -0.17999816
v 0.96349573 0.04778564 -0.2762171
v 0.96349573 0.0634948 -0.2958536
v 0.96349573 0.106695175 -0.28799903
v 0.96349573 0.094913244 -0.30567193
v 0.96349573 0.13025904 -0.29389
v 0.96349573 0.13025904 -0.3135265
v 0.96349573 0.15578651 -0.2958536
v 0.96349573 0.13811362 -0.31549025
v 0.96349573 0.1714958 -0.30174458
v 0.96349573 0.14596832 -0.3135265
v 0.96349573 0.14596832 -0.35476327
v 0.96349573 0.18131399 -0.35476327
v 0.96349573 0.14596832 -0.39207268
v 0.96349573 0.18131399 -0.39207268
v 0.967423 0.18131399 -0.39207268
v 0.96349573 0.14596832 -0.4215275
v 0.96349573 0.18131399 -0.4215275
v 0.967423 0.18131399 -0.35476327
v 0.973314 0.18131399 -0.35476327
v 0.973314 0.14596832 -0.32530844
v 0.973314 0.13811362 -0.31549025
v 0.973314 0.1714958 -0.29978096
v 0.973314 0.14596832 -0.35476327
v 0.973314 0.18131399 -0.39207268
v 0.973314 0.14596832 -0.39207268
v 0.973314 0.18131399 -0.41760015
v 0.973314 0.14596832 -0.41760015
v 0.967423 0.18131399 -0.41956377
v 1.1166607 0.18131399 -0.5746924
v 1.1166607 0.14596832 -0.5746924
v 0.96349573 0.14596832 -0.4215275
v 1.1186243 0.18131399 -0.56880146
v 1.120588 0.18131399 -0.5648742
v 0.973314 0.14596832 -0.41760015
v 1.120588 0.14596832 -0.5648742
v 1.1578974 0.18131399 -0.5648742
v 1.120588 0.14596832 -0.5648742
v 1.1578974 0.14400458 -0.5648742
v 1.1578974 0.18131399 -0.56880146
v 1.1991341 0.18131399 -0.5648742
v 1.1991341 0.14400458 -0.5648742
v 1.1991341 0.18131399 -0.56880146
v 1.2423345 0.18327773 -0.5648742
v 1.2423345 0.14596832 -0.5648742
v 1.1578974 0.18131399 -0.5746924
v 1.2855349 0.18327773 -0.5648742
v 1.2855349 0.14596832 -0.5648742
v 1.1578974 0.14596832 -0.5746924
v 1.1166607 0.14596832 -0.5746924
v 1.1991341 0.14400458 -0.5746924
v 1.1991341 0.18131399 -0.5746924
v 1.2423345 0.14596832 -0.5746924
v 1.2423345 0.18327773 -0.56880146
v 1.2423345 0.18327773 -0.5746924
v 1.2855349 0.14596832 -0.5746924
v 1.3267715 0.18916869 -0.5648742
v 1.3267715 0.15185928 -0.5648742
v 1.2855349 0.18327773 -0.56880146
v 1.2855349 0.18327773 -0.5746924
v 1.3267715 0.1538229 -0.5746924
v 1.3267715 0.18916869 -0.5746924
v 1.3699719 0.15578651 -0.5746924
v 1.3699719 0.19309592 -0.5648742
v 1.3699719 0.15578651 -0.5648742
v 1.3267715 0.18916869 -0.56880146
v 1.3699719 0.1911323 -0.5746924
v 1.4112086 0.15185928 -0.5746924
v 1.3699719 0.19309592 -0.56880146
v 1.4112086 0.18720496 -0.5648742
v 1.4112086 0.15185928 -0.5648742
v 1.4112086 0.18720496 -0.5746924
v 1.4603 0.14596832 -0.5746924
v 1.4603 0.18131399 -0.5746924
v 1.4112086 0.18720496 -0.56880146
v 1.4504817 0.18327773 -0.5648742
v 1.4504817 0.14596832 -0.5648742
v 1.454409 0.18327773 -0.56880146
v 1.4504817 0.18916869 -0.53149205
v 1.4504817 0.14596832 -0.5648742
v 1.4504817 0.1538229 -0.53149205
v 1.4504817 0.24218726 -0.49810994
v 1.4504817 0.21076882 -0.48240072
v 1.454409 0.18720496 -0.53149205
v 1.4603 0.18720496 -0.53149205
v 1.4504817 0.2912786 -0.48043704
v 1.4504817 0.26967847 -0.46472782
v 1.4504817 0.37767935 -0.47258246
v 1.4504817 0.34233356 -0.46080053
v 1.4603 0.15185928 -0.53149205
v 1.4603 0.14596832 -0.5746924
v 1.4603 0.2088052 -0.48240072
v 1.4603 0.23826003 -0.49810994
v 1.4603 0.26771474 -0.46472782
v 1.454409 0.24022365 -0.49810994
v 1.454409 0.2912786 -0.48043704
v 1.4504817 0.2912786 -0.48043704
v 1.4603 0.289315 -0.48043704
v 1.4603 0.34233356 -0.46080053
v 1.4603 0.37767935 -0.47258246
v 1.4603 0.289315 -0.48043704
v 1.4603 0.35018826 -0.3940363
v 1.454409 0.37767935 -0.47258246
v 1.4603 0.38553393 -0.4117092
v 1.4603 0.41695237 -0.3861817
v 1.4603 0.45229816 -0.401891
v 1.4603 0.481753 -0.38029075
v 1.454409 0.38946128 -0.4117092
v 1.4603 0.38553393 -0.4117092
v 1.454409 0.4640801 -0.401891
v 1.454409 0.38946128 -0.4117092
v 1.4504817 0.3914249 -0.4117092
v 1.4504817 0.46997106 -0.4038546
v 1.4603 0.5190624 -0.39796364
v 1.4603 0.481753 -0.30174458
v 1.454409 0.5190624 -0.39796364
v 1.4603 0.5190624 -0.3135265
v 1.4603 0.4994259 -0.29389
v 1.4603 0.5367353 -0.30567193
v 1.4603 0.5112078 -0.0916338
v 1.454409 0.5190624 -0.3135265
v 1.4603 0.5190624 -0.3135265
v 1.454409 0.5367353 -0.30567193
v 1.4603 0.5485172 -0.08574283
v 1.4603 0.481753 -0.079851866
v 1.4603 0.5190624 -0.071997166
v 1.4603 0.481753 -0.0032693148
v 1.4603 0.5190624 0.022258162
v 1.4603 0.46800745 0.0065488815
v 1.4603 0.4562255 0.03993106
v 1.4603 0.4640801 0.0065488815
v 1.4603 0.4464072 0.037967324
v 1.4603 0.40713418 0.014403582
v 1.4603 0.4110614 0.04385829
v 1.4603 0.3619702 0.04778564
v 1.4603 0.39338863 0.04778564
v 1.454409 0.5485172 -0.08574283
v 1.454409 0.5190624 -0.071997166
v 1.454409 0.5190624 0.022258162
v 1.4504817 0.5367353 -0.30567193
v 1.454409 0.5190624 -0.3135265
v 1.4504817 0.5190624 -0.3135265
v 1.4504817 0.5190624 -0.39796364
v 1.454409 0.45426178 0.03993106
v 1.4603 0.4562255 0.03993106
v 1.454409 0.44444358 0.037967324
v 1.4603 0.4464072 0.037967324
v 1.454409 0.4110614 0.04385829
v 1.4603 0.4110614 0.04385829
v 1.454409 0.39535224 0.045822024
v 1.4504817 0.43266165 -0.3861817
v 1.4504817 0.3541155 -0.3940363
v 1.4504817 0.481753 -0.38029075
v 1.4504817 0.3914249 -0.4117092
v 1.4504817 0.5190624 -0.3135265
v 1.4504817 0.481753 -0.30174458
v 1.4504817 0.4994259 -0.29389
v 1.4504817 0.5485172 -0.08770645
v 1.4504817 0.5112078 -0.09556103
v 1.4504817 0.5190624 -0.071997166
v 1.4504817 0.481753 -0.079851866
v 1.4504817 0.5190624 0.022258162
v 1.4504817 0.481753 -0.0032693148
v 1.4504817 0.45426178 0.03993106
v 1.4504817 0.45426178 0.03993106
v 1.4504817 0.46800745 0.0065488815
v 1.4504817 0.44444358 0.037967324
v 1.4504817 0.44444358 0.037967324
v 1.4504817 0.46211648 0.0065488815
v 1.4504817 0.4090978 0.04385829
v 1.4504817 0.4090978 0.04385829
v 1.4504817 0.40517044 0.014403582
v 1.4504817 0.39535224 0.04385829
v 1.4504817 0.36000645 0.04385829
v 1.454409 0.4110614 0.04385829
v 1.3935357 0.3914249 0.09098601
v 1.3935357 0.3914249 0.08509505
v 1.3935357 0.2912786 0.08509505
v 1.4504817 0.36000645 0.04385829
v 1.3621173 0.3914249 0.08509505
v 1.3935357 0.2912786 0.08509505
v 1.3621173 0.30109692 0.08509505
v 1.3385534 0.3914249 0.08509505
v 1.3385534 0.30109692 0.08509505
v 1.3621173 0.3914249 0.09098601
v 1.3935357 0.3914249 0.094913244
v 1.3935357 0.289315 0.094913244
v 1.4603 0.3619702 0.04778564
v 1.3169533 0.3914249 0.08509505
v 1.3169533 0.3914249 0.09098601
v 1.3169533 0.29716957 0.08509505
v 1.295353 0.38946128 0.08509505
v 1.2933894 0.2912786 0.08509505
v 1.2757165 0.32073343 0.08509505
v 1.2796439 0.29520595 0.08509505
v 1.2698256 0.23826003 0.08509505
v 1.261971 0.2736057 0.08509505
v 1.267862 0.29520595 0.08509505
v 1.2462618 0.22058713 0.08509505
v 1.2501891 0.18720496 0.08509505
v 1.2285889 0.2186234 0.08509505
v 1.2344799 0.18720496 0.08509505
v 1.3385534 0.3914249 0.09098601
v 1.3385534 0.3914249 0.094913244
v 1.2128797 0.17935038 0.08509505
v 1.2128797 0.17935038 0.09098601
v 1.2187706 0.14400458 0.08509505
v 1.2050251 0.14989555 0.08509505
v 1.216807 0.13418639 0.08509505
v 1.2069887 0.12436807 0.08509505
v 1.2207342 0.09098601 0.08509505
v 1.1952068 0.122404456 0.08509505
v 1.1952068 0.08509505 0.08509505
v 1.2050251 0.14989555 0.08509505
v 1.2050251 0.14989555 0.09098601
v 1.2069887 0.12436807 0.08509505
v 1.2089524 0.1263318 0.09098601
v 1.1971705 0.118477106 0.09098601
v 1.2285889 0.2186234 0.09098601
v 1.2462618 0.2186234 0.09098601
v 1.2462618 0.22058713 0.08509505
v 1.261971 0.2716421 0.09098601
v 1.267862 0.29520595 0.09098601
v 1.267862 0.29520595 0.08509505
v 1.2698256 0.29520595 0.094913244
v 1.261971 0.26771474 0.094913244
v 1.2462618 0.2186234 0.09098601
v 1.2285889 0.21665978 0.094913244
v 1.2462618 0.2186234 0.094913244
v 1.216807 0.17935038 0.094913244
v 1.2069887 0.15185928 0.094913244
v 1.2050251 0.14989555 0.09098601
v 1.2089524 0.1263318 0.09098601
v 1.210916 0.1263318 0.094913244
v 1.1991341 0.11651349 0.094913244
v 1.2207342 0.14400458 0.094913244
v 1.2364435 0.18524134 0.094913244
v 1.222698 0.1263318 0.094913244
v 1.2462618 0.2186234 0.094913244
v 1.2069887 0.15185928 0.094913244
v 1.2501891 0.18524134 0.094913244
v 1.2246616 0.09098601 0.094913244
v 1.210916 0.1263318 0.094913244
v 1.1991341 0.07724047 0.094913244
v 1.2698256 0.23236907 0.094913244
v 1.2698256 0.29520595 0.094913244
v 1.2933894 0.28538764 0.094913244
v 1.2796439 0.29520595 0.094913244
v 1.295353 0.38946128 0.094913244
v 1.2757165 0.3187698 0.094913244
v 1.3169533 0.3914249 0.094913244
v 1.3169533 0.2912786 0.094913244
v 1.3385534 0.29520595 0.094913244
v 1.3621173 0.3914249 0.094913244
v 1.3621173 0.29520595 0.094913244
v 1.3935357 0.289315 0.094913244
v 1.295353 0.38946128 0.09098601
v 1.2757165 0.3187698 0.09098601
v 1.2757165 0.3187698 0.094913244
v 1.2757165 0.32073343 0.08509505
v 0.9261863 0.065458536 -0.14465237
v 0.9085134 0.057603836 -0.12697947
v 0.9085134 0.020294428 -0.12697947
v 0.6964389 0.0026216507 -0.109306574
v 0.70625716 0.03993106 -0.09948838
v 0.70625716 0.0026216507 -0.09948838
v 0.6964389 0.037967324 -0.109306574
v 0.678766 0.0026216507 -0.12697947
v 0.678766 0.037967324 -0.12697947
v 0.6984026 0.03993106 -0.113233924
v 0.71018445 0.03993106 -0.10145199
v 0.7023299 0.03993106 -0.117161274
v 0.69054794 0.037967324 -0.121088505
v 0.70625716 0.037967324 -0.075924516
v 0.70625716 0.0026216507 -0.09948838
v 0.70625716 0.0026216507 -0.075924516
v 0.70625716 0.03600371 -0.038615108
v 0.70625716 0.00065791607 -0.038615108
v 0.70625716 0.03600371 -0.0013056993
v 0.70625716 -0.0013056993 -0.0013056993
v 0.70625716 0.034040093 0.03600371
v 0.70625716 -0.0032693148 0.03600371
v 0.71018445 0.03600371 -0.0013056993
v 0.71018445 0.03600371 -0.038615108
v 0.71018445 0.037967324 -0.075924516
v 0.70625716 0.034040093 0.07527673
v 0.70625716 -0.0032693148 0.07527673
v 0.7160754 0.03993106 -0.10341561
v 0.70625716 0.034040093 0.11258614
v 0.70625716 -0.0032693148 0.11258614
v 0.7160754 0.0026216507 -0.10341561
v 0.7023299 0.0026216507 -0.117161274
v 0.70625716 0.028149128 0.14989555
v 0.71018445 0.028149128 0.14989555
v 0.70625716 -0.00916028 0.14989555
v 0.70625716 0.022258162 0.18720496
v 0.70625716 -0.015051246 0.18720496
v 0.71018445 0.03207636 0.11258614
v 0.70625716 0.018330812 0.22451437
v 0.70625716 -0.018978596 0.22451437
v 0.71018445 0.034040093 0.07527673
v 0.71018445 0.020294428 0.18720496
v 0.70625716 0.014403582 0.26182377
v 0.70625716 -0.020942211 0.26182377
v 0.71018445 0.034040093 0.03600371
v 0.7160754 0.03600371 -0.0013056993
v 0.7160754 0.03207636 0.03600371
v 0.7160754 0.034040093 0.07527673
v 0.7160754 0.03207636 0.11258614
v 0.71018445 0.018330812 0.22451437
v 0.70625716 0.012439847 0.29913318
v 0.70625716 -0.022905827 0.29913318
v 0.7160754 0.03600371 -0.038615108
v 0.71018445 0.014403582 0.26182377
v 0.70625716 0.010476232 0.33840632
v 0.70625716 -0.024869561 0.33840632
v 0.7160754 0.037967324 -0.075924516
v 0.7160754 0.0026216507 -0.075924516
v 0.7160754 0.0026216507 -0.10341561
v 0.7160754 0.00065791607 -0.038615108
v 0.7160754 -0.0013056993 -0.0013056993
v 0.7160754 -0.0032693148 0.03600371
v 0.7160754 -0.0032693148 0.07527673
v 0.7160754 -0.0032693148 0.11258614
v 0.7160754 -0.00916028 0.14989555
v 0.7160754 0.026185393 0.14989555
v 0.7160754 -0.015051246 0.18720496
v 0.7160754 0.020294428 0.18720496
v 0.7160754 -0.018978596 0.22451437
v 0.7160754 0.018330812 0.22451437
v 0.7160754 -0.020942211 0.26182377
v 0.7160754 0.014403582 0.26182377
v 0.7160754 -0.022905827 0.29913318
v 0.7160754 0.012439847 0.29913318
v 0.7160754 -0.024869561 0.33840632
v 0.71018445 0.012439847 0.29913318
v 0.7160754 0.010476232 0.33840632
v 0.7160754 -0.024869561 0.3639338
v 0.7160754 0.010476232 0.3639338
v 0.71018445 0.010476232 0.33840632
v 0.71018445 0.010476232 0.36589742
v 0.70625716 0.010476232 0.36786103
v 0.70625716 -0.024869561 0.36786103
v 0.72393006 0.012439847 0.38553393
v 0.70625716 -0.024869561 0.36786103
v 0.72393006 -0.024869561 0.38553393
v 0.7396393 0.03207636 0.3992796
v 0.7396393 -0.0032693148 0.3992796
v 0.72785735 0.012439847 0.3816067
v 0.729821 0.012439847 0.37767935
v 0.76123947 0.041894674 0.42087972
v 0.76123947 0.004585266 0.42087972
v 0.7435666 0.034040093 0.39535224
v 0.729821 -0.024869561 0.37767935
v 0.7160754 -0.024869561 0.3639338
v 0.74553025 -0.0032693148 0.39338863
v 0.74553025 0.034040093 0.39338863
v 0.76123947 0.0026216507 0.40713418
v 0.76123947 0.03993106 0.40713418
v 0.76123947 0.03993106 0.41498876
v 0.78283966 0.041894674 0.3992796
v 0.76123947 0.004585266 0.42087972
v 0.78283966 0.0065488815 0.3992796
v 0.8005125 0.04385829 0.3816067
v 0.8005125 0.0065488815 0.3816067
v 0.8162218 0.04385829 0.36589742
v 0.8122944 0.041894674 0.3619702
v 0.8162218 0.0065488815 0.36589742
v 0.8299673 0.041894674 0.35018826
v 0.8299673 0.004585266 0.35018826
v 0.7965852 0.041894674 0.37767935
v 0.77891237 0.041894674 0.39535224
v 0.7769487 0.03993106 0.3914249
v 0.7769487 0.0026216507 0.3914249
v 0.76123947 0.0026216507 0.40713418
v 0.7926579 0.004585266 0.373752
v 0.7926579 0.03993106 0.373752
v 0.80836713 0.004585266 0.35804284
v 0.80836713 0.03993106 0.35804284
v 0.8221127 0.00065791607 0.3442973
v 0.8221127 0.03600371 0.3442973
v 0.84174925 -0.011124015 0.32466066
v 0.84174925 0.026185393 0.32466066
v 0.84371287 0.026185393 0.33055162
v 0.82604 0.03993106 0.34822452
v 0.84567654 0.026185393 0.33447897
v 0.84567654 -0.00916028 0.33447897
v 0.8672767 0.028149128 0.33447897
v 0.84567654 -0.00916028 0.33447897
v 0.8672767 -0.007196665 0.33447897
v 0.8967315 0.030112743 0.33447897
v 0.8967315 -0.0052330494 0.33447897
v 0.8672767 0.028149128 0.33055162
v 0.8672767 0.028149128 0.32466066
v 0.9261863 0.03600371 0.33447897
v 0.9261863 -0.0013056993 0.33447897
v 0.8672767 -0.00916028 0.32466066
v 0.84174925 -0.011124015 0.32466066
v 0.8967315 -0.0052330494 0.32466066
v 0.8967315 0.030112743 0.32466066
v 0.9261863 -0.0032693148 0.32466066
v 0.8967315 0.030112743 0.33055162
v 0.9261863 0.03207636 0.32466066
v 0.9556411 0.00065791607 0.32466066
v 0.9556411 0.04385829 0.33447897
v 0.9556411 0.008512616 0.33447897
v 0.9261863 0.03207636 0.33055162
v 0.9556411 0.037967324 0.32466066
v 0.9772413 0.016367197 0.32466066
v 0.9772413 0.05171299 0.32466066
v 0.9556411 0.03993106 0.33055162
v 0.97920495 0.057603836 0.33055162
v 0.9811686 0.061531186 0.33447897
v 0.9811686 0.024221778 0.33447897
v 0.9909869 0.05171299 0.3089515
v 0.9949142 0.05564022 0.31287885
v 1.0125871 0.04778564 0.29324222
v 0.9988415 0.061531186 0.31484246
v 0.9811686 0.024221778 0.33447897
v 0.9988415 0.024221778 0.31484246
v 1.0145507 0.05171299 0.29716957
v 1.0145507 0.014403582 0.29716957
v 1.0322236 0.053676605 0.27753305
v 1.0322236 0.018330812 0.27753305
v 0.9909869 0.014403582 0.3089515
v 0.9772413 0.016367197 0.32466066
v 1.0086597 0.008512616 0.2912786
v 1.0086597 0.045822024 0.2912786
v 1.024369 0.016367197 0.2716421
v 1.024369 0.053676605 0.2716421
v 1.0420419 0.022258162 0.2539692
v 1.0282962 0.053676605 0.27556944
v 1.0498965 0.0634948 0.25986016
v 1.0498965 0.026185393 0.25986016
v 1.0420419 0.05956757 0.2539692
v 1.0597148 0.014403582 0.23433268
v 1.0459691 0.061531186 0.2559328
v 1.0597148 0.05171299 0.23433268
v 1.0773876 0.028149128 0.21665978
v 1.0675694 0.057603836 0.24022365
v 1.0675694 0.022258162 0.24022365
v 1.063642 0.05564022 0.23826003
v 1.0773876 0.0634948 0.21665978
v 1.0930969 0.041894674 0.19702327
v 1.0793513 0.0634948 0.2186234
v 1.0832785 0.0634948 0.22255075
v 1.0832785 0.028149128 0.22255075
v 1.1009514 0.07920408 0.20291424
v 1.1009514 0.041894674 0.20291424
v 1.0930969 0.07724047 0.19702327
v 1.1107697 0.045822024 0.17935038
v 1.0970242 0.07920408 0.20095062
v 1.114697 0.08509505 0.18131399
v 1.1186243 0.08705866 0.18524134
v 1.1186243 0.049749255 0.18524134
v 1.1107697 0.0811677 0.17935038
v 1.1284425 0.05171299 0.15971386
v 1.1343336 0.0890224 0.16560483
v 1.1343336 0.05171299 0.16560483
v 1.1284425 0.08705866 0.15971386
v 1.1441518 0.05564022 0.14204097
v 1.1304063 0.0890224 0.16364121
v 1.1520064 0.094913244 0.14793193
v 1.1520064 0.057603836 0.14793193
v 1.1441518 0.09294963 0.14204097
v 1.1618247 0.061531186 0.122404456
v 1.1480792 0.09294963 0.14400458
v 1.1657519 0.098840594 0.1263318
v 1.1696793 0.10080421 0.12829542
v 1.1696793 0.0634948 0.12829542
v 1.1618247 0.098840594 0.122404456
v 1.1794976 0.0713495 0.10473156
v 1.1853886 0.098840594 0.110622525
v 1.1853886 0.05956757 0.110622525
v 1.1794976 0.10865891 0.10473156
v 1.1952068 0.08509505 0.08509505
v 1.1952068 0.122404456 0.08509505
v 1.1971705 0.118477106 0.09098601
v 1.183425 0.10080421 0.106695175
v 1.1991341 0.11651349 0.094913244
v 1.1991341 0.07724047 0.094913244
v 0.7023299 0.0026216507 -0.12697947
v 0.678766 0.0026216507 -0.12697947
v 0.7023299 0.03993106 -0.12697947
v 0.7258937 0.004585266 -0.12697947
v 0.7258937 0.03993106 -0.12697947
v 0.7573122 0.004585266 -0.12697947
v 0.7023299 0.03993106 -0.121088505
v 0.7258937 0.03993106 -0.121088505
v 0.7258937 0.03993106 -0.117161274
v 0.7023299 0.0026216507 -0.117161274
v 0.7258937 0.004585266 -0.117161274
v 0.7573122 0.041894674 -0.117161274
v 0.7573122 0.004585266 -0.117161274
v 0.7573122 0.041894674 -0.12697947
v 0.78676695 0.0065488815 -0.12697947
v 0.7573122 0.041894674 -0.121088505
v 0.78676695 0.041894674 -0.12697947
v 0.8181854 0.0065488815 -0.12697947
v 0.78676695 0.041894674 -0.117161274
v 0.78676695 0.0065488815 -0.117161274
v 0.78676695 0.041894674 -0.121088505
v 0.8181854 0.041894674 -0.117161274
v 0.8181854 0.004585266 -0.117161274
v 0.8181854 0.041894674 -0.12697947
v 0.8476402 0.0065488815 -0.12697947
v 0.8181854 0.041894674 -0.121088505
v 0.8476402 0.04385829 -0.12697947
v 0.87905866 0.014403582 -0.12697947
v 0.8476402 0.041894674 -0.117161274
v 0.8476402 0.0065488815 -0.117161274
v 0.8476402 0.04385829 -0.121088505
v 0.87905866 0.049749255 -0.117161274
v 0.87905866 0.012439847 -0.117161274
v 0.87905866 0.049749255 -0.12697947
v 0.9085134 0.020294428 -0.12697947
v 0.9085134 0.057603836 -0.12697947
v 0.87905866 0.049749255 -0.121088505
v 0.9104771 0.057603836 -0.121088505
v 0.9124408 0.057603836 -0.117161274
v 0.9124408 0.020294428 -0.117161274
v 0.973314 0.13025904 -0.3135265
v 0.973314 0.1538229 -0.2958536
v 0.973314 0.1714958 -0.29978096
v 0.973314 0.13811362 -0.31549025
v 1.2796439 0.29520595 0.094913244
v 1.2698256 0.29520595 0.094913244
v 1.267862 0.29520595 0.09098601
v 1.2796439 0.29520595 0.09098601
v 1.2757165 0.3187698 0.094913244
v 1.2757165 0.3187698 0.09098601
v 1.2757165 0.32073343 0.08509505
v 1.2796439 0.29520595 0.08509505
v 1.267862 0.29520595 0.08509505
vt 0.8184638 0.59154373
vt 0.8124126 0.5794413
vt 0.8124126 0.58246696
vt 0.8184638 0.59154373
vt 0.8184638 0.58851814
vt 0.8124126 0.5764157
vt 0.8124126 0.5764157
vt 0.8184638 0.58851814
vt 0.82754064 0.6006205
vt 0.82754064 0.6006205
vt 0.82451504 0.60364616
vt 0.8335918 0.61272293
vt 0.8335918 0.61272293
vt 0.8305662 0.6157485
vt 0.82451504 0.60667175
vt 0.82451504 0.60667175
vt 0.8184638 0.59154373
vt 0.8305662 0.6157485
vt 0.8305662 0.6157485
vt 0.8305662 0.6429789
vt 0.8335918 0.6429789
vt 0.8335918 0.61272293
vt 0.8335918 0.6429789
vt 0.8335918 0.6762606
vt 0.8335918 0.6792861
vt 0.8335918 0.68533736
vt 0.8335918 0.6913886
vt 0.8335918 0.68836296
vt 0.8335918 0.6974398
vt 0.8335918 0.6913886
vt 0.8335918 0.7004654
vt 0.8305662 0.6762606
vt 0.8335918 0.68533736
vt 0.8305662 0.68533736
vt 0.8335918 0.68836296
vt 0.8305662 0.68836296
vt 0.8335918 0.6913886
vt 0.8305662 0.6913886
vt 0.8335918 0.69441414
vt 0.8305662 0.69441414
vt 0.8335918 0.703491
vt 0.8305662 0.703491
vt 0.8305662 0.6762606
vt 0.8305662 0.68533736
vt 0.8305662 0.68533736
vt 0.8305662 0.68836296
vt 0.8305662 0.6913886
vt 0.8305662 0.6913886
vt 0.8305662 0.6913886
vt 0.8305662 0.69441414
vt 0.8305662 0.69441414
vt 0.8305662 0.703491
vt 0.8305662 0.6429789
vt 0.8305662 0.6429789
vt 0.8305662 0.6157485
vt 0.8305662 0.6792861
vt 0.8305662 0.6913886
vt 0.8305662 0.68533736
vt 0.8305662 0.6974398
vt 0.8305662 0.6913886
vt 0.8305662 0.7004654
vt 0.8305662 0.6913886
vt 0.8305662 0.703491
vt 0.8305662 0.69441414
vt 0.8305662 0.703491
vt 0.8305662 0.7276958
vt 0.8305662 0.7276958
vt 0.8305662 0.7519006
vt 0.8305662 0.7519006
vt 0.8305662 0.7519006
vt 0.8305662 0.7730798
vt 0.8305662 0.7730798
vt 0.8305662 0.7276958
vt 0.8335918 0.7276958
vt 0.8335918 0.70954216
vt 0.8335918 0.703491
vt 0.8335918 0.69441414
vt 0.8335918 0.7276958
vt 0.8335918 0.7519006
vt 0.8335918 0.7519006
vt 0.8335918 0.7700542
vt 0.8335918 0.7700542
vt 0.8305662 0.7700542
vt 0.88200146 0.86989903
vt 0.88200146 0.86989903
vt 0.8305662 0.7730798
vt 0.88200146 0.86687344
vt 0.88502705 0.86384785
vt 0.8335918 0.7700542
vt 0.88502705 0.86384785
vt 0.8971295 0.86384785
vt 0.88502705 0.86384785
vt 0.8971295 0.86384785
vt 0.8971295 0.86687344
vt 0.9122575 0.86384785
vt 0.9122575 0.86384785
vt 0.9122575 0.86687344
vt 0.92435986 0.86384785
vt 0.92435986 0.86384785
vt 0.8971295 0.86989903
vt 0.9394879 0.86384785
vt 0.9394879 0.86384785
vt 0.8971295 0.86989903
vt 0.88200146 0.86989903
vt 0.9122575 0.86989903
vt 0.9122575 0.86989903
vt 0.92435986 0.86989903
vt 0.92435986 0.86687344
vt 0.92435986 0.86989903
vt 0.9394879 0.86989903
vt 0.9546159 0.86384785
vt 0.9546159 0.86384785
vt 0.9394879 0.86687344
vt 0.9394879 0.86989903
vt 0.9546159 0.86989903
vt 0.9546159 0.86989903
vt 0.9697439 0.86989903
vt 0.9697439 0.86384785
vt 0.9697439 0.86384785
vt 0.9546159 0.86687344
vt 0.9697439 0.86989903
vt 0.9848719 0.86989903
vt 0.9697439 0.86687344
vt 0.9848719 0.86384785
vt 0.9848719 0.86384785
vt 0.9848719 0.86989903
vt 0.9999999 0.86989903
vt 0.9999999 0.86989903
vt 0.9848719 0.86687344
vt 0.9969743 0.86384785
vt 0.9969743 0.86384785
vt 0.9969743 0.86687344
vt 0.9969743 0.84266865
vt 0.9969743 0.86384785
vt 0.9969743 0.84266865
vt 0.9969743 0.82148945
vt 0.9969743 0.8124126
vt 0.9969743 0.84266865
vt 0.9999999 0.84266865
vt 0.9969743 0.809387
vt 0.9969743 0.8003102
vt 0.9969743 0.80333585
vt 0.9969743 0.7972846
vt 0.9999999 0.84266865
vt 0.9999999 0.86989903
vt 0.9999999 0.8124126
vt 0.9999999 0.82148945
vt 0.9999999 0.8003102
vt 0.9969743 0.82148945
vt 0.9969743 0.809387
vt 0.9969743 0.809387
vt 0.9999999 0.809387
vt 0.9999999 0.7972846
vt 0.9999999 0.80333585
vt 0.9999999 0.809387
vt 0.9999999 0.7549262
vt 0.9969743 0.80333585
vt 0.9999999 0.764003
vt 0.9999999 0.748875
vt 0.9999999 0.7609774
vt 0.9999999 0.7458494
vt 0.9969743 0.764003
vt 0.9999999 0.764003
vt 0.9969743 0.7609774
vt 0.9969743 0.764003
vt 0.9969743 0.764003
vt 0.9969743 0.7609774
vt 0.9999999 0.7549262
vt 0.9999999 0.69441414
vt 0.9969743 0.7549262
vt 0.9999999 0.703491
vt 0.9999999 0.68836296
vt 0.9999999 0.6974398
vt 0.9999999 0.5582621
vt 0.9969743 0.703491
vt 0.9999999 0.703491
vt 0.9969743 0.6974398
vt 0.9999999 0.5552365
vt 0.9999999 0.5522109
vt 0.9999999 0.54615974
vt 0.9999999 0.5007757
vt 0.9999999 0.48564768
vt 0.9999999 0.49472448
vt 0.9999999 0.47354528
vt 0.9999999 0.49472448
vt 0.9999999 0.47657087
vt 0.9999999 0.4916989
vt 0.9999999 0.47354528
vt 0.9999999 0.46749407
vt 0.9999999 0.46749407
vt 0.9969743 0.5552365
vt 0.9969743 0.54615974
vt 0.9969743 0.48564768
vt 0.9969743 0.6974398
vt 0.9969743 0.703491
vt 0.9969743 0.703491
vt 0.9969743 0.7549262
vt 0.9969743 0.47354528
vt 0.9999999 0.47354528
vt 0.9969743 0.47657087
vt 0.9999999 0.47657087
vt 0.9969743 0.47354528
vt 0.9999999 0.47354528
vt 0.9969743 0.47051966
vt 0.9969743 0.748875
vt 0.9969743 0.7549262
vt 0.9969743 0.7458494
vt 0.9969743 0.764003
vt 0.9969743 0.703491
vt 0.9969743 0.69441414
vt 0.9969743 0.68836296
vt 0.9969743 0.5552365
vt 0.9969743 0.56128776
vt 0.9969743 0.54615974
vt 0.9969743 0.5522109
vt 0.9969743 0.48564768
vt 0.9969743 0.5007757
vt 0.9969743 0.47354528
vt 0.9969743 0.47354528
vt 0.9969743 0.49472448
vt 0.9969743 0.47657087
vt 0.9969743 0.47657087
vt 0.9969743 0.49472448
vt 0.9969743 0.47354528
vt 0.9969743 0.47354528
vt 0.9969743 0.4916989
vt 0.9969743 0.47354528
vt 0.9969743 0.47354528
vt 0.9969743 0.47354528
vt 0.9757951 0.44026366
vt 0.9757951 0.44328928
vt 0.9757951 0.44328928
vt 0.9969743 0.47354528
vt 0.9667183 0.44328928
vt 0.9757951 0.44328928
vt 0.9667183 0.44328928
vt 0.9576415 0.44328928
vt 0.9576415 0.44328928
vt 0.9667183 0.44026366
vt 0.9757951 0.43723807
vt 0.9757951 0.43723807
vt 0.9999999 0.46749407
vt 0.9515903 0.44328928
vt 0.9515903 0.44026366
vt 0.9515903 0.44328928
vt 0.94251347 0.44328928
vt 0.94251347 0.44328928
vt 0.9364623 0.44328928
vt 0.9364623 0.44328928
vt 0.9334367 0.44328928
vt 0.9334367 0.44328928
vt 0.9334367 0.44328928
vt 0.92738545 0.44328928
vt 0.92738545 0.44328928
vt 0.92133427 0.44328928
vt 0.92435986 0.44328928
vt 0.9576415 0.44026366
vt 0.9576415 0.43723807
vt 0.9152831 0.44328928
vt 0.9152831 0.44026366
vt 0.9183087 0.44328928
vt 0.9122575 0.44328928
vt 0.9183087 0.44328928
vt 0.9122575 0.44328928
vt 0.9183087 0.44328928
vt 0.90923184 0.44328928
vt 0.90923184 0.44328928
vt 0.9122575 0.44328928
vt 0.9122575 0.44026366
vt 0.9122575 0.44328928
vt 0.9152831 0.44026366
vt 0.90923184 0.44026366
vt 0.92133427 0.44026366
vt 0.92738545 0.44026366
vt 0.92738545 0.44328928
vt 0.9334367 0.44026366
vt 0.9334367 0.44026366
vt 0.9334367 0.44328928
vt 0.9334367 0.43723807
vt 0.9334367 0.43723807
vt 0.92738545 0.44026366
vt 0.92133427 0.43723807
vt 0.92738545 0.43723807
vt 0.9152831 0.43723807
vt 0.9122575 0.43723807
vt 0.9122575 0.44026366
vt 0.9152831 0.44026366
vt 0.9152831 0.43723807
vt 0.9122575 0.43723807
vt 0.9183087 0.43723807
vt 0.92435986 0.43723807
vt 0.9183087 0.43723807
vt 0.92738545 0.43723807
vt 0.9122575 0.43723807
vt 0.92738545 0.43723807
vt 0.9183087 0.43723807
vt 0.9152831 0.43723807
vt 0.9122575 0.43723807
vt 0.9334367 0.43723807
vt 0.9334367 0.43723807
vt 0.94251347 0.43723807
vt 0.9364623 0.43723807
vt 0.94251347 0.43723807
vt 0.9364623 0.43723807
vt 0.9515903 0.43723807
vt 0.9515903 0.43723807
vt 0.9576415 0.43723807
vt 0.9667183 0.43723807
vt 0.9667183 0.43723807
vt 0.9757951 0.43723807
vt 0.94251347 0.44026366
vt 0.9364623 0.44026366
vt 0.9364623 0.43723807
vt 0.9364623 0.44328928
vt 0.8184638 0.59154373
vt 0.8124126 0.58246696
vt 0.8124126 0.58246696
vt 0.7367726 0.57036453
vt 0.7428238 0.5643133
vt 0.7428238 0.5643133
vt 0.7367726 0.57036453
vt 0.733747 0.58246696
vt 0.733747 0.58246696
vt 0.7397982 0.5733901
vt 0.7428238 0.5643133
vt 0.7397982 0.5764157
vt 0.7367726 0.5794413
vt 0.7428238 0.5491853
vt 0.7428238 0.5643133
vt 0.7428238 0.5491853
vt 0.7428238 0.52498055
vt 0.7428238 0.52498055
vt 0.7428238 0.5007757
vt 0.7428238 0.5007757
vt 0.7428238 0.47657087
vt 0.7428238 0.47657087
vt 0.7428238 0.5007757
vt 0.7428238 0.52498055
vt 0.7428238 0.5491853
vt 0.7428238 0.45236605
vt 0.7428238 0.45236605
vt 0.7458494 0.56733894
vt 0.7428238 0.42816126
vt 0.7428238 0.42816126
vt 0.7458494 0.56733894
vt 0.7397982 0.5764157
vt 0.7428238 0.40395647
vt 0.7428238 0.40395647
vt 0.7428238 0.40395647
vt 0.7428238 0.37975162
vt 0.7428238 0.37975162
vt 0.7428238 0.42816126
vt 0.7428238 0.35554683
vt 0.7428238 0.35554683
vt 0.7428238 0.45236605
vt 0.7428238 0.37975162
vt 0.7428238 0.331342
vt 0.7428238 0.331342
vt 0.7428238 0.47657087
vt 0.7458494 0.5007757
vt 0.7458494 0.47657087
vt 0.7458494 0.45236605
vt 0.7458494 0.42816126
vt 0.7428238 0.35554683
vt 0.7428238 0.30713722
vt 0.7428238 0.30713722
vt 0.7458494 0.52498055
vt 0.7428238 0.331342
vt 0.7428238 0.2829324
vt 0.7428238 0.2829324
vt 0.7458494 0.5491853
vt 0.7458494 0.5491853
vt 0.7458494 0.56733894
vt 0.7458494 0.52498055
vt 0.7458494 0.5007757
vt 0.7458494 0.47657087
vt 0.7458494 0.45236605
vt 0.7458494 0.42816126
vt 0.7458494 0.40395647
vt 0.7458494 0.40395647
vt 0.7458494 0.37975162
vt 0.7458494 0.37975162
vt 0.7458494 0.35554683
vt 0.7458494 0.35554683
vt 0.7458494 0.331342
vt 0.7458494 0.331342
vt 0.7458494 0.30713722
vt 0.7458494 0.30713722
vt 0.7458494 0.2829324
vt 0.7428238 0.30713722
vt 0.7458494 0.2829324
vt 0.7458494 0.2647788
vt 0.7458494 0.2647788
vt 0.7428238 0.2829324
vt 0.7428238 0.2647788
vt 0.7428238 0.2617532
vt 0.7428238 0.2617532
vt 0.748875 0.2526764
vt 0.7428238 0.2617532
vt 0.748875 0.2526764
vt 0.7519006 0.24359958
vt 0.7519006 0.24359958
vt 0.748875 0.255702
vt 0.748875 0.255702
vt 0.7609774 0.22847158
vt 0.7609774 0.22847158
vt 0.7549262 0.24359958
vt 0.748875 0.255702
vt 0.7458494 0.2647788
vt 0.7549262 0.24662519
vt 0.7549262 0.24662519
vt 0.7609774 0.23754838
vt 0.7609774 0.23754838
vt 0.7609774 0.23149718
vt 0.7670286 0.24359958
vt 0.7609774 0.22847158
vt 0.7670286 0.24359958
vt 0.7730798 0.2526764
vt 0.7730798 0.2526764
vt 0.779131 0.2647788
vt 0.779131 0.26780438
vt 0.779131 0.2647788
vt 0.78518224 0.2738556
vt 0.78518224 0.2738556
vt 0.7730798 0.255702
vt 0.7670286 0.24359958
vt 0.7670286 0.24662519
vt 0.7670286 0.24662519
vt 0.7609774 0.23754838
vt 0.7700542 0.25872758
vt 0.7700542 0.25872758
vt 0.7761054 0.26780438
vt 0.7761054 0.26780438
vt 0.7821566 0.2768812
vt 0.7821566 0.2768812
vt 0.7882078 0.2889836
vt 0.7882078 0.2889836
vt 0.7882078 0.285958
vt 0.7821566 0.2768812
vt 0.7882078 0.2829324
vt 0.7882078 0.2829324
vt 0.7972846 0.2829324
vt 0.7882078 0.2829324
vt 0.7972846 0.2829324
vt 0.80636144 0.2829324
vt 0.80636144 0.2829324
vt 0.7972846 0.285958
vt 0.7972846 0.2889836
vt 0.8184638 0.2829324
vt 0.8184638 0.2829324
vt 0.7972846 0.2889836
vt 0.7882078 0.2889836
vt 0.80636144 0.2889836
vt 0.80636144 0.2889836
vt 0.8184638 0.2889836
vt 0.80636144 0.285958
vt 0.8184638 0.2889836
vt 0.82754064 0.2889836
vt 0.82754064 0.2829324
vt 0.82754064 0.2829324
vt 0.8184638 0.285958
vt 0.82754064 0.2889836
vt 0.8335918 0.2889836
vt 0.8335918 0.2889836
vt 0.82754064 0.285958
vt 0.8335918 0.285958
vt 0.8366174 0.2829324
vt 0.8366174 0.2829324
vt 0.83964306 0.301086
vt 0.83964306 0.29806042
vt 0.84569424 0.3101628
vt 0.84266865 0.2950348
vt 0.8366174 0.2829324
vt 0.84266865 0.2950348
vt 0.84871984 0.30713722
vt 0.84871984 0.30713722
vt 0.854771 0.31923962
vt 0.854771 0.31923962
vt 0.83964306 0.301086
vt 0.8335918 0.2889836
vt 0.84569424 0.3131884
vt 0.84569424 0.3131884
vt 0.8517454 0.32529083
vt 0.8517454 0.32529083
vt 0.85779667 0.33739322
vt 0.8517454 0.3222652
vt 0.86082226 0.331342
vt 0.86082226 0.331342
vt 0.85779667 0.33739322
vt 0.86384785 0.34949562
vt 0.85779667 0.33436763
vt 0.86384785 0.34949562
vt 0.86989903 0.361598
vt 0.86384785 0.3434444
vt 0.86384785 0.3434444
vt 0.86384785 0.34647003
vt 0.86989903 0.361598
vt 0.8759503 0.37370044
vt 0.86989903 0.35857242
vt 0.86989903 0.35554683
vt 0.86989903 0.35554683
vt 0.8759503 0.36764926
vt 0.8759503 0.36764926
vt 0.8759503 0.37370044
vt 0.87897587 0.38580287
vt 0.8759503 0.37067485
vt 0.88200146 0.38277724
vt 0.88200146 0.37975162
vt 0.88200146 0.37975162
vt 0.87897587 0.38580287
vt 0.88502705 0.39790523
vt 0.88805264 0.39185405
vt 0.88805264 0.39185405
vt 0.88502705 0.39790523
vt 0.89107823 0.41000766
vt 0.88805264 0.39487964
vt 0.8941039 0.40395647
vt 0.8941039 0.40395647
vt 0.89107823 0.41000766
vt 0.8971295 0.42211008
vt 0.8941039 0.40698206
vt 0.90015507 0.41908446
vt 0.90015507 0.41605884
vt 0.90015507 0.41605884
vt 0.8971295 0.42211008
vt 0.90318066 0.43421245
vt 0.90620625 0.42816126
vt 0.90620625 0.42816126
vt 0.90318066 0.43421245
vt 0.90923184 0.44328928
vt 0.90923184 0.44328928
vt 0.90923184 0.44026366
vt 0.90620625 0.43118685
vt 0.9122575 0.43723807
vt 0.9122575 0.43723807
vt 0.7397982 0.58246696
vt 0.733747 0.58246696
vt 0.7397982 0.58246696
vt 0.748875 0.58246696
vt 0.748875 0.58246696
vt 0.7579518 0.58246696
vt 0.7397982 0.5794413
vt 0.748875 0.5794413
vt 0.748875 0.5764157
vt 0.7397982 0.5764157
vt 0.748875 0.5764157
vt 0.7579518 0.5764157
vt 0.7579518 0.5764157
vt 0.7579518 0.58246696
vt 0.7700542 0.58246696
vt 0.7579518 0.5794413
vt 0.7700542 0.58246696
vt 0.779131 0.58246696
vt 0.7700542 0.5764157
vt 0.7700542 0.5764157
vt 0.7700542 0.5794413
vt 0.779131 0.5764157
vt 0.779131 0.5764157
vt 0.779131 0.58246696
vt 0.7912334 0.58246696
vt 0.779131 0.5794413
vt 0.7912334 0.58246696
vt 0.8003102 0.58246696
vt 0.7912334 0.5764157
vt 0.7912334 0.5764157
vt 0.7912334 0.5794413
vt 0.8003102 0.5764157
vt 0.8003102 0.5764157
vt 0.8003102 0.58246696
vt 0.8124126 0.58246696
vt 0.8124126 0.58246696
vt 0.8003102 0.5794413
vt 0.8124126 0.5794413
vt 0.8124126 0.5764157
vt 0.8124126 0.5764157
vt 0.8335918 0.7004654
vt 0.8335918 0.6913886
vt 0.8335918 0.69441414
vt 0.8335918 0.703491
vt 0.9364623 0.43723807
vt 0.9334367 0.43723807
vt 0.9334367 0.44026366
vt 0.9364623 0.44026366
vt 0.9364623 0.43723807
vt 0.9364623 0.44026366
vt 0.9364623 0.44328928
vt 0.9364623 0.44328928
vt 0.9334367 0.44328928
vn -0.26980734 0.9363899 0.22445023
vn -0.26980734 0.9363899 0.22445023
vn -0.26980734 0.9363899 0.22445023
vn -0.26980734 0.9363899 0.22445023
vn -0.3332913 0.9363899 0.10995819
vn -0.26980734 0.9363899 0.22445023
vn 0.7141957 0.015871048 0.6997661
vn 0.7141957 0.015871048 0.6997661
vn -0.3332913 0.9363899 0.10995819
vn 0.7141957 0.015871048 0.6997661
vn -0.3332913 0.9363899 0.10995819
vn -0.3332913 0.9363899 0.10995819
vn 0.7141957 0.015871048 0.6997661
vn -0.3332913 0.9363899 0.10995819
vn -0.3332913 0.9363899 0.10995819
vn -0.7141957 0.015871048 -0.6997661
vn -0.7141957 0.015871048 -0.6997661
vn -0.7141957 0.015871048 -0.6997661
vn -0.3332913 0.9363899 0.10995819
vn -0.17458117 0.968132 0.17956008
vn -0.14142141 0.98994946 -0
vn 0.999874 0.015871048 -0.00034391563
vn 0.999874 0.015871048 -0.00034391563
vn -0.1110971 0.8094218 0.5766228
vn 0.999874 0.015871048 -0.00034391563
vn 0.999874 0.015871048 -0.00034391563
vn 0.999874 0.015871048 -0.00034391563
vn 0.999874 0.015871048 -0.00034391563
vn 0.999874 0.015871048 -0.00034391563
vn 0.999874 0.015871048 -0.00034391563
vn 0.999874 0.015871048 -0.00034391563
vn -0.1110971 0.8094218 0.5766228
vn -0.07935512 0.39677536 0.91447914
vn -0.07935512 0.39677536 0.91447914
vn 0.07935506 0.20632327 0.97526073
vn 0.07935506 0.20632327 0.97526073
vn 0.23806524 0.1428392 0.96068823
vn 0.23806524 0.1428392 0.96068823
vn 0.2063232 0.5237435 0.8265128
vn 0.2063232 0.5872276 0.78268415
vn 0.015870988 0.8411639 0.5405474
vn 0.015870988 0.8411639 0.5405474
vn -0.1110971 0.8411639 0.52924544
vn -0.1428392 0.39677536 0.9067339
vn -0.1428392 0.39677536 0.9067339
vn -0.1428392 0.17458117 0.9742271
vn -0.1428392 0.1428392 0.9793845
vn -0.17458117 0.1428392 0.9742271
vn -0.17458117 0.1428392 0.9742271
vn -0.20632327 0.5554856 0.8055225
vn -0.20632327 0.5554856 0.8055225
vn 0.015870988 0.8411639 0.5405474
vn -0.17458117 0.968132 0.17956008
vn -0.999874 0.015871048 -0.00034391563
vn -0.999874 0.015871048 -0.00034391563
vn -0.999874 0.015871048 -0.00034391563
vn -0.999874 0.015871048 -0.00034391563
vn -0.999874 0.015871048 -0.00034391563
vn -0.999874 0.015871048 -0.00034391563
vn -0.999874 0.015871048 -0.00034391563
vn -0.999874 0.015871048 -0.00034391563
vn -0.999874 0.015871048 -0.00034391563
vn -0.999874 0.015871048 -0.00034391563
vn -0.999874 0.015871048 -0.00034391563
vn -0.999874 0.015871048 -0.00034391563
vn -0.999874 0.015871048 -0.00034391563
vn 0.015870988 0.999874 -0.00034526698
vn -0.999874 0.015871048 -0.00034391563
vn 0.015870988 0.999874 -0.00034526698
vn 0.015870988 0.999874 -0.00034526698
vn -0.999874 0.015871048 -0.00034391563
vn 0.015870988 0.999874 -0.00034526698
vn 0.015870988 0.999874 -0.00034526698
vn 0.015870988 0.999874 -0.00034526698
vn 0.999874 0.015871048 -0.00034391563
vn 0.999874 0.015871048 -0.00034391563
vn 0.999874 0.015871048 -0.00034391563
vn 0.999874 0.015871048 -0.00034391563
vn 0.015870988 0.999874 -0.00034526698
vn 0.999874 0.015871048 -0.00034391563
vn 0.015870988 0.999874 -0.00034526698
vn 0.999874 0.015871048 -0.00034391563
vn 0.015870988 0.999874 -0.00034526698
vn -0.015871048 0.999874 -0.00034526698
vn -0.7141957 0.015871048 -0.6997661
vn -0.7141957 0.015871048 -0.6997661
vn -0.015871048 0.999874 -0.00034526698
vn -0.015871048 0.999874 -0.00034526698
vn 0.7141957 0.015871048 0.6997661
vn 0.7141957 0.015871048 0.6997661
vn 0.015870988 0.999874 -0.00034526698
vn -0.015871048 0.015871048 0.99974805
vn -0.015871048 0.015871048 0.99974805
vn 0.015870988 0.999874 -0.00034526698
vn -0.015871048 0.999874 -0.00034526698
vn -0.015871048 0.015871048 0.99974805
vn -0.015871048 0.999874 -0.00034526698
vn -0.015871048 0.999874 -0.00034526698
vn -0.015871048 0.015871048 0.99974805
vn 0.015870988 0.999874 -0.00034526698
vn -0.079116344 0.9968654 -0
vn -0.015871048 0.015871048 0.99974805
vn -0.015871048 0.015871048 -0.99974805
vn -0.015871048 0.015871048 -0.99974805
vn -0.015871048 0.015871048 -0.99974805
vn -0.015871048 0.999874 -0.00034526698
vn -0.015871048 0.015871048 -0.99974805
vn -0.015871048 0.999874 -0.00034526698
vn -0.015871048 0.999874 -0.00034526698
vn -0.015871048 0.015871048 -0.99974805
vn -0.110431515 0.9938838 -0
vn -0.015871048 0.015871048 0.99974805
vn -0.079116344 0.9968654 -0
vn -0.079116344 0.9968654 -0
vn -0.015871048 0.015871048 -0.99974805
vn -0.110431515 0.9938838 -0
vn -0.015871048 0.015871048 -0.99974805
vn 0.015870988 0.999874 -0.00034526698
vn -0.015871048 0.015871048 0.99974805
vn -0.110431515 0.9938838 -0
vn 0.015870988 0.999874 -0.00034526698
vn -0.015871048 0.015871048 -0.99974805
vn 0.015870988 0.999874 -0.00034526698
vn 0.110431515 0.9938838 -0
vn -0.015871048 0.015871048 0.99974805
vn 0.110431515 0.9938838 -0
vn -0.015871048 0.015871048 -0.99974805
vn 0.04756513 0.99886817 -0
vn 0.110431515 0.9938838 -0
vn 0.015870988 0.999874 -0.00034526698
vn -0.015871048 0.015871048 0.99974805
vn 0.04756513 0.99886817 -0
vn 0.17458117 0.8411639 -0.5118249
vn -0.999874 0.015871048 -0.00034391563
vn -0.999874 0.015871048 -0.00034391563
vn 0.14283913 0.46025944 -0.87621814
vn -0.999874 0.015871048 -0.00034391563
vn 0.17458117 0.8411639 -0.5118249
vn 0.14283913 0.87290585 -0.46651083
vn -0.999874 0.015871048 -0.00034391563
vn -0.999874 0.015871048 -0.00034391563
vn 0.047613025 0.42851746 -0.90227807
vn -0.999874 0.015871048 -0.00034391563
vn 0.999874 0.015871048 -0.00034391563
vn 0.999874 0.015871048 -0.00034391563
vn 0.999874 0.015871048 -0.00034391563
vn 0.14283913 0.5237435 -0.8398153
vn 0.999874 0.015871048 -0.00034391563
vn 0.14283913 0.49200153 -0.85879654
vn 0.047613025 0.17458117 -0.98349094
vn 0.047613025 0.17458117 -0.98349094
vn 0.999874 0.015871048 -0.00034391563
vn 0.999874 0.015871048 -0.00034391563
vn 0.047613025 0.42851746 -0.90227807
vn 0.047613025 0.20632327 -0.9773248
vn 0.999874 0.015871048 -0.00034391563
vn 0.015870988 0.42851746 -0.9033941
vn 0.999874 0.015871048 -0.00034391563
vn 0.999874 0.015871048 -0.00034391563
vn 0.7459377 0.39677536 -0.53492635
vn 0.999874 0.015871048 -0.00034391563
vn 0.30154932 0.5237435 -0.7967187
vn 0.33329135 0.7459378 -0.5766226
vn 0.7459377 0.3650334 -0.5570705
vn 0.23806524 0.65071166 -0.72104037
vn 0.23806524 0.5554856 -0.7967187
vn 0.7776798 0.39677536 -0.48763043
vn 0.015870988 0.8094218 -0.58701324
vn 0.999874 0.015871048 -0.00034391563
vn 0.047613025 0.8411639 -0.5386802
vn 0.999874 0.015871048 -0.00034391563
vn 0.999874 0.015871048 -0.00034391563
vn 0.047613025 0.968132 -0.24587277
vn 0.999874 0.015871048 -0.00034391563
vn 0.047613025 0.968132 -0.24587277
vn 0.047613025 0.968132 -0.24587277
vn 0.015870988 0.968132 -0.24993704
vn -0.5237435 0.8411639 0.13467027
vn 0.999874 0.015871048 -0.00034391563
vn -0.07935512 0.968132 0.23753566
vn 0.999874 0.015871048 -0.00034391563
vn -0.047613025 0.7459378 0.66431147
vn 0.999874 -0.015870988 -0.00034665503
vn 0.999874 -0.015870988 -0.00034665503
vn 0.999874 0.015871048 -0.00034391563
vn 0.999874 0.015871048 -0.00034391563
vn 0.999874 0.015871048 -0.00034391563
vn 0.999874 0.015871048 -0.00034391563
vn 0.999874 0.015871048 -0.00034391563
vn 0.999874 0.015871048 -0.00034391563
vn -0.65071166 0.7459378 0.1419545
vn -0.047613025 0.968132 0.24587277
vn -0.015871048 0.7459378 0.66582644
vn -0.047613025 0.968132 -0.24587277
vn -0.015871048 0.968132 -0.24993704
vn -0.015871048 0.968132 -0.24993704
vn 0.015870988 0.8411639 -0.5405474
vn -0.015871048 0.20632327 0.97835517
vn -0.015871048 0.20632327 0.97835517
vn -0.015871048 0.07935512 0.9967201
vn -0.015871048 0.047613025 0.9987398
vn -0.1110971 0.20632327 0.97215647
vn -0.07935512 0.17458117 0.9814398
vn 0.7459377 0.07935512 0.6612713
vn -0.999874 0.015871048 -0.00034391563
vn -0.999874 0.015871048 -0.00034391563
vn -0.999874 0.015871048 -0.00034391563
vn -0.999874 0.015871048 -0.00034391563
vn -0.999874 0.015871048 -0.00034391563
vn -0.999874 0.015871048 -0.00034391563
vn -0.999874 0.015871048 -0.00034391563
vn -0.7776798 0.5872276 0.22445023
vn -0.999874 0.015871048 -0.00034391563
vn -0.047613025 0.968132 0.24587277
vn -0.999874 0.015871048 -0.00034391563
vn 0.015870988 0.7776798 0.6284602
vn -0.999874 0.015871048 -0.00034391563
vn -0.999874 0.015871048 -0.00034391563
vn -0.015871048 0.20632327 0.97835517
vn -0.999874 0.015871048 -0.00034391563
vn -0.999874 0.015871048 -0.00034391563
vn -0.015871048 0.07935512 0.9967201
vn -0.999874 0.015871048 -0.00034391563
vn -0.999874 0.015871048 -0.00034391563
vn -0.1110971 0.1428392 0.98349094
vn -0.999874 0.015871048 -0.00034391563
vn 0.49200147 0.17458117 0.8529103
vn -0.999874 0.015871048 -0.00034391563
vn -0.07935512 0.1428392 0.98655957
vn 0.55548555 0.8094218 0.1904527
vn 0.55548555 0.8094218 0.1904527
vn -0.5872276 0.015871048 -0.80926627
vn -0.5872276 0.015871048 -0.80926627
vn 0.14283913 0.8411639 0.52157485
vn -0.015871048 0.015871048 -0.99974805
vn -0.015871048 0.015871048 -0.99974805
vn -0.047613025 0.90464795 0.42349154
vn -0.015871048 0.015871048 -0.99974805
vn 0.14283913 0.90464795 0.40150845
vn 0.55548555 0.8094218 0.1904527
vn 0.5872276 0.015871048 0.80926627
vn 0.5872276 0.015871048 0.80926627
vn -0.17458117 0.87290585 0.455584
vn -0.17458117 0.8094218 0.5606762
vn -0.015871048 0.015871048 -0.99974805
vn -0.5237435 0.7141957 0.46434602
vn -0.015871048 0.015871048 -0.99974805
vn -0.015871048 0.015871048 -0.99974805
vn -0.015871048 0.015871048 -0.99974805
vn -0.015871048 0.015871048 -0.99974805
vn -0.90464795 0.39677536 0.15550363
vn -0.015871048 0.015871048 -0.99974805
vn -0.015871048 0.015871048 -0.99974805
vn -0.015871048 0.015871048 -0.99974805
vn -0.87290585 0.46025944 0.16185373
vn -0.015871048 0.015871048 -0.99974805
vn -0.047613025 0.8411639 0.5386802
vn -0.047613025 0.7459378 0.66431147
vn -0.8411639 0.49200153 0.22445007
vn -0.87290585 0.42851746 0.23325558
vn -0.015871048 0.015871048 -0.99974805
vn -0.015871048 0.015871048 -0.99974805
vn -0.015871048 0.015871048 -0.99974805
vn -0.015871048 0.015871048 -0.99974805
vn -0.015871048 0.015871048 -0.99974805
vn -0.7776798 0.26980734 0.56781876
vn -0.015871048 0.015871048 -0.99974805
vn -0.968132 0.047613025 0.24587277
vn -0.968132 0.1110971 0.22445011
vn -0.87290585 0.3650334 0.32370666
vn -0.9363899 0.17458117 0.30445904
vn -0.7776798 0.26980734 0.56781876
vn -0.87115216 0.49101308 -0
vn -0.8094218 0.5554856 0.19045253
vn -0.87115216 0.49101308 -0
vn -0.90464795 0.39677536 0.15550363
vn -0.96329135 0.2684583 -0
vn -0.96329135 0.2684583 -0
vn -0.96329135 0.2684583 -0
vn -0.87290585 0.42851746 0.23325558
vn -0.8411639 0.5237435 0.13467027
vn -0.87115216 0.49101308 -0
vn -0.8344646 0.5510616 -0
vn -0.90464795 0.3650334 0.21991521
vn -0.9363899 0.1110971 0.3329134
vn -0.9363899 0.07935512 0.34187227
vn -0.90464795 0.30154932 0.30113134
vn -0.9363899 0.1428392 0.32057893
vn -0.7776798 0.26980734 0.56781876
vn -0.015871048 0.015871048 0.99974805
vn -0.015871048 0.015871048 0.99974805
vn -0.015871048 0.015871048 0.99974805
vn -0.015871048 0.015871048 0.99974805
vn -0.015871048 0.015871048 0.99974805
vn -0.015871048 0.015871048 0.99974805
vn -0.015871048 0.015871048 0.99974805
vn -0.015871048 0.015871048 0.99974805
vn -0.015871048 0.015871048 0.99974805
vn -0.015871048 0.015871048 0.99974805
vn -0.015871048 0.015871048 0.99974805
vn -0.015871048 0.015871048 0.99974805
vn -0.015871048 0.015871048 0.99974805
vn -0.68245375 0.6189697 0.3887588
vn -0.015871048 0.015871048 0.99974805
vn -0.1428392 0.7459378 0.65051806
vn -0.015871048 0.015871048 0.99974805
vn -0.015871048 0.015871048 0.99974805
vn 0.1110971 0.968132 0.2244501
vn -0.015871048 0.015871048 0.99974805
vn -0.015871048 0.015871048 0.99974805
vn -0.6189697 0.68245375 0.3887588
vn -0.96329135 0.2684583 -0
vn -0.96329135 0.2684583 -0
vn -0.96329135 0.2684583 -0
vn -0.7141957 0.015871048 -0.6997661
vn -0.7141957 0.015871048 -0.6997661
vn -0.7141957 0.015871048 -0.6997661
vn -0.7141957 0.015871048 0.6997661
vn -0.04756513 0.99886817 -0
vn -0.7141957 0.015871048 0.6997661
vn -0.04756513 0.99886817 -0
vn -0.7141957 0.015871048 0.6997661
vn -0.04756513 0.99886817 -0
vn -0.04756513 0.99886817 -0
vn -0.04756513 0.99886817 -0
vn -0.04756513 0.99886817 -0
vn -0.04756513 0.99886817 -0
vn -0.04756513 0.99886817 -0
vn -0.999874 0.015871048 -0.00034391563
vn -0.999874 0.015871048 -0.00034391563
vn -0.04756513 0.99886817 -0
vn -0.999874 0.015871048 -0.00034391563
vn -0.079116344 0.9968654 -0
vn -0.999874 0.015871048 -0.00034391563
vn 0.04756513 0.99886817 -0
vn -0.999874 0.015871048 -0.00034391563
vn -0.04756513 0.99886817 -0
vn -0.04756513 0.99886817 -0
vn -0.04756513 0.99886817 -0
vn 0.04756513 0.99886817 -0
vn -0.999874 0.015871048 -0.00034391563
vn -0.04756513 0.99886817 -0
vn 0.079116285 0.9968654 -0
vn -0.999874 0.015871048 -0.00034391563
vn 0.7141957 0.015871048 -0.6997661
vn 0.7141957 0.015871048 -0.6997661
vn 0.04756513 0.99886817 -0
vn 0.04756513 0.99886817 -0
vn -0.999874 0.015871048 -0.00034391563
vn 0.04756513 0.99886817 -0
vn -0.999874 0.015871048 -0.00034391563
vn 0.079116285 0.9968654 -0
vn 0.015870988 0.999874 -0.00034526698
vn -0.999874 0.015871048 -0.00034391563
vn 0.04756513 0.99886817 -0
vn 0.04756513 0.99886817 -0
vn 0.015870988 0.999874 -0.00034526698
vn -0.999874 0.015871048 -0.00034391563
vn 0.04756513 0.99886817 -0
vn -0.04756513 0.99886817 -0
vn 0.04756513 0.99886817 -0
vn 0.04756513 0.99886817 -0
vn 0.079116285 0.9968654 -0
vn 0.015870988 0.999874 -0.00034526698
vn 0.015870988 0.999874 -0.00034526698
vn -0.999874 0.015871048 -0.00034391563
vn -0.04756513 0.99886817 -0
vn 0.015870988 0.999874 -0.00034526698
vn -0.015871048 0.999874 -0.00034526698
vn -0.999874 0.015871048 -0.00034391563
vn -0.04756513 0.99886817 -0
vn 0.999874 0.015871048 -0.00034391563
vn 0.999874 0.015871048 -0.00034391563
vn 0.999874 0.015871048 -0.00034391563
vn 0.999874 0.015871048 -0.00034391563
vn 0.999874 0.015871048 -0.00034391563
vn 0.999874 0.015871048 -0.00034391563
vn 0.999874 0.015871048 -0.00034391563
vn 0.999874 0.015871048 -0.00034391563
vn 0.04756513 0.99886817 -0
vn 0.999874 0.015871048 -0.00034391563
vn 0.04756513 0.99886817 -0
vn 0.999874 0.015871048 -0.00034391563
vn 0.015870988 0.999874 -0.00034526698
vn 0.999874 0.015871048 -0.00034391563
vn 0.015870988 0.999874 -0.00034526698
vn 0.999874 0.015871048 -0.00034391563
vn 0.015870988 0.999874 -0.00034526698
vn 0.999874 0.015871048 -0.00034391563
vn 0.015870988 0.999874 -0.00034526698
vn -0.015871048 0.999874 -0.00034526698
vn 0.999874 0.015871048 -0.00034391563
vn -0.015871048 0.999874 -0.00034526698
vn -0.015871048 0.999874 -0.00034526698
vn -0.015871048 0.999874 -0.00034526698
vn -0.015871048 0.999874 -0.00034526698
vn -0.999874 0.015871048 -0.00034391563
vn -0.26980734 0.9363899 -0.22445023
vn -0.68245375 0.015871048 0.73075646
vn -0.68245375 0.015871048 0.73075646
vn -0.39677536 0.87290585 -0.28390962
vn -0.68245375 0.015871048 0.73075646
vn -0.26980734 0.9363899 -0.22445023
vn -0.26980734 0.9363899 -0.22445023
vn -0.20632327 0.968132 -0.1419547
vn -0.68245375 0.015871048 0.73075646
vn -0.39677536 0.87290585 -0.28390962
vn 0.68245363 0.015871048 -0.7307566
vn 0.68245363 0.015871048 -0.7307566
vn 0.68245363 0.015871048 -0.7307566
vn -0.39677536 0.87290585 -0.28390962
vn 0.68245363 0.015871048 -0.7307566
vn -0.20632327 0.968132 -0.1419547
vn -0.20632327 0.968132 -0.1419547
vn -0.20632327 0.968132 -0.1419547
vn 0.7141957 0.015871048 0.6997661
vn 0.7141957 0.015871048 0.6997661
vn -0.20632327 0.968132 -0.1419547
vn 0.7141957 0.015871048 0.6997661
vn -0.1428392 0.968132 -0.20571192
vn -0.1428392 0.968132 -0.20571192
vn 0.7141957 0.015871048 0.6997661
vn 0.047613025 0.9363899 -0.3477167
vn 0.7141957 0.015871048 0.6997661
vn -0.20632327 0.968132 -0.1419547
vn -0.20632327 0.968132 -0.1419547
vn -0.20632327 0.968132 -0.1419547
vn -0.7141957 0.015871048 -0.6997661
vn -0.7141957 0.015871048 -0.6997661
vn -0.7141957 0.015871048 -0.6997661
vn -0.20632327 0.968132 -0.1419547
vn -0.7141957 0.015871048 -0.6997661
vn -0.1110971 0.968132 -0.2244501
vn -0.7141957 0.015871048 -0.6997661
vn -0.17458117 0.8094218 -0.5606762
vn -0.7141957 0.015871048 -0.6997661
vn 0.14283913 0.968132 -0.20571192
vn 0.14283913 0.968132 -0.20571192
vn -0.1110971 0.87290585 -0.47507137
vn 0.23806524 0.968132 -0.07775179
vn 0.7141957 0.015871048 0.6997661
vn -0.079116344 0.9968654 -0
vn -0.015871048 0.015871048 0.99974805
vn -0.015871048 0.015871048 0.99974805
vn -0.14142141 0.98994946 -0
vn -0.015871048 0.015871048 0.99974805
vn -0.079116344 0.9968654 -0
vn -0.079116344 0.9968654 -0
vn -0.17458117 0.87290585 -0.455584
vn -0.015871048 0.015871048 0.99974805
vn -0.015871048 0.015871048 -0.99974805
vn -0.015871048 0.015871048 -0.99974805
vn -0.015871048 0.015871048 -0.99974805
vn -0.079116344 0.9968654 -0
vn -0.015871048 0.015871048 -0.99974805
vn -0.110431515 0.9938838 -0
vn -0.110431515 0.9938838 -0
vn -0.015871048 0.015871048 -0.99974805
vn -0.39677536 0.7459378 -0.5349262
vn -0.015871048 0.015871048 0.99974805
vn -0.1428392 0.968132 -0.20571192
vn -0.3332913 0.7776798 -0.53303945
vn -0.015871048 0.015871048 -0.99974805
vn -0.49200153 0.68245375 -0.5405473
vn -0.3650334 0.7459378 -0.5570703
vn -0.49200153 0.7459378 -0.44890007
vn -0.46025944 0.7776798 -0.42822355
vn -0.015871048 0.015871048 0.99974805
vn -0.39677536 0.7141957 -0.5766227
vn -0.42851746 0.7141957 -0.5534413
vn -0.3332913 0.87290585 -0.35630366
vn -0.42851746 0.7141957 -0.5534413
vn 0.7459377 0.015871048 0.66582656
vn 0.7459377 0.015871048 0.66582656
vn -0.3650334 0.8094218 -0.45998588
vn 0.7459377 0.015871048 0.66582656
vn -0.2684583 0.96329135 -0
vn 0.7459377 0.015871048 0.66582656
vn -0.7459378 0.015871048 -0.66582644
vn -0.7459378 0.015871048 -0.66582644
vn -0.7459378 0.015871048 -0.66582644
vn -0.26980734 0.9363899 -0.22445023
vn -0.7459378 0.015871048 -0.66582644
vn -0.23806524 0.968132 0.07775179
vn -0.7459378 0.015871048 -0.66582644
vn -0.2684583 0.96329135 -0
vn -0.20632327 0.968132 -0.1419547
vn 0.7459377 0.015871048 0.66582656
vn -0.23806524 0.9363899 -0.25787365
vn -0.7459378 0.015871048 -0.66582644
vn -0.23806524 0.9363899 -0.25787365
vn -0.39677536 0.87290585 -0.28390962
vn -0.7459378 0.015871048 -0.66582644
vn -0.42851746 0.8411639 -0.32987285
vn 0.7459377 0.015871048 0.66582656
vn -0.42851746 0.8411639 -0.32987285
vn -0.3332913 0.87290585 0.35630366
vn -0.7459378 0.015871048 -0.66582644
vn -0.30154932 0.90464795 0.3011313
vn -0.26980734 0.9363899 0.22445023
vn 0.7459377 0.015871048 0.66582656
vn -0.3332913 0.9363899 0.10995819
vn 0.7459377 0.015871048 0.66582656
vn -0.3332913 0.9363899 0.10995819
vn -0.7459378 0.015871048 -0.66582644
vn -0.30154932 0.9363899 0.17956024
vn -0.39677536 0.90464795 -0.15550359
vn -0.46025944 0.87290585 -0.16185382
vn 0.7459377 0.015871048 0.66582656
vn -0.39677536 0.90464795 -0.15550359
vn -0.7459378 0.015871048 -0.66582644
vn -0.23806524 0.968132 0.07775179
vn 0.7459377 0.015871048 0.66582656
vn -0.20632327 0.968132 0.1419547
vn -0.7459378 0.015871048 -0.66582644
vn -0.20632327 0.968132 0.1419547
vn -0.23806524 0.968132 0.07775179
vn 0.7459377 0.015871048 0.66582656
vn -0.23806524 0.968132 0.07775179
vn -0.7459378 0.015871048 -0.66582644
vn -0.23806524 0.968132 0.07775179
vn -0.17458117 0.968132 0.17956008
vn -0.1428392 0.968132 -0.20571192
vn 0.7459377 0.015871048 0.66582656
vn -0.3332913 0.9363899 0.10995819
vn -0.7459378 0.015871048 -0.66582644
vn 0.39677536 0.68245375 0.6138617
vn 0.7459377 0.015871048 0.66582656
vn 0.33329135 0.6189697 0.71119153
vn -0.7459378 0.015871048 -0.66582644
vn 0.015870988 0.7776798 0.6284602
vn 0.015870988 0.7141957 0.6997661
vn 0.39677536 0.5872276 0.705502
vn -0.1428392 0.68245375 0.716836
vn 0.7459377 0.015871048 0.66582656
vn -0.015871048 0.015871048 -0.99974805
vn -0.015871048 0.015871048 -0.99974805
vn -0.04756513 0.99886817 -0
vn -0.015871048 0.015871048 -0.99974805
vn -0.04756513 0.99886817 -0
vn -0.015871048 0.015871048 -0.99974805
vn -0.04756513 0.99886817 -0
vn -0.04756513 0.99886817 -0
vn -0.04756513 0.99886817 -0
vn -0.015871048 0.015871048 0.99974805
vn -0.015871048 0.015871048 0.99974805
vn -0.04756513 0.99886817 -0
vn -0.015871048 0.015871048 0.99974805
vn -0.04756513 0.99886817 -0
vn -0.015871048 0.015871048 -0.99974805
vn -0.04756513 0.99886817 -0
vn -0.015871048 0.999874 -0.00034526698
vn -0.015871048 0.015871048 -0.99974805
vn -0.015871048 0.999874 -0.00034526698
vn -0.015871048 0.015871048 0.99974805
vn -0.015871048 0.999874 -0.00034526698
vn -0.015871048 0.999874 -0.00034526698
vn -0.015871048 0.015871048 0.99974805
vn -0.015871048 0.999874 -0.00034526698
vn -0.015871048 0.015871048 -0.99974805
vn -0.015871048 0.999874 -0.00034526698
vn -0.14142141 0.98994946 -0
vn -0.015871048 0.015871048 -0.99974805
vn -0.14142141 0.98994946 -0
vn -0.015871048 0.015871048 0.99974805
vn -0.14142141 0.98994946 -0
vn -0.20632327 0.968132 0.1419547
vn -0.015871048 0.015871048 0.99974805
vn -0.20632327 0.968132 0.1419547
vn -0.015871048 0.015871048 -0.99974805
vn -0.20632327 0.968132 0.1419547
vn -0.20632327 0.968132 0.1419547
vn -0.20632327 0.968132 0.1419547
vn -0.20632327 0.968132 0.1419547
vn -0.015871048 0.015871048 0.99974805
vn 0.99886817 -0.04756513 -0
vn 0.99886817 -0.04756513 -0
vn 0.99886817 -0.04756513 -0
vn 0.99886817 -0.04756513 -0
vn -0.96329135 0.2684583 -0
vn -0.015871048 0.999874 -0.00034526698
vn -0.015871048 0.999874 -0.00034526698
vn -0.96329135 0.2684583 -0
vn -0.98994946 -0.14142135 -0
vn -0.98994946 -0.14142135 -0
vn -0.98994946 -0.14142135 -0
vn -0.96329135 0.2684583 -0
vn -0.015871048 0.999874 -0.00034526698
g tb_geo_outline_10_mesh_0
f 3/3/3 2/2/2 1/1/1
f 2/2/2 4/4/4 1/1/1
f 4/4/4 2/2/2 5/5/5
f 2/2/2 6/6/6 5/5/5
f 5/5/5 6/6/6 7/7/7
f 8/8/8 5/5/5 7/7/7
f 9/9/9 5/5/5 8/8/8
f 5/5/5 9/9/9 4/4/4
f 10/10/10 9/9/9 8/8/8
f 4/4/4 11/11/11 1/1/1
f 9/9/9 11/11/11 4/4/4
f 12/12/12 9/9/9 10/10/10
f 13/13/13 12/12/12 10/10/10
f 14/14/14 11/11/11 9/9/9
f 12/12/12 14/14/14 9/9/9
f 11/11/11 15/15/15 1/1/1
f 15/15/15 11/11/11 14/14/14
f 1/1/1 15/15/15 16/16/16
f 17/17/17 1/1/1 16/16/16
f 16/16/16 15/15/15 18/18/18
f 15/15/15 19/19/19 18/18/18
f 19/19/19 15/15/15 14/14/14
f 14/14/14 12/12/12 20/20/20
f 14/14/14 20/20/20 19/19/19
f 12/12/12 21/21/21 20/20/20
f 21/21/21 12/12/12 22/22/22
f 23/23/23 21/21/21 22/22/22
f 24/24/24 21/21/21 23/23/23
f 25/25/25 24/24/24 23/23/23
f 26/26/26 24/24/24 25/25/25
f 27/27/27 26/26/26 25/25/25
f 28/28/28 26/26/26 27/27/27
f 29/29/29 28/28/28 27/27/27
f 30/30/30 28/28/28 29/29/29
f 31/31/31 30/30/30 29/29/29
f 21/21/21 24/24/24 32/32/32
f 20/20/20 21/21/21 32/32/32
f 24/24/24 33/33/33 32/32/32
f 33/33/33 34/34/34 32/32/32
f 33/33/33 35/35/35 34/34/34
f 35/35/35 36/36/36 34/34/34
f 35/35/35 37/37/37 36/36/36
f 37/37/37 38/38/38 36/36/36
f 37/37/37 39/39/39 38/38/38
f 39/39/39 40/40/40 38/38/38
f 39/39/39 41/41/41 40/40/40
f 41/41/41 42/42/42 40/40/40
f 20/20/20 32/32/32 43/43/43
f 43/43/43 32/32/32 44/44/44
f 45/45/45 43/43/43 44/44/44
f 45/45/45 44/44/44 46/46/46
f 47/47/47 45/45/45 46/46/46
f 47/47/47 46/46/46 48/48/48
f 49/49/49 47/47/47 48/48/48
f 49/49/49 48/48/48 50/50/50
f 51/51/51 49/49/49 50/50/50
f 51/51/51 50/50/50 42/42/42
f 52/52/52 51/51/51 42/42/42
f 53/53/53 20/20/20 43/43/43
f 20/20/20 53/53/53 19/19/19
f 19/19/19 53/53/53 54/54/54
f 55/55/55 19/19/19 54/54/54
f 54/54/54 53/53/53 56/56/56
f 53/53/53 43/43/43 56/56/56
f 56/56/56 43/43/43 57/57/57
f 43/43/43 58/58/58 57/57/57
f 57/57/57 58/58/58 59/59/59
f 58/58/58 60/60/60 59/59/59
f 59/59/59 60/60/60 61/61/61
f 60/60/60 62/62/62 61/61/61
f 61/61/61 62/62/62 63/63/63
f 62/62/62 64/64/64 63/63/63
f 64/64/64 65/65/65 63/63/63
f 64/64/64 52/52/52 65/65/65
f 65/65/65 52/52/52 66/66/66
f 52/52/52 67/67/67 66/66/66
f 66/66/66 67/67/67 68/68/68
f 52/52/52 42/42/42 67/67/67
f 67/67/67 69/69/69 68/68/68
f 70/70/70 69/69/69 67/67/67
f 68/68/68 69/69/69 71/71/71
f 69/69/69 72/72/72 71/71/71
f 72/72/72 69/69/69 70/70/70
f 42/42/42 73/73/73 67/67/67
f 73/73/73 70/70/70 67/67/67
f 73/73/73 42/42/42 74/74/74
f 73/73/73 74/74/74 70/70/70
f 42/42/42 41/41/41 74/74/74
f 74/74/74 41/41/41 75/75/75
f 75/75/75 41/41/41 76/76/76
f 41/41/41 77/77/77 76/76/76
f 78/78/78 74/74/74 75/75/75
f 79/79/79 74/74/74 78/78/78
f 74/74/74 79/79/79 70/70/70
f 80/80/80 79/79/79 78/78/78
f 81/81/81 79/79/79 80/80/80
f 70/70/70 79/79/79 81/81/81
f 82/82/82 81/81/81 80/80/80
f 83/83/83 72/72/72 70/70/70
f 83/83/83 70/70/70 81/81/81
f 72/72/72 83/83/83 84/84/84
f 72/72/72 84/84/84 85/85/85
f 86/86/86 72/72/72 85/85/85
f 83/83/83 81/81/81 87/87/87
f 83/83/83 87/87/87 84/84/84
f 81/81/81 88/88/88 87/87/87
f 88/88/88 81/81/81 89/89/89
f 90/90/90 88/88/88 89/89/89
f 88/88/88 91/91/91 87/87/87
f 91/91/91 88/88/88 92/92/92
f 93/93/93 91/91/91 92/92/92
f 87/87/87 94/94/94 84/84/84
f 91/91/91 94/94/94 87/87/87
f 95/95/95 91/91/91 93/93/93
f 96/96/96 95/95/95 93/93/93
f 94/94/94 91/91/91 97/97/97
f 91/91/91 95/95/95 97/97/97
f 98/98/98 95/95/95 96/96/96
f 95/95/95 98/98/98 97/97/97
f 99/99/99 98/98/98 96/96/96
f 94/94/94 100/100/100 84/84/84
f 100/100/100 94/94/94 97/97/97
f 101/101/101 98/98/98 99/99/99
f 102/102/102 101/101/101 99/99/99
f 84/84/84 100/100/100 103/103/103
f 104/104/104 84/84/84 103/103/103
f 103/103/103 100/100/100 105/105/105
f 100/100/100 106/106/106 105/105/105
f 106/106/106 100/100/100 97/97/97
f 105/105/105 106/106/106 107/107/107
f 98/98/98 108/108/108 97/97/97
f 106/106/106 97/97/97 108/108/108
f 98/98/98 101/101/101 108/108/108
f 106/106/106 109/109/109 107/107/107
f 109/109/109 106/106/106 108/108/108
f 107/107/107 109/109/109 110/110/110
f 111/111/111 101/101/101 102/102/102
f 112/112/112 111/111/111 102/102/102
f 101/101/101 113/113/113 108/108/108
f 109/109/109 108/108/108 113/113/113
f 101/101/101 111/111/111 113/113/113
f 109/109/109 114/114/114 110/110/110
f 114/114/114 109/109/109 113/113/113
f 110/110/110 114/114/114 115/115/115
f 114/114/114 116/116/116 115/115/115
f 114/114/114 113/113/113 116/116/116
f 115/115/115 116/116/116 117/117/117
f 118/118/118 111/111/111 112/112/112
f 119/119/119 118/118/118 112/112/112
f 111/111/111 120/120/120 113/113/113
f 113/113/113 120/120/120 116/116/116
f 120/120/120 111/111/111 118/118/118
f 116/116/116 121/121/121 117/117/117
f 117/117/117 121/121/121 122/122/122
f 116/116/116 120/120/120 123/123/123
f 123/123/123 120/120/120 118/118/118
f 121/121/121 116/116/116 123/123/123
f 124/124/124 118/118/118 119/119/119
f 118/118/118 124/124/124 123/123/123
f 125/125/125 124/124/124 119/119/119
f 121/121/121 126/126/126 122/122/122
f 121/121/121 123/123/123 126/126/126
f 122/122/122 126/126/126 127/127/127
f 126/126/126 128/128/128 127/127/127
f 124/124/124 129/129/129 123/123/123
f 123/123/123 129/129/129 126/126/126
f 130/130/130 124/124/124 125/125/125
f 129/129/129 124/124/124 130/130/130
f 131/131/131 130/130/130 125/125/125
f 126/126/126 129/129/129 132/132/132
f 132/132/132 129/129/129 130/130/130
f 128/128/128 126/126/126 132/132/132
f 130/130/130 133/133/133 132/132/132
f 133/133/133 130/130/130 134/134/134
f 135/135/135 133/133/133 134/134/134
f 136/136/136 133/133/133 135/135/135
f 137/137/137 136/136/136 135/135/135
f 133/133/133 138/138/138 132/132/132
f 133/133/133 136/136/136 138/138/138
f 128/128/128 132/132/132 139/139/139
f 132/132/132 138/138/138 139/139/139
f 140/140/140 136/136/136 137/137/137
f 141/141/141 140/140/140 137/137/137
f 142/142/142 140/140/140 141/141/141
f 143/143/143 142/142/142 141/141/141
f 128/128/128 139/139/139 144/144/144
f 145/145/145 128/128/128 144/144/144
f 144/144/144 139/139/139 146/146/146
f 139/139/139 147/147/147 146/146/146
f 139/139/139 138/138/138 147/147/147
f 146/146/146 147/147/147 148/148/148
f 136/136/136 149/149/149 138/138/138
f 138/138/138 149/149/149 147/147/147
f 150/150/150 149/149/149 136/136/136
f 149/149/149 150/150/150 147/147/147
f 151/151/151 150/150/150 136/136/136
f 151/151/151 142/142/142 150/150/150
f 147/147/147 152/152/152 148/148/148
f 148/148/148 152/152/152 153/153/153
f 152/152/152 154/154/154 153/153/153
f 150/150/150 155/155/155 147/147/147
f 153/153/153 154/154/154 156/156/156
f 150/150/150 157/157/157 155/155/155
f 142/142/142 157/157/157 150/150/150
f 157/157/157 154/154/154 155/155/155
f 154/154/154 158/158/158 156/156/156
f 156/156/156 158/158/158 159/159/159
f 158/158/158 160/160/160 159/159/159
f 159/159/159 160/160/160 161/161/161
f 157/157/157 162/162/162 154/154/154
f 162/162/162 163/163/163 154/154/154
f 162/162/162 164/164/164 163/163/163
f 164/164/164 160/160/160 163/163/163
f 165/165/165 157/157/157 142/142/142
f 166/166/166 165/165/165 142/142/142
f 166/166/166 167/167/167 165/165/165
f 167/167/167 164/164/164 165/165/165
f 160/160/160 168/168/168 161/161/161
f 161/161/161 168/168/168 169/169/169
f 164/164/164 170/170/170 160/160/160
f 170/170/170 164/164/164 167/167/167
f 170/170/170 168/168/168 160/160/160
f 168/168/168 171/171/171 169/169/169
f 169/169/169 171/171/171 172/172/172
f 171/171/171 173/173/173 172/172/172
f 172/172/172 173/173/173 174/174/174
f 168/168/168 170/170/170 175/175/175
f 176/176/176 168/168/168 175/175/175
f 176/176/176 175/175/175 177/177/177
f 173/173/173 176/176/176 177/177/177
f 173/173/173 178/178/178 174/174/174
f 173/173/173 177/177/177 178/178/178
f 174/174/174 178/178/178 179/179/179
f 178/178/178 180/180/180 179/179/179
f 179/179/179 180/180/180 181/181/181
f 180/180/180 182/182/182 181/181/181
f 181/181/181 182/182/182 183/183/183
f 182/182/182 184/184/184 183/183/183
f 183/183/183 184/184/184 185/185/185
f 184/184/184 186/186/186 185/185/185
f 185/185/185 186/186/186 187/187/187
f 186/186/186 188/188/188 187/187/187
f 187/187/187 188/188/188 189/189/189
f 188/188/188 190/190/190 189/189/189
f 177/177/177 191/191/191 178/178/178
f 180/180/180 178/178/178 192/192/192
f 178/178/178 191/191/191 192/192/192
f 182/182/182 180/180/180 193/193/193
f 180/180/180 192/192/192 193/193/193
f 177/177/177 194/194/194 191/191/191
f 194/194/194 177/177/177 195/195/195
f 196/196/196 194/194/194 195/195/195
f 196/196/196 195/195/195 170/170/170
f 197/197/197 196/196/196 170/170/170
f 197/197/197 170/170/170 167/167/167
f 182/182/182 193/193/193 198/198/198
f 199/199/199 182/182/182 198/198/198
f 199/199/199 198/198/198 200/200/200
f 201/201/201 199/199/199 200/200/200
f 201/201/201 200/200/200 202/202/202
f 203/203/203 201/201/201 202/202/202
f 203/203/203 202/202/202 190/190/190
f 202/202/202 204/204/204 190/190/190
f 197/197/197 167/167/167 205/205/205
f 205/205/205 167/167/167 206/206/206
f 207/207/207 197/197/197 205/205/205
f 167/167/167 208/208/208 206/206/206
f 206/206/206 208/208/208 143/143/143
f 208/208/208 142/142/142 143/143/143
f 209/209/209 197/197/197 207/207/207
f 210/210/210 209/209/209 207/207/207
f 194/194/194 209/209/209 210/210/210
f 211/211/211 194/194/194 210/210/210
f 212/212/212 194/194/194 211/211/211
f 213/213/213 212/212/212 211/211/211
f 194/194/194 212/212/212 191/191/191
f 214/214/214 212/212/212 213/213/213
f 212/212/212 214/214/214 191/191/191
f 215/215/215 214/214/214 213/213/213
f 214/214/214 192/192/192 191/191/191
f 216/216/216 214/214/214 215/215/215
f 214/214/214 216/216/216 192/192/192
f 217/217/217 216/216/216 215/215/215
f 216/216/216 193/193/193 192/192/192
f 218/218/218 216/216/216 217/217/217
f 216/216/216 219/219/219 193/193/193
f 220/220/220 218/218/218 217/217/217
f 219/219/219 198/198/198 193/193/193
f 221/221/221 218/218/218 220/220/220
f 219/219/219 222/222/222 198/198/198
f 223/223/223 221/221/221 220/220/220
f 222/222/222 200/200/200 198/198/198
f 224/224/224 221/221/221 223/223/223
f 222/222/222 225/225/225 200/200/200
f 226/226/226 224/224/224 223/223/223
f 227/227/227 224/224/224 226/226/226
f 228/228/228 227/227/227 226/226/226
f 225/225/225 229/229/229 200/200/200
f 225/225/225 227/227/227 229/229/229
f 227/227/227 204/204/204 229/229/229
f 204/204/204 227/227/227 230/230/230
f 204/204/204 230/230/230 190/190/190
f 227/227/227 231/231/231 230/230/230
f 232/232/232 231/231/231 227/227/227
f 233/233/233 232/232/232 227/227/227
f 230/230/230 231/231/231 234/234/234
f 234/234/234 231/231/231 235/235/235
f 236/236/236 234/234/234 235/235/235
f 237/237/237 234/234/234 236/236/236
f 238/238/238 237/237/237 236/236/236
f 239/239/239 230/230/230 234/234/234
f 239/239/239 234/234/234 237/237/237
f 230/230/230 240/240/240 190/190/190
f 240/240/240 230/230/230 239/239/239
f 240/240/240 241/241/241 190/190/190
f 241/241/241 242/242/242 190/190/190
f 243/243/243 237/237/237 238/238/238
f 243/243/243 244/244/244 237/237/237
f 245/245/245 243/243/243 238/238/238
f 246/246/246 243/243/243 245/245/245
f 244/244/244 243/243/243 246/246/246
f 247/247/247 246/246/246 245/245/245
f 248/248/248 246/246/246 247/247/247
f 249/249/249 248/248/248 247/247/247
f 250/250/250 249/249/249 247/247/247
f 250/250/250 251/251/251 249/249/249
f 251/251/251 252/252/252 249/249/249
f 253/253/253 251/251/251 250/250/250
f 254/254/254 253/253/253 250/250/250
f 255/255/255 253/253/253 254/254/254
f 256/256/256 255/255/255 254/254/254
f 244/244/244 257/257/257 237/237/237
f 257/257/257 239/239/239 237/237/237
f 239/239/239 257/257/257 258/258/258
f 257/257/257 244/244/244 258/258/258
f 259/259/259 255/255/255 256/256/256
f 259/259/259 260/260/260 255/255/255
f 261/261/261 259/259/259 256/256/256
f 262/262/262 259/259/259 261/261/261
f 263/263/263 262/262/262 261/261/261
f 264/264/264 262/262/262 263/263/263
f 265/265/265 264/264/264 263/263/263
f 266/266/266 264/264/264 265/265/265
f 267/267/267 266/266/266 265/265/265
f 259/259/259 268/268/268 260/260/260
f 268/268/268 269/269/269 260/260/260
f 268/268/268 270/270/270 269/269/269
f 270/270/270 271/271/271 269/269/269
f 270/270/270 266/266/266 271/271/271
f 266/266/266 272/272/272 271/271/271
f 260/260/260 273/273/273 255/255/255
f 273/273/273 274/274/274 255/255/255
f 274/274/274 275/275/275 255/255/255
f 274/274/274 276/276/276 275/275/275
f 276/276/276 251/251/251 275/275/275
f 251/251/251 276/276/276 277/277/277
f 278/278/278 251/251/251 277/277/277
f 279/279/279 277/277/277 276/276/276
f 280/280/280 279/279/279 276/276/276
f 280/280/280 276/276/276 281/281/281
f 281/281/281 273/273/273 282/282/282
f 273/273/273 260/260/260 282/282/282
f 283/283/283 280/280/280 281/281/281
f 283/283/283 281/281/281 282/282/282
f 260/260/260 284/284/284 282/282/282
f 285/285/285 284/284/284 260/260/260
f 286/286/286 285/285/285 260/260/260
f 286/286/286 287/287/287 285/285/285
f 287/287/287 288/288/288 285/285/285
f 287/287/287 272/272/272 288/288/288
f 272/272/272 289/289/289 288/288/288
f 282/282/282 284/284/284 290/290/290
f 291/291/291 282/282/282 290/290/290
f 290/290/290 284/284/284 292/292/292
f 293/293/293 282/282/282 291/291/291
f 284/284/284 294/294/294 292/292/292
f 295/295/295 293/293/293 291/291/291
f 292/292/292 294/294/294 296/296/296
f 280/280/280 293/293/293 295/295/295
f 294/294/294 297/297/297 296/296/296
f 297/297/297 289/289/289 298/298/298
f 296/296/296 297/297/297 298/298/298
f 299/299/299 280/280/280 295/295/295
f 300/300/300 280/280/280 299/299/299
f 301/301/301 300/300/300 299/299/299
f 301/301/301 302/302/302 300/300/300
f 301/301/301 303/303/303 302/302/302
f 303/303/303 304/304/304 302/302/302
f 305/305/305 303/303/303 301/301/301
f 306/306/306 305/305/305 301/301/301
f 258/258/258 305/305/305 306/306/306
f 307/307/307 258/258/258 306/306/306
f 244/244/244 305/305/305 258/258/258
f 303/303/303 305/305/305 244/244/244
f 308/308/308 258/258/258 307/307/307
f 308/308/308 239/239/239 258/258/258
f 309/309/309 308/308/308 307/307/307
f 308/308/308 240/240/240 239/239/239
f 240/240/240 308/308/308 309/309/309
f 310/310/310 240/240/240 309/309/309
f 311/311/311 303/303/303 244/244/244
f 311/311/311 244/244/244 246/246/246
f 303/303/303 311/311/311 312/312/312
f 312/312/312 311/311/311 246/246/246
f 313/313/313 303/303/303 312/312/312
f 314/314/314 312/312/312 246/246/246
f 316/316/316 315/315/315 17/17/17
f 317/317/317 316/316/316 17/17/17
f 320/320/320 319/319/319 318/318/318
f 319/319/319 321/321/321 318/318/318
f 318/318/318 321/321/321 322/322/322
f 321/321/321 323/323/323 322/322/322
f 321/321/321 319/319/319 324/324/324
f 323/323/323 321/321/321 324/324/324
f 319/319/319 325/325/325 324/324/324
f 324/324/324 325/325/325 326/326/326
f 327/327/327 323/323/323 324/324/324
f 327/327/327 324/324/324 326/326/326
f 319/319/319 328/328/328 325/325/325
f 328/328/328 319/319/319 329/329/329
f 330/330/330 328/328/328 329/329/329
f 331/331/331 328/328/328 330/330/330
f 332/332/332 331/331/331 330/330/330
f 333/333/333 331/331/331 332/332/332
f 334/334/334 333/333/333 332/332/332
f 335/335/335 333/333/333 334/334/334
f 336/336/336 335/335/335 334/334/334
f 331/331/331 333/333/333 337/337/337
f 337/337/337 333/333/333 335/335/335
f 331/331/331 338/338/338 328/328/328
f 338/338/338 331/331/331 337/337/337
f 328/328/328 339/339/339 325/325/325
f 338/338/338 339/339/339 328/328/328
f 340/340/340 335/335/335 336/336/336
f 341/341/341 340/340/340 336/336/336
f 342/342/342 325/325/325 339/339/339
f 325/325/325 342/342/342 326/326/326
f 343/343/343 340/340/340 341/341/341
f 344/344/344 343/343/343 341/341/341
f 326/326/326 342/342/342 345/345/345
f 346/346/346 326/326/326 345/345/345
f 347/347/347 343/343/343 344/344/344
f 347/347/347 348/348/348 343/343/343
f 349/349/349 347/347/347 344/344/344
f 350/350/350 347/347/347 349/349/349
f 347/347/347 350/350/350 348/348/348
f 351/351/351 350/350/350 349/349/349
f 343/343/343 352/352/352 340/340/340
f 348/348/348 352/352/352 343/343/343
f 353/353/353 350/350/350 351/351/351
f 354/354/354 353/353/353 351/351/351
f 352/352/352 355/355/355 340/340/340
f 340/340/340 355/355/355 335/335/335
f 350/350/350 356/356/356 348/348/348
f 356/356/356 350/350/350 353/353/353
f 357/357/357 353/353/353 354/354/354
f 358/358/358 357/357/357 354/354/354
f 355/355/355 359/359/359 335/335/335
f 359/359/359 337/337/337 335/335/335
f 360/360/360 337/337/337 359/359/359
f 338/338/338 337/337/337 360/360/360
f 361/361/361 359/359/359 355/355/355
f 361/361/361 360/360/360 359/359/359
f 355/355/355 352/352/352 362/362/362
f 362/362/362 361/361/361 355/355/355
f 352/352/352 348/348/348 363/363/363
f 352/352/352 363/363/363 362/362/362
f 364/364/364 356/356/356 353/353/353
f 364/364/364 353/353/353 357/357/357
f 365/365/365 357/357/357 358/358/358
f 366/366/366 365/365/365 358/358/358
f 367/367/367 338/338/338 360/360/360
f 338/338/338 367/367/367 339/339/339
f 368/368/368 364/364/364 357/357/357
f 357/357/357 365/365/365 368/368/368
f 369/369/369 365/365/365 366/366/366
f 370/370/370 369/369/369 366/366/366
f 367/367/367 371/371/371 339/339/339
f 371/371/371 342/342/342 339/339/339
f 342/342/342 371/371/371 372/372/372
f 373/373/373 342/342/342 372/372/372
f 372/372/372 371/371/371 374/374/374
f 371/371/371 367/367/367 374/374/374
f 374/374/374 367/367/367 375/375/375
f 367/367/367 360/360/360 375/375/375
f 375/375/375 360/360/360 376/376/376
f 360/360/360 361/361/361 376/376/376
f 376/376/376 361/361/361 377/377/377
f 361/361/361 362/362/362 377/377/377
f 377/377/377 362/362/362 378/378/378
f 362/362/362 363/363/363 378/378/378
f 378/378/378 363/363/363 379/379/379
f 363/363/363 380/380/380 379/379/379
f 379/379/379 380/380/380 381/381/381
f 348/348/348 380/380/380 363/363/363
f 380/380/380 382/382/382 381/381/381
f 382/382/382 380/380/380 348/348/348
f 381/381/381 382/382/382 383/383/383
f 356/356/356 382/382/382 348/348/348
f 382/382/382 384/384/384 383/383/383
f 382/382/382 356/356/356 384/384/384
f 383/383/383 384/384/384 385/385/385
f 356/356/356 364/364/364 384/384/384
f 384/384/384 386/386/386 385/385/385
f 386/386/386 384/384/384 364/364/364
f 385/385/385 386/386/386 387/387/387
f 368/368/368 386/386/386 364/364/364
f 386/386/386 388/388/388 387/387/387
f 388/388/388 386/386/386 368/368/368
f 387/387/387 388/388/388 389/389/389
f 390/390/390 388/388/388 368/368/368
f 365/365/365 390/390/390 368/368/368
f 390/390/390 365/365/365 369/369/369
f 388/388/388 391/391/391 389/389/389
f 391/391/391 388/388/388 390/390/390
f 389/389/389 391/391/391 392/392/392
f 391/391/391 393/393/393 392/392/392
f 394/394/394 391/391/391 390/390/390
f 394/394/394 390/390/390 369/369/369
f 393/393/393 391/391/391 394/394/394
f 394/394/394 369/369/369 395/395/395
f 395/395/395 393/393/393 394/394/394
f 369/369/369 396/396/396 395/395/395
f 396/396/396 369/369/369 370/370/370
f 397/397/397 396/396/396 370/370/370
f 395/395/395 396/396/396 398/398/398
f 398/398/398 396/396/396 399/399/399
f 400/400/400 398/398/398 399/399/399
f 401/401/401 398/398/398 400/400/400
f 402/402/402 401/401/401 400/400/400
f 403/403/403 395/395/395 398/398/398
f 398/398/398 401/401/401 403/403/403
f 404/404/404 393/393/393 395/395/395
f 403/403/403 404/404/404 395/395/395
f 405/405/405 401/401/401 402/402/402
f 406/406/406 405/405/405 402/402/402
f 401/401/401 407/407/407 403/403/403
f 403/403/403 407/407/407 404/404/404
f 407/407/407 401/401/401 405/405/405
f 393/393/393 404/404/404 408/408/408
f 409/409/409 393/393/393 408/408/408
f 408/408/408 404/404/404 410/410/410
f 404/404/404 411/411/411 410/410/410
f 407/407/407 411/411/411 404/404/404
f 410/410/410 411/411/411 412/412/412
f 411/411/411 413/413/413 412/412/412
f 413/413/413 411/411/411 407/407/407
f 414/414/414 407/407/407 405/405/405
f 414/414/414 413/413/413 407/407/407
f 405/405/405 415/415/415 414/414/414
f 415/415/415 405/405/405 416/416/416
f 417/417/417 415/415/415 416/416/416
f 418/418/418 415/415/415 417/417/417
f 419/419/419 418/418/418 417/417/417
f 420/420/420 418/418/418 419/419/419
f 420/420/420 421/421/421 418/418/418
f 422/422/422 420/420/420 419/419/419
f 423/423/423 420/420/420 422/422/422
f 420/420/420 423/423/423 421/421/421
f 424/424/424 423/423/423 422/422/422
f 418/418/418 425/425/425 415/415/415
f 421/421/421 425/425/425 418/418/418
f 415/415/415 426/426/426 414/414/414
f 425/425/425 426/426/426 415/415/415
f 414/414/414 426/426/426 427/427/427
f 413/413/413 414/414/414 427/427/427
f 427/427/427 426/426/426 425/425/425
f 413/413/413 427/427/427 428/428/428
f 429/429/429 413/413/413 428/428/428
f 428/428/428 427/427/427 430/430/430
f 431/431/431 427/427/427 425/425/425
f 427/427/427 431/431/431 430/430/430
f 431/431/431 425/425/425 421/421/421
f 430/430/430 431/431/431 432/432/432
f 431/431/431 433/433/433 432/432/432
f 433/433/433 431/431/431 421/421/421
f 432/432/432 433/433/433 434/434/434
f 433/433/433 435/435/435 434/434/434
f 435/435/435 433/433/433 421/421/421
f 434/434/434 435/435/435 436/436/436
f 435/435/435 437/437/437 436/436/436
f 437/437/437 435/435/435 438/438/438
f 439/439/439 435/435/435 421/421/421
f 435/435/435 439/439/439 438/438/438
f 423/423/423 439/439/439 421/421/421
f 438/438/438 439/439/439 423/423/423
f 440/440/440 438/438/438 423/423/423
f 440/440/440 423/423/423 424/424/424
f 441/441/441 440/440/440 424/424/424
f 438/438/438 440/440/440 442/442/442
f 442/442/442 440/440/440 443/443/443
f 444/444/444 442/442/442 443/443/443
f 445/445/445 442/442/442 444/444/444
f 446/446/446 445/445/445 444/444/444
f 447/447/447 438/438/438 442/442/442
f 447/447/447 442/442/442 445/445/445
f 448/448/448 437/437/437 438/438/438
f 447/447/447 448/448/448 438/438/438
f 449/449/449 445/445/445 446/446/446
f 450/450/450 449/449/449 446/446/446
f 437/437/437 448/448/448 451/451/451
f 452/452/452 437/437/437 451/451/451
f 451/451/451 448/448/448 453/453/453
f 448/448/448 454/454/454 453/453/453
f 448/448/448 447/447/447 454/454/454
f 453/453/453 454/454/454 455/455/455
f 456/456/456 447/447/447 445/445/445
f 447/447/447 456/456/456 454/454/454
f 456/456/456 445/445/445 449/449/449
f 454/454/454 457/457/457 455/455/455
f 454/454/454 456/456/456 457/457/457
f 455/455/455 457/457/457 458/458/458
f 459/459/459 449/449/449 450/450/450
f 460/460/460 459/459/459 450/450/450
f 461/461/461 456/456/456 449/449/449
f 456/456/456 461/461/461 457/457/457
f 461/461/461 449/449/449 459/459/459
f 457/457/457 462/462/462 458/458/458
f 457/457/457 461/461/461 462/462/462
f 458/458/458 462/462/462 463/463/463
f 462/462/462 464/464/464 463/463/463
f 461/461/461 465/465/465 462/462/462
f 465/465/465 461/461/461 459/459/459
f 462/462/462 465/465/465 466/466/466
f 466/466/466 465/465/465 459/459/459
f 464/464/464 462/462/462 466/466/466
f 467/467/467 459/459/459 460/460/460
f 467/467/467 466/466/466 459/459/459
f 468/468/468 467/467/467 460/460/460
f 464/464/464 466/466/466 469/469/469
f 466/466/466 467/467/467 470/470/470
f 466/466/466 470/470/470 469/469/469
f 470/470/470 471/471/471 469/469/469
f 467/467/467 472/472/472 470/470/470
f 470/470/470 472/472/472 471/471/471
f 472/472/472 467/467/467 473/473/473
f 474/474/474 472/472/472 473/473/473
f 475/475/475 472/472/472 474/474/474
f 472/472/472 475/475/475 471/471/471
f 476/476/476 475/475/475 474/474/474
f 477/477/477 475/475/475 476/476/476
f 475/475/475 477/477/477 471/471/471
f 478/478/478 477/477/477 476/476/476
f 464/464/464 469/469/469 479/479/479
f 480/480/480 464/464/464 479/479/479
f 479/479/479 469/469/469 481/481/481
f 469/469/469 482/482/482 481/481/481
f 471/471/471 482/482/482 469/469/469
f 481/481/481 482/482/482 483/483/483
f 482/482/482 484/484/484 483/483/483
f 484/484/484 482/482/482 471/471/471
f 483/483/483 484/484/484 485/485/485
f 477/477/477 486/486/486 471/471/471
f 486/486/486 484/484/484 471/471/471
f 487/487/487 477/477/477 478/478/478
f 486/486/486 477/477/477 487/487/487
f 488/488/488 487/487/487 478/478/478
f 484/484/484 489/489/489 485/485/485
f 484/484/484 486/486/486 489/489/489
f 485/485/485 489/489/489 490/490/490
f 486/486/486 491/491/491 489/489/489
f 491/491/491 486/486/486 487/487/487
f 489/489/489 492/492/492 490/490/490
f 489/489/489 491/491/491 492/492/492
f 490/490/490 492/492/492 493/493/493
f 494/494/494 487/487/487 488/488/488
f 495/495/495 494/494/494 488/488/488
f 496/496/496 491/491/491 487/487/487
f 491/491/491 496/496/496 492/492/492
f 494/494/494 496/496/496 487/487/487
f 492/492/492 497/497/497 493/493/493
f 493/493/493 497/497/497 498/498/498
f 496/496/496 499/499/499 492/492/492
f 496/496/496 494/494/494 499/499/499
f 499/499/499 497/497/497 492/492/492
f 500/500/500 494/494/494 495/495/495
f 494/494/494 500/500/500 499/499/499
f 501/501/501 500/500/500 495/495/495
f 502/502/502 500/500/500 501/501/501
f 499/499/499 500/500/500 502/502/502
f 503/503/503 502/502/502 501/501/501
f 497/497/497 504/504/504 498/498/498
f 498/498/498 504/504/504 505/505/505
f 499/499/499 506/506/506 497/497/497
f 506/506/506 499/499/499 502/502/502
f 506/506/506 504/504/504 497/497/497
f 506/506/506 502/502/502 507/507/507
f 506/506/506 507/507/507 504/504/504
f 508/508/508 502/502/502 503/503/503
f 502/502/502 508/508/508 507/507/507
f 509/509/509 508/508/508 503/503/503
f 504/504/504 510/510/510 505/505/505
f 507/507/507 510/510/510 504/504/504
f 505/505/505 510/510/510 511/511/511
f 512/512/512 508/508/508 509/509/509
f 508/508/508 512/512/512 507/507/507
f 513/513/513 512/512/512 509/509/509
f 510/510/510 514/514/514 511/511/511
f 514/514/514 510/510/510 507/507/507
f 511/511/511 514/514/514 515/515/515
f 512/512/512 516/516/516 507/507/507
f 516/516/516 514/514/514 507/507/507
f 517/517/517 512/512/512 513/513/513
f 516/516/516 512/512/512 517/517/517
f 518/518/518 517/517/517 513/513/513
f 514/514/514 519/519/519 515/515/515
f 515/515/515 519/519/519 520/520/520
f 516/516/516 521/521/521 514/514/514
f 521/521/521 516/516/516 517/517/517
f 521/521/521 519/519/519 514/514/514
f 521/521/521 517/517/517 522/522/522
f 519/519/519 521/521/521 522/522/522
f 523/523/523 517/517/517 518/518/518
f 517/517/517 523/523/523 522/522/522
f 524/524/524 523/523/523 518/518/518
f 519/519/519 525/525/525 520/520/520
f 525/525/525 519/519/519 522/522/522
f 520/520/520 525/525/525 526/526/526
f 527/527/527 523/523/523 524/524/524
f 522/522/522 523/523/523 527/527/527
f 528/528/528 527/527/527 524/524/524
f 525/525/525 529/529/529 526/526/526
f 525/525/525 522/522/522 529/529/529
f 526/526/526 529/529/529 530/530/530
f 529/529/529 531/531/531 530/530/530
f 532/532/532 531/531/531 529/529/529
f 522/522/522 533/533/533 529/529/529
f 533/533/533 532/532/532 529/529/529
f 533/533/533 522/522/522 527/527/527
f 533/533/533 527/527/527 532/532/532
f 527/527/527 534/534/534 532/532/532
f 534/534/534 527/527/527 528/528/528
f 535/535/535 534/534/534 528/528/528
f 537/537/537 323/323/323 536/536/536
f 323/323/323 538/538/538 536/536/536
f 536/536/536 538/538/538 539/539/539
f 323/323/323 327/327/327 538/538/538
f 538/538/538 540/540/540 539/539/539
f 539/539/539 540/540/540 541/541/541
f 327/327/327 542/542/542 538/538/538
f 542/542/542 327/327/327 326/326/326
f 542/542/542 543/543/543 538/538/538
f 543/543/543 540/540/540 538/538/538
f 542/542/542 326/326/326 544/544/544
f 543/543/543 542/542/542 544/544/544
f 544/544/544 326/326/326 545/545/545
f 546/546/546 544/544/544 545/545/545
f 547/547/547 544/544/544 546/546/546
f 544/544/544 547/547/547 543/543/543
f 548/548/548 547/547/547 546/546/546
f 540/540/540 549/549/549 541/541/541
f 541/541/541 549/549/549 550/550/550
f 540/540/540 543/543/543 551/551/551
f 549/549/549 540/540/540 551/551/551
f 547/547/547 551/551/551 543/543/543
f 549/549/549 552/552/552 550/550/550
f 552/552/552 549/549/549 551/551/551
f 550/550/550 552/552/552 553/553/553
f 554/554/554 547/547/547 548/548/548
f 555/555/555 554/554/554 548/548/548
f 551/551/551 547/547/547 556/556/556
f 547/547/547 554/554/554 556/556/556
f 556/556/556 552/552/552 551/551/551
f 557/557/557 554/554/554 555/555/555
f 554/554/554 557/557/557 556/556/556
f 558/558/558 557/557/557 555/555/555
f 552/552/552 559/559/559 553/553/553
f 553/553/553 559/559/559 560/560/560
f 552/552/552 556/556/556 561/561/561
f 559/559/559 552/552/552 561/561/561
f 557/557/557 561/561/561 556/556/556
f 559/559/559 562/562/562 560/560/560
f 559/559/559 561/561/561 562/562/562
f 560/560/560 562/562/562 563/563/563
f 564/564/564 557/557/557 558/558/558
f 565/565/565 564/564/564 558/558/558
f 566/566/566 561/561/561 557/557/557
f 564/564/564 566/566/566 557/557/557
f 561/561/561 566/566/566 562/562/562
f 567/567/567 564/564/564 565/565/565
f 564/564/564 567/567/567 566/566/566
f 568/568/568 567/567/567 565/565/565
f 562/562/562 569/569/569 563/563/563
f 563/563/563 569/569/569 570/570/570
f 569/569/569 571/571/571 570/570/570
f 562/562/562 566/566/566 572/572/572
f 569/569/569 562/562/562 572/572/572
f 571/571/571 569/569/569 572/572/572
f 567/567/567 572/572/572 566/566/566
f 573/573/573 571/571/571 572/572/572
f 573/573/573 572/572/572 574/574/574
f 572/572/572 567/567/567 574/574/574
f 574/574/574 567/567/567 568/568/568
f 575/575/575 574/574/574 568/568/568
f 578/578/578 577/577/577 576/576/576
f 579/579/579 578/578/578 576/576/576
f 582/582/582 581/581/581 580/580/580
f 583/583/583 582/582/582 580/580/580
f 583/583/583 580/580/580 584/584/584
f 585/585/585 583/583/583 584/584/584
f 585/585/585 586/586/586 583/583/583
f 586/586/586 587/587/587 583/583/583
f 583/583/583 587/587/587 582/582/582
f 587/587/587 588/588/588 582/582/582
