g tb_geo_meeple_p1c1_a_mesh
v 4.519067 1.1348271 1.5953519
v 5.5138054 1.0880768 0.96627194
v 4.914387 1.1266694 1.8606502
v 5.118485 1.0962346 0.70097363
v 3.194167 1.1992211 2.9830186
v 4.7139297 1.1616168 2.4047863
v 3.5783472 1.2361562 3.4130015
v 4.3297496 1.1246817 1.9748034
v 4.0816474 1.119884 1.9498372
v 5.4347043 1.1264977 1.9324329
v 4.585121 1.1747243 2.5931883
v 4.9312305 1.0716574 1.2890817
v 3.5211546 0.80190563 1.7689692
v 4.348791 1.1392603 2.0252569
v 4.0263767 1.1604236 2.3115091
v 3.8435688 0.7807423 1.4827169
vt 0 0
vt 1 1
vt 1 0
vt 0 1
vt 0 0
vt 1 1
vt 1 0
vt 0 1
vt 0 0
vt 1 1
vt 1 0
vt 0 1
vt 0 0
vt 1 1
vt 1 0
vt 0 1
vn 0.03418071 0.9992114 -0.020208012
vn 0.03418071 0.9992114 -0.020208012
vn 0.03418071 0.9992114 -0.020208012
vn 0.03418071 0.9992114 -0.020208012
vn -0.0059054345 0.99674976 -0.080343254
vn -0.0059054345 0.99674976 -0.080343254
vn -0.0059054345 0.99674976 -0.080343254
vn -0.0059054345 0.99674976 -0.080343254
vn -0.0059054773 0.99674976 -0.08034308
vn -0.0059054773 0.99674976 -0.08034308
vn -0.0059054773 0.99674976 -0.08034308
vn -0.0059054773 0.99674976 -0.08034308
vn -0.2564018 0.8989182 -0.35525215
vn -0.2564018 0.8989182 -0.35525215
vn -0.2564018 0.8989182 -0.35525215
vn -0.2564018 0.8989182 -0.35525215
g tb_geo_meeple_p1c1_a_mesh_0
f 3/3/3 2/2/2 1/1/1
f 4/4/4 1/1/1 2/2/2
f 7/7/7 6/6/6 5/5/5
f 8/8/8 5/5/5 6/6/6
f 11/11/11 10/10/10 9/9/9
f 12/12/12 9/9/9 10/10/10
f 15/15/15 14/14/14 13/13/13
f 16/16/16 13/13/13 14/14/14
