g tb_geo_light_section_01_mesh
v 0.43421674 0.17076063 -0.7703152
v 0.6342753 0.17076063 -0.7703152
v 0.44061852 0.17076063 -0.7223011
v 0.43261623 0.17076063 -0.6918922
v 0.45022142 0.17076063 -0.6630838
v 0.4758289 0.17076063 -0.6470791
v 0.48063028 0.17076063 -0.6150697
v 0.48543173 0.17076063 -0.5878617
v 0.5014364 0.17076063 -0.55425185
v 0.5126397 0.17076063 -0.52544343
v 0.5830603 0.17076063 -0.44381952
v 0.5158406 0.16275823 -0.49183357
v 0.5638547 0.16275823 -0.43741763
v 0.6294739 0.17236102 -0.3733989
v 0.5702566 0.16275823 -0.41341054
v 0.57825893 0.14675355 -0.43261623
v 0.6742871 0.17236102 -0.34939182
v 0.85674053 0.17076063 -0.7703152
v 0.56705564 0.13875127 -0.41181016
v 0.5766584 0.117945075 -0.43101573
v 0.7158992 0.17236102 -0.33498764
v 0.8151283 0.17236102 -0.3557937
v 0.84073585 0.17076063 -0.3653965
v 0.79912364 0.17236102 -0.32698524
v 0.779918 0.16435874 -0.31258106
v 0.7094974 0.16275823 -0.31898296
v 0.67108613 0.16275823 -0.32858574
v 0.62467253 0.16115773 -0.3541932
v 0.88714945 0.17076063 -0.3605951
v 0.5766584 0.13074887 -0.40860915
v 0.55585235 0.07633293 -0.41981244
v 0.6166702 0.090737104 -0.3589946
v 0.61346924 0.13555026 -0.3733989
v 0.6150697 0.14195216 -0.36379611
v 0.6150697 0.16275823 -0.366997
v 0.63107437 0.15155494 -0.3733989
v 0.6326749 0.12754798 -0.3733989
v 0.63107437 0.15155494 -0.3733989
v 0.63107437 0.13234937 -0.35739422
v 0.6326749 0.12754798 -0.3733989
v 0.6614833 0.13555026 -0.33498764
v 0.65988284 0.097139 -0.32058334
v 0.67108613 0.16275823 -0.32858574
v 0.6678852 0.12754798 -0.34298992
v 0.6150697 0.09393811 -0.34619093
v 0.5942636 0.06993103 -0.32698524
v 0.5334458 0.05872774 -0.37499928
v 0.65348095 0.06993103 -0.30137777
v 0.50463736 0.049124956 -0.40380776
v 0.70629644 0.06673014 -0.30297828
v 0.4998359 0.06993103 -0.46782655
v 0.4646256 0.03952217 -0.4550228
v 0.5014364 0.063529134 -0.49503452
v 0.56545514 0.117945075 -0.43261623
v 0.5766584 0.117945075 -0.43101573
v 0.57825893 0.14675355 -0.43261623
v 0.51424015 0.11634469 -0.48863262
v 0.5126397 0.11474419 -0.50303686
v 0.51424015 0.14355266 -0.49823546
v 0.5574528 0.14515305 -0.42621434
v 0.5062378 0.14515305 -0.48223078
v 0.5158406 0.16275823 -0.49183357
v 0.5638547 0.16275823 -0.43741763
v 0.5830603 0.17076063 -0.44381952
v 0.44061852 0.17076063 -0.7223011
v 0.43261623 0.17076063 -0.6918922
v 0.43581712 0.11634469 -0.6918922
v 0.44381952 0.11634469 -0.72390157
v 0.43421674 0.17076063 -0.7703152
v 0.43741763 0.11634469 -0.7703152
v 0.40860915 0.06192875 -0.7703152
v 0.41341054 0.06192875 -0.71749973
v 0.40540826 0.060328245 -0.6806889
v 0.3830017 0.03151977 -0.71269834
v 0.3765998 0.029919267 -0.7703152
v 0.37499928 0.03151977 -0.6742871
v 0.45022142 0.17076063 -0.6630838
v 0.43581712 0.11634469 -0.6918922
v 0.43261623 0.17076063 -0.6918922
v 0.4534223 0.11314368 -0.6630838
v 0.4758289 0.17076063 -0.6470791
v 0.43741763 0.060328245 -0.6518805
v 0.40540826 0.060328245 -0.6806889
v 0.39580548 0.03151977 -0.6358758
v 0.37499928 0.03151977 -0.6742871
v 0.42301345 0.029919267 -0.6054669
v 0.4646256 0.060328245 -0.626273
v 0.48063028 0.11314368 -0.6470791
v 0.48223078 0.11314368 -0.6214716
v 0.48063028 0.17076063 -0.6150697
v 0.469427 0.060328245 -0.60706735
v 0.4534223 0.05392635 -0.599065
v 0.49023312 0.11314368 -0.59586406
v 0.48543173 0.17076063 -0.5878617
v 0.50303686 0.1115433 -0.5878617
v 0.4710275 0.057127357 -0.5686561
v 0.46142465 0.060328245 -0.599065
v 0.469427 0.060328245 -0.60706735
v 0.4534223 0.052325845 -0.56065375
v 0.41821206 0.029919267 -0.5430486
v 0.48223078 0.057127357 -0.5462495
v 0.47262794 0.060328245 -0.53824717
v 0.44542003 0.033120275 -0.5014364
v 0.49023312 0.11314368 -0.5462495
v 0.5014364 0.1115433 -0.5574528
v 0.48063028 0.063529134 -0.5174411
v 0.49183357 0.14515305 -0.5462495
v 0.5014364 0.17076063 -0.55425185
v 0.48863262 0.06512964 -0.49663502
v 0.4646256 0.03952217 -0.4550228
v 0.5014364 0.063529134 -0.49503452
v 0.49343407 0.11474419 -0.523843
v 0.49503452 0.14355266 -0.5222425
v 0.5126397 0.17076063 -0.52544343
v 0.5158406 0.16275823 -0.49183357
v 0.5014364 0.11474419 -0.50303686
v 0.5126397 0.11474419 -0.50303686
v 0.51424015 0.14355266 -0.49823546
v 0.50303686 0.14515305 -0.4998359
v 0.3605951 0.03151977 -0.75271004
v 0.3605951 0.029919267 -0.7703152
v 0.3765998 0.029919267 -0.7703152
v 0.3605951 0.033120275 -0.71269834
v 0.3830017 0.03151977 -0.71269834
v 0.3605951 0.033120275 -0.6854903
v 0.37499928 0.03151977 -0.6742871
v 0.3605951 0.03151977 -0.6822894
v 0.3605951 0.033120275 -0.6694856
v 0.3605951 0.036321163 -0.64387816
v 0.39580548 0.03151977 -0.6358758
v 0.3605951 0.033120275 -0.60226595
v 0.3605951 0.033120275 -0.5862613
v 0.42301345 0.029919267 -0.6054669
v 0.3605951 0.033120275 -0.56705564
v 0.41821206 0.029919267 -0.5430486
v 0.3605951 0.03151977 -0.5222425
v 0.38780308 0.03151977 -0.49663502
v 0.40380776 0.03151977 -0.48063028
v 0.44542003 0.033120275 -0.5014364
v 0.42781484 0.036321163 -0.45662326
v 0.4646256 0.03952217 -0.4550228
v 0.4518218 0.037921667 -0.43261623
v 0.48863262 0.047524452 -0.39580548
v 0.50463736 0.049124956 -0.40380776
v 0.5126397 0.055526853 -0.3733989
v 0.5334458 0.05872774 -0.37499928
v 0.52544343 0.05392635 -0.3589946
v 0.5686561 0.060328245 -0.31578195
v 0.5942636 0.06993103 -0.32698524
v 0.5830603 0.05872774 -0.30297828
v 0.65348095 0.06993103 -0.30137777
v 0.5862613 0.033120275 -0.23895943
v 0.5830603 0.033120275 -0.23895943
v 0.5830603 0.033120275 -0.23415804
v 0.5830603 0.033120275 -0.23415804
v 0.6294739 0.028318882 -0.18454349
v 0.67108613 0.026718378 -0.20695007
v 0.70629644 0.06673014 -0.30297828
v 0.6726866 0.026718378 -0.13973033
v 0.7607124 0.03151977 -0.19574678
v 0.6806889 0.026718378 -0.13172805
v 0.7030955 0.028318882 -0.13172805
v 0.7671143 0.03151977 -0.13172805
v 0.79272175 0.03151977 -0.13172805
v 0.7399063 0.06192875 -0.29017448
v 0.73030347 0.063529134 -0.30457866
v 0.8023246 0.057127357 -0.291775
v 0.8327335 0.033120275 -0.18934488
v 0.82793206 0.055526853 -0.30137777
v 0.84073585 0.05392635 -0.30938005
v 0.8679438 0.05392635 -0.30938005
v 0.83913535 0.029919267 -0.13172805
v 0.882348 0.060328245 -0.291775
v 0.9063551 0.045924067 -0.13172805
v 0.9063551 0.045924067 -0.13172805
v 0.9127569 0.05072546 -0.13812995
v 0.9063551 0.063529134 -0.19574678
v 0.9575701 0.06993103 -0.1829431
v 0.9575701 0.07473242 -0.20054817
v 0.90155363 0.06512964 -0.28857398
v 0.9575701 0.07473242 -0.22135437
v 0.9575701 0.07313204 -0.24055994
v 0.9575701 0.07313204 -0.25976562
v 0.9575701 0.07313204 -0.2837726
v 0.73030347 0.09393811 -0.31578195
v 0.73030347 0.063529134 -0.30457866
v 0.70629644 0.0955385 -0.31418157
v 0.73510486 0.11954558 -0.32058334
v 0.67108613 0.13715076 -0.33338714
v 0.6678852 0.12754798 -0.34298992
v 0.67108613 0.16275823 -0.32858574
v 0.7094974 0.16275823 -0.31898296
v 0.71269834 0.13394976 -0.32378435
v 0.7383058 0.12594748 -0.31898296
v 0.779918 0.16435874 -0.31258106
v 0.78311896 0.14515305 -0.31578195
v 0.79912364 0.17236102 -0.32698524
v 0.80392504 0.12754798 -0.32378435
v 0.8151283 0.17236102 -0.3557937
v 0.7431072 0.12434697 -0.30617917
v 0.78311896 0.14515305 -0.31578195
v 0.8183293 0.12274659 -0.3557937
v 0.84073585 0.17076063 -0.3653965
v 0.7399063 0.09233761 -0.30137777
v 0.73030347 0.09393811 -0.31578195
v 0.73030347 0.063529134 -0.30457866
v 0.7399063 0.06192875 -0.29017448
v 0.7911213 0.087536216 -0.30137777
v 0.8023246 0.057127357 -0.291775
v 0.78311896 0.14195216 -0.30297828
v 0.80392504 0.08593571 -0.31578195
v 0.82793206 0.055526853 -0.30137777
v 0.8263316 0.08113432 -0.33498764
v 0.84073585 0.05392635 -0.30938005
v 0.8375349 0.11954558 -0.36379611
v 0.84073585 0.07793343 -0.34298992
v 0.8679438 0.05392635 -0.30938005
v 0.8839485 0.117945075 -0.3589946
v 0.88714945 0.17076063 -0.3605951
v 0.87594616 0.07313204 -0.34138954
v 0.89835274 0.11954558 -0.34298992
v 0.89835274 0.17236102 -0.34459043
v 0.8903504 0.07793343 -0.32058334
v 0.882348 0.060328245 -0.291775
v 0.90155363 0.06512964 -0.28857398
v 0.90955603 0.08913672 -0.29817688
v 0.9127569 0.12274659 -0.32058334
v 0.90955603 0.17236102 -0.31578195
v 0.92075926 0.12434697 -0.30617917
v 0.92235976 0.16275823 -0.30297828
v 0.9575701 0.16916013 -0.31098056
v 0.9575701 0.16115773 -0.30137777
v 0.92235976 0.16275823 -0.30297828
v 0.9575701 0.17076063 -0.31418157
v 0.90955603 0.17236102 -0.31578195
v 0.9575701 0.17076063 -0.32058334
v 0.89835274 0.17236102 -0.34459043
v 0.9575701 0.17076063 -0.34619093
v 0.9575701 0.17076063 -0.35259283
v 0.9575701 0.17076063 -0.38140118
v 0.9575701 0.17076063 -0.42461383
v 0.987979 0.17076063 -0.4534223
v 1.0263903 0.17076063 -0.49183357
v 1.0680025 0.17076063 -0.5334458
v 1.0952104 0.17076063 -0.7703152
v 1.1000118 0.17076063 -0.5638547
v 1.114416 0.17076063 -0.5798594
v 1.1480259 0.17076063 -0.5798594
v 1.2504559 0.17076063 -0.7703152
v 1.1912385 0.16916013 -0.5798594
v 1.2376522 0.17076063 -0.5798594
v 1.2808648 0.17076063 -0.5798594
v 1.3512855 0.18196392 -0.5798594
v 1.4089024 0.17716253 -0.5798594
v 1.455316 0.17076063 -0.60226595
v 1.455316 0.17076063 -0.5798594
v 1.455316 0.17076063 -0.5798594
v 0.92235976 0.16275823 -0.30297828
v 0.9575701 0.16115773 -0.30137777
v 0.9575701 0.12914836 -0.29977727
v 0.9575701 0.12434697 -0.29977727
v 0.9575701 0.12274659 -0.30137777
v 0.9575701 0.12274659 -0.29977727
v 0.92075926 0.12434697 -0.30617917
v 0.9575701 0.09393811 -0.29337537
v 0.90955603 0.08913672 -0.29817688
v 0.90155363 0.06512964 -0.28857398
v 0.9575701 0.08913672 -0.291775
v 0.9575701 0.07313204 -0.2837726
v 0.4710275 0.057127357 -0.5686561
v 0.50303686 0.1115433 -0.5878617
v 0.49183357 0.1115433 -0.575058
v 0.48223078 0.057127357 -0.5462495
v 0.48543173 0.17076063 -0.5878617
v 0.5014364 0.1115433 -0.5574528
v 0.5014364 0.17076063 -0.55425185
vt 0.6362215 0.9938129
vt 0.6947365 0.9938129
vt 0.63947237 0.9694317
vt 0.63784695 0.9531776
vt 0.6410978 0.9385488
vt 0.64759946 0.9271709
vt 0.6492249 0.9092913
vt 0.6508503 0.8930372
vt 0.65410113 0.8735322
vt 0.6573519 0.857278
vt 0.6719807 0.81014097
vt 0.6573519 0.8377731
vt 0.665479 0.80851555
vt 0.68335855 0.77113104
vt 0.67035526 0.7922614
vt 0.6638536 0.7971377
vt 0.6947365 0.7565023
vt 0.7613785 0.9938129
vt 0.6638536 0.78575975
vt 0.65572655 0.78738517
vt 0.704489 0.74674976
vt 0.73374647 0.751626
vt 0.7418735 0.75487685
vt 0.7256194 0.7402481
vt 0.7174923 0.7353719
vt 0.70123816 0.7386227
vt 0.69148564 0.74512434
vt 0.6817332 0.7597531
vt 0.7581277 0.7483752
vt 0.66060275 0.7808835
vt 0.6427232 0.77275646
vt 0.66060275 0.7386227
vt 0.66872984 0.7613785
vt 0.6719807 0.76300395
vt 0.67685694 0.7695056
vt 0.67685694 0.7613785
vt 0.67035526 0.75487685
vt 0.67685694 0.7613785
vt 0.6752315 0.7483752
vt 0.67035526 0.75487685
vt 0.6817332 0.7369973
vt 0.67685694 0.7158669
vt 0.69148564 0.74512434
vt 0.68335855 0.73374647
vt 0.66222817 0.73212105
vt 0.65410113 0.7142415
vt 0.6345961 0.7434989
vt 0.67035526 0.6963619
vt 0.626469 0.7613785
vt 0.6866094 0.69148564
vt 0.62971985 0.8036393
vt 0.61509115 0.79388684
vt 0.626469 0.81826806
vt 0.6524757 0.7922614
vt 0.65572655 0.78738517
vt 0.6638536 0.7971377
vt 0.6427232 0.8231443
vt 0.6410978 0.829646
vt 0.6492249 0.83614767
vt 0.6589773 0.8020139
vt 0.6524757 0.8312714
vt 0.6573519 0.8377731
vt 0.665479 0.80851555
vt 0.6719807 0.81014097
vt 0.63947237 0.9694317
vt 0.63784695 0.9531776
vt 0.62321824 0.9483013
vt 0.62321824 0.9678063
vt 0.6362215 0.9938129
vt 0.6215928 0.9938129
vt 0.60696405 0.9938129
vt 0.60696405 0.9613046
vt 0.60533863 0.9369234
vt 0.5955862 0.95642835
vt 0.5955862 0.9938129
vt 0.59396076 0.9320471
vt 0.6410978 0.9385488
vt 0.62321824 0.9483013
vt 0.63784695 0.9531776
vt 0.626469 0.9287963
vt 0.64759946 0.9271709
vt 0.6118403 0.91579294
vt 0.60533863 0.9369234
vt 0.59721154 0.9044151
vt 0.59396076 0.9320471
vt 0.6020878 0.8849101
vt 0.61509115 0.8979134
vt 0.62971985 0.9141675
vt 0.6313453 0.90116423
vt 0.6492249 0.9092913
vt 0.61671656 0.88978636
vt 0.6134657 0.8832847
vt 0.6329707 0.88816094
vt 0.6508503 0.8930372
vt 0.6345961 0.8832847
vt 0.618342 0.8654051
vt 0.61671656 0.8832847
vt 0.61671656 0.88978636
vt 0.6118403 0.8605288
vt 0.6004624 0.84752554
vt 0.6199674 0.85402715
vt 0.618342 0.84752554
vt 0.6085895 0.8215189
vt 0.6362215 0.8589034
vt 0.6362215 0.8654051
vt 0.6215928 0.83452225
vt 0.64597404 0.86377966
vt 0.65410113 0.8735322
vt 0.62321824 0.8231443
vt 0.61509115 0.79388684
vt 0.626469 0.81826806
vt 0.63784695 0.8459001
vt 0.64759946 0.8524018
vt 0.6573519 0.857278
vt 0.6573519 0.8377731
vt 0.63947237 0.83452225
vt 0.6410978 0.829646
vt 0.6492249 0.83614767
vt 0.6492249 0.84102386
vt 0.59233534 0.982435
vt 0.59233534 0.9938129
vt 0.5955862 0.9938129
vt 0.5907099 0.95642835
vt 0.5955862 0.95642835
vt 0.5907099 0.9385488
vt 0.59396076 0.9320471
vt 0.5907099 0.93529797
vt 0.5907099 0.9271709
vt 0.5890845 0.9092913
vt 0.59721154 0.9044151
vt 0.5874591 0.8832847
vt 0.5874591 0.87190676
vt 0.6020878 0.8849101
vt 0.5874591 0.8605288
vt 0.6004624 0.84752554
vt 0.58583367 0.8328968
vt 0.59233534 0.81664264
vt 0.59721154 0.80689013
vt 0.6085895 0.8215189
vt 0.6037132 0.7922614
vt 0.61509115 0.79388684
vt 0.6102149 0.77763265
vt 0.6215928 0.75487685
vt 0.626469 0.7613785
vt 0.62971985 0.7402481
vt 0.6345961 0.7434989
vt 0.6329707 0.73212105
vt 0.64597404 0.7061144
vt 0.65410113 0.7142415
vt 0.6492249 0.6979873
vt 0.67035526 0.6963619
vt 0.64759946 0.6524757
vt 0.64759946 0.65410113
vt 0.64759946 0.6492249
vt 0.64759946 0.6492249
vt 0.6589773 0.61671656
vt 0.6719807 0.62971985
vt 0.6866094 0.69148564
vt 0.66872984 0.5890845
vt 0.6963619 0.6215928
vt 0.6719807 0.58420825
vt 0.67685694 0.58258283
vt 0.6947365 0.58258283
vt 0.7028636 0.58258283
vt 0.6979873 0.6817332
vt 0.6947365 0.6882348
vt 0.7158669 0.67848235
vt 0.7174923 0.61671656
vt 0.72399396 0.6817332
vt 0.7288702 0.68335855
vt 0.7369973 0.68335855
vt 0.7158669 0.5809574
vt 0.7402481 0.6736061
vt 0.7353719 0.5809574
vt 0.7353719 0.5809574
vt 0.7386227 0.58583367
vt 0.7402481 0.6199674
vt 0.75487685 0.6118403
vt 0.7565023 0.62321824
vt 0.74512434 0.6719807
vt 0.7581277 0.6345961
vt 0.7581277 0.64597404
vt 0.7597531 0.65572655
vt 0.7613785 0.66872984
vt 0.6963619 0.704489
vt 0.6947365 0.6882348
vt 0.6898602 0.70773983
vt 0.7028636 0.72236854
vt 0.6866094 0.73374647
vt 0.68335855 0.73374647
vt 0.69148564 0.74512434
vt 0.70123816 0.7386227
vt 0.6963619 0.7256194
vt 0.704489 0.7256194
vt 0.7174923 0.7353719
vt 0.7174923 0.72399396
vt 0.7256194 0.7402481
vt 0.72399396 0.7207431
vt 0.73374647 0.751626
vt 0.7061144 0.7207431
vt 0.7174923 0.72399396
vt 0.73212105 0.7256194
vt 0.7418735 0.75487685
vt 0.70123816 0.70123816
vt 0.6963619 0.704489
vt 0.6947365 0.6882348
vt 0.6979873 0.6817332
vt 0.7158669 0.6963619
vt 0.7158669 0.67848235
vt 0.7158669 0.7191177
vt 0.7207431 0.69961274
vt 0.72399396 0.6817332
vt 0.7288702 0.7028636
vt 0.7288702 0.68335855
vt 0.7386227 0.72399396
vt 0.73374647 0.7028636
vt 0.7369973 0.68335855
vt 0.7483752 0.7191177
vt 0.7581277 0.7483752
vt 0.7402481 0.6979873
vt 0.751626 0.7142415
vt 0.7613785 0.7386227
vt 0.74512434 0.69148564
vt 0.7402481 0.6736061
vt 0.74512434 0.6719807
vt 0.751626 0.6866094
vt 0.7565023 0.70773983
vt 0.76462936 0.7256194
vt 0.7597531 0.7028636
vt 0.7678802 0.7174923
vt 0.7792581 0.7174923
vt 0.77763265 0.7126161
vt 0.7678802 0.7174923
vt 0.7792581 0.7191177
vt 0.76462936 0.7256194
vt 0.7792581 0.7207431
vt 0.7613785 0.7386227
vt 0.7825089 0.7369973
vt 0.7825089 0.7402481
vt 0.7841343 0.7613785
vt 0.78575975 0.78738517
vt 0.7971377 0.8036393
vt 0.8117664 0.829646
vt 0.8280206 0.85402715
vt 0.8426493 0.9938129
vt 0.83939844 0.8751576
vt 0.8459001 0.8832847
vt 0.8605288 0.8832847
vt 0.9060405 0.9938129
vt 0.876783 0.8865355
vt 0.89628804 0.8914118
vt 0.9141675 0.8930372
vt 0.9466759 0.8946626
vt 0.9743079 0.8914118
vt 0.99543834 0.90116423
vt 0.99543834 0.8914118
vt 0.99543834 0.8914118
vt 0.7678802 0.7174923
vt 0.77763265 0.7126161
vt 0.77113104 0.6979873
vt 0.7695056 0.6947365
vt 0.77113104 0.6947365
vt 0.7695056 0.6947365
vt 0.7597531 0.7028636
vt 0.7662548 0.6801078
vt 0.751626 0.6866094
vt 0.74512434 0.6719807
vt 0.76462936 0.67685694
vt 0.7613785 0.66872984
vt 0.618342 0.8654051
vt 0.6345961 0.8832847
vt 0.6345961 0.8751576
vt 0.6199674 0.85402715
vt 0.6508503 0.8930372
vt 0.6362215 0.8654051
vt 0.65410113 0.8735322
vn 0.0076879254 0.9999705 -0
vn 0.0076879254 0.9999705 -0
vn 0.0076879254 0.9999705 -0
vn 0.0076879254 0.9999705 -0
vn 0.0076879254 0.9999705 -0
vn 0.0076879254 0.9999705 -0
vn 0.0076879254 0.9999705 -0
vn 0.0076879254 0.9999705 -0
vn 0.0076879254 0.9999705 -0
vn -0.021098292 0.99977744 -0
vn -0.049832083 0.99875766 -0
vn -0.30900472 0.9135999 0.26429394
vn -0.30900472 0.9135999 0.26429394
vn -0.049832083 0.99875766 -0
vn -0.65448767 0.65448767 0.37853897
vn -0.9135999 0.049892604 -0.4035417
vn -0.021098292 0.99977744 -0
vn 0.0076879254 0.9999705 -0
vn -0.9135999 -0.0076879263 0.40654162
vn -0.9135999 0.25142425 -0.3195638
vn 0.0076879254 0.9999705 -0
vn 0.0076879254 0.9999705 -0
vn 0.0076879254 0.9999705 -0
vn -0.021098292 0.99977744 -0
vn -0.049892604 0.8848097 0.46327373
vn -0.07868284 0.8848097 0.45926115
vn -0.19384378 0.8848097 0.42371735
vn -0.5969072 0.45295602 0.662218
vn 0.0076879254 0.9999705 -0
vn -0.7408584 0.049892604 0.66980565
vn -0.5969072 0.65448767 0.4640557
vn -0.62569743 0.65448767 0.4244392
vn -0.6832779 0.021102369 0.7298534
vn -0.48174626 -0.0076879263 0.876277
vn -0.48174626 0.65448767 0.5827233
vn 0.49712202 0.07868284 0.8641057
vn 0.18042934 0.19384378 0.9642976
vn -0.9711804 -0.1516391 -0.18388647
vn -0.7408584 0.19384378 0.6430812
vn -0.9711804 0.16505355 -0.1719476
vn -0.45295602 0.13626331 0.881058
vn -0.2802145 0.48174626 0.8303014
vn -0.5105365 -0.12284887 0.85103506
vn 0.8138147 0.021102369 0.58074117
vn -0.56811696 0.56811696 0.59538746
vn -0.39537555 0.85601944 0.33302993
vn -0.39537555 0.9135999 0.09493869
vn -0.22263402 0.5969072 0.7708021
vn -0.45295602 0.8272292 0.33244953
vn 0.0076879263 0.4241658 0.9055519
vn -0.65448767 0.65448767 0.37853897
vn -0.48174626 0.8272292 0.28915805
vn -0.9135999 0.3665853 -0.1759272
vn -0.62569743 0.13626331 0.7680723
vn 0.09405863 0.049892604 0.9943157
vn 0.18042934 0.22263402 0.9580602
vn -0.85601944 0.13626331 0.49866125
vn -0.9711804 0.16505355 -0.1719476
vn -0.9711804 -0.0076879263 -0.23822163
vn -0.62569743 0.049892604 0.77846867
vn -0.79843885 0.07868284 0.59691244
vn -0.62569743 0.5969072 0.5021997
vn -0.4241658 0.5969072 0.68101776
vn 0.18042934 0.4241658 0.8874281
vn -0.99787664 -0.065131724 -0
vn -0.9711804 -0.0652684 -0.22923501
vn -0.94239014 0.25142425 -0.22065052
vn -0.9711804 0.22263402 -0.08510431
vn -0.99787664 -0.065131724 -0
vn -0.96808475 0.25062284 -0
vn -0.79843885 0.5969072 0.07872239
vn -0.8243224 0.5661206 -0
vn -0.79843885 0.5969072 -0.07872239
vn -0.70710677 0.70710677 -0
vn -0.70710677 0.70710677 -0
vn -0.6832779 0.71206814 -0.16152482
vn -0.71206814 -0.03647816 0.7011621
vn -0.7696486 0.19384378 0.60833013
vn -0.85601944 -0.0652684 0.5128068
vn -0.6832779 0.19384378 0.7039573
vn -0.8272292 -0.03647816 0.5606792
vn -0.56811696 0.62569743 0.534552
vn -0.5969072 0.62569743 0.50219965
vn -0.45295602 0.79843885 0.39664376
vn -0.48174626 0.7696486 0.41900066
vn -0.45295602 0.85601944 0.24912167
vn -0.6832779 0.5969072 0.42051527
vn -0.79843885 0.16505355 0.5790101
vn -0.9711804 0.13626331 0.19555296
vn -0.9711804 -0.0652684 0.22923501
vn -0.8243224 0.5661206 -0
vn -0.5661206 0.8243224 -0
vn -0.8848097 0.22263402 0.40932372
vn -0.9711804 -0.09405863 0.21900143
vn -0.45295602 0.22263402 0.86328727
vn -0.71206814 0.65448767 0.25417483
vn -0.85601944 0.45295602 0.24912164
vn -0.7408584 0.049892604 -0.66980565
vn -0.5105365 0.85601944 0.08113701
vn -0.5105365 0.85601944 0.08113701
vn -0.62569743 0.3665853 -0.6885622
vn -0.7350958 0.6779632 -0
vn -0.5393267 0.8272292 0.15753901
vn -0.94239014 0.16505355 -0.2909607
vn -0.6832779 0.07868284 -0.72590655
vn -0.85601944 0.45295602 0.24912164
vn -0.94239014 0.107473075 -0.31678122
vn -0.9135999 0.39537555 -0.09493869
vn -0.65448767 0.5969072 0.46405566
vn -0.56811696 0.79843885 0.19934526
vn -0.049892604 0.3665853 0.9290457
vn -0.94239014 0.19384378 0.27262685
vn -0.94239014 0.22263402 0.24966958
vn -0.79843885 0.56811696 0.19934526
vn -0.79843885 0.5105365 0.3191362
vn -0.71206814 0.16505355 0.6824341
vn -0.07868284 0.049892604 0.9956504
vn -0.107473075 -0.1516391 0.9825758
vn -0.7696486 0.107473075 0.6293572
vn 0.036454987 0.9993353 -0
vn 0.036454987 0.9993353 -0
vn 0.036454987 0.9993353 -0
vn 0.065131724 0.99787664 -0
vn 0.065131724 0.99787664 -0
vn 0.09364803 0.99560535 -0
vn 0.121935755 0.99253803 -0
vn 0.121935755 0.99253803 -0
vn 0.121935755 0.99253803 -0
vn 0.09364803 0.99560535 -0
vn 0.09364803 0.99560535 -0
vn 0.09364803 0.99560535 -0
vn 0.065131724 0.99787664 -0
vn 0.036454987 0.9993353 -0
vn 0.065131724 0.99787664 -0
vn 0.036454987 0.9993353 -0
vn 0.036454987 0.9993353 -0
vn 0.036454987 0.9993353 -0
vn -0.021098292 0.99977744 -0
vn -0.049832083 0.99875766 -0
vn -0.049832083 0.99875766 -0
vn -0.106860824 0.994274 -0
vn -0.07844269 0.9969187 -0
vn -0.13501951 0.990843 -0
vn -0.16505355 0.9711804 0.17194764
vn -0.16505355 0.9711804 0.17194764
vn -0.19384378 0.9711804 0.13868392
vn -0.19384378 0.9711804 0.13868392
vn -0.16505355 0.94239014 0.29096073
vn -0.19384378 0.9135999 0.35743496
vn -0.13626331 0.94239014 0.3055047
vn -0.107473075 0.9135999 0.39215392
vn -0.049832083 0.99875766 -0
vn -0.049832083 0.99875766 -0
vn -0.049832083 0.99875766 -0
vn -0.049832083 0.99875766 -0
vn -0.021098292 0.99977744 -0
vn -0.021098292 0.99977744 -0
vn -0.021102369 0.94239014 0.33384952
vn -0.021098292 0.99977744 -0
vn -0.021098292 0.99977744 -0
vn -0.021098292 0.99977744 -0
vn -0.021098292 0.99977744 -0
vn -0.049832083 0.99875766 -0
vn -0.07844269 0.9969187 -0
vn -0.021102369 0.94239014 0.33384952
vn 0.121935755 0.99253803 -0
vn 0.03647816 0.9711804 0.23553763
vn -0.13626331 0.9711804 0.19555299
vn 0.18042934 0.9711804 0.15573665
vn 0.0652684 0.9711804 0.22923505
vn -0.13626331 0.9711804 0.19555299
vn -0.106860824 0.994274 -0
vn -0.3665853 0.9135999 0.17592716
vn -0.2802145 0.94239014 0.18270366
vn -0.2802145 0.94239014 0.18270366
vn -0.2802145 0.94239014 0.18270366
vn -0.2802145 0.94239014 0.18270366
vn -0.25062284 0.96808475 -0
vn -0.25062284 0.96808475 -0
vn -0.19384378 0.9711804 0.13868392
vn -0.22263402 0.9711804 0.08510429
vn -0.13501951 0.990843 -0
vn -0.16285487 0.98665005 -0
vn -0.16285487 0.98665005 -0
vn 0.0652684 0.2802145 0.957716
vn 0.09405863 0.33779496 0.9365082
vn -0.049892604 0.33779496 0.93989646
vn -0.2802145 0.13626331 0.9502169
vn -0.30900472 0.13626331 0.94124836
vn -0.94239014 0.2802145 0.18270372
vn -0.25142425 -0.1516391 0.9559244
vn -0.16505355 -0.1516391 0.9745578
vn -0.16505355 0.07868284 0.98314106
vn -0.16505355 0.049892604 0.9850219
vn 0.09405863 -0.0652684 0.9934249
vn 0.1516391 -0.0652684 0.9862787
vn 0.8138147 0.107473075 0.57109994
vn 0.8138147 0.16505355 0.557192
vn 0.727444 0.07868284 0.68164086
vn -0.25142425 0.2802145 0.9264263
vn -0.19384378 0.94239014 0.27262682
vn 0.66986346 0.19384378 0.71673393
vn 0.03647816 0.021102369 0.9991116
vn -0.19384378 0.22263402 0.95543635
vn -0.8272292 0.19384378 0.5273674
vn -0.8272292 0.19384378 0.5273674
vn -0.107473075 0.30900472 0.9449686
vn 0.23800987 0.22263402 0.94540226
vn 0.23800987 0.48174626 0.84336936
vn 0.1516391 0.33779496 0.9289242
vn 0.6986537 0.3665853 0.61440885
vn 0.43954155 0.6832779 0.58303905
vn 0.612283 0.48174626 0.6269211
vn 0.20921957 0.79843885 0.5645552
vn 0.09405863 0.19384378 0.97651297
vn 0.12284887 0.5969072 0.79284924
vn -0.25142425 0.85601944 0.45168194
vn -0.33779496 0.22263402 0.9145101
vn -0.33779496 0.049892604 0.9398964
vn -0.2802145 0.5969072 0.75178564
vn -0.8272292 0.19384378 0.5273674
vn -0.85601944 -0.0076879263 0.5168865
vn -0.71206814 0.5393267 0.44953936
vn -0.62569743 0.6832779 0.37634298
vn -0.5969072 0.65448767 0.4640557
vn -0.7408584 0.48174626 0.4680271
vn -0.85601944 0.13626331 0.49866125
vn -0.85601944 -0.03647816 0.51565504
vn -0.85601944 0.049892604 0.51453036
vn -0.8272292 -0.0652684 0.5580608
vn 0.0076879263 0.9711804 0.23822159
vn 0.0076879263 0.7696486 0.63842136
vn 0.0076879263 0.7696486 0.63842136
vn 0.0076879254 0.9999705 -0
vn 0.0076879254 0.9999705 -0
vn 0.0076879254 0.9999705 -0
vn 0.0076879254 0.9999705 -0
vn 0.0076879254 0.9999705 -0
vn 0.0076879254 0.9999705 -0
vn 0.0076879254 0.9999705 -0
vn 0.0076879254 0.9999705 -0
vn 0.0076879254 0.9999705 -0
vn 0.0076879254 0.9999705 -0
vn 0.0076879254 0.9999705 -0
vn 0.0076879254 0.9999705 -0
vn 0.0076879254 0.9999705 -0
vn 0.0076879254 0.9999705 -0
vn 0.0076879254 0.9999705 -0
vn 0.0076879254 0.9999705 -0
vn 0.0076879254 0.9999705 -0
vn -0.021098292 0.99977744 -0
vn -0.07844269 0.9969187 -0
vn 0.0076879254 0.9999705 -0
vn 0.036454987 0.9993353 -0
vn 0.09364803 0.99560535 -0
vn 0.09364803 0.99560535 -0
vn 0.09364803 0.99560535 -0
vn -0.07868284 -0.0076879263 0.99687004
vn 0.2668001 -0.0652684 0.96153927
vn 0.09405863 0.107473075 0.9897487
vn 0.0652684 0.107473075 0.9920633
vn 0.1516391 0.107473075 0.9825758
vn 0.0652684 0.13626331 0.9885203
vn -0.107473075 0.13626331 0.9848258
vn -0.07868284 0.3665853 0.9270513
vn -0.13626331 0.30900472 0.94124836
vn -0.13626331 0.4241658 0.8952741
vn -0.07868284 0.39537555 0.91514325
vn -0.13626331 0.4241658 0.8952741
vn -0.85601944 0.39537555 0.33302993
vn -0.79843885 -0.03647816 -0.60096985
vn -0.9711804 0.13626331 0.19555296
vn -0.8272292 0.39537555 0.39921173
vn -0.9135999 -0.03647816 0.40497473
vn -0.8848097 0.16505355 0.4357398
vn -0.8848097 -0.03647816 0.4645225
g tb_geo_light_section_01_mesh_0
f 3/3/3 2/2/2 1/1/1
f 3/3/3 4/4/4 2/2/2
f 4/4/4 5/5/5 2/2/2
f 5/5/5 6/6/6 2/2/2
f 2/2/2 6/6/6 7/7/7
f 2/2/2 7/7/7 8/8/8
f 2/2/2 8/8/8 9/9/9
f 2/2/2 9/9/9 10/10/10
f 2/2/2 10/10/10 11/11/11
f 10/10/10 12/12/12 11/11/11
f 12/12/12 13/13/13 11/11/11
f 2/2/2 11/11/11 14/14/14
f 11/11/11 15/15/15 14/14/14
f 16/16/16 15/15/15 11/11/11
f 2/2/2 14/14/14 17/17/17
f 18/18/18 2/2/2 17/17/17
f 15/15/15 16/16/16 19/19/19
f 16/16/16 20/20/20 19/19/19
f 18/18/18 17/17/17 21/21/21
f 18/18/18 21/21/21 22/22/22
f 18/18/18 22/22/22 23/23/23
f 21/21/21 24/24/24 22/22/22
f 25/25/25 24/24/24 21/21/21
f 26/26/26 25/25/25 21/21/21
f 27/27/27 26/26/26 21/21/21
f 17/17/17 27/27/27 21/21/21
f 28/28/28 27/27/27 17/17/17
f 14/14/14 28/28/28 17/17/17
f 18/18/18 23/23/23 29/29/29
f 19/19/19 20/20/20 30/30/30
f 30/30/30 20/20/20 31/31/31
f 31/31/31 32/32/32 30/30/30
f 19/19/19 30/30/30 33/33/33
f 32/32/32 33/33/33 30/30/30
f 34/34/34 19/19/19 33/33/33
f 15/15/15 19/19/19 34/34/34
f 15/15/15 35/35/35 14/14/14
f 35/35/35 15/15/15 34/34/34
f 35/35/35 36/36/36 14/14/14
f 35/35/35 34/34/34 36/36/36
f 34/34/34 37/37/37 36/36/36
f 34/34/34 33/33/33 37/37/37
f 37/37/37 33/33/33 32/32/32
f 38/38/38 28/28/28 14/14/14
f 28/28/28 38/38/38 39/39/39
f 38/38/38 40/40/40 39/39/39
f 40/40/40 32/32/32 39/39/39
f 28/28/28 39/39/39 41/41/41
f 41/41/41 39/39/39 42/42/42
f 43/43/43 28/28/28 41/41/41
f 44/44/44 43/43/43 41/41/41
f 44/44/44 41/41/41 42/42/42
f 32/32/32 45/45/45 39/39/39
f 39/39/39 45/45/45 42/42/42
f 45/45/45 32/32/32 46/46/46
f 47/47/47 46/46/46 32/32/32
f 45/45/45 46/46/46 48/48/48
f 42/42/42 45/45/45 48/48/48
f 31/31/31 47/47/47 32/32/32
f 31/31/31 49/49/49 47/47/47
f 48/48/48 50/50/50 42/42/42
f 49/49/49 31/31/31 51/51/51
f 52/52/52 49/49/49 51/51/51
f 53/53/53 52/52/52 51/51/51
f 51/51/51 31/31/31 54/54/54
f 55/55/55 54/54/54 31/31/31
f 54/54/54 55/55/55 56/56/56
f 51/51/51 57/57/57 53/53/53
f 57/57/57 51/51/51 54/54/54
f 57/57/57 58/58/58 53/53/53
f 59/59/59 58/58/58 57/57/57
f 60/60/60 54/54/54 56/56/56
f 57/57/57 54/54/54 60/60/60
f 61/61/61 59/59/59 57/57/57
f 61/61/61 57/57/57 60/60/60
f 59/59/59 61/61/61 62/62/62
f 62/62/62 61/61/61 63/63/63
f 61/61/61 60/60/60 63/63/63
f 63/63/63 60/60/60 56/56/56
f 64/64/64 63/63/63 56/56/56
f 67/67/67 66/66/66 65/65/65
f 68/68/68 67/67/67 65/65/65
f 68/68/68 65/65/65 69/69/69
f 70/70/70 68/68/68 69/69/69
f 70/70/70 71/71/71 68/68/68
f 68/68/68 72/72/72 67/67/67
f 71/71/71 72/72/72 68/68/68
f 72/72/72 73/73/73 67/67/67
f 72/72/72 71/71/71 74/74/74
f 72/72/72 74/74/74 73/73/73
f 71/71/71 75/75/75 74/74/74
f 74/74/74 76/76/76 73/73/73
f 79/79/79 78/78/78 77/77/77
f 78/78/78 80/80/80 77/77/77
f 77/77/77 80/80/80 81/81/81
f 82/82/82 80/80/80 78/78/78
f 83/83/83 82/82/82 78/78/78
f 84/84/84 82/82/82 83/83/83
f 85/85/85 84/84/84 83/83/83
f 84/84/84 86/86/86 82/82/82
f 82/82/82 87/87/87 80/80/80
f 86/86/86 87/87/87 82/82/82
f 80/80/80 88/88/88 81/81/81
f 87/87/87 88/88/88 80/80/80
f 81/81/81 88/88/88 89/89/89
f 88/88/88 87/87/87 89/89/89
f 90/90/90 81/81/81 89/89/89
f 87/87/87 91/91/91 89/89/89
f 92/92/92 91/91/91 87/87/87
f 86/86/86 92/92/92 87/87/87
f 89/89/89 93/93/93 90/90/90
f 93/93/93 94/94/94 90/90/90
f 93/93/93 95/95/95 94/94/94
f 95/95/95 93/93/93 96/96/96
f 89/89/89 97/97/97 93/93/93
f 97/97/97 96/96/96 93/93/93
f 97/97/97 92/92/92 96/96/96
f 89/89/89 98/98/98 97/97/97
f 92/92/92 97/97/97 98/98/98
f 99/99/99 92/92/92 86/86/86
f 96/96/96 92/92/92 99/99/99
f 99/99/99 86/86/86 100/100/100
f 101/101/101 96/96/96 99/99/99
f 99/99/99 100/100/100 102/102/102
f 102/102/102 101/101/101 99/99/99
f 100/100/100 103/103/103 102/102/102
f 101/101/101 102/102/102 104/104/104
f 105/105/105 101/101/101 104/104/104
f 102/102/102 103/103/103 106/106/106
f 102/102/102 106/106/106 104/104/104
f 105/105/105 104/104/104 107/107/107
f 108/108/108 105/105/105 107/107/107
f 109/109/109 106/106/106 103/103/103
f 109/109/109 103/103/103 110/110/110
f 111/111/111 109/109/109 110/110/110
f 106/106/106 112/112/112 104/104/104
f 107/107/107 104/104/104 112/112/112
f 112/112/112 106/106/106 109/109/109
f 107/107/107 113/113/113 108/108/108
f 113/113/113 107/107/107 112/112/112
f 113/113/113 114/114/114 108/108/108
f 115/115/115 114/114/114 113/113/113
f 109/109/109 111/111/111 116/116/116
f 116/116/116 112/112/112 109/109/109
f 112/112/112 116/116/116 113/113/113
f 111/111/111 117/117/117 116/116/116
f 116/116/116 117/117/117 118/118/118
f 119/119/119 115/115/115 113/113/113
f 118/118/118 115/115/115 119/119/119
f 116/116/116 119/119/119 113/113/113
f 119/119/119 116/116/116 118/118/118
f 122/122/122 121/121/121 120/120/120
f 120/120/120 123/123/123 122/122/122
f 123/123/123 124/124/124 122/122/122
f 123/123/123 125/125/125 124/124/124
f 125/125/125 126/126/126 124/124/124
f 125/125/125 127/127/127 126/126/126
f 127/127/127 128/128/128 126/126/126
f 128/128/128 129/129/129 126/126/126
f 129/129/129 130/130/130 126/126/126
f 129/129/129 131/131/131 130/130/130
f 131/131/131 132/132/132 130/130/130
f 132/132/132 133/133/133 130/130/130
f 132/132/132 134/134/134 133/133/133
f 134/134/134 135/135/135 133/133/133
f 134/134/134 136/136/136 135/135/135
f 136/136/136 137/137/137 135/135/135
f 137/137/137 138/138/138 135/135/135
f 138/138/138 139/139/139 135/135/135
f 138/138/138 140/140/140 139/139/139
f 140/140/140 141/141/141 139/139/139
f 140/140/140 142/142/142 141/141/141
f 142/142/142 143/143/143 141/141/141
f 143/143/143 144/144/144 141/141/141
f 143/143/143 145/145/145 144/144/144
f 145/145/145 146/146/146 144/144/144
f 145/145/145 147/147/147 146/146/146
f 147/147/147 148/148/148 146/146/146
f 148/148/148 149/149/149 146/146/146
f 150/150/150 149/149/149 148/148/148
f 150/150/150 151/151/151 149/149/149
f 152/152/152 151/151/151 150/150/150
f 152/152/152 150/150/150 153/153/153
f 153/153/153 154/154/154 152/152/152
f 154/154/154 155/155/155 152/152/152
f 155/155/155 156/156/156 152/152/152
f 152/152/152 157/157/157 151/151/151
f 156/156/156 157/157/157 152/152/152
f 157/157/157 158/158/158 151/151/151
f 156/156/156 159/159/159 157/157/157
f 159/159/159 160/160/160 157/157/157
f 161/161/161 160/160/160 159/159/159
f 160/160/160 161/161/161 162/162/162
f 160/160/160 162/162/162 163/163/163
f 163/163/163 164/164/164 160/160/160
f 158/158/158 157/157/157 165/165/165
f 157/157/157 160/160/160 165/165/165
f 165/165/165 166/166/166 158/158/158
f 165/165/165 160/160/160 167/167/167
f 164/164/164 168/168/168 160/160/160
f 160/160/160 168/168/168 167/167/167
f 168/168/168 169/169/169 167/167/167
f 168/168/168 170/170/170 169/169/169
f 168/168/168 171/171/171 170/170/170
f 164/164/164 172/172/172 168/168/168
f 168/168/168 173/173/173 171/171/171
f 168/168/168 172/172/172 174/174/174
f 172/172/172 175/175/175 174/174/174
f 168/168/168 174/174/174 176/176/176
f 168/168/168 177/177/177 173/173/173
f 177/177/177 168/168/168 176/176/176
f 176/176/176 178/178/178 177/177/177
f 178/178/178 179/179/179 177/177/177
f 177/177/177 180/180/180 173/173/173
f 177/177/177 179/179/179 180/180/180
f 179/179/179 181/181/181 180/180/180
f 181/181/181 182/182/182 180/180/180
f 182/182/182 183/183/183 180/180/180
f 183/183/183 184/184/184 180/180/180
f 50/50/50 186/186/186 185/185/185
f 187/187/187 50/50/50 185/185/185
f 50/50/50 187/187/187 42/42/42
f 187/187/187 185/185/185 188/188/188
f 189/189/189 42/42/42 187/187/187
f 189/189/189 190/190/190 42/42/42
f 190/190/190 189/189/189 191/191/191
f 191/191/191 189/189/189 192/192/192
f 193/193/193 189/189/189 187/187/187
f 189/189/189 193/193/193 192/192/192
f 193/193/193 187/187/187 188/188/188
f 192/192/192 193/193/193 194/194/194
f 193/193/193 188/188/188 194/194/194
f 192/192/192 194/194/194 195/195/195
f 194/194/194 196/196/196 195/195/195
f 197/197/197 195/195/195 196/196/196
f 198/198/198 197/197/197 196/196/196
f 197/197/197 198/198/198 199/199/199
f 194/194/194 188/188/188 200/200/200
f 194/194/194 200/200/200 201/201/201
f 198/198/198 202/202/202 199/199/199
f 199/199/199 202/202/202 203/203/203
f 200/200/200 188/188/188 204/204/204
f 188/188/188 205/205/205 204/204/204
f 205/205/205 206/206/206 204/204/204
f 206/206/206 207/207/207 204/204/204
f 204/204/204 207/207/207 208/208/208
f 200/200/200 204/204/204 208/208/208
f 207/207/207 209/209/209 208/208/208
f 200/200/200 210/210/210 201/201/201
f 201/201/201 210/210/210 198/198/198
f 210/210/210 200/200/200 208/208/208
f 210/210/210 208/208/208 198/198/198
f 208/208/208 209/209/209 211/211/211
f 208/208/208 211/211/211 198/198/198
f 211/211/211 209/209/209 212/212/212
f 198/198/198 211/211/211 213/213/213
f 213/213/213 211/211/211 212/212/212
f 202/202/202 198/198/198 213/213/213
f 213/213/213 212/212/212 214/214/214
f 202/202/202 213/213/213 215/215/215
f 202/202/202 215/215/215 203/203/203
f 216/216/216 213/213/213 214/214/214
f 213/213/213 216/216/216 215/215/215
f 216/216/216 214/214/214 217/217/217
f 203/203/203 215/215/215 218/218/218
f 215/215/215 216/216/216 218/218/218
f 219/219/219 203/203/203 218/218/218
f 220/220/220 216/216/216 217/217/217
f 216/216/216 220/220/220 218/218/218
f 218/218/218 221/221/221 219/219/219
f 218/218/218 220/220/220 221/221/221
f 221/221/221 222/222/222 219/219/219
f 220/220/220 217/217/217 223/223/223
f 220/220/220 223/223/223 221/221/221
f 217/217/217 224/224/224 223/223/223
f 224/224/224 225/225/225 223/223/223
f 225/225/225 226/226/226 223/223/223
f 221/221/221 227/227/227 222/222/222
f 221/221/221 223/223/223 227/227/227
f 223/223/223 226/226/226 227/227/227
f 227/227/227 228/228/228 222/222/222
f 229/229/229 227/227/227 226/226/226
f 228/228/228 227/227/227 230/230/230
f 227/227/227 229/229/229 230/230/230
f 233/233/233 232/232/232 231/231/231
f 231/231/231 234/234/234 233/233/233
f 234/234/234 235/235/235 233/233/233
f 235/235/235 234/234/234 236/236/236
f 237/237/237 235/235/235 236/236/236
f 237/237/237 236/236/236 238/238/238
f 237/237/237 238/238/238 239/239/239
f 29/29/29 237/237/237 239/239/239
f 29/29/29 239/239/239 240/240/240
f 240/240/240 18/18/18 29/29/29
f 241/241/241 18/18/18 240/240/240
f 18/18/18 241/241/241 242/242/242
f 18/18/18 242/242/242 243/243/243
f 18/18/18 243/243/243 244/244/244
f 245/245/245 18/18/18 244/244/244
f 245/245/245 244/244/244 246/246/246
f 247/247/247 245/245/245 246/246/246
f 248/248/248 245/245/245 247/247/247
f 245/245/245 248/248/248 249/249/249
f 248/248/248 250/250/250 249/249/249
f 250/250/250 251/251/251 249/249/249
f 251/251/251 252/252/252 249/249/249
f 252/252/252 253/253/253 249/249/249
f 253/253/253 254/254/254 249/249/249
f 254/254/254 255/255/255 249/249/249
f 254/254/254 256/256/256 255/255/255
f 256/256/256 257/257/257 255/255/255
f 260/260/260 259/259/259 258/258/258
f 260/260/260 258/258/258 261/261/261
f 261/261/261 262/262/262 260/260/260
f 261/261/261 263/263/263 262/262/262
f 261/261/261 258/258/258 264/264/264
f 264/264/264 263/263/263 261/261/261
f 263/263/263 264/264/264 265/265/265
f 265/265/265 264/264/264 266/266/266
f 265/265/265 266/266/266 267/267/267
f 268/268/268 265/265/265 267/267/267
f 267/267/267 269/269/269 268/268/268
f 272/272/272 271/271/271 270/270/270
f 272/272/272 270/270/270 273/273/273
f 271/271/271 272/272/272 274/274/274
f 275/275/275 272/272/272 273/273/273
f 274/274/274 272/272/272 276/276/276
f 272/272/272 275/275/275 276/276/276
