g tb_geo_light_wall_07_mesh
v 0.007114351 0.34832525 -0.7651
v 0.007114351 -0.33400458 -0.7651
v -0.6952001 -0.33400458 -0.7651
v -0.6952001 0.34832525 -0.7651
v 0.007114351 0.34832525 -0.51529306
v 0.007114351 -0.33400458 -0.51529306
v 0.007114351 -0.33400458 -0.7651
v 0.007114351 0.34832525 -0.7651
v -0.15561706 0.34832525 -0.34827927
v -0.15561706 -0.33400458 -0.34827927
v 0.007114351 -0.33400458 -0.51529306
v 0.007114351 0.34832525 -0.51529306
v -0.5338961 0.34832525 -0.34827927
v -0.5338961 -0.33400458 -0.34827927
v -0.15561706 -0.33400458 -0.34827927
v -0.15561706 0.34832525 -0.34827927
v -0.5338961 0.34832525 -0.6023686
v -0.5338961 -0.33400458 -0.6123609
v -0.5338961 -0.33400458 -0.34827927
v -0.5338961 0.34832525 -0.34827927
v -0.6952001 0.34832525 -0.7651
v -0.6952001 -0.33400458 -0.7651
v -0.5338961 -0.33400458 -0.6123609
v -0.5338961 0.34832525 -0.6023686
vt -0.12515247 1.0013884
vt -0.12515247 0.0009965897
vt -1.1548814 0.0009965897
vt -1.1548814 1.0013884
vt 0.23862636 1.0013884
vt 0.23862636 0.0009965897
vt -0.12515247 0.0009965897
vt -0.12515247 1.0013884
vt 0.58186936 0.9984547
vt 0.58186936 0.0009965897
vt 0.23862636 0.0009965897
vt 0.23862636 1.0013884
vt 1.1363388 0.9984547
vt 1.1363388 0.0009965897
vt 0.58186936 0.0009965897
vt 0.58186936 0.9984547
vt 1.5089186 0.9984547
vt 1.5206536 0.0009965897
vt 1.1363388 0.0009965897
vt 1.1363388 0.9984547
vt 1.8433605 0.9984547
vt 1.8462943 0.0009965897
vt 1.5206536 0.0009965897
vt 1.5089186 0.9984547
vn -0.015871048 0.015871048 0.99974805
vn -0.015871048 0.015871048 0.99974805
vn -0.015871048 0.015871048 0.99974805
vn -0.015871048 0.015871048 0.99974805
vn -0.999874 0.015871048 -0.00034391563
vn -0.999874 0.015871048 -0.00034391563
vn -0.999874 0.015871048 -0.00034391563
vn -0.999874 0.015871048 -0.00034391563
vn -0.7141957 0.015871048 -0.6997661
vn -0.7141957 0.015871048 -0.6997661
vn -0.7141957 0.015871048 -0.6997661
vn -0.7141957 0.015871048 -0.6997661
vn -0.015871048 0.015871048 -0.99974805
vn -0.015871048 0.015871048 -0.99974805
vn -0.015871048 0.015871048 -0.99974805
vn -0.015871048 0.015871048 -0.99974805
vn 0.999874 0.015871048 -0.00034391563
vn 0.999874 0.015871048 -0.00034391563
vn 0.999874 0.015871048 -0.00034391563
vn 0.999874 0.015871048 -0.00034391563
vn 0.7141957 0.015871048 -0.6997661
vn 0.7141957 0.015871048 -0.6997661
vn 0.7141957 0.015871048 -0.6997661
vn 0.7141957 0.015871048 -0.6997661
g tb_geo_light_wall_07_mesh_0
f 3/3/3 2/2/2 1/1/1
f 4/4/4 3/3/3 1/1/1
f 7/7/7 6/6/6 5/5/5
f 8/8/8 7/7/7 5/5/5
f 11/11/11 10/10/10 9/9/9
f 12/12/12 11/11/11 9/9/9
f 15/15/15 14/14/14 13/13/13
f 16/16/16 15/15/15 13/13/13
f 19/19/19 18/18/18 17/17/17
f 20/20/20 19/19/19 17/17/17
f 23/23/23 22/22/22 21/21/21
f 24/24/24 23/23/23 21/21/21
