g tb_geo_light_wall_01_mesh
v 1.4503 -0.3336408 -0.59917706
v 1.4503 0.3486644 -0.59917706
v 1.4503 0.3486644 -0.58510894
v 1.4503 -0.3336408 -0.58510894
v 1.1126645 0.3486644 -0.58510894
v 1.1126645 -0.3336408 -0.58510894
v 1.4503 -0.3336408 -0.58510894
v 1.4503 0.3486644 -0.58510894
v 1.1126645 -0.3336408 -0.58510894
v 1.1126645 0.3486644 -0.58510894
v 0.9526393 0.3486644 -0.4268422
v 0.9526393 -0.3336408 -0.4268422
v 0.9526393 0.3486644 -0.18416667
v 0.9526393 -0.3336408 -0.18416667
v 0.9526393 -0.3336408 -0.4268422
v 0.9526393 0.3486644 -0.4268422
v 0.9034008 0.3486644 -0.13668668
v 0.9034008 -0.3336408 -0.13668668
v 0.9526393 -0.3336408 -0.18416667
v 0.9526393 0.3486644 -0.18416667
v 0.68358594 0.3486644 -0.13668668
v 0.68358594 -0.3336408 -0.13668668
v 0.9034008 -0.3336408 -0.13668668
v 0.9034008 0.3486644 -0.13668668
v 0.58686745 0.3486644 -0.23692226
v 0.58686745 -0.3336408 -0.23692226
v 0.68358594 -0.3336408 -0.13668668
v 0.68358594 0.3486644 -0.13668668
v 0.58686745 0.3486644 -0.30550444
v 0.58686745 -0.3336408 -0.30550444
v 0.58686745 -0.3336408 -0.23692226
v 0.58686745 0.3486644 -0.23692226
v 0.3652941 0.3486644 -0.52356076
v 0.3652941 -0.3336408 -0.52356076
v 0.58686745 -0.3336408 -0.30550444
v 0.58686745 0.3486644 -0.30550444
v 0.3652941 0.3486644 -0.7644778
v 0.3652941 -0.3336408 -0.7644778
v 0.3652941 -0.3336408 -0.52356076
v 0.3652941 0.3486644 -0.52356076
v 1.2480704 0.3486644 -0.7644778
v 1.2480704 -0.3336408 -0.7644778
v 0.3652941 -0.3336408 -0.7644778
v 0.3652941 0.3486644 -0.7644778
v 1.4503 0.3486644 -0.59917706
v 1.4503 -0.3336408 -0.59917706
v 1.2480704 -0.3336408 -0.7644778
v 1.2480704 0.3486644 -0.7644778
vt -0.35430002 0.0012910366
vt -0.35430002 0.9991009
vt -0.33059394 0.9991009
vt -0.33059394 0.0012910366
vt 0.16292334 0.9991009
vt 0.16292334 0.0012910366
vt -0.33059394 0.0012910366
vt -0.33059394 0.9991009
vt 0.16292334 0.0012910366
vt 0.16292334 0.9991009
vt 0.49265313 0.9991009
vt 0.49265313 0.0012910366
vt 0.8460891 0.9991009
vt 0.8460891 0.0012910366
vt 0.49265313 0.0012910366
vt 0.49265313 0.9991009
vt 0.94737864 0.9991009
vt 0.94737864 0.0012910366
vt 0.8460891 0.0012910366
vt 0.8460891 0.9991009
vt 1.2706432 0.9991009
vt 1.2706432 0.0012910366
vt 0.94737864 0.0012910366
vt 0.94737864 0.9991009
vt 1.4732223 0.9991009
vt 1.4732223 0.0012910366
vt 1.2706432 0.0012910366
vt 1.2706432 0.9991009
vt 1.5723569 0.9991009
vt 1.5723569 0.0012910366
vt 1.4732223 0.0012910366
vt 1.4732223 0.9991009
vt 2.0292373 0.9991009
vt 2.0292373 0.0012910366
vt 1.5723569 0.0012910366
vt 1.5723569 0.9991009
vt 2.3826733 0.9991009
vt 2.3826733 0.0012910366
vt 2.0292373 0.0012910366
vt 2.0292373 0.9991009
vt -0.7357522 0.9991009
vt -0.7357522 0.0012910366
vt -2.0288105 0.0012910366
vt -2.0288105 0.9991009
vt -0.35430002 0.9991009
vt -0.35430002 0.0012910366
vt -0.7357522 0.0012910366
vt -0.7357522 0.9991009
vn -0.999874 0.015871048 -0.00034391563
vn -0.999874 0.015871048 -0.00034391563
vn -0.999874 0.015871048 -0.00034391563
vn -0.999874 0.015871048 -0.00034391563
vn -0.015871048 0.015871048 -0.99974805
vn -0.015871048 0.015871048 -0.99974805
vn -0.015871048 0.015871048 -0.99974805
vn -0.015871048 0.015871048 -0.99974805
vn -0.7141957 0.015871048 -0.6997661
vn -0.7141957 0.015871048 -0.6997661
vn -0.7141957 0.015871048 -0.6997661
vn -0.7141957 0.015871048 -0.6997661
vn -0.999874 0.015871048 -0.00034391563
vn -0.999874 0.015871048 -0.00034391563
vn -0.999874 0.015871048 -0.00034391563
vn -0.999874 0.015871048 -0.00034391563
vn -0.7141957 0.015871048 -0.6997661
vn -0.7141957 0.015871048 -0.6997661
vn -0.7141957 0.015871048 -0.6997661
vn -0.7141957 0.015871048 -0.6997661
vn -0.015871048 0.015871048 -0.99974805
vn -0.015871048 0.015871048 -0.99974805
vn -0.015871048 0.015871048 -0.99974805
vn -0.015871048 0.015871048 -0.99974805
vn 0.7141957 0.015871048 -0.6997661
vn 0.7141957 0.015871048 -0.6997661
vn 0.7141957 0.015871048 -0.6997661
vn 0.7141957 0.015871048 -0.6997661
vn 0.999874 0.015871048 -0.00034391563
vn 0.999874 0.015871048 -0.00034391563
vn 0.999874 0.015871048 -0.00034391563
vn 0.999874 0.015871048 -0.00034391563
vn 0.7141957 0.015871048 -0.6997661
vn 0.7141957 0.015871048 -0.6997661
vn 0.7141957 0.015871048 -0.6997661
vn 0.7141957 0.015871048 -0.6997661
vn 0.999874 0.015871048 -0.00034391563
vn 0.999874 0.015871048 -0.00034391563
vn 0.999874 0.015871048 -0.00034391563
vn 0.999874 0.015871048 -0.00034391563
vn -0.015871048 0.015871048 0.99974805
vn -0.015871048 0.015871048 0.99974805
vn -0.015871048 0.015871048 0.99974805
vn -0.015871048 0.015871048 0.99974805
vn -0.6189697 0.015871048 0.78525454
vn -0.6189697 0.015871048 0.78525454
vn -0.6189697 0.015871048 0.78525454
vn -0.6189697 0.015871048 0.78525454
g tb_geo_light_wall_01_mesh_0
f 3/3/3 2/2/2 1/1/1
f 4/4/4 3/3/3 1/1/1
f 7/7/7 6/6/6 5/5/5
f 8/8/8 7/7/7 5/5/5
f 11/11/11 10/10/10 9/9/9
f 12/12/12 11/11/11 9/9/9
f 15/15/15 14/14/14 13/13/13
f 16/16/16 15/15/15 13/13/13
f 19/19/19 18/18/18 17/17/17
f 20/20/20 19/19/19 17/17/17
f 23/23/23 22/22/22 21/21/21
f 24/24/24 23/23/23 21/21/21
f 27/27/27 26/26/26 25/25/25
f 28/28/28 27/27/27 25/25/25
f 31/31/31 30/30/30 29/29/29
f 32/32/32 31/31/31 29/29/29
f 35/35/35 34/34/34 33/33/33
f 36/36/36 35/35/35 33/33/33
f 39/39/39 38/38/38 37/37/37
f 40/40/40 39/39/39 37/37/37
f 43/43/43 42/42/42 41/41/41
f 44/44/44 43/43/43 41/41/41
f 47/47/47 46/46/46 45/45/45
f 48/48/48 47/47/47 45/45/45
