g tb_geo_section_02_mesh
v -1.2218184 0.03547724 0.23271735
v -1.2058653 0.03547724 0.22981675
v -1.189912 0.03547724 0.23271735
v -1.2348711 0.03547724 0.24141912
v -1.1768594 0.03547724 0.24141912
v -1.243573 0.03547724 0.25447178
v -1.1681576 0.03547724 0.25447178
v -1.165257 0.03547724 0.27042502
v -1.2464736 0.03547724 0.27042502
v -1.243573 0.03547724 0.28637826
v -1.1681576 0.03547724 0.28637826
v -1.2348711 0.03547724 0.2994309
v -1.1768594 0.03547724 0.2994309
v -1.2218184 0.03547724 0.30813268
v -1.189912 0.03547724 0.30813268
v -1.2058653 0.03547724 0.31103328
v -1.2754794 0.03547724 0.38499832
v -1.3059356 0.03547724 0.38499832
v -1.2899823 0.03547724 0.38209772
v -1.3189882 0.03547724 0.3937001
v -1.2609764 0.03547724 0.3937001
v -1.32769 0.03547724 0.40675274
v -1.2522746 0.03547724 0.40675274
v -1.3320409 0.03547724 0.42270598
v -1.249374 0.03547724 0.42270598
v -1.32769 0.03547724 0.43865922
v -1.2522746 0.03547724 0.43865922
v -1.3189882 0.03547724 0.4517119
v -1.2609764 0.03547724 0.4517119
v -1.3059356 0.03547724 0.46041366
v -1.2754794 0.03547724 0.46041366
v -1.2899823 0.03547724 0.46331424
v -0.9926718 0.17615584 0.23851852
v -0.9868707 0.17615584 0.27187532
v -1.0158767 0.17615584 0.2153138
v -1.0608357 0.17615584 0.3907995
v -1.0434322 0.17615584 0.20226115
v -1.0347304 0.17615584 0.38789892
v -0.9941221 0.17615584 0.3356883
v -0.998473 0.17615584 0.3559924
v -0.9781689 0.17615584 0.32988712
v -1.165257 0.17615584 0.27042502
v -1.1681576 0.17615584 0.25447178
v -1.1681576 0.17615584 0.28637826
v -1.1246487 0.17615584 0.19500968
v -1.1768594 0.17615584 0.24141912
v -1.189912 0.17615584 0.23271735
v -1.1638067 0.17615584 0.1602026
v -1.2058653 0.17615584 0.22981675
v -1.2087659 0.17615584 0.14860024
v -1.2218184 0.17615584 0.23271735
v -1.1768594 0.17615584 0.2994309
v -1.2653273 0.17615584 0.1558517
v -1.2348711 0.17615584 0.24141912
v -1.243573 0.17615584 0.25447178
v -1.2754794 0.17615584 0.38499832
v -1.2464736 0.17615584 0.27042502
v -1.243573 0.17615584 0.28637826
v -1.2348711 0.17615584 0.2994309
v -1.189912 0.17615584 0.30813268
v -1.2218184 0.17615584 0.30813268
v -1.2856314 0.17615584 0.1616529
v -1.2609764 0.17615584 0.3937001
v -1.2058653 0.17615584 0.31103328
v -1.2899823 0.17615584 0.38209772
v -1.3059356 0.17615584 0.38499832
v -1.3189882 0.17615584 0.3937001
v -1.2522746 0.17615584 0.40675274
v -1.342193 0.17615584 0.13844818
v -1.32769 0.17615584 0.40675274
v -1.3320409 0.17615584 0.42270598
v -1.366848 0.17615584 0.5561331
v -1.32769 0.17615584 0.43865922
v -1.3726492 0.17615584 0.132647
v -1.455316 0.17615584 0.12539552
v -1.455316 0.17615584 0.5807881
v -1.3189882 0.17615584 0.4517119
v -1.2740291 0.17615584 0.56193423
v -1.3059356 0.17615584 0.46041366
v -1.2899823 0.17615584 0.46331424
v -1.2754794 0.17615584 0.46041366
v -1.2189178 0.17615584 0.53582895
v -1.2522746 0.17615584 0.57498693
v -1.2609764 0.17615584 0.4517119
v -1.2116665 0.17615584 0.472016
v -1.2015144 0.17615584 0.45606276
v -1.2522746 0.17615584 0.43865922
v -1.249374 0.17615584 0.42270598
v -1.1826606 0.17615584 0.4517119
v -1.1551049 0.17615584 0.45606276
v -1.1115961 0.17615584 0.44301012
v -1.0898416 0.17615584 0.43865922
v -1.2841811 0.08188668 0.10219081
v -1.2841811 0.0006701667 0.08188668
v -1.2624267 0.0006701667 0.06883402
v -1.2624267 0.09058845 0.084787264
v -1.2029647 0.09058845 0.07463521
v -1.2015144 0.0006701667 0.05868196
v -1.1536546 0.0006701667 0.07898609
v -1.1565552 0.08913815 0.093489036
v -1.101444 0.0006701667 0.122494936
v -1.204415 0.11089258 0.093489036
v -1.1696079 0.10799198 0.10654169
v -1.1101458 0.08913815 0.13699788
v -1.2624267 0.113793164 0.10364109
v -1.0405316 0.08913815 0.132647
v -1.0390813 0.0006701667 0.113793164
v -0.9868707 0.0006701667 0.14424935
v -1.204415 0.119594336 0.11524345
v -1.2769297 0.10944228 0.119594336
v -1.2624267 0.119594336 0.12684582
v -1.3436433 0.10944228 0.094939336
v -1.342193 0.08188668 0.086237565
v -1.3755498 0.10799198 0.087687865
v -1.3755498 0.08043638 0.07753579
v -1.455316 0.10799198 0.08333698
v -1.455316 0.08043638 0.06738374
v -1.455316 0.14134876 0.10074051
v -1.3755498 0.14134876 0.10509139
v -1.455316 0.17615584 0.12539552
v -1.3726492 0.17615584 0.132647
v -1.342193 0.14134876 0.11089258
v -1.342193 0.17615584 0.13844818
v -1.2841811 0.14134876 0.13554758
v -1.2856314 0.17615584 0.1616529
v -1.2653273 0.17615584 0.1558517
v -1.2087659 0.17615584 0.14860024
v -1.1594558 0.14134876 0.14134876
v -1.1638067 0.17615584 0.1602026
v -1.1188476 0.14134876 0.17615584
v -1.1246487 0.17615584 0.19500968
v -1.1130464 0.10364109 0.1587523
v -1.0492334 0.14134876 0.1848576
v -1.0434322 0.17615584 0.20226115
v -1.0477831 0.10074051 0.15150084
v -1.0071748 0.13989846 0.20951262
v -1.0158767 0.17615584 0.2153138
v -0.9926718 0.17615584 0.23851852
v -0.9926718 0.087687865 0.17035466
v -1.002824 0.10074051 0.1892085
v -0.95351386 0.087687865 0.2153138
v -0.9433618 -0.019633962 0.17760614
v -0.9317595 -0.016733373 0.2486706
v -0.9781689 0.13989846 0.24286939
v -0.9868707 0.17615584 0.27187532
v -0.9680168 0.10219081 0.23126705
v -0.9462624 0.086237565 0.24286939
v -0.9477127 -0.016733373 0.2762262
v -0.9680168 0.084787264 0.2776765
v -0.96221566 0.10074051 0.26752442
v -0.9709174 0.13989846 0.2776765
v -0.9781689 0.17615584 0.32988712
v -0.9781689 0.14134876 0.34729066
v -0.9941221 0.17615584 0.3356883
v -0.9868707 0.13989846 0.35019124
v -0.9680168 0.084787264 0.2776765
v -0.9694671 0.084787264 0.3574427
v -0.96076536 -0.0065813083 0.35309184
v -0.9477127 -0.016733373 0.2762262
v -1.0071748 0.0006701667 0.42270598
v -1.0071748 0.087687865 0.42415628
v -0.9854204 0.13989846 0.3617936
v -0.9868707 0.13989846 0.35019124
v -1.0361807 0.086237565 0.42850715
v -1.0361807 0.0006701667 0.42705688
v -1.0216779 0.13989846 0.40385216
v -1.0492334 0.13989846 0.40530244
v -0.998473 0.17615584 0.3559924
v -0.9941221 0.17615584 0.3356883
v -1.0347304 0.17615584 0.38789892
v -1.0608357 0.17615584 0.3907995
v -1.1115961 0.17615584 0.44301012
v -1.0898416 0.17615584 0.43865922
v -1.0985434 0.119594336 0.447361
v -1.0666369 0.121044636 0.45896336
v -1.1043446 0.09929021 0.4705657
v -1.0492334 0.13989846 0.40530244
v -1.0608357 0.17615584 0.3907995
v -1.0361807 0.086237565 0.42850715
v -1.0724381 0.087687865 0.48651895
v -1.0361807 0.0006701667 0.42705688
v -1.0637363 0.0006701667 0.50537276
v -1.1435026 0.0006701667 0.5155248
v -1.1522043 0.086237565 0.49522075
v -1.1783097 0.0006701667 0.49086985
v -1.17976 0.087687865 0.4778172
v -1.1928126 0.0006701667 0.48796925
v -1.1594558 0.13989846 0.4792675
v -1.1043446 0.09929021 0.4705657
v -1.0985434 0.119594336 0.447361
v -1.1115961 0.17615584 0.44301012
v -1.1551049 0.17615584 0.45606276
v -1.17976 0.13989846 0.4705657
v -1.1826606 0.17615584 0.4517119
v -1.1928126 0.13989846 0.472016
v -1.2015144 0.17615584 0.45606276
v -1.2116665 0.17615584 0.472016
v -1.1942629 0.087687865 0.4734663
v -1.2015144 0.13989846 0.48216805
v -1.2189178 0.17615584 0.53582895
v -1.2015144 0.086237565 0.48216805
v -1.2000641 0.0006701667 0.4981213
v -1.2058653 0.13989846 0.53727925
v -1.2522746 0.17615584 0.57498693
v -1.2058653 0.086237565 0.54017985
v -1.2029647 -0.0007801298 0.5503319
v -1.249374 -0.0007801298 0.5880396
v -1.2595261 0.087687865 0.5967413
v -1.2725788 0.0006701667 0.57643723
v -1.2827308 0.086237565 0.585139
v -1.2595261 0.14134876 0.5981916
v -1.2827308 0.14134876 0.5865893
v -1.2740291 0.17615584 0.56193423
v -1.366848 0.17615584 0.5561331
v -1.366848 0.13989846 0.57643723
v -1.455316 0.17615584 0.5807881
v -1.455316 0.13989846 0.5981916
v -1.455316 0.087687865 0.5996419
v -1.366848 0.086237565 0.57643723
v -1.3770001 0.0006701667 0.57788754
v -1.455316 0.0006701667 0.6025425
v -1.3653977 0.0006701667 0.5909402
v -1.3770001 0.0006701667 0.57788754
v -1.27838 0.0006701667 0.5981916
v -1.2725788 0.0006701667 0.57643723
v -0.87084705 -0.025435142 0.11089258
v -0.8592447 -0.023984846 0.122494936
v -0.8592447 -0.026885437 0.20081085
v -0.87084705 -0.028335731 0.20226115
v -0.8592447 -0.026885437 0.21096292
v -0.8592447 -0.022534553 0.25592208
v -0.88244945 -0.023984846 0.09929021
v -0.8621453 -0.022534553 0.26027295
v -0.9433618 -0.019633962 0.17760614
v -0.90855473 -0.022534553 0.07318491
v -0.9680168 -0.021084256 0.05723167
v -0.9462624 -0.021084256 0.03692754
v -0.96076536 -0.016733373 0.023874883
v -0.9680168 -0.015283078 0.016623411
v -0.9912215 -0.012382489 0.016623411
v -1.0332801 -0.012382489 0.016623411
v -0.9868707 0.0006701667 0.14424935
v -0.9317595 -0.016733373 0.2486706
v -1.0390813 0.0006701667 0.113793164
v -0.8868003 -0.023984846 0.28782856
v -0.8592447 -0.022534553 0.2994309
v -0.9477127 -0.016733373 0.2762262
v -0.8868003 -0.009481898 0.3951504
v -0.8592447 -0.022534553 0.3008812
v -0.8592447 -0.021084256 0.32698652
v -0.84909266 -0.023984846 0.3385889
v -0.96076536 -0.0065813083 0.35309184
v -0.8258879 -0.023984846 0.3632439
v -0.7852797 -0.013832782 0.42415628
v -0.79688203 -0.018183667 0.39660066
v -0.7823791 -0.013832782 0.41110364
v -0.7794785 -0.012382489 0.4154545
v -0.76932645 -0.009481898 0.42705688
v -0.90420383 -0.013832782 0.48651895
v -1.0071748 0.0006701667 0.42270598
v -0.8186365 0.00792164 0.57643723
v -0.76207495 -0.0065813083 0.43430835
v -0.76207495 0.0050210506 0.4995716
v -0.76207495 0.016623411 0.5807881
v -0.90420383 0.0006701667 0.5996419
v -0.9723677 -0.013832782 0.521326
v -0.95351386 0.0006701667 0.57643723
v -1.0361807 0.0006701667 0.42705688
v -0.9912215 0.0006701667 0.57498693
v -1.0448825 -0.013832782 0.5532325
v -1.0637363 0.0006701667 0.50537276
v -1.140602 -0.013832782 0.56773543
v -1.0593854 0.0006701667 0.61559516
v -1.1435026 0.0006701667 0.5155248
v -1.1391517 0.0006701667 0.609794
v -1.2029647 -0.0007801298 0.5503319
v -1.1783097 0.0006701667 0.49086985
v -1.1928126 0.0006701667 0.48796925
v -1.2000641 0.0006701667 0.4981213
v -1.249374 -0.0007801298 0.5880396
v -1.2203681 -0.0065813083 0.6271975
v -1.1986138 0.0006701667 0.65040225
v -1.2406723 0.0006701667 0.7156655
v -1.27838 0.0006701667 0.5981916
v -1.2725788 0.0006701667 0.57643723
v -1.342193 -0.009481898 0.6953614
v -1.2508243 0.0006701667 0.77077675
v -1.3653977 0.0006701667 0.5909402
v -1.3770001 0.0006701667 0.57788754
v -1.455316 0.0006701667 0.6025425
v -1.4379125 0.0006701667 0.031126358
v -1.455316 0.0006701667 0.045629304
v -1.455316 0.0006701667 0.016623411
v -1.4422634 0.0006701667 0.016623411
v -1.4263101 0.0006701667 0.016623411
v -1.3755498 0.0006701667 0.04417901
v -1.3813509 0.0006701667 0.016623411
v -1.3378421 0.0006701667 0.041278426
v -1.3581462 0.0006701667 0.016623411
v -1.3160876 0.0006701667 0.016623411
v -1.2957835 0.0006701667 0.06303285
v -1.2914326 0.0006701667 0.016623411
v -1.2841811 0.0006701667 0.08188668
v -1.2856314 0.0006701667 0.016623411
v -1.2624267 0.0006701667 0.06883402
v -1.2769297 0.0006701667 0.016623411
v -1.2537249 -0.0051310137 0.016623411
v -1.22907 -0.003680719 0.016623411
v -1.2015144 0.0006701667 0.05868196
v -1.1768594 -0.0065813083 0.016623411
v -1.1536546 0.0006701667 0.07898609
v -1.1696079 -0.0065813083 0.016623411
v -1.140602 -0.008031603 0.016623411
v -1.0927422 -0.008031603 0.029676065
v -1.101444 0.0006701667 0.122494936
v -1.0970931 -0.0065813083 0.016623411
v -1.0898416 -0.0051310137 0.016623411
v -1.0390813 -0.018183667 0.041278426
v -1.0550345 -0.010932192 0.016623411
v -1.037631 -0.010932192 0.016623411
v -0.8592447 -0.021084256 0.2994309
v -0.8592447 -0.022534553 0.3008812
v -0.8592447 -0.022534553 0.2994309
v -0.8592447 -0.021084256 0.2994309
v -0.8592447 -0.021084256 0.2994309
v -0.8621453 -0.022534553 0.26027295
v -0.8592447 -0.015283078 0.26172325
v -0.8592447 -0.022534553 0.25592208
v -1.2406723 0.0006701667 0.7156655
v -1.1783097 0.119594336 0.77077675
v -1.2508243 0.0006701667 0.77077675
v -1.17976 0.12539552 0.72581756
v -1.1986138 0.0006701667 0.65040225
v -1.0318298 0.1602026 0.77077675
v -1.1478535 0.11669375 0.68375903
v -1.1391517 0.0006701667 0.609794
v -1.0927422 0.11669375 0.6721567
v -1.0593854 0.0006701667 0.61559516
v -1.0260286 0.10944228 0.69101053
v -0.96511626 0.1602026 0.77077675
v -0.973818 0.10364109 0.659104
v -0.9912215 0.0006701667 0.57498693
v -0.95351386 0.0006701667 0.57643723
v -0.9303092 0.10074051 0.6649052
v -0.91000503 0.1558517 0.77077675
v -0.90420383 0.0006701667 0.5996419
v -0.8868003 0.09638962 0.69101053
v -0.8331394 0.15295112 0.77077675
v -0.8186365 0.08333698 0.6678058
v -0.8186365 0.00792164 0.57643723
v -0.76207495 0.016623411 0.5807881
v -0.76207495 0.04272872 0.61269456
v -0.76207495 0.094939336 0.6707064
v -0.76207495 0.14714995 0.7504726
v -0.76932645 0.1602026 0.77077675
v -0.76207495 0.1602026 0.77077675
v -1.3755498 0.08043638 0.07753579
v -1.455316 0.08043638 0.06738374
v -1.4364622 0.07753579 0.04417901
v -1.455316 0.0006701667 0.045629304
v -1.4379125 0.0006701667 0.031126358
v -1.3755498 0.0006701667 0.04417901
v -1.3755498 0.07753579 0.05723167
v -1.342193 0.07753579 0.054331075
v -1.3378421 0.0006701667 0.041278426
v -1.342193 0.08188668 0.086237565
v -1.2957835 0.0006701667 0.06303285
v -1.3001344 0.07608549 0.07608549
v -1.2841811 0.08188668 0.10219081
v -1.2841811 0.0006701667 0.08188668
v -1.3189882 0.17615584 0.4517119
v -1.32769 0.17615584 0.43865922
v -1.32769 0.03547724 0.43865922
v -1.3189882 0.03547724 0.4517119
v -1.3320409 0.03547724 0.42270598
v -1.3059356 0.17615584 0.46041366
v -1.3320409 0.17615584 0.42270598
v -1.3059356 0.03547724 0.46041366
v -1.32769 0.03547724 0.40675274
v -1.2899823 0.17615584 0.46331424
v -1.32769 0.17615584 0.40675274
v -1.2899823 0.03547724 0.46331424
v -1.3189882 0.03547724 0.3937001
v -1.2754794 0.17615584 0.46041366
v -1.3189882 0.17615584 0.3937001
v -1.2754794 0.03547724 0.46041366
v -1.3059356 0.03547724 0.38499832
v -1.2609764 0.17615584 0.4517119
v -1.3059356 0.17615584 0.38499832
v -1.2609764 0.03547724 0.4517119
v -1.2899823 0.03547724 0.38209772
v -1.2522746 0.17615584 0.43865922
v -1.2899823 0.17615584 0.38209772
v -1.2522746 0.03547724 0.43865922
v -1.2754794 0.03547724 0.38499832
v -1.249374 0.17615584 0.42270598
v -1.2754794 0.17615584 0.38499832
v -1.249374 0.03547724 0.42270598
v -1.2609764 0.03547724 0.3937001
v -1.2522746 0.17615584 0.40675274
v -1.2609764 0.17615584 0.3937001
v -1.2522746 0.03547724 0.40675274
v -1.2058653 0.17615584 0.31103328
v -1.2218184 0.03547724 0.30813268
v -1.2058653 0.03547724 0.31103328
v -1.2218184 0.17615584 0.30813268
v -1.189912 0.17615584 0.30813268
v -1.2348711 0.03547724 0.2994309
v -1.189912 0.03547724 0.30813268
v -1.2348711 0.17615584 0.2994309
v -1.1768594 0.17615584 0.2994309
v -1.243573 0.03547724 0.28637826
v -1.1768594 0.03547724 0.2994309
v -1.243573 0.17615584 0.28637826
v -1.1681576 0.17615584 0.28637826
v -1.2464736 0.03547724 0.27042502
v -1.1681576 0.03547724 0.28637826
v -1.2464736 0.17615584 0.27042502
v -1.165257 0.17615584 0.27042502
v -1.243573 0.03547724 0.25447178
v -1.165257 0.03547724 0.27042502
v -1.243573 0.17615584 0.25447178
v -1.1681576 0.17615584 0.25447178
v -1.2348711 0.03547724 0.24141912
v -1.1681576 0.03547724 0.25447178
v -1.2348711 0.17615584 0.24141912
v -1.1768594 0.17615584 0.24141912
v -1.2218184 0.03547724 0.23271735
v -1.1768594 0.03547724 0.24141912
v -1.2218184 0.17615584 0.23271735
v -1.189912 0.17615584 0.23271735
v -1.2058653 0.03547724 0.22981675
v -1.189912 0.03547724 0.23271735
v -1.2058653 0.17615584 0.22981675
vt 0.07444725 0.319853
vt 0.07633499 0.319853
vt 0.07633499 0.319853
vt 0.07444725 0.319853
vt 0.07822272 0.319853
vt 0.07444725 0.31796527
vt 0.07822272 0.31796527
vt 0.07822272 0.31796527
vt 0.07255951 0.31796527
vt 0.07444725 0.31607753
vt 0.07822272 0.31607753
vt 0.07444725 0.31607753
vt 0.07822272 0.31607753
vt 0.07444725 0.3141898
vt 0.07633499 0.3141898
vt 0.07633499 0.3141898
vt 0.05179441 0.25566995
vt 0.04990668 0.25566995
vt 0.04990668 0.25566995
vt 0.04801894 0.2537822
vt 0.05179441 0.2537822
vt 0.04801894 0.2537822
vt 0.05368215 0.2537822
vt 0.04801894 0.2518945
vt 0.05368215 0.2518945
vt 0.04801894 0.25000677
vt 0.05368215 0.25000677
vt 0.04801894 0.25000677
vt 0.05179441 0.25000677
vt 0.04990668 0.24811903
vt 0.05179441 0.24811903
vt 0.04990668 0.24811903
vt 0.12541614 0.32740396
vt 0.12541614 0.31607753
vt 0.11975293 0.33684266
vt 0.11220198 0.27077186
vt 0.11597746 0.3406181
vt 0.11786519 0.27454734
vt 0.12541614 0.2934247
vt 0.12541614 0.28776148
vt 0.12919162 0.29720017
vt 0.09143688 0.31796527
vt 0.08954915 0.3236285
vt 0.08954915 0.31041434
vt 0.098987825 0.34816906
vt 0.08577367 0.3292917
vt 0.0819982 0.33306718
vt 0.08766141 0.36327097
vt 0.07633499 0.33495492
vt 0.07444725 0.36893415
vt 0.070671774 0.33306718
vt 0.08577367 0.30663887
vt 0.057457626 0.36893415
vt 0.065008566 0.3292917
vt 0.061233096 0.3236285
vt 0.055569887 0.26699638
vt 0.061233096 0.31796527
vt 0.063120835 0.31041434
vt 0.065008566 0.30475113
vt 0.0819982 0.3028634
vt 0.070671774 0.3028634
vt 0.04990668 0.36704642
vt 0.061233096 0.2632209
vt 0.07633499 0.30097565
vt 0.04990668 0.26888412
vt 0.04424347 0.26699638
vt 0.040467992 0.2632209
vt 0.065008566 0.25755772
vt 0.034804784 0.3764851
vt 0.038580254 0.25755772
vt 0.036692522 0.2518945
vt 0.027253838 0.19337466
vt 0.038580254 0.24434355
vt 0.027253838 0.3802606
vt 0.006488735 0.38403606
vt 0.006488735 0.18016051
vt 0.040467992 0.23868035
vt 0.05179441 0.1952624
vt 0.04424347 0.23490487
vt 0.04990668 0.23490487
vt 0.055569887 0.23679261
vt 0.066896304 0.20281334
vt 0.059345357 0.19148692
vt 0.061233096 0.23868035
vt 0.07444725 0.22169071
vt 0.07822272 0.22924165
vt 0.063120835 0.24434355
vt 0.065008566 0.2518945
vt 0.08388593 0.2311294
vt 0.09143688 0.23301713
vt 0.1027633 0.24056807
vt 0.10842651 0.24434355
vt 0.057457626 0.41990304
vt 0.061233096 0.4538823
vt 0.06878404 0.45765778
vt 0.066896304 0.41801533
vt 0.0819982 0.4161276
vt 0.08766141 0.45765778
vt 0.104651034 0.45010683
vt 0.095212355 0.40857664
vt 0.12164067 0.43122947
vt 0.08011046 0.40480116
vt 0.09143688 0.39913794
vt 0.11031424 0.39347473
vt 0.065008566 0.4066889
vt 0.12919162 0.3859238
vt 0.14051804 0.42556626
vt 0.15561993 0.40291342
vt 0.08011046 0.39536247
vt 0.057457626 0.40291342
vt 0.061233096 0.3972502
vt 0.038580254 0.41046438
vt 0.038580254 0.42367852
vt 0.027253838 0.41423985
vt 0.029141573 0.427454
vt 0.006488735 0.41990304
vt 0.006488735 0.4368927
vt 0.006488735 0.40291342
vt 0.027253838 0.39913794
vt 0.006488735 0.38403606
vt 0.027253838 0.3802606
vt 0.036692522 0.39536247
vt 0.034804784 0.3764851
vt 0.05368215 0.38781154
vt 0.04990668 0.36704642
vt 0.057457626 0.36893415
vt 0.07444725 0.36893415
vt 0.09143688 0.37837285
vt 0.08766141 0.36327097
vt 0.1027633 0.3651587
vt 0.098987825 0.34816906
vt 0.10842651 0.38214833
vt 0.11975293 0.35572
vt 0.11597746 0.3406181
vt 0.12541614 0.3764851
vt 0.12919162 0.34439358
vt 0.11975293 0.33684266
vt 0.12541614 0.32740396
vt 0.14051804 0.36704642
vt 0.13674256 0.35760775
vt 0.14806898 0.34439358
vt 0.17072183 0.38214833
vt 0.17449729 0.33495492
vt 0.13485482 0.3292917
vt 0.12541614 0.31607753
vt 0.14240578 0.33684266
vt 0.14995672 0.33306718
vt 0.17260957 0.31796527
vt 0.14995672 0.31607753
vt 0.14618126 0.32174075
vt 0.13674256 0.31607753
vt 0.12919162 0.29720017
vt 0.13674256 0.28964922
vt 0.12541614 0.2934247
vt 0.13485482 0.28776148
vt 0.14995672 0.31607753
vt 0.14806898 0.2820983
vt 0.17072183 0.2726596
vt 0.17260957 0.31796527
vt 0.15939541 0.2311294
vt 0.14051804 0.2518945
vt 0.13485482 0.28398603
vt 0.13485482 0.28776148
vt 0.13485482 0.24245581
vt 0.15184446 0.22357845
vt 0.12730388 0.26510864
vt 0.12164067 0.25944543
vt 0.12541614 0.28776148
vt 0.12541614 0.2934247
vt 0.11786519 0.27454734
vt 0.11220198 0.27077186
vt 0.1027633 0.24056807
vt 0.10842651 0.24434355
vt 0.11220198 0.22546619
vt 0.11975293 0.22924165
vt 0.11408972 0.21413976
vt 0.12164067 0.25944543
vt 0.11220198 0.27077186
vt 0.13485482 0.24245581
vt 0.12541614 0.2103643
vt 0.15184446 0.22357845
vt 0.14051804 0.17638503
vt 0.11597746 0.15939541
vt 0.10653877 0.1952624
vt 0.10653877 0.16128314
vt 0.09710009 0.19148692
vt 0.1027633 0.16128314
vt 0.09710009 0.21413976
vt 0.11408972 0.21413976
vt 0.11220198 0.22546619
vt 0.1027633 0.24056807
vt 0.09143688 0.23301713
vt 0.08954915 0.21225204
vt 0.08388593 0.2311294
vt 0.08577367 0.2103643
vt 0.07822272 0.22924165
vt 0.07444725 0.22169071
vt 0.09332462 0.18959919
vt 0.0819982 0.20658882
vt 0.066896304 0.20281334
vt 0.08954915 0.18771145
vt 0.098987825 0.15750767
vt 0.07444725 0.1952624
vt 0.059345357 0.19148692
vt 0.0819982 0.17827277
vt 0.095212355 0.14806898
vt 0.08011046 0.12730388
vt 0.065008566 0.16128314
vt 0.07255951 0.12541614
vt 0.057457626 0.15750767
vt 0.059345357 0.17827277
vt 0.05179441 0.17827277
vt 0.05179441 0.1952624
vt 0.027253838 0.19337466
vt 0.029141573 0.17449729
vt 0.006488735 0.18016051
vt 0.006488735 0.16505861
vt 0.006488735 0.14240578
vt 0.032917045 0.14995672
vt 0.032917045 0.11597746
vt 0.006488735 0.104651034
vt 0.038580254 0.11220198
vt 0.032917045 0.11597746
vt 0.066896304 0.11975293
vt 0.07255951 0.12541614
vt 0.19337466 0.42367852
vt 0.19715014 0.41801533
vt 0.1952624 0.36893415
vt 0.19148692 0.36704642
vt 0.1952624 0.36327097
vt 0.1952624 0.33495492
vt 0.19148692 0.43122947
vt 0.1952624 0.33117944
vt 0.17072183 0.38214833
vt 0.18393598 0.4482191
vt 0.16694635 0.45954552
vt 0.17449729 0.47087196
vt 0.17072183 0.48031062
vt 0.16883409 0.48597383
vt 0.16128314 0.48597383
vt 0.14806898 0.48786157
vt 0.15561993 0.40291342
vt 0.17449729 0.33495492
vt 0.14051804 0.42556626
vt 0.18959919 0.3141898
vt 0.19715014 0.30663887
vt 0.17260957 0.31796527
vt 0.19148692 0.25000677
vt 0.19715014 0.30663887
vt 0.19715014 0.28964922
vt 0.2009256 0.2820983
vt 0.17072183 0.2726596
vt 0.20847656 0.26888412
vt 0.22357845 0.23490487
vt 0.21791524 0.25000677
vt 0.22357845 0.24245581
vt 0.22546619 0.24056807
vt 0.22924165 0.23301713
vt 0.18959919 0.19715014
vt 0.15939541 0.2311294
vt 0.21791524 0.14618126
vt 0.2311294 0.22924165
vt 0.23301713 0.19148692
vt 0.23490487 0.14429352
vt 0.19337466 0.13485482
vt 0.17072183 0.17638503
vt 0.17827277 0.14429352
vt 0.15184446 0.22357845
vt 0.16694635 0.14240578
vt 0.14806898 0.15750767
vt 0.14051804 0.17638503
vt 0.11786519 0.14051804
vt 0.14618126 0.12164067
vt 0.11597746 0.15939541
vt 0.11975293 0.11597746
vt 0.095212355 0.14806898
vt 0.10653877 0.16128314
vt 0.1027633 0.16128314
vt 0.098987825 0.15750767
vt 0.08011046 0.12730388
vt 0.09143688 0.10653877
vt 0.100875564 0.09332462
vt 0.08954915 0.059345357
vt 0.066896304 0.11975293
vt 0.07255951 0.12541614
vt 0.05368215 0.061233096
vt 0.08766141 0.034804784
vt 0.038580254 0.11220198
vt 0.032917045 0.11597746
vt 0.006488735 0.104651034
vt 0.012151944 0.47087196
vt 0.006488735 0.46898422
vt 0.006488735 0.47842288
vt 0.010264209 0.47653514
vt 0.015927419 0.47842288
vt 0.03102931 0.46709648
vt 0.029141573 0.47842288
vt 0.04424347 0.46709648
vt 0.036692522 0.47842288
vt 0.04990668 0.47842288
vt 0.057457626 0.45954552
vt 0.057457626 0.48031062
vt 0.061233096 0.4538823
vt 0.059345357 0.48219836
vt 0.06878404 0.45765778
vt 0.063120835 0.48031062
vt 0.070671774 0.48031062
vt 0.07822272 0.48031062
vt 0.08766141 0.45765778
vt 0.09710009 0.48219836
vt 0.104651034 0.45010683
vt 0.098987825 0.48219836
vt 0.10842651 0.4840861
vt 0.12541614 0.47842288
vt 0.12164067 0.43122947
vt 0.12541614 0.48597383
vt 0.12730388 0.48597383
vt 0.14429352 0.47087196
vt 0.1386303 0.48597383
vt 0.14618126 0.48786157
vt 0.19715014 0.30663887
vt 0.19715014 0.30663887
vt 0.19715014 0.30663887
vt 0.19715014 0.30663887
vt 0.19715014 0.30663887
vt 0.1952624 0.33117944
vt 0.19715014 0.33117944
vt 0.1952624 0.33495492
vt 0.08954915 0.059345357
vt 0.12164067 0.008376472
vt 0.08766141 0.034804784
vt 0.11975293 0.034804784
vt 0.100875564 0.09332462
vt 0.16317087 0.008376472
vt 0.12541614 0.061233096
vt 0.11975293 0.11597746
vt 0.14051804 0.06878404
vt 0.14618126 0.12164067
vt 0.16317087 0.05368215
vt 0.18204825 0.008376472
vt 0.17638503 0.070671774
vt 0.16694635 0.14240578
vt 0.17827277 0.14429352
vt 0.18959919 0.070671774
vt 0.19715014 0.008376472
vt 0.19337466 0.13485482
vt 0.20281334 0.063120835
vt 0.21980298 0.008376472
vt 0.22169071 0.08011046
vt 0.21791524 0.14618126
vt 0.23490487 0.14429352
vt 0.23490487 0.11975293
vt 0.23868035 0.07633499
vt 0.24056807 0.021590628
vt 0.23868035 0.008376472
vt 0.24056807 0.008376472
vt 0.029141573 0.427454
vt 0.006488735 0.4368927
vt 0.012151944 0.44066817
vt 0.006488735 0.46898422
vt 0.012151944 0.47087196
vt 0.03102931 0.46709648
vt 0.029141573 0.4368927
vt 0.038580254 0.43500495
vt 0.04424347 0.46709648
vt 0.038580254 0.42367852
vt 0.057457626 0.45954552
vt 0.04990668 0.42934173
vt 0.057457626 0.41990304
vt 0.061233096 0.4538823
vt 0.040467992 0.23868035
vt 0.038580254 0.24434355
vt 0.04801894 0.25000677
vt 0.04801894 0.25000677
vt 0.04801894 0.2518945
vt 0.04424347 0.23490487
vt 0.036692522 0.2518945
vt 0.04990668 0.24811903
vt 0.04801894 0.2537822
vt 0.04990668 0.23490487
vt 0.038580254 0.25755772
vt 0.04990668 0.24811903
vt 0.04801894 0.2537822
vt 0.055569887 0.23679261
vt 0.040467992 0.2632209
vt 0.05179441 0.24811903
vt 0.04990668 0.25566995
vt 0.061233096 0.23868035
vt 0.04424347 0.26699638
vt 0.05179441 0.25000677
vt 0.04990668 0.25566995
vt 0.063120835 0.24434355
vt 0.04990668 0.26888412
vt 0.05368215 0.25000677
vt 0.05179441 0.25566995
vt 0.065008566 0.2518945
vt 0.055569887 0.26699638
vt 0.05368215 0.2518945
vt 0.05179441 0.2537822
vt 0.065008566 0.25755772
vt 0.061233096 0.2632209
vt 0.05368215 0.2537822
vt 0.07633499 0.30097565
vt 0.07444725 0.3141898
vt 0.07633499 0.3141898
vt 0.070671774 0.3028634
vt 0.0819982 0.3028634
vt 0.07444725 0.31607753
vt 0.07633499 0.3141898
vt 0.065008566 0.30475113
vt 0.08577367 0.30663887
vt 0.07444725 0.31607753
vt 0.07822272 0.31607753
vt 0.063120835 0.31041434
vt 0.08954915 0.31041434
vt 0.07255951 0.31796527
vt 0.07822272 0.31607753
vt 0.061233096 0.31796527
vt 0.09143688 0.31796527
vt 0.07444725 0.31796527
vt 0.07822272 0.31796527
vt 0.061233096 0.3236285
vt 0.08954915 0.3236285
vt 0.07444725 0.319853
vt 0.07822272 0.31796527
vt 0.065008566 0.3292917
vt 0.08577367 0.3292917
vt 0.07444725 0.319853
vt 0.07822272 0.319853
vt 0.070671774 0.33306718
vt 0.0819982 0.33306718
vt 0.07633499 0.319853
vt 0.07633499 0.319853
vt 0.07633499 0.33495492
vn -0.015871048 0.999874 -0.00034526698
vn -0.015871048 0.999874 -0.00034526698
vn -0.015871048 0.999874 -0.00034526698
vn -0.015871048 0.999874 -0.00034526698
vn -0.015871048 0.999874 -0.00034526698
vn -0.015871048 0.999874 -0.00034526698
vn -0.015871048 0.999874 -0.00034526698
vn -0.015871048 0.999874 -0.00034526698
vn -0.015871048 0.999874 -0.00034526698
vn -0.015871048 0.999874 -0.00034526698
vn -0.015871048 0.999874 -0.00034526698
vn -0.015871048 0.999874 -0.00034526698
vn -0.015871048 0.999874 -0.00034526698
vn -0.015871048 0.999874 -0.00034526698
vn -0.015871048 0.999874 -0.00034526698
vn -0.015871048 0.999874 -0.00034526698
vn -0.015871048 0.999874 -0.00034526698
vn -0.015871048 0.999874 -0.00034526698
vn -0.015871048 0.999874 -0.00034526698
vn -0.015871048 0.999874 -0.00034526698
vn -0.015871048 0.999874 -0.00034526698
vn -0.015871048 0.999874 -0.00034526698
vn -0.015871048 0.999874 -0.00034526698
vn -0.015871048 0.999874 -0.00034526698
vn -0.015871048 0.999874 -0.00034526698
vn -0.015871048 0.999874 -0.00034526698
vn -0.015871048 0.999874 -0.00034526698
vn -0.015871048 0.999874 -0.00034526698
vn -0.015871048 0.999874 -0.00034526698
vn -0.015871048 0.999874 -0.00034526698
vn -0.015871048 0.999874 -0.00034526698
vn -0.015871048 0.999874 -0.00034526698
vn 0.015870988 0.999874 -0.00034526698
vn 0.015870988 0.999874 -0.00034526698
vn 0.015870988 0.999874 -0.00034526698
vn 0.015870988 0.999874 -0.00034526698
vn 0.015870988 0.999874 -0.00034526698
vn 0.015870988 0.999874 -0.00034526698
vn -0.015871048 0.999874 -0.00034526698
vn 0.015870988 0.999874 -0.00034526698
vn 0.015870988 0.999874 -0.00034526698
vn 0.015870988 0.999874 -0.00034526698
vn 0.015870988 0.999874 -0.00034526698
vn 0.015870988 0.999874 -0.00034526698
vn 0.015870988 0.999874 -0.00034526698
vn 0.015870988 0.999874 -0.00034526698
vn 0.015870988 0.999874 -0.00034526698
vn 0.015870988 0.999874 -0.00034526698
vn 0.015870988 0.999874 -0.00034526698
vn 0.015870988 0.999874 -0.00034526698
vn 0.015870988 0.999874 -0.00034526698
vn 0.015870988 0.999874 -0.00034526698
vn 0.015870988 0.999874 -0.00034526698
vn 0.015870988 0.999874 -0.00034526698
vn 0.015870988 0.999874 -0.00034526698
vn 0.015870988 0.999874 -0.00034526698
vn 0.015870988 0.999874 -0.00034526698
vn 0.015870988 0.999874 -0.00034526698
vn 0.015870988 0.999874 -0.00034526698
vn 0.015870988 0.999874 -0.00034526698
vn 0.015870988 0.999874 -0.00034526698
vn 0.015870988 0.999874 -0.00034526698
vn 0.015870988 0.999874 -0.00034526698
vn 0.015870988 0.999874 -0.00034526698
vn 0.015870988 0.999874 -0.00034526698
vn 0.015870988 0.999874 -0.00034526698
vn 0.015870988 0.999874 -0.00034526698
vn 0.015870988 0.999874 -0.00034526698
vn 0.015870988 0.999874 -0.00034526698
vn 0.015870988 0.999874 -0.00034526698
vn -0.015871048 0.999874 -0.00034526698
vn 0.015870988 0.999874 -0.00034526698
vn 0.015870988 0.999874 -0.00034526698
vn 0.015870988 0.999874 -0.00034526698
vn 0.015870988 0.999874 -0.00034526698
vn 0.015870988 0.999874 -0.00034526698
vn 0.015870988 0.999874 -0.00034526698
vn 0.015870988 0.999874 -0.00034526698
vn 0.015870988 0.999874 -0.00034526698
vn 0.015870988 0.999874 -0.00034526698
vn 0.015870988 0.999874 -0.00034526698
vn 0.015870988 0.999874 -0.00034526698
vn 0.015870988 0.999874 -0.00034526698
vn 0.015870988 0.999874 -0.00034526698
vn 0.015870988 0.999874 -0.00034526698
vn 0.015870988 0.999874 -0.00034526698
vn 0.015870988 0.999874 -0.00034526698
vn 0.015870988 0.999874 -0.00034526698
vn 0.015870988 0.999874 -0.00034526698
vn 0.015870988 0.999874 -0.00034526698
vn 0.015870988 0.999874 -0.00034526698
vn -0.015871048 0.999874 -0.00034526698
vn -0.26980734 0.3332913 -0.9033941
vn -0.5872276 0.17458117 -0.7903703
vn -0.30154932 0.17458117 -0.937331
vn -0.30154932 0.30154932 -0.9045087
vn 0.07935506 0.26980734 -0.9596389
vn 0.07935506 0.17458117 -0.9814398
vn 0.5237435 0.17458117 -0.833795
vn 0.5237435 0.30154932 -0.7967187
vn 0.30154932 0.17458117 -0.937331
vn 0.047613025 0.7776798 -0.62685496
vn 0.4285174 0.65071166 -0.626855
vn 0.30154932 0.3650334 -0.8808057
vn -0.23806524 0.7776798 -0.5818411
vn 0.23806524 0.3332913 -0.9122729
vn 0.2063232 0.20632327 -0.9564839
vn 0.6189696 0.23806524 -0.74846613
vn 0.015870988 0.65071166 -0.759159
vn 0.14283913 0.49200153 -0.85879654
vn -0.1110971 0.6189697 -0.77751786
vn 0.26980728 0.39677536 -0.87736726
vn 0.26980728 0.3650334 -0.8910413
vn 0.1110971 0.42851746 -0.8966773
vn 0.1110971 0.39677536 -0.9111678
vn 0.047613025 0.46025944 -0.8865068
vn 0.07935506 0.42851746 -0.90004194
vn 0.047613025 0.5237435 -0.8505444
vn 0.07935506 0.5237435 -0.8481719
vn 0.047613025 0.5872276 -0.8080203
vn 0.07935506 0.5872276 -0.8055225
vn 0.26980728 0.5237435 -0.8080203
vn 0.26980728 0.5872276 -0.76313025
vn 0.23806524 0.5237435 -0.817935
vn 0.2063232 0.5554856 -0.8055225
vn -0.1110971 0.49200153 -0.86347663
vn 0.015870988 0.49200153 -0.87044966
vn 0.46025944 0.49200153 -0.7389829
vn 0.39677536 0.49200153 -0.7749218
vn 0.30154932 0.49200153 -0.8167022
vn 0.30154932 0.49200153 -0.8167022
vn 0.26980728 0.6189697 -0.73761815
vn 0.23806524 0.49200153 -0.83741236
vn 0.23806524 0.42851746 -0.87160635
vn 0.17458117 0.7141957 -0.6778244
vn 0.6189696 0.39677536 -0.6778244
vn 0.5872276 0.30154932 -0.7511536
vn 0.8094218 0.30154932 -0.5038893
vn 0.6189696 0.3650334 -0.69543314
vn 0.5237435 0.65071166 -0.54978824
vn 0.8411638 0.30154932 -0.44890028
vn 0.8411638 0.23806524 -0.48555988
vn 0.96813196 0.17458117 0.17956044
vn 0.8411638 0.3332913 -0.42586425
vn 0.9632913 0.2684583 -0
vn 0.7141957 0.5554856 -0.42586413
vn 0.96813196 0.23806524 0.07775266
vn 0.8411638 0.17458117 0.511825
vn 0.8411638 0.1428392 0.521575
vn 0.9363899 0.30154932 0.1795603
vn 0.96813196 0.20632327 -0.14195509
vn 0.9632913 0.2684583 -0
vn 0.96813196 0.17458117 0.17956044
vn 0.33329135 0.42851746 0.8398152
vn 0.36503333 0.3650334 0.8564469
vn 0.98994946 0.14142141 -0
vn 0.9363899 0.1110971 0.3329134
vn 0.96813196 0.1110971 0.22445038
vn 0.98994946 0.14142141 -0
vn 0.7141957 0.015871048 0.6997661
vn 0.68245363 0.1428392 0.7168361
vn 0.7776798 0.3332913 0.53303945
vn 0.954758 0.29738364 -0
vn 0.14283913 0.1428392 0.9793845
vn 0.14283913 -0.015870988 0.98961866
vn 0.5872276 0.39677536 0.705502
vn 0.07935506 0.39677536 0.91447914
vn 0.7459377 0.39677536 0.53492635
vn 0.954758 0.29738364 -0
vn 0.46025944 0.46025944 0.7591591
vn 0.07935506 0.42851746 0.90004194
vn 0.23806524 0.1428392 0.96068823
vn 0.65071166 0.42851746 0.62685496
vn -0.23806524 0.49200153 0.83741236
vn 0.65071166 0.46025944 0.6039334
vn -0.1110971 0.7776798 0.6187662
vn 0.7776798 0.42851746 0.4599858
vn 0.7459377 0.46025944 0.4813919
vn 0.87290585 0.17458117 0.45558402
vn 0.55548555 0.23806524 0.7967187
vn 0.9046479 0.07935512 0.4187063
vn 0.55548555 0.17458117 0.81299275
vn -0.07935512 0.20632327 0.97526073
vn -0.07935512 0.26980734 0.9596389
vn -0.46025944 0.1428392 0.87621814
vn -0.42851746 0.1428392 0.8921714
vn 0.23806524 0.1428392 0.96068823
vn 0.14283913 0.3650334 0.9199715
vn 0.4285174 0.42851746 0.7954531
vn 0.4285174 0.3650334 0.8265128
vn 0.4285174 0.30154932 0.85172814
vn 0.26980728 0.3650334 0.8910413
vn -0.20632327 0.30154932 0.93085915
vn -0.047613025 0.49200153 0.86929137
vn 0.39677536 0.23806524 0.88650674
vn 0.46025944 0.42851746 0.77751786
vn 0.9046479 0.3332913 0.26557317
vn 0.26980728 0.1110971 0.9564839
vn 0.96813196 0.1428392 0.20571218
vn 0.87290585 0.30154932 0.3835406
vn 0.96813196 0.047613025 0.245873
vn 0.99886817 0.04756513 -0
vn 0.9046479 0.1110971 0.4114239
vn 0.49200147 0.39677536 0.77492183
vn 0.9046479 0.047613025 0.42349166
vn 0.87290585 0.047613025 0.48555985
vn 0.49200147 0.015871048 0.8704497
vn 0.46025944 -0.015870988 0.8876426
vn -0.46025944 -0.14283913 0.87621814
vn -0.17458117 0.047613025 0.98349094
vn 0.49200147 0.1428392 0.85879654
vn -0.17458117 0.26980734 0.94695586
vn -0.1428392 0.5554856 0.8191659
vn 0.07935506 0.5237435 0.8481719
vn 0.1110971 0.23806524 0.96487427
vn 0.23806524 0.49200153 0.83741236
vn 0.26980728 0.20632327 0.9405502
vn 0.26980728 -0.015870988 0.9627835
vn 0.07935506 0.047613025 0.9957087
vn 0.30154932 -0.015870988 0.9533185
vn 0.30154932 -0.015870988 0.9533185
vn -0.1428392 0.1428392 0.9793845
vn -0.7141957 0.07935512 0.69543314
vn 0.015870988 0.17458117 0.98451483
vn 0.96813196 0.07935512 0.2375359
vn -0.015871048 0.999874 -0.00034526698
vn -0.079116344 0.9968654 -0
vn -0.015871048 0.999874 -0.00034526698
vn 0.04756513 0.99886817 -0
vn 0.015870988 0.999874 -0.00034526698
vn -0.110431515 0.9938838 -0
vn -0.015871048 0.999874 -0.00034526698
vn -0.110431515 0.9938838 -0
vn 0.14142135 0.98994946 -0
vn 0.015870988 0.999874 -0.00034526698
vn 0.110431515 0.9938838 -0
vn 0.079116285 0.9968654 -0
vn 0.110431515 0.9938838 -0
vn 0.110431515 0.9938838 -0
vn 0.110431515 0.9938838 -0
vn 0.079116285 0.9968654 -0
vn 0.17458117 0.968132 -0.17956008
vn 0.14142135 0.98994946 -0
vn 0.1110971 0.968132 -0.2244501
vn 0.110431515 0.9938838 -0
vn 0.079116285 0.9968654 -0
vn 0.110431515 0.9938838 -0
vn 0.04756513 0.99886817 -0
vn 0.079116285 0.9968654 -0
vn 0.110431515 0.9938838 -0
vn 0.2063232 0.968132 -0.1419547
vn 0.079116285 0.9968654 -0
vn 0.07935506 0.968132 -0.23753566
vn -0.110431515 0.9938838 -0
vn -0.015871048 0.999874 -0.00034526698
vn -0.1428392 0.968132 -0.20571192
vn -0.1110971 0.968132 -0.2244501
vn -0.110431515 0.9938838 -0
vn -0.015871048 0.999874 -0.00034526698
vn 0.079116285 0.9968654 -0
vn -0.1110971 0.968132 -0.2244501
vn -0.1110971 0.968132 -0.2244501
vn -0.1110971 0.968132 -0.2244501
vn -0.110431515 0.9938838 -0
vn -0.079116344 0.9968654 -0
vn 0.015870988 0.999874 -0.00034526698
vn 0.1110971 0.968132 -0.2244501
vn 0.04756513 0.99886817 -0
vn -0.1110971 0.968132 -0.2244501
vn 0.015870988 0.999874 -0.00034526698
vn 0.17458117 0.968132 0.17956008
vn 0.015870988 0.999874 -0.00034526698
vn -0.047613025 0.968132 -0.24587277
vn 0.047613025 0.968132 0.24587277
vn -0.07935512 0.968132 -0.23753566
vn 0.14283913 0.968132 0.20571192
vn -0.015871048 0.999874 -0.00034526698
vn -0.015871048 0.999874 -0.00034526698
vn -0.015871048 0.999874 -0.00034526698
vn 0.110431515 0.9938838 -0
vn -0.04756513 0.99886817 -0
vn -0.1110971 0.968132 -0.2244501
vn -0.110431515 0.9938838 -0
vn 0.015870988 0.999874 -0.00034526698
vn 0.015870988 0.999874 -0.00034526698
vn -0.015871048 0.999874 -0.00034526698
vn -0.110431515 0.9938838 -0
vn 0.015870988 0.999874 -0.00034526698
vn 0.015870988 0.999874 -0.00034526698
vn 0.015870988 0.999874 -0.00034526698
vn 0.015870988 0.999874 -0.00034526698
vn 0.015870988 0.999874 -0.00034526698
vn 0.015870988 0.999874 -0.00034526698
vn 0.015870988 0.999874 -0.00034526698
vn 0.015870988 0.999874 -0.00034526698
vn 0.015870988 0.999874 -0.00034526698
vn 0.015870988 0.999874 -0.00034526698
vn 0.015870988 0.999874 -0.00034526698
vn 0.015870988 0.999874 -0.00034526698
vn 0.015870988 0.999874 -0.00034526698
vn 0.015870988 0.999874 -0.00034526698
vn 0.015870988 0.999874 -0.00034526698
vn 0.110431515 0.9938838 -0
vn 0.079116285 0.9968654 -0
vn 0.079116285 0.9968654 -0
vn 0.04756513 0.99886817 -0
vn 0.04756513 0.99886817 -0
vn 0.015870988 0.999874 -0.00034526698
vn 0.015870988 0.999874 -0.00034526698
vn 0.015870988 0.999874 -0.00034526698
vn 0.04756513 0.99886817 -0
vn 0.015870988 0.999874 -0.00034526698
vn 0.015870988 0.999874 -0.00034526698
vn 0.04756513 0.99886817 -0
vn 0.079116285 0.9968654 -0
vn 0.04756513 0.99886817 -0
vn 0.04756513 0.99886817 -0
vn 0.079116285 0.9968654 -0
vn 0.079116285 0.9968654 -0
vn 0.079116285 0.9968654 -0
vn -0.87290585 0.39677536 0.28390965
vn -0.87290585 0.39677536 0.28390965
vn -0.87290585 0.39677536 0.28390965
vn -0.87290585 0.39677536 0.28390965
vn -0.87290585 0.39677536 0.28390965
vn -0.8411639 0.42851746 -0.32987288
vn -0.8411639 0.42851746 -0.32987288
vn -0.8411639 0.46025944 -0.28390947
vn -0.8094218 0.46025944 -0.36468846
vn -0.7378054 0.6750134 -0
vn -0.87115216 0.49101308 -0
vn -0.68245375 0.65071166 -0.33291325
vn -0.5872276 0.46025944 -0.66582656
vn -0.047613025 0.90464795 -0.42349154
vn -0.49200153 0.6189697 -0.61221814
vn -0.1110971 0.49200153 -0.86347663
vn -0.015871048 0.6189697 -0.78525454
vn -0.07935512 0.5554856 -0.82773095
vn -0.07935512 0.7141957 -0.69543314
vn 0.047613025 0.87290585 -0.48555985
vn -0.17458117 0.7141957 -0.6778244
vn -0.20632327 0.65071166 -0.73075646
vn 0.23806524 0.6189697 -0.7484661
vn 0.23806524 0.7141957 -0.65821683
vn 0.1110971 0.8411639 -0.52924544
vn 0.1110971 0.68245375 -0.72243637
vn 0.047613025 0.7776798 -0.62685496
vn -0.047613025 0.8094218 -0.5852943
vn -0.1110971 0.7776798 -0.6187662
vn -0.1428392 0.7459378 -0.65051806
vn -0.1110971 0.7459378 -0.6566842
vn -0.1110971 0.7459378 -0.6566842
vn -0.1110971 0.7776798 -0.6187662
vn -0.1110971 0.8094218 -0.5766228
vn -0.1110971 0.8411639 -0.52924544
vn -0.1110971 0.8411639 -0.52924544
vn 0.015870988 0.999874 -0.00034526698
vn -0.5237435 0.6189697 -0.5852942
vn -0.07935512 0.42851746 -0.90004194
vn -0.7141957 0.17458117 -0.6778244
vn -0.07935512 0.17458117 -0.9814398
vn 0.1110971 0.17458117 -0.97835517
vn 0.07935506 0.46025944 -0.8842308
vn 0.2063232 0.39677536 -0.8944272
vn 0.23806524 0.17458117 -0.9554299
vn 0.047613025 0.968132 -0.24587277
vn 0.5872276 0.17458117 -0.7903703
vn 0.55548555 0.42851746 -0.7126069
vn 0.7141957 0.42851746 -0.5534413
vn 0.8094218 0.1428392 -0.56959057
vn 0.7141957 0.015871048 -0.6997661
vn 0.9363899 0.015871048 -0.35060233
vn 0.9363899 0.015871048 -0.35060233
vn 0.7141957 0.015871048 -0.6997661
vn 0.999874 0.015871048 -0.00034391563
vn 0.39677536 0.015871048 -0.9177785
vn 0.999874 0.015871048 -0.00034391563
vn 0.39677536 0.015871048 -0.9177785
vn 0.9363899 0.015871048 0.35060233
vn 0.015870988 0.015871048 -0.99974805
vn 0.9363899 0.015871048 0.35060233
vn -0.015871048 0.015871048 -0.99974805
vn 0.7141957 0.015871048 0.6997661
vn -0.39677536 0.015871048 -0.9177785
vn 0.7141957 0.015871048 0.6997661
vn -0.39677536 0.015871048 -0.9177785
vn 0.39677536 0.015871048 0.9177785
vn -0.7141957 0.015871048 -0.6997661
vn 0.39677536 0.015871048 0.9177785
vn -0.7141957 0.015871048 -0.6997661
vn -0.015871048 0.015871048 0.99974805
vn -0.9363899 0.015871048 -0.35060233
vn 0.015870988 0.015871048 0.99974805
vn -0.9363899 0.015871048 -0.35060233
vn -0.39677536 0.015871048 0.9177785
vn -0.999874 0.015871048 -0.00034391563
vn -0.39677536 0.015871048 0.9177785
vn -0.999874 0.015871048 -0.00034391563
vn -0.7141957 0.015871048 0.6997661
vn -0.9363899 0.015871048 0.35060233
vn -0.7141957 0.015871048 0.6997661
vn -0.9363899 0.015871048 0.35060233
vn 0.015870988 0.015871048 -0.99974805
vn 0.39677536 0.015871048 -0.9177785
vn -0.015871048 0.015871048 -0.99974805
vn 0.39677536 0.015871048 -0.9177785
vn -0.39677536 0.015871048 -0.9177785
vn 0.7141957 0.015871048 -0.6997661
vn -0.39677536 0.015871048 -0.9177785
vn 0.7141957 0.015871048 -0.6997661
vn -0.7141957 0.015871048 -0.6997661
vn 0.9363899 0.015871048 -0.35060233
vn -0.7141957 0.015871048 -0.6997661
vn 0.9363899 0.015871048 -0.35060233
vn -0.9363899 0.015871048 -0.35060233
vn 0.999874 0.015871048 -0.00034391563
vn -0.9363899 0.015871048 -0.35060233
vn 0.999874 0.015871048 -0.00034391563
vn -0.999874 0.015871048 -0.00034391563
vn 0.9363899 0.015871048 0.35060233
vn -0.999874 0.015871048 -0.00034391563
vn 0.9363899 0.015871048 0.35060233
vn -0.9363899 0.015871048 0.35060233
vn 0.7141957 0.015871048 0.6997661
vn -0.9363899 0.015871048 0.35060233
vn 0.7141957 0.015871048 0.6997661
vn -0.7141957 0.015871048 0.6997661
vn 0.39677536 0.015871048 0.9177785
vn -0.7141957 0.015871048 0.6997661
vn 0.39677536 0.015871048 0.9177785
vn -0.39677536 0.015871048 0.9177785
vn -0.015871048 0.015871048 0.99974805
vn -0.39677536 0.015871048 0.9177785
vn 0.015870988 0.015871048 0.99974805
g tb_geo_section_02_mesh_0
f 3/3/3 2/2/2 1/1/1
f 3/3/3 1/1/1 4/4/4
f 5/5/5 3/3/3 4/4/4
f 5/5/5 4/4/4 6/6/6
f 7/7/7 5/5/5 6/6/6
f 7/7/7 6/6/6 8/8/8
f 6/6/6 9/9/9 8/8/8
f 9/9/9 10/10/10 8/8/8
f 10/10/10 11/11/11 8/8/8
f 10/10/10 12/12/12 11/11/11
f 12/12/12 13/13/13 11/11/11
f 12/12/12 14/14/14 13/13/13
f 14/14/14 15/15/15 13/13/13
f 14/14/14 16/16/16 15/15/15
f 19/19/19 18/18/18 17/17/17
f 18/18/18 20/20/20 17/17/17
f 20/20/20 21/21/21 17/17/17
f 20/20/20 22/22/22 21/21/21
f 22/22/22 23/23/23 21/21/21
f 22/22/22 24/24/24 23/23/23
f 24/24/24 25/25/25 23/23/23
f 24/24/24 26/26/26 25/25/25
f 26/26/26 27/27/27 25/25/25
f 26/26/26 28/28/28 27/27/27
f 28/28/28 29/29/29 27/27/27
f 28/28/28 30/30/30 29/29/29
f 30/30/30 31/31/31 29/29/29
f 30/30/30 32/32/32 31/31/31
f 35/35/35 34/34/34 33/33/33
f 36/36/36 34/34/34 35/35/35
f 36/36/36 35/35/35 37/37/37
f 38/38/38 34/34/34 36/36/36
f 34/34/34 38/38/38 39/39/39
f 39/39/39 38/38/38 40/40/40
f 34/34/34 39/39/39 41/41/41
f 36/36/36 37/37/37 42/42/42
f 42/42/42 37/37/37 43/43/43
f 36/36/36 42/42/42 44/44/44
f 43/43/43 37/37/37 45/45/45
f 43/43/43 45/45/45 46/46/46
f 46/46/46 45/45/45 47/47/47
f 47/47/47 45/45/45 48/48/48
f 47/47/47 48/48/48 49/49/49
f 49/49/49 48/48/48 50/50/50
f 49/49/49 50/50/50 51/51/51
f 36/36/36 44/44/44 52/52/52
f 51/51/51 50/50/50 53/53/53
f 51/51/51 53/53/53 54/54/54
f 54/54/54 53/53/53 55/55/55
f 56/56/56 55/55/55 53/53/53
f 56/56/56 57/57/57 55/55/55
f 56/56/56 58/58/58 57/57/57
f 56/56/56 59/59/59 58/58/58
f 36/36/36 52/52/52 60/60/60
f 56/56/56 61/61/61 59/59/59
f 56/56/56 53/53/53 62/62/62
f 63/63/63 61/61/61 56/56/56
f 63/63/63 64/64/64 61/61/61
f 56/56/56 62/62/62 65/65/65
f 65/65/65 62/62/62 66/66/66
f 67/67/67 66/66/66 62/62/62
f 68/68/68 64/64/64 63/63/63
f 68/68/68 60/60/60 64/64/64
f 69/69/69 67/67/67 62/62/62
f 69/69/69 70/70/70 67/67/67
f 69/69/69 71/71/71 70/70/70
f 69/69/69 72/72/72 71/71/71
f 72/72/72 73/73/73 71/71/71
f 72/72/72 69/69/69 74/74/74
f 72/72/72 74/74/74 75/75/75
f 72/72/72 75/75/75 76/76/76
f 72/72/72 77/77/77 73/73/73
f 78/78/78 77/77/77 72/72/72
f 78/78/78 79/79/79 77/77/77
f 78/78/78 80/80/80 79/79/79
f 78/78/78 81/81/81 80/80/80
f 82/82/82 81/81/81 78/78/78
f 82/82/82 78/78/78 83/83/83
f 82/82/82 84/84/84 81/81/81
f 85/85/85 84/84/84 82/82/82
f 85/85/85 86/86/86 84/84/84
f 86/86/86 87/87/87 84/84/84
f 86/86/86 88/88/88 87/87/87
f 86/86/86 68/68/68 88/88/88
f 86/86/86 60/60/60 68/68/68
f 89/89/89 60/60/60 86/86/86
f 89/89/89 90/90/90 60/60/60
f 91/91/91 60/60/60 90/90/90
f 36/36/36 60/60/60 91/91/91
f 36/36/36 91/91/91 92/92/92
f 95/95/95 94/94/94 93/93/93
f 96/96/96 95/95/95 93/93/93
f 96/96/96 97/97/97 95/95/95
f 97/97/97 98/98/98 95/95/95
f 99/99/99 98/98/98 97/97/97
f 100/100/100 99/99/99 97/97/97
f 101/101/101 99/99/99 100/100/100
f 102/102/102 97/97/97 96/96/96
f 103/103/103 100/100/100 97/97/97
f 102/102/102 103/103/103 97/97/97
f 104/104/104 101/101/101 100/100/100
f 104/104/104 100/100/100 103/103/103
f 105/105/105 102/102/102 96/96/96
f 105/105/105 96/96/96 93/93/93
f 104/104/104 106/106/106 101/101/101
f 106/106/106 107/107/107 101/101/101
f 108/108/108 107/107/107 106/106/106
f 109/109/109 103/103/103 102/102/102
f 109/109/109 102/102/102 105/105/105
f 110/110/110 105/105/105 93/93/93
f 111/111/111 109/109/109 105/105/105
f 110/110/110 111/111/111 105/105/105
f 110/110/110 93/93/93 112/112/112
f 93/93/93 113/113/113 112/112/112
f 112/112/112 113/113/113 114/114/114
f 113/113/113 115/115/115 114/114/114
f 114/114/114 115/115/115 116/116/116
f 115/115/115 117/117/117 116/116/116
f 114/114/114 116/116/116 118/118/118
f 119/119/119 114/114/114 118/118/118
f 112/112/112 114/114/114 119/119/119
f 119/119/119 118/118/118 120/120/120
f 121/121/121 119/119/119 120/120/120
f 122/122/122 112/112/112 119/119/119
f 122/122/122 119/119/119 121/121/121
f 110/110/110 112/112/112 122/122/122
f 123/123/123 122/122/122 121/121/121
f 124/124/124 110/110/110 122/122/122
f 124/124/124 122/122/122 123/123/123
f 110/110/110 124/124/124 111/111/111
f 125/125/125 124/124/124 123/123/123
f 124/124/124 125/125/125 126/126/126
f 111/111/111 124/124/124 126/126/126
f 126/126/126 127/127/127 111/111/111
f 127/127/127 109/109/109 111/111/111
f 128/128/128 109/109/109 127/127/127
f 129/129/129 128/128/128 127/127/127
f 109/109/109 128/128/128 103/103/103
f 130/130/130 128/128/128 129/129/129
f 131/131/131 130/130/130 129/129/129
f 132/132/132 103/103/103 128/128/128
f 130/130/130 132/132/132 128/128/128
f 132/132/132 104/104/104 103/103/103
f 130/130/130 131/131/131 133/133/133
f 130/130/130 133/133/133 132/132/132
f 131/131/131 134/134/134 133/133/133
f 132/132/132 135/135/135 104/104/104
f 133/133/133 135/135/135 132/132/132
f 135/135/135 106/106/106 104/104/104
f 133/133/133 134/134/134 136/136/136
f 134/134/134 137/137/137 136/136/136
f 137/137/137 138/138/138 136/136/136
f 139/139/139 106/106/106 135/135/135
f 139/139/139 108/108/108 106/106/106
f 140/140/140 135/135/135 133/133/133
f 140/140/140 139/139/139 135/135/135
f 136/136/136 140/140/140 133/133/133
f 139/139/139 141/141/141 108/108/108
f 141/141/141 139/139/139 140/140/140
f 141/141/141 142/142/142 108/108/108
f 143/143/143 142/142/142 141/141/141
f 138/138/138 144/144/144 136/136/136
f 138/138/138 145/145/145 144/144/144
f 140/140/140 136/136/136 146/146/146
f 146/146/146 141/141/141 140/140/140
f 136/136/136 144/144/144 146/146/146
f 147/147/147 143/143/143 141/141/141
f 141/141/141 146/146/146 147/147/147
f 143/143/143 147/147/147 148/148/148
f 147/147/147 149/149/149 148/148/148
f 146/146/146 150/150/150 147/147/147
f 149/149/149 147/147/147 150/150/150
f 146/146/146 144/144/144 150/150/150
f 149/149/149 150/150/150 151/151/151
f 144/144/144 151/151/151 150/150/150
f 145/145/145 151/151/151 144/144/144
f 145/145/145 152/152/152 151/151/151
f 152/152/152 153/153/153 151/151/151
f 152/152/152 154/154/154 153/153/153
f 154/154/154 155/155/155 153/153/153
f 151/151/151 153/153/153 156/156/156
f 157/157/157 153/153/153 155/155/155
f 153/153/153 157/157/157 156/156/156
f 156/156/156 157/157/157 158/158/158
f 159/159/159 156/156/156 158/158/158
f 160/160/160 158/158/158 157/157/157
f 161/161/161 160/160/160 157/157/157
f 161/161/161 157/157/157 162/162/162
f 157/157/157 163/163/163 162/162/162
f 161/161/161 164/164/164 160/160/160
f 164/164/164 165/165/165 160/160/160
f 164/164/164 161/161/161 166/166/166
f 166/166/166 161/161/161 162/162/162
f 167/167/167 164/164/164 166/166/166
f 168/168/168 162/162/162 163/163/163
f 166/166/166 162/162/162 168/168/168
f 169/169/169 168/168/168 163/163/163
f 170/170/170 166/166/166 168/168/168
f 167/167/167 166/166/166 170/170/170
f 171/171/171 167/167/167 170/170/170
f 174/174/174 173/173/173 172/172/172
f 174/174/174 175/175/175 173/173/173
f 174/174/174 176/176/176 175/175/175
f 173/173/173 175/175/175 177/177/177
f 178/178/178 173/173/173 177/177/177
f 177/177/177 175/175/175 179/179/179
f 176/176/176 180/180/180 175/175/175
f 175/175/175 180/180/180 179/179/179
f 179/179/179 180/180/180 181/181/181
f 180/180/180 182/182/182 181/181/181
f 183/183/183 182/182/182 180/180/180
f 176/176/176 184/184/184 180/180/180
f 184/184/184 183/183/183 180/180/180
f 185/185/185 183/183/183 184/184/184
f 186/186/186 185/185/185 184/184/184
f 187/187/187 185/185/185 186/186/186
f 186/186/186 184/184/184 188/188/188
f 188/188/188 184/184/184 189/189/189
f 190/190/190 188/188/188 189/189/189
f 188/188/188 190/190/190 191/191/191
f 192/192/192 188/188/188 191/191/191
f 193/193/193 188/188/188 192/192/192
f 193/193/193 186/186/186 188/188/188
f 194/194/194 193/193/193 192/192/192
f 195/195/195 193/193/193 194/194/194
f 193/193/193 195/195/195 186/186/186
f 196/196/196 195/195/195 194/194/194
f 196/196/196 197/197/197 195/195/195
f 198/198/198 187/187/187 186/186/186
f 195/195/195 198/198/198 186/186/186
f 197/197/197 199/199/199 195/195/195
f 195/195/195 199/199/199 198/198/198
f 197/197/197 200/200/200 199/199/199
f 198/198/198 201/201/201 187/187/187
f 199/199/199 201/201/201 198/198/198
f 201/201/201 202/202/202 187/187/187
f 200/200/200 203/203/203 199/199/199
f 199/199/199 203/203/203 201/201/201
f 204/204/204 203/203/203 200/200/200
f 201/201/201 205/205/205 202/202/202
f 203/203/203 205/205/205 201/201/201
f 205/205/205 206/206/206 202/202/202
f 207/207/207 206/206/206 205/205/205
f 208/208/208 207/207/207 205/205/205
f 208/208/208 205/205/205 203/203/203
f 209/209/209 207/207/207 208/208/208
f 210/210/210 209/209/209 208/208/208
f 204/204/204 211/211/211 203/203/203
f 211/211/211 208/208/208 203/203/203
f 212/212/212 211/211/211 204/204/204
f 208/208/208 211/211/211 212/212/212
f 210/210/210 208/208/208 212/212/212
f 213/213/213 212/212/212 204/204/204
f 212/212/212 213/213/213 214/214/214
f 215/215/215 212/212/212 214/214/214
f 212/212/212 215/215/215 210/210/210
f 214/214/214 216/216/216 215/215/215
f 216/216/216 217/217/217 215/215/215
f 217/217/217 218/218/218 215/215/215
f 218/218/218 219/219/219 215/215/215
f 215/215/215 219/219/219 210/210/210
f 219/219/219 218/218/218 220/220/220
f 218/218/218 221/221/221 220/220/220
f 219/219/219 222/222/222 210/210/210
f 219/219/219 223/223/223 222/222/222
f 222/222/222 224/224/224 210/210/210
f 210/210/210 224/224/224 225/225/225
f 228/228/228 227/227/227 226/226/226
f 229/229/229 228/228/228 226/226/226
f 230/230/230 228/228/228 229/229/229
f 231/231/231 230/230/230 229/229/229
f 226/226/226 232/232/232 229/229/229
f 233/233/233 231/231/231 229/229/229
f 232/232/232 234/234/234 229/229/229
f 235/235/235 234/234/234 232/232/232
f 236/236/236 234/234/234 235/235/235
f 236/236/236 235/235/235 237/237/237
f 236/236/236 237/237/237 238/238/238
f 238/238/238 239/239/239 236/236/236
f 239/239/239 240/240/240 236/236/236
f 236/236/236 240/240/240 241/241/241
f 242/242/242 234/234/234 236/236/236
f 234/234/234 243/243/243 229/229/229
f 236/236/236 244/244/244 242/242/242
f 233/233/233 229/229/229 245/245/245
f 243/243/243 245/245/245 229/229/229
f 233/233/233 245/245/245 246/246/246
f 243/243/243 247/247/247 245/245/245
f 246/246/246 245/245/245 248/248/248
f 247/247/247 248/248/248 245/245/245
f 248/248/248 249/249/249 246/246/246
f 248/248/248 250/250/250 249/249/249
f 251/251/251 250/250/250 248/248/248
f 247/247/247 252/252/252 248/248/248
f 253/253/253 251/251/251 248/248/248
f 253/253/253 248/248/248 254/254/254
f 255/255/255 253/253/253 254/254/254
f 256/256/256 255/255/255 254/254/254
f 257/257/257 256/256/256 254/254/254
f 254/254/254 258/258/258 257/257/257
f 259/259/259 248/248/248 252/252/252
f 259/259/259 254/254/254 248/248/248
f 259/259/259 252/252/252 260/260/260
f 261/261/261 258/258/258 254/254/254
f 259/259/259 261/261/261 254/254/254
f 261/261/261 262/262/262 258/258/258
f 263/263/263 262/262/262 261/261/261
f 264/264/264 263/263/263 261/261/261
f 265/265/265 261/261/261 259/259/259
f 266/266/266 259/259/259 260/260/260
f 266/266/266 265/265/265 259/259/259
f 266/266/266 267/267/267 265/265/265
f 260/260/260 268/268/268 266/266/266
f 266/266/266 269/269/269 267/267/267
f 268/268/268 270/270/270 266/266/266
f 266/266/266 270/270/270 269/269/269
f 270/270/270 268/268/268 271/271/271
f 272/272/272 270/270/270 271/271/271
f 270/270/270 273/273/273 269/269/269
f 270/270/270 272/272/272 273/273/273
f 271/271/271 274/274/274 272/272/272
f 272/272/272 275/275/275 273/273/273
f 274/274/274 276/276/276 272/272/272
f 274/274/274 277/277/277 276/276/276
f 277/277/277 278/278/278 276/276/276
f 278/278/278 279/279/279 276/276/276
f 272/272/272 276/276/276 280/280/280
f 272/272/272 281/281/281 275/275/275
f 272/272/272 280/280/280 281/281/281
f 281/281/281 282/282/282 275/275/275
f 283/283/283 282/282/282 281/281/281
f 281/281/281 280/280/280 284/284/284
f 280/280/280 285/285/285 284/284/284
f 286/286/286 283/283/283 281/281/281
f 286/286/286 281/281/281 284/284/284
f 283/283/283 286/286/286 287/287/287
f 288/288/288 286/286/286 284/284/284
f 286/286/286 288/288/288 289/289/289
f 289/289/289 290/290/290 286/286/286
f 293/293/293 292/292/292 291/291/291
f 294/294/294 293/293/293 291/291/291
f 295/295/295 294/294/294 291/291/291
f 295/295/295 291/291/291 296/296/296
f 297/297/297 295/295/295 296/296/296
f 297/297/297 296/296/296 298/298/298
f 299/299/299 297/297/297 298/298/298
f 300/300/300 299/299/299 298/298/298
f 300/300/300 298/298/298 301/301/301
f 302/302/302 300/300/300 301/301/301
f 302/302/302 301/301/301 303/303/303
f 304/304/304 302/302/302 303/303/303
f 304/304/304 303/303/303 305/305/305
f 306/306/306 304/304/304 305/305/305
f 305/305/305 307/307/307 306/306/306
f 308/308/308 307/307/307 305/305/305
f 309/309/309 308/308/308 305/305/305
f 309/309/309 310/310/310 308/308/308
f 309/309/309 311/311/311 310/310/310
f 311/311/311 312/312/312 310/310/310
f 313/313/313 312/312/312 311/311/311
f 313/313/313 311/311/311 314/314/314
f 314/314/314 311/311/311 315/315/315
f 314/314/314 316/316/316 313/313/313
f 315/315/315 244/244/244 314/314/314
f 314/314/314 317/317/317 316/316/316
f 244/244/244 318/318/318 314/314/314
f 317/317/317 314/314/314 318/318/318
f 236/236/236 318/318/318 244/244/244
f 319/319/319 317/317/317 318/318/318
f 318/318/318 236/236/236 241/241/241
f 318/318/318 320/320/320 319/319/319
f 318/318/318 241/241/241 320/320/320
f 323/323/323 322/322/322 321/321/321
f 321/321/321 324/324/324 323/323/323
f 323/323/323 324/324/324 325/325/325
f 323/323/323 325/325/325 326/326/326
f 325/325/325 327/327/327 326/326/326
f 326/326/326 327/327/327 328/328/328
f 331/331/331 330/330/330 329/329/329
f 330/330/330 332/332/332 329/329/329
f 329/329/329 332/332/332 333/333/333
f 334/334/334 332/332/332 330/330/330
f 332/332/332 335/335/335 333/333/333
f 334/334/334 335/335/335 332/332/332
f 336/336/336 333/333/333 335/335/335
f 337/337/337 336/336/336 335/335/335
f 334/334/334 337/337/337 335/335/335
f 336/336/336 337/337/337 338/338/338
f 334/334/334 339/339/339 337/337/337
f 337/337/337 339/339/339 338/338/338
f 339/339/339 334/334/334 340/340/340
f 338/338/338 339/339/339 341/341/341
f 341/341/341 339/339/339 340/340/340
f 342/342/342 338/338/338 341/341/341
f 342/342/342 341/341/341 343/343/343
f 340/340/340 344/344/344 341/341/341
f 341/341/341 344/344/344 343/343/343
f 344/344/344 340/340/340 345/345/345
f 343/343/343 344/344/344 346/346/346
f 347/347/347 344/344/344 345/345/345
f 344/344/344 347/347/347 346/346/346
f 347/347/347 345/345/345 348/348/348
f 346/346/346 347/347/347 349/349/349
f 349/349/349 347/347/347 348/348/348
f 350/350/350 346/346/346 349/349/349
f 351/351/351 350/350/350 349/349/349
f 352/352/352 351/351/351 349/349/349
f 349/349/349 353/353/353 352/352/352
f 348/348/348 353/353/353 349/349/349
f 354/354/354 353/353/353 348/348/348
f 354/354/354 348/348/348 355/355/355
f 356/356/356 354/354/354 355/355/355
f 359/359/359 358/358/358 357/357/357
f 358/358/358 359/359/359 360/360/360
f 359/359/359 361/361/361 360/360/360
f 362/362/362 361/361/361 359/359/359
f 363/363/363 359/359/359 357/357/357
f 363/363/363 362/362/362 359/359/359
f 364/364/364 363/363/363 357/357/357
f 363/363/363 364/364/364 362/362/362
f 364/364/364 365/365/365 362/362/362
f 366/366/366 364/364/364 357/357/357
f 367/367/367 365/365/365 364/364/364
f 368/368/368 364/364/364 366/366/366
f 368/368/368 367/367/367 364/364/364
f 369/369/369 368/368/368 366/366/366
f 370/370/370 367/367/367 368/368/368
f 369/369/369 370/370/370 368/368/368
f 373/373/373 372/372/372 371/371/371
f 374/374/374 373/373/373 371/371/371
f 373/373/373 375/375/375 372/372/372
f 374/374/374 371/371/371 376/376/376
f 375/375/375 377/377/377 372/372/372
f 378/378/378 374/374/374 376/376/376
f 375/375/375 379/379/379 377/377/377
f 378/378/378 376/376/376 380/380/380
f 379/379/379 381/381/381 377/377/377
f 382/382/382 378/378/378 380/380/380
f 379/379/379 383/383/383 381/381/381
f 382/382/382 380/380/380 384/384/384
f 383/383/383 385/385/385 381/381/381
f 386/386/386 382/382/382 384/384/384
f 383/383/383 387/387/387 385/385/385
f 386/386/386 384/384/384 388/388/388
f 387/387/387 389/389/389 385/385/385
f 390/390/390 386/386/386 388/388/388
f 387/387/387 391/391/391 389/389/389
f 390/390/390 388/388/388 392/392/392
f 391/391/391 393/393/393 389/389/389
f 394/394/394 390/390/390 392/392/392
f 391/391/391 395/395/395 393/393/393
f 394/394/394 392/392/392 396/396/396
f 395/395/395 397/397/397 393/393/393
f 398/398/398 394/394/394 396/396/396
f 395/395/395 399/399/399 397/397/397
f 398/398/398 396/396/396 400/400/400
f 399/399/399 401/401/401 397/397/397
f 402/402/402 398/398/398 400/400/400
f 402/402/402 400/400/400 401/401/401
f 399/399/399 402/402/402 401/401/401
f 405/405/405 404/404/404 403/403/403
f 404/404/404 406/406/406 403/403/403
f 405/405/405 403/403/403 407/407/407
f 404/404/404 408/408/408 406/406/406
f 409/409/409 405/405/405 407/407/407
f 408/408/408 410/410/410 406/406/406
f 409/409/409 407/407/407 411/411/411
f 408/408/408 412/412/412 410/410/410
f 413/413/413 409/409/409 411/411/411
f 412/412/412 414/414/414 410/410/410
f 413/413/413 411/411/411 415/415/415
f 412/412/412 416/416/416 414/414/414
f 417/417/417 413/413/413 415/415/415
f 416/416/416 418/418/418 414/414/414
f 417/417/417 415/415/415 419/419/419
f 416/416/416 420/420/420 418/418/418
f 421/421/421 417/417/417 419/419/419
f 420/420/420 422/422/422 418/418/418
f 421/421/421 419/419/419 423/423/423
f 420/420/420 424/424/424 422/422/422
f 425/425/425 421/421/421 423/423/423
f 424/424/424 426/426/426 422/422/422
f 425/425/425 423/423/423 427/427/427
f 424/424/424 428/428/428 426/426/426
f 429/429/429 425/425/425 427/427/427
f 428/428/428 430/430/430 426/426/426
f 429/429/429 427/427/427 431/431/431
f 428/428/428 432/432/432 430/430/430
f 433/433/433 429/429/429 431/431/431
f 432/432/432 434/434/434 430/430/430
f 433/433/433 431/431/431 434/434/434
f 432/432/432 433/433/433 434/434/434
