g tb_geo_meeple_p3c2_a_mesh
v -2.2715297 1.3323874 -1.7221346
v -1.438032 1.3323879 -1.7937331
v -2.071839 1.3323871 -1.4003774
v -1.6377224 1.3323883 -2.1154904
v -1.5647868 1.3323866 -2.1214318
v -0.66270936 1.332388 -1.890411
v -1.569129 1.3323865 -1.9089327
v -0.65836716 1.3323882 -2.10291
v -0.8111829 1.3323866 -2.3124042
v -0.17196661 1.332388 -1.2738963
v -0.9699968 1.3323864 -2.1711533
v -0.013152719 1.3323883 -1.4151471
v -0.05343978 1.3822771 -1.4269618
v -0.2635156 1.382279 -0.08738375
v -0.26598 1.3822769 -1.4265707
v -0.050975397 1.3822793 -0.08777487
v -0.06648013 1.3822773 -0.380199
v -0.6525408 1.3822782 -0.28599623
v -0.29643524 1.3822768 -0.6231092
v -0.42258567 1.3822787 -0.043085992
v -0.4559633 1.3822764 -0.09261161
v -1.5895779 1.3822795 -0.20967168
v -0.45515865 1.3822763 -0.20127076
v -1.5903826 1.3822796 -0.10101253
v -1.6976049 1.3822751 -0.103390515
v -2.0325596 1.3822784 -0.8063921
v -1.5783223 1.3822749 -0.19150895
v -2.151842 1.3822787 -0.71827364
v -2.1734424 1.3822759 -0.7149538
v -1.9411186 1.38228 -1.5066763
v -2.0259535 1.3822758 -0.6994535
v -2.0886075 1.3822801 -1.5221766
vt 0 0
vt 1 1
vt 1 0
vt 0 1
vt 0 0
vt 1 1
vt 1 0
vt 0 1
vt 0 0
vt 1 1
vt 1 0
vt 0 1
vt 0 0
vt 1 1
vt 1 0
vt 0 1
vt 0 0
vt 1 1
vt 1 0
vt 0 1
vt 0 0
vt 1 1
vt 1 0
vt 0 1
vt 0 0
vt 1 1
vt 1 0
vt 0 1
vt 0 0
vt 1 1
vt 1 0
vt 0 1
vn -3.231359E-07 1 1.3072981E-06
vn -3.231359E-07 1 1.3072981E-06
vn -3.231359E-07 1 1.3072981E-06
vn -3.231359E-07 1 1.3072981E-06
vn -1.7406254E-06 1 5.930669E-07
vn -1.7406254E-06 1 5.930669E-07
vn -1.7406254E-06 1 5.930669E-07
vn -1.7406254E-06 1 5.930669E-07
vn -1.9354504E-06 1 -9.385961E-08
vn -1.9354504E-06 1 -9.385961E-08
vn -1.9354504E-06 1 -9.385961E-08
vn -1.9354504E-06 1 -9.385961E-08
vn -1.1353471E-06 1 -1.5282096E-06
vn -1.1353471E-06 1 -1.5282096E-06
vn -1.1353471E-06 1 -1.5282096E-06
vn -1.1353471E-06 1 -1.5282096E-06
vn 9.917984E-07 1 -3.0945193E-06
vn 9.917984E-07 1 -3.0945193E-06
vn 9.917984E-07 1 -3.0945193E-06
vn 9.917984E-07 1 -3.0945193E-06
vn 2.8733552E-06 1 -1.6373508E-06
vn 2.8733552E-06 1 -1.6373508E-06
vn 2.8733552E-06 1 -1.6373508E-06
vn 2.8733552E-06 1 -1.6373508E-06
vn 3.9359425E-06 1 3.0401777E-06
vn 3.9359425E-06 1 3.0401777E-06
vn 3.9359425E-06 1 3.0401777E-06
vn 3.9359425E-06 1 3.0401777E-06
vn 7.3870376E-07 1 5.251284E-06
vn 7.3870376E-07 1 5.251284E-06
vn 7.3870376E-07 1 5.251284E-06
vn 7.3870376E-07 1 5.251284E-06
g tb_geo_meeple_p3c2_a_mesh_0
f 3/3/3 2/2/2 1/1/1
f 4/4/4 1/1/1 2/2/2
f 7/7/7 6/6/6 5/5/5
f 8/8/8 5/5/5 6/6/6
f 11/11/11 10/10/10 9/9/9
f 12/12/12 9/9/9 10/10/10
f 15/15/15 14/14/14 13/13/13
f 16/16/16 13/13/13 14/14/14
f 19/19/19 18/18/18 17/17/17
f 20/20/20 17/17/17 18/18/18
f 23/23/23 22/22/22 21/21/21
f 24/24/24 21/21/21 22/22/22
f 27/27/27 26/26/26 25/25/25
f 28/28/28 25/25/25 26/26/26
f 31/31/31 30/30/30 29/29/29
f 32/32/32 29/29/29 30/30/30
