g tb_geo_outline_02_mesh
v -0.84226704 -0.0138120055 0.3380823
v -0.85853106 -0.009376362 0.3277325
v -0.8540954 -0.010854907 0.3247754
v -0.84670264 -0.012333456 0.34103942
v -0.8511383 -0.010854907 0.34399652
v -0.8644452 -0.007897813 0.32921106
v -0.7624254 0.005409114 0.43418792
v -0.7565113 0.005409114 0.43270937
v -0.7565113 0.014280397 0.47854432
v -0.7624254 0.012801852 0.47854432
v -0.7668611 0.003930565 0.43714502
v -0.7668611 0.011323307 0.47854432
v -0.7668611 0.023151685 0.5524717
v -0.7624254 0.023151685 0.5524717
v -0.7624254 0.027587328 0.577607
v -0.7668611 0.026108783 0.577607
v -0.7565113 0.02463023 0.5524717
v -0.7565113 0.027587328 0.577607
v -0.7565113 0.014280397 0.47854432
v -0.7624254 0.012801852 0.47854432
v -0.96646506 -0.003462173 0.011323307
v -0.9901218 -0.00050507486 0.01575895
v -0.9901218 -0.00050507486 0.011323307
v -0.9679436 -0.003462173 0.01575895
v -0.9442868 -0.009376362 0.03202297
v -0.94724387 -0.009376362 0.036458615
v -0.9516795 -0.009376362 0.039415706
v -0.9709007 -0.0049407184 0.02167314
v -0.9901218 -0.001983624 0.02167314
v -0.8747951 -0.0138120055 0.10595034
v -0.871838 -0.0138120055 0.10299325
v -0.8540954 -0.010854907 0.120735824
v -0.85853106 -0.012333456 0.12221436
v -0.8540954 -0.010854907 0.120735824
v -0.8540954 -0.0138120055 0.2005774
v -0.85853106 -0.015290551 0.2005774
v -0.85853106 -0.012333456 0.12221436
v -0.8644452 -0.0138120055 0.123692915
v -0.8644452 -0.015290551 0.2005774
v -1.4558643 0.18135627 0.5835212
v -1.4558643 0.1384784 0.6027423
v -1.4603 0.1384784 0.6056994
v -1.4603 0.18135627 0.5835212
v -1.3464518 -0.001983624 0.6914552
v -1.2518247 0.006887663 0.7698182
v -1.2533033 0.0083662085 0.77425385
v -1.3494089 -0.001983624 0.6958908
v -0.7565113 0.17396353 0.7757324
v -0.82452446 0.16804935 0.7757324
v -0.82452446 0.16509224 0.7698182
v -0.7624254 0.17100644 0.7698182
v -0.7668611 0.16804935 0.7653825
v -0.82452446 0.1606566 0.7653825
v -0.7668611 0.13404275 0.7151119
v -0.7624254 0.1355213 0.7151119
v -0.7624254 0.16804935 0.7653825
v -0.7565113 0.1355213 0.7151119
v -0.7565113 0.16804935 0.7653825
v -0.9901218 -0.00050507486 0.01575895
v -1.0374354 0.0009734705 0.011323307
v -0.9901218 -0.00050507486 0.011323307
v -1.0374354 -0.00050507486 0.01575895
v -1.0374354 -0.001983624 0.02167314
v -0.9901218 -0.001983624 0.02167314
v -1.0374354 0.0009734705 0.011323307
v -1.0936202 0.005409114 0.01575895
v -1.0936202 0.005409114 0.011323307
v -1.0374354 -0.00050507486 0.01575895
v -1.0374354 -0.001983624 0.02167314
v -1.0936202 0.005409114 0.02167314
v -1.0936202 0.005409114 0.01575895
v -1.1631119 0.003930565 0.011323307
v -1.0936202 0.005409114 0.011323307
v -1.1631119 0.003930565 0.01575895
v -1.0936202 0.005409114 0.02167314
v -1.1631119 0.005409114 0.02167314
v -1.1631119 0.003930565 0.011323307
v -1.2326037 0.006887663 0.01575895
v -1.2326037 0.006887663 0.011323307
v -1.1631119 0.003930565 0.01575895
v -1.1631119 0.005409114 0.02167314
v -1.2326037 0.006887663 0.02167314
v -1.2326037 0.006887663 0.011323307
v -1.2887884 0.011323307 0.01575895
v -1.2887884 0.011323307 0.011323307
v -1.2326037 0.006887663 0.01575895
v -1.2326037 0.006887663 0.02167314
v -1.2887884 0.011323307 0.02167314
v -1.2887884 0.011323307 0.01575895
v -1.3464518 0.011323307 0.011323307
v -1.2887884 0.011323307 0.011323307
v -1.3464518 0.011323307 0.01575895
v -1.3863726 0.011323307 0.011323307
v -1.3464518 0.011323307 0.02167314
v -1.2887884 0.011323307 0.02167314
v -1.3863726 0.011323307 0.02167314
v -1.3863726 0.011323307 0.01575895
v -1.4189006 0.011323307 0.011323307
v -1.4189006 0.011323307 0.02167314
v -1.4189006 0.011323307 0.01575895
v -1.4558643 0.011323307 0.01575895
v -1.4603 0.011323307 0.011323307
v -1.4499501 0.011323307 0.02167314
v -1.4558643 0.011323307 0.023151685
v -1.4603 0.011323307 0.023151685
v -1.4499501 0.011323307 0.023151685
v -0.904366 -0.012333456 0.07785794
v -0.9014089 -0.012333456 0.07490085
v -0.871838 -0.0138120055 0.10299325
v -0.8747951 -0.0138120055 0.10595034
v -0.87923074 -0.012333456 0.110385984
v -0.9088017 -0.010854907 0.08081503
v -0.9516795 -0.009376362 0.039415706
v -0.904366 -0.012333456 0.07785794
v -0.94724387 -0.009376362 0.036458615
v -0.9442868 -0.009376362 0.03202297
v -0.9014089 -0.012333456 0.07490085
v -0.85853106 -0.0138120055 0.23162688
v -0.8540954 -0.0138120055 0.2005774
v -0.8540954 -0.0138120055 0.23162688
v -0.85853106 -0.015290551 0.2005774
v -0.8644452 -0.0138120055 0.23162688
v -0.8644452 -0.015290551 0.2005774
v -0.85853106 -0.009376362 0.3277325
v -0.85853106 -0.009376362 0.29816154
v -0.8540954 0.003930565 0.29816154
v -0.8540954 -0.010854907 0.3247754
v -0.8540954 0.003930565 0.29816154
v -0.85853106 -0.009376362 0.29816154
v -0.85853106 -0.003462173 0.26119787
v -0.8540954 0.003930565 0.26119787
v -0.8540954 0.003930565 0.26119787
v -0.85853106 -0.003462173 0.26119787
v -0.85853106 -0.0138120055 0.23162688
v -0.8540954 -0.0138120055 0.23162688
v -0.8230459 -0.0138120055 0.358782
v -0.84670264 -0.012333456 0.34103942
v -0.84226704 -0.0138120055 0.3380823
v -0.82748157 -0.012333456 0.36321765
v -0.8304386 -0.010854907 0.36617473
v -0.8511383 -0.010854907 0.34399652
v -0.7565113 0.005409114 0.43270937
v -0.7786895 -0.001983624 0.41644534
v -0.7757324 -0.00050507486 0.41200972
v -0.7624254 0.005409114 0.43418792
v -0.7668611 0.003930565 0.43714502
v -0.7831251 -0.001983624 0.41940245
v -0.8023462 -0.007897813 0.38983148
v -0.7979106 -0.009376362 0.3868744
v -0.7757324 -0.00050507486 0.41200972
v -0.7786895 -0.001983624 0.41644534
v -0.8023462 -0.007897813 0.38983148
v -0.82748157 -0.012333456 0.36321765
v -0.8230459 -0.0138120055 0.358782
v -0.7979106 -0.009376362 0.3868744
v -0.7565113 0.027587328 0.577607
v -0.7565113 0.06455101 0.62492055
v -0.7624254 0.06455101 0.62492055
v -0.7624254 0.027587328 0.577607
v -0.7668611 0.026108783 0.577607
v -0.7668611 0.06307247 0.62492055
v -0.7624254 0.17100644 0.7698182
v -0.7565113 0.16804935 0.7653825
v -0.7565113 0.17396353 0.7757324
v -0.7624254 0.16804935 0.7653825
v -0.7668611 0.16804935 0.7653825
v -0.7624254 0.1044718 0.6707555
v -0.7565113 0.06455101 0.62492055
v -0.7565113 0.10595034 0.6707555
v -0.7624254 0.06455101 0.62492055
v -0.7668611 0.06307247 0.62492055
v -0.7668611 0.1044718 0.6707555
v -0.7624254 0.1355213 0.7151119
v -0.7565113 0.10595034 0.6707555
v -0.7565113 0.1355213 0.7151119
v -0.7624254 0.1044718 0.6707555
v -0.7668611 0.13404275 0.7151119
v -0.7668611 0.1044718 0.6707555
v -0.82452446 0.16509224 0.7698182
v -0.82452446 0.16804935 0.7757324
v -0.8984518 0.17100644 0.7757324
v -0.8984518 0.1665708 0.7698182
v -0.8984518 0.1636137 0.7653825
v -0.82452446 0.1606566 0.7653825
v -0.96350795 0.17100644 0.7698182
v -0.96350795 0.17396353 0.7757324
v -0.96350795 0.16804935 0.7653825
v -0.8984518 0.1636137 0.7653825
v -0.8984518 0.1665708 0.7698182
v -1.2518247 0.006887663 0.7698182
v -1.19564 0.12665 0.7757324
v -1.2533033 0.0083662085 0.77425385
v -1.19564 0.12665 0.7698182
v -1.2488676 0.0083662085 0.7653825
v -1.19564 0.12517147 0.7653825
v -1.1084056 0.15030678 0.7757324
v -1.19564 0.12665 0.7757324
v -1.19564 0.12665 0.7698182
v -1.1084056 0.15030678 0.7698182
v -1.1084056 0.15030678 0.7757324
v -1.1084056 0.15030678 0.7698182
v -1.0359569 0.17100644 0.7698182
v -1.0359569 0.17100644 0.7757324
v -1.0359569 0.17100644 0.7698182
v -0.96350795 0.17100644 0.7698182
v -0.96350795 0.17396353 0.7757324
v -1.0359569 0.17100644 0.7757324
v -1.4573429 0.085250676 0.607178
v -1.4603 0.1384784 0.6056994
v -1.4558643 0.1384784 0.6027423
v -1.4514287 0.085250676 0.60422087
v -1.4543858 0.006887663 0.6086565
v -1.4499501 0.1384784 0.60126376
v -1.4499501 0.006887663 0.6056994
v -1.446993 0.085250676 0.6027423
v -1.4455144 0.0083662085 0.60422087
v -1.4603 0.18135627 0.11482163
v -1.4558643 0.18135627 0.5835212
v -1.4603 0.18135627 0.5835212
v -1.4558643 0.18135627 0.11482163
v -1.4499501 0.18135627 0.11482163
v -1.4499501 0.18135627 0.5835212
v -1.4603 0.07046521 0.03202297
v -1.4603 0.011323307 0.023151685
v -1.4558643 0.011323307 0.023151685
v -1.4558643 0.07194376 0.03202297
v -1.4499501 0.07194376 0.03202297
v -1.4499501 0.011323307 0.023151685
v -1.4558643 0.07194376 0.03202297
v -1.4558643 0.09707905 0.06455101
v -1.4603 0.09412196 0.06455101
v -1.4603 0.07046521 0.03202297
v -1.4558643 0.09707905 0.06455101
v -1.4558643 0.11777872 0.07490085
v -1.4603 0.11334309 0.07490085
v -1.4603 0.09412196 0.06455101
v -1.4603 0.15474242 0.09855761
v -1.4603 0.11334309 0.07490085
v -1.4558643 0.11777872 0.07490085
v -1.4558643 0.15326387 0.09855761
v -1.4603 0.15474242 0.09855761
v -1.4558643 0.18135627 0.11482163
v -1.4603 0.18135627 0.11482163
v -1.4558643 0.15326387 0.09855761
v -1.4499501 0.15326387 0.09855761
v -1.4499501 0.18135627 0.11482163
v -0.82748157 -0.012333456 0.36321765
v -0.8023462 -0.007897813 0.38983148
v -0.80530334 -0.007897813 0.39426714
v -0.8304386 -0.010854907 0.36617473
v -0.7831251 -0.001983624 0.41940245
v -0.80530334 -0.007897813 0.39426714
v -0.8023462 -0.007897813 0.38983148
v -0.7786895 -0.001983624 0.41644534
v -1.0359569 0.17100644 0.7698182
v -1.0359569 0.16952789 0.7653825
v -0.96350795 0.16804935 0.7653825
v -0.96350795 0.17100644 0.7698182
v -1.1084056 0.15030678 0.7698182
v -1.0359569 0.16952789 0.7653825
v -1.0359569 0.17100644 0.7698182
v -1.1084056 0.15178531 0.7653825
v -1.19564 0.12517147 0.7653825
v -1.19564 0.12665 0.7698182
v -1.2488676 0.0083662085 0.7653825
v -1.2518247 0.006887663 0.7698182
v -1.3464518 -0.001983624 0.6914552
v -1.3434947 -0.001983624 0.6870195
v -1.4499501 0.1384784 0.60126376
v -1.4558643 0.1384784 0.6027423
v -1.4558643 0.18135627 0.5835212
v -1.4499501 0.18135627 0.5835212
v -1.4558643 0.15326387 0.09855761
v -1.4558643 0.11777872 0.07490085
v -1.4499501 0.11630018 0.07490085
v -1.4499501 0.15326387 0.09855761
v -1.4558643 0.11777872 0.07490085
v -1.4558643 0.09707905 0.06455101
v -1.4499501 0.095600516 0.06455101
v -1.4499501 0.11630018 0.07490085
v -1.4558643 0.09707905 0.06455101
v -1.4558643 0.07194376 0.03202297
v -1.4499501 0.07194376 0.03202297
v -1.4499501 0.095600516 0.06455101
v -0.8644452 -0.0138120055 0.123692915
v -0.87923074 -0.012333456 0.110385984
v -0.8747951 -0.0138120055 0.10595034
v -0.85853106 -0.012333456 0.12221436
v -0.85853106 -0.0138120055 0.23162688
v -0.85853106 -0.003462173 0.26119787
v -0.8644452 -0.010854907 0.26119787
v -0.8644452 -0.0138120055 0.23162688
v -0.85853106 -0.003462173 0.26119787
v -0.85853106 -0.009376362 0.29816154
v -0.8644452 -0.010854907 0.29816154
v -0.8644452 -0.010854907 0.26119787
v -0.85853106 -0.009376362 0.3277325
v -0.8644452 -0.007897813 0.32921106
v -0.8644452 -0.010854907 0.29816154
v -0.85853106 -0.009376362 0.29816154
v -1.3464518 -0.001983624 0.6914552
v -1.3494089 -0.001983624 0.6958908
v -1.4543858 0.006887663 0.6086565
v -1.4499501 0.006887663 0.6056994
v -1.3464518 -0.001983624 0.6914552
v -1.4499501 0.006887663 0.6056994
v -1.4455144 0.0083662085 0.60422087
v -1.3434947 -0.001983624 0.6870195
v -0.84226704 -0.049297146 0.3380823
v -0.8540954 -0.010854907 0.3247754
v -0.8540954 -0.047818597 0.3247754
v -0.84226704 -0.0138120055 0.3380823
v -0.8230459 -0.049297146 0.358782
v -0.8230459 -0.0138120055 0.358782
v -0.7979106 -0.044861503 0.3868744
v -0.7979106 -0.009376362 0.3868744
v -0.7757324 -0.037468765 0.41200972
v -0.7757324 -0.00050507486 0.41200972
v -0.7565113 -0.031554572 0.43270937
v -0.7565113 0.005409114 0.43270937
v -0.7565113 -0.022683289 0.47854432
v -0.7565113 0.005409114 0.43270937
v -0.7565113 -0.031554572 0.43270937
v -0.7565113 0.014280397 0.47854432
v -0.7565113 -0.012333456 0.5524717
v -0.7565113 0.02463023 0.5524717
v -0.7565113 -0.007897813 0.577607
v -0.7565113 0.027587328 0.577607
v -0.7565113 0.029065873 0.62492055
v -0.7565113 0.06455101 0.62492055
v -0.7565113 0.068986654 0.6707555
v -0.7565113 0.10595034 0.6707555
v -0.7565113 0.10003616 0.7151119
v -0.7565113 0.1355213 0.7151119
v -0.7565113 0.14143549 0.7653825
v -0.7565113 0.16804935 0.7653825
v -0.7565113 0.14734967 0.7757324
v -0.7565113 0.17396353 0.7757324
v -0.96646506 -0.04042586 0.011323307
v -0.96646506 -0.003462173 0.011323307
v -0.9901218 -0.00050507486 0.011323307
v -0.9901218 -0.035990216 0.011323307
v -1.0374354 0.0009734705 0.011323307
v -1.0374354 -0.03451167 0.011323307
v -1.0936202 0.005409114 0.011323307
v -1.0936202 -0.030076027 0.011323307
v -1.1631119 0.003930565 0.011323307
v -1.1631119 -0.033033125 0.011323307
v -1.2326037 0.006887663 0.011323307
v -1.2326037 -0.030076027 0.011323307
v -1.2887884 0.011323307 0.011323307
v -1.2887884 -0.025640385 0.011323307
v -1.3464518 0.011323307 0.011323307
v -1.3464518 -0.025640385 0.011323307
v -1.3863726 0.011323307 0.011323307
v -1.3863726 -0.025640385 0.011323307
v -1.4189006 0.011323307 0.011323307
v -1.4189006 -0.025640385 0.011323307
v -1.4603 0.011323307 0.011323307
v -1.4603 -0.025640385 0.011323307
v -0.8540954 -0.047818597 0.120735824
v -0.8540954 -0.010854907 0.120735824
v -0.871838 -0.0138120055 0.10299325
v -0.871838 -0.049297146 0.10299325
v -0.9014089 -0.012333456 0.07490085
v -0.9014089 -0.047818597 0.07490085
v -0.9442868 -0.009376362 0.03202297
v -0.9442868 -0.044861503 0.03202297
v -0.96646506 -0.003462173 0.011323307
v -0.96646506 -0.04042586 0.011323307
v -0.8540954 -0.050775692 0.2005774
v -0.8540954 -0.010854907 0.120735824
v -0.8540954 -0.047818597 0.120735824
v -0.8540954 -0.0138120055 0.2005774
v -0.8540954 -0.049297146 0.23162688
v -0.8540954 -0.0138120055 0.23162688
v -0.8540954 -0.031554572 0.26119787
v -0.8540954 0.003930565 0.26119787
v -0.8540954 -0.033033125 0.29816154
v -0.8540954 0.003930565 0.29816154
v -0.8540954 -0.047818597 0.3247754
v -0.8540954 -0.010854907 0.3247754
v -1.3494089 -0.037468765 0.6958908
v -1.2533033 0.0083662085 0.77425385
v -1.2518247 -0.027118932 0.7757324
v -1.3494089 -0.001983624 0.6958908
v -1.4588214 -0.031554572 0.6027423
v -1.4543858 0.006887663 0.6086565
v -0.82452446 0.14143549 0.7757324
v -0.7565113 0.17396353 0.7757324
v -0.7565113 0.14734967 0.7757324
v -0.82452446 0.16804935 0.7757324
v -0.8984518 0.14439258 0.7757324
v -0.8984518 0.17100644 0.7757324
v -0.96350795 0.14734967 0.7757324
v -0.96350795 0.17396353 0.7757324
v -1.0359569 0.14439258 0.7757324
v -1.0359569 0.17100644 0.7757324
v -1.1084056 0.123692915 0.7757324
v -1.1084056 0.15030678 0.7757324
v -1.1778973 0.1044718 0.7757324
v -1.19564 0.12665 0.7757324
v -1.2533033 0.0083662085 0.77425385
v -1.2311251 -0.003462173 0.7757324
v -1.2518247 -0.027118932 0.7757324
v -1.4603 -0.025640385 0.011323307
v -1.4603 0.011323307 0.011323307
v -1.4603 0.011323307 0.023151685
v -1.4603 -0.025640385 0.06011537
v -1.4603 0.07046521 0.03202297
v -1.4603 0.048286993 0.06602956
v -1.4603 0.09412196 0.06455101
v -1.4603 0.06750812 0.07785794
v -1.4603 0.11334309 0.07490085
v -1.4603 0.08968632 0.09116487
v -1.4603 0.15474242 0.09855761
v -1.4603 0.123692915 0.11186454
v -1.4603 0.18135627 0.11482163
v -1.4603 0.14882822 0.123692915
v -1.4603 0.18135627 0.5835212
v -1.4603 0.16804935 0.57464993
v -1.4603 0.1384784 0.6056994
v -1.4603 0.1384784 0.59534955
v -1.4573429 0.085250676 0.607178
v -1.4573429 0.085250676 0.59830666
v -1.4543858 0.006887663 0.6086565
v -1.4588214 -0.031554572 0.6027423
v -0.8644452 -0.044861503 0.32921106
v -0.8644452 -0.007897813 0.32921106
v -0.8511383 -0.010854907 0.34399652
v -0.8511383 -0.047818597 0.34399652
v -0.8304386 -0.010854907 0.36617473
v -0.8304386 -0.047818597 0.36617473
v -0.80530334 -0.007897813 0.39426714
v -0.80530334 -0.043382958 0.39426714
v -0.7831251 -0.001983624 0.41940245
v -0.7831251 -0.038947314 0.41940245
v -0.7668611 0.003930565 0.43714502
v -0.7668611 -0.033033125 0.43714502
v -0.7668611 -0.033033125 0.43714502
v -0.7668611 0.003930565 0.43714502
v -0.7668611 0.011323307 0.47854432
v -0.7668611 -0.024161838 0.47854432
v -0.7668611 0.023151685 0.5524717
v -0.7668611 -0.0138120055 0.5524717
v -0.7668611 0.026108783 0.577607
v -0.7668611 -0.009376362 0.577607
v -0.7668611 0.06307247 0.62492055
v -0.7668611 0.027587328 0.62492055
v -0.7668611 0.1044718 0.6707555
v -0.7668611 0.06750812 0.6707555
v -0.7668611 0.13404275 0.7151119
v -0.7668611 0.09707905 0.7151119
v -0.7668611 0.16804935 0.7653825
v -0.7668611 0.15178531 0.7653825
v -0.7668611 0.15178531 0.7653825
v -0.7668611 0.16804935 0.7653825
v -0.82452446 0.1606566 0.7653825
v -0.82452446 0.14439258 0.7653825
v -0.8984518 0.1636137 0.7653825
v -0.8984518 0.14734967 0.7653825
v -0.96350795 0.16804935 0.7653825
v -0.96350795 0.15178531 0.7653825
v -1.0359569 0.16952789 0.7653825
v -1.0359569 0.15326387 0.7653825
v -1.1084056 0.15178531 0.7653825
v -1.1084056 0.1355213 0.7653825
v -1.1084056 0.1355213 0.7653825
v -1.1084056 0.15178531 0.7653825
v -1.19564 0.12517147 0.7653825
v -1.182333 0.1044718 0.76833963
v -1.2488676 0.0083662085 0.7653825
v -1.2488676 -0.0138120055 0.7653825
v -1.2326037 -0.00050507486 0.76833963
v -1.182333 0.1044718 0.76833963
v -1.19564 0.12517147 0.7653825
v -1.2488676 -0.0138120055 0.7653825
v -1.2488676 0.0083662085 0.7653825
v -1.3434947 -0.001983624 0.6870195
v -1.3434947 -0.025640385 0.6870195
v -1.4455144 0.0083662085 0.60422087
v -1.4529072 -0.0167691 0.5968281
v -1.4514287 0.085250676 0.5968281
v -1.4499501 0.1384784 0.60126376
v -1.4514287 0.1384784 0.59091395
v -1.446993 0.085250676 0.6027423
v -1.4529072 -0.0167691 0.5968281
v -1.4455144 0.0083662085 0.60422087
v -1.4514287 0.1384784 0.59091395
v -1.4499501 0.1384784 0.60126376
v -1.4499501 0.18135627 0.5835212
v -1.4499501 0.1665708 0.57464993
v -1.4499501 0.18135627 0.11482163
v -1.4499501 0.14882822 0.123692915
v -1.4499501 0.15326387 0.09855761
v -1.4499501 0.12221436 0.11186454
v -1.4499501 0.11630018 0.07490085
v -1.4499501 0.09264341 0.09116487
v -1.4499501 0.095600516 0.06455101
v -1.4499501 0.07046521 0.07785794
v -1.4499501 0.07194376 0.03202297
v -1.4499501 0.045329895 0.06602956
v -1.4499501 0.011323307 0.023151685
v -1.4499501 -0.025640385 0.06011537
v -1.4499501 0.011323307 0.02167314
v -1.4499501 -0.025640385 0.02167314
v -1.4499501 -0.025640385 0.02167314
v -1.4499501 0.011323307 0.02167314
v -1.4189006 0.011323307 0.02167314
v -1.4189006 -0.025640385 0.02167314
v -1.3863726 0.011323307 0.02167314
v -1.3863726 -0.025640385 0.02167314
v -1.3464518 0.011323307 0.02167314
v -1.3464518 -0.025640385 0.02167314
v -1.2887884 0.011323307 0.02167314
v -1.2887884 -0.025640385 0.02167314
v -1.2326037 0.006887663 0.02167314
v -1.2326037 -0.02859748 0.02167314
v -1.1631119 0.005409114 0.02167314
v -1.1631119 -0.031554572 0.02167314
v -1.0936202 0.005409114 0.02167314
v -1.0936202 -0.031554572 0.02167314
v -1.0374354 -0.001983624 0.02167314
v -1.0374354 -0.037468765 0.02167314
v -0.9901218 -0.001983624 0.02167314
v -0.9901218 -0.038947314 0.02167314
v -0.9709007 -0.0049407184 0.02167314
v -0.9709007 -0.04042586 0.02167314
v -0.9709007 -0.04042586 0.02167314
v -0.9709007 -0.0049407184 0.02167314
v -0.9516795 -0.009376362 0.039415706
v -0.9516795 -0.046340052 0.039415706
v -0.9088017 -0.010854907 0.08081503
v -0.9088017 -0.047818597 0.08081503
v -0.87923074 -0.012333456 0.110385984
v -0.87923074 -0.049297146 0.110385984
v -0.8644452 -0.0138120055 0.123692915
v -0.8644452 -0.049297146 0.123692915
v -0.8644452 -0.049297146 0.123692915
v -0.8644452 -0.0138120055 0.123692915
v -0.8644452 -0.015290551 0.2005774
v -0.8644452 -0.05225424 0.2005774
v -0.8644452 -0.0138120055 0.23162688
v -0.8644452 -0.050775692 0.23162688
v -0.8644452 -0.010854907 0.26119787
v -0.8644452 -0.047818597 0.26119787
v -0.8644452 -0.010854907 0.29816154
v -0.8644452 -0.047818597 0.29816154
v -0.8644452 -0.007897813 0.32921106
v -0.8644452 -0.044861503 0.32921106
vt 0.21064162 0.28214386
vt 0.20677663 0.28794134
vt 0.20677663 0.2898738
vt 0.21064162 0.28021136
vt 0.20870914 0.27827886
vt 0.20484415 0.28794134
vt 0.23962902 0.22030409
vt 0.2415615 0.22030409
vt 0.2415615 0.1913167
vt 0.23962902 0.1913167
vt 0.23769651 0.2183716
vt 0.23769651 0.1913167
vt 0.23769651 0.14493687
vt 0.23962902 0.14493687
vt 0.23962902 0.12754445
vt 0.23769651 0.12754445
vt 0.2415615 0.14493687
vt 0.2415615 0.12754445
vt 0.2415615 0.1913167
vt 0.23962902 0.1913167
vt 0.17005928 0.49278554
vt 0.16039681 0.48892054
vt 0.16039681 0.49278554
vt 0.16812679 0.48892054
vt 0.17585675 0.4792581
vt 0.17585675 0.4773256
vt 0.17392427 0.4734606
vt 0.16812679 0.48698804
vt 0.16039681 0.48698804
vt 0.20097916 0.43094578
vt 0.20097916 0.43287826
vt 0.20677663 0.4232158
vt 0.20677663 0.4212833
vt 0.20677663 0.4232158
vt 0.20677663 0.3710385
vt 0.20677663 0.3710385
vt 0.20677663 0.4212833
vt 0.20484415 0.4193508
vt 0.20484415 0.3710385
vt 0.0019324329 0.12367946
vt 0.0019324329 0.11208451
vt -5.9604645E-08 0.11015201
vt -5.9604645E-08 0.12367946
vt 0.03864979 0.05410973
vt 0.071502164 0.0038649254
vt 0.071502164 -5.9604645E-08
vt 0.03864979 0.05217724
vt 0.2415615 -5.9604645E-08
vt 0.2183716 -5.9604645E-08
vt 0.2183716 0.0038649254
vt 0.23962902 0.0038649254
vt 0.23769651 0.005797418
vt 0.2183716 0.005797418
vt 0.23769651 0.03864979
vt 0.23962902 0.03864979
vt 0.23962902 0.005797418
vt 0.2415615 0.03864979
vt 0.2415615 0.005797418
vt 0.16039681 0.48892054
vt 0.14493687 0.49278554
vt 0.16039681 0.49278554
vt 0.14493687 0.48892054
vt 0.14493687 0.48698804
vt 0.16039681 0.48698804
vt 0.14493687 0.49278554
vt 0.12561195 0.48892054
vt 0.12561195 0.49278554
vt 0.14493687 0.48892054
vt 0.14493687 0.48698804
vt 0.12561195 0.48698804
vt 0.12561195 0.48892054
vt 0.10242204 0.49278554
vt 0.12561195 0.49278554
vt 0.10242204 0.48892054
vt 0.12561195 0.48698804
vt 0.10242204 0.48698804
vt 0.10242204 0.49278554
vt 0.07729964 0.48892054
vt 0.07729964 0.49278554
vt 0.10242204 0.48892054
vt 0.10242204 0.48698804
vt 0.07729964 0.48698804
vt 0.07729964 0.49278554
vt 0.057974715 0.48892054
vt 0.057974715 0.49278554
vt 0.07729964 0.48892054
vt 0.07729964 0.48698804
vt 0.057974715 0.48698804
vt 0.057974715 0.48892054
vt 0.03864979 0.49278554
vt 0.057974715 0.49278554
vt 0.03864979 0.48892054
vt 0.025122343 0.49278554
vt 0.03864979 0.48698804
vt 0.057974715 0.48698804
vt 0.025122343 0.48698804
vt 0.025122343 0.48892054
vt 0.013527388 0.49278554
vt 0.013527388 0.48698804
vt 0.013527388 0.48892054
vt 0.0019324329 0.48892054
vt -5.9604645E-08 0.49278554
vt 0.0038649254 0.48698804
vt 0.0019324329 0.48505557
vt -5.9604645E-08 0.48505557
vt 0.0038649254 0.48505557
vt 0.1893842 0.45027068
vt 0.1913167 0.45220318
vt 0.20097916 0.43287826
vt 0.20097916 0.43094578
vt 0.19904667 0.42901328
vt 0.1893842 0.4483382
vt 0.17392427 0.4734606
vt 0.1893842 0.45027068
vt 0.17585675 0.4773256
vt 0.17585675 0.4792581
vt 0.1913167 0.45220318
vt 0.20677663 0.35171357
vt 0.20677663 0.3710385
vt 0.20677663 0.35171357
vt 0.20677663 0.3710385
vt 0.20484415 0.35171357
vt 0.20484415 0.3710385
vt 0.20677663 0.28794134
vt 0.20677663 0.30726624
vt 0.20677663 0.30726624
vt 0.20677663 0.2898738
vt 0.20677663 0.30726624
vt 0.20677663 0.30726624
vt 0.20677663 0.33238864
vt 0.20677663 0.33238864
vt 0.20677663 0.33238864
vt 0.20677663 0.33238864
vt 0.20677663 0.35171357
vt 0.20677663 0.35171357
vt 0.2183716 0.2686164
vt 0.21064162 0.28021136
vt 0.21064162 0.28214386
vt 0.2164391 0.2666839
vt 0.2164391 0.2647514
vt 0.20870914 0.27827886
vt 0.2415615 0.22030409
vt 0.23383154 0.23189904
vt 0.23383154 0.23383154
vt 0.23962902 0.22030409
vt 0.23769651 0.2183716
vt 0.23189904 0.22996655
vt 0.22610156 0.24735898
vt 0.22610156 0.25122395
vt 0.23383154 0.23383154
vt 0.23383154 0.23189904
vt 0.22610156 0.24735898
vt 0.2164391 0.2666839
vt 0.2183716 0.2686164
vt 0.22610156 0.25122395
vt 0.2415615 0.12754445
vt 0.2415615 0.09662457
vt 0.23962902 0.09662457
vt 0.23962902 0.12754445
vt 0.23769651 0.12754445
vt 0.23769651 0.09662457
vt 0.23962902 0.0038649254
vt 0.2415615 0.005797418
vt 0.2415615 -5.9604645E-08
vt 0.23962902 0.005797418
vt 0.23769651 0.005797418
vt 0.23962902 0.067637175
vt 0.2415615 0.09662457
vt 0.2415615 0.067637175
vt 0.23962902 0.09662457
vt 0.23769651 0.09662457
vt 0.23769651 0.067637175
vt 0.23962902 0.03864979
vt 0.2415615 0.067637175
vt 0.2415615 0.03864979
vt 0.23962902 0.067637175
vt 0.23769651 0.03864979
vt 0.23769651 0.067637175
vt 0.2183716 0.0038649254
vt 0.2183716 -5.9604645E-08
vt 0.1913167 -5.9604645E-08
vt 0.1913167 0.0038649254
vt 0.1913167 0.005797418
vt 0.2183716 0.005797418
vt 0.17005928 0.0038649254
vt 0.17005928 -5.9604645E-08
vt 0.17005928 0.005797418
vt 0.1913167 0.005797418
vt 0.1913167 0.0038649254
vt 0.071502164 0.0038649254
vt 0.090827085 -5.9604645E-08
vt 0.071502164 -5.9604645E-08
vt 0.090827085 0.0038649254
vt 0.071502164 0.0077299103
vt 0.090827085 0.005797418
vt 0.11981448 -5.9604645E-08
vt 0.090827085 -5.9604645E-08
vt 0.090827085 0.0038649254
vt 0.11981448 0.0038649254
vt 0.11981448 -5.9604645E-08
vt 0.11981448 0.0038649254
vt 0.14493687 0.0038649254
vt 0.14493687 -5.9604645E-08
vt 0.14493687 0.0038649254
vt 0.17005928 0.0038649254
vt 0.17005928 -5.9604645E-08
vt 0.14493687 -5.9604645E-08
vt 0.0019324329 0.10821952
vt -5.9604645E-08 0.11015201
vt 0.0019324329 0.11208451
vt 0.0019324329 0.11015201
vt 0.0019324329 0.10821952
vt 0.0038649254 0.11208451
vt 0.0038649254 0.10821952
vt 0.0038649254 0.11208451
vt 0.005797418 0.11015201
vt -5.9604645E-08 0.42514828
vt 0.0019324329 0.12367946
vt -5.9604645E-08 0.12367946
vt 0.0019324329 0.42514828
vt 0.0038649254 0.42514828
vt 0.0038649254 0.12367946
vt -5.9604645E-08 0.4792581
vt -5.9604645E-08 0.48505557
vt 0.0019324329 0.48505557
vt 0.0019324329 0.4792581
vt 0.0038649254 0.4792581
vt 0.0038649254 0.48505557
vt 0.0019324329 0.4792581
vt 0.0019324329 0.45800066
vt -5.9604645E-08 0.45800066
vt -5.9604645E-08 0.4792581
vt 0.0019324329 0.45800066
vt 0.0019324329 0.45220318
vt -5.9604645E-08 0.45220318
vt -5.9604645E-08 0.45800066
vt -5.9604645E-08 0.43674326
vt -5.9604645E-08 0.45220318
vt 0.0019324329 0.45220318
vt 0.0019324329 0.43674326
vt -5.9604645E-08 0.43674326
vt 0.0019324329 0.42514828
vt -5.9604645E-08 0.42514828
vt 0.0019324329 0.43674326
vt 0.0038649254 0.43674326
vt 0.0038649254 0.42514828
vt 0.2164391 0.2666839
vt 0.22610156 0.24735898
vt 0.22416908 0.24542649
vt 0.2164391 0.2647514
vt 0.23189904 0.22996655
vt 0.22416908 0.24542649
vt 0.22610156 0.24735898
vt 0.23383154 0.23189904
vt 0.14493687 0.0038649254
vt 0.14493687 0.005797418
vt 0.17005928 0.005797418
vt 0.17005928 0.0038649254
vt 0.11981448 0.0038649254
vt 0.14493687 0.005797418
vt 0.14493687 0.0038649254
vt 0.11981448 0.005797418
vt 0.090827085 0.005797418
vt 0.090827085 0.0038649254
vt 0.071502164 0.0077299103
vt 0.071502164 0.0038649254
vt 0.03864979 0.05410973
vt 0.040582284 0.056042224
vt 0.0038649254 0.11208451
vt 0.0019324329 0.11208451
vt 0.0019324329 0.12367946
vt 0.0038649254 0.12367946
vt 0.0019324329 0.43674326
vt 0.0019324329 0.45220318
vt 0.0038649254 0.45220318
vt 0.0038649254 0.43674326
vt 0.0019324329 0.45220318
vt 0.0019324329 0.45800066
vt 0.0038649254 0.45800066
vt 0.0038649254 0.45220318
vt 0.0019324329 0.45800066
vt 0.0019324329 0.4792581
vt 0.0038649254 0.4792581
vt 0.0038649254 0.45800066
vt 0.20484415 0.4193508
vt 0.19904667 0.42901328
vt 0.20097916 0.43094578
vt 0.20677663 0.4212833
vt 0.20677663 0.35171357
vt 0.20677663 0.33238864
vt 0.20484415 0.33238864
vt 0.20484415 0.35171357
vt 0.20677663 0.33238864
vt 0.20677663 0.30726624
vt 0.20484415 0.30726624
vt 0.20484415 0.33238864
vt 0.20677663 0.28794134
vt 0.20484415 0.28794134
vt 0.20484415 0.30726624
vt 0.20677663 0.30726624
vt 0.03864979 0.05410973
vt 0.03864979 0.05217724
vt 0.0019324329 0.10821952
vt 0.0038649254 0.10821952
vt 0.03864979 0.05410973
vt 0.0038649254 0.10821952
vt 0.005797418 0.11015201
vt 0.040582284 0.056042224
vt 0.21064162 0.28214386
vt 0.20677663 0.2898738
vt 0.20677663 0.2898738
vt 0.21064162 0.28214386
vt 0.2183716 0.2686164
vt 0.2183716 0.2686164
vt 0.22610156 0.25122395
vt 0.22610156 0.25122395
vt 0.23383154 0.23383154
vt 0.23383154 0.23383154
vt 0.2415615 0.22030409
vt 0.2415615 0.22030409
vt 0.2415615 0.1913167
vt 0.2415615 0.22030409
vt 0.2415615 0.22030409
vt 0.2415615 0.1913167
vt 0.2415615 0.14493687
vt 0.2415615 0.14493687
vt 0.2415615 0.12754445
vt 0.2415615 0.12754445
vt 0.2415615 0.09662457
vt 0.2415615 0.09662457
vt 0.2415615 0.067637175
vt 0.2415615 0.067637175
vt 0.2415615 0.03864979
vt 0.2415615 0.03864979
vt 0.2415615 0.005797418
vt 0.2415615 0.005797418
vt 0.2415615 -5.9604645E-08
vt 0.2415615 -5.9604645E-08
vt 0.17005928 0.49278554
vt 0.17005928 0.49278554
vt 0.16039681 0.49278554
vt 0.16039681 0.49278554
vt 0.14493687 0.49278554
vt 0.14493687 0.49278554
vt 0.12561195 0.49278554
vt 0.12561195 0.49278554
vt 0.10242204 0.49278554
vt 0.10242204 0.49278554
vt 0.07729964 0.49278554
vt 0.07729964 0.49278554
vt 0.057974715 0.49278554
vt 0.057974715 0.49278554
vt 0.03864979 0.49278554
vt 0.03864979 0.49278554
vt 0.025122343 0.49278554
vt 0.025122343 0.49278554
vt 0.013527388 0.49278554
vt 0.013527388 0.49278554
vt -5.9604645E-08 0.49278554
vt -5.9604645E-08 0.49278554
vt 0.20677663 0.4232158
vt 0.20677663 0.4232158
vt 0.20097916 0.43287826
vt 0.20097916 0.43287826
vt 0.1913167 0.45220318
vt 0.1913167 0.45220318
vt 0.17585675 0.4792581
vt 0.17585675 0.4792581
vt 0.17005928 0.49278554
vt 0.17005928 0.49278554
vt 0.20677663 0.3710385
vt 0.20677663 0.4232158
vt 0.20677663 0.4232158
vt 0.20677663 0.3710385
vt 0.20677663 0.35171357
vt 0.20677663 0.35171357
vt 0.20677663 0.33238864
vt 0.20677663 0.33238864
vt 0.20677663 0.30726624
vt 0.20677663 0.30726624
vt 0.20677663 0.2898738
vt 0.20677663 0.2898738
vt 0.03864979 0.05217724
vt 0.071502164 -5.9604645E-08
vt 0.071502164 -5.9604645E-08
vt 0.03864979 0.05217724
vt -5.9604645E-08 0.11208451
vt 0.0019324329 0.10821952
vt 0.2183716 -5.9604645E-08
vt 0.2415615 -5.9604645E-08
vt 0.2415615 -5.9604645E-08
vt 0.2183716 -5.9604645E-08
vt 0.1913167 -5.9604645E-08
vt 0.1913167 -5.9604645E-08
vt 0.17005928 -5.9604645E-08
vt 0.17005928 -5.9604645E-08
vt 0.14493687 -5.9604645E-08
vt 0.14493687 -5.9604645E-08
vt 0.11981448 -5.9604645E-08
vt 0.11981448 -5.9604645E-08
vt 0.09662457 -5.9604645E-08
vt 0.090827085 -5.9604645E-08
vt 0.071502164 -5.9604645E-08
vt 0.079232134 -5.9604645E-08
vt 0.071502164 -5.9604645E-08
vt -5.9604645E-08 0.49278554
vt -5.9604645E-08 0.49278554
vt -5.9604645E-08 0.48505557
vt -5.9604645E-08 0.46186566
vt -5.9604645E-08 0.4792581
vt -5.9604645E-08 0.45800066
vt -5.9604645E-08 0.45800066
vt -5.9604645E-08 0.45027068
vt -5.9604645E-08 0.45220318
vt -5.9604645E-08 0.44060823
vt -5.9604645E-08 0.43674326
vt -5.9604645E-08 0.42901328
vt -5.9604645E-08 0.42514828
vt -5.9604645E-08 0.4193508
vt -5.9604645E-08 0.12367946
vt -5.9604645E-08 0.12947693
vt -5.9604645E-08 0.11015201
vt -5.9604645E-08 0.11594949
vt 0.0019324329 0.10821952
vt -5.9604645E-08 0.114016995
vt 0.0019324329 0.10821952
vt -5.9604645E-08 0.11208451
vt 0.20484415 0.28794134
vt 0.20484415 0.28794134
vt 0.20870914 0.27827886
vt 0.20870914 0.27827886
vt 0.2164391 0.2647514
vt 0.2164391 0.2647514
vt 0.22416908 0.24542649
vt 0.22416908 0.24542649
vt 0.23189904 0.22996655
vt 0.23189904 0.22996655
vt 0.23769651 0.2183716
vt 0.23769651 0.2183716
vt 0.23769651 0.2183716
vt 0.23769651 0.2183716
vt 0.23769651 0.1913167
vt 0.23769651 0.1913167
vt 0.23769651 0.14493687
vt 0.23769651 0.14493687
vt 0.23769651 0.12754445
vt 0.23769651 0.12754445
vt 0.23769651 0.09662457
vt 0.23769651 0.09662457
vt 0.23769651 0.067637175
vt 0.23769651 0.067637175
vt 0.23769651 0.03864979
vt 0.23769651 0.03864979
vt 0.23769651 0.005797418
vt 0.23769651 0.005797418
vt 0.23769651 0.005797418
vt 0.23769651 0.005797418
vt 0.2183716 0.005797418
vt 0.2183716 0.005797418
vt 0.1913167 0.005797418
vt 0.1913167 0.005797418
vt 0.17005928 0.005797418
vt 0.17005928 0.005797418
vt 0.14493687 0.005797418
vt 0.14493687 0.005797418
vt 0.11981448 0.005797418
vt 0.11981448 0.005797418
vt 0.11981448 0.005797418
vt 0.11981448 0.005797418
vt 0.090827085 0.005797418
vt 0.094692074 0.0038649254
vt 0.071502164 0.0077299103
vt 0.071502164 0.005797418
vt 0.07729964 0.0038649254
vt 0.094692074 0.0038649254
vt 0.090827085 0.005797418
vt 0.071502164 0.005797418
vt 0.071502164 0.0077299103
vt 0.040582284 0.056042224
vt 0.040582284 0.056042224
vt 0.005797418 0.11015201
vt 0.0019324329 0.114016995
vt 0.0038649254 0.11594949
vt 0.0038649254 0.11208451
vt 0.0038649254 0.11788198
vt 0.0038649254 0.11208451
vt 0.0019324329 0.114016995
vt 0.005797418 0.11015201
vt 0.0038649254 0.11788198
vt 0.0038649254 0.11208451
vt 0.0038649254 0.12367946
vt 0.0038649254 0.12947693
vt 0.0038649254 0.42514828
vt 0.0038649254 0.4193508
vt 0.0038649254 0.43674326
vt 0.0038649254 0.42901328
vt 0.0038649254 0.45220318
vt 0.0038649254 0.44060823
vt 0.0038649254 0.45800066
vt 0.0038649254 0.45027068
vt 0.0038649254 0.4792581
vt 0.0038649254 0.45800066
vt 0.0038649254 0.48505557
vt 0.0038649254 0.46186566
vt 0.0038649254 0.48698804
vt 0.0038649254 0.48698804
vt 0.0038649254 0.48698804
vt 0.0038649254 0.48698804
vt 0.013527388 0.48698804
vt 0.013527388 0.48698804
vt 0.025122343 0.48698804
vt 0.025122343 0.48698804
vt 0.03864979 0.48698804
vt 0.03864979 0.48698804
vt 0.057974715 0.48698804
vt 0.057974715 0.48698804
vt 0.07729964 0.48698804
vt 0.07729964 0.48698804
vt 0.10242204 0.48698804
vt 0.10242204 0.48698804
vt 0.12561195 0.48698804
vt 0.12561195 0.48698804
vt 0.14493687 0.48698804
vt 0.14493687 0.48698804
vt 0.16039681 0.48698804
vt 0.16039681 0.48698804
vt 0.16812679 0.48698804
vt 0.16812679 0.48698804
vt 0.16812679 0.48698804
vt 0.16812679 0.48698804
vt 0.17392427 0.4734606
vt 0.17392427 0.4734606
vt 0.1893842 0.4483382
vt 0.1893842 0.4483382
vt 0.19904667 0.42901328
vt 0.19904667 0.42901328
vt 0.20484415 0.4193508
vt 0.20484415 0.4193508
vt 0.20484415 0.4193508
vt 0.20484415 0.4193508
vt 0.20484415 0.3710385
vt 0.20484415 0.3710385
vt 0.20484415 0.35171357
vt 0.20484415 0.35171357
vt 0.20484415 0.33238864
vt 0.20484415 0.33238864
vt 0.20484415 0.30726624
vt 0.20484415 0.30726624
vt 0.20484415 0.28794134
vt 0.20484415 0.28794134
vn 0.26845825 0.96329135 -0
vn 0.26845825 0.96329135 -0
vn 0.26845825 0.96329135 -0
vn 0.26845825 0.96329135 -0
vn 0.26845825 0.96329135 -0
vn 0.26845825 0.96329135 -0
vn -0.20632327 0.968132 -0.1419547
vn -0.20632327 0.968132 -0.1419547
vn -0.20632327 0.968132 -0.1419547
vn -0.20632327 0.968132 -0.1419547
vn -0.20632327 0.968132 -0.1419547
vn -0.20632327 0.968132 -0.1419547
vn -0.17458117 0.968132 -0.17956008
vn -0.17458117 0.968132 -0.17956008
vn -0.1428392 0.968132 -0.20571192
vn -0.1428392 0.968132 -0.20571192
vn -0.17458117 0.968132 -0.17956008
vn -0.1428392 0.968132 -0.20571192
vn -0.17458117 0.968132 -0.17956008
vn -0.17458117 0.968132 -0.17956008
vn 0.14283913 0.968132 0.20571192
vn 0.14283913 0.968132 0.20571192
vn 0.14283913 0.968132 0.20571192
vn 0.14283913 0.968132 0.20571192
vn 0.1110971 0.968132 0.2244501
vn 0.1110971 0.968132 0.2244501
vn 0.1110971 0.968132 0.2244501
vn 0.1110971 0.968132 0.2244501
vn 0.1110971 0.968132 0.2244501
vn -0.079116344 0.9968654 -0
vn -0.079116344 0.9968654 -0
vn -0.079116344 0.9968654 -0
vn -0.079116344 0.9968654 -0
vn -0.14142141 0.98994946 -0
vn -0.14142141 0.98994946 -0
vn -0.14142141 0.98994946 -0
vn -0.14142141 0.98994946 -0
vn -0.172001 0.9850967 -0
vn -0.172001 0.9850967 -0
vn 0.2063232 0.42851746 0.879661
vn 0.2063232 0.42851746 0.879661
vn 0.2063232 0.42851746 0.879661
vn 0.2063232 0.42851746 0.879661
vn -0.079116344 0.9968654 -0
vn -0.079116344 0.9968654 -0
vn -0.079116344 0.9968654 -0
vn -0.079116344 0.9968654 -0
vn -0.07935512 0.87290585 -0.48139188
vn -0.07935512 0.87290585 -0.48139188
vn -0.07935512 0.87290585 -0.48139188
vn -0.07935512 0.87290585 -0.48139188
vn -0.07935512 0.8411639 -0.53492624
vn -0.1110971 0.8411639 -0.52924544
vn -0.07935512 0.8411639 -0.53492624
vn -0.07935512 0.8411639 -0.53492624
vn -0.07935512 0.8411639 -0.53492624
vn -0.07935512 0.8411639 -0.53492624
vn -0.07935512 0.8411639 -0.53492624
vn 0.015870988 0.968132 0.24993704
vn 0.015870988 0.968132 0.24993704
vn 0.015870988 0.968132 0.24993704
vn 0.015870988 0.968132 0.24993704
vn 0.015870988 0.968132 0.24993704
vn 0.015870988 0.968132 0.24993704
vn 0.07935506 0.968132 0.23753566
vn 0.07935506 0.968132 0.23753566
vn 0.07935506 0.968132 0.23753566
vn 0.07935506 0.968132 0.23753566
vn 0.1110971 0.968132 0.2244501
vn 0.1110971 0.968132 0.2244501
vn -0.015871048 0.999874 -0.00034526698
vn -0.015871048 0.999874 -0.00034526698
vn -0.015871048 0.999874 -0.00034526698
vn -0.015871048 0.999874 -0.00034526698
vn -0.015871048 0.999874 -0.00034526698
vn -0.015871048 0.999874 -0.00034526698
vn 0.04756513 0.99886817 -0
vn 0.04756513 0.99886817 -0
vn 0.04756513 0.99886817 -0
vn 0.04756513 0.99886817 -0
vn 0.04756513 0.99886817 -0
vn 0.04756513 0.99886817 -0
vn 0.079116285 0.9968654 -0
vn 0.079116285 0.9968654 -0
vn 0.079116285 0.9968654 -0
vn 0.079116285 0.9968654 -0
vn 0.079116285 0.9968654 -0
vn 0.079116285 0.9968654 -0
vn -0.015871048 0.999874 -0.00034526698
vn -0.015871048 0.999874 -0.00034526698
vn -0.015871048 0.999874 -0.00034526698
vn -0.015871048 0.999874 -0.00034526698
vn -0.015871048 0.999874 -0.00034526698
vn -0.015871048 0.999874 -0.00034526698
vn -0.015871048 0.999874 -0.00034526698
vn -0.015871048 0.999874 -0.00034526698
vn -0.015871048 0.999874 -0.00034526698
vn -0.015871048 0.999874 -0.00034526698
vn -0.015871048 0.999874 -0.00034526698
vn -0.015871048 0.999874 -0.00034526698
vn -0.015871048 0.999874 -0.00034526698
vn -0.015871048 0.999874 -0.00034526698
vn -0.015871048 0.999874 -0.00034526698
vn -0.015871048 0.999874 -0.00034526698
vn -0.015871048 0.999874 -0.00034526698
vn -0.015871048 0.999874 -0.00034526698
vn 0.04756513 0.99886817 -0
vn 0.04756513 0.99886817 -0
vn 0.04756513 0.99886817 -0
vn 0.04756513 0.99886817 -0
vn 0.04756513 0.99886817 -0
vn 0.04756513 0.99886817 -0
vn 0.04756513 0.99886817 -0
vn 0.015870988 0.999874 -0.00034526698
vn 0.015870988 0.999874 -0.00034526698
vn 0.015870988 0.999874 -0.00034526698
vn 0.015870988 0.999874 -0.00034526698
vn -0.110431515 0.9938838 -0
vn -0.110431515 0.9938838 -0
vn -0.110431515 0.9938838 -0
vn -0.110431515 0.9938838 -0
vn -0.079116344 0.9968654 -0
vn -0.079116344 0.9968654 -0
vn -0.7459378 0.65071166 0.1419546
vn -0.7459378 0.65071166 0.1419546
vn -0.7459378 0.65071166 0.1419546
vn -0.7459378 0.65071166 0.1419546
vn -0.9037378 0.42808634 -0
vn -0.9037378 0.42808634 -0
vn -0.9037378 0.42808634 -0
vn -0.9037378 0.42808634 -0
vn -0.6189697 0.7141957 -0.32680428
vn -0.6189697 0.7141957 -0.32680428
vn -0.6189697 0.7141957 -0.32680428
vn -0.6189697 0.7141957 -0.32680428
vn 0.14283913 0.968132 -0.20571192
vn 0.14283913 0.968132 -0.20571192
vn 0.14283913 0.968132 -0.20571192
vn 0.14283913 0.968132 -0.20571192
vn 0.14283913 0.968132 -0.20571192
vn 0.14283913 0.968132 -0.20571192
vn -0.20632327 0.968132 -0.1419547
vn -0.20632327 0.968132 -0.1419547
vn -0.20632327 0.968132 -0.1419547
vn -0.20632327 0.968132 -0.1419547
vn -0.23806524 0.968132 -0.07775179
vn -0.23806524 0.968132 -0.07775179
vn -0.1428392 0.968132 -0.20571192
vn -0.1428392 0.968132 -0.20571192
vn -0.1428392 0.968132 -0.20571192
vn -0.1428392 0.968132 -0.20571192
vn 0.047613025 0.968132 -0.24587277
vn 0.047613025 0.968132 -0.24587277
vn 0.047613025 0.968132 -0.24587277
vn 0.047613025 0.968132 -0.24587277
vn -0.1110971 0.7776798 -0.6187662
vn -0.1110971 0.7776798 -0.6187662
vn -0.1110971 0.7776798 -0.6187662
vn -0.1110971 0.7776798 -0.6187662
vn -0.1110971 0.7776798 -0.6187662
vn -0.1110971 0.7776798 -0.6187662
vn -0.015871048 0.87290585 -0.4876305
vn -0.015871048 0.87290585 -0.4876305
vn -0.015871048 0.87290585 -0.4876305
vn -0.015871048 0.87290585 -0.4876305
vn -0.047613025 0.8411639 -0.5386802
vn -0.1428392 0.7459378 -0.65051806
vn -0.1428392 0.7459378 -0.65051806
vn -0.1428392 0.7459378 -0.65051806
vn -0.1428392 0.7459378 -0.65051806
vn -0.1110971 0.7459378 -0.6566842
vn -0.1110971 0.7459378 -0.6566842
vn -0.1428392 0.8094218 -0.56959057
vn -0.1428392 0.8094218 -0.56959057
vn -0.1428392 0.8094218 -0.56959057
vn -0.1428392 0.8094218 -0.56959057
vn -0.1428392 0.8094218 -0.56959057
vn -0.1428392 0.8094218 -0.56959057
vn 0.015870988 0.8094218 -0.58701324
vn 0.015870988 0.8094218 -0.58701324
vn 0.015870988 0.8094218 -0.58701324
vn 0.015870988 0.8094218 -0.58701324
vn 0.015870988 0.8094218 -0.58701324
vn 0.015870988 0.8094218 -0.58701324
vn 0.047613025 0.8411639 -0.5386802
vn 0.047613025 0.8411639 -0.5386802
vn 0.07935506 0.8411639 -0.53492624
vn 0.07935506 0.8411639 -0.53492624
vn 0.07935506 0.8411639 -0.53492624
vn -0.9037378 0.42808634 -0
vn -0.9037378 0.42808634 -0
vn -0.9037378 0.42808634 -0
vn -0.9037378 0.42808634 -0
vn -0.9037378 0.42808634 -0
vn -0.9037378 0.42808634 -0
vn -0.2684583 0.96329135 -0
vn -0.2684583 0.96329135 -0
vn -0.2684583 0.96329135 -0
vn -0.2684583 0.96329135 -0
vn -0.2684583 0.96329135 -0
vn -0.2684583 0.96329135 -0
vn -0.2684583 0.96329135 -0
vn -0.2684583 0.96329135 -0
vn -0.015871048 0.9363899 -0.35060233
vn -0.015871048 0.9363899 -0.35060233
vn -0.015871048 0.9363899 -0.35060233
vn -0.015871048 0.9363899 -0.35060233
vn 0.46025944 0.047613025 0.8865068
vn 0.4285174 0.047613025 0.9022781
vn 0.4285174 0.047613025 0.9022781
vn 0.46025944 0.047613025 0.8865068
vn 0.46025944 0.015871048 0.8876426
vn 0.39677536 0.047613025 0.91668004
vn 0.46025944 0.015871048 0.8876426
vn 0.4285174 0.047613025 0.9022781
vn 0.46025944 0.015871048 0.8876426
vn -0.015871048 0.999874 -0.00034526698
vn -0.015871048 0.999874 -0.00034526698
vn -0.015871048 0.999874 -0.00034526698
vn -0.015871048 0.999874 -0.00034526698
vn -0.015871048 0.999874 -0.00034526698
vn -0.015871048 0.999874 -0.00034526698
vn -0.015871048 0.1428392 -0.98961866
vn -0.015871048 0.1428392 -0.98961866
vn -0.015871048 0.1428392 -0.98961866
vn -0.015871048 0.1428392 -0.98961866
vn 0.015870988 0.1428392 -0.98961866
vn 0.015870988 0.1428392 -0.98961866
vn -0.39677536 0.7459378 -0.5349262
vn -0.39677536 0.7459378 -0.5349262
vn -0.39677536 0.7459378 -0.5349262
vn -0.39677536 0.7459378 -0.5349262
vn -0.30154932 0.42851746 -0.8517281
vn -0.30154932 0.42851746 -0.8517281
vn -0.30154932 0.42851746 -0.8517281
vn -0.30154932 0.42851746 -0.8517281
vn -0.17458117 0.49200153 -0.8529103
vn -0.17458117 0.49200153 -0.8529103
vn -0.17458117 0.49200153 -0.8529103
vn -0.17458117 0.49200153 -0.8529103
vn 0.015870988 0.5237435 -0.85172814
vn 0.015870988 0.5237435 -0.85172814
vn 0.015870988 0.5237435 -0.85172814
vn 0.015870988 0.5237435 -0.85172814
vn 0.015870988 0.5237435 -0.85172814
vn 0.015870988 0.5237435 -0.85172814
vn 0.1110971 0.968132 -0.2244501
vn 0.1110971 0.968132 -0.2244501
vn 0.1110971 0.968132 -0.2244501
vn 0.1110971 0.968132 -0.2244501
vn -0.07935512 0.968132 -0.23753566
vn -0.07935512 0.968132 -0.23753566
vn -0.07935512 0.968132 -0.23753566
vn -0.07935512 0.968132 -0.23753566
vn 0.015870988 0.9363899 -0.35060233
vn 0.015870988 0.9363899 -0.35060233
vn 0.015870988 0.9363899 -0.35060233
vn 0.015870988 0.9363899 -0.35060233
vn -0.2684583 0.96329135 -0
vn -0.2684583 0.96329135 -0
vn -0.2684583 0.96329135 -0
vn -0.2684583 0.96329135 -0
vn -0.2684583 0.96329135 -0
vn -0.2684583 0.96329135 -0
vn -0.17458117 0.968132 0.17956008
vn -0.17458117 0.968132 0.17956008
vn -0.17458117 0.968132 0.17956008
vn -0.17458117 0.968132 0.17956008
vn 0.17458117 0.39677536 0.9011608
vn 0.17458117 0.39677536 0.9011608
vn 0.17458117 0.39677536 0.9011608
vn 0.17458117 0.39677536 0.9011608
vn 0.07935506 0.5237435 -0.8481719
vn 0.07935506 0.5237435 -0.8481719
vn 0.07935506 0.5237435 -0.8481719
vn 0.07935506 0.5237435 -0.8481719
vn 0.07935506 0.46025944 -0.8842308
vn 0.07935506 0.46025944 -0.8842308
vn 0.07935506 0.46025944 -0.8842308
vn 0.07935506 0.46025944 -0.8842308
vn 0.07935506 0.8094218 -0.58184123
vn 0.07935506 0.8094218 -0.58184123
vn 0.07935506 0.8094218 -0.58184123
vn 0.07935506 0.8094218 -0.58184123
vn -0.079116344 0.9968654 -0
vn -0.079116344 0.9968654 -0
vn -0.079116344 0.9968654 -0
vn -0.079116344 0.9968654 -0
vn -0.5554856 0.8094218 -0.19045253
vn -0.5554856 0.8094218 -0.19045253
vn -0.5554856 0.8094218 -0.19045253
vn -0.5554856 0.8094218 -0.19045253
vn -0.6189697 0.7776798 0.10995764
vn -0.6189697 0.7776798 0.10995764
vn -0.6189697 0.7776798 0.10995764
vn -0.6189697 0.7776798 0.10995764
vn 0.04756513 0.99886817 -0
vn 0.04756513 0.99886817 -0
vn 0.04756513 0.99886817 -0
vn 0.04756513 0.99886817 -0
vn 0.015870988 0.999874 -0.00034526698
vn 0.015870988 0.999874 -0.00034526698
vn 0.015870988 0.999874 -0.00034526698
vn 0.015870988 0.999874 -0.00034526698
vn -0.047613025 0.968132 0.24587277
vn -0.047613025 0.968132 0.24587277
vn -0.047613025 0.968132 0.24587277
vn -0.047613025 0.968132 0.24587277
vn 0.7459377 0.015871048 -0.66582656
vn 0.7459377 0.015871048 -0.66582656
vn 0.7459377 0.015871048 -0.66582656
vn 0.7459377 0.015871048 -0.66582656
vn 0.7459377 0.015871048 -0.66582656
vn 0.7459377 0.015871048 -0.66582656
vn 0.7459377 0.015871048 -0.66582656
vn 0.7459377 0.015871048 -0.66582656
vn 0.7459377 0.015871048 -0.66582656
vn 0.7459377 0.015871048 -0.66582656
vn 0.7459377 0.015871048 -0.66582656
vn 0.7459377 0.015871048 -0.66582656
vn 0.999874 0.015871048 -0.00034391563
vn 0.999874 0.015871048 -0.00034391563
vn 0.999874 0.015871048 -0.00034391563
vn 0.999874 0.015871048 -0.00034391563
vn 0.999874 0.015871048 -0.00034391563
vn 0.999874 0.015871048 -0.00034391563
vn 0.999874 0.015871048 -0.00034391563
vn 0.999874 0.015871048 -0.00034391563
vn 0.999874 0.015871048 -0.00034391563
vn 0.999874 0.015871048 -0.00034391563
vn 0.999874 0.015871048 -0.00034391563
vn 0.999874 0.015871048 -0.00034391563
vn 0.999874 0.015871048 -0.00034391563
vn 0.999874 0.015871048 -0.00034391563
vn 0.999874 0.015871048 -0.00034391563
vn 0.999874 0.015871048 -0.00034391563
vn 0.999874 0.015871048 -0.00034391563
vn 0.999874 0.015871048 -0.00034391563
vn -0.015871048 0.015871048 -0.99974805
vn -0.015871048 0.015871048 -0.99974805
vn -0.015871048 0.015871048 -0.99974805
vn -0.015871048 0.015871048 -0.99974805
vn -0.015871048 0.015871048 -0.99974805
vn -0.015871048 0.015871048 -0.99974805
vn -0.015871048 0.015871048 -0.99974805
vn -0.015871048 0.015871048 -0.99974805
vn -0.015871048 0.015871048 -0.99974805
vn -0.015871048 0.015871048 -0.99974805
vn -0.015871048 0.015871048 -0.99974805
vn -0.015871048 0.015871048 -0.99974805
vn -0.015871048 0.015871048 -0.99974805
vn -0.015871048 0.015871048 -0.99974805
vn -0.015871048 0.015871048 -0.99974805
vn -0.015871048 0.015871048 -0.99974805
vn -0.015871048 0.015871048 -0.99974805
vn -0.015871048 0.015871048 -0.99974805
vn -0.015871048 0.015871048 -0.99974805
vn -0.015871048 0.015871048 -0.99974805
vn -0.015871048 0.015871048 -0.99974805
vn -0.015871048 0.015871048 -0.99974805
vn 0.68245363 0.015871048 -0.7307566
vn 0.68245363 0.015871048 -0.7307566
vn 0.68245363 0.015871048 -0.7307566
vn 0.68245363 0.015871048 -0.7307566
vn 0.68245363 0.015871048 -0.7307566
vn 0.68245363 0.015871048 -0.7307566
vn 0.68245363 0.015871048 -0.7307566
vn 0.68245363 0.015871048 -0.7307566
vn 0.68245363 0.015871048 -0.7307566
vn 0.68245363 0.015871048 -0.7307566
vn 0.999874 0.015871048 -0.00034391563
vn 0.999874 0.015871048 -0.00034391563
vn 0.999874 0.015871048 -0.00034391563
vn 0.999874 0.015871048 -0.00034391563
vn 0.999874 0.015871048 -0.00034391563
vn 0.999874 0.015871048 -0.00034391563
vn 0.999874 0.015871048 -0.00034391563
vn 0.999874 0.015871048 -0.00034391563
vn 0.999874 0.015871048 -0.00034391563
vn 0.999874 0.015871048 -0.00034391563
vn 0.999874 0.015871048 -0.00034391563
vn 0.999874 0.015871048 -0.00034391563
vn -0.6189697 -0.015870988 0.78525454
vn -0.6189697 -0.015870988 0.78525454
vn -0.6189697 -0.015870988 0.78525454
vn -0.6189697 -0.015870988 0.78525454
vn -0.65071166 -0.015870988 0.759159
vn -0.65071166 -0.015870988 0.759159
vn -0.015871048 0.015871048 0.99974805
vn -0.015871048 0.015871048 0.99974805
vn -0.015871048 0.015871048 0.99974805
vn -0.015871048 0.015871048 0.99974805
vn -0.015871048 0.015871048 0.99974805
vn -0.015871048 0.015871048 0.99974805
vn -0.015871048 0.015871048 0.99974805
vn -0.015871048 0.015871048 0.99974805
vn -0.015871048 0.015871048 0.99974805
vn -0.015871048 0.015871048 0.99974805
vn -0.015871048 0.015871048 0.99974805
vn -0.015871048 0.015871048 0.99974805
vn -0.015871048 0.015871048 0.99974805
vn -0.015871048 0.015871048 0.99974805
vn -0.015871048 0.015871048 0.99974805
vn -0.015871048 0.015871048 0.99974805
vn -0.015871048 0.015871048 0.99974805
vn -0.999874 0.015871048 -0.00034391563
vn -0.999874 0.015871048 -0.00034391563
vn -0.999874 0.015871048 -0.00034391563
vn -0.999874 0.015871048 -0.00034391563
vn -0.999874 0.015871048 -0.00034391563
vn -0.999874 0.015871048 -0.00034391563
vn -0.999874 0.015871048 -0.00034391563
vn -0.999874 0.015871048 -0.00034391563
vn -0.999874 0.015871048 -0.00034391563
vn -0.999874 0.015871048 -0.00034391563
vn -0.999874 0.015871048 -0.00034391563
vn -0.999874 0.015871048 -0.00034391563
vn -0.999874 0.015871048 -0.00034391563
vn -0.999874 0.015871048 -0.00034391563
vn -0.999874 -0.015870988 -0.00034665503
vn -0.999874 -0.015870988 -0.00034665503
vn -0.999874 -0.015870988 -0.00034665503
vn -0.999874 -0.015870988 -0.00034665503
vn -0.968132 -0.015870988 0.24993704
vn -0.968132 -0.015870988 0.24993704
vn -0.9363899 0.015871048 0.35060233
vn -0.9363899 0.015871048 0.35060233
vn -0.7459378 0.015871048 0.66582644
vn -0.7459378 0.015871048 0.66582644
vn -0.7459378 0.015871048 0.66582644
vn -0.7459378 0.015871048 0.66582644
vn -0.7459378 0.015871048 0.66582644
vn -0.7459378 0.015871048 0.66582644
vn -0.7459378 0.015871048 0.66582644
vn -0.7459378 0.015871048 0.66582644
vn -0.7459378 0.015871048 0.66582644
vn -0.7459378 0.015871048 0.66582644
vn -0.7459378 0.015871048 0.66582644
vn -0.7459378 0.015871048 0.66582644
vn -0.999874 0.015871048 -0.00034391563
vn -0.999874 0.015871048 -0.00034391563
vn -0.999874 0.015871048 -0.00034391563
vn -0.999874 0.015871048 -0.00034391563
vn -0.999874 0.015871048 -0.00034391563
vn -0.999874 0.015871048 -0.00034391563
vn -0.999874 0.015871048 -0.00034391563
vn -0.999874 0.015871048 -0.00034391563
vn -0.999874 0.015871048 -0.00034391563
vn -0.999874 0.015871048 -0.00034391563
vn -0.999874 0.015871048 -0.00034391563
vn -0.999874 0.015871048 -0.00034391563
vn -0.999874 0.015871048 -0.00034391563
vn -0.999874 0.015871048 -0.00034391563
vn -0.999874 0.015871048 -0.00034391563
vn -0.999874 0.015871048 -0.00034391563
vn -0.015871048 0.015871048 -0.99974805
vn -0.015871048 0.015871048 -0.99974805
vn -0.015871048 0.015871048 -0.99974805
vn -0.015871048 0.015871048 -0.99974805
vn -0.015871048 0.015871048 -0.99974805
vn -0.015871048 0.015871048 -0.99974805
vn -0.015871048 0.015871048 -0.99974805
vn -0.015871048 0.015871048 -0.99974805
vn -0.015871048 0.015871048 -0.99974805
vn -0.015871048 0.015871048 -0.99974805
vn -0.015871048 0.015871048 -0.99974805
vn -0.015871048 0.015871048 -0.99974805
vn 0.015870988 -0.1110971 -0.9936828
vn 0.015870988 -0.1110971 -0.9936828
vn 0.015870988 -0.1110971 -0.9936828
vn 0.015870988 -0.1110971 -0.9936828
vn 0.17458117 -0.07935506 -0.9814398
vn 0.23806524 -0.015870988 -0.97111946
vn 0.17458117 -0.07935506 -0.9814398
vn 0.17458117 -0.07935506 -0.9814398
vn 0.17458117 -0.07935506 -0.9814398
vn 0.6189696 0.015871048 -0.78525454
vn 0.6189696 0.015871048 -0.78525454
vn 0.6189696 0.015871048 -0.78525454
vn 0.6189696 0.015871048 -0.78525454
vn 0.6189696 0.015871048 -0.78525454
vn 0.6189696 0.015871048 -0.78525454
vn 0.8411638 -0.015870988 -0.5405475
vn 0.96813196 0.015871048 -0.24993728
vn 0.96813196 0.015871048 -0.24993728
vn 0.87290585 -0.015870988 -0.4876305
vn 0.7459377 -0.015870988 -0.66582656
vn 0.7459377 -0.015870988 -0.66582656
vn 0.999874 -0.015870988 -0.00034665503
vn 0.999874 -0.015870988 -0.00034665503
vn 0.999874 -0.015870988 -0.00034665503
vn 0.999874 -0.015870988 -0.00034665503
vn 0.999874 0.015871048 -0.00034391563
vn 0.999874 0.015871048 -0.00034391563
vn 0.999874 0.015871048 -0.00034391563
vn 0.999874 0.015871048 -0.00034391563
vn 0.999874 0.015871048 -0.00034391563
vn 0.999874 0.015871048 -0.00034391563
vn 0.999874 0.015871048 -0.00034391563
vn 0.999874 0.015871048 -0.00034391563
vn 0.999874 0.015871048 -0.00034391563
vn 0.999874 0.015871048 -0.00034391563
vn 0.999874 0.015871048 -0.00034391563
vn 0.999874 0.015871048 -0.00034391563
vn 0.999874 0.015871048 -0.00034391563
vn 0.999874 0.015871048 -0.00034391563
vn -0.015871048 0.015871048 0.99974805
vn -0.015871048 0.015871048 0.99974805
vn -0.015871048 0.015871048 0.99974805
vn -0.015871048 0.015871048 0.99974805
vn -0.015871048 0.015871048 0.99974805
vn -0.015871048 0.015871048 0.99974805
vn -0.015871048 0.015871048 0.99974805
vn -0.015871048 0.015871048 0.99974805
vn -0.015871048 0.015871048 0.99974805
vn -0.015871048 0.015871048 0.99974805
vn -0.015871048 0.015871048 0.99974805
vn -0.015871048 0.015871048 0.99974805
vn -0.015871048 0.015871048 0.99974805
vn -0.015871048 0.015871048 0.99974805
vn -0.015871048 0.015871048 0.99974805
vn -0.015871048 0.015871048 0.99974805
vn -0.015871048 0.015871048 0.99974805
vn -0.015871048 0.015871048 0.99974805
vn -0.015871048 0.015871048 0.99974805
vn -0.015871048 0.015871048 0.99974805
vn -0.015871048 0.015871048 0.99974805
vn -0.015871048 0.015871048 0.99974805
vn -0.68245375 0.015871048 0.73075646
vn -0.68245375 0.015871048 0.73075646
vn -0.68245375 0.015871048 0.73075646
vn -0.68245375 0.015871048 0.73075646
vn -0.68245375 0.015871048 0.73075646
vn -0.68245375 0.015871048 0.73075646
vn -0.68245375 0.015871048 0.73075646
vn -0.68245375 0.015871048 0.73075646
vn -0.68245375 0.015871048 0.73075646
vn -0.68245375 0.015871048 0.73075646
vn -0.999874 0.015871048 -0.00034391563
vn -0.999874 0.015871048 -0.00034391563
vn -0.999874 0.015871048 -0.00034391563
vn -0.999874 0.015871048 -0.00034391563
vn -0.999874 0.015871048 -0.00034391563
vn -0.999874 0.015871048 -0.00034391563
vn -0.999874 0.015871048 -0.00034391563
vn -0.999874 0.015871048 -0.00034391563
vn -0.999874 0.015871048 -0.00034391563
vn -0.999874 0.015871048 -0.00034391563
vn -0.999874 0.015871048 -0.00034391563
vn -0.999874 0.015871048 -0.00034391563
g tb_geo_outline_02_mesh_0
f 3/3/3 2/2/2 1/1/1
f 2/2/2 4/4/4 1/1/1
f 5/5/5 4/4/4 2/2/2
f 6/6/6 5/5/5 2/2/2
f 9/9/9 8/8/8 7/7/7
f 10/10/10 9/9/9 7/7/7
f 7/7/7 11/11/11 10/10/10
f 11/11/11 12/12/12 10/10/10
f 12/12/12 13/13/13 10/10/10
f 13/13/13 14/14/14 10/10/10
f 14/14/14 13/13/13 15/15/15
f 13/13/13 16/16/16 15/15/15
f 14/14/14 15/15/15 17/17/17
f 15/15/15 18/18/18 17/17/17
f 17/17/17 19/19/19 14/14/14
f 19/19/19 20/20/20 14/14/14
f 23/23/23 22/22/22 21/21/21
f 22/22/22 24/24/24 21/21/21
f 25/25/25 21/21/21 24/24/24
f 26/26/26 25/25/25 24/24/24
f 26/26/26 24/24/24 27/27/27
f 24/24/24 28/28/28 27/27/27
f 24/24/24 22/22/22 28/28/28
f 22/22/22 29/29/29 28/28/28
f 32/32/32 31/31/31 30/30/30
f 33/33/33 32/32/32 30/30/30
f 36/36/36 35/35/35 34/34/34
f 37/37/37 36/36/36 34/34/34
f 36/36/36 37/37/37 38/38/38
f 39/39/39 36/36/36 38/38/38
f 42/42/42 41/41/41 40/40/40
f 43/43/43 42/42/42 40/40/40
f 46/46/46 45/45/45 44/44/44
f 47/47/47 46/46/46 44/44/44
f 50/50/50 49/49/49 48/48/48
f 51/51/51 50/50/50 48/48/48
f 51/51/51 52/52/52 50/50/50
f 52/52/52 53/53/53 50/50/50
f 55/55/55 54/54/54 52/52/52
f 56/56/56 55/55/55 52/52/52
f 55/55/55 56/56/56 57/57/57
f 56/56/56 58/58/58 57/57/57
f 61/61/61 60/60/60 59/59/59
f 60/60/60 62/62/62 59/59/59
f 59/59/59 62/62/62 63/63/63
f 64/64/64 59/59/59 63/63/63
f 67/67/67 66/66/66 65/65/65
f 66/66/66 68/68/68 65/65/65
f 68/68/68 66/66/66 69/69/69
f 66/66/66 70/70/70 69/69/69
f 73/73/73 72/72/72 71/71/71
f 72/72/72 74/74/74 71/71/71
f 71/71/71 74/74/74 75/75/75
f 74/74/74 76/76/76 75/75/75
f 79/79/79 78/78/78 77/77/77
f 78/78/78 80/80/80 77/77/77
f 80/80/80 78/78/78 81/81/81
f 78/78/78 82/82/82 81/81/81
f 85/85/85 84/84/84 83/83/83
f 84/84/84 86/86/86 83/83/83
f 86/86/86 84/84/84 87/87/87
f 84/84/84 88/88/88 87/87/87
f 91/91/91 90/90/90 89/89/89
f 90/90/90 92/92/92 89/89/89
f 90/90/90 93/93/93 92/92/92
f 89/89/89 92/92/92 94/94/94
f 95/95/95 89/89/89 94/94/94
f 96/96/96 94/94/94 92/92/92
f 93/93/93 97/97/97 92/92/92
f 97/97/97 96/96/96 92/92/92
f 93/93/93 98/98/98 97/97/97
f 96/96/96 97/97/97 99/99/99
f 98/98/98 100/100/100 97/97/97
f 97/97/97 100/100/100 99/99/99
f 101/101/101 100/100/100 98/98/98
f 99/99/99 100/100/100 101/101/101
f 102/102/102 101/101/101 98/98/98
f 103/103/103 99/99/99 101/101/101
f 104/104/104 101/101/101 102/102/102
f 101/101/101 104/104/104 103/103/103
f 105/105/105 104/104/104 102/102/102
f 104/104/104 106/106/106 103/103/103
f 109/109/109 108/108/108 107/107/107
f 110/110/110 109/109/109 107/107/107
f 110/110/110 107/107/107 111/111/111
f 107/107/107 112/112/112 111/111/111
f 112/112/112 114/114/114 113/113/113
f 114/114/114 115/115/115 113/113/113
f 115/115/115 114/114/114 116/116/116
f 114/114/114 117/117/117 116/116/116
f 120/120/120 119/119/119 118/118/118
f 119/119/119 121/121/121 118/118/118
f 122/122/122 118/118/118 121/121/121
f 123/123/123 122/122/122 121/121/121
f 126/126/126 125/125/125 124/124/124
f 127/127/127 126/126/126 124/124/124
f 130/130/130 129/129/129 128/128/128
f 131/131/131 130/130/130 128/128/128
f 134/134/134 133/133/133 132/132/132
f 135/135/135 134/134/134 132/132/132
f 138/138/138 137/137/137 136/136/136
f 137/137/137 139/139/139 136/136/136
f 140/140/140 139/139/139 137/137/137
f 141/141/141 140/140/140 137/137/137
f 144/144/144 143/143/143 142/142/142
f 143/143/143 145/145/145 142/142/142
f 146/146/146 145/145/145 143/143/143
f 147/147/147 146/146/146 143/143/143
f 150/150/150 149/149/149 148/148/148
f 151/151/151 150/150/150 148/148/148
f 154/154/154 153/153/153 152/152/152
f 155/155/155 154/154/154 152/152/152
f 158/158/158 157/157/157 156/156/156
f 159/159/159 158/158/158 156/156/156
f 158/158/158 159/159/159 160/160/160
f 161/161/161 158/158/158 160/160/160
f 164/164/164 163/163/163 162/162/162
f 163/163/163 165/165/165 162/162/162
f 165/165/165 166/166/166 162/162/162
f 169/169/169 168/168/168 167/167/167
f 168/168/168 170/170/170 167/167/167
f 167/167/167 170/170/170 171/171/171
f 172/172/172 167/167/167 171/171/171
f 175/175/175 174/174/174 173/173/173
f 174/174/174 176/176/176 173/173/173
f 173/173/173 176/176/176 177/177/177
f 176/176/176 178/178/178 177/177/177
f 181/181/181 180/180/180 179/179/179
f 182/182/182 181/181/181 179/179/179
f 183/183/183 182/182/182 179/179/179
f 184/184/184 183/183/183 179/179/179
f 182/182/182 185/185/185 181/181/181
f 185/185/185 186/186/186 181/181/181
f 188/188/188 187/187/187 185/185/185
f 189/189/189 188/188/188 185/185/185
f 192/192/192 191/191/191 190/190/190
f 191/191/191 193/193/193 190/190/190
f 190/190/190 193/193/193 194/194/194
f 193/193/193 195/195/195 194/194/194
f 198/198/198 197/197/197 196/196/196
f 199/199/199 198/198/198 196/196/196
f 202/202/202 201/201/201 200/200/200
f 203/203/203 202/202/202 200/200/200
f 206/206/206 205/205/205 204/204/204
f 207/207/207 206/206/206 204/204/204
f 210/210/210 209/209/209 208/208/208
f 211/211/211 210/210/210 208/208/208
f 211/211/211 208/208/208 212/212/212
f 213/213/213 210/210/210 211/211/211
f 214/214/214 211/211/211 212/212/212
f 215/215/215 213/213/213 211/211/211
f 215/215/215 211/211/211 214/214/214
f 216/216/216 215/215/215 214/214/214
f 219/219/219 218/218/218 217/217/217
f 218/218/218 220/220/220 217/217/217
f 220/220/220 218/218/218 221/221/221
f 218/218/218 222/222/222 221/221/221
f 225/225/225 224/224/224 223/223/223
f 226/226/226 225/225/225 223/223/223
f 226/226/226 227/227/227 225/225/225
f 227/227/227 228/228/228 225/225/225
f 231/231/231 230/230/230 229/229/229
f 232/232/232 231/231/231 229/229/229
f 235/235/235 234/234/234 233/233/233
f 236/236/236 235/235/235 233/233/233
f 239/239/239 238/238/238 237/237/237
f 240/240/240 239/239/239 237/237/237
f 243/243/243 242/242/242 241/241/241
f 242/242/242 244/244/244 241/241/241
f 244/244/244 242/242/242 245/245/245
f 242/242/242 246/246/246 245/245/245
f 249/249/249 248/248/248 247/247/247
f 250/250/250 249/249/249 247/247/247
f 253/253/253 252/252/252 251/251/251
f 254/254/254 253/253/253 251/251/251
f 257/257/257 256/256/256 255/255/255
f 258/258/258 257/257/257 255/255/255
f 261/261/261 260/260/260 259/259/259
f 260/260/260 262/262/262 259/259/259
f 262/262/262 263/263/263 259/259/259
f 263/263/263 264/264/264 259/259/259
f 267/267/267 266/266/266 265/265/265
f 268/268/268 267/267/267 265/265/265
f 271/271/271 270/270/270 269/269/269
f 272/272/272 271/271/271 269/269/269
f 275/275/275 274/274/274 273/273/273
f 276/276/276 275/275/275 273/273/273
f 279/279/279 278/278/278 277/277/277
f 280/280/280 279/279/279 277/277/277
f 283/283/283 282/282/282 281/281/281
f 284/284/284 283/283/283 281/281/281
f 287/287/287 286/286/286 285/285/285
f 288/288/288 287/287/287 285/285/285
f 291/291/291 290/290/290 289/289/289
f 292/292/292 291/291/291 289/289/289
f 295/295/295 294/294/294 293/293/293
f 296/296/296 295/295/295 293/293/293
f 299/299/299 298/298/298 297/297/297
f 300/300/300 299/299/299 297/297/297
f 303/303/303 302/302/302 301/301/301
f 304/304/304 303/303/303 301/301/301
f 307/307/307 306/306/306 305/305/305
f 308/308/308 307/307/307 305/305/305
f 311/311/311 310/310/310 309/309/309
f 310/310/310 312/312/312 309/309/309
f 309/309/309 312/312/312 313/313/313
f 312/312/312 314/314/314 313/313/313
f 313/313/313 314/314/314 315/315/315
f 314/314/314 316/316/316 315/315/315
f 315/315/315 316/316/316 317/317/317
f 316/316/316 318/318/318 317/317/317
f 317/317/317 318/318/318 319/319/319
f 318/318/318 320/320/320 319/319/319
f 323/323/323 322/322/322 321/321/321
f 322/322/322 324/324/324 321/321/321
f 321/321/321 324/324/324 325/325/325
f 324/324/324 326/326/326 325/325/325
f 325/325/325 326/326/326 327/327/327
f 326/326/326 328/328/328 327/327/327
f 327/327/327 328/328/328 329/329/329
f 328/328/328 330/330/330 329/329/329
f 329/329/329 330/330/330 331/331/331
f 330/330/330 332/332/332 331/331/331
f 331/331/331 332/332/332 333/333/333
f 332/332/332 334/334/334 333/333/333
f 333/333/333 334/334/334 335/335/335
f 334/334/334 336/336/336 335/335/335
f 335/335/335 336/336/336 337/337/337
f 336/336/336 338/338/338 337/337/337
f 341/341/341 340/340/340 339/339/339
f 342/342/342 341/341/341 339/339/339
f 343/343/343 341/341/341 342/342/342
f 344/344/344 343/343/343 342/342/342
f 345/345/345 343/343/343 344/344/344
f 346/346/346 345/345/345 344/344/344
f 347/347/347 345/345/345 346/346/346
f 348/348/348 347/347/347 346/346/346
f 349/349/349 347/347/347 348/348/348
f 350/350/350 349/349/349 348/348/348
f 351/351/351 349/349/349 350/350/350
f 352/352/352 351/351/351 350/350/350
f 353/353/353 351/351/351 352/352/352
f 354/354/354 353/353/353 352/352/352
f 355/355/355 353/353/353 354/354/354
f 356/356/356 355/355/355 354/354/354
f 357/357/357 355/355/355 356/356/356
f 358/358/358 357/357/357 356/356/356
f 359/359/359 357/357/357 358/358/358
f 360/360/360 359/359/359 358/358/358
f 363/363/363 362/362/362 361/361/361
f 364/364/364 363/363/363 361/361/361
f 365/365/365 363/363/363 364/364/364
f 366/366/366 365/365/365 364/364/364
f 367/367/367 365/365/365 366/366/366
f 368/368/368 367/367/367 366/366/366
f 369/369/369 367/367/367 368/368/368
f 370/370/370 369/369/369 368/368/368
f 373/373/373 372/372/372 371/371/371
f 372/372/372 374/374/374 371/371/371
f 371/371/371 374/374/374 375/375/375
f 374/374/374 376/376/376 375/375/375
f 375/375/375 376/376/376 377/377/377
f 376/376/376 378/378/378 377/377/377
f 377/377/377 378/378/378 379/379/379
f 378/378/378 380/380/380 379/379/379
f 379/379/379 380/380/380 381/381/381
f 380/380/380 382/382/382 381/381/381
f 385/385/385 384/384/384 383/383/383
f 384/384/384 386/386/386 383/383/383
f 383/383/383 386/386/386 387/387/387
f 386/386/386 388/388/388 387/387/387
f 391/391/391 390/390/390 389/389/389
f 390/390/390 392/392/392 389/389/389
f 389/389/389 392/392/392 393/393/393
f 392/392/392 394/394/394 393/393/393
f 393/393/393 394/394/394 395/395/395
f 394/394/394 396/396/396 395/395/395
f 395/395/395 396/396/396 397/397/397
f 396/396/396 398/398/398 397/397/397
f 397/397/397 398/398/398 399/399/399
f 398/398/398 400/400/400 399/399/399
f 399/399/399 400/400/400 401/401/401
f 400/400/400 402/402/402 401/401/401
f 401/401/401 402/402/402 403/403/403
f 404/404/404 401/401/401 403/403/403
f 404/404/404 403/403/403 405/405/405
f 408/408/408 407/407/407 406/406/406
f 409/409/409 408/408/408 406/406/406
f 410/410/410 408/408/408 409/409/409
f 411/411/411 410/410/410 409/409/409
f 412/412/412 410/410/410 411/411/411
f 413/413/413 412/412/412 411/411/411
f 414/414/414 412/412/412 413/413/413
f 415/415/415 414/414/414 413/413/413
f 416/416/416 414/414/414 415/415/415
f 417/417/417 416/416/416 415/415/415
f 418/418/418 416/416/416 417/417/417
f 419/419/419 418/418/418 417/417/417
f 420/420/420 418/418/418 419/419/419
f 421/421/421 420/420/420 419/419/419
f 422/422/422 420/420/420 421/421/421
f 423/423/423 422/422/422 421/421/421
f 424/424/424 422/422/422 423/423/423
f 425/425/425 424/424/424 423/423/423
f 426/426/426 424/424/424 425/425/425
f 427/427/427 426/426/426 425/425/425
f 430/430/430 429/429/429 428/428/428
f 431/431/431 430/430/430 428/428/428
f 432/432/432 430/430/430 431/431/431
f 433/433/433 432/432/432 431/431/431
f 434/434/434 432/432/432 433/433/433
f 435/435/435 434/434/434 433/433/433
f 436/436/436 434/434/434 435/435/435
f 437/437/437 436/436/436 435/435/435
f 438/438/438 436/436/436 437/437/437
f 439/439/439 438/438/438 437/437/437
f 442/442/442 441/441/441 440/440/440
f 443/443/443 442/442/442 440/440/440
f 444/444/444 442/442/442 443/443/443
f 445/445/445 444/444/444 443/443/443
f 446/446/446 444/444/444 445/445/445
f 447/447/447 446/446/446 445/445/445
f 448/448/448 446/446/446 447/447/447
f 449/449/449 448/448/448 447/447/447
f 450/450/450 448/448/448 449/449/449
f 451/451/451 450/450/450 449/449/449
f 452/452/452 450/450/450 451/451/451
f 453/453/453 452/452/452 451/451/451
f 454/454/454 452/452/452 453/453/453
f 455/455/455 454/454/454 453/453/453
f 458/458/458 457/457/457 456/456/456
f 459/459/459 458/458/458 456/456/456
f 460/460/460 458/458/458 459/459/459
f 461/461/461 460/460/460 459/459/459
f 462/462/462 460/460/460 461/461/461
f 463/463/463 462/462/462 461/461/461
f 464/464/464 462/462/462 463/463/463
f 465/465/465 464/464/464 463/463/463
f 466/466/466 464/464/464 465/465/465
f 467/467/467 466/466/466 465/465/465
f 470/470/470 469/469/469 468/468/468
f 471/471/471 470/470/470 468/468/468
f 474/474/474 473/473/473 472/472/472
f 474/474/474 472/472/472 475/475/475
f 472/472/472 476/476/476 475/475/475
f 479/479/479 478/478/478 477/477/477
f 480/480/480 479/479/479 477/477/477
f 481/481/481 479/479/479 480/480/480
f 482/482/482 481/481/481 480/480/480
f 485/485/485 484/484/484 483/483/483
f 484/484/484 486/486/486 483/483/483
f 483/483/483 486/486/486 487/487/487
f 486/486/486 488/488/488 487/487/487
f 491/491/491 490/490/490 489/489/489
f 492/492/492 491/491/491 489/489/489
f 493/493/493 491/491/491 492/492/492
f 494/494/494 493/493/493 492/492/492
f 495/495/495 493/493/493 494/494/494
f 496/496/496 495/495/495 494/494/494
f 497/497/497 495/495/495 496/496/496
f 498/498/498 497/497/497 496/496/496
f 499/499/499 497/497/497 498/498/498
f 500/500/500 499/499/499 498/498/498
f 501/501/501 499/499/499 500/500/500
f 502/502/502 501/501/501 500/500/500
f 503/503/503 501/501/501 502/502/502
f 504/504/504 503/503/503 502/502/502
f 505/505/505 503/503/503 504/504/504
f 506/506/506 505/505/505 504/504/504
f 509/509/509 508/508/508 507/507/507
f 510/510/510 509/509/509 507/507/507
f 511/511/511 509/509/509 510/510/510
f 512/512/512 511/511/511 510/510/510
f 513/513/513 511/511/511 512/512/512
f 514/514/514 513/513/513 512/512/512
f 515/515/515 513/513/513 514/514/514
f 516/516/516 515/515/515 514/514/514
f 517/517/517 515/515/515 516/516/516
f 518/518/518 517/517/517 516/516/516
f 519/519/519 517/517/517 518/518/518
f 520/520/520 519/519/519 518/518/518
f 521/521/521 519/519/519 520/520/520
f 522/522/522 521/521/521 520/520/520
f 523/523/523 521/521/521 522/522/522
f 524/524/524 523/523/523 522/522/522
f 525/525/525 523/523/523 524/524/524
f 526/526/526 525/525/525 524/524/524
f 527/527/527 525/525/525 526/526/526
f 528/528/528 527/527/527 526/526/526
f 531/531/531 530/530/530 529/529/529
f 532/532/532 531/531/531 529/529/529
f 533/533/533 531/531/531 532/532/532
f 534/534/534 533/533/533 532/532/532
f 535/535/535 533/533/533 534/534/534
f 536/536/536 535/535/535 534/534/534
f 537/537/537 535/535/535 536/536/536
f 538/538/538 537/537/537 536/536/536
f 541/541/541 540/540/540 539/539/539
f 542/542/542 541/541/541 539/539/539
f 543/543/543 541/541/541 542/542/542
f 544/544/544 543/543/543 542/542/542
f 545/545/545 543/543/543 544/544/544
f 546/546/546 545/545/545 544/544/544
f 547/547/547 545/545/545 546/546/546
f 548/548/548 547/547/547 546/546/546
f 549/549/549 547/547/547 548/548/548
f 550/550/550 549/549/549 548/548/548
