g tb_geo_meeple_p3c1_a_mesh
v 0.050451607 1.3059709 -1.5660365
v 0.83291686 1.3059709 -1.1809089
v 0.05045131 1.3059709 -1.1809095
v 0.8329172 1.3059709 -1.5660359
v -0.49556208 1.3059711 -1.8007634
v 0.7009982 1.3059714 -1.6182463
v 0.110938326 1.3059702 -1.1043606
v 0.094497815 1.3059723 -2.314649
v -0.16142243 1.3059523 -0.061843753
v 0.43731642 1.3059518 -1.440729
v 0.7931856 1.305951 -1.1195468
v -0.51729167 1.3059531 -0.38302603
v -0.64620525 1.3265146 0.047384262
v -0.885745 1.3265139 -2.2367253
v -0.54227775 1.3265128 -2.220989
v -0.9896725 1.3265157 0.03164792
v -0.15251517 1.3265138 -0.049148828
v -0.6956336 1.3265152 -0.8224784
v -0.118296325 1.3265132 -0.7960273
v -0.72985244 1.3265158 -0.0756
v -0.057134867 1.326514 -1.5136
v -0.6002523 1.3265154 -2.2869303
v -0.02291596 1.3265134 -2.260479
v -0.6344712 1.326516 -1.5400511
vt 0 0
vt 1 1
vt 1 0
vt 0 1
vt 0 0
vt 1 1
vt 1 0
vt 0 1
vt 0 0
vt 1 1
vt 1 0
vt 0 1
vt 0 0
vt 1 1
vt 1 0
vt 0 1
vt 0 0
vt 1 1
vt 1 0
vt 0 1
vt 0 0
vt 1 1
vt 1 0
vt 0 1
vn -5.9615466E-08 1 -2.2723372E-08
vn -5.9615466E-08 1 -2.2723372E-08
vn -5.9615466E-08 1 -2.2723372E-08
vn -5.9615466E-08 1 -2.2723372E-08
vn -3.7414648E-07 1 1.7679831E-06
vn -3.7414648E-07 1 1.7679831E-06
vn -3.7414648E-07 1 1.7679831E-06
vn -3.7414648E-07 1 1.7679831E-06
vn 1.9464255E-06 1 5.316339E-07
vn 1.9464255E-06 1 5.316339E-07
vn 1.9464255E-06 1 5.316339E-07
vn 1.9464255E-06 1 5.316339E-07
vn 3.253115E-06 1 -6.5941384E-07
vn 3.253115E-06 1 -6.5941384E-07
vn 3.253115E-06 1 -6.5941384E-07
vn 3.253115E-06 1 -6.5941384E-07
vn 3.4300363E-06 1 -6.140145E-07
vn 3.4300363E-06 1 -6.140145E-07
vn 3.4300363E-06 1 -6.140145E-07
vn 3.4300363E-06 1 -6.140145E-07
vn 3.4300365E-06 1 -6.14015E-07
vn 3.4300365E-06 1 -6.14015E-07
vn 3.4300365E-06 1 -6.14015E-07
vn 3.4300365E-06 1 -6.14015E-07
g tb_geo_meeple_p3c1_a_mesh_0
f 3/3/3 2/2/2 1/1/1
f 4/4/4 1/1/1 2/2/2
f 7/7/7 6/6/6 5/5/5
f 8/8/8 5/5/5 6/6/6
f 11/11/11 10/10/10 9/9/9
f 12/12/12 9/9/9 10/10/10
f 15/15/15 14/14/14 13/13/13
f 16/16/16 13/13/13 14/14/14
f 19/19/19 18/18/18 17/17/17
f 20/20/20 17/17/17 18/18/18
f 23/23/23 22/22/22 21/21/21
f 24/24/24 21/21/21 22/22/22
