g tb_geo_light_section_11_mesh
v -1.4374894 0.34472516 -0.36476943
v -1.4428374 0.34472516 -0.3629868
v -1.44462 0.34472516 -0.36476943
v -1.4054017 0.3429425 -0.36476943
v -1.4374894 0.34472516 -0.36476943
v -1.4071844 0.3429425 -0.36120415
v -1.3840098 0.34115985 -0.36476943
v -1.4054017 0.3429425 -0.36476943
v -1.378662 0.33759454 -0.35050824
v -1.3715314 0.34472516 -0.36476943
v -1.3840098 0.34115985 -0.36476943
v -1.3590528 0.34472516 -0.3451603
v -1.3501395 0.34472516 -0.3629868
v -1.3715314 0.34472516 -0.36476943
v -1.3323131 0.34472516 -0.33981234
v -1.3198345 0.34472516 -0.3308991
v -1.3144865 0.34472516 -0.3629868
v -1.2841815 0.34472516 -0.3629868
v -1.2592244 0.34472516 -0.3344644
v -1.2610071 0.34472516 -0.3629868
v -1.200397 0.34115985 -0.33981234
v -1.2610071 0.34472516 -0.3629868
v -1.2200061 0.3429425 -0.3629868
v -1.2164408 0.30907217 -0.2881155
v -1.1754398 0.31620273 -0.29702875
v -1.2324847 0.30907217 -0.28989816
v -1.2235714 0.27876708 -0.2809849
v -1.1897011 0.28768036 -0.25781047
v -1.1968317 0.26094058 -0.25424516
v -1.1736572 0.2645059 -0.24711457
v -1.1772225 0.23420087 -0.23285337
v -1.1914837 0.22350493 -0.24533191
v -1.1754398 0.18606934 -0.22572276
v -1.1914837 0.18606934 -0.24533191
v -1.1558307 0.29659358 -0.2631584
v -1.1487001 0.30194154 -0.32555115
v -1.1718745 0.325116 -0.3629868
v -1.1807878 0.33224657 -0.3629868
v -1.1308737 0.2823324 -0.2916808
v -1.1397868 0.27876708 -0.33802968
v -1.1201777 0.25202736 -0.29702875
v -1.1558307 0.3001589 -0.36655208
v -1.1718745 0.325116 -0.3629868
v -1.1397868 0.24489674 -0.34694293
v -1.1326562 0.24489674 -0.35050824
v -1.1255257 0.2502447 -0.35585618
v -1.1362215 0.26985386 -0.36120415
v -1.1183951 0.21459171 -0.3237685
v -1.1255257 0.21459171 -0.31842056
v -1.1219604 0.20567843 -0.31128997
v -1.1201777 0.20567843 -0.2952461
v -1.1005685 0.23063555 -0.26137576
v -1.0987859 0.1931999 -0.26137576
v -1.1094818 0.24846205 -0.2524625
v -1.0898727 0.21637437 -0.2382013
v -1.0845248 0.18606934 -0.24176662
v -1.1041338 0.18606934 -0.20254833
v -1.1273084 0.25915793 -0.23285337
v -1.1005685 0.23598352 -0.2382013
v -1.1094818 0.21459171 -0.20433097
v -1.1451348 0.18606934 -0.19363508
v -1.1130471 0.23420087 -0.21146157
v -1.1433522 0.22350493 -0.19720037
v -1.1718745 0.18606934 -0.20611362
v -1.1415695 0.24311408 -0.21146157
v -1.1700919 0.2288529 -0.20967892
v -1.1754398 0.18606934 -0.22572276
v -1.1772225 0.23420087 -0.23285337
v -1.1700919 0.26628855 -0.23641866
v -1.1736572 0.2645059 -0.24711457
v -0.9686525 -0.020718038 0.057718545
v -0.9526087 -0.020718038 0.1361551
v -0.9793484 -0.008239508 0.10585007
v -0.9526087 -0.020718038 0.1361551
v -0.8706068 -0.02428335 0.08445829
v -0.92586887 -0.020718038 0.16467753
v -0.91517305 -0.022500694 0.18785194
v -0.8706068 -0.027848661 0.20211318
v -0.85991085 -0.026066005 0.20033053
v -0.85991085 -0.027848661 0.2110264
v -0.85991085 -0.022500694 0.25559267
v -0.85991085 -0.022500694 0.08624092
v -0.8616935 -0.022500694 0.26094058
v -0.8813027 -0.02428335 0.25737533
v -0.8741721 -0.022500694 0.27341917
v -0.8652588 -0.020718038 -0.031413943
v -0.85991085 -0.017152756 -0.051023096
v -0.9650872 -0.013587445 0.0060217083
v -0.9436954 -0.010022163 -0.043892503
v -0.8973465 -0.008239508 -0.097371995
v -0.84386706 -0.015370101 -0.06706694
v -0.85099757 -0.0046741962 -0.15263413
v -0.80821407 -0.010022163 -0.12054643
v -0.79751813 -0.008239508 -0.10806787
v -0.7868222 -0.006456852 -0.11876379
v -0.7565172 0.0042390525 -0.14728618
v -0.7582998 0.0042390525 -0.14906883
v -0.8064314 -0.0028915405 -0.18828712
v -0.7582998 0.0042390525 -0.14906883
v -0.8028661 -0.0028915405 -0.19541772
v -0.95439136 -0.0028915405 -0.12411173
v -0.9205209 -0.0011089146 -0.14193822
v -0.9419128 -0.0011089146 -0.14372088
v -0.9846964 0.0006737411 -0.0795455
v -0.8777374 -0.0011089146 -0.19185242
v -0.9918269 0.0006737411 -0.06884959
v -0.9918269 0.0006737411 -0.08132815
v -0.9650872 -0.013587445 0.0060217083
v -1.022132 0.0006737411 -0.038544536
v -0.8741721 -0.0011089146 -0.21324421
v -0.8813027 -0.0011089146 -0.21680951
v -0.8652588 -0.0011089146 -0.22037482
v -0.82782316 -0.0011089146 -0.22215746
v -0.8028661 -0.0028915405 -0.19541772
v -1.0399585 -0.017152756 0.039892048
v -1.0363932 0.0006737411 -0.026066005
v -1.0310452 0.0006737411 -0.04032719
v -1.0791768 0.0006737411 -0.02428335
v -1.0399585 -0.006456852 0.08624092
v -0.99717486 -0.011804789 0.08624092
v -0.9793484 -0.008239508 0.10585007
v -1.0916554 -0.008239508 0.029196143
v -1.0399585 -0.006456852 0.08624092
v -1.1041338 -0.0028915405 0.08624092
v -1.1112645 0.0006737411 -0.034979254
v -1.1718745 -0.008239508 0.0060217083
v -1.1968317 -0.0046741962 0.025630832
v -1.1718745 -0.008239508 0.0060217083
v -1.1504828 0.0006737411 -0.03676191
v -1.1825705 0.0006737411 -0.043892503
v -1.2485285 -0.008239508 -0.015370101
v -1.2538764 -0.0046741962 0.02206555
v -1.23605 0.0006737411 -0.059936345
v -1.2075275 0.0006737411 -0.08132815
v -1.2806162 0.0006737411 -0.06528428
v -1.2877468 0.0006737411 -0.017152756
v -1.2895294 0.0006737411 -0.072414905
v -1.2538764 -0.0046741962 0.02206555
v -1.2913121 0.0006737411 0.020282894
v -1.3358784 0.0006737411 -0.063501656
v -1.3911405 0.0006737411 -0.026066005
v -1.3750967 0.0006737411 -0.09202403
v -1.3822272 0.0006737411 0.016717583
v -1.2913121 0.0006737411 0.020282894
v -1.4553158 0.0006737411 0.013152301
v -1.4553158 0.0006737411 -0.029631287
v -1.3964884 0.0006737411 -0.11341584
v -1.3822272 0.0006737411 -0.109850526
v -1.4553158 0.0006737411 -0.109850526
v -0.8813027 -0.02428335 0.25737533
v -0.91517305 -0.022500694 0.18785194
v -1.1807878 0.33224657 -0.3629868
v -1.2200061 0.3429425 -0.3629868
v -0.8741721 -0.0011089146 -0.21324421
v -0.8848679 0.041674703 -0.22215746
v -0.8652588 -0.0011089146 -0.22037482
v -0.8848679 0.041674703 -0.22215746
v -0.8813027 -0.0011089146 -0.21680951
v -0.8884332 0.025630832 -0.22215746
v -1.4428374 0.34472516 -0.3629868
v -1.4553158 0.33046392 -0.36833474
v -1.44462 0.34472516 -0.36476943
v -1.4553158 0.31442007 -0.35763884
v -1.408967 0.32333335 -0.35050824
v -1.4071844 0.3429425 -0.36120415
v -1.378662 0.33759454 -0.35050824
v -1.378662 0.31976804 -0.34694293
v -1.408967 0.32333335 -0.35050824
v -1.4553158 0.3037242 -0.34337765
v -1.4553158 0.31442007 -0.35763884
v -1.4125323 0.31442007 -0.32911646
v -1.3875751 0.30907217 -0.3308991
v -1.378662 0.31976804 -0.34694293
v -1.3697487 0.29302832 -0.33802968
v -1.3893578 0.25915793 -0.33624706
v -1.378662 0.25381002 -0.34694293
v -1.3911405 0.24489674 -0.3451603
v -1.4321414 0.2110264 -0.34337765
v -1.4553158 0.20924374 -0.35585618
v -1.3982711 0.2502447 -0.33624706
v -1.4071844 0.21280906 -0.34337765
v -1.403619 0.2110264 -0.35050824
v -1.403619 0.18606934 -0.3522909
v -1.4303588 0.18606934 -0.3522909
v -1.4553158 0.18606934 -0.36476943
v -1.3198345 0.34472516 -0.3308991
v -1.3269651 0.31976804 -0.32198584
v -1.3323131 0.34472516 -0.33981234
v -1.3180518 0.31976804 -0.3130726
v -1.3233998 0.29124567 -0.32020319
v -1.3340957 0.29659358 -0.3273338
v -1.3180518 0.24846205 -0.33268175
v -1.2574418 0.31976804 -0.31842056
v -1.2592244 0.18606934 -0.3237685
v -1.3002254 0.20567843 -0.3273338
v -1.2913121 0.18606934 -0.32555115
v -1.2485285 0.31976804 -0.30772465
v -1.2645724 0.3072895 -0.2988114
v -1.2592244 0.18606934 -0.3237685
v -1.266355 0.18606934 -0.3023767
v -1.2449632 0.29837623 -0.27385432
v -1.2413979 0.18606934 -0.270289
v -1.2235714 0.27876708 -0.2809849
v -1.2342674 0.27520183 -0.27385432
v -1.2271367 0.18606934 -0.26850635
v -1.2110928 0.25915793 -0.24889721
v -1.1968317 0.26094058 -0.25424516
v -1.2057449 0.22707024 -0.23998396
v -1.2057449 0.18606934 -0.2382013
v -1.1914837 0.22350493 -0.24533191
v -1.1914837 0.18606934 -0.24533191
v -1.3697487 0.29302832 -0.33802968
v -1.3590528 0.2466794 -0.34337765
v -1.378662 0.25381002 -0.34694293
v -1.3840098 0.23776618 -0.3487256
v -1.3911405 0.24489674 -0.3451603
v -1.403619 0.2110264 -0.35050824
v -1.4000537 0.20924374 -0.3522909
v -1.403619 0.18606934 -0.3522909
v -1.3947058 0.18606934 -0.20433097
v -1.4553158 0.18606934 -0.20254833
v -1.4553158 0.18606934 -0.36476943
v -1.4303588 0.18606934 -0.3522909
v -1.3947058 0.18606934 -0.33268175
v -1.403619 0.18606934 -0.3522909
v -1.3037907 0.18606934 -0.31128997
v -1.3216171 0.18606934 -0.19006976
v -1.266355 0.18606934 -0.3023767
v -1.2913121 0.18606934 -0.32555115
v -1.2592244 0.18606934 -0.3237685
v -1.2645724 0.18606934 -0.19006976
v -1.2413979 0.18606934 -0.270289
v -1.271703 0.17715606 -0.15798208
v -1.2271367 0.18606934 -0.26850635
v -1.23605 0.17715606 -0.15441677
v -1.2289194 0.18606934 -0.18650447
v -1.2057449 0.18606934 -0.2382013
v -1.2039622 0.18606934 -0.16867797
v -1.1914837 0.18606934 -0.24533191
v -1.1754398 0.18606934 -0.22572276
v -1.1718745 0.18606934 -0.20611362
v -1.1700919 0.18606934 -0.17046063
v -1.1451348 0.18606934 -0.19363508
v -1.1380042 0.18606934 -0.16689533
v -1.1041338 0.18606934 -0.20254833
v -1.1023512 0.18606934 -0.15085147
v -1.0720462 0.18606934 -0.14906883
v -1.0845248 0.18606934 -0.24176662
v -1.0381758 0.18606934 -0.15085147
v -1.0595677 0.18606934 -0.24533191
v -1.0060881 0.18606934 -0.16333002
v -0.9811311 0.18606934 -0.18293917
v -1.0203494 0.18606934 -0.2774196
v -0.9597392 0.18606934 -0.22037482
v -0.9436954 0.18606934 -0.22215746
v -1.0185667 0.18606934 -0.27920225
v -0.9454781 0.18606934 -0.22037482
v -1.3037907 0.18606934 -0.31128997
v -1.3002254 0.20567843 -0.3273338
v -1.2913121 0.18606934 -0.32555115
v -1.3144865 0.20211318 -0.31842056
v -1.3947058 0.18606934 -0.33268175
v -1.3269651 0.23954883 -0.32555115
v -1.3180518 0.24846205 -0.33268175
v -1.337661 0.24846205 -0.3237685
v -1.3340957 0.29659358 -0.3273338
v -1.3501395 0.23954883 -0.32911646
v -1.3893578 0.2110264 -0.3344644
v -1.4000537 0.20924374 -0.3522909
v -1.403619 0.18606934 -0.3522909
v -1.3840098 0.23776618 -0.3487256
v -1.378662 0.23063555 -0.3344644
v -1.3590528 0.2466794 -0.34337765
v -1.3483568 0.24846205 -0.32555115
v -1.3447915 0.29481092 -0.32555115
v -1.3590528 0.29302832 -0.3308991
v -1.3697487 0.29302832 -0.33802968
v -1.378662 0.31976804 -0.34694293
v -1.3412263 0.32333335 -0.3166379
v -1.3269651 0.31976804 -0.32198584
v -1.3626181 0.32333335 -0.31842056
v -1.3447915 0.3429425 -0.32555115
v -1.3323131 0.34472516 -0.33981234
v -1.3590528 0.34472516 -0.3451603
v -1.3661834 0.34115985 -0.3273338
v -1.378662 0.33759454 -0.35050824
v -1.1059165 0.21815702 -0.30059406
v -1.1219604 0.20567843 -0.31128997
v -1.1183951 0.21459171 -0.3237685
v -1.1201777 0.20567843 -0.2952461
v -1.1059165 0.21637437 -0.28989816
v -1.0880901 0.21459171 -0.27920225
v -1.0987859 0.1931999 -0.26137576
v -1.0880901 0.2110264 -0.26494107
v -1.0613502 0.20924374 -0.2774196
v -1.0666982 0.21280906 -0.2845502
v -1.0488718 0.20924374 -0.3023767
v -1.0524371 0.2110264 -0.30415934
v -1.0773941 0.19498256 -0.24711457
v -1.0845248 0.18606934 -0.24176662
v -1.0595677 0.18606934 -0.24533191
v -1.0631329 0.19141725 -0.25067985
v -1.0256974 0.19141725 -0.2809849
v -1.0488718 0.20924374 -0.3023767
v -1.0239147 0.19141725 -0.28276756
v -1.0203494 0.18606934 -0.2774196
v -1.0239147 0.19141725 -0.28276756
v -1.0185667 0.18606934 -0.27920225
v -1.1932664 0.1539816 -0.13124233
v -1.2039622 0.16289487 -0.15085147
v -1.1897011 0.15576425 -0.14372088
v -1.1718745 0.152199 -0.12411173
v -1.164744 0.15576425 -0.13480763
v -1.1397868 0.15576425 -0.11519849
v -1.1362215 0.15754691 -0.13659029
v -1.1041338 0.16467753 -0.11876379
v -1.1005685 0.16824284 -0.13659029
v -1.0845248 0.16824284 -0.12054643
v -1.0773941 0.17002544 -0.13480763
v -1.0506544 0.16646019 -0.11876379
v -1.0845248 0.12011129 -0.097371995
v -1.0506544 0.16646019 -0.11876379
v -1.1148298 0.12545922 -0.10093728
v -1.1397868 0.15576425 -0.11519849
v -1.1469175 0.12545922 -0.09915465
v -1.1718745 0.152199 -0.12411173
v -1.1772225 0.12724188 -0.11163318
v -1.1932664 0.1539816 -0.13124233
v -1.2021797 0.12902454 -0.11698112
v -1.2039622 0.16289487 -0.15085147
v -1.0453064 0.12902454 -0.09202403
v -1.23605 0.16111222 -0.14372088
v -1.2342674 0.12367657 -0.11519849
v -1.2734855 0.15754691 -0.14550352
v -1.271703 0.116545975 -0.11698112
v -1.2948774 0.12367657 -0.11876379
v -1.307356 0.152199 -0.15085147
v -1.271703 0.17715606 -0.15798208
v -1.23605 0.17715606 -0.15441677
v -1.3216171 0.18606934 -0.19006976
v -1.2039622 0.1718081 -0.15798208
v -1.2039622 0.18606934 -0.16867797
v -1.1897011 0.15576425 -0.14372088
v -1.1968317 0.18072137 -0.14728618
v -1.1807878 0.17715606 -0.14193822
v -1.1700919 0.18606934 -0.17046063
v -1.164744 0.15576425 -0.13480763
v -1.1611787 0.17715606 -0.13480763
v -1.1380042 0.18606934 -0.16689533
v -1.1362215 0.15754691 -0.13659029
v -1.1308737 0.18072137 -0.13480763
v -1.1023512 0.18606934 -0.15085147
v -1.1059165 0.17715606 -0.14372088
v -1.1005685 0.16824284 -0.13659029
v -1.0773941 0.17002544 -0.13480763
v -1.0720462 0.18606934 -0.14906883
v -1.0381758 0.18606934 -0.15085147
v -1.0453064 0.16289487 -0.12767704
v -1.0399585 0.12545922 -0.09558934
v -1.0417411 0.12367657 -0.07776284
v -1.0470891 0.12902454 -0.072414905
v -1.0417411 0.079110324 -0.063501656
v -1.0845248 0.12011129 -0.097371995
v -1.0488718 0.08089298 -0.051023096
v -1.0310452 0.0006737411 -0.04032719
v -1.0363932 0.0006737411 -0.026066005
v -1.0791768 0.0006737411 -0.02428335
v -1.0880901 0.11832863 -0.06884959
v -1.0880901 0.07376239 -0.04924044
v -1.1112645 0.0006737411 -0.034979254
v -1.1130471 0.12367657 -0.0795455
v -1.1148298 0.12545922 -0.10093728
v -1.1148298 0.07197973 -0.05815369
v -1.1469175 0.12189391 -0.08132815
v -1.1469175 0.12545922 -0.09915465
v -1.1487001 0.070197076 -0.05815369
v -1.1504828 0.0006737411 -0.03676191
v -1.1790051 0.06841445 -0.063501656
v -1.1825705 0.0006737411 -0.043892503
v -1.2075275 0.0006737411 -0.08132815
v -1.1843531 0.12902454 -0.093806684
v -1.1772225 0.12724188 -0.11163318
v -1.2021797 0.12902454 -0.11698112
v -1.2021797 0.066631794 -0.08667609
v -1.2075275 0.13080716 -0.097371995
v -1.2235714 0.0773277 -0.072414905
v -1.23605 0.0006737411 -0.059936345
v -1.23605 0.12189391 -0.09558934
v -1.2342674 0.12367657 -0.11519849
v -1.2699203 0.070197076 -0.0795455
v -1.2806162 0.0006737411 -0.06528428
v -1.2895294 0.0006737411 -0.072414905
v -1.2681377 0.116545975 -0.10093728
v -1.271703 0.116545975 -0.11698112
v -1.2877468 0.0595012 -0.09558934
v -1.3358784 0.0006737411 -0.063501656
v -1.2948774 0.10763273 -0.11163318
v -1.3394437 0.07376239 -0.08667609
v -1.3750967 0.0006737411 -0.09202403
v -1.3394437 0.12902454 -0.10806787
v -1.3358784 0.14328572 -0.12054643
v -1.3661834 0.12724188 -0.11876379
v -1.3768793 0.070197076 -0.10450259
v -1.3840098 0.06306648 -0.122329086
v -1.3822272 0.0006737411 -0.109850526
v -1.3964884 0.0006737411 -0.11341584
v -1.3964884 0.12724188 -0.14193822
v -1.4553158 0.0006737411 -0.109850526
v -1.4553158 0.12902454 -0.14193822
v -1.4553158 0.18606934 -0.20254833
v -1.3947058 0.18606934 -0.20433097
v -1.378662 0.12545922 -0.13659029
v -1.3857925 0.14863369 -0.16154738
v -1.3750967 0.15932956 -0.14550352
v -1.3644007 0.17715606 -0.15976472
v -1.3608354 0.15754691 -0.14728618
v -1.3287477 0.17893872 -0.15798208
v -1.3287477 0.15932956 -0.14728618
v -1.3750967 0.14863369 -0.15085147
v -1.3750967 0.15932956 -0.14550352
v -1.3715314 0.14328572 -0.13480763
v -1.3608354 0.14685103 -0.15263413
v -1.3608354 0.15754691 -0.14728618
v -1.3608354 0.14150307 -0.13302498
v -1.3305304 0.14685103 -0.15441677
v -1.3287477 0.15932956 -0.14728618
v -0.9454781 0.18606934 -0.22037482
v -0.9561739 0.1539816 -0.21859217
v -0.9597392 0.18606934 -0.22037482
v -0.9454781 0.1539816 -0.21324421
v -0.95795655 0.1343725 -0.20254833
v -0.9436954 0.13258985 -0.20611362
v -0.92586887 0.12545922 -0.22394012
v -0.93478215 0.15576425 -0.22394012
v -0.93478215 0.15576425 -0.22394012
v -0.9436954 0.18606934 -0.22215746
v -0.9561739 0.1539816 -0.21859217
v -0.9811311 0.18606934 -0.18293917
v -0.9597392 0.18606934 -0.22037482
v -0.9811311 0.15576425 -0.16511267
v -0.95795655 0.1343725 -0.20254833
v -1.0060881 0.18606934 -0.16333002
v -0.97400045 0.13080716 -0.14728618
v -0.9561739 0.061283827 -0.16689533
v -1.0025228 0.15754691 -0.14015558
v -1.0114361 0.15932956 -0.14550352
v -1.0025228 0.12902454 -0.11341584
v -0.99717486 0.12902454 -0.11163318
v -0.99360955 0.07554504 -0.10271993
v -0.9650872 0.070197076 -0.13659029
v -0.9419128 -0.0011089146 -0.14372088
v -0.95439136 -0.0028915405 -0.12411173
v -0.98647904 0.07376239 -0.10093728
v -0.9918269 0.0006737411 -0.08132815
v -0.9846964 0.0006737411 -0.0795455
v -0.8741721 -0.022500694 0.27341917
v -0.85991085 -0.020718038 0.3001589
v -0.85991085 -0.022500694 0.30550686
v -0.8616935 -0.022500694 0.26094058
v -0.85991085 -0.015370101 0.26094058
v -0.85991085 -0.020718038 0.3001589
v -0.85991085 -0.022500694 0.25559267
v -1.1183951 0.24846205 -0.35050824
v -1.1326562 0.24489674 -0.35050824
v -1.1255257 0.2502447 -0.35585618
v -1.123743 0.24489674 -0.3451603
v -1.1183951 0.21459171 -0.3237685
v -1.1112645 0.22172233 -0.3237685
v -1.0987859 0.22172233 -0.33624706
v -1.1076992 0.22528759 -0.31128997
v -1.1059165 0.21815702 -0.30059406
v -1.0827421 0.22528759 -0.32911646
v -1.0987859 0.22172233 -0.33624706
v -1.1023512 0.22350493 -0.29702875
v -1.0880901 0.21459171 -0.27920225
v -1.0684808 0.22707024 -0.2881155
v -1.0666982 0.21815702 -0.31485525
v -1.0880901 0.22172233 -0.28276756
v -1.0666982 0.21280906 -0.2845502
v -1.0560024 0.21815702 -0.305942
v -1.0666982 0.21815702 -0.31485525
v -1.0524371 0.2110264 -0.30415934
v -0.89556384 0.11832863 -0.22215746
v -0.9436954 0.13258985 -0.20611362
v -0.92586887 0.12545922 -0.22394012
v -0.93478215 0.12902454 -0.18828712
v -0.95795655 0.1343725 -0.20254833
v -0.9561739 0.061283827 -0.16689533
v -0.93834746 0.06484914 -0.16511267
v -0.9419128 -0.0011089146 -0.14372088
v -0.9205209 -0.0011089146 -0.14193822
v -0.8777374 -0.0011089146 -0.19185242
v -0.8937812 0.07197973 -0.20789626
v -0.89556384 0.11832863 -0.22215746
v -0.8973465 0.06484914 -0.22394012
v -0.8884332 0.025630832 -0.22215746
v -0.8813027 -0.0011089146 -0.21680951
v -0.8973465 0.06484914 -0.22394012
v -1.0310452 0.079110324 -0.061719
v -1.022132 0.0006737411 -0.038544536
v -1.0310452 0.0006737411 -0.04032719
v -1.0417411 0.079110324 -0.063501656
v -0.9918269 0.0006737411 -0.06884959
v -1.0417411 0.12367657 -0.07776284
v -0.99360955 0.0773277 -0.0902414
v -0.9918269 0.0006737411 -0.08132815
v -0.99360955 0.07554504 -0.10271993
v -1.0328279 0.12545922 -0.07776284
v -1.0025228 0.12902454 -0.10093728
v -1.0025228 0.12902454 -0.11341584
v -1.0310452 0.13258985 -0.08845875
v -1.0399585 0.12545922 -0.09558934
v -1.0363932 0.16289487 -0.12054643
v -1.0453064 0.16289487 -0.12767704
v -1.0381758 0.18606934 -0.15085147
v -1.0132188 0.16111222 -0.13124233
v -1.0114361 0.15932956 -0.14550352
v -1.0060881 0.18606934 -0.16333002
vt 0.0124403145 0.7563877
vt 0.0124403145 0.7563877
vt 0.009464525 0.7563877
vt 0.024343472 0.7563877
vt 0.0124403145 0.7563877
vt 0.021367684 0.7563877
vt 0.030295052 0.7563877
vt 0.024343472 0.7563877
vt 0.030295052 0.7504361
vt 0.03624663 0.75936353
vt 0.030295052 0.7563877
vt 0.03922242 0.7504361
vt 0.04219821 0.75936353
vt 0.03624663 0.75936353
vt 0.05112558 0.7504361
vt 0.05410137 0.74746037
vt 0.05410137 0.7653151
vt 0.06302874 0.7623393
vt 0.071956106 0.74746037
vt 0.071956106 0.7653151
vt 0.08981084 0.75341195
vt 0.071956106 0.7653151
vt 0.083859265 0.7653151
vt 0.083859265 0.72067827
vt 0.095762424 0.7296056
vt 0.07790768 0.72067827
vt 0.07790768 0.7087751
vt 0.08981084 0.7057993
vt 0.08683506 0.69687194
vt 0.09278663 0.69687194
vt 0.08981084 0.681993
vt 0.083859265 0.6790172
vt 0.08683506 0.66116244
vt 0.08088347 0.66413826
vt 0.098738216 0.71175086
vt 0.10468979 0.738533
vt 0.101714 0.7653151
vt 0.098738216 0.7653151
vt 0.10766558 0.72067827
vt 0.11361716 0.7415088
vt 0.11659295 0.71770245
vt 0.11064137 0.7623393
vt 0.101714 0.7653151
vt 0.12254453 0.738533
vt 0.12552032 0.7415088
vt 0.12552032 0.7444846
vt 0.12254453 0.75341195
vt 0.1314719 0.72365403
vt 0.12849611 0.72365403
vt 0.12849611 0.72067827
vt 0.12849611 0.7147267
vt 0.11956874 0.69984776
vt 0.1314719 0.69687194
vt 0.11361716 0.69984776
vt 0.12254453 0.6879446
vt 0.1344477 0.68496877
vt 0.12254453 0.66116244
vt 0.10766558 0.6938962
vt 0.11659295 0.69092035
vt 0.11659295 0.6730656
vt 0.10468979 0.6522351
vt 0.11361716 0.681993
vt 0.10468979 0.6730656
vt 0.08981084 0.6552109
vt 0.10468979 0.681993
vt 0.095762424 0.6760414
vt 0.08683506 0.66116244
vt 0.08981084 0.681993
vt 0.095762424 0.6938962
vt 0.09278663 0.69687194
vt 0.16718139 0.45880878
vt 0.17015716 0.40822035
vt 0.1612298 0.42905086
vt 0.17015716 0.40822035
vt 0.19396348 0.44095403
vt 0.17610875 0.3903656
vt 0.17908454 0.37548667
vt 0.1909877 0.3665593
vt 0.19396348 0.3695351
vt 0.19396348 0.3635835
vt 0.19693927 0.3338256
vt 0.19693927 0.44095403
vt 0.19396348 0.33084983
vt 0.1909877 0.3338256
vt 0.1909877 0.32192245
vt 0.20289086 0.512373
vt 0.20586665 0.52427614
vt 0.17015716 0.49154246
vt 0.18206033 0.5213004
vt 0.19991507 0.55105823
vt 0.21181823 0.5332035
vt 0.21479401 0.58081615
vt 0.22372139 0.5629614
vt 0.22669718 0.5570098
vt 0.22967297 0.5629614
vt 0.24157612 0.58081615
vt 0.24157612 0.5837919
vt 0.22967297 0.60164666
vt 0.24157612 0.5837919
vt 0.23264876 0.6046225
vt 0.18503612 0.5659372
vt 0.19693927 0.5778403
vt 0.1909877 0.57486457
vt 0.17313296 0.54510665
vt 0.21181823 0.60164666
vt 0.16718139 0.53915507
vt 0.17015716 0.54510665
vt 0.17015716 0.49154246
vt 0.15527822 0.52427614
vt 0.21479401 0.6135498
vt 0.21479401 0.6135498
vt 0.2177698 0.6165256
vt 0.22669718 0.6165256
vt 0.23264876 0.6046225
vt 0.14337507 0.47071192
vt 0.14932664 0.5153488
vt 0.15230243 0.5213004
vt 0.1314719 0.512373
vt 0.14337507 0.44392982
vt 0.15527822 0.44095403
vt 0.1612298 0.42905086
vt 0.12552032 0.4766635
vt 0.14337507 0.44392982
vt 0.12254453 0.4498814
vt 0.11956874 0.512373
vt 0.098738216 0.48856667
vt 0.08981084 0.4766635
vt 0.098738216 0.48856667
vt 0.10468979 0.512373
vt 0.09278663 0.5153488
vt 0.071956106 0.49451825
vt 0.068980314 0.4796393
vt 0.0749319 0.51832455
vt 0.083859265 0.52427614
vt 0.060052946 0.51832455
vt 0.057077162 0.49451825
vt 0.057077162 0.51832455
vt 0.068980314 0.4796393
vt 0.057077162 0.4796393
vt 0.04219821 0.5153488
vt 0.024343472 0.49451825
vt 0.027319262 0.5213004
vt 0.030295052 0.4796393
vt 0.057077162 0.4796393
vt 0.006488735 0.4796393
vt 0.006488735 0.49451825
vt 0.018391892 0.52427614
vt 0.024343472 0.52427614
vt 0.006488735 0.5213004
vt 0.1909877 0.3338256
vt 0.17908454 0.37548667
vt 0.098738216 0.7653151
vt 0.083859265 0.7653151
vt 0.21479401 0.6135498
vt 0.21181823 0.62842876
vt 0.2177698 0.6165256
vt 0.21181823 0.62842876
vt 0.21479401 0.6135498
vt 0.20884244 0.6224772
vt 0.0124403145 0.7563877
vt 0.006488735 0.7504361
vt 0.009464525 0.7563877
vt 0.006488735 0.7415088
vt 0.021367684 0.7444846
vt 0.021367684 0.7563877
vt 0.030295052 0.7504361
vt 0.030295052 0.738533
vt 0.021367684 0.7444846
vt 0.006488735 0.7296056
vt 0.006488735 0.7415088
vt 0.018391892 0.73258144
vt 0.024343472 0.73258144
vt 0.030295052 0.738533
vt 0.030295052 0.72365403
vt 0.021367684 0.7087751
vt 0.027319262 0.7057993
vt 0.021367684 0.69984776
vt 0.0124403145 0.68496877
vt 0.006488735 0.68496877
vt 0.018391892 0.7028235
vt 0.015416103 0.6879446
vt 0.018391892 0.68496877
vt 0.018391892 0.6760414
vt 0.0124403145 0.6730656
vt 0.006488735 0.6730656
vt 0.05410137 0.74746037
vt 0.05112558 0.7355572
vt 0.05112558 0.7504361
vt 0.05410137 0.73258144
vt 0.05112558 0.72067827
vt 0.045174003 0.72365403
vt 0.048149787 0.7028235
vt 0.068980314 0.7296056
vt 0.057077162 0.6790172
vt 0.048149787 0.68496877
vt 0.05112558 0.6790172
vt 0.071956106 0.7296056
vt 0.068980314 0.72067827
vt 0.057077162 0.6790172
vt 0.057077162 0.6760414
vt 0.0749319 0.7147267
vt 0.06302874 0.67008984
vt 0.07790768 0.7087751
vt 0.0749319 0.7057993
vt 0.068980314 0.67008984
vt 0.08088347 0.6938962
vt 0.08683506 0.69687194
vt 0.07790768 0.6790172
vt 0.0749319 0.66116244
vt 0.083859265 0.6790172
vt 0.08088347 0.66413826
vt 0.030295052 0.72365403
vt 0.033270843 0.7028235
vt 0.027319262 0.7057993
vt 0.024343472 0.69687194
vt 0.021367684 0.69984776
vt 0.018391892 0.68496877
vt 0.021367684 0.68496877
vt 0.018391892 0.6760414
vt 0.021367684 0.6165256
vt 0.006488735 0.61057407
vt 0.006488735 0.6730656
vt 0.0124403145 0.6730656
vt 0.021367684 0.6730656
vt 0.018391892 0.6760414
vt 0.045174003 0.6760414
vt 0.045174003 0.6195014
vt 0.057077162 0.6760414
vt 0.05112558 0.6790172
vt 0.057077162 0.6790172
vt 0.060052946 0.62842876
vt 0.06302874 0.67008984
vt 0.060052946 0.6135498
vt 0.068980314 0.67008984
vt 0.071956106 0.6165256
vt 0.071956106 0.63438034
vt 0.0749319 0.66116244
vt 0.083859265 0.62842876
vt 0.08088347 0.66413826
vt 0.08683506 0.66116244
vt 0.08981084 0.6552109
vt 0.095762424 0.63735616
vt 0.10468979 0.6522351
vt 0.10766558 0.6403319
vt 0.12254453 0.66116244
vt 0.12254453 0.6314046
vt 0.1314719 0.6314046
vt 0.1344477 0.68496877
vt 0.14337507 0.6314046
vt 0.14337507 0.68496877
vt 0.15230243 0.63735616
vt 0.1612298 0.6462835
vt 0.1612298 0.69687194
vt 0.17015716 0.66413826
vt 0.17313296 0.66413826
vt 0.1612298 0.69687194
vt 0.17313296 0.66413826
vt 0.045174003 0.6760414
vt 0.048149787 0.68496877
vt 0.05112558 0.6790172
vt 0.045174003 0.681993
vt 0.021367684 0.6730656
vt 0.045174003 0.69984776
vt 0.048149787 0.7028235
vt 0.04219821 0.7028235
vt 0.045174003 0.72365403
vt 0.03624663 0.69687194
vt 0.024343472 0.681993
vt 0.021367684 0.68496877
vt 0.018391892 0.6760414
vt 0.024343472 0.69687194
vt 0.027319262 0.69092035
vt 0.033270843 0.7028235
vt 0.03922242 0.7028235
vt 0.04219821 0.72365403
vt 0.03624663 0.72365403
vt 0.030295052 0.72365403
vt 0.030295052 0.738533
vt 0.045174003 0.7355572
vt 0.05112558 0.7355572
vt 0.03922242 0.738533
vt 0.045174003 0.7444846
vt 0.05112558 0.7504361
vt 0.03922242 0.7504361
vt 0.03922242 0.7444846
vt 0.030295052 0.7504361
vt 0.1344477 0.71770245
vt 0.12849611 0.72067827
vt 0.1314719 0.72365403
vt 0.12849611 0.7147267
vt 0.1344477 0.71175086
vt 0.13742349 0.7087751
vt 0.1314719 0.69687194
vt 0.13742349 0.7028235
vt 0.14932664 0.7028235
vt 0.14635086 0.7057993
vt 0.15527822 0.7147267
vt 0.15230243 0.7147267
vt 0.13742349 0.6879446
vt 0.1344477 0.68496877
vt 0.14337507 0.68496877
vt 0.14337507 0.6879446
vt 0.1612298 0.69984776
vt 0.15527822 0.7147267
vt 0.1612298 0.69984776
vt 0.1612298 0.69687194
vt 0.1612298 0.69984776
vt 0.1612298 0.69687194
vt 0.08683506 0.6046225
vt 0.083859265 0.6135498
vt 0.08981084 0.61057407
vt 0.095762424 0.6046225
vt 0.098738216 0.61057407
vt 0.10766558 0.6046225
vt 0.10766558 0.6135498
vt 0.11956874 0.61057407
vt 0.11956874 0.6195014
vt 0.12849611 0.6135498
vt 0.12849611 0.6195014
vt 0.13742349 0.6135498
vt 0.12552032 0.5897435
vt 0.13742349 0.6135498
vt 0.11659295 0.5897435
vt 0.10766558 0.6046225
vt 0.10468979 0.58676773
vt 0.095762424 0.6046225
vt 0.095762424 0.5897435
vt 0.08683506 0.6046225
vt 0.083859265 0.5897435
vt 0.083859265 0.6135498
vt 0.13742349 0.5927193
vt 0.071956106 0.60759825
vt 0.0749319 0.5837919
vt 0.060052946 0.60164666
vt 0.06302874 0.58081615
vt 0.05410137 0.5778403
vt 0.05112558 0.5986709
vt 0.060052946 0.6135498
vt 0.071956106 0.6165256
vt 0.045174003 0.6195014
vt 0.08088347 0.6195014
vt 0.083859265 0.62842876
vt 0.08981084 0.61057407
vt 0.08683506 0.6224772
vt 0.09278663 0.6195014
vt 0.095762424 0.63735616
vt 0.098738216 0.61057407
vt 0.101714 0.6195014
vt 0.10766558 0.6403319
vt 0.10766558 0.6135498
vt 0.11064137 0.625453
vt 0.12254453 0.6314046
vt 0.11956874 0.625453
vt 0.11956874 0.6195014
vt 0.12849611 0.6195014
vt 0.1314719 0.6314046
vt 0.14337507 0.6314046
vt 0.14039928 0.6165256
vt 0.14039928 0.5927193
vt 0.14039928 0.58676773
vt 0.13742349 0.5837919
vt 0.14337507 0.5629614
vt 0.12552032 0.5897435
vt 0.14039928 0.55998564
vt 0.15230243 0.5213004
vt 0.14932664 0.5153488
vt 0.1314719 0.512373
vt 0.12552032 0.5778403
vt 0.12849611 0.55403405
vt 0.11956874 0.512373
vt 0.11659295 0.5778403
vt 0.11659295 0.5897435
vt 0.11659295 0.55105823
vt 0.10468979 0.5778403
vt 0.10468979 0.58676773
vt 0.10766558 0.5480825
vt 0.10468979 0.512373
vt 0.095762424 0.5480825
vt 0.09278663 0.5153488
vt 0.083859265 0.52427614
vt 0.09278663 0.58081615
vt 0.095762424 0.5897435
vt 0.083859265 0.5897435
vt 0.08683506 0.55105823
vt 0.083859265 0.58081615
vt 0.07790768 0.55105823
vt 0.0749319 0.51832455
vt 0.0749319 0.57486457
vt 0.0749319 0.5837919
vt 0.06600453 0.5480825
vt 0.060052946 0.51832455
vt 0.057077162 0.51832455
vt 0.06600453 0.57188874
vt 0.06302874 0.58081615
vt 0.057077162 0.5480825
vt 0.04219821 0.5153488
vt 0.05410137 0.568913
vt 0.04219821 0.55105823
vt 0.027319262 0.5213004
vt 0.04219821 0.57486457
vt 0.04219821 0.58081615
vt 0.033270843 0.57486457
vt 0.030295052 0.55105823
vt 0.024343472 0.5480825
vt 0.024343472 0.52427614
vt 0.018391892 0.52427614
vt 0.018391892 0.57486457
vt 0.006488735 0.5213004
vt 0.006488735 0.57188874
vt 0.006488735 0.61057407
vt 0.021367684 0.6165256
vt 0.027319262 0.57486457
vt 0.024343472 0.5897435
vt 0.030295052 0.5927193
vt 0.033270843 0.60164666
vt 0.033270843 0.5927193
vt 0.04219821 0.6046225
vt 0.045174003 0.5986709
vt 0.027319262 0.5897435
vt 0.030295052 0.5927193
vt 0.030295052 0.58081615
vt 0.033270843 0.5897435
vt 0.033270843 0.5927193
vt 0.03624663 0.5837919
vt 0.045174003 0.5927193
vt 0.045174003 0.5986709
vt 0.17313296 0.66413826
vt 0.17313296 0.6492593
vt 0.17015716 0.66413826
vt 0.17908454 0.6522351
vt 0.17610875 0.63735616
vt 0.18206033 0.64330775
vt 0.18801191 0.6492593
vt 0.18206033 0.6581867
vt 0.18206033 0.6581867
vt 0.17313296 0.66413826
vt 0.17313296 0.6492593
vt 0.1612298 0.6462835
vt 0.17015716 0.66413826
vt 0.1642056 0.6314046
vt 0.17610875 0.63735616
vt 0.15230243 0.63735616
vt 0.16718139 0.6165256
vt 0.18206033 0.6046225
vt 0.15825401 0.6195014
vt 0.15527822 0.6224772
vt 0.15825401 0.60164666
vt 0.15825401 0.60164666
vt 0.1642056 0.58081615
vt 0.17610875 0.5927193
vt 0.1909877 0.57486457
vt 0.18503612 0.5659372
vt 0.16718139 0.58081615
vt 0.17015716 0.54510665
vt 0.17313296 0.54510665
vt 0.1909877 0.32192245
vt 0.19693927 0.3070435
vt 0.19693927 0.3040677
vt 0.19396348 0.33084983
vt 0.19693927 0.33084983
vt 0.19693927 0.3070435
vt 0.19693927 0.3338256
vt 0.1314719 0.7415088
vt 0.12552032 0.7415088
vt 0.12552032 0.7444846
vt 0.12849611 0.738533
vt 0.1314719 0.72365403
vt 0.1344477 0.72662985
vt 0.14039928 0.73258144
vt 0.1344477 0.72067827
vt 0.1344477 0.71770245
vt 0.14337507 0.72662985
vt 0.14039928 0.73258144
vt 0.13742349 0.71770245
vt 0.13742349 0.7087751
vt 0.14635086 0.71175086
vt 0.14932664 0.72067827
vt 0.14039928 0.71175086
vt 0.14635086 0.7057993
vt 0.15230243 0.71770245
vt 0.14932664 0.72067827
vt 0.15230243 0.7147267
vt 0.19396348 0.6462835
vt 0.18206033 0.64330775
vt 0.18801191 0.6492593
vt 0.18206033 0.63438034
vt 0.17610875 0.63735616
vt 0.18206033 0.6046225
vt 0.18801191 0.60759825
vt 0.1909877 0.57486457
vt 0.19693927 0.5778403
vt 0.21181823 0.60164666
vt 0.19991507 0.62842876
vt 0.19396348 0.6462835
vt 0.20289086 0.63438034
vt 0.20884244 0.6224772
vt 0.21479401 0.6135498
vt 0.20289086 0.63438034
vt 0.14932664 0.5659372
vt 0.15527822 0.52427614
vt 0.15230243 0.5213004
vt 0.14337507 0.5629614
vt 0.16718139 0.53915507
vt 0.14039928 0.58676773
vt 0.1612298 0.5778403
vt 0.17015716 0.54510665
vt 0.1642056 0.58081615
vt 0.14635086 0.58676773
vt 0.15527822 0.5986709
vt 0.15825401 0.60164666
vt 0.14635086 0.5927193
vt 0.14039928 0.5927193
vt 0.14337507 0.6135498
vt 0.14039928 0.6165256
vt 0.14337507 0.6314046
vt 0.15230243 0.6165256
vt 0.15527822 0.6224772
vt 0.15230243 0.63735616
vn 0.015323089 0.9998826 -0
vn 0.015323089 0.9998826 -0
vn 0.015323089 0.9998826 -0
vn 0.07853932 0.996911 -0
vn 0.07853932 0.996911 -0
vn 0.07853932 0.996911 -0
vn 0.14222395 0.96815825 0.20601447
vn 0.14222395 0.96815825 0.20601447
vn -0.23847854 0.9364331 0.25733453
vn -0.3971045 0.8729826 0.2832126
vn -0.3971045 0.8729826 0.2832126
vn -0.048077248 0.99884367 -0
vn 0.015323089 0.9998826 -0
vn 0.015323089 0.9998826 -0
vn 0.015323089 0.9998826 -0
vn 0.015323089 0.9998826 -0
vn 0.015323089 0.9998826 -0
vn -0.016401833 0.99986553 -0
vn 0.04704833 0.9364331 0.34767735
vn 0.015323089 0.9998826 -0
vn 0.23739952 0.9364331 0.25833032
vn 0.07853932 0.996911 -0
vn 0.07853932 0.996911 -0
vn -0.07985246 0.777807 0.62340987
vn 0.30084997 0.8729826 0.38391483
vn -0.048127294 0.6826314 0.72917634
vn -0.5557306 0.30192888 0.77459824
vn -0.2702037 0.58745575 0.76281434
vn -0.49228013 0.30192888 0.81639403
vn -0.2702037 0.36537933 0.8907794
vn -0.6191809 0.11157775 0.77728075
vn -0.71435654 0.048127294 0.69812495
vn -0.71435654 0.048127294 0.69812495
vn -0.71435654 0.048127294 0.69812495
vn 0.39602554 0.80953217 0.43338373
vn 0.7132776 0.6826314 0.15890086
vn 0.5863768 0.80953217 0.02863427
vn 0.5863768 0.80953217 0.02863427
vn 0.76645535 0.6422976 -0
vn 0.9036288 0.30192888 -0.3037991
vn 0.93535405 0.23847854 -0.26122934
vn 0.84017843 0.5240054 0.13970882
vn 0.87079155 0.49165222 -0
vn 0.93535405 0.23847854 -0.26122934
vn 0.36430037 0.5240054 0.7698724
vn 0.33257514 0.36537933 0.86942035
vn 0.33257514 0.36537933 0.86942035
vn 0.30084997 0.71435654 0.63181007
vn 0.93535405 0.23847854 -0.26122934
vn 0.99880445 0.048127294 -0.008569301
vn 0.9036288 -0.0153231025 -0.4280422
vn 0.9036288 0.17502809 -0.3909221
vn 0.87190366 0.048127294 -0.48730665
vn 0.7939065 0.60803986 -0
vn 0.9670792 0.20675337 0.1483604
vn 0.98986375 0.14202015 -0
vn 0.61810195 0.14330292 0.7729258
vn 0.5546516 0.7460818 0.36840665
vn 0.84017843 0.5240054 0.13970882
vn 0.5863768 0.23847854 0.7741384
vn -0.11157775 0.11157775 0.9874719
vn 0.5229264 0.5240054 0.67228436
vn -0.048127294 0.23847854 0.9699545
vn -0.71435654 0.07985246 0.695211
vn 0.0153231025 0.6191809 0.78509885
vn -0.71435654 0.20675337 0.6685415
vn -0.96815825 0.048127294 0.24566929
vn -0.96815825 0.14330292 0.20526546
vn -0.46055496 0.58745575 0.66542083
vn -0.9047078 0.33365417 0.2649127
vn 0.109842904 0.993949 -0
vn 0.49037382 0.87151223 -0
vn 0.49037382 0.87151223 -0
vn 0.047001813 0.9988948 -0
vn -0.048077248 0.99884367 -0
vn 0.07853932 0.996911 -0
vn 0.109842904 0.993949 -0
vn 0.047001813 0.9988948 -0
vn -0.016401833 0.99986553 -0
vn 0.015323089 0.9998826 -0
vn -0.110902384 0.9938313 -0
vn -0.048077248 0.99884367 -0
vn -0.110902384 0.9938313 -0
vn -0.14186999 0.98988533 -0
vn -0.14186999 0.98988533 -0
vn -0.07960831 0.99682623 -0
vn -0.048077248 0.99884367 -0
vn 0.109842904 0.993949 -0
vn 0.07853932 0.996911 -0
vn 0.047001813 0.9988948 -0
vn -0.07960831 0.99682623 -0
vn 0.047001813 0.9988948 -0
vn -0.07960831 0.99682623 -0
vn -0.110902384 0.9938313 -0
vn -0.110902384 0.9938313 -0
vn -0.14330292 0.96815825 0.2052655
vn -0.14330292 0.96815825 0.2052655
vn -0.07960831 0.99682623 -0
vn -0.17502809 0.96815825 0.17898272
vn -0.17502809 0.96815825 0.17898272
vn 0.07853932 0.996911 -0
vn 0.047001813 0.9988948 -0
vn -0.016401833 0.99986553 -0
vn 0.17394912 0.96815825 0.1800315
vn 0.047001813 0.9988948 -0
vn 0.14222395 0.96815825 0.20601447
vn 0.015323089 0.9998826 -0
vn 0.109842904 0.993949 -0
vn 0.11049873 0.96815825 0.22463232
vn 0.015323089 0.9998826 -0
vn -0.016401833 0.99986553 -0
vn 0.015323089 0.9998826 -0
vn 0.015323089 0.9998826 -0
vn 0.015323089 0.9998826 -0
vn 0.07853932 0.996911 -0
vn 0.04704833 0.96815825 0.24587822
vn 0.015323089 0.9998826 -0
vn 0.04704833 0.96815825 0.24587822
vn 0.11049873 0.96815825 -0.22463232
vn 0.11049873 0.96815825 -0.22463232
vn 0.11049873 0.96815825 -0.22463232
vn 0.047001813 0.9988948 -0
vn 0.14222395 0.96815825 -0.20601447
vn 0.07853932 0.996911 -0
vn -0.048077248 0.99884367 -0
vn 0.015323089 0.9998826 -0
vn 0.047001813 0.9988948 -0
vn 0.015323089 0.9998826 -0
vn -0.016401833 0.99986553 -0
vn -0.048077248 0.99884367 -0
vn 0.015323089 0.9998826 -0
vn 0.015323089 0.9998826 -0
vn 0.015323089 0.9998826 -0
vn 0.015323089 0.9998826 -0
vn 0.07853932 0.996911 -0
vn 0.047001813 0.9988948 -0
vn 0.015323089 0.9998826 -0
vn 0.14082308 0.99003476 -0
vn 0.14082308 0.99003476 -0
vn 0.015323089 0.9998826 -0
vn 0.015323089 0.9998826 -0
vn -0.016401833 0.99986553 -0
vn 0.015323089 0.9998826 -0
vn 0.015323089 0.9998826 -0
vn 0.015323089 0.9998826 -0
vn 0.015323089 0.9998826 -0
vn 0.015323089 0.9998826 -0
vn 0.015323089 0.9998826 -0
vn 0.015323089 0.9998826 -0
vn 0.14082308 0.99003476 -0
vn 0.14082308 0.99003476 -0
vn 0.23739952 0.96815825 -0.079442546
vn 0.23739952 0.96815825 -0.079442546
vn 0.459476 0.30192888 0.83529675
vn 0.5546516 0.30192888 0.7753712
vn 0.5546516 0.30192888 0.7753712
vn -0.30192888 0.11157775 0.94677836
vn -0.2702037 0.11157775 0.95631605
vn -0.30192888 0.11157775 0.94677836
vn -0.2702037 0.33365417 0.9031417
vn -0.71435654 0.3971045 0.5761968
vn -0.71435654 0.3971045 0.5761968
vn -0.23847854 0.33365417 0.9120323
vn -0.14330292 0.33365417 0.93173987
vn -0.14330292 0.33365417 0.93173987
vn -0.14330292 0.33365417 0.93173987
vn -0.14330292 0.33365417 0.93173987
vn -0.14330292 0.8729826 0.46622485
vn -0.36537933 0.23847854 0.89979213
vn -0.30192888 0.8729826 0.38306692
vn -0.17502809 0.30192888 0.93712544
vn 0.23739952 0.2702037 0.9330763
vn 0.26912475 0.80953217 0.52175623
vn 0.49120116 -0.14222395 0.8593566
vn 0.23739952 -0.17394912 0.9557108
vn 0.459476 -0.26912475 0.84643584
vn 0.6815524 -0.39602554 0.61534554
vn -0.2702037 -0.20567435 0.9405786
vn -0.46055496 -0.20567435 0.8634739
vn 0.0787735 -0.17394912 0.9815989
vn 0.26912475 -0.30084997 0.9149105
vn 0.8084532 -0.23739952 0.5385582
vn 0.04704833 -0.36430037 0.93009233
vn -0.20675337 -0.36430037 0.9080409
vn -0.4288298 -0.33257514 0.8399398
vn -0.07985246 0.5557306 0.8275187
vn -0.6191809 0.20675337 0.75754076
vn -0.5557306 0.3971045 0.7303914
vn -0.048127294 0.30192888 0.9521149
vn -0.11157775 -0.0787735 0.99062866
vn -0.6826314 -0.11049873 0.7223603
vn -0.33365417 -0.17394912 0.9265078
vn -0.36537933 0.20675337 0.90760726
vn -0.11157775 -0.0787735 0.99062866
vn -0.33365417 -0.17394912 0.9265078
vn -0.07985246 0.048127294 0.9956442
vn -0.33365417 0.71435654 0.61511755
vn -0.96815825 0.11157775 0.22409828
vn -0.9364331 0.016402125 -0.35046262
vn -0.96815825 0.016402125 0.24980113
vn -0.6826314 0.11157775 0.72219443
vn -0.6509062 0.016402125 0.75898093
vn 0.33257514 0.6509062 0.68243307
vn -0.2702037 0.20675337 0.94034195
vn -0.5240054 0.016402125 0.85155696
vn -0.6191809 0.20675337 0.75754076
vn 0.23739952 0.58745575 0.77365184
vn -0.5557306 0.048127294 0.8299683
vn -0.33365417 0.016402125 0.94255286
vn 0.39602554 0.14330292 0.90698844
vn 0.39602554 0.016402125 0.91809297
vn -0.2702037 -0.14222395 0.95224065
vn -0.23847854 -0.14222395 0.960677
vn -0.17502809 -0.14222395 0.9742369
vn 0.0787735 -0.17394912 0.9815989
vn 0.0787735 -0.17394912 0.9815989
vn 0.23739952 -0.20567435 0.94938904
vn 0.23739952 -0.20567435 0.94938904
vn 0.26912475 -0.0787735 0.95987844
vn 0.015323089 0.9998826 -0
vn 0.015323089 0.9998826 -0
vn 0.015323089 0.9998826 -0
vn 0.015323089 0.9998826 -0
vn 0.015323089 0.9998826 -0
vn 0.015323089 0.9998826 -0
vn 0.015323089 0.9998826 -0
vn 0.015323089 0.9998826 -0
vn 0.015323089 0.9998826 -0
vn 0.015323089 0.9998826 -0
vn 0.015323089 0.9998826 -0
vn -0.016401833 0.99986553 -0
vn 0.015323089 0.9998826 -0
vn -0.016402125 0.96815825 0.24980108
vn 0.015323089 0.9998826 -0
vn -0.048127294 0.96815825 0.24566929
vn -0.016401833 0.99986553 -0
vn 0.015323089 0.9998826 -0
vn -0.016401833 0.99986553 -0
vn 0.015323089 0.9998826 -0
vn 0.015323089 0.9998826 -0
vn 0.015323089 0.9998826 -0
vn 0.015323089 0.9998826 -0
vn 0.015323089 0.9998826 -0
vn 0.015323089 0.9998826 -0
vn 0.015323089 0.9998826 -0
vn 0.015323089 0.9998826 -0
vn 0.015323089 0.9998826 -0
vn 0.015323089 0.9998826 -0
vn 0.015323089 0.9998826 -0
vn 0.015323089 0.9998826 -0
vn 0.015323089 0.9998826 -0
vn 0.015323089 0.9998826 -0
vn -0.016401833 0.99986553 -0
vn -0.016401833 0.99986553 -0
vn -0.016401833 0.99986553 -0
vn -0.016401833 0.99986553 -0
vn 0.015323089 0.9998826 -0
vn -0.016402125 0.2702037 0.9626635
vn 0.49120116 0.36537933 0.7907081
vn 0.5546516 0.49228013 0.6708367
vn -0.048127294 0.20675337 0.9772087
vn -0.3971045 0.17502809 0.9009291
vn 0.04704833 0.17502809 0.9834387
vn 0.39602554 0.17502809 0.9014039
vn 0.04704833 -0.0153231025 0.99877506
vn 0.33257514 -0.0787735 0.9397811
vn -0.23847854 0.14330292 0.9605167
vn -0.4288298 0.20675337 0.87940776
vn -0.84125745 0.2702037 0.46826902
vn -0.8729826 0.17502809 0.4552653
vn -0.6191809 0.5557306 0.55477786
vn -0.3971045 0.33365417 0.8549754
vn -0.6509062 0.23847854 0.72072816
vn -0.49228013 -0.11049873 0.8633946
vn 0.0153231025 -0.14222395 0.9897159
vn -0.5557306 -0.17394912 0.8129608
vn -0.7460818 -0.17394912 0.64273137
vn -0.84125745 -0.04704833 0.5385837
vn 0.11049873 0.07985246 0.99066323
vn 0.459476 0.14330292 0.87655354
vn -0.5240054 -0.0153231025 0.8515771
vn 0.17394912 0.6509062 0.7389606
vn 0.39602554 0.7460818 0.53528094
vn -0.20675337 0.96815825 0.1411477
vn -0.6191809 0.46055496 0.63600636
vn -0.8729826 0.2702037 0.4060681
vn -0.5557306 0.80953217 0.1892649
vn -0.71435654 0.6826314 0.15397766
vn -0.71435654 0.6191809 0.3260517
vn -0.6826314 0.6191809 0.38811004
vn -0.5240054 0.71435654 0.4638028
vn 0.0787735 0.96815825 0.23762234
vn -0.5557306 0.5557306 0.618326
vn -0.20675337 0.777807 0.5935228
vn 0.39602554 0.80953217 0.43338373
vn 0.23739952 0.9364331 0.25833032
vn 0.36430037 0.9047078 0.2208825
vn 0.36430037 0.9047078 0.2208825
vn 0.0153231025 0.7460818 0.6656779
vn -0.33365417 0.6191809 0.7108375
vn 0.33257514 0.7460818 0.5768498
vn 0.36430037 0.777807 0.5121538
vn 0.459476 0.80953217 0.36543047
vn 0.459476 0.80953217 0.36543047
vn 0.39602554 0.8729826 0.28471938
vn 0.49120116 0.777807 0.39209396
vn 0.5229264 0.80953217 0.2668438
vn 0.5229264 0.80953217 0.2668438
vn -0.016402125 0.96815825 0.24980108
vn 0.26912475 0.9364331 0.22508879
vn 0.04704833 0.96815825 0.24587822
vn -0.07960831 0.99682623 -0
vn -0.07960831 0.99682623 -0
vn -0.17502809 0.96815825 0.17898272
vn -0.20675337 0.96815825 0.1411477
vn -0.048127294 0.6826314 0.72917634
vn -0.20675337 0.96815825 0.1411477
vn -0.07985246 0.58745575 0.80530703
vn -0.048077248 0.99884367 -0
vn 0.015323089 0.9998826 -0
vn -0.07985246 0.46055496 0.8840321
vn 0.0153231025 0.6191809 0.78509885
vn 0.0153231025 0.4288298 0.90325534
vn -0.07985246 0.46055496 0.8840321
vn -0.14330292 0.46055496 0.8759871
vn -0.2702037 0.49228013 0.827436
vn -0.2702037 0.49228013 0.827436
vn -0.3971045 0.5240054 0.7534762
vn -0.048127294 0.6191809 0.7837721
vn 0.04704833 0.6509062 0.7576989
vn 0.0153231025 0.777807 0.6283164
vn -0.016402125 0.6191809 0.78507704
vn -0.048127294 0.6191809 0.7837721
vn -0.11157775 0.58745575 0.8015274
vn -0.11157775 0.6191809 0.77728075
vn 0.04704833 0.6509062 0.7576989
vn -0.016402125 0.7460818 0.66565216
vn -0.20675337 0.6191809 0.75754076
vn 0.0153231025 0.58745575 0.8091112
vn -0.016402125 0.9364331 0.35046256
vn -0.07985246 0.49228013 0.86676633
vn -0.016402125 0.8729826 0.4874754
vn -0.3971045 0.048127294 0.91651064
vn -0.20675337 0.84125745 0.49953875
vn -0.14330292 0.777807 0.61194813
vn -0.016402125 0.96815825 0.24980108
vn -0.17502809 0.016402125 0.9844268
vn -0.11157775 0.6509062 0.7509138
vn -0.07985246 0.96815825 0.23726198
vn 0.0787735 -0.04704833 0.9957817
vn 0.04704833 0.6191809 0.7838377
vn -0.016402125 0.8729826 0.4874754
vn 0.0153231025 0.5557306 0.8312212
vn -0.11157775 0.6509062 0.7509138
vn -0.07985246 0.777807 0.62340987
vn -0.07985246 0.777807 0.62340987
vn -0.048127294 0.80953217 0.5850995
vn 0.84017843 0.36537933 0.40074703
vn 0.8084532 0.46055496 0.3664595
vn 0.87190366 0.2702037 0.40837967
vn 0.0787735 0.7460818 0.66117823
vn 0.87190366 0.20675337 0.44388855
vn -0.07960831 0.99682623 -0
vn 0.23739952 0.36537933 0.90007746
vn 0.87190366 0.23847854 0.4276821
vn 0.26912475 0.33365417 0.9034638
vn -0.11157775 0.30192888 0.94677836
vn -0.14330292 0.6191809 0.7720617
vn -0.14330292 0.33365417 0.93173987
vn -0.17502809 0.2702037 0.94676036
vn -0.07985246 0.6826314 0.72638696
vn 0.07853932 0.996911 -0
vn -0.17502809 0.33365417 0.9263045
vn -0.11157775 0.58745575 0.8015274
vn 0.047001813 0.9988948 -0
vn -0.11157775 0.33365417 0.9360691
vn -0.11157775 0.2702037 0.95631605
vn -0.46055496 0.2702037 0.84550524
vn -0.5240054 0.23847854 0.8176468
vn -0.20675337 0.14330292 0.96784157
vn -0.30192888 0.5557306 0.77459824
vn 0.07853932 0.996911 -0
vn -0.016401833 0.99986553 -0
vn -0.17502809 0.20675337 0.9626101
vn -0.14330292 0.5557306 0.8189187
vn 0.11049873 0.23847854 0.96484095
vn 0.11049873 0.14330292 0.9834909
vn -0.048127294 0.5557306 0.8299683
vn -0.14186999 0.98988533 -0
vn -0.2702037 0.2702037 0.92411035
vn -0.17502809 0.20675337 0.9626101
vn 0.11049873 0.33365417 0.9361971
vn -0.2702037 0.58745575 0.76281434
vn -0.016401833 0.99986553 -0
vn 0.04704833 0.33365417 0.94152075
vn -0.11157775 0.30192888 0.94677836
vn 0.11049873 0.33365417 0.9361971
vn -0.11157775 0.30192888 0.94677836
vn -0.6509062 0.17502809 0.7387058
vn -0.11157775 0.4288298 0.8964683
vn -0.016402125 0.84125745 0.54038584
vn -0.58745575 0.36537933 0.722076
vn -0.6509062 0.20675337 0.7304616
vn -0.7460818 0.17502809 0.64243835
vn -0.80953217 0.07985246 0.5816195
vn 0.0153231025 0.23847854 0.9710269
vn 0.0153231025 0.4288298 0.90325534
vn 0.0153231025 0.23847854 0.9710269
vn 0.0153231025 0.46055496 0.8874989
vn 0.0153231025 0.71435654 0.6996141
vn -0.016402125 0.777807 0.6282891
vn -0.6826314 0.33365417 0.6501456
vn -0.5557306 0.5557306 0.618326
vn -0.6509062 0.5240054 0.5493082
vn -0.14330292 0.9047078 0.40120834
vn -0.016402125 0.49228013 0.87028223
vn 0.11049873 0.9047078 0.41145337
vn 0.04704833 0.49228013 0.8691644
vn -0.6191809 0.46055496 0.63600636
vn -0.20675337 -0.49120116 0.8461527
vn -0.46055496 0.71435654 0.52686226
vn 0.0787735 0.3971045 0.9143865
vn 0.0787735 -0.49120116 0.8674769
vn -0.14330292 0.9047078 0.40120834
vn -0.11157775 0.6191809 0.77728075
vn 0.04704833 -0.49120116 0.86977464
vn 0.5546516 0.23847854 0.797176
vn -0.14330292 0.2702037 0.95207894
vn -0.17502809 0.11157775 0.9782206
vn 0.5863768 0.2702037 0.76364404
vn -0.07985246 0.49228013 0.86676633
vn 0.5863768 0.2702037 0.76364404
vn 0.6815524 0.23847854 0.6918196
vn 0.6815524 0.23847854 0.6918196
vn 0.6815524 0.17502809 0.710529
vn 0.6815524 0.17502809 0.710529
vn 0.87190366 0.2702037 0.40837967
vn 0.8084532 0.2702037 0.52287036
vn 0.87190366 0.17502809 0.4573283
vn 0.77672803 0.4288298 0.46130097
vn 0.9036288 0.2702037 0.3323325
vn 0.61810195 0.49228013 0.6128705
vn 0.87190366 0.30192888 0.3855165
vn 0.93535405 0.20675337 0.28699446
vn 0.49120116 0.6191809 0.61264706
vn -0.36537933 0.58745575 0.72207594
vn -0.2702037 0.46055496 0.84550524
vn 0.6815524 0.36537933 0.6340223
vn -0.14330292 0.20675337 0.96784157
vn 0.87190366 0.20675337 0.44388855
vn 0.9036288 0.23847854 0.35578492
vn 0.87190366 0.20675337 0.44388855
vn 0.7450028 0.23847854 0.62297577
vn -0.11157775 0.2702037 0.95631605
vn 0.7450028 0.20675337 0.63421124
vn -0.07960831 0.99682623 -0
vn 0.07853932 0.996911 -0
vn -0.07960831 0.99682623 -0
vn -0.84125745 0.4288298 -0.32922778
vn -0.84125745 0.4288298 -0.32922778
vn -0.8729826 0.3971045 0.28321254
vn -0.84125745 0.46055496 -0.283152
vn 0.33257514 0.80953217 0.48378867
vn -0.36537933 0.6191809 0.69506323
vn -0.20675337 0.84125745 0.49953875
vn -0.30192888 0.6191809 0.724882
vn -0.49228013 0.5240054 0.69503856
vn -0.11157775 0.9364331 0.3326311
vn 0.5229264 0.6509062 0.5503354
vn -0.26881745 0.9631912 -0
vn -0.777807 0.33365417 0.5326267
vn 0.14222395 0.96815825 -0.20601447
vn -0.17502809 0.96815825 -0.17898272
vn -0.2702037 0.9364331 0.2237924
vn -0.07985246 0.36537933 0.9274274
vn 0.33257514 0.9047078 0.2662661
vn 0.459476 0.84125745 -0.28489944
vn -0.20675337 0.6191809 0.75754076
vn 0.5229264 0.36537933 0.77009475
vn 0.7132776 0.6826314 0.15890086
vn 0.33257514 0.9047078 -0.2662661
vn 0.84017843 0.30192888 0.4504877
vn 0.26782116 0.9634687 -0
vn 0.26782116 0.9634687 -0
vn 0.26782116 0.9634687 -0
vn 0.36430037 0.49228013 0.790535
vn -0.30192888 0.4288298 0.8514364
vn -0.23847854 0.36537933 0.89979213
vn 0.42775077 0.36537933 0.8267571
vn -0.11157775 0.33365417 0.9360691
vn 0.5229264 0.36537933 0.77009475
vn 0.8084532 0.33365417 0.48484877
vn 0.84017843 0.2702037 0.47020227
vn 0.87190366 0.36537933 0.32600912
vn 0.9670792 -0.0153231025 -0.25401372
vn 0.9670792 0.17502809 -0.18472394
vn 0.9670792 0.17502809 -0.18472394
vn 0.9670792 0.17502809 -0.18472394
vn 0.49120116 0.2702037 0.8280769
vn 0.5229264 0.2702037 0.8084169
vn -0.07985246 0.2702037 0.9594861
vn -0.07985246 0.30192888 0.94998026
vn 0.7450028 0.23847854 0.62297577
vn -0.20675337 0.46055496 0.86321616
vn 0.7450028 0.23847854 0.62297577
vn 0.99880445 0.016402125 0.046050403
vn 0.9968194 0.07969376 -0
vn 0.459476 0.33365417 0.8231383
vn 0.64982724 0.4288298 0.6275584
vn 0.9670792 0.23847854 -0.08880175
vn 0.04704833 0.7460818 0.66419
vn -0.6826314 0.5240054 0.5093454
vn 0.0787735 0.7460818 0.66117823
vn -0.6191809 0.5240054 0.5848361
vn 0.26912475 0.7460818 0.6090433
vn 0.49120116 0.6826314 0.5410507
vn 0.9968194 0.07969376 -0
vn 0.33257514 0.7460818 0.5768498
g tb_geo_light_section_11_mesh_0
f 3/3/3 2/2/2 1/1/1
f 5/5/5 2/2/2 4/4/4
f 2/2/2 6/6/6 4/4/4
f 8/8/8 6/6/6 7/7/7
f 6/6/6 9/9/9 7/7/7
f 11/11/11 9/9/9 10/10/10
f 9/9/9 12/12/12 10/10/10
f 14/14/14 12/12/12 13/13/13
f 13/13/13 12/12/12 15/15/15
f 13/13/13 15/15/15 16/16/16
f 16/16/16 17/17/17 13/13/13
f 17/17/17 16/16/16 18/18/18
f 16/16/16 19/19/19 18/18/18
f 18/18/18 19/19/19 20/20/20
f 22/22/22 19/19/19 21/21/21
f 23/23/23 22/22/22 21/21/21
f 19/19/19 24/24/24 21/21/21
f 24/24/24 25/25/25 21/21/21
f 24/24/24 19/19/19 26/26/26
f 24/24/24 26/26/26 27/27/27
f 24/24/24 27/27/27 28/28/28
f 24/24/24 28/28/28 25/25/25
f 27/27/27 29/29/29 28/28/28
f 28/28/28 29/29/29 30/30/30
f 29/29/29 31/31/31 30/30/30
f 31/31/31 29/29/29 32/32/32
f 31/31/31 32/32/32 33/33/33
f 32/32/32 34/34/34 33/33/33
f 35/35/35 28/28/28 30/30/30
f 28/28/28 35/35/35 25/25/25
f 21/21/21 25/25/25 36/36/36
f 37/37/37 21/21/21 36/36/36
f 37/37/37 38/38/38 21/21/21
f 25/25/25 35/35/35 39/39/39
f 36/36/36 25/25/25 39/39/39
f 36/36/36 39/39/39 40/40/40
f 39/39/39 41/41/41 40/40/40
f 36/36/36 40/40/40 42/42/42
f 43/43/43 36/36/36 42/42/42
f 40/40/40 41/41/41 44/44/44
f 40/40/40 44/44/44 42/42/42
f 45/45/45 42/42/42 44/44/44
f 45/45/45 46/46/46 42/42/42
f 46/46/46 47/47/47 42/42/42
f 45/45/45 44/44/44 48/48/48
f 44/44/44 49/49/49 48/48/48
f 41/41/41 49/49/49 44/44/44
f 49/49/49 50/50/50 48/48/48
f 50/50/50 49/49/49 41/41/41
f 41/41/41 51/51/51 50/50/50
f 41/41/41 52/52/52 51/51/51
f 52/52/52 53/53/53 51/51/51
f 39/39/39 54/54/54 41/41/41
f 54/54/54 52/52/52 41/41/41
f 52/52/52 55/55/55 53/53/53
f 55/55/55 56/56/56 53/53/53
f 57/57/57 56/56/56 55/55/55
f 58/58/58 54/54/54 39/39/39
f 35/35/35 58/58/58 39/39/39
f 54/54/54 59/59/59 52/52/52
f 59/59/59 55/55/55 52/52/52
f 58/58/58 59/59/59 54/54/54
f 60/60/60 57/57/57 55/55/55
f 61/61/61 57/57/57 60/60/60
f 59/59/59 62/62/62 55/55/55
f 58/58/58 62/62/62 59/59/59
f 62/62/62 60/60/60 55/55/55
f 63/63/63 61/61/61 60/60/60
f 63/63/63 60/60/60 62/62/62
f 64/64/64 61/61/61 63/63/63
f 58/58/58 65/65/65 62/62/62
f 58/58/58 35/35/35 65/65/65
f 65/65/65 63/63/63 62/62/62
f 66/66/66 64/64/64 63/63/63
f 63/63/63 65/65/65 66/66/66
f 67/67/67 64/64/64 66/66/66
f 68/68/68 67/67/67 66/66/66
f 35/35/35 69/69/69 65/65/65
f 66/66/66 65/65/65 69/69/69
f 68/68/68 66/66/66 69/69/69
f 35/35/35 70/70/70 69/69/69
f 70/70/70 68/68/68 69/69/69
f 73/73/73 72/72/72 71/71/71
f 75/75/75 71/71/71 74/74/74
f 76/76/76 75/75/75 74/74/74
f 76/76/76 77/77/77 75/75/75
f 77/77/77 78/78/78 75/75/75
f 75/75/75 78/78/78 79/79/79
f 80/80/80 79/79/79 78/78/78
f 81/81/81 80/80/80 78/78/78
f 82/82/82 75/75/75 79/79/79
f 83/83/83 81/81/81 78/78/78
f 83/83/83 78/78/78 84/84/84
f 85/85/85 83/83/83 84/84/84
f 86/86/86 75/75/75 82/82/82
f 86/86/86 71/71/71 75/75/75
f 87/87/87 86/86/86 82/82/82
f 88/88/88 71/71/71 86/86/86
f 89/89/89 88/88/88 86/86/86
f 86/86/86 87/87/87 90/90/90
f 90/90/90 89/89/89 86/86/86
f 91/91/91 90/90/90 87/87/87
f 91/91/91 92/92/92 90/90/90
f 92/92/92 91/91/91 93/93/93
f 93/93/93 91/91/91 94/94/94
f 93/93/93 94/94/94 95/95/95
f 95/95/95 96/96/96 93/93/93
f 96/96/96 97/97/97 93/93/93
f 92/92/92 93/93/93 98/98/98
f 93/93/93 99/99/99 98/98/98
f 99/99/99 100/100/100 98/98/98
f 101/101/101 89/89/89 90/90/90
f 102/102/102 101/101/101 90/90/90
f 102/102/102 90/90/90 92/92/92
f 102/102/102 103/103/103 101/101/101
f 89/89/89 101/101/101 104/104/104
f 105/105/105 102/102/102 92/92/92
f 89/89/89 104/104/104 106/106/106
f 104/104/104 107/107/107 106/106/106
f 106/106/106 108/108/108 89/89/89
f 109/109/109 108/108/108 106/106/106
f 109/109/109 71/71/71 108/108/108
f 110/110/110 105/105/105 92/92/92
f 110/110/110 111/111/111 105/105/105
f 98/98/98 110/110/110 92/92/92
f 112/112/112 110/110/110 98/98/98
f 113/113/113 112/112/112 98/98/98
f 114/114/114 113/113/113 98/98/98
f 115/115/115 71/71/71 109/109/109
f 116/116/116 115/115/115 109/109/109
f 109/109/109 117/117/117 116/116/116
f 118/118/118 115/115/115 116/116/116
f 71/71/71 115/115/115 119/119/119
f 120/120/120 71/71/71 119/119/119
f 120/120/120 121/121/121 71/71/71
f 122/122/122 115/115/115 118/118/118
f 123/123/123 115/115/115 122/122/122
f 124/124/124 123/123/123 122/122/122
f 125/125/125 122/122/122 118/118/118
f 126/126/126 122/122/122 125/125/125
f 124/124/124 122/122/122 127/127/127
f 122/122/122 128/128/128 127/127/127
f 129/129/129 128/128/128 125/125/125
f 129/129/129 130/130/130 128/128/128
f 131/131/131 127/127/127 128/128/128
f 130/130/130 131/131/131 128/128/128
f 132/132/132 127/127/127 131/131/131
f 133/133/133 131/131/131 130/130/130
f 133/133/133 130/130/130 134/134/134
f 131/131/131 133/133/133 135/135/135
f 136/136/136 131/131/131 135/135/135
f 135/135/135 137/137/137 136/136/136
f 138/138/138 131/131/131 136/136/136
f 139/139/139 138/138/138 136/136/136
f 136/136/136 137/137/137 140/140/140
f 136/136/136 140/140/140 141/141/141
f 140/140/140 142/142/142 141/141/141
f 136/136/136 141/141/141 143/143/143
f 144/144/144 136/136/136 143/143/143
f 143/143/143 141/141/141 145/145/145
f 141/141/141 146/146/146 145/145/145
f 142/142/142 147/147/147 141/141/141
f 146/146/146 141/141/141 147/147/147
f 142/142/142 148/148/148 147/147/147
f 149/149/149 146/146/146 147/147/147
f 151/151/151 150/150/150 78/78/78
f 153/153/153 21/21/21 152/152/152
f 156/156/156 155/155/155 154/154/154
f 158/158/158 154/154/154 157/157/157
f 159/159/159 158/158/158 157/157/157
f 162/162/162 161/161/161 160/160/160
f 161/161/161 163/163/163 160/160/160
f 163/163/163 164/164/164 160/160/160
f 164/164/164 165/165/165 160/160/160
f 165/165/165 164/164/164 166/166/166
f 164/164/164 167/167/167 166/166/166
f 170/170/170 169/169/169 168/168/168
f 169/169/169 171/171/171 168/168/168
f 171/171/171 172/172/172 168/168/168
f 172/172/172 173/173/173 168/168/168
f 174/174/174 173/173/173 172/172/172
f 172/172/172 175/175/175 174/174/174
f 172/172/172 171/171/171 175/175/175
f 175/175/175 176/176/176 174/174/174
f 177/177/177 176/176/176 175/175/175
f 178/178/178 171/171/171 169/169/169
f 178/178/178 169/169/169 179/179/179
f 171/171/171 180/180/180 175/175/175
f 180/180/180 177/177/177 175/175/175
f 178/178/178 180/180/180 171/171/171
f 180/180/180 181/181/181 177/177/177
f 178/178/178 181/181/181 180/180/180
f 181/181/181 182/182/182 177/177/177
f 182/182/182 181/181/181 183/183/183
f 184/184/184 183/183/183 181/181/181
f 178/178/178 184/184/184 181/181/181
f 178/178/178 179/179/179 184/184/184
f 179/179/179 185/185/185 184/184/184
f 188/188/188 187/187/187 186/186/186
f 187/187/187 189/189/189 186/186/186
f 186/186/186 189/189/189 19/19/19
f 189/189/189 187/187/187 190/190/190
f 187/187/187 191/191/191 190/190/190
f 191/191/191 192/192/192 190/190/190
f 189/189/189 193/193/193 19/19/19
f 190/190/190 193/193/193 189/189/189
f 190/190/190 192/192/192 194/194/194
f 190/190/190 194/194/194 193/193/193
f 192/192/192 195/195/195 194/194/194
f 195/195/195 196/196/196 194/194/194
f 19/19/19 193/193/193 197/197/197
f 19/19/19 197/197/197 26/26/26
f 198/198/198 197/197/197 193/193/193
f 197/197/197 198/198/198 26/26/26
f 193/193/193 199/199/199 198/198/198
f 199/199/199 200/200/200 198/198/198
f 198/198/198 201/201/201 26/26/26
f 198/198/198 200/200/200 201/201/201
f 200/200/200 202/202/202 201/201/201
f 26/26/26 201/201/201 203/203/203
f 201/201/201 202/202/202 204/204/204
f 201/201/201 204/204/204 203/203/203
f 202/202/202 205/205/205 204/204/204
f 204/204/204 206/206/206 203/203/203
f 206/206/206 207/207/207 203/203/203
f 204/204/204 205/205/205 208/208/208
f 206/206/206 204/204/204 208/208/208
f 206/206/206 208/208/208 207/207/207
f 205/205/205 209/209/209 208/208/208
f 208/208/208 210/210/210 207/207/207
f 208/208/208 209/209/209 210/210/210
f 209/209/209 211/211/211 210/210/210
f 214/214/214 213/213/213 212/212/212
f 213/213/213 214/214/214 215/215/215
f 214/214/214 216/216/216 215/215/215
f 216/216/216 217/217/217 215/215/215
f 217/217/217 218/218/218 215/215/215
f 217/217/217 219/219/219 218/218/218
f 222/222/222 221/221/221 220/220/220
f 223/223/223 222/222/222 220/220/220
f 224/224/224 223/223/223 220/220/220
f 224/224/224 225/225/225 223/223/223
f 226/226/226 224/224/224 220/220/220
f 226/226/226 220/220/220 227/227/227
f 228/228/228 226/226/226 227/227/227
f 229/229/229 226/226/226 228/228/228
f 230/230/230 229/229/229 228/228/228
f 228/228/228 227/227/227 231/231/231
f 232/232/232 228/228/228 231/231/231
f 231/231/231 227/227/227 233/233/233
f 234/234/234 232/232/232 231/231/231
f 231/231/231 233/233/233 235/235/235
f 234/234/234 231/231/231 236/236/236
f 236/236/236 231/231/231 235/235/235
f 237/237/237 234/234/234 236/236/236
f 236/236/236 235/235/235 238/238/238
f 237/237/237 236/236/236 238/238/238
f 239/239/239 237/237/237 238/238/238
f 240/240/240 239/239/239 238/238/238
f 241/241/241 240/240/240 238/238/238
f 241/241/241 238/238/238 242/242/242
f 241/241/241 242/242/242 243/243/243
f 242/242/242 244/244/244 243/243/243
f 243/243/243 244/244/244 245/245/245
f 244/244/244 246/246/246 245/245/245
f 245/245/245 246/246/246 247/247/247
f 248/248/248 245/245/245 247/247/247
f 248/248/248 247/247/247 249/249/249
f 250/250/250 248/248/248 249/249/249
f 250/250/250 249/249/249 251/251/251
f 251/251/251 252/252/252 250/250/250
f 252/252/252 253/253/253 250/250/250
f 253/253/253 252/252/252 254/254/254
f 253/253/253 254/254/254 255/255/255
f 255/255/255 256/256/256 253/253/253
f 254/254/254 257/257/257 255/255/255
f 260/260/260 259/259/259 258/258/258
f 259/259/259 261/261/261 258/258/258
f 258/258/258 261/261/261 262/262/262
f 263/263/263 261/261/261 259/259/259
f 264/264/264 263/263/263 259/259/259
f 264/264/264 265/265/265 263/263/263
f 265/265/265 264/264/264 266/266/266
f 261/261/261 263/263/263 267/267/267
f 267/267/267 263/263/263 265/265/265
f 261/261/261 268/268/268 262/262/262
f 262/262/262 268/268/268 269/269/269
f 270/270/270 262/262/262 269/269/269
f 271/271/271 269/269/269 268/268/268
f 261/261/261 272/272/272 268/268/268
f 272/272/272 271/271/271 268/268/268
f 272/272/272 261/261/261 267/267/267
f 271/271/271 272/272/272 273/273/273
f 272/272/272 267/267/267 273/273/273
f 274/274/274 267/267/267 265/265/265
f 273/273/273 267/267/267 274/274/274
f 275/275/275 265/265/265 266/266/266
f 274/274/274 265/265/265 275/275/275
f 273/273/273 274/274/274 276/276/276
f 276/276/276 274/274/274 275/275/275
f 277/277/277 273/273/273 276/276/276
f 278/278/278 277/277/277 276/276/276
f 279/279/279 275/275/275 266/266/266
f 280/280/280 279/279/279 266/266/266
f 276/276/276 275/275/275 281/281/281
f 281/281/281 278/278/278 276/276/276
f 275/275/275 279/279/279 281/281/281
f 282/282/282 279/279/279 280/280/280
f 281/281/281 279/279/279 282/282/282
f 283/283/283 282/282/282 280/280/280
f 282/282/282 283/283/283 284/284/284
f 278/278/278 281/281/281 285/285/285
f 285/285/285 281/281/281 282/282/282
f 285/285/285 282/282/282 284/284/284
f 286/286/286 278/278/278 285/285/285
f 285/285/285 284/284/284 286/286/286
f 289/289/289 288/288/288 287/287/287
f 288/288/288 290/290/290 287/287/287
f 290/290/290 291/291/291 287/287/287
f 287/287/287 291/291/291 292/292/292
f 290/290/290 293/293/293 291/291/291
f 291/291/291 294/294/294 292/292/292
f 293/293/293 294/294/294 291/291/291
f 294/294/294 295/295/295 292/292/292
f 295/295/295 296/296/296 292/292/292
f 296/296/296 295/295/295 297/297/297
f 298/298/298 296/296/296 297/297/297
f 299/299/299 294/294/294 293/293/293
f 300/300/300 299/299/299 293/293/293
f 300/300/300 301/301/301 299/299/299
f 299/299/299 302/302/302 294/294/294
f 302/302/302 295/295/295 294/294/294
f 301/301/301 302/302/302 299/299/299
f 295/295/295 302/302/302 303/303/303
f 302/302/302 301/301/301 303/303/303
f 304/304/304 295/295/295 303/303/303
f 305/305/305 304/304/304 303/303/303
f 301/301/301 306/306/306 303/303/303
f 307/307/307 303/303/303 306/306/306
f 308/308/308 307/307/307 306/306/306
f 311/311/311 310/310/310 309/309/309
f 309/309/309 312/312/312 311/311/311
f 312/312/312 313/313/313 311/311/311
f 313/313/313 312/312/312 314/314/314
f 315/315/315 313/313/313 314/314/314
f 314/314/314 316/316/316 315/315/315
f 316/316/316 317/317/317 315/315/315
f 317/317/317 316/316/316 318/318/318
f 319/319/319 317/317/317 318/318/318
f 319/319/319 318/318/318 320/320/320
f 318/318/318 316/316/316 321/321/321
f 318/318/318 321/321/321 322/322/322
f 316/316/316 323/323/323 321/321/321
f 316/316/316 324/324/324 323/323/323
f 324/324/324 325/325/325 323/323/323
f 325/325/325 324/324/324 326/326/326
f 327/327/327 325/325/325 326/326/326
f 327/327/327 326/326/326 328/328/328
f 329/329/329 327/327/327 328/328/328
f 328/328/328 330/330/330 329/329/329
f 321/321/321 331/331/331 322/322/322
f 330/330/330 332/332/332 329/329/329
f 332/332/332 333/333/333 329/329/329
f 332/332/332 334/334/334 333/333/333
f 334/334/334 335/335/335 333/333/333
f 336/336/336 335/335/335 334/334/334
f 337/337/337 336/336/336 334/334/334
f 338/338/338 334/334/334 332/332/332
f 337/337/337 334/334/334 338/338/338
f 339/339/339 338/338/338 332/332/332
f 332/332/332 330/330/330 339/339/339
f 340/340/340 337/337/337 338/338/338
f 330/330/330 341/341/341 339/339/339
f 341/341/341 342/342/342 339/339/339
f 343/343/343 341/341/341 330/330/330
f 341/341/341 344/344/344 342/342/342
f 343/343/343 344/344/344 341/341/341
f 342/342/342 344/344/344 345/345/345
f 343/343/343 345/345/345 344/344/344
f 346/346/346 342/342/342 345/345/345
f 345/345/345 343/343/343 347/347/347
f 345/345/345 348/348/348 346/346/346
f 348/348/348 345/345/345 347/347/347
f 348/348/348 349/349/349 346/346/346
f 347/347/347 350/350/350 348/348/348
f 348/348/348 351/351/351 349/349/349
f 350/350/350 351/351/351 348/348/348
f 351/351/351 352/352/352 349/349/349
f 351/351/351 350/350/350 353/353/353
f 351/351/351 353/353/353 352/352/352
f 353/353/353 350/350/350 354/354/354
f 353/353/353 354/354/354 355/355/355
f 353/353/353 356/356/356 352/352/352
f 356/356/356 353/353/353 355/355/355
f 356/356/356 355/355/355 322/322/322
f 357/357/357 356/356/356 322/322/322
f 322/322/322 358/358/358 357/357/357
f 322/322/322 331/331/331 358/358/358
f 331/331/331 359/359/359 358/358/358
f 359/359/359 331/331/331 360/360/360
f 331/331/331 361/361/361 360/360/360
f 360/360/360 361/361/361 362/362/362
f 331/331/331 363/363/363 361/361/361
f 361/361/361 364/364/364 362/362/362
f 362/362/362 364/364/364 365/365/365
f 364/364/364 366/366/366 365/365/365
f 367/367/367 366/366/366 364/364/364
f 363/363/363 368/368/368 361/361/361
f 361/361/361 368/368/368 364/364/364
f 369/369/369 367/367/367 364/364/364
f 368/368/368 369/369/369 364/364/364
f 370/370/370 367/367/367 369/369/369
f 371/371/371 368/368/368 363/363/363
f 372/372/372 371/371/371 363/363/363
f 373/373/373 369/369/369 368/368/368
f 373/373/373 370/370/370 369/369/369
f 371/371/371 373/373/373 368/368/368
f 374/374/374 371/371/371 372/372/372
f 373/373/373 371/371/371 374/374/374
f 375/375/375 374/374/374 372/372/372
f 370/370/370 373/373/373 376/376/376
f 376/376/376 373/373/373 374/374/374
f 377/377/377 370/370/370 376/376/376
f 376/376/376 378/378/378 377/377/377
f 378/378/378 376/376/376 374/374/374
f 378/378/378 379/379/379 377/377/377
f 380/380/380 379/379/379 378/378/378
f 381/381/381 374/374/374 375/375/375
f 381/381/381 378/378/378 374/374/374
f 382/382/382 381/381/381 375/375/375
f 382/382/382 383/383/383 381/381/381
f 384/384/384 380/380/380 378/378/378
f 384/384/384 378/378/378 381/381/381
f 383/383/383 385/385/385 381/381/381
f 385/385/385 384/384/384 381/381/381
f 384/384/384 386/386/386 380/380/380
f 386/386/386 384/384/384 385/385/385
f 386/386/386 387/387/387 380/380/380
f 388/388/388 385/385/385 383/383/383
f 388/388/388 386/386/386 385/385/385
f 389/389/389 388/388/388 383/383/383
f 387/387/387 386/386/386 390/390/390
f 390/390/390 386/386/386 388/388/388
f 391/391/391 387/387/387 390/390/390
f 390/390/390 392/392/392 391/391/391
f 393/393/393 388/388/388 389/389/389
f 393/393/393 390/390/390 388/388/388
f 394/394/394 393/393/393 389/389/389
f 393/393/393 394/394/394 336/336/336
f 390/390/390 395/395/395 392/392/392
f 390/390/390 393/393/393 395/395/395
f 396/396/396 392/392/392 395/395/395
f 393/393/393 397/397/397 395/395/395
f 393/393/393 336/336/336 397/397/397
f 398/398/398 396/396/396 395/395/395
f 398/398/398 395/395/395 397/397/397
f 399/399/399 396/396/396 398/398/398
f 397/397/397 336/336/336 400/400/400
f 400/400/400 398/398/398 397/397/397
f 401/401/401 400/400/400 336/336/336
f 337/337/337 401/401/401 336/336/336
f 398/398/398 400/400/400 402/402/402
f 402/402/402 400/400/400 401/401/401
f 403/403/403 399/399/399 398/398/398
f 403/403/403 398/398/398 402/402/402
f 403/403/403 404/404/404 399/399/399
f 404/404/404 405/405/405 399/399/399
f 406/406/406 405/405/405 404/404/404
f 406/406/406 404/404/404 407/407/407
f 408/408/408 406/406/406 407/407/407
f 409/409/409 408/408/408 407/407/407
f 410/410/410 409/409/409 407/407/407
f 411/411/411 410/410/410 407/407/407
f 404/404/404 403/403/403 412/412/412
f 404/404/404 412/412/412 407/407/407
f 403/403/403 402/402/402 412/412/412
f 413/413/413 411/411/411 407/407/407
f 413/413/413 407/407/407 412/412/412
f 414/414/414 411/411/411 413/413/413
f 414/414/414 415/415/415 411/411/411
f 411/411/411 415/415/415 340/340/340
f 414/414/414 416/416/416 415/415/415
f 415/415/415 417/417/417 340/340/340
f 415/415/415 416/416/416 417/417/417
f 416/416/416 418/418/418 417/417/417
f 417/417/417 337/337/337 340/340/340
f 417/417/417 418/418/418 337/337/337
f 413/413/413 412/412/412 419/419/419
f 419/419/419 420/420/420 413/413/413
f 402/402/402 421/421/421 412/412/412
f 412/412/412 421/421/421 419/419/419
f 419/419/419 422/422/422 420/420/420
f 419/419/419 421/421/421 422/422/422
f 422/422/422 423/423/423 420/420/420
f 421/421/421 402/402/402 424/424/424
f 421/421/421 424/424/424 422/422/422
f 424/424/424 402/402/402 401/401/401
f 337/337/337 425/425/425 401/401/401
f 424/424/424 401/401/401 425/425/425
f 422/422/422 424/424/424 425/425/425
f 422/422/422 425/425/425 423/423/423
f 426/426/426 425/425/425 337/337/337
f 425/425/425 426/426/426 423/423/423
f 429/429/429 428/428/428 427/427/427
f 428/428/428 430/430/430 427/427/427
f 428/428/428 431/431/431 430/430/430
f 431/431/431 432/432/432 430/430/430
f 430/430/430 432/432/432 433/433/433
f 434/434/434 430/430/430 433/433/433
f 427/427/427 430/430/430 435/435/435
f 436/436/436 427/427/427 435/435/435
f 439/439/439 438/438/438 437/437/437
f 438/438/438 440/440/440 437/437/437
f 437/437/437 440/440/440 441/441/441
f 438/438/438 442/442/442 440/440/440
f 440/440/440 443/443/443 441/441/441
f 441/441/441 443/443/443 444/444/444
f 442/442/442 445/445/445 440/440/440
f 440/440/440 445/445/445 443/443/443
f 446/446/446 445/445/445 442/442/442
f 446/446/446 447/447/447 445/445/445
f 447/447/447 448/448/448 445/445/445
f 445/445/445 448/448/448 443/443/443
f 447/447/447 449/449/449 448/448/448
f 443/443/443 450/450/450 444/444/444
f 443/443/443 448/448/448 450/450/450
f 444/444/444 450/450/450 451/451/451
f 450/450/450 452/452/452 451/451/451
f 449/449/449 453/453/453 448/448/448
f 448/448/448 453/453/453 450/450/450
f 450/450/450 453/453/453 452/452/452
f 449/449/449 454/454/454 453/453/453
f 453/453/453 455/455/455 452/452/452
f 454/454/454 455/455/455 453/453/453
f 458/458/458 457/457/457 456/456/456
f 457/457/457 83/83/83 456/456/456
f 461/461/461 460/460/460 459/459/459
f 459/459/459 460/460/460 462/462/462
f 465/465/465 464/464/464 463/463/463
f 464/464/464 466/466/466 463/463/463
f 464/464/464 467/467/467 466/466/466
f 463/463/463 466/466/466 468/468/468
f 467/467/467 468/468/468 466/466/466
f 463/463/463 468/468/468 469/469/469
f 468/468/468 467/467/467 470/470/470
f 467/467/467 471/471/471 470/470/470
f 470/470/470 472/472/472 468/468/468
f 472/472/472 473/473/473 468/468/468
f 474/474/474 470/470/470 471/471/471
f 472/472/472 470/470/470 474/474/474
f 471/471/471 475/475/475 474/474/474
f 476/476/476 472/472/472 474/474/474
f 476/476/476 477/477/477 472/472/472
f 475/475/475 478/478/478 474/474/474
f 476/476/476 474/474/474 478/478/478
f 475/475/475 479/479/479 478/478/478
f 479/479/479 476/476/476 478/478/478
f 476/476/476 479/479/479 480/480/480
f 481/481/481 476/476/476 480/480/480
f 479/479/479 482/482/482 480/480/480
f 485/485/485 484/484/484 483/483/483
f 484/484/484 486/486/486 483/483/483
f 486/486/486 484/484/484 487/487/487
f 487/487/487 488/488/488 486/486/486
f 488/488/488 489/489/489 486/486/486
f 488/488/488 490/490/490 489/489/489
f 490/490/490 491/491/491 489/489/489
f 489/489/489 491/491/491 492/492/492
f 486/486/486 489/489/489 493/493/493
f 493/493/493 489/489/489 492/492/492
f 494/494/494 486/486/486 493/493/493
f 494/494/494 493/493/493 495/495/495
f 496/496/496 493/493/493 492/492/492
f 492/492/492 497/497/497 496/496/496
f 496/496/496 498/498/498 493/493/493
f 501/501/501 500/500/500 499/499/499
f 502/502/502 501/501/501 499/499/499
f 499/499/499 500/500/500 503/503/503
f 504/504/504 502/502/502 499/499/499
f 505/505/505 499/499/499 503/503/503
f 505/505/505 503/503/503 506/506/506
f 507/507/507 505/505/505 506/506/506
f 508/508/508 504/504/504 499/499/499
f 508/508/508 499/499/499 505/505/505
f 509/509/509 505/505/505 507/507/507
f 509/509/509 508/508/508 505/505/505
f 510/510/510 509/509/509 507/507/507
f 504/504/504 508/508/508 511/511/511
f 508/508/508 509/509/509 511/511/511
f 512/512/512 504/504/504 511/511/511
f 512/512/512 511/511/511 513/513/513
f 513/513/513 511/511/511 509/509/509
f 514/514/514 512/512/512 513/513/513
f 514/514/514 513/513/513 515/515/515
f 516/516/516 509/509/509 510/510/510
f 516/516/516 513/513/513 509/509/509
f 515/515/515 513/513/513 516/516/516
f 517/517/517 516/516/516 510/510/510
f 518/518/518 515/515/515 516/516/516
f 516/516/516 517/517/517 518/518/518
