g tb_geo_meeple_p3c1_b_mesh
v -1.1331544 1.3265147 0.47759795
v -1.3261852 1.3265138 -2.2531362
v -1.0087098 1.3265127 -2.2385907
v -1.4506298 1.3265158 0.4630525
v -1.368216 1.2922622 -1.3107252
v -2.4205742 1.3607672 -2.1112208
v -1.3338993 1.2900279 -2.0613286
v -2.454891 1.3630016 -1.3606173
v -1.4756955 1.3251835 -0.5497325
v -1.9315757 1.327845 -1.8626518
v -1.0131514 1.2839978 -1.1404521
v -2.3941197 1.3690307 -1.2719321
v -2.2840595 1.3240366 -1.8302739
v -2.5612936 1.32899 -2.1316705
v -2.2182372 1.3149469 -1.9822128
v -2.627116 1.3380797 -1.9797316
vt 0 0
vt 1 1
vt 1 0
vt 0 1
vt 0 0
vt 1 1
vt 1 0
vt 0 1
vt 0 0
vt 1 1
vt 1 0
vt 0 1
vt 0 0
vt 1 1
vt 1 0
vt 0 1
vn 3.4300353E-06 1 -6.1401596E-07
vn 3.4300353E-06 1 -6.1401596E-07
vn 3.4300353E-06 1 -6.1401596E-07
vn 3.4300353E-06 1 -6.1401596E-07
vn 0.06495961 0.9978879 -6.5821604E-07
vn 0.06495961 0.9978879 -6.5821604E-07
vn 0.06495961 0.9978879 -6.5821604E-07
vn 0.06495961 0.9978879 -6.5821604E-07
vn 0.06334026 0.99779224 -0.019970661
vn 0.06334026 0.99779224 -0.019970661
vn 0.06334026 0.99779224 -0.019970661
vn 0.06334026 0.99779224 -0.019970661
vn 0.056236833 0.9977922 -0.035329703
vn 0.056236833 0.9977922 -0.035329703
vn 0.056236833 0.9977922 -0.035329703
vn 0.056236833 0.9977922 -0.035329703
g tb_geo_meeple_p3c1_b_mesh_0
f 3/3/3 2/2/2 1/1/1
f 4/4/4 1/1/1 2/2/2
f 7/7/7 6/6/6 5/5/5
f 8/8/8 5/5/5 6/6/6
f 11/11/11 10/10/10 9/9/9
f 12/12/12 9/9/9 10/10/10
f 15/15/15 14/14/14 13/13/13
f 16/16/16 13/13/13 14/14/14
