g tb_geo_meeple_p4c2_b_mesh
v -2.91079 1.5065298 -1.8035115
v -2.1194367 1.5632491 -0.15692747
v -2.8448687 1.8227997 -0.17800844
v -2.185358 1.2469792 -1.7824305
v -3.2564409 1.6640095 -1.3722477
v -2.792157 1.596531 -0.88754034
v -3.1470315 1.7367957 -0.83433956
v -2.9015663 1.5237448 -1.4254484
v -2.578408 1.3942121 -2.1254702
v -2.1524684 1.3204595 -1.7777963
v -2.5755525 1.4066849 -1.7774152
v -2.155324 1.3079867 -2.1258512
v -2.6184602 1.4134387 -2.055692
v -2.6935039 1.4773194 -1.6480095
v -2.8541286 1.503761 -1.8156728
v -2.4578354 1.386997 -1.8880287
vt 0 0
vt 1 1
vt 1 0
vt 0 1
vt 0 0
vt 1 1
vt 1 0
vt 0 1
vt 0 0
vt 1 1
vt 1 0
vt 0 1
vt 0 0
vt 1 1
vt 1 0
vt 0 1
vn 0.3355081 0.9220533 -0.19300778
vn 0.3355081 0.9220533 -0.19300778
vn 0.3355081 0.9220533 -0.19300778
vn 0.3355081 0.9220533 -0.19300778
vn 0.3355082 0.9220533 -0.19300792
vn 0.3355082 0.9220533 -0.19300792
vn 0.3355082 0.9220533 -0.19300792
vn 0.3355082 0.9220533 -0.19300792
vn 0.19953057 0.97920305 -0.03672731
vn 0.19953057 0.97920305 -0.03672731
vn 0.19953057 0.97920305 -0.03672731
vn 0.19953057 0.97920305 -0.03672731
vn 0.26403433 0.9591378 -0.10168797
vn 0.26403433 0.9591378 -0.10168797
vn 0.26403433 0.9591378 -0.10168797
vn 0.26403433 0.9591378 -0.10168797
g tb_geo_meeple_p4c2_b_mesh_0
f 3/3/3 2/2/2 1/1/1
f 4/4/4 1/1/1 2/2/2
f 7/7/7 6/6/6 5/5/5
f 8/8/8 5/5/5 6/6/6
f 11/11/11 10/10/10 9/9/9
f 12/12/12 9/9/9 10/10/10
f 15/15/15 14/14/14 13/13/13
f 16/16/16 13/13/13 14/14/14
