g tb_geo_light_wall_04_mesh
v 0.63336444 0.3486644 -0.1597696
v 0.63336444 -0.33287668 -0.1597696
v 0.5669523 -0.33287668 -0.22835922
v 0.5669523 0.3486644 -0.22835922
v 0.5669523 0.3486644 -0.2969488
v 0.5669523 -0.33287668 -0.2969488
v 0.34594136 -0.33287668 -0.51578224
v 0.34594136 0.3486644 -0.51578224
v 0.34376392 0.3486644 -0.1597696
v 0.34376392 -0.33287668 -0.1597696
v 0.63336444 -0.33287668 -0.1597696
v 0.63336444 0.3486644 -0.1597696
v 0.30021498 0.3486644 -0.115131915
v 0.30021498 -0.33287668 -0.115131915
v 0.34376392 -0.33287668 -0.1597696
v 0.34376392 0.3486644 -0.1597696
v 0.028034031 0.3486644 -0.115131915
v 0.028034031 -0.33287668 -0.115131915
v 0.30021498 -0.33287668 -0.115131915
v 0.30021498 0.3486644 -0.115131915
v 0.34594136 0.3486644 -0.51578224
v 0.34594136 -0.33287668 -0.51578224
v 0.34594136 -0.33287668 -0.7651
v 0.34594136 0.3486644 -0.7651
v 0.34594136 0.3486644 -0.7651
v 0.34594136 -0.33287668 -0.7651
v 0.028034031 -0.33287668 -0.7651
v 0.028034031 0.3486644 -0.7651
v 0.028034031 0.3486644 -0.7651
v 0.028034031 -0.33287668 -0.7651
v 0.028034031 -0.33287668 -0.50707245
v 0.028034031 0.3486644 -0.50707245
v 0.028034031 0.3486644 -0.50707245
v 0.028034031 -0.33287668 -0.50707245
v -0.13527453 -0.33287668 -0.34049773
v -0.13527453 0.3486644 -0.34049773
v -0.13527453 0.3486644 -0.34049773
v -0.13527453 -0.33287668 -0.34049773
v -0.13527453 -0.33287668 -0.2795292
v -0.13527453 0.3486644 -0.2795292
v -0.13527453 0.3486644 -0.2795292
v -0.13527453 -0.33287668 -0.2795292
v 0.028034031 -0.33287668 -0.115131915
v 0.028034031 0.3486644 -0.115131915
v 0.5669523 0.3486644 -0.22835922
v 0.5669523 -0.33287668 -0.22835922
v 0.5669523 -0.33287668 -0.2969488
v 0.5669523 0.3486644 -0.2969488
vt -0.18209374 1.0001504
vt -0.18209374 0.0003297329
vt -0.3189113 0.0003297329
vt -0.3189113 1.0001504
vt -0.42064744 1.0001504
vt -0.42064744 0.0003297329
vt -0.876706 0.0003297329
vt -0.876706 1.0001504
vt 0.24239159 1.0001504
vt 0.24239159 0.0003297329
vt -0.18209374 0.0003297329
vt -0.18209374 1.0001504
vt 0.33360326 1.0001504
vt 0.33360326 0.0003297329
vt 0.24239159 0.0003297329
vt 0.24239159 1.0001504
vt 0.7335315 1.0001504
vt 0.7335315 0.0003297329
vt 0.33360326 0.0003297329
vt 0.33360326 1.0001504
vt -0.876706 1.0001504
vt -0.876706 0.0003297329
vt -1.2415528 0.0003297329
vt -1.2415528 1.0001504
vt 2.3472772 1.0001504
vt 2.3472772 0.0003297329
vt 1.8806942 0.0003297329
vt 1.8806942 1.0001504
vt 1.8806942 1.0001504
vt 1.8806942 0.0003297329
vt 1.5018148 0.0003297329
vt 1.5018148 1.0001504
vt 1.5018148 1.0001504
vt 1.5018148 0.0003297329
vt 1.161525 0.0003297329
vt 1.161525 1.0001504
vt 1.161525 1.0001504
vt 1.161525 0.0003297329
vt 1.0703132 0.0003297329
vt 1.0703132 1.0001504
vt 1.0703132 1.0001504
vt 1.0703132 0.0003297329
vt 0.7335315 0.0003297329
vt 0.7335315 1.0001504
vt -0.3189113 1.0001504
vt -0.3189113 0.0003297329
vt -0.42064744 0.0003297329
vt -0.42064744 1.0001504
vn -0.7141957 0.015871048 0.6997661
vn -0.7141957 0.015871048 0.6997661
vn -0.7141957 0.015871048 0.6997661
vn -0.7141957 0.015871048 0.6997661
vn -0.7141957 0.015871048 0.6997661
vn -0.7141957 0.015871048 0.6997661
vn -0.7141957 0.015871048 0.6997661
vn -0.7141957 0.015871048 0.6997661
vn -0.015871048 0.015871048 -0.99974805
vn -0.015871048 0.015871048 -0.99974805
vn -0.015871048 0.015871048 -0.99974805
vn -0.015871048 0.015871048 -0.99974805
vn -0.7141957 0.015871048 -0.6997661
vn -0.7141957 0.015871048 -0.6997661
vn -0.7141957 0.015871048 -0.6997661
vn -0.7141957 0.015871048 -0.6997661
vn -0.015871048 0.015871048 -0.99974805
vn -0.015871048 0.015871048 -0.99974805
vn -0.015871048 0.015871048 -0.99974805
vn -0.015871048 0.015871048 -0.99974805
vn -0.999874 0.015871048 -0.00034391563
vn -0.999874 0.015871048 -0.00034391563
vn -0.999874 0.015871048 -0.00034391563
vn -0.999874 0.015871048 -0.00034391563
vn -0.015871048 0.015871048 0.99974805
vn -0.015871048 0.015871048 0.99974805
vn -0.015871048 0.015871048 0.99974805
vn -0.015871048 0.015871048 0.99974805
vn 0.999874 0.015871048 -0.00034391563
vn 0.999874 0.015871048 -0.00034391563
vn 0.999874 0.015871048 -0.00034391563
vn 0.999874 0.015871048 -0.00034391563
vn 0.7141957 0.015871048 0.6997661
vn 0.7141957 0.015871048 0.6997661
vn 0.7141957 0.015871048 0.6997661
vn 0.7141957 0.015871048 0.6997661
vn 0.999874 0.015871048 -0.00034391563
vn 0.999874 0.015871048 -0.00034391563
vn 0.999874 0.015871048 -0.00034391563
vn 0.999874 0.015871048 -0.00034391563
vn 0.7141957 0.015871048 -0.6997661
vn 0.7141957 0.015871048 -0.6997661
vn 0.7141957 0.015871048 -0.6997661
vn 0.7141957 0.015871048 -0.6997661
vn -0.999874 0.015871048 -0.00034391563
vn -0.999874 0.015871048 -0.00034391563
vn -0.999874 0.015871048 -0.00034391563
vn -0.999874 0.015871048 -0.00034391563
g tb_geo_light_wall_04_mesh_0
f 3/3/3 2/2/2 1/1/1
f 4/4/4 3/3/3 1/1/1
f 7/7/7 6/6/6 5/5/5
f 8/8/8 7/7/7 5/5/5
f 11/11/11 10/10/10 9/9/9
f 12/12/12 11/11/11 9/9/9
f 15/15/15 14/14/14 13/13/13
f 16/16/16 15/15/15 13/13/13
f 19/19/19 18/18/18 17/17/17
f 20/20/20 19/19/19 17/17/17
f 23/23/23 22/22/22 21/21/21
f 24/24/24 23/23/23 21/21/21
f 27/27/27 26/26/26 25/25/25
f 28/28/28 27/27/27 25/25/25
f 31/31/31 30/30/30 29/29/29
f 32/32/32 31/31/31 29/29/29
f 35/35/35 34/34/34 33/33/33
f 36/36/36 35/35/35 33/33/33
f 39/39/39 38/38/38 37/37/37
f 40/40/40 39/39/39 37/37/37
f 43/43/43 42/42/42 41/41/41
f 44/44/44 43/43/43 41/41/41
f 47/47/47 46/46/46 45/45/45
f 48/48/48 47/47/47 45/45/45
