g tb_geo_light_outline_04_mesh
v 0.584324 0.043228507 -0.21080476
v 0.5672546 0.043228507 -0.22787416
v 0.57227504 0.044232607 -0.22988236
v 0.5873363 0.043228507 -0.213817
v 0.6044057 0.041220367 -0.1967476
v 0.5913526 0.043228507 -0.21783334
v 0.5772954 0.044232607 -0.2318905
v 0.5913526 0.006077409 -0.21783334
v 0.5772954 0.0070815086 -0.2318905
v 0.60741794 0.005073309 -0.20076394
v 0.60741794 0.041220367 -0.20076394
v 0.6254915 0.0030651689 -0.18269038
v 0.6254915 0.039212167 -0.18269038
v 0.64055276 0.002061069 -0.16662508
v 0.60038936 0.041220367 -0.1937353
v 0.584324 0.006077409 -0.21080476
v 0.60038936 0.005073309 -0.1937353
v 0.6174588 0.039212167 -0.1756618
v 0.6174588 0.0030651689 -0.1756618
v 0.64055276 0.039212167 -0.16662508
v 0.65661806 0.002061069 -0.14955562
v 0.65661806 0.038208067 -0.14955562
v 0.6214751 0.039212167 -0.17967814
v 0.63653636 0.039212167 -0.16361278
v 0.6335241 0.039212167 -0.15959644
v 0.6335241 0.002061069 -0.15959644
v 0.64456904 0.038208067 -0.15457606
v 0.6114343 0.039212167 -0.15457606
v 0.6114343 0.039212167 -0.15959644
v 0.6335241 0.002061069 -0.15959644
v 0.6114343 0.0030651689 -0.15959644
v 0.5762913 0.040216267 -0.15959644
v 0.5762913 0.004069209 -0.15959644
v 0.5762913 0.040216267 -0.15457606
v 0.6114343 0.039212167 -0.14955562
v 0.5351239 0.041220367 -0.15959644
v 0.5351239 0.005073309 -0.15959644
v 0.6114343 0.0030651689 -0.14955562
v 0.65661806 0.002061069 -0.14955562
v 0.5762913 0.004069209 -0.14955562
v 0.5762913 0.040216267 -0.14955562
v 0.5351239 0.005073309 -0.14955562
v 0.5351239 0.041220367 -0.15457606
v 0.5351239 0.041220367 -0.14955562
v 0.4788952 0.002061069 -0.14955562
v 0.4788952 0.039212167 -0.14955562
v 0.41865015 0.0010569692 -0.14955562
v 0.4788952 0.039212167 -0.15959644
v 0.4788952 0.0030651689 -0.15959644
v 0.4788952 0.039212167 -0.15457606
v 0.41865015 0.037204027 -0.15457606
v 0.41865015 0.037204027 -0.14955562
v 0.38049495 0.0030651689 -0.14955562
v 0.41865015 0.037204027 -0.15959644
v 0.41865015 5.286932E-05 -0.15959644
v 0.38049495 0.039212167 -0.14955562
v 0.3473602 0.005073309 -0.14955562
v 0.3473602 0.042224407 -0.14955562
v 0.34535202 0.041220367 -0.15457606
v 0.38049495 0.038208067 -0.15959644
v 0.38049495 0.002061069 -0.15959644
v 0.38049495 0.039212167 -0.15457606
v 0.34334385 0.041220367 -0.15959644
v 0.34334385 0.005073309 -0.15959644
v 0.32024992 0.045236707 -0.13549846
v 0.34334385 0.005073309 -0.15959644
v 0.32024992 0.008085549 -0.13549846
v 0.30016825 0.048248947 -0.115416765
v 0.30217642 0.048248947 -0.110396326
v 0.30016825 0.011097848 -0.115416765
v 0.32326216 0.045236707 -0.13248622
v 0.3272785 0.045236707 -0.12846988
v 0.3272785 0.008085549 -0.12846988
v 0.3473602 0.005073309 -0.14955562
v 0.30418456 0.012101889 -0.105375946
v 0.30418456 0.048248947 -0.105375946
v 0.27807838 0.049253047 -0.115416765
v 0.30016825 0.011097848 -0.115416765
v 0.27807838 0.0131059885 -0.115416765
v 0.24795586 0.050257087 -0.115416765
v 0.24795586 0.014110088 -0.115416765
v 0.19273126 0.050257087 -0.115416765
v 0.19273126 0.0131059885 -0.115416765
v 0.24795586 0.050257087 -0.110396326
v 0.27807838 0.049253047 -0.110396326
v 0.27807838 0.049253047 -0.105375946
v 0.27807838 0.0131059885 -0.105375946
v 0.30418456 0.012101889 -0.105375946
v 0.24795586 0.014110088 -0.105375946
v 0.24795586 0.050257087 -0.105375946
v 0.19273126 0.0131059885 -0.105375946
v 0.19273126 0.050257087 -0.105375946
v 0.12947392 0.0131059885 -0.105375946
v 0.19273126 0.050257087 -0.110396326
v 0.12947392 0.049253047 -0.105375946
v 0.09031469 0.0131059885 -0.105375946
v 0.12947392 0.049253047 -0.110396326
v 0.09031469 0.049253047 -0.105375946
v 0.05215949 0.0131059885 -0.105375946
v 0.12947392 0.049253047 -0.115416765
v 0.12947392 0.0131059885 -0.115416765
v 0.09031469 0.049253047 -0.110396326
v 0.09031469 0.049253047 -0.115416765
v 0.09031469 0.0131059885 -0.115416765
v 0.05215949 0.049253047 -0.105375946
v 0.02404511 0.0131059885 -0.105375946
v 0.02404511 0.049253047 -0.105375946
v 0.05215949 0.049253047 -0.110396326
v 0.05215949 0.049253047 -0.115416765
v 0.05215949 0.0131059885 -0.115416765
v 0.02605331 0.049253047 -0.110396326
v 0.02806145 0.049253047 -0.115416765
v 0.02806145 0.0131059885 -0.115416765
v 0.01199609 0.049253047 -0.124453545
v 0.01500839 0.049253047 -0.12846988
v -0.019130468 0.049253047 -0.1555801
v 0.02806145 0.0131059885 -0.115416765
v 0.01500839 0.0131059885 -0.12846988
v -0.015114188 0.049253047 -0.1585924
v -0.015114188 0.012101889 -0.1585924
v -0.047244847 0.048248947 -0.19072306
v -0.047244847 0.011097848 -0.19072306
v 0.007979751 0.049253047 -0.121441245
v -0.079375565 0.048248947 -0.22285378
v -0.079375565 0.011097848 -0.22285378
v 0.007979751 0.0131059885 -0.121441245
v 0.02404511 0.0131059885 -0.105375946
v -0.022142768 0.0131059885 -0.15156382
v -0.022142768 0.049253047 -0.15156382
v -0.054273427 0.012101889 -0.18369448
v -0.054273427 0.048248947 -0.18369448
v -0.086404145 0.012101889 -0.2158252
v -0.051261187 0.048248947 -0.18771082
v -0.106485784 0.048248947 -0.24996406
v -0.106485784 0.012101889 -0.24996406
v -0.083391845 0.048248947 -0.21984148
v -0.086404145 0.048248947 -0.2158252
v -0.11351442 0.011097848 -0.24293542
v -0.10949808 0.048248947 -0.24594772
v -0.11351442 0.048248947 -0.24293542
v -0.14564508 0.012101889 -0.27506614
v -0.14564508 0.048248947 -0.27506614
v -0.13560426 0.048248947 -0.27908248
v -0.13560426 0.012101889 -0.27908248
v -0.14062464 0.048248947 -0.2770743
v -0.13560426 0.049253047 -0.29916415
v -0.13560426 0.012101889 -0.27908248
v -0.13560426 0.0131059885 -0.29916415
v -0.13560426 0.050257087 -0.32225809
v -0.13560426 0.0131059885 -0.32225809
v -0.14062464 0.049253047 -0.29916415
v -0.14564508 0.049253047 -0.29916415
v -0.13560426 0.048248947 -0.34033158
v -0.13560426 0.012101889 -0.34033158
v -0.14062464 0.048248947 -0.34233975
v -0.14062464 0.049253047 -0.32225809
v -0.14564508 0.047244847 -0.34434792
v -0.14564508 0.049253047 -0.32225809
v -0.14564508 0.010093749 -0.34434792
v -0.14564508 0.012101889 -0.32225809
v -0.14564508 0.0131059885 -0.29916415
v -0.14564508 0.012101889 -0.27506614
v 0.5672546 0.0070815086 -0.22787416
v 0.5672546 0.043228507 -0.22787416
v 0.584324 0.043228507 -0.21080476
v 0.5672546 0.010093749 -0.25398034
v 0.5672546 0.043228507 -0.22787416
v 0.5672546 0.0070815086 -0.22787416
v 0.5672546 0.047244847 -0.25398034
v 0.5672546 0.021138668 -0.28109065
v 0.57227504 0.044232607 -0.22988236
v 0.5672546 0.057285666 -0.28109065
v 0.57227504 0.058289766 -0.28109065
v 0.5672546 0.027163148 -0.2961519
v 0.5672546 0.063310206 -0.2961519
v 0.57227504 0.048248947 -0.25398034
v 0.5772954 0.049253047 -0.25398034
v 0.5772954 0.044232607 -0.2318905
v 0.5772954 0.0070815086 -0.2318905
v 0.5772954 0.012101889 -0.25398034
v 0.5772954 0.059293866 -0.28109065
v 0.5772954 0.023146808 -0.28109065
v 0.5772954 0.067326546 -0.30117232
v 0.5772954 0.031179488 -0.30117232
v 0.57227504 0.065318346 -0.29816008
v 0.560226 0.069334686 -0.31824175
v 0.5772954 0.031179488 -0.30117232
v 0.560226 0.033187687 -0.31824175
v 0.54416066 0.067326546 -0.333303
v 0.54416066 0.030175447 -0.333303
v 0.52709126 0.064314306 -0.35137653
v 0.52709126 0.028167248 -0.35137653
v 0.5090177 0.065318346 -0.36844596
v 0.5090177 0.028167248 -0.36844596
v 0.52307487 0.063310206 -0.3473602
v 0.5411484 0.065318346 -0.33029076
v 0.5562097 0.067326546 -0.3142254
v 0.5531974 0.066322446 -0.31121317
v 0.5531974 0.029171348 -0.31121317
v 0.5672546 0.027163148 -0.2961519
v 0.5371321 0.027163148 -0.32627442
v 0.5371321 0.063310206 -0.32627442
v 0.5200627 0.025155008 -0.34334385
v 0.5200627 0.061302006 -0.34334385
v 0.5019891 0.026159108 -0.36141735
v 0.5050014 0.063310206 -0.3654337
v 0.5019891 0.062306106 -0.36141735
v 0.48793197 0.025155008 -0.37547454
v 0.48793197 0.061302006 -0.37547454
v 0.4718666 0.019130468 -0.39153987
v 0.49194828 0.061302006 -0.37848678
v 0.4718666 0.055277526 -0.39153987
v 0.4537931 0.015114188 -0.4086093
v 0.47487885 0.056281626 -0.3955562
v 0.4537931 0.051261187 -0.4086093
v 0.43672368 0.012101889 -0.42567873
v 0.49496055 0.061302006 -0.38250312
v 0.49496055 0.025155008 -0.38250312
v 0.4788952 0.056281626 -0.39856848
v 0.4788952 0.020134568 -0.39856848
v 0.43672368 0.048248947 -0.42567873
v 0.41965425 0.011097848 -0.44274816
v 0.45780942 0.052265286 -0.41262564
v 0.4608217 0.052265286 -0.4156379
v 0.4608217 0.016118228 -0.4156379
v 0.44074 0.049253047 -0.42969507
v 0.44375226 0.049253047 -0.43270734
v 0.44375226 0.0131059885 -0.43270734
v 0.41965425 0.047244847 -0.44274816
v 0.40258482 0.009089649 -0.4598176
v 0.42367056 0.047244847 -0.4467645
v 0.42668283 0.047244847 -0.44977677
v 0.42668283 0.011097848 -0.44977677
v 0.40258482 0.045236707 -0.4598176
v 0.38651946 0.006077409 -0.47487885
v 0.40660113 0.045236707 -0.46282986
v 0.3905358 0.043228507 -0.4788952
v 0.4096134 0.045236707 -0.4668462
v 0.4096134 0.009089649 -0.4668462
v 0.38651946 0.043228507 -0.47487885
v 0.3664378 0.006077409 -0.49596462
v 0.39455214 0.043228507 -0.48190746
v 0.39455214 0.006077409 -0.48190746
v 0.3664378 0.043228507 -0.49596462
v 0.3463561 0.008085549 -0.5160463
v 0.3463561 0.044232607 -0.5160463
v 0.37346637 0.042224407 -0.5029932
v 0.37346637 0.006077409 -0.5029932
v 0.36945003 0.042224407 -0.49998096
v 0.35137653 0.044232607 -0.5180545
v 0.35137653 0.044232607 -0.5471729
v 0.35639694 0.043228507 -0.5200627
v 0.35639694 0.0070815086 -0.5200627
v 0.35639694 0.044232607 -0.5471729
v 0.35639694 0.0070815086 -0.5200627
v 0.35639694 0.008085549 -0.5471729
v 0.35639694 0.044232607 -0.5752873
v 0.35639694 0.008085549 -0.5752873
v 0.35639694 0.045236707 -0.6034016
v 0.35639694 0.009089649 -0.6034016
v 0.35137653 0.045236707 -0.5752873
v 0.35639694 0.047244847 -0.631516
v 0.35639694 0.011097848 -0.631516
v 0.35137653 0.046240747 -0.6034016
v 0.3463561 0.045236707 -0.5752873
v 0.35639694 0.047244847 -0.6596303
v 0.35639694 0.010093749 -0.6596303
v 0.3463561 0.044232607 -0.5471729
v 0.3463561 0.008085549 -0.5471729
v 0.3463561 0.008085549 -0.5160463
v 0.3463561 0.008085549 -0.5752873
v 0.3463561 0.010093749 -0.6034016
v 0.3463561 0.046240747 -0.6034016
v 0.3463561 0.012101889 -0.631516
v 0.3463561 0.048248947 -0.631516
v 0.3463561 0.012101889 -0.6596303
v 0.35639694 0.044232607 -0.6877447
v 0.35639694 0.0070815086 -0.6877447
v 0.35137653 0.048248947 -0.631516
v 0.3463561 0.048248947 -0.6596303
v 0.3463561 0.008085549 -0.6877447
v 0.35137653 0.047244847 -0.6596303
v 0.35137653 0.044232607 -0.6877447
v 0.3463561 0.044232607 -0.6877447
v 0.3463561 0.008085549 -0.71585906
v 0.35639694 0.044232607 -0.71585906
v 0.35639694 0.008085549 -0.71585906
v 0.35137653 0.044232607 -0.71585906
v 0.3463561 0.045236707 -0.71585906
v 0.3463561 0.008085549 -0.7439734
v 0.35639694 0.043228507 -0.7439734
v 0.35639694 0.0070815086 -0.7439734
v 0.3463561 0.044232607 -0.7439734
v 0.3463561 0.006077409 -0.7650592
v 0.3463561 0.042224407 -0.7650592
v 0.35137653 0.044232607 -0.7439734
v 0.35639694 0.041220367 -0.7751
v 0.35639694 0.005073309 -0.7751
v 0.35137653 0.041220367 -0.77007955
v 0.33129483 0.045236707 -0.7751
v 0.35639694 0.005073309 -0.7751
v 0.3282826 0.012101889 -0.7751
v 0.33129483 0.045236707 -0.77007955
v 0.31221724 0.090420485 -0.7751
v 0.3031805 0.071342885 -0.7751
v 0.30117232 0.14664918 -0.7751
v 0.29213557 0.12656748 -0.7751
v 0.31221724 0.089416385 -0.77007955
v 0.33129483 0.044232607 -0.7650592
v 0.3282826 0.008085549 -0.7650592
v 0.3463561 0.006077409 -0.7650592
v 0.3031805 0.058289766 -0.7650592
v 0.31221724 0.088412285 -0.7650592
v 0.29213557 0.108493984 -0.7650592
v 0.30117232 0.14263284 -0.77007955
v 0.2901274 0.1948452 -0.77007955
v 0.2901274 0.1968534 -0.7751
v 0.28209472 0.16572678 -0.7751
v 0.30117232 0.1396206 -0.7650592
v 0.28209472 0.15970224 -0.7650592
v 0.26000488 0.25207794 -0.7751
v 0.2509681 0.2149269 -0.7751
v 0.2901274 0.1948452 -0.7650592
v 0.2509681 0.215931 -0.7650592
v 0.26000488 0.25207794 -0.7650592
v 0.20779252 0.215931 -0.7650592
v 0.26000488 0.25207794 -0.77007955
v 0.1947394 0.25006986 -0.7751
v 0.20779252 0.2139228 -0.7751
v 0.1947394 0.25207794 -0.7650592
v 0.14353114 0.16070634 -0.7650592
v 0.1947394 0.25107396 -0.77007955
v 0.13549846 0.1968534 -0.7751
v 0.14353114 0.16070634 -0.7751
v 0.13549846 0.19785744 -0.7650592
v 0.102363646 0.16070634 -0.7650592
v 0.13549846 0.1968534 -0.77007955
v 0.102363646 0.1968534 -0.7751
v 0.102363646 0.16070634 -0.7751
v 0.102363646 0.1968534 -0.7650592
v 0.05717987 0.16070634 -0.7650592
v 0.102363646 0.1968534 -0.77007955
v 0.05717987 0.1968534 -0.7751
v 0.05717987 0.16070634 -0.7751
v 0.05717987 0.1968534 -0.7650592
v 0.02806145 0.16070634 -0.7650592
v 0.02806145 0.1968534 -0.7650592
v 0.05717987 0.1968534 -0.77007955
v 0.01802063 0.1968534 -0.7751
v 0.01802063 0.16070634 -0.7751
v 0.02304101 0.1968534 -0.77007955
v 0.02304101 0.19785744 -0.75100195
v 0.01802063 0.19785744 -0.75100195
v 0.02304101 0.20187378 -0.7299162
v 0.01802063 0.16070634 -0.7751
v 0.01802063 0.16171044 -0.75100195
v 0.01802063 0.20187378 -0.7299162
v 0.01802063 0.16572678 -0.7299162
v 0.01802063 0.20689422 -0.7108386
v 0.01802063 0.17074716 -0.7108386
v 0.02806145 0.19785744 -0.75100195
v 0.01802063 0.1968534 -0.69577736
v 0.01802063 0.16070634 -0.69577736
v 0.02806145 0.16171044 -0.75100195
v 0.02806145 0.16070634 -0.7650592
v 0.02806145 0.16371858 -0.7299162
v 0.02806145 0.20086968 -0.7299162
v 0.02806145 0.16873902 -0.7108386
v 0.02806145 0.20488602 -0.7108386
v 0.02806145 0.16070634 -0.69577736
v 0.02304101 0.20589012 -0.7108386
v 0.02806145 0.19785744 -0.69577736
v 0.02806145 0.15669 -0.68272424
v 0.01802063 0.19082886 -0.67569566
v 0.01802063 0.15669 -0.68272424
v 0.02304101 0.1968534 -0.69577736
v 0.02806145 0.19082886 -0.67569566
v 0.02806145 0.15468186 -0.6696712
v 0.01802063 0.18882072 -0.6626426
v 0.01802063 0.15468186 -0.6696712
v 0.02304101 0.19082886 -0.67569566
v 0.02806145 0.18882072 -0.6626426
v 0.02806145 0.15468186 -0.6606344
v 0.01802063 0.18480438 -0.64055276
v 0.01802063 0.15367776 -0.6606344
v 0.02304101 0.18882072 -0.6626426
v 0.02806145 0.18480438 -0.64055276
v 0.02806145 0.15166956 -0.6536058
v 0.02806145 0.17275536 -0.6295078
v 0.02806145 0.14765328 -0.6526017
v 0.02806145 0.14162874 -0.62749964
v 0.02806145 0.1396206 -0.6696712
v 0.02806145 0.12957972 -0.64858544
v 0.02806145 0.12957972 -0.667663
v 0.02806145 0.120543 -0.63954866
v 0.02806145 0.080379605 -0.66665894
v 0.02304101 0.18480438 -0.64055276
v 0.02806145 0.17275536 -0.6295078
v 0.02304101 0.17275536 -0.62749964
v 0.02806145 0.14162874 -0.62749964
v 0.02806145 0.107489884 -0.63954866
v 0.02806145 0.046240747 -0.64758134
v 0.02806145 0.072346926 -0.6415568
v 0.02806145 0.033187687 -0.61946696
v 0.02806145 0.069334686 -0.61946696
v 0.02806145 0.023146808 -0.60139346
v 0.02304101 0.14162874 -0.6254915
v 0.02806145 0.12957972 -0.64858544
v 0.02304101 0.12957972 -0.64456904
v 0.02304101 0.12255114 -0.6335241
v 0.02806145 0.107489884 -0.63954866
v 0.02304101 0.10949808 -0.6325201
v 0.02806145 0.072346926 -0.6415568
v 0.02304101 0.080379605 -0.6305119
v 0.02304101 0.071342885 -0.61946696
v 0.02806145 0.060297966 -0.60139346
v 0.02806145 0.022142768 -0.58834034
v 0.02806145 0.059293866 -0.58834034
v 0.02806145 0.019130468 -0.5742832
v 0.02806145 0.055277526 -0.5742832
v 0.02806145 0.008085549 -0.5552056
v 0.02304101 0.059293866 -0.58834034
v 0.02806145 0.044232607 -0.5552056
v 0.02806145 0.006077409 -0.54315656
v 0.02304101 0.062306106 -0.60139346
v 0.02304101 0.054273427 -0.5742832
v 0.02806145 0.042224407 -0.54315656
v 0.02806145 0.005073309 -0.52709126
v 0.02304101 0.045236707 -0.5552056
v 0.02806145 0.041220367 -0.52709126
v 0.02806145 0.006077409 -0.5070095
v 0.02806145 0.042224407 -0.5070095
v 0.02304101 0.042224407 -0.5090177
v 0.02304101 0.041220367 -0.52709126
v 0.02304101 0.043228507 -0.54315656
v 0.01802063 0.043228507 -0.54315656
v 0.01802063 0.045236707 -0.5552056
v 0.01802063 0.053269327 -0.5742832
v 0.01802063 0.041220367 -0.52709126
v 0.01802063 0.059293866 -0.58834034
v 0.01802063 0.064314306 -0.60139346
v 0.01802063 0.074355125 -0.61946696
v 0.02304101 0.080379605 -0.6305119
v 0.01802063 0.082387805 -0.631516
v 0.02304101 0.10949808 -0.6325201
v 0.01802063 0.10949808 -0.6305119
v 0.01802063 0.12255114 -0.631516
v 0.01802063 0.13058382 -0.6425609
v 0.02304101 0.12957972 -0.64456904
v 0.02304101 0.14162874 -0.6254915
v 0.01802063 0.14263284 -0.6254915
v 0.01802063 0.17175126 -0.62749964
v 0.01802063 0.15066552 -0.6505936
v 0.01802063 0.14263284 -0.6254915
v 0.01802063 0.14564508 -0.6515977
v 0.01802063 0.13058382 -0.6425609
v 0.01802063 0.14062464 -0.66465074
v 0.01802063 0.12656748 -0.66364664
v 0.01802063 0.10949808 -0.6305119
v 0.01802063 0.080379605 -0.6626426
v 0.01802063 0.082387805 -0.631516
v 0.01802063 0.047244847 -0.64557314
v 0.01802063 0.037204027 -0.61946696
v 0.01802063 0.028167248 -0.60139346
v 0.01802063 0.023146808 -0.58834034
v 0.01802063 0.017122328 -0.5742832
v 0.01802063 0.009089649 -0.5552056
v 0.01802063 0.0070815086 -0.54315656
v 0.01802063 0.004069209 -0.52709126
v 0.01802063 0.042224407 -0.51203
v 0.01802063 0.005073309 -0.51203
v 0.0059716105 0.042224407 -0.4989769
v 0.01802063 0.005073309 -0.51203
v 0.0059716105 0.006077409 -0.4989769
v -0.011097848 0.043228507 -0.48190746
v -0.011097848 0.0070815086 -0.48190746
v 0.0089838505 0.043228507 -0.49596462
v 0.01300019 0.043228507 -0.49194828
v 0.01300019 0.0070815086 -0.49194828
v 0.02806145 0.006077409 -0.5070095
v -0.004069209 0.008085549 -0.47487885
v -0.0070815086 0.044232607 -0.4788952
v -0.025155008 0.044232607 -0.4608217
v -0.028167248 0.044232607 -0.46483803
v -0.028167248 0.008085549 -0.46483803
v -0.004069209 0.044232607 -0.47487885
v -0.021138668 0.008085549 -0.45780942
v -0.048248947 0.044232607 -0.44375226
v -0.048248947 0.008085549 -0.44375226
v -0.021138668 0.045236707 -0.45780942
v -0.041220367 0.008085549 -0.43672368
v -0.041220367 0.045236707 -0.43672368
v -0.060297966 0.008085549 -0.41764608
v -0.045236707 0.044232607 -0.43973592
v -0.067326546 0.043228507 -0.42467466
v -0.067326546 0.0070815086 -0.42467466
v -0.060297966 0.044232607 -0.41764608
v -0.074355125 0.0070815086 -0.4035889
v -0.063310206 0.044232607 -0.42166242
v -0.081383705 0.043228507 -0.41061747
v -0.081383705 0.0070815086 -0.41061747
v -0.074355125 0.044232607 -0.4035889
v -0.090420485 0.008085549 -0.38651946
v -0.077367365 0.043228507 -0.40660113
v -0.098453164 0.044232607 -0.39354804
v -0.098453164 0.0070815086 -0.39354804
v -0.090420485 0.045236707 -0.38651946
v -0.107489884 0.010093749 -0.36945003
v -0.094436824 0.044232607 -0.3895317
v -0.11451846 0.045236707 -0.3764786
v -0.11451846 0.009089649 -0.3764786
v -0.107489884 0.046240747 -0.36945003
v -0.12355524 0.012101889 -0.3523806
v -0.110502124 0.046240747 -0.37246227
v -0.13058382 0.047244847 -0.35940918
v -0.13058382 0.010093749 -0.35940918
v -0.12355524 0.048248947 -0.3523806
v -0.13560426 0.012101889 -0.34033158
v -0.13560426 0.048248947 -0.34033158
v -0.12757158 0.047244847 -0.35639694
v -0.14062464 0.048248947 -0.34233975
v -0.14564508 0.047244847 -0.34434792
v -0.14564508 0.010093749 -0.34434792
vt 0.70031357 0.6356331
vt 0.6938455 0.64641315
vt 0.6960015 0.64856917
vt 0.70031357 0.6377891
vt 0.7067816 0.62700903
vt 0.7024696 0.6399451
vt 0.69815755 0.6507252
vt 0.7024696 0.6399451
vt 0.69815755 0.6507252
vt 0.70893764 0.62916505
vt 0.70893764 0.62916505
vt 0.7132497 0.61838496
vt 0.7132497 0.61838496
vt 0.71971774 0.60760486
vt 0.7046256 0.624853
vt 0.70031357 0.6356331
vt 0.7046256 0.624853
vt 0.71109366 0.6140729
vt 0.71109366 0.6140729
vt 0.71971774 0.60760486
vt 0.7240298 0.59682477
vt 0.7240298 0.59682477
vt 0.7132497 0.61622894
vt 0.7175617 0.60544884
vt 0.7175617 0.6032928
vt 0.7175617 0.6032928
vt 0.72187376 0.5989808
vt 0.70893764 0.5989808
vt 0.70893764 0.6032928
vt 0.7175617 0.6032928
vt 0.70893764 0.6032928
vt 0.69815755 0.6032928
vt 0.69815755 0.6032928
vt 0.69815755 0.5989808
vt 0.70893764 0.59682477
vt 0.6830654 0.6032928
vt 0.6830654 0.6032928
vt 0.70893764 0.59682477
vt 0.7240298 0.59682477
vt 0.69815755 0.59682477
vt 0.69815755 0.59682477
vt 0.6830654 0.59682477
vt 0.6830654 0.5989808
vt 0.6830654 0.59682477
vt 0.6636613 0.59682477
vt 0.6636613 0.59682477
vt 0.6442571 0.59682477
vt 0.6636613 0.6032928
vt 0.6636613 0.6032928
vt 0.6636613 0.5989808
vt 0.6442571 0.5989808
vt 0.6442571 0.59682477
vt 0.6313211 0.59682477
vt 0.6442571 0.6032928
vt 0.6442571 0.6032928
vt 0.6313211 0.59682477
vt 0.61838496 0.59682477
vt 0.61838496 0.59682477
vt 0.61838496 0.5989808
vt 0.6313211 0.6032928
vt 0.6313211 0.6032928
vt 0.6313211 0.5989808
vt 0.61838496 0.6032928
vt 0.61838496 0.6032928
vt 0.6097609 0.5882007
vt 0.61838496 0.6032928
vt 0.6097609 0.5882007
vt 0.6032928 0.5752646
vt 0.6032928 0.5709526
vt 0.6032928 0.5752646
vt 0.6097609 0.58604467
vt 0.6119169 0.58388865
vt 0.6119169 0.58388865
vt 0.61838496 0.59682477
vt 0.6032928 0.5687966
vt 0.6032928 0.5687966
vt 0.59466875 0.5752646
vt 0.6032928 0.5752646
vt 0.59466875 0.5752646
vt 0.58388865 0.5752646
vt 0.58388865 0.5752646
vt 0.56664056 0.5752646
vt 0.56664056 0.5752646
vt 0.58388865 0.5709526
vt 0.59466875 0.5709526
vt 0.59466875 0.5687966
vt 0.59466875 0.5687966
vt 0.6032928 0.5687966
vt 0.58388865 0.5687966
vt 0.58388865 0.5687966
vt 0.56664056 0.5687966
vt 0.56664056 0.5687966
vt 0.54508036 0.5687966
vt 0.56664056 0.5709526
vt 0.54508036 0.5687966
vt 0.5299883 0.5687966
vt 0.54508036 0.5709526
vt 0.5299883 0.5687966
vt 0.5170522 0.5687966
vt 0.54508036 0.5752646
vt 0.54508036 0.5752646
vt 0.5299883 0.5709526
vt 0.5299883 0.5752646
vt 0.5299883 0.5752646
vt 0.5170522 0.5687966
vt 0.5084281 0.5687966
vt 0.5084281 0.5687966
vt 0.5170522 0.5709526
vt 0.5170522 0.5752646
vt 0.5170522 0.5752646
vt 0.5084281 0.5709526
vt 0.5105841 0.5752646
vt 0.5105841 0.5752646
vt 0.50411606 0.5795766
vt 0.5062721 0.58173263
vt 0.49333596 0.6011368
vt 0.5105841 0.5752646
vt 0.5062721 0.58173263
vt 0.49549198 0.6032928
vt 0.49549198 0.6032928
vt 0.48471192 0.622697
vt 0.48471192 0.622697
vt 0.50196004 0.5774206
vt 0.4717758 0.6442571
vt 0.4717758 0.6442571
vt 0.50196004 0.5774206
vt 0.5084281 0.5687966
vt 0.49333596 0.59682477
vt 0.49333596 0.59682477
vt 0.48039988 0.61838496
vt 0.48039988 0.61838496
vt 0.46961978 0.6399451
vt 0.4825559 0.620541
vt 0.46315175 0.6615053
vt 0.46315175 0.6615053
vt 0.4717758 0.6421011
vt 0.46961978 0.6399451
vt 0.46099573 0.65719324
vt 0.46315175 0.65934926
vt 0.46099573 0.65719324
vt 0.45021564 0.67659736
vt 0.45021564 0.67659736
vt 0.45452768 0.6809094
vt 0.45452768 0.6809094
vt 0.45237166 0.6787534
vt 0.45452768 0.6938455
vt 0.45452768 0.6809094
vt 0.45452768 0.6938455
vt 0.45452768 0.7067816
vt 0.45452768 0.7067816
vt 0.45237166 0.6938455
vt 0.45021564 0.6938455
vt 0.45452768 0.71971774
vt 0.45452768 0.71971774
vt 0.45237166 0.72187376
vt 0.45237166 0.7067816
vt 0.45021564 0.72187376
vt 0.45021564 0.7067816
vt 0.45021564 0.72187376
vt 0.45021564 0.7067816
vt 0.45021564 0.6938455
vt 0.45021564 0.67659736
vt 0.6938455 0.64641315
vt 0.6938455 0.64641315
vt 0.70031357 0.6356331
vt 0.6938455 0.6636613
vt 0.6938455 0.64641315
vt 0.6938455 0.64641315
vt 0.6938455 0.6636613
vt 0.6938455 0.6809094
vt 0.6960015 0.64856917
vt 0.6938455 0.6809094
vt 0.6960015 0.6809094
vt 0.6938455 0.6916895
vt 0.6938455 0.6916895
vt 0.6960015 0.6636613
vt 0.69815755 0.6636613
vt 0.69815755 0.6507252
vt 0.69815755 0.6507252
vt 0.69815755 0.6636613
vt 0.69815755 0.6809094
vt 0.69815755 0.6809094
vt 0.69815755 0.6938455
vt 0.69815755 0.6938455
vt 0.6960015 0.6916895
vt 0.6916895 0.7046256
vt 0.69815755 0.6938455
vt 0.6916895 0.7046256
vt 0.68737745 0.7154057
vt 0.68737745 0.7154057
vt 0.6809094 0.7261858
vt 0.6809094 0.7261858
vt 0.6744414 0.7369659
vt 0.6744414 0.7369659
vt 0.6787534 0.7240298
vt 0.68522143 0.7132497
vt 0.6895335 0.7024696
vt 0.6895335 0.70031357
vt 0.6895335 0.70031357
vt 0.6938455 0.6916895
vt 0.6830654 0.71109366
vt 0.6830654 0.71109366
vt 0.6787534 0.72187376
vt 0.6787534 0.72187376
vt 0.6722854 0.73265386
vt 0.6722854 0.7348099
vt 0.6722854 0.73265386
vt 0.66797334 0.74127793
vt 0.66797334 0.74127793
vt 0.6615053 0.75205797
vt 0.66797334 0.74343395
vt 0.6615053 0.75205797
vt 0.6550372 0.76283807
vt 0.6636613 0.754214
vt 0.6550372 0.76283807
vt 0.64856917 0.7736181
vt 0.67012936 0.7455899
vt 0.67012936 0.7455899
vt 0.6636613 0.75637
vt 0.6636613 0.75637
vt 0.64856917 0.7736181
vt 0.6442571 0.7865542
vt 0.65719324 0.7671501
vt 0.65719324 0.7693061
vt 0.65719324 0.7693061
vt 0.6507252 0.77793014
vt 0.6528812 0.78008616
vt 0.6528812 0.78008616
vt 0.6442571 0.7865542
vt 0.6377891 0.7973343
vt 0.6442571 0.78871024
vt 0.64641315 0.79086626
vt 0.64641315 0.79086626
vt 0.6377891 0.7973343
vt 0.6334771 0.8059584
vt 0.6399451 0.79949033
vt 0.6334771 0.8081144
vt 0.6399451 0.80164635
vt 0.6399451 0.80164635
vt 0.6334771 0.8059584
vt 0.624853 0.8210505
vt 0.6356331 0.8102704
vt 0.6356331 0.8102704
vt 0.624853 0.8210505
vt 0.61838496 0.8318306
vt 0.61838496 0.8318306
vt 0.62700903 0.82536256
vt 0.62700903 0.82536256
vt 0.62700903 0.82320654
vt 0.620541 0.83398664
vt 0.620541 0.85339075
vt 0.622697 0.83614266
vt 0.622697 0.83614266
vt 0.622697 0.85339075
vt 0.622697 0.83614266
vt 0.622697 0.85339075
vt 0.622697 0.8706389
vt 0.622697 0.8706389
vt 0.622697 0.890043
vt 0.622697 0.890043
vt 0.620541 0.8706389
vt 0.622697 0.9072912
vt 0.622697 0.9072912
vt 0.620541 0.890043
vt 0.61838496 0.8706389
vt 0.622697 0.9245393
vt 0.622697 0.9245393
vt 0.61838496 0.85339075
vt 0.61838496 0.85339075
vt 0.61838496 0.8318306
vt 0.61838496 0.8706389
vt 0.61838496 0.890043
vt 0.61838496 0.890043
vt 0.61838496 0.9072912
vt 0.61838496 0.9072912
vt 0.61838496 0.9245393
vt 0.622697 0.9439435
vt 0.622697 0.9439435
vt 0.620541 0.9072912
vt 0.61838496 0.9245393
vt 0.61838496 0.9439435
vt 0.620541 0.9245393
vt 0.620541 0.9439435
vt 0.61838496 0.9439435
vt 0.61838496 0.9611916
vt 0.622697 0.9611916
vt 0.622697 0.9611916
vt 0.620541 0.9611916
vt 0.61838496 0.9611916
vt 0.61838496 0.98059577
vt 0.622697 0.98059577
vt 0.622697 0.98059577
vt 0.61838496 0.98059577
vt 0.61838496 0.9935318
vt 0.61838496 0.9935318
vt 0.620541 0.98059577
vt 0.622697 0.9999999
vt 0.622697 0.9999999
vt 0.620541 0.99784386
vt 0.6140729 0.9999999
vt 0.622697 0.9999999
vt 0.6119169 0.9999999
vt 0.6140729 0.99784386
vt 0.60760486 0.9999999
vt 0.6032928 0.9999999
vt 0.6032928 0.9999999
vt 0.5989808 0.9999999
vt 0.60760486 0.99784386
vt 0.6140729 0.9935318
vt 0.6119169 0.9935318
vt 0.61838496 0.9935318
vt 0.6032928 0.9935318
vt 0.60760486 0.9935318
vt 0.5989808 0.9935318
vt 0.6032928 0.99784386
vt 0.5989808 0.99784386
vt 0.5989808 0.9999999
vt 0.59682477 0.9999999
vt 0.6032928 0.9935318
vt 0.59682477 0.9935318
vt 0.5882007 0.9999999
vt 0.58604467 0.9999999
vt 0.5989808 0.9935318
vt 0.58604467 0.9935318
vt 0.5882007 0.9935318
vt 0.5709526 0.9935318
vt 0.5882007 0.99784386
vt 0.56664056 0.9999999
vt 0.5709526 0.9999999
vt 0.56664056 0.9935318
vt 0.5493924 0.9935318
vt 0.56664056 0.99784386
vt 0.5472364 0.9999999
vt 0.5493924 0.9999999
vt 0.5472364 0.9935318
vt 0.53430027 0.9935318
vt 0.5472364 0.99784386
vt 0.53430027 0.9999999
vt 0.53430027 0.9999999
vt 0.53430027 0.9935318
vt 0.5192082 0.9935318
vt 0.53430027 0.99784386
vt 0.5192082 0.9999999
vt 0.5192082 0.9999999
vt 0.5192082 0.9935318
vt 0.5084281 0.9935318
vt 0.5084281 0.9935318
vt 0.5192082 0.99784386
vt 0.5062721 0.9999999
vt 0.5062721 0.9999999
vt 0.5084281 0.99784386
vt 0.5084281 0.9849078
vt 0.5062721 0.9849078
vt 0.5084281 0.9719717
vt 0.5062721 0.9999999
vt 0.5062721 0.9849078
vt 0.5062721 0.9719717
vt 0.5062721 0.9719717
vt 0.5062721 0.9590356
vt 0.5062721 0.9590356
vt 0.5084281 0.9849078
vt 0.5062721 0.94825554
vt 0.5062721 0.94825554
vt 0.5084281 0.9849078
vt 0.5084281 0.9935318
vt 0.5084281 0.9719717
vt 0.5084281 0.9719717
vt 0.5084281 0.9590356
vt 0.5084281 0.9590356
vt 0.5084281 0.94825554
vt 0.5084281 0.9590356
vt 0.5084281 0.94825554
vt 0.5084281 0.93963146
vt 0.5062721 0.9353194
vt 0.5062721 0.93963146
vt 0.5084281 0.94825554
vt 0.5084281 0.9353194
vt 0.5084281 0.9310074
vt 0.5062721 0.92669535
vt 0.5062721 0.9310074
vt 0.5084281 0.9353194
vt 0.5084281 0.92669535
vt 0.5084281 0.92669535
vt 0.5062721 0.91375923
vt 0.5062721 0.92669535
vt 0.5084281 0.92669535
vt 0.5084281 0.91375923
vt 0.5084281 0.9223833
vt 0.5084281 0.90513515
vt 0.5084281 0.9202273
vt 0.5084281 0.90513515
vt 0.5084281 0.9310074
vt 0.5084281 0.91807127
vt 0.5084281 0.9310074
vt 0.5084281 0.9116032
vt 0.5084281 0.9310074
vt 0.5084281 0.91375923
vt 0.5084281 0.90513515
vt 0.5084281 0.90513515
vt 0.5084281 0.90513515
vt 0.5084281 0.9116032
vt 0.5084281 0.91807127
vt 0.5084281 0.91375923
vt 0.5084281 0.8986671
vt 0.5084281 0.8986671
vt 0.5084281 0.887887
vt 0.5084281 0.90297914
vt 0.5084281 0.91807127
vt 0.5084281 0.91591525
vt 0.5084281 0.9094472
vt 0.5084281 0.9116032
vt 0.5084281 0.9072912
vt 0.5084281 0.91375923
vt 0.5084281 0.9072912
vt 0.5084281 0.8986671
vt 0.5084281 0.887887
vt 0.5084281 0.8792629
vt 0.5084281 0.8792629
vt 0.5084281 0.8706389
vt 0.5084281 0.8706389
vt 0.5084281 0.8577028
vt 0.5084281 0.8792629
vt 0.5084281 0.8577028
vt 0.5084281 0.85123473
vt 0.5084281 0.887887
vt 0.5084281 0.8706389
vt 0.5084281 0.85123473
vt 0.5084281 0.8404547
vt 0.5084281 0.8577028
vt 0.5084281 0.8404547
vt 0.5084281 0.8275186
vt 0.5084281 0.8275186
vt 0.5084281 0.8296746
vt 0.5084281 0.8404547
vt 0.5084281 0.85123473
vt 0.5062721 0.85123473
vt 0.5062721 0.8577028
vt 0.5062721 0.8706389
vt 0.5062721 0.8404547
vt 0.5062721 0.8792629
vt 0.5062721 0.887887
vt 0.5062721 0.8986671
vt 0.5084281 0.9072912
vt 0.5062721 0.9072912
vt 0.5084281 0.9072912
vt 0.5062721 0.9072912
vt 0.5062721 0.9072912
vt 0.5062721 0.91375923
vt 0.5084281 0.91591525
vt 0.5084281 0.90297914
vt 0.5062721 0.90297914
vt 0.5062721 0.90513515
vt 0.5062721 0.9202273
vt 0.5062721 0.90297914
vt 0.5062721 0.9202273
vt 0.5062721 0.91375923
vt 0.5062721 0.92885137
vt 0.5062721 0.92885137
vt 0.5062721 0.9072912
vt 0.5062721 0.92669535
vt 0.5062721 0.9072912
vt 0.5062721 0.91591525
vt 0.5062721 0.8986671
vt 0.5062721 0.887887
vt 0.5062721 0.8792629
vt 0.5062721 0.8706389
vt 0.5062721 0.8577028
vt 0.5062721 0.85123473
vt 0.5062721 0.8404547
vt 0.5062721 0.8296746
vt 0.5062721 0.8296746
vt 0.50196004 0.8210505
vt 0.5062721 0.8296746
vt 0.50196004 0.8210505
vt 0.49549198 0.8102704
vt 0.49549198 0.8102704
vt 0.50411606 0.8188945
vt 0.50411606 0.8167385
vt 0.50411606 0.8167385
vt 0.5084281 0.8275186
vt 0.497648 0.8059584
vt 0.497648 0.8081144
vt 0.49117994 0.7973343
vt 0.49117994 0.79949033
vt 0.49117994 0.79949033
vt 0.497648 0.8059584
vt 0.49333596 0.7951783
vt 0.4825559 0.7865542
vt 0.4825559 0.7865542
vt 0.49333596 0.7951783
vt 0.48471192 0.7822422
vt 0.48471192 0.7822422
vt 0.48039988 0.7693061
vt 0.48471192 0.7843982
vt 0.47608784 0.7736181
vt 0.47608784 0.7736181
vt 0.48039988 0.7693061
vt 0.47393182 0.76068205
vt 0.47824386 0.7714621
vt 0.4717758 0.7649941
vt 0.4717758 0.7649941
vt 0.47393182 0.76068205
vt 0.46961978 0.74990195
vt 0.47393182 0.76283807
vt 0.46746376 0.754214
vt 0.46746376 0.754214
vt 0.46961978 0.74990195
vt 0.46315175 0.7391219
vt 0.46746376 0.75205797
vt 0.46099573 0.74343395
vt 0.46099573 0.74343395
vt 0.46315175 0.7391219
vt 0.4566837 0.7283418
vt 0.46099573 0.74127793
vt 0.45452768 0.73265386
vt 0.45452768 0.73265386
vt 0.4566837 0.7283418
vt 0.45452768 0.71971774
vt 0.45452768 0.71971774
vt 0.4566837 0.73049784
vt 0.45237166 0.72187376
vt 0.45021564 0.72187376
vt 0.45021564 0.72187376
vn 0.015870988 0.999874 -0.00034526698
vn 0.015870988 0.999874 -0.00034526698
vn 0.015870988 0.999874 -0.00034526698
vn 0.015870988 0.999874 -0.00034526698
vn 0.04756513 0.99886817 -0
vn 0.04756513 0.99886817 -0
vn -0.015871048 0.999874 -0.00034526698
vn 0.7141957 0.015871048 -0.6997661
vn 0.7141957 0.015871048 -0.6997661
vn 0.7141957 0.015871048 -0.6997661
vn 0.04756513 0.99886817 -0
vn 0.7141957 0.015871048 -0.6997661
vn 0.04756513 0.99886817 -0
vn 0.7141957 0.015871048 -0.6997661
vn 0.04756513 0.99886817 -0
vn -0.7141957 0.015871048 0.6997661
vn -0.7141957 0.015871048 0.6997661
vn 0.04756513 0.99886817 -0
vn -0.7141957 0.015871048 0.6997661
vn 0.015870988 0.999874 -0.00034526698
vn 0.7141957 0.015871048 -0.6997661
vn 0.015870988 0.999874 -0.00034526698
vn 0.04756513 0.99886817 -0
vn 0.015870988 0.999874 -0.00034526698
vn 0.015870988 0.999874 -0.00034526698
vn -0.7141957 0.015871048 0.6997661
vn 0.015870988 0.999874 -0.00034526698
vn 0.015870988 0.999874 -0.00034526698
vn 0.015870988 0.999874 -0.00034526698
vn -0.015871048 0.015871048 -0.99974805
vn -0.015871048 0.015871048 -0.99974805
vn 0.015870988 0.999874 -0.00034526698
vn -0.015871048 0.015871048 -0.99974805
vn 0.015870988 0.999874 -0.00034526698
vn 0.015870988 0.999874 -0.00034526698
vn -0.015871048 0.999874 -0.00034526698
vn -0.015871048 0.015871048 -0.99974805
vn -0.015871048 0.015871048 0.99974805
vn -0.015871048 0.015871048 0.99974805
vn -0.015871048 0.015871048 0.99974805
vn 0.015870988 0.999874 -0.00034526698
vn -0.015871048 0.015871048 0.99974805
vn -0.015871048 0.999874 -0.00034526698
vn -0.015871048 0.999874 -0.00034526698
vn -0.015871048 0.015871048 0.99974805
vn -0.04756513 0.99886817 -0
vn -0.015871048 0.015871048 0.99974805
vn -0.04756513 0.99886817 -0
vn -0.015871048 0.015871048 -0.99974805
vn -0.04756513 0.99886817 -0
vn 0.015870988 0.999874 -0.00034526698
vn 0.015870988 0.999874 -0.00034526698
vn -0.015871048 0.015871048 0.99974805
vn 0.015870988 0.999874 -0.00034526698
vn -0.015871048 0.015871048 -0.99974805
vn 0.04756513 0.99886817 -0
vn -0.015871048 0.015871048 0.99974805
vn 0.079116285 0.9968654 -0
vn 0.079116285 0.9968654 -0
vn 0.04756513 0.99886817 -0
vn -0.015871048 0.015871048 -0.99974805
vn 0.04756513 0.99886817 -0
vn 0.110431515 0.9938838 -0
vn -0.015871048 0.015871048 -0.99974805
vn 0.079116285 0.9968654 -0
vn -0.7141957 0.015871048 -0.6997661
vn -0.7141957 0.015871048 -0.6997661
vn 0.079116285 0.9968654 -0
vn 0.079116285 0.9968654 -0
vn -0.7141957 0.015871048 -0.6997661
vn 0.079116285 0.9968654 -0
vn 0.079116285 0.9968654 -0
vn 0.7141957 0.015871048 0.6997661
vn 0.7141957 0.015871048 0.6997661
vn 0.7141957 0.015871048 0.6997661
vn 0.04756513 0.99886817 -0
vn 0.04756513 0.99886817 -0
vn -0.015871048 0.015871048 -0.99974805
vn -0.015871048 0.015871048 -0.99974805
vn 0.015870988 0.999874 -0.00034526698
vn -0.015871048 0.015871048 -0.99974805
vn -0.015871048 0.999874 -0.00034526698
vn -0.015871048 0.015871048 -0.99974805
vn 0.015870988 0.999874 -0.00034526698
vn 0.04756513 0.99886817 -0
vn 0.04756513 0.99886817 -0
vn -0.015871048 0.015871048 0.99974805
vn -0.015871048 0.015871048 0.99974805
vn -0.015871048 0.015871048 0.99974805
vn 0.015870988 0.999874 -0.00034526698
vn 0.015870988 0.015871048 0.99974805
vn -0.015871048 0.999874 -0.00034526698
vn -0.015871048 0.015871048 0.99974805
vn -0.015871048 0.999874 -0.00034526698
vn -0.015871048 0.999874 -0.00034526698
vn -0.015871048 0.015871048 0.99974805
vn -0.015871048 0.999874 -0.00034526698
vn -0.015871048 0.999874 -0.00034526698
vn -0.015871048 0.015871048 0.99974805
vn -0.015871048 0.999874 -0.00034526698
vn -0.015871048 0.015871048 -0.99974805
vn -0.015871048 0.999874 -0.00034526698
vn -0.015871048 0.999874 -0.00034526698
vn -0.015871048 0.015871048 -0.99974805
vn 0.015870988 0.999874 -0.00034526698
vn -0.015871048 0.015871048 0.99974805
vn 0.015870988 0.999874 -0.00034526698
vn 0.015870988 0.999874 -0.00034526698
vn 0.015870988 0.999874 -0.00034526698
vn -0.015871048 0.015871048 -0.99974805
vn 0.015870988 0.999874 -0.00034526698
vn 0.015870988 0.999874 -0.00034526698
vn -0.015871048 0.015871048 -0.99974805
vn -0.015871048 0.999874 -0.00034526698
vn -0.015871048 0.999874 -0.00034526698
vn 0.015870988 0.999874 -0.00034526698
vn 0.7141957 0.015871048 -0.6997661
vn 0.7141957 0.015871048 -0.6997661
vn 0.015870988 0.999874 -0.00034526698
vn 0.7141957 0.015871048 -0.6997661
vn 0.015870988 0.999874 -0.00034526698
vn 0.7141957 0.015871048 -0.6997661
vn -0.015871048 0.999874 -0.00034526698
vn 0.015870988 0.999874 -0.00034526698
vn 0.7141957 0.015871048 -0.6997661
vn -0.7141957 0.015871048 0.6997661
vn -0.7141957 0.015871048 0.6997661
vn -0.7141957 0.015871048 0.6997661
vn 0.015870988 0.999874 -0.00034526698
vn -0.7141957 0.015871048 0.6997661
vn 0.015870988 0.999874 -0.00034526698
vn -0.7141957 0.015871048 0.6997661
vn 0.015870988 0.999874 -0.00034526698
vn -0.015871048 0.999874 -0.00034526698
vn 0.7141957 0.015871048 -0.6997661
vn 0.015870988 0.999874 -0.00034526698
vn 0.015870988 0.999874 -0.00034526698
vn -0.7141957 0.015871048 0.6997661
vn -0.015871048 0.999874 -0.00034526698
vn -0.015871048 0.999874 -0.00034526698
vn -0.7141957 0.015871048 0.6997661
vn -0.015871048 0.999874 -0.00034526698
vn -0.015871048 0.999874 -0.00034526698
vn 0.7141957 0.015871048 -0.6997661
vn -0.015871048 0.999874 -0.00034526698
vn -0.015871048 0.999874 -0.00034526698
vn 0.999874 0.015871048 -0.00034391563
vn 0.999874 0.015871048 -0.00034391563
vn -0.110431515 0.9938838 -0
vn 0.999874 0.015871048 -0.00034391563
vn -0.015871048 0.999874 -0.00034526698
vn -0.015871048 0.999874 -0.00034526698
vn -0.14142141 0.98994946 -0
vn 0.999874 0.015871048 -0.00034391563
vn -0.14142141 0.98994946 -0
vn -0.110431515 0.9938838 -0
vn -0.14142141 0.98994946 -0
vn -0.079116344 0.9968654 -0
vn -0.999874 0.015871048 -0.00034391563
vn -0.999874 0.015871048 -0.00034391563
vn -0.999874 0.015871048 -0.00034391563
vn -0.999874 0.015871048 -0.00034391563
vn -0.7141957 0.015871048 0.6997661
vn -0.7141957 0.015871048 0.6997661
vn -0.7141957 0.015871048 0.6997661
vn -0.999874 0.015871048 -0.00034391563
vn 0.015870988 0.999874 -0.00034526698
vn -0.999874 0.015871048 -0.00034391563
vn -0.17458117 0.9363899 0.30445904
vn -0.999874 0.015871048 -0.00034391563
vn 0.015870988 0.999874 -0.00034526698
vn -0.17458117 0.90464795 0.3887589
vn -0.17458117 0.90464795 0.3887589
vn -0.999874 0.015871048 -0.00034391563
vn -0.17458117 0.90464795 0.3887589
vn -0.17458117 0.9363899 0.30445904
vn -0.17458117 0.9363899 0.30445904
vn 0.047613025 0.968132 0.24587277
vn 0.999874 0.015871048 -0.00034391563
vn 0.999874 0.015871048 -0.00034391563
vn -0.17458117 0.90464795 0.3887589
vn 0.999874 0.015871048 -0.00034391563
vn -0.20632327 0.9363899 0.28390953
vn 0.999874 0.015871048 -0.00034391563
vn -0.17458117 0.9363899 0.30445904
vn -0.23806524 0.9363899 0.25787365
vn 0.7141957 0.015871048 -0.6997661
vn 0.7141957 0.015871048 -0.6997661
vn -0.26980734 0.9363899 0.22445023
vn 0.7141957 0.015871048 -0.6997661
vn -0.23806524 0.9363899 0.25787365
vn 0.7141957 0.015871048 -0.6997661
vn -0.20632327 0.968132 0.1419547
vn 0.7141957 0.015871048 -0.6997661
vn -0.23806524 0.9363899 0.25787365
vn -0.26980734 0.9363899 0.22445023
vn -0.20632327 0.9363899 0.28390953
vn -0.23806524 0.9363899 0.25787365
vn -0.7141957 0.015871048 0.6997661
vn -0.7141957 0.015871048 0.6997661
vn -0.7141957 0.015871048 0.6997661
vn -0.26980734 0.9363899 0.22445023
vn -0.7141957 0.015871048 0.6997661
vn -0.23806524 0.9363899 0.25787365
vn -0.7141957 0.015871048 0.6997661
vn -0.20632327 0.968132 0.1419547
vn -0.20632327 0.968132 0.1419547
vn -0.7141957 0.015871048 0.6997661
vn -0.172001 0.9850967 -0
vn -0.7141957 0.015871048 0.6997661
vn -0.17458117 0.968132 -0.17956008
vn -0.20632327 0.968132 -0.1419547
vn -0.7141957 0.015871048 0.6997661
vn -0.17458117 0.968132 -0.17956008
vn -0.14142141 0.98994946 -0
vn -0.7141957 0.015871048 0.6997661
vn -0.17458117 0.968132 -0.17956008
vn 0.7141957 0.015871048 -0.6997661
vn -0.17458117 0.968132 -0.17956008
vn 0.7141957 0.015871048 -0.6997661
vn -0.110431515 0.9938838 -0
vn -0.7141957 0.015871048 0.6997661
vn -0.14142141 0.98994946 -0
vn -0.14142141 0.98994946 -0
vn 0.7141957 0.015871048 -0.6997661
vn -0.110431515 0.9938838 -0
vn -0.110431515 0.9938838 -0
vn 0.7141957 0.015871048 -0.6997661
vn -0.079116344 0.9968654 -0
vn -0.7141957 0.015871048 0.6997661
vn -0.079116344 0.9968654 -0
vn -0.079116344 0.9968654 -0
vn 0.7141957 0.015871048 -0.6997661
vn -0.04756513 0.99886817 -0
vn -0.7141957 0.015871048 0.6997661
vn -0.04756513 0.99886817 -0
vn -0.04756513 0.99886817 -0
vn -0.079116344 0.9968654 -0
vn 0.7141957 0.015871048 -0.6997661
vn -0.04756513 0.99886817 -0
vn -0.7141957 0.015871048 0.6997661
vn -0.04756513 0.99886817 -0
vn 0.7141957 0.015871048 -0.6997661
vn 0.015870988 0.999874 -0.00034526698
vn -0.7141957 0.015871048 0.6997661
vn 0.04756513 0.99886817 -0
vn 0.015870988 0.999874 -0.00034526698
vn 0.7141957 0.015871048 -0.6997661
vn 0.015870988 0.999874 -0.00034526698
vn 0.04756513 0.99886817 -0
vn 0.04756513 0.99886817 -0
vn 0.04756513 0.99886817 -0
vn 0.7141957 0.015871048 -0.6997661
vn 0.04756513 0.99886817 -0
vn 0.999874 0.015871048 -0.00034391563
vn 0.999874 0.015871048 -0.00034391563
vn 0.04756513 0.99886817 -0
vn 0.999874 0.015871048 -0.00034391563
vn 0.110431515 0.9938838 -0
vn 0.999874 0.015871048 -0.00034391563
vn 0.04756513 0.99886817 -0
vn 0.110431515 0.9938838 -0
vn 0.999874 0.015871048 -0.00034391563
vn 0.110431515 0.9938838 -0
vn 0.04756513 0.99886817 -0
vn 0.14142135 0.98994946 -0
vn 0.999874 0.015871048 -0.00034391563
vn 0.04756513 0.99886817 -0
vn -0.999874 0.015871048 -0.00034391563
vn -0.999874 0.015871048 -0.00034391563
vn -0.999874 0.015871048 -0.00034391563
vn -0.999874 0.015871048 -0.00034391563
vn 0.110431515 0.9938838 -0
vn -0.999874 0.015871048 -0.00034391563
vn 0.110431515 0.9938838 -0
vn -0.999874 0.015871048 -0.00034391563
vn 0.04756513 0.99886817 -0
vn 0.999874 0.015871048 -0.00034391563
vn 0.110431515 0.9938838 -0
vn 0.14142135 0.98994946 -0
vn -0.999874 0.015871048 -0.00034391563
vn 0.14142135 0.98994946 -0
vn 0.079116285 0.9968654 -0
vn 0.14142135 0.98994946 -0
vn -0.999874 0.015871048 -0.00034391563
vn 0.079116285 0.9968654 -0
vn 0.999874 0.015871048 -0.00034391563
vn 0.079116285 0.9968654 -0
vn 0.079116285 0.9968654 -0
vn -0.999874 0.015871048 -0.00034391563
vn 0.079116285 0.9968654 -0
vn 0.999874 0.015871048 -0.00034391563
vn 0.015870988 0.999874 -0.00034526698
vn -0.999874 0.015871048 -0.00034391563
vn 0.079116285 0.9968654 -0
vn 0.04756513 0.99886817 -0
vn 0.079116285 0.9968654 -0
vn 0.999874 0.015871048 -0.00034391563
vn 0.079116285 0.9968654 -0
vn 0.65071166 0.65071166 0.39134216
vn -0.015871048 0.015871048 -0.99974805
vn -0.015871048 0.015871048 -0.99974805
vn 0.5872276 0.7776798 0.22445023
vn 0.9363899 0.23806524 0.25787368
vn -0.015871048 0.015871048 -0.99974805
vn 0.9046479 0.20632327 0.37288457
vn -0.015871048 0.015871048 -0.99974805
vn 0.9046479 0.26980734 0.329873
vn 0.5872276 0.8094218 -0.00042286396
vn -0.015871048 0.015871048 0.99974805
vn -0.015871048 0.015871048 0.99974805
vn -0.015871048 0.015871048 0.99974805
vn 0.8094218 0.3332913 0.48348042
vn -0.015871048 0.015871048 0.99974805
vn 0.9046479 0.20632327 0.37288457
vn 0.9046479 0.3650334 0.21991548
vn 0.90373784 0.4280864 -0
vn -0.015871048 0.015871048 -0.99974805
vn 0.9046479 0.20632327 0.37288457
vn -0.015871048 0.015871048 0.99974805
vn 0.49101302 0.87115216 -0
vn -0.015871048 0.015871048 -0.99974805
vn 0.9363899 0.26980734 0.2244502
vn -0.015871048 0.015871048 0.99974805
vn 0.49101302 0.87115216 -0
vn -0.015871048 0.015871048 0.99974805
vn 0.49101302 0.87115216 -0
vn -0.36320823 0.931708 -0
vn -0.015871048 0.015871048 -0.99974805
vn -0.3332913 0.9363899 -0.10995819
vn -0.015871048 0.015871048 0.99974805
vn -0.36320823 0.931708 -0
vn -0.3332913 0.9363899 -0.10995819
vn -0.015871048 0.015871048 -0.99974805
vn -0.36320823 0.931708 -0
vn -0.015871048 0.015871048 0.99974805
vn -0.3332913 0.9363899 -0.10995819
vn 0.015870988 0.999874 -0.00034526698
vn -0.015871048 0.015871048 -0.99974805
vn -0.015871048 0.999874 -0.00034526698
vn -0.015871048 0.015871048 0.99974805
vn 0.015870988 0.999874 -0.00034526698
vn 0.015870988 0.999874 -0.00034526698
vn -0.015871048 0.015871048 -0.99974805
vn 0.015870988 0.999874 -0.00034526698
vn -0.015871048 0.015871048 0.99974805
vn -0.015871048 0.999874 -0.00034526698
vn 0.015870988 0.999874 -0.00034526698
vn -0.015871048 0.999874 -0.00034526698
vn -0.015871048 0.015871048 -0.99974805
vn -0.015871048 0.999874 -0.00034526698
vn -0.015871048 0.999874 -0.00034526698
vn 0.015870988 0.999874 -0.00034526698
vn 0.14283913 0.968132 -0.20571192
vn -0.999874 0.015871048 -0.00034391563
vn -0.999874 0.015871048 -0.00034391563
vn 0.17458117 0.968132 -0.17956008
vn -0.999874 0.015871048 -0.00034391563
vn 0.14283913 0.968132 0.20571192
vn -0.999874 0.015871048 -0.00034391563
vn 0.015870988 0.999874 -0.00034526698
vn -0.015871048 0.90464795 0.42586404
vn -0.999874 0.015871048 -0.00034391563
vn 0.999874 0.015871048 -0.00034391563
vn 0.999874 0.015871048 -0.00034391563
vn 0.999874 0.015871048 -0.00034391563
vn 0.17458117 0.968132 -0.17956008
vn 0.999874 0.015871048 -0.00034391563
vn 0.17458117 0.968132 0.17956008
vn 0.999874 0.015871048 -0.00034391563
vn 0.14283913 0.968132 0.20571192
vn -0.015871048 0.90464795 0.42586404
vn 0.999874 0.015871048 -0.00034391563
vn 0.015870988 0.968132 0.24993704
vn -0.999874 0.015871048 -0.00034391563
vn -0.015871048 0.90464795 0.42586404
vn -0.015871048 0.968132 0.24993704
vn 0.999874 0.015871048 -0.00034391563
vn -0.015871048 0.999874 -0.00034526698
vn -0.999874 0.015871048 -0.00034391563
vn 0.015870988 0.968132 0.24993704
vn -0.015871048 0.999874 -0.00034526698
vn 0.999874 0.015871048 -0.00034391563
vn -0.079116344 0.9968654 -0
vn -0.999874 0.015871048 -0.00034391563
vn -0.015871048 0.999874 -0.00034526698
vn 0.36503333 0.87290585 0.32370672
vn 0.999874 0.015871048 -0.00034391563
vn 0.999874 0.015871048 -0.00034391563
vn 0.999874 0.015871048 -0.00034391563
vn 0.999874 0.015871048 -0.00034391563
vn 0.999874 0.015871048 -0.00034391563
vn 0.999874 0.015871048 -0.00034391563
vn 0.999874 0.015871048 -0.00034391563
vn 0.9046479 0.07935512 0.4187063
vn 0.999874 0.015871048 -0.00034391563
vn -0.04756513 0.99886817 -0
vn 0.30154932 0.3332913 0.8933
vn 0.36503333 0.6189697 0.6954331
vn 0.36503333 -0.4285174 0.8265128
vn 0.999874 0.015871048 -0.00034391563
vn 0.999874 0.015871048 -0.00034391563
vn 0.999874 0.015871048 -0.00034391563
vn 0.999874 0.015871048 -0.00034391563
vn 0.36503333 0.8411639 0.39899123
vn 0.999874 0.015871048 -0.00034391563
vn 0.36503333 -0.30154932 0.8808057
vn 0.6189696 -0.23806524 0.74846613
vn 0.55548555 -0.39677536 0.7307565
vn 0.6189696 0.1428392 0.772317
vn 0.8411638 0.015871048 0.5405475
vn 0.8411638 0.015871048 0.5405475
vn 0.87290585 0.17458117 0.45558402
vn 0.87290585 0.17458117 0.45558402
vn 0.46025944 0.65071166 0.60393345
vn 0.30154932 0.90464795 0.3011313
vn 0.999874 0.015871048 -0.00034391563
vn 0.015870988 0.999874 -0.00034526698
vn 0.999874 0.015871048 -0.00034391563
vn -0.20632327 0.90464795 0.37288442
vn 0.999874 0.015871048 -0.00034391563
vn 0.015870988 0.968132 0.24993704
vn 0.015870988 0.9363899 0.35060233
vn 0.999874 0.015871048 -0.00034391563
vn 0.33329135 0.87290585 0.35630357
vn -0.20632327 0.90464795 0.37288442
vn 0.04756513 0.99886817 -0
vn 0.999874 0.015871048 -0.00034391563
vn 0.047613025 0.9363899 0.3477167
vn -0.04756513 0.99886817 -0
vn 0.999874 0.015871048 -0.00034391563
vn -0.04756513 0.99886817 -0
vn -0.04756513 0.99886817 -0
vn -0.015871048 0.999874 -0.00034526698
vn 0.079116285 0.9968654 -0
vn 0.079116285 0.9968654 -0
vn 0.047613025 0.9363899 0.3477167
vn -0.20632327 0.90464795 0.37288442
vn -0.015871048 0.999874 -0.00034526698
vn 0.07935506 0.9363899 0.34187227
vn 0.36503333 0.8411639 0.39899123
vn 0.23806524 0.49200153 0.83741236
vn 0.23806524 0.39677536 0.88650674
vn 0.2063232 0.23806524 0.9490815
vn 0.26980728 0.047613025 0.96173644
vn 0.26980728 0.047613025 0.96173644
vn 0.23806524 0.17458117 0.9554299
vn 0.23806524 -0.39677536 0.88650674
vn 0.30154932 -0.2063232 0.93085915
vn 0.015870988 -0.39677536 0.9177785
vn 0.015870988 -0.33329135 0.94269025
vn -0.07935512 0.68245375 0.72660834
vn -0.999874 0.015871048 -0.00034391563
vn -0.999874 0.015871048 -0.00034391563
vn -0.999874 0.015871048 -0.00034391563
vn -0.999874 0.015871048 -0.00034391563
vn -0.999874 0.015871048 -0.00034391563
vn -0.999874 0.015871048 -0.00034391563
vn -0.999874 0.015871048 -0.00034391563
vn -0.999874 0.015871048 -0.00034391563
vn -0.999874 0.015871048 -0.00034391563
vn -0.999874 0.015871048 -0.00034391563
vn -0.999874 0.015871048 -0.00034391563
vn -0.999874 0.015871048 -0.00034391563
vn -0.999874 0.015871048 -0.00034391563
vn -0.999874 0.015871048 -0.00034391563
vn -0.999874 0.015871048 -0.00034391563
vn -0.999874 0.015871048 -0.00034391563
vn -0.999874 0.015871048 -0.00034391563
vn -0.04756513 0.99886817 -0
vn -0.999874 0.015871048 -0.00034391563
vn -0.015871048 0.999874 -0.00034526698
vn -0.7141957 0.015871048 -0.6997661
vn -0.7141957 0.015871048 -0.6997661
vn -0.015871048 0.999874 -0.00034526698
vn -0.7141957 0.015871048 -0.6997661
vn -0.015871048 0.999874 -0.00034526698
vn -0.015871048 0.999874 -0.00034526698
vn 0.7141957 0.015871048 0.6997661
vn 0.7141957 0.015871048 0.6997661
vn 0.7141957 0.015871048 0.6997661
vn -0.015871048 0.999874 -0.00034526698
vn -0.04756513 0.99886817 -0
vn -0.04756513 0.99886817 -0
vn -0.7141957 0.015871048 -0.6997661
vn -0.015871048 0.999874 -0.00034526698
vn 0.7141957 0.015871048 0.6997661
vn -0.04756513 0.99886817 -0
vn -0.7141957 0.015871048 -0.6997661
vn -0.04756513 0.99886817 -0
vn 0.7141957 0.015871048 0.6997661
vn -0.04756513 0.99886817 -0
vn 0.7141957 0.015871048 0.6997661
vn -0.04756513 0.99886817 -0
vn -0.079116344 0.9968654 -0
vn -0.7141957 0.015871048 -0.6997661
vn -0.079116344 0.9968654 -0
vn 0.7141957 0.015871048 0.6997661
vn -0.079116344 0.9968654 -0
vn -0.04756513 0.99886817 -0
vn -0.7141957 0.015871048 -0.6997661
vn -0.04756513 0.99886817 -0
vn 0.7141957 0.015871048 0.6997661
vn -0.04756513 0.99886817 -0
vn -0.04756513 0.99886817 -0
vn -0.7141957 0.015871048 -0.6997661
vn -0.04756513 0.99886817 -0
vn 0.7141957 0.015871048 0.6997661
vn -0.04756513 0.99886817 -0
vn -0.04756513 0.99886817 -0
vn -0.7141957 0.015871048 -0.6997661
vn -0.04756513 0.99886817 -0
vn 0.7141957 0.015871048 0.6997661
vn -0.04756513 0.99886817 -0
vn -0.079116344 0.9968654 -0
vn -0.7141957 0.015871048 -0.6997661
vn -0.079116344 0.9968654 -0
vn 0.7141957 0.015871048 0.6997661
vn -0.110431515 0.9938838 -0
vn -0.079116344 0.9968654 -0
vn -0.110431515 0.9938838 -0
vn -0.110431515 0.9938838 -0
vn -0.7141957 0.015871048 -0.6997661
g tb_geo_light_outline_04_mesh_0
f 3/3/3 2/2/2 1/1/1
f 4/4/4 3/3/3 1/1/1
f 4/4/4 1/1/1 5/5/5
f 4/4/4 6/6/6 3/3/3
f 4/4/4 5/5/5 6/6/6
f 6/6/6 7/7/7 3/3/3
f 7/7/7 6/6/6 8/8/8
f 9/9/9 7/7/7 8/8/8
f 8/8/8 6/6/6 10/10/10
f 6/6/6 11/11/11 10/10/10
f 5/5/5 11/11/11 6/6/6
f 10/10/10 11/11/11 12/12/12
f 11/11/11 13/13/13 12/12/12
f 11/11/11 5/5/5 13/13/13
f 12/12/12 13/13/13 14/14/14
f 1/1/1 15/15/15 5/5/5
f 15/15/15 1/1/1 16/16/16
f 17/17/17 15/15/15 16/16/16
f 18/18/18 15/15/15 17/17/17
f 15/15/15 18/18/18 5/5/5
f 19/19/19 18/18/18 17/17/17
f 13/13/13 20/20/20 14/14/14
f 14/14/14 20/20/20 21/21/21
f 20/20/20 22/22/22 21/21/21
f 5/5/5 23/23/23 13/13/13
f 18/18/18 23/23/23 5/5/5
f 13/13/13 23/23/23 24/24/24
f 20/20/20 13/13/13 24/24/24
f 24/24/24 23/23/23 18/18/18
f 25/25/25 18/18/18 19/19/19
f 25/25/25 24/24/24 18/18/18
f 26/26/26 25/25/25 19/19/19
f 24/24/24 27/27/27 20/20/20
f 27/27/27 22/22/22 20/20/20
f 24/24/24 25/25/25 27/27/27
f 28/28/28 27/27/27 25/25/25
f 22/22/22 27/27/27 28/28/28
f 29/29/29 28/28/28 25/25/25
f 29/29/29 25/25/25 30/30/30
f 31/31/31 29/29/29 30/30/30
f 32/32/32 29/29/29 31/31/31
f 33/33/33 32/32/32 31/31/31
f 34/34/34 28/28/28 29/29/29
f 32/32/32 34/34/34 29/29/29
f 35/35/35 22/22/22 28/28/28
f 35/35/35 28/28/28 34/34/34
f 36/36/36 32/32/32 33/33/33
f 37/37/37 36/36/36 33/33/33
f 22/22/22 35/35/35 38/38/38
f 39/39/39 22/22/22 38/38/38
f 38/38/38 35/35/35 40/40/40
f 35/35/35 41/41/41 40/40/40
f 41/41/41 35/35/35 34/34/34
f 40/40/40 41/41/41 42/42/42
f 43/43/43 34/34/34 32/32/32
f 41/41/41 34/34/34 43/43/43
f 36/36/36 43/43/43 32/32/32
f 41/41/41 44/44/44 42/42/42
f 44/44/44 41/41/41 43/43/43
f 42/42/42 44/44/44 45/45/45
f 44/44/44 46/46/46 45/45/45
f 44/44/44 43/43/43 46/46/46
f 45/45/45 46/46/46 47/47/47
f 48/48/48 36/36/36 37/37/37
f 49/49/49 48/48/48 37/37/37
f 50/50/50 43/43/43 36/36/36
f 43/43/43 50/50/50 46/46/46
f 48/48/48 50/50/50 36/36/36
f 46/46/46 50/50/50 51/51/51
f 50/50/50 48/48/48 51/51/51
f 46/46/46 52/52/52 47/47/47
f 52/52/52 46/46/46 51/51/51
f 47/47/47 52/52/52 53/53/53
f 54/54/54 48/48/48 49/49/49
f 48/48/48 54/54/54 51/51/51
f 55/55/55 54/54/54 49/49/49
f 52/52/52 56/56/56 53/53/53
f 52/52/52 51/51/51 56/56/56
f 53/53/53 56/56/56 57/57/57
f 56/56/56 58/58/58 57/57/57
f 59/59/59 58/58/58 56/56/56
f 60/60/60 54/54/54 55/55/55
f 51/51/51 54/54/54 60/60/60
f 61/61/61 60/60/60 55/55/55
f 51/51/51 62/62/62 56/56/56
f 62/62/62 59/59/59 56/56/56
f 62/62/62 51/51/51 60/60/60
f 59/59/59 62/62/62 60/60/60
f 63/63/63 60/60/60 61/61/61
f 63/63/63 59/59/59 60/60/60
f 64/64/64 63/63/63 61/61/61
f 63/63/63 65/65/65 59/59/59
f 65/65/65 63/63/63 66/66/66
f 67/67/67 65/65/65 66/66/66
f 68/68/68 65/65/65 67/67/67
f 68/68/68 69/69/69 65/65/65
f 70/70/70 68/68/68 67/67/67
f 65/65/65 71/71/71 59/59/59
f 69/69/69 71/71/71 65/65/65
f 59/59/59 71/71/71 72/72/72
f 72/72/72 71/71/71 69/69/69
f 58/58/58 59/59/59 72/72/72
f 58/58/58 72/72/72 73/73/73
f 74/74/74 58/58/58 73/73/73
f 73/73/73 72/72/72 75/75/75
f 72/72/72 76/76/76 75/75/75
f 76/76/76 72/72/72 69/69/69
f 68/68/68 77/77/77 69/69/69
f 77/77/77 68/68/68 78/78/78
f 79/79/79 77/77/77 78/78/78
f 80/80/80 77/77/77 79/79/79
f 81/81/81 80/80/80 79/79/79
f 82/82/82 80/80/80 81/81/81
f 83/83/83 82/82/82 81/81/81
f 80/80/80 84/84/84 77/77/77
f 80/80/80 82/82/82 84/84/84
f 77/77/77 85/85/85 69/69/69
f 84/84/84 85/85/85 77/77/77
f 86/86/86 76/76/76 69/69/69
f 85/85/85 86/86/86 69/69/69
f 76/76/76 86/86/86 87/87/87
f 88/88/88 76/76/76 87/87/87
f 87/87/87 86/86/86 89/89/89
f 90/90/90 86/86/86 85/85/85
f 86/86/86 90/90/90 89/89/89
f 84/84/84 90/90/90 85/85/85
f 89/89/89 90/90/90 91/91/91
f 90/90/90 92/92/92 91/91/91
f 92/92/92 90/90/90 84/84/84
f 91/91/91 92/92/92 93/93/93
f 94/94/94 92/92/92 84/84/84
f 82/82/82 94/94/94 84/84/84
f 92/92/92 95/95/95 93/93/93
f 95/95/95 92/92/92 94/94/94
f 93/93/93 95/95/95 96/96/96
f 97/97/97 94/94/94 82/82/82
f 97/97/97 95/95/95 94/94/94
f 95/95/95 98/98/98 96/96/96
f 96/96/96 98/98/98 99/99/99
f 100/100/100 97/97/97 82/82/82
f 100/100/100 82/82/82 83/83/83
f 101/101/101 100/100/100 83/83/83
f 97/97/97 102/102/102 95/95/95
f 97/97/97 100/100/100 102/102/102
f 102/102/102 98/98/98 95/95/95
f 103/103/103 100/100/100 101/101/101
f 100/100/100 103/103/103 102/102/102
f 104/104/104 103/103/103 101/101/101
f 98/98/98 105/105/105 99/99/99
f 99/99/99 105/105/105 106/106/106
f 105/105/105 107/107/107 106/106/106
f 102/102/102 108/108/108 98/98/98
f 108/108/108 105/105/105 98/98/98
f 102/102/102 103/103/103 108/108/108
f 105/105/105 108/108/108 107/107/107
f 109/109/109 103/103/103 104/104/104
f 103/103/103 109/109/109 108/108/108
f 110/110/110 109/109/109 104/104/104
f 108/108/108 109/109/109 111/111/111
f 108/108/108 111/111/111 107/107/107
f 112/112/112 109/109/109 110/110/110
f 109/109/109 112/112/112 111/111/111
f 113/113/113 112/112/112 110/110/110
f 114/114/114 111/111/111 112/112/112
f 107/107/107 111/111/111 114/114/114
f 115/115/115 114/114/114 112/112/112
f 114/114/114 115/115/115 116/116/116
f 115/115/115 112/112/112 117/117/117
f 118/118/118 115/115/115 117/117/117
f 119/119/119 115/115/115 118/118/118
f 115/115/115 119/119/119 116/116/116
f 120/120/120 119/119/119 118/118/118
f 121/121/121 119/119/119 120/120/120
f 116/116/116 119/119/119 121/121/121
f 122/122/122 121/121/121 120/120/120
f 123/123/123 107/107/107 114/114/114
f 114/114/114 116/116/116 123/123/123
f 124/124/124 121/121/121 122/122/122
f 125/125/125 124/124/124 122/122/122
f 107/107/107 123/123/123 126/126/126
f 127/127/127 107/107/107 126/126/126
f 126/126/126 123/123/123 128/128/128
f 123/123/123 129/129/129 128/128/128
f 116/116/116 129/129/129 123/123/123
f 128/128/128 129/129/129 130/130/130
f 129/129/129 131/131/131 130/130/130
f 129/129/129 116/116/116 131/131/131
f 130/130/130 131/131/131 132/132/132
f 133/133/133 116/116/116 121/121/121
f 133/133/133 121/121/121 124/124/124
f 116/116/116 133/133/133 131/131/131
f 134/134/134 124/124/124 125/125/125
f 135/135/135 134/134/134 125/125/125
f 136/136/136 133/133/133 124/124/124
f 133/133/133 136/136/136 131/131/131
f 136/136/136 124/124/124 134/134/134
f 131/131/131 137/137/137 132/132/132
f 136/136/136 137/137/137 131/131/131
f 132/132/132 137/137/137 138/138/138
f 136/136/136 139/139/139 137/137/137
f 139/139/139 136/136/136 134/134/134
f 137/137/137 140/140/140 138/138/138
f 139/139/139 140/140/140 137/137/137
f 138/138/138 140/140/140 141/141/141
f 140/140/140 142/142/142 141/141/141
f 142/142/142 140/140/140 139/139/139
f 143/143/143 134/134/134 135/135/135
f 144/144/144 143/143/143 135/135/135
f 145/145/145 139/139/139 134/134/134
f 143/143/143 145/145/145 134/134/134
f 145/145/145 142/142/142 139/139/139
f 145/145/145 143/143/143 146/146/146
f 146/146/146 143/143/143 147/147/147
f 148/148/148 146/146/146 147/147/147
f 149/149/149 146/146/146 148/148/148
f 150/150/150 149/149/149 148/148/148
f 151/151/151 145/145/145 146/146/146
f 146/146/146 149/149/149 151/151/151
f 152/152/152 142/142/142 145/145/145
f 151/151/151 152/152/152 145/145/145
f 153/153/153 149/149/149 150/150/150
f 154/154/154 153/153/153 150/150/150
f 149/149/149 153/153/153 155/155/155
f 156/156/156 149/149/149 155/155/155
f 149/149/149 156/156/156 151/151/151
f 155/155/155 157/157/157 156/156/156
f 151/151/151 156/156/156 158/158/158
f 157/157/157 158/158/158 156/156/156
f 152/152/152 151/151/151 158/158/158
f 158/158/158 157/157/157 159/159/159
f 160/160/160 158/158/158 159/159/159
f 152/152/152 158/158/158 160/160/160
f 161/161/161 152/152/152 160/160/160
f 142/142/142 152/152/152 161/161/161
f 162/162/162 142/142/142 161/161/161
f 165/165/165 164/164/164 163/163/163
f 16/16/16 165/165/165 163/163/163
f 168/168/168 167/167/167 166/166/166
f 167/167/167 169/169/169 166/166/166
f 166/166/166 169/169/169 170/170/170
f 169/169/169 167/167/167 171/171/171
f 169/169/169 172/172/172 170/170/170
f 173/173/173 172/172/172 169/169/169
f 170/170/170 172/172/172 174/174/174
f 172/172/172 175/175/175 174/174/174
f 175/175/175 172/172/172 173/173/173
f 176/176/176 169/169/169 171/171/171
f 176/176/176 173/173/173 169/169/169
f 176/176/176 171/171/171 177/177/177
f 176/176/176 177/177/177 173/173/173
f 171/171/171 178/178/178 177/177/177
f 177/177/177 178/178/178 179/179/179
f 180/180/180 177/177/177 179/179/179
f 181/181/181 177/177/177 180/180/180
f 177/177/177 181/181/181 173/173/173
f 182/182/182 181/181/181 180/180/180
f 183/183/183 181/181/181 182/182/182
f 181/181/181 183/183/183 173/173/173
f 184/184/184 183/183/183 182/182/182
f 183/183/183 185/185/185 173/173/173
f 185/185/185 175/175/175 173/173/173
f 183/183/183 186/186/186 185/185/185
f 186/186/186 183/183/183 187/187/187
f 188/188/188 186/186/186 187/187/187
f 189/189/189 186/186/186 188/188/188
f 190/190/190 189/189/189 188/188/188
f 191/191/191 189/189/189 190/190/190
f 192/192/192 191/191/191 190/190/190
f 193/193/193 191/191/191 192/192/192
f 194/194/194 193/193/193 192/192/192
f 189/189/189 191/191/191 195/195/195
f 191/191/191 193/193/193 195/195/195
f 186/186/186 189/189/189 196/196/196
f 196/196/196 189/189/189 195/195/195
f 186/186/186 197/197/197 185/185/185
f 197/197/197 186/186/186 196/196/196
f 185/185/185 197/197/197 198/198/198
f 175/175/175 185/185/185 198/198/198
f 197/197/197 196/196/196 198/198/198
f 175/175/175 198/198/198 199/199/199
f 200/200/200 175/175/175 199/199/199
f 199/199/199 198/198/198 201/201/201
f 196/196/196 202/202/202 198/198/198
f 198/198/198 202/202/202 201/201/201
f 202/202/202 196/196/196 195/195/195
f 201/201/201 202/202/202 203/203/203
f 202/202/202 204/204/204 203/203/203
f 204/204/204 202/202/202 195/195/195
f 203/203/203 204/204/204 205/205/205
f 204/204/204 195/195/195 206/206/206
f 193/193/193 206/206/206 195/195/195
f 204/204/204 207/207/207 205/205/205
f 207/207/207 204/204/204 206/206/206
f 205/205/205 207/207/207 208/208/208
f 207/207/207 209/209/209 208/208/208
f 207/207/207 206/206/206 209/209/209
f 208/208/208 209/209/209 210/210/210
f 206/206/206 193/193/193 211/211/211
f 206/206/206 211/211/211 209/209/209
f 209/209/209 212/212/212 210/210/210
f 210/210/210 212/212/212 213/213/213
f 212/212/212 209/209/209 214/214/214
f 209/209/209 211/211/211 214/214/214
f 212/212/212 215/215/215 213/213/213
f 212/212/212 214/214/214 215/215/215
f 213/213/213 215/215/215 216/216/216
f 193/193/193 217/217/217 211/211/211
f 217/217/217 193/193/193 194/194/194
f 218/218/218 217/217/217 194/194/194
f 211/211/211 217/217/217 219/219/219
f 219/219/219 217/217/217 218/218/218
f 214/214/214 211/211/211 219/219/219
f 220/220/220 219/219/219 218/218/218
f 215/215/215 221/221/221 216/216/216
f 216/216/216 221/221/221 222/222/222
f 214/214/214 223/223/223 215/215/215
f 223/223/223 214/214/214 219/219/219
f 215/215/215 223/223/223 221/221/221
f 224/224/224 219/219/219 220/220/220
f 224/224/224 223/223/223 219/219/219
f 225/225/225 224/224/224 220/220/220
f 223/223/223 224/224/224 226/226/226
f 223/223/223 226/226/226 221/221/221
f 227/227/227 224/224/224 225/225/225
f 224/224/224 227/227/227 226/226/226
f 228/228/228 227/227/227 225/225/225
f 221/221/221 229/229/229 222/222/222
f 222/222/222 229/229/229 230/230/230
f 221/221/221 226/226/226 231/231/231
f 226/226/226 227/227/227 231/231/231
f 229/229/229 221/221/221 231/231/231
f 232/232/232 227/227/227 228/228/228
f 227/227/227 232/232/232 231/231/231
f 233/233/233 232/232/232 228/228/228
f 229/229/229 234/234/234 230/230/230
f 234/234/234 229/229/229 231/231/231
f 230/230/230 234/234/234 235/235/235
f 236/236/236 231/231/231 232/232/232
f 236/236/236 234/234/234 231/231/231
f 236/236/236 237/237/237 234/234/234
f 238/238/238 232/232/232 233/233/233
f 238/238/238 236/236/236 232/232/232
f 236/236/236 238/238/238 237/237/237
f 239/239/239 238/238/238 233/233/233
f 234/234/234 240/240/240 235/235/235
f 237/237/237 240/240/240 234/234/234
f 235/235/235 240/240/240 241/241/241
f 242/242/242 238/238/238 239/239/239
f 238/238/238 242/242/242 237/237/237
f 243/243/243 242/242/242 239/239/239
f 240/240/240 244/244/244 241/241/241
f 244/244/244 240/240/240 237/237/237
f 241/241/241 244/244/244 245/245/245
f 244/244/244 246/246/246 245/245/245
f 247/247/247 242/242/242 243/243/243
f 242/242/242 247/247/247 237/237/237
f 248/248/248 247/247/247 243/243/243
f 249/249/249 244/244/244 237/237/237
f 247/247/247 249/249/249 237/237/237
f 249/249/249 250/250/250 244/244/244
f 249/249/249 247/247/247 250/250/250
f 250/250/250 246/246/246 244/244/244
f 246/246/246 250/250/250 251/251/251
f 252/252/252 247/247/247 248/248/248
f 247/247/247 252/252/252 250/250/250
f 250/250/250 252/252/252 251/251/251
f 253/253/253 252/252/252 248/248/248
f 252/252/252 254/254/254 251/251/251
f 254/254/254 252/252/252 255/255/255
f 256/256/256 254/254/254 255/255/255
f 257/257/257 254/254/254 256/256/256
f 251/251/251 254/254/254 257/257/257
f 258/258/258 257/257/257 256/256/256
f 259/259/259 257/257/257 258/258/258
f 260/260/260 259/259/259 258/258/258
f 261/261/261 251/251/251 257/257/257
f 257/257/257 259/259/259 261/261/261
f 262/262/262 259/259/259 260/260/260
f 263/263/263 262/262/262 260/260/260
f 259/259/259 264/264/264 261/261/261
f 259/259/259 262/262/262 264/264/264
f 261/261/261 265/265/265 251/251/251
f 265/265/265 261/261/261 264/264/264
f 266/266/266 262/262/262 263/263/263
f 267/267/267 266/266/266 263/263/263
f 265/265/265 268/268/268 251/251/251
f 268/268/268 246/246/246 251/251/251
f 246/246/246 268/268/268 269/269/269
f 270/270/270 246/246/246 269/269/269
f 269/269/269 268/268/268 271/271/271
f 268/268/268 265/265/265 271/271/271
f 271/271/271 265/265/265 272/272/272
f 265/265/265 273/273/273 272/272/272
f 273/273/273 265/265/265 264/264/264
f 272/272/272 273/273/273 274/274/274
f 273/273/273 275/275/275 274/274/274
f 273/273/273 264/264/264 275/275/275
f 274/274/274 275/275/275 276/276/276
f 277/277/277 266/266/266 267/267/267
f 278/278/278 277/277/277 267/267/267
f 264/264/264 279/279/279 275/275/275
f 262/262/262 279/279/279 264/264/264
f 262/262/262 266/266/266 279/279/279
f 275/275/275 280/280/280 276/276/276
f 276/276/276 280/280/280 281/281/281
f 275/275/275 279/279/279 282/282/282
f 266/266/266 282/282/282 279/279/279
f 280/280/280 275/275/275 282/282/282
f 283/283/283 282/282/282 266/266/266
f 282/282/282 283/283/283 280/280/280
f 277/277/277 283/283/283 266/266/266
f 280/280/280 284/284/284 281/281/281
f 283/283/283 284/284/284 280/280/280
f 281/281/281 284/284/284 285/285/285
f 286/286/286 277/277/277 278/278/278
f 287/287/287 286/286/286 278/278/278
f 283/283/283 277/277/277 288/288/288
f 284/284/284 283/283/283 288/288/288
f 277/277/277 286/286/286 288/288/288
f 284/284/284 289/289/289 285/285/285
f 289/289/289 284/284/284 288/288/288
f 285/285/285 289/289/289 290/290/290
f 291/291/291 286/286/286 287/287/287
f 286/286/286 291/291/291 288/288/288
f 292/292/292 291/291/291 287/287/287
f 289/289/289 293/293/293 290/290/290
f 290/290/290 293/293/293 294/294/294
f 293/293/293 295/295/295 294/294/294
f 289/289/289 288/288/288 296/296/296
f 291/291/291 296/296/296 288/288/288
f 293/293/293 289/289/289 296/296/296
f 297/297/297 291/291/291 292/292/292
f 291/291/291 297/297/297 296/296/296
f 298/298/298 297/297/297 292/292/292
f 293/293/293 296/296/296 299/299/299
f 297/297/297 299/299/299 296/296/296
f 295/295/295 293/293/293 299/299/299
f 299/299/299 297/297/297 300/300/300
f 300/300/300 297/297/297 301/301/301
f 302/302/302 300/300/300 301/301/301
f 303/303/303 299/299/299 300/300/300
f 299/299/299 303/303/303 295/295/295
f 304/304/304 300/300/300 302/302/302
f 300/300/300 304/304/304 303/303/303
f 305/305/305 304/304/304 302/302/302
f 306/306/306 304/304/304 305/305/305
f 307/307/307 306/306/306 305/305/305
f 304/304/304 308/308/308 303/303/303
f 304/304/304 306/306/306 308/308/308
f 303/303/303 309/309/309 295/295/295
f 309/309/309 303/303/303 308/308/308
f 295/295/295 309/309/309 310/310/310
f 311/311/311 295/295/295 310/310/310
f 310/310/310 309/309/309 312/312/312
f 309/309/309 313/313/313 312/312/312
f 313/313/313 309/309/309 308/308/308
f 312/312/312 313/313/313 314/314/314
f 313/313/313 308/308/308 315/315/315
f 306/306/306 315/315/315 308/308/308
f 315/315/315 306/306/306 316/316/316
f 317/317/317 306/306/306 307/307/307
f 306/306/306 317/317/317 316/316/316
f 318/318/318 317/317/317 307/307/307
f 313/313/313 319/319/319 314/314/314
f 319/319/319 313/313/313 315/315/315
f 319/319/319 315/315/315 316/316/316
f 314/314/314 319/319/319 320/320/320
f 321/321/321 317/317/317 318/318/318
f 316/316/316 317/317/317 321/321/321
f 322/322/322 321/321/321 318/318/318
f 319/319/319 323/323/323 320/320/320
f 323/323/323 319/319/319 316/316/316
f 320/320/320 323/323/323 324/324/324
f 323/323/323 325/325/325 324/324/324
f 323/323/323 316/316/316 325/325/325
f 324/324/324 325/325/325 326/326/326
f 327/327/327 316/316/316 321/321/321
f 316/316/316 327/327/327 325/325/325
f 328/328/328 321/321/321 322/322/322
f 321/321/321 328/328/328 327/327/327
f 329/329/329 328/328/328 322/322/322
f 325/325/325 330/330/330 326/326/326
f 330/330/330 325/325/325 327/327/327
f 326/326/326 330/330/330 331/331/331
f 328/328/328 332/332/332 327/327/327
f 332/332/332 330/330/330 327/327/327
f 333/333/333 328/328/328 329/329/329
f 332/332/332 328/328/328 333/333/333
f 334/334/334 333/333/333 329/329/329
f 330/330/330 335/335/335 331/331/331
f 330/330/330 332/332/332 335/335/335
f 331/331/331 335/335/335 336/336/336
f 337/337/337 332/332/332 333/333/333
f 332/332/332 337/337/337 335/335/335
f 338/338/338 333/333/333 334/334/334
f 337/337/337 333/333/333 338/338/338
f 339/339/339 338/338/338 334/334/334
f 335/335/335 340/340/340 336/336/336
f 335/335/335 337/337/337 340/340/340
f 336/336/336 340/340/340 341/341/341
f 342/342/342 337/337/337 338/338/338
f 337/337/337 342/342/342 340/340/340
f 343/343/343 338/338/338 339/339/339
f 338/338/338 343/343/343 342/342/342
f 344/344/344 343/343/343 339/339/339
f 340/340/340 345/345/345 341/341/341
f 341/341/341 345/345/345 346/346/346
f 345/345/345 347/347/347 346/346/346
f 340/340/340 342/342/342 348/348/348
f 345/345/345 340/340/340 348/348/348
f 343/343/343 348/348/348 342/342/342
f 345/345/345 348/348/348 347/347/347
f 349/349/349 343/343/343 344/344/344
f 348/348/348 343/343/343 349/349/349
f 350/350/350 349/349/349 344/344/344
f 348/348/348 351/351/351 347/347/347
f 351/351/351 348/348/348 349/349/349
f 351/351/351 349/349/349 352/352/352
f 351/351/351 352/352/352 347/347/347
f 349/349/349 353/353/353 352/352/352
f 354/354/354 352/352/352 353/353/353
f 353/353/353 349/349/349 355/355/355
f 356/356/356 353/353/353 355/355/355
f 357/357/357 353/353/353 356/356/356
f 357/357/357 354/354/354 353/353/353
f 358/358/358 357/357/357 356/356/356
f 359/359/359 357/357/357 358/358/358
f 357/357/357 359/359/359 354/354/354
f 360/360/360 359/359/359 358/358/358
f 352/352/352 361/361/361 347/347/347
f 361/361/361 352/352/352 354/354/354
f 362/362/362 359/359/359 360/360/360
f 363/363/363 362/362/362 360/360/360
f 347/347/347 361/361/361 364/364/364
f 365/365/365 347/347/347 364/364/364
f 364/364/364 361/361/361 366/366/366
f 361/361/361 367/367/367 366/366/366
f 367/367/367 361/361/361 354/354/354
f 366/366/366 367/367/367 368/368/368
f 367/367/367 369/369/369 368/368/368
f 367/367/367 354/354/354 369/369/369
f 368/368/368 369/369/369 370/370/370
f 359/359/359 371/371/371 354/354/354
f 354/354/354 371/371/371 369/369/369
f 359/359/359 362/362/362 371/371/371
f 369/369/369 372/372/372 370/370/370
f 372/372/372 369/369/369 371/371/371
f 370/370/370 372/372/372 373/373/373
f 374/374/374 362/362/362 363/363/363
f 375/375/375 374/374/374 363/363/363
f 362/362/362 376/376/376 371/371/371
f 376/376/376 372/372/372 371/371/371
f 362/362/362 374/374/374 376/376/376
f 372/372/372 377/377/377 373/373/373
f 372/372/372 376/376/376 377/377/377
f 373/373/373 377/377/377 378/378/378
f 379/379/379 374/374/374 375/375/375
f 380/380/380 379/379/379 375/375/375
f 374/374/374 381/381/381 376/376/376
f 376/376/376 381/381/381 377/377/377
f 374/374/374 379/379/379 381/381/381
f 377/377/377 382/382/382 378/378/378
f 377/377/377 381/381/381 382/382/382
f 378/378/378 382/382/382 383/383/383
f 384/384/384 379/379/379 380/380/380
f 385/385/385 384/384/384 380/380/380
f 379/379/379 386/386/386 381/381/381
f 381/381/381 386/386/386 382/382/382
f 386/386/386 379/379/379 384/384/384
f 382/382/382 387/387/387 383/383/383
f 382/382/382 386/386/386 387/387/387
f 383/383/383 387/387/387 388/388/388
f 387/387/387 389/389/389 388/388/388
f 388/388/388 389/389/389 390/390/390
f 389/389/389 391/391/391 390/390/390
f 390/390/390 391/391/391 392/392/392
f 391/391/391 393/393/393 392/392/392
f 392/392/392 393/393/393 394/394/394
f 393/393/393 395/395/395 394/394/394
f 394/394/394 395/395/395 396/396/396
f 386/386/386 397/397/397 387/387/387
f 397/397/397 386/386/386 384/384/384
f 387/387/387 397/397/397 398/398/398
f 397/397/397 399/399/399 398/398/398
f 397/397/397 384/384/384 399/399/399
f 400/400/400 398/398/398 399/399/399
f 395/395/395 401/401/401 396/396/396
f 396/396/396 401/401/401 402/402/402
f 401/401/401 403/403/403 402/402/402
f 402/402/402 403/403/403 404/404/404
f 403/403/403 405/405/405 404/404/404
f 404/404/404 405/405/405 406/406/406
f 407/407/407 400/400/400 399/399/399
f 408/408/408 400/400/400 407/407/407
f 409/409/409 408/408/408 407/407/407
f 408/408/408 409/409/409 395/395/395
f 409/409/409 410/410/410 395/395/395
f 395/395/395 410/410/410 411/411/411
f 410/410/410 412/412/412 411/411/411
f 411/411/411 412/412/412 413/413/413
f 412/412/412 414/414/414 413/413/413
f 413/413/413 414/414/414 405/405/405
f 414/414/414 415/415/415 405/405/405
f 405/405/405 416/416/416 406/406/406
f 405/405/405 415/415/415 416/416/416
f 406/406/406 416/416/416 417/417/417
f 416/416/416 418/418/418 417/417/417
f 417/417/417 418/418/418 419/419/419
f 418/418/418 420/420/420 419/419/419
f 419/419/419 420/420/420 421/421/421
f 418/418/418 416/416/416 422/422/422
f 418/418/418 422/422/422 420/420/420
f 420/420/420 423/423/423 421/421/421
f 421/421/421 423/423/423 424/424/424
f 415/415/415 425/425/425 416/416/416
f 416/416/416 425/425/425 422/422/422
f 420/420/420 426/426/426 423/423/423
f 422/422/422 426/426/426 420/420/420
f 423/423/423 427/427/427 424/424/424
f 424/424/424 427/427/427 428/428/428
f 426/426/426 429/429/429 423/423/423
f 423/423/423 429/429/429 427/427/427
f 427/427/427 430/430/430 428/428/428
f 428/428/428 430/430/430 431/431/431
f 430/430/430 432/432/432 431/431/431
f 433/433/433 432/432/432 430/430/430
f 430/430/430 427/427/427 434/434/434
f 434/434/434 433/433/433 430/430/430
f 429/429/429 435/435/435 427/427/427
f 427/427/427 435/435/435 434/434/434
f 435/435/435 429/429/429 436/436/436
f 434/434/434 435/435/435 436/436/436
f 429/429/429 426/426/426 437/437/437
f 429/429/429 437/437/437 436/436/436
f 438/438/438 426/426/426 422/422/422
f 426/426/426 438/438/438 437/437/437
f 433/433/433 434/434/434 439/439/439
f 439/439/439 434/434/434 436/436/436
f 440/440/440 438/438/438 422/422/422
f 440/440/440 422/422/422 425/425/425
f 441/441/441 440/440/440 425/425/425
f 425/425/425 415/415/415 441/441/441
f 415/415/415 442/442/442 441/441/441
f 442/442/442 415/415/415 443/443/443
f 444/444/444 442/442/442 443/443/443
f 444/444/444 443/443/443 445/445/445
f 446/446/446 444/444/444 445/445/445
f 446/446/446 445/445/445 410/410/410
f 447/447/447 446/446/446 410/410/410
f 448/448/448 447/447/447 410/410/410
f 449/449/449 448/448/448 410/410/410
f 449/449/449 450/450/450 448/448/448
f 450/450/450 451/451/451 448/448/448
f 450/450/450 399/399/399 451/451/451
f 399/399/399 452/452/452 451/451/451
f 384/384/384 452/452/452 399/399/399
f 452/452/452 384/384/384 385/385/385
f 453/453/453 452/452/452 385/385/385
f 454/454/454 452/452/452 453/453/453
f 455/455/455 454/454/454 453/453/453
f 456/456/456 454/454/454 455/455/455
f 457/457/457 456/456/456 455/455/455
f 447/447/447 456/456/456 457/457/457
f 458/458/458 447/447/447 457/457/457
f 459/459/459 447/447/447 458/458/458
f 460/460/460 459/459/459 458/458/458
f 461/461/461 459/459/459 460/460/460
f 462/462/462 461/461/461 460/460/460
f 442/442/442 461/461/461 462/462/462
f 463/463/463 442/442/442 462/462/462
f 441/441/441 442/442/442 463/463/463
f 464/464/464 441/441/441 463/463/463
f 440/440/440 441/441/441 464/464/464
f 465/465/465 440/440/440 464/464/464
f 438/438/438 440/440/440 465/465/465
f 466/466/466 438/438/438 465/465/465
f 437/437/437 438/438/438 466/466/466
f 467/467/467 437/437/437 466/466/466
f 436/436/436 437/437/437 467/467/467
f 468/468/468 436/436/436 467/467/467
f 439/439/439 436/436/436 468/468/468
f 469/469/469 439/439/439 468/468/468
f 470/470/470 439/439/439 469/469/469
f 471/471/471 470/470/470 469/469/469
f 470/470/470 433/433/433 439/439/439
f 470/470/470 472/472/472 433/433/433
f 472/472/472 470/470/470 473/473/473
f 474/474/474 472/472/472 473/473/473
f 475/475/475 472/472/472 474/474/474
f 476/476/476 475/475/475 474/474/474
f 472/472/472 477/477/477 433/433/433
f 477/477/477 472/472/472 475/475/475
f 477/477/477 478/478/478 433/433/433
f 478/478/478 432/432/432 433/433/433
f 432/432/432 478/478/478 479/479/479
f 480/480/480 432/432/432 479/479/479
f 479/479/479 478/478/478 481/481/481
f 477/477/477 482/482/482 478/478/478
f 482/482/482 477/477/477 475/475/475
f 482/482/482 475/475/475 483/483/483
f 484/484/484 475/475/475 476/476/476
f 475/475/475 484/484/484 483/483/483
f 485/485/485 484/484/484 476/476/476
f 478/478/478 486/486/486 481/481/481
f 482/482/482 486/486/486 478/478/478
f 482/482/482 483/483/483 486/486/486
f 481/481/481 486/486/486 487/487/487
f 488/488/488 484/484/484 485/485/485
f 483/483/483 484/484/484 488/488/488
f 489/489/489 488/488/488 485/485/485
f 486/486/486 490/490/490 487/487/487
f 483/483/483 490/490/490 486/486/486
f 487/487/487 490/490/490 491/491/491
f 490/490/490 492/492/492 491/491/491
f 492/492/492 490/490/490 483/483/483
f 491/491/491 492/492/492 493/493/493
f 494/494/494 483/483/483 488/488/488
f 494/494/494 492/492/492 483/483/483
f 495/495/495 488/488/488 489/489/489
f 488/488/488 495/495/495 494/494/494
f 496/496/496 495/495/495 489/489/489
f 492/492/492 497/497/497 493/493/493
f 492/492/492 494/494/494 497/497/497
f 493/493/493 497/497/497 498/498/498
f 495/495/495 499/499/499 494/494/494
f 494/494/494 499/499/499 497/497/497
f 500/500/500 495/495/495 496/496/496
f 499/499/499 495/495/495 500/500/500
f 501/501/501 500/500/500 496/496/496
f 497/497/497 502/502/502 498/498/498
f 502/502/502 497/497/497 499/499/499
f 498/498/498 502/502/502 503/503/503
f 504/504/504 499/499/499 500/500/500
f 504/504/504 502/502/502 499/499/499
f 505/505/505 500/500/500 501/501/501
f 504/504/504 500/500/500 505/505/505
f 506/506/506 505/505/505 501/501/501
f 502/502/502 507/507/507 503/503/503
f 503/503/503 507/507/507 508/508/508
f 502/502/502 504/504/504 509/509/509
f 509/509/509 504/504/504 505/505/505
f 507/507/507 502/502/502 509/509/509
f 510/510/510 505/505/505 506/506/506
f 509/509/509 505/505/505 510/510/510
f 511/511/511 510/510/510 506/506/506
f 507/507/507 512/512/512 508/508/508
f 508/508/508 512/512/512 513/513/513
f 509/509/509 514/514/514 507/507/507
f 514/514/514 509/509/509 510/510/510
f 514/514/514 512/512/512 507/507/507
f 515/515/515 510/510/510 511/511/511
f 510/510/510 515/515/515 514/514/514
f 516/516/516 515/515/515 511/511/511
f 512/512/512 517/517/517 513/513/513
f 512/512/512 514/514/514 517/517/517
f 513/513/513 517/517/517 518/518/518
f 517/517/517 519/519/519 518/518/518
f 514/514/514 520/520/520 517/517/517
f 517/517/517 520/520/520 519/519/519
f 515/515/515 520/520/520 514/514/514
f 520/520/520 521/521/521 519/519/519
f 522/522/522 521/521/521 520/520/520
f 515/515/515 522/522/522 520/520/520
f 522/522/522 515/515/515 516/516/516
f 523/523/523 522/522/522 516/516/516
