g tb_geo_meeple_p3c2_b_mesh
v -2.5720856 1.3323855 0.16533417
v -2.1910627 1.3323884 -1.5975091
v -2.1933923 1.3323852 0.16583449
v -2.569756 1.3323888 -1.5980096
v -2.054974 1.3323858 0.1667257
v -2.1711097 1.3323877 -0.5775969
v -1.7608683 1.3323854 -0.07183236
v -2.4652154 1.332388 -0.33903885
v -1.7691789 1.332383 0.12283711
v -3.0732098 1.3323904 -0.12577467
v -1.7725976 1.3323828 -0.14253049
v -3.069791 1.3323907 0.13959293
v -2.6813953 1.269289 -1.38475
v -2.3018596 1.2692897 -2.0225317
v -2.3027027 1.2692885 -1.3842497
v -2.6805522 1.2692902 -2.023032
v -2.737448 1.2329141 -1.7338426
v -2.0667865 1.2322959 -1.834852
v -2.6286397 1.2341523 -1.5319932
v -2.1755948 1.2310576 -2.0367014
v -3.2967231 1.302577 -0.74065006
v -2.696174 1.2271976 -2.1677394
v -2.7234592 1.2853447 -0.7290813
v -3.2694378 1.24443 -2.179308
v -2.7414193 1.3245152 -0.75393414
v -2.5470538 1.2962371 -1.441283
v -2.560155 1.3190396 -0.7503166
v -2.7283182 1.3017128 -1.4449005
v -3.293158 1.3245151 -0.13909519
v -3.0987945 1.2962368 -0.8264505
v -3.1118956 1.3190395 -0.13547766
v -3.280057 1.3017124 -0.83006805
vt 0 0
vt 1 1
vt 1 0
vt 0 1
vt 0 0
vt 1 1
vt 1 0
vt 0 1
vt 0 0
vt 1 1
vt 1 0
vt 0 1
vt 0 0
vt 1 1
vt 1 0
vt 0 1
vt 0 0
vt 1 1
vt 1 0
vt 0 1
vt 0 0
vt 1 1
vt 1 0
vt 0 1
vt 0 0
vt 1 1
vt 1 0
vt 0 1
vt 0 0
vt 1 1
vt 1 0
vt 0 1
vn 1.1599146E-06 1 1.8090946E-06
vn 1.1599146E-06 1 1.8090946E-06
vn 1.1599146E-06 1 1.8090946E-06
vn 1.1599146E-06 1 1.8090946E-06
vn 2.9240878E-06 1 2.2524353E-06
vn 2.9240878E-06 1 2.2524353E-06
vn 2.9240878E-06 1 2.2524353E-06
vn 2.9240878E-06 1 2.2524353E-06
vn 5.768937E-06 1 -1.0030627E-06
vn 5.768937E-06 1 -1.0030627E-06
vn 5.768937E-06 1 -1.0030627E-06
vn 5.768937E-06 1 -1.0030627E-06
vn 1.1599146E-06 1 1.8090964E-06
vn 1.1599146E-06 1 1.8090964E-06
vn 1.1599146E-06 1 1.8090964E-06
vn 1.1599146E-06 1 1.8090964E-06
vn -2.1180733E-06 0.99998116 -0.006133464
vn -2.1180733E-06 0.99998116 -0.006133464
vn -2.1180733E-06 0.99998116 -0.006133464
vn -2.1180733E-06 0.99998116 -0.006133464
vn 0.030824663 0.99873286 -0.039781712
vn 0.030824663 0.99873286 -0.039781712
vn 0.030824663 0.99873286 -0.039781712
vn 0.030824663 0.99873286 -0.039781712
vn 0.030824369 0.9990001 -0.032383364
vn 0.030824369 0.9990001 -0.032383364
vn 0.030824369 0.9990001 -0.032383364
vn 0.030824369 0.9990001 -0.032383364
vn 0.030824436 0.9990001 -0.0323836
vn 0.030824436 0.9990001 -0.0323836
vn 0.030824436 0.9990001 -0.0323836
vn 0.030824436 0.9990001 -0.0323836
g tb_geo_meeple_p3c2_b_mesh_0
f 3/3/3 2/2/2 1/1/1
f 4/4/4 1/1/1 2/2/2
f 7/7/7 6/6/6 5/5/5
f 8/8/8 5/5/5 6/6/6
f 11/11/11 10/10/10 9/9/9
f 12/12/12 9/9/9 10/10/10
f 15/15/15 14/14/14 13/13/13
f 16/16/16 13/13/13 14/14/14
f 19/19/19 18/18/18 17/17/17
f 20/20/20 17/17/17 18/18/18
f 23/23/23 22/22/22 21/21/21
f 24/24/24 21/21/21 22/22/22
f 27/27/27 26/26/26 25/25/25
f 28/28/28 25/25/25 26/26/26
f 31/31/31 30/30/30 29/29/29
f 32/32/32 29/29/29 30/30/30
