g tb_geo_light_wall_09_mesh
v 0.18516281 0.34848768 0.76510006
v 0.18516281 -0.3333394 0.76510006
v 0.18516281 -0.3333394 0.3710363
v 0.18516281 0.34848768 0.3710363
v 0.18516281 -0.3333394 0.76510006
v 0.18516281 0.34848768 0.76510006
v -0.7468465 0.34848768 0.76510006
v -0.7468465 -0.3333394 0.76510006
v -0.7468465 0.34848768 0.44082958
v -0.7468465 -0.3333394 0.44082958
v -0.7468465 -0.3333394 0.76510006
v -0.7468465 0.34848768 0.76510006
v -0.54605645 0.34848768 0.44082958
v -0.54605645 -0.3333394 0.44082958
v -0.7468465 -0.3333394 0.44082958
v -0.7468465 0.34848768 0.44082958
v -0.30553794 0.34848768 0.20031106
v -0.30553794 -0.3333394 0.20031106
v -0.54605645 -0.3333394 0.44082958
v -0.54605645 0.34848768 0.44082958
v 0.019806325 0.34848768 0.20031106
v 0.019806325 -0.3333394 0.20031106
v -0.30553794 -0.3333394 0.20031106
v -0.30553794 0.34848768 0.20031106
v 0.18516281 0.34848768 0.3710363
v 0.18516281 -0.3333394 0.3710363
v 0.019806325 -0.3333394 0.20031106
v 0.019806325 0.34848768 0.20031106
vt 0.09806597 0.0014529228
vt 0.09806597 0.9991305
vt 0.67774415 0.9991305
vt 0.67774415 0.0014529228
vt 0.09806597 0.9991305
vt 0.09806597 0.0014529228
vt -1.2663469 0.0014529228
vt -1.2663469 0.9991305
vt -1.7415254 0.0014529228
vt -1.7415254 0.9991305
vt -1.2663469 0.9991305
vt -1.2663469 0.0014529228
vt 2.0007515 0.0014529228
vt 2.0007515 0.9991305
vt 2.294534 0.9991305
vt 2.294534 0.0014529228
vt 1.5019128 0.0014529228
vt 1.5019128 0.9991305
vt 2.0007515 0.9991305
vt 2.0007515 0.0014529228
vt 1.0247626 0.0014529228
vt 1.0247626 0.9991305
vt 1.5019128 0.9991305
vt 1.5019128 0.0014529228
vt 0.67774415 0.0014529228
vt 0.67774415 0.9991305
vt 1.0247626 0.9991305
vt 1.0247626 0.0014529228
vn -0.999874 0.015871048 -0.00034391563
vn -0.999874 0.015871048 -0.00034391563
vn -0.999874 0.015871048 -0.00034391563
vn -0.999874 0.015871048 -0.00034391563
vn -0.015871048 0.015871048 -0.99974805
vn -0.015871048 0.015871048 -0.99974805
vn -0.015871048 0.015871048 -0.99974805
vn -0.015871048 0.015871048 -0.99974805
vn 0.999874 0.015871048 -0.00034391563
vn 0.999874 0.015871048 -0.00034391563
vn 0.999874 0.015871048 -0.00034391563
vn 0.999874 0.015871048 -0.00034391563
vn -0.015871048 0.015871048 0.99974805
vn -0.015871048 0.015871048 0.99974805
vn -0.015871048 0.015871048 0.99974805
vn -0.015871048 0.015871048 0.99974805
vn 0.7141957 0.015871048 0.6997661
vn 0.7141957 0.015871048 0.6997661
vn 0.7141957 0.015871048 0.6997661
vn 0.7141957 0.015871048 0.6997661
vn -0.015871048 0.015871048 0.99974805
vn -0.015871048 0.015871048 0.99974805
vn -0.015871048 0.015871048 0.99974805
vn -0.015871048 0.015871048 0.99974805
vn -0.7141957 0.015871048 0.6997661
vn -0.7141957 0.015871048 0.6997661
vn -0.7141957 0.015871048 0.6997661
vn -0.7141957 0.015871048 0.6997661
g tb_geo_light_wall_09_mesh_0
f 3/3/3 2/2/2 1/1/1
f 4/4/4 3/3/3 1/1/1
f 7/7/7 6/6/6 5/5/5
f 8/8/8 7/7/7 5/5/5
f 11/11/11 10/10/10 9/9/9
f 12/12/12 11/11/11 9/9/9
f 15/15/15 14/14/14 13/13/13
f 16/16/16 15/15/15 13/13/13
f 19/19/19 18/18/18 17/17/17
f 20/20/20 19/19/19 17/17/17
f 23/23/23 22/22/22 21/21/21
f 24/24/24 23/23/23 21/21/21
f 27/27/27 26/26/26 25/25/25
f 28/28/28 27/27/27 25/25/25
