g tb_geo_meeple_p2c2_b_mesh
v -0.9324878 1.4248219 -0.5483756
v 0.21640414 1.4189677 0.29598475
v -0.92450684 1.4248211 0.3066343
v 0.2084232 1.4189684 -0.55902517
v -0.9859643 1.3751656 -1.1169571
v -0.07348731 1.4304723 -0.58814645
v -0.98094916 1.375165 -0.57967603
v -0.07850239 1.4304729 -1.1254275
v 0.1392208 1.3282998 -1.4333693
v -0.0746544 1.3423388 -0.79412353
v -0.30372345 1.356768 -1.130576
v 0.36828983 1.3138705 -1.0969168
v -1.9276835 1.3179374 -1.1124384
v -1.0158929 1.3732443 -0.6572311
v -1.9233553 1.3179369 -0.6487607
v -1.020221 1.3732448 -1.1209089
v -1.9682089 1.3487525 0.23057914
v -1.512432 1.3600378 -0.682536
v -1.5053827 1.3769609 0.22646469
v -1.9752582 1.3318294 -0.67842156
v -0.8503423 1.3390275 1.3303525
v -0.88997865 1.3374759 -0.25915146
v -0.07533169 1.322561 0.5405965
v -1.6649892 1.3539424 0.5306046
v 0.3548873 1.2704682 1.2021322
v -0.74814886 1.315062 0.45601225
v 0.35916883 1.2517056 0.46404624
v -0.7524304 1.3338246 1.1940982
vt 0 0
vt 1 1
vt 1 0
vt 0 1
vt 0 0
vt 1 1
vt 1 0
vt 0 1
vt 0 0
vt 1 1
vt 1 0
vt 0 1
vt 0 0
vt 1 1
vt 1 0
vt 0 1
vt 0 0
vt 1 1
vt 1 0
vt 0 1
vt 0 0
vt 1 1
vt 1 0
vt 0 1
vt 0 0
vt 1 1
vt 1 0
vt 0 1
vn 0.0051299506 0.9999868 -4.7097994E-05
vn 0.0051299506 0.9999868 -4.7097994E-05
vn 0.0051299506 0.9999868 -4.7097994E-05
vn 0.0051299506 0.9999868 -4.7097994E-05
vn -0.060829 0.998148 0.00056879374
vn -0.060829 0.998148 0.00056879374
vn -0.060829 0.998148 0.00056879374
vn -0.060829 0.998148 0.00056879374
vn 0.063734345 0.9979667 -0.0005933696
vn 0.063734345 0.9979667 -0.0005933696
vn 0.063734345 0.9979667 -0.0005933696
vn 0.063734345 0.9979667 -0.0005933696
vn -0.06082901 0.998148 0.0005687938
vn -0.06082901 0.998148 0.0005687938
vn -0.06082901 0.998148 0.0005687938
vn -0.06082901 0.998148 0.0005687938
vn -0.06098549 0.99797434 -0.018106544
vn -0.06098549 0.99797434 -0.018106544
vn -0.06098549 0.99797434 -0.018106544
vn -0.06098549 0.99797434 -0.018106544
vn 0.019746363 0.9998039 -0.0014684263
vn 0.019746363 0.9998039 -0.0014684263
vn 0.019746363 0.9998039 -0.0014684263
vn 0.019746363 0.9998039 -0.0014684263
vn 0.05728582 0.9980438 -0.025038568
vn 0.05728582 0.9980438 -0.025038568
vn 0.05728582 0.9980438 -0.025038568
vn 0.05728582 0.9980438 -0.025038568
g tb_geo_meeple_p2c2_b_mesh_0
f 3/3/3 2/2/2 1/1/1
f 4/4/4 1/1/1 2/2/2
f 7/7/7 6/6/6 5/5/5
f 8/8/8 5/5/5 6/6/6
f 11/11/11 10/10/10 9/9/9
f 12/12/12 9/9/9 10/10/10
f 15/15/15 14/14/14 13/13/13
f 16/16/16 13/13/13 14/14/14
f 19/19/19 18/18/18 17/17/17
f 20/20/20 17/17/17 18/18/18
f 23/23/23 22/22/22 21/21/21
f 24/24/24 21/21/21 22/22/22
f 27/27/27 26/26/26 25/25/25
f 28/28/28 25/25/25 26/26/26
