g tb_geo_light_outline_06_mesh
v 0.5408695 0.014962375 0.31691426
v 0.5123268 0.014962375 0.31090528
v 0.54237175 0.014962375 0.31090528
v 0.5123268 0.014962375 0.31691426
v 0.537865 0.014962375 0.32142097
v 0.5123268 0.014962375 0.32142097
v 0.48077956 0.014962375 0.31691426
v 0.48077956 0.014962375 0.31090528
v 0.44923234 0.014962375 0.31090528
v 0.48077956 0.014962375 0.32142097
v 0.44923234 0.014962375 0.31691426
v 0.44923234 0.014962375 0.32142097
v 0.5408695 0.014962375 0.31691426
v 0.54237175 0.014962375 0.31090528
v 0.5603987 0.014962375 0.32893223
v 0.555892 0.014962375 0.33193678
v 0.5784257 0.0134601 0.34695917
v 0.55288744 0.014962375 0.33644348
v 0.537865 0.014962375 0.32142097
v 0.57091445 0.0134601 0.35447043
v 0.57391894 0.0134601 0.34996372
v 0.59344816 0.011957884 0.3619817
v 0.58894145 0.0134601 0.3724975
v 0.5904437 0.0134601 0.36799067
v 0.7617 0.18171191 0.77509993
v 0.7571932 0.16668946 0.74205047
v 0.7617 0.16668946 0.74205047
v 0.7571932 0.1802097 0.7705932
v 0.725646 0.1802097 0.7705932
v 0.725646 0.18171191 0.77509993
v 0.68959206 0.18321419 0.77509993
v 0.68959206 0.1802097 0.7705932
v 0.6535381 0.18321419 0.77509993
v 0.6535381 0.1802097 0.7705932
v 0.61898637 0.1802097 0.7705932
v 0.61898637 0.18321419 0.77509993
v 0.5829324 0.1802097 0.7705932
v 0.5829324 0.18321419 0.77509993
v 0.61898637 0.17720515 0.76458424
v 0.5829324 0.17720515 0.76458424
v 0.6535381 0.1802097 0.7705932
v 0.6535381 0.17720515 0.76458424
v 0.68959206 0.17720515 0.76458424
v 0.68959206 0.1802097 0.7705932
v 0.725646 0.1802097 0.7705932
v 0.725646 0.17720515 0.76458424
v 0.7511842 0.17720515 0.76458424
v 0.7571932 0.1802097 0.7705932
v 0.7571932 0.16668946 0.74205047
v 0.7511842 0.16668946 0.74205047
v 0.7511842 0.15316921 0.71651226
v 0.7571932 0.15316921 0.71651226
v 0.7511842 0.13964897 0.6894718
v 0.7617 0.15316921 0.71651226
v 0.7617 0.16668946 0.74205047
v 0.7617 0.13964897 0.6894718
v 0.7571932 0.13964897 0.6894718
v 0.7511842 0.12763101 0.6639336
v 0.7617 0.12763101 0.6639336
v 0.7571932 0.12763101 0.6639336
v 0.26295355 0.032989323 0.31090528
v 0.24943334 0.032989323 0.33343893
v 0.24642885 0.0344916 0.32893223
v 0.26595807 0.032989323 0.31691426
v 0.29149628 0.029984832 0.31691426
v 0.29149628 0.031487107 0.31090528
v 0.3230435 0.028482616 0.31090528
v 0.26746032 0.032989323 0.32142097
v 0.25394005 0.032989323 0.33644348
v 0.2329086 0.0344916 0.34996372
v 0.23741531 0.0344916 0.35447043
v 0.29149628 0.029984832 0.32142097
v 0.3230435 0.028482616 0.31691426
v 0.3230435 0.028482616 0.32142097
v 0.3545907 0.025478125 0.31090528
v 0.3545907 0.025478125 0.32142097
v 0.3545907 0.025478125 0.31691426
v 0.3861379 0.022473633 0.31090528
v 0.3861379 0.022473633 0.32142097
v 0.3861379 0.022473633 0.31691426
v 0.41768512 0.019469082 0.31691426
v 0.41768512 0.017966866 0.31090528
v 0.44923234 0.014962375 0.31090528
v 0.41768512 0.019469082 0.32142097
v 0.44923234 0.014962375 0.31691426
v 0.44923234 0.014962375 0.32142097
v 0.737664 0.032989323 0.40554696
v 0.7406685 0.032989323 0.40104014
v 0.7617 0.04050058 0.42056936
v 0.7571932 0.04050058 0.4235739
v 0.7511842 0.038998365 0.4250762
v 0.7346595 0.032989323 0.4085514
v 0.7511842 0.043505073 0.45211655
v 0.7571932 0.045007348 0.45211655
v 0.7617 0.045007348 0.45211655
v 0.7617 0.045007348 0.45211655
v 0.7617 0.052518547 0.47915703
v 0.7571932 0.052518547 0.47915703
v 0.7571932 0.045007348 0.45211655
v 0.7511842 0.043505073 0.45211655
v 0.7511842 0.052518547 0.47915703
v 0.7571932 0.11411077 0.6098526
v 0.7617 0.09908825 0.5843144
v 0.7617 0.11411077 0.6098526
v 0.7571932 0.09908825 0.5843144
v 0.7511842 0.10059053 0.5843144
v 0.7511842 0.11260849 0.6098526
v 0.7617 0.12011975 0.6368931
v 0.7571932 0.11411077 0.6098526
v 0.7617 0.11411077 0.6098526
v 0.7571932 0.12011975 0.6368931
v 0.7511842 0.12011975 0.6368931
v 0.7511842 0.11260849 0.6098526
v 0.7571932 0.12763101 0.6639336
v 0.7617 0.12011975 0.6368931
v 0.7617 0.12763101 0.6639336
v 0.7571932 0.12011975 0.6368931
v 0.7511842 0.12011975 0.6368931
v 0.7511842 0.12763101 0.6639336
v 0.7001078 0.011957884 0.3619817
v 0.72113925 0.011957884 0.3815109
v 0.71813476 0.011957884 0.38601762
v 0.69860554 0.011957884 0.36799067
v 0.6745696 0.011957884 0.36799067
v 0.6745696 0.011957884 0.3619817
v 0.6971033 0.011957884 0.3724975
v 0.71362805 0.011957884 0.38902217
v 0.6745696 0.011957884 0.3724975
v 0.6505336 0.011957884 0.3724975
v 0.6505336 0.011957884 0.36799067
v 0.6505336 0.011957884 0.3619817
v 0.737664 0.032989323 0.40554696
v 0.72113925 0.011957884 0.3815109
v 0.7406685 0.032989323 0.40104014
v 0.71813476 0.011957884 0.38601762
v 0.7346595 0.032989323 0.4085514
v 0.71362805 0.011957884 0.38902217
v 0.44021887 0.17570293 0.7705932
v 0.47477058 0.17870742 0.77509993
v 0.44021887 0.17720515 0.77509993
v 0.47477058 0.17420065 0.7705932
v 0.47477058 0.17119616 0.76458424
v 0.44021887 0.17269844 0.76458424
v 0.51082456 0.16969395 0.76458424
v 0.51082456 0.17269844 0.7705932
v 0.47477058 0.17119616 0.76458424
v 0.296003 0.1877209 0.77509993
v 0.33205697 0.18321419 0.7705932
v 0.33205697 0.18621868 0.77509993
v 0.296003 0.1847164 0.7705932
v 0.2614513 0.1847164 0.7705932
v 0.2614513 0.1877209 0.77509993
v 0.296003 0.18171191 0.76458424
v 0.33205697 0.18171191 0.76458424
v 0.2614513 0.18321419 0.76458424
v 0.22539735 0.18621868 0.7705932
v 0.22539735 0.18922317 0.77509993
v 0.22539735 0.18321419 0.76458424
v 0.19535238 0.18922317 0.77509993
v 0.19985914 0.18621868 0.7705932
v 0.20586812 0.18321419 0.76458424
v 0.19535238 0.17119616 0.74205047
v 0.20586812 0.17119616 0.74205047
v 0.19985914 0.17119616 0.74205047
v 0.19535238 0.15467143 0.71200556
v 0.19985914 0.15467143 0.71200556
v 0.20586812 0.15467143 0.71200556
v 0.20586812 0.1381467 0.6819605
v 0.19985914 0.1381467 0.6819605
v 0.19535238 0.1381467 0.6819605
v 0.33205697 0.18321419 0.7705932
v 0.36811092 0.18171191 0.77509993
v 0.33205697 0.18621868 0.77509993
v 0.36811092 0.17870742 0.7705932
v 0.33205697 0.18171191 0.76458424
v 0.40416488 0.17720515 0.77509993
v 0.36811092 0.17720515 0.76458424
v 0.40416488 0.17420065 0.7705932
v 0.40416488 0.17119616 0.76458424
v 0.40416488 0.17420065 0.7705932
v 0.44021887 0.17720515 0.77509993
v 0.40416488 0.17720515 0.77509993
v 0.44021887 0.17570293 0.7705932
v 0.40416488 0.17119616 0.76458424
v 0.44021887 0.17269844 0.76458424
v 0.47477058 0.17420065 0.7705932
v 0.51082456 0.17269844 0.7705932
v 0.51082456 0.17720515 0.77509993
v 0.47477058 0.17870742 0.77509993
v 0.51082456 0.17269844 0.7705932
v 0.54687846 0.17870742 0.77509993
v 0.51082456 0.17720515 0.77509993
v 0.54687846 0.17570293 0.7705932
v 0.51082456 0.16969395 0.76458424
v 0.54687846 0.16969395 0.76458424
v 0.54687846 0.17570293 0.7705932
v 0.5829324 0.1802097 0.7705932
v 0.5829324 0.18321419 0.77509993
v 0.54687846 0.17870742 0.77509993
v 0.19985914 0.032989323 0.38601762
v 0.19535238 0.035993814 0.41155595
v 0.19535238 0.032989323 0.38451546
v 0.19985914 0.0344916 0.41155595
v 0.20586812 0.032989323 0.41155595
v 0.20586812 0.032989323 0.3875199
v 0.19985914 0.0344916 0.41155595
v 0.19535238 0.042002857 0.44160086
v 0.19535238 0.035993814 0.41155595
v 0.19985914 0.04050058 0.44160086
v 0.20586812 0.032989323 0.41155595
v 0.20586812 0.038998365 0.44160086
v 0.19535238 0.042002857 0.44160086
v 0.19985914 0.05101633 0.47164577
v 0.19535238 0.05101633 0.47164577
v 0.19985914 0.04050058 0.44160086
v 0.20586812 0.038998365 0.44160086
v 0.20586812 0.049514055 0.47164577
v 0.19535238 0.05101633 0.47164577
v 0.19985914 0.06603879 0.5122065
v 0.19535238 0.06603879 0.5122065
v 0.19985914 0.05101633 0.47164577
v 0.20586812 0.049514055 0.47164577
v 0.20586812 0.06453657 0.5122065
v 0.19985914 0.06603879 0.5122065
v 0.19985914 0.06904328 0.5317357
v 0.19535238 0.06754106 0.5317357
v 0.19535238 0.06603879 0.5122065
v 0.19535238 0.07505232 0.56178075
v 0.19535238 0.06754106 0.5317357
v 0.19985914 0.06904328 0.5317357
v 0.19985914 0.07655454 0.56178075
v 0.19535238 0.08256352 0.59182566
v 0.19985914 0.084065795 0.59182566
v 0.20586812 0.084065795 0.59182566
v 0.20586812 0.07655454 0.56178075
v 0.20586812 0.06904328 0.5317357
v 0.19985914 0.084065795 0.59182566
v 0.19535238 0.09608376 0.6218707
v 0.19535238 0.08256352 0.59182566
v 0.19985914 0.09608376 0.6218707
v 0.20586812 0.094581544 0.6218707
v 0.20586812 0.084065795 0.59182566
v 0.19535238 0.12162197 0.6519156
v 0.19535238 0.09608376 0.6218707
v 0.19985914 0.09608376 0.6218707
v 0.19985914 0.12011975 0.6519156
v 0.20586812 0.12011975 0.6519156
v 0.20586812 0.094581544 0.6218707
v 0.19535238 0.12162197 0.6519156
v 0.19985914 0.1381467 0.6819605
v 0.19535238 0.1381467 0.6819605
v 0.19985914 0.12011975 0.6519156
v 0.20586812 0.12011975 0.6519156
v 0.20586812 0.1381467 0.6819605
v 0.19985914 0.032989323 0.38601762
v 0.19535238 0.032989323 0.38451546
v 0.21337938 0.0344916 0.36498624
v 0.21638387 0.0344916 0.36799067
v 0.20586812 0.032989323 0.3875199
v 0.22089058 0.0344916 0.3724975
v 0.2329086 0.0344916 0.34996372
v 0.22990412 0.0344916 0.34695917
v 0.24943334 0.032989323 0.33343893
v 0.2329086 0.0344916 0.34996372
v 0.22990412 0.0344916 0.34695917
v 0.24642885 0.0344916 0.32893223
v 0.61898637 0.011957884 0.3619817
v 0.6505336 0.011957884 0.3619817
v 0.6505336 0.011957884 0.36799067
v 0.61898637 0.011957884 0.36799067
v 0.59344816 0.011957884 0.3619817
v 0.5904437 0.0134601 0.36799067
v 0.58894145 0.0134601 0.3724975
v 0.61898637 0.0134601 0.3724975
v 0.61898637 0.0134601 0.3724975
v 0.6505336 0.011957884 0.3724975
v 0.5829324 0.1802097 0.7705932
v 0.54687846 0.17570293 0.7705932
v 0.54687846 0.16969395 0.76458424
v 0.5829324 0.17720515 0.76458424
v 0.20586812 0.06453657 0.5122065
v 0.20586812 0.06904328 0.5317357
v 0.19985914 0.06904328 0.5317357
v 0.19985914 0.06603879 0.5122065
v 0.21638387 0.0344916 0.36799067
v 0.2329086 0.0344916 0.34996372
v 0.23741531 0.0344916 0.35447043
v 0.22089058 0.0344916 0.3724975
v 0.54237175 -0.02109158 0.31090528
v 0.54237175 0.014962375 0.31090528
v 0.5123268 0.014962375 0.31090528
v 0.5123268 -0.02109158 0.31090528
v 0.48077956 0.014962375 0.31090528
v 0.48077956 -0.02109158 0.31090528
v 0.44923234 0.014962375 0.31090528
v 0.44923234 -0.02109158 0.31090528
v 0.41768512 0.017966866 0.31090528
v 0.41768512 -0.018087089 0.31090528
v 0.3861379 0.022473633 0.31090528
v 0.3861379 -0.013580382 0.31090528
v 0.3545907 0.025478125 0.31090528
v 0.3545907 -0.010575831 0.31090528
v 0.3230435 0.028482616 0.31090528
v 0.3230435 -0.009073615 0.31090528
v 0.29149628 0.031487107 0.31090528
v 0.29149628 -0.0060691237 0.31090528
v 0.26295355 0.032989323 0.31090528
v 0.26295355 -0.0030646324 0.31090528
v 0.5603987 -0.02109158 0.32893223
v 0.54237175 0.014962375 0.31090528
v 0.54237175 -0.02109158 0.31090528
v 0.5603987 0.014962375 0.32893223
v 0.5784257 -0.022593856 0.34695917
v 0.5784257 0.0134601 0.34695917
v 0.59344816 -0.024096072 0.3619817
v 0.59344816 0.011957884 0.3619817
v 0.7617 0.15467143 0.77509993
v 0.7617 0.18171191 0.77509993
v 0.7617 0.16668946 0.74205047
v 0.7617 0.1306355 0.74205047
v 0.7617 0.15316921 0.71651226
v 0.7617 0.11711526 0.71651226
v 0.7617 0.13964897 0.6894718
v 0.7617 0.10359502 0.6894718
v 0.7617 0.12763101 0.6639336
v 0.7617 0.09007478 0.6639336
v 0.7617 0.12011975 0.6368931
v 0.7617 0.084065795 0.6368931
v 0.7617 0.11411077 0.6098526
v 0.7617 0.07805681 0.6098526
v 0.7617 0.09908825 0.5843144
v 0.7617 0.06153208 0.5843144
v 0.7617 0.087070286 0.5572739
v 0.7617 0.05101633 0.5572739
v 0.7617 0.07655454 0.5317357
v 0.7617 0.04050058 0.5317357
v 0.7617 0.06453657 0.50469524
v 0.7617 0.028482616 0.50469524
v 0.7617 0.052518547 0.47915703
v 0.7617 0.016464591 0.47915703
v 0.7617 0.045007348 0.45211655
v 0.7617 0.0089533925 0.45211655
v 0.7617 0.04050058 0.42056936
v 0.7617 0.0044466257 0.42056936
v 0.26295355 -0.0030646324 0.31090528
v 0.26295355 0.032989323 0.31090528
v 0.24642885 0.0344916 0.32893223
v 0.24642885 -0.0030646324 0.32893223
v 0.22990412 0.0344916 0.34695917
v 0.22990412 -0.001562357 0.34695917
v 0.21337938 0.0344916 0.36498624
v 0.21337938 -0.0030646324 0.36498624
v 0.19535238 0.032989323 0.38451546
v 0.19535238 -0.0030646324 0.38451546
v 0.61898637 -0.024096072 0.3619817
v 0.59344816 0.011957884 0.3619817
v 0.59344816 -0.024096072 0.3619817
v 0.61898637 0.011957884 0.3619817
v 0.6505336 -0.025598347 0.3619817
v 0.6505336 0.011957884 0.3619817
v 0.6745696 -0.025598347 0.3619817
v 0.6745696 0.011957884 0.3619817
v 0.7001078 -0.025598347 0.3619817
v 0.7001078 0.011957884 0.3619817
v 0.7617 0.0044466257 0.42056936
v 0.7617 0.04050058 0.42056936
v 0.7406685 0.032989323 0.40104014
v 0.7406685 -0.0030646324 0.40104014
v 0.72113925 0.011957884 0.3815109
v 0.72113925 -0.025598347 0.3815109
v 0.7001078 0.011957884 0.3619817
v 0.7001078 -0.025598347 0.3619817
v 0.19535238 0.13363999 0.74205047
v 0.19535238 0.18922317 0.77509993
v 0.19535238 0.16218269 0.77509993
v 0.19535238 0.17119616 0.74205047
v 0.19535238 0.118617475 0.71200556
v 0.19535238 0.15467143 0.71200556
v 0.19535238 0.10209274 0.6819605
v 0.19535238 0.1381467 0.6819605
v 0.19535238 0.084065795 0.6519156
v 0.19535238 0.12162197 0.6519156
v 0.19535238 0.05852759 0.6218707
v 0.19535238 0.09608376 0.6218707
v 0.19535238 0.046509564 0.59182566
v 0.19535238 0.08256352 0.59182566
v 0.19535238 0.038998365 0.56178075
v 0.19535238 0.07505232 0.56178075
v 0.19535238 0.031487107 0.5317357
v 0.19535238 0.06754106 0.5317357
v 0.19535238 0.029984832 0.5122065
v 0.19535238 0.06603879 0.5122065
v 0.19535238 0.014962375 0.47164577
v 0.19535238 0.05101633 0.47164577
v 0.19535238 0.0044466257 0.44160086
v 0.19535238 0.042002857 0.44160086
v 0.19535238 -6.0141087E-05 0.41155595
v 0.19535238 0.035993814 0.41155595
v 0.19535238 -0.0030646324 0.38451546
v 0.19535238 0.032989323 0.38451546
v 0.725646 0.1561737 0.77509993
v 0.7617 0.18171191 0.77509993
v 0.7617 0.15467143 0.77509993
v 0.725646 0.18171191 0.77509993
v 0.68959206 0.1561737 0.77509993
v 0.68959206 0.18321419 0.77509993
v 0.6535381 0.1561737 0.77509993
v 0.6535381 0.18321419 0.77509993
v 0.61898637 0.1561737 0.77509993
v 0.61898637 0.18321419 0.77509993
v 0.5829324 0.15767592 0.77509993
v 0.5829324 0.18321419 0.77509993
v 0.54687846 0.15316921 0.77509993
v 0.54687846 0.17870742 0.77509993
v 0.51082456 0.15016472 0.77509993
v 0.51082456 0.17720515 0.77509993
v 0.47477058 0.15166694 0.77509993
v 0.47477058 0.17870742 0.77509993
v 0.44021887 0.15166694 0.77509993
v 0.44021887 0.17720515 0.77509993
v 0.40416488 0.15016472 0.77509993
v 0.40416488 0.17720515 0.77509993
v 0.36811092 0.15467143 0.77509993
v 0.36811092 0.18171191 0.77509993
v 0.33205697 0.1591782 0.77509993
v 0.33205697 0.18621868 0.77509993
v 0.296003 0.16068047 0.77509993
v 0.296003 0.1877209 0.77509993
v 0.2614513 0.16218269 0.77509993
v 0.2614513 0.1877209 0.77509993
v 0.22539735 0.16218269 0.77509993
v 0.22539735 0.18922317 0.77509993
v 0.19535238 0.16218269 0.77509993
v 0.19535238 0.18922317 0.77509993
v 0.26746032 -0.0045668483 0.32142097
v 0.26746032 0.032989323 0.32142097
v 0.29149628 0.029984832 0.32142097
v 0.29149628 -0.0060691237 0.32142097
v 0.3230435 0.028482616 0.32142097
v 0.3230435 -0.009073615 0.32142097
v 0.3545907 0.025478125 0.32142097
v 0.3545907 -0.012078106 0.32142097
v 0.3861379 0.022473633 0.32142097
v 0.3861379 -0.013580382 0.32142097
v 0.41768512 0.019469082 0.32142097
v 0.41768512 -0.018087089 0.32142097
v 0.44923234 0.014962375 0.32142097
v 0.44923234 -0.02109158 0.32142097
v 0.48077956 0.014962375 0.32142097
v 0.48077956 -0.02109158 0.32142097
v 0.5123268 0.014962375 0.32142097
v 0.5123268 -0.02109158 0.32142097
v 0.537865 0.014962375 0.32142097
v 0.537865 -0.02109158 0.32142097
v 0.537865 -0.02109158 0.32142097
v 0.537865 0.014962375 0.32142097
v 0.55288744 0.014962375 0.33644348
v 0.55288744 -0.02109158 0.33644348
v 0.57091445 0.0134601 0.35447043
v 0.57091445 -0.022593856 0.35447043
v 0.58894145 0.0134601 0.3724975
v 0.58894145 -0.024096072 0.3724975
v 0.58894145 -0.024096072 0.3724975
v 0.58894145 0.0134601 0.3724975
v 0.61898637 0.0134601 0.3724975
v 0.61898637 -0.022593856 0.3724975
v 0.6505336 0.011957884 0.3724975
v 0.6505336 -0.025598347 0.3724975
v 0.6745696 0.011957884 0.3724975
v 0.6745696 -0.025598347 0.3724975
v 0.6971033 0.011957884 0.3724975
v 0.6971033 -0.025598347 0.3724975
v 0.6971033 -0.025598347 0.3724975
v 0.6971033 0.011957884 0.3724975
v 0.71362805 0.011957884 0.38902217
v 0.71362805 -0.025598347 0.38902217
v 0.7346595 0.032989323 0.4085514
v 0.7346595 -0.0030646324 0.4085514
v 0.7511842 0.038998365 0.4250762
v 0.7511842 0.0029443502 0.4250762
v 0.7511842 0.0029443502 0.4250762
v 0.7511842 0.038998365 0.4250762
v 0.7511842 0.043505073 0.45211655
v 0.7511842 0.007451117 0.45211655
v 0.7511842 0.052518547 0.47915703
v 0.7511842 0.016464591 0.47915703
v 0.7511842 0.06453657 0.50469524
v 0.7511842 0.028482616 0.50469524
v 0.7511842 0.07655454 0.5317357
v 0.7511842 0.04050058 0.5317357
v 0.7511842 0.0885725 0.5572739
v 0.7511842 0.05101633 0.5572739
v 0.7511842 0.10059053 0.5843144
v 0.7511842 0.063034296 0.5843144
v 0.7511842 0.11260849 0.6098526
v 0.7511842 0.07655454 0.6098526
v 0.7511842 0.12011975 0.6368931
v 0.7511842 0.08256352 0.6368931
v 0.7511842 0.12763101 0.6639336
v 0.7511842 0.09007478 0.6639336
v 0.7511842 0.13964897 0.6894718
v 0.7511842 0.10359502 0.6894718
v 0.7511842 0.15316921 0.71651226
v 0.7511842 0.11711526 0.71651226
v 0.7511842 0.16668946 0.74205047
v 0.7511842 0.12913322 0.74205047
v 0.7511842 0.17720515 0.76458424
v 0.7511842 0.16068047 0.76458424
v 0.7511842 0.16068047 0.76458424
v 0.7511842 0.17720515 0.76458424
v 0.725646 0.17720515 0.76458424
v 0.725646 0.16068047 0.76458424
v 0.68959206 0.17720515 0.76458424
v 0.68959206 0.16068047 0.76458424
v 0.6535381 0.17720515 0.76458424
v 0.6535381 0.16068047 0.76458424
v 0.61898637 0.17720515 0.76458424
v 0.61898637 0.16068047 0.76458424
v 0.5829324 0.17720515 0.76458424
v 0.5829324 0.16068047 0.76458424
v 0.54687846 0.16969395 0.76458424
v 0.54687846 0.15316921 0.76458424
v 0.51082456 0.16969395 0.76458424
v 0.51082456 0.15316921 0.76458424
v 0.47477058 0.17119616 0.76458424
v 0.47477058 0.15467143 0.76458424
v 0.44021887 0.17269844 0.76458424
v 0.44021887 0.1561737 0.76458424
v 0.40416488 0.17119616 0.76458424
v 0.40416488 0.1561737 0.76458424
v 0.36811092 0.17720515 0.76458424
v 0.36811092 0.16068047 0.76458424
v 0.33205697 0.18171191 0.76458424
v 0.33205697 0.16518718 0.76458424
v 0.296003 0.18171191 0.76458424
v 0.296003 0.16518718 0.76458424
v 0.2614513 0.18321419 0.76458424
v 0.2614513 0.16668946 0.76458424
v 0.22539735 0.18321419 0.76458424
v 0.22539735 0.16668946 0.76458424
v 0.20586812 0.18321419 0.76458424
v 0.20586812 0.16668946 0.76458424
v 0.20586812 0.16668946 0.76458424
v 0.20586812 0.18321419 0.76458424
v 0.20586812 0.17119616 0.74205047
v 0.20586812 0.13363999 0.74205047
v 0.20586812 0.15467143 0.71200556
v 0.20586812 0.118617475 0.71200556
v 0.20586812 0.1381467 0.6819605
v 0.20586812 0.10209274 0.6819605
v 0.20586812 0.12011975 0.6519156
v 0.20586812 0.084065795 0.6519156
v 0.20586812 0.094581544 0.6218707
v 0.20586812 0.05852759 0.6218707
v 0.20586812 0.084065795 0.59182566
v 0.20586812 0.04801184 0.59182566
v 0.20586812 0.07655454 0.56178075
v 0.20586812 0.04050058 0.56178075
v 0.20586812 0.06904328 0.5317357
v 0.20586812 0.032989323 0.5317357
v 0.20586812 0.06453657 0.5122065
v 0.20586812 0.028482616 0.5122065
v 0.20586812 0.049514055 0.47164577
v 0.20586812 0.0134601 0.47164577
v 0.20586812 0.038998365 0.44160086
v 0.20586812 0.0029443502 0.44160086
v 0.20586812 0.032989323 0.41155595
v 0.20586812 -0.0030646324 0.41155595
v 0.20586812 0.032989323 0.3875199
v 0.20586812 -0.0030646324 0.3875199
v 0.20586812 -0.0030646324 0.3875199
v 0.20586812 0.032989323 0.3875199
v 0.22089058 0.0344916 0.3724975
v 0.22089058 -0.001562357 0.3724975
v 0.23741531 0.0344916 0.35447043
v 0.23741531 -0.001562357 0.35447043
v 0.25394005 0.032989323 0.33644348
v 0.25394005 -0.0030646324 0.33644348
v 0.26746032 0.032989323 0.32142097
v 0.26746032 -0.0045668483 0.32142097
v 0.7511842 0.052518547 0.47915703
v 0.7571932 0.052518547 0.47915703
v 0.7571932 0.06453657 0.50469524
v 0.7511842 0.06453657 0.50469524
v 0.7617 0.052518547 0.47915703
v 0.7617 0.06453657 0.50469524
v 0.7617 0.07655454 0.5317357
v 0.7571932 0.07655454 0.5317357
v 0.7511842 0.07655454 0.5317357
v 0.7571932 0.07655454 0.5317357
v 0.7571932 0.087070286 0.5572739
v 0.7511842 0.0885725 0.5572739
v 0.7617 0.07655454 0.5317357
v 0.7511842 0.10059053 0.5843144
v 0.7617 0.087070286 0.5572739
v 0.7571932 0.09908825 0.5843144
v 0.7617 0.09908825 0.5843144
vt 0.6862286 0.29546076
vt 0.67429674 0.29844373
vt 0.6862286 0.29844373
vt 0.67429674 0.29546076
vt 0.6832456 0.29247782
vt 0.67429674 0.29247782
vt 0.6653478 0.29546076
vt 0.6653478 0.29844373
vt 0.653416 0.29844373
vt 0.6653478 0.29247782
vt 0.653416 0.29546076
vt 0.653416 0.29247782
vt 0.6862286 0.29546076
vt 0.6862286 0.29844373
vt 0.69219446 0.28651187
vt 0.6892115 0.28651187
vt 0.6981604 0.277563
vt 0.6892115 0.28352892
vt 0.6832456 0.29247782
vt 0.69517744 0.2715971
vt 0.69517744 0.27458003
vt 0.7041263 0.26563117
vt 0.7011433 0.25966525
vt 0.7011433 0.2626482
vt 0.76080257 0.00014770031
vt 0.7578196 0.021028422
vt 0.76080257 0.021028422
vt 0.7578196 0.0031306606
vt 0.74887073 0.0031306606
vt 0.74887073 0.00014770031
vt 0.7369389 0.00014770031
vt 0.7369389 0.0031306606
vt 0.72500706 0.00014770031
vt 0.72500706 0.0031306606
vt 0.7130752 0.0031306606
vt 0.7130752 0.00014770031
vt 0.6981604 0.0031306606
vt 0.6981604 0.00014770031
vt 0.7130752 0.006113621
vt 0.6981604 0.006113621
vt 0.72500706 0.0031306606
vt 0.72500706 0.006113621
vt 0.7369389 0.006113621
vt 0.7369389 0.0031306606
vt 0.74887073 0.0031306606
vt 0.74887073 0.006113621
vt 0.7578196 0.006113621
vt 0.7578196 0.0031306606
vt 0.7578196 0.021028422
vt 0.7578196 0.021028422
vt 0.7578196 0.038926184
vt 0.7578196 0.038926184
vt 0.7578196 0.053840984
vt 0.76080257 0.038926184
vt 0.76080257 0.021028422
vt 0.76080257 0.053840984
vt 0.7578196 0.053840984
vt 0.7578196 0.07173874
vt 0.76080257 0.07173874
vt 0.7578196 0.07173874
vt 0.5907738 0.29844373
vt 0.58480793 0.28651187
vt 0.58480793 0.28651187
vt 0.5907738 0.29546076
vt 0.5997227 0.29546076
vt 0.5997227 0.29844373
vt 0.6116545 0.29844373
vt 0.5907738 0.29247782
vt 0.58779085 0.28352892
vt 0.578842 0.27458003
vt 0.58182496 0.2715971
vt 0.5997227 0.29247782
vt 0.6116545 0.29546076
vt 0.6116545 0.29247782
vt 0.62060344 0.29844373
vt 0.62060344 0.29247782
vt 0.62060344 0.29546076
vt 0.6325353 0.29844373
vt 0.6325353 0.29247782
vt 0.6325353 0.29546076
vt 0.6444671 0.29546076
vt 0.6444671 0.29844373
vt 0.653416 0.29844373
vt 0.6444671 0.29247782
vt 0.653416 0.29546076
vt 0.653416 0.29247782
vt 0.7518537 0.23878452
vt 0.7548366 0.24176748
vt 0.76080257 0.22983564
vt 0.7578196 0.22685267
vt 0.7578196 0.22685267
vt 0.7518537 0.23580156
vt 0.7578196 0.20895492
vt 0.7578196 0.20895492
vt 0.76080257 0.20895492
vt 0.76080257 0.20895492
vt 0.76080257 0.19105716
vt 0.7578196 0.19105716
vt 0.7578196 0.20895492
vt 0.7578196 0.20895492
vt 0.7578196 0.19105716
vt 0.7578196 0.10753427
vt 0.76080257 0.12244907
vt 0.76080257 0.10753427
vt 0.7578196 0.12244907
vt 0.7578196 0.12244907
vt 0.7578196 0.10753427
vt 0.76080257 0.089636505
vt 0.7578196 0.10753427
vt 0.76080257 0.10753427
vt 0.7578196 0.089636505
vt 0.7578196 0.089636505
vt 0.7578196 0.10753427
vt 0.7578196 0.07173874
vt 0.76080257 0.089636505
vt 0.76080257 0.07173874
vt 0.7578196 0.089636505
vt 0.7578196 0.089636505
vt 0.7578196 0.07173874
vt 0.7399218 0.26563117
vt 0.74588776 0.25369933
vt 0.74588776 0.25071636
vt 0.7399218 0.2626482
vt 0.73097295 0.2626482
vt 0.73097295 0.26563117
vt 0.7399218 0.25966525
vt 0.74588776 0.2477334
vt 0.73097295 0.25966525
vt 0.7220241 0.25966525
vt 0.7220241 0.2626482
vt 0.7220241 0.26563117
vt 0.7518537 0.23878452
vt 0.74588776 0.25369933
vt 0.7548366 0.24176748
vt 0.74588776 0.25071636
vt 0.7518537 0.23580156
vt 0.74588776 0.2477334
vt 0.650433 0.0031306606
vt 0.66236484 0.00014770031
vt 0.650433 0.00014770031
vt 0.66236484 0.0031306606
vt 0.66236484 0.006113621
vt 0.650433 0.006113621
vt 0.67429674 0.006113621
vt 0.67429674 0.0031306606
vt 0.66236484 0.006113621
vt 0.60270566 0.00014770031
vt 0.6146375 0.0031306606
vt 0.6146375 0.00014770031
vt 0.60270566 0.0031306606
vt 0.5907738 0.0031306606
vt 0.5907738 0.00014770031
vt 0.60270566 0.006113621
vt 0.6146375 0.006113621
vt 0.5907738 0.006113621
vt 0.575859 0.0031306606
vt 0.575859 0.00014770031
vt 0.575859 0.006113621
vt 0.56691015 0.00014770031
vt 0.5698931 0.0031306606
vt 0.5698931 0.006113621
vt 0.56691015 0.021028422
vt 0.5698931 0.021028422
vt 0.5698931 0.021028422
vt 0.56691015 0.041909143
vt 0.5698931 0.041909143
vt 0.5698931 0.041909143
vt 0.5698931 0.059806906
vt 0.5698931 0.059806906
vt 0.56691015 0.059806906
vt 0.6146375 0.0031306606
vt 0.62656933 0.00014770031
vt 0.6146375 0.00014770031
vt 0.62656933 0.0031306606
vt 0.6146375 0.006113621
vt 0.63850117 0.00014770031
vt 0.62656933 0.006113621
vt 0.63850117 0.0031306606
vt 0.63850117 0.006113621
vt 0.63850117 0.0031306606
vt 0.650433 0.00014770031
vt 0.63850117 0.00014770031
vt 0.650433 0.0031306606
vt 0.63850117 0.006113621
vt 0.650433 0.006113621
vt 0.66236484 0.0031306606
vt 0.67429674 0.0031306606
vt 0.67429674 0.00014770031
vt 0.66236484 0.00014770031
vt 0.67429674 0.0031306606
vt 0.6862286 0.00014770031
vt 0.67429674 0.00014770031
vt 0.6862286 0.0031306606
vt 0.67429674 0.006113621
vt 0.6862286 0.006113621
vt 0.6862286 0.0031306606
vt 0.6981604 0.0031306606
vt 0.6981604 0.00014770031
vt 0.6862286 0.00014770031
vt 0.5698931 0.25071636
vt 0.56691015 0.23580156
vt 0.56691015 0.25369933
vt 0.5698931 0.23580156
vt 0.5698931 0.23580156
vt 0.5698931 0.25071636
vt 0.5698931 0.23580156
vt 0.56691015 0.21492083
vt 0.56691015 0.23580156
vt 0.5698931 0.21492083
vt 0.5698931 0.23580156
vt 0.5698931 0.21492083
vt 0.56691015 0.21492083
vt 0.5698931 0.19702308
vt 0.56691015 0.19702308
vt 0.5698931 0.21492083
vt 0.5698931 0.21492083
vt 0.5698931 0.19702308
vt 0.56691015 0.19702308
vt 0.5698931 0.17017643
vt 0.56691015 0.17017643
vt 0.5698931 0.19702308
vt 0.5698931 0.19702308
vt 0.5698931 0.17017643
vt 0.5698931 0.17017643
vt 0.5698931 0.1582446
vt 0.56691015 0.1582446
vt 0.56691015 0.17017643
vt 0.56691015 0.13736387
vt 0.56691015 0.1582446
vt 0.5698931 0.1582446
vt 0.5698931 0.13736387
vt 0.56691015 0.11946611
vt 0.5698931 0.11946611
vt 0.5698931 0.11946611
vt 0.5698931 0.13736387
vt 0.5698931 0.1582446
vt 0.5698931 0.11946611
vt 0.56691015 0.09858539
vt 0.56691015 0.11946611
vt 0.5698931 0.09858539
vt 0.5698931 0.09858539
vt 0.5698931 0.11946611
vt 0.56691015 0.08068763
vt 0.56691015 0.09858539
vt 0.5698931 0.09858539
vt 0.5698931 0.08068763
vt 0.5698931 0.08068763
vt 0.5698931 0.09858539
vt 0.56691015 0.08068763
vt 0.5698931 0.059806906
vt 0.56691015 0.059806906
vt 0.5698931 0.08068763
vt 0.5698931 0.08068763
vt 0.5698931 0.059806906
vt 0.5698931 0.25071636
vt 0.56691015 0.25369933
vt 0.57287604 0.26563117
vt 0.57287604 0.2626482
vt 0.5698931 0.25071636
vt 0.575859 0.25966525
vt 0.578842 0.27458003
vt 0.578842 0.277563
vt 0.58480793 0.28651187
vt 0.578842 0.27458003
vt 0.578842 0.277563
vt 0.58480793 0.28651187
vt 0.7130752 0.26563117
vt 0.7220241 0.26563117
vt 0.7220241 0.2626482
vt 0.7130752 0.2626482
vt 0.7041263 0.26563117
vt 0.7011433 0.2626482
vt 0.7011433 0.25966525
vt 0.7130752 0.25966525
vt 0.7130752 0.25966525
vt 0.7220241 0.25966525
vt 0.6981604 0.0031306606
vt 0.6862286 0.0031306606
vt 0.6862286 0.006113621
vt 0.6981604 0.006113621
vt 0.5698931 0.17017643
vt 0.5698931 0.1582446
vt 0.5698931 0.1582446
vt 0.5698931 0.17017643
vt 0.57287604 0.2626482
vt 0.578842 0.27458003
vt 0.58182496 0.2715971
vt 0.575859 0.25966525
vt 0.6862286 0.29844373
vt 0.6862286 0.29844373
vt 0.67429674 0.29844373
vt 0.67429674 0.29844373
vt 0.6653478 0.29844373
vt 0.6653478 0.29844373
vt 0.653416 0.29844373
vt 0.653416 0.29844373
vt 0.6444671 0.29844373
vt 0.6444671 0.29844373
vt 0.6325353 0.29844373
vt 0.6325353 0.29844373
vt 0.62060344 0.29844373
vt 0.62060344 0.29844373
vt 0.6116545 0.29844373
vt 0.6116545 0.29844373
vt 0.5997227 0.29844373
vt 0.5997227 0.29844373
vt 0.5907738 0.29844373
vt 0.5907738 0.29844373
vt 0.69219446 0.28651187
vt 0.6862286 0.29844373
vt 0.6862286 0.29844373
vt 0.69219446 0.28651187
vt 0.6981604 0.277563
vt 0.6981604 0.277563
vt 0.7041263 0.26563117
vt 0.7041263 0.26563117
vt 0.76080257 0.00014770031
vt 0.76080257 0.00014770031
vt 0.76080257 0.021028422
vt 0.76080257 0.021028422
vt 0.76080257 0.038926184
vt 0.76080257 0.038926184
vt 0.76080257 0.053840984
vt 0.76080257 0.053840984
vt 0.76080257 0.07173874
vt 0.76080257 0.07173874
vt 0.76080257 0.089636505
vt 0.76080257 0.089636505
vt 0.76080257 0.10753427
vt 0.76080257 0.10753427
vt 0.76080257 0.12244907
vt 0.76080257 0.12244907
vt 0.76080257 0.14034683
vt 0.76080257 0.14034683
vt 0.76080257 0.1582446
vt 0.76080257 0.1582446
vt 0.76080257 0.17315939
vt 0.76080257 0.17315939
vt 0.76080257 0.19105716
vt 0.76080257 0.19105716
vt 0.76080257 0.20895492
vt 0.76080257 0.20895492
vt 0.76080257 0.22983564
vt 0.76080257 0.22983564
vt 0.5907738 0.29844373
vt 0.5907738 0.29844373
vt 0.58480793 0.28651187
vt 0.58480793 0.28651187
vt 0.578842 0.277563
vt 0.578842 0.277563
vt 0.57287604 0.26563117
vt 0.57287604 0.26563117
vt 0.56691015 0.25369933
vt 0.56691015 0.25369933
vt 0.7130752 0.26563117
vt 0.7041263 0.26563117
vt 0.7041263 0.26563117
vt 0.7130752 0.26563117
vt 0.7220241 0.26563117
vt 0.7220241 0.26563117
vt 0.73097295 0.26563117
vt 0.73097295 0.26563117
vt 0.7399218 0.26563117
vt 0.7399218 0.26563117
vt 0.76080257 0.22983564
vt 0.76080257 0.22983564
vt 0.7548366 0.24176748
vt 0.7548366 0.24176748
vt 0.74588776 0.25369933
vt 0.74588776 0.25369933
vt 0.7399218 0.26563117
vt 0.7399218 0.26563117
vt 0.56691015 0.021028422
vt 0.56691015 0.00014770031
vt 0.56691015 0.00014770031
vt 0.56691015 0.021028422
vt 0.56691015 0.041909143
vt 0.56691015 0.041909143
vt 0.56691015 0.059806906
vt 0.56691015 0.059806906
vt 0.56691015 0.08068763
vt 0.56691015 0.08068763
vt 0.56691015 0.09858539
vt 0.56691015 0.09858539
vt 0.56691015 0.11946611
vt 0.56691015 0.11946611
vt 0.56691015 0.13736387
vt 0.56691015 0.13736387
vt 0.56691015 0.1582446
vt 0.56691015 0.1582446
vt 0.56691015 0.17017643
vt 0.56691015 0.17017643
vt 0.56691015 0.19702308
vt 0.56691015 0.19702308
vt 0.56691015 0.21492083
vt 0.56691015 0.21492083
vt 0.56691015 0.23580156
vt 0.56691015 0.23580156
vt 0.56691015 0.25369933
vt 0.56691015 0.25369933
vt 0.74887073 0.00014770031
vt 0.76080257 0.00014770031
vt 0.76080257 0.00014770031
vt 0.74887073 0.00014770031
vt 0.7369389 0.00014770031
vt 0.7369389 0.00014770031
vt 0.72500706 0.00014770031
vt 0.72500706 0.00014770031
vt 0.7130752 0.00014770031
vt 0.7130752 0.00014770031
vt 0.6981604 0.00014770031
vt 0.6981604 0.00014770031
vt 0.6862286 0.00014770031
vt 0.6862286 0.00014770031
vt 0.67429674 0.00014770031
vt 0.67429674 0.00014770031
vt 0.66236484 0.00014770031
vt 0.66236484 0.00014770031
vt 0.650433 0.00014770031
vt 0.650433 0.00014770031
vt 0.63850117 0.00014770031
vt 0.63850117 0.00014770031
vt 0.62656933 0.00014770031
vt 0.62656933 0.00014770031
vt 0.6146375 0.00014770031
vt 0.6146375 0.00014770031
vt 0.60270566 0.00014770031
vt 0.60270566 0.00014770031
vt 0.5907738 0.00014770031
vt 0.5907738 0.00014770031
vt 0.575859 0.00014770031
vt 0.575859 0.00014770031
vt 0.56691015 0.00014770031
vt 0.56691015 0.00014770031
vt 0.5907738 0.29247782
vt 0.5907738 0.29247782
vt 0.5997227 0.29247782
vt 0.5997227 0.29247782
vt 0.6116545 0.29247782
vt 0.6116545 0.29247782
vt 0.62060344 0.29247782
vt 0.62060344 0.29247782
vt 0.6325353 0.29247782
vt 0.6325353 0.29247782
vt 0.6444671 0.29247782
vt 0.6444671 0.29247782
vt 0.653416 0.29247782
vt 0.653416 0.29247782
vt 0.6653478 0.29247782
vt 0.6653478 0.29247782
vt 0.67429674 0.29247782
vt 0.67429674 0.29247782
vt 0.6832456 0.29247782
vt 0.6832456 0.29247782
vt 0.6832456 0.29247782
vt 0.6832456 0.29247782
vt 0.6892115 0.28352892
vt 0.6892115 0.28352892
vt 0.69517744 0.2715971
vt 0.69517744 0.2715971
vt 0.7011433 0.25966525
vt 0.7011433 0.25966525
vt 0.7011433 0.25966525
vt 0.7011433 0.25966525
vt 0.7130752 0.25966525
vt 0.7130752 0.25966525
vt 0.7220241 0.25966525
vt 0.7220241 0.25966525
vt 0.73097295 0.25966525
vt 0.73097295 0.25966525
vt 0.7399218 0.25966525
vt 0.7399218 0.25966525
vt 0.7399218 0.25966525
vt 0.7399218 0.25966525
vt 0.74588776 0.2477334
vt 0.74588776 0.2477334
vt 0.7518537 0.23580156
vt 0.7518537 0.23580156
vt 0.7578196 0.22685267
vt 0.7578196 0.22685267
vt 0.7578196 0.22685267
vt 0.7578196 0.22685267
vt 0.7578196 0.20895492
vt 0.7578196 0.20895492
vt 0.7578196 0.19105716
vt 0.7578196 0.19105716
vt 0.7578196 0.17315939
vt 0.7578196 0.17315939
vt 0.7578196 0.1582446
vt 0.7578196 0.1582446
vt 0.7578196 0.14034683
vt 0.7578196 0.14034683
vt 0.7578196 0.12244907
vt 0.7578196 0.12244907
vt 0.7578196 0.10753427
vt 0.7578196 0.10753427
vt 0.7578196 0.089636505
vt 0.7578196 0.089636505
vt 0.7578196 0.07173874
vt 0.7578196 0.07173874
vt 0.7578196 0.053840984
vt 0.7578196 0.053840984
vt 0.7578196 0.038926184
vt 0.7578196 0.038926184
vt 0.7578196 0.021028422
vt 0.7578196 0.021028422
vt 0.7578196 0.006113621
vt 0.7578196 0.006113621
vt 0.7578196 0.006113621
vt 0.7578196 0.006113621
vt 0.74887073 0.006113621
vt 0.74887073 0.006113621
vt 0.7369389 0.006113621
vt 0.7369389 0.006113621
vt 0.72500706 0.006113621
vt 0.72500706 0.006113621
vt 0.7130752 0.006113621
vt 0.7130752 0.006113621
vt 0.6981604 0.006113621
vt 0.6981604 0.006113621
vt 0.6862286 0.006113621
vt 0.6862286 0.006113621
vt 0.67429674 0.006113621
vt 0.67429674 0.006113621
vt 0.66236484 0.006113621
vt 0.66236484 0.006113621
vt 0.650433 0.006113621
vt 0.650433 0.006113621
vt 0.63850117 0.006113621
vt 0.63850117 0.006113621
vt 0.62656933 0.006113621
vt 0.62656933 0.006113621
vt 0.6146375 0.006113621
vt 0.6146375 0.006113621
vt 0.60270566 0.006113621
vt 0.60270566 0.006113621
vt 0.5907738 0.006113621
vt 0.5907738 0.006113621
vt 0.575859 0.006113621
vt 0.575859 0.006113621
vt 0.5698931 0.006113621
vt 0.5698931 0.006113621
vt 0.5698931 0.006113621
vt 0.5698931 0.006113621
vt 0.5698931 0.021028422
vt 0.5698931 0.021028422
vt 0.5698931 0.041909143
vt 0.5698931 0.041909143
vt 0.5698931 0.059806906
vt 0.5698931 0.059806906
vt 0.5698931 0.08068763
vt 0.5698931 0.08068763
vt 0.5698931 0.09858539
vt 0.5698931 0.09858539
vt 0.5698931 0.11946611
vt 0.5698931 0.11946611
vt 0.5698931 0.13736387
vt 0.5698931 0.13736387
vt 0.5698931 0.1582446
vt 0.5698931 0.1582446
vt 0.5698931 0.17017643
vt 0.5698931 0.17017643
vt 0.5698931 0.19702308
vt 0.5698931 0.19702308
vt 0.5698931 0.21492083
vt 0.5698931 0.21492083
vt 0.5698931 0.23580156
vt 0.5698931 0.23580156
vt 0.5698931 0.25071636
vt 0.5698931 0.25071636
vt 0.5698931 0.25071636
vt 0.5698931 0.25071636
vt 0.575859 0.25966525
vt 0.575859 0.25966525
vt 0.58182496 0.2715971
vt 0.58182496 0.2715971
vt 0.58779085 0.28352892
vt 0.58779085 0.28352892
vt 0.5907738 0.29247782
vt 0.5907738 0.29247782
vt 0.7578196 0.19105716
vt 0.7578196 0.19105716
vt 0.7578196 0.17315939
vt 0.7578196 0.17315939
vt 0.76080257 0.19105716
vt 0.76080257 0.17315939
vt 0.76080257 0.1582446
vt 0.7578196 0.1582446
vt 0.7578196 0.1582446
vt 0.7578196 0.1582446
vt 0.7578196 0.14034683
vt 0.7578196 0.14034683
vt 0.76080257 0.1582446
vt 0.7578196 0.12244907
vt 0.76080257 0.14034683
vt 0.7578196 0.12244907
vt 0.76080257 0.12244907
vn -0.015871048 0.999874 -0.00034526698
vn -0.015871048 0.999874 -0.00034526698
vn -0.015871048 0.999874 -0.00034526698
vn -0.015871048 0.999874 -0.00034526698
vn -0.015871048 0.999874 -0.00034526698
vn 0.015870988 0.999874 -0.00034526698
vn 0.015870988 0.999874 -0.00034526698
vn 0.015870988 0.999874 -0.00034526698
vn 0.015870988 0.999874 -0.00034526698
vn -0.015871048 0.999874 -0.00034526698
vn 0.015870988 0.999874 -0.00034526698
vn -0.015871048 0.999874 -0.00034526698
vn 0.015870988 0.999874 -0.00034526698
vn 0.015870988 0.999874 -0.00034526698
vn 0.015870988 0.999874 -0.00034526698
vn 0.015870988 0.999874 -0.00034526698
vn 0.04756513 0.99886817 -0
vn 0.04756513 0.99886817 -0
vn 0.04756513 0.99886817 -0
vn 0.04756513 0.99886817 -0
vn 0.04756513 0.99886817 -0
vn 0.04756513 0.99886817 -0
vn 0.04756513 0.99886817 -0
vn 0.04756513 0.99886817 -0
vn -0.015871048 0.90464795 -0.42586404
vn -0.015871048 0.90464795 -0.42586404
vn -0.015871048 0.90464795 -0.42586404
vn -0.015871048 0.90464795 -0.42586404
vn 0.015870988 0.90464795 -0.42586404
vn 0.015870988 0.90464795 -0.42586404
vn 0.015870988 0.90464795 -0.42586404
vn 0.015870988 0.90464795 -0.42586404
vn 0.015870988 0.90464795 -0.42586404
vn 0.015870988 0.90464795 -0.42586404
vn 0.015870988 0.87290585 -0.4876305
vn 0.015870988 0.87290585 -0.4876305
vn 0.015870988 0.87290585 -0.4876305
vn 0.015870988 0.87290585 -0.4876305
vn 0.015870988 0.87290585 -0.4876305
vn 0.015870988 0.87290585 -0.4876305
vn 0.015870988 0.87290585 -0.4876305
vn 0.015870988 0.87290585 -0.4876305
vn 0.015870988 0.87290585 -0.4876305
vn 0.015870988 0.87290585 -0.4876305
vn -0.015871048 0.87290585 -0.4876305
vn -0.015871048 0.87290585 -0.4876305
vn -0.015871048 0.90464795 -0.42586404
vn -0.015871048 0.87290585 -0.4876305
vn -0.047613025 0.90464795 -0.42349154
vn -0.047613025 0.90464795 -0.42349154
vn -0.047613025 0.90464795 -0.42349154
vn -0.047613025 0.90464795 -0.42349154
vn -0.015871048 0.90464795 -0.42586404
vn -0.047613025 0.90464795 -0.42349154
vn -0.047613025 0.90464795 -0.42349154
vn -0.015871048 0.90464795 -0.42586404
vn -0.015871048 0.90464795 -0.42586404
vn -0.015871048 0.90464795 -0.42586404
vn -0.015871048 0.90464795 -0.42586404
vn -0.015871048 0.90464795 -0.42586404
vn 0.079116285 0.9968654 -0
vn 0.079116285 0.9968654 -0
vn 0.079116285 0.9968654 -0
vn 0.079116285 0.9968654 -0
vn 0.079116285 0.9968654 -0
vn 0.079116285 0.9968654 -0
vn 0.079116285 0.9968654 -0
vn 0.079116285 0.9968654 -0
vn 0.14142135 0.98994946 -0
vn 0.14142135 0.98994946 -0
vn 0.14142135 0.98994946 -0
vn 0.079116285 0.9968654 -0
vn 0.079116285 0.9968654 -0
vn 0.079116285 0.9968654 -0
vn 0.079116285 0.9968654 -0
vn 0.079116285 0.9968654 -0
vn 0.079116285 0.9968654 -0
vn 0.079116285 0.9968654 -0
vn 0.079116285 0.9968654 -0
vn 0.079116285 0.9968654 -0
vn 0.110431515 0.9938838 -0
vn 0.110431515 0.9938838 -0
vn 0.110431515 0.9938838 -0
vn 0.110431515 0.9938838 -0
vn 0.110431515 0.9938838 -0
vn 0.110431515 0.9938838 -0
vn -0.20632327 0.968132 -0.1419547
vn -0.20632327 0.968132 -0.1419547
vn -0.20632327 0.968132 -0.1419547
vn -0.20632327 0.968132 -0.1419547
vn -0.20632327 0.968132 -0.1419547
vn -0.20632327 0.968132 -0.1419547
vn -0.17458117 0.968132 -0.17956008
vn -0.17458117 0.968132 -0.17956008
vn -0.17458117 0.968132 -0.17956008
vn -0.015871048 0.968132 -0.24993704
vn -0.015871048 0.968132 -0.24993704
vn -0.015871048 0.968132 -0.24993704
vn -0.015871048 0.968132 -0.24993704
vn -0.015871048 0.9363899 -0.35060233
vn -0.015871048 0.9363899 -0.35060233
vn -0.015871048 0.87290585 -0.4876305
vn -0.015871048 0.87290585 -0.4876305
vn -0.015871048 0.87290585 -0.4876305
vn -0.015871048 0.87290585 -0.4876305
vn 0.015870988 0.87290585 -0.4876305
vn 0.015870988 0.87290585 -0.4876305
vn -0.1110971 0.968132 -0.2244501
vn -0.1110971 0.968132 -0.2244501
vn -0.1110971 0.968132 -0.2244501
vn -0.1110971 0.968132 -0.2244501
vn -0.1110971 0.968132 -0.2244501
vn -0.1110971 0.968132 -0.2244501
vn -0.07935512 0.968132 -0.23753566
vn -0.07935512 0.968132 -0.23753566
vn -0.07935512 0.968132 -0.23753566
vn -0.07935512 0.968132 -0.23753566
vn -0.047613025 0.968132 -0.24587277
vn -0.047613025 0.968132 -0.24587277
vn 0.015870988 0.999874 -0.00034526698
vn 0.015870988 0.999874 -0.00034526698
vn 0.015870988 0.999874 -0.00034526698
vn 0.015870988 0.999874 -0.00034526698
vn -0.015871048 0.999874 -0.00034526698
vn -0.015871048 0.999874 -0.00034526698
vn -0.015871048 0.999874 -0.00034526698
vn 0.015870988 0.999874 -0.00034526698
vn -0.015871048 0.999874 -0.00034526698
vn -0.015871048 0.999874 -0.00034526698
vn -0.015871048 0.999874 -0.00034526698
vn -0.015871048 0.999874 -0.00034526698
vn -0.46025944 0.7776798 -0.42822355
vn -0.46025944 0.7776798 -0.42822355
vn -0.46025944 0.7776798 -0.42822355
vn -0.46025944 0.7776798 -0.42822355
vn -0.46025944 0.7776798 -0.42822355
vn -0.46025944 0.7776798 -0.42822355
vn 0.015870988 0.8411639 -0.5405474
vn 0.015870988 0.8411639 -0.5405474
vn 0.015870988 0.8411639 -0.5405474
vn 0.015870988 0.8411639 -0.5405474
vn 0.015870988 0.8411639 -0.5405474
vn 0.015870988 0.8411639 -0.5405474
vn 0.015870988 0.8094218 -0.58701324
vn 0.015870988 0.8094218 -0.58701324
vn 0.015870988 0.8094218 -0.58701324
vn 0.015870988 0.87290585 -0.4876305
vn 0.015870988 0.87290585 -0.4876305
vn 0.015870988 0.87290585 -0.4876305
vn 0.015870988 0.87290585 -0.4876305
vn 0.015870988 0.87290585 -0.4876305
vn 0.015870988 0.87290585 -0.4876305
vn 0.015870988 0.87290585 -0.4876305
vn 0.015870988 0.87290585 -0.4876305
vn 0.015870988 0.87290585 -0.4876305
vn -0.015871048 0.87290585 -0.4876305
vn -0.015871048 0.87290585 -0.4876305
vn 0.015870988 0.87290585 -0.4876305
vn -0.015871048 0.87290585 -0.4876305
vn -0.015871048 0.87290585 -0.4876305
vn -0.015871048 0.87290585 -0.4876305
vn -0.015871048 0.87290585 -0.4876305
vn -0.015871048 0.87290585 -0.4876305
vn -0.015871048 0.87290585 -0.4876305
vn -0.015871048 0.87290585 -0.4876305
vn -0.015871048 0.87290585 -0.4876305
vn -0.015871048 0.87290585 -0.4876305
vn -0.015871048 0.87290585 -0.4876305
vn -0.015871048 0.87290585 -0.4876305
vn -0.015871048 0.87290585 -0.4876305
vn 0.1110971 0.87290585 -0.47507137
vn 0.1110971 0.87290585 -0.47507137
vn 0.1110971 0.87290585 -0.47507137
vn 0.1110971 0.87290585 -0.47507137
vn 0.1110971 0.87290585 -0.47507137
vn 0.1110971 0.87290585 -0.47507137
vn 0.1110971 0.87290585 -0.47507137
vn 0.1110971 0.87290585 -0.47507137
vn 0.1110971 0.87290585 -0.47507137
vn -0.015871048 0.87290585 -0.4876305
vn -0.015871048 0.87290585 -0.4876305
vn -0.015871048 0.87290585 -0.4876305
vn -0.015871048 0.87290585 -0.4876305
vn -0.015871048 0.87290585 -0.4876305
vn -0.015871048 0.87290585 -0.4876305
vn 0.015870988 0.7776798 -0.6284602
vn 0.015870988 0.7776798 -0.6284602
vn 0.015870988 0.7776798 -0.6284602
vn 0.015870988 0.7776798 -0.6284602
vn -0.047613025 0.7776798 -0.62685496
vn -0.047613025 0.7776798 -0.62685496
vn -0.047613025 0.7776798 -0.62685496
vn -0.047613025 0.7776798 -0.62685496
vn -0.015871048 0.7459378 -0.66582644
vn -0.015871048 0.7459378 -0.66582644
vn -0.1110971 0.8094218 -0.5766228
vn -0.1110971 0.8094218 -0.5766228
vn -0.1110971 0.8094218 -0.5766228
vn -0.1110971 0.8094218 -0.5766228
vn 0.079116285 0.9968654 -0
vn 0.079116285 0.9968654 -0
vn 0.079116285 0.9968654 -0
vn 0.079116285 0.9968654 -0
vn 0.079116285 0.9968654 -0
vn 0.079116285 0.9968654 -0
vn 0.2063232 0.968132 -0.1419547
vn 0.2063232 0.968132 -0.1419547
vn 0.2063232 0.968132 -0.1419547
vn 0.2063232 0.968132 -0.1419547
vn 0.2063232 0.968132 -0.1419547
vn 0.2063232 0.968132 -0.1419547
vn 0.14283913 0.9363899 -0.32057896
vn 0.14283913 0.9363899 -0.32057896
vn 0.14283913 0.9363899 -0.32057896
vn 0.14283913 0.9363899 -0.32057896
vn 0.14283913 0.9363899 -0.32057896
vn 0.14283913 0.9363899 -0.32057896
vn 0.07935506 0.9363899 -0.34187227
vn 0.07935506 0.9363899 -0.34187227
vn 0.07935506 0.9363899 -0.34187227
vn 0.07935506 0.9363899 -0.34187227
vn 0.07935506 0.9363899 -0.34187227
vn 0.07935506 0.9363899 -0.34187227
vn -0.015871048 0.999874 -0.00034526698
vn -0.015871048 0.999874 -0.00034526698
vn -0.015871048 0.999874 -0.00034526698
vn -0.015871048 0.999874 -0.00034526698
vn -0.1110971 0.968132 -0.2244501
vn -0.1110971 0.968132 -0.2244501
vn -0.1110971 0.968132 -0.2244501
vn -0.1110971 0.968132 -0.2244501
vn -0.1110971 0.968132 -0.2244501
vn -0.1110971 0.968132 -0.2244501
vn -0.1110971 0.968132 -0.2244501
vn -0.1110971 0.968132 -0.2244501
vn -0.1110971 0.968132 -0.2244501
vn -0.015871048 0.9363899 -0.35060233
vn -0.015871048 0.9363899 -0.35060233
vn -0.015871048 0.9363899 -0.35060233
vn -0.015871048 0.9363899 -0.35060233
vn -0.015871048 0.9363899 -0.35060233
vn -0.015871048 0.9363899 -0.35060233
vn 0.047613025 0.7776798 -0.62685496
vn 0.047613025 0.7776798 -0.62685496
vn 0.047613025 0.7776798 -0.62685496
vn 0.047613025 0.7776798 -0.62685496
vn 0.047613025 0.7776798 -0.62685496
vn 0.047613025 0.7776798 -0.62685496
vn 0.047613025 0.87290585 -0.48555985
vn 0.047613025 0.87290585 -0.48555985
vn 0.047613025 0.87290585 -0.48555985
vn 0.047613025 0.87290585 -0.48555985
vn 0.015870988 0.87290585 -0.4876305
vn 0.015870988 0.87290585 -0.4876305
vn -0.079116344 0.9968654 -0
vn -0.079116344 0.9968654 -0
vn -0.079116344 0.9968654 -0
vn -0.079116344 0.9968654 -0
vn -0.04756513 0.99886817 -0
vn -0.04756513 0.99886817 -0
vn -0.04756513 0.99886817 -0
vn -0.04756513 0.99886817 -0
vn 0.04756513 0.99886817 -0
vn 0.04756513 0.99886817 -0
vn 0.04756513 0.99886817 -0
vn 0.04756513 0.99886817 -0
vn 0.015870988 0.999874 -0.00034526698
vn 0.04756513 0.99886817 -0
vn 0.04756513 0.99886817 -0
vn 0.015870988 0.999874 -0.00034526698
vn 0.015870988 0.999874 -0.00034526698
vn 0.015870988 0.999874 -0.00034526698
vn -0.015871048 0.999874 -0.00034526698
vn -0.015871048 0.999874 -0.00034526698
vn 0.04756513 0.99886817 -0
vn 0.04756513 0.99886817 -0
vn -0.1428392 0.7776798 -0.6122182
vn -0.1428392 0.7776798 -0.6122182
vn -0.1428392 0.7776798 -0.6122182
vn -0.1428392 0.7776798 -0.6122182
vn -0.015871048 0.968132 -0.24993704
vn -0.015871048 0.968132 -0.24993704
vn -0.015871048 0.968132 -0.24993704
vn -0.015871048 0.968132 -0.24993704
vn 0.015870988 0.999874 -0.00034526698
vn 0.015870988 0.999874 -0.00034526698
vn 0.015870988 0.999874 -0.00034526698
vn 0.015870988 0.999874 -0.00034526698
vn -0.015871048 0.015871048 -0.99974805
vn -0.015871048 0.015871048 -0.99974805
vn -0.015871048 0.015871048 -0.99974805
vn -0.015871048 0.015871048 -0.99974805
vn -0.015871048 0.015871048 -0.99974805
vn -0.015871048 0.015871048 -0.99974805
vn -0.015871048 0.015871048 -0.99974805
vn -0.015871048 0.015871048 -0.99974805
vn -0.015871048 0.015871048 -0.99974805
vn -0.015871048 0.015871048 -0.99974805
vn -0.015871048 0.015871048 -0.99974805
vn -0.015871048 0.015871048 -0.99974805
vn -0.015871048 0.015871048 -0.99974805
vn -0.015871048 0.015871048 -0.99974805
vn -0.015871048 0.015871048 -0.99974805
vn -0.015871048 0.015871048 -0.99974805
vn -0.015871048 0.015871048 -0.99974805
vn -0.015871048 0.015871048 -0.99974805
vn -0.015871048 0.015871048 -0.99974805
vn -0.015871048 0.015871048 -0.99974805
vn 0.7141957 0.015871048 -0.6997661
vn 0.7141957 0.015871048 -0.6997661
vn 0.7141957 0.015871048 -0.6997661
vn 0.7141957 0.015871048 -0.6997661
vn 0.7141957 0.015871048 -0.6997661
vn 0.7141957 0.015871048 -0.6997661
vn 0.7141957 0.015871048 -0.6997661
vn 0.7141957 0.015871048 -0.6997661
vn 0.999874 0.015871048 -0.00034391563
vn 0.999874 0.015871048 -0.00034391563
vn 0.999874 0.015871048 -0.00034391563
vn 0.999874 0.015871048 -0.00034391563
vn 0.999874 0.015871048 -0.00034391563
vn 0.999874 0.015871048 -0.00034391563
vn 0.999874 0.015871048 -0.00034391563
vn 0.999874 0.015871048 -0.00034391563
vn 0.999874 0.015871048 -0.00034391563
vn 0.999874 0.015871048 -0.00034391563
vn 0.999874 0.015871048 -0.00034391563
vn 0.999874 0.015871048 -0.00034391563
vn 0.999874 0.015871048 -0.00034391563
vn 0.999874 0.015871048 -0.00034391563
vn 0.999874 0.015871048 -0.00034391563
vn 0.999874 0.015871048 -0.00034391563
vn 0.999874 0.015871048 -0.00034391563
vn 0.999874 0.015871048 -0.00034391563
vn 0.999874 0.015871048 -0.00034391563
vn 0.999874 0.015871048 -0.00034391563
vn 0.999874 0.015871048 -0.00034391563
vn 0.999874 0.015871048 -0.00034391563
vn 0.999874 0.015871048 -0.00034391563
vn 0.999874 0.015871048 -0.00034391563
vn 0.999874 0.015871048 -0.00034391563
vn 0.999874 0.015871048 -0.00034391563
vn 0.999874 0.015871048 -0.00034391563
vn 0.999874 0.015871048 -0.00034391563
vn -0.7459378 0.015871048 -0.66582644
vn -0.7459378 0.015871048 -0.66582644
vn -0.7459378 0.015871048 -0.66582644
vn -0.7459378 0.015871048 -0.66582644
vn -0.7459378 0.015871048 -0.66582644
vn -0.7459378 0.015871048 -0.66582644
vn -0.7459378 0.015871048 -0.66582644
vn -0.7459378 0.015871048 -0.66582644
vn -0.7459378 0.015871048 -0.66582644
vn -0.7459378 0.015871048 -0.66582644
vn -0.015871048 0.015871048 -0.99974805
vn -0.015871048 0.015871048 -0.99974805
vn -0.015871048 0.015871048 -0.99974805
vn -0.015871048 0.015871048 -0.99974805
vn -0.015871048 0.015871048 -0.99974805
vn -0.015871048 0.015871048 -0.99974805
vn -0.015871048 0.015871048 -0.99974805
vn -0.015871048 0.015871048 -0.99974805
vn -0.015871048 0.015871048 -0.99974805
vn -0.015871048 0.015871048 -0.99974805
vn 0.68245363 0.015871048 -0.7307566
vn 0.68245363 0.015871048 -0.7307566
vn 0.68245363 0.015871048 -0.7307566
vn 0.68245363 0.015871048 -0.7307566
vn 0.68245363 0.015871048 -0.7307566
vn 0.68245363 0.015871048 -0.7307566
vn 0.68245363 0.015871048 -0.7307566
vn 0.68245363 0.015871048 -0.7307566
vn -0.999874 0.015871048 -0.00034391563
vn -0.999874 0.015871048 -0.00034391563
vn -0.999874 0.015871048 -0.00034391563
vn -0.999874 0.015871048 -0.00034391563
vn -0.999874 0.015871048 -0.00034391563
vn -0.999874 0.015871048 -0.00034391563
vn -0.999874 0.015871048 -0.00034391563
vn -0.999874 0.015871048 -0.00034391563
vn -0.999874 0.015871048 -0.00034391563
vn -0.999874 0.015871048 -0.00034391563
vn -0.999874 0.015871048 -0.00034391563
vn -0.999874 0.015871048 -0.00034391563
vn -0.999874 0.015871048 -0.00034391563
vn -0.999874 0.015871048 -0.00034391563
vn -0.999874 0.015871048 -0.00034391563
vn -0.999874 0.015871048 -0.00034391563
vn -0.999874 0.015871048 -0.00034391563
vn -0.999874 0.015871048 -0.00034391563
vn -0.999874 0.015871048 -0.00034391563
vn -0.999874 0.015871048 -0.00034391563
vn -0.999874 0.015871048 -0.00034391563
vn -0.999874 0.015871048 -0.00034391563
vn -0.999874 0.015871048 -0.00034391563
vn -0.999874 0.015871048 -0.00034391563
vn -0.999874 0.015871048 -0.00034391563
vn -0.999874 0.015871048 -0.00034391563
vn -0.999874 0.015871048 -0.00034391563
vn -0.999874 0.015871048 -0.00034391563
vn -0.015871048 0.015871048 0.99974805
vn -0.015871048 0.015871048 0.99974805
vn -0.015871048 0.015871048 0.99974805
vn -0.015871048 0.015871048 0.99974805
vn -0.015871048 0.015871048 0.99974805
vn -0.015871048 0.015871048 0.99974805
vn -0.015871048 0.015871048 0.99974805
vn -0.015871048 0.015871048 0.99974805
vn -0.015871048 0.015871048 0.99974805
vn -0.015871048 0.015871048 0.99974805
vn -0.015871048 0.015871048 0.99974805
vn -0.015871048 0.015871048 0.99974805
vn -0.015871048 0.015871048 0.99974805
vn -0.015871048 0.015871048 0.99974805
vn -0.015871048 0.015871048 0.99974805
vn -0.015871048 0.015871048 0.99974805
vn -0.015871048 0.015871048 0.99974805
vn -0.015871048 0.015871048 0.99974805
vn -0.015871048 0.015871048 0.99974805
vn -0.015871048 0.015871048 0.99974805
vn -0.015871048 0.015871048 0.99974805
vn -0.015871048 0.015871048 0.99974805
vn -0.015871048 0.015871048 0.99974805
vn -0.015871048 0.015871048 0.99974805
vn -0.015871048 0.015871048 0.99974805
vn -0.015871048 0.015871048 0.99974805
vn -0.015871048 0.015871048 0.99974805
vn -0.015871048 0.015871048 0.99974805
vn -0.015871048 0.015871048 0.99974805
vn -0.015871048 0.015871048 0.99974805
vn -0.015871048 0.015871048 0.99974805
vn -0.015871048 0.015871048 0.99974805
vn -0.015871048 0.015871048 0.99974805
vn -0.015871048 0.015871048 0.99974805
vn -0.015871048 0.015871048 0.99974805
vn -0.015871048 0.015871048 0.99974805
vn -0.015871048 0.015871048 0.99974805
vn -0.015871048 0.015871048 0.99974805
vn -0.015871048 0.015871048 0.99974805
vn -0.015871048 0.015871048 0.99974805
vn -0.015871048 0.015871048 0.99974805
vn -0.015871048 0.015871048 0.99974805
vn -0.015871048 0.015871048 0.99974805
vn -0.015871048 0.015871048 0.99974805
vn -0.015871048 0.015871048 0.99974805
vn -0.015871048 0.015871048 0.99974805
vn -0.015871048 0.015871048 0.99974805
vn -0.015871048 0.015871048 0.99974805
vn -0.015871048 0.015871048 0.99974805
vn -0.015871048 0.015871048 0.99974805
vn -0.015871048 0.015871048 0.99974805
vn -0.015871048 0.015871048 0.99974805
vn -0.015871048 0.015871048 0.99974805
vn -0.015871048 0.015871048 0.99974805
vn -0.7141957 0.015871048 0.6997661
vn -0.7141957 0.015871048 0.6997661
vn -0.7141957 0.015871048 0.6997661
vn -0.7141957 0.015871048 0.6997661
vn -0.7141957 0.015871048 0.6997661
vn -0.7141957 0.015871048 0.6997661
vn -0.7141957 0.015871048 0.6997661
vn -0.7141957 0.015871048 0.6997661
vn -0.015871048 0.015871048 0.99974805
vn -0.015871048 0.015871048 0.99974805
vn -0.015871048 0.015871048 0.99974805
vn -0.015871048 0.015871048 0.99974805
vn -0.015871048 0.015871048 0.99974805
vn -0.015871048 0.015871048 0.99974805
vn -0.015871048 0.015871048 0.99974805
vn -0.015871048 0.015871048 0.99974805
vn -0.015871048 0.015871048 0.99974805
vn -0.015871048 0.015871048 0.99974805
vn -0.68245375 0.015871048 0.73075646
vn -0.68245375 0.015871048 0.73075646
vn -0.68245375 0.015871048 0.73075646
vn -0.68245375 0.015871048 0.73075646
vn -0.68245375 0.015871048 0.73075646
vn -0.68245375 0.015871048 0.73075646
vn -0.68245375 0.015871048 0.73075646
vn -0.68245375 0.015871048 0.73075646
vn -0.999874 0.015871048 -0.00034391563
vn -0.999874 0.015871048 -0.00034391563
vn -0.999874 0.015871048 -0.00034391563
vn -0.999874 0.015871048 -0.00034391563
vn -0.999874 0.015871048 -0.00034391563
vn -0.999874 0.015871048 -0.00034391563
vn -0.999874 0.015871048 -0.00034391563
vn -0.999874 0.015871048 -0.00034391563
vn -0.999874 0.015871048 -0.00034391563
vn -0.999874 0.015871048 -0.00034391563
vn -0.999874 0.015871048 -0.00034391563
vn -0.999874 0.015871048 -0.00034391563
vn -0.999874 0.015871048 -0.00034391563
vn -0.999874 0.015871048 -0.00034391563
vn -0.999874 0.015871048 -0.00034391563
vn -0.999874 0.015871048 -0.00034391563
vn -0.999874 0.015871048 -0.00034391563
vn -0.999874 0.015871048 -0.00034391563
vn -0.999874 0.015871048 -0.00034391563
vn -0.999874 0.015871048 -0.00034391563
vn -0.999874 0.015871048 -0.00034391563
vn -0.999874 0.015871048 -0.00034391563
vn -0.999874 0.015871048 -0.00034391563
vn -0.999874 0.015871048 -0.00034391563
vn -0.999874 0.015871048 -0.00034391563
vn -0.999874 0.015871048 -0.00034391563
vn -0.999874 0.015871048 -0.00034391563
vn -0.999874 0.015871048 -0.00034391563
vn -0.015871048 0.015871048 -0.99974805
vn -0.015871048 0.015871048 -0.99974805
vn -0.015871048 0.015871048 -0.99974805
vn -0.015871048 0.015871048 -0.99974805
vn -0.015871048 0.015871048 -0.99974805
vn -0.015871048 0.015871048 -0.99974805
vn -0.015871048 0.015871048 -0.99974805
vn -0.015871048 0.015871048 -0.99974805
vn -0.015871048 0.015871048 -0.99974805
vn -0.015871048 0.015871048 -0.99974805
vn -0.015871048 0.015871048 -0.99974805
vn -0.015871048 0.015871048 -0.99974805
vn -0.015871048 0.015871048 -0.99974805
vn -0.015871048 0.015871048 -0.99974805
vn -0.015871048 0.015871048 -0.99974805
vn -0.015871048 0.015871048 -0.99974805
vn -0.015871048 0.015871048 -0.99974805
vn -0.015871048 0.015871048 -0.99974805
vn -0.015871048 0.015871048 -0.99974805
vn -0.015871048 0.015871048 -0.99974805
vn -0.015871048 0.015871048 -0.99974805
vn -0.015871048 0.015871048 -0.99974805
vn -0.015871048 0.015871048 -0.99974805
vn -0.015871048 0.015871048 -0.99974805
vn -0.015871048 0.015871048 -0.99974805
vn -0.015871048 0.015871048 -0.99974805
vn -0.015871048 0.015871048 -0.99974805
vn -0.015871048 0.015871048 -0.99974805
vn -0.015871048 0.015871048 -0.99974805
vn -0.015871048 0.015871048 -0.99974805
vn -0.015871048 0.015871048 -0.99974805
vn -0.015871048 0.015871048 -0.99974805
vn -0.015871048 0.015871048 -0.99974805
vn -0.015871048 0.015871048 -0.99974805
vn 0.999874 0.015871048 -0.00034391563
vn 0.999874 0.015871048 -0.00034391563
vn 0.999874 0.015871048 -0.00034391563
vn 0.999874 0.015871048 -0.00034391563
vn 0.999874 0.015871048 -0.00034391563
vn 0.999874 0.015871048 -0.00034391563
vn 0.999874 0.015871048 -0.00034391563
vn 0.999874 0.015871048 -0.00034391563
vn 0.999874 0.015871048 -0.00034391563
vn 0.999874 0.015871048 -0.00034391563
vn 0.999874 0.015871048 -0.00034391563
vn 0.999874 0.015871048 -0.00034391563
vn 0.999874 0.015871048 -0.00034391563
vn 0.999874 0.015871048 -0.00034391563
vn 0.999874 0.015871048 -0.00034391563
vn 0.999874 0.015871048 -0.00034391563
vn 0.999874 0.015871048 -0.00034391563
vn 0.999874 0.015871048 -0.00034391563
vn 0.999874 0.015871048 -0.00034391563
vn 0.999874 0.015871048 -0.00034391563
vn 0.999874 0.015871048 -0.00034391563
vn 0.999874 0.015871048 -0.00034391563
vn 0.999874 0.015871048 -0.00034391563
vn 0.999874 0.015871048 -0.00034391563
vn 0.999874 0.015871048 -0.00034391563
vn 0.999874 0.015871048 -0.00034391563
vn 0.999874 0.015871048 -0.00034391563
vn 0.999874 0.015871048 -0.00034391563
vn 0.7459377 0.015871048 0.66582656
vn 0.7459377 0.015871048 0.66582656
vn 0.7459377 0.015871048 0.66582656
vn 0.7459377 0.015871048 0.66582656
vn 0.7459377 0.015871048 0.66582656
vn 0.7459377 0.015871048 0.66582656
vn 0.7459377 0.015871048 0.66582656
vn 0.7459377 0.015871048 0.66582656
vn 0.7459377 0.015871048 0.66582656
vn 0.7459377 0.015871048 0.66582656
vn 0.07935506 0.90464795 -0.41870615
vn 0.07935506 0.90464795 -0.41870615
vn 0.07935506 0.90464795 -0.41870615
vn 0.07935506 0.90464795 -0.41870615
vn 0.07935506 0.90464795 -0.41870615
vn 0.07935506 0.90464795 -0.41870615
vn 0.07935506 0.90464795 -0.41870615
vn 0.07935506 0.90464795 -0.41870615
vn 0.07935506 0.90464795 -0.41870615
vn 0.07935506 0.9363899 -0.34187227
vn 0.07935506 0.9363899 -0.34187227
vn 0.07935506 0.9363899 -0.34187227
vn 0.07935506 0.9363899 -0.34187227
vn 0.1110971 0.90464795 -0.41142374
vn 0.07935506 0.9363899 -0.34187227
vn 0.1110971 0.90464795 -0.41142374
vn 0.1110971 0.90464795 -0.41142374
g tb_geo_light_outline_06_mesh_0
f 3/3/3 2/2/2 1/1/1
f 2/2/2 4/4/4 1/1/1
f 1/1/1 4/4/4 5/5/5
f 4/4/4 6/6/6 5/5/5
f 4/4/4 2/2/2 7/7/7
f 6/6/6 4/4/4 7/7/7
f 2/2/2 8/8/8 7/7/7
f 7/7/7 8/8/8 9/9/9
f 10/10/10 6/6/6 7/7/7
f 11/11/11 7/7/7 9/9/9
f 7/7/7 11/11/11 10/10/10
f 11/11/11 12/12/12 10/10/10
f 15/15/15 14/14/14 13/13/13
f 16/16/16 15/15/15 13/13/13
f 15/15/15 16/16/16 17/17/17
f 18/18/18 16/16/16 13/13/13
f 19/19/19 18/18/18 13/13/13
f 18/18/18 20/20/20 16/16/16
f 16/16/16 21/21/21 17/17/17
f 20/20/20 21/21/21 16/16/16
f 22/22/22 17/17/17 21/21/21
f 21/21/21 20/20/20 23/23/23
f 24/24/24 22/22/22 21/21/21
f 24/24/24 21/21/21 23/23/23
f 27/27/27 26/26/26 25/25/25
f 26/26/26 28/28/28 25/25/25
f 28/28/28 29/29/29 25/25/25
f 29/29/29 30/30/30 25/25/25
f 30/30/30 29/29/29 31/31/31
f 29/29/29 32/32/32 31/31/31
f 31/31/31 32/32/32 33/33/33
f 32/32/32 34/34/34 33/33/33
f 33/33/33 34/34/34 35/35/35
f 36/36/36 33/33/33 35/35/35
f 36/36/36 35/35/35 37/37/37
f 38/38/38 36/36/36 37/37/37
f 37/37/37 35/35/35 39/39/39
f 40/40/40 37/37/37 39/39/39
f 35/35/35 41/41/41 39/39/39
f 41/41/41 42/42/42 39/39/39
f 43/43/43 42/42/42 41/41/41
f 44/44/44 43/43/43 41/41/41
f 44/44/44 45/45/45 43/43/43
f 45/45/45 46/46/46 43/43/43
f 47/47/47 46/46/46 45/45/45
f 48/48/48 47/47/47 45/45/45
f 47/47/47 28/28/28 49/49/49
f 50/50/50 47/47/47 49/49/49
f 50/50/50 49/49/49 51/51/51
f 49/49/49 52/52/52 51/51/51
f 51/51/51 52/52/52 53/53/53
f 54/54/54 52/52/52 49/49/49
f 55/55/55 54/54/54 49/49/49
f 54/54/54 56/56/56 52/52/52
f 52/52/52 57/57/57 53/53/53
f 56/56/56 57/57/57 52/52/52
f 58/58/58 53/53/53 57/57/57
f 57/57/57 56/56/56 59/59/59
f 60/60/60 58/58/58 57/57/57
f 60/60/60 57/57/57 59/59/59
f 63/63/63 62/62/62 61/61/61
f 62/62/62 64/64/64 61/61/61
f 64/64/64 65/65/65 61/61/61
f 65/65/65 66/66/66 61/61/61
f 66/66/66 65/65/65 67/67/67
f 64/64/64 62/62/62 68/68/68
f 64/64/64 68/68/68 65/65/65
f 62/62/62 69/69/69 68/68/68
f 62/62/62 70/70/70 69/69/69
f 70/70/70 71/71/71 69/69/69
f 68/68/68 72/72/72 65/65/65
f 65/65/65 73/73/73 67/67/67
f 65/65/65 72/72/72 73/73/73
f 72/72/72 74/74/74 73/73/73
f 67/67/67 73/73/73 75/75/75
f 73/73/73 74/74/74 76/76/76
f 73/73/73 77/77/77 75/75/75
f 77/77/77 73/73/73 76/76/76
f 78/78/78 75/75/75 77/77/77
f 76/76/76 79/79/79 77/77/77
f 80/80/80 78/78/78 77/77/77
f 79/79/79 80/80/80 77/77/77
f 78/78/78 80/80/80 81/81/81
f 81/81/81 80/80/80 79/79/79
f 82/82/82 78/78/78 81/81/81
f 82/82/82 81/81/81 83/83/83
f 84/84/84 81/81/81 79/79/79
f 81/81/81 85/85/85 83/83/83
f 81/81/81 84/84/84 85/85/85
f 84/84/84 86/86/86 85/85/85
f 89/89/89 88/88/88 87/87/87
f 90/90/90 89/89/89 87/87/87
f 90/90/90 87/87/87 91/91/91
f 87/87/87 92/92/92 91/91/91
f 91/91/91 93/93/93 90/90/90
f 93/93/93 94/94/94 90/90/90
f 89/89/89 90/90/90 94/94/94
f 95/95/95 89/89/89 94/94/94
f 98/98/98 97/97/97 96/96/96
f 99/99/99 98/98/98 96/96/96
f 99/99/99 100/100/100 98/98/98
f 100/100/100 101/101/101 98/98/98
f 104/104/104 103/103/103 102/102/102
f 103/103/103 105/105/105 102/102/102
f 102/102/102 105/105/105 106/106/106
f 107/107/107 102/102/102 106/106/106
f 110/110/110 109/109/109 108/108/108
f 109/109/109 111/111/111 108/108/108
f 112/112/112 111/111/111 109/109/109
f 113/113/113 112/112/112 109/109/109
f 116/116/116 115/115/115 114/114/114
f 115/115/115 117/117/117 114/114/114
f 114/114/114 117/117/117 118/118/118
f 119/119/119 114/114/114 118/118/118
f 122/122/122 121/121/121 120/120/120
f 123/123/123 122/122/122 120/120/120
f 123/123/123 120/120/120 124/124/124
f 120/120/120 125/125/125 124/124/124
f 122/122/122 123/123/123 126/126/126
f 123/123/123 124/124/124 126/126/126
f 127/127/127 122/122/122 126/126/126
f 124/124/124 128/128/128 126/126/126
f 128/128/128 124/124/124 129/129/129
f 124/124/124 130/130/130 129/129/129
f 124/124/124 125/125/125 130/130/130
f 125/125/125 131/131/131 130/130/130
f 134/134/134 133/133/133 132/132/132
f 133/133/133 135/135/135 132/132/132
f 136/136/136 132/132/132 135/135/135
f 137/137/137 136/136/136 135/135/135
f 140/140/140 139/139/139 138/138/138
f 139/139/139 141/141/141 138/138/138
f 138/138/138 141/141/141 142/142/142
f 143/143/143 138/138/138 142/142/142
f 141/141/141 145/145/145 144/144/144
f 146/146/146 141/141/141 144/144/144
f 149/149/149 148/148/148 147/147/147
f 148/148/148 150/150/150 147/147/147
f 147/147/147 150/150/150 151/151/151
f 152/152/152 147/147/147 151/151/151
f 150/150/150 148/148/148 153/153/153
f 151/151/151 150/150/150 153/153/153
f 148/148/148 154/154/154 153/153/153
f 155/155/155 151/151/151 153/153/153
f 152/152/152 151/151/151 156/156/156
f 156/156/156 151/151/151 155/155/155
f 157/157/157 152/152/152 156/156/156
f 158/158/158 156/156/156 155/155/155
f 157/157/157 156/156/156 159/159/159
f 156/156/156 158/158/158 160/160/160
f 156/156/156 160/160/160 159/159/159
f 158/158/158 161/161/161 160/160/160
f 162/162/162 159/159/159 160/160/160
f 160/160/160 161/161/161 163/163/163
f 164/164/164 162/162/162 160/160/160
f 164/164/164 160/160/160 163/163/163
f 165/165/165 162/162/162 164/164/164
f 164/164/164 163/163/163 166/166/166
f 166/166/166 165/165/165 164/164/164
f 163/163/163 167/167/167 166/166/166
f 167/167/167 168/168/168 166/166/166
f 168/168/168 169/169/169 166/166/166
f 166/166/166 169/169/169 165/165/165
f 169/169/169 170/170/170 165/165/165
f 173/173/173 172/172/172 171/171/171
f 172/172/172 174/174/174 171/171/171
f 175/175/175 171/171/171 174/174/174
f 172/172/172 176/176/176 174/174/174
f 177/177/177 175/175/175 174/174/174
f 176/176/176 178/178/178 174/174/174
f 177/177/177 174/174/174 178/178/178
f 179/179/179 177/177/177 178/178/178
f 182/182/182 181/181/181 180/180/180
f 181/181/181 183/183/183 180/180/180
f 184/184/184 180/180/180 183/183/183
f 185/185/185 184/184/184 183/183/183
f 188/188/188 187/187/187 186/186/186
f 189/189/189 188/188/188 186/186/186
f 192/192/192 191/191/191 190/190/190
f 191/191/191 193/193/193 190/190/190
f 194/194/194 190/190/190 193/193/193
f 195/195/195 194/194/194 193/193/193
f 198/198/198 197/197/197 196/196/196
f 199/199/199 198/198/198 196/196/196
f 202/202/202 201/201/201 200/200/200
f 201/201/201 203/203/203 200/200/200
f 203/203/203 204/204/204 200/200/200
f 204/204/204 205/205/205 200/200/200
f 208/208/208 207/207/207 206/206/206
f 207/207/207 209/209/209 206/206/206
f 210/210/210 206/206/206 209/209/209
f 211/211/211 210/210/210 209/209/209
f 214/214/214 213/213/213 212/212/212
f 213/213/213 215/215/215 212/212/212
f 215/215/215 213/213/213 216/216/216
f 213/213/213 217/217/217 216/216/216
f 220/220/220 219/219/219 218/218/218
f 219/219/219 221/221/221 218/218/218
f 221/221/221 219/219/219 222/222/222
f 219/219/219 223/223/223 222/222/222
f 226/226/226 225/225/225 224/224/224
f 227/227/227 226/226/226 224/224/224
f 230/230/230 229/229/229 228/228/228
f 231/231/231 230/230/230 228/228/228
f 231/231/231 228/228/228 232/232/232
f 233/233/233 231/231/231 232/232/232
f 233/233/233 234/234/234 231/231/231
f 234/234/234 235/235/235 231/231/231
f 230/230/230 231/231/231 235/235/235
f 236/236/236 230/230/230 235/235/235
f 239/239/239 238/238/238 237/237/237
f 238/238/238 240/240/240 237/237/237
f 240/240/240 241/241/241 237/237/237
f 241/241/241 242/242/242 237/237/237
f 245/245/245 244/244/244 243/243/243
f 246/246/246 245/245/245 243/243/243
f 246/246/246 247/247/247 245/245/245
f 247/247/247 248/248/248 245/245/245
f 251/251/251 250/250/250 249/249/249
f 250/250/250 252/252/252 249/249/249
f 252/252/252 250/250/250 253/253/253
f 250/250/250 254/254/254 253/253/253
f 257/257/257 256/256/256 255/255/255
f 258/258/258 257/257/257 255/255/255
f 258/258/258 255/255/255 259/259/259
f 260/260/260 258/258/258 259/259/259
f 258/258/258 261/261/261 257/257/257
f 261/261/261 262/262/262 257/257/257
f 265/265/265 264/264/264 263/263/263
f 266/266/266 265/265/265 263/263/263
f 269/269/269 268/268/268 267/267/267
f 270/270/270 269/269/269 267/267/267
f 270/270/270 267/267/267 271/271/271
f 272/272/272 270/270/270 271/271/271
f 270/270/270 272/272/272 273/273/273
f 274/274/274 270/270/270 273/273/273
f 269/269/269 270/270/270 275/275/275
f 276/276/276 269/269/269 275/275/275
f 279/279/279 278/278/278 277/277/277
f 280/280/280 279/279/279 277/277/277
f 283/283/283 282/282/282 281/281/281
f 284/284/284 283/283/283 281/281/281
f 287/287/287 286/286/286 285/285/285
f 288/288/288 287/287/287 285/285/285
f 291/291/291 290/290/290 289/289/289
f 292/292/292 291/291/291 289/289/289
f 293/293/293 291/291/291 292/292/292
f 294/294/294 293/293/293 292/292/292
f 295/295/295 293/293/293 294/294/294
f 296/296/296 295/295/295 294/294/294
f 297/297/297 295/295/295 296/296/296
f 298/298/298 297/297/297 296/296/296
f 299/299/299 297/297/297 298/298/298
f 300/300/300 299/299/299 298/298/298
f 301/301/301 299/299/299 300/300/300
f 302/302/302 301/301/301 300/300/300
f 303/303/303 301/301/301 302/302/302
f 304/304/304 303/303/303 302/302/302
f 305/305/305 303/303/303 304/304/304
f 306/306/306 305/305/305 304/304/304
f 307/307/307 305/305/305 306/306/306
f 308/308/308 307/307/307 306/306/306
f 311/311/311 310/310/310 309/309/309
f 310/310/310 312/312/312 309/309/309
f 309/309/309 312/312/312 313/313/313
f 312/312/312 314/314/314 313/313/313
f 313/313/313 314/314/314 315/315/315
f 314/314/314 316/316/316 315/315/315
f 319/319/319 318/318/318 317/317/317
f 320/320/320 319/319/319 317/317/317
f 321/321/321 319/319/319 320/320/320
f 322/322/322 321/321/321 320/320/320
f 323/323/323 321/321/321 322/322/322
f 324/324/324 323/323/323 322/322/322
f 325/325/325 323/323/323 324/324/324
f 326/326/326 325/325/325 324/324/324
f 327/327/327 325/325/325 326/326/326
f 328/328/328 327/327/327 326/326/326
f 329/329/329 327/327/327 328/328/328
f 330/330/330 329/329/329 328/328/328
f 331/331/331 329/329/329 330/330/330
f 332/332/332 331/331/331 330/330/330
f 333/333/333 331/331/331 332/332/332
f 334/334/334 333/333/333 332/332/332
f 335/335/335 333/333/333 334/334/334
f 336/336/336 335/335/335 334/334/334
f 337/337/337 335/335/335 336/336/336
f 338/338/338 337/337/337 336/336/336
f 339/339/339 337/337/337 338/338/338
f 340/340/340 339/339/339 338/338/338
f 341/341/341 339/339/339 340/340/340
f 342/342/342 341/341/341 340/340/340
f 343/343/343 341/341/341 342/342/342
f 344/344/344 343/343/343 342/342/342
f 347/347/347 346/346/346 345/345/345
f 348/348/348 347/347/347 345/345/345
f 349/349/349 347/347/347 348/348/348
f 350/350/350 349/349/349 348/348/348
f 351/351/351 349/349/349 350/350/350
f 352/352/352 351/351/351 350/350/350
f 353/353/353 351/351/351 352/352/352
f 354/354/354 353/353/353 352/352/352
f 357/357/357 356/356/356 355/355/355
f 356/356/356 358/358/358 355/355/355
f 355/355/355 358/358/358 359/359/359
f 358/358/358 360/360/360 359/359/359
f 359/359/359 360/360/360 361/361/361
f 360/360/360 362/362/362 361/361/361
f 361/361/361 362/362/362 363/363/363
f 362/362/362 364/364/364 363/363/363
f 367/367/367 366/366/366 365/365/365
f 368/368/368 367/367/367 365/365/365
f 369/369/369 367/367/367 368/368/368
f 370/370/370 369/369/369 368/368/368
f 371/371/371 369/369/369 370/370/370
f 372/372/372 371/371/371 370/370/370
f 375/375/375 374/374/374 373/373/373
f 374/374/374 376/376/376 373/373/373
f 373/373/373 376/376/376 377/377/377
f 376/376/376 378/378/378 377/377/377
f 377/377/377 378/378/378 379/379/379
f 378/378/378 380/380/380 379/379/379
f 379/379/379 380/380/380 381/381/381
f 380/380/380 382/382/382 381/381/381
f 381/381/381 382/382/382 383/383/383
f 382/382/382 384/384/384 383/383/383
f 383/383/383 384/384/384 385/385/385
f 384/384/384 386/386/386 385/385/385
f 385/385/385 386/386/386 387/387/387
f 386/386/386 388/388/388 387/387/387
f 387/387/387 388/388/388 389/389/389
f 388/388/388 390/390/390 389/389/389
f 389/389/389 390/390/390 391/391/391
f 390/390/390 392/392/392 391/391/391
f 391/391/391 392/392/392 393/393/393
f 392/392/392 394/394/394 393/393/393
f 393/393/393 394/394/394 395/395/395
f 394/394/394 396/396/396 395/395/395
f 395/395/395 396/396/396 397/397/397
f 396/396/396 398/398/398 397/397/397
f 397/397/397 398/398/398 399/399/399
f 398/398/398 400/400/400 399/399/399
f 403/403/403 402/402/402 401/401/401
f 402/402/402 404/404/404 401/401/401
f 401/401/401 404/404/404 405/405/405
f 404/404/404 406/406/406 405/405/405
f 405/405/405 406/406/406 407/407/407
f 406/406/406 408/408/408 407/407/407
f 407/407/407 408/408/408 409/409/409
f 408/408/408 410/410/410 409/409/409
f 409/409/409 410/410/410 411/411/411
f 410/410/410 412/412/412 411/411/411
f 411/411/411 412/412/412 413/413/413
f 412/412/412 414/414/414 413/413/413
f 413/413/413 414/414/414 415/415/415
f 414/414/414 416/416/416 415/415/415
f 415/415/415 416/416/416 417/417/417
f 416/416/416 418/418/418 417/417/417
f 417/417/417 418/418/418 419/419/419
f 418/418/418 420/420/420 419/419/419
f 419/419/419 420/420/420 421/421/421
f 420/420/420 422/422/422 421/421/421
f 421/421/421 422/422/422 423/423/423
f 422/422/422 424/424/424 423/423/423
f 423/423/423 424/424/424 425/425/425
f 424/424/424 426/426/426 425/425/425
f 425/425/425 426/426/426 427/427/427
f 426/426/426 428/428/428 427/427/427
f 427/427/427 428/428/428 429/429/429
f 428/428/428 430/430/430 429/429/429
f 429/429/429 430/430/430 431/431/431
f 430/430/430 432/432/432 431/431/431
f 431/431/431 432/432/432 433/433/433
f 432/432/432 434/434/434 433/433/433
f 437/437/437 436/436/436 435/435/435
f 438/438/438 437/437/437 435/435/435
f 439/439/439 437/437/437 438/438/438
f 440/440/440 439/439/439 438/438/438
f 441/441/441 439/439/439 440/440/440
f 442/442/442 441/441/441 440/440/440
f 443/443/443 441/441/441 442/442/442
f 444/444/444 443/443/443 442/442/442
f 445/445/445 443/443/443 444/444/444
f 446/446/446 445/445/445 444/444/444
f 447/447/447 445/445/445 446/446/446
f 448/448/448 447/447/447 446/446/446
f 449/449/449 447/447/447 448/448/448
f 450/450/450 449/449/449 448/448/448
f 451/451/451 449/449/449 450/450/450
f 452/452/452 451/451/451 450/450/450
f 453/453/453 451/451/451 452/452/452
f 454/454/454 453/453/453 452/452/452
f 457/457/457 456/456/456 455/455/455
f 458/458/458 457/457/457 455/455/455
f 459/459/459 457/457/457 458/458/458
f 460/460/460 459/459/459 458/458/458
f 461/461/461 459/459/459 460/460/460
f 462/462/462 461/461/461 460/460/460
f 465/465/465 464/464/464 463/463/463
f 466/466/466 465/465/465 463/463/463
f 467/467/467 465/465/465 466/466/466
f 468/468/468 467/467/467 466/466/466
f 469/469/469 467/467/467 468/468/468
f 470/470/470 469/469/469 468/468/468
f 471/471/471 469/469/469 470/470/470
f 472/472/472 471/471/471 470/470/470
f 475/475/475 474/474/474 473/473/473
f 476/476/476 475/475/475 473/473/473
f 477/477/477 475/475/475 476/476/476
f 478/478/478 477/477/477 476/476/476
f 479/479/479 477/477/477 478/478/478
f 480/480/480 479/479/479 478/478/478
f 483/483/483 482/482/482 481/481/481
f 484/484/484 483/483/483 481/481/481
f 485/485/485 483/483/483 484/484/484
f 486/486/486 485/485/485 484/484/484
f 487/487/487 485/485/485 486/486/486
f 488/488/488 487/487/487 486/486/486
f 489/489/489 487/487/487 488/488/488
f 490/490/490 489/489/489 488/488/488
f 491/491/491 489/489/489 490/490/490
f 492/492/492 491/491/491 490/490/490
f 493/493/493 491/491/491 492/492/492
f 494/494/494 493/493/493 492/492/492
f 495/495/495 493/493/493 494/494/494
f 496/496/496 495/495/495 494/494/494
f 497/497/497 495/495/495 496/496/496
f 498/498/498 497/497/497 496/496/496
f 499/499/499 497/497/497 498/498/498
f 500/500/500 499/499/499 498/498/498
f 501/501/501 499/499/499 500/500/500
f 502/502/502 501/501/501 500/500/500
f 503/503/503 501/501/501 502/502/502
f 504/504/504 503/503/503 502/502/502
f 505/505/505 503/503/503 504/504/504
f 506/506/506 505/505/505 504/504/504
f 507/507/507 505/505/505 506/506/506
f 508/508/508 507/507/507 506/506/506
f 511/511/511 510/510/510 509/509/509
f 512/512/512 511/511/511 509/509/509
f 513/513/513 511/511/511 512/512/512
f 514/514/514 513/513/513 512/512/512
f 515/515/515 513/513/513 514/514/514
f 516/516/516 515/515/515 514/514/514
f 517/517/517 515/515/515 516/516/516
f 518/518/518 517/517/517 516/516/516
f 519/519/519 517/517/517 518/518/518
f 520/520/520 519/519/519 518/518/518
f 521/521/521 519/519/519 520/520/520
f 522/522/522 521/521/521 520/520/520
f 523/523/523 521/521/521 522/522/522
f 524/524/524 523/523/523 522/522/522
f 525/525/525 523/523/523 524/524/524
f 526/526/526 525/525/525 524/524/524
f 527/527/527 525/525/525 526/526/526
f 528/528/528 527/527/527 526/526/526
f 529/529/529 527/527/527 528/528/528
f 530/530/530 529/529/529 528/528/528
f 531/531/531 529/529/529 530/530/530
f 532/532/532 531/531/531 530/530/530
f 533/533/533 531/531/531 532/532/532
f 534/534/534 533/533/533 532/532/532
f 535/535/535 533/533/533 534/534/534
f 536/536/536 535/535/535 534/534/534
f 537/537/537 535/535/535 536/536/536
f 538/538/538 537/537/537 536/536/536
f 539/539/539 537/537/537 538/538/538
f 540/540/540 539/539/539 538/538/538
f 541/541/541 539/539/539 540/540/540
f 542/542/542 541/541/541 540/540/540
f 545/545/545 544/544/544 543/543/543
f 546/546/546 545/545/545 543/543/543
f 547/547/547 545/545/545 546/546/546
f 548/548/548 547/547/547 546/546/546
f 549/549/549 547/547/547 548/548/548
f 550/550/550 549/549/549 548/548/548
f 551/551/551 549/549/549 550/550/550
f 552/552/552 551/551/551 550/550/550
f 553/553/553 551/551/551 552/552/552
f 554/554/554 553/553/553 552/552/552
f 555/555/555 553/553/553 554/554/554
f 556/556/556 555/555/555 554/554/554
f 557/557/557 555/555/555 556/556/556
f 558/558/558 557/557/557 556/556/556
f 559/559/559 557/557/557 558/558/558
f 560/560/560 559/559/559 558/558/558
f 561/561/561 559/559/559 560/560/560
f 562/562/562 561/561/561 560/560/560
f 563/563/563 561/561/561 562/562/562
f 564/564/564 563/563/563 562/562/562
f 565/565/565 563/563/563 564/564/564
f 566/566/566 565/565/565 564/564/564
f 567/567/567 565/565/565 566/566/566
f 568/568/568 567/567/567 566/566/566
f 569/569/569 567/567/567 568/568/568
f 570/570/570 569/569/569 568/568/568
f 573/573/573 572/572/572 571/571/571
f 574/574/574 573/573/573 571/571/571
f 575/575/575 573/573/573 574/574/574
f 576/576/576 575/575/575 574/574/574
f 577/577/577 575/575/575 576/576/576
f 578/578/578 577/577/577 576/576/576
f 579/579/579 577/577/577 578/578/578
f 580/580/580 579/579/579 578/578/578
f 583/583/583 582/582/582 581/581/581
f 584/584/584 583/583/583 581/581/581
f 585/585/585 582/582/582 583/583/583
f 586/586/586 585/585/585 583/583/583
f 586/586/586 583/583/583 587/587/587
f 583/583/583 588/588/588 587/587/587
f 584/584/584 589/589/589 583/583/583
f 589/589/589 588/588/588 583/583/583
f 591/591/591 590/590/590 589/589/589
f 592/592/592 591/591/591 589/589/589
f 593/593/593 590/590/590 591/591/591
f 592/592/592 594/594/594 591/591/591
f 595/595/595 593/593/593 591/591/591
f 594/594/594 596/596/596 591/591/591
f 595/595/595 591/591/591 597/597/597
f 591/591/591 596/596/596 597/597/597
