g tb_geo_meeple_p2c3_b_mesh
v -1.3189758 1.8859025 -1.1630083
v -1.0376467 1.8324496 -0.06959748
v -1.5372893 1.8650948 -0.17985436
v -0.8193332 1.8532573 -1.0527514
v -2.2312086 1.9037066 -1.749279
v -2.2971447 1.7383413 -0.64256483
v -2.7253933 1.7606069 -0.88326174
v -1.8029599 1.881441 -1.5085821
v -2.7241812 2.0010386 -1.7017007
v -2.297214 1.8024222 -1.0217719
v -2.785829 1.8441671 -1.0584176
v -2.2355661 1.9592935 -1.665055
v -2.7127416 1.5859656 -1.0200149
v -2.6256115 1.3928246 0.033926457
v -2.8602955 1.4174113 0.004161805
v -2.4780576 1.561379 -0.99025023
vt 0 0
vt 1 1
vt 1 0
vt 0 1
vt 0 0
vt 1 1
vt 1 0
vt 0 1
vt 0 0
vt 1 1
vt 1 0
vt 0 1
vt 0 0
vt 1 1
vt 1 0
vt 0 1
vn 0.05770334 0.997757 0.03393007
vn 0.05770334 0.997757 0.03393007
vn 0.05770334 0.997757 0.03393007
vn 0.05770334 0.997757 0.03393007
vn -0.030606955 0.98882186 0.14592622
vn -0.030606955 0.98882186 0.14592622
vn -0.030606955 0.98882186 0.14592622
vn -0.030606955 0.98882186 0.14592622
vn 0.06453768 0.9680632 0.24225718
vn 0.06453768 0.9680632 0.24225718
vn 0.06453768 0.9680632 0.24225718
vn 0.06453768 0.9680632 0.24225718
vn 0.08086813 0.9815625 0.1731918
vn 0.08086813 0.9815625 0.1731918
vn 0.08086813 0.9815625 0.1731918
vn 0.08086813 0.9815625 0.1731918
g tb_geo_meeple_p2c3_b_mesh_0
f 3/3/3 2/2/2 1/1/1
f 4/4/4 1/1/1 2/2/2
f 7/7/7 6/6/6 5/5/5
f 8/8/8 5/5/5 6/6/6
f 11/11/11 10/10/10 9/9/9
f 12/12/12 9/9/9 10/10/10
f 15/15/15 14/14/14 13/13/13
f 16/16/16 13/13/13 14/14/14
