g tb_geo_outline_01_mesh
v -0.8593861 -0.005930066 -0.051818073
v -0.83534956 -0.0037449002 -0.07366949
v -0.83316433 -0.0037449002 -0.06929916
v -0.85501575 -0.005930066 -0.049632907
v -0.8593861 -0.008115232 -0.03215176
v -0.85501575 -0.008115232 -0.03215176
v -0.7217221 0.2060287 -0.7707297
v -0.77853584 0.21695441 -0.7751
v -0.719537 0.2060287 -0.7751
v -0.77853584 0.21695441 -0.7707297
v -0.77853584 0.21695441 -0.7641743
v -0.72390735 0.2082138 -0.7641743
v -1.2505264 0.45294976 -0.7707297
v -1.4603002 0.45294976 -0.60465896
v -1.2527115 0.45294976 -0.7751
v -1.4559298 0.45294976 -0.6024738
v -1.4603002 0.45294976 -0.39707047
v -1.4559298 0.45294976 -0.39707047
v -1.4493744 0.45294976 -0.39707047
v -1.4493744 0.45294976 -0.6002886
v -1.2483413 0.45294976 -0.7641743
v -1.0145311 0.45294976 -0.7641743
v -1.0145311 0.45294976 -0.7707297
v -0.70205593 0.20384353 -0.75761884
v -0.7217221 0.2060287 -0.7707297
v -0.719537 0.2060287 -0.7751
v -0.70642614 0.20384353 -0.75543374
v -0.6802045 0.19947326 -0.7357674
v -0.6823896 0.19947326 -0.73139715
v -0.6867598 0.19947326 -0.72921205
v -0.7107965 0.20384353 -0.7510634
v -0.72390735 0.2082138 -0.7641743
v -0.6496124 0.1972881 -0.69862
v -0.6802045 0.19947326 -0.7357674
v -0.6474273 0.1972881 -0.7029903
v -0.6823896 0.19947326 -0.73139715
v -0.65398276 0.1972881 -0.69424975
v -0.6867598 0.19947326 -0.72921205
v -0.6015394 0.1972881 -0.65710235
v -0.6496124 0.1972881 -0.69862
v -0.6474273 0.1972881 -0.7029903
v -0.6059096 0.1972881 -0.6527321
v -0.549096 0.1972881 -0.59591836
v -0.54472566 0.1972881 -0.5981035
v -0.6102799 0.1972881 -0.6505469
v -0.65398276 0.1972881 -0.69424975
v -0.5534662 0.1972881 -0.5937332
v -0.549096 0.1972881 -0.57406694
v -0.54472566 0.1972881 -0.57406694
v -0.5534662 0.1972881 -0.5937332
v -0.549096 0.1972881 -0.59591836
v -0.5534662 0.1972881 -0.57406694
v -1.2505264 0.45294976 -0.7707297
v -1.2527115 0.45294976 -0.7751
v -1.0145311 0.45294976 -0.7751
v -1.0145311 0.45294976 -0.7707297
v -0.77853584 0.21695441 -0.7707297
v -0.80257237 0.23880577 -0.7751
v -0.77853584 0.21695441 -0.7751
v -0.80257237 0.23880577 -0.7707297
v -0.77853584 0.21695441 -0.7641743
v -0.80257237 0.240991 -0.7641743
v -0.9883095 0.42017257 -0.7707297
v -1.0145311 0.45294976 -0.7751
v -0.9883095 0.42017257 -0.7751
v -1.0145311 0.45294976 -0.7707297
v -1.0145311 0.45294976 -0.7641743
v -0.9883095 0.41798747 -0.7641743
v -0.9883095 0.42017257 -0.7751
v -0.9533472 0.41798747 -0.7751
v -0.9533472 0.41798747 -0.7707297
v -0.9883095 0.42017257 -0.7707297
v -0.9883095 0.41798747 -0.7641743
v -0.9533472 0.41798747 -0.7641743
v -0.9533472 0.41798747 -0.7751
v -0.92275524 0.37428463 -0.7751
v -0.92275524 0.37209952 -0.7707297
v -0.9533472 0.41798747 -0.7707297
v -0.9533472 0.41798747 -0.7641743
v -0.92275524 0.37209952 -0.7641743
v -0.92275524 0.37428463 -0.7751
v -0.8768672 0.35680342 -0.7751
v -0.8768672 0.35680342 -0.7707297
v -0.92275524 0.37209952 -0.7707297
v -0.86812663 0.33058178 -0.7707297
v -0.8768672 0.35680342 -0.7751
v -0.86812663 0.33058178 -0.7751
v -0.8768672 0.35680342 -0.7707297
v -0.86812663 0.33058178 -0.7641743
v -0.8768672 0.35680342 -0.7641743
v -0.81349814 0.33058178 -0.7707297
v -0.86812663 0.33058178 -0.7751
v -0.81349814 0.33058178 -0.7751
v -0.86812663 0.33058178 -0.7707297
v -0.81349814 0.33058178 -0.7641743
v -0.86812663 0.33058178 -0.7641743
v -0.8069427 0.2803235 -0.7751
v -0.8069427 0.2803235 -0.7707297
v -0.81568325 0.28687894 -0.7707297
v -0.81568325 0.28687894 -0.7751
v -0.80257237 0.23880577 -0.7751
v -0.8069427 0.2803235 -0.7707297
v -0.8069427 0.2803235 -0.7751
v -0.80257237 0.23880577 -0.7707297
v -0.80257237 0.240991 -0.7641743
v -0.8069427 0.2803235 -0.7641743
v -1.4559298 0.45294976 -0.39707047
v -1.4603002 0.41580236 -0.37521905
v -1.4603002 0.45294976 -0.39707047
v -1.4559298 0.41580236 -0.37521905
v -1.4493744 0.41580236 -0.37521905
v -1.4493744 0.45294976 -0.39707047
v -1.4559298 0.011551082 -0.10207629
v -1.4603002 0.011551082 -0.029966652
v -1.4603002 0.011551082 -0.10207629
v -1.4559298 0.011551082 -0.029966652
v -1.4493744 0.011551082 -0.10207629
v -1.4493744 0.011551082 -0.029966652
v -1.4559298 0.011551082 0.0071807504
v -1.4603002 0.011551082 0.011551082
v -1.4493744 0.011551082 0.00062537193
v -1.414412 0.011551082 0.011551082
v -1.414412 0.011551082 0.0071807504
v -1.414412 0.011551082 0.00062537193
v -1.3860052 0.011551082 0.0071807504
v -1.3860052 0.011551082 0.00062537193
v -1.3860052 0.011551082 0.011551082
v -1.3466728 0.011551082 0.00062537193
v -1.3466728 0.011551082 0.0071807504
v -1.3466728 0.011551082 0.011551082
v -1.287674 0.011551082 0.0071807504
v -1.287674 0.011551082 0.00062537193
v -1.287674 0.011551082 0.011551082
v -1.4559298 0.13610417 -0.13703859
v -1.4603002 0.011551082 -0.10207629
v -1.4603002 0.13610417 -0.13703859
v -1.4559298 0.011551082 -0.10207629
v -1.4493744 0.011551082 -0.10207629
v -1.4493744 0.13610417 -0.13703859
v -1.4559298 0.1972881 -0.20040768
v -1.4603002 0.13610417 -0.13703859
v -1.4603002 0.1972881 -0.20040768
v -1.4559298 0.13610417 -0.13703859
v -1.4493744 0.1972881 -0.20040768
v -1.4493744 0.13610417 -0.13703859
v -1.4559298 0.1972881 -0.34025678
v -1.4603002 0.1972881 -0.20040768
v -1.4603002 0.1972881 -0.34025678
v -1.4559298 0.1972881 -0.20040768
v -1.4493744 0.1972881 -0.20040768
v -1.4493744 0.1972881 -0.3380716
v -1.4559298 0.32402635 -0.3468122
v -1.4603002 0.31310058 -0.3315162
v -1.4603002 0.32184124 -0.3468122
v -1.4559298 0.3152858 -0.3315162
v -1.4493744 0.32402635 -0.3468122
v -1.4493744 0.3152858 -0.32933107
v -1.4559298 0.3546183 -0.35992303
v -1.4559298 0.32402635 -0.3468122
v -1.4603002 0.32184124 -0.3468122
v -1.4603002 0.3546183 -0.3621082
v -1.4559298 0.41580236 -0.37521905
v -1.4603002 0.35898864 -0.37958932
v -1.4603002 0.41580236 -0.37521905
v -1.4559298 0.35680342 -0.37958932
v -1.4493744 0.41580236 -0.37521905
v -1.4493744 0.35680342 -0.37740418
v -1.287674 0.011551082 0.0071807504
v -1.2330453 0.0071807504 0.011551082
v -1.287674 0.011551082 0.011551082
v -1.2330453 0.004995644 0.0071807504
v -1.287674 0.011551082 0.00062537193
v -1.2330453 0.004995644 0.00062537193
v -1.1631207 0.004995644 0.0071807504
v -1.1631207 0.0028104782 0.011551082
v -1.2330453 0.0071807504 0.011551082
v -1.2330453 0.004995644 0.0071807504
v -1.2330453 0.004995644 0.00062537193
v -1.1631207 0.004995644 0.00062537193
v -1.1631207 0.004995644 0.0071807504
v -1.0975666 0.004995644 0.011551082
v -1.1631207 0.0028104782 0.011551082
v -1.0975666 0.0071807504 0.0071807504
v -1.1631207 0.004995644 0.00062537193
v -1.0975666 0.0071807504 0.00062537193
v -0.94242144 -0.010300338 0.033402503
v -0.8987186 -0.012485504 0.070549905
v -0.9009038 -0.012485504 0.07492018
v -0.94023633 -0.010300338 0.031217337
v -0.8987186 -0.012485504 0.070549905
v -0.935866 -0.010300338 0.026847064
v -0.8943484 -0.012485504 0.06617963
v -0.87031186 -0.012485504 0.103327036
v -0.9009038 -0.012485504 0.07492018
v -0.86812663 -0.012485504 0.098956764
v -0.8943484 -0.012485504 0.06617963
v -0.8637564 -0.012485504 0.0967716
v -0.85501575 -0.008115232 0.033402503
v -0.8593861 -0.008115232 -0.03215176
v -0.85501575 -0.008115232 -0.03215176
v -0.8593861 -0.010300338 0.033402503
v -0.85501575 -0.010300338 0.0967716
v -0.8637564 -0.010300338 0.033402503
v -0.8637564 -0.008115232 -0.03215176
v -0.8593861 -0.010300338 0.0967716
v -0.8637564 -0.012485504 0.0967716
v -0.8593861 -0.012485504 0.10769731
v -0.85501575 -0.010300338 0.120808184
v -0.86812663 -0.012485504 0.098956764
v -0.87031186 -0.012485504 0.103327036
v -0.79601693 0.0028104782 -0.110816896
v -0.7938318 0.0028104782 -0.106446624
v -0.83316433 -0.0037449002 -0.06929916
v -0.83534956 -0.0037449002 -0.07366949
v -0.549096 0.020291626 -0.34025678
v -0.54472566 0.020291626 -0.34025678
v -0.56220675 0.037772775 -0.32277563
v -0.5665771 0.037772775 -0.32496077
v -0.57750285 0.04651332 -0.30747965
v -0.5665771 0.037772775 -0.32496077
v -0.56220675 0.037772775 -0.32277563
v -0.58187306 0.04651332 -0.31184992
v -0.5687622 0.037772775 -0.32933107
v -0.5862434 0.04651332 -0.31403506
v -0.57750285 0.04651332 -0.30747965
v -0.6015394 0.048698485 -0.28562823
v -0.6037245 0.048698485 -0.2899985
v -0.58187306 0.04651332 -0.31184992
v -0.5862434 0.04651332 -0.31403506
v -0.6080948 0.04651332 -0.2943688
v -0.6015394 0.048698485 -0.28562823
v -0.69331527 0.042143047 -0.20040768
v -0.6955005 0.042143047 -0.20477796
v -0.6037245 0.048698485 -0.2899985
v -0.6998707 0.044328213 -0.20696312
v -0.6080948 0.04651332 -0.2943688
v -0.72609246 0.026847064 -0.16981572
v -0.6955005 0.042143047 -0.20477796
v -0.69331527 0.042143047 -0.20040768
v -0.7304627 0.026847064 -0.17200083
v -0.6998707 0.044328213 -0.20696312
v -0.7326479 0.02903217 -0.17637116
v -0.76323986 0.013736188 -0.14140886
v -0.7588695 0.011551082 -0.1392237
v -0.76542497 0.013736188 -0.14577913
v -0.76323986 0.013736188 -0.14140886
v -0.7588695 0.011551082 -0.1392237
v -0.7938318 0.0028104782 -0.106446624
v -0.79601693 0.0028104782 -0.110816896
v -0.80038726 0.0028104782 -0.113002
v -0.76542497 0.013736188 -0.14577913
v -1.4493744 0.32402635 -0.3468122
v -1.4559298 0.32402635 -0.3468122
v -1.4559298 0.3546183 -0.35992303
v -1.4493744 0.3546183 -0.35992303
v -0.8768672 0.35680342 -0.7707297
v -0.8768672 0.35680342 -0.7641743
v -0.92275524 0.37209952 -0.7641743
v -0.92275524 0.37209952 -0.7707297
v -0.8069427 0.2803235 -0.7641743
v -0.81568325 0.28687894 -0.7641743
v -0.81568325 0.28687894 -0.7707297
v -0.8069427 0.2803235 -0.7707297
v -0.549096 0.020291626 -0.34025678
v -0.5534662 0.01810646 -0.34244192
v -0.5534662 0.020291626 -0.3730339
v -0.549096 0.020291626 -0.3730339
v -0.54472566 0.020291626 -0.34025678
v -0.54472566 0.022476792 -0.3730339
v -0.5534662 0.022476792 -0.405811
v -0.549096 0.022476792 -0.405811
v -0.54472566 0.022476792 -0.405811
v -0.54472566 0.024661899 -0.43858814
v -0.549096 0.024661899 -0.43858814
v -0.5534662 0.024661899 -0.43858814
v -0.5534662 0.024661899 -0.4626247
v -0.549096 0.024661899 -0.4626247
v -0.54472566 0.024661899 -0.4626247
v -0.5687622 0.037772775 -0.32933107
v -0.5534662 0.01810646 -0.34244192
v -0.549096 0.020291626 -0.34025678
v -0.5665771 0.037772775 -0.32496077
v -0.8397198 -0.0037449002 -0.0758546
v -0.80038726 0.0028104782 -0.113002
v -0.79601693 0.0028104782 -0.110816896
v -0.83534956 -0.0037449002 -0.07366949
v -0.8397198 -0.0037449002 -0.0758546
v -0.83534956 -0.0037449002 -0.07366949
v -0.8593861 -0.005930066 -0.051818073
v -0.8637564 -0.005930066 -0.05400318
v -0.8593861 -0.008115232 -0.03215176
v -0.8637564 -0.008115232 -0.03215176
v -0.549096 0.1972881 -0.57406694
v -0.54472566 0.1972881 -0.57406694
v -0.54472566 0.19073272 -0.5565858
v -0.549096 0.18854755 -0.5565858
v -0.5534662 0.18854755 -0.5565858
v -0.5534662 0.1972881 -0.57406694
v -0.54472566 0.17762184 -0.54566014
v -0.549096 0.18854755 -0.5565858
v -0.54472566 0.19073272 -0.5565858
v -0.549096 0.17543668 -0.54566014
v -0.5534662 0.17325157 -0.54566014
v -0.5534662 0.18854755 -0.5565858
v -0.54472566 0.15577042 -0.52162355
v -0.549096 0.17543668 -0.54566014
v -0.54472566 0.17762184 -0.54566014
v -0.549096 0.15358526 -0.52162355
v -0.5534662 0.15358526 -0.52162355
v -0.5534662 0.17325157 -0.54566014
v -0.54472566 0.09458643 -0.51069784
v -0.549096 0.15358526 -0.52162355
v -0.54472566 0.15577042 -0.52162355
v -0.549096 0.092401326 -0.51069784
v -0.5534662 0.15358526 -0.52162355
v -0.5534662 0.08803105 -0.51069784
v -0.54472566 0.09458643 -0.51069784
v -0.54472566 0.044328213 -0.4932167
v -0.549096 0.037772775 -0.4932167
v -0.549096 0.092401326 -0.51069784
v -0.5534662 0.02903217 -0.4932167
v -0.5534662 0.08803105 -0.51069784
v -0.54472566 0.024661899 -0.47573557
v -0.549096 0.024661899 -0.47573557
v -0.549096 0.037772775 -0.4932167
v -0.54472566 0.044328213 -0.4932167
v -0.549096 0.024661899 -0.47573557
v -0.5534662 0.024661899 -0.47573557
v -0.5534662 0.02903217 -0.4932167
v -0.549096 0.037772775 -0.4932167
v -0.54472566 0.024661899 -0.4626247
v -0.549096 0.024661899 -0.47573557
v -0.54472566 0.024661899 -0.47573557
v -0.549096 0.024661899 -0.4626247
v -0.5534662 0.024661899 -0.47573557
v -0.5534662 0.024661899 -0.4626247
v -1.4559298 0.35680342 -0.37958932
v -1.4559298 0.3546183 -0.35992303
v -1.4603002 0.3546183 -0.3621082
v -1.4603002 0.35898864 -0.37958932
v -1.4493744 0.35680342 -0.37740418
v -1.4493744 0.3546183 -0.35992303
v -1.4559298 0.3546183 -0.35992303
v -1.4559298 0.35680342 -0.37958932
v -1.4559298 0.3152858 -0.3315162
v -1.4559298 0.25628698 -0.33370134
v -1.4603002 0.25628698 -0.33370134
v -1.4603002 0.31310058 -0.3315162
v -1.4559298 0.25628698 -0.33370134
v -1.4559298 0.3152858 -0.3315162
v -1.4493744 0.3152858 -0.32933107
v -1.4493744 0.25847208 -0.3315162
v -1.4559298 0.1972881 -0.34025678
v -1.4603002 0.1972881 -0.34025678
v -1.4603002 0.25628698 -0.33370134
v -1.4559298 0.25628698 -0.33370134
v -1.4493744 0.1972881 -0.3380716
v -1.4559298 0.1972881 -0.34025678
v -1.4559298 0.25628698 -0.33370134
v -1.4493744 0.25847208 -0.3315162
v -0.8091278 0.30217493 -0.7707297
v -0.81349814 0.33058178 -0.7751
v -0.8091278 0.30217493 -0.7751
v -0.81349814 0.33058178 -0.7707297
v -0.8091278 0.30217493 -0.7641743
v -0.81349814 0.33058178 -0.7641743
v -0.81568325 0.28687894 -0.7707297
v -0.8091278 0.30217493 -0.7707297
v -0.8091278 0.30217493 -0.7751
v -0.81568325 0.28687894 -0.7751
v -0.81568325 0.28687894 -0.7641743
v -0.8091278 0.30217493 -0.7641743
v -0.8091278 0.30217493 -0.7707297
v -0.81568325 0.28687894 -0.7707297
v -0.54472566 -0.016855776 -0.34025678
v -0.54472566 0.020291626 -0.34025678
v -0.54472566 0.022476792 -0.3730339
v -0.54472566 -0.01467061 -0.3730339
v -0.54472566 0.022476792 -0.405811
v -0.54472566 -0.012485504 -0.405811
v -0.54472566 0.024661899 -0.43858814
v -0.54472566 -0.012485504 -0.43858814
v -0.54472566 0.024661899 -0.4626247
v -0.54472566 -0.012485504 -0.4626247
v -0.54472566 0.024661899 -0.47573557
v -0.54472566 -0.012485504 -0.4866613
v -0.54472566 0.044328213 -0.4932167
v -0.54472566 0.009365916 -0.5019573
v -0.54472566 0.09458643 -0.51069784
v -0.54472566 0.05743903 -0.5194384
v -0.54472566 0.15577042 -0.52162355
v -0.54472566 0.11862302 -0.5303641
v -0.54472566 0.17762184 -0.54566014
v -0.54472566 0.14047444 -0.54566014
v -0.54472566 0.19073272 -0.5565858
v -0.54472566 0.15358526 -0.5565858
v -0.54472566 0.1972881 -0.57406694
v -0.54472566 0.1601407 -0.57406694
v -0.54472566 0.1972881 -0.5981035
v -0.54472566 0.16232586 -0.5981035
v -0.85501575 -0.04307747 -0.049632907
v -0.85501575 -0.005930066 -0.049632907
v -0.83316433 -0.0037449002 -0.06929916
v -0.83316433 -0.038707197 -0.06929916
v -0.7938318 0.0028104782 -0.106446624
v -0.7938318 -0.03215176 -0.106446624
v -0.7588695 0.011551082 -0.1392237
v -0.7588695 -0.023411214 -0.1392237
v -0.72609246 0.026847064 -0.16981572
v -0.72609246 -0.010300338 -0.16981572
v -0.69331527 0.042143047 -0.20040768
v -0.69331527 0.0071807504 -0.20040768
v -0.6015394 0.048698485 -0.28562823
v -0.6015394 0.011551082 -0.28562823
v -0.57750285 0.04651332 -0.30747965
v -0.57750285 0.009365916 -0.30747965
v -0.56220675 0.037772775 -0.32277563
v -0.56220675 0.00062537193 -0.32277563
v -0.54472566 0.020291626 -0.34025678
v -0.54472566 -0.016855776 -0.34025678
v -0.719537 0.1710664 -0.7751
v -0.719537 0.2060287 -0.7751
v -0.77853584 0.21695441 -0.7751
v -0.77853584 0.179807 -0.7751
v -0.80257237 0.23880577 -0.7751
v -0.8113129 0.2082138 -0.7751
v -0.8069427 0.2803235 -0.7751
v -0.81786835 0.25410175 -0.7751
v -0.81568325 0.28687894 -0.7751
v -0.8287941 0.26939785 -0.7751
v -0.8091278 0.30217493 -0.7751
v -0.8287941 0.2781384 -0.7751
v -0.81349814 0.33058178 -0.7751
v -0.826609 0.2956195 -0.7751
v -0.86812663 0.33058178 -0.7751
v -0.8812375 0.2956195 -0.7751
v -0.8768672 0.35680342 -0.7751
v -0.8921633 0.32184124 -0.7751
v -0.92275524 0.37428463 -0.7751
v -0.9293107 0.33713722 -0.7751
v -0.9533472 0.41798747 -0.7751
v -0.96208775 0.38302517 -0.7751
v -0.9883095 0.42017257 -0.7751
v -0.9883095 0.38521028 -0.7751
v -1.0145311 0.45294976 -0.7751
v -1.0189015 0.41580236 -0.7751
v -1.2527115 0.45294976 -0.7751
v -1.2527115 0.41580236 -0.7751
v -1.2527115 0.41580236 -0.7751
v -1.2527115 0.45294976 -0.7751
v -1.4603002 0.45294976 -0.60465896
v -1.4603002 0.41580236 -0.60465896
v -1.4603002 -0.02559632 -0.029966652
v -1.4603002 0.011551082 0.011551082
v -1.4603002 -0.02559632 0.011551082
v -1.4603002 0.011551082 -0.029966652
v -1.4603002 -0.02559632 -0.10863173
v -1.4603002 0.011551082 -0.10207629
v -1.4603002 0.10551214 -0.14359403
v -1.4603002 0.13610417 -0.13703859
v -1.4603002 0.1601407 -0.20696312
v -1.4603002 0.1972881 -0.20040768
v -1.4603002 0.1601407 -0.36429334
v -1.4603002 0.1972881 -0.34025678
v -1.4603002 0.18417728 -0.3730339
v -1.4603002 0.24536121 -0.35992303
v -1.4603002 0.25628698 -0.33370134
v -1.4603002 0.27595317 -0.35555276
v -1.4603002 0.31310058 -0.3315162
v -1.4603002 0.2956195 -0.3686636
v -1.4603002 0.32184124 -0.3468122
v -1.4603002 0.319656 -0.38395962
v -1.4603002 0.3546183 -0.3621082
v -1.4603002 0.32184124 -0.40799618
v -1.4603002 0.35898864 -0.37958932
v -1.4603002 0.41580236 -0.37521905
v -1.4603002 0.3895806 -0.40362588
v -1.4603002 0.41580236 -0.42110702
v -1.4603002 0.45294976 -0.39707047
v -1.4603002 0.41580236 -0.60465896
v -1.4603002 0.45294976 -0.60465896
v -0.54472566 0.1972881 -0.5981035
v -0.6015394 0.1601407 -0.65710235
v -0.54472566 0.16232586 -0.5981035
v -0.6015394 0.1972881 -0.65710235
v -0.6474273 0.1972881 -0.7029903
v -0.6474273 0.1601407 -0.7029903
v -0.6802045 0.19947326 -0.7357674
v -0.6802045 0.16232586 -0.7357674
v -0.70205593 0.20384353 -0.75761884
v -0.70205593 0.16669613 -0.75761884
v -0.719537 0.2060287 -0.7751
v -0.719537 0.1710664 -0.7751
v -1.4603002 -0.02559632 0.011551082
v -1.4603002 0.011551082 0.011551082
v -1.414412 0.011551082 0.011551082
v -1.414412 -0.02559632 0.011551082
v -1.3860052 0.011551082 0.011551082
v -1.3860052 -0.02559632 0.011551082
v -1.3466728 0.011551082 0.011551082
v -1.3466728 -0.02559632 0.011551082
v -1.287674 0.011551082 0.011551082
v -1.287674 -0.02559632 0.011551082
v -1.2330453 0.0071807504 0.011551082
v -1.2330453 -0.029966652 0.011551082
v -1.1631207 0.0028104782 0.011551082
v -1.1631207 -0.03215176 0.011551082
v -1.0975666 0.004995644 0.011551082
v -1.0975666 -0.029966652 0.011551082
v -1.0385677 0.00062537193 0.011551082
v -1.0385677 -0.034336925 0.011551082
v -0.9904946 0.00062537193 0.011551082
v -0.9904946 -0.03652203 0.011551082
v -0.9664581 -0.0037449002 0.011551082
v -0.9664581 -0.038707197 0.011551082
v -0.9664581 -0.038707197 0.011551082
v -0.9664581 -0.0037449002 0.011551082
v -0.94242144 -0.010300338 0.033402503
v -0.94242144 -0.045262635 0.033402503
v -0.9009038 -0.012485504 0.07492018
v -0.9009038 -0.04744774 0.07492018
v -0.87031186 -0.012485504 0.103327036
v -0.87031186 -0.049632907 0.103327036
v -0.85501575 -0.010300338 0.120808184
v -0.85501575 -0.04744774 0.120808184
v -0.85501575 -0.04307747 -0.03215176
v -0.85501575 -0.005930066 -0.049632907
v -0.85501575 -0.04307747 -0.049632907
v -0.85501575 -0.008115232 -0.03215176
v -0.85501575 -0.045262635 0.033402503
v -0.85501575 -0.008115232 0.033402503
v -0.85501575 -0.04744774 0.0967716
v -0.85501575 -0.010300338 0.0967716
v -0.85501575 -0.04744774 0.120808184
v -0.85501575 -0.010300338 0.120808184
v -0.8637564 -0.049632907 0.0967716
v -0.8637564 -0.012485504 0.0967716
v -0.8943484 -0.012485504 0.06617963
v -0.8943484 -0.04744774 0.06617963
v -0.935866 -0.010300338 0.026847064
v -0.935866 -0.045262635 0.026847064
v -0.96208775 -0.001559794 0.00062537193
v -0.96208775 -0.038707197 0.00062537193
v -0.96208775 -0.038707197 0.00062537193
v -0.96208775 -0.001559794 0.00062537193
v -0.9904946 0.00062537193 0.00062537193
v -0.9904946 -0.034336925 0.00062537193
v -1.0385677 0.004995644 0.00062537193
v -1.0385677 -0.03215176 0.00062537193
v -1.0975666 0.0071807504 0.00062537193
v -1.0975666 -0.029966652 0.00062537193
v -1.1631207 0.004995644 0.00062537193
v -1.1631207 -0.03215176 0.00062537193
v -1.2330453 0.004995644 0.00062537193
v -1.2330453 -0.03215176 0.00062537193
v -1.287674 0.011551082 0.00062537193
v -1.287674 -0.02559632 0.00062537193
v -1.3466728 0.011551082 0.00062537193
v -1.3466728 -0.02559632 0.00062537193
v -1.3860052 0.011551082 0.00062537193
v -1.3860052 -0.02559632 0.00062537193
v -1.414412 0.011551082 0.00062537193
v -1.414412 -0.02559632 0.00062537193
v -1.4493744 0.011551082 0.00062537193
v -1.4493744 -0.02559632 0.00062537193
v -1.4493744 -0.02559632 0.00062537193
v -1.4493744 0.011551082 0.00062537193
v -1.4493744 0.011551082 -0.029966652
v -1.4493744 -0.02559632 -0.029966652
v -1.4493744 0.011551082 -0.10207629
v -1.4493744 -0.02559632 -0.10863173
v -1.4493744 0.13610417 -0.13703859
v -1.4493744 0.10551214 -0.14359403
v -1.4493744 0.1972881 -0.20040768
v -1.4493744 0.1601407 -0.20696312
v -1.4493744 0.1972881 -0.3380716
v -1.4493744 0.1601407 -0.3621082
v -1.4493744 0.18417728 -0.37084875
v -1.4493744 0.24754643 -0.3577379
v -1.4493744 0.25847208 -0.3315162
v -1.4493744 0.3152858 -0.32933107
v -1.4493744 0.2781384 -0.35555276
v -1.4493744 0.32402635 -0.3468122
v -1.4493744 0.29998982 -0.3686636
v -1.4493744 0.3546183 -0.35992303
v -1.4493744 0.32184124 -0.37084875
v -1.4493744 0.35680342 -0.37740418
v -1.4493744 0.319656 -0.40799618
v -1.4493744 0.41580236 -0.37521905
v -1.4493744 0.3895806 -0.40362588
v -1.4493744 0.45294976 -0.39707047
v -1.4493744 0.41580236 -0.42110702
v -1.4493744 0.45294976 -0.6002886
v -1.4493744 0.41580236 -0.6002886
v -1.4493744 0.41580236 -0.6002886
v -1.4493744 0.45294976 -0.6002886
v -1.2483413 0.45294976 -0.7641743
v -1.2483413 0.41580236 -0.7641743
v -1.2483413 0.41580236 -0.7641743
v -1.2483413 0.45294976 -0.7641743
v -1.0145311 0.45294976 -0.7641743
v -1.0189015 0.41580236 -0.7641743
v -0.9883095 0.41798747 -0.7641743
v -0.9883095 0.38302517 -0.7641743
v -0.9533472 0.41798747 -0.7641743
v -0.96208775 0.38302517 -0.7641743
v -0.92275524 0.37209952 -0.7641743
v -0.9293107 0.334952 -0.7641743
v -0.8768672 0.35680342 -0.7641743
v -0.8921633 0.319656 -0.7641743
v -0.86812663 0.33058178 -0.7641743
v -0.8812375 0.2956195 -0.7641743
v -0.81349814 0.33058178 -0.7641743
v -0.826609 0.2956195 -0.7641743
v -0.8091278 0.30217493 -0.7641743
v -0.8287941 0.2803235 -0.7641743
v -0.81568325 0.28687894 -0.7641743
v -0.8287941 0.27158296 -0.7641743
v -0.8069427 0.2803235 -0.7641743
v -0.81786835 0.25628698 -0.7641743
v -0.80257237 0.240991 -0.7641743
v -0.8113129 0.21039897 -0.7641743
v -0.77853584 0.21695441 -0.7641743
v -0.77853584 0.18199211 -0.7641743
v -0.72390735 0.2082138 -0.7641743
v -0.72390735 0.1710664 -0.7641743
v -0.72390735 0.1710664 -0.7641743
v -0.72390735 0.2082138 -0.7641743
v -0.7107965 0.20384353 -0.7510634
v -0.7107965 0.1688813 -0.7510634
v -0.6867598 0.19947326 -0.72921205
v -0.6867598 0.16232586 -0.72921205
v -0.65398276 0.1972881 -0.69424975
v -0.65398276 0.1601407 -0.69424975
v -0.6102799 0.1972881 -0.6505469
v -0.6102799 0.1601407 -0.6505469
v -0.5534662 0.1601407 -0.5937332
v -0.5534662 0.1972881 -0.5937332
v -0.5534662 -0.01467061 -0.3730339
v -0.5534662 0.01810646 -0.34244192
v -0.5534662 -0.016855776 -0.34244192
v -0.5534662 0.020291626 -0.3730339
v -0.5534662 -0.01467061 -0.405811
v -0.5534662 0.022476792 -0.405811
v -0.5534662 -0.012485504 -0.43858814
v -0.5534662 0.024661899 -0.43858814
v -0.5534662 -0.012485504 -0.4626247
v -0.5534662 0.024661899 -0.4626247
v -0.5534662 -0.012485504 -0.4866613
v -0.5534662 0.024661899 -0.47573557
v -0.5534662 -0.008115232 -0.5019573
v -0.5534662 0.02903217 -0.4932167
v -0.5534662 0.05088359 -0.5194384
v -0.5534662 0.08803105 -0.51069784
v -0.5534662 0.11643785 -0.5303641
v -0.5534662 0.15358526 -0.52162355
v -0.5534662 0.13828927 -0.54566014
v -0.5534662 0.17325157 -0.54566014
v -0.5534662 0.15140015 -0.5565858
v -0.5534662 0.18854755 -0.5565858
v -0.5534662 0.1601407 -0.57406694
v -0.5534662 0.1972881 -0.57406694
v -0.5534662 0.1601407 -0.5937332
v -0.5534662 0.1972881 -0.5937332
v -0.5534662 -0.016855776 -0.34244192
v -0.5534662 0.01810646 -0.34244192
v -0.5687622 0.037772775 -0.32933107
v -0.5687622 0.004995644 -0.32933107
v -0.5862434 0.04651332 -0.31403506
v -0.5862434 0.015921354 -0.31403506
v -0.6080948 0.04651332 -0.2943688
v -0.6080948 0.020291626 -0.2943688
v -0.6998707 0.044328213 -0.20696312
v -0.6998707 0.013736188 -0.20696312
v -0.7326479 0.02903217 -0.17637116
v -0.7326479 -0.008115232 -0.17637116
v -0.76542497 0.013736188 -0.14577913
v -0.76542497 -0.023411214 -0.14577913
v -0.80038726 0.0028104782 -0.113002
v -0.80038726 -0.034336925 -0.113002
v -0.8397198 -0.0037449002 -0.0758546
v -0.8397198 -0.038707197 -0.0758546
v -0.8637564 -0.005930066 -0.05400318
v -0.8637564 -0.04307747 -0.05400318
v -0.8637564 -0.04307747 -0.05400318
v -0.8637564 -0.005930066 -0.05400318
v -0.8637564 -0.008115232 -0.03215176
v -0.8637564 -0.045262635 -0.03215176
v -0.8637564 -0.010300338 0.033402503
v -0.8637564 -0.04744774 0.033402503
v -0.8637564 -0.012485504 0.0967716
v -0.8637564 -0.049632907 0.0967716
v -0.9904946 0.00062537193 0.00062537193
v -0.9904946 0.00062537193 0.0071807504
v -1.0385677 0.0028104782 0.0071807504
v -1.0385677 0.004995644 0.00062537193
v -0.9904946 0.00062537193 0.011551082
v -1.0975666 0.0071807504 0.00062537193
v -1.0385677 0.00062537193 0.011551082
v -1.0975666 0.0071807504 0.0071807504
v -1.0975666 0.004995644 0.011551082
v -0.96427286 -0.0037449002 0.0071807504
v -0.96208775 -0.001559794 0.00062537193
v -0.935866 -0.010300338 0.026847064
v -0.94023633 -0.010300338 0.031217337
v -0.9904946 0.00062537193 0.00062537193
v -0.94242144 -0.010300338 0.033402503
v -0.9904946 0.00062537193 0.0071807504
v -0.9664581 -0.0037449002 0.011551082
v -0.9904946 0.00062537193 0.011551082
vt 0.20784308 0.5333332
vt 0.21176465 0.54901946
vt 0.21568622 0.54509795
vt 0.20784308 0.5333332
vt 0.20784308 0.52156854
vt 0.20784308 0.52156854
vt 0.2549019 0.99607825
vt 0.23529406 0.9999999
vt 0.2549019 0.9999999
vt 0.23529406 0.99607825
vt 0.23529406 0.99215674
vt 0.25098032 0.99215674
vt 0.070588194 0.99607825
vt -2.9802322E-08 0.89019597
vt 0.070588194 0.9999999
vt -2.9802322E-08 0.89019597
vt -2.9802322E-08 0.75686264
vt -2.9802322E-08 0.75686264
vt 0.003921538 0.75686264
vt 0.003921538 0.88627434
vt 0.070588194 0.99215674
vt 0.15294112 0.99215674
vt 0.15294112 0.99607825
vt 0.25882345 0.9882351
vt 0.2549019 0.99607825
vt 0.2549019 0.9999999
vt 0.25882345 0.9882351
vt 0.2666666 0.97254884
vt 0.2666666 0.97254884
vt 0.2666666 0.96862733
vt 0.25882345 0.9843136
vt 0.25098032 0.99215674
vt 0.2784313 0.94901943
vt 0.2666666 0.97254884
vt 0.2784313 0.95294106
vt 0.2666666 0.97254884
vt 0.27450973 0.94901943
vt 0.2666666 0.96862733
vt 0.29411757 0.92549
vt 0.2784313 0.94901943
vt 0.2784313 0.95294106
vt 0.29411757 0.9215685
vt 0.3137254 0.88627434
vt 0.3137254 0.88627434
vt 0.290196 0.9176469
vt 0.27450973 0.94901943
vt 0.30980384 0.8823528
vt 0.3137254 0.87058806
vt 0.3137254 0.87058806
vt 0.30980384 0.8823528
vt 0.3137254 0.88627434
vt 0.30980384 0.87058806
vt 0.070588194 0.99607825
vt 0.070588194 0.9999999
vt 0.15294112 0.9999999
vt 0.15294112 0.99607825
vt 0.23529406 0.99607825
vt 0.22745092 0.9999999
vt 0.23529406 0.9999999
vt 0.22745092 0.99607825
vt 0.23529406 0.99215674
vt 0.22745092 0.99215674
vt 0.16078426 0.99607825
vt 0.15294112 0.9999999
vt 0.16078426 0.9999999
vt 0.15294112 0.99607825
vt 0.15294112 0.99215674
vt 0.16078426 0.99215674
vt 0.16078426 0.9999999
vt 0.17254896 0.9999999
vt 0.17254896 0.99607825
vt 0.16078426 0.99607825
vt 0.16078426 0.99215674
vt 0.17254896 0.99215674
vt 0.17254896 0.9999999
vt 0.18431367 0.9999999
vt 0.18431367 0.99607825
vt 0.17254896 0.99607825
vt 0.17254896 0.99215674
vt 0.18431367 0.99215674
vt 0.18431367 0.9999999
vt 0.19999994 0.9999999
vt 0.19999994 0.99607825
vt 0.18431367 0.99607825
vt 0.20392151 0.99607825
vt 0.19999994 0.9999999
vt 0.20392151 0.9999999
vt 0.19999994 0.99607825
vt 0.20392151 0.99215674
vt 0.19999994 0.99215674
vt 0.21960779 0.99607825
vt 0.20392151 0.9999999
vt 0.21960779 0.9999999
vt 0.20392151 0.99607825
vt 0.21960779 0.99215674
vt 0.20392151 0.99215674
vt 0.22352935 0.9999999
vt 0.22352935 0.99607825
vt 0.21960779 0.99607825
vt 0.21960779 0.9999999
vt 0.22745092 0.9999999
vt 0.22352935 0.99607825
vt 0.22352935 0.9999999
vt 0.22745092 0.99607825
vt 0.22745092 0.99215674
vt 0.22352935 0.99215674
vt -2.9802322E-08 0.75686264
vt -2.9802322E-08 0.74117637
vt -2.9802322E-08 0.75686264
vt -2.9802322E-08 0.74117637
vt 0.003921538 0.74117637
vt 0.003921538 0.75686264
vt -2.9802322E-08 0.5647057
vt -2.9802322E-08 0.5176469
vt -2.9802322E-08 0.5647057
vt -2.9802322E-08 0.5176469
vt 0.003921538 0.5647057
vt 0.003921538 0.5176469
vt -2.9802322E-08 0.49411756
vt -2.9802322E-08 0.49411756
vt 0.003921538 0.49803913
vt 0.015686242 0.49411756
vt 0.015686242 0.49411756
vt 0.015686242 0.49803913
vt 0.023529379 0.49411756
vt 0.023529379 0.49803913
vt 0.023529379 0.49411756
vt 0.03921565 0.49803913
vt 0.03921565 0.49411756
vt 0.03921565 0.49411756
vt 0.058823492 0.49411756
vt 0.058823492 0.49803913
vt 0.058823492 0.49411756
vt -2.9802322E-08 0.58823514
vt -2.9802322E-08 0.5647057
vt -2.9802322E-08 0.58823514
vt -2.9802322E-08 0.5647057
vt 0.003921538 0.5647057
vt 0.003921538 0.58823514
vt -2.9802322E-08 0.6274508
vt -2.9802322E-08 0.58823514
vt -2.9802322E-08 0.6274508
vt -2.9802322E-08 0.58823514
vt 0.003921538 0.6274508
vt 0.003921538 0.58823514
vt -2.9802322E-08 0.71764696
vt -2.9802322E-08 0.6274508
vt -2.9802322E-08 0.71764696
vt -2.9802322E-08 0.6274508
vt 0.003921538 0.6274508
vt 0.003921538 0.71764696
vt -2.9802322E-08 0.7254901
vt -2.9802322E-08 0.7137253
vt -2.9802322E-08 0.7254901
vt -2.9802322E-08 0.7137253
vt 0.003921538 0.72156847
vt 0.003921538 0.7137253
vt -2.9802322E-08 0.73333323
vt -2.9802322E-08 0.7254901
vt -2.9802322E-08 0.7254901
vt -2.9802322E-08 0.73333323
vt -2.9802322E-08 0.74117637
vt -2.9802322E-08 0.7450979
vt -2.9802322E-08 0.74117637
vt -2.9802322E-08 0.7450979
vt 0.003921538 0.74117637
vt 0.003921538 0.7450979
vt 0.058823492 0.49411756
vt 0.07843133 0.49411756
vt 0.058823492 0.49411756
vt 0.07843133 0.49411756
vt 0.058823492 0.49803913
vt 0.07843133 0.49803913
vt 0.10196074 0.49411756
vt 0.10196074 0.49411756
vt 0.07843133 0.49411756
vt 0.07843133 0.49411756
vt 0.07843133 0.49803913
vt 0.10196074 0.49803913
vt 0.10196074 0.49411756
vt 0.12549014 0.49411756
vt 0.10196074 0.49411756
vt 0.12549014 0.49411756
vt 0.10196074 0.49803913
vt 0.12549014 0.49803913
vt 0.17647053 0.47843128
vt 0.1921568 0.45490187
vt 0.1921568 0.4509803
vt 0.17647053 0.48235285
vt 0.1921568 0.45490187
vt 0.1803921 0.48235285
vt 0.1921568 0.45882344
vt 0.19999994 0.43529403
vt 0.1921568 0.4509803
vt 0.20392151 0.43529403
vt 0.1921568 0.45882344
vt 0.20392151 0.4392156
vt 0.20784308 0.47843128
vt 0.20784308 0.52156854
vt 0.20784308 0.52156854
vt 0.20784308 0.47843128
vt 0.20784308 0.4392156
vt 0.20392151 0.47843128
vt 0.20392151 0.52156854
vt 0.20784308 0.4392156
vt 0.20392151 0.4392156
vt 0.20784308 0.43137246
vt 0.20784308 0.42352933
vt 0.20392151 0.43529403
vt 0.19999994 0.43529403
vt 0.22745092 0.57254887
vt 0.22745092 0.56862736
vt 0.21568622 0.54509795
vt 0.21176465 0.54901946
vt 0.3137254 0.72156847
vt 0.3137254 0.71764696
vt 0.30588228 0.7098038
vt 0.30588228 0.7098038
vt 0.3019607 0.69803905
vt 0.30588228 0.7098038
vt 0.30588228 0.7098038
vt 0.3019607 0.7019607
vt 0.30588228 0.7137253
vt 0.29803914 0.7019607
vt 0.3019607 0.69803905
vt 0.29411757 0.6862744
vt 0.29411757 0.6862744
vt 0.3019607 0.7019607
vt 0.29803914 0.7019607
vt 0.290196 0.6901959
vt 0.29411757 0.6862744
vt 0.26274502 0.63137245
vt 0.26274502 0.63137245
vt 0.29411757 0.6862744
vt 0.25882345 0.63529396
vt 0.290196 0.6901959
vt 0.25098032 0.60784304
vt 0.26274502 0.63137245
vt 0.26274502 0.63137245
vt 0.25098032 0.61176455
vt 0.25882345 0.63529396
vt 0.25098032 0.6156862
vt 0.23921563 0.59215677
vt 0.23921563 0.58823514
vt 0.23921563 0.59215677
vt 0.23921563 0.59215677
vt 0.23921563 0.58823514
vt 0.22745092 0.56862736
vt 0.22745092 0.57254887
vt 0.22745092 0.57254887
vt 0.23921563 0.59215677
vt 0.003921538 0.72156847
vt -2.9802322E-08 0.7254901
vt -2.9802322E-08 0.73333323
vt 0.003921538 0.73333323
vt 0.19999994 0.99607825
vt 0.19999994 0.99215674
vt 0.18431367 0.99215674
vt 0.18431367 0.99607825
vt 0.22352935 0.99215674
vt 0.21960779 0.99215674
vt 0.21960779 0.99607825
vt 0.22352935 0.99607825
vt 0.3137254 0.72156847
vt 0.30980384 0.72156847
vt 0.30980384 0.74117637
vt 0.3137254 0.74117637
vt 0.3137254 0.71764696
vt 0.3137254 0.74117637
vt 0.30980384 0.76078415
vt 0.3137254 0.76078415
vt 0.3137254 0.76078415
vt 0.3137254 0.78431356
vt 0.3137254 0.78431356
vt 0.30980384 0.78431356
vt 0.30980384 0.7960783
vt 0.3137254 0.7960783
vt 0.3137254 0.7960783
vt 0.30588228 0.7137253
vt 0.30980384 0.72156847
vt 0.3137254 0.72156847
vt 0.30588228 0.7098038
vt 0.21176465 0.54901946
vt 0.22745092 0.57254887
vt 0.22745092 0.57254887
vt 0.21176465 0.54901946
vt 0.21176465 0.54901946
vt 0.21176465 0.54901946
vt 0.20784308 0.5333332
vt 0.20392151 0.5333332
vt 0.20784308 0.52156854
vt 0.20392151 0.52156854
vt 0.3137254 0.87058806
vt 0.3137254 0.87058806
vt 0.3137254 0.8588234
vt 0.3137254 0.8588234
vt 0.30980384 0.8588234
vt 0.30980384 0.87058806
vt 0.3137254 0.8509803
vt 0.3137254 0.8588234
vt 0.3137254 0.8588234
vt 0.3137254 0.8509803
vt 0.30980384 0.8509803
vt 0.30980384 0.8588234
vt 0.3137254 0.835294
vt 0.3137254 0.8509803
vt 0.3137254 0.8509803
vt 0.3137254 0.835294
vt 0.30980384 0.835294
vt 0.30980384 0.8509803
vt 0.3137254 0.8274509
vt 0.3137254 0.835294
vt 0.3137254 0.835294
vt 0.3137254 0.8274509
vt 0.30980384 0.835294
vt 0.30980384 0.8274509
vt 0.3137254 0.8274509
vt 0.3137254 0.81960773
vt 0.3137254 0.81960773
vt 0.3137254 0.8274509
vt 0.30980384 0.81960773
vt 0.30980384 0.8274509
vt 0.3137254 0.80784297
vt 0.3137254 0.80784297
vt 0.3137254 0.81960773
vt 0.3137254 0.81960773
vt 0.3137254 0.80784297
vt 0.30980384 0.80784297
vt 0.30980384 0.81960773
vt 0.3137254 0.81960773
vt 0.3137254 0.7960783
vt 0.3137254 0.80784297
vt 0.3137254 0.80784297
vt 0.3137254 0.7960783
vt 0.30980384 0.80784297
vt 0.30980384 0.7960783
vt -2.9802322E-08 0.7450979
vt -2.9802322E-08 0.73333323
vt -2.9802322E-08 0.73333323
vt -2.9802322E-08 0.7450979
vt 0.003921538 0.7450979
vt 0.003921538 0.73333323
vt -2.9802322E-08 0.73333323
vt -2.9802322E-08 0.7450979
vt -2.9802322E-08 0.7137253
vt -2.9802322E-08 0.7137253
vt -2.9802322E-08 0.7137253
vt -2.9802322E-08 0.7137253
vt -2.9802322E-08 0.7137253
vt -2.9802322E-08 0.7137253
vt 0.003921538 0.7137253
vt 0.003921538 0.7137253
vt -2.9802322E-08 0.71764696
vt -2.9802322E-08 0.71764696
vt -2.9802322E-08 0.7137253
vt -2.9802322E-08 0.7137253
vt 0.003921538 0.71764696
vt -2.9802322E-08 0.71764696
vt -2.9802322E-08 0.7137253
vt 0.003921538 0.7137253
vt 0.22352935 0.99607825
vt 0.21960779 0.9999999
vt 0.22352935 0.9999999
vt 0.21960779 0.99607825
vt 0.22352935 0.99215674
vt 0.21960779 0.99215674
vt 0.21960779 0.99607825
vt 0.22352935 0.99607825
vt 0.22352935 0.9999999
vt 0.21960779 0.9999999
vt 0.21960779 0.99215674
vt 0.22352935 0.99215674
vt 0.22352935 0.99607825
vt 0.21960779 0.99607825
vt 0.3137254 0.71764696
vt 0.3137254 0.71764696
vt 0.3137254 0.74117637
vt 0.3137254 0.74117637
vt 0.3137254 0.76078415
vt 0.3137254 0.76078415
vt 0.3137254 0.78431356
vt 0.3137254 0.78431356
vt 0.3137254 0.7960783
vt 0.3137254 0.7960783
vt 0.3137254 0.80784297
vt 0.3137254 0.8156861
vt 0.3137254 0.81960773
vt 0.3137254 0.82352924
vt 0.3137254 0.8274509
vt 0.3137254 0.835294
vt 0.3137254 0.835294
vt 0.3137254 0.84313715
vt 0.3137254 0.8509803
vt 0.3137254 0.8509803
vt 0.3137254 0.8588234
vt 0.3137254 0.8588234
vt 0.3137254 0.87058806
vt 0.3137254 0.87058806
vt 0.3137254 0.88627434
vt 0.3137254 0.88627434
vt 0.20784308 0.5333332
vt 0.20784308 0.5333332
vt 0.21568622 0.54509795
vt 0.21568622 0.54509795
vt 0.22745092 0.56862736
vt 0.22745092 0.56862736
vt 0.23921563 0.58823514
vt 0.23921563 0.58823514
vt 0.25098032 0.60784304
vt 0.25098032 0.60784304
vt 0.26274502 0.63137245
vt 0.26274502 0.63137245
vt 0.29411757 0.6862744
vt 0.29411757 0.6862744
vt 0.3019607 0.69803905
vt 0.3019607 0.69803905
vt 0.30588228 0.7098038
vt 0.30588228 0.7098038
vt 0.3137254 0.71764696
vt 0.3137254 0.71764696
vt 0.2549019 0.9999999
vt 0.2549019 0.9999999
vt 0.23529406 0.9999999
vt 0.23529406 0.9999999
vt 0.22745092 0.9999999
vt 0.22352935 0.9999999
vt 0.22352935 0.9999999
vt 0.21960779 0.9999999
vt 0.21960779 0.9999999
vt 0.21568622 0.9999999
vt 0.22352935 0.9999999
vt 0.21568622 0.9999999
vt 0.21960779 0.9999999
vt 0.21568622 0.9999999
vt 0.20392151 0.9999999
vt 0.19999994 0.9999999
vt 0.19999994 0.9999999
vt 0.19607837 0.9999999
vt 0.18431367 0.9999999
vt 0.1803921 0.9999999
vt 0.17254896 0.9999999
vt 0.17254896 0.9999999
vt 0.16078426 0.9999999
vt 0.16078426 0.9999999
vt 0.15294112 0.9999999
vt 0.15294112 0.9999999
vt 0.070588194 0.9999999
vt 0.070588194 0.9999999
vt 0.070588194 0.9999999
vt 0.070588194 0.9999999
vt -2.9802322E-08 0.89019597
vt -2.9802322E-08 0.89019597
vt -2.9802322E-08 0.5176469
vt -2.9802322E-08 0.49411756
vt -2.9802322E-08 0.49411756
vt -2.9802322E-08 0.5176469
vt -2.9802322E-08 0.56862736
vt -2.9802322E-08 0.5647057
vt -2.9802322E-08 0.59215677
vt -2.9802322E-08 0.58823514
vt -2.9802322E-08 0.63137245
vt -2.9802322E-08 0.6274508
vt -2.9802322E-08 0.73725474
vt -2.9802322E-08 0.71764696
vt -2.9802322E-08 0.74117637
vt -2.9802322E-08 0.73333323
vt -2.9802322E-08 0.7137253
vt -2.9802322E-08 0.7294116
vt -2.9802322E-08 0.7137253
vt -2.9802322E-08 0.73725474
vt -2.9802322E-08 0.7254901
vt -2.9802322E-08 0.7490195
vt -2.9802322E-08 0.73333323
vt -2.9802322E-08 0.7647058
vt -2.9802322E-08 0.7450979
vt -2.9802322E-08 0.74117637
vt -2.9802322E-08 0.76078415
vt -2.9802322E-08 0.7725489
vt -2.9802322E-08 0.75686264
vt -2.9802322E-08 0.89019597
vt -2.9802322E-08 0.89019597
vt 0.3137254 0.88627434
vt 0.29411757 0.92549
vt 0.3137254 0.88627434
vt 0.29411757 0.92549
vt 0.2784313 0.95294106
vt 0.2784313 0.95294106
vt 0.2666666 0.97254884
vt 0.2666666 0.97254884
vt 0.25882345 0.9882351
vt 0.25882345 0.9882351
vt 0.2549019 0.9999999
vt 0.2549019 0.9999999
vt -2.9802322E-08 0.49411756
vt -2.9802322E-08 0.49411756
vt 0.015686242 0.49411756
vt 0.015686242 0.49411756
vt 0.023529379 0.49411756
vt 0.023529379 0.49411756
vt 0.03921565 0.49411756
vt 0.03921565 0.49411756
vt 0.058823492 0.49411756
vt 0.058823492 0.49411756
vt 0.07843133 0.49411756
vt 0.07843133 0.49411756
vt 0.10196074 0.49411756
vt 0.10196074 0.49411756
vt 0.12549014 0.49411756
vt 0.12549014 0.49411756
vt 0.14509799 0.49411756
vt 0.14509799 0.49411756
vt 0.16078426 0.49411756
vt 0.16078426 0.49411756
vt 0.1686274 0.49411756
vt 0.1686274 0.49411756
vt 0.1686274 0.49411756
vt 0.1686274 0.49411756
vt 0.17647053 0.47843128
vt 0.17647053 0.47843128
vt 0.1921568 0.4509803
vt 0.1921568 0.4509803
vt 0.19999994 0.43529403
vt 0.19999994 0.43529403
vt 0.20784308 0.42352933
vt 0.20784308 0.42352933
vt 0.20784308 0.52156854
vt 0.20784308 0.5333332
vt 0.20784308 0.5333332
vt 0.20784308 0.52156854
vt 0.20784308 0.47843128
vt 0.20784308 0.47843128
vt 0.20784308 0.4392156
vt 0.20784308 0.4392156
vt 0.20784308 0.42352933
vt 0.20784308 0.42352933
vt 0.20392151 0.4392156
vt 0.20392151 0.4392156
vt 0.1921568 0.45882344
vt 0.1921568 0.45882344
vt 0.1803921 0.48235285
vt 0.1803921 0.48235285
vt 0.1686274 0.49803913
vt 0.1686274 0.49803913
vt 0.1686274 0.49803913
vt 0.1686274 0.49803913
vt 0.16078426 0.49803913
vt 0.16078426 0.49803913
vt 0.14509799 0.49803913
vt 0.14509799 0.49803913
vt 0.12549014 0.49803913
vt 0.12549014 0.49803913
vt 0.10196074 0.49803913
vt 0.10196074 0.49803913
vt 0.07843133 0.49803913
vt 0.07843133 0.49803913
vt 0.058823492 0.49803913
vt 0.058823492 0.49803913
vt 0.03921565 0.49803913
vt 0.03921565 0.49803913
vt 0.023529379 0.49803913
vt 0.023529379 0.49803913
vt 0.015686242 0.49803913
vt 0.015686242 0.49803913
vt 0.003921538 0.49803913
vt 0.003921538 0.49803913
vt 0.003921538 0.49803913
vt 0.003921538 0.49803913
vt 0.003921538 0.5176469
vt 0.003921538 0.5176469
vt 0.003921538 0.5647057
vt 0.003921538 0.56862736
vt 0.003921538 0.58823514
vt 0.003921538 0.59215677
vt 0.003921538 0.6274508
vt 0.003921538 0.63137245
vt 0.003921538 0.71764696
vt 0.003921538 0.73333323
vt 0.003921538 0.74117637
vt 0.003921538 0.7294116
vt 0.003921538 0.7137253
vt 0.003921538 0.7137253
vt 0.003921538 0.7294116
vt 0.003921538 0.72156847
vt 0.003921538 0.73725474
vt 0.003921538 0.73333323
vt 0.003921538 0.74117637
vt 0.003921538 0.7450979
vt 0.003921538 0.7647058
vt 0.003921538 0.74117637
vt 0.003921538 0.76078415
vt 0.003921538 0.75686264
vt 0.003921538 0.7725489
vt 0.003921538 0.88627434
vt 0.003921538 0.88627434
vt 0.003921538 0.88627434
vt 0.003921538 0.88627434
vt 0.070588194 0.99215674
vt 0.070588194 0.99215674
vt 0.070588194 0.99215674
vt 0.070588194 0.99215674
vt 0.15294112 0.99215674
vt 0.15294112 0.99215674
vt 0.16078426 0.99215674
vt 0.16078426 0.99215674
vt 0.17254896 0.99215674
vt 0.17254896 0.99215674
vt 0.18431367 0.99215674
vt 0.1803921 0.99215674
vt 0.19999994 0.99215674
vt 0.19607837 0.99215674
vt 0.20392151 0.99215674
vt 0.19999994 0.99215674
vt 0.21960779 0.99215674
vt 0.21568622 0.99215674
vt 0.22352935 0.99215674
vt 0.21568622 0.99215674
vt 0.21960779 0.99215674
vt 0.21568622 0.99215674
vt 0.22352935 0.99215674
vt 0.21960779 0.99215674
vt 0.22745092 0.99215674
vt 0.22352935 0.99215674
vt 0.23529406 0.99215674
vt 0.23529406 0.99215674
vt 0.25098032 0.99215674
vt 0.25098032 0.99215674
vt 0.25098032 0.99215674
vt 0.25098032 0.99215674
vt 0.25882345 0.9843136
vt 0.25882345 0.9843136
vt 0.2666666 0.96862733
vt 0.2666666 0.96862733
vt 0.27450973 0.94901943
vt 0.27450973 0.94901943
vt 0.290196 0.9176469
vt 0.290196 0.9176469
vt 0.30980384 0.8823528
vt 0.30980384 0.8823528
vt 0.30980384 0.74117637
vt 0.30980384 0.72156847
vt 0.30980384 0.72156847
vt 0.30980384 0.74117637
vt 0.30980384 0.76078415
vt 0.30980384 0.76078415
vt 0.30980384 0.78431356
vt 0.30980384 0.78431356
vt 0.30980384 0.7960783
vt 0.30980384 0.7960783
vt 0.30980384 0.8156861
vt 0.30980384 0.80784297
vt 0.30980384 0.82352924
vt 0.30980384 0.81960773
vt 0.30980384 0.835294
vt 0.30980384 0.8274509
vt 0.30980384 0.84313715
vt 0.30980384 0.835294
vt 0.30980384 0.8509803
vt 0.30980384 0.8509803
vt 0.30980384 0.8588234
vt 0.30980384 0.8588234
vt 0.30980384 0.87058806
vt 0.30980384 0.87058806
vt 0.30980384 0.8823528
vt 0.30980384 0.8823528
vt 0.30980384 0.72156847
vt 0.30980384 0.72156847
vt 0.30588228 0.7137253
vt 0.30588228 0.7137253
vt 0.29803914 0.7019607
vt 0.29803914 0.7019607
vt 0.290196 0.6901959
vt 0.290196 0.6901959
vt 0.25882345 0.63529396
vt 0.25882345 0.63529396
vt 0.25098032 0.6156862
vt 0.25098032 0.6156862
vt 0.23921563 0.59215677
vt 0.23921563 0.59215677
vt 0.22745092 0.57254887
vt 0.22745092 0.57254887
vt 0.21176465 0.54901946
vt 0.21176465 0.54901946
vt 0.20392151 0.5333332
vt 0.20392151 0.5333332
vt 0.20392151 0.5333332
vt 0.20392151 0.5333332
vt 0.20392151 0.52156854
vt 0.20392151 0.52156854
vt 0.20392151 0.47843128
vt 0.20392151 0.47843128
vt 0.20392151 0.4392156
vt 0.20392151 0.4392156
vt 0.16078426 0.49803913
vt 0.16078426 0.49411756
vt 0.14509799 0.49411756
vt 0.14509799 0.49803913
vt 0.16078426 0.49411756
vt 0.12549014 0.49803913
vt 0.14509799 0.49411756
vt 0.12549014 0.49411756
vt 0.12549014 0.49411756
vt 0.1686274 0.49411756
vt 0.1686274 0.49803913
vt 0.1803921 0.48235285
vt 0.17647053 0.48235285
vt 0.16078426 0.49803913
vt 0.17647053 0.47843128
vt 0.16078426 0.49411756
vt 0.1686274 0.49411756
vt 0.16078426 0.49411756
vn -0.04756513 0.99886817 -0
vn -0.04756513 0.99886817 -0
vn -0.04756513 0.99886817 -0
vn -0.04756513 0.99886817 -0
vn -0.04756513 0.99886817 -0
vn -0.04756513 0.99886817 -0
vn 0.17458117 0.968132 -0.17956008
vn 0.17458117 0.968132 -0.17956008
vn 0.17458117 0.968132 -0.17956008
vn 0.17458117 0.968132 -0.17956008
vn 0.17458117 0.968132 -0.17956008
vn 0.17458117 0.968132 -0.17956008
vn -0.015871048 0.999874 -0.00034526698
vn -0.015871048 0.999874 -0.00034526698
vn -0.015871048 0.999874 -0.00034526698
vn -0.015871048 0.999874 -0.00034526698
vn -0.015871048 0.999874 -0.00034526698
vn -0.015871048 0.999874 -0.00034526698
vn -0.015871048 0.999874 -0.00034526698
vn -0.015871048 0.999874 -0.00034526698
vn -0.015871048 0.999874 -0.00034526698
vn 0.015870988 0.999874 -0.00034526698
vn 0.015870988 0.999874 -0.00034526698
vn 0.172001 0.9850967 -0
vn 0.172001 0.9850967 -0
vn 0.172001 0.9850967 -0
vn 0.172001 0.9850967 -0
vn 0.17458117 0.968132 0.17956008
vn 0.17458117 0.968132 0.17956008
vn 0.17458117 0.968132 0.17956008
vn 0.17458117 0.968132 -0.17956008
vn 0.17458117 0.968132 -0.17956008
vn 0.04756513 0.99886817 -0
vn 0.04756513 0.99886817 -0
vn 0.04756513 0.99886817 -0
vn 0.04756513 0.99886817 -0
vn 0.079116285 0.9968654 -0
vn 0.079116285 0.9968654 -0
vn -0.015871048 0.999874 -0.00034526698
vn 0.015870988 0.999874 -0.00034526698
vn 0.015870988 0.999874 -0.00034526698
vn -0.015871048 0.999874 -0.00034526698
vn -0.015871048 0.999874 -0.00034526698
vn -0.015871048 0.999874 -0.00034526698
vn 0.015870988 0.999874 -0.00034526698
vn 0.015870988 0.999874 -0.00034526698
vn -0.015871048 0.999874 -0.00034526698
vn -0.04756513 0.99886817 -0
vn -0.04756513 0.99886817 -0
vn -0.079116344 0.9968654 -0
vn -0.079116344 0.9968654 -0
vn -0.079116344 0.9968654 -0
vn -0.015871048 0.999874 -0.00034526698
vn -0.015871048 0.999874 -0.00034526698
vn -0.015871048 0.999874 -0.00034526698
vn -0.015871048 0.999874 -0.00034526698
vn 0.68245363 0.7141957 -0.15550417
vn 0.68245363 0.7141957 -0.15550417
vn 0.68245363 0.7141957 -0.15550417
vn 0.68245363 0.7141957 -0.15550417
vn 0.68245363 0.7141957 -0.15550417
vn 0.68245363 0.7141957 -0.15550417
vn 0.7669368 0.64172256 -0
vn 0.7669368 0.64172256 -0
vn 0.7669368 0.64172256 -0
vn 0.7669368 0.64172256 -0
vn 0.7669368 0.64172256 -0
vn 0.7669368 0.64172256 -0
vn 0.015870988 0.999874 -0.00034526698
vn 0.015870988 0.999874 -0.00034526698
vn 0.015870988 0.999874 -0.00034526698
vn 0.015870988 0.999874 -0.00034526698
vn 0.015870988 0.999874 -0.00034526698
vn 0.015870988 0.999874 -0.00034526698
vn 0.8094218 0.5554856 0.19045253
vn 0.8094218 0.5554856 0.19045253
vn 0.8094218 0.5554856 0.19045253
vn 0.8094218 0.5554856 0.19045253
vn 0.8344646 0.55106163 -0
vn 0.8344646 0.55106163 -0
vn 0.33329135 0.9363899 0.10995791
vn 0.33329135 0.9363899 0.10995791
vn 0.33329135 0.9363899 0.10995791
vn 0.33329135 0.9363899 0.10995791
vn 0.9363899 0.3332913 0.10995822
vn 0.9363899 0.3332913 0.10995822
vn 0.9363899 0.3332913 0.10995822
vn 0.9363899 0.3332913 0.10995822
vn 0.9363899 0.3332913 0.10995822
vn 0.9363899 0.3332913 0.10995822
vn -0.015871048 0.999874 -0.00034526698
vn -0.015871048 0.999874 -0.00034526698
vn -0.015871048 0.999874 -0.00034526698
vn -0.015871048 0.999874 -0.00034526698
vn -0.015871048 0.999874 -0.00034526698
vn -0.015871048 0.999874 -0.00034526698
vn 0.64172256 0.7669368 -0
vn 0.64172256 0.7669368 -0
vn 0.64172256 0.7669368 -0
vn 0.64172256 0.7669368 -0
vn 0.9938838 0.110431515 -0
vn 0.9938838 0.110431515 -0
vn 0.9938838 0.110431515 -0
vn 0.9938838 0.110431515 -0
vn 0.9938838 0.110431515 -0
vn 0.9938838 0.110431515 -0
vn 0.015870988 0.5237435 0.85172814
vn 0.015870988 0.5237435 0.85172814
vn 0.015870988 0.5237435 0.85172814
vn 0.015870988 0.5237435 0.85172814
vn -0.015871048 0.5237435 0.85172814
vn -0.015871048 0.5237435 0.85172814
vn 0.015870988 0.999874 -0.00034526698
vn -0.015871048 0.999874 -0.00034526698
vn 0.015870988 0.999874 -0.00034526698
vn -0.015871048 0.999874 -0.00034526698
vn -0.015871048 0.999874 -0.00034526698
vn -0.015871048 0.999874 -0.00034526698
vn -0.015871048 0.999874 -0.00034526698
vn -0.015871048 0.999874 -0.00034526698
vn -0.015871048 0.999874 -0.00034526698
vn -0.015871048 0.999874 -0.00034526698
vn -0.015871048 0.999874 -0.00034526698
vn -0.015871048 0.999874 -0.00034526698
vn -0.015871048 0.999874 -0.00034526698
vn -0.015871048 0.999874 -0.00034526698
vn -0.015871048 0.999874 -0.00034526698
vn -0.015871048 0.999874 -0.00034526698
vn -0.015871048 0.999874 -0.00034526698
vn -0.015871048 0.999874 -0.00034526698
vn -0.015871048 0.999874 -0.00034526698
vn -0.015871048 0.999874 -0.00034526698
vn -0.015871048 0.999874 -0.00034526698
vn 0.015870988 0.26980734 0.9627835
vn 0.015870988 0.26980734 0.9627835
vn 0.015870988 0.26980734 0.9627835
vn 0.015870988 0.26980734 0.9627835
vn 0.015870988 0.26980734 0.9627835
vn 0.015870988 0.26980734 0.9627835
vn 0.015870988 0.7141957 0.6997661
vn 0.015870988 0.7141957 0.6997661
vn 0.015870988 0.7141957 0.6997661
vn 0.015870988 0.7141957 0.6997661
vn 0.015870988 0.7141957 0.6997661
vn 0.015870988 0.7141957 0.6997661
vn 0.015870988 0.999874 -0.00034526698
vn 0.015870988 0.999874 -0.00034526698
vn 0.015870988 0.999874 -0.00034526698
vn 0.015870988 0.999874 -0.00034526698
vn -0.015871048 0.999874 -0.00034526698
vn -0.015871048 0.999874 -0.00034526698
vn -0.3332913 0.8411639 0.42586413
vn -0.3332913 0.8411639 0.42586413
vn -0.3332913 0.8411639 0.42586413
vn -0.3332913 0.8411639 0.42586413
vn -0.3332913 0.8411639 0.42586413
vn -0.3332913 0.8411639 0.42586413
vn -0.23806524 0.39677536 0.88650674
vn -0.23806524 0.39677536 0.88650674
vn -0.23806524 0.39677536 0.88650674
vn -0.23806524 0.39677536 0.88650674
vn -0.047613025 -0.07935506 0.9957087
vn -0.047613025 -0.07935506 0.9957087
vn -0.047613025 -0.07935506 0.9957087
vn -0.047613025 -0.07935506 0.9957087
vn -0.07935512 -0.07935506 0.9936828
vn -0.07935512 -0.07935506 0.9936828
vn 0.110431515 0.9938838 -0
vn 0.110431515 0.9938838 -0
vn 0.110431515 0.9938838 -0
vn 0.110431515 0.9938838 -0
vn 0.110431515 0.9938838 -0
vn 0.110431515 0.9938838 -0
vn 0.015870988 0.999874 -0.00034526698
vn 0.015870988 0.999874 -0.00034526698
vn 0.015870988 0.999874 -0.00034526698
vn 0.015870988 0.999874 -0.00034526698
vn 0.015870988 0.999874 -0.00034526698
vn 0.015870988 0.999874 -0.00034526698
vn -0.04756513 0.99886817 -0
vn -0.04756513 0.99886817 -0
vn -0.04756513 0.99886817 -0
vn -0.04756513 0.99886817 -0
vn -0.04756513 0.99886817 -0
vn -0.04756513 0.99886817 -0
vn 0.015870988 0.999874 -0.00034526698
vn 0.015870988 0.999874 -0.00034526698
vn 0.015870988 0.999874 -0.00034526698
vn 0.015870988 0.999874 -0.00034526698
vn -0.015871048 0.999874 -0.00034526698
vn 0.015870988 0.999874 -0.00034526698
vn 0.015870988 0.999874 -0.00034526698
vn -0.015871048 0.999874 -0.00034526698
vn -0.015871048 0.999874 -0.00034526698
vn -0.015871048 0.999874 -0.00034526698
vn -0.04756513 0.99886817 -0
vn -0.04756513 0.99886817 -0
vn -0.20632327 0.968132 0.1419547
vn -0.17458117 0.968132 0.17956008
vn -0.17458117 0.968132 0.17956008
vn -0.20632327 0.968132 0.1419547
vn -0.20632327 0.968132 0.1419547
vn -0.14142141 0.98994946 -0
vn -0.14142141 0.98994946 -0
vn -0.20632327 0.968132 0.1419547
vn -0.14142141 0.98994946 -0
vn -0.14142141 0.98994946 -0
vn -0.14142141 0.98994946 -0
vn -0.14142141 0.98994946 -0
vn -0.14142141 0.98994946 -0
vn -0.14142141 0.98994946 -0
vn -0.14142141 0.98994946 -0
vn -0.14142141 0.98994946 -0
vn -0.14142141 0.98994946 -0
vn 0.36503333 0.7776798 -0.51182497
vn 0.36503333 0.7776798 -0.51182497
vn 0.36503333 0.7776798 -0.51182497
vn 0.36503333 0.7776798 -0.51182497
vn 0.26980728 0.9363899 -0.22445023
vn 0.26980728 0.9363899 -0.22445023
vn 0.26980728 0.9363899 -0.22445023
vn 0.26980728 0.9363899 -0.22445023
vn 0.26980728 0.9363899 -0.22445023
vn 0.26980728 0.9363899 -0.22445023
vn 0.04756513 0.99886817 -0
vn 0.04756513 0.99886817 -0
vn 0.04756513 0.99886817 -0
vn 0.04756513 0.99886817 -0
vn 0.015870988 0.999874 -0.00034526698
vn 0.015870988 0.999874 -0.00034526698
vn -0.04756513 0.99886817 -0
vn -0.04756513 0.99886817 -0
vn -0.04756513 0.99886817 -0
vn -0.04756513 0.99886817 -0
vn -0.015871048 0.999874 -0.00034526698
vn -0.015871048 0.999874 -0.00034526698
vn -0.1428392 0.9363899 0.32057896
vn -0.1428392 0.9363899 0.32057896
vn -0.1428392 0.9363899 0.32057896
vn -0.1428392 0.9363899 0.32057896
vn -0.1110971 0.9363899 0.33291337
vn -0.1110971 0.9363899 0.33291337
vn -0.1110971 0.9363899 0.33291337
vn -0.1110971 0.9363899 0.33291337
vn -0.1428392 0.9363899 0.32057896
vn -0.1428392 0.968132 0.20571192
vn -0.1428392 0.968132 0.20571192
vn -0.1428392 0.968132 0.20571192
vn -0.1428392 0.968132 0.20571192
vn -0.17458117 0.968132 0.17956008
vn -0.17458117 0.968132 0.17956008
vn -0.17458117 0.42851746 0.88650674
vn -0.17458117 0.42851746 0.88650674
vn -0.17458117 0.42851746 0.88650674
vn -0.17458117 0.42851746 0.88650674
vn 0.33329135 0.9363899 0.10995791
vn 0.33329135 0.9363899 0.10995791
vn 0.33329135 0.9363899 0.10995791
vn 0.33329135 0.9363899 0.10995791
vn 0.6189696 0.7459378 -0.24587265
vn 0.6189696 0.7459378 -0.24587265
vn 0.6189696 0.7459378 -0.24587265
vn 0.6189696 0.7459378 -0.24587265
vn -0.04756513 0.99886817 -0
vn -0.04756513 0.99886817 -0
vn -0.04756513 0.99886817 -0
vn -0.04756513 0.99886817 -0
vn -0.04756513 0.99886817 -0
vn -0.04756513 0.99886817 -0
vn -0.04756513 0.99886817 -0
vn -0.04756513 0.99886817 -0
vn -0.04756513 0.99886817 -0
vn -0.04756513 0.99886817 -0
vn -0.04756513 0.99886817 -0
vn -0.04756513 0.99886817 -0
vn -0.04756513 0.99886817 -0
vn -0.04756513 0.99886817 -0
vn -0.04756513 0.99886817 -0
vn 0.36503333 0.7459378 -0.5570704
vn 0.36503333 0.7459378 -0.5570704
vn 0.36503333 0.7459378 -0.5570704
vn 0.36503333 0.7459378 -0.5570704
vn -0.110431515 0.9938838 -0
vn -0.110431515 0.9938838 -0
vn -0.110431515 0.9938838 -0
vn -0.110431515 0.9938838 -0
vn 0.015870988 0.999874 -0.00034526698
vn 0.015870988 0.999874 -0.00034526698
vn 0.015870988 0.999874 -0.00034526698
vn 0.015870988 0.999874 -0.00034526698
vn -0.04756513 0.99886817 -0
vn -0.04756513 0.99886817 -0
vn -0.07935512 0.90464795 0.41870615
vn -0.07935512 0.90464795 0.41870615
vn -0.07935512 0.90464795 0.41870615
vn -0.07935512 0.90464795 0.41870615
vn -0.07935512 0.90464795 0.41870615
vn -0.07935512 0.90464795 0.41870615
vn -0.1428392 0.65071166 0.7457689
vn -0.1428392 0.65071166 0.7457689
vn -0.1428392 0.65071166 0.7457689
vn -0.1428392 0.65071166 0.7457689
vn -0.1110971 0.6189697 0.77751786
vn -0.1110971 0.6189697 0.77751786
vn -0.23806524 0.7141957 0.65821683
vn -0.23806524 0.7141957 0.65821683
vn -0.23806524 0.7141957 0.65821683
vn -0.23806524 0.7141957 0.65821683
vn -0.20632327 0.7141957 0.6688462
vn -0.20632327 0.7141957 0.6688462
vn -0.07935512 0.20632327 0.97526073
vn -0.07935512 0.20632327 0.97526073
vn -0.07935512 0.20632327 0.97526073
vn -0.07935512 0.20632327 0.97526073
vn -0.07935512 0.17458117 0.9814398
vn -0.07935512 0.17458117 0.9814398
vn -0.3332913 0.30154932 0.8933
vn -0.3332913 0.30154932 0.8933
vn -0.3332913 0.30154932 0.8933
vn -0.3332913 0.30154932 0.8933
vn -0.30154932 0.26980734 0.9144791
vn -0.30154932 0.26980734 0.9144791
vn -0.49200153 0.6189697 0.61221814
vn -0.49200153 0.6189697 0.61221814
vn -0.49200153 0.6189697 0.61221814
vn -0.49200153 0.6189697 0.61221814
vn -0.5872276 0.7141957 0.38090453
vn -0.5872276 0.7141957 0.38090453
vn -0.5872276 0.7141957 0.38090453
vn -0.5872276 0.7141957 0.38090453
vn -0.015871048 0.999874 -0.00034526698
vn -0.015871048 0.999874 -0.00034526698
vn -0.015871048 0.999874 -0.00034526698
vn -0.015871048 0.999874 -0.00034526698
vn -0.04756513 0.99886817 -0
vn -0.04756513 0.99886817 -0
vn 0.015870988 0.968132 0.24993704
vn 0.015870988 0.968132 0.24993704
vn 0.015870988 0.968132 0.24993704
vn 0.015870988 0.968132 0.24993704
vn -0.04756513 0.99886817 -0
vn -0.04756513 0.99886817 -0
vn -0.04756513 0.99886817 -0
vn -0.04756513 0.99886817 -0
vn 0.015870988 -0.047613025 0.9987398
vn 0.015870988 -0.047613025 0.9987398
vn 0.015870988 -0.047613025 0.9987398
vn 0.015870988 -0.047613025 0.9987398
vn -0.30154932 -0.047613025 0.952261
vn -0.30154932 -0.047613025 0.952261
vn -0.30154932 -0.047613025 0.952261
vn -0.30154932 -0.047613025 0.952261
vn 0.015870988 -0.1110971 0.9936828
vn 0.015870988 -0.1110971 0.9936828
vn 0.015870988 -0.1110971 0.9936828
vn 0.015870988 -0.1110971 0.9936828
vn -0.3650334 -0.07935506 0.9276063
vn -0.3650334 -0.07935506 0.9276063
vn -0.3650334 -0.07935506 0.9276063
vn -0.3650334 -0.07935506 0.9276063
vn 0.98994946 0.14142141 -0
vn 0.98994946 0.14142141 -0
vn 0.98994946 0.14142141 -0
vn 0.98994946 0.14142141 -0
vn 0.98994946 0.14142141 -0
vn 0.98994946 0.14142141 -0
vn 0.954758 -0.29738364 -0
vn 0.954758 -0.29738364 -0
vn 0.954758 -0.29738364 -0
vn 0.954758 -0.29738364 -0
vn 0.9363899 -0.30154932 0.1795603
vn 0.9363899 -0.30154932 0.1795603
vn 0.9363899 -0.30154932 0.1795603
vn 0.9363899 -0.30154932 0.1795603
vn 0.999874 0.015871048 -0.00034391563
vn 0.999874 0.015871048 -0.00034391563
vn 0.999874 0.015871048 -0.00034391563
vn 0.999874 0.015871048 -0.00034391563
vn 0.999874 0.015871048 -0.00034391563
vn 0.999874 0.015871048 -0.00034391563
vn 0.999874 0.015871048 -0.00034391563
vn 0.999874 0.015871048 -0.00034391563
vn 0.999874 0.015871048 -0.00034391563
vn 0.999874 0.015871048 -0.00034391563
vn 0.999874 0.015871048 -0.00034391563
vn 0.999874 0.015871048 -0.00034391563
vn 0.999874 0.015871048 -0.00034391563
vn 0.999874 0.015871048 -0.00034391563
vn 0.999874 0.015871048 -0.00034391563
vn 0.999874 0.015871048 -0.00034391563
vn 0.999874 0.015871048 -0.00034391563
vn 0.999874 0.015871048 -0.00034391563
vn 0.999874 0.015871048 -0.00034391563
vn 0.999874 0.015871048 -0.00034391563
vn 0.999874 0.015871048 -0.00034391563
vn 0.999874 0.015871048 -0.00034391563
vn 0.999874 0.015871048 -0.00034391563
vn 0.999874 0.015871048 -0.00034391563
vn 0.999874 0.015871048 -0.00034391563
vn 0.999874 0.015871048 -0.00034391563
vn 0.68245363 0.015871048 0.7307566
vn 0.68245363 0.015871048 0.7307566
vn 0.68245363 0.015871048 0.7307566
vn 0.68245363 0.015871048 0.7307566
vn 0.68245363 0.015871048 0.7307566
vn 0.68245363 0.015871048 0.7307566
vn 0.68245363 0.015871048 0.7307566
vn 0.68245363 0.015871048 0.7307566
vn 0.68245363 0.015871048 0.7307566
vn 0.68245363 0.015871048 0.7307566
vn 0.68245363 0.015871048 0.7307566
vn 0.68245363 0.015871048 0.7307566
vn 0.68245363 0.015871048 0.7307566
vn 0.68245363 0.015871048 0.7307566
vn 0.68245363 0.015871048 0.7307566
vn 0.68245363 0.015871048 0.7307566
vn 0.68245363 0.015871048 0.7307566
vn 0.68245363 0.015871048 0.7307566
vn 0.68245363 0.015871048 0.7307566
vn 0.68245363 0.015871048 0.7307566
vn -0.015871048 0.015871048 -0.99974805
vn -0.015871048 0.015871048 -0.99974805
vn -0.015871048 0.015871048 -0.99974805
vn -0.015871048 0.015871048 -0.99974805
vn -0.015871048 0.015871048 -0.99974805
vn -0.015871048 0.015871048 -0.99974805
vn -0.015871048 0.015871048 -0.99974805
vn -0.015871048 0.015871048 -0.99974805
vn -0.015871048 0.015871048 -0.99974805
vn -0.015871048 0.015871048 -0.99974805
vn -0.015871048 0.015871048 -0.99974805
vn -0.015871048 0.015871048 -0.99974805
vn -0.015871048 0.015871048 -0.99974805
vn -0.015871048 0.015871048 -0.99974805
vn -0.015871048 0.015871048 -0.99974805
vn -0.015871048 0.015871048 -0.99974805
vn -0.015871048 0.015871048 -0.99974805
vn -0.015871048 0.015871048 -0.99974805
vn -0.015871048 0.015871048 -0.99974805
vn -0.015871048 0.015871048 -0.99974805
vn -0.015871048 0.015871048 -0.99974805
vn -0.015871048 0.015871048 -0.99974805
vn -0.015871048 0.015871048 -0.99974805
vn -0.015871048 0.015871048 -0.99974805
vn -0.015871048 0.015871048 -0.99974805
vn -0.015871048 0.015871048 -0.99974805
vn -0.015871048 0.015871048 -0.99974805
vn -0.015871048 0.015871048 -0.99974805
vn -0.6189697 0.015871048 -0.78525454
vn -0.6189697 0.015871048 -0.78525454
vn -0.6189697 0.015871048 -0.78525454
vn -0.6189697 0.015871048 -0.78525454
vn -0.999874 0.015871048 -0.00034391563
vn -0.999874 0.015871048 -0.00034391563
vn -0.999874 0.015871048 -0.00034391563
vn -0.999874 0.015871048 -0.00034391563
vn -0.999874 0.015871048 -0.00034391563
vn -0.999874 0.015871048 -0.00034391563
vn -0.999874 0.015871048 -0.00034391563
vn -0.999874 0.015871048 -0.00034391563
vn -0.999874 0.015871048 -0.00034391563
vn -0.999874 0.015871048 -0.00034391563
vn -0.999874 0.015871048 -0.00034391563
vn -0.999874 0.015871048 -0.00034391563
vn -0.999874 0.015871048 -0.00034391563
vn -0.999874 0.015871048 -0.00034391563
vn -0.999874 0.015871048 -0.00034391563
vn -0.999874 0.015871048 -0.00034391563
vn -0.999874 0.015871048 -0.00034391563
vn -0.999874 0.015871048 -0.00034391563
vn -0.999874 0.015871048 -0.00034391563
vn -0.999874 0.015871048 -0.00034391563
vn -0.999874 0.015871048 -0.00034391563
vn -0.999874 0.015871048 -0.00034391563
vn -0.999874 0.015871048 -0.00034391563
vn -0.999874 0.015871048 -0.00034391563
vn -0.999874 0.015871048 -0.00034391563
vn -0.999874 0.015871048 -0.00034391563
vn -0.999874 0.015871048 -0.00034391563
vn -0.999874 0.015871048 -0.00034391563
vn -0.999874 0.015871048 -0.00034391563
vn 0.7141957 0.015871048 -0.6997661
vn 0.7141957 0.015871048 -0.6997661
vn 0.7141957 0.015871048 -0.6997661
vn 0.7141957 0.015871048 -0.6997661
vn 0.7141957 0.015871048 -0.6997661
vn 0.7141957 0.015871048 -0.6997661
vn 0.7141957 0.015871048 -0.6997661
vn 0.7141957 0.015871048 -0.6997661
vn 0.7141957 0.015871048 -0.6997661
vn 0.7141957 0.015871048 -0.6997661
vn 0.7141957 0.015871048 -0.6997661
vn 0.7141957 0.015871048 -0.6997661
vn -0.015871048 0.015871048 0.99974805
vn -0.015871048 0.015871048 0.99974805
vn -0.015871048 0.015871048 0.99974805
vn -0.015871048 0.015871048 0.99974805
vn -0.015871048 0.015871048 0.99974805
vn -0.015871048 0.015871048 0.99974805
vn -0.015871048 0.015871048 0.99974805
vn -0.015871048 0.015871048 0.99974805
vn -0.015871048 0.015871048 0.99974805
vn -0.015871048 0.015871048 0.99974805
vn -0.015871048 0.015871048 0.99974805
vn -0.015871048 0.015871048 0.99974805
vn -0.015871048 0.015871048 0.99974805
vn -0.015871048 0.015871048 0.99974805
vn -0.015871048 0.015871048 0.99974805
vn -0.015871048 0.015871048 0.99974805
vn -0.015871048 0.015871048 0.99974805
vn -0.015871048 0.015871048 0.99974805
vn -0.015871048 0.015871048 0.99974805
vn -0.015871048 0.015871048 0.99974805
vn -0.015871048 0.015871048 0.99974805
vn -0.015871048 0.015871048 0.99974805
vn -0.68245375 0.015871048 0.73075646
vn -0.68245375 0.015871048 0.73075646
vn -0.68245375 0.015871048 0.73075646
vn -0.68245375 0.015871048 0.73075646
vn -0.68245375 0.015871048 0.73075646
vn -0.68245375 0.015871048 0.73075646
vn -0.68245375 0.015871048 0.73075646
vn -0.68245375 0.015871048 0.73075646
vn -0.68245375 0.015871048 0.73075646
vn -0.68245375 0.015871048 0.73075646
vn 0.999874 0.015871048 -0.00034391563
vn 0.999874 0.015871048 -0.00034391563
vn 0.999874 0.015871048 -0.00034391563
vn 0.999874 0.015871048 -0.00034391563
vn 0.999874 0.015871048 -0.00034391563
vn 0.999874 0.015871048 -0.00034391563
vn 0.999874 0.015871048 -0.00034391563
vn 0.999874 0.015871048 -0.00034391563
vn 0.999874 0.015871048 -0.00034391563
vn 0.999874 0.015871048 -0.00034391563
vn 0.68245363 0.015871048 -0.7307566
vn 0.68245363 0.015871048 -0.7307566
vn 0.68245363 0.015871048 -0.7307566
vn 0.68245363 0.015871048 -0.7307566
vn 0.68245363 0.015871048 -0.7307566
vn 0.68245363 0.015871048 -0.7307566
vn 0.68245363 0.015871048 -0.7307566
vn 0.68245363 0.015871048 -0.7307566
vn -0.015871048 0.015871048 -0.99974805
vn -0.015871048 0.015871048 -0.99974805
vn -0.015871048 0.015871048 -0.99974805
vn -0.015871048 0.015871048 -0.99974805
vn -0.015871048 0.015871048 -0.99974805
vn -0.015871048 0.015871048 -0.99974805
vn -0.015871048 0.015871048 -0.99974805
vn -0.015871048 0.015871048 -0.99974805
vn -0.015871048 0.015871048 -0.99974805
vn -0.015871048 0.015871048 -0.99974805
vn -0.015871048 0.015871048 -0.99974805
vn -0.015871048 0.015871048 -0.99974805
vn -0.015871048 0.015871048 -0.99974805
vn -0.015871048 0.015871048 -0.99974805
vn -0.015871048 0.015871048 -0.99974805
vn -0.015871048 0.015871048 -0.99974805
vn -0.015871048 0.015871048 -0.99974805
vn -0.015871048 0.015871048 -0.99974805
vn -0.015871048 0.015871048 -0.99974805
vn -0.015871048 0.015871048 -0.99974805
vn -0.015871048 0.015871048 -0.99974805
vn -0.015871048 0.015871048 -0.99974805
vn 0.999874 0.015871048 -0.00034391563
vn 0.999874 0.015871048 -0.00034391563
vn 0.999874 0.015871048 -0.00034391563
vn 0.999874 0.015871048 -0.00034391563
vn 0.999874 0.015871048 -0.00034391563
vn 0.999874 0.015871048 -0.00034391563
vn 0.999874 0.015871048 -0.00034391563
vn 0.999874 0.015871048 -0.00034391563
vn 0.999874 0.015871048 -0.00034391563
vn 0.999874 0.015871048 -0.00034391563
vn 0.999874 0.015871048 -0.00034391563
vn 0.999874 0.015871048 -0.00034391563
vn 0.999874 0.015871048 -0.00034391563
vn 0.999874 0.015871048 -0.00034391563
vn 0.999874 0.015871048 -0.00034391563
vn 0.999874 0.015871048 -0.00034391563
vn 0.999874 0.015871048 -0.00034391563
vn 0.999874 0.015871048 -0.00034391563
vn 0.999874 0.015871048 -0.00034391563
vn 0.999874 0.015871048 -0.00034391563
vn 0.999874 0.015871048 -0.00034391563
vn 0.999874 0.015871048 -0.00034391563
vn 0.999874 0.015871048 -0.00034391563
vn 0.999874 0.015871048 -0.00034391563
vn 0.999874 0.015871048 -0.00034391563
vn 0.999874 0.015871048 -0.00034391563
vn 0.999874 0.015871048 -0.00034391563
vn 0.999874 0.015871048 -0.00034391563
vn 0.999874 0.015871048 -0.00034391563
vn 0.6189696 0.015871048 0.78525454
vn 0.6189696 0.015871048 0.78525454
vn 0.6189696 0.015871048 0.78525454
vn 0.6189696 0.015871048 0.78525454
vn -0.015871048 0.015871048 0.99974805
vn -0.015871048 0.015871048 0.99974805
vn -0.015871048 0.015871048 0.99974805
vn -0.015871048 0.015871048 0.99974805
vn -0.015871048 0.015871048 0.99974805
vn -0.015871048 0.015871048 0.99974805
vn -0.015871048 0.015871048 0.99974805
vn -0.015871048 0.015871048 0.99974805
vn -0.015871048 0.015871048 0.99974805
vn -0.015871048 0.015871048 0.99974805
vn -0.015871048 0.015871048 0.99974805
vn -0.015871048 0.015871048 0.99974805
vn -0.015871048 0.015871048 0.99974805
vn -0.015871048 0.015871048 0.99974805
vn -0.015871048 0.015871048 0.99974805
vn -0.015871048 0.015871048 0.99974805
vn -0.015871048 0.015871048 0.99974805
vn -0.015871048 0.015871048 0.99974805
vn -0.015871048 0.015871048 0.99974805
vn -0.015871048 0.015871048 0.99974805
vn -0.015871048 0.015871048 0.99974805
vn -0.015871048 0.015871048 0.99974805
vn -0.015871048 0.015871048 0.99974805
vn -0.015871048 0.015871048 0.99974805
vn -0.015871048 0.015871048 0.99974805
vn -0.015871048 0.015871048 0.99974805
vn -0.015871048 0.015871048 0.99974805
vn -0.015871048 0.015871048 0.99974805
vn -0.7141957 0.015871048 0.6997661
vn -0.7141957 0.015871048 0.6997661
vn -0.7141957 0.015871048 0.6997661
vn -0.7141957 0.015871048 0.6997661
vn -0.7141957 0.015871048 0.6997661
vn -0.7141957 0.015871048 0.6997661
vn -0.7141957 0.015871048 0.6997661
vn -0.7141957 0.015871048 0.6997661
vn -0.7141957 0.015871048 0.6997661
vn -0.7141957 0.015871048 0.6997661
vn -0.7141957 0.015871048 0.6997661
vn -0.7141957 0.015871048 0.6997661
vn -0.999874 0.015871048 -0.00034391563
vn -0.999874 0.015871048 -0.00034391563
vn -0.999874 0.015871048 -0.00034391563
vn -0.999874 0.015871048 -0.00034391563
vn -0.999874 0.015871048 -0.00034391563
vn -0.999874 0.015871048 -0.00034391563
vn -0.999874 0.015871048 -0.00034391563
vn -0.999874 0.015871048 -0.00034391563
vn -0.999874 0.015871048 -0.00034391563
vn -0.999874 0.015871048 -0.00034391563
vn -0.999874 0.015871048 -0.00034391563
vn -0.999874 0.015871048 -0.00034391563
vn -0.999874 0.015871048 -0.00034391563
vn -0.999874 0.015871048 -0.00034391563
vn -0.999874 0.015871048 -0.00034391563
vn -0.999874 0.015871048 -0.00034391563
vn -0.999874 0.015871048 -0.00034391563
vn -0.999874 0.015871048 -0.00034391563
vn -0.999874 0.015871048 -0.00034391563
vn -0.999874 0.015871048 -0.00034391563
vn -0.999874 0.015871048 -0.00034391563
vn -0.999874 0.015871048 -0.00034391563
vn -0.999874 0.015871048 -0.00034391563
vn -0.999874 0.015871048 -0.00034391563
vn -0.999874 0.015871048 -0.00034391563
vn -0.999874 0.015871048 -0.00034391563
vn -0.68245375 0.015871048 -0.73075646
vn -0.68245375 0.015871048 -0.73075646
vn -0.68245375 0.015871048 -0.73075646
vn -0.68245375 0.015871048 -0.73075646
vn -0.68245375 0.015871048 -0.73075646
vn -0.68245375 0.015871048 -0.73075646
vn -0.68245375 0.015871048 -0.73075646
vn -0.68245375 0.015871048 -0.73075646
vn -0.68245375 0.015871048 -0.73075646
vn -0.68245375 0.015871048 -0.73075646
vn -0.68245375 0.015871048 -0.73075646
vn -0.68245375 0.015871048 -0.73075646
vn -0.68245375 0.015871048 -0.73075646
vn -0.68245375 0.015871048 -0.73075646
vn -0.68245375 0.015871048 -0.73075646
vn -0.68245375 0.015871048 -0.73075646
vn -0.68245375 0.015871048 -0.73075646
vn -0.68245375 0.015871048 -0.73075646
vn -0.68245375 0.015871048 -0.73075646
vn -0.68245375 0.015871048 -0.73075646
vn -0.999874 0.015871048 -0.00034391563
vn -0.999874 0.015871048 -0.00034391563
vn -0.999874 0.015871048 -0.00034391563
vn -0.999874 0.015871048 -0.00034391563
vn -0.999874 0.015871048 -0.00034391563
vn -0.999874 0.015871048 -0.00034391563
vn -0.999874 0.015871048 -0.00034391563
vn -0.999874 0.015871048 -0.00034391563
vn 0.047613025 0.968132 0.24587277
vn 0.047613025 0.968132 0.24587277
vn 0.047613025 0.968132 0.24587277
vn 0.047613025 0.968132 0.24587277
vn 0.047613025 0.968132 0.24587277
vn 0.047613025 0.968132 0.24587277
vn 0.047613025 0.968132 0.24587277
vn 0.07935506 0.968132 0.23753566
vn 0.07935506 0.968132 0.23753566
vn 0.14283913 0.968132 0.20571192
vn 0.1110971 0.968132 0.2244501
vn 0.1110971 0.968132 0.2244501
vn 0.1110971 0.968132 0.2244501
vn 0.14283913 0.968132 0.20571192
vn 0.1110971 0.968132 0.2244501
vn 0.14283913 0.968132 0.20571192
vn 0.14283913 0.968132 0.20571192
vn 0.14283913 0.968132 0.20571192
g tb_geo_outline_01_mesh_0
f 3/3/3 2/2/2 1/1/1
f 4/4/4 3/3/3 1/1/1
f 4/4/4 1/1/1 5/5/5
f 6/6/6 4/4/4 5/5/5
f 9/9/9 8/8/8 7/7/7
f 8/8/8 10/10/10 7/7/7
f 7/7/7 10/10/10 11/11/11
f 12/12/12 7/7/7 11/11/11
f 15/15/15 14/14/14 13/13/13
f 14/14/14 16/16/16 13/13/13
f 16/16/16 14/14/14 17/17/17
f 18/18/18 16/16/16 17/17/17
f 18/18/18 19/19/19 16/16/16
f 19/19/19 20/20/20 16/16/16
f 20/20/20 21/21/21 16/16/16
f 21/21/21 13/13/13 16/16/16
f 13/13/13 21/21/21 22/22/22
f 23/23/23 13/13/13 22/22/22
f 26/26/26 25/25/25 24/24/24
f 25/25/25 27/27/27 24/24/24
f 24/24/24 27/27/27 28/28/28
f 27/27/27 29/29/29 28/28/28
f 30/30/30 29/29/29 27/27/27
f 31/31/31 30/30/30 27/27/27
f 31/31/31 27/27/27 25/25/25
f 32/32/32 31/31/31 25/25/25
f 35/35/35 34/34/34 33/33/33
f 34/34/34 36/36/36 33/33/33
f 37/37/37 33/33/33 36/36/36
f 38/38/38 37/37/37 36/36/36
f 41/41/41 40/40/40 39/39/39
f 40/40/40 42/42/42 39/39/39
f 39/39/39 42/42/42 43/43/43
f 44/44/44 39/39/39 43/43/43
f 45/45/45 42/42/42 40/40/40
f 42/42/42 45/45/45 43/43/43
f 46/46/46 45/45/45 40/40/40
f 45/45/45 47/47/47 43/43/43
f 43/43/43 48/48/48 44/44/44
f 48/48/48 49/49/49 44/44/44
f 48/48/48 51/51/51 50/50/50
f 52/52/52 48/48/48 50/50/50
f 55/55/55 54/54/54 53/53/53
f 56/56/56 55/55/55 53/53/53
f 59/59/59 58/58/58 57/57/57
f 58/58/58 60/60/60 57/57/57
f 61/61/61 57/57/57 60/60/60
f 62/62/62 61/61/61 60/60/60
f 65/65/65 64/64/64 63/63/63
f 64/64/64 66/66/66 63/63/63
f 63/63/63 66/66/66 67/67/67
f 68/68/68 63/63/63 67/67/67
f 71/71/71 70/70/70 69/69/69
f 72/72/72 71/71/71 69/69/69
f 72/72/72 73/73/73 71/71/71
f 73/73/73 74/74/74 71/71/71
f 77/77/77 76/76/76 75/75/75
f 78/78/78 77/77/77 75/75/75
f 78/78/78 79/79/79 77/77/77
f 79/79/79 80/80/80 77/77/77
f 83/83/83 82/82/82 81/81/81
f 84/84/84 83/83/83 81/81/81
f 87/87/87 86/86/86 85/85/85
f 86/86/86 88/88/88 85/85/85
f 89/89/89 85/85/85 88/88/88
f 90/90/90 89/89/89 88/88/88
f 93/93/93 92/92/92 91/91/91
f 92/92/92 94/94/94 91/91/91
f 95/95/95 91/91/91 94/94/94
f 96/96/96 95/95/95 94/94/94
f 99/99/99 98/98/98 97/97/97
f 100/100/100 99/99/99 97/97/97
f 103/103/103 102/102/102 101/101/101
f 102/102/102 104/104/104 101/101/101
f 104/104/104 102/102/102 105/105/105
f 102/102/102 106/106/106 105/105/105
f 109/109/109 108/108/108 107/107/107
f 108/108/108 110/110/110 107/107/107
f 107/107/107 110/110/110 111/111/111
f 112/112/112 107/107/107 111/111/111
f 115/115/115 114/114/114 113/113/113
f 114/114/114 116/116/116 113/113/113
f 117/117/117 113/113/113 116/116/116
f 118/118/118 117/117/117 116/116/116
f 119/119/119 116/116/116 114/114/114
f 116/116/116 119/119/119 118/118/118
f 120/120/120 119/119/119 114/114/114
f 119/119/119 121/121/121 118/118/118
f 120/120/120 122/122/122 119/119/119
f 121/121/121 119/119/119 123/123/123
f 122/122/122 123/123/123 119/119/119
f 124/124/124 121/121/121 123/123/123
f 125/125/125 123/123/123 122/122/122
f 124/124/124 123/123/123 125/125/125
f 126/126/126 124/124/124 125/125/125
f 127/127/127 125/125/125 122/122/122
f 126/126/126 125/125/125 128/128/128
f 129/129/129 125/125/125 127/127/127
f 125/125/125 129/129/129 128/128/128
f 130/130/130 129/129/129 127/127/127
f 128/128/128 129/129/129 131/131/131
f 129/129/129 130/130/130 131/131/131
f 132/132/132 128/128/128 131/131/131
f 130/130/130 133/133/133 131/131/131
f 136/136/136 135/135/135 134/134/134
f 135/135/135 137/137/137 134/134/134
f 137/137/137 138/138/138 134/134/134
f 138/138/138 139/139/139 134/134/134
f 142/142/142 141/141/141 140/140/140
f 141/141/141 143/143/143 140/140/140
f 144/144/144 140/140/140 143/143/143
f 145/145/145 144/144/144 143/143/143
f 148/148/148 147/147/147 146/146/146
f 147/147/147 149/149/149 146/146/146
f 146/146/146 149/149/149 150/150/150
f 151/151/151 146/146/146 150/150/150
f 154/154/154 153/153/153 152/152/152
f 153/153/153 155/155/155 152/152/152
f 156/156/156 152/152/152 155/155/155
f 157/157/157 156/156/156 155/155/155
f 160/160/160 159/159/159 158/158/158
f 161/161/161 160/160/160 158/158/158
f 164/164/164 163/163/163 162/162/162
f 163/163/163 165/165/165 162/162/162
f 162/162/162 165/165/165 166/166/166
f 165/165/165 167/167/167 166/166/166
f 170/170/170 169/169/169 168/168/168
f 169/169/169 171/171/171 168/168/168
f 172/172/172 168/168/168 171/171/171
f 173/173/173 172/172/172 171/171/171
f 176/176/176 175/175/175 174/174/174
f 177/177/177 176/176/176 174/174/174
f 178/178/178 177/177/177 174/174/174
f 179/179/179 178/178/178 174/174/174
f 182/182/182 181/181/181 180/180/180
f 181/181/181 183/183/183 180/180/180
f 180/180/180 183/183/183 184/184/184
f 183/183/183 185/185/185 184/184/184
f 188/188/188 187/187/187 186/186/186
f 187/187/187 189/189/189 186/186/186
f 191/191/191 189/189/189 190/190/190
f 192/192/192 191/191/191 190/190/190
f 190/190/190 194/194/194 193/193/193
f 195/195/195 190/190/190 193/193/193
f 196/196/196 190/190/190 195/195/195
f 197/197/197 196/196/196 195/195/195
f 200/200/200 199/199/199 198/198/198
f 199/199/199 201/201/201 198/198/198
f 198/198/198 201/201/201 202/202/202
f 203/203/203 201/201/201 199/199/199
f 204/204/204 203/203/203 199/199/199
f 205/205/205 201/201/201 203/203/203
f 201/201/201 205/205/205 202/202/202
f 206/206/206 205/205/205 203/203/203
f 205/205/205 207/207/207 202/202/202
f 207/207/207 205/205/205 206/206/206
f 207/207/207 208/208/208 202/202/202
f 209/209/209 207/207/207 206/206/206
f 207/207/207 209/209/209 208/208/208
f 209/209/209 210/210/210 208/208/208
f 213/213/213 212/212/212 211/211/211
f 214/214/214 213/213/213 211/211/211
f 217/217/217 216/216/216 215/215/215
f 218/218/218 217/217/217 215/215/215
f 221/221/221 220/220/220 219/219/219
f 220/220/220 222/222/222 219/219/219
f 222/222/222 220/220/220 223/223/223
f 224/224/224 222/222/222 223/223/223
f 227/227/227 226/226/226 225/225/225
f 228/228/228 227/227/227 225/225/225
f 227/227/227 228/228/228 229/229/229
f 230/230/230 227/227/227 229/229/229
f 233/233/233 232/232/232 231/231/231
f 234/234/234 233/233/233 231/231/231
f 233/233/233 234/234/234 235/235/235
f 234/234/234 236/236/236 235/235/235
f 239/239/239 238/238/238 237/237/237
f 238/238/238 240/240/240 237/237/237
f 240/240/240 238/238/238 241/241/241
f 242/242/242 240/240/240 241/241/241
f 240/240/240 243/243/243 237/237/237
f 243/243/243 240/240/240 242/242/242
f 243/243/243 244/244/244 237/237/237
f 245/245/245 243/243/243 242/242/242
f 248/248/248 247/247/247 246/246/246
f 249/249/249 248/248/248 246/246/246
f 249/249/249 246/246/246 250/250/250
f 246/246/246 251/251/251 250/250/250
f 254/254/254 253/253/253 252/252/252
f 255/255/255 254/254/254 252/252/252
f 258/258/258 257/257/257 256/256/256
f 259/259/259 258/258/258 256/256/256
f 262/262/262 261/261/261 260/260/260
f 263/263/263 262/262/262 260/260/260
f 266/266/266 265/265/265 264/264/264
f 267/267/267 266/266/266 264/264/264
f 264/264/264 268/268/268 267/267/267
f 268/268/268 269/269/269 267/267/267
f 266/266/266 267/267/267 270/270/270
f 267/267/267 269/269/269 271/271/271
f 267/267/267 271/271/271 270/270/270
f 269/269/269 272/272/272 271/271/271
f 272/272/272 273/273/273 271/271/271
f 271/271/271 274/274/274 270/270/270
f 273/273/273 274/274/274 271/271/271
f 274/274/274 275/275/275 270/270/270
f 276/276/276 275/275/275 274/274/274
f 277/277/277 276/276/276 274/274/274
f 274/274/274 273/273/273 277/277/277
f 273/273/273 278/278/278 277/277/277
f 281/281/281 280/280/280 279/279/279
f 282/282/282 281/281/281 279/279/279
f 285/285/285 284/284/284 283/283/283
f 286/286/286 285/285/285 283/283/283
f 289/289/289 288/288/288 287/287/287
f 290/290/290 289/289/289 287/287/287
f 289/289/289 290/290/290 291/291/291
f 290/290/290 292/292/292 291/291/291
f 295/295/295 294/294/294 293/293/293
f 296/296/296 295/295/295 293/293/293
f 296/296/296 293/293/293 297/297/297
f 293/293/293 298/298/298 297/297/297
f 301/301/301 300/300/300 299/299/299
f 300/300/300 302/302/302 299/299/299
f 303/303/303 302/302/302 300/300/300
f 304/304/304 303/303/303 300/300/300
f 307/307/307 306/306/306 305/305/305
f 306/306/306 308/308/308 305/305/305
f 308/308/308 306/306/306 309/309/309
f 306/306/306 310/310/310 309/309/309
f 313/313/313 312/312/312 311/311/311
f 312/312/312 314/314/314 311/311/311
f 312/312/312 315/315/315 314/314/314
f 315/315/315 316/316/316 314/314/314
f 319/319/319 318/318/318 317/317/317
f 320/320/320 319/319/319 317/317/317
f 321/321/321 319/319/319 320/320/320
f 322/322/322 321/321/321 320/320/320
f 325/325/325 324/324/324 323/323/323
f 326/326/326 325/325/325 323/323/323
f 329/329/329 328/328/328 327/327/327
f 330/330/330 329/329/329 327/327/327
f 333/333/333 332/332/332 331/331/331
f 332/332/332 334/334/334 331/331/331
f 332/332/332 335/335/335 334/334/334
f 335/335/335 336/336/336 334/334/334
f 339/339/339 338/338/338 337/337/337
f 340/340/340 339/339/339 337/337/337
f 343/343/343 342/342/342 341/341/341
f 344/344/344 343/343/343 341/341/341
f 347/347/347 346/346/346 345/345/345
f 348/348/348 347/347/347 345/345/345
f 351/351/351 350/350/350 349/349/349
f 352/352/352 351/351/351 349/349/349
f 355/355/355 354/354/354 353/353/353
f 356/356/356 355/355/355 353/353/353
f 359/359/359 358/358/358 357/357/357
f 360/360/360 359/359/359 357/357/357
f 363/363/363 362/362/362 361/361/361
f 362/362/362 364/364/364 361/361/361
f 361/361/361 364/364/364 365/365/365
f 364/364/364 366/366/366 365/365/365
f 369/369/369 368/368/368 367/367/367
f 370/370/370 369/369/369 367/367/367
f 373/373/373 372/372/372 371/371/371
f 374/374/374 373/373/373 371/371/371
f 377/377/377 376/376/376 375/375/375
f 378/378/378 377/377/377 375/375/375
f 379/379/379 377/377/377 378/378/378
f 380/380/380 379/379/379 378/378/378
f 381/381/381 379/379/379 380/380/380
f 382/382/382 381/381/381 380/380/380
f 383/383/383 381/381/381 382/382/382
f 384/384/384 383/383/383 382/382/382
f 385/385/385 383/383/383 384/384/384
f 386/386/386 385/385/385 384/384/384
f 387/387/387 385/385/385 386/386/386
f 388/388/388 387/387/387 386/386/386
f 389/389/389 387/387/387 388/388/388
f 390/390/390 389/389/389 388/388/388
f 391/391/391 389/389/389 390/390/390
f 392/392/392 391/391/391 390/390/390
f 393/393/393 391/391/391 392/392/392
f 394/394/394 393/393/393 392/392/392
f 395/395/395 393/393/393 394/394/394
f 396/396/396 395/395/395 394/394/394
f 397/397/397 395/395/395 396/396/396
f 398/398/398 397/397/397 396/396/396
f 399/399/399 397/397/397 398/398/398
f 400/400/400 399/399/399 398/398/398
f 403/403/403 402/402/402 401/401/401
f 404/404/404 403/403/403 401/401/401
f 405/405/405 403/403/403 404/404/404
f 406/406/406 405/405/405 404/404/404
f 407/407/407 405/405/405 406/406/406
f 408/408/408 407/407/407 406/406/406
f 409/409/409 407/407/407 408/408/408
f 410/410/410 409/409/409 408/408/408
f 411/411/411 409/409/409 410/410/410
f 412/412/412 411/411/411 410/410/410
f 413/413/413 411/411/411 412/412/412
f 414/414/414 413/413/413 412/412/412
f 415/415/415 413/413/413 414/414/414
f 416/416/416 415/415/415 414/414/414
f 417/417/417 415/415/415 416/416/416
f 418/418/418 417/417/417 416/416/416
f 419/419/419 417/417/417 418/418/418
f 420/420/420 419/419/419 418/418/418
f 423/423/423 422/422/422 421/421/421
f 424/424/424 423/423/423 421/421/421
f 425/425/425 423/423/423 424/424/424
f 426/426/426 425/425/425 424/424/424
f 427/427/427 425/425/425 426/426/426
f 428/428/428 427/427/427 426/426/426
f 429/429/429 427/427/427 428/428/428
f 430/430/430 429/429/429 428/428/428
f 431/431/431 429/429/429 430/430/430
f 432/432/432 431/431/431 430/430/430
f 433/433/433 431/431/431 432/432/432
f 434/434/434 433/433/433 432/432/432
f 435/435/435 433/433/433 434/434/434
f 436/436/436 435/435/435 434/434/434
f 437/437/437 435/435/435 436/436/436
f 438/438/438 437/437/437 436/436/436
f 439/439/439 437/437/437 438/438/438
f 440/440/440 439/439/439 438/438/438
f 441/441/441 439/439/439 440/440/440
f 442/442/442 441/441/441 440/440/440
f 443/443/443 441/441/441 442/442/442
f 444/444/444 443/443/443 442/442/442
f 445/445/445 443/443/443 444/444/444
f 446/446/446 445/445/445 444/444/444
f 447/447/447 445/445/445 446/446/446
f 448/448/448 447/447/447 446/446/446
f 451/451/451 450/450/450 449/449/449
f 452/452/452 451/451/451 449/449/449
f 455/455/455 454/454/454 453/453/453
f 454/454/454 456/456/456 453/453/453
f 453/453/453 456/456/456 457/457/457
f 456/456/456 458/458/458 457/457/457
f 457/457/457 458/458/458 459/459/459
f 458/458/458 460/460/460 459/459/459
f 459/459/459 460/460/460 461/461/461
f 460/460/460 462/462/462 461/461/461
f 461/461/461 462/462/462 463/463/463
f 462/462/462 464/464/464 463/463/463
f 463/463/463 464/464/464 465/465/465
f 466/466/466 465/465/465 464/464/464
f 467/467/467 466/466/466 464/464/464
f 466/466/466 467/467/467 468/468/468
f 467/467/467 469/469/469 468/468/468
f 468/468/468 469/469/469 470/470/470
f 469/469/469 471/471/471 470/470/470
f 470/470/470 471/471/471 472/472/472
f 471/471/471 473/473/473 472/472/472
f 472/472/472 473/473/473 474/474/474
f 473/473/473 475/475/475 474/474/474
f 474/474/474 475/475/475 476/476/476
f 477/477/477 474/474/474 476/476/476
f 477/477/477 476/476/476 478/478/478
f 476/476/476 479/479/479 478/478/478
f 478/478/478 479/479/479 480/480/480
f 479/479/479 481/481/481 480/480/480
f 484/484/484 483/483/483 482/482/482
f 483/483/483 485/485/485 482/482/482
f 486/486/486 485/485/485 483/483/483
f 487/487/487 486/486/486 483/483/483
f 488/488/488 486/486/486 487/487/487
f 489/489/489 488/488/488 487/487/487
f 490/490/490 488/488/488 489/489/489
f 491/491/491 490/490/490 489/489/489
f 492/492/492 490/490/490 491/491/491
f 493/493/493 492/492/492 491/491/491
f 496/496/496 495/495/495 494/494/494
f 497/497/497 496/496/496 494/494/494
f 498/498/498 496/496/496 497/497/497
f 499/499/499 498/498/498 497/497/497
f 500/500/500 498/498/498 499/499/499
f 501/501/501 500/500/500 499/499/499
f 502/502/502 500/500/500 501/501/501
f 503/503/503 502/502/502 501/501/501
f 504/504/504 502/502/502 503/503/503
f 505/505/505 504/504/504 503/503/503
f 506/506/506 504/504/504 505/505/505
f 507/507/507 506/506/506 505/505/505
f 508/508/508 506/506/506 507/507/507
f 509/509/509 508/508/508 507/507/507
f 510/510/510 508/508/508 509/509/509
f 511/511/511 510/510/510 509/509/509
f 512/512/512 510/510/510 511/511/511
f 513/513/513 512/512/512 511/511/511
f 514/514/514 512/512/512 513/513/513
f 515/515/515 514/514/514 513/513/513
f 518/518/518 517/517/517 516/516/516
f 519/519/519 518/518/518 516/516/516
f 520/520/520 518/518/518 519/519/519
f 521/521/521 520/520/520 519/519/519
f 522/522/522 520/520/520 521/521/521
f 523/523/523 522/522/522 521/521/521
f 524/524/524 522/522/522 523/523/523
f 525/525/525 524/524/524 523/523/523
f 528/528/528 527/527/527 526/526/526
f 527/527/527 529/529/529 526/526/526
f 526/526/526 529/529/529 530/530/530
f 529/529/529 531/531/531 530/530/530
f 530/530/530 531/531/531 532/532/532
f 531/531/531 533/533/533 532/532/532
f 532/532/532 533/533/533 534/534/534
f 533/533/533 535/535/535 534/534/534
f 538/538/538 537/537/537 536/536/536
f 539/539/539 538/538/538 536/536/536
f 540/540/540 538/538/538 539/539/539
f 541/541/541 540/540/540 539/539/539
f 542/542/542 540/540/540 541/541/541
f 543/543/543 542/542/542 541/541/541
f 546/546/546 545/545/545 544/544/544
f 547/547/547 546/546/546 544/544/544
f 548/548/548 546/546/546 547/547/547
f 549/549/549 548/548/548 547/547/547
f 550/550/550 548/548/548 549/549/549
f 551/551/551 550/550/550 549/549/549
f 552/552/552 550/550/550 551/551/551
f 553/553/553 552/552/552 551/551/551
f 554/554/554 552/552/552 553/553/553
f 555/555/555 554/554/554 553/553/553
f 556/556/556 554/554/554 555/555/555
f 557/557/557 556/556/556 555/555/555
f 558/558/558 556/556/556 557/557/557
f 559/559/559 558/558/558 557/557/557
f 560/560/560 558/558/558 559/559/559
f 561/561/561 560/560/560 559/559/559
f 562/562/562 560/560/560 561/561/561
f 563/563/563 562/562/562 561/561/561
f 564/564/564 562/562/562 563/563/563
f 565/565/565 564/564/564 563/563/563
f 568/568/568 567/567/567 566/566/566
f 569/569/569 568/568/568 566/566/566
f 570/570/570 568/568/568 569/569/569
f 571/571/571 570/570/570 569/569/569
f 572/572/572 570/570/570 571/571/571
f 573/573/573 572/572/572 571/571/571
f 574/574/574 572/572/572 573/573/573
f 575/575/575 574/574/574 573/573/573
f 576/576/576 574/574/574 575/575/575
f 577/577/577 576/576/576 575/575/575
f 578/578/578 576/576/576 577/577/577
f 578/578/578 579/579/579 576/576/576
f 579/579/579 580/580/580 576/576/576
f 581/581/581 580/580/580 579/579/579
f 582/582/582 581/581/581 579/579/579
f 583/583/583 581/581/581 582/582/582
f 584/584/584 583/583/583 582/582/582
f 585/585/585 583/583/583 584/584/584
f 586/586/586 585/585/585 584/584/584
f 587/587/587 585/585/585 586/586/586
f 588/588/588 587/587/587 586/586/586
f 587/587/587 588/588/588 589/589/589
f 588/588/588 590/590/590 589/589/589
f 591/591/591 589/589/589 590/590/590
f 592/592/592 591/591/591 590/590/590
f 593/593/593 591/591/591 592/592/592
f 594/594/594 593/593/593 592/592/592
f 597/597/597 596/596/596 595/595/595
f 598/598/598 597/597/597 595/595/595
f 601/601/601 600/600/600 599/599/599
f 602/602/602 601/601/601 599/599/599
f 603/603/603 601/601/601 602/602/602
f 604/604/604 603/603/603 602/602/602
f 605/605/605 603/603/603 604/604/604
f 606/606/606 605/605/605 604/604/604
f 607/607/607 605/605/605 606/606/606
f 608/608/608 607/607/607 606/606/606
f 609/609/609 607/607/607 608/608/608
f 610/610/610 609/609/609 608/608/608
f 611/611/611 609/609/609 610/610/610
f 612/612/612 611/611/611 610/610/610
f 613/613/613 611/611/611 612/612/612
f 614/614/614 613/613/613 612/612/612
f 615/615/615 613/613/613 614/614/614
f 616/616/616 615/615/615 614/614/614
f 617/617/617 615/615/615 616/616/616
f 618/618/618 617/617/617 616/616/616
f 619/619/619 617/617/617 618/618/618
f 620/620/620 619/619/619 618/618/618
f 621/621/621 619/619/619 620/620/620
f 622/622/622 621/621/621 620/620/620
f 623/623/623 621/621/621 622/622/622
f 624/624/624 623/623/623 622/622/622
f 625/625/625 623/623/623 624/624/624
f 626/626/626 625/625/625 624/624/624
f 629/629/629 628/628/628 627/627/627
f 630/630/630 629/629/629 627/627/627
f 631/631/631 629/629/629 630/630/630
f 632/632/632 631/631/631 630/630/630
f 633/633/633 631/631/631 632/632/632
f 634/634/634 633/633/633 632/632/632
f 635/635/635 633/633/633 634/634/634
f 636/636/636 635/635/635 634/634/634
f 636/636/636 637/637/637 635/635/635
f 637/637/637 638/638/638 635/635/635
f 641/641/641 640/640/640 639/639/639
f 640/640/640 642/642/642 639/639/639
f 639/639/639 642/642/642 643/643/643
f 642/642/642 644/644/644 643/643/643
f 643/643/643 644/644/644 645/645/645
f 644/644/644 646/646/646 645/645/645
f 645/645/645 646/646/646 647/647/647
f 646/646/646 648/648/648 647/647/647
f 647/647/647 648/648/648 649/649/649
f 648/648/648 650/650/650 649/649/649
f 649/649/649 650/650/650 651/651/651
f 650/650/650 652/652/652 651/651/651
f 651/651/651 652/652/652 653/653/653
f 652/652/652 654/654/654 653/653/653
f 653/653/653 654/654/654 655/655/655
f 654/654/654 656/656/656 655/655/655
f 655/655/655 656/656/656 657/657/657
f 656/656/656 658/658/658 657/657/657
f 657/657/657 658/658/658 659/659/659
f 658/658/658 660/660/660 659/659/659
f 659/659/659 660/660/660 661/661/661
f 660/660/660 662/662/662 661/661/661
f 661/661/661 662/662/662 663/663/663
f 662/662/662 664/664/664 663/663/663
f 667/667/667 666/666/666 665/665/665
f 668/668/668 667/667/667 665/665/665
f 669/669/669 667/667/667 668/668/668
f 670/670/670 669/669/669 668/668/668
f 671/671/671 669/669/669 670/670/670
f 672/672/672 671/671/671 670/670/670
f 673/673/673 671/671/671 672/672/672
f 674/674/674 673/673/673 672/672/672
f 675/675/675 673/673/673 674/674/674
f 676/676/676 675/675/675 674/674/674
f 677/677/677 675/675/675 676/676/676
f 678/678/678 677/677/677 676/676/676
f 679/679/679 677/677/677 678/678/678
f 680/680/680 679/679/679 678/678/678
f 681/681/681 679/679/679 680/680/680
f 682/682/682 681/681/681 680/680/680
f 683/683/683 681/681/681 682/682/682
f 684/684/684 683/683/683 682/682/682
f 687/687/687 686/686/686 685/685/685
f 688/688/688 687/687/687 685/685/685
f 689/689/689 687/687/687 688/688/688
f 690/690/690 689/689/689 688/688/688
f 691/691/691 689/689/689 690/690/690
f 692/692/692 691/691/691 690/690/690
f 695/695/695 694/694/694 693/693/693
f 696/696/696 695/695/695 693/693/693
f 694/694/694 695/695/695 697/697/697
f 696/696/696 698/698/698 695/695/695
f 695/695/695 699/699/699 697/697/697
f 698/698/698 700/700/700 695/695/695
f 699/699/699 695/695/695 701/701/701
f 695/695/695 700/700/700 701/701/701
f 704/704/704 703/703/703 702/702/702
f 705/705/705 704/704/704 702/702/702
f 703/703/703 706/706/706 702/702/702
f 705/705/705 702/702/702 707/707/707
f 706/706/706 708/708/708 702/702/702
f 702/702/702 709/709/709 707/707/707
f 702/702/702 708/708/708 710/710/710
f 709/709/709 702/702/702 710/710/710
