g tb_geo_meeple_p2c1_b_mesh
v -1.1736162 2.0789192 -0.4391832
v -0.5138788 2.0913851 0.85592043
v -1.1736164 2.07892 0.8559203
v -0.5138786 2.0913844 -0.4391831
v -1.6446352 2.0702558 0.20422232
v -1.1551385 2.0795045 0.8464242
v -1.6446353 2.070256 0.84642416
v -1.1551384 2.0795043 0.20422238
v -1.9203532 2.065692 0.2172305
v -1.5690932 2.072329 0.8334158
v -1.9203533 2.0656922 0.83341575
v -1.5690931 2.0723288 0.21723056
v -1.1801382 2.0788872 -0.3239882
v -1.1383325 2.0796773 0.4824649
v -1.542453 2.0720417 0.20620531
v -0.77601767 2.0865228 -0.04772857
vt 0 0
vt 1 1
vt 1 0
vt 0 1
vt 0 0
vt 1 1
vt 1 0
vt 0 1
vt 0 0
vt 1 1
vt 1 0
vt 0 1
vt 0 0
vt 1 1
vt 1 0
vt 0 1
vn -0.018890837 0.99982154 -4.6580925E-07
vn -0.018890837 0.99982154 -4.6580925E-07
vn -0.018890837 0.99982154 -4.6580925E-07
vn -0.018890837 0.99982154 -4.6580925E-07
vn -0.018890835 0.99982154 -4.6580837E-07
vn -0.018890835 0.99982154 -4.6580837E-07
vn -0.018890835 0.99982154 -4.6580837E-07
vn -0.018890835 0.99982154 -4.6580837E-07
vn -0.018890835 0.99982154 -4.658099E-07
vn -0.018890835 0.99982154 -4.658099E-07
vn -0.018890835 0.99982154 -4.658099E-07
vn -0.018890835 0.99982154 -4.658099E-07
vn -0.018890508 0.99982154 -2.4861873E-07
vn -0.018890508 0.99982154 -2.4861873E-07
vn -0.018890508 0.99982154 -2.4861873E-07
vn -0.018890508 0.99982154 -2.4861873E-07
g tb_geo_meeple_p2c1_b_mesh_0
f 3/3/3 2/2/2 1/1/1
f 4/4/4 1/1/1 2/2/2
f 7/7/7 6/6/6 5/5/5
f 8/8/8 5/5/5 6/6/6
f 11/11/11 10/10/10 9/9/9
f 12/12/12 9/9/9 10/10/10
f 15/15/15 14/14/14 13/13/13
f 16/16/16 13/13/13 14/14/14
