g tb_geo_wall_01_mesh
v -0.9630419 0.348014 0.0015193224
v -0.9630419 -0.33414733 0.0015193224
v -0.86342466 -0.33414733 0.096805334
v -0.86342466 0.348014 0.096805334
v -1.4503 0.348014 0.0015193224
v -1.4503 -0.33414733 0.0015193224
v -0.9630419 -0.33414733 0.0015193224
v -0.9630419 0.348014 0.0015193224
v -1.4503 -0.33414733 -0.60051507
v -1.4503 0.348014 -0.60051507
v -1.2488999 0.348014 -0.7651
v -1.2488999 -0.33414733 -0.7651
v -0.72266126 0.348014 -0.7651
v -0.72266126 -0.33414733 -0.7651
v -1.2488999 -0.33414733 -0.7651
v -1.2488999 0.348014 -0.7651
v -0.55374515 0.348014 -0.5940183
v -0.55374515 -0.33414733 -0.5940183
v -0.72266126 -0.33414733 -0.7651
v -0.72266126 0.348014 -0.7651
v -0.86342466 0.348014 -0.054786026
v -0.86342466 -0.33414733 -0.054786026
v -0.55374515 -0.33414733 -0.34280968
v -0.55374515 0.348014 -0.34280968
v -0.86342466 0.348014 0.096805334
v -0.86342466 -0.33414733 0.096805334
v -0.86342466 -0.33414733 -0.054786026
v -0.86342466 0.348014 -0.054786026
v -0.55374515 0.348014 -0.34280968
v -0.55374515 -0.33414733 -0.34280968
v -0.55374515 -0.33414733 -0.5940183
v -0.55374515 0.348014 -0.5940183
v -1.4503 -0.33414733 0.0015193224
v -1.4503 0.348014 0.0015193224
v -1.4503 0.348014 -0.60051507
v -1.4503 -0.33414733 -0.60051507
vt 0.10980389 1
vt 0.10980389 -2.9802322E-08
vt -2.9802322E-08 -2.9802322E-08
vt -2.9802322E-08 1
vt 0.10980389 1
vt 0.10980389 -2.9802322E-08
vt 0.10980389 -2.9802322E-08
vt 0.10980389 1
vt 0.8078431 -2.9802322E-08
vt 0.8078431 1
vt 1 1
vt 1 -2.9802322E-08
vt 1 1
vt 1 -2.9802322E-08
vt 1 -2.9802322E-08
vt 1 1
vt 0.79999995 1
vt 0.79999995 -2.9802322E-08
vt 1 -2.9802322E-08
vt 1 1
vt 0.172549 1
vt 0.172549 -2.9802322E-08
vt 0.5098039 -2.9802322E-08
vt 0.5098039 1
vt -2.9802322E-08 1
vt -2.9802322E-08 -2.9802322E-08
vt 0.172549 -2.9802322E-08
vt 0.172549 1
vt 0.5098039 1
vt 0.5098039 -2.9802322E-08
vt 0.79999995 -2.9802322E-08
vt 0.79999995 1
vt 0.10980389 -2.9802322E-08
vt 0.10980389 1
vt 0.8078431 1
vt 0.8078431 -2.9802322E-08
vn 0.68245363 0.015871048 -0.7307566
vn 0.68245363 0.015871048 -0.7307566
vn 0.68245363 0.015871048 -0.7307566
vn 0.68245363 0.015871048 -0.7307566
vn -0.015871048 0.015871048 -0.99974805
vn -0.015871048 0.015871048 -0.99974805
vn -0.015871048 0.015871048 -0.99974805
vn -0.015871048 0.015871048 -0.99974805
vn 0.6189696 0.015871048 0.78525454
vn 0.6189696 0.015871048 0.78525454
vn 0.6189696 0.015871048 0.78525454
vn 0.6189696 0.015871048 0.78525454
vn -0.015871048 0.015871048 0.99974805
vn -0.015871048 0.015871048 0.99974805
vn -0.015871048 0.015871048 0.99974805
vn -0.015871048 0.015871048 0.99974805
vn -0.7141957 0.015871048 0.6997661
vn -0.7141957 0.015871048 0.6997661
vn -0.7141957 0.015871048 0.6997661
vn -0.7141957 0.015871048 0.6997661
vn -0.68245375 0.015871048 -0.73075646
vn -0.68245375 0.015871048 -0.73075646
vn -0.68245375 0.015871048 -0.73075646
vn -0.68245375 0.015871048 -0.73075646
vn -0.999874 0.015871048 -0.00034391563
vn -0.999874 0.015871048 -0.00034391563
vn -0.999874 0.015871048 -0.00034391563
vn -0.999874 0.015871048 -0.00034391563
vn -0.999874 0.015871048 -0.00034391563
vn -0.999874 0.015871048 -0.00034391563
vn -0.999874 0.015871048 -0.00034391563
vn -0.999874 0.015871048 -0.00034391563
vn 0.999874 0.015871048 -0.00034391563
vn 0.999874 0.015871048 -0.00034391563
vn 0.999874 0.015871048 -0.00034391563
vn 0.999874 0.015871048 -0.00034391563
g tb_geo_wall_01_mesh_0
f 3/3/3 2/2/2 1/1/1
f 4/4/4 3/3/3 1/1/1
f 7/7/7 6/6/6 5/5/5
f 8/8/8 7/7/7 5/5/5
f 11/11/11 10/10/10 9/9/9
f 12/12/12 11/11/11 9/9/9
f 15/15/15 14/14/14 13/13/13
f 16/16/16 15/15/15 13/13/13
f 19/19/19 18/18/18 17/17/17
f 20/20/20 19/19/19 17/17/17
f 23/23/23 22/22/22 21/21/21
f 24/24/24 23/23/23 21/21/21
f 27/27/27 26/26/26 25/25/25
f 28/28/28 27/27/27 25/25/25
f 31/31/31 30/30/30 29/29/29
f 32/32/32 31/31/31 29/29/29
f 35/35/35 34/34/34 33/33/33
f 36/36/36 35/35/35 33/33/33
