g tb_geo_meeple_p4c1_b_mesh
v -3.9217546 2.1071715 0.074509054
v -1.8480399 2.1071715 0.7941834
v -3.921755 2.1071715 0.7941817
v -1.8480394 2.1071715 0.074510664
v -4.4587646 2.1071715 0.064164996
v -3.9552758 2.1071715 0.44941735
v -4.458765 2.1071715 0.44941697
v -3.9552755 2.1071715 0.06416538
v -2.2999473 2.1071718 -0.8903866
v -2.8858232 2.1071718 0.43549204
v -3.2475042 2.1071718 0.0836412
v -1.9382663 2.1071718 -0.5385357
v -2.4353447 2.107172 -1.0567513
v -1.8494459 2.1071715 0.30250746
v -2.436189 2.1071713 0.30214292
v -1.8486016 2.1071723 -1.0563867
v -2.3640976 1.541959 -2.0279448
v -1.7357988 1.5248849 -1.4849954
v -2.3644223 1.6351873 -1.5050519
v -1.7354741 1.4316567 -2.0078883
v -2.2027392 1.4814049 -2.2101908
v -1.5508534 1.4005483 -2.0012264
v -2.2052915 1.5137923 -2.0310183
v -1.5483012 1.368161 -2.180399
v -1.5468034 1.4073656 -2.0359745
v -1.7313539 1.5362182 -1.5004433
v -1.726057 1.438527 -2.0433307
v -1.5521002 1.5050567 -1.493087
vt 0 0
vt 1 1
vt 1 0
vt 0 1
vt 0 0
vt 1 1
vt 1 0
vt 0 1
vt 0 0
vt 1 1
vt 1 0
vt 0 1
vt 0 0
vt 1 1
vt 1 0
vt 0 1
vt 0 0
vt 1 1
vt 1 0
vt 0 1
vt 0 0
vt 1 1
vt 1 0
vt 0 1
vt 0 0
vt 1 1
vt 1 0
vt 0 1
vn -5.961542E-08 1 -2.2724286E-08
vn -5.961542E-08 1 -2.2724286E-08
vn -5.961542E-08 1 -2.2724286E-08
vn -5.961542E-08 1 -2.2724286E-08
vn -5.961542E-08 1 -2.2723675E-08
vn -5.961542E-08 1 -2.2723675E-08
vn -5.961542E-08 1 -2.2723675E-08
vn -5.961542E-08 1 -2.2723675E-08
vn 1.5010133E-07 1 2.0703365E-07
vn 1.5010133E-07 1 2.0703365E-07
vn 1.5010133E-07 1 2.0703365E-07
vn 1.5010133E-07 1 2.0703365E-07
vn -2.387171E-07 1 4.829872E-07
vn -2.387171E-07 1 4.829872E-07
vn -2.387171E-07 1 4.829872E-07
vn -2.387171E-07 1 4.829872E-07
vn 0.17557222 0.9692015 -0.172693
vn 0.17557222 0.9692015 -0.172693
vn 0.17557222 0.9692015 -0.172693
vn 0.17557222 0.9692015 -0.172693
vn 0.17557198 0.96920156 -0.17269285
vn 0.17557198 0.96920156 -0.17269285
vn 0.17557198 0.96920156 -0.17269285
vn 0.17557198 0.96920156 -0.17269285
vn 0.17557234 0.96920156 -0.17269234
vn 0.17557234 0.96920156 -0.17269234
vn 0.17557234 0.96920156 -0.17269234
vn 0.17557234 0.96920156 -0.17269234
g tb_geo_meeple_p4c1_b_mesh_0
f 3/3/3 2/2/2 1/1/1
f 4/4/4 1/1/1 2/2/2
f 7/7/7 6/6/6 5/5/5
f 8/8/8 5/5/5 6/6/6
f 11/11/11 10/10/10 9/9/9
f 12/12/12 9/9/9 10/10/10
f 15/15/15 14/14/14 13/13/13
f 16/16/16 13/13/13 14/14/14
f 19/19/19 18/18/18 17/17/17
f 20/20/20 17/17/17 18/18/18
f 23/23/23 22/22/22 21/21/21
f 24/24/24 21/21/21 22/22/22
f 27/27/27 26/26/26 25/25/25
f 28/28/28 25/25/25 26/26/26
