g tb_geo_meeple_p3c3_b_mesh
v -3.5544956 2.0322375 -1.8004645
v -2.2886517 1.736012 -1.3221437
v -3.5544956 1.762239 -1.3077714
v -2.2886517 2.0060105 -1.8148367
v -3.52002 1.7747936 -1.270999
v -2.6195407 1.532697 -0.7657418
v -3.5187972 1.5513287 -0.75553167
v -2.6207635 1.7561619 -1.2812091
v -3.540894 1.5431275 -0.7406473
v -2.331603 1.347625 -0.21902853
v -3.5383484 1.3726276 -0.2053271
v -2.3341486 1.5181249 -0.75434875
v -3.2993548 1.3585491 -0.17601234
v -2.3823745 1.2680726 0.03807667
v -3.2982872 1.2870494 0.048476025
v -2.3834422 1.3395723 -0.1864117
v -2.5397835 1.2658813 0.051692568
v -2.3524957 1.1905236 0.27406555
v -2.5387158 1.194382 0.2761799
v -2.3535633 1.262023 0.049578212
vt 0 0
vt 1 1
vt 1 0
vt 0 1
vt 0 0
vt 1 1
vt 1 0
vt 0 1
vt 0 0
vt 1 1
vt 1 0
vt 0 1
vt 0 0
vt 1 1
vt 1 0
vt 0 1
vt 0 0
vt 1 1
vt 1 0
vt 0 1
vn 0.023619354 0.87670875 0.48044148
vn 0.023619354 0.87670875 0.48044148
vn 0.023619354 0.87670875 0.48044148
vn 0.023619354 0.87670875 0.48044148
vn 0.02351909 0.91726 0.397594
vn 0.02351909 0.91726 0.397594
vn 0.02351909 0.91726 0.397594
vn 0.02351909 0.91726 0.397594
vn 0.02318093 0.9526137 0.30329806
vn 0.02318093 0.9526137 0.30329806
vn 0.02318093 0.9526137 0.30329806
vn 0.02318093 0.9526137 0.30329806
vn 0.023180835 0.95261383 0.30329797
vn 0.023180835 0.95261383 0.30329797
vn 0.023180835 0.95261383 0.30329797
vn 0.023180835 0.95261383 0.30329797
vn 0.023180818 0.95261383 0.30329797
vn 0.023180818 0.95261383 0.30329797
vn 0.023180818 0.95261383 0.30329797
vn 0.023180818 0.95261383 0.30329797
g tb_geo_meeple_p3c3_b_mesh_0
f 3/3/3 2/2/2 1/1/1
f 4/4/4 1/1/1 2/2/2
f 7/7/7 6/6/6 5/5/5
f 8/8/8 5/5/5 6/6/6
f 11/11/11 10/10/10 9/9/9
f 12/12/12 9/9/9 10/10/10
f 15/15/15 14/14/14 13/13/13
f 16/16/16 13/13/13 14/14/14
f 19/19/19 18/18/18 17/17/17
f 20/20/20 17/17/17 18/18/18
