g tb_geo_light_section_10_mesh
v -0.8918563 0.11302036 -0.2742221
v -0.89403176 0.13260001 -0.2959773
v -0.8831543 0.11519587 -0.27857316
v -0.90055835 0.11737138 -0.23288727
v -0.90708494 0.11737138 -0.26116902
v -0.90055835 0.06950998 -0.23288727
v -0.90055835 0.11737138 -0.23288727
v -0.9092605 0.1217224 -0.23723829
v -0.91361153 0.1217224 -0.23288727
v -1.1703228 0.3283968 -0.374296
v -1.1420411 0.31969464 -0.39170018
v -1.1529186 0.30664158 -0.374296
v -1.1790248 0.3283968 -0.5091782
v -1.1289879 0.32622123 -0.5200558
v -1.0767754 0.32404578 -0.5309334
v -1.205131 0.34144986 -0.4743699
v -1.2203597 0.33057225 -0.52440685
v -1.2225353 0.34362543 -0.44173712
v -1.1703228 0.3283968 -0.374296
v -1.2595191 0.34362543 -0.428684
v -1.2312374 0.34362543 -0.374296
v -1.2638702 0.34580088 -0.41127983
v -0.93971777 0.31969464 -0.5200558
v -0.99628127 0.3218702 -0.5635662
v -0.96799946 0.31969464 -0.5592152
v -0.91361153 0.31969464 -0.5570396
v -0.93971777 0.31969464 -0.57226825
v -0.9092605 0.31316817 -0.54398656
v -0.9266646 0.31316817 -0.51570475
v -0.90708494 0.31969464 -0.5766193
v -0.92884016 0.31969464 -0.59184796
v -0.90055835 0.31969464 -0.58967245
v -0.92884016 0.31969464 -0.6223052
v -0.8875053 0.31969464 -0.6114276
v -0.9027339 0.31969464 -0.6527625
v -0.86792564 0.31969464 -0.6244807
v -0.86139905 0.31969464 -0.63970935
v -0.85704803 0.31969464 -0.66799116
v -0.85704803 0.31969464 -0.6723422
v -0.8592235 0.31969464 -0.6766932
v -0.8483459 0.31969464 -0.69192183
v -0.8875053 0.31969464 -0.7332567
v -0.84399486 0.31969464 -0.70497495
v -0.8418194 0.31969464 -0.71367705
v -0.8309418 0.31969464 -0.7289057
v -0.8244152 0.31969464 -0.7528364
v -0.8831543 0.31969464 -0.77024055
v -0.8265908 0.31969464 -0.77024055
v -1.2616947 0.34580088 -0.374296
v -1.2312374 0.34362543 -0.374296
v -1.309556 0.34580088 -0.39170018
v -1.2616947 0.34580088 -0.374296
v -1.2943275 0.34580088 -0.374296
v -1.3117316 0.34580088 -0.374296
v -1.3443644 0.34580088 -0.374296
v -1.3313112 0.34580088 -0.40040225
v -1.3922257 0.34580088 -0.3938757
v -1.3791726 0.34580088 -0.374296
v -1.3791726 0.34580088 -0.374296
v -1.3856993 0.34144986 -0.374296
v -1.3856993 0.34144986 -0.374296
v -1.422683 0.34580088 -0.374296
v -1.4553158 0.34580088 -0.37864706
v -1.4553158 0.34580088 -0.3938757
v -1.422683 0.34580088 -0.374296
v -1.4509647 0.34580088 -0.374296
v -1.4553158 0.3392744 -0.374296
v -1.4553158 0.34580088 -0.37864706
v -1.4509647 0.34580088 -0.374296
v -1.4553158 0.4415238 -0.40475327
v -1.4553158 0.4415238 -0.60272557
v -1.3987522 0.4415238 -0.40475327
v -1.3421888 0.4415238 -0.42433295
v -1.2899764 0.4415238 -0.44391263
v -1.2638702 0.4415238 -0.4613168
v -1.2464659 0.4415238 -0.48742303
v -1.2377639 0.4415238 -0.53310895
v -1.2508171 0.4415238 -0.77024055
v -1.2073066 0.4415238 -0.53528446
v -1.1703228 0.4415238 -0.54398656
v -1.1181103 0.4415238 -0.5766193
v -1.0767754 0.4415238 -0.59402347
v -1.0506692 0.4415238 -0.63753384
v -1.0528448 0.4415238 -0.69192183
v -1.028914 0.4415238 -0.7397833
v -1.0158609 0.4415238 -0.77024055
v -1.3987522 0.4415238 -0.40475327
v -1.4553158 0.41541755 -0.38517362
v -1.4553158 0.4415238 -0.40475327
v -1.3944013 0.41541755 -0.38734913
v -1.3334868 0.41541755 -0.40475327
v -1.3421888 0.4415238 -0.42433295
v -1.3944013 0.38278472 -0.38952464
v -1.4553158 0.37625825 -0.38734913
v -1.3313112 0.37625825 -0.40040225
v -1.3922257 0.34580088 -0.3938757
v -1.4553158 0.34580088 -0.3938757
v -1.3313112 0.34580088 -0.40040225
v -1.2638702 0.4415238 -0.4613168
v -1.2747476 0.41324198 -0.4308595
v -1.2899764 0.4415238 -0.44391263
v -1.2442904 0.41324198 -0.44826367
v -1.2660456 0.3784337 -0.428684
v -1.2464659 0.4415238 -0.48742303
v -1.2334127 0.3784337 -0.44391263
v -1.2595191 0.34362543 -0.428684
v -1.2225353 0.34362543 -0.44173712
v -1.2268863 0.41324198 -0.47872093
v -1.2160087 0.3784337 -0.47654542
v -1.205131 0.34144986 -0.4743699
v -1.2225353 0.41106653 -0.52440685
v -1.2377639 0.4415238 -0.53310895
v -1.2203597 0.36973166 -0.5200558
v -1.2203597 0.33057225 -0.52440685
v -1.309556 0.34580088 -0.39170018
v -1.3313112 0.34580088 -0.40040225
v -1.3313112 0.37625825 -0.40040225
v -1.309556 0.3784337 -0.38734913
v -1.2682211 0.38060927 -0.40475327
v -1.2638702 0.34580088 -0.41127983
v -1.3160825 0.41541755 -0.39170018
v -1.3334868 0.41541755 -0.40475327
v -1.3421888 0.4415238 -0.42433295
v -1.2899764 0.4415238 -0.44391263
v -1.2769232 0.41541755 -0.40910432
v -1.2747476 0.41324198 -0.4308595
v -1.2660456 0.3784337 -0.428684
v -1.2595191 0.34362543 -0.428684
v -1.1420411 0.31969464 -0.39170018
v -1.13769 0.2065677 -0.39170018
v -1.1333389 0.2935884 -0.38517362
v -1.1094083 0.24572706 -0.36776945
v -1.1028817 0.20439214 -0.36994496
v -1.0898286 0.21744525 -0.35254082
v -1.0724244 0.20221663 -0.34383875
v -1.0158609 0.4415238 -0.77024055
v -0.98540366 0.4067155 -0.77024055
v -0.9984567 0.4067155 -0.7332567
v -1.028914 0.4415238 -0.7397833
v -1.0180365 0.4067155 -0.6788687
v -1.0528448 0.4415238 -0.69192183
v -1.0506692 0.4415238 -0.63753384
v -1.0158609 0.4067155 -0.6201297
v -0.9984567 0.3610295 -0.6788687
v -1.0006323 0.3610295 -0.6157787
v -1.0223875 0.3610295 -0.57879484
v -1.0376161 0.4067155 -0.57879484
v -1.0767754 0.4415238 -0.59402347
v -1.0767754 0.3610295 -0.5309334
v -1.083302 0.40889096 -0.53528446
v -1.1181103 0.4415238 -0.5766193
v -1.1007062 0.41324198 -0.52223134
v -1.1703228 0.4415238 -0.54398656
v -1.1181103 0.40889096 -0.5309334
v -1.1137593 0.36320508 -0.5309334
v -1.0941796 0.3610295 -0.52223134
v -1.1289879 0.32622123 -0.5200558
v -1.0767754 0.32404578 -0.5309334
v -0.99628127 0.3218702 -0.5635662
v -0.9941057 0.35232747 -0.57009274
v -1.0223875 0.3610295 -0.57879484
v -0.9941057 0.35232747 -0.57009274
v -1.0767754 0.3610295 -0.5309334
v -0.9984567 0.35450304 -0.60055006
v -1.0006323 0.3610295 -0.6157787
v -0.97452605 0.35450304 -0.6223052
v -0.9984567 0.3610295 -0.6788687
v -0.9418932 0.34580088 -0.6223052
v -0.9092605 0.34580088 -0.65711355
v -0.94624424 0.3610295 -0.72455466
v -0.89403176 0.34580088 -0.7376078
v -0.92884016 0.3610295 -0.77024055
v -0.88968074 0.34580088 -0.77024055
v -0.93971777 0.31969464 -0.5200558
v -0.9310156 0.2065677 -0.52223134
v -1.13769 0.2065677 -0.39170018
v -1.1420411 0.31969464 -0.39170018
v -0.9310156 0.2065677 -0.52223134
v -1.1028817 0.20439214 -0.36994496
v -1.13769 0.2065677 -0.39170018
v -0.9092605 0.2065677 -0.5178803
v -0.90708494 0.19351459 -0.4656678
v -1.0724244 0.20221663 -0.34383875
v -0.915787 0.186988 -0.40040225
v -1.0310895 0.19351459 -0.32425907
v -1.0093343 0.186988 -0.3090304
v -0.82223964 0.186988 -0.52223134
v -0.85487247 0.186988 -0.36994496
v -0.88968074 0.2065677 -0.5396355
v -0.8918563 0.2065677 -0.5548641
v -0.8701011 0.2065677 -0.5744438
v -0.8418194 0.2065677 -0.60272557
v -0.88968074 0.186988 -0.3394877
v -0.90055835 0.186988 -0.3286101
v -0.915787 0.186988 -0.2959773
v -0.91143596 0.186988 -0.26116902
v -0.93536663 0.186988 -0.23288727
v -1.0158609 0.186988 -0.28945076
v -0.7787293 0.186988 -0.5548641
v -0.7395699 0.186988 -0.58967245
v -0.8287662 0.2065677 -0.6157787
v -0.8200642 0.2065677 -0.6310073
v -0.7243413 0.186988 -0.6310073
v -0.8178886 0.2065677 -0.6636401
v -0.80266 0.2065677 -0.6788687
v -0.7439209 0.186988 -0.5178803
v -0.6830064 0.186988 -0.69409734
v -0.7961334 0.2065677 -0.7006239
v -0.7787293 0.2065677 -0.7289057
v -0.7678517 0.186988 -0.4961251
v -0.68083096 0.186988 -0.52658236
v -0.60686326 0.186988 -0.5874969
v -0.6264429 0.186988 -0.5548641
v -0.65907574 0.186988 -0.70715046
v -0.67647994 0.186988 -0.72455466
v -0.7743783 0.2065677 -0.7484853
v -0.7112882 0.19351459 -0.76153845
v -0.7221658 0.1956901 -0.77024055
v -0.7221658 0.1956901 -0.77024055
v -0.7787293 0.2065677 -0.77024055
v -0.59163463 0.186988 -0.63970935
v -0.55682635 0.186988 -0.5766193
v -0.55682635 0.186988 -0.6049011
v -0.55029976 0.186988 -0.58097035
v -0.55029976 0.186988 -0.596199
v -0.55029976 0.186988 -0.5744438
v -0.55682635 0.18263698 -0.5635662
v -0.55029976 0.18263698 -0.5613907
v -0.55029976 0.18263698 -0.5592152
v -0.55029976 0.18046147 -0.5592152
v -0.5590018 0.17393488 -0.5526886
v -0.55029976 0.17175937 -0.5483376
v -0.572055 0.16088176 -0.546162
v -0.55029976 0.16088176 -0.54398656
v -0.59598565 0.16740835 -0.5744438
v -0.5655284 0.1304245 -0.52658236
v -0.55029976 0.1391266 -0.52875787
v -0.55029976 0.1304245 -0.52658236
v -0.5611774 0.07168549 -0.5200558
v -0.55029976 0.08473861 -0.5200558
v -0.55029976 0.07168549 -0.51570475
v -0.61774087 0.16523284 -0.54398656
v -0.6721288 0.16305727 -0.51570475
v -0.7286923 0.16305727 -0.50482714
v -0.75479853 0.16088176 -0.48959854
v -0.7569741 0.18263698 -0.45914125
v -0.7460965 0.15870625 -0.4656678
v -0.7439209 0.15653074 -0.44826367
v -0.7417455 0.16088176 -0.41998193
v -0.73739445 0.14565313 -0.4395616
v -0.79830897 0.16305727 -0.374296
v -0.7221658 0.14782864 -0.41998193
v -0.689533 0.1391266 -0.4178064
v -0.68083096 0.15000415 -0.45043918
v -0.6481981 0.14130211 -0.428684
v -0.64167154 0.15217972 -0.4634923
v -0.70911264 0.13260001 -0.4069288
v -0.7178148 0.14130211 -0.38734913
v -0.6656023 0.08691412 -0.3634184
v -0.6786554 0.12824899 -0.4069288
v -0.68083096 0.08038753 -0.39170018
v -0.81571317 0.15435523 -0.3612429
v -0.7743783 0.14347762 -0.34383875
v -0.85052145 0.15435523 -0.35254082
v -0.88968074 0.186988 -0.3394877
v -0.8875053 0.15217972 -0.3177325
v -0.90055835 0.186988 -0.3286101
v -0.89403176 0.15653074 -0.31338146
v -0.89403176 0.13260001 -0.2959773
v -0.8178886 0.12824899 -0.33513665
v -0.7896069 0.13695103 -0.33296114
v -0.7569741 0.09126514 -0.29380178
v -0.8200642 0.07168549 -0.29815283
v -0.79830897 -0.000106692314 -0.2720466
v -0.77220273 -0.000106692314 -0.25246692
v -0.73304343 0.09779173 -0.3068549
v -0.7069372 0.058632374 -0.24376482
v -0.68083096 0.09779173 -0.34601426
v -0.61338985 0.058632374 -0.31555697
v -0.73739445 0.052105784 -0.2394138
v -0.73739445 0.010770917 -0.16544616
v -0.73739445 0.008595407 -0.16544616
v -0.7112882 0.028175116 -0.18937683
v -0.7004106 0.034701645 -0.20025444
v -0.65907574 0.036877155 -0.2394138
v -0.60903883 0.041228175 -0.28509971
v -0.580757 0.039052665 -0.31338146
v -0.5698794 0.032526135 -0.32208353
v -0.6003367 0.049930274 -0.33078563
v -0.55682635 0.023824036 -0.33513665
v -0.55029976 0.008595407 -0.3394877
v -0.6220919 0.004244387 -0.35689184
v -0.6286185 0.006419897 -0.37864706
v -0.6547247 0.08256304 -0.3982267
v -0.6307939 0.045579255 -0.3960512
v -0.6438471 0.12824899 -0.42215744
v -0.6329695 0.08473861 -0.41345537
v -0.6155653 0.056456864 -0.40475327
v -0.6373205 0.12824899 -0.41998193
v -0.6438471 0.12824899 -0.42215744
v -0.6329695 0.08473861 -0.41345537
v -0.6220919 0.08473861 -0.41563088
v -0.6155653 0.056456864 -0.40475327
v -0.60686326 0.06298339 -0.4178064
v -0.6112143 0.08256304 -0.428684
v -0.61774087 0.13260001 -0.4395616
v -0.62426746 0.14565313 -0.44826367
v -0.61774087 0.14565313 -0.44826367
v -0.61774087 0.13260001 -0.4395616
v -0.60686326 0.15217972 -0.4634923
v -0.6329695 0.15217972 -0.48089647
v -0.60903883 0.15217972 -0.47001886
v -0.5981612 0.13695103 -0.4634923
v -0.60903883 0.13477552 -0.43738607
v -0.6112143 0.08256304 -0.428684
v -0.59598565 0.1391266 -0.45479023
v -0.58510804 0.08473861 -0.44826367
v -0.5872836 0.08038753 -0.45479023
v -0.5981612 0.08691412 -0.42215744
v -0.60686326 0.06298339 -0.4178064
v -0.580757 0.010770917 -0.4395616
v -0.58510804 0.010770917 -0.44608814
v -0.58945906 0.010770917 -0.41998193
v -0.59598565 0.06298339 -0.41345537
v -0.60686326 0.054281294 -0.40040225
v -0.6155653 0.056456864 -0.40475327
v -0.61338985 0.008595407 -0.3982267
v -0.6199163 0.043403745 -0.38952464
v -0.6307939 0.045579255 -0.3960512
v -0.6286185 0.006419897 -0.37864706
v -0.9592974 0.4067155 -0.77024055
v -0.92884016 0.3610295 -0.77024055
v -0.94624424 0.3610295 -0.72455466
v -0.9723505 0.4067155 -0.72673017
v -0.98540366 0.4067155 -0.77024055
v -0.9984567 0.3610295 -0.6788687
v -0.9984567 0.4067155 -0.7332567
v -1.0180365 0.4067155 -0.6788687
v -0.9092605 0.34580088 -0.65711355
v -0.92884016 0.31969464 -0.6223052
v -0.9418932 0.34580088 -0.6223052
v -0.9027339 0.31969464 -0.6527625
v -0.8875053 0.31969464 -0.7332567
v -0.89403176 0.34580088 -0.7376078
v -0.8831543 0.31969464 -0.77024055
v -0.88968074 0.34580088 -0.77024055
v -0.9049094 0.25878012 -0.5592152
v -0.9092605 0.31316817 -0.54398656
v -0.91361153 0.31969464 -0.5570396
v -0.90055835 0.2609557 -0.54398656
v -0.88968074 0.2065677 -0.5396355
v -0.8918563 0.2065677 -0.5548641
v -0.9092605 0.2065677 -0.5178803
v -0.91796255 0.2609557 -0.51352924
v -0.9266646 0.31316817 -0.51570475
v -0.9310156 0.2065677 -0.52223134
v -0.93971777 0.31969464 -0.5200558
v -0.92884016 0.31969464 -0.59184796
v -0.9418932 0.34580088 -0.6223052
v -0.92884016 0.31969464 -0.6223052
v -0.93971777 0.35015202 -0.59184796
v -0.93971777 0.31969464 -0.57226825
v -0.95712185 0.36973166 -0.6049011
v -0.97452605 0.35450304 -0.6223052
v -0.9484198 0.35015202 -0.57879484
v -0.97887707 0.36973166 -0.5853214
v -0.9984567 0.35450304 -0.60055006
v -0.9941057 0.35232747 -0.57009274
v -0.965824 0.35015202 -0.5679172
v -0.96799946 0.31969464 -0.5592152
v -0.99628127 0.3218702 -0.5635662
v -0.91361153 0.31969464 -0.5570396
v -0.90708494 0.31969464 -0.5766193
v -0.9049094 0.31534362 -0.5766193
v -0.90055835 0.31969464 -0.58967245
v -0.8983829 0.30229056 -0.58967245
v -0.8875053 0.31969464 -0.6114276
v -0.8853297 0.2935884 -0.6092521
v -0.8831543 0.29793954 -0.6136031
v -0.86792564 0.31969464 -0.6244807
v -0.86792564 0.300115 -0.6201297
v -0.8701011 0.300115 -0.6266563
v -0.8635745 0.28488636 -0.6223052
v -0.86792564 0.28488636 -0.6266563
v -0.8831543 0.29793954 -0.6136031
v -0.8635745 0.2544291 -0.6179542
v -0.8635745 0.25225353 -0.6223052
v -0.8744521 0.28923738 -0.6070766
v -0.8853297 0.2935884 -0.6092521
v -0.8701011 0.2544291 -0.6092521
v -0.8592235 0.2370249 -0.6201297
v -0.86139905 0.2370249 -0.6223052
v -0.8483459 0.23049843 -0.6223052
v -0.8766277 0.28706193 -0.60272557
v -0.86792564 0.23484945 -0.6092521
v -0.88968074 0.2935884 -0.58314586
v -0.8983829 0.30229056 -0.58967245
v -0.8853297 0.24790251 -0.58314586
v -0.8418194 0.2065677 -0.60272557
v -0.8701011 0.2065677 -0.5744438
v -0.8287662 0.2065677 -0.6157787
v -0.8918563 0.2065677 -0.5548641
v -0.8200642 0.2065677 -0.6310073
v -0.8483459 0.2435515 -0.63535833
v -0.8918563 0.25660467 -0.5570396
v -0.9049094 0.25878012 -0.5592152
v -0.8983829 0.3109926 -0.57226825
v -0.9049094 0.31534362 -0.5766193
v -0.90708494 0.31316817 -0.5570396
v -0.91361153 0.31969464 -0.5570396
v -0.85704803 0.2370249 -0.6244807
v -0.86139905 0.2370249 -0.6223052
v -0.85704803 0.25225353 -0.6244807
v -0.8635745 0.25225353 -0.6223052
v -0.86139905 0.28488636 -0.6266563
v -0.86792564 0.28488636 -0.6266563
v -0.85052145 0.25660467 -0.63753384
v -0.86139905 0.29793954 -0.6288318
v -0.8701011 0.300115 -0.6266563
v -0.86792564 0.31969464 -0.6244807
v -0.86139905 0.31969464 -0.63970935
v -0.85704803 0.28706193 -0.63535833
v -0.8592235 0.300115 -0.63535833
v -0.8657501 0.29793954 -0.63753384
v -0.86139905 0.28488636 -0.63970935
v -0.85487247 0.25660467 -0.6418849
v -0.8461704 0.23484945 -0.65928906
v -0.8178886 0.2065677 -0.6636401
v -0.85052145 0.25660467 -0.64406043
v -0.85487247 0.25660467 -0.6418849
v -0.85704803 0.28488636 -0.64406043
v -0.86139905 0.28488636 -0.63970935
v -0.8592235 0.300115 -0.63970935
v -0.8657501 0.29793954 -0.63753384
v -0.86139905 0.31969464 -0.63970935
v -0.85704803 0.31969464 -0.66799116
v -0.8526969 0.29793954 -0.6701667
v -0.85052145 0.2827109 -0.6701667
v -0.8592235 0.31316817 -0.6745177
v -0.85704803 0.31969464 -0.6723422
v -0.85704803 0.29793954 -0.6766932
v -0.85487247 0.28053534 -0.6766932
v -0.8526969 0.2544291 -0.6701667
v -0.8483459 0.2544291 -0.6636401
v -0.85052145 0.23484945 -0.66799116
v -0.84399486 0.2370249 -0.6745177
v -0.83746827 0.23920047 -0.6897463
v -0.80266 0.2065677 -0.6788687
v -0.8461704 0.2544291 -0.6701667
v -0.8526969 0.2544291 -0.6701667
v -0.84399486 0.2653067 -0.6766932
v -0.8461704 0.28053534 -0.6766932
v -0.85487247 0.28053534 -0.6766932
v -0.8483459 0.28706193 -0.6766932
v -0.84399486 0.2653067 -0.6766932
v -0.8526969 0.29141295 -0.6788687
v -0.85704803 0.29793954 -0.6766932
v -0.84399486 0.2935884 -0.69192183
v -0.83964384 0.28706193 -0.6897463
v -0.8418194 0.28488636 -0.69192183
v -0.83746827 0.28053534 -0.69192183
v -0.8483459 0.300115 -0.6766932
v -0.84399486 0.2935884 -0.69192183
v -0.8592235 0.31316817 -0.6745177
v -0.83964384 0.300115 -0.6897463
v -0.83964384 0.2935884 -0.70497495
v -0.8352928 0.28053534 -0.6875708
v -0.83746827 0.2653067 -0.6897463
v -0.83964384 0.2653067 -0.69192183
v -0.8418194 0.28053534 -0.6766932
v -0.8483459 0.28706193 -0.6766932
v -0.8461704 0.28053534 -0.6766932
v -0.8418194 0.26313114 -0.69192183
v -0.8309418 0.2653067 -0.70497495
v -0.83746827 0.28053534 -0.69192183
v -0.83964384 0.23920047 -0.69192183
v -0.83311725 0.26313114 -0.70715046
v -0.83311725 0.28053534 -0.70497495
v -0.8418194 0.28488636 -0.69192183
v -0.83311725 0.28706193 -0.70279944
v -0.8352928 0.2827109 -0.71150154
v -0.83311725 0.26313114 -0.709326
v -0.8352928 0.23920047 -0.69409734
v -0.83746827 0.2609557 -0.69409734
v -0.8418194 0.26313114 -0.69192183
v -0.83311725 0.26313114 -0.70715046
v -0.8287662 0.24137604 -0.70715046
v -0.7961334 0.2065677 -0.7006239
v -0.8309418 0.2609557 -0.70497495
v -0.83311725 0.26313114 -0.709326
v -0.8309418 0.23920047 -0.709326
v -0.81571317 0.2370249 -0.7310812
v -0.7787293 0.2065677 -0.7289057
v -0.8178886 0.25878012 -0.7310812
v -0.811362 0.23484945 -0.7484853
v -0.7743783 0.2065677 -0.7484853
v -0.7787293 0.2065677 -0.77024055
v -0.811362 0.23484945 -0.77024055
v -0.8135376 0.25878012 -0.77024055
v -0.81571317 0.25878012 -0.7484853
v -0.8178886 0.28053534 -0.77024055
v -0.8265908 0.28053534 -0.7310812
v -0.82223964 0.2827109 -0.7506609
v -0.8244152 0.28923738 -0.77024055
v -0.8265908 0.28923738 -0.7506609
v -0.8309418 0.28488636 -0.7310812
v -0.83964384 0.29141295 -0.71367705
v -0.83964384 0.2935884 -0.70497495
v -0.8418194 0.28488636 -0.69192183
v -0.84399486 0.2935884 -0.69192183
v -0.85704803 0.31969464 -0.6723422
v -0.8592235 0.31969464 -0.6766932
v -0.85052145 0.3175192 -0.6766932
v -0.8483459 0.31969464 -0.69192183
v -0.8418194 0.31969464 -0.6875708
v -0.84399486 0.31969464 -0.70497495
v -0.8352928 0.31969464 -0.70497495
v -0.8418194 0.31969464 -0.71367705
v -0.83311725 0.30229056 -0.70497495
v -0.8352928 0.29793954 -0.71367705
v -0.83964384 0.29141295 -0.71367705
v -0.8309418 0.31969464 -0.7289057
v -0.8265908 0.29576397 -0.7289057
v -0.8309418 0.28488636 -0.7310812
v -0.8265908 0.28923738 -0.7506609
v -0.8200642 0.29793954 -0.7506609
v -0.8244152 0.31969464 -0.7528364
v -0.8265908 0.31969464 -0.77024055
v -0.82223964 0.2935884 -0.77024055
v -0.8244152 0.28923738 -0.77024055
v -0.91361153 0.15653074 -0.27857316
v -0.91143596 0.186988 -0.26116902
v -0.915787 0.186988 -0.2959773
v -0.9092605 0.15870625 -0.2481159
v -0.93536663 0.186988 -0.23288727
v -0.92448914 0.15653074 -0.23288727
v -0.9092605 0.13260001 -0.26552004
v -0.9092605 0.1217224 -0.23723829
v -0.90708494 0.11737138 -0.26116902
v -0.92448914 0.15653074 -0.23288727
v -0.91361153 0.1217224 -0.23288727
v -0.685182 0.16088176 -0.45696574
v -0.7439209 0.15653074 -0.44826367
v -0.7460965 0.15870625 -0.4656678
v -0.75479853 0.16088176 -0.48959854
v -0.7286923 0.16305727 -0.50482714
v -0.6721288 0.16305727 -0.51570475
v -0.64602256 0.16305727 -0.47219437
v -0.6394961 0.16088176 -0.49177405
v -0.61774087 0.16523284 -0.54398656
v -0.5981612 0.16305727 -0.51135373
v -0.6155653 0.16088176 -0.47872093
v -0.58510804 0.16523284 -0.48959854
v -0.572055 0.16305727 -0.5091782
v -0.572055 0.16088176 -0.546162
v -0.59598565 0.16740835 -0.5744438
v -0.685182 0.16088176 -0.45696574
v -0.73739445 0.14565313 -0.4395616
v -0.7439209 0.15653074 -0.44826367
v -0.68083096 0.15000415 -0.45043918
v -0.64602256 0.16305727 -0.47219437
v -0.64167154 0.15217972 -0.4634923
v -0.6329695 0.15217972 -0.48089647
v -0.6394961 0.16088176 -0.49177405
v -0.80483556 -0.000106692314 -0.25681794
v -0.79830897 -0.000106692314 -0.2720466
v -0.77220273 -0.000106692314 -0.25246692
v -0.7961334 -0.0022822022 -0.20460552
v -0.82223964 -0.000106692314 -0.23288727
v -0.83311725 -0.000106692314 -0.24376482
v -0.84399486 -0.000106692314 -0.23506278
v -0.8483459 -0.000106692314 -0.2502914
v -0.8483459 -0.000106692314 -0.23288727
v -0.7504475 0.006419897 -0.15456855
v -0.7961334 -0.0022822022 -0.20460552
v -0.6155653 0.16088176 -0.47872093
v -0.6329695 0.15217972 -0.48089647
v -0.6394961 0.16088176 -0.49177405
v -0.60903883 0.15217972 -0.47001886
v -0.58510804 0.16523284 -0.48959854
v -0.57858145 0.15435523 -0.48307198
v -0.5981612 0.13695103 -0.4634923
v -0.56770396 0.15217972 -0.5004761
v -0.572055 0.16305727 -0.5091782
v -0.572055 0.16088176 -0.546162
v -0.5655284 0.1304245 -0.52658236
v -0.576406 0.13695103 -0.47654542
v -0.5872836 0.08038753 -0.45479023
v -0.56770396 0.13477552 -0.4961251
v -0.56770396 0.07821202 -0.47001886
v -0.58510804 0.010770917 -0.44608814
v -0.5633528 0.012946427 -0.46784335
v -0.5633528 0.07603651 -0.49177405
v -0.5611774 0.07168549 -0.5200558
v -0.55682635 0.012946427 -0.48959854
v -0.55682635 0.010770917 -0.5026517
v -0.6220919 0.004244387 -0.35689184
v -0.6286185 0.006419897 -0.37864706
v -0.61338985 0.008595407 -0.3982267
v -0.55029976 0.008595407 -0.35036528
v -0.55029976 0.008595407 -0.3394877
v -0.55029976 0.008595407 -0.3416632
v -0.55029976 0.008595407 -0.3612429
v -0.58945906 0.010770917 -0.41998193
v -0.55029976 0.010770917 -0.3960512
v -0.55029976 0.012946427 -0.4308595
v -0.55029976 0.012946427 -0.4395616
v -0.580757 0.010770917 -0.4395616
v -0.55029976 0.012946427 -0.4613168
v -0.5633528 0.012946427 -0.46784335
v -0.58510804 0.010770917 -0.44608814
v -0.55029976 0.012946427 -0.46784335
v -0.55029976 0.012946427 -0.4852475
v -0.55682635 0.012946427 -0.48959854
v -0.55029976 0.012946427 -0.4961251
v -0.55682635 0.010770917 -0.5026517
v -0.5611774 0.07168549 -0.5200558
v -0.55029976 0.07168549 -0.51570475
v -0.55029976 0.06950998 -0.51352924
v -0.55682635 0.010770917 -0.5026517
v -0.55029976 0.019473016 -0.5004761
v -0.55029976 0.012946427 -0.4961251
v -0.8809787 0.060807884 -0.23288727
v -0.84399486 -0.000106692314 -0.23506278
v -0.8483459 -0.000106692314 -0.23288727
v -0.8657501 0.058632374 -0.24594039
v -0.8483459 -0.000106692314 -0.2502914
v -0.8918563 0.08038753 -0.23288727
v -0.8635745 0.06298339 -0.25464243
v -0.8809787 0.11084485 -0.26116902
v -0.8831543 0.11519587 -0.27857316
v -0.8918563 0.11302036 -0.2742221
v -0.90055835 0.11737138 -0.25681794
v -0.89620733 0.11084485 -0.24376482
v -0.90708494 0.11737138 -0.26116902
v -0.90055835 0.06950998 -0.23288727
v -0.8918563 0.08038753 -0.23288727
v -1.0202119 0.19351459 -0.29380178
v -1.0093343 0.186988 -0.3090304
v -1.0158609 0.186988 -0.28945076
v -1.0180365 0.19351459 -0.30250385
v -1.0310895 0.19351459 -0.32425907
v -1.0376161 0.20874321 -0.31555697
v -1.0419672 0.20874321 -0.3090304
v -1.0202119 0.19351459 -0.29380178
v -1.0658978 0.21526974 -0.3286101
v -1.0724244 0.20221663 -0.34383875
v -1.0419672 0.20874321 -0.3090304
v -1.0658978 0.21526974 -0.32643458
v -1.0898286 0.21744525 -0.35254082
v -1.0658978 0.21526974 -0.32643458
v -1.0920041 0.21962082 -0.34601426
v -1.0920041 0.21962082 -0.34601426
v -1.1137593 0.24572706 -0.3612429
v -1.1094083 0.24572706 -0.36776945
v -1.1333389 0.2935884 -0.38517362
v -1.1094083 0.24572706 -0.36776945
v -1.1137593 0.24572706 -0.3612429
v -1.1289879 0.27835977 -0.374296
v -1.1289879 0.27835977 -0.374296
v -1.1529186 0.30664158 -0.374296
v -0.9092605 0.13260001 -0.26552004
v -0.89620733 0.12824899 -0.2589935
v -0.90708494 0.11737138 -0.26116902
v -0.90055835 0.11737138 -0.25681794
v -0.8918563 0.11302036 -0.2742221
v -0.8983829 0.15870625 -0.2720466
v -0.91361153 0.15653074 -0.27857316
v -0.88968074 0.12824899 -0.2720466
v -0.89403176 0.13260001 -0.2959773
v -0.8853297 0.15870625 -0.29380178
v -0.89403176 0.15653074 -0.31338146
v -0.90708494 0.17828596 -0.28945076
v -0.915787 0.186988 -0.2959773
v -0.89620733 0.18046147 -0.3090304
v -0.90055835 0.186988 -0.3286101
v -0.79830897 -0.000106692314 -0.2720466
v -0.80483556 -0.000106692314 -0.25681794
v -0.8200642 0.06950998 -0.2742221
v -0.8200642 0.07168549 -0.29815283
v -0.83311725 -0.000106692314 -0.24376482
v -0.8200642 0.1304245 -0.30032834
v -0.8178886 0.12824899 -0.33513665
v -0.85052145 0.15435523 -0.35254082
v -0.8875053 0.15217972 -0.3177325
v -0.85704803 0.1304245 -0.26987106
v -0.89403176 0.13260001 -0.2959773
v -0.8831543 0.11519587 -0.27857316
v -0.8483459 0.06950998 -0.2502914
v -0.8483459 -0.000106692314 -0.2502914
v -0.8635745 0.06298339 -0.25464243
v -1.2203597 0.33057225 -0.52440685
v -1.2203597 0.36973166 -0.5200558
v -1.196429 0.3675561 -0.5026517
v -1.1790248 0.3283968 -0.5091782
v -1.2225353 0.41106653 -0.52440685
v -1.1398655 0.36538064 -0.5178803
v -1.1289879 0.32622123 -0.5200558
v -1.1137593 0.36320508 -0.5309334
v -1.1181103 0.40889096 -0.5309334
v -1.1398655 0.40889096 -0.5178803
v -1.1703228 0.4415238 -0.54398656
v -1.1942534 0.41106653 -0.5070027
v -1.2377639 0.4415238 -0.53310895
v -1.2073066 0.4415238 -0.53528446
vt 0.20791551 0.66887295
vt 0.20791551 0.6843673
vt 0.21178912 0.67274654
vt 0.19629474 0.649505
vt 0.19629474 0.6611258
vt 0.20404193 0.6378842
vt 0.19629474 0.649505
vt 0.19242115 0.6533786
vt 0.19242115 0.6533786
vt 0.10332853 0.7695863
vt 0.118822895 0.78508073
vt 0.11494931 0.7695863
vt 0.10720212 0.8431846
vt 0.118822895 0.8470582
vt 0.13431728 0.85867894
vt 0.095581345 0.82769024
vt 0.09945494 0.8431846
vt 0.09170776 0.80832225
vt 0.10332853 0.7695863
vt 0.07621339 0.8005751
vt 0.08396057 0.7734599
vt 0.072339796 0.7928279
vt 0.1691796 0.8625525
vt 0.15368523 0.87804693
vt 0.16143242 0.87804693
vt 0.17692679 0.8819205
vt 0.1691796 0.8896677
vt 0.17692679 0.87417334
vt 0.17305319 0.8625525
vt 0.17692679 0.8896677
vt 0.17305319 0.90128845
vt 0.18080038 0.89741486
vt 0.17692679 0.91678286
vt 0.18854757 0.9090357
vt 0.18854757 0.9322772
vt 0.19629474 0.91678286
vt 0.20016834 0.92453
vt 0.20404193 0.9400244
vt 0.20404193 0.94389796
vt 0.20404193 0.94777155
vt 0.20791551 0.9555188
vt 0.20016834 0.9748867
vt 0.21178912 0.96326596
vt 0.21178912 0.96713954
vt 0.2156627 0.9748867
vt 0.21953629 0.9865075
vt 0.20404193 0.99425465
vt 0.22340989 0.99425465
vt 0.072339796 0.7695863
vt 0.08396057 0.7734599
vt 0.056845427 0.78120714
vt 0.072339796 0.7695863
vt 0.06071902 0.7695863
vt 0.056845427 0.7695863
vt 0.04522465 0.76571274
vt 0.049098246 0.78120714
vt 0.025856692 0.7734599
vt 0.033603877 0.76571274
vt 0.033603877 0.76571274
vt 0.029730286 0.76183915
vt 0.029730286 0.76183915
vt 0.01810951 0.76183915
vt 0.006488734 0.76183915
vt 0.006488734 0.7695863
vt 0.01810951 0.76183915
vt 0.006488734 0.76183915
vt 0.006488734 0.75796556
vt 0.006488734 0.76183915
vt 0.006488734 0.76183915
vt 0.006488734 0.8199431
vt 0.006488734 0.89741486
vt 0.021983102 0.8199431
vt 0.04135106 0.82769024
vt 0.056845427 0.8354374
vt 0.064592615 0.8431846
vt 0.072339796 0.85480535
vt 0.07621339 0.87417334
vt 0.06846621 0.99425465
vt 0.087834165 0.8819205
vt 0.09945494 0.8857941
vt 0.11494931 0.90516204
vt 0.12657009 0.91290927
vt 0.13431728 0.9322772
vt 0.13819087 0.95939237
vt 0.14981164 0.9826339
vt 0.16143242 0.99425465
vt 0.021983102 0.8199431
vt 0.006488734 0.80444866
vt 0.006488734 0.8199431
vt 0.025856692 0.80444866
vt 0.04135106 0.81219584
vt 0.04135106 0.82769024
vt 0.025856692 0.7889543
vt 0.006488734 0.78508073
vt 0.04522465 0.7928279
vt 0.025856692 0.7734599
vt 0.006488734 0.7695863
vt 0.049098246 0.78120714
vt 0.064592615 0.8431846
vt 0.064592615 0.82381666
vt 0.056845427 0.8354374
vt 0.072339796 0.83156383
vt 0.072339796 0.81219584
vt 0.072339796 0.85480535
vt 0.08008698 0.8199431
vt 0.07621339 0.8005751
vt 0.09170776 0.80832225
vt 0.08008698 0.8431846
vt 0.087834165 0.8354374
vt 0.095581345 0.82769024
vt 0.087834165 0.8625525
vt 0.07621339 0.87417334
vt 0.095581345 0.8470582
vt 0.09945494 0.8431846
vt 0.056845427 0.78120714
vt 0.049098246 0.78120714
vt 0.04522465 0.7928279
vt 0.052971836 0.7967015
vt 0.064592615 0.80444866
vt 0.072339796 0.7928279
vt 0.049098246 0.80832225
vt 0.04135106 0.81219584
vt 0.04135106 0.82769024
vt 0.056845427 0.8354374
vt 0.06071902 0.8160694
vt 0.064592615 0.82381666
vt 0.072339796 0.81219584
vt 0.07621339 0.8005751
vt 0.118822895 0.78508073
vt 0.14206445 0.754092
vt 0.12269649 0.7695863
vt 0.13431728 0.7502184
vt 0.14593805 0.7463448
vt 0.14593805 0.73859763
vt 0.15368523 0.73472404
vt 0.16143242 0.99425465
vt 0.1691796 0.99425465
vt 0.16143242 0.9787603
vt 0.14981164 0.9826339
vt 0.15368523 0.9516452
vt 0.13819087 0.95939237
vt 0.13431728 0.9322772
vt 0.14593805 0.92453
vt 0.16143242 0.94389796
vt 0.15368523 0.91678286
vt 0.14593805 0.89741486
vt 0.13819087 0.90516204
vt 0.12657009 0.91290927
vt 0.13044368 0.87417334
vt 0.12657009 0.8857941
vt 0.11494931 0.90516204
vt 0.118822895 0.8819205
vt 0.09945494 0.8857941
vt 0.11494931 0.8819205
vt 0.118822895 0.86642617
vt 0.12657009 0.86642617
vt 0.118822895 0.8470582
vt 0.13431728 0.85867894
vt 0.15368523 0.87804693
vt 0.14981164 0.8935413
vt 0.14593805 0.89741486
vt 0.14981164 0.8935413
vt 0.13044368 0.87417334
vt 0.15368523 0.9090357
vt 0.15368523 0.91678286
vt 0.16143242 0.92065644
vt 0.16143242 0.94389796
vt 0.1691796 0.92065644
vt 0.18080038 0.9361508
vt 0.18080038 0.9710131
vt 0.19242115 0.9787603
vt 0.18854757 0.99425465
vt 0.20016834 0.99425465
vt 0.1691796 0.8625525
vt 0.19242115 0.82381666
vt 0.14206445 0.754092
vt 0.118822895 0.78508073
vt 0.19242115 0.82381666
vt 0.14593805 0.7463448
vt 0.14206445 0.754092
vt 0.20016834 0.82381666
vt 0.20016834 0.7967015
vt 0.15368523 0.73472404
vt 0.19629474 0.75796556
vt 0.165306 0.7231032
vt 0.1691796 0.71148247
vt 0.23115706 0.83156383
vt 0.21178912 0.73859763
vt 0.20791551 0.8431846
vt 0.21178912 0.85093176
vt 0.21953629 0.8625525
vt 0.23115706 0.8819205
vt 0.20016834 0.71922964
vt 0.19629474 0.71535605
vt 0.18854757 0.6959881
vt 0.18467396 0.6804937
vt 0.17692679 0.66887295
vt 0.165306 0.7037353
vt 0.24665144 0.85480535
vt 0.26214582 0.87804693
vt 0.23890425 0.8935413
vt 0.24277785 0.90128845
vt 0.269893 0.90516204
vt 0.24665144 0.92453
vt 0.2543986 0.9361508
vt 0.2543986 0.83156383
vt 0.28151378 0.94389796
vt 0.2543986 0.94777155
vt 0.26214582 0.96713954
vt 0.24277785 0.8160694
vt 0.27376658 0.839311
vt 0.29700813 0.87417334
vt 0.28926095 0.85480535
vt 0.28926095 0.9516452
vt 0.28538737 0.96326596
vt 0.26214582 0.9787603
vt 0.27764016 0.9865075
vt 0.27376658 0.99425465
vt 0.27376658 0.99425465
vt 0.26214582 0.99425465
vt 0.30475533 0.9090357
vt 0.3125025 0.87029976
vt 0.3125025 0.8857941
vt 0.3163761 0.87417334
vt 0.3163761 0.8819205
vt 0.3163761 0.87029976
vt 0.3125025 0.85867894
vt 0.3163761 0.85867894
vt 0.3163761 0.85867894
vt 0.3163761 0.85867894
vt 0.3125025 0.85093176
vt 0.3163761 0.8470582
vt 0.30862892 0.839311
vt 0.3163761 0.839311
vt 0.3008817 0.85867894
vt 0.3125025 0.8160694
vt 0.3163761 0.82381666
vt 0.3163761 0.8160694
vt 0.3163761 0.7889543
vt 0.32024968 0.7967015
vt 0.32024968 0.7889543
vt 0.29313454 0.8431846
vt 0.27376658 0.82769024
vt 0.2582722 0.8160694
vt 0.25052503 0.80832225
vt 0.24277785 0.7928279
vt 0.25052503 0.7967015
vt 0.25052503 0.78508073
vt 0.25052503 0.76571274
vt 0.2543986 0.77733356
vt 0.23115706 0.73859763
vt 0.2582722 0.76571274
vt 0.2660194 0.76571274
vt 0.269893 0.78508073
vt 0.27764016 0.77733356
vt 0.28151378 0.7967015
vt 0.26214582 0.754092
vt 0.2582722 0.7424712
vt 0.27376658 0.71922964
vt 0.269893 0.76183915
vt 0.27764016 0.73472404
vt 0.22728348 0.7269768
vt 0.24277785 0.71922964
vt 0.2156627 0.71922964
vt 0.20016834 0.71922964
vt 0.20791551 0.6998617
vt 0.19629474 0.71535605
vt 0.20404193 0.6998617
vt 0.20791551 0.6843673
vt 0.23115706 0.7037353
vt 0.23890425 0.7076089
vt 0.24665144 0.6766201
vt 0.23503067 0.66887295
vt 0.23503067 0.6378842
vt 0.24277785 0.630137
vt 0.2543986 0.68824095
vt 0.26214582 0.649505
vt 0.269893 0.71148247
vt 0.28926095 0.68824095
vt 0.2543986 0.6417578
vt 0.24665144 0.5952747
vt 0.24665144 0.5914011
vt 0.2582722 0.6107691
vt 0.26214582 0.61851627
vt 0.27764016 0.6417578
vt 0.28926095 0.66887295
vt 0.3008817 0.6843673
vt 0.30475533 0.68824095
vt 0.29313454 0.6959881
vt 0.30862892 0.6959881
vt 0.3125025 0.6998617
vt 0.3008817 0.71922964
vt 0.29700813 0.7269768
vt 0.28151378 0.7463448
vt 0.29313454 0.7424712
vt 0.28151378 0.7695863
vt 0.28538737 0.754092
vt 0.29700813 0.7502184
vt 0.28151378 0.7734599
vt 0.28151378 0.7695863
vt 0.28538737 0.754092
vt 0.28926095 0.75796556
vt 0.29700813 0.7502184
vt 0.29700813 0.754092
vt 0.29313454 0.76183915
vt 0.28926095 0.78120714
vt 0.28538737 0.7889543
vt 0.28926095 0.7889543
vt 0.28926095 0.78120714
vt 0.28926095 0.7967015
vt 0.28538737 0.80444866
vt 0.29313454 0.8005751
vt 0.29700813 0.7928279
vt 0.28926095 0.78120714
vt 0.29313454 0.76183915
vt 0.29700813 0.7889543
vt 0.3008817 0.7734599
vt 0.30475533 0.7734599
vt 0.29700813 0.76571274
vt 0.29700813 0.754092
vt 0.3125025 0.7502184
vt 0.3125025 0.754092
vt 0.30862892 0.7424712
vt 0.3008817 0.754092
vt 0.3008817 0.7502184
vt 0.29700813 0.7502184
vt 0.30475533 0.73472404
vt 0.29700813 0.7424712
vt 0.29313454 0.7424712
vt 0.29700813 0.7269768
vt 0.17692679 0.99425465
vt 0.18854757 0.99425465
vt 0.18080038 0.9710131
vt 0.1691796 0.9748867
vt 0.1691796 0.99425465
vt 0.16143242 0.94389796
vt 0.16143242 0.9787603
vt 0.15368523 0.9516452
vt 0.18080038 0.9361508
vt 0.17692679 0.91678286
vt 0.1691796 0.92065644
vt 0.18854757 0.9322772
vt 0.20016834 0.9748867
vt 0.19242115 0.9787603
vt 0.20404193 0.99425465
vt 0.20016834 0.99425465
vt 0.19629474 0.86642617
vt 0.17692679 0.87417334
vt 0.17692679 0.8819205
vt 0.19242115 0.85867894
vt 0.20791551 0.8431846
vt 0.21178912 0.85093176
vt 0.20016834 0.82381666
vt 0.18467396 0.8470582
vt 0.17305319 0.8625525
vt 0.19242115 0.82381666
vt 0.1691796 0.8625525
vt 0.17305319 0.90128845
vt 0.1691796 0.92065644
vt 0.17692679 0.91678286
vt 0.165306 0.90516204
vt 0.1691796 0.8896677
vt 0.16143242 0.9090357
vt 0.16143242 0.92065644
vt 0.165306 0.89741486
vt 0.15755883 0.90128845
vt 0.15368523 0.9090357
vt 0.14981164 0.8935413
vt 0.15755883 0.8935413
vt 0.16143242 0.87804693
vt 0.15368523 0.87804693
vt 0.17692679 0.8819205
vt 0.17692679 0.8896677
vt 0.18080038 0.8896677
vt 0.18080038 0.89741486
vt 0.18854757 0.8935413
vt 0.18854757 0.9090357
vt 0.19629474 0.90128845
vt 0.19629474 0.90516204
vt 0.19629474 0.91678286
vt 0.20016834 0.91290927
vt 0.20016834 0.91290927
vt 0.20404193 0.9090357
vt 0.20404193 0.9090357
vt 0.19629474 0.90516204
vt 0.2156627 0.90128845
vt 0.2156627 0.90128845
vt 0.20016834 0.90128845
vt 0.19629474 0.90128845
vt 0.21178912 0.8935413
vt 0.22340989 0.89741486
vt 0.22340989 0.90128845
vt 0.22728348 0.89741486
vt 0.20016834 0.89741486
vt 0.21953629 0.8896677
vt 0.19242115 0.8896677
vt 0.18854757 0.8935413
vt 0.20791551 0.87804693
vt 0.23115706 0.8819205
vt 0.21953629 0.8625525
vt 0.23890425 0.8935413
vt 0.21178912 0.85093176
vt 0.24277785 0.90128845
vt 0.22728348 0.91290927
vt 0.20016834 0.87029976
vt 0.19629474 0.86642617
vt 0.18467396 0.8857941
vt 0.18080038 0.8896677
vt 0.18080038 0.8819205
vt 0.17692679 0.8819205
vt 0.22340989 0.90128845
vt 0.22340989 0.90128845
vt 0.21953629 0.90516204
vt 0.2156627 0.90128845
vt 0.20791551 0.91290927
vt 0.20404193 0.9090357
vt 0.21953629 0.91290927
vt 0.20404193 0.91678286
vt 0.20016834 0.91290927
vt 0.19629474 0.91678286
vt 0.20016834 0.92453
vt 0.20791551 0.91678286
vt 0.20404193 0.92065644
vt 0.20404193 0.92065644
vt 0.21178912 0.92065644
vt 0.22340989 0.91678286
vt 0.23503067 0.92453
vt 0.24665144 0.92453
vt 0.22340989 0.92065644
vt 0.22340989 0.91678286
vt 0.21178912 0.92453
vt 0.21178912 0.92065644
vt 0.20791551 0.92453
vt 0.20404193 0.92065644
vt 0.20016834 0.92453
vt 0.20404193 0.9400244
vt 0.21178912 0.9400244
vt 0.21953629 0.9361508
vt 0.20791551 0.94389796
vt 0.20404193 0.94389796
vt 0.21178912 0.94389796
vt 0.21953629 0.9400244
vt 0.22728348 0.9322772
vt 0.22728348 0.9284036
vt 0.23503067 0.9284036
vt 0.23503067 0.9322772
vt 0.24277785 0.94389796
vt 0.2543986 0.9361508
vt 0.23115706 0.9361508
vt 0.22728348 0.9322772
vt 0.22728348 0.9400244
vt 0.22340989 0.94389796
vt 0.21953629 0.9400244
vt 0.21953629 0.94389796
vt 0.22728348 0.9400244
vt 0.2156627 0.94389796
vt 0.21178912 0.94389796
vt 0.21953629 0.9516452
vt 0.22340989 0.9516452
vt 0.22340989 0.9516452
vt 0.22728348 0.9516452
vt 0.2156627 0.94777155
vt 0.21953629 0.9516452
vt 0.20791551 0.94389796
vt 0.2156627 0.9516452
vt 0.22340989 0.95939237
vt 0.22728348 0.94777155
vt 0.23115706 0.94777155
vt 0.23115706 0.94777155
vt 0.22340989 0.94389796
vt 0.21953629 0.94389796
vt 0.22340989 0.94389796
vt 0.23503067 0.94777155
vt 0.23503067 0.9555188
vt 0.22728348 0.9516452
vt 0.23890425 0.94389796
vt 0.23503067 0.9555188
vt 0.22728348 0.9555188
vt 0.22340989 0.9516452
vt 0.22728348 0.95939237
vt 0.23115706 0.96326596
vt 0.23503067 0.95939237
vt 0.24277785 0.94389796
vt 0.23503067 0.94777155
vt 0.23503067 0.94777155
vt 0.23503067 0.9555188
vt 0.24277785 0.9516452
vt 0.2543986 0.94777155
vt 0.23890425 0.9555188
vt 0.23503067 0.95939237
vt 0.24277785 0.9555188
vt 0.24665144 0.96713954
vt 0.26214582 0.96713954
vt 0.24277785 0.9710131
vt 0.25052503 0.9787603
vt 0.26214582 0.9787603
vt 0.26214582 0.99425465
vt 0.25052503 0.99425465
vt 0.24277785 0.99425465
vt 0.24277785 0.9826339
vt 0.23890425 0.99425465
vt 0.23115706 0.9748867
vt 0.23503067 0.9826339
vt 0.23503067 0.99425465
vt 0.23115706 0.9826339
vt 0.23115706 0.9748867
vt 0.22728348 0.96326596
vt 0.22340989 0.95939237
vt 0.22340989 0.9516452
vt 0.21953629 0.9516452
vt 0.20404193 0.94389796
vt 0.20404193 0.94777155
vt 0.20791551 0.94777155
vt 0.20791551 0.9555188
vt 0.21178912 0.9555188
vt 0.21178912 0.96326596
vt 0.21178912 0.96326596
vt 0.21178912 0.96713954
vt 0.21953629 0.95939237
vt 0.22340989 0.96326596
vt 0.22728348 0.96326596
vt 0.2156627 0.9748867
vt 0.22728348 0.9748867
vt 0.23115706 0.9748867
vt 0.23115706 0.9826339
vt 0.22728348 0.9865075
vt 0.21953629 0.9865075
vt 0.22340989 0.99425465
vt 0.23115706 0.99425465
vt 0.23503067 0.99425465
vt 0.19242115 0.6804937
vt 0.18467396 0.6804937
vt 0.18854757 0.6959881
vt 0.18467396 0.66887295
vt 0.17692679 0.66887295
vt 0.18467396 0.6611258
vt 0.19629474 0.66887295
vt 0.19242115 0.6533786
vt 0.19629474 0.6611258
vt 0.18467396 0.6611258
vt 0.19242115 0.6533786
vt 0.269893 0.7928279
vt 0.25052503 0.78508073
vt 0.25052503 0.7967015
vt 0.25052503 0.80832225
vt 0.2582722 0.8160694
vt 0.27376658 0.82769024
vt 0.27764016 0.8005751
vt 0.28151378 0.81219584
vt 0.29313454 0.8431846
vt 0.29700813 0.82381666
vt 0.28926095 0.80832225
vt 0.29700813 0.81219584
vt 0.30475533 0.8199431
vt 0.30862892 0.839311
vt 0.3008817 0.85867894
vt 0.269893 0.7928279
vt 0.2543986 0.77733356
vt 0.25052503 0.78508073
vt 0.269893 0.78508073
vt 0.27764016 0.8005751
vt 0.28151378 0.7967015
vt 0.28538737 0.80444866
vt 0.28151378 0.81219584
vt 0.23503067 0.6340106
vt 0.23503067 0.6378842
vt 0.24277785 0.630137
vt 0.23503067 0.6068955
vt 0.23115706 0.62238985
vt 0.22728348 0.62626344
vt 0.22340989 0.62238985
vt 0.22340989 0.62626344
vt 0.22340989 0.62238985
vt 0.24277785 0.5875275
vt 0.23503067 0.6068955
vt 0.28926095 0.80832225
vt 0.28538737 0.80444866
vt 0.28151378 0.81219584
vt 0.29313454 0.8005751
vt 0.29700813 0.81219584
vt 0.3008817 0.80832225
vt 0.29700813 0.7928279
vt 0.30475533 0.81219584
vt 0.30475533 0.8199431
vt 0.30862892 0.839311
vt 0.3125025 0.8160694
vt 0.30475533 0.8005751
vt 0.30475533 0.7734599
vt 0.30862892 0.80444866
vt 0.30862892 0.78120714
vt 0.3125025 0.754092
vt 0.3163761 0.76183915
vt 0.3125025 0.78508073
vt 0.3163761 0.7889543
vt 0.32024968 0.76571274
vt 0.32024968 0.7695863
vt 0.3008817 0.71922964
vt 0.29700813 0.7269768
vt 0.30475533 0.73472404
vt 0.3163761 0.7037353
vt 0.3125025 0.6998617
vt 0.3125025 0.6998617
vt 0.3163761 0.71148247
vt 0.30862892 0.7424712
vt 0.3163761 0.7269768
vt 0.32024968 0.7463448
vt 0.32024968 0.7502184
vt 0.3125025 0.7502184
vt 0.32024968 0.75796556
vt 0.3163761 0.76183915
vt 0.3125025 0.754092
vt 0.32024968 0.76183915
vt 0.32024968 0.76571274
vt 0.32024968 0.76571274
vt 0.32024968 0.7695863
vt 0.32024968 0.7695863
vt 0.3163761 0.7889543
vt 0.32024968 0.7889543
vt 0.32024968 0.7889543
vt 0.32024968 0.7695863
vt 0.32024968 0.7734599
vt 0.32024968 0.7695863
vt 0.21178912 0.6378842
vt 0.22340989 0.62238985
vt 0.22340989 0.62238985
vt 0.2156627 0.6417578
vt 0.22340989 0.62626344
vt 0.20791551 0.64563143
vt 0.2156627 0.649505
vt 0.20791551 0.66499937
vt 0.21178912 0.67274654
vt 0.20791551 0.66887295
vt 0.20016834 0.6611258
vt 0.20404193 0.6572522
vt 0.19629474 0.6611258
vt 0.20404193 0.6378842
vt 0.20791551 0.64563143
vt 0.16143242 0.7076089
vt 0.1691796 0.71148247
vt 0.165306 0.7037353
vt 0.165306 0.71148247
vt 0.165306 0.7231032
vt 0.15755883 0.71922964
vt 0.15755883 0.71535605
vt 0.16143242 0.7076089
vt 0.14981164 0.7269768
vt 0.15368523 0.73472404
vt 0.15755883 0.71535605
vt 0.14981164 0.7269768
vt 0.14593805 0.73859763
vt 0.14981164 0.7269768
vt 0.14206445 0.73472404
vt 0.14206445 0.73472404
vt 0.13044368 0.7463448
vt 0.13431728 0.7502184
vt 0.12269649 0.7695863
vt 0.13431728 0.7502184
vt 0.13044368 0.7463448
vt 0.12269649 0.76183915
vt 0.12269649 0.76183915
vt 0.11494931 0.7695863
vt 0.19629474 0.66887295
vt 0.20016834 0.66887295
vt 0.19629474 0.6611258
vt 0.20016834 0.6611258
vt 0.20791551 0.66887295
vt 0.19629474 0.6804937
vt 0.19242115 0.6804937
vt 0.20404193 0.67274654
vt 0.20791551 0.6843673
vt 0.20016834 0.69211453
vt 0.20404193 0.6998617
vt 0.19242115 0.69211453
vt 0.18854757 0.6959881
vt 0.19629474 0.7037353
vt 0.19629474 0.71535605
vt 0.23503067 0.6378842
vt 0.23503067 0.6340106
vt 0.22728348 0.6611258
vt 0.23503067 0.66887295
vt 0.22728348 0.62626344
vt 0.22340989 0.68824095
vt 0.23115706 0.7037353
vt 0.2156627 0.71922964
vt 0.20791551 0.6998617
vt 0.2156627 0.6766201
vt 0.20791551 0.6843673
vt 0.21178912 0.67274654
vt 0.21953629 0.6533786
vt 0.22340989 0.62626344
vt 0.2156627 0.649505
vt 0.09945494 0.8431846
vt 0.095581345 0.8470582
vt 0.09945494 0.85093176
vt 0.10720212 0.8431846
vt 0.087834165 0.8625525
vt 0.11494931 0.85867894
vt 0.118822895 0.8470582
vt 0.118822895 0.86642617
vt 0.11494931 0.8819205
vt 0.10720212 0.87417334
vt 0.09945494 0.8857941
vt 0.095581345 0.86642617
vt 0.07621339 0.87417334
vt 0.087834165 0.8819205
vn 0.17315686 0.7462611 0.64273715
vn 0.17315686 0.7462611 0.64273715
vn 0.17315686 0.7462611 0.64273715
vn 0.96575856 -0.014636517 -0.25902927
vn 0.96575856 0.017067552 -0.25888047
vn 0.96575856 -0.014636517 -0.25902927
vn 0.29594967 0.9552035 -0
vn 0.26702237 0.9636903 -0
vn 0.26702237 0.9636903 -0
vn 0.58530974 0.4609245 0.66705406
vn 0.17315686 0.9681896 0.18062562
vn 0.58530974 0.4609245 0.66705406
vn 0.17063554 0.9853343 -0
vn 0.04629582 0.99892783 -0
vn 0.014636506 0.99989295 -0
vn 0.29594967 0.9552035 -0
vn 0.14145279 0.9681896 -0.20639762
vn 0.20486093 0.9681896 0.14366944
vn 0.236565 0.9681896 0.0815225
vn 0.17315686 0.9681896 -0.18062562
vn 0.236565 0.9681896 -0.0815225
vn 0.14007312 0.9901411 -0
vn 0.04629582 0.99892783 -0
vn 0.014636506 0.99989295 -0
vn 0.014636506 0.99989295 -0
vn 0.07781628 0.99696773 -0
vn 0.014636506 0.99989295 -0
vn 0.4267894 0.8730774 0.2357683
vn 0.4267894 0.8730774 0.2357683
vn 0.014636506 0.99989295 -0
vn 0.014636506 0.99989295 -0
vn 0.014636506 0.99989295 -0
vn 0.014636506 0.99989295 -0
vn 0.014636506 0.99989295 -0
vn 0.014636506 0.99989295 -0
vn 0.014636506 0.99989295 -0
vn 0.014636506 0.99989295 -0
vn 0.014636506 0.99989295 -0
vn 0.014636506 0.99989295 -0
vn 0.014636506 0.99989295 -0
vn 0.014636506 0.99989295 -0
vn 0.014636506 0.99989295 -0
vn 0.014636506 0.99989295 -0
vn 0.014636506 0.99989295 -0
vn 0.014636506 0.99989295 -0
vn 0.014636506 0.99989295 -0
vn 0.014636506 0.99989295 -0
vn 0.014636506 0.99989295 -0
vn 0.07781628 0.99696773 -0
vn 0.07781628 0.99696773 -0
vn 0.014636506 0.99989295 -0
vn 0.014636506 0.99989295 -0
vn 0.014636506 0.99989295 -0
vn -0.017066881 0.9998543 -0
vn 0.014636506 0.99989295 -0
vn 0.014636506 0.99989295 -0
vn 0.014636506 0.99989295 -0
vn 0.014636506 0.99989295 -0
vn -0.39751637 0.8730774 0.28234133
vn -0.39751637 0.8730774 0.28234133
vn 0.07781628 0.99696773 -0
vn 0.07781628 0.99696773 -0
vn 0.014636506 0.99989295 -0
vn 0.014636506 0.99989295 -0
vn 0.014636506 0.99989295 -0
vn 0.014636506 0.99989295 -0
vn -0.71455705 0.39751637 0.5756639
vn -0.71455705 0.39751637 0.5756639
vn -0.71455705 0.39751637 0.5756639
vn 0.014636506 0.99989295 -0
vn 0.014636506 0.99989295 -0
vn 0.014636506 0.99989295 -0
vn 0.014636506 0.99989295 -0
vn 0.014636506 0.99989295 -0
vn 0.014636506 0.99989295 -0
vn 0.014636506 0.99989295 -0
vn 0.014636506 0.99989295 -0
vn 0.014636506 0.99989295 -0
vn 0.014636506 0.99989295 -0
vn 0.014636506 0.99989295 -0
vn 0.014636506 0.99989295 -0
vn 0.014636506 0.99989295 -0
vn 0.014636506 0.99989295 -0
vn 0.014636506 0.99989295 -0
vn 0.014636506 0.99989295 -0
vn 0.014636506 0.99989295 -0
vn 0.10974872 0.61944485 0.7773309
vn 0.014636517 0.23899603 0.9709102
vn 0.014636517 0.5877408 0.8089169
vn 0.14145279 0.2707001 0.95221454
vn 0.236565 0.30240417 0.9233573
vn 0.236565 0.61944485 0.7485487
vn 0.10974872 -0.07804465 0.9908906
vn 0.014636517 -0.10974872 0.9938516
vn 0.17315686 -0.014636517 0.9847855
vn 0.07804465 -0.10974872 0.9908906
vn 0.014636517 -0.17315686 0.9847855
vn 0.14145279 -0.046340585 0.9888598
vn 0.5536057 0.61944485 0.5566048
vn 0.45849347 0.42922044 0.7781732
vn 0.4267894 0.5877408 0.6873221
vn 0.6487179 0.42922044 0.6284385
vn 0.4267894 0.17558789 0.88714135
vn 0.8072382 0.5560367 0.19796365
vn 0.6487179 0.23899603 0.7225275
vn 0.36338127 0.112179756 0.924862
vn 0.68042195 0.20729196 0.7028912
vn 0.9023504 0.39751637 0.16656667
vn 0.96575856 0.23899603 0.100951925
vn 0.96575856 0.20729196 0.15601422
vn 0.93113697 0.36466968 -0
vn 0.8389423 0.52433264 0.14577761
vn 0.96575856 0.17558789 -0.19099551
vn 0.96575856 0.14388382 -0.21588849
vn 0.17315686 -0.10974872 0.9787604
vn -0.39751637 -0.07804465 0.9142701
vn -0.4609245 -0.014636517 0.8873187
vn 0.10974872 0.017067552 0.9938128
vn 0.6487179 0.08047569 0.756762
vn 0.68042195 -0.014636517 0.73267436
vn 0.14145279 0.5560367 0.81903255
vn -0.49262857 0.20729196 0.8451906
vn 0.17315686 0.80966926 0.56076056
vn 0.236565 0.80966926 0.53709656
vn 0.49019754 0.5877408 0.64363587
vn 0.9340545 0.33410823 0.12615027
vn 0.96575856 0.20729196 0.15601422
vn 0.9897555 0.14277208 -0
vn 0.68042195 0.017067552 -0.7326217
vn 0.58530974 0.08047569 -0.80680615
vn 0.6487179 0.017067552 -0.76083755
vn 0.6170138 0.08047569 -0.78282666
vn 0.6170138 0.17558789 -0.7671133
vn 0.712126 0.2707001 -0.64776385
vn 0.6487179 0.3658123 -0.66734284
vn 0.68042195 0.6511489 0.33620086
vn 0.68042195 0.6511489 0.33620086
vn 0.68042195 0.682853 0.26596564
vn 0.6487179 0.682853 0.33597156
vn 0.77553415 0.61944485 0.1217984
vn 0.68042195 0.71455705 0.16258574
vn 0.6487179 0.7462611 0.1491959
vn 0.8072382 0.5560367 0.19796365
vn 0.9340545 0.33410823 0.12615027
vn 0.9340545 0.33410823 0.12615027
vn 0.7438301 0.23899603 0.62417763
vn 0.6487179 0.52433264 0.5515799
vn 0.4267894 0.80966926 0.402848
vn 0.5536057 0.14388382 0.820255
vn 0.5536057 0.49262857 0.6714446
vn 0.29997313 0.8413733 0.4495632
vn 0.17315686 0.52433264 0.83372176
vn 0.236565 0.8730774 0.42634833
vn -0.42922044 -0.10974872 0.8965071
vn -0.42922044 0.112179756 0.8962062
vn 0.14145279 0.017067552 0.98979783
vn 0.10974872 -0.046340585 0.99287856
vn 0.39508533 0.04877162 0.91734886
vn 0.4267894 0.08047569 0.9007633
vn 0.4267894 0.08047569 0.9007633
vn 0.26826906 0.9364855 0.22589052
vn 0.26826906 0.9364855 0.22589052
vn 0.236565 0.9364855 0.2589051
vn 0.39508533 0.90478146 0.15899086
vn 0.3316772 0.9364855 0.113951966
vn 0.26702237 0.9636903 -0
vn 0.20486093 0.9681896 0.14366944
vn 0.17315686 0.9681896 0.18062562
vn 0.20486093 0.9681896 0.14366944
vn 0.20486093 0.9681896 0.14366944
vn 0.236565 0.9681896 0.0815225
vn 0.3316772 0.9364855 0.113951966
vn 0.3617479 0.93227607 -0
vn 0.5219016 0.017067552 0.85283494
vn 0.5219016 0.017067552 0.85283494
vn 0.5219016 0.017067552 0.85283494
vn 0.5219016 0.017067552 0.85283494
vn 0.014636506 0.99989295 -0
vn 0.07781628 0.99696773 -0
vn 0.014636506 0.99989295 -0
vn 0.10910514 0.9940301 -0
vn 0.14145279 0.9681896 0.20639762
vn 0.14145279 0.9681896 0.20639762
vn 0.07781628 0.99696773 -0
vn 0.14145279 0.9681896 0.20639762
vn 0.04629582 0.99892783 -0
vn 0.04629582 0.99892783 -0
vn 0.07781628 0.99696773 -0
vn 0.236565 0.9681896 0.0815225
vn 0.20486093 0.9681896 0.14366944
vn 0.17315686 0.9681896 0.18062562
vn 0.17315686 0.9681896 0.18062562
vn 0.014636506 0.99989295 -0
vn 0.014636506 0.99989295 -0
vn 0.014636506 0.99989295 -0
vn 0.014636506 0.99989295 -0
vn 0.014636506 0.99989295 -0
vn 0.014636506 0.99989295 -0
vn 0.07781628 0.99696773 -0
vn 0.04629582 0.99892783 -0
vn 0.17315686 0.9681896 0.18062562
vn 0.20486093 0.9681896 0.14366944
vn 0.07781628 0.99696773 -0
vn 0.20486093 0.9681896 0.14366944
vn 0.17315686 0.9681896 0.18062562
vn 0.07804465 0.9681896 0.23773506
vn 0.04629582 0.99892783 -0
vn 0.17315686 0.9681896 0.18062562
vn 0.17315686 0.9681896 0.18062562
vn 0.07781628 0.99696773 -0
vn 0.07804465 0.9681896 0.23773506
vn 0.014636506 0.99989295 -0
vn 0.10974872 0.9681896 0.22486465
vn 0.04629582 0.99892783 -0
vn 0.07781628 0.99696773 -0
vn 0.17315686 0.9681896 0.18062562
vn 0.14007312 0.9901411 -0
vn 0.14007312 0.9901411 -0
vn 0.14007312 0.9901411 -0
vn 0.17063554 0.9853343 -0
vn 0.014636506 0.99989295 -0
vn -0.04871889 0.99881256 -0
vn -0.017066881 0.9998543 -0
vn -0.04871889 0.99881256 -0
vn -0.04871889 0.99881256 -0
vn -0.04871889 0.99881256 -0
vn -0.17558789 0.7779652 0.60327363
vn -0.14388382 0.80966926 0.5689755
vn -0.17558789 0.7779652 0.60327363
vn -0.17558789 0.7462611 0.64207727
vn -0.20729196 0.61944485 0.7571777
vn -0.17558789 0.61944485 0.7651516
vn -0.17558789 0.49262857 0.8523415
vn -0.14388382 0.49262857 0.8582625
vn 0.3316772 0.61944485 0.71153235
vn -0.112179756 0.30240417 0.9465556
vn -0.112179756 0.3658123 0.92390317
vn -0.112179756 0.30240417 0.9465556
vn -0.112179756 0.20729196 0.971826
vn -0.112179756 0.20729196 0.971826
vn -0.112179756 0.20729196 0.971826
vn 0.49019754 0.5560367 0.671215
vn 0.26826906 0.52433264 0.8081503
vn 0.236565 0.52433264 0.81799287
vn 0.8072382 0.5560367 0.19796365
vn 0.36338127 0.90478146 0.22209136
vn 0.87064636 0.42922044 -0.24030142
vn 0.9023504 0.39751637 -0.16656667
vn 0.36338127 0.8730774 0.3250999
vn 0.26702237 0.9636903 -0
vn 0.29997313 0.8730774 0.3843852
vn 0.3617479 0.93227607 -0
vn 0.07804465 0.90478146 0.418664
vn 0.014636517 0.9364855 0.35040066
vn 0.14145279 0.8730774 0.4666122
vn 0.07804465 0.9681896 0.23773506
vn 0.5219016 0.71455705 0.46586144
vn 0.39508533 0.8413733 0.3687798
vn 0.68042195 0.61944485 -0.39155334
vn 0.236565 0.39751637 0.8865764
vn 0.7438301 0.52433264 0.41447806
vn 0.10974872 0.71455705 0.6909149
vn 0.29997313 0.80966926 0.50443214
vn 0.39508533 0.52433264 0.75430954
vn 0.6170138 0.4609245 0.63784206
vn 0.6170138 0.4609245 0.63784206
vn 0.6170138 0.4609245 0.63784206
vn 0.6170138 0.4609245 0.63784206
vn 0.6487179 0.4609245 0.6055689
vn -0.17558789 0.5877408 0.7897656
vn 0.014636517 0.71455705 0.699424
vn -0.14388382 0.6511489 0.74518627
vn -0.20729196 0.39751637 0.89387405
vn -0.39751637 0.3658123 0.8415237
vn -0.7462611 0.4609245 0.48025298
vn 0.29997313 0.8413733 0.4495632
vn 0.26826906 0.8730774 0.40714562
vn 0.36338127 0.8413733 0.40005627
vn 0.39508533 0.8413733 0.3687798
vn -0.42922044 0.7462611 0.5087869
vn -0.20729196 0.9364855 0.2828867
vn -0.20729196 0.9364855 0.2828867
vn -0.112179756 0.90478146 0.410836
vn 0.17315686 0.90478146 0.3890851
vn 0.236565 0.90478146 0.35412923
vn 0.3316772 0.90478146 0.26713425
vn 0.29997313 0.90478146 0.30230218
vn 0.39508533 0.8730774 -0.2857332
vn 0.5219016 0.682853 -0.51120496
vn 0.26826906 0.9364855 -0.22589052
vn 0.236565 0.9364855 -0.2589051
vn 0.5219016 0.3658123 -0.7705842
vn 0.8703383 0.4924543 -0
vn 0.29997313 0.33410823 0.8935255
vn 0.4267894 0.3658123 0.82706237
vn 0.39508533 0.42922044 0.81220526
vn 0.4267894 0.3658123 0.82706237
vn 0.39508533 0.39751637 0.82818377
vn 0.45849347 0.39751637 0.7948361
vn -0.04877162 0.17558789 0.9832549
vn 0.014636517 0.20729196 0.9781696
vn 0.5219016 0.30240417 0.7976029
vn 0.5219016 0.39751637 0.7547181
vn 0.6170138 0.39751637 0.67917204
vn 0.68042195 0.30240417 0.66751605
vn 0.58530974 0.4609245 0.66705406
vn 0.14145279 0.8730774 0.4666122
vn 0.14145279 0.90478146 0.40169835
vn -0.33410823 0.23899603 0.9117305
vn 0.29997313 0.9364855 0.18168919
vn 0.014636506 0.99989295 -0
vn 0.42662337 0.90442944 -0
vn 0.9023504 0.2707001 -0.3353881
vn 0.5219016 0.3658123 0.7705842
vn -0.3658123 0.23899603 0.89947885
vn 0.8389423 0.3658123 0.4029357
vn 0.9340545 0.17558789 0.31098408
vn 0.9340545 0.04877162 -0.35378456
vn 0.712126 0.23899603 0.66011924
vn -0.30240417 0.5560367 0.77419305
vn 0.9340545 0.08047569 0.3479452
vn 0.9340545 -0.014636517 -0.35683045
vn 0.8389423 0.04877162 0.5420306
vn 0.7438301 0.14388382 0.6526977
vn 0.6487179 0.112179756 0.75271565
vn -0.14388382 0.8413733 0.52094954
vn 0.712126 -0.014636517 0.70189905
vn 0.5219016 0.17558789 0.834738
vn -0.33410823 0.5877408 0.73683953
vn 0.68042195 0.017067552 0.7326217
vn 0.68042195 0.682853 0.26596564
vn 0.8072382 0.49262857 0.32509002
vn 0.77553415 0.42922044 0.46294338
vn 0.6487179 0.5877408 0.48345205
vn 0.014636506 0.99989295 -0
vn 0.6487179 0.33410823 0.6837666
vn 0.014636506 0.99989295 -0
vn 0.6487179 0.39751637 0.6489575
vn 0.87064636 0.33410823 0.36103553
vn 0.68042195 0.3658123 0.63498604
vn 0.68042195 0.3658123 0.63498604
vn 0.87064636 0.33410823 0.36103553
vn 0.9340545 0.2707001 0.2329456
vn 0.9340545 0.2707001 0.2329456
vn 0.96288955 0.2698959 -0
vn 0.96288955 0.2698959 -0
vn 0.96575856 0.17558789 -0.19099551
vn 0.96575856 0.17558789 0.19099551
vn 0.9340545 0.14388382 -0.32686335
vn 0.9340545 0.17558789 0.31098408
vn 0.9023504 0.17558789 0.3936148
vn 0.96575856 0.17558789 -0.19099551
vn 0.6487179 0.08047569 0.756762
vn 0.4267894 0.08047569 0.9007633
vn 0.29997313 0.04877162 0.9527001
vn -0.30240417 -0.07804465 0.94997936
vn -0.3658123 -0.046340585 0.92953426
vn 0.9023504 0.39751637 0.16656667
vn 0.8072382 0.5560367 -0.19796365
vn 0.9023504 0.42922044 -0.039160416
vn 0.8703383 0.4924543 -0
vn 0.6487179 0.30240417 0.69836724
vn 0.10974872 0.9364855 -0.33309165
vn -0.23899603 0.80966926 -0.5360192
vn 0.58530974 0.42922044 0.6878825
vn -0.23899603 0.9681896 0.07409296
vn -0.4609245 0.8413733 -0.2822048
vn -0.23899603 0.4609245 0.8546517
vn 0.17315686 0.3658123 0.91443866
vn 0.14145279 0.2707001 0.95221454
vn -0.14388382 0.2707001 0.95185024
vn 0.9023504 0.20729196 0.3778806
vn 0.9340545 0.17558789 0.31098408
vn 0.9340545 0.14388382 0.32686335
vn 0.87064636 0.112179756 0.47894743
vn 0.8389423 0.112179756 0.5325331
vn 0.712126 0.112179756 0.6930312
vn 0.8389423 0.112179756 0.5325331
vn 0.5536057 0.112179756 0.82518876
vn 0.5536057 0.112179756 0.82518876
vn 0.68042195 0.112179756 0.72418344
vn 0.9340545 0.112179756 -0.3390544
vn 0.9340545 0.14388382 0.32686335
vn 0.9023504 0.04877162 -0.4282348
vn 0.45849347 0.5877408 0.6665917
vn 0.9340545 0.08047569 0.3479452
vn 0.9023504 0.08047569 -0.4234234
vn 0.77553415 0.3658123 0.51451737
vn 0.5536057 0.7779652 0.2971379
vn 0.8389423 0.08047569 0.5382374
vn 0.77553415 0.42922044 0.46294338
vn 0.87064636 0.30240417 -0.38797766
vn 0.58530974 0.5877408 0.5585457
vn 0.8389423 0.23899603 0.48893428
vn 0.7438301 0.42922044 0.51233447
vn 0.9340545 0.23899603 0.2653735
vn 0.68042195 0.71455705 -0.16258574
vn 0.87064636 0.17558789 0.4595039
vn 0.5536057 0.61944485 0.5566048
vn 0.8072382 0.33410823 0.48655742
vn 0.6170138 0.6511489 0.4419265
vn 0.8389423 0.17558789 0.5151162
vn 0.7438301 0.6511489 0.1507378
vn 0.8335414 0.5524571 -0
vn 0.77553415 0.14388382 0.61469036
vn -0.112179756 -0.014636517 0.99358016
vn 0.9023504 0.3658123 0.22791462
vn 0.68042195 0.71455705 -0.16258574
vn 0.3316772 0.23899603 0.9126177
vn 0.20486093 0.33410823 0.92000204
vn 0.58530974 0.4609245 0.66705406
vn 0.20486093 0.04877162 0.97757524
vn 0.6487179 0.112179756 0.75271565
vn 0.17315686 0.08047569 0.98160094
vn 0.6487179 0.14388382 0.74730355
vn 0.14145279 0.112179756 0.98356843
vn 0.96575856 0.17558789 0.19099551
vn 0.7438301 0.14388382 0.6526977
vn 0.20486093 0.017067552 0.9786423
vn 0.87064636 0.17558789 0.4595039
vn 0.9023504 0.17558789 0.3936148
vn 0.96575856 0.20729196 0.15601422
vn 0.96575856 0.20729196 0.15601422
vn 0.58530974 0.112179756 -0.803012
vn 0.5536057 0.17558789 -0.8140575
vn 0.58530974 0.14388382 -0.7979411
vn 0.8072382 0.5560367 -0.19796365
vn 0.68042195 0.682853 0.26596564
vn 0.96575856 0.14388382 0.21588849
vn 0.39508533 0.14388382 0.9073065
vn 0.9340545 0.14388382 0.32686335
vn 0.39508533 -0.014636517 0.91852784
vn 0.9340545 0.14388382 0.32686335
vn 0.36338127 -0.046340585 0.93048733
vn 0.96575856 0.14388382 0.21588849
vn 0.96575856 0.14388382 0.21588849
vn 0.98485696 0.17336886 -0
vn 0.9937352 0.11176055 -0
vn 0.8072382 0.20729196 -0.5526269
vn 0.9549928 -0.2966292 -0
vn 0.77553415 0.17558789 -0.6063956
vn 0.7438301 -0.014636517 -0.6682085
vn 0.77553415 -0.07804465 -0.62646294
vn 0.9937352 0.11176055 -0
vn 0.96575856 0.20729196 -0.15601422
vn 0.712126 0.5560367 0.42860204
vn 0.7438301 0.52433264 0.41447806
vn 0.6170138 0.71455705 0.32970005
vn 0.4267894 0.14388382 0.8928316
vn 0.07804465 0.20729196 0.9751611
vn 0.87064636 0.04877162 0.48948574
vn 0.07804465 0.20729196 0.9751611
vn 0.07804465 0.20729196 0.9751611
vn 0.39508533 0.6511489 0.64800674
vn 0.9023504 -0.046340585 0.42850468
vn 0.68042195 -0.07804465 0.72865283
vn 0.10974872 -0.07804465 0.9908906
vn 0.5536057 0.7462611 0.3696148
vn 0.712126 0.6511489 0.2624531
vn 0.7438301 0.2707001 -0.6110959
vn 0.8072382 0.08047569 -0.5847137
vn 0.6487179 -0.14145279 0.74776745
vn 0.7438301 -0.58530974 0.3226907
vn 0.10974872 -0.014636517 0.9938516
vn 0.9023504 -0.10974872 0.41679603
vn 0.8389423 -0.5219016 0.15425485
vn 0.9340545 0.08047569 0.3479452
vn 0.96575856 -0.046340585 0.25527033
vn 0.9023504 -0.20486093 0.37920406
vn 0.8072382 0.112179756 0.5794671
vn 0.6487179 0.5877408 0.48345205
vn 0.014636517 0.04877162 0.9987027
vn 0.8072382 -0.17315686 -0.5642545
vn 0.96575856 -0.14145279 0.21748908
vn 0.87064636 0.08047569 0.48528197
vn 0.9967612 0.08041909 -0
vn 0.9340545 -0.26826906 -0.2357412
vn 0.96575856 0.08047569 0.24664561
vn 0.8389423 0.2707001 0.47212
vn 0.9023504 0.39751637 0.16656667
vn 0.9023504 0.30240417 0.3071082
vn 0.8389423 0.17558789 0.5151162
vn 0.712126 0.5560367 0.42860204
vn 0.712126 0.17558789 0.67973924
vn 0.3316772 0.3658123 0.8695813
vn 0.58530974 0.7462611 0.31702814
vn 0.77553415 0.5877408 0.2304507
vn 0.6170138 0.71455705 0.32970005
vn 0.96575856 0.17558789 0.19099551
vn 0.68042195 0.08047569 -0.72838837
vn 0.77553415 0.52433264 0.35159925
vn 0.7438301 0.5877408 0.31824136
vn 0.6170138 0.7462611 0.24977638
vn 0.9023504 0.17558789 0.3936148
vn 0.77553415 0.61944485 0.1217984
vn 0.6404253 0.76802045 -0
vn 0.6404253 0.76802045 -0
vn 0.8072382 0.5877408 -0.054103732
vn 0.98485696 0.17336886 -0
vn 0.96575856 0.20729196 0.15601422
vn 0.9340545 0.30240417 0.189984
vn 0.87064636 0.33410823 0.36103553
vn 0.9023504 0.3658123 0.22791462
vn 0.7658507 0.64301854 -0
vn 0.7438301 0.6511489 0.1507378
vn 0.77553415 0.5877408 0.2304507
vn 0.8389423 0.52433264 0.14577761
vn 0.77553415 0.5877408 0.2304507
vn 0.712126 0.52433264 0.46685308
vn 0.712126 0.52433264 0.46685308
vn 0.9340545 -0.236565 -0.2675429
vn 0.29997313 0.8730774 0.3843852
vn 0.58530974 0.39751637 0.7066776
vn 0.17315686 0.9681896 0.18062562
vn 0.8072382 0.42922044 0.40513733
vn 0.17315686 0.9681896 0.18062562
vn 0.93113697 0.36466968 -0
vn 0.9340545 0.20729196 0.29081306
vn 0.99746263 -0.014636517 0.06967119
vn 0.9023504 -0.014636517 0.43075454
vn 0.77553415 -0.39508533 0.49239653
vn 0.9023504 0.14388382 0.4062772
vn 0.9340545 -0.046340585 0.3541112
vn 0.8072382 -0.49019754 0.3287443
vn 0.83465344 -0.5507755 -0
vn 0.99746263 -0.014636517 0.06967119
vn 0.9897555 0.14277208 -0
vn 0.9897555 0.14277208 -0
vn 0.996953 -0.07800478 -0
vn 0.8389423 -0.5219016 0.15425485
vn 0.99746263 0.04877162 -0.051861655
vn 0.9340545 0.17558789 0.31098408
vn 0.99746263 0.017067552 -0.06911585
vn 0.87064636 0.17558789 0.4595039
vn 0.712126 0.30240417 0.63358366
vn 0.712126 0.30240417 0.63358366
vn 0.9967612 0.08041909 -0
vn 0.8389423 0.17558789 0.5151162
vn 0.9967612 0.08041909 -0
vn 0.68042195 0.20729196 0.7028912
vn 0.68042195 0.20729196 0.7028912
vn -0.017066881 0.9998543 -0
vn -0.04871889 0.99881256 -0
vn -0.04871889 0.99881256 -0
vn -0.017066881 0.9998543 -0
vn -0.017066881 0.9998543 -0
vn -0.017066881 0.9998543 -0
vn -0.017066881 0.9998543 -0
vn -0.017066881 0.9998543 -0
vn 0.04629582 0.99892783 -0
vn 0.014636506 0.99989295 -0
vn -0.017066881 0.9998543 -0
vn -0.04871889 0.99881256 -0
vn 0.014636506 0.99989295 -0
vn 0.07781628 0.99696773 -0
vn 0.07781628 0.99696773 -0
vn 0.14145279 0.5877408 0.79658765
vn 0.07804465 0.5877408 0.8052762
vn 0.07804465 0.5877408 0.8052762
vn 0.14145279 0.5877408 0.79658765
vn 0.4267894 0.6511489 0.6275794
vn 0.39508533 0.6511489 0.64800674
vn 0.712126 0.6511489 0.2624531
vn 0.712126 0.6511489 0.2624531
vn -0.08022484 0.99677694 -0
vn 0.014636506 0.99989295 -0
vn -0.1114922 0.9937653 -0
vn 0.014636506 0.99989295 -0
vn 0.014636506 0.99989295 -0
vn 0.014636506 0.99989295 -0
vn 0.014636506 0.99989295 -0
vn -0.017066881 0.9998543 -0
vn 0.014636506 0.99989295 -0
vn -0.17558789 0.9681896 0.17826329
vn -0.17295997 0.98492885 -0
vn -0.112179756 0.52433264 0.84409183
vn -0.39751637 0.39751637 0.82701963
vn -0.39751637 0.39751637 0.82701963
vn 0.17315686 0.5877408 0.79030216
vn 0.45849347 0.61944485 0.63723767
vn 0.5536057 0.52433264 0.64699
vn 0.5219016 0.30240417 0.7976029
vn 0.9340545 0.30240417 0.189984
vn 0.87064636 0.4609245 0.17182419
vn 0.98485696 0.17336886 -0
vn 0.9967612 0.08041909 -0
vn 0.7438301 0.23899603 0.62417763
vn 0.6170138 0.14388382 0.7736869
vn 0.96575856 0.112179756 0.23393609
vn 0.8072382 0.112179756 0.5794671
vn 0.6487179 0.08047569 0.756762
vn 0.8389423 0.112179756 0.5325331
vn 0.9967612 0.08041909 -0
vn 0.9967612 0.08041909 -0
vn 0.9967612 0.08041909 -0
vn 0.9967612 0.08041909 -0
vn -0.04871889 0.99881256 -0
vn -0.08022484 0.99677694 -0
vn -0.04871889 0.99881256 -0
vn 0.07781628 0.99696773 -0
vn 0.07781628 0.99696773 -0
vn 0.07781628 0.99696773 -0
vn 0.07781628 0.99696773 -0
vn -0.04871889 0.99881256 -0
vn -0.04871889 0.99881256 -0
vn -0.04871889 0.99881256 -0
vn -0.04871889 0.99881256 -0
vn -0.04871889 0.99881256 -0
vn -0.04871889 0.99881256 -0
vn -0.04871889 0.99881256 -0
vn -0.04871889 0.99881256 -0
vn -0.04871889 0.99881256 -0
vn -0.017066881 0.9998543 -0
vn -0.017066881 0.9998543 -0
vn -0.017066881 0.9998543 -0
vn -0.017066881 0.9998543 -0
vn -0.49262857 0.3658123 0.78961915
vn -0.4609245 0.49262857 0.7381502
vn -0.49262857 0.39751637 0.7741433
vn -0.49262857 0.33410823 0.8035476
vn -0.49262857 0.3658123 0.78961915
vn -0.52433264 0.33410823 0.7832285
vn 0.58530974 0.33410823 0.7387721
vn 0.7438301 0.33410823 0.57886827
vn 0.58530974 0.33410823 0.7387721
vn 0.7438301 0.3658123 0.559373
vn 0.9543097 0.29881924 -0
vn 0.6487179 0.3658123 0.66734284
vn 0.9543097 0.29881924 -0
vn 0.7438301 0.4609245 0.48400968
vn 0.8703383 0.4924543 -0
vn 0.20486093 0.9681896 0.14366944
vn 0.26702237 0.9636903 -0
vn 0.26826906 0.49262857 0.8278579
vn -0.5877408 0.30240417 0.75040823
vn -0.6511489 0.23899603 0.7203374
vn -0.6511489 0.23899603 0.7203374
vn 0.712126 0.6511489 0.2624531
vn 0.6487179 0.71455705 -0.26186502
vn 0.712126 0.6511489 0.2624531
vn 0.5536057 0.80966926 0.19482422
vn 0.5219016 0.61944485 -0.5864357
vn 0.49019754 0.8413733 -0.22759026
vn 0.39508533 0.8730774 0.2857332
vn 0.39508533 0.8730774 0.2857332
vn 0.45849347 0.71455705 -0.5283861
vn 0.5219016 0.49262857 -0.6963733
vn 0.20486093 0.9681896 0.14366944
vn 0.20486093 0.9681896 0.14366944
vn 0.712126 0.6511489 -0.2624531
vn 0.36338127 0.8730774 -0.3250999
vn 0.36338127 0.8730774 -0.3250999
vn 0.77553415 0.61944485 0.1217984
vn 0.77553415 0.61944485 0.1217984
vn 0.7438301 0.6511489 0.1507378
vn 0.6170138 0.49262857 0.6136864
vn 0.6487179 0.52433264 0.5515799
vn 0.712126 0.52433264 0.46685308
vn 0.712126 0.52433264 0.46685308
vn 0.6487179 0.4609245 0.6055689
vn 0.6487179 0.4609245 0.6055689
vn -0.3658123 0.3658123 0.855782
vn 0.58530974 0.20729196 0.7838639
vn -0.3658123 0.30240417 0.88018924
vn 0.712126 -0.236565 0.66099435
vn 0.9340545 -0.29997313 0.19379969
vn 0.45849347 0.49262857 0.7396626
vn -0.30240417 0.4609245 0.83432627
vn 0.96575856 0.017067552 0.25888047
vn 0.9340545 -0.236565 -0.2675429
vn 0.96575856 0.20729196 0.15601422
vn 0.9340545 -0.014636517 -0.35683045
vn 0.3316772 0.7462611 0.5771347
vn 0.236565 0.8730774 0.42634833
vn 0.8072382 0.5877408 0.054103732
vn 0.8335414 0.5524571 -0
vn 0.9340545 0.30240417 0.189984
vn 0.7438301 0.30240417 0.59604406
vn 0.77553415 0.2707001 0.5703229
vn 0.9967612 0.08041909 -0
vn 0.29997313 0.20729196 0.9311531
vn 0.68042195 0.61944485 0.39155334
vn 0.9201381 0.3915938 -0
vn 0.26826906 0.9364855 0.22589052
vn 0.17315686 0.9364855 0.30497795
vn 0.26826906 0.6511489 0.70995545
vn -0.39751637 0.682853 0.6129376
vn -0.42922044 0.2707001 0.8616793
vn 0.236565 0.2707001 0.9331444
vn -0.3658123 -0.014636517 0.9305736
vn -0.39751637 0.14388382 0.90624404
vn -0.42922044 -0.26826906 0.8624393
vn -0.61944485 -0.014636517 0.7849037
vn 0.046340585 -0.014636517 0.99881846
vn 0.10974872 -0.10974872 0.9878818
vn -0.52433264 0.04877162 0.85011566
vn 0.29997313 0.017067552 0.95379496
vn 0.26826906 -0.014636517 0.9632328
vn 0.45849347 0.04877162 0.8873585
vn 0.45849347 0.17558789 0.87117887
vn 0.29997313 0.30240417 0.9047474
vn 0.17315686 0.71455705 0.6778089
vn 0.10974872 0.3658123 0.9241951
vn -0.112179756 0.52433264 0.84409183
vn 0.14145279 0.71455705 0.6851272
g tb_geo_light_section_10_mesh_0
f 3/3/3 2/2/2 1/1/1
f 6/6/6 5/5/5 4/4/4
f 8/8/8 7/7/7 5/5/5
f 7/7/7 8/8/8 9/9/9
f 12/12/12 11/11/11 10/10/10
f 14/14/14 13/13/13 11/11/11
f 15/15/15 14/14/14 11/11/11
f 16/16/16 11/11/11 13/13/13
f 16/16/16 13/13/13 17/17/17
f 11/11/11 16/16/16 18/18/18
f 19/19/19 11/11/11 18/18/18
f 19/19/19 18/18/18 20/20/20
f 21/21/21 19/19/19 20/20/20
f 22/22/22 21/21/21 20/20/20
f 23/23/23 15/15/15 11/11/11
f 23/23/23 24/24/24 15/15/15
f 25/25/25 24/24/24 23/23/23
f 23/23/23 26/26/26 25/25/25
f 26/26/26 27/27/27 25/25/25
f 26/26/26 23/23/23 28/28/28
f 23/23/23 29/29/29 28/28/28
f 26/26/26 30/30/30 27/27/27
f 30/30/30 31/31/31 27/27/27
f 31/31/31 30/30/30 32/32/32
f 32/32/32 33/33/33 31/31/31
f 32/32/32 34/34/34 33/33/33
f 34/34/34 35/35/35 33/33/33
f 34/34/34 36/36/36 35/35/35
f 36/36/36 37/37/37 35/35/35
f 37/37/37 38/38/38 35/35/35
f 38/38/38 39/39/39 35/35/35
f 39/39/39 40/40/40 35/35/35
f 40/40/40 41/41/41 35/35/35
f 41/41/41 42/42/42 35/35/35
f 41/41/41 43/43/43 42/42/42
f 43/43/43 44/44/44 42/42/42
f 44/44/44 45/45/45 42/42/42
f 45/45/45 46/46/46 42/42/42
f 46/46/46 47/47/47 42/42/42
f 46/46/46 48/48/48 47/47/47
f 50/50/50 22/22/22 49/49/49
f 52/52/52 22/22/22 51/51/51
f 53/53/53 52/52/52 51/51/51
f 54/54/54 53/53/53 51/51/51
f 55/55/55 54/54/54 51/51/51
f 56/56/56 55/55/55 51/51/51
f 55/55/55 56/56/56 57/57/57
f 58/58/58 55/55/55 57/57/57
f 60/60/60 59/59/59 57/57/57
f 62/62/62 61/61/61 57/57/57
f 57/57/57 64/64/64 63/63/63
f 65/65/65 57/57/57 63/63/63
f 66/66/66 65/65/65 63/63/63
f 69/69/69 68/68/68 67/67/67
f 72/72/72 71/71/71 70/70/70
f 72/72/72 73/73/73 71/71/71
f 73/73/73 74/74/74 71/71/71
f 74/74/74 75/75/75 71/71/71
f 75/75/75 76/76/76 71/71/71
f 76/76/76 77/77/77 71/71/71
f 77/77/77 78/78/78 71/71/71
f 77/77/77 79/79/79 78/78/78
f 79/79/79 80/80/80 78/78/78
f 80/80/80 81/81/81 78/78/78
f 81/81/81 82/82/82 78/78/78
f 82/82/82 83/83/83 78/78/78
f 83/83/83 84/84/84 78/78/78
f 84/84/84 85/85/85 78/78/78
f 85/85/85 86/86/86 78/78/78
f 89/89/89 88/88/88 87/87/87
f 88/88/88 90/90/90 87/87/87
f 87/87/87 90/90/90 91/91/91
f 92/92/92 87/87/87 91/91/91
f 90/90/90 88/88/88 93/93/93
f 90/90/90 93/93/93 91/91/91
f 88/88/88 94/94/94 93/93/93
f 93/93/93 95/95/95 91/91/91
f 93/93/93 94/94/94 96/96/96
f 93/93/93 96/96/96 95/95/95
f 94/94/94 97/97/97 96/96/96
f 96/96/96 98/98/98 95/95/95
f 101/101/101 100/100/100 99/99/99
f 100/100/100 102/102/102 99/99/99
f 100/100/100 103/103/103 102/102/102
f 99/99/99 102/102/102 104/104/104
f 103/103/103 105/105/105 102/102/102
f 103/103/103 106/106/106 105/105/105
f 106/106/106 107/107/107 105/105/105
f 102/102/102 108/108/108 104/104/104
f 102/102/102 105/105/105 108/108/108
f 105/105/105 107/107/107 109/109/109
f 105/105/105 109/109/109 108/108/108
f 107/107/107 110/110/110 109/109/109
f 104/104/104 108/108/108 111/111/111
f 108/108/108 109/109/109 111/111/111
f 112/112/112 104/104/104 111/111/111
f 109/109/109 113/113/113 111/111/111
f 109/109/109 110/110/110 113/113/113
f 110/110/110 114/114/114 113/113/113
f 117/117/117 116/116/116 115/115/115
f 118/118/118 117/117/117 115/115/115
f 118/118/118 115/115/115 119/119/119
f 115/115/115 120/120/120 119/119/119
f 117/117/117 118/118/118 121/121/121
f 122/122/122 117/117/117 121/121/121
f 121/121/121 123/123/123 122/122/122
f 123/123/123 121/121/121 124/124/124
f 121/121/121 118/118/118 125/125/125
f 121/121/121 125/125/125 124/124/124
f 118/118/118 119/119/119 125/125/125
f 126/126/126 124/124/124 125/125/125
f 126/126/126 125/125/125 127/127/127
f 125/125/125 119/119/119 127/127/127
f 119/119/119 120/120/120 127/127/127
f 120/120/120 128/128/128 127/127/127
f 131/131/131 130/130/130 129/129/129
f 131/131/131 132/132/132 130/130/130
f 132/132/132 133/133/133 130/130/130
f 132/132/132 134/134/134 133/133/133
f 134/134/134 135/135/135 133/133/133
f 138/138/138 137/137/137 136/136/136
f 139/139/139 138/138/138 136/136/136
f 140/140/140 138/138/138 139/139/139
f 141/141/141 140/140/140 139/139/139
f 141/141/141 142/142/142 140/140/140
f 142/142/142 143/143/143 140/140/140
f 140/140/140 143/143/143 144/144/144
f 143/143/143 145/145/145 144/144/144
f 146/146/146 145/145/145 143/143/143
f 147/147/147 143/143/143 142/142/142
f 147/147/147 146/146/146 143/143/143
f 148/148/148 147/147/147 142/142/142
f 149/149/149 146/146/146 147/147/147
f 150/150/150 147/147/147 148/148/148
f 150/150/150 149/149/149 147/147/147
f 151/151/151 150/150/150 148/148/148
f 152/152/152 150/150/150 151/151/151
f 152/152/152 151/151/151 153/153/153
f 154/154/154 152/152/152 153/153/153
f 154/154/154 155/155/155 152/152/152
f 152/152/152 156/156/156 150/150/150
f 155/155/155 156/156/156 152/152/152
f 156/156/156 149/149/149 150/150/150
f 156/156/156 155/155/155 157/157/157
f 156/156/156 157/157/157 158/158/158
f 156/156/156 158/158/158 149/149/149
f 158/158/158 159/159/159 149/149/149
f 159/159/159 160/160/160 149/149/149
f 163/163/163 162/162/162 161/161/161
f 162/162/162 164/164/164 161/161/161
f 164/164/164 165/165/165 161/161/161
f 166/166/166 165/165/165 164/164/164
f 166/166/166 167/167/167 165/165/165
f 166/166/166 168/168/168 167/167/167
f 168/168/168 169/169/169 167/167/167
f 167/167/167 169/169/169 170/170/170
f 169/169/169 171/171/171 170/170/170
f 171/171/171 172/172/172 170/170/170
f 171/171/171 173/173/173 172/172/172
f 176/176/176 175/175/175 174/174/174
f 177/177/177 176/176/176 174/174/174
f 180/180/180 179/179/179 178/178/178
f 179/179/179 181/181/181 178/178/178
f 181/181/181 179/179/179 182/182/182
f 179/179/179 183/183/183 182/182/182
f 182/182/182 183/183/183 184/184/184
f 183/183/183 185/185/185 184/184/184
f 185/185/185 186/186/186 184/184/184
f 181/181/181 182/182/182 187/187/187
f 182/182/182 184/184/184 187/187/187
f 184/184/184 188/188/188 187/187/187
f 189/189/189 181/181/181 187/187/187
f 187/187/187 190/190/190 189/189/189
f 187/187/187 191/191/191 190/190/190
f 187/187/187 192/192/192 191/191/191
f 184/184/184 193/193/193 188/188/188
f 184/184/184 194/194/194 193/193/193
f 195/195/195 194/194/194 184/184/184
f 186/186/186 195/195/195 184/184/184
f 186/186/186 196/196/196 195/195/195
f 197/197/197 196/196/196 186/186/186
f 198/198/198 197/197/197 186/186/186
f 187/187/187 199/199/199 192/192/192
f 199/199/199 200/200/200 192/192/192
f 200/200/200 201/201/201 192/192/192
f 200/200/200 202/202/202 201/201/201
f 200/200/200 203/203/203 202/202/202
f 203/203/203 204/204/204 202/202/202
f 203/203/203 205/205/205 204/204/204
f 199/199/199 187/187/187 206/206/206
f 199/199/199 206/206/206 200/200/200
f 203/203/203 207/207/207 205/205/205
f 207/207/207 208/208/208 205/205/205
f 207/207/207 209/209/209 208/208/208
f 187/187/187 210/210/210 206/206/206
f 188/188/188 210/210/210 187/187/187
f 206/206/206 211/211/211 200/200/200
f 200/200/200 211/211/211 203/203/203
f 212/212/212 207/207/207 203/203/203
f 213/213/213 212/212/212 203/203/203
f 211/211/211 213/213/213 203/203/203
f 214/214/214 207/207/207 212/212/212
f 215/215/215 209/209/209 207/207/207
f 214/214/214 215/215/215 207/207/207
f 215/215/215 216/216/216 209/209/209
f 217/217/217 216/216/216 215/215/215
f 218/218/218 216/216/216 217/217/217
f 219/219/219 216/216/216 218/218/218
f 219/219/219 220/220/220 216/216/216
f 221/221/221 214/214/214 212/212/212
f 221/221/221 212/212/212 222/222/222
f 223/223/223 221/221/221 222/222/222
f 222/222/222 224/224/224 223/223/223
f 224/224/224 225/225/225 223/223/223
f 222/222/222 226/226/226 224/224/224
f 226/226/226 222/222/222 227/227/227
f 222/222/222 212/212/212 227/227/227
f 228/228/228 226/226/226 227/227/227
f 227/227/227 229/229/229 228/228/228
f 227/227/227 230/230/230 229/229/229
f 227/227/227 231/231/231 230/230/230
f 227/227/227 212/212/212 231/231/231
f 231/231/231 232/232/232 230/230/230
f 231/231/231 233/233/233 232/232/232
f 231/231/231 212/212/212 233/233/233
f 233/233/233 234/234/234 232/232/232
f 212/212/212 235/235/235 233/233/233
f 234/234/234 233/233/233 236/236/236
f 237/237/237 234/234/234 236/236/236
f 236/236/236 238/238/238 237/237/237
f 238/238/238 236/236/236 239/239/239
f 240/240/240 238/238/238 239/239/239
f 239/239/239 241/241/241 240/240/240
f 212/212/212 213/213/213 235/235/235
f 213/213/213 242/242/242 235/235/235
f 243/243/243 242/242/242 213/213/213
f 211/211/211 243/243/243 213/213/213
f 244/244/244 243/243/243 211/211/211
f 206/206/206 244/244/244 211/211/211
f 245/245/245 244/244/244 206/206/206
f 210/210/210 245/245/245 206/206/206
f 210/210/210 246/246/246 245/245/245
f 246/246/246 247/247/247 245/245/245
f 248/248/248 247/247/247 246/246/246
f 188/188/188 246/246/246 210/210/210
f 248/248/248 246/246/246 249/249/249
f 250/250/250 248/248/248 249/249/249
f 188/188/188 251/251/251 246/246/246
f 251/251/251 249/249/249 246/246/246
f 249/249/249 252/252/252 250/250/250
f 252/252/252 253/253/253 250/250/250
f 250/250/250 253/253/253 254/254/254
f 253/253/253 255/255/255 254/254/254
f 254/254/254 255/255/255 256/256/256
f 252/252/252 249/249/249 257/257/257
f 252/252/252 257/257/257 253/253/253
f 249/249/249 251/251/251 258/258/258
f 258/258/258 257/257/257 249/249/249
f 258/258/258 259/259/259 257/257/257
f 257/257/257 260/260/260 253/253/253
f 253/253/253 260/260/260 255/255/255
f 259/259/259 261/261/261 257/257/257
f 257/257/257 261/261/261 260/260/260
f 188/188/188 262/262/262 251/251/251
f 251/251/251 263/263/263 258/258/258
f 251/251/251 262/262/262 263/263/263
f 264/264/264 262/262/262 188/188/188
f 264/264/264 188/188/188 265/265/265
f 266/266/266 264/264/264 265/265/265
f 265/265/265 267/267/267 266/266/266
f 267/267/267 268/268/268 266/266/266
f 268/268/268 269/269/269 266/266/266
f 264/264/264 270/270/270 262/262/262
f 262/262/262 271/271/271 263/263/263
f 270/270/270 271/271/271 262/262/262
f 270/270/270 272/272/272 271/271/271
f 270/270/270 273/273/273 272/272/272
f 273/273/273 274/274/274 272/272/272
f 274/274/274 275/275/275 272/272/272
f 263/263/263 271/271/271 276/276/276
f 271/271/271 272/272/272 276/276/276
f 276/276/276 272/272/272 277/277/277
f 263/263/263 276/276/276 258/258/258
f 276/276/276 278/278/278 258/258/258
f 276/276/276 277/277/277 278/278/278
f 277/277/277 279/279/279 278/278/278
f 278/278/278 259/259/259 258/258/258
f 278/278/278 279/279/279 259/259/259
f 275/275/275 280/280/280 272/272/272
f 272/272/272 280/280/280 277/277/277
f 280/280/280 275/275/275 281/281/281
f 275/275/275 282/282/282 281/281/281
f 280/280/280 281/281/281 283/283/283
f 280/280/280 283/283/283 277/277/277
f 283/283/283 284/284/284 277/277/277
f 277/277/277 284/284/284 285/285/285
f 277/277/277 285/285/285 279/279/279
f 285/285/285 286/286/286 279/279/279
f 279/279/279 286/286/286 287/287/287
f 287/287/287 288/288/288 279/279/279
f 288/288/288 289/289/289 279/279/279
f 279/279/279 289/289/289 259/259/259
f 288/288/288 290/290/290 289/289/289
f 289/289/289 290/290/290 291/291/291
f 292/292/292 289/289/289 291/291/291
f 259/259/259 289/289/289 292/292/292
f 259/259/259 292/292/292 293/293/293
f 259/259/259 293/293/293 261/261/261
f 261/261/261 293/293/293 294/294/294
f 261/261/261 294/294/294 260/260/260
f 295/295/295 294/294/294 293/293/293
f 260/260/260 294/294/294 296/296/296
f 260/260/260 296/296/296 255/255/255
f 294/294/294 297/297/297 296/296/296
f 294/294/294 295/295/295 297/297/297
f 295/295/295 298/298/298 297/297/297
f 255/255/255 300/300/300 299/299/299
f 300/300/300 301/301/301 299/299/299
f 301/301/301 302/302/302 299/299/299
f 303/303/303 302/302/302 301/301/301
f 304/304/304 302/302/302 303/303/303
f 304/304/304 305/305/305 302/302/302
f 302/302/302 305/305/305 306/306/306
f 299/299/299 302/302/302 306/306/306
f 255/255/255 299/299/299 306/306/306
f 307/307/307 255/255/255 306/306/306
f 255/255/255 307/307/307 256/256/256
f 307/307/307 308/308/308 256/256/256
f 307/307/307 309/309/309 308/308/308
f 256/256/256 308/308/308 310/310/310
f 311/311/311 256/256/256 310/310/310
f 310/310/310 312/312/312 311/311/311
f 312/312/312 310/310/310 313/313/313
f 309/309/309 314/314/314 308/308/308
f 309/309/309 315/315/315 314/314/314
f 310/310/310 308/308/308 316/316/316
f 310/310/310 316/316/316 313/313/313
f 308/308/308 314/314/314 316/316/316
f 316/316/316 317/317/317 313/313/313
f 316/316/316 314/314/314 317/317/317
f 317/317/317 318/318/318 313/313/313
f 315/315/315 319/319/319 314/314/314
f 314/314/314 319/319/319 317/317/317
f 315/315/315 320/320/320 319/319/319
f 317/317/317 321/321/321 318/318/318
f 321/321/321 322/322/322 318/318/318
f 323/323/323 321/321/321 317/317/317
f 319/319/319 323/323/323 317/317/317
f 320/320/320 324/324/324 319/319/319
f 319/319/319 324/324/324 323/323/323
f 325/325/325 324/324/324 320/320/320
f 323/323/323 324/324/324 325/325/325
f 326/326/326 325/325/325 320/320/320
f 327/327/327 323/323/323 325/325/325
f 328/328/328 325/325/325 326/326/326
f 327/327/327 325/325/325 328/328/328
f 329/329/329 328/328/328 326/326/326
f 330/330/330 327/327/327 328/328/328
f 328/328/328 329/329/329 330/330/330
f 333/333/333 332/332/332 331/331/331
f 334/334/334 333/333/333 331/331/331
f 334/334/334 331/331/331 335/335/335
f 336/336/336 333/333/333 334/334/334
f 337/337/337 334/334/334 335/335/335
f 338/338/338 336/336/336 334/334/334
f 337/337/337 338/338/338 334/334/334
f 341/341/341 340/340/340 339/339/339
f 340/340/340 342/342/342 339/339/339
f 339/339/339 342/342/342 343/343/343
f 344/344/344 339/339/339 343/343/343
f 343/343/343 345/345/345 344/344/344
f 345/345/345 346/346/346 344/344/344
f 349/349/349 348/348/348 347/347/347
f 348/348/348 350/350/350 347/347/347
f 350/350/350 351/351/351 347/347/347
f 351/351/351 352/352/352 347/347/347
f 353/353/353 351/351/351 350/350/350
f 354/354/354 350/350/350 348/348/348
f 354/354/354 353/353/353 350/350/350
f 355/355/355 354/354/354 348/348/348
f 356/356/356 353/353/353 354/354/354
f 354/354/354 355/355/355 357/357/357
f 356/356/356 354/354/354 357/357/357
f 360/360/360 359/359/359 358/358/358
f 359/359/359 361/361/361 358/358/358
f 362/362/362 358/358/358 361/361/361
f 363/363/363 361/361/361 359/359/359
f 363/363/363 359/359/359 364/364/364
f 365/365/365 362/362/362 361/361/361
f 365/365/365 361/361/361 363/363/363
f 366/366/366 363/363/363 364/364/364
f 365/365/365 363/363/363 366/366/366
f 367/367/367 366/366/366 364/364/364
f 368/368/368 366/366/366 367/367/367
f 362/362/362 365/365/365 369/369/369
f 365/365/365 366/366/366 369/369/369
f 368/368/368 369/369/369 366/366/366
f 370/370/370 362/362/362 369/369/369
f 368/368/368 371/371/371 369/369/369
f 371/371/371 370/370/370 369/369/369
f 374/374/374 373/373/373 372/372/372
f 373/373/373 374/374/374 375/375/375
f 374/374/374 376/376/376 375/375/375
f 375/375/375 376/376/376 377/377/377
f 376/376/376 378/378/378 377/377/377
f 378/378/378 379/379/379 377/377/377
f 377/377/377 379/379/379 380/380/380
f 379/379/379 381/381/381 380/380/380
f 381/381/381 382/382/382 380/380/380
f 381/381/381 383/383/383 382/382/382
f 383/383/383 384/384/384 382/382/382
f 383/383/383 381/381/381 385/385/385
f 383/383/383 386/386/386 384/384/384
f 386/386/386 387/387/387 384/384/384
f 383/383/383 385/385/385 388/388/388
f 385/385/385 389/389/389 388/388/388
f 388/388/388 390/390/390 383/383/383
f 390/390/390 386/386/386 383/383/383
f 386/386/386 391/391/391 387/387/387
f 391/391/391 392/392/392 387/387/387
f 393/393/393 392/392/392 391/391/391
f 389/389/389 394/394/394 388/388/388
f 394/394/394 390/390/390 388/388/388
f 395/395/395 391/391/391 386/386/386
f 390/390/390 395/395/395 386/386/386
f 396/396/396 394/394/394 389/389/389
f 397/397/397 396/396/396 389/389/389
f 398/398/398 390/390/390 394/394/394
f 398/398/398 395/395/395 390/390/390
f 396/396/396 398/398/398 394/394/394
f 399/399/399 391/391/391 395/395/395
f 393/393/393 391/391/391 399/399/399
f 400/400/400 399/399/399 395/395/395
f 398/398/398 400/400/400 395/395/395
f 393/393/393 399/399/399 401/401/401
f 402/402/402 400/400/400 398/398/398
f 393/393/393 401/401/401 403/403/403
f 403/403/403 404/404/404 393/393/393
f 405/405/405 402/402/402 398/398/398
f 405/405/405 398/398/398 396/396/396
f 405/405/405 406/406/406 402/402/402
f 407/407/407 396/396/396 397/397/397
f 407/407/407 405/405/405 396/396/396
f 408/408/408 407/407/407 397/397/397
f 406/406/406 405/405/405 409/409/409
f 405/405/405 407/407/407 409/409/409
f 409/409/409 407/407/407 408/408/408
f 410/410/410 406/406/406 409/409/409
f 410/410/410 409/409/409 408/408/408
f 404/404/404 411/411/411 393/393/393
f 393/393/393 411/411/411 412/412/412
f 412/412/412 411/411/411 413/413/413
f 413/413/413 411/411/411 404/404/404
f 414/414/414 412/412/412 413/413/413
f 414/414/414 413/413/413 415/415/415
f 416/416/416 414/414/414 415/415/415
f 413/413/413 404/404/404 417/417/417
f 415/415/415 413/413/413 417/417/417
f 416/416/416 415/415/415 418/418/418
f 419/419/419 416/416/416 418/418/418
f 419/419/419 418/418/418 420/420/420
f 420/420/420 418/418/418 421/421/421
f 422/422/422 415/415/415 417/417/417
f 418/418/418 415/415/415 422/422/422
f 418/418/418 423/423/423 421/421/421
f 423/423/423 418/418/418 422/422/422
f 423/423/423 424/424/424 421/421/421
f 423/423/423 422/422/422 424/424/424
f 422/422/422 425/425/425 424/424/424
f 425/425/425 422/422/422 426/426/426
f 422/422/422 417/417/417 426/426/426
f 417/417/417 404/404/404 426/426/426
f 427/427/427 404/404/404 403/403/403
f 428/428/428 427/427/427 403/403/403
f 429/429/429 404/404/404 427/427/427
f 430/430/430 404/404/404 429/429/429
f 430/430/430 429/429/429 431/431/431
f 432/432/432 430/430/430 431/431/431
f 432/432/432 431/431/431 433/433/433
f 434/434/434 432/432/432 433/433/433
f 434/434/434 433/433/433 435/435/435
f 435/435/435 433/433/433 436/436/436
f 433/433/433 431/431/431 437/437/437
f 433/433/433 437/437/437 436/436/436
f 431/431/431 429/429/429 438/438/438
f 431/431/431 438/438/438 437/437/437
f 436/436/436 437/437/437 439/439/439
f 439/439/439 440/440/440 436/436/436
f 437/437/437 441/441/441 439/439/439
f 441/441/441 437/437/437 442/442/442
f 437/437/437 438/438/438 442/442/442
f 442/442/442 438/438/438 443/443/443
f 429/429/429 444/444/444 438/438/438
f 438/438/438 444/444/444 443/443/443
f 444/444/444 429/429/429 427/427/427
f 443/443/443 444/444/444 445/445/445
f 444/444/444 427/427/427 445/445/445
f 446/446/446 445/445/445 427/427/427
f 446/446/446 427/427/427 428/428/428
f 447/447/447 446/446/446 428/428/428
f 448/448/448 447/447/447 428/428/428
f 445/445/445 446/446/446 449/449/449
f 450/450/450 445/445/445 449/449/449
f 451/451/451 449/449/449 446/446/446
f 451/451/451 452/452/452 449/449/449
f 450/450/450 449/449/449 452/452/452
f 453/453/453 450/450/450 452/452/452
f 453/453/453 452/452/452 454/454/454
f 446/446/446 447/447/447 455/455/455
f 453/453/453 454/454/454 456/456/456
f 457/457/457 453/453/453 456/456/456
f 456/456/456 454/454/454 458/458/458
f 454/454/454 459/459/459 458/458/458
f 458/458/458 459/459/459 460/460/460
f 460/460/460 459/459/459 461/461/461
f 457/457/457 456/456/456 462/462/462
f 462/462/462 456/456/456 463/463/463
f 464/464/464 457/457/457 462/462/462
f 465/465/465 462/462/462 463/463/463
f 465/465/465 463/463/463 466/466/466
f 459/459/459 467/467/467 461/461/461
f 467/467/467 468/468/468 461/461/461
f 468/468/468 469/469/469 461/461/461
f 470/470/470 467/467/467 459/459/459
f 467/467/467 470/470/470 468/468/468
f 471/471/471 470/470/470 459/459/459
f 470/470/470 471/471/471 472/472/472
f 455/455/455 470/470/470 472/472/472
f 470/470/470 455/455/455 468/468/468
f 447/447/447 468/468/468 455/455/455
f 473/473/473 469/469/469 468/468/468
f 473/473/473 468/468/468 447/447/447
f 474/474/474 469/469/469 473/473/473
f 475/475/475 469/469/469 474/474/474
f 476/476/476 473/473/473 447/447/447
f 477/477/477 474/474/474 473/473/473
f 478/478/478 475/475/475 474/474/474
f 478/478/478 474/474/474 477/477/477
f 479/479/479 475/475/475 478/478/478
f 480/480/480 479/479/479 478/478/478
f 481/481/481 478/478/478 477/477/477
f 480/480/480 478/478/478 481/481/481
f 481/481/481 477/477/477 482/482/482
f 483/483/483 476/476/476 447/447/447
f 483/483/483 447/447/447 448/448/448
f 483/483/483 484/484/484 476/476/476
f 484/484/484 485/485/485 476/476/476
f 486/486/486 485/485/485 484/484/484
f 487/487/487 483/483/483 448/448/448
f 484/484/484 483/483/483 487/487/487
f 488/488/488 487/487/487 448/448/448
f 489/489/489 486/486/486 484/484/484
f 489/489/489 484/484/484 487/487/487
f 486/486/486 489/489/489 490/490/490
f 490/490/490 489/489/489 491/491/491
f 489/489/489 487/487/487 491/491/491
f 491/491/491 487/487/487 488/488/488
f 491/491/491 488/488/488 492/492/492
f 488/488/488 493/493/493 492/492/492
f 491/491/491 492/492/492 494/494/494
f 482/482/482 491/491/491 494/494/494
f 492/492/492 493/493/493 495/495/495
f 493/493/493 496/496/496 495/495/495
f 495/495/495 496/496/496 497/497/497
f 498/498/498 495/495/495 497/497/497
f 495/495/495 498/498/498 499/499/499
f 492/492/492 495/495/495 500/500/500
f 500/500/500 495/495/495 499/499/499
f 494/494/494 492/492/492 500/500/500
f 500/500/500 499/499/499 501/501/501
f 482/482/482 494/494/494 502/502/502
f 502/502/502 494/494/494 500/500/500
f 481/481/481 482/482/482 502/502/502
f 503/503/503 500/500/500 501/501/501
f 503/503/503 502/502/502 500/500/500
f 503/503/503 501/501/501 504/504/504
f 505/505/505 503/503/503 504/504/504
f 505/505/505 506/506/506 503/503/503
f 506/506/506 502/502/502 503/503/503
f 481/481/481 502/502/502 506/506/506
f 507/507/507 481/481/481 506/506/506
f 507/507/507 480/480/480 481/481/481
f 508/508/508 480/480/480 507/507/507
f 509/509/509 480/480/480 508/508/508
f 510/510/510 509/509/509 508/508/508
f 464/464/464 512/512/512 511/511/511
f 464/464/464 513/513/513 512/512/512
f 512/512/512 513/513/513 514/514/514
f 513/513/513 464/464/464 462/462/462
f 513/513/513 515/515/515 514/514/514
f 513/513/513 462/462/462 515/515/515
f 514/514/514 515/515/515 516/516/516
f 462/462/462 465/465/465 515/515/515
f 515/515/515 517/517/517 516/516/516
f 515/515/515 465/465/465 517/517/517
f 517/517/517 518/518/518 516/516/516
f 465/465/465 519/519/519 517/517/517
f 518/518/518 517/517/517 519/519/519
f 519/519/519 465/465/465 466/466/466
f 520/520/520 518/518/518 519/519/519
f 519/519/519 466/466/466 520/520/520
f 466/466/466 521/521/521 520/520/520
f 518/518/518 520/520/520 522/522/522
f 520/520/520 521/521/521 523/523/523
f 520/520/520 523/523/523 522/522/522
f 521/521/521 524/524/524 523/523/523
f 523/523/523 524/524/524 525/525/525
f 522/522/522 523/523/523 526/526/526
f 526/526/526 523/523/523 525/525/525
f 527/527/527 522/522/522 526/526/526
f 527/527/527 526/526/526 528/528/528
f 526/526/526 529/529/529 528/528/528
f 526/526/526 525/525/525 529/529/529
f 525/525/525 530/530/530 529/529/529
f 533/533/533 532/532/532 531/531/531
f 532/532/532 534/534/534 531/531/531
f 532/532/532 535/535/535 534/534/534
f 535/535/535 536/536/536 534/534/534
f 531/531/531 534/534/534 537/537/537
f 534/534/534 538/538/538 537/537/537
f 538/538/538 539/539/539 537/537/537
f 534/534/534 540/540/540 538/538/538
f 540/540/540 541/541/541 538/538/538
f 544/544/544 543/543/543 542/542/542
f 545/545/545 544/544/544 542/542/542
f 546/546/546 545/545/545 542/542/542
f 546/546/546 542/542/542 547/547/547
f 542/542/542 548/548/548 547/547/547
f 547/547/547 548/548/548 549/549/549
f 550/550/550 547/547/547 549/549/549
f 550/550/550 549/549/549 551/551/551
f 551/551/551 549/549/549 552/552/552
f 553/553/553 551/551/551 552/552/552
f 553/553/553 554/554/554 551/551/551
f 551/551/551 554/554/554 555/555/555
f 550/550/550 551/551/551 555/555/555
f 556/556/556 550/550/550 555/555/555
f 559/559/559 558/558/558 557/557/557
f 558/558/558 560/560/560 557/557/557
f 557/557/557 560/560/560 561/561/561
f 560/560/560 562/562/562 561/561/561
f 561/561/561 562/562/562 563/563/563
f 564/564/564 561/561/561 563/563/563
f 567/567/567 566/566/566 565/565/565
f 568/568/568 567/567/567 565/565/565
f 569/569/569 568/568/568 565/565/565
f 569/569/569 565/565/565 570/570/570
f 569/569/569 570/570/570 571/571/571
f 570/570/570 572/572/572 571/571/571
f 569/569/569 571/571/571 573/573/573
f 567/567/567 575/575/575 574/574/574
f 282/282/282 567/567/567 574/574/574
f 578/578/578 577/577/577 576/576/576
f 577/577/577 579/579/579 576/576/576
f 576/576/576 579/579/579 580/580/580
f 579/579/579 581/581/581 580/580/580
f 579/579/579 582/582/582 581/581/581
f 580/580/580 581/581/581 583/583/583
f 584/584/584 580/580/580 583/583/583
f 584/584/584 583/583/583 585/585/585
f 583/583/583 586/586/586 585/585/585
f 582/582/582 587/587/587 581/581/581
f 582/582/582 588/588/588 587/587/587
f 583/583/583 581/581/581 589/589/589
f 583/583/583 589/589/589 586/586/586
f 581/581/581 587/587/587 589/589/589
f 588/588/588 590/590/590 587/587/587
f 589/589/589 587/587/587 590/590/590
f 588/588/588 591/591/591 590/590/590
f 591/591/591 592/592/592 590/590/590
f 589/589/589 593/593/593 586/586/586
f 593/593/593 589/589/589 590/590/590
f 590/590/590 592/592/592 593/593/593
f 593/593/593 594/594/594 586/586/586
f 592/592/592 595/595/595 593/593/593
f 594/594/594 593/593/593 596/596/596
f 593/593/593 595/595/595 596/596/596
f 599/599/599 598/598/598 597/597/597
f 597/597/597 600/600/600 599/599/599
f 601/601/601 600/600/600 597/597/597
f 602/602/602 600/600/600 601/601/601
f 600/600/600 603/603/603 599/599/599
f 603/603/603 604/604/604 599/599/599
f 604/604/604 603/603/603 605/605/605
f 604/604/604 605/605/605 606/606/606
f 606/606/606 607/607/607 604/604/604
f 607/607/607 608/608/608 604/604/604
f 607/607/607 609/609/609 608/608/608
f 609/609/609 610/610/610 608/608/608
f 610/610/610 611/611/611 608/608/608
f 610/610/610 609/609/609 612/612/612
f 612/612/612 613/613/613 610/610/610
f 613/613/613 614/614/614 610/610/610
f 613/613/613 615/615/615 614/614/614
f 615/615/615 616/616/616 614/614/614
f 619/619/619 618/618/618 617/617/617
f 619/619/619 617/617/617 620/620/620
f 621/621/621 619/619/619 620/620/620
f 620/620/620 622/622/622 621/621/621
f 625/625/625 624/624/624 623/623/623
f 624/624/624 626/626/626 623/623/623
f 624/624/624 627/627/627 626/626/626
f 623/623/623 626/626/626 628/628/628
f 627/627/627 629/629/629 626/626/626
f 626/626/626 630/630/630 628/628/628
f 630/630/630 626/626/626 629/629/629
f 631/631/631 630/630/630 629/629/629
f 631/631/631 632/632/632 630/630/630
f 632/632/632 633/633/633 630/630/630
f 630/630/630 634/634/634 628/628/628
f 633/633/633 634/634/634 630/630/630
f 635/635/635 634/634/634 633/633/633
f 635/635/635 636/636/636 634/634/634
f 636/636/636 637/637/637 634/634/634
f 640/640/640 639/639/639 638/638/638
f 639/639/639 641/641/641 638/638/638
f 641/641/641 639/639/639 642/642/642
f 643/643/643 641/641/641 642/642/642
f 643/643/643 644/644/644 641/641/641
f 644/644/644 645/645/645 641/641/641
f 646/646/646 643/643/643 642/642/642
f 647/647/647 646/646/646 642/642/642
f 648/648/648 643/643/643 646/646/646
f 649/649/649 648/648/648 646/646/646
f 647/647/647 650/650/650 646/646/646
f 651/651/651 646/646/646 650/650/650
f 652/652/652 651/651/651 650/650/650
f 654/654/654 653/653/653 650/650/650
f 655/655/655 654/654/654 650/650/650
f 658/658/658 657/657/657 656/656/656
f 659/659/659 658/658/658 656/656/656
f 661/661/661 660/660/660 656/656/656
f 11/11/11 661/661/661 656/656/656
f 664/664/664 663/663/663 662/662/662
f 664/664/664 665/665/665 663/663/663
f 663/663/663 665/665/665 666/666/666
f 662/662/662 663/663/663 667/667/667
f 668/668/668 662/662/662 667/667/667
f 669/669/669 663/663/663 666/666/666
f 667/667/667 663/663/663 669/669/669
f 666/666/666 670/670/670 669/669/669
f 671/671/671 669/669/669 670/670/670
f 671/671/671 667/667/667 669/669/669
f 672/672/672 671/671/671 670/670/670
f 668/668/668 667/667/667 673/673/673
f 673/673/673 667/667/667 671/671/671
f 674/674/674 668/668/668 673/673/673
f 675/675/675 671/671/671 672/672/672
f 675/675/675 673/673/673 671/671/671
f 674/674/674 673/673/673 675/675/675
f 676/676/676 675/675/675 672/672/672
f 676/676/676 674/674/674 675/675/675
f 679/679/679 678/678/678 677/677/677
f 680/680/680 679/679/679 677/677/677
f 681/681/681 678/678/678 679/679/679
f 682/682/682 679/679/679 680/680/680
f 683/683/683 682/682/682 680/680/680
f 684/684/684 682/682/682 683/683/683
f 684/684/684 685/685/685 682/682/682
f 685/685/685 686/686/686 682/682/682
f 682/682/682 686/686/686 679/679/679
f 687/687/687 686/686/686 685/685/685
f 688/688/688 686/686/686 687/687/687
f 689/689/689 681/681/681 679/679/679
f 686/686/686 689/689/689 679/679/679
f 686/686/686 688/688/688 689/689/689
f 681/681/681 689/689/689 690/690/690
f 688/688/688 691/691/691 689/689/689
f 689/689/689 691/691/691 690/690/690
f 694/694/694 693/693/693 692/692/692
f 695/695/695 694/694/694 692/692/692
f 694/694/694 696/696/696 693/693/693
f 694/694/694 695/695/695 697/697/697
f 695/695/695 698/698/698 697/697/697
f 699/699/699 697/697/697 698/698/698
f 697/697/697 699/699/699 700/700/700
f 701/701/701 697/697/697 700/700/700
f 694/694/694 697/697/697 701/701/701
f 701/701/701 700/700/700 702/702/702
f 694/694/694 703/703/703 696/696/696
f 703/703/703 694/694/694 701/701/701
f 703/703/703 701/701/701 702/702/702
f 703/703/703 704/704/704 696/696/696
f 705/705/705 703/703/703 702/702/702
f 703/703/703 705/705/705 704/704/704
