g tb_geo_meeple_p4c3_a_mesh
v -2.4417229 2.1402857 -1.7981977
v -1.5231743 1.5927554 -0.68463224
v -2.4417236 1.6343837 -0.66603154
v -1.5231736 2.0986574 -1.8167984
v -1.804504 1.6225712 -0.71737343
v -1.4853939 1.479491 -0.43599886
v -1.8045042 1.493953 -0.42953682
v -1.4853938 1.6081092 -0.72383547
v -2.6149025 1.9008294 -1.106586
v -2.3126063 1.44482 0.05006194
v -2.6244056 1.4898537 0.06334877
v -2.3031032 1.8557957 -1.1198728
v -2.5682542 1.4825574 0.0582041
v -1.9278405 1.4111365 -0.02885954
v -2.0017612 1.3424275 0.19944839
v -2.4943335 1.5512664 -0.17010383
v -2.6225176 2.145835 -1.7984864
v -2.4605327 1.8689446 -1.0864106
v -2.6283598 1.8931842 -1.079259
v -2.4546905 2.1215954 -1.805638
vt 0 0
vt 1 1
vt 1 0
vt 0 1
vt 0 0
vt 1 1
vt 1 0
vt 0 1
vt 0 0
vt 1 1
vt 1 0
vt 0 1
vt 0 0
vt 1 1
vt 1 0
vt 0 1
vt 0 0
vt 1 1
vt 1 0
vt 0 1
vn 0.04957693 0.9118739 0.4074656
vn 0.04957693 0.9118739 0.4074656
vn 0.04957693 0.9118739 0.4074656
vn 0.04957693 0.9118739 0.4074656
vn 0.049577042 0.91187376 0.40746567
vn 0.049577042 0.91187376 0.40746567
vn 0.049577042 0.91187376 0.40746567
vn 0.049577042 0.91187376 0.40746567
vn 0.14871071 0.93261176 0.32881668
vn 0.14871071 0.93261176 0.32881668
vn 0.14871071 0.93261176 0.32881668
vn 0.14871071 0.93261176 0.32881668
vn 0.1487101 0.93261176 0.32881704
vn 0.1487101 0.93261176 0.32881704
vn 0.1487101 0.93261176 0.32881704
vn 0.1487101 0.93261176 0.32881704
vn 0.14871065 0.93261176 0.32881668
vn 0.14871065 0.93261176 0.32881668
vn 0.14871065 0.93261176 0.32881668
vn 0.14871065 0.93261176 0.32881668
g tb_geo_meeple_p4c3_a_mesh_0
f 3/3/3 2/2/2 1/1/1
f 4/4/4 1/1/1 2/2/2
f 7/7/7 6/6/6 5/5/5
f 8/8/8 5/5/5 6/6/6
f 11/11/11 10/10/10 9/9/9
f 12/12/12 9/9/9 10/10/10
f 15/15/15 14/14/14 13/13/13
f 16/16/16 13/13/13 14/14/14
f 19/19/19 18/18/18 17/17/17
f 20/20/20 17/17/17 18/18/18
