g tb_geo_meeple_p2c2_a_mesh
v 0.1775232 1.2766236 -1.4265897
v 1.6214948 1.2766243 -1.3350303
v 1.0065743 1.276624 -0.6653409
v 0.79244363 1.276624 -2.0962791
v 0.8454859 1.2766234 -1.582305
v 1.8985293 1.2766246 -2.3502889
v 1.9652132 1.2766242 -1.6965154
v 0.77880204 1.2766237 -2.2360783
v 2.335072 1.2766315 -1.483328
v 1.588834 1.2766308 -1.9269212
v 1.9477478 1.2766317 -2.138956
v 1.9761583 1.2766305 -1.271293
v 1.5553768 1.2766236 -1.2478486
v 1.232661 1.2766243 -2.0537694
v 1.6465352 1.2766248 -2.0038657
v 1.1415026 1.2766231 -1.2977525
v 2.1892445 1.0554345 0.1302954
v 1.7433544 1.116293 -1.1046373
v 2.3123698 0.9815228 -1.0360273
v 1.620229 1.1902046 0.061685443
v 1.2392743 1.318146 1.0201635
v 1.789413 1.1323836 -0.37744647
v 2.1588657 1.0560809 -0.037231386
v 0.8698216 1.3944486 0.6799485
v 1.6875348 1.1669749 -0.12586236
v 1.666913 1.1426865 -0.8983712
v 2.0515168 1.0659099 -0.47411335
v 1.3029311 1.2437515 -0.55012023
v 0.3935852 1.3320589 0.40263692
v 0.79499817 1.523469 -0.9220909
v 0.8934241 1.4467707 0.37140456
v 0.29515928 1.4087572 -0.89085853
v 0.49838907 1.3038354 1.0617899
v 1.1538866 1.2582159 0.552336
v 1.1899388 1.2868478 1.0081605
v 0.46233678 1.2752035 0.6059653
vt 0 0
vt 1 1
vt 1 0
vt 0 1
vt 0 0
vt 1 1
vt 1 0
vt 0 1
vt 0 0
vt 1 1
vt 1 0
vt 0 1
vt 0 0
vt 1 1
vt 1 0
vt 0 1
vt 0 0
vt 1 1
vt 1 0
vt 0 1
vt 0 0
vt 1 1
vt 1 0
vt 0 1
vt 0 0
vt 1 1
vt 1 0
vt 0 1
vt 0 0
vt 1 1
vt 1 0
vt 0 1
vt 0 0
vt 1 1
vt 1 0
vt 0 1
vn -4.650004E-07 1 -2.9364635E-09
vn -4.650004E-07 1 -2.9364635E-09
vn -4.650004E-07 1 -2.9364635E-09
vn -4.650004E-07 1 -2.9364635E-09
vn -7.103893E-07 1 6.910185E-07
vn -7.103893E-07 1 6.910185E-07
vn -7.103893E-07 1 6.910185E-07
vn -7.103893E-07 1 6.910185E-07
vn -1.8743145E-06 1 1.2997741E-06
vn -1.8743145E-06 1 1.2997741E-06
vn -1.8743145E-06 1 1.2997741E-06
vn -1.8743145E-06 1 1.2997741E-06
vn -1.1274378E-06 1 1.4031508E-06
vn -1.1274378E-06 1 1.4031508E-06
vn -1.1274378E-06 1 1.4031508E-06
vn -1.1274378E-06 1 1.4031508E-06
vn 0.23451541 0.9714155 -0.036803
vn 0.23451541 0.9714155 -0.036803
vn 0.23451541 0.9714155 -0.036803
vn 0.23451541 0.9714155 -0.036803
vn 0.2345158 0.9714154 -0.03680308
vn 0.2345158 0.9714154 -0.03680308
vn 0.2345158 0.9714154 -0.03680308
vn 0.2345158 0.9714154 -0.03680308
vn 0.2345161 0.9714154 -0.03680244
vn 0.2345161 0.9714154 -0.03680244
vn 0.2345161 0.9714154 -0.03680244
vn 0.2345161 0.9714154 -0.03680244
vn -0.21864942 0.9729684 0.07433026
vn -0.21864942 0.9729684 0.07433026
vn -0.21864942 0.9729684 0.07433026
vn -0.21864942 0.9729684 0.07433026
vn 0.019529153 0.99774486 -0.064216316
vn 0.019529153 0.99774486 -0.064216316
vn 0.019529153 0.99774486 -0.064216316
vn 0.019529153 0.99774486 -0.064216316
g tb_geo_meeple_p2c2_a_mesh_0
f 3/3/3 2/2/2 1/1/1
f 4/4/4 1/1/1 2/2/2
f 7/7/7 6/6/6 5/5/5
f 8/8/8 5/5/5 6/6/6
f 11/11/11 10/10/10 9/9/9
f 12/12/12 9/9/9 10/10/10
f 15/15/15 14/14/14 13/13/13
f 16/16/16 13/13/13 14/14/14
f 19/19/19 18/18/18 17/17/17
f 20/20/20 17/17/17 18/18/18
f 23/23/23 22/22/22 21/21/21
f 24/24/24 21/21/21 22/22/22
f 27/27/27 26/26/26 25/25/25
f 28/28/28 25/25/25 26/26/26
f 31/31/31 30/30/30 29/29/29
f 32/32/32 29/29/29 30/30/30
f 35/35/35 34/34/34 33/33/33
f 36/36/36 33/33/33 34/34/34
