g tb_geo_light_outline_10_mesh
v -0.7217221 0.2060287 -0.7707297
v -0.77853584 0.21695441 -0.7751
v -0.719537 0.2060287 -0.7751
v -0.77853584 0.21695441 -0.7707297
v -0.77853584 0.21695441 -0.7641743
v -0.72390735 0.2082138 -0.7641743
v -1.2505264 0.45294976 -0.7707297
v -1.4603002 0.45294976 -0.60465896
v -1.2527115 0.45294976 -0.7751
v -1.4559298 0.45294976 -0.6024738
v -1.4603002 0.45294976 -0.39707047
v -1.4559298 0.45294976 -0.39707047
v -1.4493744 0.45294976 -0.39707047
v -1.4493744 0.45294976 -0.6002886
v -1.2483413 0.45294976 -0.7641743
v -1.0145311 0.45294976 -0.7641743
v -1.0145311 0.45294976 -0.7707297
v -0.70205593 0.20384353 -0.75761884
v -0.7217221 0.2060287 -0.7707297
v -0.719537 0.2060287 -0.7751
v -0.70642614 0.20384353 -0.75543374
v -0.6802045 0.19947326 -0.7357674
v -0.6823896 0.19947326 -0.73139715
v -0.6867598 0.19947326 -0.72921205
v -0.7107965 0.20384353 -0.7510634
v -0.72390735 0.2082138 -0.7641743
v -0.6496124 0.1972881 -0.69862
v -0.6802045 0.19947326 -0.7357674
v -0.6474273 0.1972881 -0.7029903
v -0.6823896 0.19947326 -0.73139715
v -0.65398276 0.1972881 -0.69424975
v -0.6867598 0.19947326 -0.72921205
v -0.6015394 0.1972881 -0.65710235
v -0.6496124 0.1972881 -0.69862
v -0.6474273 0.1972881 -0.7029903
v -0.6059096 0.1972881 -0.6527321
v -0.549096 0.1972881 -0.59591836
v -0.54472566 0.1972881 -0.5981035
v -0.6102799 0.1972881 -0.6505469
v -0.65398276 0.1972881 -0.69424975
v -0.5534662 0.1972881 -0.5937332
v -0.549096 0.1972881 -0.57406694
v -0.54472566 0.1972881 -0.57406694
v -0.5534662 0.1972881 -0.5937332
v -0.549096 0.1972881 -0.59591836
v -0.5534662 0.1972881 -0.57406694
v -1.2505264 0.45294976 -0.7707297
v -1.2527115 0.45294976 -0.7751
v -1.0145311 0.45294976 -0.7751
v -1.0145311 0.45294976 -0.7707297
v -0.77853584 0.21695441 -0.7707297
v -0.80257237 0.23880577 -0.7751
v -0.77853584 0.21695441 -0.7751
v -0.80257237 0.23880577 -0.7707297
v -0.77853584 0.21695441 -0.7641743
v -0.80257237 0.240991 -0.7641743
v -0.9883095 0.42017257 -0.7707297
v -1.0145311 0.45294976 -0.7751
v -0.9883095 0.42017257 -0.7751
v -1.0145311 0.45294976 -0.7707297
v -1.0145311 0.45294976 -0.7641743
v -0.9883095 0.41798747 -0.7641743
v -0.9883095 0.42017257 -0.7751
v -0.9533472 0.41798747 -0.7751
v -0.9533472 0.41798747 -0.7707297
v -0.9883095 0.42017257 -0.7707297
v -0.9883095 0.41798747 -0.7641743
v -0.9533472 0.41798747 -0.7641743
v -0.9533472 0.41798747 -0.7751
v -0.92275524 0.37428463 -0.7751
v -0.92275524 0.37209952 -0.7707297
v -0.9533472 0.41798747 -0.7707297
v -0.9533472 0.41798747 -0.7641743
v -0.92275524 0.37209952 -0.7641743
v -0.92275524 0.37428463 -0.7751
v -0.8768672 0.35680342 -0.7751
v -0.8768672 0.35680342 -0.7707297
v -0.92275524 0.37209952 -0.7707297
v -0.86812663 0.33058178 -0.7707297
v -0.8768672 0.35680342 -0.7751
v -0.86812663 0.33058178 -0.7751
v -0.8768672 0.35680342 -0.7707297
v -0.86812663 0.33058178 -0.7641743
v -0.8768672 0.35680342 -0.7641743
v -0.81349814 0.33058178 -0.7707297
v -0.86812663 0.33058178 -0.7751
v -0.81349814 0.33058178 -0.7751
v -0.86812663 0.33058178 -0.7707297
v -0.81349814 0.33058178 -0.7641743
v -0.86812663 0.33058178 -0.7641743
v -0.8069427 0.2803235 -0.7751
v -0.8069427 0.2803235 -0.7707297
v -0.81568325 0.28687894 -0.7707297
v -0.81568325 0.28687894 -0.7751
v -0.80257237 0.23880577 -0.7751
v -0.8069427 0.2803235 -0.7707297
v -0.8069427 0.2803235 -0.7751
v -0.80257237 0.23880577 -0.7707297
v -0.80257237 0.240991 -0.7641743
v -0.8069427 0.2803235 -0.7641743
v -1.4559298 0.45294976 -0.39707047
v -1.4603002 0.41580236 -0.37521905
v -1.4603002 0.45294976 -0.39707047
v -1.4559298 0.41580236 -0.37521905
v -1.4493744 0.41580236 -0.37521905
v -1.4493744 0.45294976 -0.39707047
v -1.4559298 0.41580236 -0.37521905
v -1.4603002 0.35680342 -0.37958932
v -1.4603002 0.41580236 -0.37521905
v -1.4559298 0.35680342 -0.37958932
v -1.4493744 0.41580236 -0.37521905
v -1.4493744 0.35680342 -0.37958932
v -0.549096 0.020291626 -0.34025678
v -0.54472566 0.020291626 -0.34025678
v -0.56220675 0.037772775 -0.32277563
v -0.5665771 0.037772775 -0.32496077
v -0.57750285 0.04651332 -0.30747965
v -0.5665771 0.037772775 -0.32496077
v -0.56220675 0.037772775 -0.32277563
v -0.58187306 0.04651332 -0.31184992
v -0.5687622 0.037772775 -0.32933107
v -0.5862434 0.04651332 -0.31403506
v -0.57750285 0.04651332 -0.30747965
v -0.6015394 0.048698485 -0.28562823
v -0.6037245 0.048698485 -0.2899985
v -0.58187306 0.04651332 -0.31184992
v -0.5862434 0.04651332 -0.31403506
v -0.6080948 0.04651332 -0.2943688
v -0.6015394 0.048698485 -0.28562823
v -0.69331527 0.042143047 -0.20040768
v -0.6955005 0.042143047 -0.20477796
v -0.6037245 0.048698485 -0.2899985
v -0.6998707 0.044328213 -0.20696312
v -0.6080948 0.04651332 -0.2943688
v -0.72609246 0.026847064 -0.16981572
v -0.6955005 0.042143047 -0.20477796
v -0.69331527 0.042143047 -0.20040768
v -0.7304627 0.026847064 -0.17200083
v -0.6998707 0.044328213 -0.20696312
v -0.7326479 0.02903217 -0.17637116
v -0.7479439 0.020291626 -0.16107512
v -0.750129 0.01810646 -0.15451974
v -0.750129 0.01810646 -0.1479643
v -0.8244238 0.013736188 -0.22881454
v -0.8222387 0.013736188 -0.23318481
v -0.8200536 0.015921354 -0.23755509
v -0.8768672 0.35680342 -0.7707297
v -0.8768672 0.35680342 -0.7641743
v -0.92275524 0.37209952 -0.7641743
v -0.92275524 0.37209952 -0.7707297
v -0.8069427 0.2803235 -0.7641743
v -0.81568325 0.28687894 -0.7641743
v -0.81568325 0.28687894 -0.7707297
v -0.8069427 0.2803235 -0.7707297
v -0.549096 0.020291626 -0.34025678
v -0.5534662 0.01810646 -0.34244192
v -0.5534662 0.020291626 -0.3730339
v -0.549096 0.020291626 -0.3730339
v -0.54472566 0.020291626 -0.34025678
v -0.54472566 0.022476792 -0.3730339
v -0.5534662 0.022476792 -0.405811
v -0.549096 0.022476792 -0.405811
v -0.54472566 0.022476792 -0.405811
v -0.54472566 0.024661899 -0.43858814
v -0.549096 0.024661899 -0.43858814
v -0.5534662 0.024661899 -0.43858814
v -0.5534662 0.024661899 -0.4626247
v -0.549096 0.024661899 -0.4626247
v -0.54472566 0.024661899 -0.4626247
v -0.5687622 0.037772775 -0.32933107
v -0.5534662 0.01810646 -0.34244192
v -0.549096 0.020291626 -0.34025678
v -0.5665771 0.037772775 -0.32496077
v -0.549096 0.1972881 -0.57406694
v -0.54472566 0.1972881 -0.57406694
v -0.54472566 0.19073272 -0.5565858
v -0.549096 0.18854755 -0.5565858
v -0.5534662 0.18854755 -0.5565858
v -0.5534662 0.1972881 -0.57406694
v -0.54472566 0.17762184 -0.54566014
v -0.549096 0.18854755 -0.5565858
v -0.54472566 0.19073272 -0.5565858
v -0.549096 0.17543668 -0.54566014
v -0.5534662 0.17325157 -0.54566014
v -0.5534662 0.18854755 -0.5565858
v -0.54472566 0.15577042 -0.52162355
v -0.549096 0.17543668 -0.54566014
v -0.54472566 0.17762184 -0.54566014
v -0.549096 0.15358526 -0.52162355
v -0.5534662 0.15358526 -0.52162355
v -0.5534662 0.17325157 -0.54566014
v -0.54472566 0.09458643 -0.51069784
v -0.549096 0.15358526 -0.52162355
v -0.54472566 0.15577042 -0.52162355
v -0.549096 0.092401326 -0.51069784
v -0.5534662 0.15358526 -0.52162355
v -0.5534662 0.08803105 -0.51069784
v -0.54472566 0.09458643 -0.51069784
v -0.54472566 0.044328213 -0.4932167
v -0.549096 0.037772775 -0.4932167
v -0.549096 0.092401326 -0.51069784
v -0.5534662 0.02903217 -0.4932167
v -0.5534662 0.08803105 -0.51069784
v -0.54472566 0.024661899 -0.47573557
v -0.549096 0.024661899 -0.47573557
v -0.549096 0.037772775 -0.4932167
v -0.54472566 0.044328213 -0.4932167
v -0.549096 0.024661899 -0.47573557
v -0.5534662 0.024661899 -0.47573557
v -0.5534662 0.02903217 -0.4932167
v -0.549096 0.037772775 -0.4932167
v -0.54472566 0.024661899 -0.4626247
v -0.549096 0.024661899 -0.47573557
v -0.54472566 0.024661899 -0.47573557
v -0.549096 0.024661899 -0.4626247
v -0.5534662 0.024661899 -0.47573557
v -0.5534662 0.024661899 -0.4626247
v -1.4559298 0.35680342 -0.37521905
v -1.4559298 0.35680342 -0.37958932
v -1.4493744 0.35680342 -0.37958932
v -1.4603002 0.35680342 -0.37958932
v -1.4603002 0.35680342 -0.37084875
v -1.3554132 0.3524332 -0.37521905
v -1.4493744 0.35680342 -0.37958932
v -1.3554132 0.3524332 -0.3686636
v -1.3554132 0.3524332 -0.37958932
v -1.241786 0.3524332 -0.37521905
v -1.241786 0.3524332 -0.37958932
v -1.2439711 0.3524332 -0.3686636
v -1.1915276 0.34587777 -0.37958932
v -1.1937128 0.34587777 -0.37521905
v -1.1937128 0.34587777 -0.3686636
v -1.1587505 0.33058178 -0.37521905
v -1.1565654 0.33058178 -0.37958932
v -1.1587505 0.33058178 -0.3686636
v -1.1303437 0.28469384 -0.37521905
v -1.1281586 0.28687894 -0.37958932
v -1.1303437 0.2825086 -0.3686636
v -0.8091278 0.30217493 -0.7707297
v -0.81349814 0.33058178 -0.7751
v -0.8091278 0.30217493 -0.7751
v -0.81349814 0.33058178 -0.7707297
v -0.8091278 0.30217493 -0.7641743
v -0.81349814 0.33058178 -0.7641743
v -0.81568325 0.28687894 -0.7707297
v -0.8091278 0.30217493 -0.7707297
v -0.8091278 0.30217493 -0.7751
v -0.81568325 0.28687894 -0.7751
v -0.81568325 0.28687894 -0.7641743
v -0.8091278 0.30217493 -0.7641743
v -0.8091278 0.30217493 -0.7707297
v -0.81568325 0.28687894 -0.7707297
v -0.54472566 -0.016855776 -0.34025678
v -0.54472566 0.020291626 -0.34025678
v -0.54472566 0.022476792 -0.3730339
v -0.54472566 -0.01467061 -0.3730339
v -0.54472566 0.022476792 -0.405811
v -0.54472566 -0.012485504 -0.405811
v -0.54472566 0.024661899 -0.43858814
v -0.54472566 -0.012485504 -0.43858814
v -0.54472566 0.024661899 -0.4626247
v -0.54472566 -0.012485504 -0.4626247
v -0.54472566 0.024661899 -0.47573557
v -0.54472566 -0.012485504 -0.4866613
v -0.54472566 0.044328213 -0.4932167
v -0.54472566 0.009365916 -0.5019573
v -0.54472566 0.09458643 -0.51069784
v -0.54472566 0.05743903 -0.5194384
v -0.54472566 0.15577042 -0.52162355
v -0.54472566 0.11862302 -0.5303641
v -0.54472566 0.17762184 -0.54566014
v -0.54472566 0.14047444 -0.54566014
v -0.54472566 0.19073272 -0.5565858
v -0.54472566 0.15358526 -0.5565858
v -0.54472566 0.1972881 -0.57406694
v -0.54472566 0.1601407 -0.57406694
v -0.54472566 0.1972881 -0.5981035
v -0.54472566 0.16232586 -0.5981035
v -0.719537 0.1710664 -0.7751
v -0.719537 0.2060287 -0.7751
v -0.77853584 0.21695441 -0.7751
v -0.77853584 0.179807 -0.7751
v -0.80257237 0.23880577 -0.7751
v -0.8113129 0.2082138 -0.7751
v -0.8069427 0.2803235 -0.7751
v -0.81786835 0.25410175 -0.7751
v -0.81568325 0.28687894 -0.7751
v -0.8287941 0.26939785 -0.7751
v -0.8091278 0.30217493 -0.7751
v -0.8287941 0.2781384 -0.7751
v -0.81349814 0.33058178 -0.7751
v -0.826609 0.2956195 -0.7751
v -0.86812663 0.33058178 -0.7751
v -0.8812375 0.2956195 -0.7751
v -0.8768672 0.35680342 -0.7751
v -0.8921633 0.32184124 -0.7751
v -0.92275524 0.37428463 -0.7751
v -0.9293107 0.33713722 -0.7751
v -0.9533472 0.41798747 -0.7751
v -0.96208775 0.38302517 -0.7751
v -0.9883095 0.42017257 -0.7751
v -0.9883095 0.38521028 -0.7751
v -1.0145311 0.45294976 -0.7751
v -1.0189015 0.41580236 -0.7751
v -1.2527115 0.45294976 -0.7751
v -1.2527115 0.41580236 -0.7751
v -1.2527115 0.41580236 -0.7751
v -1.2527115 0.45294976 -0.7751
v -1.4603002 0.45294976 -0.60465896
v -1.4603002 0.41580236 -0.60465896
v -0.54472566 0.1972881 -0.5981035
v -0.6015394 0.1601407 -0.65710235
v -0.54472566 0.16232586 -0.5981035
v -0.6015394 0.1972881 -0.65710235
v -0.6474273 0.1972881 -0.7029903
v -0.6474273 0.1601407 -0.7029903
v -0.6802045 0.19947326 -0.7357674
v -0.6802045 0.16232586 -0.7357674
v -0.70205593 0.20384353 -0.75761884
v -0.70205593 0.16669613 -0.75761884
v -0.719537 0.2060287 -0.7751
v -0.719537 0.1710664 -0.7751
v -1.4603002 0.41580236 -0.60465896
v -1.4603002 0.45294976 -0.60465896
v -1.4603002 0.45294976 -0.39707047
v -1.4603002 0.41580236 -0.42110702
v -1.4603002 0.41580236 -0.37521905
v -1.4603002 0.3895806 -0.40362588
v -1.4603002 0.35680342 -0.37958932
v -1.4603002 0.32184124 -0.3992556
v -1.4603002 0.35680342 -0.37084875
v -1.4603002 0.32184124 -0.3883299
v -0.56220675 0.00062537193 -0.32277563
v -0.54472566 0.020291626 -0.34025678
v -0.54472566 -0.016855776 -0.34025678
v -0.56220675 0.037772775 -0.32277563
v -0.57750285 0.009365916 -0.30747965
v -0.57750285 0.04651332 -0.30747965
v -0.6015394 0.011551082 -0.28562823
v -0.6015394 0.048698485 -0.28562823
v -0.69331527 0.0071807504 -0.20040768
v -0.69331527 0.042143047 -0.20040768
v -0.72609246 -0.010300338 -0.16981572
v -0.72609246 0.026847064 -0.16981572
v -0.750129 -0.019040942 -0.1479643
v -0.750129 0.01810646 -0.1479643
v -1.4493744 0.41580236 -0.42110702
v -1.4493744 0.45294976 -0.6002886
v -1.4493744 0.41580236 -0.6002886
v -1.4493744 0.45294976 -0.39707047
v -1.4493744 0.3895806 -0.40362588
v -1.4493744 0.41580236 -0.37521905
v -1.4493744 0.319656 -0.3992556
v -1.4493744 0.35680342 -0.37958932
v -1.4493744 0.41580236 -0.6002886
v -1.4493744 0.45294976 -0.6002886
v -1.2483413 0.45294976 -0.7641743
v -1.2483413 0.41580236 -0.7641743
v -1.2483413 0.41580236 -0.7641743
v -1.2483413 0.45294976 -0.7641743
v -1.0145311 0.45294976 -0.7641743
v -1.0189015 0.41580236 -0.7641743
v -0.9883095 0.41798747 -0.7641743
v -0.9883095 0.38302517 -0.7641743
v -0.9533472 0.41798747 -0.7641743
v -0.96208775 0.38302517 -0.7641743
v -0.92275524 0.37209952 -0.7641743
v -0.9293107 0.334952 -0.7641743
v -0.8768672 0.35680342 -0.7641743
v -0.8921633 0.319656 -0.7641743
v -0.86812663 0.33058178 -0.7641743
v -0.8812375 0.2956195 -0.7641743
v -0.81349814 0.33058178 -0.7641743
v -0.826609 0.2956195 -0.7641743
v -0.8091278 0.30217493 -0.7641743
v -0.8287941 0.2803235 -0.7641743
v -0.81568325 0.28687894 -0.7641743
v -0.8287941 0.27158296 -0.7641743
v -0.8069427 0.2803235 -0.7641743
v -0.81786835 0.25628698 -0.7641743
v -0.80257237 0.240991 -0.7641743
v -0.8113129 0.21039897 -0.7641743
v -0.77853584 0.21695441 -0.7641743
v -0.77853584 0.18199211 -0.7641743
v -0.72390735 0.2082138 -0.7641743
v -0.72390735 0.1710664 -0.7641743
v -0.72390735 0.1710664 -0.7641743
v -0.72390735 0.2082138 -0.7641743
v -0.7107965 0.20384353 -0.7510634
v -0.7107965 0.1688813 -0.7510634
v -0.6867598 0.19947326 -0.72921205
v -0.6867598 0.16232586 -0.72921205
v -0.65398276 0.1972881 -0.69424975
v -0.65398276 0.1601407 -0.69424975
v -0.6102799 0.1972881 -0.6505469
v -0.6102799 0.1601407 -0.6505469
v -0.5534662 0.1601407 -0.5937332
v -0.5534662 0.1972881 -0.5937332
v -0.5534662 -0.01467061 -0.3730339
v -0.5534662 0.01810646 -0.34244192
v -0.5534662 -0.016855776 -0.34244192
v -0.5534662 0.020291626 -0.3730339
v -0.5534662 -0.01467061 -0.405811
v -0.5534662 0.022476792 -0.405811
v -0.5534662 -0.012485504 -0.43858814
v -0.5534662 0.024661899 -0.43858814
v -0.5534662 -0.012485504 -0.4626247
v -0.5534662 0.024661899 -0.4626247
v -0.5534662 -0.012485504 -0.4866613
v -0.5534662 0.024661899 -0.47573557
v -0.5534662 -0.008115232 -0.5019573
v -0.5534662 0.02903217 -0.4932167
v -0.5534662 0.05088359 -0.5194384
v -0.5534662 0.08803105 -0.51069784
v -0.5534662 0.11643785 -0.5303641
v -0.5534662 0.15358526 -0.52162355
v -0.5534662 0.13828927 -0.54566014
v -0.5534662 0.17325157 -0.54566014
v -0.5534662 0.15140015 -0.5565858
v -0.5534662 0.18854755 -0.5565858
v -0.5534662 0.1601407 -0.57406694
v -0.5534662 0.1972881 -0.57406694
v -0.5534662 0.1601407 -0.5937332
v -0.5534662 0.1972881 -0.5937332
v -0.5534662 -0.016855776 -0.34244192
v -0.5534662 0.01810646 -0.34244192
v -0.5687622 0.037772775 -0.32933107
v -0.5687622 0.004995644 -0.32933107
v -0.5862434 0.04651332 -0.31403506
v -0.5862434 0.015921354 -0.31403506
v -0.6080948 0.04651332 -0.2943688
v -0.6080948 0.020291626 -0.2943688
v -0.6998707 0.044328213 -0.20696312
v -0.6998707 0.013736188 -0.20696312
v -0.7326479 0.02903217 -0.17637116
v -0.7326479 -0.008115232 -0.17637116
v -0.7479439 0.020291626 -0.16107512
v -0.7479439 -0.01467061 -0.16107512
v -0.9380512 0.1972881 -0.23318481
v -0.9380512 0.1972881 -0.23755509
v -0.92057 0.19073272 -0.23755509
v -0.92494035 0.19073272 -0.23318481
v -0.94023633 0.1972881 -0.22881454
v -0.9293107 0.19073272 -0.22881454
v -0.83316433 0.015921354 -0.23755509
v -0.8200536 0.015921354 -0.23755509
v -0.8222387 0.013736188 -0.23318481
v -0.8397198 0.013736188 -0.23318481
v -0.8462752 0.013736188 -0.22881454
v -0.8244238 0.013736188 -0.22881454
v -0.90745926 0.133919 -0.23318481
v -0.9030889 0.133919 -0.23755509
v -0.8768672 0.12299329 -0.23755509
v -0.8790524 0.12299329 -0.23318481
v -0.9118295 0.133919 -0.22881454
v -0.8834226 0.12299329 -0.22881454
v -0.8790524 0.12299329 -0.23318481
v -0.8768672 0.12299329 -0.23755509
v -0.8615712 0.055253923 -0.23755509
v -0.8659415 0.053068757 -0.23318481
v -0.8834226 0.12299329 -0.22881454
v -0.87031186 0.05088359 -0.22881454
v -0.8397198 0.013736188 -0.23318481
v -0.83316433 0.015921354 -0.23755509
v -0.8462752 0.013736188 -0.22881454
v -0.9030889 0.133919 -0.23755509
v -0.92494035 0.19073272 -0.23318481
v -0.92057 0.19073272 -0.23755509
v -0.90745926 0.133919 -0.23318481
v -0.9118295 0.133919 -0.22881454
v -0.9293107 0.19073272 -0.22881454
v -0.8200536 0.015921354 -0.23755509
v -0.8200536 -0.02559632 -0.23755509
v -0.7479439 -0.01467061 -0.16107512
v -0.7479439 0.020291626 -0.16107512
v -0.83316433 0.015921354 -0.23755509
v -0.8200536 -0.02559632 -0.23755509
v -0.8200536 0.015921354 -0.23755509
v -0.857201 -0.027781487 -0.23755509
v -0.8615712 0.055253923 -0.23755509
v -0.90964437 0.070549905 -0.23755509
v -0.8768672 0.12299329 -0.23755509
v -0.9030889 0.133919 -0.23755509
v -0.92057 0.19073272 -0.23755509
v -0.9380512 0.1972881 -0.23755509
v -0.9380512 0.109882474 -0.23755509
v -1.1565654 0.33058178 -0.37958932
v -1.1281586 0.23443556 -0.37958932
v -1.1281586 0.28687894 -0.37958932
v -1.1784168 0.28906405 -0.37958932
v -1.1915276 0.34587777 -0.37958932
v -1.2111939 0.30436003 -0.37958932
v -1.241786 0.3524332 -0.37958932
v -1.2483413 0.31091547 -0.37958932
v -1.3554132 0.3524332 -0.37958932
v -1.3554132 0.30873036 -0.37958932
v -1.4493744 0.319656 -0.3992556
v -1.3554132 0.30873036 -0.37958932
v -1.3554132 0.3524332 -0.37958932
v -1.4493744 0.35680342 -0.37958932
v -1.0910112 0.19291782 -0.35336763
v -1.1281586 0.28687894 -0.37958932
v -1.1281586 0.23443556 -0.37958932
v -1.0910112 0.23443556 -0.35336763
v -1.0516785 0.179807 -0.32277563
v -1.0516785 0.22788012 -0.32277563
v -1.0407529 0.17543668 -0.31403506
v -1.0407529 0.21695441 -0.31403506
v -1.0079757 0.15358526 -0.29218364
v -1.0079757 0.19510299 -0.29218364
v -0.9380512 0.109882474 -0.23755509
v -0.9380512 0.1972881 -0.23755509
v -1.1303437 0.28469384 -0.37521905
v -1.0953814 0.23443556 -0.34244192
v -1.1303437 0.2825086 -0.3686636
v -1.0931963 0.23443556 -0.34899732
v -1.1281586 0.28687894 -0.37958932
v -1.0910112 0.23443556 -0.35336763
v -1.0516785 0.22788012 -0.32277563
v -1.0516785 0.22788012 -0.31840536
v -1.0538638 0.22788012 -0.31184992
v -1.042938 0.21695441 -0.3096648
v -1.0407529 0.21695441 -0.31403506
v -1.0451231 0.21695441 -0.3052945
v -1.0079757 0.19510299 -0.29218364
v -1.0101609 0.19510299 -0.28562823
v -0.9380512 0.1972881 -0.23755509
v -1.012346 0.19510299 -0.28125793
v -0.9380512 0.1972881 -0.23318481
v -0.94023633 0.1972881 -0.22881454
v -1.4603002 0.35680342 -0.37084875
v -1.3554132 0.3524332 -0.3686636
v -1.4603002 0.32184124 -0.3883299
v -1.3554132 0.30873036 -0.3686636
v -1.3554132 0.3524332 -0.3686636
v -1.2483413 0.31091547 -0.3686636
v -1.3554132 0.30873036 -0.3686636
v -1.2439711 0.3524332 -0.3686636
v -1.213379 0.30436003 -0.3686636
v -1.1937128 0.34587777 -0.3686636
v -1.180602 0.28687894 -0.3686636
v -1.1587505 0.33058178 -0.3686636
v -1.1303437 0.23443556 -0.3686636
v -1.1303437 0.2825086 -0.3686636
v -1.1303437 0.23443556 -0.3686636
v -1.1303437 0.2825086 -0.3686636
v -1.0953814 0.23443556 -0.34244192
v -1.0953814 0.19291782 -0.34244192
v -1.0538638 0.22788012 -0.31184992
v -1.0538638 0.179807 -0.31184992
v -1.0451231 0.17543668 -0.3052945
v -1.0451231 0.21695441 -0.3052945
v -1.012346 0.15140015 -0.28125793
v -1.012346 0.19510299 -0.28125793
v -0.94023633 0.1972881 -0.22881454
v -0.94023633 0.10769731 -0.22881454
v -0.9293107 0.0967716 -0.22881454
v -0.9293107 0.19073272 -0.22881454
v -0.9118295 0.06399447 -0.22881454
v -0.9118295 0.133919 -0.22881454
v -0.8834226 0.009365916 -0.22881454
v -0.8834226 0.12299329 -0.22881454
v -0.87031186 -0.03215176 -0.22881454
v -0.87031186 0.05088359 -0.22881454
v -0.8462752 -0.029966652 -0.22881454
v -0.8462752 0.013736188 -0.22881454
v -0.8244238 -0.029966652 -0.22881454
v -0.8244238 0.013736188 -0.22881454
v -0.8244238 0.013736188 -0.22881454
v -0.750129 0.01810646 -0.1479643
v -0.750129 -0.019040942 -0.1479643
v -0.8244238 -0.029966652 -0.22881454
vt 0.25098166 0.99607825
vt 0.23529543 0.9999998
vt 0.25490323 0.9999998
vt 0.23529543 0.99607825
vt 0.23529543 0.9921567
vt 0.25098166 0.9921567
vt 0.070589855 0.99607825
vt 1.756182E-06 0.8901961
vt 0.070589855 0.9999998
vt 1.756182E-06 0.8901961
vt 1.756182E-06 0.756863
vt 1.756182E-06 0.756863
vt 0.003923317 0.756863
vt 0.003923317 0.8862745
vt 0.070589855 0.9921567
vt 0.15294264 0.9921567
vt 0.15294264 0.99607825
vt 0.2588248 0.9882351
vt 0.25098166 0.99607825
vt 0.25490323 0.9999998
vt 0.2588248 0.9882351
vt 0.2666679 0.9725489
vt 0.2666679 0.9725489
vt 0.26274636 0.96862733
vt 0.25490323 0.98431355
vt 0.25098166 0.9921567
vt 0.2784326 0.9490195
vt 0.2666679 0.9725489
vt 0.2784326 0.95294106
vt 0.2666679 0.9725489
vt 0.27451104 0.9490195
vt 0.26274636 0.96862733
vt 0.29411885 0.92549014
vt 0.2784326 0.9490195
vt 0.2784326 0.95294106
vt 0.29411885 0.9215686
vt 0.3098051 0.8862745
vt 0.31372663 0.8862745
vt 0.29019728 0.917647
vt 0.27451104 0.9490195
vt 0.3098051 0.882353
vt 0.3098051 0.8705883
vt 0.31372663 0.8705883
vt 0.3098051 0.882353
vt 0.3098051 0.8862745
vt 0.3098051 0.8705883
vt 0.070589855 0.99607825
vt 0.070589855 0.9999998
vt 0.15294264 0.9999998
vt 0.15294264 0.99607825
vt 0.23529543 0.99607825
vt 0.22353074 0.9999998
vt 0.23529543 0.9999998
vt 0.22353074 0.99607825
vt 0.23529543 0.9921567
vt 0.22353074 0.9921567
vt 0.16078576 0.99607825
vt 0.15294264 0.9999998
vt 0.16078576 0.9999998
vt 0.15294264 0.99607825
vt 0.15294264 0.9921567
vt 0.16078576 0.9921567
vt 0.16078576 0.9999998
vt 0.17255045 0.9999998
vt 0.17255045 0.99607825
vt 0.16078576 0.99607825
vt 0.16078576 0.9921567
vt 0.17255045 0.9921567
vt 0.17255045 0.9999998
vt 0.18431513 0.9999998
vt 0.18431513 0.99607825
vt 0.17255045 0.99607825
vt 0.17255045 0.9921567
vt 0.18431513 0.9921567
vt 0.18431513 0.9999998
vt 0.20000137 0.9999998
vt 0.20000137 0.99607825
vt 0.18431513 0.99607825
vt 0.20392294 0.99607825
vt 0.20000137 0.9999998
vt 0.20392294 0.9999998
vt 0.20000137 0.99607825
vt 0.20392294 0.9921567
vt 0.20000137 0.9921567
vt 0.21960919 0.99607825
vt 0.20392294 0.9999998
vt 0.21960919 0.9999998
vt 0.20392294 0.99607825
vt 0.21960919 0.9921567
vt 0.20392294 0.9921567
vt 0.22353074 0.9999998
vt 0.22353074 0.99607825
vt 0.21960919 0.99607825
vt 0.21960919 0.9999998
vt 0.22353074 0.9999998
vt 0.22353074 0.99607825
vt 0.22353074 0.9999998
vt 0.22353074 0.99607825
vt 0.22353074 0.9921567
vt 0.22353074 0.9921567
vt 1.756182E-06 0.756863
vt 1.756182E-06 0.7411768
vt 1.756182E-06 0.756863
vt 1.756182E-06 0.7411768
vt 0.003923317 0.7411768
vt 0.003923317 0.756863
vt 1.756182E-06 0.7411768
vt 1.756182E-06 0.74509835
vt 1.756182E-06 0.7411768
vt 1.756182E-06 0.74509835
vt 0.003923317 0.7411768
vt 0.003923317 0.74509835
vt 0.3098051 0.721569
vt 0.31372663 0.71764743
vt 0.30588353 0.7098043
vt 0.30588353 0.7098043
vt 0.30196196 0.6980396
vt 0.30588353 0.7098043
vt 0.30588353 0.7098043
vt 0.30196196 0.70196116
vt 0.30588353 0.71372586
vt 0.2980404 0.70196116
vt 0.30196196 0.6980396
vt 0.29411885 0.68627495
vt 0.29411885 0.68627495
vt 0.30196196 0.70196116
vt 0.2980404 0.70196116
vt 0.29019728 0.6901965
vt 0.29411885 0.68627495
vt 0.26274636 0.63137305
vt 0.26274636 0.63137305
vt 0.29411885 0.68627495
vt 0.2588248 0.6352946
vt 0.29019728 0.6901965
vt 0.25098166 0.6078437
vt 0.26274636 0.63137305
vt 0.26274636 0.63137305
vt 0.25098166 0.61176527
vt 0.2588248 0.6352946
vt 0.2470601 0.61568683
vt 0.24313855 0.6039221
vt 0.24313855 0.60000056
vt 0.24313855 0.596079
vt 0.21568762 0.6470593
vt 0.21960919 0.6509809
vt 0.21960919 0.65490246
vt 0.20000137 0.99607825
vt 0.20000137 0.9921567
vt 0.18431513 0.9921567
vt 0.18431513 0.99607825
vt 0.22353074 0.9921567
vt 0.21960919 0.9921567
vt 0.21960919 0.99607825
vt 0.22353074 0.99607825
vt 0.3098051 0.721569
vt 0.3098051 0.721569
vt 0.3098051 0.7411768
vt 0.3098051 0.7411768
vt 0.31372663 0.71764743
vt 0.31372663 0.7411768
vt 0.3098051 0.76078457
vt 0.3098051 0.76078457
vt 0.31372663 0.76078457
vt 0.31372663 0.784314
vt 0.3098051 0.784314
vt 0.3098051 0.784314
vt 0.3098051 0.7960786
vt 0.3098051 0.7960786
vt 0.31372663 0.7960786
vt 0.30588353 0.71372586
vt 0.3098051 0.721569
vt 0.3098051 0.721569
vt 0.30588353 0.7098043
vt 0.3098051 0.8705883
vt 0.31372663 0.8705883
vt 0.31372663 0.8588236
vt 0.3098051 0.8588236
vt 0.3098051 0.8588236
vt 0.3098051 0.8705883
vt 0.31372663 0.8509805
vt 0.3098051 0.8588236
vt 0.31372663 0.8588236
vt 0.3098051 0.8509805
vt 0.3098051 0.8509805
vt 0.3098051 0.8588236
vt 0.31372663 0.83529425
vt 0.3098051 0.8509805
vt 0.31372663 0.8509805
vt 0.3098051 0.83529425
vt 0.3098051 0.83529425
vt 0.3098051 0.8509805
vt 0.31372663 0.8274511
vt 0.3098051 0.83529425
vt 0.31372663 0.83529425
vt 0.3098051 0.8274511
vt 0.3098051 0.83529425
vt 0.3098051 0.8274511
vt 0.31372663 0.8274511
vt 0.31372663 0.819608
vt 0.3098051 0.819608
vt 0.3098051 0.8274511
vt 0.3098051 0.819608
vt 0.3098051 0.8274511
vt 0.31372663 0.8078433
vt 0.3098051 0.8078433
vt 0.3098051 0.819608
vt 0.31372663 0.819608
vt 0.3098051 0.8078433
vt 0.3098051 0.8078433
vt 0.3098051 0.819608
vt 0.3098051 0.819608
vt 0.31372663 0.7960786
vt 0.3098051 0.8078433
vt 0.31372663 0.8078433
vt 0.3098051 0.7960786
vt 0.3098051 0.8078433
vt 0.3098051 0.7960786
vt 1.756182E-06 0.7411768
vt 1.756182E-06 0.74509835
vt 0.003923317 0.74509835
vt 1.756182E-06 0.74509835
vt 1.756182E-06 0.7372552
vt 0.035295803 0.7411768
vt 0.003923317 0.74509835
vt 0.035295803 0.7372552
vt 0.035295803 0.74509835
vt 0.074511416 0.7411768
vt 0.074511416 0.74509835
vt 0.074511416 0.7372552
vt 0.09019767 0.74509835
vt 0.09019767 0.7411768
vt 0.09019767 0.7372552
vt 0.10196235 0.7411768
vt 0.10588391 0.74509835
vt 0.10196235 0.7372552
vt 0.11372703 0.7411768
vt 0.11372703 0.74509835
vt 0.11372703 0.7372552
vt 0.22353074 0.99607825
vt 0.21960919 0.9999998
vt 0.22353074 0.9999998
vt 0.21960919 0.99607825
vt 0.22353074 0.9921567
vt 0.21960919 0.9921567
vt 0.21960919 0.99607825
vt 0.22353074 0.99607825
vt 0.22353074 0.9999998
vt 0.21960919 0.9999998
vt 0.21960919 0.9921567
vt 0.22353074 0.9921567
vt 0.22353074 0.99607825
vt 0.21960919 0.99607825
vt 0.31372663 0.71764743
vt 0.31372663 0.71764743
vt 0.31372663 0.7411768
vt 0.31372663 0.7411768
vt 0.31372663 0.76078457
vt 0.31372663 0.76078457
vt 0.31372663 0.784314
vt 0.31372663 0.784314
vt 0.31372663 0.7960786
vt 0.31372663 0.7960786
vt 0.31372663 0.8078433
vt 0.31372663 0.81568646
vt 0.31372663 0.819608
vt 0.31372663 0.82352954
vt 0.31372663 0.8274511
vt 0.31372663 0.83529425
vt 0.31372663 0.83529425
vt 0.31372663 0.8431374
vt 0.31372663 0.8509805
vt 0.31372663 0.8509805
vt 0.31372663 0.8588236
vt 0.31372663 0.8588236
vt 0.31372663 0.8705883
vt 0.31372663 0.8705883
vt 0.31372663 0.8862745
vt 0.31372663 0.8862745
vt 0.25490323 0.9999998
vt 0.25490323 0.9999998
vt 0.23529543 0.9999998
vt 0.23529543 0.9999998
vt 0.22353074 0.9999998
vt 0.22353074 0.9999998
vt 0.22353074 0.9999998
vt 0.21960919 0.9999998
vt 0.21960919 0.9999998
vt 0.21568762 0.9999998
vt 0.22353074 0.9999998
vt 0.21568762 0.9999998
vt 0.21960919 0.9999998
vt 0.21568762 0.9999998
vt 0.20392294 0.9999998
vt 0.19607982 0.9999998
vt 0.20000137 0.9999998
vt 0.19607982 0.9999998
vt 0.18431513 0.9999998
vt 0.18039358 0.9999998
vt 0.17255045 0.9999998
vt 0.17255045 0.9999998
vt 0.16078576 0.9999998
vt 0.16078576 0.9999998
vt 0.15294264 0.9999998
vt 0.14902107 0.9999998
vt 0.070589855 0.9999998
vt 0.070589855 0.9999998
vt 0.070589855 0.9999998
vt 0.070589855 0.9999998
vt 1.756182E-06 0.8901961
vt 1.756182E-06 0.8901961
vt 0.31372663 0.8862745
vt 0.29411885 0.92549014
vt 0.31372663 0.8862745
vt 0.29411885 0.92549014
vt 0.2784326 0.95294106
vt 0.2784326 0.95294106
vt 0.2666679 0.9725489
vt 0.2666679 0.9725489
vt 0.2588248 0.9882351
vt 0.2588248 0.9882351
vt 0.25490323 0.9999998
vt 0.25490323 0.9999998
vt 1.756182E-06 0.8901961
vt 1.756182E-06 0.8901961
vt 1.756182E-06 0.756863
vt 1.756182E-06 0.7725493
vt 1.756182E-06 0.7411768
vt 1.756182E-06 0.76078457
vt 1.756182E-06 0.74509835
vt 1.756182E-06 0.756863
vt 1.756182E-06 0.7372552
vt 1.756182E-06 0.7490199
vt 0.30588353 0.7098043
vt 0.31372663 0.71764743
vt 0.31372663 0.71764743
vt 0.30588353 0.7098043
vt 0.30196196 0.6980396
vt 0.30196196 0.6980396
vt 0.29411885 0.68627495
vt 0.29411885 0.68627495
vt 0.26274636 0.63137305
vt 0.26274636 0.63137305
vt 0.25098166 0.6078437
vt 0.25098166 0.6078437
vt 0.24313855 0.596079
vt 0.24313855 0.596079
vt 0.003923317 0.7725493
vt 0.003923317 0.8862745
vt 0.003923317 0.8862745
vt 0.003923317 0.756863
vt 0.003923317 0.76078457
vt 0.003923317 0.7411768
vt 0.003923317 0.756863
vt 0.003923317 0.74509835
vt 0.003923317 0.8862745
vt 0.003923317 0.8862745
vt 0.070589855 0.9921567
vt 0.070589855 0.9921567
vt 0.070589855 0.9921567
vt 0.070589855 0.9921567
vt 0.15294264 0.9921567
vt 0.14902107 0.9921567
vt 0.16078576 0.9921567
vt 0.16078576 0.9921567
vt 0.17255045 0.9921567
vt 0.17255045 0.9921567
vt 0.18431513 0.9921567
vt 0.18039358 0.9921567
vt 0.20000137 0.9921567
vt 0.19607982 0.9921567
vt 0.20392294 0.9921567
vt 0.19607982 0.9921567
vt 0.21960919 0.9921567
vt 0.21568762 0.9921567
vt 0.22353074 0.9921567
vt 0.21568762 0.9921567
vt 0.21960919 0.9921567
vt 0.21568762 0.9921567
vt 0.22353074 0.9921567
vt 0.21960919 0.9921567
vt 0.22353074 0.9921567
vt 0.22353074 0.9921567
vt 0.23529543 0.9921567
vt 0.23529543 0.9921567
vt 0.25098166 0.9921567
vt 0.25098166 0.9921567
vt 0.25098166 0.9921567
vt 0.25098166 0.9921567
vt 0.25490323 0.98431355
vt 0.25490323 0.98431355
vt 0.26274636 0.96862733
vt 0.26274636 0.96862733
vt 0.27451104 0.9490195
vt 0.27451104 0.9490195
vt 0.29019728 0.917647
vt 0.29019728 0.917647
vt 0.3098051 0.882353
vt 0.3098051 0.882353
vt 0.3098051 0.7411768
vt 0.3098051 0.721569
vt 0.3098051 0.721569
vt 0.3098051 0.7411768
vt 0.3098051 0.76078457
vt 0.3098051 0.76078457
vt 0.3098051 0.784314
vt 0.3098051 0.784314
vt 0.3098051 0.7960786
vt 0.3098051 0.7960786
vt 0.3098051 0.81568646
vt 0.3098051 0.8078433
vt 0.3098051 0.82352954
vt 0.3098051 0.819608
vt 0.3098051 0.83529425
vt 0.3098051 0.8274511
vt 0.3098051 0.8431374
vt 0.3098051 0.83529425
vt 0.3098051 0.8509805
vt 0.3098051 0.8509805
vt 0.3098051 0.8588236
vt 0.3098051 0.8588236
vt 0.3098051 0.8705883
vt 0.3098051 0.8705883
vt 0.3098051 0.882353
vt 0.3098051 0.882353
vt 0.3098051 0.721569
vt 0.3098051 0.721569
vt 0.30588353 0.71372586
vt 0.30588353 0.71372586
vt 0.2980404 0.70196116
vt 0.2980404 0.70196116
vt 0.29019728 0.6901965
vt 0.29019728 0.6901965
vt 0.2588248 0.6352946
vt 0.2588248 0.6352946
vt 0.2470601 0.61568683
vt 0.2470601 0.61568683
vt 0.24313855 0.6039221
vt 0.24313855 0.6039221
vt 0.17647201 0.6509809
vt 0.18039358 0.65490246
vt 0.18431513 0.65490246
vt 0.18431513 0.6509809
vt 0.17647201 0.6470593
vt 0.18039358 0.6470593
vt 0.21568762 0.65490246
vt 0.21960919 0.65490246
vt 0.21960919 0.6509809
vt 0.21176606 0.6509809
vt 0.21176606 0.6470593
vt 0.21568762 0.6470593
vt 0.1882367 0.6509809
vt 0.19215825 0.65490246
vt 0.20000137 0.65490246
vt 0.20000137 0.6509809
vt 0.1882367 0.6470593
vt 0.19607982 0.6470593
vt 0.20000137 0.6509809
vt 0.20000137 0.65490246
vt 0.20392294 0.65490246
vt 0.20392294 0.6509809
vt 0.19607982 0.6470593
vt 0.20392294 0.6470593
vt 0.21176606 0.6509809
vt 0.21568762 0.65490246
vt 0.21176606 0.6470593
vt 0.19215825 0.65490246
vt 0.18431513 0.6509809
vt 0.18431513 0.65490246
vt 0.1882367 0.6509809
vt 0.1882367 0.6470593
vt 0.18039358 0.6470593
vt 0.21960919 0.65490246
vt 0.21960919 0.65490246
vt 0.24313855 0.6039221
vt 0.24313855 0.6039221
vt 0.21568762 0.65490246
vt 0.21960919 0.65490246
vt 0.21960919 0.65490246
vt 0.2078445 0.65490246
vt 0.20392294 0.65490246
vt 0.1882367 0.65490246
vt 0.20000137 0.65490246
vt 0.19215825 0.65490246
vt 0.18431513 0.65490246
vt 0.18039358 0.65490246
vt 0.18039358 0.65490246
vt 0.10588391 0.74509835
vt 0.11372703 0.74509835
vt 0.11372703 0.74509835
vt 0.09804079 0.74509835
vt 0.09019767 0.74509835
vt 0.08627611 0.74509835
vt 0.074511416 0.74509835
vt 0.074511416 0.74509835
vt 0.035295803 0.74509835
vt 0.035295803 0.74509835
vt 0.003923317 0.756863
vt 0.035295803 0.74509835
vt 0.035295803 0.74509835
vt 0.003923317 0.74509835
vt 0.12549171 0.7294121
vt 0.11372703 0.74509835
vt 0.11372703 0.74509835
vt 0.12549171 0.7294121
vt 0.14117795 0.7098043
vt 0.14117795 0.7098043
vt 0.14509952 0.70196116
vt 0.14509952 0.70196116
vt 0.15294264 0.68627495
vt 0.15294264 0.68627495
vt 0.18039358 0.65490246
vt 0.18039358 0.65490246
vt 0.11372703 0.7411768
vt 0.12549171 0.721569
vt 0.11372703 0.7372552
vt 0.12549171 0.7254905
vt 0.11372703 0.74509835
vt 0.12549171 0.7294121
vt 0.14117795 0.7098043
vt 0.14117795 0.7058827
vt 0.1372564 0.70196116
vt 0.14117795 0.70196116
vt 0.14509952 0.70196116
vt 0.14117795 0.6980396
vt 0.15294264 0.68627495
vt 0.15294264 0.68627495
vt 0.18039358 0.65490246
vt 0.15294264 0.6823534
vt 0.17647201 0.6509809
vt 0.17647201 0.6470593
vt 1.756182E-06 0.7372552
vt 0.035295803 0.7372552
vt 1.756182E-06 0.7490199
vt 0.035295803 0.7372552
vt 0.035295803 0.7372552
vt 0.070589855 0.7372552
vt 0.035295803 0.7372552
vt 0.074511416 0.7372552
vt 0.08627611 0.7372552
vt 0.09019767 0.7372552
vt 0.09411923 0.7372552
vt 0.10196235 0.7372552
vt 0.11372703 0.7372552
vt 0.11372703 0.7372552
vt 0.11372703 0.7372552
vt 0.11372703 0.7372552
vt 0.12549171 0.721569
vt 0.12549171 0.721569
vt 0.1372564 0.70196116
vt 0.1372564 0.70196116
vt 0.14117795 0.6980396
vt 0.14117795 0.6980396
vt 0.15294264 0.6823534
vt 0.15294264 0.6823534
vt 0.17647201 0.6470593
vt 0.17647201 0.6470593
vt 0.18039358 0.6470593
vt 0.18039358 0.6470593
vt 0.1882367 0.6470593
vt 0.1882367 0.6470593
vt 0.19607982 0.6470593
vt 0.19607982 0.6470593
vt 0.20392294 0.6470593
vt 0.20392294 0.6470593
vt 0.21176606 0.6470593
vt 0.21176606 0.6470593
vt 0.21568762 0.6470593
vt 0.21568762 0.6470593
vt 0.21568762 0.6470593
vt 0.24313855 0.596079
vt 0.24313855 0.596079
vt 0.21568762 0.6470593
vn 0.17458117 0.968132 -0.17956008
vn 0.17458117 0.968132 -0.17956008
vn 0.17458117 0.968132 -0.17956008
vn 0.17458117 0.968132 -0.17956008
vn 0.17458117 0.968132 -0.17956008
vn 0.17458117 0.968132 -0.17956008
vn -0.015871048 0.999874 -0.00034526698
vn -0.015871048 0.999874 -0.00034526698
vn -0.015871048 0.999874 -0.00034526698
vn -0.015871048 0.999874 -0.00034526698
vn -0.015871048 0.999874 -0.00034526698
vn -0.015871048 0.999874 -0.00034526698
vn -0.015871048 0.999874 -0.00034526698
vn -0.015871048 0.999874 -0.00034526698
vn -0.015871048 0.999874 -0.00034526698
vn 0.015870988 0.999874 -0.00034526698
vn 0.015870988 0.999874 -0.00034526698
vn 0.172001 0.9850967 -0
vn 0.172001 0.9850967 -0
vn 0.172001 0.9850967 -0
vn 0.172001 0.9850967 -0
vn 0.17458117 0.968132 0.17956008
vn 0.17458117 0.968132 0.17956008
vn 0.17458117 0.968132 0.17956008
vn 0.17458117 0.968132 -0.17956008
vn 0.17458117 0.968132 -0.17956008
vn 0.04756513 0.99886817 -0
vn 0.04756513 0.99886817 -0
vn 0.04756513 0.99886817 -0
vn 0.04756513 0.99886817 -0
vn 0.079116285 0.9968654 -0
vn 0.079116285 0.9968654 -0
vn -0.015871048 0.999874 -0.00034526698
vn 0.015870988 0.999874 -0.00034526698
vn 0.015870988 0.999874 -0.00034526698
vn -0.015871048 0.999874 -0.00034526698
vn -0.015871048 0.999874 -0.00034526698
vn -0.015871048 0.999874 -0.00034526698
vn 0.015870988 0.999874 -0.00034526698
vn 0.015870988 0.999874 -0.00034526698
vn -0.015871048 0.999874 -0.00034526698
vn -0.04756513 0.99886817 -0
vn -0.04756513 0.99886817 -0
vn -0.079116344 0.9968654 -0
vn -0.079116344 0.9968654 -0
vn -0.079116344 0.9968654 -0
vn -0.015871048 0.999874 -0.00034526698
vn -0.015871048 0.999874 -0.00034526698
vn -0.015871048 0.999874 -0.00034526698
vn -0.015871048 0.999874 -0.00034526698
vn 0.68245363 0.7141957 -0.15550417
vn 0.68245363 0.7141957 -0.15550417
vn 0.68245363 0.7141957 -0.15550417
vn 0.68245363 0.7141957 -0.15550417
vn 0.68245363 0.7141957 -0.15550417
vn 0.68245363 0.7141957 -0.15550417
vn 0.7669368 0.64172256 -0
vn 0.7669368 0.64172256 -0
vn 0.7669368 0.64172256 -0
vn 0.7669368 0.64172256 -0
vn 0.7669368 0.64172256 -0
vn 0.7669368 0.64172256 -0
vn 0.015870988 0.999874 -0.00034526698
vn 0.015870988 0.999874 -0.00034526698
vn 0.015870988 0.999874 -0.00034526698
vn 0.015870988 0.999874 -0.00034526698
vn 0.015870988 0.999874 -0.00034526698
vn 0.015870988 0.999874 -0.00034526698
vn 0.8094218 0.5554856 0.19045253
vn 0.8094218 0.5554856 0.19045253
vn 0.8094218 0.5554856 0.19045253
vn 0.8094218 0.5554856 0.19045253
vn 0.8344646 0.55106163 -0
vn 0.8344646 0.55106163 -0
vn 0.33329135 0.9363899 0.10995791
vn 0.33329135 0.9363899 0.10995791
vn 0.33329135 0.9363899 0.10995791
vn 0.33329135 0.9363899 0.10995791
vn 0.9363899 0.3332913 0.10995822
vn 0.9363899 0.3332913 0.10995822
vn 0.9363899 0.3332913 0.10995822
vn 0.9363899 0.3332913 0.10995822
vn 0.9363899 0.3332913 0.10995822
vn 0.9363899 0.3332913 0.10995822
vn -0.015871048 0.999874 -0.00034526698
vn -0.015871048 0.999874 -0.00034526698
vn -0.015871048 0.999874 -0.00034526698
vn -0.015871048 0.999874 -0.00034526698
vn -0.015871048 0.999874 -0.00034526698
vn -0.015871048 0.999874 -0.00034526698
vn 0.64172256 0.7669368 -0
vn 0.64172256 0.7669368 -0
vn 0.64172256 0.7669368 -0
vn 0.64172256 0.7669368 -0
vn 0.9938838 0.110431515 -0
vn 0.9938838 0.110431515 -0
vn 0.9938838 0.110431515 -0
vn 0.9938838 0.110431515 -0
vn 0.9938838 0.110431515 -0
vn 0.9938838 0.110431515 -0
vn 0.015870988 0.5237435 0.85172814
vn 0.015870988 0.5237435 0.85172814
vn 0.015870988 0.5237435 0.85172814
vn 0.015870988 0.5237435 0.85172814
vn -0.015871048 0.5237435 0.85172814
vn -0.015871048 0.5237435 0.85172814
vn -0.047613025 -0.07935506 0.9957087
vn -0.015871048 -0.07935506 0.9967201
vn -0.047613025 -0.07935506 0.9957087
vn -0.015871048 -0.07935506 0.9967201
vn -0.07935512 -0.07935506 0.9936828
vn -0.015871048 -0.07935506 0.9967201
vn 0.36503333 0.7776798 -0.51182497
vn 0.36503333 0.7776798 -0.51182497
vn 0.36503333 0.7776798 -0.51182497
vn 0.36503333 0.7776798 -0.51182497
vn 0.26980728 0.9363899 -0.22445023
vn 0.26980728 0.9363899 -0.22445023
vn 0.26980728 0.9363899 -0.22445023
vn 0.26980728 0.9363899 -0.22445023
vn 0.26980728 0.9363899 -0.22445023
vn 0.26980728 0.9363899 -0.22445023
vn 0.04756513 0.99886817 -0
vn 0.04756513 0.99886817 -0
vn 0.04756513 0.99886817 -0
vn 0.04756513 0.99886817 -0
vn 0.015870988 0.999874 -0.00034526698
vn 0.015870988 0.999874 -0.00034526698
vn -0.04756513 0.99886817 -0
vn -0.04756513 0.99886817 -0
vn -0.04756513 0.99886817 -0
vn -0.04756513 0.99886817 -0
vn -0.015871048 0.999874 -0.00034526698
vn -0.015871048 0.999874 -0.00034526698
vn -0.1428392 0.9363899 0.32057896
vn -0.1428392 0.9363899 0.32057896
vn -0.1428392 0.9363899 0.32057896
vn -0.1428392 0.9363899 0.32057896
vn -0.1110971 0.9363899 0.33291337
vn -0.1110971 0.9363899 0.33291337
vn -0.23806524 0.9363899 0.25787365
vn -0.23806524 0.9363899 0.25787365
vn -0.23806524 0.9363899 0.25787365
vn -0.26980734 0.9363899 0.22445023
vn -0.26980734 0.9363899 0.22445023
vn -0.26980734 0.9363899 0.22445023
vn 0.33329135 0.9363899 0.10995791
vn 0.33329135 0.9363899 0.10995791
vn 0.33329135 0.9363899 0.10995791
vn 0.33329135 0.9363899 0.10995791
vn 0.6189696 0.7459378 -0.24587265
vn 0.6189696 0.7459378 -0.24587265
vn 0.6189696 0.7459378 -0.24587265
vn 0.6189696 0.7459378 -0.24587265
vn -0.04756513 0.99886817 -0
vn -0.04756513 0.99886817 -0
vn -0.04756513 0.99886817 -0
vn -0.04756513 0.99886817 -0
vn -0.04756513 0.99886817 -0
vn -0.04756513 0.99886817 -0
vn -0.04756513 0.99886817 -0
vn -0.04756513 0.99886817 -0
vn -0.04756513 0.99886817 -0
vn -0.04756513 0.99886817 -0
vn -0.04756513 0.99886817 -0
vn -0.04756513 0.99886817 -0
vn -0.04756513 0.99886817 -0
vn -0.04756513 0.99886817 -0
vn -0.04756513 0.99886817 -0
vn 0.36503333 0.7459378 -0.5570704
vn 0.36503333 0.7459378 -0.5570704
vn 0.36503333 0.7459378 -0.5570704
vn 0.36503333 0.7459378 -0.5570704
vn -0.07935512 0.90464795 0.41870615
vn -0.07935512 0.90464795 0.41870615
vn -0.07935512 0.90464795 0.41870615
vn -0.07935512 0.90464795 0.41870615
vn -0.07935512 0.90464795 0.41870615
vn -0.07935512 0.90464795 0.41870615
vn -0.1428392 0.65071166 0.7457689
vn -0.1428392 0.65071166 0.7457689
vn -0.1428392 0.65071166 0.7457689
vn -0.1428392 0.65071166 0.7457689
vn -0.1110971 0.6189697 0.77751786
vn -0.1110971 0.6189697 0.77751786
vn -0.23806524 0.7141957 0.65821683
vn -0.23806524 0.7141957 0.65821683
vn -0.23806524 0.7141957 0.65821683
vn -0.23806524 0.7141957 0.65821683
vn -0.20632327 0.7141957 0.6688462
vn -0.20632327 0.7141957 0.6688462
vn -0.07935512 0.20632327 0.97526073
vn -0.07935512 0.20632327 0.97526073
vn -0.07935512 0.20632327 0.97526073
vn -0.07935512 0.20632327 0.97526073
vn -0.07935512 0.17458117 0.9814398
vn -0.07935512 0.17458117 0.9814398
vn -0.3332913 0.30154932 0.8933
vn -0.3332913 0.30154932 0.8933
vn -0.3332913 0.30154932 0.8933
vn -0.3332913 0.30154932 0.8933
vn -0.30154932 0.26980734 0.9144791
vn -0.30154932 0.26980734 0.9144791
vn -0.49200153 0.6189697 0.61221814
vn -0.49200153 0.6189697 0.61221814
vn -0.49200153 0.6189697 0.61221814
vn -0.49200153 0.6189697 0.61221814
vn -0.5872276 0.7141957 0.38090453
vn -0.5872276 0.7141957 0.38090453
vn -0.5872276 0.7141957 0.38090453
vn -0.5872276 0.7141957 0.38090453
vn -0.015871048 0.999874 -0.00034526698
vn -0.015871048 0.999874 -0.00034526698
vn -0.015871048 0.999874 -0.00034526698
vn -0.015871048 0.999874 -0.00034526698
vn -0.04756513 0.99886817 -0
vn -0.04756513 0.99886817 -0
vn 0.04756513 0.99886817 -0
vn -0.015871048 0.999874 -0.00034526698
vn 0.015870988 0.999874 -0.00034526698
vn -0.015871048 0.999874 -0.00034526698
vn 0.04756513 0.99886817 -0
vn 0.015870988 0.999874 -0.00034526698
vn 0.04756513 0.99886817 -0
vn 0.015870988 0.999874 -0.00034526698
vn 0.015870988 0.999874 -0.00034526698
vn 0.015870988 0.999874 -0.00034526698
vn 0.04756513 0.99886817 -0
vn 0.015870988 0.999874 -0.00034526698
vn 0.26845825 0.96329135 -0
vn 0.26845825 0.96329135 -0
vn 0.23806524 0.968132 0.07775179
vn 0.68245363 0.68245375 0.26175165
vn 0.68245363 0.68245375 0.26175165
vn 0.65071166 0.7141957 0.25787365
vn 0.8094218 0.49200153 0.32057902
vn 0.8094218 0.5237435 0.26557326
vn 0.8094218 0.49200153 0.32057902
vn 0.98994946 0.14142141 -0
vn 0.98994946 0.14142141 -0
vn 0.98994946 0.14142141 -0
vn 0.98994946 0.14142141 -0
vn 0.98994946 0.14142141 -0
vn 0.98994946 0.14142141 -0
vn 0.954758 -0.29738364 -0
vn 0.954758 -0.29738364 -0
vn 0.954758 -0.29738364 -0
vn 0.954758 -0.29738364 -0
vn 0.9363899 -0.30154932 0.1795603
vn 0.9363899 -0.30154932 0.1795603
vn 0.9363899 -0.30154932 0.1795603
vn 0.9363899 -0.30154932 0.1795603
vn 0.999874 0.015871048 -0.00034391563
vn 0.999874 0.015871048 -0.00034391563
vn 0.999874 0.015871048 -0.00034391563
vn 0.999874 0.015871048 -0.00034391563
vn 0.999874 0.015871048 -0.00034391563
vn 0.999874 0.015871048 -0.00034391563
vn 0.999874 0.015871048 -0.00034391563
vn 0.999874 0.015871048 -0.00034391563
vn 0.999874 0.015871048 -0.00034391563
vn 0.999874 0.015871048 -0.00034391563
vn 0.999874 0.015871048 -0.00034391563
vn 0.999874 0.015871048 -0.00034391563
vn 0.999874 0.015871048 -0.00034391563
vn 0.999874 0.015871048 -0.00034391563
vn 0.999874 0.015871048 -0.00034391563
vn 0.999874 0.015871048 -0.00034391563
vn 0.999874 0.015871048 -0.00034391563
vn 0.999874 0.015871048 -0.00034391563
vn 0.999874 0.015871048 -0.00034391563
vn 0.999874 0.015871048 -0.00034391563
vn 0.999874 0.015871048 -0.00034391563
vn 0.999874 0.015871048 -0.00034391563
vn 0.999874 0.015871048 -0.00034391563
vn 0.999874 0.015871048 -0.00034391563
vn 0.999874 0.015871048 -0.00034391563
vn 0.999874 0.015871048 -0.00034391563
vn -0.015871048 0.015871048 -0.99974805
vn -0.015871048 0.015871048 -0.99974805
vn -0.015871048 0.015871048 -0.99974805
vn -0.015871048 0.015871048 -0.99974805
vn -0.015871048 0.015871048 -0.99974805
vn -0.015871048 0.015871048 -0.99974805
vn -0.015871048 0.015871048 -0.99974805
vn -0.015871048 0.015871048 -0.99974805
vn -0.015871048 0.015871048 -0.99974805
vn -0.015871048 0.015871048 -0.99974805
vn -0.015871048 0.015871048 -0.99974805
vn -0.015871048 0.015871048 -0.99974805
vn -0.015871048 0.015871048 -0.99974805
vn -0.015871048 0.015871048 -0.99974805
vn -0.015871048 0.015871048 -0.99974805
vn -0.015871048 0.015871048 -0.99974805
vn -0.015871048 0.015871048 -0.99974805
vn -0.015871048 0.015871048 -0.99974805
vn -0.015871048 0.015871048 -0.99974805
vn -0.015871048 0.015871048 -0.99974805
vn -0.015871048 0.015871048 -0.99974805
vn -0.015871048 0.015871048 -0.99974805
vn -0.015871048 0.015871048 -0.99974805
vn -0.015871048 0.015871048 -0.99974805
vn -0.015871048 0.015871048 -0.99974805
vn -0.015871048 0.015871048 -0.99974805
vn -0.015871048 0.015871048 -0.99974805
vn -0.015871048 0.015871048 -0.99974805
vn -0.6189697 0.015871048 -0.78525454
vn -0.6189697 0.015871048 -0.78525454
vn -0.6189697 0.015871048 -0.78525454
vn -0.6189697 0.015871048 -0.78525454
vn 0.7141957 0.015871048 -0.6997661
vn 0.7141957 0.015871048 -0.6997661
vn 0.7141957 0.015871048 -0.6997661
vn 0.7141957 0.015871048 -0.6997661
vn 0.7141957 0.015871048 -0.6997661
vn 0.7141957 0.015871048 -0.6997661
vn 0.7141957 0.015871048 -0.6997661
vn 0.7141957 0.015871048 -0.6997661
vn 0.7141957 0.015871048 -0.6997661
vn 0.7141957 0.015871048 -0.6997661
vn 0.7141957 0.015871048 -0.6997661
vn 0.7141957 0.015871048 -0.6997661
vn -0.999874 0.015871048 -0.00034391563
vn -0.999874 0.015871048 -0.00034391563
vn -0.999874 0.015871048 -0.00034391563
vn -0.999874 0.015871048 -0.00034391563
vn -0.999874 0.015871048 -0.00034391563
vn -0.999874 0.015871048 -0.00034391563
vn -0.999874 0.015871048 -0.00034391563
vn -0.999874 0.015871048 -0.00034391563
vn -0.999874 0.015871048 -0.00034391563
vn -0.999874 0.015871048 -0.00034391563
vn 0.68245363 0.015871048 0.7307566
vn 0.68245363 0.015871048 0.7307566
vn 0.68245363 0.015871048 0.7307566
vn 0.68245363 0.015871048 0.7307566
vn 0.68245363 0.015871048 0.7307566
vn 0.68245363 0.015871048 0.7307566
vn 0.68245363 0.015871048 0.7307566
vn 0.68245363 0.015871048 0.7307566
vn 0.68245363 0.015871048 0.7307566
vn 0.68245363 0.015871048 0.7307566
vn 0.68245363 0.015871048 0.7307566
vn 0.68245363 0.015871048 0.7307566
vn 0.68245363 0.015871048 0.7307566
vn 0.68245363 0.015871048 0.7307566
vn 0.999874 0.015871048 -0.00034391563
vn 0.999874 0.015871048 -0.00034391563
vn 0.999874 0.015871048 -0.00034391563
vn 0.999874 0.015871048 -0.00034391563
vn 0.999874 0.015871048 -0.00034391563
vn 0.999874 0.015871048 -0.00034391563
vn 0.999874 0.015871048 -0.00034391563
vn 0.999874 0.015871048 -0.00034391563
vn 0.6189696 0.015871048 0.78525454
vn 0.6189696 0.015871048 0.78525454
vn 0.6189696 0.015871048 0.78525454
vn 0.6189696 0.015871048 0.78525454
vn -0.015871048 0.015871048 0.99974805
vn -0.015871048 0.015871048 0.99974805
vn -0.015871048 0.015871048 0.99974805
vn -0.015871048 0.015871048 0.99974805
vn -0.015871048 0.015871048 0.99974805
vn -0.015871048 0.015871048 0.99974805
vn -0.015871048 0.015871048 0.99974805
vn -0.015871048 0.015871048 0.99974805
vn -0.015871048 0.015871048 0.99974805
vn -0.015871048 0.015871048 0.99974805
vn -0.015871048 0.015871048 0.99974805
vn -0.015871048 0.015871048 0.99974805
vn -0.015871048 0.015871048 0.99974805
vn -0.015871048 0.015871048 0.99974805
vn -0.015871048 0.015871048 0.99974805
vn -0.015871048 0.015871048 0.99974805
vn -0.015871048 0.015871048 0.99974805
vn -0.015871048 0.015871048 0.99974805
vn -0.015871048 0.015871048 0.99974805
vn -0.015871048 0.015871048 0.99974805
vn -0.015871048 0.015871048 0.99974805
vn -0.015871048 0.015871048 0.99974805
vn -0.015871048 0.015871048 0.99974805
vn -0.015871048 0.015871048 0.99974805
vn -0.015871048 0.015871048 0.99974805
vn -0.015871048 0.015871048 0.99974805
vn -0.015871048 0.015871048 0.99974805
vn -0.015871048 0.015871048 0.99974805
vn -0.7141957 0.015871048 0.6997661
vn -0.7141957 0.015871048 0.6997661
vn -0.7141957 0.015871048 0.6997661
vn -0.7141957 0.015871048 0.6997661
vn -0.7141957 0.015871048 0.6997661
vn -0.7141957 0.015871048 0.6997661
vn -0.7141957 0.015871048 0.6997661
vn -0.7141957 0.015871048 0.6997661
vn -0.7141957 0.015871048 0.6997661
vn -0.7141957 0.015871048 0.6997661
vn -0.7141957 0.015871048 0.6997661
vn -0.7141957 0.015871048 0.6997661
vn -0.999874 0.015871048 -0.00034391563
vn -0.999874 0.015871048 -0.00034391563
vn -0.999874 0.015871048 -0.00034391563
vn -0.999874 0.015871048 -0.00034391563
vn -0.999874 0.015871048 -0.00034391563
vn -0.999874 0.015871048 -0.00034391563
vn -0.999874 0.015871048 -0.00034391563
vn -0.999874 0.015871048 -0.00034391563
vn -0.999874 0.015871048 -0.00034391563
vn -0.999874 0.015871048 -0.00034391563
vn -0.999874 0.015871048 -0.00034391563
vn -0.999874 0.015871048 -0.00034391563
vn -0.999874 0.015871048 -0.00034391563
vn -0.999874 0.015871048 -0.00034391563
vn -0.999874 0.015871048 -0.00034391563
vn -0.999874 0.015871048 -0.00034391563
vn -0.999874 0.015871048 -0.00034391563
vn -0.999874 0.015871048 -0.00034391563
vn -0.999874 0.015871048 -0.00034391563
vn -0.999874 0.015871048 -0.00034391563
vn -0.999874 0.015871048 -0.00034391563
vn -0.999874 0.015871048 -0.00034391563
vn -0.999874 0.015871048 -0.00034391563
vn -0.999874 0.015871048 -0.00034391563
vn -0.999874 0.015871048 -0.00034391563
vn -0.999874 0.015871048 -0.00034391563
vn -0.68245375 0.015871048 -0.73075646
vn -0.68245375 0.015871048 -0.73075646
vn -0.68245375 0.015871048 -0.73075646
vn -0.68245375 0.015871048 -0.73075646
vn -0.68245375 0.015871048 -0.73075646
vn -0.68245375 0.015871048 -0.73075646
vn -0.68245375 0.015871048 -0.73075646
vn -0.68245375 0.015871048 -0.73075646
vn -0.68245375 0.015871048 -0.73075646
vn -0.68245375 0.015871048 -0.73075646
vn -0.68245375 0.015871048 -0.73075646
vn -0.68245375 0.015871048 -0.73075646
vn -0.68245375 0.015871048 -0.73075646
vn -0.68245375 0.015871048 -0.73075646
vn 0.33329135 0.90464795 0.26557282
vn 0.30154932 0.9363899 0.17956024
vn 0.30154932 0.9363899 0.17956024
vn 0.33329135 0.9363899 0.10995791
vn 0.36503333 0.90464795 0.21991529
vn 0.36503333 0.90464795 0.21991529
vn -0.015871048 0.968132 0.24993704
vn -0.015871048 0.968132 0.24993704
vn -0.015871048 0.968132 0.24993704
vn -0.015871048 0.968132 0.24993704
vn -0.015871048 0.968132 0.24993704
vn -0.015871048 0.968132 0.24993704
vn 0.33329135 0.9363899 0.10995791
vn 0.33329135 0.9363899 0.10995791
vn 0.33329135 0.9363899 0.10995791
vn 0.33329135 0.9363899 0.10995791
vn 0.33329135 0.9363899 0.10995791
vn 0.33329135 0.9363899 0.10995791
vn 0.7776798 0.1428392 0.6122182
vn 0.7776798 0.17458117 0.6039334
vn 0.68245363 0.26980734 0.67930925
vn 0.68245363 0.26980734 0.67930925
vn 0.7776798 0.1428392 0.6122182
vn 0.68245363 0.23806524 0.69107306
vn 0.55548555 0.3650334 0.7471187
vn 0.55548555 0.39677536 0.7307565
vn 0.5872276 0.3650334 0.7224364
vn 0.7459377 0.23806524 0.62201434
vn 0.7459377 0.23806524 0.62201434
vn 0.7459377 0.23806524 0.62201434
vn 0.7459377 0.23806524 0.62201434
vn 0.7459377 0.23806524 0.62201434
vn 0.7459377 0.23806524 0.62201434
vn 0.7459377 0.015871048 -0.66582656
vn 0.7459377 0.015871048 -0.66582656
vn 0.7459377 0.015871048 -0.66582656
vn 0.7459377 0.015871048 -0.66582656
vn -0.015871048 0.015871048 -0.99974805
vn -0.015871048 0.015871048 -0.99974805
vn -0.015871048 0.015871048 -0.99974805
vn -0.015871048 0.015871048 -0.99974805
vn -0.015871048 0.015871048 -0.99974805
vn -0.015871048 0.015871048 -0.99974805
vn -0.015871048 0.015871048 -0.99974805
vn -0.015871048 0.015871048 -0.99974805
vn -0.015871048 0.015871048 -0.99974805
vn -0.015871048 0.015871048 -0.99974805
vn -0.015871048 0.015871048 -0.99974805
vn -0.015871048 0.015871048 -0.99974805
vn -0.015871048 0.015871048 -0.99974805
vn -0.015871048 0.015871048 -0.99974805
vn -0.015871048 0.015871048 -0.99974805
vn -0.015871048 0.015871048 -0.99974805
vn -0.015871048 0.015871048 -0.99974805
vn -0.015871048 0.015871048 -0.99974805
vn -0.015871048 0.015871048 -0.99974805
vn -0.015871048 0.015871048 -0.99974805
vn -0.015871048 0.015871048 -0.99974805
vn 0.07935506 0.3650334 -0.9276063
vn 0.2063232 0.015871048 -0.97835517
vn 0.17458117 0.1110971 -0.97835517
vn 0.015870988 0.46025944 -0.8876426
vn 0.5872276 0.015871048 -0.80926627
vn 0.5872276 0.015871048 -0.80926627
vn 0.5872276 0.015871048 -0.80926627
vn 0.5872276 0.015871048 -0.80926627
vn 0.5872276 0.015871048 -0.80926627
vn 0.5872276 0.015871048 -0.80926627
vn 0.5872276 0.015871048 -0.80926627
vn 0.5872276 0.015871048 -0.80926627
vn 0.5872276 0.015871048 -0.80926627
vn 0.5872276 0.015871048 -0.80926627
vn 0.5872276 0.015871048 -0.80926627
vn 0.5872276 0.015871048 -0.80926627
vn 0.68245363 0.65071166 0.33291352
vn 0.4285174 0.87290585 0.23325576
vn 0.68245363 0.65071166 0.33291352
vn 0.46025944 0.8411639 0.28390953
vn 0.68245363 0.65071166 0.33291352
vn 0.5237435 0.8094218 0.26557326
vn 0.23806524 0.968132 0.07775179
vn 0.26845825 0.96329135 -0
vn 0.30154932 0.9363899 0.17956024
vn 0.5237435 0.8411639 0.13467027
vn 0.5237435 0.8411639 0.13467027
vn 0.5237435 0.8411639 0.13467027
vn 0.2063232 0.968132 0.1419547
vn 0.172001 0.9850967 -0
vn -0.015871048 0.999874 -0.00034526698
vn 0.110431515 0.9938838 -0
vn -0.015871048 0.999874 -0.00034526698
vn -0.015871048 0.999874 -0.00034526698
vn -0.015871048 -0.46025944 0.8876426
vn -0.1428392 -0.07935506 0.98655957
vn -0.047613025 -0.33329135 0.9416209
vn -0.17458117 0.015871048 0.98451483
vn -0.015871048 0.015871048 0.99974805
vn -0.015871048 0.015871048 0.99974805
vn -0.015871048 0.015871048 0.99974805
vn -0.015871048 0.015871048 0.99974805
vn -0.015871048 0.015871048 0.99974805
vn -0.015871048 0.015871048 0.99974805
vn -0.015871048 0.015871048 0.99974805
vn -0.015871048 0.015871048 0.99974805
vn -0.015871048 0.015871048 0.99974805
vn -0.015871048 0.015871048 0.99974805
vn -0.5872276 0.015871048 0.80926627
vn -0.5872276 0.015871048 0.80926627
vn -0.5872276 0.015871048 0.80926627
vn -0.5872276 0.015871048 0.80926627
vn -0.5872276 0.015871048 0.80926627
vn -0.5872276 0.015871048 0.80926627
vn -0.5872276 0.015871048 0.80926627
vn -0.5872276 0.015871048 0.80926627
vn -0.5872276 0.015871048 0.80926627
vn -0.5872276 0.015871048 0.80926627
vn -0.5554856 0.015871048 0.8313747
vn -0.46025944 0.015871048 0.8876426
vn -0.015871048 0.015871048 0.99974805
vn -0.015871048 0.015871048 0.99974805
vn -0.015871048 0.015871048 0.99974805
vn -0.015871048 0.015871048 0.99974805
vn -0.015871048 0.015871048 0.99974805
vn -0.015871048 0.015871048 0.99974805
vn -0.015871048 0.015871048 0.99974805
vn -0.015871048 0.015871048 0.99974805
vn -0.015871048 0.015871048 0.99974805
vn -0.015871048 0.015871048 0.99974805
vn -0.015871048 0.015871048 0.99974805
vn -0.015871048 0.015871048 0.99974805
vn -0.7459378 0.015871048 0.66582644
vn -0.7459378 0.015871048 0.66582644
vn -0.7459378 0.015871048 0.66582644
vn -0.7459378 0.015871048 0.66582644
g tb_geo_light_outline_10_mesh_0
f 3/3/3 2/2/2 1/1/1
f 2/2/2 4/4/4 1/1/1
f 1/1/1 4/4/4 5/5/5
f 6/6/6 1/1/1 5/5/5
f 9/9/9 8/8/8 7/7/7
f 8/8/8 10/10/10 7/7/7
f 10/10/10 8/8/8 11/11/11
f 12/12/12 10/10/10 11/11/11
f 12/12/12 13/13/13 10/10/10
f 13/13/13 14/14/14 10/10/10
f 14/14/14 15/15/15 10/10/10
f 15/15/15 7/7/7 10/10/10
f 7/7/7 15/15/15 16/16/16
f 17/17/17 7/7/7 16/16/16
f 20/20/20 19/19/19 18/18/18
f 19/19/19 21/21/21 18/18/18
f 18/18/18 21/21/21 22/22/22
f 21/21/21 23/23/23 22/22/22
f 24/24/24 23/23/23 21/21/21
f 25/25/25 24/24/24 21/21/21
f 25/25/25 21/21/21 19/19/19
f 26/26/26 25/25/25 19/19/19
f 29/29/29 28/28/28 27/27/27
f 28/28/28 30/30/30 27/27/27
f 31/31/31 27/27/27 30/30/30
f 32/32/32 31/31/31 30/30/30
f 35/35/35 34/34/34 33/33/33
f 34/34/34 36/36/36 33/33/33
f 33/33/33 36/36/36 37/37/37
f 38/38/38 33/33/33 37/37/37
f 39/39/39 36/36/36 34/34/34
f 36/36/36 39/39/39 37/37/37
f 40/40/40 39/39/39 34/34/34
f 39/39/39 41/41/41 37/37/37
f 37/37/37 42/42/42 38/38/38
f 42/42/42 43/43/43 38/38/38
f 42/42/42 45/45/45 44/44/44
f 46/46/46 42/42/42 44/44/44
f 49/49/49 48/48/48 47/47/47
f 50/50/50 49/49/49 47/47/47
f 53/53/53 52/52/52 51/51/51
f 52/52/52 54/54/54 51/51/51
f 55/55/55 51/51/51 54/54/54
f 56/56/56 55/55/55 54/54/54
f 59/59/59 58/58/58 57/57/57
f 58/58/58 60/60/60 57/57/57
f 57/57/57 60/60/60 61/61/61
f 62/62/62 57/57/57 61/61/61
f 65/65/65 64/64/64 63/63/63
f 66/66/66 65/65/65 63/63/63
f 66/66/66 67/67/67 65/65/65
f 67/67/67 68/68/68 65/65/65
f 71/71/71 70/70/70 69/69/69
f 72/72/72 71/71/71 69/69/69
f 72/72/72 73/73/73 71/71/71
f 73/73/73 74/74/74 71/71/71
f 77/77/77 76/76/76 75/75/75
f 78/78/78 77/77/77 75/75/75
f 81/81/81 80/80/80 79/79/79
f 80/80/80 82/82/82 79/79/79
f 83/83/83 79/79/79 82/82/82
f 84/84/84 83/83/83 82/82/82
f 87/87/87 86/86/86 85/85/85
f 86/86/86 88/88/88 85/85/85
f 89/89/89 85/85/85 88/88/88
f 90/90/90 89/89/89 88/88/88
f 93/93/93 92/92/92 91/91/91
f 94/94/94 93/93/93 91/91/91
f 97/97/97 96/96/96 95/95/95
f 96/96/96 98/98/98 95/95/95
f 98/98/98 96/96/96 99/99/99
f 96/96/96 100/100/100 99/99/99
f 103/103/103 102/102/102 101/101/101
f 102/102/102 104/104/104 101/101/101
f 101/101/101 104/104/104 105/105/105
f 106/106/106 101/101/101 105/105/105
f 109/109/109 108/108/108 107/107/107
f 108/108/108 110/110/110 107/107/107
f 107/107/107 110/110/110 111/111/111
f 110/110/110 112/112/112 111/111/111
f 115/115/115 114/114/114 113/113/113
f 116/116/116 115/115/115 113/113/113
f 119/119/119 118/118/118 117/117/117
f 118/118/118 120/120/120 117/117/117
f 120/120/120 118/118/118 121/121/121
f 122/122/122 120/120/120 121/121/121
f 125/125/125 124/124/124 123/123/123
f 126/126/126 125/125/125 123/123/123
f 125/125/125 126/126/126 127/127/127
f 128/128/128 125/125/125 127/127/127
f 131/131/131 130/130/130 129/129/129
f 132/132/132 131/131/131 129/129/129
f 131/131/131 132/132/132 133/133/133
f 132/132/132 134/134/134 133/133/133
f 137/137/137 136/136/136 135/135/135
f 136/136/136 138/138/138 135/135/135
f 138/138/138 136/136/136 139/139/139
f 140/140/140 138/138/138 139/139/139
f 140/140/140 141/141/141 138/138/138
f 138/138/138 142/142/142 135/135/135
f 141/141/141 142/142/142 138/138/138
f 142/142/142 143/143/143 135/135/135
f 143/143/143 142/142/142 144/144/144
f 142/142/142 145/145/145 144/144/144
f 142/142/142 141/141/141 145/145/145
f 141/141/141 146/146/146 145/145/145
f 149/149/149 148/148/148 147/147/147
f 150/150/150 149/149/149 147/147/147
f 153/153/153 152/152/152 151/151/151
f 154/154/154 153/153/153 151/151/151
f 157/157/157 156/156/156 155/155/155
f 158/158/158 157/157/157 155/155/155
f 155/155/155 159/159/159 158/158/158
f 159/159/159 160/160/160 158/158/158
f 157/157/157 158/158/158 161/161/161
f 158/158/158 160/160/160 162/162/162
f 158/158/158 162/162/162 161/161/161
f 160/160/160 163/163/163 162/162/162
f 163/163/163 164/164/164 162/162/162
f 162/162/162 165/165/165 161/161/161
f 164/164/164 165/165/165 162/162/162
f 165/165/165 166/166/166 161/161/161
f 167/167/167 166/166/166 165/165/165
f 168/168/168 167/167/167 165/165/165
f 165/165/165 164/164/164 168/168/168
f 164/164/164 169/169/169 168/168/168
f 172/172/172 171/171/171 170/170/170
f 173/173/173 172/172/172 170/170/170
f 176/176/176 175/175/175 174/174/174
f 177/177/177 176/176/176 174/174/174
f 177/177/177 174/174/174 178/178/178
f 174/174/174 179/179/179 178/178/178
f 182/182/182 181/181/181 180/180/180
f 181/181/181 183/183/183 180/180/180
f 184/184/184 183/183/183 181/181/181
f 185/185/185 184/184/184 181/181/181
f 188/188/188 187/187/187 186/186/186
f 187/187/187 189/189/189 186/186/186
f 189/189/189 187/187/187 190/190/190
f 187/187/187 191/191/191 190/190/190
f 194/194/194 193/193/193 192/192/192
f 193/193/193 195/195/195 192/192/192
f 193/193/193 196/196/196 195/195/195
f 196/196/196 197/197/197 195/195/195
f 200/200/200 199/199/199 198/198/198
f 201/201/201 200/200/200 198/198/198
f 202/202/202 200/200/200 201/201/201
f 203/203/203 202/202/202 201/201/201
f 206/206/206 205/205/205 204/204/204
f 207/207/207 206/206/206 204/204/204
f 210/210/210 209/209/209 208/208/208
f 211/211/211 210/210/210 208/208/208
f 214/214/214 213/213/213 212/212/212
f 213/213/213 215/215/215 212/212/212
f 213/213/213 216/216/216 215/215/215
f 216/216/216 217/217/217 215/215/215
f 220/220/220 219/219/219 218/218/218
f 219/219/219 221/221/221 218/218/218
f 221/221/221 222/222/222 218/218/218
f 218/218/218 222/222/222 223/223/223
f 218/218/218 223/223/223 224/224/224
f 222/222/222 225/225/225 223/223/223
f 223/223/223 226/226/226 224/224/224
f 223/223/223 225/225/225 227/227/227
f 223/223/223 227/227/227 226/226/226
f 227/227/227 228/228/228 226/226/226
f 225/225/225 229/229/229 227/227/227
f 228/228/228 227/227/227 230/230/230
f 227/227/227 229/229/229 231/231/231
f 227/227/227 231/231/231 230/230/230
f 229/229/229 232/232/232 231/231/231
f 231/231/231 233/233/233 230/230/230
f 231/231/231 232/232/232 233/233/233
f 233/233/233 234/234/234 230/230/230
f 232/232/232 235/235/235 233/233/233
f 233/233/233 236/236/236 234/234/234
f 233/233/233 235/235/235 236/236/236
f 236/236/236 237/237/237 234/234/234
f 235/235/235 238/238/238 236/236/236
f 241/241/241 240/240/240 239/239/239
f 240/240/240 242/242/242 239/239/239
f 239/239/239 242/242/242 243/243/243
f 242/242/242 244/244/244 243/243/243
f 247/247/247 246/246/246 245/245/245
f 248/248/248 247/247/247 245/245/245
f 251/251/251 250/250/250 249/249/249
f 252/252/252 251/251/251 249/249/249
f 255/255/255 254/254/254 253/253/253
f 256/256/256 255/255/255 253/253/253
f 257/257/257 255/255/255 256/256/256
f 258/258/258 257/257/257 256/256/256
f 259/259/259 257/257/257 258/258/258
f 260/260/260 259/259/259 258/258/258
f 261/261/261 259/259/259 260/260/260
f 262/262/262 261/261/261 260/260/260
f 263/263/263 261/261/261 262/262/262
f 264/264/264 263/263/263 262/262/262
f 265/265/265 263/263/263 264/264/264
f 266/266/266 265/265/265 264/264/264
f 267/267/267 265/265/265 266/266/266
f 268/268/268 267/267/267 266/266/266
f 269/269/269 267/267/267 268/268/268
f 270/270/270 269/269/269 268/268/268
f 271/271/271 269/269/269 270/270/270
f 272/272/272 271/271/271 270/270/270
f 273/273/273 271/271/271 272/272/272
f 274/274/274 273/273/273 272/272/272
f 275/275/275 273/273/273 274/274/274
f 276/276/276 275/275/275 274/274/274
f 277/277/277 275/275/275 276/276/276
f 278/278/278 277/277/277 276/276/276
f 281/281/281 280/280/280 279/279/279
f 282/282/282 281/281/281 279/279/279
f 283/283/283 281/281/281 282/282/282
f 284/284/284 283/283/283 282/282/282
f 285/285/285 283/283/283 284/284/284
f 286/286/286 285/285/285 284/284/284
f 287/287/287 285/285/285 286/286/286
f 288/288/288 287/287/287 286/286/286
f 289/289/289 287/287/287 288/288/288
f 290/290/290 289/289/289 288/288/288
f 291/291/291 289/289/289 290/290/290
f 292/292/292 291/291/291 290/290/290
f 293/293/293 291/291/291 292/292/292
f 294/294/294 293/293/293 292/292/292
f 295/295/295 293/293/293 294/294/294
f 296/296/296 295/295/295 294/294/294
f 297/297/297 295/295/295 296/296/296
f 298/298/298 297/297/297 296/296/296
f 299/299/299 297/297/297 298/298/298
f 300/300/300 299/299/299 298/298/298
f 301/301/301 299/299/299 300/300/300
f 302/302/302 301/301/301 300/300/300
f 303/303/303 301/301/301 302/302/302
f 304/304/304 303/303/303 302/302/302
f 305/305/305 303/303/303 304/304/304
f 306/306/306 305/305/305 304/304/304
f 309/309/309 308/308/308 307/307/307
f 310/310/310 309/309/309 307/307/307
f 313/313/313 312/312/312 311/311/311
f 312/312/312 314/314/314 311/311/311
f 315/315/315 314/314/314 312/312/312
f 316/316/316 315/315/315 312/312/312
f 317/317/317 315/315/315 316/316/316
f 318/318/318 317/317/317 316/316/316
f 319/319/319 317/317/317 318/318/318
f 320/320/320 319/319/319 318/318/318
f 321/321/321 319/319/319 320/320/320
f 322/322/322 321/321/321 320/320/320
f 325/325/325 324/324/324 323/323/323
f 326/326/326 325/325/325 323/323/323
f 327/327/327 325/325/325 326/326/326
f 328/328/328 327/327/327 326/326/326
f 327/327/327 328/328/328 329/329/329
f 328/328/328 330/330/330 329/329/329
f 329/329/329 330/330/330 331/331/331
f 330/330/330 332/332/332 331/331/331
f 335/335/335 334/334/334 333/333/333
f 334/334/334 336/336/336 333/333/333
f 333/333/333 336/336/336 337/337/337
f 336/336/336 338/338/338 337/337/337
f 337/337/337 338/338/338 339/339/339
f 338/338/338 340/340/340 339/339/339
f 339/339/339 340/340/340 341/341/341
f 340/340/340 342/342/342 341/341/341
f 341/341/341 342/342/342 343/343/343
f 342/342/342 344/344/344 343/343/343
f 343/343/343 344/344/344 345/345/345
f 344/344/344 346/346/346 345/345/345
f 349/349/349 348/348/348 347/347/347
f 348/348/348 350/350/350 347/347/347
f 347/347/347 350/350/350 351/351/351
f 350/350/350 352/352/352 351/351/351
f 351/351/351 352/352/352 353/353/353
f 352/352/352 354/354/354 353/353/353
f 357/357/357 356/356/356 355/355/355
f 358/358/358 357/357/357 355/355/355
f 361/361/361 360/360/360 359/359/359
f 362/362/362 361/361/361 359/359/359
f 363/363/363 361/361/361 362/362/362
f 364/364/364 363/363/363 362/362/362
f 365/365/365 363/363/363 364/364/364
f 366/366/366 365/365/365 364/364/364
f 367/367/367 365/365/365 366/366/366
f 368/368/368 367/367/367 366/366/366
f 369/369/369 367/367/367 368/368/368
f 370/370/370 369/369/369 368/368/368
f 371/371/371 369/369/369 370/370/370
f 372/372/372 371/371/371 370/370/370
f 373/373/373 371/371/371 372/372/372
f 374/374/374 373/373/373 372/372/372
f 375/375/375 373/373/373 374/374/374
f 376/376/376 375/375/375 374/374/374
f 377/377/377 375/375/375 376/376/376
f 378/378/378 377/377/377 376/376/376
f 379/379/379 377/377/377 378/378/378
f 380/380/380 379/379/379 378/378/378
f 381/381/381 379/379/379 380/380/380
f 382/382/382 381/381/381 380/380/380
f 383/383/383 381/381/381 382/382/382
f 384/384/384 383/383/383 382/382/382
f 385/385/385 383/383/383 384/384/384
f 386/386/386 385/385/385 384/384/384
f 389/389/389 388/388/388 387/387/387
f 390/390/390 389/389/389 387/387/387
f 391/391/391 389/389/389 390/390/390
f 392/392/392 391/391/391 390/390/390
f 393/393/393 391/391/391 392/392/392
f 394/394/394 393/393/393 392/392/392
f 395/395/395 393/393/393 394/394/394
f 396/396/396 395/395/395 394/394/394
f 396/396/396 397/397/397 395/395/395
f 397/397/397 398/398/398 395/395/395
f 401/401/401 400/400/400 399/399/399
f 400/400/400 402/402/402 399/399/399
f 399/399/399 402/402/402 403/403/403
f 402/402/402 404/404/404 403/403/403
f 403/403/403 404/404/404 405/405/405
f 404/404/404 406/406/406 405/405/405
f 405/405/405 406/406/406 407/407/407
f 406/406/406 408/408/408 407/407/407
f 407/407/407 408/408/408 409/409/409
f 408/408/408 410/410/410 409/409/409
f 409/409/409 410/410/410 411/411/411
f 410/410/410 412/412/412 411/411/411
f 411/411/411 412/412/412 413/413/413
f 412/412/412 414/414/414 413/413/413
f 413/413/413 414/414/414 415/415/415
f 414/414/414 416/416/416 415/415/415
f 415/415/415 416/416/416 417/417/417
f 416/416/416 418/418/418 417/417/417
f 417/417/417 418/418/418 419/419/419
f 418/418/418 420/420/420 419/419/419
f 419/419/419 420/420/420 421/421/421
f 420/420/420 422/422/422 421/421/421
f 421/421/421 422/422/422 423/423/423
f 422/422/422 424/424/424 423/423/423
f 427/427/427 426/426/426 425/425/425
f 428/428/428 427/427/427 425/425/425
f 429/429/429 427/427/427 428/428/428
f 430/430/430 429/429/429 428/428/428
f 431/431/431 429/429/429 430/430/430
f 432/432/432 431/431/431 430/430/430
f 433/433/433 431/431/431 432/432/432
f 434/434/434 433/433/433 432/432/432
f 435/435/435 433/433/433 434/434/434
f 436/436/436 435/435/435 434/434/434
f 437/437/437 435/435/435 436/436/436
f 438/438/438 437/437/437 436/436/436
f 441/441/441 440/440/440 439/439/439
f 442/442/442 441/441/441 439/439/439
f 439/439/439 443/443/443 442/442/442
f 443/443/443 444/444/444 442/442/442
f 447/447/447 446/446/446 445/445/445
f 448/448/448 447/447/447 445/445/445
f 448/448/448 449/449/449 447/447/447
f 449/449/449 450/450/450 447/447/447
f 453/453/453 452/452/452 451/451/451
f 454/454/454 453/453/453 451/451/451
f 454/454/454 451/451/451 455/455/455
f 456/456/456 454/454/454 455/455/455
f 459/459/459 458/458/458 457/457/457
f 460/460/460 459/459/459 457/457/457
f 460/460/460 457/457/457 461/461/461
f 462/462/462 460/460/460 461/461/461
f 460/460/460 463/463/463 459/459/459
f 460/460/460 462/462/462 463/463/463
f 463/463/463 464/464/464 459/459/459
f 462/462/462 465/465/465 463/463/463
f 468/468/468 467/467/467 466/466/466
f 467/467/467 469/469/469 466/466/466
f 470/470/470 469/469/469 467/467/467
f 471/471/471 470/470/470 467/467/467
f 474/474/474 473/473/473 472/472/472
f 475/475/475 474/474/474 472/472/472
f 478/478/478 477/477/477 476/476/476
f 477/477/477 479/479/479 476/476/476
f 480/480/480 476/476/476 479/479/479
f 481/481/481 480/480/480 479/479/479
f 481/481/481 482/482/482 480/480/480
f 482/482/482 481/481/481 483/483/483
f 483/483/483 481/481/481 484/484/484
f 484/484/484 481/481/481 485/485/485
f 481/481/481 486/486/486 485/485/485
f 489/489/489 488/488/488 487/487/487
f 488/488/488 490/490/490 487/487/487
f 487/487/487 490/490/490 491/491/491
f 490/490/490 492/492/492 491/491/491
f 491/491/491 492/492/492 493/493/493
f 492/492/492 494/494/494 493/493/493
f 493/493/493 494/494/494 495/495/495
f 494/494/494 496/496/496 495/495/495
f 499/499/499 498/498/498 497/497/497
f 499/499/499 497/497/497 500/500/500
f 503/503/503 502/502/502 501/501/501
f 502/502/502 504/504/504 501/501/501
f 501/501/501 504/504/504 505/505/505
f 504/504/504 506/506/506 505/505/505
f 507/507/507 505/505/505 506/506/506
f 508/508/508 507/507/507 506/506/506
f 509/509/509 507/507/507 508/508/508
f 510/510/510 509/509/509 508/508/508
f 511/511/511 509/509/509 510/510/510
f 512/512/512 511/511/511 510/510/510
f 515/515/515 514/514/514 513/513/513
f 514/514/514 516/516/516 513/513/513
f 513/513/513 516/516/516 517/517/517
f 516/516/516 518/518/518 517/517/517
f 518/518/518 516/516/516 519/519/519
f 516/516/516 514/514/514 520/520/520
f 516/516/516 520/520/520 519/519/519
f 514/514/514 521/521/521 520/520/520
f 519/519/519 520/520/520 522/522/522
f 520/520/520 521/521/521 522/522/522
f 523/523/523 519/519/519 522/522/522
f 521/521/521 524/524/524 522/522/522
f 523/523/523 522/522/522 525/525/525
f 522/522/522 524/524/524 526/526/526
f 522/522/522 526/526/526 525/525/525
f 527/527/527 525/525/525 526/526/526
f 524/524/524 528/528/528 526/526/526
f 529/529/529 527/527/527 526/526/526
f 529/529/529 526/526/526 528/528/528
f 530/530/530 529/529/529 528/528/528
f 533/533/533 532/532/532 531/531/531
f 534/534/534 532/532/532 533/533/533
f 537/537/537 536/536/536 535/535/535
f 536/536/536 538/538/538 535/535/535
f 536/536/536 539/539/539 538/538/538
f 539/539/539 540/540/540 538/538/538
f 539/539/539 541/541/541 540/540/540
f 541/541/541 542/542/542 540/540/540
f 541/541/541 543/543/543 542/542/542
f 543/543/543 544/544/544 542/542/542
f 547/547/547 546/546/546 545/545/545
f 548/548/548 547/547/547 545/545/545
f 549/549/549 547/547/547 548/548/548
f 550/550/550 549/549/549 548/548/548
f 550/550/550 551/551/551 549/549/549
f 551/551/551 552/552/552 549/549/549
f 551/551/551 553/553/553 552/552/552
f 553/553/553 554/554/554 552/552/552
f 555/555/555 554/554/554 553/553/553
f 556/556/556 555/555/555 553/553/553
f 555/555/555 556/556/556 557/557/557
f 558/558/558 555/555/555 557/557/557
f 557/557/557 559/559/559 558/558/558
f 559/559/559 560/560/560 558/558/558
f 559/559/559 561/561/561 560/560/560
f 561/561/561 562/562/562 560/560/560
f 561/561/561 563/563/563 562/562/562
f 563/563/563 564/564/564 562/562/562
f 563/563/563 565/565/565 564/564/564
f 565/565/565 566/566/566 564/564/564
f 565/565/565 567/567/567 566/566/566
f 567/567/567 568/568/568 566/566/566
f 571/571/571 570/570/570 569/569/569
f 572/572/572 571/571/571 569/569/569
