g tb_geo_light_outline_11_mesh
v -1.449469 0.35501695 -0.36016956
v -1.4548872 0.35501695 -0.36016956
v -1.4548872 0.35501695 -0.36378163
v -0.8588984 -0.006188363 -0.05133903
v -0.83722603 -0.004382342 -0.07301134
v -0.833614 -0.0025763214 -0.0693993
v -0.8534802 -0.006188363 -0.04953301
v -0.8588984 -0.007994384 -0.033278763
v -0.8534802 -0.007994384 -0.033278763
v -1.4548872 0.011871904 -0.10190776
v -1.4603052 0.011871904 -0.029666692
v -1.4603052 0.011871904 -0.10190776
v -1.4548872 0.011871904 -0.029666692
v -1.449469 0.011871904 -0.10190776
v -1.449469 0.011871904 -0.029666692
v -1.449469 0.011871904 0.008259863
v -1.4548872 0.011871904 0.011871904
v -1.4603052 0.011871904 0.017289996
v -1.3826461 0.011871904 0.010065883
v -1.379034 0.011871904 0.020902038
v -1.3808401 0.011871904 0.015483946
v -1.2273277 0.010065883 0.019096017
v -1.2237157 0.010065883 0.02451408
v -1.2201036 0.010065883 0.029932171
v -1.1948193 0.010065883 0.020902038
v -1.1966254 0.010065883 0.02451408
v -1.1984314 0.010065883 0.029932171
v -1.1623108 0.008259863 0.040768325
v -1.1605048 0.008259863 0.047992438
v -1.1027119 0.006453812 0.0805009
v -1.1586988 0.008259863 0.05521655
v -1.1045179 0.006453812 0.08591899
v -1.106324 0.006453812 0.091337085
v -1.4548872 0.13648772 -0.13622227
v -1.4603052 0.011871904 -0.10190776
v -1.4603052 0.13648772 -0.13622227
v -1.4548872 0.011871904 -0.10190776
v -1.449469 0.011871904 -0.10190776
v -1.449469 0.13648772 -0.13622227
v -1.4548872 0.19789267 -0.20123923
v -1.4603052 0.13648772 -0.13622227
v -1.4603052 0.19789267 -0.20123923
v -1.4548872 0.13648772 -0.13622227
v -1.449469 0.19789267 -0.20123923
v -1.449469 0.13648772 -0.13622227
v -1.4548872 0.19789267 -0.33849725
v -1.4603052 0.19789267 -0.20123923
v -1.4603052 0.19789267 -0.33849725
v -1.4548872 0.19789267 -0.20123923
v -1.449469 0.19789267 -0.20123923
v -1.449469 0.19789267 -0.3366912
v -1.4548872 0.32250845 -0.34572136
v -1.4603052 0.31347835 -0.33127314
v -1.4603052 0.32070243 -0.34572136
v -1.4548872 0.31528437 -0.33127314
v -1.449469 0.32431448 -0.34572136
v -1.449469 0.31528437 -0.32946712
v -1.4548872 0.35501695 -0.36016956
v -1.4548872 0.32250845 -0.34572136
v -1.4603052 0.32070243 -0.34572136
v -1.4603052 0.35501695 -0.36016956
v -0.8534802 -0.007994384 0.033544213
v -0.8588984 -0.007994384 -0.033278763
v -0.8534802 -0.007994384 -0.033278763
v -0.8588984 -0.009800404 0.033544213
v -0.8534802 -0.011606455 0.1075913
v -0.86431646 -0.009800404 0.033544213
v -0.86431646 -0.007994384 -0.033278763
v -0.8588984 -0.011606455 0.1075913
v -0.86431646 -0.013412476 0.1075913
v -0.8588984 -0.015218496 0.19969869
v -0.8534802 -0.013412476 0.19969869
v -0.86431646 -0.015218496 0.19969869
v -0.79749346 0.0028417706 -0.10913187
v -0.7938814 0.0028417706 -0.10551983
v -0.833614 -0.0025763214 -0.0693993
v -0.83722603 -0.004382342 -0.07301134
v -1.449469 0.32431448 -0.34572136
v -1.4548872 0.32250845 -0.34572136
v -1.4548872 0.35501695 -0.36016956
v -1.449469 0.35501695 -0.36016956
v -0.83903205 -0.0025763214 -0.07662341
v -0.7992995 0.0028417706 -0.112743914
v -0.79749346 0.0028417706 -0.10913187
v -0.83722603 -0.004382342 -0.07301134
v -0.83903205 -0.0025763214 -0.07662341
v -0.83722603 -0.004382342 -0.07301134
v -0.8588984 -0.006188363 -0.05133903
v -0.86431646 -0.006188363 -0.05314505
v -0.8588984 -0.007994384 -0.033278763
v -0.86431646 -0.007994384 -0.033278763
v -1.4548872 0.31528437 -0.33127314
v -1.4548872 0.25749153 -0.33307916
v -1.4603052 0.2556855 -0.33307916
v -1.4603052 0.31347835 -0.33127314
v -1.4548872 0.25749153 -0.33307916
v -1.4548872 0.31528437 -0.33127314
v -1.449469 0.31528437 -0.32946712
v -1.449469 0.25749153 -0.33127314
v -1.4548872 0.19789267 -0.33849725
v -1.4603052 0.19789267 -0.33849725
v -1.4603052 0.2556855 -0.33307916
v -1.4548872 0.25749153 -0.33307916
v -1.449469 0.19789267 -0.3366912
v -1.4548872 0.19789267 -0.33849725
v -1.4548872 0.25749153 -0.33307916
v -1.449469 0.25749153 -0.33127314
v -0.8534802 -0.044114918 -0.04953301
v -0.8534802 -0.006188363 -0.04953301
v -0.833614 -0.0025763214 -0.0693993
v -0.833614 -0.038696826 -0.0693993
v -0.7938814 0.0028417706 -0.10551983
v -0.7938814 -0.033278763 -0.10551983
v -0.7487308 0.017289996 -0.14705843
v -0.7487308 -0.018830538 -0.14705843
v -0.8534802 -0.044114918 -0.033278763
v -0.8534802 -0.006188363 -0.04953301
v -0.8534802 -0.044114918 -0.04953301
v -0.8534802 -0.007994384 -0.033278763
v -0.8534802 -0.044114918 0.033544213
v -0.8534802 -0.007994384 0.033544213
v -0.8534802 -0.04772696 0.1075913
v -0.8534802 -0.011606455 0.1075913
v -0.8534802 -0.05133903 0.19969869
v -0.8534802 -0.013412476 0.19969869
v -0.8534802 -0.04953301 0.2304011
v -0.8534802 -0.013412476 0.2304011
v -0.8534802 -0.031472743 0.26110357
v -0.8534802 0.0046477914 0.26110357
v -0.8534802 -0.040502876 0.3044482
v -0.8534802 0.0028417706 0.2972241
v -0.8534802 -0.04772696 0.3261205
v -0.8534802 -0.011606455 0.3261205
v -1.449469 0.29903013 -0.36739367
v -1.449469 0.35501695 -0.36016956
v -1.449469 0.32070243 -0.3691997
v -1.449469 0.32431448 -0.34572136
v -1.449469 0.27916384 -0.35475147
v -1.449469 0.31528437 -0.32946712
v -1.449469 0.24665534 -0.35836354
v -1.449469 0.25749153 -0.33127314
v -1.449469 0.19789267 -0.3366912
v -1.449469 0.18525046 -0.3710057
v -1.449469 0.15996605 -0.36197558
v -1.449469 0.15996605 -0.2066573
v -1.449469 0.19789267 -0.20123923
v -1.449469 0.10578528 -0.1452524
v -1.449469 0.13648772 -0.13622227
v -1.449469 -0.02605465 -0.10913187
v -1.449469 0.011871904 -0.10190776
v -1.449469 -0.02605465 -0.029666692
v -1.449469 0.011871904 -0.029666692
v -1.449469 0.011871904 0.008259863
v -1.449469 -0.02605465 0.008259863
v -0.76317894 -0.02244261 -0.14886446
v -0.76317894 0.013677925 -0.14886446
v -0.7992995 0.0028417706 -0.112743914
v -0.7992995 -0.033278763 -0.112743914
v -0.83903205 -0.0025763214 -0.07662341
v -0.83903205 -0.040502876 -0.07662341
v -0.86431646 -0.006188363 -0.05314505
v -0.86431646 -0.042308897 -0.05314505
v -0.86431646 -0.042308897 -0.05314505
v -0.86431646 -0.006188363 -0.05314505
v -0.86431646 -0.007994384 -0.033278763
v -0.86431646 -0.04592094 -0.033278763
v -0.86431646 -0.009800404 0.033544213
v -0.86431646 -0.04592094 0.033544213
v -0.86431646 -0.013412476 0.1075913
v -0.86431646 -0.04953301 0.1075913
v -0.86431646 -0.015218496 0.19969869
v -0.86431646 -0.05314505 0.19969869
v -0.86431646 -0.013412476 0.2304011
v -0.86431646 -0.04953301 0.2304011
v -0.86431646 -0.011606455 0.26110357
v -0.86431646 -0.04953301 0.26110357
v -0.86431646 -0.011606455 0.28277588
v -0.86431646 -0.04772696 0.28277588
v -0.8588984 -0.013412476 0.2304011
v -0.8534802 -0.013412476 0.19969869
v -0.8534802 -0.013412476 0.2304011
v -0.8588984 -0.015218496 0.19969869
v -0.86431646 -0.013412476 0.2304011
v -0.86431646 -0.015218496 0.19969869
v -0.8588984 -0.004382342 0.26110357
v -0.8534802 0.0046477914 0.26110357
v -0.8534802 0.0028417706 0.2972241
v -0.8588984 -0.004382342 0.29541808
v -0.86431646 -0.011606455 0.28277588
v -0.86431646 -0.011606455 0.26110357
v -0.86431646 -0.009800404 0.29361206
v -0.8588984 -0.007994384 0.3062542
v -0.8534802 -0.011606455 0.3261205
v -0.86431646 -0.011606455 0.3062542
v -0.8534802 0.0046477914 0.26110357
v -0.8588984 -0.013412476 0.2304011
v -0.8534802 -0.013412476 0.2304011
v -0.8588984 -0.004382342 0.26110357
v -0.86431646 -0.011606455 0.26110357
v -0.86431646 -0.013412476 0.2304011
v -0.9780961 0.0046477914 0.09856117
v -0.99796236 0.008259863 0.08591899
v -0.9943503 0.008259863 0.0805009
v -0.97990215 0.0046477914 0.10397926
v -0.9997684 0.008259863 0.091337085
v -0.92210925 -0.009800404 0.16177213
v -0.98170817 0.0046477914 0.11120337
v -0.9257213 -0.009800404 0.16538417
v -0.86431646 -0.011606455 0.28277588
v -0.9293333 -0.009800404 0.16899621
v -0.86431646 -0.009800404 0.29361206
v -0.86431646 -0.011606455 0.3062542
v -1.039501 0.0028417706 0.0805009
v -1.1045179 0.006453812 0.08591899
v -1.1027119 0.006453812 0.0805009
v -1.039501 0.0046477914 0.08591899
v -0.9943503 0.008259863 0.0805009
v -1.106324 0.006453812 0.091337085
v -0.99796236 0.008259863 0.08591899
v -1.039501 0.0046477914 0.091337085
v -0.9997684 0.008259863 0.091337085
v -1.1623108 0.008259863 0.040768325
v -1.1027119 -0.027860671 0.0805009
v -1.1027119 0.006453812 0.0805009
v -1.1623108 -0.02605465 0.040768325
v -1.1948193 0.010065883 0.020902038
v -1.1948193 -0.02605465 0.020902038
v -1.039501 0.0028417706 0.0805009
v -0.9943503 -0.02605465 0.0805009
v -0.9943503 0.008259863 0.0805009
v -1.039501 -0.029666692 0.0805009
v -1.1027119 0.006453812 0.0805009
v -1.1027119 -0.027860671 0.0805009
v -1.2273277 0.010065883 0.019096017
v -1.1948193 -0.02605465 0.020902038
v -1.1948193 0.010065883 0.020902038
v -1.2273277 -0.02424863 0.019096017
v -1.3826461 0.011871904 0.010065883
v -1.3826461 -0.02605465 0.010065883
v -1.449469 0.011871904 0.008259863
v -1.449469 -0.02605465 0.008259863
v -0.92210925 -0.009800404 0.16177213
v -0.92210925 -0.044114918 0.16177213
v -0.86431646 -0.04772696 0.28277588
v -0.86431646 -0.011606455 0.28277588
v -0.9780961 0.0046477914 0.09856117
v -0.92210925 -0.044114918 0.16177213
v -0.92210925 -0.009800404 0.16177213
v -0.9780961 -0.029666692 0.09856117
v -0.9943503 0.008259863 0.0805009
v -0.9943503 -0.02605465 0.0805009
v -0.76317894 0.013677925 -0.14886446
v -0.76317894 -0.02244261 -0.14886446
v -0.8281959 -0.031472743 -0.21749346
v -0.8281959 0.010065883 -0.21749346
v -1.3555557 0.3514049 -0.36016956
v -1.449469 0.32070243 -0.3691997
v -1.449469 0.35501695 -0.36016956
v -1.3555557 0.3098663 -0.36016956
v -1.245388 0.35321093 -0.36016956
v -1.3555557 0.3098663 -0.36016956
v -1.3555557 0.3514049 -0.36016956
v -1.2508061 0.3098663 -0.36016956
v -1.1966254 0.34598678 -0.36016956
v -1.2146856 0.3044482 -0.36016956
v -1.1623108 0.3297326 -0.36016956
v -1.1839831 0.28819394 -0.36016956
v -1.1352204 0.27916384 -0.36016956
v -1.1352204 0.23401314 -0.36016956
v -1.1352204 0.23401314 -0.36016956
v -1.1352204 0.27916384 -0.36016956
v -1.0990999 0.23401314 -0.33307916
v -1.0990999 0.19428056 -0.33307916
v -1.0575613 0.22678906 -0.30237672
v -1.0467252 0.1762203 -0.2951526
v -1.0467252 0.21775895 -0.2951526
v -1.0160227 0.19428056 -0.27167428
v -1.0160227 0.15274197 -0.27167428
v -0.9437816 0.19608659 -0.21749346
v -0.9437816 0.10939732 -0.21749346
v -0.93836355 0.19247454 -0.21749346
v -0.9437816 0.10939732 -0.21749346
v -0.9437816 0.19608659 -0.21749346
v -0.93836355 0.10939732 -0.21749346
v -0.9203032 0.1346817 -0.21749346
v -0.9203032 0.067858726 -0.21749346
v -0.88960075 0.12384558 -0.21749346
v -0.8769586 0.047992438 -0.21749346
v -0.87154055 -0.031472743 -0.21749346
v -0.8588984 0.010065883 -0.21749346
v -0.8281959 0.010065883 -0.21749346
v -0.8281959 -0.031472743 -0.21749346
v -1.4603052 -0.02605465 -0.029666692
v -1.4603052 0.011871904 0.017289996
v -1.4603052 -0.02605465 0.017289996
v -1.4603052 0.011871904 -0.029666692
v -1.4603052 -0.02424863 -0.10913187
v -1.4603052 0.011871904 -0.10190776
v -1.4603052 0.10578528 -0.1452524
v -1.4603052 0.13648772 -0.13622227
v -1.4603052 0.16177213 -0.2066573
v -1.4603052 0.19789267 -0.20123923
v -1.4603052 0.16177213 -0.36558765
v -1.4603052 0.19789267 -0.33849725
v -1.4603052 0.18344444 -0.37281173
v -1.4603052 0.24484932 -0.36016956
v -1.4603052 0.2556855 -0.33307916
v -1.4603052 0.2755518 -0.35655752
v -1.4603052 0.31347835 -0.33127314
v -1.4603052 0.29541808 -0.3691997
v -1.4603052 0.32070243 -0.34572136
v -1.4603052 0.32070243 -0.3746178
v -1.4603052 0.35501695 -0.36016956
v -1.4603052 0.32070243 -0.38725996
v -1.4603052 0.35501695 -0.3691997
v -0.9419756 0.19608659 -0.22291155
v -0.9401696 0.19608659 -0.22832963
v -0.9293333 0.19247454 -0.22832963
v -0.9347515 0.19247454 -0.22291155
v -0.9437816 0.19608659 -0.21749346
v -0.93836355 0.19247454 -0.21749346
v -0.9112731 0.1346817 -0.22832963
v -0.9347515 0.19247454 -0.22291155
v -0.9293333 0.19247454 -0.22832963
v -0.9166912 0.1346817 -0.22291155
v -0.93836355 0.19247454 -0.21749346
v -0.9203032 0.1346817 -0.21749346
v -0.9166912 0.1346817 -0.22291155
v -0.9112731 0.1346817 -0.22832963
v -0.8823767 0.12384558 -0.22832963
v -0.8859887 0.12384558 -0.22291155
v -0.9203032 0.1346817 -0.21749346
v -0.88960075 0.12384558 -0.21749346
v -0.8859887 0.12384558 -0.22291155
v -0.8823767 0.12384558 -0.22832963
v -0.8697345 0.05160448 -0.22832963
v -0.87334657 0.04979846 -0.22291155
v -0.88960075 0.12384558 -0.21749346
v -0.84625614 0.013677925 -0.22832963
v -0.8769586 0.047992438 -0.21749346
v -0.8516742 0.011871904 -0.22291155
v -0.8588984 0.010065883 -0.21749346
v -0.8245839 0.013677925 -0.22832963
v -0.8516742 0.011871904 -0.22291155
v -0.84625614 0.013677925 -0.22832963
v -0.8263899 0.011871904 -0.22291155
v -0.8588984 0.010065883 -0.21749346
v -0.8281959 0.010065883 -0.21749346
v -0.76317894 0.013677925 -0.14886446
v -0.8281959 0.010065883 -0.21749346
v -0.8263899 0.011871904 -0.22291155
v -0.75595486 0.015483946 -0.14705843
v -0.79749346 0.0028417706 -0.10913187
v -0.7992995 0.0028417706 -0.112743914
v -0.7487308 0.017289996 -0.14705843
v -0.8245839 0.013677925 -0.22832963
v -0.7938814 0.0028417706 -0.10551983
v -1.1334144 0.28096986 -0.36378163
v -1.1352204 0.27916384 -0.36016956
v -1.1623108 0.3297326 -0.36016956
v -1.1605048 0.3297326 -0.36378163
v -1.1316084 0.28277588 -0.3691997
v -1.1966254 0.34598678 -0.36016956
v -1.1586988 0.3297326 -0.3691997
v -1.1948193 0.34598678 -0.36378163
v -1.245388 0.35321093 -0.36016956
v -1.1948193 0.34598678 -0.3691997
v -1.243582 0.35321093 -0.36378163
v -1.3555557 0.3514049 -0.36016956
v -1.243582 0.35321093 -0.3691997
v -1.3555557 0.3514049 -0.36378163
v -1.449469 0.35501695 -0.36016956
v -1.3555557 0.3514049 -0.3691997
v -1.4548872 0.35501695 -0.36378163
v -1.4603052 0.35501695 -0.3691997
v -1.4603052 0.35501695 -0.36016956
v -1.4548872 0.35501695 -0.36016956
v -1.1334144 0.28096986 -0.36378163
v -1.0990999 0.23401314 -0.33307916
v -1.1352204 0.27916384 -0.36016956
v -1.0972939 0.23401314 -0.33849725
v -1.1316084 0.28277588 -0.3691997
v -1.0954878 0.23401314 -0.3439153
v -1.0539492 0.22678906 -0.31321287
v -1.0557553 0.22678906 -0.3077948
v -1.0575613 0.22678906 -0.30237672
v -1.0449191 0.21775895 -0.30418274
v -1.0449191 0.21775895 -0.3005707
v -1.0467252 0.21775895 -0.2951526
v -1.0142167 0.19428056 -0.27709234
v -1.0124106 0.19428056 -0.28070438
v -0.9401696 0.19608659 -0.22832963
v -1.0160227 0.19428056 -0.27167428
v -0.9419756 0.19608659 -0.22291155
v -0.9437816 0.19608659 -0.21749346
v -1.4603052 -0.02605465 0.017289996
v -1.4603052 0.011871904 0.017289996
v -1.379034 0.011871904 0.020902038
v -1.379034 -0.02605465 0.020902038
v -1.2201036 0.010065883 0.029932171
v -1.2201036 -0.02605465 0.029932171
v -1.1984314 0.010065883 0.029932171
v -1.1984314 -0.02605465 0.029932171
v -1.1586988 0.008259863 0.05521655
v -1.1984314 -0.02605465 0.029932171
v -1.1984314 0.010065883 0.029932171
v -1.1586988 -0.029666692 0.05521655
v -1.106324 0.006453812 0.091337085
v -1.106324 -0.031472743 0.091337085
v -1.039501 0.0046477914 0.091337085
v -1.106324 -0.031472743 0.091337085
v -1.106324 0.006453812 0.091337085
v -1.039501 -0.033278763 0.091337085
v -0.9997684 0.008259863 0.091337085
v -0.9997684 -0.029666692 0.091337085
v -0.98170817 0.0046477914 0.11120337
v -0.9997684 -0.029666692 0.091337085
v -0.9997684 0.008259863 0.091337085
v -0.98170817 -0.031472743 0.11120337
v -0.9293333 -0.009800404 0.16899621
v -0.9293333 -0.04772696 0.16899621
v -0.86431646 -0.011606455 0.3062542
v -0.9293333 -0.04772696 0.16899621
v -0.9293333 -0.009800404 0.16899621
v -0.86431646 -0.04772696 0.3062542
v -0.8534802 -0.011606455 0.3261205
v -0.8534802 -0.04772696 0.3261205
v -1.4603052 0.35501695 -0.3691997
v -1.4603052 0.32070243 -0.38725996
v -1.3555557 0.3514049 -0.3691997
v -1.3555557 0.30806023 -0.3691997
v -1.3555557 0.3514049 -0.3691997
v -1.3555557 0.30806023 -0.3691997
v -1.2490001 0.31167233 -0.3691997
v -1.243582 0.35321093 -0.3691997
v -1.2128795 0.3044482 -0.3691997
v -1.1948193 0.34598678 -0.3691997
v -1.180371 0.28638792 -0.3691997
v -1.1586988 0.3297326 -0.3691997
v -1.1316084 0.23401314 -0.3691997
v -1.1316084 0.28277588 -0.3691997
v -1.0954878 0.19247454 -0.3439153
v -1.1316084 0.28277588 -0.3691997
v -1.1316084 0.23401314 -0.3691997
v -1.0954878 0.23401314 -0.3439153
v -1.0539492 0.17802632 -0.31321287
v -1.0539492 0.22678906 -0.31321287
v -1.0449191 0.17441428 -0.30418274
v -1.0449191 0.21775895 -0.30418274
v -1.0124106 0.15274197 -0.28070438
v -1.0124106 0.19428056 -0.28070438
v -0.9401696 0.1075913 -0.22832963
v -0.9401696 0.19608659 -0.22832963
v -0.9401696 0.19608659 -0.22832963
v -0.9401696 0.1075913 -0.22832963
v -0.9293333 0.09675515 -0.22832963
v -0.9293333 0.19247454 -0.22832963
v -0.9112731 0.064246684 -0.22832963
v -0.9112731 0.1346817 -0.22832963
v -0.8823767 0.008259863 -0.22832963
v -0.8823767 0.12384558 -0.22832963
v -0.8697345 -0.031472743 -0.22832963
v -0.8697345 0.05160448 -0.22832963
v -0.84625614 -0.031472743 -0.22832963
v -0.84625614 0.013677925 -0.22832963
v -0.8245839 -0.031472743 -0.22832963
v -0.8245839 0.013677925 -0.22832963
v -0.8245839 0.013677925 -0.22832963
v -0.8245839 -0.031472743 -0.22832963
v -0.7487308 -0.018830538 -0.14705843
v -0.7487308 0.017289996 -0.14705843
vt 0.0029405875 0.7322062
vt 0.0029405875 0.7322062
vt 0.0029405875 0.7351468
vt 0.20584111 0.5322463
vt 0.21466288 0.54694927
vt 0.21466288 0.5440087
vt 0.2087817 0.5322463
vt 0.20584111 0.520484
vt 0.2087817 0.520484
vt 0.0029405875 0.5675334
vt 0 0.520484
vt 0 0.5675334
vt 0.0029405875 0.520484
vt 0.0029405875 0.5675334
vt 0.0029405875 0.520484
vt 0.0029405875 0.49401867
vt 0.0029405875 0.49107808
vt 0 0.4881375
vt 0.026465286 0.49401867
vt 0.026465286 0.48519692
vt 0.026465286 0.49107808
vt 0.07939586 0.4881375
vt 0.08233645 0.48519692
vt 0.08233645 0.48225632
vt 0.09115821 0.4881375
vt 0.09115821 0.48519692
vt 0.08821762 0.47931573
vt 0.102920555 0.47343457
vt 0.102920555 0.46755338
vt 0.12350467 0.44696927
vt 0.102920555 0.4646128
vt 0.12056408 0.4440287
vt 0.12056408 0.4410881
vt 0.0029405875 0.5881175
vt 0 0.5675334
vt 0 0.5881175
vt 0.0029405875 0.5675334
vt 0.0029405875 0.5675334
vt 0.0029405875 0.5881175
vt 0.0029405875 0.6292857
vt 0 0.5881175
vt 0 0.6292857
vt 0.0029405875 0.5881175
vt 0.0029405875 0.6292857
vt 0.0029405875 0.5881175
vt 0.0029405875 0.7175033
vt 0 0.6292857
vt 0 0.7175033
vt 0.0029405875 0.6292857
vt 0.0029405875 0.6292857
vt 0.0029405875 0.7175033
vt 0.0029405875 0.7233845
vt 0 0.7145627
vt 0 0.7233845
vt 0.0029405875 0.7145627
vt 0.0029405875 0.7233845
vt 0.0029405875 0.7116221
vt 0.0029405875 0.7322062
vt 0.0029405875 0.7233845
vt 0 0.7233845
vt 0 0.7322062
vt 0.2087817 0.47931573
vt 0.20584111 0.520484
vt 0.2087817 0.520484
vt 0.20584111 0.47931573
vt 0.2087817 0.42932576
vt 0.20290053 0.47931573
vt 0.20290053 0.520484
vt 0.20584111 0.42932576
vt 0.20290053 0.42932576
vt 0.20584111 0.370514
vt 0.2087817 0.370514
vt 0.20290053 0.370514
vt 0.22642523 0.57047397
vt 0.22936581 0.5675334
vt 0.21466288 0.5440087
vt 0.21466288 0.54694927
vt 0.0029405875 0.7233845
vt 0.0029405875 0.7233845
vt 0.0029405875 0.7322062
vt 0.0029405875 0.7322062
vt 0.21172228 0.54988986
vt 0.22642523 0.57341456
vt 0.22642523 0.57047397
vt 0.21466288 0.54694927
vt 0.21172228 0.54988986
vt 0.21466288 0.54694927
vt 0.20584111 0.5322463
vt 0.20290053 0.5351869
vt 0.20584111 0.520484
vt 0.20290053 0.520484
vt 0.0029405875 0.7145627
vt 0.0029405875 0.7145627
vt 0 0.7145627
vt 0 0.7145627
vt 0.0029405875 0.7145627
vt 0.0029405875 0.7145627
vt 0.0029405875 0.7116221
vt 0.0029405875 0.7145627
vt 0.0029405875 0.7175033
vt 0 0.7175033
vt 0 0.7145627
vt 0.0029405875 0.7145627
vt 0.0029405875 0.7175033
vt 0.0029405875 0.7175033
vt 0.0029405875 0.7145627
vt 0.0029405875 0.7145627
vt 0.2087817 0.5322463
vt 0.2087817 0.5322463
vt 0.21466288 0.5440087
vt 0.21466288 0.5440087
vt 0.22936581 0.5675334
vt 0.22936581 0.5675334
vt 0.24406876 0.5939987
vt 0.24406876 0.5939987
vt 0.2087817 0.520484
vt 0.2087817 0.5322463
vt 0.2087817 0.5322463
vt 0.2087817 0.520484
vt 0.2087817 0.47931573
vt 0.2087817 0.47931573
vt 0.2087817 0.42932576
vt 0.2087817 0.42932576
vt 0.2087817 0.370514
vt 0.2087817 0.370514
vt 0.2087817 0.3499299
vt 0.2087817 0.3499299
vt 0.2087817 0.33228636
vt 0.2087817 0.33228636
vt 0.2087817 0.3028805
vt 0.2087817 0.3087617
vt 0.2087817 0.29111814
vt 0.2087817 0.29111814
vt 0.0029405875 0.7380874
vt 0.0029405875 0.7322062
vt 0.0029405875 0.7380874
vt 0.0029405875 0.7233845
vt 0.0029405875 0.7292657
vt 0.0029405875 0.7116221
vt 0.0029405875 0.7292657
vt 0.0029405875 0.7145627
vt 0.0029405875 0.7175033
vt 0.0029405875 0.7380874
vt 0.0029405875 0.7351468
vt 0.0029405875 0.6322263
vt 0.0029405875 0.6292857
vt 0.0029405875 0.5939987
vt 0.0029405875 0.5881175
vt 0.0029405875 0.57047397
vt 0.0029405875 0.5675334
vt 0.0029405875 0.520484
vt 0.0029405875 0.520484
vt 0.0029405875 0.49401867
vt 0.0029405875 0.49401867
vt 0.23818758 0.5969392
vt 0.23818758 0.5969392
vt 0.22642523 0.57341456
vt 0.22642523 0.57341456
vt 0.21172228 0.54988986
vt 0.21172228 0.54988986
vt 0.20290053 0.5351869
vt 0.20290053 0.5351869
vt 0.20290053 0.5351869
vt 0.20290053 0.5351869
vt 0.20290053 0.520484
vt 0.20290053 0.520484
vt 0.20290053 0.47931573
vt 0.20290053 0.47931573
vt 0.20290053 0.42932576
vt 0.20290053 0.42932576
vt 0.20290053 0.370514
vt 0.20290053 0.370514
vt 0.20290053 0.3499299
vt 0.20290053 0.3499299
vt 0.20290053 0.33228636
vt 0.20290053 0.33228636
vt 0.20290053 0.31758344
vt 0.20290053 0.31758344
vt 0.20584111 0.3499299
vt 0.2087817 0.370514
vt 0.2087817 0.3499299
vt 0.20584111 0.370514
vt 0.20290053 0.3499299
vt 0.20290053 0.370514
vt 0.20584111 0.33228636
vt 0.2087817 0.33228636
vt 0.2087817 0.3087617
vt 0.20584111 0.3087617
vt 0.20290053 0.31758344
vt 0.20290053 0.33228636
vt 0.20290053 0.31170225
vt 0.20584111 0.3028805
vt 0.2087817 0.29111814
vt 0.20290053 0.3028805
vt 0.2087817 0.33228636
vt 0.20584111 0.3499299
vt 0.2087817 0.3499299
vt 0.20584111 0.33228636
vt 0.20290053 0.33228636
vt 0.20290053 0.3499299
vt 0.1646729 0.43520692
vt 0.15879172 0.4440287
vt 0.15879172 0.44696927
vt 0.1646729 0.43226635
vt 0.15879172 0.4410881
vt 0.185257 0.3940387
vt 0.1646729 0.42932576
vt 0.18231642 0.3940387
vt 0.20290053 0.31758344
vt 0.18231642 0.3910981
vt 0.20290053 0.31170225
vt 0.20290053 0.3028805
vt 0.14408877 0.44696927
vt 0.12056408 0.4440287
vt 0.12350467 0.44696927
vt 0.14408877 0.4440287
vt 0.15879172 0.44696927
vt 0.12056408 0.4410881
vt 0.15879172 0.4440287
vt 0.14408877 0.4410881
vt 0.15879172 0.4410881
vt 0.102920555 0.47343457
vt 0.12350467 0.44696927
vt 0.12350467 0.44696927
vt 0.102920555 0.47343457
vt 0.09115821 0.4881375
vt 0.09115821 0.4881375
vt 0.14408877 0.44696927
vt 0.15879172 0.44696927
vt 0.15879172 0.44696927
vt 0.14408877 0.44696927
vt 0.12350467 0.44696927
vt 0.12350467 0.44696927
vt 0.07939586 0.4881375
vt 0.09115821 0.4881375
vt 0.09115821 0.4881375
vt 0.07939586 0.4881375
vt 0.026465286 0.49401867
vt 0.026465286 0.49401867
vt 0.0029405875 0.49401867
vt 0.0029405875 0.49401867
vt 0.185257 0.3940387
vt 0.185257 0.3940387
vt 0.20290053 0.31758344
vt 0.20290053 0.31758344
vt 0.1646729 0.43520692
vt 0.185257 0.3940387
vt 0.185257 0.3940387
vt 0.1646729 0.43520692
vt 0.15879172 0.44696927
vt 0.15879172 0.44696927
vt 0.23818758 0.5969392
vt 0.23818758 0.5969392
vt 0.21466288 0.641048
vt 0.21466288 0.641048
vt 0.03528705 0.7322062
vt 0.0029405875 0.7380874
vt 0.0029405875 0.7322062
vt 0.03528705 0.7322062
vt 0.073514685 0.7322062
vt 0.03528705 0.7322062
vt 0.03528705 0.7322062
vt 0.0705741 0.7322062
vt 0.09115821 0.7322062
vt 0.085277036 0.7322062
vt 0.102920555 0.7322062
vt 0.0940988 0.7322062
vt 0.11174232 0.7322062
vt 0.11174232 0.7322062
vt 0.11174232 0.7322062
vt 0.11174232 0.7322062
vt 0.12350467 0.7145627
vt 0.12350467 0.7145627
vt 0.1382076 0.6939786
vt 0.1411482 0.691038
vt 0.1411482 0.691038
vt 0.15291055 0.6763351
vt 0.15291055 0.6763351
vt 0.17643525 0.641048
vt 0.17643525 0.641048
vt 0.17937583 0.641048
vt 0.17643525 0.641048
vt 0.17643525 0.641048
vt 0.17937583 0.641048
vt 0.185257 0.641048
vt 0.185257 0.641048
vt 0.19407876 0.641048
vt 0.19995993 0.641048
vt 0.20290053 0.641048
vt 0.20584111 0.641048
vt 0.21466288 0.641048
vt 0.21466288 0.641048
vt 0 0.520484
vt 0 0.4881375
vt 0 0.4881375
vt 0 0.520484
vt 0 0.57047397
vt 0 0.5675334
vt 0 0.5939987
vt 0 0.5881175
vt 0 0.6322263
vt 0 0.6292857
vt 0 0.7351468
vt 0 0.7175033
vt 0 0.741028
vt 0 0.7322062
vt 0 0.7145627
vt 0 0.7292657
vt 0 0.7145627
vt 0 0.7380874
vt 0 0.7233845
vt 0 0.741028
vt 0 0.7322062
vt 0 0.7498498
vt 0 0.7380874
vt 0.17643525 0.6439886
vt 0.17643525 0.6469292
vt 0.18231642 0.6469292
vt 0.17937583 0.6439886
vt 0.17643525 0.641048
vt 0.17937583 0.641048
vt 0.1881976 0.6469292
vt 0.17937583 0.6439886
vt 0.18231642 0.6469292
vt 0.185257 0.6439886
vt 0.17937583 0.641048
vt 0.185257 0.641048
vt 0.185257 0.6439886
vt 0.1881976 0.6469292
vt 0.19701935 0.6469292
vt 0.19701935 0.6439886
vt 0.185257 0.641048
vt 0.19407876 0.641048
vt 0.19701935 0.6439886
vt 0.19701935 0.6469292
vt 0.20290053 0.6469292
vt 0.19995993 0.6439886
vt 0.19407876 0.641048
vt 0.21172228 0.6469292
vt 0.19995993 0.641048
vt 0.2087817 0.6439886
vt 0.20584111 0.641048
vt 0.21760346 0.6469292
vt 0.2087817 0.6439886
vt 0.21172228 0.6469292
vt 0.21760346 0.6439886
vt 0.20584111 0.641048
vt 0.21466288 0.641048
vt 0.23818758 0.5969392
vt 0.21466288 0.641048
vt 0.21760346 0.6439886
vt 0.24112816 0.5939987
vt 0.22642523 0.57047397
vt 0.22642523 0.57341456
vt 0.24406876 0.5939987
vt 0.21760346 0.6469292
vt 0.22936581 0.5675334
vt 0.11174232 0.7351468
vt 0.11174232 0.7322062
vt 0.102920555 0.7322062
vt 0.102920555 0.7351468
vt 0.11174232 0.7380874
vt 0.09115821 0.7322062
vt 0.102920555 0.7380874
vt 0.09115821 0.7351468
vt 0.073514685 0.7322062
vt 0.09115821 0.7380874
vt 0.073514685 0.7351468
vt 0.03528705 0.7322062
vt 0.073514685 0.7380874
vt 0.03528705 0.7351468
vt 0.0029405875 0.7322062
vt 0.03528705 0.7380874
vt 0.0029405875 0.7351468
vt 0 0.7380874
vt 0 0.7322062
vt 0.0029405875 0.7322062
vt 0.11174232 0.7351468
vt 0.12350467 0.7145627
vt 0.11174232 0.7322062
vt 0.12350467 0.7175033
vt 0.11174232 0.7380874
vt 0.12350467 0.7204439
vt 0.1382076 0.7028004
vt 0.1382076 0.6969192
vt 0.1382076 0.6939786
vt 0.1411482 0.6969192
vt 0.1411482 0.6939786
vt 0.1411482 0.691038
vt 0.15291055 0.6792757
vt 0.15291055 0.6822163
vt 0.17643525 0.6469292
vt 0.15291055 0.6763351
vt 0.17643525 0.6439886
vt 0.17643525 0.641048
vt 0 0.4881375
vt 0 0.4881375
vt 0.026465286 0.48519692
vt 0.026465286 0.48519692
vt 0.08233645 0.48225632
vt 0.08233645 0.48225632
vt 0.08821762 0.47931573
vt 0.08821762 0.47931573
vt 0.102920555 0.4646128
vt 0.08821762 0.47931573
vt 0.08821762 0.47931573
vt 0.102920555 0.4646128
vt 0.12056408 0.4410881
vt 0.12056408 0.4410881
vt 0.14408877 0.4410881
vt 0.12056408 0.4410881
vt 0.12056408 0.4410881
vt 0.14408877 0.4410881
vt 0.15879172 0.4410881
vt 0.15879172 0.4410881
vt 0.1646729 0.42932576
vt 0.15879172 0.4410881
vt 0.15879172 0.4410881
vt 0.1646729 0.42932576
vt 0.18231642 0.3910981
vt 0.18231642 0.3910981
vt 0.20290053 0.3028805
vt 0.18231642 0.3910981
vt 0.18231642 0.3910981
vt 0.20290053 0.3028805
vt 0.2087817 0.29111814
vt 0.2087817 0.29111814
vt 0 0.7380874
vt 0 0.7498498
vt 0.03528705 0.7380874
vt 0.03528705 0.7380874
vt 0.03528705 0.7380874
vt 0.03528705 0.7380874
vt 0.073514685 0.7380874
vt 0.073514685 0.7380874
vt 0.085277036 0.7380874
vt 0.09115821 0.7380874
vt 0.09703938 0.7380874
vt 0.102920555 0.7380874
vt 0.11174232 0.7380874
vt 0.11174232 0.7380874
vt 0.12350467 0.7204439
vt 0.11174232 0.7380874
vt 0.11174232 0.7380874
vt 0.12350467 0.7204439
vt 0.1382076 0.7028004
vt 0.1382076 0.7028004
vt 0.1411482 0.6969192
vt 0.1411482 0.6969192
vt 0.15291055 0.6822163
vt 0.15291055 0.6822163
vt 0.17643525 0.6469292
vt 0.17643525 0.6469292
vt 0.17643525 0.6469292
vt 0.17643525 0.6469292
vt 0.18231642 0.6469292
vt 0.18231642 0.6469292
vt 0.1881976 0.6469292
vt 0.1881976 0.6469292
vt 0.19701935 0.6469292
vt 0.19701935 0.6469292
vt 0.20290053 0.6469292
vt 0.20290053 0.6469292
vt 0.21172228 0.6469292
vt 0.21172228 0.6469292
vt 0.21760346 0.6469292
vt 0.21760346 0.6469292
vt 0.21760346 0.6469292
vt 0.21760346 0.6469292
vt 0.24406876 0.5939987
vt 0.24406876 0.5939987
vn -0.04756513 0.99886817 -0
vn -0.04756513 0.99886817 -0
vn 0.015870988 0.968132 0.24993704
vn -0.04756513 0.99886817 -0
vn -0.04756513 0.99886817 -0
vn -0.04756513 0.99886817 -0
vn -0.04756513 0.99886817 -0
vn -0.04756513 0.99886817 -0
vn -0.04756513 0.99886817 -0
vn 0.015870988 0.999874 -0.00034526698
vn 0.015870988 0.999874 -0.00034526698
vn 0.015870988 0.999874 -0.00034526698
vn 0.015870988 0.999874 -0.00034526698
vn -0.015871048 0.999874 -0.00034526698
vn -0.015871048 0.999874 -0.00034526698
vn -0.015871048 0.999874 -0.00034526698
vn -0.015871048 0.999874 -0.00034526698
vn -0.015871048 0.999874 -0.00034526698
vn 0.015870988 0.999874 -0.00034526698
vn 0.015870988 0.999874 -0.00034526698
vn 0.015870988 0.999874 -0.00034526698
vn 0.015870988 0.999874 -0.00034526698
vn 0.015870988 0.999874 -0.00034526698
vn 0.015870988 0.999874 -0.00034526698
vn 0.015870988 0.999874 -0.00034526698
vn 0.015870988 0.999874 -0.00034526698
vn 0.015870988 0.999874 -0.00034526698
vn 0.015870988 0.999874 -0.00034526698
vn 0.015870988 0.999874 -0.00034526698
vn 0.015870988 0.999874 -0.00034526698
vn 0.015870988 0.999874 -0.00034526698
vn 0.015870988 0.999874 -0.00034526698
vn 0.015870988 0.999874 -0.00034526698
vn 0.015870988 0.26980734 0.9627835
vn 0.015870988 0.26980734 0.9627835
vn 0.015870988 0.26980734 0.9627835
vn 0.015870988 0.26980734 0.9627835
vn 0.015870988 0.26980734 0.9627835
vn 0.015870988 0.26980734 0.9627835
vn 0.015870988 0.7141957 0.6997661
vn 0.015870988 0.7141957 0.6997661
vn 0.015870988 0.7141957 0.6997661
vn 0.015870988 0.7141957 0.6997661
vn 0.015870988 0.7141957 0.6997661
vn 0.015870988 0.7141957 0.6997661
vn 0.015870988 0.999874 -0.00034526698
vn 0.015870988 0.999874 -0.00034526698
vn 0.015870988 0.999874 -0.00034526698
vn 0.015870988 0.999874 -0.00034526698
vn -0.015871048 0.999874 -0.00034526698
vn -0.015871048 0.999874 -0.00034526698
vn -0.3332913 0.8411639 0.42586413
vn -0.3332913 0.8411639 0.42586413
vn -0.3332913 0.8411639 0.42586413
vn -0.3332913 0.8411639 0.42586413
vn -0.3332913 0.8411639 0.42586413
vn -0.3332913 0.8411639 0.42586413
vn -0.23806524 0.39677536 0.88650674
vn -0.23806524 0.39677536 0.88650674
vn -0.23806524 0.39677536 0.88650674
vn -0.23806524 0.39677536 0.88650674
vn -0.20632327 0.968132 0.1419547
vn -0.17458117 0.968132 0.17956008
vn -0.17458117 0.968132 0.17956008
vn -0.20632327 0.968132 0.1419547
vn -0.20632327 0.968132 0.1419547
vn -0.14142141 0.98994946 -0
vn -0.14142141 0.98994946 -0
vn -0.20632327 0.968132 0.1419547
vn -0.17458117 0.968132 0.17956008
vn -0.14142141 0.98994946 -0
vn -0.14142141 0.98994946 -0
vn -0.172001 0.9850967 -0
vn -0.14142141 0.98994946 -0
vn -0.14142141 0.98994946 -0
vn -0.14142141 0.98994946 -0
vn -0.14142141 0.98994946 -0
vn -0.17458117 0.42851746 0.88650674
vn -0.17458117 0.42851746 0.88650674
vn -0.17458117 0.42851746 0.88650674
vn -0.17458117 0.42851746 0.88650674
vn -0.110431515 0.9938838 -0
vn -0.110431515 0.9938838 -0
vn -0.110431515 0.9938838 -0
vn -0.110431515 0.9938838 -0
vn 0.015870988 0.999874 -0.00034526698
vn 0.015870988 0.999874 -0.00034526698
vn 0.015870988 0.999874 -0.00034526698
vn 0.015870988 0.999874 -0.00034526698
vn -0.04756513 0.99886817 -0
vn -0.04756513 0.99886817 -0
vn 0.015870988 -0.047613025 0.9987398
vn 0.015870988 -0.047613025 0.9987398
vn 0.015870988 -0.047613025 0.9987398
vn 0.015870988 -0.047613025 0.9987398
vn -0.30154932 -0.047613025 0.952261
vn -0.30154932 -0.047613025 0.952261
vn -0.30154932 -0.047613025 0.952261
vn -0.30154932 -0.047613025 0.952261
vn 0.015870988 -0.1110971 0.9936828
vn 0.015870988 -0.1110971 0.9936828
vn 0.015870988 -0.1110971 0.9936828
vn 0.015870988 -0.1110971 0.9936828
vn -0.3650334 -0.07935506 0.9276063
vn -0.3650334 -0.07935506 0.9276063
vn -0.3650334 -0.07935506 0.9276063
vn -0.3650334 -0.07935506 0.9276063
vn 0.68245363 0.015871048 0.7307566
vn 0.68245363 0.015871048 0.7307566
vn 0.68245363 0.015871048 0.7307566
vn 0.68245363 0.015871048 0.7307566
vn 0.68245363 0.015871048 0.7307566
vn 0.68245363 0.015871048 0.7307566
vn 0.68245363 0.015871048 0.7307566
vn 0.68245363 0.015871048 0.7307566
vn 0.999874 0.015871048 -0.00034391563
vn 0.999874 0.015871048 -0.00034391563
vn 0.999874 0.015871048 -0.00034391563
vn 0.999874 0.015871048 -0.00034391563
vn 0.999874 0.015871048 -0.00034391563
vn 0.999874 0.015871048 -0.00034391563
vn 0.999874 0.015871048 -0.00034391563
vn 0.999874 0.015871048 -0.00034391563
vn 0.999874 0.015871048 -0.00034391563
vn 0.999874 0.015871048 -0.00034391563
vn 0.999874 0.015871048 -0.00034391563
vn 0.999874 0.015871048 -0.00034391563
vn 0.999874 0.015871048 -0.00034391563
vn 0.999874 0.015871048 -0.00034391563
vn 0.999874 0.015871048 -0.00034391563
vn 0.999874 0.015871048 -0.00034391563
vn 0.999874 0.015871048 -0.00034391563
vn 0.999874 0.015871048 -0.00034391563
vn 0.999874 0.015871048 -0.00034391563
vn 0.999874 0.015871048 -0.00034391563
vn 0.999874 0.015871048 -0.00034391563
vn 0.999874 0.015871048 -0.00034391563
vn 0.999874 0.015871048 -0.00034391563
vn 0.999874 0.015871048 -0.00034391563
vn 0.999874 0.015871048 -0.00034391563
vn 0.999874 0.015871048 -0.00034391563
vn 0.999874 0.015871048 -0.00034391563
vn 0.999874 0.015871048 -0.00034391563
vn 0.999874 0.015871048 -0.00034391563
vn 0.999874 0.015871048 -0.00034391563
vn 0.999874 0.015871048 -0.00034391563
vn 0.999874 0.015871048 -0.00034391563
vn 0.999874 0.015871048 -0.00034391563
vn 0.999874 0.015871048 -0.00034391563
vn 0.999874 0.015871048 -0.00034391563
vn 0.999874 0.015871048 -0.00034391563
vn 0.999874 0.015871048 -0.00034391563
vn 0.999874 0.015871048 -0.00034391563
vn 0.999874 0.015871048 -0.00034391563
vn -0.68245375 0.015871048 -0.73075646
vn -0.68245375 0.015871048 -0.73075646
vn -0.68245375 0.015871048 -0.73075646
vn -0.68245375 0.015871048 -0.73075646
vn -0.68245375 0.015871048 -0.73075646
vn -0.68245375 0.015871048 -0.73075646
vn -0.68245375 0.015871048 -0.73075646
vn -0.68245375 0.015871048 -0.73075646
vn -0.999874 0.015871048 -0.00034391563
vn -0.999874 0.015871048 -0.00034391563
vn -0.999874 0.015871048 -0.00034391563
vn -0.999874 0.015871048 -0.00034391563
vn -0.999874 0.015871048 -0.00034391563
vn -0.999874 0.015871048 -0.00034391563
vn -0.999874 0.015871048 -0.00034391563
vn -0.999874 0.015871048 -0.00034391563
vn -0.999874 0.015871048 -0.00034391563
vn -0.999874 0.015871048 -0.00034391563
vn -0.999874 0.015871048 -0.00034391563
vn -0.999874 0.015871048 -0.00034391563
vn -0.999874 0.015871048 -0.00034391563
vn -0.999874 0.015871048 -0.00034391563
vn -0.999874 0.015871048 -0.00034391563
vn -0.999874 0.015871048 -0.00034391563
vn -0.110431515 0.9938838 -0
vn -0.110431515 0.9938838 -0
vn -0.110431515 0.9938838 -0
vn -0.110431515 0.9938838 -0
vn -0.079116344 0.9968654 -0
vn -0.079116344 0.9968654 -0
vn -0.9037378 0.42808634 -0
vn -0.9037378 0.42808634 -0
vn -0.8411639 0.5237435 0.13467027
vn -0.8344646 0.5510616 -0
vn -0.6189697 0.7776798 0.10995764
vn -0.6189697 0.7776798 0.10995764
vn -0.70710677 0.70710677 -0
vn -0.7141957 0.65071166 0.2578737
vn -0.7459378 0.6189697 0.24587251
vn -0.5237435 0.8411639 0.13467027
vn -0.6189697 0.7141957 -0.32680428
vn -0.6189697 0.7141957 -0.32680428
vn -0.6189697 0.7141957 -0.32680428
vn -0.6189697 0.7141957 -0.32680428
vn -0.5554856 0.8094218 -0.19045253
vn -0.5554856 0.8094218 -0.19045253
vn 0.14142135 0.98994946 -0
vn 0.110431515 0.9938838 -0
vn 0.110431515 0.9938838 -0
vn 0.14142135 0.98994946 -0
vn 0.110431515 0.9938838 -0
vn 0.110431515 0.9938838 -0
vn 0.14283913 0.968132 0.20571192
vn 0.04756513 0.99886817 -0
vn 0.110431515 0.9938838 -0
vn 0.015870988 0.999874 -0.00034526698
vn -0.04756513 0.99886817 -0
vn -0.079116344 0.9968654 -0
vn -0.015871048 0.999874 -0.00034526698
vn 0.015870988 0.999874 -0.00034526698
vn 0.015870988 0.999874 -0.00034526698
vn -0.015871048 0.999874 -0.00034526698
vn -0.079116344 0.9968654 -0
vn 0.015870988 0.999874 -0.00034526698
vn -0.079116344 0.9968654 -0
vn -0.015871048 0.999874 -0.00034526698
vn -0.079116344 0.9968654 -0
vn 0.55548555 0.015871048 -0.8313747
vn 0.55548555 0.015871048 -0.8313747
vn 0.55548555 0.015871048 -0.8313747
vn 0.55548555 0.015871048 -0.8313747
vn 0.55548555 0.015871048 -0.8313747
vn 0.55548555 0.015871048 -0.8313747
vn -0.015871048 0.015871048 -0.99974805
vn -0.015871048 0.015871048 -0.99974805
vn -0.015871048 0.015871048 -0.99974805
vn -0.015871048 0.015871048 -0.99974805
vn -0.015871048 0.015871048 -0.99974805
vn -0.015871048 0.015871048 -0.99974805
vn 0.047613025 0.015871048 -0.9987398
vn 0.047613025 0.015871048 -0.9987398
vn 0.047613025 0.015871048 -0.9987398
vn 0.047613025 0.015871048 -0.9987398
vn 0.047613025 0.015871048 -0.9987398
vn 0.047613025 0.015871048 -0.9987398
vn 0.047613025 0.015871048 -0.9987398
vn 0.047613025 0.015871048 -0.9987398
vn 0.9046479 0.015871048 -0.4258642
vn 0.9046479 0.015871048 -0.4258642
vn 0.9046479 0.015871048 -0.4258642
vn 0.9046479 0.015871048 -0.4258642
vn 0.7459377 0.015871048 -0.66582656
vn 0.7459377 0.015871048 -0.66582656
vn 0.7459377 0.015871048 -0.66582656
vn 0.7459377 0.015871048 -0.66582656
vn 0.7459377 0.015871048 -0.66582656
vn 0.7459377 0.015871048 -0.66582656
vn -0.7459378 0.015871048 0.66582644
vn -0.7459378 0.015871048 0.66582644
vn -0.7459378 0.015871048 0.66582644
vn -0.7459378 0.015871048 0.66582644
vn -0.07935512 -0.047613025 0.9957087
vn -0.047613025 -0.17458117 0.98349094
vn -0.015871048 -0.23806524 0.97111946
vn -0.07935512 0.015871048 0.9967201
vn -0.015871048 0.015871048 0.99974805
vn -0.015871048 0.015871048 0.99974805
vn -0.015871048 0.015871048 0.99974805
vn -0.015871048 0.015871048 0.99974805
vn -0.015871048 0.015871048 0.99974805
vn -0.015871048 0.015871048 0.99974805
vn -0.015871048 0.015871048 0.99974805
vn -0.015871048 0.015871048 0.99974805
vn -0.015871048 0.015871048 0.99974805
vn -0.015871048 0.015871048 0.99974805
vn -0.5872276 0.015871048 0.80926627
vn -0.5872276 0.015871048 0.80926627
vn -0.5872276 0.015871048 0.80926627
vn -0.5872276 0.015871048 0.80926627
vn -0.5872276 0.015871048 0.80926627
vn -0.5872276 0.015871048 0.80926627
vn -0.5872276 0.015871048 0.80926627
vn -0.5872276 0.015871048 0.80926627
vn -0.5872276 0.015871048 0.80926627
vn -0.5872276 0.015871048 0.80926627
vn -0.5872276 0.015871048 0.80926627
vn -0.015871048 0.015871048 0.99974805
vn -0.015871048 0.015871048 0.99974805
vn -0.015871048 0.015871048 0.99974805
vn -0.015871048 0.015871048 0.99974805
vn -0.015871048 0.015871048 0.99974805
vn -0.015871048 0.015871048 0.99974805
vn -0.015871048 0.015871048 0.99974805
vn -0.015871048 0.015871048 0.99974805
vn -0.015871048 0.015871048 0.99974805
vn -0.015871048 0.015871048 0.99974805
vn -0.015871048 0.015871048 0.99974805
vn -0.015871048 0.015871048 0.99974805
vn -0.999874 0.015871048 -0.00034391563
vn -0.999874 -0.015870988 -0.00034665503
vn -0.999874 -0.015870988 -0.00034665503
vn -0.999874 0.015871048 -0.00034391563
vn -0.999874 0.015871048 -0.00034391563
vn -0.999874 0.015871048 -0.00034391563
vn -0.999874 0.015871048 -0.00034391563
vn -0.999874 0.015871048 -0.00034391563
vn -0.999874 0.015871048 -0.00034391563
vn -0.999874 0.015871048 -0.00034391563
vn -0.999874 0.015871048 -0.00034391563
vn -0.999874 0.015871048 -0.00034391563
vn -0.999874 0.015871048 -0.00034391563
vn -0.999874 0.015871048 -0.00034391563
vn -0.999874 0.015871048 -0.00034391563
vn -0.999874 0.015871048 -0.00034391563
vn -0.999874 0.015871048 -0.00034391563
vn -0.999874 0.015871048 -0.00034391563
vn -0.999874 0.015871048 -0.00034391563
vn -0.999874 0.015871048 -0.00034391563
vn -0.999874 0.015871048 -0.00034391563
vn -0.999874 0.015871048 -0.00034391563
vn -0.999874 0.015871048 -0.00034391563
vn 0.5237435 0.8094218 0.26557326
vn 0.46025944 0.8411639 0.28390953
vn 0.46025944 0.8411639 0.28390953
vn 0.49200147 0.8411639 0.22445023
vn 0.55548555 0.7459378 0.36744055
vn 0.55548555 0.7459378 0.36744055
vn 0.7459377 0.23806524 0.62201434
vn 0.7459377 0.23806524 0.62201434
vn 0.7459377 0.23806524 0.62201434
vn 0.7459377 0.23806524 0.62201434
vn 0.7459377 0.23806524 0.62201434
vn 0.7459377 0.23806524 0.62201434
vn 0.33329135 0.9363899 0.10995791
vn 0.33329135 0.9363899 0.10995791
vn 0.33329135 0.9363899 0.10995791
vn 0.33329135 0.9363899 0.10995791
vn 0.33329135 0.9363899 0.10995791
vn 0.33329135 0.9363899 0.10995791
vn 0.7776798 0.1428392 0.6122182
vn 0.7776798 0.1428392 0.6122182
vn 0.7141957 0.23806524 0.65821683
vn 0.7141957 0.20632327 0.6688462
vn 0.7776798 0.1428392 0.6122182
vn 0.5872276 0.3332913 0.73761827
vn 0.7141957 0.20632327 0.6688462
vn 0.5872276 0.3332913 0.73761827
vn 0.5872276 0.3332913 0.73761827
vn 0.015870988 0.968132 0.24993704
vn 0.015870988 0.968132 0.24993704
vn 0.015870988 0.968132 0.24993704
vn 0.015870988 0.968132 0.24993704
vn 0.015870988 0.968132 0.24993704
vn 0.015870988 0.968132 0.24993704
vn -0.17458117 0.968132 0.17956008
vn -0.26980734 0.9363899 0.22445023
vn -0.23806524 0.968132 0.07775179
vn -0.20632327 0.968132 0.1419547
vn -0.1428392 0.968132 0.20571192
vn -0.17458117 0.968132 0.17956008
vn -0.20632327 0.968132 0.1419547
vn -0.20632327 0.968132 0.1419547
vn -0.1428392 0.968132 0.20571192
vn 0.8094218 0.46025944 0.36468846
vn 0.8094218 0.46025944 0.36468846
vn 0.68245363 0.68245375 0.26175165
vn 0.68245363 0.68245375 0.26175165
vn 0.8094218 0.49200153 0.32057902
vn 0.23806524 0.968132 0.07775179
vn 0.7141957 0.65071166 0.2578737
vn 0.26845825 0.96329135 -0
vn 0.015870988 0.999874 -0.00034526698
vn 0.26845825 0.96329135 -0
vn 0.015870988 0.999874 -0.00034526698
vn 0.015870988 0.999874 -0.00034526698
vn 0.04756513 0.99886817 -0
vn 0.015870988 0.999874 -0.00034526698
vn 0.015870988 0.968132 0.24993704
vn 0.015870988 0.999874 -0.00034526698
vn 0.04756513 0.99886817 -0
vn 0.04756513 0.99886817 -0
vn 0.015870988 0.968132 0.24993704
vn 0.015870988 0.968132 0.24993704
vn 0.65071166 0.68245375 0.3329132
vn 0.39677536 0.90464795 0.15550359
vn 0.65071166 0.68245375 0.3329132
vn 0.46025944 0.87290585 0.16185382
vn 0.68245363 0.68245375 0.26175165
vn 0.5237435 0.8411639 0.13467027
vn 0.23806524 0.968132 0.07775179
vn 0.26845825 0.96329135 -0
vn 0.30154932 0.9363899 0.17956024
vn 0.5237435 0.8411639 0.13467027
vn 0.5237435 0.8411639 0.13467027
vn 0.5237435 0.8411639 0.13467027
vn 0.172001 0.9850967 -0
vn 0.2063232 0.968132 0.1419547
vn -0.015871048 0.999874 -0.00034526698
vn 0.110431515 0.9938838 -0
vn -0.015871048 0.999874 -0.00034526698
vn -0.015871048 0.999874 -0.00034526698
vn -0.047613025 0.015871048 0.9987398
vn -0.047613025 0.015871048 0.9987398
vn -0.047613025 0.015871048 0.9987398
vn -0.047613025 0.015871048 0.9987398
vn -0.047613025 0.015871048 0.9987398
vn -0.047613025 0.015871048 0.9987398
vn -0.047613025 0.015871048 0.9987398
vn -0.047613025 0.015871048 0.9987398
vn -0.5554856 0.015871048 0.8313747
vn -0.5554856 0.015871048 0.8313747
vn -0.5554856 0.015871048 0.8313747
vn -0.5554856 0.015871048 0.8313747
vn -0.5554856 0.015871048 0.8313747
vn -0.5554856 0.015871048 0.8313747
vn -0.015871048 0.015871048 0.99974805
vn -0.015871048 0.015871048 0.99974805
vn -0.015871048 0.015871048 0.99974805
vn -0.015871048 0.015871048 0.99974805
vn -0.015871048 0.015871048 0.99974805
vn -0.015871048 0.015871048 0.99974805
vn -0.7459378 0.015871048 0.66582644
vn -0.7459378 0.015871048 0.66582644
vn -0.7459378 0.015871048 0.66582644
vn -0.7459378 0.015871048 0.66582644
vn -0.7459378 0.015871048 0.66582644
vn -0.7459378 0.015871048 0.66582644
vn -0.90464795 0.015871048 0.42586404
vn -0.90464795 0.015871048 0.42586404
vn -0.90464795 0.015871048 0.42586404
vn -0.90464795 0.015871048 0.42586404
vn -0.90464795 0.015871048 0.42586404
vn -0.90464795 0.015871048 0.42586404
vn 0.015870988 0.46025944 -0.8876426
vn 0.047613025 0.3332913 -0.9416209
vn 0.14283913 0.07935512 -0.98655957
vn 0.17458117 0.015871048 -0.98451483
vn -0.015871048 0.015871048 -0.99974805
vn -0.015871048 0.015871048 -0.99974805
vn -0.015871048 0.015871048 -0.99974805
vn -0.015871048 0.015871048 -0.99974805
vn -0.015871048 0.015871048 -0.99974805
vn -0.015871048 0.015871048 -0.99974805
vn -0.015871048 0.015871048 -0.99974805
vn -0.015871048 0.015871048 -0.99974805
vn -0.015871048 0.015871048 -0.99974805
vn -0.015871048 0.015871048 -0.99974805
vn 0.5872276 0.015871048 -0.80926627
vn 0.5872276 0.015871048 -0.80926627
vn 0.5872276 0.015871048 -0.80926627
vn 0.5872276 0.015871048 -0.80926627
vn 0.5872276 0.015871048 -0.80926627
vn 0.5872276 0.015871048 -0.80926627
vn 0.5872276 0.015871048 -0.80926627
vn 0.5872276 0.015871048 -0.80926627
vn 0.5872276 0.015871048 -0.80926627
vn 0.5872276 0.015871048 -0.80926627
vn 0.5872276 0.015871048 -0.80926627
vn 0.5872276 0.015871048 -0.80926627
vn -0.015871048 0.015871048 -0.99974805
vn -0.015871048 0.015871048 -0.99974805
vn -0.015871048 0.015871048 -0.99974805
vn -0.015871048 0.015871048 -0.99974805
vn -0.015871048 0.015871048 -0.99974805
vn -0.015871048 0.015871048 -0.99974805
vn -0.015871048 0.015871048 -0.99974805
vn -0.015871048 0.015871048 -0.99974805
vn -0.015871048 0.015871048 -0.99974805
vn -0.015871048 0.015871048 -0.99974805
vn -0.015871048 0.015871048 -0.99974805
vn -0.015871048 0.015871048 -0.99974805
vn -0.015871048 0.015871048 -0.99974805
vn -0.015871048 0.015871048 -0.99974805
vn 0.7459377 0.015871048 -0.66582656
vn 0.7459377 0.015871048 -0.66582656
vn 0.7459377 0.015871048 -0.66582656
vn 0.7459377 0.015871048 -0.66582656
g tb_geo_light_outline_11_mesh_0
f 3/3/3 2/2/2 1/1/1
f 6/6/6 5/5/5 4/4/4
f 7/7/7 6/6/6 4/4/4
f 7/7/7 4/4/4 8/8/8
f 9/9/9 7/7/7 8/8/8
f 12/12/12 11/11/11 10/10/10
f 11/11/11 13/13/13 10/10/10
f 14/14/14 10/10/10 13/13/13
f 15/15/15 14/14/14 13/13/13
f 16/16/16 15/15/15 13/13/13
f 17/17/17 13/13/13 11/11/11
f 17/17/17 16/16/16 13/13/13
f 18/18/18 17/17/17 11/11/11
f 19/19/19 16/16/16 17/17/17
f 17/17/17 18/18/18 20/20/20
f 21/21/21 19/19/19 17/17/17
f 21/21/21 17/17/17 20/20/20
f 19/19/19 21/21/21 22/22/22
f 21/21/21 20/20/20 23/23/23
f 21/21/21 23/23/23 22/22/22
f 20/20/20 24/24/24 23/23/23
f 22/22/22 23/23/23 25/25/25
f 23/23/23 24/24/24 26/26/26
f 23/23/23 26/26/26 25/25/25
f 24/24/24 27/27/27 26/26/26
f 25/25/25 26/26/26 28/28/28
f 26/26/26 27/27/27 29/29/29
f 26/26/26 29/29/29 28/28/28
f 28/28/28 29/29/29 30/30/30
f 27/27/27 31/31/31 29/29/29
f 29/29/29 32/32/32 30/30/30
f 29/29/29 31/31/31 32/32/32
f 31/31/31 33/33/33 32/32/32
f 36/36/36 35/35/35 34/34/34
f 35/35/35 37/37/37 34/34/34
f 37/37/37 38/38/38 34/34/34
f 38/38/38 39/39/39 34/34/34
f 42/42/42 41/41/41 40/40/40
f 41/41/41 43/43/43 40/40/40
f 44/44/44 40/40/40 43/43/43
f 45/45/45 44/44/44 43/43/43
f 48/48/48 47/47/47 46/46/46
f 47/47/47 49/49/49 46/46/46
f 46/46/46 49/49/49 50/50/50
f 51/51/51 46/46/46 50/50/50
f 54/54/54 53/53/53 52/52/52
f 53/53/53 55/55/55 52/52/52
f 56/56/56 52/52/52 55/55/55
f 57/57/57 56/56/56 55/55/55
f 60/60/60 59/59/59 58/58/58
f 61/61/61 60/60/60 58/58/58
f 64/64/64 63/63/63 62/62/62
f 63/63/63 65/65/65 62/62/62
f 62/62/62 65/65/65 66/66/66
f 67/67/67 65/65/65 63/63/63
f 68/68/68 67/67/67 63/63/63
f 69/69/69 65/65/65 67/67/67
f 65/65/65 69/69/69 66/66/66
f 70/70/70 69/69/69 67/67/67
f 69/69/69 71/71/71 66/66/66
f 71/71/71 69/69/69 70/70/70
f 71/71/71 72/72/72 66/66/66
f 73/73/73 71/71/71 70/70/70
f 76/76/76 75/75/75 74/74/74
f 77/77/77 76/76/76 74/74/74
f 80/80/80 79/79/79 78/78/78
f 81/81/81 80/80/80 78/78/78
f 84/84/84 83/83/83 82/82/82
f 85/85/85 84/84/84 82/82/82
f 88/88/88 87/87/87 86/86/86
f 89/89/89 88/88/88 86/86/86
f 88/88/88 89/89/89 90/90/90
f 89/89/89 91/91/91 90/90/90
f 94/94/94 93/93/93 92/92/92
f 95/95/95 94/94/94 92/92/92
f 98/98/98 97/97/97 96/96/96
f 99/99/99 98/98/98 96/96/96
f 102/102/102 101/101/101 100/100/100
f 103/103/103 102/102/102 100/100/100
f 106/106/106 105/105/105 104/104/104
f 107/107/107 106/106/106 104/104/104
f 110/110/110 109/109/109 108/108/108
f 111/111/111 110/110/110 108/108/108
f 112/112/112 110/110/110 111/111/111
f 113/113/113 112/112/112 111/111/111
f 114/114/114 112/112/112 113/113/113
f 115/115/115 114/114/114 113/113/113
f 118/118/118 117/117/117 116/116/116
f 117/117/117 119/119/119 116/116/116
f 116/116/116 119/119/119 120/120/120
f 119/119/119 121/121/121 120/120/120
f 120/120/120 121/121/121 122/122/122
f 121/121/121 123/123/123 122/122/122
f 122/122/122 123/123/123 124/124/124
f 123/123/123 125/125/125 124/124/124
f 124/124/124 125/125/125 126/126/126
f 125/125/125 127/127/127 126/126/126
f 126/126/126 127/127/127 128/128/128
f 127/127/127 129/129/129 128/128/128
f 130/130/130 128/128/128 129/129/129
f 131/131/131 130/130/130 129/129/129
f 130/130/130 131/131/131 132/132/132
f 131/131/131 133/133/133 132/132/132
f 136/136/136 135/135/135 134/134/134
f 135/135/135 137/137/137 134/134/134
f 134/134/134 137/137/137 138/138/138
f 137/137/137 139/139/139 138/138/138
f 138/138/138 139/139/139 140/140/140
f 139/139/139 141/141/141 140/140/140
f 140/140/140 141/141/141 142/142/142
f 143/143/143 140/140/140 142/142/142
f 143/143/143 142/142/142 144/144/144
f 144/144/144 142/142/142 145/145/145
f 142/142/142 146/146/146 145/145/145
f 145/145/145 146/146/146 147/147/147
f 146/146/146 148/148/148 147/147/147
f 147/147/147 148/148/148 149/149/149
f 148/148/148 150/150/150 149/149/149
f 149/149/149 150/150/150 151/151/151
f 150/150/150 152/152/152 151/151/151
f 151/151/151 152/152/152 153/153/153
f 154/154/154 151/151/151 153/153/153
f 157/157/157 156/156/156 155/155/155
f 158/158/158 157/157/157 155/155/155
f 159/159/159 157/157/157 158/158/158
f 160/160/160 159/159/159 158/158/158
f 161/161/161 159/159/159 160/160/160
f 162/162/162 161/161/161 160/160/160
f 165/165/165 164/164/164 163/163/163
f 166/166/166 165/165/165 163/163/163
f 167/167/167 165/165/165 166/166/166
f 168/168/168 167/167/167 166/166/166
f 169/169/169 167/167/167 168/168/168
f 170/170/170 169/169/169 168/168/168
f 171/171/171 169/169/169 170/170/170
f 172/172/172 171/171/171 170/170/170
f 173/173/173 171/171/171 172/172/172
f 174/174/174 173/173/173 172/172/172
f 175/175/175 173/173/173 174/174/174
f 176/176/176 175/175/175 174/174/174
f 177/177/177 175/175/175 176/176/176
f 178/178/178 177/177/177 176/176/176
f 181/181/181 180/180/180 179/179/179
f 180/180/180 182/182/182 179/179/179
f 183/183/183 179/179/179 182/182/182
f 184/184/184 183/183/183 182/182/182
f 187/187/187 186/186/186 185/185/185
f 188/188/188 187/187/187 185/185/185
f 189/189/189 188/188/188 185/185/185
f 190/190/190 189/189/189 185/185/185
f 189/189/189 191/191/191 188/188/188
f 187/187/187 188/188/188 192/192/192
f 191/191/191 192/192/192 188/188/188
f 193/193/193 187/187/187 192/192/192
f 193/193/193 192/192/192 191/191/191
f 194/194/194 193/193/193 191/191/191
f 197/197/197 196/196/196 195/195/195
f 196/196/196 198/198/198 195/195/195
f 199/199/199 198/198/198 196/196/196
f 200/200/200 199/199/199 196/196/196
f 203/203/203 202/202/202 201/201/201
f 202/202/202 204/204/204 201/201/201
f 202/202/202 205/205/205 204/204/204
f 201/201/201 204/204/204 206/206/206
f 205/205/205 207/207/207 204/204/204
f 204/204/204 208/208/208 206/206/206
f 204/204/204 207/207/207 208/208/208
f 206/206/206 208/208/208 209/209/209
f 207/207/207 210/210/210 208/208/208
f 208/208/208 211/211/211 209/209/209
f 208/208/208 210/210/210 211/211/211
f 210/210/210 212/212/212 211/211/211
f 215/215/215 214/214/214 213/213/213
f 214/214/214 216/216/216 213/213/213
f 213/213/213 216/216/216 217/217/217
f 214/214/214 218/218/218 216/216/216
f 216/216/216 219/219/219 217/217/217
f 218/218/218 220/220/220 216/216/216
f 216/216/216 220/220/220 219/219/219
f 220/220/220 221/221/221 219/219/219
f 224/224/224 223/223/223 222/222/222
f 223/223/223 225/225/225 222/222/222
f 222/222/222 225/225/225 226/226/226
f 225/225/225 227/227/227 226/226/226
f 230/230/230 229/229/229 228/228/228
f 229/229/229 231/231/231 228/228/228
f 228/228/228 231/231/231 232/232/232
f 231/231/231 233/233/233 232/232/232
f 236/236/236 235/235/235 234/234/234
f 235/235/235 237/237/237 234/234/234
f 234/234/234 237/237/237 238/238/238
f 237/237/237 239/239/239 238/238/238
f 238/238/238 239/239/239 240/240/240
f 239/239/239 241/241/241 240/240/240
f 244/244/244 243/243/243 242/242/242
f 245/245/245 244/244/244 242/242/242
f 248/248/248 247/247/247 246/246/246
f 247/247/247 249/249/249 246/246/246
f 246/246/246 249/249/249 250/250/250
f 249/249/249 251/251/251 250/250/250
f 254/254/254 253/253/253 252/252/252
f 255/255/255 254/254/254 252/252/252
f 258/258/258 257/257/257 256/256/256
f 257/257/257 259/259/259 256/256/256
f 262/262/262 261/261/261 260/260/260
f 261/261/261 263/263/263 260/260/260
f 260/260/260 263/263/263 264/264/264
f 263/263/263 265/265/265 264/264/264
f 264/264/264 265/265/265 266/266/266
f 265/265/265 267/267/267 266/266/266
f 266/266/266 267/267/267 268/268/268
f 267/267/267 269/269/269 268/268/268
f 272/272/272 271/271/271 270/270/270
f 273/273/273 272/272/272 270/270/270
f 274/274/274 272/272/272 273/273/273
f 274/274/274 273/273/273 275/275/275
f 275/275/275 276/276/276 274/274/274
f 276/276/276 275/275/275 277/277/277
f 275/275/275 278/278/278 277/277/277
f 277/277/277 278/278/278 279/279/279
f 278/278/278 280/280/280 279/279/279
f 283/283/283 282/282/282 281/281/281
f 282/282/282 284/284/284 281/281/281
f 281/281/281 284/284/284 285/285/285
f 284/284/284 286/286/286 285/285/285
f 285/285/285 286/286/286 287/287/287
f 287/287/287 286/286/286 288/288/288
f 286/286/286 289/289/289 288/288/288
f 289/289/289 290/290/290 288/288/288
f 290/290/290 289/289/289 291/291/291
f 289/289/289 292/292/292 291/291/291
f 295/295/295 294/294/294 293/293/293
f 294/294/294 296/296/296 293/293/293
f 293/293/293 296/296/296 297/297/297
f 296/296/296 298/298/298 297/297/297
f 297/297/297 298/298/298 299/299/299
f 298/298/298 300/300/300 299/299/299
f 299/299/299 300/300/300 301/301/301
f 300/300/300 302/302/302 301/301/301
f 301/301/301 302/302/302 303/303/303
f 302/302/302 304/304/304 303/303/303
f 303/303/303 304/304/304 305/305/305
f 306/306/306 305/305/305 304/304/304
f 307/307/307 306/306/306 304/304/304
f 306/306/306 307/307/307 308/308/308
f 307/307/307 309/309/309 308/308/308
f 308/308/308 309/309/309 310/310/310
f 309/309/309 311/311/311 310/310/310
f 310/310/310 311/311/311 312/312/312
f 311/311/311 313/313/313 312/312/312
f 314/314/314 312/312/312 313/313/313
f 315/315/315 314/314/314 313/313/313
f 318/318/318 317/317/317 316/316/316
f 319/319/319 318/318/318 316/316/316
f 319/319/319 316/316/316 320/320/320
f 321/321/321 319/319/319 320/320/320
f 324/324/324 323/323/323 322/322/322
f 323/323/323 325/325/325 322/322/322
f 323/323/323 326/326/326 325/325/325
f 326/326/326 327/327/327 325/325/325
f 330/330/330 329/329/329 328/328/328
f 331/331/331 330/330/330 328/328/328
f 331/331/331 328/328/328 332/332/332
f 333/333/333 331/331/331 332/332/332
f 336/336/336 335/335/335 334/334/334
f 337/337/337 336/336/336 334/334/334
f 337/337/337 334/334/334 338/338/338
f 336/336/336 337/337/337 339/339/339
f 340/340/340 337/337/337 338/338/338
f 337/337/337 341/341/341 339/339/339
f 337/337/337 340/340/340 341/341/341
f 340/340/340 342/342/342 341/341/341
f 345/345/345 344/344/344 343/343/343
f 344/344/344 346/346/346 343/343/343
f 344/344/344 347/347/347 346/346/346
f 347/347/347 348/348/348 346/346/346
f 351/351/351 350/350/350 349/349/349
f 352/352/352 351/351/351 349/349/349
f 352/352/352 349/349/349 353/353/353
f 349/349/349 354/354/354 353/353/353
f 352/352/352 355/355/355 351/351/351
f 352/352/352 353/353/353 355/355/355
f 355/355/355 356/356/356 351/351/351
f 353/353/353 357/357/357 355/355/355
f 360/360/360 359/359/359 358/358/358
f 361/361/361 360/360/360 358/358/358
f 361/361/361 358/358/358 362/362/362
f 363/363/363 360/360/360 361/361/361
f 364/364/364 361/361/361 362/362/362
f 365/365/365 363/363/363 361/361/361
f 365/365/365 361/361/361 364/364/364
f 366/366/366 363/363/363 365/365/365
f 367/367/367 365/365/365 364/364/364
f 368/368/368 366/366/366 365/365/365
f 368/368/368 365/365/365 367/367/367
f 369/369/369 366/366/366 368/368/368
f 370/370/370 368/368/368 367/367/367
f 371/371/371 369/369/369 368/368/368
f 371/371/371 368/368/368 370/370/370
f 372/372/372 369/369/369 371/371/371
f 373/373/373 371/371/371 370/370/370
f 374/374/374 372/372/372 371/371/371
f 374/374/374 371/371/371 373/373/373
f 375/375/375 374/374/374 373/373/373
f 375/375/375 376/376/376 374/374/374
f 376/376/376 377/377/377 374/374/374
f 380/380/380 379/379/379 378/378/378
f 379/379/379 381/381/381 378/378/378
f 378/378/378 381/381/381 382/382/382
f 381/381/381 383/383/383 382/382/382
f 383/383/383 381/381/381 384/384/384
f 381/381/381 379/379/379 385/385/385
f 381/381/381 385/385/385 384/384/384
f 379/379/379 386/386/386 385/385/385
f 387/387/387 384/384/384 385/385/385
f 388/388/388 385/385/385 386/386/386
f 388/388/388 387/387/387 385/385/385
f 389/389/389 388/388/388 386/386/386
f 387/387/387 388/388/388 390/390/390
f 388/388/388 389/389/389 390/390/390
f 391/391/391 387/387/387 390/390/390
f 392/392/392 391/391/391 390/390/390
f 389/389/389 393/393/393 390/390/390
f 394/394/394 392/392/392 390/390/390
f 394/394/394 390/390/390 393/393/393
f 395/395/395 394/394/394 393/393/393
f 398/398/398 397/397/397 396/396/396
f 399/399/399 398/398/398 396/396/396
f 398/398/398 399/399/399 400/400/400
f 399/399/399 401/401/401 400/400/400
f 400/400/400 401/401/401 402/402/402
f 401/401/401 403/403/403 402/402/402
f 406/406/406 405/405/405 404/404/404
f 405/405/405 407/407/407 404/404/404
f 404/404/404 407/407/407 408/408/408
f 407/407/407 409/409/409 408/408/408
f 412/412/412 411/411/411 410/410/410
f 411/411/411 413/413/413 410/410/410
f 410/410/410 413/413/413 414/414/414
f 413/413/413 415/415/415 414/414/414
f 418/418/418 417/417/417 416/416/416
f 417/417/417 419/419/419 416/416/416
f 416/416/416 419/419/419 420/420/420
f 419/419/419 421/421/421 420/420/420
f 424/424/424 423/423/423 422/422/422
f 423/423/423 425/425/425 422/422/422
f 422/422/422 425/425/425 426/426/426
f 425/425/425 427/427/427 426/426/426
f 430/430/430 429/429/429 428/428/428
f 430/430/430 431/431/431 429/429/429
f 434/434/434 433/433/433 432/432/432
f 435/435/435 434/434/434 432/432/432
f 436/436/436 434/434/434 435/435/435
f 437/437/437 436/436/436 435/435/435
f 438/438/438 436/436/436 437/437/437
f 439/439/439 438/438/438 437/437/437
f 440/440/440 438/438/438 439/439/439
f 441/441/441 440/440/440 439/439/439
f 444/444/444 443/443/443 442/442/442
f 443/443/443 445/445/445 442/442/442
f 442/442/442 445/445/445 446/446/446
f 445/445/445 447/447/447 446/446/446
f 448/448/448 446/446/446 447/447/447
f 449/449/449 448/448/448 447/447/447
f 450/450/450 448/448/448 449/449/449
f 451/451/451 450/450/450 449/449/449
f 452/452/452 450/450/450 451/451/451
f 453/453/453 452/452/452 451/451/451
f 456/456/456 455/455/455 454/454/454
f 457/457/457 456/456/456 454/454/454
f 458/458/458 456/456/456 457/457/457
f 459/459/459 458/458/458 457/457/457
f 460/460/460 458/458/458 459/459/459
f 461/461/461 460/460/460 459/459/459
f 462/462/462 460/460/460 461/461/461
f 463/463/463 462/462/462 461/461/461
f 464/464/464 462/462/462 463/463/463
f 465/465/465 464/464/464 463/463/463
f 466/466/466 464/464/464 465/465/465
f 467/467/467 466/466/466 465/465/465
f 470/470/470 469/469/469 468/468/468
f 471/471/471 470/470/470 468/468/468
