g tb_geo_section_03_mesh
v -0.4473731 0.17435175 -0.52192473
v -0.4979325 0.17290723 -0.54070395
v -0.4459285 0.17290723 -0.5334812
v -0.40259176 0.17579633 -0.52048016
v -0.39247984 0.17868543 -0.50314546
v -0.35925502 0.17579633 -0.5190356
v -0.3505878 0.17435175 -0.49158904
v -0.3159184 0.16857356 -0.48003256
v -0.30725104 0.17579633 -0.5060346
v -0.2928055 0.17579633 -0.50025636
v -0.27835983 0.16857356 -0.478588
v -0.25669152 0.17724091 -0.49736726
v -0.23213404 0.16857356 -0.4554751
v -0.19890922 0.16857356 -0.47425434
v -0.23646778 0.17579633 -0.51759106
v -0.21046567 0.17579633 -0.53492576
v -0.17868543 0.17579633 -0.5464822
v -0.16423988 0.16857356 -0.49447814
v -0.13823783 0.16857356 -0.50170094
v -0.12523681 0.16857356 -0.5291475
v -0.15123886 0.17724091 -0.5623723
v -0.112235844 0.16857356 -0.55514956
v -0.12957048 0.17724091 -0.5854852
v -0.110791266 0.17868543 -0.6042645
v -0.09923482 0.17001808 -0.5912635
v -0.08767837 0.17724091 -0.6215992
v -0.07612187 0.17001808 -0.61437637
v -0.05589807 0.17146266 -0.63460016
v -0.04723072 0.17868543 -0.6504903
v -0.044341624 0.17290723 -0.64182293
v -0.03856343 0.17435175 -0.64615667
v 0.01199609 0.17868543 -0.67504776
v 0.01199609 0.18013 -0.67504776
v 0.01199609 0.17868543 -0.67504776
v 0.01199609 0.1859082 -0.67938143
v 0.01199609 0.1859082 -0.67938143
v 0.01199609 0.1859082 -0.6837151
v 0.01199609 0.1859082 -0.6981607
v -0.016895056 0.1859082 -0.6981607
v -0.051564395 0.1830191 -0.65482396
v -0.08767837 0.17724091 -0.6215992
v -0.09201205 0.1859082 -0.6244883
v -0.07178819 0.1859082 -0.67360324
v -0.11512494 0.1859082 -0.67504776
v -0.13101506 0.1859082 -0.67071414
v -0.110791266 0.17868543 -0.6042645
v -0.14690518 0.18446368 -0.6432675
v -0.11368036 0.18735278 -0.6085982
v -0.13390416 0.1859082 -0.5912635
v -0.12957048 0.17724091 -0.5854852
v -0.17146266 0.1859082 -0.6071536
v -0.15701711 0.1859082 -0.566706
v -0.15123886 0.17724091 -0.5623723
v -0.17868543 0.17579633 -0.5464822
v -0.1830191 0.1859082 -0.5522604
v -0.21479934 0.1859082 -0.5825961
v -0.21046567 0.17579633 -0.53492576
v -0.24513501 0.1859082 -0.57537335
v -0.21624392 0.1859082 -0.54214853
v -0.23646778 0.17579633 -0.51759106
v -0.24369055 0.1859082 -0.5233693
v -0.2754708 0.1859082 -0.5479268
v -0.25669152 0.17724091 -0.49736726
v -0.2639143 0.18735278 -0.50459003
v -0.2928055 0.17579633 -0.50025636
v -0.29424995 0.18735278 -0.5074792
v -0.30725104 0.17579633 -0.5060346
v -0.3101402 0.19602013 -0.5118128
v -0.35925502 0.17579633 -0.5190356
v -0.2754708 0.1859082 -0.5479268
v -0.36358875 0.18879735 -0.52481383
v -0.40259176 0.17579633 -0.52048016
v -0.40403634 0.18735278 -0.5291475
v -0.48348695 0.18879735 -0.6085982
v -0.45026213 0.19313103 -0.6302665
v -0.4459285 0.17290723 -0.5334812
v -0.28991634 0.19602013 -0.55948323
v -0.44448394 0.1859082 -0.54214853
v -0.49359888 0.18735278 -0.5508159
v -0.4979325 0.17290723 -0.54070395
v -0.25669152 0.19602013 -0.5854852
v -0.24513501 0.1859082 -0.57537335
v -0.22202218 0.19457555 -0.59559715
v -0.21479934 0.1859082 -0.5825961
v -0.35781056 0.1859082 -0.77038854
v -0.43726116 0.19168645 -0.6634913
v -0.55715936 0.1859082 -0.77038854
v -0.23935682 0.1859082 -0.77038854
v -0.18013 0.19457555 -0.6201546
v -0.17146266 0.1859082 -0.6071536
v -0.14690518 0.18446368 -0.6432675
v -0.15701711 0.19602013 -0.6504903
v -0.13101506 0.1859082 -0.67071414
v -0.14112693 0.19602013 -0.67649233
v -0.10645759 0.1859082 -0.77038854
v -0.11512494 0.19602013 -0.6837151
v -0.11512494 0.1859082 -0.67504776
v -0.07323277 0.19602013 -0.6851597
v -0.07178819 0.1859082 -0.67360324
v -0.016895056 0.1859082 -0.6981607
v -0.019784153 0.19602013 -0.7082726
v -0.008227706 0.1859082 -0.77038854
v 0.01199609 0.18735278 -0.6996052
v 0.01199609 0.1859082 -0.6981607
v 0.01199609 0.19602013 -0.7082726
v 0.01199609 0.19313103 -0.7227182
v 0.01199609 0.1859082 -0.75305384
v 0.01199609 0.1859082 -0.76605487
v 0.01199609 0.1859082 -0.77038854
v -0.3029173 0.05589807 -0.42369485
v -0.30147284 0.08912289 -0.42802852
v -0.2913609 0.08912289 -0.42080572
v -0.31158465 0.08478922 -0.42658398
v -0.31302923 0.05734265 -0.41936117
v -0.2971391 0.02122873 -0.41069382
v -0.3086956 0.02122873 -0.40058193
v -0.35636598 0.016895056 -0.40347105
v -0.36503333 0.053008974 -0.4251394
v -0.37947887 0.015450478 -0.43380675
v -0.38670164 0.041452527 -0.4554751
v -0.395369 0.015450478 -0.4150275
v -0.4112591 0.07901102 -0.46992067
v -0.45026213 0.015450478 -0.41358295
v -0.36936694 0.08478922 -0.4453632
v -0.45459586 0.077566445 -0.45980877
v -0.49937707 0.015450478 -0.44102955
v -0.39247984 0.07467735 -0.48581082
v -0.4921543 0.068899095 -0.47714347
v -0.5167118 0.014005959 -0.46847612
v -0.31158465 0.09634566 -0.43091762
v -0.36503333 0.14257151 -0.44680777
v -0.2985837 0.10067934 -0.41936117
v -0.30147284 0.08912289 -0.42802852
v -0.2913609 0.08912289 -0.42080572
v -0.2639143 0.119458616 -0.40780473
v -0.31302923 0.14257151 -0.4424741
v -0.2798044 0.1454606 -0.43380675
v -0.24224597 0.14401609 -0.4424741
v -0.4805979 0.07323277 -0.4886999
v -0.45026213 0.08045554 -0.48147714
v -0.4184819 0.0833447 -0.4829217
v -0.40259176 0.08045554 -0.4930336
v -0.38814622 0.13823783 -0.49158904
v -0.49937707 0.068899095 -0.5074792
v -0.36503333 0.1656844 -0.45691967
v -0.39247984 0.17868543 -0.50314546
v -0.3505878 0.17435175 -0.49158904
v -0.320252 0.16135079 -0.4554751
v -0.27835983 0.16857356 -0.478588
v -0.2798044 0.16423988 -0.43958497
v -0.24657959 0.1627953 -0.44825232
v -0.23213404 0.16857356 -0.4554751
v -0.22491127 0.15412796 -0.4453632
v -0.19890922 0.16857356 -0.47425434
v -0.1830191 0.13968241 -0.44680777
v -0.16423988 0.16857356 -0.49447814
v -0.21479934 0.13968241 -0.43958497
v -0.1454606 0.14401609 -0.47136524
v -0.13823783 0.16857356 -0.50170094
v -0.1830191 0.13101506 -0.45403054
v -0.21191025 0.13101506 -0.43380675
v -0.20902115 0.120903134 -0.42947307
v -0.14690518 0.13101506 -0.478588
v -0.22924495 0.102123916 -0.39624828
v -0.2032429 0.09345657 -0.41647208
v -0.119458616 0.13968241 -0.48003256
v -0.12523681 0.13101506 -0.49158904
v -0.10501301 0.13390416 -0.5132574
v -0.12523681 0.16857356 -0.5291475
v -0.112235844 0.12668139 -0.52048016
v -0.09779024 0.13823783 -0.5277029
v -0.103568494 0.12957048 -0.53925943
v -0.112235844 0.16857356 -0.55514956
v -0.09056747 0.13823783 -0.5638169
v -0.2176885 0.02989608 -0.36735713
v -0.1859082 0.02989608 -0.38613635
v -0.2639143 0.06745458 -0.3818027
v -0.24802417 0.027006924 -0.3615789
v -0.28702718 0.024117827 -0.3818027
v -0.2928055 0.06456542 -0.4049156
v -0.2913609 0.08912289 -0.42080572
v -0.2971391 0.02122873 -0.41069382
v -0.3029173 0.05589807 -0.42369485
v -0.09056747 0.1454606 -0.5710397
v -0.060231745 0.13679332 -0.5970417
v -0.04000795 0.12957048 -0.5840407
v -0.035674274 0.12668139 -0.6230437
v -0.037118852 0.13823783 -0.6273774
v -0.09923482 0.1656844 -0.5825961
v -0.09923482 0.17001808 -0.5912635
v -0.07467735 0.16423988 -0.61293185
v -0.07612187 0.17001808 -0.61437637
v -0.08190012 0.1627953 -0.5739288
v -0.077566445 0.14834976 -0.566706
v -0.051564395 0.1627953 -0.5869298
v -0.042897105 0.16857356 -0.6374893
v -0.044341624 0.17290723 -0.64182293
v -0.04723072 0.14401609 -0.579707
v -0.032785177 0.14112693 -0.61293185
v -0.035674274 0.15990621 -0.61437637
v -0.04000795 0.15123886 -0.63171107
v -0.012561381 0.17001808 -0.63460016
v 0.01199609 0.17868543 -0.67504776
v 0.01199609 0.17290723 -0.6374893
v -0.011116803 0.14979428 -0.62882197
v 0.01199609 0.16712898 -0.63604474
v 0.01199609 0.14979428 -0.63460016
v 0.01199609 0.14257151 -0.64904577
v 0.01199609 0.13679332 -0.65337944
v -0.025562406 0.13679332 -0.6230437
v 0.01199609 0.13679332 -0.6504903
v -0.035674274 0.12668139 -0.6230437
v 0.01199609 0.13245964 -0.63604474
v -0.014005959 0.12957048 -0.61582094
v 0.01199609 0.13101506 -0.63315564
v -0.025562406 0.10067934 -0.6201546
v 0.0018841624 0.102123916 -0.6100427
v 0.01199609 0.120903134 -0.6273774
v 0.01199609 0.103568494 -0.61871004
v 0.01199609 0.0833447 -0.6230437
v 0.004773319 0.06745458 -0.61726546
v 0.01199609 0.06745458 -0.6244883
v 0.01199609 0.0631209 -0.61726546
v 0.01199609 0.0486753 -0.5883744
v -0.014005959 0.058787227 -0.6201546
v 0.01199609 0.0486753 -0.5883744
v -0.005338609 0.04000795 -0.5811516
v 0.01199609 0.04723072 -0.5883744
v 0.01199609 0.041452527 -0.57537335
v 0.01199609 0.035674274 -0.566706
v -0.0024494529 0.02989608 -0.51759106
v 0.01199609 0.02989608 -0.52481383
v 0.01199609 0.02989608 -0.5132574
v 0.0033287406 0.0313406 -0.50459003
v -0.037118852 0.02989608 -0.5089237
v -0.014005959 0.0313406 -0.48581082
v -0.058787227 0.02989608 -0.50025636
v -0.06456542 0.02989608 -0.5277029
v -0.022673309 0.032785177 -0.47714347
v -0.06601 0.0313406 -0.46992067
v -0.03856343 0.032785177 -0.46125335
v -0.058787227 0.032785177 -0.44102955
v -0.0833447 0.02989608 -0.44969687
v -0.07034367 0.0313406 -0.42802852
v -0.09345657 0.02989608 -0.4352513
v -0.09779024 0.02989608 -0.44825232
v -0.077566445 0.0313406 -0.42080572
v -0.12234771 0.02989608 -0.40636018
v -0.09779024 0.0313406 -0.40058193
v -0.12234771 0.034229755 -0.37602445
v -0.14834976 0.02989608 -0.3919146
v -0.13390416 0.034229755 -0.36302346
v -0.15268344 0.034229755 -0.3442442
v -0.19168645 0.02989608 -0.3442442
v -0.2176885 0.02989608 -0.36735713
v -0.1859082 0.02989608 -0.38613635
v -0.21624392 0.02989608 -0.3442442
v -0.24802417 0.027006924 -0.3615789
v -0.23357862 0.028451502 -0.3442442
v -0.2754708 0.025562406 -0.3442442
v -0.28702718 0.024117827 -0.3818027
v -0.29569453 0.025562406 -0.3442442
v -0.3086956 0.02122873 -0.40058193
v -0.2971391 0.02122873 -0.41069382
v -0.30147284 0.024117827 -0.3442442
v -0.3606996 0.019784153 -0.3442442
v -0.35636598 0.016895056 -0.40347105
v -0.36792237 0.019784153 -0.3442442
v -0.395369 0.015450478 -0.4150275
v -0.37947887 0.015450478 -0.43380675
v -0.3722561 0.019784153 -0.3442442
v -0.39970273 0.018339634 -0.3442442
v -0.45026213 0.014005959 -0.35724524
v -0.45026213 0.012561381 -0.3442442
v -0.45026213 0.015450478 -0.41358295
v -0.5080444 0.012561381 -0.37024623
v -0.49937707 0.015450478 -0.44102955
v -0.5022662 0.011116803 -0.3442442
v -0.5268237 0.009672284 -0.3442442
v -0.5369356 0.008227706 -0.3442442
v -0.53982466 0.009672284 -0.34713334
v -0.53982466 0.008227706 -0.3442442
v -0.53982466 0.011116803 -0.38902548
v -0.53982466 0.012561381 -0.4323622
v -0.53982466 0.014005959 -0.44102955
v -0.53982466 0.014005959 -0.45836422
v -0.53982466 0.014005959 -0.46703157
v -0.5167118 0.014005959 -0.46847612
v -0.53982466 0.014005959 -0.48003256
v -0.53982466 0.012561381 -0.48725536
v -0.49937707 0.068899095 -0.5074792
v -0.53982466 0.07034367 -0.51470196
v -0.53982466 0.09634566 -0.52192473
v -0.5080444 0.13101506 -0.52481383
v -0.53982466 0.12957048 -0.5262584
v -0.53982466 0.14401609 -0.5305921
v -0.5051554 0.1627953 -0.53492576
v -0.53982466 0.16135079 -0.54070395
v -0.53982466 0.16857356 -0.5464822
v -0.53982466 0.17579633 -0.553705
v -0.53982466 0.18013 -0.55659413
v -0.53982466 0.18446368 -0.55948323
v -0.53982466 0.1859082 -0.5695951
v -0.53982466 0.18735278 -0.5840407
v -0.53982466 0.18735278 -0.60137534
v -0.55715936 0.1859082 -0.61871004
v -0.5889396 0.1859082 -0.6504903
v -0.65105563 0.1859082 -0.71260625
v -0.6655012 0.1859082 -0.77038854
v -0.67272395 0.1859082 -0.7357192
v -0.7001706 0.19168645 -0.7631658
v -0.70739335 0.19313103 -0.77038854
v -0.70739335 0.19313103 -0.77038854
v -0.53982466 0.06745458 -0.5089237
v -0.53982466 0.07034367 -0.51470196
v -0.5152672 0.061676323 -0.49736726
v -0.53982466 0.032785177 -0.50025636
v -0.53982466 0.012561381 -0.48725536
v -0.112235844 0.12668139 -0.52048016
v -0.12379229 0.11368036 -0.49158904
v -0.12523681 0.13101506 -0.49158904
v -0.10934669 0.120903134 -0.52192473
v -0.103568494 0.12957048 -0.53925943
v -0.09634566 0.112235844 -0.5493713
v -0.09056747 0.13823783 -0.5638169
v -0.08478922 0.11368036 -0.55803865
v -0.08190012 0.112235844 -0.53781486
v -0.10934669 0.120903134 -0.52192473
v -0.077566445 0.09201205 -0.53203666
v -0.08478922 0.08045554 -0.55803865
v -0.06456542 0.02989608 -0.5277029
v -0.058787227 0.02989608 -0.50025636
v -0.08912289 0.11801404 -0.5089237
v -0.08478922 0.094901145 -0.50170094
v -0.06601 0.0313406 -0.46992067
v -0.10934669 0.112235844 -0.48725536
v -0.12379229 0.11368036 -0.49158904
v -0.11801404 0.09201205 -0.4829217
v -0.102123916 0.09345657 -0.478588
v -0.0833447 0.02989608 -0.44969687
v -0.09779024 0.02989608 -0.44825232
v -0.04000795 0.12957048 -0.5840407
v -0.08478922 0.11368036 -0.55803865
v -0.09056747 0.13823783 -0.5638169
v -0.02989608 0.112235844 -0.5739288
v -0.037118852 0.077566445 -0.5739288
v -0.08478922 0.08045554 -0.55803865
v -0.025562406 0.10067934 -0.6201546
v -0.035674274 0.12668139 -0.6230437
v -0.014005959 0.058787227 -0.6201546
v -0.005338609 0.04000795 -0.5811516
v -0.037118852 0.02989608 -0.5089237
v -0.06456542 0.02989608 -0.5277029
v -0.14690518 0.13101506 -0.478588
v -0.12523681 0.13101506 -0.49158904
v -0.120903134 0.12668139 -0.478588
v -0.12379229 0.11368036 -0.49158904
v -0.14979428 0.12523681 -0.4554751
v -0.1830191 0.13101506 -0.45403054
v -0.11512494 0.09345657 -0.46992067
v -0.11801404 0.09201205 -0.4829217
v -0.09779024 0.02989608 -0.44825232
v -0.09345657 0.02989608 -0.4352513
v -0.14257151 0.094901145 -0.44102955
v -0.12234771 0.02989608 -0.40636018
v -0.14834976 0.02989608 -0.3919146
v -0.16857356 0.09345657 -0.42369485
v -0.1859082 0.02989608 -0.38613635
v -0.2032429 0.09345657 -0.41647208
v -0.17579633 0.12523681 -0.4352513
v -0.20902115 0.120903134 -0.42947307
v -0.4473731 0.17435175 -0.52192473
v -0.49504346 0.16423988 -0.5118128
v -0.4979325 0.17290723 -0.54070395
v -0.5051554 0.1627953 -0.53492576
v -0.5080444 0.13101506 -0.52481383
v -0.49648803 0.13534874 -0.4988118
v -0.49937707 0.068899095 -0.5074792
v -0.4805979 0.07323277 -0.4886999
v -0.4531513 0.16423988 -0.4988118
v -0.4517067 0.13534874 -0.48436624
v -0.45026213 0.08045554 -0.48147714
v -0.4184819 0.0833447 -0.4829217
v -0.40548092 0.16712898 -0.49014446
v -0.39247984 0.17868543 -0.50314546
v -0.38814622 0.13823783 -0.49158904
v -0.40259176 0.13679332 -0.47425434
v -0.40259176 0.08045554 -0.4930336
vt 0.34514427 0.8425145
vt 0.33109426 0.8481345
vt 0.34514427 0.8509445
vt 0.35638428 0.8453245
vt 0.35919428 0.8340845
vt 0.36762428 0.8453245
vt 0.37043428 0.8312745
vt 0.3788643 0.8284645
vt 0.3788643 0.8425145
vt 0.3844843 0.8397045
vt 0.3901043 0.8284645
vt 0.3957243 0.8425145
vt 0.4013443 0.8200345
vt 0.4097743 0.8284645
vt 0.4013443 0.8509445
vt 0.4069643 0.8593745
vt 0.4182043 0.8649945
vt 0.4182043 0.8397045
vt 0.4266343 0.8425145
vt 0.4322543 0.8565645
vt 0.4266343 0.87342453
vt 0.43787432 0.8678045
vt 0.4322543 0.88747454
vt 0.44068432 0.89590454
vt 0.44349432 0.88747454
vt 0.44630432 0.90433455
vt 0.45192432 0.90152454
vt 0.46035433 0.90995455
vt 0.46316433 0.92119455
vt 0.46316433 0.91557455
vt 0.46597433 0.91838455
vt 0.48283434 0.93805456
vt 0.48002434 0.94086456
vt 0.48283434 0.93805456
vt 0.48002434 0.94367456
vt 0.48002434 0.94367456
vt 0.48002434 0.94648457
vt 0.48002434 0.95210457
vt 0.47159433 0.95210457
vt 0.46035433 0.92681456
vt 0.44630432 0.90433455
vt 0.44630432 0.90995455
vt 0.45473433 0.93805456
vt 0.44068432 0.93805456
vt 0.43506432 0.93524456
vt 0.44068432 0.89590454
vt 0.4294443 0.92119455
vt 0.43787432 0.90152454
vt 0.4322543 0.89309454
vt 0.4322543 0.88747454
vt 0.4210143 0.90152454
vt 0.4238243 0.87904453
vt 0.4266343 0.87342453
vt 0.4182043 0.8649945
vt 0.4153943 0.87342453
vt 0.4069643 0.88747454
vt 0.4069643 0.8593745
vt 0.3985343 0.88466454
vt 0.4069643 0.8678045
vt 0.4013443 0.8509445
vt 0.3985343 0.8565645
vt 0.3901043 0.8706145
vt 0.3957243 0.8425145
vt 0.3929143 0.8453245
vt 0.3844843 0.8397045
vt 0.3844843 0.8481345
vt 0.3788643 0.8425145
vt 0.3788643 0.8509445
vt 0.36762428 0.8453245
vt 0.3901043 0.8706145
vt 0.36762428 0.8537545
vt 0.35638428 0.8453245
vt 0.35638428 0.8537545
vt 0.33390427 0.89309454
vt 0.34233427 0.90995455
vt 0.34514427 0.8509445
vt 0.3844843 0.87623453
vt 0.34514427 0.8593745
vt 0.33109426 0.8593745
vt 0.33109426 0.8481345
vt 0.3929143 0.89028454
vt 0.3985343 0.88466454
vt 0.4041543 0.89590454
vt 0.4069643 0.88747454
vt 0.37043428 0.9942546
vt 0.34795427 0.92962456
vt 0.31704426 0.9942546
vt 0.4013443 0.9942546
vt 0.4182043 0.90995455
vt 0.4210143 0.90152454
vt 0.4294443 0.92119455
vt 0.4238243 0.92681456
vt 0.43506432 0.93524456
vt 0.4294443 0.94086456
vt 0.44349432 0.9942546
vt 0.44068432 0.94648457
vt 0.44068432 0.93805456
vt 0.45473433 0.94648457
vt 0.45473433 0.93805456
vt 0.47159433 0.95210457
vt 0.47159433 0.9605346
vt 0.47440434 0.9942546
vt 0.48002434 0.95491457
vt 0.48002434 0.95210457
vt 0.48002434 0.9605346
vt 0.48002434 0.9689646
vt 0.48283434 0.9858246
vt 0.48002434 0.9914446
vt 0.48002434 0.9942546
vt 0.3788643 0.7554045
vt 0.3816743 0.7722645
vt 0.3844843 0.7694545
vt 0.3760543 0.7722645
vt 0.3760543 0.7582145
vt 0.3816743 0.74135447
vt 0.3760543 0.73854446
vt 0.36481428 0.73573446
vt 0.36481428 0.7582145
vt 0.35638428 0.74978447
vt 0.35357428 0.7638345
vt 0.35357428 0.74135447
vt 0.34795427 0.7806945
vt 0.33952427 0.73854446
vt 0.36481428 0.7778845
vt 0.33952427 0.7778845
vt 0.32828426 0.74978447
vt 0.35638428 0.7835045
vt 0.33109426 0.7806945
vt 0.32547426 0.7610245
vt 0.3788643 0.7778845
vt 0.36762428 0.8059845
vt 0.3844843 0.7778845
vt 0.3816743 0.7722645
vt 0.3844843 0.7694545
vt 0.3957243 0.7835045
vt 0.3788643 0.8031745
vt 0.3901043 0.8003645
vt 0.3985343 0.8059845
vt 0.33390427 0.7863145
vt 0.33952427 0.7863145
vt 0.34795427 0.7863145
vt 0.35357428 0.7863145
vt 0.35919428 0.8116045
vt 0.32828426 0.7891245
vt 0.36762428 0.8144145
vt 0.35919428 0.8340845
vt 0.37043428 0.8312745
vt 0.3788643 0.8144145
vt 0.3901043 0.8284645
vt 0.3872943 0.8087945
vt 0.3957243 0.8144145
vt 0.4013443 0.8200345
vt 0.4041543 0.8116045
vt 0.4097743 0.8284645
vt 0.4153943 0.8116045
vt 0.4182043 0.8397045
vt 0.4069643 0.8059845
vt 0.4238243 0.8228445
vt 0.4266343 0.8425145
vt 0.4182043 0.8087945
vt 0.4069643 0.7975545
vt 0.4097743 0.7919345
vt 0.4266343 0.8172245
vt 0.4041543 0.7722645
vt 0.4125843 0.7778845
vt 0.4322543 0.8284645
vt 0.43506432 0.8256545
vt 0.44068432 0.8397045
vt 0.4322543 0.8565645
vt 0.44349432 0.8368945
vt 0.44349432 0.8453245
vt 0.44630432 0.8453245
vt 0.43787432 0.8678045
vt 0.45192432 0.8621845
vt 0.4125843 0.72730446
vt 0.4238243 0.73854446
vt 0.3957243 0.74978447
vt 0.4013443 0.72168446
vt 0.3872943 0.73011446
vt 0.3872943 0.7554045
vt 0.3844843 0.7694545
vt 0.3816743 0.74135447
vt 0.3788643 0.7554045
vt 0.45192432 0.8678045
vt 0.46597433 0.87623453
vt 0.46878433 0.8706145
vt 0.47440434 0.88466454
vt 0.47159433 0.89309454
vt 0.44349432 0.88185453
vt 0.44349432 0.88747454
vt 0.45192432 0.89871454
vt 0.45192432 0.90152454
vt 0.44911432 0.87904453
vt 0.45192432 0.87623453
vt 0.45754433 0.88747454
vt 0.46597433 0.91276455
vt 0.46316433 0.91557455
vt 0.46035433 0.88185453
vt 0.46878433 0.89309454
vt 0.46316433 0.89871454
vt 0.46878433 0.90152454
vt 0.47440434 0.91557455
vt 0.48283434 0.93805456
vt 0.48283434 0.92119455
vt 0.47721434 0.90714455
vt 0.48283434 0.91838455
vt 0.48564434 0.91276455
vt 0.48845434 0.90714455
vt 0.48845434 0.90714455
vt 0.47721434 0.89309454
vt 0.49126434 0.90433455
vt 0.47440434 0.88466454
vt 0.48845434 0.89871454
vt 0.48283434 0.89028454
vt 0.48845434 0.89590454
vt 0.48002434 0.87623453
vt 0.48845434 0.88185453
vt 0.49126434 0.89309454
vt 0.49126434 0.88466454
vt 0.49407434 0.87904453
vt 0.49407434 0.8706145
vt 0.49688435 0.87342453
vt 0.49688435 0.8706145
vt 0.49688435 0.8537545
vt 0.48845434 0.8649945
vt 0.49688435 0.8537545
vt 0.49126434 0.8481345
vt 0.49688435 0.8537545
vt 0.49407434 0.8453245
vt 0.49407434 0.8425145
vt 0.48845434 0.8172245
vt 0.49407434 0.8200345
vt 0.49407434 0.8144145
vt 0.49126434 0.8087945
vt 0.48002434 0.8116045
vt 0.48564434 0.7975545
vt 0.47159433 0.8059845
vt 0.47159433 0.8172245
vt 0.48283434 0.7919345
vt 0.46878433 0.7891245
vt 0.47721434 0.7835045
vt 0.46878433 0.7722645
vt 0.46035433 0.7778845
vt 0.46316433 0.7666445
vt 0.45754433 0.7694545
vt 0.45754433 0.7778845
vt 0.46035433 0.7610245
vt 0.44630432 0.7525945
vt 0.45473433 0.74697447
vt 0.44630432 0.73292446
vt 0.43506432 0.74416447
vt 0.44068432 0.72449446
vt 0.43506432 0.71044445
vt 0.4210143 0.71044445
vt 0.4125843 0.72730446
vt 0.4238243 0.73854446
vt 0.4125843 0.71044445
vt 0.4013443 0.72168446
vt 0.4069643 0.71044445
vt 0.3929143 0.71044445
vt 0.3872943 0.73011446
vt 0.3844843 0.70763445
vt 0.3760543 0.73854446
vt 0.3816743 0.74135447
vt 0.3844843 0.70482445
vt 0.36481428 0.70201445
vt 0.36481428 0.73573446
vt 0.36481428 0.70201445
vt 0.35357428 0.74135447
vt 0.35638428 0.74978447
vt 0.36200428 0.70201445
vt 0.35638428 0.70201445
vt 0.33952427 0.70763445
vt 0.33952427 0.69920444
vt 0.33952427 0.73854446
vt 0.32547426 0.71606445
vt 0.32828426 0.74978447
vt 0.32547426 0.69920444
vt 0.31985426 0.69920444
vt 0.31704426 0.70201445
vt 0.31704426 0.70201445
vt 0.31704426 0.70201445
vt 0.31985426 0.72449446
vt 0.31985426 0.74697447
vt 0.31985426 0.74978447
vt 0.31985426 0.7582145
vt 0.31985426 0.7610245
vt 0.32547426 0.7610245
vt 0.32266426 0.7638345
vt 0.32266426 0.7666445
vt 0.32828426 0.7891245
vt 0.31985426 0.7891245
vt 0.31985426 0.8031745
vt 0.32547426 0.8200345
vt 0.31985426 0.8172245
vt 0.31985426 0.8256545
vt 0.32828426 0.8397045
vt 0.31704426 0.8397045
vt 0.31704426 0.8453245
vt 0.31704426 0.8537545
vt 0.31704426 0.8565645
vt 0.31704426 0.8593745
vt 0.31704426 0.8678045
vt 0.31704426 0.87623453
vt 0.31704426 0.88747454
vt 0.31423426 0.89590454
vt 0.30580425 0.91557455
vt 0.29175425 0.9577246
vt 0.28613424 0.9942546
vt 0.28613424 0.9717746
vt 0.28051424 0.9886346
vt 0.27770424 0.9942546
vt 0.27770424 0.9942546
vt 0.31985426 0.7863145
vt 0.31985426 0.7891245
vt 0.32547426 0.7835045
vt 0.32266426 0.7750745
vt 0.32266426 0.7666445
vt 0.44349432 0.8368945
vt 0.44068432 0.8200345
vt 0.43506432 0.8256545
vt 0.44630432 0.8368945
vt 0.44630432 0.8453245
vt 0.45473433 0.8453245
vt 0.45192432 0.8621845
vt 0.45754433 0.8509445
vt 0.45754433 0.8368945
vt 0.44630432 0.8368945
vt 0.46035433 0.8312745
vt 0.46597433 0.8397045
vt 0.47159433 0.8172245
vt 0.47159433 0.8059845
vt 0.45192432 0.8284645
vt 0.45754433 0.8200345
vt 0.46878433 0.7891245
vt 0.44630432 0.8172245
vt 0.44068432 0.8200345
vt 0.44630432 0.8087945
vt 0.45192432 0.8116045
vt 0.46035433 0.7778845
vt 0.45754433 0.7778845
vt 0.46878433 0.8706145
vt 0.45754433 0.8509445
vt 0.45192432 0.8621845
vt 0.47159433 0.8621845
vt 0.47721434 0.8509445
vt 0.46597433 0.8397045
vt 0.48002434 0.87623453
vt 0.47440434 0.88466454
vt 0.48845434 0.8649945
vt 0.49126434 0.8481345
vt 0.48002434 0.8116045
vt 0.47159433 0.8172245
vt 0.4266343 0.8172245
vt 0.43506432 0.8256545
vt 0.43506432 0.8172245
vt 0.44068432 0.8200345
vt 0.4266343 0.8059845
vt 0.4182043 0.8087945
vt 0.44349432 0.8031745
vt 0.44630432 0.8087945
vt 0.45754433 0.7778845
vt 0.45754433 0.7694545
vt 0.4322543 0.7891245
vt 0.44630432 0.7525945
vt 0.43506432 0.74416447
vt 0.4238243 0.7806945
vt 0.4238243 0.73854446
vt 0.4125843 0.7778845
vt 0.4182043 0.7975545
vt 0.4097743 0.7919345
vt 0.34514427 0.8425145
vt 0.33390427 0.8340845
vt 0.33109426 0.8481345
vt 0.32828426 0.8397045
vt 0.32547426 0.8200345
vt 0.33390427 0.8172245
vt 0.32828426 0.7891245
vt 0.33390427 0.7863145
vt 0.34233427 0.8284645
vt 0.34233427 0.8144145
vt 0.33952427 0.7863145
vt 0.34795427 0.7863145
vt 0.35357428 0.8256545
vt 0.35919428 0.8340845
vt 0.35919428 0.8116045
vt 0.35357428 0.8116045
vt 0.35357428 0.7863145
vn -0.02903853 0.9995783 -0
vn 0.002270162 0.9999975 -0
vn -0.02903853 0.9995783 -0
vn -0.02903853 0.9995783 -0
vn 0.002270162 0.9999975 -0
vn 0.06477574 0.9978999 -0
vn 0.12652874 0.9919629 -0
vn 0.002270162 0.96867657 0.2483155
vn -0.060371518 0.96867657 0.24087551
vn -0.09169245 0.93735576 0.33609024
vn -0.09169245 0.93735576 0.33609024
vn -0.029050708 0.96867657 0.2466207
vn 0.033591032 0.96867657 0.24604337
vn 0.06477574 0.9978999 -0
vn 0.09579043 0.9954015 -0
vn 0.033572182 0.9994363 -0
vn 0.06477574 0.9978999 -0
vn 0.06477574 0.9978999 -0
vn 0.06477574 0.9978999 -0
vn 0.09579043 0.9954015 -0
vn 0.09579043 0.9954015 -0
vn 0.19019532 0.96867657 0.1596605
vn 0.15887445 0.96867657 0.19085239
vn 0.28415793 0.9060348 0.31361628
vn 0.37812048 0.874714 0.3031506
vn 0.3467996 0.874714 0.33853424
vn 0.3467996 0.874714 0.33853424
vn 0.37812048 0.7181097 0.584246
vn 0.3154788 0.74943054 0.5820885
vn 0.22151619 0.8120723 0.5398789
vn 0.033591032 0.93735576 0.34675035
vn 0.033591032 0.93735576 0.34675035
vn 0.033591032 0.93735576 0.34675035
vn 0.033591032 0.93735576 0.34675035
vn 0.0649119 0.96867657 0.23969176
vn 0.0649119 0.96867657 0.23969176
vn 0.033591032 0.96867657 0.24604337
vn -0.02903853 0.9995783 -0
vn 0.002270162 0.9999975 -0
vn 0.06477574 0.9978999 -0
vn 0.4720831 0.62414706 0.62255764
vn 0.09579043 0.9954015 -0
vn 0.033572182 0.9994363 -0
vn 0.033572182 0.9994363 -0
vn -0.02903853 0.9995783 -0
vn 0.50340396 0.59282625 0.6286028
vn -0.02903853 0.9995783 -0
vn 0.06477574 0.9978999 -0
vn 0.09579043 0.9954015 -0
vn 0.56604564 0.59282625 0.57284325
vn 0.002270162 0.9999975 -0
vn 0.12755358 0.96867657 0.21306288
vn 0.50340396 0.59282625 0.6286028
vn 0.3154788 0.59282625 0.7409657
vn 0.0649119 0.96867657 0.23969176
vn 0.002270162 0.9999975 -0
vn 0.3467996 0.62414706 0.70012176
vn 0.002270162 0.9999975 -0
vn 0.0649119 0.96867657 0.23969176
vn 0.4720831 0.62414706 0.62255764
vn 0.12652874 0.9919629 -0
vn 0.002270162 0.9999975 -0
vn 0.3154788 0.62414706 0.71478224
vn 0.0649119 0.96867657 0.23969176
vn -0.12301326 0.43622196 0.8913911
vn 0.15887445 0.93735576 0.31003726
vn -0.24829674 0.24829674 0.9363212
vn 0.002270162 0.9999975 -0
vn -0.21697593 0.31093848 0.9253317
vn 0.40944135 0.874714 0.25929356
vn -0.12301326 0.96867657 0.21571617
vn -0.15433419 0.4988637 0.8528282
vn -0.12301326 0.9060348 0.40493038
vn -0.06026195 0.9981826 -0
vn -0.06026195 0.9981826 -0
vn -0.185655 0.5615053 0.80637705
vn 0.033572182 0.9994363 -0
vn -0.09169245 0.9060348 0.4131505
vn -0.060371518 0.93735576 0.34310272
vn -0.15433419 0.6867888 0.7102831
vn 0.033572182 0.9994363 -0
vn 0.25283706 0.8433931 0.47409022
vn 0.002270162 0.9999975 -0
vn 0.22151619 0.8433931 0.48950866
vn 0.002270162 0.9999975 -0
vn 0.002270162 0.9999975 -0
vn 0.002270162 0.9999975 -0
vn 0.002270162 0.9999975 -0
vn 0.033572182 0.9994363 -0
vn 0.3467996 0.8433931 0.4103878
vn 0.50340396 0.78075147 0.37015077
vn 0.033572182 0.9994363 -0
vn 0.44076222 0.7181097 0.5385602
vn 0.002270162 0.9999975 -0
vn 0.002270162 0.9999975 -0
vn 0.002270162 0.9999975 -0
vn 0.0649119 0.6867888 0.7239528
vn 0.002270162 0.9999975 -0
vn 0.15887445 0.7181097 0.67755246
vn 0.19019532 0.7181097 0.66943574
vn 0.002270162 0.9999975 -0
vn 0.002270162 0.9999975 -0
vn 0.002270162 0.78075147 0.62483764
vn 0.033591032 0.7181097 0.6951187
vn 0.09579043 0.9954015 -0
vn 0.06477574 0.9978999 -0
vn 0.002270162 0.9999975 -0
vn 0.002270162 0.9999975 -0
vn 0.002270162 0.9999975 -0
vn 0.40944135 0.37358022 0.8323434
vn -0.3422593 0.15433419 0.9268439
vn -0.59282625 0.15433419 0.7904037
vn -0.21697593 0.37358022 0.90186435
vn -0.09169245 0.43622196 0.8951552
vn 0.50340396 0.40490103 0.7633083
vn 0.002270162 0.4988637 0.86667746
vn -0.3422593 0.43622196 0.83220726
vn -0.4988637 0.37358022 0.7820312
vn -0.24829674 0.5615053 0.7893418
vn -0.27961767 0.59282625 0.7552291
vn 0.22151619 0.655468 0.7220058
vn 0.19019532 0.7181097 0.66943574
vn -0.12301326 0.62414706 0.77156216
vn -0.5615053 0.21697593 0.79851943
vn -0.15433419 0.6867888 0.7102831
vn -0.5301845 0.4988637 0.68559414
vn -0.7181097 0.3422593 0.6059513
vn -0.5301845 0.59282625 0.606186
vn -0.62414706 0.37358022 0.68620574
vn -0.27961767 0.15433419 0.94762594
vn -0.46754277 0.185655 0.8642546
vn -0.43622196 0.27961767 0.85529196
vn 0.002270162 -0.5973666 0.8019651
vn -0.24829674 -0.28415793 0.92606854
vn -0.09169245 0.62414706 0.7759078
vn -0.24829674 0.27961767 0.9274495
vn -0.15433419 0.5301845 0.83371776
vn 0.19019532 0.62414706 0.75780356
vn -0.27733618 0.9607729 -0
vn -0.12301326 0.96867657 0.21571617
vn 0.0649119 0.96867657 0.23969176
vn -0.185655 0.655468 0.73204774
vn -0.874714 0.09169245 0.4758864
vn -0.24829674 0.93735576 0.2443622
vn -0.4988637 0.5615053 0.66018695
vn -0.74943054 0.40490103 0.52384067
vn 0.033591032 0.96867657 0.24604337
vn -0.060371518 0.8120723 0.5804256
vn -0.029050708 0.96867657 0.2466207
vn -0.060371518 0.78075147 0.6219184
vn 0.0649119 0.6867888 0.7239528
vn 0.15887445 0.78075147 0.6043063
vn 0.15887445 0.5615053 0.812078
vn 0.3154788 0.74943054 0.5820885
vn 0.40944135 0.5301845 0.7424703
vn 0.28415793 0.74943054 0.5980035
vn 0.15887445 0.43622196 0.8857027
vn 0.37812048 0.4988637 0.7798461
vn 0.56604564 0.6867888 0.45597535
vn 0.4720831 -0.4720831 0.7444965
vn 0.28415793 0.655468 0.6997257
vn 0.3154788 0.655468 0.68617404
vn 0.37812048 -0.6286874 0.6795418
vn 0.28415793 0.5301845 0.79884833
vn 0.53472483 0.43622196 0.7237263
vn 0.66000825 0.43622196 0.61163676
vn 0.37812048 -0.78529173 0.49024665
vn 0.8479334 0.31093848 0.42933232
vn 0.72265 0.62414706 0.29701427
vn 0.56604564 -0.78529173 0.25081715
vn 0.8479334 0.40490103 0.34214634
vn 0.7225926 -0.6912742 -0
vn 0.75397086 0.5615053 0.34093943
vn 0.75397086 0.59282625 0.28299284
vn 0.3154788 0.43622196 0.84272385
vn 0.53472483 0.43622196 0.7237263
vn -0.24829674 0.37358022 0.8937486
vn -0.15433419 0.37358022 0.9146687
vn -0.6867888 0.21697593 0.6937165
vn -0.74943054 0.21697593 0.62552005
vn -0.78075147 0.40490103 0.4759016
vn -0.93735576 0.029050708 0.34716025
vn -0.93735576 0.060371518 0.3431027
vn 0.6286874 0.24829674 0.7369538
vn 0.72265 -0.25283706 0.6433121
vn 0.28148526 0.9595656 -0
vn 0.6286874 0.6867888 0.36479217
vn 0.6913291 -0.3467996 0.63387233
vn 0.40944135 0.8433931 0.34791648
vn 0.5973666 0.62414706 0.5035808
vn 0.19019532 0.96867657 0.1596605
vn 0.50340396 0.6867888 0.52431434
vn 0.0649119 0.874714 0.48027265
vn 0.19019532 -0.3467996 0.9184529
vn 0.40944135 0.8120723 0.4158081
vn 0.12755358 0.8433931 0.52193695
vn 0.28415793 0.7181097 0.63527375
vn 0.6286874 -0.3467996 0.6960476
vn 0.8166126 -0.50340396 0.28236195
vn 0.53472483 0.8120723 0.23368353
vn 0.4720831 0.3422593 0.8124014
vn 0.002270162 0.78075147 0.62483764
vn 0.033591032 0.93735576 0.34675035
vn 0.22151619 0.7181097 0.6597341
vn 0.19019532 -0.37812048 0.9060081
vn 0.28415793 0.43622196 0.8537943
vn 0.37812048 -0.3154788 0.8703436
vn 0.44076222 -0.3154788 0.84035814
vn 0.6286874 -0.3154788 0.710792
vn 0.033591032 0.93735576 0.34675035
vn 0.56604564 0.029050708 0.8238619
vn -0.31093848 0.029050708 0.949986
vn 0.6286874 0.59282625 0.50329834
vn 0.12755358 0.3422593 0.9309074
vn 0.5973666 0.5301845 0.60171217
vn -0.27961767 -0.0649119 0.9579146
vn 0.28415793 0.060371518 0.9568749
vn 0.56604564 0.40490103 0.718086
vn 0.56604564 0.09169245 0.8192587
vn 0.66000825 0.24829674 0.70904005
vn 0.19019532 0.40490103 0.8943606
vn 0.56604564 0.43622196 0.6995018
vn 0.25283706 0.5615053 0.78789926
vn -0.09169245 0.9060348 0.4131505
vn -0.3422593 0.3422593 0.87505263
vn -0.09169245 0.9060348 0.4131505
vn -0.27961767 0.8120723 0.51220363
vn -0.09169245 0.9060348 0.4131505
vn -0.12301326 0.874714 0.46876767
vn -0.12301326 0.8433931 0.5230257
vn 0.3154788 0.874714 0.3678974
vn 0.25283706 0.9060348 0.33937338
vn -0.02903853 0.9995783 -0
vn -0.02903853 0.9995783 -0
vn -0.02903853 0.9995783 -0
vn -0.02903853 0.9995783 -0
vn -0.02903853 0.9995783 -0
vn 0.002270162 0.9999975 -0
vn -0.02903853 0.9995783 -0
vn -0.06026195 0.9981826 -0
vn -0.06026195 0.9981826 -0
vn -0.02903853 0.9995783 -0
vn -0.06026195 0.9981826 -0
vn -0.02903853 0.9995783 -0
vn -0.06026195 0.9981826 -0
vn 0.002270162 0.9999975 -0
vn -0.06026195 0.9981826 -0
vn -0.06026195 0.9981826 -0
vn -0.02903853 0.9995783 -0
vn -0.02903853 0.9995783 -0
vn -0.06026195 0.9981826 -0
vn -0.02903853 0.9995783 -0
vn -0.02903853 0.9995783 -0
vn -0.06026195 0.9981826 -0
vn -0.06026195 0.9981826 -0
vn 0.033572182 0.9994363 -0
vn -0.06026195 0.9981826 -0
vn -0.06026195 0.9981826 -0
vn -0.06026195 0.9981826 -0
vn -0.06026195 0.9981826 -0
vn -0.06026195 0.9981826 -0
vn -0.09130964 0.99582255 -0
vn -0.09130964 0.99582255 -0
vn -0.02903853 0.9995783 -0
vn -0.09130964 0.99582255 -0
vn -0.09130964 0.99582255 -0
vn -0.06026195 0.9981826 -0
vn -0.09130964 0.99582255 -0
vn -0.02903853 0.9995783 -0
vn -0.02903853 0.9995783 -0
vn -0.09130964 0.99582255 -0
vn -0.09130964 0.99582255 -0
vn -0.06026195 0.9981826 -0
vn -0.06026195 0.9981826 -0
vn -0.02903853 0.9995783 -0
vn -0.02903853 0.9995783 -0
vn -0.02903853 0.9995783 -0
vn 0.06477574 0.9978999 -0
vn 0.09579043 0.9954015 -0
vn 0.09579043 0.9954015 -0
vn 0.09579043 0.9954015 -0
vn 0.09579043 0.9954015 -0
vn -0.06026195 0.9981826 -0
vn -0.02903853 0.9995783 -0
vn -0.02903853 0.9995783 -0
vn -0.02903853 0.9995783 -0
vn -0.02903853 0.9995783 -0
vn -0.02903853 0.9995783 -0
vn -0.02903853 0.9995783 -0
vn -0.02903853 0.9995783 -0
vn -0.09169245 0.185655 0.9783275
vn -0.09169245 0.185655 0.9783275
vn -0.09169245 0.21697593 0.97186106
vn -0.09169245 0.27961767 0.955723
vn -0.09169245 0.27961767 0.955723
vn -0.12301326 0.37358022 0.919405
vn -0.12301326 0.4988637 0.85790604
vn -0.15433419 0.4988637 0.8528282
vn -0.185655 0.59282625 0.7836385
vn -0.15433419 0.7181097 0.6786011
vn -0.15433419 0.74943054 0.6438438
vn -0.15433419 0.8433931 0.51465434
vn -0.02903853 0.9995783 -0
vn -0.02903853 0.9995783 -0
vn -0.02903853 0.9995783 -0
vn -0.02903853 0.9995783 -0
vn 0.002270162 0.9999975 -0
vn 0.033572182 0.9994363 -0
vn 0.09579043 0.9954015 -0
vn 0.06477574 0.9978999 -0
vn 0.12652874 0.9919629 -0
vn 0.12652874 0.9919629 -0
vn 0.12652874 0.9919629 -0
vn -0.4988637 0.40490103 0.76628333
vn -0.43622196 0.62414706 0.64819044
vn -0.5301845 0.46754277 0.7073246
vn -0.4988637 0.40490103 0.76628333
vn -0.5615053 0.3422593 0.75337267
vn 0.8792543 0.185655 0.43868452
vn 0.8792543 0.185655 0.43868452
vn 0.8792543 0.185655 0.43868452
vn 0.8792543 0.185655 0.43868452
vn 0.8792543 0.15433419 0.45065826
vn 0.53472483 0.8120723 0.23368353
vn 0.78529173 0.15433419 0.5995814
vn 0.9732169 0.21697593 0.07596263
vn 0.8478967 0.53016156 -0
vn 0.12652874 0.9919629 -0
vn 0.96896166 0.2472111 -0
vn 0.941896 0.12301326 -0.3125694
vn 0.941896 0.15433419 -0.29835021
vn 0.941896 0.31093848 0.12707932
vn 0.5973666 0.74943054 0.28549445
vn 0.8479334 0.40490103 0.34214634
vn 0.78529173 0.43622196 0.4393487
vn 0.22151619 0.7181097 0.6597341
vn -0.09169245 0.874714 0.47588637
vn -0.15433419 0.37358022 0.9146687
vn 0.44076222 0.4988637 0.746233
vn 0.44076222 0.4988637 0.746233
vn -0.12301326 0.40490103 0.90604794
vn 0.66000825 0.4988637 0.5617153
vn 0.3154788 0.15433419 0.9362981
vn 0.3154788 0.40490103 0.85821223
vn 0.72265 0.185655 0.6658147
vn 0.6286874 0.5615053 0.5380186
vn 0.22151619 0.4988637 0.83789355
vn 0.9732169 0.15433419 0.17038144
vn 0.9018528 0.4320434 -0
vn 0.8792543 0.40490103 0.2509324
vn 0.6913291 0.7181097 0.079890706
vn 0.15887445 0.78075147 0.6043063
vn -0.5301845 0.27961767 0.80044883
vn 0.15887445 0.93735576 0.31003726
vn 0.3467996 0.9060348 0.24255085
vn 0.66000825 0.59282625 0.4614609
vn 0.941896 0.12301326 -0.3125694
vn 0.4720831 0.6867888 0.5526832
vn 0.12755358 0.96867657 0.21306288
vn 0.78529173 0.43622196 0.4393487
vn 0.941896 0.15433419 -0.29835021
vn 0.941896 0.15433419 -0.29835021
vn 0.72265 0.4988637 0.4784475
vn 0.56604564 0.4988637 0.6562982
vn 0.53472483 0.5301845 0.6580074
vn 0.3154788 0.4988637 0.8072225
vn 0.28415793 0.46754277 0.83705324
vn 0.15887445 0.46754277 0.86957616
vn 0.15887445 0.43622196 0.8857027
vn 0.25283706 0.655468 0.71164256
vn 0.12755358 0.4988637 0.8572427
vn -0.15433419 0.9060348 0.39405817
vn -0.43622196 0.655468 0.61649984
vn -0.185655 0.93735576 0.29478198
vn -0.9060348 0.27961767 0.31767094
vn -0.874714 0.060371518 0.4808645
vn -0.59282625 0.15433419 0.7904037
vn -0.8433931 -0.033591032 0.536246
vn -0.5301845 0.029050708 0.84738445
vn -0.21697593 0.655468 0.7233831
vn -0.21697593 0.185655 0.9583599
vn -0.21697593 0.029050708 0.9757446
vn 0.12755358 -0.09623271 0.98715216
vn 0.002270162 0.655468 0.7552196
vn 0.09623271 0.8120723 0.5755675
vn 0.66000825 0.029050708 0.7506965
vn 0.15887445 0.09169245 0.98303175
vn 0.6286874 -0.25283706 0.7354085
g tb_geo_section_03_mesh_0
f 3/3/3 2/2/2 1/1/1
f 4/4/4 3/3/3 1/1/1
f 5/5/5 4/4/4 1/1/1
f 6/6/6 4/4/4 5/5/5
f 6/6/6 5/5/5 7/7/7
f 6/6/6 7/7/7 8/8/8
f 9/9/9 6/6/6 8/8/8
f 10/10/10 9/9/9 8/8/8
f 10/10/10 8/8/8 11/11/11
f 10/10/10 11/11/11 12/12/12
f 11/11/11 13/13/13 12/12/12
f 12/12/12 13/13/13 14/14/14
f 15/15/15 12/12/12 14/14/14
f 16/16/16 15/15/15 14/14/14
f 17/17/17 16/16/16 14/14/14
f 17/17/17 14/14/14 18/18/18
f 17/17/17 18/18/18 19/19/19
f 19/19/19 20/20/20 17/17/17
f 20/20/20 21/21/21 17/17/17
f 21/21/21 20/20/20 22/22/22
f 23/23/23 21/21/21 22/22/22
f 24/24/24 23/23/23 22/22/22
f 24/24/24 22/22/22 25/25/25
f 24/24/24 25/25/25 26/26/26
f 25/25/25 27/27/27 26/26/26
f 26/26/26 27/27/27 28/28/28
f 29/29/29 26/26/26 28/28/28
f 29/29/29 28/28/28 30/30/30
f 29/29/29 30/30/30 31/31/31
f 29/29/29 31/31/31 32/32/32
f 29/29/29 32/32/32 33/33/33
f 31/31/31 34/34/34 32/32/32
f 35/35/35 29/29/29 33/33/33
f 35/35/35 33/33/33 36/36/36
f 35/35/35 36/36/36 37/37/37
f 35/35/35 37/37/37 38/38/38
f 39/39/39 35/35/35 38/38/38
f 35/35/35 40/40/40 29/29/29
f 40/40/40 35/35/35 39/39/39
f 41/41/41 29/29/29 40/40/40
f 42/42/42 41/41/41 40/40/40
f 43/43/43 40/40/40 39/39/39
f 42/42/42 40/40/40 43/43/43
f 44/44/44 42/42/42 43/43/43
f 44/44/44 45/45/45 42/42/42
f 46/46/46 41/41/41 42/42/42
f 42/42/42 45/45/45 47/47/47
f 48/48/48 46/46/46 42/42/42
f 48/48/48 42/42/42 47/47/47
f 46/46/46 48/48/48 49/49/49
f 49/49/49 48/48/48 47/47/47
f 50/50/50 46/46/46 49/49/49
f 51/51/51 49/49/49 47/47/47
f 50/50/50 49/49/49 52/52/52
f 51/51/51 52/52/52 49/49/49
f 53/53/53 50/50/50 52/52/52
f 54/54/54 53/53/53 52/52/52
f 55/55/55 52/52/52 51/51/51
f 55/55/55 54/54/54 52/52/52
f 56/56/56 55/55/55 51/51/51
f 54/54/54 55/55/55 57/57/57
f 56/56/56 58/58/58 55/55/55
f 55/55/55 59/59/59 57/57/57
f 58/58/58 59/59/59 55/55/55
f 60/60/60 57/57/57 59/59/59
f 61/61/61 59/59/59 58/58/58
f 61/61/61 60/60/60 59/59/59
f 62/62/62 61/61/61 58/58/58
f 63/63/63 60/60/60 61/61/61
f 61/61/61 62/62/62 64/64/64
f 64/64/64 63/63/63 61/61/61
f 63/63/63 64/64/64 65/65/65
f 62/62/62 66/66/66 64/64/64
f 64/64/64 66/66/66 65/65/65
f 65/65/65 66/66/66 67/67/67
f 66/66/66 68/68/68 67/67/67
f 67/67/67 68/68/68 69/69/69
f 66/66/66 70/70/70 68/68/68
f 68/68/68 71/71/71 69/69/69
f 69/69/69 71/71/71 72/72/72
f 71/71/71 73/73/73 72/72/72
f 74/74/74 73/73/73 71/71/71
f 75/75/75 74/74/74 71/71/71
f 68/68/68 75/75/75 71/71/71
f 72/72/72 73/73/73 76/76/76
f 70/70/70 77/77/77 68/68/68
f 68/68/68 77/77/77 75/75/75
f 73/73/73 78/78/78 76/76/76
f 74/74/74 78/78/78 73/73/73
f 76/76/76 78/78/78 79/79/79
f 74/74/74 79/79/79 78/78/78
f 80/80/80 76/76/76 79/79/79
f 81/81/81 77/77/77 70/70/70
f 82/82/82 81/81/81 70/70/70
f 81/81/81 82/82/82 83/83/83
f 82/82/82 84/84/84 83/83/83
f 77/77/77 81/81/81 85/85/85
f 81/81/81 83/83/83 85/85/85
f 77/77/77 86/86/86 75/75/75
f 77/77/77 85/85/85 86/86/86
f 75/75/75 86/86/86 87/87/87
f 86/86/86 85/85/85 87/87/87
f 74/74/74 75/75/75 87/87/87
f 85/85/85 83/83/83 88/88/88
f 89/89/89 83/83/83 84/84/84
f 83/83/83 89/89/89 88/88/88
f 90/90/90 89/89/89 84/84/84
f 90/90/90 91/91/91 89/89/89
f 91/91/91 92/92/92 89/89/89
f 89/89/89 92/92/92 88/88/88
f 91/91/91 93/93/93 92/92/92
f 92/92/92 94/94/94 88/88/88
f 93/93/93 94/94/94 92/92/92
f 88/88/88 94/94/94 95/95/95
f 94/94/94 93/93/93 96/96/96
f 94/94/94 96/96/96 95/95/95
f 93/93/93 97/97/97 96/96/96
f 98/98/98 96/96/96 97/97/97
f 96/96/96 98/98/98 95/95/95
f 99/99/99 98/98/98 97/97/97
f 99/99/99 100/100/100 98/98/98
f 98/98/98 101/101/101 95/95/95
f 100/100/100 101/101/101 98/98/98
f 101/101/101 102/102/102 95/95/95
f 101/101/101 100/100/100 103/103/103
f 100/100/100 104/104/104 103/103/103
f 101/101/101 103/103/103 105/105/105
f 101/101/101 105/105/105 106/106/106
f 102/102/102 101/101/101 106/106/106
f 106/106/106 107/107/107 102/102/102
f 102/102/102 107/107/107 108/108/108
f 108/108/108 109/109/109 102/102/102
f 112/112/112 111/111/111 110/110/110
f 111/111/111 113/113/113 110/110/110
f 110/110/110 113/113/113 114/114/114
f 110/110/110 114/114/114 115/115/115
f 114/114/114 116/116/116 115/115/115
f 117/117/117 116/116/116 114/114/114
f 118/118/118 117/117/117 114/114/114
f 118/118/118 114/114/114 113/113/113
f 119/119/119 117/117/117 118/118/118
f 120/120/120 119/119/119 118/118/118
f 121/121/121 119/119/119 120/120/120
f 122/122/122 121/121/121 120/120/120
f 121/121/121 122/122/122 123/123/123
f 120/120/120 118/118/118 124/124/124
f 124/124/124 118/118/118 113/113/113
f 122/122/122 125/125/125 123/123/123
f 123/123/123 125/125/125 126/126/126
f 127/127/127 120/120/120 124/124/124
f 120/120/120 127/127/127 122/122/122
f 125/125/125 128/128/128 126/126/126
f 129/129/129 126/126/126 128/128/128
f 124/124/124 113/113/113 130/130/130
f 131/131/131 127/127/127 124/124/124
f 131/131/131 124/124/124 130/130/130
f 130/130/130 113/113/113 132/132/132
f 132/132/132 113/113/113 133/133/133
f 132/132/132 133/133/133 134/134/134
f 135/135/135 132/132/132 134/134/134
f 130/130/130 132/132/132 136/136/136
f 136/136/136 131/131/131 130/130/130
f 132/132/132 135/135/135 137/137/137
f 136/136/136 132/132/132 137/137/137
f 137/137/137 135/135/135 138/138/138
f 139/139/139 128/128/128 125/125/125
f 140/140/140 139/139/139 125/125/125
f 140/140/140 125/125/125 122/122/122
f 141/141/141 140/140/140 122/122/122
f 142/142/142 141/141/141 122/122/122
f 127/127/127 142/142/142 122/122/122
f 143/143/143 142/142/142 127/127/127
f 143/143/143 127/127/127 131/131/131
f 139/139/139 144/144/144 128/128/128
f 143/143/143 131/131/131 145/145/145
f 146/146/146 143/143/143 145/145/145
f 145/145/145 147/147/147 146/146/146
f 145/145/145 131/131/131 148/148/148
f 147/147/147 145/145/145 148/148/148
f 8/8/8 147/147/147 148/148/148
f 131/131/131 136/136/136 148/148/148
f 8/8/8 148/148/148 149/149/149
f 148/148/148 136/136/136 150/150/150
f 148/148/148 150/150/150 149/149/149
f 136/136/136 137/137/137 150/150/150
f 150/150/150 151/151/151 149/149/149
f 150/150/150 137/137/137 151/151/151
f 151/151/151 152/152/152 149/149/149
f 137/137/137 138/138/138 151/151/151
f 151/151/151 153/153/153 152/152/152
f 151/151/151 138/138/138 153/153/153
f 154/154/154 152/152/152 153/153/153
f 154/154/154 153/153/153 155/155/155
f 154/154/154 155/155/155 156/156/156
f 138/138/138 157/157/157 153/153/153
f 153/153/153 157/157/157 155/155/155
f 155/155/155 158/158/158 156/156/156
f 156/156/156 158/158/158 159/159/159
f 155/155/155 157/157/157 160/160/160
f 155/155/155 160/160/160 158/158/158
f 157/157/157 161/161/161 160/160/160
f 161/161/161 157/157/157 138/138/138
f 161/161/161 162/162/162 160/160/160
f 162/162/162 161/161/161 138/138/138
f 160/160/160 163/163/163 158/158/158
f 164/164/164 162/162/162 138/138/138
f 164/164/164 165/165/165 162/162/162
f 135/135/135 164/164/164 138/138/138
f 158/158/158 163/163/163 166/166/166
f 158/158/158 166/166/166 159/159/159
f 163/163/163 167/167/167 166/166/166
f 166/166/166 168/168/168 159/159/159
f 166/166/166 167/167/167 168/168/168
f 168/168/168 169/169/169 159/159/159
f 167/167/167 170/170/170 168/168/168
f 168/168/168 171/171/171 169/169/169
f 168/168/168 170/170/170 171/171/171
f 170/170/170 172/172/172 171/171/171
f 171/171/171 173/173/173 169/169/169
f 171/171/171 172/172/172 174/174/174
f 173/173/173 171/171/171 174/174/174
f 164/164/164 175/175/175 165/165/165
f 175/175/175 176/176/176 165/165/165
f 164/164/164 177/177/177 175/175/175
f 177/177/177 178/178/178 175/175/175
f 164/164/164 135/135/135 177/177/177
f 179/179/179 178/178/178 177/177/177
f 177/177/177 135/135/135 180/180/180
f 180/180/180 179/179/179 177/177/177
f 135/135/135 181/181/181 180/180/180
f 182/182/182 179/179/179 180/180/180
f 180/180/180 181/181/181 183/183/183
f 183/183/183 182/182/182 180/180/180
f 174/174/174 184/184/184 173/173/173
f 185/185/185 184/184/184 174/174/174
f 186/186/186 185/185/185 174/174/174
f 187/187/187 185/185/185 186/186/186
f 188/188/188 185/185/185 187/187/187
f 184/184/184 189/189/189 173/173/173
f 173/173/173 189/189/189 190/190/190
f 189/189/189 191/191/191 190/190/190
f 191/191/191 192/192/192 190/190/190
f 192/192/192 191/191/191 28/28/28
f 189/189/189 184/184/184 193/193/193
f 189/189/189 193/193/193 191/191/191
f 184/184/184 194/194/194 193/193/193
f 184/184/184 185/185/185 194/194/194
f 193/193/193 194/194/194 195/195/195
f 193/193/193 195/195/195 191/191/191
f 191/191/191 196/196/196 28/28/28
f 197/197/197 28/28/28 196/196/196
f 31/31/31 197/197/197 196/196/196
f 185/185/185 198/198/198 194/194/194
f 194/194/194 198/198/198 195/195/195
f 198/198/198 185/185/185 199/199/199
f 198/198/198 199/199/199 195/195/195
f 185/185/185 188/188/188 199/199/199
f 195/195/195 200/200/200 191/191/191
f 199/199/199 200/200/200 195/195/195
f 200/200/200 196/196/196 191/191/191
f 201/201/201 200/200/200 199/199/199
f 201/201/201 196/196/196 200/200/200
f 188/188/188 201/201/201 199/199/199
f 202/202/202 31/31/31 196/196/196
f 196/196/196 201/201/201 202/202/202
f 31/31/31 202/202/202 34/34/34
f 202/202/202 203/203/203 34/34/34
f 202/202/202 204/204/204 203/203/203
f 201/201/201 205/205/205 202/202/202
f 204/204/204 202/202/202 205/205/205
f 205/205/205 201/201/201 188/188/188
f 206/206/206 204/204/204 205/205/205
f 205/205/205 207/207/207 206/206/206
f 205/205/205 208/208/208 207/207/207
f 205/205/205 188/188/188 208/208/208
f 188/188/188 209/209/209 208/208/208
f 188/188/188 210/210/210 209/209/209
f 210/210/210 211/211/211 209/209/209
f 188/188/188 212/212/212 210/210/210
f 210/210/210 213/213/213 211/211/211
f 212/212/212 214/214/214 210/210/210
f 210/210/210 214/214/214 213/213/213
f 214/214/214 215/215/215 213/213/213
f 212/212/212 216/216/216 214/214/214
f 214/214/214 217/217/217 215/215/215
f 216/216/216 217/217/217 214/214/214
f 217/217/217 218/218/218 215/215/215
f 217/217/217 219/219/219 218/218/218
f 220/220/220 219/219/219 217/217/217
f 217/217/217 216/216/216 221/221/221
f 217/217/217 221/221/221 220/220/220
f 221/221/221 222/222/222 220/220/220
f 221/221/221 223/223/223 222/222/222
f 221/221/221 224/224/224 223/223/223
f 216/216/216 225/225/225 221/221/221
f 221/221/221 225/225/225 224/224/224
f 225/225/225 226/226/226 224/224/224
f 225/225/225 227/227/227 226/226/226
f 227/227/227 228/228/228 226/226/226
f 227/227/227 229/229/229 228/228/228
f 227/227/227 230/230/230 229/229/229
f 227/227/227 231/231/231 230/230/230
f 231/231/231 232/232/232 230/230/230
f 233/233/233 232/232/232 231/231/231
f 234/234/234 233/233/233 231/231/231
f 234/234/234 231/231/231 235/235/235
f 236/236/236 234/234/234 235/235/235
f 236/236/236 235/235/235 237/237/237
f 235/235/235 238/238/238 237/237/237
f 239/239/239 236/236/236 237/237/237
f 239/239/239 237/237/237 240/240/240
f 241/241/241 239/239/239 240/240/240
f 242/242/242 241/241/241 240/240/240
f 242/242/242 240/240/240 243/243/243
f 244/244/244 242/242/242 243/243/243
f 244/244/244 243/243/243 245/245/245
f 243/243/243 246/246/246 245/245/245
f 247/247/247 244/244/244 245/245/245
f 247/247/247 245/245/245 248/248/248
f 249/249/249 247/247/247 248/248/248
f 250/250/250 249/249/249 248/248/248
f 250/250/250 248/248/248 251/251/251
f 252/252/252 250/250/250 251/251/251
f 253/253/253 252/252/252 251/251/251
f 254/254/254 253/253/253 251/251/251
f 254/254/254 251/251/251 255/255/255
f 251/251/251 256/256/256 255/255/255
f 257/257/257 254/254/254 255/255/255
f 257/257/257 255/255/255 258/258/258
f 259/259/259 257/257/257 258/258/258
f 260/260/260 259/259/259 258/258/258
f 260/260/260 258/258/258 261/261/261
f 262/262/262 260/260/260 261/261/261
f 262/262/262 261/261/261 263/263/263
f 261/261/261 264/264/264 263/263/263
f 265/265/265 262/262/262 263/263/263
f 266/266/266 265/265/265 263/263/263
f 263/263/263 267/267/267 266/266/266
f 267/267/267 268/268/268 266/266/266
f 267/267/267 269/269/269 268/268/268
f 267/267/267 270/270/270 269/269/269
f 269/269/269 271/271/271 268/268/268
f 269/269/269 272/272/272 271/271/271
f 269/269/269 273/273/273 272/272/272
f 274/274/274 272/272/272 273/273/273
f 275/275/275 273/273/273 269/269/269
f 273/273/273 275/275/275 276/276/276
f 275/275/275 277/277/277 276/276/276
f 273/273/273 278/278/278 274/274/274
f 273/273/273 276/276/276 278/278/278
f 276/276/276 279/279/279 278/278/278
f 276/276/276 280/280/280 279/279/279
f 280/280/280 276/276/276 281/281/281
f 281/281/281 282/282/282 280/280/280
f 281/281/281 276/276/276 283/283/283
f 284/284/284 283/283/283 276/276/276
f 277/277/277 284/284/284 276/276/276
f 277/277/277 285/285/285 284/284/284
f 277/277/277 286/286/286 285/285/285
f 287/287/287 286/286/286 277/277/277
f 288/288/288 287/287/287 277/277/277
f 288/288/288 289/289/289 287/287/287
f 288/288/288 290/290/290 289/289/289
f 293/293/293 292/292/292 291/291/291
f 294/294/294 293/293/293 291/291/291
f 294/294/294 295/295/295 293/293/293
f 296/296/296 295/295/295 294/294/294
f 297/297/297 296/296/296 294/294/294
f 297/297/297 298/298/298 296/296/296
f 299/299/299 298/298/298 297/297/297
f 300/300/300 299/299/299 297/297/297
f 300/300/300 297/297/297 80/80/80
f 301/301/301 300/300/300 80/80/80
f 302/302/302 301/301/301 80/80/80
f 79/79/79 302/302/302 80/80/80
f 79/79/79 303/303/303 302/302/302
f 304/304/304 303/303/303 79/79/79
f 74/74/74 304/304/304 79/79/79
f 74/74/74 305/305/305 304/304/304
f 306/306/306 305/305/305 74/74/74
f 306/306/306 74/74/74 87/87/87
f 87/87/87 307/307/307 306/306/306
f 87/87/87 308/308/308 307/307/307
f 87/87/87 309/309/309 308/308/308
f 309/309/309 310/310/310 308/308/308
f 309/309/309 311/311/311 310/310/310
f 309/309/309 312/312/312 311/311/311
f 312/312/312 313/313/313 311/311/311
f 144/144/144 315/315/315 314/314/314
f 316/316/316 144/144/144 314/314/314
f 144/144/144 316/316/316 128/128/128
f 316/316/316 314/314/314 317/317/317
f 316/316/316 129/129/129 128/128/128
f 316/316/316 317/317/317 129/129/129
f 317/317/317 318/318/318 129/129/129
f 321/321/321 320/320/320 319/319/319
f 320/320/320 322/322/322 319/319/319
f 319/319/319 322/322/322 323/323/323
f 322/322/322 324/324/324 323/323/323
f 324/324/324 325/325/325 323/323/323
f 324/324/324 326/326/326 325/325/325
f 326/326/326 324/324/324 327/327/327
f 324/324/324 328/328/328 327/327/327
f 327/327/327 329/329/329 326/326/326
f 329/329/329 330/330/330 326/326/326
f 331/331/331 330/330/330 329/329/329
f 332/332/332 331/331/331 329/329/329
f 328/328/328 333/333/333 327/327/327
f 329/329/329 327/327/327 333/333/333
f 332/332/332 329/329/329 334/334/334
f 334/334/334 329/329/329 333/333/333
f 335/335/335 332/332/332 334/334/334
f 336/336/336 333/333/333 328/328/328
f 334/334/334 333/333/333 336/336/336
f 337/337/337 336/336/336 328/328/328
f 337/337/337 338/338/338 336/336/336
f 335/335/335 334/334/334 339/339/339
f 339/339/339 334/334/334 336/336/336
f 338/338/338 339/339/339 336/336/336
f 340/340/340 335/335/335 339/339/339
f 338/338/338 341/341/341 339/339/339
f 341/341/341 340/340/340 339/339/339
f 344/344/344 343/343/343 342/342/342
f 343/343/343 345/345/345 342/342/342
f 345/345/345 343/343/343 346/346/346
f 343/343/343 347/347/347 346/346/346
f 342/342/342 345/345/345 348/348/348
f 345/345/345 346/346/346 348/348/348
f 349/349/349 342/342/342 348/348/348
f 346/346/346 350/350/350 348/348/348
f 350/350/350 346/346/346 351/351/351
f 346/346/346 231/231/231 351/351/351
f 352/352/352 231/231/231 346/346/346
f 347/347/347 352/352/352 346/346/346
f 347/347/347 353/353/353 352/352/352
f 356/356/356 355/355/355 354/354/354
f 355/355/355 356/356/356 357/357/357
f 358/358/358 356/356/356 354/354/354
f 354/354/354 359/359/359 358/358/358
f 356/356/356 360/360/360 357/357/357
f 356/356/356 358/358/358 360/360/360
f 360/360/360 361/361/361 357/357/357
f 362/362/362 361/361/361 360/360/360
f 363/363/363 362/362/362 360/360/360
f 360/360/360 364/364/364 363/363/363
f 358/358/358 364/364/364 360/360/360
f 364/364/364 365/365/365 363/363/363
f 366/366/366 365/365/365 364/364/364
f 367/367/367 366/366/366 364/364/364
f 358/358/358 367/367/367 364/364/364
f 368/368/368 366/366/366 367/367/367
f 369/369/369 368/368/368 367/367/367
f 359/359/359 370/370/370 358/358/358
f 358/358/358 370/370/370 367/367/367
f 369/369/369 367/367/367 370/370/370
f 371/371/371 370/370/370 359/359/359
f 371/371/371 369/369/369 370/370/370
f 374/374/374 373/373/373 372/372/372
f 374/374/374 375/375/375 373/373/373
f 375/375/375 376/376/376 373/373/373
f 376/376/376 377/377/377 373/373/373
f 377/377/377 376/376/376 378/378/378
f 379/379/379 377/377/377 378/378/378
f 373/373/373 380/380/380 372/372/372
f 380/380/380 373/373/373 377/377/377
f 377/377/377 379/379/379 381/381/381
f 381/381/381 380/380/380 377/377/377
f 379/379/379 382/382/382 381/381/381
f 381/381/381 382/382/382 383/383/383
f 372/372/372 380/380/380 384/384/384
f 384/384/384 380/380/380 381/381/381
f 385/385/385 372/372/372 384/384/384
f 385/385/385 384/384/384 386/386/386
f 387/387/387 381/381/381 383/383/383
f 387/387/387 384/384/384 381/381/381
f 384/384/384 387/387/387 386/386/386
f 387/387/387 383/383/383 388/388/388
f 386/386/386 387/387/387 388/388/388
