g tb_geo_meeple_p2c3_a_mesh
v 0.4920962 1.5761703 -0.75598377
v 1.7177894 1.3585979 -0.21542442
v 0.48394632 1.5095628 -0.21542484
v 1.7259393 1.4252053 -0.75598335
v 0.32050413 1.9674798 -1.726119
v 1.7837603 1.5395855 -0.8653238
v 0.27381843 1.647374 -0.9093884
v 1.830446 1.8596913 -1.6820544
v -0.79951876 1.850685 -1.0485483
v -0.51819354 1.7972327 0.04485476
v -1.017831 1.8298776 -0.06540108
v -0.2998813 1.8180401 -0.9382925
v -0.09504405 2.0248318 -1.8083712
v 0.3826538 1.7463458 -1.1762923
v -0.27387777 1.8938533 -1.4500079
v 0.56148756 1.8773242 -1.5346556
v -0.42951992 1.8342701 -0.6102891
v -0.3305864 1.8165823 -0.25840482
v -0.499386 1.8276112 -0.2956541
v -0.2607203 1.8232412 -0.57303977
vt 0 0
vt 1 1
vt 1 0
vt 0 1
vt 0 0
vt 1 1
vt 1 0
vt 0 1
vt 0 0
vt 1 1
vt 1 0
vt 0 1
vt 0 0
vt 1 1
vt 1 0
vt 0 1
vt 0 0
vt 1 1
vt 1 0
vt 0 1
vn 0.12052263 0.98503685 0.123193145
vn 0.12052263 0.98503685 0.123193145
vn 0.12052263 0.98503685 0.123193145
vn 0.12052263 0.98503685 0.123193145
vn 0.055570323 0.92852116 0.36709705
vn 0.055570323 0.92852116 0.36709705
vn 0.055570323 0.92852116 0.36709705
vn 0.055570323 0.92852116 0.36709705
vn 0.05770338 0.997757 0.033929896
vn 0.05770338 0.997757 0.033929896
vn 0.05770338 0.997757 0.033929896
vn 0.05770338 0.997757 0.033929896
vn 0.05557038 0.92852116 0.36709723
vn 0.05557038 0.92852116 0.36709723
vn 0.05557038 0.92852116 0.36709723
vn 0.05557038 0.92852116 0.36709723
vn 0.057703376 0.997757 0.033929933
vn 0.057703376 0.997757 0.033929933
vn 0.057703376 0.997757 0.033929933
vn 0.057703376 0.997757 0.033929933
g tb_geo_meeple_p2c3_a_mesh_0
f 3/3/3 2/2/2 1/1/1
f 4/4/4 1/1/1 2/2/2
f 7/7/7 6/6/6 5/5/5
f 8/8/8 5/5/5 6/6/6
f 11/11/11 10/10/10 9/9/9
f 12/12/12 9/9/9 10/10/10
f 15/15/15 14/14/14 13/13/13
f 16/16/16 13/13/13 14/14/14
f 19/19/19 18/18/18 17/17/17
f 20/20/20 17/17/17 18/18/18
