g tb_geo_outline_05_mesh
v 0.023771152 0.046438426 0.19065271
v 0.050336942 0.046438426 0.2172185
v 0.04654184 0.048335984 0.22101359
v 0.021873608 0.047387198 0.19539659
v -0.014179975 0.054977432 0.19065271
v -0.014179975 0.05592622 0.19539659
v 0.1955 0.17072837 0.7418928
v 0.1955 0.18875514 0.7751
v 0.19075611 0.18590881 0.7703561
v 0.19075611 0.17072837 0.7418928
v 0.18506344 0.18306248 0.76466346
v 0.1955 0.15459915 0.7115319
v 0.18506344 0.17072837 0.7418928
v 0.19075611 0.15459915 0.7115319
v 0.18506344 0.15459915 0.7115319
v 0.1955 0.13846989 0.6821198
v 0.18506344 0.13846989 0.6821198
v 0.19075611 0.13846989 0.6821198
v 0.1955 0.12139191 0.65175885
v 0.19075611 0.12139191 0.65175885
v 0.18506344 0.12139191 0.65175885
v -0.5502396 0.026514083 0.43164235
v -0.53600794 0.028411642 0.41646188
v -0.5322128 0.029360414 0.42025697
v -0.54834205 0.027462855 0.43638623
v -0.5454957 0.028411642 0.4411301
v -0.5284177 0.031257972 0.42405212
v -0.75232935 0.17167713 0.7703561
v -0.7570732 0.17452349 0.7751
v -0.7570732 0.1688308 0.76466346
v -0.75232935 0.1688308 0.76466346
v -0.7466367 0.1688308 0.76466346
v -0.75232935 0.13941868 0.71722454
v -0.7466367 0.13941868 0.71722454
v -0.57016397 0.17072837 0.7703561
v -0.75232935 0.17167713 0.7703561
v -0.5673176 0.16788204 0.76466346
v -0.57301027 0.1735747 0.7751
v -0.7570732 0.17452349 0.7751
v -0.32158405 0.18116494 0.7751
v -0.32158405 0.17831858 0.7703561
v -0.32063532 0.17547224 0.76466346
v -0.1735747 0.1735747 0.7751
v -0.17452349 0.17072837 0.7703561
v -0.17547224 0.16788204 0.76466346
v -0.03220676 0.17072837 0.7751
v -0.03505309 0.16788204 0.7703561
v -0.03789942 0.16503568 0.76466346
v 0.1955 0.18875514 0.7751
v 0.18506344 0.18306248 0.76466346
v 0.19075611 0.18590881 0.7703561
v 0.19075611 0.03220676 0.38325465
v 0.1955 0.03315553 0.36617666
v 0.1955 0.03315553 0.38325465
v 0.19075611 0.03220676 0.36902297
v 0.17178054 0.031257972 0.34245718
v 0.16893421 0.031257972 0.34625232
v 0.16513911 0.031257972 0.34909862
v 0.19075611 0.03220676 0.36902297
v 0.18506344 0.03220676 0.37092054
v 0.18506344 0.03315553 0.38325465
v 0.19075611 0.03220676 0.38325465
v 0.1955 0.03600186 0.41076922
v 0.19075611 0.036950648 0.41076922
v 0.19075611 0.03220676 0.38325465
v 0.1955 0.03315553 0.38325465
v 0.1955 0.09482612 0.621398
v 0.1955 0.12139191 0.65175885
v 0.19075611 0.12139191 0.65175885
v 0.19075611 0.095774874 0.621398
v 0.18506344 0.12139191 0.65175885
v 0.18506344 0.095774874 0.621398
v 0.1955 0.09482612 0.621398
v 0.19075611 0.08249201 0.59103703
v 0.1955 0.08249201 0.59103703
v 0.19075611 0.095774874 0.621398
v 0.18506344 0.095774874 0.621398
v 0.18506344 0.08154322 0.59103703
v 0.19075611 0.08249201 0.59103703
v 0.1955 0.06826033 0.53126407
v 0.1955 0.08249201 0.59103703
v 0.19075611 0.06731154 0.53126407
v 0.18506344 0.06731154 0.53126407
v 0.18506344 0.08154322 0.59103703
v 0.19075611 0.04264331 0.4411301
v 0.1955 0.03600186 0.41076922
v 0.1955 0.041694537 0.4411301
v 0.19075611 0.036950648 0.41076922
v 0.18506344 0.03789942 0.41076922
v 0.18506344 0.043592095 0.4411301
v 0.1955 0.050233543 0.47054225
v 0.19075611 0.04264331 0.4411301
v 0.1955 0.041694537 0.4411301
v 0.19075611 0.051182315 0.47054225
v 0.18506344 0.051182315 0.47054225
v 0.18506344 0.043592095 0.4411301
v 0.19075611 0.06636275 0.51228845
v 0.1955 0.050233543 0.47054225
v 0.1955 0.065414 0.51228845
v 0.19075611 0.051182315 0.47054225
v 0.18506344 0.06636275 0.51228845
v 0.18506344 0.051182315 0.47054225
v 0.1955 0.06826033 0.53126407
v 0.19075611 0.06636275 0.51228845
v 0.1955 0.065414 0.51228845
v 0.19075611 0.06731154 0.53126407
v 0.18506344 0.06731154 0.53126407
v 0.18506344 0.06636275 0.51228845
v 0.17178054 0.031257972 0.34245718
v 0.1347782 0.034104303 0.3111475
v 0.13857332 0.03220676 0.30830115
v 0.16893421 0.031257972 0.34625232
v 0.16513911 0.031257972 0.34909862
v 0.13193187 0.03600186 0.3149426
v 0.1347782 0.034104303 0.3111475
v 0.10726363 0.036950648 0.27604276
v 0.13857332 0.03220676 0.30830115
v 0.10346852 0.038848206 0.27888906
v 0.13193187 0.03600186 0.3149426
v 0.07310762 0.043592095 0.24093793
v 0.09967341 0.04074575 0.2826842
v 0.06931251 0.044540867 0.24378426
v 0.050336942 0.046438426 0.2172185
v 0.065517396 0.046438426 0.24757938
v 0.04654184 0.048335984 0.22101359
v 0.043695495 0.050233543 0.22480871
v -0.23998918 0.062567666 0.19539659
v -0.28932565 0.057823762 0.19065271
v -0.23998918 0.059721306 0.19065271
v -0.28932565 0.05877255 0.19539659
v -0.23998918 0.06446521 0.20014049
v -0.28932565 0.060670093 0.20014049
v -0.12044312 0.06161888 0.19539659
v -0.18306248 0.060670093 0.19065271
v -0.12044312 0.059721306 0.19065271
v -0.18306248 0.062567666 0.19539659
v -0.23998918 0.059721306 0.19065271
v -0.23998918 0.062567666 0.19539659
v -0.18306248 0.06446521 0.20014049
v -0.23998918 0.06446521 0.20014049
v -0.07110666 0.057823762 0.19539659
v -0.12044312 0.06161888 0.19539659
v -0.12044312 0.059721306 0.19065271
v -0.07110666 0.056874976 0.19065271
v -0.014179975 0.05592622 0.19539659
v -0.014179975 0.054977432 0.19065271
v -0.07110666 0.057823762 0.19539659
v -0.014179975 0.057823762 0.20014049
v -0.07110666 0.059721306 0.20014049
v -0.12044312 0.062567666 0.20014049
v -0.12044312 0.06161888 0.19539659
v -0.31019872 0.054977432 0.19065271
v -0.34340596 0.06161888 0.23145016
v -0.3472011 0.059721306 0.22765504
v -0.30735242 0.056874976 0.19539659
v -0.28932565 0.057823762 0.19065271
v -0.28932565 0.05877255 0.19539659
v -0.28932565 0.060670093 0.20014049
v -0.30545485 0.057823762 0.20014049
v -0.33961087 0.062567666 0.23429649
v -0.5028007 0.03600186 0.38325465
v -0.5322128 0.029360414 0.42025697
v -0.53600794 0.028411642 0.41646188
v -0.49900556 0.03789942 0.38704973
v -0.49521047 0.04074575 0.39084488
v -0.5284177 0.031257972 0.42405212
v -0.46105444 0.049284756 0.34245718
v -0.49900556 0.03789942 0.38704973
v -0.5028007 0.03600186 0.38325465
v -0.45820814 0.052131087 0.34625232
v -0.454413 0.054977432 0.34909862
v -0.49521047 0.04074575 0.39084488
v -0.46105444 0.049284756 0.34245718
v -0.40033263 0.057823762 0.28078663
v -0.39653754 0.059721306 0.28458172
v -0.45820814 0.052131087 0.34625232
v -0.454413 0.054977432 0.34909862
v -0.39274246 0.06161888 0.28837687
v -0.3642791 0.059721306 0.25137448
v -0.40033263 0.057823762 0.28078663
v -0.36807418 0.05877255 0.24852817
v -0.39653754 0.059721306 0.28458172
v -0.360484 0.06161888 0.25516963
v -0.39274246 0.06161888 0.28837687
v -0.3472011 0.059721306 0.22765504
v -0.3642791 0.059721306 0.25137448
v -0.36807418 0.05877255 0.24852817
v -0.34340596 0.06161888 0.23145016
v -0.360484 0.06161888 0.25516963
v -0.33961087 0.062567666 0.23429649
v -0.60906386 0.017975077 0.43638623
v -0.60906386 0.017975077 0.43164235
v -0.5502396 0.026514083 0.43164235
v -0.54834205 0.027462855 0.43638623
v -0.5454957 0.028411642 0.4411301
v -0.60906386 0.018923864 0.4411301
v -0.60906386 0.017975077 0.43164235
v -0.6584003 0.014179975 0.43638623
v -0.6584003 0.014179975 0.43164235
v -0.60906386 0.017975077 0.43638623
v -0.60906386 0.018923864 0.4411301
v -0.6584003 0.015128747 0.4411301
v -0.6584003 0.014179975 0.43638623
v -0.7096343 0.014179975 0.43164235
v -0.6584003 0.014179975 0.43164235
v -0.7096343 0.015128747 0.43638623
v -0.6584003 0.015128747 0.4411301
v -0.7096343 0.016077518 0.4411301
v -0.7570732 0.13846989 0.71722454
v -0.75232935 0.1688308 0.76466346
v -0.7570732 0.1688308 0.76466346
v -0.75232935 0.13941868 0.71722454
v -0.75232935 0.10810901 0.6716832
v -0.7466367 0.13941868 0.71722454
v -0.7466367 0.10905777 0.6716832
v -0.75232935 0.015128747 0.4781325
v -0.7570732 0.024616525 0.5530859
v -0.7570732 0.014179975 0.4781325
v -0.75232935 0.025565311 0.5530859
v -0.7570732 0.028411642 0.57775414
v -0.75232935 0.028411642 0.57775414
v -0.7466367 0.026514083 0.5530859
v -0.7466367 0.016077518 0.4781325
v -0.7466367 0.029360414 0.57775414
v -0.7570732 0.13846989 0.71722454
v -0.7570732 0.107160226 0.6716832
v -0.75232935 0.10810901 0.6716832
v -0.75232935 0.13941868 0.71722454
v -0.75232935 0.10810901 0.6716832
v -0.7570732 0.107160226 0.6716832
v -0.7570732 0.06351642 0.62329555
v -0.75232935 0.06446521 0.62329555
v -0.7466367 0.065414 0.62329555
v -0.7466367 0.10905777 0.6716832
v -0.7570732 0.028411642 0.57775414
v -0.75232935 0.06446521 0.62329555
v -0.7570732 0.06351642 0.62329555
v -0.75232935 0.028411642 0.57775414
v -0.7466367 0.029360414 0.57775414
v -0.7466367 0.065414 0.62329555
v 0.19075611 0.03220676 0.38325465
v 0.19075611 0.036950648 0.41076922
v 0.18506344 0.03789942 0.41076922
v 0.18506344 0.03315553 0.38325465
v -0.75232935 0.015128747 0.4781325
v -0.7466367 0.009436071 0.4411301
v -0.7466367 0.016077518 0.4781325
v -0.75232935 0.0075385273 0.43638623
v -0.7570732 0.014179975 0.4781325
v -0.7570732 0.004692182 0.43164235
v -0.7096343 0.014179975 0.43164235
v -0.7096343 0.015128747 0.43638623
v -0.7096343 0.016077518 0.4411301
v -0.18306248 0.062567666 0.19539659
v -0.12044312 0.06161888 0.19539659
v -0.12044312 0.062567666 0.20014049
v -0.18306248 0.06446521 0.20014049
v 0.01997605 0.049284756 0.20014049
v -0.014179975 0.057823762 0.20014049
v -0.014179975 0.05592622 0.19539659
v 0.021873608 0.047387198 0.19539659
v 0.04654184 0.048335984 0.22101359
v 0.043695495 0.050233543 0.22480871
v 0.050336942 0.009436071 0.2172185
v 0.023771152 0.046438426 0.19065271
v 0.023771152 0.010384858 0.19065271
v 0.050336942 0.046438426 0.2172185
v 0.07310762 0.0065897405 0.24093793
v 0.07310762 0.043592095 0.24093793
v 0.10726363 0.0008970797 0.27604276
v 0.10726363 0.036950648 0.27604276
v 0.13857332 -0.0038468242 0.30830115
v 0.13857332 0.03220676 0.30830115
v 0.17178054 -0.004795596 0.34245718
v 0.17178054 0.031257972 0.34245718
v 0.1955 -0.0038468242 0.36617666
v 0.1955 0.03315553 0.36617666
v 0.1955 0.16218935 0.7751
v 0.1955 0.18875514 0.7751
v 0.1955 0.17072837 0.7418928
v 0.1955 0.13372602 0.7418928
v 0.1955 0.15459915 0.7115319
v 0.1955 0.11759679 0.7115319
v 0.1955 0.13846989 0.6821198
v 0.1955 0.10241632 0.6821198
v 0.1955 0.12139191 0.65175885
v 0.1955 0.08438955 0.65175885
v 0.1955 0.09482612 0.621398
v 0.1955 0.05877255 0.621398
v 0.1955 0.08249201 0.59103703
v 0.1955 0.046438426 0.59103703
v 0.1955 0.06826033 0.53126407
v 0.1955 0.031257972 0.53126407
v 0.1955 0.065414 0.51228845
v 0.1955 0.029360414 0.51228845
v 0.1955 0.050233543 0.47054225
v 0.1955 0.014179975 0.47054225
v 0.1955 0.041694537 0.4411301
v 0.1955 0.004692182 0.4411301
v 0.1955 0.03600186 0.41076922
v 0.1955 -0.0010004789 0.41076922
v 0.1955 0.03315553 0.38325465
v 0.1955 -0.0038468242 0.38325465
v 0.1955 0.03315553 0.36617666
v 0.1955 -0.0038468242 0.36617666
v -0.53600794 -0.008590713 0.41646188
v -0.5502396 0.026514083 0.43164235
v -0.5502396 -0.009539485 0.43164235
v -0.53600794 0.028411642 0.41646188
v -0.5028007 -5.170703E-05 0.38325465
v -0.5028007 0.03600186 0.38325465
v -0.46105444 0.012282416 0.34245718
v -0.46105444 0.049284756 0.34245718
v -0.40033263 0.020821422 0.28078663
v -0.40033263 0.057823762 0.28078663
v -0.36807418 0.022718966 0.24852817
v -0.36807418 0.05877255 0.24852817
v -0.3472011 0.023667753 0.22765504
v -0.3472011 0.059721306 0.22765504
v -0.31019872 0.017975077 0.19065271
v -0.31019872 0.054977432 0.19065271
v -0.28932565 0.020821422 0.19065271
v -0.31019872 0.054977432 0.19065271
v -0.31019872 0.017975077 0.19065271
v -0.28932565 0.057823762 0.19065271
v -0.23998918 0.023667753 0.19065271
v -0.23998918 0.059721306 0.19065271
v -0.18306248 0.023667753 0.19065271
v -0.18306248 0.060670093 0.19065271
v -0.12044312 0.023667753 0.19065271
v -0.12044312 0.059721306 0.19065271
v -0.07110666 0.019872636 0.19065271
v -0.07110666 0.056874976 0.19065271
v -0.014179975 0.017975077 0.19065271
v -0.014179975 0.054977432 0.19065271
v 0.023771152 0.010384858 0.19065271
v 0.023771152 0.046438426 0.19065271
v -0.7570732 0.142265 0.76466346
v -0.7570732 0.17452349 0.7751
v -0.7570732 0.1479577 0.7751
v -0.7570732 0.1688308 0.76466346
v -0.7570732 0.101467565 0.71722454
v -0.7570732 0.13846989 0.71722454
v -0.7570732 0.07110666 0.6716832
v -0.7570732 0.107160226 0.6716832
v -0.7570732 0.027462855 0.62329555
v -0.7570732 0.06351642 0.62329555
v -0.7570732 -0.008590713 0.57775414
v -0.7570732 0.028411642 0.57775414
v -0.7570732 -0.011437044 0.5530859
v -0.7570732 0.024616525 0.5530859
v -0.7570732 -0.02282238 0.4781325
v -0.7570732 0.014179975 0.4781325
v -0.7570732 -0.031361386 0.43164235
v -0.7570732 0.004692182 0.43164235
v -0.7096343 -0.021873608 0.43164235
v -0.7570732 0.004692182 0.43164235
v -0.7570732 -0.031361386 0.43164235
v -0.7096343 0.014179975 0.43164235
v -0.6584003 -0.02282238 0.43164235
v -0.6584003 0.014179975 0.43164235
v -0.60906386 -0.018078491 0.43164235
v -0.60906386 0.017975077 0.43164235
v -0.5502396 -0.009539485 0.43164235
v -0.5502396 0.026514083 0.43164235
v -0.7570732 0.1479577 0.7751
v -0.7570732 0.17452349 0.7751
v -0.57301027 0.1735747 0.7751
v -0.57301027 0.14606012 0.7751
v -0.32158405 0.15459915 0.7751
v -0.32158405 0.18116494 0.7751
v -0.1735747 0.14700891 0.7751
v -0.1735747 0.1735747 0.7751
v -0.03220676 0.14416258 0.7751
v -0.03220676 0.17072837 0.7751
v 0.1955 0.16218935 0.7751
v 0.1955 0.18875514 0.7751
v 0.18506344 -0.0038468242 0.37092054
v 0.18506344 0.03220676 0.37092054
v 0.18506344 0.03315553 0.38325465
v 0.18506344 -0.0038468242 0.38325465
v 0.18506344 0.03789942 0.41076922
v 0.18506344 0.0008970797 0.41076922
v 0.18506344 0.043592095 0.4411301
v 0.18506344 0.0075385273 0.4411301
v 0.18506344 0.051182315 0.47054225
v 0.18506344 0.015128747 0.47054225
v 0.18506344 0.06636275 0.51228845
v 0.18506344 0.0303092 0.51228845
v 0.18506344 0.06731154 0.53126407
v 0.18506344 0.0303092 0.53126407
v 0.18506344 0.08154322 0.59103703
v 0.18506344 0.045489654 0.59103703
v 0.18506344 0.095774874 0.621398
v 0.18506344 0.05877255 0.621398
v 0.18506344 0.12139191 0.65175885
v 0.18506344 0.08533834 0.65175885
v 0.18506344 0.13846989 0.6821198
v 0.18506344 0.10241632 0.6821198
v 0.18506344 0.15459915 0.7115319
v 0.18506344 0.11759679 0.7115319
v 0.18506344 0.17072837 0.7418928
v 0.18506344 0.13372602 0.7418928
v 0.18506344 0.18306248 0.76466346
v 0.18506344 0.16693325 0.76466346
v -0.5673176 0.16788204 0.76466346
v -0.7466367 0.1688308 0.76466346
v -0.7466367 0.15270157 0.76466346
v -0.5673176 0.15080403 0.76466346
v -0.32063532 0.17547224 0.76466346
v -0.32063532 0.15839423 0.76466346
v -0.17547224 0.16788204 0.76466346
v -0.17547224 0.15175278 0.76466346
v -0.03789942 0.16503568 0.76466346
v -0.03789942 0.14890645 0.76466346
v 0.18506344 0.16693325 0.76466346
v 0.18506344 0.18306248 0.76466346
v -0.7466367 0.15270157 0.76466346
v -0.7466367 0.1688308 0.76466346
v -0.7466367 0.13941868 0.71722454
v -0.7466367 0.10241632 0.71722454
v -0.7466367 0.10905777 0.6716832
v -0.7466367 0.072055444 0.6716832
v -0.7466367 0.065414 0.62329555
v -0.7466367 0.029360414 0.62329555
v -0.7466367 0.029360414 0.57775414
v -0.7466367 -0.0066931546 0.57775414
v -0.7466367 0.026514083 0.5530859
v -0.7466367 -0.010488257 0.5530859
v -0.7466367 0.016077518 0.4781325
v -0.7466367 -0.020924821 0.4781325
v -0.7466367 0.009436071 0.4411301
v -0.7466367 -0.027566269 0.4411301
v -0.7466367 -0.027566269 0.4411301
v -0.7466367 0.009436071 0.4411301
v -0.7096343 0.016077518 0.4411301
v -0.7096343 -0.020924821 0.4411301
v -0.6584003 0.015128747 0.4411301
v -0.6584003 -0.020924821 0.4411301
v -0.60906386 0.018923864 0.4411301
v -0.60906386 -0.017129704 0.4411301
v -0.5454957 0.028411642 0.4411301
v -0.5454957 -0.0076419264 0.4411301
v -0.5454957 -0.0076419264 0.4411301
v -0.5454957 0.028411642 0.4411301
v -0.5284177 0.031257972 0.42405212
v -0.5284177 -0.005744368 0.42405212
v -0.49521047 0.04074575 0.39084488
v -0.49521047 0.00374341 0.39084488
v -0.454413 0.054977432 0.34909862
v -0.454413 0.017975077 0.34909862
v -0.39274246 0.06161888 0.28837687
v -0.39274246 0.025565311 0.28837687
v -0.360484 0.06161888 0.25516963
v -0.360484 0.024616525 0.25516963
v -0.33961087 0.062567666 0.23429649
v -0.33961087 0.036950648 0.23429649
v -0.30545485 0.057823762 0.20014049
v -0.30545485 0.03220676 0.20014049
v -0.30545485 0.03220676 0.20014049
v -0.30545485 0.057823762 0.20014049
v -0.28932565 0.060670093 0.20014049
v -0.28932565 0.034104303 0.20014049
v -0.23998918 0.06446521 0.20014049
v -0.23998918 0.03789942 0.20014049
v -0.18306248 0.06446521 0.20014049
v -0.18306248 0.03789942 0.20014049
v -0.12044312 0.062567666 0.20014049
v -0.12044312 0.03600186 0.20014049
v -0.07110666 0.059721306 0.20014049
v -0.07110666 0.03315553 0.20014049
v -0.014179975 0.057823762 0.20014049
v -0.014179975 0.031257972 0.20014049
v 0.01997605 0.049284756 0.20014049
v 0.01997605 0.022718966 0.20014049
v 0.01997605 0.022718966 0.20014049
v 0.01997605 0.049284756 0.20014049
v 0.043695495 0.050233543 0.22480871
v 0.043695495 0.023667753 0.22480871
v 0.065517396 0.046438426 0.24757938
v 0.065517396 0.020821422 0.24757938
v 0.09967341 0.04074575 0.2826842
v 0.09967341 0.004692182 0.2826842
v 0.13193187 0.03600186 0.3149426
v 0.13193187 -5.170703E-05 0.3149426
v 0.16513911 0.031257972 0.34909862
v 0.16513911 -0.004795596 0.34909862
v 0.18506344 0.03220676 0.37092054
v 0.18506344 -0.0038468242 0.37092054
vt 0.5091479 0.3780081
vt 0.5180387 0.36022642
vt 0.515816 0.3580037
vt 0.50692517 0.37356266
vt 0.49581164 0.3780081
vt 0.49581164 0.37356266
vt 0.5669383 0.022374783
vt 0.5669383 0.00014770031
vt 0.56471556 0.0023704085
vt 0.56471556 0.022374783
vt 0.56249285 0.006815825
vt 0.5669383 0.040156446
vt 0.56249285 0.022374783
vt 0.56471556 0.040156446
vt 0.56249285 0.040156446
vt 0.5669383 0.060160823
vt 0.56249285 0.060160823
vt 0.56471556 0.060160823
vt 0.5669383 0.08016519
vt 0.56471556 0.08016519
vt 0.56249285 0.08016519
vt 0.31132686 0.22241852
vt 0.31577227 0.23130935
vt 0.31799498 0.22908664
vt 0.31132686 0.2179731
vt 0.31354955 0.2157504
vt 0.31799498 0.22686394
vt 0.2424229 0.0023704085
vt 0.24020019 0.00014770031
vt 0.24020019 0.006815825
vt 0.2424229 0.006815825
vt 0.2446456 0.006815825
vt 0.2424229 0.03793374
vt 0.2446456 0.03793374
vt 0.3046587 0.0023704085
vt 0.2424229 0.0023704085
vt 0.30688143 0.006815825
vt 0.3046587 0.00014770031
vt 0.24020019 0.00014770031
vt 0.38912162 0.00014770031
vt 0.38912162 0.0023704085
vt 0.38912162 0.006815825
vt 0.44024393 0.00014770031
vt 0.44024393 0.0023704085
vt 0.44024393 0.006815825
vt 0.4891435 0.00014770031
vt 0.4869208 0.0023704085
vt 0.4869208 0.006815825
vt 0.5669383 0.00014770031
vt 0.56249285 0.006815825
vt 0.56471556 0.0023704085
vt 0.56471556 0.25353643
vt 0.5669383 0.26465
vt 0.5669383 0.25353643
vt 0.56471556 0.26242727
vt 0.5580475 0.28020895
vt 0.5580475 0.27798623
vt 0.55582476 0.2757635
vt 0.56471556 0.26242727
vt 0.56249285 0.26020455
vt 0.56249285 0.25353643
vt 0.56471556 0.25353643
vt 0.5669383 0.23575477
vt 0.56471556 0.23575477
vt 0.56471556 0.25353643
vt 0.5669383 0.25353643
vt 0.5669383 0.10016957
vt 0.5669383 0.08016519
vt 0.56471556 0.08016519
vt 0.56471556 0.10016957
vt 0.56249285 0.08016519
vt 0.56249285 0.10016957
vt 0.5669383 0.10016957
vt 0.56471556 0.11795124
vt 0.5669383 0.11795124
vt 0.56471556 0.10016957
vt 0.56249285 0.10016957
vt 0.56249285 0.11795124
vt 0.56471556 0.11795124
vt 0.5669383 0.15795998
vt 0.5669383 0.11795124
vt 0.56471556 0.15795998
vt 0.56249285 0.15795998
vt 0.56249285 0.11795124
vt 0.56471556 0.2157504
vt 0.5669383 0.23575477
vt 0.5669383 0.2157504
vt 0.56471556 0.23575477
vt 0.56249285 0.23575477
vt 0.56249285 0.2157504
vt 0.5669383 0.19574602
vt 0.56471556 0.2157504
vt 0.5669383 0.2157504
vt 0.56471556 0.19574602
vt 0.56249285 0.19574602
vt 0.56249285 0.2157504
vt 0.56471556 0.16907352
vt 0.5669383 0.19574602
vt 0.5669383 0.16907352
vt 0.56471556 0.19574602
vt 0.56249285 0.16907352
vt 0.56249285 0.19574602
vt 0.5669383 0.15795998
vt 0.56471556 0.16907352
vt 0.5669383 0.16907352
vt 0.56471556 0.15795998
vt 0.56249285 0.15795998
vt 0.56249285 0.16907352
vt 0.5580475 0.28020895
vt 0.5469339 0.2979906
vt 0.5469339 0.30243602
vt 0.5580475 0.27798623
vt 0.55582476 0.2757635
vt 0.54471123 0.2957679
vt 0.5469339 0.2979906
vt 0.53582036 0.3224404
vt 0.5469339 0.30243602
vt 0.53582036 0.32021767
vt 0.54471123 0.2957679
vt 0.52470684 0.34466746
vt 0.53359765 0.31799498
vt 0.52470684 0.34244478
vt 0.5180387 0.36022642
vt 0.5224841 0.34022206
vt 0.515816 0.3580037
vt 0.515816 0.35578102
vt 0.41801685 0.37356266
vt 0.40023518 0.3780081
vt 0.41801685 0.3780081
vt 0.40023518 0.37356266
vt 0.41801685 0.37133998
vt 0.40023518 0.37133998
vt 0.45802557 0.37356266
vt 0.4380212 0.3780081
vt 0.45802557 0.3780081
vt 0.4380212 0.37356266
vt 0.41801685 0.3780081
vt 0.41801685 0.37356266
vt 0.4380212 0.37133998
vt 0.41801685 0.37133998
vt 0.47580725 0.37356266
vt 0.45802557 0.37356266
vt 0.45802557 0.3780081
vt 0.47580725 0.3780081
vt 0.49581164 0.37356266
vt 0.49581164 0.3780081
vt 0.47580725 0.37356266
vt 0.49581164 0.37133998
vt 0.47580725 0.37133998
vt 0.45802557 0.37133998
vt 0.45802557 0.37356266
vt 0.39356706 0.3780081
vt 0.3824535 0.3513356
vt 0.3802308 0.3535583
vt 0.39356706 0.37356266
vt 0.40023518 0.3780081
vt 0.40023518 0.37356266
vt 0.40023518 0.37133998
vt 0.39578977 0.37133998
vt 0.38467622 0.3491129
vt 0.32688582 0.25353643
vt 0.31799498 0.22908664
vt 0.31577227 0.23130935
vt 0.3291085 0.25131372
vt 0.33133122 0.24909101
vt 0.31799498 0.22686394
vt 0.34244478 0.28020895
vt 0.3291085 0.25131372
vt 0.32688582 0.25353643
vt 0.34244478 0.27798623
vt 0.34466746 0.2757635
vt 0.33133122 0.24909101
vt 0.34244478 0.28020895
vt 0.36244914 0.31799498
vt 0.36467186 0.31577227
vt 0.34244478 0.27798623
vt 0.34466746 0.2757635
vt 0.36467186 0.31354955
vt 0.37578538 0.33799934
vt 0.36244914 0.31799498
vt 0.37356266 0.34022206
vt 0.36467186 0.31577227
vt 0.37578538 0.33577663
vt 0.36467186 0.31354955
vt 0.3802308 0.3535583
vt 0.37578538 0.33799934
vt 0.37356266 0.34022206
vt 0.3824535 0.3513356
vt 0.37578538 0.33577663
vt 0.38467622 0.3491129
vt 0.29132247 0.2179731
vt 0.29132247 0.22241852
vt 0.31132686 0.22241852
vt 0.31132686 0.2179731
vt 0.31354955 0.2157504
vt 0.29132247 0.2157504
vt 0.29132247 0.22241852
vt 0.2757635 0.2179731
vt 0.2757635 0.22241852
vt 0.29132247 0.2179731
vt 0.29132247 0.2157504
vt 0.2757635 0.2157504
vt 0.2757635 0.2179731
vt 0.25798184 0.22241852
vt 0.2757635 0.22241852
vt 0.25798184 0.2179731
vt 0.2757635 0.2157504
vt 0.25798184 0.2157504
vt 0.24020019 0.03793374
vt 0.2424229 0.006815825
vt 0.24020019 0.006815825
vt 0.2424229 0.03793374
vt 0.2424229 0.066828944
vt 0.2446456 0.03793374
vt 0.2446456 0.066828944
vt 0.2424229 0.1913006
vt 0.24020019 0.14240102
vt 0.24020019 0.1913006
vt 0.2424229 0.14240102
vt 0.24020019 0.12684207
vt 0.2424229 0.12684207
vt 0.2446456 0.14240102
vt 0.2446456 0.1913006
vt 0.2446456 0.12684207
vt 0.24020019 0.03793374
vt 0.24020019 0.066828944
vt 0.2424229 0.066828944
vt 0.2424229 0.03793374
vt 0.2424229 0.066828944
vt 0.24020019 0.066828944
vt 0.24020019 0.09794686
vt 0.2424229 0.09794686
vt 0.2446456 0.09794686
vt 0.2446456 0.066828944
vt 0.24020019 0.12684207
vt 0.2424229 0.09794686
vt 0.24020019 0.09794686
vt 0.2424229 0.12684207
vt 0.2446456 0.12684207
vt 0.2446456 0.09794686
vt 0.56471556 0.25353643
vt 0.56471556 0.23575477
vt 0.56249285 0.23575477
vt 0.56249285 0.25353643
vt 0.2424229 0.1913006
vt 0.2446456 0.2157504
vt 0.2446456 0.1913006
vt 0.2424229 0.2179731
vt 0.24020019 0.1913006
vt 0.24020019 0.22241852
vt 0.25798184 0.22241852
vt 0.25798184 0.2179731
vt 0.25798184 0.2157504
vt 0.4380212 0.37356266
vt 0.45802557 0.37356266
vt 0.45802557 0.37133998
vt 0.4380212 0.37133998
vt 0.50692517 0.37133998
vt 0.49581164 0.37133998
vt 0.49581164 0.37356266
vt 0.50692517 0.37356266
vt 0.515816 0.3580037
vt 0.515816 0.35578102
vt 0.5180387 0.36022642
vt 0.5091479 0.3780081
vt 0.5091479 0.3780081
vt 0.5180387 0.36022642
vt 0.52470684 0.34466746
vt 0.52470684 0.34466746
vt 0.53582036 0.3224404
vt 0.53582036 0.3224404
vt 0.5469339 0.30243602
vt 0.5469339 0.30243602
vt 0.5580475 0.28020895
vt 0.5580475 0.28020895
vt 0.5669383 0.26465
vt 0.5669383 0.26465
vt 0.5669383 0.00014770031
vt 0.5669383 0.00014770031
vt 0.5669383 0.022374783
vt 0.5669383 0.022374783
vt 0.5669383 0.040156446
vt 0.5669383 0.040156446
vt 0.5669383 0.060160823
vt 0.5669383 0.060160823
vt 0.5669383 0.08016519
vt 0.5669383 0.08016519
vt 0.5669383 0.10016957
vt 0.5669383 0.10016957
vt 0.5669383 0.11795124
vt 0.5669383 0.11795124
vt 0.5669383 0.15795998
vt 0.5669383 0.15795998
vt 0.5669383 0.16907352
vt 0.5669383 0.16907352
vt 0.5669383 0.19574602
vt 0.5669383 0.19574602
vt 0.5669383 0.2157504
vt 0.5669383 0.2157504
vt 0.5669383 0.23575477
vt 0.5669383 0.23575477
vt 0.5669383 0.25353643
vt 0.5669383 0.25353643
vt 0.5669383 0.26465
vt 0.5669383 0.26465
vt 0.31577227 0.23130935
vt 0.31132686 0.22241852
vt 0.31132686 0.22241852
vt 0.31577227 0.23130935
vt 0.32688582 0.25353643
vt 0.32688582 0.25353643
vt 0.34244478 0.28020895
vt 0.34244478 0.28020895
vt 0.36244914 0.31799498
vt 0.36244914 0.31799498
vt 0.37356266 0.34022206
vt 0.37356266 0.34022206
vt 0.3802308 0.3535583
vt 0.3802308 0.3535583
vt 0.39356706 0.3780081
vt 0.39356706 0.3780081
vt 0.40023518 0.3780081
vt 0.39356706 0.3780081
vt 0.39356706 0.3780081
vt 0.40023518 0.3780081
vt 0.41801685 0.3780081
vt 0.41801685 0.3780081
vt 0.4380212 0.3780081
vt 0.4380212 0.3780081
vt 0.45802557 0.3780081
vt 0.45802557 0.3780081
vt 0.47580725 0.3780081
vt 0.47580725 0.3780081
vt 0.49581164 0.3780081
vt 0.49581164 0.3780081
vt 0.5091479 0.3780081
vt 0.5091479 0.3780081
vt 0.24020019 0.006815825
vt 0.24020019 0.00014770031
vt 0.24020019 0.00014770031
vt 0.24020019 0.006815825
vt 0.24020019 0.03793374
vt 0.24020019 0.03793374
vt 0.24020019 0.066828944
vt 0.24020019 0.066828944
vt 0.24020019 0.09794686
vt 0.24020019 0.09794686
vt 0.24020019 0.12684207
vt 0.24020019 0.12684207
vt 0.24020019 0.14240102
vt 0.24020019 0.14240102
vt 0.24020019 0.1913006
vt 0.24020019 0.1913006
vt 0.24020019 0.22241852
vt 0.24020019 0.22241852
vt 0.25798184 0.22241852
vt 0.24020019 0.22241852
vt 0.24020019 0.22241852
vt 0.25798184 0.22241852
vt 0.2757635 0.22241852
vt 0.2757635 0.22241852
vt 0.29132247 0.22241852
vt 0.29132247 0.22241852
vt 0.31132686 0.22241852
vt 0.31132686 0.22241852
vt 0.24020019 0.00014770031
vt 0.24020019 0.00014770031
vt 0.3046587 0.00014770031
vt 0.3046587 0.00014770031
vt 0.38912162 0.00014770031
vt 0.38912162 0.00014770031
vt 0.44024393 0.00014770031
vt 0.44024393 0.00014770031
vt 0.4891435 0.00014770031
vt 0.4891435 0.00014770031
vt 0.5669383 0.00014770031
vt 0.5669383 0.00014770031
vt 0.56249285 0.26020455
vt 0.56249285 0.26020455
vt 0.56249285 0.25353643
vt 0.56249285 0.25353643
vt 0.56249285 0.23575477
vt 0.56249285 0.23575477
vt 0.56249285 0.2157504
vt 0.56249285 0.2157504
vt 0.56249285 0.19574602
vt 0.56249285 0.19574602
vt 0.56249285 0.16907352
vt 0.56249285 0.16907352
vt 0.56249285 0.15795998
vt 0.56249285 0.15795998
vt 0.56249285 0.11795124
vt 0.56249285 0.11795124
vt 0.56249285 0.10016957
vt 0.56249285 0.10016957
vt 0.56249285 0.08016519
vt 0.56249285 0.08016519
vt 0.56249285 0.060160823
vt 0.56249285 0.060160823
vt 0.56249285 0.040156446
vt 0.56249285 0.040156446
vt 0.56249285 0.022374783
vt 0.56249285 0.022374783
vt 0.56249285 0.006815825
vt 0.56249285 0.006815825
vt 0.30688143 0.006815825
vt 0.2446456 0.006815825
vt 0.2446456 0.006815825
vt 0.30688143 0.006815825
vt 0.38912162 0.006815825
vt 0.38912162 0.006815825
vt 0.44024393 0.006815825
vt 0.44024393 0.006815825
vt 0.4869208 0.006815825
vt 0.4869208 0.006815825
vt 0.56249285 0.006815825
vt 0.56249285 0.006815825
vt 0.2446456 0.006815825
vt 0.2446456 0.006815825
vt 0.2446456 0.03793374
vt 0.2446456 0.03793374
vt 0.2446456 0.066828944
vt 0.2446456 0.066828944
vt 0.2446456 0.09794686
vt 0.2446456 0.09794686
vt 0.2446456 0.12684207
vt 0.2446456 0.12684207
vt 0.2446456 0.14240102
vt 0.2446456 0.14240102
vt 0.2446456 0.1913006
vt 0.2446456 0.1913006
vt 0.2446456 0.2157504
vt 0.2446456 0.2157504
vt 0.2446456 0.2157504
vt 0.2446456 0.2157504
vt 0.25798184 0.2157504
vt 0.25798184 0.2157504
vt 0.2757635 0.2157504
vt 0.2757635 0.2157504
vt 0.29132247 0.2157504
vt 0.29132247 0.2157504
vt 0.31354955 0.2157504
vt 0.31354955 0.2157504
vt 0.31354955 0.2157504
vt 0.31354955 0.2157504
vt 0.31799498 0.22686394
vt 0.31799498 0.22686394
vt 0.33133122 0.24909101
vt 0.33133122 0.24909101
vt 0.34466746 0.2757635
vt 0.34466746 0.2757635
vt 0.36467186 0.31354955
vt 0.36467186 0.31354955
vt 0.37578538 0.33577663
vt 0.37578538 0.33577663
vt 0.38467622 0.3491129
vt 0.38467622 0.3491129
vt 0.39578977 0.37133998
vt 0.39578977 0.37133998
vt 0.39578977 0.37133998
vt 0.39578977 0.37133998
vt 0.40023518 0.37133998
vt 0.40023518 0.37133998
vt 0.41801685 0.37133998
vt 0.41801685 0.37133998
vt 0.4380212 0.37133998
vt 0.4380212 0.37133998
vt 0.45802557 0.37133998
vt 0.45802557 0.37133998
vt 0.47580725 0.37133998
vt 0.47580725 0.37133998
vt 0.49581164 0.37133998
vt 0.49581164 0.37133998
vt 0.50692517 0.37133998
vt 0.50692517 0.37133998
vt 0.50692517 0.37133998
vt 0.50692517 0.37133998
vt 0.515816 0.35578102
vt 0.515816 0.35578102
vt 0.5224841 0.34022206
vt 0.5224841 0.34022206
vt 0.53359765 0.31799498
vt 0.53359765 0.31799498
vt 0.54471123 0.2957679
vt 0.54471123 0.2957679
vt 0.55582476 0.2757635
vt 0.55582476 0.2757635
vt 0.56249285 0.26020455
vt 0.56249285 0.26020455
vn 0.17458117 0.968132 -0.17956008
vn 0.17458117 0.968132 -0.17956008
vn 0.17458117 0.968132 -0.17956008
vn 0.17458117 0.968132 -0.17956008
vn 0.23806524 0.968132 -0.07775179
vn 0.23806524 0.968132 -0.07775179
vn -0.015871048 0.87290585 -0.4876305
vn -0.015871048 0.87290585 -0.4876305
vn -0.015871048 0.87290585 -0.4876305
vn -0.015871048 0.87290585 -0.4876305
vn -0.015871048 0.87290585 -0.4876305
vn -0.015871048 0.87290585 -0.4876305
vn -0.015871048 0.87290585 -0.4876305
vn -0.015871048 0.87290585 -0.4876305
vn -0.015871048 0.87290585 -0.4876305
vn -0.015871048 0.87290585 -0.4876305
vn 0.015870988 0.87290585 -0.4876305
vn -0.015871048 0.87290585 -0.4876305
vn 0.015870988 0.87290585 -0.4876305
vn 0.015870988 0.87290585 -0.4876305
vn 0.015870988 0.87290585 -0.4876305
vn -0.20632327 0.968132 -0.1419547
vn -0.20632327 0.968132 -0.1419547
vn -0.20632327 0.968132 -0.1419547
vn -0.20632327 0.968132 -0.1419547
vn -0.23806524 0.968132 -0.07775179
vn -0.23806524 0.968132 -0.07775179
vn -0.047613025 0.8411639 -0.5386802
vn -0.047613025 0.8411639 -0.5386802
vn -0.047613025 0.8411639 -0.5386802
vn -0.047613025 0.8411639 -0.5386802
vn 0.015870988 0.87290585 -0.4876305
vn -0.015871048 0.8411639 -0.5405474
vn -0.015871048 0.8411639 -0.5405474
vn -0.015871048 0.87290585 -0.4876305
vn 0.015870988 0.87290585 -0.4876305
vn -0.015871048 0.87290585 -0.4876305
vn -0.015871048 0.87290585 -0.4876305
vn 0.015870988 0.87290585 -0.4876305
vn -0.015871048 0.87290585 -0.4876305
vn 0.015870988 0.87290585 -0.4876305
vn 0.015870988 0.87290585 -0.4876305
vn 0.015870988 0.87290585 -0.4876305
vn 0.015870988 0.87290585 -0.4876305
vn 0.047613025 0.87290585 -0.48555985
vn -0.047613025 0.90464795 -0.42349154
vn -0.015871048 0.87290585 -0.4876305
vn -0.015871048 0.87290585 -0.4876305
vn -0.07935512 0.90464795 -0.41870615
vn -0.07935512 0.90464795 -0.41870615
vn -0.07935512 0.90464795 -0.41870615
vn -0.04756513 0.99886817 -0
vn -0.04756513 0.99886817 -0
vn -0.04756513 0.99886817 -0
vn -0.04756513 0.99886817 -0
vn -0.04756513 0.99886817 -0
vn -0.04756513 0.99886817 -0
vn -0.04756513 0.99886817 -0
vn -0.015871048 0.999874 -0.00034526698
vn -0.015871048 0.999874 -0.00034526698
vn -0.015871048 0.999874 -0.00034526698
vn -0.015871048 0.999874 -0.00034526698
vn 0.079116285 0.9968654 -0
vn 0.079116285 0.9968654 -0
vn 0.079116285 0.9968654 -0
vn 0.079116285 0.9968654 -0
vn 0.047613025 0.7459378 -0.66431147
vn 0.047613025 0.7459378 -0.66431147
vn 0.047613025 0.7459378 -0.66431147
vn 0.047613025 0.7459378 -0.66431147
vn 0.047613025 0.7459378 -0.66431147
vn 0.047613025 0.7459378 -0.66431147
vn -0.015871048 0.90464795 -0.42586404
vn -0.015871048 0.90464795 -0.42586404
vn -0.015871048 0.90464795 -0.42586404
vn -0.015871048 0.90464795 -0.42586404
vn -0.047613025 0.90464795 -0.42349154
vn -0.047613025 0.90464795 -0.42349154
vn -0.1110971 0.968132 -0.2244501
vn -0.1110971 0.968132 -0.2244501
vn -0.1110971 0.968132 -0.2244501
vn -0.1110971 0.968132 -0.2244501
vn -0.1110971 0.968132 -0.2244501
vn -0.1110971 0.968132 -0.2244501
vn 0.2063232 0.968132 -0.1419547
vn 0.2063232 0.968132 -0.1419547
vn 0.2063232 0.968132 -0.1419547
vn 0.2063232 0.968132 -0.1419547
vn 0.2063232 0.968132 -0.1419547
vn 0.2063232 0.968132 -0.1419547
vn 0.14283913 0.9363899 -0.32057896
vn 0.14283913 0.9363899 -0.32057896
vn 0.14283913 0.9363899 -0.32057896
vn 0.14283913 0.9363899 -0.32057896
vn 0.14283913 0.968132 -0.20571192
vn 0.14283913 0.968132 -0.20571192
vn 0.07935506 0.9363899 -0.34187227
vn 0.07935506 0.9363899 -0.34187227
vn 0.07935506 0.9363899 -0.34187227
vn 0.07935506 0.9363899 -0.34187227
vn 0.07935506 0.9363899 -0.34187227
vn 0.07935506 0.9363899 -0.34187227
vn -0.015871048 0.999874 -0.00034526698
vn -0.015871048 0.999874 -0.00034526698
vn -0.015871048 0.999874 -0.00034526698
vn -0.015871048 0.999874 -0.00034526698
vn -0.015871048 0.999874 -0.00034526698
vn -0.015871048 0.999874 -0.00034526698
vn 0.14142135 0.98994946 -0
vn 0.14142135 0.98994946 -0
vn 0.14142135 0.98994946 -0
vn 0.14142135 0.98994946 -0
vn 0.17458117 0.968132 -0.17956008
vn 0.17458117 0.968132 -0.17956008
vn 0.30154932 0.9363899 -0.17956024
vn 0.30154932 0.9363899 -0.17956024
vn 0.30154932 0.9363899 -0.17956024
vn 0.30154932 0.9363899 -0.17956024
vn 0.30154932 0.9363899 -0.17956024
vn 0.30154932 0.9363899 -0.17956024
vn 0.30154932 0.9363899 -0.17956024
vn 0.30154932 0.9363899 -0.17956024
vn 0.30154932 0.9363899 -0.17956024
vn 0.30154932 0.9363899 -0.17956024
vn 0.30154932 0.9363899 -0.17956024
vn 0.30154932 0.9363899 -0.17956024
vn -0.047613025 0.9363899 -0.3477167
vn -0.047613025 0.9363899 -0.3477167
vn -0.047613025 0.9363899 -0.3477167
vn -0.047613025 0.9363899 -0.3477167
vn -0.07935512 0.9363899 -0.34187227
vn -0.07935512 0.9363899 -0.34187227
vn 0.015870988 0.9363899 -0.35060233
vn -0.015871048 0.9363899 -0.35060233
vn 0.015870988 0.9363899 -0.35060233
vn -0.015871048 0.9363899 -0.35060233
vn -0.015871048 0.9363899 -0.35060233
vn -0.015871048 0.9363899 -0.35060233
vn 0.015870988 0.9363899 -0.35060233
vn 0.015870988 0.9363899 -0.35060233
vn 0.047613025 0.9363899 -0.3477167
vn 0.047613025 0.9363899 -0.3477167
vn 0.047613025 0.9363899 -0.3477167
vn 0.047613025 0.9363899 -0.3477167
vn 0.047613025 0.968132 -0.24587277
vn 0.047613025 0.968132 -0.24587277
vn 0.047613025 0.968132 -0.24587277
vn 0.047613025 0.968132 -0.24587277
vn 0.047613025 0.968132 -0.24587277
vn 0.047613025 0.968132 -0.24587277
vn 0.047613025 0.968132 -0.24587277
vn -0.1428392 0.9363899 -0.32057896
vn -0.1428392 0.9363899 -0.32057896
vn -0.1428392 0.9363899 -0.32057896
vn -0.1428392 0.9363899 -0.32057896
vn -0.1428392 0.9363899 -0.32057896
vn -0.1428392 0.9363899 -0.32057896
vn -0.1428392 0.9363899 -0.32057896
vn -0.1428392 0.9363899 -0.32057896
vn -0.1428392 0.9363899 -0.32057896
vn -0.3332913 0.9363899 -0.10995819
vn -0.3332913 0.9363899 -0.10995819
vn -0.3332913 0.9363899 -0.10995819
vn -0.3332913 0.9363899 -0.10995819
vn -0.36320823 0.931708 -0
vn -0.36320823 0.931708 -0
vn -0.42851746 0.87290585 -0.2332555
vn -0.42851746 0.87290585 -0.2332555
vn -0.42851746 0.87290585 -0.2332555
vn -0.42851746 0.87290585 -0.2332555
vn -0.46025944 0.87290585 -0.16185382
vn -0.46025944 0.87290585 -0.16185382
vn -0.39677536 0.87290585 -0.28390962
vn -0.39677536 0.87290585 -0.28390962
vn -0.39677536 0.87290585 -0.28390962
vn -0.39677536 0.87290585 -0.28390962
vn -0.3650334 0.87290585 -0.32370663
vn -0.3650334 0.87290585 -0.32370663
vn -0.23806524 0.9363899 -0.25787365
vn -0.23806524 0.9363899 -0.25787365
vn -0.23806524 0.9363899 -0.25787365
vn -0.23806524 0.9363899 -0.25787365
vn -0.23806524 0.9363899 -0.25787365
vn -0.23806524 0.9363899 -0.25787365
vn -0.20632327 0.968132 -0.1419547
vn -0.20632327 0.968132 -0.1419547
vn -0.20632327 0.968132 -0.1419547
vn -0.20632327 0.968132 -0.1419547
vn -0.23806524 0.968132 -0.07775179
vn -0.23806524 0.968132 -0.07775179
vn -0.1428392 0.968132 -0.20571192
vn -0.1428392 0.968132 -0.20571192
vn -0.1428392 0.968132 -0.20571192
vn -0.1428392 0.968132 -0.20571192
vn -0.1428392 0.968132 -0.20571192
vn -0.1428392 0.968132 -0.20571192
vn -0.079116344 0.9968654 -0
vn -0.079116344 0.9968654 -0
vn -0.079116344 0.9968654 -0
vn -0.079116344 0.9968654 -0
vn -0.079116344 0.9968654 -0
vn -0.079116344 0.9968654 -0
vn 0.015870988 0.999874 -0.00034526698
vn 0.015870988 0.999874 -0.00034526698
vn 0.015870988 0.999874 -0.00034526698
vn 0.015870988 0.999874 -0.00034526698
vn 0.015870988 0.999874 -0.00034526698
vn 0.015870988 0.999874 -0.00034526698
vn -0.07935512 0.8411639 -0.53492624
vn -0.07935512 0.8411639 -0.53492624
vn -0.07935512 0.8411639 -0.53492624
vn -0.07935512 0.8411639 -0.53492624
vn -0.07935512 0.8411639 -0.53492624
vn -0.07935512 0.8411639 -0.53492624
vn -0.07935512 0.8411639 -0.53492624
vn -0.17458117 0.968132 -0.17956008
vn -0.17458117 0.968132 -0.17956008
vn -0.17458117 0.968132 -0.17956008
vn -0.17458117 0.968132 -0.17956008
vn -0.1428392 0.968132 -0.20571192
vn -0.1428392 0.968132 -0.20571192
vn -0.1428392 0.968132 -0.20571192
vn -0.17458117 0.968132 -0.17956008
vn -0.1428392 0.968132 -0.20571192
vn -0.1428392 0.8094218 -0.56959057
vn -0.1428392 0.8094218 -0.56959057
vn -0.1428392 0.8094218 -0.56959057
vn -0.1428392 0.8094218 -0.56959057
vn -0.1110971 0.7459378 -0.6566842
vn -0.1110971 0.7459378 -0.6566842
vn -0.1110971 0.7459378 -0.6566842
vn -0.1110971 0.7459378 -0.6566842
vn -0.1110971 0.7459378 -0.6566842
vn -0.1110971 0.7459378 -0.6566842
vn -0.1110971 0.7776798 -0.6187662
vn -0.1110971 0.7776798 -0.6187662
vn -0.1110971 0.7776798 -0.6187662
vn -0.1110971 0.7776798 -0.6187662
vn -0.1110971 0.7776798 -0.6187662
vn -0.1110971 0.7776798 -0.6187662
vn 0.1110971 0.968132 -0.2244501
vn 0.1110971 0.968132 -0.2244501
vn 0.1110971 0.968132 -0.2244501
vn 0.1110971 0.968132 -0.2244501
vn -0.20632327 0.968132 -0.1419547
vn -0.20632327 0.968132 -0.1419547
vn -0.20632327 0.968132 -0.1419547
vn -0.17458117 0.968132 -0.17956008
vn -0.20632327 0.968132 -0.1419547
vn -0.17458117 0.968132 -0.17956008
vn -0.17458117 0.968132 -0.17956008
vn -0.17458117 0.968132 -0.17956008
vn -0.17458117 0.968132 -0.17956008
vn 0.015870988 0.968132 -0.24993704
vn 0.015870988 0.968132 -0.24993704
vn 0.015870988 0.968132 -0.24993704
vn 0.015870988 0.968132 -0.24993704
vn 0.23806524 0.9363899 -0.25787365
vn 0.23806524 0.9363899 -0.25787365
vn 0.23806524 0.9363899 -0.25787365
vn 0.23806524 0.9363899 -0.25787365
vn 0.23806524 0.9363899 -0.25787365
vn 0.23806524 0.9363899 -0.25787365
vn 0.7141957 0.015871048 -0.6997661
vn 0.7141957 0.015871048 -0.6997661
vn 0.7141957 0.015871048 -0.6997661
vn 0.7141957 0.015871048 -0.6997661
vn 0.7141957 0.015871048 -0.6997661
vn 0.7141957 0.015871048 -0.6997661
vn 0.7141957 0.015871048 -0.6997661
vn 0.7141957 0.015871048 -0.6997661
vn 0.7141957 0.015871048 -0.6997661
vn 0.7141957 0.015871048 -0.6997661
vn 0.7141957 0.015871048 -0.6997661
vn 0.7141957 0.015871048 -0.6997661
vn 0.7141957 0.015871048 -0.6997661
vn 0.7141957 0.015871048 -0.6997661
vn 0.999874 0.015871048 -0.00034391563
vn 0.999874 0.015871048 -0.00034391563
vn 0.999874 0.015871048 -0.00034391563
vn 0.999874 0.015871048 -0.00034391563
vn 0.999874 0.015871048 -0.00034391563
vn 0.999874 0.015871048 -0.00034391563
vn 0.999874 0.015871048 -0.00034391563
vn 0.999874 0.015871048 -0.00034391563
vn 0.999874 0.015871048 -0.00034391563
vn 0.999874 0.015871048 -0.00034391563
vn 0.999874 0.015871048 -0.00034391563
vn 0.999874 0.015871048 -0.00034391563
vn 0.999874 0.015871048 -0.00034391563
vn 0.999874 0.015871048 -0.00034391563
vn 0.999874 0.015871048 -0.00034391563
vn 0.999874 0.015871048 -0.00034391563
vn 0.999874 0.015871048 -0.00034391563
vn 0.999874 0.015871048 -0.00034391563
vn 0.999874 0.015871048 -0.00034391563
vn 0.999874 0.015871048 -0.00034391563
vn 0.999874 0.015871048 -0.00034391563
vn 0.999874 0.015871048 -0.00034391563
vn 0.999874 0.015871048 -0.00034391563
vn 0.999874 0.015871048 -0.00034391563
vn 0.999874 0.015871048 -0.00034391563
vn 0.999874 0.015871048 -0.00034391563
vn 0.999874 0.015871048 -0.00034391563
vn 0.999874 0.015871048 -0.00034391563
vn -0.7141957 0.015871048 -0.6997661
vn -0.7141957 0.015871048 -0.6997661
vn -0.7141957 0.015871048 -0.6997661
vn -0.7141957 0.015871048 -0.6997661
vn -0.7141957 0.015871048 -0.6997661
vn -0.7141957 0.015871048 -0.6997661
vn -0.7141957 0.015871048 -0.6997661
vn -0.7141957 0.015871048 -0.6997661
vn -0.7141957 0.015871048 -0.6997661
vn -0.7141957 0.015871048 -0.6997661
vn -0.7141957 0.015871048 -0.6997661
vn -0.7141957 0.015871048 -0.6997661
vn -0.7141957 0.015871048 -0.6997661
vn -0.7141957 0.015871048 -0.6997661
vn -0.7141957 0.015871048 -0.6997661
vn -0.7141957 0.015871048 -0.6997661
vn -0.015871048 0.015871048 -0.99974805
vn -0.015871048 0.015871048 -0.99974805
vn -0.015871048 0.015871048 -0.99974805
vn -0.015871048 0.015871048 -0.99974805
vn -0.015871048 0.015871048 -0.99974805
vn -0.015871048 0.015871048 -0.99974805
vn -0.015871048 0.015871048 -0.99974805
vn -0.015871048 0.015871048 -0.99974805
vn -0.015871048 0.015871048 -0.99974805
vn -0.015871048 0.015871048 -0.99974805
vn -0.015871048 0.015871048 -0.99974805
vn -0.015871048 0.015871048 -0.99974805
vn -0.015871048 0.015871048 -0.99974805
vn -0.015871048 0.015871048 -0.99974805
vn -0.015871048 0.015871048 -0.99974805
vn -0.015871048 0.015871048 -0.99974805
vn -0.999874 0.015871048 -0.00034391563
vn -0.999874 0.015871048 -0.00034391563
vn -0.999874 0.015871048 -0.00034391563
vn -0.999874 0.015871048 -0.00034391563
vn -0.999874 0.015871048 -0.00034391563
vn -0.999874 0.015871048 -0.00034391563
vn -0.999874 0.015871048 -0.00034391563
vn -0.999874 0.015871048 -0.00034391563
vn -0.999874 0.015871048 -0.00034391563
vn -0.999874 0.015871048 -0.00034391563
vn -0.999874 0.015871048 -0.00034391563
vn -0.999874 0.015871048 -0.00034391563
vn -0.999874 0.015871048 -0.00034391563
vn -0.999874 0.015871048 -0.00034391563
vn -0.999874 0.015871048 -0.00034391563
vn -0.999874 0.015871048 -0.00034391563
vn -0.999874 0.015871048 -0.00034391563
vn -0.999874 0.015871048 -0.00034391563
vn -0.015871048 0.015871048 -0.99974805
vn -0.015871048 0.015871048 -0.99974805
vn -0.015871048 0.015871048 -0.99974805
vn -0.015871048 0.015871048 -0.99974805
vn -0.015871048 0.015871048 -0.99974805
vn -0.015871048 0.015871048 -0.99974805
vn -0.015871048 0.015871048 -0.99974805
vn -0.015871048 0.015871048 -0.99974805
vn -0.015871048 0.015871048 -0.99974805
vn -0.015871048 0.015871048 -0.99974805
vn -0.015871048 0.015871048 0.99974805
vn -0.015871048 0.015871048 0.99974805
vn -0.015871048 0.015871048 0.99974805
vn -0.015871048 0.015871048 0.99974805
vn -0.015871048 0.015871048 0.99974805
vn -0.015871048 0.015871048 0.99974805
vn -0.015871048 0.015871048 0.99974805
vn -0.015871048 0.015871048 0.99974805
vn -0.015871048 0.015871048 0.99974805
vn -0.015871048 0.015871048 0.99974805
vn -0.015871048 0.015871048 0.99974805
vn -0.015871048 0.015871048 0.99974805
vn -0.999874 0.015871048 -0.00034391563
vn -0.999874 0.015871048 -0.00034391563
vn -0.999874 0.015871048 -0.00034391563
vn -0.999874 0.015871048 -0.00034391563
vn -0.999874 0.015871048 -0.00034391563
vn -0.999874 0.015871048 -0.00034391563
vn -0.999874 0.015871048 -0.00034391563
vn -0.999874 0.015871048 -0.00034391563
vn -0.999874 0.015871048 -0.00034391563
vn -0.999874 0.015871048 -0.00034391563
vn -0.999874 0.015871048 -0.00034391563
vn -0.999874 0.015871048 -0.00034391563
vn -0.999874 0.015871048 -0.00034391563
vn -0.999874 0.015871048 -0.00034391563
vn -0.999874 0.015871048 -0.00034391563
vn -0.999874 0.015871048 -0.00034391563
vn -0.999874 0.015871048 -0.00034391563
vn -0.999874 0.015871048 -0.00034391563
vn -0.999874 0.015871048 -0.00034391563
vn -0.999874 0.015871048 -0.00034391563
vn -0.999874 0.015871048 -0.00034391563
vn -0.999874 0.015871048 -0.00034391563
vn -0.999874 0.015871048 -0.00034391563
vn -0.999874 0.015871048 -0.00034391563
vn -0.999874 0.015871048 -0.00034391563
vn -0.999874 0.015871048 -0.00034391563
vn -0.999874 0.015871048 -0.00034391563
vn -0.999874 0.015871048 -0.00034391563
vn -0.015871048 0.015871048 -0.99974805
vn -0.015871048 0.015871048 -0.99974805
vn -0.015871048 0.015871048 -0.99974805
vn -0.015871048 0.015871048 -0.99974805
vn -0.015871048 0.015871048 -0.99974805
vn -0.015871048 0.015871048 -0.99974805
vn -0.015871048 0.015871048 -0.99974805
vn -0.015871048 0.015871048 -0.99974805
vn -0.015871048 0.015871048 -0.99974805
vn -0.015871048 0.015871048 -0.99974805
vn -0.015871048 0.015871048 -0.99974805
vn -0.015871048 0.015871048 -0.99974805
vn 0.999874 0.015871048 -0.00034391563
vn 0.999874 0.015871048 -0.00034391563
vn 0.999874 0.015871048 -0.00034391563
vn 0.999874 0.015871048 -0.00034391563
vn 0.999874 0.015871048 -0.00034391563
vn 0.999874 0.015871048 -0.00034391563
vn 0.999874 0.015871048 -0.00034391563
vn 0.999874 0.015871048 -0.00034391563
vn 0.999874 0.015871048 -0.00034391563
vn 0.999874 0.015871048 -0.00034391563
vn 0.999874 0.015871048 -0.00034391563
vn 0.999874 0.015871048 -0.00034391563
vn 0.999874 0.015871048 -0.00034391563
vn 0.999874 0.015871048 -0.00034391563
vn 0.999874 0.015871048 -0.00034391563
vn 0.999874 0.015871048 -0.00034391563
vn -0.015871048 0.015871048 0.99974805
vn -0.015871048 0.015871048 0.99974805
vn -0.015871048 0.015871048 0.99974805
vn -0.015871048 0.015871048 0.99974805
vn -0.015871048 0.015871048 0.99974805
vn -0.015871048 0.015871048 0.99974805
vn -0.015871048 0.015871048 0.99974805
vn -0.015871048 0.015871048 0.99974805
vn -0.015871048 0.015871048 0.99974805
vn -0.015871048 0.015871048 0.99974805
vn 0.7141957 0.015871048 0.6997661
vn 0.7141957 0.015871048 0.6997661
vn 0.7141957 0.015871048 0.6997661
vn 0.7141957 0.015871048 0.6997661
vn 0.7141957 0.015871048 0.6997661
vn 0.7141957 0.015871048 0.6997661
vn 0.7141957 0.015871048 0.6997661
vn 0.7141957 0.015871048 0.6997661
vn 0.7141957 0.015871048 0.6997661
vn 0.7141957 0.015871048 0.6997661
vn 0.7141957 0.015871048 0.6997661
vn 0.7141957 0.015871048 0.6997661
vn 0.7141957 0.015871048 0.6997661
vn 0.7141957 0.015871048 0.6997661
vn 0.7141957 0.015871048 0.6997661
vn 0.7141957 0.015871048 0.6997661
vn -0.015871048 0.015871048 0.99974805
vn -0.015871048 0.015871048 0.99974805
vn -0.015871048 0.015871048 0.99974805
vn -0.015871048 0.015871048 0.99974805
vn -0.015871048 0.015871048 0.99974805
vn -0.015871048 0.015871048 0.99974805
vn -0.015871048 0.015871048 0.99974805
vn -0.015871048 0.015871048 0.99974805
vn -0.015871048 0.015871048 0.99974805
vn -0.015871048 0.015871048 0.99974805
vn -0.015871048 0.015871048 0.99974805
vn -0.015871048 0.015871048 0.99974805
vn -0.015871048 0.015871048 0.99974805
vn -0.015871048 0.015871048 0.99974805
vn -0.015871048 0.015871048 0.99974805
vn -0.015871048 0.015871048 0.99974805
vn -0.7141957 0.015871048 0.6997661
vn -0.7141957 0.015871048 0.6997661
vn -0.7141957 0.015871048 0.6997661
vn -0.7141957 0.015871048 0.6997661
vn -0.7141957 0.015871048 0.6997661
vn -0.7141957 0.015871048 0.6997661
vn -0.7141957 0.015871048 0.6997661
vn -0.7141957 0.015871048 0.6997661
vn -0.7141957 0.015871048 0.6997661
vn -0.7141957 0.015871048 0.6997661
vn -0.7141957 0.015871048 0.6997661
vn -0.7141957 0.015871048 0.6997661
vn -0.7141957 0.015871048 0.6997661
vn -0.7141957 0.015871048 0.6997661
g tb_geo_outline_05_mesh_0
f 3/3/3 2/2/2 1/1/1
f 4/4/4 3/3/3 1/1/1
f 4/4/4 1/1/1 5/5/5
f 6/6/6 4/4/4 5/5/5
f 9/9/9 8/8/8 7/7/7
f 10/10/10 9/9/9 7/7/7
f 11/11/11 9/9/9 10/10/10
f 7/7/7 12/12/12 10/10/10
f 13/13/13 11/11/11 10/10/10
f 12/12/12 14/14/14 10/10/10
f 13/13/13 10/10/10 14/14/14
f 15/15/15 13/13/13 14/14/14
f 14/14/14 12/12/12 16/16/16
f 15/15/15 14/14/14 17/17/17
f 18/18/18 14/14/14 16/16/16
f 14/14/14 18/18/18 17/17/17
f 16/16/16 19/19/19 18/18/18
f 19/19/19 20/20/20 18/18/18
f 17/17/17 18/18/18 20/20/20
f 21/21/21 17/17/17 20/20/20
f 24/24/24 23/23/23 22/22/22
f 25/25/25 24/24/24 22/22/22
f 24/24/24 25/25/25 26/26/26
f 27/27/27 24/24/24 26/26/26
f 30/30/30 29/29/29 28/28/28
f 31/31/31 30/30/30 28/28/28
f 31/31/31 28/28/28 32/32/32
f 33/33/33 31/31/31 32/32/32
f 34/34/34 33/33/33 32/32/32
f 32/32/32 36/36/36 35/35/35
f 37/37/37 32/32/32 35/35/35
f 35/35/35 36/36/36 38/38/38
f 36/36/36 39/39/39 38/38/38
f 35/35/35 38/38/38 40/40/40
f 37/37/37 35/35/35 41/41/41
f 41/41/41 35/35/35 40/40/40
f 42/42/42 37/37/37 41/41/41
f 41/41/41 40/40/40 43/43/43
f 42/42/42 41/41/41 44/44/44
f 44/44/44 41/41/41 43/43/43
f 45/45/45 42/42/42 44/44/44
f 44/44/44 43/43/43 46/46/46
f 45/45/45 44/44/44 47/47/47
f 47/47/47 44/44/44 46/46/46
f 48/48/48 45/45/45 47/47/47
f 47/47/47 46/46/46 49/49/49
f 48/48/48 47/47/47 50/50/50
f 51/51/51 47/47/47 49/49/49
f 47/47/47 51/51/51 50/50/50
f 54/54/54 53/53/53 52/52/52
f 53/53/53 55/55/55 52/52/52
f 53/53/53 56/56/56 55/55/55
f 56/56/56 57/57/57 55/55/55
f 59/59/59 57/57/57 58/58/58
f 60/60/60 59/59/59 58/58/58
f 60/60/60 61/61/61 59/59/59
f 61/61/61 62/62/62 59/59/59
f 65/65/65 64/64/64 63/63/63
f 66/66/66 65/65/65 63/63/63
f 69/69/69 68/68/68 67/67/67
f 70/70/70 69/69/69 67/67/67
f 69/69/69 70/70/70 71/71/71
f 70/70/70 72/72/72 71/71/71
f 75/75/75 74/74/74 73/73/73
f 74/74/74 76/76/76 73/73/73
f 77/77/77 76/76/76 74/74/74
f 78/78/78 77/77/77 74/74/74
f 81/81/81 80/80/80 79/79/79
f 80/80/80 82/82/82 79/79/79
f 82/82/82 83/83/83 79/79/79
f 83/83/83 84/84/84 79/79/79
f 87/87/87 86/86/86 85/85/85
f 86/86/86 88/88/88 85/85/85
f 88/88/88 89/89/89 85/85/85
f 89/89/89 90/90/90 85/85/85
f 93/93/93 92/92/92 91/91/91
f 92/92/92 94/94/94 91/91/91
f 95/95/95 94/94/94 92/92/92
f 96/96/96 95/95/95 92/92/92
f 99/99/99 98/98/98 97/97/97
f 98/98/98 100/100/100 97/97/97
f 101/101/101 97/97/97 100/100/100
f 102/102/102 101/101/101 100/100/100
f 105/105/105 104/104/104 103/103/103
f 104/104/104 106/106/106 103/103/103
f 107/107/107 106/106/106 104/104/104
f 108/108/108 107/107/107 104/104/104
f 111/111/111 110/110/110 109/109/109
f 110/110/110 112/112/112 109/109/109
f 112/112/112 110/110/110 113/113/113
f 110/110/110 114/114/114 113/113/113
f 117/117/117 116/116/116 115/115/115
f 116/116/116 118/118/118 115/115/115
f 119/119/119 115/115/115 118/118/118
f 116/116/116 120/120/120 118/118/118
f 121/121/121 119/119/119 118/118/118
f 120/120/120 122/122/122 118/118/118
f 121/121/121 118/118/118 122/122/122
f 120/120/120 123/123/123 122/122/122
f 124/124/124 121/121/121 122/122/122
f 123/123/123 125/125/125 122/122/122
f 124/124/124 122/122/122 125/125/125
f 126/126/126 124/124/124 125/125/125
f 129/129/129 128/128/128 127/127/127
f 128/128/128 130/130/130 127/127/127
f 131/131/131 127/127/127 130/130/130
f 132/132/132 131/131/131 130/130/130
f 135/135/135 134/134/134 133/133/133
f 134/134/134 136/136/136 133/133/133
f 136/136/136 134/134/134 137/137/137
f 138/138/138 136/136/136 137/137/137
f 139/139/139 136/136/136 138/138/138
f 140/140/140 139/139/139 138/138/138
f 143/143/143 142/142/142 141/141/141
f 144/144/144 143/143/143 141/141/141
f 144/144/144 141/141/141 145/145/145
f 146/146/146 144/144/144 145/145/145
f 148/148/148 145/145/145 147/147/147
f 149/149/149 148/148/148 147/147/147
f 149/149/149 147/147/147 150/150/150
f 147/147/147 151/151/151 150/150/150
f 154/154/154 153/153/153 152/152/152
f 153/153/153 155/155/155 152/152/152
f 152/152/152 155/155/155 156/156/156
f 155/155/155 157/157/157 156/156/156
f 158/158/158 157/157/157 155/155/155
f 159/159/159 158/158/158 155/155/155
f 159/159/159 155/155/155 153/153/153
f 160/160/160 159/159/159 153/153/153
f 163/163/163 162/162/162 161/161/161
f 162/162/162 164/164/164 161/161/161
f 165/165/165 164/164/164 162/162/162
f 166/166/166 165/165/165 162/162/162
f 169/169/169 168/168/168 167/167/167
f 168/168/168 170/170/170 167/167/167
f 171/171/171 170/170/170 168/168/168
f 172/172/172 171/171/171 168/168/168
f 175/175/175 174/174/174 173/173/173
f 176/176/176 175/175/175 173/173/173
f 175/175/175 176/176/176 177/177/177
f 178/178/178 175/175/175 177/177/177
f 181/181/181 180/180/180 179/179/179
f 180/180/180 182/182/182 179/179/179
f 183/183/183 179/179/179 182/182/182
f 184/184/184 183/183/183 182/182/182
f 187/187/187 186/186/186 185/185/185
f 186/186/186 188/188/188 185/185/185
f 186/186/186 189/189/189 188/188/188
f 189/189/189 190/190/190 188/188/188
f 193/193/193 192/192/192 191/191/191
f 194/194/194 193/193/193 191/191/191
f 194/194/194 191/191/191 195/195/195
f 191/191/191 196/196/196 195/195/195
f 199/199/199 198/198/198 197/197/197
f 198/198/198 200/200/200 197/197/197
f 201/201/201 200/200/200 198/198/198
f 202/202/202 201/201/201 198/198/198
f 205/205/205 204/204/204 203/203/203
f 204/204/204 206/206/206 203/203/203
f 207/207/207 203/203/203 206/206/206
f 208/208/208 207/207/207 206/206/206
f 211/211/211 210/210/210 209/209/209
f 210/210/210 212/212/212 209/209/209
f 212/212/212 214/214/214 213/213/213
f 214/214/214 215/215/215 213/213/213
f 218/218/218 217/217/217 216/216/216
f 217/217/217 219/219/219 216/216/216
f 217/217/217 220/220/220 219/219/219
f 220/220/220 221/221/221 219/219/219
f 216/216/216 219/219/219 222/222/222
f 222/222/222 219/219/219 221/221/221
f 223/223/223 216/216/216 222/222/222
f 224/224/224 222/222/222 221/221/221
f 227/227/227 226/226/226 225/225/225
f 228/228/228 227/227/227 225/225/225
f 231/231/231 230/230/230 229/229/229
f 232/232/232 231/231/231 229/229/229
f 233/233/233 232/232/232 229/229/229
f 234/234/234 233/233/233 229/229/229
f 237/237/237 236/236/236 235/235/235
f 236/236/236 238/238/238 235/235/235
f 238/238/238 236/236/236 239/239/239
f 236/236/236 240/240/240 239/239/239
f 243/243/243 242/242/242 241/241/241
f 244/244/244 243/243/243 241/241/241
f 247/247/247 246/246/246 245/245/245
f 246/246/246 248/248/248 245/245/245
f 245/245/245 248/248/248 249/249/249
f 248/248/248 250/250/250 249/249/249
f 250/250/250 248/248/248 251/251/251
f 248/248/248 252/252/252 251/251/251
f 248/248/248 246/246/246 252/252/252
f 246/246/246 253/253/253 252/252/252
f 256/256/256 255/255/255 254/254/254
f 257/257/257 256/256/256 254/254/254
f 260/260/260 259/259/259 258/258/258
f 261/261/261 260/260/260 258/258/258
f 261/261/261 258/258/258 262/262/262
f 258/258/258 263/263/263 262/262/262
f 266/266/266 265/265/265 264/264/264
f 265/265/265 267/267/267 264/264/264
f 264/264/264 267/267/267 268/268/268
f 267/267/267 269/269/269 268/268/268
f 268/268/268 269/269/269 270/270/270
f 269/269/269 271/271/271 270/270/270
f 270/270/270 271/271/271 272/272/272
f 271/271/271 273/273/273 272/272/272
f 272/272/272 273/273/273 274/274/274
f 273/273/273 275/275/275 274/274/274
f 274/274/274 275/275/275 276/276/276
f 275/275/275 277/277/277 276/276/276
f 280/280/280 279/279/279 278/278/278
f 281/281/281 280/280/280 278/278/278
f 282/282/282 280/280/280 281/281/281
f 283/283/283 282/282/282 281/281/281
f 284/284/284 282/282/282 283/283/283
f 285/285/285 284/284/284 283/283/283
f 286/286/286 284/284/284 285/285/285
f 287/287/287 286/286/286 285/285/285
f 288/288/288 286/286/286 287/287/287
f 289/289/289 288/288/288 287/287/287
f 290/290/290 288/288/288 289/289/289
f 291/291/291 290/290/290 289/289/289
f 292/292/292 290/290/290 291/291/291
f 293/293/293 292/292/292 291/291/291
f 294/294/294 292/292/292 293/293/293
f 295/295/295 294/294/294 293/293/293
f 296/296/296 294/294/294 295/295/295
f 297/297/297 296/296/296 295/295/295
f 298/298/298 296/296/296 297/297/297
f 299/299/299 298/298/298 297/297/297
f 300/300/300 298/298/298 299/299/299
f 301/301/301 300/300/300 299/299/299
f 302/302/302 300/300/300 301/301/301
f 303/303/303 302/302/302 301/301/301
f 304/304/304 302/302/302 303/303/303
f 305/305/305 304/304/304 303/303/303
f 308/308/308 307/307/307 306/306/306
f 307/307/307 309/309/309 306/306/306
f 306/306/306 309/309/309 310/310/310
f 309/309/309 311/311/311 310/310/310
f 310/310/310 311/311/311 312/312/312
f 311/311/311 313/313/313 312/312/312
f 312/312/312 313/313/313 314/314/314
f 313/313/313 315/315/315 314/314/314
f 314/314/314 315/315/315 316/316/316
f 315/315/315 317/317/317 316/316/316
f 316/316/316 317/317/317 318/318/318
f 317/317/317 319/319/319 318/318/318
f 318/318/318 319/319/319 320/320/320
f 319/319/319 321/321/321 320/320/320
f 324/324/324 323/323/323 322/322/322
f 323/323/323 325/325/325 322/322/322
f 322/322/322 325/325/325 326/326/326
f 325/325/325 327/327/327 326/326/326
f 326/326/326 327/327/327 328/328/328
f 327/327/327 329/329/329 328/328/328
f 328/328/328 329/329/329 330/330/330
f 329/329/329 331/331/331 330/330/330
f 330/330/330 331/331/331 332/332/332
f 331/331/331 333/333/333 332/332/332
f 332/332/332 333/333/333 334/334/334
f 333/333/333 335/335/335 334/334/334
f 334/334/334 335/335/335 336/336/336
f 335/335/335 337/337/337 336/336/336
f 340/340/340 339/339/339 338/338/338
f 339/339/339 341/341/341 338/338/338
f 338/338/338 341/341/341 342/342/342
f 341/341/341 343/343/343 342/342/342
f 342/342/342 343/343/343 344/344/344
f 343/343/343 345/345/345 344/344/344
f 344/344/344 345/345/345 346/346/346
f 345/345/345 347/347/347 346/346/346
f 346/346/346 347/347/347 348/348/348
f 347/347/347 349/349/349 348/348/348
f 348/348/348 349/349/349 350/350/350
f 349/349/349 351/351/351 350/350/350
f 350/350/350 351/351/351 352/352/352
f 351/351/351 353/353/353 352/352/352
f 352/352/352 353/353/353 354/354/354
f 353/353/353 355/355/355 354/354/354
f 358/358/358 357/357/357 356/356/356
f 357/357/357 359/359/359 356/356/356
f 356/356/356 359/359/359 360/360/360
f 359/359/359 361/361/361 360/360/360
f 360/360/360 361/361/361 362/362/362
f 361/361/361 363/363/363 362/362/362
f 362/362/362 363/363/363 364/364/364
f 363/363/363 365/365/365 364/364/364
f 368/368/368 367/367/367 366/366/366
f 369/369/369 368/368/368 366/366/366
f 369/369/369 370/370/370 368/368/368
f 370/370/370 371/371/371 368/368/368
f 370/370/370 372/372/372 371/371/371
f 372/372/372 373/373/373 371/371/371
f 372/372/372 374/374/374 373/373/373
f 374/374/374 375/375/375 373/373/373
f 374/374/374 376/376/376 375/375/375
f 376/376/376 377/377/377 375/375/375
f 380/380/380 379/379/379 378/378/378
f 381/381/381 380/380/380 378/378/378
f 382/382/382 380/380/380 381/381/381
f 383/383/383 382/382/382 381/381/381
f 384/384/384 382/382/382 383/383/383
f 385/385/385 384/384/384 383/383/383
f 386/386/386 384/384/384 385/385/385
f 387/387/387 386/386/386 385/385/385
f 388/388/388 386/386/386 387/387/387
f 389/389/389 388/388/388 387/387/387
f 390/390/390 388/388/388 389/389/389
f 391/391/391 390/390/390 389/389/389
f 392/392/392 390/390/390 391/391/391
f 393/393/393 392/392/392 391/391/391
f 394/394/394 392/392/392 393/393/393
f 395/395/395 394/394/394 393/393/393
f 396/396/396 394/394/394 395/395/395
f 397/397/397 396/396/396 395/395/395
f 398/398/398 396/396/396 397/397/397
f 399/399/399 398/398/398 397/397/397
f 400/400/400 398/398/398 399/399/399
f 401/401/401 400/400/400 399/399/399
f 402/402/402 400/400/400 401/401/401
f 403/403/403 402/402/402 401/401/401
f 404/404/404 402/402/402 403/403/403
f 405/405/405 404/404/404 403/403/403
f 408/408/408 407/407/407 406/406/406
f 409/409/409 408/408/408 406/406/406
f 409/409/409 406/406/406 410/410/410
f 411/411/411 409/409/409 410/410/410
f 411/411/411 410/410/410 412/412/412
f 413/413/413 411/411/411 412/412/412
f 413/413/413 412/412/412 414/414/414
f 415/415/415 413/413/413 414/414/414
f 415/415/415 414/414/414 416/416/416
f 414/414/414 417/417/417 416/416/416
f 420/420/420 419/419/419 418/418/418
f 421/421/421 420/420/420 418/418/418
f 422/422/422 420/420/420 421/421/421
f 423/423/423 422/422/422 421/421/421
f 424/424/424 422/422/422 423/423/423
f 425/425/425 424/424/424 423/423/423
f 426/426/426 424/424/424 425/425/425
f 427/427/427 426/426/426 425/425/425
f 428/428/428 426/426/426 427/427/427
f 429/429/429 428/428/428 427/427/427
f 430/430/430 428/428/428 429/429/429
f 431/431/431 430/430/430 429/429/429
f 432/432/432 430/430/430 431/431/431
f 433/433/433 432/432/432 431/431/431
f 436/436/436 435/435/435 434/434/434
f 437/437/437 436/436/436 434/434/434
f 438/438/438 436/436/436 437/437/437
f 439/439/439 438/438/438 437/437/437
f 440/440/440 438/438/438 439/439/439
f 441/441/441 440/440/440 439/439/439
f 442/442/442 440/440/440 441/441/441
f 443/443/443 442/442/442 441/441/441
f 446/446/446 445/445/445 444/444/444
f 447/447/447 446/446/446 444/444/444
f 448/448/448 446/446/446 447/447/447
f 449/449/449 448/448/448 447/447/447
f 450/450/450 448/448/448 449/449/449
f 451/451/451 450/450/450 449/449/449
f 452/452/452 450/450/450 451/451/451
f 453/453/453 452/452/452 451/451/451
f 454/454/454 452/452/452 453/453/453
f 455/455/455 454/454/454 453/453/453
f 456/456/456 454/454/454 455/455/455
f 457/457/457 456/456/456 455/455/455
f 458/458/458 456/456/456 457/457/457
f 459/459/459 458/458/458 457/457/457
f 462/462/462 461/461/461 460/460/460
f 463/463/463 462/462/462 460/460/460
f 464/464/464 462/462/462 463/463/463
f 465/465/465 464/464/464 463/463/463
f 466/466/466 464/464/464 465/465/465
f 467/467/467 466/466/466 465/465/465
f 468/468/468 466/466/466 467/467/467
f 469/469/469 468/468/468 467/467/467
f 470/470/470 468/468/468 469/469/469
f 471/471/471 470/470/470 469/469/469
f 472/472/472 470/470/470 471/471/471
f 473/473/473 472/472/472 471/471/471
f 474/474/474 472/472/472 473/473/473
f 475/475/475 474/474/474 473/473/473
f 478/478/478 477/477/477 476/476/476
f 479/479/479 478/478/478 476/476/476
f 480/480/480 478/478/478 479/479/479
f 481/481/481 480/480/480 479/479/479
f 482/482/482 480/480/480 481/481/481
f 483/483/483 482/482/482 481/481/481
f 484/484/484 482/482/482 483/483/483
f 485/485/485 484/484/484 483/483/483
f 486/486/486 484/484/484 485/485/485
f 487/487/487 486/486/486 485/485/485
f 488/488/488 486/486/486 487/487/487
f 489/489/489 488/488/488 487/487/487
