g tb_geo_section_11_mesh
v 1.3878794 0.30673504 0.1022501
v 1.3770026 0.2871567 0.10442543
v 1.3552488 0.3110857 0.1022501
v 1.3117415 0.2871567 0.1022501
v 1.3552488 0.3110857 0.1022501
v 1.3465474 0.31326115 0.10007465
v 1.3487227 0.31326115 0.10007465
v 1.3530735 0.31543648 0.10007465
v 1.3878794 0.3110857 0.10007465
v 1.3878794 0.30673504 0.1022501
v 1.3704765 0.3176118 0.10007465
v 1.3900548 0.31326115 0.10007465
v 1.2921631 0.3850484 0.37199616
v 1.3052154 0.3806976 0.3632946
v 1.3139168 0.3850484 0.41332817
v 1.2812862 0.3850484 0.37852228
v 1.2943385 0.3850484 0.4785893
v 1.3117415 0.3850484 0.46553707
v 1.3073907 0.3850484 0.5133953
v 1.3313198 0.3850484 0.5416751
v 1.3247937 0.3806976 0.5460259
v 1.3378459 0.37199616 0.56342876
v 1.344372 0.3850484 0.5482012
v 1.344372 0.37199616 0.57430565
v 1.3944056 0.3850484 0.55037653
v 1.3617749 0.37199616 0.57430565
v 1.413984 0.37199616 0.5895332
v 1.4335623 0.37199616 0.5917088
v 1.4313868 0.3850484 0.56777966
v 1.455316 0.3850484 0.5721303
v 1.3139168 0.19796646 0.6134623
v 1.309566 0.19144034 0.5982348
v 1.3117415 0.20884323 0.5982348
v 1.3160921 0.21101868 0.6134623
v 1.3704765 0.20014179 0.6221639
v 1.3247937 0.24364924 0.59605944
v 1.3704765 0.20884323 0.6221639
v 1.326969 0.24364924 0.611287
v 1.3835287 0.2066679 0.611287
v 1.3791779 0.195791 0.611287
v 1.3835287 0.23712313 0.60911167
v 1.3726518 0.2414738 0.61998856
v 1.3878794 0.2806306 0.6004101
v 1.3770026 0.28933203 0.611287
v 1.3791779 0.29803348 0.5982348
v 1.3421966 0.29803348 0.5873579
v 1.3334951 0.2936828 0.6004101
v 1.3291444 0.2871567 0.58518255
v 1.2878124 0.195791 0.56342876
v 1.2921631 0.17621267 0.57430565
v 1.2769355 0.18056345 0.576481
v 1.2725847 0.19796646 0.56777966
v 1.2812862 0.22189546 0.5460259
v 1.2595325 0.1653359 0.5656043
v 1.2660587 0.22189546 0.55690277
v 1.2551818 0.22189546 0.5242722
v 1.2421296 0.20014179 0.55472744
v 1.2225512 0.1653359 0.54385054
v 1.2464802 0.22189546 0.5416751
v 1.2269019 0.195791 0.52209675
v 1.2007974 0.16098511 0.5090445
v 1.2269019 0.19361567 0.5068692
v 1.2051482 0.14793289 0.4894662
v 1.2856369 0.3567685 0.36547005
v 1.3052154 0.3806976 0.3632946
v 1.2921631 0.3850484 0.37199616
v 1.2834616 0.3567685 0.3698207
v 1.2812862 0.3850484 0.37852228
v 1.2769355 0.32631338 0.36111927
v 1.2704093 0.3567685 0.37852228
v 1.2791109 0.3567685 0.48076475
v 1.2704093 0.35459316 0.36111927
v 1.2943385 0.3850484 0.4785893
v 1.2747601 0.37634695 0.35459316
v 1.3052154 0.3806976 0.3632946
v 1.2617079 0.37852228 0.34154093
v 1.2530065 0.35024238 0.35024238
v 1.2421296 0.35241783 0.2806306
v 1.2530065 0.37852228 0.28280592
v 1.2573571 0.37199616 0.25017536
v 1.2791109 0.32631338 0.27845514
v 1.2486557 0.35241783 0.25017536
v 1.2834616 0.32631338 0.25452614
v 1.2617079 0.35241783 0.21101868
v 1.2747601 0.37852228 0.21319401
v 1.2899877 0.32631338 0.2175448
v 1.2725847 0.35241783 0.15010822
v 1.2856369 0.3806976 0.15010822
v 1.3008646 0.32631338 0.15010822
v 1.2834616 0.35241783 0.119653106
v 1.2965138 0.3850484 0.119653106
v 1.3117415 0.32631338 0.12182844
v 1.3226182 0.35241783 0.10660076
v 1.3226182 0.3850484 0.11095154
v 1.3661257 0.35241783 0.10660076
v 1.3661257 0.3850484 0.11095154
v 1.4052824 0.35241783 0.12182844
v 1.4052824 0.3850484 0.12617922
v 1.3835287 0.32631338 0.12400377
v 1.3226182 0.32631338 0.115302324
v 1.3226182 0.27845514 0.113126874
v 1.3835287 0.2806306 0.12182844
v 1.3835287 0.32631338 0.12400377
v 1.2943385 0.2762798 0.117477655
v 1.2747601 0.28498125 0.12835455
v 1.2834616 0.2697537 0.12182844
v 1.2464802 0.21536934 0.117477655
v 1.2573571 0.21101868 0.113126874
v 1.2421296 0.20884323 0.119653106
v 1.309566 0.3850484 0.32631338
v 1.3052154 0.3981006 0.3567685
v 1.3052154 0.3806976 0.3632946
v 1.3073907 0.3981006 0.33501482
v 1.3139168 0.3850484 0.28933203
v 1.3139168 0.40462673 0.28933203
v 1.326969 0.3850484 0.25670147
v 1.326969 0.40462673 0.25670147
v 1.3117415 0.40462673 0.35894394
v 1.3117415 0.40462673 0.3328395
v 1.455316 0.40027595 0.3219626
v 1.326969 0.40462673 0.25670147
v 1.455316 0.39592528 0.22842157
v 1.3965809 0.40462673 0.3698207
v 1.4292115 0.3850484 0.18056345
v 1.3226182 0.40462673 0.23712313
v 1.3574243 0.39592528 0.20231712
v 1.4118085 0.3850484 0.16751122
v 1.3748271 0.40462673 0.41550362
v 1.3117415 0.40462673 0.41550362
v 1.3052154 0.3806976 0.3632946
v 1.3139168 0.3850484 0.41332817
v 1.3117415 0.3850484 0.46553707
v 1.3117415 0.40462673 0.46553707
v 1.3117415 0.40462673 0.46553707
v 1.3726518 0.40462673 0.48076475
v 1.3313198 0.3981006 0.5416751
v 1.3313198 0.3850484 0.5416751
v 1.3791779 0.40462673 0.49164152
v 1.344372 0.3981006 0.5482012
v 1.344372 0.3850484 0.5482012
v 1.3944056 0.3850484 0.55037653
v 1.3944056 0.40462673 0.55037653
v 1.4118085 0.40462673 0.49816775
v 1.437913 0.40462673 0.5133953
v 1.4313868 0.40027595 0.56777966
v 1.4313868 0.3850484 0.56777966
v 1.455316 0.39592528 0.5721303
v 1.455316 0.3850484 0.5721303
v 1.4313868 0.40027595 0.56777966
v 1.455316 0.39592528 0.5721303
v 1.455316 0.41332817 0.4785893
v 1.413984 0.41332817 0.4894662
v 1.4118085 0.40462673 0.49816775
v 1.4052824 0.41550362 0.46771252
v 1.455316 0.4089775 0.3632946
v 1.3835287 0.41550362 0.4851154
v 1.3791779 0.40462673 0.49164152
v 1.3726518 0.40462673 0.48076475
v 1.3813534 0.41550362 0.4785893
v 1.3813534 0.41332817 0.41767895
v 1.3748271 0.40462673 0.41550362
v 1.4009317 0.41332817 0.3741715
v 1.455316 0.40027595 0.3219626
v 1.3965809 0.40462673 0.3698207
v 1.3052154 0.3806976 0.3632946
v 1.2747601 0.37634695 0.35459316
v 1.2617079 0.37852228 0.34154093
v 1.2812862 0.37852228 0.3328395
v 1.2791109 0.37852228 0.28498125
v 1.2530065 0.37852228 0.28280592
v 1.2791109 0.37199616 0.2523507
v 1.2573571 0.37199616 0.25017536
v 1.2747601 0.37852228 0.21319401
v 1.2878124 0.37852228 0.21972013
v 1.2943385 0.37852228 0.19796646
v 1.2856369 0.3806976 0.15010822
v 1.3704765 0.20014179 0.6221639
v 1.3791779 0.195791 0.611287
v 1.4292115 0.19361567 0.60911167
v 1.3421966 0.20449257 0.6569699
v 1.3139168 0.19796646 0.6134623
v 1.250831 0.19361567 0.77008903
v 1.455316 0.19796646 0.60258543
v 1.2007974 0.21101868 0.728757
v 1.192096 0.19144034 0.77008903
v 1.1877452 0.18273878 0.72440636
v 1.1790438 0.18273878 0.77008903
v 1.0441707 0.171862 0.7157048
v 1.0419953 0.17838812 0.77008903
v 0.99848795 0.17403734 0.7265817
v 0.94192827 0.17838812 0.77008903
v 0.99413717 0.15663433 0.71135414
v 0.9136484 0.171862 0.77008903
v 1.03982 0.15880978 0.7026526
v 0.91147304 0.15228367 0.72440636
v 0.870141 0.16968656 0.77008903
v 0.99848795 0.14793289 0.6743728
v 0.8853686 0.15880978 0.7091788
v 0.8440365 0.171862 0.77008903
v 0.85708874 0.13923144 0.6983019
v 0.9723835 0.12400377 0.6243392
v 0.8244582 0.1653359 0.77008903
v 0.76572317 0.16751122 0.77008903
v 0.76572317 0.1653359 0.7613877
v 0.76572317 0.117477655 0.6656712
v 0.81358135 0.11095154 0.6178132
v 0.76572317 0.115302324 0.6569699
v 0.76572317 0.10007465 0.5982348
v 0.76572317 0.087022424 0.5830072
v 0.98108494 0.154459 0.64826834
v 1.0789766 0.13488066 0.6286899
v 0.8853686 0.115302324 0.604761
v 0.81358135 0.07832098 0.5830072
v 0.76572317 0.07832098 0.56777966
v 0.76572317 0.06961954 0.5416751
v 0.8614395 0.08267176 0.57865655
v 0.80705523 0.060917974 0.5307983
v 0.76572317 0.043515086 0.4851154
v 0.8984208 0.09354854 0.5460259
v 0.86796564 0.058742642 0.52644753
v 0.8309843 0.04786575 0.46336174
v 0.76572317 0.032638192 0.44595873
v 0.9506298 0.05221653 0.5003431
v 0.9071223 0.05439186 0.4263804
v 0.98326033 0.065268755 0.40027595
v 0.8962455 0.043515086 0.3632946
v 0.82228285 0.039164305 0.39374983
v 0.96368194 0.089197874 0.5242722
v 0.7809508 0.032638192 0.4089775
v 0.76572317 0.030462861 0.42420506
v 0.8092306 0.034813523 0.37852228
v 0.8375104 0.032638192 0.35024238
v 1.0311185 0.087022424 0.4546603
v 1.0441707 0.07832098 0.4024514
v 1.1094319 0.119653106 0.45683563
v 1.0354693 0.12182844 0.4851154
v 1.0006633 0.14140677 0.5938841
v 1.0485215 0.13488066 0.5612534
v 1.1137826 0.15010822 0.4894662
v 1.0006633 0.14575756 0.61563766
v 1.0659244 0.13052988 0.61563766
v 1.0855027 0.12835455 0.5873579
v 1.1094319 0.14793289 0.55690277
v 1.115958 0.13488066 0.5982348
v 1.1681669 0.15663433 0.55037653
v 1.1681669 0.15663433 0.51122
v 1.1703422 0.13270533 0.48294008
v 1.2051482 0.14793289 0.4894662
v 1.2007974 0.16098511 0.5090445
v 1.1551147 0.12835455 0.44813418
v 1.1616408 0.12400377 0.41332817
v 1.2225512 0.1653359 0.54385054
v 1.1116073 0.10442543 0.3981006
v 1.150764 0.119653106 0.37852228
v 1.1029058 0.07614565 0.33719015
v 1.1464132 0.091373205 0.32413793
v 1.1768684 0.113126874 0.3632946
v 1.1681669 0.10442543 0.29585814
v 1.1377118 0.07614565 0.3045596
v 1.1768684 0.10442543 0.23712313
v 1.2138497 0.16098511 0.56777966
v 1.2486557 0.16316044 0.569955
v 1.2595325 0.1653359 0.5656043
v 1.2530065 0.18056345 0.58518255
v 1.2769355 0.18056345 0.576481
v 1.2595325 0.18708956 0.6352161
v 1.2225512 0.17403734 0.6439177
v 1.2921631 0.17621267 0.57430565
v 1.309566 0.19144034 0.5982348
v 1.2138497 0.17621267 0.5808319
v 1.1855699 0.1653359 0.5917088
v 1.1790438 0.14793289 0.576481
v 1.1551147 0.14140677 0.5938841
v 1.15729 0.16316044 0.611287
v 1.1224841 0.15880978 0.6134623
v 1.1050811 0.15880978 0.6330408
v 1.1986221 0.17403734 0.6634959
v 1.0876782 0.137056 0.66132057
v 1.1116073 0.15880978 0.6634959
v 1.074626 0.14793289 0.68307436
v 1.0920289 0.16316044 0.6961266
v 1.1855699 0.17403734 0.68960035
v 1.209499 0.20014179 0.67002213
v 1.1964468 0.20449257 0.6961266
v 1.2247266 0.2066679 0.6569699
v 1.2660587 0.20884323 0.64826834
v 1.3030399 0.20231712 0.646093
v 1.2965138 0.19144034 0.6352161
v 1.3139168 0.20014179 0.6417421
v 1.309566 0.19144034 0.6330408
v 1.4292115 0.19361567 0.60911167
v 1.3791779 0.195791 0.611287
v 1.3835287 0.2066679 0.611287
v 1.3835287 0.23712313 0.60911167
v 1.4335623 0.26757836 0.6004101
v 1.455316 0.19796646 0.60258543
v 1.3878794 0.2806306 0.6004101
v 1.4074578 0.33501482 0.59605944
v 1.455316 0.27410448 0.5917088
v 1.3791779 0.29803348 0.5982348
v 1.4357376 0.3328395 0.59605944
v 1.455316 0.3393656 0.58518255
v 1.4335623 0.37199616 0.5917088
v 1.455316 0.3850484 0.5721303
v 1.413984 0.37199616 0.5895332
v 1.3617749 0.37199616 0.57430565
v 1.3574243 0.3393656 0.5808319
v 1.3421966 0.29803348 0.5873579
v 1.344372 0.37199616 0.57430565
v 1.3334951 0.34154093 0.57865655
v 1.3378459 0.37199616 0.56342876
v 1.3291444 0.2871567 0.58518255
v 1.3204429 0.36111927 0.55037653
v 1.3247937 0.3806976 0.5460259
v 1.3073907 0.3850484 0.5133953
v 1.3160921 0.33066404 0.55255187
v 1.2943385 0.35894394 0.5199214
v 1.2921631 0.33066404 0.5199214
v 1.3160921 0.2806306 0.55690277
v 1.3247937 0.24364924 0.59605944
v 1.2769355 0.33066404 0.48076475
v 1.2986892 0.2806306 0.55690277
v 1.3030399 0.22842157 0.569955
v 1.3117415 0.20884323 0.5982348
v 1.2986892 0.22624624 0.55255187
v 1.2986892 0.22624624 0.55255187
v 1.2856369 0.23277235 0.55472744
v 1.2638832 0.22842157 0.5307983
v 1.2725847 0.2806306 0.53297365
v 1.2573571 0.23494768 0.53949976
v 1.2443049 0.2414738 0.5199214
v 1.2443049 0.22842157 0.5003431
v 1.2595325 0.2806306 0.4959923
v 1.2573571 0.2806306 0.5090445
v 1.2812862 0.22189546 0.5460259
v 1.2638832 0.22842157 0.5307983
v 1.2551818 0.22189546 0.5242722
v 1.2878124 0.195791 0.56342876
v 1.2443049 0.22842157 0.5003431
v 1.2965138 0.19796646 0.5721303
v 1.2921631 0.17621267 0.57430565
v 1.309566 0.19144034 0.5982348
v 1.2247266 0.22189546 0.49381697
v 1.2269019 0.19361567 0.5068692
v 1.2551818 0.2806306 0.48729086
v 1.2595325 0.2806306 0.4959923
v 1.2160251 0.19361567 0.49164152
v 1.2051482 0.14793289 0.4894662
v 1.2029729 0.21972013 0.48076475
v 1.2399541 0.27410448 0.3698207
v 1.1964468 0.19144034 0.47641397
v 1.1986221 0.21536934 0.4263804
v 1.174693 0.16098511 0.47423863
v 1.1703422 0.13270533 0.48294008
v 1.174693 0.154459 0.45030951
v 1.1551147 0.12835455 0.44813418
v 1.1899207 0.18491423 0.42420506
v 1.174693 0.14793289 0.41985428
v 1.1616408 0.12400377 0.41332817
v 1.1877452 0.21972013 0.3741715
v 1.1703422 0.13923144 0.37634695
v 1.150764 0.119653106 0.37852228
v 1.1768684 0.113126874 0.3632946
v 1.1790438 0.13923144 0.3632946
v 1.1768684 0.18491423 0.3741715
v 1.1877452 0.18491423 0.36547005
v 1.1964468 0.2240709 0.36547005
v 1.2399541 0.27410448 0.35459316
v 1.1964468 0.2240709 0.36547005
v 1.2399541 0.27192903 0.29585814
v 1.2791109 0.32631338 0.27845514
v 1.1986221 0.21972013 0.30673504
v 1.1877452 0.18491423 0.36547005
v 1.2486557 0.27410448 0.2654029
v 1.2834616 0.32631338 0.25452614
v 1.2595325 0.27192903 0.26105225
v 1.2203758 0.2240709 0.2588768
v 1.2051482 0.21972013 0.2697537
v 1.2116743 0.18491423 0.24364924
v 1.1833944 0.18491423 0.30891037
v 1.1790438 0.13923144 0.3632946
v 1.1942713 0.18708956 0.25670147
v 1.1790438 0.14140677 0.3045596
v 1.1768684 0.113126874 0.3632946
v 1.1681669 0.10442543 0.29585814
v 1.1833944 0.13923144 0.23929846
v 1.2073236 0.137056 0.22842157
v 1.2007974 0.113126874 0.22624624
v 1.1768684 0.11095154 0.23929846
v 1.1768684 0.10442543 0.23712313
v 1.1986221 0.10007465 0.22624624
v 1.2573571 0.2806306 0.21972013
v 1.2899877 0.32631338 0.2175448
v 1.2834616 0.32631338 0.25452614
v 1.2486557 0.27410448 0.25670147
v 1.2595325 0.27192903 0.26105225
v 1.2203758 0.2240709 0.2588768
v 1.2073236 0.22842157 0.24800003
v 1.2182004 0.21972013 0.23277235
v 1.2007974 0.22189546 0.22842157
v 1.209499 0.21972013 0.21101868
v 1.2029729 0.18491423 0.21101868
v 1.2051482 0.18491423 0.20014179
v 1.1964468 0.137056 0.22189546
v 1.2029729 0.18491423 0.1892649
v 1.2007974 0.2240709 0.20231712
v 1.2160251 0.21972013 0.16316044
v 1.209499 0.21972013 0.21101868
v 1.2486557 0.2871567 0.21536934
v 1.2573571 0.2806306 0.21972013
v 1.2899877 0.32631338 0.2175448
v 1.2704093 0.2806306 0.15663433
v 1.3008646 0.32631338 0.15010822
v 1.2747601 0.28498125 0.12835455
v 1.3117415 0.32631338 0.12182844
v 1.2464802 0.21536934 0.117477655
v 1.2421296 0.20884323 0.119653106
v 1.2116743 0.18273878 0.16098511
v 1.2486557 0.171862 0.12617922
v 1.2029729 0.13923144 0.15880978
v 1.233428 0.13052988 0.12400377
v 1.1986221 0.115302324 0.15880978
v 1.2247266 0.1022501 0.13052988
v 1.1942713 0.09789932 0.15663433
v 1.2182004 0.08049631 0.13052988
v 1.192096 0.09572399 0.18708956
v 1.192096 0.10442543 0.19796646
v 1.192096 0.115302324 0.2240709
v 1.1899207 0.1022501 0.22189546
v 1.1986221 0.10007465 0.22624624
v 1.2007974 0.113126874 0.22624624
v 1.2073236 0.137056 0.22842157
v 1.2029729 0.18708956 0.23494768
v 1.2116743 0.18491423 0.24364924
v 1.2073236 0.21972013 0.2523507
v 1.2203758 0.2240709 0.2588768
v 1.2182004 0.21972013 0.23277235
v 1.209499 0.2175448 0.23494768
v 1.3226182 0.3850484 0.23712313
v 1.3226182 0.40462673 0.23712313
v 1.326969 0.40462673 0.25670147
v 1.326969 0.3850484 0.25670147
v 1.3226182 0.3850484 0.23712313
v 1.3574243 0.39592528 0.20231712
v 1.3226182 0.40462673 0.23712313
v 1.3595996 0.3850484 0.20014179
v 1.4118085 0.3850484 0.16751122
v 1.3661257 0.3850484 0.11095154
v 1.4052824 0.3850484 0.12617922
v 1.4118085 0.3850484 0.16751122
v 1.3595996 0.3850484 0.20014179
v 1.3226182 0.3850484 0.11095154
v 1.2965138 0.3850484 0.119653106
v 1.2856369 0.3806976 0.15010822
v 1.2986892 0.3850484 0.19796646
v 1.2943385 0.37852228 0.19796646
v 1.3226182 0.3850484 0.23712313
v 1.2878124 0.37852228 0.21972013
v 1.2899877 0.3850484 0.2240709
v 1.326969 0.3850484 0.25670147
v 1.2791109 0.37199616 0.2523507
v 1.2812862 0.3850484 0.25452614
v 1.3139168 0.3850484 0.28933203
v 1.2791109 0.37852228 0.28498125
v 1.2834616 0.3850484 0.2871567
v 1.309566 0.3850484 0.32631338
v 1.2812862 0.37852228 0.3328395
v 1.2834616 0.3850484 0.33066404
v 1.3052154 0.3806976 0.3632946
v 1.1899207 0.1022501 0.22189546
v 1.1986221 0.10007465 0.22624624
v 1.1768684 0.10442543 0.23712313
v 1.15729 0.1022501 0.19361567
v 1.192096 0.10442543 0.19796646
v 1.192096 0.09572399 0.18708956
v 1.1638162 0.08484709 0.17621267
v 1.1942713 0.09789932 0.15663433
v 1.1290102 0.07614565 0.17838812
v 1.1616408 0.08484709 0.14575756
v 1.1725177 0.091373205 0.13270533
v 1.1812191 0.087022424 0.12400377
v 1.115958 0.08049631 0.19361567
v 1.2029729 0.087022424 0.12617922
v 1.2182004 0.08049631 0.13052988
v 1.1833944 0.087022424 0.119653106
v 1.2007974 0.08049631 0.10660076
v 1.1942713 0.08267176 0.10877621
v 1.115958 0.08267176 0.195791
v 1.115958 0.08267176 0.195791
v 1.1137826 0.058742642 0.23712313
v 1.0985551 0.063093424 0.21319401
v 1.0789766 0.04786575 0.23494768
v 1.0615737 0.05221653 0.2523507
v 1.057223 0.05439186 0.2588768
v 1.1420624 0.08267176 0.22624624
v 1.1442378 0.091373205 0.2414738
v 1.1116073 0.07179487 0.2588768
v 1.1029058 0.05439186 0.31543648
v 1.0485215 0.0500412 0.26757836
v 1.0528722 0.045690417 0.2936828
v 1.0267677 0.039164305 0.29150736
v 1.0050141 0.05221653 0.31543648
v 1.0028386 0.05221653 0.3176118
v 1.0485215 0.060917974 0.31543648
v 1.0006633 0.05221653 0.3219626
v 0.99848795 0.05221653 0.32413793
v 0.98326033 0.05221653 0.3393656
v 0.9702081 0.04786575 0.3393656
v 0.9593313 0.045690417 0.34806705
v 0.9549805 0.036988974 0.3393656
v 0.92887604 0.030462861 0.3393656
v 0.8940701 0.019585967 0.3393656
v 0.88971937 0.019585967 0.34154093
v 0.88971937 0.019585967 0.3393656
v 0.88971937 0.019585967 0.3393656
v 0.88101786 0.017410636 0.3393656
v 0.86579025 0.019585967 0.3393656
v 0.8462119 0.019585967 0.3393656
v 1.2834616 0.2697537 0.12182844
v 1.2812862 0.2806306 0.113126874
v 1.2943385 0.2762798 0.117477655
v 1.3160921 0.28498125 0.10877621
v 1.3226182 0.27845514 0.113126874
v 1.3117415 0.2871567 0.1022501
v 1.2812862 0.28498125 0.10007465
v 1.3770026 0.2871567 0.10442543
v 1.3813534 0.28498125 0.117477655
v 1.3835287 0.2806306 0.12182844
v 1.2834616 0.2697537 0.12182844
v 1.2573571 0.21101868 0.113126874
v 1.2812862 0.2806306 0.113126874
v 1.2812862 0.28498125 0.10007465
v 1.2725847 0.2654029 0.10007465
v 1.2812862 0.28498125 0.10007465
v 1.2530065 0.21101868 0.10007465
v 1.2377788 0.20884323 0.10007465
v 1.2573571 0.21101868 0.113126874
v 1.2421296 0.20884323 0.119653106
v 1.2443049 0.20884323 0.10007465
v 1.2530065 0.21101868 0.10007465
v 1.233428 0.19796646 0.10007465
v 1.2377788 0.20884323 0.10007465
v 1.2421296 0.20884323 0.119653106
v 1.2269019 0.171862 0.117477655
v 1.2225512 0.16968656 0.10007465
v 1.2486557 0.171862 0.12617922
v 1.2203758 0.14793289 0.10007465
v 1.2225512 0.13052988 0.12182844
v 1.233428 0.13052988 0.12400377
v 1.2225512 0.119653106 0.10007465
v 1.209499 0.1022501 0.10007465
v 1.2247266 0.1022501 0.13052988
v 1.2073236 0.10007465 0.10007465
v 1.2073236 0.10442543 0.12182844
v 1.2182004 0.08049631 0.13052988
v 1.2051482 0.09354854 0.10007465
v 1.2029729 0.087022424 0.12617922
v 1.2007974 0.08049631 0.10660076
v 1.1964468 0.08267176 0.10660076
v 1.2007974 0.09354854 0.10007465
v 1.2051482 0.09354854 0.10007465
v 1.2007974 0.08049631 0.10660076
v 1.1942713 0.08267176 0.10877621
vt 0.9915639 0.46463048
vt 0.9915639 0.45300695
vt 0.97219133 0.46463048
vt 0.9373207 0.45300695
vt 0.97219133 0.46463048
vt 0.96444225 0.468505
vt 0.9683168 0.468505
vt 0.9683168 0.468505
vt 0.9876894 0.4723795
vt 0.9915639 0.46463048
vt 0.9799403 0.4723795
vt 0.9876894 0.4723795
vt 0.9450698 0.29802653
vt 0.9489442 0.30577555
vt 0.95281875 0.2825285
vt 0.94119525 0.29415202
vt 0.9489442 0.25540692
vt 0.95281875 0.25928143
vt 0.95281875 0.23990889
vt 0.96056783 0.22828536
vt 0.9566933 0.22828536
vt 0.96056783 0.21666183
vt 0.96444225 0.22441085
vt 0.96444225 0.21278732
vt 0.9760659 0.21278732
vt 0.9683168 0.2089128
vt 0.9799403 0.19341476
vt 0.9876894 0.18954025
vt 0.9876894 0.20116378
vt 0.99543834 0.19341476
vt 0.9373207 0.13142261
vt 0.92957175 0.13917162
vt 0.93344617 0.15079515
vt 0.94119525 0.14304613
vt 0.97219133 0.11979907
vt 0.9450698 0.16629319
vt 0.9683168 0.1275481
vt 0.9489442 0.16241868
vt 0.97219133 0.1275481
vt 0.9760659 0.12367358
vt 0.97219133 0.14304613
vt 0.96444225 0.15079515
vt 0.97219133 0.1701677
vt 0.9683168 0.17404221
vt 0.97219133 0.17791672
vt 0.9566933 0.18954025
vt 0.9566933 0.18566574
vt 0.95281875 0.18954025
vt 0.9179481 0.16241868
vt 0.9140737 0.15079515
vt 0.9063246 0.15079515
vt 0.91019917 0.16629319
vt 0.92182267 0.18566574
vt 0.8908266 0.15466966
vt 0.9140737 0.18179123
vt 0.91019917 0.20116378
vt 0.89857566 0.17791672
vt 0.87532854 0.1701677
vt 0.9063246 0.19341476
vt 0.88695204 0.19728927
vt 0.8598305 0.19341476
vt 0.88695204 0.2050383
vt 0.85595596 0.2050383
vt 0.9373207 0.30577555
vt 0.9489442 0.30577555
vt 0.9450698 0.29802653
vt 0.93344617 0.30190104
vt 0.94119525 0.29415202
vt 0.92182267 0.30577555
vt 0.93344617 0.29802653
vt 0.94119525 0.25153244
vt 0.93344617 0.30965006
vt 0.9489442 0.25540692
vt 0.9373207 0.31352457
vt 0.9489442 0.30577555
vt 0.9373207 0.31739908
vt 0.92957175 0.31739908
vt 0.92957175 0.34064615
vt 0.9373207 0.34064615
vt 0.9373207 0.35226968
vt 0.9179481 0.34064615
vt 0.92957175 0.35226968
vt 0.9179481 0.35226968
vt 0.93344617 0.36776772
vt 0.94119525 0.36776772
vt 0.92182267 0.37164223
vt 0.94119525 0.39101478
vt 0.95281875 0.39101478
vt 0.93344617 0.40263832
vt 0.9489442 0.40263832
vt 0.9566933 0.3987638
vt 0.9450698 0.41813636
vt 0.9566933 0.41426185
vt 0.96444225 0.40651283
vt 0.9760659 0.42201087
vt 0.9799403 0.41038734
vt 0.99543834 0.4336344
vt 0.99543834 0.41426185
vt 0.9799403 0.4375089
vt 0.95281875 0.42201087
vt 0.9450698 0.44138342
vt 0.9760659 0.44138342
vt 0.9799403 0.4375089
vt 0.9256972 0.4375089
vt 0.9179481 0.42588538
vt 0.9179481 0.4375089
vt 0.871454 0.42588538
vt 0.871454 0.4336344
vt 0.8675796 0.42588538
vt 0.95281875 0.3212736
vt 0.9566933 0.30577555
vt 0.9489442 0.30577555
vt 0.9566933 0.31739908
vt 0.9566933 0.33677164
vt 0.96056783 0.33677164
vt 0.96056783 0.34839517
vt 0.96444225 0.34839517
vt 0.96056783 0.30577555
vt 0.96056783 0.31739908
vt 0.99543834 0.3251481
vt 0.96444225 0.34839517
vt 0.99543834 0.3638932
vt 0.9799403 0.30190104
vt 0.99543834 0.38714027
vt 0.96444225 0.3561442
vt 0.9760659 0.37164223
vt 0.99543834 0.3948893
vt 0.97219133 0.27865398
vt 0.9566933 0.2825285
vt 0.9489442 0.30577555
vt 0.95281875 0.2825285
vt 0.95281875 0.25928143
vt 0.9566933 0.25928143
vt 0.9566933 0.25928143
vt 0.9683168 0.25153244
vt 0.96444225 0.22828536
vt 0.96056783 0.22828536
vt 0.97219133 0.2437834
vt 0.9683168 0.22828536
vt 0.96444225 0.22441085
vt 0.9760659 0.21278732
vt 0.9799403 0.22053634
vt 0.98381484 0.23990889
vt 0.9915639 0.22828536
vt 0.9876894 0.2050383
vt 0.9876894 0.20116378
vt 0.99543834 0.19728927
vt 0.99543834 0.19341476
vt 0.9876894 0.2050383
vt 0.99543834 0.19728927
vt 0.99543834 0.2437834
vt 0.98381484 0.2437834
vt 0.98381484 0.23990889
vt 0.98381484 0.25540692
vt 0.99543834 0.30190104
vt 0.9760659 0.24765791
vt 0.97219133 0.2437834
vt 0.9683168 0.25153244
vt 0.9760659 0.25153244
vt 0.9760659 0.27865398
vt 0.97219133 0.27865398
vt 0.98381484 0.29802653
vt 0.99543834 0.3251481
vt 0.9799403 0.30190104
vt 0.9489442 0.30577555
vt 0.9373207 0.31352457
vt 0.9373207 0.31739908
vt 0.94119525 0.3212736
vt 0.94119525 0.34064615
vt 0.9373207 0.34064615
vt 0.94119525 0.35226968
vt 0.9373207 0.35226968
vt 0.94119525 0.36776772
vt 0.9450698 0.3638932
vt 0.9489442 0.37164223
vt 0.95281875 0.39101478
vt 0.97219133 0.11979907
vt 0.9760659 0.12367358
vt 0.9876894 0.11979907
vt 0.96444225 0.0926775
vt 0.9373207 0.13142261
vt 0.9566933 0.0074382722
vt 0.99543834 0.12367358
vt 0.89857566 0.053932395
vt 0.9063246 0.0074382722
vt 0.88695204 0.046183374
vt 0.871454 0.0074382722
vt 0.79008937 0.046183374
vt 0.7823403 0.0074382722
vt 0.7707168 0.034559846
vt 0.7474698 0.0074382722
vt 0.76684225 0.050057884
vt 0.7397207 0.0074382722
vt 0.79008937 0.057806905
vt 0.7397207 0.038434356
vt 0.7280972 0.0074382722
vt 0.7707168 0.073304944
vt 0.73197174 0.050057884
vt 0.7203481 0.0074382722
vt 0.72422266 0.057806905
vt 0.7590933 0.11205005
vt 0.71259916 0.0074382722
vt 0.6971011 0.0074382722
vt 0.6971011 0.015187293
vt 0.6971011 0.081053965
vt 0.7087246 0.11205005
vt 0.6971011 0.088802986
vt 0.6971011 0.1275481
vt 0.6971011 0.13917162
vt 0.7629678 0.0926775
vt 0.8055874 0.10817554
vt 0.73197174 0.12367358
vt 0.7087246 0.14304613
vt 0.6971011 0.15079515
vt 0.6971011 0.16629319
vt 0.72422266 0.14692064
vt 0.7048501 0.17791672
vt 0.6932266 0.2050383
vt 0.73584616 0.16241868
vt 0.72422266 0.18179123
vt 0.71259916 0.22053634
vt 0.6932266 0.23215987
vt 0.7474698 0.20116378
vt 0.73197174 0.2437834
vt 0.75521874 0.25928143
vt 0.72422266 0.27865398
vt 0.7048501 0.26315594
vt 0.7590933 0.17791672
vt 0.6932266 0.25153244
vt 0.6932266 0.2437834
vt 0.70097566 0.27090496
vt 0.7087246 0.286403
vt 0.77846587 0.22441085
vt 0.77846587 0.25928143
vt 0.8133364 0.22828536
vt 0.7862148 0.20116378
vt 0.7745913 0.1275481
vt 0.7939638 0.15079515
vt 0.8172109 0.20116378
vt 0.7707168 0.11205005
vt 0.8017129 0.11592456
vt 0.80946183 0.1352971
vt 0.82108545 0.15854417
vt 0.82108545 0.13142261
vt 0.848207 0.16629319
vt 0.84433246 0.19341476
vt 0.8404579 0.21666183
vt 0.85595596 0.2050383
vt 0.8598305 0.19341476
vt 0.83270895 0.23603438
vt 0.8288344 0.25928143
vt 0.87532854 0.1701677
vt 0.8055874 0.26703045
vt 0.82108545 0.27865398
vt 0.7939638 0.30190104
vt 0.8055874 0.30965006
vt 0.82108545 0.29415202
vt 0.8133364 0.3251481
vt 0.8017129 0.3212736
vt 0.8133364 0.3600187
vt 0.871454 0.15466966
vt 0.88695204 0.15466966
vt 0.8908266 0.15466966
vt 0.8947011 0.14304613
vt 0.9063246 0.15079515
vt 0.91019917 0.11592456
vt 0.88695204 0.10817554
vt 0.9140737 0.15079515
vt 0.92957175 0.13917162
vt 0.87532854 0.14304613
vt 0.8598305 0.1352971
vt 0.85208154 0.14692064
vt 0.8404579 0.1352971
vt 0.848207 0.12367358
vt 0.8288344 0.11592456
vt 0.82108545 0.10430103
vt 0.8792031 0.0926775
vt 0.80946183 0.088802986
vt 0.8249599 0.084928475
vt 0.8055874 0.073304944
vt 0.8172109 0.061681416
vt 0.87532854 0.073304944
vt 0.8908266 0.084928475
vt 0.8908266 0.06943044
vt 0.89857566 0.0926775
vt 0.92182267 0.10042652
vt 0.9373207 0.10042652
vt 0.92957175 0.11979907
vt 0.9450698 0.10430103
vt 0.9373207 0.11979907
vt 0.9876894 0.11979907
vt 0.9760659 0.12367358
vt 0.97219133 0.1275481
vt 0.97219133 0.14304613
vt 0.9876894 0.15079515
vt 0.99543834 0.12367358
vt 0.97219133 0.1701677
vt 0.9799403 0.18566574
vt 0.99543834 0.15079515
vt 0.97219133 0.17791672
vt 0.9876894 0.17791672
vt 0.99543834 0.17404221
vt 0.9876894 0.18954025
vt 0.99543834 0.19341476
vt 0.9799403 0.19341476
vt 0.9683168 0.2089128
vt 0.96444225 0.20116378
vt 0.9566933 0.18954025
vt 0.96444225 0.21278732
vt 0.9566933 0.2089128
vt 0.96056783 0.21666183
vt 0.95281875 0.18954025
vt 0.95281875 0.22053634
vt 0.9566933 0.22828536
vt 0.95281875 0.23990889
vt 0.9489442 0.21666183
vt 0.9489442 0.23603438
vt 0.94119525 0.23215987
vt 0.9450698 0.20116378
vt 0.9450698 0.16629319
vt 0.9373207 0.24765791
vt 0.94119525 0.2050383
vt 0.93344617 0.17791672
vt 0.93344617 0.15079515
vt 0.92957175 0.18179123
vt 0.92957175 0.18179123
vt 0.9256972 0.18954025
vt 0.9140737 0.19728927
vt 0.93344617 0.21666183
vt 0.9179481 0.20116378
vt 0.9140737 0.21278732
vt 0.9063246 0.21666183
vt 0.9256972 0.23603438
vt 0.9256972 0.22828536
vt 0.92182267 0.18566574
vt 0.9140737 0.19728927
vt 0.91019917 0.20116378
vt 0.9179481 0.16241868
vt 0.9063246 0.21666183
vt 0.92182267 0.15854417
vt 0.9140737 0.15079515
vt 0.92957175 0.13917162
vt 0.89857566 0.22441085
vt 0.88695204 0.2050383
vt 0.92182267 0.23990889
vt 0.9256972 0.23603438
vt 0.8830776 0.21666183
vt 0.85595596 0.2050383
vt 0.8908266 0.23215987
vt 0.9063246 0.29415202
vt 0.87532854 0.22828536
vt 0.8830776 0.25928143
vt 0.85208154 0.22441085
vt 0.8404579 0.21666183
vt 0.848207 0.23990889
vt 0.83270895 0.23603438
vt 0.8675796 0.25928143
vt 0.84433246 0.25540692
vt 0.8288344 0.25928143
vt 0.87532854 0.286403
vt 0.83270895 0.2825285
vt 0.82108545 0.27865398
vt 0.82108545 0.29415202
vt 0.83270895 0.2902775
vt 0.85595596 0.2825285
vt 0.85595596 0.2902775
vt 0.87532854 0.29415202
vt 0.9024501 0.30190104
vt 0.87532854 0.29415202
vt 0.89857566 0.32902262
vt 0.9179481 0.34064615
vt 0.871454 0.3212736
vt 0.85595596 0.2902775
vt 0.89857566 0.34452066
vt 0.9179481 0.35226968
vt 0.9024501 0.34839517
vt 0.871454 0.34839517
vt 0.8675796 0.34064615
vt 0.848207 0.3561442
vt 0.848207 0.3212736
vt 0.83270895 0.2902775
vt 0.848207 0.34452066
vt 0.8288344 0.3212736
vt 0.82108545 0.29415202
vt 0.8133364 0.3251481
vt 0.8249599 0.35226968
vt 0.8288344 0.3638932
vt 0.82108545 0.36776772
vt 0.8133364 0.3561442
vt 0.8133364 0.3600187
vt 0.8172109 0.36776772
vt 0.9063246 0.37164223
vt 0.92182267 0.37164223
vt 0.9179481 0.35226968
vt 0.89857566 0.3561442
vt 0.9024501 0.34839517
vt 0.871454 0.34839517
vt 0.871454 0.3561442
vt 0.86370504 0.3638932
vt 0.8675796 0.36776772
vt 0.8675796 0.37551674
vt 0.848207 0.37164223
vt 0.848207 0.37939125
vt 0.8288344 0.37164223
vt 0.848207 0.38326576
vt 0.8675796 0.37939125
vt 0.8675796 0.3987638
vt 0.8675796 0.37551674
vt 0.9063246 0.37551674
vt 0.9063246 0.37164223
vt 0.92182267 0.37164223
vt 0.9140737 0.41038734
vt 0.93344617 0.40263832
vt 0.9179481 0.42588538
vt 0.9450698 0.41813636
vt 0.871454 0.42588538
vt 0.8675796 0.42588538
vt 0.848207 0.3987638
vt 0.848207 0.41813636
vt 0.83270895 0.3987638
vt 0.83270895 0.41426185
vt 0.82108545 0.3987638
vt 0.8249599 0.41426185
vt 0.8133364 0.40263832
vt 0.8172109 0.41426185
vt 0.8133364 0.38714027
vt 0.8133364 0.38326576
vt 0.8172109 0.37164223
vt 0.8133364 0.36776772
vt 0.8172109 0.36776772
vt 0.82108545 0.36776772
vt 0.8288344 0.3638932
vt 0.848207 0.3638932
vt 0.848207 0.3561442
vt 0.8675796 0.35226968
vt 0.871454 0.34839517
vt 0.86370504 0.3638932
vt 0.86370504 0.3600187
vt 0.96056783 0.3600187
vt 0.96444225 0.3561442
vt 0.96444225 0.34839517
vt 0.96056783 0.34839517
vt 0.96056783 0.3600187
vt 0.9760659 0.37164223
vt 0.96444225 0.3561442
vt 0.97219133 0.37551674
vt 0.99543834 0.3948893
vt 0.9799403 0.41038734
vt 0.99543834 0.41426185
vt 0.99543834 0.3948893
vt 0.97219133 0.37551674
vt 0.96444225 0.40651283
vt 0.9566933 0.3987638
vt 0.95281875 0.39101478
vt 0.95281875 0.37164223
vt 0.9489442 0.37164223
vt 0.96056783 0.3600187
vt 0.9450698 0.3638932
vt 0.9489442 0.3638932
vt 0.96056783 0.34839517
vt 0.94119525 0.35226968
vt 0.9450698 0.34839517
vt 0.9566933 0.33677164
vt 0.94119525 0.34064615
vt 0.9450698 0.33677164
vt 0.95281875 0.3212736
vt 0.94119525 0.3212736
vt 0.9450698 0.3212736
vt 0.9489442 0.30577555
vt 0.8133364 0.36776772
vt 0.8172109 0.36776772
vt 0.8133364 0.3600187
vt 0.8017129 0.38326576
vt 0.8133364 0.38326576
vt 0.8133364 0.38714027
vt 0.8017129 0.3948893
vt 0.8133364 0.40263832
vt 0.7939638 0.39101478
vt 0.8017129 0.41038734
vt 0.8055874 0.41426185
vt 0.80946183 0.41813636
vt 0.79008937 0.38326576
vt 0.8133364 0.41426185
vt 0.8172109 0.41426185
vt 0.80946183 0.41813636
vt 0.8133364 0.42201087
vt 0.8133364 0.42201087
vt 0.79008937 0.38326576
vt 0.79008937 0.38326576
vt 0.7862148 0.3600187
vt 0.7823403 0.37164223
vt 0.7745913 0.3600187
vt 0.7707168 0.34839517
vt 0.7707168 0.34452066
vt 0.79783833 0.3638932
vt 0.8017129 0.3561442
vt 0.79008937 0.34452066
vt 0.79008937 0.31739908
vt 0.76684225 0.34064615
vt 0.7707168 0.3251481
vt 0.7629678 0.3251481
vt 0.7590933 0.30965006
vt 0.7590933 0.30577555
vt 0.7707168 0.30965006
vt 0.75521874 0.30577555
vt 0.75521874 0.30577555
vt 0.7513442 0.29415202
vt 0.7474698 0.29415202
vt 0.74359524 0.2902775
vt 0.74359524 0.29802653
vt 0.73197174 0.29802653
vt 0.72422266 0.29802653
vt 0.7203481 0.29802653
vt 0.7203481 0.29802653
vt 0.7203481 0.29802653
vt 0.7203481 0.29802653
vt 0.7164737 0.29802653
vt 0.7087246 0.29802653
vt 0.9179481 0.4375089
vt 0.92182267 0.44525793
vt 0.9256972 0.4375089
vt 0.94119525 0.44913244
vt 0.9450698 0.44138342
vt 0.9373207 0.45300695
vt 0.92182267 0.45300695
vt 0.9915639 0.45300695
vt 0.9915639 0.44525793
vt 0.9760659 0.44138342
vt 0.9179481 0.4375089
vt 0.871454 0.4336344
vt 0.92182267 0.44525793
vt 0.92182267 0.45300695
vt 0.9063246 0.44913244
vt 0.92182267 0.45300695
vt 0.871454 0.4375089
vt 0.86370504 0.4375089
vt 0.871454 0.4336344
vt 0.8675796 0.42588538
vt 0.8675796 0.4375089
vt 0.871454 0.4375089
vt 0.85595596 0.4375089
vt 0.86370504 0.4375089
vt 0.8675796 0.42588538
vt 0.84433246 0.42588538
vt 0.8404579 0.4336344
vt 0.848207 0.41813636
vt 0.83270895 0.4297599
vt 0.8288344 0.42201087
vt 0.83270895 0.41426185
vt 0.8288344 0.42588538
vt 0.82108545 0.42588538
vt 0.8249599 0.41426185
vt 0.82108545 0.42588538
vt 0.82108545 0.41813636
vt 0.8172109 0.41426185
vt 0.8172109 0.42588538
vt 0.8133364 0.41426185
vt 0.8133364 0.42201087
vt 0.8133364 0.42201087
vt 0.8172109 0.42588538
vt 0.8172109 0.42588538
vt 0.8133364 0.42201087
vt 0.8133364 0.42201087
vn -0.1464563 0.17490745 0.9736313
vn -0.1464563 0.20335859 0.96808875
vn -0.1464563 0.20335859 0.96808875
vn -0.1180051 0.20335859 0.9719671
vn -0.08955395 0.459419 0.8836935
vn -0.1180051 0.5163214 0.8482258
vn -0.1180051 0.5447725 0.8302396
vn -0.08955395 0.5732237 0.81449044
vn 0.25185996 0.8577353 0.4481705
vn -0.08955395 0.459419 0.8836935
vn 0.13805532 0.8861865 0.44228297
vn 0.28031117 0.8577353 0.43094763
vn 0.10895265 0.99404687 -0
vn 0.10895265 0.99404687 -0
vn 0.024243772 0.9997061 -0
vn 0.052629255 0.9986141 -0
vn -0.0042004585 0.9999912 -0
vn -0.0042004585 0.9999912 -0
vn -0.0042004585 0.9999912 -0
vn -0.1464563 0.97154 0.18617368
vn -0.20335859 0.9146377 0.34940404
vn -0.34561443 0.8292842 0.43913373
vn -0.061102808 0.8861865 0.45928198
vn -0.032651603 0.8861865 0.46217677
vn -0.08955395 0.9146377 0.39423087
vn -0.061102808 0.9146377 0.39963025
vn -0.061102808 0.94308877 0.32687914
vn -0.1180051 0.8861865 0.44804946
vn -0.20335859 0.8577353 0.47216046
vn -0.061102808 0.8577353 0.5104475
vn -0.48787022 0.08955395 0.8683103
vn -0.97154 0.08955395 0.21929473
vn -0.94308877 0.26026094 0.20699708
vn -0.459419 0.17490745 0.8708281
vn -0.0042004585 0.032651603 0.99945796
vn -0.94308877 0.23180974 0.23842774
vn 0.024250686 0.061102808 0.9978368
vn -0.40251672 0.20335859 0.89253885
vn 0.67862743 0.0042004585 0.73447067
vn 0.67862743 -0.081153035 0.7299856
vn 0.67862743 0.061102808 0.73193663
vn 0.024250686 0.1464563 0.98891985
vn 0.7070786 0.08955395 0.70144135
vn -0.0042004585 0.37406552 0.9273928
vn 0.05270183 0.9146377 0.4008247
vn -0.1180051 0.94308877 0.31089926
vn -0.40251672 0.37406552 0.835497
vn -0.97154 0.20335859 0.12147167
vn 0.3087623 0.5163214 0.79879785
vn 0.25185996 0.459419 0.8517633
vn -0.1464563 0.40251672 0.90362096
vn -0.032651603 0.40251672 0.9148301
vn 0.16650653 0.8861865 0.4323761
vn -0.459419 0.08955395 0.8836935
vn -0.032651603 0.8292842 0.5578724
vn -0.40251672 0.9146377 -0.037658643
vn -0.6870284 0.31716323 0.653758
vn -0.7723819 0.34561443 0.53289473
vn -0.5163214 0.8292842 0.21377534
vn -0.8292842 0.5447725 0.12454187
vn -0.8292842 0.5447725 -0.12454187
vn -0.7154795 0.630126 -0.30171227
vn -0.7439307 0.5732237 -0.34348464
vn -0.6585772 0.43096793 0.61688143
vn -0.5163214 0.26026094 -0.81588995
vn -0.5447725 0.23180974 -0.80590767
vn -0.5447725 0.28871214 -0.7873171
vn -0.9146377 0.40251672 -0.03765884
vn -0.94308877 0.31716323 0.09995513
vn -0.97154 0.17490745 0.15974188
vn -0.94308877 0.28871214 0.16501163
vn -0.459419 0.20335859 0.86462677
vn -0.8861865 0.43096793 0.17011811
vn -0.459419 0.31716323 0.8296636
vn -0.28871214 0.28871214 0.9128475
vn -0.9146377 0.34561443 0.2097345
vn -0.8861865 -0.45101812 0.10609511
vn -0.9146377 -0.3941158 0.09005902
vn -0.93893576 0.34409246 -0
vn -0.8861865 0.40251672 -0.22946417
vn -0.630126 -0.7639809 -0.1388321
vn -0.8861865 -0.3941158 -0.24361084
vn -0.6016749 -0.79243207 -0.10019318
vn -0.9146377 -0.3372135 -0.22299096
vn -0.8861865 0.40251672 -0.22946417
vn -0.630126 -0.7639809 -0.1388321
vn -0.94308877 -0.28031117 -0.17891113
vn -0.8861865 0.37406552 -0.2734017
vn -0.6585772 -0.7355297 -0.15897211
vn -0.7723819 -0.19495767 -0.60449785
vn -0.6016749 0.23180974 -0.76436347
vn -0.48787022 -0.3087623 -0.81648546
vn -0.1180051 -0.10960418 -0.9869456
vn -0.1464563 0.1464563 -0.9783155
vn 0.16650653 -0.10960418 -0.9799298
vn 0.19495767 0.1464563 -0.9698155
vn 0.36566463 0.061102808 -0.92873883
vn 0.36566463 0.1464563 -0.9191517
vn 0.16650653 -0.3941158 -0.9038519
vn -0.0042004585 -0.13805532 -0.9904156
vn 0.05270183 0.032651603 -0.9980763
vn 0.13805532 0.0042004585 -0.9904156
vn 0.13805532 0.0042004585 -0.9904156
vn -0.34561443 0.17490745 -0.9219317
vn -0.40251672 0.23180974 -0.88557583
vn -0.37406552 0.26026094 -0.8901344
vn -0.37406552 0.28871214 -0.8813174
vn -0.34561443 0.28871214 -0.8928583
vn -0.43096793 0.17490745 -0.88525367
vn -0.9997061 -0.024243772 -0
vn -0.9894446 0.14491168 -0
vn -0.9986141 -0.052629255 -0
vn -0.99310917 0.117192976 -0
vn -0.97154 0.0042004585 -0.23683843
vn -0.08919777 0.99601394 -0
vn -0.9146377 0.0042004585 -0.4042527
vn -0.9146377 0.0042004585 -0.4042527
vn -0.0609896 0.9981384 -0
vn -0.0326345 0.99946743 -0
vn 0.024243772 0.9997061 -0
vn 0.052629255 0.9986141 -0
vn 0.052629255 0.9986141 -0
vn -0.0042004585 0.9999912 -0
vn 0.05270183 0.97154 -0.23093858
vn 0.05270183 0.97154 -0.23093858
vn 0.13805532 0.97154 -0.1924858
vn 0.10960418 0.97154 -0.20999287
vn -0.0042004585 0.9999912 -0
vn -0.5157293 0.8567516 -0
vn -0.9999912 0.0042004585 -0
vn -0.9999912 0.0042004585 -0
vn -0.9999912 0.0042004585 -0
vn -0.0042004585 0.9999912 -0
vn -0.9999912 0.0042004585 -0
vn -0.0042004585 0.9999912 -0
vn -0.43096793 0.8861865 0.1701182
vn -0.94308877 0.0042004585 0.33251452
vn -0.0609896 0.9981384 -0
vn -0.08955395 0.8861865 0.4545917
vn -0.08955395 0.0042004585 0.9959731
vn -0.23180974 0.0042004585 0.9727521
vn -0.08955395 0.94308877 0.32025555
vn -0.0326345 0.99946743 -0
vn -0.0326345 0.99946743 -0
vn -0.37406552 0.0042004585 0.9273928
vn -0.34561443 0.0042004585 0.93836725
vn -0.1464563 0.0042004585 0.9892082
vn -0.1464563 0.0042004585 0.9892082
vn 0.080887824 0.9967232 -0
vn 0.080887824 0.9967232 -0
vn 0.024243772 0.9997061 -0
vn -0.032651603 0.9146377 0.40295377
vn -0.20335859 0.6016749 0.77242
vn 0.024243772 0.9997061 -0
vn 0.052629255 0.9986141 -0
vn -0.20335859 0.800833 0.56330436
vn -0.28871214 0.6016749 0.74473655
vn -0.822608 0.56860894 -0
vn -0.6006708 0.7994965 -0
vn -0.459419 0.8861865 -0.06006405
vn -0.800833 0.5732237 -0.1734391
vn -0.1180051 0.97154 -0.2053896
vn 0.024250686 0.97154 -0.23563099
vn -0.6585772 0.5732237 -0.4875353
vn -0.0609896 0.9981384 -0
vn -0.20335859 0.9146377 0.34940404
vn -0.0042004585 0.9999912 -0
vn -0.0042004585 0.9999912 -0
vn -0.0042004585 0.9999912 -0
vn -0.0042004585 0.9999912 -0
vn -0.0042004585 0.9999912 -0
vn -0.0042004585 0.9999912 -0
vn -0.0042004585 0.9999912 -0
vn -0.0042004585 0.9999912 -0
vn 0.024243772 0.9997061 -0
vn 0.024243772 0.9997061 -0
vn 0.024243772 0.9997061 -0
vn 0.024250686 0.97154 -0.23563099
vn -0.08919777 0.99601394 -0
vn 0.16650653 0.97154 0.16848038
vn -0.1464563 0.97154 -0.18617368
vn 0.13805532 0.97154 0.1924858
vn -0.17490745 0.97154 -0.15974186
vn -0.1180051 0.97154 0.2053896
vn -0.48787022 0.8292842 0.27252603
vn -0.23180974 0.97154 -0.04872731
vn -0.14491168 0.9894446 -0
vn -0.061102808 0.97154 -0.22885914
vn -0.0326345 0.99946743 -0
vn -0.1180051 0.9146377 -0.38666874
vn -0.23180974 0.8577353 -0.45886216
vn -0.1464563 0.8861865 -0.4395726
vn -0.1180051 0.8861865 -0.44804946
vn -0.061102808 0.8577353 -0.5104475
vn 0.052629255 0.9986141 -0
vn 0.081153035 0.97154 -0.22254044
vn 0.10895265 0.99404687 -0
vn -0.17490745 0.8861865 -0.4290465
vn -0.20335859 0.9146377 -0.34940404
vn -0.1180051 0.9146377 -0.38666874
vn -0.26026094 0.8861865 -0.38332465
vn -0.061102808 0.9146377 -0.39963025
vn -0.032651603 0.8861865 -0.46217677
vn -0.032651603 0.8861865 -0.46217677
vn -0.061102808 0.9146377 -0.39963025
vn -0.08955395 0.94308877 -0.32025555
vn -0.061102808 0.9146377 -0.39963025
vn -0.061102808 0.9146377 -0.39963025
vn -0.0042004585 0.8861865 -0.4633097
vn -0.08955395 0.94308877 -0.32025555
vn -0.0609896 0.9981384 -0
vn -0.08955395 0.94308877 -0.32025555
vn -0.0042004585 0.8292842 -0.5588113
vn -0.0042004585 0.8861865 -0.4633097
vn -0.0042004585 0.9146377 -0.4042527
vn -0.26026094 0.8292842 -0.494522
vn 0.024250686 0.94308877 -0.3316556
vn -0.061102808 0.94308877 -0.32687914
vn -0.23180974 0.800833 -0.5522054
vn -0.08955395 0.94308877 -0.32025555
vn -0.08955395 0.97154 -0.21929468
vn -0.1180051 0.94308877 -0.31089926
vn -0.26026094 0.9146377 -0.30935767
vn -0.08919777 0.99601394 -0
vn -0.25876114 0.9659413 -0
vn -0.1180051 0.9146377 -0.38666874
vn -0.17490745 0.97154 -0.15974186
vn -0.37406552 0.800833 -0.46769813
vn -0.17490745 0.94308877 -0.28282666
vn -0.1464563 0.94308877 -0.29855335
vn -0.20335859 0.97154 -0.12147167
vn -0.20335859 0.8861865 -0.41631576
vn -0.40251672 0.8577353 -0.31979758
vn -0.28871214 0.94308877 -0.16501161
vn -0.23180974 0.8577353 -0.45886216
vn -0.37406552 0.8292842 -0.41516593
vn -0.31716323 0.9146377 -0.25068986
vn -0.28871214 0.94308877 -0.16501161
vn -0.17490745 0.9146377 -0.36447948
vn 0.05270183 0.97154 -0.23093858
vn 0.13805532 0.97154 -0.1924858
vn -0.0609896 0.9981384 -0
vn -0.23180974 0.97154 0.04872731
vn -0.25876114 0.9659413 -0
vn -0.1464563 0.97154 0.18617368
vn -0.061102808 0.97154 -0.22885914
vn 0.05270183 0.7723819 -0.6329682
vn -0.17490745 0.800833 -0.5727774
vn -0.17490745 0.9146377 -0.36447948
vn -0.26026094 0.94308877 -0.20699713
vn -0.28871214 0.94308877 -0.16501161
vn -0.17490745 0.97154 0.15974186
vn -0.34561443 0.9146377 -0.20973456
vn -0.40251672 0.8577353 -0.31979758
vn -0.28871214 0.8861865 -0.36237937
vn -0.48787022 0.8292842 -0.27252603
vn -0.34561443 0.9146377 -0.20973456
vn -0.6016749 0.7723819 -0.2035029
vn -0.5447725 0.8292842 -0.12454187
vn -0.6870284 0.7154795 -0.12681125
vn -0.23180974 0.94308877 -0.23842779
vn -0.08955395 0.8292842 -0.55160475
vn -0.28871214 0.800833 -0.52470165
vn -0.1464563 0.97154 -0.18617368
vn 0.024250686 0.97154 -0.23563099
vn -0.20335859 0.8861865 -0.41631576
vn -0.26026094 0.9146377 -0.30935767
vn -0.17490745 0.94308877 -0.28282666
vn -0.28871214 0.94308877 -0.16501161
vn -0.26026094 0.94308877 -0.20699713
vn -0.34561443 0.8861865 -0.30858418
vn -0.28871214 0.94308877 -0.16501161
vn -0.23180974 0.94308877 -0.23842779
vn -0.20335859 0.9146377 -0.34940404
vn -0.28871214 0.8292842 -0.47846946
vn -0.43096793 0.8861865 -0.1701182
vn -0.31716323 0.9146377 -0.25068986
vn -0.1464563 0.97154 -0.18617368
vn -0.28871214 0.94308877 -0.16501161
vn -0.1180051 0.8577353 -0.5003649
vn -0.1464563 0.9146377 -0.37681356
vn -0.28871214 0.9146377 -0.28298974
vn -0.5732237 0.7154795 -0.39937913
vn -0.40251672 0.9146377 -0.037658643
vn -0.34561443 0.7439307 -0.57194215
vn -0.061102808 0.94308877 -0.32687914
vn -0.0042004585 0.97154 -0.23683843
vn -0.1180051 0.8861865 -0.44804946
vn -0.061102808 0.97154 -0.22885914
vn -0.40251672 0.8861865 -0.22946413
vn 0.16650653 0.1180051 0.9789537
vn 0.081153035 0.0042004585 0.9966928
vn 0.081153035 0.061102808 0.9948269
vn 0.081153035 0.1180051 0.9896914
vn 0.19495767 0.1180051 0.97368693
vn 0.28031117 0.08955395 0.95572263
vn 0.05270183 0.1180051 0.9916135
vn -0.17490745 0.17490745 0.9689245
vn 0.3372135 0.08955395 0.9371591
vn -0.23180974 0.23180974 0.94473726
vn 0.25185996 0.1180051 0.96054226
vn 0.45101812 0.1464563 0.8804165
vn 0.3087623 0.20335859 0.9291454
vn 0.50792044 0.20335859 0.8370556
vn -0.17490745 0.17490745 0.9689245
vn -0.23180974 0.20335859 0.95126736
vn -0.23180974 0.20335859 0.95126736
vn -0.17490745 0.20335859 0.9633549
vn -0.17490745 0.23180974 0.95690733
vn -0.6016749 0.17490745 0.7793553
vn -0.6870284 0.40251672 0.60495645
vn -0.8292842 0.17490745 0.5307496
vn -0.7723819 0.26026094 0.57938796
vn -0.7439307 0.43096793 0.5107189
vn -0.800833 0.43096793 0.41585237
vn -0.800833 0.20335859 0.56330436
vn -0.8577353 0.28871214 0.42536515
vn -0.800833 0.31716323 0.50800985
vn -0.7439307 0.1464563 0.6520105
vn -0.8577353 0.26026094 0.44334462
vn -0.9146377 0.40251672 0.03765884
vn -0.5163214 0.23180974 0.8244249
vn -0.8577353 0.28871214 0.42536515
vn -0.8577353 0.26026094 0.44334462
vn -0.08955395 -0.22340882 0.97060215
vn -0.8292842 0.5163214 0.21377541
vn -0.40251672 -0.05270183 0.9138943
vn -0.5163214 -0.7355297 0.4386436
vn -0.7154795 0.34561443 0.6071571
vn -0.6870284 0.032651603 0.7258966
vn -0.94308877 0.1464563 0.29855335
vn -0.99946743 0.0326345 -0
vn -0.94308877 0.26026094 -0.20699708
vn -0.8577353 0.40251672 0.3197976
vn -0.6585772 0.26026094 0.7060739
vn -0.5732237 0.34561443 0.74294364
vn -0.6585772 0.48787022 0.5729387
vn -0.7154795 0.23180974 0.6590549
vn -0.5732237 0.459419 0.6784901
vn -0.800833 0.23180974 0.5522054
vn -0.8577353 0.17490745 0.4834228
vn -0.8577353 0.17490745 0.4834228
vn -0.6016749 0.26026094 0.75515
vn -0.7439307 0.20335859 0.63656294
vn -0.8292842 0.5447725 0.12454187
vn -0.6016749 0.34561443 0.7200958
vn -0.630126 0.1464563 0.7625561
vn -0.459419 0.20335859 0.86462677
vn -0.8292842 0.5447725 0.12454187
vn -0.8292842 0.5447725 0.12454187
vn -0.8577353 0.31716323 0.4045957
vn -0.8292842 0.5447725 0.12454187
vn -0.800833 0.43096793 0.41585237
vn -0.800833 0.43096793 0.41585237
vn -0.8577353 0.48787022 -0.16208906
vn -0.8567516 0.5157293 -0
vn -0.94308877 0.31716323 0.09995513
vn -0.9146377 0.40251672 0.03765884
vn -0.800833 0.5732237 -0.1734391
vn -0.8577353 0.48787022 0.16208906
vn -0.9146377 0.37406552 -0.15333912
vn -0.8292842 0.5447725 -0.12454187
vn -0.5447725 0.20335859 -0.81355286
vn -0.630126 0.17490745 -0.75653726
vn -0.9659413 0.25876114 -0
vn -0.6585772 0.1464563 -0.7381237
vn -0.6585772 0.459419 -0.5959952
vn -0.7994965 0.6006708 -0
vn -0.8567516 0.5157293 -0
vn -0.7994965 0.6006708 -0
vn -0.822608 0.56860894 -0
vn -0.8567516 0.5157293 -0
vn -0.97154 0.23180974 0.04872712
vn -0.7723819 0.5163214 -0.36991668
vn -0.8292842 0.5163214 -0.21377541
vn -0.37406552 0.20335859 -0.90483165
vn -0.459419 0.37406552 -0.8056111
vn -0.800833 0.5163214 -0.30344474
vn -0.459419 0.37406552 -0.8056111
vn -0.97154 0.23180974 -0.04872712
vn -0.9894446 0.14491168 -0
vn -0.8861865 0.31716323 -0.33775878
vn -0.97154 0.17490745 -0.15974188
vn -0.97154 0.17490745 0.15974188
vn -0.97154 0.20335859 -0.12147167
vn -0.8861865 0.26026094 -0.38332462
vn -0.43096793 0.28871214 -0.8549339
vn -0.43096793 0.1464563 -0.89040285
vn -0.9146377 0.23180974 -0.33121315
vn -0.7154795 0.1464563 -0.6831103
vn -0.43096793 0.1464563 -0.89040285
vn -0.800833 0.5732237 -0.1734391
vn -0.8292842 0.5447725 -0.12454187
vn -0.822608 0.56860894 -0
vn -0.7723819 0.5732237 0.2735704
vn -0.459419 0.31716323 0.8296636
vn -0.5447725 0.1464563 0.82569575
vn -0.8577353 0.34561443 0.38057965
vn -0.37406552 -0.7639809 0.52574533
vn -0.94308877 0.31716323 -0.09995513
vn -0.8292842 0.43096793 -0.35574484
vn -0.97154 0.1464563 -0.18617368
vn -0.9981384 0.0609896 -0
vn -0.99310917 0.117192976 -0
vn -0.97154 0.08955395 -0.21929473
vn -0.8292842 0.5163214 -0.21377541
vn -0.800833 0.40251672 -0.44344878
vn -0.5163214 0.17490745 0.8383433
vn -0.7723819 0.630126 -0.0797959
vn -0.43096793 0.26026094 0.8640202
vn -0.7439307 0.630126 -0.22250468
vn -0.7439307 0.630126 -0.22250468
vn -0.7723819 0.6016749 -0.20350297
vn -0.800833 0.5732237 -0.1734391
vn -0.7994965 0.6006708 -0
vn -0.7439307 0.37406552 -0.5537528
vn -0.800833 0.0042004585 -0.598873
vn -0.8292842 0.08955395 -0.55160475
vn -0.7439307 0.08955395 -0.66222894
vn -0.8861865 0.17490745 -0.4290465
vn -0.6870284 0.17490745 -0.70526546
vn -0.8861865 0.20335859 -0.41631576
vn -0.6870284 0.1464563 -0.711718
vn -0.7723819 0.20335859 -0.60172373
vn -0.6585772 0.20335859 -0.72451454
vn -0.97154 0.1464563 -0.18617368
vn -0.97154 0.23180974 -0.04872712
vn -0.97154 0.20335859 0.12147167
vn -0.8577353 0.08955395 0.5062315
vn -0.34561443 -0.024250686 0.9380632
vn -0.43096793 0.061102808 0.9002961
vn -0.6016749 -0.081153035 0.7946077
vn -0.94308877 0.032651603 0.33093417
vn -0.6016749 -0.19495767 0.7745829
vn -0.8577353 0.20335859 0.47216046
vn -0.6870284 0.1464563 0.711718
vn -0.28871214 0.8577353 -0.42536515
vn -0.8577353 0.48787022 -0.16208906
vn -0.97154 0.0042004585 0.23683843
vn -0.97154 0.0042004585 0.23683843
vn -0.97154 0.0042004585 0.23683843
vn -0.97154 0.0042004585 0.23683843
vn -0.6870284 0.0042004585 -0.72661847
vn -0.6585772 0.0042004585 -0.7525014
vn -0.6870284 0.0042004585 -0.72661847
vn -0.630126 0.0042004585 -0.7764815
vn -0.5447725 0.0042004585 -0.83857334
vn -0.0042004585 0.9999912 -0
vn -0.0042004585 0.9999912 -0
vn -0.0042004585 0.9999912 -0
vn -0.0042004585 0.9999912 -0
vn -0.0042004585 0.9999912 -0
vn -0.0326345 0.99946743 -0
vn -0.0609896 0.9981384 -0
vn -0.08919777 0.99601394 -0
vn -0.7994965 0.6006708 -0
vn -0.0042004585 0.9999912 -0
vn -0.8292842 0.48787022 -0.27252597
vn -0.25876114 0.9659413 -0
vn -0.0042004585 0.9999912 -0
vn -0.9146377 0.37406552 -0.15333912
vn -0.25876114 0.9659413 -0
vn -0.0042004585 0.9999912 -0
vn -0.93893576 0.34409246 -0
vn -0.20335859 0.97154 0.12147167
vn -0.0042004585 0.9999912 -0
vn -0.8577353 0.43096793 0.28027996
vn -0.25876114 0.9659413 -0
vn -0.0326345 0.99946743 -0
vn 0.052629255 0.9986141 -0
vn 0.19495767 0.97154 -0.1345421
vn -0.34409246 0.93893576 -0
vn -0.31716323 0.8861865 -0.33775884
vn -0.032651603 0.9146377 -0.40295377
vn -0.23180974 0.94308877 -0.23842779
vn -0.25876114 0.9659413 -0
vn -0.25876114 0.9659413 -0
vn -0.23180974 0.97154 -0.04872731
vn -0.23180974 0.97154 -0.04872731
vn -0.23180974 0.97154 0.04872731
vn -0.0042004585 0.9999912 -0
vn -0.4262425 0.90460896 -0
vn 0.13805532 0.97154 -0.1924858
vn 0.45101812 0.8861865 -0.106095046
vn 0.081153035 0.97154 -0.22254044
vn 0.16650653 0.9146377 -0.36839306
vn 0.13805532 0.94308877 -0.30252975
vn -0.459419 0.8861865 0.06006405
vn -0.459419 0.8861865 0.06006405
vn -0.459419 0.8861865 0.06006405
vn -0.43096793 0.8861865 0.1701182
vn -0.36869562 0.92955023 -0
vn -0.31716323 0.94308877 -0.09995524
vn -0.2848578 0.9585698 -0
vn -0.56860894 0.822608 -0
vn -0.48227364 0.8760206 -0
vn -0.40251672 0.9146377 -0.037658643
vn -0.26026094 0.94308877 -0.20699713
vn -0.25876114 0.9659413 -0
vn -0.23180974 0.97154 -0.04872731
vn -0.25876114 0.9659413 -0
vn -0.28871214 0.9146377 -0.28298974
vn -0.28871214 0.8861865 -0.36237937
vn -0.17490745 0.9146377 -0.36447948
vn -0.28871214 0.8861865 -0.36237937
vn -0.28871214 0.8861865 -0.36237937
vn -0.26026094 0.9146377 -0.30935767
vn -0.26026094 0.8861865 -0.38332465
vn -0.26026094 0.8861865 -0.38332465
vn -0.23180974 0.9146377 -0.33121318
vn -0.17490745 0.94308877 -0.28282666
vn -0.08955395 0.94308877 -0.32025555
vn -0.08955395 0.94308877 -0.32025555
vn -0.08955395 0.94308877 -0.32025555
vn -0.08955395 0.94308877 -0.32025555
vn -0.08955395 0.94308877 -0.32025555
vn -0.1180051 0.94308877 -0.31089926
vn -0.1464563 0.9146377 -0.37681356
vn -0.08955395 0.459419 0.8836935
vn -0.17490745 0.6016749 0.7793553
vn 0.05270183 0.5732237 0.81770235
vn -0.032651603 0.800833 0.597997
vn -0.08955395 0.5732237 0.81449044
vn -0.032651603 0.94308877 0.33093414
vn -0.5732237 0.7723819 0.27357045
vn -0.032651603 0.94308877 0.33093414
vn -0.1180051 0.6870284 0.7169845
vn -0.1180051 0.5447725 0.8302396
vn -0.7723819 0.26026094 0.57938796
vn -0.9146377 0.31716323 0.25068983
vn -0.9146377 0.31716323 0.25068983
vn -0.9146377 0.31716323 0.25068983
vn -0.9146377 0.31716323 0.25068983
vn -0.9146377 0.31716323 0.25068983
vn -0.9146377 0.31716323 0.25068983
vn -0.0609896 0.9981384 -0
vn -0.0609896 0.9981384 -0
vn -0.0609896 0.9981384 -0
vn -0.0609896 0.9981384 -0
vn -0.0609896 0.9981384 -0
vn -0.9146377 0.28871214 0.28298974
vn -0.9146377 0.34561443 0.2097345
vn -0.8861865 0.34561443 0.30858415
vn -0.9146377 0.17490745 0.36447948
vn -0.94308877 0.1464563 0.29855335
vn -0.31716323 0.08955395 0.9441332
vn -0.94308877 0.1464563 0.29855335
vn -0.9146377 0.1464563 0.37681356
vn -0.31716323 0.1464563 0.93699414
vn -0.97154 0.17490745 0.15974188
vn -0.8861865 0.459419 -0.06006405
vn -0.31716323 0.26026094 0.9119604
vn -0.8577353 0.48787022 -0.16208906
vn -0.8292842 0.48787022 0.27252597
vn -0.28871214 0.23180974 0.92892927
vn -0.8861865 0.43096793 -0.17011811
vn -0.7723819 0.34561443 0.53289473
vn -0.94308877 0.28871214 -0.16501163
vn 0.19495767 0.5447725 0.8156068
vn 0.16650653 0.6016749 0.78119326
vn 0.19495767 0.5732237 0.7958681
vn 0.22340882 0.48787022 0.8438431
vn 0.22340882 0.48787022 0.8438431
g tb_geo_section_11_mesh_0
f 3/3/3 2/2/2 1/1/1
f 2/2/2 5/5/5 4/4/4
f 5/5/5 6/6/6 4/4/4
f 5/5/5 7/7/7 6/6/6
f 5/5/5 8/8/8 7/7/7
f 5/5/5 9/9/9 8/8/8
f 5/5/5 10/10/10 9/9/9
f 9/9/9 11/11/11 8/8/8
f 9/9/9 12/12/12 11/11/11
f 15/15/15 14/14/14 13/13/13
f 16/16/16 15/15/15 13/13/13
f 16/16/16 17/17/17 15/15/15
f 17/17/17 18/18/18 15/15/15
f 19/19/19 18/18/18 17/17/17
f 19/19/19 20/20/20 18/18/18
f 21/21/21 20/20/20 19/19/19
f 21/21/21 22/22/22 20/20/20
f 22/22/22 23/23/23 20/20/20
f 22/22/22 24/24/24 23/23/23
f 24/24/24 25/25/25 23/23/23
f 24/24/24 26/26/26 25/25/25
f 26/26/26 27/27/27 25/25/25
f 27/27/27 28/28/28 25/25/25
f 28/28/28 29/29/29 25/25/25
f 28/28/28 30/30/30 29/29/29
f 33/33/33 32/32/32 31/31/31
f 34/34/34 33/33/33 31/31/31
f 34/34/34 31/31/31 35/35/35
f 36/36/36 33/33/33 34/34/34
f 37/37/37 34/34/34 35/35/35
f 38/38/38 36/36/36 34/34/34
f 34/34/34 37/37/37 38/38/38
f 37/37/37 35/35/35 39/39/39
f 35/35/35 40/40/40 39/39/39
f 37/37/37 39/39/39 41/41/41
f 42/42/42 37/37/37 41/41/41
f 37/37/37 42/42/42 38/38/38
f 42/42/42 41/41/41 43/43/43
f 44/44/44 42/42/42 43/43/43
f 38/38/38 42/42/42 44/44/44
f 44/44/44 43/43/43 45/45/45
f 44/44/44 45/45/45 46/46/46
f 36/36/36 38/38/38 47/47/47
f 47/47/47 38/38/38 44/44/44
f 47/47/47 44/44/44 46/46/46
f 48/48/48 36/36/36 47/47/47
f 47/47/47 46/46/46 48/48/48
f 51/51/51 50/50/50 49/49/49
f 52/52/52 51/51/51 49/49/49
f 49/49/49 53/53/53 52/52/52
f 52/52/52 54/54/54 51/51/51
f 53/53/53 55/55/55 52/52/52
f 53/53/53 56/56/56 55/55/55
f 54/54/54 52/52/52 57/57/57
f 55/55/55 57/57/57 52/52/52
f 54/54/54 57/57/57 58/58/58
f 56/56/56 59/59/59 55/55/55
f 55/55/55 59/59/59 57/57/57
f 57/57/57 60/60/60 58/58/58
f 60/60/60 57/57/57 59/59/59
f 59/59/59 56/56/56 60/60/60
f 60/60/60 61/61/61 58/58/58
f 56/56/56 62/62/62 60/60/60
f 60/60/60 62/62/62 61/61/61
f 62/62/62 63/63/63 61/61/61
f 66/66/66 65/65/65 64/64/64
f 67/67/67 66/66/66 64/64/64
f 68/68/68 66/66/66 67/67/67
f 67/67/67 64/64/64 69/69/69
f 67/67/67 69/69/69 70/70/70
f 70/70/70 68/68/68 67/67/67
f 69/69/69 71/71/71 70/70/70
f 68/68/68 70/70/70 71/71/71
f 72/72/72 69/69/69 64/64/64
f 73/73/73 68/68/68 71/71/71
f 74/74/74 72/72/72 64/64/64
f 75/75/75 74/74/74 64/64/64
f 74/74/74 76/76/76 72/72/72
f 76/76/76 77/77/77 72/72/72
f 77/77/77 69/69/69 72/72/72
f 77/77/77 76/76/76 78/78/78
f 76/76/76 79/79/79 78/78/78
f 78/78/78 79/79/79 80/80/80
f 77/77/77 78/78/78 81/81/81
f 69/69/69 77/77/77 81/81/81
f 78/78/78 82/82/82 81/81/81
f 82/82/82 78/78/78 80/80/80
f 82/82/82 83/83/83 81/81/81
f 82/82/82 80/80/80 84/84/84
f 82/82/82 84/84/84 83/83/83
f 80/80/80 85/85/85 84/84/84
f 84/84/84 86/86/86 83/83/83
f 84/84/84 85/85/85 87/87/87
f 84/84/84 87/87/87 86/86/86
f 85/85/85 88/88/88 87/87/87
f 87/87/87 89/89/89 86/86/86
f 87/87/87 88/88/88 90/90/90
f 87/87/87 90/90/90 89/89/89
f 88/88/88 91/91/91 90/90/90
f 90/90/90 92/92/92 89/89/89
f 90/90/90 91/91/91 93/93/93
f 90/90/90 93/93/93 92/92/92
f 91/91/91 94/94/94 93/93/93
f 95/95/95 93/93/93 94/94/94
f 96/96/96 95/95/95 94/94/94
f 97/97/97 95/95/95 96/96/96
f 98/98/98 97/97/97 96/96/96
f 99/99/99 95/95/95 97/97/97
f 95/95/95 99/99/99 100/100/100
f 93/93/93 95/95/95 100/100/100
f 93/93/93 100/100/100 92/92/92
f 92/92/92 100/100/100 101/101/101
f 100/100/100 102/102/102 101/101/101
f 100/100/100 103/103/103 102/102/102
f 104/104/104 92/92/92 101/101/101
f 92/92/92 104/104/104 105/105/105
f 104/104/104 106/106/106 105/105/105
f 105/105/105 106/106/106 107/107/107
f 106/106/106 108/108/108 107/107/107
f 107/107/107 108/108/108 109/109/109
f 112/112/112 111/111/111 110/110/110
f 111/111/111 113/113/113 110/110/110
f 110/110/110 113/113/113 114/114/114
f 113/113/113 115/115/115 114/114/114
f 114/114/114 115/115/115 116/116/116
f 115/115/115 117/117/117 116/116/116
f 111/111/111 118/118/118 113/113/113
f 119/119/119 115/115/115 113/113/113
f 118/118/118 119/119/119 113/113/113
f 119/119/119 120/120/120 115/115/115
f 118/118/118 120/120/120 119/119/119
f 115/115/115 120/120/120 121/121/121
f 120/120/120 122/122/122 121/121/121
f 118/118/118 123/123/123 120/120/120
f 121/121/121 122/122/122 124/124/124
f 125/125/125 121/121/121 124/124/124
f 124/124/124 126/126/126 125/125/125
f 124/124/124 127/127/127 126/126/126
f 123/123/123 118/118/118 128/128/128
f 118/118/118 111/111/111 129/129/129
f 128/128/128 118/118/118 129/129/129
f 129/129/129 111/111/111 130/130/130
f 131/131/131 129/129/129 130/130/130
f 131/131/131 132/132/132 129/129/129
f 128/128/128 129/129/129 133/133/133
f 132/132/132 134/134/134 129/129/129
f 135/135/135 128/128/128 133/133/133
f 136/136/136 134/134/134 132/132/132
f 136/136/136 135/135/135 133/133/133
f 137/137/137 136/136/136 132/132/132
f 138/138/138 135/135/135 136/136/136
f 139/139/139 136/136/136 137/137/137
f 139/139/139 138/138/138 136/136/136
f 140/140/140 139/139/139 137/137/137
f 140/140/140 141/141/141 139/139/139
f 139/139/139 142/142/142 138/138/138
f 141/141/141 142/142/142 139/139/139
f 142/142/142 143/143/143 138/138/138
f 144/144/144 143/143/143 142/142/142
f 142/142/142 141/141/141 145/145/145
f 141/141/141 146/146/146 145/145/145
f 145/145/145 146/146/146 147/147/147
f 146/146/146 148/148/148 147/147/147
f 149/149/149 144/144/144 142/142/142
f 144/144/144 149/149/149 150/150/150
f 144/144/144 150/150/150 151/151/151
f 152/152/152 144/144/144 151/151/151
f 152/152/152 153/153/153 144/144/144
f 152/152/152 151/151/151 154/154/154
f 154/154/154 151/151/151 155/155/155
f 153/153/153 152/152/152 156/156/156
f 154/154/154 156/156/156 152/152/152
f 157/157/157 153/153/153 156/156/156
f 157/157/157 156/156/156 158/158/158
f 156/156/156 159/159/159 158/158/158
f 159/159/159 156/156/156 154/154/154
f 158/158/158 159/159/159 160/160/160
f 160/160/160 159/159/159 154/154/154
f 161/161/161 158/158/158 160/160/160
f 162/162/162 154/154/154 155/155/155
f 162/162/162 160/160/160 154/154/154
f 160/160/160 162/162/162 161/161/161
f 163/163/163 162/162/162 155/155/155
f 162/162/162 164/164/164 161/161/161
f 162/162/162 163/163/163 164/164/164
f 167/167/167 166/166/166 165/165/165
f 168/168/168 167/167/167 165/165/165
f 168/168/168 169/169/169 167/167/167
f 169/169/169 170/170/170 167/167/167
f 169/169/169 171/171/171 170/170/170
f 171/171/171 172/172/172 170/170/170
f 172/172/172 171/171/171 173/173/173
f 171/171/171 174/174/174 173/173/173
f 174/174/174 175/175/175 173/173/173
f 175/175/175 176/176/176 173/173/173
f 179/179/179 178/178/178 177/177/177
f 179/179/179 177/177/177 180/180/180
f 177/177/177 181/181/181 180/180/180
f 179/179/179 180/180/180 182/182/182
f 183/183/183 179/179/179 182/182/182
f 180/180/180 184/184/184 182/182/182
f 184/184/184 185/185/185 182/182/182
f 184/184/184 186/186/186 185/185/185
f 186/186/186 187/187/187 185/185/185
f 186/186/186 188/188/188 187/187/187
f 188/188/188 189/189/189 187/187/187
f 188/188/188 190/190/190 189/189/189
f 190/190/190 191/191/191 189/189/189
f 190/190/190 192/192/192 191/191/191
f 192/192/192 193/193/193 191/191/191
f 188/188/188 194/194/194 190/190/190
f 194/194/194 192/192/192 190/190/190
f 192/192/192 195/195/195 193/193/193
f 195/195/195 196/196/196 193/193/193
f 197/197/197 192/192/192 194/194/194
f 197/197/197 195/195/195 192/192/192
f 195/195/195 198/198/198 196/196/196
f 198/198/198 199/199/199 196/196/196
f 198/198/198 200/200/200 199/199/199
f 201/201/201 200/200/200 198/198/198
f 200/200/200 202/202/202 199/199/199
f 203/203/203 202/202/202 200/200/200
f 204/204/204 203/203/203 200/200/200
f 200/200/200 205/205/205 204/204/204
f 200/200/200 206/206/206 205/205/205
f 206/206/206 207/207/207 205/205/205
f 206/206/206 208/208/208 207/207/207
f 209/209/209 208/208/208 206/206/206
f 210/210/210 198/198/198 195/195/195
f 197/197/197 210/210/210 195/195/195
f 210/210/210 201/201/201 198/198/198
f 211/211/211 210/210/210 197/197/197
f 212/212/212 206/206/206 200/200/200
f 201/201/201 212/212/212 200/200/200
f 213/213/213 209/209/209 206/206/206
f 213/213/213 214/214/214 209/209/209
f 215/215/215 214/214/214 213/213/213
f 212/212/212 216/216/216 206/206/206
f 216/216/216 213/213/213 206/206/206
f 217/217/217 215/215/215 213/213/213
f 217/217/217 213/213/213 216/216/216
f 218/218/218 215/215/215 217/217/217
f 216/216/216 212/212/212 219/219/219
f 201/201/201 219/219/219 212/212/212
f 216/216/216 220/220/220 217/217/217
f 220/220/220 216/216/216 219/219/219
f 218/218/218 217/217/217 221/221/221
f 220/220/220 221/221/221 217/217/217
f 222/222/222 218/218/218 221/221/221
f 223/223/223 220/220/220 219/219/219
f 224/224/224 221/221/221 220/220/220
f 223/223/223 224/224/224 220/220/220
f 225/225/225 224/224/224 223/223/223
f 226/226/226 224/224/224 225/225/225
f 227/227/227 221/221/221 224/224/224
f 227/227/227 222/222/222 221/221/221
f 226/226/226 227/227/227 224/224/224
f 228/228/228 223/223/223 219/219/219
f 201/201/201 228/228/228 219/219/219
f 229/229/229 222/222/222 227/227/227
f 230/230/230 222/222/222 229/229/229
f 227/227/227 231/231/231 229/229/229
f 232/232/232 231/231/231 227/227/227
f 226/226/226 232/232/232 227/227/227
f 225/225/225 223/223/223 233/233/233
f 233/233/233 223/223/223 228/228/228
f 234/234/234 225/225/225 233/233/233
f 234/234/234 233/233/233 235/235/235
f 236/236/236 233/233/233 228/228/228
f 235/235/235 233/233/233 236/236/236
f 201/201/201 237/237/237 228/228/228
f 236/236/236 228/228/228 238/238/238
f 228/228/228 237/237/237 238/238/238
f 239/239/239 235/235/235 236/236/236
f 239/239/239 236/236/236 238/238/238
f 201/201/201 240/240/240 237/237/237
f 240/240/240 201/201/201 210/210/210
f 240/240/240 210/210/210 211/211/211
f 237/237/237 240/240/240 241/241/241
f 241/241/241 240/240/240 211/211/211
f 242/242/242 237/237/237 241/241/241
f 242/242/242 238/238/238 237/237/237
f 242/242/242 241/241/241 211/211/211
f 242/242/242 243/243/243 238/238/238
f 243/243/243 239/239/239 238/238/238
f 244/244/244 242/242/242 211/211/211
f 243/243/243 242/242/242 244/244/244
f 245/245/245 243/243/243 244/244/244
f 246/246/246 239/239/239 243/243/243
f 245/245/245 246/246/246 243/243/243
f 247/247/247 235/235/235 239/239/239
f 246/246/246 247/247/247 239/239/239
f 248/248/248 247/247/247 246/246/246
f 249/249/249 248/248/248 246/246/246
f 245/245/245 249/249/249 246/246/246
f 235/235/235 247/247/247 250/250/250
f 250/250/250 251/251/251 235/235/235
f 245/245/245 252/252/252 249/249/249
f 251/251/251 253/253/253 235/235/235
f 253/253/253 234/234/234 235/235/235
f 253/253/253 251/251/251 254/254/254
f 255/255/255 253/253/253 254/254/254
f 253/253/253 255/255/255 234/234/234
f 256/256/256 255/255/255 254/254/254
f 256/256/256 254/254/254 257/257/257
f 258/258/258 256/256/256 257/257/257
f 256/256/256 258/258/258 259/259/259
f 256/256/256 259/259/259 255/255/255
f 258/258/258 260/260/260 259/259/259
f 252/252/252 245/245/245 261/261/261
f 262/262/262 252/252/252 261/261/261
f 263/263/263 252/252/252 262/262/262
f 263/263/263 262/262/262 264/264/264
f 265/265/265 263/263/263 264/264/264
f 266/266/266 265/265/265 264/264/264
f 266/266/266 264/264/264 267/267/267
f 268/268/268 265/265/265 266/266/266
f 269/269/269 268/268/268 266/266/266
f 264/264/264 262/262/262 270/270/270
f 262/262/262 261/261/261 270/270/270
f 264/264/264 270/270/270 267/267/267
f 270/270/270 261/261/261 271/271/271
f 270/270/270 271/271/271 267/267/267
f 245/245/245 272/272/272 261/261/261
f 261/261/261 272/272/272 271/271/271
f 272/272/272 245/245/245 273/273/273
f 272/272/272 273/273/273 271/271/271
f 245/245/245 244/244/244 273/273/273
f 273/273/273 274/274/274 271/271/271
f 271/271/271 274/274/274 267/267/267
f 273/273/273 244/244/244 275/275/275
f 274/274/274 273/273/273 275/275/275
f 275/275/275 244/244/244 276/276/276
f 244/244/244 211/211/211 276/276/276
f 274/274/274 275/275/275 277/277/277
f 274/274/274 277/277/277 267/267/267
f 275/275/275 276/276/276 277/277/277
f 276/276/276 211/211/211 278/278/278
f 278/278/278 211/211/211 197/197/197
f 278/278/278 197/197/197 194/194/194
f 279/279/279 276/276/276 278/278/278
f 277/277/277 276/276/276 279/279/279
f 280/280/280 278/278/278 194/194/194
f 279/279/279 278/278/278 280/280/280
f 280/280/280 194/194/194 188/188/188
f 281/281/281 280/280/280 188/188/188
f 281/281/281 279/279/279 280/280/280
f 281/281/281 188/188/188 186/186/186
f 282/282/282 279/279/279 281/281/281
f 282/282/282 277/277/277 279/279/279
f 282/282/282 281/281/281 186/186/186
f 267/267/267 277/277/277 283/283/283
f 283/283/283 277/277/277 282/282/282
f 284/284/284 282/282/282 186/186/186
f 284/284/284 283/283/283 282/282/282
f 184/184/184 284/284/284 186/186/186
f 285/285/285 267/267/267 283/283/283
f 285/285/285 283/283/283 284/284/284
f 266/266/266 267/267/267 285/285/285
f 286/286/286 285/285/285 284/284/284
f 286/286/286 284/284/284 184/184/184
f 286/286/286 266/266/266 285/285/285
f 287/287/287 286/286/286 184/184/184
f 180/180/180 287/287/287 184/184/184
f 266/266/266 286/286/286 288/288/288
f 286/286/286 287/287/287 288/288/288
f 266/266/266 288/288/288 269/269/269
f 269/269/269 288/288/288 181/181/181
f 181/181/181 289/289/289 180/180/180
f 180/180/180 289/289/289 287/287/287
f 288/288/288 290/290/290 181/181/181
f 288/288/288 287/287/287 290/290/290
f 289/289/289 181/181/181 290/290/290
f 287/287/287 289/289/289 290/290/290
f 293/293/293 292/292/292 291/291/291
f 294/294/294 293/293/293 291/291/291
f 294/294/294 291/291/291 295/295/295
f 291/291/291 296/296/296 295/295/295
f 297/297/297 294/294/294 295/295/295
f 297/297/297 295/295/295 298/298/298
f 296/296/296 299/299/299 295/295/295
f 300/300/300 297/297/297 298/298/298
f 295/295/295 299/299/299 301/301/301
f 298/298/298 295/295/295 301/301/301
f 299/299/299 302/302/302 301/301/301
f 301/301/301 302/302/302 303/303/303
f 298/298/298 301/301/301 303/303/303
f 302/302/302 304/304/304 303/303/303
f 305/305/305 298/298/298 303/303/303
f 298/298/298 305/305/305 306/306/306
f 300/300/300 298/298/298 307/307/307
f 307/307/307 298/298/298 306/306/306
f 308/308/308 300/300/300 307/307/307
f 307/307/307 306/306/306 309/309/309
f 308/308/308 307/307/307 310/310/310
f 310/310/310 307/307/307 309/309/309
f 310/310/310 309/309/309 311/311/311
f 312/312/312 308/308/308 310/310/310
f 313/313/313 310/310/310 311/311/311
f 314/314/314 313/313/313 311/311/311
f 313/313/313 314/314/314 315/315/315
f 312/312/312 310/310/310 316/316/316
f 310/310/310 313/313/313 316/316/316
f 317/317/317 313/313/313 315/315/315
f 316/316/316 313/313/313 317/317/317
f 317/317/317 315/315/315 73/73/73
f 71/71/71 317/317/317 73/73/73
f 317/317/317 71/71/71 318/318/318
f 318/318/318 316/316/316 317/317/317
f 319/319/319 312/312/312 316/316/316
f 312/312/312 319/319/319 320/320/320
f 71/71/71 321/321/321 318/318/318
f 69/69/69 321/321/321 71/71/71
f 316/316/316 318/318/318 322/322/322
f 322/322/322 319/319/319 316/316/316
f 319/319/319 323/323/323 320/320/320
f 320/320/320 323/323/323 324/324/324
f 319/319/319 322/322/322 325/325/325
f 326/326/326 323/323/323 319/319/319
f 322/322/322 327/327/327 325/325/325
f 325/325/325 327/327/327 328/328/328
f 318/318/318 329/329/329 322/322/322
f 322/322/322 329/329/329 327/327/327
f 327/327/327 330/330/330 328/328/328
f 329/329/329 330/330/330 327/327/327
f 330/330/330 331/331/331 328/328/328
f 331/331/331 330/330/330 329/329/329
f 331/331/331 332/332/332 328/328/328
f 333/333/333 332/332/332 331/331/331
f 329/329/329 318/318/318 334/334/334
f 334/334/334 331/331/331 329/329/329
f 334/334/334 333/333/333 331/331/331
f 318/318/318 321/321/321 334/334/334
f 321/321/321 333/333/333 334/334/334
f 326/326/326 335/335/335 323/323/323
f 326/326/326 336/336/336 335/335/335
f 336/336/336 337/337/337 335/335/335
f 335/335/335 338/338/338 323/323/323
f 336/336/336 339/339/339 337/337/337
f 338/338/338 340/340/340 323/323/323
f 323/323/323 340/340/340 324/324/324
f 340/340/340 338/338/338 341/341/341
f 324/324/324 340/340/340 342/342/342
f 340/340/340 341/341/341 342/342/342
f 339/339/339 343/343/343 337/337/337
f 337/337/337 343/343/343 344/344/344
f 345/345/345 343/343/343 339/339/339
f 346/346/346 345/345/345 339/339/339
f 321/321/321 345/345/345 346/346/346
f 343/343/343 347/347/347 344/344/344
f 344/344/344 347/347/347 348/348/348
f 343/343/343 349/349/349 347/347/347
f 349/349/349 343/343/343 345/345/345
f 350/350/350 345/345/345 321/321/321
f 69/69/69 350/350/350 321/321/321
f 347/347/347 351/351/351 348/348/348
f 349/349/349 351/351/351 347/347/347
f 352/352/352 349/349/349 345/345/345
f 350/350/350 352/352/352 345/345/345
f 349/349/349 352/352/352 351/351/351
f 351/351/351 353/353/353 348/348/348
f 353/353/353 354/354/354 348/348/348
f 353/353/353 355/355/355 354/354/354
f 355/355/355 353/353/353 351/351/351
f 355/355/355 356/356/356 354/354/354
f 352/352/352 357/357/357 351/351/351
f 357/357/357 355/355/355 351/351/351
f 355/355/355 358/358/358 356/356/356
f 358/358/358 355/355/355 357/357/357
f 358/358/358 359/359/359 356/356/356
f 352/352/352 360/360/360 357/357/357
f 350/350/350 360/360/360 352/352/352
f 358/358/358 361/361/361 359/359/359
f 361/361/361 362/362/362 359/359/359
f 363/363/363 362/362/362 361/361/361
f 364/364/364 363/363/363 361/361/361
f 357/357/357 365/365/365 358/358/358
f 365/365/365 361/361/361 358/358/358
f 364/364/364 361/361/361 365/365/365
f 360/360/360 365/365/365 357/357/357
f 366/366/366 364/364/364 365/365/365
f 366/366/366 365/365/365 360/360/360
f 367/367/367 366/366/366 360/360/360
f 350/350/350 367/367/367 360/360/360
f 69/69/69 368/368/368 350/350/350
f 350/350/350 368/368/368 369/369/369
f 368/368/368 69/69/69 370/370/370
f 69/69/69 371/371/371 370/370/370
f 369/369/369 368/368/368 372/372/372
f 368/368/368 370/370/370 372/372/372
f 369/369/369 372/372/372 373/373/373
f 370/370/370 371/371/371 374/374/374
f 371/371/371 375/375/375 374/374/374
f 375/375/375 376/376/376 374/374/374
f 374/374/374 376/376/376 377/377/377
f 370/370/370 374/374/374 378/378/378
f 378/378/378 374/374/374 377/377/377
f 372/372/372 370/370/370 378/378/378
f 377/377/377 379/379/379 378/378/378
f 372/372/372 380/380/380 373/373/373
f 372/372/372 378/378/378 380/380/380
f 373/373/373 380/380/380 381/381/381
f 379/379/379 382/382/382 378/378/378
f 378/378/378 382/382/382 380/380/380
f 380/380/380 383/383/383 381/381/381
f 380/380/380 382/382/382 383/383/383
f 381/381/381 383/383/383 384/384/384
f 383/383/383 385/385/385 384/384/384
f 382/382/382 379/379/379 386/386/386
f 382/382/382 386/386/386 383/383/383
f 383/383/383 386/386/386 385/385/385
f 379/379/379 387/387/387 386/386/386
f 387/387/387 388/388/388 386/386/386
f 386/386/386 389/389/389 385/385/385
f 388/388/388 389/389/389 386/386/386
f 389/389/389 390/390/390 385/385/385
f 388/388/388 391/391/391 389/389/389
f 391/391/391 390/390/390 389/389/389
f 394/394/394 393/393/393 392/392/392
f 395/395/395 394/394/394 392/392/392
f 394/394/394 395/395/395 396/396/396
f 396/396/396 395/395/395 397/397/397
f 395/395/395 398/398/398 397/397/397
f 398/398/398 395/395/395 392/392/392
f 397/397/397 398/398/398 399/399/399
f 398/398/398 392/392/392 400/400/400
f 398/398/398 400/400/400 399/399/399
f 392/392/392 401/401/401 400/400/400
f 402/402/402 399/399/399 400/400/400
f 400/400/400 401/401/401 402/402/402
f 401/401/401 403/403/403 402/402/402
f 404/404/404 402/402/402 403/403/403
f 403/403/403 405/405/405 404/404/404
f 405/405/405 403/403/403 406/406/406
f 406/406/406 407/407/407 405/405/405
f 403/403/403 408/408/408 406/406/406
f 409/409/409 406/406/406 408/408/408
f 407/407/407 406/406/406 409/409/409
f 410/410/410 409/409/409 408/408/408
f 409/409/409 410/410/410 411/411/411
f 409/409/409 411/411/411 412/412/412
f 412/412/412 407/407/407 409/409/409
f 411/411/411 413/413/413 412/412/412
f 412/412/412 413/413/413 414/414/414
f 412/412/412 414/414/414 407/407/407
f 413/413/413 415/415/415 414/414/414
f 416/416/416 407/407/407 414/414/414
f 416/416/416 417/417/417 407/407/407
f 407/407/407 417/417/417 418/418/418
f 407/407/407 418/418/418 405/405/405
f 417/417/417 419/419/419 418/418/418
f 405/405/405 418/418/418 420/420/420
f 420/420/420 418/418/418 419/419/419
f 421/421/421 420/420/420 419/419/419
f 420/420/420 421/421/421 422/422/422
f 405/405/405 420/420/420 404/404/404
f 404/404/404 420/420/420 422/422/422
f 421/421/421 423/423/423 422/422/422
f 422/422/422 423/423/423 424/424/424
f 423/423/423 425/425/425 424/424/424
f 422/422/422 424/424/424 426/426/426
f 422/422/422 426/426/426 427/427/427
f 428/428/428 422/422/422 427/427/427
f 428/428/428 404/404/404 422/422/422
f 428/428/428 427/427/427 429/429/429
f 428/428/428 429/429/429 430/430/430
f 431/431/431 428/428/428 430/430/430
f 404/404/404 428/428/428 431/431/431
f 432/432/432 404/404/404 431/431/431
f 433/433/433 404/404/404 432/432/432
f 434/434/434 433/433/433 432/432/432
f 404/404/404 433/433/433 402/402/402
f 435/435/435 433/433/433 434/434/434
f 436/436/436 435/435/435 434/434/434
f 436/436/436 437/437/437 435/435/435
f 438/438/438 402/402/402 433/433/433
f 435/435/435 438/438/438 433/433/433
f 437/437/437 438/438/438 435/435/435
f 402/402/402 438/438/438 437/437/437
f 441/441/441 440/440/440 439/439/439
f 442/442/442 441/441/441 439/439/439
f 445/445/445 444/444/444 443/443/443
f 444/444/444 446/446/446 443/443/443
f 446/446/446 444/444/444 447/447/447
f 450/450/450 449/449/449 448/448/448
f 451/451/451 450/450/450 448/448/448
f 451/451/451 448/448/448 452/452/452
f 451/451/451 452/452/452 453/453/453
f 451/451/451 453/453/453 454/454/454
f 455/455/455 451/451/451 454/454/454
f 456/456/456 455/455/455 454/454/454
f 455/455/455 457/457/457 451/451/451
f 455/455/455 456/456/456 458/458/458
f 459/459/459 457/457/457 455/455/455
f 459/459/459 455/455/455 458/458/458
f 460/460/460 457/457/457 459/459/459
f 459/459/459 458/458/458 461/461/461
f 462/462/462 460/460/460 459/459/459
f 462/462/462 459/459/459 461/461/461
f 463/463/463 460/460/460 462/462/462
f 462/462/462 461/461/461 464/464/464
f 465/465/465 463/463/463 462/462/462
f 465/465/465 462/462/462 464/464/464
f 466/466/466 463/463/463 465/465/465
f 465/465/465 464/464/464 467/467/467
f 468/468/468 466/466/466 465/465/465
f 468/468/468 465/465/465 467/467/467
f 466/466/466 468/468/468 469/469/469
f 468/468/468 467/467/467 469/469/469
f 472/472/472 471/471/471 470/470/470
f 473/473/473 472/472/472 470/470/470
f 473/473/473 470/470/470 474/474/474
f 474/474/474 475/475/475 473/473/473
f 475/475/475 476/476/476 473/473/473
f 477/477/477 476/476/476 475/475/475
f 478/478/478 473/473/473 476/476/476
f 476/476/476 479/479/479 478/478/478
f 477/477/477 479/479/479 476/476/476
f 480/480/480 479/479/479 477/477/477
f 481/481/481 480/480/480 477/477/477
f 478/478/478 482/482/482 473/473/473
f 483/483/483 481/481/481 477/477/477
f 477/477/477 484/484/484 483/483/483
f 483/483/483 485/485/485 481/481/481
f 483/483/483 486/486/486 485/485/485
f 486/486/486 487/487/487 485/485/485
f 473/473/473 482/482/482 488/488/488
f 482/482/482 489/489/489 488/488/488
f 489/489/489 490/490/490 488/488/488
f 489/489/489 491/491/491 490/490/490
f 490/490/490 491/491/491 492/492/492
f 490/490/490 492/492/492 493/493/493
f 490/490/490 493/493/493 494/494/494
f 473/473/473 488/488/488 495/495/495
f 488/488/488 490/490/490 495/495/495
f 495/495/495 472/472/472 473/473/473
f 495/495/495 496/496/496 472/472/472
f 495/495/495 490/490/490 496/496/496
f 259/259/259 472/472/472 496/496/496
f 490/490/490 497/497/497 496/496/496
f 497/497/497 490/490/490 494/494/494
f 496/496/496 497/497/497 259/259/259
f 494/494/494 498/498/498 497/497/497
f 497/497/497 498/498/498 259/259/259
f 499/499/499 498/498/498 494/494/494
f 259/259/259 498/498/498 255/255/255
f 498/498/498 499/499/499 500/500/500
f 499/499/499 501/501/501 500/500/500
f 500/500/500 501/501/501 502/502/502
f 500/500/500 502/502/502 503/503/503
f 255/255/255 498/498/498 504/504/504
f 498/498/498 500/500/500 504/504/504
f 504/504/504 500/500/500 503/503/503
f 504/504/504 503/503/503 505/505/505
f 255/255/255 504/504/504 234/234/234
f 234/234/234 504/504/504 505/505/505
f 234/234/234 505/505/505 506/506/506
f 225/225/225 234/234/234 506/506/506
f 507/507/507 225/225/225 506/506/506
f 508/508/508 225/225/225 507/507/507
f 508/508/508 509/509/509 225/225/225
f 509/509/509 508/508/508 510/510/510
f 510/510/510 511/511/511 509/509/509
f 509/509/509 226/226/226 225/225/225
f 511/511/511 226/226/226 509/509/509
f 511/511/511 512/512/512 226/226/226
f 512/512/512 513/513/513 226/226/226
f 513/513/513 512/512/512 514/514/514
f 514/514/514 515/515/515 513/513/513
f 513/513/513 515/515/515 516/516/516
f 513/513/513 232/232/232 226/226/226
f 513/513/513 516/516/516 517/517/517
f 517/517/517 232/232/232 513/513/513
f 518/518/518 232/232/232 517/517/517
f 521/521/521 520/520/520 519/519/519
f 522/522/522 520/520/520 521/521/521
f 523/523/523 522/522/522 521/521/521
f 522/522/522 524/524/524 520/520/520
f 524/524/524 525/525/525 520/520/520
f 526/526/526 524/524/524 522/522/522
f 527/527/527 526/526/526 522/522/522
f 522/522/522 523/523/523 527/527/527
f 523/523/523 528/528/528 527/527/527
f 531/531/531 530/530/530 529/529/529
f 531/531/531 532/532/532 530/530/530
f 530/530/530 532/532/532 533/533/533
f 532/532/532 534/534/534 533/533/533
f 533/533/533 535/535/535 530/530/530
f 538/538/538 537/537/537 536/536/536
f 537/537/537 539/539/539 536/536/536
f 537/537/537 540/540/540 539/539/539
f 543/543/543 542/542/542 541/541/541
f 544/544/544 543/543/543 541/541/541
f 541/541/541 545/545/545 544/544/544
f 543/543/543 544/544/544 546/546/546
f 544/544/544 545/545/545 547/547/547
f 548/548/548 544/544/544 547/547/547
f 546/546/546 544/544/544 549/549/549
f 544/544/544 548/548/548 549/549/549
f 548/548/548 547/547/547 550/550/550
f 548/548/548 550/550/550 551/551/551
f 549/549/549 548/548/548 552/552/552
f 548/548/548 551/551/551 553/553/553
f 548/548/548 554/554/554 552/552/552
f 554/554/554 548/548/548 553/553/553
f 552/552/552 554/554/554 555/555/555
f 553/553/553 556/556/556 554/554/554
f 554/554/554 557/557/557 555/555/555
f 554/554/554 556/556/556 558/558/558
f 554/554/554 558/558/558 557/557/557
f 561/561/561 560/560/560 559/559/559
f 562/562/562 561/561/561 559/559/559
f 559/559/559 563/563/563 562/562/562
