g tb_geo_light_wall_08_mesh
v 0.019152075 0.3491261 -0.09626031
v 0.019152075 -0.3333394 -0.09626031
v -0.15578008 -0.3333394 -0.27119246
v -0.15578008 0.3491261 -0.27119246
v 0.019152075 0.3491261 0.17994833
v 0.019152075 -0.3333394 0.17994833
v 0.019152075 -0.3333394 -0.09626031
v 0.019152075 0.3491261 -0.09626031
v -0.31344914 0.3491261 0.17994833
v -0.31344914 -0.3333394 0.17994833
v 0.019152075 -0.3333394 0.17994833
v 0.019152075 0.3491261 0.17994833
v -0.5539808 0.3491261 0.42163086
v -0.5539808 -0.3333394 0.42163086
v -0.31344914 -0.3333394 0.17994833
v -0.31344914 0.3491261 0.17994833
v -0.7542321 0.3491261 0.42163086
v -0.7542321 -0.3333394 0.42163086
v -0.5539808 -0.3333394 0.42163086
v -0.5539808 0.3491261 0.42163086
v -0.8439999 0.3491261 -0.04562205
v -0.8439999 -0.3333394 -0.04562205
v -0.8439999 -0.3333394 0.32150525
v -0.8439999 0.3491261 0.32150525
v -0.5413213 0.3491261 -0.32873592
v -0.5413213 -0.3333394 -0.32873592
v -0.8439999 -0.3333394 -0.04562205
v -0.8439999 0.3491261 -0.04562205
v -0.15578008 0.3491261 -0.32873592
v -0.15578008 -0.3333394 -0.32873592
v -0.5413213 -0.3333394 -0.32873592
v -0.5413213 0.3491261 -0.32873592
v -0.15578008 0.3491261 -0.27119246
v -0.15578008 -0.3333394 -0.27119246
v -0.15578008 -0.3333394 -0.32873592
v -0.15578008 0.3491261 -0.32873592
v -0.8439999 0.3491261 0.32150525
v -0.8439999 -0.3333394 0.32150525
v -0.7542321 -0.3333394 0.42163086
v -0.7542321 0.3491261 0.42163086
vt -0.42596984 0.9994767
vt -0.42596984 0.0018612146
vt -0.7867674 0.0018612146
vt -0.7867674 0.9994767
vt -0.019826055 0.9994767
vt -0.019826055 0.0018612146
vt -0.42596984 0.0018612146
vt -0.42596984 0.9994767
vt 0.46715224 0.9994767
vt 0.46715224 0.0018612146
vt -0.019826055 0.0018612146
vt -0.019826055 0.9994767
vt 0.9659598 0.9994767
vt 0.9659598 0.0018612146
vt 0.46715224 0.0018612146
vt 0.46715224 0.9994767
vt 1.2577524 0.9994767
vt 1.2577524 0.0018612146
vt 0.9659598 0.0018612146
vt 0.9659598 0.9994767
vt 1.9931488 0.9994767
vt 1.9931488 0.0018612146
vt 1.4549096 0.0018612146
vt 1.4549096 0.9994767
vt 2.600393 0.9994767
vt 2.600393 0.0018612146
vt 1.9931488 0.0018612146
vt 1.9931488 0.9994767
vt -0.871545 0.9994767
vt -0.871545 0.0018612146
vt -1.4354146 0.0018612146
vt -1.4354146 0.9994767
vt -0.7867674 0.9994767
vt -0.7867674 0.0018612146
vt -0.871545 0.0018612146
vt -0.871545 0.9994767
vt 1.4549096 0.9994767
vt 1.4549096 0.0018612146
vt 1.2577524 0.0018612146
vt 1.2577524 0.9994767
vn -0.7141957 0.015871048 0.6997661
vn -0.7141957 0.015871048 0.6997661
vn -0.7141957 0.015871048 0.6997661
vn -0.7141957 0.015871048 0.6997661
vn -0.999874 0.015871048 -0.00034391563
vn -0.999874 0.015871048 -0.00034391563
vn -0.999874 0.015871048 -0.00034391563
vn -0.999874 0.015871048 -0.00034391563
vn -0.015871048 0.015871048 -0.99974805
vn -0.015871048 0.015871048 -0.99974805
vn -0.015871048 0.015871048 -0.99974805
vn -0.015871048 0.015871048 -0.99974805
vn -0.7141957 0.015871048 -0.6997661
vn -0.7141957 0.015871048 -0.6997661
vn -0.7141957 0.015871048 -0.6997661
vn -0.7141957 0.015871048 -0.6997661
vn -0.015871048 0.015871048 -0.99974805
vn -0.015871048 0.015871048 -0.99974805
vn -0.015871048 0.015871048 -0.99974805
vn -0.015871048 0.015871048 -0.99974805
vn 0.999874 0.015871048 -0.00034391563
vn 0.999874 0.015871048 -0.00034391563
vn 0.999874 0.015871048 -0.00034391563
vn 0.999874 0.015871048 -0.00034391563
vn 0.68245363 0.015871048 0.7307566
vn 0.68245363 0.015871048 0.7307566
vn 0.68245363 0.015871048 0.7307566
vn 0.68245363 0.015871048 0.7307566
vn -0.015871048 0.015871048 0.99974805
vn -0.015871048 0.015871048 0.99974805
vn -0.015871048 0.015871048 0.99974805
vn -0.015871048 0.015871048 0.99974805
vn -0.999874 0.015871048 -0.00034391563
vn -0.999874 0.015871048 -0.00034391563
vn -0.999874 0.015871048 -0.00034391563
vn -0.999874 0.015871048 -0.00034391563
vn 0.7459377 0.015871048 -0.66582656
vn 0.7459377 0.015871048 -0.66582656
vn 0.7459377 0.015871048 -0.66582656
vn 0.7459377 0.015871048 -0.66582656
g tb_geo_light_wall_08_mesh_0
f 3/3/3 2/2/2 1/1/1
f 4/4/4 3/3/3 1/1/1
f 7/7/7 6/6/6 5/5/5
f 8/8/8 7/7/7 5/5/5
f 11/11/11 10/10/10 9/9/9
f 12/12/12 11/11/11 9/9/9
f 15/15/15 14/14/14 13/13/13
f 16/16/16 15/15/15 13/13/13
f 19/19/19 18/18/18 17/17/17
f 20/20/20 19/19/19 17/17/17
f 23/23/23 22/22/22 21/21/21
f 24/24/24 23/23/23 21/21/21
f 27/27/27 26/26/26 25/25/25
f 28/28/28 27/27/27 25/25/25
f 31/31/31 30/30/30 29/29/29
f 32/32/32 31/31/31 29/29/29
f 35/35/35 34/34/34 33/33/33
f 36/36/36 35/35/35 33/33/33
f 39/39/39 38/38/38 37/37/37
f 40/40/40 39/39/39 37/37/37
