g tb_geo_meeple_p4c1_a_mesh
v -1.1846207 2.1071713 -0.07233608
v -0.26223254 2.1071713 0.8500527
v -1.1846215 2.1071713 0.850052
v -0.26223183 2.1071713 -0.07233536
v -1.7245374 2.1071715 -0.55474627
v -0.29166293 2.107172 -0.052757263
v -1.0627711 2.1071718 0.45340753
v -0.9534292 2.1071718 -1.060911
v -1.7447617 2.1071708 0.8426832
v -0.9640489 2.1071718 -1.1244255
v -0.9385922 2.1071715 0.83219445
v -1.7702184 2.107171 -1.1139368
v -1.43102 1.4784718 -1.9125521
v -0.7407225 1.6059806 -1.5152786
v -1.4310203 1.6059806 -1.515279
v -0.7407222 1.4784718 -1.9125516
v -1.4733038 1.391377 -2.1812842
v -1.0330045 1.4700322 -1.9362214
v -1.473304 1.4700322 -1.9362217
v -1.0330043 1.391377 -2.181284
v -1.0846502 1.3990656 -2.1549144
v -0.92861354 1.5474533 -1.6925895
v -1.256458 1.4576328 -1.9724396
v -0.7568056 1.4888861 -1.8750643
vt 0 0
vt 1 1
vt 1 0
vt 0 1
vt 0 0
vt 1 1
vt 1 0
vt 0 1
vt 0 0
vt 1 1
vt 1 0
vt 0 1
vt 0 0
vt 1 1
vt 1 0
vt 0 1
vt 0 0
vt 1 1
vt 1 0
vt 0 1
vt 0 0
vt 1 1
vt 1 0
vt 0 1
vn -5.9611985E-08 0.99999815 -2.611386E-07
vn -5.9611985E-08 0.99999815 -2.611386E-07
vn -5.9611985E-08 0.99999815 -2.611386E-07
vn -5.9611985E-08 0.99999815 -2.611386E-07
vn -3.971063E-07 1 6.61864E-08
vn -3.971063E-07 1 6.61864E-08
vn -3.971063E-07 1 6.61864E-08
vn -3.971063E-07 1 6.61864E-08
vn -9.818513E-07 1 1.5141777E-07
vn -9.818513E-07 1 1.5141777E-07
vn -9.818513E-07 1 1.5141777E-07
vn -9.818513E-07 1 1.5141777E-07
vn 2.2768627E-07 0.9521584 -0.30560496
vn 2.2768627E-07 0.9521584 -0.30560496
vn 2.2768627E-07 0.9521584 -0.30560496
vn 2.2768627E-07 0.9521584 -0.30560496
vn 2.276862E-07 0.9521584 -0.30560502
vn 2.276862E-07 0.9521584 -0.30560502
vn 2.276862E-07 0.9521584 -0.30560502
vn 2.276862E-07 0.9521584 -0.30560502
vn 6.9581426E-07 0.9521585 -0.30560458
vn 6.9581426E-07 0.9521585 -0.30560458
vn 6.9581426E-07 0.9521585 -0.30560458
vn 6.9581426E-07 0.9521585 -0.30560458
g tb_geo_meeple_p4c1_a_mesh_0
f 3/3/3 2/2/2 1/1/1
f 4/4/4 1/1/1 2/2/2
f 7/7/7 6/6/6 5/5/5
f 8/8/8 5/5/5 6/6/6
f 11/11/11 10/10/10 9/9/9
f 12/12/12 9/9/9 10/10/10
f 15/15/15 14/14/14 13/13/13
f 16/16/16 13/13/13 14/14/14
f 19/19/19 18/18/18 17/17/17
f 20/20/20 17/17/17 18/18/18
f 23/23/23 22/22/22 21/21/21
f 24/24/24 21/21/21 22/22/22
