g tb_geo_light_wall_05_mesh
v 0.03905952 0.3491431 -0.09584445
v 0.03905952 -0.3333088 -0.09584445
v 0.03905952 -0.3333088 0.19117767
v 0.03905952 0.3491431 0.19117767
v 0.30852988 0.3491431 -0.09584445
v 0.30852988 -0.3333088 -0.09584445
v 0.03905952 -0.3333088 -0.09584445
v 0.03905952 0.3491431 -0.09584445
v 0.35189295 0.3491431 -0.14023995
v 0.35189295 -0.3333088 -0.14023995
v 0.30852988 -0.3333088 -0.09584445
v 0.30852988 0.3491431 -0.09584445
v 0.65233696 0.3491431 -0.14023995
v 0.65233696 -0.3333088 -0.14023995
v 0.35189295 -0.3333088 -0.14023995
v 0.35189295 0.3491431 -0.14023995
v 0.6957 0.3491431 -0.094811976
v 0.6957 -0.3333088 -0.094811976
v 0.65233696 -0.3333088 -0.14023995
v 0.65233696 0.3491431 -0.14023995
v 0.6957 0.3491431 0.35224038
v 0.6957 -0.3333088 0.35224038
v 0.6957 -0.3333088 -0.094811976
v 0.6957 0.3491431 -0.094811976
v 0.59658444 0.3491431 0.35224038
v 0.59658444 -0.3333088 0.35224038
v 0.6957 -0.3333088 0.35224038
v 0.6957 0.3491431 0.35224038
v 0.54702663 0.3491431 0.30165017
v 0.54702663 -0.3333088 0.30165017
v 0.59658444 -0.3333088 0.35224038
v 0.59658444 0.3491431 0.35224038
v 0.2589721 0.3491431 0.30165017
v 0.2589721 -0.3333088 0.30165017
v 0.54702663 -0.3333088 0.30165017
v 0.54702663 0.3491431 0.30165017
v 0.20321962 0.3491431 0.36050004
v 0.20321962 -0.3333088 0.36050004
v 0.2589721 -0.3333088 0.30165017
v 0.2589721 0.3491431 0.30165017
v 0.03905952 0.3491431 0.19117767
v 0.03905952 -0.3333088 0.19117767
v 0.20321962 -0.3333088 0.36050004
v 0.20321962 0.3491431 0.36050004
vt -1.13162 0.0018469095
vt -1.13162 0.99955046
vt -0.71170056 0.99955046
vt -0.71170056 0.0018469095
vt 1.703626 0.0018469095
vt 1.703626 0.99955046
vt 2.098287 0.99955046
vt 2.098287 0.0018469095
vt 1.6120647 0.0018469095
vt 1.6120647 0.99955046
vt 1.703626 0.99955046
vt 1.703626 0.0018469095
vt 1.1732014 0.0018469095
vt 1.1732014 0.99955046
vt 1.6120647 0.99955046
vt 1.6120647 0.0018469095
vt 1.0816399 0.0018469095
vt 1.0816399 0.99955046
vt 1.1732014 0.99955046
vt 1.1732014 0.0018469095
vt 0.42492378 0.0018469095
vt 0.42492378 0.99955046
vt 1.0816399 0.99955046
vt 1.0816399 0.0018469095
vt 0.27968848 0.0018469095
vt 0.27968848 0.99955046
vt 0.42492378 0.99955046
vt 0.42492378 0.0018469095
vt 0.17549789 0.0018469095
vt 0.17549789 0.99955046
vt 0.27968848 0.99955046
vt 0.27968848 0.0018469095
vt -0.24757898 0.0018469095
vt -0.24757898 0.99955046
vt 0.17549789 0.99955046
vt 0.17549789 0.0018469095
vt -0.36439866 0.0018469095
vt -0.36439866 0.99955046
vt -0.24757898 0.99955046
vt -0.24757898 0.0018469095
vt -0.71170056 0.0018469095
vt -0.71170056 0.99955046
vt -0.36439866 0.99955046
vt -0.36439866 0.0018469095
vn 0.999874 0.015871048 -0.00034391563
vn 0.999874 0.015871048 -0.00034391563
vn 0.999874 0.015871048 -0.00034391563
vn 0.999874 0.015871048 -0.00034391563
vn -0.015871048 0.015871048 0.99974805
vn -0.015871048 0.015871048 0.99974805
vn -0.015871048 0.015871048 0.99974805
vn -0.015871048 0.015871048 0.99974805
vn 0.7141957 0.015871048 0.6997661
vn 0.7141957 0.015871048 0.6997661
vn 0.7141957 0.015871048 0.6997661
vn 0.7141957 0.015871048 0.6997661
vn -0.015871048 0.015871048 0.99974805
vn -0.015871048 0.015871048 0.99974805
vn -0.015871048 0.015871048 0.99974805
vn -0.015871048 0.015871048 0.99974805
vn -0.7141957 0.015871048 0.6997661
vn -0.7141957 0.015871048 0.6997661
vn -0.7141957 0.015871048 0.6997661
vn -0.7141957 0.015871048 0.6997661
vn -0.999874 0.015871048 -0.00034391563
vn -0.999874 0.015871048 -0.00034391563
vn -0.999874 0.015871048 -0.00034391563
vn -0.999874 0.015871048 -0.00034391563
vn -0.015871048 0.015871048 -0.99974805
vn -0.015871048 0.015871048 -0.99974805
vn -0.015871048 0.015871048 -0.99974805
vn -0.015871048 0.015871048 -0.99974805
vn 0.7141957 0.015871048 -0.6997661
vn 0.7141957 0.015871048 -0.6997661
vn 0.7141957 0.015871048 -0.6997661
vn 0.7141957 0.015871048 -0.6997661
vn -0.015871048 0.015871048 -0.99974805
vn -0.015871048 0.015871048 -0.99974805
vn -0.015871048 0.015871048 -0.99974805
vn -0.015871048 0.015871048 -0.99974805
vn -0.7459378 0.015871048 -0.66582644
vn -0.7459378 0.015871048 -0.66582644
vn -0.7459378 0.015871048 -0.66582644
vn -0.7459378 0.015871048 -0.66582644
vn 0.7141957 0.015871048 -0.6997661
vn 0.7141957 0.015871048 -0.6997661
vn 0.7141957 0.015871048 -0.6997661
vn 0.7141957 0.015871048 -0.6997661
g tb_geo_light_wall_05_mesh_0
f 3/3/3 2/2/2 1/1/1
f 4/4/4 3/3/3 1/1/1
f 7/7/7 6/6/6 5/5/5
f 8/8/8 7/7/7 5/5/5
f 11/11/11 10/10/10 9/9/9
f 12/12/12 11/11/11 9/9/9
f 15/15/15 14/14/14 13/13/13
f 16/16/16 15/15/15 13/13/13
f 19/19/19 18/18/18 17/17/17
f 20/20/20 19/19/19 17/17/17
f 23/23/23 22/22/22 21/21/21
f 24/24/24 23/23/23 21/21/21
f 27/27/27 26/26/26 25/25/25
f 28/28/28 27/27/27 25/25/25
f 31/31/31 30/30/30 29/29/29
f 32/32/32 31/31/31 29/29/29
f 35/35/35 34/34/34 33/33/33
f 36/36/36 35/35/35 33/33/33
f 39/39/39 38/38/38 37/37/37
f 40/40/40 39/39/39 37/37/37
f 43/43/43 42/42/42 41/41/41
f 44/44/44 43/43/43 41/41/41
