g tb_geo_section_08_mesh
v 0.22239864 0.17459643 0.77008903
v 0.20001173 0.17459643 0.77008903
v 0.20001173 0.13579237 0.6984508
v 0.22389108 0.11788285 0.66412413
v 0.20001173 0.113405466 0.65666187
v 0.33433333 0.17310399 0.77008903
v 0.20001173 0.086541116 0.6238277
v 0.35522783 0.11489791 0.65964675
v 0.39850923 0.16265672 0.77008903
v 0.21195138 0.080571294 0.6178578
v 0.20001173 0.07758635 0.61487293
v 0.21045893 0.055199444 0.5163704
v 0.20001173 0.056691885 0.5253252
v 0.20001173 0.055199444 0.5223402
v 0.20001173 0.055199444 0.5193553
v 0.20001173 0.055199444 0.5163704
v 0.20001173 0.055199444 0.5133854
v 0.27015746 0.06863159 0.61188805
v 0.30299163 0.09400344 0.63128996
v 0.41791126 0.108928084 0.66860163
v 0.44925296 0.16414917 0.77008903
v 0.35821274 0.07012403 0.6014408
v 0.48507208 0.10146576 0.6790488
v 0.5328309 0.16116428 0.77008903
v 0.2194137 0.023857713 0.43279243
v 0.20001173 0.031320035 0.44920957
v 0.20001173 0.028335094 0.4372698
v 0.20001173 0.026842654 0.43279243
v 0.20001173 0.026842654 0.42980754
v 0.20001173 0.022365212 0.40294325
v 0.20001173 0.022365212 0.3865261
v 0.2328459 0.023857713 0.35219944
v 0.29105192 0.014902949 0.42980754
v 0.25374037 0.022365212 0.32832003
v 0.26568004 0.022365212 0.31638038
v 0.27015746 0.020872772 0.31638038
v 0.3641826 0.011918008 0.37757134
v 0.3522429 0.014902949 0.31638038
v 0.42985097 0.0059481263 0.38354123
v 0.36865997 0.013410449 0.31638038
v 0.4522379 0.0044556856 0.31638038
v 0.3716449 0.022365212 0.392496
v 0.3000067 0.022365212 0.4387623
v 0.30149916 0.022365212 0.45816433
v 0.38358462 0.026842654 0.45219445
v 0.30299163 0.04624462 0.47756636
v 0.35075042 0.0402748 0.5745764
v 0.38507706 0.049229562 0.47905886
v 0.4358208 0.020872772 0.40294325
v 0.48507208 0.0074406266 0.36861658
v 0.47462484 0.0044556856 0.31638038
v 0.4358208 0.04325974 0.5671141
v 0.4567153 0.031320035 0.492491
v 0.488057 0.014902949 0.37906384
v 0.5626801 0.002963245 0.3895111
v 0.54178566 0.0044556856 0.32981253
v 0.52238363 0.0044556856 0.31638038
v 0.5402932 0.0044556856 0.31638038
v 0.54626304 0.0044556856 0.32235026
v 0.55820274 0.002963245 0.3342899
v 0.5910369 0.0014707446 0.36712408
v 0.5970068 0.0014707446 0.36712408
v 0.4925344 0.031320035 0.4432397
v 0.64476556 0.008933067 0.4402548
v 0.62984097 0.0014707446 0.36712408
v 0.5716349 0.002963245 0.42831504
v 0.7059565 -2.169609E-05 0.42085278
v 0.64476556 -2.169609E-05 0.36712408
v 0.72088116 0.022365212 0.43279243
v 0.6402882 0.032812476 0.46114922
v 0.7223736 0.07907879 0.55368197
v 0.6193937 0.04773712 0.5133854
v 0.57014245 0.025350153 0.4387623
v 0.5402932 0.037289858 0.47458148
v 0.7238661 -2.169609E-05 0.3910035
v 0.69849426 -2.169609E-05 0.36712408
v 0.72535855 0.0059481263 0.3939885
v 0.7358058 0.020872772 0.40294325
v 0.75371534 0.028335094 0.41936028
v 0.7567003 0.031320035 0.4432397
v 0.7567003 0.028335094 0.42383766
v 0.7567003 0.0387823 0.47308898
v 0.7567003 0.07161653 0.5447272
v 0.7567003 0.07907879 0.5656216
v 0.5447706 0.058184326 0.5014458
v 0.72685105 0.092511 0.58353126
v 0.6417807 0.082063735 0.5969634
v 0.7567003 0.08803362 0.58353126
v 0.7567003 0.09848082 0.5954709
v 0.7567003 0.113405466 0.65516937
v 0.7567003 0.11489791 0.66113925
v 0.5999917 0.06863159 0.570099
v 0.45373034 0.053706944 0.5148779
v 0.50596654 0.04624462 0.58651614
v 0.5149213 0.07758635 0.61188805
v 0.4402982 0.07310897 0.592486
v 0.60596156 0.12236023 0.66860163
v 0.7567003 0.11639041 0.66263175
v 0.58506703 0.10594314 0.66263175
v 0.5716349 0.11788285 0.71934533
v 0.5761123 0.17011905 0.77008903
v 0.60894644 0.13728487 0.71636033
v 0.7567003 0.11639041 0.66412413
v 0.7567003 0.13728487 0.70740557
v 0.7522229 0.1686266 0.77008903
v 0.7567003 0.1671341 0.76710415
v 0.7567003 0.1686266 0.77008903
vt 0.538695 0.0074382722
vt 0.5333015 0.0074382722
vt 0.5333015 0.05597949
vt 0.5413916 0.0802501
vt 0.5333015 0.08564357
vt 0.5737525 0.0074382722
vt 0.5359982 0.112610914
vt 0.5791459 0.08294684
vt 0.5926297 0.0074382722
vt 0.538695 0.11800438
vt 0.5359982 0.12070111
vt 0.5467851 0.18002927
vt 0.5413916 0.1746358
vt 0.5413916 0.17733254
vt 0.5413916 0.17733254
vt 0.54408836 0.18002927
vt 0.54408836 0.18272601
vt 0.5575721 0.12339785
vt 0.56566226 0.10452071
vt 0.59802306 0.07755336
vt 0.6061133 0.0074382722
vt 0.58184266 0.12609458
vt 0.6169002 0.07485663
vt 0.63038385 0.0074382722
vt 0.5521786 0.23666069
vt 0.5467851 0.22587375
vt 0.5467851 0.23126723
vt 0.5467851 0.23396395
vt 0.5467851 0.23666069
vt 0.5467851 0.25284111
vt 0.5467851 0.26362804
vt 0.5548754 0.2852019
vt 0.568359 0.24205416
vt 0.56026876 0.3013823
vt 0.5629655 0.30947253
vt 0.5629655 0.30947253
vt 0.58723617 0.27171823
vt 0.5845394 0.30947253
vt 0.60341656 0.27171823
vt 0.58723617 0.30947253
vt 0.60881007 0.31216925
vt 0.5899329 0.25823456
vt 0.57105577 0.23126723
vt 0.57105577 0.22048028
vt 0.5926297 0.22317702
vt 0.57105577 0.20160314
vt 0.58184266 0.14766845
vt 0.5926297 0.20160314
vt 0.6061133 0.25284111
vt 0.6169002 0.27980843
vt 0.61420345 0.31216925
vt 0.60341656 0.15036519
vt 0.6115068 0.20160314
vt 0.61959696 0.26632476
vt 0.6384741 0.2690215
vt 0.63038385 0.30407906
vt 0.6276872 0.31216925
vt 0.63038385 0.31216925
vt 0.6330806 0.30677578
vt 0.63577735 0.3013823
vt 0.6438676 0.27980843
vt 0.64656436 0.27980843
vt 0.61959696 0.23126723
vt 0.660048 0.23935743
vt 0.6546545 0.28250518
vt 0.64117086 0.24475089
vt 0.67353165 0.25014436
vt 0.65735126 0.28250518
vt 0.67892516 0.23935743
vt 0.660048 0.21778356
vt 0.68431854 0.15575866
vt 0.6546545 0.18542273
vt 0.64117086 0.23126723
vt 0.6330806 0.20969334
vt 0.6762284 0.2690215
vt 0.6708349 0.28250518
vt 0.67892516 0.26632476
vt 0.6816219 0.25553784
vt 0.6870153 0.24744762
vt 0.68971205 0.23126723
vt 0.68971205 0.24475089
vt 0.68971205 0.21239008
vt 0.6924088 0.16384886
vt 0.6924088 0.15036519
vt 0.6330806 0.18811947
vt 0.68431854 0.13688152
vt 0.660048 0.12879132
vt 0.6924088 0.13957825
vt 0.69510555 0.12879132
vt 0.69510555 0.088340305
vt 0.69510555 0.08564357
vt 0.649261 0.14766845
vt 0.60881007 0.18272601
vt 0.6222937 0.13957825
vt 0.62499046 0.11800438
vt 0.60341656 0.12879132
vt 0.65195775 0.07755336
vt 0.69510555 0.08294684
vt 0.64656436 0.08564357
vt 0.64117086 0.050586022
vt 0.6438676 0.0074382722
vt 0.6546545 0.04788929
vt 0.69510555 0.08294684
vt 0.69510555 0.053282756
vt 0.69510555 0.0074382722
vt 0.69510555 0.010135006
vt 0.69510555 0.0074382722
vn -4.7266483E-05 0.8908819 -0.45423505
vn -0.018227562 0.8727015 -0.48791373
vn -0.018227562 0.8727015 -0.48791373
vn -4.7266483E-05 0.8727015 -0.4882541
vn -0.018227562 0.8727015 -0.48791373
vn 0.054493636 0.8908819 -0.45095444
vn -4.7266483E-05 0.90906215 -0.41666058
vn 0.054493636 0.8727015 -0.48520356
vn 0.12721483 0.8727015 -0.4713899
vn 0.018133044 0.90906215 -0.41626585
vn 0.018133044 0.90906215 -0.41626585
vn 0.090854235 0.9817834 -0.166874
vn 0.07267393 0.963603 -0.25726977
vn 0.07267393 0.9817834 -0.17555596
vn 0.07267393 0.9817834 -0.17555596
vn 0.07267393 0.9817834 -0.17555596
vn 0.090854235 0.963603 -0.2514255
vn 0.090854235 0.94542277 -0.31292382
vn -0.054588154 0.7454395 -0.6643343
vn 0.090854235 0.8908819 -0.44505617
vn 0.090854235 0.836341 -0.54062855
vn -0.036407858 0.7636198 -0.6446389
vn 0.054493636 0.8908819 -0.45095444
vn 0.018133044 0.7999804 -0.5997521
vn 0.072485395 0.99736947 -0
vn 0.07267393 0.9817834 -0.17555596
vn 0.10903453 0.9817834 -0.15560494
vn 0.10903453 0.9817834 -0.15560494
vn 0.10903453 0.9817834 -0.15560494
vn 0.072485395 0.99736947 -0
vn 0.072485395 0.99736947 -0
vn 0.036290742 0.9993413 -0
vn 0.036290742 0.9993413 -0
vn 0.036290742 0.9993413 -0
vn 0.036290742 0.9993413 -0
vn 0.036290742 0.9993413 -0
vn 0.072485395 0.99736947 -0
vn 0.09048482 0.99589777 -0
vn 0.072485395 0.99736947 -0
vn 0.09048482 0.99589777 -0
vn 0.072485395 0.99736947 -0
vn -0.036407858 0.963603 -0.26484656
vn -0.09094876 0.9817834 -0.16682237
vn -0.036407858 0.9272425 -0.3726872
vn 0.018133044 0.963603 -0.2667217
vn 0.054493636 0.963603 -0.26172444
vn 0.03631334 0.9817834 -0.18650138
vn 0.018133044 0.9817834 -0.18913652
vn -4.7266483E-05 0.9817834 -0.1900037
vn -0.018227562 0.9817834 -0.18912737
vn 0.036290742 0.9993413 -0
vn -0.036407858 0.9817834 -0.18648285
vn 0.018133044 0.90906215 -0.41626585
vn 0.12721483 0.94542277 -0.29998693
vn 0.09048482 0.99589777 -0
vn -4.7266483E-05 0.99996364 -0.008527465
vn 0.018130723 0.9998356 -0
vn 0.018130723 0.9998356 -0
vn -4.7266483E-05 0.99996364 0.008527465
vn 0.018130723 0.9998356 -0
vn 0.05441488 0.99851847 -0
vn 0.05441488 0.99851847 -0
vn 0.03631334 0.9817834 -0.18650138
vn -0.018227562 0.9272425 -0.37401745
vn 0.018130723 0.9998356 -0
vn 0.14539513 0.9272425 -0.34508196
vn -0.14548966 0.94542277 -0.2915623
vn -0.018225199 0.99983394 -0
vn -0.16366994 0.90906215 -0.38316858
vn -0.054588154 0.8908819 -0.450943
vn -4.7266483E-05 0.90906215 -0.41666058
vn -0.07276845 0.963603 -0.257243
vn 0.03631334 0.8908819 -0.45278123
vn -0.036407858 0.9272425 -0.3726872
vn -0.10912904 0.9817834 -0.15553866
vn -0.054508977 0.9985132 -0
vn -0.18185025 0.9272425 -0.3273405
vn -0.18185025 0.90906215 -0.37488204
vn -0.16366994 0.9272425 -0.3367988
vn -0.12730935 0.94542277 -0.2999468
vn -0.16366994 0.94542277 -0.28175858
vn -0.09094876 0.9272425 -0.36324868
vn -4.7266483E-05 0.9272425 -0.37446135
vn -4.7266483E-05 0.8908819 -0.45423505
vn -0.054588154 0.9817834 -0.1819932
vn -0.036407858 0.90906215 -0.41506684
vn -0.09094876 0.90906215 -0.40661326
vn -0.018227562 0.8908819 -0.45386916
vn -0.054588154 0.9272425 -0.3704611
vn -0.054588154 0.9272425 -0.3704611
vn -0.054588154 0.9272425 -0.3704611
vn -0.12730935 0.94542277 -0.2999468
vn -0.036385074 0.99933785 -0
vn -0.036407858 0.963603 -0.26484656
vn -0.018227562 0.8727015 -0.48791373
vn 0.054493636 0.81816065 -0.5724016
vn -0.12730935 0.9272425 -0.35215566
vn -0.054588154 0.9272425 -0.3704611
vn -0.18185025 0.90906215 -0.37488204
vn -0.09094876 0.836341 -0.54061264
vn -0.09094876 0.836341 -0.54061264
vn -0.054588154 0.8908819 -0.450943
vn -0.054588154 0.9272425 -0.3704611
vn -0.036407858 0.90906215 -0.41506684
vn -0.018227562 0.8908819 -0.45386916
vn -0.018227562 0.8908819 -0.45386916
vn -0.018227562 0.8908819 -0.45386916
g tb_geo_section_08_mesh_0
f 3/3/3 2/2/2 1/1/1
f 4/4/4 3/3/3 1/1/1
f 4/4/4 5/5/5 3/3/3
f 1/1/1 6/6/6 4/4/4
f 7/7/7 5/5/5 4/4/4
f 6/6/6 8/8/8 4/4/4
f 6/6/6 9/9/9 8/8/8
f 10/10/10 7/7/7 4/4/4
f 10/10/10 11/11/11 7/7/7
f 10/10/10 12/12/12 11/11/11
f 12/12/12 13/13/13 11/11/11
f 14/14/14 13/13/13 12/12/12
f 12/12/12 15/15/15 14/14/14
f 12/12/12 16/16/16 15/15/15
f 17/17/17 16/16/16 12/12/12
f 18/18/18 10/10/10 4/4/4
f 18/18/18 12/12/12 10/10/10
f 19/19/19 4/4/4 8/8/8
f 18/18/18 4/4/4 19/19/19
f 9/9/9 20/20/20 8/8/8
f 9/9/9 21/21/21 20/20/20
f 22/22/22 19/19/19 8/8/8
f 19/19/19 22/22/22 18/18/18
f 8/8/8 20/20/20 22/22/22
f 21/21/21 23/23/23 20/20/20
f 21/21/21 24/24/24 23/23/23
f 17/17/17 12/12/12 25/25/25
f 26/26/26 17/17/17 25/25/25
f 27/27/27 26/26/26 25/25/25
f 28/28/28 27/27/27 25/25/25
f 29/29/29 28/28/28 25/25/25
f 30/30/30 29/29/29 25/25/25
f 31/31/31 30/30/30 25/25/25
f 32/32/32 31/31/31 25/25/25
f 32/32/32 25/25/25 33/33/33
f 34/34/34 32/32/32 33/33/33
f 33/33/33 35/35/35 34/34/34
f 33/33/33 36/36/36 35/35/35
f 37/37/37 36/36/36 33/33/33
f 37/37/37 38/38/38 36/36/36
f 38/38/38 37/37/37 39/39/39
f 40/40/40 38/38/38 39/39/39
f 39/39/39 41/41/41 40/40/40
f 42/42/42 37/37/37 33/33/33
f 39/39/39 37/37/37 42/42/42
f 43/43/43 33/33/33 25/25/25
f 43/43/43 42/42/42 33/33/33
f 43/43/43 25/25/25 44/44/44
f 44/44/44 25/25/25 12/12/12
f 45/45/45 42/42/42 43/43/43
f 44/44/44 45/45/45 43/43/43
f 46/46/46 44/44/44 12/12/12
f 44/44/44 46/46/46 45/45/45
f 12/12/12 18/18/18 46/46/46
f 18/18/18 47/47/47 46/46/46
f 22/22/22 47/47/47 18/18/18
f 47/47/47 48/48/48 46/46/46
f 46/46/46 48/48/48 45/45/45
f 42/42/42 45/45/45 49/49/49
f 49/49/49 39/39/39 42/42/42
f 41/41/41 39/39/39 50/50/50
f 51/51/51 41/41/41 50/50/50
f 47/47/47 22/22/22 52/52/52
f 47/47/47 52/52/52 48/48/48
f 45/45/45 48/48/48 53/53/53
f 45/45/45 53/53/53 49/49/49
f 49/49/49 54/54/54 39/39/39
f 54/54/54 50/50/50 39/39/39
f 54/54/54 55/55/55 50/50/50
f 55/55/55 56/56/56 50/50/50
f 51/51/51 50/50/50 56/56/56
f 57/57/57 51/51/51 56/56/56
f 58/58/58 57/57/57 56/56/56
f 59/59/59 58/58/58 56/56/56
f 56/56/56 60/60/60 59/59/59
f 55/55/55 60/60/60 56/56/56
f 61/61/61 60/60/60 55/55/55
f 61/61/61 55/55/55 62/62/62
f 63/63/63 54/54/54 49/49/49
f 63/63/63 49/49/49 53/53/53
f 54/54/54 63/63/63 55/55/55
f 55/55/55 64/64/64 62/62/62
f 64/64/64 65/65/65 62/62/62
f 63/63/63 66/66/66 55/55/55
f 55/55/55 66/66/66 64/64/64
f 64/64/64 67/67/67 65/65/65
f 67/67/67 68/68/68 65/65/65
f 69/69/69 67/67/67 64/64/64
f 70/70/70 69/69/69 64/64/64
f 66/66/66 70/70/70 64/64/64
f 69/69/69 70/70/70 71/71/71
f 72/72/72 71/71/71 70/70/70
f 73/73/73 70/70/70 66/66/66
f 63/63/63 73/73/73 66/66/66
f 72/72/72 70/70/70 73/73/73
f 74/74/74 73/73/73 63/63/63
f 74/74/74 72/72/72 73/73/73
f 53/53/53 74/74/74 63/63/63
f 67/67/67 75/75/75 68/68/68
f 75/75/75 76/76/76 68/68/68
f 77/77/77 75/75/75 67/67/67
f 67/67/67 69/69/69 77/77/77
f 69/69/69 78/78/78 77/77/77
f 79/79/79 78/78/78 69/69/69
f 69/69/69 80/80/80 79/79/79
f 80/80/80 81/81/81 79/79/79
f 69/69/69 82/82/82 80/80/80
f 69/69/69 71/71/71 82/82/82
f 71/71/71 83/83/83 82/82/82
f 71/71/71 84/84/84 83/83/83
f 85/85/85 74/74/74 53/53/53
f 72/72/72 74/74/74 85/85/85
f 84/84/84 71/71/71 86/86/86
f 87/87/87 86/86/86 71/71/71
f 88/88/88 84/84/84 86/86/86
f 86/86/86 89/89/89 88/88/88
f 86/86/86 90/90/90 89/89/89
f 86/86/86 87/87/87 90/90/90
f 87/87/87 91/91/91 90/90/90
f 72/72/72 92/92/92 71/71/71
f 92/92/92 72/72/72 85/85/85
f 92/92/92 87/87/87 71/71/71
f 93/93/93 85/85/85 53/53/53
f 48/48/48 93/93/93 53/53/53
f 52/52/52 93/93/93 48/48/48
f 94/94/94 85/85/85 93/93/93
f 94/94/94 92/92/92 85/85/85
f 52/52/52 94/94/94 93/93/93
f 94/94/94 95/95/95 92/92/92
f 95/95/95 87/87/87 92/92/92
f 52/52/52 96/96/96 94/94/94
f 96/96/96 95/95/95 94/94/94
f 22/22/22 96/96/96 52/52/52
f 20/20/20 96/96/96 22/22/22
f 20/20/20 23/23/23 96/96/96
f 23/23/23 95/95/95 96/96/96
f 87/87/87 97/97/97 91/91/91
f 97/97/97 98/98/98 91/91/91
f 87/87/87 95/95/95 99/99/99
f 95/95/95 23/23/23 99/99/99
f 87/87/87 99/99/99 97/97/97
f 100/100/100 99/99/99 23/23/23
f 99/99/99 100/100/100 97/97/97
f 24/24/24 100/100/100 23/23/23
f 24/24/24 101/101/101 100/100/100
f 97/97/97 102/102/102 98/98/98
f 100/100/100 102/102/102 97/97/97
f 101/101/101 102/102/102 100/100/100
f 102/102/102 103/103/103 98/98/98
f 104/104/104 103/103/103 102/102/102
f 105/105/105 102/102/102 101/101/101
f 104/104/104 102/102/102 105/105/105
f 105/105/105 106/106/106 104/104/104
f 105/105/105 107/107/107 106/106/106
