g tb_meeple_06b_mesh
v 0.09984632 0.033614397 -0.28693697
v 0.30126557 0.088472486 -0.28448063
v 0.30126557 -0.051129043 -0.26933324
v 0.017968565 -0.053175986 -0.26974264
v 0.08224259 -0.097799376 -0.26933324
v 0.30126557 -0.097799376 -0.2681051
v 0.017149806 -0.13546313 -0.27547407
v 0.30126557 -0.1907306 -0.27178958
v -0.033205032 -0.18950245 -0.27997735
v 0.110899806 -0.23740092 -0.2705614
v -0.033205032 -0.23740092 -0.26974264
v 0.30126557 -0.23699152 -0.26237363
v -0.033205032 -0.28407124 -0.2529577
v 0.15797952 -0.28366184 -0.25459525
v 0.062182546 -0.33033216 -0.25009197
v 0.30126557 -0.28366184 -0.24640748
v 0.25377646 -0.33033216 -0.24026665
v 0.30126557 -0.33033216 -0.2414948
vn -0.012793399 0.17710882 0.9841081
vn -0.040179305 0.10590547 0.9935641
vn -0.018270582 0.07851957 0.99674517
vn -0.023747765 0.040179305 0.99891025
vn -0.023747765 -0.047455586 0.998591
vn -0.007316217 -0.0036381409 0.9999666
vn -0.034702122 -0.06936431 0.99698764
vn -0.023747765 0.07304239 0.99704605
vn -0.018270582 0.07851957 0.99674517
vn -0.018270582 0.23188064 0.9725727
vn -0.007316217 0.24283499 0.97004
vn -0.045656487 0.25926653 0.96472603
vn 0.0036381409 0.27569807 0.96123743
vn -0.034702122 0.24283499 0.9694467
vn -0.0018390417 0.10042828 0.9949426
vn -0.034702122 0.2373578 0.97080225
vn -0.034702122 0.17163163 0.9845498
vn 0.025546864 0.10042828 0.99461627
g tb_meeple_06b_mesh_0
f 3/3/3 2/2/2 1/1/1
f 4/4/4 3/3/3 1/1/1
f 5/5/5 3/3/3 4/4/4
f 5/5/5 6/6/6 3/3/3
f 7/7/7 5/5/5 4/4/4
f 8/8/8 6/6/6 5/5/5
f 8/8/8 5/5/5 7/7/7
f 9/9/9 8/8/8 7/7/7
f 10/10/10 8/8/8 9/9/9
f 11/11/11 10/10/10 9/9/9
f 8/8/8 10/10/10 12/12/12
f 13/13/13 10/10/10 11/11/11
f 14/14/14 12/12/12 10/10/10
f 13/13/13 14/14/14 10/10/10
f 15/15/15 14/14/14 13/13/13
f 12/12/12 14/14/14 16/16/16
f 15/15/15 17/17/17 14/14/14
f 17/17/17 16/16/16 14/14/14
f 16/16/16 17/17/17 18/18/18
