g tb_meeple_07b_mesh
v 0.22331452 -0.13722298 -0.18100667
v -0.06890479 -0.13722298 -0.1603447
v -0.019709617 -0.071301445 -0.15985274
v 0.22331452 -0.04276824 -0.17707106
v 0.041784346 0.078743815 -0.2316777
v 0.22921795 0.038895726 -0.23020184
v 0.26660627 0.028072804 -0.20462036
v 0.19133766 0.09596214 -0.25283164
v 0.26660627 0.16729513 -0.23413746
v 0.19182962 0.16729513 -0.22528233
v 0.0043960214 0.13482633 -0.19281352
v 0.0043960214 0.168771 -0.19970083
v 0.19182962 0.20271567 -0.2021606
v 0.0043960214 0.20271567 -0.17756301
v 0.19182962 0.2366603 -0.15001372
v 0.26660627 0.2366603 -0.12197247
v 0.07917267 0.2366603 -0.08458415
v 0.0043960214 0.2366603 -0.1022944
vn 0.075329304 -0.053516984 0.9957216
vn 0.075329304 -0.053516984 0.9957216
vn 0.075329304 0.120981336 0.9897924
vn -0.011919856 0.25185502 0.96769154
vn 0.14076614 0.011919856 0.9899711
vn -0.2082305 0.40454113 0.8904979
vn -0.44816566 0.29547966 0.8437057
vn -0.033732176 0.055544436 0.99788624
vn -0.099169016 -0.4461382 0.88945276
vn 0.11895388 -0.4461382 0.8870235
vn 0.18439072 -0.097141564 0.9780407
vn 0.14076614 -0.18439072 0.9727204
vn 0.11895388 -0.75151026 0.64890856
vn 0.053516984 -0.79513484 0.60406667
vn 0.009892404 -0.8387594 0.5444123
vn -0.18641818 -0.8387594 0.51159644
vn 0.009892404 -0.9260086 0.37737277
vn -0.099169016 -0.90419626 0.41544515
g tb_meeple_07b_mesh_0
f 3/3/3 2/2/2 1/1/1
f 4/4/4 3/3/3 1/1/1
f 5/5/5 3/3/3 4/4/4
f 6/6/6 5/5/5 4/4/4
f 6/6/6 4/4/4 7/7/7
f 8/8/8 6/6/6 7/7/7
f 5/5/5 6/6/6 8/8/8
f 7/7/7 9/9/9 8/8/8
f 10/10/10 5/5/5 8/8/8
f 9/9/9 10/10/10 8/8/8
f 5/5/5 10/10/10 11/11/11
f 12/12/12 11/11/11 10/10/10
f 12/12/12 10/10/10 13/13/13
f 9/9/9 13/13/13 10/10/10
f 12/12/12 13/13/13 14/14/14
f 9/9/9 15/15/15 13/13/13
f 9/9/9 16/16/16 15/15/15
f 15/15/15 17/17/17 13/13/13
f 17/17/17 14/14/14 13/13/13
f 17/17/17 18/18/18 14/14/14
