g tb_meeple_10b_mesh
v 0.1026071 0.0006957352 -0.15650424
v 0.14482653 -0.0711671 -0.20321509
v 0.03613396 -0.04915911 -0.2023168
v 0.14482653 -0.1026071 -0.19737622
v 0.25306994 -0.1026071 -0.12730995
v 0.25306994 -0.03927797 -0.12686081
v 0.13943681 -0.023108825 -0.1497671
v 0.24184136 -0.005592257 -0.07655682
v 0.21983337 0.09815973 -0.11024253
v 0.1151831 0.05055061 -0.15874994
v 0.0069396794 0.014619172 -0.17581737
v 0.07476024 0.06582144 -0.14841966
v 0.11024253 0.13588774 -0.17941052
v 0.21983337 0.20640314 -0.16144481
v 0.10979338 0.20640314 -0.18749508
v 0.07296367 0.17181915 -0.21264708
v -0.0006957352 0.17181915 -0.22207908
vn -0.18067747 -0.19106033 0.96480656
vn -0.2691865 -0.20876214 0.9401899
vn -0.074466705 -0.43888554 0.89545196
vn -0.3222919 0.18067747 0.9292382
vn -0.57011706 0.021361291 0.8212857
vn -0.42850268 -0.54509634 0.7205938
vn -0.39309907 -0.43888554 0.80799294
vn -0.44620448 -0.40348193 0.798814
vn -0.44620448 0.16297567 0.87996614
vn -0.2868883 0.09216851 0.9535198
vn -0.09216851 -0.17335853 0.98053646
vn -0.0036594868 0.0036594868 0.9999866
vn -0.2514847 0.2514847 0.934618
vn -0.33999372 0.2868883 0.8956
vn -0.37539726 0.0567649 0.9251241
vn -0.2691865 0.14527386 0.9520683
vn -0.19837928 0.33999372 0.919266
g tb_meeple_10b_mesh_0
f 3/3/3 2/2/2 1/1/1
f 2/2/2 3/3/3 4/4/4
f 5/5/5 2/2/2 4/4/4
f 2/2/2 5/5/5 6/6/6
f 2/2/2 6/6/6 7/7/7
f 1/1/1 2/2/2 7/7/7
f 8/8/8 7/7/7 6/6/6
f 8/8/8 9/9/9 7/7/7
f 1/1/1 7/7/7 10/10/10
f 9/9/9 10/10/10 7/7/7
f 11/11/11 1/1/1 10/10/10
f 11/11/11 10/10/10 12/12/12
f 13/13/13 10/10/10 9/9/9
f 10/10/10 13/13/13 12/12/12
f 13/13/13 9/9/9 14/14/14
f 15/15/15 13/13/13 14/14/14
f 13/13/13 16/16/16 12/12/12
f 16/16/16 13/13/13 15/15/15
f 16/16/16 17/17/17 12/12/12
f 17/17/17 16/16/16 15/15/15
