g tb_meeple_14a_mesh
v -0.099036515 -0.23269883 -0.1480911
v -0.19277456 -0.23269883 -0.13835208
v -0.19277456 -0.19800358 -0.11643928
v 0.0062666237 -0.26800278 -0.18400373
v -0.099036515 -0.25887245 -0.18217766
v -0.038167655 -0.31608918 -0.21869898
v 0.050700903 -0.31608918 -0.18948193
v 0.095743865 -0.31608918 -0.19435143
v 0.14017814 -0.17122127 -0.117047966
v 0.053135663 -0.17426471 -0.1322652
v -0.12947097 -0.099396005 -0.106091574
v -0.19277456 -0.163917 -0.10913502
v 0.035483688 -0.117047966 -0.11765666
v 0.095743865 -0.07504845 -0.121917486
v 0.09148304 0.011994034 -0.14383027
v -0.12947097 -0.0032231808 -0.10365681
v -0.017472237 0.0892975 -0.13896076
v -0.12947097 0.14042735 -0.13774338
v -0.032689452 0.1879051 -0.13835208
v 0.05678779 0.13373178 -0.1322652
v -0.12947097 0.23599151 -0.12313487
v 0.06348336 0.18912247 -0.14504765
v 0.016005635 0.23599151 -0.17000389
v 0.10122207 0.27129546 -0.19435143
v 0.1103524 0.30659935 -0.19739488
v 0.016005635 0.30659935 -0.18096028
vn 0.06458259 -0.55423325 0.82985216
vn 0.080904305 -0.53791153 0.8391101
vn 0.097225964 -0.358373 0.92850196
vn -0.082312584 -0.47262478 0.8774112
vn -0.049669206 -0.66848505 0.7420652
vn -0.13127768 -0.5705549 0.8106992
vn -0.0007041693 -0.11354768 0.9935323
vn -0.065990925 -0.3257296 0.9431572
vn -0.0986343 -0.26044285 0.9604378
vn -0.033347547 -0.29308623 0.9555043
vn 0.080904305 -0.11354768 0.990233
vn 0.14619106 -0.1951561 0.9698156
vn 0.048260927 -0.06458259 0.9967447
vn 0.06458259 0.049669206 0.9966755
vn 0.14619106 0.14759934 0.9781833
vn 0.11354768 0.11495596 0.9868597
vn 0.06458259 0.0986343 0.99302584
vn 0.06458259 0.033347547 0.99735504
vn 0.097225964 0.16392106 0.9816705
vn -0.0007041693 0.11495596 0.99337035
vn 0.11354768 0.017025828 0.9933867
vn 0.097225964 0.35978127 0.9279572
vn 0.16251272 0.35978127 0.9187747
vn 0.16251272 0.2128861 0.96346724
vn 0.1951561 0.11495596 0.97401196
vn 0.1951561 0.11495596 0.97401196
g tb_meeple_14a_mesh_0
f 3/3/3 2/2/2 1/1/1
f 3/3/3 1/1/1 4/4/4
f 1/1/1 5/5/5 4/4/4
f 5/5/5 6/6/6 4/4/4
f 6/6/6 7/7/7 4/4/4
f 8/8/8 4/4/4 7/7/7
f 8/8/8 9/9/9 4/4/4
f 10/10/10 3/3/3 4/4/4
f 10/10/10 4/4/4 9/9/9
f 11/11/11 3/3/3 10/10/10
f 3/3/3 11/11/11 12/12/12
f 13/13/13 10/10/10 9/9/9
f 11/11/11 10/10/10 13/13/13
f 14/14/14 13/13/13 9/9/9
f 14/14/14 15/15/15 13/13/13
f 16/16/16 11/11/11 13/13/13
f 15/15/15 16/16/16 13/13/13
f 15/15/15 17/17/17 16/16/16
f 18/18/18 16/16/16 17/17/17
f 19/19/19 18/18/18 17/17/17
f 20/20/20 19/19/19 17/17/17
f 18/18/18 19/19/19 21/21/21
f 19/19/19 20/20/20 22/22/22
f 23/23/23 21/21/21 19/19/19
f 22/22/22 23/23/23 19/19/19
f 23/23/23 22/22/22 24/24/24
f 24/24/24 25/25/25 23/23/23
f 25/25/25 26/26/26 23/23/23
