g tb_meeple_05b_mesh
v 0.11566597 0.30979103 -0.17430843
v 0.2640673 0.30979103 -0.1689229
v 0.2640673 0.26251805 -0.15755345
v 0.12703542 0.26251805 -0.15396309
v 0.2640673 0.16737363 -0.14678238
v 0.049842805 0.030341774 -0.17191486
v 0.2640673 0.07222924 -0.15994701
v 0.14139685 0.008799642 -0.16652933
v 0.19764574 -0.0659994 -0.14618398
v 0.3023644 0.03393212 -0.1455856
v 0.080360815 -0.015734434 -0.18029235
v -0.023161054 -0.016332835 -0.17909557
v 0.018726408 -0.07198332 -0.21978626
v 0.08335279 -0.06779458 -0.20362966
v 0.036678165 -0.12284668 -0.23534445
v 0.24970588 -0.070786536 -0.12763382
v 0.3023644 -0.12284668 -0.13361774
v 0.19704735 -0.12164989 -0.14020006
v 0.19704735 -0.17490682 -0.15875022
v 0.3023644 -0.17490682 -0.16772611
v 0.08454956 -0.17670201 -0.23115571
v 0.027702302 -0.23354928 -0.27603513
v 0.09232867 -0.22696696 -0.25748497
v 0.04026854 -0.2790271 -0.28082228
v 0.1449872 -0.2790271 -0.2730432
v 0.3023644 -0.2790271 -0.2796255
vn -0.010100067 0.3206154 0.94715565
vn -0.010100067 0.3206154 0.94715565
vn 0.008165538 0.21102172 0.9774473
vn -0.028365672 0.1562249 0.98731416
vn -0.028365672 -0.008165538 0.99956423
vn -0.046631277 -0.15429038 0.9869245
vn -0.10142809 0.028365672 0.9944384
vn -0.1562249 -0.08122796 0.98437583
vn -0.24755293 0.046631277 0.96775156
vn -0.1196937 0.17449051 0.9773569
vn -0.1562249 -0.28214964 0.94656503
vn -0.010100067 -0.4648057 0.8853551
vn -0.1562249 -0.42827448 0.890042
vn -0.33888102 -0.26388404 0.90306413
vn -0.3023498 -0.30041525 0.90461886
vn -0.08316249 0.046631277 0.99544436
vn -0.028365672 -0.2273528 0.9733993
vn -0.3206154 -0.17255598 0.93135935
vn -0.22928733 -0.50133693 0.83431923
vn 0.04469675 -0.6474618 0.76078606
vn -0.41194344 -0.35521206 0.8391227
vn -0.22928733 -0.31868085 0.9197118
vn -0.3023498 -0.41000888 0.86050993
vn -0.1379593 -0.28214964 0.9493992
vn -0.1562249 -0.59266496 0.7901532
vn 0.04469675 -0.7387898 0.6724521
g tb_meeple_05b_mesh_0
f 3/3/3 2/2/2 1/1/1
f 4/4/4 3/3/3 1/1/1
f 4/4/4 5/5/5 3/3/3
f 4/4/4 6/6/6 5/5/5
f 5/5/5 6/6/6 7/7/7
f 6/6/6 8/8/8 7/7/7
f 8/8/8 9/9/9 7/7/7
f 10/10/10 7/7/7 9/9/9
f 8/8/8 6/6/6 11/11/11
f 8/8/8 11/11/11 9/9/9
f 6/6/6 12/12/12 11/11/11
f 11/11/11 12/12/12 13/13/13
f 13/13/13 14/14/14 11/11/11
f 11/11/11 14/14/14 9/9/9
f 14/14/14 13/13/13 15/15/15
f 9/9/9 16/16/16 10/10/10
f 16/16/16 17/17/17 10/10/10
f 9/9/9 18/18/18 16/16/16
f 18/18/18 17/17/17 16/16/16
f 9/9/9 14/14/14 18/18/18
f 17/17/17 18/18/18 19/19/19
f 18/18/18 14/14/14 19/19/19
f 17/17/17 19/19/19 20/20/20
f 21/21/21 14/14/14 15/15/15
f 19/19/19 14/14/14 21/21/21
f 21/21/21 15/15/15 22/22/22
f 23/23/23 21/21/21 22/22/22
f 19/19/19 21/21/21 23/23/23
f 22/22/22 24/24/24 23/23/23
f 24/24/24 25/25/25 23/23/23
f 19/19/19 23/23/23 25/25/25
f 19/19/19 25/25/25 20/20/20
f 25/25/25 26/26/26 20/20/20
