g tb_meeple_03b_mesh
v 0.02557221 0.22731635 -0.19857097
v -0.23996076 0.14742655 -0.19397299
v -0.15834671 0.22731635 -0.18247806
v -0.2675486 0.09914783 -0.18880026
v -0.074433714 0.06351352 -0.21581337
v 0.05890751 0.19225678 -0.20546791
v 0.13764781 0.05259335 -0.19972044
v 0.28075972 0.13880533 -0.19454773
v 0.22558406 0.19225678 -0.18880026
v 0.28075972 -0.012353033 -0.28075972
v 0.067528725 -0.08707011 -0.26754057
v 0.28075972 -0.06293073 -0.28593245
v -0.03994891 -0.14569427 -0.2681153
v 0.23995271 -0.10776098 -0.28823143
v 0.016376257 -0.2089164 -0.28190923
v 0.07442568 -0.26581633 -0.27386278
v 0.23995271 -0.32041726 -0.28938094
vn 0.07003777 -0.14606188 0.9867931
vn 0.006684333 0.050333768 0.9987101
vn 0.08270845 -0.22208601 0.9715128
vn 0.04469639 -0.025690347 0.9986702
vn 0.032025695 -0.19040929 0.9811823
vn 0.013019681 -0.120720506 0.99260116
vn 0.07003777 -0.30444548 0.9499514
vn 0.05736707 -0.22842136 0.9718707
vn -0.09468117 -0.19040929 0.9771283
vn 0.13972653 -0.26643342 0.9536717
vn 0.089043796 -0.27276877 0.9579501
vn 0.09537913 -0.11438517 0.98884726
vn 0.08270845 -0.13972653 0.98672986
vn 0.089043796 -0.09537913 0.9914505
vn 0.032025695 -0.013019681 0.9994023
vn 0.05736707 -0.013019681 0.99826825
vn 0.089043796 -0.006684333 0.9960053
g tb_meeple_03b_mesh_0
f 3/3/3 2/2/2 1/1/1
f 2/2/2 4/4/4 1/1/1
f 1/1/1 4/4/4 5/5/5
f 1/1/1 5/5/5 6/6/6
f 7/7/7 6/6/6 5/5/5
f 6/6/6 7/7/7 8/8/8
f 9/9/9 6/6/6 8/8/8
f 7/7/7 10/10/10 8/8/8
f 7/7/7 5/5/5 11/11/11
f 10/10/10 7/7/7 11/11/11
f 10/10/10 11/11/11 12/12/12
f 11/11/11 5/5/5 13/13/13
f 12/12/12 11/11/11 14/14/14
f 14/14/14 11/11/11 13/13/13
f 14/14/14 13/13/13 15/15/15
f 16/16/16 14/14/14 15/15/15
f 16/16/16 17/17/17 14/14/14
