g tb_meeple_07a_mesh
v -0.113494456 -0.09117149 -0.15389909
v -0.1780535 -0.09117149 -0.16076708
v -0.1780535 -0.034854025 -0.17725024
v -0.07457587 0.07091293 -0.22120534
v -0.22109288 0.03291008 -0.19968565
v -0.220635 0.06725001 -0.19648059
v -0.14554504 0.13455626 -0.14153671
v -0.220635 0.13501412 -0.12596929
v -0.18309003 0.1688962 -0.12551141
v -0.22017714 0.2366603 -0.09437655
v -0.10800007 0.2366603 -0.044469193
v -0.070455074 0.16843832 -0.16488786
v 0.004177019 0.13501412 -0.19281766
v 0.004634887 0.20277825 -0.17770809
v 0.004634887 0.2366603 -0.102160275
v 0.004177019 0.1688962 -0.19968565
v -0.03474155 0.045730323 -0.21021655
v 0.041722 0.07869667 -0.23173624
v -0.019631982 -0.07148327 -0.15985134
v -0.0686236 -0.13695806 -0.1603092
vn 0.0030184984 0.25367916 0.9672837
vn -0.10699481 0.27201474 0.95632637
vn 0.0030184984 0.34535694 0.93846655
vn 0.03968954 -0.14970285 0.9879341
vn 0.094696224 0.14366591 0.9850851
vn 0.16803837 -0.44307157 0.8805968
vn 0.24138057 -0.42473602 0.872545
vn 0.18637395 -0.47974268 0.8573866
vn 0.13136733 -0.42473602 0.89573544
vn -0.19867253 -0.49807823 0.8440659
vn 0.094696224 -0.791447 0.6038578
vn 0.35139385 -0.46140712 0.81463236
vn 0.2963872 -0.18637395 0.93670666
vn 0.35139385 -0.69976926 0.6219689
vn 0.3330583 -0.8097825 0.48303673
vn 0.42473602 -0.14970285 0.8928541
vn 0.0030184984 0.21700811 0.9761651
vn 0.2963872 -0.07636064 0.95201033
vn 0.02135402 0.29035032 0.95668215
vn 0.07636064 -0.05802512 0.9953905
g tb_meeple_07a_mesh_0
f 3/3/3 2/2/2 1/1/1
f 3/3/3 1/1/1 4/4/4
f 5/5/5 3/3/3 4/4/4
f 4/4/4 6/6/6 5/5/5
f 6/6/6 4/4/4 7/7/7
f 8/8/8 6/6/6 7/7/7
f 7/7/7 9/9/9 8/8/8
f 10/10/10 8/8/8 9/9/9
f 10/10/10 9/9/9 11/11/11
f 9/9/9 7/7/7 12/12/12
f 9/9/9 12/12/12 11/11/11
f 4/4/4 13/13/13 7/7/7
f 7/7/7 13/13/13 12/12/12
f 12/12/12 14/14/14 11/11/11
f 14/14/14 15/15/15 11/11/11
f 16/16/16 14/14/14 12/12/12
f 16/16/16 12/12/12 13/13/13
f 4/4/4 17/17/17 13/13/13
f 4/4/4 1/1/1 17/17/17
f 17/17/17 18/18/18 13/13/13
f 18/18/18 17/17/17 19/19/19
f 17/17/17 1/1/1 19/19/19
f 19/19/19 1/1/1 20/20/20
