g tb_meeple_13a_mesh
v -0.09716639 -0.14014599 -0.12971926
v -0.033354804 -0.07258078 -0.17768222
v -0.033354804 -0.14014599 -0.17017497
v -0.0996688 -0.022949547 -0.14431667
v 0.0033472925 -0.0383811 -0.18644068
v 0.07758561 -0.07258078 -0.1914455
v 0.10052441 0.018757388 -0.15432633
v 0.049641967 0.057544813 -0.12304615
v -0.04169619 0.048786372 -0.1034439
v 0.01752764 0.094246894 -0.047973692
v -0.08715674 0.12010521 -0.055063874
v 0.027537301 0.13094899 -0.022532463
v -0.16139504 -0.067993015 -0.11929253
v -0.16139504 -0.10386097 -0.14598495
v -0.16139504 -0.14014599 -0.119709596
v -0.16139504 -0.031707987 -0.12679976
v -0.10175416 0.015837893 -0.11095114
v -0.17223886 0.032103598 -0.06966129
v -0.10050294 0.06672034 -0.09718786
v -0.15639022 0.12469295 -0.06841008
v -0.19350937 0.08840793 -0.1142877
v -0.19350937 0.16139504 -0.119709596
v -0.08298603 0.1605609 -0.10761459
v -0.19350937 0.19809714 -0.15432633
v -0.08215189 0.19851422 -0.13889478
v 0.11595597 0.19476059 -0.09093182
v 0.06632474 0.23521629 -0.12262908
v -0.19350937 0.23479924 -0.1576629
vn 0.3279415 0.14606619 0.9333376
vn 0.39904267 0.003863871 0.91692424
vn 0.5175446 0.098665416 0.84994864
vn 0.30424112 -0.3516419 0.8853165
vn 0.13833845 -0.28054073 0.9498207
vn -0.051264644 -0.25684035 0.96509326
vn 0.06723726 -0.5175446 0.85301036
vn 0.1620388 -0.6834473 0.7117888
vn 0.06723726 -0.6360465 0.7687158
vn -0.07496506 -0.6834473 0.7261405
vn -0.24086773 0.098665416 0.96552986
vn -0.24086773 0.43047088 0.86987215
vn 0.13833845 0.003863871 0.9903775
vn 0.090937674 0.1697666 0.9812796
vn 0.11463803 0.5963735 0.7944789
vn 0.30424112 -0.23313996 0.923625
vn 0.25684035 -0.4938442 0.8307532
vn 0.11463803 -0.25684035 0.9596307
vn 0.11463803 -0.37534228 0.9197697
vn -0.33566934 0.2882685 0.8967873
vn -0.80967706 0.098665416 0.57852244
vn -0.31196892 0.5963735 0.73960394
vn -0.21716738 0.69117504 0.6892861
vn -0.12236583 0.38307005 0.9155784
vn -0.1697666 0.43047088 0.8864954
vn -0.1697666 0.6674747 0.72502196
vn -0.19346696 0.4067704 0.8928093
vn -0.14606619 0.098665416 0.98434234
g tb_meeple_13a_mesh_0
f 3/3/3 2/2/2 1/1/1
f 2/2/2 4/4/4 1/1/1
f 5/5/5 4/4/4 2/2/2
f 5/5/5 2/2/2 6/6/6
f 7/7/7 5/5/5 6/6/6
f 5/5/5 7/7/7 8/8/8
f 9/9/9 5/5/5 8/8/8
f 4/4/4 5/5/5 9/9/9
f 9/9/9 8/8/8 10/10/10
f 11/11/11 9/9/9 10/10/10
f 12/12/12 11/11/11 10/10/10
f 4/4/4 13/13/13 1/1/1
f 13/13/13 14/14/14 1/1/1
f 1/1/1 14/14/14 15/15/15
f 4/4/4 16/16/16 13/13/13
f 4/4/4 17/17/17 16/16/16
f 17/17/17 4/4/4 9/9/9
f 16/16/16 17/17/17 18/18/18
f 19/19/19 17/17/17 9/9/9
f 19/19/19 18/18/18 17/17/17
f 11/11/11 19/19/19 9/9/9
f 19/19/19 20/20/20 18/18/18
f 20/20/20 19/19/19 11/11/11
f 20/20/20 21/21/21 18/18/18
f 22/22/22 21/21/21 20/20/20
f 11/11/11 23/23/23 20/20/20
f 23/23/23 22/22/22 20/20/20
f 11/11/11 12/12/12 23/23/23
f 22/22/22 23/23/23 24/24/24
f 23/23/23 12/12/12 25/25/25
f 23/23/23 25/25/25 24/24/24
f 12/12/12 26/26/26 25/25/25
f 26/26/26 27/27/27 25/25/25
f 25/25/25 27/27/27 24/24/24
f 27/27/27 28/28/28 24/24/24
