g tb_meeple_12b_mesh
v 0.20811981 -0.30236173 -0.2155321
v -0.017954916 -0.30236173 -0.21870878
v 0.027577698 -0.26053524 -0.23565115
v 0.20811981 -0.25788802 -0.21712044
v 0.07258086 -0.21712044 -0.268477
v 0.20811981 -0.21394375 -0.24729903
v 0.07258086 -0.17317617 -0.27218312
v 0.20811981 -0.081052035 -0.2610647
v 0.119172364 -0.02704823 -0.27112424
v 0.028107136 -0.08316983 -0.2674181
v 0.20811981 0.007365942 -0.24412233
v 0.02704823 0.042309582 -0.28224266
v 0.21659099 0.10690236 -0.2663592
v 0.23565115 0.034897298 -0.21659099
v 0.26371196 0.062428653 -0.22241493
v 0.26371196 0.10690236 -0.25100517
v 0.26371196 0.15084663 -0.25100517
v 0.12552576 0.14978772 -0.27483037
v 0.26371196 0.19532034 -0.22929776
v 0.16947003 0.19532034 -0.23988675
v -0.06560534 0.19532034 -0.22082658
v 0.21659099 0.2392646 -0.15782215
v 0.26371196 0.2392646 -0.16046938
v -0.018484384 0.2392646 -0.13240859
v -0.1127263 0.2392646 -0.16788168
vn -0.08889431 0.08889431 0.9920663
vn -0.017319977 0.37519163 0.9267854
vn -0.041178107 0.4229079 0.9052366
vn -0.11275238 0.32747537 0.9381081
vn -0.13661057 0.4229079 0.8958161
vn -0.13661057 0.37519163 0.91682535
vn -0.08889431 0.06503618 0.9939155
vn -0.16046864 -0.030396283 0.9865728
vn -0.11275238 -0.030396283 0.9931581
vn -0.017319977 -0.030396283 0.99938786
vn -0.35133356 0.08889431 0.93202066
vn -0.13661057 0.041178107 0.9897686
vn -0.25590104 0.11275238 0.960105
vn -0.6137727 0.32747537 0.7183613
vn -0.27975923 0.49448222 0.82293504
vn -0.3036173 0.27975923 0.91079706
vn -0.18432671 -0.29283547 0.93822765
vn -0.041178107 -0.34055167 0.93932366
vn -0.041178107 -0.72228146 0.6903723
vn -0.041178107 -0.72228146 0.6903723
vn -0.017319977 -0.8654301 0.50073016
vn 0.030396283 -0.8654301 0.50010675
vn 0.030396283 -0.84157205 0.53928894
vn -0.017319977 -0.88928825 0.45701906
vn -0.017319977 -0.88928825 0.45701906
g tb_meeple_12b_mesh_0
f 3/3/3 2/2/2 1/1/1
f 4/4/4 3/3/3 1/1/1
f 5/5/5 3/3/3 4/4/4
f 6/6/6 5/5/5 4/4/4
f 5/5/5 6/6/6 7/7/7
f 6/6/6 8/8/8 7/7/7
f 7/7/7 8/8/8 9/9/9
f 7/7/7 9/9/9 10/10/10
f 8/8/8 11/11/11 9/9/9
f 12/12/12 10/10/10 9/9/9
f 11/11/11 12/12/12 9/9/9
f 11/11/11 13/13/13 12/12/12
f 11/11/11 14/14/14 13/13/13
f 14/14/14 15/15/15 13/13/13
f 15/15/15 16/16/16 13/13/13
f 17/17/17 13/13/13 16/16/16
f 12/12/12 13/13/13 18/18/18
f 17/17/17 18/18/18 13/13/13
f 17/17/17 19/19/19 18/18/18
f 19/19/19 20/20/20 18/18/18
f 20/20/20 21/21/21 18/18/18
f 20/20/20 19/19/19 22/22/22
f 19/19/19 23/23/23 22/22/22
f 24/24/24 20/20/20 22/22/22
f 20/20/20 24/24/24 21/21/21
f 24/24/24 25/25/25 21/21/21
