g tb_meeple_10a_mesh
v -0.0005880147 0.1720734 -0.22206637
v -0.18451992 0.20618606 -0.1128136
v 0.10958673 0.20618606 -0.18749271
v -0.18451992 0.13749972 -0.23543486
v -0.110762745 0.10246506 -0.23727879
v -0.077111065 -0.019234225 -0.17366326
v -0.18451992 0.0001270324 -0.19763432
v 0.07501306 0.06604749 -0.14830923
v -0.23430598 -0.07731797 -0.1773511
v -0.07434517 0.06282061 -0.22898111
v 0.0067877024 0.0144174695 -0.17596816
v 0.102671996 0.001048997 -0.15614593
v 0.036290556 -0.04919806 -0.20224415
v -0.10845783 -0.102671996 -0.18979762
v -0.23430598 -0.15338004 -0.18380485
v 0.14462137 -0.102671996 -0.19717334
vn -0.07402414 -0.52104783 0.85031146
vn 0.13117307 -0.8698831 0.47549656
vn 0.13117307 -0.8698831 0.47549656
vn 0.0490942 -0.35689002 0.9328554
vn -0.11506361 0.17662281 0.97752994
vn 0.028574467 0.094543874 0.9951105
vn -0.07402414 0.3613003 0.9295066
vn -0.4228595 0.15610307 0.8926487
vn 0.028574467 -0.008054733 0.9995592
vn -0.25870162 0.2997411 0.9182749
vn -0.23818189 0.27922136 0.9302176
vn -0.032984734 -0.4184492 0.90764105
vn 0.028574467 -0.25429142 0.9667054
vn 0.09013361 -0.17221254 0.9809275
vn 0.09013361 -0.09013361 0.9918427
vn 0.028574467 0.15610307 0.98732734
g tb_meeple_10a_mesh_0
f 3/3/3 2/2/2 1/1/1
f 4/4/4 1/1/1 2/2/2
f 4/4/4 5/5/5 1/1/1
f 5/5/5 4/4/4 6/6/6
f 4/4/4 7/7/7 6/6/6
f 1/1/1 5/5/5 8/8/8
f 7/7/7 9/9/9 6/6/6
f 5/5/5 10/10/10 8/8/8
f 5/5/5 6/6/6 10/10/10
f 10/10/10 11/11/11 8/8/8
f 6/6/6 11/11/11 10/10/10
f 11/11/11 6/6/6 12/12/12
f 13/13/13 12/12/12 6/6/6
f 9/9/9 14/14/14 6/6/6
f 14/14/14 13/13/13 6/6/6
f 14/14/14 9/9/9 15/15/15
f 14/14/14 16/16/16 13/13/13
