g tb_meeple_09b_mesh
v 0.15993679 0.06665757 -0.25857198
v 0.18019699 0.16102746 -0.20578882
v 0.21965107 0.12583867 -0.22658218
v 0.026645988 0.13490245 -0.24630922
v 0.023447007 0.16102746 -0.2207174
v 0.01651591 0.026137143 -0.2804317
v 0.15993679 0.01973921 -0.28469697
v 0.15993679 -0.027179152 -0.28469697
v 0.01651591 -0.025579661 -0.28309748
v 0.07036537 -0.10395464 -0.2495082
v 0.15993679 -0.12048271 -0.25324035
v -0.104512155 -0.07036537 -0.27403373
v -0.104512155 -0.12314853 -0.26390362
v -0.10931063 -0.23298015 -0.26923525
v 0.1828628 -0.14020975 -0.25430667
v 0.031977624 -0.23457964 -0.2569725
v -0.0618591 -0.33534747 -0.24151076
v 0.1338118 -0.33534747 -0.2612378
v 0.18232964 -0.33534747 -0.2569725
v 0.18232964 -0.3843985 -0.24417657
v 0.036242932 -0.3843985 -0.23991127
v 0.035176605 -0.28629646 -0.2511077
vn -0.07416791 -0.4067735 0.9105133
vn -0.10422677 -0.49695003 0.8614972
vn -0.1192562 -0.46689117 0.8762366
vn -0.07416791 -0.54203826 0.83707446
vn -0.059138477 -0.7073619 0.70437336
vn -0.014050245 -0.1963616 0.9804309
vn -0.014050245 -0.1963616 0.9804309
vn 0.031038046 0.16434443 0.9859146
vn -0.014050245 0.23949152 0.97079676
vn -0.014050245 0.17937386 0.9836806
vn 0.061096847 0.10422677 0.9926751
vn -0.08919734 0.23949152 0.96679246
vn -0.08919734 0.059138477 0.99425673
vn -0.07416791 0.07416791 0.99448395
vn 0.0009791851 -0.046067417 0.99893785
vn -0.014050245 0.029079676 0.99947834
vn -0.014050245 0.16434443 0.986303
vn 0.031038046 0.1192562 0.99237823
vn -0.08919734 0.1192562 0.98884875
vn 0.016008615 0.23949152 0.9707665
vn 0.07612628 0.17937386 0.9808312
vn 0.09115571 0.13428557 0.9867411
g tb_meeple_09b_mesh_0
f 3/3/3 2/2/2 1/1/1
f 2/2/2 4/4/4 1/1/1
f 2/2/2 5/5/5 4/4/4
f 1/1/1 4/4/4 6/6/6
f 7/7/7 1/1/1 6/6/6
f 7/7/7 6/6/6 8/8/8
f 6/6/6 9/9/9 8/8/8
f 9/9/9 10/10/10 8/8/8
f 10/10/10 11/11/11 8/8/8
f 12/12/12 10/10/10 9/9/9
f 10/10/10 12/12/12 13/13/13
f 10/10/10 13/13/13 14/14/14
f 10/10/10 15/15/15 11/11/11
f 10/10/10 14/14/14 16/16/16
f 15/15/15 10/10/10 16/16/16
f 16/16/16 14/14/14 17/17/17
f 18/18/18 15/15/15 16/16/16
f 19/19/19 15/15/15 18/18/18
f 20/20/20 19/19/19 18/18/18
f 20/20/20 18/18/18 21/21/21
f 22/22/22 17/17/17 21/21/21
f 22/22/22 16/16/16 17/17/17
f 18/18/18 16/16/16 22/22/22
f 18/18/18 22/22/22 21/21/21
