g tb_meeple_12a_mesh
v -0.10796127 -0.30236173 -0.24676958
v -0.19849706 -0.30236173 -0.24200454
v -0.19849706 -0.26053524 -0.25418186
v -0.06295809 -0.26053524 -0.2557702
v -0.017954916 -0.30236173 -0.21870878
v 0.027577698 -0.26053524 -0.23565115
v -0.19849706 -0.17635286 -0.25312296
v -0.017954916 -0.21817933 -0.25735855
v 0.07258086 -0.21712044 -0.268477
v 0.07258086 -0.17317617 -0.27218312
v -0.06295809 -0.1758234 -0.25312296
v -0.19849706 -0.05034399 -0.25471133
v -0.06295809 -0.043990612 -0.26582974
v 0.028107136 -0.08316983 -0.2674181
v -0.21702778 -0.031283826 -0.25365242
v -0.12066805 0.05501637 -0.2859488
v -0.21702778 0.053428024 -0.28436047
v 0.02704823 0.042309582 -0.28224266
v -0.21702778 0.09578395 -0.2859488
v -0.016366571 0.10107842 -0.28541934
v 0.12552576 0.14978772 -0.27483037
v -0.11960915 0.14237544 -0.27588928
v -0.21702778 0.1376104 -0.26900643
v -0.06560534 0.19532034 -0.22082658
v -0.13866931 0.2138511 -0.21923822
v -0.1127263 0.2392646 -0.16788168
vn -0.041661203 0.29768813 0.9537537
vn 0.022345543 0.23368144 0.9720564
vn 0.022345543 0.12700355 0.9916505
vn -0.08433235 0.27635264 0.95734906
vn -0.21234584 0.511044 0.8329125
vn -0.08433235 0.44703722 0.8905312
vn 0.022345543 0.020325601 0.99954367
vn 0.022345543 0.16967463 0.9852468
vn 0.06501669 0.21234584 0.9750293
vn 0.10768783 0.062996805 0.99218684
vn 0.08635229 -0.0010099411 0.99626416
vn 0.06501669 0.041661203 0.99701416
vn 0.06501669 0.12700355 0.9897691
vn 0.06501669 0.08433235 0.99431425
vn 0.06501669 0.21234584 0.9750293
vn 0.022345543 0.08433235 0.9961871
vn 0.0010099411 0.19101024 0.9815875
vn 0.0010099411 0.041661203 0.9991313
vn 0.043681085 -0.15035903 0.98766595
vn -0.020325601 -0.06501669 0.99767715
vn -0.020325601 -0.32104367 0.9468463
vn 0.0010099411 -0.42772156 0.90391
vn 0.043681085 -0.4703927 0.88137543
vn -0.041661203 -0.7264197 0.6859875
vn -0.08433235 -0.7264197 0.6820575
vn -0.21234584 -0.8330976 0.5107423
g tb_meeple_12a_mesh_0
f 3/3/3 2/2/2 1/1/1
f 4/4/4 3/3/3 1/1/1
f 4/4/4 1/1/1 5/5/5
f 6/6/6 4/4/4 5/5/5
f 3/3/3 4/4/4 7/7/7
f 8/8/8 4/4/4 6/6/6
f 4/4/4 8/8/8 7/7/7
f 9/9/9 8/8/8 6/6/6
f 9/9/9 10/10/10 8/8/8
f 8/8/8 11/11/11 7/7/7
f 12/12/12 7/7/7 11/11/11
f 13/13/13 8/8/8 10/10/10
f 13/13/13 11/11/11 8/8/8
f 13/13/13 12/12/12 11/11/11
f 14/14/14 13/13/13 10/10/10
f 12/12/12 13/13/13 15/15/15
f 13/13/13 14/14/14 16/16/16
f 13/13/13 16/16/16 15/15/15
f 15/15/15 16/16/16 17/17/17
f 14/14/14 18/18/18 16/16/16
f 17/17/17 16/16/16 19/19/19
f 20/20/20 16/16/16 18/18/18
f 16/16/16 20/20/20 19/19/19
f 18/18/18 21/21/21 20/20/20
f 20/20/20 22/22/22 19/19/19
f 21/21/21 22/22/22 20/20/20
f 19/19/19 22/22/22 23/23/23
f 22/22/22 21/21/21 24/24/24
f 23/23/23 22/22/22 25/25/25
f 22/22/22 24/24/24 25/25/25
f 26/26/26 25/25/25 24/24/24
