g tb_meeple_13b_mesh
v 0.23951173 0.09326905 -0.16268352
v 0.23951173 0.058887362 -0.17074835
v 0.1652303 0.15439206 -0.11174768
v 0.04977575 0.05761397 -0.12320824
v 0.11726572 0.14590275 -0.072272405
v 0.11556786 0.19471624 -0.09094888
v 0.01751639 0.094118 -0.04807788
v 0.027279094 0.13104647 -0.022185504
v 0.10028711 0.018563151 -0.1541942
v 0.09264673 0.16627708 -0.057840586
v 0.21107255 0.024505675 -0.15886332
v 0.23951173 -0.0442577 -0.09137334
v 0.13509327 -0.018789783 -0.15716547
v 0.077790454 -0.072696865 -0.19154716
v 0.16225904 -0.07863939 -0.1444315
v 0.12830183 -0.09943819 -0.17032388
v 0.23951173 -0.07863939 -0.11132321
v 0.18220891 -0.113021076 -0.09392014
v 0.23951173 -0.113021076 -0.091797814
vn 0.44023252 -0.20009553 0.875304
vn 0.10003847 1.859665E-05 0.99498355
vn 0.4202211 -0.40020967 0.8143994
vn 0.40020967 -0.52027816 0.7544156
vn 0.6203352 -0.3001526 0.72463274
vn 0.6203352 -0.040004253 0.78331596
vn 0.48025534 -0.64034665 0.59942555
vn 0.48025534 -0.44023252 0.7586502
vn 0.019992828 -0.20009553 0.9795724
vn 0.3001526 0.46028113 0.8354937
vn -0.1801213 0.4402697 0.8796129
vn -0.42025828 0.08006424 0.9038654
vn -0.34021264 0.040041447 0.9394956
vn -0.42025828 -0.18008414 0.8893552
vn -0.5203154 0.20013273 0.830192
vn -0.5203154 -0.06001562 0.85186267
vn -0.40024686 0.20013273 0.89428705
vn -0.360224 0.6203724 0.69668984
vn -0.040041447 0.500304 0.8649235
g tb_meeple_13b_mesh_0
f 3/3/3 2/2/2 1/1/1
f 4/4/4 2/2/2 3/3/3
f 5/5/5 4/4/4 3/3/3
f 6/6/6 5/5/5 3/3/3
f 4/4/4 5/5/5 7/7/7
f 8/8/8 7/7/7 5/5/5
f 4/4/4 9/9/9 2/2/2
f 8/8/8 10/10/10 6/6/6
f 10/10/10 8/8/8 5/5/5
f 6/6/6 10/10/10 5/5/5
f 2/2/2 9/9/9 11/11/11
f 12/12/12 2/2/2 11/11/11
f 9/9/9 13/13/13 11/11/11
f 13/13/13 12/12/12 11/11/11
f 9/9/9 14/14/14 13/13/13
f 12/12/12 13/13/13 15/15/15
f 14/14/14 15/15/15 13/13/13
f 14/14/14 16/16/16 15/15/15
f 17/17/17 12/12/12 15/15/15
f 16/16/16 18/18/18 15/15/15
f 18/18/18 17/17/17 15/15/15
f 18/18/18 19/19/19 17/17/17
