g tb_meeple_15a_mesh
v -0.16491058 -0.19401333 -0.24019656
v -0.046942562 -0.2793519 -0.18096155
v -0.16491058 -0.2793519 -0.21308902
v -0.046942562 -0.19351134 -0.1734317
v 0.07052344 -0.2793519 -0.13477835
v 0.054961696 -0.23668261 -0.13277037
v -0.16491058 -0.10817279 -0.23969457
v 0.024340212 -0.15535998 -0.08357522
v -0.039412707 -0.09813297 -0.13528034
v 0.044921875 -0.13076241 -0.026850164
v 0.045925856 -0.04341589 -0.13929626
v 0.028858155 -0.0037585795 -0.17895359
v 0.13377436 -0.02936013 -0.17092173
v 0.14180623 0.006783247 -0.18798944
v -0.06601825 -0.023336232 -0.22312884
v -0.16491058 0.020337015 -0.24069855
v -0.10768354 0.0755561 -0.20606112
v 0.0072725117 0.039914697 -0.1844755
v 0.10465886 0.048448533 -0.1904994
v -0.021842986 0.09563574 -0.20907308
v -0.10768354 0.115213424 -0.24371049
v -0.012807161 0.17595437 -0.20405316
v 0.14481817 0.09011385 -0.19401333
v 0.10566284 0.17545238 -0.19200537
v -0.051962495 0.17595437 -0.22312884
v -0.10768354 0.19452807 -0.24120054
v -0.10768354 0.2341854 -0.21007706
vn -0.4329437 0.040513635 0.9005101
vn -0.37098104 0.019859374 0.92842805
vn -0.39163524 0.10247624 0.9143962
vn -0.51556057 -0.16602853 0.8406139
vn -0.4122895 -0.14537433 0.8993796
vn -0.47425216 -0.33126226 0.81569004
vn -0.47425216 0.08182204 0.87657857
vn -0.6807943 -0.43453333 0.5896608
vn -0.6188316 0.28836417 0.7306802
vn -0.7427569 0.2057473 0.6371658
vn -0.22640157 0.7014485 0.675805
vn -0.2057473 0.4122895 0.88751644
vn 0.00079482794 0.49490637 0.86894596
vn 0.04210323 0.30901843 0.9501236
vn -0.35032684 -0.00079482794 0.93662715
vn -0.22640157 -0.14537433 0.9631244
vn -0.22640157 0.1644389 0.9600532
vn -0.1437847 0.2057473 0.9679845
vn 0.00079482794 0.10247624 0.9947351
vn -0.1644389 0.2057473 0.96469057
vn -0.28836417 0.28836417 0.91306746
vn -0.26770997 -0.02144903 0.96326077
vn -0.061167836 0.019859374 0.99792993
vn -0.061167836 0.019859374 0.99792993
vn -0.39163524 -0.104065895 0.9142167
vn -0.39163524 -0.33126226 0.8584213
vn -0.4122895 -0.5584586 0.7198204
g tb_meeple_15a_mesh_0
f 3/3/3 2/2/2 1/1/1
f 2/2/2 4/4/4 1/1/1
f 4/4/4 2/2/2 5/5/5
f 4/4/4 5/5/5 6/6/6
f 7/7/7 1/1/1 4/4/4
f 4/4/4 6/6/6 8/8/8
f 4/4/4 8/8/8 7/7/7
f 8/8/8 9/9/9 7/7/7
f 8/8/8 10/10/10 9/9/9
f 10/10/10 11/11/11 9/9/9
f 12/12/12 9/9/9 11/11/11
f 9/9/9 12/12/12 7/7/7
f 13/13/13 12/12/12 11/11/11
f 14/14/14 12/12/12 13/13/13
f 15/15/15 7/7/7 12/12/12
f 15/15/15 16/16/16 7/7/7
f 17/17/17 16/16/16 15/15/15
f 12/12/12 14/14/14 18/18/18
f 18/18/18 15/15/15 12/12/12
f 17/17/17 15/15/15 18/18/18
f 14/14/14 19/19/19 18/18/18
f 20/20/20 17/17/17 18/18/18
f 20/20/20 18/18/18 19/19/19
f 20/20/20 21/21/21 17/17/17
f 22/22/22 20/20/20 19/19/19
f 19/19/19 23/23/23 22/22/22
f 23/23/23 24/24/24 22/22/22
f 22/22/22 25/25/25 20/20/20
f 20/20/20 25/25/25 21/21/21
f 25/25/25 26/26/26 21/21/21
f 26/26/26 25/25/25 27/27/27
