g tb_meeple_16a_mesh
v -0.018322676 -0.21409936 -0.020832643
v -0.018322676 -0.25676864 -0.026856542
v -0.05747801 -0.25676864 -0.030370489
v -0.05747801 -0.21409936 -0.03438641
v -0.096633345 -0.25676864 -0.029366508
v -0.05697602 -0.17143008 -0.025852561
v -0.010792822 -0.16942212 0.00025099516
v -0.02535057 -0.13277674 0.02484858
v -0.096633345 -0.21409936 -0.047940195
v -0.13578871 -0.25676864 -0.02334261
v -0.05446607 -0.1292628 -0.0087848455
v -0.03940633 -0.08408357 0.06751785
v -0.096131355 -0.17092809 -0.03840235
v -0.13578871 -0.21409936 -0.05396408
v -0.17494404 -0.25676864 -0.02535057
v -0.09412339 -0.12725484 -0.029366508
v -0.0886015 -0.07554972 -0.008282855
v -0.13578871 -0.17092809 -0.048442185
v -0.17494404 -0.21409936 -0.058482006
v -0.21409938 -0.25676864 -0.03990832
v -0.21409938 -0.21409936 -0.066513866
v -0.21409938 -0.17143008 -0.07805967
v -0.17494404 -0.17143008 -0.062999934
v -0.21409938 -0.12825882 -0.08558954
v -0.17494404 -0.12825882 -0.07504773
v -0.21409938 -0.08558954 -0.066011876
v -0.1347847 -0.12775683 -0.062497944
v -0.17494404 -0.08558954 -0.059485987
v -0.1347847 -0.08358158 -0.043422267
v -0.17494404 -0.042920277 -0.021334633
v -0.21409938 -0.042920277 -0.04743819
v -0.13729468 -0.043924257 -0.0153107345
v -0.17494404 -0.010792822 -0.029868498
v -0.21409938 -0.00025099516 -0.043924257
v -0.13980463 -0.01681672 -0.027860522
v -0.09964532 -0.03087248 -0.0027609468
v -0.176952 0.061493963 -0.042418286
v -0.21409938 0.04292026 -0.048944175
v -0.18548584 0.07052979 -0.036896378
v -0.15737432 0.098139346 -0.048442185
v -0.13277674 0.033382446 -0.044426247
v -0.14432254 0.09311941 -0.056474045
v -0.047438204 -0.03940633 0.050450146
v -0.00828287 -0.058983997 0.08558956
v -0.003262937 -0.020832643 0.048944175
v -0.059987992 -0.004768908 -0.00025099516
v -0.020330667 0.018824667 -0.00025099516
v -0.04191628 0.062497944 -0.045430228
v 0.01731871 0.030370474 -0.0022589564
v 0.014306754 0.0700278 -0.03187646
v -0.115207046 -0.0007529855 -0.03187646
v -0.081573606 0.025852561 -0.03388442
v -0.10516721 0.0765537 -0.050450146
v -0.029868484 0.113701075 -0.06952582
v 0.014306754 0.112697095 -0.048442185
v -0.0715338 0.11821899 -0.066513866
v -0.10918313 0.13779667 -0.060489967
v -0.02284062 0.15586835 -0.06801985
v 0.01681672 0.15586835 -0.063501924
v -0.061995953 0.15586835 -0.073039755
v -0.022338629 0.19853762 -0.07805967
v 0.01681672 0.19803563 -0.06801985
v -0.061995953 0.19853762 -0.079565644
v -0.10165328 0.19853762 -0.073039755
v -0.10918313 0.18046594 -0.0705298
v -0.14432254 0.13779667 -0.049446166
v -0.15737432 0.13779667 -0.043422267
v -0.15737432 0.177454 -0.049446166
v -0.14432254 0.177454 -0.052458107
v -0.15737432 0.21711132 -0.056474045
v -0.14432254 0.21711132 -0.058482006
v -0.1292628 0.22765315 -0.06751786
v -0.15737432 0.25676864 -0.065007895
vt 0.0849808 0.030975996
vt 0.0849808 0.0011312366
vt 0.09777141 0.0011312366
vt 0.09777141 0.030975996
vt 0.1119832 0.0011312366
vt 0.09777141 0.060820755
vt 0.08213844 0.062241934
vt 0.08640198 0.08782316
vt 0.1119832 0.030975996
vt 0.126195 0.0011312366
vt 0.09777141 0.09066552
vt 0.092086695 0.12335263
vt 0.1119832 0.062241934
vt 0.126195 0.030975996
vt 0.14040679 0.0011312366
vt 0.1119832 0.092086695
vt 0.10914084 0.12903735
vt 0.126195 0.062241934
vt 0.14040679 0.030975996
vt 0.15461858 0.0011312366
vt 0.15461858 0.030975996
vt 0.15461858 0.060820755
vt 0.14040679 0.060820755
vt 0.15461858 0.092086695
vt 0.14040679 0.092086695
vt 0.15461858 0.121931456
vt 0.126195 0.092086695
vt 0.14040679 0.121931456
vt 0.126195 0.12335263
vt 0.14040679 0.15177621
vt 0.15461858 0.15177621
vt 0.126195 0.15177621
vt 0.14040679 0.17451508
vt 0.15461858 0.18162097
vt 0.12761617 0.17025155
vt 0.11340438 0.1603033
vt 0.14040679 0.22567752
vt 0.15461858 0.21288691
vt 0.14324914 0.23278342
vt 0.13330089 0.25125876
vt 0.124773815 0.20578101
vt 0.12903735 0.2484164
vt 0.094929054 0.15461858
vt 0.080717266 0.14040679
vt 0.07929608 0.16740918
vt 0.09919259 0.17877862
vt 0.0849808 0.19583276
vt 0.092086695 0.22567752
vt 0.07219019 0.20435984
vt 0.07219019 0.23136224
vt 0.1190891 0.18162097
vt 0.106298484 0.20009631
vt 0.11482556 0.23704696
vt 0.08782316 0.26262817
vt 0.07219019 0.261207
vt 0.103456125 0.26547053
vt 0.11624674 0.27968234
vt 0.08640198 0.29247293
vt 0.07219019 0.29247293
vt 0.10061377 0.29247293
vt 0.08640198 0.3223177
vt 0.07219019 0.3223177
vt 0.10061377 0.3223177
vt 0.11340438 0.3223177
vt 0.11624674 0.3095271
vt 0.12903735 0.27968234
vt 0.13330089 0.27968234
vt 0.13330089 0.30810592
vt 0.12903735 0.30810592
vt 0.13330089 0.3351083
vt 0.12903735 0.3351083
vt 0.12335263 0.34363538
vt 0.13330089 0.3635319
vn -0.32339507 -0.15259331 0.9338795
vn -0.095748484 -0.13189816 0.9866282
vn -0.095748484 0.033663034 0.99483615
vn -0.28200477 -0.0077272654 0.9593819
vn 0.0077272654 0.32339507 0.94623244
vn -0.40617567 -0.27676418 0.8708748
vn -0.40617567 -0.5044108 0.7619653
vn -0.59243196 -0.5458011 0.59255844
vn -0.21991932 0.13713872 0.96583045
vn -0.012967885 0.5303466 0.84768176
vn -0.63382226 -0.35954478 0.68483347
vn -0.75799316 -0.090507865 0.6459526
vn -0.34409022 -0.13189816 0.92962617
vn -0.15783387 0.28200477 0.9463413
vn -0.15783387 0.59243196 0.7900081
vn -0.50965136 -0.25606903 0.8213916
vn -0.6131272 -0.31815448 0.7230856
vn -0.28200477 0.075053334 0.9564729
vn -0.17852902 0.38548052 0.9052802
vn -0.24061447 0.5717369 0.78436065
vn -0.17852902 0.38548052 0.9052802
vn -0.32339507 0.15783387 0.9330081
vn -0.32339507 0.13713872 0.93627375
vn -0.28200477 -0.090507865 0.9551344
vn -0.28200477 -0.049117565 0.95815486
vn -0.24061447 -0.4630205 0.8530631
vn -0.42687082 -0.069812715 0.90161383
vn -0.19922417 -0.48371565 0.8522493
vn -0.42687082 -0.44232535 0.78875196
vn -0.30269992 -0.17328846 0.9372
vn -0.48895627 -0.17328846 0.8549228
vn -0.32339507 -0.111203015 0.9397071
vn -0.19922417 0.19922417 0.95948917
vn -0.30269992 0.054358184 0.9515345
vn -0.13713872 0.38548052 0.91246796
vn -0.48895627 0.24061447 0.83846676
vn 0.15259331 -0.028422415 0.9878803
vn -0.17852902 0.033663034 0.9833586
vn 0.27676418 -0.27676418 0.9202191
vn 0.48371565 -0.13189816 0.8652295
vn -0.012967885 0.24061447 0.97053415
vn 0.21467876 0.033663034 0.97610444
vn -0.5717369 0.42687082 0.7006413
vn -0.46826106 0.44756597 0.76185054
vn -0.30269992 0.6959078 0.6512182
vn -0.38548052 0.63382226 0.67057747
vn -0.30269992 0.63382226 0.71178794
vn -0.15783387 0.48895627 0.8579104
vn -0.19922417 0.63382226 0.7473815
vn -0.30269992 0.48895627 0.8181042
vn -0.21991932 0.44756597 0.86678725
vn -0.24061447 0.44756597 0.861272
vn -0.033663034 0.24061447 0.97003686
vn -0.15783387 0.24061447 0.95770204
vn -0.34409022 0.26130962 0.9018421
vn 0.13189816 0.21991932 0.96656007
vn 0.23537388 0.116443574 0.9649042
vn -0.15783387 0.15783387 0.9747702
vn -0.13713872 0.26130962 0.95546335
vn 0.049117565 0.13713872 0.98933333
vn -0.116443574 0.19922417 0.97301114
vn -0.24061447 0.095748484 0.9658866
vn 0.049117565 0.17852902 0.9827079
vn 0.23537388 0.075053334 0.96900266
vn 0.27676418 0.13713872 0.9511018
vn 0.35954478 -0.0077272654 0.9330958
vn 0.44232535 0.012967885 0.89676094
vn 0.25606903 0.13713872 0.95688117
vn 0.31815448 0.13713872 0.9380675
vn 0.15259331 0.17852902 0.97203016
vn 0.27676418 0.17852902 0.9442081
vn 0.38023993 0.24061447 0.893041
vn 0.27676418 0.24061447 0.9303259
g tb_meeple_16a_mesh_0
f 3/3/3 2/2/2 1/1/1
f 1/1/1 4/4/4 3/3/3
f 5/5/5 3/3/3 4/4/4
f 6/6/6 4/4/4 1/1/1
f 1/1/1 7/7/7 6/6/6
f 6/6/6 7/7/7 8/8/8
f 4/4/4 9/9/9 5/5/5
f 10/10/10 5/5/5 9/9/9
f 8/8/8 11/11/11 6/6/6
f 12/12/12 11/11/11 8/8/8
f 4/4/4 6/6/6 13/13/13
f 13/13/13 9/9/9 4/4/4
f 9/9/9 14/14/14 10/10/10
f 15/15/15 10/10/10 14/14/14
f 6/6/6 11/11/11 16/16/16
f 16/16/16 13/13/13 6/6/6
f 11/11/11 12/12/12 17/17/17
f 17/17/17 16/16/16 11/11/11
f 9/9/9 13/13/13 18/18/18
f 18/18/18 14/14/14 9/9/9
f 14/14/14 19/19/19 15/15/15
f 20/20/20 15/15/15 19/19/19
f 19/19/19 21/21/21 20/20/20
f 22/22/22 21/21/21 19/19/19
f 23/23/23 19/19/19 14/14/14
f 19/19/19 23/23/23 22/22/22
f 14/14/14 18/18/18 23/23/23
f 24/24/24 22/22/22 23/23/23
f 23/23/23 25/25/25 24/24/24
f 25/25/25 23/23/23 18/18/18
f 26/26/26 24/24/24 25/25/25
f 27/27/27 18/18/18 13/13/13
f 13/13/13 16/16/16 27/27/27
f 18/18/18 27/27/27 25/25/25
f 25/25/25 28/28/28 26/26/26
f 28/28/28 25/25/25 27/27/27
f 29/29/29 27/27/27 16/16/16
f 27/27/27 29/29/29 28/28/28
f 16/16/16 17/17/17 29/29/29
f 26/26/26 28/28/28 30/30/30
f 30/30/30 31/31/31 26/26/26
f 28/28/28 29/29/29 32/32/32
f 32/32/32 29/29/29 17/17/17
f 32/32/32 30/30/30 28/28/28
f 31/31/31 30/30/30 33/33/33
f 33/33/33 34/34/34 31/31/31
f 30/30/30 32/32/32 35/35/35
f 35/35/35 33/33/33 30/30/30
f 17/17/17 36/36/36 32/32/32
f 35/35/35 32/32/32 36/36/36
f 37/37/37 34/34/34 33/33/33
f 38/38/38 34/34/34 37/37/37
f 37/37/37 39/39/39 38/38/38
f 40/40/40 39/39/39 37/37/37
f 41/41/41 33/33/33 35/35/35
f 33/33/33 41/41/41 37/37/37
f 37/37/37 42/42/42 40/40/40
f 42/42/42 37/37/37 41/41/41
f 36/36/36 17/17/17 43/43/43
f 17/17/17 12/12/12 43/43/43
f 43/43/43 12/12/12 44/44/44
f 44/44/44 45/45/45 43/43/43
f 46/46/46 43/43/43 45/45/45
f 43/43/43 46/46/46 36/36/36
f 45/45/45 47/47/47 46/46/46
f 46/46/46 47/47/47 48/48/48
f 48/48/48 47/47/47 49/49/49
f 49/49/49 50/50/50 48/48/48
f 51/51/51 36/36/36 46/46/46
f 36/36/36 51/51/51 35/35/35
f 35/35/35 51/51/51 41/41/41
f 46/46/46 52/52/52 51/51/51
f 41/41/41 51/51/51 52/52/52
f 48/48/48 52/52/52 46/46/46
f 53/53/53 41/41/41 52/52/52
f 52/52/52 48/48/48 53/53/53
f 41/41/41 53/53/53 42/42/42
f 54/54/54 48/48/48 50/50/50
f 50/50/50 55/55/55 54/54/54
f 56/56/56 53/53/53 48/48/48
f 48/48/48 54/54/54 56/56/56
f 42/42/42 53/53/53 57/57/57
f 56/56/56 57/57/57 53/53/53
f 58/58/58 54/54/54 55/55/55
f 55/55/55 59/59/59 58/58/58
f 60/60/60 56/56/56 54/54/54
f 57/57/57 56/56/56 60/60/60
f 54/54/54 58/58/58 60/60/60
f 61/61/61 58/58/58 59/59/59
f 59/59/59 62/62/62 61/61/61
f 58/58/58 61/61/61 63/63/63
f 63/63/63 60/60/60 58/58/58
f 60/60/60 63/63/63 64/64/64
f 64/64/64 65/65/65 60/60/60
f 60/60/60 65/65/65 57/57/57
f 57/57/57 66/66/66 42/42/42
f 40/40/40 42/42/42 66/66/66
f 66/66/66 67/67/67 40/40/40
f 68/68/68 67/67/67 66/66/66
f 69/69/69 66/66/66 57/57/57
f 66/66/66 69/69/69 68/68/68
f 57/57/57 65/65/65 69/69/69
f 70/70/70 68/68/68 69/69/69
f 71/71/71 65/65/65 64/64/64
f 65/65/65 71/71/71 69/69/69
f 69/69/69 71/71/71 70/70/70
f 64/64/64 72/72/72 71/71/71
f 73/73/73 70/70/70 71/71/71
f 71/71/71 72/72/72 73/73/73
