g tb_meeple_09a_mesh
v -0.061448872 -0.33522904 -0.2415413
v 0.036225587 -0.3843985 -0.23954794
v -0.25679776 -0.3843985 -0.2428702
v -0.25679776 -0.33190677 -0.24685691
v -0.25679776 -0.27941507 -0.26479712
v -0.10928941 -0.2329034 -0.26944828
v -0.25746223 -0.22692335 -0.27210608
v -0.25746223 -0.12260437 -0.26811936
v -0.10463825 -0.12326881 -0.26413268
v -0.10463825 -0.070112646 -0.27409944
v -0.25746223 0.034870774 -0.28406623
v -0.15845886 -0.0116408765 -0.28074396
v -0.101316005 0.105967164 -0.27144164
v 0.016292036 -0.025594354 -0.2834018
v 0.016956478 0.026232898 -0.28074396
v 0.026923269 0.13520303 -0.24619246
v -0.23619977 0.089355856 -0.2774217
v -0.29533598 0.08802694 -0.28140843
v -0.2940071 0.14184758 -0.24619246
v -0.101316005 0.14184758 -0.25748813
v 0.023600996 0.16111669 -0.22027883
v -0.005634904 0.19633266 -0.21496321
v -0.101316005 0.19633266 -0.21296985
v -0.19699708 0.14184758 -0.24087684
v -0.19699708 0.19633266 -0.22360109
v -0.24550208 0.14184758 -0.25549477
v -0.29334262 0.19633266 -0.1790828
vn -0.025051236 0.100423455 0.9946294
vn -0.009976745 0.040125668 0.99914485
vn -0.009976745 0.040125668 0.99914485
vn -0.009976745 0.19087017 0.9815646
vn -0.025051236 0.23609352 0.97140735
vn -0.040125668 0.11549795 0.99249697
vn -0.025051236 0.0552001 0.998161
vn -0.009976745 0.040125668 0.99914485
vn -0.025051236 0.07027459 0.99721307
vn 0.0050976872 0.14564681 0.9893235
vn -0.040125668 -0.03524661 0.99857277
vn 0.0050976872 0.0552001 0.9984623
vn -0.025051236 -0.32166117 0.94652337
vn -0.025051236 -0.080469966 0.9964422
vn -0.07027459 -0.21614003 0.97383004
vn -0.08534902 -0.41210788 0.9071288
vn -0.025051236 -0.29151228 0.956239
vn 0.0050976872 -0.32166117 0.9468411
vn 0.15584219 -0.6080758 0.7784324
vn -0.025051236 -0.517629 0.8552383
vn -0.100423455 -0.5327035 0.8403226
vn -0.08534902 -0.5025546 0.86032224
vn -0.040125668 -0.5025546 0.86361384
vn -0.08534902 -0.4422568 0.8928183
vn 0.03524661 -0.54777795 0.83588094
vn -0.009976745 -0.5327035 0.8462431
vn 0.24628893 -0.71359694 0.6558362
g tb_meeple_09a_mesh_0
f 3/3/3 2/2/2 1/1/1
f 4/4/4 3/3/3 1/1/1
f 1/1/1 5/5/5 4/4/4
f 5/5/5 1/1/1 6/6/6
f 5/5/5 6/6/6 7/7/7
f 8/8/8 7/7/7 6/6/6
f 9/9/9 8/8/8 6/6/6
f 10/10/10 8/8/8 9/9/9
f 10/10/10 11/11/11 8/8/8
f 11/11/11 10/10/10 12/12/12
f 13/13/13 11/11/11 12/12/12
f 12/12/12 10/10/10 14/14/14
f 13/13/13 12/12/12 14/14/14
f 14/14/14 15/15/15 13/13/13
f 15/15/15 16/16/16 13/13/13
f 13/13/13 17/17/17 11/11/11
f 17/17/17 18/18/18 11/11/11
f 18/18/18 17/17/17 19/19/19
f 13/13/13 16/16/16 20/20/20
f 16/16/16 21/21/21 20/20/20
f 20/20/20 21/21/21 22/22/22
f 23/23/23 20/20/20 22/22/22
f 20/20/20 24/24/24 13/13/13
f 24/24/24 20/20/20 23/23/23
f 24/24/24 17/17/17 13/13/13
f 25/25/25 24/24/24 23/23/23
f 17/17/17 26/26/26 19/19/19
f 24/24/24 26/26/26 17/17/17
f 26/26/26 24/24/24 25/25/25
f 27/27/27 19/19/19 26/26/26
f 25/25/25 27/27/27 26/26/26
