g tb_meeple_08a_mesh
v -0.26869282 0.21172792 -0.15806933
v -0.26869282 0.25729984 -0.16376582
v -0.1495412 0.25729984 -0.15759462
v -0.10681751 0.2107785 -0.1623417
v -0.13055292 0.13197702 -0.12958688
v -0.22834268 0.07548681 -0.15474637
v -0.2677434 0.029914886 -0.15996815
v -0.23214033 -0.0071123093 -0.14525223
v -0.18941665 -0.04841186 -0.12389038
v -0.23119092 -0.09113555 -0.12483979
v -0.11014047 0.070739746 -0.14192927
v -0.14716768 -0.08828731 -0.12721333
v -0.2302415 -0.21693307 -0.16518994
v -0.14621827 -0.21693307 -0.20554009
v -0.024218395 0.1058681 -0.122940965
v -0.024218395 0.13909763 -0.12389038
v 0.06217839 0.09922221 -0.13575807
v 0.008061722 0.029914886 -0.14145456
v -0.10681751 -0.036544174 -0.12104213
v 0.021828234 -0.046987742 -0.15189813
v -0.062195003 -0.1319604 -0.1689876
v 0.021828234 -0.17468409 -0.18133
v 0.06360251 -0.21693307 -0.19889419
vn -0.08145973 0.10378966 0.9912578
vn -0.04796484 0.12611958 0.9908548
vn 0.019024909 0.20427427 0.97872883
vn 0.030189872 0.2266042 0.97351897
vn -0.08145973 -0.09717962 0.9919276
vn -0.17077938 0.025634944 0.98497576
vn -0.24893412 0.08145973 0.96508867
vn -0.27126405 0.11495462 0.95561564
vn -0.10378966 0.10378966 0.98916906
vn 0.06368473 -0.16416937 0.9843742
vn -0.04796484 -0.08601466 0.9951386
vn 0.108344585 -0.27581897 0.95508397
vn 0.23115914 -0.40979847 0.8824005
vn 0.13067451 -0.4321284 0.89229435
vn -0.003305018 -0.19766426 0.98026425
vn 0.041354835 0.025634944 0.9988156
vn 0.019024909 -0.041354835 0.99896336
vn 0.08601466 0.025634944 0.995964
vn 0.074849695 -0.05251977 0.9958108
vn 0.1864993 -0.21999417 0.9575075
vn 0.08601466 -0.38746858 0.9178614
vn 0.007859945 -0.36513865 0.93092
vn -0.036799878 -0.3763036 0.9257653
g tb_meeple_08a_mesh_0
f 3/3/3 2/2/2 1/1/1
f 3/3/3 1/1/1 4/4/4
f 1/1/1 5/5/5 4/4/4
f 5/5/5 1/1/1 6/6/6
f 1/1/1 7/7/7 6/6/6
f 7/7/7 8/8/8 6/6/6
f 8/8/8 9/9/9 6/6/6
f 9/9/9 8/8/8 10/10/10
f 11/11/11 5/5/5 6/6/6
f 9/9/9 11/11/11 6/6/6
f 12/12/12 9/9/9 10/10/10
f 12/12/12 10/10/10 13/13/13
f 14/14/14 12/12/12 13/13/13
f 5/5/5 11/11/11 15/15/15
f 5/5/5 15/15/15 16/16/16
f 15/15/15 17/17/17 16/16/16
f 11/11/11 17/17/17 15/15/15
f 17/17/17 11/11/11 18/18/18
f 9/9/9 19/19/19 11/11/11
f 11/11/11 19/19/19 18/18/18
f 19/19/19 9/9/9 12/12/12
f 19/19/19 20/20/20 18/18/18
f 20/20/20 19/19/19 12/12/12
f 12/12/12 21/21/21 20/20/20
f 21/21/21 12/12/12 14/14/14
f 21/21/21 22/22/22 20/20/20
f 21/21/21 14/14/14 22/22/22
f 14/14/14 23/23/23 22/22/22
