g tb_meeple_15b_mesh
v 0.05530645 -0.23667657 -0.13265547
v 0.16688463 -0.20066926 -0.07531051
v 0.07042062 -0.2793519 -0.13487814
v 0.045082152 -0.13087733 -0.026856244
v 0.024189025 -0.15577127 -0.08375667
v 0.13976803 -0.16777371 -0.061529934
v 0.13354455 -0.029523447 -0.17088544
v 0.04597123 -0.043748558 -0.13932349
v 0.26334864 -0.037525073 -0.16243929
v 0.26334864 -0.12198664 -0.1548822
v 0.14154616 0.0069283843 -0.18822229
v 0.26334864 0.047381043 -0.14376883
v 0.14465791 0.09050089 -0.19400126
v 0.1046498 0.048714638 -0.19088951
v 0.26334864 0.13228714 -0.09887084
v 0.10553886 0.17540699 -0.19177857
v 0.26334864 0.17496246 -0.12198664
vn -0.2792694 -0.6023462 0.74778855
vn 0.27174035 -0.24969995 0.92941225
vn -0.21314824 -0.6023462 0.76925087
vn 0.02929604 0.058865488 0.997836
vn -0.6759964 -0.5582654 0.4810079
vn 0.38194227 0.16906744 0.9085903
vn 0.0072556734 0.47763288 0.8785296
vn 0.09541726 0.7861984 0.6105634
vn 0.051336467 0.2351886 0.97059304
vn 0.6023462 0.058865488 0.7960615
vn -0.2351886 -0.051336467 0.97059304
vn -0.36743093 -0.11745763 0.9226041
vn -0.3894713 -0.073376834 0.9181111
vn 0.0072556734 0.080905855 0.99669534
vn -0.47763288 -0.09541726 0.87336266
vn -0.5217136 -0.0072556734 0.85308987
vn -0.5217136 -0.0072556734 0.85308987
g tb_meeple_15b_mesh_0
f 3/3/3 2/2/2 1/1/1
f 2/2/2 4/4/4 1/1/1
f 5/5/5 1/1/1 4/4/4
f 2/2/2 6/6/6 4/4/4
f 6/6/6 7/7/7 4/4/4
f 8/8/8 4/4/4 7/7/7
f 2/2/2 9/9/9 6/6/6
f 7/7/7 6/6/6 9/9/9
f 9/9/9 2/2/2 10/10/10
f 7/7/7 9/9/9 11/11/11
f 9/9/9 12/12/12 11/11/11
f 11/11/11 12/12/12 13/13/13
f 14/14/14 11/11/11 13/13/13
f 12/12/12 15/15/15 13/13/13
f 16/16/16 13/13/13 15/15/15
f 17/17/17 16/16/16 15/15/15
