g tb_meeple_08b_mesh
v 0.21772853 0.18840483 -0.16724358
v 0.21772853 0.14152595 -0.1420011
v 0.18707696 0.21094275 -0.17761102
v 0.13929656 0.079321295 -0.13974732
v 0.21772853 0.048669696 -0.1356905
v 0.21772853 -0.044186532 -0.1595807
v 0.09422071 -0.037875906 -0.162736
v 0.21772853 -0.09106541 -0.1487625
v 0.23801266 -0.1226185 -0.1356905
v 0.0216486 -0.17445572 -0.1812171
v 0.23801266 -0.1649898 -0.13253519
v 0.0216486 -0.04689108 -0.15191779
v 0.0640199 -0.216827 -0.19879667
v 0.09286845 -0.25018314 -0.21772853
v 0.23801266 -0.25018314 -0.18482316
v 0.0081258565 0.02973786 -0.14155036
v 0.062216863 0.09915465 -0.13614124
v -0.023878008 0.1388214 -0.12397078
v 0.061315343 0.1735298 -0.15236855
v -0.10681754 0.21094275 -0.16228524
v -0.13025698 0.13206002 -0.12937987
vn 0.048514456 0.47954333 0.87617606
vn -0.1589368 0.29095125 0.9434439
vn -0.008063197 0.34752887 0.93763465
vn 0.0107960105 0.008063197 0.9999092
vn -0.045781553 -0.10509205 0.99340814
vn -0.026922345 0.06464076 0.99754536
vn -0.008063197 -0.12395126 0.9922555
vn 0.0107960105 0.29095125 0.956677
vn -0.177796 0.08349997 0.9805184
vn -0.12121838 -0.2559657 0.9590556
vn -0.21551442 -0.2182473 0.9517992
vn 0.14281046 -0.19938809 0.9694584
vn -0.1589368 -0.51999456 0.8392525
vn -0.1589368 -0.53885376 0.82727003
vn -0.1589368 -0.53885376 0.82727003
vn 0.08623284 -0.16166967 0.98307014
vn -0.026922345 -0.2748249 0.9611173
vn -0.045781553 0.64927614 0.7591736
vn -0.026922345 0.6115577 0.7907417
vn 0.029655218 0.40410644 0.9142311
vn 0.0107960105 0.47954333 0.8774518
g tb_meeple_08b_mesh_0
f 3/3/3 2/2/2 1/1/1
f 2/2/2 3/3/3 4/4/4
f 5/5/5 2/2/2 4/4/4
f 5/5/5 4/4/4 6/6/6
f 4/4/4 7/7/7 6/6/6
f 8/8/8 6/6/6 7/7/7
f 9/9/9 8/8/8 7/7/7
f 7/7/7 10/10/10 9/9/9
f 11/11/11 9/9/9 10/10/10
f 7/7/7 12/12/12 10/10/10
f 11/11/11 10/10/10 13/13/13
f 11/11/11 13/13/13 14/14/14
f 15/15/15 11/11/11 14/14/14
f 12/12/12 7/7/7 16/16/16
f 7/7/7 4/4/4 16/16/16
f 17/17/17 16/16/16 4/4/4
f 18/18/18 17/17/17 4/4/4
f 18/18/18 4/4/4 3/3/3
f 19/19/19 18/18/18 3/3/3
f 3/3/3 20/20/20 19/19/19
f 18/18/18 19/19/19 21/21/21
f 20/20/20 21/21/21 19/19/19
