g tb_meeple_11b_mesh
v 0.03391725 -0.16851938 -0.10989267
v 0.22295848 -0.20321682 -0.13262548
v -0.013343066 -0.20321682 -0.13023254
v 0.22295848 -0.13322371 -0.10869621
v 0.033318996 -0.12245554 -0.109294444
v -0.02052185 0.010351896 -0.15117066
v 0.15834944 -0.047676563 -0.123651996
v 0.06921291 0.10547075 -0.11826791
v 0.2911569 -0.06681998 -0.106303275
v 0.20142213 0.061201602 -0.100320965
v 0.2911569 0.19161612 -0.1404025
v 0.1577512 0.19281259 -0.13800956
v 0.06741822 0.19281259 -0.13501841
v 0.06921291 0.32083416 -0.18706456
v 0.2911569 0.27776152 -0.12425023
v 0.2026186 0.32083416 -0.16971585
v 0.2911569 0.32083416 -0.13800956
vn 0.01648125 -0.32350367 0.94608337
vn 0.054859042 -0.34269255 0.9378445
vn 0.01648125 -0.51539266 0.85679567
vn -0.021896541 -0.03567016 0.9991237
vn -0.021896541 0.13702995 0.99032485
vn -0.117841065 0.021896541 0.99279106
vn -0.117841065 0.041085422 0.9921822
vn -0.19459665 -0.15080357 0.96922153
vn -0.041085422 0.021896541 0.9989157
vn 0.01648125 -0.03567016 0.9992277
vn 0.07404795 -0.09323686 0.9928866
vn -0.041085422 0.693508 0.7192764
vn 0.03567016 0.38648564 0.92160535
vn -0.060274363 0.30973005 0.94891214
vn -0.21378553 0.15621883 0.9643088
vn -0.23297447 0.29054117 0.9280672
vn -0.32891893 0.29054117 0.8985534
g tb_meeple_11b_mesh_0
f 3/3/3 2/2/2 1/1/1
f 4/4/4 1/1/1 2/2/2
f 5/5/5 1/1/1 4/4/4
f 6/6/6 5/5/5 4/4/4
f 7/7/7 6/6/6 4/4/4
f 8/8/8 6/6/6 7/7/7
f 4/4/4 9/9/9 7/7/7
f 8/8/8 7/7/7 9/9/9
f 10/10/10 8/8/8 9/9/9
f 9/9/9 11/11/11 10/10/10
f 13/13/13 11/11/11 12/12/12
f 13/13/13 12/12/12 14/14/14
f 15/15/15 12/12/12 11/11/11
f 12/12/12 16/16/16 14/14/14
f 12/12/12 15/15/15 16/16/16
f 17/17/17 16/16/16 15/15/15
