g tb_meeple_02b_mesh
v 0.025096923 0.09725791 -0.1672109
v 0.038776338 0.1854142 -0.22572842
v 0.19760962 0.085858405 -0.15277152
v 0.19760962 0.13753623 -0.16645093
v 0.1314924 0.23253217 -0.20444933
v 0.2546072 0.21429297 -0.16417104
v -0.011381537 0.26977065 -0.19304982
v 0.17101073 0.29028973 -0.1770905
v 0.28272602 0.2530513 -0.1816503
v 0.062335342 0.39668527 -0.20900914
v 0.28272602 0.34956726 -0.21584885
v 0.17329064 0.3488073 -0.2052093
v 0.28272602 0.3982052 -0.18393019
v 0.22800833 0.44608316 -0.1314924
v 0.22800833 0.49472114 -0.014457345
v 0.28272602 0.49472114 -0.012937427
v 0.11781299 0.49472114 -0.03345655
v 0.19760962 -0.06917505 -0.17785046
v 0.10717344 0.014421433 -0.15049161
v 0.025096923 0.09725791 -0.1672109
vn -0.040513754 0.5571446 0.82942665
vn -0.110963404 0.06399697 0.9917618
vn -0.06399697 0.15792984 0.98537433
vn -0.27534598 0.20489627 0.93925613
vn -0.15792984 -0.10038555 0.98233443
vn -0.20489627 0.06399697 0.9766893
vn -0.040513754 -0.10038555 0.9941234
vn -0.017030537 0.13444656 0.9907745
vn 0.0064526796 0.18141311 0.9833858
vn -0.040513754 0.2518627 0.96691453
vn 0.12386876 -0.10038555 0.98720783
vn 0.053419113 0.110963404 0.9923878
vn 0.053419113 -0.687466 0.7242492
vn -0.08748013 -0.8518486 0.5164312
vn -0.13444656 -0.89881504 0.41719976
vn -0.18141311 -0.8753318 0.4482003
vn -0.06399697 -0.92229825 0.38114348
vn 0.14735204 -0.14735204 0.9780464
vn 0.029935896 -0.0064526796 0.999531
vn -0.040513754 0.43972844 0.89721656
g tb_meeple_02b_mesh_0
f 3/3/3 2/2/2 1/1/1
f 4/4/4 2/2/2 3/3/3
f 5/5/5 2/2/2 4/4/4
f 6/6/6 5/5/5 4/4/4
f 5/5/5 7/7/7 2/2/2
f 8/8/8 5/5/5 6/6/6
f 8/8/8 7/7/7 5/5/5
f 9/9/9 8/8/8 6/6/6
f 7/7/7 8/8/8 10/10/10
f 8/8/8 9/9/9 11/11/11
f 8/8/8 12/12/12 10/10/10
f 8/8/8 11/11/11 12/12/12
f 11/11/11 13/13/13 12/12/12
f 14/14/14 12/12/12 13/13/13
f 14/14/14 13/13/13 15/15/15
f 13/13/13 16/16/16 15/15/15
f 15/15/15 17/17/17 14/14/14
f 3/3/3 19/19/19 18/18/18
f 3/3/3 20/20/20 19/19/19
