g tb_meeple_02a_mesh
v -0.15700105 0.44636747 -0.17618588
v -0.21215445 0.39801386 -0.11498828
v -0.21215445 0.49472114 -0.21396217
v -0.15700105 0.30130652 -0.17165273
v -0.10184768 0.44636747 -0.18676324
v -0.21215445 0.25295284 -0.16711956
v -0.17740026 0.2242429 -0.14672036
v -0.0618048 0.34059384 -0.17240825
v -0.17740026 0.17211157 -0.13160984
v -0.011184543 0.26957443 -0.19280745
v 0.038680166 0.18495551 -0.22529507
v 0.02508068 0.09731451 -0.16711956
v -0.14491263 0.11922476 -0.15578668
v -0.17740026 0.013451129 -0.17920798
v 0.033391476 -0.04396884 -0.14823142
v 0.02508068 0.09731451 -0.16711956
v 0.10743302 0.014206648 -0.150498
v 0.19734061 -0.06965673 -0.17769693
v 0.238139 -0.12632117 -0.19280745
v -0.14491263 -0.038680166 -0.16485299
v -0.17740026 -0.09156698 -0.15276457
v -0.13735738 -0.19582956 -0.17769693
v -0.23255363 -0.16258642 -0.16334194
v -0.21517655 -0.27818188 -0.1912964
v 0.061345935 -0.19582956 -0.19658509
v 0.09761119 -0.22907269 -0.20414034
v 0.238139 -0.22907269 -0.19507402
vn 0.332796 0.34069675 0.8793023
vn 0.57770246 0.13660806 0.8047348
vn 0.14911616 0.7080565 0.6902321
vn 0.12870729 0.07538146 0.98881346
vn 0.10829842 0.05497259 0.99259734
vn 0.006254077 0.116199195 0.99320626
vn 0.047071815 0.299879 0.95281523
vn 0.08788955 0.09579033 0.9915138
vn 0.21034276 -0.026662946 0.97726405
vn 0.37361374 -0.06748068 0.92512655
vn 0.37361374 0.21824354 0.9015445
vn 0.29197827 0.3815145 0.8770378
vn 0.06748068 -0.27156937 0.9600502
vn -0.09579033 -0.006254077 0.9953819
vn 0.026662946 -0.10829842 0.9937608
vn 0.026662946 0.13660806 0.9902663
vn 0.047071815 -0.026662946 0.99853563
vn 0.14911616 -0.14911616 0.9775115
vn 0.047071815 -0.14911616 0.9876987
vn -0.014154851 0.116199195 0.9931251
vn 0.27156937 -0.047071815 0.96126705
vn 0.06748068 -0.1899339 0.97947514
vn 0.06748068 -0.21034276 0.975296
vn 0.06748068 -0.23075163 0.9706699
vn 0.08788955 -0.2511605 0.963947
vn 0.006254077 -0.12870729 0.9916629
vn -0.05497259 -0.026662946 0.9981318
g tb_meeple_02a_mesh_0
f 3/3/3 2/2/2 1/1/1
f 1/1/1 2/2/2 4/4/4
f 1/1/1 4/4/4 5/5/5
f 6/6/6 4/4/4 2/2/2
f 6/6/6 7/7/7 4/4/4
f 5/5/5 4/4/4 8/8/8
f 4/4/4 7/7/7 9/9/9
f 9/9/9 8/8/8 4/4/4
f 9/9/9 10/10/10 8/8/8
f 9/9/9 11/11/11 10/10/10
f 9/9/9 12/12/12 11/11/11
f 9/9/9 13/13/13 12/12/12
f 9/9/9 14/14/14 13/13/13
f 14/14/14 15/15/15 13/13/13
f 16/16/16 13/13/13 15/15/15
f 15/15/15 17/17/17 16/16/16
f 18/18/18 17/17/17 15/15/15
f 19/19/19 18/18/18 15/15/15
f 14/14/14 20/20/20 15/15/15
f 14/14/14 21/21/21 20/20/20
f 21/21/21 22/22/22 20/20/20
f 20/20/20 22/22/22 15/15/15
f 23/23/23 22/22/22 21/21/21
f 23/23/23 24/24/24 22/22/22
f 22/22/22 25/25/25 15/15/15
f 25/25/25 19/19/19 15/15/15
f 25/25/25 26/26/26 19/19/19
f 27/27/27 19/19/19 26/26/26
