g tb_meeple_04b_mesh
v 0.115044504 0.23296763 -0.102996156
v 0.199383 0.23343103 -0.098825574
v 0.199383 0.19172518 -0.13728763
v 0.15721375 0.19172518 -0.16555493
v 0.030242622 0.19126178 -0.1979928
v -0.054559276 0.23250423 -0.18038368
v -0.05409588 0.19079839 -0.20633398
v -0.01146324 0.06568085 -0.21513855
v 0.15721375 0.14955594 -0.15536016
v 0.199383 0.10785009 -0.15304318
v 0.07148507 0.105996475 -0.17992027
v 0.11411771 0.060583457 -0.20633398
v 0.199383 0.06614424 -0.19335882
v 0.116898105 -0.030242622 -0.19845621
v -0.036023334 -0.035339996 -0.2281137
v 0.19845621 -0.06824128 -0.18177387
v 0.199383 0.024438396 -0.19706601
v 0.24062546 -0.04321778 -0.17760327
v 0.24062546 -0.093728185 -0.15999416
v 0.113654315 -0.093728185 -0.19104183
v 0.071021676 -0.06824128 -0.21096796
v 0.028852418 -0.093728185 -0.18548106
v -0.06938802 -0.06824128 -0.21560195
v 0.017730862 -0.044607967 -0.22579671
vn -0.15009409 -0.82232344 0.5488679
vn -0.15009409 -0.79801303 0.5836497
vn -0.29595673 -0.50628775 0.80998904
vn -0.3202672 -0.33611467 0.8856951
vn -0.24733579 -0.409046 0.8783544
vn -0.15009409 -0.6521504 0.7430825
vn -0.15009409 -0.31180423 0.9382163
vn -0.1744045 -0.11732072 0.97765994
vn -0.29595673 0.028541863 0.95477486
vn -0.1744045 -0.38473555 0.9064004
vn -0.19871497 -0.28749382 0.9369416
vn -0.12578362 -0.28749382 0.94948715
vn -0.10147321 -0.33611467 0.93633866
vn -0.1744045 0.004231453 0.98466504
vn -0.10147321 -0.09301031 0.99048084
vn -0.1744045 0.24733579 0.95310444
vn 0.044389427 0.1744045 0.98367304
vn -0.07716274 0.22302544 0.97175384
vn -0.24733579 0.34457755 0.9055889
vn -0.15009409 0.4418193 0.88445884
vn -0.12578362 0.36888802 0.92092353
vn -0.004231453 0.7092341 0.70496035
vn -0.052852333 0.29595673 0.95373803
vn -0.07716274 0.15009409 0.98565596
g tb_meeple_04b_mesh_0
f 3/3/3 2/2/2 1/1/1
f 4/4/4 3/3/3 1/1/1
f 1/1/1 5/5/5 4/4/4
f 1/1/1 6/6/6 5/5/5
f 6/6/6 7/7/7 5/5/5
f 5/5/5 7/7/7 8/8/8
f 4/4/4 9/9/9 3/3/3
f 9/9/9 4/4/4 5/5/5
f 10/10/10 3/3/3 9/9/9
f 10/10/10 9/9/9 5/5/5
f 11/11/11 10/10/10 5/5/5
f 11/11/11 5/5/5 8/8/8
f 12/12/12 10/10/10 11/11/11
f 8/8/8 12/12/12 11/11/11
f 10/10/10 12/12/12 13/13/13
f 14/14/14 12/12/12 8/8/8
f 12/12/12 14/14/14 13/13/13
f 15/15/15 14/14/14 8/8/8
f 14/14/14 16/16/16 13/13/13
f 17/17/17 13/13/13 16/16/16
f 18/18/18 17/17/17 16/16/16
f 19/19/19 18/18/18 16/16/16
f 19/19/19 16/16/16 20/20/20
f 16/16/16 21/21/21 20/20/20
f 14/14/14 21/21/21 16/16/16
f 22/22/22 20/20/20 21/21/21
f 23/23/23 22/22/22 21/21/21
f 24/24/24 14/14/14 15/15/15
f 14/14/14 24/24/24 21/21/21
f 23/23/23 24/24/24 15/15/15
f 21/21/21 24/24/24 23/23/23
