g tb_meeple_14b_mesh
v 0.23209015 0.2621651 -0.086613536
v 0.27469835 0.2621651 -0.075657144
v 0.27469835 0.16599229 -0.03122285
v 0.23209015 0.16599229 -0.039135814
v 0.18948193 0.2621651 -0.12800437
v 0.27469835 0.11729717 -0.06409204
v 0.12617831 0.12581882 -0.108526334
v 0.14991716 0.2840779 -0.1797429
v 0.06348336 0.18912247 -0.14504765
v 0.10122207 0.27129546 -0.19435143
v 0.1103524 0.30659935 -0.19739488
v 0.12983043 0.073471606 -0.13287388
v 0.27469835 0.06921077 -0.12556961
v 0.09148304 0.011994034 -0.14383027
v 0.27408966 0.021124363 -0.15417798
v 0.27408966 -0.17182995 -0.043396622
v 0.1858298 -0.07504845 -0.1158306
v 0.23148145 -0.17122127 -0.07504845
v 0.14017814 -0.17122127 -0.117047966
v 0.27408966 -0.21991637 -0.04765746
v 0.2290467 -0.31608918 -0.13469994
v 0.27348098 -0.31608918 -0.12130879
v 0.14017814 -0.26800278 -0.16452569
v 0.095743865 -0.31608918 -0.19435143
vn -0.46349353 0.38146394 0.79978687
vn -0.19689727 0.42247874 0.8847278
vn -0.19689727 -0.06969893 0.97794354
vn -0.3609565 -0.06969893 0.92997444
vn -0.6275528 0.38146394 0.67872137
vn -0.13537508 -0.66441363 0.7350021
vn -0.46349353 0.012330651 0.8860145
vn -0.40197128 0.40197128 0.82270175
vn -0.15588248 0.46349353 0.87228113
vn -0.3609565 0.4429862 0.82065445
vn -0.3199417 0.15588248 0.93452555
vn -0.11486769 -0.45933962 0.8808022
vn -0.0533455 -0.5413692 0.839091
vn 0.008176744 -0.35680258 0.934144
vn -0.0533455 -0.090206325 0.99449337
vn -0.48400098 0.11486769 0.86749554
vn -0.2994343 0.3609565 0.88320416
vn -0.5250158 -0.06969893 0.84823376
vn -0.48400098 -0.17223597 0.85794973
vn -0.5250158 -0.27477297 0.8055174
vn -0.38146394 -0.4183248 0.8243116
vn -0.21740472 -0.60289145 0.7676309
vn -0.38146394 -0.3362952 0.86104053
vn -0.2789269 -0.29528037 0.91378844
g tb_meeple_14b_mesh_0
f 3/3/3 2/2/2 1/1/1
f 4/4/4 3/3/3 1/1/1
f 5/5/5 4/4/4 1/1/1
f 3/3/3 4/4/4 6/6/6
f 4/4/4 5/5/5 7/7/7
f 5/5/5 8/8/8 7/7/7
f 8/8/8 9/9/9 7/7/7
f 9/9/9 8/8/8 10/10/10
f 8/8/8 11/11/11 10/10/10
f 4/4/4 7/7/7 12/12/12
f 4/4/4 12/12/12 6/6/6
f 12/12/12 13/13/13 6/6/6
f 13/13/13 12/12/12 14/14/14
f 15/15/15 13/13/13 14/14/14
f 17/17/17 16/16/16 15/15/15
f 16/16/16 17/17/17 18/18/18
f 17/17/17 19/19/19 18/18/18
f 20/20/20 16/16/16 18/18/18
f 18/18/18 19/19/19 20/20/20
f 19/19/19 21/21/21 20/20/20
f 20/20/20 21/21/21 22/22/22
f 19/19/19 23/23/23 21/21/21
f 24/24/24 21/21/21 23/23/23
f 19/19/19 24/24/24 23/23/23
