g tb_meeple_11a_mesh
v -0.09995043 -0.2426672 -0.21292226
v -0.14016119 -0.21182059 -0.19749895
v -0.06084135 -0.20355812 -0.15067822
v -0.14016119 -0.13855991 -0.13525492
v 0.03390178 -0.16830485 -0.10991663
v -0.013469785 -0.20355812 -0.13029742
v -0.14016119 -0.06529923 -0.13470408
v 0.03335096 -0.12258577 -0.10881497
v -0.020630598 0.010164797 -0.15122905
v -0.16549948 -0.034452617 -0.14902572
v -0.16549948 0.1060096 -0.13360241
v 0.06915505 0.105458766 -0.11872995
v -0.04156223 0.15172869 -0.12093328
v -0.16549948 0.19965109 -0.1435174
v 0.06695172 0.19304109 -0.13525492
v -0.16549948 0.24647182 -0.17105901
v 0.06915505 0.32083416 -0.18703315
v -0.06414634 0.32083416 -0.18703315
v -0.19193941 0.2729118 -0.18042316
vn -0.29178494 -0.7071824 0.6440145
vn -0.32683647 -0.65460515 0.6816671
vn -0.2742592 -0.51439923 0.81251174
vn -0.22168195 -0.26903883 0.93727005
vn -0.16910475 -0.023678422 0.98531365
vn -0.3969394 -0.0061526895 0.9178242
vn -0.099001765 0.22168195 0.9700803
vn -0.08147603 0.20415622 0.97554183
vn -0.046424568 -0.041204154 0.9980716
vn -0.028898776 0.1165275 0.992767
vn -0.046424568 -0.041204154 0.9980716
vn -0.028898776 -0.07625568 0.9966694
vn -0.028898776 0.20415622 0.9785117
vn -0.028898776 0.36188793 0.93177354
vn -0.028898776 0.23920774 0.97053826
vn -0.028898776 0.36188793 0.93177354
vn -0.046424568 0.34436214 0.93768835
vn -0.046424568 0.32683647 0.94394
vn -0.0639503 0.29178494 0.9543437
g tb_meeple_11a_mesh_0
f 3/3/3 2/2/2 1/1/1
f 3/3/3 4/4/4 2/2/2
f 3/3/3 5/5/5 4/4/4
f 3/3/3 6/6/6 5/5/5
f 7/7/7 4/4/4 5/5/5
f 5/5/5 8/8/8 7/7/7
f 8/8/8 9/9/9 7/7/7
f 10/10/10 7/7/7 9/9/9
f 11/11/11 10/10/10 9/9/9
f 12/12/12 11/11/11 9/9/9
f 11/11/11 12/12/12 13/13/13
f 11/11/11 13/13/13 14/14/14
f 12/12/12 15/15/15 13/13/13
f 16/16/16 14/14/14 13/13/13
f 16/16/16 13/13/13 15/15/15
f 16/16/16 15/15/15 17/17/17
f 18/18/18 16/16/16 17/17/17
f 18/18/18 19/19/19 16/16/16
