g tb_outline_06_mesh
v -0.19273886 0.1025601 0.06327978
v -0.19273886 0.1025601 0.07102519
v -0.19273886 0.07821739 0.06991872
v -0.19273886 0.07821739 0.062173307
v -0.19273886 0.07821739 0.062173307
v -0.19273886 0.07821739 0.06991872
v -0.21154913 0.061066806 0.06991872
v -0.21154913 0.061066806 0.062173307
v -0.23035946 0.043363005 0.06936547
v -0.23035946 0.043363005 0.061620057
v -0.23035946 0.043363005 0.061620057
v -0.23035946 0.043363005 0.06936547
v -0.23035946 0.014041096 0.06936547
v -0.23035946 0.014041096 0.061620057
v -0.23035946 -0.0147275925 0.07047197
v -0.23035946 -0.0147275925 0.06272656
v -0.23035946 -0.04404953 0.07213169
v -0.23035946 -0.04404953 0.06493953
v -0.23035946 -0.07337144 0.07268494
v -0.23035946 -0.07337144 0.06493953
v -0.23035946 -0.10269338 0.07157844
v -0.23035946 -0.10214013 0.06383303
v -0.23035946 -0.13146205 0.07047197
v -0.23035946 -0.13146205 0.06272656
v -0.23035946 -0.16078398 0.06881222
v -0.23035946 -0.16078398 0.061066806
v -0.23035946 -0.19010592 0.06991872
v -0.23035946 -0.18955266 0.062173307
v -0.23035946 -0.21887459 0.07268494
v -0.23035946 -0.21887459 0.06493953
v -0.23035946 -0.24819651 0.076004386
v -0.23035946 -0.24819651 0.06825897
v -0.23035946 -0.27751845 0.07987711
v -0.23035946 -0.2769652 0.07213169
v -0.23035946 -0.3062871 0.08043036
v -0.23035946 -0.3062871 0.07268494
v -0.23035946 -0.33560905 0.07932386
v -0.23035946 -0.33560905 0.07157844
v -0.23035946 -0.33560905 0.07157844
v -0.23035946 -0.33560905 0.07932386
v -0.20159075 -0.33560905 0.07932386
v -0.20159075 -0.33560905 0.07157844
v -0.17337534 -0.33560905 0.07932386
v -0.17337534 -0.33560905 0.07157844
v -0.14460665 -0.33560905 0.07987711
v -0.14460665 -0.33560905 0.07213169
v -0.11639121 -0.33560905 0.07987711
v -0.11639121 -0.33560905 0.07213169
v -0.08762252 -0.33560905 0.07987711
v -0.08762252 -0.33560905 0.07268494
v -0.059407085 -0.33560905 0.08043036
v -0.059407085 -0.33560905 0.07268494
v -0.030638397 -0.33560905 0.08043036
v -0.030638397 -0.33560905 0.073238194
v -0.0024229586 -0.33560905 0.08043036
v -0.0024229586 -0.33560905 0.073238194
v 0.02634573 -0.33560905 0.08043036
v 0.02634573 -0.33560905 0.07268494
v 0.054561168 -0.33560905 0.07987711
v 0.054561168 -0.33560905 0.07268494
v 0.08332983 -0.33560905 0.08043036
v 0.08332983 -0.33560905 0.07268494
v 0.11154528 -0.33560905 0.08043036
v 0.11154528 -0.33560905 0.07268494
v 0.14031395 -0.33560905 0.08043036
v 0.14031395 -0.3350558 0.07268494
v 0.16852939 -0.33560905 0.08098361
v 0.16852939 -0.3350558 0.073238194
v 0.19729808 -0.33560905 0.08209008
v 0.19729808 -0.3350558 0.074344665
v 0.22551352 -0.33560905 0.08264333
v 0.22551352 -0.3350558 0.074897915
v 0.2542822 -0.33560905 0.08319658
v 0.2542822 -0.3350558 0.075451165
v 0.28249764 -0.3350558 0.08319658
v 0.28249764 -0.3350558 0.075451165
v 0.3112663 -0.3350558 0.08264333
v 0.3112663 -0.3350558 0.074897915
v 0.3112663 -0.3350558 0.074897915
v 0.3112663 -0.3350558 0.08264333
v 0.3112663 -0.30684036 0.08264333
v 0.3112663 -0.30684036 0.074897915
v 0.3112663 -0.27862492 0.08098361
v 0.3112663 -0.27862492 0.073238194
v 0.31071308 -0.25040948 0.07821739
v 0.31071308 -0.25040948 0.07047197
v 0.31071308 -0.22219405 0.075451165
v 0.31071308 -0.22219405 0.06770575
v 0.31071308 -0.19397861 0.074344665
v 0.31071308 -0.19397861 0.06659925
v 0.31071308 -0.16576317 0.073791414
v 0.31071308 -0.16576317 0.066046
v 0.31071308 -0.13754775 0.074344665
v 0.31071308 -0.13754775 0.06659925
v 0.31015983 -0.10933231 0.074897915
v 0.31015983 -0.10933231 0.0671525
v 0.31015983 -0.081116855 0.075451165
v 0.31015983 -0.081116855 0.06770575
v 0.31015983 -0.052901417 0.074897915
v 0.31015983 -0.052901417 0.0671525
v 0.31015983 -0.024685979 0.073238194
v 0.31015983 -0.024685979 0.06549278
v 0.31015983 0.0035294592 0.07157844
v 0.31015983 0.0035294592 0.06383303
v 0.30960658 0.031744897 0.07102519
v 0.31015983 0.031744897 0.06327978
v 0.30960658 0.059960335 0.07047197
v 0.30960658 0.059960335 0.06327978
v 0.30960658 0.08817577 0.07047197
v 0.30960658 0.08817577 0.06272656
v 0.30960658 0.08817577 0.06272656
v 0.30960658 0.08817577 0.07047197
v 0.29688197 0.106986046 0.07102519
v 0.29688197 0.106986046 0.06327978
v 0.28415737 0.1252431 0.07047197
v 0.28415737 0.1252431 0.06272656
v 0.27143276 0.1440534 0.07157844
v 0.27143276 0.1440534 0.06383303
v 0.27143276 0.1440534 0.06383303
v 0.27143276 0.1440534 0.07157844
v 0.24211083 0.1440534 0.07157844
v 0.24211083 0.1440534 0.06383303
v 0.21278891 0.1440534 0.07157844
v 0.21278891 0.1440534 0.06383303
v 0.18346699 0.1440534 0.07213169
v 0.18346699 0.1440534 0.06438628
v 0.15414506 0.1440534 0.07268494
v 0.15414506 0.1440534 0.06493953
v 0.12537637 0.1440534 0.073238194
v 0.12537637 0.1440534 0.06549278
v 0.09605445 0.1440534 0.073238194
v 0.09605445 0.1440534 0.06549278
v 0.066732526 0.1440534 0.073238194
v 0.066732526 0.14460665 0.06549278
v 0.037410587 0.14460665 0.07213169
v 0.037410587 0.14460665 0.06438628
v 0.008088678 0.14460665 0.07157844
v 0.008088678 0.14460665 0.06383303
v 0.008088678 0.14460665 0.06383303
v 0.008088678 0.14460665 0.07157844
v -0.014041096 0.13022229 0.07102519
v -0.014041096 0.13022229 0.06327978
v -0.03617084 0.11639121 0.07047197
v -0.03617084 0.11639121 0.06272656
v -0.058300585 0.1025601 0.07047197
v -0.058300585 0.1025601 0.06272656
v -0.058300585 0.1025601 0.06272656
v -0.058300585 0.1025601 0.07047197
v -0.0848563 0.1025601 0.06991872
v -0.0848563 0.1025601 0.062173307
v -0.11196524 0.1025601 0.06936547
v -0.11196524 0.1025601 0.062173307
v -0.1390742 0.1025601 0.06991872
v -0.1390742 0.1025601 0.062173307
v -0.16618314 0.1025601 0.06991872
v -0.1656299 0.1025601 0.06272656
v -0.19273886 0.1025601 0.07102519
v -0.19273886 0.1025601 0.06327978
v -0.18278047 0.09260172 0.06272656
v -0.18278047 0.09260172 0.07047197
v -0.15733126 0.092048466 0.06991872
v -0.15733126 0.09260172 0.062173307
v -0.13188204 0.092048466 0.06936547
v -0.13188204 0.09260172 0.061620057
v -0.106432825 0.092048466 0.06991872
v -0.106432825 0.09260172 0.062173307
v -0.08098361 0.092048466 0.06991872
v -0.08098361 0.09260172 0.062173307
v -0.055534363 0.092048466 0.07047197
v -0.054981142 0.09260172 0.06272656
v -0.054981142 0.09260172 0.06272656
v -0.055534363 0.092048466 0.07047197
v -0.03340462 0.106432825 0.07047197
v -0.03340462 0.106432825 0.06272656
v -0.011274874 0.120263904 0.07102519
v -0.011274874 0.120263904 0.06327978
v 0.0108549 0.13464826 0.07157844
v 0.0108549 0.13464826 0.06383303
v 0.0108549 0.13464826 0.06383303
v 0.0108549 0.13464826 0.07157844
v 0.03962356 0.13409501 0.07213169
v 0.03962356 0.13464826 0.06438628
v 0.067839 0.13409501 0.07268494
v 0.067839 0.13409501 0.06493953
v 0.09605445 0.13409501 0.07268494
v 0.09605445 0.13409501 0.06493953
v 0.12426989 0.13409501 0.07213169
v 0.12426989 0.13409501 0.06438628
v 0.15248533 0.13409501 0.07213169
v 0.15248533 0.13409501 0.06438628
v 0.181254 0.13409501 0.07157844
v 0.181254 0.13409501 0.06383303
v 0.20946944 0.13409501 0.07102519
v 0.20946944 0.13409501 0.06383303
v 0.23768488 0.13409501 0.07102519
v 0.23768488 0.13409501 0.06327978
v 0.2659003 0.13409501 0.07047197
v 0.2659003 0.13409501 0.06327978
v 0.2659003 0.13409501 0.06327978
v 0.2659003 0.13409501 0.07047197
v 0.2830509 0.10975227 0.07047197
v 0.2830509 0.10975227 0.06272656
v 0.2996482 0.08540955 0.07047197
v 0.2996482 0.08540955 0.06272656
v 0.2996482 0.08540955 0.06272656
v 0.2996482 0.08540955 0.07047197
v 0.2996482 0.056087613 0.07047197
v 0.2996482 0.056087613 0.06272656
v 0.2996482 0.026765704 0.07102519
v 0.2996482 0.026765704 0.06327978
v 0.30020145 -0.0025562346 0.07213169
v 0.30020145 -0.0025562346 0.06438628
v 0.30020145 -0.031878144 0.073791414
v 0.30020145 -0.031878144 0.066046
v 0.30020145 -0.061200082 0.074897915
v 0.30020145 -0.061200082 0.0671525
v 0.30020145 -0.090522006 0.075451165
v 0.30020145 -0.090522006 0.06770575
v 0.30020145 -0.11984393 0.074897915
v 0.30020145 -0.11984393 0.0671525
v 0.3007547 -0.14916585 0.074344665
v 0.3007547 -0.14916585 0.06659925
v 0.3007547 -0.1784878 0.073791414
v 0.3007547 -0.1784878 0.066046
v 0.3007547 -0.20780972 0.074897915
v 0.3007547 -0.20780972 0.0671525
v 0.3007547 -0.23713164 0.076557636
v 0.3007547 -0.23713164 0.06881222
v 0.3007547 -0.26645356 0.07987711
v 0.3007547 -0.26645356 0.07213169
v 0.30130792 -0.29577547 0.08209008
v 0.30130792 -0.29577547 0.074344665
v 0.30130792 -0.3250974 0.08319658
v 0.30130792 -0.3250974 0.075451165
v 0.30130792 -0.3250974 0.075451165
v 0.30130792 -0.3250974 0.08319658
v 0.271986 -0.3250974 0.0837498
v 0.271986 -0.3250974 0.076004386
v 0.24321732 -0.3250974 0.08319658
v 0.24321732 -0.3250974 0.075451165
v 0.21444863 -0.3250974 0.08264333
v 0.21444863 -0.3250974 0.075451165
v 0.1851267 -0.32565066 0.08209008
v 0.1851267 -0.3250974 0.074344665
v 0.15635803 -0.32565066 0.08098361
v 0.15635803 -0.3250974 0.073238194
v 0.12758934 -0.32565066 0.08098361
v 0.12758934 -0.3250974 0.073238194
v 0.09826742 -0.32565066 0.08098361
v 0.09826742 -0.3250974 0.073238194
v 0.06949875 -0.32565066 0.08043036
v 0.06949875 -0.3250974 0.07268494
v 0.04073006 -0.32565066 0.08043036
v 0.04073006 -0.32565066 0.07268494
v 0.01140812 -0.32565066 0.08098361
v 0.01140812 -0.32565066 0.073238194
v -0.017360538 -0.32565066 0.08098361
v -0.017360538 -0.32565066 0.073791414
v -0.046129227 -0.32565066 0.08098361
v -0.046129227 -0.32565066 0.073238194
v -0.075451165 -0.32565066 0.08043036
v -0.075451165 -0.32565066 0.073238194
v -0.104219824 -0.32565066 0.08043036
v -0.104219824 -0.32565066 0.07268494
v -0.13354176 -0.32565066 0.08043036
v -0.13298851 -0.32565066 0.07268494
v -0.16231045 -0.32565066 0.07987711
v -0.16231045 -0.32565066 0.07213169
v -0.19107911 -0.32565066 0.07932386
v -0.19107911 -0.32565066 0.07213169
v -0.22040108 -0.32565066 0.07987711
v -0.22040108 -0.32565066 0.07213169
v -0.22040108 -0.32565066 0.07213169
v -0.22040108 -0.32565066 0.07987711
v -0.22040108 -0.29743522 0.08098361
v -0.22040108 -0.29743522 0.073238194
v -0.22040108 -0.26977304 0.07932386
v -0.22040108 -0.2692198 0.07157844
v -0.22040108 -0.2415576 0.074897915
v -0.22040108 -0.2415576 0.06770575
v -0.22040108 -0.21334216 0.07213169
v -0.22040108 -0.21334216 0.06438628
v -0.22040108 -0.1851267 0.06991872
v -0.22040108 -0.1851267 0.062173307
v -0.22040108 -0.15746452 0.06881222
v -0.22040108 -0.15746452 0.061620057
v -0.22040108 -0.12924908 0.07047197
v -0.22040108 -0.12924908 0.06272656
v -0.22040108 -0.10103364 0.07213169
v -0.22040108 -0.10103364 0.06438628
v -0.22040108 -0.07337144 0.07268494
v -0.22040108 -0.07337144 0.06493953
v -0.22040108 -0.045156002 0.07268494
v -0.22040108 -0.045156002 0.06493953
v -0.22040108 -0.016940564 0.07102519
v -0.22040108 -0.016940564 0.06327978
v -0.22040108 0.010721624 0.06936547
v -0.22040108 0.011274874 0.061620057
v -0.22040108 0.038937062 0.06936547
v -0.22040108 0.038937062 0.061620057
v -0.22040108 0.038937062 0.061620057
v -0.22040108 0.038937062 0.06936547
v -0.20159075 0.056640863 0.06936547
v -0.20159075 0.056640863 0.062173307
v -0.18278047 0.073791414 0.06991872
v -0.18278047 0.074344665 0.062173307
v -0.18278047 0.074344665 0.062173307
v -0.18278047 0.073791414 0.06991872
v -0.18278047 0.09260172 0.07047197
v -0.18278047 0.09260172 0.06272656
v -0.19273886 0.07821739 0.06991872
v -0.18278047 0.09260172 0.07047197
v -0.18278047 0.073791414 0.06991872
v -0.20159075 0.056640863 0.06936547
v -0.20933619 0.058300585 0.06991872
v -0.22040108 0.038937062 0.06936547
v -0.21154913 0.061066806 0.06991872
v -0.23035946 0.043363005 0.06936547
v -0.19273886 0.1025601 0.07102519
v -0.22703996 0.014041096 0.06936547
v -0.23035946 0.014041096 0.06936547
v -0.16618314 0.09924063 0.06991872
v -0.16618314 0.1025601 0.06991872
v -0.22372052 0.010721624 0.06936547
v -0.22040108 0.010721624 0.06936547
v -0.22040108 -0.016940564 0.07102519
v -0.22703996 -0.0147275925 0.07047197
v -0.23035946 -0.0147275925 0.07047197
v -0.23035946 -0.04404953 0.07213169
v -0.22372052 -0.016940564 0.07102519
v -0.22040108 -0.045156002 0.07268494
v -0.22703996 -0.04404953 0.07268494
v -0.23035946 -0.07337144 0.07268494
v -0.22372052 -0.045156002 0.07268494
v -0.22040108 -0.07337144 0.07268494
v -0.22703996 -0.07337144 0.07268494
v -0.23035946 -0.10269338 0.07157844
v -0.22372052 -0.07337144 0.07268494
v -0.22040108 -0.10103364 0.07213169
v -0.22372052 -0.10103364 0.07213169
v -0.22040108 -0.12924908 0.07047197
v -0.22703996 -0.10269338 0.07157844
v -0.23035946 -0.13146205 0.07047197
v -0.22372052 -0.12924908 0.07047197
v -0.22040108 -0.15746452 0.06881222
v -0.22703996 -0.13146205 0.07047197
v -0.23035946 -0.16078398 0.06881222
v -0.22372052 -0.15746452 0.06881222
v -0.22040108 -0.1851267 0.06991872
v -0.22703996 -0.16078398 0.06881222
v -0.23035946 -0.19010592 0.06991872
v -0.22372052 -0.1851267 0.06991872
v -0.22040108 -0.21334216 0.07213169
v -0.22703996 -0.19010592 0.06991872
v -0.23035946 -0.21887459 0.07268494
v -0.22372052 -0.21334216 0.07213169
v -0.22040108 -0.2415576 0.074897915
v -0.22703996 -0.21887459 0.07268494
v -0.23035946 -0.24819651 0.076004386
v -0.22372052 -0.2415576 0.074897915
v -0.22703996 -0.24819651 0.076004386
v -0.22372052 -0.26977304 0.07932386
v -0.22040108 -0.26977304 0.07932386
v -0.22703996 -0.27751845 0.07987711
v -0.23035946 -0.27751845 0.07987711
v -0.23035946 -0.3062871 0.08043036
v -0.22372052 -0.29743522 0.08098361
v -0.22040108 -0.29743522 0.08098361
v -0.22040108 -0.32565066 0.07987711
v -0.22703996 -0.3062871 0.08043036
v -0.23035946 -0.33560905 0.07932386
v -0.20159075 -0.33228958 0.07932386
v -0.20159075 -0.33560905 0.07932386
v -0.19107911 -0.32897013 0.07932386
v -0.19107911 -0.32565066 0.07932386
v -0.17337534 -0.33228958 0.07932386
v -0.17337534 -0.33560905 0.07932386
v -0.16231045 -0.32897013 0.07987711
v -0.16231045 -0.32565066 0.07987711
v -0.14460665 -0.33228958 0.07987711
v -0.14460665 -0.33560905 0.07987711
v -0.11639121 -0.33560905 0.07987711
v -0.13354176 -0.32897013 0.07987711
v -0.13354176 -0.32565066 0.08043036
v -0.11639121 -0.33228958 0.07987711
v -0.08762252 -0.33560905 0.07987711
v -0.104219824 -0.32897013 0.08043036
v -0.104219824 -0.32565066 0.08043036
v -0.08762252 -0.33228958 0.08043036
v -0.059407085 -0.33560905 0.08043036
v -0.075451165 -0.32897013 0.08043036
v -0.075451165 -0.32565066 0.08043036
v -0.046129227 -0.32565066 0.08098361
v -0.059407085 -0.33228958 0.08043036
v -0.046129227 -0.32897013 0.08098361
v -0.030638397 -0.33228958 0.08098361
v -0.030638397 -0.33560905 0.08043036
v -0.017360538 -0.32897013 0.08098361
v -0.017360538 -0.32565066 0.08098361
v -0.0024229586 -0.33228958 0.08098361
v -0.0024229586 -0.33560905 0.08043036
v 0.01140812 -0.32897013 0.08098361
v 0.01140812 -0.32565066 0.08098361
v 0.02634573 -0.33228958 0.08043036
v 0.02634573 -0.33560905 0.08043036
v 0.04073006 -0.32897013 0.08043036
v 0.04073006 -0.32565066 0.08043036
v 0.054561168 -0.33228958 0.08043036
v 0.054561168 -0.33560905 0.07987711
v 0.06949875 -0.32897013 0.08043036
v 0.06949875 -0.32565066 0.08043036
v 0.08332983 -0.33228958 0.08043036
v 0.08332983 -0.33560905 0.08043036
v 0.09826742 -0.32897013 0.08043036
v 0.09826742 -0.32565066 0.08098361
v 0.11154528 -0.33228958 0.08043036
v 0.11154528 -0.33560905 0.08043036
v 0.12758934 -0.32897013 0.08098361
v 0.12758934 -0.32565066 0.08098361
v 0.14031395 -0.33228958 0.08043036
v 0.14031395 -0.33560905 0.08043036
v 0.16852939 -0.33560905 0.08098361
v 0.15635803 -0.32897013 0.08098361
v 0.15635803 -0.32565066 0.08098361
v 0.16852939 -0.33228958 0.08098361
v 0.19729808 -0.33560905 0.08209008
v 0.1851267 -0.32897013 0.08209008
v 0.1851267 -0.32565066 0.08209008
v 0.19729808 -0.33228958 0.08209008
v 0.22551352 -0.33560905 0.08264333
v 0.21444863 -0.32897013 0.08264333
v 0.21444863 -0.3250974 0.08264333
v 0.22551352 -0.33228958 0.08264333
v 0.2542822 -0.33560905 0.08319658
v 0.24321732 -0.32841688 0.08319658
v 0.24321732 -0.3250974 0.08319658
v 0.2542822 -0.33228958 0.08319658
v 0.28249764 -0.3350558 0.08319658
v 0.271986 -0.32841688 0.08319658
v 0.271986 -0.3250974 0.0837498
v 0.30130792 -0.3250974 0.08319658
v 0.28249764 -0.33173636 0.08319658
v 0.3112663 -0.3350558 0.08264333
v 0.30794686 -0.30684036 0.08264333
v 0.3112663 -0.30684036 0.08264333
v 0.3112663 -0.27862492 0.08098361
v 0.3046274 -0.29577547 0.08209008
v 0.30130792 -0.29577547 0.08209008
v 0.3073936 -0.27862492 0.08098361
v 0.31071308 -0.25040948 0.07821739
v 0.30407414 -0.26645356 0.07987711
v 0.3007547 -0.26645356 0.07987711
v 0.3073936 -0.25040948 0.07821739
v 0.31071308 -0.22219405 0.075451165
v 0.30407414 -0.23713164 0.076557636
v 0.3007547 -0.23713164 0.076557636
v 0.3073936 -0.22219405 0.075451165
v 0.31071308 -0.19397861 0.074344665
v 0.3057339 -0.24598354 0.07766414
v 0.30407414 -0.20780972 0.074897915
v 0.3007547 -0.20780972 0.074897915
v 0.30518064 -0.22164081 0.075451165
v 0.3073936 -0.19397861 0.074344665
v 0.31071308 -0.16576317 0.073791414
v 0.30407414 -0.1784878 0.073791414
v 0.3007547 -0.1784878 0.073791414
v 0.30518064 -0.19397861 0.074344665
v 0.3073936 -0.16576317 0.073791414
v 0.31071308 -0.13754775 0.074344665
v 0.30407414 -0.14916585 0.074344665
v 0.3007547 -0.14916585 0.074344665
v 0.30518064 -0.16465668 0.073791414
v 0.3073936 -0.13754775 0.074344665
v 0.31015983 -0.10933231 0.074897915
v 0.30352092 -0.11984393 0.074897915
v 0.30020145 -0.11984393 0.074897915
v 0.30518064 -0.13312179 0.074344665
v 0.30684036 -0.10933231 0.074897915
v 0.31015983 -0.081116855 0.075451165
v 0.30352092 -0.090522006 0.075451165
v 0.30020145 -0.090522006 0.075451165
v 0.30518064 -0.10656609 0.074897915
v 0.30684036 -0.081116855 0.075451165
v 0.31015983 -0.052901417 0.074897915
v 0.30352092 -0.061200082 0.074897915
v 0.30020145 -0.061200082 0.074897915
v 0.3046274 -0.07890388 0.075451165
v 0.30684036 -0.052901417 0.074897915
v 0.31015983 -0.024685979 0.073238194
v 0.30352092 -0.031878144 0.073791414
v 0.30020145 -0.031878144 0.073791414
v 0.3046274 -0.050688446 0.074897915
v 0.30684036 -0.024685979 0.073238194
v 0.31015983 0.0035294592 0.07157844
v 0.30352092 -0.0025562346 0.07213169
v 0.30020145 -0.0025562346 0.07213169
v 0.3046274 -0.021919757 0.073238194
v 0.30684036 0.0035294592 0.07157844
v 0.30960658 0.031744897 0.07102519
v 0.30296767 0.026765704 0.07102519
v 0.2996482 0.026765704 0.07102519
v 0.3046274 0.0068489015 0.07157844
v 0.3062871 0.031744897 0.07102519
v 0.30960658 0.059960335 0.07047197
v 0.30296767 0.056087613 0.07047197
v 0.2996482 0.056087613 0.07047197
v 0.2996482 0.08540955 0.07047197
v 0.3046274 0.03506434 0.07102519
v 0.3062871 0.059960335 0.07047197
v 0.3046274 0.059407085 0.07047197
v 0.30296767 0.0859628 0.07047197
v 0.3062871 0.08706927 0.07047197
v 0.30960658 0.08817577 0.07047197
v 0.29688197 0.106986046 0.07102519
v 0.2858171 0.11141202 0.07047197
v 0.2830509 0.10975227 0.07047197
v 0.2659003 0.13409501 0.07047197
v 0.29411575 0.104773074 0.07047197
v 0.28139114 0.12358338 0.07047197
v 0.28415737 0.1252431 0.07047197
v 0.27143276 0.1440534 0.07157844
v 0.24211083 0.14073393 0.07157844
v 0.24211083 0.1440534 0.07157844
v 0.23768488 0.13741449 0.07157844
v 0.23768488 0.13409501 0.07102519
v 0.21278891 0.14073393 0.07157844
v 0.21278891 0.1440534 0.07157844
v 0.20946944 0.13741449 0.07157844
v 0.20946944 0.13409501 0.07102519
v 0.18346699 0.14073393 0.07157844
v 0.18346699 0.1440534 0.07213169
v 0.181254 0.13741449 0.07157844
v 0.181254 0.13409501 0.07157844
v 0.15248533 0.13409501 0.07213169
v 0.15414506 0.14073393 0.07268494
v 0.15414506 0.1440534 0.07268494
v 0.12537637 0.1440534 0.073238194
v 0.15248533 0.13741449 0.07213169
v 0.12537637 0.14073393 0.07268494
v 0.09605445 0.1440534 0.073238194
v 0.12426989 0.13741449 0.07268494
v 0.12426989 0.13409501 0.07213169
v 0.09605445 0.13409501 0.07268494
v 0.09605445 0.14073393 0.073238194
v 0.066732526 0.1440534 0.073238194
v 0.09605445 0.13741449 0.07268494
v 0.067839 0.13409501 0.07268494
v 0.067839 0.13741449 0.07268494
v 0.03962356 0.13409501 0.07213169
v 0.066732526 0.14073393 0.07268494
v 0.037410587 0.14460665 0.07213169
v 0.03962356 0.13741449 0.07213169
v 0.0108549 0.13464826 0.07157844
v 0.037410587 0.14073393 0.07213169
v 0.01030165 0.1379677 0.07157844
v 0.009195149 0.14128718 0.07157844
v 0.008088678 0.14460665 0.07157844
v -0.014041096 0.13022229 0.07102519
v -0.012381345 0.12745607 0.07102519
v -0.03617084 0.11639121 0.07047197
v -0.012934595 0.123030126 0.07102519
v -0.011274874 0.120263904 0.07102519
v -0.03451112 0.11362499 0.07047197
v -0.058300585 0.1025601 0.07047197
v -0.03506434 0.10919905 0.07047197
v -0.03340462 0.106432825 0.07047197
v -0.057194114 0.09924063 0.07047197
v -0.056087613 0.09536794 0.07047197
v -0.055534363 0.092048466 0.07047197
v -0.08098361 0.092048466 0.06991872
v -0.08098361 0.09536794 0.06991872
v -0.106432825 0.092048466 0.06991872
v -0.0848563 0.09924063 0.06991872
v -0.0848563 0.1025601 0.06991872
v -0.11196524 0.1025601 0.06936547
v -0.106432825 0.09592119 0.06991872
v -0.13188204 0.092048466 0.06936547
v -0.11196524 0.09924063 0.06936547
v -0.1390742 0.1025601 0.06991872
v -0.13188204 0.09592119 0.06936547
v -0.15733126 0.092048466 0.06991872
v -0.1390742 0.09924063 0.06991872
v -0.15733126 0.09592119 0.06991872
vt 0.3577701 0.3096246
vt 0.3577701 0.3096246
vt 0.3577701 0.29287836
vt 0.3577701 0.29287836
vt 0.3577701 0.29287836
vt 0.3577701 0.29287836
vt 0.35149023 0.28031865
vt 0.35149023 0.28031865
vt 0.34311712 0.26775897
vt 0.34311712 0.26775897
vt 0.34311712 0.26775897
vt 0.34311712 0.26775897
vt 0.34311712 0.24682614
vt 0.34311712 0.24682614
vt 0.34311712 0.22589332
vt 0.34311712 0.22589332
vt 0.34311712 0.20705378
vt 0.34311712 0.20705378
vt 0.34311712 0.18612096
vt 0.34311712 0.18612096
vt 0.34311712 0.16518815
vt 0.34311712 0.16518815
vt 0.34311712 0.14425533
vt 0.34311712 0.14425533
vt 0.34311712 0.12541579
vt 0.34311712 0.12541579
vt 0.34311712 0.10448296
vt 0.34311712 0.10448296
vt 0.34311712 0.08355015
vt 0.34311712 0.08355015
vt 0.34311712 0.062617324
vt 0.34311712 0.062617324
vt 0.34311712 0.043777786
vt 0.34311712 0.043777786
vt 0.34311712 0.022844967
vt 0.34311712 0.022844967
vt 0.34311712 0.0019121468
vt 0.34311712 0.0019121468
vt 0.34311712 0.0019121468
vt 0.34311712 0.0019121468
vt 0.3535835 0.0019121468
vt 0.3535835 0.0019121468
vt 0.36404994 0.0019121468
vt 0.36404994 0.0019121468
vt 0.37451634 0.0019121468
vt 0.37451634 0.0019121468
vt 0.38498276 0.0019121468
vt 0.38498276 0.0019121468
vt 0.39335588 0.0019121468
vt 0.39335588 0.0019121468
vt 0.4038223 0.0019121468
vt 0.4038223 0.0019121468
vt 0.4142887 0.0019121468
vt 0.4142887 0.0019121468
vt 0.42475513 0.0019121468
vt 0.42475513 0.0019121468
vt 0.43522152 0.0019121468
vt 0.43522152 0.0019121468
vt 0.44568792 0.0019121468
vt 0.44568792 0.0019121468
vt 0.45406106 0.0019121468
vt 0.45406106 0.0019121468
vt 0.46452746 0.0019121468
vt 0.46452746 0.0019121468
vt 0.47499388 0.0019121468
vt 0.47499388 0.0019121468
vt 0.48546028 0.0019121468
vt 0.48546028 0.0019121468
vt 0.4959267 0.0019121468
vt 0.4959267 0.0019121468
vt 0.5063931 0.0019121468
vt 0.5063931 0.0019121468
vt 0.5147662 0.0019121468
vt 0.5147662 0.0019121468
vt 0.5252327 0.0019121468
vt 0.5252327 0.0019121468
vt 0.535699 0.0019121468
vt 0.535699 0.0019121468
vt 0.535699 0.0019121468
vt 0.535699 0.0019121468
vt 0.535699 0.022844967
vt 0.535699 0.022844967
vt 0.535699 0.041684505
vt 0.535699 0.041684505
vt 0.535699 0.060524043
vt 0.535699 0.060524043
vt 0.535699 0.08145686
vt 0.535699 0.08145686
vt 0.535699 0.1002964
vt 0.535699 0.1002964
vt 0.535699 0.121229224
vt 0.535699 0.121229224
vt 0.535699 0.14006875
vt 0.535699 0.14006875
vt 0.535699 0.16100158
vt 0.535699 0.16100158
vt 0.535699 0.17984112
vt 0.535699 0.17984112
vt 0.535699 0.20077394
vt 0.535699 0.20077394
vt 0.535699 0.21961348
vt 0.535699 0.21961348
vt 0.535699 0.23845302
vt 0.535699 0.2405463
vt 0.535699 0.25938582
vt 0.535699 0.25938582
vt 0.535699 0.27822536
vt 0.535699 0.27822536
vt 0.535699 0.2991582
vt 0.535699 0.2991582
vt 0.535699 0.2991582
vt 0.535699 0.2991582
vt 0.5315125 0.3117179
vt 0.5315125 0.3117179
vt 0.5252327 0.32427758
vt 0.5252327 0.32427758
vt 0.52104604 0.33683726
vt 0.52104604 0.33683726
vt 0.52104604 0.33683726
vt 0.52104604 0.33683726
vt 0.5105797 0.33683726
vt 0.5105797 0.33683726
vt 0.50011325 0.33683726
vt 0.50011325 0.33683726
vt 0.48964685 0.33683726
vt 0.48964685 0.33893055
vt 0.47918046 0.33893055
vt 0.47918046 0.33893055
vt 0.46871403 0.33893055
vt 0.4708073 0.33893055
vt 0.46034092 0.33893055
vt 0.46034092 0.33893055
vt 0.4498745 0.33893055
vt 0.4498745 0.33893055
vt 0.4394081 0.33893055
vt 0.4394081 0.33893055
vt 0.42894167 0.33893055
vt 0.42894167 0.33893055
vt 0.42894167 0.33893055
vt 0.42894167 0.33893055
vt 0.42056856 0.32846415
vt 0.42056856 0.32846415
vt 0.4121954 0.31799772
vt 0.4121954 0.31799772
vt 0.4038223 0.3096246
vt 0.4038223 0.3096246
vt 0.4038223 0.3096246
vt 0.4038223 0.3096246
vt 0.39544916 0.3096246
vt 0.39544916 0.3096246
vt 0.38498276 0.3096246
vt 0.38498276 0.3096246
vt 0.37660962 0.3096246
vt 0.37660962 0.3096246
vt 0.36614323 0.3096246
vt 0.36614323 0.3096246
vt 0.3577701 0.3096246
vt 0.3577701 0.3096246
vt 0.35986337 0.30125147
vt 0.35986337 0.30125147
vt 0.37032977 0.30125147
vt 0.37032977 0.30125147
vt 0.3787029 0.30125147
vt 0.3787029 0.30125147
vt 0.38707605 0.30125147
vt 0.38707605 0.30125147
vt 0.39754245 0.30125147
vt 0.39754245 0.30125147
vt 0.4059156 0.30125147
vt 0.4059156 0.30125147
vt 0.4059156 0.30125147
vt 0.4059156 0.30125147
vt 0.4142887 0.3117179
vt 0.4142887 0.3117179
vt 0.42056856 0.3221843
vt 0.42056856 0.3221843
vt 0.42894167 0.33055744
vt 0.42894167 0.33055744
vt 0.42894167 0.33055744
vt 0.42894167 0.33055744
vt 0.4394081 0.33055744
vt 0.4394081 0.33055744
vt 0.4498745 0.33055744
vt 0.4498745 0.33055744
vt 0.46034092 0.33055744
vt 0.46034092 0.33055744
vt 0.46871403 0.33055744
vt 0.46871403 0.33055744
vt 0.47918046 0.33055744
vt 0.47918046 0.33055744
vt 0.48964685 0.33055744
vt 0.48964685 0.33055744
vt 0.50011325 0.33055744
vt 0.50011325 0.33055744
vt 0.5105797 0.33055744
vt 0.5105797 0.33055744
vt 0.51895285 0.33055744
vt 0.51895285 0.33055744
vt 0.51895285 0.33055744
vt 0.51895285 0.33055744
vt 0.5252327 0.31381115
vt 0.5252327 0.31381115
vt 0.5315125 0.2970649
vt 0.5315125 0.2970649
vt 0.5315125 0.2970649
vt 0.5315125 0.2970649
vt 0.5315125 0.27613208
vt 0.5315125 0.27613208
vt 0.5315125 0.25519928
vt 0.5315125 0.25519928
vt 0.5315125 0.23426645
vt 0.5315125 0.23426645
vt 0.5315125 0.2154269
vt 0.5315125 0.2154269
vt 0.5315125 0.1944941
vt 0.5315125 0.1944941
vt 0.5315125 0.17356128
vt 0.5315125 0.17356128
vt 0.5315125 0.15262845
vt 0.5315125 0.15262845
vt 0.5315125 0.13169563
vt 0.5315125 0.13169563
vt 0.5315125 0.11076281
vt 0.5315125 0.11285609
vt 0.5315125 0.091923274
vt 0.5315125 0.091923274
vt 0.5315125 0.07099045
vt 0.5315125 0.07099045
vt 0.5315125 0.050057635
vt 0.5315125 0.050057635
vt 0.5315125 0.029124813
vt 0.5315125 0.029124813
vt 0.5315125 0.008191993
vt 0.5315125 0.008191993
vt 0.5315125 0.008191993
vt 0.5315125 0.008191993
vt 0.52104604 0.008191993
vt 0.52104604 0.008191993
vt 0.5105797 0.008191993
vt 0.5105797 0.008191993
vt 0.50220656 0.008191993
vt 0.50220656 0.008191993
vt 0.49174014 0.008191993
vt 0.49174014 0.008191993
vt 0.48127374 0.008191993
vt 0.48127374 0.008191993
vt 0.4708073 0.008191993
vt 0.4708073 0.008191993
vt 0.46034092 0.008191993
vt 0.46034092 0.008191993
vt 0.4498745 0.008191993
vt 0.4498745 0.008191993
vt 0.4394081 0.008191993
vt 0.4394081 0.008191993
vt 0.42894167 0.008191993
vt 0.42894167 0.008191993
vt 0.41847527 0.008191993
vt 0.41847527 0.008191993
vt 0.40800884 0.008191993
vt 0.40800884 0.008191993
vt 0.39963573 0.008191993
vt 0.39963573 0.008191993
vt 0.3891693 0.008191993
vt 0.3891693 0.008191993
vt 0.3787029 0.008191993
vt 0.3787029 0.008191993
vt 0.3682365 0.008191993
vt 0.3682365 0.008191993
vt 0.3577701 0.008191993
vt 0.3577701 0.008191993
vt 0.3473037 0.008191993
vt 0.3473037 0.008191993
vt 0.3473037 0.008191993
vt 0.3473037 0.008191993
vt 0.3473037 0.029124813
vt 0.3473037 0.029124813
vt 0.3473037 0.04796435
vt 0.3473037 0.04796435
vt 0.3473037 0.06889717
vt 0.3473037 0.06889717
vt 0.3473037 0.08773671
vt 0.3473037 0.08773671
vt 0.3473037 0.10657625
vt 0.3473037 0.10657625
vt 0.3473037 0.12750907
vt 0.3473037 0.12750907
vt 0.3473037 0.14634861
vt 0.3473037 0.14634861
vt 0.3473037 0.16518815
vt 0.3473037 0.16518815
vt 0.3473037 0.18612096
vt 0.3473037 0.18612096
vt 0.3473037 0.2049605
vt 0.3473037 0.2049605
vt 0.3473037 0.22589332
vt 0.3473037 0.22589332
vt 0.3473037 0.24473286
vt 0.3473037 0.24473286
vt 0.3473037 0.2635724
vt 0.3473037 0.2635724
vt 0.3473037 0.2635724
vt 0.3473037 0.2635724
vt 0.3535835 0.27613208
vt 0.3535835 0.27613208
vt 0.35986337 0.2886918
vt 0.35986337 0.2886918
vt 0.35986337 0.2886918
vt 0.35986337 0.2886918
vt 0.35986337 0.30125147
vt 0.35986337 0.30125147
vt 0.3577701 0.29287836
vt 0.35986337 0.30125147
vt 0.35986337 0.2886918
vt 0.3535835 0.27613208
vt 0.35149023 0.27822536
vt 0.3473037 0.2635724
vt 0.35149023 0.28031865
vt 0.34311712 0.26775897
vt 0.3577701 0.3096246
vt 0.3452104 0.24682614
vt 0.34311712 0.24682614
vt 0.36614323 0.30543804
vt 0.36614323 0.3096246
vt 0.3452104 0.24473286
vt 0.3473037 0.24473286
vt 0.3473037 0.22589332
vt 0.3452104 0.22589332
vt 0.34311712 0.22589332
vt 0.34311712 0.20705378
vt 0.3452104 0.22589332
vt 0.3473037 0.2049605
vt 0.3452104 0.20705378
vt 0.34311712 0.18612096
vt 0.3452104 0.2049605
vt 0.3473037 0.18612096
vt 0.3452104 0.18612096
vt 0.34311712 0.16518815
vt 0.3452104 0.18612096
vt 0.3473037 0.16518815
vt 0.3452104 0.16518815
vt 0.3473037 0.14634861
vt 0.3452104 0.16518815
vt 0.34311712 0.14425533
vt 0.3452104 0.14634861
vt 0.3473037 0.12750907
vt 0.3452104 0.14425533
vt 0.34311712 0.12541579
vt 0.3452104 0.12750907
vt 0.3473037 0.10657625
vt 0.3452104 0.12541579
vt 0.34311712 0.10448296
vt 0.3452104 0.10657625
vt 0.3473037 0.08773671
vt 0.3452104 0.10448296
vt 0.34311712 0.08355015
vt 0.3452104 0.08773671
vt 0.3473037 0.06889717
vt 0.3452104 0.08355015
vt 0.34311712 0.062617324
vt 0.3452104 0.06680389
vt 0.3452104 0.062617324
vt 0.3452104 0.04796435
vt 0.3473037 0.04796435
vt 0.3452104 0.043777786
vt 0.34311712 0.043777786
vt 0.34311712 0.022844967
vt 0.3452104 0.029124813
vt 0.3473037 0.029124813
vt 0.3473037 0.008191993
vt 0.3452104 0.022844967
vt 0.34311712 0.0019121468
vt 0.3535835 0.004005429
vt 0.3535835 0.0019121468
vt 0.3577701 0.006098711
vt 0.3577701 0.008191993
vt 0.36404994 0.004005429
vt 0.36404994 0.0019121468
vt 0.3682365 0.006098711
vt 0.3682365 0.008191993
vt 0.37451634 0.004005429
vt 0.37451634 0.0019121468
vt 0.38498276 0.0019121468
vt 0.3787029 0.006098711
vt 0.3787029 0.008191993
vt 0.38498276 0.004005429
vt 0.39335588 0.0019121468
vt 0.3891693 0.006098711
vt 0.3891693 0.008191993
vt 0.39335588 0.004005429
vt 0.4038223 0.0019121468
vt 0.39963573 0.006098711
vt 0.39963573 0.008191993
vt 0.40800884 0.008191993
vt 0.4038223 0.004005429
vt 0.40800884 0.006098711
vt 0.4142887 0.004005429
vt 0.4142887 0.0019121468
vt 0.41847527 0.006098711
vt 0.41847527 0.008191993
vt 0.42475513 0.004005429
vt 0.42475513 0.0019121468
vt 0.42894167 0.006098711
vt 0.42894167 0.008191993
vt 0.43522152 0.004005429
vt 0.43522152 0.0019121468
vt 0.4394081 0.006098711
vt 0.4394081 0.008191993
vt 0.44568792 0.004005429
vt 0.44568792 0.0019121468
vt 0.4498745 0.006098711
vt 0.4498745 0.008191993
vt 0.45406106 0.004005429
vt 0.45406106 0.0019121468
vt 0.46034092 0.006098711
vt 0.46034092 0.008191993
vt 0.46452746 0.004005429
vt 0.46452746 0.0019121468
vt 0.4708073 0.006098711
vt 0.4708073 0.008191993
vt 0.47499388 0.004005429
vt 0.47499388 0.0019121468
vt 0.48546028 0.0019121468
vt 0.48127374 0.006098711
vt 0.48127374 0.008191993
vt 0.48546028 0.004005429
vt 0.4959267 0.0019121468
vt 0.49174014 0.006098711
vt 0.49174014 0.008191993
vt 0.4959267 0.004005429
vt 0.5063931 0.0019121468
vt 0.50220656 0.006098711
vt 0.50220656 0.008191993
vt 0.5063931 0.004005429
vt 0.5147662 0.0019121468
vt 0.5105797 0.006098711
vt 0.5105797 0.008191993
vt 0.5147662 0.004005429
vt 0.5252327 0.0019121468
vt 0.52104604 0.006098711
vt 0.52104604 0.008191993
vt 0.5315125 0.008191993
vt 0.5252327 0.004005429
vt 0.535699 0.0019121468
vt 0.5336058 0.022844967
vt 0.535699 0.022844967
vt 0.535699 0.041684505
vt 0.5336058 0.029124813
vt 0.5315125 0.029124813
vt 0.5336058 0.041684505
vt 0.535699 0.060524043
vt 0.5336058 0.050057635
vt 0.5315125 0.050057635
vt 0.5336058 0.060524043
vt 0.535699 0.08145686
vt 0.5336058 0.07099045
vt 0.5315125 0.07099045
vt 0.5336058 0.08145686
vt 0.535699 0.1002964
vt 0.5336058 0.06471061
vt 0.5336058 0.091923274
vt 0.5315125 0.091923274
vt 0.5336058 0.08145686
vt 0.5336058 0.1002964
vt 0.535699 0.121229224
vt 0.5336058 0.11076281
vt 0.5315125 0.11076281
vt 0.5336058 0.1002964
vt 0.5336058 0.121229224
vt 0.535699 0.14006875
vt 0.5336058 0.13169563
vt 0.5315125 0.13169563
vt 0.5336058 0.121229224
vt 0.5336058 0.14006875
vt 0.535699 0.16100158
vt 0.5336058 0.15262845
vt 0.5315125 0.15262845
vt 0.5336058 0.14425533
vt 0.5336058 0.16100158
vt 0.535699 0.17984112
vt 0.5336058 0.17356128
vt 0.5315125 0.17356128
vt 0.5336058 0.16309486
vt 0.5336058 0.17984112
vt 0.535699 0.20077394
vt 0.5336058 0.1944941
vt 0.5315125 0.1944941
vt 0.5336058 0.1819344
vt 0.5336058 0.20077394
vt 0.535699 0.21961348
vt 0.5336058 0.2154269
vt 0.5315125 0.2154269
vt 0.5336058 0.20077394
vt 0.5336058 0.21961348
vt 0.535699 0.23845302
vt 0.5336058 0.23426645
vt 0.5315125 0.23426645
vt 0.5336058 0.22170676
vt 0.5336058 0.23845302
vt 0.535699 0.25938582
vt 0.5336058 0.25519928
vt 0.5315125 0.25519928
vt 0.5336058 0.24263957
vt 0.5336058 0.25938582
vt 0.535699 0.27822536
vt 0.5336058 0.27613208
vt 0.5315125 0.27613208
vt 0.5315125 0.2970649
vt 0.5336058 0.2614791
vt 0.5336058 0.27822536
vt 0.5336058 0.27822536
vt 0.5336058 0.2970649
vt 0.5336058 0.2970649
vt 0.535699 0.2991582
vt 0.5315125 0.3117179
vt 0.527326 0.31590444
vt 0.5252327 0.31381115
vt 0.51895285 0.33055744
vt 0.5294192 0.3096246
vt 0.5252327 0.32427758
vt 0.5252327 0.32427758
vt 0.52104604 0.33683726
vt 0.5105797 0.33474398
vt 0.5105797 0.33683726
vt 0.5105797 0.3326507
vt 0.5105797 0.33055744
vt 0.50011325 0.33474398
vt 0.50011325 0.33683726
vt 0.50011325 0.3326507
vt 0.50011325 0.33055744
vt 0.48964685 0.33474398
vt 0.48964685 0.33683726
vt 0.48964685 0.3326507
vt 0.48964685 0.33055744
vt 0.47918046 0.33055744
vt 0.47918046 0.33474398
vt 0.47918046 0.33893055
vt 0.46871403 0.33893055
vt 0.47918046 0.3326507
vt 0.46871403 0.33474398
vt 0.46034092 0.33893055
vt 0.46871403 0.3326507
vt 0.46871403 0.33055744
vt 0.46034092 0.33055744
vt 0.46034092 0.33474398
vt 0.4498745 0.33893055
vt 0.46034092 0.3326507
vt 0.4498745 0.33055744
vt 0.4498745 0.3326507
vt 0.4394081 0.33055744
vt 0.4498745 0.33474398
vt 0.4394081 0.33893055
vt 0.4394081 0.3326507
vt 0.42894167 0.33055744
vt 0.4394081 0.33474398
vt 0.42894167 0.3326507
vt 0.42894167 0.33683726
vt 0.42894167 0.33893055
vt 0.42056856 0.32846415
vt 0.42056856 0.32637087
vt 0.4121954 0.31799772
vt 0.42056856 0.32427758
vt 0.42056856 0.3221843
vt 0.4142887 0.31590444
vt 0.4038223 0.3096246
vt 0.4121954 0.31381115
vt 0.4142887 0.3117179
vt 0.4059156 0.30543804
vt 0.4059156 0.30334476
vt 0.4059156 0.30125147
vt 0.39754245 0.30125147
vt 0.39754245 0.30334476
vt 0.38707605 0.30125147
vt 0.39544916 0.30543804
vt 0.39544916 0.3096246
vt 0.38498276 0.3096246
vt 0.38707605 0.30334476
vt 0.3787029 0.30125147
vt 0.38498276 0.30543804
vt 0.37660962 0.3096246
vt 0.3787029 0.30334476
vt 0.37032977 0.30125147
vt 0.37660962 0.30543804
vt 0.37032977 0.30334476
vn -0.9998741 -0.015870988 -0
vn -0.9998741 -0.015870988 -0
vn -0.9998741 -0.015870988 -0
vn -0.9998741 -0.015870988 -0
vn -0.6750134 0.7378054 -0
vn -0.6750134 0.7378054 -0
vn -0.6750134 0.7378054 -0
vn -0.6750134 0.7378054 -0
vn -0.6750134 0.7378054 -0
vn -0.6750134 0.7378054 -0
vn -0.9998741 -0.015870988 -0
vn -0.9998741 -0.015870988 -0
vn -0.9998741 -0.015870988 -0
vn -0.9998741 -0.015870988 -0
vn -0.9998741 -0.015870988 -0
vn -0.9998741 -0.015870988 -0
vn -0.9998741 -0.015870988 -0
vn -0.9998741 -0.015870988 -0
vn -0.9998741 -0.015870988 -0
vn -0.9998741 -0.015870988 -0
vn -0.9998741 -0.015870988 -0
vn -0.9998741 -0.015870988 -0
vn -0.9998741 -0.015870988 -0
vn -0.9998741 -0.015870988 -0
vn -0.9998741 -0.015870988 -0
vn -0.9998741 -0.015870988 -0
vn -0.9998741 -0.015870988 -0
vn -0.9998741 -0.015870988 -0
vn -0.9998741 -0.015870988 -0
vn -0.9998741 -0.015870988 -0
vn -0.9998741 -0.015870988 -0
vn -0.9998741 -0.015870988 -0
vn -0.9998741 -0.015870988 -0
vn -0.9998741 -0.015870988 -0
vn -0.9998741 -0.015870988 -0
vn -0.9998741 -0.015870988 -0
vn -0.9998741 -0.015870988 -0
vn -0.9998741 -0.015870988 -0
vn 0.015870988 -0.9998741 -0
vn 0.015870988 -0.9998741 -0
vn 0.015870988 -0.9998741 -0
vn 0.015870988 -0.9998741 -0
vn 0.015870988 -0.9998741 -0
vn 0.015870988 -0.9998741 -0
vn 0.015870988 -0.9998741 -0
vn 0.015870988 -0.9998741 -0
vn 0.015870988 -0.9998741 -0
vn 0.015870988 -0.9998741 -0
vn 0.015870988 -0.9998741 -0
vn 0.015870988 -0.9998741 -0
vn 0.015870988 -0.9998741 -0
vn 0.015870988 -0.9998741 -0
vn 0.015870988 -0.9998741 -0
vn 0.015870988 -0.9998741 -0
vn 0.015870988 -0.9998741 -0
vn 0.015870988 -0.9998741 -0
vn 0.015870988 -0.9998741 -0
vn 0.015870988 -0.9998741 -0
vn 0.015870988 -0.9998741 -0
vn 0.015870988 -0.9998741 -0
vn 0.015870988 -0.9998741 -0
vn 0.015870988 -0.9998741 -0
vn 0.015870988 -0.9998741 -0
vn 0.015870988 -0.9998741 -0
vn 0.015870988 -0.9998741 -0
vn 0.015870988 -0.9998741 -0
vn 0.015870988 -0.9998741 -0
vn 0.015870988 -0.9998741 -0
vn 0.015870988 -0.9998741 -0
vn 0.015870988 -0.9998741 -0
vn 0.015870988 -0.9998741 -0
vn 0.015870988 -0.9998741 -0
vn 0.015870988 -0.9998741 -0
vn 0.015870988 -0.9998741 -0
vn 0.015870988 -0.9998741 -0
vn 0.015870988 -0.9998741 -0
vn 0.015870988 -0.9998741 -0
vn 0.015870988 -0.9998741 -0
vn 0.9998741 0.015871048 -0
vn 0.9998741 0.015871048 -0
vn 0.9998741 0.015871048 -0
vn 0.9998741 0.015871048 -0
vn 0.9998741 0.015871048 -0
vn 0.9998741 0.015871048 -0
vn 0.9998741 0.015871048 -0
vn 0.9998741 0.015871048 -0
vn 0.9998741 0.015871048 -0
vn 0.9998741 0.015871048 -0
vn 0.9998741 0.015871048 -0
vn 0.9998741 0.015871048 -0
vn 0.9998741 0.015871048 -0
vn 0.9998741 0.015871048 -0
vn 0.9998741 0.015871048 -0
vn 0.9998741 0.015871048 -0
vn 0.9998741 0.015871048 -0
vn 0.9998741 0.015871048 -0
vn 0.9998741 0.015871048 -0
vn 0.9998741 0.015871048 -0
vn 0.9998741 0.015871048 -0
vn 0.9998741 0.015871048 -0
vn 0.9998741 0.015871048 -0
vn 0.9998741 0.015871048 -0
vn 0.9998741 0.015871048 -0
vn 0.9998741 0.015871048 -0
vn 0.9998741 0.015871048 -0
vn 0.9998741 0.015871048 -0
vn 0.9998741 0.015871048 -0
vn 0.9998741 0.015871048 -0
vn 0.9998741 0.015871048 -0
vn 0.9998741 0.015871048 -0
vn 0.8094219 0.5554856 0.1904519
vn 0.8094219 0.5554856 0.1904519
vn 0.8094219 0.5554856 0.1904519
vn 0.8094219 0.5554856 0.1904519
vn 0.8094219 0.5554856 0.1904519
vn 0.8094219 0.5554856 0.1904519
vn 0.8094219 0.5554856 0.1904519
vn 0.8094219 0.5554856 0.1904519
vn 0.015870988 0.9998741 -0
vn 0.015870988 0.9998741 -0
vn 0.015870988 0.9998741 -0
vn 0.015870988 0.9998741 -0
vn 0.015870988 0.9998741 -0
vn 0.015870988 0.9998741 -0
vn 0.015870988 0.9998741 -0
vn 0.015870988 0.9998741 -0
vn 0.015870988 0.9998741 -0
vn 0.015870988 0.9998741 -0
vn 0.015870988 0.9998741 -0
vn 0.015870988 0.9998741 -0
vn 0.015870988 0.9998741 -0
vn 0.015870988 0.9998741 -0
vn 0.015870988 0.9998741 -0
vn 0.015870988 0.9998741 -0
vn 0.015870988 0.9998741 -0
vn 0.015870988 0.9998741 -0
vn 0.015870988 0.9998741 -0
vn 0.015870988 0.9998741 -0
vn -0.5237436 0.841164 0.13466917
vn -0.5237436 0.841164 0.13466917
vn -0.5237436 0.841164 0.13466917
vn -0.5237436 0.841164 0.13466917
vn -0.5237436 0.841164 0.13466917
vn -0.5237436 0.841164 0.13466917
vn -0.5237436 0.841164 0.13466917
vn -0.5237436 0.841164 0.13466917
vn -0.015871048 0.9998741 -0
vn -0.015871048 0.9998741 -0
vn -0.015871048 0.9998741 -0
vn -0.015871048 0.9998741 -0
vn 0.015870988 0.9998741 -0
vn 0.015870988 0.9998741 -0
vn 0.015870988 0.9998741 -0
vn 0.015870988 0.9998741 -0
vn 0.015870988 0.9998741 -0
vn 0.015870988 0.9998741 -0
vn 0.015870988 0.9998741 -0
vn 0.015870988 0.9998741 -0
vn -0.015871048 -0.9998741 -0
vn -0.015871048 -0.9998741 -0
vn -0.015871048 -0.9998741 -0
vn -0.015871048 -0.9998741 -0
vn -0.015871048 -0.9998741 -0
vn -0.015871048 -0.9998741 -0
vn -0.015871048 -0.9998741 -0
vn -0.015871048 -0.9998741 -0
vn -0.015871048 -0.9998741 -0
vn -0.015871048 -0.9998741 -0
vn -0.015871048 -0.9998741 -0
vn -0.015871048 -0.9998741 -0
vn 0.52374357 -0.84116393 -0.1346694
vn 0.52374357 -0.84116393 -0.1346694
vn 0.52374357 -0.84116393 -0.1346694
vn 0.52374357 -0.84116393 -0.1346694
vn 0.52374357 -0.84116393 -0.1346694
vn 0.52374357 -0.84116393 -0.1346694
vn 0.52374357 -0.84116393 -0.1346694
vn 0.52374357 -0.84116393 -0.1346694
vn -0.015871048 -0.9998741 -0
vn -0.015871048 -0.9998741 -0
vn -0.015871048 -0.9998741 -0
vn -0.015871048 -0.9998741 -0
vn -0.015871048 -0.9998741 -0
vn -0.015871048 -0.9998741 -0
vn -0.015871048 -0.9998741 -0
vn -0.015871048 -0.9998741 -0
vn -0.015871048 -0.9998741 -0
vn -0.015871048 -0.9998741 -0
vn -0.015871048 -0.9998741 -0
vn -0.015871048 -0.9998741 -0
vn -0.015871048 -0.9998741 -0
vn -0.015871048 -0.9998741 -0
vn -0.015871048 -0.9998741 -0
vn -0.015871048 -0.9998741 -0
vn -0.015871048 -0.9998741 -0
vn -0.015871048 -0.9998741 -0
vn -0.015871048 -0.9998741 -0
vn -0.015871048 -0.9998741 -0
vn -0.8094219 -0.5554856 -0.1904519
vn -0.8094219 -0.5554856 -0.1904519
vn -0.8094219 -0.5554856 -0.1904519
vn -0.8094219 -0.5554856 -0.1904519
vn -0.8094219 -0.5554856 -0.1904519
vn -0.8094219 -0.5554856 -0.1904519
vn -0.9998741 -0.015870988 -0
vn -0.9998741 -0.015870988 -0
vn -0.9998741 -0.015870988 -0
vn -0.9998741 -0.015870988 -0
vn -0.9998741 -0.015870988 -0
vn -0.9998741 -0.015870988 -0
vn -0.9998741 -0.015870988 -0
vn -0.9998741 -0.015870988 -0
vn -0.9998741 -0.015870988 -0
vn -0.9998741 -0.015870988 -0
vn -0.9998741 -0.015870988 -0
vn -0.9998741 -0.015870988 -0
vn -0.9998741 -0.015870988 -0
vn -0.9998741 -0.015870988 -0
vn -0.9998741 -0.015870988 -0
vn -0.9998741 -0.015870988 -0
vn -0.9998741 -0.015870988 -0
vn -0.9998741 -0.015870988 -0
vn -0.9998741 -0.015870988 -0
vn -0.9998741 -0.015870988 -0
vn -0.9998741 -0.015870988 -0
vn -0.9998741 -0.015870988 -0
vn -0.9998741 -0.015870988 -0
vn -0.9998741 -0.015870988 -0
vn -0.9998741 -0.015870988 -0
vn -0.9998741 -0.015870988 -0
vn -0.9998741 -0.015870988 -0
vn -0.9998741 -0.015870988 -0
vn -0.9998741 -0.015870988 -0
vn -0.9998741 -0.015870988 -0
vn -0.015871048 0.9998741 -0
vn -0.015871048 0.9998741 -0
vn -0.015871048 0.9998741 -0
vn -0.015871048 0.9998741 -0
vn -0.015871048 0.9998741 -0
vn -0.015871048 0.9998741 -0
vn -0.015871048 0.9998741 -0
vn -0.015871048 0.9998741 -0
vn -0.015871048 0.9998741 -0
vn -0.015871048 0.9998741 -0
vn -0.015871048 0.9998741 -0
vn -0.015871048 0.9998741 -0
vn -0.015871048 0.9998741 -0
vn -0.015871048 0.9998741 -0
vn -0.015871048 0.9998741 -0
vn -0.015871048 0.9998741 -0
vn -0.015871048 0.9998741 -0
vn -0.015871048 0.9998741 -0
vn -0.015871048 0.9998741 -0
vn -0.015871048 0.9998741 -0
vn -0.015871048 0.9998741 -0
vn -0.015871048 0.9998741 -0
vn -0.015871048 0.9998741 -0
vn -0.015871048 0.9998741 -0
vn -0.015871048 0.9998741 -0
vn -0.015871048 0.9998741 -0
vn -0.015871048 0.9998741 -0
vn -0.015871048 0.9998741 -0
vn -0.015871048 0.9998741 -0
vn -0.015871048 0.9998741 -0
vn -0.015871048 0.9998741 -0
vn -0.015871048 0.9998741 -0
vn -0.015871048 0.9998741 -0
vn -0.015871048 0.9998741 -0
vn -0.015871048 0.9998741 -0
vn -0.015871048 0.9998741 -0
vn -0.015871048 0.9998741 -0
vn -0.015871048 0.9998741 -0
vn 0.9998741 0.015871048 -0
vn 0.9998741 0.015871048 -0
vn 0.9998741 0.015871048 -0
vn 0.9998741 0.015871048 -0
vn 0.9998741 0.015871048 -0
vn 0.9998741 0.015871048 -0
vn 0.9998741 0.015871048 -0
vn 0.9998741 0.015871048 -0
vn 0.9998741 0.015871048 -0
vn 0.9998741 0.015871048 -0
vn 0.9998741 0.015871048 -0
vn 0.9998741 0.015871048 -0
vn 0.9998741 0.015871048 -0
vn 0.9998741 0.015871048 -0
vn 0.9998741 0.015871048 -0
vn 0.9998741 0.015871048 -0
vn 0.9998741 0.015871048 -0
vn 0.9998741 0.015871048 -0
vn 0.9998741 0.015871048 -0
vn 0.9998741 0.015871048 -0
vn 0.9998741 0.015871048 -0
vn 0.9998741 0.015871048 -0
vn 0.9998741 0.015871048 -0
vn 0.9998741 0.015871048 -0
vn 0.9998741 0.015871048 -0
vn 0.9998741 0.015871048 -0
vn 0.9998741 0.015871048 -0
vn 0.9998741 0.015871048 -0
vn 0.6750134 -0.7378054 -0
vn 0.6750134 -0.7378054 -0
vn 0.6750134 -0.7378054 -0
vn 0.6750134 -0.7378054 -0
vn 0.6750134 -0.7378054 -0
vn 0.6750134 -0.7378054 -0
vn 0.9998741 0.015871048 -0
vn 0.9998741 0.015871048 -0
vn 0.9998741 0.015871048 -0
vn 0.9998741 0.015871048 -0
vn 0.015870988 -0.015870988 0.99974805
vn 0.015870988 -0.015870988 0.99974805
vn 0.015870988 -0.015870988 0.99974805
vn 0.015870988 -0.015870988 0.99974805
vn 0.015870988 -0.015870988 0.99974805
vn 0.015870988 -0.015870988 0.99974805
vn 0.015870988 -0.015870988 0.99974805
vn 0.015870988 -0.015870988 0.99974805
vn 0.015870988 -0.015870988 0.99974805
vn -0.015871048 0.015871048 0.99974805
vn -0.015871048 0.015871048 0.99974805
vn 0.015870988 -0.015870988 0.99974805
vn 0.015870988 -0.015870988 0.99974805
vn 0.015870988 0.015871048 0.99974805
vn -0.015871048 0.015871048 0.99974805
vn -0.015871048 0.047613025 0.9987398
vn -0.015871048 0.047613025 0.9987398
vn -0.015871048 0.047613025 0.9987398
vn -0.015871048 0.047613025 0.9987398
vn -0.015871048 0.047613025 0.9987398
vn -0.015871048 0.015871048 0.99974805
vn -0.015871048 0.047613025 0.9987398
vn -0.015871048 -0.015870988 0.99974805
vn -0.015871048 0.015871048 0.99974805
vn -0.015871048 -0.015870988 0.99974805
vn -0.015871048 -0.015870988 0.99974805
vn -0.015871048 -0.047613025 0.9987398
vn -0.015871048 -0.015870988 0.99974805
vn -0.015871048 -0.047613025 0.9987398
vn -0.015871048 -0.047613025 0.9987398
vn -0.015871048 -0.047613025 0.9987398
vn -0.015871048 -0.047613025 0.9987398
vn -0.015871048 -0.047613025 0.9987398
vn -0.015871048 -0.047613025 0.9987398
vn -0.015871048 -0.015870988 0.99974805
vn -0.015871048 -0.047613025 0.9987398
vn -0.015871048 -0.015870988 0.99974805
vn 0.015870988 -0.015870988 0.99974805
vn -0.015871048 0.047613025 0.9987398
vn -0.015871048 0.015871048 0.99974805
vn -0.015871048 0.047613025 0.9987398
vn 0.015870988 0.047613025 0.9987398
vn -0.015871048 0.07935512 0.9967201
vn -0.015871048 0.07935512 0.9967201
vn -0.015871048 0.1110971 0.9936828
vn 0.015870988 0.07935512 0.9967201
vn -0.015871048 0.1428392 0.98961866
vn -0.015871048 0.1110971 0.9936828
vn -0.015871048 0.1110971 0.9936828
vn 0.015870988 0.1110971 0.9936828
vn -0.015871048 0.1428392 0.98961866
vn -0.047613025 0.1110971 0.99266833
vn 0.015870988 0.1110971 0.9936828
vn 0.015870988 0.07935512 0.9967201
vn 0.015870988 0.07935512 0.9967201
vn 0.015870988 -0.015870988 0.99974805
vn -0.047613025 0.015871048 0.9987398
vn 0.015870988 0.015871048 0.99974805
vn 0.015870988 -0.047613025 0.9987398
vn -0.015871048 -0.015870988 0.99974805
vn 0.015870988 -0.047613025 0.9987398
vn 0.015870988 -0.047613025 0.9987398
vn -0.015871048 -0.047613025 0.9987398
vn -0.015871048 -0.047613025 0.9987398
vn -0.015871048 -0.047613025 0.9987398
vn -0.015871048 -0.047613025 0.9987398
vn -0.015871048 -0.047613025 0.9987398
vn -0.015871048 -0.047613025 0.9987398
vn -0.015871048 -0.047613025 0.9987398
vn -0.015871048 -0.047613025 0.9987398
vn -0.015871048 -0.047613025 0.9987398
vn -0.015871048 -0.047613025 0.9987398
vn -0.015871048 -0.047613025 0.9987398
vn -0.015871048 -0.047613025 0.9987398
vn -0.015871048 -0.047613025 0.9987398
vn -0.015871048 -0.047613025 0.9987398
vn -0.015871048 -0.047613025 0.9987398
vn -0.015871048 -0.047613025 0.9987398
vn -0.015871048 -0.047613025 0.9987398
vn -0.015871048 -0.047613025 0.9987398
vn -0.015871048 -0.047613025 0.9987398
vn -0.015871048 -0.047613025 0.9987398
vn -0.015871048 -0.015870988 0.99974805
vn -0.015871048 -0.047613025 0.9987398
vn -0.015871048 -0.047613025 0.9987398
vn -0.015871048 -0.047613025 0.9987398
vn -0.015871048 -0.047613025 0.9987398
vn -0.015871048 -0.047613025 0.9987398
vn -0.015871048 -0.015870988 0.99974805
vn 0.015870988 -0.047613025 0.9987398
vn 0.015870988 -0.047613025 0.9987398
vn 0.015870988 -0.047613025 0.9987398
vn 0.015870988 -0.047613025 0.9987398
vn 0.015870988 -0.047613025 0.9987398
vn 0.015870988 -0.047613025 0.9987398
vn 0.015870988 -0.015870988 0.99974805
vn 0.015870988 -0.047613025 0.9987398
vn -0.015871048 -0.047613025 0.9987398
vn 0.015870988 -0.047613025 0.9987398
vn -0.015871048 -0.047613025 0.9987398
vn -0.015871048 -0.015870988 0.99974805
vn -0.015871048 -0.047613025 0.9987398
vn -0.015871048 -0.047613025 0.9987398
vn -0.015871048 -0.047613025 0.9987398
vn -0.015871048 -0.015870988 0.99974805
vn -0.015871048 -0.047613025 0.9987398
vn -0.015871048 -0.047613025 0.9987398
vn -0.015871048 -0.047613025 0.9987398
vn -0.015871048 -0.015870988 0.99974805
vn -0.015871048 -0.047613025 0.9987398
vn -0.015871048 -0.047613025 0.9987398
vn -0.015871048 -0.047613025 0.9987398
vn -0.015871048 -0.015870988 0.99974805
vn -0.015871048 -0.015870988 0.99974805
vn -0.015871048 -0.047613025 0.9987398
vn -0.015871048 -0.047613025 0.9987398
vn -0.047613025 -0.047613025 0.99773043
vn -0.047613025 -0.015870988 0.9987398
vn -0.015871048 -0.047613025 0.9987398
vn -0.015871048 -0.047613025 0.9987398
vn -0.015871048 -0.047613025 0.9987398
vn -0.015871048 -0.015870988 0.99974805
vn -0.015871048 -0.047613025 0.9987398
vn -0.015871048 -0.047613025 0.9987398
vn -0.015871048 -0.047613025 0.9987398
vn -0.015871048 -0.015870988 0.99974805
vn -0.015871048 -0.047613025 0.9987398
vn 0.015870988 -0.047613025 0.9987398
vn 0.015870988 -0.047613025 0.9987398
vn 0.015870988 -0.015870988 0.99974805
vn 0.047613025 -0.015870988 0.9987398
vn 0.015870988 -0.047613025 0.9987398
vn 0.047613025 -0.015870988 0.9987398
vn 0.015870988 0.015871048 0.99974805
vn -0.015871048 0.015871048 0.99974805
vn -0.015871048 0.07935512 0.9967201
vn 0.047613025 0.047613025 0.99773043
vn -0.015871048 0.047613025 0.9987398
vn -0.047613025 0.07935512 0.9957087
vn -0.015871048 0.1110971 0.9936828
vn -0.015871048 0.1110971 0.9936828
vn -0.015871048 0.07935512 0.9967201
vn -0.015871048 0.1110971 0.9936828
vn -0.015871048 0.07935512 0.9967201
vn -0.015871048 0.07935512 0.9967201
vn -0.015871048 0.07935512 0.9967201
vn -0.015871048 0.07935512 0.9967201
vn -0.015871048 0.015871048 0.99974805
vn 0.015870988 0.1110971 0.9936828
vn -0.047613025 0.047613025 0.99773043
vn -0.015871048 0.047613025 0.9987398
vn 0.047613025 0.07935512 0.9957087
vn -0.015871048 0.015871048 0.99974805
vn 0.015870988 -0.015870988 0.99974805
vn -0.015871048 0.015871048 0.99974805
vn -0.015871048 0.015871048 0.99974805
vn 0.047613025 0.015871048 0.9987398
vn 0.015870988 -0.015870988 0.99974805
vn 0.015870988 -0.015870988 0.99974805
vn -0.015871048 -0.015870988 0.99974805
vn 0.015870988 -0.015870988 0.99974805
vn 0.047613025 -0.015870988 0.9987398
vn 0.015870988 -0.015870988 0.99974805
vn 0.015870988 -0.015870988 0.99974805
vn 0.015870988 -0.015870988 0.99974805
vn 0.015870988 -0.015870988 0.99974805
vn 0.015870988 -0.015870988 0.99974805
vn -0.015871048 -0.015870988 0.99974805
vn 0.015870988 0.015871048 0.99974805
vn 0.015870988 -0.015870988 0.99974805
vn 0.015870988 -0.015870988 0.99974805
vn -0.015871048 -0.015870988 0.99974805
vn -0.015871048 0.015871048 0.99974805
vn 0.015870988 0.047613025 0.9987398
vn -0.015871048 0.015871048 0.99974805
vn 0.015870988 0.015871048 0.99974805
vn -0.047613025 0.015871048 0.9987398
vn 0.015870988 0.015871048 0.99974805
vn 0.015870988 0.047613025 0.9987398
vn -0.015871048 0.047613025 0.9987398
vn 0.015870988 0.047613025 0.9987398
vn -0.07935512 0.047613025 0.9957087
vn 0.015870988 0.047613025 0.9987398
vn 0.015870988 0.047613025 0.9987398
vn 0.015870988 0.047613025 0.9987398
vn 0.015870988 0.047613025 0.9987398
vn -0.015871048 0.047613025 0.9987398
vn -0.015871048 0.047613025 0.9987398
vn -0.015871048 0.015871048 0.99974805
vn 0.015870988 0.015871048 0.99974805
vn 0.015870988 0.015871048 0.99974805
vn 0.07935506 0.047613025 0.9957087
vn -0.015871048 0.015871048 0.99974805
vn -0.015871048 0.015871048 0.99974805
vn -0.015871048 0.015871048 0.99974805
vn -0.015871048 0.015871048 0.99974805
vn -0.015871048 -0.015870988 0.99974805
vn 0.015870988 0.015871048 0.99974805
vn -0.015871048 0.015871048 0.99974805
vn -0.015871048 0.015871048 0.99974805
vn -0.015871048 -0.015870988 0.99974805
vn -0.015871048 -0.015870988 0.99974805
vn -0.015871048 -0.015870988 0.99974805
vn -0.015871048 -0.015870988 0.99974805
vn -0.015871048 0.015871048 0.99974805
vn -0.015871048 -0.015870988 0.99974805
vn 0.015870988 -0.047613025 0.9987398
vn -0.015871048 -0.015870988 0.99974805
vn 0.015870988 -0.015870988 0.99974805
vn -0.047613025 -0.047613025 0.99773043
vn -0.015871048 -0.047613025 0.9987398
vn 0.015870988 -0.047613025 0.9987398
vn 0.015870988 -0.015870988 0.99974805
vn 0.015870988 -0.047613025 0.9987398
vn 0.015870988 -0.047613025 0.9987398
vn 0.015870988 -0.015870988 0.99974805
vn 0.015870988 -0.015870988 0.99974805
vn 0.015870988 -0.047613025 0.9987398
vn 0.015870988 -0.015870988 0.99974805
vn 0.015870988 -0.047613025 0.9987398
vn 0.015870988 -0.047613025 0.9987398
vn 0.015870988 -0.047613025 0.9987398
vn 0.015870988 -0.047613025 0.9987398
vn 0.015870988 -0.047613025 0.9987398
vn 0.015870988 -0.047613025 0.9987398
vn 0.015870988 -0.047613025 0.9987398
vn 0.015870988 -0.07935506 0.9967201
vn 0.015870988 -0.047613025 0.9987398
vn 0.015870988 -0.07935506 0.9967201
vn -0.015871048 -0.07935506 0.9967201
vn 0.015870988 -0.07935506 0.9967201
vn 0.015870988 -0.07935506 0.9967201
vn 0.015870988 -0.07935506 0.9967201
vn 0.015870988 -0.07935506 0.9967201
vn -0.015871048 -0.015870988 0.99974805
vn 0.015870988 -0.07935506 0.9967201
vn -0.015871048 -0.015870988 0.99974805
vn -0.015871048 -0.015870988 0.99974805
vn -0.015871048 -0.015870988 0.99974805
vn -0.015871048 -0.015870988 0.99974805
vn -0.015871048 -0.015870988 0.99974805
vn -0.015871048 -0.015870988 0.99974805
vn -0.015871048 0.015871048 0.99974805
vn -0.015871048 -0.015870988 0.99974805
vn -0.015871048 0.015871048 0.99974805
vn -0.015871048 0.015871048 0.99974805
vn -0.015871048 0.015871048 0.99974805
vn -0.015871048 0.015871048 0.99974805
vn -0.015871048 0.015871048 0.99974805
vn -0.015871048 0.015871048 0.99974805
vn -0.015871048 0.015871048 0.99974805
vn -0.015871048 -0.015870988 0.99974805
vn -0.015871048 0.015871048 0.99974805
vn -0.015871048 0.015871048 0.99974805
vn -0.015871048 0.015871048 0.99974805
vn -0.015871048 -0.015870988 0.99974805
vn -0.015871048 0.015871048 0.99974805
vn -0.015871048 0.015871048 0.99974805
vn -0.015871048 0.015871048 0.99974805
vn -0.015871048 -0.015870988 0.99974805
vn -0.015871048 -0.015870988 0.99974805
vn -0.015871048 -0.015870988 0.99974805
vn -0.015871048 0.015871048 0.99974805
vn -0.015871048 0.015871048 0.99974805
vn -0.015871048 0.015871048 0.99974805
vn -0.015871048 0.015871048 0.99974805
vn 0.015870988 -0.015870988 0.99974805
vn -0.015871048 0.015871048 0.99974805
vn 0.015870988 -0.015870988 0.99974805
vn 0.015870988 -0.015870988 0.99974805
vn 0.015870988 -0.015870988 0.99974805
vn 0.015870988 -0.015870988 0.99974805
vn 0.015870988 -0.015870988 0.99974805
g tb_outline_06_mesh_0
f 3/3/3 2/2/2 1/1/1
f 4/4/4 3/3/3 1/1/1
f 7/7/7 6/6/6 5/5/5
f 8/8/8 7/7/7 5/5/5
f 9/9/9 7/7/7 8/8/8
f 10/10/10 9/9/9 8/8/8
f 13/13/13 12/12/12 11/11/11
f 14/14/14 13/13/13 11/11/11
f 15/15/15 13/13/13 14/14/14
f 16/16/16 15/15/15 14/14/14
f 17/17/17 15/15/15 16/16/16
f 18/18/18 17/17/17 16/16/16
f 19/19/19 17/17/17 18/18/18
f 20/20/20 19/19/19 18/18/18
f 21/21/21 19/19/19 20/20/20
f 22/22/22 21/21/21 20/20/20
f 23/23/23 21/21/21 22/22/22
f 24/24/24 23/23/23 22/22/22
f 25/25/25 23/23/23 24/24/24
f 26/26/26 25/25/25 24/24/24
f 27/27/27 25/25/25 26/26/26
f 28/28/28 27/27/27 26/26/26
f 29/29/29 27/27/27 28/28/28
f 30/30/30 29/29/29 28/28/28
f 31/31/31 29/29/29 30/30/30
f 32/32/32 31/31/31 30/30/30
f 33/33/33 31/31/31 32/32/32
f 34/34/34 33/33/33 32/32/32
f 35/35/35 33/33/33 34/34/34
f 36/36/36 35/35/35 34/34/34
f 37/37/37 35/35/35 36/36/36
f 38/38/38 37/37/37 36/36/36
f 41/41/41 40/40/40 39/39/39
f 42/42/42 41/41/41 39/39/39
f 43/43/43 41/41/41 42/42/42
f 44/44/44 43/43/43 42/42/42
f 45/45/45 43/43/43 44/44/44
f 46/46/46 45/45/45 44/44/44
f 47/47/47 45/45/45 46/46/46
f 48/48/48 47/47/47 46/46/46
f 49/49/49 47/47/47 48/48/48
f 50/50/50 49/49/49 48/48/48
f 51/51/51 49/49/49 50/50/50
f 52/52/52 51/51/51 50/50/50
f 53/53/53 51/51/51 52/52/52
f 54/54/54 53/53/53 52/52/52
f 55/55/55 53/53/53 54/54/54
f 56/56/56 55/55/55 54/54/54
f 57/57/57 55/55/55 56/56/56
f 58/58/58 57/57/57 56/56/56
f 59/59/59 57/57/57 58/58/58
f 60/60/60 59/59/59 58/58/58
f 61/61/61 59/59/59 60/60/60
f 62/62/62 61/61/61 60/60/60
f 63/63/63 61/61/61 62/62/62
f 64/64/64 63/63/63 62/62/62
f 65/65/65 63/63/63 64/64/64
f 66/66/66 65/65/65 64/64/64
f 67/67/67 65/65/65 66/66/66
f 68/68/68 67/67/67 66/66/66
f 69/69/69 67/67/67 68/68/68
f 70/70/70 69/69/69 68/68/68
f 71/71/71 69/69/69 70/70/70
f 72/72/72 71/71/71 70/70/70
f 73/73/73 71/71/71 72/72/72
f 74/74/74 73/73/73 72/72/72
f 75/75/75 73/73/73 74/74/74
f 76/76/76 75/75/75 74/74/74
f 77/77/77 75/75/75 76/76/76
f 78/78/78 77/77/77 76/76/76
f 81/81/81 80/80/80 79/79/79
f 82/82/82 81/81/81 79/79/79
f 83/83/83 81/81/81 82/82/82
f 84/84/84 83/83/83 82/82/82
f 85/85/85 83/83/83 84/84/84
f 86/86/86 85/85/85 84/84/84
f 87/87/87 85/85/85 86/86/86
f 88/88/88 87/87/87 86/86/86
f 89/89/89 87/87/87 88/88/88
f 90/90/90 89/89/89 88/88/88
f 91/91/91 89/89/89 90/90/90
f 92/92/92 91/91/91 90/90/90
f 93/93/93 91/91/91 92/92/92
f 94/94/94 93/93/93 92/92/92
f 95/95/95 93/93/93 94/94/94
f 96/96/96 95/95/95 94/94/94
f 97/97/97 95/95/95 96/96/96
f 98/98/98 97/97/97 96/96/96
f 99/99/99 97/97/97 98/98/98
f 100/100/100 99/99/99 98/98/98
f 101/101/101 99/99/99 100/100/100
f 102/102/102 101/101/101 100/100/100
f 103/103/103 101/101/101 102/102/102
f 104/104/104 103/103/103 102/102/102
f 105/105/105 103/103/103 104/104/104
f 106/106/106 105/105/105 104/104/104
f 107/107/107 105/105/105 106/106/106
f 108/108/108 107/107/107 106/106/106
f 109/109/109 107/107/107 108/108/108
f 110/110/110 109/109/109 108/108/108
f 113/113/113 112/112/112 111/111/111
f 114/114/114 113/113/113 111/111/111
f 115/115/115 113/113/113 114/114/114
f 116/116/116 115/115/115 114/114/114
f 117/117/117 115/115/115 116/116/116
f 118/118/118 117/117/117 116/116/116
f 121/121/121 120/120/120 119/119/119
f 122/122/122 121/121/121 119/119/119
f 123/123/123 121/121/121 122/122/122
f 124/124/124 123/123/123 122/122/122
f 125/125/125 123/123/123 124/124/124
f 126/126/126 125/125/125 124/124/124
f 127/127/127 125/125/125 126/126/126
f 128/128/128 127/127/127 126/126/126
f 129/129/129 127/127/127 128/128/128
f 130/130/130 129/129/129 128/128/128
f 131/131/131 129/129/129 130/130/130
f 132/132/132 131/131/131 130/130/130
f 133/133/133 131/131/131 132/132/132
f 134/134/134 133/133/133 132/132/132
f 135/135/135 133/133/133 134/134/134
f 136/136/136 135/135/135 134/134/134
f 137/137/137 135/135/135 136/136/136
f 138/138/138 137/137/137 136/136/136
f 141/141/141 140/140/140 139/139/139
f 142/142/142 141/141/141 139/139/139
f 143/143/143 141/141/141 142/142/142
f 144/144/144 143/143/143 142/142/142
f 145/145/145 143/143/143 144/144/144
f 146/146/146 145/145/145 144/144/144
f 149/149/149 148/148/148 147/147/147
f 150/150/150 149/149/149 147/147/147
f 151/151/151 149/149/149 150/150/150
f 152/152/152 151/151/151 150/150/150
f 153/153/153 151/151/151 152/152/152
f 154/154/154 153/153/153 152/152/152
f 155/155/155 153/153/153 154/154/154
f 156/156/156 155/155/155 154/154/154
f 157/157/157 155/155/155 156/156/156
f 158/158/158 157/157/157 156/156/156
f 161/161/161 160/160/160 159/159/159
f 162/162/162 161/161/161 159/159/159
f 163/163/163 161/161/161 162/162/162
f 164/164/164 163/163/163 162/162/162
f 165/165/165 163/163/163 164/164/164
f 166/166/166 165/165/165 164/164/164
f 167/167/167 165/165/165 166/166/166
f 168/168/168 167/167/167 166/166/166
f 169/169/169 167/167/167 168/168/168
f 170/170/170 169/169/169 168/168/168
f 173/173/173 172/172/172 171/171/171
f 174/174/174 173/173/173 171/171/171
f 175/175/175 173/173/173 174/174/174
f 176/176/176 175/175/175 174/174/174
f 177/177/177 175/175/175 176/176/176
f 178/178/178 177/177/177 176/176/176
f 181/181/181 180/180/180 179/179/179
f 182/182/182 181/181/181 179/179/179
f 183/183/183 181/181/181 182/182/182
f 184/184/184 183/183/183 182/182/182
f 185/185/185 183/183/183 184/184/184
f 186/186/186 185/185/185 184/184/184
f 187/187/187 185/185/185 186/186/186
f 188/188/188 187/187/187 186/186/186
f 189/189/189 187/187/187 188/188/188
f 190/190/190 189/189/189 188/188/188
f 191/191/191 189/189/189 190/190/190
f 192/192/192 191/191/191 190/190/190
f 193/193/193 191/191/191 192/192/192
f 194/194/194 193/193/193 192/192/192
f 195/195/195 193/193/193 194/194/194
f 196/196/196 195/195/195 194/194/194
f 197/197/197 195/195/195 196/196/196
f 198/198/198 197/197/197 196/196/196
f 201/201/201 200/200/200 199/199/199
f 202/202/202 201/201/201 199/199/199
f 203/203/203 201/201/201 202/202/202
f 204/204/204 203/203/203 202/202/202
f 207/207/207 206/206/206 205/205/205
f 208/208/208 207/207/207 205/205/205
f 209/209/209 207/207/207 208/208/208
f 210/210/210 209/209/209 208/208/208
f 211/211/211 209/209/209 210/210/210
f 212/212/212 211/211/211 210/210/210
f 213/213/213 211/211/211 212/212/212
f 214/214/214 213/213/213 212/212/212
f 215/215/215 213/213/213 214/214/214
f 216/216/216 215/215/215 214/214/214
f 217/217/217 215/215/215 216/216/216
f 218/218/218 217/217/217 216/216/216
f 219/219/219 217/217/217 218/218/218
f 220/220/220 219/219/219 218/218/218
f 221/221/221 219/219/219 220/220/220
f 222/222/222 221/221/221 220/220/220
f 223/223/223 221/221/221 222/222/222
f 224/224/224 223/223/223 222/222/222
f 225/225/225 223/223/223 224/224/224
f 226/226/226 225/225/225 224/224/224
f 227/227/227 225/225/225 226/226/226
f 228/228/228 227/227/227 226/226/226
f 229/229/229 227/227/227 228/228/228
f 230/230/230 229/229/229 228/228/228
f 231/231/231 229/229/229 230/230/230
f 232/232/232 231/231/231 230/230/230
f 233/233/233 231/231/231 232/232/232
f 234/234/234 233/233/233 232/232/232
f 237/237/237 236/236/236 235/235/235
f 238/238/238 237/237/237 235/235/235
f 239/239/239 237/237/237 238/238/238
f 240/240/240 239/239/239 238/238/238
f 241/241/241 239/239/239 240/240/240
f 242/242/242 241/241/241 240/240/240
f 243/243/243 241/241/241 242/242/242
f 244/244/244 243/243/243 242/242/242
f 245/245/245 243/243/243 244/244/244
f 246/246/246 245/245/245 244/244/244
f 247/247/247 245/245/245 246/246/246
f 248/248/248 247/247/247 246/246/246
f 249/249/249 247/247/247 248/248/248
f 250/250/250 249/249/249 248/248/248
f 251/251/251 249/249/249 250/250/250
f 252/252/252 251/251/251 250/250/250
f 253/253/253 251/251/251 252/252/252
f 254/254/254 253/253/253 252/252/252
f 255/255/255 253/253/253 254/254/254
f 256/256/256 255/255/255 254/254/254
f 257/257/257 255/255/255 256/256/256
f 258/258/258 257/257/257 256/256/256
f 259/259/259 257/257/257 258/258/258
f 260/260/260 259/259/259 258/258/258
f 261/261/261 259/259/259 260/260/260
f 262/262/262 261/261/261 260/260/260
f 263/263/263 261/261/261 262/262/262
f 264/264/264 263/263/263 262/262/262
f 265/265/265 263/263/263 264/264/264
f 266/266/266 265/265/265 264/264/264
f 267/267/267 265/265/265 266/266/266
f 268/268/268 267/267/267 266/266/266
f 269/269/269 267/267/267 268/268/268
f 270/270/270 269/269/269 268/268/268
f 271/271/271 269/269/269 270/270/270
f 272/272/272 271/271/271 270/270/270
f 275/275/275 274/274/274 273/273/273
f 276/276/276 275/275/275 273/273/273
f 277/277/277 275/275/275 276/276/276
f 278/278/278 277/277/277 276/276/276
f 279/279/279 277/277/277 278/278/278
f 280/280/280 279/279/279 278/278/278
f 281/281/281 279/279/279 280/280/280
f 282/282/282 281/281/281 280/280/280
f 283/283/283 281/281/281 282/282/282
f 284/284/284 283/283/283 282/282/282
f 285/285/285 283/283/283 284/284/284
f 286/286/286 285/285/285 284/284/284
f 287/287/287 285/285/285 286/286/286
f 288/288/288 287/287/287 286/286/286
f 289/289/289 287/287/287 288/288/288
f 290/290/290 289/289/289 288/288/288
f 291/291/291 289/289/289 290/290/290
f 292/292/292 291/291/291 290/290/290
f 293/293/293 291/291/291 292/292/292
f 294/294/294 293/293/293 292/292/292
f 295/295/295 293/293/293 294/294/294
f 296/296/296 295/295/295 294/294/294
f 297/297/297 295/295/295 296/296/296
f 298/298/298 297/297/297 296/296/296
f 299/299/299 297/297/297 298/298/298
f 300/300/300 299/299/299 298/298/298
f 303/303/303 302/302/302 301/301/301
f 304/304/304 303/303/303 301/301/301
f 305/305/305 303/303/303 304/304/304
f 306/306/306 305/305/305 304/304/304
f 309/309/309 308/308/308 307/307/307
f 310/310/310 309/309/309 307/307/307
f 313/313/313 312/312/312 311/311/311
f 311/311/311 314/314/314 313/313/313
f 315/315/315 314/314/314 311/311/311
f 316/316/316 314/314/314 315/315/315
f 311/311/311 317/317/317 315/315/315
f 315/315/315 317/317/317 318/318/318
f 318/318/318 316/316/316 315/315/315
f 312/312/312 319/319/319 311/311/311
f 320/320/320 316/316/316 318/318/318
f 318/318/318 321/321/321 320/320/320
f 319/319/319 312/312/312 322/322/322
f 322/322/322 323/323/323 319/319/319
f 316/316/316 320/320/320 324/324/324
f 324/324/324 325/325/325 316/316/316
f 326/326/326 325/325/325 324/324/324
f 327/327/327 320/320/320 321/321/321
f 324/324/324 320/320/320 327/327/327
f 321/321/321 328/328/328 327/327/327
f 327/327/327 328/328/328 329/329/329
f 324/324/324 330/330/330 326/326/326
f 327/327/327 330/330/330 324/324/324
f 331/331/331 326/326/326 330/330/330
f 329/329/329 332/332/332 327/327/327
f 330/330/330 327/327/327 332/332/332
f 332/332/332 329/329/329 333/333/333
f 330/330/330 334/334/334 331/331/331
f 332/332/332 334/334/334 330/330/330
f 335/335/335 331/331/331 334/334/334
f 333/333/333 336/336/336 332/332/332
f 334/334/334 332/332/332 336/336/336
f 336/336/336 333/333/333 337/337/337
f 334/334/334 338/338/338 335/335/335
f 336/336/336 338/338/338 334/334/334
f 339/339/339 335/335/335 338/338/338
f 338/338/338 340/340/340 339/339/339
f 340/340/340 338/338/338 336/336/336
f 341/341/341 339/339/339 340/340/340
f 337/337/337 342/342/342 336/336/336
f 336/336/336 342/342/342 340/340/340
f 342/342/342 337/337/337 343/343/343
f 340/340/340 344/344/344 341/341/341
f 344/344/344 340/340/340 342/342/342
f 345/345/345 341/341/341 344/344/344
f 343/343/343 346/346/346 342/342/342
f 342/342/342 346/346/346 344/344/344
f 346/346/346 343/343/343 347/347/347
f 344/344/344 348/348/348 345/345/345
f 348/348/348 344/344/344 346/346/346
f 349/349/349 345/345/345 348/348/348
f 347/347/347 350/350/350 346/346/346
f 346/346/346 350/350/350 348/348/348
f 350/350/350 347/347/347 351/351/351
f 348/348/348 352/352/352 349/349/349
f 352/352/352 348/348/348 350/350/350
f 353/353/353 349/349/349 352/352/352
f 351/351/351 354/354/354 350/350/350
f 350/350/350 354/354/354 352/352/352
f 354/354/354 351/351/351 355/355/355
f 352/352/352 356/356/356 353/353/353
f 356/356/356 352/352/352 354/354/354
f 357/357/357 353/353/353 356/356/356
f 355/355/355 358/358/358 354/354/354
f 354/354/354 358/358/358 356/356/356
f 358/358/358 355/355/355 359/359/359
f 356/356/356 360/360/360 357/357/357
f 360/360/360 356/356/356 358/358/358
f 359/359/359 361/361/361 358/358/358
f 358/358/358 361/361/361 360/360/360
f 357/357/357 360/360/360 362/362/362
f 362/362/362 360/360/360 361/361/361
f 362/362/362 363/363/363 357/357/357
f 364/364/364 361/361/361 359/359/359
f 361/361/361 364/364/364 362/362/362
f 359/359/359 365/365/365 364/364/364
f 364/364/364 365/365/365 366/366/366
f 363/363/363 362/362/362 367/367/367
f 367/367/367 362/362/362 364/364/364
f 367/367/367 368/368/368 363/363/363
f 369/369/369 368/368/368 367/367/367
f 366/366/366 370/370/370 364/364/364
f 364/364/364 370/370/370 367/367/367
f 367/367/367 370/370/370 369/369/369
f 370/370/370 366/366/366 371/371/371
f 371/371/371 369/369/369 370/370/370
f 372/372/372 369/369/369 371/371/371
f 371/371/371 373/373/373 372/372/372
f 369/369/369 372/372/372 374/374/374
f 374/374/374 375/375/375 369/369/369
f 376/376/376 372/372/372 373/373/373
f 374/374/374 372/372/372 376/376/376
f 373/373/373 377/377/377 376/376/376
f 375/375/375 374/374/374 378/378/378
f 376/376/376 378/378/378 374/374/374
f 378/378/378 379/379/379 375/375/375
f 380/380/380 376/376/376 377/377/377
f 378/378/378 376/376/376 380/380/380
f 377/377/377 381/381/381 380/380/380
f 380/380/380 381/381/381 382/382/382
f 379/379/379 378/378/378 383/383/383
f 380/380/380 383/383/383 378/378/378
f 383/383/383 384/384/384 379/379/379
f 382/382/382 385/385/385 380/380/380
f 383/383/383 380/380/380 385/385/385
f 385/385/385 382/382/382 386/386/386
f 384/384/384 383/383/383 387/387/387
f 385/385/385 387/387/387 383/383/383
f 387/387/387 388/388/388 384/384/384
f 386/386/386 389/389/389 385/385/385
f 387/387/387 385/385/385 389/389/389
f 389/389/389 386/386/386 390/390/390
f 388/388/388 387/387/387 391/391/391
f 389/389/389 391/391/391 387/387/387
f 391/391/391 392/392/392 388/388/388
f 393/393/393 392/392/392 391/391/391
f 390/390/390 394/394/394 389/389/389
f 391/391/391 389/389/389 394/394/394
f 391/391/391 395/395/395 393/393/393
f 394/394/394 395/395/395 391/391/391
f 396/396/396 394/394/394 390/390/390
f 395/395/395 394/394/394 396/396/396
f 390/390/390 397/397/397 396/396/396
f 393/393/393 395/395/395 398/398/398
f 396/396/396 398/398/398 395/395/395
f 398/398/398 399/399/399 393/393/393
f 400/400/400 396/396/396 397/397/397
f 398/398/398 396/396/396 400/400/400
f 397/397/397 401/401/401 400/400/400
f 399/399/399 398/398/398 402/402/402
f 400/400/400 402/402/402 398/398/398
f 402/402/402 403/403/403 399/399/399
f 404/404/404 400/400/400 401/401/401
f 402/402/402 400/400/400 404/404/404
f 401/401/401 405/405/405 404/404/404
f 403/403/403 402/402/402 406/406/406
f 404/404/404 406/406/406 402/402/402
f 406/406/406 407/407/407 403/403/403
f 408/408/408 404/404/404 405/405/405
f 404/404/404 408/408/408 406/406/406
f 405/405/405 409/409/409 408/408/408
f 407/407/407 406/406/406 410/410/410
f 410/410/410 406/406/406 408/408/408
f 410/410/410 411/411/411 407/407/407
f 412/412/412 408/408/408 409/409/409
f 408/408/408 412/412/412 410/410/410
f 409/409/409 413/413/413 412/412/412
f 411/411/411 410/410/410 414/414/414
f 414/414/414 410/410/410 412/412/412
f 414/414/414 415/415/415 411/411/411
f 416/416/416 412/412/412 413/413/413
f 412/412/412 416/416/416 414/414/414
f 413/413/413 417/417/417 416/416/416
f 415/415/415 414/414/414 418/418/418
f 418/418/418 414/414/414 416/416/416
f 418/418/418 419/419/419 415/415/415
f 420/420/420 416/416/416 417/417/417
f 416/416/416 420/420/420 418/418/418
f 417/417/417 421/421/421 420/420/420
f 420/420/420 421/421/421 422/422/422
f 419/419/419 418/418/418 423/423/423
f 423/423/423 418/418/418 420/420/420
f 423/423/423 424/424/424 419/419/419
f 422/422/422 425/425/425 420/420/420
f 420/420/420 425/425/425 423/423/423
f 425/425/425 422/422/422 426/426/426
f 424/424/424 423/423/423 427/427/427
f 427/427/427 423/423/423 425/425/425
f 427/427/427 428/428/428 424/424/424
f 426/426/426 429/429/429 425/425/425
f 425/425/425 429/429/429 427/427/427
f 429/429/429 426/426/426 430/430/430
f 428/428/428 427/427/427 431/431/431
f 431/431/431 427/427/427 429/429/429
f 431/431/431 432/432/432 428/428/428
f 430/430/430 433/433/433 429/429/429
f 429/429/429 433/433/433 431/431/431
f 433/433/433 430/430/430 434/434/434
f 432/432/432 431/431/431 435/435/435
f 435/435/435 431/431/431 433/433/433
f 435/435/435 436/436/436 432/432/432
f 434/434/434 437/437/437 433/433/433
f 433/433/433 437/437/437 435/435/435
f 437/437/437 434/434/434 438/438/438
f 436/436/436 435/435/435 439/439/439
f 439/439/439 435/435/435 437/437/437
f 439/439/439 440/440/440 436/436/436
f 441/441/441 440/440/440 439/439/439
f 438/438/438 442/442/442 437/437/437
f 437/437/437 442/442/442 439/439/439
f 439/439/439 442/442/442 441/441/441
f 442/442/442 438/438/438 443/443/443
f 443/443/443 441/441/441 442/442/442
f 444/444/444 441/441/441 443/443/443
f 443/443/443 445/445/445 444/444/444
f 444/444/444 445/445/445 446/446/446
f 441/441/441 444/444/444 447/447/447
f 447/447/447 448/448/448 441/441/441
f 446/446/446 449/449/449 444/444/444
f 447/447/447 444/444/444 449/449/449
f 449/449/449 446/446/446 450/450/450
f 448/448/448 447/447/447 451/451/451
f 449/449/449 451/451/451 447/447/447
f 451/451/451 452/452/452 448/448/448
f 450/450/450 453/453/453 449/449/449
f 451/451/451 449/449/449 453/453/453
f 453/453/453 450/450/450 454/454/454
f 452/452/452 451/451/451 455/455/455
f 455/455/455 456/456/456 452/452/452
f 454/454/454 457/457/457 453/453/453
f 457/457/457 454/454/454 458/458/458
f 453/453/453 459/459/459 451/451/451
f 455/455/455 451/451/451 459/459/459
f 459/459/459 453/453/453 457/457/457
f 456/456/456 455/455/455 460/460/460
f 460/460/460 461/461/461 456/456/456
f 455/455/455 459/459/459 462/462/462
f 457/457/457 462/462/462 459/459/459
f 460/460/460 455/455/455 462/462/462
f 458/458/458 463/463/463 457/457/457
f 462/462/462 457/457/457 463/463/463
f 463/463/463 458/458/458 464/464/464
f 461/461/461 460/460/460 465/465/465
f 465/465/465 466/466/466 461/461/461
f 460/460/460 462/462/462 467/467/467
f 463/463/463 467/467/467 462/462/462
f 465/465/465 460/460/460 467/467/467
f 464/464/464 468/468/468 463/463/463
f 467/467/467 463/463/463 468/468/468
f 468/468/468 464/464/464 469/469/469
f 466/466/466 465/465/465 470/470/470
f 470/470/470 471/471/471 466/466/466
f 465/465/465 467/467/467 472/472/472
f 468/468/468 472/472/472 467/467/467
f 470/470/470 465/465/465 472/472/472
f 469/469/469 473/473/473 468/468/468
f 472/472/472 468/468/468 473/473/473
f 473/473/473 469/469/469 474/474/474
f 471/471/471 470/470/470 475/475/475
f 475/475/475 476/476/476 471/471/471
f 470/470/470 472/472/472 477/477/477
f 473/473/473 477/477/477 472/472/472
f 475/475/475 470/470/470 477/477/477
f 474/474/474 478/478/478 473/473/473
f 477/477/477 473/473/473 478/478/478
f 478/478/478 474/474/474 479/479/479
f 476/476/476 475/475/475 480/480/480
f 480/480/480 481/481/481 476/476/476
f 475/475/475 477/477/477 482/482/482
f 478/478/478 482/482/482 477/477/477
f 482/482/482 480/480/480 475/475/475
f 479/479/479 483/483/483 478/478/478
f 482/482/482 478/478/478 483/483/483
f 483/483/483 479/479/479 484/484/484
f 481/481/481 480/480/480 485/485/485
f 485/485/485 486/486/486 481/481/481
f 482/482/482 487/487/487 480/480/480
f 483/483/483 487/487/487 482/482/482
f 487/487/487 485/485/485 480/480/480
f 484/484/484 488/488/488 483/483/483
f 487/487/487 483/483/483 488/488/488
f 488/488/488 484/484/484 489/489/489
f 486/486/486 485/485/485 490/490/490
f 490/490/490 491/491/491 486/486/486
f 487/487/487 492/492/492 485/485/485
f 488/488/488 492/492/492 487/487/487
f 492/492/492 490/490/490 485/485/485
f 489/489/489 493/493/493 488/488/488
f 492/492/492 488/488/488 493/493/493
f 493/493/493 489/489/489 494/494/494
f 491/491/491 490/490/490 495/495/495
f 495/495/495 496/496/496 491/491/491
f 492/492/492 497/497/497 490/490/490
f 493/493/493 497/497/497 492/492/492
f 497/497/497 495/495/495 490/490/490
f 494/494/494 498/498/498 493/493/493
f 497/497/497 493/493/493 498/498/498
f 498/498/498 494/494/494 499/499/499
f 496/496/496 495/495/495 500/500/500
f 500/500/500 501/501/501 496/496/496
f 497/497/497 502/502/502 495/495/495
f 498/498/498 502/502/502 497/497/497
f 502/502/502 500/500/500 495/495/495
f 499/499/499 503/503/503 498/498/498
f 502/502/502 498/498/498 503/503/503
f 503/503/503 499/499/499 504/504/504
f 501/501/501 500/500/500 505/505/505
f 505/505/505 506/506/506 501/501/501
f 507/507/507 506/506/506 505/505/505
f 502/502/502 508/508/508 500/500/500
f 503/503/503 508/508/508 502/502/502
f 508/508/508 505/505/505 500/500/500
f 504/504/504 509/509/509 503/503/503
f 508/508/508 503/503/503 509/509/509
f 508/508/508 510/510/510 505/505/505
f 509/509/509 510/510/510 508/508/508
f 510/510/510 511/511/511 505/505/505
f 505/505/505 511/511/511 507/507/507
f 511/511/511 510/510/510 509/509/509
f 512/512/512 509/509/509 504/504/504
f 509/509/509 512/512/512 511/511/511
f 504/504/504 513/513/513 512/512/512
f 512/512/512 513/513/513 514/514/514
f 507/507/507 511/511/511 515/515/515
f 515/515/515 516/516/516 507/507/507
f 517/517/517 516/516/516 515/515/515
f 512/512/512 518/518/518 511/511/511
f 514/514/514 518/518/518 512/512/512
f 515/515/515 511/511/511 518/518/518
f 519/519/519 518/518/518 514/514/514
f 518/518/518 519/519/519 515/515/515
f 515/515/515 519/519/519 517/517/517
f 514/514/514 520/520/520 519/519/519
f 519/519/519 520/520/520 521/521/521
f 521/521/521 517/517/517 519/519/519
f 522/522/522 517/517/517 521/521/521
f 521/521/521 523/523/523 522/522/522
f 517/517/517 522/522/522 524/524/524
f 524/524/524 525/525/525 517/517/517
f 526/526/526 522/522/522 523/523/523
f 524/524/524 522/522/522 526/526/526
f 523/523/523 527/527/527 526/526/526
f 525/525/525 524/524/524 528/528/528
f 526/526/526 528/528/528 524/524/524
f 528/528/528 529/529/529 525/525/525
f 530/530/530 526/526/526 527/527/527
f 528/528/528 526/526/526 530/530/530
f 527/527/527 531/531/531 530/530/530
f 529/529/529 528/528/528 532/532/532
f 530/530/530 532/532/532 528/528/528
f 532/532/532 533/533/533 529/529/529
f 534/534/534 533/533/533 532/532/532
f 535/535/535 530/530/530 531/531/531
f 532/532/532 530/530/530 535/535/535
f 531/531/531 536/536/536 535/535/535
f 535/535/535 536/536/536 537/537/537
f 532/532/532 538/538/538 534/534/534
f 535/535/535 538/538/538 532/532/532
f 537/537/537 539/539/539 535/535/535
f 538/538/538 535/535/535 539/539/539
f 539/539/539 537/537/537 540/540/540
f 534/534/534 538/538/538 541/541/541
f 539/539/539 541/541/541 538/538/538
f 541/541/541 542/542/542 534/534/534
f 543/543/543 542/542/542 541/541/541
f 540/540/540 544/544/544 539/539/539
f 541/541/541 539/539/539 544/544/544
f 544/544/544 540/540/540 545/545/545
f 541/541/541 546/546/546 543/543/543
f 544/544/544 546/546/546 541/541/541
f 547/547/547 543/543/543 546/546/546
f 546/546/546 548/548/548 547/547/547
f 548/548/548 546/546/546 544/544/544
f 549/549/549 547/547/547 548/548/548
f 545/545/545 550/550/550 544/544/544
f 544/544/544 550/550/550 548/548/548
f 550/550/550 545/545/545 551/551/551
f 548/548/548 552/552/552 549/549/549
f 552/552/552 548/548/548 550/550/550
f 553/553/553 549/549/549 552/552/552
f 551/551/551 554/554/554 550/550/550
f 550/550/550 554/554/554 552/552/552
f 552/552/552 555/555/555 553/553/553
f 555/555/555 552/552/552 554/554/554
f 556/556/556 554/554/554 551/551/551
f 554/554/554 556/556/556 555/555/555
f 551/551/551 557/557/557 556/556/556
f 556/556/556 557/557/557 558/558/558
f 558/558/558 559/559/559 556/556/556
f 555/555/555 556/556/556 559/559/559
f 559/559/559 558/558/558 560/560/560
f 553/553/553 555/555/555 561/561/561
f 559/559/559 561/561/561 555/555/555
f 561/561/561 562/562/562 553/553/553
f 560/560/560 563/563/563 559/559/559
f 561/561/561 559/559/559 563/563/563
f 563/563/563 560/560/560 564/564/564
f 562/562/562 561/561/561 565/565/565
f 563/563/563 565/565/565 561/561/561
f 565/565/565 566/566/566 562/562/562
f 564/564/564 567/567/567 563/563/563
f 565/565/565 563/563/563 567/567/567
f 566/566/566 565/565/565 568/568/568
f 567/567/567 568/568/568 565/565/565
f 568/568/568 569/569/569 566/566/566
f 570/570/570 569/569/569 568/568/568
f 568/568/568 571/571/571 570/570/570
f 571/571/571 568/568/568 567/567/567
f 572/572/572 570/570/570 571/571/571
f 573/573/573 567/567/567 564/564/564
f 567/567/567 573/573/573 571/571/571
f 564/564/564 574/574/574 573/573/573
f 573/573/573 574/574/574 575/575/575
f 571/571/571 576/576/576 572/572/572
f 576/576/576 571/571/571 573/573/573
f 577/577/577 572/572/572 576/576/576
f 575/575/575 578/578/578 573/573/573
f 573/573/573 578/578/578 576/576/576
f 578/578/578 575/575/575 579/579/579
f 576/576/576 580/580/580 577/577/577
f 580/580/580 576/576/576 578/578/578
f 581/581/581 577/577/577 580/580/580
f 579/579/579 582/582/582 578/578/578
f 578/578/578 582/582/582 580/580/580
f 582/582/582 579/579/579 323/323/323
f 323/323/323 322/322/322 582/582/582
f 580/580/580 583/583/583 581/581/581
f 583/583/583 580/580/580 582/582/582
f 582/582/582 322/322/322 583/583/583
f 312/312/312 581/581/581 583/583/583
f 583/583/583 322/322/322 312/312/312
