g tb_outline_04_mesh
v -0.3585629 -0.12592295 0.04922816
v -0.3585629 -0.12592295 0.056352973
v -0.33065742 -0.12592295 0.05872789
v -0.33065742 -0.12592295 0.05160311
v -0.30334574 -0.12651668 0.060509086
v -0.30334574 -0.12592295 0.053384304
v -0.27544034 -0.12651668 0.061102837
v -0.27544034 -0.12651668 0.053978026
v -0.24812862 -0.12651668 0.059915364
v -0.24812862 -0.12651668 0.052790582
v -0.22022319 -0.12651668 0.05813417
v -0.22022319 -0.12651668 0.051009387
v -0.19291148 -0.12651668 0.057540447
v -0.19291148 -0.12651668 0.050415635
v -0.16500604 -0.12651668 0.057540447
v -0.16500604 -0.12651668 0.050415635
v -0.13769433 -0.12651668 0.056946695
v -0.13769433 -0.12651668 0.049821913
v -0.109788895 -0.12651668 0.056352973
v -0.109788895 -0.12651668 0.04922816
v -0.08188346 -0.12651668 0.056352973
v -0.08188346 -0.12651668 0.04922816
v -0.054571778 -0.12711042 0.056352973
v -0.054571778 -0.12651668 0.04922816
v -0.026666343 -0.12711042 0.057540447
v -0.026666343 -0.12711042 0.050415635
v -0.026666343 -0.12711042 0.050415635
v -0.026666343 -0.12711042 0.057540447
v -0.007666886 -0.11761069 0.056946695
v -0.007666886 -0.11761069 0.049821913
v 0.011332557 -0.10811098 0.0551655
v 0.011332557 -0.10811098 0.048040718
v 0.030331999 -0.09861125 0.05219683
v 0.030331999 -0.09861125 0.04507205
v 0.030331999 -0.09861125 0.04507205
v 0.030331999 -0.09861125 0.05219683
v 0.057643697 -0.09861125 0.051009387
v 0.057643697 -0.09861125 0.043884575
v 0.084955394 -0.09861125 0.050415635
v 0.084955394 -0.09861125 0.043290854
v 0.11226711 -0.09861125 0.050415635
v 0.11226711 -0.09861125 0.043290854
v 0.1395788 -0.09861125 0.051009387
v 0.1395788 -0.09861125 0.043884575
v 0.1668905 -0.09861125 0.052790582
v 0.1668905 -0.09861125 0.04566577
v 0.19420221 -0.09861125 0.05575922
v 0.19420221 -0.09861125 0.04863444
v 0.22151391 -0.09861125 0.05813417
v 0.22151391 -0.09861125 0.051009387
v 0.24882561 -0.09861125 0.05813417
v 0.24882561 -0.09861125 0.051009387
v 0.24882561 -0.09861125 0.051009387
v 0.24882561 -0.09861125 0.05813417
v 0.24763815 -0.07011208 0.056352973
v 0.24763815 -0.07011208 0.04922816
v 0.24645068 -0.041019186 0.053384304
v 0.24645068 -0.041019186 0.046259522
v 0.24645068 -0.041019186 0.046259522
v 0.24645068 -0.041019186 0.053384304
v 0.23279482 -0.018457338 0.050415635
v 0.23279482 -0.018457338 0.043290854
v 0.21913898 0.0035107732 0.047446966
v 0.21913898 0.004104495 0.040322185
v 0.20548312 0.026072592 0.046853244
v 0.20548312 0.026072592 0.040322185
v 0.20548312 0.026072592 0.040322185
v 0.20548312 0.026072592 0.046853244
v 0.20548312 0.052790582 0.046853244
v 0.20548312 0.052790582 0.040322185
v 0.20488939 0.07950854 0.05219683
v 0.20488939 0.07950854 0.04507205
v 0.20488939 0.10563278 0.059915364
v 0.20488939 0.10563278 0.053384304
v 0.20488939 0.13235074 0.06822762
v 0.20488939 0.13235074 0.061102837
v 0.20488939 0.1590687 0.067040145
v 0.20488939 0.1590687 0.059915364
v 0.20488939 0.18519294 0.0658527
v 0.20488939 0.18519294 0.05872789
v 0.20429567 0.21191093 0.070008814
v 0.20429567 0.21191093 0.06288403
v 0.20429567 0.2386289 0.07594615
v 0.20429567 0.2386289 0.06882134
v 0.20429567 0.2386289 0.06882134
v 0.20429567 0.2386289 0.07594615
v 0.17639023 0.23803514 0.07297748
v 0.17639023 0.2386289 0.06644642
v 0.14789106 0.23803514 0.07179001
v 0.14789106 0.23803514 0.06466523
v 0.119985625 0.23803514 0.073571205
v 0.119985625 0.23803514 0.06644642
v 0.091486454 0.23803514 0.07179001
v 0.091486454 0.23803514 0.06466523
v 0.06358102 0.23803514 0.067040145
v 0.06358102 0.23803514 0.059915364
v 0.035081863 0.23803514 0.06229028
v 0.035081863 0.23803514 0.0551655
v 0.007176429 0.23744142 0.05813417
v 0.007176429 0.23744142 0.051009387
v -0.020729005 0.23744142 0.054571778
v -0.020729005 0.23744142 0.047446966
v -0.04922816 0.23744142 0.05219683
v -0.04922816 0.23744142 0.04507205
v -0.077133596 0.23744142 0.053384304
v -0.077133596 0.23744142 0.046853244
v -0.10563278 0.23744142 0.05813417
v -0.10563278 0.23744142 0.05160311
v -0.13353822 0.2368477 0.06466523
v -0.13353822 0.23744142 0.057540447
v -0.16203737 0.2368477 0.07119629
v -0.16203737 0.2368477 0.064071506
v -0.1899428 0.2368477 0.07832107
v -0.1899428 0.2368477 0.07119629
v -0.218442 0.2368477 0.08544588
v -0.218442 0.2368477 0.07832107
v -0.24634743 0.2368477 0.09197694
v -0.24634743 0.2368477 0.08544588
v -0.27484655 0.2368477 0.09910172
v -0.27484655 0.2368477 0.09257066
v -0.27484655 0.2368477 0.09257066
v -0.27484655 0.2368477 0.09910172
v -0.27484655 0.20894226 0.086633325
v -0.27484655 0.20894226 0.07950854
v -0.27484655 0.18163055 0.07179001
v -0.27484655 0.18163055 0.06466523
v -0.27484655 0.15372512 0.059321642
v -0.27484655 0.15372512 0.05219683
v -0.27544034 0.12641343 0.049821913
v -0.27544034 0.12641343 0.04269713
v -0.27544034 0.098508 0.04269713
v -0.27544034 0.098508 0.03557232
v -0.27544034 0.07119629 0.043884575
v -0.27544034 0.07119629 0.036759794
v -0.27544034 0.043290854 0.04863444
v -0.27544034 0.043884575 0.041509658
v -0.27544034 0.015979141 0.04922816
v -0.27544034 0.015979141 0.04210338
v -0.27544034 -0.0119262785 0.05160311
v -0.27544034 -0.011332557 0.044478327
v -0.27544034 -0.011332557 0.044478327
v -0.27544034 -0.0119262785 0.05160311
v -0.29206485 -0.034488127 0.0551655
v -0.29206485 -0.034488127 0.048040718
v -0.30868936 -0.057643697 0.0551655
v -0.30868936 -0.057643697 0.048040718
v -0.32531387 -0.080205545 0.052790582
v -0.32531387 -0.080205545 0.046259522
v -0.34193838 -0.103361115 0.0551655
v -0.34193838 -0.103361115 0.048040718
v -0.3585629 -0.12592295 0.056352973
v -0.3585629 -0.12592295 0.04922816
v -0.3389697 -0.1158295 0.049821913
v -0.3389697 -0.116423234 0.056946695
v -0.32412636 -0.09564258 0.056352973
v -0.32412636 -0.09564258 0.04922816
v -0.3098768 -0.07545568 0.054571778
v -0.3098768 -0.07545568 0.048040718
v -0.2950335 -0.055268764 0.0551655
v -0.2950335 -0.055268764 0.048040718
v -0.28019017 -0.035081863 0.054571778
v -0.28019017 -0.035081863 0.047446966
v -0.2659406 -0.014894947 0.05160311
v -0.2659406 -0.014894947 0.044478327
v -0.2659406 -0.014894947 0.044478327
v -0.2659406 -0.014894947 0.05160311
v -0.26534688 0.011823028 0.04863444
v -0.26534688 0.011823028 0.041509658
v -0.26534688 0.03854099 0.048040718
v -0.26534688 0.03913471 0.040915906
v -0.26534688 0.0658527 0.044478327
v -0.26534688 0.0658527 0.037353516
v -0.26534688 0.09257066 0.040915906
v -0.26534688 0.09257066 0.033791125
v -0.26534688 0.11928862 0.04566577
v -0.26534688 0.11928862 0.03854099
v -0.26534688 0.14600658 0.05575922
v -0.26534688 0.14600658 0.04863444
v -0.2647531 0.17272457 0.06941509
v -0.2647531 0.1733183 0.06229028
v -0.2647531 0.20003626 0.08188346
v -0.2647531 0.20003626 0.07475868
v -0.2647531 0.22675425 0.09494558
v -0.2647531 0.22675425 0.0878208
v -0.2647531 0.22675425 0.0878208
v -0.2647531 0.22675425 0.09494558
v -0.23625395 0.22675425 0.0878208
v -0.23625395 0.22675425 0.08069602
v -0.20716107 0.22675425 0.08188346
v -0.20716107 0.22675425 0.07475868
v -0.17866188 0.22675425 0.07416496
v -0.17866188 0.22675425 0.0676339
v -0.15016273 0.22734797 0.0676339
v -0.15016273 0.22734797 0.060509086
v -0.12106982 0.22734797 0.060509086
v -0.12106982 0.22734797 0.053384304
v -0.09257066 0.22734797 0.05575922
v -0.09257066 0.22734797 0.04863444
v -0.064071506 0.22734797 0.051009387
v -0.064071506 0.22734797 0.044478327
v -0.0349786 0.22734797 0.052790582
v -0.0349786 0.22734797 0.04566577
v -0.0064794123 0.22734797 0.0551655
v -0.0064794123 0.22794169 0.048040718
v 0.022019744 0.22794169 0.05872789
v 0.022019744 0.22794169 0.05219683
v 0.051112637 0.22794169 0.063477755
v 0.051112637 0.22794169 0.056352973
v 0.07961181 0.22794169 0.06822762
v 0.07961181 0.22794169 0.061102837
v 0.1087047 0.22794169 0.07297748
v 0.1087047 0.22794169 0.0658527
v 0.13720387 0.22794169 0.07179001
v 0.13720387 0.22794169 0.06466523
v 0.16570304 0.22853544 0.07119629
v 0.16570304 0.22853544 0.06466523
v 0.19479594 0.22853544 0.07475868
v 0.19479594 0.22853544 0.0676339
v 0.19479594 0.22853544 0.0676339
v 0.19479594 0.22853544 0.07475868
v 0.19479594 0.19884881 0.063477755
v 0.19479594 0.19884881 0.056352973
v 0.19479594 0.1697559 0.064071506
v 0.19479594 0.1697559 0.056946695
v 0.19479594 0.140663 0.067040145
v 0.19479594 0.140663 0.059915364
v 0.19479594 0.11157009 0.06169656
v 0.19479594 0.11157009 0.054571778
v 0.19538967 0.08188346 0.052790582
v 0.19538967 0.08188346 0.04566577
v 0.19538967 0.052790582 0.047446966
v 0.19538967 0.052790582 0.040322185
v 0.19538967 0.023697674 0.047446966
v 0.19538967 0.023697674 0.040322185
v 0.19538967 0.023697674 0.040322185
v 0.19538967 0.023697674 0.047446966
v 0.20904553 0.0011358261 0.048040718
v 0.20904553 0.0011358261 0.041509658
v 0.22270137 -0.021426007 0.050415635
v 0.22270137 -0.021426007 0.043290854
v 0.23635723 -0.043987855 0.052790582
v 0.23635723 -0.043987855 0.046259522
v 0.23635723 -0.043987855 0.046259522
v 0.23635723 -0.043987855 0.052790582
v 0.23754469 -0.06654969 0.05575922
v 0.23754469 -0.06654969 0.04863444
v 0.23813842 -0.08911152 0.057540447
v 0.23813842 -0.08911152 0.050415635
v 0.23813842 -0.08911152 0.050415635
v 0.23813842 -0.08911152 0.057540447
v 0.21201418 -0.08911152 0.056946695
v 0.21201418 -0.08911152 0.049821913
v 0.18588996 -0.08911152 0.053384304
v 0.18588996 -0.08911152 0.046259522
v 0.15917198 -0.08911152 0.04922816
v 0.15917198 -0.08911152 0.04210338
v 0.13304774 -0.08911152 0.04863444
v 0.13304774 -0.08911152 0.041509658
v 0.106923506 -0.08911152 0.046853244
v 0.106923506 -0.08911152 0.040322185
v 0.080205545 -0.08911152 0.047446966
v 0.080205545 -0.08911152 0.040915906
v 0.054081306 -0.08911152 0.048040718
v 0.054081306 -0.08911152 0.040915906
v 0.027957067 -0.08911152 0.04863444
v 0.027957067 -0.08911152 0.041509658
v 0.027957067 -0.08911152 0.041509658
v 0.027957067 -0.08911152 0.04863444
v 0.008957624 -0.098017514 0.05219683
v 0.008957624 -0.098017514 0.04566577
v -0.010041833 -0.10751724 0.05575922
v -0.010041833 -0.10751724 0.04863444
v -0.02904126 -0.117016956 0.056352973
v -0.02904126 -0.117016956 0.04922816
v -0.02904126 -0.117016956 0.04922816
v -0.02904126 -0.117016956 0.056352973
v -0.057540447 -0.117016956 0.05575922
v -0.057540447 -0.117016956 0.04863444
v -0.08544588 -0.117016956 0.05575922
v -0.08544588 -0.116423234 0.04863444
v -0.11394504 -0.116423234 0.0551655
v -0.11394504 -0.116423234 0.048040718
v -0.14185047 -0.116423234 0.05575922
v -0.14185047 -0.116423234 0.04863444
v -0.1697559 -0.116423234 0.056352973
v -0.1697559 -0.116423234 0.049821913
v -0.19825506 -0.116423234 0.056946695
v -0.19825506 -0.116423234 0.049821913
v -0.2261605 -0.116423234 0.059915364
v -0.2261605 -0.116423234 0.052790582
v -0.25465965 -0.116423234 0.061102837
v -0.25465965 -0.116423234 0.053978026
v -0.28256512 -0.116423234 0.06288403
v -0.28256512 -0.116423234 0.05575922
v -0.31106424 -0.116423234 0.061102837
v -0.31106424 -0.116423234 0.053978026
v -0.3389697 -0.116423234 0.056946695
v -0.3389697 -0.1158295 0.049821913
v -0.057540447 -0.119985625 0.05575922
v -0.057540447 -0.117016956 0.05575922
v -0.02904126 -0.117016956 0.056352973
v -0.08544588 -0.117016956 0.05575922
v -0.08544588 -0.119985625 0.056352973
v -0.11394504 -0.116423234 0.0551655
v -0.11394504 -0.119985625 0.05575922
v -0.14185047 -0.116423234 0.05575922
v -0.14185047 -0.119985625 0.05575922
v -0.1697559 -0.116423234 0.056352973
v -0.1697559 -0.119985625 0.056946695
v -0.19825506 -0.116423234 0.056946695
v -0.19825506 -0.119985625 0.056946695
v -0.2261605 -0.116423234 0.059915364
v -0.2261605 -0.119985625 0.059321642
v -0.25465965 -0.116423234 0.061102837
v -0.25465965 -0.11939189 0.060509086
v -0.28256512 -0.116423234 0.06288403
v -0.28256512 -0.11939189 0.06229028
v -0.31106424 -0.116423234 0.061102837
v -0.31106424 -0.11939189 0.061102837
v -0.3389697 -0.116423234 0.056946695
v -0.13353822 -0.1211731 0.05575922
v -0.16144365 -0.1211731 0.056946695
v -0.1899428 -0.1211731 0.056946695
v -0.22022319 -0.1211731 0.05872789
v -0.24634743 -0.1211731 0.060509086
v -0.26772177 -0.1211731 0.061102837
v -0.10563278 -0.1211731 0.05575922
v -0.07832107 -0.1211731 0.056352973
v -0.13769433 -0.123548016 0.056352973
v -0.16500604 -0.122954294 0.056946695
v -0.19291148 -0.122954294 0.057540447
v -0.22022319 -0.122954294 0.05872789
v -0.24812862 -0.122954294 0.059915364
v -0.109788895 -0.123548016 0.056352973
v -0.08188346 -0.123548016 0.056352973
v -0.27544034 -0.122954294 0.06169656
v -0.30334574 -0.122954294 0.061102837
v -0.33065742 -0.122954294 0.05872789
v -0.109788895 -0.12651668 0.056352973
v -0.13769433 -0.12651668 0.056946695
v -0.08188346 -0.12651668 0.056352973
v -0.16500604 -0.12651668 0.057540447
v -0.19291148 -0.12651668 0.057540447
v -0.22022319 -0.12651668 0.05813417
v -0.24812862 -0.12651668 0.059915364
v -0.27544034 -0.12651668 0.061102837
v -0.30334574 -0.12651668 0.060509086
v -0.33065742 -0.12592295 0.05872789
v -0.3585629 -0.12592295 0.056352973
v -0.33956343 -0.10514231 0.05575922
v -0.34193838 -0.103361115 0.0551655
v -0.32531387 -0.080205545 0.052790582
v -0.32709503 -0.093861386 0.05575922
v -0.32412636 -0.09564258 0.056352973
v -0.32293892 -0.08198674 0.053978026
v -0.30868936 -0.057643697 0.0551655
v -0.31225175 -0.073674485 0.053978026
v -0.3098768 -0.07545568 0.054571778
v -0.3063144 -0.059424892 0.053978026
v -0.29206485 -0.034488127 0.0551655
v -0.29800212 -0.05348757 0.05575922
v -0.2950335 -0.055268764 0.0551655
v -0.2896899 -0.036269322 0.0551655
v -0.27544034 -0.0119262785 0.05160311
v -0.28315884 -0.033300668 0.054571778
v -0.28019017 -0.035081863 0.054571778
v -0.2730654 -0.012520015 0.05160311
v -0.26890928 -0.013707489 0.05160311
v -0.2659406 -0.014894947 0.05160311
v -0.26534688 0.011823028 0.04863444
v -0.26890928 0.011823028 0.04863444
v -0.26534688 0.03854099 0.048040718
v -0.2730654 0.015979141 0.04922816
v -0.27544034 0.015979141 0.04922816
v -0.27544034 0.043290854 0.04863444
v -0.26890928 0.03854099 0.04863444
v -0.26534688 0.0658527 0.044478327
v -0.2730654 0.043290854 0.04863444
v -0.27544034 0.07119629 0.043884575
v -0.26890928 0.0658527 0.044478327
v -0.26534688 0.09257066 0.040915906
v -0.2730654 0.07119629 0.043884575
v -0.27544034 0.098508 0.04269713
v -0.2683155 0.09257066 0.040915906
v -0.26534688 0.11928862 0.04566577
v -0.27247167 0.098508 0.04210338
v -0.27544034 0.12641343 0.049821913
v -0.2683155 0.11928862 0.04566577
v -0.26534688 0.14600658 0.05575922
v -0.27247167 0.12641343 0.049821913
v -0.27484655 0.15372512 0.059321642
v -0.2683155 0.14600658 0.05575922
v -0.2647531 0.17272457 0.06941509
v -0.27247167 0.15372512 0.059321642
v -0.27484655 0.18163055 0.07179001
v -0.2683155 0.17272457 0.06882134
v -0.2647531 0.20003626 0.08188346
v -0.27247167 0.18163055 0.07179001
v -0.27484655 0.20894226 0.086633325
v -0.2683155 0.20003626 0.08247721
v -0.2647531 0.22675425 0.09494558
v -0.27247167 0.20894226 0.0860396
v -0.27484655 0.2368477 0.09910172
v -0.24634743 0.23328531 0.09257066
v -0.24634743 0.2368477 0.09197694
v -0.23625395 0.23031664 0.08960199
v -0.23625395 0.22675425 0.0878208
v -0.218442 0.23328531 0.08544588
v -0.218442 0.2368477 0.08544588
v -0.20716107 0.23031664 0.08247721
v -0.20716107 0.22675425 0.08188346
v -0.1899428 0.23387903 0.07832107
v -0.1899428 0.2368477 0.07832107
v -0.17866188 0.23031664 0.0753524
v -0.17866188 0.22675425 0.07416496
v -0.16203737 0.23387903 0.07119629
v -0.16203737 0.2368477 0.07119629
v -0.15016273 0.23031664 0.06882134
v -0.15016273 0.22734797 0.0676339
v -0.13353822 0.23387903 0.06466523
v -0.13353822 0.2368477 0.06466523
v -0.12106982 0.23031664 0.06169656
v -0.12106982 0.22734797 0.060509086
v -0.09257066 0.22734797 0.05575922
v -0.10563278 0.23387903 0.05872789
v -0.10563278 0.23744142 0.05813417
v -0.09257066 0.23091036 0.056946695
v -0.064071506 0.22734797 0.051009387
v -0.077133596 0.23387903 0.053978026
v -0.077133596 0.23744142 0.053384304
v -0.064071506 0.23091036 0.05219683
v -0.0349786 0.22734797 0.052790582
v -0.04922816 0.23387903 0.052790582
v -0.04922816 0.23744142 0.05219683
v -0.0349786 0.23091036 0.053978026
v -0.0064794123 0.22734797 0.0551655
v -0.020729005 0.23447275 0.054571778
v -0.020729005 0.23744142 0.054571778
v -0.0064794123 0.23091036 0.05575922
v 0.022019744 0.22794169 0.05872789
v 0.007176429 0.23447275 0.05813417
v 0.007176429 0.23744142 0.05813417
v 0.022019744 0.23091036 0.060509086
v 0.051112637 0.22794169 0.063477755
v 0.035081863 0.23447275 0.06229028
v 0.035081863 0.23803514 0.06229028
v 0.06358102 0.23803514 0.067040145
v 0.051112637 0.23091036 0.06525895
v 0.07961181 0.22794169 0.06822762
v 0.06358102 0.23447275 0.067040145
v 0.07961181 0.23150408 0.070008814
v 0.1087047 0.22794169 0.07297748
v 0.091486454 0.23447275 0.07238376
v 0.091486454 0.23803514 0.07179001
v 0.119985625 0.23803514 0.073571205
v 0.10811098 0.23150408 0.07475868
v 0.13720387 0.22794169 0.07179001
v 0.119985625 0.23447275 0.07416496
v 0.14789106 0.23803514 0.07179001
v 0.13720387 0.23150408 0.073571205
v 0.14789106 0.2350665 0.07238376
v 0.17639023 0.23803514 0.07297748
v 0.16570304 0.23150408 0.07238376
v 0.16570304 0.22853544 0.07119629
v 0.19479594 0.22853544 0.07475868
v 0.17639023 0.2350665 0.073571205
v 0.20429567 0.2386289 0.07594615
v 0.201327 0.21191093 0.06941509
v 0.20429567 0.21191093 0.070008814
v 0.1977646 0.19884881 0.064071506
v 0.19479594 0.19884881 0.063477755
v 0.19479594 0.1697559 0.064071506
v 0.201327 0.18519294 0.06525895
v 0.20488939 0.18519294 0.0658527
v 0.19835833 0.1697559 0.06466523
v 0.19479594 0.140663 0.067040145
v 0.201327 0.1590687 0.06644642
v 0.20488939 0.1590687 0.067040145
v 0.19835833 0.140663 0.0676339
v 0.19479594 0.11157009 0.06169656
v 0.201327 0.13235074 0.0676339
v 0.20488939 0.13235074 0.06822762
v 0.19835833 0.11157009 0.06229028
v 0.19538967 0.08188346 0.052790582
v 0.20192073 0.10563278 0.059915364
v 0.20488939 0.10563278 0.059915364
v 0.19835833 0.08188346 0.052790582
v 0.19538967 0.052790582 0.047446966
v 0.20192073 0.07950854 0.05219683
v 0.20488939 0.07950854 0.05219683
v 0.19835833 0.052790582 0.047446966
v 0.20192073 0.052790582 0.046853244
v 0.20548312 0.052790582 0.046853244
v 0.20548312 0.026072592 0.046853244
v 0.19895206 0.024291396 0.047446966
v 0.19538967 0.023697674 0.047446966
v 0.20904553 0.0011358261 0.048040718
v 0.20192073 0.02547887 0.047446966
v 0.21201418 0.0029170215 0.048040718
v 0.22270137 -0.021426007 0.050415635
v 0.21617031 0.0023232996 0.048040718
v 0.21913898 0.0035107732 0.047446966
v 0.22567004 -0.019644812 0.050415635
v 0.23635723 -0.043987855 0.052790582
v 0.22982617 -0.020238549 0.050415635
v 0.23279482 -0.018457338 0.050415635
v 0.23991962 -0.04339412 0.052790582
v 0.24348202 -0.042206645 0.053384304
v 0.24645068 -0.041019186 0.053384304
v 0.24763815 -0.07011208 0.056352973
v 0.24110709 -0.06654969 0.05575922
v 0.23754469 -0.06654969 0.05575922
v 0.23813842 -0.08911152 0.057540447
v 0.24407575 -0.07011208 0.056352973
v 0.24882561 -0.09861125 0.05813417
v 0.22151391 -0.09564258 0.05813417
v 0.22151391 -0.09861125 0.05813417
v 0.21201418 -0.09208019 0.056946695
v 0.21201418 -0.08911152 0.056946695
v 0.19420221 -0.09564258 0.05575922
v 0.19420221 -0.09861125 0.05575922
v 0.18588996 -0.09208019 0.054571778
v 0.18588996 -0.08911152 0.053384304
v 0.1668905 -0.09564258 0.05160311
v 0.1668905 -0.09861125 0.052790582
v 0.15917198 -0.09208019 0.050415635
v 0.15917198 -0.08911152 0.04922816
v 0.1395788 -0.09564258 0.050415635
v 0.1395788 -0.09861125 0.051009387
v 0.11226711 -0.09861125 0.050415635
v 0.13304774 -0.09208019 0.04922816
v 0.13304774 -0.08911152 0.04863444
v 0.11226711 -0.09564258 0.04922816
v 0.084955394 -0.09861125 0.050415635
v 0.106923506 -0.09208019 0.048040718
v 0.106923506 -0.08911152 0.046853244
v 0.080205545 -0.08911152 0.047446966
v 0.084955394 -0.09564258 0.049821913
v 0.057643697 -0.09861125 0.051009387
v 0.080205545 -0.09208019 0.04863444
v 0.054081306 -0.08911152 0.048040718
v 0.057643697 -0.09564258 0.049821913
v 0.030331999 -0.09861125 0.05219683
v 0.054081306 -0.09208019 0.04922816
v 0.029144526 -0.09564258 0.051009387
v 0.028550804 -0.09208019 0.049821913
v 0.027957067 -0.08911152 0.04863444
v 0.008957624 -0.098017514 0.05219683
v 0.009551361 -0.10514231 0.054571778
v 0.011332557 -0.10811098 0.0551655
v 0.010145083 -0.10098618 0.053384304
v -0.008854359 -0.11048591 0.05575922
v -0.010041833 -0.10751724 0.05575922
v -0.009448081 -0.11464204 0.056352973
v -0.007666886 -0.11761069 0.056946695
v -0.028447539 -0.119985625 0.056352973
v -0.027853787 -0.123548016 0.056946695
v -0.026666343 -0.12711042 0.057540447
v -0.054571778 -0.12711042 0.056352973
v -0.054571778 -0.12176682 0.056352973
v -0.054571778 -0.123548016 0.056352973
vt 0.315852 0.74076426
vt 0.315852 0.74076426
vt 0.3265416 0.74076426
vt 0.3265416 0.74076426
vt 0.3345588 0.74076426
vt 0.3345588 0.74076426
vt 0.34524843 0.74076426
vt 0.34524843 0.74076426
vt 0.35593805 0.74076426
vt 0.35593805 0.74076426
vt 0.36395526 0.74076426
vt 0.36395526 0.74076426
vt 0.37464488 0.74076426
vt 0.37464488 0.74076426
vt 0.3853345 0.74076426
vt 0.3853345 0.74076426
vt 0.39335173 0.74076426
vt 0.39335173 0.74076426
vt 0.40404135 0.74076426
vt 0.40404135 0.74076426
vt 0.41473097 0.74076426
vt 0.41473097 0.74076426
vt 0.42274815 0.74076426
vt 0.42274815 0.74076426
vt 0.43343776 0.74076426
vt 0.43343776 0.74076426
vt 0.43343776 0.74076426
vt 0.43343776 0.74076426
vt 0.4387826 0.7487815
vt 0.4387826 0.7487815
vt 0.4467998 0.7541263
vt 0.4467998 0.7541263
vt 0.454817 0.7621435
vt 0.454817 0.7621435
vt 0.454817 0.7621435
vt 0.454817 0.7621435
vt 0.46283424 0.7621435
vt 0.46283424 0.7621435
vt 0.47352386 0.7621435
vt 0.47352386 0.7621435
vt 0.48154107 0.7621435
vt 0.48154107 0.7621435
vt 0.49223068 0.7621435
vt 0.49223068 0.7621435
vt 0.50292027 0.7621435
vt 0.50292027 0.7621435
vt 0.5109375 0.7621435
vt 0.5109375 0.7621435
vt 0.5216271 0.7621435
vt 0.5216271 0.7621435
vt 0.53231674 0.7621435
vt 0.53231674 0.7621435
vt 0.53231674 0.7621435
vt 0.53231674 0.7621435
vt 0.52964437 0.78085035
vt 0.52964437 0.78085035
vt 0.52964437 0.80222964
vt 0.52964437 0.80222964
vt 0.52964437 0.80222964
vt 0.52964437 0.80222964
vt 0.5242995 0.818264
vt 0.5242995 0.818264
vt 0.5216271 0.83162606
vt 0.5216271 0.83429843
vt 0.5162823 0.8476605
vt 0.5162823 0.8476605
vt 0.5162823 0.8476605
vt 0.5162823 0.8476605
vt 0.5162823 0.8663673
vt 0.5162823 0.8663673
vt 0.5162823 0.88507414
vt 0.5162823 0.88507414
vt 0.5162823 0.903781
vt 0.5162823 0.903781
vt 0.5162823 0.9224878
vt 0.5162823 0.9224878
vt 0.5162823 0.94119465
vt 0.5162823 0.94119465
vt 0.5162823 0.95990145
vt 0.5162823 0.95990145
vt 0.5162823 0.9786083
vt 0.5162823 0.9786083
vt 0.5162823 0.9973151
vt 0.5162823 0.9973151
vt 0.5162823 0.9973151
vt 0.5162823 0.9973151
vt 0.5055927 0.9973151
vt 0.5055927 0.9973151
vt 0.4949031 0.9973151
vt 0.4949031 0.9973151
vt 0.48421347 0.9973151
vt 0.48421347 0.9973151
vt 0.47619626 0.9973151
vt 0.47619626 0.9973151
vt 0.46550664 0.9973151
vt 0.46550664 0.9973151
vt 0.454817 0.9973151
vt 0.454817 0.9973151
vt 0.44412738 0.9973151
vt 0.44412738 0.9973151
vt 0.4361102 0.9973151
vt 0.4361102 0.9973151
vt 0.42542058 0.9973151
vt 0.42542058 0.9973151
vt 0.41473097 0.9973151
vt 0.41473097 0.9973151
vt 0.40671372 0.9973151
vt 0.40671372 0.9973151
vt 0.3960241 0.9973151
vt 0.3960241 0.9973151
vt 0.3853345 0.9973151
vt 0.3853345 0.9973151
vt 0.37464488 0.9973151
vt 0.37464488 0.9973151
vt 0.36662766 0.9973151
vt 0.36662766 0.9973151
vt 0.35593805 0.9973151
vt 0.35593805 0.9973151
vt 0.34524843 0.9973151
vt 0.34524843 0.9973151
vt 0.34524843 0.9973151
vt 0.34524843 0.9973151
vt 0.34524843 0.9759359
vt 0.34524843 0.9759359
vt 0.34524843 0.9572291
vt 0.34524843 0.9572291
vt 0.34524843 0.9385222
vt 0.34524843 0.9385222
vt 0.34524843 0.9198154
vt 0.34524843 0.9198154
vt 0.34524843 0.8984362
vt 0.34524843 0.8984362
vt 0.34524843 0.87972933
vt 0.34524843 0.87972933
vt 0.34524843 0.8610225
vt 0.34524843 0.8610225
vt 0.34524843 0.8423157
vt 0.34524843 0.8423157
vt 0.34524843 0.82093644
vt 0.34524843 0.82093644
vt 0.34524843 0.82093644
vt 0.34524843 0.82093644
vt 0.33990362 0.804902
vt 0.33990362 0.804902
vt 0.3345588 0.7888676
vt 0.3345588 0.7888676
vt 0.3265416 0.7728331
vt 0.3265416 0.7728331
vt 0.3211968 0.75679874
vt 0.3211968 0.75679874
vt 0.315852 0.74076426
vt 0.315852 0.74076426
vt 0.3238692 0.7487815
vt 0.3238692 0.7487815
vt 0.329214 0.7621435
vt 0.329214 0.7621435
vt 0.3318864 0.778178
vt 0.3318864 0.778178
vt 0.33723122 0.79153997
vt 0.33723122 0.79153997
vt 0.34257603 0.804902
vt 0.34257603 0.804902
vt 0.34792084 0.82093644
vt 0.34792084 0.82093644
vt 0.34792084 0.82093644
vt 0.34792084 0.82093644
vt 0.34792084 0.83964324
vt 0.34792084 0.83964324
vt 0.34792084 0.8583501
vt 0.34792084 0.8583501
vt 0.34792084 0.8770569
vt 0.34792084 0.8770569
vt 0.34792084 0.89576375
vt 0.34792084 0.89576375
vt 0.34792084 0.9144706
vt 0.34792084 0.9144706
vt 0.34792084 0.9331774
vt 0.34792084 0.9331774
vt 0.34792084 0.95188427
vt 0.34792084 0.95188427
vt 0.34792084 0.97059107
vt 0.34792084 0.97059107
vt 0.34792084 0.9892979
vt 0.34792084 0.9892979
vt 0.34792084 0.9892979
vt 0.34792084 0.9892979
vt 0.35861045 0.9892979
vt 0.35861045 0.9892979
vt 0.36930007 0.9892979
vt 0.36930007 0.9892979
vt 0.37998968 0.9892979
vt 0.37998968 0.9892979
vt 0.3906793 0.9892979
vt 0.3906793 0.9892979
vt 0.39869654 0.9892979
vt 0.39869654 0.9892979
vt 0.40938616 0.9892979
vt 0.40938616 0.9892979
vt 0.42007577 0.9892979
vt 0.42007577 0.9892979
vt 0.4307654 0.9892979
vt 0.4307654 0.9892979
vt 0.441455 0.9892979
vt 0.441455 0.9892979
vt 0.4494722 0.9892979
vt 0.4494722 0.9892979
vt 0.4601618 0.9892979
vt 0.4601618 0.9892979
vt 0.47085145 0.9892979
vt 0.47085145 0.9892979
vt 0.48154107 0.9892979
vt 0.48154107 0.9892979
vt 0.49223068 0.9892979
vt 0.49223068 0.9892979
vt 0.50292027 0.9892979
vt 0.50292027 0.9892979
vt 0.5109375 0.9892979
vt 0.5109375 0.9892979
vt 0.5109375 0.9892979
vt 0.5109375 0.9892979
vt 0.5109375 0.97059107
vt 0.5109375 0.97059107
vt 0.5109375 0.94921184
vt 0.5109375 0.94921184
vt 0.5109375 0.9278326
vt 0.5109375 0.9278326
vt 0.5109375 0.9091258
vt 0.5109375 0.9091258
vt 0.5109375 0.8877465
vt 0.5109375 0.8877465
vt 0.5109375 0.8663673
vt 0.5109375 0.8663673
vt 0.5109375 0.8476605
vt 0.5109375 0.8476605
vt 0.5109375 0.8476605
vt 0.5109375 0.8476605
vt 0.5162823 0.83162606
vt 0.5162823 0.83162606
vt 0.5216271 0.81559163
vt 0.5216271 0.81559163
vt 0.52697194 0.7995572
vt 0.52697194 0.7995572
vt 0.52697194 0.7995572
vt 0.52697194 0.7995572
vt 0.52697194 0.7835227
vt 0.52697194 0.7835227
vt 0.52697194 0.76748836
vt 0.52697194 0.76748836
vt 0.52697194 0.76748836
vt 0.52697194 0.76748836
vt 0.51895475 0.76748836
vt 0.51895475 0.76748836
vt 0.50826514 0.76748836
vt 0.50826514 0.76748836
vt 0.5002479 0.76748836
vt 0.5002479 0.76748836
vt 0.48955828 0.76748836
vt 0.48955828 0.76748836
vt 0.48154107 0.76748836
vt 0.48154107 0.76748836
vt 0.47085145 0.76748836
vt 0.47085145 0.76748836
vt 0.46283424 0.76748836
vt 0.46283424 0.76748836
vt 0.45214462 0.76748836
vt 0.45214462 0.76748836
vt 0.45214462 0.76748836
vt 0.45214462 0.76748836
vt 0.4467998 0.7621435
vt 0.4467998 0.7621435
vt 0.4387826 0.7541263
vt 0.4387826 0.7541263
vt 0.43343776 0.7487815
vt 0.43343776 0.7487815
vt 0.43343776 0.7487815
vt 0.43343776 0.7487815
vt 0.42274815 0.7487815
vt 0.42274815 0.7487815
vt 0.41205853 0.7487815
vt 0.41205853 0.7487815
vt 0.40136892 0.7487815
vt 0.40136892 0.7487815
vt 0.39335173 0.7487815
vt 0.39335173 0.7487815
vt 0.3826621 0.7487815
vt 0.3826621 0.7487815
vt 0.37197247 0.7487815
vt 0.37197247 0.7487815
vt 0.36395526 0.7487815
vt 0.36395526 0.7487815
vt 0.35326564 0.7487815
vt 0.35326564 0.7487815
vt 0.34257603 0.7487815
vt 0.34257603 0.7487815
vt 0.3318864 0.7487815
vt 0.3318864 0.7487815
vt 0.3238692 0.7487815
vt 0.3238692 0.7487815
vt 0.42274815 0.7461091
vt 0.42274815 0.7487815
vt 0.43343776 0.7487815
vt 0.41205853 0.7487815
vt 0.41205853 0.7461091
vt 0.40136892 0.7487815
vt 0.40136892 0.7461091
vt 0.39335173 0.7487815
vt 0.39335173 0.7461091
vt 0.3826621 0.7487815
vt 0.3826621 0.7461091
vt 0.37197247 0.7487815
vt 0.37197247 0.7461091
vt 0.36395526 0.7487815
vt 0.36395526 0.7461091
vt 0.35326564 0.7487815
vt 0.35326564 0.7461091
vt 0.34257603 0.7487815
vt 0.34257603 0.7461091
vt 0.3318864 0.7487815
vt 0.3318864 0.7461091
vt 0.3238692 0.7487815
vt 0.3960241 0.7461091
vt 0.3853345 0.7461091
vt 0.37464488 0.7461091
vt 0.36395526 0.7461091
vt 0.35593805 0.7461091
vt 0.34792084 0.7461091
vt 0.40404135 0.7461091
vt 0.41473097 0.7461091
vt 0.39335173 0.7434367
vt 0.3853345 0.7434367
vt 0.37464488 0.7434367
vt 0.36395526 0.7434367
vt 0.35593805 0.7434367
vt 0.40404135 0.7434367
vt 0.41473097 0.7434367
vt 0.34524843 0.7434367
vt 0.3345588 0.7434367
vt 0.3265416 0.7434367
vt 0.40404135 0.74076426
vt 0.39335173 0.74076426
vt 0.41473097 0.74076426
vt 0.3853345 0.74076426
vt 0.37464488 0.74076426
vt 0.36395526 0.74076426
vt 0.35593805 0.74076426
vt 0.34524843 0.74076426
vt 0.3345588 0.74076426
vt 0.3265416 0.74076426
vt 0.315852 0.74076426
vt 0.3238692 0.75679874
vt 0.3211968 0.75679874
vt 0.3265416 0.7728331
vt 0.3265416 0.7648159
vt 0.329214 0.7621435
vt 0.329214 0.7728331
vt 0.3345588 0.7888676
vt 0.3318864 0.778178
vt 0.3318864 0.778178
vt 0.3345588 0.7888676
vt 0.33990362 0.804902
vt 0.33723122 0.79153997
vt 0.33723122 0.79153997
vt 0.33990362 0.804902
vt 0.34524843 0.82093644
vt 0.34257603 0.8075744
vt 0.34257603 0.804902
vt 0.34524843 0.82093644
vt 0.34792084 0.82093644
vt 0.34792084 0.82093644
vt 0.34792084 0.83964324
vt 0.34792084 0.83964324
vt 0.34792084 0.8583501
vt 0.34524843 0.8423157
vt 0.34524843 0.8423157
vt 0.34524843 0.8610225
vt 0.34792084 0.8583501
vt 0.34792084 0.8770569
vt 0.34524843 0.8610225
vt 0.34524843 0.87972933
vt 0.34792084 0.8770569
vt 0.34792084 0.89576375
vt 0.34524843 0.87972933
vt 0.34524843 0.8984362
vt 0.34792084 0.89576375
vt 0.34792084 0.9144706
vt 0.34524843 0.8984362
vt 0.34524843 0.9198154
vt 0.34792084 0.9144706
vt 0.34792084 0.9331774
vt 0.34524843 0.9198154
vt 0.34524843 0.9385222
vt 0.34792084 0.9331774
vt 0.34792084 0.95188427
vt 0.34524843 0.9385222
vt 0.34524843 0.9572291
vt 0.34792084 0.95188427
vt 0.34792084 0.97059107
vt 0.34524843 0.9572291
vt 0.34524843 0.9759359
vt 0.34792084 0.97059107
vt 0.34792084 0.9892979
vt 0.34524843 0.9759359
vt 0.34524843 0.9973151
vt 0.35593805 0.99464273
vt 0.35593805 0.9973151
vt 0.35861045 0.9919703
vt 0.35861045 0.9892979
vt 0.36662766 0.99464273
vt 0.36662766 0.9973151
vt 0.36930007 0.9919703
vt 0.36930007 0.9892979
vt 0.37464488 0.99464273
vt 0.37464488 0.9973151
vt 0.37998968 0.9919703
vt 0.37998968 0.9892979
vt 0.3853345 0.99464273
vt 0.3853345 0.9973151
vt 0.3906793 0.9919703
vt 0.3906793 0.9892979
vt 0.3960241 0.99464273
vt 0.3960241 0.9973151
vt 0.39869654 0.9919703
vt 0.39869654 0.9892979
vt 0.40938616 0.9892979
vt 0.40671372 0.99464273
vt 0.40671372 0.9973151
vt 0.40938616 0.9919703
vt 0.42007577 0.9892979
vt 0.41473097 0.99464273
vt 0.41473097 0.9973151
vt 0.42007577 0.9919703
vt 0.4307654 0.9892979
vt 0.42542058 0.99464273
vt 0.42542058 0.9973151
vt 0.4307654 0.9919703
vt 0.441455 0.9892979
vt 0.4361102 0.99464273
vt 0.4361102 0.9973151
vt 0.441455 0.9919703
vt 0.4494722 0.9892979
vt 0.44412738 0.99464273
vt 0.44412738 0.9973151
vt 0.4494722 0.9919703
vt 0.4601618 0.9892979
vt 0.454817 0.99464273
vt 0.454817 0.9973151
vt 0.46550664 0.9973151
vt 0.4601618 0.9919703
vt 0.47085145 0.9892979
vt 0.46550664 0.99464273
vt 0.47085145 0.9919703
vt 0.48154107 0.9892979
vt 0.47619626 0.99464273
vt 0.47619626 0.9973151
vt 0.48421347 0.9973151
vt 0.48154107 0.9919703
vt 0.49223068 0.9892979
vt 0.48421347 0.99464273
vt 0.4949031 0.9973151
vt 0.49223068 0.9919703
vt 0.4949031 0.99464273
vt 0.5055927 0.9973151
vt 0.50292027 0.9919703
vt 0.50292027 0.9892979
vt 0.5109375 0.9892979
vt 0.5055927 0.99464273
vt 0.5162823 0.9973151
vt 0.5136099 0.9786083
vt 0.5162823 0.9786083
vt 0.5136099 0.97059107
vt 0.5109375 0.97059107
vt 0.5109375 0.94921184
vt 0.5136099 0.95990145
vt 0.5162823 0.95990145
vt 0.5136099 0.94921184
vt 0.5109375 0.9278326
vt 0.5136099 0.94119465
vt 0.5162823 0.94119465
vt 0.5136099 0.9278326
vt 0.5109375 0.9091258
vt 0.5136099 0.9224878
vt 0.5162823 0.9224878
vt 0.5136099 0.9091258
vt 0.5109375 0.8877465
vt 0.5136099 0.903781
vt 0.5162823 0.903781
vt 0.5136099 0.8877465
vt 0.5109375 0.8663673
vt 0.5136099 0.88507414
vt 0.5162823 0.88507414
vt 0.5136099 0.8663673
vt 0.5136099 0.8663673
vt 0.5162823 0.8663673
vt 0.5162823 0.8476605
vt 0.5136099 0.8476605
vt 0.5109375 0.8476605
vt 0.5162823 0.83162606
vt 0.5136099 0.8476605
vt 0.51895475 0.83162606
vt 0.5216271 0.81559163
vt 0.51895475 0.83162606
vt 0.5216271 0.83162606
vt 0.5216271 0.81559163
vt 0.52697194 0.7995572
vt 0.5242995 0.81559163
vt 0.5242995 0.818264
vt 0.52697194 0.7995572
vt 0.52964437 0.7995572
vt 0.52964437 0.80222964
vt 0.52964437 0.78085035
vt 0.52697194 0.7835227
vt 0.52697194 0.7835227
vt 0.52697194 0.76748836
vt 0.52964437 0.78085035
vt 0.53231674 0.7621435
vt 0.5216271 0.7621435
vt 0.5216271 0.7621435
vt 0.51895475 0.7648159
vt 0.51895475 0.76748836
vt 0.5109375 0.7621435
vt 0.5109375 0.7621435
vt 0.50826514 0.7648159
vt 0.50826514 0.76748836
vt 0.50292027 0.7621435
vt 0.50292027 0.7621435
vt 0.5002479 0.7648159
vt 0.5002479 0.76748836
vt 0.49223068 0.7621435
vt 0.49223068 0.7621435
vt 0.48154107 0.7621435
vt 0.48955828 0.7648159
vt 0.48955828 0.76748836
vt 0.48154107 0.7621435
vt 0.47352386 0.7621435
vt 0.48154107 0.7648159
vt 0.48154107 0.76748836
vt 0.47085145 0.76748836
vt 0.47352386 0.7621435
vt 0.46283424 0.7621435
vt 0.47085145 0.7648159
vt 0.46283424 0.76748836
vt 0.46283424 0.7621435
vt 0.454817 0.7621435
vt 0.46283424 0.7648159
vt 0.45214462 0.7621435
vt 0.45214462 0.7648159
vt 0.45214462 0.76748836
vt 0.4467998 0.7621435
vt 0.4467998 0.75679874
vt 0.4467998 0.7541263
vt 0.4467998 0.7594711
vt 0.4387826 0.7541263
vt 0.4387826 0.7541263
vt 0.4387826 0.7487815
vt 0.4387826 0.7487815
vt 0.43343776 0.7461091
vt 0.43343776 0.7434367
vt 0.43343776 0.74076426
vt 0.42274815 0.74076426
vt 0.42274815 0.7461091
vt 0.42274815 0.7434367
vn -0.015871048 -0.999874 -0.00034526698
vn -0.015871048 -0.999874 -0.00034526698
vn -0.015871048 -0.999874 -0.00034526698
vn -0.015871048 -0.999874 -0.00034526698
vn -0.015871048 -0.999874 -0.00034526698
vn -0.015871048 -0.999874 -0.00034526698
vn -0.015871048 -0.999874 -0.00034526698
vn -0.015871048 -0.999874 -0.00034526698
vn -0.015871048 -0.999874 -0.00034526698
vn -0.015871048 -0.999874 -0.00034526698
vn -0.015871048 -0.999874 -0.00034526698
vn -0.015871048 -0.999874 -0.00034526698
vn -0.015871048 -0.999874 -0.00034526698
vn -0.015871048 -0.999874 -0.00034526698
vn -0.015871048 -0.999874 -0.00034526698
vn -0.015871048 -0.999874 -0.00034526698
vn -0.015871048 -0.999874 -0.00034526698
vn -0.015871048 -0.999874 -0.00034526698
vn -0.015871048 -0.999874 -0.00034526698
vn -0.015871048 -0.999874 -0.00034526698
vn -0.015871048 -0.999874 -0.00034526698
vn -0.015871048 -0.999874 -0.00034526698
vn -0.015871048 -0.999874 -0.00034526698
vn -0.015871048 -0.999874 -0.00034526698
vn -0.015871048 -0.999874 -0.00034526698
vn -0.015871048 -0.999874 -0.00034526698
vn 0.42808634 -0.90373784 -0
vn 0.42808634 -0.90373784 -0
vn 0.42808634 -0.90373784 -0
vn 0.42808634 -0.90373784 -0
vn 0.42808634 -0.90373784 -0
vn 0.42808634 -0.90373784 -0
vn 0.42808634 -0.90373784 -0
vn 0.42808634 -0.90373784 -0
vn -0.015871048 -0.999874 -0.00034526698
vn -0.015871048 -0.999874 -0.00034526698
vn -0.015871048 -0.999874 -0.00034526698
vn -0.015871048 -0.999874 -0.00034526698
vn -0.015871048 -0.999874 -0.00034526698
vn -0.015871048 -0.999874 -0.00034526698
vn -0.015871048 -0.999874 -0.00034526698
vn -0.015871048 -0.999874 -0.00034526698
vn 0.015870988 -0.999874 -0.00034526698
vn 0.015870988 -0.999874 -0.00034526698
vn 0.015870988 -0.999874 -0.00034526698
vn 0.015870988 -0.999874 -0.00034526698
vn 0.015870988 -0.999874 -0.00034526698
vn 0.015870988 -0.999874 -0.00034526698
vn 0.015870988 -0.999874 -0.00034526698
vn 0.015870988 -0.999874 -0.00034526698
vn 0.015870988 -0.999874 -0.00034526698
vn 0.015870988 -0.999874 -0.00034526698
vn 0.99886817 0.04756513 -0
vn 0.99886817 0.04756513 -0
vn 0.99886817 0.04756513 -0
vn 0.99886817 0.04756513 -0
vn 0.99886817 0.04756513 -0
vn 0.99886817 0.04756513 -0
vn 0.8411638 0.5237435 0.13467072
vn 0.8411638 0.5237435 0.13467072
vn 0.8411638 0.5237435 0.13467072
vn 0.8411638 0.5237435 0.13467072
vn 0.8411638 0.5237435 0.13467072
vn 0.8411638 0.5237435 0.13467072
vn 0.8411638 0.5237435 0.13467072
vn 0.8411638 0.5237435 0.13467072
vn 0.999874 0.015871048 -0.00034391563
vn 0.999874 0.015871048 -0.00034391563
vn 0.999874 0.015871048 -0.00034391563
vn 0.999874 0.015871048 -0.00034391563
vn 0.999874 0.015871048 -0.00034391563
vn 0.999874 0.015871048 -0.00034391563
vn 0.999874 0.015871048 -0.00034391563
vn 0.999874 0.015871048 -0.00034391563
vn 0.999874 0.015871048 -0.00034391563
vn 0.999874 0.015871048 -0.00034391563
vn 0.999874 0.015871048 -0.00034391563
vn 0.999874 0.015871048 -0.00034391563
vn 0.999874 0.015871048 -0.00034391563
vn 0.999874 0.015871048 -0.00034391563
vn 0.999874 0.015871048 -0.00034391563
vn 0.999874 0.015871048 -0.00034391563
vn 0.999874 0.015871048 -0.00034391563
vn 0.999874 0.015871048 -0.00034391563
vn -0.015871048 0.999874 -0.00034526698
vn -0.015871048 0.999874 -0.00034526698
vn -0.015871048 0.999874 -0.00034526698
vn -0.015871048 0.999874 -0.00034526698
vn -0.015871048 0.999874 -0.00034526698
vn -0.015871048 0.999874 -0.00034526698
vn -0.015871048 0.999874 -0.00034526698
vn -0.015871048 0.999874 -0.00034526698
vn -0.015871048 0.999874 -0.00034526698
vn -0.015871048 0.999874 -0.00034526698
vn -0.015871048 0.999874 -0.00034526698
vn -0.015871048 0.999874 -0.00034526698
vn -0.015871048 0.999874 -0.00034526698
vn -0.015871048 0.999874 -0.00034526698
vn -0.015871048 0.999874 -0.00034526698
vn -0.015871048 0.999874 -0.00034526698
vn -0.015871048 0.999874 -0.00034526698
vn -0.015871048 0.999874 -0.00034526698
vn -0.015871048 0.999874 -0.00034526698
vn -0.015871048 0.999874 -0.00034526698
vn -0.015871048 0.999874 -0.00034526698
vn -0.015871048 0.999874 -0.00034526698
vn -0.015871048 0.999874 -0.00034526698
vn -0.015871048 0.999874 -0.00034526698
vn -0.015871048 0.999874 -0.00034526698
vn -0.015871048 0.999874 -0.00034526698
vn -0.015871048 0.999874 -0.00034526698
vn -0.015871048 0.999874 -0.00034526698
vn -0.015871048 0.999874 -0.00034526698
vn -0.015871048 0.999874 -0.00034526698
vn -0.015871048 0.999874 -0.00034526698
vn -0.015871048 0.999874 -0.00034526698
vn -0.015871048 0.999874 -0.00034526698
vn -0.015871048 0.999874 -0.00034526698
vn -0.015871048 0.999874 -0.00034526698
vn -0.015871048 0.999874 -0.00034526698
vn -0.999874 0.015871048 -0.00034391563
vn -0.999874 0.015871048 -0.00034391563
vn -0.999874 0.015871048 -0.00034391563
vn -0.999874 0.015871048 -0.00034391563
vn -0.999874 0.015871048 -0.00034391563
vn -0.999874 0.015871048 -0.00034391563
vn -0.999874 0.015871048 -0.00034391563
vn -0.999874 0.015871048 -0.00034391563
vn -0.999874 0.015871048 -0.00034391563
vn -0.999874 0.015871048 -0.00034391563
vn -0.999874 0.015871048 -0.00034391563
vn -0.999874 0.015871048 -0.00034391563
vn -0.999874 0.015871048 -0.00034391563
vn -0.999874 0.015871048 -0.00034391563
vn -0.999874 0.015871048 -0.00034391563
vn -0.999874 0.015871048 -0.00034391563
vn -0.999874 0.015871048 -0.00034391563
vn -0.999874 0.015871048 -0.00034391563
vn -0.999874 0.015871048 -0.00034391563
vn -0.999874 0.015871048 -0.00034391563
vn -0.8094218 0.5872276 -0.00042286396
vn -0.8094218 0.5872276 -0.00042286396
vn -0.8094218 0.5872276 -0.00042286396
vn -0.8094218 0.5872276 -0.00042286396
vn -0.8094218 0.5872276 -0.00042286396
vn -0.8094218 0.5872276 -0.00042286396
vn -0.8094218 0.5872276 -0.00042286396
vn -0.8094218 0.5872276 -0.00042286396
vn -0.8094218 0.5872276 -0.00042286396
vn -0.8094218 0.5872276 -0.00042286396
vn -0.8094218 0.5872276 -0.00042286396
vn -0.8094218 0.5872276 -0.00042286396
vn 0.8094218 -0.5872276 -0.00042286396
vn 0.8094218 -0.5872276 -0.00042286396
vn 0.8094218 -0.5872276 -0.00042286396
vn 0.8094218 -0.5872276 -0.00042286396
vn 0.8094218 -0.5872276 -0.00042286396
vn 0.8094218 -0.5872276 -0.00042286396
vn 0.8094218 -0.5872276 -0.00042286396
vn 0.8094218 -0.5872276 -0.00042286396
vn 0.8094218 -0.5872276 -0.00042286396
vn 0.8094218 -0.5872276 -0.00042286396
vn 0.8094218 -0.5872276 -0.00042286396
vn 0.8094218 -0.5872276 -0.00042286396
vn 0.999874 -0.015870988 -0.00034665503
vn 0.999874 -0.015870988 -0.00034665503
vn 0.999874 -0.015870988 -0.00034665503
vn 0.999874 -0.015870988 -0.00034665503
vn 0.999874 -0.015870988 -0.00034665503
vn 0.999874 -0.015870988 -0.00034665503
vn 0.999874 -0.015870988 -0.00034665503
vn 0.999874 -0.015870988 -0.00034665503
vn 0.999874 -0.015870988 -0.00034665503
vn 0.999874 -0.015870988 -0.00034665503
vn 0.999874 -0.015870988 -0.00034665503
vn 0.999874 -0.015870988 -0.00034665503
vn 0.999874 -0.015870988 -0.00034665503
vn 0.999874 -0.015870988 -0.00034665503
vn 0.999874 -0.015870988 -0.00034665503
vn 0.999874 -0.015870988 -0.00034665503
vn 0.999874 -0.015870988 -0.00034665503
vn 0.999874 -0.015870988 -0.00034665503
vn 0.999874 -0.015870988 -0.00034665503
vn 0.999874 -0.015870988 -0.00034665503
vn 0.015870988 -0.999874 -0.00034526698
vn 0.015870988 -0.999874 -0.00034526698
vn 0.015870988 -0.999874 -0.00034526698
vn 0.015870988 -0.999874 -0.00034526698
vn 0.015870988 -0.999874 -0.00034526698
vn 0.015870988 -0.999874 -0.00034526698
vn 0.015870988 -0.999874 -0.00034526698
vn 0.015870988 -0.999874 -0.00034526698
vn 0.015870988 -0.999874 -0.00034526698
vn 0.015870988 -0.999874 -0.00034526698
vn 0.015870988 -0.999874 -0.00034526698
vn 0.015870988 -0.999874 -0.00034526698
vn 0.015870988 -0.999874 -0.00034526698
vn 0.015870988 -0.999874 -0.00034526698
vn 0.015870988 -0.999874 -0.00034526698
vn 0.015870988 -0.999874 -0.00034526698
vn 0.015870988 -0.999874 -0.00034526698
vn 0.015870988 -0.999874 -0.00034526698
vn 0.015870988 -0.999874 -0.00034526698
vn 0.015870988 -0.999874 -0.00034526698
vn 0.015870988 -0.999874 -0.00034526698
vn 0.015870988 -0.999874 -0.00034526698
vn 0.015870988 -0.999874 -0.00034526698
vn 0.015870988 -0.999874 -0.00034526698
vn 0.015870988 -0.999874 -0.00034526698
vn 0.015870988 -0.999874 -0.00034526698
vn 0.015870988 -0.999874 -0.00034526698
vn 0.015870988 -0.999874 -0.00034526698
vn 0.015870988 -0.999874 -0.00034526698
vn 0.015870988 -0.999874 -0.00034526698
vn 0.015870988 -0.999874 -0.00034526698
vn 0.015870988 -0.999874 -0.00034526698
vn 0.015870988 -0.999874 -0.00034526698
vn 0.015870988 -0.999874 -0.00034526698
vn -0.999874 -0.015870988 -0.00034665503
vn -0.999874 -0.015870988 -0.00034665503
vn -0.999874 -0.015870988 -0.00034665503
vn -0.999874 -0.015870988 -0.00034665503
vn -0.999874 -0.015870988 -0.00034665503
vn -0.999874 -0.015870988 -0.00034665503
vn -0.999874 -0.015870988 -0.00034665503
vn -0.999874 -0.015870988 -0.00034665503
vn -0.999874 -0.015870988 -0.00034665503
vn -0.999874 -0.015870988 -0.00034665503
vn -0.999874 -0.015870988 -0.00034665503
vn -0.999874 -0.015870988 -0.00034665503
vn -0.999874 -0.015870988 -0.00034665503
vn -0.999874 -0.015870988 -0.00034665503
vn -0.999874 -0.015870988 -0.00034665503
vn -0.999874 -0.015870988 -0.00034665503
vn -0.8411639 -0.5237435 -0.13467027
vn -0.8411639 -0.5237435 -0.13467027
vn -0.8411639 -0.5237435 -0.13467027
vn -0.8411639 -0.5237435 -0.13467027
vn -0.8411639 -0.5237435 -0.13467027
vn -0.8411639 -0.5237435 -0.13467027
vn -0.8411639 -0.5237435 -0.13467027
vn -0.8411639 -0.5237435 -0.13467027
vn -0.99886817 -0.04756513 -0
vn -0.99886817 -0.04756513 -0
vn -0.99886817 -0.04756513 -0
vn -0.99886817 -0.04756513 -0
vn -0.99886817 -0.04756513 -0
vn -0.99886817 -0.04756513 -0
vn -0.015871048 0.999874 -0.00034526698
vn -0.015871048 0.999874 -0.00034526698
vn -0.015871048 0.999874 -0.00034526698
vn -0.015871048 0.999874 -0.00034526698
vn -0.015871048 0.999874 -0.00034526698
vn -0.015871048 0.999874 -0.00034526698
vn -0.015871048 0.999874 -0.00034526698
vn -0.015871048 0.999874 -0.00034526698
vn -0.015871048 0.999874 -0.00034526698
vn -0.015871048 0.999874 -0.00034526698
vn -0.015871048 0.999874 -0.00034526698
vn -0.015871048 0.999874 -0.00034526698
vn 0.015870988 0.999874 -0.00034526698
vn 0.015870988 0.999874 -0.00034526698
vn 0.015870988 0.999874 -0.00034526698
vn 0.015870988 0.999874 -0.00034526698
vn 0.015870988 0.999874 -0.00034526698
vn 0.015870988 0.999874 -0.00034526698
vn -0.42808634 0.9037378 -0
vn -0.42808634 0.9037378 -0
vn -0.42808634 0.9037378 -0
vn -0.42808634 0.9037378 -0
vn -0.42808634 0.9037378 -0
vn -0.42808634 0.9037378 -0
vn -0.42808634 0.9037378 -0
vn -0.42808634 0.9037378 -0
vn 0.015870988 0.999874 -0.00034526698
vn 0.015870988 0.999874 -0.00034526698
vn 0.015870988 0.999874 -0.00034526698
vn 0.015870988 0.999874 -0.00034526698
vn 0.015870988 0.999874 -0.00034526698
vn 0.015870988 0.999874 -0.00034526698
vn 0.015870988 0.999874 -0.00034526698
vn 0.015870988 0.999874 -0.00034526698
vn 0.015870988 0.999874 -0.00034526698
vn 0.015870988 0.999874 -0.00034526698
vn 0.015870988 0.999874 -0.00034526698
vn 0.015870988 0.999874 -0.00034526698
vn 0.015870988 0.999874 -0.00034526698
vn 0.015870988 0.999874 -0.00034526698
vn 0.015870988 0.999874 -0.00034526698
vn 0.015870988 0.999874 -0.00034526698
vn 0.015870988 0.999874 -0.00034526698
vn 0.015870988 0.999874 -0.00034526698
vn 0.015870988 0.999874 -0.00034526698
vn 0.015870988 0.999874 -0.00034526698
vn 0.015870988 0.999874 -0.00034526698
vn 0.015870988 0.999874 -0.00034526698
vn 0.015870988 0.999874 -0.00034526698
vn 0.015870988 0.999874 -0.00034526698
vn -0.015871048 0.07935512 0.9967201
vn -0.015871048 0.047613025 0.9987398
vn -0.015871048 0.1110971 0.9936828
vn -0.015871048 0.07935512 0.9967201
vn -0.015871048 0.015871048 0.99974805
vn -0.015871048 0.1428392 0.98961866
vn -0.015871048 0.20632327 0.97835517
vn 0.015870988 0.1110971 0.9936828
vn 0.015870988 0.1428392 0.98961866
vn 0.015870988 0.1110971 0.9936828
vn 0.015870988 0.015871048 0.99974805
vn 0.047613025 0.015871048 0.9987398
vn 0.047613025 0.20632327 0.9773248
vn 0.07935506 -0.07935506 0.9936828
vn 0.07935506 -0.17458117 0.9814398
vn 0.047613025 -0.1110971 0.99266833
vn 0.047613025 -0.07935506 0.9957087
vn -0.015871048 -0.1110971 0.9936828
vn -0.015871048 -0.17458117 0.98451483
vn -0.1110971 0.015871048 0.9936828
vn -0.07935512 -0.07935506 0.9936828
vn -0.07935512 0.1110971 0.9906362
vn 0.015870988 0.1110971 0.9936828
vn 0.015870988 0.1110971 0.9936828
vn 0.015870988 0.1110971 0.9936828
vn 0.07935506 -0.1110971 0.9906362
vn 0.047613025 -0.07935506 0.9957087
vn 0.047613025 -0.1110971 0.99266833
vn -0.015871048 0.1428392 0.98961866
vn 0.015870988 0.047613025 0.9987398
vn 0.015870988 0.1428392 0.98961866
vn 0.015870988 0.1110971 0.9936828
vn 0.047613025 0.07935512 0.9957087
vn 0.047613025 -0.07935506 0.9957087
vn 0.047613025 -0.1110971 0.99266833
vn 0.015870988 0.1110971 0.9936828
vn -0.015871048 0.07935512 0.9967201
vn 0.015870988 -0.1110971 0.9936828
vn -0.047613025 -0.1110971 0.99266833
vn -0.1110971 0.07935512 0.9906362
vn 0.015870988 0.1428392 0.98961866
vn 0.015870988 0.1428392 0.98961866
vn -0.015871048 0.07935512 0.9967201
vn 0.015870988 0.1110971 0.9936828
vn 0.015870988 0.07935512 0.9967201
vn 0.047613025 -0.07935506 0.9957087
vn 0.047613025 -0.07935506 0.9957087
vn 0.015870988 -0.1110971 0.9936828
vn -0.047613025 -0.1110971 0.99266833
vn -0.07935512 0.047613025 0.9957087
vn -0.07935512 0.1110971 0.9906362
vn -0.1110971 0.1428392 0.98349094
vn -0.1428392 0.17458117 0.9742271
vn -0.20632327 0.1428392 0.9680019
vn -0.1428392 0.17458117 0.9742271
vn -0.17458117 0.17458117 0.9690422
vn -0.17458117 0.17458117 0.9690422
vn 0.14283913 -0.1110971 0.98349094
vn -0.1110971 0.07935512 0.9906362
vn -0.1428392 0.1110971 0.98349094
vn -0.047613025 -0.015870988 0.9987398
vn 0.015870988 0.047613025 0.9987398
vn -0.07935512 0.047613025 0.9957087
vn 0.07935506 -0.047613025 0.9957087
vn 0.047613025 0.015871048 0.9987398
vn 0.047613025 0.1110971 0.99266833
vn 0.07935506 0.047613025 0.9957087
vn 0.07935506 0.047613025 0.9957087
vn 0.047613025 0.1110971 0.99266833
vn 0.1110971 0.07935512 0.9906362
vn 0.1110971 0.07935512 0.9906362
vn 0.07935506 0.047613025 0.9957087
vn 0.1110971 0.07935512 0.9906362
vn 0.1110971 0.07935512 0.9906362
vn 0.1110971 0.047613025 0.99266833
vn 0.1110971 0.047613025 0.99266833
vn 0.047613025 0.07935512 0.9957087
vn 0.07935506 0.047613025 0.9957087
vn 0.047613025 0.1428392 0.9886
vn 0.07935506 0.1110971 0.9906362
vn 0.07935506 0.1110971 0.9906362
vn 0.047613025 0.1428392 0.9886
vn 0.07935506 -0.015870988 0.9967201
vn 0.047613025 0.1110971 0.99266833
vn 0.07935506 -0.1110971 0.9906362
vn 0.17458117 -0.015870988 0.98451483
vn 0.07935506 -0.26980728 0.9596389
vn 0.1110971 -0.1110971 0.9875803
vn -0.047613025 -0.30154932 0.952261
vn 0.23806524 -0.26980728 0.9330214
vn -0.047613025 -0.39677536 0.91668004
vn 0.14283913 -0.30154932 0.94269025
vn -0.047613025 -0.36503333 0.92977613
vn 0.07935506 -0.36503333 0.9276063
vn -0.047613025 -0.4285174 0.9022781
vn -0.047613025 -0.39677536 0.91668004
vn 0.07935506 -0.4285174 0.900042
vn -0.1428392 -0.4285174 0.89217144
vn 0.07935506 -0.4285174 0.900042
vn -0.1110971 -0.4285174 0.8966774
vn 0.14283913 -0.4285174 0.89217144
vn -0.07935512 -0.46025944 0.8842308
vn 0.1110971 -0.33329135 0.93625546
vn -0.015871048 -0.46025944 0.8876426
vn 0.1110971 -0.30154932 0.94695586
vn 0.23806524 -0.07935506 0.9680019
vn 0.23806524 0.07935512 0.9680019
vn 0.23806524 -0.26980728 0.9330214
vn 0.2063232 -0.4285174 0.8796611
vn 0.23806524 0.015871048 0.97111946
vn 0.23806524 0.047613025 0.9700814
vn 0.23806524 -0.14283913 0.96068823
vn 0.2063232 -0.26980728 0.9405502
vn 0.23806524 0.015871048 0.97111946
vn 0.23806524 0.047613025 0.9700814
vn 0.23806524 -0.14283913 0.96068823
vn 0.23806524 -0.30154932 0.9232513
vn 0.23806524 0.015871048 0.97111946
vn 0.23806524 0.047613025 0.9700814
vn 0.23806524 -0.17458117 0.9554299
vn 0.23806524 -0.33329135 0.9122729
vn 0.23806524 0.015871048 0.97111946
vn 0.2063232 0.047613025 0.9773248
vn 0.2063232 -0.17458117 0.9627835
vn 0.17458117 -0.26980728 0.94695586
vn 0.17458117 -0.23806524 0.9554299
vn 0.17458117 0.07935512 0.9814398
vn 0.17458117 0.07935512 0.9814398
vn 0.17458117 -0.07935506 0.9814398
vn 0.047613025 -0.17458117 0.98349094
vn 0.14283913 0.047613025 0.9886
vn 0.1110971 0.07935512 0.9906362
vn 0.047613025 -0.23806524 0.9700814
vn -0.07935512 -0.23806524 0.9680019
vn -0.047613025 0.047613025 0.99773043
vn -0.015871048 0.047613025 0.9987398
vn -0.07935512 -0.1110971 0.9906362
vn -0.1110971 -0.23806524 0.96487427
vn -0.07935512 0.015871048 0.9967201
vn -0.1110971 0.047613025 0.99266833
vn -0.1110971 -0.17458117 0.97835517
vn -0.1428392 -0.39677536 0.9067339
vn -0.1428392 0.015871048 0.98961866
vn -0.1428392 0.015871048 0.98961866
vn -0.1428392 -0.2063232 0.9680019
vn -0.1428392 -0.4285174 0.89217144
vn -0.1428392 0.015871048 0.98961866
vn -0.1428392 0.015871048 0.98961866
vn -0.17458117 0.07935512 0.9814398
vn -0.1428392 -0.2063232 0.9680019
vn -0.1428392 -0.49200147 0.85879654
vn -0.17458117 0.07935512 0.9814398
vn -0.17458117 -0.23806524 0.9554299
vn -0.047613025 -0.49200147 0.8692914
vn -0.1428392 0.07935512 0.98655957
vn -0.1110971 0.07935512 0.9906362
vn -0.015871048 0.1428392 0.98961866
vn -0.047613025 -0.047613025 0.99773043
vn 0.047613025 -0.46025944 0.8865068
vn 0.015870988 0.1428392 0.98961866
vn 0.015870988 0.1428392 0.98961866
vn 0.047613025 -0.17458117 0.98349094
vn 0.015870988 0.1428392 0.98961866
vn -0.07935512 0.047613025 0.9957087
vn -0.047613025 -0.2063232 0.9773248
vn -0.047613025 -0.30154932 0.952261
vn -0.015871048 -0.17458117 0.98451483
vn -0.07935512 -0.015870988 0.9967201
vn -0.015871048 -0.14283913 0.98961866
vn -0.1428392 -0.26980728 0.952261
vn -0.1110971 -0.2063232 0.97215647
vn -0.42851746 -0.14283913 0.8921714
vn -0.20632327 -0.17458117 0.9627835
vn -0.17458117 0.07935512 0.9814398
vn -0.20632327 -0.015870988 0.97835517
vn -0.17458117 -0.047613025 0.98349094
vn -0.20632327 0.047613025 0.9773248
vn -0.17458117 -0.047613025 0.98349094
vn -0.17458117 0.07935512 0.9814398
vn -0.17458117 0.047613025 0.98349094
vn -0.07935512 -0.015870988 0.9967201
vn -0.047613025 -0.23806524 0.9700814
vn -0.17458117 -0.14283913 0.9742271
vn -0.047613025 -0.14283913 0.9886
vn 0.015870988 -0.26980728 0.9627835
vn -0.047613025 -0.23806524 0.9700814
vn 0.015870988 -0.30154932 0.9533185
vn -0.047613025 -0.26980728 0.96173644
vn -0.047613025 -0.23806524 0.9700814
vn 0.015870988 -0.07935506 0.9967201
vn -0.015871048 -0.23806524 0.97111946
vn 0.015870988 -0.23806524 0.97111946
vn 0.015870988 -0.07935506 0.9967201
vn 0.015870988 -0.07935506 0.9967201
vn 0.015870988 -0.07935506 0.9967201
vn 0.047613025 0.015871048 0.9987398
vn 0.047613025 0.015871048 0.9987398
vn 0.015870988 0.015871048 0.99974805
vn 0.047613025 0.07935512 0.9957087
vn 0.047613025 0.015871048 0.9987398
vn 0.047613025 0.07935512 0.9957087
vn -0.047613025 0.07935512 0.9957087
vn 0.047613025 0.1110971 0.99266833
vn 0.015870988 0.07935512 0.9967201
vn -0.047613025 0.07935512 0.9957087
vn -0.047613025 0.1110971 0.99266833
vn -0.047613025 0.07935512 0.9957087
vn -0.07935512 0.07935512 0.9936828
vn -0.047613025 0.1110971 0.99266833
vn -0.047613025 0.1110971 0.99266833
vn -0.047613025 0.1110971 0.99266833
vn -0.015871048 0.07935512 0.9967201
vn -0.015871048 0.1110971 0.9936828
vn -0.015871048 0.1110971 0.9936828
vn 0.015870988 0.07935512 0.9967201
vn -0.015871048 0.07935512 0.9967201
vn 0.015870988 0.047613025 0.9987398
vn -0.047613025 0.07935512 0.9957087
vn -0.047613025 0.07935512 0.9957087
vn -0.07935512 0.047613025 0.9957087
vn -0.07935512 0.07935512 0.9936828
vn -0.1110971 0.1110971 0.9875803
vn -0.1110971 0.07935512 0.9906362
vn -0.1428392 0.1428392 0.9793845
vn -0.1428392 0.23806524 0.96068823
vn -0.1110971 0.20632327 0.97215647
vn -0.07935512 0.23806524 0.9680019
vn -0.07935512 0.26980734 0.9596389
vn -0.07935512 0.23806524 0.9680019
vn -0.047613025 0.23806524 0.9700814
vn -0.047613025 0.23806524 0.9700814
vn -0.015871048 0.26980734 0.9627835
vn -0.047613025 0.23806524 0.9700814
vn -0.047613025 0.26980734 0.96173644
vn -0.015871048 0.26980734 0.9627835
vn 0.015870988 0.26980734 0.9627835
vn -0.015871048 0.30154932 0.9533185
vn -0.015871048 0.26980734 0.9627835
vn 0.015870988 0.30154932 0.9533185
vn 0.015870988 0.26980734 0.9627835
vn 0.015870988 0.30154932 0.9533185
vn 0.015870988 0.26980734 0.9627835
vn 0.015870988 0.30154932 0.9533185
vn 0.015870988 0.30154932 0.9533185
vn 0.047613025 0.30154932 0.952261
vn 0.015870988 0.30154932 0.9533185
vn 0.047613025 0.30154932 0.952261
vn 0.015870988 0.30154932 0.9533185
vn 0.015870988 0.3332913 0.9426903
vn 0.015870988 0.30154932 0.9533185
vn 0.015870988 0.23806524 0.97111946
vn 0.047613025 0.17458117 0.98349094
vn 0.015870988 0.30154932 0.9533185
vn 0.015870988 0.1428392 0.98961866
vn 0.015870988 0.1428392 0.98961866
vn -0.015871048 0.1110971 0.9936828
vn -0.015871048 0.1428392 0.98961866
vn -0.015871048 0.1110971 0.9936828
vn -0.047613025 0.1110971 0.99266833
vn -0.047613025 0.1110971 0.99266833
vn -0.015871048 0.047613025 0.9987398
vn -0.015871048 0.047613025 0.9987398
vn -0.015871048 0.047613025 0.9987398
g tb_outline_04_mesh_0
f 3/3/3 2/2/2 1/1/1
f 4/4/4 3/3/3 1/1/1
f 5/5/5 3/3/3 4/4/4
f 6/6/6 5/5/5 4/4/4
f 7/7/7 5/5/5 6/6/6
f 8/8/8 7/7/7 6/6/6
f 9/9/9 7/7/7 8/8/8
f 10/10/10 9/9/9 8/8/8
f 11/11/11 9/9/9 10/10/10
f 12/12/12 11/11/11 10/10/10
f 13/13/13 11/11/11 12/12/12
f 14/14/14 13/13/13 12/12/12
f 15/15/15 13/13/13 14/14/14
f 16/16/16 15/15/15 14/14/14
f 17/17/17 15/15/15 16/16/16
f 18/18/18 17/17/17 16/16/16
f 19/19/19 17/17/17 18/18/18
f 20/20/20 19/19/19 18/18/18
f 21/21/21 19/19/19 20/20/20
f 22/22/22 21/21/21 20/20/20
f 23/23/23 21/21/21 22/22/22
f 24/24/24 23/23/23 22/22/22
f 25/25/25 23/23/23 24/24/24
f 26/26/26 25/25/25 24/24/24
f 29/29/29 28/28/28 27/27/27
f 30/30/30 29/29/29 27/27/27
f 31/31/31 29/29/29 30/30/30
f 32/32/32 31/31/31 30/30/30
f 33/33/33 31/31/31 32/32/32
f 34/34/34 33/33/33 32/32/32
f 37/37/37 36/36/36 35/35/35
f 38/38/38 37/37/37 35/35/35
f 39/39/39 37/37/37 38/38/38
f 40/40/40 39/39/39 38/38/38
f 41/41/41 39/39/39 40/40/40
f 42/42/42 41/41/41 40/40/40
f 43/43/43 41/41/41 42/42/42
f 44/44/44 43/43/43 42/42/42
f 45/45/45 43/43/43 44/44/44
f 46/46/46 45/45/45 44/44/44
f 47/47/47 45/45/45 46/46/46
f 48/48/48 47/47/47 46/46/46
f 49/49/49 47/47/47 48/48/48
f 50/50/50 49/49/49 48/48/48
f 51/51/51 49/49/49 50/50/50
f 52/52/52 51/51/51 50/50/50
f 55/55/55 54/54/54 53/53/53
f 56/56/56 55/55/55 53/53/53
f 57/57/57 55/55/55 56/56/56
f 58/58/58 57/57/57 56/56/56
f 61/61/61 60/60/60 59/59/59
f 62/62/62 61/61/61 59/59/59
f 63/63/63 61/61/61 62/62/62
f 64/64/64 63/63/63 62/62/62
f 65/65/65 63/63/63 64/64/64
f 66/66/66 65/65/65 64/64/64
f 69/69/69 68/68/68 67/67/67
f 70/70/70 69/69/69 67/67/67
f 71/71/71 69/69/69 70/70/70
f 72/72/72 71/71/71 70/70/70
f 73/73/73 71/71/71 72/72/72
f 74/74/74 73/73/73 72/72/72
f 75/75/75 73/73/73 74/74/74
f 76/76/76 75/75/75 74/74/74
f 77/77/77 75/75/75 76/76/76
f 78/78/78 77/77/77 76/76/76
f 79/79/79 77/77/77 78/78/78
f 80/80/80 79/79/79 78/78/78
f 81/81/81 79/79/79 80/80/80
f 82/82/82 81/81/81 80/80/80
f 83/83/83 81/81/81 82/82/82
f 84/84/84 83/83/83 82/82/82
f 87/87/87 86/86/86 85/85/85
f 88/88/88 87/87/87 85/85/85
f 89/89/89 87/87/87 88/88/88
f 90/90/90 89/89/89 88/88/88
f 91/91/91 89/89/89 90/90/90
f 92/92/92 91/91/91 90/90/90
f 93/93/93 91/91/91 92/92/92
f 94/94/94 93/93/93 92/92/92
f 95/95/95 93/93/93 94/94/94
f 96/96/96 95/95/95 94/94/94
f 97/97/97 95/95/95 96/96/96
f 98/98/98 97/97/97 96/96/96
f 99/99/99 97/97/97 98/98/98
f 100/100/100 99/99/99 98/98/98
f 101/101/101 99/99/99 100/100/100
f 102/102/102 101/101/101 100/100/100
f 103/103/103 101/101/101 102/102/102
f 104/104/104 103/103/103 102/102/102
f 105/105/105 103/103/103 104/104/104
f 106/106/106 105/105/105 104/104/104
f 107/107/107 105/105/105 106/106/106
f 108/108/108 107/107/107 106/106/106
f 109/109/109 107/107/107 108/108/108
f 110/110/110 109/109/109 108/108/108
f 111/111/111 109/109/109 110/110/110
f 112/112/112 111/111/111 110/110/110
f 113/113/113 111/111/111 112/112/112
f 114/114/114 113/113/113 112/112/112
f 115/115/115 113/113/113 114/114/114
f 116/116/116 115/115/115 114/114/114
f 117/117/117 115/115/115 116/116/116
f 118/118/118 117/117/117 116/116/116
f 119/119/119 117/117/117 118/118/118
f 120/120/120 119/119/119 118/118/118
f 123/123/123 122/122/122 121/121/121
f 124/124/124 123/123/123 121/121/121
f 125/125/125 123/123/123 124/124/124
f 126/126/126 125/125/125 124/124/124
f 127/127/127 125/125/125 126/126/126
f 128/128/128 127/127/127 126/126/126
f 129/129/129 127/127/127 128/128/128
f 130/130/130 129/129/129 128/128/128
f 131/131/131 129/129/129 130/130/130
f 132/132/132 131/131/131 130/130/130
f 133/133/133 131/131/131 132/132/132
f 134/134/134 133/133/133 132/132/132
f 135/135/135 133/133/133 134/134/134
f 136/136/136 135/135/135 134/134/134
f 137/137/137 135/135/135 136/136/136
f 138/138/138 137/137/137 136/136/136
f 139/139/139 137/137/137 138/138/138
f 140/140/140 139/139/139 138/138/138
f 143/143/143 142/142/142 141/141/141
f 144/144/144 143/143/143 141/141/141
f 145/145/145 143/143/143 144/144/144
f 146/146/146 145/145/145 144/144/144
f 147/147/147 145/145/145 146/146/146
f 148/148/148 147/147/147 146/146/146
f 149/149/149 147/147/147 148/148/148
f 150/150/150 149/149/149 148/148/148
f 151/151/151 149/149/149 150/150/150
f 152/152/152 151/151/151 150/150/150
f 155/155/155 154/154/154 153/153/153
f 156/156/156 155/155/155 153/153/153
f 157/157/157 155/155/155 156/156/156
f 158/158/158 157/157/157 156/156/156
f 159/159/159 157/157/157 158/158/158
f 160/160/160 159/159/159 158/158/158
f 161/161/161 159/159/159 160/160/160
f 162/162/162 161/161/161 160/160/160
f 163/163/163 161/161/161 162/162/162
f 164/164/164 163/163/163 162/162/162
f 167/167/167 166/166/166 165/165/165
f 168/168/168 167/167/167 165/165/165
f 169/169/169 167/167/167 168/168/168
f 170/170/170 169/169/169 168/168/168
f 171/171/171 169/169/169 170/170/170
f 172/172/172 171/171/171 170/170/170
f 173/173/173 171/171/171 172/172/172
f 174/174/174 173/173/173 172/172/172
f 175/175/175 173/173/173 174/174/174
f 176/176/176 175/175/175 174/174/174
f 177/177/177 175/175/175 176/176/176
f 178/178/178 177/177/177 176/176/176
f 179/179/179 177/177/177 178/178/178
f 180/180/180 179/179/179 178/178/178
f 181/181/181 179/179/179 180/180/180
f 182/182/182 181/181/181 180/180/180
f 183/183/183 181/181/181 182/182/182
f 184/184/184 183/183/183 182/182/182
f 187/187/187 186/186/186 185/185/185
f 188/188/188 187/187/187 185/185/185
f 189/189/189 187/187/187 188/188/188
f 190/190/190 189/189/189 188/188/188
f 191/191/191 189/189/189 190/190/190
f 192/192/192 191/191/191 190/190/190
f 193/193/193 191/191/191 192/192/192
f 194/194/194 193/193/193 192/192/192
f 195/195/195 193/193/193 194/194/194
f 196/196/196 195/195/195 194/194/194
f 197/197/197 195/195/195 196/196/196
f 198/198/198 197/197/197 196/196/196
f 199/199/199 197/197/197 198/198/198
f 200/200/200 199/199/199 198/198/198
f 201/201/201 199/199/199 200/200/200
f 202/202/202 201/201/201 200/200/200
f 203/203/203 201/201/201 202/202/202
f 204/204/204 203/203/203 202/202/202
f 205/205/205 203/203/203 204/204/204
f 206/206/206 205/205/205 204/204/204
f 207/207/207 205/205/205 206/206/206
f 208/208/208 207/207/207 206/206/206
f 209/209/209 207/207/207 208/208/208
f 210/210/210 209/209/209 208/208/208
f 211/211/211 209/209/209 210/210/210
f 212/212/212 211/211/211 210/210/210
f 213/213/213 211/211/211 212/212/212
f 214/214/214 213/213/213 212/212/212
f 215/215/215 213/213/213 214/214/214
f 216/216/216 215/215/215 214/214/214
f 217/217/217 215/215/215 216/216/216
f 218/218/218 217/217/217 216/216/216
f 221/221/221 220/220/220 219/219/219
f 222/222/222 221/221/221 219/219/219
f 223/223/223 221/221/221 222/222/222
f 224/224/224 223/223/223 222/222/222
f 225/225/225 223/223/223 224/224/224
f 226/226/226 225/225/225 224/224/224
f 227/227/227 225/225/225 226/226/226
f 228/228/228 227/227/227 226/226/226
f 229/229/229 227/227/227 228/228/228
f 230/230/230 229/229/229 228/228/228
f 231/231/231 229/229/229 230/230/230
f 232/232/232 231/231/231 230/230/230
f 233/233/233 231/231/231 232/232/232
f 234/234/234 233/233/233 232/232/232
f 237/237/237 236/236/236 235/235/235
f 238/238/238 237/237/237 235/235/235
f 239/239/239 237/237/237 238/238/238
f 240/240/240 239/239/239 238/238/238
f 241/241/241 239/239/239 240/240/240
f 242/242/242 241/241/241 240/240/240
f 245/245/245 244/244/244 243/243/243
f 246/246/246 245/245/245 243/243/243
f 247/247/247 245/245/245 246/246/246
f 248/248/248 247/247/247 246/246/246
f 251/251/251 250/250/250 249/249/249
f 252/252/252 251/251/251 249/249/249
f 253/253/253 251/251/251 252/252/252
f 254/254/254 253/253/253 252/252/252
f 255/255/255 253/253/253 254/254/254
f 256/256/256 255/255/255 254/254/254
f 257/257/257 255/255/255 256/256/256
f 258/258/258 257/257/257 256/256/256
f 259/259/259 257/257/257 258/258/258
f 260/260/260 259/259/259 258/258/258
f 261/261/261 259/259/259 260/260/260
f 262/262/262 261/261/261 260/260/260
f 263/263/263 261/261/261 262/262/262
f 264/264/264 263/263/263 262/262/262
f 265/265/265 263/263/263 264/264/264
f 266/266/266 265/265/265 264/264/264
f 269/269/269 268/268/268 267/267/267
f 270/270/270 269/269/269 267/267/267
f 271/271/271 269/269/269 270/270/270
f 272/272/272 271/271/271 270/270/270
f 273/273/273 271/271/271 272/272/272
f 274/274/274 273/273/273 272/272/272
f 277/277/277 276/276/276 275/275/275
f 278/278/278 277/277/277 275/275/275
f 279/279/279 277/277/277 278/278/278
f 280/280/280 279/279/279 278/278/278
f 281/281/281 279/279/279 280/280/280
f 282/282/282 281/281/281 280/280/280
f 283/283/283 281/281/281 282/282/282
f 284/284/284 283/283/283 282/282/282
f 285/285/285 283/283/283 284/284/284
f 286/286/286 285/285/285 284/284/284
f 287/287/287 285/285/285 286/286/286
f 288/288/288 287/287/287 286/286/286
f 289/289/289 287/287/287 288/288/288
f 290/290/290 289/289/289 288/288/288
f 291/291/291 289/289/289 290/290/290
f 292/292/292 291/291/291 290/290/290
f 293/293/293 291/291/291 292/292/292
f 294/294/294 293/293/293 292/292/292
f 295/295/295 293/293/293 294/294/294
f 296/296/296 295/295/295 294/294/294
f 297/297/297 295/295/295 296/296/296
f 298/298/298 297/297/297 296/296/296
f 301/301/301 300/300/300 299/299/299
f 299/299/299 300/300/300 302/302/302
f 302/302/302 303/303/303 299/299/299
f 303/303/303 302/302/302 304/304/304
f 304/304/304 305/305/305 303/303/303
f 305/305/305 304/304/304 306/306/306
f 306/306/306 307/307/307 305/305/305
f 307/307/307 306/306/306 308/308/308
f 308/308/308 309/309/309 307/307/307
f 309/309/309 308/308/308 310/310/310
f 310/310/310 311/311/311 309/309/309
f 311/311/311 310/310/310 312/312/312
f 312/312/312 313/313/313 311/311/311
f 313/313/313 312/312/312 314/314/314
f 314/314/314 315/315/315 313/313/313
f 315/315/315 314/314/314 316/316/316
f 316/316/316 317/317/317 315/315/315
f 317/317/317 316/316/316 318/318/318
f 318/318/318 319/319/319 317/317/317
f 319/319/319 318/318/318 320/320/320
f 321/321/321 305/305/305 307/307/307
f 322/322/322 307/307/307 309/309/309
f 322/322/322 321/321/321 307/307/307
f 323/323/323 309/309/309 311/311/311
f 323/323/323 322/322/322 309/309/309
f 324/324/324 311/311/311 313/313/313
f 324/324/324 323/323/323 311/311/311
f 313/313/313 315/315/315 325/325/325
f 325/325/325 324/324/324 313/313/313
f 315/315/315 317/317/317 326/326/326
f 315/315/315 326/326/326 325/325/325
f 321/321/321 327/327/327 305/305/305
f 327/327/327 303/303/303 305/305/305
f 327/327/327 328/328/328 303/303/303
f 328/328/328 299/299/299 303/303/303
f 329/329/329 321/321/321 322/322/322
f 330/330/330 322/322/322 323/323/323
f 322/322/322 330/330/330 329/329/329
f 331/331/331 323/323/323 324/324/324
f 323/323/323 331/331/331 330/330/330
f 332/332/332 324/324/324 325/325/325
f 324/324/324 332/332/332 331/331/331
f 333/333/333 325/325/325 326/326/326
f 325/325/325 333/333/333 332/332/332
f 334/334/334 327/327/327 321/321/321
f 321/321/321 329/329/329 334/334/334
f 335/335/335 328/328/328 327/327/327
f 327/327/327 334/334/334 335/335/335
f 326/326/326 336/336/336 333/333/333
f 336/336/336 326/326/326 317/317/317
f 317/317/317 337/337/337 336/336/336
f 337/337/337 317/317/317 319/319/319
f 319/319/319 338/338/338 337/337/337
f 320/320/320 338/338/338 319/319/319
f 339/339/339 334/334/334 329/329/329
f 329/329/329 340/340/340 339/339/339
f 334/334/334 339/339/339 341/341/341
f 341/341/341 335/335/335 334/334/334
f 340/340/340 329/329/329 330/330/330
f 330/330/330 342/342/342 340/340/340
f 342/342/342 330/330/330 331/331/331
f 331/331/331 343/343/343 342/342/342
f 343/343/343 331/331/331 332/332/332
f 332/332/332 344/344/344 343/343/343
f 344/344/344 332/332/332 333/333/333
f 333/333/333 345/345/345 344/344/344
f 346/346/346 345/345/345 333/333/333
f 333/333/333 336/336/336 346/346/346
f 347/347/347 346/346/346 336/336/336
f 336/336/336 337/337/337 347/347/347
f 348/348/348 347/347/347 337/337/337
f 337/337/337 338/338/338 348/348/348
f 349/349/349 348/348/348 338/338/338
f 338/338/338 320/320/320 349/349/349
f 349/349/349 320/320/320 350/350/350
f 350/350/350 351/351/351 349/349/349
f 352/352/352 351/351/351 350/350/350
f 353/353/353 350/350/350 320/320/320
f 320/320/320 354/354/354 353/353/353
f 350/350/350 355/355/355 352/352/352
f 355/355/355 350/350/350 353/353/353
f 356/356/356 352/352/352 355/355/355
f 357/357/357 353/353/353 354/354/354
f 353/353/353 357/357/357 355/355/355
f 354/354/354 358/358/358 357/357/357
f 355/355/355 359/359/359 356/356/356
f 359/359/359 355/355/355 357/357/357
f 360/360/360 356/356/356 359/359/359
f 361/361/361 357/357/357 358/358/358
f 357/357/357 361/361/361 359/359/359
f 358/358/358 362/362/362 361/361/361
f 359/359/359 363/363/363 360/360/360
f 363/363/363 359/359/359 361/361/361
f 364/364/364 360/360/360 363/363/363
f 365/365/365 361/361/361 362/362/362
f 361/361/361 365/365/365 363/363/363
f 362/362/362 366/366/366 365/365/365
f 363/363/363 367/367/367 364/364/364
f 367/367/367 363/363/363 365/365/365
f 368/368/368 365/365/365 366/366/366
f 365/365/365 368/368/368 367/367/367
f 366/366/366 369/369/369 368/368/368
f 368/368/368 369/369/369 370/370/370
f 370/370/370 371/371/371 368/368/368
f 367/367/367 368/368/368 371/371/371
f 371/371/371 370/370/370 372/372/372
f 364/364/364 367/367/367 373/373/373
f 371/371/371 373/373/373 367/367/367
f 373/373/373 374/374/374 364/364/364
f 375/375/375 374/374/374 373/373/373
f 372/372/372 376/376/376 371/371/371
f 373/373/373 371/371/371 376/376/376
f 376/376/376 372/372/372 377/377/377
f 373/373/373 378/378/378 375/375/375
f 376/376/376 378/378/378 373/373/373
f 379/379/379 375/375/375 378/378/378
f 377/377/377 380/380/380 376/376/376
f 378/378/378 376/376/376 380/380/380
f 380/380/380 377/377/377 381/381/381
f 378/378/378 382/382/382 379/379/379
f 380/380/380 382/382/382 378/378/378
f 383/383/383 379/379/379 382/382/382
f 381/381/381 384/384/384 380/380/380
f 382/382/382 380/380/380 384/384/384
f 384/384/384 381/381/381 385/385/385
f 382/382/382 386/386/386 383/383/383
f 384/384/384 386/386/386 382/382/382
f 387/387/387 383/383/383 386/386/386
f 385/385/385 388/388/388 384/384/384
f 386/386/386 384/384/384 388/388/388
f 388/388/388 385/385/385 389/389/389
f 386/386/386 390/390/390 387/387/387
f 388/388/388 390/390/390 386/386/386
f 391/391/391 387/387/387 390/390/390
f 389/389/389 392/392/392 388/388/388
f 390/390/390 388/388/388 392/392/392
f 392/392/392 389/389/389 393/393/393
f 390/390/390 394/394/394 391/391/391
f 392/392/392 394/394/394 390/390/390
f 395/395/395 391/391/391 394/394/394
f 393/393/393 396/396/396 392/392/392
f 394/394/394 392/392/392 396/396/396
f 396/396/396 393/393/393 397/397/397
f 394/394/394 398/398/398 395/395/395
f 396/396/396 398/398/398 394/394/394
f 399/399/399 395/395/395 398/398/398
f 397/397/397 400/400/400 396/396/396
f 398/398/398 396/396/396 400/400/400
f 400/400/400 397/397/397 401/401/401
f 398/398/398 402/402/402 399/399/399
f 400/400/400 402/402/402 398/398/398
f 403/403/403 399/399/399 402/402/402
f 402/402/402 400/400/400 403/403/403
f 401/401/401 403/403/403 400/400/400
f 403/403/403 401/401/401 404/404/404
f 404/404/404 405/405/405 403/403/403
f 406/406/406 404/404/404 401/401/401
f 401/401/401 407/407/407 406/406/406
f 405/405/405 404/404/404 408/408/408
f 408/408/408 404/404/404 406/406/406
f 408/408/408 409/409/409 405/405/405
f 410/410/410 406/406/406 407/407/407
f 406/406/406 410/410/410 408/408/408
f 407/407/407 411/411/411 410/410/410
f 409/409/409 408/408/408 412/412/412
f 412/412/412 408/408/408 410/410/410
f 412/412/412 413/413/413 409/409/409
f 414/414/414 410/410/410 411/411/411
f 410/410/410 414/414/414 412/412/412
f 411/411/411 415/415/415 414/414/414
f 413/413/413 412/412/412 416/416/416
f 416/416/416 412/412/412 414/414/414
f 416/416/416 417/417/417 413/413/413
f 418/418/418 414/414/414 415/415/415
f 414/414/414 418/418/418 416/416/416
f 415/415/415 419/419/419 418/418/418
f 417/417/417 416/416/416 420/420/420
f 420/420/420 416/416/416 418/418/418
f 420/420/420 421/421/421 417/417/417
f 422/422/422 418/418/418 419/419/419
f 418/418/418 422/422/422 420/420/420
f 419/419/419 423/423/423 422/422/422
f 422/422/422 423/423/423 424/424/424
f 421/421/421 420/420/420 425/425/425
f 425/425/425 420/420/420 422/422/422
f 425/425/425 426/426/426 421/421/421
f 424/424/424 427/427/427 422/422/422
f 422/422/422 427/427/427 425/425/425
f 427/427/427 424/424/424 428/428/428
f 426/426/426 425/425/425 429/429/429
f 429/429/429 425/425/425 427/427/427
f 429/429/429 430/430/430 426/426/426
f 428/428/428 431/431/431 427/427/427
f 427/427/427 431/431/431 429/429/429
f 431/431/431 428/428/428 432/432/432
f 430/430/430 429/429/429 433/433/433
f 433/433/433 429/429/429 431/431/431
f 433/433/433 434/434/434 430/430/430
f 432/432/432 435/435/435 431/431/431
f 431/431/431 435/435/435 433/433/433
f 435/435/435 432/432/432 436/436/436
f 434/434/434 433/433/433 437/437/437
f 435/435/435 437/437/437 433/433/433
f 437/437/437 438/438/438 434/434/434
f 436/436/436 439/439/439 435/435/435
f 437/437/437 435/435/435 439/439/439
f 439/439/439 436/436/436 440/440/440
f 438/438/438 437/437/437 441/441/441
f 439/439/439 441/441/441 437/437/437
f 441/441/441 442/442/442 438/438/438
f 440/440/440 443/443/443 439/439/439
f 441/441/441 439/439/439 443/443/443
f 443/443/443 440/440/440 444/444/444
f 442/442/442 441/441/441 445/445/445
f 443/443/443 445/445/445 441/441/441
f 445/445/445 446/446/446 442/442/442
f 447/447/447 446/446/446 445/445/445
f 444/444/444 448/448/448 443/443/443
f 445/445/445 443/443/443 448/448/448
f 448/448/448 444/444/444 449/449/449
f 445/445/445 450/450/450 447/447/447
f 448/448/448 450/450/450 445/445/445
f 449/449/449 451/451/451 448/448/448
f 450/450/450 448/448/448 451/451/451
f 451/451/451 449/449/449 452/452/452
f 447/447/447 450/450/450 453/453/453
f 451/451/451 453/453/453 450/450/450
f 453/453/453 454/454/454 447/447/447
f 455/455/455 454/454/454 453/453/453
f 452/452/452 456/456/456 451/451/451
f 453/453/453 451/451/451 456/456/456
f 456/456/456 452/452/452 457/457/457
f 453/453/453 458/458/458 455/455/455
f 456/456/456 458/458/458 453/453/453
f 459/459/459 455/455/455 458/458/458
f 457/457/457 460/460/460 456/456/456
f 458/458/458 456/456/456 460/460/460
f 458/458/458 461/461/461 459/459/459
f 460/460/460 461/461/461 458/458/458
f 462/462/462 459/459/459 461/461/461
f 463/463/463 460/460/460 457/457/457
f 461/461/461 460/460/460 463/463/463
f 457/457/457 464/464/464 463/463/463
f 463/463/463 464/464/464 465/465/465
f 461/461/461 466/466/466 462/462/462
f 463/463/463 466/466/466 461/461/461
f 465/465/465 466/466/466 463/463/463
f 467/467/467 462/462/462 466/466/466
f 466/466/466 465/465/465 467/467/467
f 467/467/467 465/465/465 468/468/468
f 468/468/468 469/469/469 467/467/467
f 470/470/470 468/468/468 465/465/465
f 465/465/465 471/471/471 470/470/470
f 470/470/470 471/471/471 472/472/472
f 469/469/469 468/468/468 473/473/473
f 473/473/473 468/468/468 470/470/470
f 473/473/473 474/474/474 469/469/469
f 472/472/472 475/475/475 470/470/470
f 470/470/470 475/475/475 473/473/473
f 475/475/475 472/472/472 476/476/476
f 474/474/474 473/473/473 477/477/477
f 477/477/477 473/473/473 475/475/475
f 477/477/477 478/478/478 474/474/474
f 476/476/476 479/479/479 475/475/475
f 475/475/475 479/479/479 477/477/477
f 479/479/479 476/476/476 480/480/480
f 478/478/478 477/477/477 481/481/481
f 481/481/481 477/477/477 479/479/479
f 481/481/481 482/482/482 478/478/478
f 480/480/480 483/483/483 479/479/479
f 481/481/481 479/479/479 483/483/483
f 483/483/483 480/480/480 484/484/484
f 482/482/482 481/481/481 485/485/485
f 483/483/483 485/485/485 481/481/481
f 485/485/485 486/486/486 482/482/482
f 484/484/484 487/487/487 483/483/483
f 485/485/485 483/483/483 487/487/487
f 487/487/487 484/484/484 488/488/488
f 486/486/486 485/485/485 489/489/489
f 487/487/487 489/489/489 485/485/485
f 489/489/489 490/490/490 486/486/486
f 488/488/488 491/491/491 487/487/487
f 489/489/489 487/487/487 491/491/491
f 490/490/490 489/489/489 492/492/492
f 491/491/491 492/492/492 489/489/489
f 492/492/492 493/493/493 490/490/490
f 494/494/494 493/493/493 492/492/492
f 495/495/495 491/491/491 488/488/488
f 488/488/488 496/496/496 495/495/495
f 495/495/495 496/496/496 497/497/497
f 498/498/498 492/492/492 491/491/491
f 492/492/492 498/498/498 494/494/494
f 491/491/491 495/495/495 498/498/498
f 497/497/497 499/499/499 495/495/495
f 498/498/498 495/495/495 499/499/499
f 499/499/499 497/497/497 500/500/500
f 494/494/494 498/498/498 501/501/501
f 499/499/499 501/501/501 498/498/498
f 501/501/501 502/502/502 494/494/494
f 500/500/500 503/503/503 499/499/499
f 501/501/501 499/499/499 503/503/503
f 503/503/503 500/500/500 504/504/504
f 502/502/502 501/501/501 505/505/505
f 503/503/503 505/505/505 501/501/501
f 505/505/505 506/506/506 502/502/502
f 504/504/504 507/507/507 503/503/503
f 505/505/505 503/503/503 507/507/507
f 506/506/506 505/505/505 508/508/508
f 507/507/507 508/508/508 505/505/505
f 508/508/508 509/509/509 506/506/506
f 510/510/510 509/509/509 508/508/508
f 511/511/511 507/507/507 504/504/504
f 508/508/508 507/507/507 511/511/511
f 504/504/504 512/512/512 511/511/511
f 511/511/511 512/512/512 513/513/513
f 508/508/508 514/514/514 510/510/510
f 511/511/511 514/514/514 508/508/508
f 513/513/513 514/514/514 511/511/511
f 515/515/515 510/510/510 514/514/514
f 514/514/514 513/513/513 515/515/515
f 515/515/515 513/513/513 516/516/516
f 516/516/516 517/517/517 515/515/515
f 518/518/518 516/516/516 513/513/513
f 513/513/513 519/519/519 518/518/518
f 517/517/517 516/516/516 520/520/520
f 520/520/520 516/516/516 518/518/518
f 520/520/520 521/521/521 517/517/517
f 522/522/522 518/518/518 519/519/519
f 518/518/518 522/522/522 520/520/520
f 519/519/519 523/523/523 522/522/522
f 521/521/521 520/520/520 524/524/524
f 524/524/524 520/520/520 522/522/522
f 524/524/524 525/525/525 521/521/521
f 526/526/526 522/522/522 523/523/523
f 522/522/522 526/526/526 524/524/524
f 523/523/523 527/527/527 526/526/526
f 525/525/525 524/524/524 528/528/528
f 528/528/528 524/524/524 526/526/526
f 528/528/528 529/529/529 525/525/525
f 530/530/530 529/529/529 528/528/528
f 531/531/531 526/526/526 527/527/527
f 526/526/526 531/531/531 528/528/528
f 527/527/527 532/532/532 531/531/531
f 528/528/528 533/533/533 530/530/530
f 533/533/533 528/528/528 531/531/531
f 534/534/534 530/530/530 533/533/533
f 535/535/535 531/531/531 532/532/532
f 531/531/531 535/535/535 533/533/533
f 532/532/532 536/536/536 535/535/535
f 535/535/535 536/536/536 537/537/537
f 533/533/533 538/538/538 534/534/534
f 538/538/538 533/533/533 535/535/535
f 539/539/539 534/534/534 538/538/538
f 537/537/537 540/540/540 535/535/535
f 535/535/535 540/540/540 538/538/538
f 540/540/540 537/537/537 541/541/541
f 538/538/538 542/542/542 539/539/539
f 542/542/542 538/538/538 540/540/540
f 543/543/543 539/539/539 542/542/542
f 541/541/541 544/544/544 540/540/540
f 540/540/540 544/544/544 542/542/542
f 542/542/542 545/545/545 543/543/543
f 545/545/545 542/542/542 544/544/544
f 546/546/546 544/544/544 541/541/541
f 544/544/544 546/546/546 545/545/545
f 541/541/541 547/547/547 546/546/546
f 546/546/546 547/547/547 548/548/548
f 543/543/543 545/545/545 549/549/549
f 549/549/549 550/550/550 543/543/543
f 545/545/545 546/546/546 551/551/551
f 548/548/548 551/551/551 546/546/546
f 551/551/551 549/549/549 545/545/545
f 552/552/552 551/551/551 548/548/548
f 549/549/549 551/551/551 552/552/552
f 548/548/548 553/553/553 552/552/552
f 552/552/552 553/553/553 301/301/301
f 550/550/550 549/549/549 554/554/554
f 552/552/552 554/554/554 549/549/549
f 554/554/554 555/555/555 550/550/550
f 301/301/301 556/556/556 552/552/552
f 554/554/554 552/552/552 556/556/556
f 299/299/299 556/556/556 301/301/301
f 555/555/555 554/554/554 557/557/557
f 556/556/556 557/557/557 554/554/554
f 557/557/557 558/558/558 555/555/555
f 559/559/559 558/558/558 557/557/557
f 560/560/560 556/556/556 299/299/299
f 328/328/328 560/560/560 299/299/299
f 561/561/561 557/557/557 556/556/556
f 556/556/556 560/560/560 561/561/561
f 561/561/561 560/560/560 328/328/328
f 557/557/557 561/561/561 559/559/559
f 328/328/328 335/335/335 561/561/561
f 559/559/559 561/561/561 335/335/335
f 335/335/335 341/341/341 559/559/559
