g tb_outline_03_mesh
v -0.27254865 0.15162829 0.05963978
v -0.27254865 0.15162829 0.067800015
v -0.27254865 0.11972901 0.067058176
v -0.27254865 0.11972901 0.058897883
v -0.27254865 0.0878298 0.067058176
v -0.27254865 0.0878298 0.05963978
v -0.27254865 0.056672364 0.067800015
v -0.27254865 0.056672364 0.06038162
v -0.27254865 0.02477315 0.068541855
v -0.27254865 0.02477315 0.06038162
v -0.27254865 -0.007126093 0.07299295
v -0.27254865 -0.007126093 0.06483266
v -0.27254865 -0.039025337 0.078927666
v -0.27254865 -0.038283497 0.07150921
v -0.27254865 -0.038283497 0.07150921
v -0.27254865 -0.039025337 0.078927666
v -0.25326076 -0.05831325 0.07744399
v -0.25326076 -0.05831325 0.07002553
v -0.23323098 -0.077601165 0.07299295
v -0.23397282 -0.077601165 0.06483266
v -0.2139431 -0.09688908 0.067800015
v -0.2139431 -0.09688908 0.06038162
v -0.2139431 -0.09688908 0.06038162
v -0.2139431 -0.09688908 0.067800015
v -0.2139431 -0.12953016 0.068541855
v -0.2139431 -0.12953016 0.06038162
v -0.2139431 -0.16217127 0.07002553
v -0.21468493 -0.1614294 0.0618653
v -0.2139431 -0.19407049 0.06409082
v -0.21468493 -0.19407049 0.055930525
v -0.2139431 -0.2267116 0.0618653
v -0.21468493 -0.2267116 0.054446846
v -0.2139431 -0.25935268 0.06409082
v -0.21468493 -0.25935268 0.056672364
v -0.21468493 -0.29199374 0.0655745
v -0.21468493 -0.2912519 0.058156043
v -0.21468493 -0.323893 0.06409082
v -0.21468493 -0.323893 0.055930525
v -0.21468493 -0.3565341 0.06260714
v -0.21468493 -0.3565341 0.055188686
v -0.21468493 -0.38917518 0.06334898
v -0.21468493 -0.38917518 0.055930525
v -0.21468493 -0.42181626 0.069283694
v -0.21468493 -0.42107442 0.06112346
v -0.21468493 -0.4537155 0.069283694
v -0.21468493 -0.4537155 0.06112346
v -0.21468493 -0.4863566 0.06631634
v -0.21468493 -0.4863566 0.058897883
v -0.21468493 -0.4863566 0.058897883
v -0.21468493 -0.4863566 0.06631634
v -0.1835275 -0.4863566 0.0655745
v -0.1835275 -0.4863566 0.058156043
v -0.15237013 -0.4863566 0.06483266
v -0.15237013 -0.48561475 0.056672364
v -0.12121269 -0.48561475 0.06334898
v -0.12195453 -0.48561475 0.055930525
v -0.09005532 -0.48561475 0.06260714
v -0.090797156 -0.48561475 0.054446846
v -0.058897883 -0.48561475 0.0618653
v -0.05963978 -0.48561475 0.053705007
v -0.028482348 -0.48561475 0.05963978
v -0.028482348 -0.4848729 0.05147949
v 0.0026750565 -0.4848729 0.055930525
v 0.0026750565 -0.4848729 0.04851213
v 0.03383246 -0.4848729 0.052963167
v 0.03383246 -0.4848729 0.044802874
v 0.064989835 -0.4848729 0.04925397
v 0.064989835 -0.4848729 0.041835517
v 0.09614724 -0.4848729 0.04777029
v 0.09614724 -0.48413107 0.03961
v 0.12730464 -0.48413107 0.046286553
v 0.12730464 -0.48413107 0.03812632
v 0.15846205 -0.48413107 0.046286553
v 0.15772021 -0.48413107 0.03886816
v 0.18961945 -0.48413107 0.046286553
v 0.18887761 -0.48413107 0.03886816
v 0.22077686 -0.48413107 0.047028452
v 0.22003502 -0.48338923 0.03886816
v 0.2511924 -0.48338923 0.047028452
v 0.2511924 -0.48338923 0.03961
v 0.2511924 -0.48338923 0.03961
v 0.2511924 -0.48338923 0.047028452
v 0.2511924 -0.45223182 0.04851213
v 0.2511924 -0.45223182 0.040351838
v 0.2511924 -0.42033258 0.047028452
v 0.2511924 -0.42033258 0.03961
v 0.2511924 -0.38917518 0.042577356
v 0.2511924 -0.38917518 0.035158962
v 0.2511924 -0.35727593 0.03961
v 0.2511924 -0.35727593 0.031449705
v 0.2511924 -0.32611853 0.03738448
v 0.2511924 -0.3253767 0.029966027
v 0.2511924 -0.2942193 0.03738448
v 0.2511924 -0.2942193 0.029966027
v 0.2511924 -0.26232004 0.03886816
v 0.2511924 -0.26232004 0.031449705
v 0.2511924 -0.23116264 0.040351838
v 0.2511924 -0.23116264 0.032191545
v 0.2511924 -0.1992634 0.040351838
v 0.2511924 -0.1992634 0.032933384
v 0.2511924 -0.16810599 0.03886816
v 0.2511924 -0.16736415 0.030707866
v 0.2511924 -0.13620675 0.03738448
v 0.2511924 -0.13620675 0.029224187
v 0.2511924 -0.10504937 0.03738448
v 0.2511924 -0.1043075 0.029966027
v 0.2511924 -0.1043075 0.029966027
v 0.2511924 -0.10504937 0.03738448
v 0.27048033 -0.08724514 0.03738448
v 0.2697385 -0.08724514 0.029966027
v 0.28902638 -0.0694409 0.03812632
v 0.28902638 -0.0694409 0.029966027
v 0.28902638 -0.0694409 0.029966027
v 0.28902638 -0.0694409 0.03812632
v 0.28902638 -0.039025337 0.03886816
v 0.28902638 -0.039025337 0.030707866
v 0.28902638 -0.0086098015 0.03961
v 0.28902638 -0.0086098015 0.032191545
v 0.28902638 0.021063954 0.043319196
v 0.28902638 0.021805793 0.035158962
v 0.28902638 0.05147949 0.05073765
v 0.28902638 0.052221328 0.042577356
v 0.28902638 0.08189502 0.06038162
v 0.28902638 0.08189502 0.052221328
v 0.28902638 0.11231062 0.06409082
v 0.28902638 0.11231062 0.056672364
v 0.28902638 0.14272615 0.06409082
v 0.28902638 0.14272615 0.056672364
v 0.28902638 0.14272615 0.056672364
v 0.28902638 0.14272615 0.06409082
v 0.26602924 0.16201404 0.0655745
v 0.26602924 0.16201404 0.058156043
v 0.24377397 0.18130198 0.06631634
v 0.24377397 0.18130198 0.058897883
v 0.22077686 0.20058993 0.0655745
v 0.22077686 0.20058993 0.057414204
v 0.22077686 0.20058993 0.057414204
v 0.22077686 0.20058993 0.0655745
v 0.18961945 0.20058993 0.06409082
v 0.18961945 0.20058993 0.055930525
v 0.15846205 0.20058993 0.06260714
v 0.15846205 0.20058993 0.055188686
v 0.12730464 0.20058993 0.0618653
v 0.1265628 0.20133176 0.053705007
v 0.0954054 0.20058993 0.06112346
v 0.0954054 0.20133176 0.053705007
v 0.064247996 0.20133176 0.0618653
v 0.064247996 0.20133176 0.053705007
v 0.064247996 0.20133176 0.053705007
v 0.064247996 0.20133176 0.0618653
v 0.04644376 0.21765229 0.06260714
v 0.04570192 0.21765229 0.055188686
v 0.027897716 0.23397282 0.06334898
v 0.027897716 0.23397282 0.055930525
v 0.027897716 0.23397282 0.055930525
v 0.027897716 0.23397282 0.06334898
v -0.004001528 0.23397282 0.06483266
v -0.0047433972 0.23397282 0.056672364
v -0.03664264 0.23323098 0.0655745
v -0.03664264 0.23397282 0.057414204
v -0.069283694 0.23323098 0.06631634
v -0.069283694 0.23323098 0.058897883
v -0.10118297 0.23323098 0.067800015
v -0.10118297 0.23323098 0.05963978
v -0.13382402 0.23323098 0.067800015
v -0.13382402 0.23323098 0.05963978
v -0.1657233 0.23248914 0.068541855
v -0.16646513 0.23323098 0.06112346
v -0.16646513 0.23323098 0.06112346
v -0.1657233 0.23248914 0.068541855
v -0.18575302 0.21245936 0.067800015
v -0.18575302 0.21245936 0.06038162
v -0.20504096 0.19242963 0.067058176
v -0.20504096 0.19242963 0.058897883
v -0.22432885 0.17165801 0.06409082
v -0.22432885 0.17165801 0.056672364
v -0.24361679 0.15162829 0.0655745
v -0.24435863 0.15162829 0.058156043
v -0.24435863 0.15162829 0.058156043
v -0.24361679 0.15162829 0.0655745
v -0.27254865 0.15162829 0.067800015
v -0.27254865 0.15162829 0.05963978
v -0.26290467 0.11231062 0.057414204
v -0.26216283 0.14124247 0.067058176
v -0.26290467 0.14124247 0.058897883
v -0.26216283 0.11231062 0.06483266
v -0.26290467 0.08263686 0.058156043
v -0.26216283 0.08263686 0.0655745
v -0.26290467 0.053705007 0.058897883
v -0.26216283 0.053705007 0.06631634
v -0.26290467 0.024031311 0.05963978
v -0.26216283 0.024031311 0.067800015
v -0.26290467 -0.0049005747 0.06483266
v -0.26216283 -0.0049005747 0.07225111
v -0.26290467 -0.0345743 0.07076737
v -0.26216283 -0.0345743 0.07818583
v -0.26290467 0.14124247 0.058897883
v -0.26216283 0.14124247 0.067058176
v -0.23990759 0.14124247 0.06409082
v -0.23990759 0.14198431 0.056672364
v -0.23990759 0.14198431 0.056672364
v -0.23990759 0.14124247 0.06409082
v -0.21987781 0.16201404 0.06483266
v -0.22061965 0.16201404 0.057414204
v -0.20058993 0.18204382 0.0655745
v -0.20058993 0.18204382 0.058156043
v -0.18130198 0.20281544 0.067800015
v -0.18130198 0.20281544 0.05963978
v -0.16201404 0.22284517 0.067800015
v -0.16201404 0.22284517 0.06038162
v -0.16201404 0.22284517 0.06038162
v -0.16201404 0.22284517 0.067800015
v -0.13085666 0.22284517 0.067058176
v -0.13085666 0.22284517 0.05963978
v -0.09969929 0.22284517 0.067058176
v -0.09969929 0.223587 0.05963978
v -0.068541855 0.223587 0.0655745
v -0.068541855 0.223587 0.058156043
v -0.03738448 0.223587 0.06483266
v -0.03812632 0.223587 0.057414204
v -0.0069689155 0.223587 0.06409082
v -0.0069689155 0.223587 0.056672364
v 0.024188489 0.223587 0.06334898
v 0.024188489 0.22432885 0.055930525
v 0.024188489 0.22432885 0.055930525
v 0.024188489 0.223587 0.06334898
v 0.042734563 0.20726648 0.06260714
v 0.041992724 0.20726648 0.054446846
v 0.0605388 0.19094595 0.06112346
v 0.0605388 0.19094595 0.053705007
v 0.0605388 0.19094595 0.053705007
v 0.0605388 0.19094595 0.06112346
v 0.0916962 0.19094595 0.06112346
v 0.0916962 0.19094595 0.053705007
v 0.12285358 0.19094595 0.0618653
v 0.12285358 0.19094595 0.053705007
v 0.15475282 0.19094595 0.06334898
v 0.15401098 0.19094595 0.055188686
v 0.18591022 0.19094595 0.06409082
v 0.18591022 0.19094595 0.056672364
v 0.21706763 0.19020411 0.0655745
v 0.21706763 0.19094595 0.058156043
v 0.21706763 0.19094595 0.058156043
v 0.21706763 0.19020411 0.0655745
v 0.23783924 0.17314169 0.06631634
v 0.23783924 0.17314169 0.058156043
v 0.25861084 0.15533748 0.0655745
v 0.257869 0.15607932 0.057414204
v 0.27864057 0.13827512 0.06483266
v 0.27864057 0.13827512 0.056672364
v 0.27864057 0.13827512 0.056672364
v 0.27864057 0.13827512 0.06483266
v 0.27864057 0.1093432 0.06483266
v 0.27864057 0.1093432 0.056672364
v 0.27864057 0.079669505 0.06038162
v 0.27864057 0.080411345 0.052963167
v 0.27864057 0.05073765 0.05147949
v 0.27864057 0.05147949 0.044061035
v 0.27864057 0.021805793 0.044061035
v 0.27864057 0.021805793 0.0359008
v 0.27864057 -0.007126093 0.040351838
v 0.27864057 -0.007126093 0.032191545
v 0.27864057 -0.03605798 0.03886816
v 0.27864057 -0.03605798 0.031449705
v 0.27864057 -0.064989835 0.03812632
v 0.27864057 -0.064989835 0.030707866
v 0.27864057 -0.064989835 0.030707866
v 0.27864057 -0.064989835 0.03812632
v 0.26009452 -0.08279407 0.03812632
v 0.26009452 -0.08279407 0.029966027
v 0.24154845 -0.100598305 0.03738448
v 0.24154845 -0.099856466 0.029966027
v 0.24154845 -0.099856466 0.029966027
v 0.24154845 -0.100598305 0.03738448
v 0.24154845 -0.13175571 0.03738448
v 0.24154845 -0.13101387 0.029224187
v 0.24154845 -0.16291311 0.03812632
v 0.24154845 -0.16217127 0.030707866
v 0.24154845 -0.19407049 0.040351838
v 0.24154845 -0.19332865 0.032191545
v 0.24154845 -0.22448605 0.040351838
v 0.24154845 -0.22448605 0.032191545
v 0.24154845 -0.25564346 0.03961
v 0.24154845 -0.25564346 0.031449705
v 0.24154845 -0.28680086 0.03738448
v 0.24154845 -0.28680086 0.029966027
v 0.24154845 -0.31795827 0.03738448
v 0.24154845 -0.31795827 0.029224187
v 0.24154845 -0.34911567 0.03886816
v 0.24154845 -0.34911567 0.030707866
v 0.24154845 -0.38027304 0.041835517
v 0.24154845 -0.38027304 0.034417123
v 0.24154845 -0.41143045 0.046286553
v 0.24154845 -0.41143045 0.03812632
v 0.24154845 -0.44258785 0.04851213
v 0.24154845 -0.44258785 0.040351838
v 0.24154845 -0.47374526 0.04777029
v 0.24154845 -0.47374526 0.03961
v 0.24154845 -0.47374526 0.03961
v 0.24154845 -0.47374526 0.04777029
v 0.2096492 -0.47374526 0.047028452
v 0.2096492 -0.47374526 0.03961
v 0.17774996 -0.4744871 0.047028452
v 0.17774996 -0.47374526 0.03886816
v 0.14585072 -0.4744871 0.046286553
v 0.14585072 -0.4744871 0.03886816
v 0.113951474 -0.4744871 0.04777029
v 0.113951474 -0.4744871 0.03961
v 0.08205223 -0.4744871 0.04925397
v 0.08205223 -0.4744871 0.041093677
v 0.050152987 -0.47522894 0.052221328
v 0.050152987 -0.4744871 0.044061035
v 0.018253744 -0.47522894 0.055188686
v 0.018253744 -0.47522894 0.04777029
v -0.0136455 -0.47522894 0.058897883
v -0.0136455 -0.47522894 0.05147949
v -0.045544714 -0.47522894 0.0618653
v -0.045544714 -0.47522894 0.054446846
v -0.07744399 -0.47522894 0.06260714
v -0.07744399 -0.47522894 0.055188686
v -0.1093432 -0.47597077 0.06409082
v -0.1093432 -0.47597077 0.055930525
v -0.14124247 -0.47597077 0.06483266
v -0.14124247 -0.47597077 0.057414204
v -0.17239985 -0.47597077 0.0655745
v -0.17314169 -0.47597077 0.058156043
v -0.20429912 -0.47597077 0.067058176
v -0.20504096 -0.47597077 0.058897883
v -0.20504096 -0.47597077 0.058897883
v -0.20429912 -0.47597077 0.067058176
v -0.20429912 -0.44407153 0.069283694
v -0.20504096 -0.44407153 0.06112346
v -0.20429912 -0.41217232 0.068541855
v -0.20504096 -0.41217232 0.06112346
v -0.20429912 -0.38027304 0.06409082
v -0.20429912 -0.38027304 0.055930525
v -0.20429912 -0.34837383 0.06334898
v -0.20429912 -0.34837383 0.055930525
v -0.20429912 -0.31647456 0.06409082
v -0.20429912 -0.31647456 0.055930525
v -0.20429912 -0.28457534 0.06483266
v -0.20429912 -0.28457534 0.056672364
v -0.20429912 -0.25267607 0.06260714
v -0.20429912 -0.25267607 0.054446846
v -0.20429912 -0.22077686 0.06112346
v -0.20429912 -0.22077686 0.052963167
v -0.20429912 -0.18887761 0.06409082
v -0.20429912 -0.18887761 0.056672364
v -0.20429912 -0.15697837 0.069283694
v -0.20429912 -0.15697837 0.0618653
v -0.20429912 -0.12507913 0.067058176
v -0.20429912 -0.124337286 0.058897883
v -0.20429912 -0.09317988 0.067058176
v -0.20429912 -0.09243804 0.05963978
v -0.20429912 -0.09243804 0.05963978
v -0.20429912 -0.09317988 0.067058176
v -0.223587 -0.07315013 0.07225111
v -0.223587 -0.07315013 0.06483266
v -0.24287495 -0.053862214 0.07744399
v -0.24287495 -0.053862214 0.069283694
v -0.26216283 -0.0345743 0.07818583
v -0.26290467 -0.0345743 0.07076737
v -0.22581252 -0.076117486 0.07225111
v -0.223587 -0.07315013 0.07225111
v -0.20429912 -0.09317988 0.067058176
v -0.24287495 -0.053862214 0.07744399
v -0.24510047 -0.056087732 0.07744399
v -0.26216283 -0.0345743 0.07818583
v -0.2139431 -0.09688908 0.067800015
v -0.23100546 -0.07537565 0.07299295
v -0.25029334 -0.056087732 0.07744399
v -0.23323098 -0.077601165 0.07299295
v -0.25326076 -0.05831325 0.07744399
v -0.27254865 -0.039025337 0.078927666
v -0.20726648 -0.12507913 0.067058176
v -0.20429912 -0.12507913 0.067058176
v -0.26883945 -0.007126093 0.07299295
v -0.27254865 -0.007126093 0.07299295
v -0.27254865 0.02477315 0.068541855
v -0.21097568 -0.12953016 0.067800015
v -0.2139431 -0.12953016 0.068541855
v -0.20726648 -0.15697837 0.069283694
v -0.20429912 -0.15697837 0.069283694
v -0.21171752 -0.16217127 0.07002553
v -0.2139431 -0.16217127 0.07002553
v -0.2139431 -0.19407049 0.06409082
v -0.20726648 -0.18887761 0.06483266
v -0.20429912 -0.18887761 0.06409082
v -0.21171752 -0.19407049 0.06334898
v -0.2139431 -0.2267116 0.0618653
v -0.20726648 -0.22077686 0.06112346
v -0.20429912 -0.22077686 0.06112346
v -0.21171752 -0.2267116 0.0618653
v -0.2139431 -0.25935268 0.06409082
v -0.20726648 -0.25267607 0.06260714
v -0.20429912 -0.25267607 0.06260714
v -0.21171752 -0.25935268 0.06409082
v -0.21468493 -0.29199374 0.0655745
v -0.20800832 -0.28457534 0.06483266
v -0.20429912 -0.28457534 0.06483266
v -0.21171752 -0.29199374 0.0655745
v -0.21468493 -0.323893 0.06409082
v -0.20800832 -0.31647456 0.06409082
v -0.20429912 -0.31647456 0.06409082
v -0.21171752 -0.323893 0.06409082
v -0.21468493 -0.3565341 0.06260714
v -0.20800832 -0.34837383 0.06334898
v -0.20429912 -0.34837383 0.06334898
v -0.21171752 -0.3565341 0.06260714
v -0.21468493 -0.38917518 0.06334898
v -0.20800832 -0.38027304 0.06409082
v -0.20429912 -0.38027304 0.06409082
v -0.21171752 -0.38917518 0.06409082
v -0.21468493 -0.42181626 0.069283694
v -0.20800832 -0.41217232 0.068541855
v -0.20429912 -0.41217232 0.068541855
v -0.21171752 -0.42181626 0.069283694
v -0.21468493 -0.4537155 0.069283694
v -0.20800832 -0.44407153 0.068541855
v -0.20429912 -0.44407153 0.069283694
v -0.20429912 -0.47597077 0.067058176
v -0.21171752 -0.4537155 0.068541855
v -0.21468493 -0.4863566 0.06631634
v -0.1835275 -0.48264736 0.0655745
v -0.1835275 -0.4863566 0.0655745
v -0.17239985 -0.47968 0.0655745
v -0.17239985 -0.47597077 0.0655745
v -0.15237013 -0.48264736 0.06483266
v -0.15237013 -0.4863566 0.06483266
v -0.14124247 -0.47893816 0.06483266
v -0.14124247 -0.47597077 0.06483266
v -0.12121269 -0.48264736 0.06409082
v -0.12121269 -0.48561475 0.06334898
v -0.1093432 -0.47893816 0.06334898
v -0.1093432 -0.47597077 0.06409082
v -0.09005532 -0.48264736 0.06260714
v -0.09005532 -0.48561475 0.06260714
v -0.07744399 -0.47893816 0.06260714
v -0.07744399 -0.47522894 0.06260714
v -0.05963978 -0.48190552 0.0618653
v -0.058897883 -0.48561475 0.0618653
v -0.045544714 -0.47893816 0.0618653
v -0.045544714 -0.47522894 0.0618653
v -0.028482348 -0.48190552 0.05963978
v -0.028482348 -0.48561475 0.05963978
v -0.0136455 -0.47819632 0.058897883
v -0.0136455 -0.47522894 0.058897883
v 0.0026750565 -0.48190552 0.056672364
v 0.0026750565 -0.4848729 0.055930525
v 0.018253744 -0.47819632 0.055188686
v 0.018253744 -0.47522894 0.055188686
v 0.03383246 -0.48190552 0.052963167
v 0.03383246 -0.4848729 0.052963167
v 0.050152987 -0.47819632 0.05147949
v 0.050152987 -0.47522894 0.052221328
v 0.064989835 -0.48116368 0.04999581
v 0.064989835 -0.4848729 0.04925397
v 0.08205223 -0.47819632 0.04851213
v 0.08205223 -0.4744871 0.04925397
v 0.09614724 -0.48116368 0.04777029
v 0.09614724 -0.4848729 0.04777029
v 0.113951474 -0.47819632 0.047028452
v 0.113951474 -0.4744871 0.04777029
v 0.12730464 -0.48116368 0.046286553
v 0.12730464 -0.48413107 0.046286553
v 0.14585072 -0.47745448 0.046286553
v 0.14585072 -0.4744871 0.046286553
v 0.15846205 -0.48116368 0.046286553
v 0.15846205 -0.48413107 0.046286553
v 0.17774996 -0.47745448 0.047028452
v 0.17774996 -0.4744871 0.047028452
v 0.18961945 -0.48042184 0.047028452
v 0.18961945 -0.48413107 0.046286553
v 0.2096492 -0.47745448 0.047028452
v 0.2096492 -0.47374526 0.047028452
v 0.24154845 -0.47374526 0.04777029
v 0.22003502 -0.48042184 0.047028452
v 0.22077686 -0.48413107 0.047028452
v 0.2511924 -0.48338923 0.047028452
v 0.24822503 -0.45223182 0.04851213
v 0.2511924 -0.45223182 0.04851213
v 0.24451582 -0.44258785 0.04851213
v 0.24154845 -0.44258785 0.04851213
v 0.24154845 -0.41143045 0.046286553
v 0.24822503 -0.42033258 0.047028452
v 0.2511924 -0.42033258 0.047028452
v 0.2511924 -0.38917518 0.042577356
v 0.24451582 -0.41143045 0.046286553
v 0.24154845 -0.38027304 0.041835517
v 0.24822503 -0.38917518 0.042577356
v 0.2511924 -0.35727593 0.03961
v 0.24451582 -0.38027304 0.041835517
v 0.24154845 -0.34911567 0.03886816
v 0.24822503 -0.35727593 0.03961
v 0.24451582 -0.34911567 0.03886816
v 0.24154845 -0.31795827 0.03738448
v 0.24822503 -0.32611853 0.03738448
v 0.2511924 -0.32611853 0.03738448
v 0.2511924 -0.2942193 0.03738448
v 0.24451582 -0.31795827 0.03738448
v 0.24154845 -0.28680086 0.03738448
v 0.24822503 -0.2942193 0.03738448
v 0.2511924 -0.26232004 0.03886816
v 0.24451582 -0.28680086 0.03738448
v 0.24154845 -0.25564346 0.03961
v 0.24822503 -0.26232004 0.03886816
v 0.2511924 -0.23116264 0.040351838
v 0.24451582 -0.25564346 0.03961
v 0.24154845 -0.22448605 0.040351838
v 0.24822503 -0.23116264 0.040351838
v 0.2511924 -0.1992634 0.040351838
v 0.24451582 -0.22448605 0.040351838
v 0.24154845 -0.19407049 0.040351838
v 0.24822503 -0.1992634 0.040351838
v 0.2511924 -0.16810599 0.03886816
v 0.24451582 -0.19407049 0.040351838
v 0.24154845 -0.16291311 0.03812632
v 0.24822503 -0.16810599 0.03886816
v 0.2511924 -0.13620675 0.03738448
v 0.24451582 -0.16291311 0.03812632
v 0.24154845 -0.13175571 0.03738448
v 0.24822503 -0.13620675 0.03738448
v 0.2511924 -0.10504937 0.03738448
v 0.24451582 -0.13175571 0.03738448
v 0.24154845 -0.100598305 0.03738448
v 0.26232004 -0.08501959 0.03812632
v 0.26009452 -0.08279407 0.03812632
v 0.27864057 -0.064989835 0.03812632
v 0.2682548 -0.08501959 0.03738448
v 0.27048033 -0.08724514 0.03738448
v 0.28902638 -0.0694409 0.03812632
v 0.28531718 -0.039025337 0.03886816
v 0.28902638 -0.039025337 0.03886816
v 0.2823498 -0.03605798 0.03886816
v 0.27864057 -0.03605798 0.03886816
v 0.28531718 -0.0086098015 0.03961
v 0.28902638 -0.0086098015 0.03961
v 0.28531718 0.021063954 0.043319196
v 0.28902638 0.021063954 0.043319196
v 0.28902638 0.05147949 0.05073765
v 0.2823498 -0.007126093 0.03961
v 0.27864057 -0.007126093 0.040351838
v 0.2823498 0.021805793 0.043319196
v 0.27864057 0.021805793 0.044061035
v 0.2823498 0.05073765 0.05147949
v 0.27864057 0.05073765 0.05147949
v 0.28531718 0.05147949 0.05073765
v 0.28902638 0.08189502 0.06038162
v 0.2823498 0.079669505 0.06038162
v 0.27864057 0.079669505 0.06038162
v 0.28531718 0.08189502 0.06038162
v 0.28902638 0.11231062 0.06409082
v 0.2823498 0.1093432 0.06483266
v 0.27864057 0.1093432 0.06483266
v 0.27864057 0.13827512 0.06483266
v 0.28531718 0.11231062 0.06409082
v 0.28902638 0.14272615 0.06409082
v 0.26380372 0.15978852 0.0655745
v 0.26602924 0.16201404 0.0655745
v 0.24377397 0.18130198 0.06631634
v 0.26083636 0.15830484 0.0655745
v 0.25861084 0.15533748 0.0655745
v 0.23783924 0.17314169 0.06631634
v 0.24006476 0.17536727 0.06631634
v 0.21706763 0.19020411 0.0655745
v 0.22077686 0.20058993 0.0655745
v 0.18961945 0.20058993 0.06409082
v 0.18961945 0.19762251 0.06409082
v 0.18591022 0.19391331 0.06409082
v 0.18591022 0.19094595 0.06409082
v 0.15475282 0.19094595 0.06334898
v 0.15846205 0.19762251 0.06260714
v 0.15846205 0.20058993 0.06260714
v 0.15475282 0.19391331 0.06260714
v 0.12285358 0.19094595 0.0618653
v 0.12730464 0.19762251 0.0618653
v 0.12730464 0.20058993 0.0618653
v 0.12285358 0.19391331 0.0618653
v 0.0916962 0.19094595 0.06112346
v 0.0954054 0.19762251 0.06112346
v 0.0954054 0.20058993 0.06112346
v 0.064247996 0.20133176 0.0618653
v 0.0916962 0.19465515 0.06112346
v 0.0605388 0.19094595 0.06112346
v 0.04496008 0.21023384 0.06260714
v 0.042734563 0.20726648 0.06260714
v 0.04644376 0.21765229 0.06260714
v 0.024188489 0.223587 0.06334898
v 0.027897716 0.23397282 0.06334898
v -0.004001528 0.23397282 0.06483266
v -0.004001528 0.23026362 0.06409082
v -0.0069689155 0.22729626 0.06409082
v -0.0069689155 0.223587 0.06409082
v -0.03738448 0.223587 0.06483266
v -0.03664264 0.23026362 0.0655745
v -0.03664264 0.23323098 0.0655745
v -0.03738448 0.22655442 0.0655745
v -0.068541855 0.223587 0.0655745
v -0.068541855 0.23026362 0.06631634
v -0.069283694 0.23323098 0.06631634
v -0.068541855 0.22655442 0.06631634
v -0.09969929 0.22655442 0.067058176
v -0.09969929 0.22284517 0.067058176
v -0.10118297 0.22952178 0.067058176
v -0.10118297 0.23323098 0.067800015
v -0.13085666 0.22655442 0.067800015
v -0.13085666 0.22284517 0.067058176
v -0.16201404 0.22284517 0.067800015
v -0.13382402 0.22952178 0.067800015
v -0.13382402 0.23323098 0.067800015
v -0.1657233 0.23248914 0.068541855
v -0.18278566 0.21023384 0.067800015
v -0.18575302 0.21245936 0.067800015
v -0.20504096 0.19242963 0.067058176
v -0.1835275 0.20504096 0.067800015
v -0.18130198 0.20281544 0.067800015
v -0.20281544 0.19020411 0.06631634
v -0.22432885 0.17165801 0.06409082
v -0.20281544 0.18426934 0.0655745
v -0.20058993 0.18204382 0.0655745
v -0.22210333 0.16943249 0.06409082
v -0.24361679 0.15162829 0.0655745
v -0.22284517 0.16423962 0.06483266
v -0.21987781 0.16201404 0.06483266
v -0.23990759 0.14124247 0.06409082
v -0.26216283 0.14124247 0.067058176
v -0.27254865 0.15162829 0.067800015
v -0.26883945 0.11972901 0.06631634
v -0.27254865 0.11972901 0.067058176
v -0.2658721 0.11231062 0.0655745
v -0.26216283 0.11231062 0.06483266
v -0.26216283 0.08263686 0.0655745
v -0.26883945 0.0878298 0.06631634
v -0.27254865 0.0878298 0.067058176
v -0.2658721 0.08263686 0.06631634
v -0.26216283 0.053705007 0.06631634
v -0.26883945 0.056672364 0.067800015
v -0.27254865 0.056672364 0.067800015
v -0.2658721 0.053705007 0.067058176
v -0.26216283 0.024031311 0.067800015
v -0.26883945 0.02477315 0.067800015
v -0.2658721 0.024031311 0.067800015
v -0.26216283 -0.0049005747 0.07225111
v -0.2658721 -0.0049005747 0.07225111
vt 0.15829743 0.4471905
vt 0.15829743 0.4471905
vt 0.15829743 0.42542458
vt 0.15829743 0.42542458
vt 0.15829743 0.40167993
vt 0.15829743 0.40167993
vt 0.15829743 0.37991402
vt 0.15829743 0.37991402
vt 0.15829743 0.3581481
vt 0.15829743 0.3581481
vt 0.15829743 0.33638218
vt 0.15829743 0.33638218
vt 0.15829743 0.31263757
vt 0.15829743 0.31461626
vt 0.15829743 0.31461626
vt 0.15829743 0.31263757
vt 0.1642336 0.30076525
vt 0.1642336 0.30076525
vt 0.17214848 0.2869142
vt 0.17214848 0.2869142
vt 0.17808463 0.27306315
vt 0.17808463 0.27306315
vt 0.17808463 0.27306315
vt 0.17808463 0.27306315
vt 0.17808463 0.24931854
vt 0.17808463 0.24931854
vt 0.17808463 0.22755262
vt 0.17808463 0.22755262
vt 0.17808463 0.20380798
vt 0.17808463 0.20380798
vt 0.17808463 0.18204208
vt 0.17808463 0.18204208
vt 0.17808463 0.15829743
vt 0.17808463 0.15829743
vt 0.17808463 0.13653152
vt 0.17808463 0.13653152
vt 0.17808463 0.11278689
vt 0.17808463 0.11278689
vt 0.17808463 0.09102098
vt 0.17808463 0.09102098
vt 0.17808463 0.06727634
vt 0.17808463 0.06925506
vt 0.17808463 0.04551043
vt 0.17808463 0.04551043
vt 0.17808463 0.021765795
vt 0.17808463 0.023744514
vt 0.17808463 -1.1920929E-07
vt 0.17808463 -1.1920929E-07
vt 0.17808463 -1.1920929E-07
vt 0.17808463 -1.1920929E-07
vt 0.18995695 -1.1920929E-07
vt 0.18995695 -1.1920929E-07
vt 0.19985054 -1.1920929E-07
vt 0.19985054 -1.1920929E-07
vt 0.21172287 -1.1920929E-07
vt 0.21172287 -1.1920929E-07
vt 0.22359519 -1.1920929E-07
vt 0.22359519 -1.1920929E-07
vt 0.23348878 -1.1920929E-07
vt 0.23348878 -1.1920929E-07
vt 0.24536109 -1.1920929E-07
vt 0.24536109 -1.1920929E-07
vt 0.2552547 -1.1920929E-07
vt 0.2552547 -1.1920929E-07
vt 0.267127 -1.1920929E-07
vt 0.267127 0.0019786002
vt 0.2770206 0.0019786002
vt 0.2770206 0.0019786002
vt 0.28889292 0.0019786002
vt 0.28889292 0.0019786002
vt 0.30076525 0.0019786002
vt 0.29878652 0.0019786002
vt 0.31065884 0.0019786002
vt 0.31065884 0.0019786002
vt 0.32253116 0.0019786002
vt 0.32253116 0.0019786002
vt 0.33242476 0.0019786002
vt 0.33242476 0.0019786002
vt 0.34429708 0.0019786002
vt 0.34429708 0.0019786002
vt 0.34429708 0.0019786002
vt 0.34429708 0.0019786002
vt 0.34429708 0.023744514
vt 0.34429708 0.023744514
vt 0.34429708 0.04551043
vt 0.34429708 0.04551043
vt 0.34429708 0.06727634
vt 0.34429708 0.06925506
vt 0.34429708 0.09102098
vt 0.34429708 0.09102098
vt 0.34429708 0.11278689
vt 0.34429708 0.11278689
vt 0.34429708 0.1345528
vt 0.34429708 0.1345528
vt 0.34429708 0.15631872
vt 0.34429708 0.15631872
vt 0.34429708 0.17808463
vt 0.34429708 0.17808463
vt 0.34429708 0.20182927
vt 0.34429708 0.20182927
vt 0.34429708 0.22359519
vt 0.34429708 0.22359519
vt 0.34429708 0.24536109
vt 0.34429708 0.24536109
vt 0.34429708 0.267127
vt 0.34429708 0.267127
vt 0.34429708 0.267127
vt 0.34429708 0.267127
vt 0.35023323 0.27899933
vt 0.35023323 0.27899933
vt 0.35616937 0.29087165
vt 0.35616937 0.29285038
vt 0.35616937 0.29285038
vt 0.35616937 0.29087165
vt 0.35616937 0.31263757
vt 0.35616937 0.31263757
vt 0.35616937 0.33440349
vt 0.35616937 0.33440349
vt 0.35616937 0.35616937
vt 0.35616937 0.35616937
vt 0.35616937 0.37595657
vt 0.35616937 0.3779353
vt 0.35616937 0.39772248
vt 0.35616937 0.39772248
vt 0.35616937 0.4194884
vt 0.35616937 0.4194884
vt 0.35616937 0.44125432
vt 0.35616937 0.44125432
vt 0.35616937 0.44125432
vt 0.35616937 0.44125432
vt 0.3482545 0.45510536
vt 0.3482545 0.45510536
vt 0.34033963 0.4669777
vt 0.34033963 0.4669777
vt 0.33242476 0.4808287
vt 0.33242476 0.4808287
vt 0.33242476 0.4808287
vt 0.33242476 0.4808287
vt 0.32253116 0.4808287
vt 0.32253116 0.4808287
vt 0.31065884 0.4808287
vt 0.31065884 0.4808287
vt 0.29878652 0.4808287
vt 0.29878652 0.4808287
vt 0.28889292 0.4808287
vt 0.28889292 0.4808287
vt 0.2770206 0.4808287
vt 0.2770206 0.4808287
vt 0.2770206 0.4808287
vt 0.2770206 0.4808287
vt 0.27108446 0.49270102
vt 0.27108446 0.49270102
vt 0.26514828 0.50457335
vt 0.26514828 0.50457335
vt 0.26514828 0.50457335
vt 0.26514828 0.50457335
vt 0.25327596 0.50457335
vt 0.25327596 0.50457335
vt 0.24140365 0.50457335
vt 0.24140365 0.50457335
vt 0.22953133 0.50457335
vt 0.22953133 0.50457335
vt 0.21963774 0.50457335
vt 0.21963774 0.50457335
vt 0.20776543 0.50457335
vt 0.20776543 0.50457335
vt 0.19589311 0.50457335
vt 0.19589311 0.50457335
vt 0.19589311 0.50457335
vt 0.19589311 0.50457335
vt 0.18995695 0.4887436
vt 0.18995695 0.4887436
vt 0.18204208 0.47489256
vt 0.18204208 0.47489256
vt 0.17610592 0.4610415
vt 0.17610592 0.4610415
vt 0.16819103 0.4471905
vt 0.16819103 0.4471905
vt 0.16819103 0.4471905
vt 0.16819103 0.4471905
vt 0.15829743 0.4471905
vt 0.15829743 0.4471905
vt 0.16225487 0.4194884
vt 0.16225487 0.4392756
vt 0.16225487 0.4392756
vt 0.16225487 0.4194884
vt 0.16225487 0.3997012
vt 0.16225487 0.39772248
vt 0.16225487 0.3779353
vt 0.16225487 0.3779353
vt 0.16225487 0.3581481
vt 0.16225487 0.3581481
vt 0.16225487 0.33638218
vt 0.16225487 0.33638218
vt 0.16225487 0.316595
vt 0.16225487 0.316595
vt 0.16225487 0.4392756
vt 0.16225487 0.4392756
vt 0.17016976 0.4392756
vt 0.17016976 0.4392756
vt 0.17016976 0.4392756
vt 0.17016976 0.4392756
vt 0.17610592 0.45312664
vt 0.17610592 0.45510536
vt 0.18402079 0.46895638
vt 0.18402079 0.46895638
vt 0.18995695 0.48280743
vt 0.18995695 0.48280743
vt 0.19787183 0.49665847
vt 0.19787183 0.49665847
vt 0.19787183 0.49665847
vt 0.19787183 0.49665847
vt 0.20776543 0.49665847
vt 0.20776543 0.49665847
vt 0.21963774 0.49665847
vt 0.21963774 0.49665847
vt 0.22953133 0.49665847
vt 0.22953133 0.49665847
vt 0.24140365 0.49665847
vt 0.24140365 0.49665847
vt 0.25327596 0.49665847
vt 0.25327596 0.49665847
vt 0.26316956 0.49665847
vt 0.26316956 0.49665847
vt 0.26316956 0.49665847
vt 0.26316956 0.49665847
vt 0.26910573 0.48676488
vt 0.26910573 0.48676488
vt 0.2770206 0.47489256
vt 0.2770206 0.47489256
vt 0.2770206 0.47489256
vt 0.2770206 0.47489256
vt 0.2869142 0.47489256
vt 0.2869142 0.47489256
vt 0.29878652 0.47489256
vt 0.29878652 0.47489256
vt 0.30868012 0.47489256
vt 0.30868012 0.47489256
vt 0.32055244 0.47489256
vt 0.32055244 0.47489256
vt 0.33242476 0.47489256
vt 0.33242476 0.47489256
vt 0.33242476 0.47489256
vt 0.33242476 0.47489256
vt 0.3383609 0.4610415
vt 0.3383609 0.4610415
vt 0.34627578 0.4491692
vt 0.34627578 0.4491692
vt 0.35419068 0.4372969
vt 0.35419068 0.4372969
vt 0.35419068 0.4372969
vt 0.35419068 0.4372969
vt 0.35419068 0.41750968
vt 0.35419068 0.41750968
vt 0.35419068 0.3957438
vt 0.35419068 0.39772248
vt 0.35419068 0.37595657
vt 0.35419068 0.37595657
vt 0.35419068 0.35616937
vt 0.35419068 0.35616937
vt 0.35419068 0.33638218
vt 0.35419068 0.33638218
vt 0.35419068 0.31461626
vt 0.35419068 0.31461626
vt 0.35419068 0.29482907
vt 0.35419068 0.29482907
vt 0.35419068 0.29482907
vt 0.35419068 0.29482907
vt 0.34627578 0.28295678
vt 0.34627578 0.28295678
vt 0.34033963 0.27108446
vt 0.34033963 0.27108446
vt 0.34033963 0.27108446
vt 0.34033963 0.27108446
vt 0.34033963 0.24931854
vt 0.34033963 0.24931854
vt 0.34033963 0.22755262
vt 0.34033963 0.22755262
vt 0.34033963 0.2057867
vt 0.34033963 0.2057867
vt 0.34033963 0.18402079
vt 0.34033963 0.18402079
vt 0.34033963 0.16225487
vt 0.34033963 0.16225487
vt 0.34033963 0.14048897
vt 0.34033963 0.14048897
vt 0.34033963 0.11872305
vt 0.34033963 0.11872305
vt 0.34033963 0.09695713
vt 0.34033963 0.09695713
vt 0.34033963 0.073212504
vt 0.34033963 0.07519122
vt 0.34033963 0.051446587
vt 0.34033963 0.053425305
vt 0.34033963 0.029680673
vt 0.34033963 0.03165939
vt 0.34033963 0.007914758
vt 0.34033963 0.009893478
vt 0.34033963 0.009893478
vt 0.34033963 0.007914758
vt 0.3284673 0.007914758
vt 0.3284673 0.007914758
vt 0.3185737 0.007914758
vt 0.3185737 0.007914758
vt 0.3067014 0.007914758
vt 0.3067014 0.007914758
vt 0.29482907 0.007914758
vt 0.29482907 0.007914758
vt 0.28295678 0.007914758
vt 0.28295678 0.007914758
vt 0.27306315 0.007914758
vt 0.27306315 0.007914758
vt 0.26119086 0.007914758
vt 0.26119086 0.007914758
vt 0.24931854 0.007914758
vt 0.24931854 0.007914758
vt 0.23942493 0.007914758
vt 0.23942493 0.007914758
vt 0.22755262 0.007914758
vt 0.22755262 0.007914758
vt 0.2156803 0.007914758
vt 0.2156803 0.007914758
vt 0.2057867 0.007914758
vt 0.2057867 0.007914758
vt 0.19391438 0.007914758
vt 0.19391438 0.007914758
vt 0.18204208 0.007914758
vt 0.18204208 0.007914758
vt 0.18204208 0.007914758
vt 0.18204208 0.007914758
vt 0.18204208 0.029680673
vt 0.18204208 0.029680673
vt 0.18204208 0.051446587
vt 0.18204208 0.051446587
vt 0.18204208 0.073212504
vt 0.18204208 0.07519122
vt 0.18204208 0.09695713
vt 0.18204208 0.09695713
vt 0.18204208 0.11872305
vt 0.18204208 0.11872305
vt 0.18204208 0.14048897
vt 0.18204208 0.14048897
vt 0.18204208 0.1642336
vt 0.18204208 0.1642336
vt 0.18204208 0.18599951
vt 0.18204208 0.18599951
vt 0.18204208 0.20776543
vt 0.18204208 0.20776543
vt 0.18204208 0.23151006
vt 0.18204208 0.23151006
vt 0.18204208 0.25327596
vt 0.18204208 0.25327596
vt 0.18204208 0.27504188
vt 0.18204208 0.27504188
vt 0.18204208 0.27504188
vt 0.18204208 0.27504188
vt 0.17610592 0.28889292
vt 0.17610592 0.28889292
vt 0.16819103 0.30274397
vt 0.16819103 0.30274397
vt 0.16225487 0.316595
vt 0.16225487 0.316595
vt 0.17412719 0.2869142
vt 0.17610592 0.28889292
vt 0.18204208 0.27504188
vt 0.16819103 0.30274397
vt 0.16819103 0.30076525
vt 0.16225487 0.316595
vt 0.17808463 0.27306315
vt 0.17214848 0.28889292
vt 0.16621232 0.30076525
vt 0.17214848 0.2869142
vt 0.1642336 0.30076525
vt 0.15829743 0.31263757
vt 0.18204208 0.25327596
vt 0.18204208 0.25327596
vt 0.16027616 0.33638218
vt 0.15829743 0.33638218
vt 0.15829743 0.3581481
vt 0.18006335 0.24931854
vt 0.17808463 0.24931854
vt 0.18204208 0.23151006
vt 0.18204208 0.23151006
vt 0.18006335 0.22755262
vt 0.17808463 0.22755262
vt 0.17808463 0.20380798
vt 0.18204208 0.20776543
vt 0.18204208 0.20776543
vt 0.18006335 0.20380798
vt 0.17808463 0.18204208
vt 0.18204208 0.18599951
vt 0.18204208 0.18599951
vt 0.18006335 0.18204208
vt 0.17808463 0.15829743
vt 0.18204208 0.1642336
vt 0.18204208 0.1642336
vt 0.18006335 0.15829743
vt 0.17808463 0.13653152
vt 0.18204208 0.14048897
vt 0.18204208 0.14048897
vt 0.18006335 0.13653152
vt 0.17808463 0.11278689
vt 0.18204208 0.11872305
vt 0.18204208 0.11872305
vt 0.18006335 0.11278689
vt 0.17808463 0.09102098
vt 0.18204208 0.09695713
vt 0.18204208 0.09695713
vt 0.18006335 0.09102098
vt 0.17808463 0.06727634
vt 0.18204208 0.073212504
vt 0.18204208 0.073212504
vt 0.18006335 0.06727634
vt 0.17808463 0.04551043
vt 0.18204208 0.051446587
vt 0.18204208 0.051446587
vt 0.18006335 0.04551043
vt 0.17808463 0.021765795
vt 0.18204208 0.029680673
vt 0.18204208 0.029680673
vt 0.18204208 0.007914758
vt 0.18006335 0.021765795
vt 0.17808463 -1.1920929E-07
vt 0.18995695 0.0019786002
vt 0.18995695 -1.1920929E-07
vt 0.19391438 0.0039573195
vt 0.19391438 0.007914758
vt 0.19985054 0.0019786002
vt 0.19985054 -1.1920929E-07
vt 0.2057867 0.005936039
vt 0.2057867 0.007914758
vt 0.21172287 0.0019786002
vt 0.21172287 -1.1920929E-07
vt 0.2156803 0.005936039
vt 0.2156803 0.007914758
vt 0.22359519 0.0019786002
vt 0.22359519 -1.1920929E-07
vt 0.22755262 0.005936039
vt 0.22755262 0.007914758
vt 0.23348878 0.0019786002
vt 0.23348878 -1.1920929E-07
vt 0.23942493 0.005936039
vt 0.23942493 0.007914758
vt 0.24536109 0.0039573195
vt 0.24536109 -1.1920929E-07
vt 0.24931854 0.005936039
vt 0.24931854 0.007914758
vt 0.2552547 0.0039573195
vt 0.2552547 -1.1920929E-07
vt 0.26119086 0.005936039
vt 0.26119086 0.007914758
vt 0.267127 0.0039573195
vt 0.267127 -1.1920929E-07
vt 0.27306315 0.005936039
vt 0.27306315 0.007914758
vt 0.2770206 0.0039573195
vt 0.2770206 0.0019786002
vt 0.28295678 0.005936039
vt 0.28295678 0.007914758
vt 0.28889292 0.0039573195
vt 0.28889292 0.0019786002
vt 0.29482907 0.005936039
vt 0.29482907 0.007914758
vt 0.30076525 0.0039573195
vt 0.30076525 0.0019786002
vt 0.3067014 0.005936039
vt 0.3067014 0.007914758
vt 0.31065884 0.0039573195
vt 0.31065884 0.0019786002
vt 0.3185737 0.005936039
vt 0.3185737 0.007914758
vt 0.32253116 0.0039573195
vt 0.32253116 0.0019786002
vt 0.3284673 0.005936039
vt 0.3284673 0.007914758
vt 0.34033963 0.007914758
vt 0.33242476 0.0039573195
vt 0.33242476 0.0019786002
vt 0.34429708 0.0019786002
vt 0.34231836 0.023744514
vt 0.34429708 0.023744514
vt 0.34231836 0.029680673
vt 0.34033963 0.029680673
vt 0.34033963 0.051446587
vt 0.34231836 0.04551043
vt 0.34429708 0.04551043
vt 0.34429708 0.06727634
vt 0.34231836 0.051446587
vt 0.34033963 0.073212504
vt 0.34231836 0.06727634
vt 0.34429708 0.09102098
vt 0.34231836 0.073212504
vt 0.34033963 0.09695713
vt 0.34231836 0.09102098
vt 0.34231836 0.09695713
vt 0.34033963 0.11872305
vt 0.34231836 0.11278689
vt 0.34429708 0.11278689
vt 0.34429708 0.1345528
vt 0.34231836 0.11872305
vt 0.34033963 0.14048897
vt 0.34231836 0.1345528
vt 0.34429708 0.15631872
vt 0.34231836 0.14048897
vt 0.34033963 0.16225487
vt 0.34231836 0.15631872
vt 0.34429708 0.17808463
vt 0.34231836 0.16225487
vt 0.34033963 0.18402079
vt 0.34231836 0.17808463
vt 0.34429708 0.20182927
vt 0.34231836 0.18402079
vt 0.34033963 0.2057867
vt 0.34231836 0.20182927
vt 0.34429708 0.22359519
vt 0.34231836 0.2057867
vt 0.34033963 0.22755262
vt 0.34231836 0.22359519
vt 0.34429708 0.24536109
vt 0.34231836 0.22755262
vt 0.34033963 0.24931854
vt 0.34231836 0.24536109
vt 0.34429708 0.267127
vt 0.34231836 0.24931854
vt 0.34033963 0.27108446
vt 0.3482545 0.28097805
vt 0.34627578 0.28295678
vt 0.35419068 0.29482907
vt 0.35023323 0.28097805
vt 0.35023323 0.27899933
vt 0.35616937 0.29087165
vt 0.35616937 0.31263757
vt 0.35616937 0.31263757
vt 0.35419068 0.31461626
vt 0.35419068 0.31461626
vt 0.35616937 0.33440349
vt 0.35616937 0.33440349
vt 0.35616937 0.35616937
vt 0.35616937 0.35616937
vt 0.35616937 0.37595657
vt 0.35419068 0.33638218
vt 0.35419068 0.33638218
vt 0.35419068 0.35616937
vt 0.35419068 0.35616937
vt 0.35419068 0.37595657
vt 0.35419068 0.37595657
vt 0.35616937 0.37595657
vt 0.35616937 0.39772248
vt 0.35419068 0.3957438
vt 0.35419068 0.3957438
vt 0.35616937 0.39772248
vt 0.35616937 0.4194884
vt 0.35419068 0.41750968
vt 0.35419068 0.41750968
vt 0.35419068 0.4372969
vt 0.35616937 0.4194884
vt 0.35616937 0.44125432
vt 0.3482545 0.45312664
vt 0.3482545 0.45510536
vt 0.34033963 0.4669777
vt 0.34627578 0.4511479
vt 0.34627578 0.4491692
vt 0.3383609 0.4610415
vt 0.34033963 0.46302024
vt 0.33242476 0.47489256
vt 0.33242476 0.4808287
vt 0.32253116 0.4808287
vt 0.32253116 0.47884998
vt 0.32055244 0.47687128
vt 0.32055244 0.47489256
vt 0.30868012 0.47489256
vt 0.31065884 0.47884998
vt 0.31065884 0.4808287
vt 0.30868012 0.47687128
vt 0.29878652 0.47489256
vt 0.29878652 0.47884998
vt 0.29878652 0.4808287
vt 0.29878652 0.47687128
vt 0.2869142 0.47489256
vt 0.28889292 0.47884998
vt 0.28889292 0.4808287
vt 0.2770206 0.4808287
vt 0.2869142 0.47687128
vt 0.2770206 0.47489256
vt 0.27108446 0.48676488
vt 0.26910573 0.48676488
vt 0.27108446 0.49270102
vt 0.26316956 0.49665847
vt 0.26514828 0.50457335
vt 0.25327596 0.50457335
vt 0.25327596 0.50259465
vt 0.25327596 0.5006159
vt 0.25327596 0.49665847
vt 0.24140365 0.49665847
vt 0.24140365 0.50259465
vt 0.24140365 0.50457335
vt 0.24140365 0.4986372
vt 0.22953133 0.49665847
vt 0.22953133 0.50259465
vt 0.22953133 0.50457335
vt 0.22953133 0.4986372
vt 0.21963774 0.4986372
vt 0.21963774 0.49665847
vt 0.21963774 0.50259465
vt 0.21963774 0.50457335
vt 0.20776543 0.4986372
vt 0.20776543 0.49665847
vt 0.19787183 0.49665847
vt 0.20776543 0.5006159
vt 0.20776543 0.50457335
vt 0.19589311 0.50457335
vt 0.18995695 0.4887436
vt 0.18995695 0.4887436
vt 0.18204208 0.47489256
vt 0.18995695 0.48478615
vt 0.18995695 0.48280743
vt 0.18204208 0.47291383
vt 0.17610592 0.4610415
vt 0.18204208 0.46895638
vt 0.18402079 0.46895638
vt 0.17610592 0.45906278
vt 0.16819103 0.4471905
vt 0.17610592 0.45510536
vt 0.17610592 0.45312664
vt 0.17016976 0.4392756
vt 0.16225487 0.4392756
vt 0.15829743 0.4471905
vt 0.16027616 0.42542458
vt 0.15829743 0.42542458
vt 0.16027616 0.4194884
vt 0.16225487 0.4194884
vt 0.16225487 0.39772248
vt 0.16027616 0.40167993
vt 0.15829743 0.40167993
vt 0.16027616 0.39772248
vt 0.16225487 0.3779353
vt 0.16027616 0.37991402
vt 0.15829743 0.37991402
vt 0.16027616 0.3779353
vt 0.16225487 0.3581481
vt 0.16027616 0.3581481
vt 0.16027616 0.3581481
vt 0.16225487 0.33638218
vt 0.16027616 0.33638218
vn -0.9997769 -0.015869498 0.013939146
vn -0.9997769 -0.015869498 0.013939146
vn -0.9997769 -0.015869498 0.013939146
vn -0.9997769 -0.015869498 0.013939146
vn -0.9997769 0.015869439 0.013939214
vn -0.9997769 0.015869439 0.013939214
vn -0.9997769 0.015869439 0.013939214
vn -0.9997769 0.015869439 0.013939214
vn -0.9997769 0.015869439 0.013939214
vn -0.9997769 0.015869439 0.013939214
vn -0.9997769 0.015869439 0.013939214
vn -0.9997769 0.015869439 0.013939214
vn -0.9997769 0.015869439 0.013939214
vn -0.9997769 0.015869439 0.013939214
vn -0.70710677 -0.7071068 -0
vn -0.70710677 -0.7071068 -0
vn -0.70710677 -0.7071068 -0
vn -0.70710677 -0.7071068 -0
vn -0.70710677 -0.7071068 -0
vn -0.70710677 -0.7071068 -0
vn -0.70710677 -0.7071068 -0
vn -0.70710677 -0.7071068 -0
vn -0.9997769 0.015869439 0.013939214
vn -0.9997769 0.015869439 0.013939214
vn -0.9997769 0.015869439 0.013939214
vn -0.9997769 0.015869439 0.013939214
vn -0.9997769 0.015869439 0.013939214
vn -0.9997769 0.015869439 0.013939214
vn -0.9997769 -0.015869498 0.013939146
vn -0.9997769 -0.015869498 0.013939146
vn -0.9997769 0.015869439 0.013939214
vn -0.9997769 0.015869439 0.013939214
vn -0.9997769 0.015869439 0.013939214
vn -0.9997769 0.015869439 0.013939214
vn -0.9997769 0.015869439 0.013939214
vn -0.9997769 0.015869439 0.013939214
vn -0.9997769 0.015869439 0.013939214
vn -0.9997769 0.015869439 0.013939214
vn -0.9997769 0.015869439 0.013939214
vn -0.9997769 0.015869439 0.013939214
vn -0.9997769 0.015869439 0.013939214
vn -0.9997769 0.015869439 0.013939214
vn -0.9997769 0.015869439 0.013939214
vn -0.9997769 0.015869439 0.013939214
vn -0.9997769 0.015869439 0.013939214
vn -0.9997769 0.015869439 0.013939214
vn -0.9997769 -0.015869498 0.013939146
vn -0.9997769 -0.015869498 0.013939146
vn 0.015869498 -0.999777 -0.013930999
vn 0.015869498 -0.999777 -0.013930999
vn 0.015869498 -0.999777 -0.013930999
vn 0.015869498 -0.999777 -0.013930999
vn 0.015869498 -0.999777 -0.013930999
vn 0.015869498 -0.999777 -0.013930999
vn 0.015869498 -0.999777 -0.013930999
vn 0.015869498 -0.999777 -0.013930999
vn 0.015869498 -0.999777 -0.013930999
vn 0.015869498 -0.999777 -0.013930999
vn 0.015869498 -0.999777 -0.013930999
vn 0.015869498 -0.999777 -0.013930999
vn 0.015869498 -0.999777 -0.013930999
vn 0.015869498 -0.999777 -0.013930999
vn 0.015869498 -0.999777 -0.013930999
vn 0.015869498 -0.999777 -0.013930999
vn 0.015869498 -0.999777 -0.013930999
vn 0.015869498 -0.999777 -0.013930999
vn 0.015869498 -0.999777 -0.013930999
vn 0.015869498 -0.999777 -0.013930999
vn 0.015869498 -0.999777 -0.013930999
vn 0.015869498 -0.999777 -0.013930999
vn 0.015869498 -0.999777 -0.013930999
vn 0.015869498 -0.999777 -0.013930999
vn 0.015869498 -0.999777 -0.013930999
vn 0.015869498 -0.999777 -0.013930999
vn 0.015869498 -0.999777 -0.013930999
vn 0.015869498 -0.999777 -0.013930999
vn 0.015869498 -0.999777 -0.013930999
vn 0.015869498 -0.999777 -0.013930999
vn 0.015869498 -0.999777 -0.013930999
vn 0.015869498 -0.999777 -0.013930999
vn 0.999777 0.015869439 -0.013930659
vn 0.999777 0.015869439 -0.013930659
vn 0.999777 0.015869439 -0.013930659
vn 0.999777 0.015869439 -0.013930659
vn 0.999777 -0.015869498 -0.013930591
vn 0.999777 -0.015869498 -0.013930591
vn 0.999777 -0.015869498 -0.013930591
vn 0.999777 -0.015869498 -0.013930591
vn 0.999777 -0.015869498 -0.013930591
vn 0.999777 -0.015869498 -0.013930591
vn 0.999777 -0.015869498 -0.013930591
vn 0.999777 -0.015869498 -0.013930591
vn 0.999777 0.015869439 -0.013930659
vn 0.999777 0.015869439 -0.013930659
vn 0.999777 0.015869439 -0.013930659
vn 0.999777 0.015869439 -0.013930659
vn 0.999777 0.015869439 -0.013930659
vn 0.999777 0.015869439 -0.013930659
vn 0.999777 0.015869439 -0.013930659
vn 0.999777 0.015869439 -0.013930659
vn 0.999777 -0.015869498 -0.013930591
vn 0.999777 -0.015869498 -0.013930591
vn 0.999777 -0.015869498 -0.013930591
vn 0.999777 -0.015869498 -0.013930591
vn 0.999777 0.015869439 -0.013930659
vn 0.999777 0.015869439 -0.013930659
vn 0.6750135 -0.7378055 -0
vn 0.6750135 -0.7378055 -0
vn 0.6750135 -0.7378055 -0
vn 0.6750135 -0.7378055 -0
vn 0.6750135 -0.7378055 -0
vn 0.6750135 -0.7378055 -0
vn 0.999777 0.015869439 -0.013930659
vn 0.999777 0.015869439 -0.013930659
vn 0.999777 0.015869439 -0.013930659
vn 0.999777 0.015869439 -0.013930659
vn 0.999777 0.015869439 -0.013930659
vn 0.999777 0.015869439 -0.013930659
vn 0.999777 0.015869439 -0.013930659
vn 0.999777 0.015869439 -0.013930659
vn 0.999777 0.015869439 -0.013930659
vn 0.999777 0.015869439 -0.013930659
vn 0.999777 0.015869439 -0.013930659
vn 0.999777 0.015869439 -0.013930659
vn 0.999777 0.015869439 -0.013930659
vn 0.999777 0.015869439 -0.013930659
vn 0.999777 0.015869439 -0.013930659
vn 0.999777 0.015869439 -0.013930659
vn 0.6417226 0.76693666 -0
vn 0.6417226 0.76693666 -0
vn 0.6417226 0.76693666 -0
vn 0.6417226 0.76693666 -0
vn 0.6417226 0.76693666 -0
vn 0.6417226 0.76693666 -0
vn 0.6417226 0.76693666 -0
vn 0.6417226 0.76693666 -0
vn 0.015869498 0.9997769 0.013939553
vn 0.015869498 0.9997769 0.013939553
vn 0.015869498 0.9997769 0.013939553
vn 0.015869498 0.9997769 0.013939553
vn 0.015869498 0.9997769 0.013939553
vn 0.015869498 0.9997769 0.013939553
vn 0.015869498 0.9997769 0.013939553
vn 0.015869498 0.9997769 0.013939553
vn 0.015869498 0.9997769 0.013939553
vn 0.015869498 0.9997769 0.013939553
vn 0.015869498 0.9997769 0.013939553
vn 0.015869498 0.9997769 0.013939553
vn 0.67501354 0.7378054 -0
vn 0.67501354 0.7378054 -0
vn 0.67501354 0.7378054 -0
vn 0.67501354 0.7378054 -0
vn 0.67501354 0.7378054 -0
vn 0.67501354 0.7378054 -0
vn -0.015869439 0.9997769 0.013939553
vn -0.015869439 0.9997769 0.013939553
vn -0.015869439 0.9997769 0.013939553
vn -0.015869439 0.9997769 0.013939553
vn -0.015869439 0.9997769 0.013939553
vn -0.015869439 0.9997769 0.013939553
vn -0.015869439 0.9997769 0.013939553
vn -0.015869439 0.9997769 0.013939553
vn -0.015869439 0.9997769 0.013939553
vn -0.015869439 0.9997769 0.013939553
vn -0.015869439 0.9997769 0.013939553
vn -0.015869439 0.9997769 0.013939553
vn -0.015869439 0.9997769 0.013939553
vn -0.015869439 0.9997769 0.013939553
vn -0.7141264 0.6823874 0.15611185
vn -0.7141264 0.6823874 0.15611185
vn -0.7141264 0.6823874 0.15611185
vn -0.7141264 0.6823874 0.15611185
vn -0.7141264 0.6823874 0.15611185
vn -0.7141264 0.6823874 0.15611185
vn -0.7141264 0.6823874 0.15611185
vn -0.7141264 0.6823874 0.15611185
vn -0.7141264 0.6823874 0.15611185
vn -0.7141264 0.6823874 0.15611185
vn -0.015869439 0.9997769 0.013939553
vn -0.015869439 0.9997769 0.013939553
vn -0.015869439 0.9997769 0.013939553
vn -0.015869439 0.9997769 0.013939553
vn 0.999777 -0.015869498 -0.013930591
vn 0.999777 0.015869439 -0.013930659
vn 0.999777 0.015869439 -0.013930659
vn 0.999777 -0.015869498 -0.013930591
vn 0.999777 -0.015869498 -0.013930591
vn 0.999777 -0.015869498 -0.013930591
vn 0.999777 -0.015869498 -0.013930591
vn 0.999777 -0.015869498 -0.013930591
vn 0.999777 -0.015869498 -0.013930591
vn 0.999777 -0.015869498 -0.013930591
vn 0.999777 -0.015869498 -0.013930591
vn 0.999777 -0.015869498 -0.013930591
vn 0.999777 -0.015869498 -0.013930591
vn 0.999777 -0.015869498 -0.013930591
vn 0.015869498 -0.999777 -0.013930999
vn 0.015869498 -0.999777 -0.013930999
vn 0.015869498 -0.999777 -0.013930999
vn 0.015869498 -0.999777 -0.013930999
vn 0.71412647 -0.6823875 -0.15611118
vn 0.71412647 -0.6823875 -0.15611118
vn 0.71412647 -0.6823875 -0.15611118
vn 0.71412647 -0.6823875 -0.15611118
vn 0.71412647 -0.6823875 -0.15611118
vn 0.71412647 -0.6823875 -0.15611118
vn 0.71412647 -0.6823875 -0.15611118
vn 0.71412647 -0.6823875 -0.15611118
vn 0.71412647 -0.6823875 -0.15611118
vn 0.71412647 -0.6823875 -0.15611118
vn 0.015869498 -0.999777 -0.013930999
vn 0.015869498 -0.999777 -0.013930999
vn 0.015869498 -0.999777 -0.013930999
vn 0.015869498 -0.999777 -0.013930999
vn 0.015869498 -0.999777 -0.013930999
vn 0.015869498 -0.999777 -0.013930999
vn 0.015869498 -0.999777 -0.013930999
vn 0.015869498 -0.999777 -0.013930999
vn 0.015869498 -0.999777 -0.013930999
vn 0.015869498 -0.999777 -0.013930999
vn 0.015869498 -0.999777 -0.013930999
vn 0.015869498 -0.999777 -0.013930999
vn 0.015869498 -0.999777 -0.013930999
vn 0.015869498 -0.999777 -0.013930999
vn -0.6750134 -0.7378055 -0
vn -0.6750134 -0.7378055 -0
vn -0.6750134 -0.7378055 -0
vn -0.6750134 -0.7378055 -0
vn -0.6750134 -0.7378055 -0
vn -0.6750134 -0.7378055 -0
vn -0.015869439 -0.999777 -0.013930999
vn -0.015869439 -0.999777 -0.013930999
vn -0.015869439 -0.999777 -0.013930999
vn -0.015869439 -0.999777 -0.013930999
vn -0.015869439 -0.999777 -0.013930999
vn -0.015869439 -0.999777 -0.013930999
vn -0.015869439 -0.999777 -0.013930999
vn -0.015869439 -0.999777 -0.013930999
vn -0.015869439 -0.999777 -0.013930999
vn -0.015869439 -0.999777 -0.013930999
vn -0.015869439 -0.999777 -0.013930999
vn -0.015869439 -0.999777 -0.013930999
vn -0.64172256 -0.76693684 -0
vn -0.64172256 -0.76693684 -0
vn -0.64172256 -0.76693684 -0
vn -0.64172256 -0.76693684 -0
vn -0.64172256 -0.76693684 -0
vn -0.64172256 -0.76693684 -0
vn -0.64172256 -0.76693684 -0
vn -0.64172256 -0.76693684 -0
vn -0.9997769 -0.015869498 0.013939146
vn -0.9997769 -0.015869498 0.013939146
vn -0.9997769 -0.015869498 0.013939146
vn -0.9997769 -0.015869498 0.013939146
vn -0.9997769 -0.015869498 0.013939146
vn -0.9997769 -0.015869498 0.013939146
vn -0.9997769 -0.015869498 0.013939146
vn -0.9997769 -0.015869498 0.013939146
vn -0.9997769 -0.015869498 0.013939146
vn -0.9997769 -0.015869498 0.013939146
vn -0.9997769 -0.015869498 0.013939146
vn -0.9997769 -0.015869498 0.013939146
vn -0.9997769 -0.015869498 0.013939146
vn -0.9997769 -0.015869498 0.013939146
vn -0.9997769 -0.015869498 0.013939146
vn -0.9997769 -0.015869498 0.013939146
vn -0.6750135 0.7378054 -0
vn -0.6750135 0.7378054 -0
vn -0.6750135 0.7378054 -0
vn -0.6750135 0.7378054 -0
vn -0.6750135 0.7378054 -0
vn -0.6750135 0.7378054 -0
vn -0.9997769 -0.015869498 0.013939146
vn -0.9997769 -0.015869498 0.013939146
vn -0.9997769 -0.015869498 0.013939146
vn -0.9997769 -0.015869498 0.013939146
vn -0.9997769 0.015869439 0.013939214
vn -0.9997769 0.015869439 0.013939214
vn -0.9997769 0.015869439 0.013939214
vn -0.9997769 0.015869439 0.013939214
vn -0.9997769 -0.015869498 0.013939146
vn -0.9997769 -0.015869498 0.013939146
vn -0.9997769 -0.015869498 0.013939146
vn -0.9997769 -0.015869498 0.013939146
vn -0.9997769 -0.015869498 0.013939146
vn -0.9997769 -0.015869498 0.013939146
vn -0.9997769 -0.015869498 0.013939146
vn -0.9997769 -0.015869498 0.013939146
vn -0.9997769 0.015869439 0.013939214
vn -0.9997769 0.015869439 0.013939214
vn -0.9997769 0.015869439 0.013939214
vn -0.9997769 0.015869439 0.013939214
vn -0.9997769 0.015869439 0.013939214
vn -0.9997769 0.015869439 0.013939214
vn -0.9997769 0.015869439 0.013939214
vn -0.9997769 0.015869439 0.013939214
vn -0.9997769 -0.015869498 0.013939146
vn -0.9997769 -0.015869498 0.013939146
vn -0.015869439 0.9997769 0.013939553
vn -0.015869439 0.9997769 0.013939553
vn -0.015869439 0.9997769 0.013939553
vn -0.015869439 0.9997769 0.013939553
vn -0.015869439 0.9997769 0.013939553
vn -0.015869439 0.9997769 0.013939553
vn -0.015869439 0.9997769 0.013939553
vn -0.015869439 0.9997769 0.013939553
vn -0.015869439 0.9997769 0.013939553
vn -0.015869439 0.9997769 0.013939553
vn -0.015869439 0.9997769 0.013939553
vn -0.015869439 0.9997769 0.013939553
vn -0.015869439 0.9997769 0.013939553
vn -0.015869439 0.9997769 0.013939553
vn -0.015869439 0.9997769 0.013939553
vn -0.015869439 0.9997769 0.013939553
vn -0.015869439 0.9997769 0.013939553
vn -0.015869439 0.9997769 0.013939553
vn -0.015869439 0.9997769 0.013939553
vn -0.015869439 0.9997769 0.013939553
vn -0.015869439 0.9997769 0.013939553
vn -0.015869439 0.9997769 0.013939553
vn -0.015869439 0.9997769 0.013939553
vn -0.015869439 0.9997769 0.013939553
vn -0.015869439 0.9997769 0.013939553
vn -0.015869439 0.9997769 0.013939553
vn -0.015869439 0.9997769 0.013939553
vn -0.015869439 0.9997769 0.013939553
vn -0.015869439 0.9997769 0.013939553
vn -0.015869439 0.9997769 0.013939553
vn 0.999777 0.015869439 -0.013930659
vn 0.999777 0.015869439 -0.013930659
vn 0.999777 0.015869439 -0.013930659
vn 0.999777 0.015869439 -0.013930659
vn 0.999777 -0.015869498 -0.013930591
vn 0.999777 -0.015869498 -0.013930591
vn 0.999777 -0.015869498 -0.013930591
vn 0.999777 -0.015869498 -0.013930591
vn 0.999777 -0.015869498 -0.013930591
vn 0.999777 -0.015869498 -0.013930591
vn 0.999777 -0.015869498 -0.013930591
vn 0.999777 -0.015869498 -0.013930591
vn 0.999777 -0.015869498 -0.013930591
vn 0.999777 -0.015869498 -0.013930591
vn 0.999777 -0.015869498 -0.013930591
vn 0.999777 -0.015869498 -0.013930591
vn 0.999777 -0.015869498 -0.013930591
vn 0.999777 -0.015869498 -0.013930591
vn 0.999777 0.015869439 -0.013930659
vn 0.999777 0.015869439 -0.013930659
vn 0.999777 0.015869439 -0.013930659
vn 0.999777 0.015869439 -0.013930659
vn 0.999777 -0.015869498 -0.013930591
vn 0.999777 -0.015869498 -0.013930591
vn 0.999777 -0.015869498 -0.013930591
vn 0.999777 -0.015869498 -0.013930591
vn 0.7071068 0.70710677 -0
vn 0.7071068 0.70710677 -0
vn 0.7071068 0.70710677 -0
vn 0.7071068 0.70710677 -0
vn 0.7071068 0.70710677 -0
vn 0.7071068 0.70710677 -0
vn 0.7071068 0.70710677 -0
vn 0.7071068 0.70710677 -0
vn 0.11108637 -0.1428253 0.98349416
vn 0.07934743 -0.1745643 0.98144346
vn 0.07934743 -0.07934743 0.993684
vn 0.047608495 -0.11108637 0.99266976
vn 0.047608495 -0.11108637 0.99266976
vn 0.047608495 0.11108631 0.99266976
vn 0.11108637 -0.07934743 0.9906381
vn 0.07934743 -0.1428253 0.98656213
vn 0.07934743 -0.07934743 0.993684
vn 0.07934743 -0.1745643 0.98144346
vn 0.047608495 -0.11108637 0.99266976
vn 0.047608495 0.11108631 0.99266976
vn 0.1428253 0.015869439 0.9896207
vn 0.07934743 0.015869439 0.9967207
vn 0.015869498 0.17456418 0.98451793
vn -0.015869439 0.17456418 0.98451793
vn 0.047608495 0.07934731 0.99570954
vn 0.11108637 0.047608435 0.99266976
vn 0.07934743 0.015869439 0.9967207
vn 0.047608495 -0.015869498 0.99874
vn 0.015869498 -0.047608495 0.99874
vn 0.11108637 -0.07934743 0.9906381
vn 0.015869498 -0.07934743 0.9967207
vn 0.07934743 -0.11108637 0.9906381
vn 0.047608495 -0.1428253 0.9886022
vn 0.07934743 -0.1428253 0.98656213
vn 0.015869498 -0.11108637 0.99368405
vn 0.07934743 0.015869439 0.9967207
vn 0.1428253 -0.047608495 0.9886022
vn 0.07934743 -0.015869498 0.9967207
vn 0.11108637 0.015869439 0.99368405
vn 0.1428253 0.047608435 0.9886022
vn 0.1428253 0.047608435 0.9886022
vn 0.1428253 0.047608435 0.9886022
vn 0.1428253 0.047608435 0.9886022
vn 0.11108637 -0.015869498 0.99368405
vn 0.07934743 0.015869439 0.9967207
vn 0.11108637 0.015869439 0.99368405
vn 0.11108637 -0.015869498 0.99368405
vn 0.015869498 -0.047608495 0.99874
vn 0.047608495 -0.047608495 0.99773085
vn 0.015869498 -0.015869498 0.9997481
vn 0.015869498 -0.047608495 0.99874
vn -0.07934731 -0.015869498 0.99672073
vn -0.047608435 -0.015869498 0.99874
vn -0.07934731 0.015869439 0.99672073
vn -0.07934731 0.015869439 0.99672073
vn -0.07934731 0.11108631 0.9906381
vn -0.07934731 0.047608435 0.99570954
vn -0.07934731 0.07934731 0.99368405
vn -0.14282519 0.11108631 0.98349416
vn -0.14282519 0.07934731 0.9865622
vn -0.11108631 0.11108631 0.98758274
vn -0.14282519 0.07934731 0.9865622
vn 0.015869498 0.047608435 0.99874
vn 0.047608495 -0.047608495 0.99773085
vn 0.015869498 -0.015869498 0.9997481
vn -0.047608435 -0.047608495 0.99773085
vn 0.015869498 -0.047608495 0.99874
vn 0.11108637 -0.07934743 0.9906381
vn 0.047608495 -0.047608495 0.99773085
vn 0.015869498 -0.047608495 0.99874
vn 0.015869498 -0.047608495 0.99874
vn 0.015869498 -0.047608495 0.99874
vn 0.015869498 -0.047608495 0.99874
vn 0.047608495 -0.047608495 0.99773085
vn 0.047608495 -0.07934743 0.9957095
vn 0.047608495 -0.07934743 0.9957095
vn 0.047608495 -0.07934743 0.9957095
vn 0.047608495 -0.07934743 0.9957095
vn 0.047608495 -0.07934743 0.9957095
vn 0.047608495 -0.047608495 0.99773085
vn 0.047608495 -0.07934743 0.9957095
vn 0.015869498 -0.07934743 0.9967207
vn 0.015869498 -0.047608495 0.99874
vn 0.015869498 -0.047608495 0.99874
vn 0.015869498 -0.047608495 0.99874
vn 0.047608495 -0.07934743 0.9957095
vn 0.047608495 -0.047608495 0.99773085
vn 0.047608495 -0.11108637 0.99266976
vn 0.047608495 -0.047608495 0.99773085
vn 0.07934743 -0.07934743 0.993684
vn 0.07934743 -0.11108637 0.9906381
vn 0.11108637 -0.11108637 0.98758274
vn 0.11108637 -0.11108637 0.98758274
vn 0.11108637 -0.11108637 0.98758274
vn 0.11108637 -0.11108637 0.98758274
vn 0.11108637 -0.11108637 0.98758274
vn 0.11108637 -0.07934743 0.9906381
vn 0.11108637 -0.07934743 0.9906381
vn 0.11108637 -0.07934743 0.9906381
vn 0.11108637 -0.11108637 0.98758274
vn 0.11108637 -0.07934743 0.9906381
vn 0.07934743 -0.11108637 0.9906381
vn 0.07934743 -0.07934743 0.993684
vn 0.07934743 -0.047608495 0.9957095
vn 0.07934743 -0.07934743 0.993684
vn 0.047608495 -0.07934743 0.9957095
vn 0.047608495 -0.07934743 0.9957095
vn 0.047608495 -0.07934743 0.9957095
vn 0.047608495 -0.07934743 0.9957095
vn 0.015869498 -0.11108637 0.99368405
vn 0.015869498 -0.07934743 0.9967207
vn 0.015869498 -0.047608495 0.99874
vn 0.015869498 -0.047608495 0.99874
vn -0.015869439 -0.047608495 0.99874
vn -0.015869439 -0.047608495 0.99874
vn -0.015869439 -0.047608495 0.99874
vn -0.015869439 -0.047608495 0.99874
vn -0.015869439 -0.047608495 0.99874
vn -0.015869439 -0.047608495 0.99874
vn -0.015869439 -0.047608495 0.99874
vn -0.015869439 -0.047608495 0.99874
vn -0.015869439 -0.047608495 0.99874
vn -0.015869439 -0.047608495 0.99874
vn -0.015869439 -0.047608495 0.99874
vn -0.015869439 -0.047608495 0.99874
vn -0.015869439 -0.015869498 0.9997481
vn 0.015869498 -0.015869498 0.9997481
vn 0.015869498 0.015869439 0.9997481
vn -0.015869439 0.015869439 0.9997481
vn -0.015869439 0.11108631 0.99368405
vn -0.047608435 0.07934731 0.99570954
vn 0.015869498 0.07934731 0.99672073
vn -0.015869439 0.11108631 0.99368405
vn -0.015869439 0.11108631 0.99368405
vn -0.015869439 0.11108631 0.99368405
vn 0.015869498 0.14282519 0.9896207
vn -0.015869439 0.07934731 0.99672073
vn -0.015869439 0.11108631 0.99368405
vn 0.015869498 0.07934731 0.99672073
vn 0.015869498 0.07934731 0.99672073
vn -0.015869439 0.07934731 0.99672073
vn 0.015869498 0.015869439 0.9997481
vn 0.015869498 0.047608435 0.99874
vn -0.015869439 0.047608435 0.99874
vn -0.015869439 -0.015869498 0.9997481
vn -0.015869439 0.015869439 0.9997481
vn -0.015869439 -0.047608495 0.99874
vn 0.015869498 -0.015869498 0.9997481
vn -0.015869439 -0.047608495 0.99874
vn 0.015869498 -0.047608495 0.99874
vn -0.015869439 -0.047608495 0.99874
vn -0.015869439 -0.047608495 0.99874
vn -0.015869439 -0.015869498 0.9997481
vn 0.015869498 -0.047608495 0.99874
vn -0.015869439 -0.015869498 0.9997481
vn -0.015869439 -0.015869498 0.9997481
vn -0.015869439 0.015869439 0.9997481
vn 0.015869498 -0.015869498 0.9997481
vn -0.015869439 0.015869439 0.9997481
vn -0.015869439 0.015869439 0.9997481
vn -0.015869439 0.047608435 0.99874
vn 0.015869498 0.047608435 0.99874
vn -0.015869439 0.047608435 0.99874
vn -0.015869439 0.047608435 0.99874
vn -0.015869439 0.015869439 0.9997481
vn -0.015869439 0.047608435 0.99874
vn -0.015869439 0.015869439 0.9997481
vn 0.015869498 0.015869439 0.9997481
vn 0.015869498 -0.015869498 0.9997481
vn 0.015869498 0.015869439 0.9997481
vn 0.015869498 -0.015869498 0.9997481
vn 0.015869498 -0.015869498 0.9997481
vn 0.015869498 -0.015869498 0.9997481
vn 0.015869498 -0.015869498 0.9997481
vn 0.015869498 -0.015869498 0.9997481
vn 0.015869498 -0.015869498 0.9997481
vn 0.015869498 -0.015869498 0.9997481
vn 0.015869498 -0.015869498 0.9997481
vn 0.015869498 -0.015869498 0.9997481
vn 0.015869498 -0.047608495 0.99874
vn 0.015869498 -0.047608495 0.99874
vn 0.015869498 -0.07934743 0.9967207
vn 0.015869498 -0.07934743 0.9967207
vn 0.047608495 -0.1745643 0.98349416
vn 0.047608495 -0.1745643 0.98349416
vn 0.11108637 -0.2697811 0.95649254
vn 0.015869498 -0.07934743 0.9967207
vn 0.047608495 -0.07934743 0.9957095
vn 0.07934743 -0.20630324 0.97526556
vn 0.11108637 -0.20630324 0.9721619
vn 0.1428253 -0.2697811 0.95227045
vn 0.1428253 -0.2697811 0.95227045
vn 0.11108637 -0.2697811 0.95649254
vn 0.07934743 -0.20630324 0.97526556
vn 0.11108637 -0.23804218 0.96488124
vn 0.07934743 -0.20630324 0.97526556
vn 0.07934743 -0.20630324 0.97526556
vn 0.015869498 -0.07934743 0.9967207
vn 0.07934743 -0.07934743 0.993684
vn 0.015869498 -0.07934743 0.9967207
vn 0.015869498 -0.015869498 0.9997481
vn 0.047608495 -0.047608495 0.99773085
vn 0.015869498 -0.015869498 0.9997481
vn -0.015869439 -0.047608495 0.99874
vn -0.015869439 -0.047608495 0.99874
vn -0.015869439 -0.015869498 0.9997481
vn -0.015869439 -0.047608495 0.99874
vn -0.015869439 -0.047608495 0.99874
vn -0.015869439 -0.015869498 0.9997481
vn -0.015869439 -0.015869498 0.9997481
vn -0.015869439 0.047608435 0.99874
vn -0.015869439 0.047608435 0.99874
vn -0.047608435 0.047608435 0.99773085
vn -0.047608435 0.047608435 0.99773085
vn -0.047608435 0.047608435 0.99773085
vn -0.047608435 0.047608435 0.99773085
vn -0.047608435 0.047608435 0.99773085
vn -0.047608435 0.047608435 0.99773085
vn -0.047608435 0.047608435 0.99773085
vn -0.047608435 0.047608435 0.99773085
vn -0.015869439 0.047608435 0.99874
vn -0.015869439 0.015869439 0.9997481
vn -0.015869439 0.015869439 0.9997481
vn -0.015869439 0.015869439 0.9997481
vn -0.015869439 -0.015869498 0.9997481
vn 0.015869498 -0.015869498 0.9997481
vn 0.015869498 0.015869439 0.9997481
vn 0.015869498 -0.047608495 0.99874
vn 0.015869498 -0.015869498 0.9997481
vn 0.015869498 -0.047608495 0.99874
vn 0.015869498 -0.015869498 0.9997481
vn 0.047608495 -0.015869498 0.99874
vn 0.015869498 -0.015869498 0.9997481
vn 0.015869498 -0.047608495 0.99874
vn 0.015869498 -0.047608495 0.99874
vn 0.015869498 -0.015869498 0.9997481
vn 0.015869498 -0.047608495 0.99874
vn 0.015869498 -0.047608495 0.99874
vn 0.015869498 -0.047608495 0.99874
vn 0.015869498 -0.047608495 0.99874
vn 0.015869498 -0.015869498 0.9997481
vn 0.015869498 0.015869439 0.9997481
vn 0.015869498 -0.047608495 0.99874
vn 0.047608495 -0.11108637 0.99266976
vn 0.015869498 -0.015869498 0.9997481
vn 0.047608495 0.015869439 0.99874
vn 0.047608495 -0.07934743 0.9957095
vn 0.015869498 -0.047608495 0.99874
vn 0.015869498 -0.047608495 0.99874
vn 0.015869498 -0.015869498 0.9997481
vn 0.015869498 -0.015869498 0.9997481
vn 0.015869498 -0.015869498 0.9997481
vn 0.015869498 -0.015869498 0.9997481
vn 0.047608495 -0.07934743 0.9957095
vn 0.015869498 -0.015869498 0.9997481
vn 0.015869498 -0.015869498 0.9997481
vn 0.047608495 -0.07934743 0.9957095
vn 0.015869498 -0.047608495 0.99874
vn 0.047608495 -0.07934743 0.9957095
vn 0.015869498 -0.11108637 0.99368405
vn -0.015869439 -0.047608495 0.99874
vn 0.015869498 -0.047608495 0.99874
vn 0.015869498 -0.11108637 0.99368405
vn -0.015869439 0.015869439 0.9997481
vn 0.015869498 -0.11108637 0.99368405
vn 0.047608495 -0.11108637 0.99266976
vn -0.07934731 0.047608435 0.99570954
vn 0.11108637 -0.07934743 0.9906381
vn -0.015869439 0.015869439 0.9997481
vn 0.015869498 -0.047608495 0.99874
vn 0.11108637 -0.11108637 0.98758274
vn 0.07934743 -0.047608495 0.9957095
vn 0.047608495 -0.015869498 0.99874
vn 0.1428253 -0.015869498 0.9896207
vn 0.1428253 -0.015869498 0.9896207
vn 0.1745643 -0.015869498 0.9845179
vn 0.1428253 -0.015869498 0.9896207
vn 0.1428253 0.015869439 0.9896207
vn 0.1428253 0.015869439 0.9896207
vn 0.1428253 0.015869439 0.9896207
vn 0.1428253 0.015869439 0.9896207
vn 0.11108637 0.015869439 0.99368405
vn 0.1428253 0.015869439 0.9896207
vn 0.1428253 0.015869439 0.9896207
vn 0.11108637 0.015869439 0.99368405
vn 0.07934743 0.07934731 0.99368405
vn 0.07934743 0.07934731 0.99368405
vn 0.047608495 0.11108631 0.99266976
vn -0.015869439 0.17456418 0.98451793
vn 0.015869498 0.17456418 0.98451793
g tb_outline_03_mesh_0
f 3/3/3 2/2/2 1/1/1
f 4/4/4 3/3/3 1/1/1
f 5/5/5 3/3/3 4/4/4
f 6/6/6 5/5/5 4/4/4
f 7/7/7 5/5/5 6/6/6
f 8/8/8 7/7/7 6/6/6
f 9/9/9 7/7/7 8/8/8
f 10/10/10 9/9/9 8/8/8
f 11/11/11 9/9/9 10/10/10
f 12/12/12 11/11/11 10/10/10
f 13/13/13 11/11/11 12/12/12
f 14/14/14 13/13/13 12/12/12
f 17/17/17 16/16/16 15/15/15
f 18/18/18 17/17/17 15/15/15
f 19/19/19 17/17/17 18/18/18
f 20/20/20 19/19/19 18/18/18
f 21/21/21 19/19/19 20/20/20
f 22/22/22 21/21/21 20/20/20
f 25/25/25 24/24/24 23/23/23
f 26/26/26 25/25/25 23/23/23
f 27/27/27 25/25/25 26/26/26
f 28/28/28 27/27/27 26/26/26
f 29/29/29 27/27/27 28/28/28
f 30/30/30 29/29/29 28/28/28
f 31/31/31 29/29/29 30/30/30
f 32/32/32 31/31/31 30/30/30
f 33/33/33 31/31/31 32/32/32
f 34/34/34 33/33/33 32/32/32
f 35/35/35 33/33/33 34/34/34
f 36/36/36 35/35/35 34/34/34
f 37/37/37 35/35/35 36/36/36
f 38/38/38 37/37/37 36/36/36
f 39/39/39 37/37/37 38/38/38
f 40/40/40 39/39/39 38/38/38
f 41/41/41 39/39/39 40/40/40
f 42/42/42 41/41/41 40/40/40
f 43/43/43 41/41/41 42/42/42
f 44/44/44 43/43/43 42/42/42
f 45/45/45 43/43/43 44/44/44
f 46/46/46 45/45/45 44/44/44
f 47/47/47 45/45/45 46/46/46
f 48/48/48 47/47/47 46/46/46
f 51/51/51 50/50/50 49/49/49
f 52/52/52 51/51/51 49/49/49
f 53/53/53 51/51/51 52/52/52
f 54/54/54 53/53/53 52/52/52
f 55/55/55 53/53/53 54/54/54
f 56/56/56 55/55/55 54/54/54
f 57/57/57 55/55/55 56/56/56
f 58/58/58 57/57/57 56/56/56
f 59/59/59 57/57/57 58/58/58
f 60/60/60 59/59/59 58/58/58
f 61/61/61 59/59/59 60/60/60
f 62/62/62 61/61/61 60/60/60
f 63/63/63 61/61/61 62/62/62
f 64/64/64 63/63/63 62/62/62
f 65/65/65 63/63/63 64/64/64
f 66/66/66 65/65/65 64/64/64
f 67/67/67 65/65/65 66/66/66
f 68/68/68 67/67/67 66/66/66
f 69/69/69 67/67/67 68/68/68
f 70/70/70 69/69/69 68/68/68
f 71/71/71 69/69/69 70/70/70
f 72/72/72 71/71/71 70/70/70
f 73/73/73 71/71/71 72/72/72
f 74/74/74 73/73/73 72/72/72
f 75/75/75 73/73/73 74/74/74
f 76/76/76 75/75/75 74/74/74
f 77/77/77 75/75/75 76/76/76
f 78/78/78 77/77/77 76/76/76
f 79/79/79 77/77/77 78/78/78
f 80/80/80 79/79/79 78/78/78
f 83/83/83 82/82/82 81/81/81
f 84/84/84 83/83/83 81/81/81
f 85/85/85 83/83/83 84/84/84
f 86/86/86 85/85/85 84/84/84
f 87/87/87 85/85/85 86/86/86
f 88/88/88 87/87/87 86/86/86
f 89/89/89 87/87/87 88/88/88
f 90/90/90 89/89/89 88/88/88
f 91/91/91 89/89/89 90/90/90
f 92/92/92 91/91/91 90/90/90
f 93/93/93 91/91/91 92/92/92
f 94/94/94 93/93/93 92/92/92
f 95/95/95 93/93/93 94/94/94
f 96/96/96 95/95/95 94/94/94
f 97/97/97 95/95/95 96/96/96
f 98/98/98 97/97/97 96/96/96
f 99/99/99 97/97/97 98/98/98
f 100/100/100 99/99/99 98/98/98
f 101/101/101 99/99/99 100/100/100
f 102/102/102 101/101/101 100/100/100
f 103/103/103 101/101/101 102/102/102
f 104/104/104 103/103/103 102/102/102
f 105/105/105 103/103/103 104/104/104
f 106/106/106 105/105/105 104/104/104
f 109/109/109 108/108/108 107/107/107
f 110/110/110 109/109/109 107/107/107
f 111/111/111 109/109/109 110/110/110
f 112/112/112 111/111/111 110/110/110
f 115/115/115 114/114/114 113/113/113
f 116/116/116 115/115/115 113/113/113
f 117/117/117 115/115/115 116/116/116
f 118/118/118 117/117/117 116/116/116
f 119/119/119 117/117/117 118/118/118
f 120/120/120 119/119/119 118/118/118
f 121/121/121 119/119/119 120/120/120
f 122/122/122 121/121/121 120/120/120
f 123/123/123 121/121/121 122/122/122
f 124/124/124 123/123/123 122/122/122
f 125/125/125 123/123/123 124/124/124
f 126/126/126 125/125/125 124/124/124
f 127/127/127 125/125/125 126/126/126
f 128/128/128 127/127/127 126/126/126
f 131/131/131 130/130/130 129/129/129
f 132/132/132 131/131/131 129/129/129
f 133/133/133 131/131/131 132/132/132
f 134/134/134 133/133/133 132/132/132
f 135/135/135 133/133/133 134/134/134
f 136/136/136 135/135/135 134/134/134
f 139/139/139 138/138/138 137/137/137
f 140/140/140 139/139/139 137/137/137
f 141/141/141 139/139/139 140/140/140
f 142/142/142 141/141/141 140/140/140
f 143/143/143 141/141/141 142/142/142
f 144/144/144 143/143/143 142/142/142
f 145/145/145 143/143/143 144/144/144
f 146/146/146 145/145/145 144/144/144
f 147/147/147 145/145/145 146/146/146
f 148/148/148 147/147/147 146/146/146
f 151/151/151 150/150/150 149/149/149
f 152/152/152 151/151/151 149/149/149
f 153/153/153 151/151/151 152/152/152
f 154/154/154 153/153/153 152/152/152
f 157/157/157 156/156/156 155/155/155
f 158/158/158 157/157/157 155/155/155
f 159/159/159 157/157/157 158/158/158
f 160/160/160 159/159/159 158/158/158
f 161/161/161 159/159/159 160/160/160
f 162/162/162 161/161/161 160/160/160
f 163/163/163 161/161/161 162/162/162
f 164/164/164 163/163/163 162/162/162
f 165/165/165 163/163/163 164/164/164
f 166/166/166 165/165/165 164/164/164
f 167/167/167 165/165/165 166/166/166
f 168/168/168 167/167/167 166/166/166
f 171/171/171 170/170/170 169/169/169
f 172/172/172 171/171/171 169/169/169
f 173/173/173 171/171/171 172/172/172
f 174/174/174 173/173/173 172/172/172
f 175/175/175 173/173/173 174/174/174
f 176/176/176 175/175/175 174/174/174
f 177/177/177 175/175/175 176/176/176
f 178/178/178 177/177/177 176/176/176
f 181/181/181 180/180/180 179/179/179
f 182/182/182 181/181/181 179/179/179
f 185/185/185 184/184/184 183/183/183
f 184/184/184 186/186/186 183/183/183
f 183/183/183 186/186/186 187/187/187
f 186/186/186 188/188/188 187/187/187
f 187/187/187 188/188/188 189/189/189
f 188/188/188 190/190/190 189/189/189
f 189/189/189 190/190/190 191/191/191
f 190/190/190 192/192/192 191/191/191
f 191/191/191 192/192/192 193/193/193
f 192/192/192 194/194/194 193/193/193
f 193/193/193 194/194/194 195/195/195
f 194/194/194 196/196/196 195/195/195
f 199/199/199 198/198/198 197/197/197
f 200/200/200 199/199/199 197/197/197
f 203/203/203 202/202/202 201/201/201
f 204/204/204 203/203/203 201/201/201
f 205/205/205 203/203/203 204/204/204
f 206/206/206 205/205/205 204/204/204
f 207/207/207 205/205/205 206/206/206
f 208/208/208 207/207/207 206/206/206
f 209/209/209 207/207/207 208/208/208
f 210/210/210 209/209/209 208/208/208
f 213/213/213 212/212/212 211/211/211
f 214/214/214 213/213/213 211/211/211
f 215/215/215 213/213/213 214/214/214
f 216/216/216 215/215/215 214/214/214
f 217/217/217 215/215/215 216/216/216
f 218/218/218 217/217/217 216/216/216
f 219/219/219 217/217/217 218/218/218
f 220/220/220 219/219/219 218/218/218
f 221/221/221 219/219/219 220/220/220
f 222/222/222 221/221/221 220/220/220
f 223/223/223 221/221/221 222/222/222
f 224/224/224 223/223/223 222/222/222
f 227/227/227 226/226/226 225/225/225
f 228/228/228 227/227/227 225/225/225
f 229/229/229 227/227/227 228/228/228
f 230/230/230 229/229/229 228/228/228
f 233/233/233 232/232/232 231/231/231
f 234/234/234 233/233/233 231/231/231
f 235/235/235 233/233/233 234/234/234
f 236/236/236 235/235/235 234/234/234
f 237/237/237 235/235/235 236/236/236
f 238/238/238 237/237/237 236/236/236
f 239/239/239 237/237/237 238/238/238
f 240/240/240 239/239/239 238/238/238
f 241/241/241 239/239/239 240/240/240
f 242/242/242 241/241/241 240/240/240
f 245/245/245 244/244/244 243/243/243
f 246/246/246 245/245/245 243/243/243
f 247/247/247 245/245/245 246/246/246
f 248/248/248 247/247/247 246/246/246
f 249/249/249 247/247/247 248/248/248
f 250/250/250 249/249/249 248/248/248
f 253/253/253 252/252/252 251/251/251
f 254/254/254 253/253/253 251/251/251
f 255/255/255 253/253/253 254/254/254
f 256/256/256 255/255/255 254/254/254
f 257/257/257 255/255/255 256/256/256
f 258/258/258 257/257/257 256/256/256
f 259/259/259 257/257/257 258/258/258
f 260/260/260 259/259/259 258/258/258
f 261/261/261 259/259/259 260/260/260
f 262/262/262 261/261/261 260/260/260
f 263/263/263 261/261/261 262/262/262
f 264/264/264 263/263/263 262/262/262
f 265/265/265 263/263/263 264/264/264
f 266/266/266 265/265/265 264/264/264
f 269/269/269 268/268/268 267/267/267
f 270/270/270 269/269/269 267/267/267
f 271/271/271 269/269/269 270/270/270
f 272/272/272 271/271/271 270/270/270
f 275/275/275 274/274/274 273/273/273
f 276/276/276 275/275/275 273/273/273
f 277/277/277 275/275/275 276/276/276
f 278/278/278 277/277/277 276/276/276
f 279/279/279 277/277/277 278/278/278
f 280/280/280 279/279/279 278/278/278
f 281/281/281 279/279/279 280/280/280
f 282/282/282 281/281/281 280/280/280
f 283/283/283 281/281/281 282/282/282
f 284/284/284 283/283/283 282/282/282
f 285/285/285 283/283/283 284/284/284
f 286/286/286 285/285/285 284/284/284
f 287/287/287 285/285/285 286/286/286
f 288/288/288 287/287/287 286/286/286
f 289/289/289 287/287/287 288/288/288
f 290/290/290 289/289/289 288/288/288
f 291/291/291 289/289/289 290/290/290
f 292/292/292 291/291/291 290/290/290
f 293/293/293 291/291/291 292/292/292
f 294/294/294 293/293/293 292/292/292
f 295/295/295 293/293/293 294/294/294
f 296/296/296 295/295/295 294/294/294
f 297/297/297 295/295/295 296/296/296
f 298/298/298 297/297/297 296/296/296
f 301/301/301 300/300/300 299/299/299
f 302/302/302 301/301/301 299/299/299
f 303/303/303 301/301/301 302/302/302
f 304/304/304 303/303/303 302/302/302
f 305/305/305 303/303/303 304/304/304
f 306/306/306 305/305/305 304/304/304
f 307/307/307 305/305/305 306/306/306
f 308/308/308 307/307/307 306/306/306
f 309/309/309 307/307/307 308/308/308
f 310/310/310 309/309/309 308/308/308
f 311/311/311 309/309/309 310/310/310
f 312/312/312 311/311/311 310/310/310
f 313/313/313 311/311/311 312/312/312
f 314/314/314 313/313/313 312/312/312
f 315/315/315 313/313/313 314/314/314
f 316/316/316 315/315/315 314/314/314
f 317/317/317 315/315/315 316/316/316
f 318/318/318 317/317/317 316/316/316
f 319/319/319 317/317/317 318/318/318
f 320/320/320 319/319/319 318/318/318
f 321/321/321 319/319/319 320/320/320
f 322/322/322 321/321/321 320/320/320
f 323/323/323 321/321/321 322/322/322
f 324/324/324 323/323/323 322/322/322
f 325/325/325 323/323/323 324/324/324
f 326/326/326 325/325/325 324/324/324
f 327/327/327 325/325/325 326/326/326
f 328/328/328 327/327/327 326/326/326
f 331/331/331 330/330/330 329/329/329
f 332/332/332 331/331/331 329/329/329
f 333/333/333 331/331/331 332/332/332
f 334/334/334 333/333/333 332/332/332
f 335/335/335 333/333/333 334/334/334
f 336/336/336 335/335/335 334/334/334
f 337/337/337 335/335/335 336/336/336
f 338/338/338 337/337/337 336/336/336
f 339/339/339 337/337/337 338/338/338
f 340/340/340 339/339/339 338/338/338
f 341/341/341 339/339/339 340/340/340
f 342/342/342 341/341/341 340/340/340
f 343/343/343 341/341/341 342/342/342
f 344/344/344 343/343/343 342/342/342
f 345/345/345 343/343/343 344/344/344
f 346/346/346 345/345/345 344/344/344
f 347/347/347 345/345/345 346/346/346
f 348/348/348 347/347/347 346/346/346
f 349/349/349 347/347/347 348/348/348
f 350/350/350 349/349/349 348/348/348
f 351/351/351 349/349/349 350/350/350
f 352/352/352 351/351/351 350/350/350
f 353/353/353 351/351/351 352/352/352
f 354/354/354 353/353/353 352/352/352
f 357/357/357 356/356/356 355/355/355
f 358/358/358 357/357/357 355/355/355
f 359/359/359 357/357/357 358/358/358
f 360/360/360 359/359/359 358/358/358
f 361/361/361 359/359/359 360/360/360
f 362/362/362 361/361/361 360/360/360
f 365/365/365 364/364/364 363/363/363
f 363/363/363 364/364/364 366/366/366
f 366/366/366 367/367/367 363/363/363
f 367/367/367 366/366/366 368/368/368
f 363/363/363 369/369/369 365/365/365
f 370/370/370 363/363/363 367/367/367
f 369/369/369 363/363/363 370/370/370
f 367/367/367 371/371/371 370/370/370
f 368/368/368 371/371/371 367/367/367
f 370/370/370 372/372/372 369/369/369
f 372/372/372 370/370/370 371/371/371
f 371/371/371 373/373/373 372/372/372
f 374/374/374 373/373/373 371/371/371
f 371/371/371 368/368/368 374/374/374
f 365/365/365 369/369/369 375/375/375
f 375/375/375 376/376/376 365/365/365
f 374/374/374 368/368/368 377/377/377
f 377/377/377 378/378/378 374/374/374
f 379/379/379 378/378/378 377/377/377
f 380/380/380 375/375/375 369/369/369
f 369/369/369 381/381/381 380/380/380
f 376/376/376 375/375/375 382/382/382
f 382/382/382 375/375/375 380/380/380
f 382/382/382 383/383/383 376/376/376
f 384/384/384 380/380/380 381/381/381
f 380/380/380 384/384/384 382/382/382
f 381/381/381 385/385/385 384/384/384
f 384/384/384 385/385/385 386/386/386
f 383/383/383 382/382/382 387/387/387
f 387/387/387 382/382/382 384/384/384
f 387/387/387 388/388/388 383/383/383
f 386/386/386 389/389/389 384/384/384
f 384/384/384 389/389/389 387/387/387
f 389/389/389 386/386/386 390/390/390
f 388/388/388 387/387/387 391/391/391
f 391/391/391 387/387/387 389/389/389
f 391/391/391 392/392/392 388/388/388
f 390/390/390 393/393/393 389/389/389
f 389/389/389 393/393/393 391/391/391
f 393/393/393 390/390/390 394/394/394
f 392/392/392 391/391/391 395/395/395
f 395/395/395 391/391/391 393/393/393
f 395/395/395 396/396/396 392/392/392
f 394/394/394 397/397/397 393/393/393
f 393/393/393 397/397/397 395/395/395
f 397/397/397 394/394/394 398/398/398
f 396/396/396 395/395/395 399/399/399
f 399/399/399 395/395/395 397/397/397
f 399/399/399 400/400/400 396/396/396
f 398/398/398 401/401/401 397/397/397
f 397/397/397 401/401/401 399/399/399
f 401/401/401 398/398/398 402/402/402
f 400/400/400 399/399/399 403/403/403
f 403/403/403 399/399/399 401/401/401
f 403/403/403 404/404/404 400/400/400
f 402/402/402 405/405/405 401/401/401
f 401/401/401 405/405/405 403/403/403
f 405/405/405 402/402/402 406/406/406
f 404/404/404 403/403/403 407/407/407
f 407/407/407 403/403/403 405/405/405
f 407/407/407 408/408/408 404/404/404
f 406/406/406 409/409/409 405/405/405
f 405/405/405 409/409/409 407/407/407
f 409/409/409 406/406/406 410/410/410
f 408/408/408 407/407/407 411/411/411
f 411/411/411 407/407/407 409/409/409
f 411/411/411 412/412/412 408/408/408
f 410/410/410 413/413/413 409/409/409
f 409/409/409 413/413/413 411/411/411
f 413/413/413 410/410/410 414/414/414
f 412/412/412 411/411/411 415/415/415
f 415/415/415 411/411/411 413/413/413
f 415/415/415 416/416/416 412/412/412
f 414/414/414 417/417/417 413/413/413
f 413/413/413 417/417/417 415/415/415
f 417/417/417 414/414/414 418/418/418
f 416/416/416 415/415/415 419/419/419
f 419/419/419 415/415/415 417/417/417
f 419/419/419 420/420/420 416/416/416
f 421/421/421 420/420/420 419/419/419
f 418/418/418 422/422/422 417/417/417
f 417/417/417 422/422/422 419/419/419
f 422/422/422 418/418/418 423/423/423
f 423/423/423 419/419/419 422/422/422
f 419/419/419 423/423/423 421/421/421
f 424/424/424 421/421/421 423/423/423
f 423/423/423 425/425/425 424/424/424
f 421/421/421 424/424/424 426/426/426
f 426/426/426 427/427/427 421/421/421
f 428/428/428 424/424/424 425/425/425
f 426/426/426 424/424/424 428/428/428
f 425/425/425 429/429/429 428/428/428
f 427/427/427 426/426/426 430/430/430
f 428/428/428 430/430/430 426/426/426
f 430/430/430 431/431/431 427/427/427
f 432/432/432 428/428/428 429/429/429
f 430/430/430 428/428/428 432/432/432
f 429/429/429 433/433/433 432/432/432
f 431/431/431 430/430/430 434/434/434
f 432/432/432 434/434/434 430/430/430
f 434/434/434 435/435/435 431/431/431
f 436/436/436 432/432/432 433/433/433
f 434/434/434 432/432/432 436/436/436
f 433/433/433 437/437/437 436/436/436
f 435/435/435 434/434/434 438/438/438
f 436/436/436 438/438/438 434/434/434
f 438/438/438 439/439/439 435/435/435
f 440/440/440 436/436/436 437/437/437
f 438/438/438 436/436/436 440/440/440
f 437/437/437 441/441/441 440/440/440
f 439/439/439 438/438/438 442/442/442
f 440/440/440 442/442/442 438/438/438
f 442/442/442 443/443/443 439/439/439
f 444/444/444 440/440/440 441/441/441
f 442/442/442 440/440/440 444/444/444
f 441/441/441 445/445/445 444/444/444
f 443/443/443 442/442/442 446/446/446
f 444/444/444 446/446/446 442/442/442
f 446/446/446 447/447/447 443/443/443
f 448/448/448 444/444/444 445/445/445
f 446/446/446 444/444/444 448/448/448
f 445/445/445 449/449/449 448/448/448
f 447/447/447 446/446/446 450/450/450
f 448/448/448 450/450/450 446/446/446
f 450/450/450 451/451/451 447/447/447
f 452/452/452 448/448/448 449/449/449
f 450/450/450 448/448/448 452/452/452
f 449/449/449 453/453/453 452/452/452
f 451/451/451 450/450/450 454/454/454
f 454/454/454 450/450/450 452/452/452
f 454/454/454 455/455/455 451/451/451
f 456/456/456 452/452/452 453/453/453
f 452/452/452 456/456/456 454/454/454
f 453/453/453 457/457/457 456/456/456
f 455/455/455 454/454/454 458/458/458
f 458/458/458 454/454/454 456/456/456
f 458/458/458 459/459/459 455/455/455
f 460/460/460 456/456/456 457/457/457
f 456/456/456 460/460/460 458/458/458
f 457/457/457 461/461/461 460/460/460
f 459/459/459 458/458/458 462/462/462
f 462/462/462 458/458/458 460/460/460
f 462/462/462 463/463/463 459/459/459
f 464/464/464 460/460/460 461/461/461
f 460/460/460 464/464/464 462/462/462
f 461/461/461 465/465/465 464/464/464
f 463/463/463 462/462/462 466/466/466
f 466/466/466 462/462/462 464/464/464
f 466/466/466 467/467/467 463/463/463
f 468/468/468 464/464/464 465/465/465
f 464/464/464 468/468/468 466/466/466
f 465/465/465 469/469/469 468/468/468
f 467/467/467 466/466/466 470/470/470
f 470/470/470 466/466/466 468/468/468
f 470/470/470 471/471/471 467/467/467
f 472/472/472 468/468/468 469/469/469
f 468/468/468 472/472/472 470/470/470
f 469/469/469 473/473/473 472/472/472
f 471/471/471 470/470/470 474/474/474
f 474/474/474 470/470/470 472/472/472
f 474/474/474 475/475/475 471/471/471
f 476/476/476 475/475/475 474/474/474
f 477/477/477 472/472/472 473/473/473
f 472/472/472 477/477/477 474/474/474
f 474/474/474 477/477/477 476/476/476
f 473/473/473 478/478/478 477/477/477
f 477/477/477 478/478/478 479/479/479
f 479/479/479 476/476/476 477/477/477
f 480/480/480 476/476/476 479/479/479
f 479/479/479 481/481/481 480/480/480
f 476/476/476 480/480/480 482/482/482
f 482/482/482 483/483/483 476/476/476
f 484/484/484 483/483/483 482/482/482
f 485/485/485 480/480/480 481/481/481
f 482/482/482 480/480/480 485/485/485
f 481/481/481 486/486/486 485/485/485
f 485/485/485 486/486/486 487/487/487
f 482/482/482 488/488/488 484/484/484
f 485/485/485 488/488/488 482/482/482
f 489/489/489 484/484/484 488/488/488
f 487/487/487 490/490/490 485/485/485
f 488/488/488 485/485/485 490/490/490
f 490/490/490 487/487/487 491/491/491
f 488/488/488 492/492/492 489/489/489
f 490/490/490 492/492/492 488/488/488
f 493/493/493 489/489/489 492/492/492
f 491/491/491 494/494/494 490/490/490
f 492/492/492 490/490/490 494/494/494
f 492/492/492 495/495/495 493/493/493
f 494/494/494 495/495/495 492/492/492
f 496/496/496 493/493/493 495/495/495
f 497/497/497 494/494/494 491/491/491
f 495/495/495 494/494/494 497/497/497
f 491/491/491 498/498/498 497/497/497
f 497/497/497 498/498/498 499/499/499
f 495/495/495 500/500/500 496/496/496
f 497/497/497 500/500/500 495/495/495
f 501/501/501 496/496/496 500/500/500
f 499/499/499 502/502/502 497/497/497
f 500/500/500 497/497/497 502/502/502
f 502/502/502 499/499/499 503/503/503
f 500/500/500 504/504/504 501/501/501
f 502/502/502 504/504/504 500/500/500
f 505/505/505 501/501/501 504/504/504
f 503/503/503 506/506/506 502/502/502
f 504/504/504 502/502/502 506/506/506
f 506/506/506 503/503/503 507/507/507
f 504/504/504 508/508/508 505/505/505
f 506/506/506 508/508/508 504/504/504
f 509/509/509 505/505/505 508/508/508
f 507/507/507 510/510/510 506/506/506
f 508/508/508 506/506/506 510/510/510
f 510/510/510 507/507/507 511/511/511
f 508/508/508 512/512/512 509/509/509
f 510/510/510 512/512/512 508/508/508
f 513/513/513 509/509/509 512/512/512
f 511/511/511 514/514/514 510/510/510
f 512/512/512 510/510/510 514/514/514
f 514/514/514 511/511/511 515/515/515
f 512/512/512 516/516/516 513/513/513
f 514/514/514 516/516/516 512/512/512
f 517/517/517 513/513/513 516/516/516
f 515/515/515 518/518/518 514/514/514
f 516/516/516 514/514/514 518/518/518
f 518/518/518 515/515/515 519/519/519
f 516/516/516 520/520/520 517/517/517
f 518/518/518 520/520/520 516/516/516
f 521/521/521 517/517/517 520/520/520
f 519/519/519 522/522/522 518/518/518
f 520/520/520 518/518/518 522/522/522
f 522/522/522 519/519/519 523/523/523
f 520/520/520 524/524/524 521/521/521
f 522/522/522 524/524/524 520/520/520
f 523/523/523 524/524/524 522/522/522
f 525/525/525 521/521/521 524/524/524
f 524/524/524 523/523/523 525/525/525
f 525/525/525 523/523/523 526/526/526
f 526/526/526 527/527/527 525/525/525
f 528/528/528 527/527/527 526/526/526
f 529/529/529 526/526/526 523/523/523
f 526/526/526 529/529/529 528/528/528
f 523/523/523 530/530/530 529/529/529
f 529/529/529 530/530/530 531/531/531
f 531/531/531 528/528/528 529/529/529
f 532/532/532 528/528/528 531/531/531
f 531/531/531 533/533/533 532/532/532
f 528/528/528 532/532/532 534/534/534
f 534/534/534 535/535/535 528/528/528
f 536/536/536 532/532/532 533/533/533
f 534/534/534 532/532/532 536/536/536
f 533/533/533 537/537/537 536/536/536
f 538/538/538 536/536/536 537/537/537
f 537/537/537 539/539/539 538/538/538
f 538/538/538 539/539/539 540/540/540
f 535/535/535 534/534/534 541/541/541
f 536/536/536 541/541/541 534/534/534
f 541/541/541 536/536/536 538/538/538
f 541/541/541 542/542/542 535/535/535
f 542/542/542 541/541/541 543/543/543
f 538/538/538 543/543/543 541/541/541
f 543/543/543 544/544/544 542/542/542
f 544/544/544 543/543/543 545/545/545
f 545/545/545 543/543/543 538/538/538
f 545/545/545 546/546/546 544/544/544
f 540/540/540 547/547/547 538/538/538
f 538/538/538 547/547/547 545/545/545
f 547/547/547 540/540/540 548/548/548
f 546/546/546 545/545/545 549/549/549
f 549/549/549 545/545/545 547/547/547
f 549/549/549 550/550/550 546/546/546
f 548/548/548 551/551/551 547/547/547
f 547/547/547 551/551/551 549/549/549
f 551/551/551 548/548/548 552/552/552
f 550/550/550 549/549/549 553/553/553
f 553/553/553 549/549/549 551/551/551
f 553/553/553 554/554/554 550/550/550
f 555/555/555 554/554/554 553/553/553
f 552/552/552 556/556/556 551/551/551
f 551/551/551 556/556/556 553/553/553
f 553/553/553 556/556/556 555/555/555
f 556/556/556 552/552/552 557/557/557
f 557/557/557 555/555/555 556/556/556
f 558/558/558 555/555/555 557/557/557
f 557/557/557 559/559/559 558/558/558
f 558/558/558 559/559/559 560/560/560
f 555/555/555 558/558/558 561/561/561
f 561/561/561 562/562/562 555/555/555
f 563/563/563 562/562/562 561/561/561
f 558/558/558 564/564/564 561/561/561
f 561/561/561 564/564/564 563/563/563
f 560/560/560 564/564/564 558/558/558
f 565/565/565 563/563/563 564/564/564
f 564/564/564 560/560/560 565/565/565
f 565/565/565 560/560/560 566/566/566
f 566/566/566 567/567/567 565/565/565
f 565/565/565 567/567/567 568/568/568
f 565/565/565 568/568/568 569/569/569
f 569/569/569 570/570/570 565/565/565
f 571/571/571 570/570/570 569/569/569
f 572/572/572 568/568/568 567/567/567
f 569/569/569 568/568/568 572/572/572
f 567/567/567 573/573/573 572/572/572
f 569/569/569 574/574/574 571/571/571
f 572/572/572 574/574/574 569/569/569
f 575/575/575 571/571/571 574/574/574
f 576/576/576 572/572/572 573/573/573
f 574/574/574 572/572/572 576/576/576
f 573/573/573 577/577/577 576/576/576
f 574/574/574 578/578/578 575/575/575
f 576/576/576 578/578/578 574/574/574
f 579/579/579 575/575/575 578/578/578
f 580/580/580 576/576/576 577/577/577
f 578/578/578 576/576/576 580/580/580
f 577/577/577 581/581/581 580/580/580
f 580/580/580 581/581/581 582/582/582
f 578/578/578 583/583/583 579/579/579
f 580/580/580 583/583/583 578/578/578
f 582/582/582 583/583/583 580/580/580
f 584/584/584 579/579/579 583/583/583
f 583/583/583 582/582/582 584/584/584
f 584/584/584 582/582/582 585/585/585
f 585/585/585 586/586/586 584/584/584
f 582/582/582 587/587/587 585/585/585
f 588/588/588 586/586/586 585/585/585
f 585/585/585 587/587/587 588/588/588
f 588/588/588 587/587/587 589/589/589
f 589/589/589 590/590/590 588/588/588
f 588/588/588 590/590/590 591/591/591
f 588/588/588 591/591/591 592/592/592
f 592/592/592 593/593/593 588/588/588
f 594/594/594 593/593/593 592/592/592
f 595/595/595 591/591/591 590/590/590
f 592/592/592 591/591/591 595/595/595
f 590/590/590 596/596/596 595/595/595
f 592/592/592 597/597/597 594/594/594
f 595/595/595 597/597/597 592/592/592
f 598/598/598 594/594/594 597/597/597
f 599/599/599 595/595/595 596/596/596
f 597/597/597 595/595/595 599/599/599
f 596/596/596 600/600/600 599/599/599
f 597/597/597 601/601/601 598/598/598
f 599/599/599 601/601/601 597/597/597
f 598/598/598 601/601/601 602/602/602
f 602/602/602 601/601/601 599/599/599
f 602/602/602 603/603/603 598/598/598
f 604/604/604 599/599/599 600/600/600
f 599/599/599 604/604/604 602/602/602
f 600/600/600 605/605/605 604/604/604
f 603/603/603 602/602/602 606/606/606
f 606/606/606 602/602/602 604/604/604
f 606/606/606 607/607/607 603/603/603
f 608/608/608 607/607/607 606/606/606
f 609/609/609 604/604/604 605/605/605
f 604/604/604 609/609/609 606/606/606
f 606/606/606 609/609/609 608/608/608
f 605/605/605 610/610/610 609/609/609
f 609/609/609 610/610/610 611/611/611
f 611/611/611 608/608/608 609/609/609
f 612/612/612 608/608/608 611/611/611
f 611/611/611 613/613/613 612/612/612
f 612/612/612 613/613/613 614/614/614
f 608/608/608 612/612/612 615/615/615
f 615/615/615 616/616/616 608/608/608
f 614/614/614 617/617/617 612/612/612
f 615/615/615 612/612/612 617/617/617
f 617/617/617 614/614/614 618/618/618
f 616/616/616 615/615/615 619/619/619
f 617/617/617 619/619/619 615/615/615
f 619/619/619 620/620/620 616/616/616
f 618/618/618 621/621/621 617/617/617
f 619/619/619 617/617/617 621/621/621
f 621/621/621 618/618/618 622/622/622
f 620/620/620 619/619/619 623/623/623
f 621/621/621 623/623/623 619/619/619
f 622/622/622 623/623/623 621/621/621
f 623/623/623 624/624/624 620/620/620
f 625/625/625 624/624/624 623/623/623
f 623/623/623 622/622/622 625/625/625
f 626/626/626 625/625/625 622/622/622
f 622/622/622 627/627/627 626/626/626
f 628/628/628 626/626/626 627/627/627
f 627/627/627 629/629/629 628/628/628
f 626/626/626 628/628/628 630/630/630
f 630/630/630 631/631/631 626/626/626
f 632/632/632 631/631/631 630/630/630
f 633/633/633 628/628/628 629/629/629
f 630/630/630 628/628/628 633/633/633
f 629/629/629 634/634/634 633/633/633
f 630/630/630 635/635/635 632/632/632
f 633/633/633 635/635/635 630/630/630
f 636/636/636 632/632/632 635/635/635
f 637/637/637 633/633/633 634/634/634
f 635/635/635 633/633/633 637/637/637
f 634/634/634 638/638/638 637/637/637
f 635/635/635 639/639/639 636/636/636
f 637/637/637 639/639/639 635/635/635
f 640/640/640 636/636/636 639/639/639
f 641/641/641 637/637/637 638/638/638
f 639/639/639 637/637/637 641/641/641
f 638/638/638 379/379/379 641/641/641
f 377/377/377 641/641/641 379/379/379
f 639/639/639 642/642/642 640/640/640
f 641/641/641 642/642/642 639/639/639
f 643/643/643 640/640/640 642/642/642
f 641/641/641 377/377/377 644/644/644
f 644/644/644 642/642/642 641/641/641
f 642/642/642 644/644/644 643/643/643
f 644/644/644 377/377/377 368/368/368
f 368/368/368 643/643/643 644/644/644
