g tb_outline_08_mesh
v 0.24488369 -0.25792792 0.057742417
v 0.24488369 -0.25844967 0.064525425
v 0.24488369 -0.23497008 0.070264876
v 0.24488369 -0.2344483 0.06400365
v 0.24488369 -0.21149045 0.07548258
v 0.24488369 -0.21096869 0.06922135
v 0.24540545 -0.18801084 0.07965672
v 0.24540545 -0.18748908 0.07287371
v 0.24540545 -0.16453123 0.08174381
v 0.24540545 -0.16400947 0.07548258
v 0.24540545 -0.14105162 0.08174381
v 0.24540545 -0.14052986 0.0749608
v 0.24540545 -0.11757201 0.0801785
v 0.24540545 -0.117050245 0.07339549
v 0.24540545 -0.117050245 0.07339549
v 0.24540545 -0.11757201 0.0801785
v 0.23392653 -0.10348424 0.07809141
v 0.23392653 -0.10348424 0.07183018
v 0.22296938 -0.08939648 0.076526105
v 0.22296938 -0.08939648 0.0697431
v 0.22296938 -0.08939648 0.0697431
v 0.22296938 -0.08939648 0.076526105
v 0.22296938 -0.063829795 0.07391727
v 0.22296938 -0.063308015 0.06765604
v 0.22296938 -0.038263097 0.07287371
v 0.22296938 -0.037741333 0.06661248
v 0.22296938 -0.012174651 0.07391727
v 0.22296938 -0.011652872 0.06713426
v 0.22296938 0.013392031 0.07600433
v 0.22296938 0.01391381 0.0697431
v 0.22296938 0.039480507 0.07965672
v 0.22296938 0.039480507 0.07287371
v 0.22296938 0.065047175 0.08122203
v 0.22296938 0.065568954 0.07443902
v 0.22296938 0.09061387 0.0801785
v 0.22296938 0.09113565 0.07339549
v 0.22296938 0.11670235 0.07913494
v 0.22296938 0.1172241 0.07287371
v 0.22296938 0.14226902 0.07809141
v 0.22349115 0.1427908 0.07183018
v 0.22296938 0.16835749 0.07391727
v 0.22349115 0.16835749 0.06713426
v 0.22349115 0.19392416 0.0697431
v 0.22349115 0.19444594 0.06348187
v 0.22349115 0.19444594 0.06348187
v 0.22349115 0.19392416 0.0697431
v 0.20888162 0.20488131 0.06817779
v 0.20888162 0.20540309 0.06139481
v 0.19427207 0.21636024 0.06765604
v 0.19479385 0.21688202 0.06087303
v 0.19479385 0.21688202 0.06087303
v 0.19427207 0.21636024 0.06765604
v 0.16974893 0.21636024 0.06765604
v 0.16974893 0.21688202 0.06139481
v 0.14470401 0.21636024 0.06869957
v 0.14470401 0.21688202 0.06191656
v 0.119659096 0.21688202 0.06922135
v 0.12018086 0.21688202 0.06243834
v 0.09513594 0.21688202 0.070264876
v 0.09513594 0.21740377 0.06348187
v 0.070091024 0.21688202 0.070786655
v 0.070091024 0.21740377 0.06400365
v 0.04556787 0.21688202 0.071308404
v 0.04556787 0.21740377 0.064525425
v 0.020522952 0.21740377 0.07183018
v 0.020522952 0.21740377 0.065047175
v -0.004521966 0.21740377 0.07183018
v -0.004521966 0.21792555 0.065047175
v -0.029045105 0.21740377 0.07235196
v -0.029045105 0.21792555 0.065568954
v -0.054090023 0.21740377 0.07235196
v -0.054090023 0.21792555 0.065568954
v -0.07913494 0.21740377 0.07287371
v -0.07913494 0.21792555 0.06609073
v -0.10365811 0.21792555 0.07287371
v -0.10365811 0.21792555 0.06609073
v -0.10365811 0.21792555 0.06609073
v -0.10365811 0.21792555 0.07287371
v -0.118267655 0.2341004 0.07339549
v -0.118267655 0.2341004 0.06661248
v -0.13287717 0.24975348 0.07391727
v -0.13287717 0.25027525 0.06713426
v -0.14748672 0.26592833 0.07443902
v -0.14748672 0.2664501 0.06765604
v -0.14748672 0.2664501 0.06765604
v -0.14748672 0.26592833 0.07443902
v -0.17305341 0.26592833 0.07391727
v -0.17305341 0.2664501 0.06713426
v -0.19862008 0.26592833 0.07287371
v -0.19862008 0.2664501 0.06609073
v -0.223665 0.26592833 0.07339549
v -0.223665 0.2664501 0.06661248
v -0.2492317 0.26592833 0.07235196
v -0.2492317 0.2664501 0.06609073
v -0.2747984 0.26592833 0.070264876
v -0.2747984 0.2664501 0.06348187
v -0.2747984 0.2664501 0.06348187
v -0.2747984 0.26592833 0.070264876
v -0.2747984 0.23931807 0.07339549
v -0.2747984 0.23983985 0.06661248
v -0.2747984 0.21270785 0.07391727
v -0.2747984 0.21322963 0.06713426
v -0.2747984 0.18609762 0.07443902
v -0.2742766 0.1866194 0.06817779
v -0.2742766 0.1594874 0.07600433
v -0.2742766 0.16000918 0.0697431
v -0.2742766 0.13287717 0.076526105
v -0.2742766 0.13339895 0.070264876
v -0.2742766 0.106266946 0.07600433
v -0.2742766 0.106788725 0.06922135
v -0.2742766 0.07965672 0.0749608
v -0.2742766 0.0801785 0.06817779
v -0.2742766 0.053046495 0.07339549
v -0.2742766 0.053568274 0.06661248
v -0.2742766 0.02643627 0.07287371
v -0.2742766 0.026958048 0.06661248
v -0.2742766 0.026958048 0.06661248
v -0.2742766 0.02643627 0.07287371
v -0.2560147 0.00817436 0.07443902
v -0.2560147 0.00817436 0.06765604
v -0.23827454 -0.010087565 0.077047884
v -0.23827454 -0.010087565 0.070264876
v -0.23827454 -0.010087565 0.070264876
v -0.23827454 -0.010087565 0.077047884
v -0.23827454 -0.034088954 0.07913494
v -0.23827454 -0.033567175 0.07235196
v -0.23827454 -0.05809033 0.08070025
v -0.23827454 -0.057568565 0.07391727
v -0.23827454 -0.082091704 0.082787335
v -0.23827454 -0.08156994 0.07600433
v -0.23827454 -0.106093094 0.083309114
v -0.23827454 -0.10557133 0.077047884
v -0.23827454 -0.13009447 0.08383089
v -0.23827454 -0.1295727 0.077047884
v -0.23827454 -0.15357408 0.082265556
v -0.23827454 -0.15357408 0.07600433
v -0.23827454 -0.17757547 0.0801785
v -0.23827454 -0.17705369 0.07339549
v -0.23827454 -0.20157684 0.07600433
v -0.23827454 -0.20105508 0.06922135
v -0.23827454 -0.22557822 0.070786655
v -0.23827454 -0.22505645 0.06400365
v -0.23827454 -0.22505645 0.06400365
v -0.23827454 -0.22557822 0.070786655
v -0.21322963 -0.22557822 0.06765604
v -0.21322963 -0.22505645 0.06087303
v -0.18870649 -0.22557822 0.064525425
v -0.18818471 -0.22505645 0.057742417
v -0.16366157 -0.22557822 0.060351253
v -0.16313979 -0.22505645 0.054090023
v -0.13861665 -0.22557822 0.057220638
v -0.13861665 -0.22505645 0.05043766
v -0.11357173 -0.22557822 0.05669889
v -0.11357173 -0.22505645 0.05043766
v -0.088526815 -0.22557822 0.057742417
v -0.088526815 -0.22505645 0.05095941
v -0.06348187 -0.22557822 0.058785945
v -0.06348187 -0.22505645 0.052002966
v -0.03843695 -0.22557822 0.059829503
v -0.03843695 -0.22505645 0.053046495
v -0.013392031 -0.22557822 0.059307724
v -0.013392031 -0.22505645 0.053046495
v 0.011652872 -0.22557822 0.059829503
v 0.011652872 -0.22505645 0.053046495
v 0.03669779 -0.22557822 0.059829503
v 0.03669779 -0.22505645 0.053046495
v 0.061220944 -0.22557822 0.059829503
v 0.061742708 -0.22505645 0.053046495
v 0.061742708 -0.22505645 0.053046495
v 0.061220944 -0.22557822 0.059829503
v 0.075830474 -0.24227484 0.05669889
v 0.075830474 -0.24175307 0.04991588
v 0.09044002 -0.25897145 0.05617711
v 0.09044002 -0.25844967 0.0493941
v 0.09044002 -0.25844967 0.0493941
v 0.09044002 -0.25897145 0.05617711
v 0.1160067 -0.25897145 0.057742417
v 0.1160067 -0.25844967 0.05095941
v 0.1415734 -0.25897145 0.059307724
v 0.14209516 -0.25844967 0.052524716
v 0.16766185 -0.25844967 0.06087303
v 0.16766185 -0.25792792 0.054090023
v 0.19322854 -0.25844967 0.06087303
v 0.19322854 -0.25792792 0.054090023
v 0.21931699 -0.25844967 0.06243834
v 0.21931699 -0.25792792 0.05565533
v 0.24488369 -0.25844967 0.064525425
v 0.24488369 -0.25792792 0.057742417
v 0.23497008 -0.2480143 0.059307724
v 0.23497008 -0.2480143 0.06609073
v 0.21149045 -0.24853607 0.06348187
v 0.21149045 -0.2480143 0.05669889
v 0.18801084 -0.24853607 0.06191656
v 0.18853262 -0.2480143 0.05513358
v 0.16505301 -0.24853607 0.06087303
v 0.16505301 -0.2480143 0.054090023
v 0.1415734 -0.24853607 0.059307724
v 0.1415734 -0.24853607 0.053046495
v 0.11809379 -0.24905784 0.058264196
v 0.11809379 -0.24853607 0.051481187
v 0.09461418 -0.24905784 0.05669889
v 0.09513594 -0.24853607 0.04991588
v 0.09513594 -0.24853607 0.04991588
v 0.09461418 -0.24905784 0.05669889
v 0.0805264 -0.23236123 0.058785945
v 0.0805264 -0.23183946 0.052002966
v 0.065916866 -0.21566461 0.06243834
v 0.065916866 -0.21514285 0.05565533
v 0.065916866 -0.21514285 0.05565533
v 0.065916866 -0.21566461 0.06243834
v 0.03930664 -0.21566461 0.06243834
v 0.03930664 -0.21514285 0.05565533
v 0.012696415 -0.21566461 0.06191656
v 0.012696415 -0.21514285 0.05565533
v -0.014435589 -0.21566461 0.06191656
v -0.014435589 -0.21514285 0.05513358
v -0.041045815 -0.21566461 0.06087303
v -0.041045815 -0.21514285 0.054090023
v -0.06765604 -0.21566461 0.059829503
v -0.06765604 -0.21514285 0.053568274
v -0.094788045 -0.21566461 0.059307724
v -0.094266266 -0.21514285 0.052524716
v -0.12139827 -0.21566461 0.058264196
v -0.12139827 -0.21514285 0.052002966
v -0.1480085 -0.21566461 0.06087303
v -0.1480085 -0.21514285 0.054090023
v -0.17514047 -0.21566461 0.065047175
v -0.17461872 -0.21514285 0.058264196
v -0.2017507 -0.21566461 0.06869957
v -0.2017507 -0.21514285 0.06191656
v -0.22836092 -0.21566461 0.07183018
v -0.22836092 -0.21514285 0.065568954
v -0.22836092 -0.21514285 0.065568954
v -0.22836092 -0.21566461 0.07183018
v -0.22836092 -0.18957615 0.07756963
v -0.22836092 -0.18905438 0.070786655
v -0.22836092 -0.16296592 0.08070025
v -0.22836092 -0.16296592 0.07391727
v -0.22836092 -0.13687748 0.082787335
v -0.22836092 -0.1363557 0.07600433
v -0.22836092 -0.110789016 0.083309114
v -0.22836092 -0.11026725 0.077047884
v -0.22836092 -0.084700555 0.082787335
v -0.22836092 -0.08417879 0.076526105
v -0.22836092 -0.058612093 0.08174381
v -0.22836092 -0.05809033 0.0749608
v -0.22836092 -0.032523647 0.07965672
v -0.22836092 -0.032001868 0.07287371
v -0.22836092 -0.0064351857 0.07756963
v -0.22836092 -0.0059134066 0.070786655
v -0.22836092 -0.0059134066 0.070786655
v -0.22836092 -0.0064351857 0.07756963
v -0.24610108 0.011826724 0.07443902
v -0.24610108 0.012348503 0.06817779
v -0.264363 0.030610412 0.07287371
v -0.264363 0.030610412 0.06661248
v -0.264363 0.030610412 0.06661248
v -0.264363 0.030610412 0.07287371
v -0.264363 0.05565533 0.07339549
v -0.264363 0.05565533 0.06661248
v -0.264363 0.08070025 0.0749608
v -0.264363 0.08122203 0.06817779
v -0.264363 0.1057452 0.07600433
v -0.264363 0.106266946 0.06922135
v -0.264363 0.13079011 0.076526105
v -0.264363 0.13131186 0.0697431
v -0.264363 0.15583503 0.07600433
v -0.264363 0.15635678 0.06922135
v -0.264363 0.18087995 0.0749608
v -0.264363 0.1814017 0.06817779
v -0.26488477 0.20592487 0.07391727
v -0.264363 0.20644662 0.06713426
v -0.26488477 0.23096979 0.07287371
v -0.26488477 0.23149154 0.06661248
v -0.26488477 0.2560147 0.07235196
v -0.26488477 0.25653648 0.065568954
v -0.26488477 0.25653648 0.065568954
v -0.26488477 0.2560147 0.07235196
v -0.24244869 0.2560147 0.07339549
v -0.24192691 0.25653648 0.06661248
v -0.21949086 0.2560147 0.07339549
v -0.21949086 0.25653648 0.06661248
v -0.19705477 0.2560147 0.07287371
v -0.19705477 0.25653648 0.06609073
v -0.17461872 0.2560147 0.07339549
v -0.17461872 0.25653648 0.06661248
v -0.15218264 0.2560147 0.07391727
v -0.15166086 0.25653648 0.06713426
v -0.15166086 0.25653648 0.06713426
v -0.15218264 0.2560147 0.07391727
v -0.1375731 0.23983985 0.07339549
v -0.1375731 0.24036163 0.06661248
v -0.12296358 0.223665 0.07287371
v -0.12296358 0.22418678 0.06609073
v -0.10835403 0.20801193 0.07235196
v -0.10835403 0.20801193 0.065568954
v -0.10835403 0.20801193 0.065568954
v -0.10835403 0.20801193 0.07235196
v -0.083309114 0.20749018 0.07235196
v -0.083309114 0.20801193 0.065568954
v -0.058264196 0.20749018 0.07235196
v -0.058264196 0.20801193 0.065568954
v -0.033741027 0.20749018 0.07235196
v -0.033219278 0.20801193 0.065568954
v -0.008696109 0.20749018 0.07235196
v -0.008696109 0.20749018 0.065568954
v 0.016348794 0.2069684 0.07183018
v 0.016348794 0.20749018 0.065047175
v 0.041393712 0.2069684 0.071308404
v 0.041393712 0.20749018 0.065047175
v 0.06643863 0.2069684 0.071308404
v 0.06643863 0.20749018 0.064525425
v 0.09148356 0.2069684 0.070786655
v 0.09148356 0.2069684 0.06400365
v 0.1160067 0.20644662 0.0697431
v 0.11652848 0.2069684 0.06296012
v 0.14105162 0.20644662 0.06869957
v 0.14105162 0.2069684 0.06243834
v 0.16609654 0.20644662 0.06817779
v 0.16609654 0.2069684 0.06191656
v 0.19114146 0.20644662 0.06817779
v 0.19114146 0.2069684 0.06139481
v 0.19114146 0.2069684 0.06139481
v 0.19114146 0.20644662 0.06817779
v 0.20209861 0.19757655 0.06922135
v 0.20209861 0.19809833 0.06243834
v 0.21305576 0.18922824 0.070786655
v 0.21305576 0.18922824 0.06400365
v 0.21305576 0.18922824 0.06400365
v 0.21305576 0.18922824 0.070786655
v 0.21305576 0.16366157 0.0749608
v 0.21305576 0.16366157 0.06817779
v 0.21305576 0.1375731 0.07809141
v 0.21305576 0.13809487 0.07183018
v 0.21305576 0.112006426 0.07913494
v 0.21305576 0.112528175 0.07287371
v 0.21305576 0.08643973 0.0801785
v 0.21305576 0.08696151 0.07339549
v 0.21305576 0.06087303 0.08070025
v 0.21305576 0.06139481 0.07391727
v 0.21305576 0.035306334 0.07913494
v 0.21305576 0.035828114 0.07287371
v 0.21305576 0.009739667 0.07548258
v 0.21305576 0.009739667 0.06869957
v 0.21305576 -0.016348794 0.07339549
v 0.21305576 -0.01582703 0.06661248
v 0.21305576 -0.04191549 0.07287371
v 0.21305576 -0.041393712 0.06661248
v 0.212534 -0.06748217 0.07391727
v 0.21305576 -0.06696041 0.06765604
v 0.212534 -0.09304887 0.076526105
v 0.21305576 -0.09252709 0.0697431
v 0.21305576 -0.09252709 0.0697431
v 0.212534 -0.09304887 0.076526105
v 0.22401291 -0.10713664 0.07809141
v 0.22401291 -0.10661486 0.071308404
v 0.23549184 -0.1212244 0.07965672
v 0.23549184 -0.120702624 0.07287371
v 0.23549184 -0.120702624 0.07287371
v 0.23549184 -0.1212244 0.07965672
v 0.23549184 -0.14679109 0.08070025
v 0.23549184 -0.14626932 0.07443902
v 0.23497008 -0.171836 0.0801785
v 0.23549184 -0.171836 0.07339549
v 0.23497008 -0.19740269 0.077047884
v 0.23497008 -0.19688092 0.070264876
v 0.23497008 -0.22296938 0.07235196
v 0.23497008 -0.2224476 0.065568954
v 0.23497008 -0.2480143 0.06609073
v 0.23497008 -0.2480143 0.059307724
v 0.2381007 -0.22296938 0.07287371
v 0.23497008 -0.22296938 0.07235196
v 0.23497008 -0.19740269 0.077047884
v 0.23497008 -0.2480143 0.06609073
v 0.23862246 -0.19740269 0.077047884
v 0.23497008 -0.171836 0.0801785
v 0.23862246 -0.171836 0.08070025
v 0.23549184 -0.14679109 0.08070025
v 0.23862246 -0.14679109 0.08122203
v 0.23549184 -0.1212244 0.07965672
v 0.24175307 -0.21149045 0.07548258
v 0.24175307 -0.18801084 0.07913494
v 0.24175307 -0.23497008 0.070264876
v 0.24175307 -0.16453123 0.08174381
v 0.24488369 -0.23497008 0.070264876
v 0.24488369 -0.21149045 0.07548258
v 0.24540545 -0.18801084 0.07965672
v 0.24488369 -0.25844967 0.064525425
v 0.24540545 -0.16453123 0.08174381
v 0.24227484 -0.14105162 0.08122203
v 0.24540545 -0.14105162 0.08174381
v 0.21931699 -0.2547973 0.06296012
v 0.21931699 -0.25844967 0.06243834
v 0.23862246 -0.12018086 0.07965672
v 0.24227484 -0.11913732 0.07965672
v 0.24540545 -0.11757201 0.0801785
v 0.23392653 -0.10348424 0.07809141
v 0.23131768 -0.10557133 0.07861319
v 0.22296938 -0.08939648 0.076526105
v 0.22662176 -0.10504955 0.07809141
v 0.22401291 -0.10713664 0.07809141
v 0.21149045 -0.2516667 0.06243834
v 0.21149045 -0.24853607 0.06348187
v 0.21931699 -0.090961784 0.076526105
v 0.21618637 -0.09200533 0.076526105
v 0.212534 -0.09304887 0.076526105
v 0.212534 -0.06748217 0.07391727
v 0.19322854 -0.25531906 0.06139481
v 0.19322854 -0.25844967 0.06087303
v 0.18801084 -0.2516667 0.06191656
v 0.18801084 -0.24853607 0.06191656
v 0.16766185 -0.25531906 0.06087303
v 0.16766185 -0.25844967 0.06087303
v 0.16505301 -0.25218844 0.06087303
v 0.16505301 -0.24853607 0.06087303
v 0.1415734 -0.25531906 0.059307724
v 0.1415734 -0.25897145 0.059307724
v 0.1415734 -0.25218844 0.059307724
v 0.1415734 -0.24853607 0.059307724
v 0.11809379 -0.25218844 0.058264196
v 0.11809379 -0.24905784 0.058264196
v 0.09461418 -0.24905784 0.05669889
v 0.1160067 -0.25531906 0.057742417
v 0.1160067 -0.25897145 0.057742417
v 0.09044002 -0.25897145 0.05617711
v 0.075830474 -0.24227484 0.05669889
v 0.07791756 -0.2344483 0.058264196
v 0.0805264 -0.23236123 0.058785945
v 0.061220944 -0.22557822 0.059829503
v 0.065916866 -0.21566461 0.06243834
v 0.03930664 -0.21879523 0.06191656
v 0.03930664 -0.21566461 0.06243834
v 0.03669779 -0.2224476 0.06087303
v 0.03669779 -0.22557822 0.059829503
v 0.012696415 -0.21879523 0.06139481
v 0.012696415 -0.21566461 0.06191656
v 0.011652872 -0.2224476 0.06087303
v 0.011652872 -0.22557822 0.059829503
v -0.014435589 -0.21879523 0.06139481
v -0.014435589 -0.21566461 0.06191656
v -0.013392031 -0.2224476 0.060351253
v -0.013392031 -0.22557822 0.059307724
v -0.03843695 -0.2224476 0.060351253
v -0.03843695 -0.22557822 0.059829503
v -0.041045815 -0.21879523 0.060351253
v -0.041045815 -0.21566461 0.06087303
v -0.06348187 -0.2224476 0.059307724
v -0.06348187 -0.22557822 0.058785945
v -0.06765604 -0.21879523 0.059829503
v -0.06765604 -0.21566461 0.059829503
v -0.088526815 -0.2224476 0.058264196
v -0.088526815 -0.22557822 0.057742417
v -0.094788045 -0.21879523 0.058785945
v -0.094788045 -0.21566461 0.059307724
v -0.11357173 -0.2224476 0.057742417
v -0.11357173 -0.22557822 0.05669889
v -0.12139827 -0.21879523 0.058264196
v -0.12139827 -0.21566461 0.058264196
v -0.13861665 -0.2224476 0.057742417
v -0.13861665 -0.22557822 0.057220638
v -0.1480085 -0.21879523 0.059829503
v -0.1480085 -0.21566461 0.06087303
v -0.16366157 -0.2224476 0.06139481
v -0.16366157 -0.22557822 0.060351253
v -0.17514047 -0.21879523 0.06400365
v -0.17514047 -0.21566461 0.065047175
v -0.2017507 -0.21566461 0.06869957
v -0.18870649 -0.2224476 0.065568954
v -0.18870649 -0.22557822 0.064525425
v -0.2017507 -0.21879523 0.06817779
v -0.22836092 -0.21566461 0.07183018
v -0.21322963 -0.2224476 0.06869957
v -0.21322963 -0.22557822 0.06765604
v -0.23827454 -0.22557822 0.070786655
v -0.23514393 -0.20157684 0.07548258
v -0.23827454 -0.20157684 0.07600433
v -0.23149154 -0.18957615 0.07756963
v -0.22836092 -0.18957615 0.07756963
v -0.23514393 -0.17757547 0.07965672
v -0.23827454 -0.17757547 0.0801785
v -0.23149154 -0.16296592 0.08122203
v -0.22836092 -0.16296592 0.08070025
v -0.23514393 -0.15357408 0.082265556
v -0.23827454 -0.15357408 0.082265556
v -0.23149154 -0.13687748 0.082787335
v -0.22836092 -0.13687748 0.082787335
v -0.23514393 -0.13009447 0.08383089
v -0.23827454 -0.13009447 0.08383089
v -0.23149154 -0.110789016 0.083309114
v -0.22836092 -0.110789016 0.083309114
v -0.23514393 -0.106093094 0.083309114
v -0.23827454 -0.106093094 0.083309114
v -0.23149154 -0.084700555 0.082787335
v -0.22836092 -0.084700555 0.082787335
v -0.23514393 -0.082091704 0.082787335
v -0.23827454 -0.082091704 0.082787335
v -0.23149154 -0.058612093 0.08122203
v -0.22836092 -0.058612093 0.08174381
v -0.23514393 -0.05809033 0.08122203
v -0.23827454 -0.05809033 0.08070025
v -0.23514393 -0.034088954 0.07913494
v -0.23827454 -0.034088954 0.07913494
v -0.23827454 -0.010087565 0.077047884
v -0.23149154 -0.032523647 0.07913494
v -0.22836092 -0.032523647 0.07965672
v -0.22836092 -0.0064351857 0.07756963
v -0.24870992 0.009739667 0.07443902
v -0.24610108 0.011826724 0.07443902
v -0.264363 0.030610412 0.07287371
v -0.25392765 0.010261416 0.07443902
v -0.2560147 0.00817436 0.07443902
v -0.2742766 0.02643627 0.07287371
v -0.2742766 0.053046495 0.07339549
v -0.2674936 0.05565533 0.07339549
v -0.264363 0.05565533 0.07339549
v -0.264363 0.08070025 0.0749608
v -0.271146 0.07965672 0.0749608
v -0.2742766 0.07965672 0.0749608
v -0.271146 0.106266946 0.07600433
v -0.2742766 0.106266946 0.07600433
v -0.2742766 0.13287717 0.076526105
v -0.2674936 0.08070025 0.0749608
v -0.264363 0.1057452 0.07600433
v -0.2674936 0.1057452 0.07600433
v -0.264363 0.13079011 0.076526105
v -0.26801538 0.13079011 0.076526105
v -0.264363 0.15583503 0.07600433
v -0.271146 0.13287717 0.076526105
v -0.26801538 0.15583503 0.07600433
v -0.264363 0.18087995 0.0749608
v -0.271146 0.1594874 0.07600433
v -0.2742766 0.1594874 0.07600433
v -0.2747984 0.18609762 0.07443902
v -0.26801538 0.18087995 0.0749608
v -0.26488477 0.20592487 0.07391727
v -0.271146 0.18609762 0.07443902
v -0.26801538 0.20592487 0.07391727
v -0.26488477 0.23096979 0.07287371
v -0.271146 0.21270785 0.07339549
v -0.2747984 0.21270785 0.07391727
v -0.2747984 0.23931807 0.07339549
v -0.26801538 0.23096979 0.07287371
v -0.26488477 0.2560147 0.07235196
v -0.271146 0.23931807 0.07339549
v -0.2747984 0.26592833 0.070264876
v -0.2492317 0.2627977 0.07287371
v -0.2492317 0.26592833 0.07235196
v -0.223665 0.26592833 0.07339549
v -0.24244869 0.25914532 0.07339549
v -0.24244869 0.2560147 0.07339549
v -0.21949086 0.2560147 0.07339549
v -0.223665 0.2627977 0.07339549
v -0.19862008 0.26592833 0.07287371
v -0.21949086 0.25914532 0.07339549
v -0.19705477 0.2560147 0.07287371
v -0.19862008 0.2627977 0.07287371
v -0.17305341 0.26592833 0.07391727
v -0.19705477 0.25914532 0.07287371
v -0.17461872 0.2560147 0.07339549
v -0.17461872 0.25914532 0.07339549
v -0.15218264 0.2560147 0.07391727
v -0.17305341 0.2627977 0.07339549
v -0.14748672 0.26592833 0.07443902
v -0.13287717 0.24975348 0.07391727
v -0.13496426 0.24192691 0.07339549
v -0.1375731 0.23983985 0.07339549
v -0.12296358 0.223665 0.07287371
v -0.12087649 0.23149154 0.07339549
v -0.118267655 0.2341004 0.07339549
v -0.10365811 0.21792555 0.07287371
v -0.12035471 0.22627386 0.07287371
v -0.10835403 0.20801193 0.07235196
v -0.083309114 0.21114254 0.07235196
v -0.083309114 0.20749018 0.07235196
v -0.058264196 0.20749018 0.07235196
v -0.07913494 0.21427315 0.07287371
v -0.07913494 0.21740377 0.07287371
v -0.058264196 0.21062079 0.07235196
v -0.033741027 0.20749018 0.07235196
v -0.054090023 0.21427315 0.07235196
v -0.054090023 0.21740377 0.07235196
v -0.029045105 0.21740377 0.07235196
v -0.033219278 0.21062079 0.07235196
v -0.008696109 0.20749018 0.07235196
v -0.029045105 0.21427315 0.07235196
v -0.004521966 0.21740377 0.07183018
v -0.008696109 0.21062079 0.07183018
v 0.016348794 0.2069684 0.07183018
v -0.004521966 0.2137514 0.07183018
v 0.016348794 0.21062079 0.07183018
v 0.041393712 0.2069684 0.071308404
v 0.020522952 0.2137514 0.07183018
v 0.020522952 0.21740377 0.07183018
v 0.04556787 0.21688202 0.071308404
v 0.041393712 0.21062079 0.071308404
v 0.06643863 0.2069684 0.071308404
v 0.045046106 0.2137514 0.071308404
v 0.070091024 0.21688202 0.070786655
v 0.06643863 0.21009901 0.070786655
v 0.09148356 0.2069684 0.070786655
v 0.070091024 0.2137514 0.070786655
v 0.09513594 0.21688202 0.070264876
v 0.09148356 0.21009901 0.070786655
v 0.1160067 0.20644662 0.0697431
v 0.09513594 0.21322963 0.070264876
v 0.119659096 0.21688202 0.06922135
v 0.1160067 0.21009901 0.0697431
v 0.14105162 0.20644662 0.06869957
v 0.119659096 0.21322963 0.06922135
v 0.14470401 0.21636024 0.06869957
v 0.14105162 0.21009901 0.06869957
v 0.14470401 0.21322963 0.06869957
v 0.16974893 0.21636024 0.06765604
v 0.16609654 0.20957723 0.06817779
v 0.16609654 0.20644662 0.06817779
v 0.19114146 0.20644662 0.06817779
v 0.16974893 0.21322963 0.06817779
v 0.192185 0.20957723 0.06817779
v 0.19322854 0.21270785 0.06765604
v 0.19427207 0.21636024 0.06765604
v 0.20888162 0.20488131 0.06817779
v 0.2041857 0.20018539 0.06869957
v 0.20209861 0.19757655 0.06922135
v 0.21305576 0.18922824 0.070786655
v 0.20679453 0.20227247 0.06817779
v 0.22349115 0.19392416 0.0697431
v 0.22296938 0.16835749 0.07391727
v 0.21670815 0.16366157 0.0749608
v 0.21305576 0.16366157 0.0749608
v 0.21305576 0.1375731 0.07809141
v 0.21983877 0.14226902 0.07809141
v 0.22296938 0.14226902 0.07809141
v 0.22296938 0.11670235 0.07913494
v 0.21670815 0.1375731 0.07861319
v 0.21305576 0.112006426 0.07913494
v 0.21983877 0.11670235 0.07913494
v 0.22296938 0.09061387 0.0801785
v 0.21618637 0.112006426 0.07965672
v 0.21305576 0.08643973 0.0801785
v 0.21983877 0.09061387 0.0801785
v 0.22296938 0.065047175 0.08122203
v 0.21618637 0.08643973 0.0801785
v 0.21305576 0.06087303 0.08070025
v 0.21983877 0.065047175 0.08070025
v 0.22296938 0.039480507 0.07965672
v 0.21618637 0.06087303 0.08070025
v 0.21305576 0.035306334 0.07913494
v 0.21983877 0.039480507 0.07965672
v 0.22296938 0.013392031 0.07600433
v 0.21618637 0.035306334 0.07965672
v 0.21305576 0.009739667 0.07548258
v 0.21983877 0.013392031 0.07600433
v 0.22296938 -0.012174651 0.07391727
v 0.21618637 0.009739667 0.07548258
v 0.21305576 -0.016348794 0.07339549
v 0.21931699 -0.012174651 0.07339549
v 0.22296938 -0.038263097 0.07287371
v 0.21618637 -0.016348794 0.07339549
v 0.21305576 -0.04191549 0.07287371
v 0.21931699 -0.038263097 0.07287371
v 0.22296938 -0.063829795 0.07391727
v 0.21618637 -0.04191549 0.07287371
v 0.21931699 -0.063829795 0.07391727
v 0.21618637 -0.06748217 0.07443902
vt 0.69317114 0.39442837
vt 0.69317114 0.39298517
vt 0.69317114 0.4103036
vt 0.69317114 0.4103036
vt 0.69317114 0.4261788
vt 0.69317114 0.4261788
vt 0.69317114 0.44205403
vt 0.6946143 0.4434972
vt 0.6946143 0.45937243
vt 0.6946143 0.45937243
vt 0.6946143 0.47524765
vt 0.6946143 0.47524765
vt 0.6946143 0.49256608
vt 0.6946143 0.49256608
vt 0.6946143 0.49256608
vt 0.6946143 0.49256608
vt 0.6902847 0.5012253
vt 0.6902847 0.5026685
vt 0.6859551 0.5113277
vt 0.6859551 0.5113277
vt 0.6859551 0.5113277
vt 0.6859551 0.5113277
vt 0.6859551 0.5300893
vt 0.6859551 0.5300893
vt 0.6859551 0.54740775
vt 0.6859551 0.54740775
vt 0.6859551 0.5661694
vt 0.6859551 0.5661694
vt 0.6859551 0.58348775
vt 0.6859551 0.58348775
vt 0.6859551 0.6022494
vt 0.6859551 0.6022494
vt 0.6859551 0.6195678
vt 0.6859551 0.6195678
vt 0.6859551 0.63832945
vt 0.6859551 0.63832945
vt 0.6859551 0.6556479
vt 0.6859551 0.6556479
vt 0.6859551 0.6744095
vt 0.6859551 0.6744095
vt 0.6859551 0.6917279
vt 0.6859551 0.69317114
vt 0.6859551 0.7104895
vt 0.6859551 0.7104895
vt 0.6859551 0.7104895
vt 0.6859551 0.7104895
vt 0.6816255 0.71770555
vt 0.6816255 0.71770555
vt 0.67585266 0.72636473
vt 0.67585266 0.72636473
vt 0.67585266 0.72636473
vt 0.67585266 0.72636473
vt 0.6671935 0.72636473
vt 0.6671935 0.72636473
vt 0.6585343 0.72636473
vt 0.6585343 0.72636473
vt 0.64987504 0.72636473
vt 0.64987504 0.72636473
vt 0.64121586 0.72636473
vt 0.64121586 0.72636473
vt 0.6325566 0.72636473
vt 0.6325566 0.72636473
vt 0.6224542 0.72636473
vt 0.6224542 0.72636473
vt 0.61379504 0.72636473
vt 0.61379504 0.72636473
vt 0.6051358 0.72636473
vt 0.6051358 0.72636473
vt 0.5964766 0.72636473
vt 0.5964766 0.72636473
vt 0.5878174 0.72636473
vt 0.5878174 0.72636473
vt 0.5791582 0.72636473
vt 0.5791582 0.72780794
vt 0.57049894 0.72636473
vt 0.57049894 0.72780794
vt 0.57049894 0.72780794
vt 0.57049894 0.72636473
vt 0.5647262 0.7379104
vt 0.5647262 0.7379104
vt 0.56039655 0.7494559
vt 0.56039655 0.7494559
vt 0.5546237 0.7610016
vt 0.5546237 0.7610016
vt 0.5546237 0.7610016
vt 0.5546237 0.7610016
vt 0.54596454 0.7610016
vt 0.54596454 0.7610016
vt 0.53730536 0.7610016
vt 0.53730536 0.7610016
vt 0.5272029 0.7610016
vt 0.5272029 0.7610016
vt 0.5185437 0.7610016
vt 0.5185437 0.7610016
vt 0.5098845 0.7610016
vt 0.5098845 0.7610016
vt 0.5098845 0.7610016
vt 0.5098845 0.7610016
vt 0.5098845 0.74223995
vt 0.5098845 0.74223995
vt 0.5098845 0.7234783
vt 0.5098845 0.7234783
vt 0.5098845 0.7047167
vt 0.5098845 0.7047167
vt 0.5098845 0.6859551
vt 0.5098845 0.6859551
vt 0.5098845 0.6671935
vt 0.5098845 0.6671935
vt 0.5098845 0.6484319
vt 0.5098845 0.6484319
vt 0.5098845 0.62967026
vt 0.5098845 0.6311134
vt 0.5098845 0.6109086
vt 0.5098845 0.61235183
vt 0.5098845 0.592147
vt 0.5098845 0.5935902
vt 0.5098845 0.5935902
vt 0.5098845 0.592147
vt 0.5156573 0.5806014
vt 0.5156573 0.5806014
vt 0.5228733 0.5676125
vt 0.5228733 0.5676125
vt 0.5228733 0.5676125
vt 0.5228733 0.5676125
vt 0.5228733 0.55029416
vt 0.5228733 0.55029416
vt 0.5228733 0.53297573
vt 0.5228733 0.53441894
vt 0.5228733 0.5171005
vt 0.5228733 0.5171005
vt 0.5228733 0.4997821
vt 0.5228733 0.4997821
vt 0.5228733 0.48390687
vt 0.5228733 0.48390687
vt 0.5228733 0.46658844
vt 0.5228733 0.46658844
vt 0.5228733 0.44927004
vt 0.5228733 0.45071322
vt 0.5228733 0.43339482
vt 0.5228733 0.43339482
vt 0.5228733 0.4160764
vt 0.5228733 0.4160764
vt 0.5228733 0.4160764
vt 0.5228733 0.4160764
vt 0.5315325 0.4160764
vt 0.5315325 0.4160764
vt 0.5401917 0.4160764
vt 0.5401917 0.4160764
vt 0.54885095 0.4160764
vt 0.54885095 0.4160764
vt 0.55751014 0.4160764
vt 0.55751014 0.4160764
vt 0.5661694 0.4160764
vt 0.5661694 0.4160764
vt 0.5762718 0.4160764
vt 0.5762718 0.4160764
vt 0.584931 0.4160764
vt 0.584931 0.4160764
vt 0.5935902 0.4160764
vt 0.5935902 0.4160764
vt 0.6022494 0.4160764
vt 0.6022494 0.4160764
vt 0.6109086 0.4160764
vt 0.6109086 0.4160764
vt 0.6195678 0.4160764
vt 0.6195678 0.4160764
vt 0.628227 0.4160764
vt 0.628227 0.4160764
vt 0.628227 0.4160764
vt 0.628227 0.4160764
vt 0.6339998 0.40453076
vt 0.6339998 0.40453076
vt 0.63832945 0.39298517
vt 0.63977265 0.39298517
vt 0.63977265 0.39298517
vt 0.63832945 0.39298517
vt 0.6484319 0.39298517
vt 0.6484319 0.39298517
vt 0.657091 0.39298517
vt 0.657091 0.39298517
vt 0.66575027 0.39298517
vt 0.66575027 0.39298517
vt 0.67585266 0.39298517
vt 0.67585266 0.39298517
vt 0.6845119 0.39298517
vt 0.6845119 0.39442837
vt 0.69317114 0.39298517
vt 0.69317114 0.39442837
vt 0.6902847 0.40020117
vt 0.6902847 0.40020117
vt 0.6816255 0.40020117
vt 0.6816255 0.40020117
vt 0.6744095 0.40020117
vt 0.6744095 0.40020117
vt 0.66575027 0.40020117
vt 0.66575027 0.40020117
vt 0.657091 0.40020117
vt 0.657091 0.40020117
vt 0.6484319 0.40020117
vt 0.6484319 0.40020117
vt 0.64121586 0.40020117
vt 0.64121586 0.40020117
vt 0.64121586 0.40020117
vt 0.64121586 0.40020117
vt 0.63544303 0.4117468
vt 0.63544303 0.4117468
vt 0.6311134 0.4232924
vt 0.6311134 0.4232924
vt 0.6311134 0.4232924
vt 0.6311134 0.4232924
vt 0.621011 0.4232924
vt 0.621011 0.4232924
vt 0.6109086 0.4232924
vt 0.6109086 0.4232924
vt 0.6022494 0.4232924
vt 0.6022494 0.4232924
vt 0.592147 0.4232924
vt 0.592147 0.4232924
vt 0.58348775 0.4232924
vt 0.58348775 0.4232924
vt 0.57338536 0.4232924
vt 0.57338536 0.4232924
vt 0.5647262 0.4232924
vt 0.5647262 0.4232924
vt 0.5546237 0.4232924
vt 0.5546237 0.4232924
vt 0.54452133 0.4232924
vt 0.54452133 0.4232924
vt 0.53586215 0.4232924
vt 0.53586215 0.4232924
vt 0.5257597 0.4232924
vt 0.5257597 0.4232924
vt 0.5257597 0.4232924
vt 0.5257597 0.4232924
vt 0.5257597 0.44205403
vt 0.5257597 0.44205403
vt 0.5257597 0.45937243
vt 0.5257597 0.46081564
vt 0.5257597 0.47813407
vt 0.5257597 0.47813407
vt 0.5257597 0.49689567
vt 0.5257597 0.49689567
vt 0.5257597 0.5156573
vt 0.5257597 0.5156573
vt 0.5257597 0.53297573
vt 0.5257597 0.53297573
vt 0.5257597 0.5517373
vt 0.5257597 0.5517373
vt 0.5257597 0.57049894
vt 0.5257597 0.57049894
vt 0.5257597 0.57049894
vt 0.5257597 0.57049894
vt 0.5199869 0.58348775
vt 0.5199869 0.58348775
vt 0.5127709 0.5950334
vt 0.5127709 0.5964766
vt 0.5127709 0.5964766
vt 0.5127709 0.5950334
vt 0.5127709 0.61379504
vt 0.5127709 0.61379504
vt 0.5127709 0.6311134
vt 0.5127709 0.6311134
vt 0.5127709 0.6484319
vt 0.5127709 0.6484319
vt 0.5127709 0.66575027
vt 0.5127709 0.66575027
vt 0.5127709 0.6830687
vt 0.5127709 0.6830687
vt 0.5127709 0.7003871
vt 0.5127709 0.7018303
vt 0.5127709 0.71914876
vt 0.5127709 0.71914876
vt 0.5127709 0.7364671
vt 0.5127709 0.7364671
vt 0.5127709 0.7537856
vt 0.5127709 0.7537856
vt 0.5127709 0.7537856
vt 0.5127709 0.7537856
vt 0.52143013 0.7537856
vt 0.52143013 0.7537856
vt 0.5286461 0.7537856
vt 0.5286461 0.7537856
vt 0.53730536 0.7537856
vt 0.53730536 0.7537856
vt 0.54452133 0.7537856
vt 0.54452133 0.7537856
vt 0.5531806 0.7537856
vt 0.5531806 0.7537856
vt 0.5531806 0.7537856
vt 0.5531806 0.7537856
vt 0.55895334 0.74223995
vt 0.55895334 0.74223995
vt 0.56328297 0.73069435
vt 0.56328297 0.73213756
vt 0.5690558 0.7205919
vt 0.5690558 0.7205919
vt 0.5690558 0.7205919
vt 0.5690558 0.7205919
vt 0.577715 0.71914876
vt 0.577715 0.7205919
vt 0.58637416 0.71914876
vt 0.58637416 0.7205919
vt 0.5950334 0.71914876
vt 0.5950334 0.7205919
vt 0.6036926 0.71914876
vt 0.6036926 0.7205919
vt 0.61235183 0.71914876
vt 0.61235183 0.71914876
vt 0.621011 0.71914876
vt 0.621011 0.71914876
vt 0.6311134 0.71914876
vt 0.6311134 0.71914876
vt 0.63977265 0.71914876
vt 0.63977265 0.71914876
vt 0.6484319 0.71914876
vt 0.6484319 0.71914876
vt 0.657091 0.71914876
vt 0.657091 0.71914876
vt 0.66575027 0.71914876
vt 0.66575027 0.71914876
vt 0.6744095 0.71914876
vt 0.6744095 0.71914876
vt 0.6744095 0.71914876
vt 0.6744095 0.71914876
vt 0.6787391 0.7133759
vt 0.6787391 0.7133759
vt 0.6830687 0.70615995
vt 0.6830687 0.7076031
vt 0.6830687 0.7076031
vt 0.6830687 0.70615995
vt 0.6830687 0.68884146
vt 0.6830687 0.68884146
vt 0.6830687 0.6715231
vt 0.6830687 0.6715231
vt 0.6830687 0.65276146
vt 0.6830687 0.65276146
vt 0.6830687 0.63544303
vt 0.6830687 0.63544303
vt 0.6830687 0.6166814
vt 0.6830687 0.6166814
vt 0.6830687 0.59936297
vt 0.6830687 0.59936297
vt 0.6830687 0.5806014
vt 0.6830687 0.5820446
vt 0.6830687 0.56328297
vt 0.6830687 0.56328297
vt 0.6830687 0.54452133
vt 0.6830687 0.54596454
vt 0.6830687 0.5272029
vt 0.6830687 0.5272029
vt 0.6830687 0.5084413
vt 0.6830687 0.5098845
vt 0.6830687 0.5098845
vt 0.6830687 0.5084413
vt 0.6859551 0.4997821
vt 0.6859551 0.4997821
vt 0.6902847 0.48967966
vt 0.6902847 0.48967966
vt 0.6902847 0.48967966
vt 0.6902847 0.48967966
vt 0.6902847 0.47236127
vt 0.6902847 0.47236127
vt 0.6902847 0.45359963
vt 0.6902847 0.45359963
vt 0.6902847 0.4362812
vt 0.6902847 0.4362812
vt 0.6902847 0.4189628
vt 0.6902847 0.4189628
vt 0.6902847 0.40020117
vt 0.6902847 0.40020117
vt 0.6917279 0.4189628
vt 0.6902847 0.4189628
vt 0.6902847 0.4362812
vt 0.6902847 0.40020117
vt 0.6917279 0.4362812
vt 0.6902847 0.45359963
vt 0.6917279 0.45359963
vt 0.6902847 0.47236127
vt 0.6917279 0.47236127
vt 0.6902847 0.48967966
vt 0.69317114 0.4261788
vt 0.69317114 0.44205403
vt 0.69317114 0.4103036
vt 0.69317114 0.45937243
vt 0.69317114 0.4103036
vt 0.69317114 0.4261788
vt 0.69317114 0.44205403
vt 0.69317114 0.39298517
vt 0.6946143 0.45937243
vt 0.69317114 0.47524765
vt 0.6946143 0.47524765
vt 0.6845119 0.39587158
vt 0.6845119 0.39298517
vt 0.6917279 0.48967966
vt 0.69317114 0.49112287
vt 0.6946143 0.49256608
vt 0.6902847 0.5012253
vt 0.68884146 0.4997821
vt 0.6859551 0.5113277
vt 0.6873983 0.5012253
vt 0.6859551 0.4997821
vt 0.6816255 0.39875796
vt 0.6816255 0.40020117
vt 0.6845119 0.5113277
vt 0.6830687 0.5098845
vt 0.6830687 0.5084413
vt 0.6830687 0.5272029
vt 0.67585266 0.39587158
vt 0.67585266 0.39298517
vt 0.6744095 0.39731476
vt 0.6744095 0.40020117
vt 0.66575027 0.39587158
vt 0.66575027 0.39298517
vt 0.66575027 0.39731476
vt 0.66575027 0.40020117
vt 0.657091 0.39587158
vt 0.657091 0.39298517
vt 0.657091 0.39731476
vt 0.657091 0.40020117
vt 0.6484319 0.39731476
vt 0.6484319 0.40020117
vt 0.64121586 0.40020117
vt 0.6484319 0.39587158
vt 0.6484319 0.39298517
vt 0.63832945 0.39298517
vt 0.6339998 0.40453076
vt 0.6339998 0.4103036
vt 0.63544303 0.4117468
vt 0.628227 0.4160764
vt 0.6311134 0.4232924
vt 0.621011 0.42040598
vt 0.621011 0.4232924
vt 0.6195678 0.4189628
vt 0.6195678 0.4160764
vt 0.6109086 0.42040598
vt 0.6109086 0.4232924
vt 0.6109086 0.4189628
vt 0.6109086 0.4160764
vt 0.6022494 0.42040598
vt 0.6022494 0.4232924
vt 0.6022494 0.4189628
vt 0.6022494 0.4160764
vt 0.5935902 0.4189628
vt 0.5935902 0.4160764
vt 0.592147 0.42040598
vt 0.592147 0.4232924
vt 0.584931 0.4189628
vt 0.584931 0.4160764
vt 0.58348775 0.42040598
vt 0.58348775 0.4232924
vt 0.5762718 0.4189628
vt 0.5762718 0.4160764
vt 0.57338536 0.42040598
vt 0.57338536 0.4232924
vt 0.5661694 0.4189628
vt 0.5661694 0.4160764
vt 0.5647262 0.42040598
vt 0.5647262 0.4232924
vt 0.55751014 0.4189628
vt 0.55751014 0.4160764
vt 0.5546237 0.42040598
vt 0.5546237 0.4232924
vt 0.54885095 0.4189628
vt 0.54885095 0.4160764
vt 0.54452133 0.42040598
vt 0.54452133 0.4232924
vt 0.53586215 0.4232924
vt 0.5401917 0.4189628
vt 0.5401917 0.4160764
vt 0.53586215 0.42040598
vt 0.5257597 0.4232924
vt 0.5315325 0.4189628
vt 0.5315325 0.4160764
vt 0.5228733 0.4160764
vt 0.52431655 0.43339482
vt 0.5228733 0.43339482
vt 0.52431655 0.44205403
vt 0.5257597 0.44205403
vt 0.52431655 0.44927004
vt 0.5228733 0.44927004
vt 0.52431655 0.45937243
vt 0.5257597 0.45937243
vt 0.52431655 0.46658844
vt 0.5228733 0.46658844
vt 0.52431655 0.47813407
vt 0.5257597 0.47813407
vt 0.52431655 0.48390687
vt 0.5228733 0.48390687
vt 0.52431655 0.49689567
vt 0.5257597 0.49689567
vt 0.52431655 0.4997821
vt 0.5228733 0.4997821
vt 0.52431655 0.5156573
vt 0.5257597 0.5156573
vt 0.52431655 0.5171005
vt 0.5228733 0.5171005
vt 0.52431655 0.53297573
vt 0.5257597 0.53297573
vt 0.52431655 0.53297573
vt 0.5228733 0.53297573
vt 0.52431655 0.55029416
vt 0.5228733 0.55029416
vt 0.5228733 0.5676125
vt 0.52431655 0.5517373
vt 0.5257597 0.5517373
vt 0.5257597 0.57049894
vt 0.5185437 0.5806014
vt 0.5199869 0.58348775
vt 0.5127709 0.5950334
vt 0.5171005 0.5820446
vt 0.5156573 0.5806014
vt 0.5098845 0.592147
vt 0.5098845 0.6109086
vt 0.5127709 0.61379504
vt 0.5127709 0.61379504
vt 0.5127709 0.6311134
vt 0.5113277 0.62967026
vt 0.5098845 0.62967026
vt 0.5113277 0.6484319
vt 0.5098845 0.6484319
vt 0.5098845 0.6671935
vt 0.5127709 0.6311134
vt 0.5127709 0.6484319
vt 0.5127709 0.6484319
vt 0.5127709 0.66575027
vt 0.5127709 0.66575027
vt 0.5127709 0.6830687
vt 0.5113277 0.6671935
vt 0.5127709 0.6830687
vt 0.5127709 0.7003871
vt 0.5113277 0.6859551
vt 0.5098845 0.6859551
vt 0.5098845 0.7047167
vt 0.5127709 0.7003871
vt 0.5127709 0.71914876
vt 0.5113277 0.7047167
vt 0.5127709 0.71914876
vt 0.5127709 0.7364671
vt 0.5113277 0.7234783
vt 0.5098845 0.7234783
vt 0.5098845 0.74223995
vt 0.5127709 0.7364671
vt 0.5127709 0.7537856
vt 0.5113277 0.74223995
vt 0.5098845 0.7610016
vt 0.5185437 0.7581152
vt 0.5185437 0.7610016
vt 0.5272029 0.7610016
vt 0.52143013 0.75667197
vt 0.52143013 0.7537856
vt 0.5286461 0.7537856
vt 0.5272029 0.7581152
vt 0.53730536 0.7610016
vt 0.5286461 0.75667197
vt 0.53730536 0.7537856
vt 0.53730536 0.7581152
vt 0.54596454 0.7610016
vt 0.53730536 0.75667197
vt 0.54452133 0.7537856
vt 0.54452133 0.75667197
vt 0.5531806 0.7537856
vt 0.54596454 0.7581152
vt 0.5546237 0.7610016
vt 0.56039655 0.7494559
vt 0.55895334 0.74368316
vt 0.55895334 0.74223995
vt 0.56328297 0.73069435
vt 0.5647262 0.7364671
vt 0.5647262 0.7379104
vt 0.57049894 0.72636473
vt 0.5647262 0.73213756
vt 0.5690558 0.7205919
vt 0.577715 0.72203517
vt 0.577715 0.71914876
vt 0.58637416 0.71914876
vt 0.5791582 0.7249216
vt 0.5791582 0.72636473
vt 0.58637416 0.72203517
vt 0.5950334 0.71914876
vt 0.5878174 0.7249216
vt 0.5878174 0.72636473
vt 0.5964766 0.72636473
vt 0.5950334 0.72203517
vt 0.6036926 0.71914876
vt 0.5964766 0.7249216
vt 0.6051358 0.72636473
vt 0.6036926 0.72203517
vt 0.61235183 0.71914876
vt 0.6051358 0.7249216
vt 0.61235183 0.72203517
vt 0.621011 0.71914876
vt 0.61379504 0.7234783
vt 0.61379504 0.72636473
vt 0.6224542 0.72636473
vt 0.621011 0.72203517
vt 0.6311134 0.71914876
vt 0.6224542 0.7234783
vt 0.6325566 0.72636473
vt 0.6311134 0.72203517
vt 0.63977265 0.71914876
vt 0.6325566 0.7234783
vt 0.64121586 0.72636473
vt 0.63977265 0.72203517
vt 0.6484319 0.71914876
vt 0.64121586 0.7234783
vt 0.64987504 0.72636473
vt 0.6484319 0.72203517
vt 0.657091 0.71914876
vt 0.64987504 0.7234783
vt 0.6585343 0.72636473
vt 0.657091 0.72203517
vt 0.6585343 0.7234783
vt 0.6671935 0.72636473
vt 0.66575027 0.7205919
vt 0.66575027 0.71914876
vt 0.6744095 0.71914876
vt 0.6671935 0.7234783
vt 0.6744095 0.7205919
vt 0.67585266 0.7234783
vt 0.67585266 0.72636473
vt 0.6816255 0.71770555
vt 0.6787391 0.71481913
vt 0.6787391 0.7133759
vt 0.6830687 0.70615995
vt 0.6801823 0.71626234
vt 0.6859551 0.7104895
vt 0.6859551 0.6917279
vt 0.6830687 0.68884146
vt 0.6830687 0.68884146
vt 0.6830687 0.6715231
vt 0.6845119 0.6744095
vt 0.6859551 0.6744095
vt 0.6859551 0.6556479
vt 0.6830687 0.6715231
vt 0.6830687 0.65276146
vt 0.6845119 0.6556479
vt 0.6859551 0.63832945
vt 0.6830687 0.65276146
vt 0.6830687 0.63544303
vt 0.6845119 0.63832945
vt 0.6859551 0.6195678
vt 0.6830687 0.63544303
vt 0.6830687 0.6166814
vt 0.6845119 0.6195678
vt 0.6859551 0.6022494
vt 0.6830687 0.6166814
vt 0.6830687 0.59936297
vt 0.6845119 0.6022494
vt 0.6859551 0.58348775
vt 0.6830687 0.59936297
vt 0.6830687 0.5806014
vt 0.6845119 0.58348775
vt 0.6859551 0.5661694
vt 0.6830687 0.5806014
vt 0.6830687 0.56328297
vt 0.6845119 0.5661694
vt 0.6859551 0.54740775
vt 0.6830687 0.56328297
vt 0.6830687 0.54452133
vt 0.6845119 0.54740775
vt 0.6859551 0.5300893
vt 0.6830687 0.54452133
vt 0.6845119 0.5300893
vt 0.6830687 0.5272029
vn 0.9998741 -0.015870988 -0
vn 0.9998741 -0.015870988 -0
vn 0.9998741 -0.015870988 -0
vn 0.9998741 -0.015870988 -0
vn 0.9998741 -0.015870988 -0
vn 0.9998741 -0.015870988 -0
vn 0.9998741 -0.015870988 -0
vn 0.9998741 -0.015870988 -0
vn 0.9998741 -0.015870988 -0
vn 0.9998741 -0.015870988 -0
vn 0.9998741 -0.015870988 -0
vn 0.9998741 -0.015870988 -0
vn 0.9998741 -0.015870988 -0
vn 0.9998741 -0.015870988 -0
vn 0.77767986 0.6189697 0.1099571
vn 0.77767986 0.6189697 0.1099571
vn 0.77767986 0.6189697 0.1099571
vn 0.77767986 0.6189697 0.1099571
vn 0.77767986 0.6189697 0.1099571
vn 0.77767986 0.6189697 0.1099571
vn 0.9998741 -0.015870988 -0
vn 0.9998741 -0.015870988 -0
vn 0.9998741 -0.015870988 -0
vn 0.9998741 -0.015870988 -0
vn 0.9998741 -0.015870988 -0
vn 0.9998741 -0.015870988 -0
vn 0.9998741 -0.015870988 -0
vn 0.9998741 -0.015870988 -0
vn 0.9998741 -0.015870988 -0
vn 0.9998741 -0.015870988 -0
vn 0.9998741 -0.015870988 -0
vn 0.9998741 -0.015870988 -0
vn 0.9998741 -0.015870988 -0
vn 0.9998741 -0.015870988 -0
vn 0.9998741 -0.015870988 -0
vn 0.9998741 -0.015870988 -0
vn 0.9998741 -0.015870988 -0
vn 0.9998741 -0.015870988 -0
vn 0.9998741 -0.015870988 -0
vn 0.9998741 -0.015870988 -0
vn 0.9998741 0.015871048 -0
vn 0.9998741 0.015871048 -0
vn 0.9998741 0.015871048 -0
vn 0.9998741 0.015871048 -0
vn 0.6189697 0.7776799 0.10995683
vn 0.6189697 0.7776799 0.10995683
vn 0.6189697 0.7776799 0.10995683
vn 0.6189697 0.7776799 0.10995683
vn 0.6189697 0.7776799 0.10995683
vn 0.6189697 0.7776799 0.10995683
vn 0.015870988 0.9998741 -0
vn 0.015870988 0.9998741 -0
vn 0.015870988 0.9998741 -0
vn 0.015870988 0.9998741 -0
vn 0.015870988 0.9998741 -0
vn 0.015870988 0.9998741 -0
vn 0.015870988 0.9998741 -0
vn 0.015870988 0.9998741 -0
vn 0.015870988 0.9998741 -0
vn 0.015870988 0.9998741 -0
vn 0.015870988 0.9998741 -0
vn 0.015870988 0.9998741 -0
vn 0.015870988 0.9998741 -0
vn 0.015870988 0.9998741 -0
vn 0.015870988 0.9998741 -0
vn 0.015870988 0.9998741 -0
vn 0.015870988 0.9998741 -0
vn 0.015870988 0.9998741 -0
vn 0.015870988 0.9998741 -0
vn 0.015870988 0.9998741 -0
vn 0.015870988 0.9998741 -0
vn 0.015870988 0.9998741 -0
vn 0.015870988 0.9998741 -0
vn 0.015870988 0.9998741 -0
vn 0.015870988 0.9998741 -0
vn 0.015870988 0.9998741 -0
vn 0.7378054 0.6750134 -0
vn 0.7378054 0.6750134 -0
vn 0.7378054 0.6750134 -0
vn 0.7378054 0.6750134 -0
vn 0.7378054 0.6750134 -0
vn 0.7378054 0.6750134 -0
vn 0.7378054 0.6750134 -0
vn 0.7378054 0.6750134 -0
vn -0.015871048 0.9998741 -0
vn -0.015871048 0.9998741 -0
vn -0.015871048 0.9998741 -0
vn -0.015871048 0.9998741 -0
vn -0.015871048 0.9998741 -0
vn -0.015871048 0.9998741 -0
vn 0.015870988 0.9998741 -0
vn 0.015870988 0.9998741 -0
vn -0.015871048 0.9998741 -0
vn -0.015871048 0.9998741 -0
vn -0.015871048 0.9998741 -0
vn -0.015871048 0.9998741 -0
vn -0.9998741 -0.015870988 -0
vn -0.9998741 -0.015870988 -0
vn -0.9998741 -0.015870988 -0
vn -0.9998741 -0.015870988 -0
vn -0.9998741 -0.015870988 -0
vn -0.9998741 -0.015870988 -0
vn -0.9998741 -0.015870988 -0
vn -0.9998741 -0.015870988 -0
vn -0.9998741 -0.015870988 -0
vn -0.9998741 -0.015870988 -0
vn -0.9998741 -0.015870988 -0
vn -0.9998741 -0.015870988 -0
vn -0.9998741 -0.015870988 -0
vn -0.9998741 -0.015870988 -0
vn -0.9998741 -0.015870988 -0
vn -0.9998741 -0.015870988 -0
vn -0.9998741 -0.015870988 -0
vn -0.9998741 -0.015870988 -0
vn -0.9998741 -0.015870988 -0
vn -0.9998741 -0.015870988 -0
vn -0.7071068 -0.70710677 -0
vn -0.7071068 -0.70710677 -0
vn -0.7071068 -0.70710677 -0
vn -0.7071068 -0.70710677 -0
vn -0.7071068 -0.70710677 -0
vn -0.7071068 -0.70710677 -0
vn -0.9998741 -0.015870988 -0
vn -0.9998741 -0.015870988 -0
vn -0.9998741 -0.015870988 -0
vn -0.9998741 -0.015870988 -0
vn -0.9998741 -0.015870988 -0
vn -0.9998741 -0.015870988 -0
vn -0.9998741 -0.015870988 -0
vn -0.9998741 -0.015870988 -0
vn -0.9998741 0.015871048 -0
vn -0.9998741 0.015871048 -0
vn -0.9998741 0.015871048 -0
vn -0.9998741 0.015871048 -0
vn -0.9998741 0.015871048 -0
vn -0.9998741 0.015871048 -0
vn -0.9998741 0.015871048 -0
vn -0.9998741 0.015871048 -0
vn -0.9998741 0.015871048 -0
vn -0.9998741 0.015871048 -0
vn -0.9998741 0.015871048 -0
vn -0.9998741 0.015871048 -0
vn -0.015871048 -0.9998741 -0
vn -0.015871048 -0.9998741 -0
vn -0.015871048 -0.9998741 -0
vn -0.015871048 -0.9998741 -0
vn -0.015871048 -0.9998741 -0
vn -0.015871048 -0.9998741 -0
vn -0.015871048 -0.9998741 -0
vn -0.015871048 -0.9998741 -0
vn -0.015871048 -0.9998741 -0
vn -0.015871048 -0.9998741 -0
vn -0.015871048 -0.9998741 -0
vn -0.015871048 -0.9998741 -0
vn 0.015870988 -0.9998741 -0
vn 0.015870988 -0.9998741 -0
vn 0.015870988 -0.9998741 -0
vn 0.015870988 -0.9998741 -0
vn 0.015870988 -0.9998741 -0
vn 0.015870988 -0.9998741 -0
vn -0.015871048 -0.9998741 -0
vn -0.015871048 -0.9998741 -0
vn 0.015870988 -0.9998741 -0
vn 0.015870988 -0.9998741 -0
vn -0.015871048 -0.9998741 -0
vn -0.015871048 -0.9998741 -0
vn -0.015871048 -0.9998741 -0
vn -0.015871048 -0.9998741 -0
vn -0.7459378 -0.6507117 -0.14195429
vn -0.7459378 -0.6507117 -0.14195429
vn -0.7459378 -0.6507117 -0.14195429
vn -0.7459378 -0.6507117 -0.14195429
vn -0.7459378 -0.6507117 -0.14195429
vn -0.7459378 -0.6507117 -0.14195429
vn 0.015870988 -0.9998741 -0
vn 0.015870988 -0.9998741 -0
vn 0.015870988 -0.9998741 -0
vn 0.015870988 -0.9998741 -0
vn 0.015870988 -0.9998741 -0
vn 0.015870988 -0.9998741 -0
vn 0.015870988 -0.9998741 -0
vn 0.015870988 -0.9998741 -0
vn 0.015870988 -0.9998741 -0
vn 0.015870988 -0.9998741 -0
vn 0.015870988 -0.9998741 -0
vn 0.015870988 -0.9998741 -0
vn 0.015870988 -0.9998741 -0
vn 0.015870988 -0.9998741 -0
vn -0.015871048 0.9998741 -0
vn -0.015871048 0.9998741 -0
vn -0.015871048 0.9998741 -0
vn -0.015871048 0.9998741 -0
vn -0.015871048 0.9998741 -0
vn -0.015871048 0.9998741 -0
vn -0.015871048 0.9998741 -0
vn -0.015871048 0.9998741 -0
vn -0.015871048 0.9998741 -0
vn -0.015871048 0.9998741 -0
vn -0.015871048 0.9998741 -0
vn -0.015871048 0.9998741 -0
vn -0.015871048 0.9998741 -0
vn -0.015871048 0.9998741 -0
vn 0.7459378 0.6507118 0.14195397
vn 0.7459378 0.6507118 0.14195397
vn 0.7459378 0.6507118 0.14195397
vn 0.7459378 0.6507118 0.14195397
vn 0.7459378 0.6507118 0.14195397
vn 0.7459378 0.6507118 0.14195397
vn 0.015870988 0.9998741 -0
vn 0.015870988 0.9998741 -0
vn 0.015870988 0.9998741 -0
vn 0.015870988 0.9998741 -0
vn -0.015871048 0.9998741 -0
vn -0.015871048 0.9998741 -0
vn -0.015871048 0.9998741 -0
vn -0.015871048 0.9998741 -0
vn -0.015871048 0.9998741 -0
vn -0.015871048 0.9998741 -0
vn -0.015871048 0.9998741 -0
vn -0.015871048 0.9998741 -0
vn -0.015871048 0.9998741 -0
vn -0.015871048 0.9998741 -0
vn -0.015871048 0.9998741 -0
vn -0.015871048 0.9998741 -0
vn 0.015870988 0.9998741 -0
vn 0.015870988 0.9998741 -0
vn 0.015870988 0.9998741 -0
vn 0.015870988 0.9998741 -0
vn 0.015870988 0.9998741 -0
vn 0.015870988 0.9998741 -0
vn 0.015870988 0.9998741 -0
vn 0.015870988 0.9998741 -0
vn 0.9998741 -0.015870988 -0
vn 0.9998741 -0.015870988 -0
vn 0.9998741 -0.015870988 -0
vn 0.9998741 -0.015870988 -0
vn 0.9998741 -0.015870988 -0
vn 0.9998741 -0.015870988 -0
vn 0.9998741 -0.015870988 -0
vn 0.9998741 -0.015870988 -0
vn 0.9998741 -0.015870988 -0
vn 0.9998741 -0.015870988 -0
vn 0.9998741 -0.015870988 -0
vn 0.9998741 -0.015870988 -0
vn 0.9998741 0.015871048 -0
vn 0.9998741 0.015871048 -0
vn 0.9998741 0.015871048 -0
vn 0.9998741 0.015871048 -0
vn 0.9998741 0.015871048 -0
vn 0.9998741 0.015871048 -0
vn 0.70710677 0.7071068 -0
vn 0.70710677 0.7071068 -0
vn 0.70710677 0.7071068 -0
vn 0.70710677 0.7071068 -0
vn 0.70710677 0.7071068 -0
vn 0.70710677 0.7071068 -0
vn 0.9998741 0.015871048 -0
vn 0.9998741 0.015871048 -0
vn 0.9998741 0.015871048 -0
vn 0.9998741 0.015871048 -0
vn 0.9998741 0.015871048 -0
vn 0.9998741 0.015871048 -0
vn 0.9998741 0.015871048 -0
vn 0.9998741 0.015871048 -0
vn 0.9998741 0.015871048 -0
vn 0.9998741 0.015871048 -0
vn 0.9998741 0.015871048 -0
vn 0.9998741 0.015871048 -0
vn 0.9998741 0.015871048 -0
vn 0.9998741 0.015871048 -0
vn 0.9998741 0.015871048 -0
vn 0.9998741 0.015871048 -0
vn 0.9998741 0.015871048 -0
vn 0.9998741 0.015871048 -0
vn 0.9998741 0.015871048 -0
vn 0.9998741 0.015871048 -0
vn 0.015870988 -0.9998741 -0
vn 0.015870988 -0.9998741 -0
vn 0.015870988 -0.9998741 -0
vn 0.015870988 -0.9998741 -0
vn -0.015871048 -0.9998741 -0
vn -0.015871048 -0.9998741 -0
vn -0.015871048 -0.9998741 -0
vn -0.015871048 -0.9998741 -0
vn 0.015870988 -0.9998741 -0
vn 0.015870988 -0.9998741 -0
vn 0.015870988 -0.9998741 -0
vn 0.015870988 -0.9998741 -0
vn -0.7378054 -0.6750134 -0
vn -0.7378054 -0.6750134 -0
vn -0.7378054 -0.6750134 -0
vn -0.7378054 -0.6750134 -0
vn -0.7378054 -0.6750134 -0
vn -0.7378054 -0.6750134 -0
vn -0.7378054 -0.6750134 -0
vn -0.7378054 -0.6750134 -0
vn -0.015871048 -0.9998741 -0
vn -0.015871048 -0.9998741 -0
vn -0.015871048 -0.9998741 -0
vn -0.015871048 -0.9998741 -0
vn -0.015871048 -0.9998741 -0
vn -0.015871048 -0.9998741 -0
vn -0.015871048 -0.9998741 -0
vn -0.015871048 -0.9998741 -0
vn -0.015871048 -0.9998741 -0
vn -0.015871048 -0.9998741 -0
vn -0.015871048 -0.9998741 -0
vn -0.015871048 -0.9998741 -0
vn -0.015871048 -0.9998741 -0
vn -0.015871048 -0.9998741 -0
vn -0.015871048 -0.9998741 -0
vn -0.015871048 -0.9998741 -0
vn -0.015871048 -0.9998741 -0
vn -0.015871048 -0.9998741 -0
vn -0.015871048 -0.9998741 -0
vn -0.015871048 -0.9998741 -0
vn -0.015871048 -0.9998741 -0
vn -0.015871048 -0.9998741 -0
vn -0.015871048 -0.9998741 -0
vn -0.015871048 -0.9998741 -0
vn -0.015871048 -0.9998741 -0
vn -0.015871048 -0.9998741 -0
vn -0.6189697 -0.77767986 -0.1099571
vn -0.6189697 -0.77767986 -0.1099571
vn -0.6189697 -0.77767986 -0.1099571
vn -0.6189697 -0.77767986 -0.1099571
vn -0.6189697 -0.77767986 -0.1099571
vn -0.6189697 -0.77767986 -0.1099571
vn -0.9998741 -0.015870988 -0
vn -0.9998741 -0.015870988 -0
vn -0.9998741 -0.015870988 -0
vn -0.9998741 -0.015870988 -0
vn -0.9998741 0.015871048 -0
vn -0.9998741 0.015871048 -0
vn -0.9998741 0.015871048 -0
vn -0.9998741 0.015871048 -0
vn -0.9998741 0.015871048 -0
vn -0.9998741 0.015871048 -0
vn -0.9998741 0.015871048 -0
vn -0.9998741 0.015871048 -0
vn -0.9998741 0.015871048 -0
vn -0.9998741 0.015871048 -0
vn -0.9998741 0.015871048 -0
vn -0.9998741 0.015871048 -0
vn -0.9998741 0.015871048 -0
vn -0.9998741 0.015871048 -0
vn -0.9998741 0.015871048 -0
vn -0.9998741 0.015871048 -0
vn -0.9998741 0.015871048 -0
vn -0.9998741 0.015871048 -0
vn -0.9998741 0.015871048 -0
vn -0.9998741 0.015871048 -0
vn -0.7776799 -0.6189697 -0.10995683
vn -0.7776799 -0.6189697 -0.10995683
vn -0.7776799 -0.6189697 -0.10995683
vn -0.7776799 -0.6189697 -0.10995683
vn -0.7776799 -0.6189697 -0.10995683
vn -0.7776799 -0.6189697 -0.10995683
vn -0.9998741 0.015871048 -0
vn -0.9998741 0.015871048 -0
vn -0.9998741 0.015871048 -0
vn -0.9998741 0.015871048 -0
vn -0.9998741 0.015871048 -0
vn -0.9998741 0.015871048 -0
vn -0.9998741 0.015871048 -0
vn -0.9998741 0.015871048 -0
vn -0.9998741 0.015871048 -0
vn -0.9998741 0.015871048 -0
vn -0.9998741 0.015871048 -0
vn -0.9998741 0.015871048 -0
vn -0.07935512 -0.2063232 0.97526073
vn -0.1110971 -0.2063232 0.97215647
vn -0.07935512 -0.14283913 0.98655957
vn -0.07935512 -0.23806524 0.9680019
vn -0.1110971 -0.17458117 0.97835517
vn -0.07935512 -0.07935506 0.9936828
vn -0.1110971 -0.07935506 0.9906362
vn -0.07935512 0.015871048 0.9967201
vn -0.07935512 0.015871048 0.9967201
vn -0.047613025 0.047613025 0.99773043
vn -0.1110971 -0.17458117 0.97835517
vn -0.1428392 -0.14283913 0.9793845
vn -0.1110971 -0.23806524 0.96487427
vn -0.1428392 -0.047613025 0.9886
vn -0.1110971 -0.23806524 0.96487427
vn -0.1110971 -0.2063232 0.97215647
vn -0.07935512 -0.14283913 0.98655957
vn -0.07935512 -0.23806524 0.9680019
vn -0.07935512 -0.047613025 0.9957087
vn -0.1110971 0.047613025 0.99266833
vn -0.07935512 0.047613025 0.9957087
vn -0.07935512 -0.17458117 0.9814398
vn -0.07935512 -0.17458117 0.9814398
vn -0.047613025 0.07935512 0.9957087
vn -0.047613025 0.07935512 0.9957087
vn -0.047613025 0.07935512 0.9957087
vn -0.047613025 0.07935512 0.9957087
vn -0.047613025 0.07935512 0.9957087
vn -0.047613025 0.07935512 0.9957087
vn -0.047613025 0.07935512 0.9957087
vn -0.047613025 0.07935512 0.9957087
vn -0.07935512 -0.1110971 0.9906362
vn -0.07935512 -0.17458117 0.9814398
vn -0.047613025 0.07935512 0.9957087
vn -0.047613025 0.07935512 0.9957087
vn -0.047613025 0.07935512 0.9957087
vn -0.015871048 0.07935512 0.9967201
vn -0.047613025 -0.14283913 0.9886
vn -0.047613025 -0.17458117 0.98349094
vn -0.047613025 -0.07935506 0.9957087
vn -0.047613025 -0.015870988 0.9987398
vn -0.047613025 -0.015870988 0.9987398
vn -0.015871048 -0.015870988 0.99974805
vn -0.047613025 -0.015870988 0.9987398
vn -0.047613025 -0.015870988 0.9987398
vn -0.047613025 -0.015870988 0.9987398
vn -0.047613025 -0.015870988 0.9987398
vn -0.047613025 -0.015870988 0.9987398
vn -0.047613025 -0.015870988 0.9987398
vn -0.047613025 -0.015870988 0.9987398
vn -0.047613025 -0.015870988 0.9987398
vn -0.047613025 -0.047613025 0.99773043
vn -0.047613025 -0.015870988 0.9987398
vn -0.047613025 -0.015870988 0.9987398
vn -0.047613025 -0.047613025 0.99773043
vn -0.047613025 -0.17458117 0.98349094
vn -0.047613025 -0.2063232 0.9773248
vn -0.047613025 -0.2063232 0.9773248
vn -0.015871048 -0.26980728 0.9627835
vn -0.015871048 -0.26980728 0.9627835
vn -0.015871048 -0.23806524 0.97111946
vn -0.015871048 -0.2063232 0.97835517
vn -0.015871048 -0.26980728 0.9627835
vn -0.015871048 -0.26980728 0.9627835
vn -0.015871048 -0.2063232 0.97835517
vn -0.015871048 -0.17458117 0.98451483
vn -0.015871048 -0.23806524 0.97111946
vn -0.015871048 -0.23806524 0.97111946
vn -0.015871048 -0.2063232 0.97835517
vn -0.015871048 -0.14283913 0.98961866
vn -0.015871048 -0.23806524 0.97111946
vn -0.015871048 -0.23806524 0.97111946
vn -0.015871048 -0.14283913 0.98961866
vn -0.015871048 -0.14283913 0.98961866
vn -0.015871048 -0.1110971 0.9936828
vn -0.047613025 -0.1110971 0.99266833
vn -0.047613025 -0.14283913 0.9886
vn -0.047613025 -0.14283913 0.9886
vn -0.047613025 -0.14283913 0.9886
vn -0.015871048 -0.1110971 0.9936828
vn -0.047613025 -0.17458117 0.98349094
vn -0.047613025 -0.17458117 0.98349094
vn -0.015871048 -0.17458117 0.98451483
vn -0.015871048 -0.14283913 0.98961866
vn -0.015871048 -0.2063232 0.97835517
vn -0.015871048 -0.2063232 0.97835517
vn 0.015870988 -0.14283913 0.98961866
vn 0.015870988 -0.14283913 0.98961866
vn 0.07935506 -0.30154932 0.9501425
vn 0.07935506 -0.2063232 0.97526073
vn 0.14283913 -0.26980728 0.952261
vn 0.1110971 -0.23806524 0.96487427
vn 0.14283913 -0.26980728 0.952261
vn 0.14283913 -0.26980728 0.952261
vn 0.14283913 -0.26980728 0.952261
vn 0.14283913 -0.23806524 0.96068823
vn 0.1110971 -0.2063232 0.97215647
vn 0.14283913 -0.26980728 0.952261
vn 0.14283913 -0.26980728 0.952261
vn 0.1110971 -0.23806524 0.96487427
vn 0.1110971 -0.23806524 0.96487427
vn 0.1110971 -0.23806524 0.96487427
vn 0.1110971 -0.23806524 0.96487427
vn 0.1110971 -0.23806524 0.96487427
vn 0.1110971 -0.2063232 0.97215647
vn 0.1110971 -0.17458117 0.97835517
vn 0.07935506 -0.17458117 0.9814398
vn 0.1110971 -0.17458117 0.97835517
vn 0.1110971 -0.14283913 0.98349094
vn 0.07935506 -0.14283913 0.98655957
vn 0.07935506 -0.1110971 0.9906362
vn 0.07935506 -0.1110971 0.9906362
vn 0.07935506 -0.07935506 0.9936828
vn 0.047613025 -0.07935506 0.9957087
vn 0.07935506 -0.047613025 0.9957087
vn 0.047613025 -0.047613025 0.99773043
vn 0.07935506 -0.015870988 0.9967201
vn 0.015870988 -0.015870988 0.99974805
vn 0.015870988 0.015871048 0.99974805
vn 0.015870988 -0.015870988 0.99974805
vn 0.015870988 0.015871048 0.99974805
vn 0.015870988 0.015871048 0.99974805
vn -0.015871048 0.047613025 0.9987398
vn -0.015871048 0.047613025 0.9987398
vn -0.015871048 0.047613025 0.9987398
vn -0.015871048 0.047613025 0.9987398
vn -0.07935512 0.07935512 0.9936828
vn -0.07935512 0.07935512 0.9936828
vn -0.07935512 0.07935512 0.9936828
vn -0.07935512 0.07935512 0.9936828
vn -0.07935512 0.07935512 0.9936828
vn -0.07935512 0.07935512 0.9936828
vn -0.07935512 0.07935512 0.9936828
vn -0.07935512 0.07935512 0.9936828
vn -0.07935512 0.07935512 0.9936828
vn -0.07935512 0.07935512 0.9936828
vn -0.047613025 0.07935512 0.9957087
vn -0.047613025 0.07935512 0.9957087
vn -0.015871048 0.015871048 0.99974805
vn -0.047613025 0.07935512 0.9957087
vn -0.047613025 0.07935512 0.9957087
vn -0.015871048 0.015871048 0.99974805
vn 0.015870988 -0.015870988 0.99974805
vn 0.015870988 -0.047613025 0.9987398
vn 0.015870988 -0.047613025 0.9987398
vn 0.015870988 -0.047613025 0.9987398
vn 0.015870988 -0.047613025 0.9987398
vn 0.015870988 -0.047613025 0.9987398
vn 0.015870988 -0.047613025 0.9987398
vn 0.015870988 -0.047613025 0.9987398
vn 0.015870988 -0.015870988 0.99974805
vn 0.015870988 -0.047613025 0.9987398
vn 0.015870988 -0.047613025 0.9987398
vn 0.015870988 -0.047613025 0.9987398
vn 0.015870988 -0.015870988 0.99974805
vn 0.015870988 -0.015870988 0.99974805
vn 0.015870988 0.047613025 0.9987398
vn 0.015870988 -0.015870988 0.99974805
vn 0.015870988 0.015871048 0.99974805
vn 0.015870988 0.047613025 0.9987398
vn 0.047613025 0.047613025 0.99773043
vn 0.015870988 0.047613025 0.9987398
vn 0.015870988 0.047613025 0.9987398
vn 0.015870988 0.047613025 0.9987398
vn 0.015870988 0.047613025 0.9987398
vn 0.015870988 0.047613025 0.9987398
vn 0.015870988 0.047613025 0.9987398
vn 0.015870988 0.015871048 0.99974805
vn 0.015870988 0.015871048 0.99974805
vn 0.015870988 0.015871048 0.99974805
vn 0.015870988 0.047613025 0.9987398
vn 0.047613025 0.015871048 0.9987398
vn -0.07935512 0.07935512 0.9936828
vn 0.047613025 0.047613025 0.99773043
vn -0.07935512 0.1110971 0.9906362
vn -0.047613025 0.07935512 0.9957087
vn -0.047613025 0.07935512 0.9957087
vn -0.015871048 0.015871048 0.99974805
vn -0.015871048 0.047613025 0.9987398
vn -0.015871048 -0.015870988 0.99974805
vn 0.015870988 -0.015870988 0.99974805
vn 0.015870988 0.015871048 0.99974805
vn -0.015871048 0.015871048 0.99974805
vn 0.015870988 0.015871048 0.99974805
vn -0.015871048 -0.015870988 0.99974805
vn -0.015871048 0.015871048 0.99974805
vn -0.015871048 -0.07935506 0.9967201
vn -0.015871048 -0.015870988 0.99974805
vn -0.015871048 -0.047613025 0.9987398
vn -0.015871048 -0.047613025 0.9987398
vn -0.015871048 -0.047613025 0.9987398
vn -0.015871048 -0.07935506 0.9967201
vn -0.015871048 -0.07935506 0.9967201
vn -0.015871048 -0.047613025 0.9987398
vn -0.015871048 -0.047613025 0.9987398
vn -0.015871048 -0.047613025 0.9987398
vn -0.015871048 -0.047613025 0.9987398
vn 0.015870988 -0.047613025 0.9987398
vn 0.015870988 -0.015870988 0.99974805
vn -0.015871048 -0.047613025 0.9987398
vn -0.015871048 -0.047613025 0.9987398
vn -0.015871048 -0.047613025 0.9987398
vn 0.015870988 -0.047613025 0.9987398
vn 0.015870988 -0.047613025 0.9987398
vn 0.015870988 0.015871048 0.99974805
vn 0.015870988 -0.047613025 0.9987398
vn 0.015870988 -0.047613025 0.9987398
vn 0.015870988 -0.015870988 0.99974805
vn 0.015870988 0.015871048 0.99974805
vn 0.015870988 -0.015870988 0.99974805
vn 0.015870988 -0.047613025 0.9987398
vn 0.015870988 0.015871048 0.99974805
vn 0.015870988 0.015871048 0.99974805
vn 0.015870988 0.015871048 0.99974805
vn 0.015870988 0.015871048 0.99974805
vn 0.015870988 0.015871048 0.99974805
vn 0.015870988 0.015871048 0.99974805
vn 0.015870988 0.015871048 0.99974805
vn 0.015870988 0.015871048 0.99974805
vn 0.015870988 0.015871048 0.99974805
vn 0.015870988 0.015871048 0.99974805
vn 0.015870988 0.015871048 0.99974805
vn 0.015870988 0.015871048 0.99974805
vn 0.015870988 0.015871048 0.99974805
vn 0.015870988 0.015871048 0.99974805
vn 0.015870988 0.015871048 0.99974805
vn 0.015870988 0.015871048 0.99974805
vn 0.015870988 0.015871048 0.99974805
vn 0.015870988 0.015871048 0.99974805
vn 0.015870988 0.015871048 0.99974805
vn 0.015870988 0.015871048 0.99974805
vn 0.015870988 0.015871048 0.99974805
vn 0.015870988 0.015871048 0.99974805
vn 0.047613025 0.015871048 0.9987398
vn 0.015870988 0.015871048 0.99974805
vn 0.047613025 0.015871048 0.9987398
vn 0.047613025 0.015871048 0.9987398
vn 0.015870988 0.047613025 0.9987398
vn 0.047613025 0.015871048 0.9987398
vn 0.015870988 0.047613025 0.9987398
vn 0.015870988 0.047613025 0.9987398
vn 0.015870988 0.047613025 0.9987398
vn 0.015870988 0.047613025 0.9987398
vn 0.015870988 0.047613025 0.9987398
vn 0.015870988 0.047613025 0.9987398
vn 0.015870988 0.07935512 0.9967201
vn 0.015870988 0.047613025 0.9987398
vn 0.015870988 0.07935512 0.9967201
vn 0.015870988 0.047613025 0.9987398
vn 0.015870988 0.047613025 0.9987398
vn -0.047613025 0.07935512 0.9957087
vn 0.015870988 0.1428392 0.98961866
vn 0.015870988 0.1428392 0.98961866
vn -0.015871048 0.1428392 0.98961866
vn -0.047613025 0.1110971 0.99266833
vn -0.015871048 0.1428392 0.98961866
vn 0.015870988 0.17458117 0.98451483
vn 0.015870988 0.1428392 0.98961866
vn -0.015871048 0.1428392 0.98961866
vn -0.015871048 0.07935512 0.9967201
vn -0.047613025 0.1110971 0.99266833
vn -0.015871048 0.1110971 0.9936828
vn -0.015871048 0.047613025 0.9987398
vn -0.015871048 0.07935512 0.9967201
vn -0.015871048 0.047613025 0.9987398
vn -0.015871048 0.047613025 0.9987398
vn -0.015871048 0.015871048 0.99974805
vn -0.015871048 0.047613025 0.9987398
vn -0.015871048 0.015871048 0.99974805
vn -0.015871048 0.015871048 0.99974805
vn -0.015871048 -0.015870988 0.99974805
vn -0.015871048 0.015871048 0.99974805
vn -0.015871048 -0.015870988 0.99974805
vn -0.015871048 0.015871048 0.99974805
vn -0.015871048 -0.07935506 0.9967201
vn 0.015870988 -0.015870988 0.99974805
vn -0.015871048 -0.1110971 0.9936828
vn -0.015871048 -0.07935506 0.9967201
vn -0.015871048 -0.1110971 0.9936828
vn 0.015870988 -0.1110971 0.9936828
vn -0.015871048 -0.1110971 0.9936828
vn -0.047613025 -0.14283913 0.9886
vn -0.015871048 -0.047613025 0.9987398
vn -0.047613025 -0.1110971 0.99266833
vn -0.015871048 -0.047613025 0.9987398
vn -0.015871048 -0.07935506 0.9967201
vn -0.015871048 0.015871048 0.99974805
vn -0.047613025 -0.047613025 0.99773043
vn -0.015871048 0.015871048 0.99974805
vn -0.015871048 0.015871048 0.99974805
vn -0.015871048 0.047613025 0.9987398
vn -0.015871048 0.015871048 0.99974805
vn -0.015871048 0.047613025 0.9987398
vn -0.047613025 0.07935512 0.9957087
g tb_outline_08_mesh_0
f 3/3/3 2/2/2 1/1/1
f 4/4/4 3/3/3 1/1/1
f 5/5/5 3/3/3 4/4/4
f 6/6/6 5/5/5 4/4/4
f 7/7/7 5/5/5 6/6/6
f 8/8/8 7/7/7 6/6/6
f 9/9/9 7/7/7 8/8/8
f 10/10/10 9/9/9 8/8/8
f 11/11/11 9/9/9 10/10/10
f 12/12/12 11/11/11 10/10/10
f 13/13/13 11/11/11 12/12/12
f 14/14/14 13/13/13 12/12/12
f 17/17/17 16/16/16 15/15/15
f 18/18/18 17/17/17 15/15/15
f 19/19/19 17/17/17 18/18/18
f 20/20/20 19/19/19 18/18/18
f 23/23/23 22/22/22 21/21/21
f 24/24/24 23/23/23 21/21/21
f 25/25/25 23/23/23 24/24/24
f 26/26/26 25/25/25 24/24/24
f 27/27/27 25/25/25 26/26/26
f 28/28/28 27/27/27 26/26/26
f 29/29/29 27/27/27 28/28/28
f 30/30/30 29/29/29 28/28/28
f 31/31/31 29/29/29 30/30/30
f 32/32/32 31/31/31 30/30/30
f 33/33/33 31/31/31 32/32/32
f 34/34/34 33/33/33 32/32/32
f 35/35/35 33/33/33 34/34/34
f 36/36/36 35/35/35 34/34/34
f 37/37/37 35/35/35 36/36/36
f 38/38/38 37/37/37 36/36/36
f 39/39/39 37/37/37 38/38/38
f 40/40/40 39/39/39 38/38/38
f 41/41/41 39/39/39 40/40/40
f 42/42/42 41/41/41 40/40/40
f 43/43/43 41/41/41 42/42/42
f 44/44/44 43/43/43 42/42/42
f 47/47/47 46/46/46 45/45/45
f 48/48/48 47/47/47 45/45/45
f 49/49/49 47/47/47 48/48/48
f 50/50/50 49/49/49 48/48/48
f 53/53/53 52/52/52 51/51/51
f 54/54/54 53/53/53 51/51/51
f 55/55/55 53/53/53 54/54/54
f 56/56/56 55/55/55 54/54/54
f 57/57/57 55/55/55 56/56/56
f 58/58/58 57/57/57 56/56/56
f 59/59/59 57/57/57 58/58/58
f 60/60/60 59/59/59 58/58/58
f 61/61/61 59/59/59 60/60/60
f 62/62/62 61/61/61 60/60/60
f 63/63/63 61/61/61 62/62/62
f 64/64/64 63/63/63 62/62/62
f 65/65/65 63/63/63 64/64/64
f 66/66/66 65/65/65 64/64/64
f 67/67/67 65/65/65 66/66/66
f 68/68/68 67/67/67 66/66/66
f 69/69/69 67/67/67 68/68/68
f 70/70/70 69/69/69 68/68/68
f 71/71/71 69/69/69 70/70/70
f 72/72/72 71/71/71 70/70/70
f 73/73/73 71/71/71 72/72/72
f 74/74/74 73/73/73 72/72/72
f 75/75/75 73/73/73 74/74/74
f 76/76/76 75/75/75 74/74/74
f 79/79/79 78/78/78 77/77/77
f 80/80/80 79/79/79 77/77/77
f 81/81/81 79/79/79 80/80/80
f 82/82/82 81/81/81 80/80/80
f 83/83/83 81/81/81 82/82/82
f 84/84/84 83/83/83 82/82/82
f 87/87/87 86/86/86 85/85/85
f 88/88/88 87/87/87 85/85/85
f 89/89/89 87/87/87 88/88/88
f 90/90/90 89/89/89 88/88/88
f 91/91/91 89/89/89 90/90/90
f 92/92/92 91/91/91 90/90/90
f 93/93/93 91/91/91 92/92/92
f 94/94/94 93/93/93 92/92/92
f 95/95/95 93/93/93 94/94/94
f 96/96/96 95/95/95 94/94/94
f 99/99/99 98/98/98 97/97/97
f 100/100/100 99/99/99 97/97/97
f 101/101/101 99/99/99 100/100/100
f 102/102/102 101/101/101 100/100/100
f 103/103/103 101/101/101 102/102/102
f 104/104/104 103/103/103 102/102/102
f 105/105/105 103/103/103 104/104/104
f 106/106/106 105/105/105 104/104/104
f 107/107/107 105/105/105 106/106/106
f 108/108/108 107/107/107 106/106/106
f 109/109/109 107/107/107 108/108/108
f 110/110/110 109/109/109 108/108/108
f 111/111/111 109/109/109 110/110/110
f 112/112/112 111/111/111 110/110/110
f 113/113/113 111/111/111 112/112/112
f 114/114/114 113/113/113 112/112/112
f 115/115/115 113/113/113 114/114/114
f 116/116/116 115/115/115 114/114/114
f 119/119/119 118/118/118 117/117/117
f 120/120/120 119/119/119 117/117/117
f 121/121/121 119/119/119 120/120/120
f 122/122/122 121/121/121 120/120/120
f 125/125/125 124/124/124 123/123/123
f 126/126/126 125/125/125 123/123/123
f 127/127/127 125/125/125 126/126/126
f 128/128/128 127/127/127 126/126/126
f 129/129/129 127/127/127 128/128/128
f 130/130/130 129/129/129 128/128/128
f 131/131/131 129/129/129 130/130/130
f 132/132/132 131/131/131 130/130/130
f 133/133/133 131/131/131 132/132/132
f 134/134/134 133/133/133 132/132/132
f 135/135/135 133/133/133 134/134/134
f 136/136/136 135/135/135 134/134/134
f 137/137/137 135/135/135 136/136/136
f 138/138/138 137/137/137 136/136/136
f 139/139/139 137/137/137 138/138/138
f 140/140/140 139/139/139 138/138/138
f 141/141/141 139/139/139 140/140/140
f 142/142/142 141/141/141 140/140/140
f 145/145/145 144/144/144 143/143/143
f 146/146/146 145/145/145 143/143/143
f 147/147/147 145/145/145 146/146/146
f 148/148/148 147/147/147 146/146/146
f 149/149/149 147/147/147 148/148/148
f 150/150/150 149/149/149 148/148/148
f 151/151/151 149/149/149 150/150/150
f 152/152/152 151/151/151 150/150/150
f 153/153/153 151/151/151 152/152/152
f 154/154/154 153/153/153 152/152/152
f 155/155/155 153/153/153 154/154/154
f 156/156/156 155/155/155 154/154/154
f 157/157/157 155/155/155 156/156/156
f 158/158/158 157/157/157 156/156/156
f 159/159/159 157/157/157 158/158/158
f 160/160/160 159/159/159 158/158/158
f 161/161/161 159/159/159 160/160/160
f 162/162/162 161/161/161 160/160/160
f 163/163/163 161/161/161 162/162/162
f 164/164/164 163/163/163 162/162/162
f 165/165/165 163/163/163 164/164/164
f 166/166/166 165/165/165 164/164/164
f 167/167/167 165/165/165 166/166/166
f 168/168/168 167/167/167 166/166/166
f 171/171/171 170/170/170 169/169/169
f 172/172/172 171/171/171 169/169/169
f 173/173/173 171/171/171 172/172/172
f 174/174/174 173/173/173 172/172/172
f 177/177/177 176/176/176 175/175/175
f 178/178/178 177/177/177 175/175/175
f 179/179/179 177/177/177 178/178/178
f 180/180/180 179/179/179 178/178/178
f 181/181/181 179/179/179 180/180/180
f 182/182/182 181/181/181 180/180/180
f 183/183/183 181/181/181 182/182/182
f 184/184/184 183/183/183 182/182/182
f 185/185/185 183/183/183 184/184/184
f 186/186/186 185/185/185 184/184/184
f 187/187/187 185/185/185 186/186/186
f 188/188/188 187/187/187 186/186/186
f 191/191/191 190/190/190 189/189/189
f 192/192/192 191/191/191 189/189/189
f 193/193/193 191/191/191 192/192/192
f 194/194/194 193/193/193 192/192/192
f 195/195/195 193/193/193 194/194/194
f 196/196/196 195/195/195 194/194/194
f 197/197/197 195/195/195 196/196/196
f 198/198/198 197/197/197 196/196/196
f 199/199/199 197/197/197 198/198/198
f 200/200/200 199/199/199 198/198/198
f 201/201/201 199/199/199 200/200/200
f 202/202/202 201/201/201 200/200/200
f 205/205/205 204/204/204 203/203/203
f 206/206/206 205/205/205 203/203/203
f 207/207/207 205/205/205 206/206/206
f 208/208/208 207/207/207 206/206/206
f 211/211/211 210/210/210 209/209/209
f 212/212/212 211/211/211 209/209/209
f 213/213/213 211/211/211 212/212/212
f 214/214/214 213/213/213 212/212/212
f 215/215/215 213/213/213 214/214/214
f 216/216/216 215/215/215 214/214/214
f 217/217/217 215/215/215 216/216/216
f 218/218/218 217/217/217 216/216/216
f 219/219/219 217/217/217 218/218/218
f 220/220/220 219/219/219 218/218/218
f 221/221/221 219/219/219 220/220/220
f 222/222/222 221/221/221 220/220/220
f 223/223/223 221/221/221 222/222/222
f 224/224/224 223/223/223 222/222/222
f 225/225/225 223/223/223 224/224/224
f 226/226/226 225/225/225 224/224/224
f 227/227/227 225/225/225 226/226/226
f 228/228/228 227/227/227 226/226/226
f 229/229/229 227/227/227 228/228/228
f 230/230/230 229/229/229 228/228/228
f 231/231/231 229/229/229 230/230/230
f 232/232/232 231/231/231 230/230/230
f 235/235/235 234/234/234 233/233/233
f 236/236/236 235/235/235 233/233/233
f 237/237/237 235/235/235 236/236/236
f 238/238/238 237/237/237 236/236/236
f 239/239/239 237/237/237 238/238/238
f 240/240/240 239/239/239 238/238/238
f 241/241/241 239/239/239 240/240/240
f 242/242/242 241/241/241 240/240/240
f 243/243/243 241/241/241 242/242/242
f 244/244/244 243/243/243 242/242/242
f 245/245/245 243/243/243 244/244/244
f 246/246/246 245/245/245 244/244/244
f 247/247/247 245/245/245 246/246/246
f 248/248/248 247/247/247 246/246/246
f 249/249/249 247/247/247 248/248/248
f 250/250/250 249/249/249 248/248/248
f 253/253/253 252/252/252 251/251/251
f 254/254/254 253/253/253 251/251/251
f 255/255/255 253/253/253 254/254/254
f 256/256/256 255/255/255 254/254/254
f 259/259/259 258/258/258 257/257/257
f 260/260/260 259/259/259 257/257/257
f 261/261/261 259/259/259 260/260/260
f 262/262/262 261/261/261 260/260/260
f 263/263/263 261/261/261 262/262/262
f 264/264/264 263/263/263 262/262/262
f 265/265/265 263/263/263 264/264/264
f 266/266/266 265/265/265 264/264/264
f 267/267/267 265/265/265 266/266/266
f 268/268/268 267/267/267 266/266/266
f 269/269/269 267/267/267 268/268/268
f 270/270/270 269/269/269 268/268/268
f 271/271/271 269/269/269 270/270/270
f 272/272/272 271/271/271 270/270/270
f 273/273/273 271/271/271 272/272/272
f 274/274/274 273/273/273 272/272/272
f 275/275/275 273/273/273 274/274/274
f 276/276/276 275/275/275 274/274/274
f 279/279/279 278/278/278 277/277/277
f 280/280/280 279/279/279 277/277/277
f 281/281/281 279/279/279 280/280/280
f 282/282/282 281/281/281 280/280/280
f 283/283/283 281/281/281 282/282/282
f 284/284/284 283/283/283 282/282/282
f 285/285/285 283/283/283 284/284/284
f 286/286/286 285/285/285 284/284/284
f 287/287/287 285/285/285 286/286/286
f 288/288/288 287/287/287 286/286/286
f 291/291/291 290/290/290 289/289/289
f 292/292/292 291/291/291 289/289/289
f 293/293/293 291/291/291 292/292/292
f 294/294/294 293/293/293 292/292/292
f 295/295/295 293/293/293 294/294/294
f 296/296/296 295/295/295 294/294/294
f 299/299/299 298/298/298 297/297/297
f 300/300/300 299/299/299 297/297/297
f 301/301/301 299/299/299 300/300/300
f 302/302/302 301/301/301 300/300/300
f 303/303/303 301/301/301 302/302/302
f 304/304/304 303/303/303 302/302/302
f 305/305/305 303/303/303 304/304/304
f 306/306/306 305/305/305 304/304/304
f 307/307/307 305/305/305 306/306/306
f 308/308/308 307/307/307 306/306/306
f 309/309/309 307/307/307 308/308/308
f 310/310/310 309/309/309 308/308/308
f 311/311/311 309/309/309 310/310/310
f 312/312/312 311/311/311 310/310/310
f 313/313/313 311/311/311 312/312/312
f 314/314/314 313/313/313 312/312/312
f 315/315/315 313/313/313 314/314/314
f 316/316/316 315/315/315 314/314/314
f 317/317/317 315/315/315 316/316/316
f 318/318/318 317/317/317 316/316/316
f 319/319/319 317/317/317 318/318/318
f 320/320/320 319/319/319 318/318/318
f 321/321/321 319/319/319 320/320/320
f 322/322/322 321/321/321 320/320/320
f 325/325/325 324/324/324 323/323/323
f 326/326/326 325/325/325 323/323/323
f 327/327/327 325/325/325 326/326/326
f 328/328/328 327/327/327 326/326/326
f 331/331/331 330/330/330 329/329/329
f 332/332/332 331/331/331 329/329/329
f 333/333/333 331/331/331 332/332/332
f 334/334/334 333/333/333 332/332/332
f 335/335/335 333/333/333 334/334/334
f 336/336/336 335/335/335 334/334/334
f 337/337/337 335/335/335 336/336/336
f 338/338/338 337/337/337 336/336/336
f 339/339/339 337/337/337 338/338/338
f 340/340/340 339/339/339 338/338/338
f 341/341/341 339/339/339 340/340/340
f 342/342/342 341/341/341 340/340/340
f 343/343/343 341/341/341 342/342/342
f 344/344/344 343/343/343 342/342/342
f 345/345/345 343/343/343 344/344/344
f 346/346/346 345/345/345 344/344/344
f 347/347/347 345/345/345 346/346/346
f 348/348/348 347/347/347 346/346/346
f 349/349/349 347/347/347 348/348/348
f 350/350/350 349/349/349 348/348/348
f 351/351/351 349/349/349 350/350/350
f 352/352/352 351/351/351 350/350/350
f 355/355/355 354/354/354 353/353/353
f 356/356/356 355/355/355 353/353/353
f 357/357/357 355/355/355 356/356/356
f 358/358/358 357/357/357 356/356/356
f 361/361/361 360/360/360 359/359/359
f 362/362/362 361/361/361 359/359/359
f 363/363/363 361/361/361 362/362/362
f 364/364/364 363/363/363 362/362/362
f 365/365/365 363/363/363 364/364/364
f 366/366/366 365/365/365 364/364/364
f 367/367/367 365/365/365 366/366/366
f 368/368/368 367/367/367 366/366/366
f 369/369/369 367/367/367 368/368/368
f 370/370/370 369/369/369 368/368/368
f 373/373/373 372/372/372 371/371/371
f 371/371/371 372/372/372 374/374/374
f 371/371/371 375/375/375 373/373/373
f 376/376/376 373/373/373 375/375/375
f 375/375/375 377/377/377 376/376/376
f 378/378/378 376/376/376 377/377/377
f 377/377/377 379/379/379 378/378/378
f 380/380/380 378/378/378 379/379/379
f 381/381/381 375/375/375 371/371/371
f 382/382/382 377/377/377 375/375/375
f 375/375/375 381/381/381 382/382/382
f 374/374/374 383/383/383 371/371/371
f 371/371/371 383/383/383 381/381/381
f 379/379/379 377/377/377 384/384/384
f 382/382/382 384/384/384 377/377/377
f 381/381/381 383/383/383 385/385/385
f 385/385/385 386/386/386 381/381/381
f 382/382/382 381/381/381 386/386/386
f 386/386/386 387/387/387 382/382/382
f 384/384/384 382/382/382 387/387/387
f 388/388/388 385/385/385 383/383/383
f 383/383/383 374/374/374 388/388/388
f 387/387/387 389/389/389 384/384/384
f 390/390/390 384/384/384 389/389/389
f 384/384/384 390/390/390 379/379/379
f 389/389/389 391/391/391 390/390/390
f 388/388/388 374/374/374 392/392/392
f 392/392/392 393/393/393 388/388/388
f 394/394/394 379/379/379 390/390/390
f 379/379/379 394/394/394 380/380/380
f 395/395/395 390/390/390 391/391/391
f 390/390/390 395/395/395 394/394/394
f 391/391/391 396/396/396 395/395/395
f 395/395/395 396/396/396 397/397/397
f 397/397/397 398/398/398 395/395/395
f 394/394/394 395/395/395 398/398/398
f 398/398/398 397/397/397 399/399/399
f 380/380/380 394/394/394 400/400/400
f 398/398/398 400/400/400 394/394/394
f 400/400/400 401/401/401 380/380/380
f 402/402/402 392/392/392 374/374/374
f 374/374/374 403/403/403 402/402/402
f 399/399/399 404/404/404 398/398/398
f 400/400/400 398/398/398 404/404/404
f 401/401/401 400/400/400 405/405/405
f 404/404/404 405/405/405 400/400/400
f 405/405/405 406/406/406 401/401/401
f 407/407/407 406/406/406 405/405/405
f 408/408/408 392/392/392 402/402/402
f 393/393/393 392/392/392 408/408/408
f 408/408/408 409/409/409 393/393/393
f 410/410/410 402/402/402 403/403/403
f 402/402/402 410/410/410 408/408/408
f 403/403/403 411/411/411 410/410/410
f 409/409/409 408/408/408 412/412/412
f 412/412/412 408/408/408 410/410/410
f 412/412/412 413/413/413 409/409/409
f 414/414/414 410/410/410 411/411/411
f 410/410/410 414/414/414 412/412/412
f 411/411/411 415/415/415 414/414/414
f 413/413/413 412/412/412 416/416/416
f 416/416/416 412/412/412 414/414/414
f 416/416/416 417/417/417 413/413/413
f 418/418/418 414/414/414 415/415/415
f 414/414/414 418/418/418 416/416/416
f 415/415/415 419/419/419 418/418/418
f 420/420/420 418/418/418 419/419/419
f 416/416/416 418/418/418 420/420/420
f 419/419/419 421/421/421 420/420/420
f 420/420/420 421/421/421 422/422/422
f 417/417/417 416/416/416 423/423/423
f 420/420/420 423/423/423 416/416/416
f 422/422/422 423/423/423 420/420/420
f 423/423/423 424/424/424 417/417/417
f 422/422/422 424/424/424 423/423/423
f 425/425/425 424/424/424 422/422/422
f 422/422/422 426/426/426 425/425/425
f 427/427/427 426/426/426 422/422/422
f 422/422/422 428/428/428 427/427/427
f 429/429/429 426/426/426 427/427/427
f 427/427/427 428/428/428 430/430/430
f 430/430/430 429/429/429 427/427/427
f 431/431/431 429/429/429 430/430/430
f 430/430/430 432/432/432 431/431/431
f 429/429/429 431/431/431 433/433/433
f 433/433/433 434/434/434 429/429/429
f 435/435/435 431/431/431 432/432/432
f 433/433/433 431/431/431 435/435/435
f 432/432/432 436/436/436 435/435/435
f 434/434/434 433/433/433 437/437/437
f 435/435/435 437/437/437 433/433/433
f 437/437/437 438/438/438 434/434/434
f 439/439/439 435/435/435 436/436/436
f 437/437/437 435/435/435 439/439/439
f 436/436/436 440/440/440 439/439/439
f 438/438/438 437/437/437 441/441/441
f 439/439/439 441/441/441 437/437/437
f 441/441/441 442/442/442 438/438/438
f 442/442/442 441/441/441 443/443/443
f 443/443/443 441/441/441 439/439/439
f 443/443/443 444/444/444 442/442/442
f 445/445/445 439/439/439 440/440/440
f 439/439/439 445/445/445 443/443/443
f 440/440/440 446/446/446 445/445/445
f 444/444/444 443/443/443 447/447/447
f 447/447/447 443/443/443 445/445/445
f 447/447/447 448/448/448 444/444/444
f 449/449/449 445/445/445 446/446/446
f 445/445/445 449/449/449 447/447/447
f 446/446/446 450/450/450 449/449/449
f 448/448/448 447/447/447 451/451/451
f 451/451/451 447/447/447 449/449/449
f 451/451/451 452/452/452 448/448/448
f 453/453/453 449/449/449 450/450/450
f 449/449/449 453/453/453 451/451/451
f 450/450/450 454/454/454 453/453/453
f 452/452/452 451/451/451 455/455/455
f 455/455/455 451/451/451 453/453/453
f 455/455/455 456/456/456 452/452/452
f 457/457/457 453/453/453 454/454/454
f 453/453/453 457/457/457 455/455/455
f 454/454/454 458/458/458 457/457/457
f 456/456/456 455/455/455 459/459/459
f 459/459/459 455/455/455 457/457/457
f 459/459/459 460/460/460 456/456/456
f 461/461/461 457/457/457 458/458/458
f 459/459/459 457/457/457 461/461/461
f 458/458/458 462/462/462 461/461/461
f 460/460/460 459/459/459 463/463/463
f 461/461/461 463/463/463 459/459/459
f 463/463/463 464/464/464 460/460/460
f 465/465/465 461/461/461 462/462/462
f 463/463/463 461/461/461 465/465/465
f 462/462/462 466/466/466 465/465/465
f 465/465/465 466/466/466 467/467/467
f 464/464/464 463/463/463 468/468/468
f 465/465/465 468/468/468 463/463/463
f 468/468/468 469/469/469 464/464/464
f 467/467/467 470/470/470 465/465/465
f 468/468/468 465/465/465 470/470/470
f 470/470/470 467/467/467 471/471/471
f 469/469/469 468/468/468 472/472/472
f 470/470/470 472/472/472 468/468/468
f 471/471/471 472/472/472 470/470/470
f 472/472/472 473/473/473 469/469/469
f 474/474/474 473/473/473 472/472/472
f 472/472/472 471/471/471 474/474/474
f 474/474/474 471/471/471 475/475/475
f 475/475/475 476/476/476 474/474/474
f 477/477/477 475/475/475 471/471/471
f 471/471/471 478/478/478 477/477/477
f 476/476/476 475/475/475 479/479/479
f 479/479/479 475/475/475 477/477/477
f 479/479/479 480/480/480 476/476/476
f 481/481/481 477/477/477 478/478/478
f 477/477/477 481/481/481 479/479/479
f 478/478/478 482/482/482 481/481/481
f 480/480/480 479/479/479 483/483/483
f 483/483/483 479/479/479 481/481/481
f 483/483/483 484/484/484 480/480/480
f 485/485/485 481/481/481 482/482/482
f 481/481/481 485/485/485 483/483/483
f 482/482/482 486/486/486 485/485/485
f 484/484/484 483/483/483 487/487/487
f 487/487/487 483/483/483 485/485/485
f 487/487/487 488/488/488 484/484/484
f 489/489/489 485/485/485 486/486/486
f 485/485/485 489/489/489 487/487/487
f 486/486/486 490/490/490 489/489/489
f 488/488/488 487/487/487 491/491/491
f 489/489/489 491/491/491 487/487/487
f 491/491/491 492/492/492 488/488/488
f 493/493/493 489/489/489 490/490/490
f 491/491/491 489/489/489 493/493/493
f 490/490/490 494/494/494 493/493/493
f 492/492/492 491/491/491 495/495/495
f 493/493/493 495/495/495 491/491/491
f 495/495/495 496/496/496 492/492/492
f 497/497/497 493/493/493 494/494/494
f 495/495/495 493/493/493 497/497/497
f 494/494/494 498/498/498 497/497/497
f 496/496/496 495/495/495 499/499/499
f 497/497/497 499/499/499 495/495/495
f 499/499/499 500/500/500 496/496/496
f 500/500/500 499/499/499 501/501/501
f 501/501/501 499/499/499 497/497/497
f 501/501/501 502/502/502 500/500/500
f 503/503/503 502/502/502 501/501/501
f 504/504/504 497/497/497 498/498/498
f 497/497/497 504/504/504 501/501/501
f 501/501/501 504/504/504 503/503/503
f 498/498/498 505/505/505 504/504/504
f 504/504/504 505/505/505 506/506/506
f 506/506/506 503/503/503 504/504/504
f 507/507/507 503/503/503 506/506/506
f 506/506/506 508/508/508 507/507/507
f 507/507/507 508/508/508 509/509/509
f 503/503/503 507/507/507 510/510/510
f 509/509/509 510/510/510 507/507/507
f 510/510/510 511/511/511 503/503/503
f 509/509/509 511/511/511 510/510/510
f 512/512/512 511/511/511 509/509/509
f 509/509/509 513/513/513 512/512/512
f 514/514/514 513/513/513 509/509/509
f 509/509/509 515/515/515 514/514/514
f 514/514/514 515/515/515 516/516/516
f 513/513/513 514/514/514 517/517/517
f 517/517/517 518/518/518 513/513/513
f 518/518/518 517/517/517 519/519/519
f 519/519/519 520/520/520 518/518/518
f 521/521/521 520/520/520 519/519/519
f 516/516/516 522/522/522 514/514/514
f 517/517/517 514/514/514 522/522/522
f 522/522/522 519/519/519 517/517/517
f 522/522/522 516/516/516 523/523/523
f 523/523/523 524/524/524 522/522/522
f 519/519/519 522/522/522 524/524/524
f 524/524/524 523/523/523 525/525/525
f 525/525/525 526/526/526 524/524/524
f 519/519/519 524/524/524 526/526/526
f 526/526/526 525/525/525 527/527/527
f 519/519/519 528/528/528 521/521/521
f 526/526/526 528/528/528 519/519/519
f 527/527/527 529/529/529 526/526/526
f 528/528/528 526/526/526 529/529/529
f 529/529/529 527/527/527 530/530/530
f 521/521/521 528/528/528 531/531/531
f 529/529/529 531/531/531 528/528/528
f 531/531/531 532/532/532 521/521/521
f 533/533/533 532/532/532 531/531/531
f 530/530/530 534/534/534 529/529/529
f 531/531/531 529/529/529 534/534/534
f 534/534/534 530/530/530 535/535/535
f 531/531/531 536/536/536 533/533/533
f 534/534/534 536/536/536 531/531/531
f 535/535/535 537/537/537 534/534/534
f 536/536/536 534/534/534 537/537/537
f 537/537/537 535/535/535 538/538/538
f 533/533/533 536/536/536 539/539/539
f 537/537/537 539/539/539 536/536/536
f 539/539/539 540/540/540 533/533/533
f 541/541/541 540/540/540 539/539/539
f 538/538/538 542/542/542 537/537/537
f 539/539/539 537/537/537 542/542/542
f 542/542/542 538/538/538 543/543/543
f 539/539/539 544/544/544 541/541/541
f 542/542/542 544/544/544 539/539/539
f 543/543/543 544/544/544 542/542/542
f 545/545/545 541/541/541 544/544/544
f 544/544/544 543/543/543 545/545/545
f 545/545/545 543/543/543 546/546/546
f 546/546/546 547/547/547 545/545/545
f 548/548/548 547/547/547 546/546/546
f 549/549/549 546/546/546 543/543/543
f 543/543/543 550/550/550 549/549/549
f 549/549/549 550/550/550 551/551/551
f 546/546/546 552/552/552 548/548/548
f 552/552/552 546/546/546 549/549/549
f 553/553/553 548/548/548 552/552/552
f 551/551/551 554/554/554 549/549/549
f 549/549/549 554/554/554 552/552/552
f 554/554/554 551/551/551 555/555/555
f 552/552/552 556/556/556 553/553/553
f 556/556/556 552/552/552 554/554/554
f 557/557/557 553/553/553 556/556/556
f 555/555/555 558/558/558 554/554/554
f 554/554/554 558/558/558 556/556/556
f 558/558/558 555/555/555 559/559/559
f 559/559/559 560/560/560 558/558/558
f 556/556/556 558/558/558 560/560/560
f 560/560/560 559/559/559 561/561/561
f 560/560/560 562/562/562 556/556/556
f 556/556/556 562/562/562 557/557/557
f 561/561/561 562/562/562 560/560/560
f 561/561/561 557/557/557 562/562/562
f 563/563/563 557/557/557 561/561/561
f 561/561/561 564/564/564 563/563/563
f 565/565/565 564/564/564 561/561/561
f 561/561/561 566/566/566 565/565/565
f 565/565/565 566/566/566 567/567/567
f 564/564/564 565/565/565 568/568/568
f 568/568/568 569/569/569 564/564/564
f 570/570/570 569/569/569 568/568/568
f 567/567/567 571/571/571 565/565/565
f 568/568/568 565/565/565 571/571/571
f 568/568/568 571/571/571 570/570/570
f 571/571/571 567/567/567 572/572/572
f 572/572/572 570/570/570 571/571/571
f 573/573/573 570/570/570 572/572/572
f 572/572/572 574/574/574 573/573/573
f 573/573/573 574/574/574 575/575/575
f 570/570/570 573/573/573 576/576/576
f 576/576/576 577/577/577 570/570/570
f 575/575/575 578/578/578 573/573/573
f 576/576/576 573/573/573 578/578/578
f 578/578/578 575/575/575 579/579/579
f 577/577/577 576/576/576 580/580/580
f 578/578/578 580/580/580 576/576/576
f 580/580/580 581/581/581 577/577/577
f 582/582/582 581/581/581 580/580/580
f 579/579/579 583/583/583 578/578/578
f 580/580/580 578/578/578 583/583/583
f 583/583/583 579/579/579 584/584/584
f 580/580/580 585/585/585 582/582/582
f 583/583/583 585/585/585 580/580/580
f 586/586/586 582/582/582 585/585/585
f 584/584/584 587/587/587 583/583/583
f 585/585/585 583/583/583 587/587/587
f 587/587/587 584/584/584 588/588/588
f 585/585/585 589/589/589 586/586/586
f 587/587/587 589/589/589 585/585/585
f 588/588/588 590/590/590 587/587/587
f 589/589/589 587/587/587 590/590/590
f 590/590/590 588/588/588 591/591/591
f 586/586/586 589/589/589 592/592/592
f 590/590/590 592/592/592 589/589/589
f 592/592/592 593/593/593 586/586/586
f 594/594/594 593/593/593 592/592/592
f 591/591/591 595/595/595 590/590/590
f 592/592/592 590/590/590 595/595/595
f 595/595/595 591/591/591 596/596/596
f 592/592/592 597/597/597 594/594/594
f 595/595/595 597/597/597 592/592/592
f 598/598/598 594/594/594 597/597/597
f 596/596/596 599/599/599 595/595/595
f 597/597/597 595/595/595 599/599/599
f 599/599/599 596/596/596 600/600/600
f 597/597/597 601/601/601 598/598/598
f 599/599/599 601/601/601 597/597/597
f 602/602/602 598/598/598 601/601/601
f 600/600/600 603/603/603 599/599/599
f 601/601/601 599/599/599 603/603/603
f 603/603/603 600/600/600 604/604/604
f 601/601/601 605/605/605 602/602/602
f 603/603/603 605/605/605 601/601/601
f 606/606/606 602/602/602 605/605/605
f 604/604/604 607/607/607 603/603/603
f 605/605/605 603/603/603 607/607/607
f 607/607/607 604/604/604 608/608/608
f 605/605/605 609/609/609 606/606/606
f 607/607/607 609/609/609 605/605/605
f 610/610/610 606/606/606 609/609/609
f 608/608/608 611/611/611 607/607/607
f 609/609/609 607/607/607 611/611/611
f 609/609/609 612/612/612 610/610/610
f 611/611/611 612/612/612 609/609/609
f 613/613/613 610/610/610 612/612/612
f 614/614/614 611/611/611 608/608/608
f 612/612/612 611/611/611 614/614/614
f 608/608/608 615/615/615 614/614/614
f 614/614/614 615/615/615 616/616/616
f 612/612/612 617/617/617 613/613/613
f 614/614/614 617/617/617 612/612/612
f 616/616/616 618/618/618 614/614/614
f 617/617/617 614/614/614 618/618/618
f 613/613/613 617/617/617 619/619/619
f 618/618/618 619/619/619 617/617/617
f 619/619/619 620/620/620 613/613/613
f 621/621/621 620/620/620 619/619/619
f 622/622/622 618/618/618 616/616/616
f 616/616/616 623/623/623 622/622/622
f 622/622/622 623/623/623 624/624/624
f 625/625/625 619/619/619 618/618/618
f 618/618/618 622/622/622 625/625/625
f 619/619/619 625/625/625 621/621/621
f 624/624/624 625/625/625 622/622/622
f 624/624/624 621/621/621 625/625/625
f 626/626/626 621/621/621 624/624/624
f 624/624/624 627/627/627 626/626/626
f 628/628/628 627/627/627 624/624/624
f 624/624/624 629/629/629 628/628/628
f 628/628/628 629/629/629 630/630/630
f 627/627/627 628/628/628 631/631/631
f 631/631/631 632/632/632 627/627/627
f 633/633/633 632/632/632 631/631/631
f 630/630/630 634/634/634 628/628/628
f 631/631/631 628/628/628 634/634/634
f 634/634/634 630/630/630 635/635/635
f 631/631/631 636/636/636 633/633/633
f 634/634/634 636/636/636 631/631/631
f 637/637/637 633/633/633 636/636/636
f 635/635/635 638/638/638 634/634/634
f 636/636/636 634/634/634 638/638/638
f 638/638/638 635/635/635 639/639/639
f 636/636/636 640/640/640 637/637/637
f 640/640/640 636/636/636 638/638/638
f 641/641/641 637/637/637 640/640/640
f 639/639/639 642/642/642 638/638/638
f 638/638/638 642/642/642 640/640/640
f 642/642/642 639/639/639 643/643/643
f 640/640/640 644/644/644 641/641/641
f 644/644/644 640/640/640 642/642/642
f 645/645/645 641/641/641 644/644/644
f 643/643/643 646/646/646 642/642/642
f 642/642/642 646/646/646 644/644/644
f 646/646/646 643/643/643 647/647/647
f 644/644/644 648/648/648 645/645/645
f 648/648/648 644/644/644 646/646/646
f 649/649/649 645/645/645 648/648/648
f 647/647/647 650/650/650 646/646/646
f 646/646/646 650/650/650 648/648/648
f 650/650/650 647/647/647 651/651/651
f 648/648/648 652/652/652 649/649/649
f 652/652/652 648/648/648 650/650/650
f 653/653/653 649/649/649 652/652/652
f 651/651/651 654/654/654 650/650/650
f 650/650/650 654/654/654 652/652/652
f 654/654/654 651/651/651 655/655/655
f 652/652/652 656/656/656 653/653/653
f 656/656/656 652/652/652 654/654/654
f 657/657/657 653/653/653 656/656/656
f 655/655/655 658/658/658 654/654/654
f 654/654/654 658/658/658 656/656/656
f 658/658/658 655/655/655 659/659/659
f 656/656/656 660/660/660 657/657/657
f 660/660/660 656/656/656 658/658/658
f 661/661/661 657/657/657 660/660/660
f 659/659/659 662/662/662 658/658/658
f 658/658/658 662/662/662 660/660/660
f 662/662/662 659/659/659 407/407/407
f 660/660/660 663/663/663 661/661/661
f 663/663/663 660/660/660 662/662/662
f 399/399/399 661/661/661 663/663/663
f 663/663/663 404/404/404 399/399/399
f 407/407/407 664/664/664 662/662/662
f 662/662/662 664/664/664 663/663/663
f 404/404/404 663/663/663 664/664/664
f 405/405/405 664/664/664 407/407/407
f 664/664/664 405/405/405 404/404/404
