g tb_wall_15_mesh
v 0.25077492 0.16217363 -0.098732695
v 0.25077492 -0.11618769 -0.098732695
v 0.25077492 -0.11618769 0.09878442
v 0.25077492 0.16217363 0.09878442
v 0.25077492 -0.11618769 -0.098732695
v 0.0661194 -0.2668519 0.09878442
v 0.25077492 -0.11618769 0.09878442
v 0.0661194 -0.2668519 -0.098732695
v -0.15206811 -0.2668519 0.09878442
v -0.15206811 -0.2668519 -0.098732695
v -0.15206811 -0.2668519 -0.098732695
v -0.15206811 0.014724821 -0.098732695
v -0.15206811 0.014724821 0.09878442
v -0.15206811 -0.2668519 0.09878442
v -0.15206811 0.014724821 -0.098732695
v -0.09510967 0.0703052 -0.098732695
v -0.09510967 0.0703052 0.09878442
v -0.15206811 0.014724821 0.09878442
v -0.09510967 0.0703052 -0.098732695
v -0.09510967 0.20305508 -0.098732695
v -0.09510967 0.20305508 0.09878442
v -0.09510967 0.0703052 0.09878442
v -0.09510967 0.20305508 -0.098732695
v -0.05744362 0.16355166 -0.098732695
v -0.05744362 0.16355166 0.09878442
v -0.09510967 0.20305508 0.09878442
v -0.05744362 0.16355166 -0.098732695
v 0.25077492 0.16217363 -0.098732695
v 0.25077492 0.16217363 0.09878442
v -0.05744362 0.16355166 0.09878442
vt 0.99196154 0.008439841
vt 0.99196154 0.008439841
vt 0.99196154 0.9881046
vt 0.99196154 0.9881046
vt 0.99196154 0.008439841
vt 0.5445556 0.9881046
vt 0.99196154 0.9881046
vt 0.5445556 0.008439841
vt 0.016153736 0.9881046
vt 0.016153736 0.008439841
vt 0.016153736 0.008439841
vt 0.016153736 0.008439841
vt 0.016153736 0.9881046
vt 0.016153736 0.9881046
vt 0.016153736 0.008439841
vt 0.1511469 0.008439841
vt 0.1511469 0.9881046
vt 0.016153736 0.9881046
vt 0.1511469 0.008439841
vt 0.1511469 0.008439841
vt 0.1511469 0.9881046
vt 0.1511469 0.9881046
vt 0.1511469 0.008439841
vt 0.24371366 0.008439841
vt 0.24371366 0.9881046
vt 0.1511469 0.9881046
vt 0.24371366 0.008439841
vt 0.99196154 0.008439841
vt 0.99196154 0.9881046
vt 0.24371366 0.9881046
vn 0.999874 0.015871048 -0.00034391563
vn 0.999874 0.015871048 -0.00034391563
vn 0.999874 0.015871048 -0.00034391563
vn 0.999874 0.015871048 -0.00034391563
vn 0.6189696 -0.7776798 -0.10995791
vn 0.33329135 -0.9363899 -0.10995791
vn 0.6189696 -0.7776798 -0.10995791
vn 0.33329135 -0.9363899 -0.10995791
vn -0.015871048 -0.999874 -0.00034526698
vn -0.015871048 -0.999874 -0.00034526698
vn -0.999874 0.015871048 -0.00034391563
vn -0.999874 0.015871048 -0.00034391563
vn -0.999874 0.015871048 -0.00034391563
vn -0.999874 0.015871048 -0.00034391563
vn -0.70710677 0.70710677 -0
vn -0.70710677 0.70710677 -0
vn -0.70710677 0.70710677 -0
vn -0.70710677 0.70710677 -0
vn -0.999874 0.015871048 -0.00034391563
vn -0.999874 0.015871048 -0.00034391563
vn -0.999874 0.015871048 -0.00034391563
vn -0.999874 0.015871048 -0.00034391563
vn 0.7141957 0.68245375 -0.15550359
vn 0.7141957 0.68245375 -0.15550359
vn 0.7141957 0.68245375 -0.15550359
vn 0.7141957 0.68245375 -0.15550359
vn 0.015870988 0.999874 -0.00034526698
vn 0.015870988 0.999874 -0.00034526698
vn 0.015870988 0.999874 -0.00034526698
vn 0.015870988 0.999874 -0.00034526698
g tb_wall_15_mesh_0
f 3/3/3 2/2/2 1/1/1
f 4/4/4 3/3/3 1/1/1
f 7/7/7 6/6/6 5/5/5
f 6/6/6 8/8/8 5/5/5
f 6/6/6 9/9/9 8/8/8
f 9/9/9 10/10/10 8/8/8
f 13/13/13 12/12/12 11/11/11
f 14/14/14 13/13/13 11/11/11
f 17/17/17 16/16/16 15/15/15
f 18/18/18 17/17/17 15/15/15
f 21/21/21 20/20/20 19/19/19
f 22/22/22 21/21/21 19/19/19
f 25/25/25 24/24/24 23/23/23
f 26/26/26 25/25/25 23/23/23
f 29/29/29 28/28/28 27/27/27
f 30/30/30 29/29/29 27/27/27
