g tb_wall_16_mesh
v 0.21949688 0.20127055 0.09868246
v 0.21949688 0.20127055 -0.09868246
v 0.21949688 -0.10649374 -0.09868246
v 0.21949688 -0.10649374 0.09868246
v 0.2096026 0.19137627 -0.09868246
v 0.2096026 0.19137627 0.09868246
v 0.2096026 -0.10180698 0.09868246
v 0.2096026 -0.10180698 -0.09868246
v 0.21949688 -0.10649374 0.09868246
v 0.21949688 -0.10649374 -0.09868246
v 0.023173466 -0.26636454 -0.09868246
v 0.023173466 -0.26636454 0.09868246
v -0.21949688 -0.26636454 -0.09868246
v -0.21949688 -0.26636454 0.09868246
v 0.2096026 -0.10180698 -0.09868246
v 0.2096026 -0.10180698 0.09868246
v 0.019528195 -0.25647026 0.09868246
v 0.019528195 -0.25647026 -0.09868246
v -0.2096026 -0.25647026 0.09868246
v -0.2096026 -0.25647026 -0.09868246
v -0.21949688 -0.26636454 0.09868246
v -0.21949688 -0.26636454 -0.09868246
v -0.21949688 0.040358245 -0.09868246
v -0.21949688 0.040358245 0.09868246
v -0.2096026 -0.25647026 -0.09868246
v -0.2096026 -0.25647026 0.09868246
v -0.2096026 0.03619224 0.09868246
v -0.2096026 0.03619224 -0.09868246
v -0.21949688 0.040358245 0.09868246
v -0.21949688 0.040358245 -0.09868246
v -0.16273493 0.09659946 -0.09868246
v -0.16273493 0.09659946 0.09868246
v -0.2096026 0.03619224 -0.09868246
v -0.2096026 0.03619224 0.09868246
v -0.15284064 0.09243342 0.09868246
v -0.15284064 0.09243342 -0.09868246
v -0.16273493 0.09659946 0.09868246
v -0.16273493 0.09659946 -0.09868246
v -0.1642972 0.26636454 -0.09868246
v -0.1642972 0.26636454 0.09868246
v -0.15284064 0.09243342 -0.09868246
v -0.15284064 0.09243342 0.09868246
v -0.15388215 0.24240997 0.09868246
v -0.15388215 0.24240997 -0.09868246
v -0.1642972 0.26636454 0.09868246
v -0.1642972 0.26636454 -0.09868246
v -0.0992032 0.20179132 -0.09868246
v -0.0992032 0.20179132 0.09868246
v -0.15388215 0.24240997 -0.09868246
v -0.15388215 0.24240997 0.09868246
v -0.103369236 0.19189703 0.09868246
v -0.103369236 0.19189703 -0.09868246
v -0.0992032 0.20179132 0.09868246
v -0.0992032 0.20179132 -0.09868246
v 0.21949688 0.20127055 -0.09868246
v 0.21949688 0.20127055 0.09868246
v -0.103369236 0.19189703 -0.09868246
v -0.103369236 0.19189703 0.09868246
v 0.2096026 0.19137627 0.09868246
v 0.2096026 0.19137627 -0.09868246
v -0.1642972 0.26636454 -0.09868246
v -0.103369236 0.19189703 -0.09868246
v -0.0992032 0.20179132 -0.09868246
v -0.15388215 0.24240997 -0.09868246
v 0.2096026 0.19137627 -0.09868246
v -0.16273493 0.09659946 -0.09868246
v 0.21949688 0.20127055 -0.09868246
v -0.15284064 0.09243342 -0.09868246
v 0.2096026 -0.10180698 -0.09868246
v -0.21949688 0.040358245 -0.09868246
v 0.21949688 -0.10649374 -0.09868246
v -0.2096026 0.03619224 -0.09868246
v 0.019528195 -0.25647026 -0.09868246
v -0.21949688 -0.26636454 -0.09868246
v 0.023173466 -0.26636454 -0.09868246
v -0.2096026 -0.25647026 -0.09868246
v -0.15388215 0.24240997 0.09868246
v -0.1642972 0.26636454 0.09868246
v -0.0992032 0.20179132 0.09868246
v -0.15284064 0.09243342 0.09868246
v -0.103369236 0.19189703 0.09868246
v -0.16273493 0.09659946 0.09868246
v 0.21949688 0.20127055 0.09868246
v -0.2096026 0.03619224 0.09868246
v 0.2096026 0.19137627 0.09868246
v -0.21949688 0.040358245 0.09868246
v 0.21949688 -0.10649374 0.09868246
v -0.2096026 -0.25647026 0.09868246
v 0.2096026 -0.10180698 0.09868246
v -0.21949688 -0.26636454 0.09868246
v 0.023173466 -0.26636454 0.09868246
v 0.019528195 -0.25647026 0.09868246
vt 0.0016891062 0.98579156
vt 0.0016891062 0.013266782
vt 0.0016891062 0.013266782
vt 0.0016891062 0.98579156
vt 0.005548332 0.013266782
vt 0.005548332 0.98579156
vt 0.005548332 0.98579156
vt 0.005548332 0.013266782
vt 0.0016891062 0.98579156
vt 0.0016891062 0.013266782
vt 0.07115516 0.013266782
vt 0.07115516 0.98579156
vt 0.15605812 0.013266782
vt 0.15605812 0.98579156
vt 0.005548332 0.013266782
vt 0.005548332 0.98579156
vt 0.07115516 0.98579156
vt 0.07115516 0.013266782
vt 0.1521989 0.98579156
vt 0.1521989 0.013266782
vt 0.15605812 0.98579156
vt 0.15605812 0.013266782
vt 0.15605812 0.013266782
vt 0.15605812 0.98579156
vt 0.1521989 0.013266782
vt 0.1521989 0.98579156
vt 0.1521989 0.98579156
vt 0.1521989 0.013266782
vt 0.15605812 0.98579156
vt 0.15605812 0.013266782
vt 0.136762 0.013266782
vt 0.136762 0.98579156
vt 0.1521989 0.013266782
vt 0.1521989 0.98579156
vt 0.13290277 0.98579156
vt 0.13290277 0.013266782
vt 0.136762 0.98579156
vt 0.136762 0.013266782
vt 0.136762 0.013266782
vt 0.136762 0.98579156
vt 0.13290277 0.013266782
vt 0.13290277 0.98579156
vt 0.13290277 0.98579156
vt 0.13290277 0.013266782
vt 0.136762 0.98579156
vt 0.136762 0.013266782
vt 0.11360665 0.013266782
vt 0.11360665 0.98579156
vt 0.13290277 0.013266782
vt 0.13290277 0.98579156
vt 0.11746587 0.98579156
vt 0.11746587 0.013266782
vt 0.11360665 0.98579156
vt 0.11360665 0.013266782
vt 0.0016891062 0.013266782
vt 0.0016891062 0.98579156
vt 0.11746587 0.013266782
vt 0.11746587 0.98579156
vt 0.005548332 0.98579156
vt 0.005548332 0.013266782
vt 0.136762 0.013266782
vt 0.11746587 0.013266782
vt 0.11360665 0.013266782
vt 0.13290277 0.013266782
vt 0.005548332 0.013266782
vt 0.136762 0.013266782
vt 0.0016891062 0.013266782
vt 0.13290277 0.013266782
vt 0.005548332 0.013266782
vt 0.15605812 0.013266782
vt 0.0016891062 0.013266782
vt 0.1521989 0.013266782
vt 0.07115516 0.013266782
vt 0.15605812 0.013266782
vt 0.07115516 0.013266782
vt 0.1521989 0.013266782
vt 0.13290277 0.98579156
vt 0.136762 0.98579156
vt 0.11360665 0.98579156
vt 0.13290277 0.98579156
vt 0.11746587 0.98579156
vt 0.136762 0.98579156
vt 0.0016891062 0.98579156
vt 0.1521989 0.98579156
vt 0.005548332 0.98579156
vt 0.15605812 0.98579156
vt 0.0016891062 0.98579156
vt 0.1521989 0.98579156
vt 0.005548332 0.98579156
vt 0.15605812 0.98579156
vt 0.07115516 0.98579156
vt 0.07115516 0.98579156
vn 0.999874 -0.015870988 -0.00034665503
vn 0.999874 -0.015870988 -0.00034665503
vn 0.999874 -0.015870988 -0.00034665503
vn 0.999874 -0.015870988 -0.00034665503
vn -0.999874 0.015871048 -0.00034391563
vn -0.999874 0.015871048 -0.00034391563
vn -0.999874 0.015871048 -0.00034391563
vn -0.999874 0.015871048 -0.00034391563
vn 0.6189696 -0.7776798 -0.10995791
vn 0.6189696 -0.7776798 -0.10995791
vn 0.33329135 -0.9363899 -0.10995791
vn 0.33329135 -0.9363899 -0.10995791
vn -0.015871048 -0.999874 -0.00034526698
vn -0.015871048 -0.999874 -0.00034526698
vn -0.6189697 0.7776798 -0.10995764
vn -0.6189697 0.7776798 -0.10995764
vn -0.3332913 0.9363899 -0.10995819
vn -0.3332913 0.9363899 -0.10995819
vn -0.015871048 0.999874 -0.00034526698
vn -0.015871048 0.999874 -0.00034526698
vn -0.999874 0.015871048 -0.00034391563
vn -0.999874 0.015871048 -0.00034391563
vn -0.999874 0.015871048 -0.00034391563
vn -0.999874 0.015871048 -0.00034391563
vn 0.999874 -0.015870988 -0.00034665503
vn 0.999874 -0.015870988 -0.00034665503
vn 0.999874 -0.015870988 -0.00034665503
vn 0.999874 -0.015870988 -0.00034665503
vn -0.70710677 0.70710677 -0
vn -0.70710677 0.70710677 -0
vn -0.70710677 0.70710677 -0
vn -0.70710677 0.70710677 -0
vn 0.70710677 -0.70710677 -0
vn 0.70710677 -0.70710677 -0
vn 0.70710677 -0.70710677 -0
vn 0.70710677 -0.70710677 -0
vn -0.999874 -0.015870988 -0.00034665503
vn -0.999874 -0.015870988 -0.00034665503
vn -0.999874 -0.015870988 -0.00034665503
vn -0.999874 -0.015870988 -0.00034665503
vn 0.999874 0.015871048 -0.00034391563
vn 0.999874 0.015871048 -0.00034391563
vn 0.999874 0.015871048 -0.00034391563
vn 0.999874 0.015871048 -0.00034391563
vn 0.70710677 0.70710677 -0
vn 0.70710677 0.70710677 -0
vn 0.70710677 0.70710677 -0
vn 0.70710677 0.70710677 -0
vn -0.70710677 -0.70710677 -0
vn -0.70710677 -0.70710677 -0
vn -0.70710677 -0.70710677 -0
vn -0.70710677 -0.70710677 -0
vn 0.015870988 0.999874 -0.00034526698
vn 0.015870988 0.999874 -0.00034526698
vn 0.015870988 0.999874 -0.00034526698
vn 0.015870988 0.999874 -0.00034526698
vn -0.015871048 -0.999874 -0.00034526698
vn -0.015871048 -0.999874 -0.00034526698
vn -0.015871048 -0.999874 -0.00034526698
vn -0.015871048 -0.999874 -0.00034526698
vn -0.015871048 0.015871048 -0.99974805
vn -0.015871048 0.015871048 -0.99974805
vn -0.015871048 0.015871048 -0.99974805
vn -0.015871048 0.015871048 -0.99974805
vn -0.015871048 0.015871048 -0.99974805
vn -0.015871048 0.015871048 -0.99974805
vn -0.015871048 0.015871048 -0.99974805
vn -0.015871048 0.015871048 -0.99974805
vn -0.015871048 0.015871048 -0.99974805
vn -0.015871048 0.015871048 -0.99974805
vn -0.015871048 0.015871048 -0.99974805
vn -0.015871048 0.015871048 -0.99974805
vn -0.015871048 0.015871048 -0.99974805
vn -0.015871048 0.015871048 -0.99974805
vn -0.015871048 0.015871048 -0.99974805
vn -0.015871048 0.015871048 -0.99974805
vn -0.015871048 0.015871048 0.99974805
vn -0.015871048 0.015871048 0.99974805
vn -0.015871048 0.015871048 0.99974805
vn -0.015871048 0.015871048 0.99974805
vn -0.015871048 0.015871048 0.99974805
vn -0.015871048 0.015871048 0.99974805
vn -0.015871048 0.015871048 0.99974805
vn -0.015871048 0.015871048 0.99974805
vn -0.015871048 0.015871048 0.99974805
vn -0.015871048 0.015871048 0.99974805
vn -0.015871048 0.015871048 0.99974805
vn -0.015871048 0.015871048 0.99974805
vn -0.015871048 0.015871048 0.99974805
vn -0.015871048 0.015871048 0.99974805
vn -0.015871048 0.015871048 0.99974805
vn -0.015871048 0.015871048 0.99974805
g tb_wall_16_mesh_0
f 3/3/3 2/2/2 1/1/1
f 4/4/4 3/3/3 1/1/1
f 7/7/7 6/6/6 5/5/5
f 8/8/8 7/7/7 5/5/5
f 11/11/11 10/10/10 9/9/9
f 12/12/12 11/11/11 9/9/9
f 13/13/13 11/11/11 12/12/12
f 14/14/14 13/13/13 12/12/12
f 17/17/17 16/16/16 15/15/15
f 18/18/18 17/17/17 15/15/15
f 19/19/19 17/17/17 18/18/18
f 20/20/20 19/19/19 18/18/18
f 23/23/23 22/22/22 21/21/21
f 24/24/24 23/23/23 21/21/21
f 27/27/27 26/26/26 25/25/25
f 28/28/28 27/27/27 25/25/25
f 31/31/31 30/30/30 29/29/29
f 32/32/32 31/31/31 29/29/29
f 35/35/35 34/34/34 33/33/33
f 36/36/36 35/35/35 33/33/33
f 39/39/39 38/38/38 37/37/37
f 40/40/40 39/39/39 37/37/37
f 43/43/43 42/42/42 41/41/41
f 44/44/44 43/43/43 41/41/41
f 47/47/47 46/46/46 45/45/45
f 48/48/48 47/47/47 45/45/45
f 51/51/51 50/50/50 49/49/49
f 52/52/52 51/51/51 49/49/49
f 55/55/55 54/54/54 53/53/53
f 56/56/56 55/55/55 53/53/53
f 59/59/59 58/58/58 57/57/57
f 60/60/60 59/59/59 57/57/57
f 63/63/63 62/62/62 61/61/61
f 62/62/62 64/64/64 61/61/61
f 65/65/65 62/62/62 63/63/63
f 61/61/61 64/64/64 66/66/66
f 67/67/67 65/65/65 63/63/63
f 64/64/64 68/68/68 66/66/66
f 69/69/69 65/65/65 67/67/67
f 66/66/66 68/68/68 70/70/70
f 71/71/71 69/69/69 67/67/67
f 68/68/68 72/72/72 70/70/70
f 73/73/73 69/69/69 71/71/71
f 70/70/70 72/72/72 74/74/74
f 75/75/75 73/73/73 71/71/71
f 72/72/72 76/76/76 74/74/74
f 76/76/76 73/73/73 75/75/75
f 74/74/74 76/76/76 75/75/75
f 79/79/79 78/78/78 77/77/77
f 77/77/77 78/78/78 80/80/80
f 81/81/81 79/79/79 77/77/77
f 78/78/78 82/82/82 80/80/80
f 83/83/83 79/79/79 81/81/81
f 80/80/80 82/82/82 84/84/84
f 85/85/85 83/83/83 81/81/81
f 82/82/82 86/86/86 84/84/84
f 87/87/87 83/83/83 85/85/85
f 84/84/84 86/86/86 88/88/88
f 89/89/89 87/87/87 85/85/85
f 86/86/86 90/90/90 88/88/88
f 91/91/91 87/87/87 89/89/89
f 88/88/88 90/90/90 92/92/92
f 92/92/92 91/91/91 89/89/89
f 90/90/90 91/91/91 92/92/92
