g tb_wall_03_mesh
v -0.19573608 -0.46729258 0.09829417
v 0.2272183 -0.46729258 0.09829417
v 0.2272183 -0.46729258 -0.098707974
v -0.19573608 -0.46729258 -0.098707974
v 0.2272183 -0.46729258 0.09829417
v 0.2272183 -0.10294455 0.09829417
v 0.2272183 -0.10294455 -0.098707974
v 0.2272183 -0.46729258 -0.098707974
v 0.2272183 -0.10294455 0.09829417
v 0.26817214 -0.0577541 0.09829417
v 0.26817214 -0.0577541 -0.098707974
v 0.2272183 -0.10294455 -0.098707974
v 0.26817214 -0.0577541 0.09829417
v 0.26817214 0.13359919 0.09829417
v 0.26817214 0.13359919 -0.098707974
v 0.26817214 -0.0577541 -0.098707974
v 0.26817214 0.13359919 0.09829417
v 0.2201573 0.18020186 0.09829417
v 0.2201573 0.18020186 -0.098707974
v 0.26817214 0.13359919 -0.098707974
v 0.2201573 0.18020186 0.09829417
v 0.05351752 0.18020186 0.09829417
v 0.05351752 0.18020186 -0.098707974
v 0.2201573 0.18020186 -0.098707974
v 0.05351752 0.18020186 0.09829417
v 0.020330757 0.2148008 0.09829417
v 0.020330757 0.2148008 -0.098707974
v 0.05351752 0.18020186 -0.098707974
v 0.020330757 0.2148008 0.09829417
v -0.15337005 0.2148008 0.09829417
v -0.15337005 0.2148008 -0.098707974
v 0.020330757 0.2148008 -0.098707974
v -0.15337005 0.2148008 0.09829417
v -0.23386553 0.1350114 -0.098707974
v -0.15337005 0.2148008 -0.098707974
v -0.23386553 0.1350114 0.09829417
v -0.25504854 0.13289312 -0.098707974
v -0.25504854 0.13289312 0.09829417
v -0.25504854 0.13289312 0.09829417
v -0.25504854 -0.03162837 0.09829417
v -0.25504854 -0.03162837 -0.098707974
v -0.25504854 0.13289312 -0.098707974
v -0.25504854 -0.03162837 0.09829417
v -0.19644216 -0.08952865 0.09829417
v -0.19644216 -0.08952865 -0.098707974
v -0.25504854 -0.03162837 -0.098707974
v -0.19644216 -0.08952865 0.09829417
v -0.19573608 -0.46729258 0.09829417
v -0.19573608 -0.46729258 -0.098707974
v -0.19644216 -0.08952865 -0.098707974
vt 0.12324034 0.98866117
vt 0.91525495 0.98866117
vt 0.91525495 0.007335767
vt 0.12324034 0.007335767
vt 0.91525495 0.98866117
vt 0.91525495 0.98866117
vt 0.91525495 0.007335767
vt 0.91525495 0.007335767
vt 0.91525495 0.98866117
vt 0.9925246 0.98866117
vt 0.9925246 0.007335767
vt 0.91525495 0.007335767
vt 0.9925246 0.98866117
vt 0.9925246 0.98866117
vt 0.9925246 0.007335767
vt 0.9925246 0.007335767
vt 0.9925246 0.98866117
vt 0.90366447 0.98866117
vt 0.90366447 0.007335767
vt 0.9925246 0.007335767
vt 0.90366447 0.98866117
vt 0.59072214 0.98866117
vt 0.59072214 0.007335767
vt 0.90366447 0.007335767
vt 0.59072214 0.98866117
vt 0.52890635 0.98866117
vt 0.52890635 0.007335767
vt 0.59072214 0.007335767
vt 0.52890635 0.98866117
vt 0.20437354 0.98866117
vt 0.20437354 0.007335767
vt 0.52890635 0.007335767
vt 0.20437354 0.98866117
vt 0.053697597 0.007335767
vt 0.20437354 0.007335767
vt 0.053697597 0.98866117
vt 0.015062738 0.007335767
vt 0.015062738 0.98866117
vt 0.015062738 0.98866117
vt 0.015062738 0.98866117
vt 0.015062738 0.007335767
vt 0.015062738 0.007335767
vt 0.015062738 0.98866117
vt 0.12324034 0.98866117
vt 0.12324034 0.007335767
vt 0.015062738 0.007335767
vt 0.12324034 0.98866117
vt 0.12324034 0.98866117
vt 0.12324034 0.007335767
vt 0.12324034 0.007335767
vn -0.015871048 -0.999874 -0.00034526698
vn -0.015871048 -0.999874 -0.00034526698
vn -0.015871048 -0.999874 -0.00034526698
vn -0.015871048 -0.999874 -0.00034526698
vn 0.999874 0.015871048 -0.00034391563
vn 0.999874 0.015871048 -0.00034391563
vn 0.999874 0.015871048 -0.00034391563
vn 0.999874 0.015871048 -0.00034391563
vn 0.7378055 -0.6750135 -0
vn 0.7378055 -0.6750135 -0
vn 0.7378055 -0.6750135 -0
vn 0.7378055 -0.6750135 -0
vn 0.999874 0.015871048 -0.00034391563
vn 0.999874 0.015871048 -0.00034391563
vn 0.999874 0.015871048 -0.00034391563
vn 0.999874 0.015871048 -0.00034391563
vn 0.70710677 0.70710677 -0
vn 0.70710677 0.70710677 -0
vn 0.70710677 0.70710677 -0
vn 0.70710677 0.70710677 -0
vn -0.015871048 0.999874 -0.00034526698
vn -0.015871048 0.999874 -0.00034526698
vn -0.015871048 0.999874 -0.00034526698
vn -0.015871048 0.999874 -0.00034526698
vn 0.7141957 0.68245375 -0.15550359
vn 0.7141957 0.68245375 -0.15550359
vn 0.7141957 0.68245375 -0.15550359
vn 0.7141957 0.68245375 -0.15550359
vn -0.015871048 0.999874 -0.00034526698
vn -0.015871048 0.999874 -0.00034526698
vn -0.015871048 0.999874 -0.00034526698
vn -0.015871048 0.999874 -0.00034526698
vn -0.70710677 0.70710677 -0
vn -0.42808634 0.9037378 -0
vn -0.70710677 0.70710677 -0
vn -0.42808634 0.9037378 -0
vn -0.110431515 0.9938838 -0
vn -0.110431515 0.9938838 -0
vn -0.999874 0.015871048 -0.00034391563
vn -0.999874 0.015871048 -0.00034391563
vn -0.999874 0.015871048 -0.00034391563
vn -0.999874 0.015871048 -0.00034391563
vn -0.70710677 -0.70710677 -0
vn -0.70710677 -0.70710677 -0
vn -0.70710677 -0.70710677 -0
vn -0.70710677 -0.70710677 -0
vn -0.999874 -0.015870988 -0.00034665503
vn -0.999874 -0.015870988 -0.00034665503
vn -0.999874 -0.015870988 -0.00034665503
vn -0.999874 -0.015870988 -0.00034665503
g tb_wall_03_mesh_0
f 3/3/3 2/2/2 1/1/1
f 4/4/4 3/3/3 1/1/1
f 7/7/7 6/6/6 5/5/5
f 8/8/8 7/7/7 5/5/5
f 11/11/11 10/10/10 9/9/9
f 12/12/12 11/11/11 9/9/9
f 15/15/15 14/14/14 13/13/13
f 16/16/16 15/15/15 13/13/13
f 19/19/19 18/18/18 17/17/17
f 20/20/20 19/19/19 17/17/17
f 23/23/23 22/22/22 21/21/21
f 24/24/24 23/23/23 21/21/21
f 27/27/27 26/26/26 25/25/25
f 28/28/28 27/27/27 25/25/25
f 31/31/31 30/30/30 29/29/29
f 32/32/32 31/31/31 29/29/29
f 35/35/35 34/34/34 33/33/33
f 34/34/34 36/36/36 33/33/33
f 34/34/34 37/37/37 36/36/36
f 37/37/37 38/38/38 36/36/36
f 41/41/41 40/40/40 39/39/39
f 42/42/42 41/41/41 39/39/39
f 45/45/45 44/44/44 43/43/43
f 46/46/46 45/45/45 43/43/43
f 49/49/49 48/48/48 47/47/47
f 50/50/50 49/49/49 47/47/47
