g tb_wall_07_mesh
v -0.20779729 0.22416025 -0.09842421
v 0.25410628 0.22416025 -0.09842421
v 0.25410628 0.22416025 0.09839907
v -0.20779729 0.22416025 0.09839907
v 0.25410628 0.22416025 -0.09842421
v 0.25410628 0.031544596 0.09839907
v 0.25410628 0.22416025 0.09839907
v 0.25410628 0.031544596 -0.09842421
v 0.21062751 -0.039517477 0.09839907
v 0.21062751 -0.039517477 -0.09842421
v 0.21062751 -0.124604985 0.09839907
v 0.21062751 -0.124604985 -0.09842421
v 0.21062751 -0.124604985 -0.09842421
v -0.06333554 -0.124604985 -0.09842421
v -0.06333554 -0.124604985 0.09839907
v 0.21062751 -0.124604985 0.09839907
v -0.06333554 -0.124604985 -0.09842421
v -0.10821685 -0.07878864 -0.09842421
v -0.10821685 -0.07878864 0.09839907
v -0.06333554 -0.124604985 0.09839907
v -0.10821685 -0.07878864 -0.09842421
v -0.16572106 -0.07878864 -0.09842421
v -0.16572106 -0.07878864 0.09839907
v -0.10821685 -0.07878864 0.09839907
v -0.16572106 -0.07878864 -0.09842421
v -0.16572106 -0.03156975 0.09839907
v -0.16572106 -0.07878864 0.09839907
v -0.16572106 -0.03156975 -0.09842421
v -0.2082648 0.036687255 0.09839907
v -0.2082648 0.036687255 -0.09842421
v -0.20779729 0.22416025 0.09839907
v -0.20779729 0.22416025 -0.09842421
vt 0.0161546 0.008439841
vt 0.9920716 0.008439841
vt 0.9920716 0.98821425
vt 0.0161546 0.98821425
vt 0.9920716 0.008439841
vt 0.9920716 0.98821425
vt 0.9920716 0.98821425
vt 0.9920716 0.008439841
vt 0.8994945 0.98821425
vt 0.8994945 0.008439841
vt 0.8994945 0.98821425
vt 0.8994945 0.008439841
vt 0.8994945 0.008439841
vt 0.3208876 0.008439841
vt 0.3208876 0.98821425
vt 0.8994945 0.98821425
vt 0.3208876 0.008439841
vt 0.22831048 0.008439841
vt 0.22831048 0.98821425
vt 0.3208876 0.98821425
vt 0.22831048 0.008439841
vt 0.10487433 0.008439841
vt 0.10487433 0.98821425
vt 0.22831048 0.98821425
vt 0.10487433 0.008439841
vt 0.10487433 0.98821425
vt 0.10487433 0.98821425
vt 0.10487433 0.008439841
vt 0.0161546 0.98821425
vt 0.0161546 0.008439841
vt 0.0161546 0.98821425
vt 0.0161546 0.008439841
vn -0.015871048 0.999874 -0.00034526698
vn -0.015871048 0.999874 -0.00034526698
vn -0.015871048 0.999874 -0.00034526698
vn -0.015871048 0.999874 -0.00034526698
vn 0.999874 0.015871048 -0.00034391563
vn 0.9632913 -0.26845825 -0
vn 0.999874 0.015871048 -0.00034391563
vn 0.9632913 -0.26845825 -0
vn 0.9632913 -0.26845825 -0
vn 0.9632913 -0.26845825 -0
vn 0.999874 0.015871048 -0.00034391563
vn 0.999874 0.015871048 -0.00034391563
vn -0.015871048 -0.999874 -0.00034526698
vn -0.015871048 -0.999874 -0.00034526698
vn -0.015871048 -0.999874 -0.00034526698
vn -0.015871048 -0.999874 -0.00034526698
vn -0.7141957 -0.68245363 -0.15550417
vn -0.7141957 -0.68245363 -0.15550417
vn -0.7141957 -0.68245363 -0.15550417
vn -0.7141957 -0.68245363 -0.15550417
vn -0.015871048 -0.999874 -0.00034526698
vn -0.015871048 -0.999874 -0.00034526698
vn -0.015871048 -0.999874 -0.00034526698
vn -0.015871048 -0.999874 -0.00034526698
vn -0.999874 0.015871048 -0.00034391563
vn -0.96329135 -0.26845825 -0
vn -0.999874 0.015871048 -0.00034391563
vn -0.96329135 -0.26845825 -0
vn -0.96329135 -0.26845825 -0
vn -0.96329135 -0.26845825 -0
vn -0.999874 0.015871048 -0.00034391563
vn -0.999874 0.015871048 -0.00034391563
g tb_wall_07_mesh_0
f 3/3/3 2/2/2 1/1/1
f 4/4/4 3/3/3 1/1/1
f 7/7/7 6/6/6 5/5/5
f 6/6/6 8/8/8 5/5/5
f 6/6/6 9/9/9 8/8/8
f 9/9/9 10/10/10 8/8/8
f 9/9/9 11/11/11 10/10/10
f 11/11/11 12/12/12 10/10/10
f 15/15/15 14/14/14 13/13/13
f 16/16/16 15/15/15 13/13/13
f 19/19/19 18/18/18 17/17/17
f 20/20/20 19/19/19 17/17/17
f 23/23/23 22/22/22 21/21/21
f 24/24/24 23/23/23 21/21/21
f 27/27/27 26/26/26 25/25/25
f 26/26/26 28/28/28 25/25/25
f 26/26/26 29/29/29 28/28/28
f 29/29/29 30/30/30 28/28/28
f 29/29/29 31/31/31 30/30/30
f 31/31/31 32/32/32 30/30/30
