g tb_wall_11_mesh
v -0.16947609 0.2675948 -0.098485634
v -0.06160283 0.30833417 0.09832564
v -0.16947609 0.2675948 0.09832564
v -0.06160283 0.30833417 -0.098485634
v 0.2786569 0.30833417 0.09832564
v 0.2786569 0.30833417 -0.098485634
v 0.2786569 0.30833417 -0.098485634
v 0.2786569 -0.06176284 -0.098485634
v 0.2786569 -0.06176284 0.09832564
v 0.2786569 0.30833417 0.09832564
v 0.2786569 -0.06176284 -0.098485634
v 0.21037543 -0.12774912 -0.098485634
v 0.21037543 -0.12774912 0.09832564
v 0.2786569 -0.06176284 0.09832564
v 0.21037543 -0.12774912 -0.098485634
v 0.21037543 -0.19086644 -0.098485634
v 0.21037543 -0.19086644 0.09832564
v 0.21037543 -0.12774912 0.09832564
v 0.21037543 -0.19086644 -0.098485634
v -0.06561941 -0.19086644 -0.098485634
v -0.06561941 -0.19086644 0.09832564
v 0.21037543 -0.19086644 0.09832564
v -0.06561941 -0.19086644 -0.098485634
v -0.10119462 -0.22586787 -0.098485634
v -0.10119462 -0.22586787 0.09832564
v -0.06561941 -0.19086644 0.09832564
v -0.10119462 -0.22586787 -0.098485634
v -0.12758914 -0.20578508 -0.098485634
v -0.12758914 -0.20578508 0.09832564
v -0.10119462 -0.22586787 0.09832564
v -0.12758914 -0.20578508 -0.098485634
v -0.12758914 -0.06061524 0.09832564
v -0.12758914 -0.20578508 0.09832564
v -0.12758914 -0.06061524 -0.098485634
v -0.15283605 -0.030204177 0.09832564
v -0.15283605 -0.029630378 -0.098485634
v -0.15283605 0.25152862 0.09832564
v -0.15283605 0.25152862 -0.098485634
v -0.15283605 0.25152862 -0.098485634
v -0.16947609 0.2675948 -0.098485634
v -0.16947609 0.2675948 0.09832564
v -0.15283605 0.25152862 0.09832564
vt 0.01994053 0.008439971
vt 0.24995172 0.98598754
vt 0.01994053 0.98598754
vt 0.24995172 0.008439971
vt 0.982154 0.98598754
vt 0.982154 0.008439971
vt 0.982154 0.008439971
vt 0.982154 0.008439971
vt 0.982154 0.98598754
vt 0.982154 0.98598754
vt 0.982154 0.008439971
vt 0.83648026 0.008439971
vt 0.83648026 0.98598754
vt 0.982154 0.98598754
vt 0.83648026 0.008439971
vt 0.83648026 0.008439971
vt 0.83648026 0.98598754
vt 0.83648026 0.98598754
vt 0.83648026 0.008439971
vt 0.24228469 0.008439971
vt 0.24228469 0.98598754
vt 0.83648026 0.98598754
vt 0.24228469 0.008439971
vt 0.16561429 0.008439971
vt 0.16561429 0.98598754
vt 0.24228469 0.98598754
vt 0.16561429 0.008439971
vt 0.11194501 0.008439971
vt 0.11194501 0.98598754
vt 0.16561429 0.98598754
vt 0.11194501 0.008439971
vt 0.11194501 0.98598754
vt 0.11194501 0.98598754
vt 0.11194501 0.008439971
vt 0.054442212 0.98598754
vt 0.054442212 0.008439971
vt 0.054442212 0.98598754
vt 0.054442212 0.008439971
vt 0.054442212 0.008439971
vt 0.01994053 0.008439971
vt 0.01994053 0.98598754
vt 0.054442212 0.98598754
vn -0.36320823 0.931708 -0
vn -0.17458117 0.968132 -0.17956008
vn -0.36320823 0.931708 -0
vn -0.17458117 0.968132 -0.17956008
vn -0.015871048 0.999874 -0.00034526698
vn -0.015871048 0.999874 -0.00034526698
vn 0.999874 0.015871048 -0.00034391563
vn 0.999874 0.015871048 -0.00034391563
vn 0.999874 0.015871048 -0.00034391563
vn 0.999874 0.015871048 -0.00034391563
vn 0.68245363 -0.7141957 -0.15550417
vn 0.68245363 -0.7141957 -0.15550417
vn 0.68245363 -0.7141957 -0.15550417
vn 0.68245363 -0.7141957 -0.15550417
vn 0.999874 0.015871048 -0.00034391563
vn 0.999874 0.015871048 -0.00034391563
vn 0.999874 0.015871048 -0.00034391563
vn 0.999874 0.015871048 -0.00034391563
vn -0.015871048 -0.999874 -0.00034526698
vn -0.015871048 -0.999874 -0.00034526698
vn -0.015871048 -0.999874 -0.00034526698
vn -0.015871048 -0.999874 -0.00034526698
vn 0.70710677 -0.70710677 -0
vn 0.70710677 -0.70710677 -0
vn 0.70710677 -0.70710677 -0
vn 0.70710677 -0.70710677 -0
vn -0.6074502 -0.79435784 -0
vn -0.6074502 -0.79435784 -0
vn -0.6074502 -0.79435784 -0
vn -0.6074502 -0.79435784 -0
vn -0.999874 0.015871048 -0.00034391563
vn -0.9363899 -0.33329135 -0.109958015
vn -0.999874 0.015871048 -0.00034391563
vn -0.9363899 -0.33329135 -0.109958015
vn -0.9363899 -0.33329135 -0.109958015
vn -0.9363899 -0.33329135 -0.109958015
vn -0.999874 0.015871048 -0.00034391563
vn -0.999874 0.015871048 -0.00034391563
vn -0.70710677 -0.70710677 -0
vn -0.70710677 -0.70710677 -0
vn -0.70710677 -0.70710677 -0
vn -0.70710677 -0.70710677 -0
g tb_wall_11_mesh_0
f 3/3/3 2/2/2 1/1/1
f 2/2/2 4/4/4 1/1/1
f 2/2/2 5/5/5 4/4/4
f 5/5/5 6/6/6 4/4/4
f 9/9/9 8/8/8 7/7/7
f 10/10/10 9/9/9 7/7/7
f 13/13/13 12/12/12 11/11/11
f 14/14/14 13/13/13 11/11/11
f 17/17/17 16/16/16 15/15/15
f 18/18/18 17/17/17 15/15/15
f 21/21/21 20/20/20 19/19/19
f 22/22/22 21/21/21 19/19/19
f 25/25/25 24/24/24 23/23/23
f 26/26/26 25/25/25 23/23/23
f 29/29/29 28/28/28 27/27/27
f 30/30/30 29/29/29 27/27/27
f 33/33/33 32/32/32 31/31/31
f 32/32/32 34/34/34 31/31/31
f 32/32/32 35/35/35 34/34/34
f 35/35/35 36/36/36 34/34/34
f 35/35/35 37/37/37 36/36/36
f 37/37/37 38/38/38 36/36/36
f 41/41/41 40/40/40 39/39/39
f 42/42/42 41/41/41 39/39/39
