g tb_wall_04_mesh
v -0.2535674 0.21912234 -0.09841822
v 0.18722194 0.22073694 -0.09841822
v 0.18722194 0.22073694 0.09856455
v -0.2535674 0.21912234 0.09856455
v 0.18722194 0.22073694 -0.09841822
v 0.18722194 0.020524934 0.09856455
v 0.18722194 0.22073694 0.09856455
v 0.18722194 0.020524934 -0.09841822
v 0.22812547 -0.046750605 0.09856455
v 0.22812547 -0.046750605 -0.09841822
v 0.22812547 -0.08119568 0.09856455
v 0.22812547 -0.08119568 -0.09841822
v 0.22812547 -0.08119568 -0.09841822
v 0.025760636 -0.08119568 0.09856455
v 0.22812547 -0.08119568 0.09856455
v 0.025760636 -0.08119568 -0.09841822
v -0.030750826 -0.10918231 0.09856455
v -0.030750826 -0.10918231 -0.09841822
v -0.32245755 -0.10918231 0.09856455
v -0.32245755 -0.10918231 -0.09841822
v -0.32245755 -0.10918231 -0.09841822
v -0.25518203 -0.01930219 0.09856455
v -0.32245755 -0.10918231 0.09856455
v -0.25518203 -0.01930219 -0.09841822
v -0.2535674 0.21912234 0.09856455
v -0.2535674 0.21912234 -0.09841822
vt 0.13649008 0.009513687
vt 0.9175872 0.009513687
vt 0.9175872 0.9868471
vt 0.13649008 0.9868471
vt 0.9175872 0.009513687
vt 0.9175872 0.9868471
vt 0.9175872 0.9868471
vt 0.9175872 0.009513687
vt 0.9906949 0.9868471
vt 0.9906949 0.009513687
vt 0.9906949 0.9868471
vt 0.9906949 0.009513687
vt 0.9906949 0.009513687
vt 0.6328523 0.9868471
vt 0.9906949 0.9868471
vt 0.6328523 0.009513687
vt 0.53281033 0.9868471
vt 0.53281033 0.009513687
vt 0.017209226 0.9868471
vt 0.017209226 0.009513687
vt 0.017209226 0.009513687
vt 0.13649008 0.9868471
vt 0.017209226 0.9868471
vt 0.13649008 0.009513687
vt 0.13649008 0.9868471
vt 0.13649008 0.009513687
vn -0.015871048 0.9998741 -0
vn -0.015871048 0.9998741 -0
vn -0.015871048 0.9998741 -0
vn -0.015871048 0.9998741 -0
vn 0.9998741 0.015871048 -0
vn 0.9632913 0.26845828 -0
vn 0.9998741 0.015871048 -0
vn 0.9632913 0.26845828 -0
vn 0.9632913 0.26845828 -0
vn 0.9632913 0.26845828 -0
vn 0.9998741 0.015871048 -0
vn 0.9998741 0.015871048 -0
vn -0.015871048 -0.9998741 -0
vn 0.23806524 -0.9681321 -0.077751026
vn -0.015871048 -0.9998741 -0
vn 0.23806524 -0.9681321 -0.077751026
vn 0.23806524 -0.9681321 -0.077751026
vn 0.23806524 -0.9681321 -0.077751026
vn -0.015871048 -0.9998741 -0
vn -0.015871048 -0.9998741 -0
vn -0.8094218 0.58722764 -0
vn -0.93639004 0.3332914 -0.10995703
vn -0.8094218 0.58722764 -0
vn -0.93639004 0.3332914 -0.10995703
vn -0.9998741 0.015871048 -0
vn -0.9998741 0.015871048 -0
g tb_wall_04_mesh_0
f 3/3/3 2/2/2 1/1/1
f 4/4/4 3/3/3 1/1/1
f 7/7/7 6/6/6 5/5/5
f 6/6/6 8/8/8 5/5/5
f 6/6/6 9/9/9 8/8/8
f 9/9/9 10/10/10 8/8/8
f 9/9/9 11/11/11 10/10/10
f 11/11/11 12/12/12 10/10/10
f 15/15/15 14/14/14 13/13/13
f 14/14/14 16/16/16 13/13/13
f 14/14/14 17/17/17 16/16/16
f 17/17/17 18/18/18 16/16/16
f 17/17/17 19/19/19 18/18/18
f 19/19/19 20/20/20 18/18/18
f 23/23/23 22/22/22 21/21/21
f 22/22/22 24/24/24 21/21/21
f 22/22/22 25/25/25 24/24/24
f 25/25/25 26/26/26 24/24/24
