g tb_wall_06_mesh
v -0.1746901 0.084038675 -0.09881821
v -0.051922172 0.084038675 0.0985429
v -0.1746901 0.084038675 0.0985429
v -0.051922172 0.084038675 -0.09881821
v 0.013864875 0.12599733 0.0985429
v 0.013864875 0.12599733 -0.09881821
v 0.25991875 0.12599733 0.0985429
v 0.25991875 0.12599733 -0.09881821
v 0.25991875 0.12599733 -0.09881821
v 0.28892723 0.08455667 0.0985429
v 0.25991875 0.12599733 0.0985429
v 0.28892723 0.08455667 -0.09881821
v 0.28892723 -0.31793568 0.0985429
v 0.28892723 -0.31793568 -0.09881821
v 0.28892723 -0.31793568 -0.09881821
v -0.21198669 -0.31793568 -0.09881821
v -0.21198669 -0.31793568 0.0985429
v 0.28892723 -0.31793568 0.0985429
v -0.21198669 -0.31793568 -0.09881821
v -0.21198669 0.035863906 -0.09881821
v -0.21198669 0.035863906 0.0985429
v -0.21198669 -0.31793568 0.0985429
v -0.21198669 0.035863906 -0.09881821
v -0.1741721 0.07108846 -0.09881821
v -0.1741721 0.07108846 0.0985429
v -0.21198669 0.035863906 0.0985429
v -0.1741721 0.07108846 -0.09881821
v -0.1746901 0.084038675 -0.09881821
v -0.1746901 0.084038675 0.0985429
v -0.1741721 0.07108846 0.0985429
vt 0.086774126 0.009864382
vt 0.32519433 0.98661816
vt 0.086774126 0.98661816
vt 0.32519433 0.009864382
vt 0.45209542 0.98661816
vt 0.45209542 0.009864382
vt 0.93278134 0.98661816
vt 0.93278134 0.009864382
vt 0.93278134 0.009864382
vt 0.9904636 0.98661816
vt 0.93278134 0.98661816
vt 0.9904636 0.009864382
vt 0.9904636 0.98661816
vt 0.9904636 0.009864382
vt 0.9904636 0.009864382
vt 0.013709869 0.009864382
vt 0.013709869 0.98661816
vt 0.9904636 0.98661816
vt 0.013709869 0.009864382
vt 0.013709869 0.009864382
vt 0.013709869 0.98661816
vt 0.013709869 0.98661816
vt 0.013709869 0.009864382
vt 0.086774126 0.009864382
vt 0.086774126 0.98661816
vt 0.013709869 0.98661816
vt 0.086774126 0.009864382
vt 0.086774126 0.009864382
vt 0.086774126 0.98661816
vt 0.086774126 0.98661816
vn -0.015871048 0.999874 -0.00034526698
vn -0.2684583 0.96329135 -0
vn -0.015871048 0.999874 -0.00034526698
vn -0.2684583 0.96329135 -0
vn -0.2684583 0.96329135 -0
vn -0.2684583 0.96329135 -0
vn -0.015871048 0.999874 -0.00034526698
vn -0.015871048 0.999874 -0.00034526698
vn 0.8094218 0.5872276 -0.00042286396
vn 0.954758 0.29738364 -0
vn 0.8094218 0.5872276 -0.00042286396
vn 0.954758 0.29738364 -0
vn 0.999874 0.015871048 -0.00034391563
vn 0.999874 0.015871048 -0.00034391563
vn 0.015870988 -0.999874 -0.00034526698
vn 0.015870988 -0.999874 -0.00034526698
vn 0.015870988 -0.999874 -0.00034526698
vn 0.015870988 -0.999874 -0.00034526698
vn -0.999874 0.015871048 -0.00034391563
vn -0.999874 0.015871048 -0.00034391563
vn -0.999874 0.015871048 -0.00034391563
vn -0.999874 0.015871048 -0.00034391563
vn -0.6750134 0.7378054 -0
vn -0.6750134 0.7378054 -0
vn -0.6750134 0.7378054 -0
vn -0.6750134 0.7378054 -0
vn -0.99886817 -0.04756513 -0
vn -0.99886817 -0.04756513 -0
vn -0.99886817 -0.04756513 -0
vn -0.99886817 -0.04756513 -0
g tb_wall_06_mesh_0
f 3/3/3 2/2/2 1/1/1
f 2/2/2 4/4/4 1/1/1
f 2/2/2 5/5/5 4/4/4
f 5/5/5 6/6/6 4/4/4
f 5/5/5 7/7/7 6/6/6
f 7/7/7 8/8/8 6/6/6
f 11/11/11 10/10/10 9/9/9
f 10/10/10 12/12/12 9/9/9
f 10/10/10 13/13/13 12/12/12
f 13/13/13 14/14/14 12/12/12
f 17/17/17 16/16/16 15/15/15
f 18/18/18 17/17/17 15/15/15
f 21/21/21 20/20/20 19/19/19
f 22/22/22 21/21/21 19/19/19
f 25/25/25 24/24/24 23/23/23
f 26/26/26 25/25/25 23/23/23
f 29/29/29 28/28/28 27/27/27
f 30/30/30 29/29/29 27/27/27
