g tb_wall_05_mesh
v -0.25818816 0.26766762 -0.098477006
v 0.06174405 0.26766762 0.09881452
v -0.25818816 0.26766762 0.09881452
v 0.06174405 0.26766762 -0.098477006
v 0.11862089 0.297291 0.09881452
v 0.11862089 0.297291 -0.098477006
v 0.2513335 0.297291 0.09881452
v 0.2513335 0.297291 -0.098477006
v 0.2513335 0.297291 -0.098477006
v 0.2513335 0.06682131 -0.098477006
v 0.2513335 0.06682131 0.09881452
v 0.2513335 0.297291 0.09881452
v 0.2513335 0.06682131 -0.098477006
v 0.28984386 0.028903425 -0.098477006
v 0.28984386 0.028903425 0.09881452
v 0.2513335 0.06682131 0.09881452
v 0.28984386 0.028903425 -0.098477006
v 0.28984386 -0.26673764 -0.098477006
v 0.28984386 -0.26673764 0.09881452
v 0.28984386 0.028903425 0.09881452
v 0.28984386 -0.26673764 -0.098477006
v 0.036860436 -0.26673764 0.09881452
v 0.28984386 -0.26673764 0.09881452
v 0.036860436 -0.26673764 -0.098477006
v -0.036605477 -0.3088028 0.09881452
v -0.036605477 -0.3088028 -0.098477006
v -0.14324954 -0.3088028 0.09881452
v -0.14324954 -0.3088028 -0.098477006
v -0.14324954 -0.3088028 -0.098477006
v -0.14324954 -0.13224763 -0.098477006
v -0.14324954 -0.13224763 0.09881452
v -0.14324954 -0.3088028 0.09881452
v -0.14324954 -0.13224763 -0.098477006
v -0.2184929 -0.06707625 -0.098477006
v -0.2184929 -0.06707625 0.09881452
v -0.14324954 -0.13224763 0.09881452
v -0.2184929 -0.06707625 -0.098477006
v -0.2184929 0.0401603 0.09881452
v -0.2184929 -0.06707625 0.09881452
v -0.2184929 0.0401603 -0.098477006
v -0.25818816 0.094074786 0.09881452
v -0.25818816 0.094074786 -0.098477006
v -0.25818816 0.26766762 0.09881452
v -0.25818816 0.26766762 -0.098477006
vt 0.011406123 0.00755585
vt 0.5812465 0.9893754
vt 0.011406123 0.9893754
vt 0.5812465 0.00755585
vt 0.68520385 0.9893754
vt 0.68520385 0.00755585
vt 0.92007047 0.9893754
vt 0.92007047 0.00755585
vt 0.92007047 0.00755585
vt 0.92007047 0.00755585
vt 0.92007047 0.9893754
vt 0.92007047 0.9893754
vt 0.92007047 0.00755585
vt 0.9893754 0.00755585
vt 0.9893754 0.9893754
vt 0.92007047 0.9893754
vt 0.9893754 0.00755585
vt 0.9893754 0.00755585
vt 0.9893754 0.9893754
vt 0.9893754 0.9893754
vt 0.9893754 0.00755585
vt 0.53889346 0.9893754
vt 0.9893754 0.9893754
vt 0.53889346 0.00755585
vt 0.4079842 0.9893754
vt 0.4079842 0.00755585
vt 0.21932086 0.9893754
vt 0.21932086 0.00755585
vt 0.21932086 0.00755585
vt 0.21932086 0.00755585
vt 0.21932086 0.9893754
vt 0.21932086 0.9893754
vt 0.21932086 0.00755585
vt 0.0845613 0.00755585
vt 0.0845613 0.9893754
vt 0.21932086 0.9893754
vt 0.0845613 0.00755585
vt 0.0845613 0.9893754
vt 0.0845613 0.9893754
vt 0.0845613 0.00755585
vt 0.011406123 0.9893754
vt 0.011406123 0.00755585
vt 0.011406123 0.9893754
vt 0.011406123 0.00755585
vn -0.015871048 0.999874 -0.00034526698
vn -0.23806524 0.968132 -0.07775179
vn -0.015871048 0.999874 -0.00034526698
vn -0.23806524 0.968132 -0.07775179
vn -0.23806524 0.968132 -0.07775179
vn -0.23806524 0.968132 -0.07775179
vn -0.015871048 0.999874 -0.00034526698
vn -0.015871048 0.999874 -0.00034526698
vn 0.999874 0.015871048 -0.00034391563
vn 0.999874 0.015871048 -0.00034391563
vn 0.999874 0.015871048 -0.00034391563
vn 0.999874 0.015871048 -0.00034391563
vn 0.70710677 0.70710677 -0
vn 0.70710677 0.70710677 -0
vn 0.70710677 0.70710677 -0
vn 0.70710677 0.70710677 -0
vn 0.999874 0.015871048 -0.00034391563
vn 0.999874 0.015871048 -0.00034391563
vn 0.999874 0.015871048 -0.00034391563
vn 0.999874 0.015871048 -0.00034391563
vn -0.015871048 -0.999874 -0.00034526698
vn 0.26845825 -0.9632913 -0
vn -0.015871048 -0.999874 -0.00034526698
vn 0.26845825 -0.9632913 -0
vn 0.26845825 -0.9632913 -0
vn 0.26845825 -0.9632913 -0
vn -0.015871048 -0.999874 -0.00034526698
vn -0.015871048 -0.999874 -0.00034526698
vn -0.999874 0.015871048 -0.00034391563
vn -0.999874 0.015871048 -0.00034391563
vn -0.999874 0.015871048 -0.00034391563
vn -0.999874 0.015871048 -0.00034391563
vn -0.65071166 -0.7459377 -0.14195512
vn -0.65071166 -0.7459377 -0.14195512
vn -0.65071166 -0.7459377 -0.14195512
vn -0.65071166 -0.7459377 -0.14195512
vn -0.999874 0.015871048 -0.00034391563
vn -0.9363899 -0.30154932 -0.1795603
vn -0.999874 0.015871048 -0.00034391563
vn -0.9363899 -0.30154932 -0.1795603
vn -0.9363899 -0.30154932 -0.1795603
vn -0.9363899 -0.30154932 -0.1795603
vn -0.999874 -0.015870988 -0.00034665503
vn -0.999874 -0.015870988 -0.00034665503
g tb_wall_05_mesh_0
f 3/3/3 2/2/2 1/1/1
f 2/2/2 4/4/4 1/1/1
f 2/2/2 5/5/5 4/4/4
f 5/5/5 6/6/6 4/4/4
f 5/5/5 7/7/7 6/6/6
f 7/7/7 8/8/8 6/6/6
f 11/11/11 10/10/10 9/9/9
f 12/12/12 11/11/11 9/9/9
f 15/15/15 14/14/14 13/13/13
f 16/16/16 15/15/15 13/13/13
f 19/19/19 18/18/18 17/17/17
f 20/20/20 19/19/19 17/17/17
f 23/23/23 22/22/22 21/21/21
f 22/22/22 24/24/24 21/21/21
f 22/22/22 25/25/25 24/24/24
f 25/25/25 26/26/26 24/24/24
f 25/25/25 27/27/27 26/26/26
f 27/27/27 28/28/28 26/26/26
f 31/31/31 30/30/30 29/29/29
f 32/32/32 31/31/31 29/29/29
f 35/35/35 34/34/34 33/33/33
f 36/36/36 35/35/35 33/33/33
f 39/39/39 38/38/38 37/37/37
f 38/38/38 40/40/40 37/37/37
f 38/38/38 41/41/41 40/40/40
f 41/41/41 42/42/42 40/40/40
f 41/41/41 43/43/43 42/42/42
f 43/43/43 44/44/44 42/42/42
