g tb_wall_14_mesh
v 0.26217207 0.2496922 0.098353356
v 0.18621047 0.2496922 -0.09856248
v 0.26217207 0.2496922 -0.09856248
v 0.18621047 0.2496922 0.098353356
v 0.10732727 0.29410052 -0.09856248
v 0.10732727 0.29410052 0.098353356
v 0.029028386 0.29410052 -0.09856248
v 0.029028386 0.29410052 0.098353356
v 0.029028386 0.29410052 0.098353356
v 0.029028386 0.22339785 0.098353356
v 0.029028386 0.22339785 -0.09856248
v 0.029028386 0.29410052 -0.09856248
v 0.029028386 0.22339785 0.098353356
v -0.1170516 0.22339785 0.098353356
v -0.1170516 0.22339785 -0.09856248
v 0.029028386 0.22339785 -0.09856248
v -0.1170516 0.22339785 0.098353356
v -0.1170516 -0.10440567 0.098353356
v -0.1170516 -0.10440567 -0.09856248
v -0.1170516 0.22339785 -0.09856248
v -0.1170516 -0.10440567 0.098353356
v -0.18015814 -0.16868088 0.098353356
v -0.18015814 -0.16868088 -0.09856248
v -0.1170516 -0.10440567 -0.09856248
v -0.18015814 -0.16868088 0.098353356
v -0.18015814 -0.22068535 0.098353356
v -0.18015814 -0.22068535 -0.09856248
v -0.18015814 -0.16868088 -0.09856248
v -0.18015814 -0.22068535 0.098353356
v -0.08608264 -0.22068535 0.098353356
v -0.08608264 -0.22068535 -0.09856248
v -0.18015814 -0.22068535 -0.09856248
v -0.08608264 -0.22068535 0.098353356
v -0.08608264 -0.25340727 0.098353356
v -0.08608264 -0.25340727 -0.09856248
v -0.08608264 -0.22068535 -0.09856248
v -0.08608264 -0.25340727 0.098353356
v -0.032909513 -0.30365878 0.098353356
v -0.033493847 -0.30365878 -0.09856248
v -0.08608264 -0.25340727 -0.09856248
v -0.032909513 -0.30365878 0.098353356
v 0.26100343 -0.30365878 0.098353356
v 0.26100343 -0.30365878 -0.09856248
v -0.033493847 -0.30365878 -0.09856248
v 0.26100343 -0.30365878 0.098353356
v 0.26217207 0.2496922 0.098353356
v 0.26217207 0.2496922 -0.09856248
v 0.26100343 -0.30365878 -0.09856248
vt 0.98598737 0.98598737
vt 0.8179135 0.01192271
vt 0.98598737 0.01192271
vt 0.8179135 0.98598737
vt 0.6460197 0.01192271
vt 0.6460197 0.98598737
vt 0.47412592 0.01192271
vt 0.47412592 0.98598737
vt 0.47412592 0.98598737
vt 0.47412592 0.98598737
vt 0.47412592 0.01192271
vt 0.47412592 0.01192271
vt 0.47412592 0.98598737
vt 0.15707743 0.98598737
vt 0.15707743 0.01192271
vt 0.47412592 0.01192271
vt 0.15707743 0.98598737
vt 0.15707743 0.98598737
vt 0.15707743 0.01192271
vt 0.15707743 0.01192271
vt 0.15707743 0.98598737
vt 0.019562433 0.98598737
vt 0.019562433 0.01192271
vt 0.15707743 0.01192271
vt 0.019562433 0.98598737
vt 0.019562433 0.98598737
vt 0.019562433 0.01192271
vt 0.019562433 0.01192271
vt 0.019562433 0.98598737
vt 0.22583494 0.98598737
vt 0.22583494 0.01192271
vt 0.019562433 0.01192271
vt 0.22583494 0.98598737
vt 0.22583494 0.98598737
vt 0.22583494 0.01192271
vt 0.22583494 0.01192271
vt 0.22583494 0.98598737
vt 0.3404308 0.98598737
vt 0.3404308 0.01192271
vt 0.22583494 0.01192271
vt 0.3404308 0.98598737
vt 0.9821675 0.98598737
vt 0.9821675 0.01192271
vt 0.3404308 0.01192271
vt 0.9821675 0.98598737
vt 0.98598737 0.98598737
vt 0.98598737 0.01192271
vt 0.9821675 0.01192271
vn -0.015871048 0.999874 -0.00034526698
vn 0.23806524 0.968132 -0.07775179
vn -0.015871048 0.999874 -0.00034526698
vn 0.23806524 0.968132 -0.07775179
vn 0.23806524 0.968132 -0.07775179
vn 0.23806524 0.968132 -0.07775179
vn -0.015871048 0.999874 -0.00034526698
vn -0.015871048 0.999874 -0.00034526698
vn -0.999874 0.015871048 -0.00034391563
vn -0.999874 0.015871048 -0.00034391563
vn -0.999874 0.015871048 -0.00034391563
vn -0.999874 0.015871048 -0.00034391563
vn -0.015871048 0.999874 -0.00034526698
vn -0.015871048 0.999874 -0.00034526698
vn -0.015871048 0.999874 -0.00034526698
vn -0.015871048 0.999874 -0.00034526698
vn -0.999874 -0.015870988 -0.00034665503
vn -0.999874 -0.015870988 -0.00034665503
vn -0.999874 -0.015870988 -0.00034665503
vn -0.999874 -0.015870988 -0.00034665503
vn -0.70710677 0.70710677 -0
vn -0.70710677 0.70710677 -0
vn -0.70710677 0.70710677 -0
vn -0.70710677 0.70710677 -0
vn -0.999874 -0.015870988 -0.00034665503
vn -0.999874 -0.015870988 -0.00034665503
vn -0.999874 -0.015870988 -0.00034665503
vn -0.999874 -0.015870988 -0.00034665503
vn -0.015871048 -0.999874 -0.00034526698
vn -0.015871048 -0.999874 -0.00034526698
vn -0.015871048 -0.999874 -0.00034526698
vn -0.015871048 -0.999874 -0.00034526698
vn -0.999874 0.015871048 -0.00034391563
vn -0.999874 0.015871048 -0.00034391563
vn -0.999874 0.015871048 -0.00034391563
vn -0.999874 0.015871048 -0.00034391563
vn -0.68245375 -0.7141957 0.15550359
vn -0.68245375 -0.7141957 0.15550359
vn -0.68245375 -0.7141957 0.15550359
vn -0.68245375 -0.7141957 0.15550359
vn 0.015870988 -0.999874 -0.00034526698
vn 0.015870988 -0.999874 -0.00034526698
vn 0.015870988 -0.999874 -0.00034526698
vn 0.015870988 -0.999874 -0.00034526698
vn 0.999874 -0.015870988 -0.00034665503
vn 0.999874 -0.015870988 -0.00034665503
vn 0.999874 -0.015870988 -0.00034665503
vn 0.999874 -0.015870988 -0.00034665503
g tb_wall_14_mesh_0
f 3/3/3 2/2/2 1/1/1
f 2/2/2 4/4/4 1/1/1
f 2/2/2 5/5/5 4/4/4
f 5/5/5 6/6/6 4/4/4
f 5/5/5 7/7/7 6/6/6
f 7/7/7 8/8/8 6/6/6
f 11/11/11 10/10/10 9/9/9
f 12/12/12 11/11/11 9/9/9
f 15/15/15 14/14/14 13/13/13
f 16/16/16 15/15/15 13/13/13
f 19/19/19 18/18/18 17/17/17
f 20/20/20 19/19/19 17/17/17
f 23/23/23 22/22/22 21/21/21
f 24/24/24 23/23/23 21/21/21
f 27/27/27 26/26/26 25/25/25
f 28/28/28 27/27/27 25/25/25
f 31/31/31 30/30/30 29/29/29
f 32/32/32 31/31/31 29/29/29
f 35/35/35 34/34/34 33/33/33
f 36/36/36 35/35/35 33/33/33
f 39/39/39 38/38/38 37/37/37
f 40/40/40 39/39/39 37/37/37
f 43/43/43 42/42/42 41/41/41
f 44/44/44 43/43/43 41/41/41
f 47/47/47 46/46/46 45/45/45
f 48/48/48 47/47/47 45/45/45
