g tb_wall_08_mesh
v -0.25614464 0.24504197 -0.09865834
v -0.15525508 0.24504197 -0.09865834
v -0.15525508 0.24504197 0.09877625
v -0.25614464 0.24504197 0.09877625
v -0.15525508 0.24504197 -0.09865834
v -0.11229256 0.19821763 -0.09865834
v -0.11229256 0.19821763 0.09877625
v -0.15525508 0.24504197 0.09877625
v -0.11229256 0.19821763 -0.09865834
v 0.18313524 0.19821763 0.09877625
v -0.11229256 0.19821763 0.09877625
v 0.18313524 0.19821763 -0.09865834
v 0.2053406 0.18180496 0.09877625
v 0.2053406 0.18180496 -0.09865834
v 0.2053406 0.18180496 -0.09865834
v 0.2053406 -0.09479654 0.09877625
v 0.2053406 0.18180496 0.09877625
v 0.2053406 -0.09479654 -0.09865834
v 0.22561505 -0.12617368 0.09877625
v 0.22561505 -0.12617368 -0.09865834
v 0.22561505 -0.23768318 0.09877625
v 0.22561505 -0.23768318 -0.09865834
v 0.22561505 -0.23768318 -0.09865834
v 0.098175615 -0.23768318 -0.09865834
v 0.098175615 -0.23768318 0.09877625
v 0.22561505 -0.23768318 0.09877625
v 0.098175615 -0.23768318 -0.09865834
v 0.06969483 -0.20437515 -0.09865834
v 0.06969483 -0.20437515 0.09877625
v 0.098175615 -0.23768318 0.09877625
v 0.06969483 -0.20437515 -0.09865834
v -0.21800935 -0.20437515 -0.09865834
v -0.21800935 -0.20437515 0.09877625
v 0.06969483 -0.20437515 0.09877625
v -0.21800935 -0.20437515 -0.09865834
v -0.21945754 -0.0016305894 -0.09865834
v -0.21945754 -0.0016305894 0.09877625
v -0.21800935 -0.20437515 0.09877625
v -0.21945754 -0.0016305894 -0.09865834
v -0.2551792 0.03505653 -0.09865834
v -0.2551792 0.03505653 0.09877625
v -0.21945754 -0.0016305894 0.09877625
v -0.2551792 0.03505653 -0.09865834
v -0.25614464 0.24504197 -0.09865834
v -0.25614464 0.24504197 0.09877625
v -0.2551792 0.03505653 0.09877625
vt 0.016159222 0.008439841
vt 0.2207228 0.008439841
vt 0.2207228 0.9888011
vt 0.016159222 0.9888011
vt 0.2207228 0.008439841
vt 0.30563596 0.008439841
vt 0.30563596 0.9888011
vt 0.2207228 0.9888011
vt 0.30563596 0.008439841
vt 0.9077476 0.9888011
vt 0.30563596 0.9888011
vt 0.9077476 0.008439841
vt 0.9502042 0.9888011
vt 0.9502042 0.008439841
vt 0.9502042 0.008439841
vt 0.9502042 0.9888011
vt 0.9502042 0.9888011
vt 0.9502042 0.008439841
vt 0.99266076 0.9888011
vt 0.99266076 0.008439841
vt 0.99266076 0.9888011
vt 0.99266076 0.008439841
vt 0.99266076 0.008439841
vt 0.73406154 0.008439841
vt 0.73406154 0.9888011
vt 0.99266076 0.9888011
vt 0.73406154 0.008439841
vt 0.67616624 0.008439841
vt 0.67616624 0.9888011
vt 0.73406154 0.9888011
vt 0.67616624 0.008439841
vt 0.09335302 0.008439841
vt 0.09335302 0.9888011
vt 0.67616624 0.9888011
vt 0.09335302 0.008439841
vt 0.08949333 0.008439841
vt 0.08949333 0.9888011
vt 0.09335302 0.9888011
vt 0.08949333 0.008439841
vt 0.016159222 0.008439841
vt 0.016159222 0.9888011
vt 0.08949333 0.9888011
vt 0.016159222 0.008439841
vt 0.016159222 0.008439841
vt 0.016159222 0.9888011
vt 0.016159222 0.9888011
vn -0.015871048 0.999874 -0.00034526698
vn -0.015871048 0.999874 -0.00034526698
vn -0.015871048 0.999874 -0.00034526698
vn -0.015871048 0.999874 -0.00034526698
vn 0.73780537 0.67501354 -0
vn 0.73780537 0.67501354 -0
vn 0.73780537 0.67501354 -0
vn 0.73780537 0.67501354 -0
vn -0.015871048 0.999874 -0.00034526698
vn 0.30154932 0.9363899 -0.17956024
vn -0.015871048 0.999874 -0.00034526698
vn 0.30154932 0.9363899 -0.17956024
vn 0.5872276 0.8094218 -0.00042286396
vn 0.5872276 0.8094218 -0.00042286396
vn 0.999874 0.015871048 -0.00034391563
vn 0.9632913 0.2684583 -0
vn 0.999874 0.015871048 -0.00034391563
vn 0.9632913 0.2684583 -0
vn 0.9632913 0.2684583 -0
vn 0.9632913 0.2684583 -0
vn 0.999874 0.015871048 -0.00034391563
vn 0.999874 0.015871048 -0.00034391563
vn -0.015871048 -0.999874 -0.00034526698
vn -0.015871048 -0.999874 -0.00034526698
vn -0.015871048 -0.999874 -0.00034526698
vn -0.015871048 -0.999874 -0.00034526698
vn -0.7459378 -0.65071166 -0.1419546
vn -0.7459378 -0.65071166 -0.1419546
vn -0.7459378 -0.65071166 -0.1419546
vn -0.7459378 -0.65071166 -0.1419546
vn -0.015871048 -0.999874 -0.00034526698
vn -0.015871048 -0.999874 -0.00034526698
vn -0.015871048 -0.999874 -0.00034526698
vn -0.015871048 -0.999874 -0.00034526698
vn -0.999874 -0.015870988 -0.00034665503
vn -0.999874 -0.015870988 -0.00034665503
vn -0.999874 -0.015870988 -0.00034665503
vn -0.999874 -0.015870988 -0.00034665503
vn -0.70710677 -0.70710677 -0
vn -0.70710677 -0.70710677 -0
vn -0.70710677 -0.70710677 -0
vn -0.70710677 -0.70710677 -0
vn -0.999874 -0.015870988 -0.00034665503
vn -0.999874 -0.015870988 -0.00034665503
vn -0.999874 -0.015870988 -0.00034665503
vn -0.999874 -0.015870988 -0.00034665503
g tb_wall_08_mesh_0
f 3/3/3 2/2/2 1/1/1
f 4/4/4 3/3/3 1/1/1
f 7/7/7 6/6/6 5/5/5
f 8/8/8 7/7/7 5/5/5
f 11/11/11 10/10/10 9/9/9
f 10/10/10 12/12/12 9/9/9
f 10/10/10 13/13/13 12/12/12
f 13/13/13 14/14/14 12/12/12
f 17/17/17 16/16/16 15/15/15
f 16/16/16 18/18/18 15/15/15
f 16/16/16 19/19/19 18/18/18
f 19/19/19 20/20/20 18/18/18
f 19/19/19 21/21/21 20/20/20
f 21/21/21 22/22/22 20/20/20
f 25/25/25 24/24/24 23/23/23
f 26/26/26 25/25/25 23/23/23
f 29/29/29 28/28/28 27/27/27
f 30/30/30 29/29/29 27/27/27
f 33/33/33 32/32/32 31/31/31
f 34/34/34 33/33/33 31/31/31
f 37/37/37 36/36/36 35/35/35
f 38/38/38 37/37/37 35/35/35
f 41/41/41 40/40/40 39/39/39
f 42/42/42 41/41/41 39/39/39
f 45/45/45 44/44/44 43/43/43
f 46/46/46 45/45/45 43/43/43
