g tb_wall_01_mesh
v 0.09702611 0.65297496 0.09927386
v -0.1750862 0.65297496 -0.09837991
v 0.09702611 0.65297496 -0.09837991
v -0.1750862 0.65297496 0.09927386
v -0.33348 0.5216571 -0.09837991
v -0.33348 0.5216571 0.09927386
v -0.33348 0.5216571 0.09927386
v -0.33348 -0.5776225 0.09927386
v -0.33348 -0.5776225 -0.09837991
v -0.33348 0.5216571 -0.09837991
v -0.33348 -0.5776225 0.09927386
v -0.14259517 -0.7319548 -0.09837991
v -0.33348 -0.5776225 -0.09837991
v -0.14259517 -0.7319548 0.09927386
v 0.13087088 -0.7319548 -0.09837991
v 0.13087088 -0.7319548 0.09927386
v 0.13087088 -0.7319548 0.09927386
v 0.13087088 -0.3704922 0.09927386
v 0.13087088 -0.3704922 -0.09837991
v 0.13087088 -0.7319548 -0.09837991
v 0.13087088 -0.3704922 0.09927386
v 0.074011624 -0.3149867 0.09927386
v 0.074011624 -0.3149867 -0.09837991
v 0.13087088 -0.3704922 -0.09837991
v 0.074011624 -0.3149867 0.09927386
v 0.074011624 0.013984919 -0.09837991
v 0.074011624 -0.3149867 -0.09837991
v 0.074011624 0.013984919 0.09927386
v 0.13222468 0.08708972 -0.09837991
v 0.13222468 0.08708972 0.09927386
v 0.13222468 0.3835703 -0.09837991
v 0.13222468 0.3835703 0.09927386
v 0.13222468 0.3835703 0.09927386
v 0.09702611 0.41064608 0.09927386
v 0.09702611 0.41064608 -0.09837991
v 0.13222468 0.3835703 -0.09837991
v 0.09702611 0.41064608 0.09927386
v 0.09702611 0.65297496 0.09927386
v 0.09702611 0.65297496 -0.09837991
v 0.09702611 0.41064608 -0.09837991
vt 0.9211546 0.9868451
vt 0.3492614 0.009216826
vt 0.9211546 0.009216826
vt 0.3492614 0.9868451
vt 0.016945112 0.009216826
vt 0.016945112 0.9868451
vt 0.016945112 0.9868451
vt 0.016945112 0.9868451
vt 0.016945112 0.009216826
vt 0.016945112 0.009216826
vt 0.016945112 0.9868451
vt 0.418816 0.009216826
vt 0.016945112 0.009216826
vt 0.418816 0.9868451
vt 0.99070925 0.009216826
vt 0.99070925 0.9868451
vt 0.99070925 0.9868451
vt 0.99070925 0.9868451
vt 0.99070925 0.009216826
vt 0.99070925 0.009216826
vt 0.99070925 0.9868451
vt 0.87478495 0.9868451
vt 0.87478495 0.009216826
vt 0.99070925 0.009216826
vt 0.87478495 0.9868451
vt 0.87478495 0.009216826
vt 0.87478495 0.009216826
vt 0.87478495 0.9868451
vt 0.99457335 0.009216826
vt 0.99457335 0.9868451
vt 0.99457335 0.009216826
vt 0.99457335 0.9868451
vt 0.99457335 0.9868451
vt 0.9211546 0.9868451
vt 0.9211546 0.009216826
vt 0.99457335 0.009216826
vt 0.9211546 0.9868451
vt 0.9211546 0.9868451
vt 0.9211546 0.009216826
vt 0.9211546 0.009216826
vn -0.015871048 0.999874 -0.00034526698
vn -0.3332913 0.9363899 -0.10995819
vn -0.015871048 0.999874 -0.00034526698
vn -0.3332913 0.9363899 -0.10995819
vn -0.64172256 0.7669368 -0
vn -0.64172256 0.7669368 -0
vn -0.999874 -0.015870988 -0.00034665503
vn -0.999874 -0.015870988 -0.00034665503
vn -0.999874 -0.015870988 -0.00034665503
vn -0.999874 -0.015870988 -0.00034665503
vn -0.6189697 -0.7776798 -0.10995764
vn -0.3332913 -0.9363899 -0.10995819
vn -0.6189697 -0.7776798 -0.10995764
vn -0.3332913 -0.9363899 -0.10995819
vn -0.015871048 -0.999874 -0.00034526698
vn -0.015871048 -0.999874 -0.00034526698
vn 0.999874 0.015871048 -0.00034391563
vn 0.999874 0.015871048 -0.00034391563
vn 0.999874 0.015871048 -0.00034391563
vn 0.999874 0.015871048 -0.00034391563
vn 0.70710677 0.70710677 -0
vn 0.70710677 0.70710677 -0
vn 0.70710677 0.70710677 -0
vn 0.70710677 0.70710677 -0
vn 0.999874 0.015871048 -0.00034391563
vn 0.9363899 -0.33329135 -0.109958015
vn 0.999874 0.015871048 -0.00034391563
vn 0.9363899 -0.33329135 -0.109958015
vn 0.9363899 -0.33329135 -0.109958015
vn 0.9363899 -0.33329135 -0.109958015
vn 0.999874 -0.015870988 -0.00034665503
vn 0.999874 -0.015870988 -0.00034665503
vn 0.5872276 0.8094218 -0.00042286396
vn 0.5872276 0.8094218 -0.00042286396
vn 0.5872276 0.8094218 -0.00042286396
vn 0.5872276 0.8094218 -0.00042286396
vn 0.999874 0.015871048 -0.00034391563
vn 0.999874 0.015871048 -0.00034391563
vn 0.999874 0.015871048 -0.00034391563
vn 0.999874 0.015871048 -0.00034391563
g tb_wall_01_mesh_0
f 3/3/3 2/2/2 1/1/1
f 2/2/2 4/4/4 1/1/1
f 2/2/2 5/5/5 4/4/4
f 5/5/5 6/6/6 4/4/4
f 9/9/9 8/8/8 7/7/7
f 10/10/10 9/9/9 7/7/7
f 13/13/13 12/12/12 11/11/11
f 12/12/12 14/14/14 11/11/11
f 12/12/12 15/15/15 14/14/14
f 15/15/15 16/16/16 14/14/14
f 19/19/19 18/18/18 17/17/17
f 20/20/20 19/19/19 17/17/17
f 23/23/23 22/22/22 21/21/21
f 24/24/24 23/23/23 21/21/21
f 27/27/27 26/26/26 25/25/25
f 26/26/26 28/28/28 25/25/25
f 26/26/26 29/29/29 28/28/28
f 29/29/29 30/30/30 28/28/28
f 29/29/29 31/31/31 30/30/30
f 31/31/31 32/32/32 30/30/30
f 35/35/35 34/34/34 33/33/33
f 36/36/36 35/35/35 33/33/33
f 39/39/39 38/38/38 37/37/37
f 40/40/40 39/39/39 37/37/37
