g tb_wall_10_mesh
v -0.1720882 0.19378325 -0.098648086
v 0.2071234 0.19378325 -0.098648086
v 0.2071234 0.19378325 0.098415375
v -0.1720882 0.19378325 0.098415375
v 0.2071234 0.19378325 -0.098648086
v 0.2071234 0.059997052 0.098415375
v 0.2071234 0.19378325 0.098415375
v 0.2071234 0.059997052 -0.098648086
v 0.24056995 -0.041246578 0.098415375
v 0.24056995 -0.041246578 -0.098648086
v 0.24056995 -0.09006046 0.098415375
v 0.24056995 -0.09006046 -0.098648086
v 0.24056995 -0.09006046 -0.098648086
v -0.11061886 -0.09006046 0.098415375
v 0.24056995 -0.09006046 0.098415375
v -0.11061886 -0.09006046 -0.098648086
v -0.22180605 -0.13480653 0.098415375
v -0.22180605 -0.13480653 -0.098648086
v -0.22180605 -0.13480653 -0.098648086
v -0.22180605 -0.080568865 0.098415375
v -0.22180605 -0.13480653 0.098415375
v -0.22180605 -0.080568865 -0.098648086
v -0.1720882 -0.0037321895 0.098415375
v -0.1720882 -0.0037321895 -0.098648086
v -0.1720882 0.19378325 0.098415375
v -0.1720882 0.19378325 -0.098648086
vt 0.12496655 0.0049572196
vt 0.92244786 0.0049572196
vt 0.92244786 0.9882594
vt 0.12496655 0.9882594
vt 0.92244786 0.0049572196
vt 0.92244786 0.9882594
vt 0.92244786 0.9882594
vt 0.92244786 0.0049572196
vt 0.9921307 0.9882594
vt 0.9921307 0.0049572196
vt 0.9921307 0.9882594
vt 0.9921307 0.0049572196
vt 0.9921307 0.0049572196
vt 0.25271842 0.9882594
vt 0.9921307 0.9882594
vt 0.25271842 0.0049572196
vt 0.016571026 0.9882594
vt 0.016571026 0.0049572196
vt 0.016571026 0.0049572196
vt 0.016571026 0.9882594
vt 0.016571026 0.9882594
vt 0.016571026 0.0049572196
vt 0.12496655 0.9882594
vt 0.12496655 0.0049572196
vt 0.12496655 0.9882594
vt 0.12496655 0.0049572196
vn -0.015871048 0.999874 -0.00034526698
vn -0.015871048 0.999874 -0.00034526698
vn -0.015871048 0.999874 -0.00034526698
vn -0.015871048 0.999874 -0.00034526698
vn 0.999874 0.015871048 -0.00034391563
vn 0.98994946 0.14142141 -0
vn 0.999874 0.015871048 -0.00034391563
vn 0.98994946 0.14142141 -0
vn 0.98994946 0.14142141 -0
vn 0.98994946 0.14142141 -0
vn 0.999874 0.015871048 -0.00034391563
vn 0.999874 0.015871048 -0.00034391563
vn -0.015871048 -0.999874 -0.00034526698
vn 0.17458117 -0.96813196 -0.17956041
vn -0.015871048 -0.999874 -0.00034526698
vn 0.17458117 -0.96813196 -0.17956041
vn 0.36320817 -0.931708 -0
vn 0.36320817 -0.931708 -0
vn -0.999874 0.015871048 -0.00034391563
vn -0.96329135 0.2684583 -0
vn -0.999874 0.015871048 -0.00034391563
vn -0.96329135 0.2684583 -0
vn -0.96329135 0.2684583 -0
vn -0.96329135 0.2684583 -0
vn -0.999874 0.015871048 -0.00034391563
vn -0.999874 0.015871048 -0.00034391563
g tb_wall_10_mesh_0
f 3/3/3 2/2/2 1/1/1
f 4/4/4 3/3/3 1/1/1
f 7/7/7 6/6/6 5/5/5
f 6/6/6 8/8/8 5/5/5
f 6/6/6 9/9/9 8/8/8
f 9/9/9 10/10/10 8/8/8
f 9/9/9 11/11/11 10/10/10
f 11/11/11 12/12/12 10/10/10
f 15/15/15 14/14/14 13/13/13
f 14/14/14 16/16/16 13/13/13
f 14/14/14 17/17/17 16/16/16
f 17/17/17 18/18/18 16/16/16
f 21/21/21 20/20/20 19/19/19
f 20/20/20 22/22/22 19/19/19
f 20/20/20 23/23/23 22/22/22
f 23/23/23 24/24/24 22/22/22
f 23/23/23 25/25/25 24/24/24
f 25/25/25 26/26/26 24/24/24
