g tb_wall_02_mesh
v -0.19977763 0.48222116 -0.09884754
v 0.27022603 0.48222116 -0.09884754
v 0.27022603 0.48222116 0.0982745
v -0.19977763 0.48222116 0.0982745
v 0.27022603 0.48222116 -0.09884754
v 0.27022603 0.257149 0.0982745
v 0.27022603 0.48222116 0.0982745
v 0.27022603 0.257149 -0.09884754
v 0.18490455 0.14167076 0.0982745
v 0.18490455 0.14167076 -0.09884754
v 0.18490455 -0.073839515 0.0982745
v 0.18490455 -0.073839515 -0.09884754
v 0.22609423 -0.13047533 0.0982745
v 0.22609423 -0.13047533 -0.09884754
v 0.22609423 -0.21653235 0.0982745
v 0.22609423 -0.21653235 -0.09884754
v 0.22609423 -0.21653235 -0.09884754
v 0.10252519 -0.21653235 -0.09884754
v 0.10252519 -0.21653235 0.0982745
v 0.22609423 -0.21653235 0.0982745
v 0.10252519 -0.21653235 -0.09884754
v 0.06648421 -0.18343349 -0.09884754
v 0.06648421 -0.18343349 0.0982745
v 0.10252519 -0.21653235 0.0982745
v 0.06648421 -0.18343349 -0.09884754
v -0.14314184 -0.18343349 -0.09884754
v -0.14314184 -0.18343349 0.0982745
v 0.06648421 -0.18343349 0.0982745
v -0.14314184 -0.18343349 -0.09884754
v -0.22037247 -0.26581284 -0.09884754
v -0.22037247 -0.26581284 0.0982745
v -0.14314184 -0.18343349 0.0982745
v -0.22037247 -0.26581284 -0.09884754
v -0.22037247 -0.26581284 -0.09884754
v -0.22037247 -0.26581284 0.0982745
v -0.22037247 -0.26581284 0.0982745
v -0.22037247 -0.26581284 -0.09884754
v -0.22037247 -0.16725183 0.0982745
v -0.22037247 -0.26581284 0.0982745
v -0.22037247 -0.16725183 -0.09884754
v -0.16447219 -0.09590542 0.0982745
v -0.16447219 -0.09590542 -0.09884754
v -0.16447219 0.23066989 0.0982745
v -0.16447219 0.23066989 -0.09884754
v -0.16447219 0.23066989 -0.09884754
v -0.19977763 0.25862005 -0.09884754
v -0.19977763 0.25862005 0.0982745
v -0.16447219 0.23066989 0.0982745
v -0.19977763 0.25862005 -0.09884754
v -0.19977763 0.48222116 -0.09884754
v -0.19977763 0.48222116 0.0982745
v -0.19977763 0.25862005 0.0982745
vt 0.05501136 0.008707902
vt 0.99265635 0.008707902
vt 0.99265635 0.9887977
vt 0.05501136 0.9887977
vt 0.99265635 0.008707902
vt 0.99265635 0.9887977
vt 0.99265635 0.9887977
vt 0.99265635 0.008707902
vt 0.822877 0.9887977
vt 0.822877 0.008707902
vt 0.822877 0.9887977
vt 0.822877 0.008707902
vt 0.9039081 0.9887977
vt 0.9039081 0.008707902
vt 0.9039081 0.9887977
vt 0.9039081 0.008707902
vt 0.9039081 0.008707902
vt 0.6569563 0.008707902
vt 0.6569563 0.9887977
vt 0.9039081 0.9887977
vt 0.6569563 0.008707902
vt 0.5836425 0.008707902
vt 0.5836425 0.9887977
vt 0.6569563 0.9887977
vt 0.5836425 0.008707902
vt 0.16691138 0.008707902
vt 0.16691138 0.9887977
vt 0.5836425 0.9887977
vt 0.16691138 0.008707902
vt 0.012566524 0.008707902
vt 0.012566524 0.9887977
vt 0.16691138 0.9887977
vt 0.012566524 0.008707902
vt 0.012566524 0.008707902
vt 0.012566524 0.9887977
vt 0.012566524 0.9887977
vt 0.012566524 0.008707902
vt 0.012566524 0.9887977
vt 0.012566524 0.9887977
vt 0.012566524 0.008707902
vt 0.124466546 0.9887977
vt 0.124466546 0.008707902
vt 0.124466546 0.9887977
vt 0.124466546 0.008707902
vt 0.124466546 0.008707902
vt 0.05501136 0.008707902
vt 0.05501136 0.9887977
vt 0.124466546 0.9887977
vt 0.05501136 0.008707902
vt 0.05501136 0.008707902
vt 0.05501136 0.9887977
vt 0.05501136 0.9887977
vn -0.015871048 0.999874 -0.00034526698
vn -0.015871048 0.999874 -0.00034526698
vn -0.015871048 0.999874 -0.00034526698
vn -0.015871048 0.999874 -0.00034526698
vn 0.999874 0.015871048 -0.00034391563
vn 0.9363899 -0.30154932 -0.1795603
vn 0.999874 0.015871048 -0.00034391563
vn 0.9363899 -0.30154932 -0.1795603
vn 0.9363899 -0.30154932 -0.1795603
vn 0.9363899 -0.30154932 -0.1795603
vn 0.9363899 0.30154932 -0.1795603
vn 0.9363899 0.30154932 -0.1795603
vn 0.9363899 0.30154932 -0.1795603
vn 0.9363899 0.30154932 -0.1795603
vn 0.999874 0.015871048 -0.00034391563
vn 0.999874 0.015871048 -0.00034391563
vn 0.015870988 -0.999874 -0.00034526698
vn 0.015870988 -0.999874 -0.00034526698
vn 0.015870988 -0.999874 -0.00034526698
vn 0.015870988 -0.999874 -0.00034526698
vn -0.67501354 -0.73780537 -0
vn -0.67501354 -0.73780537 -0
vn -0.67501354 -0.73780537 -0
vn -0.67501354 -0.73780537 -0
vn -0.015871048 -0.999874 -0.00034526698
vn -0.015871048 -0.999874 -0.00034526698
vn -0.015871048 -0.999874 -0.00034526698
vn -0.015871048 -0.999874 -0.00034526698
vn 0.7141957 -0.68245363 -0.15550417
vn 0.7141957 -0.68245363 -0.15550417
vn 0.7141957 -0.68245363 -0.15550417
vn 0.7141957 -0.68245363 -0.15550417
vn 0.015870988 0.999874 -0.00034526698
vn 0.015870988 0.999874 -0.00034526698
vn 0.015870988 0.999874 -0.00034526698
vn 0.015870988 0.999874 -0.00034526698
vn -0.999874 -0.015870988 -0.00034665503
vn -0.9363899 0.3332913 -0.10995822
vn -0.999874 -0.015870988 -0.00034665503
vn -0.9363899 0.3332913 -0.10995822
vn -0.9363899 0.3332913 -0.10995822
vn -0.9363899 0.3332913 -0.10995822
vn -0.999874 0.015871048 -0.00034391563
vn -0.999874 0.015871048 -0.00034391563
vn -0.6189697 -0.7776798 -0.10995764
vn -0.6189697 -0.7776798 -0.10995764
vn -0.6189697 -0.7776798 -0.10995764
vn -0.6189697 -0.7776798 -0.10995764
vn -0.999874 -0.015870988 -0.00034665503
vn -0.999874 -0.015870988 -0.00034665503
vn -0.999874 -0.015870988 -0.00034665503
vn -0.999874 -0.015870988 -0.00034665503
g tb_wall_02_mesh_0
f 3/3/3 2/2/2 1/1/1
f 4/4/4 3/3/3 1/1/1
f 7/7/7 6/6/6 5/5/5
f 6/6/6 8/8/8 5/5/5
f 6/6/6 9/9/9 8/8/8
f 9/9/9 10/10/10 8/8/8
f 9/9/9 11/11/11 10/10/10
f 11/11/11 12/12/12 10/10/10
f 11/11/11 13/13/13 12/12/12
f 13/13/13 14/14/14 12/12/12
f 13/13/13 15/15/15 14/14/14
f 15/15/15 16/16/16 14/14/14
f 19/19/19 18/18/18 17/17/17
f 20/20/20 19/19/19 17/17/17
f 23/23/23 22/22/22 21/21/21
f 24/24/24 23/23/23 21/21/21
f 27/27/27 26/26/26 25/25/25
f 28/28/28 27/27/27 25/25/25
f 31/31/31 30/30/30 29/29/29
f 32/32/32 31/31/31 29/29/29
f 35/35/35 34/34/34 33/33/33
f 36/36/36 35/35/35 33/33/33
f 39/39/39 38/38/38 37/37/37
f 38/38/38 40/40/40 37/37/37
f 38/38/38 41/41/41 40/40/40
f 41/41/41 42/42/42 40/40/40
f 41/41/41 43/43/43 42/42/42
f 43/43/43 44/44/44 42/42/42
f 47/47/47 46/46/46 45/45/45
f 48/48/48 47/47/47 45/45/45
f 51/51/51 50/50/50 49/49/49
f 52/52/52 51/51/51 49/49/49
