g tb_wall_13_mesh
v -0.18094839 0.22227193 -0.09864497
v 0.06171754 0.22271155 0.09874092
v -0.18094839 0.22227193 0.09874092
v 0.06171754 0.22271155 -0.09864497
v 0.22701173 0.0877506 0.09874092
v 0.22701173 0.0877506 -0.09864497
v 0.22701173 0.0877506 -0.09864497
v 0.22701173 -0.10040341 -0.09864497
v 0.22701173 -0.10040341 0.09874092
v 0.22701173 0.0877506 0.09874092
v 0.22701173 -0.10040341 -0.09864497
v 0.15667377 -0.10040341 0.09874092
v 0.22701173 -0.10040341 0.09874092
v 0.15667377 -0.10040341 -0.09864497
v 0.08062087 -0.060398698 0.09874092
v 0.08062087 -0.060398698 -0.09864497
v -0.045987442 -0.060398698 0.09874092
v -0.045987442 -0.060398698 -0.09864497
v -0.045987442 -0.060398698 -0.09864497
v -0.045987442 -0.12765938 -0.09864497
v -0.045987442 -0.12765938 0.09874092
v -0.045987442 -0.060398698 0.09874092
v -0.045987442 -0.12765938 -0.09864497
v -0.14885668 -0.12765938 -0.09864497
v -0.14885668 -0.12765938 0.09874092
v -0.045987442 -0.12765938 0.09874092
v -0.14885668 -0.12765938 -0.09864497
v -0.14885668 0.006422356 0.09874092
v -0.14885668 -0.12765938 0.09874092
v -0.14885668 0.006422356 -0.09864497
v -0.18094839 0.09038828 0.09874092
v -0.18094839 0.09038828 -0.09864497
v -0.18094839 0.22227193 0.09874092
v -0.18094839 0.22227193 -0.09864497
vt 0.016548779 0.004957117
vt 0.59613186 0.98638445
vt 0.016548779 0.98638445
vt 0.59613186 0.004957117
vt 0.9902484 0.98638445
vt 0.9902484 0.004957117
vt 0.9902484 0.004957117
vt 0.9902484 0.004957117
vt 0.9902484 0.98638445
vt 0.9902484 0.98638445
vt 0.9902484 0.004957117
vt 0.8241012 0.98638445
vt 0.9902484 0.98638445
vt 0.8241012 0.004957117
vt 0.6424985 0.98638445
vt 0.6424985 0.004957117
vt 0.3372514 0.98638445
vt 0.3372514 0.004957117
vt 0.3372514 0.004957117
vt 0.3372514 0.004957117
vt 0.3372514 0.98638445
vt 0.3372514 0.98638445
vt 0.3372514 0.004957117
vt 0.09382652 0.004957117
vt 0.09382652 0.98638445
vt 0.3372514 0.98638445
vt 0.09382652 0.004957117
vt 0.09382652 0.98638445
vt 0.09382652 0.98638445
vt 0.09382652 0.004957117
vt 0.016548779 0.98638445
vt 0.016548779 0.004957117
vt 0.016548779 0.98638445
vt 0.016548779 0.004957117
vn -0.015871048 0.999874 -0.00034526698
vn 0.33329135 0.9363899 -0.10995791
vn -0.015871048 0.999874 -0.00034526698
vn 0.33329135 0.9363899 -0.10995791
vn 0.6189696 0.7776798 -0.10995791
vn 0.6189696 0.7776798 -0.10995791
vn 0.999874 0.015871048 -0.00034391563
vn 0.999874 0.015871048 -0.00034391563
vn 0.999874 0.015871048 -0.00034391563
vn 0.999874 0.015871048 -0.00034391563
vn -0.015871048 -0.999874 -0.00034526698
vn -0.23806524 -0.96813196 -0.07775256
vn -0.015871048 -0.999874 -0.00034526698
vn -0.23806524 -0.96813196 -0.07775256
vn -0.23806524 -0.96813196 -0.07775256
vn -0.23806524 -0.96813196 -0.07775256
vn -0.015871048 -0.999874 -0.00034526698
vn -0.015871048 -0.999874 -0.00034526698
vn 0.999874 0.015871048 -0.00034391563
vn 0.999874 0.015871048 -0.00034391563
vn 0.999874 0.015871048 -0.00034391563
vn 0.999874 0.015871048 -0.00034391563
vn -0.015871048 -0.999874 -0.00034526698
vn -0.015871048 -0.999874 -0.00034526698
vn -0.015871048 -0.999874 -0.00034526698
vn -0.015871048 -0.999874 -0.00034526698
vn -0.999874 0.015871048 -0.00034391563
vn -0.968132 -0.17458117 -0.17956011
vn -0.999874 0.015871048 -0.00034391563
vn -0.968132 -0.17458117 -0.17956011
vn -0.968132 -0.17458117 -0.17956011
vn -0.968132 -0.17458117 -0.17956011
vn -0.999874 0.015871048 -0.00034391563
vn -0.999874 0.015871048 -0.00034391563
g tb_wall_13_mesh_0
f 3/3/3 2/2/2 1/1/1
f 2/2/2 4/4/4 1/1/1
f 2/2/2 5/5/5 4/4/4
f 5/5/5 6/6/6 4/4/4
f 9/9/9 8/8/8 7/7/7
f 10/10/10 9/9/9 7/7/7
f 13/13/13 12/12/12 11/11/11
f 12/12/12 14/14/14 11/11/11
f 12/12/12 15/15/15 14/14/14
f 15/15/15 16/16/16 14/14/14
f 15/15/15 17/17/17 16/16/16
f 17/17/17 18/18/18 16/16/16
f 21/21/21 20/20/20 19/19/19
f 22/22/22 21/21/21 19/19/19
f 25/25/25 24/24/24 23/23/23
f 26/26/26 25/25/25 23/23/23
f 29/29/29 28/28/28 27/27/27
f 28/28/28 30/30/30 27/27/27
f 28/28/28 31/31/31 30/30/30
f 31/31/31 32/32/32 30/30/30
f 31/31/31 33/33/33 32/32/32
f 33/33/33 34/34/34 32/32/32
