g tournament_collider_2v2_player_p2c1
v 5.7228065 4.2145767 -2.2876835
v 5.7228065 4.2145767 -0.22313946
v 1.9550478 4.2145767 -0.22313946
v 5.300735 4.2145767 -2.6577432
v 1.9447535 4.2145767 -0.29130837
v 1.8521036 4.2145767 -0.54450715
v 1.7285706 4.2145767 -0.7879675
v 1.5535655 4.2145767 -1.0022126
v 1.347677 4.2145767 -1.2067194
v 1.1006109 4.2145767 -1.3722725
v 0.83295596 4.2145767 -1.5086102
v 0.55500656 4.2145767 -1.6059943
v 0.27705714 4.2145767 -1.6741632
v 0.18440735 4.2145767 -1.6741632
v 0.18440735 4.2145767 -2.6577432
vt 0.3761168 0.30062848
vt 0.3761168 0.49515608
vt 0.5445138 0.49515608
vt 0.4022474 0.25417414
vt 0.5445138 0.4893493
vt 0.5503206 0.46612212
vt 0.553224 0.44289494
vt 0.56193423 0.42257115
vt 0.5706444 0.4022474
vt 0.582258 0.3877304
vt 0.5938716 0.3761168
vt 0.60548514 0.36450323
vt 0.62000215 0.35869643
vt 0.62290555 0.35869643
vt 0.62290555 0.25417414
vn -0 1 0
vn -0 1 0
vn -0 1 0
vn -0 1 0
vn -0 1 0
vn -0 1 0
vn -0 1 0
vn -0 1 0
vn -0 1 0
vn -0 1 0
vn -0 1 0
vn -0 1 0
vn -0 1 0
vn -0 1 0
vn -0 1 0
g tournament_collider_2v2_player_p2c1_0
f 3/3/3 2/2/2 1/1/1
f 4/4/4 3/3/3 1/1/1
f 4/4/4 5/5/5 3/3/3
f 4/4/4 6/6/6 5/5/5
f 4/4/4 7/7/7 6/6/6
f 4/4/4 8/8/8 7/7/7
f 4/4/4 9/9/9 8/8/8
f 4/4/4 10/10/10 9/9/9
f 4/4/4 11/11/11 10/10/10
f 4/4/4 12/12/12 11/11/11
f 4/4/4 13/13/13 12/12/12
f 4/4/4 14/14/14 13/13/13
f 4/4/4 15/15/15 14/14/14
