g tournament_collider_4v4_player_p2c1
v 6.1009665 4.2145753 1.3702527
v 6.1009665 4.2145753 0.22350894
v 3.7657824 4.2145753 0.22350894
v 3.7657824 4.2145753 1.3702527
v 6.1009665 4.2145753 2.2784739
v 3.7312722 4.2145753 1.5996014
v 5.6408315 4.2145753 2.7004755
v 3.6507487 4.2145753 1.8014283
v 3.5127084 4.2145753 2.067473
v 3.3056476 4.2145753 2.3059957
v 3.064077 4.2145753 2.5169966
v 2.7189758 4.2145753 2.7004755
v 2.7994995 4.2145753 2.6637797
vt 0.37708062 0.40011516
vt 0.37708062 0.49609238
vt 0.4193106 0.49609238
vt 0.43850604 0.37708062
vt 0.37708062 0.30029884
vt 0.44234514 0.36172426
vt 0.40395424 0.25422978
vt 0.44234514 0.34636793
vt 0.45002332 0.3156552
vt 0.45002332 0.30029884
vt 0.4538624 0.2849425
vt 0.4577015 0.25422978
vt 0.4538624 0.26958615
vn -0 1 0
vn -0 1 0
vn -0 1 0
vn -0 1 0
vn -0 1 0
vn -0 1 0
vn -0 1 0
vn -0 1 0
vn -0 1 0
vn -0 1 0
vn -0 1 0
vn -0 1 0
vn -0 1 0
g tournament_collider_4v4_player_p2c1_0
f 12/12/12 11/11/11 13/13/13
f 12/12/12 7/7/7 11/11/11
f 7/7/7 10/10/10 11/11/11
f 7/7/7 9/9/9 10/10/10
f 7/7/7 8/8/8 9/9/9
f 7/7/7 6/6/6 8/8/8
f 7/7/7 5/5/5 6/6/6
f 5/5/5 4/4/4 6/6/6
f 5/5/5 1/1/1 4/4/4
f 1/1/1 3/3/3 4/4/4
f 1/1/1 2/2/2 3/3/3
