g tournament_border_mesh
v 1.2976167 0.021813214 1.6202822
v 1.3026805 0.021813214 1.6202822
v 1.3077443 0.021813214 1.6202822
v 1.312808 0.021813214 1.6202822
v 1.3178719 0.021813214 1.6202822
v 1.3229357 0.021813214 1.6202822
v 1.3279995 0.021813214 1.6202822
v 1.3330634 0.021813214 1.6202822
v 1.3381271 0.021813214 1.6202822
v 1.3431909 0.021813214 1.6202822
v 1.3482547 0.021813214 1.6202822
v 1.2976167 0.021813214 1.2962258
v 1.3026805 0.021813214 1.2962258
v 1.3077443 0.021813214 1.2962258
v 1.312808 0.021813214 1.2962258
v 1.3178719 0.021813214 1.2962258
v 1.3229357 0.021813214 1.2962258
v 1.3279995 0.021813214 1.2962258
v 1.3330634 0.021813214 1.2962258
v 1.3381271 0.021813214 1.2962258
v 1.3431909 0.021813214 1.2962258
v 1.3482547 0.021813214 1.2962258
v 1.2976167 0.021813214 0.97216934
v 1.3026805 0.021813214 0.97216934
v 1.3077443 0.021813214 0.97216934
v 1.312808 0.021813214 0.97216934
v 1.3178719 0.021813214 0.97216934
v 1.3229357 0.021813214 0.97216934
v 1.3279995 0.021813214 0.97216934
v 1.3330634 0.021813214 0.97216934
v 1.3381271 0.021813214 0.97216934
v 1.3431909 0.021813214 0.97216934
v 1.3482547 0.021813214 0.97216934
v 1.2976167 0.021813214 0.64811283
v 1.3026805 0.021813214 0.64811283
v 1.3077443 0.021813214 0.64811283
v 1.312808 0.021813214 0.64811283
v 1.3178719 0.021813214 0.64811283
v 1.3229357 0.021813214 0.64811283
v 1.3279995 0.021813214 0.64811283
v 1.3330634 0.021813214 0.64811283
v 1.3381271 0.021813214 0.64811283
v 1.3431909 0.021813214 0.64811283
v 1.3482547 0.021813214 0.64811283
v 1.2976167 0.021813214 0.32405642
v 1.3026805 0.021813214 0.32405642
v 1.3077443 0.021813214 0.32405642
v 1.312808 0.021813214 0.32405642
v 1.3178719 0.021813214 0.32405642
v 1.3229357 0.021813214 0.32405642
v 1.3279995 0.021813214 0.32405642
v 1.3330634 0.021813214 0.32405642
v 1.3381271 0.021813214 0.32405642
v 1.3431909 0.021813214 0.32405642
v 1.3482547 0.021813214 0.32405642
v 1.2976167 0.021813214 9.313226E-09
v 1.3026805 0.021813214 9.313226E-09
v 1.3077443 0.021813214 9.313226E-09
v 1.312808 0.021813214 9.313226E-09
v 1.3178719 0.021813214 9.313226E-09
v 1.3229357 0.021813214 9.313226E-09
v 1.3279995 0.021813214 9.313226E-09
v 1.3330634 0.021813214 9.313226E-09
v 1.3381271 0.021813214 9.313226E-09
v 1.3431909 0.021813214 9.313226E-09
v 1.3482547 0.021813214 9.313226E-09
v 1.2976167 0.021813214 -0.32405654
v 1.3026805 0.021813214 -0.32405654
v 1.3077443 0.021813214 -0.32405654
v 1.312808 0.021813214 -0.32405654
v 1.3178719 0.021813214 -0.32405654
v 1.3229357 0.021813214 -0.32405654
v 1.3279995 0.021813214 -0.32405654
v 1.3330634 0.021813214 -0.32405654
v 1.3381271 0.021813214 -0.32405654
v 1.3431909 0.021813214 -0.32405654
v 1.3482547 0.021813214 -0.32405654
v 1.2976167 0.021813214 -0.64811283
v 1.3026805 0.021813214 -0.64811283
v 1.3077443 0.021813214 -0.64811283
v 1.312808 0.021813214 -0.64811283
v 1.3178719 0.021813214 -0.64811283
v 1.3229357 0.021813214 -0.64811283
v 1.3279995 0.021813214 -0.64811283
v 1.3330634 0.021813214 -0.64811283
v 1.3381271 0.021813214 -0.64811283
v 1.3431909 0.021813214 -0.64811283
v 1.3482547 0.021813214 -0.64811283
v 1.2976167 0.021813214 -0.97216934
v 1.3026805 0.021813214 -0.97216934
v 1.3077443 0.021813214 -0.97216934
v 1.312808 0.021813214 -0.97216934
v 1.3178719 0.021813214 -0.97216934
v 1.3229357 0.021813214 -0.97216934
v 1.3279995 0.021813214 -0.97216934
v 1.3330634 0.021813214 -0.97216934
v 1.3381271 0.021813214 -0.97216934
v 1.3431909 0.021813214 -0.97216934
v 1.3482547 0.021813214 -0.97216934
v 1.2976167 0.021813214 -1.2962259
v 1.3026805 0.021813214 -1.2962259
v 1.3077443 0.021813214 -1.2962259
v 1.312808 0.021813214 -1.2962259
v 1.3178719 0.021813214 -1.2962259
v 1.3229357 0.021813214 -1.2962259
v 1.3279995 0.021813214 -1.2962259
v 1.3330634 0.021813214 -1.2962259
v 1.3381271 0.021813214 -1.2962259
v 1.3431909 0.021813214 -1.2962259
v 1.3482547 0.021813214 -1.2962259
v 1.2976167 0.021813214 -1.6202822
v 1.3026805 0.021813214 -1.6202822
v 1.3077443 0.021813214 -1.6202822
v 1.312808 0.021813214 -1.6202822
v 1.3178719 0.021813214 -1.6202822
v 1.3229357 0.021813214 -1.6202822
v 1.3279995 0.021813214 -1.6202822
v 1.3330634 0.021813214 -1.6202822
v 1.3381271 0.021813214 -1.6202822
v 1.3431909 0.021813214 -1.6202822
v 1.3482547 0.021813214 -1.6202822
v -1.3456316 0.02181381 1.6202999
v -1.3405715 0.02181381 1.6202999
v -1.3355116 0.02181381 1.6202999
v -1.3304516 0.02181381 1.6202999
v -1.3253915 0.02181381 1.6202999
v -1.3203316 0.02181381 1.6202999
v -1.3152716 0.02181381 1.6202999
v -1.3102115 0.02181381 1.6202999
v -1.3051516 0.02181381 1.6202999
v -1.3000916 0.02181381 1.6202999
v -1.2950315 0.02181381 1.6202999
v -1.3456316 0.02181381 1.29624
v -1.3405715 0.02181381 1.29624
v -1.3355116 0.02181381 1.29624
v -1.3304516 0.02181381 1.29624
v -1.3253915 0.02181381 1.29624
v -1.3203316 0.02181381 1.29624
v -1.3152716 0.02181381 1.29624
v -1.3102115 0.02181381 1.29624
v -1.3051516 0.02181381 1.29624
v -1.3000916 0.02181381 1.29624
v -1.2950315 0.02181381 1.29624
v -1.3456316 0.02181381 0.97218
v -1.3405715 0.02181381 0.97218
v -1.3355116 0.02181381 0.97218
v -1.3304516 0.02181381 0.97218
v -1.3253915 0.02181381 0.97218
v -1.3203316 0.02181381 0.97218
v -1.3152716 0.02181381 0.97218
v -1.3102115 0.02181381 0.97218
v -1.3051516 0.02181381 0.97218
v -1.3000916 0.02181381 0.97218
v -1.2950315 0.02181381 0.97218
v -1.3456316 0.02181381 0.6481199
v -1.3405715 0.02181381 0.6481199
v -1.3355116 0.02181381 0.6481199
v -1.3304516 0.02181381 0.6481199
v -1.3253915 0.02181381 0.6481199
v -1.3203316 0.02181381 0.6481199
v -1.3152716 0.02181381 0.6481199
v -1.3102115 0.02181381 0.6481199
v -1.3051516 0.02181381 0.6481199
v -1.3000916 0.02181381 0.6481199
v -1.2950315 0.02181381 0.6481199
v -1.3456316 0.02181381 0.32405996
v -1.3405715 0.02181381 0.32405996
v -1.3355116 0.02181381 0.32405996
v -1.3304516 0.02181381 0.32405996
v -1.3253915 0.02181381 0.32405996
v -1.3203316 0.02181381 0.32405996
v -1.3152716 0.02181381 0.32405996
v -1.3102115 0.02181381 0.32405996
v -1.3051516 0.02181381 0.32405996
v -1.3000916 0.02181381 0.32405996
v -1.2950315 0.02181381 0.32405996
v -1.3456316 0.02181381 9.313226E-09
v -1.3405715 0.02181381 9.313226E-09
v -1.3355116 0.02181381 9.313226E-09
v -1.3304516 0.02181381 9.313226E-09
v -1.3253915 0.02181381 9.313226E-09
v -1.3203316 0.02181381 9.313226E-09
v -1.3152716 0.02181381 9.313226E-09
v -1.3102115 0.02181381 9.313226E-09
v -1.3051516 0.02181381 9.313226E-09
v -1.3000916 0.02181381 9.313226E-09
v -1.2950315 0.02181381 9.313226E-09
v -1.3456316 0.02181381 -0.32406008
v -1.3405715 0.02181381 -0.32406008
v -1.3355116 0.02181381 -0.32406008
v -1.3304516 0.02181381 -0.32406008
v -1.3253915 0.02181381 -0.32406008
v -1.3203316 0.02181381 -0.32406008
v -1.3152716 0.02181381 -0.32406008
v -1.3102115 0.02181381 -0.32406008
v -1.3051516 0.02181381 -0.32406008
v -1.3000916 0.02181381 -0.32406008
v -1.2950315 0.02181381 -0.32406008
v -1.3456316 0.02181381 -0.6481199
v -1.3405715 0.02181381 -0.6481199
v -1.3355116 0.02181381 -0.6481199
v -1.3304516 0.02181381 -0.6481199
v -1.3253915 0.02181381 -0.6481199
v -1.3203316 0.02181381 -0.6481199
v -1.3152716 0.02181381 -0.6481199
v -1.3102115 0.02181381 -0.6481199
v -1.3051516 0.02181381 -0.6481199
v -1.3000916 0.02181381 -0.6481199
v -1.2950315 0.02181381 -0.6481199
v -1.3456316 0.02181381 -0.97218
v -1.3405715 0.02181381 -0.97218
v -1.3355116 0.02181381 -0.97218
v -1.3304516 0.02181381 -0.97218
v -1.3253915 0.02181381 -0.97218
v -1.3203316 0.02181381 -0.97218
v -1.3152716 0.02181381 -0.97218
v -1.3102115 0.02181381 -0.97218
v -1.3051516 0.02181381 -0.97218
v -1.3000916 0.02181381 -0.97218
v -1.2950315 0.02181381 -0.97218
v -1.3456316 0.02181381 -1.2962401
v -1.3405715 0.02181381 -1.2962401
v -1.3355116 0.02181381 -1.2962401
v -1.3304516 0.02181381 -1.2962401
v -1.3253915 0.02181381 -1.2962401
v -1.3203316 0.02181381 -1.2962401
v -1.3152716 0.02181381 -1.2962401
v -1.3102115 0.02181381 -1.2962401
v -1.3051516 0.02181381 -1.2962401
v -1.3000916 0.02181381 -1.2962401
v -1.2950315 0.02181381 -1.2962401
v -1.3456316 0.02181381 -1.6202999
v -1.3405715 0.02181381 -1.6202999
v -1.3355116 0.02181381 -1.6202999
v -1.3304516 0.02181381 -1.6202999
v -1.3253915 0.02181381 -1.6202999
v -1.3203316 0.02181381 -1.6202999
v -1.3152716 0.02181381 -1.6202999
v -1.3102115 0.02181381 -1.6202999
v -1.3051516 0.02181381 -1.6202999
v -1.3000916 0.02181381 -1.6202999
v -1.2950315 0.02181381 -1.6202999
v -1.348918 0.02181381 -1.6679674
v -1.348918 0.02181381 -1.661671
v -1.348918 0.02181381 -1.6553745
v -1.348918 0.02181381 -1.6490781
v -1.348918 0.02181381 -1.6427816
v -1.348918 0.02181381 -1.6364852
v -1.348918 0.02181381 -1.6301887
v -1.348918 0.02181381 -1.6238923
v -1.348918 0.02181381 -1.6175958
v -1.348918 0.02181381 -1.6112994
v -1.348918 0.02181381 -1.6050029
v -1.0786135 0.02181381 -1.6679674
v -1.0786135 0.02181381 -1.6616709
v -1.0786135 0.02181381 -1.6553745
v -1.0786135 0.02181381 -1.649078
v -1.0786135 0.02181381 -1.6427816
v -1.0786135 0.02181381 -1.6364851
v -1.0786135 0.02181381 -1.6301887
v -1.0786135 0.02181381 -1.6238922
v -1.0786135 0.02181381 -1.6175958
v -1.0786135 0.02181381 -1.6112993
v -1.0786135 0.02181381 -1.6050029
v -0.808309 0.02181381 -1.6679674
v -0.808309 0.02181381 -1.6616709
v -0.808309 0.02181381 -1.6553745
v -0.808309 0.02181381 -1.649078
v -0.808309 0.02181381 -1.6427816
v -0.808309 0.02181381 -1.6364851
v -0.808309 0.02181381 -1.6301886
v -0.808309 0.02181381 -1.6238922
v -0.808309 0.02181381 -1.6175957
v -0.808309 0.02181381 -1.6112993
v -0.808309 0.02181381 -1.6050028
v -0.5380045 0.02181381 -1.6679673
v -0.5380045 0.02181381 -1.6616709
v -0.5380045 0.02181381 -1.6553744
v -0.5380045 0.02181381 -1.649078
v -0.5380045 0.02181381 -1.6427815
v -0.5380045 0.02181381 -1.6364851
v -0.5380045 0.02181381 -1.6301886
v -0.5380045 0.02181381 -1.6238922
v -0.5380045 0.02181381 -1.6175957
v -0.5380045 0.02181381 -1.6112993
v -0.5380045 0.02181381 -1.6050028
v -0.2677001 0.02181381 -1.6679673
v -0.2677001 0.02181381 -1.6616708
v -0.2677001 0.02181381 -1.6553744
v -0.2677001 0.02181381 -1.6490779
v -0.2677001 0.02181381 -1.6427815
v -0.2677001 0.02181381 -1.636485
v -0.2677001 0.02181381 -1.6301886
v -0.2677001 0.02181381 -1.6238921
v -0.2677001 0.02181381 -1.6175957
v -0.2677001 0.02181381 -1.6112992
v -0.2677001 0.02181381 -1.6050028
v 0.0026043046 0.02181381 -1.6679673
v 0.0026043039 0.02181381 -1.6616708
v 0.0026043034 0.02181381 -1.6553744
v 0.0026043027 0.02181381 -1.6490779
v 0.0026043023 0.02181381 -1.6427815
v 0.0026043016 0.02181381 -1.636485
v 0.0026043009 0.02181381 -1.6301885
v 0.0026043004 0.02181381 -1.6238921
v 0.0026042997 0.02181381 -1.6175956
v 0.0026042992 0.02181381 -1.6112992
v 0.0026042985 0.02181381 -1.6050026
v 0.2729088 0.02181381 -1.6679672
v 0.2729088 0.02181381 -1.6616708
v 0.2729088 0.02181381 -1.6553743
v 0.2729088 0.02181381 -1.6490779
v 0.2729088 0.02181381 -1.6427814
v 0.2729088 0.02181381 -1.636485
v 0.2729088 0.02181381 -1.6301885
v 0.2729088 0.02181381 -1.6238921
v 0.2729088 0.02181381 -1.6175956
v 0.2729088 0.02181381 -1.6112992
v 0.2729088 0.02181381 -1.6050026
v 0.5432131 0.02181381 -1.6679672
v 0.5432131 0.02181381 -1.6616707
v 0.5432131 0.02181381 -1.6553743
v 0.5432131 0.02181381 -1.6490778
v 0.5432131 0.02181381 -1.6427814
v 0.5432131 0.02181381 -1.6364849
v 0.5432131 0.02181381 -1.6301885
v 0.5432131 0.02181381 -1.623892
v 0.5432131 0.02181381 -1.6175956
v 0.5432131 0.02181381 -1.611299
v 0.5432131 0.02181381 -1.6050026
v 0.81351763 0.02181381 -1.6679672
v 0.81351763 0.02181381 -1.6616707
v 0.81351763 0.02181381 -1.6553743
v 0.81351763 0.02181381 -1.6490778
v 0.81351763 0.02181381 -1.6427814
v 0.81351763 0.02181381 -1.6364849
v 0.81351763 0.02181381 -1.6301883
v 0.81351763 0.02181381 -1.623892
v 0.81351763 0.02181381 -1.6175954
v 0.81351763 0.02181381 -1.611299
v 0.81351763 0.02181381 -1.6050025
v 1.0838221 0.02181381 -1.6679671
v 1.0838221 0.02181381 -1.6616707
v 1.0838221 0.02181381 -1.6553742
v 1.0838221 0.02181381 -1.6490778
v 1.0838221 0.02181381 -1.6427813
v 1.0838221 0.02181381 -1.6364849
v 1.0838221 0.02181381 -1.6301883
v 1.0838221 0.02181381 -1.623892
v 1.0838221 0.02181381 -1.6175954
v 1.0838221 0.02181381 -1.611299
v 1.0838221 0.02181381 -1.6050025
v 1.3541265 0.02181381 -1.6679671
v 1.3541265 0.02181381 -1.6616706
v 1.3541265 0.02181381 -1.6553742
v 1.3541265 0.02181381 -1.6490777
v 1.3541265 0.02181381 -1.6427813
v 1.3541265 0.02181381 -1.6364847
v 1.3541265 0.02181381 -1.6301883
v 1.3541265 0.02181381 -1.6238918
v 1.3541265 0.02181381 -1.6175954
v 1.3541265 0.02181381 -1.6112989
v 1.3541265 0.02181381 -1.6050025
v -1.3489075 0.02181381 1.5952631
v -1.3489075 0.02181381 1.6015631
v -1.3489075 0.02181381 1.6078632
v -1.3489075 0.02181381 1.6141632
v -1.3489075 0.02181381 1.6204631
v -1.3489075 0.02181381 1.6267631
v -1.3489075 0.02181381 1.6330632
v -1.3489075 0.02181381 1.6393632
v -1.3489075 0.02181381 1.6456631
v -1.3489075 0.02181381 1.6519631
v -1.3489075 0.02181381 1.6582632
v -1.0786052 0.02181381 1.5952631
v -1.0786052 0.02181381 1.6015632
v -1.0786052 0.02181381 1.6078632
v -1.0786052 0.02181381 1.6141632
v -1.0786052 0.02181381 1.6204631
v -1.0786052 0.02181381 1.6267632
v -1.0786052 0.02181381 1.6330632
v -1.0786052 0.02181381 1.6393632
v -1.0786052 0.02181381 1.6456631
v -1.0786052 0.02181381 1.6519632
v -1.0786052 0.02181381 1.6582632
v -0.80830276 0.02181381 1.5952632
v -0.80830276 0.02181381 1.6015632
v -0.80830276 0.02181381 1.6078632
v -0.80830276 0.02181381 1.6141632
v -0.80830276 0.02181381 1.6204633
v -0.80830276 0.02181381 1.6267632
v -0.80830276 0.02181381 1.6330632
v -0.80830276 0.02181381 1.6393633
v -0.80830276 0.02181381 1.6456633
v -0.80830276 0.02181381 1.6519632
v -0.80830276 0.02181381 1.6582632
v -0.53800035 0.02181381 1.5952632
v -0.53800035 0.02181381 1.6015632
v -0.53800035 0.02181381 1.6078633
v -0.53800035 0.02181381 1.6141633
v -0.53800035 0.02181381 1.6204633
v -0.53800035 0.02181381 1.6267632
v -0.53800035 0.02181381 1.6330633
v -0.53800035 0.02181381 1.6393633
v -0.53800035 0.02181381 1.6456633
v -0.53800035 0.02181381 1.6519632
v -0.53800035 0.02181381 1.6582633
v -0.26769802 0.02181381 1.5952632
v -0.26769802 0.02181381 1.6015633
v -0.26769802 0.02181381 1.6078633
v -0.26769802 0.02181381 1.6141633
v -0.26769802 0.02181381 1.6204633
v -0.26769802 0.02181381 1.6267633
v -0.26769802 0.02181381 1.6330633
v -0.26769802 0.02181381 1.6393633
v -0.26769802 0.02181381 1.6456633
v -0.26769802 0.02181381 1.6519634
v -0.26769802 0.02181381 1.6582633
v 0.0026043046 0.02181381 1.5952634
v 0.0026043039 0.02181381 1.6015633
v 0.0026043034 0.02181381 1.6078633
v 0.0026043027 0.02181381 1.6141633
v 0.0026043023 0.02181381 1.6204634
v 0.0026043016 0.02181381 1.6267633
v 0.0026043009 0.02181381 1.6330633
v 0.0026043004 0.02181381 1.6393634
v 0.0026042997 0.02181381 1.6456634
v 0.0026042992 0.02181381 1.6519634
v 0.0026042985 0.02181381 1.6582633
v 0.27290672 0.02181381 1.5952634
v 0.27290672 0.02181381 1.6015633
v 0.27290672 0.02181381 1.6078634
v 0.27290672 0.02181381 1.6141634
v 0.27290672 0.02181381 1.6204634
v 0.27290672 0.02181381 1.6267633
v 0.27290672 0.02181381 1.6330634
v 0.27290672 0.02181381 1.6393634
v 0.27290672 0.02181381 1.6456634
v 0.27290672 0.02181381 1.6519634
v 0.27290672 0.02181381 1.6582634
v 0.54320896 0.02181381 1.5952634
v 0.54320896 0.02181381 1.6015635
v 0.54320896 0.02181381 1.6078634
v 0.54320896 0.02181381 1.6141634
v 0.54320896 0.02181381 1.6204634
v 0.54320896 0.02181381 1.6267635
v 0.54320896 0.02181381 1.6330634
v 0.54320896 0.02181381 1.6393634
v 0.54320896 0.02181381 1.6456634
v 0.54320896 0.02181381 1.6519635
v 0.54320896 0.02181381 1.6582634
v 0.8135114 0.02181381 1.5952635
v 0.8135114 0.02181381 1.6015635
v 0.8135114 0.02181381 1.6078634
v 0.8135114 0.02181381 1.6141634
v 0.8135114 0.02181381 1.6204635
v 0.8135114 0.02181381 1.6267635
v 0.8135114 0.02181381 1.6330634
v 0.8135114 0.02181381 1.6393635
v 0.8135114 0.02181381 1.6456635
v 0.8135114 0.02181381 1.6519635
v 0.8135114 0.02181381 1.6582634
v 1.0838138 0.02181381 1.5952635
v 1.0838138 0.02181381 1.6015635
v 1.0838138 0.02181381 1.6078635
v 1.0838138 0.02181381 1.6141635
v 1.0838138 0.02181381 1.6204635
v 1.0838138 0.02181381 1.6267635
v 1.0838138 0.02181381 1.6330636
v 1.0838138 0.02181381 1.6393635
v 1.0838138 0.02181381 1.6456635
v 1.0838138 0.02181381 1.6519635
v 1.0838138 0.02181381 1.6582636
v 1.354116 0.02181381 1.5952635
v 1.354116 0.02181381 1.6015636
v 1.354116 0.02181381 1.6078635
v 1.354116 0.02181381 1.6141635
v 1.354116 0.02181381 1.6204635
v 1.354116 0.02181381 1.6267636
v 1.354116 0.02181381 1.6330636
v 1.354116 0.02181381 1.6393635
v 1.354116 0.02181381 1.6456635
v 1.354116 0.02181381 1.6519636
v 1.354116 0.02181381 1.6582636
vt 0 0
vt 0.1 0
vt 0.2 0
vt 0.3 0
vt 0.4 0
vt 0.5 0
vt 0.6 0
vt 0.7 0
vt 0.8 0
vt 0.90000004 0
vt 1 0
vt 0 0.1
vt 0.1 0.1
vt 0.2 0.1
vt 0.3 0.1
vt 0.4 0.1
vt 0.5 0.1
vt 0.6 0.1
vt 0.7 0.1
vt 0.8 0.1
vt 0.90000004 0.1
vt 1 0.1
vt 0 0.2
vt 0.1 0.2
vt 0.2 0.2
vt 0.3 0.2
vt 0.4 0.2
vt 0.5 0.2
vt 0.6 0.2
vt 0.7 0.2
vt 0.8 0.2
vt 0.90000004 0.2
vt 1 0.2
vt 0 0.3
vt 0.1 0.3
vt 0.2 0.3
vt 0.3 0.3
vt 0.4 0.3
vt 0.5 0.3
vt 0.6 0.3
vt 0.7 0.3
vt 0.8 0.3
vt 0.90000004 0.3
vt 1 0.3
vt 0 0.4
vt 0.1 0.4
vt 0.2 0.4
vt 0.3 0.4
vt 0.4 0.4
vt 0.5 0.4
vt 0.6 0.4
vt 0.7 0.4
vt 0.8 0.4
vt 0.90000004 0.4
vt 1 0.4
vt 0 0.5
vt 0.1 0.5
vt 0.2 0.5
vt 0.3 0.5
vt 0.4 0.5
vt 0.5 0.5
vt 0.6 0.5
vt 0.7 0.5
vt 0.8 0.5
vt 0.90000004 0.5
vt 1 0.5
vt 0 0.6
vt 0.1 0.6
vt 0.2 0.6
vt 0.3 0.6
vt 0.4 0.6
vt 0.5 0.6
vt 0.6 0.6
vt 0.7 0.6
vt 0.8 0.6
vt 0.90000004 0.6
vt 1 0.6
vt 0 0.7
vt 0.1 0.7
vt 0.2 0.7
vt 0.3 0.7
vt 0.4 0.7
vt 0.5 0.7
vt 0.6 0.7
vt 0.7 0.7
vt 0.8 0.7
vt 0.90000004 0.7
vt 1 0.7
vt 0 0.8
vt 0.1 0.8
vt 0.2 0.8
vt 0.3 0.8
vt 0.4 0.8
vt 0.5 0.8
vt 0.6 0.8
vt 0.7 0.8
vt 0.8 0.8
vt 0.90000004 0.8
vt 1 0.8
vt 0 0.90000004
vt 0.1 0.90000004
vt 0.2 0.90000004
vt 0.3 0.90000004
vt 0.4 0.90000004
vt 0.5 0.90000004
vt 0.6 0.90000004
vt 0.7 0.90000004
vt 0.8 0.90000004
vt 0.90000004 0.90000004
vt 1 0.90000004
vt 0 1
vt 0.1 1
vt 0.2 1
vt 0.3 1
vt 0.4 1
vt 0.5 1
vt 0.6 1
vt 0.7 1
vt 0.8 1
vt 0.90000004 1
vt 1 1
vt 0 0
vt 0.1 0
vt 0.2 0
vt 0.3 0
vt 0.4 0
vt 0.5 0
vt 0.6 0
vt 0.7 0
vt 0.8 0
vt 0.90000004 0
vt 1 0
vt 0 0.1
vt 0.1 0.1
vt 0.2 0.1
vt 0.3 0.1
vt 0.4 0.1
vt 0.5 0.1
vt 0.6 0.1
vt 0.7 0.1
vt 0.8 0.1
vt 0.90000004 0.1
vt 1 0.1
vt 0 0.2
vt 0.1 0.2
vt 0.2 0.2
vt 0.3 0.2
vt 0.4 0.2
vt 0.5 0.2
vt 0.6 0.2
vt 0.7 0.2
vt 0.8 0.2
vt 0.90000004 0.2
vt 1 0.2
vt 0 0.3
vt 0.1 0.3
vt 0.2 0.3
vt 0.3 0.3
vt 0.4 0.3
vt 0.5 0.3
vt 0.6 0.3
vt 0.7 0.3
vt 0.8 0.3
vt 0.90000004 0.3
vt 1 0.3
vt 0 0.4
vt 0.1 0.4
vt 0.2 0.4
vt 0.3 0.4
vt 0.4 0.4
vt 0.5 0.4
vt 0.6 0.4
vt 0.7 0.4
vt 0.8 0.4
vt 0.90000004 0.4
vt 1 0.4
vt 0 0.5
vt 0.1 0.5
vt 0.2 0.5
vt 0.3 0.5
vt 0.4 0.5
vt 0.5 0.5
vt 0.6 0.5
vt 0.7 0.5
vt 0.8 0.5
vt 0.90000004 0.5
vt 1 0.5
vt 0 0.6
vt 0.1 0.6
vt 0.2 0.6
vt 0.3 0.6
vt 0.4 0.6
vt 0.5 0.6
vt 0.6 0.6
vt 0.7 0.6
vt 0.8 0.6
vt 0.90000004 0.6
vt 1 0.6
vt 0 0.7
vt 0.1 0.7
vt 0.2 0.7
vt 0.3 0.7
vt 0.4 0.7
vt 0.5 0.7
vt 0.6 0.7
vt 0.7 0.7
vt 0.8 0.7
vt 0.90000004 0.7
vt 1 0.7
vt 0 0.8
vt 0.1 0.8
vt 0.2 0.8
vt 0.3 0.8
vt 0.4 0.8
vt 0.5 0.8
vt 0.6 0.8
vt 0.7 0.8
vt 0.8 0.8
vt 0.90000004 0.8
vt 1 0.8
vt 0 0.90000004
vt 0.1 0.90000004
vt 0.2 0.90000004
vt 0.3 0.90000004
vt 0.4 0.90000004
vt 0.5 0.90000004
vt 0.6 0.90000004
vt 0.7 0.90000004
vt 0.8 0.90000004
vt 0.90000004 0.90000004
vt 1 0.90000004
vt 0 1
vt 0.1 1
vt 0.2 1
vt 0.3 1
vt 0.4 1
vt 0.5 1
vt 0.6 1
vt 0.7 1
vt 0.8 1
vt 0.90000004 1
vt 1 1
vt 0 0
vt 0.1 0
vt 0.2 0
vt 0.3 0
vt 0.4 0
vt 0.5 0
vt 0.6 0
vt 0.7 0
vt 0.8 0
vt 0.90000004 0
vt 1 0
vt 0 0.1
vt 0.1 0.1
vt 0.2 0.1
vt 0.3 0.1
vt 0.4 0.1
vt 0.5 0.1
vt 0.6 0.1
vt 0.7 0.1
vt 0.8 0.1
vt 0.90000004 0.1
vt 1 0.1
vt 0 0.2
vt 0.1 0.2
vt 0.2 0.2
vt 0.3 0.2
vt 0.4 0.2
vt 0.5 0.2
vt 0.6 0.2
vt 0.7 0.2
vt 0.8 0.2
vt 0.90000004 0.2
vt 1 0.2
vt 0 0.3
vt 0.1 0.3
vt 0.2 0.3
vt 0.3 0.3
vt 0.4 0.3
vt 0.5 0.3
vt 0.6 0.3
vt 0.7 0.3
vt 0.8 0.3
vt 0.90000004 0.3
vt 1 0.3
vt 0 0.4
vt 0.1 0.4
vt 0.2 0.4
vt 0.3 0.4
vt 0.4 0.4
vt 0.5 0.4
vt 0.6 0.4
vt 0.7 0.4
vt 0.8 0.4
vt 0.90000004 0.4
vt 1 0.4
vt 0 0.5
vt 0.1 0.5
vt 0.2 0.5
vt 0.3 0.5
vt 0.4 0.5
vt 0.5 0.5
vt 0.6 0.5
vt 0.7 0.5
vt 0.8 0.5
vt 0.90000004 0.5
vt 1 0.5
vt 0 0.6
vt 0.1 0.6
vt 0.2 0.6
vt 0.3 0.6
vt 0.4 0.6
vt 0.5 0.6
vt 0.6 0.6
vt 0.7 0.6
vt 0.8 0.6
vt 0.90000004 0.6
vt 1 0.6
vt 0 0.7
vt 0.1 0.7
vt 0.2 0.7
vt 0.3 0.7
vt 0.4 0.7
vt 0.5 0.7
vt 0.6 0.7
vt 0.7 0.7
vt 0.8 0.7
vt 0.90000004 0.7
vt 1 0.7
vt 0 0.8
vt 0.1 0.8
vt 0.2 0.8
vt 0.3 0.8
vt 0.4 0.8
vt 0.5 0.8
vt 0.6 0.8
vt 0.7 0.8
vt 0.8 0.8
vt 0.90000004 0.8
vt 1 0.8
vt 0 0.90000004
vt 0.1 0.90000004
vt 0.2 0.90000004
vt 0.3 0.90000004
vt 0.4 0.90000004
vt 0.5 0.90000004
vt 0.6 0.90000004
vt 0.7 0.90000004
vt 0.8 0.90000004
vt 0.90000004 0.90000004
vt 1 0.90000004
vt 0 1
vt 0.1 1
vt 0.2 1
vt 0.3 1
vt 0.4 1
vt 0.5 1
vt 0.6 1
vt 0.7 1
vt 0.8 1
vt 0.90000004 1
vt 1 1
vt 0 0
vt 0.1 0
vt 0.2 0
vt 0.3 0
vt 0.4 0
vt 0.5 0
vt 0.6 0
vt 0.7 0
vt 0.8 0
vt 0.90000004 0
vt 1 0
vt 0 0.1
vt 0.1 0.1
vt 0.2 0.1
vt 0.3 0.1
vt 0.4 0.1
vt 0.5 0.1
vt 0.6 0.1
vt 0.7 0.1
vt 0.8 0.1
vt 0.90000004 0.1
vt 1 0.1
vt 0 0.2
vt 0.1 0.2
vt 0.2 0.2
vt 0.3 0.2
vt 0.4 0.2
vt 0.5 0.2
vt 0.6 0.2
vt 0.7 0.2
vt 0.8 0.2
vt 0.90000004 0.2
vt 1 0.2
vt 0 0.3
vt 0.1 0.3
vt 0.2 0.3
vt 0.3 0.3
vt 0.4 0.3
vt 0.5 0.3
vt 0.6 0.3
vt 0.7 0.3
vt 0.8 0.3
vt 0.90000004 0.3
vt 1 0.3
vt 0 0.4
vt 0.1 0.4
vt 0.2 0.4
vt 0.3 0.4
vt 0.4 0.4
vt 0.5 0.4
vt 0.6 0.4
vt 0.7 0.4
vt 0.8 0.4
vt 0.90000004 0.4
vt 1 0.4
vt 0 0.5
vt 0.1 0.5
vt 0.2 0.5
vt 0.3 0.5
vt 0.4 0.5
vt 0.5 0.5
vt 0.6 0.5
vt 0.7 0.5
vt 0.8 0.5
vt 0.90000004 0.5
vt 1 0.5
vt 0 0.6
vt 0.1 0.6
vt 0.2 0.6
vt 0.3 0.6
vt 0.4 0.6
vt 0.5 0.6
vt 0.6 0.6
vt 0.7 0.6
vt 0.8 0.6
vt 0.90000004 0.6
vt 1 0.6
vt 0 0.7
vt 0.1 0.7
vt 0.2 0.7
vt 0.3 0.7
vt 0.4 0.7
vt 0.5 0.7
vt 0.6 0.7
vt 0.7 0.7
vt 0.8 0.7
vt 0.90000004 0.7
vt 1 0.7
vt 0 0.8
vt 0.1 0.8
vt 0.2 0.8
vt 0.3 0.8
vt 0.4 0.8
vt 0.5 0.8
vt 0.6 0.8
vt 0.7 0.8
vt 0.8 0.8
vt 0.90000004 0.8
vt 1 0.8
vt 0 0.90000004
vt 0.1 0.90000004
vt 0.2 0.90000004
vt 0.3 0.90000004
vt 0.4 0.90000004
vt 0.5 0.90000004
vt 0.6 0.90000004
vt 0.7 0.90000004
vt 0.8 0.90000004
vt 0.90000004 0.90000004
vt 1 0.90000004
vt 0 1
vt 0.1 1
vt 0.2 1
vt 0.3 1
vt 0.4 1
vt 0.5 1
vt 0.6 1
vt 0.7 1
vt 0.8 1
vt 0.90000004 1
vt 1 1
vn -0 1 0
vn -0 1 0
vn -0 1 0
vn -0 1 0
vn -0 1 0
vn -0 1 0
vn -0 1 0
vn -0 1 0
vn -0 1 0
vn -0 1 0
vn -0 1 0
vn -0 1 0
vn -0 1 0
vn -0 1 0
vn -0 1 0
vn -0 1 0
vn -0 1 0
vn -0 1 0
vn -0 1 0
vn -0 1 0
vn -0 1 0
vn -0 1 0
vn -0 1 0
vn -0 1 0
vn -0 1 0
vn -0 1 0
vn -0 1 0
vn -0 1 0
vn -0 1 0
vn -0 1 0
vn -0 1 0
vn -0 1 0
vn -0 1 0
vn -0 1 0
vn -0 1 0
vn -0 1 0
vn -0 1 0
vn -0 1 0
vn -0 1 0
vn -0 1 0
vn -0 1 0
vn -0 1 0
vn -0 1 0
vn -0 1 0
vn -0 1 0
vn -0 1 0
vn -0 1 0
vn -0 1 0
vn -0 1 0
vn -0 1 0
vn -0 1 0
vn -0 1 0
vn -0 1 0
vn -0 1 0
vn -0 1 0
vn -0 1 0
vn -0 1 0
vn -0 1 0
vn -0 1 0
vn -0 1 0
vn -0 1 0
vn -0 1 0
vn -0 1 0
vn -0 1 0
vn -0 1 0
vn -0 1 0
vn -0 1 0
vn -0 1 0
vn -0 1 0
vn -0 1 0
vn -0 1 0
vn -0 1 0
vn -0 1 0
vn -0 1 0
vn -0 1 0
vn -0 1 0
vn -0 1 0
vn -0 1 0
vn -0 1 0
vn -0 1 0
vn -0 1 0
vn -0 1 0
vn -0 1 0
vn -0 1 0
vn -0 1 0
vn -0 1 0
vn -0 1 0
vn -0 1 0
vn -0 1 0
vn -0 1 0
vn -0 1 0
vn -0 1 0
vn -0 1 0
vn -0 1 0
vn -0 1 0
vn -0 1 0
vn -0 1 0
vn -0 1 0
vn -0 1 0
vn -0 1 0
vn -0 1 0
vn -0 1 0
vn -0 1 0
vn -0 1 0
vn -0 1 0
vn -0 1 0
vn -0 1 0
vn -0 1 0
vn -0 1 0
vn -0 1 0
vn -0 1 0
vn -0 1 0
vn -0 1 0
vn -0 1 0
vn -0 1 0
vn -0 1 0
vn -0 1 0
vn -0 1 0
vn -0 1 0
vn -0 1 0
vn -0 1 0
vn -0 1 0
vn -0 1 0
vn -0 1 0
vn -0 1 0
vn -0 1 0
vn -0 1 0
vn -0 1 0
vn -0 1 0
vn -0 1 0
vn -0 1 0
vn -0 1 0
vn -0 1 0
vn -0 1 0
vn -0 1 0
vn -0 1 0
vn -0 1 0
vn -0 1 0
vn -0 1 0
vn -0 1 0
vn -0 1 0
vn -0 1 0
vn -0 1 0
vn -0 1 0
vn -0 1 0
vn -0 1 0
vn -0 1 0
vn -0 1 0
vn -0 1 0
vn -0 1 0
vn -0 1 0
vn -0 1 0
vn -0 1 0
vn -0 1 0
vn -0 1 0
vn -0 1 0
vn -0 1 0
vn -0 1 0
vn -0 1 0
vn -0 1 0
vn -0 1 0
vn -0 1 0
vn -0 1 0
vn -0 1 0
vn -0 1 0
vn -0 1 0
vn -0 1 0
vn -0 1 0
vn -0 1 0
vn -0 1 0
vn -0 1 0
vn -0 1 0
vn -0 1 0
vn -0 1 0
vn -0 1 0
vn -0 1 0
vn -0 1 0
vn -0 1 0
vn -0 1 0
vn -0 1 0
vn -0 1 0
vn -0 1 0
vn -0 1 0
vn -0 1 0
vn -0 1 0
vn -0 1 0
vn -0 1 0
vn -0 1 0
vn -0 1 0
vn -0 1 0
vn -0 1 0
vn -0 1 0
vn -0 1 0
vn -0 1 0
vn -0 1 0
vn -0 1 0
vn -0 1 0
vn -0 1 0
vn -0 1 0
vn -0 1 0
vn -0 1 0
vn -0 1 0
vn -0 1 0
vn -0 1 0
vn -0 1 0
vn -0 1 0
vn -0 1 0
vn -0 1 0
vn -0 1 0
vn -0 1 0
vn -0 1 0
vn -0 1 0
vn -0 1 0
vn -0 1 0
vn -0 1 0
vn -0 1 0
vn -0 1 0
vn -0 1 0
vn -0 1 0
vn -0 1 0
vn -0 1 0
vn -0 1 0
vn -0 1 0
vn -0 1 0
vn -0 1 0
vn -0 1 0
vn -0 1 0
vn -0 1 0
vn -0 1 0
vn -0 1 0
vn -0 1 0
vn -0 1 0
vn -0 1 0
vn -0 1 0
vn -0 1 0
vn -0 1 0
vn -0 1 0
vn -0 1 0
vn -0 1 0
vn -0 1 0
vn -0 1 0
vn -0 1 0
vn -0 1 0
vn -0 1 0
vn -0 1 0
vn -0 1 0
vn -0 1 0
vn -0 1 0
vn -0 1 0
vn -0 1 0
vn -0 1 0
vn -0 1 0
vn -0 1 0
vn -0 1 0
vn -0 1 0
vn -0 1 0
vn -0 1 0
vn -0 1 0
vn -0 1 0
vn -0 1 0
vn -0 1 0
vn -0 1 0
vn -0 1 0
vn -0 1 0
vn -0 1 0
vn -0 1 0
vn -0 1 0
vn -0 1 0
vn -0 1 0
vn -0 1 0
vn -0 1 0
vn -0 1 0
vn -0 1 0
vn -0 1 0
vn -0 1 0
vn -0 1 0
vn -0 1 0
vn -0 1 0
vn -0 1 0
vn -0 1 0
vn -0 1 0
vn -0 1 0
vn -0 1 0
vn -0 1 0
vn -0 1 0
vn -0 1 0
vn -0 1 0
vn -0 1 0
vn -0 1 0
vn -0 1 0
vn -0 1 0
vn -0 1 0
vn -0 1 0
vn -0 1 0
vn -0 1 0
vn -0 1 0
vn -0 1 0
vn -0 1 0
vn -0 1 0
vn -0 1 0
vn -0 1 0
vn -0 1 0
vn -0 1 0
vn -0 1 0
vn -0 1 0
vn -0 1 0
vn -0 1 0
vn -0 1 0
vn -0 1 0
vn -0 1 0
vn -0 1 0
vn -0 1 0
vn -0 1 0
vn -0 1 0
vn -0 1 0
vn -0 1 0
vn -0 1 0
vn -0 1 0
vn -0 1 0
vn -0 1 0
vn -0 1 0
vn -0 1 0
vn -0 1 0
vn -0 1 0
vn -0 1 0
vn -0 1 0
vn -0 1 0
vn -0 1 0
vn -0 1 0
vn -0 1 0
vn -0 1 0
vn -0 1 0
vn -0 1 0
vn -0 1 0
vn -0 1 0
vn -0 1 0
vn -0 1 0
vn -0 1 0
vn -0 1 0
vn -0 1 0
vn -0 1 0
vn -0 1 0
vn -0 1 0
vn -0 1 0
vn -0 1 0
vn -0 1 0
vn -0 1 0
vn -0 1 0
vn -0 1 0
vn -0 1 0
vn -0 1 0
vn -0 1 0
vn -0 1 0
vn -0 1 0
vn -0 1 0
vn -0 1 0
vn -0 1 0
vn -0 1 0
vn -0 1 0
vn -0 1 0
vn -0 1 0
vn -0 1 0
vn -0 1 0
vn -0 1 0
vn -0 1 0
vn -0 1 0
vn -0 1 0
vn -0 1 0
vn -0 1 0
vn -0 1 0
vn -0 1 0
vn -0 1 0
vn -0 1 0
vn -0 1 0
vn -0 1 0
vn -0 1 0
vn -0 1 0
vn -0 1 0
vn -0 1 0
vn -0 1 0
vn -0 1 0
vn -0 1 0
vn -0 1 0
vn -0 1 0
vn -0 1 0
vn -0 1 0
vn -0 1 0
vn -0 1 0
vn -0 1 0
vn -0 1 0
vn -0 1 0
vn -0 1 0
vn -0 1 0
vn -0 1 0
vn -0 1 0
vn -0 1 0
vn -0 1 0
vn -0 1 0
vn -0 1 0
vn -0 1 0
vn -0 1 0
vn -0 1 0
vn -0 1 0
vn -0 1 0
vn -0 1 0
vn -0 1 0
vn -0 1 0
vn -0 1 0
vn -0 1 0
vn -0 1 0
vn -0 1 0
vn -0 1 0
vn -0 1 0
vn -0 1 0
vn -0 1 0
vn -0 1 0
vn -0 1 0
vn -0 1 0
vn -0 1 0
vn -0 1 0
vn -0 1 0
vn -0 1 0
vn -0 1 0
vn -0 1 0
vn -0 1 0
vn -0 1 0
vn -0 1 0
vn -0 1 0
vn -0 1 0
vn -0 1 0
vn -0 1 0
vn -0 1 0
vn -0 1 0
vn -0 1 0
vn -0 1 0
vn -0 1 0
vn -0 1 0
vn -0 1 0
vn -0 1 0
vn -0 1 0
vn -0 1 0
vn -0 1 0
vn -0 1 0
vn -0 1 0
vn -0 1 0
vn -0 1 0
vn -0 1 0
vn -0 1 0
vn -0 1 0
vn -0 1 0
vn -0 1 0
vn -0 1 0
vn -0 1 0
vn -0 1 0
vn -0 1 0
vn -0 1 0
vn -0 1 0
vn -0 1 0
vn -0 1 0
vn -0 1 0
vn -0 1 0
vn -0 1 0
vn -0 1 0
vn -0 1 0
vn -0 1 0
vn -0 1 0
vn -0 1 0
vn -0 1 0
vn -0 1 0
vn -0 1 0
vn -0 1 0
vn -0 1 0
vn -0 1 0
vn -0 1 0
vn -0 1 0
vn -0 1 0
vn -0 1 0
vn -0 1 0
vn -0 1 0
vn -0 1 0
vn -0 1 0
vn -0 1 0
vn -0 1 0
vn -0 1 0
g tournament_border_mesh_0
f 13/13/13 12/12/12 1/1/1
f 2/2/2 13/13/13 1/1/1
f 14/14/14 13/13/13 2/2/2
f 3/3/3 14/14/14 2/2/2
f 15/15/15 14/14/14 3/3/3
f 4/4/4 15/15/15 3/3/3
f 16/16/16 15/15/15 4/4/4
f 5/5/5 16/16/16 4/4/4
f 17/17/17 16/16/16 5/5/5
f 6/6/6 17/17/17 5/5/5
f 18/18/18 17/17/17 6/6/6
f 7/7/7 18/18/18 6/6/6
f 19/19/19 18/18/18 7/7/7
f 8/8/8 19/19/19 7/7/7
f 20/20/20 19/19/19 8/8/8
f 9/9/9 20/20/20 8/8/8
f 21/21/21 20/20/20 9/9/9
f 10/10/10 21/21/21 9/9/9
f 22/22/22 21/21/21 10/10/10
f 11/11/11 22/22/22 10/10/10
f 16/16/16 27/27/27 15/15/15
f 28/28/28 27/27/27 16/16/16
f 17/17/17 28/28/28 16/16/16
f 29/29/29 28/28/28 17/17/17
f 18/18/18 29/29/29 17/17/17
f 30/30/30 29/29/29 18/18/18
f 19/19/19 30/30/30 18/18/18
f 31/31/31 30/30/30 19/19/19
f 20/20/20 31/31/31 19/19/19
f 32/32/32 31/31/31 20/20/20
f 21/21/21 32/32/32 20/20/20
f 33/33/33 32/32/32 21/21/21
f 22/22/22 33/33/33 21/21/21
f 28/28/28 39/39/39 27/27/27
f 39/39/39 38/38/38 27/27/27
f 27/27/27 38/38/38 26/26/26
f 27/27/27 26/26/26 15/15/15
f 15/15/15 26/26/26 14/14/14
f 26/26/26 25/25/25 14/14/14
f 14/14/14 25/25/25 13/13/13
f 25/25/25 24/24/24 13/13/13
f 13/13/13 24/24/24 12/12/12
f 24/24/24 23/23/23 12/12/12
f 24/24/24 35/35/35 23/23/23
f 35/35/35 34/34/34 23/23/23
f 36/36/36 35/35/35 24/24/24
f 25/25/25 36/36/36 24/24/24
f 37/37/37 36/36/36 25/25/25
f 26/26/26 37/37/37 25/25/25
f 38/38/38 37/37/37 26/26/26
f 33/33/33 44/44/44 32/32/32
f 35/35/35 46/46/46 34/34/34
f 46/46/46 45/45/45 34/34/34
f 47/47/47 46/46/46 35/35/35
f 36/36/36 47/47/47 35/35/35
f 48/48/48 47/47/47 36/36/36
f 37/37/37 48/48/48 36/36/36
f 49/49/49 48/48/48 37/37/37
f 38/38/38 49/49/49 37/37/37
f 50/50/50 49/49/49 38/38/38
f 39/39/39 50/50/50 38/38/38
f 51/51/51 50/50/50 39/39/39
f 40/40/40 51/51/51 39/39/39
f 40/40/40 39/39/39 28/28/28
f 29/29/29 40/40/40 28/28/28
f 41/41/41 40/40/40 29/29/29
f 30/30/30 41/41/41 29/29/29
f 42/42/42 41/41/41 30/30/30
f 31/31/31 42/42/42 30/30/30
f 43/43/43 42/42/42 31/31/31
f 32/32/32 43/43/43 31/31/31
f 44/44/44 43/43/43 32/32/32
f 52/52/52 51/51/51 40/40/40
f 41/41/41 52/52/52 40/40/40
f 53/53/53 52/52/52 41/41/41
f 42/42/42 53/53/53 41/41/41
f 54/54/54 53/53/53 42/42/42
f 43/43/43 54/54/54 42/42/42
f 55/55/55 54/54/54 43/43/43
f 44/44/44 55/55/55 43/43/43
f 52/52/52 63/63/63 51/51/51
f 63/63/63 62/62/62 51/51/51
f 64/64/64 63/63/63 52/52/52
f 53/53/53 64/64/64 52/52/52
f 65/65/65 64/64/64 53/53/53
f 54/54/54 65/65/65 53/53/53
f 66/66/66 65/65/65 54/54/54
f 55/55/55 66/66/66 54/54/54
f 63/63/63 74/74/74 62/62/62
f 74/74/74 73/73/73 62/62/62
f 62/62/62 73/73/73 61/61/61
f 62/62/62 61/61/61 50/50/50
f 50/50/50 61/61/61 49/49/49
f 61/61/61 60/60/60 49/49/49
f 49/49/49 60/60/60 48/48/48
f 60/60/60 59/59/59 48/48/48
f 48/48/48 59/59/59 47/47/47
f 59/59/59 58/58/58 47/47/47
f 47/47/47 58/58/58 46/46/46
f 58/58/58 57/57/57 46/46/46
f 46/46/46 57/57/57 45/45/45
f 57/57/57 56/56/56 45/45/45
f 57/57/57 68/68/68 56/56/56
f 68/68/68 67/67/67 56/56/56
f 69/69/69 68/68/68 57/57/57
f 58/58/58 69/69/69 57/57/57
f 70/70/70 69/69/69 58/58/58
f 59/59/59 70/70/70 58/58/58
f 71/71/71 70/70/70 59/59/59
f 60/60/60 71/71/71 59/59/59
f 72/72/72 71/71/71 60/60/60
f 61/61/61 72/72/72 60/60/60
f 73/73/73 72/72/72 61/61/61
f 68/68/68 79/79/79 67/67/67
f 79/79/79 78/78/78 67/67/67
f 80/80/80 79/79/79 68/68/68
f 69/69/69 80/80/80 68/68/68
f 81/81/81 80/80/80 69/69/69
f 70/70/70 81/81/81 69/69/69
f 82/82/82 81/81/81 70/70/70
f 71/71/71 82/82/82 70/70/70
f 83/83/83 82/82/82 71/71/71
f 72/72/72 83/83/83 71/71/71
f 84/84/84 83/83/83 72/72/72
f 73/73/73 84/84/84 72/72/72
f 85/85/85 84/84/84 73/73/73
f 74/74/74 85/85/85 73/73/73
f 86/86/86 85/85/85 74/74/74
f 75/75/75 86/86/86 74/74/74
f 75/75/75 74/74/74 63/63/63
f 64/64/64 75/75/75 63/63/63
f 76/76/76 75/75/75 64/64/64
f 65/65/65 76/76/76 64/64/64
f 77/77/77 76/76/76 65/65/65
f 66/66/66 77/77/77 65/65/65
f 87/87/87 86/86/86 75/75/75
f 76/76/76 87/87/87 75/75/75
f 88/88/88 87/87/87 76/76/76
f 77/77/77 88/88/88 76/76/76
f 82/82/82 93/93/93 81/81/81
f 94/94/94 93/93/93 82/82/82
f 83/83/83 94/94/94 82/82/82
f 95/95/95 94/94/94 83/83/83
f 84/84/84 95/95/95 83/83/83
f 96/96/96 95/95/95 84/84/84
f 85/85/85 96/96/96 84/84/84
f 97/97/97 96/96/96 85/85/85
f 86/86/86 97/97/97 85/85/85
f 98/98/98 97/97/97 86/86/86
f 87/87/87 98/98/98 86/86/86
f 99/99/99 98/98/98 87/87/87
f 88/88/88 99/99/99 87/87/87
f 94/94/94 105/105/105 93/93/93
f 105/105/105 104/104/104 93/93/93
f 93/93/93 104/104/104 92/92/92
f 93/93/93 92/92/92 81/81/81
f 81/81/81 92/92/92 80/80/80
f 92/92/92 91/91/91 80/80/80
f 80/80/80 91/91/91 79/79/79
f 91/91/91 90/90/90 79/79/79
f 79/79/79 90/90/90 78/78/78
f 90/90/90 89/89/89 78/78/78
f 90/90/90 101/101/101 89/89/89
f 101/101/101 100/100/100 89/89/89
f 102/102/102 101/101/101 90/90/90
f 91/91/91 102/102/102 90/90/90
f 103/103/103 102/102/102 91/91/91
f 92/92/92 103/103/103 91/91/91
f 104/104/104 103/103/103 92/92/92
f 99/99/99 110/110/110 98/98/98
f 101/101/101 112/112/112 100/100/100
f 112/112/112 111/111/111 100/100/100
f 113/113/113 112/112/112 101/101/101
f 102/102/102 113/113/113 101/101/101
f 114/114/114 113/113/113 102/102/102
f 103/103/103 114/114/114 102/102/102
f 115/115/115 114/114/114 103/103/103
f 104/104/104 115/115/115 103/103/103
f 116/116/116 115/115/115 104/104/104
f 105/105/105 116/116/116 104/104/104
f 117/117/117 116/116/116 105/105/105
f 106/106/106 117/117/117 105/105/105
f 106/106/106 105/105/105 94/94/94
f 95/95/95 106/106/106 94/94/94
f 107/107/107 106/106/106 95/95/95
f 96/96/96 107/107/107 95/95/95
f 108/108/108 107/107/107 96/96/96
f 97/97/97 108/108/108 96/96/96
f 109/109/109 108/108/108 97/97/97
f 98/98/98 109/109/109 97/97/97
f 110/110/110 109/109/109 98/98/98
f 118/118/118 117/117/117 106/106/106
f 107/107/107 118/118/118 106/106/106
f 119/119/119 118/118/118 107/107/107
f 108/108/108 119/119/119 107/107/107
f 120/120/120 119/119/119 108/108/108
f 109/109/109 120/120/120 108/108/108
f 121/121/121 120/120/120 109/109/109
f 110/110/110 121/121/121 109/109/109
f 51/51/51 62/62/62 50/50/50
f 134/134/134 133/133/133 122/122/122
f 123/123/123 134/134/134 122/122/122
f 135/135/135 134/134/134 123/123/123
f 124/124/124 135/135/135 123/123/123
f 136/136/136 135/135/135 124/124/124
f 125/125/125 136/136/136 124/124/124
f 137/137/137 136/136/136 125/125/125
f 126/126/126 137/137/137 125/125/125
f 138/138/138 137/137/137 126/126/126
f 127/127/127 138/138/138 126/126/126
f 139/139/139 138/138/138 127/127/127
f 128/128/128 139/139/139 127/127/127
f 140/140/140 139/139/139 128/128/128
f 129/129/129 140/140/140 128/128/128
f 141/141/141 140/140/140 129/129/129
f 130/130/130 141/141/141 129/129/129
f 142/142/142 141/141/141 130/130/130
f 131/131/131 142/142/142 130/130/130
f 143/143/143 142/142/142 131/131/131
f 132/132/132 143/143/143 131/131/131
f 137/137/137 148/148/148 136/136/136
f 149/149/149 148/148/148 137/137/137
f 138/138/138 149/149/149 137/137/137
f 150/150/150 149/149/149 138/138/138
f 139/139/139 150/150/150 138/138/138
f 151/151/151 150/150/150 139/139/139
f 140/140/140 151/151/151 139/139/139
f 152/152/152 151/151/151 140/140/140
f 141/141/141 152/152/152 140/140/140
f 153/153/153 152/152/152 141/141/141
f 142/142/142 153/153/153 141/141/141
f 154/154/154 153/153/153 142/142/142
f 143/143/143 154/154/154 142/142/142
f 149/149/149 160/160/160 148/148/148
f 160/160/160 159/159/159 148/148/148
f 148/148/148 159/159/159 147/147/147
f 148/148/148 147/147/147 136/136/136
f 136/136/136 147/147/147 135/135/135
f 147/147/147 146/146/146 135/135/135
f 135/135/135 146/146/146 134/134/134
f 146/146/146 145/145/145 134/134/134
f 134/134/134 145/145/145 133/133/133
f 145/145/145 144/144/144 133/133/133
f 145/145/145 156/156/156 144/144/144
f 156/156/156 155/155/155 144/144/144
f 157/157/157 156/156/156 145/145/145
f 146/146/146 157/157/157 145/145/145
f 158/158/158 157/157/157 146/146/146
f 147/147/147 158/158/158 146/146/146
f 159/159/159 158/158/158 147/147/147
f 154/154/154 165/165/165 153/153/153
f 156/156/156 167/167/167 155/155/155
f 167/167/167 166/166/166 155/155/155
f 168/168/168 167/167/167 156/156/156
f 157/157/157 168/168/168 156/156/156
f 169/169/169 168/168/168 157/157/157
f 158/158/158 169/169/169 157/157/157
f 170/170/170 169/169/169 158/158/158
f 159/159/159 170/170/170 158/158/158
f 171/171/171 170/170/170 159/159/159
f 160/160/160 171/171/171 159/159/159
f 172/172/172 171/171/171 160/160/160
f 161/161/161 172/172/172 160/160/160
f 161/161/161 160/160/160 149/149/149
f 150/150/150 161/161/161 149/149/149
f 162/162/162 161/161/161 150/150/150
f 151/151/151 162/162/162 150/150/150
f 163/163/163 162/162/162 151/151/151
f 152/152/152 163/163/163 151/151/151
f 164/164/164 163/163/163 152/152/152
f 153/153/153 164/164/164 152/152/152
f 165/165/165 164/164/164 153/153/153
f 173/173/173 172/172/172 161/161/161
f 162/162/162 173/173/173 161/161/161
f 174/174/174 173/173/173 162/162/162
f 163/163/163 174/174/174 162/162/162
f 175/175/175 174/174/174 163/163/163
f 164/164/164 175/175/175 163/163/163
f 176/176/176 175/175/175 164/164/164
f 165/165/165 176/176/176 164/164/164
f 173/173/173 184/184/184 172/172/172
f 184/184/184 183/183/183 172/172/172
f 185/185/185 184/184/184 173/173/173
f 174/174/174 185/185/185 173/173/173
f 186/186/186 185/185/185 174/174/174
f 175/175/175 186/186/186 174/174/174
f 187/187/187 186/186/186 175/175/175
f 176/176/176 187/187/187 175/175/175
f 184/184/184 195/195/195 183/183/183
f 195/195/195 194/194/194 183/183/183
f 183/183/183 194/194/194 182/182/182
f 183/183/183 182/182/182 171/171/171
f 171/171/171 182/182/182 170/170/170
f 182/182/182 181/181/181 170/170/170
f 170/170/170 181/181/181 169/169/169
f 181/181/181 180/180/180 169/169/169
f 169/169/169 180/180/180 168/168/168
f 180/180/180 179/179/179 168/168/168
f 168/168/168 179/179/179 167/167/167
f 179/179/179 178/178/178 167/167/167
f 167/167/167 178/178/178 166/166/166
f 178/178/178 177/177/177 166/166/166
f 178/178/178 189/189/189 177/177/177
f 189/189/189 188/188/188 177/177/177
f 190/190/190 189/189/189 178/178/178
f 179/179/179 190/190/190 178/178/178
f 191/191/191 190/190/190 179/179/179
f 180/180/180 191/191/191 179/179/179
f 192/192/192 191/191/191 180/180/180
f 181/181/181 192/192/192 180/180/180
f 193/193/193 192/192/192 181/181/181
f 182/182/182 193/193/193 181/181/181
f 194/194/194 193/193/193 182/182/182
f 189/189/189 200/200/200 188/188/188
f 200/200/200 199/199/199 188/188/188
f 201/201/201 200/200/200 189/189/189
f 190/190/190 201/201/201 189/189/189
f 202/202/202 201/201/201 190/190/190
f 191/191/191 202/202/202 190/190/190
f 203/203/203 202/202/202 191/191/191
f 192/192/192 203/203/203 191/191/191
f 204/204/204 203/203/203 192/192/192
f 193/193/193 204/204/204 192/192/192
f 205/205/205 204/204/204 193/193/193
f 194/194/194 205/205/205 193/193/193
f 206/206/206 205/205/205 194/194/194
f 195/195/195 206/206/206 194/194/194
f 207/207/207 206/206/206 195/195/195
f 196/196/196 207/207/207 195/195/195
f 196/196/196 195/195/195 184/184/184
f 185/185/185 196/196/196 184/184/184
f 197/197/197 196/196/196 185/185/185
f 186/186/186 197/197/197 185/185/185
f 198/198/198 197/197/197 186/186/186
f 187/187/187 198/198/198 186/186/186
f 208/208/208 207/207/207 196/196/196
f 197/197/197 208/208/208 196/196/196
f 209/209/209 208/208/208 197/197/197
f 198/198/198 209/209/209 197/197/197
f 203/203/203 214/214/214 202/202/202
f 215/215/215 214/214/214 203/203/203
f 204/204/204 215/215/215 203/203/203
f 216/216/216 215/215/215 204/204/204
f 205/205/205 216/216/216 204/204/204
f 217/217/217 216/216/216 205/205/205
f 206/206/206 217/217/217 205/205/205
f 218/218/218 217/217/217 206/206/206
f 207/207/207 218/218/218 206/206/206
f 219/219/219 218/218/218 207/207/207
f 208/208/208 219/219/219 207/207/207
f 220/220/220 219/219/219 208/208/208
f 209/209/209 220/220/220 208/208/208
f 215/215/215 226/226/226 214/214/214
f 226/226/226 225/225/225 214/214/214
f 214/214/214 225/225/225 213/213/213
f 214/214/214 213/213/213 202/202/202
f 202/202/202 213/213/213 201/201/201
f 213/213/213 212/212/212 201/201/201
f 201/201/201 212/212/212 200/200/200
f 212/212/212 211/211/211 200/200/200
f 200/200/200 211/211/211 199/199/199
f 211/211/211 210/210/210 199/199/199
f 211/211/211 222/222/222 210/210/210
f 222/222/222 221/221/221 210/210/210
f 223/223/223 222/222/222 211/211/211
f 212/212/212 223/223/223 211/211/211
f 224/224/224 223/223/223 212/212/212
f 213/213/213 224/224/224 212/212/212
f 225/225/225 224/224/224 213/213/213
f 220/220/220 231/231/231 219/219/219
f 222/222/222 233/233/233 221/221/221
f 233/233/233 232/232/232 221/221/221
f 234/234/234 233/233/233 222/222/222
f 223/223/223 234/234/234 222/222/222
f 235/235/235 234/234/234 223/223/223
f 224/224/224 235/235/235 223/223/223
f 236/236/236 235/235/235 224/224/224
f 225/225/225 236/236/236 224/224/224
f 237/237/237 236/236/236 225/225/225
f 226/226/226 237/237/237 225/225/225
f 238/238/238 237/237/237 226/226/226
f 227/227/227 238/238/238 226/226/226
f 227/227/227 226/226/226 215/215/215
f 216/216/216 227/227/227 215/215/215
f 228/228/228 227/227/227 216/216/216
f 217/217/217 228/228/228 216/216/216
f 229/229/229 228/228/228 217/217/217
f 218/218/218 229/229/229 217/217/217
f 230/230/230 229/229/229 218/218/218
f 219/219/219 230/230/230 218/218/218
f 231/231/231 230/230/230 219/219/219
f 239/239/239 238/238/238 227/227/227
f 228/228/228 239/239/239 227/227/227
f 240/240/240 239/239/239 228/228/228
f 229/229/229 240/240/240 228/228/228
f 241/241/241 240/240/240 229/229/229
f 230/230/230 241/241/241 229/229/229
f 242/242/242 241/241/241 230/230/230
f 231/231/231 242/242/242 230/230/230
f 172/172/172 183/183/183 171/171/171
f 255/255/255 254/254/254 243/243/243
f 244/244/244 255/255/255 243/243/243
f 256/256/256 255/255/255 244/244/244
f 245/245/245 256/256/256 244/244/244
f 257/257/257 256/256/256 245/245/245
f 246/246/246 257/257/257 245/245/245
f 258/258/258 257/257/257 246/246/246
f 247/247/247 258/258/258 246/246/246
f 259/259/259 258/258/258 247/247/247
f 248/248/248 259/259/259 247/247/247
f 260/260/260 259/259/259 248/248/248
f 249/249/249 260/260/260 248/248/248
f 261/261/261 260/260/260 249/249/249
f 250/250/250 261/261/261 249/249/249
f 262/262/262 261/261/261 250/250/250
f 251/251/251 262/262/262 250/250/250
f 263/263/263 262/262/262 251/251/251
f 252/252/252 263/263/263 251/251/251
f 264/264/264 263/263/263 252/252/252
f 253/253/253 264/264/264 252/252/252
f 258/258/258 269/269/269 257/257/257
f 270/270/270 269/269/269 258/258/258
f 259/259/259 270/270/270 258/258/258
f 271/271/271 270/270/270 259/259/259
f 260/260/260 271/271/271 259/259/259
f 272/272/272 271/271/271 260/260/260
f 261/261/261 272/272/272 260/260/260
f 273/273/273 272/272/272 261/261/261
f 262/262/262 273/273/273 261/261/261
f 274/274/274 273/273/273 262/262/262
f 263/263/263 274/274/274 262/262/262
f 275/275/275 274/274/274 263/263/263
f 264/264/264 275/275/275 263/263/263
f 270/270/270 281/281/281 269/269/269
f 281/281/281 280/280/280 269/269/269
f 269/269/269 280/280/280 268/268/268
f 269/269/269 268/268/268 257/257/257
f 257/257/257 268/268/268 256/256/256
f 268/268/268 267/267/267 256/256/256
f 256/256/256 267/267/267 255/255/255
f 267/267/267 266/266/266 255/255/255
f 255/255/255 266/266/266 254/254/254
f 266/266/266 265/265/265 254/254/254
f 266/266/266 277/277/277 265/265/265
f 277/277/277 276/276/276 265/265/265
f 278/278/278 277/277/277 266/266/266
f 267/267/267 278/278/278 266/266/266
f 279/279/279 278/278/278 267/267/267
f 268/268/268 279/279/279 267/267/267
f 280/280/280 279/279/279 268/268/268
f 275/275/275 286/286/286 274/274/274
f 277/277/277 288/288/288 276/276/276
f 288/288/288 287/287/287 276/276/276
f 289/289/289 288/288/288 277/277/277
f 278/278/278 289/289/289 277/277/277
f 290/290/290 289/289/289 278/278/278
f 279/279/279 290/290/290 278/278/278
f 291/291/291 290/290/290 279/279/279
f 280/280/280 291/291/291 279/279/279
f 292/292/292 291/291/291 280/280/280
f 281/281/281 292/292/292 280/280/280
f 293/293/293 292/292/292 281/281/281
f 282/282/282 293/293/293 281/281/281
f 282/282/282 281/281/281 270/270/270
f 271/271/271 282/282/282 270/270/270
f 283/283/283 282/282/282 271/271/271
f 272/272/272 283/283/283 271/271/271
f 284/284/284 283/283/283 272/272/272
f 273/273/273 284/284/284 272/272/272
f 285/285/285 284/284/284 273/273/273
f 274/274/274 285/285/285 273/273/273
f 286/286/286 285/285/285 274/274/274
f 294/294/294 293/293/293 282/282/282
f 283/283/283 294/294/294 282/282/282
f 295/295/295 294/294/294 283/283/283
f 284/284/284 295/295/295 283/283/283
f 296/296/296 295/295/295 284/284/284
f 285/285/285 296/296/296 284/284/284
f 297/297/297 296/296/296 285/285/285
f 286/286/286 297/297/297 285/285/285
f 294/294/294 305/305/305 293/293/293
f 305/305/305 304/304/304 293/293/293
f 306/306/306 305/305/305 294/294/294
f 295/295/295 306/306/306 294/294/294
f 307/307/307 306/306/306 295/295/295
f 296/296/296 307/307/307 295/295/295
f 308/308/308 307/307/307 296/296/296
f 297/297/297 308/308/308 296/296/296
f 305/305/305 316/316/316 304/304/304
f 316/316/316 315/315/315 304/304/304
f 304/304/304 315/315/315 303/303/303
f 304/304/304 303/303/303 292/292/292
f 292/292/292 303/303/303 291/291/291
f 303/303/303 302/302/302 291/291/291
f 291/291/291 302/302/302 290/290/290
f 302/302/302 301/301/301 290/290/290
f 290/290/290 301/301/301 289/289/289
f 301/301/301 300/300/300 289/289/289
f 289/289/289 300/300/300 288/288/288
f 300/300/300 299/299/299 288/288/288
f 288/288/288 299/299/299 287/287/287
f 299/299/299 298/298/298 287/287/287
f 299/299/299 310/310/310 298/298/298
f 310/310/310 309/309/309 298/298/298
f 311/311/311 310/310/310 299/299/299
f 300/300/300 311/311/311 299/299/299
f 312/312/312 311/311/311 300/300/300
f 301/301/301 312/312/312 300/300/300
f 313/313/313 312/312/312 301/301/301
f 302/302/302 313/313/313 301/301/301
f 314/314/314 313/313/313 302/302/302
f 303/303/303 314/314/314 302/302/302
f 315/315/315 314/314/314 303/303/303
f 310/310/310 321/321/321 309/309/309
f 321/321/321 320/320/320 309/309/309
f 322/322/322 321/321/321 310/310/310
f 311/311/311 322/322/322 310/310/310
f 323/323/323 322/322/322 311/311/311
f 312/312/312 323/323/323 311/311/311
f 324/324/324 323/323/323 312/312/312
f 313/313/313 324/324/324 312/312/312
f 325/325/325 324/324/324 313/313/313
f 314/314/314 325/325/325 313/313/313
f 326/326/326 325/325/325 314/314/314
f 315/315/315 326/326/326 314/314/314
f 327/327/327 326/326/326 315/315/315
f 316/316/316 327/327/327 315/315/315
f 328/328/328 327/327/327 316/316/316
f 317/317/317 328/328/328 316/316/316
f 317/317/317 316/316/316 305/305/305
f 306/306/306 317/317/317 305/305/305
f 318/318/318 317/317/317 306/306/306
f 307/307/307 318/318/318 306/306/306
f 319/319/319 318/318/318 307/307/307
f 308/308/308 319/319/319 307/307/307
f 329/329/329 328/328/328 317/317/317
f 318/318/318 329/329/329 317/317/317
f 330/330/330 329/329/329 318/318/318
f 319/319/319 330/330/330 318/318/318
f 324/324/324 335/335/335 323/323/323
f 336/336/336 335/335/335 324/324/324
f 325/325/325 336/336/336 324/324/324
f 337/337/337 336/336/336 325/325/325
f 326/326/326 337/337/337 325/325/325
f 338/338/338 337/337/337 326/326/326
f 327/327/327 338/338/338 326/326/326
f 339/339/339 338/338/338 327/327/327
f 328/328/328 339/339/339 327/327/327
f 340/340/340 339/339/339 328/328/328
f 329/329/329 340/340/340 328/328/328
f 341/341/341 340/340/340 329/329/329
f 330/330/330 341/341/341 329/329/329
f 336/336/336 347/347/347 335/335/335
f 347/347/347 346/346/346 335/335/335
f 335/335/335 346/346/346 334/334/334
f 335/335/335 334/334/334 323/323/323
f 323/323/323 334/334/334 322/322/322
f 334/334/334 333/333/333 322/322/322
f 322/322/322 333/333/333 321/321/321
f 333/333/333 332/332/332 321/321/321
f 321/321/321 332/332/332 320/320/320
f 332/332/332 331/331/331 320/320/320
f 332/332/332 343/343/343 331/331/331
f 343/343/343 342/342/342 331/331/331
f 344/344/344 343/343/343 332/332/332
f 333/333/333 344/344/344 332/332/332
f 345/345/345 344/344/344 333/333/333
f 334/334/334 345/345/345 333/333/333
f 346/346/346 345/345/345 334/334/334
f 341/341/341 352/352/352 340/340/340
f 343/343/343 354/354/354 342/342/342
f 354/354/354 353/353/353 342/342/342
f 355/355/355 354/354/354 343/343/343
f 344/344/344 355/355/355 343/343/343
f 356/356/356 355/355/355 344/344/344
f 345/345/345 356/356/356 344/344/344
f 357/357/357 356/356/356 345/345/345
f 346/346/346 357/357/357 345/345/345
f 358/358/358 357/357/357 346/346/346
f 347/347/347 358/358/358 346/346/346
f 359/359/359 358/358/358 347/347/347
f 348/348/348 359/359/359 347/347/347
f 348/348/348 347/347/347 336/336/336
f 337/337/337 348/348/348 336/336/336
f 349/349/349 348/348/348 337/337/337
f 338/338/338 349/349/349 337/337/337
f 350/350/350 349/349/349 338/338/338
f 339/339/339 350/350/350 338/338/338
f 351/351/351 350/350/350 339/339/339
f 340/340/340 351/351/351 339/339/339
f 352/352/352 351/351/351 340/340/340
f 360/360/360 359/359/359 348/348/348
f 349/349/349 360/360/360 348/348/348
f 361/361/361 360/360/360 349/349/349
f 350/350/350 361/361/361 349/349/349
f 362/362/362 361/361/361 350/350/350
f 351/351/351 362/362/362 350/350/350
f 363/363/363 362/362/362 351/351/351
f 352/352/352 363/363/363 351/351/351
f 293/293/293 304/304/304 292/292/292
f 376/376/376 375/375/375 364/364/364
f 365/365/365 376/376/376 364/364/364
f 377/377/377 376/376/376 365/365/365
f 366/366/366 377/377/377 365/365/365
f 378/378/378 377/377/377 366/366/366
f 367/367/367 378/378/378 366/366/366
f 379/379/379 378/378/378 367/367/367
f 368/368/368 379/379/379 367/367/367
f 380/380/380 379/379/379 368/368/368
f 369/369/369 380/380/380 368/368/368
f 381/381/381 380/380/380 369/369/369
f 370/370/370 381/381/381 369/369/369
f 382/382/382 381/381/381 370/370/370
f 371/371/371 382/382/382 370/370/370
f 383/383/383 382/382/382 371/371/371
f 372/372/372 383/383/383 371/371/371
f 384/384/384 383/383/383 372/372/372
f 373/373/373 384/384/384 372/372/372
f 385/385/385 384/384/384 373/373/373
f 374/374/374 385/385/385 373/373/373
f 379/379/379 390/390/390 378/378/378
f 391/391/391 390/390/390 379/379/379
f 380/380/380 391/391/391 379/379/379
f 392/392/392 391/391/391 380/380/380
f 381/381/381 392/392/392 380/380/380
f 393/393/393 392/392/392 381/381/381
f 382/382/382 393/393/393 381/381/381
f 394/394/394 393/393/393 382/382/382
f 383/383/383 394/394/394 382/382/382
f 395/395/395 394/394/394 383/383/383
f 384/384/384 395/395/395 383/383/383
f 396/396/396 395/395/395 384/384/384
f 385/385/385 396/396/396 384/384/384
f 391/391/391 402/402/402 390/390/390
f 402/402/402 401/401/401 390/390/390
f 390/390/390 401/401/401 389/389/389
f 390/390/390 389/389/389 378/378/378
f 378/378/378 389/389/389 377/377/377
f 389/389/389 388/388/388 377/377/377
f 377/377/377 388/388/388 376/376/376
f 388/388/388 387/387/387 376/376/376
f 376/376/376 387/387/387 375/375/375
f 387/387/387 386/386/386 375/375/375
f 387/387/387 398/398/398 386/386/386
f 398/398/398 397/397/397 386/386/386
f 399/399/399 398/398/398 387/387/387
f 388/388/388 399/399/399 387/387/387
f 400/400/400 399/399/399 388/388/388
f 389/389/389 400/400/400 388/388/388
f 401/401/401 400/400/400 389/389/389
f 396/396/396 407/407/407 395/395/395
f 398/398/398 409/409/409 397/397/397
f 409/409/409 408/408/408 397/397/397
f 410/410/410 409/409/409 398/398/398
f 399/399/399 410/410/410 398/398/398
f 411/411/411 410/410/410 399/399/399
f 400/400/400 411/411/411 399/399/399
f 412/412/412 411/411/411 400/400/400
f 401/401/401 412/412/412 400/400/400
f 413/413/413 412/412/412 401/401/401
f 402/402/402 413/413/413 401/401/401
f 414/414/414 413/413/413 402/402/402
f 403/403/403 414/414/414 402/402/402
f 403/403/403 402/402/402 391/391/391
f 392/392/392 403/403/403 391/391/391
f 404/404/404 403/403/403 392/392/392
f 393/393/393 404/404/404 392/392/392
f 405/405/405 404/404/404 393/393/393
f 394/394/394 405/405/405 393/393/393
f 406/406/406 405/405/405 394/394/394
f 395/395/395 406/406/406 394/394/394
f 407/407/407 406/406/406 395/395/395
f 415/415/415 414/414/414 403/403/403
f 404/404/404 415/415/415 403/403/403
f 416/416/416 415/415/415 404/404/404
f 405/405/405 416/416/416 404/404/404
f 417/417/417 416/416/416 405/405/405
f 406/406/406 417/417/417 405/405/405
f 418/418/418 417/417/417 406/406/406
f 407/407/407 418/418/418 406/406/406
f 415/415/415 426/426/426 414/414/414
f 426/426/426 425/425/425 414/414/414
f 427/427/427 426/426/426 415/415/415
f 416/416/416 427/427/427 415/415/415
f 428/428/428 427/427/427 416/416/416
f 417/417/417 428/428/428 416/416/416
f 429/429/429 428/428/428 417/417/417
f 418/418/418 429/429/429 417/417/417
f 426/426/426 437/437/437 425/425/425
f 437/437/437 436/436/436 425/425/425
f 425/425/425 436/436/436 424/424/424
f 425/425/425 424/424/424 413/413/413
f 413/413/413 424/424/424 412/412/412
f 424/424/424 423/423/423 412/412/412
f 412/412/412 423/423/423 411/411/411
f 423/423/423 422/422/422 411/411/411
f 411/411/411 422/422/422 410/410/410
f 422/422/422 421/421/421 410/410/410
f 410/410/410 421/421/421 409/409/409
f 421/421/421 420/420/420 409/409/409
f 409/409/409 420/420/420 408/408/408
f 420/420/420 419/419/419 408/408/408
f 420/420/420 431/431/431 419/419/419
f 431/431/431 430/430/430 419/419/419
f 432/432/432 431/431/431 420/420/420
f 421/421/421 432/432/432 420/420/420
f 433/433/433 432/432/432 421/421/421
f 422/422/422 433/433/433 421/421/421
f 434/434/434 433/433/433 422/422/422
f 423/423/423 434/434/434 422/422/422
f 435/435/435 434/434/434 423/423/423
f 424/424/424 435/435/435 423/423/423
f 436/436/436 435/435/435 424/424/424
f 431/431/431 442/442/442 430/430/430
f 442/442/442 441/441/441 430/430/430
f 443/443/443 442/442/442 431/431/431
f 432/432/432 443/443/443 431/431/431
f 444/444/444 443/443/443 432/432/432
f 433/433/433 444/444/444 432/432/432
f 445/445/445 444/444/444 433/433/433
f 434/434/434 445/445/445 433/433/433
f 446/446/446 445/445/445 434/434/434
f 435/435/435 446/446/446 434/434/434
f 447/447/447 446/446/446 435/435/435
f 436/436/436 447/447/447 435/435/435
f 448/448/448 447/447/447 436/436/436
f 437/437/437 448/448/448 436/436/436
f 449/449/449 448/448/448 437/437/437
f 438/438/438 449/449/449 437/437/437
f 438/438/438 437/437/437 426/426/426
f 427/427/427 438/438/438 426/426/426
f 439/439/439 438/438/438 427/427/427
f 428/428/428 439/439/439 427/427/427
f 440/440/440 439/439/439 428/428/428
f 429/429/429 440/440/440 428/428/428
f 450/450/450 449/449/449 438/438/438
f 439/439/439 450/450/450 438/438/438
f 451/451/451 450/450/450 439/439/439
f 440/440/440 451/451/451 439/439/439
f 445/445/445 456/456/456 444/444/444
f 457/457/457 456/456/456 445/445/445
f 446/446/446 457/457/457 445/445/445
f 458/458/458 457/457/457 446/446/446
f 447/447/447 458/458/458 446/446/446
f 459/459/459 458/458/458 447/447/447
f 448/448/448 459/459/459 447/447/447
f 460/460/460 459/459/459 448/448/448
f 449/449/449 460/460/460 448/448/448
f 461/461/461 460/460/460 449/449/449
f 450/450/450 461/461/461 449/449/449
f 462/462/462 461/461/461 450/450/450
f 451/451/451 462/462/462 450/450/450
f 457/457/457 468/468/468 456/456/456
f 468/468/468 467/467/467 456/456/456
f 456/456/456 467/467/467 455/455/455
f 456/456/456 455/455/455 444/444/444
f 444/444/444 455/455/455 443/443/443
f 455/455/455 454/454/454 443/443/443
f 443/443/443 454/454/454 442/442/442
f 454/454/454 453/453/453 442/442/442
f 442/442/442 453/453/453 441/441/441
f 453/453/453 452/452/452 441/441/441
f 453/453/453 464/464/464 452/452/452
f 464/464/464 463/463/463 452/452/452
f 465/465/465 464/464/464 453/453/453
f 454/454/454 465/465/465 453/453/453
f 466/466/466 465/465/465 454/454/454
f 455/455/455 466/466/466 454/454/454
f 467/467/467 466/466/466 455/455/455
f 462/462/462 473/473/473 461/461/461
f 464/464/464 475/475/475 463/463/463
f 475/475/475 474/474/474 463/463/463
f 476/476/476 475/475/475 464/464/464
f 465/465/465 476/476/476 464/464/464
f 477/477/477 476/476/476 465/465/465
f 466/466/466 477/477/477 465/465/465
f 478/478/478 477/477/477 466/466/466
f 467/467/467 478/478/478 466/466/466
f 479/479/479 478/478/478 467/467/467
f 468/468/468 479/479/479 467/467/467
f 480/480/480 479/479/479 468/468/468
f 469/469/469 480/480/480 468/468/468
f 469/469/469 468/468/468 457/457/457
f 458/458/458 469/469/469 457/457/457
f 470/470/470 469/469/469 458/458/458
f 459/459/459 470/470/470 458/458/458
f 471/471/471 470/470/470 459/459/459
f 460/460/460 471/471/471 459/459/459
f 472/472/472 471/471/471 460/460/460
f 461/461/461 472/472/472 460/460/460
f 473/473/473 472/472/472 461/461/461
f 481/481/481 480/480/480 469/469/469
f 470/470/470 481/481/481 469/469/469
f 482/482/482 481/481/481 470/470/470
f 471/471/471 482/482/482 470/470/470
f 483/483/483 482/482/482 471/471/471
f 472/472/472 483/483/483 471/471/471
f 484/484/484 483/483/483 472/472/472
f 473/473/473 484/484/484 472/472/472
f 414/414/414 425/425/425 413/413/413
