g tournament_collider_4v4_enemy_p1c2
v -0.21923772 4.2145753 -1.6639601
v -0.21923772 4.2145753 -2.7063425
v -1.7752625 4.2145753 -2.7063425
v -2.2020576 4.2145753 -2.6425233
v -2.5488288 4.2145753 -2.5148845
v -2.877817 4.2145753 -2.3092444
v -3.126781 4.2145753 -2.0681493
v -0.32593656 4.2145753 -1.6639601
v -0.64603305 4.2145753 -1.6001408
v -3.3135037 4.2145753 -1.7986898
v -0.94834644 4.2145753 -1.5008663
v -3.3846364 4.2145753 -1.6001408
v -1.2328767 4.2145753 -1.3661366
v -3.4290943 4.2145753 -1.3732276
v -1.4818406 4.2145753 -1.1959517
v -1.6952384 4.2145753 -0.9974027
v -1.8641782 4.2145753 -0.77758056
v -1.9975517 4.2145753 -0.5364853
v -2.0775757 4.2145753 -0.28829905
v -2.0864673 4.2145753 -0.2244797
v -3.4290943 4.2145753 -0.2244797
vt 0.62290555 0.35869643
vt 0.62290555 0.25417414
vt 0.51257646 0.25417414
vt 0.50676966 0.2832081
vt 0.50386626 0.2919183
vt 0.50386626 0.30062848
vt 0.50096285 0.3151455
vt 0.62000215 0.35869643
vt 0.60548514 0.36450323
vt 0.49225268 0.34417945
vt 0.5938716 0.3761168
vt 0.4893493 0.35869643
vt 0.582258 0.3877304
vt 0.4864459 0.3761168
vt 0.5706444 0.4022474
vt 0.56193423 0.42257115
vt 0.553224 0.44289494
vt 0.5503206 0.46612212
vt 0.5445138 0.4893493
vt 0.5445138 0.49515608
vt 0.46031532 0.49515608
vn -0 1 0
vn -0 1 0
vn -0 1 0
vn -0 1 0
vn -0 1 0
vn -0 1 0
vn -0 1 0
vn -0 1 0
vn -0 1 0
vn -0 1 0
vn -0 1 0
vn -0 1 0
vn -0 1 0
vn -0 1 0
vn -0 1 0
vn -0 1 0
vn -0 1 0
vn -0 1 0
vn -0 1 0
vn -0 1 0
vn -0 1 0
g tournament_collider_4v4_enemy_p1c2_0
f 14/14/14 21/21/21 20/20/20
f 14/14/14 20/20/20 19/19/19
f 14/14/14 19/19/19 18/18/18
f 14/14/14 18/18/18 17/17/17
f 14/14/14 17/17/17 16/16/16
f 14/14/14 16/16/16 15/15/15
f 14/14/14 15/15/15 13/13/13
f 12/12/12 14/14/14 13/13/13
f 12/12/12 13/13/13 11/11/11
f 10/10/10 12/12/12 11/11/11
f 10/10/10 11/11/11 9/9/9
f 7/7/7 10/10/10 9/9/9
f 7/7/7 9/9/9 8/8/8
f 1/1/1 7/7/7 8/8/8
f 1/1/1 6/6/6 7/7/7
f 1/1/1 5/5/5 6/6/6
f 1/1/1 4/4/4 5/5/5
f 1/1/1 3/3/3 4/4/4
f 1/1/1 2/2/2 3/3/3
