g trenchwall_01_mesh
v 0.2954712 0.0020399094 -9.64582
v -0.016206741 0.101210594 -10
v 0.33797264 0.0020399094 -10
v -0.030374527 0.115377426 -9.64582
v -0.299551 0.28538418 -10
v 0.3804741 0.0020399094 -8.73912
v -0.31371784 0.32788563 -9.64582
v -0.5970621 0.55456066 -10
v -0.5403929 0.5828953 -9.64582
v -0.6253967 0.6253967 -9.64582
v -0.6678982 0.5828953 -10
v -0.73873425 0.5970621 -10
v -0.22871494 0.55456066 -8.569113
v -0.7529011 0.63956356 -9.64582
v -1.0787468 1.0504122 -10
v -0.5403929 0.7670679 -8.569113
v 0.04046154 0.24288177 -8.569113
v 0.13963223 0.20038033 -7.421571
v 0.43714333 0.0020399094 -8.441608
v -0.15787888 0.52622604 -8.569113
v -0.115377426 0.3562193 -8.569113
v -0.21454811 0.3845539 -7.421571
v -0.45538998 0.52622604 -7.421571
v -0.34205246 0.41288853 -7.421571
v -0.32788563 0.4837246 -7.421571
v -0.6678982 0.8095703 -8.569113
v -0.9512415 1.0079107 -7.421571
v -0.52622604 0.6253967 -6.8265486
v -0.7812357 0.8095703 -8.569113
v -0.17204571 0.42705536 -6.8548827
v -0.34205246 0.45538998 -6.8548827
v -0.3845539 0.5687275 -6.8265486
v 0.054629326 0.299551 -7.010722
v 0.1963005 0.22871494 -7.095725
v 0.23880291 0.1862135 -7.407403
v -0.5828953 0.7670679 -6.2315264
v -0.42705536 0.7103996 -6.2315264
v -0.9229078 0.9937439 -5.2398224
v -0.3562193 0.5687275 -6.2315264
v -1.0362453 1.2345858 -6.741545
v -1.0787468 1.0787468 -7.421571
v -1.2204189 1.0929136 -7.421571
v -1.3195887 1.3479233 -6.7557125
v -1.673769 2.0987844 -7.407403
v -1.1495829 1.3054218 -6.741545
v -1.1212482 1.2629204 -6.245693
v -1.1070814 1.1354151 -5.792343
v -1.2629204 1.3337564 -6.2598605
v -1.2062511 1.6170998 -8.569113
v -1.3337564 1.1779175 -5.6931725
v -1.1354151 1.1779175 -9.64582
v -1.1779175 1.4187593 -9.64582
v -1.1495829 1.3195887 -10
v -1.3054218 1.6312675 -9.64582
v -1.2345858 1.5320969 -10
v -1.4187593 2.056283 -8.569113
v -1.4612608 1.9854469 -9.64582
v -1.5037622 1.9854469 -10
v -1.7162704 2.7221413 -9.64582
v -1.7446051 2.6796398 -10
v -1.5604315 2.7079744 -8.569113
v -1.6879358 3.3313303 -9.64582
v -1.7304373 3.2604952 -10
v -1.4754286 3.2888288 -8.569113
v -2.3254595 4.1530285 -9.64582
v -2.3254595 4.1530285 -10
v -2.9204817 4.337201 -10
v -2.821312 4.436372 -9.54665
v -3.4163342 4.124694 -10
v -1.9146109 4.053858 -9.5041485
v -1.8579426 3.954687 -9.348309
v -1.829608 4.1530285 -9.107467
v -1.5887661 3.7705135 -8.809956
v -1.8437748 4.181362 -8.668283
v -2.9063148 4.408037 -9.164135
v -3.501337 4.1530285 -9.305807
v -1.6879358 3.742179 -8.569113
v -3.9971886 3.9971886 -9.107467
v -3.9971886 3.9971886 -10
v -3.501337 4.1530285 -9.135801
v -2.9204817 4.2238636 -8.73912
v -3.4871702 4.110526 -8.923293
v -3.9971886 3.9971886 -6.727378
v -3.3879995 4.053858 -6.727378
v -3.9971886 3.9971886 -6.2315264
v -1.7304373 3.0054855 -7.421571
v -2.9488163 4.280533 -6.727378
v -2.6088037 4.280533 -6.727378
v -3.430501 3.9971886 -6.2315264
v -3.9971886 3.9971886 -4.99898
v -2.962984 4.1530285 -6.2315264
v -3.4021664 4.0821924 -4.99898
v -3.9971886 3.9971886 -3.851437
v -2.9346495 4.337201 -4.99898
v -3.4021664 4.1388607 -3.851437
v -3.9971886 3.9971886 -2.3922162
v -2.4671316 4.2946997 -8.144097
v -2.7079744 3.9830217 -6.2315264
v -2.9488163 4.4647064 -3.851437
v -3.4163342 4.19553 -2.3922162
v -3.9971886 3.9971886 -1.1738377
v -3.0338192 4.493041 -2.3922162
v -2.056283 4.2380314 -8.427442
v -2.0279484 4.124694 -8.144097
v -1.7446051 3.0904884 -7.379069
v -2.127119 4.053858 -6.86905
v -2.3112926 3.9263525 -6.2315264
v -1.6454344 2.9913177 -6.7840466
v -1.6170998 2.9204817 -6.7840466
v -2.6088037 4.1671953 -4.99898
v -2.3396273 4.1530285 -4.99898
v -1.6596012 3.1046553 -6.2315264
v -2.6229706 4.3797035 -3.851437
v -1.6312675 3.0338192 -6.2315264
v -1.7871065 2.6938066 -7.421571
v -2.3396273 4.266366 -3.851437
v -2.892148 4.351369 -2.3922162
v -1.6454344 2.6938066 -6.7698793
v -1.7304373 2.2971258 -7.421571
v -1.5745983 2.353794 -6.8407154
v -1.5887661 2.6371384 -6.2173586
v -1.9996147 3.3738327 -4.99898
v -1.4045925 1.3762579 -6.2881947
v -1.5745983 1.1920843 -5.650671
v -2.0846176 2.821312 -4.99898
v -1.7729397 2.0987844 -4.99898
v -1.1920843 1.0362453 -4.99898
v -1.7446051 3.5296717 -3.851437
v -1.1070814 1.0362453 -5.0131474
v -0.90874004 0.9937439 -4.2622857
v -1.3762579 1.6312675 -4.418125
v -0.82373714 0.72456646 -4.99898
v -1.4612608 2.212122 -3.851437
v -1.2629204 1.6454344 -4.0639453
v -1.7304373 2.962984 -3.851437
v -1.8012733 3.359665 -2.3922162
v -0.5120592 0.7103996 -4.99898
v -0.42705536 0.682065 -4.99898
v -0.14371204 0.52622604 -6.2315264
v -0.101210594 0.5120592 -6.2315264
v 0.054629326 0.32788563 -6.2315264
v -1.7729397 2.821312 -2.3922162
v -1.8862772 3.742179 -3.851437
v -2.0987844 3.8696842 -3.851437
v 0.47964478 0.299551 -6.2315264
v -2.4529648 4.266366 -2.3922162
v -1.9429455 3.5296717 -2.3922162
v -2.665473 4.351369 -2.3922162
v -1.9287786 3.5296717 -1.1738377
v -1.829608 3.4021664 -1.1738377
v -1.829608 3.3313303 -0.63548374
v -2.0137815 3.7563467 -1.1738377
v -1.829608 2.9204817 -1.1738377
v -1.5037622 2.141286 -2.3922162
v -2.5663023 4.124694 -1.7405252
v -2.7221413 4.0821924 -1.7405252
v -2.438797 4.0821924 -1.7405252
v -2.4529648 4.03969 -1.0605001
v -2.4529648 4.0963593 -0.63548374
v -2.6088037 3.9971886 -1.0463324
v -2.7929773 4.2238636 -1.7405252
v -2.7079744 4.1530285 -1.0321655
v -3.0621538 4.3088675 -1.7405252
v -2.962984 4.2380314 -1.0038309
v -3.4446678 4.0680246 -1.457181
v -3.430501 4.025523 -1.0888338
v -3.9971886 3.9971886 -0.63548374
v -2.9063148 4.2380314 -0.63548374
v -3.4021664 4.03969 -0.63548374
v -3.9971886 3.9971886 0.0020399094
v -3.4163342 4.124694 0.0020399094
v -2.9204817 4.337201 0.0020399094
v -2.3254595 4.1530285 0.0020399094
v -1.7304373 3.2604952 0.0020399094
v -1.8154411 2.750476 -0.63548374
v -1.7446051 2.6796398 0.0020399094
v -1.5745983 2.0279484 -0.4088087
v -1.5037622 1.9854469 0.0020399094
v -1.2345858 1.5320969 0.0020399094
v -1.5320969 2.1554537 -1.1738377
v -1.2204189 1.3337564 -0.39464188
v -1.1495829 1.3195887 0.0020399094
v -1.5745983 2.0704508 -0.63548374
v -1.1779175 1.1354151 -0.63548374
v -1.1354151 1.1637497 -0.36630726
v -1.0787468 1.0504122 0.0020399094
v -1.1212482 1.0079107 -1.1738377
v -1.1354151 1.0220776 -0.63548374
v -1.1212482 1.0220776 -0.35214043
v -0.7529011 0.5403929 -0.36630726
v -0.73873425 0.5970621 0.0020399094
v -0.6678982 0.5828953 0.0020399094
v -0.682065 0.5403929 -0.35214043
v -0.5970621 0.55456066 0.0020399094
v -1.1354151 1.1212482 -3.0722413
v -1.064579 0.90874004 -1.1738377
v -1.3337564 1.6029329 -3.5114245
v -0.8095703 0.8804064 -1.1738377
v -0.9654093 0.90874004 -0.63548374
v -0.9512415 0.8804064 -0.63548374
v -0.72456646 0.85207176 -1.1738377
v -0.6962328 0.44122314 -0.7913227
v -0.5970621 0.45538998 -0.7913227
v -0.52622604 0.31371784 -1.1738377
v -0.5120592 0.3987217 -1.4146795
v -0.22871494 0.25704956 -1.3580112
v -0.44122314 0.31371784 -1.1738377
v -0.49789143 0.45538998 -0.7913227
v -0.61122894 0.52622604 -0.35214043
v -0.28538418 0.31371784 -0.4938116
v -0.299551 0.28538418 0.0020399094
v -0.016206741 0.101210594 0.0020399094
v -0.25704956 0.32788563 -0.74882126
v 0.026294708 0.115377426 -0.6213169
v 0.33797264 0.0020399094 0.0020399094
v 0.36630726 0.0020399094 -0.30963802
v 0.11129761 0.14371204 -0.7063198
v 0.4088087 0.0020399094 -0.55048084
v -0.21454811 0.28538418 -1.1738377
v 0.16796684 0.14371204 -1.1738377
v 0.39464188 0.0020399094 -1.1738377
v 0.054629326 0.14371204 -1.4146795
v -0.37038708 0.31371784 -1.1738377
v -0.20038033 0.299551 -1.2588406
v -0.21454811 0.28538418 -1.3155098
v 0.054629326 0.12954426 -1.457181
v 0.11129761 0.101210594 -1.457181
v 0.21046829 0.0020399094 -1.683856
v 0.08296299 0.115377426 -1.4855156
v 0.054629326 0.101210594 -1.5138502
v -0.41288853 0.52622604 -2.3213801
v -0.3987217 0.41288853 -2.4347177
v 0.04046154 0.07287598 -2.1088724
v 0.08296299 0.0020399094 -2.3922162
v -1.1495829 1.1212482 -3.2989168
v -0.31371784 0.28538418 -2.4347177
v -1.3479233 1.5887661 -3.624762
v -1.2487526 1.6312675 -3.7380996
v -0.9654093 1.1354151 -3.4830904
v -0.41288853 0.5970621 -3.851437
v -0.42705536 0.52622604 -3.6105947
v 0.16796684 0.22871494 -3.6814308
v -0.1862135 0.115377426 -2.3922162
v -0.3562193 0.55456066 -4.148948
v 0.21046829 0.42705536 -4.99898
v 0.13963223 0.24288177 -4.0639453
v 0.6213169 0.299551 -4.99898
v 0.7063198 0.20038033 -6.2315264
v 0.21046829 0.25704956 -3.893939
v 0.692153 0.0020399094 -4.99898
v 0.39464188 0.0020399094 -4.2339516
v 0.45131016 0.0020399094 -3.9081059
v 0.16796684 0.0020399094 -3.0580745
v 0.7204876 0.0020399094 -6.2315264
v 0.22463512 0.0020399094 -2.7180614
v 0.6779852 0.101210594 -6.4723682
v -0.016206741 0.07287598 -2.378049
v 0.026294708 0.05870819 -2.378049
v 0.15379906 0.0020399094 -2.5338883
v 0.5929823 0.22871494 -7.166561
v 0.76298904 0.04454136 -7.0532236
v 0.74882126 0.0020399094 -7.0532236
v 0.7346544 0.07287598 -7.549075
v 0.7063198 0.0020399094 -7.6624126
v 0.5646477 0.21454811 -7.393236
v 0.536314 0.101210594 -7.804085
vt 0.9542933 0.21074039
vt 0.98914737 0.2494671
vt 0.99302006 0.20686771
vt 0.9504207 0.24559443
vt 0.9852747 0.28044847
vt 0.85747653 0.20686771
vt 0.9504207 0.28432116
vt 0.9852747 0.32304788
vt 0.9504207 0.31917518
vt 0.9504207 0.32692054
vt 0.9852747 0.3307932
vt 0.98140204 0.3346659
vt 0.8419858 0.29206648
vt 0.9504207 0.33853856
vt 0.98140204 0.3888833
vt 0.8419858 0.32692054
vt 0.8419858 0.24559443
vt 0.7412964 0.23784909
vt 0.8419858 0.20686771
vt 0.8419858 0.28432116
vt 0.8419858 0.26883045
vt 0.7374237 0.2765758
vt 0.7374237 0.30755717
vt 0.7374237 0.28819382
vt 0.7374237 0.29593918
vt 0.8419858 0.34241122
vt 0.7374237 0.3733926
vt 0.6832063 0.31530252
vt 0.8458585 0.35402924
vt 0.6832063 0.27270314
vt 0.6832063 0.29206648
vt 0.6832063 0.3036845
vt 0.698697 0.2494671
vt 0.70644236 0.23397641
vt 0.7374237 0.22623107
vt 0.6251162 0.3307932
vt 0.6251162 0.31530252
vt 0.52829945 0.36564726
vt 0.6251162 0.29981184
vt 0.6715883 0.39275596
vt 0.7374237 0.3850106
vt 0.7374237 0.4005013
vt 0.6715883 0.42373732
vt 0.733551 0.5011907
vt 0.6715883 0.40437397
vt 0.6251162 0.39662862
vt 0.58251685 0.3888833
vt 0.6251162 0.41211933
vt 0.8458585 0.43922803
vt 0.5747715 0.40437397
vt 0.946548 0.4005013
vt 0.946548 0.42373732
vt 0.98140204 0.415992
vt 0.946548 0.44697335
vt 0.97752935 0.43535534
vt 0.8458585 0.48570007
vt 0.946548 0.4818274
vt 0.97752935 0.48570007
vt 0.9426753 0.5515355
vt 0.97752935 0.5476628
vt 0.8497312 0.5476628
vt 0.93880266 0.6057529
vt 0.9736567 0.5980075
vt 0.8497312 0.59413487
vt 0.9426753 0.69095165
vt 0.9736567 0.69095165
vt 0.9736567 0.74516904
vt 0.93492997 0.7412964
vt 0.97752935 0.7916411
vt 0.92331195 0.663843
vt 0.91169393 0.6560976
vt 0.8923306 0.6677156
vt 0.86909455 0.63286155
vt 0.8613492 0.6715883
vt 0.90782124 0.74904174
vt 0.91943926 0.79938644
vt 0.8497312 0.63673425
vt 0.9039486 0.8458585
vt 0.97752935 0.8419858
vt 0.9039486 0.79938644
vt 0.86909455 0.75291437
vt 0.88458526 0.80325913
vt 0.6715883 0.8497312
vt 0.6715883 0.7955138
vt 0.6289889 0.8497312
vt 0.7374237 0.58251685
vt 0.67546093 0.75291437
vt 0.67546093 0.7258057
vt 0.6289889 0.79938644
vt 0.46246403 0.8497312
vt 0.6289889 0.75291437
vt 0.46633673 0.7955138
vt 0.3617746 0.8497312
vt 0.46633673 0.74904174
vt 0.3617746 0.7955138
vt 0.23397641 0.8458585
vt 0.81874985 0.7180604
vt 0.6251162 0.7258057
vt 0.36564726 0.74516904
vt 0.23397641 0.7916411
vt 0.1255416 0.8419858
vt 0.23784909 0.74904174
vt 0.8419858 0.6832063
vt 0.81874985 0.6793336
vt 0.7296784 0.5902622
vt 0.69095165 0.6832063
vt 0.6289889 0.68707895
vt 0.67546093 0.57864416
vt 0.67546093 0.5747715
vt 0.4702094 0.7180604
vt 0.4702094 0.69095165
vt 0.6251162 0.5902622
vt 0.36564726 0.7180604
vt 0.6251162 0.58251685
vt 0.733551 0.5515355
vt 0.36564726 0.69095165
vt 0.23784909 0.733551
vt 0.67546093 0.5515355
vt 0.733551 0.51668143
vt 0.6793336 0.52055407
vt 0.6251162 0.5476628
vt 0.47795475 0.6134982
vt 0.6251162 0.42761
vt 0.57089883 0.42373732
vt 0.4818274 0.5631535
vt 0.49344543 0.4973181
vt 0.5050634 0.3850106
vt 0.3733926 0.6096255
vt 0.5050634 0.37726527
vt 0.43535534 0.3579019
vt 0.43922803 0.43535534
vt 0.5089361 0.33853856
vt 0.38113794 0.4818274
vt 0.40824664 0.42761
vt 0.37726527 0.5592808
vt 0.24172176 0.59413487
vt 0.5089361 0.30755717
vt 0.5089361 0.3036845
vt 0.62124354 0.2765758
vt 0.62124354 0.27270314
vt 0.62124354 0.25333977
vt 0.24172176 0.5437901
vt 0.36951992 0.63286155
vt 0.36951992 0.65222496
vt 0.62124354 0.21074039
vt 0.23784909 0.69482434
vt 0.23784909 0.6134982
vt 0.23784909 0.7141877
vt 0.1255416 0.6134982
vt 0.1255416 0.5980075
vt 0.07519687 0.59413487
vt 0.12941428 0.63673425
vt 0.1255416 0.5515355
vt 0.24172176 0.47408205
vt 0.17975901 0.698697
vt 0.17975901 0.7141877
vt 0.17975901 0.68707895
vt 0.11779626 0.6832063
vt 0.07132419 0.69095165
vt 0.11392359 0.698697
vt 0.17975901 0.7258057
vt 0.11392359 0.7180604
vt 0.17975901 0.75291437
vt 0.11005091 0.7412964
vt 0.15265031 0.7916411
vt 0.11779626 0.7916411
vt 0.07519687 0.8419858
vt 0.07519687 0.7374237
vt 0.07519687 0.7877684
vt 0.020979464 0.8419858
vt 0.017106792 0.7916411
vt 0.01323412 0.7412964
vt 0.01323412 0.6832063
vt 0.01323412 0.58251685
vt 0.07519687 0.5360448
vt 0.01323412 0.52829945
vt 0.051960837 0.46633673
vt 0.01323412 0.45859137
vt 0.01323412 0.40824664
vt 0.1255416 0.47408205
vt 0.051960837 0.3888833
vt 0.009361448 0.3850106
vt 0.07519687 0.4702094
vt 0.07519687 0.36951992
vt 0.048088163 0.36951992
vt 0.009361448 0.3579019
vt 0.1255416 0.3579019
vt 0.07519687 0.3579019
vt 0.048088163 0.3579019
vt 0.048088163 0.29593918
vt 0.009361448 0.29593918
vt 0.009361448 0.28819382
vt 0.048088163 0.28819382
vt 0.009361448 0.28044847
vt 0.30755717 0.36951992
vt 0.1255416 0.35015658
vt 0.35015658 0.42373732
vt 0.12941428 0.32692054
vt 0.07519687 0.33853856
vt 0.07519687 0.3346659
vt 0.12941428 0.31917518
vt 0.09068755 0.28432116
vt 0.09068755 0.2765758
vt 0.1255416 0.2649578
vt 0.15265031 0.26883045
vt 0.14877763 0.23784909
vt 0.12941428 0.25721246
vt 0.08681488 0.2649578
vt 0.044215493 0.28044847
vt 0.05970618 0.24172176
vt 0.009361448 0.23784909
vt 0.009361448 0.20299505
vt 0.08681488 0.23784909
vt 0.07519687 0.20299505
vt 0.01323412 0.16426833
vt 0.044215493 0.16426833
vt 0.08294221 0.19524969
vt 0.07132419 0.16039565
vt 0.12941428 0.23784909
vt 0.13328695 0.19524969
vt 0.13328695 0.16814099
vt 0.15652297 0.20686771
vt 0.12941428 0.2494671
vt 0.13715962 0.23397641
vt 0.14490497 0.23784909
vt 0.16039565 0.20686771
vt 0.16039565 0.19912237
vt 0.18750435 0.19137703
vt 0.16426833 0.20299505
vt 0.16814099 0.20686771
vt 0.24172176 0.2765758
vt 0.25721246 0.26883045
vt 0.22623107 0.21074039
vt 0.25721246 0.20299505
vt 0.3307932 0.3733926
vt 0.25721246 0.25333977
vt 0.3617746 0.42373732
vt 0.3733926 0.42373732
vt 0.35402924 0.36564726
vt 0.39662862 0.28819382
vt 0.3733926 0.28432116
vt 0.3850106 0.21848573
vt 0.25721246 0.23010375
vt 0.42761 0.28432116
vt 0.51668143 0.23784909
vt 0.42373732 0.22623107
vt 0.52055407 0.19912237
vt 0.6173709 0.18750435
vt 0.40824664 0.21848573
vt 0.51668143 0.16814099
vt 0.43922803 0.19137703
vt 0.40824664 0.18750435
vt 0.32304788 0.20299505
vt 0.62124354 0.16814099
vt 0.29206648 0.19137703
vt 0.6444796 0.17975901
vt 0.25333977 0.21461305
vt 0.25333977 0.21074039
vt 0.25721246 0.20299505
vt 0.7141877 0.19524969
vt 0.70256966 0.16814099
vt 0.70256966 0.16426833
vt 0.75291437 0.17588633
vt 0.7645324 0.17201367
vt 0.7374237 0.19524969
vt 0.7761504 0.19524969
vn 0.42788476 0.9033408 -0.029833145
vn 0.42788476 0.9033408 -0.029833145
vn 0.3011014 0.93503666 0.18720143
vn 0.4595806 0.871645 -0.17035471
vn 0.6180599 0.77655745 -0.12231323
vn 0.49100214 0.8711583 -0
vn 0.6180599 0.77655745 -0.12231323
vn 0.6497557 0.7448616 -0.15165319
vn 0.6180599 0.77655745 -0.12231323
vn 0.2377097 0.9667325 -0.09445813
vn 0.26940554 0.93503666 -0.23049319
vn 0.7377968 0.67502296 -0
vn 0.6180599 0.77655745 -0.12231323
vn 0.7765391 0.61807823 -0.122336864
vn 0.8399308 0.5229906 -0.14490399
vn 0.6180599 0.77655745 -0.12231323
vn 0.49100214 0.8711583 -0
vn 0.45344636 0.8912835 -0
vn 0.49100214 0.8711583 -0
vn 0.7131474 0.6814699 -0.16437627
vn 0.7765391 0.61807823 0.122336864
vn 0.42788476 0.9033408 -0.029833145
vn 0.64171284 0.766945 -0
vn 0.7377968 0.67502296 -0
vn 0.74484324 0.6497741 0.15166478
vn 0.2377097 0.9667325 -0.09445813
vn 0.64171284 0.766945 -0
vn 0.675004 0.73781407 -0
vn 0.80823493 0.5863824 0.05396281
vn 0.3011014 0.93503666 -0.18720143
vn 0.55105096 0.8344715 -0
vn 0.675004 0.73781407 -0
vn 0.5229723 0.83994913 -0.14486347
vn 0.2060138 0.9667325 -0.1516133
vn 0.015838742 0.99842834 -0.053758636
vn 0.6180599 0.77655745 -0.12231323
vn 0.74484324 0.6497741 0.15166478
vn 0.68145156 0.71316576 0.16437265
vn 0.45344636 0.8912835 -0
vn 0.68145156 0.71316576 -0.16437265
vn 0.26940554 0.93503666 -0.23049319
vn 0.8711461 0.4910239 -0
vn 0.93170375 0.3632192 -0
vn 0.93170375 0.3632192 -0
vn 0.33279723 0.93503666 -0.12228009
vn 0.64171284 0.766945 -0
vn 0.49100214 0.8711583 -0
vn 0.26940554 0.93503666 0.23049319
vn 0.89127254 0.45346808 -0
vn 0.2060138 0.9667325 0.1516133
vn 0.8711461 0.4910239 -0
vn 0.9350183 0.33281553 -0.12237073
vn 0.95475477 0.29739448 -0
vn 0.89127254 0.45346808 -0
vn 0.8716266 0.4595989 -0.17039922
vn 0.95475477 0.29739448 -0
vn 0.9350183 0.33281553 -0.12237073
vn 0.9207471 0.3901599 -0
vn 0.99388266 0.11044154 -0
vn 0.96671414 0.17433631 -0.18727155
vn 0.9968646 0.07912613 -0
vn 0.96671414 0.17433631 -0.18727155
vn 0.9350183 0.33281553 -0.12237073
vn 0.99841 0.047552943 -0.030269476
vn 0.6180599 0.7448616 -0.25136265
vn 0.6497557 0.7448616 -0.15165319
vn -0.14264047 0.9667325 -0.21232516
vn -0.047552943 0.99842834 -0.02965781
vn -0.33281553 0.93503666 -0.122230366
vn 0.49127644 0.6497741 -0.58003545
vn 0.9350183 0.26942384 -0.23054622
vn 0.49100214 0.8711583 -0
vn 0.9350183 0.3011197 -0.18726371
vn 0.42788476 0.9033408 0.029833145
vn -0.11094463 0.9667325 0.23047677
vn -0.33281553 0.93503666 -0.122230366
vn 0.90332246 0.3962072 0.16440311
vn -0.17200826 0.9850955 -0
vn -0.26846436 0.96328974 -0
vn -0.36321303 0.9317062 -0
vn -0.237728 0.9667325 0.09441206
vn -0.237728 0.9667325 0.09441206
vn -0.14142899 0.98994845 -0
vn -0.237728 0.9667325 0.09441206
vn -0.047552943 0.99842834 -0.02965781
vn 0.99686605 -0.07910791 -0
vn -0.237728 0.9667325 0.09441206
vn 0.17199068 0.98509854 -0
vn -0.20603216 0.9667325 -0.15158832
vn -0.11043954 0.99388283 -0
vn -0.079124674 0.9968647 -0
vn -0.2973893 0.9547562 -0
vn -0.237728 0.9667325 -0.09441206
vn -0.11043954 0.99388283 -0
vn -0.3962072 0.9033408 -0.16430229
vn -0.237728 0.9667325 0.09441206
vn 0.110421486 0.99388486 -0
vn 0.33279723 0.93503666 -0.12228009
vn -0.3011197 0.93503666 -0.18717197
vn -0.3962072 0.9033408 0.16430229
vn -0.14142899 0.98994845 -0
vn -0.3962072 0.9033408 0.16430229
vn 0.110421486 0.99388486 -0
vn 0.80823493 0.5863824 0.05396281
vn 0.93170375 0.3632192 -0
vn 0.74484324 0.6497741 0.15166478
vn 0.74484324 0.6497741 0.15166478
vn 0.8716266 0.4595989 0.17039922
vn 0.99841 -0.015838742 -0.054098595
vn 0.3011014 0.93503666 -0.18720143
vn 0.68145156 0.71316576 -0.16437265
vn 0.8399308 0.5229906 0.14490399
vn 0.2684474 0.96329427 -0
vn 0.96671414 0.17433631 0.18727155
vn 0.99841 0.0158571 0.054093216
vn 0.6497557 0.7448616 0.15165319
vn 0.3961889 0.9033408 0.16434635
vn 0.9968646 0.07912613 -0
vn 0.96671414 0.20603216 0.15170541
vn 0.96671414 0.237728 -0.094600104
vn 0.96671414 0.14264047 0.21240875
vn 0.9350183 0.33281553 -0.12237073
vn 0.9350183 0.3011197 0.18726371
vn 0.93170375 0.3632192 -0
vn 0.96671414 0.17433631 -0.18727155
vn 0.9350183 0.33281553 -0.12237073
vn 0.74484324 0.61807823 -0.25137192
vn 0.96671414 0.17433631 -0.18727155
vn 0.17431796 0.9667325 0.18719378
vn 0.7765391 0.61807823 -0.122336864
vn 0.8399308 0.4595989 -0.2885917
vn 0.586364 0.8082533 -0.05388765
vn 0.9350183 0.33281553 -0.12237073
vn 0.8711461 0.4910239 -0
vn 0.96671414 0.20603216 -0.15170541
vn 0.96671414 0.20603216 0.15170541
vn 0.14262211 0.9667325 -0.21233751
vn 0.36319718 0.93171227 -0
vn 0.17431796 0.9667325 -0.18719378
vn 0.6180599 0.77655745 0.12231323
vn 0.33279723 0.93503666 -0.12228009
vn 0.96671414 0.237728 0.094600104
vn 0.80823493 0.5863824 -0.05396281
vn 0.7765391 0.61807823 0.122336864
vn 0.2684474 0.96329427 -0
vn 0.74484324 0.6497741 0.15166478
vn 0.7669286 0.64173245 -0
vn 0.2060138 0.9667325 0.1516133
vn 0.8716266 0.4595989 -0.17039922
vn 0.99388266 0.11044154 -0
vn 0.9207471 0.3901599 -0
vn 0.74484324 0.6497741 0.15166478
vn 0.96671414 0.20603216 0.15170541
vn 0.9350183 0.33281553 0.12237073
vn 0.047534585 0.9667325 0.25133386
vn 0.36319718 0.93171227 -0
vn 0.7070977 0.70711595 -0
vn 0.5229723 0.83994913 0.14486347
vn 0.6180599 0.77655745 -0.12231323
vn 0.36319718 0.93171227 -0
vn 0.586364 0.8082533 0.05388765
vn 0.49100214 0.8711583 -0
vn -0.3011197 0.93503666 0.18717197
vn -0.11043954 0.99388283 -0
vn -0.3011197 0.93503666 0.18717197
vn -0.26846436 0.96328974 -0
vn -0.079124674 0.9968647 -0
vn -0.047552943 0.99842834 -0.02965781
vn -0.237728 0.9667325 -0.09441206
vn -0.14142899 0.98994845 -0
vn -0.26846436 0.96328974 -0
vn -0.047552943 0.99842834 -0.02965781
vn 0.6497557 0.7448616 -0.15165319
vn 0.93170375 0.3632192 -0
vn 0.96671414 0.17433631 -0.18727155
vn 0.96671414 0.17433631 -0.18727155
vn 0.93170375 0.3632192 -0
vn 0.90332246 0.3962072 -0.16440311
vn 0.8716266 0.4595989 -0.17039922
vn 0.93170375 0.3632192 -0
vn 0.90332246 0.42790306 -0.030124916
vn 0.9350183 0.33281553 -0.12237073
vn 0.93170375 0.3632192 -0
vn 0.93170375 0.3632192 -0
vn 0.9350183 0.3011197 -0.18726371
vn 0.8711461 0.4910239 -0
vn 0.93170375 0.3632192 -0
vn 0.6497557 0.7448616 -0.15165319
vn 0.85748655 0.51450634 -0
vn 0.7131474 0.6814699 -0.16437627
vn 0.74484324 0.6497741 -0.15166478
vn 0.2377097 0.9667325 -0.09445813
vn 0.11092627 0.9667325 -0.23048556
vn 0.5546681 0.8082533 -0.1976609
vn 0.8716266 0.4595989 0.17039922
vn 0.3961889 0.9033408 0.16434635
vn 0.95475477 0.29739448 -0
vn 0.2377097 0.9667325 0.09445813
vn 0.39013812 0.92075634 -0
vn 0.8399308 0.49129474 0.23053372
vn 0.8711461 0.4910239 -0
vn 0.8399308 0.5229906 0.14490399
vn 0.015838742 0.9667325 -0.2552986
vn 0.80823493 0.55468655 0.19768435
vn 0.675004 0.73781407 -0
vn 0.49100214 0.8711583 -0
vn -0.047552943 0.93503666 -0.35134763
vn 0.39013812 0.92075634 -0
vn 0.42788476 0.9033408 -0.029833145
vn 0.55105096 0.8344715 -0
vn 0.586364 0.8082533 0.05388765
vn 0.42788476 0.9033408 0.029833145
vn 0.4595806 0.871645 0.17035471
vn 0.42788476 0.9033408 0.029833145
vn 0.29737285 0.9547614 -0
vn 0.2684474 0.96329427 -0
vn 0.42788476 0.9033408 0.029833145
vn 0.36319718 0.93171227 -0
vn 0.39013812 0.92075634 -0
vn 0.42788476 0.9033408 -0.029833145
vn 0.49100214 0.8711583 -0
vn 0.42788476 0.871645 -0.23905993
vn 0.11092627 0.9667325 -0.23048556
vn 0.36319718 0.93171227 -0
vn 0.14262211 0.9033408 -0.40451744
vn 0.26940554 0.871645 -0.40945783
vn 0.49127644 0.83994913 -0.23050573
vn 0.60744005 0.7943655 -0
vn 0.36449307 0.9033408 -0.2260978
vn 0.55105096 0.8344715 -0
vn 0.55105096 0.8344715 -0
vn 0.7765391 0.5229906 -0.35137993
vn 0.6497557 0.7448616 -0.15165319
vn 0.675004 0.73781407 -0
vn 0.6497557 0.6814699 0.3367733
vn 0.6180599 0.77655745 0.12231323
vn 0.7765391 0.49129474 0.39448255
vn 0.8399308 0.49129474 0.23053372
vn 0.7131474 0.6814699 0.16437627
vn 0.6180599 0.77655745 0.12231323
vn 0.6497557 0.7448616 0.15165319
vn 0.6180599 0.77655745 0.12231323
vn 0.5229723 0.83994913 0.14486347
vn 0.55105096 0.8344715 -0
vn 0.29737285 0.9547614 -0
vn 0.6180599 0.77655745 0.12231323
vn 0.74484324 0.6497741 0.15166478
vn 0.85748655 0.51450634 -0
vn 0.6497557 0.7448616 0.15165319
vn 0.9350183 0.26942384 0.23054622
vn 0.8399308 0.4595989 0.2885917
vn 0.7131474 0.6814699 0.16437627
vn 0.6497557 0.7448616 0.15165319
vn 0.985095 0.17201133 -0
vn 0.2377097 0.9667325 -0.09445813
vn 0.675004 0.73781407 -0
vn 0.2377097 0.9667325 -0.09445813
vn 0.5546681 0.8082533 0.1976609
vn 0.68145156 0.6497741 0.33677506
vn 0.39013812 0.92075634 -0
vn 0.80823493 0.55468655 0.19768435
vn 0.93170995 -0.36320338 -0
vn 0.80823493 0.55468655 -0.19768435
vn 0.68145156 0.6814699 -0.26687554
vn 0.07923043 0.9667325 -0.2432094
vn 0.2060138 0.9667325 -0.1516133
g trenchwall_01_mesh_0
f 3/3/3 2/2/2 1/1/1
f 2/2/2 4/4/4 1/1/1
f 4/4/4 2/2/2 5/5/5
f 1/1/1 4/4/4 6/6/6
f 7/7/7 4/4/4 5/5/5
f 7/7/7 5/5/5 8/8/8
f 9/9/9 7/7/7 8/8/8
f 9/9/9 8/8/8 10/10/10
f 8/8/8 11/11/11 10/10/10
f 10/10/10 11/11/11 12/12/12
f 13/13/13 7/7/7 9/9/9
f 4/4/4 7/7/7 13/13/13
f 14/14/14 10/10/10 12/12/12
f 14/14/14 12/12/12 15/15/15
f 16/16/16 13/13/13 9/9/9
f 16/16/16 9/9/9 10/10/10
f 4/4/4 17/17/17 6/6/6
f 6/6/6 17/17/17 18/18/18
f 19/19/19 6/6/6 18/18/18
f 20/20/20 4/4/4 13/13/13
f 21/21/21 17/17/17 4/4/4
f 20/20/20 21/21/21 4/4/4
f 22/22/22 17/17/17 21/21/21
f 22/22/22 18/18/18 17/17/17
f 23/23/23 13/13/13 16/16/16
f 20/20/20 13/13/13 23/23/23
f 24/24/24 21/21/21 20/20/20
f 24/24/24 22/22/22 21/21/21
f 25/25/25 20/20/20 23/23/23
f 25/25/25 24/24/24 20/20/20
f 26/26/26 16/16/16 10/10/10
f 27/27/27 23/23/23 16/16/16
f 27/27/27 16/16/16 26/26/26
f 25/25/25 23/23/23 28/28/28
f 28/28/28 23/23/23 27/27/27
f 26/26/26 10/10/10 29/29/29
f 10/10/10 14/14/14 29/29/29
f 30/30/30 22/22/22 24/24/24
f 31/31/31 24/24/24 25/25/25
f 31/31/31 30/30/30 24/24/24
f 32/32/32 25/25/25 28/28/28
f 32/32/32 31/31/31 25/25/25
f 30/30/30 33/33/33 22/22/22
f 33/33/33 18/18/18 22/22/22
f 34/34/34 18/18/18 33/33/33
f 34/34/34 35/35/35 18/18/18
f 18/18/18 35/35/35 19/19/19
f 32/32/32 28/28/28 36/36/36
f 32/32/32 37/37/37 31/31/31
f 37/37/37 32/32/32 36/36/36
f 38/38/38 37/37/37 36/36/36
f 37/37/37 39/39/39 31/31/31
f 31/31/31 39/39/39 30/30/30
f 39/39/39 37/37/37 38/38/38
f 28/28/28 40/40/40 36/36/36
f 40/40/40 28/28/28 27/27/27
f 40/40/40 27/27/27 41/41/41
f 41/41/41 27/27/27 26/26/26
f 41/41/41 26/26/26 42/42/42
f 41/41/41 42/42/42 43/43/43
f 43/43/43 42/42/42 44/44/44
f 26/26/26 29/29/29 42/42/42
f 42/42/42 29/29/29 44/44/44
f 45/45/45 40/40/40 41/41/41
f 45/45/45 41/41/41 43/43/43
f 40/40/40 46/46/46 36/36/36
f 46/46/46 40/40/40 45/45/45
f 46/46/46 47/47/47 36/36/36
f 38/38/38 36/36/36 47/47/47
f 48/48/48 46/46/46 45/45/45
f 47/47/47 46/46/46 48/48/48
f 48/48/48 45/45/45 43/43/43
f 29/29/29 49/49/49 44/44/44
f 29/29/29 14/14/14 49/49/49
f 38/38/38 47/47/47 50/50/50
f 50/50/50 47/47/47 48/48/48
f 14/14/14 51/51/51 49/49/49
f 51/51/51 14/14/14 15/15/15
f 51/51/51 15/15/15 52/52/52
f 51/51/51 52/52/52 49/49/49
f 15/15/15 53/53/53 52/52/52
f 52/52/52 53/53/53 54/54/54
f 52/52/52 54/54/54 49/49/49
f 53/53/53 55/55/55 54/54/54
f 49/49/49 54/54/54 56/56/56
f 49/49/49 56/56/56 44/44/44
f 54/54/54 55/55/55 57/57/57
f 54/54/54 57/57/57 56/56/56
f 55/55/55 58/58/58 57/57/57
f 57/57/57 58/58/58 59/59/59
f 58/58/58 60/60/60 59/59/59
f 56/56/56 57/57/57 61/61/61
f 57/57/57 59/59/59 61/61/61
f 59/59/59 60/60/60 62/62/62
f 60/60/60 63/63/63 62/62/62
f 61/61/61 59/59/59 64/64/64
f 59/59/59 62/62/62 64/64/64
f 62/62/62 63/63/63 65/65/65
f 63/63/63 66/66/66 65/65/65
f 65/65/65 66/66/66 67/67/67
f 68/68/68 65/65/65 67/67/67
f 68/68/68 67/67/67 69/69/69
f 62/62/62 65/65/65 70/70/70
f 68/68/68 70/70/70 65/65/65
f 62/62/62 70/70/70 71/71/71
f 64/64/64 62/62/62 71/71/71
f 71/71/71 70/70/70 72/72/72
f 68/68/68 72/72/72 70/70/70
f 73/73/73 64/64/64 71/71/71
f 73/73/73 71/71/71 72/72/72
f 73/73/73 72/72/72 74/74/74
f 68/68/68 75/75/75 72/72/72
f 75/75/75 74/74/74 72/72/72
f 76/76/76 68/68/68 69/69/69
f 75/75/75 68/68/68 76/76/76
f 64/64/64 73/73/73 77/77/77
f 77/77/77 73/73/73 74/74/74
f 76/76/76 69/69/69 78/78/78
f 69/69/69 79/79/79 78/78/78
f 80/80/80 75/75/75 76/76/76
f 80/80/80 76/76/76 78/78/78
f 81/81/81 75/75/75 80/80/80
f 75/75/75 81/81/81 74/74/74
f 82/82/82 80/80/80 78/78/78
f 82/82/82 81/81/81 80/80/80
f 82/82/82 78/78/78 83/83/83
f 84/84/84 82/82/82 83/83/83
f 84/84/84 83/83/83 85/85/85
f 86/86/86 64/64/64 77/77/77
f 61/61/61 64/64/64 86/86/86
f 87/87/87 81/81/81 82/82/82
f 84/84/84 87/87/87 82/82/82
f 81/81/81 87/87/87 88/88/88
f 89/89/89 84/84/84 85/85/85
f 89/89/89 85/85/85 90/90/90
f 91/91/91 87/87/87 84/84/84
f 88/88/88 87/87/87 91/91/91
f 89/89/89 91/91/91 84/84/84
f 92/92/92 89/89/89 90/90/90
f 92/92/92 90/90/90 93/93/93
f 94/94/94 91/91/91 89/89/89
f 92/92/92 94/94/94 89/89/89
f 95/95/95 92/92/92 93/93/93
f 95/95/95 93/93/93 96/96/96
f 97/97/97 81/81/81 88/88/88
f 81/81/81 97/97/97 74/74/74
f 91/91/91 94/94/94 98/98/98
f 88/88/88 91/91/91 98/98/98
f 99/99/99 94/94/94 92/92/92
f 95/95/95 99/99/99 92/92/92
f 100/100/100 95/95/95 96/96/96
f 100/100/100 96/96/96 101/101/101
f 102/102/102 99/99/99 95/95/95
f 100/100/100 102/102/102 95/95/95
f 97/97/97 103/103/103 74/74/74
f 104/104/104 74/74/74 103/103/103
f 103/103/103 97/97/97 104/104/104
f 97/97/97 88/88/88 104/104/104
f 104/104/104 77/77/77 74/74/74
f 105/105/105 77/77/77 104/104/104
f 105/105/105 86/86/86 77/77/77
f 88/88/88 106/106/106 104/104/104
f 106/106/106 105/105/105 104/104/104
f 107/107/107 106/106/106 88/88/88
f 98/98/98 107/107/107 88/88/88
f 108/108/108 105/105/105 106/106/106
f 108/108/108 106/106/106 107/107/107
f 109/109/109 86/86/86 105/105/105
f 108/108/108 109/109/109 105/105/105
f 98/98/98 110/110/110 107/107/107
f 110/110/110 111/111/111 107/107/107
f 94/94/94 110/110/110 98/98/98
f 112/112/112 108/108/108 107/107/107
f 112/112/112 107/107/107 111/111/111
f 113/113/113 110/110/110 94/94/94
f 99/99/99 113/113/113 94/94/94
f 112/112/112 114/114/114 108/108/108
f 114/114/114 109/109/109 108/108/108
f 115/115/115 86/86/86 109/109/109
f 115/115/115 61/61/61 86/86/86
f 56/56/56 61/61/61 115/115/115
f 113/113/113 116/116/116 110/110/110
f 116/116/116 111/111/111 110/110/110
f 99/99/99 117/117/117 113/113/113
f 113/113/113 117/117/117 116/116/116
f 99/99/99 102/102/102 117/117/117
f 118/118/118 115/115/115 109/109/109
f 118/118/118 109/109/109 114/114/114
f 119/119/119 56/56/56 115/115/115
f 119/119/119 115/115/115 118/118/118
f 119/119/119 44/44/44 56/56/56
f 44/44/44 119/119/119 118/118/118
f 120/120/120 44/44/44 118/118/118
f 120/120/120 118/118/118 114/114/114
f 121/121/121 120/120/120 114/114/114
f 120/120/120 43/43/43 44/44/44
f 120/120/120 121/121/121 43/43/43
f 121/121/121 114/114/114 122/122/122
f 122/122/122 114/114/114 112/112/112
f 122/122/122 112/112/112 111/111/111
f 121/121/121 123/123/123 43/43/43
f 123/123/123 48/48/48 43/43/43
f 48/48/48 123/123/123 124/124/124
f 123/123/123 121/121/121 124/124/124
f 50/50/50 48/48/48 124/124/124
f 125/125/125 121/121/121 122/122/122
f 124/124/124 121/121/121 126/126/126
f 125/125/125 126/126/126 121/121/121
f 50/50/50 124/124/124 127/127/127
f 127/127/127 124/124/124 126/126/126
f 122/122/122 128/128/128 125/125/125
f 128/128/128 122/122/122 111/111/111
f 129/129/129 50/50/50 127/127/127
f 129/129/129 38/38/38 50/50/50
f 129/129/129 127/127/127 130/130/130
f 38/38/38 129/129/129 130/130/130
f 130/130/130 127/127/127 131/131/131
f 131/131/131 127/127/127 126/126/126
f 132/132/132 38/38/38 130/130/130
f 131/131/131 126/126/126 133/133/133
f 134/134/134 131/131/131 133/133/133
f 134/134/134 130/130/130 131/131/131
f 132/132/132 39/39/39 38/38/38
f 125/125/125 135/135/135 126/126/126
f 128/128/128 135/135/135 125/125/125
f 135/135/135 133/133/133 126/126/126
f 128/128/128 136/136/136 135/135/135
f 132/132/132 137/137/137 39/39/39
f 137/137/137 132/132/132 130/130/130
f 138/138/138 137/137/137 130/130/130
f 137/137/137 139/139/139 39/39/39
f 137/137/137 138/138/138 139/139/139
f 39/39/39 139/139/139 30/30/30
f 139/139/139 140/140/140 30/30/30
f 138/138/138 140/140/140 139/139/139
f 30/30/30 140/140/140 33/33/33
f 33/33/33 140/140/140 141/141/141
f 141/141/141 140/140/140 138/138/138
f 34/34/34 33/33/33 141/141/141
f 135/135/135 142/142/142 133/133/133
f 136/136/136 142/142/142 135/135/135
f 136/136/136 128/128/128 143/143/143
f 143/143/143 128/128/128 111/111/111
f 144/144/144 143/143/143 111/111/111
f 136/136/136 143/143/143 144/144/144
f 144/144/144 111/111/111 116/116/116
f 145/145/145 141/141/141 138/138/138
f 141/141/141 145/145/145 34/34/34
f 144/144/144 116/116/116 146/146/146
f 147/147/147 136/136/136 144/144/144
f 147/147/147 144/144/144 146/146/146
f 148/148/148 146/146/146 116/116/116
f 117/117/117 148/148/148 116/116/116
f 136/136/136 147/147/147 149/149/149
f 136/136/136 150/150/150 142/142/142
f 136/136/136 149/149/149 150/150/150
f 149/149/149 151/151/151 150/150/150
f 147/147/147 152/152/152 149/149/149
f 147/147/147 146/146/146 152/152/152
f 149/149/149 152/152/152 151/151/151
f 150/150/150 153/153/153 142/142/142
f 150/150/150 151/151/151 153/153/153
f 142/142/142 153/153/153 154/154/154
f 142/142/142 154/154/154 133/133/133
f 148/148/148 155/155/155 146/146/146
f 117/117/117 156/156/156 148/148/148
f 156/156/156 155/155/155 148/148/148
f 146/146/146 157/157/157 152/152/152
f 155/155/155 157/157/157 146/146/146
f 152/152/152 157/157/157 158/158/158
f 155/155/155 158/158/158 157/157/157
f 152/152/152 158/158/158 151/151/151
f 155/155/155 156/156/156 158/158/158
f 158/158/158 159/159/159 151/151/151
f 160/160/160 159/159/159 158/158/158
f 156/156/156 160/160/160 158/158/158
f 161/161/161 156/156/156 117/117/117
f 156/156/156 161/161/161 160/160/160
f 102/102/102 161/161/161 117/117/117
f 161/161/161 162/162/162 160/160/160
f 160/160/160 162/162/162 159/159/159
f 102/102/102 163/163/163 161/161/161
f 161/161/161 163/163/163 162/162/162
f 163/163/163 102/102/102 100/100/100
f 163/163/163 164/164/164 162/162/162
f 162/162/162 164/164/164 159/159/159
f 165/165/165 163/163/163 100/100/100
f 164/164/164 163/163/163 165/165/165
f 165/165/165 100/100/100 101/101/101
f 166/166/166 165/165/165 101/101/101
f 166/166/166 164/164/164 165/165/165
f 166/166/166 101/101/101 167/167/167
f 168/168/168 164/164/164 166/166/166
f 164/164/164 168/168/168 159/159/159
f 169/169/169 166/166/166 167/167/167
f 169/169/169 168/168/168 166/166/166
f 169/169/169 167/167/167 170/170/170
f 171/171/171 169/169/169 170/170/170
f 171/171/171 172/172/172 169/169/169
f 172/172/172 168/168/168 169/169/169
f 168/168/168 172/172/172 159/159/159
f 172/172/172 173/173/173 159/159/159
f 159/159/159 173/173/173 174/174/174
f 151/151/151 159/159/159 174/174/174
f 151/151/151 174/174/174 175/175/175
f 174/174/174 176/176/176 175/175/175
f 151/151/151 175/175/175 153/153/153
f 175/175/175 176/176/176 177/177/177
f 176/176/176 178/178/178 177/177/177
f 178/178/178 179/179/179 177/177/177
f 153/153/153 175/175/175 180/180/180
f 153/153/153 180/180/180 154/154/154
f 179/179/179 181/181/181 177/177/177
f 181/181/181 179/179/179 182/182/182
f 175/175/175 177/177/177 183/183/183
f 175/175/175 183/183/183 180/180/180
f 177/177/177 181/181/181 183/183/183
f 183/183/183 184/184/184 180/180/180
f 181/181/181 184/184/184 183/183/183
f 185/185/185 181/181/181 182/182/182
f 182/182/182 186/186/186 185/185/185
f 184/184/184 187/187/187 180/180/180
f 180/180/180 187/187/187 154/154/154
f 188/188/188 184/184/184 181/181/181
f 185/185/185 188/188/188 181/181/181
f 187/187/187 184/184/184 188/188/188
f 186/186/186 189/189/189 185/185/185
f 189/189/189 188/188/188 185/185/185
f 190/190/190 189/189/189 186/186/186
f 191/191/191 190/190/190 186/186/186
f 190/190/190 191/191/191 192/192/192
f 193/193/193 190/190/190 192/192/192
f 193/193/193 192/192/192 194/194/194
f 195/195/195 154/154/154 187/187/187
f 187/187/187 196/196/196 195/195/195
f 196/196/196 187/187/187 188/188/188
f 195/195/195 197/197/197 154/154/154
f 198/198/198 195/195/195 196/196/196
f 197/197/197 133/133/133 154/154/154
f 196/196/196 188/188/188 199/199/199
f 199/199/199 188/188/188 189/189/189
f 198/198/198 196/196/196 199/199/199
f 200/200/200 199/199/199 189/189/189
f 198/198/198 199/199/199 200/200/200
f 190/190/190 200/200/200 189/189/189
f 201/201/201 198/198/198 200/200/200
f 198/198/198 201/201/201 195/195/195
f 190/190/190 202/202/202 200/200/200
f 201/201/201 200/200/200 202/202/202
f 203/203/203 202/202/202 190/190/190
f 193/193/193 203/203/203 190/190/190
f 204/204/204 201/201/201 202/202/202
f 204/204/204 202/202/202 203/203/203
f 205/205/205 195/195/195 201/201/201
f 205/205/205 201/201/201 204/204/204
f 206/206/206 205/205/205 204/204/204
f 205/205/205 206/206/206 195/195/195
f 207/207/207 204/204/204 203/203/203
f 206/206/206 204/204/204 207/207/207
f 208/208/208 203/203/203 193/193/193
f 207/207/207 203/203/203 208/208/208
f 209/209/209 208/208/208 193/193/193
f 209/209/209 193/193/193 194/194/194
f 210/210/210 209/209/209 194/194/194
f 210/210/210 194/194/194 211/211/211
f 210/210/210 211/211/211 212/212/212
f 213/213/213 208/208/208 209/209/209
f 210/210/210 213/213/213 209/209/209
f 214/214/214 210/210/210 212/212/212
f 214/214/214 212/212/212 215/215/215
f 216/216/216 214/214/214 215/215/215
f 214/214/214 217/217/217 210/210/210
f 217/217/217 214/214/214 216/216/216
f 217/217/217 213/213/213 210/210/210
f 218/218/218 217/217/217 216/216/216
f 219/219/219 208/208/208 213/213/213
f 219/219/219 213/213/213 217/217/217
f 220/220/220 217/217/217 218/218/218
f 220/220/220 219/219/219 217/217/217
f 221/221/221 220/220/220 218/218/218
f 222/222/222 220/220/220 221/221/221
f 222/222/222 219/219/219 220/220/220
f 219/219/219 223/223/223 208/208/208
f 223/223/223 207/207/207 208/208/208
f 224/224/224 223/223/223 219/219/219
f 222/222/222 224/224/224 219/219/219
f 225/225/225 207/207/207 223/223/223
f 224/224/224 225/225/225 223/223/223
f 225/225/225 206/206/206 207/207/207
f 226/226/226 225/225/225 224/224/224
f 222/222/222 226/226/226 224/224/224
f 227/227/227 222/222/222 221/221/221
f 228/228/228 227/227/227 221/221/221
f 227/227/227 229/229/229 222/222/222
f 229/229/229 226/226/226 222/222/222
f 228/228/228 229/229/229 227/227/227
f 226/226/226 230/230/230 225/225/225
f 229/229/229 230/230/230 226/226/226
f 230/230/230 206/206/206 225/225/225
f 228/228/228 230/230/230 229/229/229
f 206/206/206 230/230/230 231/231/231
f 228/228/228 231/231/231 230/230/230
f 206/206/206 231/231/231 195/195/195
f 228/228/228 232/232/232 231/231/231
f 232/232/232 195/195/195 231/231/231
f 233/233/233 232/232/232 228/228/228
f 234/234/234 233/233/233 228/228/228
f 232/232/232 235/235/235 195/195/195
f 195/195/195 235/235/235 197/197/197
f 233/233/233 236/236/236 232/232/232
f 232/232/232 236/236/236 235/235/235
f 235/235/235 237/237/237 197/197/197
f 197/197/197 237/237/237 133/133/133
f 237/237/237 238/238/238 133/133/133
f 237/237/237 235/235/235 238/238/238
f 238/238/238 134/134/134 133/133/133
f 235/235/235 239/239/239 238/238/238
f 238/238/238 239/239/239 134/134/134
f 236/236/236 239/239/239 235/235/235
f 239/239/239 130/130/130 134/134/134
f 240/240/240 130/130/130 239/239/239
f 236/236/236 241/241/241 239/239/239
f 241/241/241 240/240/240 239/239/239
f 241/241/241 236/236/236 242/242/242
f 241/241/241 242/242/242 240/240/240
f 233/233/233 243/243/243 236/236/236
f 236/236/236 243/243/243 242/242/242
f 240/240/240 244/244/244 130/130/130
f 244/244/244 138/138/138 130/130/130
f 244/244/244 245/245/245 138/138/138
f 245/245/245 145/145/145 138/138/138
f 246/246/246 244/244/244 240/240/240
f 246/246/246 245/245/245 244/244/244
f 247/247/247 145/145/145 245/245/245
f 246/246/246 247/247/247 245/245/245
f 248/248/248 145/145/145 247/247/247
f 34/34/34 145/145/145 248/248/248
f 242/242/242 249/249/249 240/240/240
f 240/240/240 249/249/249 246/246/246
f 250/250/250 247/247/247 246/246/246
f 248/248/248 247/247/247 250/250/250
f 251/251/251 250/250/250 246/246/246
f 251/251/251 246/246/246 249/249/249
f 252/252/252 251/251/251 249/249/249
f 252/252/252 249/249/249 242/242/242
f 253/253/253 252/252/252 242/242/242
f 253/253/253 242/242/242 243/243/243
f 254/254/254 248/248/248 250/250/250
f 255/255/255 253/253/253 243/243/243
f 248/248/248 256/256/256 34/34/34
f 254/254/254 256/256/256 248/248/248
f 257/257/257 255/255/255 243/243/243
f 257/257/257 243/243/243 233/233/233
f 258/258/258 257/257/257 233/233/233
f 257/257/257 258/258/258 255/255/255
f 234/234/234 258/258/258 233/233/233
f 258/258/258 234/234/234 255/255/255
f 234/234/234 259/259/259 255/255/255
f 256/256/256 260/260/260 34/34/34
f 34/34/34 260/260/260 35/35/35
f 256/256/256 254/254/254 261/261/261
f 262/262/262 261/261/261 254/254/254
f 256/256/256 261/261/261 263/263/263
f 263/263/263 261/261/261 262/262/262
f 260/260/260 256/256/256 263/263/263
f 264/264/264 263/263/263 262/262/262
f 260/260/260 265/265/265 35/35/35
f 260/260/260 263/263/263 265/265/265
f 35/35/35 265/265/265 19/19/19
f 266/266/266 263/263/263 264/264/264
f 19/19/19 266/266/266 264/264/264
f 263/263/263 266/266/266 265/265/265
f 265/265/265 266/266/266 19/19/19
