g trenchwall_02_mesh
v 0.3477373 -0.002067566 -0.6115384
v 0.32954454 -0.002067566 -0.002067566
v -0.016125679 0.10709143 -0.002067566
v -0.034318924 0.23444366 -0.6388283
v 0.29315805 -0.002067566 -0.9481118
v -0.043415546 0.35269928 -1.3847475
v 0.22948217 -0.002067566 -1.1300433
v -0.2799263 0.37998867 -0.6479244
v -0.30721617 0.2799263 -0.002067566
v -0.6074033 0.52553415 -0.6388283
v -0.59830666 0.5437274 -0.002067566
v -0.2526369 0.46185827 -1.093657
v -0.6892724 0.5801134 -0.6388283
v -0.67107964 0.5801134 -0.002067566
v -0.52553415 0.56192064 -1.1027536
v -0.771142 0.5801134 -0.6388283
v -0.7347555 0.59830666 -0.002067566
v -0.46185827 0.68017626 -1.5030031
v -0.51643753 0.7256589 -1.6485484
v -0.6255965 0.6074033 -1.1118503
v -0.5437274 0.67107964 -1.4484236
v -1.0713291 0.92578363 -0.59334517
v -1.0804257 1.0531359 -0.002067566
v -0.6074033 0.67107964 -1.4666169
v -0.6892724 0.6074033 -1.1118503
v -1.1259084 1.1986809 -0.5751519
v -1.1441016 1.3260331 -0.002067566
v -1.0076528 1.0167494 -1.0390775
v -1.1804881 1.4806752 -1.5393894
v -1.0804257 1.2077775 -1.0208845
v -1.2077775 1.4079022 -0.5569587
v -1.2350674 1.5261579 -0.002067566
v -1.1986809 1.3897095 -1.0026913
v -1.3169365 1.5989304 -0.6388283
v -1.5261579 1.9173107 -0.6479244
v -1.498868 1.9900837 -0.002067566
v -1.717186 2.3812366 -0.3841238
v -1.7535725 2.6814237 -0.002067566
v -1.498868 1.8081517 -1.0663674
v -1.5352545 2.699617 -1.2937818
v -1.6626067 2.5813613 -1.9305425
v -1.5261579 3.5274057 -1.9214458
v -1.3897095 2.9816108 -2.6218824
v -1.4079022 1.6808 -1.3574579
v -1.7717657 2.6632304 -0.32954454
v -1.7262826 3.254508 -0.002067566
v -1.7626691 3.2272182 -0.32044792
v -2.3266568 4.1550694 -0.002067566
v -1.5170612 1.6535101 -1.657645
v -1.9082141 3.318184 -0.54786205
v -2.1811118 4.0277176 -0.47508955
v -2.235691 4.0186205 -0.729794
v -2.8360653 4.2551317 -0.5387659
v -2.917935 4.337001 -0.002067566
v -3.4273434 4.118683 -0.002067566
v -2.3994298 4.145973 -0.7570834
v -2.7905827 4.209649 -0.77527666
v -3.4455366 4.0368137 -0.3386407
v -4.0004272 4.0004272 -0.002067566
v -3.536502 4.145973 -0.37502718
v -2.6450372 4.5462227 -1.4666169
v -2.0537596 4.0095243 -0.82075953
v -2.262981 4.145973 -0.82985616
v -1.9991803 4.0822973 -0.9117255
v -1.7808623 3.2727013 -0.6752143
v -1.6898966 3.318184 -0.73889065
v -2.1811118 4.191456 -0.9026289
v -1.9900837 4.12778 -1.0845604
v -2.1720152 4.218745 -1.0117879
v -2.1629186 4.41887 -1.8031902
v -2.262981 4.4461603 -1.9305425
v -1.7535725 4.218745 -1.8850596
v -2.0537596 4.3188076 -2.194343
v -1.6444135 3.3636675 -1.0299809
v -1.6989927 3.2999907 -1.1573331
v -1.6898966 3.3909569 -1.2664921
v -1.5989304 3.3909569 -1.4757135
v -1.8718281 4.209649 -2.2034397
v -1.6535101 3.618371 -2.4035645
v -2.044663 4.200552 -2.348985
v -1.5534477 3.1180596 -2.567303
v -1.7717657 3.0452867 -2.8129106
v -1.8627315 3.618371 -2.6127858
v -2.4994922 3.536502 -2.6127858
v -2.37214 4.209649 -2.4217577
v -1.6626067 2.927031 -2.9675524
v -2.3539467 4.437063 -2.003315
v -2.262981 4.4461603 -1.9305425
v -2.6450372 4.5462227 -1.4666169
v -2.6814237 4.2369385 -2.1033773
v -1.4442887 2.517685 -2.740138
v -2.0264697 2.999804 -2.958456
v -1.6171236 2.5085888 -2.994842
v -2.563168 2.5995545 -2.7947173
v -2.8633552 3.3454742 -2.4672406
v -1.9900837 2.563168 -2.976649
v -1.6717033 1.7626691 -3.1221943
v -2.454009 2.3357534 -2.8947797
v -1.3806129 1.8081517 -3.0585184
v -1.1804881 1.1077151 -3.5588303
v -1.0076528 1.2350674 -3.24045
v -1.3260331 1.7808623 -2.86749
v -2.817872 2.4903955 -2.6582687
v -1.717186 1.0440392 -3.4496713
v -3.1544456 3.2727013 -2.221633
v -3.108963 4.0913935 -1.9305425
v -3.2272182 4.409774 -1.2482989
v -3.773013 4.1550694 -0.4205103
v -3.536502 4.145973 -0.37502718
v -4.0004272 4.0004272 -0.002067566
v -4.0004272 4.118683 -0.5751519
v -3.6638546 4.3097115 -0.8025665
v -4.0004272 4.337001 -1.0845604
v -3.5092125 4.3097115 -1.0845604
v -3.6547575 4.337001 -1.0572708
v -4.0004272 4.1550694 -1.6758382
v -3.3545704 3.991331 -1.8304801
v -3.5728884 4.0913935 -1.8031902
v -4.0004272 3.254508 -2.2762125
v -3.4091501 3.254508 -2.303502
v -4.0004272 2.6814237 -2.2489226
v -3.2908945 3.254508 -2.2580192
v -3.2727013 2.6814237 -2.4763372
v -3.1180596 2.3630433 -2.6218824
v -4.0004272 1.9900837 -2.4945304
v -3.0907698 1.9264073 -2.676462
v -4.0004272 1.5261579 -2.7674277
v -3.545599 1.4897718 -2.758331
v -4.0004272 1.3260331 -2.849297
v -4.0004272 1.0531359 -2.9220695
v -3.1271558 1.6989927 -2.7310414
v -3.691144 1.025846 -2.9220695
v -3.3545704 1.4351921 -2.740138
v -3.7275305 0.67107964 -3.1676774
v -4.0004272 0.59830666 -3.2586432
v -3.4819221 1.0986185 -2.8402004
v -3.7275305 0.661983 -3.2313533
v -4.0004272 0.5801134 -3.3314157
v -3.7275305 0.6255965 -3.2950294
v -4.0004272 0.5437274 -3.4041882
v -3.4546328 0.74385214 -3.1130977
v -3.4637299 0.75294876 -3.0494218
v -3.2908945 1.1986809 -2.8402004
v -3.0998664 1.5989304 -2.7947173
v -3.6456614 0.44366503 -3.5952165
v -4.0004272 0.2799263 -3.695279
v -3.6729507 0.17076778 -3.8954036
v -4.0004272 0.10709143 -3.977273
v -4.0004272 -0.002067566 -4.3320394
v -3.7002401 -0.002067566 -4.25017
v -3.4455366 0.7165623 -3.1767738
v -3.172639 0.7984314 -3.1494842
v -2.7905827 1.7717657 -2.8947797
v -3.4819221 0.552824 -3.5952165
v -3.4819221 0.15257454 -4.1137214
v -3.4910192 -0.002067566 -4.341136
v -3.5092125 0.3163128 -3.8772104
v -3.318184 0.17076778 -4.1592045
v -3.3454742 -0.002067566 -4.3320394
v -3.1362524 -0.002067566 -4.259267
v -3.145349 0.7620454 -3.24045
v -3.1908321 0.63469315 -3.5588303
v -2.8815484 0.23444366 -3.9226933
v -3.0089006 -0.002067566 -4.477585
v -3.263605 0.3254094 -3.9499831
v -2.7087135 0.2799263 -4.040949
v -2.7450995 -0.002067566 -4.5685506
v -2.5358782 0.28902292 -3.9681764
v -2.5267816 -0.002067566 -4.5230675
v -2.4358158 -0.002067566 -4.368426
v -2.6450372 0.67107964 -3.5133471
v -2.7269063 0.70746565 -3.4132848
v -2.817872 0.7620454 -3.2768362
v -1.9991803 0.7256589 -3.604313
v -1.8536348 0.7893348 -3.9135969
v -2.308464 -0.002067566 -4.513971
v -2.8997416 0.7893348 -3.1403875
v -1.9900837 0.75294876 -3.695279
v -2.9816108 0.7893348 -3.0039387
v -1.6262202 0.97126675 -3.6406994
v -3.2090254 0.7984314 -2.994842
v -3.0089006 1.5352545 -2.912973
v -1.4260955 0.82572126 -4.150108
v -1.7990556 -0.002067566 -4.7140956
v -1.3078399 -0.002067566 -4.7595787
v -1.5534477 1.0076528 -3.758955
v -1.1168118 0.64378977 -4.1864944
v -1.6444135 0.9530735 -3.58612
v -0.82572126 0.3254094 -4.1864944
v -1.6626067 0.9530735 -3.5133471
v -0.29811954 -0.002067566 -4.5685506
v -2.044663 1.2350674 -3.3678021
v -0.7620454 0.30721617 -4.168301
v -0.698369 0.23444366 -4.150108
v -0.37089252 0.17986393 -4.0955286
v 0.21128893 -0.002067566 -4.4411983
v 0.056646824 0.17076778 -4.059142
v 0.5569587 -0.002067566 -4.1773977
v -0.4709549 0.82572126 -3.8044379
v 0.24767494 0.16167116 -3.9226933
v 0.7843733 -0.002067566 -3.7043755
v -0.7256589 1.135005 -3.4405746
v 0.41141367 0.17986393 -3.6679893
v 0.7843733 -0.002067566 -2.86749
v -0.17986393 0.81662464 -3.5042505
v -0.6074033 1.1168118 -3.3041258
v 0.5023794 0.22534704 -3.1403875
v -0.68017626 0.9894595 -2.676462
v -0.8348179 1.1713915 -3.0130353
v 0.2749648 0.27083015 -2.7674277
v -0.8712044 1.1895847 -3.0039387
v 0.1567092 0.2799263 -2.6946552
v 0.66611767 -0.002067566 -2.7219448
v 0.06574345 0.2799263 -2.6127858
v 0.62973166 -0.002067566 -2.6218824
v 0.029357433 0.28902292 -2.5400133
v 0.02026081 0.29811954 -2.4308543
v 0.5751519 -0.002067566 -2.5127234
v 0.5751519 -0.002067566 -2.4308543
v -0.89849377 1.2350674 -2.9857457
v -0.74385214 1.025846 -2.6673653
v -0.7893348 1.0804257 -2.6582687
v -0.6892724 0.92578363 -2.4763372
v -0.75294876 0.9439769 -2.4672406
v -0.70746565 0.85301113 -2.0397012
v -0.4982443 0.9621701 -1.894156
v 0.19309568 0.3254094 -2.2307296
v 0.7570834 -0.002067566 -2.2489226
v 0.29315805 0.34360266 -1.9942183
v 0.7843733 -0.002067566 -1.875963
v 0.16580582 0.37089252 -1.7940936
v 0.66611767 -0.002067566 -1.4848099
v -0.05251217 0.37998867 -1.5939689
v 0.41141367 -0.002067566 -1.2301056
v -0.070705414 0.37998867 -1.5575826
v -0.46185827 0.88939714 -1.7122245
v -0.097994804 0.37089252 -1.530293
v -0.7620454 0.98036337 -2.4490473
v -1.571641 1.8081517 -2.0942807
v -1.5170612 1.7990556 -2.17615
v -1.498868 1.7535725 -2.3853714
vt 0.94547457 0.49762613
vt 0.97226894 0.4478652
vt 0.94547457 0.42872638
vt 0.90719694 0.48231506
vt 0.9301635 0.52442044
vt 0.8650915 0.54355925
vt 0.9186802 0.5397315
vt 0.8842303 0.46700403
vt 0.91485244 0.4172431
vt 0.8536082 0.4478652
vt 0.8842303 0.39810425
vt 0.857436 0.5052816
vt 0.8459527 0.44403744
vt 0.8765748 0.3942765
vt 0.8344694 0.4899706
vt 0.84212494 0.44020966
vt 0.87274706 0.39044872
vt 0.80767506 0.52824825
vt 0.792364 0.53590375
vt 0.8229861 0.48614284
vt 0.80767506 0.51676494
vt 0.80767506 0.4134153
vt 0.8306416 0.36365438
vt 0.8000195 0.5129372
vt 0.8191583 0.48231506
vt 0.7885362 0.39810425
vt 0.80767506 0.3483433
vt 0.7808807 0.4478652
vt 0.7081532 0.46317625
vt 0.7617419 0.4363819
vt 0.7693974 0.3827932
vt 0.792364 0.33686003
vt 0.7464308 0.42107084
vt 0.75025856 0.37896544
vt 0.71963644 0.35599884
vt 0.7579141 0.3062379
vt 0.7043254 0.30241016
vt 0.7081532 0.26030472
vt 0.7004976 0.3942765
vt 0.62011456 0.3483433
vt 0.58183694 0.40193203
vt 0.5205927 0.33686003
vt 0.5014539 0.4172431
vt 0.6928421 0.42872638
vt 0.68518656 0.27944356
vt 0.67753106 0.2181993
vt 0.65456444 0.24116589
vt 0.61245906 0.14547178
vt 0.66604775 0.45169297
vt 0.6277701 0.24499366
vt 0.5856647 0.18374942
vt 0.5665259 0.19906048
vt 0.54355925 0.13398848
vt 0.58183694 0.103366375
vt 0.55504256 0.06508873
vt 0.5512148 0.18374942
vt 0.52824825 0.14929955
vt 0.52824825 0.07657202
vt 0.532076 0.022983316
vt 0.5205927 0.07274426
vt 0.46700403 0.19523272
vt 0.5626981 0.2181993
vt 0.54738706 0.19906048
vt 0.5512148 0.22585483
vt 0.6239423 0.2641325
vt 0.61245906 0.26796025
vt 0.54355925 0.20671602
vt 0.53590375 0.23351036
vt 0.532076 0.21437155
vt 0.46700403 0.24882142
vt 0.45169297 0.24882142
vt 0.48231506 0.2832713
vt 0.44403744 0.27944356
vt 0.59332025 0.2870991
vt 0.5856647 0.29858238
vt 0.5741814 0.29858238
vt 0.5588703 0.31389344
vt 0.4593485 0.29475462
vt 0.4784873 0.3521711
vt 0.44020966 0.29858238
vt 0.4899706 0.40193203
vt 0.4593485 0.4172431
vt 0.45169297 0.35982662
vt 0.39044872 0.35982662
vt 0.4134153 0.29858238
vt 0.46700403 0.44020966
vt 0.4172431 0.25647697
vt 0.4248986 0.24882142
vt 0.3827932 0.20288825
vt 0.3827932 0.27561578
vt 0.51676494 0.46700403
vt 0.43255413 0.43255413
vt 0.48231506 0.48231506
vt 0.36365438 0.46317625
vt 0.34451556 0.36748213
vt 0.4363819 0.4784873
vt 0.48231506 0.5856647
vt 0.37513766 0.49762613
vt 0.52824825 0.5741814
vt 0.5512148 0.71963644
vt 0.59332025 0.6698755
vt 0.5588703 0.5588703
vt 0.3292045 0.46317625
vt 0.4593485 0.7081532
vt 0.30241016 0.35599884
vt 0.33303225 0.26796025
vt 0.32154897 0.18757719
vt 0.25647697 0.10719414
vt 0.27944356 0.09953861
vt 0.23351036 0.06508873
vt 0.23733813 0.122505195
vt 0.27178803 0.14547178
vt 0.24116589 0.17609389
vt 0.2870991 0.17609389
vt 0.27561578 0.17226613
vt 0.23351036 0.23351036
vt 0.30241016 0.2641325
vt 0.27561578 0.2526492
vt 0.21437155 0.34068778
vt 0.27561578 0.35599884
vt 0.19523272 0.40193203
vt 0.2870991 0.35982662
vt 0.27944356 0.42872638
vt 0.2870991 0.47083178
vt 0.17226613 0.48614284
vt 0.27944356 0.52442044
vt 0.15695508 0.54738706
vt 0.21054378 0.5665259
vt 0.14547178 0.5703536
vt 0.13398848 0.6048035
vt 0.26796025 0.55504256
vt 0.17226613 0.6239423
vt 0.23351036 0.5780092
vt 0.14547178 0.6813588
vt 0.103366375 0.6813588
vt 0.20288825 0.6162868
vt 0.14547178 0.6890143
vt 0.095710844 0.6890143
vt 0.13781625 0.7004976
vt 0.09188308 0.7043254
vt 0.18757719 0.6813588
vt 0.19140495 0.67370325
vt 0.2296826 0.6162868
vt 0.26796025 0.5703536
vt 0.13398848 0.7579141
vt 0.06508873 0.7655696
vt 0.111021906 0.8229861
vt 0.04212214 0.8229861
vt 0.01915555 0.8957136
vt 0.08805531 0.8995414
vt 0.18757719 0.6928421
vt 0.22585483 0.6928421
vt 0.3177212 0.5588703
vt 0.16843836 0.7579141
vt 0.14164402 0.86891925
vt 0.13016072 0.922508
vt 0.14929955 0.81533056
vt 0.17226613 0.88040257
vt 0.16078283 0.92633575
vt 0.20671602 0.91485244
vt 0.2296826 0.7081532
vt 0.21437155 0.7540863
vt 0.25647697 0.84978044
vt 0.23351036 0.9493023
vt 0.18757719 0.8344694
vt 0.29092684 0.86126375
vt 0.2832713 0.9646134
vt 0.32154897 0.84978044
vt 0.32154897 0.95313007
vt 0.34068778 0.9301635
vt 0.29858238 0.7540863
vt 0.2870991 0.73877525
vt 0.27561578 0.7158087
vt 0.40575978 0.7540863
vt 0.44020966 0.792364
vt 0.36748213 0.94547457
vt 0.2641325 0.7004976
vt 0.40958756 0.7655696
vt 0.25647697 0.6813588
vt 0.47465956 0.74260306
vt 0.22585483 0.67370325
vt 0.2832713 0.5856647
vt 0.5052816 0.8191583
vt 0.4478652 0.9646134
vt 0.5205927 0.9684411
vt 0.4899706 0.7540863
vt 0.5512148 0.84212494
vt 0.47083178 0.7349475
vt 0.60097575 0.88040257
vt 0.46317625 0.7234642
vt 0.67370325 0.9607856
vt 0.4134153 0.6698755
vt 0.61245906 0.88040257
vt 0.6239423 0.8842303
vt 0.67370325 0.8842303
vt 0.7540863 0.94547457
vt 0.7349475 0.88040257
vt 0.8115028 0.91485244
vt 0.65456444 0.78470844
vt 0.7693974 0.8650915
vt 0.86126375 0.8536082
vt 0.6239423 0.7158087
vt 0.80384725 0.8344694
vt 0.8918859 0.7464308
vt 0.7043254 0.7579141
vt 0.64690894 0.7043254
vt 0.8344694 0.7655696
vt 0.6890143 0.6277701
vt 0.6354256 0.6507367
vt 0.8268139 0.7081532
vt 0.6315979 0.64690894
vt 0.8191583 0.6928421
vt 0.8842303 0.7234642
vt 0.81533056 0.67753106
vt 0.8842303 0.7081532
vt 0.8115028 0.6698755
vt 0.81533056 0.6583922
vt 0.88040257 0.6966699
vt 0.8842303 0.68518656
vt 0.6277701 0.6392534
vt 0.6813588 0.62011456
vt 0.67370325 0.6162868
vt 0.7081532 0.60863125
vt 0.7043254 0.60097575
vt 0.74260306 0.5665259
vt 0.7655696 0.55504256
vt 0.84212494 0.6430812
vt 0.90719694 0.67370325
vt 0.86126375 0.62011456
vt 0.92633575 0.6354256
vt 0.86126375 0.59332025
vt 0.93399125 0.59332025
vt 0.8536082 0.5626981
vt 0.92633575 0.5588703
vt 0.8536082 0.5588703
vt 0.78470844 0.54355925
vt 0.8536082 0.55504256
vt 0.7004976 0.597148
vt 0.6239423 0.47465956
vt 0.6162868 0.48614284
vt 0.60097575 0.50910944
vn 0.49087173 0.87123185 -0
vn 0.42780066 0.9035055 0.02577621
vn 0.4594984 0.87180775 0.16974236
vn 0.52289397 0.84011 0.14421211
vn 0.6179873 0.7767145 0.12168102
vn 0.649685 0.74501675 0.15119323
vn 0.70698863 0.70722497 -0
vn 0.49119622 0.84011 0.2300902
vn 0.52289397 0.84011 0.14421211
vn 0.49087173 0.87123185 -0
vn 0.52289397 0.84011 0.14421211
vn 0.49087173 0.87123185 -0
vn 0.33270735 0.93520325 0.12124649
vn 0.33270735 0.93520325 -0.12124649
vn 0.42780066 0.87180775 0.23861659
vn 0.7130805 0.68162113 0.16403906
vn 0.70698863 0.70722497 -0
vn 0.52289397 0.84011 0.14421211
vn 0.52289397 0.5231324 0.6729892
vn 0.23761404 0.9669011 0.09296117
vn 0.14252079 0.9669011 0.21163654
vn 0.83987164 0.5231324 0.14473473
vn 0.8710725 0.49115434 -0
vn 0.7130805 0.61822563 0.33062553
vn 0.6813828 0.68162113 0.26666483
vn 0.9547141 0.2975244 -0
vn 0.9547141 0.2975244 -0
vn 0.80817384 0.5231324 0.27053198
vn 0.6813828 0.7133189 -0.16399291
vn 0.9316521 0.36335152 -0
vn 0.90326715 0.428039 -0.029850373
vn 0.8710725 0.49115434 -0
vn 0.83437425 0.5511985 -0
vn 0.83987164 0.5231324 -0.14473473
vn 0.8710725 0.49115434 -0
vn 0.8715694 0.45973676 -0.17032006
vn 0.9666627 0.20615464 0.1518666
vn 0.98993057 0.14155373 -0
vn 0.96325207 0.2685992 -0
vn 0.99836046 0.015968025 0.054967538
vn 0.99836046 -0.015729666 0.055036217
vn 0.9938693 0.11056178 -0
vn 0.99836046 -0.015729666 0.055036217
vn 0.90326715 0.39634126 -0.1643838
vn 0.9666627 0.14275914 -0.212563
vn 0.9316521 0.36335152 -0
vn 0.9349649 0.33294576 -0.122424595
vn 0.5862895 0.80841225 -0.052289996
vn 0.8710725 0.49115434 -0
vn 0.90326715 0.39634126 0.1643838
vn 0.73769283 0.6751365 -0
vn 0.80817384 0.5231324 0.27053198
vn 0.015729666 0.9985989 -0.050525904
vn -0.015968025 0.9985989 -0.05045094
vn -0.33294576 0.9035055 -0.2698609
vn 0.3010096 0.93520325 0.18651561
vn 0.14252079 0.9035055 0.40418512
vn -0.2378524 0.9669011 -0.09234972
vn -0.1415206 0.98993534 -0
vn 0.110822976 0.87180775 0.47714728
vn -0.015968025 0.9985989 0.05045094
vn 0.52289397 0.428039 0.7371326
vn 0.3010096 0.68162113 0.6669227
vn 0.80817384 0.5231324 0.27053198
vn 0.5862895 0.33294576 0.73851997
vn 0.9349649 0.14275914 0.32474682
vn 0.3010096 0.80841225 0.50582886
vn 0.80817384 0.55483013 0.1975312
vn 0.3010096 0.87180775 0.3864511
vn 0.42780066 0.9035055 0.02577621
vn 0.26831734 0.9633306 -0
vn 0.83987164 0.5231324 0.14473473
vn 0.26931185 0.9035055 -0.3333901
vn 0.9666627 0.1744569 0.18742463
vn 0.9349649 0.33294576 -0.122424595
vn 0.90326715 0.2378524 0.35711998
vn 0.99685526 0.079243995 -0
vn 0.74477834 0.4914345 -0.4514392
vn 0.80817384 0.39634126 -0.43562442
vn 0.33270735 0.45973676 -0.82337594
vn 0.649685 0.4914345 -0.58000124
vn 0.42780066 0.5865279 -0.68772936
vn 0.3010096 0.39634126 -0.86735624
vn -0.33294576 0.33294576 -0.88220984
vn -0.301248 0.4914345 -0.8171547
vn 0.42780066 0.3646435 -0.82705605
vn -0.2378524 0.87180775 -0.428226
vn 0.26831734 0.9633306 -0
vn -0.015968025 0.9985989 0.05045094
vn -0.4914345 0.61822563 -0.6134241
vn 0.99685526 0.079243995 -0
vn -0.20615464 0.26955026 -0.9406609
vn 0.3961029 0.20615464 -0.89476407
vn -0.428039 0.1744569 -0.8867623
vn -0.55483013 0.26955026 -0.78708714
vn -0.2378524 0.047665894 -0.97013104
vn -0.015968025 0.3646435 -0.93101025
vn -0.26955026 0.301248 -0.9146542
vn 0.52289397 0.4914345 -0.6964726
vn 0.110822976 0.6499234 -0.75187624
vn 0.52289397 0.74501675 -0.4141642
vn 0.90326715 0.39634126 0.1643838
vn -0.428039 0.2378524 -0.87189955
vn -0.111061394 0.428039 -0.89691025
vn -0.428039 0.33294576 -0.84019625
vn -0.4914345 0.5865279 -0.643799
vn -0.301248 0.93520325 -0.18613045
vn -0.14275914 0.93520325 0.3240597
vn 0.110822976 0.87180775 0.47714728
vn -0.1415206 0.98993534 -0
vn -0.301248 0.9035055 0.30484006
vn -0.015968025 0.93520325 0.35375118
vn -0.015968025 0.9669011 -0.2546512
vn -0.26955026 0.9035055 -0.3331973
vn 0.047427475 0.9669011 -0.25070474
vn -0.047665894 0.74501675 -0.66534054
vn -0.20615464 0.68162113 -0.7020633
vn -0.015968025 0.68162113 -0.731531
vn -0.14275914 0.3646435 -0.92013854
vn -0.111061394 0.33294576 -0.93638265
vn -0.20615464 0.20615464 -0.9565566
vn 0.23761404 0.428039 -0.8719645
vn -0.20615464 0.20615464 -0.9565566
vn -0.2378524 0.2378524 -0.9417285
vn -0.20615464 0.3646435 -0.9080393
vn -0.2378524 0.2378524 -0.9417285
vn -0.047665894 0.3646435 -0.9299264
vn 0.079125226 0.2378524 -0.96807307
vn 0.079125226 0.2378524 -0.96807307
vn 0.079125226 0.4914345 -0.86731267
vn -0.301248 0.2378524 -0.9234045
vn 0.110822976 0.4914345 -0.8638347
vn -0.047665894 0.2378524 -0.97013104
vn 0.047427475 0.6499234 -0.75851846
vn 0.047427475 0.68162113 -0.7301666
vn 0.110822976 0.39634126 -0.91139007
vn -0.14275914 0.93520325 -0.3240597
vn -0.111061394 0.93520325 -0.33624431
vn -0.1744569 0.84011 -0.51359516
vn -0.111061394 0.80841225 -0.5780441
vn -0.1744569 0.93520325 -0.30815527
vn 0.047427475 0.61822563 -0.7845685
vn -0.2378524 0.26955026 -0.93315
vn -0.45973676 0.33294576 -0.82327956
vn -0.2378524 0.80841225 -0.5384198
vn -0.111061394 0.80841225 -0.5780441
vn -0.1744569 0.84011 -0.51359516
vn -0.047665894 0.87180775 -0.4875236
vn 0.015729666 0.93520325 -0.35376188
vn -0.079363644 0.9035055 -0.4211641
vn -0.20615464 0.9035055 -0.3757367
vn -0.079363644 0.9669011 -0.24249457
vn -0.3646435 0.301248 -0.8810702
vn -0.2378524 0.84011 -0.4874848
vn -0.26955026 0.80841225 -0.5232708
vn -0.1744569 0.7767145 -0.6052102
vn -0.33294576 0.74501675 -0.5780114
vn 0.047427475 0.7767145 -0.62806463
vn -0.015968025 0.74501675 -0.6668546
vn -0.079363644 0.84011 -0.5365786
vn -0.111061394 0.93520325 -0.33624431
vn -0.111061394 0.87180775 -0.47709182
vn -0.111061394 0.7767145 -0.6199838
vn -0.301248 0.87180775 -0.38626534
vn -0.015968025 0.7767145 -0.62965035
vn -0.111061394 0.87180775 -0.47709182
vn -0.111061394 0.9035055 -0.41393617
vn -0.20615464 0.7767145 -0.59515953
vn 0.17421854 0.87180775 -0.45782
vn -0.301248 0.7767145 -0.55314034
vn -0.079363644 0.7767145 -0.62483275
vn -0.047665894 0.87180775 -0.4875236
vn -0.047665894 0.93520325 -0.3508887
vn -0.3646435 0.45973676 -0.809739
vn -0.39634126 0.7133189 -0.578005
vn -0.3646435 0.68162113 -0.63437194
vn 0.047427475 0.9985989 -0.023471808
vn -0.5865279 0.80841225 -0.04954431
vn -0.45973676 0.20615464 -0.86379534
vn -0.45973676 0.87180775 -0.16909571
vn -0.1744569 0.428039 -0.8867623
vn -0.39634126 0.26955026 -0.87764245
vn -0.111061394 0.68162113 -0.7232275
vn -0.20615464 0.6499234 -0.7315052
vn 0.110822976 0.6499234 -0.75187624
vn -0.26955026 0.9035055 -0.3331973
vn 0.3010096 0.6499234 -0.6978487
vn -0.45350307 0.8912546 -0
vn 0.33270735 0.7133189 -0.61683226
vn -0.26955026 0.68162113 -0.6802465
vn 0.110822976 0.9035055 -0.4140001
vn -0.2378524 0.3646435 -0.9002563
vn 0.5862895 0.74501675 -0.3181425
vn 0.079125226 0.5865279 -0.8060547
vn 0.079125226 0.68162113 -0.7274145
vn 0.14252079 0.93520325 -0.3241646
vn 0.20591629 0.84011 -0.50181043
vn 0.3010096 0.9035055 -0.30507538
vn 0.17421854 0.61822563 -0.7664496
vn 0.42780066 0.84011 -0.33346936
vn 0.49087173 0.87123185 -0
vn 0.20591629 0.87180775 -0.4444657
vn 0.5545917 0.80841225 -0.19722483
vn 0.52289397 0.84011 0.14421211
vn 0.6073197 0.7944576 -0
vn 0.5509246 0.834555 -0
vn 0.5862895 0.80841225 0.052289996
vn 0.5862895 0.7767145 0.23017205
vn 0.42780066 0.87180775 0.23861659
vn 0.5545917 0.74501675 0.37064543
vn 0.70698863 0.70722497 -0
vn 0.49119622 0.7133189 0.4999025
vn 0.4594984 0.7767145 0.4307851
vn 0.52289397 0.7767145 0.351136
vn 0.4594984 0.84011 0.2882298
vn 0.5862895 0.80841225 0.052289996
vn 0.52289397 0.80841225 -0.27028054
vn 0.4594984 0.87180775 0.16974236
vn 0.4594984 0.80841225 -0.36787343
vn 0.7764761 0.61822563 -0.12199167
vn 0.649685 0.74501675 0.15119323
vn 0.7764761 0.61822563 0.12199167
vn 0.6179873 0.74501675 0.25108117
vn 0.649685 0.74501675 0.15119323
vn 0.6415954 0.76704323 -0
vn 0.4594984 0.84011 -0.2882298
vn 0.49119622 0.80841225 -0.32433924
vn 0.52289397 0.84011 -0.14421211
vn 0.5509246 0.834555 -0
vn 0.52289397 0.84011 0.14421211
vn 0.49119622 0.80841225 0.32433924
vn 0.4594984 0.84011 0.2882298
vn 0.49119622 0.7767145 0.3942599
vn 0.3644051 0.84011 0.40177625
vn 0.33270735 0.74501675 0.57814866
vn 0.5862895 0.61822563 0.523509
vn 0.5862895 0.74501675 0.3181425
vn 0.74477834 0.6499234 0.15134336
vn 0.83987164 0.5231324 0.14473473
vn 0.83987164 0.5231324 0.14473473
vn 0.90326715 0.3646435 0.22614938
g trenchwall_02_mesh_0
f 3/3/3 2/2/2 1/1/1
f 4/4/4 3/3/3 1/1/1
f 4/4/4 1/1/1 5/5/5
f 6/6/6 4/4/4 5/5/5
f 6/6/6 5/5/5 7/7/7
f 4/4/4 8/8/8 3/3/3
f 4/4/4 6/6/6 8/8/8
f 8/8/8 9/9/9 3/3/3
f 8/8/8 10/10/10 9/9/9
f 10/10/10 11/11/11 9/9/9
f 6/6/6 12/12/12 8/8/8
f 8/8/8 12/12/12 10/10/10
f 10/10/10 13/13/13 11/11/11
f 13/13/13 14/14/14 11/11/11
f 12/12/12 15/15/15 10/10/10
f 10/10/10 15/15/15 13/13/13
f 13/13/13 16/16/16 14/14/14
f 16/16/16 17/17/17 14/14/14
f 12/12/12 6/6/6 18/18/18
f 15/15/15 12/12/12 18/18/18
f 19/19/19 18/18/18 6/6/6
f 15/15/15 20/20/20 13/13/13
f 13/13/13 20/20/20 16/16/16
f 15/15/15 18/18/18 21/21/21
f 19/19/19 21/21/21 18/18/18
f 20/20/20 15/15/15 21/21/21
f 16/16/16 22/22/22 17/17/17
f 22/22/22 23/23/23 17/17/17
f 20/20/20 21/21/21 24/24/24
f 19/19/19 24/24/24 21/21/21
f 20/20/20 25/25/25 16/16/16
f 16/16/16 25/25/25 22/22/22
f 25/25/25 20/20/20 24/24/24
f 22/22/22 26/26/26 23/23/23
f 26/26/26 27/27/27 23/23/23
f 25/25/25 28/28/28 22/22/22
f 28/28/28 25/25/25 24/24/24
f 22/22/22 28/28/28 26/26/26
f 28/28/28 24/24/24 29/29/29
f 19/19/19 29/29/29 24/24/24
f 28/28/28 29/29/29 30/30/30
f 28/28/28 30/30/30 26/26/26
f 26/26/26 31/31/31 27/27/27
f 26/26/26 30/30/30 31/31/31
f 31/31/31 32/32/32 27/27/27
f 30/30/30 33/33/33 31/31/31
f 30/30/30 29/29/29 33/33/33
f 32/32/32 31/31/31 34/34/34
f 34/34/34 31/31/31 33/33/33
f 32/32/32 34/34/34 35/35/35
f 36/36/36 32/32/32 35/35/35
f 35/35/35 37/37/37 36/36/36
f 38/38/38 36/36/36 37/37/37
f 35/35/35 34/34/34 39/39/39
f 34/34/34 33/33/33 39/39/39
f 35/35/35 39/39/39 37/37/37
f 39/39/39 40/40/40 37/37/37
f 39/39/39 41/41/41 40/40/40
f 40/40/40 41/41/41 42/42/42
f 42/42/42 41/41/41 43/43/43
f 39/39/39 44/44/44 41/41/41
f 39/39/39 33/33/33 44/44/44
f 33/33/33 29/29/29 44/44/44
f 45/45/45 38/38/38 37/37/37
f 46/46/46 38/38/38 45/45/45
f 47/47/47 46/46/46 45/45/45
f 48/48/48 46/46/46 47/47/47
f 44/44/44 49/49/49 41/41/41
f 44/44/44 29/29/29 49/49/49
f 45/45/45 37/37/37 50/50/50
f 47/47/47 45/45/45 50/50/50
f 51/51/51 48/48/48 47/47/47
f 47/47/47 50/50/50 52/52/52
f 51/51/51 47/47/47 52/52/52
f 51/51/51 53/53/53 48/48/48
f 53/53/53 54/54/54 48/48/48
f 55/55/55 54/54/54 53/53/53
f 52/52/52 56/56/56 51/51/51
f 56/56/56 53/53/53 51/51/51
f 56/56/56 57/57/57 53/53/53
f 58/58/58 55/55/55 53/53/53
f 58/58/58 53/53/53 57/57/57
f 59/59/59 55/55/55 58/58/58
f 60/60/60 59/59/59 58/58/58
f 60/60/60 58/58/58 57/57/57
f 61/61/61 60/60/60 57/57/57
f 52/52/52 50/50/50 62/62/62
f 52/52/52 62/62/62 56/56/56
f 56/56/56 63/63/63 57/57/57
f 62/62/62 63/63/63 56/56/56
f 62/62/62 64/64/64 63/63/63
f 50/50/50 65/65/65 62/62/62
f 62/62/62 65/65/65 64/64/64
f 50/50/50 37/37/37 65/65/65
f 37/37/37 66/66/66 65/65/65
f 65/65/65 66/66/66 64/64/64
f 66/66/66 37/37/37 40/40/40
f 63/63/63 67/67/67 57/57/57
f 64/64/64 67/67/67 63/63/63
f 64/64/64 68/68/68 67/67/67
f 68/68/68 69/69/69 67/67/67
f 69/69/69 57/57/57 67/67/67
f 69/69/69 61/61/61 57/57/57
f 61/61/61 69/69/69 70/70/70
f 69/69/69 68/68/68 70/70/70
f 71/71/71 61/61/61 70/70/70
f 70/70/70 72/72/72 71/71/71
f 68/68/68 72/72/72 70/70/70
f 73/73/73 71/71/71 72/72/72
f 66/66/66 74/74/74 64/64/64
f 74/74/74 66/66/66 40/40/40
f 64/64/64 74/74/74 75/75/75
f 68/68/68 64/64/64 75/75/75
f 75/75/75 74/74/74 40/40/40
f 75/75/75 40/40/40 76/76/76
f 75/75/75 76/76/76 68/68/68
f 76/76/76 40/40/40 77/77/77
f 76/76/76 77/77/77 68/68/68
f 77/77/77 40/40/40 42/42/42
f 77/77/77 42/42/42 68/68/68
f 68/68/68 42/42/42 72/72/72
f 78/78/78 73/73/73 72/72/72
f 78/78/78 72/72/72 42/42/42
f 42/42/42 79/79/79 78/78/78
f 73/73/73 78/78/78 80/80/80
f 78/78/78 79/79/79 80/80/80
f 42/42/42 81/81/81 79/79/79
f 81/81/81 42/42/42 43/43/43
f 79/79/79 81/81/81 82/82/82
f 82/82/82 81/81/81 43/43/43
f 79/79/79 83/83/83 80/80/80
f 83/83/83 79/79/79 82/82/82
f 80/80/80 83/83/83 84/84/84
f 83/83/83 82/82/82 84/84/84
f 80/80/80 85/85/85 73/73/73
f 80/80/80 84/84/84 85/85/85
f 86/86/86 82/82/82 43/43/43
f 84/84/84 82/82/82 86/86/86
f 85/85/85 87/87/87 73/73/73
f 88/88/88 73/73/73 87/87/87
f 89/89/89 88/88/88 87/87/87
f 87/87/87 85/85/85 90/90/90
f 90/90/90 85/85/85 84/84/84
f 89/89/89 87/87/87 90/90/90
f 43/43/43 91/91/91 86/86/86
f 91/91/91 43/43/43 41/41/41
f 92/92/92 84/84/84 86/86/86
f 93/93/93 86/86/86 91/91/91
f 86/86/86 93/93/93 92/92/92
f 84/84/84 92/92/92 94/94/94
f 84/84/84 95/95/95 90/90/90
f 84/84/84 94/94/94 95/95/95
f 96/96/96 92/92/92 93/93/93
f 96/96/96 94/94/94 92/92/92
f 96/96/96 93/93/93 97/97/97
f 94/94/94 96/96/96 97/97/97
f 98/98/98 94/94/94 97/97/97
f 93/93/93 91/91/91 99/99/99
f 99/99/99 97/97/97 93/93/93
f 97/97/97 99/99/99 100/100/100
f 101/101/101 100/100/100 99/99/99
f 102/102/102 99/99/99 91/91/91
f 99/99/99 102/102/102 101/101/101
f 91/91/91 41/41/41 102/102/102
f 103/103/103 95/95/95 94/94/94
f 103/103/103 94/94/94 98/98/98
f 100/100/100 104/104/104 97/97/97
f 104/104/104 98/98/98 97/97/97
f 105/105/105 95/95/95 103/103/103
f 95/95/95 105/105/105 106/106/106
f 106/106/106 90/90/90 95/95/95
f 106/106/106 107/107/107 90/90/90
f 89/89/89 90/90/90 107/107/107
f 108/108/108 89/89/89 107/107/107
f 108/108/108 109/109/109 89/89/89
f 110/110/110 109/109/109 108/108/108
f 110/110/110 108/108/108 111/111/111
f 111/111/111 108/108/108 112/112/112
f 108/108/108 107/107/107 112/112/112
f 111/111/111 112/112/112 113/113/113
f 107/107/107 106/106/106 114/114/114
f 107/107/107 114/114/114 112/112/112
f 112/112/112 115/115/115 113/113/113
f 114/114/114 115/115/115 112/112/112
f 116/116/116 113/113/113 115/115/115
f 117/117/117 114/114/114 106/106/106
f 114/114/114 117/117/117 115/115/115
f 117/117/117 106/106/106 105/105/105
f 118/118/118 116/116/116 115/115/115
f 118/118/118 115/115/115 117/117/117
f 119/119/119 116/116/116 118/118/118
f 120/120/120 119/119/119 118/118/118
f 118/118/118 117/117/117 120/120/120
f 121/121/121 119/119/119 120/120/120
f 105/105/105 122/122/122 117/117/117
f 122/122/122 120/120/120 117/117/117
f 123/123/123 121/121/121 120/120/120
f 123/123/123 120/120/120 122/122/122
f 122/122/122 105/105/105 124/124/124
f 123/123/123 122/122/122 124/124/124
f 124/124/124 121/121/121 123/123/123
f 124/124/124 105/105/105 103/103/103
f 124/124/124 125/125/125 121/121/121
f 126/126/126 124/124/124 103/103/103
f 126/126/126 125/125/125 124/124/124
f 126/126/126 127/127/127 125/125/125
f 126/126/126 103/103/103 98/98/98
f 126/126/126 128/128/128 127/127/127
f 128/128/128 129/129/129 127/127/127
f 128/128/128 130/130/130 129/129/129
f 131/131/131 126/126/126 98/98/98
f 126/126/126 131/131/131 128/128/128
f 132/132/132 130/130/130 128/128/128
f 131/131/131 133/133/133 128/128/128
f 128/128/128 133/133/133 132/132/132
f 132/132/132 134/134/134 130/130/130
f 134/134/134 135/135/135 130/130/130
f 133/133/133 136/136/136 132/132/132
f 132/132/132 136/136/136 134/134/134
f 134/134/134 137/137/137 135/135/135
f 137/137/137 138/138/138 135/135/135
f 137/137/137 139/139/139 138/138/138
f 139/139/139 140/140/140 138/138/138
f 137/137/137 134/134/134 141/141/141
f 137/137/137 141/141/141 139/139/139
f 136/136/136 142/142/142 134/134/134
f 134/134/134 142/142/142 141/141/141
f 133/133/133 143/143/143 136/136/136
f 136/136/136 143/143/143 142/142/142
f 131/131/131 144/144/144 133/133/133
f 144/144/144 143/143/143 133/133/133
f 139/139/139 145/145/145 140/140/140
f 145/145/145 146/146/146 140/140/140
f 145/145/145 147/147/147 146/146/146
f 147/147/147 148/148/148 146/146/146
f 148/148/148 147/147/147 149/149/149
f 147/147/147 150/150/150 149/149/149
f 141/141/141 151/151/151 139/139/139
f 139/139/139 151/151/151 145/145/145
f 141/141/141 142/142/142 152/152/152
f 141/141/141 152/152/152 151/151/151
f 144/144/144 131/131/131 153/153/153
f 131/131/131 98/98/98 153/153/153
f 151/151/151 154/154/154 145/145/145
f 145/145/145 154/154/154 147/147/147
f 147/147/147 155/155/155 150/150/150
f 155/155/155 156/156/156 150/150/150
f 155/155/155 147/147/147 157/157/157
f 154/154/154 157/157/157 147/147/147
f 155/155/155 158/158/158 156/156/156
f 155/155/155 157/157/157 158/158/158
f 158/158/158 159/159/159 156/156/156
f 158/158/158 160/160/160 159/159/159
f 151/151/151 161/161/161 154/154/154
f 152/152/152 161/161/161 151/151/151
f 154/154/154 162/162/162 157/157/157
f 161/161/161 162/162/162 154/154/154
f 158/158/158 163/163/163 160/160/160
f 163/163/163 164/164/164 160/160/160
f 157/157/157 165/165/165 158/158/158
f 162/162/162 165/165/165 157/157/157
f 163/163/163 158/158/158 165/165/165
f 163/163/163 166/166/166 164/164/164
f 166/166/166 167/167/167 164/164/164
f 166/166/166 168/168/168 167/167/167
f 168/168/168 169/169/169 167/167/167
f 170/170/170 169/169/169 168/168/168
f 163/163/163 165/165/165 171/171/171
f 166/166/166 163/163/163 171/171/171
f 171/171/171 165/165/165 162/162/162
f 166/166/166 171/171/171 168/168/168
f 172/172/172 162/162/162 161/161/161
f 172/172/172 171/171/171 162/162/162
f 173/173/173 172/172/172 161/161/161
f 173/173/173 161/161/161 152/152/152
f 174/174/174 171/171/171 172/172/172
f 174/174/174 172/172/172 173/173/173
f 168/168/168 171/171/171 174/174/174
f 170/170/170 168/168/168 175/175/175
f 176/176/176 170/170/170 175/175/175
f 177/177/177 173/173/173 152/152/152
f 174/174/174 173/173/173 177/177/177
f 168/168/168 174/174/174 178/178/178
f 168/168/168 178/178/178 175/175/175
f 174/174/174 177/177/177 179/179/179
f 178/178/178 174/174/174 180/180/180
f 177/177/177 152/152/152 181/181/181
f 179/179/179 177/177/177 181/181/181
f 142/142/142 181/181/181 152/152/152
f 143/143/143 181/181/181 142/142/142
f 179/179/179 181/181/181 143/143/143
f 182/182/182 179/179/179 143/143/143
f 174/174/174 179/179/179 182/182/182
f 144/144/144 182/182/182 143/143/143
f 144/144/144 153/153/153 182/182/182
f 182/182/182 153/153/153 174/174/174
f 176/176/176 175/175/175 183/183/183
f 184/184/184 176/176/176 183/183/183
f 184/184/184 183/183/183 185/185/185
f 175/175/175 178/178/178 186/186/186
f 183/183/183 175/175/175 186/186/186
f 178/178/178 180/180/180 186/186/186
f 183/183/183 186/186/186 100/100/100
f 186/186/186 180/180/180 100/100/100
f 183/183/183 187/187/187 185/185/185
f 183/183/183 100/100/100 187/187/187
f 180/180/180 188/188/188 100/100/100
f 174/174/174 188/188/188 180/180/180
f 189/189/189 187/187/187 100/100/100
f 189/189/189 185/185/185 187/187/187
f 100/100/100 188/188/188 190/190/190
f 188/188/188 174/174/174 190/190/190
f 189/189/189 191/191/191 185/185/185
f 190/190/190 174/174/174 104/104/104
f 100/100/100 190/190/190 104/104/104
f 174/174/174 192/192/192 104/104/104
f 104/104/104 192/192/192 98/98/98
f 153/153/153 192/192/192 174/174/174
f 153/153/153 98/98/98 192/192/192
f 189/189/189 193/193/193 191/191/191
f 193/193/193 189/189/189 100/100/100
f 193/193/193 194/194/194 191/191/191
f 194/194/194 193/193/193 100/100/100
f 194/194/194 195/195/195 191/191/191
f 194/194/194 100/100/100 195/195/195
f 196/196/196 191/191/191 195/195/195
f 197/197/197 196/196/196 195/195/195
f 198/198/198 196/196/196 197/197/197
f 100/100/100 199/199/199 195/195/195
f 197/197/197 195/195/195 199/199/199
f 200/200/200 198/198/198 197/197/197
f 200/200/200 197/197/197 199/199/199
f 198/198/198 200/200/200 201/201/201
f 202/202/202 199/199/199 100/100/100
f 101/101/101 202/202/202 100/100/100
f 200/200/200 203/203/203 201/201/201
f 201/201/201 203/203/203 204/204/204
f 205/205/205 200/200/200 199/199/199
f 199/199/199 202/202/202 205/205/205
f 200/200/200 205/205/205 203/203/203
f 202/202/202 101/101/101 206/206/206
f 206/206/206 205/205/205 202/202/202
f 203/203/203 205/205/205 207/207/207
f 203/203/203 207/207/207 204/204/204
f 208/208/208 205/205/205 206/206/206
f 208/208/208 207/207/207 205/205/205
f 208/208/208 206/206/206 209/209/209
f 209/209/209 206/206/206 101/101/101
f 208/208/208 210/210/210 207/207/207
f 210/210/210 204/204/204 207/207/207
f 209/209/209 211/211/211 208/208/208
f 211/211/211 209/209/209 101/101/101
f 210/210/210 212/212/212 204/204/204
f 210/210/210 208/208/208 212/212/212
f 212/212/212 213/213/213 204/204/204
f 212/212/212 214/214/214 213/213/213
f 212/212/212 208/208/208 214/214/214
f 214/214/214 215/215/215 213/213/213
f 214/214/214 216/216/216 215/215/215
f 214/214/214 208/208/208 216/216/216
f 216/216/216 208/208/208 217/217/217
f 216/216/216 218/218/218 215/215/215
f 216/216/216 217/217/217 218/218/218
f 217/217/217 219/219/219 218/218/218
f 220/220/220 211/211/211 101/101/101
f 220/220/220 101/101/101 102/102/102
f 211/211/211 221/221/221 208/208/208
f 211/211/211 220/220/220 221/221/221
f 220/220/220 102/102/102 222/222/222
f 220/220/220 222/222/222 221/221/221
f 208/208/208 221/221/221 223/223/223
f 208/208/208 223/223/223 217/217/217
f 221/221/221 224/224/224 223/223/223
f 221/221/221 222/222/222 224/224/224
f 225/225/225 223/223/223 224/224/224
f 217/217/217 223/223/223 225/225/225
f 217/217/217 225/225/225 226/226/226
f 217/217/217 227/227/227 219/219/219
f 227/227/227 217/217/217 226/226/226
f 227/227/227 228/228/228 219/219/219
f 227/227/227 229/229/229 228/228/228
f 229/229/229 227/227/227 226/226/226
f 229/229/229 230/230/230 228/228/228
f 229/229/229 231/231/231 230/230/230
f 229/229/229 226/226/226 231/231/231
f 231/231/231 232/232/232 230/230/230
f 231/231/231 233/233/233 232/232/232
f 231/231/231 226/226/226 233/233/233
f 233/233/233 234/234/234 232/232/232
f 233/233/233 235/235/235 234/234/234
f 235/235/235 7/7/7 234/234/234
f 226/226/226 236/236/236 233/233/233
f 236/236/236 235/235/235 233/233/233
f 235/235/235 237/237/237 7/7/7
f 237/237/237 6/6/6 7/7/7
f 237/237/237 19/19/19 6/6/6
f 19/19/19 237/237/237 235/235/235
f 236/236/236 19/19/19 235/235/235
f 236/236/236 29/29/29 19/19/19
f 226/226/226 29/29/29 236/236/236
f 226/226/226 225/225/225 29/29/29
f 225/225/225 49/49/49 29/29/29
f 225/225/225 238/238/238 49/49/49
f 225/225/225 224/224/224 238/238/238
f 222/222/222 238/238/238 224/224/224
f 238/238/238 239/239/239 49/49/49
f 239/239/239 41/41/41 49/49/49
f 240/240/240 239/239/239 238/238/238
f 222/222/222 240/240/240 238/238/238
f 240/240/240 41/41/41 239/239/239
f 241/241/241 240/240/240 222/222/222
f 241/241/241 41/41/41 240/240/240
f 241/241/241 222/222/222 102/102/102
f 241/241/241 102/102/102 41/41/41
