g tt_territories_4v4_front_base
v 0.03689438 0.95366615 -0.35112053
v 0.03689438 0.95366615 -0.57107884
v 0.2987495 0.95366615 -0.57107884
v 0.37057263 0.95366615 -0.557612
v 0.4289289 0.95366615 -0.53067833
v 0.48429257 0.95366615 -0.4872852
v 0.5261894 0.95366615 -0.4364105
v 0.05485016 0.95366615 -0.35112053
v 0.1087175 0.95366615 -0.3376537
v 0.557612 0.95366615 -0.37955052
v 0.15959221 0.95366615 -0.3167053
v 0.5695825 0.95366615 -0.3376537
v 0.20747429 0.95366615 -0.2882753
v 0.5770641 0.95366615 -0.28977162
v 0.24937111 0.95366615 -0.25236374
v 0.28528267 0.95366615 -0.21046692
v 0.31371266 0.95366615 -0.16408116
v 0.33615738 0.95366615 -0.113206446
v 0.34962422 0.95366615 -0.06083542
v 0.35112053 0.95366615 -0.047368586
v 0.5770641 0.95366615 -0.047368586
vt 0.62290555 0.35828653
vt 0.62290555 0.25417414
vt 0.51300913 0.25417414
vt 0.5072251 0.28454027
vt 0.50433314 0.29177028
vt 0.50288707 0.29900032
vt 0.49999508 0.31490636
vt 0.6185675 0.35973254
vt 0.6055535 0.36551657
vt 0.49421108 0.34527248
vt 0.5925394 0.3741926
vt 0.48987305 0.35973254
vt 0.58097136 0.38720664
vt 0.48698103 0.3756386
vt 0.57084936 0.4031127
vt 0.5607273 0.42191076
vt 0.5549433 0.44360086
vt 0.5491593 0.46529096
vt 0.54482126 0.48987305
vt 0.54482126 0.49565706
vt 0.46095294 0.49565706
vn -0 1 -0
vn -0 1 -0
vn -0 1 -0
vn -0 1 -0
vn -0 1 -0
vn -0 1 -0
vn -0 1 -0
vn -0 1 -0
vn -0 1 -0
vn -0 1 -0
vn -0 1 -0
vn -0 1 -0
vn -0 1 -0
vn -0 1 -0
vn -0 1 -0
vn -0 1 -0
vn -0 1 -0
vn -0 1 -0
vn -0 1 -0
vn -0 1 -0
vn -0 1 -0
g tt_territories_4v4_front_base_0
f 3/3/3 2/2/2 1/1/1
f 4/4/4 3/3/3 1/1/1
f 5/5/5 4/4/4 1/1/1
f 6/6/6 5/5/5 1/1/1
f 7/7/7 6/6/6 1/1/1
f 8/8/8 7/7/7 1/1/1
f 8/8/8 9/9/9 7/7/7
f 9/9/9 10/10/10 7/7/7
f 9/9/9 11/11/11 10/10/10
f 11/11/11 12/12/12 10/10/10
f 11/11/11 13/13/13 12/12/12
f 13/13/13 14/14/14 12/12/12
f 13/13/13 15/15/15 14/14/14
f 15/15/15 16/16/16 14/14/14
f 16/16/16 17/17/17 14/14/14
f 17/17/17 18/18/18 14/14/14
f 18/18/18 19/19/19 14/14/14
f 19/19/19 20/20/20 14/14/14
f 20/20/20 21/21/21 14/14/14
