g tt_territories_4v4_back_base
v 1.0266993 0.9536661 -0.28914386
v 1.0266993 0.9536661 -0.047163785
v 0.6337236 0.9536661 -0.047163785
v 0.6337236 0.9536661 -0.28914386
v 1.0266993 0.9536661 -0.48079216
v 0.6279161 0.9536661 -0.3375399
v 0.94926566 0.9536661 -0.5698408
v 0.61436516 0.9536661 -0.38012838
v 0.5911351 0.9536661 -0.4362678
v 0.5562899 0.9536661 -0.48659968
v 0.5156373 0.9536661 -0.531124
v 0.45756203 0.9536661 -0.5698408
v 0.47111297 0.9536661 -0.56209743
vt 0.37753227 0.39839885
vt 0.37753227 0.49609235
vt 0.41926542 0.49609235
vt 0.43823504 0.37563533
vt 0.37753227 0.3016538
vt 0.44108048 0.36045963
vt 0.40314126 0.25422978
vt 0.44392592 0.34528393
vt 0.4486683 0.31493255
vt 0.45056528 0.29975685
vt 0.45341074 0.28458115
vt 0.45815313 0.25422978
vt 0.4553077 0.26940548
vn -0 1 -0
vn -0 1 -0
vn -0 1 -0
vn -0 1 -0
vn -0 1 -0
vn -0 1 -0
vn -0 1 -0
vn -0 1 -0
vn -0 1 -0
vn -0 1 -0
vn -0 1 -0
vn -0 1 -0
vn -0 1 -0
g tt_territories_4v4_back_base_0
f 3/3/3 2/2/2 1/1/1
f 4/4/4 3/3/3 1/1/1
f 4/4/4 1/1/1 5/5/5
f 6/6/6 4/4/4 5/5/5
f 6/6/6 5/5/5 7/7/7
f 8/8/8 6/6/6 7/7/7
f 9/9/9 8/8/8 7/7/7
f 10/10/10 9/9/9 7/7/7
f 11/11/11 10/10/10 7/7/7
f 11/11/11 7/7/7 12/12/12
f 13/13/13 11/11/11 12/12/12
