g tt_territories_4v4_back_border
v 0.9537432 0.94783294 -0.5784833
v 1.035406 0.94783294 -0.48321003
v 1.0276285 0.9536661 -0.48126566
v 0.9498545 0.9536661 -0.5707059
v 0.63292515 0.9536661 -0.047675192
v 1.0276285 0.9536661 -0.047675192
v 1.035406 0.94783294 -0.037953436
v 0.6232034 0.94783294 -0.037953436
v 1.0276285 0.9536661 -0.2907192
v 1.0276285 0.9536661 -0.48126566
v 1.035406 0.94783294 -0.48321003
v 1.035406 0.94783294 -0.2907192
v 1.0276285 0.9536661 -0.047675192
v 1.035406 0.94783294 -0.037953436
v 1.035406 0.9381112 -0.2907192
v 1.035406 0.94783294 -0.48321003
v 1.035406 0.9381112 -0.48321003
v 1.035406 0.94783294 -0.2907192
v 1.035406 0.9381112 -0.037953436
v 1.035406 0.94783294 -0.037953436
v 0.6232034 0.9381112 -0.037953436
v 0.6232034 0.94783294 -0.037953436
v 1.035406 0.94783294 -0.037953436
v 1.035406 0.9381112 -0.037953436
v 1.035406 0.9381112 -0.48321003
v 1.035406 0.94783294 -0.48321003
v 0.9537432 0.94783294 -0.5784833
v 0.9537432 0.9381112 -0.5784833
v 0.43265688 0.94783294 -0.5784833
v 0.9537432 0.94783294 -0.5784833
v 0.9498545 0.9536661 -0.5707059
v 0.45598912 0.9536661 -0.5707059
v 0.9537432 0.94783294 -0.5784833
v 0.43265688 0.94783294 -0.5784833
v 0.43265688 0.9381112 -0.5784833
v 0.9537432 0.9381112 -0.5784833
v 0.63292515 0.9536661 -0.2907192
v 0.63292515 0.9536661 -0.047675192
v 0.6232034 0.94783294 -0.037953436
v 0.6232034 0.94783294 -0.2907192
v 0.6232034 0.94783294 -0.2907192
v 0.6232034 0.94783294 -0.037953436
v 0.6232034 0.9381112 -0.037953436
v 0.6232034 0.9381112 -0.2907192
v 0.45598912 0.9536661 -0.5707059
v 0.4715439 0.9536661 -0.56098413
v 0.46376652 0.94783294 -0.56098413
v 0.43265688 0.94783294 -0.5784833
v 0.43265688 0.94783294 -0.5784833
v 0.46376652 0.94783294 -0.56098413
v 0.46376652 0.9381112 -0.56098413
v 0.43265688 0.9381112 -0.5784833
v 0.58042765 0.94783294 -0.4365456
v 0.6037599 0.94783294 -0.38015938
v 0.6037599 0.9381112 -0.38015938
v 0.58042765 0.9381112 -0.4365456
v 0.5901494 0.9536661 -0.4365456
v 0.61542594 0.9536661 -0.38015938
v 0.6037599 0.94783294 -0.38015938
v 0.58042765 0.94783294 -0.4365456
v 0.50654227 0.94783294 -0.5298745
v 0.54737365 0.94783294 -0.48709875
v 0.54737365 0.9381112 -0.48709875
v 0.50654227 0.9381112 -0.5298745
v 0.51431966 0.9536661 -0.5298745
v 0.5551511 0.9536661 -0.48709875
v 0.54737365 0.94783294 -0.48709875
v 0.50654227 0.94783294 -0.5298745
v 0.46376652 0.94783294 -0.56098413
v 0.50654227 0.94783294 -0.5298745
v 0.50654227 0.9381112 -0.5298745
v 0.46376652 0.9381112 -0.56098413
v 0.4715439 0.9536661 -0.56098413
v 0.51431966 0.9536661 -0.5298745
v 0.50654227 0.94783294 -0.5298745
v 0.46376652 0.94783294 -0.56098413
v 0.6037599 0.94783294 -0.38015938
v 0.61737037 0.94783294 -0.33738363
v 0.61737037 0.9381112 -0.33738363
v 0.6037599 0.9381112 -0.38015938
v 0.61542594 0.9536661 -0.38015938
v 0.6270921 0.9536661 -0.33738363
v 0.61737037 0.94783294 -0.33738363
v 0.6037599 0.94783294 -0.38015938
v 0.61737037 0.94783294 -0.33738363
v 0.6232034 0.94783294 -0.2907192
v 0.6232034 0.9381112 -0.2907192
v 0.61737037 0.9381112 -0.33738363
v 0.6270921 0.9536661 -0.33738363
v 0.63292515 0.9536661 -0.2907192
v 0.6232034 0.94783294 -0.2907192
v 0.61737037 0.94783294 -0.33738363
v 0.54737365 0.94783294 -0.48709875
v 0.58042765 0.94783294 -0.4365456
v 0.58042765 0.9381112 -0.4365456
v 0.54737365 0.9381112 -0.48709875
v 0.5551511 0.9536661 -0.48709875
v 0.5901494 0.9536661 -0.4365456
v 0.58042765 0.94783294 -0.4365456
v 0.54737365 0.94783294 -0.48709875
vt 0.40392157 0.22352941
vt 0.3764706 0.29803923
vt 0.3764706 0.3019608
vt 0.40392157 0.25490198
vt 0.41960785 0.49803922
vt 0.3764706 0.49803922
vt 0.3764706 0.5294118
vt 0.41960785 0.5294118
vt 0.22745098 0.2509804
vt 0.3254902 0.2509804
vt 0.3254902 0.22352941
vt 0.22352941 0.22352941
vt 0.12941177 0.2509804
vt 0.1254902 0.22352941
vt 0.22352941 -3.7252903E-09
vt 0.3254902 0.22352941
vt 0.3254902 -3.7252903E-09
vt 0.22352941 0.22352941
vt 0.1254902 -3.7252903E-09
vt 0.1254902 0.22352941
vt 0.41960785 0.7490196
vt 0.41960785 0.5294118
vt 0.3764706 0.5294118
vt 0.3764706 0.7490196
vt 0.3254902 -3.7252903E-09
vt 0.3254902 0.22352941
vt 0.40392157 0.22352941
vt 0.40392157 -3.7252903E-09
vt 0.45882353 0.22352941
vt 0.40392157 0.22352941
vt 0.40392157 0.25490198
vt 0.45882353 0.25490198
vt 0.40392157 0.22352941
vt 0.45882353 0.22352941
vt 0.45882353 -3.7252903E-09
vt 0.40392157 -3.7252903E-09
vt 0.49019608 0.38431373
vt 0.007843134 0.7647059
vt -3.7252903E-09 0.78039217
vt 0.5019608 0.3882353
vt -3.7252903E-09 0.5019608
vt -3.7252903E-09 1
vt 0.015686272 1
vt 0.015686272 0.5019608
vt 0.9764706 -3.7252903E-09
vt 0.9137255 0.04705882
vt 0.9372549 0.04705882
vt 1 -3.7252903E-09
vt -3.7252903E-09 -3.7252903E-09
vt -3.7252903E-09 0.062745094
vt 0.015686272 0.062745094
vt 0.015686272 -3.7252903E-09
vt -3.7252903E-09 0.2509804
vt -3.7252903E-09 0.3764706
vt 0.015686272 0.3764706
vt 0.015686272 0.2509804
vt 0.73333335 0.19215687
vt 0.6117647 0.28627452
vt 0.62352943 0.2901961
vt 0.7490196 0.19607843
vt -3.7252903E-09 0.1254902
vt -3.7252903E-09 0.1882353
vt 0.015686272 0.1882353
vt 0.015686272 0.1254902
vt 0.85490197 0.09411764
vt 0.7921569 0.14509805
vt 0.8117647 0.14509805
vt 0.8745098 0.09803921
vt -3.7252903E-09 0.062745094
vt -3.7252903E-09 0.1254902
vt 0.015686272 0.1254902
vt 0.015686272 0.062745094
vt 0.9137255 0.04705882
vt 0.85490197 0.09411764
vt 0.8745098 0.09803921
vt 0.9372549 0.04705882
vt -3.7252903E-09 0.3764706
vt -3.7252903E-09 0.4392157
vt 0.015686272 0.4392157
vt 0.015686272 0.3764706
vt 0.6117647 0.28627452
vt 0.5529412 0.33333334
vt 0.56078434 0.34117648
vt 0.62352943 0.2901961
vt -3.7252903E-09 0.4392157
vt -3.7252903E-09 0.5019608
vt 0.015686272 0.5019608
vt 0.015686272 0.4392157
vt 0.5529412 0.33333334
vt 0.49019608 0.38431373
vt 0.5019608 0.3882353
vt 0.56078434 0.34117648
vt -3.7252903E-09 0.1882353
vt -3.7252903E-09 0.2509804
vt 0.015686272 0.2509804
vt 0.015686272 0.1882353
vt 0.7921569 0.14509805
vt 0.73333335 0.19215687
vt 0.7490196 0.19607843
vt 0.8117647 0.14509805
vn 0.46025944 0.8094218 -0.3646885
vn 0.46025944 0.8094218 -0.3646885
vn 0.46025944 0.8094218 -0.3646885
vn 0.46025944 0.8094218 -0.3646885
vn -0.015871048 0.8094218 0.58701324
vn -0.015871048 0.8094218 0.58701324
vn -0.015871048 0.8094218 0.58701324
vn -0.015871048 0.8094218 0.58701324
vn 0.5872276 0.8094218 -0.00042286396
vn 0.5872276 0.8094218 -0.00042286396
vn 0.5872276 0.8094218 -0.00042286396
vn 0.5872276 0.8094218 -0.00042286396
vn 0.5872276 0.8094218 -0.00042286396
vn 0.5872276 0.8094218 -0.00042286396
vn 0.999874 0.015871048 -0.00034391563
vn 0.999874 0.015871048 -0.00034391563
vn 0.999874 0.015871048 -0.00034391563
vn 0.999874 0.015871048 -0.00034391563
vn 0.999874 0.015871048 -0.00034391563
vn 0.999874 0.015871048 -0.00034391563
vn -0.015871048 0.015871048 0.99974805
vn -0.015871048 0.015871048 0.99974805
vn -0.015871048 0.015871048 0.99974805
vn -0.015871048 0.015871048 0.99974805
vn 0.7459377 0.015871048 -0.66582656
vn 0.7459377 0.015871048 -0.66582656
vn 0.7459377 0.015871048 -0.66582656
vn 0.7459377 0.015871048 -0.66582656
vn -0.015871048 0.8094218 -0.58701324
vn -0.015871048 0.8094218 -0.58701324
vn -0.015871048 0.8094218 -0.58701324
vn -0.015871048 0.8094218 -0.58701324
vn -0.015871048 0.015871048 -0.99974805
vn -0.015871048 0.015871048 -0.99974805
vn -0.015871048 0.015871048 -0.99974805
vn -0.015871048 0.015871048 -0.99974805
vn -0.5237435 0.8411639 -0.13467027
vn -0.5237435 0.8411639 -0.13467027
vn -0.5237435 0.8411639 -0.13467027
vn -0.5237435 0.8411639 -0.13467027
vn -0.999874 0.015871048 -0.00034391563
vn -0.999874 0.015871048 -0.00034391563
vn -0.999874 0.015871048 -0.00034391563
vn -0.999874 0.015871048 -0.00034391563
vn -0.42851746 0.5237435 0.736251
vn -0.42851746 0.5237435 0.736251
vn -0.42851746 0.5237435 0.736251
vn -0.42851746 0.5237435 0.736251
vn -0.49200153 0.015871048 0.87044966
vn -0.49200153 0.015871048 0.87044966
vn -0.49200153 0.015871048 0.87044966
vn -0.49200153 0.015871048 0.87044966
vn -0.90464795 0.015871048 0.42586404
vn -0.90464795 0.015871048 0.42586404
vn -0.90464795 0.015871048 0.42586404
vn -0.90464795 0.015871048 0.42586404
vn -0.5237435 0.8411639 0.13467027
vn -0.5237435 0.8411639 0.13467027
vn -0.5237435 0.8411639 0.13467027
vn -0.5237435 0.8411639 0.13467027
vn -0.7459378 0.015871048 0.66582644
vn -0.7459378 0.015871048 0.66582644
vn -0.7459378 0.015871048 0.66582644
vn -0.7459378 0.015871048 0.66582644
vn -0.5237435 0.7141957 0.46434602
vn -0.5237435 0.7141957 0.46434602
vn -0.5237435 0.7141957 0.46434602
vn -0.5237435 0.7141957 0.46434602
vn -0.5872276 0.015871048 0.80926627
vn -0.5872276 0.015871048 0.80926627
vn -0.5872276 0.015871048 0.80926627
vn -0.5872276 0.015871048 0.80926627
vn -0.46025944 0.5872276 0.66582656
vn -0.46025944 0.5872276 0.66582656
vn -0.46025944 0.5872276 0.66582656
vn -0.46025944 0.5872276 0.66582656
vn -0.968132 0.015871048 0.24993704
vn -0.968132 0.015871048 0.24993704
vn -0.968132 0.015871048 0.24993704
vn -0.968132 0.015871048 0.24993704
vn -0.5237435 0.8411639 0.13467027
vn -0.5237435 0.8411639 0.13467027
vn -0.5237435 0.8411639 0.13467027
vn -0.5237435 0.8411639 0.13467027
vn -0.999874 0.015871048 -0.00034391563
vn -0.999874 0.015871048 -0.00034391563
vn -0.999874 0.015871048 -0.00034391563
vn -0.999874 0.015871048 -0.00034391563
vn -0.5237435 0.8411639 0.13467027
vn -0.5237435 0.8411639 0.13467027
vn -0.5237435 0.8411639 0.13467027
vn -0.5237435 0.8411639 0.13467027
vn -0.8411639 0.015871048 0.5405474
vn -0.8411639 0.015871048 0.5405474
vn -0.8411639 0.015871048 0.5405474
vn -0.8411639 0.015871048 0.5405474
vn -0.5237435 0.7776798 0.3477167
vn -0.5237435 0.7776798 0.3477167
vn -0.5237435 0.7776798 0.3477167
vn -0.5237435 0.7776798 0.3477167
g tt_territories_4v4_back_border_0
f 3/3/3 2/2/2 1/1/1
f 4/4/4 3/3/3 1/1/1
f 7/7/7 6/6/6 5/5/5
f 8/8/8 7/7/7 5/5/5
f 11/11/11 10/10/10 9/9/9
f 12/12/12 11/11/11 9/9/9
f 12/12/12 9/9/9 13/13/13
f 14/14/14 12/12/12 13/13/13
f 17/17/17 16/16/16 15/15/15
f 16/16/16 18/18/18 15/15/15
f 15/15/15 18/18/18 19/19/19
f 18/18/18 20/20/20 19/19/19
f 23/23/23 22/22/22 21/21/21
f 24/24/24 23/23/23 21/21/21
f 27/27/27 26/26/26 25/25/25
f 28/28/28 27/27/27 25/25/25
f 31/31/31 30/30/30 29/29/29
f 32/32/32 31/31/31 29/29/29
f 35/35/35 34/34/34 33/33/33
f 36/36/36 35/35/35 33/33/33
f 39/39/39 38/38/38 37/37/37
f 40/40/40 39/39/39 37/37/37
f 43/43/43 42/42/42 41/41/41
f 44/44/44 43/43/43 41/41/41
f 47/47/47 46/46/46 45/45/45
f 48/48/48 47/47/47 45/45/45
f 51/51/51 50/50/50 49/49/49
f 52/52/52 51/51/51 49/49/49
f 55/55/55 54/54/54 53/53/53
f 56/56/56 55/55/55 53/53/53
f 59/59/59 58/58/58 57/57/57
f 60/60/60 59/59/59 57/57/57
f 63/63/63 62/62/62 61/61/61
f 64/64/64 63/63/63 61/61/61
f 67/67/67 66/66/66 65/65/65
f 68/68/68 67/67/67 65/65/65
f 71/71/71 70/70/70 69/69/69
f 72/72/72 71/71/71 69/69/69
f 75/75/75 74/74/74 73/73/73
f 76/76/76 75/75/75 73/73/73
f 79/79/79 78/78/78 77/77/77
f 80/80/80 79/79/79 77/77/77
f 83/83/83 82/82/82 81/81/81
f 84/84/84 83/83/83 81/81/81
f 87/87/87 86/86/86 85/85/85
f 88/88/88 87/87/87 85/85/85
f 91/91/91 90/90/90 89/89/89
f 92/92/92 91/91/91 89/89/89
f 95/95/95 94/94/94 93/93/93
f 96/96/96 95/95/95 93/93/93
f 99/99/99 98/98/98 97/97/97
f 100/100/100 99/99/99 97/97/97
