g vfx_ter_2x2_base_BRL
v -0.16130434 0 0.07347955
v -0.16305766 0 0.012113765
v -0.09675073 0 0.012113765
v -0.091650195 0 0.030603196
v -0.15492868 0 0.100416735
v -0.07873947 0 0.052599244
v -0.060250044 0 0.06981354
v -0.031400155 0 0.0857527
v -0.13883013 0 0.12050009
v -0.0060568824 0 0.091331415
v -0.1182686 0 0.13500473
v -0.092606544 0 0.1450464
v -0.006694449 0 0.1450464
vt 0.7416878 0.3341894
vt 0.74435115 0.45936865
vt 0.6484692 0.45936865
vt 0.64047897 0.40610087
vt 0.73369765 0.22765386
vt 0.62183535 0.33951616
vt 0.5952014 0.2889118
vt 0.5525872 0.2409708
vt 0.71239054 0.16106915
vt 0.5126364 0.22499047
vt 0.7044003 0.14775223
vt 0.6378156 0.065187186
vt 0.5126364 0.065187186
vn -0 1 -0
vn -0 1 -0
vn -0 1 -0
vn -0 1 -0
vn -0 1 -0
vn -0 1 -0
vn -0 1 -0
vn -0 1 -0
vn -0 1 -0
vn -0 1 -0
vn -0 1 -0
vn -0 1 -0
vn -0 1 -0
g vfx_ter_2x2_base_BRL_0
f 3/3/3 2/2/2 1/1/1
f 1/1/1 4/4/4 3/3/3
f 1/1/1 5/5/5 4/4/4
f 5/5/5 6/6/6 4/4/4
f 6/6/6 5/5/5 7/7/7
f 7/7/7 5/5/5 8/8/8
f 5/5/5 9/9/9 8/8/8
f 8/8/8 9/9/9 10/10/10
f 9/9/9 11/11/11 10/10/10
f 11/11/11 12/12/12 10/10/10
f 12/12/12 13/13/13 10/10/10
