g vfx_ter_2x2_base_TRL
v -0.16125089 0.000147596 -0.07362868
v -0.09680958 0.000147596 -0.012198642
v -0.16305766 0.000147596 -0.012198642
v -0.091690406 0.000147596 -0.030567423
v -0.15492722 0.000147596 -0.100429036
v -0.07874191 0.000147596 -0.052549742
v -0.060373127 0.000147596 -0.06971402
v -0.031464875 0.000147596 -0.08567378
v -0.1386663 0.000147596 -0.12030346
v -0.005869031 0.000147596 -0.09139521
v -0.11818963 0.000147596 -0.13505872
v -0.09259379 0.000147596 -0.14499593
v -0.006772414 0.000147596 -0.14499593
vt 0.7396929 0.6667166
vt 0.64847255 0.5406665
vt 0.74301004 0.5406665
vt 0.6418383 0.5953988
vt 0.73305875 0.772864
vt 0.62193567 0.6600824
vt 0.5937402 0.71149755
vt 0.5506179 0.75959563
vt 0.71149755 0.83920616
vt 0.51247114 0.7761811
vt 0.7048633 0.8541331
vt 0.63686264 0.9354023
vt 0.51247114 0.9354023
vn -0 1 -0
vn -0 1 -0
vn -0 1 -0
vn -0 1 -0
vn -0 1 -0
vn -0 1 -0
vn -0 1 -0
vn -0 1 -0
vn -0 1 -0
vn -0 1 -0
vn -0 1 -0
vn -0 1 -0
vn -0 1 -0
g vfx_ter_2x2_base_TRL_0
f 3/3/3 2/2/2 1/1/1
f 4/4/4 1/1/1 2/2/2
f 5/5/5 1/1/1 4/4/4
f 6/6/6 5/5/5 4/4/4
f 5/5/5 6/6/6 7/7/7
f 5/5/5 7/7/7 8/8/8
f 9/9/9 5/5/5 8/8/8
f 9/9/9 8/8/8 10/10/10
f 11/11/11 9/9/9 10/10/10
f 12/12/12 11/11/11 10/10/10
f 13/13/13 12/12/12 10/10/10
