g vfx_ter_2x2_base_BL
v 0.009805262 8.481741E-05 0.09124547
v 0.27339724 8.481741E-05 0.1449959
v 0.009805262 8.481741E-05 0.1449959
v 0.035175472 8.481741E-05 0.08565545
v 0.063985676 8.481741E-05 0.06974533
v 0.2948974 8.481741E-05 0.12478575
v 0.08247581 8.481741E-05 0.05254519
v 0.09537591 8.481741E-05 0.030615032
v 0.100535944 8.481741E-05 0.012124896
v 0.2948974 8.481741E-05 0.012124896
vt 0.48933572 0.2764389
vt 0.13299772 0.13299772
vt 0.48933572 0.13299772
vt 0.45460787 0.29153794
vt 0.4153503 0.33381534
vt 0.1043095 0.18735437
vt 0.39119178 0.38062245
vt 0.3730729 0.4395088
vt 0.36703327 0.48933572
vt 0.1043095 0.48933572
vn -0 1 -0
vn -0 1 -0
vn -0 1 -0
vn -0 1 -0
vn -0 1 -0
vn -0 1 -0
vn -0 1 -0
vn -0 1 -0
vn -0 1 -0
vn -0 1 -0
g vfx_ter_2x2_base_BL_0
f 3/3/3 2/2/2 1/1/1
f 2/2/2 4/4/4 1/1/1
f 2/2/2 5/5/5 4/4/4
f 2/2/2 6/6/6 5/5/5
f 6/6/6 7/7/7 5/5/5
f 7/7/7 6/6/6 8/8/8
f 8/8/8 6/6/6 9/9/9
f 10/10/10 9/9/9 6/6/6
