g vfx_ter_2x2_walls_BL
v 0.12096738 0.18744549 -0.06644669
v 0.12096738 1.0475516E-05 -0.06644669
v 0.14258209 1.0475516E-05 -0.046122417
v 0.14258209 0.18744549 -0.046122417
v 0.14258209 0.18744549 0.06646764
v 0.14258209 1.0475516E-05 0.06646764
v -0.05195029 1.0475516E-05 0.06646764
v -0.05195029 0.18744549 0.06646764
v 0.14258209 0.18744549 -0.046122417
v 0.14258209 1.0475516E-05 -0.046122417
v 0.14258209 1.0475516E-05 0.06646764
v 0.14258209 0.18744549 0.06646764
v -0.05195029 0.18744549 0.06646764
v -0.05195029 1.0475516E-05 0.06646764
v -0.056789413 1.0475516E-05 0.048079
v -0.056789413 0.18744549 0.048079
v -0.070016325 1.0475516E-05 0.025819078
v -0.070016325 0.18744549 0.025819078
v -0.08840495 1.0475516E-05 0.008720875
v -0.08840495 0.18744549 0.008720875
v -0.11711702 1.0475516E-05 -0.007086903
v -0.11711702 0.18744549 -0.007086903
v -0.14260304 1.0475516E-05 -0.012893826
v -0.14260304 0.18744549 -0.012893826
v -0.14260304 0.18744549 -0.06644669
v -0.14260304 1.0475516E-05 -0.06644669
v 0.12096738 1.0475516E-05 -0.06644669
v 0.12096738 0.18744549 -0.06644669
v -0.14260304 0.18744549 -0.012893826
v -0.14260304 1.0475516E-05 -0.012893826
v -0.14260304 1.0475516E-05 -0.06644669
v -0.14260304 0.18744549 -0.06644669
vt 0.18036288 0.99351597
vt 0.18036288 0.014649221
vt 0.15724005 0.014649221
vt 0.15724005 0.99351597
vt 0.9858084 0.99351597
vt 0.9858084 0.014649221
vt 0.735311 0.014649221
vt 0.735311 0.99351597
vt 0.15724005 0.99351597
vt 0.15724005 0.014649221
vt 0.010795414 0.014649221
vt 0.010795414 0.99351597
vt 0.735311 0.99351597
vt 0.735311 0.014649221
vt 0.7121881 0.014649221
vt 0.7121881 0.99351597
vt 0.6813577 0.014649221
vt 0.6813577 0.99351597
vt 0.66208863 0.014649221
vt 0.66208863 0.99351597
vt 0.6235506 0.014649221
vt 0.6235506 0.99351597
vt 0.59272015 0.014649221
vt 0.59272015 0.99351597
vt 0.5233516 0.99351597
vt 0.5233516 0.014649221
vt 0.18036288 0.014649221
vt 0.18036288 0.99351597
vt 0.59272015 0.99351597
vt 0.59272015 0.014649221
vt 0.5233516 0.014649221
vt 0.5233516 0.99351597
vn 0.68245363 0.015871048 -0.7307566
vn 0.68245363 0.015871048 -0.7307566
vn 0.68245363 0.015871048 -0.7307566
vn 0.68245363 0.015871048 -0.7307566
vn -0.015871048 0.015871048 0.99974805
vn -0.015871048 0.015871048 0.99974805
vn -0.015871048 0.015871048 0.99974805
vn -0.015871048 0.015871048 0.99974805
vn 0.999874 0.015871048 -0.00034391563
vn 0.999874 0.015871048 -0.00034391563
vn 0.999874 0.015871048 -0.00034391563
vn 0.999874 0.015871048 -0.00034391563
vn -0.968132 0.015871048 0.24993704
vn -0.968132 0.015871048 0.24993704
vn -0.90464795 0.015871048 0.42586404
vn -0.90464795 0.015871048 0.42586404
vn -0.7776798 0.015871048 0.6284602
vn -0.7776798 0.015871048 0.6284602
vn -0.5872276 0.015871048 0.80926627
vn -0.5872276 0.015871048 0.80926627
vn -0.3650334 0.015871048 0.93085915
vn -0.3650334 0.015871048 0.93085915
vn -0.20632327 0.015871048 0.97835517
vn -0.20632327 0.015871048 0.97835517
vn -0.015871048 0.015871048 -0.99974805
vn -0.015871048 0.015871048 -0.99974805
vn -0.015871048 0.015871048 -0.99974805
vn -0.015871048 0.015871048 -0.99974805
vn -0.999874 0.015871048 -0.00034391563
vn -0.999874 0.015871048 -0.00034391563
vn -0.999874 0.015871048 -0.00034391563
vn -0.999874 0.015871048 -0.00034391563
g vfx_ter_2x2_walls_BL_0
f 3/3/3 2/2/2 1/1/1
f 4/4/4 3/3/3 1/1/1
f 7/7/7 6/6/6 5/5/5
f 8/8/8 7/7/7 5/5/5
f 11/11/11 10/10/10 9/9/9
f 12/12/12 11/11/11 9/9/9
f 15/15/15 14/14/14 13/13/13
f 16/16/16 15/15/15 13/13/13
f 17/17/17 15/15/15 16/16/16
f 18/18/18 17/17/17 16/16/16
f 19/19/19 17/17/17 18/18/18
f 20/20/20 19/19/19 18/18/18
f 21/21/21 19/19/19 20/20/20
f 22/22/22 21/21/21 20/20/20
f 23/23/23 21/21/21 22/22/22
f 24/24/24 23/23/23 22/22/22
f 27/27/27 26/26/26 25/25/25
f 28/28/28 27/27/27 25/25/25
f 31/31/31 30/30/30 29/29/29
f 32/32/32 31/31/31 29/29/29
