g vfx_ter_2x2_base_BRR
v -0.14326884 0 0.13404427
v -0.11991918 0 0.14499843
v -0.27327737 0 0.14499843
v -0.15883526 0 0.117036514
v -0.16950116 0 0.09829914
v -0.2948974 0 0.124819726
v -0.17555477 0 0.07350815
v -0.17641957 0 0.012107225
v -0.2948974 0 0.012107225
vt 0.72668195 0.13716331
vt 0.68212533 0.065187186
vt 0.9083359 0.065187186
vt 0.73353684 0.15087304
vt 0.750674 0.21599428
vt 0.9391829 0.123453565
vt 0.7609563 0.31196243
vt 0.7609563 0.4593421
vt 0.9391829 0.4593421
vn -0 1 -0
vn -0 1 -0
vn -0 1 -0
vn -0 1 -0
vn -0 1 -0
vn -0 1 -0
vn -0 1 -0
vn -0 1 -0
vn -0 1 -0
g vfx_ter_2x2_base_BRR_0
f 3/3/3 2/2/2 1/1/1
f 3/3/3 1/1/1 4/4/4
f 3/3/3 4/4/4 5/5/5
f 6/6/6 3/3/3 5/5/5
f 6/6/6 5/5/5 7/7/7
f 7/7/7 8/8/8 6/6/6
f 8/8/8 9/9/9 6/6/6
