g vfx_ter_4x4_base_BLL
v 0.14310627 8.481741E-05 0.1338158
v 0.27339724 8.481741E-05 0.1449959
v 0.1198861 8.481741E-05 0.1449959
v 0.15901639 8.481741E-05 0.11704567
v 0.16976647 8.481741E-05 0.09812555
v 0.2948974 8.481741E-05 0.12478575
v 0.17578653 8.481741E-05 0.07361534
v 0.17621651 8.481741E-05 0.012124896
v 0.2948974 8.481741E-05 0.012124896
vt 0.2734515 0.13710436
vt 0.093222514 0.06501277
vt 0.31890053 0.06501277
vt 0.26718265 0.15120924
vt 0.24994336 0.21546477
vt 0.06031114 0.12456669
vt 0.24054012 0.3126317
vt 0.2389729 0.45994928
vt 0.06031114 0.45994928
vn -0 1 -0
vn -0 1 -0
vn -0 1 -0
vn -0 1 -0
vn -0 1 -0
vn -0 1 -0
vn -0 1 -0
vn -0 1 -0
vn -0 1 -0
g vfx_ter_4x4_base_BLL_0
f 3/3/3 2/2/2 1/1/1
f 1/1/1 2/2/2 4/4/4
f 4/4/4 2/2/2 5/5/5
f 2/2/2 6/6/6 5/5/5
f 5/5/5 6/6/6 7/7/7
f 8/8/8 7/7/7 6/6/6
f 9/9/9 8/8/8 6/6/6
