g vfx_ter_2x2_base_BR
v -0.009801087 -2.7735091E-17 0.09138072
v -0.009801087 -2.7735091E-17 0.14499843
v -0.27327737 -2.7735091E-17 0.14499843
v -0.035168607 -2.7735091E-17 0.08561538
v -0.06399533 -2.7735091E-17 0.06976068
v -0.2948974 -2.7735091E-17 0.124819726
v -0.08244444 -2.7735091E-17 0.05246464
v -0.095416464 -2.7735091E-17 0.03055633
v -0.10060528 -2.7735091E-17 0.012107225
v -0.2948974 -2.7735091E-17 0.012107225
vt 0.5105563 0.2737282
vt 0.5105563 0.12983263
vt 0.8642995 0.12983263
vt 0.5435324 0.2887173
vt 0.58250403 0.33068684
vt 0.89427775 0.18379346
vt 0.6064867 0.3756542
vt 0.6244736 0.43561068
vt 0.63046926 0.48657367
vt 0.89427775 0.48657367
vn -0 1 -0
vn -0 1 -0
vn -0 1 -0
vn -0 1 -0
vn -0 1 -0
vn -0 1 -0
vn -0 1 -0
vn -0 1 -0
vn -0 1 -0
vn -0 1 -0
g vfx_ter_2x2_base_BR_0
f 3/3/3 2/2/2 1/1/1
f 4/4/4 3/3/3 1/1/1
f 5/5/5 3/3/3 4/4/4
f 6/6/6 3/3/3 5/5/5
f 7/7/7 6/6/6 5/5/5
f 6/6/6 7/7/7 8/8/8
f 6/6/6 8/8/8 9/9/9
f 9/9/9 10/10/10 6/6/6
