g vfx_ter_2x2_walls_BR
v -0.12098831 0.18744549 -0.06644669
v -0.14260304 0.18744549 -0.046122417
v -0.14260304 1.0475516E-05 -0.046122417
v -0.12098831 1.0475516E-05 -0.06644669
v -0.14260304 0.18744549 0.06646764
v 0.051929355 0.18744549 0.06646764
v 0.051929355 1.0475516E-05 0.06646764
v -0.14260304 1.0475516E-05 0.06646764
v -0.14260304 0.18744549 -0.046122417
v -0.14260304 0.18744549 0.06646764
v -0.14260304 1.0475516E-05 0.06646764
v -0.14260304 1.0475516E-05 -0.046122417
v 0.051929355 0.18744549 0.06646764
v 0.05676847 1.0475516E-05 0.048079
v 0.051929355 1.0475516E-05 0.06646764
v 0.05676847 0.18744549 0.048079
v 0.06999538 1.0475516E-05 0.025819078
v 0.06999538 0.18744549 0.025819078
v 0.08838401 1.0475516E-05 0.008720875
v 0.08838401 0.18744549 0.008720875
v 0.11709609 1.0475516E-05 -0.007086903
v 0.11709609 0.18744549 -0.007086903
v 0.14258209 1.0475516E-05 -0.012893826
v 0.14258209 0.18744549 -0.012893826
v 0.14258209 0.18744549 -0.06644669
v -0.12098831 0.18744549 -0.06644669
v -0.12098831 1.0475516E-05 -0.06644669
v 0.14258209 1.0475516E-05 -0.06644669
v 0.14258209 0.18744549 -0.012893826
v 0.14258209 0.18744549 -0.06644669
v 0.14258209 1.0475516E-05 -0.06644669
v 0.14258209 1.0475516E-05 -0.012893826
vt 0.18036288 0.99351597
vt 0.15724005 0.99351597
vt 0.15724005 0.014649221
vt 0.18036288 0.014649221
vt 0.9858084 0.99351597
vt 0.735311 0.99351597
vt 0.735311 0.014649221
vt 0.9858084 0.014649221
vt 0.15724005 0.99351597
vt 0.010795414 0.99351597
vt 0.010795414 0.014649221
vt 0.15724005 0.014649221
vt 0.735311 0.99351597
vt 0.7121881 0.014649221
vt 0.735311 0.014649221
vt 0.7121881 0.99351597
vt 0.6813577 0.014649221
vt 0.6813577 0.99351597
vt 0.66208863 0.014649221
vt 0.66208863 0.99351597
vt 0.6235506 0.014649221
vt 0.6235506 0.99351597
vt 0.59272015 0.014649221
vt 0.59272015 0.99351597
vt 0.5233516 0.99351597
vt 0.18036288 0.99351597
vt 0.18036288 0.014649221
vt 0.5233516 0.014649221
vt 0.59272015 0.99351597
vt 0.5233516 0.99351597
vt 0.5233516 0.014649221
vt 0.59272015 0.014649221
vn -0.68245375 0.015871048 -0.73075646
vn -0.68245375 0.015871048 -0.73075646
vn -0.68245375 0.015871048 -0.73075646
vn -0.68245375 0.015871048 -0.73075646
vn -0.015871048 0.015871048 0.99974805
vn -0.015871048 0.015871048 0.99974805
vn -0.015871048 0.015871048 0.99974805
vn -0.015871048 0.015871048 0.99974805
vn -0.999874 0.015871048 -0.00034391563
vn -0.999874 0.015871048 -0.00034391563
vn -0.999874 0.015871048 -0.00034391563
vn -0.999874 0.015871048 -0.00034391563
vn 0.96813196 0.015871048 0.24993728
vn 0.9046479 0.015871048 0.4258642
vn 0.96813196 0.015871048 0.24993728
vn 0.9046479 0.015871048 0.4258642
vn 0.7776798 0.015871048 0.6284602
vn 0.7776798 0.015871048 0.6284602
vn 0.5872276 0.015871048 0.80926627
vn 0.5872276 0.015871048 0.80926627
vn 0.36503333 0.015871048 0.93085915
vn 0.36503333 0.015871048 0.93085915
vn 0.2063232 0.015871048 0.97835517
vn 0.2063232 0.015871048 0.97835517
vn -0.015871048 0.015871048 -0.99974805
vn -0.015871048 0.015871048 -0.99974805
vn -0.015871048 0.015871048 -0.99974805
vn -0.015871048 0.015871048 -0.99974805
vn 0.999874 0.015871048 -0.00034391563
vn 0.999874 0.015871048 -0.00034391563
vn 0.999874 0.015871048 -0.00034391563
vn 0.999874 0.015871048 -0.00034391563
g vfx_ter_2x2_walls_BR_0
f 3/3/3 2/2/2 1/1/1
f 4/4/4 3/3/3 1/1/1
f 7/7/7 6/6/6 5/5/5
f 8/8/8 7/7/7 5/5/5
f 11/11/11 10/10/10 9/9/9
f 12/12/12 11/11/11 9/9/9
f 15/15/15 14/14/14 13/13/13
f 14/14/14 16/16/16 13/13/13
f 14/14/14 17/17/17 16/16/16
f 17/17/17 18/18/18 16/16/16
f 17/17/17 19/19/19 18/18/18
f 19/19/19 20/20/20 18/18/18
f 19/19/19 21/21/21 20/20/20
f 21/21/21 22/22/22 20/20/20
f 21/21/21 23/23/23 22/22/22
f 23/23/23 24/24/24 22/22/22
f 27/27/27 26/26/26 25/25/25
f 28/28/28 27/27/27 25/25/25
f 31/31/31 30/30/30 29/29/29
f 32/32/32 31/31/31 29/29/29
