g vfx_ter_2x2_base_TLR
v 0.16130434 0 -0.07347955
v 0.16305766 0 -0.012113765
v 0.09675073 0 -0.012113765
v 0.091650195 0 -0.0306032
v 0.15492868 0 -0.100416735
v 0.07873947 0 -0.052599244
v 0.060250044 0 -0.06981354
v 0.03140016 0 -0.0857527
v 0.13883013 0 -0.12050009
v 0.00605689 0 -0.091331415
v 0.1182686 0 -0.13500473
v 0.092606544 0 -0.1450464
v 0.006694451 0 -0.1450464
vt 0.2594934 0.6665913
vt 0.25683263 0.5415351
vt 0.35262036 0.5415351
vt 0.36060268 0.59475046
vt 0.26747572 0.77302206
vt 0.37922806 0.6612697
vt 0.40583578 0.7118244
vt 0.45106888 0.7597183
vt 0.28876188 0.8395413
vt 0.48831967 0.7756828
vt 0.2967442 0.8528452
vt 0.36326346 0.9353291
vt 0.48831967 0.9353291
vn -0 1 -0
vn -0 1 -0
vn -0 1 -0
vn -0 1 -0
vn -0 1 -0
vn -0 1 -0
vn -0 1 -0
vn -0 1 -0
vn -0 1 -0
vn -0 1 -0
vn -0 1 -0
vn -0 1 -0
vn -0 1 -0
g vfx_ter_2x2_base_TLR_0
f 3/3/3 2/2/2 1/1/1
f 1/1/1 4/4/4 3/3/3
f 1/1/1 5/5/5 4/4/4
f 5/5/5 6/6/6 4/4/4
f 6/6/6 5/5/5 7/7/7
f 7/7/7 5/5/5 8/8/8
f 5/5/5 9/9/9 8/8/8
f 8/8/8 9/9/9 10/10/10
f 9/9/9 11/11/11 10/10/10
f 11/11/11 12/12/12 10/10/10
f 12/12/12 13/13/13 10/10/10
