g vfx_ter_4x4_walls_TLR
v 0.012232974 0.18744555 -0.066312574
v 0.007033013 -1.3060868E-05 -0.047852714
v 0.012232974 -1.3060868E-05 -0.066312574
v 0.007033013 0.18744555 -0.047852714
v -0.0059668943 -1.3060868E-05 -0.026012875
v -0.0059668943 0.18744555 -0.026012875
v -0.024166755 -1.3060868E-05 -0.008852996
v -0.024166755 0.18744555 -0.008852996
v -0.053026542 -1.3060868E-05 0.0070068836
v -0.053026542 0.18744555 0.0070068836
v -0.078506365 -1.3060868E-05 0.012726843
v -0.078506365 0.18744555 0.012726843
v -0.077726364 0.18744555 0.06654644
v 0.007553011 0.18744555 0.06654644
v 0.007553011 -1.3060868E-05 0.06654644
v -0.077726364 -1.3060868E-05 0.06654644
v -0.078506365 0.18744555 0.012726843
v -0.077726364 0.18744555 0.06654644
v -0.077726364 -1.3060868E-05 0.06654644
v -0.078506365 -1.3060868E-05 0.012726843
v 0.07853249 0.18744555 -0.066312574
v 0.012232974 0.18744555 -0.066312574
v 0.012232974 -1.3060868E-05 -0.066312574
v 0.07853249 -1.3060868E-05 -0.066312574
v 0.07853249 0.18744555 -0.066312574
v 0.077232495 -1.3060868E-05 -0.004953027
v 0.07853249 -1.3060868E-05 -0.066312574
v 0.077232495 0.18744555 -0.004953027
v 0.070472546 -1.3060868E-05 0.021826774
v 0.070472546 0.18744555 0.021826774
v 0.054352663 -1.3060868E-05 0.041846626
v 0.054352663 0.18744555 0.041846626
v 0.033812817 -1.3060868E-05 0.056406528
v 0.033812817 0.18744555 0.056406528
v 0.007553011 -1.3060868E-05 0.06654644
v 0.007553011 0.18744555 0.06654644
vt 0.67837363 0.9935155
vt 0.6399417 0.0135012865
vt 0.67837363 0.0135012865
vt 0.6399417 0.9935155
vt 0.59382343 0.0135012865
vt 0.59382343 0.9935155
vt 0.5592347 0.0135012865
vt 0.5592347 0.9935155
vt 0.49774358 0.0135012865
vt 0.49774358 0.9935155
vt 0.44393888 0.0135012865
vt 0.44393888 0.9935155
vt 0.3324863 0.9935155
vt 0.021187672 0.9935155
vt 0.021187672 0.0135012865
vt 0.3324863 0.0135012865
vt 0.44393888 0.9935155
vt 0.3324863 0.9935155
vt 0.3324863 0.0135012865
vt 0.44393888 0.0135012865
vt 0.80135584 0.9935155
vt 0.67837363 0.9935155
vt 0.67837363 0.0135012865
vt 0.80135584 0.0135012865
vt 0.80135584 0.9935155
vt 0.8397877 0.0135012865
vt 0.80135584 0.0135012865
vt 0.8397877 0.9935155
vt 0.88590604 0.0135012865
vt 0.88590604 0.9935155
vt 0.90512204 0.0135012865
vt 0.90512204 0.9935155
vt 0.924338 0.0135012865
vt 0.924338 0.9935155
vt 0.98198587 0.0135012865
vt 0.98198587 0.9935155
vn -0.9681757 0 -0.2502714
vn -0.9205605 0 -0.39060006
vn -0.9681757 0 -0.2502714
vn -0.9205605 0 -0.39060006
vn -0.7777149 0 -0.62861717
vn -0.7777149 0 -0.62861717
vn -0.5713824 0 -0.82068396
vn -0.5713824 0 -0.82068396
vn -0.36504987 0 -0.93098795
vn -0.36504987 0 -0.93098795
vn -0.22220425 0 -0.97500014
vn -0.22220425 0 -0.97500014
vn -0 0 1
vn -0 0 1
vn -0 0 1
vn -0 0 1
vn -0.9999192 0 0.012714079
vn -0.9999192 0 0.012714079
vn -0.9999192 0 0.012714079
vn -0.9999192 0 0.012714079
vn -0 0 -1
vn -0 0 -1
vn -0 0 -1
vn -0 0 -1
vn -0.9999192 0 -0.012714079
vn -0.9999192 0 -0.012714079
vn -0.9999192 0 -0.012714079
vn -0.9999192 0 -0.012714079
vn -0.9046888 0 -0.426073
vn -0.9046888 0 -0.426073
vn -0.6824845 0 -0.73090005
vn -0.6824845 0 -0.73090005
vn -0.46028024 0 -0.8877737
vn -0.46028024 0 -0.8877737
vn -0.36504987 0 -0.93098795
vn -0.36504987 0 -0.93098795
g vfx_ter_4x4_walls_TLR_0
f 3/3/3 2/2/2 1/1/1
f 2/2/2 4/4/4 1/1/1
f 2/2/2 5/5/5 4/4/4
f 5/5/5 6/6/6 4/4/4
f 5/5/5 7/7/7 6/6/6
f 7/7/7 8/8/8 6/6/6
f 7/7/7 9/9/9 8/8/8
f 9/9/9 10/10/10 8/8/8
f 9/9/9 11/11/11 10/10/10
f 11/11/11 12/12/12 10/10/10
f 15/15/15 14/14/14 13/13/13
f 16/16/16 15/15/15 13/13/13
f 19/19/19 18/18/18 17/17/17
f 20/20/20 19/19/19 17/17/17
f 23/23/23 22/22/22 21/21/21
f 24/24/24 23/23/23 21/21/21
f 27/27/27 26/26/26 25/25/25
f 26/26/26 28/28/28 25/25/25
f 26/26/26 29/29/29 28/28/28
f 29/29/29 30/30/30 28/28/28
f 29/29/29 31/31/31 30/30/30
f 31/31/31 32/32/32 30/30/30
f 31/31/31 33/33/33 32/32/32
f 33/33/33 34/34/34 32/32/32
f 33/33/33 35/35/35 34/34/34
f 35/35/35 36/36/36 34/34/34
