g vfx_ter_4x4_walls_BRL
v -0.012206838 0.18744555 0.06654643
v -0.0072668716 -1.3068318E-05 0.04782658
v -0.012206838 -1.3068318E-05 0.06654643
v -0.0072668716 0.18744555 0.04782658
v 0.005733028 -1.3068318E-05 0.025986739
v 0.005733028 0.18744555 0.025986739
v 0.024192896 -1.3068318E-05 0.008826859
v 0.024192896 0.18744555 0.008826859
v 0.053052682 -1.3068318E-05 -0.0070330203
v 0.053052682 0.18744555 -0.0070330203
v 0.078532495 -1.3068318E-05 -0.01275298
v 0.078532495 0.18744555 -0.01275298
v 0.0777525 0.18744555 -0.06631258
v -0.0075268745 0.18744555 -0.06631258
v -0.0075268745 -1.3068318E-05 -0.06631258
v 0.0777525 -1.3068318E-05 -0.06631258
v 0.078532495 0.18744555 -0.01275298
v 0.0777525 0.18744555 -0.06631258
v 0.0777525 -1.3068318E-05 -0.06631258
v 0.078532495 -1.3068318E-05 -0.01275298
v -0.07850636 0.18744555 0.06654643
v -0.012206838 0.18744555 0.06654643
v -0.012206838 -1.3068318E-05 0.06654643
v -0.07850636 -1.3068318E-05 0.06654643
v -0.07850636 0.18744555 0.06654643
v -0.077206366 -1.3068318E-05 0.005186893
v -0.07850636 -1.3068318E-05 0.06654643
v -0.077206366 0.18744555 0.005186893
v -0.07044641 -1.3068318E-05 -0.02185291
v -0.07044641 0.18744555 -0.02185291
v -0.054326527 -1.3068318E-05 -0.041872766
v -0.054326527 0.18744555 -0.041872766
v -0.033786677 -1.3068318E-05 -0.056432657
v -0.033786677 0.18744555 -0.056432657
v -0.0075268745 -1.3068318E-05 -0.06631258
v -0.0075268745 0.18744555 -0.06631258
vt 0.67837363 0.9935155
vt 0.6399417 0.0135012865
vt 0.67837363 0.0135012865
vt 0.6399417 0.9935155
vt 0.59382343 0.0135012865
vt 0.59382343 0.9935155
vt 0.5592347 0.0135012865
vt 0.5592347 0.9935155
vt 0.49774358 0.0135012865
vt 0.49774358 0.9935155
vt 0.44393888 0.0135012865
vt 0.44393888 0.9935155
vt 0.3324863 0.9935155
vt 0.021187672 0.9935155
vt 0.021187672 0.0135012865
vt 0.3324863 0.0135012865
vt 0.44393888 0.9935155
vt 0.3324863 0.9935155
vt 0.3324863 0.0135012865
vt 0.44393888 0.0135012865
vt 0.80135584 0.9935155
vt 0.67837363 0.9935155
vt 0.67837363 0.0135012865
vt 0.80135584 0.0135012865
vt 0.80135584 0.9935155
vt 0.8397877 0.0135012865
vt 0.80135584 0.0135012865
vt 0.8397877 0.9935155
vt 0.88590604 0.0135012865
vt 0.88590604 0.9935155
vt 0.90512204 0.0135012865
vt 0.90512204 0.9935155
vt 0.924338 0.0135012865
vt 0.924338 0.9935155
vt 0.98198587 0.0135012865
vt 0.98198587 0.9935155
vn 0.96817446 3.862381E-05 0.2502763
vn 0.92055744 3.862381E-05 0.39060724
vn 0.96817446 3.862381E-05 0.2502763
vn 0.92055744 3.862381E-05 0.39060724
vn 0.7777063 3.862381E-05 0.6286278
vn 0.7777063 3.862381E-05 0.6286278
vn 0.57136583 3.862381E-05 0.82069546
vn 0.57136583 3.862381E-05 0.82069546
vn 0.36502534 3.862381E-05 0.9309976
vn 0.36502534 3.862381E-05 0.9309976
vn 0.22217423 3.862381E-05 0.975007
vn 0.22217423 3.862381E-05 0.975007
vn -3.862381E-05 3.862381E-05 -1
vn -3.862381E-05 3.862381E-05 -1
vn -3.862381E-05 3.862381E-05 -1
vn -3.862381E-05 3.862381E-05 -1
vn 0.9999192 3.862381E-05 -0.01271402
vn 0.9999192 3.862381E-05 -0.01271402
vn 0.9999192 3.862381E-05 -0.01271402
vn 0.9999192 3.862381E-05 -0.01271402
vn -3.862381E-05 3.862381E-05 1
vn -3.862381E-05 3.862381E-05 1
vn -3.862381E-05 3.862381E-05 1
vn -3.862381E-05 3.862381E-05 1
vn 0.9999192 3.862381E-05 0.01271402
vn 0.9999192 3.862381E-05 0.01271402
vn 0.9999192 3.862381E-05 0.01271402
vn 0.9999192 3.862381E-05 0.01271402
vn 0.9046851 3.862381E-05 0.42608085
vn 0.9046851 3.862381E-05 0.42608085
vn 0.6824722 3.862381E-05 0.73091155
vn 0.6824722 3.862381E-05 0.73091155
vn 0.46025944 3.862381E-05 0.8877845
vn 0.46025944 3.862381E-05 0.8877845
vn 0.36502534 3.862381E-05 0.9309976
vn 0.36502534 3.862381E-05 0.9309976
g vfx_ter_4x4_walls_BRL_0
f 3/3/3 2/2/2 1/1/1
f 2/2/2 4/4/4 1/1/1
f 2/2/2 5/5/5 4/4/4
f 5/5/5 6/6/6 4/4/4
f 5/5/5 7/7/7 6/6/6
f 7/7/7 8/8/8 6/6/6
f 7/7/7 9/9/9 8/8/8
f 9/9/9 10/10/10 8/8/8
f 9/9/9 11/11/11 10/10/10
f 11/11/11 12/12/12 10/10/10
f 15/15/15 14/14/14 13/13/13
f 16/16/16 15/15/15 13/13/13
f 19/19/19 18/18/18 17/17/17
f 20/20/20 19/19/19 17/17/17
f 23/23/23 22/22/22 21/21/21
f 24/24/24 23/23/23 21/21/21
f 27/27/27 26/26/26 25/25/25
f 26/26/26 28/28/28 25/25/25
f 26/26/26 29/29/29 28/28/28
f 29/29/29 30/30/30 28/28/28
f 29/29/29 31/31/31 30/30/30
f 31/31/31 32/32/32 30/30/30
f 31/31/31 33/33/33 32/32/32
f 33/33/33 34/34/34 32/32/32
f 33/33/33 35/35/35 34/34/34
f 35/35/35 36/36/36 34/34/34
