g vfx_ter_4x4_walls_BLL
v 0.06594423 0.18744554 -0.06648164
v 0.06594423 -0.00011125952 -0.06648164
v 0.087440714 -0.00011125952 -0.046328694
v 0.087440714 0.18744554 -0.046328694
v 0.087440714 0.18744554 0.06652783
v 0.087440714 -0.00011125952 0.06652783
v -0.03105864 -0.00011125952 0.06652783
v -0.03105864 0.18744554 0.06652783
v 0.087440714 0.18744554 -0.046328694
v 0.087440714 -0.00011125952 -0.046328694
v 0.087440714 -0.00011125952 0.06652783
v 0.087440714 0.18744554 0.06652783
v -0.08748691 0.18744554 -0.06648164
v -0.08748691 -0.00011125952 -0.06648164
v 0.06594423 -0.00011125952 -0.06648164
v 0.06594423 0.18744554 -0.06648164
v -0.03105864 0.18744554 0.06652783
v -0.03105864 -0.00011125952 0.06652783
v -0.032402165 -0.00011125952 0.004994154
v -0.032402165 0.18744554 0.004994154
v -0.03777629 -0.00011125952 -0.019726798
v -0.03777629 0.18744554 -0.019726798
v -0.04852453 -0.00011125952 -0.03853622
v -0.04852453 0.18744554 -0.03853622
v -0.064109474 -0.00011125952 -0.0554647
v -0.064109474 0.18744554 -0.0554647
v -0.08748691 -0.00011125952 -0.06648164
v -0.08748691 0.18744554 -0.06648164
vt 0.313146 0.9938222
vt 0.30930036 0.013186976
vt 0.26699847 0.013186976
vt 0.26699847 0.9938222
vt 0.9899766 0.9938222
vt 0.9899766 0.013186976
vt 0.72462827 0.013186976
vt 0.72462827 0.9938222
vt 0.26699847 0.9938222
vt 0.26699847 0.013186976
vt 0.013186976 0.013186976
vt 0.013186976 0.9938222
vt 0.5285012 0.9938222
vt 0.5285012 0.013186976
vt 0.30930036 0.013186976
vt 0.313146 0.9938222
vt 0.72462827 0.9938222
vt 0.72462827 0.013186976
vt 0.6823263 0.013186976
vt 0.6823263 0.9938222
vt 0.63233316 0.013186976
vt 0.63233316 0.9938222
vt 0.613105 0.013186976
vt 0.613105 0.9938222
vt 0.5938769 0.013186976
vt 0.5938769 0.9938222
vt 0.5285012 0.013186976
vt 0.5285012 0.9938222
vn 0.6824782 0.015797615 -0.73073524
vn 0.6824782 0.015797615 -0.73073524
vn 0.6824782 0.015797615 -0.73073524
vn 0.6824782 0.015797615 -0.73073524
vn -0.015797615 0.015797615 0.9997504
vn -0.015797615 0.015797615 0.9997504
vn -0.015797615 0.015797615 0.9997504
vn -0.015797615 0.015797615 0.9997504
vn 0.9998752 0.015797598 -0
vn 0.9998752 0.015797598 -0
vn 0.9998752 0.015797598 -0
vn 0.9998752 0.015797598 -0
vn -0.015797615 0.015797615 -0.9997504
vn -0.015797615 0.015797615 -0.9997504
vn -0.015797615 0.015797615 -0.9997504
vn -0.015797615 0.015797615 -0.9997504
vn -0.99973154 0.015797615 0.01694976
vn -0.99973154 0.015797615 0.01694976
vn -0.99973154 0.015797615 0.01694976
vn -0.99973154 0.015797615 0.01694976
vn -0.936252 0.015797615 0.35097387
vn -0.936252 0.015797615 0.35097387
vn -0.8092927 0.015797615 0.5871932
vn -0.8092927 0.015797615 0.5871932
vn -0.5871141 0.015797615 0.80935
vn -0.5871141 0.015797615 0.80935
vn -0.42841506 0.015797615 0.90344393
vn -0.42841506 0.015797615 0.90344393
g vfx_ter_4x4_walls_BLL_0
f 3/3/3 2/2/2 1/1/1
f 4/4/4 3/3/3 1/1/1
f 7/7/7 6/6/6 5/5/5
f 8/8/8 7/7/7 5/5/5
f 11/11/11 10/10/10 9/9/9
f 12/12/12 11/11/11 9/9/9
f 15/15/15 14/14/14 13/13/13
f 16/16/16 15/15/15 13/13/13
f 19/19/19 18/18/18 17/17/17
f 20/20/20 19/19/19 17/17/17
f 21/21/21 19/19/19 20/20/20
f 22/22/22 21/21/21 20/20/20
f 23/23/23 21/21/21 22/22/22
f 24/24/24 23/23/23 22/22/22
f 25/25/25 23/23/23 24/24/24
f 26/26/26 25/25/25 24/24/24
f 27/27/27 25/25/25 26/26/26
f 28/28/28 27/27/27 26/26/26
